v -0.933536 -0.16529100000000005 -0.793855
v -1.036806 -0.08814400000000006 -0.793855
v -1.190452 -0.19026500000000013 -2.09493
v -1.190452 -0.19026500000000013 -2.09493
v -1.040549 -0.3140440000000001 -2.09493
v -0.933536 -0.16529100000000005 -0.793855
v -1.063756 0.139678 0.190045
v -1.063756 0.139678 -0.009082000000000008
v -1.057707 0.072185 -0.009082000000000005
v -1.057707 0.072185 -0.009082000000000005
v -1.057707 0.07218500000000001 0.190045
v -0.603166 -0.665766 0.06092500000000004
v -0.462088 -0.524687 0.060925000000000035
v -0.529105 -0.45767 0.06092500000000003
v -0.673242 -0.601806 0.060925000000000035
v -0.529105 -0.45767 -0.07288099999999997
v -0.673242 -0.601806 -0.07288099999999996
v -0.673242 -0.601806 0.060925000000000035
v -0.529105 -0.45767 0.06092500000000003
v -0.603166 -0.665766 -0.07288099999999996
v -0.603166 -0.665766 0.06092500000000004
v -0.673242 -0.601806 0.060925000000000035
v -0.673242 -0.601806 -0.07288099999999996
v -0.462088 -0.524687 -0.07288099999999997
v -0.462088 -0.524687 0.060925000000000035
v -0.603166 -0.665766 0.06092500000000004
v -0.603166 -0.665766 -0.07288099999999996
v -0.529105 -0.45767 -0.07288099999999997
v -0.529105 -0.45767 0.06092500000000003
v -0.462088 -0.524687 0.060925000000000035
v -0.462088 -0.524687 -0.07288099999999997
v -0.286271 -1.0733280000000003 -2.09493
v -0.061662 -1.1695200000000001 -2.09493
v 0.026246 -1.001662 -0.7938549999999999
v -0.198364 -0.905471 -0.793855
v -0.362381 -0.989465 -0.10902599999999994
v -0.275904 -0.895916 -0.11193999999999994
v -0.275904 -0.895916 -0.793855
v -0.378462 -1.005546 -0.5934629999999999
v -0.326499 -0.94903 -0.033608999999999944
v -0.315882 -0.938413 -0.033608999999999944
v -0.603269 -0.629054 -0.03360899999999996
v -0.613886 -0.639671 -0.03360899999999996
v -0.326499 -0.94903 -0.3317919999999999
v -0.326499 -0.94903 -0.2846119999999999
v -0.613886 -0.639671 -0.2846119999999999
v -0.613886 -0.63967 -0.3317919999999999
v -0.334613 -0.957143 -0.08503299999999994
v -0.315364 -0.937895 -0.08503299999999994
v -0.602751 -0.628535 -0.22633599999999998
v -0.622 -0.647784 -0.22633599999999998
v -0.326499 -0.94903 -0.22450999999999993
v -0.30725 -0.929781 -0.22450999999999993
v -0.594637 -0.620422 -0.08320699999999996
v -0.613886 -0.639671 -0.08320699999999996
v -0.622 -0.647784 -0.27351699999999995
v -0.334613 -0.957144 -0.13221299999999994
v -0.334613 -0.957143 -0.08503299999999994
v -0.622 -0.647784 -0.22633599999999998
v -0.326499 -0.94903 -0.27168999999999993
v -0.326499 -0.94903 -0.22450999999999993
v -0.613886 -0.639671 -0.08320699999999996
v -0.613886 -0.63967 -0.13038699999999998
v -0.326499 -0.94903 -0.2846119999999999
v -0.30725 -0.929781 -0.2846119999999999
v -0.594637 -0.620422 -0.2846119999999999
v -0.613886 -0.639671 -0.2846119999999999
v -0.326499 -0.94903 -0.08078899999999994
v -0.326499 -0.94903 -0.033608999999999944
v -0.613886 -0.639671 -0.03360899999999996
v -0.613886 -0.63967 -0.08078899999999996
v -0.653402 -0.602796 -0.031527999999999966
v -0.642785 -0.592179 -0.031527999999999966
v -0.941675 -0.271317 -0.03152799999999999
v -0.952291 -0.281933 -0.03152799999999999
v -0.653402 -0.602796 -0.33053199999999994
v -0.653402 -0.602796 -0.2832219999999999
v -0.952291 -0.281933 -0.283222
v -0.952291 -0.281933 -0.330532
v -0.661515 -0.610909 -0.08309399999999996
v -0.642267 -0.591661 -0.08309399999999996
v -0.941157 -0.270798 -0.22478599999999999
v -0.960405 -0.290047 -0.22478599999999999
v -0.653402 -0.602796 -0.22295399999999999
v -0.634153 -0.583547 -0.22295399999999999
v -0.933043 -0.262685 -0.08126199999999999
v -0.952291 -0.281933 -0.08126199999999999
v -0.960405 -0.290047 -0.272096
v -0.661515 -0.61091 -0.13040399999999996
v -0.661515 -0.610909 -0.08309399999999996
v -0.960405 -0.290047 -0.22478599999999999
v -0.653402 -0.602796 -0.27026399999999995
v -0.653402 -0.602796 -0.22295399999999999
v -0.952291 -0.281933 -0.08126199999999999
v -0.952291 -0.281933 -0.12857199999999996
v -0.653402 -0.602796 -0.2832219999999999
v -0.634153 -0.583547 -0.2832219999999999
v -0.933043 -0.262685 -0.283222
v -0.952291 -0.281933 -0.283222
v -0.653402 -0.602796 -0.07883799999999996
v -0.653402 -0.602796 -0.031527999999999966
v -0.952291 -0.281933 -0.03152799999999999
v -0.952291 -0.281933 -0.07883799999999999
v -0.480492 -0.536646 0.007002000000000033
v -0.690371 -0.746525 -0.015336999999999955
v -0.382388 -1.00991 -0.015336999999999937
v -0.195296 -0.822819 0.007002000000000051
v -1.030678 -0.409833 -0.015336999999999976
v -0.767294 -0.717816 -0.015336999999999957
v -0.557414 -0.507937 0.007002000000000032
v -0.843587 -0.222741 0.007002000000000014
v -0.325419 -0.948008 -0.010392999999999942
v -0.207294 -0.829883 0.022322000000000054
v -0.219702 -0.842291 -0.009232999999999948
v -0.325419 -0.948008 -0.061784999999999944
v -0.315536 -1.035922 -0.018693999999999936
v -0.315535 -1.035922 -0.10621799999999994
v -0.152297 -1.124064 -0.11708199999999994
v -0.152297 -1.124064 -0.02955799999999993
v -0.977149 -0.357725 -0.018693999999999978
v -0.977149 -0.357725 -0.06385999999999997
v -0.817635 -0.195191 -0.02870299999999999
v -0.817635 -0.195191 0.01646200000000001
v -1.102136 -0.153429 -0.02955799999999999
v -1.102136 -0.153428 -0.11708199999999999
v -1.011619 -0.325774 -0.10621799999999999
v -1.011619 -0.325774 -0.018693999999999978
v -1.020877 -0.29654200000000003 -0.593463
v -0.911247 -0.19398400000000005 -0.793855
v -0.868805 -0.144469 -0.136553
v -1.004797 -0.280461 -0.10902599999999998
v -0.321944 -0.942603 0.13963000000000006
v -0.321944 -0.9426030000000001 -1.681659
v -0.383559 -1.006442 -1.685809
v -0.383559 -1.006442 0.13963000000000006
v -0.270327 -0.992937 0.13963000000000006
v -0.270327 -0.9929370000000001 -1.681659
v -0.321944 -0.9426030000000001 -1.681659
v -0.321944 -0.942603 0.13963000000000006
v -0.270327 -0.992937 0.13963000000000006
v -0.331942 -1.056776 0.13963000000000006
v -0.331942 -1.056776 -1.685809
v -0.270327 -0.9929370000000001 -1.681659
v -0.383559 -1.006442 0.13963000000000006
v -0.383559 -1.006442 -1.685809
v -0.331942 -1.056776 -1.685809
v -0.331942 -1.056776 0.13963000000000006
v -0.383559 -1.006442 0.13963000000000006
v -0.331942 -1.056776 0.13963000000000006
v -0.270327 -0.992937 0.13963000000000006
v -0.321944 -0.942603 0.13963000000000006
v -0.980792 -0.262855 0.13963000000000003
v -0.980792 -0.2628550000000001 -1.681659
v -1.042407 -0.3266930000000001 -1.685809
v -1.042407 -0.326693 0.13963000000000003
v -0.929174 -0.313189 0.13963000000000003
v -0.929174 -0.3131890000000001 -1.681659
v -0.980792 -0.2628550000000001 -1.681659
v -0.980792 -0.262855 0.13963000000000003
v -0.929174 -0.313189 0.13963000000000003
v -0.99079 -0.377027 0.13963000000000003
v -0.99079 -0.3770270000000001 -1.685809
v -0.929174 -0.3131890000000001 -1.681659
v -1.042407 -0.326693 0.13963000000000003
v -1.042407 -0.3266930000000001 -1.685809
v -0.99079 -0.3770270000000001 -1.685809
v -0.99079 -0.377027 0.13963000000000003
v -1.042407 -0.326693 0.13963000000000003
v -0.99079 -0.377027 0.13963000000000003
v -0.929174 -0.313189 0.13963000000000003
v -0.980792 -0.262855 0.13963000000000003
v -0.663773 -0.611578 0.05820900000000003
v -0.663772 -0.6115780000000001 -1.681659
v -0.725388 -0.6754160000000001 -1.685809
v -0.725388 -0.675416 0.05820900000000004
v -0.613536 -0.660531 0.05820900000000004
v -0.613536 -0.6605310000000001 -1.681659
v -0.663772 -0.6115780000000001 -1.681659
v -0.663773 -0.611578 0.05820900000000003
v -0.613536 -0.660531 0.05820900000000004
v -0.675152 -0.724369 0.05820900000000004
v -0.675152 -0.7243690000000002 -1.685809
v -0.613536 -0.6605310000000001 -1.681659
v -0.725388 -0.675416 0.05820900000000004
v -0.725388 -0.6754160000000001 -1.685809
v -0.675152 -0.7243690000000002 -1.685809
v -0.675152 -0.724369 0.05820900000000004
v -0.725388 -0.675416 0.05820900000000004
v -0.675152 -0.724369 0.05820900000000004
v -0.613536 -0.660531 0.05820900000000004
v -0.663773 -0.611578 0.05820900000000003
v -0.184586 -0.956391 0.051252000000000054
v -0.945632 -0.169725 0.051252000000000006
v -0.945049 -0.169142 -0.0011309999999999897
v -0.184003 -0.955809 -0.0011309999999999415
v -0.890788 -0.114881 0.051252000000000006
v -0.129741 -0.901547 0.051252000000000054
v -0.121153 -0.892959 -0.016251999999999944
v -0.882199 -0.106292 -0.016251999999999992
v -0.945632 -0.169725 0.051252000000000006
v -0.184586 -0.956391 0.051252000000000054
v -0.129741 -0.901547 0.051252000000000054
v -0.890788 -0.114881 0.051252000000000006
v -1.227292 0.0038480000000000137 0.227734
v -1.192367 -0.03616999999999999 0.258862
v -1.072344 0.08385200000000001 0.258862
v -1.109816 0.12132400000000002 0.227734
v -1.072344 0.083852 0.109492
v -1.072344 0.08385200000000001 0.258862
v -1.192367 -0.03616999999999999 0.258862
v -1.192367 -0.036169999999999994 0.109492
v -1.227292 0.0038480000000000064 0.109492
v -1.192367 -0.036169999999999994 0.109492
v -1.192367 -0.03616999999999999 0.258862
v -1.227292 0.0038480000000000137 0.227734
v -1.109816 0.121324 0.10949199999999999
v -1.227292 0.0038480000000000064 0.109492
v -1.227292 0.0038480000000000137 0.227734
v -1.109816 0.12132400000000002 0.227734
v -1.072344 0.083852 0.109492
v -1.109816 0.121324 0.10949199999999999
v -1.109816 0.12132400000000002 0.227734
v -1.072344 0.08385200000000001 0.258862
v -0.882199 -0.106292 0.109492
v -0.882199 -0.106292 6.508507878748523E-18
v -1.110207 0.121715 -7.452894257911005E-18
v -1.110207 0.121716 0.10949199999999999
v -0.999676 -0.22376899999999997 0.227734
v -0.882199 -0.10629199999999998 0.227734
v -0.919671 -0.06881999999999999 0.258862
v -1.039694 -0.18884299999999998 0.258862
v -0.919671 -0.06882 0.109492
v -1.039694 -0.188843 0.10949200000000002
v -1.039694 -0.18884299999999998 0.258862
v -0.919671 -0.06881999999999999 0.258862
v -0.999676 -0.223769 0.10949200000000002
v -0.999676 -0.22376899999999997 0.227734
v -1.039694 -0.18884299999999998 0.258862
v -1.039694 -0.188843 0.10949200000000002
v -0.882199 -0.106292 0.109492
v -0.882199 -0.10629199999999998 0.227734
v -0.999676 -0.22376899999999997 0.227734
v -0.999676 -0.223769 0.10949200000000002
v -0.919671 -0.06882 0.109492
v -0.919671 -0.06881999999999999 0.258862
v -0.882199 -0.10629199999999998 0.227734
v -0.882199 -0.106292 0.109492
v -1.253877 -0.06347899999999998 0.227734
v -1.21608 -0.10127699999999999 0.258862
v -1.21608 -0.101277 0.109492
v -1.253877 -0.063479 0.109492
v -1.067394 -0.249963 0.10949200000000002
v -1.105191 -0.212165 0.10949200000000002
v -1.105191 -0.21216499999999996 0.258862
v -1.067394 -0.24996299999999996 0.22773400000000002
v -0.996091 0.136023 0.190045
v -0.996091 0.136023 -0.009082000000000008
v -1.063756 0.139678 -0.009082000000000008
v -1.063756 0.139678 0.190045
v -0.990042 0.06853100000000001 0.190045
v -0.990042 0.068531 -0.009082000000000003
v -0.996091 0.136023 -0.009082000000000008
v -0.996091 0.136023 0.190045
v -1.057707 0.07218500000000001 0.190045
v -1.057707 0.072185 -0.009082000000000005
v -0.990042 0.068531 -0.009082000000000003
v -0.990042 0.06853100000000001 0.190045
v -1.063756 0.139678 0.190045
v -1.057707 0.07218500000000001 0.190045
v -0.990042 0.06853100000000001 0.190045
v -0.996091 0.136023 0.190045
v -0.889048 -0.0016189999999999907 0.153668
v -0.889048 -0.0016190000000000006 -0.009082
v -0.956713 0.0020349999999999995 -0.009082
v -0.956713 0.0020350000000000095 0.153668
v -0.882998 -0.06911199999999999 0.153668
v -0.882998 -0.069112 -0.009081999999999996
v -0.889048 -0.0016190000000000006 -0.009082
v -0.889048 -0.0016189999999999907 0.153668
v -0.956713 0.0020350000000000095 0.153668
v -0.956713 0.0020349999999999995 -0.009082
v -0.950663 -0.065458 -0.009081999999999996
v -0.950663 -0.06545799999999999 0.153668
v -0.950663 -0.06545799999999999 0.153668
v -0.950663 -0.065458 -0.009081999999999996
v -0.882998 -0.069112 -0.009081999999999996
v -0.882998 -0.06911199999999999 0.153668
v -0.956713 0.0020350000000000095 0.153668
v -0.950663 -0.06545799999999999 0.153668
v -0.882998 -0.06911199999999999 0.153668
v -0.889048 -0.0016189999999999907 0.153668
v -0.944733 0.061057000000000014 0.265485
v -0.944733 0.061057 -0.009082000000000003
v -1.012398 0.064712 -0.009082000000000003
v -1.012398 0.06471200000000002 0.265485
v -0.938684 -0.006435999999999983 0.265485
v -0.938684 -0.006436000000000001 -0.009082
v -0.944733 0.061057 -0.009082000000000003
v -0.944733 0.061057000000000014 0.265485
v -1.012398 0.06471200000000002 0.265485
v -1.012398 0.064712 -0.009082000000000003
v -1.006348 -0.0027810000000000005 -0.009082
v -1.006348 -0.002780999999999984 0.265485
v -1.006348 -0.002780999999999984 0.265485
v -1.006348 -0.0027810000000000005 -0.009082
v -0.938684 -0.006436000000000001 -0.009082
v -0.938684 -0.006435999999999983 0.265485
v -1.012398 0.06471200000000002 0.265485
v -1.006348 -0.002780999999999984 0.265485
v -0.938684 -0.006435999999999983 0.265485
v -0.944733 0.061057000000000014 0.265485
v -1.197625 -0.263161 -0.07564099999999999
v -1.080838 -0.146374 -0.07564099999999999
v -1.151053 -0.07616 -0.075641
v -1.267839 -0.192946 -0.07564099999999999
v -0.206223 -1.11089 -0.10951499999999993
v -0.362381 -0.989465 -0.10902599999999994
v -0.378462 -1.005546 -0.5934629999999999
v -0.229354 -1.134021 -0.5934629999999999
v -0.275904 -0.895916 -0.793855
v -0.147914 -1.052391 -0.7938549999999999
v -0.152297 -1.124064 -0.02955799999999993
v -0.00294 -1.034238 0.005598000000000063
v -0.207294 -0.829883 0.022322000000000054
v -0.315536 -1.035922 -0.018693999999999936
v -0.325419 -0.948008 -0.010392999999999942
v -1.004797 -0.280461 -0.10902599999999998
v -1.136538 -0.143507 -0.10951499999999999
v -1.144909 -0.15187700000000004 -0.593463
v -1.020877 -0.29654200000000003 -0.593463
v -1.06331 -0.07040600000000005 -0.793855
v -0.911247 -0.19398400000000005 -0.793855
v -1.067394 -0.24996299999999996 0.22773400000000002
v -1.105191 -0.21216499999999996 0.258862
v -1.110047 -0.266805 0.22773400000000002
v -1.189239 -0.18532399999999996 0.258862
v -1.222155 -0.21823999999999996 0.227734
v -1.21608 -0.10127699999999999 0.258862
v -1.27072 -0.10613199999999999 0.227734
v -1.253877 -0.06347899999999998 0.227734
v -1.253877 -0.06347899999999998 0.227734
v -1.253877 -0.063479 0.109492
v -1.27072 -0.106132 0.109492
v -1.27072 -0.10613199999999999 0.227734
v -1.222155 -0.21824 0.10949200000000002
v -1.222155 -0.21823999999999996 0.227734
v -1.110047 -0.266805 0.10949200000000002
v -1.110047 -0.266805 0.22773400000000002
v -1.067394 -0.249963 0.10949200000000002
v -1.067394 -0.24996299999999996 0.22773400000000002
v -0.882199 -0.106292 0.109492
v -1.110207 0.121716 0.10949199999999999
v -1.227292 0.0038480000000000064 0.109492
v -1.000067 -0.223378 0.10949200000000002
v -1.27072 -0.106132 0.109492
v -1.110047 -0.266805 0.10949200000000002
v -1.27072 -0.10613200000000005 -0.721273
v -1.27072 -0.106132 0.109492
v -1.227292 0.0038480000000000064 0.109492
v -1.227292 0.0038479999999999556 -0.721273
v -1.110207 0.121716 0.10949199999999999
v -1.110207 0.12171499999999996 -0.721273
v -1.27072 -0.106132 0.109492
v -1.27072 -0.10613200000000005 -0.721273
v -1.194879 -0.19096400000000005 -0.721273
v -1.222155 -0.21824 0.10949200000000002
v -1.110047 -0.26680500000000007 -0.721273
v -1.110047 -0.266805 0.10949200000000002
v -1.110047 -0.266805 0.10949200000000002
v -1.110047 -0.26680500000000007 -0.721273
v -0.998232 -0.22154300000000005 -0.721273
v -1.000067 -0.223378 0.10949200000000002
v -0.882199 -0.10629200000000004 -0.721273
v -0.882199 -0.106292 0.109492
v -1.080838 -0.146374 -0.07564099999999999
v -1.197625 -0.263161 -0.07564099999999999
v -1.18136 -0.28425900000000004 -0.593463
v -1.03673 -0.14360200000000006 -0.693659
v -1.125673 -0.23651800000000006 -0.793855
v -1.01631 -0.12715500000000013 -2.08896
v -1.133096 -0.24394100000000013 -2.08896
v -1.197625 -0.263161 -0.07564099999999999
v -1.267839 -0.192946 -0.07564099999999999
v -1.288938 -0.17668200000000003 -0.593463
v -1.18136 -0.28425900000000004 -0.593463
v -1.237159 -0.12503200000000006 -0.793855
v -1.125673 -0.23651800000000006 -0.793855
v -1.133096 -0.24394100000000013 -2.08896
v -1.244583 -0.13245500000000013 -2.08896
v -1.011619 -0.325774 -0.018693999999999978
v -0.977149 -0.357725 -0.018693999999999978
v -0.817635 -0.195191 0.01646200000000001
v -0.916459 -0.096814 0.005598000000000006
v -1.102136 -0.153429 -0.02955799999999999
v -1.189239 -0.18532399999999996 0.258862
v -1.105191 -0.21216499999999996 0.258862
v -1.105191 -0.212165 0.10949200000000002
v -1.189239 -0.185324 0.10949200000000002
v -1.21608 -0.10127699999999999 0.258862
v -1.21608 -0.101277 0.109492
v -0.933536 -0.16529100000000005 -0.793855
v -1.040549 -0.3140440000000001 -2.09493
v -1.05896 -0.4873150000000001 -2.09493
v -0.198364 -0.905471 -0.793855
v -0.51179 -1.0344850000000003 -2.09493
v -0.286271 -1.0733280000000003 -2.09493
v -0.985584 -0.181147 -0.06782699999999998
v -0.185482 -0.98125 -0.06782699999999994
v -1.146262 -0.034070000000000045 -0.693659
v -1.127796 -0.01566800000000013 -2.08896
v -1.244583 -0.13245500000000013 -2.08896
v -1.237159 -0.12503200000000006 -0.793855
v -1.288938 -0.17668200000000003 -0.593463
v -1.267839 -0.192946 -0.07564099999999999
v -1.151053 -0.07616 -0.075641
v 1 1 -6.123233995736766E-17
v -1 1 -6.123233995736766E-17
v -1 0 0
v -0 -1 6.123233995736766E-17
v 1 -1 6.123233995736766E-17
vt 0.437901 0.530519
vt 0.488503 0.524547
vt 0.519963 0.986069
vt 0.519963 0.986069
vt 0.452109 0.988132
vt 0.437901 0.530519
vt 0.631481 0.890792
vt 0.561652 0.890792
vt 0.561652 0.867098
vt 0.561652 0.867098
vt 0.631482 0.867098
vt 0.242659 0.227949
vt 0.184459 0.227986
vt 0.184453 0.206438
vt 0.243920 0.206438
vt 0.882981 0.281462
vt 0.823519 0.281462
vt 0.823519 0.229136
vt 0.882981 0.229136
vt 0.242676 0.269363
vt 0.242659 0.227949
vt 0.261273 0.217027
vt 0.261273 0.269358
vt 0.184478 0.269420
vt 0.184459 0.227986
vt 0.242659 0.227949
vt 0.242676 0.269363
vt 0.165908 0.269424
vt 0.165908 0.217093
vt 0.184459 0.227986
vt 0.184478 0.269420
vt 0.047477 0.989615
vt 0.003614 0.989646
vt 0.027662 0.528904
vt 0.074894 0.528963
vt 0.816888 0.694206
vt 0.810460 0.626203
vt 0.579028 0.638440
vt 0.647116 0.693857
vt 0.571317 0.809283
vt 0.571315 0.804025
vt 0.812909 0.804025
vt 0.812906 0.809283
vt 0.571306 0.831371
vt 0.571318 0.809283
vt 0.812908 0.809283
vt 0.812919 0.831371
vt 0.815465 0.771269
vt 0.815392 0.761734
vt 0.564902 0.763809
vt 0.564982 0.773340
vt 0.564652 0.773255
vt 0.564588 0.763717
vt 0.815053 0.762057
vt 0.815117 0.771594
vt 0.559308 0.794687
vt 0.809814 0.792624
vt 0.815465 0.771269
vt 0.564982 0.773340
vt 0.558966 0.794598
vt 0.564652 0.773255
vt 0.815117 0.771594
vt 0.809429 0.792936
vt 0.571318 0.809283
vt 0.571312 0.799750
vt 0.812910 0.799750
vt 0.812908 0.809283
vt 0.571305 0.831371
vt 0.571317 0.809283
vt 0.812906 0.809283
vt 0.812918 0.831371
vt 0.571317 0.809283
vt 0.571315 0.804025
vt 0.812909 0.804025
vt 0.812906 0.809283
vt 0.571306 0.831371
vt 0.571318 0.809283
vt 0.812908 0.809283
vt 0.812919 0.831371
vt 0.815465 0.771269
vt 0.815392 0.761734
vt 0.564902 0.763809
vt 0.564982 0.773340
vt 0.564652 0.773255
vt 0.564588 0.763717
vt 0.815053 0.762057
vt 0.815117 0.771594
vt 0.559308 0.794687
vt 0.809814 0.792624
vt 0.815465 0.771269
vt 0.564982 0.773340
vt 0.558966 0.794598
vt 0.564652 0.773255
vt 0.815117 0.771594
vt 0.809429 0.792936
vt 0.571318 0.809283
vt 0.571312 0.799750
vt 0.812910 0.799750
vt 0.812908 0.809283
vt 0.571305 0.831371
vt 0.571317 0.809283
vt 0.812906 0.809283
vt 0.812918 0.831371
vt 0.162262 0.139003
vt 0.162586 0.000633
vt 0.002808 0.000633
vt 0.002532 0.139003
vt 0.150213 0.000633
vt 0.309991 0.000633
vt 0.309667 0.139003
vt 0.149937 0.139003
vt 0.759300 0.882130
vt 0.699888 0.885404
vt 0.707496 0.875247
vt 0.761870 0.864427
vt 0.779991 0.904885
vt 0.809383 0.911840
vt 0.798042 0.975280
vt 0.767440 0.968891
vt 0.471724 0.202368
vt 0.487406 0.203484
vt 0.469191 0.282188
vt 0.453345 0.281027
vt 0.387955 0.202475
vt 0.384444 0.171923
vt 0.452679 0.167893
vt 0.456112 0.198286
vt 0.647116 0.693857
vt 0.579028 0.638440
vt 0.810460 0.626203
vt 0.816888 0.694206
vt 0.374285 0.088348
vt 0.984525 0.088368
vt 0.985947 0.120588
vt 0.374293 0.119798
vt 0.374266 0.063501
vt 0.984548 0.063111
vt 0.984525 0.088368
vt 0.374285 0.088348
vt 0.374266 0.063501
vt 0.374240 0.032049
vt 0.985930 0.032031
vt 0.984548 0.063111
vt 0.374241 0.007185
vt 0.985930 0.007127
vt 0.985930 0.032031
vt 0.374240 0.032049
vt 0.349348 0.032208
vt 0.374240 0.032049
vt 0.374266 0.063501
vt 0.349394 0.063674
vt 0.374285 0.088348
vt 0.984525 0.088368
vt 0.985947 0.120588
vt 0.374293 0.119798
vt 0.374266 0.063501
vt 0.984548 0.063111
vt 0.984525 0.088368
vt 0.374285 0.088348
vt 0.374266 0.063501
vt 0.374240 0.032049
vt 0.985930 0.032031
vt 0.984548 0.063111
vt 0.374241 0.007185
vt 0.985930 0.007127
vt 0.985930 0.032031
vt 0.374240 0.032049
vt 0.349348 0.032208
vt 0.374240 0.032049
vt 0.374266 0.063501
vt 0.349394 0.063674
vt 0.374285 0.088348
vt 0.993734 0.088370
vt 0.995206 0.119752
vt 0.374293 0.119798
vt 0.374266 0.063501
vt 0.993739 0.063531
vt 0.993734 0.088370
vt 0.374285 0.088348
vt 0.374266 0.063501
vt 0.374240 0.032049
vt 0.995227 0.032031
vt 0.993739 0.063531
vt 0.374241 0.007185
vt 0.995227 0.007126
vt 0.995227 0.032031
vt 0.374240 0.032049
vt 0.349348 0.032208
vt 0.374240 0.032049
vt 0.374266 0.063501
vt 0.349394 0.063674
vt 0.603294 0.194106
vt 0.986593 0.191700
vt 0.986124 0.212891
vt 0.603294 0.212443
vt 0.986398 0.163371
vt 0.603294 0.166975
vt 0.603294 0.142958
vt 0.986379 0.141772
vt 0.986593 0.191700
vt 0.603294 0.194106
vt 0.603294 0.166975
vt 0.986398 0.163371
vt 0.242659 0.227949
vt 0.243920 0.206438
vt 0.184453 0.206438
vt 0.184459 0.227986
vt 0.882981 0.281462
vt 0.882981 0.229136
vt 0.823519 0.229136
vt 0.823519 0.281462
vt 0.242676 0.269363
vt 0.261273 0.269358
vt 0.261273 0.217027
vt 0.242659 0.227949
vt 0.184478 0.269420
vt 0.242676 0.269363
vt 0.242659 0.227949
vt 0.184459 0.227986
vt 0.165908 0.269424
vt 0.184478 0.269420
vt 0.184459 0.227986
vt 0.165908 0.217093
vt 0.056418 0.264188
vt 0.018191 0.264188
vt 0.018191 0.150725
vt 0.056418 0.150726
vt 0.242659 0.227949
vt 0.184459 0.227986
vt 0.184453 0.206438
vt 0.243920 0.206438
vt 0.882981 0.281462
vt 0.823519 0.281462
vt 0.823519 0.229136
vt 0.882981 0.229136
vt 0.242676 0.269363
vt 0.242659 0.227949
vt 0.261273 0.217027
vt 0.261273 0.269358
vt 0.184478 0.269420
vt 0.184459 0.227986
vt 0.242659 0.227949
vt 0.242676 0.269363
vt 0.165908 0.269424
vt 0.165908 0.217093
vt 0.184459 0.227986
vt 0.184478 0.269420
vt 0.268407 0.185774
vt 0.249960 0.197143
vt 0.248652 0.144833
vt 0.267372 0.144365
vt 0.168136 0.146846
vt 0.186856 0.146378
vt 0.188157 0.198689
vt 0.169171 0.188254
vt 0.631481 0.914487
vt 0.561652 0.914486
vt 0.561652 0.890792
vt 0.631481 0.890792
vt 0.631481 0.938221
vt 0.561652 0.938221
vt 0.561652 0.914486
vt 0.631481 0.914487
vt 0.631482 0.867098
vt 0.561652 0.867098
vt 0.561652 0.843363
vt 0.631482 0.843364
vt 0.967702 0.281709
vt 0.968397 0.257980
vt 0.991982 0.255279
vt 0.991286 0.279007
vt 0.539012 0.135907
vt 0.539012 0.193065
vt 0.515383 0.193065
vt 0.515383 0.135907
vt 0.562741 0.135907
vt 0.562741 0.193065
vt 0.539012 0.193065
vt 0.539012 0.135907
vt 0.515383 0.135907
vt 0.515383 0.193065
vt 0.491754 0.193065
vt 0.491754 0.135907
vt 0.491754 0.135907
vt 0.491754 0.193065
vt 0.468025 0.193065
vt 0.468025 0.135907
vt 0.957395 0.245426
vt 0.933980 0.241522
vt 0.934498 0.217789
vt 0.957914 0.221693
vt 0.355031 0.187169
vt 0.355031 0.275438
vt 0.329164 0.275438
vt 0.329164 0.187169
vt 0.380899 0.187169
vt 0.380899 0.275438
vt 0.355031 0.275438
vt 0.355031 0.187169
vt 0.329164 0.187169
vt 0.329164 0.275438
vt 0.303296 0.275438
vt 0.303296 0.187169
vt 0.303296 0.187169
vt 0.303296 0.275438
vt 0.277428 0.275438
vt 0.277428 0.187169
vt 0.965820 0.243793
vt 0.967763 0.220134
vt 0.991457 0.218677
vt 0.989514 0.242336
vt 0.891559 0.295599
vt 0.891385 0.237468
vt 0.926501 0.237468
vt 0.926363 0.295612
vt 0.816308 0.760924
vt 0.816888 0.694206
vt 0.647116 0.693857
vt 0.645766 0.760145
vt 0.560054 0.692336
vt 0.564489 0.760944
vt 0.767440 0.968891
vt 0.707125 0.986348
vt 0.699888 0.885404
vt 0.779991 0.904885
vt 0.759300 0.882130
vt 0.816888 0.694206
vt 0.816308 0.760924
vt 0.645766 0.760145
vt 0.647116 0.693857
vt 0.564489 0.760944
vt 0.560054 0.692336
vt 0.554608 0.601505
vt 0.569092 0.617612
vt 0.547062 0.615777
vt 0.572558 0.648091
vt 0.555641 0.658037
vt 0.597585 0.665827
vt 0.588476 0.686010
vt 0.604632 0.686318
vt 0.643506 0.843110
vt 0.684910 0.841915
vt 0.685374 0.857973
vt 0.643969 0.859168
vt 0.686609 0.900755
vt 0.645204 0.901950
vt 0.687844 0.943537
vt 0.646439 0.944732
vt 0.688307 0.959595
vt 0.646903 0.960790
vt 0.056418 0.264188
vt 0.056418 0.150726
vt 0.114284 0.150920
vt 0.114284 0.263993
vt 0.152161 0.167480
vt 0.152161 0.247434
vt 0.708534 0.515723
vt 0.708553 0.220855
vt 0.749403 0.220871
vt 0.749356 0.515739
vt 0.807962 0.220887
vt 0.807905 0.515755
vt 0.708553 0.220855
vt 0.708534 0.515723
vt 0.669324 0.515790
vt 0.669324 0.220764
vt 0.630111 0.515940
vt 0.630098 0.221230
vt 0.630098 0.221230
vt 0.630111 0.515940
vt 0.588441 0.516018
vt 0.589252 0.221150
vt 0.530811 0.516040
vt 0.530693 0.221173
vt 0.834543 0.295391
vt 0.891559 0.295599
vt 0.886483 0.473125
vt 0.825146 0.512119
vt 0.877611 0.545159
vt 0.823824 0.994026
vt 0.881036 0.993430
vt 0.891559 0.295599
vt 0.926363 0.295612
vt 0.931460 0.473093
vt 0.886483 0.473125
vt 0.939223 0.545163
vt 0.877611 0.545159
vt 0.881036 0.993430
vt 0.935763 0.993470
vt 0.456112 0.198286
vt 0.471724 0.202368
vt 0.453345 0.281027
vt 0.405561 0.269497
vt 0.387955 0.202475
vt 0.219061 0.197915
vt 0.188157 0.198689
vt 0.186856 0.146378
vt 0.217754 0.145606
vt 0.249960 0.197143
vt 0.248652 0.144833
vt 0.437901 0.530519
vt 0.452109 0.988132
vt 0.392765 0.998584
vt 0.074894 0.528963
vt 0.123665 0.998361
vt 0.047477 0.989615
vt 0.452318 0.284919
vt 0.053551 0.283814
vt 0.992204 0.512345
vt 0.992973 0.994141
vt 0.935763 0.993470
vt 0.939223 0.545163
vt 0.931460 0.473093
vt 0.926363 0.295612
vt 0.983399 0.295536
vt 0.000000 0.000000
vt 1.000000 0.000000
vt 1.000000 0.500000
vt 0.500000 1.000000
vt 0.000000 1.000000
vn -0.593215 -0.794085 0.13238100000000005
vn -0.593215 -0.794085 0.13238100000000005
vn -0.593215 -0.794085 0.13238100000000005
vn -0.630524 -0.763593 0.13916200000000006
vn -0.630524 -0.763593 0.13916200000000006
vn -0.630524 -0.763593 0.13916200000000006
vn -0.996007 -0.089274 5.4664559173540405E-18
vn -0.996007 -0.089274 5.4664559173540405E-18
vn -0.866783 -0.498686 3.053571068397985E-17
vn -0.866783 -0.498686 3.053571068397985E-17
vn -0.467664 -0.883906 5.4123632682357017E-17
vn 0 6.123233995736766E-17 1
vn 0 6.123233995736766E-17 1
vn 0 6.123233995736766E-17 1
vn 0 6.123233995736766E-17 1
vn -0.707105 0.707108 -4.329787744257433E-17
vn -0.707105 0.707108 -4.329787744257433E-17
vn -0.707105 0.707108 -4.329787744257433E-17
vn -0.707105 0.707108 -4.329787744257433E-17
vn -0.67414 -0.738604 4.522645122187159E-17
vn -0.67414 -0.738604 4.522645122187159E-17
vn -0.67414 -0.738604 4.522645122187159E-17
vn -0.67414 -0.738604 4.522645122187159E-17
vn 0.707107 -0.707106 4.3297754977894416E-17
vn 0.707107 -0.707106 4.3297754977894416E-17
vn 0.707107 -0.707106 4.3297754977894416E-17
vn 0.707107 -0.707106 4.3297754977894416E-17
vn 0.707105 0.707109 -4.329793867491429E-17
vn 0.707105 0.707109 -4.329793867491429E-17
vn 0.707105 0.707109 -4.329793867491429E-17
vn 0.707105 0.707109 -4.329793867491429E-17
vn -0.389593 -0.909709 0.14368900000000007
vn -0.389593 -0.909709 0.14368900000000007
vn -0.389593 -0.909709 0.14368900000000007
vn -0.389593 -0.909709 0.14368900000000007
vn -0.731629 0.681703 0.0007359999999999583
vn -0.73432 0.678803 -4.1564696060081043E-17
vn -0.731629 0.681703 0.0007359999999999583
vn -0.728925 0.684592 0.0014719999999999582
vn 0 6.123233995736766E-17 1
vn 0 6.123233995736766E-17 1
vn 0 6.123233995736766E-17 1
vn 0 6.123233995736766E-17 1
vn -0.732647 -0.680609 1.0000000000416752E-06
vn -0.732647 -0.680609 4.1675281666044045E-17
vn -0.732647 -0.680609 1.0000000000416752E-06
vn -0.732647 -0.680609 1.0000000000416752E-06
vn -0.224534 0.22453500000000007 0.948245
vn -0.224534 0.22453500000000007 0.948245
vn -0.224534 0.22453500000000007 0.948245
vn -0.224535 0.22453400000000007 0.948245
vn 0.224534 -0.22453399999999996 0.948245
vn 0.224535 -0.22453299999999995 0.948245
vn 0.224534 -0.22453399999999996 0.948245
vn 0.224533 -0.22453499999999996 0.948245
vn -0.732647 -0.680609 3.0000000000416754E-06
vn -0.732648 -0.680607 7.000000000041675E-06
vn -0.732647 -0.680609 3.0000000000416754E-06
vn -0.732646 -0.68061 4.167534289838401E-17
vn -0.732647 -0.680609 1.0000000000416752E-06
vn -0.732647 -0.680609 4.1675281666044045E-17
vn -0.732647 -0.680609 1.0000000000416752E-06
vn -0.732646 -0.680609 1.0000000000416752E-06
vn 0 6.123233995736766E-17 1
vn 0 6.123233995736766E-17 1
vn 0 6.123233995736766E-17 1
vn 0 6.123233995736766E-17 1
vn -0.732647 -0.680609 1.0000000000416752E-06
vn -0.732647 -0.680609 4.1675281666044045E-17
vn -0.732647 -0.680609 1.0000000000416752E-06
vn -0.732647 -0.680609 1.0000000000416752E-06
vn 0 6.123233995736766E-17 1
vn 0 6.123233995736766E-17 1
vn 0 6.123233995736766E-17 1
vn 0 6.123233995736766E-17 1
vn -0.731717 -0.681609 4.173651400600141E-17
vn -0.731717 -0.681609 4.173651400600141E-17
vn -0.731717 -0.681609 4.173651400600141E-17
vn -0.731717 -0.681609 4.173651400600141E-17
vn -0.21754 0.21753900000000007 0.951501
vn -0.217539 0.21753900000000007 0.951501
vn -0.21754 0.21753900000000007 0.951501
vn -0.21754 0.21753900000000007 0.951501
vn 0.217538 -0.21753999999999996 0.951501
vn 0.217537 -0.21754099999999996 0.951501
vn 0.217538 -0.21753999999999996 0.951501
vn 0.217539 -0.21753899999999995 0.951501
vn -0.731717 -0.681609 1.0000000000417364E-06
vn -0.731717 -0.681609 4.173651400600141E-17
vn -0.731717 -0.681609 1.0000000000417364E-06
vn -0.731717 -0.681608 2.000000000041736E-06
vn -0.731717 -0.681609 4.173651400600141E-17
vn -0.731717 -0.681609 4.173651400600141E-17
vn -0.731717 -0.681609 4.173651400600141E-17
vn -0.731717 -0.681609 4.173651400600141E-17
vn 0 6.123233995736766E-17 1
vn 0 6.123233995736766E-17 1
vn 0 6.123233995736766E-17 1
vn 0 6.123233995736766E-17 1
vn -0.731717 -0.681609 4.173651400600141E-17
vn -0.731717 -0.681609 4.173651400600141E-17
vn -0.731717 -0.681609 4.173651400600141E-17
vn -0.731717 -0.681609 4.173651400600141E-17
vn -0.054258 -0.058298999999999934 0.996824
vn -0.048925 -0.05720899999999994 0.997163
vn -0.054258 -0.058298999999999934 0.996824
vn -0.05959 -0.05938599999999994 0.996455
vn -0.058299 -0.05425799999999994 0.996824
vn -0.057209 -0.04892499999999994 0.997163
vn -0.058299 -0.05425799999999994 0.996824
vn -0.059386 -0.059589999999999935 0.996455
vn -0.707107 0.707106 1.999999999956702E-06
vn -0.707107 0.707106 -4.3297754977894416E-17
vn -0.707107 0.707106 1.999999999956702E-06
vn -0.707107 0.707106 2.9999999999567023E-06
vn -0.475125 -0.879919 -9.999999999461204E-07
vn -0.475125 -0.879918 -9.999999999461206E-07
vn -0.475125 -0.879919 -9.999999999461204E-07
vn -0.475124 -0.879919 5.3879499342946995E-17
vn 0.713708 -0.700444 4.288982512909843E-17
vn 0.713708 -0.700444 4.288982512909843E-17
vn 0.713708 -0.700444 4.288982512909843E-17
vn 0.713708 -0.700444 4.288982512909843E-17
vn -0.885322 -0.464978 -9.999999999715282E-07
vn -0.885322 -0.464978 -1.999999999971528E-06
vn -0.885322 -0.464978 -9.999999999715282E-07
vn -0.885322 -0.464979 2.8471752201036855E-17
vn 0.699828 -0.714295 0.004815000000000043
vn 0.692459 -0.721393 0.009630000000000043
vn 0.699828 -0.714295 0.004815000000000043
vn 0.707107 -0.707106 4.3297754977894416E-17
vn -0.719523 0.694468 -4.25239006655132E-17
vn -0.719523 0.694468 -4.25239006655132E-17
vn -0.719523 0.694468 -4.25239006655132E-17
vn -0.719524 0.694468 -4.25239006655132E-17
vn 0.698152 0.71595 -4.383929379247737E-17
vn 0.698152 0.71595 -4.383929379247737E-17
vn 0.698152 0.71595 -4.383929379247737E-17
vn 0.698152 0.71595 -4.383929379247737E-17
vn 0.719522 -0.694469 4.252396189785316E-17
vn 0.719522 -0.69447 4.252402313019312E-17
vn 0.719522 -0.694469 4.252396189785316E-17
vn 0.719522 -0.694469 4.252396189785316E-17
vn -0.69815 -0.715951 4.3839355024817336E-17
vn -0.69815 -0.715951 4.3839355024817336E-17
vn -0.69815 -0.715951 4.3839355024817336E-17
vn -0.69815 -0.715951 4.3839355024817336E-17
vn 0 6.123233995736766E-17 1
vn 0 6.123233995736766E-17 1
vn 0 6.123233995736766E-17 1
vn 0 6.123233995736766E-17 1
vn -0.719523 0.694469 -4.252396189785316E-17
vn -0.719523 0.694469 -4.252396189785316E-17
vn -0.719523 0.694469 -4.252396189785316E-17
vn -0.719523 0.694468 -4.25239006655132E-17
vn 0.698152 0.71595 -4.383929379247737E-17
vn 0.698152 0.71595 -4.383929379247737E-17
vn 0.698152 0.71595 -4.383929379247737E-17
vn 0.698152 0.71595 -4.383929379247737E-17
vn 0.719522 -0.69447 4.252402313019312E-17
vn 0.719522 -0.69447 4.252402313019312E-17
vn 0.719522 -0.69447 4.252402313019312E-17
vn 0.719522 -0.69447 4.252402313019312E-17
vn -0.698151 -0.715951 4.3839355024817336E-17
vn -0.698151 -0.71595 4.383929379247737E-17
vn -0.698151 -0.715951 4.3839355024817336E-17
vn -0.698151 -0.715951 4.3839355024817336E-17
vn 0 6.123233995736766E-17 1
vn 0 6.123233995736766E-17 1
vn 0 6.123233995736766E-17 1
vn 0 6.123233995736766E-17 1
vn -0.719522 0.694469 -4.252396189785316E-17
vn -0.719522 0.694469 -4.252396189785316E-17
vn -0.719522 0.694469 -4.252396189785316E-17
vn -0.719522 0.694469 -4.252396189785316E-17
vn 0.6979 0.716195 -4.385429571576693E-17
vn 0.697901 0.716194 -4.3854234483426974E-17
vn 0.6979 0.716195 -4.385429571576693E-17
vn 0.697899 0.716196 -4.3854356948106894E-17
vn 0.719524 -0.694468 4.25239006655132E-17
vn 0.719524 -0.694468 4.25239006655132E-17
vn 0.719524 -0.694468 4.25239006655132E-17
vn 0.719524 -0.694468 4.25239006655132E-17
vn -0.697898 -0.716197 4.3854418180446845E-17
vn -0.697899 -0.716196 4.3854356948106894E-17
vn -0.697898 -0.716197 4.3854418180446845E-17
vn -0.697897 -0.716198 4.38544794127868E-17
vn 0 6.123233995736766E-17 1
vn 0 6.123233995736766E-17 1
vn 0 6.123233995736766E-17 1
vn 0 6.123233995736766E-17 1
vn -0.718624 -0.695221 -0.01572699999999996
vn -0.718624 -0.695221 -0.01572699999999996
vn -0.718624 -0.695221 -0.01572699999999996
vn -0.718624 -0.695221 -0.01572699999999996
vn 0.707357 0.684321 0.17706199999999994
vn 0.707357 0.684321 0.17706199999999994
vn 0.707357 0.684321 0.17706199999999994
vn 0.707357 0.684321 0.17706199999999994
vn 0 6.123233995736766E-17 1
vn 0 6.123233995736766E-17 1
vn 0 6.123233995736766E-17 1
vn 0 6.123233995736766E-17 1
vn -0.358137 0.35813700000000004 0.862251
vn -0.358137 0.35813700000000004 0.862251
vn -0.358137 0.35813700000000004 0.862251
vn -0.358136 0.35813600000000007 0.862251
vn 0.707107 -0.707107 4.329781621023438E-17
vn 0.707107 -0.707107 4.329781621023438E-17
vn 0.707107 -0.707107 4.329781621023438E-17
vn 0.707107 -0.707107 4.329781621023438E-17
vn -0.753422 -0.657537 4.026252911854766E-17
vn -0.753422 -0.657537 4.026252911854766E-17
vn -0.753422 -0.657537 4.026252911854766E-17
vn -0.753422 -0.657537 4.026252911854766E-17
vn -0.707107 0.707107 -4.329781621023438E-17
vn -0.707107 0.707107 -4.329781621023438E-17
vn -0.707107 0.707107 -4.329781621023438E-17
vn -0.707107 0.707107 -4.329781621023438E-17
vn 0.707107 0.707107 -4.329781621023438E-17
vn 0.707107 0.707107 -4.329781621023438E-17
vn 0.707107 0.707107 -4.329781621023438E-17
vn 0.707107 0.707107 -4.329781621023438E-17
vn 0.707107 0.707107 -4.329781621023438E-17
vn 0.707107 0.707107 -4.329781621023438E-17
vn 0.707107 0.707107 -4.329781621023438E-17
vn 0.707107 0.707107 -4.329781621023438E-17
vn 0.358137 -0.3581369999999999 0.862251
vn 0.358137 -0.3581369999999999 0.862251
vn 0.358137 -0.3581369999999999 0.862251
vn 0.358137 -0.3581369999999999 0.862251
vn -0.707107 0.707107 -4.329781621023438E-17
vn -0.707107 0.707107 -4.329781621023438E-17
vn -0.707107 0.707107 -4.329781621023438E-17
vn -0.707107 0.707107 -4.329781621023438E-17
vn -0.657537 -0.753422 4.613379203535986E-17
vn -0.657537 -0.753422 4.613379203535986E-17
vn -0.657537 -0.753422 4.613379203535986E-17
vn -0.657537 -0.753422 4.613379203535986E-17
vn 0.707107 -0.707107 4.329781621023438E-17
vn 0.707107 -0.707107 4.329781621023438E-17
vn 0.707107 -0.707107 4.329781621023438E-17
vn 0.707107 -0.707107 4.329781621023438E-17
vn 0.707106 0.707108 -4.329787744257433E-17
vn 0.707106 0.707108 -4.329787744257433E-17
vn 0.707106 0.707108 -4.329787744257433E-17
vn 0.707106 0.707108 -4.329787744257433E-17
vn 0.707108 0.707106 -4.3297754977894416E-17
vn 0.707108 0.707106 -4.3297754977894416E-17
vn 0.707108 0.707106 -4.3297754977894416E-17
vn 0.707108 0.707106 -4.3297754977894416E-17
vn 0.707107 0.707107 -4.329781621023438E-17
vn 0.707107 0.707107 -4.329781621023438E-17
vn 0.707107 0.707107 -4.329781621023438E-17
vn 0.707107 0.707107 -4.329781621023438E-17
vn 0.053931 0.998545 -6.11432469027297E-17
vn 0.053931 0.998545 -6.11432469027297E-17
vn 0.053931 0.998545 -6.11432469027297E-17
vn 0.05393 0.998545 -6.11432469027297E-17
vn 0.996007 0.089272 -5.466333452674126E-18
vn 0.996007 0.089272 -5.466333452674126E-18
vn 0.996007 0.089272 -5.466333452674126E-18
vn 0.996007 0.089271 -5.4662722203341685E-18
vn -0.467664 -0.883906 5.4123632682357017E-17
vn -0.866783 -0.498686 3.053571068397985E-17
vn -0.053931 -0.998545 6.11432469027297E-17
vn -0.053931 -0.998545 6.11432469027297E-17
vn 0 6.123233995736766E-17 1
vn 0 6.123233995736766E-17 1
vn 0 6.123233995736766E-17 1
vn 0 6.123233995736766E-17 1
vn 0.05393 0.998545 -6.11432469027297E-17
vn 0.05393 0.998545 -6.11432469027297E-17
vn 0.05393 0.998545 -6.11432469027297E-17
vn 0.05393 0.998545 -6.11432469027297E-17
vn 0.996007 0.089272 -5.466333452674126E-18
vn 0.996007 0.089272 -5.466333452674126E-18
vn 0.996007 0.089272 -5.466333452674126E-18
vn 0.996007 0.089272 -5.466333452674126E-18
vn -0.996007 -0.089273 5.4663946850140834E-18
vn -0.996007 -0.089273 5.4663946850140834E-18
vn -0.996007 -0.089273 5.4663946850140834E-18
vn -0.996007 -0.089272 5.466333452674126E-18
vn -0.05393 -0.998545 6.11432469027297E-17
vn -0.05393 -0.998545 6.11432469027297E-17
vn -0.05393 -0.998545 6.11432469027297E-17
vn -0.05393 -0.998545 6.11432469027297E-17
vn 0 6.123233995736766E-17 1
vn 0 6.123233995736766E-17 1
vn 0 6.123233995736766E-17 1
vn 0 6.123233995736766E-17 1
vn 0.053931 0.998545 -6.11432469027297E-17
vn 0.053931 0.998545 -6.11432469027297E-17
vn 0.053931 0.998545 -6.11432469027297E-17
vn 0.053931 0.998545 -6.11432469027297E-17
vn 0.996007 0.089271 -5.4662722203341685E-18
vn 0.996007 0.089271 -5.4662722203341685E-18
vn 0.996007 0.089271 -5.4662722203341685E-18
vn 0.996007 0.089271 -5.4662722203341685E-18
vn -0.996007 -0.08927 5.466210987994211E-18
vn -0.996007 -0.08927 5.466210987994211E-18
vn -0.996007 -0.08927 5.466210987994211E-18
vn -0.996007 -0.08927 5.466210987994211E-18
vn -0.053932 -0.998545 6.11432469027297E-17
vn -0.053932 -0.998545 6.11432469027297E-17
vn -0.053932 -0.998545 6.11432469027297E-17
vn -0.053932 -0.998545 6.11432469027297E-17
vn 0 6.123233995736766E-17 1
vn 0 6.123233995736766E-17 1
vn 0 6.123233995736766E-17 1
vn 0 6.123233995736766E-17 1
vn 0 6.123233995736766E-17 1
vn 0 6.123233995736766E-17 1
vn 0 6.123233995736766E-17 1
vn 0 6.123233995736766E-17 1
vn -0.632414 -0.772537 0.05691300000000005
vn -0.613088 -0.788644 0.04652900000000005
vn -0.629593 -0.757864 -0.17104099999999994
vn -0.647688 -0.670928 -0.36104899999999995
vn -0.599866 -0.580596 -0.550517
vn -0.67175 -0.549465 -0.49682899999999997
vn -0.072391 -0.18632699999999994 0.979817
vn -0.113299 -0.19305899999999995 0.974624
vn -0.102073 -0.16134399999999993 0.981605
vn -0.096399 -0.14537199999999995 0.98467
vn -0.160924 -0.11069199999999994 0.98074
vn -0.739776 -0.67191 0.03561900000000004
vn -0.720518 -0.693005 0.02445000000000004
vn -0.737908 -0.658646 -0.14723299999999998
vn -0.672744 -0.642895 -0.36619799999999997
vn -0.58511 -0.596573 -0.549315
vn -0.50643 -0.623164 -0.595983
vn 0.196826 -0.49846699999999994 0.844269
vn 0.022292 -0.49637499999999996 0.867822
vn -0.063877 -0.51362 0.855637
vn -0.328912 -0.4112509999999999 0.850111
vn -0.435612 -0.31504599999999994 0.843201
vn -0.523642 -0.06453599999999994 0.84949
vn -0.494756 -0.0036449999999999465 0.869025
vn -0.498467 0.19682800000000006 0.844268
vn -0.930114 0.36727 -2.248880149614242E-17
vn -0.930114 0.36727 -2.248880149614242E-17
vn -0.99272 0.120449 -7.375374115524978E-18
vn -0.988248 -0.152858 9.359853021203306E-18
vn -0.793459 -0.608624 3.726747167421294E-17
vn -0.608625 -0.793458 4.858528999789303E-17
vn -0.152859 -0.988248 6.051273749818867E-17
vn 0.120447 -0.99272 6.078656852247803E-17
vn 0.367268 -0.930115 5.695311787944703E-17
vn 0.367268 -0.930115 5.695311787944703E-17
vn 0 6.123233995736766E-17 1
vn 0 6.123233995736766E-17 1
vn 0 6.123233995736766E-17 1
vn 0 6.123233995736766E-17 1
vn 0 6.123233995736766E-17 1
vn 0 6.123233995736766E-17 1
vn -0.930114 0.367271 -2.248886272848238E-17
vn -0.930114 0.367271 -2.248886272848238E-17
vn -0.872467 0.488673 -2.992259126398673E-17
vn -0.797549 0.603254 -3.693865400864187E-17
vn -0.709457 0.704749 -4.3153430352614897E-17
vn -0.709456 0.704749 -4.3153430352614897E-17
vn -0.842121 -0.538845 -0.021853999999999964
vn -0.745511 -0.666494 4.08109871875458E-17
vn -0.789377 -0.613159 -0.03032899999999996
vn -0.692732 -0.720516 -0.03129399999999996
vn -0.538689 -0.842178 -0.023461999999999948
vn -0.3975 -0.917602 5.618691760956049E-17
vn 0.371247 -0.928534 -0.0006209999999999432
vn 0.375216 -0.926937 5.67585215030625E-17
vn 0.491168 -0.871065 -0.00042499999999994663
vn 0.60324 -0.79756 -0.00042499999999995113
vn 0.704731 -0.709475 -4.999999999956558E-06
vn 0.704749 -0.709456 4.344165097679423E-17
vn 0.709706 -0.702767 0.04936000000000004
vn 0.706188 -0.706188 0.05095400000000004
vn 0.708785 -0.704159 0.04225200000000004
vn 0.713856 -0.699807 0.02606600000000004
vn 0.711765 -0.702344 0.010140000000000043
vn 0.714137 -0.700005 0.001193000000000043
vn 0.707107 -0.707107 4.329781621023438E-17
vn -0.707092 -0.707091 0.0066010000000000435
vn -0.707092 -0.707091 0.006600000000000043
vn -0.702702 -0.702701 -0.11144799999999996
vn -0.688218 -0.688218 -0.22959099999999993
vn -0.696804 -0.696803 -0.17008499999999993
vn -0.696804 -0.696804 -0.17008499999999993
vn -0.707084 -0.707083 0.008106000000000044
vn -0.707084 -0.707083 0.008106000000000044
vn -0.143892 -0.06173799999999994 0.987666
vn -0.103756 -0.11193699999999994 0.988284
vn -0.127287 -0.07713699999999994 0.988862
vn -0.163739 -0.03653999999999994 0.985827
vn -0.176851 -0.030869999999999943 0.983753
vn 0.57704 0.816716 -5.000943176062149E-17
vn 0.304219 0.952602 -5.833004950806834E-17
vn 0.304219 0.952602 -5.833004950806834E-17
vn 0.816716 0.57704 -3.533350944899943E-17
vn 0.952602 0.30422 -1.862810246183039E-17
vn 0.952602 0.30422 -1.862810246183039E-17
vn -0.87768 -0.471111 0.08793300000000003
vn -0.991995 0.105405 0.06954
vn -0.86457 -0.462366 0.19681700000000002
vn -0.615583 -0.781725 0.09982100000000003
vn -0.448625 -0.872283 0.19456900000000005
vn -0.168132 -0.976156 0.13729800000000006
vn -0.70687 -0.704476 -0.06362599999999996
vn -0.705784 -0.705784 -0.061143999999999955
vn -0.703427 0.710525 0.018590999999999955
vn -0.707107 0.707107 -3.30000000000433E-05
vn -0.707232 0.706981 -1.500000000004329E-05
vn -0.707232 0.706981 -0.00022500000000004328
vn -0.697827 0.715824 0.025168999999999955
vn -0.697282 0.715274 0.04670799999999996
vn -0.706464 0.706464 0.04263699999999996
vn 0 6.123233995736766E-17 1
vn 0 6.123233995736766E-17 1
vn 0 6.123233995736766E-17 1
vn 0 6.123233995736766E-17 1
vn 0 6.123233995736766E-17 1
g Standard_4
f 1/1/1 2/2/2 3/3/3
f 4/4/4 5/5/5 6/6/6
f 7/7/7 8/8/8 9/9/9
f 10/10/10 11/11/11 7/7/7
f 12/12/12 13/13/13 14/14/14
f 14/14/14 15/15/15 12/12/12
f 16/16/16 17/17/17 18/18/18
f 18/18/18 19/19/19 16/16/16
f 20/20/20 21/21/21 22/22/22
f 22/22/22 23/23/23 20/20/20
f 24/24/24 25/25/25 26/26/26
f 26/26/26 27/27/27 24/24/24
f 28/28/28 29/29/29 30/30/30
f 30/30/30 31/31/31 28/28/28
f 32/32/32 33/33/33 34/34/34
f 34/34/34 35/35/35 32/32/32
f 36/36/36 37/37/37 38/38/38
f 38/38/38 39/39/39 36/36/36
f 40/40/40 41/41/41 42/42/42
f 42/42/42 43/43/43 40/40/40
f 44/44/44 45/45/45 46/46/46
f 46/46/46 47/47/47 44/44/44
f 48/48/48 49/49/49 50/50/50
f 50/50/50 51/51/51 48/48/48
f 52/52/52 53/53/53 54/54/54
f 54/54/54 55/55/55 52/52/52
f 56/56/56 57/57/57 58/58/58
f 58/58/58 59/59/59 56/56/56
f 60/60/60 61/61/61 62/62/62
f 62/62/62 63/63/63 60/60/60
f 64/64/64 65/65/65 66/66/66
f 66/66/66 67/67/67 64/64/64
f 68/68/68 69/69/69 70/70/70
f 70/70/70 71/71/71 68/68/68
f 72/72/72 73/73/73 74/74/74
f 74/74/74 75/75/75 72/72/72
f 76/76/76 77/77/77 78/78/78
f 78/78/78 79/79/79 76/76/76
f 80/80/80 81/81/81 82/82/82
f 82/82/82 83/83/83 80/80/80
f 84/84/84 85/85/85 86/86/86
f 86/86/86 87/87/87 84/84/84
f 88/88/88 89/89/89 90/90/90
f 90/90/90 91/91/91 88/88/88
f 92/92/92 93/93/93 94/94/94
f 94/94/94 95/95/95 92/92/92
f 96/96/96 97/97/97 98/98/98
f 98/98/98 99/99/99 96/96/96
f 100/100/100 101/101/101 102/102/102
f 102/102/102 103/103/103 100/100/100
f 104/104/104 105/105/105 106/106/106
f 106/106/106 107/107/107 104/104/104
f 108/108/108 109/109/109 110/110/110
f 110/110/110 111/111/111 108/108/108
f 112/112/112 113/113/113 114/114/114
f 114/114/114 115/115/115 112/112/112
f 116/116/116 117/117/117 118/118/118
f 118/118/118 119/119/119 116/116/116
f 120/120/120 121/121/121 122/122/122
f 122/122/122 123/123/123 120/120/120
f 124/124/124 125/125/125 126/126/126
f 126/126/126 127/127/127 124/124/124
f 128/128/128 129/129/129 130/130/130
f 130/130/130 131/131/131 128/128/128
f 132/132/132 133/133/133 134/134/134
f 134/134/134 135/135/135 132/132/132
f 136/136/136 137/137/137 138/138/138
f 138/138/138 139/139/139 136/136/136
f 140/140/140 141/141/141 142/142/142
f 142/142/142 143/143/143 140/140/140
f 144/144/144 145/145/145 146/146/146
f 146/146/146 147/147/147 144/144/144
f 148/148/148 149/149/149 150/150/150
f 150/150/150 151/151/151 148/148/148
f 152/152/152 153/153/153 154/154/154
f 154/154/154 155/155/155 152/152/152
f 156/156/156 157/157/157 158/158/158
f 158/158/158 159/159/159 156/156/156
f 160/160/160 161/161/161 162/162/162
f 162/162/162 163/163/163 160/160/160
f 164/164/164 165/165/165 166/166/166
f 166/166/166 167/167/167 164/164/164
f 168/168/168 169/169/169 170/170/170
f 170/170/170 171/171/171 168/168/168
f 172/172/172 173/173/173 174/174/174
f 174/174/174 175/175/175 172/172/172
f 176/176/176 177/177/177 178/178/178
f 178/178/178 179/179/179 176/176/176
f 180/180/180 181/181/181 182/182/182
f 182/182/182 183/183/183 180/180/180
f 184/184/184 185/185/185 186/186/186
f 186/186/186 187/187/187 184/184/184
f 188/188/188 189/189/189 190/190/190
f 190/190/190 191/191/191 188/188/188
f 192/192/192 193/193/193 194/194/194
f 194/194/194 195/195/195 192/192/192
f 196/196/196 197/197/197 198/198/198
f 198/198/198 199/199/199 196/196/196
f 200/200/200 201/201/201 202/202/202
f 202/202/202 203/203/203 200/200/200
f 204/204/204 205/205/205 206/206/206
f 206/206/206 207/207/207 204/204/204
f 208/208/208 209/209/209 210/210/210
f 210/210/210 211/211/211 208/208/208
f 212/212/212 213/213/213 214/214/214
f 214/214/214 215/215/215 212/212/212
f 216/216/216 217/217/217 218/218/218
f 218/218/218 219/219/219 216/216/216
f 220/220/220 221/221/221 222/222/222
f 222/222/222 223/223/223 220/220/220
f 224/224/224 225/225/225 226/226/226
f 226/226/226 227/227/227 224/224/224
f 228/228/228 229/229/229 230/230/230
f 230/230/230 231/231/231 228/228/228
f 232/232/232 233/233/233 234/234/234
f 234/234/234 235/235/235 232/232/232
f 236/236/236 237/237/237 238/238/238
f 238/238/238 239/239/239 236/236/236
f 240/240/240 241/241/241 242/242/242
f 242/242/242 243/243/243 240/240/240
f 244/244/244 245/245/245 246/246/246
f 246/246/246 247/247/247 244/244/244
f 248/248/248 249/249/249 250/250/250
f 250/250/250 251/251/251 248/248/248
f 252/252/252 253/253/253 254/254/254
f 254/254/254 255/255/255 252/252/252
f 256/256/256 257/257/257 258/258/258
f 258/258/258 259/259/259 256/256/256
f 260/260/260 261/261/261 262/262/262
f 262/262/262 263/263/263 260/260/260
f 264/264/264 265/265/265 266/266/266
f 266/266/266 267/267/267 264/264/264
f 268/268/268 269/269/269 270/270/270
f 270/270/270 271/271/271 268/268/268
f 272/272/272 273/273/273 274/274/274
f 274/274/274 275/275/275 272/272/272
f 276/276/276 277/277/277 278/278/278
f 278/278/278 279/279/279 276/276/276
f 280/280/280 281/281/281 282/282/282
f 282/282/282 283/283/283 280/280/280
f 284/284/284 285/285/285 286/286/286
f 286/286/286 287/287/287 284/284/284
f 288/288/288 289/289/289 290/290/290
f 290/290/290 291/291/291 288/288/288
f 292/292/292 293/293/293 294/294/294
f 294/294/294 295/295/295 292/292/292
f 296/296/296 297/297/297 298/298/298
f 298/298/298 299/299/299 296/296/296
f 300/300/300 301/301/301 302/302/302
f 302/302/302 303/303/303 300/300/300
f 304/304/304 305/305/305 306/306/306
f 306/306/306 307/307/307 304/304/304
f 308/308/308 309/309/309 310/310/310
f 310/310/310 311/311/311 308/308/308
f 312/312/312 313/313/313 314/314/314
f 314/314/314 315/315/315 312/312/312
f 316/316/316 317/317/317 318/318/318
f 318/318/318 319/319/319 316/316/316
f 319/319/319 318/318/318 320/320/320
f 320/320/320 321/321/321 319/319/319
f 322/322/322 323/323/323 324/324/324
f 324/324/324 325/325/325 322/322/322
f 324/324/324 326/326/326 325/325/325
f 327/327/327 328/328/328 329/329/329
f 329/329/329 330/330/330 327/327/327
f 330/330/330 329/329/329 331/331/331
f 331/331/331 332/332/332 330/330/330
f 333/333/333 334/334/334 335/335/335
f 335/335/335 334/334/334 336/336/336
f 336/336/336 337/337/337 335/335/335
f 337/337/337 336/336/336 338/338/338
f 338/338/338 339/339/339 337/337/337
f 338/338/338 340/340/340 339/339/339
f 341/341/341 342/342/342 343/343/343
f 343/343/343 344/344/344 341/341/341
f 344/344/344 343/343/343 345/345/345
f 345/345/345 346/346/346 344/344/344
f 346/346/346 345/345/345 347/347/347
f 347/347/347 348/348/348 346/346/346
f 348/348/348 347/347/347 349/349/349
f 349/349/349 350/350/350 348/348/348
f 351/351/351 352/352/352 353/353/353
f 353/353/353 354/354/354 351/351/351
f 354/354/354 353/353/353 355/355/355
f 355/355/355 356/356/356 354/354/354
f 357/357/357 358/358/358 359/359/359
f 359/359/359 360/360/360 357/357/357
f 360/360/360 359/359/359 361/361/361
f 361/361/361 362/362/362 360/360/360
f 363/363/363 364/364/364 365/365/365
f 365/365/365 366/366/366 363/363/363
f 366/366/366 365/365/365 367/367/367
f 367/367/367 368/368/368 366/366/366
f 369/369/369 370/370/370 371/371/371
f 371/371/371 372/372/372 369/369/369
f 372/372/372 371/371/371 373/373/373
f 373/373/373 374/374/374 372/372/372
f 375/375/375 376/376/376 377/377/377
f 377/377/377 378/378/378 375/375/375
f 378/378/378 377/377/377 379/379/379
f 380/380/380 378/378/378 379/379/379
f 379/379/379 381/381/381 380/380/380
f 382/382/382 383/383/383 384/384/384
f 384/384/384 385/385/385 382/382/382
f 385/385/385 384/384/384 386/386/386
f 386/386/386 387/387/387 385/385/385
f 388/388/388 387/387/387 386/386/386
f 386/386/386 389/389/389 388/388/388
f 390/390/390 391/391/391 392/392/392
f 392/392/392 393/393/393 390/390/390
f 394/394/394 390/390/390 393/393/393
f 395/395/395 396/396/396 397/397/397
f 397/397/397 398/398/398 395/395/395
f 399/399/399 395/395/395 398/398/398
f 398/398/398 400/400/400 399/399/399
f 401/401/401 402/402/402 403/403/403
f 404/404/404 401/401/401 403/403/403
f 403/403/403 405/405/405 404/404/404
f 406/406/406 404/404/404 405/405/405
f 407/407/407 401/401/401 404/404/404
f 404/404/404 408/408/408 407/407/407
f 409/409/409 410/410/410 411/411/411
f 411/411/411 412/412/412 409/409/409
f 409/409/409 412/412/412 413/413/413
f 409/409/409 413/413/413 414/414/414
f 414/414/414 415/415/415 409/409/409
g Standard_13
f 416/416/416 417/417/417 418/418/418
f 416/416/416 418/418/418 419/419/419
f 416/416/416 419/419/419 420/420/420
