v -1.118368 -1.2933379999999999 2.5
v -1.263614 -1.2757019999999997 2.5
v -1.118368 -1.2933379999999999 2
v -1.263614 -1.2757019999999997 2
v -1.118368 -1.293338 1.5
v -1.384026 -1.1925869999999998 2.5
v -1.263614 -1.275702 1.5
v -1.118368 -1.293338 1
v -1.384026 -1.1925869999999998 2
v -1.452021 -1.0630339999999998 2.5
v -1.263614 -1.275702 1
v -1.118368 -1.293338 0.5000000000000001
v -1.384026 -1.192587 1.5
v -1.452021 -1.0630339999999998 2
v -1.452021 -0.9167219999999999 2.5
v -1.263614 -1.275702 0.5000000000000001
v -1.118368 -1.293338 7.919411209578198E-17
v -1.263614 -1.275702 7.811421854829383E-17
v -1.452021 -0.9167219999999999 2
v -1.384026 -0.7871699999999999 2.5
v -1.384026 -1.192587 0.5000000000000001
v -1.384026 -1.192587 7.302489261273723E-17
v -1.384026 -1.192587 1
v -1.452021 -1.063034 0.5000000000000001
v -1.452021 -1.063034 6.509205927424037E-17
v -1.452021 -1.063034 1
v -1.452021 -1.063034 1.5
v -1.452021 -0.9167219999999999 1.5
v -1.452021 -0.9167219999999999 1
v -1.452021 -0.916722 0.5000000000000001
v -1.452021 -0.916722 5.6133033150398E-17
v -1.384026 -0.7871699999999999 2
v -1.263614 -0.7040549999999999 2.5
v -1.384026 -0.7871699999999999 1.5
v -1.263614 -0.7040549999999999 2
v -1.118368 -0.6864189999999999 2.5
v -1.384026 -0.7871699999999999 1
v -1.263614 -0.7040549999999999 1.5
v -1.118368 -0.6864189999999999 2
v -0.981564 -0.7383019999999999 2.5
v -1.384026 -0.78717 0.5
v -1.384026 -0.78717 4.8200261044241103E-17
v -0.981564 -0.7383019999999999 2
v -0.884541 -0.8478179999999998 2.5
v -1.263614 -0.704055 0.5
v -1.263614 -0.704055 4.311093510868449E-17
v -1.263614 -0.7040549999999999 1
v -1.118368 -0.686419 0.5
v -1.118368 -0.686419 4.203104156119635E-17
v -1.118368 -0.6864189999999999 1
v -1.118368 -0.6864189999999999 1.5
v -0.981564 -0.7383019999999999 1.5
v -0.981564 -0.7383019999999999 1
v -0.981564 -0.738302 0.5
v -0.981564 -0.738302 4.520795905520446E-17
v -0.884541 -0.8478179999999998 2
v -0.849527 -0.9898779999999999 2.5
v -0.884541 -0.8478179999999998 1.5
v -0.849527 -0.9898779999999999 2
v -0.884542 -1.1319389999999998 2.5
v -0.884541 -0.8478179999999998 1
v -0.849527 -0.9898779999999999 1.5
v -0.884542 -1.1319389999999998 2
v -0.981564 -1.2414549999999998 2.5
v -0.884541 -0.847818 0.5
v -0.884541 -0.847818 5.191387999797553E-17
v -0.981564 -1.2414549999999998 2
v -1.118368 -1.2933379999999999 2.5
v -1.118368 -1.2933379999999999 2
v -0.884542 -1.131939 1.5
v -0.981564 -1.241455 1.5
v -1.118368 -1.293338 1.5
v -0.849527 -0.9898779999999999 1
v -0.884542 -1.131939 1
v -0.981564 -1.241455 1
v -1.118368 -1.293338 1
v -0.849527 -0.989878 0.5000000000000001
v -0.849527 -0.989878 6.061254621231918E-17
v -0.884542 -1.131939 0.5000000000000001
v -0.884542 -1.131939 6.931127365900279E-17
v -0.981564 -1.241455 0.5000000000000001
v -0.981564 -1.241455 7.601719460177387E-17
v -1.118368 -1.293338 0.5000000000000001
v -1.118368 -1.293338 7.919411209578198E-17
v -1.263614 -1.2757019999999997 2.5
v -1.118368 -1.2933379999999999 2.5
v -1.155215 -0.9898779999999999 2.5
v -1.384026 -1.1925869999999998 2.5
v -1.452021 -1.0630339999999998 2.5
v -1.452021 -0.9167219999999999 2.5
v -1.384026 -0.7871699999999999 2.5
v -1.263614 -0.7040549999999999 2.5
v -1.118368 -0.6864189999999999 2.5
v -0.981564 -0.7383019999999999 2.5
v -0.884541 -0.8478179999999998 2.5
v -0.849527 -0.9898779999999999 2.5
v -0.884542 -1.1319389999999998 2.5
v -0.981564 -1.2414549999999998 2.5
v -1.118368 -1.2933379999999999 2.5
v -1.118368 -1.293338 7.919411209578198E-17
v -1.263614 -1.275702 7.811421854829383E-17
v -1.155215 -0.989878 6.061254621231918E-17
v -1.384026 -1.192587 7.302489261273723E-17
v -1.452021 -1.063034 6.509205927424037E-17
v -1.452021 -0.916722 5.6133033150398E-17
v -1.384026 -0.78717 4.8200261044241103E-17
v -1.263614 -0.704055 4.311093510868449E-17
v -1.118368 -0.686419 4.203104156119635E-17
v -0.981564 -0.738302 4.520795905520446E-17
v -0.884541 -0.847818 5.191387999797553E-17
v -0.849527 -0.989878 6.061254621231918E-17
v -0.884542 -1.131939 6.931127365900279E-17
v -0.981564 -1.241455 7.601719460177387E-17
v -1.118368 -1.293338 7.919411209578198E-17
vt -0.019231 0.000000
vt 0.057692 0.000000
vt -0.019231 0.200000
vt 0.057692 0.200000
vt -0.019231 0.400000
vt 0.134615 0.000000
vt 0.057692 0.400000
vt -0.019231 0.600000
vt 0.134615 0.200000
vt 0.211538 0.000000
vt 0.057692 0.600000
vt -0.019231 0.800000
vt 0.134615 0.400000
vt 0.211538 0.200000
vt 0.288462 0.000000
vt 0.057692 0.800000
vt -0.019231 1.000000
vt 0.057692 1.000000
vt 0.288462 0.200000
vt 0.365385 0.000000
vt 0.134615 0.800000
vt 0.134615 1.000000
vt 0.134615 0.600000
vt 0.211538 0.800000
vt 0.211538 1.000000
vt 0.211538 0.600000
vt 0.211538 0.400000
vt 0.288462 0.400000
vt 0.288462 0.600000
vt 0.288462 0.800000
vt 0.288462 1.000000
vt 0.365385 0.200000
vt 0.442308 0.000000
vt 0.365385 0.400000
vt 0.442308 0.200000
vt 0.519231 0.000000
vt 0.365385 0.600000
vt 0.442308 0.400000
vt 0.519231 0.200000
vt 0.596154 0.000000
vt 0.365385 0.800000
vt 0.365385 1.000000
vt 0.596154 0.200000
vt 0.673077 0.000000
vt 0.442308 0.800000
vt 0.442308 1.000000
vt 0.442308 0.600000
vt 0.519231 0.800000
vt 0.519231 1.000000
vt 0.519231 0.600000
vt 0.519231 0.400000
vt 0.596154 0.400000
vt 0.596154 0.600000
vt 0.596154 0.800000
vt 0.596154 1.000000
vt 0.673077 0.200000
vt 0.750000 0.000000
vt 0.673077 0.400000
vt 0.750000 0.200000
vt 0.826923 0.000000
vt 0.673077 0.600000
vt 0.750000 0.400000
vt 0.826923 0.200000
vt 0.903846 0.000000
vt 0.673077 0.800000
vt 0.673077 1.000000
vt 0.903846 0.200000
vt 0.980769 0.000000
vt 0.980769 0.200000
vt 0.826923 0.400000
vt 0.903846 0.400000
vt 0.980769 0.400000
vt 0.750000 0.600000
vt 0.826923 0.600000
vt 0.903846 0.600000
vt 0.980769 0.600000
vt 0.750000 0.800000
vt 0.750000 1.000000
vt 0.826923 0.800000
vt 0.826923 1.000000
vt 0.903846 0.800000
vt 0.903846 1.000000
vt 0.980769 0.800000
vt 0.980769 1.000000
vt 0.057692 0.000000
vt -0.019231 0.000000
vt 0.500000 0.000000
vt 0.134615 0.000000
vt 0.211538 0.000000
vt 0.288462 0.000000
vt 0.365385 0.000000
vt 0.442308 0.000000
vt 0.519231 0.000000
vt 0.596154 0.000000
vt 0.673077 0.000000
vt 0.750000 0.000000
vt 0.826923 0.000000
vt 0.903846 0.000000
vt 0.980769 0.000000
vt -0.019231 1.000000
vt 0.057692 1.000000
vt 0.500000 1.000000
vt 0.134615 1.000000
vt 0.211538 1.000000
vt 0.288462 1.000000
vt 0.365385 1.000000
vt 0.442308 1.000000
vt 0.519231 1.000000
vt 0.596154 1.000000
vt 0.673077 1.000000
vt 0.750000 1.000000
vt 0.826923 1.000000
vt 0.903846 1.000000
vt 0.980769 1.000000
vn 0.201418 -0.979505 5.997738314994141E-17
vn -0.276852 -0.960913 5.883895148545403E-17
vn 0.120537 -0.992709 6.078589496673849E-17
vn -0.354605 -0.935016 5.725321757757808E-17
vn 0.120537 -0.992709 6.078589496673849E-17
vn -0.691698 -0.722186 4.422113866445152E-17
vn -0.354605 -0.935016 5.725321757757808E-17
vn 0.120537 -0.992709 6.078589496673849E-17
vn -0.748511 -0.663123 4.0604572969549516E-17
vn -0.948085 -0.318016 1.9472863823882236E-17
vn -0.354605 -0.935016 5.725321757757808E-17
vn 0.120537 -0.992709 6.078589496673849E-17
vn -0.748511 -0.663123 4.0604572969549516E-17
vn -0.970942 -0.239316 1.46538786692374E-17
vn -0.987277 0.159008 -9.736431911941118E-18
vn -0.354605 -0.935016 5.725321757757808E-17
vn 0.038845 -0.999245 6.118610954069985E-17
vn -0.429976 -0.90284 5.528300580710982E-17
vn -0.970942 0.239316 -1.46538786692374E-17
vn -0.800296 0.599605 -3.671521720013744E-17
vn -0.748511 -0.663123 4.0604572969549516E-17
vn -0.800296 -0.599605 3.671521720013744E-17
vn -0.748511 -0.663123 4.0604572969549516E-17
vn -0.970942 -0.239316 1.46538786692374E-17
vn -0.987277 -0.159008 9.736431911941118E-18
vn -0.970942 -0.239316 1.46538786692374E-17
vn -0.970942 -0.239316 1.46538786692374E-17
vn -0.970942 0.239316 -1.46538786692374E-17
vn -0.970942 0.239316 -1.46538786692374E-17
vn -0.970942 0.239316 -1.46538786692374E-17
vn -0.948085 0.318016 -1.9472863823882236E-17
vn -0.748511 0.663123 -4.0604572969549516E-17
vn -0.429976 0.90284 -5.528300580710982E-17
vn -0.748511 0.663123 -4.0604572969549516E-17
vn -0.354605 0.935016 -5.725321757757808E-17
vn 0.038846 0.999245 -6.118610954069985E-17
vn -0.748511 0.663123 -4.0604572969549516E-17
vn -0.354605 0.935016 -5.725321757757808E-17
vn 0.120537 0.992709 -6.078589496673849E-17
vn 0.498769 0.866735 -5.307221217294906E-17
vn -0.748511 0.663123 -4.0604572969549516E-17
vn -0.691699 0.722186 -4.422113866445152E-17
vn 0.568065 0.822984 -5.039323606747427E-17
vn 0.84443 0.535666 -3.28000826156033E-17
vn -0.354605 0.935016 -5.725321757757808E-17
vn -0.276852 0.960913 -5.883895148545403E-17
vn -0.354605 0.935016 -5.725321757757808E-17
vn 0.120537 0.992709 -6.078589496673849E-17
vn 0.201418 0.979505 -5.997738314994141E-17
vn 0.120537 0.992709 -6.078589496673849E-17
vn 0.120537 0.992709 -6.078589496673849E-17
vn 0.568065 0.822984 -5.039323606747427E-17
vn 0.568065 0.822984 -5.039323606747427E-17
vn 0.568065 0.822984 -5.039323606747427E-17
vn 0.633546 0.773705 -4.7375767586715144E-17
vn 0.885456 0.464723 -2.845607672200777E-17
vn 0.996642 0.081883 -5.013887692729136E-18
vn 0.885456 0.464723 -2.845607672200777E-17
vn 1 0 0
vn 0.920536 -0.390658 2.3920903463065336E-17
vn 0.885456 0.464723 -2.845607672200777E-17
vn 1 0 0
vn 0.885456 -0.464723 2.845607672200777E-17
vn 0.633546 -0.773705 4.7375767586715144E-17
vn 0.885456 0.464723 -2.845607672200777E-17
vn 0.920536 0.390658 -2.3920903463065336E-17
vn 0.568065 -0.822984 5.039323606747427E-17
vn 0.201418 -0.979505 5.997738314994141E-17
vn 0.120537 -0.992709 6.078589496673849E-17
vn 0.885456 -0.464723 2.845607672200777E-17
vn 0.568065 -0.822984 5.039323606747427E-17
vn 0.120537 -0.992709 6.078589496673849E-17
vn 1 0 0
vn 0.885456 -0.464723 2.845607672200777E-17
vn 0.568065 -0.822984 5.039323606747427E-17
vn 0.120537 -0.992709 6.078589496673849E-17
vn 1 0 0
vn 0.996642 -0.081883 5.013887692729136E-18
vn 0.885456 -0.464723 2.845607672200777E-17
vn 0.84443 -0.535667 3.2800143847943266E-17
vn 0.568065 -0.822984 5.039323606747427E-17
vn 0.498768 -0.866735 5.307221217294906E-17
vn 0.120537 -0.992709 6.078589496673849E-17
vn 0.038845 -0.999245 6.118610954069985E-17
vn 0 6.123233995736766E-17 1
vn 0 6.123233995736766E-17 1
vn 0 6.123233995736766E-17 1
vn 0 6.123233995736766E-17 1
vn 0 6.123233995736766E-17 1
vn 0 6.123233995736766E-17 1
vn 0 6.123233995736766E-17 1
vn 0 6.123233995736766E-17 1
vn 0 6.123233995736766E-17 1
vn 0 6.123233995736766E-17 1
vn 0 6.123233995736766E-17 1
vn 0 6.123233995736766E-17 1
vn 0 6.123233995736766E-17 1
vn 0 6.123233995736766E-17 1
vn 0 6.123233995736766E-17 1
vn 0 -6.123233995736766E-17 -1
vn 0 -6.123233995736766E-17 -1
vn 0 -6.123233995736766E-17 -1
vn 0 -6.123233995736766E-17 -1
vn 0 -6.123233995736766E-17 -1
vn 0 -6.123233995736766E-17 -1
vn 0 -6.123233995736766E-17 -1
vn 0 -6.123233995736766E-17 -1
vn 0 -6.123233995736766E-17 -1
vn 0 -6.123233995736766E-17 -1
vn 0 -6.123233995736766E-17 -1
vn 0 -6.123233995736766E-17 -1
vn 0 -6.123233995736766E-17 -1
vn 0 -6.123233995736766E-17 -1
vn 0 -6.123233995736766E-17 -1
g Default Standard
f 1/1/1 2/2/2 3/3/3
f 2/2/2 4/4/4 3/3/3
f 3/3/3 4/4/4 5/5/5
f 2/2/2 6/6/6 4/4/4
f 4/4/4 7/7/7 5/5/5
f 5/5/5 7/7/7 8/8/8
f 6/6/6 9/9/9 4/4/4
f 4/4/4 9/9/9 7/7/7
f 6/6/6 10/10/10 9/9/9
f 7/7/7 11/11/11 8/8/8
f 8/8/8 11/11/11 12/12/12
f 9/9/9 13/13/13 7/7/7
f 7/7/7 13/13/13 11/11/11
f 10/10/10 14/14/14 9/9/9
f 9/9/9 14/14/14 13/13/13
f 10/10/10 15/15/15 14/14/14
f 11/11/11 16/16/16 12/12/12
f 12/12/12 16/16/16 17/17/17
f 16/16/16 18/18/18 17/17/17
f 15/15/15 19/19/19 14/14/14
f 15/15/15 20/20/20 19/19/19
f 16/16/16 21/21/21 18/18/18
f 21/21/21 22/22/22 18/18/18
f 11/11/11 23/23/23 16/16/16
f 23/23/23 21/21/21 16/16/16
f 13/13/13 23/23/23 11/11/11
f 21/21/21 24/24/24 22/22/22
f 24/24/24 25/25/25 22/22/22
f 23/23/23 26/26/26 21/21/21
f 26/26/26 24/24/24 21/21/21
f 13/13/13 27/27/27 23/23/23
f 14/14/14 27/27/27 13/13/13
f 27/27/27 26/26/26 23/23/23
f 14/14/14 19/19/19 27/27/27
f 27/27/27 28/28/28 26/26/26
f 19/19/19 28/28/28 27/27/27
f 26/26/26 29/29/29 24/24/24
f 28/28/28 29/29/29 26/26/26
f 24/24/24 30/30/30 25/25/25
f 29/29/29 30/30/30 24/24/24
f 30/30/30 31/31/31 25/25/25
f 19/19/19 32/32/32 28/28/28
f 20/20/20 32/32/32 19/19/19
f 20/20/20 33/33/33 32/32/32
f 32/32/32 34/34/34 28/28/28
f 28/28/28 34/34/34 29/29/29
f 33/33/33 35/35/35 32/32/32
f 32/32/32 35/35/35 34/34/34
f 33/33/33 36/36/36 35/35/35
f 34/34/34 37/37/37 29/29/29
f 29/29/29 37/37/37 30/30/30
f 35/35/35 38/38/38 34/34/34
f 34/34/34 38/38/38 37/37/37
f 36/36/36 39/39/39 35/35/35
f 35/35/35 39/39/39 38/38/38
f 36/36/36 40/40/40 39/39/39
f 37/37/37 41/41/41 30/30/30
f 30/30/30 41/41/41 31/31/31
f 41/41/41 42/42/42 31/31/31
f 40/40/40 43/43/43 39/39/39
f 40/40/40 44/44/44 43/43/43
f 41/41/41 45/45/45 42/42/42
f 45/45/45 46/46/46 42/42/42
f 37/37/37 47/47/47 41/41/41
f 47/47/47 45/45/45 41/41/41
f 38/38/38 47/47/47 37/37/37
f 45/45/45 48/48/48 46/46/46
f 48/48/48 49/49/49 46/46/46
f 47/47/47 50/50/50 45/45/45
f 50/50/50 48/48/48 45/45/45
f 38/38/38 51/51/51 47/47/47
f 39/39/39 51/51/51 38/38/38
f 51/51/51 50/50/50 47/47/47
f 39/39/39 43/43/43 51/51/51
f 51/51/51 52/52/52 50/50/50
f 43/43/43 52/52/52 51/51/51
f 50/50/50 53/53/53 48/48/48
f 52/52/52 53/53/53 50/50/50
f 48/48/48 54/54/54 49/49/49
f 53/53/53 54/54/54 48/48/48
f 54/54/54 55/55/55 49/49/49
f 43/43/43 56/56/56 52/52/52
f 44/44/44 56/56/56 43/43/43
f 44/44/44 57/57/57 56/56/56
f 56/56/56 58/58/58 52/52/52
f 52/52/52 58/58/58 53/53/53
f 57/57/57 59/59/59 56/56/56
f 56/56/56 59/59/59 58/58/58
f 57/57/57 60/60/60 59/59/59
f 58/58/58 61/61/61 53/53/53
f 53/53/53 61/61/61 54/54/54
f 59/59/59 62/62/62 58/58/58
f 58/58/58 62/62/62 61/61/61
f 60/60/60 63/63/63 59/59/59
f 59/59/59 63/63/63 62/62/62
f 60/60/60 64/64/64 63/63/63
f 61/61/61 65/65/65 54/54/54
f 54/54/54 65/65/65 55/55/55
f 65/65/65 66/66/66 55/55/55
f 64/64/64 67/67/67 63/63/63
f 64/64/64 68/68/68 67/67/67
f 68/68/68 69/69/69 67/67/67
f 63/63/63 67/67/67 70/70/70
f 63/63/63 70/70/70 62/62/62
f 67/67/67 69/69/69 71/71/71
f 67/67/67 71/71/71 70/70/70
f 69/69/69 72/72/72 71/71/71
f 62/62/62 70/70/70 73/73/73
f 62/62/62 73/73/73 61/61/61
f 61/61/61 73/73/73 65/65/65
f 70/70/70 71/71/71 74/74/74
f 70/70/70 74/74/74 73/73/73
f 71/71/71 72/72/72 75/75/75
f 71/71/71 75/75/75 74/74/74
f 72/72/72 76/76/76 75/75/75
f 73/73/73 77/77/77 65/65/65
f 73/73/73 74/74/74 77/77/77
f 65/65/65 77/77/77 66/66/66
f 77/77/77 78/78/78 66/66/66
f 74/74/74 79/79/79 77/77/77
f 77/77/77 79/79/79 78/78/78
f 74/74/74 75/75/75 79/79/79
f 79/79/79 80/80/80 78/78/78
f 75/75/75 81/81/81 79/79/79
f 79/79/79 81/81/81 80/80/80
f 75/75/75 76/76/76 81/81/81
f 81/81/81 82/82/82 80/80/80
f 76/76/76 83/83/83 81/81/81
f 81/81/81 83/83/83 82/82/82
f 83/83/83 84/84/84 82/82/82
f 85/85/85 86/86/86 87/87/87
f 88/88/88 85/85/85 87/87/87
f 89/89/89 88/88/88 87/87/87
f 90/90/90 89/89/89 87/87/87
f 91/91/91 90/90/90 87/87/87
f 92/92/92 91/91/91 87/87/87
f 93/93/93 92/92/92 87/87/87
f 94/94/94 93/93/93 87/87/87
f 95/95/95 94/94/94 87/87/87
f 96/96/96 95/95/95 87/87/87
f 97/97/97 96/96/96 87/87/87
f 98/98/98 97/97/97 87/87/87
f 99/99/99 98/98/98 87/87/87
f 100/100/100 101/101/101 102/102/102
f 101/101/101 103/103/103 102/102/102
f 103/103/103 104/104/104 102/102/102
f 104/104/104 105/105/105 102/102/102
f 105/105/105 106/106/106 102/102/102
f 106/106/106 107/107/107 102/102/102
f 107/107/107 108/108/108 102/102/102
f 108/108/108 109/109/109 102/102/102
f 109/109/109 110/110/110 102/102/102
f 110/110/110 111/111/111 102/102/102
f 111/111/111 112/112/112 102/102/102
f 112/112/112 113/113/113 102/102/102
f 113/113/113 114/114/114 102/102/102
