v -0.120196 -0.873567 0.573856
v 0.420884 -0.853954 0.573066
v 0.256418 -0.24016299999999996 0.562384
v 0.256418 -0.24016299999999996 0.562384
v -0.222103 -0.49350999999999995 0.571436
v -0.120196 -0.873567 0.573856
v -0.120196 -0.873567 0.573856
v -0.412612 -0.951921 0.5763820000000001
v -0.513334 -1.104036 0.5776790000000002
v -0.513334 -1.104036 0.5776790000000002
v 0.420884 -0.853954 0.573066
v -0.120196 -0.873567 0.573856
v -0.412612 -0.951921 0.5763820000000001
v -0.514561 -0.571873 0.574999
v -0.677952 -0.49052899999999994 0.576093
v -0.677952 -0.49052899999999994 0.576093
v -0.513334 -1.104036 0.5776790000000002
v -0.412612 -0.951921 0.5763820000000001
v -0.514561 -0.571873 0.574999
v -0.222103 -0.49350999999999995 0.571436
v 0.256418 -0.24016299999999996 0.562384
v 0.256418 -0.24016299999999996 0.562384
v -0.677952 -0.49052899999999994 0.576093
v -0.514561 -0.571873 0.574999
v -0.222103 -0.49350999999999995 0.571436
v -0.214455 -0.47687799999999997 0.49806300000000003
v -0.10717 -0.881327 0.501953
v -0.10717 -0.881327 0.501953
v -0.120196 -0.873567 0.573856
v -0.222103 -0.49350999999999995 0.571436
v -0.514561 -0.571873 0.574999
v -0.52236 -0.567294 0.49968700000000005
v -0.214455 -0.47687799999999997 0.49806300000000003
v -0.214455 -0.47687799999999997 0.49806300000000003
v -0.222103 -0.49350999999999995 0.571436
v -0.514561 -0.571873 0.574999
v -0.412612 -0.951921 0.5763820000000001
v -0.41688 -0.959689 0.5009340000000001
v -0.52236 -0.567294 0.49968700000000005
v -0.52236 -0.567294 0.49968700000000005
v -0.514561 -0.571873 0.574999
v -0.412612 -0.951921 0.5763820000000001
v -0.120196 -0.873567 0.573856
v -0.10717 -0.881327 0.501953
v -0.41688 -0.959689 0.5009340000000001
v -0.41688 -0.959689 0.5009340000000001
v -0.412612 -0.951921 0.5763820000000001
v -0.120196 -0.873567 0.573856
v -0.795486 -0.419532 0.22099400000000002
v -0.747248 -0.364423 -0.01596899999999998
v -0.896397 -0.394876 -0.015729999999999977
v -0.795486 -0.419532 0.22099400000000002
v -0.896397 -0.394876 -0.015729999999999977
v -0.801309 -0.535043 -0.015835999999999968
v -0.513334 -1.104037 0.5776790000000002
v -0.513883 -1.103928 0.6576840000000002
v 0.420707 -0.853504 0.649298
v 0.420707 -0.853504 0.649298
v 0.422275 -0.858995 0.569845
v -0.513334 -1.104037 0.5776790000000002
v 0.244073 -0.19455199999999997 0.641058
v -0.732058 -0.45610599999999996 0.656213
v -0.67856 -0.4905939999999999 0.655835
v -0.67856 -0.4905939999999999 0.655835
v 0.256286 -0.24010299999999998 0.641438
v 0.244073 -0.19455199999999997 0.641058
v -0.513883 -1.103928 0.6576840000000002
v -0.542897 -1.160524 0.6581030000000001
v 0.420707 -0.853504 0.649298
v -0.542897 -1.160524 0.6581030000000001
v 0.432915 -0.899056 0.650063
v 0.420707 -0.853504 0.649298
v 0.432915 -0.899056 0.650063
v 0.420707 -0.853504 0.649298
v 0.420707 -0.853504 0.649298
v -0.558166 -0.545639 0.48232200000000003
v -0.446945 -0.49243699999999996 0.501104
v -0.380701 -0.739987 0.505647
v -0.561485 -0.383374 0.389267
v -0.558166 -0.545639 0.48232200000000003
v -0.635984 -0.505863 -0.006962999999999968
v -0.635984 -0.505863 -0.006962999999999968
v -0.643109 -0.340868 -0.0006699999999999791
v -0.561485 -0.383374 0.389267
v -0.677953 -0.49052799999999996 0.576093
v -0.67856 -0.4905939999999999 0.655835
v -0.513883 -1.103928 0.6576840000000002
v -0.513883 -1.103928 0.6576840000000002
v -0.513334 -1.104037 0.5776790000000002
v -0.677953 -0.49052799999999996 0.576093
v -0.542897 -1.160524 0.6581030000000001
v -0.513883 -1.103928 0.6576840000000002
v -0.67856 -0.4905939999999999 0.655835
v -0.67856 -0.4905939999999999 0.655835
v -0.732058 -0.45610599999999996 0.656213
v -0.542897 -1.160524 0.6581030000000001
v 0.364209 -0.6458199999999998 1.005425
v 0.409145 -0.6337919999999999 1.004929
v 0.075421 0.6077900000000002 0.998933
v 0.075421 0.6077900000000002 0.998933
v 0.017197 0.6445420000000001 1.00007
v 0.364209 -0.6458199999999998 1.005425
v 0.420187 -0.852922 0.84959
v 0.464898 -0.841141 0.849132
v 0.409537 -0.634616 0.84528
v 0.409537 -0.634616 0.84528
v 0.364869 -0.646572 0.845865
v 0.420187 -0.852922 0.84959
v 1.460322 -0.7750219999999999 1.010253
v 1.401439 -0.7366659999999999 1.008609
v 0.501384 -0.9778369999999998 1.012498
v 0.501384 -0.9778369999999998 1.012498
v 0.469993 -1.04038 1.014084
v 1.460322 -0.7750219999999999 1.010253
v 1.008749 0.9102270000000001 0.9931169999999999
v 0.976483 0.8492290000000001 0.992359
v 1.401439 -0.7366659999999999 1.008609
v 1.401439 -0.7366659999999999 1.008609
v 1.460322 -0.7750219999999999 1.010253
v 1.008749 0.9102270000000001 0.9931169999999999
v 0.017197 0.6445420000000001 1.00007
v 0.075421 0.6077900000000002 0.998933
v 0.976483 0.8492290000000001 0.992359
v 0.976483 0.8492290000000001 0.992359
v 1.008749 0.9102270000000001 0.9931169999999999
v 0.017197 0.6445420000000001 1.00007
v 0.505007 -0.9465109999999999 1.4736
v 0.507628 -0.953582 0.8489550000000001
v 0.497862 -0.970287 0.8493600000000001
v 0.497862 -0.970287 0.8493600000000001
v 0.494717 -0.9632579999999998 1.473997
v 0.505007 -0.9465109999999999 1.4736
v 0.207583 -0.910852 0.6520410000000001
v 0.420707 -0.853504 0.649298
v 0.420331 -0.853125 0.808403
v 0.36496 -0.646557 0.804786
v 0.365513 -0.647184 0.566811
v 0.046152 -0.732757 0.571039
v -0.75701 -0.111663 0.010799000000000007
v -0.674635 0.712125 0.009972999999999956
v -1.216255 0.766185 0.011240999999999952
v -1.216255 0.766185 0.011240999999999952
v -1.298602 -0.057324 0.011353000000000004
v -0.75701 -0.111663 0.010799000000000007
v 0.246504 0.890619 5.2999999999945465E-05
v 0.105614 1.416421 0.005835999999999913
v -0.732315 1.191897 0.010469999999999927
v -0.732315 1.191897 0.010469999999999927
v -0.591425 0.666095 0.009572999999999958
v 0.246504 0.890619 5.2999999999945465E-05
v -0.66598 -1.198088 0.05544500000000008
v -0.528795 -1.026085 0.8953940000000001
v -0.512072 -1.044932 0.8963030000000001
v -0.512072 -1.044932 0.8963030000000001
v -0.648664 -1.216942 0.05627700000000008
v -0.66598 -1.198088 0.05544500000000008
v 0.258186 -0.07336299999999993 1.215492
v 0.257835 -0.07317399999999992 1.321611
v 0.494377 -0.9534099999999999 1.325851
v 0.494377 -0.9534099999999999 1.325851
v 0.494893 -0.9547179999999998 1.230946
v 0.258186 -0.07336299999999993 1.215492
v 1.429025 -0.7047809999999999 1.205188
v 1.44949 -0.6955039999999999 1.445407
v 1.213975 0.18341300000000008 1.436262
v 1.213975 0.18341300000000008 1.436262
v 1.19275 0.17698200000000008 1.19062
v 1.429025 -0.7047809999999999 1.205188
v 0.108881 0.6389000000000001 1.295599
v 0.077448 0.6304770000000001 1.295724
v 0.536368 -1.072153 1.310081
v 0.536368 -1.072153 1.310081
v 0.567625 -1.063776 1.31003
v 0.108881 0.6389000000000001 1.295599
v 1.007722 0.9163880000000001 1.404117
v 0.975512 0.9077570000000001 1.403312
v 1.430968 -0.7879189999999999 1.420459
v 1.430968 -0.7879189999999999 1.420459
v 1.463193 -0.7792839999999999 1.420843
v 1.007722 0.9163880000000001 1.404117
v 1.37606 -0.720886 0.842218
v 1.425694 -0.6986979999999999 1.53761
v 1.443444 -0.7079169999999999 1.538051
v 1.443444 -0.7079169999999999 1.538051
v 1.39294 -0.730451 0.842586
v 1.37606 -0.720886 0.842218
v 0.494377 -0.9534099999999999 1.325851
v 0.257835 -0.07317399999999992 1.321611
v 0.258186 -0.07336299999999993 1.215492
v 0.258186 -0.07336299999999993 1.215492
v 0.494893 -0.9547179999999998 1.230946
v 0.494377 -0.9534099999999999 1.325851
v 1.213975 0.18341300000000008 1.436262
v 1.44949 -0.6955039999999999 1.445407
v 1.429025 -0.7047809999999999 1.205188
v 1.429025 -0.7047809999999999 1.205188
v 1.19275 0.17698200000000008 1.19062
v 1.213975 0.18341300000000008 1.436262
v 0.228564 0.870174 -0.011007000000000053
v 0.270425 0.713943 -0.012021000000000044
v 0.295522 0.720202 0.656385
v 0.295522 0.720202 0.656385
v 0.253275 0.876408 0.561966
v 0.228564 0.870174 -0.011007000000000053
v 0.671797 0.988551 0.5547319999999999
v 0.715046 0.832612 0.649156
v 0.711179 0.832043 -0.023205000000000052
v 0.711179 0.832043 -0.023205000000000052
v 0.669317 0.988274 -0.02121800000000006
v 0.671797 0.988551 0.5547319999999999
v 0.409145 -0.6337919999999999 1.004929
v 0.409537 -0.634616 0.84528
v 0.075828 0.608457 0.839057
v 0.075828 0.608457 0.839057
v 0.075421 0.6077900000000002 0.998933
v 0.409145 -0.6337919999999999 1.004929
v 0.41948 -0.8519359999999999 1.009574
v 0.420187 -0.852922 0.84959
v 0.469993 -1.04038 1.014084
v -1.065402 1.369395 0.16466799999999993
v -1.331888 1.270703 0.31717999999999996
v -1.374193 1.313043 -4.30000000000804E-05
v -1.374193 1.313043 -4.30000000000804E-05
v -0.988101 1.395122 -0.00016700000000008543
v -0.358906 -1.139124 0.39119600000000004
v -0.433011 -0.992659 0.49667100000000003
v -0.380701 -0.739987 0.505647
v -0.284735 -1.102743 0.5020990000000001
v -0.358906 -1.139124 0.39119600000000004
v -0.433011 -0.992659 0.49667100000000003
v -0.408349 -1.216994 -0.00030699999999992544
v -0.480495 -1.066242 -0.007305999999999935
v 0.087323 0.6028700000000001 1.365617
v 0.089049 0.606233 0.836291
v 0.079273 0.589527 0.836412
v 0.079273 0.589527 0.836412
v 0.077111 0.5861210000000001 1.365471
v 0.364209 -0.6458199999999998 1.005425
v 0.017197 0.6445420000000001 1.00007
v 0.364869 -0.646572 0.845865
v 0.364869 -0.646572 0.845865
v 0.019062 0.646591 -0.00765000000000004
v 0.471892 -1.043393 -0.003543999999999936
v 0.420187 -0.852922 0.84959
v 0.469993 -1.04038 1.014084
v 0.998477 0.8317540000000001 1.539464
v 1.027036 0.8394070000000001 1.540473
v 0.974938 0.82952 0.824833
v 0.948219 0.822361 0.825026
v 0.998477 0.8317540000000001 1.539464
v 0.965101 0.812797 0.824757
v 1.016251 0.8225410000000001 1.539897
v 0.998477 0.8317540000000001 1.539464
v 0.948219 0.822361 0.825026
v 0.965101 0.812797 0.824757
v -1.418553 1.341709 0.31736099999999995
v -1.438209 1.366682 -4.300000000008369E-05
v -1.418124 0.775306 -6.800000000004747E-05
v -1.392649 0.728704 0.33463699999999996
v -1.418553 1.341709 0.31736099999999995
v -1.382836 0.10079900000000001 0.209977
v -1.395806 -0.035897 -3.999999999999781E-05
v -0.995465 1.478326 -6.300000000009052E-05
v -1.438209 1.366682 -4.300000000008369E-05
v -1.418553 1.341709 0.31736099999999995
v -1.073326 1.44931 0.1648459999999999
v 1.091581 -0.976819 0.20112300000000005
v 1.105355 -0.878026 0.16023000000000007
v 1.150076 -0.906124 0.026911000000000056
v 1.149128 -1.013005 0.029578000000000063
v -0.677953 -0.49052799999999996 0.576093
v 0.256418 -0.24016299999999996 0.562384
v 0.256286 -0.24010299999999998 0.641438
v -0.67856 -0.4905939999999999 0.655835
v -0.479181 -0.37756399999999996 0.499347
v -0.446945 -0.49243699999999996 0.501104
v -0.558166 -0.545639 0.48232200000000003
v -0.561485 -0.383374 0.389267
v -0.179073 -0.280907 0.384908
v 0.023472 -1.036666 0.38914100000000007
v -0.059794 -1.042471 0.5006670000000001
v -0.2542 -0.3172809999999999 0.496451
v -0.128816 -0.203063 -0.0037729999999999873
v 0.105942 -1.079191 -0.0018069999999999339
v 0.023472 -1.036666 0.38914100000000007
v -0.179073 -0.280907 0.384908
v 0.500044 -0.9784269999999999 1.012513
v 0.480275 -0.9046729999999998 1.010694
v 0.489825 -0.9407239999999999 1.101199
v 0.499579 -0.9772609999999999 1.130258
v 0.500044 -0.9784269999999999 1.012513
v 0.499579 -0.9772609999999999 1.130258
v 0.538679 -0.9671179999999999 1.101958
v 0.577683 -0.9576239999999999 1.011995
v 1.396551 -0.6977669999999999 1.098991
v 1.381734 -0.6631269999999999 1.006276
v 1.401498 -0.7368839999999999 1.008616
v 1.408135 -0.7338129999999999 1.12881
v 1.367016 -0.7451649999999999 1.100044
v 1.408135 -0.7338129999999999 1.12881
v 1.401498 -0.7368839999999999 1.008616
v 1.323226 -0.7578559999999999 1.008734
v 0.083665 0.5701170000000001 1.08798
v 0.093891 0.5336870000000001 0.998296
v 0.074019 0.6074140000000001 0.998952
v 0.073618 0.6067700000000001 1.116356
v 0.112827 0.6174140000000001 1.08791
v 0.073618 0.6067700000000001 1.116356
v 0.074019 0.6074140000000001 0.998952
v 0.151847 0.6282690000000001 0.9979
v 0.976483 0.8492290000000001 0.992359
v 0.996248 0.7754730000000001 0.991471
v 0.991614 0.8134010000000002 1.084595
v 0.983572 0.8505920000000001 1.114156
v 0.976483 0.8492290000000001 0.992359
v 0.983572 0.8505920000000001 1.114156
v 0.942327 0.8396790000000001 1.084818
v 0.898196 0.8282520000000001 0.992341
v 0.409537 -0.634616 0.84528
v 0.409145 -0.6337919999999999 1.004929
v 0.364209 -0.6458199999999998 1.005425
v 0.364869 -0.646572 0.845865
v 0.420187 -0.852922 0.84959
v 0.41948 -0.8519359999999999 1.009574
v 0.464459 -0.8400829999999999 1.009185
v 0.464898 -0.841141 0.849132
v 0.469993 -1.04038 1.014084
v 0.501384 -0.9778369999999998 1.012498
v 0.464459 -0.8400829999999999 1.009185
v 0.41948 -0.8519359999999999 1.009574
v 0.046171 -0.73276 0.567354
v 0.101589 -0.939526 0.5693710000000001
v 0.420331 -0.853125 0.808403
v 0.36496 -0.646557 0.804786
v -0.181901 0.396217 0.014193999999999976
v -0.002107 -0.28032299999999993 0.620823
v 0.254774 -0.21186499999999997 0.616502
v 0.074125 0.464833 0.010667999999999973
v 0.295473 0.887791 0.520088
v 0.347658 0.693126 0.518068
v 0.346984 0.693167 -0.013632000000000042
v 0.294799 0.887922 -0.012266000000000055
v 0.077111 0.5861210000000001 1.365471
v 0.079273 0.589527 0.836412
v 0.096115 0.579952 0.836084
v 0.094425 0.5767480000000001 1.365292
v 0.494717 -0.9632579999999998 1.473997
v 0.497862 -0.970287 0.8493600000000001
v 0.514673 -0.979868 0.8495460000000001
v 0.512006 -0.9726159999999999 1.474446
v 0.514673 -0.979868 0.8495460000000001
v 0.507628 -0.953582 0.8489550000000001
v 0.505007 -0.9465109999999999 1.4736
v 0.512006 -0.9726159999999999 1.474446
v 0.494377 -0.9534099999999999 1.325851
v 1.44949 -0.6955039999999999 1.445407
v 1.213975 0.18341300000000008 1.436262
v 0.257835 -0.07317399999999992 1.321611
v -0.723762 -1.094001 0.13445700000000005
v -0.772781 -1.077193 0.002745000000000066
v -0.541949 -1.345518 0.017048000000000084
v -0.558532 -1.285356 0.14459300000000008
v -0.66598 -1.198088 0.05544500000000008
v -0.648664 -1.216942 0.05627700000000008
v -0.512072 -1.044932 0.8963030000000001
v -0.528795 -1.026085 0.8953940000000001
v -0.732315 1.191897 0.010469999999999927
v -0.591425 0.666095 0.009572999999999958
v -0.565798 0.67296 0.10867499999999995
v -0.706692 1.198758 0.11016299999999993
v 0.079978 1.409546 0.10522299999999991
v 0.220866 0.883746 0.09873499999999995
v 0.246504 0.890619 5.2999999999945465E-05
v 0.105614 1.416421 0.005835999999999913
v 0.105614 1.416421 0.005835999999999913
v 0.246504 0.890619 5.2999999999945465E-05
v 0.220866 0.883746 0.09873499999999995
v 0.079978 1.409546 0.10522299999999991
v -0.591425 0.666095 0.009572999999999958
v -0.732315 1.191897 0.010469999999999927
v -0.706692 1.198758 0.11016299999999993
v -0.565798 0.67296 0.10867499999999995
v -1.216176 0.771163 0.11151399999999996
v -0.674587 0.7167 0.10941699999999996
v -0.674635 0.712125 0.009972999999999956
v -1.216255 0.766185 0.011240999999999952
v -0.75701 -0.111663 0.010799000000000007
v -0.757127 -0.116655 0.11078800000000001
v -1.298673 -0.06190799999999999 0.11183
v -1.298601 -0.057324 0.011353000000000004
v -1.216255 0.766185 0.011240999999999952
v -0.674635 0.712125 0.009972999999999956
v -0.674587 0.7167 0.10941699999999996
v -1.216176 0.771163 0.11151399999999996
v -0.757127 -0.116655 0.11078800000000001
v -0.75701 -0.111663 0.010799000000000007
v -1.298602 -0.057324 0.011353000000000004
v -1.298673 -0.06190799999999999 0.11183
v 0.681141 0.782483 0.511335
v 0.628973 0.977152 0.5141049999999999
v 0.62713 0.97697 -0.020043000000000057
v 0.679315 0.782215 -0.02230400000000005
v 1.460322 -0.7750219999999999 1.010253
v 0.469993 -1.04038 1.014084
v 0.471892 -1.043393 -0.003543999999999936
v 1.441944 -0.783468 -0.015805999999999952
v 0.974938 0.82952 0.824833
v 1.027036 0.8394070000000001 1.540473
v 1.016251 0.8225410000000001 1.539897
v 0.965101 0.812797 0.824757
v 1.425694 -0.6986979999999999 1.53761
v 1.37606 -0.720886 0.842218
v 1.383103 -0.747173 0.843128
v 1.432681 -0.7247779999999999 1.537965
v 1.39294 -0.730451 0.842586
v 1.443444 -0.7079169999999999 1.538051
v 1.432681 -0.7247779999999999 1.537965
v 1.383103 -0.747173 0.843128
v 0.689248 1.012801 0.5433869999999998
v 0.225881 0.888641 0.551361
v 0.273002 0.714167 0.656793
v 0.737586 0.838652 0.648797
v 0.256286 -0.24010299999999998 0.641438
v 0.256418 -0.24016299999999996 0.562384
v 0.244204 -0.19460299999999997 0.562019
v 0.244073 -0.19455199999999997 0.641058
v 0.075421 0.6077900000000002 0.998933
v 0.075828 0.608457 0.839057
v 0.96912 0.847814 0.82768
v 0.976483 0.8492290000000001 0.992359
v 0.976483 0.8492290000000001 0.992359
v 0.96912 0.847814 0.82768
v 1.394546 -0.739855 0.845482
v 1.401439 -0.7366659999999999 1.008609
v 1.401439 -0.7366659999999999 1.008609
v 1.394546 -0.739855 0.845482
v 0.501859 -0.97905 0.8520850000000001
v 0.501384 -0.9778369999999998 1.012498
v 0.501384 -0.9778369999999998 1.012498
v 0.501859 -0.97905 0.8520850000000001
v 0.464898 -0.841141 0.849132
v 0.464459 -0.8400829999999999 1.009185
v 0.347658 0.693126 0.518068
v 0.681141 0.782483 0.511335
v 0.679315 0.782215 -0.02230400000000005
v 0.346984 0.693167 -0.013632000000000042
v 0.075828 0.608457 0.839057
v 0.501859 -0.97905 0.8520850000000001
v 1.394546 -0.739855 0.845482
v 0.96912 0.847814 0.82768
v 1.352343 -0.159185 -0.039097999999999994
v 1.262858 -0.154636 -0.036275999999999996
v 1.336968 -0.266611 0.11468200000000002
v 1.407535 -0.410263 -0.03297099999999997
v 1.357844 -0.418445 0.07865000000000003
v 1.320019 -0.460919 -0.02926099999999997
v 1.460322 -0.7750219999999999 1.010253
v 1.441944 -0.783468 -0.015805999999999952
v 1.240277 0.212437 -0.025833000000000012
v 1.008749 0.9102270000000001 0.9931169999999999
v 0.989113 0.906516 -0.032962000000000054
v 1.091581 -0.976819 0.20112300000000005
v 1.149128 -1.013005 0.029578000000000063
v 1.238546 -0.919951 0.2973680000000001
v 1.331423 -0.978614 0.02016200000000006
v 1.386582 -0.921168 0.18555700000000006
v 1.331423 -0.978614 0.02016200000000006
v 1.291697 -0.879407 0.019034000000000054
v 1.334518 -0.834798 0.14733200000000005
v 1.386582 -0.921168 0.18555700000000006
v 1.219452 -0.83389 0.23458200000000007
v 1.238546 -0.919951 0.2973680000000001
v 1.091581 -0.976819 0.20112300000000005
v 1.105355 -0.878026 0.16023000000000007
v -0.2542 -0.31727999999999995 0.496451
v -0.059794 -1.042471 0.5006670000000001
v -0.174223 -1.066307 0.5471380000000001
v -0.3653 -0.35372899999999996 0.543497
v -0.284735 -1.102743 0.5020990000000001
v -0.479181 -0.37756399999999996 0.499347
v -0.480495 -1.066242 -0.007305999999999935
v -0.652507 -1.087971 -0.00013899999999993337
v -0.610401 -1.005816 0.39160900000000004
v -0.433011 -0.992659 0.49667100000000003
v -0.616672 -0.922981 0.5028290000000001
v -0.380701 -0.739987 0.505647
v -0.640774 -0.808891 0.548376
v -0.640774 -0.808891 0.548376
v -0.676963 -0.698186 0.502398
v -0.558166 -0.545639 0.48232200000000003
v -0.712876 -0.623558 0.39107100000000006
v -0.790312 -0.573679 0.00048200000000003513
v -0.635984 -0.505863 -0.006962999999999968
v -0.712876 -0.623558 0.39176900000000003
v -0.603896 -1.269392 -0.00010199999999992228
v -0.408349 -1.216994 -0.00030699999999992544
v -0.358906 -1.139124 0.39119600000000004
v -0.542375 -1.160656 0.5780340000000002
v -0.284735 -1.102743 0.5020990000000001
v -0.174223 -1.066307 0.5471380000000001
v 0.433072 -0.899285 0.570471
v -0.059794 -1.042471 0.5006670000000001
v -0.542897 -1.160524 0.6581030000000001
v 0.432914 -0.899056 0.650062
v 0.023472 -1.036666 0.38914100000000007
v 0.456328 -0.985305 -0.004005999999999939
v 0.105942 -1.079191 -0.0018069999999999339
v 0.22157 -0.109178 -0.008252999999999993
v -0.128816 -0.203063 -0.0037729999999999873
v -0.179073 -0.280907 0.384908
v 0.244204 -0.19460299999999997 0.562019
v -0.2542 -0.3172809999999999 0.496451
v -0.3653 -0.35372899999999996 0.543497
v -0.731461 -0.45603299999999997 0.576425
v 0.244073 -0.19455199999999997 0.641058
v -0.732058 -0.45610599999999996 0.656213
v -0.479181 -0.37756399999999996 0.499347
v -0.561485 -0.383374 0.389267
v -0.838653 -0.393264 -0.00023299999999997593
v -0.643109 -0.340868 -0.0006699999999999791
v -0.838653 -0.393264 -0.00023299999999997593
v -0.790312 -0.573679 -0.00021599999999996486
v -0.712876 -0.623558 0.39107100000000006
v -0.731461 -0.45603299999999997 0.576425
v -0.676963 -0.698186 0.502398
v -0.640774 -0.808891 0.548376
v -0.542375 -1.160656 0.5780340000000002
v -0.732058 -0.45610599999999996 0.656213
v -0.542897 -1.160524 0.6581030000000001
v -0.616672 -0.922981 0.5028290000000001
v -0.610401 -1.005816 0.39160900000000004
v -0.603896 -1.269392 -0.00010199999999992228
v -0.652507 -1.087971 -0.00013899999999993337
v 0.499579 -0.9772609999999999 1.130258
v 0.451487 -1.069277 1.168694
v 0.558622 -1.041422 1.104053
v 0.538679 -0.9671179999999999 1.101958
v 0.597619 -1.032011 1.014015
v 0.577683 -0.9576239999999999 1.011995
v 0.590788 -1.009983 -0.004472999999999939
v 0.597651 -1.035596 -0.004208999999999937
v 1.499166 -0.7885519999999999 1.168127
v 1.386902 -0.8194849999999999 1.102417
v 1.343158 -0.8322439999999999 1.011232
v 1.489386 -0.7930309999999999 1.011068
v 1.327758 -0.839964 -0.012846999999999949
v 1.470479 -0.801691 -0.01533299999999995
v 1.408135 -0.7338129999999999 1.12881
v 1.499166 -0.7885519999999999 1.168127
v 1.464967 -0.6793539999999999 1.099152
v 1.396551 -0.6977669999999999 1.098991
v 1.449711 -0.6449089999999998 1.006212
v 1.381734 -0.6631269999999999 1.006276
v 1.408612 -0.659069 -0.02004499999999996
v 1.430693 -0.653153 -0.02058599999999996
v -0.014743 0.6624870000000002 1.153839
v 0.092802 0.6916970000000001 1.088789
v 0.131818 0.7026300000000001 0.998735
v -0.013548 0.6636480000000001 1.000689
v 0.131483 0.704166 -0.009445000000000044
v -0.011237 0.665893 -0.007220000000000041
v 0.073618 0.6067700000000001 1.116356
v -0.014743 0.6624870000000002 1.153839
v 0.015853 0.5518660000000001 1.088815
v 0.083665 0.5701170000000001 1.08798
v 0.026396 0.5155980000000001 0.999287
v 0.093891 0.5336870000000001 0.998296
v 0.05063 0.523272 -0.00800600000000003
v 0.028548 0.517356 -0.007666000000000032
v 0.983572 0.8505920000000001 1.114156
v 1.034981 0.9437600000000002 1.153224
v 0.922386 0.9139840000000001 1.085829
v 0.942327 0.8396790000000001 1.084818
v 0.87826 0.9026390000000001 0.993396
v 0.898196 0.8282520000000001 0.992341
v 0.868453 0.874185 -0.02844600000000005
v 0.86159 0.899798 -0.028090000000000056
v 0.589209 -1.116911 0.024952000000000068
v 0.713277 -1.104923 0.09247200000000007
v 0.705187 -1.269789 0.019467000000000078
v 0.585111 -1.200464 -0.012282999999999928
v 0.566455 -1.359218 0.09575200000000009
v 0.514802 -1.245788 0.026464000000000078
v 0.488777 -1.249598 0.2164270000000001
v 0.475446 -1.190247 0.08774800000000008
v 0.521432 -1.110596 0.08680600000000006
v 0.513765 -1.159237 0.23848300000000008
v 0.579537 -1.092433 0.21431300000000006
v 1.255911 0.672444 -0.0006290000000000412
v 1.191555 0.678435 0.14053999999999997
v 1.26244 0.525426 -0.042753000000000034
v 1.158323 0.535128 0.18502199999999996
v 1.202008 0.440531 0.07247799999999997
v 1.057554 0.773291 0.23603199999999994
v 1.057112 0.773197 -0.02665100000000005
v 1.112736 0.728154 -0.029038000000000046
v 1.1132 0.728258 0.23410799999999996
v 1.172764 0.767137 -0.03177600000000005
v 1.173263 0.767248 0.23216399999999995
v 1.154239 0.836272 -0.03084600000000005
v 1.154739 0.83638 0.23308499999999993
v 1.083227 0.840114 0.23548399999999994
v 1.082762 0.840017 -0.027647000000000053
v 1.057112 0.773197 -0.02665100000000005
v 1.057554 0.773291 0.23603199999999994
v 1.083227 0.840114 0.23548399999999994
v 1.057554 0.773291 0.23603199999999994
v 1.154739 0.83638 0.23308499999999993
v 1.1132 0.728258 0.23410799999999996
v 1.173263 0.767248 0.23216399999999995
v -0.52869 0.154612 0.10542299999999999
v -0.583627 0.011497000000000007 0.10608
v -0.375601 0.146589 0.10421999999999998
v -0.46449 -0.084976 0.105536
v -0.335925 -0.0014839999999999938 0.104304
v -0.493731 0.100805 0.003187999999999994
v -0.52869 0.154612 0.10542299999999999
v -0.375601 0.146589 0.10421999999999998
v -0.415967 0.09673 0.002719999999999994
v -0.335925 -0.0014839999999999938 0.104304
v -0.395813 0.021514 0.002719999999999999
v -0.46449 -0.084976 0.105536
v -0.461121 -0.020897 0.0031900000000000014
v -0.583627 0.011497000000000007 0.10608
v -0.521637 0.028108 0.0034409999999999983
v -0.52869 0.154612 0.10542299999999999
v -0.493731 0.100805 0.003187999999999994
v -0.223572 -0.06435999999999999 0.264279
v -0.209677 -0.11972999999999999 0.264443
v -0.160332 -0.02484799999999998 0.263293
v -0.142192 -0.12421799999999998 0.263805
v -0.116646 -0.061604999999999986 0.262976
v -0.096436 -0.062085 0.005572000000000003
v -0.116646 -0.061604999999999986 0.262976
v -0.142192 -0.12421799999999998 0.263805
v -0.129595 -0.144156 0.006171000000000009
v -0.209677 -0.11972999999999999 0.264443
v -0.217896 -0.137982 0.006916000000000009
v -0.223572 -0.06435999999999999 0.264279
v -0.23931 -0.052095 0.006857000000000004
v -0.164243 -0.00519 0.006058
v -0.160332 -0.02484799999999998 0.263293
v -0.116646 -0.061604999999999986 0.262976
v -0.096436 -0.062085 0.005572000000000003
v -0.158282 0.204403 0.190354
v -0.236941 0.208522 0.191332
v -0.137898 0.12833 0.19042
v -0.265169 0.134996 0.191946
v -0.203957 0.08543400000000001 0.191435
v -0.137898 0.12833 0.19042
v -0.13785 0.128344 -0.004852000000000008
v -0.158234 0.20442 -0.004831000000000012
v -0.158282 0.204403 0.190354
v -0.236884 0.208542 -0.004064000000000013
v -0.236941 0.208522 0.191332
v -0.265109 0.135014 -0.0036570000000000083
v -0.265169 0.134996 0.191946
v -0.203957 0.08543400000000001 0.191435
v -0.203902 0.085449 -0.004090000000000005
v -0.13785 0.128344 -0.004852000000000008
v -0.137898 0.12833 0.19042
v 0.294799 0.887922 -0.012266000000000055
v 0.228564 0.870174 -0.011007000000000053
v 0.253275 0.876408 0.561966
v 0.295473 0.887791 0.520088
v 0.671797 0.988551 0.5547319999999999
v 0.628973 0.977152 0.5141049999999999
v 0.669317 0.988274 -0.02121800000000006
v 0.62713 0.97697 -0.020043000000000057
v -1.065402 1.369395 0.16466799999999993
v -0.988101 1.395122 -0.00016700000000008543
v -0.995465 1.478326 -6.300000000009052E-05
v -1.073326 1.44931 0.1648459999999999
v -1.331888 1.270703 0.31717999999999996
v -1.418553 1.341709 0.31736099999999995
v -1.313863 0.7367 0.33441999999999994
v -1.392649 0.728704 0.33463699999999996
v -1.303666 0.10870300000000001 0.209953
v -1.382836 0.10079900000000001 0.209977
v -1.312613 -0.028542 -2.8999999999998252E-05
v -1.395806 -0.035897 -3.999999999999781E-05
v 0.597619 -1.032011 1.014015
v 0.558622 -1.041422 1.104053
v 0.451487 -1.069277 1.168694
v 0.452656 -1.070822 1.01485
v 0.597651 -1.035596 -0.004208999999999937
v 0.454916 -1.073811 -0.003191999999999934
v 0.422196 -0.9587649999999999 1.101632
v 0.451487 -1.069277 1.168694
v 0.499579 -0.9772609999999999 1.130258
v 0.489825 -0.9407239999999999 1.101199
v 0.412941 -0.9227109999999998 1.011231
v 0.480275 -0.9046729999999998 1.010694
v 0.437183 -0.919364 -0.004493999999999943
v 0.415102 -0.92528 -0.0042989999999999435
v 1.386902 -0.8194849999999999 1.102417
v 1.499166 -0.7885519999999999 1.168127
v 1.408135 -0.7338129999999999 1.12881
v 1.367016 -0.7451649999999999 1.100044
v 1.343158 -0.8322439999999999 1.011232
v 1.323226 -0.7578559999999999 1.008734
v 1.320895 -0.81435 -0.01364799999999995
v 1.327758 -0.839964 -0.012846999999999949
v 0.092802 0.6916970000000001 1.088789
v -0.014743 0.6624870000000002 1.153839
v 0.073618 0.6067700000000001 1.116356
v 0.112827 0.6174140000000001 1.08791
v 0.131818 0.7026300000000001 0.998735
v 0.151847 0.6282690000000001 0.9979
v 0.138345 0.678553 -0.009562000000000041
v 0.131483 0.704166 -0.009445000000000044
v 0.87826 0.9026390000000001 0.993396
v 0.922386 0.9139840000000001 1.085829
v 1.034981 0.9437600000000002 1.153224
v 1.02453 0.9418010000000001 0.9935599999999999
v 0.86159 0.899798 -0.028090000000000056
v 1.004326 0.938014 -0.03341200000000005
v 1.060081 0.8316670000000002 1.085068
v 1.034981 0.9437600000000002 1.153224
v 0.983572 0.8505920000000001 1.114156
v 0.991614 0.8134010000000002 1.084595
v 1.064233 0.7936870000000001 0.991591
v 0.996248 0.7754730000000001 0.991471
v 1.022057 0.783566 -0.03467000000000005
v 1.044139 0.789483 -0.03559200000000005
v 1.26244 0.525426 -0.042753000000000034
v 1.202008 0.440531 0.07247799999999997
v 1.126491 0.475771 0.038891999999999975
v 1.173891 0.542338 -0.051011000000000035
v 1.255911 0.672444 -0.0006290000000000412
v 1.168772 0.65761 -0.018040000000000042
v 1.191555 0.678435 0.14053999999999997
v 1.11825 0.662292 0.09216099999999997
v 1.092155 0.549919 0.12695399999999998
v 1.158323 0.535128 0.18502199999999996
v 1.202008 0.440531 0.07247799999999997
v 1.126491 0.475771 0.038891999999999975
v 0.715046 0.832612 0.649156
v 0.989113 0.906516 -0.032962000000000054
v 0.711179 0.832043 -0.023205000000000052
v 1.008749 0.9102270000000001 0.9931169999999999
v 0.295522 0.720202 0.656385
v 0.017197 0.6445420000000001 1.00007
v 0.019062 0.646591 -0.00765000000000004
v 0.270425 0.713943 -0.012021000000000044
v -1.334922 0.782658 -7.900000000004792E-05
v -1.374193 1.313043 -4.30000000000804E-05
v -1.331888 1.270703 0.31717999999999996
v -1.313863 0.7367 0.33441999999999994
v -1.303666 0.10870300000000001 0.209953
v -1.312613 -0.028542 -2.8999999999998252E-05
v 0.452656 -1.070822 1.01485
v 0.451487 -1.069277 1.168694
v 0.422196 -0.9587649999999999 1.101632
v 0.412941 -0.9227109999999998 1.011231
v 0.415102 -0.92528 -0.0042989999999999435
v 0.454916 -1.073811 -0.003191999999999934
v 1.464967 -0.6793539999999999 1.099152
v 1.499166 -0.7885519999999999 1.168127
v 1.489386 -0.7930309999999999 1.011068
v 1.449711 -0.6449089999999998 1.006212
v 1.430693 -0.653153 -0.02058599999999996
v 1.470479 -0.801691 -0.01533299999999995
v 0.015853 0.5518660000000001 1.088815
v -0.014743 0.6624870000000002 1.153839
v -0.013548 0.6636480000000001 1.000689
v 0.026396 0.5155980000000001 0.999287
v 0.028548 0.517356 -0.007666000000000032
v -0.011237 0.665893 -0.007220000000000041
v 1.02453 0.9418010000000001 0.9935599999999999
v 1.034981 0.9437600000000002 1.153224
v 1.060081 0.8316670000000002 1.085068
v 1.064233 0.7936870000000001 0.991591
v 1.044139 0.789483 -0.03559200000000005
v 1.004326 0.938014 -0.03341200000000005
v 0.713277 -1.104923 0.09247200000000007
v 0.655743 -1.067758 0.15998000000000007
v 0.579537 -1.092433 0.21431300000000006
v 0.705187 -1.269789 0.019467000000000078
v 0.488777 -1.249598 0.2164270000000001
v 0.513765 -1.159237 0.23848300000000008
v 0.566455 -1.359218 0.09575200000000009
v -0.118472 -0.384044 0.22425500000000004
v -0.024043 -0.273024 -0.004957999999999983
v -0.393097 -0.188572 -0.0023919999999999883
v -0.416185 -0.706375 0.30368900000000004
v -0.668154 -0.454916 -0.0009839999999999723
v -1.062266 -0.949328 -0.0004819999999999419
v -0.48276 -1.182859 -0.0007289999999999276
v 0.009271 -0.844402 0.22622200000000006
v -0.115124 -1.217776 -0.0012389999999999255
v 0.186451 -1.00615 -0.0029699999999999384
vt 0.921533 0.474630
vt 0.908121 0.340983
vt 0.989548 0.332448
vt 0.989548 0.332448
vt 0.973608 0.474630
vt 0.921533 0.474630
vt 0.921533 0.474630
vt 0.921534 0.556257
vt 0.905484 0.593024
vt 0.905484 0.593024
vt 0.908121 0.340983
vt 0.921533 0.474630
vt 0.921534 0.556257
vt 0.973609 0.556257
vt 0.989550 0.593023
vt 0.989550 0.593023
vt 0.905484 0.593024
vt 0.921534 0.556257
vt 0.973609 0.556257
vt 0.973608 0.474630
vt 0.989548 0.332448
vt 0.989548 0.332448
vt 0.989550 0.593023
vt 0.973609 0.556257
vt 0.401985 0.196875
vt 0.401985 0.213161
vt 0.349182 0.212745
vt 0.349182 0.212745
vt 0.349182 0.196460
vt 0.401985 0.196875
vt 0.442582 0.196875
vt 0.442582 0.213161
vt 0.401985 0.213161
vt 0.401985 0.213161
vt 0.401985 0.196875
vt 0.442582 0.196875
vt 0.308584 0.196460
vt 0.308584 0.212745
vt 0.255782 0.213161
vt 0.255782 0.213161
vt 0.255782 0.196875
vt 0.308584 0.196460
vt 0.349182 0.196460
vt 0.349182 0.212745
vt 0.308584 0.212745
vt 0.308584 0.212745
vt 0.308584 0.196460
vt 0.349182 0.196460
vt 0.516555 0.472895
vt 0.521175 0.447029
vt 0.534710 0.453420
vt 0.516555 0.472895
vt 0.534710 0.453420
vt 0.536707 0.474436
vt 0.471126 0.190805
vt 0.471126 0.168965
vt 0.600725 0.168965
vt 0.600725 0.168965
vt 0.606907 0.187755
vt 0.471126 0.190805
vt 0.996387 0.332319
vt 0.996391 0.606083
vt 0.990116 0.594607
vt 0.990116 0.594607
vt 0.990113 0.332448
vt 0.996387 0.332319
vt 0.904875 0.594608
vt 0.898489 0.606086
vt 0.904816 0.332322
vt 0.898489 0.606086
vt 0.898486 0.332322
vt 0.904816 0.332322
vt 0.898486 0.332322
vt 0.904816 0.332322
vt 0.904816 0.332322
vt 0.909320 0.958362
vt 0.922999 0.995792
vt 0.895767 0.993334
vt 0.851418 0.744348
vt 0.834985 0.745358
vt 0.836915 0.636462
vt 0.836915 0.636462
vt 0.855121 0.635142
vt 0.851418 0.744348
vt 0.385885 0.190805
vt 0.385885 0.168965
vt 0.471126 0.168965
vt 0.471126 0.168965
vt 0.471126 0.190805
vt 0.385885 0.190805
vt 0.898489 0.606086
vt 0.904875 0.594608
vt 0.990116 0.594607
vt 0.990116 0.594607
vt 0.996391 0.606083
vt 0.898489 0.606086
vt 0.438110 0.441804
vt 0.437814 0.449785
vt 0.264895 0.449785
vt 0.264895 0.449785
vt 0.258390 0.441803
vt 0.438110 0.441804
vt 0.258352 0.261597
vt 0.258326 0.250637
vt 0.287052 0.250637
vt 0.287052 0.250637
vt 0.287054 0.261597
vt 0.258352 0.261597
vt 0.491378 0.706080
vt 0.485722 0.697393
vt 0.485722 0.449785
vt 0.485722 0.449785
vt 0.491378 0.437627
vt 0.491378 0.706080
vt 0.258390 0.706079
vt 0.264895 0.697393
vt 0.485722 0.697393
vt 0.485722 0.697393
vt 0.493051 0.706080
vt 0.258390 0.706079
vt 0.260378 0.437626
vt 0.264895 0.449784
vt 0.264895 0.697393
vt 0.264895 0.697393
vt 0.260378 0.710095
vt 0.260378 0.437626
vt 0.315329 0.016739
vt 0.315400 0.113127
vt 0.311698 0.113127
vt 0.311698 0.113127
vt 0.311697 0.016739
vt 0.315329 0.016739
vt 0.972468 0.495261
vt 0.972530 0.554929
vt 0.950754 0.554929
vt 0.922373 0.543662
vt 0.922372 0.477772
vt 0.966617 0.477772
vt 0.924271 0.960133
vt 0.924308 0.737364
vt 0.997917 0.737437
vt 0.997917 0.737437
vt 0.997881 0.960132
vt 0.924271 0.960133
vt 0.850157 0.282744
vt 0.850157 0.430432
vt 0.733773 0.430469
vt 0.733773 0.430469
vt 0.733772 0.282781
vt 0.850157 0.282744
vt 0.627094 0.227734
vt 0.773439 0.227731
vt 0.773439 0.239798
vt 0.773439 0.239798
vt 0.626993 0.239801
vt 0.627094 0.227734
vt 0.253926 0.678478
vt 0.253926 0.709396
vt 0.000471 0.709399
vt 0.000471 0.709399
vt 0.000471 0.678482
vt 0.253926 0.678478
vt 0.000448 0.243595
vt 0.000448 0.167710
vt 0.253903 0.167710
vt 0.253903 0.167710
vt 0.253903 0.243595
vt 0.000448 0.243595
vt 0.330636 0.035067
vt 0.329573 0.020892
vt 0.538194 0.020892
vt 0.538194 0.020892
vt 0.543692 0.013756
vt 0.330636 0.035067
vt 0.330636 0.035067
vt 0.329573 0.020892
vt 0.538194 0.020892
vt 0.538194 0.020892
vt 0.543692 0.013756
vt 0.330636 0.035067
vt 0.315400 0.113127
vt 0.315329 0.016739
vt 0.319080 0.016739
vt 0.319080 0.016739
vt 0.319140 0.113127
vt 0.315400 0.113127
vt 0.000535 0.640008
vt 0.253870 0.640008
vt 0.253870 0.671438
vt 0.253870 0.671438
vt 0.000535 0.671438
vt 0.000535 0.640008
vt 0.253870 0.326602
vt 0.000535 0.326602
vt 0.000535 0.252519
vt 0.000535 0.252519
vt 0.253870 0.252515
vt 0.253870 0.326602
vt 0.286410 0.064026
vt 0.286410 0.111546
vt 0.150227 0.112162
vt 0.150227 0.112162
vt 0.170858 0.063291
vt 0.286410 0.064026
vt 0.170840 0.058071
vt 0.151540 0.007880
vt 0.286392 0.007879
vt 0.286392 0.007879
vt 0.286392 0.058070
vt 0.170840 0.058071
vt 0.658641 0.118535
vt 0.658641 0.162505
vt 0.485722 0.162505
vt 0.485722 0.162505
vt 0.485722 0.118535
vt 0.658641 0.118535
vt 0.164911 0.716937
vt 0.164911 0.760904
vt 0.138661 0.716937
vt 0.512551 0.636738
vt 0.557682 0.605883
vt 0.551357 0.712482
vt 0.551357 0.712482
vt 0.495501 0.712484
vt 0.751266 0.744348
vt 0.767700 0.745358
vt 0.767707 0.785001
vt 0.751956 0.785001
vt 0.751266 0.744348
vt 0.767700 0.745358
vt 0.747563 0.635142
vt 0.765770 0.636462
vt 0.300512 0.016739
vt 0.300523 0.113127
vt 0.296555 0.113127
vt 0.296555 0.113127
vt 0.296555 0.016739
vt 0.182687 0.717180
vt 0.362779 0.717180
vt 0.182687 0.761242
vt 0.182687 0.761242
vt 0.362779 0.995887
vt 0.138661 0.995351
vt 0.164911 0.760904
vt 0.138661 0.716937
vt 0.296555 0.016739
vt 0.304491 0.016739
vt 0.304491 0.113127
vt 0.296555 0.113127
vt 0.296555 0.016739
vt 0.292586 0.113127
vt 0.292586 0.016739
vt 0.296555 0.016739
vt 0.296555 0.113127
vt 0.292586 0.113127
vt 0.681907 0.481136
vt 0.684541 0.583673
vt 0.604938 0.583673
vt 0.599389 0.471300
vt 0.681907 0.481136
vt 0.514595 0.510732
vt 0.495776 0.583673
vt 0.745638 0.583673
vt 0.684541 0.583673
vt 0.681907 0.481136
vt 0.732270 0.520669
vt 0.762419 0.084752
vt 0.750965 0.102376
vt 0.735872 0.075825
vt 0.743014 0.050613
vt 0.385885 0.190805
vt 0.256286 0.190805
vt 0.256286 0.168965
vt 0.385885 0.168965
vt 0.850729 0.785001
vt 0.834888 0.785001
vt 0.834985 0.745358
vt 0.851418 0.744348
vt 0.853823 0.887657
vt 0.748863 0.887657
vt 0.750975 0.850092
vt 0.851710 0.850092
vt 0.862170 0.995809
vt 0.740515 0.995809
vt 0.748863 0.887657
vt 0.853823 0.887657
vt 0.445872 0.860844
vt 0.432955 0.860844
vt 0.439268 0.825938
vt 0.445872 0.814861
vt 0.445872 0.860844
vt 0.445872 0.814861
vt 0.452175 0.825938
vt 0.458694 0.860844
vt 0.439268 0.825938
vt 0.432955 0.860844
vt 0.445872 0.860844
vt 0.445872 0.814861
vt 0.452175 0.825938
vt 0.445872 0.814861
vt 0.445872 0.860844
vt 0.458694 0.860844
vt 0.439268 0.825938
vt 0.432955 0.860844
vt 0.445872 0.860844
vt 0.445872 0.814861
vt 0.452175 0.825938
vt 0.445872 0.814861
vt 0.445872 0.860844
vt 0.458694 0.860844
vt 0.445872 0.860844
vt 0.432955 0.860844
vt 0.439268 0.825938
vt 0.445872 0.814861
vt 0.445872 0.860844
vt 0.445872 0.814861
vt 0.452175 0.825938
vt 0.458694 0.860844
vt 0.176530 0.761242
vt 0.176530 0.717180
vt 0.182687 0.717180
vt 0.182687 0.761242
vt 0.166908 0.760904
vt 0.166908 0.716937
vt 0.173063 0.716937
vt 0.173063 0.760904
vt 0.493052 0.441804
vt 0.485722 0.449785
vt 0.466541 0.449785
vt 0.466811 0.441804
vt 0.159724 0.631094
vt 0.159724 0.500084
vt 0.230991 0.500084
vt 0.230991 0.631094
vt 0.146919 0.488462
vt 0.146919 0.331173
vt 0.246544 0.331173
vt 0.246544 0.488462
vt 0.893961 0.848608
vt 0.866919 0.848608
vt 0.866919 0.995797
vt 0.893961 0.995797
vt 0.296555 0.016739
vt 0.296555 0.113127
vt 0.292586 0.113127
vt 0.292586 0.016739
vt 0.311697 0.016739
vt 0.311698 0.113127
vt 0.307729 0.113127
vt 0.307729 0.016739
vt 0.323108 0.113127
vt 0.315400 0.113127
vt 0.315329 0.016739
vt 0.323108 0.016739
vt 0.000535 0.632028
vt 0.000535 0.333348
vt 0.115785 0.333348
vt 0.115785 0.632028
vt 0.414272 0.955957
vt 0.406771 0.919190
vt 0.459152 0.918747
vt 0.451675 0.955658
vt 0.626999 0.245991
vt 0.626993 0.239801
vt 0.773439 0.239798
vt 0.773402 0.245900
vt 0.998374 0.325800
vt 0.925366 0.325800
vt 0.925366 0.290334
vt 0.998374 0.290334
vt 0.673536 0.182000
vt 0.746543 0.182000
vt 0.746543 0.217466
vt 0.673536 0.217466
vt 0.850157 0.430432
vt 0.850157 0.282744
vt 0.867724 0.282707
vt 0.867725 0.430396
vt 0.733772 0.282781
vt 0.733773 0.430469
vt 0.716240 0.430469
vt 0.716239 0.282781
vt 0.997707 0.696619
vt 0.929037 0.696708
vt 0.929037 0.660120
vt 0.997707 0.660118
vt 0.716325 0.279624
vt 0.716325 0.250176
vt 0.789332 0.250105
vt 0.789332 0.279624
vt 0.997917 0.737437
vt 0.924308 0.737364
vt 0.924370 0.701073
vt 0.997980 0.701222
vt 0.924217 0.996348
vt 0.924271 0.960133
vt 0.997881 0.960132
vt 0.997827 0.996433
vt 0.866919 0.848608
vt 0.893961 0.848608
vt 0.893961 0.995797
vt 0.866919 0.995797
vt 0.000545 0.717221
vt 0.135241 0.717221
vt 0.135241 0.995351
vt 0.000545 0.995351
vt 0.288618 0.113127
vt 0.288618 0.016739
vt 0.292586 0.016739
vt 0.292586 0.113127
vt 0.315329 0.016739
vt 0.315400 0.113127
vt 0.307729 0.113127
vt 0.307729 0.016739
vt 0.319140 0.113127
vt 0.319080 0.016739
vt 0.323108 0.016739
vt 0.323108 0.113127
vt 0.648392 0.109990
vt 0.552995 0.109990
vt 0.552995 0.010039
vt 0.648392 0.010039
vt 0.515559 0.345619
vt 0.529097 0.345619
vt 0.529097 0.361675
vt 0.515559 0.361676
vt 0.485722 0.118535
vt 0.485722 0.162505
vt 0.363316 0.162505
vt 0.363316 0.118535
vt 0.363316 0.118535
vt 0.363316 0.162505
vt 0.142488 0.162505
vt 0.142488 0.118535
vt 0.142488 0.118535
vt 0.142488 0.162505
vt 0.020083 0.162505
vt 0.020083 0.118535
vt 0.020083 0.118535
vt 0.020083 0.162505
vt 0.000901 0.162505
vt 0.000901 0.118535
vt 0.788250 0.559352
vt 0.788250 0.452586
vt 0.895344 0.452585
vt 0.895344 0.559351
vt 0.264895 0.449784
vt 0.485722 0.449785
vt 0.485722 0.697394
vt 0.264895 0.697393
vt 0.507577 0.495769
vt 0.496122 0.481828
vt 0.516858 0.438437
vt 0.544703 0.479903
vt 0.541530 0.438213
vt 0.555493 0.458925
vt 0.738611 0.718026
vt 0.738611 0.996156
vt 0.601473 0.996156
vt 0.503949 0.718026
vt 0.503949 0.996156
vt 0.787099 0.745924
vt 0.816904 0.744817
vt 0.779032 0.804289
vt 0.826910 0.801969
vt 0.803476 0.839262
vt 0.718468 0.034622
vt 0.716781 0.063388
vt 0.696746 0.067055
vt 0.692708 0.039337
vt 0.678972 0.086240
vt 0.669855 0.064004
vt 0.653565 0.104677
vt 0.666302 0.117873
vt 0.851710 0.850092
vt 0.750975 0.850092
vt 0.751975 0.818793
vt 0.850905 0.818793
vt 0.751956 0.785001
vt 0.852216 0.785001
vt 0.446269 0.233984
vt 0.446269 0.198498
vt 0.500319 0.198498
vt 0.500319 0.233984
vt 0.519009 0.198498
vt 0.536895 0.237561
vt 0.535820 0.198498
vt 0.535820 0.198498
vt 0.552574 0.198498
vt 0.571122 0.233983
vt 0.571122 0.198497
vt 0.624574 0.198497
vt 0.624574 0.233983
vt 0.571122 0.198497
vt 0.437957 0.429687
vt 0.410804 0.429687
vt 0.401643 0.321807
vt 0.426076 0.270575
vt 0.390712 0.291138
vt 0.375098 0.278507
vt 0.290740 0.270575
vt 0.359485 0.291137
vt 0.426076 0.248736
vt 0.290740 0.248736
vt 0.348554 0.321807
vt 0.290740 0.429687
vt 0.339393 0.429687
vt 0.713896 0.431466
vt 0.665243 0.431466
vt 0.656082 0.323585
vt 0.713896 0.272353
vt 0.645151 0.292916
vt 0.629538 0.280285
vt 0.578560 0.272353
vt 0.713896 0.250514
vt 0.578560 0.250514
vt 0.613924 0.292916
vt 0.602993 0.323585
vt 0.566679 0.431466
vt 0.593832 0.431466
vt 0.563016 0.430217
vt 0.537964 0.430217
vt 0.528803 0.322336
vt 0.551139 0.271103
vt 0.517872 0.291666
vt 0.502258 0.279036
vt 0.453238 0.271103
vt 0.551139 0.249264
vt 0.453238 0.249264
vt 0.486645 0.291666
vt 0.475714 0.322336
vt 0.441361 0.430217
vt 0.466552 0.430217
vt 0.716142 0.025049
vt 0.705637 0.003963
vt 0.722546 0.003981
vt 0.722657 0.025023
vt 0.735910 0.004075
vt 0.735911 0.025028
vt 0.873405 0.011265
vt 0.873294 0.003970
vt 0.160242 0.064585
vt 0.151564 0.038226
vt 0.139417 0.028601
vt 0.139418 0.064585
vt 0.001922 0.028607
vt 0.001923 0.064591
vt 0.713349 0.466126
vt 0.724723 0.447360
vt 0.706971 0.447468
vt 0.706988 0.466079
vt 0.693787 0.447504
vt 0.693800 0.466136
vt 0.556297 0.454102
vt 0.556292 0.447900
vt 0.160242 0.064585
vt 0.151564 0.038226
vt 0.139417 0.028601
vt 0.139418 0.064585
vt 0.001922 0.028607
vt 0.001923 0.064591
vt 0.713349 0.466126
vt 0.724723 0.447360
vt 0.706971 0.447468
vt 0.706988 0.466079
vt 0.693787 0.447504
vt 0.693800 0.466136
vt 0.556297 0.454102
vt 0.556292 0.447900
vt 0.716142 0.025049
vt 0.705637 0.003963
vt 0.722546 0.003981
vt 0.722657 0.025023
vt 0.735910 0.004075
vt 0.735911 0.025028
vt 0.873405 0.011265
vt 0.873294 0.003970
vt 0.744406 0.485457
vt 0.728058 0.490067
vt 0.738633 0.439277
vt 0.747601 0.467372
vt 0.765980 0.440303
vt 0.757005 0.467835
vt 0.776235 0.490776
vt 0.760059 0.485888
vt 0.752219 0.497615
vt 0.767965 0.520326
vt 0.752069 0.530527
vt 0.827114 0.665552
vt 0.832879 0.710969
vt 0.803593 0.663413
vt 0.813320 0.736136
vt 0.795684 0.706198
vt 0.399732 0.369857
vt 0.396168 0.430942
vt 0.388543 0.430943
vt 0.390854 0.369857
vt 0.379411 0.430943
vt 0.380149 0.369858
vt 0.369894 0.430943
vt 0.369079 0.369858
vt 0.358417 0.369859
vt 0.360692 0.430944
vt 0.352944 0.430944
vt 0.349546 0.369859
vt 0.381958 0.362864
vt 0.374656 0.343861
vt 0.398423 0.335753
vt 0.378974 0.321434
vt 0.390707 0.317431
vt 0.910951 0.731097
vt 0.923559 0.765709
vt 0.890785 0.744657
vt 0.911179 0.800656
vt 0.890926 0.787639
vt 0.897469 0.800629
vt 0.909331 0.822851
vt 0.891342 0.842993
vt 0.888332 0.810861
vt 0.870957 0.837564
vt 0.877977 0.808103
vt 0.856158 0.808691
vt 0.870459 0.793437
vt 0.852740 0.767679
vt 0.868723 0.772604
vt 0.862041 0.730586
vt 0.873447 0.753762
vt 0.482522 0.325890
vt 0.489298 0.321459
vt 0.482522 0.344703
vt 0.494234 0.335296
vt 0.489298 0.349134
vt 0.475715 0.429356
vt 0.482603 0.364930
vt 0.489146 0.364930
vt 0.485011 0.429355
vt 0.498361 0.364929
vt 0.496282 0.429355
vt 0.507076 0.364929
vt 0.508175 0.429355
vt 0.519420 0.429354
vt 0.516911 0.364929
vt 0.522732 0.364929
vt 0.528593 0.429354
vt 0.366682 0.312650
vt 0.366596 0.292777
vt 0.376051 0.318626
vt 0.375913 0.286470
vt 0.381757 0.302446
vt 0.643055 0.426707
vt 0.614579 0.426672
vt 0.614579 0.405018
vt 0.643055 0.405504
vt 0.614579 0.378558
vt 0.643055 0.378931
vt 0.614579 0.351059
vt 0.643055 0.351059
vt 0.643054 0.323977
vt 0.614578 0.324681
vt 0.614578 0.302897
vt 0.643054 0.301500
vt 0.895344 0.559351
vt 0.895344 0.573735
vt 0.779792 0.573001
vt 0.788250 0.559352
vt 0.779792 0.439129
vt 0.788250 0.452586
vt 0.895344 0.439127
vt 0.895344 0.452585
vt 0.789494 0.707798
vt 0.782957 0.755926
vt 0.771908 0.752187
vt 0.778878 0.704120
vt 0.806534 0.631527
vt 0.797004 0.610229
vt 0.878625 0.631527
vt 0.879649 0.610229
vt 0.964628 0.631527
vt 0.965643 0.610229
vt 0.998307 0.631527
vt 0.999300 0.610229
vt 0.139417 0.028601
vt 0.151564 0.038226
vt 0.160242 0.064585
vt 0.139418 0.064585
vt 0.001922 0.028607
vt 0.001923 0.064591
vt 0.706971 0.447468
vt 0.724723 0.447360
vt 0.713349 0.466126
vt 0.706988 0.466079
vt 0.693787 0.447504
vt 0.693800 0.466136
vt 0.556297 0.454102
vt 0.556292 0.447900
vt 0.722546 0.003981
vt 0.705637 0.003963
vt 0.716142 0.025049
vt 0.722657 0.025023
vt 0.735910 0.004075
vt 0.735911 0.025028
vt 0.873405 0.011265
vt 0.873294 0.003970
vt 0.722546 0.003981
vt 0.705637 0.003963
vt 0.716142 0.025049
vt 0.722657 0.025023
vt 0.735910 0.004075
vt 0.735911 0.025028
vt 0.873405 0.011265
vt 0.873294 0.003970
vt 0.139417 0.028601
vt 0.151564 0.038226
vt 0.160242 0.064585
vt 0.139418 0.064585
vt 0.001922 0.028607
vt 0.001923 0.064591
vt 0.706971 0.447468
vt 0.724723 0.447360
vt 0.713349 0.466126
vt 0.706988 0.466079
vt 0.693787 0.447504
vt 0.693800 0.466136
vt 0.556297 0.454102
vt 0.556292 0.447900
vt 0.699417 0.095956
vt 0.721236 0.093677
vt 0.719497 0.118010
vt 0.702419 0.119793
vt 0.679672 0.114702
vt 0.686964 0.134467
vt 0.664965 0.147103
vt 0.675453 0.159827
vt 0.669612 0.192069
vt 0.657503 0.188295
vt 0.658310 0.227402
vt 0.670245 0.222731
vt 0.461861 0.811051
vt 0.500454 0.995985
vt 0.461861 0.995985
vt 0.500454 0.717854
vt 0.404000 0.811051
vt 0.365758 0.717854
vt 0.365758 0.995985
vt 0.400660 0.995985
vt 0.628775 0.712480
vt 0.551357 0.712482
vt 0.557682 0.605883
vt 0.635527 0.599573
vt 0.727041 0.644732
vt 0.746984 0.712478
vt 0.139418 0.071449
vt 0.160242 0.071448
vt 0.151565 0.100727
vt 0.139418 0.110412
vt 0.001924 0.110418
vt 0.001923 0.071454
vt 0.151565 0.100727
vt 0.160242 0.071448
vt 0.139418 0.071449
vt 0.139418 0.110412
vt 0.001924 0.110418
vt 0.001923 0.071454
vt 0.151565 0.100727
vt 0.160242 0.071448
vt 0.139418 0.071449
vt 0.139418 0.110412
vt 0.001924 0.110418
vt 0.001923 0.071454
vt 0.139418 0.071449
vt 0.160242 0.071448
vt 0.151565 0.100727
vt 0.139418 0.110412
vt 0.001924 0.110418
vt 0.001923 0.071454
vt 0.891514 0.636601
vt 0.905126 0.657029
vt 0.909352 0.690230
vt 0.860789 0.654348
vt 0.889650 0.741119
vt 0.903954 0.722730
vt 0.859636 0.718943
vt 0.999317 0.211734
vt 0.999317 0.270786
vt 0.920173 0.291707
vt 0.889763 0.153495
vt 0.827872 0.248702
vt 0.709894 0.143552
vt 0.824560 0.038494
vt 0.999317 0.091066
vt 0.915193 0.001134
vt 0.999317 0.015362
vn 0.000822 0.017621000000000064 0.999844
vn 0.000822 0.017621000000000064 0.999844
vn 0.000822 0.017621000000000064 0.999844
vn 0.013612 0.010016000000000061 0.999857
vn 0.013612 0.010016000000000061 0.999857
vn 0.013612 0.010016000000000061 0.999857
vn 0.007724 0.003411000000000061 0.999964
vn 0.007724 0.003411000000000061 0.999964
vn 0.007724 0.003411000000000061 0.999964
vn 0.000916 0.01502300000000006 0.999887
vn 0.000916 0.01502300000000006 0.999887
vn 0.000916 0.01502300000000006 0.999887
vn 0.009817 0.006272000000000061 0.999932
vn 0.009817 0.006272000000000061 0.999932
vn 0.009817 0.006272000000000061 0.999932
vn 0.006384 0.004298000000000061 0.99997
vn 0.006384 0.004298000000000061 0.99997
vn 0.006384 0.004298000000000061 0.99997
vn 0.005279 0.025748000000000063 0.999655
vn 0.005279 0.025748000000000063 0.999655
vn 0.005279 0.025748000000000063 0.999655
vn 0.011879 0.010415000000000061 0.999875
vn 0.011879 0.010415000000000061 0.999875
vn 0.011879 0.010415000000000061 0.999875
vn -0.954181 -0.254621 -0.15718099999999996
vn -0.954181 -0.254621 -0.15718099999999996
vn -0.954181 -0.254621 -0.15718099999999996
vn -0.955393 -0.257103 -0.14533599999999997
vn -0.955393 -0.257103 -0.14533599999999997
vn -0.955393 -0.257103 -0.14533599999999997
vn 0.280259 -0.955961 -0.08714699999999995
vn 0.280259 -0.955961 -0.08714699999999995
vn 0.280259 -0.955961 -0.08714699999999995
vn 0.252012 -0.949114 -0.18887399999999993
vn 0.252012 -0.949114 -0.18887399999999993
vn 0.252012 -0.949114 -0.18887399999999993
vn 0.962604 0.2585 -0.08106200000000001
vn 0.962604 0.2585 -0.08106200000000001
vn 0.962604 0.2585 -0.08106200000000001
vn 0.962516 0.25789 -0.08399500000000001
vn 0.962516 0.25789 -0.08399500000000001
vn 0.962516 0.25789 -0.08399500000000001
vn -0.242156 0.958981 -0.14736100000000005
vn -0.242156 0.958981 -0.14736100000000005
vn -0.242156 0.958981 -0.14736100000000005
vn -0.258578 0.962291 -0.08445500000000006
vn -0.258578 0.962291 -0.08445500000000006
vn -0.258578 0.962291 -0.08445500000000006
vn -0.843506 0.361538 0.397226
vn -0.196356 0.963111 0.18401499999999996
vn -0.843506 0.361538 0.397226
vn -0.843506 0.361538 0.397226
vn -0.843506 0.361538 0.397226
vn -0.793792 -0.53872 0.2822680000000001
vn -0.258845 0.965914 -0.003090000000000059
vn -0.258845 0.965914 -0.003090000000000059
vn -0.258845 0.965914 -0.003090000000000059
vn -0.253271 0.964737 -0.07167200000000006
vn -0.253271 0.964737 -0.07167200000000006
vn -0.253271 0.964737 -0.07167200000000006
vn 0.013038 0.00927400000000006 0.999872
vn 0.013038 0.00927400000000006 0.999872
vn 0.013038 0.00927400000000006 0.999872
vn 0.012286 0.011619000000000062 0.999857
vn 0.012286 0.011619000000000062 0.999857
vn 0.012286 0.011619000000000062 0.999857
vn 0.008101 0.003254000000000061 0.999962
vn 0.008101 0.003254000000000061 0.999962
vn 0.008101 0.003254000000000061 0.999962
vn 0.003492 0.01771600000000006 0.999837
vn 0.003492 0.01771600000000006 0.999837
vn 0.003492 0.01771600000000006 0.999837
vn 0.965915 0.258859 -1.5850542289024234E-17
vn 0.965915 0.258859 -1.5850542289024234E-17
vn 0.965915 0.258859 -1.5850542289024234E-17
vn 0.37236 -0.20566000000000006 -0.905015
vn 0.154479 0.025720999999999942 -0.987661
vn -0.008937 0.03876699999999994 -0.999208
vn 0.984013 -0.07302700000000001 -0.162438
vn 0.984013 -0.07302700000000001 -0.162438
vn 0.984013 -0.07302700000000001 -0.162438
vn 0.978645 0.04986599999999999 -0.19942
vn 0.978645 0.04986599999999999 -0.19942
vn 0.978645 0.04986599999999999 -0.19942
vn 0.96576 0.259326 0.007568999999999985
vn 0.96576 0.259326 0.007568999999999985
vn 0.96576 0.259326 0.007568999999999985
vn 0.965812 0.259167 0.0062679999999999845
vn 0.965812 0.259167 0.0062679999999999845
vn 0.965812 0.259167 0.0062679999999999845
vn 0.005623 0.004524000000000062 0.999974
vn 0.005623 0.004524000000000062 0.999974
vn 0.005623 0.004524000000000062 0.999974
vn 0.01063 0.005537000000000062 0.999928
vn 0.01063 0.005537000000000062 0.999928
vn 0.01063 0.005537000000000062 0.999928
vn 0.009104 0.007276000000000062 0.999932
vn 0.009104 0.007276000000000062 0.999932
vn 0.009104 0.007276000000000062 0.999932
vn 0.026663 0.01131900000000006 0.99958
vn 0.026663 0.01131900000000006 0.99958
vn 0.026663 0.01131900000000006 0.99958
vn 0.004978 0.01998400000000006 0.999788
vn 0.004978 0.01998400000000006 0.999788
vn 0.004978 0.01998400000000006 0.999788
vn 0.007716 0.020117000000000062 0.999768
vn 0.007716 0.020117000000000062 0.999768
vn 0.007716 0.020117000000000062 0.999768
vn -0.005075 0.035054000000000064 0.999373
vn -0.005075 0.035054000000000064 0.999373
vn -0.005075 0.035054000000000064 0.999373
vn -0.00338 0.027045000000000062 0.999629
vn -0.00338 0.027045000000000062 0.999629
vn -0.00338 0.027045000000000062 0.999629
vn -0.028436 0.0026220000000000613 0.999592
vn -0.028436 0.0026220000000000613 0.999592
vn -0.028436 0.0026220000000000613 0.999592
vn -0.025799 0.0032520000000000613 0.999662
vn -0.025799 0.0032520000000000613 0.999662
vn -0.025799 0.0032520000000000613 0.999662
vn 0.010938 -0.01360099999999994 0.999848
vn 0.010938 -0.01360099999999994 0.999848
vn 0.010938 -0.01360099999999994 0.999848
vn 0.012046 -0.018792999999999938 0.999751
vn 0.012046 -0.018792999999999938 0.999751
vn 0.012046 -0.018792999999999938 0.999751
vn 0.138586 0.990289 -0.011067000000000061
vn 0.133113 0.991044 -0.01065900000000006
vn -0.997407 0.071759 -0.005518000000000005
vn -0.997407 0.071759 -0.005518000000000005
vn -0.830135 -0.557557 0.0024020000000000343
vn 0.138586 0.990289 -0.011067000000000061
vn 0.259874 -0.965638 0.002914000000000059
vn 0.259874 -0.965638 0.002914000000000059
vn 0.259874 -0.965638 0.002914000000000059
vn -0.25886 0.96591 -0.003146000000000059
vn -0.25886 0.96591 -0.003146000000000059
vn -0.25886 0.96591 -0.003146000000000059
vn 0.045251 0.43609500000000007 0.898762
vn -0.066889 -0.687127 0.723452
vn -0.067519 -0.686557 0.723934
vn -0.067519 -0.686557 0.723934
vn 0.088375 0.872434 0.48067599999999994
vn 0.045251 0.43609500000000007 0.898762
vn -0.461363 -0.12858999999999995 0.877843
vn -0.936394 -0.253405 0.24279900000000001
vn 0.47596 0.12140400000000005 0.871047
vn 0.47596 0.12140400000000005 0.871047
vn 0.937335 0.250898 0.24177199999999996
vn -0.461363 -0.12858999999999995 0.877843
vn 0.730296 0.635938 -0.24950200000000003
vn 0.730296 0.635938 -0.24950200000000003
vn 0.730296 0.635938 -0.24950200000000003
vn 0.718641 0.648986 -0.24974500000000002
vn 0.718641 0.648986 -0.24974500000000002
vn 0.718641 0.648986 -0.24974500000000002
vn 0.965731 0.259531 0.0027299999999999837
vn 0.965731 0.259531 0.0027299999999999837
vn 0.965731 0.259531 0.0027299999999999837
vn 0.965767 0.259407 0.001668999999999984
vn 0.965767 0.259407 0.001668999999999984
vn 0.965767 0.259407 0.001668999999999984
vn -0.962076 -0.256843 0.09188200000000002
vn -0.962076 -0.256843 0.09188200000000002
vn -0.962076 -0.256843 0.09188200000000002
vn -0.962386 -0.256393 0.08986700000000002
vn -0.962386 -0.256393 0.08986700000000002
vn -0.962386 -0.256393 0.08986700000000002
vn 0.000496 0.00858700000000006 0.999963
vn 0.001585 0.008859000000000061 0.99996
vn 0.000496 0.00858700000000006 0.999963
vn 0.000496 0.00858700000000006 0.999963
vn -0.000592 0.00831500000000006 0.999965
vn 0.000496 0.00858700000000006 0.999963
vn -0.019696 0.004695000000000062 0.999795
vn -0.025813 0.003175000000000061 0.999662
vn -0.019696 0.004695000000000062 0.999795
vn -0.019696 0.004695000000000062 0.999795
vn -0.013579 0.006215000000000062 0.999888
vn -0.019696 0.004695000000000062 0.999795
vn -0.006279 0.999464 -0.03213700000000006
vn -0.967367 0.245869 0.06124099999999998
vn 0.82576 0.558658 -0.07760200000000003
vn 0.82576 0.558658 -0.07760200000000003
vn 0.994368 -0.080316 -0.069153
vn -0.006279 0.999464 -0.03213700000000006
vn -0.965731 -0.259531 -0.0027299999999999837
vn -0.965731 -0.259531 -0.0027299999999999837
vn -0.965731 -0.259531 -0.0027299999999999837
vn -0.965767 -0.259407 -0.001668999999999984
vn -0.965767 -0.259407 -0.001668999999999984
vn -0.965767 -0.259407 -0.001668999999999984
vn 0.962076 0.256843 -0.09188200000000002
vn 0.962076 0.256843 -0.09188200000000002
vn 0.962076 0.256843 -0.09188200000000002
vn 0.962386 0.256393 -0.08986700000000002
vn 0.962386 0.256393 -0.08986700000000002
vn 0.962386 0.256393 -0.08986700000000002
vn -0.965142 -0.258855 0.03866300000000002
vn -0.965142 -0.258855 0.03866300000000002
vn -0.965142 -0.258855 0.03866300000000002
vn -0.970808 -0.235706 0.044434000000000015
vn -0.970808 -0.235706 0.044434000000000015
vn -0.970808 -0.235706 0.044434000000000015
vn 0.964504 0.264004 -0.0057700000000000164
vn 0.964504 0.264004 -0.0057700000000000164
vn 0.964504 0.264004 -0.0057700000000000164
vn 0.965903 0.258868 -0.004284000000000015
vn 0.965903 0.258868 -0.004284000000000015
vn 0.965903 0.258868 -0.004284000000000015
vn 0.965802 0.259279 0.0010299999999999843
vn 0.965802 0.259279 0.0010299999999999843
vn 0.965802 0.259279 0.0010299999999999843
vn 0.965712 0.259591 0.003542999999999984
vn 0.965712 0.259591 0.003542999999999984
vn 0.965712 0.259591 0.003542999999999984
vn -0.965882 -0.25897 -0.002672999999999984
vn -0.965882 -0.25897 -0.002672999999999984
vn -0.965882 -0.25897 -0.002672999999999984
vn 0.766578 -0.479487 0.42714300000000005
vn 0.778012 -0.10738099999999996 0.619005
vn 0.611446 -0.778397 -0.14223699999999995
vn 0.611446 -0.778397 -0.14223699999999995
vn 0.750228 -0.609304 0.25672200000000006
vn 0.450205 0.4699439999999999 -0.759255
vn 0.542952 0.61415 -0.572733
vn -0.008937 0.03876699999999994 -0.999208
vn 0.778849 0.21181399999999997 -0.590364
vn 0.450205 0.4699439999999999 -0.759255
vn 0.542952 0.61415 -0.572733
vn 0.851794 0.492042 -0.17983900000000003
vn 0.894997 0.421547 -0.14587300000000003
vn -0.858488 0.512834 0.00012899999999996858
vn -0.8631 0.505032 0.0003959999999999691
vn -0.997503 0.070552 -0.0033200000000000044
vn -0.997503 0.070552 -0.0033200000000000044
vn -0.829545 -0.5584 -0.006637999999999966
vn -0.965683 -0.259708 -0.002773999999999984
vn -0.96567 -0.25976 -0.0023149999999999837
vn -0.965683 -0.259708 -0.002773999999999984
vn -0.965829 -0.259176 -0.001276999999999984
vn -0.965798 -0.259291 -0.0015519999999999842
vn -0.96602 -0.258467 -0.0008529999999999842
vn -0.966067 -0.25829 -0.0008839999999999842
vn -0.966242 -0.257634 -0.0010409999999999842
vn -0.990572 0.11848 0.06876899999999998
vn 0.803546 0.591498 -0.06666900000000005
vn 0.798189 0.598814 -0.06570000000000004
vn -0.989553 0.127154 0.06793899999999999
vn -0.990572 0.11848 0.06876899999999998
vn -0.040495 -0.99905 0.016069000000000062
vn 0.541177 -0.840453 -0.027679999999999948
vn -0.990572 0.11848 0.06876899999999998
vn -0.989553 0.127154 0.06793899999999999
vn -0.040495 -0.99905 0.016069000000000062
vn -0.494818 0.506689 0.705989
vn -0.796017 0.597563 0.09630999999999997
vn -0.996998 -0.03281599999999999 0.070126
vn -0.528777 -0.11655699999999994 0.840719
vn -0.494818 0.506689 0.705989
vn -0.526187 -0.557815 0.641849
vn -0.654852 -0.614279 0.44026200000000004
vn 0.479516 0.792058 0.37776899999999997
vn -0.796017 0.597563 0.09630999999999997
vn -0.494818 0.506689 0.705989
vn 0.460436 0.47985800000000006 0.746817
vn -0.940723 -0.06187299999999998 0.333486
vn -0.944772 0.22883000000000003 0.23461099999999996
vn -0.948048 0.00048599999999998053 -0.318127
vn -0.284057 -0.952929 0.10600800000000006
vn 0.258836 -0.965921 0.0011710000000000591
vn 0.258836 -0.965921 0.0011760000000000592
vn 0.258836 -0.965921 0.0011710000000000591
vn 0.258836 -0.965921 0.0011710000000000591
vn 0.506567 -0.15209400000000006 -0.84868
vn 0.154479 0.025720999999999942 -0.987661
vn 0.37236 -0.20566000000000006 -0.905015
vn 0.770311 -0.30529600000000007 -0.559835
vn -0.777511 -0.21178400000000003 -0.592135
vn -0.777816 -0.21177100000000001 -0.591739
vn -0.777511 -0.21178400000000003 -0.592135
vn -0.777207 -0.21179600000000004 -0.592531
vn -0.951091 -0.255552 -0.17354699999999998
vn -0.951281 -0.255283 -0.17290499999999998
vn -0.951091 -0.255552 -0.17354699999999998
vn -0.950902 -0.25582 -0.17418899999999998
vn 0.965906 0.25889 0.0012369999999999842
vn 0.965898 0.25892 0.001222999999999984
vn 0.965906 0.25889 0.0012369999999999842
vn 0.965914 0.25886 0.0012509999999999841
vn -0.258567 0.965937 -0.010449000000000059
vn -0.258265 0.966016 -0.010589000000000058
vn -0.258567 0.965937 -0.010449000000000059
vn -0.258869 0.965857 -0.010308000000000058
vn -0.964224 -0.258422 0.05907100000000001
vn -0.964745 -0.256655 0.05827800000000002
vn -0.964224 -0.258422 0.05907100000000001
vn -0.9637 -0.260188 0.059864000000000014
vn -0.259091 0.965799 -0.01023800000000006
vn -0.259372 0.965722 -0.010350000000000059
vn -0.259091 0.965799 -0.01023800000000006
vn -0.25881 0.965875 -0.01012500000000006
vn 0.965442 0.260577 0.004563999999999985
vn 0.965542 0.26021 0.004399999999999985
vn 0.965442 0.260577 0.004563999999999985
vn 0.965342 0.260944 0.004728999999999984
vn 0.258882 -0.965899 -0.004360999999999941
vn 0.259002 -0.965867 -0.004416999999999941
vn 0.258882 -0.965899 -0.004360999999999941
vn 0.258763 -0.965931 -0.004305999999999941
vn -0.964566 -0.257325 0.05828000000000001
vn -0.964144 -0.259068 0.057533000000000015
vn -0.964566 -0.257325 0.05828000000000001
vn -0.964984 -0.25558 0.059026000000000016
vn 0.258716 -0.965944 -0.004206999999999941
vn 0.258614 -0.965972 -0.004246999999999941
vn 0.258716 -0.965944 -0.004206999999999941
vn 0.258818 -0.965917 -0.0041659999999999415
vn 0.258624 -0.965962 0.005621000000000059
vn 0.258613 -0.965965 0.005618000000000059
vn 0.258624 -0.965962 0.005621000000000059
vn 0.258624 -0.965962 0.005621000000000059
vn -0.254857 0.966953 -0.007092000000000059
vn -0.254859 0.966952 -0.007091000000000059
vn -0.254857 0.966953 -0.007092000000000059
vn -0.254857 0.966953 -0.007092000000000059
vn 0.002184 0.024509000000000062 0.999697
vn 0.001701 0.024496000000000063 0.999698
vn 0.002184 0.024509000000000062 0.999697
vn 0.002184 0.024509000000000062 0.999697
vn -0.567847 -0.14114799999999994 0.810942
vn -0.568317 -0.14442199999999994 0.810036
vn -0.567847 -0.14114799999999994 0.810942
vn -0.567371 -0.13787299999999994 0.811838
vn -0.158194 0.635196 0.755976
vn -0.15676 0.63592 0.755667
vn -0.158194 0.635196 0.755976
vn -0.159628 0.634471 0.756284
vn 0.965923 0.258827 -0.001159000000000016
vn 0.965891 0.258945 -0.0012050000000000157
vn 0.965923 0.258827 -0.001159000000000016
vn 0.965923 0.258827 -0.001159000000000016
vn -0.829545 -0.5584 -0.006637999999999966
vn -0.997503 0.070552 -0.0033200000000000044
vn -0.48526 -0.87434 -0.007230999999999946
vn -0.476109 -0.879359 -0.0068439999999999465
vn -0.830135 -0.557557 0.0024020000000000343
vn -0.997407 0.071759 -0.005518000000000005
vn 0.615338 -0.788182 0.01133600000000005
vn 0.619601 -0.784829 0.011752000000000049
vn 0.615338 -0.788182 0.01133600000000005
vn 0.133113 0.991044 -0.01065900000000006
vn 0.138586 0.990289 -0.011067000000000061
vn 0.619601 -0.784829 0.011752000000000049
vn -0.11539 -0.023405999999999937 0.993044
vn -0.11848 -0.021418999999999938 0.992725
vn -0.11539 -0.023405999999999937 0.993044
vn -0.112298 -0.02539199999999994 0.99335
vn -0.747434 -0.633572 0.19982300000000003
vn -0.748309 -0.633208 0.19769000000000003
vn -0.747434 -0.633572 0.19982300000000003
vn -0.746556 -0.633931 0.20195400000000002
vn -0.724496 -0.642486 0.24963300000000002
vn -0.718641 -0.648986 0.24974500000000002
vn -0.724496 -0.642486 0.24963300000000002
vn -0.730296 -0.635938 0.24950200000000003
vn -0.933112 -0.250618 0.257863
vn -0.932958 -0.250429 0.258601
vn -0.933112 -0.250618 0.257863
vn -0.933265 -0.250807 0.257125
vn 0.933748 0.24717800000000004 0.258877
vn 0.93357 0.24694700000000003 0.259739
vn 0.933748 0.24717800000000004 0.258877
vn 0.933925 0.24741000000000002 0.258015
vn -0.936394 -0.253405 0.24279900000000001
vn -0.461363 -0.12858999999999995 0.877843
vn -0.933748 -0.24717900000000004 -0.258877
vn -0.934011 -0.24708600000000003 -0.258015
vn 0.937335 0.250898 0.24177199999999996
vn 0.47596 0.12140400000000005 0.871047
vn 0.933111 0.250618 -0.257865
vn 0.932882 0.250709 -0.258605
vn 0.09943 0.993905 -0.047598000000000064
vn 0.099778 0.993956 -0.04577200000000006
vn 0.09943 0.993905 -0.047598000000000064
vn 0.099082 0.993851 -0.049423000000000064
vn -0.100162 -0.993833 -0.04756999999999994
vn -0.100551 -0.993689 -0.04972599999999994
vn -0.100162 -0.993833 -0.04756999999999994
vn -0.099773 -0.993973 -0.045414999999999935
vn -0.067519 -0.686557 0.723934
vn -0.066889 -0.687127 0.723452
vn -0.099427 -0.993906 0.04759700000000006
vn -0.099747 -0.993785 0.04941800000000006
vn 0.100161 0.993833 0.04756999999999994
vn 0.045251 0.43609500000000007 0.898762
vn 0.088375 0.872434 0.48067599999999994
vn 0.100564 0.993894 0.04541099999999994
vn -0.96591 -0.258855 0.003437000000000016
vn -0.965899 -0.258895 0.003421000000000016
vn -0.96591 -0.258855 0.003437000000000016
vn -0.96591 -0.258855 0.003437000000000016
vn 0.258844 -0.965913 0.003329000000000059
vn 0.25883 -0.965917 0.003342000000000059
vn 0.258844 -0.965913 0.003329000000000059
vn 0.258857 -0.96591 0.003315000000000059
vn 0.798189 0.598814 -0.06570000000000004
vn 0.803546 0.591498 -0.06666900000000005
vn 0.541177 -0.840453 -0.027679999999999948
vn -0.040495 -0.99905 0.016069000000000062
vn -0.967367 0.245869 0.06124099999999998
vn -0.006279 0.999464 -0.03213700000000006
vn -0.720701 -0.689328 0.07360000000000004
vn 0.493737 -0.869576 -0.007853999999999946
vn 0.994368 -0.080316 -0.069153
vn 0.82576 0.558658 -0.07760200000000003
vn 0.493737 -0.869576 -0.007853999999999946
vn -0.720701 -0.689328 0.07360000000000004
vn -0.116541 0.49041400000000007 0.863662
vn -0.116546 0.49041900000000005 0.863658
vn -0.116541 0.49041400000000007 0.863662
vn -0.116541 0.49041400000000007 0.863662
vn 0.965882 0.258977 0.0014359999999999842
vn 0.96589 0.258948 0.0014179999999999842
vn 0.965882 0.258977 0.0014359999999999842
vn 0.965882 0.258977 0.0014359999999999842
vn 0.258796 -0.965927 -0.003270999999999941
vn 0.258777 -0.965931 -0.003372999999999941
vn 0.258796 -0.965927 -0.003270999999999941
vn 0.258796 -0.965927 -0.003270999999999941
vn -0.965026 -0.258119 0.04582600000000001
vn -0.965057 -0.258084 0.04536600000000001
vn -0.965026 -0.258119 0.04582600000000001
vn -0.965026 -0.258119 0.04582600000000001
vn -0.258845 0.965885 -0.008072000000000058
vn -0.258866 0.965881 -0.007942000000000058
vn -0.258845 0.965885 -0.008072000000000058
vn -0.258845 0.965885 -0.008072000000000058
vn 0.965895 0.258931 0.0009379999999999842
vn 0.965906 0.258892 0.0009029999999999842
vn 0.965895 0.258931 0.0009379999999999842
vn 0.965895 0.258931 0.0009379999999999842
vn -0.258811 0.965928 0.00040199999999994087
vn -0.258812 0.965928 0.00040099999999994085
vn -0.258811 0.965928 0.00040199999999994087
vn -0.25881 0.965928 0.00040299999999994084
vn 0.006964 0.011575000000000061 0.999909
vn 0.004849 0.00950700000000006 0.999943
vn 0.006964 0.011575000000000061 0.999909
vn 0.009078 0.013643000000000061 0.999866
vn 0.60717 0.6216 0.49493299999999996
vn 0.059605 0.815519 0.575653
vn 0.763785 0.42131700000000005 0.489003
vn 0.918488 -0.23720299999999997 0.316408
vn 0.816071 -0.475555 0.32844400000000007
vn 0.499574 -0.851368 0.15999700000000006
vn 0.973398 0.22884 0.011367999999999986
vn 0.979964 0.198247 -0.01918400000000001
vn 0.963874 0.266355 0.0011669999999999838
vn 0.953895 0.299925 0.01135399999999998
vn 0.940216 0.340035 -0.01922200000000002
vn -0.940723 -0.06187299999999998 0.333486
vn -0.284057 -0.952929 0.10600800000000006
vn 0.161165 -0.650605 0.742118
vn 0.85836 -0.500558 -0.11251799999999998
vn 0.845645 0.23132400000000003 0.481014
vn 0.85836 -0.500558 -0.11251799999999998
vn 0.851855 0.336555 -0.401341
vn 0.866566 0.495198 -0.06198600000000003
vn 0.845645 0.23132400000000003 0.481014
vn -0.06681 0.578143 0.813196
vn 0.161165 -0.650605 0.742118
vn -0.940723 -0.06187299999999998 0.333486
vn -0.944772 0.22883000000000003 0.23461099999999996
vn -0.357922 -0.10103400000000005 -0.928269
vn -0.356235 -0.10089900000000006 -0.928933
vn -0.129777 -0.04008600000000006 -0.990733
vn 0.1189 0.027244999999999936 -0.992532
vn 0.347202 0.08894299999999994 -0.933563
vn 0.343868 0.08865399999999994 -0.934824
vn -0.059138 0.983959 -0.16830600000000007
vn -0.130832 0.973028 -0.18999700000000005
vn 0.054829 0.948684 -0.31143600000000005
vn 0.108193 0.722285 -0.683081
vn 0.00834 0.4157799999999999 -0.909427
vn -0.008937 0.03876699999999994 -0.999208
vn -0.234984 0.31715999999999994 -0.918799
vn -0.0458 -0.39588500000000004 -0.917157
vn 0.203009 -0.38914000000000004 -0.898531
vn 0.37236 -0.20566000000000006 -0.905015
vn 0.612066 -0.551267 -0.566991
vn 0.466048 -0.86747 -0.17405599999999993
vn 0.393015 -0.909355 -0.13643199999999994
vn 0.535118 -0.818208 -0.21019999999999994
vn 0.260575 -0.953069 0.15414400000000006
vn 0.25575 -0.95384 0.15742100000000006
vn 0.259296 -0.954067 0.15007200000000007
vn 0.259423 -0.958622 0.11723800000000005
vn 0.256831 -0.955914 0.14235600000000007
vn 0.257114 -0.955562 0.14420300000000005
vn 0.257615 -0.961171 0.09891900000000006
vn 0.257392 -0.955673 0.14296200000000006
vn 0.258843 -0.965914 0.003285000000000059
vn 0.258844 -0.965914 0.003295000000000059
vn 0.255522 -0.954907 0.15120200000000006
vn 0.254539 -0.95447 0.15555500000000005
vn 0.2565 -0.953571 0.15783200000000006
vn -0.256107 0.954022 0.15572699999999995
vn -0.253665 0.954249 0.15831499999999996
vn -0.255432 0.954995 0.15079499999999996
vn -0.256362 0.959575 0.11616899999999994
vn -0.254077 0.956841 0.14107199999999995
vn -0.254279 0.956588 0.14241599999999993
vn -0.254911 0.962203 0.09584199999999994
vn -0.258834 0.965921 -0.0010500000000000591
vn -0.258834 0.965921 -0.0010440000000000592
vn -0.254754 0.956786 0.14021799999999995
vn -0.251578 0.956288 0.14907099999999995
vn -0.249949 0.956 0.15358899999999995
vn -0.255266 0.953969 0.15742399999999995
vn -0.952951 -0.262295 0.15194000000000002
vn -0.95407 -0.255626 0.15622400000000003
vn -0.954245 -0.26054 0.14674900000000002
vn -0.959389 -0.260139 0.10908700000000002
vn -0.956867 -0.256853 0.13576400000000002
vn -0.957133 -0.256531 0.13449600000000003
vn -0.962545 -0.255707 0.09011200000000001
vn -0.965781 -0.259274 -0.006666999999999985
vn -0.965764 -0.259358 -0.005869999999999985
vn -0.957022 -0.256102 0.13608900000000002
vn -0.956621 -0.251609 0.14686200000000002
vn -0.956392 -0.249444 0.15196300000000001
vn -0.954084 -0.255615 0.15615400000000002
vn 0.521955 0.13643600000000006 0.841991
vn 0.494272 0.10227000000000006 0.863271
vn 0.666051 0.18021100000000007 0.72381
vn 0.794605 0.22886200000000004 0.562339
vn 0.943389 0.258661 0.20763399999999999
vn 0.943407 0.258478 0.20777899999999996
vn 0.965921 0.258836 -0.0008810000000000158
vn 0.965923 0.258827 -0.0008810000000000158
vn 0.25949 -0.965684 0.010900000000000059
vn 0.259977 -0.965559 0.01038000000000006
vn 0.259331 -0.965752 0.008395000000000059
vn 0.259028 -0.965851 0.006061000000000059
vn 0.259038 -0.965861 0.003382000000000059
vn 0.259067 -0.965853 0.0033770000000000588
vn -0.108945 0.560696 0.820823
vn -0.054667 0.520943 0.851839
vn -0.159395 0.699014 0.697117
vn -0.221487 0.821211 0.525886
vn -0.254614 0.948542 0.18825299999999995
vn -0.254061 0.948622 0.18859799999999993
vn -0.258881 0.965905 -0.002960000000000059
vn -0.25889 0.965902 -0.002960000000000059
vn -0.259152 0.965823 0.005084999999999941
vn -0.259365 0.965767 0.004868999999999941
vn -0.259098 0.965843 0.003909999999999941
vn -0.258974 0.96588 0.002805999999999941
vn -0.258991 0.965878 0.0015579999999999407
vn -0.258993 0.965878 0.0015579999999999407
vn 0.110785 -0.536275 0.836741
vn 0.056273 -0.49432599999999993 0.867453
vn 0.161522 -0.680343 0.714874
vn 0.224428 -0.80915 0.543055
vn 0.256466 -0.946113 0.19772700000000007
vn 0.256462 -0.94611 0.19774300000000006
vn 0.258816 -0.965926 -0.0011319999999999408
vn 0.258781 -0.965935 -0.0011329999999999407
vn -0.519702 -0.12388199999999995 0.845318
vn -0.493831 -0.09017599999999995 0.864869
vn -0.656699 -0.16756699999999994 0.735301
vn -0.780443 -0.21739999999999998 0.586213
vn -0.938029 -0.254721 0.23498600000000003
vn -0.938026 -0.254721 0.23499900000000004
vn -0.965734 -0.259011 0.016481000000000016
vn -0.965742 -0.258979 0.01648000000000002
vn 0.422563 0.35055499999999995 -0.835794
vn 0.92627 -0.18628799999999998 0.327599
vn 0.93746 -0.321209 -0.13414399999999999
vn 0.0855 -0.28798500000000005 -0.95381
vn -0.203072 -0.854854 -0.47747999999999996
vn -0.704993 -0.574737 -0.41552799999999995
vn -0.553807 -0.40836399999999995 0.725628
vn -0.994564 0.0023020000000000063 0.104102
vn -0.844023 0.503175 0.18557799999999997
vn -0.664883 0.41788300000000006 0.619115
vn 0.499539 -0.18016399999999994 0.84735
vn 0.435167 0.608777 -0.663341
vn 0.116168 0.76476 0.633757
vn 0.832323 -0.470712 -0.2926929999999999
vn 0.326828 -0.24611699999999995 0.912475
vn -0.099641 -0.960876 0.2584350000000001
vn -0.673015 -0.38089399999999995 0.634011
vn -0.999708 -0.024087 0.0017220000000000015
vn -0.285787 -0.958293 0.0008500000000000586
vn 0.163982 -0.765786 0.621838
vn 0.822954 -0.568106 -0.0012989999999999653
vn 0.923044 -0.11948099999999998 0.365669
vn 0.629264 0.77719 -0.0014950000000000475
vn 0.325886 0.3630570000000001 0.872919
vn -0.513627 0.80481 0.29743499999999995
vn -0.544643 0.838668 0.0006539999999999486
vn -0.999708 -0.024087 0.0017220000000000015
vn -0.673015 -0.38089399999999995 0.634011
vn -0.513627 0.80481 0.29743499999999995
vn -0.673015 -0.38089399999999995 0.634011
vn 0.325886 0.3630570000000001 0.872919
vn 0.163982 -0.765786 0.621838
vn 0.923044 -0.11948099999999998 0.365669
vn -0.71734 0.678338 -0.15900000000000003
vn -0.842603 -0.460465 0.2792700000000001
vn 0.349795 0.727516 0.590224
vn 0.180418 -0.943819 0.27686600000000006
vn 0.978768 -0.126596 -0.161205
vn -0.285935 0.803981 -0.521397
vn -0.71734 0.678338 -0.15900000000000003
vn 0.349795 0.727516 0.590224
vn 0.67664 0.517922 -0.523369
vn 0.978768 -0.126596 -0.161205
vn 0.700329 -0.48638000000000003 -0.522468
vn 0.180418 -0.943819 0.27686600000000006
vn -0.24607 -0.817889 -0.520103
vn -0.842603 -0.460465 0.2792700000000001
vn -0.854124 -0.02156400000000003 -0.519622
vn -0.71734 0.678338 -0.15900000000000003
vn -0.285935 0.803981 -0.521397
vn -0.864201 0.351809 0.359705
vn -0.327351 -0.672021 0.66425
vn 0.042866 0.46272800000000003 0.885463
vn 0.540142 -0.517077 0.663986
vn 0.803205 0.419429 0.423014
vn 0.996888 0.0063740000000000055 0.07857
vn 0.803205 0.419429 0.423014
vn 0.540142 -0.517077 0.663986
vn 0.315947 -0.944669 0.08819100000000006
vn -0.327351 -0.672021 0.66425
vn -0.80308 -0.59204 0.06746500000000004
vn -0.864201 0.351809 0.359705
vn -0.924691 0.373394 0.07432099999999997
vn 0.070973 0.994655 0.07499599999999994
vn 0.042866 0.46272800000000003 0.885463
vn 0.803205 0.419429 0.423014
vn 0.996888 0.0063740000000000055 0.07857
vn 0.401376 0.83755 0.37068399999999996
vn -0.561246 0.540345 0.626921
vn 0.640201 -0.07852399999999995 0.764184
vn -0.601917 -0.16053099999999995 0.782257
vn -0.046455 -0.95419 0.29557400000000006
vn 0.640201 -0.07852399999999995 0.764184
vn 0.82299 -0.568055 0.00016600000000003477
vn 0.79456 0.607186 0.00024599999999996283
vn 0.401376 0.83755 0.37068399999999996
vn -0.331945 0.943299 -8.00000000005776E-06
vn -0.561246 0.540345 0.626921
vn -0.965925 -0.258823 -0.00030499999999998416
vn -0.601917 -0.16053099999999995 0.782257
vn -0.046455 -0.95419 0.29557400000000006
vn -0.052341 -0.998629 -9.099999999993885E-05
vn 0.82299 -0.568055 0.00016600000000003477
vn 0.640201 -0.07852399999999995 0.764184
vn -0.259356 0.965782 0.0006089999999999409
vn -0.258815 0.965927 0.0006509999999999408
vn -0.259167 0.965832 0.000993999999999941
vn -0.259159 0.965834 0.0013589999999999408
vn -0.258464 0.96602 0.0013849999999999407
vn -0.258469 0.966019 0.0009859999999999407
vn -0.258308 0.966062 0.0006039999999999408
vn -0.258804 0.96593 0.0005639999999999409
vn 0.766578 -0.479487 0.42714300000000005
vn 0.750228 -0.609304 0.25672200000000006
vn 0.479516 0.792058 0.37776899999999997
vn 0.460436 0.47985800000000006 0.746817
vn 0.778012 -0.10738099999999996 0.619005
vn -0.494818 0.506689 0.705989
vn 0.581685 -0.02071799999999995 0.81315
vn -0.528777 -0.11655699999999994 0.840719
vn 0.624114 -0.34387599999999996 0.701592
vn -0.526187 -0.557815 0.641849
vn 0.512047 -0.729555 0.45338400000000006
vn -0.654852 -0.614279 0.44026200000000004
vn 0.258303 -0.966026 0.00855000000000006
vn 0.257587 -0.966197 0.01057100000000006
vn 0.25813 -0.966046 0.01111900000000006
vn 0.258655 -0.96595 0.006163000000000059
vn 0.258643 -0.965967 0.003410000000000059
vn 0.258643 -0.965967 0.003410000000000059
vn -0.206514 0.677412 0.70602
vn -0.206432 0.46704000000000007 0.859802
vn -0.179877 0.530001 0.828699
vn -0.214783 0.817452 0.534453
vn -0.252392 0.948252 0.19265599999999994
vn -0.252481 0.948214 0.19272599999999995
vn -0.2588 0.965926 -0.002994000000000059
vn -0.25881 0.965924 -0.002994000000000059
vn -0.64982 -0.16920399999999994 0.741015
vn -0.467658 -0.15232799999999994 0.870685
vn -0.507743 -0.13622799999999993 0.85067
vn -0.783635 -0.19066299999999997 0.591239
vn -0.940237 -0.24407799999999996 0.23744800000000002
vn -0.940281 -0.24397799999999997 0.23737500000000003
vn -0.965928 -0.258285 0.01647300000000002
vn -0.965924 -0.258303 0.016472000000000018
vn 0.662597 0.18907300000000005 0.724718
vn 0.474983 0.17278500000000005 0.862866
vn 0.516212 0.15670000000000006 0.842004
vn 0.798615 0.20861900000000003 0.564529
vn 0.944767 0.251752 0.20984799999999998
vn 0.944675 0.252094 0.20985199999999998
vn 0.965759 0.259441 5.5999999999984116E-05
vn 0.965931 0.258801 7.299999999998416E-05
vn -0.258525 0.965997 0.003782999999999941
vn -0.258315 0.966049 0.004741999999999941
vn -0.258473 0.966006 0.004907999999999941
vn -0.258611 0.965978 0.002710999999999941
vn -0.258601 0.965983 0.0015299999999999407
vn -0.258573 0.965991 0.001524999999999941
vn 0.207557 -0.68202 0.701262
vn 0.208165 -0.4736949999999999 0.855734
vn 0.181142 -0.535512 0.824872
vn 0.216173 -0.820213 0.529642
vn 0.253013 -0.948465 0.19078500000000007
vn 0.253689 -0.948194 0.19123500000000004
vn 0.258778 -0.965936 -0.0011089999999999408
vn 0.258774 -0.965937 -0.0011089999999999408
vn 0.832323 -0.470712 -0.2926929999999999
vn -0.099641 -0.960876 0.2584350000000001
vn -0.278657 -0.903488 -0.32566899999999993
vn 0.076353 -0.08682100000000005 -0.993294
vn 0.435167 0.608777 -0.663341
vn -0.058563 0.885838 -0.4602840000000001
vn 0.116168 0.76476 0.633757
vn -0.432681 0.815997 0.38332199999999994
vn -0.67025 -0.23082899999999995 0.705325
vn 0.326828 -0.24611699999999995 0.912475
vn -0.099641 -0.960876 0.2584350000000001
vn -0.278657 -0.903488 -0.32566899999999993
vn -0.258206 0.966088 0.0016969999999999407
vn -0.257924 0.966165 0.0010469999999999408
vn -0.258799 0.965931 0.0006699999999999408
vn -0.258206 0.966087 0.002493999999999941
vn -0.259249 0.965808 0.002052999999999941
vn -0.259708 0.965685 0.002271999999999941
vn -0.259713 0.965685 0.0010769999999999409
vn -0.258809 0.965928 0.0006739999999999408
vn 0.996371 0.04012799999999999 -0.075067
vn 0.611446 -0.778397 -0.14223699999999995
vn 0.778012 -0.10738099999999996 0.619005
vn 0.581685 -0.02071799999999995 0.81315
vn 0.624114 -0.34387599999999996 0.701592
vn 0.512047 -0.729555 0.45338400000000006
vn -0.965878 -0.258979 -0.002993999999999984
vn -0.965897 -0.258883 -0.004737999999999984
vn -0.96587 -0.258986 -0.0045949999999999845
vn -0.965858 -0.259056 -0.002925999999999984
vn -0.965884 -0.258972 -0.0013919999999999842
vn -0.965897 -0.258922 -0.0013839999999999842
vn 0.964005 0.257726 -0.06536500000000002
vn 0.963476 0.259178 -0.06738600000000002
vn 0.965215 0.257951 -0.042677000000000014
vn 0.965452 0.25723 -0.04166300000000001
vn 0.965927 0.258043 -0.019967000000000016
vn 0.965933 0.258019 -0.01997000000000002
vn -0.965329 -0.260886 -0.008857999999999984
vn -0.965194 -0.261364 -0.009509999999999984
vn -0.965527 -0.260241 -0.005756999999999984
vn -0.965476 -0.260438 -0.005362999999999984
vn -0.965714 -0.259594 -0.0026549999999999838
vn -0.965948 -0.258721 -0.002790999999999984
vn 0.965096 0.258477 -0.04217600000000001
vn 0.964342 0.256229 -0.06626300000000002
vn 0.964076 0.257707 -0.06438000000000002
vn 0.964941 0.259207 -0.04123300000000001
vn 0.96564 0.259118 -0.01995200000000002
vn 0.965638 0.259125 -0.019953000000000016
vn 0.92627 -0.18628799999999998 0.327599
vn 0.616472 -0.3376799999999999 0.711291
vn 0.499539 -0.18016399999999994 0.84735
vn 0.93746 -0.321209 -0.13414399999999999
vn -0.553807 -0.40836399999999995 0.725628
vn -0.664883 0.41788300000000006 0.619115
vn -0.203072 -0.854854 -0.47747999999999996
vn 0.028814 0.522889 0.851913
vn 0.197448 0.847895 0.49202499999999993
vn -0.203606 0.645926 0.735748
vn -0.224364 -0.02143599999999994 0.97427
vn -0.480571 0.43857300000000005 0.759411
vn -0.407688 -0.05682999999999994 0.911351
vn -0.127024 -0.521361 0.843829
vn 0.209702 -0.36587499999999995 0.90673
vn 0.117063 -0.553262 0.824741
vn 0.40431 -0.570307 0.715041
g Material #48
f 1/1/1 2/2/2 3/3/3
f 4/4/4 5/5/5 6/6/6
f 7/7/7 8/8/8 9/9/9
f 10/10/10 11/11/11 12/12/12
f 13/13/13 14/14/14 15/15/15
f 16/16/16 17/17/17 18/18/18
f 19/19/19 20/20/20 21/21/21
f 22/22/22 23/23/23 24/24/24
f 25/25/25 26/26/26 27/27/27
f 28/28/28 29/29/29 30/30/30
f 31/31/31 32/32/32 33/33/33
f 34/34/34 35/35/35 36/36/36
f 37/37/37 38/38/38 39/39/39
f 40/40/40 41/41/41 42/42/42
f 43/43/43 44/44/44 45/45/45
f 46/46/46 47/47/47 48/48/48
f 49/49/49 50/50/50 51/51/51
f 52/52/52 53/53/53 54/54/54
f 55/55/55 56/56/56 57/57/57
f 58/58/58 59/59/59 60/60/60
f 61/61/61 62/62/62 63/63/63
f 64/64/64 65/65/65 66/66/66
f 67/67/67 68/68/68 69/69/69
f 70/70/70 71/71/71 72/72/72
f 73/73/73 74/74/74 75/75/75
f 76/76/76 77/77/77 78/78/78
f 79/79/79 80/80/80 81/81/81
f 82/82/82 83/83/83 84/84/84
f 85/85/85 86/86/86 87/87/87
f 88/88/88 89/89/89 90/90/90
f 91/91/91 92/92/92 93/93/93
f 94/94/94 95/95/95 96/96/96
f 97/97/97 98/98/98 99/99/99
f 100/100/100 101/101/101 102/102/102
f 103/103/103 104/104/104 105/105/105
f 106/106/106 107/107/107 108/108/108
f 109/109/109 110/110/110 111/111/111
f 112/112/112 113/113/113 114/114/114
f 115/115/115 116/116/116 117/117/117
f 118/118/118 119/119/119 120/120/120
f 121/121/121 122/122/122 123/123/123
f 124/124/124 125/125/125 126/126/126
f 127/127/127 128/128/128 129/129/129
f 130/130/130 131/131/131 132/132/132
f 133/133/133 134/134/134 135/135/135
f 136/136/136 137/137/137 138/138/138
f 139/139/139 140/140/140 141/141/141
f 142/142/142 143/143/143 144/144/144
f 145/145/145 146/146/146 147/147/147
f 148/148/148 149/149/149 150/150/150
f 151/151/151 152/152/152 153/153/153
f 154/154/154 155/155/155 156/156/156
f 157/157/157 158/158/158 159/159/159
f 160/160/160 161/161/161 162/162/162
f 163/163/163 164/164/164 165/165/165
f 166/166/166 167/167/167 168/168/168
f 169/169/169 170/170/170 171/171/171
f 172/172/172 173/173/173 174/174/174
f 175/175/175 176/176/176 177/177/177
f 178/178/178 179/179/179 180/180/180
f 181/181/181 182/182/182 183/183/183
f 184/184/184 185/185/185 186/186/186
f 187/187/187 188/188/188 189/189/189
f 190/190/190 191/191/191 192/192/192
f 193/193/193 194/194/194 195/195/195
f 196/196/196 197/197/197 198/198/198
f 199/199/199 200/200/200 201/201/201
f 202/202/202 203/203/203 204/204/204
f 205/205/205 206/206/206 207/207/207
f 208/208/208 209/209/209 210/210/210
f 211/211/211 212/212/212 213/213/213
f 214/214/214 215/215/215 216/216/216
f 217/217/217 218/218/218 219/219/219
f 220/220/220 221/221/221 222/222/222
f 223/223/223 224/224/224 220/220/220
f 225/225/225 226/226/226 227/227/227
f 227/227/227 228/228/228 229/229/229
f 230/230/230 229/229/229 231/231/231
f 231/231/231 232/232/232 230/230/230
f 233/233/233 234/234/234 235/235/235
f 236/236/236 237/237/237 233/233/233
f 238/238/238 239/239/239 240/240/240
f 241/241/241 239/239/239 242/242/242
f 243/243/243 241/241/241 242/242/242
f 243/243/243 244/244/244 241/241/241
f 243/243/243 245/245/245 244/244/244
f 246/246/246 247/247/247 248/248/248
f 248/248/248 249/249/249 250/250/250
f 251/251/251 252/252/252 253/253/253
f 253/253/253 254/254/254 255/255/255
f 256/256/256 257/257/257 258/258/258
f 258/258/258 259/259/259 260/260/260
f 261/261/261 259/259/259 258/258/258
f 258/258/258 262/262/262 261/261/261
f 263/263/263 264/264/264 265/265/265
f 265/265/265 266/266/266 263/263/263
f 267/267/267 268/268/268 269/269/269
f 269/269/269 270/270/270 267/267/267
f 271/271/271 272/272/272 273/273/273
f 273/273/273 274/274/274 271/271/271
f 275/275/275 276/276/276 277/277/277
f 277/277/277 278/278/278 275/275/275
f 279/279/279 280/280/280 281/281/281
f 281/281/281 282/282/282 279/279/279
f 283/283/283 284/284/284 285/285/285
f 285/285/285 286/286/286 283/283/283
f 287/287/287 288/288/288 289/289/289
f 289/289/289 290/290/290 287/287/287
f 291/291/291 292/292/292 293/293/293
f 293/293/293 294/294/294 291/291/291
f 295/295/295 296/296/296 297/297/297
f 297/297/297 298/298/298 295/295/295
f 299/299/299 300/300/300 301/301/301
f 301/301/301 302/302/302 299/299/299
f 303/303/303 304/304/304 305/305/305
f 305/305/305 306/306/306 303/303/303
f 307/307/307 308/308/308 309/309/309
f 309/309/309 310/310/310 307/307/307
f 311/311/311 312/312/312 313/313/313
f 313/313/313 314/314/314 311/311/311
f 315/315/315 316/316/316 317/317/317
f 317/317/317 318/318/318 315/315/315
f 319/319/319 320/320/320 321/321/321
f 321/321/321 322/322/322 319/319/319
f 323/323/323 324/324/324 325/325/325
f 325/325/325 326/326/326 323/323/323
f 327/327/327 328/328/328 329/329/329
f 329/329/329 330/330/330 327/327/327
f 331/331/331 332/332/332 333/333/333
f 333/333/333 334/334/334 331/331/331
f 335/335/335 336/336/336 337/337/337
f 337/337/337 338/338/338 335/335/335
f 339/339/339 340/340/340 341/341/341
f 341/341/341 342/342/342 339/339/339
f 343/343/343 344/344/344 345/345/345
f 345/345/345 346/346/346 343/343/343
f 347/347/347 348/348/348 349/349/349
f 349/349/349 350/350/350 347/347/347
f 351/351/351 352/352/352 353/353/353
f 353/353/353 354/354/354 351/351/351
f 355/355/355 356/356/356 357/357/357
f 357/357/357 358/358/358 355/355/355
f 359/359/359 360/360/360 361/361/361
f 361/361/361 362/362/362 359/359/359
f 363/363/363 364/364/364 365/365/365
f 365/365/365 366/366/366 363/363/363
f 367/367/367 368/368/368 369/369/369
f 369/369/369 370/370/370 367/367/367
f 371/371/371 372/372/372 373/373/373
f 373/373/373 374/374/374 371/371/371
f 375/375/375 376/376/376 377/377/377
f 377/377/377 378/378/378 375/375/375
f 379/379/379 380/380/380 381/381/381
f 381/381/381 382/382/382 379/379/379
f 383/383/383 384/384/384 385/385/385
f 385/385/385 386/386/386 383/383/383
f 387/387/387 388/388/388 389/389/389
f 389/389/389 390/390/390 387/387/387
f 391/391/391 392/392/392 393/393/393
f 393/393/393 394/394/394 391/391/391
f 395/395/395 396/396/396 397/397/397
f 397/397/397 398/398/398 395/395/395
f 399/399/399 400/400/400 401/401/401
f 401/401/401 402/402/402 399/399/399
f 403/403/403 404/404/404 405/405/405
f 405/405/405 406/406/406 403/403/403
f 407/407/407 408/408/408 409/409/409
f 409/409/409 410/410/410 407/407/407
f 411/411/411 412/412/412 413/413/413
f 413/413/413 414/414/414 411/411/411
f 415/415/415 416/416/416 417/417/417
f 417/417/417 418/418/418 415/415/415
f 419/419/419 420/420/420 421/421/421
f 421/421/421 422/422/422 419/419/419
f 423/423/423 424/424/424 425/425/425
f 425/425/425 426/426/426 423/423/423
f 427/427/427 428/428/428 429/429/429
f 429/429/429 430/430/430 427/427/427
f 431/431/431 432/432/432 433/433/433
f 433/433/433 434/434/434 431/431/431
f 435/435/435 436/436/436 437/437/437
f 437/437/437 438/438/438 435/435/435
f 439/439/439 440/440/440 441/441/441
f 441/441/441 442/442/442 439/439/439
f 443/443/443 444/444/444 445/445/445
f 445/445/445 446/446/446 443/443/443
f 447/447/447 448/448/448 449/449/449
f 449/449/449 450/450/450 447/447/447
f 451/451/451 452/452/452 453/453/453
f 454/454/454 451/451/451 453/453/453
f 455/455/455 454/454/454 453/453/453
f 456/456/456 454/454/454 455/455/455
f 457/457/457 458/458/458 459/459/459
f 459/459/459 460/460/460 457/457/457
f 459/459/459 461/461/461 460/460/460
f 462/462/462 463/463/463 464/464/464
f 463/463/463 465/465/465 464/464/464
f 465/465/465 466/466/466 464/464/464
f 467/467/467 468/468/468 469/469/469
f 469/469/469 470/470/470 467/467/467
f 470/470/470 469/469/469 471/471/471
f 471/471/471 472/472/472 470/470/470
f 473/473/473 472/472/472 471/471/471
f 471/471/471 474/474/474 473/473/473
f 475/475/475 476/476/476 477/477/477
f 477/477/477 478/478/478 475/475/475
f 478/478/478 477/477/477 479/479/479
f 479/479/479 480/480/480 478/478/478
f 481/481/481 482/482/482 483/483/483
f 483/483/483 484/484/484 481/481/481
f 484/484/484 483/483/483 485/485/485
f 485/485/485 486/486/486 484/484/484
f 486/486/486 485/485/485 487/487/487
f 486/486/486 488/488/488 489/489/489
f 490/490/490 486/486/486 489/489/489
f 489/489/489 491/491/491 490/490/490
f 492/492/492 493/493/493 490/490/490
f 490/490/490 494/494/494 492/492/492
f 495/495/495 496/496/496 497/497/497
f 498/498/498 495/495/495 497/497/497
f 498/498/498 497/497/497 499/499/499
f 498/498/498 499/499/499 500/500/500
f 501/501/501 498/498/498 500/500/500
f 501/501/501 500/500/500 502/502/502
f 503/503/503 498/498/498 501/501/501
f 501/501/501 504/504/504 503/503/503
f 501/501/501 502/502/502 505/505/505
f 501/501/501 505/505/505 506/506/506
f 505/505/505 507/507/507 506/506/506
f 508/508/508 509/509/509 510/510/510
f 511/511/511 508/508/508 510/510/510
f 512/512/512 511/511/511 510/510/510
f 512/512/512 513/513/513 511/511/511
f 513/513/513 514/514/514 511/511/511
f 515/515/515 511/511/511 514/514/514
f 514/514/514 516/516/516 515/515/515
f 513/513/513 517/517/517 514/514/514
f 517/517/517 518/518/518 514/514/514
f 518/518/518 519/519/519 514/514/514
f 518/518/518 520/520/520 519/519/519
f 521/521/521 522/522/522 523/523/523
f 524/524/524 521/521/521 523/523/523
f 525/525/525 524/524/524 523/523/523
f 525/525/525 526/526/526 524/524/524
f 526/526/526 527/527/527 524/524/524
f 528/528/528 524/524/524 527/527/527
f 527/527/527 529/529/529 528/528/528
f 526/526/526 530/530/530 527/527/527
f 530/530/530 531/531/531 527/527/527
f 531/531/531 532/532/532 527/527/527
f 531/531/531 533/533/533 532/532/532
f 534/534/534 535/535/535 536/536/536
f 536/536/536 537/537/537 534/534/534
f 537/537/537 536/536/536 538/538/538
f 538/538/538 539/539/539 537/537/537
f 540/540/540 539/539/539 538/538/538
f 538/538/538 541/541/541 540/540/540
f 542/542/542 543/543/543 544/544/544
f 544/544/544 545/545/545 542/542/542
f 545/545/545 544/544/544 546/546/546
f 546/546/546 547/547/547 545/545/545
f 548/548/548 549/549/549 550/550/550
f 550/550/550 551/551/551 548/548/548
f 551/551/551 550/550/550 552/552/552
f 552/552/552 553/553/553 551/551/551
f 554/554/554 553/553/553 552/552/552
f 552/552/552 555/555/555 554/554/554
f 556/556/556 557/557/557 558/558/558
f 558/558/558 559/559/559 556/556/556
f 559/559/559 558/558/558 560/560/560
f 560/560/560 561/561/561 559/559/559
f 562/562/562 563/563/563 564/564/564
f 564/564/564 565/565/565 562/562/562
f 565/565/565 564/564/564 566/566/566
f 566/566/566 567/567/567 565/565/565
f 568/568/568 567/567/567 566/566/566
f 566/566/566 569/569/569 568/568/568
f 570/570/570 571/571/571 572/572/572
f 572/572/572 573/573/573 570/570/570
f 573/573/573 572/572/572 574/574/574
f 574/574/574 575/575/575 573/573/573
f 576/576/576 575/575/575 574/574/574
f 574/574/574 577/577/577 576/576/576
f 578/578/578 579/579/579 580/580/580
f 580/580/580 581/581/581 578/578/578
f 581/581/581 580/580/580 582/582/582
f 582/582/582 583/583/583 581/581/581
f 583/583/583 582/582/582 584/584/584
f 584/584/584 585/585/585 583/583/583
f 586/586/586 585/585/585 584/584/584
f 584/584/584 587/587/587 586/586/586
f 587/587/587 588/588/588 586/586/586
f 589/589/589 590/590/590 591/591/591
f 590/590/590 592/592/592 591/591/591
f 592/592/592 593/593/593 591/591/591
f 594/594/594 595/595/595 596/596/596
f 596/596/596 597/597/597 594/594/594
f 597/597/597 596/596/596 598/598/598
f 598/598/598 599/599/599 597/597/597
f 599/599/599 598/598/598 600/600/600
f 600/600/600 601/601/601 599/599/599
f 602/602/602 601/601/601 600/600/600
f 600/600/600 603/603/603 602/602/602
f 602/602/602 603/603/603 604/604/604
f 604/604/604 605/605/605 602/602/602
f 606/606/606 607/607/607 608/608/608
f 607/607/607 609/609/609 608/608/608
f 609/609/609 610/610/610 608/608/608
f 611/611/611 612/612/612 613/613/613
f 612/612/612 614/614/614 613/613/613
f 614/614/614 615/615/615 613/613/613
f 616/616/616 617/617/617 618/618/618
f 618/618/618 619/619/619 616/616/616
f 619/619/619 618/618/618 620/620/620
f 620/620/620 621/621/621 619/619/619
f 621/621/621 620/620/620 622/622/622
f 622/622/622 623/623/623 621/621/621
f 623/623/623 622/622/622 624/624/624
f 624/624/624 625/625/625 623/623/623
f 625/625/625 624/624/624 626/626/626
f 626/626/626 627/627/627 625/625/625
f 628/628/628 629/629/629 630/630/630
f 629/629/629 631/631/631 630/630/630
f 631/631/631 632/632/632 630/630/630
f 633/633/633 634/634/634 635/635/635
f 635/635/635 636/636/636 633/633/633
f 636/636/636 635/635/635 637/637/637
f 637/637/637 638/638/638 636/636/636
f 638/638/638 637/637/637 639/639/639
f 639/639/639 640/640/640 638/638/638
f 641/641/641 640/640/640 639/639/639
f 639/639/639 642/642/642 641/641/641
f 641/641/641 642/642/642 643/643/643
f 643/643/643 644/644/644 641/641/641
f 645/645/645 646/646/646 647/647/647
f 646/646/646 648/648/648 647/647/647
f 648/648/648 649/649/649 647/647/647
f 650/650/650 651/651/651 652/652/652
f 652/652/652 653/653/653 650/650/650
f 653/653/653 652/652/652 654/654/654
f 654/654/654 655/655/655 653/653/653
f 655/655/655 654/654/654 656/656/656
f 656/656/656 657/657/657 655/655/655
f 658/658/658 657/657/657 656/656/656
f 656/656/656 659/659/659 658/658/658
f 658/658/658 659/659/659 660/660/660
f 660/660/660 661/661/661 658/658/658
f 662/662/662 663/663/663 664/664/664
f 664/664/664 665/665/665 662/662/662
f 665/665/665 664/664/664 666/666/666
f 666/666/666 667/667/667 665/665/665
f 667/667/667 666/666/666 668/668/668
f 668/668/668 669/669/669 667/667/667
f 670/670/670 671/671/671 672/672/672
f 672/672/672 673/673/673 670/670/670
f 674/674/674 670/670/670 673/673/673
f 673/673/673 675/675/675 674/674/674
f 676/676/676 674/674/674 675/675/675
f 675/675/675 677/677/677 676/676/676
f 678/678/678 676/676/676 677/677/677
f 677/677/677 679/679/679 678/678/678
f 680/680/680 678/678/678 679/679/679
f 679/679/679 681/681/681 680/680/680
f 682/682/682 683/683/683 684/684/684
f 684/684/684 685/685/685 682/682/682
f 686/686/686 682/682/682 685/685/685
f 685/685/685 687/687/687 686/686/686
f 688/688/688 689/689/689 690/690/690
f 690/690/690 691/691/691 688/688/688
f 692/692/692 688/688/688 691/691/691
f 691/691/691 693/693/693 692/692/692
f 692/692/692 693/693/693 694/694/694
f 694/694/694 695/695/695 692/692/692
f 696/696/696 697/697/697 698/698/698
f 698/698/698 699/699/699 696/696/696
f 700/700/700 696/696/696 699/699/699
f 699/699/699 701/701/701 700/700/700
f 700/700/700 701/701/701 702/702/702
f 702/702/702 703/703/703 700/700/700
f 704/704/704 705/705/705 706/706/706
f 706/706/706 707/707/707 704/704/704
f 708/708/708 704/704/704 707/707/707
f 707/707/707 709/709/709 708/708/708
f 708/708/708 709/709/709 710/710/710
f 710/710/710 711/711/711 708/708/708
f 712/712/712 713/713/713 714/714/714
f 714/714/714 715/715/715 712/712/712
f 716/716/716 712/712/712 715/715/715
f 715/715/715 717/717/717 716/716/716
f 718/718/718 719/719/719 720/720/720
f 720/720/720 721/721/721 718/718/718
f 722/722/722 718/718/718 721/721/721
f 721/721/721 723/723/723 722/722/722
f 722/722/722 723/723/723 724/724/724
f 724/724/724 725/725/725 722/722/722
f 726/726/726 727/727/727 728/728/728
f 728/728/728 729/729/729 726/726/726
f 730/730/730 726/726/726 729/729/729
f 729/729/729 731/731/731 730/730/730
f 732/732/732 730/730/730 731/731/731
f 731/731/731 733/733/733 732/732/732
f 732/732/732 733/733/733 734/734/734
f 734/734/734 735/735/735 732/732/732
f 736/736/736 735/735/735 734/734/734
f 734/734/734 737/737/737 736/736/736
f 738/738/738 739/739/739 740/740/740
f 741/741/741 739/739/739 738/738/738
f 741/741/741 738/738/738 742/742/742
f 741/741/741 742/742/742 743/743/743
f 742/742/742 744/744/744 743/743/743
f 745/745/745 744/744/744 742/742/742
f 746/746/746 747/747/747 748/748/748
f 748/748/748 749/749/749 746/746/746
f 746/746/746 749/749/749 750/750/750
f 750/750/750 751/751/751 746/746/746
f 752/752/752 753/753/753 754/754/754
f 754/754/754 755/755/755 752/752/752
f 752/752/752 755/755/755 756/756/756
f 756/756/756 757/757/757 752/752/752
f 758/758/758 759/759/759 760/760/760
f 760/760/760 761/761/761 758/758/758
f 762/762/762 761/761/761 760/760/760
f 760/760/760 763/763/763 762/762/762
f 764/764/764 765/765/765 766/766/766
f 766/766/766 767/767/767 764/764/764
f 768/768/768 767/767/767 766/766/766
f 766/766/766 769/769/769 768/768/768
f 770/770/770 771/771/771 772/772/772
f 772/772/772 773/773/773 770/770/770
f 770/770/770 773/773/773 774/774/774
f 774/774/774 775/775/775 770/770/770
f 776/776/776 777/777/777 778/778/778
f 779/779/779 776/776/776 778/778/778
f 780/780/780 779/779/779 778/778/778
f 781/781/781 780/780/780 778/778/778
f 780/780/780 782/782/782 779/779/779
f 783/783/783 784/784/784 785/785/785
f 785/785/785 786/786/786 783/783/783
f 787/787/787 786/786/786 785/785/785
f 788/788/788 786/786/786 787/787/787
f 789/789/789 786/786/786 788/788/788
f 783/783/783 786/786/786 790/790/790
f 786/786/786 789/789/789 791/791/791
f 790/790/790 786/786/786 791/791/791
f 791/791/791 792/792/792 790/790/790
