v -0.306923 0.279038 0.14346499999999998
v -0.354775 -0.288847 0.13776500000000003
v -0.337975 -0.289729 -0.012156999999999982
v -0.337975 -0.289729 -0.012156999999999982
v -0.308962 0.28101 -0.008872000000000017
v -0.306923 0.279038 0.14346499999999998
v -0.287167 0.29756 0.14327899999999996
v -0.288748 0.271144 -0.008274000000000017
v 0.285391 0.291135 -0.012055000000000017
v 0.285391 0.291135 -0.012055000000000017
v 0.284864 0.281538 0.13759999999999997
v -0.287167 0.29756 0.14327899999999996
v 0.318717 0.263679 0.14346499999999998
v 0.310036 0.265445 -0.008872000000000015
v 0.301413 -0.280583 -0.012521999999999983
v 0.301413 -0.280583 -0.012521999999999983
v 0.327946 -0.297556 0.14398900000000003
v 0.318717 0.263679 0.14346499999999998
v -0.313151 0.279038 0.14346499999999998
v -0.315189 0.28101 -0.008872000000000017
v -0.344202 -0.289729 -0.012156999999999982
v -0.344202 -0.289729 -0.012156999999999982
v -0.361002 -0.288847 0.13776500000000003
v -0.313151 0.279038 0.14346499999999998
v -0.323963 -0.30691 0.33931
v -0.318452 -0.287347 0.348376
v -0.354533 -0.46199399999999996 0.801912
v -0.354533 -0.46199399999999996 0.801912
v -0.360044 -0.4828029999999999 0.795843
v -0.323963 -0.30691 0.33931
v -0.375181 -0.351656 0.21189600000000003
v -0.413366 -0.243207 0.20850300000000002
v -0.424192 -0.254979 -0.013252999999999984
v -0.424192 -0.254979 -0.013252999999999984
v -0.373659 -0.352419 -0.013252999999999978
v -0.375181 -0.351656 0.21189600000000003
v -0.287167 0.304485 0.14327899999999996
v 0.284864 0.288463 0.13759999999999997
v 0.285391 0.29806 -0.012055000000000019
v 0.285391 0.29806 -0.012055000000000019
v -0.288748 0.299067 -0.00827400000000002
v -0.287167 0.304485 0.14327899999999996
v 0.32511 0.263679 0.14346499999999998
v 0.33434 -0.297556 0.14398900000000003
v 0.318022 -0.280583 -0.012521999999999983
v 0.318022 -0.280583 -0.012521999999999983
v 0.316429 0.265445 -0.008872000000000015
v 0.32511 0.263679 0.14346499999999998
v 0.319315 -0.301206 0.342329
v 0.378387 -0.49355399999999994 0.797743
v 0.386745 -0.47282799999999997 0.803377
v 0.386745 -0.47282799999999997 0.803377
v 0.327486 -0.281631 0.350771
v 0.319315 -0.301206 0.342329
v 0.393255 -0.352125 0.20874200000000004
v 0.391846 -0.352888 -0.013252999999999978
v 0.415156 -0.257937 -0.013252999999999984
v 0.415156 -0.257937 -0.013252999999999984
v 0.425407 -0.257937 0.20410000000000003
v 0.393255 -0.352125 0.20874200000000004
v 0.268736 -0.977564 0.23577800000000004
v 0.277526 -0.982418 0.00137400000000006
v 0.279373 -0.713956 0.0013740000000000438
v 0.279373 -0.713956 0.0013740000000000438
v 0.270707 -0.719579 0.23577800000000004
v 0.268736 -0.977564 0.23577800000000004
v 0.270707 -0.719579 0.23577800000000004
v 0.279373 -0.713956 0.0013740000000000438
v -0.277484 -0.725857 0.0013740000000000445
v -0.277484 -0.725857 0.0013740000000000445
v -0.266712 -0.737554 0.23577800000000004
v 0.270707 -0.719579 0.23577800000000004
v -0.266712 -0.737554 0.23577800000000004
v -0.277484 -0.725857 0.0013740000000000445
v -0.277348 -1.001162 0.0013740000000000614
v -0.277348 -1.001162 0.0013740000000000614
v -0.268483 -0.996032 0.23577800000000004
v -0.266712 -0.737554 0.23577800000000004
v -0.268483 -0.996032 0.23577800000000004
v -0.277348 -1.001162 0.0013740000000000614
v 0.277526 -0.982418 0.00137400000000006
v 0.277526 -0.982418 0.00137400000000006
v 0.268736 -0.977564 0.23577800000000004
v -0.268483 -0.996032 0.23577800000000004
v -0.278358 0.271428 0.22111699999999998
v -0.350373 0.277157 0.22010699999999997
v -0.344714 0.252178 -0.013253000000000015
v -0.344714 0.252178 -0.013253000000000015
v -0.290206 0.244031 -0.013253000000000015
v -0.350373 0.277157 0.22010699999999997
v -0.343045 0.351862 0.20767399999999997
v -0.337387 0.327971 -0.01325300000000002
v -0.337387 0.327971 -0.01325300000000002
v -0.344714 0.252178 -0.013253000000000015
v -0.343045 0.351862 0.20767399999999997
v -0.270487 0.338769 0.20924299999999998
v -0.265289 0.306882 -0.013253000000000018
v -0.265289 0.306882 -0.013253000000000018
v -0.337387 0.327971 -0.01325300000000002
v -0.354155 -0.41318399999999994 0.871584
v -0.346757 -0.42004299999999994 0.849747
v -0.301852 0.525711 0.6901
v -0.3114 0.528374 0.71113
v -0.354155 -0.41318399999999994 0.871584
v -0.346757 -0.42004299999999994 0.849747
v -0.372996 -0.4158069999999999 0.853414
v -0.325474 0.528594 0.694758
v -0.325474 0.528594 0.694758
v -0.301852 0.525711 0.6901
v -0.300633 0.297637 0.16243999999999997
v -0.314474 0.340238 0.15991699999999998
v -0.34862 0.42577500000000007 0.82779
v -0.34862 0.42577500000000007 0.82779
v -0.340879 0.4017530000000001 0.829212
v -0.342355 0.311403 0.16162499999999996
v -0.300633 0.297637 0.16243999999999997
v -0.340879 0.4017530000000001 0.829212
v -0.364093 0.4097720000000001 0.828737
v -0.342355 0.311403 0.16162499999999996
v -0.364138 -0.329307 0.20345700000000003
v -0.341007 -0.25101 0.20557900000000004
v -0.362644 -0.28443399999999996 0.963123
v -0.375979 -0.3351759999999999 0.963123
v -0.364138 -0.329307 0.20345700000000003
v -0.407829 -0.276118 0.19930900000000001
v -0.364138 -0.329307 0.20345700000000003
v -0.375979 -0.3351759999999999 0.963123
v -0.401061 -0.29966899999999996 0.963123
v -0.407829 -0.276118 0.19930900000000001
v -0.413366 -0.243207 0.20850300000000002
v -0.346657 -0.211635 0.214344
v -0.335337 -0.211259 -0.013252999999999987
v -0.335337 -0.211259 -0.013252999999999987
v -0.424192 -0.254979 -0.013252999999999984
v -0.361023 0.502597 0.735916
v -0.353359 0.48357800000000006 0.758825
v -0.410535 -0.402158 0.297312
v -0.418171 -0.385663 0.270907
v -0.361023 0.502597 0.735916
v 0.279955 0.264823 0.21316299999999996
v 0.270651 0.25916 -0.013253000000000015
v 0.359396 0.276368 -0.013253000000000017
v 0.359396 0.276368 -0.013253000000000017
v 0.359395 0.276368 0.21316299999999996
v -0.424192 -0.32769999999999994 0.820924
v 0.469176 -0.34665499999999994 0.826803
v 0.470396 -0.36653099999999994 0.802291
v -0.421833 -0.3465869999999999 0.796591
v -0.424192 -0.32769999999999994 0.820924
v -0.421833 -0.3465869999999999 0.796591
v 0.470396 -0.36653099999999994 0.802291
v 0.470129 -0.37109899999999996 0.824387
v 0.470129 -0.37109899999999996 0.824387
v -0.41975 -0.35067699999999996 0.818814
v 0.449785 0.38998000000000005 0.715684
v -0.427285 0.42980100000000004 0.709947
v -0.431068 0.4194030000000001 0.675384
v 0.449519 0.3793520000000001 0.679502
v 0.449785 0.38998000000000005 0.715684
v 0.449519 0.3793520000000001 0.679502
v -0.431068 0.4194030000000001 0.675384
v -0.430685 0.44583200000000006 0.694327
v -0.430685 0.44583200000000006 0.694327
v 0.448699 0.40659500000000004 0.698932
v 0.371626 -0.4352809999999999 0.84793
v 0.350527 -0.43568599999999996 0.857049
v 0.333844 0.4814030000000001 0.698287
v 0.347918 0.4816230000000001 0.681914
v 0.371626 -0.4352809999999999 0.84793
v 0.363244 -0.42996899999999993 0.871584
v 0.357466 0.48428600000000005 0.702944
v 0.333844 0.4814030000000001 0.698287
v 0.350527 -0.43568599999999996 0.857049
v 0.363244 -0.42996899999999993 0.871584
v 0.30238 0.281118 0.16243999999999997
v 0.358277 0.35755500000000007 0.829212
v 0.366018 0.38157700000000006 0.82779
v 0.366018 0.38157700000000006 0.82779
v 0.31622 0.32372 0.15991699999999998
v 0.344102 0.294885 0.16162499999999996
v 0.381492 0.36557500000000004 0.828737
v 0.358277 0.35755500000000007 0.829212
v 0.30238 0.281118 0.16243999999999997
v 0.344102 0.294885 0.16162499999999996
v 0.365198 -0.329307 0.20177800000000004
v 0.400712 -0.35196099999999997 0.963123
v 0.388808 -0.3149719999999999 0.963123
v 0.343746 -0.264764 0.20600400000000002
v 0.365198 -0.329307 0.20177800000000004
v 0.407146 -0.286947 0.19351300000000002
v 0.424536 -0.32728299999999994 0.963123
v 0.400712 -0.35196099999999997 0.963123
v 0.365198 -0.329307 0.20177800000000004
v 0.407146 -0.286947 0.19351300000000002
v 0.387927 0.45650900000000005 0.739676
v 0.425239 -0.38748 0.274574
v 0.418924 -0.400526 0.303356
v 0.382145 0.44090300000000004 0.765113
v 0.387927 0.45650900000000005 0.739676
v 0.402014 0.44918300000000005 0.750584
v 0.439626 -0.392998 0.287707
v 0.425239 -0.38748 0.274574
v 0.387927 0.45650900000000005 0.739676
v 0.402014 0.44918300000000005 0.750584
v 0.298924 0.339196 -0.01325300000000002
v 0.29942 0.33882 0.21316299999999996
v 0.352119 0.331243 0.21316299999999996
v 0.352119 0.331244 -0.01325300000000002
v 0.298924 0.339196 -0.01325300000000002
v 0.359395 0.276368 0.21316299999999996
v 0.359396 0.276368 -0.013253000000000017
v -0.278358 0.271428 0.22111699999999998
v -0.343045 0.351862 0.20767399999999997
v -0.350373 0.277157 0.22010699999999997
v -0.270487 0.338769 0.20924299999999998
v -0.375181 -0.351656 0.21189600000000003
v -0.346657 -0.211635 0.214344
v -0.413366 -0.243207 0.20850300000000002
v -0.295712 -0.297015 0.21789900000000004
v 0.359395 0.276368 0.21316299999999996
v 0.352119 0.331243 0.21316299999999996
v 0.29942 0.33882 0.21316299999999996
v 0.279955 0.264823 0.21316299999999996
v 0.393255 -0.352125 0.20874200000000004
v 0.425407 -0.257937 0.20410000000000003
v 0.348633 -0.243099 0.21432500000000002
v 0.312678 -0.297015 0.22140900000000002
v -0.353921 -0.33182399999999995 0.82189
v -0.325811 0.4213430000000001 0.700433
v -0.31481 0.29684 0.18134099999999997
v -0.35327 -0.262295 0.21805100000000002
v -0.296056 0.27540700000000007 0.632186
v -0.355716 -0.29276899999999995 0.817072
v -0.342196 -0.26283 0.21924100000000002
v -0.280029 0.267778 0.18179899999999996
v -0.290206 0.244031 -0.013253000000000015
v -0.265289 0.306882 -0.013253000000000018
v -0.270487 0.338769 0.20924299999999998
v -0.278358 0.271428 0.22111699999999998
v -0.347786 -0.30750799999999995 0.78277
v -0.33881 -0.31179599999999996 0.795092
v -0.339088 -0.48875899999999994 0.734498
v -0.348385 -0.48647099999999993 0.721051
v -0.33881 -0.31179599999999996 0.795092
v -0.349106 -0.31479499999999994 0.805486
v -0.349681 -0.48971499999999996 0.745956
v -0.339088 -0.48875899999999994 0.734498
v -0.358082 -0.31050799999999995 0.793164
v -0.347786 -0.30750799999999995 0.78277
v -0.348385 -0.48647099999999993 0.721051
v -0.358977 -0.48742699999999994 0.732509
v -0.349106 -0.31479499999999994 0.805486
v -0.358082 -0.31050799999999995 0.793164
v -0.358977 -0.48742699999999994 0.732509
v -0.349681 -0.48971499999999996 0.745956
v -0.372996 -0.4158069999999999 0.853414
v -0.354155 -0.41318399999999994 0.871584
v -0.3114 0.528374 0.71113
v -0.325474 0.528594 0.694758
v -0.314474 0.340238 0.15991699999999998
v -0.342355 0.311403 0.16162499999999996
v -0.364093 0.4097720000000001 0.828737
v -0.34862 0.42577500000000007 0.82779
v -0.33949 -0.293605 0.344399
v -0.323963 -0.30691 0.33931
v -0.360044 -0.4828029999999999 0.795843
v -0.375464 -0.46893899999999994 0.799092
v -0.318452 -0.287347 0.348376
v -0.33949 -0.293605 0.344399
v -0.375464 -0.46893899999999994 0.799092
v -0.354533 -0.46199399999999996 0.801912
v -0.341007 -0.25101 0.20557900000000004
v -0.407829 -0.276118 0.19930900000000001
v -0.401061 -0.29966899999999996 0.963123
v -0.362644 -0.28443399999999996 0.963123
v -0.346657 -0.211635 0.214344
v -0.295712 -0.297015 0.21789900000000004
v -0.294009 -0.306816 -0.01325299999999998
v -0.335337 -0.211259 -0.013252999999999987
v -0.373659 -0.352419 -0.013252999999999978
v -0.294009 -0.306816 -0.01325299999999998
v -0.295712 -0.297015 0.21789900000000004
v -0.375181 -0.351656 0.21189600000000003
v 0.29942 0.33882 0.21316299999999996
v 0.298924 0.339196 -0.01325300000000002
v 0.270651 0.25916 -0.013253000000000015
v 0.279955 0.264823 0.21316299999999996
v 0.260601 0.25126 0.18179899999999996
v 0.255394 0.2569580000000001 0.641998
v -0.296056 0.27540700000000007 0.632186
v -0.280029 0.267778 0.18179899999999996
v 0.370144 -0.30955399999999994 0.822105
v 0.255394 0.2569580000000001 0.641998
v 0.260601 0.25126 0.18179899999999996
v 0.334422 -0.26283 0.22163800000000003
v -0.31481 0.29684 0.18134099999999997
v -0.325811 0.4213430000000001 0.700433
v 0.349638 0.3811590000000001 0.694001
v 0.296361 0.280321 0.18134099999999997
v 0.351258 -0.34860899999999995 0.82147
v 0.345362 -0.262294 0.21937300000000004
v 0.296361 0.280321 0.18134099999999997
v 0.349638 0.3811590000000001 0.694001
v 0.372519 -0.32429299999999994 0.78277
v 0.373118 -0.503256 0.721051
v 0.363821 -0.505544 0.734498
v 0.363543 -0.32858099999999996 0.795092
v 0.363543 -0.32858099999999996 0.795092
v 0.363821 -0.505544 0.734498
v 0.374414 -0.5065 0.745956
v 0.373839 -0.33158099999999996 0.805486
v 0.382815 -0.32729299999999995 0.793164
v 0.383711 -0.504212 0.732509
v 0.373118 -0.503256 0.721051
v 0.372519 -0.32429299999999994 0.78277
v 0.373839 -0.33158099999999996 0.805486
v 0.374414 -0.5065 0.745956
v 0.383711 -0.504212 0.732509
v 0.382815 -0.32729299999999995 0.793164
v -0.41975 -0.35067699999999996 0.818814
v 0.470129 -0.37109899999999996 0.824387
v 0.469176 -0.34665499999999994 0.826803
v -0.424192 -0.32769999999999994 0.820924
v 0.448699 0.40659500000000004 0.698932
v -0.430685 0.44583200000000006 0.694327
v -0.427285 0.42980100000000004 0.709947
v 0.449785 0.38998000000000005 0.715684
v 0.357466 0.48428600000000005 0.702944
v 0.363244 -0.42996899999999993 0.871584
v 0.371626 -0.4352809999999999 0.84793
v 0.347918 0.4816230000000001 0.681914
v 0.31622 0.32372 0.15991699999999998
v 0.366018 0.38157700000000006 0.82779
v 0.381492 0.36557500000000004 0.828737
v 0.344102 0.294885 0.16162499999999996
v -0.343762 -0.4810189999999999 0.739785
v 0.365834 -0.49780399999999997 0.744033
v 0.369222 -0.34907299999999997 0.794011
v -0.343762 -0.33306699999999995 0.789004
v 0.349638 0.3811590000000001 0.694001
v -0.325811 0.4213430000000001 0.700433
v -0.353921 -0.33182399999999995 0.82189
v 0.351258 -0.34860899999999995 0.82147
v 0.341133 -0.294967 0.343665
v 0.400127 -0.4870709999999999 0.798549
v 0.378387 -0.49355399999999994 0.797743
v 0.319315 -0.301206 0.342329
v 0.327486 -0.281631 0.350771
v 0.386745 -0.47282799999999997 0.803377
v 0.400127 -0.4870709999999999 0.798549
v 0.341133 -0.294967 0.343665
v 0.343746 -0.264764 0.20600400000000002
v 0.388808 -0.3149719999999999 0.963123
v 0.424536 -0.32728299999999994 0.963123
v 0.407146 -0.286947 0.19351300000000002
v 0.312678 -0.297015 0.22140900000000002
v 0.297666 -0.293982 -0.013252999999999982
v 0.391846 -0.352888 -0.013252999999999978
v 0.393255 -0.352125 0.20874200000000004
v 0.382145 0.44090300000000004 0.765113
v 0.418924 -0.400526 0.303356
v 0.439626 -0.392998 0.287707
v 0.402014 0.44918300000000005 0.750584
v -0.313802 0.280197 0.05909599999999999
v -0.346864 -0.500911 0.05909600000000003
v 0.307221 -0.501837 0.05909600000000003
v 0.314277 0.288859 0.05909599999999998
v 0.268736 -0.977564 0.23577800000000004
v 0.270707 -0.719579 0.23577800000000004
v -0.266712 -0.737554 0.23577800000000004
v -0.268483 -0.996032 0.23577800000000004
v 0.425407 -0.257937 0.20410000000000003
v 0.415156 -0.257937 -0.013252999999999984
v 0.317795 -0.257967 -0.012521999999999985
v 0.348633 -0.243099 0.21432500000000002
v 0.297666 -0.293982 -0.013252999999999982
v 0.312678 -0.297015 0.22140900000000002
v -0.368171 0.49362300000000003 0.7507
v -0.361023 0.502597 0.735916
v -0.418171 -0.385663 0.270907
v -0.42588 -0.393135 0.288538
v -0.353359 0.48357800000000006 0.758825
v -0.410535 -0.402158 0.297312
vt 0.404587 0.022737
vt 0.860511 0.025746
vt 0.860971 0.104943
vt 0.860971 0.104943
vt 0.403233 0.103206
vt 0.404587 0.022737
vt 0.404587 0.022737
vt 0.403233 0.103206
vt 0.860971 0.104943
vt 0.860971 0.104943
vt 0.860511 0.025746
vt 0.404587 0.022737
vt 0.404587 0.022737
vt 0.403233 0.103206
vt 0.860971 0.104943
vt 0.860971 0.104943
vt 0.860511 0.025746
vt 0.404587 0.022737
vt 0.404587 0.022737
vt 0.403233 0.103206
vt 0.860971 0.104943
vt 0.860971 0.104943
vt 0.860511 0.025746
vt 0.404587 0.022737
vt 0.829801 0.114485
vt 0.815866 0.114212
vt 0.816202 0.522614
vt 0.816202 0.522614
vt 0.829571 0.522933
vt 0.829801 0.114485
vt 0.594639 0.111096
vt 0.532417 0.110878
vt 0.532146 0.239769
vt 0.532146 0.239769
vt 0.587770 0.240022
vt 0.594639 0.111096
vt 0.404587 0.022737
vt 0.860511 0.025746
vt 0.860971 0.104943
vt 0.860971 0.104943
vt 0.403233 0.103206
vt 0.404587 0.022737
vt 0.404587 0.022737
vt 0.860511 0.025746
vt 0.860971 0.104943
vt 0.860971 0.104943
vt 0.403233 0.103206
vt 0.404587 0.022737
vt 0.825152 0.113860
vt 0.825205 0.522286
vt 0.811566 0.523589
vt 0.811566 0.523589
vt 0.811230 0.115187
vt 0.825152 0.113860
vt 0.587838 0.111067
vt 0.580964 0.239999
vt 0.518533 0.239712
vt 0.518533 0.239712
vt 0.518804 0.110821
vt 0.587838 0.111067
vt 0.825077 0.664905
vt 0.826051 0.572291
vt 0.919333 0.573182
vt 0.919333 0.573182
vt 0.919725 0.664703
vt 0.825077 0.664905
vt 0.919725 0.664703
vt 0.990264 0.664623
vt 0.989885 0.906928
vt 0.989885 0.906928
vt 0.919196 0.906916
vt 0.919725 0.664703
vt 0.919196 0.906916
vt 0.919871 0.992483
vt 0.824814 0.992239
vt 0.824814 0.992239
vt 0.824251 0.906957
vt 0.919196 0.906916
vt 0.824251 0.906957
vt 0.751157 0.906975
vt 0.751329 0.664857
vt 0.751329 0.664857
vt 0.825077 0.664905
vt 0.824251 0.906957
vt 0.629857 0.111161
vt 0.573234 0.111049
vt 0.572984 0.239919
vt 0.572984 0.239919
vt 0.616824 0.240117
vt 0.573234 0.111049
vt 0.511303 0.110789
vt 0.511032 0.239681
vt 0.511032 0.239681
vt 0.572984 0.239919
vt 0.511303 0.110789
vt 0.451521 0.110349
vt 0.446464 0.239254
vt 0.446464 0.239254
vt 0.511032 0.239681
vt 0.692328 0.120883
vt 0.675638 0.120552
vt 0.680128 0.627278
vt 0.705498 0.626150
vt 0.692328 0.120883
vt 0.768523 0.117580
vt 0.713805 0.118645
vt 0.728321 0.626090
vt 0.728321 0.626090
vt 0.765667 0.625735
vt 0.840781 0.561654
vt 0.887230 0.565009
vt 0.902256 0.040213
vt 0.902256 0.040213
vt 0.890706 0.039337
vt 0.920662 0.566942
vt 0.973043 0.564628
vt 0.951781 0.040119
vt 0.918557 0.041561
vt 0.920662 0.566942
vt 0.953302 0.565511
vt 0.992784 0.563744
vt 0.963594 0.039461
vt 0.939968 0.040777
vt 0.953302 0.565511
vt 0.920662 0.566942
vt 0.953302 0.565511
vt 0.939968 0.040777
vt 0.918557 0.041561
vt 0.920662 0.566942
vt 0.532417 0.110878
vt 0.475882 0.110640
vt 0.475346 0.239498
vt 0.475346 0.239498
vt 0.532146 0.239769
vt 0.752193 0.626392
vt 0.779142 0.625078
vt 0.791696 0.117797
vt 0.768523 0.117580
vt 0.752193 0.626392
vt 0.629857 0.111161
vt 0.616824 0.240117
vt 0.559371 0.239873
vt 0.559371 0.239873
vt 0.559632 0.110992
vt 0.746994 0.625913
vt 0.721691 0.118324
vt 0.768523 0.117580
vt 0.779142 0.625078
vt 0.746994 0.625913
vt 0.680128 0.627278
vt 0.658948 0.120221
vt 0.692328 0.120883
vt 0.692328 0.120883
vt 0.705498 0.626150
vt 0.692328 0.120883
vt 0.705498 0.626150
vt 0.680128 0.627278
vt 0.658948 0.120221
vt 0.692328 0.120883
vt 0.768523 0.117580
vt 0.765667 0.625735
vt 0.746994 0.625913
vt 0.746994 0.625913
vt 0.713805 0.118645
vt 0.721691 0.118324
vt 0.768523 0.117580
vt 0.779142 0.625078
vt 0.765667 0.625735
vt 0.721691 0.118324
vt 0.692328 0.120883
vt 0.716910 0.626120
vt 0.680128 0.627278
vt 0.658948 0.120221
vt 0.692328 0.120883
vt 0.840781 0.561654
vt 0.879157 0.038460
vt 0.890706 0.039337
vt 0.890706 0.039337
vt 0.887230 0.565009
vt 0.920662 0.566942
vt 0.918557 0.041561
vt 0.951781 0.040119
vt 0.973043 0.564628
vt 0.920662 0.566942
vt 0.953302 0.565511
vt 0.939968 0.040777
vt 0.963594 0.039461
vt 0.992784 0.563744
vt 0.953302 0.565511
vt 0.920662 0.566942
vt 0.918557 0.041561
vt 0.939968 0.040777
vt 0.953302 0.565511
vt 0.920662 0.566942
vt 0.765667 0.625735
vt 0.721691 0.118324
vt 0.768523 0.117580
vt 0.779142 0.625078
vt 0.765667 0.625735
vt 0.746994 0.625913
vt 0.713805 0.118645
vt 0.721691 0.118324
vt 0.765667 0.625735
vt 0.746994 0.625913
vt 0.475346 0.239498
vt 0.475882 0.110640
vt 0.518804 0.110821
vt 0.518533 0.239712
vt 0.475346 0.239498
vt 0.559632 0.110992
vt 0.559371 0.239873
vt 0.993183 0.932921
vt 0.932569 0.969307
vt 0.980353 0.987902
vt 0.946882 0.919356
vt 0.988332 0.967347
vt 0.930990 0.938363
vt 0.941533 0.987514
vt 0.972722 0.916068
vt 0.966820 0.991519
vt 0.929780 0.979892
vt 0.930990 0.938363
vt 0.984517 0.931430
vt 0.981565 0.969156
vt 0.929780 0.979892
vt 0.930990 0.938363
vt 0.972722 0.916068
vt 0.738050 0.646623
vt 0.380142 0.646712
vt 0.380311 0.988874
vt 0.738533 0.989197
vt 0.201814 0.007250
vt 0.390604 0.007198
vt 0.390859 0.208767
vt 0.201904 0.208577
vt 0.405250 0.240375
vt 0.446464 0.239254
vt 0.451521 0.110349
vt 0.407883 0.110588
vt 0.752193 0.626392
vt 0.779142 0.625078
vt 0.791696 0.117797
vt 0.768523 0.117580
vt 0.680128 0.627278
vt 0.705498 0.626150
vt 0.692328 0.120883
vt 0.675638 0.120552
vt 0.728321 0.626090
vt 0.752193 0.626392
vt 0.768523 0.117580
vt 0.713805 0.118645
vt 0.705498 0.626150
vt 0.728321 0.626090
vt 0.713805 0.118645
vt 0.692328 0.120883
vt 0.713805 0.118645
vt 0.692328 0.120883
vt 0.705498 0.626150
vt 0.728321 0.626090
vt 0.887230 0.565009
vt 0.920662 0.566942
vt 0.918557 0.041561
vt 0.902256 0.040213
vt 0.839183 0.117909
vt 0.829801 0.114485
vt 0.829571 0.522933
vt 0.838414 0.526572
vt 0.815866 0.114212
vt 0.803252 0.119126
vt 0.803578 0.527684
vt 0.816202 0.522614
vt 0.864006 0.563331
vt 0.920662 0.566942
vt 0.918557 0.041561
vt 0.890706 0.039337
vt 0.475882 0.110640
vt 0.424675 0.110354
vt 0.418701 0.239739
vt 0.475346 0.239498
vt 0.587770 0.240022
vt 0.631093 0.240109
vt 0.643670 0.111179
vt 0.594639 0.111096
vt 0.475882 0.110640
vt 0.475346 0.239498
vt 0.418701 0.239739
vt 0.424675 0.110354
vt 0.005739 0.203589
vt 0.194280 0.203683
vt 0.194819 0.006485
vt 0.005659 0.006448
vt 0.390604 0.007198
vt 0.201814 0.007250
vt 0.201904 0.208577
vt 0.390810 0.209360
vt 0.653863 0.622978
vt 0.386954 0.622909
vt 0.387714 0.255196
vt 0.653750 0.255370
vt 0.738050 0.646623
vt 0.738533 0.989197
vt 0.380311 0.988874
vt 0.380142 0.646712
vt 0.765667 0.625735
vt 0.721691 0.118324
vt 0.768523 0.117580
vt 0.779142 0.625078
vt 0.680128 0.627278
vt 0.658948 0.120221
vt 0.692328 0.120883
vt 0.705498 0.626150
vt 0.746994 0.625913
vt 0.713805 0.118645
vt 0.721691 0.118324
vt 0.765667 0.625735
vt 0.705498 0.626150
vt 0.692328 0.120883
vt 0.713805 0.118645
vt 0.746994 0.625913
vt 0.705498 0.626150
vt 0.692328 0.120883
vt 0.721691 0.118324
vt 0.746994 0.625913
vt 0.713805 0.118645
vt 0.746994 0.625913
vt 0.705498 0.626150
vt 0.692328 0.120883
vt 0.716910 0.626120
vt 0.692328 0.120883
vt 0.721691 0.118324
vt 0.765667 0.625735
vt 0.887230 0.565009
vt 0.890706 0.039337
vt 0.918557 0.041561
vt 0.920662 0.566942
vt 0.371158 0.287439
vt 0.012175 0.289912
vt 0.009588 0.210990
vt 0.370659 0.214623
vt 0.362107 0.993722
vt 0.007869 0.994114
vt 0.013130 0.635652
vt 0.362371 0.635008
vt 0.839183 0.117909
vt 0.838414 0.526572
vt 0.825205 0.522286
vt 0.825152 0.113860
vt 0.811230 0.115187
vt 0.811566 0.523589
vt 0.803578 0.527684
vt 0.803252 0.119126
vt 0.864006 0.563331
vt 0.890706 0.039337
vt 0.918557 0.041561
vt 0.920662 0.566942
vt 0.643670 0.111179
vt 0.631093 0.240109
vt 0.580964 0.239999
vt 0.587838 0.111067
vt 0.692813 0.626714
vt 0.675638 0.120552
vt 0.713805 0.118645
vt 0.746994 0.625913
vt 0.022015 0.311298
vt 0.363888 0.309506
vt 0.363457 0.608501
vt 0.020326 0.609197
vt 0.825077 0.664905
vt 0.919725 0.664703
vt 0.919196 0.906916
vt 0.824251 0.906957
vt 0.518804 0.110821
vt 0.518533 0.239712
vt 0.475346 0.239498
vt 0.475882 0.110640
vt 0.418701 0.239739
vt 0.424675 0.110354
vt 0.728321 0.626090
vt 0.752193 0.626392
vt 0.768523 0.117580
vt 0.713805 0.118645
vt 0.692813 0.626714
vt 0.675638 0.120552
vn 0.990166 -0.084552 0.111455
vn 0.990166 -0.084552 0.111455
vn 0.990166 -0.084552 0.111455
vn 0.998617 -0.050683 -0.014017999999999996
vn 0.998617 -0.050683 -0.014017999999999996
vn 0.998617 -0.050683 -0.014017999999999996
vn 0.035409 -0.984592 0.17124300000000006
vn 0.035409 -0.984592 0.17124300000000006
vn 0.035409 -0.984592 0.17124300000000006
vn -0.028576 -0.997536 -0.06406799999999994
vn -0.028576 -0.997536 -0.06406799999999994
vn -0.028576 -0.997536 -0.06406799999999994
vn -0.998252 0.015383000000000004 0.057064
vn -0.998252 0.015383000000000004 0.057064
vn -0.998252 0.015383000000000004 0.057064
vn -0.986091 -0.01606199999999999 0.165428
vn -0.986091 -0.01606199999999999 0.165428
vn -0.986091 -0.01606199999999999 0.165428
vn -0.998617 0.050683 0.014017999999999996
vn -0.998617 0.050683 0.014017999999999996
vn -0.998617 0.050683 0.014017999999999996
vn -0.990166 0.084552 -0.111455
vn -0.990166 0.084552 -0.111455
vn -0.990166 0.084552 -0.111455
vn 0.714286 -0.670231 -0.20145999999999997
vn 0.182364 0.912471 0.36625099999999994
vn 0.960318 0.226199 0.163168
vn 0.960318 0.226199 0.163168
vn -0.214906 -0.905461 -0.36599999999999994
vn 0.714286 -0.670231 -0.20145999999999997
vn -0.616027 -0.787075 0.032017000000000045
vn -0.775806 0.630926 0.007588999999999961
vn -0.998789 0.047021 0.014500999999999997
vn -0.998789 0.047021 0.014500999999999997
vn 0.081027 -0.996517 0.01973100000000006
vn -0.616027 -0.787075 0.032017000000000045
vn 0.028575 0.997536 0.06406799999999994
vn 0.028575 0.997536 0.06406799999999994
vn 0.028575 0.997536 0.06406799999999994
vn 0.001518 0.99936 -0.03574300000000006
vn 0.001518 0.99936 -0.03574300000000006
vn 0.001518 0.99936 -0.03574300000000006
vn 0.994658 0.016261999999999992 -0.101935
vn 0.994658 0.016261999999999992 -0.101935
vn 0.994658 0.016261999999999992 -0.101935
vn 0.998377 0.0032929999999999965 -0.056854
vn 0.998377 0.0032929999999999965 -0.056854
vn 0.998377 0.0032929999999999965 -0.056854
vn -0.982566 -0.178234 0.05289000000000001
vn -0.233083 -0.906309 -0.3525269999999999
vn -0.619347 0.691167 0.37242099999999995
vn -0.619347 0.691167 0.37242099999999995
vn 0.310753 0.889324 0.3354619999999999
vn -0.982566 -0.178234 0.05289000000000001
vn 0.69735 -0.71638 -0.022429999999999953
vn -0.064103 -0.997864 0.01254100000000006
vn 0.974651 0.222284 -0.025385000000000015
vn 0.974651 0.222284 -0.025385000000000015
vn 0.55985 0.825935 -0.06632300000000005
vn 0.69735 -0.71638 -0.022429999999999953
vn 0.999269 -0.0068759999999999976 0.037615
vn 0.999269 -0.0068759999999999976 0.037615
vn 0.999269 -0.0068759999999999976 0.037615
vn 0.999295 -0.007634999999999998 0.036763
vn 0.999295 -0.007634999999999998 0.036763
vn 0.999295 -0.007634999999999998 0.036763
vn -0.021361 0.999503 0.023183999999999937
vn -0.021361 0.999503 0.023183999999999937
vn -0.021361 0.999503 0.023183999999999937
vn -0.033385 0.998123 0.05133899999999994
vn -0.033385 0.998123 0.05133899999999994
vn -0.033385 0.998123 0.05133899999999994
vn -0.998947 -0.0004919999999999972 0.045882
vn -0.998947 -0.0004919999999999972 0.045882
vn -0.998947 -0.0004919999999999972 0.045882
vn -0.999268 0.0068480000000000025 0.037642
vn -0.999268 0.0068480000000000025 0.037642
vn -0.999268 0.0068480000000000025 0.037642
vn 0.033753 -0.999218 0.020593000000000063
vn 0.033753 -0.999218 0.020593000000000063
vn 0.033753 -0.999218 0.020593000000000063
vn 0.034347 -0.999168 0.02197900000000006
vn 0.034347 -0.999168 0.02197900000000006
vn 0.034347 -0.999168 0.02197900000000006
vn 0.341662 -0.935963 0.08509200000000006
vn -0.932146 -0.361751 0.015462000000000023
vn -0.543599 -0.834991 0.08538500000000006
vn -0.543599 -0.834991 0.08538500000000006
vn 0.767519 -0.63724 0.06957300000000004
vn -0.932146 -0.361751 0.015462000000000023
vn -0.254638 0.958708 -0.12664500000000006
vn -0.828708 0.553874 -0.08041400000000003
vn -0.828708 0.553874 -0.08041400000000003
vn -0.543599 -0.834991 0.08538500000000006
vn -0.254638 0.958708 -0.12664500000000006
vn 0.973335 0.224929 -0.04501400000000001
vn 0.661555 0.746124 -0.07512900000000004
vn 0.661555 0.746124 -0.07512900000000004
vn -0.828708 0.553874 -0.08041400000000003
vn 0.627612 0.10169800000000004 0.771855
vn 0.330434 -0.17164200000000004 -0.928091
vn 0.987448 -0.06931600000000002 -0.14192
vn -0.286637 0.17467700000000005 0.94198
vn 0.627612 0.10169800000000004 0.771855
vn 0.330434 -0.17164200000000004 -0.928091
vn -0.97063 0.08557100000000001 0.224844
vn -0.651276 -0.09451700000000005 -0.752932
vn -0.651276 -0.09451700000000005 -0.752932
vn 0.987448 -0.06931600000000002 -0.14192
vn 0.975829 -0.199169 0.08994400000000001
vn -0.273607 0.952187 -0.13593800000000006
vn 0.671875 0.738221 -0.06010500000000005
vn 0.671875 0.738221 -0.06010500000000005
vn 0.192471 -0.967624 0.16327500000000006
vn -0.749176 -0.658404 0.07239100000000004
vn 0.975829 -0.199169 0.08994400000000001
vn 0.192471 -0.967624 0.16327500000000006
vn -0.968607 0.239434 -0.06686800000000001
vn -0.749176 -0.658404 0.07239100000000004
vn 0.701194 -0.712939 0.006708000000000044
vn 0.147636 0.987861 0.048323999999999936
vn 0.96921 0.243532 0.036374999999999984
vn -0.390241 -0.920669 -0.009029999999999944
vn 0.701194 -0.712939 0.006708000000000044
vn -0.989933 -0.141516 0.0022740000000000087
vn 0.701194 -0.712939 0.006708000000000044
vn -0.390241 -0.920669 -0.009029999999999944
vn -0.766981 0.64115 0.025844999999999962
vn -0.989933 -0.141516 0.0022740000000000087
vn -0.775806 0.630926 0.007588999999999961
vn 0.59713 0.802129 0.004941999999999951
vn 0.022387 0.999749 0.00021399999999993877
vn 0.022387 0.999749 0.00021399999999993877
vn -0.998789 0.047021 0.014500999999999997
vn 0.749829 0.26784499999999994 -0.604993
vn -0.195918 -0.44301799999999997 0.874844
vn 0.976082 -0.146238 0.160866
vn -0.660215 0.38122799999999996 -0.647133
vn 0.749829 0.26784499999999994 -0.604993
vn -0.345514 -0.938015 0.02736600000000006
vn -0.974264 -0.223424 0.029871000000000016
vn 0.584536 -0.811335 0.00737900000000005
vn 0.584536 -0.811335 0.00737900000000005
vn 0.946267 -0.323387 1.9801742721793254E-17
vn 0.022526 0.986216 -0.16392600000000004
vn 0.002431 0.3949230000000001 0.918711
vn 0.013869 0.37769199999999997 -0.925828
vn -0.013316 -0.76275 -0.646556
vn 0.022526 0.986216 -0.16392600000000004
vn -0.013316 -0.76275 -0.646556
vn 0.013869 0.37769199999999997 -0.925828
vn -0.023493 -0.958195 0.28514900000000004
vn -0.023493 -0.958195 0.28514900000000004
vn -0.017814 -0.544174 0.838784
vn -0.035613 -0.685219 0.727466
vn 0.005604 0.25786900000000007 0.966164
vn -0.044249 -0.98338 -0.17608199999999993
vn 0.011433 0.15047499999999994 -0.988548
vn -0.035613 -0.685219 0.727466
vn 0.011433 0.15047499999999994 -0.988548
vn -0.044249 -0.98338 -0.17608199999999993
vn 0.042358 0.897229 -0.43952900000000006
vn 0.042358 0.897229 -0.43952900000000006
vn 0.040983 0.956352 0.28932899999999995
vn 0.395804 -0.15754200000000004 -0.904721
vn -0.97168 -0.057359000000000014 -0.229234
vn -0.999712 -0.013570999999999998 0.019788
vn 0.149085 -0.17243900000000006 -0.973673
vn 0.395804 -0.15754200000000004 -0.904721
vn -0.017195 0.17315500000000006 0.984744
vn 0.878561 0.10187500000000002 0.466639
vn -0.999712 -0.013570999999999998 0.019788
vn -0.97168 -0.057359000000000014 -0.229234
vn -0.017195 0.17315500000000006 0.984744
vn -0.974129 -0.200341 0.10457500000000002
vn -0.190771 -0.973237 0.12812800000000005
vn -0.670635 0.741653 -0.014154000000000045
vn -0.670635 0.741653 -0.014154000000000045
vn 0.275518 0.955726 -0.10333700000000005
vn 0.749049 -0.661928 0.027875000000000042
vn 0.968063 0.237785 -0.07945400000000001
vn -0.190771 -0.973237 0.12812800000000005
vn -0.974129 -0.200341 0.10457500000000002
vn 0.749049 -0.661928 0.027875000000000042
vn -0.667851 -0.744237 0.009342000000000045
vn 0.265868 -0.963172 -0.04017799999999994
vn -0.977355 0.199431 0.07074199999999999
vn -0.178301 0.981092 0.07528299999999995
vn -0.667851 -0.744237 0.009342000000000045
vn 0.96675 -0.253233 -0.03560999999999999
vn 0.757082 0.653079 0.017733999999999958
vn 0.265868 -0.963172 -0.04017799999999994
vn -0.667851 -0.744237 0.009342000000000045
vn 0.96675 -0.253233 -0.03560999999999999
vn -0.753062 0.29173299999999996 -0.589737
vn 0.237801 0.4765789999999999 -0.846359
vn -0.960195 -0.1655 0.225023
vn 0.222395 -0.4615369999999999 0.858792
vn -0.753062 0.29173299999999996 -0.589737
vn 0.947335 0.18590899999999996 -0.260756
vn 0.924175 -0.15146799999999996 0.350653
vn 0.237801 0.4765789999999999 -0.846359
vn -0.753062 0.29173299999999996 -0.589737
vn 0.947335 0.18590899999999996 -0.260756
vn -0.271713 0.962377 0.001643999999999941
vn -0.745981 0.665781 0.015748999999999957
vn 0.519051 0.854743 0.0005389999999999476
vn 0.86217 0.506619 -3.102146683686165E-17
vn -0.271713 0.962377 0.001643999999999941
vn 0.946267 -0.323387 1.9801742721793254E-17
vn 0.584536 -0.811335 0.00737900000000005
vn 0.004531 0.16838700000000006 0.985711
vn 0.004531 0.16838700000000006 0.985711
vn -0.000771 0.16424200000000005 0.98642
vn 0.009832 0.17252500000000007 0.984956
vn -0.080538 -0.0010199999999999391 0.996751
vn -0.080538 -0.0010199999999999391 0.996751
vn -0.087402 0.000388000000000061 0.996173
vn -0.07367 -0.002428999999999939 0.99728
vn 0 6.123233995736766E-17 1
vn 0 6.123233995736766E-17 1
vn 0 6.123233995736766E-17 1
vn 0 6.123233995736766E-17 1
vn 0.150002 0.01076300000000006 0.988627
vn 0.13269 0.0035480000000000607 0.991151
vn 0.150002 0.01076300000000006 0.988627
vn 0.167261 0.01797400000000006 0.985749
vn -0.998645 0.050857 -0.011062000000000004
vn -0.999048 0.03261 -0.028995000000000003
vn -0.998645 0.050857 -0.011062000000000004
vn -0.997588 0.069071 0.006877999999999996
vn 0.993963 -0.106234 0.027408000000000005
vn 0.994957 -0.09876 0.017555000000000008
vn 0.993963 -0.106234 0.027408000000000005
vn 0.992817 -0.113692 0.037257000000000005
vn 0.767519 -0.63724 0.06957300000000004
vn 0.661555 0.746124 -0.07512900000000004
vn 0.973335 0.224929 -0.04501400000000001
vn 0.341662 -0.935963 0.08509200000000006
vn 0.823422 0.18259899999999998 -0.537247
vn 0.823866 0.18245199999999998 -0.536616
vn 0.823422 0.18259899999999998 -0.537247
vn 0.822977 0.18274599999999996 -0.537878
vn 0.724396 -0.22428799999999996 0.651879
vn 0.723956 -0.22438699999999998 0.652333
vn 0.724396 -0.22428799999999996 0.651879
vn 0.724835 -0.22418999999999997 0.651424
vn -0.724189 0.22695899999999997 -0.651183
vn -0.723869 0.22710199999999997 -0.651489
vn -0.724189 0.22695899999999997 -0.651183
vn -0.724509 0.22681599999999996 -0.650877
vn -0.8235 -0.18029999999999996 0.537903
vn -0.823853 -0.18008199999999996 0.537436
vn -0.8235 -0.18029999999999996 0.537903
vn -0.823148 -0.18051699999999998 0.538369
vn -0.97063 0.08557100000000001 0.224844
vn 0.627612 0.10169800000000004 0.771855
vn -0.286637 0.17467700000000005 0.94198
vn -0.651276 -0.09451700000000005 -0.752932
vn -0.273607 0.952187 -0.13593800000000006
vn -0.749176 -0.658404 0.07239100000000004
vn -0.968607 0.239434 -0.06686800000000001
vn 0.671875 0.738221 -0.06010500000000005
vn -0.950732 -0.256579 -0.17400199999999996
vn 0.714286 -0.670231 -0.20145999999999997
vn -0.214906 -0.905461 -0.36599999999999994
vn -0.756834 0.627798 0.18185499999999996
vn 0.182364 0.912471 0.36625099999999994
vn -0.950732 -0.256579 -0.17400199999999996
vn -0.756834 0.627798 0.18185499999999996
vn 0.960318 0.226199 0.163168
vn 0.147636 0.987861 0.048323999999999936
vn -0.989933 -0.141516 0.0022740000000000087
vn -0.766981 0.64115 0.025844999999999962
vn 0.96921 0.243532 0.036374999999999984
vn 0.59713 0.802129 0.004941999999999951
vn 0.852176 -0.523067 0.014045000000000031
vn 0.999343 0.018158000000000004 0.031359
vn 0.022387 0.999749 0.00021399999999993877
vn 0.081027 -0.996517 0.01973100000000006
vn 0.999343 0.018158000000000004 0.031359
vn 0.852176 -0.523067 0.014045000000000031
vn -0.616027 -0.787075 0.032017000000000045
vn -0.745981 0.665781 0.015748999999999957
vn -0.271713 0.962377 0.001643999999999941
vn -0.974264 -0.223424 0.029871000000000016
vn -0.345514 -0.938015 0.02736600000000006
vn -0.032092 -0.999388 0.013917000000000061
vn -0.033648 -0.999362 0.011993000000000061
vn -0.032092 -0.999388 0.013917000000000061
vn -0.030536 -0.999408 0.015841000000000063
vn -0.985266 -0.169885 0.01976400000000001
vn -0.979525 -0.201139 -0.008592999999999988
vn -0.985266 -0.169885 0.01976400000000001
vn -0.989219 -0.138322 0.04808500000000001
vn 0.041045 0.97603 -0.21372900000000006
vn 0.055571 0.971184 -0.23176000000000005
vn 0.041045 0.97603 -0.21372900000000006
vn 0.026496 0.98033 -0.19558000000000006
vn 0.998107 0.03752 -0.048733
vn 0.995922 0.090159 0.0031709999999999946
vn 0.998107 0.03752 -0.048733
vn 0.994832 -0.015323000000000007 -0.100372
vn -0.823422 0.18259899999999998 -0.537246
vn -0.822977 0.18274599999999996 -0.537878
vn -0.823422 0.18259899999999998 -0.537246
vn -0.823867 0.18245199999999998 -0.536614
vn -0.724397 -0.22428799999999996 0.651877
vn -0.724835 -0.22418999999999997 0.651424
vn -0.724397 -0.22428799999999996 0.651877
vn -0.723959 -0.22438599999999997 0.65233
vn 0.724188 0.22695899999999997 -0.651184
vn 0.724508 0.22681599999999996 -0.650878
vn 0.724188 0.22695899999999997 -0.651184
vn 0.723868 0.22710199999999997 -0.65149
vn 0.823499 -0.18029999999999996 0.537905
vn 0.823147 -0.18051699999999998 0.53837
vn 0.823499 -0.18029999999999996 0.537905
vn 0.823851 -0.18008299999999997 0.537439
vn -0.017814 -0.544174 0.838784
vn -0.023493 -0.958195 0.28514900000000004
vn 0.002431 0.3949230000000001 0.918711
vn 0.022526 0.986216 -0.16392600000000004
vn 0.040983 0.956352 0.28932899999999995
vn 0.042358 0.897229 -0.43952900000000006
vn 0.005604 0.25786900000000007 0.966164
vn -0.035613 -0.685219 0.727466
vn 0.878561 0.10187500000000002 0.466639
vn -0.017195 0.17315500000000006 0.984744
vn 0.395804 -0.15754200000000004 -0.904721
vn 0.149085 -0.17243900000000006 -0.973673
vn 0.275518 0.955726 -0.10333700000000005
vn -0.670635 0.741653 -0.014154000000000045
vn 0.968063 0.237785 -0.07945400000000001
vn 0.749049 -0.661928 0.027875000000000042
vn -0.013475 -0.31693099999999996 0.948353
vn -0.013203 -0.31822799999999996 0.947922
vn -0.013475 -0.31693099999999996 0.948353
vn -0.013748 -0.31563299999999994 0.948782
vn 0.011757 0.16529100000000005 0.986175
vn 0.01883 0.15849300000000005 0.987181
vn 0.011757 0.16529100000000005 0.986175
vn 0.004683 0.17207400000000006 0.985073
vn 0.714165 -0.606818 -0.34891399999999995
vn 0.971612 0.235008 -0.027231000000000016
vn -0.233083 -0.906309 -0.3525269999999999
vn -0.982566 -0.178234 0.05289000000000001
vn 0.310753 0.889324 0.3354619999999999
vn -0.619347 0.691167 0.37242099999999995
vn 0.971612 0.235008 -0.027231000000000016
vn 0.714165 -0.606818 -0.34891399999999995
vn -0.178301 0.981092 0.07528299999999995
vn -0.977355 0.199431 0.07074199999999999
vn 0.757082 0.653079 0.017733999999999958
vn 0.96675 -0.253233 -0.03560999999999999
vn -0.8643 -0.501362 0.04027200000000003
vn -0.993282 0.087572 0.075648
vn -0.064103 -0.997864 0.01254100000000006
vn 0.69735 -0.71638 -0.022429999999999953
vn 0.222395 -0.4615369999999999 0.858792
vn -0.960195 -0.1655 0.225023
vn 0.924175 -0.15146799999999996 0.350653
vn 0.947335 0.18590899999999996 -0.260756
vn 0 6.123233995736766E-17 1
vn 0 6.123233995736766E-17 1
vn 0 6.123233995736766E-17 1
vn 0 6.123233995736766E-17 1
vn 0 6.123233995736766E-17 1
vn -0 6.123233995736766E-17 1
vn 0 6.123233995736766E-17 1
vn 0 6.123233995736766E-17 1
vn 0.55985 0.825935 -0.06632300000000005
vn 0.974651 0.222284 -0.025385000000000015
vn -0.270679 0.962669 -0.000710000000000059
vn -0.600216 0.799507 0.023024999999999952
vn -0.993282 0.087572 0.075648
vn -0.8643 -0.501362 0.04027200000000003
vn -0.998266 0.045547 0.037289
vn 0.749829 0.26784499999999994 -0.604993
vn -0.660215 0.38122799999999996 -0.647133
vn -0.871764 -0.18069699999999997 0.455386
vn -0.195918 -0.44301799999999997 0.874844
vn 0.976082 -0.146238 0.160866
g 04
f 1/1/1 2/2/2 3/3/3
f 4/4/4 5/5/5 6/6/6
f 7/7/7 8/8/8 9/9/9
f 10/10/10 11/11/11 12/12/12
f 13/13/13 14/14/14 15/15/15
f 16/16/16 17/17/17 18/18/18
f 19/19/19 20/20/20 21/21/21
f 22/22/22 23/23/23 24/24/24
f 25/25/25 26/26/26 27/27/27
f 28/28/28 29/29/29 30/30/30
f 31/31/31 32/32/32 33/33/33
f 34/34/34 35/35/35 36/36/36
f 37/37/37 38/38/38 39/39/39
f 40/40/40 41/41/41 42/42/42
f 43/43/43 44/44/44 45/45/45
f 46/46/46 47/47/47 48/48/48
f 49/49/49 50/50/50 51/51/51
f 52/52/52 53/53/53 54/54/54
f 55/55/55 56/56/56 57/57/57
f 58/58/58 59/59/59 60/60/60
f 61/61/61 62/62/62 63/63/63
f 64/64/64 65/65/65 66/66/66
f 67/67/67 68/68/68 69/69/69
f 70/70/70 71/71/71 72/72/72
f 73/73/73 74/74/74 75/75/75
f 76/76/76 77/77/77 78/78/78
f 79/79/79 80/80/80 81/81/81
f 82/82/82 83/83/83 84/84/84
f 85/85/85 86/86/86 87/87/87
f 88/88/88 89/89/89 85/85/85
f 90/90/90 91/91/91 92/92/92
f 93/93/93 94/94/94 90/90/90
f 95/95/95 96/96/96 97/97/97
f 98/98/98 99/99/99 95/95/95
f 100/100/100 101/101/101 102/102/102
f 102/102/102 103/103/103 104/104/104
f 105/105/105 106/106/106 107/107/107
f 108/108/108 109/109/109 105/105/105
f 110/110/110 111/111/111 112/112/112
f 113/113/113 114/114/114 110/110/110
f 115/115/115 116/116/116 117/117/117
f 117/117/117 118/118/118 119/119/119
f 120/120/120 121/121/121 122/122/122
f 122/122/122 123/123/123 124/124/124
f 125/125/125 126/126/126 127/127/127
f 127/127/127 128/128/128 129/129/129
f 130/130/130 131/131/131 132/132/132
f 133/133/133 134/134/134 130/130/130
f 135/135/135 136/136/136 137/137/137
f 137/137/137 138/138/138 139/139/139
f 140/140/140 141/141/141 142/142/142
f 143/143/143 144/144/144 140/140/140
f 145/145/145 146/146/146 147/147/147
f 147/147/147 148/148/148 149/149/149
f 150/150/150 151/151/151 152/152/152
f 153/153/153 154/154/154 150/150/150
f 155/155/155 156/156/156 157/157/157
f 157/157/157 158/158/158 159/159/159
f 160/160/160 161/161/161 162/162/162
f 163/163/163 164/164/164 160/160/160
f 165/165/165 166/166/166 167/167/167
f 167/167/167 168/168/168 169/169/169
f 170/170/170 171/171/171 172/172/172
f 172/172/172 173/173/173 174/174/174
f 175/175/175 176/176/176 177/177/177
f 178/178/178 179/179/179 175/175/175
f 180/180/180 181/181/181 182/182/182
f 182/182/182 183/183/183 184/184/184
f 185/185/185 186/186/186 187/187/187
f 187/187/187 188/188/188 189/189/189
f 190/190/190 191/191/191 192/192/192
f 192/192/192 193/193/193 194/194/194
f 195/195/195 196/196/196 197/197/197
f 197/197/197 198/198/198 199/199/199
f 200/200/200 201/201/201 202/202/202
f 202/202/202 203/203/203 204/204/204
f 205/205/205 206/206/206 207/207/207
f 207/207/207 208/208/208 209/209/209
f 208/208/208 207/207/207 210/210/210
f 210/210/210 211/211/211 208/208/208
f 212/212/212 213/213/213 214/214/214
f 212/212/212 215/215/215 213/213/213
f 216/216/216 217/217/217 218/218/218
f 216/216/216 219/219/219 217/217/217
f 220/220/220 221/221/221 222/222/222
f 220/220/220 222/222/222 223/223/223
f 224/224/224 225/225/225 226/226/226
f 224/224/224 226/226/226 227/227/227
f 228/228/228 229/229/229 230/230/230
f 230/230/230 231/231/231 228/228/228
f 232/232/232 233/233/233 234/234/234
f 234/234/234 235/235/235 232/232/232
f 236/236/236 237/237/237 238/238/238
f 238/238/238 239/239/239 236/236/236
f 240/240/240 241/241/241 242/242/242
f 242/242/242 243/243/243 240/240/240
f 244/244/244 245/245/245 246/246/246
f 246/246/246 247/247/247 244/244/244
f 248/248/248 249/249/249 250/250/250
f 250/250/250 251/251/251 248/248/248
f 252/252/252 253/253/253 254/254/254
f 254/254/254 255/255/255 252/252/252
f 256/256/256 257/257/257 258/258/258
f 258/258/258 259/259/259 256/256/256
f 260/260/260 261/261/261 262/262/262
f 262/262/262 263/263/263 260/260/260
f 264/264/264 265/265/265 266/266/266
f 266/266/266 267/267/267 264/264/264
f 268/268/268 269/269/269 270/270/270
f 270/270/270 271/271/271 268/268/268
f 272/272/272 273/273/273 274/274/274
f 274/274/274 275/275/275 272/272/272
f 276/276/276 277/277/277 278/278/278
f 278/278/278 279/279/279 276/276/276
f 280/280/280 281/281/281 282/282/282
f 282/282/282 283/283/283 280/280/280
f 284/284/284 285/285/285 286/286/286
f 286/286/286 287/287/287 284/284/284
f 288/288/288 289/289/289 290/290/290
f 290/290/290 291/291/291 288/288/288
f 292/292/292 293/293/293 294/294/294
f 294/294/294 295/295/295 292/292/292
f 296/296/296 297/297/297 298/298/298
f 298/298/298 299/299/299 296/296/296
f 300/300/300 301/301/301 302/302/302
f 302/302/302 303/303/303 300/300/300
f 304/304/304 305/305/305 306/306/306
f 306/306/306 307/307/307 304/304/304
f 308/308/308 309/309/309 310/310/310
f 310/310/310 311/311/311 308/308/308
f 312/312/312 313/313/313 314/314/314
f 314/314/314 315/315/315 312/312/312
f 316/316/316 317/317/317 318/318/318
f 318/318/318 319/319/319 316/316/316
f 320/320/320 321/321/321 322/322/322
f 322/322/322 323/323/323 320/320/320
f 324/324/324 325/325/325 326/326/326
f 326/326/326 327/327/327 324/324/324
f 328/328/328 329/329/329 330/330/330
f 330/330/330 331/331/331 328/328/328
f 332/332/332 333/333/333 334/334/334
f 334/334/334 335/335/335 332/332/332
f 336/336/336 337/337/337 338/338/338
f 338/338/338 339/339/339 336/336/336
f 340/340/340 341/341/341 342/342/342
f 342/342/342 343/343/343 340/340/340
f 344/344/344 345/345/345 346/346/346
f 346/346/346 347/347/347 344/344/344
f 348/348/348 349/349/349 350/350/350
f 350/350/350 351/351/351 348/348/348
f 352/352/352 353/353/353 354/354/354
f 354/354/354 355/355/355 352/352/352
f 356/356/356 357/357/357 358/358/358
f 358/358/358 359/359/359 356/356/356
f 360/360/360 361/361/361 362/362/362
f 362/362/362 363/363/363 360/360/360
f 364/364/364 365/365/365 366/366/366
f 366/366/366 367/367/367 364/364/364
f 368/368/368 369/369/369 370/370/370
f 370/370/370 371/371/371 368/368/368
f 372/372/372 373/373/373 374/374/374
f 374/374/374 375/375/375 372/372/372
f 375/375/375 374/374/374 376/376/376
f 376/376/376 377/377/377 375/375/375
f 378/378/378 379/379/379 380/380/380
f 380/380/380 381/381/381 378/378/378
f 382/382/382 378/378/378 381/381/381
f 381/381/381 383/383/383 382/382/382
