v -0.044638 0.787174 0.865394
v -0.019024 0.972704 0.6837629999999999
v 0.019726 0.965872 0.6837629999999999
v 0.019726 0.965872 0.6837629999999999
v -0.012821 0.766299 0.8586
v -0.044638 0.787174 0.865394
v -0.039803 0.818161 0.877198
v -0.011772 1.013827 0.6831759999999999
v -0.019024 0.972704 0.6837629999999999
v -0.019024 0.972704 0.6837629999999999
v -0.044638 0.787174 0.865394
v -0.039803 0.818161 0.877198
v 1.486614 0.694366 0.719004
v 1.493865 0.735489 0.718418
v 1.458936 0.542141 0.898835
v 1.458936 0.542141 0.898835
v 1.454102 0.511155 0.887031
v 1.486614 0.694366 0.719004
v -0.012821 0.766299 0.8586
v -0.071251 0.43328900000000004 1.265779
v -0.109894 0.44010400000000005 1.265779
v -0.109894 0.44010400000000005 1.265779
v -0.044638 0.787174 0.865394
v -0.012821 0.766299 0.8586
v -0.109894 0.45081800000000005 1.302366
v -0.039803 0.818161 0.877198
v -0.044638 0.787174 0.865394
v -0.044638 0.787174 0.865394
v -0.109894 0.44010400000000005 1.265779
v -0.109894 0.45081800000000005 1.302366
v 1.458936 0.542141 0.898835
v 1.395743 0.18533300000000008 1.302366
v 1.395743 0.17462000000000008 1.265779
v 1.395743 0.17462000000000008 1.265779
v 1.454102 0.511155 0.887031
v 1.458936 0.542141 0.898835
v -0.134149 0.4624470000000001 2.069692
v -0.310016 -0.5349559999999999 1.123719
v -0.352991 -0.778684 0.880613
v -0.134149 0.4624470000000001 2.069692
v -0.134086 0.46278700000000006 0.978158
v -0.134086 0.46278600000000003 0.880324
v -0.310016 -0.5349559999999999 1.123719
v -0.30926 -0.534956 0.880541
v -0.352991 -0.778684 0.880613
v 0.548349 -0.7240519999999999 2.114863
v 0.534149 -0.6897429999999999 1.920552
v 0.745109 -0.7389879999999999 1.923941
v 0.745109 -0.7389879999999999 1.923941
v 0.699988 -0.7579459999999999 2.118252
v 0.548349 -0.7240519999999999 2.114863
v 0.534149 -0.6897429999999999 1.920552
v 0.548349 -0.7240519999999999 2.114863
v 0.699988 -0.7579459999999999 2.118252
v 0.699988 -0.7579459999999999 2.118252
v 0.745109 -0.7389879999999999 1.923941
v 0.534149 -0.6897429999999999 1.920552
v -0.700407 -0.46611899999999995 0.87976
v -0.700362 -0.46612699999999996 0.827927
v -0.700407 -0.46611899999999995 0.87976
v -1.20594 -0.4037879999999999 1.228394
v -1.20594 -0.4037879999999999 0.994891
v -1.22605 -0.41786999999999996 0.994891
v -1.22605 -0.41786999999999996 0.994891
v -1.22605 -0.41786999999999996 1.228394
v -1.20594 -0.4037879999999999 1.228394
v -0.171439 0.2507830000000001 1.509492
v -0.610256 0.32815800000000006 1.059428
v -0.610256 0.32815800000000006 0.880135
v -0.610256 0.32815800000000006 0.880135
v -0.171588 0.25011400000000006 1.324069
v -0.171439 0.2507830000000001 1.509492
v -0.083813 0.45378700000000005 1.060632
v -0.134086 0.46278700000000006 0.978158
v -0.134149 0.4624470000000001 2.069692
v -0.134086 0.46278700000000006 0.978158
v -0.083813 0.45378700000000005 1.060632
v -0.083825 0.453931 0.0018809999999999723
v -0.352991 -0.7786829999999999 0.978157
v -1.429408 -0.588145 0.002678000000000036
v 0.867773 -0.9946729999999999 2.069692
v -0.343064 -0.722363 0.880324
v -0.310016 -0.534956 0.880541
v -1.357442 -0.542886 0.878897
v -0.310016 -0.534956 0.880541
v -0.700407 -0.46611899999999995 0.87976
v -1.357442 -0.542886 0.878897
v -0.700407 -0.46611899999999995 0.87976
v -0.700407 -0.46611899999999995 0.87976
v -1.357442 -0.542886 0.878897
v -0.144889 0.40154200000000007 0.880324
v -1.159322 0.580709 0.878897
v -0.263371 -0.27042199999999994 0.880541
v -0.134086 0.46278700000000006 0.978158
v -1.210569 0.6529520000000001 0.976364
v -1.159321 0.5807100000000001 0.976591
v -1.159321 0.5807100000000001 0.976591
v -0.14489 0.40154300000000004 0.978018
v -0.134086 0.46278700000000006 0.978158
v -1.429409 -0.5881449999999999 0.976449
v -0.352991 -0.7786829999999999 0.978157
v -0.343064 -0.7223629999999999 0.978017
v -0.343064 -0.7223629999999999 0.978017
v -1.357443 -0.5428849999999998 0.976591
v -1.429409 -0.5881449999999999 0.976449
v -1.210569 0.6529520000000001 0.976364
v -1.429409 -0.5881449999999999 0.976449
v -1.357443 -0.5428849999999998 0.976591
v -1.357443 -0.5428849999999998 0.976591
v -1.159321 0.5807100000000001 0.976591
v -1.210569 0.6529520000000001 0.976364
v -1.192021 -0.42366599999999993 1.228394
v -1.212132 -0.43774799999999997 1.228394
v -1.212132 -0.43774799999999997 0.994891
v -1.192021 -0.42366599999999993 0.994891
v -1.192021 -0.42366599999999993 1.228394
v -1.145252 0.612742 -0.012149000000000038
v -1.172812 0.632548 0.16929999999999998
v -1.242882 0.621508 0.17402999999999996
v -1.242882 0.621508 0.17402999999999996
v -1.258249 0.602856 -0.012149000000000037
v -1.231853 0.697887 0.17402999999999993
v -1.268315 0.717908 -0.012149000000000043
v -1.242882 0.621508 0.17402999999999996
v -1.231853 0.697887 0.17402999999999993
v -1.157429 0.722486 -0.012149000000000045
v -1.174831 0.702991 0.17402999999999993
v -1.172812 0.632548 0.16929999999999998
v -1.145252 0.612742 -0.012149000000000038
v -1.157429 0.722486 -0.012149000000000045
v -0.309987 -0.534965 0.518423
v -0.758205 -0.45592799999999994 0.827187
v -0.700407 -0.46611899999999995 0.87976
v -0.700407 -0.46611899999999995 0.87976
v -0.310016 -0.534956 0.880541
v -0.71156 -0.19139299999999995 0.827187
v -0.263343 -0.27042999999999995 0.518423
v -0.653762 -0.20158499999999993 0.87976
v -0.263371 -0.27042199999999994 0.880541
v -0.653762 -0.20158499999999993 0.87976
v -0.353119 -0.7793959999999999 2.069692
v -0.134149 0.4624470000000001 2.069692
v -0.352991 -0.778684 0.880613
v -0.263371 -0.27042099999999997 1.123719
v -0.310016 -0.5349559999999999 1.123719
v -0.134086 0.46278600000000003 0.880324
v -0.263371 -0.27042199999999994 0.880541
v 1.415431 0.517974 0.887031
v 1.447984 0.701178 0.719004
v 1.486614 0.694366 0.719004
v 1.454102 0.511155 0.887031
v 0.391985 0.36232300000000006 1.270763
v -0.109894 0.45081800000000005 1.302366
v -0.109894 0.44010400000000005 1.265779
v 0.391985 0.35160900000000006 1.234176
v 0.893864 0.26311400000000007 1.222394
v 1.395743 0.17462000000000008 1.265779
v 1.395743 0.18533300000000008 1.302366
v 0.893864 0.27382800000000007 1.25898
v 0.391985 0.35160900000000006 1.234176
v 0.893864 0.26311400000000007 1.222394
v 0.893864 0.27382800000000007 1.25898
v 0.391985 0.36232300000000006 1.270763
v 1.356988 0.1814530000000001 1.265779
v 1.415431 0.517974 0.887031
v 1.454102 0.511155 0.887031
v 1.395743 0.17462000000000008 1.265779
v -0.10946 0.936004 9.999999999426863E-07
v -0.077619 0.898241 0.529754
v 0.007081 0.883307 0.617731
v 0.013533 0.914316 9.999999999440143E-07
v -0.010991 0.775231 9.999999999525307E-07
v -0.006449 0.806578 0.617731
v -0.091148 0.821512 0.529754
v -0.133983 0.796918 9.999999999512028E-07
v 0.010801 0.943758 0.7357299999999999
v 1.45607 0.688917 0.73573
v 1.456071 0.688918 0.0015519999999999577
v 0.010802 0.943758 0.0016489999999999422
v 1.368859 0.19432000000000008 1.274036
v 1.368859 0.19432 0.0023169999999999883
v 1.456071 0.688918 0.0015519999999999577
v 1.45607 0.688917 0.73573
v 1.36886 0.19432000000000008 1.274036
v 0.950412 0.26810300000000004 1.274036
v 0.950411 0.268101 0.0023459999999999835
v 1.368859 0.19432 0.0023169999999999883
v 0.010801 0.943758 0.7357299999999999
v 0.010802 0.943758 0.0016489999999999422
v -0.083825 0.453931 0.0018809999999999723
v -0.08385 0.4537880000000001 1.248089
v -0.263343 -0.27042999999999995 0.518423
v -0.309987 -0.534965 0.518423
v -0.310016 -0.5349559999999999 1.123719
v -0.263384 -0.27041899999999996 1.123723
v -0.116013 -0.94715 5.799621079062078E-17
v -0.094327 -0.824157 5.046506160224426E-17
v -0.125673 -0.819615 0.617731
v -0.140608 -0.904315 0.529754
v -0.233412 -0.799632 4.896333846478982E-17
v -0.255099 -0.922625 5.649448765316634E-17
v -0.217337 -0.890785 0.529754
v -0.202402 -0.806085 0.617731
v -0.601786 0.3761920000000001 1.059428
v -0.162987 0.2988210000000001 1.509492
v -0.601786 0.3761920000000001 0.880135
v -0.162974 0.2988910000000001 0.880135
v -0.700362 -0.46612699999999996 0.827927
v -0.653716 -0.20159299999999994 0.827927
v -0.653762 -0.20158499999999993 0.87976
v -0.700407 -0.46611899999999995 0.87976
v -0.217942 -0.012775999999999918 1.324069
v -0.171588 0.25011400000000006 1.324069
v -0.610256 0.32815800000000006 0.880135
v -0.656727 0.06460900000000006 0.880135
v -0.263343 -0.27042999999999995 0.518423
v -0.653717 -0.20159299999999994 0.827927
v -0.700362 -0.46612699999999996 0.827927
v -0.309987 -0.534965 0.518423
v -0.653762 -0.20158499999999993 0.87976
v -0.653716 -0.20159299999999994 0.827927
v -0.653762 -0.20158499999999993 0.87976
v -0.263371 -0.27042199999999994 0.880541
v -1.212132 -0.43774799999999997 1.228394
v -1.22605 -0.41786999999999996 1.228394
v -1.22605 -0.41786999999999996 0.994891
v -1.212132 -0.43774799999999997 0.994891
v -1.192021 -0.42366599999999993 1.228394
v -1.192021 -0.42366599999999993 0.994891
v -1.20594 -0.4037879999999999 0.994891
v -1.20594 -0.4037879999999999 1.228394
v -1.260035 -0.34748399999999996 1.002044
v -1.235427 -0.38306699999999994 0.876769
v -1.247157 -0.44958399999999993 0.876769
v -1.282449 -0.4746059999999999 1.002044
v -1.282449 -0.4746059999999999 1.002044
v -1.247157 -0.44958399999999993 0.876769
v -1.181413 -0.4611759999999999 0.876769
v -1.156806 -0.49675899999999995 1.002044
v -1.156806 -0.49675899999999995 1.002044
v -1.181413 -0.4611759999999999 0.876769
v -1.169685 -0.39465999999999996 0.876769
v -1.134391 -0.36963799999999997 1.002044
v -1.134391 -0.36963799999999997 1.002044
v -1.169685 -0.39465999999999996 0.876769
v -1.235427 -0.38306699999999994 0.876769
v -1.260035 -0.34748399999999996 1.002044
v -1.156806 -0.49675899999999995 1.002044
v -1.134391 -0.36963799999999997 1.002044
v -1.260035 -0.34748399999999996 1.002044
v -1.282449 -0.4746059999999999 1.002044
v -1.231853 0.697887 0.17402999999999993
v -1.174831 0.702991 0.17402999999999993
v -1.157429 0.722486 -0.012149000000000045
v -1.268315 0.717908 -0.012149000000000043
v -1.231853 0.697887 0.17402999999999993
v -1.242882 0.621508 0.17402999999999996
v -1.172812 0.632548 0.16929999999999998
v -1.174831 0.702991 0.17402999999999993
v -0.610256 0.32815800000000006 1.059428
v -0.601786 0.3761920000000001 1.059428
v -0.601786 0.3761920000000001 0.880135
v -0.610256 0.32815800000000006 0.880135
v -0.665196 0.016576000000000066 1.059428
v -0.656726 0.06461100000000007 1.059428
v -0.656727 0.06460900000000006 0.880135
v -0.665196 0.016576000000000056 0.880135
v -0.656726 0.06461100000000007 1.059428
v -0.217924 -0.012761999999999909 1.509492
v -0.217942 -0.012775999999999918 1.324069
v -0.656727 0.06460900000000006 0.880135
v -0.226397 -0.06079599999999991 1.509492
v -0.665196 0.016576000000000066 1.059428
v -0.665196 0.016576000000000056 0.880135
v -0.226384 -0.06072599999999995 0.880135
v -0.610256 0.32815800000000006 1.059428
v -0.171439 0.2507830000000001 1.509492
v -0.162966 0.29881600000000014 1.509492
v -0.601786 0.3761920000000001 1.059428
v -0.217924 -0.012761999999999909 1.509492
v -0.656726 0.06461100000000007 1.059428
v -0.665196 0.016576000000000066 1.059428
v -0.226397 -0.06079599999999991 1.509492
v 1.086744 0.24717000000000014 2.069692
v 1.086744 0.24717000000000008 1.157474
v -0.134149 0.4624470000000001 2.069692
v -0.083813 0.45378700000000005 1.060632
v -1.210569 0.652951 0.00172799999999996
v -1.210569 0.6529520000000001 0.976364
v -0.083825 0.453931 0.0018809999999999723
v -0.134086 0.46278700000000006 0.978158
v 0.817113 -0.4877069999999999 1.971998
v 0.54969 -0.4405539999999999 1.971998
v 0.54969 -0.4405539999999999 1.921998
v 0.817113 -0.4877069999999999 1.921998
v 0.766816 -0.7729559999999999 1.971998
v 0.817113 -0.4877069999999999 1.971998
v 0.817113 -0.4877069999999999 1.921998
v 0.766817 -0.7729569999999999 1.921998
v 0.499393 -0.7258019999999998 1.971998
v 0.766816 -0.7729559999999999 1.971998
v 0.766817 -0.7729569999999999 1.921998
v 0.499393 -0.7258019999999998 1.921998
v 0.54969 -0.4405539999999999 1.971998
v 0.499393 -0.7258019999999998 1.971998
v 0.499393 -0.7258019999999998 1.921998
v 0.54969 -0.4405539999999999 1.921998
v -0.353119 -0.7793959999999999 2.069692
v -0.352991 -0.7786829999999999 0.978157
v 0.867773 -0.9946729999999999 2.069692
v -1.429408 -0.588145 0.002678000000000036
v 0.867773 -0.994672 0.0029890000000000606
v -1.429409 -0.5881449999999999 0.976449
v -1.429409 -0.5881449999999999 0.976449
v -1.210569 0.6529520000000001 0.976364
v -1.210569 0.652951 0.00172799999999996
v -1.429408 -0.588145 0.002678000000000036
v -1.159322 0.580709 0.878897
v -0.144889 0.40154200000000007 0.880324
v -0.14489 0.40154300000000004 0.978018
v -1.159321 0.5807100000000001 0.976591
v -0.343064 -0.722363 0.880324
v -1.357442 -0.542886 0.878897
v -1.357443 -0.5428849999999998 0.976591
v -0.343064 -0.7223629999999999 0.978017
v -1.357442 -0.542886 0.878897
v -1.159322 0.580709 0.878897
v -1.159321 0.5807100000000001 0.976591
v -1.357443 -0.5428849999999998 0.976591
v -0.082145 0.3885550000000001 1.971998
v 1.012402 0.19555600000000012 1.971998
v 1.012402 0.19555600000000015 2.069692
v -0.082145 0.3885560000000001 2.069692
v 1.012402 0.19555600000000012 1.971998
v 0.815567 -0.9207469999999999 1.971998
v 0.815567 -0.9207459999999998 2.069692
v 1.012402 0.19555600000000015 2.069692
v 0.815567 -0.9207469999999999 1.971998
v -0.27898 -0.7277469999999999 1.971998
v -0.278979 -0.7277469999999999 2.069692
v 0.815567 -0.9207459999999998 2.069692
v -0.27898 -0.7277469999999999 1.971998
v -0.082145 0.3885550000000001 1.971998
v -0.082145 0.3885560000000001 2.069692
v -0.278979 -0.7277469999999999 2.069692
v 1.086744 0.24717000000000014 2.069692
v -0.134149 0.4624470000000001 2.069692
v -0.082145 0.3885560000000001 2.069692
v 1.012402 0.19555600000000015 2.069692
v -0.278979 -0.7277469999999999 2.069692
v -0.082145 0.3885560000000001 2.069692
v -0.134149 0.4624470000000001 2.069692
v -0.353119 -0.7793959999999999 2.069692
v 0.815567 -0.9207459999999998 2.069692
v -0.278979 -0.7277469999999999 2.069692
v 0.867773 -0.9946729999999999 2.069692
v 1.012402 0.19555600000000015 2.069692
v 0.815567 -0.9207459999999998 2.069692
v 1.086744 0.24717000000000014 2.069692
v 0.766817 -0.7729569999999999 1.921998
v 0.817113 -0.4877069999999999 1.921998
v 0.54969 -0.4405539999999999 1.921998
v 0.499393 -0.7258019999999998 1.921998
v 1.283089 0.145867 -0.002281000000000009
v 1.283571 0.14572000000000002 0.25265
v 1.286501 0.07689400000000002 0.25265
v 1.285993 0.077126 -0.002281000000000005
v 1.23952 0.026034000000000015 0.25265
v 1.238951 0.02631 -0.0022810000000000018
v 1.170188 0.022939000000000015 0.25265
v 1.169566 0.023192 -0.0022810000000000013
v 1.119114 0.06941800000000001 0.25265
v 1.118478 0.069599 -0.0022810000000000044
v 1.11617 0.13824600000000004 0.25265
v 1.115553 0.138342 -0.0022810000000000087
v 1.163092 0.18911200000000003 0.25265
v 1.16252 0.189167 -0.0022810000000000118
v 1.232439 0.19220600000000002 0.25265
v 1.231926 0.192281 -0.0022810000000000118
v 1.283089 0.145867 -0.002281000000000009
v 1.283571 0.14572000000000002 0.25265
v -0.255099 -0.922625 5.649448765316634E-17
v -0.116013 -0.94715 5.799621079062078E-17
v -0.140608 -0.904315 0.529754
v -0.217337 -0.890785 0.529754
v -0.125673 -0.819615 0.617731
v -0.202402 -0.806085 0.617731
v -1.314952 -0.5116989999999999 1.269691
v -1.358569 -0.5992589999999999 1.227546
v -1.279913 -0.5410999999999999 1.269691
v -1.210723 -0.41291799999999995 1.227546
v -1.200732 -0.42130199999999995 1.227546
v -1.151821 -0.5493359999999999 1.269691
v -1.078533 -0.6141299999999998 1.227546
v -1.114355 -0.5231009999999999 1.269691
v -1.220262 -0.42309299999999994 1.227546
v -1.209577 -0.4156119999999999 1.227546
v -1.071523 -0.40555599999999997 1.269691
v -0.985571 -0.35884999999999995 1.227546
v -1.083361 -0.3613759999999999 1.269691
v -1.21356 -0.42669099999999993 1.227546
v -1.216936 -0.41409199999999996 1.227546
v 0.944445 -0.05514899999999986 2.267319
v 0.946599 -0.056806999999999885 1.975696
v 0.904054 0.00992100000000012 1.975696
v 0.901806 0.011236000000000138 2.267319
v 0.826759 0.02704900000000012 1.975696
v 0.824436 0.02831300000000014 2.267319
v 0.759994 -0.015455999999999878 1.975696
v 0.757673 -0.01392099999999986 2.267319
v 0.742863 -0.09269499999999987 1.975696
v 0.740578 -0.09074399999999987 2.267319
v 0.785402 -0.15942799999999988 1.975696
v 0.783153 -0.15718799999999986 2.267319
v 0.862695 -0.17655799999999988 1.975696
v 0.860504 -0.17428099999999985 2.267319
v 0.929468 -0.1340479999999999 1.975696
v 0.927333 -0.13198799999999986 2.267319
v 0.944445 -0.05514899999999986 2.267319
v 0.946599 -0.056806999999999885 1.975696
v 0.807417 0.13094200000000014 2.267319
v 0.809571 0.12928300000000012 1.975696
v 0.767026 0.1960100000000001 1.975696
v 0.764777 0.19732600000000014 2.267319
v 0.689731 0.2131390000000001 1.975696
v 0.687409 0.21440400000000015 2.267319
v 0.622966 0.17063400000000012 1.975696
v 0.620645 0.17216900000000013 2.267319
v 0.605835 0.09339500000000013 1.975696
v 0.60355 0.09534600000000014 2.267319
v 0.648374 0.026662000000000123 1.975696
v 0.646125 0.02890100000000014 2.267319
v 0.725667 0.009532000000000122 1.975696
v 0.723475 0.011809000000000139 2.267319
v 0.792439 0.052042000000000116 1.975696
v 0.790305 0.054102000000000136 2.267319
v 0.807417 0.13094200000000014 2.267319
v 0.809571 0.12928300000000012 1.975696
v 0.867773 -0.994672 0.0029890000000000606
v 1.086744 0.24717 0.002345999999999985
v 0.867773 -0.9946729999999999 2.069692
v 1.086744 0.24717000000000008 1.157474
v 1.086744 0.24717000000000014 2.069692
v -1.357442 -0.542886 0.878897
v -0.700407 -0.46611899999999995 0.87976
v -0.653762 -0.20158499999999993 0.87976
v -1.159322 0.580709 0.878897
v -0.263371 -0.27042199999999994 0.880541
v -0.077619 0.898241 0.529754
v -0.10946 0.936004 9.999999999426863E-07
v -0.133983 0.796918 9.999999999512028E-07
v -0.091148 0.821512 0.529754
v 0.007081 0.883307 0.617731
v -0.006449 0.806578 0.617731
v -1.271148 -0.40241799999999994 1.269691
v -1.210126 -0.43106799999999995 1.227546
v -1.200903 -0.42184399999999994 1.227546
v -1.229552 -0.3608219999999999 1.269691
v -1.373649 -0.25832099999999997 1.227546
v -1.228243 -0.3518919999999999 1.269691
v -1.216711 -0.41831099999999993 1.227546
v -1.203865 -0.4205769999999999 1.227546
v -1.170311 -0.36210699999999996 1.269691
v -1.168998 -0.18527699999999991 1.227546
v -0.653762 -0.20158499999999993 0.87976
v -0.653762 -0.20158499999999993 0.87976
v -0.71156 -0.19139299999999995 0.827187
v -0.653716 -0.20159299999999994 0.827927
v -0.653762 -0.20158499999999993 0.87976
v -0.263343 -0.27042999999999995 0.518423
v 1.286501 0.07689400000000002 0.25265
v 1.283571 0.14572000000000002 0.25265
v 1.23952 0.026034000000000015 0.25265
v 1.119114 0.06941800000000001 0.25265
v 1.170188 0.022939000000000015 0.25265
v 1.163092 0.18911200000000003 0.25265
v 1.11617 0.13824600000000004 0.25265
v 1.232439 0.19220600000000002 0.25265
v 0.893864 0.27382800000000007 1.25898
v 1.395743 0.18533300000000008 1.302366
v 1.458936 0.542141 0.898835
v 0.957057 0.630636 0.855449
v 1.493865 0.735489 0.718418
v 0.991986 0.842109 0.682438
v 0.490107 0.930604 0.6824379999999999
v 0.455178 0.719131 0.859377
v 0.391985 0.36232300000000006 1.270763
v -0.011772 1.013827 0.6831759999999999
v -0.109894 0.45081800000000005 1.302366
v -0.039803 0.818161 0.877198
v 0.860504 -0.17428099999999985 2.267319
v 0.927333 -0.13198799999999986 2.267319
v 0.783153 -0.15718799999999986 2.267319
v 0.757673 -0.01392099999999986 2.267319
v 0.740578 -0.09074399999999987 2.267319
v 0.901806 0.011236000000000138 2.267319
v 0.824436 0.02831300000000014 2.267319
v 0.944445 -0.05514899999999986 2.267319
v 0.723475 0.011809000000000139 2.267319
v 0.790305 0.054102000000000136 2.267319
v 0.646125 0.02890100000000014 2.267319
v 0.620645 0.17216900000000013 2.267319
v 0.60355 0.09534600000000014 2.267319
v 0.764777 0.19732600000000014 2.267319
v 0.687409 0.21440400000000015 2.267319
v 0.807417 0.13094200000000014 2.267319
v -0.700407 -0.46611899999999995 0.87976
v -0.700362 -0.46612699999999996 0.827927
v -0.700407 -0.46611899999999995 0.87976
v -0.700407 -0.46611899999999995 0.87976
v -0.309987 -0.534965 0.518423
v 1.012402 0.19555600000000012 1.971998
v -0.082145 0.3885550000000001 1.971998
v 0.54969 -0.4405539999999999 1.971998
v 0.817113 -0.4877069999999999 1.971998
v 0.499393 -0.7258019999999998 1.971998
v 0.815567 -0.9207469999999999 1.971998
v -0.27898 -0.7277469999999999 1.971998
v 0.766816 -0.7729559999999999 1.971998
vt 0.776607 0.668266
vt 0.776446 0.756829
vt 0.784136 0.756840
vt 0.784136 0.756840
vt 0.784285 0.668277
vt 0.776607 0.668266
vt 0.770638 0.672910
vt 0.770649 0.767564
vt 0.776446 0.756829
vt 0.776446 0.756829
vt 0.776607 0.668266
vt 0.770638 0.672910
vt 0.776470 0.756825
vt 0.770579 0.767568
vt 0.770591 0.672913
vt 0.770591 0.672913
vt 0.776652 0.668472
vt 0.776470 0.756825
vt 0.784285 0.668277
vt 0.784582 0.491150
vt 0.776930 0.491138
vt 0.776930 0.491138
vt 0.776607 0.668266
vt 0.784285 0.668277
vt 0.770614 0.483604
vt 0.770638 0.672910
vt 0.776607 0.668266
vt 0.776607 0.668266
vt 0.776930 0.491138
vt 0.770614 0.483604
vt 0.770591 0.672913
vt 0.770614 0.483604
vt 0.777016 0.491766
vt 0.777016 0.491766
vt 0.776652 0.668472
vt 0.770591 0.672913
vt 0.620150 0.188525
vt 0.502439 0.400726
vt 0.473069 0.454754
vt 0.620150 0.188525
vt 0.619766 0.432875
vt 0.619387 0.454791
vt 0.502439 0.400726
vt 0.502209 0.454770
vt 0.473069 0.454754
vt 0.028013 0.766496
vt 0.030966 0.810431
vt 0.005456 0.810534
vt 0.005456 0.810534
vt 0.009714 0.766407
vt 0.028013 0.766496
vt 0.037365 0.810355
vt 0.040290 0.766413
vt 0.058590 0.766285
vt 0.058590 0.766285
vt 0.062874 0.810402
vt 0.037365 0.810355
vt 0.390250 0.143005
vt 0.390250 0.143005
vt 0.390250 0.143005
vt 0.771973 0.104092
vt 0.771923 0.178259
vt 0.767885 0.178259
vt 0.767885 0.178259
vt 0.767935 0.104092
vt 0.771973 0.104092
vt 0.793337 0.124671
vt 0.867907 0.125381
vt 0.882834 0.153766
vt 0.882834 0.153766
vt 0.808778 0.154022
vt 0.793337 0.124671
vt 0.008673 0.756312
vt 0.002659 0.774777
vt 0.002659 0.530387
vt 0.869413 0.777332
vt 0.875427 0.758867
vt 0.875423 0.995916
vt 0.451840 0.778197
vt 0.580551 0.996108
vt 0.305869 0.533807
vt 0.467731 0.073635
vt 0.467732 0.144022
vt 0.267064 0.073863
vt 0.467732 0.144022
vt 0.390512 0.144023
vt 0.267064 0.073863
vt 0.390512 0.144023
vt 0.390512 0.144023
vt 0.267064 0.073863
vt 0.467733 0.495762
vt 0.267067 0.495873
vt 0.467732 0.243379
vt 0.467734 0.517152
vt 0.254072 0.517264
vt 0.265736 0.498149
vt 0.265736 0.498149
vt 0.467733 0.498056
vt 0.467734 0.517152
vt 0.254069 0.051284
vt 0.467731 0.051024
vt 0.467731 0.071262
vt 0.467731 0.071262
vt 0.265734 0.071480
vt 0.254069 0.051284
vt 0.254072 0.517264
vt 0.254069 0.051284
vt 0.265734 0.071480
vt 0.265734 0.071480
vt 0.265736 0.498149
vt 0.254072 0.517264
vt 0.775904 0.104092
vt 0.779942 0.104092
vt 0.779892 0.178259
vt 0.775854 0.178259
vt 0.775904 0.104092
vt 0.623032 0.384341
vt 0.641242 0.349635
vt 0.641703 0.365387
vt 0.641703 0.365387
vt 0.629933 0.416770
vt 0.650237 0.383314
vt 0.644693 0.439329
vt 0.641703 0.365387
vt 0.650237 0.383314
vt 0.663297 0.437684
vt 0.656997 0.382922
vt 0.662298 0.363749
vt 0.675873 0.412950
vt 0.663297 0.437684
vt 0.927912 0.201601
vt 0.882597 0.135745
vt 0.889508 0.123974
vt 0.889508 0.123974
vt 0.936183 0.123799
vt 0.119426 0.868824
vt 0.081517 0.768215
vt 0.125616 0.855683
vt 0.125707 0.766927
vt 0.125616 0.855683
vt 0.472985 0.188525
vt 0.620150 0.188525
vt 0.473069 0.454754
vt 0.534127 0.400581
vt 0.502439 0.400726
vt 0.619387 0.454791
vt 0.534246 0.454738
vt 0.784061 0.668274
vt 0.784136 0.756840
vt 0.776470 0.756825
vt 0.776652 0.668472
vt 0.770760 0.667349
vt 0.770755 0.753591
vt 0.776498 0.753277
vt 0.776502 0.667035
vt 0.776506 0.580792
vt 0.776511 0.494550
vt 0.770769 0.494865
vt 0.770764 0.581107
vt 0.776502 0.667035
vt 0.776506 0.580792
vt 0.770764 0.581107
vt 0.770760 0.667349
vt 0.783913 0.491141
vt 0.784061 0.668274
vt 0.776652 0.668472
vt 0.777016 0.491766
vt 0.116413 0.994257
vt 0.121495 0.875531
vt 0.131737 0.856055
vt 0.131113 0.994537
vt 0.073974 0.995169
vt 0.073352 0.856687
vt 0.083593 0.876164
vt 0.088674 0.994889
vt 0.875585 0.183380
vt 0.875587 0.511961
vt 0.789086 0.511963
vt 0.789084 0.183382
vt 0.938734 0.635336
vt 0.788681 0.635336
vt 0.788681 0.523070
vt 0.875351 0.523069
vt 0.938316 0.645042
vt 0.938317 0.740177
vt 0.788583 0.740178
vt 0.788579 0.645045
vt 0.560183 0.173710
vt 0.471791 0.173712
vt 0.471791 0.083270
vt 0.621886 0.083220
vt 0.707011 0.995495
vt 0.676625 0.995450
vt 0.676626 0.866715
vt 0.707011 0.866715
vt 0.116413 0.994257
vt 0.131113 0.994537
vt 0.131737 0.856055
vt 0.121495 0.875531
vt 0.073974 0.995169
vt 0.088674 0.994889
vt 0.083593 0.876164
vt 0.073352 0.856687
vt 0.883325 0.517969
vt 0.935789 0.618735
vt 0.883325 0.477826
vt 0.935788 0.477825
vt 0.033913 0.922323
vt 0.002285 0.922323
vt 0.002285 0.910718
vt 0.033913 0.910718
vt 0.795760 0.115668
vt 0.794588 0.055900
vt 0.899487 0.055876
vt 0.900495 0.115633
vt 0.033858 0.840160
vt 0.033868 0.981924
vt 0.002239 0.983084
vt 0.002231 0.841318
vt 0.390512 0.243381
vt 0.390251 0.242842
vt 0.390512 0.243381
vt 0.467732 0.243379
vt 0.764026 0.104092
vt 0.767935 0.104092
vt 0.767885 0.178259
vt 0.763955 0.178259
vt 0.775904 0.104092
vt 0.775854 0.178259
vt 0.771923 0.178259
vt 0.771973 0.104092
vt 0.785343 0.052855
vt 0.779490 0.092039
vt 0.768550 0.092039
vt 0.764433 0.052855
vt 0.740881 0.052855
vt 0.735077 0.092039
vt 0.724263 0.092040
vt 0.720214 0.052856
vt 0.719345 0.052762
vt 0.713492 0.091946
vt 0.702550 0.091946
vt 0.698435 0.052763
vt 0.762991 0.052855
vt 0.757186 0.092039
vt 0.746372 0.092039
vt 0.742323 0.052855
vt 0.673249 0.129290
vt 0.694481 0.129290
vt 0.694481 0.169195
vt 0.673249 0.169196
vt 0.650237 0.383314
vt 0.656997 0.382922
vt 0.663297 0.437684
vt 0.644693 0.439329
vt 0.653739 0.368109
vt 0.641703 0.365387
vt 0.647652 0.347622
vt 0.658537 0.353222
vt 0.651771 0.069563
vt 0.651771 0.058643
vt 0.672882 0.058643
vt 0.672882 0.069563
vt 0.548238 0.067911
vt 0.548238 0.056989
vt 0.569348 0.056990
vt 0.569348 0.067911
vt 0.952462 0.239387
vt 0.952186 0.381184
vt 0.936884 0.351571
vt 0.937665 0.210755
vt 0.935789 0.618735
vt 0.883325 0.517969
vt 0.883325 0.477826
vt 0.935788 0.477825
vt 0.651771 0.069563
vt 0.577200 0.069559
vt 0.577200 0.058640
vt 0.651771 0.058643
vt 0.473668 0.056986
vt 0.548238 0.056989
vt 0.548238 0.067911
vt 0.473668 0.067908
vt 0.148630 0.530387
vt 0.148630 0.734629
vt 0.002659 0.530387
vt 0.008673 0.756312
vt 0.740701 0.995951
vt 0.740701 0.777734
vt 0.875423 0.995916
vt 0.869413 0.777332
vt 0.049864 0.084373
vt 0.080263 0.084373
vt 0.080263 0.096148
vt 0.049864 0.096148
vt 0.017439 0.084373
vt 0.049864 0.084373
vt 0.049864 0.096148
vt 0.017439 0.096147
vt 0.112689 0.084373
vt 0.143089 0.084373
vt 0.143089 0.096147
vt 0.112689 0.096147
vt 0.080263 0.084373
vt 0.112689 0.084373
vt 0.112689 0.096147
vt 0.080263 0.096148
vt 0.451840 0.533807
vt 0.451840 0.778197
vt 0.305869 0.533807
vt 0.580551 0.996108
vt 0.305869 0.996108
vt 0.580551 0.778579
vt 0.586239 0.777702
vt 0.733747 0.777721
vt 0.733747 0.995938
vt 0.586239 0.995725
vt 0.657753 0.042234
vt 0.536461 0.041915
vt 0.536461 0.020041
vt 0.657753 0.020361
vt 0.913383 0.041915
vt 0.792092 0.042234
vt 0.792092 0.020361
vt 0.913383 0.020042
vt 0.792092 0.042234
vt 0.657753 0.042234
vt 0.657753 0.020361
vt 0.792092 0.020361
vt 0.530852 0.041646
vt 0.399987 0.041647
vt 0.399987 0.019773
vt 0.530851 0.019773
vt 0.399987 0.041647
vt 0.266521 0.041647
vt 0.266521 0.019773
vt 0.399987 0.019773
vt 0.266521 0.041647
vt 0.135656 0.041647
vt 0.135656 0.019773
vt 0.266521 0.019773
vt 0.135656 0.041647
vt 0.002190 0.041646
vt 0.002190 0.019773
vt 0.135656 0.019773
vt 0.247572 0.058516
vt 0.247572 0.519281
vt 0.236067 0.495477
vt 0.236067 0.083257
vt 0.017194 0.496694
vt 0.234438 0.496694
vt 0.248620 0.519281
vt 0.002151 0.519281
vt 0.013982 0.083257
vt 0.013982 0.495477
vt 0.002151 0.058516
vt 0.234438 0.081564
vt 0.017194 0.081564
vt 0.248620 0.058516
vt 0.042248 0.110624
vt 0.097169 0.110625
vt 0.097169 0.209856
vt 0.042248 0.209856
vt 0.904812 0.295694
vt 0.879775 0.295694
vt 0.879775 0.282496
vt 0.904812 0.282495
vt 0.879775 0.266495
vt 0.904812 0.266494
vt 0.879775 0.250368
vt 0.904812 0.250367
vt 0.879775 0.235733
vt 0.904812 0.235732
vt 0.879775 0.219620
vt 0.904812 0.219620
vt 0.879775 0.204906
vt 0.904812 0.204905
vt 0.879775 0.188747
vt 0.904812 0.188746
vt 0.904812 0.174620
vt 0.879775 0.174620
vt 0.094074 0.994438
vt 0.110703 0.994438
vt 0.106975 0.875523
vt 0.097801 0.875523
vt 0.106975 0.847979
vt 0.097801 0.847979
vt 0.758111 0.152164
vt 0.754349 0.184702
vt 0.750587 0.152163
vt 0.755421 0.103559
vt 0.753277 0.103559
vt 0.746469 0.150748
vt 0.742707 0.183287
vt 0.738946 0.150748
vt 0.743780 0.102142
vt 0.741634 0.102142
vt 0.734145 0.149310
vt 0.730383 0.181849
vt 0.726621 0.149310
vt 0.731455 0.100705
vt 0.729311 0.100705
vt 0.879784 0.800766
vt 0.914502 0.800766
vt 0.914502 0.820478
vt 0.879784 0.820478
vt 0.914502 0.840905
vt 0.879784 0.840905
vt 0.914502 0.861091
vt 0.879784 0.861091
vt 0.914502 0.880223
vt 0.879784 0.880224
vt 0.914502 0.900773
vt 0.879784 0.900773
vt 0.914502 0.923070
vt 0.879784 0.923070
vt 0.914502 0.945165
vt 0.879784 0.945165
vt 0.879784 0.965287
vt 0.914502 0.965287
vt 0.879849 0.304016
vt 0.914567 0.304016
vt 0.914567 0.323728
vt 0.879849 0.323728
vt 0.914567 0.344157
vt 0.879849 0.344157
vt 0.914567 0.364341
vt 0.879849 0.364341
vt 0.914567 0.383475
vt 0.879849 0.383475
vt 0.914567 0.404023
vt 0.879849 0.404024
vt 0.914567 0.426322
vt 0.879849 0.426322
vt 0.914567 0.448415
vt 0.879849 0.448415
vt 0.879849 0.468538
vt 0.914567 0.468537
vt 0.299383 0.995769
vt 0.151879 0.995700
vt 0.299383 0.532274
vt 0.152798 0.736516
vt 0.152798 0.532274
vt 0.267064 0.073863
vt 0.390512 0.144023
vt 0.390512 0.243381
vt 0.267067 0.495873
vt 0.467732 0.243379
vt 0.106975 0.875523
vt 0.110703 0.994438
vt 0.094074 0.994438
vt 0.097801 0.875523
vt 0.106975 0.847979
vt 0.097801 0.847979
vt 0.700494 0.124886
vt 0.704258 0.101072
vt 0.706405 0.101072
vt 0.710169 0.124886
vt 0.705330 0.182215
vt 0.713113 0.125122
vt 0.716878 0.101307
vt 0.719023 0.101307
vt 0.722789 0.125122
vt 0.717951 0.182452
vt 0.125616 0.855683
vt 0.125616 0.855683
vt 0.119426 0.868824
vt 0.125616 0.855683
vt 0.125616 0.855683
vt 0.081517 0.768215
vt 0.922544 0.312275
vt 0.929432 0.312298
vt 0.917653 0.321322
vt 0.922478 0.343205
vt 0.917626 0.334134
vt 0.934259 0.334195
vt 0.929367 0.343231
vt 0.934285 0.321380
vt 0.671006 0.483605
vt 0.770614 0.483604
vt 0.770591 0.672913
vt 0.670982 0.672914
vt 0.770579 0.767568
vt 0.670971 0.767568
vt 0.571362 0.767568
vt 0.571374 0.672914
vt 0.571398 0.483607
vt 0.471754 0.767568
vt 0.471789 0.483608
vt 0.471766 0.672915
vt 0.933325 0.798808
vt 0.939923 0.811280
vt 0.923997 0.798808
vt 0.917405 0.828902
vt 0.917405 0.811280
vt 0.933325 0.841357
vt 0.923997 0.841357
vt 0.939923 0.828902
vt 0.923498 0.259040
vt 0.930097 0.271512
vt 0.914171 0.259040
vt 0.907579 0.289134
vt 0.907579 0.271512
vt 0.923498 0.301590
vt 0.914171 0.301590
vt 0.930097 0.289134
vt 0.889508 0.123974
vt 0.889508 0.123974
vt 0.889508 0.123974
vt 0.889508 0.123974
vt 0.927912 0.201601
vt 0.234438 0.083257
vt 0.234438 0.495477
vt 0.098016 0.210703
vt 0.098016 0.109778
vt 0.041401 0.210703
vt 0.017194 0.083257
vt 0.017194 0.495477
vt 0.041401 0.109777
vn -0.120932 -0.685849 -0.717626
vn -0.120932 -0.685849 -0.717626
vn -0.120932 -0.685849 -0.717626
vn -0.493235 -0.526322 -0.692607
vn -0.493235 -0.526322 -0.692607
vn -0.493235 -0.526322 -0.692607
vn -0.984179 0.174017 0.03330499999999999
vn -0.984179 0.174017 0.03330499999999999
vn -0.984179 0.174017 0.03330499999999999
vn -0.988709 0.149277 0.01305199999999999
vn -0.988709 0.149277 0.01305199999999999
vn -0.988709 0.149277 0.01305199999999999
vn 0.984808 -0.173585 0.0046340000000000105
vn 0.984808 -0.173585 0.0046340000000000105
vn 0.984808 -0.173585 0.0046340000000000105
vn 0.986952 -0.160187 0.01630600000000001
vn 0.986952 -0.160187 0.01630600000000001
vn 0.986952 -0.160187 0.01630600000000001
vn -0.133601 -0.757665 -0.638823
vn -0.133601 -0.757665 -0.638823
vn -0.133601 -0.757665 -0.638823
vn -0.522967 -0.600031 -0.605367
vn -0.522967 -0.600031 -0.605367
vn -0.522967 -0.600031 -0.605367
vn -0.986473 0.162399 -0.02231200000000001
vn -0.986473 0.162399 -0.02231200000000001
vn -0.986473 0.162399 -0.02231200000000001
vn -0.989446 0.139063 -0.040719000000000005
vn -0.989446 0.139063 -0.040719000000000005
vn -0.989446 0.139063 -0.040719000000000005
vn 0.990527 -0.131784 0.03859100000000001
vn 0.990527 -0.131784 0.03859100000000001
vn 0.990527 -0.131784 0.03859100000000001
vn 0.987313 -0.158376 0.01140400000000001
vn 0.987313 -0.158376 0.01140400000000001
vn 0.987313 -0.158376 0.01140400000000001
vn 0.984811 -0.173633 -1.4999999999989368E-05
vn 0.984811 -0.173633 -1.4999999999989368E-05
vn 0.984811 -0.173633 -1.4999999999989368E-05
vn -0.983551 0.180632 -1.1060520031179234E-17
vn -0.983551 0.180632 -1.1060520031179234E-17
vn -0.983551 0.180632 -1.1060520031179234E-17
vn -0.984277 0.176604 -0.003059000000000011
vn -0.984277 0.176604 -0.003059000000000011
vn -0.984277 0.176604 -0.003059000000000011
vn -0.222273 -0.962785 -0.15374899999999994
vn -0.222273 -0.962785 -0.15374899999999994
vn -0.222273 -0.962785 -0.15374899999999994
vn -0.212813 -0.966467 -0.14371099999999995
vn -0.212813 -0.966467 -0.14371099999999995
vn -0.212813 -0.966467 -0.14371099999999995
vn 0.212208 0.964877 0.15485399999999994
vn 0.212208 0.964877 0.15485399999999994
vn 0.212208 0.964877 0.15485399999999994
vn 0.222671 0.963937 0.14575299999999994
vn 0.222671 0.963937 0.14575299999999994
vn 0.222671 0.963937 0.14575299999999994
vn 1 0 0
vn 1 0 0
vn 1 0 0
vn -0.146702 0.989181 -6.05698672713689E-17
vn 0.476149 0.879364 -5.3845515394270655E-17
vn -0.984809 0.17364 -1.063238351019732E-17
vn -0.984809 0.17364 -1.063238351019732E-17
vn -0.984809 0.173639 -1.0632322277857363E-17
vn -0.146702 0.989181 -6.05698672713689E-17
vn -0.173649 -0.984808 6.030209824873533E-17
vn -0.173649 -0.984808 6.030209824873533E-17
vn -0.173649 -0.984808 6.030209824873533E-17
vn -0.178782 -0.983882 0.0036930000000000604
vn -0.178782 -0.983882 0.0036930000000000604
vn -0.178782 -0.983882 0.0036930000000000604
vn 0.175716 0.984441 0.0003159999999999397
vn 0.175716 0.984441 0.0003159999999999397
vn 0.175716 0.984441 0.0003159999999999397
vn 0.176009 0.984389 0.00013199999999993973
vn 0.176009 0.984389 0.00013199999999993973
vn 0.176009 0.984389 0.00013199999999993973
vn -0.168429 -0.985691 -0.006675999999999939
vn -0.168429 -0.985691 -0.006675999999999939
vn -0.168429 -0.985691 -0.006675999999999939
vn -0.001563 -0.0008849999999999388 0.999998
vn -0.001563 -0.0008849999999999388 0.999998
vn -0.001563 -0.0008849999999999388 0.999998
vn -0.001588 0.0023410000000000613 0.999996
vn -0.001588 0.0023410000000000613 0.999996
vn -0.001588 0.0023410000000000613 0.999996
vn 1 0 0
vn 1 0 0
vn 1 0 0
vn -0.001309 0.0005540000000000613 0.999999
vn -0.001309 0.0005540000000000613 0.999999
vn -0.001309 0.0005540000000000613 0.999999
vn -0.001271 0.002240000000000061 0.999997
vn -0.001271 0.002240000000000061 0.999997
vn -0.001271 0.002240000000000061 0.999997
vn -0.001756 -0.0019759999999999387 0.999997
vn -0.001756 -0.0019759999999999387 0.999997
vn -0.001756 -0.0019759999999999387 0.999997
vn -0.001112 0.002685000000000061 0.999996
vn -0.001112 0.002685000000000061 0.999996
vn -0.001112 0.002685000000000061 0.999996
vn -0.00153 -0.0006969999999999388 0.999999
vn -0.00153 -0.0006969999999999388 0.999999
vn -0.00153 -0.0006969999999999388 0.999999
vn -0.002262 0.00046800000000006125 0.999997
vn -0.002262 0.00046800000000006125 0.999997
vn -0.002262 0.00046800000000006125 0.999997
vn -0.003547 0.0006260000000000613 0.999994
vn -0.003547 0.0006260000000000613 0.999994
vn -0.003547 0.0006260000000000613 0.999994
vn 0.984812 -0.173626 1.0631526257437917E-17
vn -0.476154 -0.879362 5.384539292959074E-17
vn 0.146712 -0.989179 6.056974480668898E-17
vn 0.984812 -0.173626 1.0631526257437917E-17
vn 0.984812 -0.173626 1.0631526257437917E-17
vn 0.545678 -0.822628 0.15974700000000006
vn 0.658552 -0.27419199999999994 0.700806
vn -0.285657 -0.784595 0.550282
vn -0.285657 -0.784595 0.550282
vn -0.883737 -0.439502 0.16077000000000002
vn -0.540835 0.525419 0.656835
vn -0.73035 0.649071 0.21282799999999996
vn -0.285657 -0.784595 0.550282
vn -0.540835 0.525419 0.656835
vn 0.650261 0.743565 0.15579199999999996
vn 0.514781 0.534147 0.670587
vn 0.658552 -0.27419199999999994 0.700806
vn 0.545678 -0.822628 0.15974700000000006
vn 0.650261 0.743565 0.15579199999999996
vn 0.173648 0.984808 -1.0000000000060303E-05
vn 0.173652 0.984807 -7.000000000060302E-06
vn 0.173652 0.984807 -7.000000000060302E-06
vn 0.173648 0.984808 -1.0000000000060303E-05
vn 0.173648 0.984808 -1.0000000000060303E-05
vn -0.173655 -0.984807 2.000000000060302E-06
vn -0.173649 -0.984808 8.000000000060302E-06
vn -0.173655 -0.984807 2.000000000060302E-06
vn -0.173649 -0.984808 8.000000000060302E-06
vn -0.173649 -0.984808 8.000000000060302E-06
vn -0.984808 0.173648 -2.0000000000106327E-06
vn -0.984808 0.173648 -2.0000000000106327E-06
vn -0.984808 0.173648 -2.0000000000106327E-06
vn -0.984808 0.173649 -1.0632934601256937E-17
vn -0.984808 0.173647 -2.0000000000106327E-06
vn -0.984808 0.173649 -1.0632934601256937E-17
vn -0.984808 0.173649 -1.0632934601256937E-17
vn -0.116378 -0.660017 -0.742182
vn -0.116381 -0.660016 -0.742182
vn -0.116378 -0.660017 -0.742182
vn -0.116378 -0.660017 -0.742182
vn -0.149814 -0.948867 0.27786000000000005
vn -0.149814 -0.948866 0.27786700000000003
vn -0.149814 -0.948867 0.27786000000000005
vn -0.149814 -0.948867 0.27786000000000005
vn -0.18999 -0.942219 0.2759130000000001
vn -0.18999 -0.942218 0.2759130000000001
vn -0.18999 -0.942219 0.2759130000000001
vn -0.18999 -0.942219 0.2759130000000001
vn -0.160514 -0.947255 0.2773880000000001
vn -0.160514 -0.947255 0.2773880000000001
vn -0.160514 -0.947255 0.2773880000000001
vn -0.160514 -0.947255 0.2773880000000001
vn -0.128945 -0.731348 -0.669704
vn -0.128955 -0.731345 -0.669705
vn -0.128945 -0.731348 -0.669704
vn -0.128945 -0.731348 -0.669704
vn -0.308951 0.947505 0.08236199999999995
vn -0.83003 0.474121 0.29369999999999996
vn -0.386338 0.762523 0.518943
vn 0.173428 0.983516 0.05118299999999994
vn -0.199034 -0.978428 0.055363000000000065
vn -0.634021 -0.579518 0.512032
vn -0.784721 -0.431844 0.444662
vn -0.954486 -0.284234 0.09037400000000001
vn 0.173648 0.984808 9.999999999396978E-07
vn 0.173648 0.984808 9.999999999396978E-07
vn 0.173648 0.984808 9.999999999396978E-07
vn 0.173648 0.984808 9.999999999396978E-07
vn 0.984808 -0.173648 1.063287336891698E-17
vn 0.984808 -0.173649 1.0632934601256937E-17
vn 0.984808 -0.173648 1.063287336891698E-17
vn 0.984808 -0.173647 1.0000000000106328E-06
vn -0.173645 -0.984808 1.0000000000603021E-06
vn -0.173648 -0.984808 2.000000000060302E-06
vn -0.173645 -0.984808 1.0000000000603021E-06
vn -0.173642 -0.984809 6.030215948107529E-17
vn -0.981847 0.189674 -1.1614182849073754E-17
vn -0.981847 0.189676 -1.0000000000116143E-06
vn -0.981847 0.189674 -1.1614182849073754E-17
vn -0.981847 0.189673 9.999999999883859E-07
vn -0.984816 0.173601 -7.000000000001062E-05
vn -0.984808 0.173648 -4.900000000001063E-05
vn -0.984816 0.173601 -7.000000000001062E-05
vn -0.984816 0.173601 -7.000000000001062E-05
vn 0.784696 -0.614385 0.08236200000000005
vn 0.983518 -0.173416 0.05118300000000001
vn 0.584401 -0.623836 0.518945
vn 0.16164 -0.942132 0.29370000000000007
vn -0.987495 0.147608 0.05536399999999999
vn -0.593548 -0.799709 0.09037400000000005
vn -0.674191 -0.589697 0.44466300000000003
vn -0.761415 -0.39758199999999994 0.512031
vn 0.173647 0.984808 -6.030209824873533E-17
vn 0.173491 0.984836 0.00011199999999993969
vn 0.173491 0.984836 0.00011199999999993969
vn 0.173491 0.984836 0.00011199999999993969
vn 0.984807 -0.173651 0.0008950000000000106
vn 0.984807 -0.173651 0.0008950000000000106
vn 0.984807 -0.173651 0.0008950000000000106
vn 0.984807 -0.173651 0.0008950000000000106
vn -0.695093 0.12256400000000005 0.708395
vn -0.695094 0.12256300000000005 0.708395
vn -0.695093 0.12256400000000005 0.708395
vn -0.695093 0.12256400000000005 0.708395
vn 0.606071 -0.10686699999999996 0.788199
vn 0.606071 -0.10686799999999996 0.788199
vn 0.606071 -0.10686699999999996 0.788199
vn 0.606071 -0.10686699999999996 0.788199
vn 1 0 0
vn 1 0 0
vn 1 0 0
vn 1 0 0
vn -0.476154 -0.879362 5.384539292959074E-17
vn -0.984809 0.173639 -1.0632322277857363E-17
vn -0.984809 0.17364 -1.063238351019732E-17
vn 0.146712 -0.989179 6.056974480668898E-17
vn 0.984812 -0.173626 1.0631526257437917E-17
vn 0.984812 -0.173626 1.0631526257437917E-17
vn 0.476149 0.879364 -5.3845515394270655E-17
vn -0.146702 0.989181 -6.05698672713689E-17
vn -0.95701 0.16875099999999998 -0.235915
vn -0.957007 0.16875799999999996 -0.235921
vn -0.95701 0.16875099999999998 -0.235915
vn -0.957012 0.16874299999999998 -0.23591
vn -0.168627 -0.956384 -0.23852799999999993
vn -0.168623 -0.956385 -0.23852499999999993
vn -0.168627 -0.956384 -0.23852799999999993
vn -0.16863 -0.956382 -0.23853099999999994
vn 0.95701 -0.16874800000000004 -0.235915
vn 0.95701 -0.16874700000000004 -0.235914
vn 0.95701 -0.16874800000000004 -0.235915
vn 0.95701 -0.16874800000000004 -0.235915
vn 0.168641 0.956379 -0.23853500000000005
vn 0.168649 0.956376 -0.23854200000000006
vn 0.168641 0.956379 -0.23853500000000005
vn 0.168632 0.956382 -0.23852900000000005
vn 0 6.123233995736766E-17 1
vn 0 6.123233995736766E-17 1
vn 0 6.123233995736766E-17 1
vn 0 6.123233995736766E-17 1
vn -0.540835 0.525419 0.656835
vn 0.514781 0.534147 0.670587
vn 0.650261 0.743565 0.15579199999999996
vn -0.73035 0.649071 0.21282799999999996
vn -0.540835 0.525419 0.656835
vn -0.285657 -0.784595 0.550282
vn 0.658552 -0.27419199999999994 0.700806
vn 0.514781 0.534147 0.670587
vn -0.984806 0.173656 -1.0633363227636638E-17
vn -0.984806 0.173656 -1.0633363227636638E-17
vn -0.984806 0.173656 -1.0633363227636638E-17
vn -0.984806 0.173656 -1.0633363227636638E-17
vn -0.984809 0.173642 -1.0632505974877234E-17
vn -0.984808 0.173648 1.999999999989367E-06
vn -0.984809 0.173642 -1.0632505974877234E-17
vn -0.984809 0.173642 -1.0632505974877234E-17
vn 0.173693 0.9848 -9.000000000060302E-06
vn 0.173741 0.984791 -9.20000000000603E-05
vn 0.173693 0.9848 -9.000000000060302E-06
vn 0.173693 0.9848 -9.000000000060302E-06
vn -0.173491 -0.984836 -0.00011199999999993969
vn -0.173647 -0.984808 6.030209824873533E-17
vn -0.173491 -0.984836 -0.00011199999999993969
vn -0.173491 -0.984836 -0.00011199999999993969
vn -0.699831 0.12342500000000005 0.703565
vn -0.699829 0.12344500000000004 0.703563
vn -0.699831 0.12342500000000005 0.703565
vn -0.699833 0.12340500000000004 0.703566
vn -0.699845 0.12342500000000005 0.70355
vn -0.699848 0.12340200000000004 0.703551
vn -0.699845 0.12342500000000005 0.70355
vn -0.699843 0.12344800000000004 0.703549
vn 0.173649 0.984808 -6.030209824873533E-17
vn 0.173807 0.98478 0.0002179999999999397
vn 0.173807 0.98478 0.0002179999999999397
vn 0.173807 0.98478 0.0002179999999999397
vn 0.173941 0.984756 -1.000000000060299E-06
vn 0.173961 0.984753 2.29999999999397E-05
vn 0.173961 0.984753 2.29999999999397E-05
vn 0.173961 0.984753 2.29999999999397E-05
vn -0.173646 -0.984808 6.030209824873533E-17
vn -0.173646 -0.984808 6.030209824873533E-17
vn -0.173646 -0.984808 6.030209824873533E-17
vn -0.173646 -0.984808 6.030209824873533E-17
vn -0.984808 0.173646 -1.2000000000010632E-05
vn -0.984808 0.173648 -1.063287336891698E-17
vn -0.984808 0.173646 -1.2000000000010632E-05
vn -0.984808 0.173646 -1.2000000000010632E-05
vn 0.173649 0.984808 -6.030209824873533E-17
vn 0.173648 0.984808 -4.000000000060302E-06
vn 0.173649 0.984808 -6.030209824873533E-17
vn 0.173649 0.984808 -6.030209824873533E-17
vn 0.984808 -0.173649 1.0632934601256937E-17
vn 0.984808 -0.173649 1.0632934601256937E-17
vn 0.984808 -0.173649 1.0632934601256937E-17
vn 0.984808 -0.173649 1.0632934601256937E-17
vn -0.173648 -0.984808 -0.0006639999999999397
vn -0.174302 -0.984692 6.029499529730028E-17
vn -0.17426 -0.9847 6.029548515601994E-17
vn -0.17426 -0.9847 6.029548515601994E-17
vn -0.17426 -0.9847 6.029548515601994E-17
vn -0.174302 -0.984692 6.029499529730028E-17
vn -0.984808 0.173648 -1.0000000000106328E-06
vn -0.984808 0.173649 -1.0632934601256937E-17
vn -0.984808 0.173648 -1.0000000000106328E-06
vn -0.984808 0.173648 -1.0000000000106328E-06
vn -0.173926 -0.984759 8.000000000060298E-06
vn -0.173926 -0.984759 4.000000000060299E-06
vn -0.173926 -0.984759 8.000000000060298E-06
vn -0.173926 -0.984759 8.000000000060298E-06
vn 0.174227 0.984705 -9.000000000060295E-06
vn 0.174228 0.984705 -6.000000000060296E-06
vn 0.174227 0.984705 -9.000000000060295E-06
vn 0.174227 0.984705 -9.000000000060295E-06
vn 0.984808 -0.17365 1.0000000000010634E-05
vn 0.984808 -0.173648 -6.999999999989367E-06
vn 0.984808 -0.17365 1.0000000000010634E-05
vn 0.984808 -0.17365 1.0000000000010634E-05
vn -0.17365 -0.984808 1.7000000000060302E-05
vn -0.173648 -0.984808 4.000000000060302E-06
vn -0.17365 -0.984808 1.7000000000060302E-05
vn -0.17365 -0.984808 1.7000000000060302E-05
vn -0.984808 0.173649 -2.0000000000106327E-06
vn -0.984808 0.173649 1.999999999989367E-06
vn -0.984808 0.173649 -2.0000000000106327E-06
vn -0.984808 0.173649 -2.0000000000106327E-06
vn 0.173649 0.984808 -9.000000000060302E-06
vn 0.173649 0.984808 -7.000000000060302E-06
vn 0.173649 0.984808 -9.000000000060302E-06
vn 0.173649 0.984808 -9.000000000060302E-06
vn 0.984808 -0.173649 -1.999999999989367E-06
vn 0.984808 -0.173649 -2.9999999999893673E-06
vn 0.984808 -0.173649 -1.999999999989367E-06
vn 0.984808 -0.173649 -1.999999999989367E-06
vn 0 -1.9999999999387675E-06 1
vn 0 6.123233995736766E-17 1
vn 0 -1.9999999999387675E-06 1
vn 0 -1.9999999999387675E-06 1
vn 0 6.123233995736766E-17 1
vn -0 6.123233995736766E-17 1
vn 0 6.123233995736766E-17 1
vn 0 6.123233995736766E-17 1
vn -1E-06 -6.999999999938768E-06 1
vn 0 6.123233995736766E-17 1
vn -1E-06 -6.999999999938768E-06 1
vn 8E-06 -9.999999999387675E-07 1
vn 8E-06 -9.999999999387675E-07 1
vn -2E-06 6.123233995736766E-17 1
vn -0 -9.999999999387675E-07 1
vn -0 -9.999999999387675E-07 1
vn -0 -9.999999999387675E-07 1
vn -0 -9.999999999387675E-07 1
vn 0.905628 0.42407 -0.001572000000000026
vn 0.905708 0.423901 -0.001471000000000026
vn 0.977194 -0.212337 -0.002110999999999987
vn 0.882402 -0.47049 -0.0022909999999999714
vn 0.540219 -0.841522 -0.0020099999999999485
vn 0.293933 -0.955825 -0.0016609999999999414
vn -0.208484 -0.978026 -0.0004909999999999402
vn -0.464607 -0.885517 0.00034200000000005423
vn -0.838672 -0.544634 0.0016180000000000335
vn -0.9554 -0.295307 0.002152000000000018
vn -0.977277 0.211954 0.002466999999999987
vn -0.882701 0.469929 0.002226999999999971
vn -0.540668 0.841235 0.0014779999999999483
vn -0.294165 0.955754 0.0008889999999999415
vn 0.339413 0.940637 -0.00034700000000005755
vn 0.339102 0.94075 -0.0004050000000000576
vn 0.905628 0.42407 -0.001572000000000026
vn 0.905708 0.423901 -0.001471000000000026
vn -0.593548 -0.799709 0.09037400000000005
vn 0.784696 -0.614385 0.08236200000000005
vn 0.16164 -0.942132 0.29370000000000007
vn -0.674191 -0.589697 0.44466300000000003
vn 0.584401 -0.623836 0.518945
vn -0.761415 -0.39758199999999994 0.512031
vn -0.04171 -0.04970799999999994 0.997892
vn -0.260401 -0.31033599999999995 0.914266
vn 0.036591 0.04360400000000006 0.998379
vn 0.182103 0.21702000000000005 0.959031
vn 0.182106 0.21701800000000004 0.959031
vn 0.037219 -0.053152999999999936 0.997892
vn 0.232366 -0.33184499999999995 0.914267
vn -0.032647 0.04663100000000006 0.998379
vn -0.162492 0.23206700000000005 0.959032
vn -0.162488 0.23207100000000006 0.959031
vn 0.062679 0.016795000000000063 0.997892
vn 0.39131 0.10485100000000006 0.914266
vn -0.054985 -0.01472899999999994 0.998379
vn -0.273649 -0.07331799999999994 0.959031
vn -0.273651 -0.07331399999999995 0.959031
vn 0.984653 0.1744 0.006590999999999989
vn 0.984763 0.17379 0.0062859999999999895
vn 0.679165 0.733984 0.0016029999999999552
vn 0.454815 0.890586 -0.00042900000000005455
vn -0.037568 0.999283 -0.004712000000000062
vn -0.305819 0.952065 -0.006842000000000058
vn -0.732132 0.681102 -0.009133000000000042
vn -0.889276 0.457272 -0.009553000000000028
vn -0.999283 -0.037104 -0.0075159999999999975
vn -0.951556 -0.307431 -0.0051729999999999806
vn -0.679479 -0.733695 0.0001660000000000449
vn -0.455197 -0.890384 0.0033870000000000545
vn 0.037476 -0.999265 0.00802400000000006
vn 0.305804 -0.952047 0.009470000000000058
vn 0.818487 -0.574435 0.010184000000000035
vn 0.817976 -0.575164 0.010051000000000034
vn 0.984653 0.1744 0.006590999999999989
vn 0.984763 0.17379 0.0062859999999999895
vn 0.984653 0.174401 0.006590999999999989
vn 0.984763 0.17379 0.00628699999999999
vn 0.679165 0.733984 0.001601999999999955
vn 0.454817 0.890585 -0.0004300000000000545
vn -0.037567 0.999283 -0.004713000000000062
vn -0.305819 0.952065 -0.006843000000000058
vn -0.732133 0.681101 -0.009133000000000042
vn -0.889276 0.457272 -0.009553000000000028
vn -0.999283 -0.037105 -0.0075159999999999975
vn -0.951556 -0.307433 -0.0051729999999999806
vn -0.679478 -0.733696 0.0001660000000000449
vn -0.455195 -0.890385 0.0033860000000000548
vn 0.037479 -0.999265 0.00802200000000006
vn 0.305805 -0.952047 0.009469000000000059
vn 0.818486 -0.574436 0.010184000000000035
vn 0.817977 -0.575164 0.010050000000000035
vn 0.984653 0.174401 0.006590999999999989
vn 0.984763 0.17379 0.00628699999999999
vn 0.984808 -0.173649 1.0632934601256937E-17
vn 0.984808 -0.173649 1.0632934601256937E-17
vn 0.984808 -0.173649 1.0632934601256937E-17
vn 0.984808 -0.173649 1.0632934601256937E-17
vn 0.984808 -0.173649 1.0632934601256937E-17
vn -0.001342 0.00023700000000006122 0.999999
vn -0.001342 0.00023700000000006122 0.999999
vn -0.002038 -0.00021299999999993877 0.999998
vn -0.002038 -0.00021299999999993877 0.999998
vn -0.002038 -0.00021299999999993877 0.999998
vn -0.83003 0.474121 0.29369999999999996
vn -0.308951 0.947505 0.08236199999999995
vn -0.954486 -0.284234 0.09037400000000001
vn -0.784721 -0.431844 0.444662
vn -0.386338 0.762523 0.518943
vn -0.634021 -0.579518 0.512032
vn 0.221988 -0.22198499999999993 0.949444
vn 0.391416 -0.39140299999999995 0.832825
vn 0.391413 -0.3914099999999999 0.832823
vn 0.122926 -0.12292899999999994 0.984773
vn -0.166118 0.16612100000000005 0.972013
vn -0.054528 -0.30916999999999994 0.949442
vn -0.096156 -0.545136 0.832815
vn -0.096139 -0.545132 0.832819
vn -0.030188 -0.17120299999999994 0.984773
vn 0.040796 0.23135800000000006 0.972013
vn 1 0 0
vn 1 0 0
vn 1 0 0
vn 1 0 0
vn 1 0 0
vn 1 0 0
vn 0 6.123233995736766E-17 1
vn 0 6.123233995736766E-17 1
vn 0 6.123233995736766E-17 1
vn 0 6.123233995736766E-17 1
vn 0 6.123233995736766E-17 1
vn 0 6.123233995736766E-17 1
vn 0 6.123233995736766E-17 1
vn 0 6.123233995736766E-17 1
vn 0.1065 0.738167 0.666159
vn 0.073072 0.741436 0.667033
vn 0.067325 0.720294 0.690394
vn 0.094468 0.671478 0.734979
vn 0.066222 0.650163 0.756903
vn 0.092918 0.621236 0.778095
vn 0.110246 0.624151 0.773486
vn 0.143821 0.697147 0.702355
vn 0.157946 0.73382 0.660728
vn 0.133929 0.656214 0.742594
vn 0.170333 0.731433 0.660297
vn 0.166317 0.70774 0.686617
vn 0 6.123233995736766E-17 1
vn 0 6.123233995736766E-17 1
vn 0 6.123233995736766E-17 1
vn 0 6.123233995736766E-17 1
vn 0 6.123233995736766E-17 1
vn 0 6.123233995736766E-17 1
vn 0 6.123233995736766E-17 1
vn 0 6.123233995736766E-17 1
vn 0 6.123233995736766E-17 1
vn 1E-06 -9.999999999387675E-07 1
vn 1E-06 6.123233995736766E-17 1
vn 1E-06 -9.999999999387675E-07 1
vn 2E-06 6.123233995736766E-17 1
vn 1E-06 6.123233995736766E-17 1
vn 0 6.123233995736766E-17 1
vn 2E-06 6.123233995736766E-17 1
vn 1 0 0
vn 1 0 0
vn 1 0 0
vn 1 0 0
vn 1 0 0
vn 2E-06 6.123233995736766E-17 1
vn -1E-06 -9.999999999387675E-07 1
vn -1E-06 -9.999999999387675E-07 1
vn -5E-06 6.123233995736766E-17 1
vn -1E-06 -9.999999999387675E-07 1
vn 0 2.0000000000612323E-06 1
vn 0 6.123233995736766E-17 1
vn 0 6.123233995736766E-17 1
g 01
f 1/1/1 2/2/2 3/3/3
f 4/4/4 5/5/5 6/6/6
f 7/7/7 8/8/8 9/9/9
f 10/10/10 11/11/11 12/12/12
f 13/13/13 14/14/14 15/15/15
f 16/16/16 17/17/17 18/18/18
f 19/19/19 20/20/20 21/21/21
f 22/22/22 23/23/23 24/24/24
f 25/25/25 26/26/26 27/27/27
f 28/28/28 29/29/29 30/30/30
f 31/31/31 32/32/32 33/33/33
f 34/34/34 35/35/35 36/36/36
f 37/37/37 38/38/38 39/39/39
f 40/40/40 41/41/41 42/42/42
f 43/43/43 44/44/44 45/45/45
f 46/46/46 47/47/47 48/48/48
f 49/49/49 50/50/50 51/51/51
f 52/52/52 53/53/53 54/54/54
f 55/55/55 56/56/56 57/57/57
f 58/58/58 59/59/59 60/60/60
f 61/61/61 62/62/62 63/63/63
f 64/64/64 65/65/65 66/66/66
f 67/67/67 68/68/68 69/69/69
f 70/70/70 71/71/71 72/72/72
f 73/73/73 74/74/74 75/75/75
f 76/76/76 77/77/77 78/78/78
f 79/79/79 80/80/80 81/81/81
f 82/82/82 83/83/83 84/84/84
f 85/85/85 86/86/86 87/87/87
f 88/88/88 89/89/89 90/90/90
f 91/91/91 92/92/92 93/93/93
f 94/94/94 95/95/95 96/96/96
f 97/97/97 98/98/98 99/99/99
f 100/100/100 101/101/101 102/102/102
f 103/103/103 104/104/104 105/105/105
f 106/106/106 107/107/107 108/108/108
f 109/109/109 110/110/110 111/111/111
f 112/112/112 113/113/113 114/114/114
f 114/114/114 115/115/115 116/116/116
f 117/117/117 118/118/118 119/119/119
f 120/120/120 121/121/121 117/117/117
f 122/122/122 123/123/123 121/121/121
f 121/121/121 124/124/124 125/125/125
f 126/126/126 127/127/127 128/128/128
f 128/128/128 129/129/129 130/130/130
f 131/131/131 132/132/132 133/133/133
f 134/134/134 135/135/135 131/131/131
f 136/136/136 137/137/137 138/138/138
f 137/137/137 139/139/139 140/140/140
f 141/141/141 142/142/142 143/143/143
f 142/142/142 144/144/144 145/145/145
f 142/142/142 146/146/146 144/144/144
f 146/146/146 147/147/147 144/144/144
f 148/148/148 149/149/149 150/150/150
f 150/150/150 151/151/151 148/148/148
f 152/152/152 153/153/153 154/154/154
f 154/154/154 155/155/155 152/152/152
f 156/156/156 157/157/157 158/158/158
f 158/158/158 159/159/159 156/156/156
f 160/160/160 161/161/161 162/162/162
f 162/162/162 163/163/163 160/160/160
f 164/164/164 165/165/165 166/166/166
f 166/166/166 167/167/167 164/164/164
f 168/168/168 169/169/169 170/170/170
f 170/170/170 171/171/171 168/168/168
f 172/172/172 173/173/173 174/174/174
f 174/174/174 175/175/175 172/172/172
f 176/176/176 177/177/177 178/178/178
f 178/178/178 179/179/179 176/176/176
f 180/180/180 181/181/181 182/182/182
f 182/182/182 183/183/183 180/180/180
f 184/184/184 185/185/185 186/186/186
f 186/186/186 187/187/187 184/184/184
f 188/188/188 189/189/189 190/190/190
f 190/190/190 191/191/191 188/188/188
f 192/192/192 193/193/193 194/194/194
f 194/194/194 195/195/195 192/192/192
f 196/196/196 197/197/197 198/198/198
f 198/198/198 199/199/199 196/196/196
f 200/200/200 201/201/201 202/202/202
f 202/202/202 203/203/203 200/200/200
f 204/204/204 205/205/205 206/206/206
f 205/205/205 207/207/207 206/206/206
f 208/208/208 209/209/209 210/210/210
f 210/210/210 211/211/211 208/208/208
f 212/212/212 213/213/213 214/214/214
f 214/214/214 215/215/215 212/212/212
f 216/216/216 217/217/217 218/218/218
f 218/218/218 219/219/219 216/216/216
f 220/220/220 221/221/221 222/222/222
f 220/220/220 222/222/222 223/223/223
f 224/224/224 225/225/225 226/226/226
f 226/226/226 227/227/227 224/224/224
f 228/228/228 229/229/229 230/230/230
f 230/230/230 231/231/231 228/228/228
f 232/232/232 233/233/233 234/234/234
f 234/234/234 235/235/235 232/232/232
f 236/236/236 237/237/237 238/238/238
f 238/238/238 239/239/239 236/236/236
f 240/240/240 241/241/241 242/242/242
f 242/242/242 243/243/243 240/240/240
f 244/244/244 245/245/245 246/246/246
f 246/246/246 247/247/247 244/244/244
f 248/248/248 249/249/249 250/250/250
f 250/250/250 251/251/251 248/248/248
f 252/252/252 253/253/253 254/254/254
f 254/254/254 255/255/255 252/252/252
f 256/256/256 257/257/257 258/258/258
f 258/258/258 259/259/259 256/256/256
f 260/260/260 261/261/261 262/262/262
f 262/262/262 263/263/263 260/260/260
f 264/264/264 265/265/265 266/266/266
f 266/266/266 267/267/267 264/264/264
f 268/268/268 269/269/269 270/270/270
f 270/270/270 271/271/271 268/268/268
f 272/272/272 273/273/273 274/274/274
f 275/275/275 272/272/272 274/274/274
f 276/276/276 277/277/277 278/278/278
f 278/278/278 279/279/279 276/276/276
f 280/280/280 281/281/281 282/282/282
f 282/282/282 283/283/283 280/280/280
f 284/284/284 285/285/285 286/286/286
f 285/285/285 287/287/287 286/286/286
f 288/288/288 289/289/289 290/290/290
f 289/289/289 291/291/291 290/290/290
f 292/292/292 293/293/293 294/294/294
f 294/294/294 295/295/295 292/292/292
f 296/296/296 297/297/297 298/298/298
f 298/298/298 299/299/299 296/296/296
f 300/300/300 301/301/301 302/302/302
f 302/302/302 303/303/303 300/300/300
f 304/304/304 305/305/305 306/306/306
f 306/306/306 307/307/307 304/304/304
f 308/308/308 309/309/309 310/310/310
f 311/311/311 312/312/312 310/310/310
f 309/309/309 313/313/313 311/311/311
f 314/314/314 315/315/315 316/316/316
f 316/316/316 317/317/317 314/314/314
f 318/318/318 319/319/319 320/320/320
f 320/320/320 321/321/321 318/318/318
f 322/322/322 323/323/323 324/324/324
f 324/324/324 325/325/325 322/322/322
f 326/326/326 327/327/327 328/328/328
f 328/328/328 329/329/329 326/326/326
f 330/330/330 331/331/331 332/332/332
f 332/332/332 333/333/333 330/330/330
f 334/334/334 335/335/335 336/336/336
f 336/336/336 337/337/337 334/334/334
f 338/338/338 339/339/339 340/340/340
f 340/340/340 341/341/341 338/338/338
f 342/342/342 343/343/343 344/344/344
f 344/344/344 345/345/345 342/342/342
f 346/346/346 347/347/347 348/348/348
f 348/348/348 349/349/349 346/346/346
f 350/350/350 351/351/351 352/352/352
f 352/352/352 353/353/353 350/350/350
f 354/354/354 355/355/355 353/353/353
f 353/353/353 356/356/356 354/354/354
f 357/357/357 358/358/358 356/356/356
f 356/356/356 359/359/359 357/357/357
f 360/360/360 361/361/361 362/362/362
f 362/362/362 363/363/363 360/360/360
f 364/364/364 365/365/365 366/366/366
f 366/366/366 367/367/367 364/364/364
f 367/367/367 366/366/366 368/368/368
f 368/368/368 369/369/369 367/367/367
f 369/369/369 368/368/368 370/370/370
f 370/370/370 371/371/371 369/369/369
f 371/371/371 370/370/370 372/372/372
f 372/372/372 373/373/373 371/371/371
f 373/373/373 372/372/372 374/374/374
f 374/374/374 375/375/375 373/373/373
f 375/375/375 374/374/374 376/376/376
f 376/376/376 377/377/377 375/375/375
f 377/377/377 376/376/376 378/378/378
f 378/378/378 379/379/379 377/377/377
f 380/380/380 379/379/379 378/378/378
f 378/378/378 381/381/381 380/380/380
f 382/382/382 383/383/383 384/384/384
f 384/384/384 385/385/385 382/382/382
f 385/385/385 384/384/384 386/386/386
f 386/386/386 387/387/387 385/385/385
f 388/388/388 389/389/389 390/390/390
f 391/391/391 388/388/388 390/390/390
f 390/390/390 392/392/392 391/391/391
f 393/393/393 394/394/394 395/395/395
f 396/396/396 393/393/393 395/395/395
f 395/395/395 397/397/397 396/396/396
f 398/398/398 399/399/399 400/400/400
f 401/401/401 398/398/398 400/400/400
f 400/400/400 402/402/402 401/401/401
f 403/403/403 404/404/404 405/405/405
f 405/405/405 406/406/406 403/403/403
f 406/406/406 405/405/405 407/407/407
f 407/407/407 408/408/408 406/406/406
f 408/408/408 407/407/407 409/409/409
f 409/409/409 410/410/410 408/408/408
f 410/410/410 409/409/409 411/411/411
f 411/411/411 412/412/412 410/410/410
f 412/412/412 411/411/411 413/413/413
f 413/413/413 414/414/414 412/412/412
f 414/414/414 413/413/413 415/415/415
f 415/415/415 416/416/416 414/414/414
f 416/416/416 415/415/415 417/417/417
f 417/417/417 418/418/418 416/416/416
f 419/419/419 418/418/418 417/417/417
f 417/417/417 420/420/420 419/419/419
f 421/421/421 422/422/422 423/423/423
f 423/423/423 424/424/424 421/421/421
f 424/424/424 423/423/423 425/425/425
f 425/425/425 426/426/426 424/424/424
f 426/426/426 425/425/425 427/427/427
f 427/427/427 428/428/428 426/426/426
f 428/428/428 427/427/427 429/429/429
f 429/429/429 430/430/430 428/428/428
f 430/430/430 429/429/429 431/431/431
f 431/431/431 432/432/432 430/430/430
f 432/432/432 431/431/431 433/433/433
f 433/433/433 434/434/434 432/432/432
f 434/434/434 433/433/433 435/435/435
f 435/435/435 436/436/436 434/434/434
f 437/437/437 436/436/436 435/435/435
f 435/435/435 438/438/438 437/437/437
f 439/439/439 440/440/440 441/441/441
f 440/440/440 442/442/442 441/441/441
f 442/442/442 443/443/443 441/441/441
f 444/444/444 445/445/445 446/446/446
f 446/446/446 447/447/447 444/444/444
f 447/447/447 446/446/446 448/448/448
f 449/449/449 450/450/450 451/451/451
f 451/451/451 452/452/452 449/449/449
f 453/453/453 449/449/449 452/452/452
f 452/452/452 454/454/454 453/453/453
f 455/455/455 456/456/456 457/457/457
f 457/457/457 458/458/458 455/455/455
f 455/455/455 458/458/458 459/459/459
f 460/460/460 461/461/461 462/462/462
f 462/462/462 463/463/463 460/460/460
f 460/460/460 463/463/463 464/464/464
f 465/465/465 466/466/466 467/467/467
f 465/465/465 468/468/468 466/466/466
f 469/469/469 468/468/468 465/465/465
f 469/469/469 465/465/465 470/470/470
f 471/471/471 472/472/472 473/473/473
f 474/474/474 475/475/475 473/473/473
f 472/472/472 474/474/474 473/473/473
f 472/472/472 476/476/476 474/474/474
f 476/476/476 477/477/477 474/474/474
f 472/472/472 478/478/478 476/476/476
f 479/479/479 480/480/480 481/481/481
f 481/481/481 482/482/482 479/479/479
f 482/482/482 481/481/481 483/483/483
f 483/483/483 484/484/484 482/482/482
f 482/482/482 484/484/484 485/485/485
f 479/479/479 482/482/482 486/486/486
f 485/485/485 486/486/486 482/482/482
f 486/486/486 487/487/487 479/479/479
f 486/486/486 485/485/485 488/488/488
f 489/489/489 487/487/487 486/486/486
f 488/488/488 490/490/490 486/486/486
f 486/486/486 490/490/490 489/489/489
f 491/491/491 492/492/492 493/493/493
f 494/494/494 495/495/495 493/493/493
f 492/492/492 494/494/494 493/493/493
f 492/492/492 496/496/496 494/494/494
f 496/496/496 497/497/497 494/494/494
f 492/492/492 498/498/498 496/496/496
f 499/499/499 500/500/500 501/501/501
f 502/502/502 503/503/503 501/501/501
f 500/500/500 502/502/502 501/501/501
f 500/500/500 504/504/504 502/502/502
f 504/504/504 505/505/505 502/502/502
f 500/500/500 506/506/506 504/504/504
f 507/507/507 508/508/508 509/509/509
f 510/510/510 508/508/508 507/507/507
f 511/511/511 507/507/507 509/509/509
f 510/510/510 507/507/507 511/511/511
f 512/512/512 513/513/513 514/514/514
f 514/514/514 515/515/515 512/512/512
f 516/516/516 514/514/514 513/513/513
f 517/517/517 512/512/512 515/515/515
f 513/513/513 518/518/518 516/516/516
f 515/515/515 519/519/519 517/517/517
f 519/519/519 516/516/516 518/518/518
f 518/518/518 517/517/517 519/519/519
