v -0.688327 -0.192618 0.224854
v -0.717988 -0.019406999999999987 0.224854
v -0.686523 0.157411 0.224854
v -0.497074 0.256646 0.22485399999999997
v -0.489857 0.48218 0.22485399999999997
v -0.260715 0.483984 0.22485399999999997
v -0.159676 0.673433 0.22485399999999997
v 0.015339 0.709018 0.22485399999999994
v 0.192158 0.673433 0.22485399999999997
v 0.291393 0.485789 0.22485399999999997
v 0.515122 0.480376 0.22485399999999997
v 0.518731 0.249429 0.22485399999999997
v 0.704571 0.14839 0.224854
v 0.745286 -0.028428999999999986 0.224854
v 0.706375 -0.205248 0.224854
v 0.518731 -0.302678 0.22485400000000003
v 0.515122 -0.528212 0.22485400000000003
v 0.284175 -0.530017 0.22485400000000003
v 0.181332 -0.715857 0.22485400000000005
v 0.008122 -0.75508 0.22485400000000005
v -0.16148 -0.719465 0.22485400000000005
v -0.27154 -0.530017 0.22485400000000003
v -0.497074 -0.526408 0.22485400000000003
v -0.49527 -0.300874 0.22485400000000003
vt 0.038648 0.391675
vt 0.000500 0.507222
vt 0.039840 0.625176
vt 0.165013 0.691375
vt 0.169781 0.841827
vt 0.321181 0.843030
vt 0.387940 0.969410
vt 0.503576 0.999500
vt 0.620405 0.969410
vt 0.685971 0.844234
vt 0.833795 0.840623
vt 0.836179 0.686561
vt 0.958968 0.619158
vt 0.999501 0.501204
vt 0.960160 0.383249
vt 0.836179 0.318254
vt 0.833795 0.167802
vt 0.681203 0.166599
vt 0.613252 0.042626
vt 0.498808 0.000500
vt 0.386748 0.040219
vt 0.314029 0.166598
vt 0.165013 0.169006
vt 0.166205 0.319458
vn 0 6.123233995736766E-17 1
vn 0 6.123233995736766E-17 1
vn 0 6.123233995736766E-17 1
vn 0 6.123233995736766E-17 1
vn 0 6.123233995736766E-17 1
vn 0 6.123233995736766E-17 1
vn 0 6.123233995736766E-17 1
vn 0 6.123233995736766E-17 1
vn 0 6.123233995736766E-17 1
vn 0 6.123233995736766E-17 1
vn 0 6.123233995736766E-17 1
vn 0 6.123233995736766E-17 1
vn 0 6.123233995736766E-17 1
vn 0 6.123233995736766E-17 1
vn 0 6.123233995736766E-17 1
vn 0 6.123233995736766E-17 1
vn 0 6.123233995736766E-17 1
vn 0 6.123233995736766E-17 1
vn 0 6.123233995736766E-17 1
vn 0 6.123233995736766E-17 1
vn 0 6.123233995736766E-17 1
vn 0 6.123233995736766E-17 1
vn 0 6.123233995736766E-17 1
vn 0 6.123233995736766E-17 1
g water
f 13/13/13 16/16/16 14/14/14
f 13/13/13 12/12/12 16/16/16
f 12/12/12 4/4/4 16/16/16
f 12/12/12 6/6/6 4/4/4
f 12/12/12 10/10/10 6/6/6
f 12/12/12 11/11/11 10/10/10
f 10/10/10 7/7/7 6/6/6
f 10/10/10 8/8/8 7/7/7
f 10/10/10 9/9/9 8/8/8
f 6/6/6 5/5/5 4/4/4
f 4/4/4 18/18/18 16/16/16
f 4/4/4 19/19/19 18/18/18
f 4/4/4 20/20/20 19/19/19
f 4/4/4 21/21/21 20/20/20
f 4/4/4 22/22/22 21/21/21
f 4/4/4 24/24/24 22/22/22
f 4/4/4 1/1/1 24/24/24
f 4/4/4 3/3/3 1/1/1
f 3/3/3 2/2/2 1/1/1
f 24/24/24 23/23/23 22/22/22
f 18/18/18 17/17/17 16/16/16
f 16/16/16 15/15/15 14/14/14
