v 0.056694 -0.03574699999999991 1.430098
v 0.074081 -0.04260099999999993 1.176066
v 0.020632 -0.06599799999999993 1.174157
v 0.003662 0.0832110000000001 1.700749
v 0.070385 0.0621360000000001 1.696815
v 0.045359 0.10461600000000011 1.740252
v 0.078816 0.06191300000000011 1.671133
v 0.025405 0.1263250000000001 1.684314
v 0.063547 0.0896900000000001 1.652112
v -0.16914 0.1658970000000001 1.865074
v -0.128742 0.1073100000000001 1.60197
v -0.122711 0.1827240000000001 1.863818
v -0.16914 0.1658970000000001 1.865074
v -0.122711 0.1827240000000001 1.863818
v -0.128742 0.1073100000000001 1.60197
v 0.086345 0.1261580000000001 1.700749
v 0.023529 0.1460260000000001 1.700749
v 0.045359 0.10461600000000011 1.740252
v -0.092372 -0.019194999999999893 1.74224
v -0.173516 -0.024311999999999927 1.188734
v -0.112937 -0.0646019999999999 1.869161
v -0.031601 0.014425000000000087 1.430098
v -0.049326 0.020351000000000074 1.176066
v -0.023421 -0.03192899999999993 1.174157
v -0.031601 0.014425000000000087 1.430098
v -0.023421 -0.03192899999999993 1.174157
v -0.049326 0.020351000000000074 1.176066
v -0.031601 0.014425000000000087 1.430098
v -0.023421 -0.03192899999999993 1.174157
v -0.023421 -0.03192899999999993 1.174157
v 0.163 -0.024725999999999897 1.681125
v 0.078816 0.06191300000000011 1.671133
v 0.063547 0.0896900000000001 1.652112
v 0.163 -0.024725999999999897 1.681125
v 0.025405 0.1263250000000001 1.684314
v 0.078816 0.06191300000000011 1.671133
v 0.163 -0.024725999999999897 1.681125
v 0.156496 0.047374000000000104 1.73327
v 0.025405 0.1263250000000001 1.684314
v 0.163 -0.024725999999999897 1.681125
v 0.099776 0.06362000000000011 1.815826
v 0.156496 0.047374000000000104 1.73327
v 0.113487 -0.11344699999999994 1.23629
v 0.023578 0.09696700000000008 1.410055
v 0.136175 -0.029728999999999884 1.869432
v 0.099776 0.06362000000000011 1.815826
v 0.163 -0.024725999999999897 1.681125
v 0.136175 -0.029728999999999884 1.869432
v -0.132861 -0.053119999999999896 1.708875
v -0.092372 -0.019194999999999893 1.74224
v -0.112937 -0.0646019999999999 1.869161
v -0.132861 -0.053119999999999896 1.708875
v -0.147689 0.1226000000000001 1.658211
v -0.092372 -0.019194999999999893 1.74224
v -0.147689 0.1226000000000001 1.658211
v -0.146767 0.1701700000000001 1.696278
v -0.105241 0.014376000000000107 1.749286
v 0.136175 -0.029728999999999884 1.869432
v -0.037885 -0.014899999999999884 1.89015
v -0.112937 -0.0646019999999999 1.869161
v 0.136175 -0.029728999999999884 1.869432
v 0.051823 -0.004910999999999884 1.89015
v -0.037885 -0.014899999999999884 1.89015
v 0.051823 -0.004910999999999884 1.89015
v 0.047339 -0.019193999999999874 2.032461
v 0.018784 -0.07787999999999988 2.010504
v 0.047339 -0.019193999999999874 2.032461
v -0.025702 0.06738700000000011 1.913593
v -0.025702 0.06738700000000011 1.913593
v -0.016615 0.015783000000000127 2.074534
v -0.037885 -0.014899999999999884 1.89015
v -0.043713 -0.04956999999999988 2.027741
v -0.016615 0.015783000000000127 2.074534
v -0.025702 0.06738700000000011 1.913593
v -0.037885 -0.014899999999999884 1.89015
v -0.112937 -0.0646019999999999 1.869161
v -0.087732 0.03374300000000011 1.813439
v -0.105241 0.014376000000000107 1.749286
v -0.105241 0.014376000000000107 1.749286
v -0.132861 -0.053119999999999896 1.708875
v -0.146767 0.1701700000000001 1.696278
v -0.147689 0.1226000000000001 1.658211
v -0.105241 0.014376000000000107 1.749286
v 0.070385 0.0621360000000001 1.696815
v 0.086345 0.1261580000000001 1.700749
v 0.045359 0.10461600000000011 1.740252
v 0.086345 0.1261580000000001 1.700749
v 0.003662 0.0832110000000001 1.700749
v 0.023529 0.1460260000000001 1.700749
v 0.086345 0.1261580000000001 1.700749
v 0.045359 0.10461600000000011 1.740252
v -0.147689 0.1226000000000001 1.658211
v -0.105241 0.014376000000000107 1.749286
v -0.092372 -0.019194999999999893 1.74224
v -0.105241 0.014376000000000107 1.749286
v -0.087732 0.03374300000000011 1.813439
v -0.173516 -0.024311999999999927 1.188734
v 0.136175 -0.029728999999999884 1.869432
v -0.112937 -0.0646019999999999 1.869161
v 0.113487 -0.11344699999999994 1.23629
v 0.136175 -0.029728999999999884 1.869432
v 0.023578 0.09696700000000008 1.410055
v 0.099776 0.06362000000000011 1.815826
v 0.136175 -0.029728999999999884 1.869432
v 0.136175 -0.029728999999999884 1.869432
v 0.051823 -0.004910999999999884 1.89015
v -0.037885 -0.014899999999999884 1.89015
v -0.087732 0.03374300000000011 1.813439
v -0.112937 -0.0646019999999999 1.869161
v 0.023578 0.09696700000000008 1.410055
v -0.092372 -0.019194999999999893 1.74224
v -0.173516 -0.024311999999999927 1.188734
v 0.018784 -0.07787999999999988 2.010504
v -0.043713 -0.04956999999999988 2.027741
v -0.037885 -0.014899999999999884 1.89015
v 0.051823 -0.004910999999999884 1.89015
v 0.056694 -0.03574699999999991 1.430098
v 0.020632 -0.06599799999999993 1.174157
v 0.074081 -0.04260099999999993 1.176066
v 0.020632 -0.06599799999999993 1.174157
v 0.545307 -0.554226 0.2841620000000001
v 0.545307 -0.554226 0.00031500000000003395
v 0.544653 -0.316749 0.0003150000000000194
v 0.544653 -0.316749 0.284162
v 0.50606 -0.295411 0.284162
v 0.50606 -0.295411 0.0003150000000000181
v 0.506724 -0.515652 0.00031500000000003156
v 0.506724 -0.515652 0.2841620000000001
v 0.544653 0.263101 0.284162
v 0.544653 0.263101 0.0003149999999999839
v 0.544673 0.509889 0.0003149999999999688
v 0.544673 0.509889 0.28416199999999997
v 0.506099 0.471306 0.28416199999999997
v 0.506099 0.471306 0.0003149999999999712
v 0.50606 0.242414 0.00031499999999998516
v 0.50606 0.24241400000000002 0.284162
v 0.488663 -0.497596 0.2841620000000001
v 0.563368 -0.572282 0.2841620000000001
v 0.562717 -0.326737 0.284162
v 0.487996 -0.285422 0.284162
v 0.562717 -0.326737 0.284162
v 0.755029 -0.21794699999999997 0.284162
v 0.677355 -0.19139799999999998 0.284162
v 0.677355 0.13870600000000002 0.284162
v 0.677355 -0.19139799999999998 0.284162
v 0.755029 0.16399400000000003 0.284162
v 0.677355 0.13870600000000002 0.284162
v 0.562717 0.272784 0.284162
v 0.487996 0.23273000000000002 0.284162
v 0.562729 0.52795 0.28416199999999997
v 0.488043 0.453245 0.284162
v 0.562717 0.272784 0.284162
v 0.285796 0.471274 0.28416199999999997
v 0.285796 0.471274 0.0003149999999999712
v 0.506099 0.471306 0.0003149999999999712
v 0.506099 0.471306 0.28416199999999997
v -0.4805 0.471219 0.28416199999999997
v -0.4805 0.471219 0.0003149999999999712
v -0.252028 0.471274 0.0003149999999999712
v -0.252028 0.471274 0.28416199999999997
v -0.519084 0.509793 0.28416199999999997
v -0.519084 0.509793 0.0003149999999999688
v -0.51864 0.272162 0.00031499999999998337
v -0.51864 0.272162 0.284162
v -0.480048 0.250824 0.284162
v -0.480048 0.250824 0.00031499999999998467
v -0.4805 0.471219 0.0003149999999999712
v -0.4805 0.471219 0.28416199999999997
v -0.51864 -0.307688 0.284162
v -0.51864 -0.307688 0.0003150000000000189
v -0.518449 -0.554322 0.00031500000000003395
v -0.518449 -0.554322 0.2841620000000001
v -0.479875 -0.515738 0.2841620000000001
v -0.479875 -0.515738 0.0003150000000000316
v -0.480048 -0.287001 0.0003150000000000176
v -0.480048 -0.287001 0.284162
v -0.462439 0.453163 0.284162
v -0.537144 0.527849 0.28416199999999997
v -0.536704 0.28215 0.284162
v -0.461983 0.24083500000000002 0.284162
v -0.536704 0.28215 0.284162
v -0.729016 0.17336000000000001 0.284162
v -0.651342 0.14681100000000002 0.284162
v -0.651342 -0.18329299999999998 0.284162
v -0.651342 0.14681100000000002 0.284162
v -0.729016 -0.20858099999999996 0.284162
v -0.651342 -0.18329299999999998 0.284162
v -0.536704 -0.317371 0.284162
v -0.461983 -0.277317 0.284162
v -0.536505 -0.572382 0.2841620000000001
v -0.461819 -0.497678 0.2841620000000001
v -0.536704 -0.317371 0.284162
v 0.38475 -0.07219999999999997 0.496194
v 0.38475 0.06854600000000002 0.496194
v 0.187077 0.17035800000000004 0.496194
v 0.187077 -0.17854999999999996 0.496194
v -0.388783 0.06990700000000002 0.496194
v -0.388783 -0.07083799999999997 0.496194
v -0.19111 -0.17743399999999998 0.496194
v -0.19111 0.17147500000000002 0.496194
v -0.062548 -0.38669699999999996 0.496194
v 0.058199 -0.38669599999999993 0.496194
v 0.176656 -0.18902399999999997 0.496194
v -0.175679 -0.18902399999999997 0.496194
v -0.518449 -0.554322 0.2841620000000001
v -0.518449 -0.554322 0.00031500000000003395
v -0.280699 -0.554145 0.00031500000000003395
v -0.2807 -0.554145 0.2841620000000001
v -0.259361 -0.515552 0.2841620000000001
v -0.259361 -0.515552 0.00031500000000003156
v -0.479875 -0.515738 0.0003150000000000316
v -0.479875 -0.515738 0.2841620000000001
v 0.29915 -0.554145 0.2841620000000001
v 0.29915 -0.554145 0.00031500000000003395
v 0.545307 -0.554226 0.00031500000000003395
v 0.545307 -0.554226 0.2841620000000001
v 0.506724 -0.515652 0.2841620000000001
v 0.506724 -0.515652 0.00031500000000003156
v 0.278463 -0.515552 0.00031500000000003156
v 0.278463 -0.515552 0.2841620000000001
v -0.461819 -0.497678 0.2841620000000001
v -0.536505 -0.572382 0.2841620000000001
v -0.290688 -0.572209 0.2841620000000001
v -0.249373 -0.497488 0.2841620000000001
v -0.290688 -0.572209 0.2841620000000001
v -0.181898 -0.764521 0.2841620000000001
v -0.155348 -0.686847 0.2841620000000001
v 0.174755 -0.686847 0.2841620000000001
v -0.155348 -0.686847 0.2841620000000001
v 0.200043 -0.764521 0.2841620000000001
v 0.174755 -0.686847 0.2841620000000001
v 0.308833 -0.572209 0.2841620000000001
v 0.26878 -0.497488 0.2841620000000001
v 0.563368 -0.572282 0.2841620000000001
v 0.488663 -0.497596 0.2841620000000001
v 0.308833 -0.572209 0.2841620000000001
v -0.18054 0.17885800000000004 0.773584
v -0.18054 -0.17824599999999993 0.773583
v -0.139712 -0.1380899999999999 1.174896
v -0.139712 0.13759700000000008 1.174896
v -0.18054 -0.17824599999999993 0.773583
v 0.177826 -0.17824599999999993 0.773583
v 0.13695 -0.1380899999999999 1.174896
v -0.139712 -0.1380899999999999 1.174896
v 0.177826 -0.17824599999999993 0.773583
v 0.177826 0.17885800000000004 0.773583
v 0.13695 0.13759700000000008 1.174896
v 0.13695 -0.1380899999999999 1.174896
v -0.235437 0.23293300000000003 0.446726
v -0.235437 -0.23342699999999997 0.446726
v -0.18054 -0.17824599999999993 0.773583
v -0.18054 0.17885800000000004 0.773584
v -0.235437 -0.23342699999999997 0.446726
v 0.232674 -0.23342699999999997 0.446726
v 0.177826 -0.17824599999999993 0.773583
v -0.18054 -0.17824599999999993 0.773583
v 0.232674 -0.23342699999999997 0.446726
v 0.232674 0.23293300000000003 0.446726
v 0.177826 0.17885800000000004 0.773583
v 0.177826 -0.17824599999999993 0.773583
v -0.276683 -0.274519 0.0003150000000000168
v -0.235437 -0.23342699999999997 0.446726
v -0.235437 0.23293300000000003 0.446726
v -0.276683 0.274025 0.0003149999999999832
v 0.27392 -0.274519 0.0003150000000000168
v 0.232674 -0.23342699999999997 0.446726
v -0.235437 -0.23342699999999997 0.446726
v -0.276683 -0.274519 0.0003150000000000168
v 0.27392 0.274025 0.0003149999999999832
v 0.232674 0.23293300000000003 0.446726
v 0.232674 -0.23342699999999997 0.446726
v 0.27392 -0.274519 0.0003150000000000168
v 0.307134 0.509866 0.0003149999999999688
v 0.307135 0.509866 0.28416199999999997
v 0.544673 0.509889 0.28416199999999997
v 0.544673 0.509889 0.0003149999999999688
v -0.519084 0.509793 0.0003149999999999688
v -0.519084 0.509793 0.28416199999999997
v -0.272715 0.509866 0.28416199999999997
v -0.272715 0.509866 0.0003149999999999688
v 0.488043 0.453245 0.284162
v 0.562729 0.52795 0.28416199999999997
v 0.317123 0.527931 0.28416199999999997
v 0.275808 0.45321 0.284162
v 0.208333 0.720243 0.28416199999999997
v 0.181783 0.642568 0.28416199999999997
v 0.317123 0.527931 0.28416199999999997
v -0.14832 0.642568 0.28416199999999997
v 0.181783 0.642568 0.28416199999999997
v -0.173609 0.720243 0.28416199999999997
v -0.14832 0.642568 0.28416199999999997
v -0.282398 0.527931 0.28416199999999997
v -0.242345 0.45321 0.284162
v -0.282398 0.527931 0.28416199999999997
v -0.537144 0.527849 0.28416199999999997
v -0.462439 0.453163 0.284162
v -0.174699 0.18675800000000004 0.496194
v 0.177637 0.18675800000000004 0.496194
v 0.059215 0.3844310000000001 0.496194
v -0.061532 0.38443000000000005 0.496194
v -0.016615 0.015783000000000127 2.074534
v -0.043713 -0.04956999999999988 2.027741
v 0.018784 -0.07787999999999988 2.010504
v 0.047339 -0.019193999999999874 2.032461
v -0.150296 0.14814400000000008 1.17637
v -0.150296 -0.1486369999999999 1.17637
v 0.147533 -0.1486369999999999 1.17637
v 0.147533 0.14814400000000008 1.17637
v 0.177826 0.17885800000000004 0.773583
v -0.18054 0.17885800000000004 0.773584
v -0.139712 0.13759700000000008 1.174896
v 0.13695 0.13759700000000008 1.174896
v 0.232674 0.23293300000000003 0.446726
v -0.235437 0.23293300000000003 0.446726
v -0.18054 0.17885800000000004 0.773584
v 0.177826 0.17885800000000004 0.773583
v 0.232674 0.23293300000000003 0.446726
v 0.27392 0.274025 0.0003149999999999832
v -0.276683 0.274025 0.0003149999999999832
v -0.235437 0.23293300000000003 0.446726
v 0.544653 -0.316749 0.284162
v 0.544653 -0.316749 0.0003150000000000194
v 0.736251 -0.211529 0.00031500000000001297
v 0.736251 -0.21152899999999997 0.284162
v 0.797996 -0.026824 0.00031500000000000164
v 0.736251 0.15788100000000002 0.284162
v 0.736251 0.157881 0.00031499999999999036
v 0.544653 0.263101 0.0003149999999999839
v 0.544653 0.263101 0.284162
v -0.51864 0.272162 0.284162
v -0.51864 0.272162 0.00031499999999998337
v -0.710239 0.166942 0.00031499999999998977
v -0.710238 0.16694200000000003 0.284162
v -0.771983 -0.017763 0.0003150000000000011
v -0.710238 -0.20246699999999998 0.284162
v -0.710239 -0.202468 0.00031500000000001243
v -0.51864 -0.307688 0.0003150000000000189
v -0.51864 -0.307688 0.284162
v -0.2807 -0.554145 0.2841620000000001
v -0.280699 -0.554145 0.00031500000000003395
v -0.175479 -0.745743 0.00031500000000004566
v -0.175479 -0.745743 0.2841620000000001
v 0.009225 -0.807487 0.00031500000000004945
v 0.19393 -0.745743 0.2841620000000001
v 0.19393 -0.745743 0.00031500000000004566
v 0.29915 -0.554145 0.00031500000000003395
v 0.29915 -0.554145 0.2841620000000001
v 0.307135 0.509866 0.28416199999999997
v 0.307134 0.509866 0.0003149999999999688
v 0.201914 0.701465 0.0003149999999999571
v 0.201914 0.701464 0.28416199999999997
v 0.01721 0.763209 0.0003149999999999533
v -0.167495 0.701464 0.28416199999999997
v -0.167495 0.701465 0.0003149999999999571
v -0.272715 0.509866 0.0003149999999999688
v -0.272715 0.509866 0.28416199999999997
v 0.156496 0.047374000000000104 1.73327
v 0.099776 0.06362000000000011 1.815826
v 0.136175 -0.029728999999999884 1.869432
v 0.163 -0.024725999999999897 1.681125
v 0.025405 0.1263250000000001 1.684314
v 0.063547 0.0896900000000001 1.652112
v 0.50606 -0.295411 0.0003150000000000181
v 0.50606 -0.295411 0.284162
v 0.696133 -0.19781599999999996 0.284162
v 0.696133 -0.197816 0.0003150000000000121
v 0.696133 0.144819 0.0003149999999999911
v 0.696133 0.14481900000000003 0.284162
v 0.50606 0.24241400000000002 0.284162
v 0.50606 0.242414 0.00031499999999998516
v 0.285796 0.471274 0.0003149999999999712
v 0.285796 0.471274 0.28416199999999997
v 0.188202 0.661347 0.28416199999999997
v 0.188202 0.661347 0.0003149999999999595
v -0.154434 0.661347 0.0003149999999999595
v -0.154434 0.661347 0.28416199999999997
v -0.252028 0.471274 0.28416199999999997
v -0.252028 0.471274 0.0003149999999999712
v -0.480048 0.250824 0.00031499999999998467
v -0.480048 0.250824 0.284162
v -0.670121 0.15322900000000003 0.284162
v -0.670121 0.153229 0.00031499999999999063
v -0.670121 -0.189406 0.0003150000000000116
v -0.670121 -0.18940599999999996 0.284162
v -0.480048 -0.287001 0.284162
v -0.480048 -0.287001 0.0003150000000000176
v -0.259361 -0.515552 0.00031500000000003156
v -0.259361 -0.515552 0.2841620000000001
v -0.161767 -0.705625 0.2841620000000001
v -0.161767 -0.705625 0.0003150000000000432
v 0.180869 -0.705625 0.0003150000000000432
v 0.180869 -0.705625 0.2841620000000001
v 0.278463 -0.515552 0.2841620000000001
v 0.278463 -0.515552 0.00031500000000003156
vt 1.917677 0.716856
vt 1.922618 0.823195
vt 1.954542 0.832240
vt 1.959177 0.107719
vt 1.919957 0.107719
vt 1.936100 0.132170
vt 1.897100 0.850550
vt 1.865172 0.902498
vt 1.928442 0.872500
vt 0.910187 0.352466
vt 0.928191 0.169985
vt 0.946194 0.352466
vt 0.966851 0.352466
vt 0.941165 0.351565
vt 0.954004 0.169804
vt 0.919957 0.107719
vt 0.959177 0.107719
vt 0.939567 0.128153
vt 0.600565 0.946059
vt 0.839879 0.896195
vt 0.633626 0.996984
vt 0.917677 0.716856
vt 0.922618 0.823195
vt 0.898638 0.852854
vt 0.917677 0.716856
vt 0.954542 0.832240
vt 0.922618 0.823195
vt 0.917677 0.716856
vt 0.898638 0.852854
vt 0.872285 0.829238
vt 0.696803 0.439403
vt 0.586545 0.540277
vt 0.678947 0.540564
vt 0.696803 0.439403
vt 0.541681 0.606768
vt 0.586545 0.540277
vt 0.696803 0.439403
vt 0.647588 0.422563
vt 0.541681 0.606768
vt 0.696803 0.439403
vt 0.604567 0.348258
vt 0.647588 0.422563
vt 0.842573 0.627139
vt 0.837217 0.769598
vt 0.655627 0.575467
vt 0.554354 0.646726
vt 0.643410 0.601403
vt 0.655627 0.575467
vt 0.954468 0.459792
vt 0.797355 0.532309
vt 0.713676 0.548624
vt 0.954468 0.459792
vt 0.909519 0.315467
vt 0.797355 0.532309
vt 0.909519 0.315467
vt 0.939068 0.340063
vt 0.862751 0.468063
vt 0.433782 0.661997
vt 0.322159 0.796611
vt 0.366172 0.886597
vt 0.433782 0.661997
vt 0.408697 0.678580
vt 0.322159 0.796611
vt 0.294303 0.598304
vt 0.270965 0.410872
vt 0.339603 0.416379
vt 0.270965 0.410872
vt 0.186073 0.595258
vt 0.186073 0.595258
vt 0.192854 0.380634
vt 0.100318 0.588403
vt 0.111054 0.401335
vt 0.192854 0.380634
vt 0.186073 0.595258
vt 0.100318 0.588403
vt 1.002516 0.543869
vt 0.857226 0.578420
vt 0.862751 0.468063
vt 0.862751 0.468063
vt 0.954468 0.459792
vt 0.861072 0.378849
vt 0.918212 0.317511
vt 0.862751 0.468063
vt 1.919957 0.107719
vt 1.959177 0.107719
vt 1.936100 0.132170
vt 0.919957 0.107719
vt 1.959177 0.107719
vt 1.919957 0.107719
vt 0.919957 0.107719
vt 1.936100 0.132170
vt 0.909519 0.315467
vt 0.862751 0.468063
vt 0.797355 0.532309
vt 0.862751 0.468063
vt 0.857226 0.578420
vt 0.011994 0.888819
vt 0.433782 0.661997
vt 0.366172 0.886597
vt 0.018592 0.705552
vt 0.433782 0.661997
vt 0.837217 0.769598
vt 0.554354 0.646726
vt 0.655627 0.575467
vt 0.433782 0.661997
vt 0.408697 0.678580
vt 0.397513 0.801579
vt 0.554354 0.889902
vt 0.366172 0.886597
vt 0.837217 0.769598
vt 0.600565 0.946059
vt 0.839879 0.896195
vt 0.029173 0.442125
vt 0.111054 0.401335
vt 0.100318 0.588403
vt 0.087971 0.650895
vt 1.917677 0.716856
vt 1.898638 0.852854
vt 1.922618 0.823195
vt 1.874112 0.857087
vt 1.540681 0.238831
vt 1.540681 0.352203
vt 1.446270 0.352203
vt 1.446270 0.238831
vt 1.446270 0.238831
vt 1.446270 0.352203
vt 1.540681 0.352203
vt 1.540681 0.238831
vt 1.115086 0.238831
vt 1.115086 0.352203
vt 1.017982 0.352203
vt 1.017982 0.238831
vt 1.017982 0.238831
vt 1.017982 0.352203
vt 1.115086 0.352203
vt 1.115086 0.238831
vt 1.453721 0.039464
vt 1.426013 0.010023
vt 1.517179 0.010023
vt 1.532065 0.039464
vt 1.548652 0.010023
vt 1.630662 0.010023
vt 1.610423 0.039464
vt 1.778895 0.039464
vt 1.630485 0.039464
vt 1.778850 0.010023
vt 1.798435 0.039464
vt 1.859903 0.010023
vt 1.875509 0.039464
vt 1.985873 0.010023
vt 1.958151 0.039464
vt 1.891155 0.010023
vt 1.446270 0.238831
vt 1.446270 0.352203
vt 1.540681 0.352203
vt 1.540681 0.238831
vt 1.017982 0.238831
vt 1.017982 0.352203
vt 1.115086 0.352203
vt 1.115086 0.238831
vt 1.540681 0.238831
vt 1.540681 0.352203
vt 1.446270 0.352203
vt 1.446270 0.238831
vt 1.446270 0.238831
vt 1.446270 0.352203
vt 1.540681 0.352203
vt 1.540681 0.238831
vt 1.115086 0.238831
vt 1.115086 0.352203
vt 1.017982 0.352203
vt 1.017982 0.238831
vt 1.017982 0.238831
vt 1.017982 0.352203
vt 1.115086 0.352203
vt 1.115086 0.238831
vt 1.453721 0.039464
vt 1.426013 0.010023
vt 1.517179 0.010023
vt 1.532065 0.039464
vt 1.548652 0.010023
vt 1.630662 0.010023
vt 1.610423 0.039464
vt 1.778895 0.039464
vt 1.630485 0.039464
vt 1.778850 0.010023
vt 1.798435 0.039464
vt 1.859903 0.010023
vt 1.875509 0.039464
vt 1.985873 0.010023
vt 1.958151 0.039464
vt 1.891155 0.010023
vt 1.294683 0.991235
vt 1.230707 0.986518
vt 1.186831 0.907525
vt 1.326931 0.907376
vt 1.294683 0.991235
vt 1.230707 0.986518
vt 1.186831 0.907525
vt 1.326931 0.907376
vt 1.294683 0.991235
vt 1.230707 0.986518
vt 1.186831 0.907525
vt 1.326931 0.907376
vt 1.540681 0.238831
vt 1.540681 0.352203
vt 1.446270 0.352203
vt 1.446270 0.238831
vt 1.446270 0.238831
vt 1.446270 0.352203
vt 1.540681 0.352203
vt 1.540681 0.238831
vt 1.115086 0.238831
vt 1.115086 0.352203
vt 1.017982 0.352203
vt 1.017982 0.238831
vt 1.017982 0.238831
vt 1.017982 0.352203
vt 1.115086 0.352203
vt 1.115086 0.238831
vt 1.453721 0.039464
vt 1.426013 0.010023
vt 1.517179 0.010023
vt 1.532065 0.039464
vt 1.548652 0.010023
vt 1.630662 0.010023
vt 1.610423 0.039464
vt 1.778895 0.039464
vt 1.630485 0.039464
vt 1.778850 0.010023
vt 1.798435 0.039464
vt 1.859903 0.010023
vt 1.875509 0.039464
vt 1.985873 0.010023
vt 1.958151 0.039464
vt 1.891155 0.010023
vt 1.901940 0.224867
vt 1.901940 0.338882
vt 1.766508 0.338882
vt 1.766508 0.224867
vt 1.901940 0.224867
vt 1.901940 0.338882
vt 1.766508 0.338882
vt 1.766508 0.224867
vt 1.901940 0.224867
vt 1.901940 0.338882
vt 1.766508 0.338882
vt 1.766508 0.224867
vt 1.908260 0.208292
vt 1.759574 0.208199
vt 1.759705 0.086404
vt 1.908117 0.086318
vt 1.908260 0.208292
vt 1.759574 0.208199
vt 1.759705 0.086404
vt 1.908117 0.086318
vt 1.908260 0.208292
vt 1.759574 0.208199
vt 1.759705 0.086404
vt 1.908117 0.086318
vt 1.016552 0.230442
vt 1.016552 0.051384
vt 1.219614 0.051384
vt 1.219614 0.230442
vt 1.016552 0.230442
vt 1.016552 0.051384
vt 1.219614 0.051384
vt 1.219614 0.230442
vt 1.016552 0.230442
vt 1.016552 0.051384
vt 1.219614 0.051384
vt 1.219614 0.230442
vt 0.446270 0.352203
vt 0.446270 0.238831
vt 0.540681 0.238831
vt 0.540681 0.352203
vt 0.017982 0.352203
vt 0.017982 0.238831
vt 0.115086 0.238831
vt 0.115086 0.352203
vt 0.453721 0.039464
vt 0.426013 0.010023
vt 0.517179 0.010023
vt 0.532065 0.039464
vt 0.630662 0.010023
vt 0.610423 0.039464
vt 0.548652 0.010023
vt 0.778895 0.039464
vt 0.630485 0.039464
vt 0.778850 0.010023
vt 0.798435 0.039464
vt 0.859903 0.010023
vt 0.875509 0.039464
vt 0.891156 0.010023
vt 0.985873 0.010023
vt 0.958151 0.039464
vt 0.187896 0.907387
vt 0.328610 0.907374
vt 0.287407 0.989397
vt 0.233810 0.986626
vt 0.485366 0.504130
vt 0.502519 0.580634
vt 0.441154 0.615119
vt 0.416139 0.517237
vt 0.457486 0.207050
vt 0.457486 0.088512
vt 0.576442 0.088512
vt 0.576442 0.207050
vt 0.901940 0.224867
vt 0.901940 0.338882
vt 0.766508 0.338882
vt 0.766508 0.224867
vt 0.908122 0.208347
vt 0.759586 0.208214
vt 0.759594 0.086454
vt 0.908130 0.086333
vt 0.219613 0.051384
vt 0.219613 0.230442
vt 0.016552 0.230442
vt 0.016552 0.051384
vt 1.446270 0.238831
vt 1.446270 0.352203
vt 1.357673 0.352203
vt 1.357673 0.238831
vt 1.280678 0.352203
vt 1.203684 0.238831
vt 1.203684 0.352203
vt 1.115086 0.352203
vt 1.115086 0.238831
vt 1.446270 0.238831
vt 1.446270 0.352203
vt 1.357673 0.352203
vt 1.357673 0.238831
vt 1.280678 0.352203
vt 1.203684 0.238831
vt 1.203684 0.352203
vt 1.115086 0.352203
vt 1.115086 0.238831
vt 1.446270 0.238831
vt 1.446270 0.352203
vt 1.357673 0.352203
vt 1.357673 0.238831
vt 1.280678 0.352203
vt 1.203684 0.238831
vt 1.203684 0.352203
vt 1.115086 0.352203
vt 1.115086 0.238831
vt 0.446270 0.238831
vt 0.446270 0.352203
vt 0.357673 0.352203
vt 0.357673 0.238831
vt 0.280678 0.352203
vt 0.203684 0.238831
vt 0.203684 0.352203
vt 0.115086 0.352203
vt 0.115086 0.238831
vt 0.647588 0.422563
vt 0.604567 0.348258
vt 0.699549 0.301241
vt 0.696803 0.439403
vt 0.630499 0.581387
vt 0.678947 0.540564
vt 1.446270 0.352203
vt 1.446270 0.238831
vt 1.357673 0.238831
vt 1.357673 0.352203
vt 1.203684 0.352203
vt 1.203684 0.238831
vt 1.115086 0.238831
vt 1.115086 0.352203
vt 1.446270 0.352203
vt 1.446270 0.238831
vt 1.357673 0.238831
vt 1.357673 0.352203
vt 1.203684 0.352203
vt 1.203684 0.238831
vt 1.115086 0.238831
vt 1.115086 0.352203
vt 1.446270 0.352203
vt 1.446270 0.238831
vt 1.357673 0.238831
vt 1.357673 0.352203
vt 1.203684 0.352203
vt 1.203684 0.238831
vt 1.115086 0.238831
vt 1.115086 0.352203
vt 1.446270 0.352203
vt 1.446270 0.238831
vt 1.357673 0.238831
vt 1.357673 0.352203
vt 1.203684 0.352203
vt 1.203684 0.238831
vt 1.115086 0.238831
vt 1.115086 0.352203
vn 1 0 0
vn 1 0 0
vn -0.398911 0.915514 -0.052002000000000055
vn -0.74753 -0.35146600000000006 -0.563623
vn 0.464282 -0.849754 0.24972000000000005
vn 0.023522 -0.018363999999999936 0.999555
vn -0.735297 -0.663996 -0.13581999999999997
vn -0.777733 -0.598694 0.19156600000000001
vn -0.621655 -0.546456 -0.561187
vn 0 -6.123233995736766E-17 -1
vn 0 -6.123233995736766E-17 -1
vn 0 -6.123233995736766E-17 -1
vn 0 -6.123233995736766E-17 -1
vn 0 -6.123233995736766E-17 -1
vn 0 -6.123233995736766E-17 -1
vn 0.12285 0.505439 -0.854072
vn 0.273075 0.863367 -0.42429700000000004
vn 0.023522 -0.018363999999999936 0.999555
vn 0.400689 0.747162 -0.53028
vn -0.94231 -0.297241 0.15394600000000003
vn -0.785316 -0.12896699999999997 0.605513
vn -0.888889 -0.444444 0.11111100000000003
vn -0.888889 -0.444444 0.11111100000000003
vn -0.894065 -0.444909 0.05200200000000003
vn -0.888889 -0.444444 0.11111100000000003
vn 0.894065 0.444909 -0.05200200000000003
vn -0.888889 -0.444444 0.11111100000000003
vn -0.888889 -0.444444 0.11111100000000003
vn -0.894065 -0.444909 0.05200200000000003
vn 0.894065 0.444909 -0.05200200000000003
vn -0.793047 -0.464535 -0.39405999999999997
vn -0.735297 -0.663996 -0.13581999999999997
vn -0.621655 -0.546456 -0.561187
vn -0.793047 -0.464535 -0.39405999999999997
vn -0.777733 -0.598694 0.19156600000000001
vn -0.735297 -0.663996 -0.13581999999999997
vn -0.793047 -0.464535 -0.39405999999999997
vn 0.755911 0.654365 -0.02012700000000004
vn -0.777733 -0.598694 0.19156600000000001
vn -0.793047 -0.464535 -0.39405999999999997
vn 0.008376 0.919787 0.39232999999999996
vn 0.755911 0.654365 -0.02012700000000004
vn 0.761191 -0.645918 0.058131000000000044
vn 0.060368 0.994212 -0.08887000000000006
vn 0.690707 -0.3552219999999999 0.629873
vn 0.008376 0.919787 0.39232999999999996
vn -0.793047 -0.464535 -0.39405999999999997
vn 0.690707 -0.3552219999999999 0.629873
vn -0.909817 -0.414769 -0.014159999999999975
vn 0.400689 0.747162 -0.53028
vn -0.785316 -0.12896699999999997 0.605513
vn -0.909817 -0.414769 -0.014159999999999975
vn 0.866726 0.18100799999999997 -0.464783
vn 0.400689 0.747162 -0.53028
vn 0.866726 0.18100799999999997 -0.464783
vn -0.88368 0.10291900000000002 0.456637
vn 0.031289 0.983488 0.17824899999999994
vn 0.690707 -0.3552219999999999 0.629873
vn -0.688963 -0.03927899999999996 0.723731
vn -0.785316 -0.12896699999999997 0.605513
vn 0.690707 -0.3552219999999999 0.629873
vn 0.737943 0.08266900000000005 0.66978
vn -0.688963 -0.03927899999999996 0.723731
vn 0.737943 0.08266900000000005 0.66978
vn 0.886631 0.21888300000000002 0.4074
vn 0.237273 -0.934219 0.2663380000000001
vn 0.886631 0.21888300000000002 0.4074
vn 0.165887 0.956362 0.24052599999999993
vn 0.165887 0.956362 0.24052599999999993
vn -0.469813 0.09909800000000006 0.877186
vn -0.688963 -0.03927899999999996 0.723731
vn -0.75082 -0.569864 0.33395300000000006
vn -0.469813 0.09909800000000006 0.877186
vn 0.165887 0.956362 0.24052599999999993
vn -0.688963 -0.03927899999999996 0.723731
vn -0.785316 -0.12896699999999997 0.605513
vn -0.461492 0.851809 0.24788299999999994
vn 0.031289 0.983488 0.17824899999999994
vn 0.031289 0.983488 0.17824899999999994
vn -0.909817 -0.414769 -0.014159999999999975
vn -0.88368 0.10291900000000002 0.456637
vn 0.866726 0.18100799999999997 -0.464783
vn 0.031289 0.983488 0.17824899999999994
vn 0.464282 -0.849754 0.24972000000000005
vn 0.12285 0.505439 -0.854072
vn 0.004431 0.006255000000000062 0.999971
vn 0.12285 0.505439 -0.854072
vn -0.74753 -0.35146600000000006 -0.563623
vn 0.273075 0.863367 -0.42429700000000004
vn 0.12285 0.505439 -0.854072
vn 0.004431 0.006255000000000062 0.999971
vn 0.866726 0.18100799999999997 -0.464783
vn 0.031289 0.983488 0.17824899999999994
vn 0.400689 0.747162 -0.53028
vn 0.031289 0.983488 0.17824899999999994
vn -0.461492 0.851809 0.24788299999999994
vn -0.94231 -0.297241 0.15394600000000003
vn 0.690707 -0.3552219999999999 0.629873
vn -0.785316 -0.12896699999999997 0.605513
vn 0.761191 -0.645918 0.058131000000000044
vn 0.690707 -0.3552219999999999 0.629873
vn 0.060368 0.994212 -0.08887000000000006
vn 0.008376 0.919787 0.39232999999999996
vn 0.690707 -0.3552219999999999 0.629873
vn 0.690707 -0.3552219999999999 0.629873
vn 0.737943 0.08266900000000005 0.66978
vn -0.688963 -0.03927899999999996 0.723731
vn -0.461492 0.851809 0.24788299999999994
vn -0.785316 -0.12896699999999997 0.605513
vn 0.060368 0.994212 -0.08887000000000006
vn 0.400689 0.747162 -0.53028
vn -0.94231 -0.297241 0.15394600000000003
vn 0.237273 -0.934219 0.2663380000000001
vn -0.75082 -0.569864 0.33395300000000006
vn -0.688963 -0.03927899999999996 0.723731
vn 0.737943 0.08266900000000005 0.66978
vn 1 0 0
vn 0.398911 -0.915514 0.052002000000000055
vn 1 0 0
vn -0.398911 0.915514 -0.052002000000000055
vn 0.999996 0.002757 -1.6881756126246263E-19
vn 0.999996 0.002757 -1.6881756126246263E-19
vn 0.999996 0.002757 -1.6881756126246263E-19
vn 0.999996 0.002757 -1.6881756126246263E-19
vn -0.999995 -0.003011 1.8437057561163402E-19
vn -0.999995 -0.003011 1.8437057561163402E-19
vn -0.999995 -0.003011 1.8437057561163402E-19
vn -0.999995 -0.003011 1.8437057561163402E-19
vn 1 -8.2E-05 5.021051876504148E-21
vn 1 -8.2E-05 5.021051876504148E-21
vn 1 -8.2E-05 5.021051876504148E-21
vn 1 -8.2E-05 5.021051876504148E-21
vn -1 0.000168 -1.0287033112837766E-20
vn -1 0.000168 -1.0287033112837766E-20
vn -1 0.000168 -1.0287033112837766E-20
vn -1 0.000168 -1.0287033112837766E-20
vn 0 6.123233995736766E-17 1
vn 0 6.123233995736766E-17 1
vn 0 6.123233995736766E-17 1
vn 0 6.123233995736766E-17 1
vn 0 6.123233995736766E-17 1
vn 0 6.123233995736766E-17 1
vn 0 6.123233995736766E-17 1
vn 0 6.123233995736766E-17 1
vn 0 6.123233995736766E-17 1
vn 0 6.123233995736766E-17 1
vn 0 6.123233995736766E-17 1
vn 0 6.123233995736766E-17 1
vn 0 6.123233995736766E-17 1
vn 0 6.123233995736766E-17 1
vn 0 6.123233995736766E-17 1
vn 0 6.123233995736766E-17 1
vn 0.000144 -1 6.123233995736766E-17
vn 0.000144 -1 6.123233995736766E-17
vn 0.000144 -1 6.123233995736766E-17
vn 0.000144 -1 6.123233995736766E-17
vn 0.000239 -1 6.123233995736766E-17
vn 0.000239 -1 6.123233995736766E-17
vn 0.000239 -1 6.123233995736766E-17
vn 0.000239 -1 6.123233995736766E-17
vn -0.999998 -0.001866 1.1425954636044807E-19
vn -0.999998 -0.001867 1.143207787004054E-19
vn -0.999998 -0.001866 1.1425954636044807E-19
vn -0.999998 -0.001866 1.1425954636044807E-19
vn 0.999998 0.002051 -1.2558752925256107E-19
vn 0.999998 0.002051 -1.2558752925256107E-19
vn 0.999998 0.002051 -1.2558752925256107E-19
vn 0.999998 0.002051 -1.2558752925256107E-19
vn -1 -0.000774 4.739383112700257E-20
vn -1 -0.000774 4.739383112700257E-20
vn -1 -0.000774 4.739383112700257E-20
vn -1 -0.000774 4.739383112700257E-20
vn 1 0.000755 -4.623041666781258E-20
vn 1 0.000755 -4.623041666781258E-20
vn 1 0.000755 -4.623041666781258E-20
vn 1 0.000755 -4.623041666781258E-20
vn 0 6.123233995736766E-17 1
vn 0 6.123233995736766E-17 1
vn 0 6.123233995736766E-17 1
vn 0 6.123233995736766E-17 1
vn 0 6.123233995736766E-17 1
vn 0 6.123233995736766E-17 1
vn 0 6.123233995736766E-17 1
vn 0 6.123233995736766E-17 1
vn 0 6.123233995736766E-17 1
vn 0 6.123233995736766E-17 1
vn 0 6.123233995736766E-17 1
vn 0 6.123233995736766E-17 1
vn 0 6.123233995736766E-17 1
vn 0 6.123233995736766E-17 1
vn 0 6.123233995736766E-17 1
vn 0 6.123233995736766E-17 1
vn -0 6.123233995736766E-17 1
vn -0 6.123233995736766E-17 1
vn -0 6.123233995736766E-17 1
vn -0 -9.999999999387675E-07 1
vn 0 6.123233995736766E-17 1
vn 0 6.123233995736766E-17 1
vn 0 6.123233995736766E-17 1
vn 0 1.0000000000612324E-06 1
vn -1E-06 6.123233995736766E-17 1
vn -0 6.123233995736766E-17 1
vn -1E-06 6.123233995736766E-17 1
vn -1E-06 6.123233995736766E-17 1
vn 0.000747 -1 6.123233995736766E-17
vn 0.000747 -1 6.123233995736766E-17
vn 0.000747 -1 6.123233995736766E-17
vn 0.000747 -1 6.123233995736766E-17
vn -0.000844 1 -6.123233995736766E-17
vn -0.000843 1 -6.123233995736766E-17
vn -0.000844 1 -6.123233995736766E-17
vn -0.000844 1 -6.123233995736766E-17
vn -0.000331 -1 6.123233995736766E-17
vn -0.000331 -1 6.123233995736766E-17
vn -0.000331 -1 6.123233995736766E-17
vn -0.000331 -1 6.123233995736766E-17
vn 0.000437 1 -6.123233995736766E-17
vn 0.000437 1 -6.123233995736766E-17
vn 0.000437 1 -6.123233995736766E-17
vn 0.000437 1 -6.123233995736766E-17
vn 0 6.123233995736766E-17 1
vn 0 6.123233995736766E-17 1
vn 0 6.123233995736766E-17 1
vn 0 6.123233995736766E-17 1
vn 0 6.123233995736766E-17 1
vn 0 6.123233995736766E-17 1
vn 0 6.123233995736766E-17 1
vn 0 6.123233995736766E-17 1
vn 0 6.123233995736766E-17 1
vn 0 6.123233995736766E-17 1
vn 0 6.123233995736766E-17 1
vn 0 6.123233995736766E-17 1
vn 0 6.123233995736766E-17 1
vn 0 6.123233995736766E-17 1
vn 0 6.123233995736766E-17 1
vn 0 6.123233995736766E-17 1
vn -0.992438 7.515902335727136E-18 0.122744
vn -0.989545 8.831356695031266E-18 0.144227
vn -0.994865 6.197508824105053E-18 0.101213
vn -0.994865 6.197508824105053E-18 0.101213
vn 0 -0.992539 0.12192600000000006
vn 0 -0.989543 0.14423800000000006
vn 0 -0.995031 0.09956400000000006
vn 0 -0.995031 0.09956400000000006
vn 0.992434 7.517861770605771E-18 0.122776
vn 0.989553 8.827927683993653E-18 0.144171
vn 0.994853 6.2048567048999376E-18 0.101333
vn 0.994853 6.2048567048999376E-18 0.101333
vn -0.991657 7.893277246884392E-18 0.128907
vn -0.991657 7.893277246884392E-18 0.128907
vn -0.989545 8.831356695031266E-18 0.144227
vn -0.992438 7.515902335727136E-18 0.122744
vn 0 -0.991624 0.12915600000000005
vn 0 -0.991624 0.12915600000000005
vn 0 -0.989543 0.14423800000000006
vn 0 -0.992539 0.12192600000000006
vn 0.991666 7.888868518407463E-18 0.128835
vn 0.991666 7.888868518407463E-18 0.128835
vn 0.989553 8.827927683993653E-18 0.144171
vn 0.992434 7.517861770605771E-18 0.122776
vn -0.995759 5.633558973097697E-18 0.092003
vn -0.991657 7.893277246884392E-18 0.128907
vn -0.991657 7.893277246884392E-18 0.128907
vn -0.995759 5.633558973097697E-18 0.092003
vn 0 -0.99579 0.09166200000000005
vn 0 -0.991624 0.12915600000000005
vn 0 -0.991624 0.12915600000000005
vn 0 -0.99579 0.09166200000000005
vn 0.995759 5.633558973097697E-18 0.092003
vn 0.991666 7.888868518407463E-18 0.128835
vn 0.991666 7.888868518407463E-18 0.128835
vn 0.995759 5.633558973097697E-18 0.092003
vn -9.8E-05 1 -6.123233995736766E-17
vn -9.7E-05 1 -6.123233995736766E-17
vn -9.8E-05 1 -6.123233995736766E-17
vn -9.8E-05 1 -6.123233995736766E-17
vn -0.000296 1 -6.123233995736766E-17
vn -0.000295 1 -6.123233995736766E-17
vn -0.000296 1 -6.123233995736766E-17
vn -0.000296 1 -6.123233995736766E-17
vn 0 6.123233995736766E-17 1
vn 0 6.123233995736766E-17 1
vn 0 6.123233995736766E-17 1
vn 0 6.123233995736766E-17 1
vn 0 6.123233995736766E-17 1
vn 0 6.123233995736766E-17 1
vn 0 6.123233995736766E-17 1
vn 0 6.123233995736766E-17 1
vn 0 6.123233995736766E-17 1
vn 0 6.123233995736766E-17 1
vn 0 6.123233995736766E-17 1
vn 0 6.123233995736766E-17 1
vn 0 6.123233995736766E-17 1
vn 0 6.123233995736766E-17 1
vn 0 6.123233995736766E-17 1
vn 0 6.123233995736766E-17 1
vn 1E-06 6.123233995736766E-17 1
vn 1E-06 6.123233995736766E-17 1
vn 1E-06 6.123233995736766E-17 1
vn 0 6.123233995736766E-17 1
vn -0.469813 0.09909800000000006 0.877186
vn -0.75082 -0.569864 0.33395300000000006
vn 0.237273 -0.934219 0.2663380000000001
vn 0.886631 0.21888300000000002 0.4074
vn 0 6.123233995736766E-17 1
vn 0 6.123233995736766E-17 1
vn 0 6.123233995736766E-17 1
vn 0 6.123233995736766E-17 1
vn 0 0.992451 0.12264299999999995
vn 0 0.989727 0.14296699999999996
vn 0 0.994756 0.10227599999999995
vn 0 0.994756 0.10227599999999995
vn 0 0.991835 0.12752499999999994
vn 0 0.991835 0.12752499999999994
vn 0 0.989727 0.14296699999999996
vn 0 0.992451 0.12264299999999995
vn 0 0.991835 0.12752499999999994
vn 0 0.99579 0.09166199999999994
vn 0 0.99579 0.09166199999999994
vn 0 0.991835 0.12752499999999994
vn 0.48136 -0.876523 5.3671554316451775E-17
vn 0.48136 -0.876523 -9.999999999463283E-07
vn 0.678334 -0.734754 4.499070671303572E-17
vn 0.893105 -0.44288 0.07887100000000002
vn 0.997276 4.516436162915481E-18 0.073759
vn 0.811347 0.581508 0.059709999999999964
vn 0.76767 0.640845 9.999999999607595E-07
vn 0.481361 0.876523 9.999999999463283E-07
vn 0.481361 0.876522 9.999999999463286E-07
vn -0.481361 0.876523 -5.3671554316451775E-17
vn -0.48136 0.876523 -1.0000000000536716E-06
vn -0.678334 0.734753 -4.499064548069576E-17
vn -0.893105 0.44288 0.07887199999999997
vn -0.997276 4.516436162915481E-18 0.073759
vn -0.811347 -0.581507 0.059710000000000034
vn -0.76767 -0.640845 2.0000000000392404E-06
vn -0.481361 -0.876523 1.0000000000536716E-06
vn -0.481361 -0.876522 1.0000000000536714E-06
vn -0.876523 -0.48136 2.9474799161878497E-17
vn -0.876523 -0.48136 -9.999999999705251E-07
vn -0.734754 -0.678334 4.153597809264103E-17
vn -0.442881 -0.893105 0.07887100000000005
vn -0 -0.997276 0.07375900000000006
vn 0.581508 -0.811347 0.05971000000000005
vn 0.640845 -0.76767 1.0000000000470063E-06
vn 0.876523 -0.481361 1.0000000000294748E-06
vn 0.876522 -0.481361 1.0000000000294748E-06
vn 0.876523 0.48136 -2.9474799161878497E-17
vn 0.876523 0.48136 -1.0000000000294748E-06
vn 0.734753 0.678334 9.99999999958464E-07
vn 0.44288 0.893105 0.07887199999999994
vn 0 0.997276 0.07375899999999995
vn -0.581508 0.811347 0.05970999999999995
vn -0.640845 0.76767 1.999999999952994E-06
vn -0.876523 0.481361 9.999999999705251E-07
vn -0.876523 0.481361 9.999999999705251E-07
vn 0.755911 0.654365 -0.02012700000000004
vn 0.008376 0.919787 0.39232999999999996
vn 0.690707 -0.3552219999999999 0.629873
vn -0.793047 -0.464535 -0.39405999999999997
vn -0.777733 -0.598694 0.19156600000000001
vn -0.621655 -0.546456 -0.561187
vn -0.456765 0.889587 -5.4471493605654826E-17
vn -0.456765 0.889587 -5.4471493605654826E-17
vn -0.853453 0.521169 -3.191239738324135E-17
vn -0.853453 0.521169 -3.191239738324135E-17
vn -0.853453 -0.521169 3.191239738324135E-17
vn -0.853453 -0.521169 3.191239738324135E-17
vn -0.456765 -0.889587 5.4471493605654826E-17
vn -0.456765 -0.889587 5.4471493605654826E-17
vn -0.889587 -0.456765 2.796878976062704E-17
vn -0.889587 -0.456765 2.796878976062704E-17
vn -0.521169 -0.853453 5.22589242336353E-17
vn -0.521169 -0.853453 5.22589242336353E-17
vn 0.521169 -0.853453 5.22589242336353E-17
vn 0.521169 -0.853453 5.22589242336353E-17
vn 0.889587 -0.456765 2.796878976062704E-17
vn 0.889587 -0.456765 2.796878976062704E-17
vn 0.456765 -0.889587 5.4471493605654826E-17
vn 0.456765 -0.889587 5.4471493605654826E-17
vn 0.853453 -0.521169 3.191239738324135E-17
vn 0.853453 -0.521169 3.191239738324135E-17
vn 0.853453 0.521169 -3.191239738324135E-17
vn 0.853453 0.521169 -3.191239738324135E-17
vn 0.456765 0.889587 -5.4471493605654826E-17
vn 0.456765 0.889587 -5.4471493605654826E-17
vn 0.889587 0.456765 -2.796878976062704E-17
vn 0.889587 0.456765 -2.796878976062704E-17
vn 0.521169 0.853453 -5.22589242336353E-17
vn 0.521169 0.853453 -5.22589242336353E-17
vn -0.521169 0.853453 -5.22589242336353E-17
vn -0.521169 0.853453 -5.22589242336353E-17
vn -0.889587 0.456765 -2.796878976062704E-17
vn -0.889587 0.456765 -2.796878976062704E-17
g 22 - Default
f 1/1/1 2/2/2 3/3/3
f 4/4/4 5/5/5 6/6/6
f 7/7/7 8/8/8 9/9/9
f 10/10/10 11/11/11 12/12/12
f 13/13/13 14/14/14 15/15/15
f 16/16/16 17/17/17 18/18/18
f 19/19/19 20/20/20 21/21/21
f 22/22/22 23/23/23 24/24/24
f 25/25/25 26/26/26 27/27/27
f 28/28/28 29/29/29 30/30/30
f 31/31/31 32/32/32 33/33/33
f 34/34/34 35/35/35 36/36/36
f 37/37/37 38/38/38 39/39/39
f 40/40/40 41/41/41 42/42/42
f 43/43/43 44/44/44 45/45/45
f 46/46/46 47/47/47 48/48/48
f 49/49/49 50/50/50 51/51/51
f 52/52/52 53/53/53 54/54/54
f 55/55/55 56/56/56 57/57/57
f 58/58/58 59/59/59 60/60/60
f 61/61/61 62/62/62 63/63/63
f 64/64/64 65/65/65 66/66/66
f 67/67/67 64/64/64 68/68/68
f 69/69/69 70/70/70 67/67/67
f 71/71/71 72/72/72 73/73/73
f 73/73/73 74/74/74 75/75/75
f 76/76/76 77/77/77 78/78/78
f 79/79/79 80/80/80 76/76/76
f 81/81/81 82/82/82 80/80/80
f 80/80/80 83/83/83 81/81/81
f 84/84/84 85/85/85 86/86/86
f 87/87/87 84/84/84 88/88/88
f 88/88/88 89/89/89 90/90/90
f 89/89/89 88/88/88 91/91/91
f 92/92/92 93/93/93 94/94/94
f 95/95/95 96/96/96 94/94/94
f 97/97/97 98/98/98 99/99/99
f 97/97/97 100/100/100 101/101/101
f 102/102/102 103/103/103 104/104/104
f 105/105/105 103/103/103 106/106/106
f 103/103/103 107/107/107 106/106/106
f 103/103/103 108/108/108 107/107/107
f 108/108/108 109/109/109 107/107/107
f 103/103/103 110/110/110 108/108/108
f 111/111/111 108/108/108 110/110/110
f 111/111/111 110/110/110 112/112/112
f 113/113/113 114/114/114 115/115/115
f 116/116/116 113/113/113 115/115/115
f 117/117/117 118/118/118 119/119/119
f 117/117/117 120/120/120 118/118/118
f 121/121/121 122/122/122 123/123/123
f 123/123/123 124/124/124 121/121/121
f 125/125/125 126/126/126 127/127/127
f 127/127/127 128/128/128 125/125/125
f 129/129/129 130/130/130 131/131/131
f 131/131/131 132/132/132 129/129/129
f 133/133/133 134/134/134 135/135/135
f 135/135/135 136/136/136 133/133/133
f 137/137/137 138/138/138 139/139/139
f 139/139/139 140/140/140 137/137/137
f 140/140/140 141/141/141 142/142/142
f 142/142/142 143/143/143 140/140/140
f 144/144/144 145/145/145 142/142/142
f 142/142/142 146/146/146 144/144/144
f 147/147/147 146/146/146 148/148/148
f 148/148/148 149/149/149 147/147/147
f 150/150/150 151/151/151 149/149/149
f 149/149/149 152/152/152 150/150/150
f 153/153/153 154/154/154 155/155/155
f 155/155/155 156/156/156 153/153/153
f 157/157/157 158/158/158 159/159/159
f 159/159/159 160/160/160 157/157/157
f 161/161/161 162/162/162 163/163/163
f 163/163/163 164/164/164 161/161/161
f 165/165/165 166/166/166 167/167/167
f 167/167/167 168/168/168 165/165/165
f 169/169/169 170/170/170 171/171/171
f 171/171/171 172/172/172 169/169/169
f 173/173/173 174/174/174 175/175/175
f 175/175/175 176/176/176 173/173/173
f 177/177/177 178/178/178 179/179/179
f 179/179/179 180/180/180 177/177/177
f 180/180/180 181/181/181 182/182/182
f 182/182/182 183/183/183 180/180/180
f 184/184/184 185/185/185 182/182/182
f 182/182/182 186/186/186 184/184/184
f 187/187/187 186/186/186 188/188/188
f 188/188/188 189/189/189 187/187/187
f 190/190/190 191/191/191 189/189/189
f 189/189/189 192/192/192 190/190/190
f 193/193/193 194/194/194 195/195/195
f 195/195/195 196/196/196 193/193/193
f 197/197/197 198/198/198 199/199/199
f 199/199/199 200/200/200 197/197/197
f 201/201/201 202/202/202 203/203/203
f 203/203/203 204/204/204 201/201/201
f 205/205/205 206/206/206 207/207/207
f 207/207/207 208/208/208 205/205/205
f 209/209/209 210/210/210 211/211/211
f 211/211/211 212/212/212 209/209/209
f 213/213/213 214/214/214 215/215/215
f 215/215/215 216/216/216 213/213/213
f 217/217/217 218/218/218 219/219/219
f 219/219/219 220/220/220 217/217/217
f 221/221/221 222/222/222 223/223/223
f 223/223/223 224/224/224 221/221/221
f 224/224/224 225/225/225 226/226/226
f 226/226/226 227/227/227 224/224/224
f 228/228/228 229/229/229 226/226/226
f 226/226/226 230/230/230 228/228/228
f 231/231/231 230/230/230 232/232/232
f 232/232/232 233/233/233 231/231/231
f 234/234/234 235/235/235 233/233/233
f 233/233/233 236/236/236 234/234/234
f 237/237/237 238/238/238 239/239/239
f 239/239/239 240/240/240 237/237/237
f 241/241/241 242/242/242 243/243/243
f 243/243/243 244/244/244 241/241/241
f 245/245/245 246/246/246 247/247/247
f 247/247/247 248/248/248 245/245/245
f 249/249/249 250/250/250 251/251/251
f 251/251/251 252/252/252 249/249/249
f 253/253/253 254/254/254 255/255/255
f 255/255/255 256/256/256 253/253/253
f 257/257/257 258/258/258 259/259/259
f 259/259/259 260/260/260 257/257/257
f 261/261/261 262/262/262 263/263/263
f 263/263/263 264/264/264 261/261/261
f 265/265/265 266/266/266 267/267/267
f 267/267/267 268/268/268 265/265/265
f 269/269/269 270/270/270 271/271/271
f 271/271/271 272/272/272 269/269/269
f 273/273/273 274/274/274 275/275/275
f 275/275/275 276/276/276 273/273/273
f 277/277/277 278/278/278 279/279/279
f 279/279/279 280/280/280 277/277/277
f 281/281/281 282/282/282 283/283/283
f 283/283/283 284/284/284 281/281/281
f 285/285/285 286/286/286 284/284/284
f 284/284/284 287/287/287 285/285/285
f 288/288/288 289/289/289 285/285/285
f 285/285/285 290/290/290 288/288/288
f 291/291/291 290/290/290 292/292/292
f 292/292/292 293/293/293 291/291/291
f 293/293/293 294/294/294 295/295/295
f 295/295/295 296/296/296 293/293/293
f 297/297/297 298/298/298 299/299/299
f 299/299/299 300/300/300 297/297/297
f 301/301/301 302/302/302 303/303/303
f 303/303/303 304/304/304 301/301/301
f 305/305/305 306/306/306 307/307/307
f 307/307/307 308/308/308 305/305/305
f 309/309/309 310/310/310 311/311/311
f 311/311/311 312/312/312 309/309/309
f 313/313/313 314/314/314 315/315/315
f 315/315/315 316/316/316 313/313/313
f 317/317/317 318/318/318 319/319/319
f 319/319/319 320/320/320 317/317/317
f 321/321/321 322/322/322 323/323/323
f 323/323/323 324/324/324 321/321/321
f 324/324/324 323/323/323 325/325/325
f 324/324/324 325/325/325 326/326/326
f 325/325/325 327/327/327 326/326/326
f 326/326/326 327/327/327 328/328/328
f 328/328/328 329/329/329 326/326/326
f 330/330/330 331/331/331 332/332/332
f 332/332/332 333/333/333 330/330/330
f 333/333/333 332/332/332 334/334/334
f 333/333/333 334/334/334 335/335/335
f 334/334/334 336/336/336 335/335/335
f 335/335/335 336/336/336 337/337/337
f 337/337/337 338/338/338 335/335/335
f 339/339/339 340/340/340 341/341/341
f 341/341/341 342/342/342 339/339/339
f 342/342/342 341/341/341 343/343/343
f 342/342/342 343/343/343 344/344/344
f 343/343/343 345/345/345 344/344/344
f 344/344/344 345/345/345 346/346/346
f 346/346/346 347/347/347 344/344/344
f 348/348/348 349/349/349 350/350/350
f 350/350/350 351/351/351 348/348/348
f 351/351/351 350/350/350 352/352/352
f 351/351/351 352/352/352 353/353/353
f 352/352/352 354/354/354 353/353/353
f 353/353/353 354/354/354 355/355/355
f 355/355/355 356/356/356 353/353/353
f 357/357/357 358/358/358 359/359/359
f 359/359/359 360/360/360 357/357/357
f 361/361/361 357/357/357 360/360/360
f 360/360/360 362/362/362 361/361/361
f 363/363/363 364/364/364 365/365/365
f 365/365/365 366/366/366 363/363/363
f 367/367/367 366/366/366 365/365/365
f 365/365/365 368/368/368 367/367/367
f 367/367/367 368/368/368 369/369/369
f 369/369/369 370/370/370 367/367/367
f 371/371/371 372/372/372 373/373/373
f 373/373/373 374/374/374 371/371/371
f 375/375/375 374/374/374 373/373/373
f 373/373/373 376/376/376 375/375/375
f 375/375/375 376/376/376 377/377/377
f 377/377/377 378/378/378 375/375/375
f 379/379/379 380/380/380 381/381/381
f 381/381/381 382/382/382 379/379/379
f 383/383/383 382/382/382 381/381/381
f 381/381/381 384/384/384 383/383/383
f 383/383/383 384/384/384 385/385/385
f 385/385/385 386/386/386 383/383/383
f 387/387/387 388/388/388 389/389/389
f 389/389/389 390/390/390 387/387/387
f 391/391/391 390/390/390 389/389/389
f 389/389/389 392/392/392 391/391/391
f 391/391/391 392/392/392 393/393/393
f 393/393/393 394/394/394 391/391/391
