v 0.129112 -1.6394189999999997 4.382514
v 0.129112 -1.6394189999999997 4.018781
v -0.04698 -1.3957209999999998 4.032575
v -0.04698 -1.3957209999999998 4.396307
v -0.16134 -1.2423089999999999 4.410834
v -0.16134 -1.2423089999999999 4.047101
v -0.294939 -1.0617669999999997 4.064497
v -0.294939 -1.0617669999999997 4.428229
v 0.129112 -1.6394189999999997 4.382514
v 0.129112 -1.6394189999999997 4.418285
v 0.600427 -2.2698669999999996 4.372631
v 0.600427 -2.2698669999999996 4.336859
v -0.04698 -1.3957209999999998 4.432079
v 0.129112 -1.6394189999999997 4.418285
v -0.16134 -1.2423089999999999 4.410834
v -0.16134 -1.2423089999999999 4.446605
v -0.04698 -1.3957209999999998 4.432079
v -0.04698 -1.3957209999999998 4.396307
v -0.294939 -1.0617669999999997 4.464
v -0.16134 -1.2423089999999999 4.446605
v -0.466398 -0.8212279999999997 4.461005
v -0.466398 -0.8212279999999997 4.496776
v -0.294939 -1.0617669999999997 4.464
v -0.294939 -1.0617669999999997 4.428229
vt 0.702038 0.218860
vt 0.682435 0.218860
vt 0.682223 0.236995
vt 0.701827 0.236995
vt 0.647898 0.218932
vt 0.679143 0.218932
vt 0.678592 0.237352
vt 0.647918 0.237248
vt 0.805843 0.218680
vt 0.800000 -0.000052
vt 1.000000 0.000000
vt 1.000000 0.218727
vt 0.703767 0.236761
vt 0.703950 0.218772
vt 0.388313 0.218656
vt 0.400000 0.000000
vt 0.600000 -0.000052
vt 0.588313 0.218659
vt 0.644452 0.236760
vt 0.644431 0.218664
vt -0.006721 0.218541
vt 0.000000 0.000000
vt 0.200000 0.000000
vt 0.159096 0.218753
vn 0.806721 0.590933 -3.618421034802715E-17
vn 0.810541 0.585682 -3.586267933091101E-17
vn 0.810541 0.585682 -3.586267933091101E-17
vn 0.80836 0.588689 -3.6046804977162813E-17
vn 0.803009 0.595967 -3.6492453947372534E-17
vn 0.803847 0.594836 -3.642320017088075E-17
vn 0.803847 0.594836 -3.642320017088075E-17
vn 0.806484 0.591256 -3.6203988393833373E-17
vn 0.806721 0.590933 -3.618421034802715E-17
vn 0.80736 0.590059 -3.613069328290441E-17
vn 0.800926 0.598763 -3.666365956989333E-17
vn 0.800926 0.598763 -3.666365956989333E-17
vn 0.8047 0.593682 -3.635253805056995E-17
vn 0.80736 0.590059 -3.613069328290441E-17
vn 0.803009 0.595967 -3.6492453947372534E-17
vn 0.803149 0.595779 -3.6480942267460544E-17
vn 0.8047 0.593682 -3.635253805056995E-17
vn 0.80836 0.588689 -3.6046804977162813E-17
vn 0.810845 0.585262 -3.583696174812891E-17
vn 0.803149 0.595779 -3.6480942267460544E-17
vn 0.8143 0.580444 -3.554194433421431E-17
vn 0.8143 0.580444 -3.554194433421431E-17
vn 0.810845 0.585262 -3.583696174812891E-17
vn 0.806484 0.591256 -3.6203988393833373E-17
g Cloth
f 1/1/1 2/2/2 3/3/3
f 3/3/3 4/4/4 1/1/1
f 5/5/5 6/6/6 7/7/7
f 7/7/7 8/8/8 5/5/5
g Line
f 9/9/9 10/10/10 11/11/11
f 11/11/11 12/12/12 9/9/9
f 4/4/4 13/13/13 14/14/14
f 14/14/14 1/1/1 4/4/4
f 15/15/15 16/16/16 17/17/17
f 17/17/17 18/18/18 15/15/15
f 8/8/8 19/19/19 20/20/20
f 20/20/20 5/5/5 8/8/8
f 21/21/21 22/22/22 23/23/23
f 23/23/23 24/24/24 21/21/21
