v -2 -2 1.2246467991473532E-16
v -2 -2 0.5861820000000001
v -2 -1 0.5861820000000001
v -2 -1 6.123233995736766E-17
v -2 3.589329550088969E-17 0.586182
v -2 0 0
v -2 1 0.5861819999999999
v -2 1 -6.123233995736766E-17
v -2 2 0.5861819999999999
v -2 2 -1.2246467991473532E-16
v -2 -2 0.5861820000000001
v -2 -2 1.2246467991473532E-16
v -1 -2 1.2246467991473532E-16
v -1 -2 0.5861820000000001
v 0 -2 1.2246467991473532E-16
v 0 -2 0.5861820000000001
v 1 -2 1.2246467991473532E-16
v 1 -2 0.5861820000000001
v 2 -2 1.2246467991473532E-16
v 2 -2 0.5861820000000001
v 2 -2 0.5861820000000001
v 2 -2 1.2246467991473532E-16
v 2 -1 6.123233995736766E-17
v 2 -1 0.5861820000000001
v 2 0 0
v 2 3.589329550088969E-17 0.586182
v 2 1 -6.123233995736766E-17
v 2 1 0.5861819999999999
v 2 2 -1.2246467991473532E-16
v 2 2 0.5861819999999999
v 2 2 0.5861819999999999
v 2 2 -1.2246467991473532E-16
v 1 2 -1.2246467991473532E-16
v 1 2 0.5861819999999999
v 0 2 -1.2246467991473532E-16
v 0 2 0.5861819999999999
v -1 2 -1.2246467991473532E-16
v -1 2 0.5861819999999999
v -2 2 -1.2246467991473532E-16
v -2 2 0.5861819999999999
v -2 -1 0.5861820000000001
v -2 -2 0.5861820000000001
v -1 -2 0.5861820000000001
v -1 -1 0.5861820000000001
v -2 3.589329550088969E-17 0.586182
v 0 -2 0.5861820000000001
v -1 3.589329550088969E-17 0.586182
v -2 1 0.5861819999999999
v 0 -1 0.5861820000000001
v 1 -2 0.5861820000000001
v -1 1 0.5861819999999999
v -2 2 0.5861819999999999
v -1 2 0.5861819999999999
v 0 3.589329550088969E-17 0.586182
v 1 -1 0.5861820000000001
v 2 -2 0.5861820000000001
v 2 -1 0.5861820000000001
v 0 1 0.5861819999999999
v 0 2 0.5861819999999999
v 1 3.589329550088969E-17 0.586182
v 2 3.589329550088969E-17 0.586182
v 1 1 0.5861819999999999
v 1 2 0.5861819999999999
v 2 1 0.5861819999999999
v 2 2 0.5861819999999999
vt -0.040004 -0.030474
vt -0.040004 -0.030474
vt -0.040004 0.114442
vt -0.040004 0.114442
vt -0.040004 0.259358
vt -0.040004 0.259358
vt -0.040004 0.404275
vt -0.040004 0.404275
vt -0.040004 0.549191
vt -0.040004 0.549191
vt -0.040004 -0.030474
vt -0.040004 -0.030474
vt 0.088829 -0.030474
vt 0.088829 -0.030474
vt 0.217663 -0.030474
vt 0.217663 -0.030474
vt 0.346497 -0.030474
vt 0.346497 -0.030474
vt 0.475331 -0.030474
vt 0.475331 -0.030474
vt 0.475331 -0.030474
vt 0.475331 -0.030474
vt 0.475331 0.114442
vt 0.475331 0.114442
vt 0.475331 0.259359
vt 0.475331 0.259359
vt 0.475331 0.404275
vt 0.475331 0.404275
vt 0.475331 0.549191
vt 0.475331 0.549191
vt 0.475331 0.549191
vt 0.475331 0.549191
vt 0.346497 0.549191
vt 0.346497 0.549191
vt 0.217663 0.549191
vt 0.217663 0.549191
vt 0.088829 0.549191
vt 0.088829 0.549191
vt -0.040004 0.549191
vt -0.040004 0.549191
vt -0.040004 0.114442
vt -0.040004 -0.030474
vt 0.088829 -0.030474
vt 0.088829 0.114442
vt -0.040004 0.259358
vt 0.217663 -0.030474
vt 0.088829 0.259358
vt -0.040004 0.404275
vt 0.217663 0.114442
vt 0.346497 -0.030474
vt 0.088829 0.404275
vt -0.040004 0.549191
vt 0.088829 0.549191
vt 0.217663 0.259359
vt 0.346497 0.114442
vt 0.475331 -0.030474
vt 0.475331 0.114442
vt 0.217663 0.404275
vt 0.217663 0.549191
vt 0.346497 0.259359
vt 0.475331 0.259359
vt 0.346497 0.404275
vt 0.346497 0.549191
vt 0.475331 0.404275
vt 0.475331 0.549191
vn -1 0 0
vn -1 0 0
vn -1 0 0
vn -1 0 0
vn -1 0 0
vn -1 0 0
vn -1 0 0
vn -1 0 0
vn -1 0 0
vn -1 0 0
vn 0 -1 6.123233995736766E-17
vn 0 -1 6.123233995736766E-17
vn 0 -1 6.123233995736766E-17
vn 0 -1 6.123233995736766E-17
vn 0 -1 6.123233995736766E-17
vn 0 -1 6.123233995736766E-17
vn 0 -1 6.123233995736766E-17
vn 0 -1 6.123233995736766E-17
vn 0 -1 6.123233995736766E-17
vn 0 -1 6.123233995736766E-17
vn 1 0 0
vn 1 0 0
vn 1 0 0
vn 1 0 0
vn 1 0 0
vn 1 0 0
vn 1 0 0
vn 1 0 0
vn 1 0 0
vn 1 0 0
vn 0 1 -6.123233995736766E-17
vn 0 1 -6.123233995736766E-17
vn 0 1 -6.123233995736766E-17
vn 0 1 -6.123233995736766E-17
vn 0 1 -6.123233995736766E-17
vn 0 1 -6.123233995736766E-17
vn 0 1 -6.123233995736766E-17
vn 0 1 -6.123233995736766E-17
vn 0 1 -6.123233995736766E-17
vn 0 1 -6.123233995736766E-17
vn 0 6.123233995736766E-17 1
vn 0 6.123233995736766E-17 1
vn 0 6.123233995736766E-17 1
vn 0 6.123233995736766E-17 1
vn 0 6.123233995736766E-17 1
vn 0 6.123233995736766E-17 1
vn 0 6.123233995736766E-17 1
vn 0 6.123233995736766E-17 1
vn 0 6.123233995736766E-17 1
vn 0 6.123233995736766E-17 1
vn 0 6.123233995736766E-17 1
vn 0 6.123233995736766E-17 1
vn 0 6.123233995736766E-17 1
vn 0 6.123233995736766E-17 1
vn 0 6.123233995736766E-17 1
vn 0 6.123233995736766E-17 1
vn 0 6.123233995736766E-17 1
vn 0 6.123233995736766E-17 1
vn 0 6.123233995736766E-17 1
vn 0 6.123233995736766E-17 1
vn 0 6.123233995736766E-17 1
vn 0 6.123233995736766E-17 1
vn 0 6.123233995736766E-17 1
vn 0 6.123233995736766E-17 1
vn 0 6.123233995736766E-17 1
g 02 - Default
f 1/1/1 2/2/2 3/3/3
f 3/3/3 4/4/4 1/1/1
f 4/4/4 3/3/3 5/5/5
f 5/5/5 6/6/6 4/4/4
f 6/6/6 5/5/5 7/7/7
f 7/7/7 8/8/8 6/6/6
f 8/8/8 7/7/7 9/9/9
f 9/9/9 10/10/10 8/8/8
f 11/11/11 12/12/12 13/13/13
f 13/13/13 14/14/14 11/11/11
f 14/14/14 13/13/13 15/15/15
f 15/15/15 16/16/16 14/14/14
f 16/16/16 15/15/15 17/17/17
f 17/17/17 18/18/18 16/16/16
f 18/18/18 17/17/17 19/19/19
f 19/19/19 20/20/20 18/18/18
f 21/21/21 22/22/22 23/23/23
f 23/23/23 24/24/24 21/21/21
f 24/24/24 23/23/23 25/25/25
f 25/25/25 26/26/26 24/24/24
f 26/26/26 25/25/25 27/27/27
f 27/27/27 28/28/28 26/26/26
f 28/28/28 27/27/27 29/29/29
f 29/29/29 30/30/30 28/28/28
f 31/31/31 32/32/32 33/33/33
f 33/33/33 34/34/34 31/31/31
f 34/34/34 33/33/33 35/35/35
f 35/35/35 36/36/36 34/34/34
f 36/36/36 35/35/35 37/37/37
f 37/37/37 38/38/38 36/36/36
f 38/38/38 37/37/37 39/39/39
f 39/39/39 40/40/40 38/38/38
f 41/41/41 42/42/42 43/43/43
f 43/43/43 44/44/44 41/41/41
f 45/45/45 41/41/41 44/44/44
f 44/44/44 43/43/43 46/46/46
f 44/44/44 47/47/47 45/45/45
f 48/48/48 45/45/45 47/47/47
f 46/46/46 49/49/49 44/44/44
f 47/47/47 44/44/44 49/49/49
f 49/49/49 46/46/46 50/50/50
f 47/47/47 51/51/51 48/48/48
f 52/52/52 48/48/48 51/51/51
f 51/51/51 53/53/53 52/52/52
f 49/49/49 54/54/54 47/47/47
f 51/51/51 47/47/47 54/54/54
f 50/50/50 55/55/55 49/49/49
f 54/54/54 49/49/49 55/55/55
f 55/55/55 50/50/50 56/56/56
f 56/56/56 57/57/57 55/55/55
f 53/53/53 51/51/51 58/58/58
f 54/54/54 58/58/58 51/51/51
f 58/58/58 59/59/59 53/53/53
f 55/55/55 60/60/60 54/54/54
f 60/60/60 55/55/55 57/57/57
f 58/58/58 54/54/54 60/60/60
f 57/57/57 61/61/61 60/60/60
f 59/59/59 58/58/58 62/62/62
f 60/60/60 62/62/62 58/58/58
f 62/62/62 60/60/60 61/61/61
f 62/62/62 63/63/63 59/59/59
f 61/61/61 64/64/64 62/62/62
f 63/63/63 62/62/62 64/64/64
f 64/64/64 65/65/65 63/63/63
