v 0.313811 -0.146409 0.136315
v 0.042507 -0.297387 0.10639300000000002
v -0.224809 -0.158424 0.09077600000000001
v -0.403924 0.04654200000000001 0.085703
v -0.357316 0.215432 0.09773299999999999
v -0.152127 0.376261 0.12261099999999997
v 0.160194 0.285525 0.14430899999999997
v 0.403472 0.04895000000000001 0.153215
v 0.210765 -0.04217099999999998 0.298187
v -0.039749 -0.16430799999999998 0.27139
v -0.187787 -0.11479699999999998 0.261419
v -0.280492 0.07163300000000002 0.262665
v -0.09972 0.20564000000000002 0.284213
v 0.122425 0.21428500000000003 0.303173
v -0.113245 -0.079216 -0.098414
v -0.172464 0.149963 -0.11473000000000001
v -0.067086 0.262432 -0.07809600000000001
v 0.140458 0.267266 -0.060539000000000016
v 0.188937 0.044850999999999995 -0.104723
v 0.100424 -0.159314 -0.08443899999999999
v 0.264234 -0.044553 0.0027440000000000025
v 0.375624 0.069813 0.03650699999999999
v 0.151757 0.270245 0.027572999999999983
v -0.128187 0.376058 0.014443999999999978
v -0.076009 0.04301400000000002 0.332617
v -0.229448 -0.160792 0.195214
v -0.365728 -0.094611 0.082088
v -0.226917 -0.17864 -0.02407499999999999
v 0.04043 0.367744 0.02558599999999998
v 0.022502 0.384857 0.13760299999999998
v 0.29401 0.215987 0.036785999999999985
v 0.306966 0.218114 0.153312
v 0.158152 0.11056800000000001 0.301156
v -0.361434 0.04668900000000001 0.158591
v -0.395008 0.10283 0.08916
v -0.296583 0.089113 -0.015256000000000006
v -0.394576 -0.028854999999999995 0.082849
v -0.129855 -0.268456 0.09313600000000001
v 0.313811 -0.146409 0.136315
v -0.357316 0.215432 0.09773299999999999
v -0.395008 0.10283 0.08916
v 0.042507 -0.297387 0.10639300000000002
v 0.403472 0.04895000000000001 0.153215
v 0.306966 0.218114 0.153312
v 0.160194 0.285525 0.14430899999999997
v 0.022502 0.384857 0.13760299999999998
v -0.152127 0.376261 0.12261099999999997
v -0.229448 -0.160792 0.195214
v -0.403924 0.04654200000000001 0.085703
v -0.394576 -0.028854999999999995 0.082849
v -0.129855 -0.268456 0.09313600000000001
v -0.365728 -0.094611 0.082088
vt 0.401631 0.944924
vt 0.700577 0.814297
vt 0.872663 0.515002
vt 0.704132 0.114945
vt 0.578287 0.042567
vt 0.248985 0.127737
vt 0.057458 0.467189
vt 0.153715 0.865066
vt 0.369954 0.714203
vt 0.592501 0.604069
vt 0.641081 0.461118
vt 0.555385 0.297225
vt 0.368068 0.362751
vt 0.249531 0.524664
vt 0.593885 0.497914
vt 0.500133 0.344211
vt 0.381155 0.328877
vt 0.244502 0.456252
vt 0.338691 0.618187
vt 0.481552 0.656328
vt 0.322928 0.769468
vt 0.178963 0.750716
vt 0.147963 0.443486
vt 0.342360 0.204898
vt 0.467120 0.471022
vt 0.709379 0.447793
vt 0.882411 0.361275
vt 0.746432 0.504310
vt 0.213760 0.310358
vt 0.113076 0.272939
vt 0.116380 0.594570
vt 0.044773 0.660207
vt 0.288227 0.607181
vt 0.653439 0.197796
vt 0.742124 0.118141
vt 0.666275 0.264685
vt 0.861467 0.257238
vt 0.802761 0.675059
vt 0.373437 0.934684
vt 0.508595 0.053456
vt 0.641741 0.083906
vt 0.683642 0.835807
vt 0.157511 0.864297
vt 0.025659 0.660343
vt 0.030151 0.445954
vt 0.121206 0.247127
vt 0.291397 0.108351
vt 0.996727 0.535214
vt 0.810343 0.175450
vt 0.767062 0.177645
vt 0.824832 0.657154
vt 0.819178 0.266714
vn 0.685792 -0.72008 0.10570900000000004
vn 0.160464 -0.982519 0.09438200000000005
vn -0.599779 -0.798375 0.05350700000000005
vn -0.989136 0.02510499999999999 -0.144848
vn -0.806967 0.553385 0.20632199999999998
vn -0.354891 0.843441 0.40330999999999995
vn 0.527589 0.840339 0.12442099999999995
vn 0.940412 -0.06930999999999998 0.332899
vn 0.34151 -0.24189399999999994 0.908217
vn -0.041279 -0.628184 0.776969
vn -0.373286 -0.38684199999999996 0.843215
vn -0.583212 0.023756000000000048 0.811972
vn -0.262208 0.48985400000000007 0.831438
vn 0.245637 0.47922600000000004 0.842618
vn -0.398841 -0.27377900000000005 -0.875198
vn -0.575196 0.2861929999999999 -0.766318
vn -0.048807 0.625567 -0.778643
vn 0.458653 0.726253 -0.512049
vn 0.616396 -0.022586000000000047 -0.787112
vn 0.26713 -0.666224 -0.696267
vn 0.685772 -0.42707700000000004 -0.58934
vn 0.855719 0.06636999999999997 -0.513167
vn 0.496875 0.860972 -0.10882400000000006
vn -0.254649 0.825264 -0.504077
vn -0.087845 -0.03180799999999994 0.995626
vn -0.592111 -0.627023 0.506208
vn -0.727722 -0.656738 0.19777600000000004
vn -0.536015 -0.56528 -0.627014
vn 0.367862 0.848593 -0.38022100000000003
vn 0.164259 0.920068 0.35565899999999995
vn 0.622504 0.642974 -0.4461760000000001
vn 0.67459 0.680703 0.2856079999999999
vn 0.387672 0.14248900000000006 0.910718
vn -0.797929 -0.08654699999999996 0.596505
vn -0.932855 0.261499 -0.24779200000000004
vn -0.628675 -0.012762000000000048 -0.777564
vn -0.929772 -0.24386500000000003 -0.27578
vn -0.408359 -0.912683 0.015881000000000055
vn 0.685792 -0.72008 0.10570900000000004
vn -0.806967 0.553385 0.20632199999999998
vn -0.932855 0.261499 -0.24779200000000004
vn 0.160464 -0.982519 0.09438200000000005
vn 0.940412 -0.06930999999999998 0.332899
vn 0.67459 0.680703 0.2856079999999999
vn 0.527589 0.840339 0.12442099999999995
vn 0.164259 0.920068 0.35565899999999995
vn -0.354891 0.843441 0.40330999999999995
vn -0.592111 -0.627023 0.506208
vn -0.989136 0.02510499999999999 -0.144848
vn -0.929772 -0.24386500000000003 -0.27578
vn -0.408359 -0.912683 0.015881000000000055
vn -0.727722 -0.656738 0.19777600000000004
g riverstone
f 14/14/14 33/33/33 32/32/32
f 40/40/40 12/12/12 13/13/13
f 20/20/20 2/2/2 51/51/51
f 26/26/26 38/38/38 10/10/10
f 10/10/10 11/11/11 26/26/26
f 48/48/48 3/3/3 51/51/51
f 51/51/51 3/3/3 28/28/28
f 26/26/26 11/11/11 12/12/12
f 52/52/52 26/26/26 34/34/34
f 34/34/34 50/50/50 52/52/52
f 36/36/36 15/15/15 28/28/28
f 20/20/20 51/51/51 28/28/28
f 37/37/37 36/36/36 28/28/28
f 28/28/28 27/27/27 37/37/37
f 34/34/34 4/4/4 50/50/50
f 37/37/37 49/49/49 36/36/36
f 36/36/36 49/49/49 35/35/35
f 41/41/41 4/4/4 34/34/34
f 30/30/30 6/6/6 13/13/13
f 18/18/18 23/23/23 31/31/31
f 25/25/25 9/9/9 33/33/33
f 8/8/8 32/32/32 33/33/33
f 33/33/33 9/9/9 8/8/8
f 22/22/22 31/31/31 44/44/44
f 44/44/44 43/43/43 22/22/22
f 31/31/31 22/22/22 19/19/19
f 14/14/14 7/7/7 30/30/30
f 29/29/29 46/46/46 45/45/45
f 45/45/45 23/23/23 29/29/29
f 29/29/29 23/23/23 18/18/18
f 28/28/28 3/3/3 27/27/27
f 27/27/27 3/3/3 48/48/48
f 11/11/11 10/10/10 25/25/25
f 33/33/33 14/14/14 25/25/25
f 14/14/14 13/13/13 25/25/25
f 25/25/25 13/13/13 12/12/12
f 5/5/5 47/47/47 24/24/24
f 46/46/46 29/29/29 24/24/24
f 24/24/24 47/47/47 46/46/46
f 44/44/44 31/31/31 23/23/23
f 23/23/23 45/45/45 44/44/44
f 21/21/21 22/22/22 43/43/43
f 43/43/43 1/1/1 21/21/21
f 21/21/21 1/1/1 20/20/20
f 25/25/25 12/12/12 11/11/11
f 25/25/25 10/10/10 9/9/9
f 14/14/14 32/32/32 7/7/7
f 31/31/31 19/19/19 18/18/18
f 13/13/13 14/14/14 30/30/30
f 17/17/17 24/24/24 29/29/29
f 29/29/29 18/18/18 17/17/17
f 13/13/13 6/6/6 40/40/40
f 16/16/16 5/5/5 24/24/24
f 24/24/24 17/17/17 16/16/16
f 26/26/26 12/12/12 34/34/34
f 36/36/36 16/16/16 15/15/15
f 10/10/10 38/38/38 42/42/42
f 28/28/28 15/15/15 20/20/20
f 39/39/39 9/9/9 10/10/10
f 10/10/10 42/42/42 39/39/39
f 40/40/40 41/41/41 34/34/34
f 34/34/34 12/12/12 40/40/40
f 16/16/16 36/36/36 35/35/35
f 35/35/35 5/5/5 16/16/16
f 39/39/39 8/8/8 9/9/9
f 21/21/21 19/19/19 22/22/22
f 20/20/20 19/19/19 21/21/21
f 1/1/1 2/2/2 20/20/20
