v -1.204753 -0.828217 0.4477880000000001
v -1.16672 -0.817432 0.3612850000000001
v -1.167168 -0.806518 0.29995700000000003
v 1.062679 1.014176 0.9553859999999998
v 0.989538 0.8870190000000001 0.955386
v 0.989538 0.887019 0.897014
v -0.639339 -0.191187 0.07932300000000002
v -0.900237 -0.409365 0.07820100000000003
v -0.92882 -0.433732 0.22646800000000003
v -0.639339 -0.191187 0.07932300000000002
v -0.92882 -0.433732 0.22646800000000003
v -0.637157 -0.188999 0.225261
v -0.777379 -0.026676999999999996 0.079323
v -0.774606 -0.025193999999999987 0.225261
v -1.066268 -0.269927 0.22646800000000003
v -0.777379 -0.026676999999999996 0.079323
v -1.066268 -0.269927 0.22646800000000003
v -1.037547 -0.245726 0.07820100000000002
v 0.307112 0.275582 -0.01904700000000002
v 0.32556 0.286797 -0.01924500000000002
v 0.320236 0.5938110000000001 1.044003
v 0.320236 0.5938110000000001 1.044003
v 0.301868 0.5754610000000001 1.048636
v 0.307112 0.275582 -0.01904700000000002
v -0.696212 -1.292105 0.8948270000000002
v -0.316566 -1.115952 -0.019844999999999932
v -0.301705 -1.129285 -0.019917999999999932
v -0.301705 -1.129285 -0.019917999999999932
v -0.685716 -1.307495 0.8958940000000001
v -0.696212 -1.292105 0.8948270000000002
v -0.586201 -0.861563 -0.01995499999999995
v -0.898299 -1.111298 0.8987490000000001
v -0.908812 -1.095891 0.8992810000000001
v 1.491334 0.11627300000000003 0.518521
v 1.442057 0.122343 -5.00000000000075E-05
v 1.438658 0.140144 -5.000000000000858E-05
v 1.438658 0.140144 -5.000000000000858E-05
v 1.492887 0.13401500000000002 0.518521
v 1.491334 0.11627300000000003 0.518521
v 0.806859 -1.512058 0.5185210000000001
v 0.79571 -1.463676 -4.999999999991038E-05
v 0.811274 -1.454394 -4.999999999991095E-05
v 0.811274 -1.454394 -4.999999999991095E-05
v 0.824063 -1.507449 0.5185210000000001
v 0.806859 -1.512058 0.5185210000000001
v 1.365517 -1.265929 0.5313650000000001
v 1.320785 -1.208869 -4.999999999992598E-05
v 1.335697 -1.20086 -4.999999999992647E-05
v 1.335697 -1.20086 -4.999999999992647E-05
v 1.379161 -1.254481 0.5313650000000001
v 1.365517 -1.265929 0.5313650000000001
v 0.637956 1.298795 0.5185209999999999
v 0.640534 1.249213 -5.000000000007649E-05
v 0.623595 1.242774 -5.00000000000761E-05
v 0.623595 1.242774 -5.00000000000761E-05
v 0.620213 1.297244 0.5185209999999999
v 0.637956 1.298795 0.5185209999999999
v -0.261032 1.384972 0.5313649999999999
v -0.226888 1.321011 -5.000000000008089E-05
v -0.242964 1.315713 -5.0000000000080565E-05
v -0.242964 1.315713 -5.0000000000080565E-05
v -0.276456 1.376067 0.5313649999999999
v -0.261032 1.384972 0.5313649999999999
v 1.415823 -1.190696 0.5185210000000001
v 1.366546 -1.184626 -4.999999999992746E-05
v 1.363147 -1.166826 -4.9999999999928553E-05
v 1.363147 -1.166826 -4.9999999999928553E-05
v 1.417376 -1.172954 0.5185210000000001
v 1.415823 -1.190696 0.5185210000000001
v 0.79251 -0.157073 0.005591000000000009
v 0.808958 -0.140135 0.0030740000000000086
v 0.808234 0.15296400000000004 1.041828
v 0.808234 0.15296400000000004 1.041828
v 0.789887 0.13465800000000006 1.046708
v 0.79251 -0.157073 0.005591000000000009
v 0.004289 -0.017532 -0.019048
v 0.022737 -0.0063170000000000006 -0.019245
v 0.019457 0.29064200000000007 1.046197
v 0.019457 0.29064200000000007 1.046197
v 0.001089 0.27229200000000003 1.050829
v 0.004289 -0.017532 -0.019048
v 1.453903 -0.44635299999999994 0.531365
v 1.384984 -0.468871 -4.999999999997129E-05
v 1.382558 -0.452119 -4.999999999997232E-05
v 1.382558 -0.452119 -4.999999999997232E-05
v 1.447811 -0.42961599999999994 0.531365
v 1.453903 -0.44635299999999994 0.531365
v -1.041759 -0.41775999999999996 1.073492
v -0.965575 -0.053345 -0.004935999999999997
v -1.005883 -0.018072 -0.004856999999999999
v -1.005883 -0.018072 -0.004856999999999999
v -1.073593 -0.38990499999999995 1.073492
v -1.041759 -0.41775999999999996 1.073492
v -1.039395 -0.31510699999999997 1.018093
v -1.382906 -0.406245 -0.004935999999999975
v -1.370466 -0.452672 -0.0048569999999999725
v -1.370466 -0.452672 -0.0048569999999999725
v -1.02957 -0.3517719999999999 1.018093
v -1.039395 -0.31510699999999997 1.018093
v -1.112647 -0.30282599999999993 1.134394
v -0.847114 -0.55813 -0.0049359999999999665
v -0.813128 -0.524144 -0.004856999999999968
v -0.813128 -0.524144 -0.004856999999999968
v -1.085807 -0.27598599999999995 1.134394
v -1.112647 -0.30282599999999993 1.134394
v 0.901452 1.107259 0.8970139999999999
v 1.062679 1.014176 0.9553859999999998
v 1.062679 1.014176 0.8970139999999999
v 1.062679 1.014176 0.8970139999999999
v 0.901453 1.10726 0.6210609999999999
v 1.062679 1.014176 0.8970139999999999
v 1.145373 0.921338 0.8532759999999999
v 0.868649 0.9898780000000001 0.9439919999999999
v 0.901452 1.107259 0.8970139999999999
v 0.785237 0.837719 0.621952
v 0.989538 0.8870190000000001 0.955386
v 0.989538 0.887019 0.897014
v 0.889621 0.714433 0.665252
v 0.989538 0.887019 0.897014
v 0.889621 0.714433 0.61554
v 0.674513 0.819856 0.47056099999999995
v 0.823368 0.599678 0.47056099999999995
v 0.75206 0.640849 0.47056099999999995
v 0.64161 0.704617 0.35373199999999994
v 0.578033 0.741324 -0.008018000000000046
v 0.799209 1.110989 0.35917399999999994
v 0.68802 1.166924 -0.008018000000000072
v 0.799209 1.110989 0.35917399999999994
v 0.708455 1.15927 0.34162999999999993
v 0.708455 1.15927 0.34162999999999993
v 0.578944 1.311019 -0.00801800000000008
v 0.865463 1.225745 0.35917399999999994
v 1.145373 0.921338 0.8532759999999999
v 1.240602 0.911452 0.47056099999999995
v 0.915549 1.208568 0.45906899999999995
v 0.901453 1.10726 0.6210609999999999
v 1.386767 1.137454 0.005700999999999931
v 1.386767 1.137454 0.005700999999999931
v 0.798391 1.493374 -0.008018000000000093
v 0.715007 1.308494 0.34162999999999993
v 0.663334 1.457186 -0.00801800000000009
v 0.708455 1.15927 0.34162999999999993
v 1.27723 0.89567 0.32012099999999993
v 1.487616 0.80803 -0.00801700000000005
v 1.486538 0.768807 0.18324899999999994
v 1.108951 0.68401 0.27230899999999997
v 1.001292 0.49695400000000006 0.47056099999999995
v 1.019566 0.45035 -0.008018000000000029
v 1.486538 0.768807 0.18324899999999994
v 1.360134 0.563936 -0.008017000000000035
v 1.360134 0.563936 0.11134199999999997
v 1.108951 0.68401 0.27230899999999997
v 1.360134 0.563936 0.11134199999999997
v 1.069409 0.614936 -0.008018000000000039
v 1.019566 0.45035 -0.008018000000000029
v 1.111079 0.86194 0.853276
v 1.001292 0.49695400000000006 0.47056099999999995
v 1.145373 0.921338 0.8532759999999999
v 0.989538 0.887019 0.897014
v 1.062679 1.014176 0.8970139999999999
v 1.062679 1.014176 0.9553859999999998
v 0.889621 0.714433 0.665252
v 0.889621 0.714433 0.61554
v 1.001292 0.49695400000000006 0.47056099999999995
v 0.989538 0.887019 0.897014
v 0.889621 0.714433 0.61554
v 0.823368 0.599678 0.47056099999999995
v 0.578033 0.741324 -0.008018000000000046
v 1.019566 0.45035 -0.008018000000000029
v 0.75206 0.640849 0.47056099999999995
v 0.64161 0.704617 0.35373199999999994
v -0.041737 -0.505291 -0.006768999999999969
v -0.046318 -0.446451 0.20535200000000003
v -0.105515 -0.408122 0.20639000000000002
v -0.163686 -0.427266 -0.006227999999999974
v -0.041737 -0.505291 -0.006768999999999969
v 0.035901 -0.382757 -0.006543999999999977
v -0.008762 -0.386159 0.20577000000000004
v -0.046318 -0.446451 0.20535200000000003
v -0.041737 -0.505291 -0.006768999999999969
v 0.035901 -0.382757 -0.006543999999999977
v 1.269274 -1.205797 0.042795000000000076
v 1.261002 -1.13598 0.38771800000000006
v 1.188058 -1.088752 0.38899600000000006
v 1.119008 -1.109654 0.04325200000000007
v 1.269274 -1.205797 0.042795000000000076
v 1.364939 -1.05481 0.042985000000000065
v 1.307278 -1.061689 0.38823300000000005
v 1.261002 -1.13598 0.38771800000000006
v 1.269274 -1.205797 0.042795000000000076
v 1.364939 -1.05481 0.042985000000000065
v -1.123826 -0.897991 0.781482
v -0.835869 -0.830319 -0.023369999999999946
v -0.832055 -0.811713 -0.023451999999999952
v -1.123491 -0.879335 0.781503
v -1.123826 -0.897991 0.781482
v -1.123491 -0.879335 0.781503
v -0.832055 -0.811713 -0.023451999999999952
v -0.853857 -0.811462 -0.02339099999999995
v -0.853857 -0.811462 -0.02339099999999995
v -1.141589 -0.879112 0.776984
v -0.908812 -1.095891 0.8992810000000001
v -0.600253 -0.84904 -0.01987199999999995
v -0.586201 -0.861563 -0.01995499999999995
v -0.898299 -1.111298 0.8987490000000001
v -0.57541 -0.854749 -0.019832999999999948
v -0.883684 -1.101403 0.9047870000000001
v -0.48158 -0.502316 -0.01907499999999997
v -0.456013 -0.483983 -0.01921699999999997
v -0.753608 -0.4819049999999999 1.0436
v -0.771989 -0.5002679999999999 1.039073
v -0.48158 -0.502316 -0.01907499999999997
v -0.753608 -0.4819049999999999 1.0436
v -0.456013 -0.483983 -0.01921699999999997
v -0.477814 -0.483732 -0.01915699999999997
v -0.477814 -0.483732 -0.01915699999999997
v -0.771705 -0.4816829999999999 1.039081
v -1.404496 0.03056000000000002 0.338727
v -1.412861 0.04790600000000002 0.331718
v -1.433221 0.050175 -0.0005450000000000031
v -1.423612 0.030249 -0.0005450000000000019
v -1.404496 0.03056000000000002 0.338727
v 0.901452 1.107259 0.8970139999999999
v 0.868649 0.9898780000000001 0.9439919999999999
v 1.062679 1.014176 0.9553859999999998
v 0.989538 0.8870190000000001 0.955386
v 0.956793 -0.987818 0.12987100000000004
v 1.012779 -0.771921 0.12987100000000004
v 1.012778 -0.771921 0.0002790000000000473
v 0.957204 -0.988112 0.0002790000000000605
v -0.086121 -0.304771 -0.006049999999999981
v -0.068033 -0.34787 0.20676100000000003
v -0.008762 -0.386159 0.20577000000000004
v 0.035901 -0.382757 -0.006543999999999977
v -0.163686 -0.427266 -0.006227999999999974
v -0.105515 -0.408122 0.20639000000000002
v -0.068033 -0.34787 0.20676100000000003
v -0.086121 -0.304771 -0.006049999999999981
v -0.008762 -0.386159 0.20577000000000004
v -0.068033 -0.34787 0.20676100000000003
v -0.105515 -0.408122 0.20639000000000002
v -0.046318 -0.446451 0.20535200000000003
v 1.307278 -1.061689 0.38823300000000005
v 1.234242 -1.014509 0.3894540000000001
v 1.188058 -1.088752 0.38899600000000006
v 1.261002 -1.13598 0.38771800000000006
v 1.214585 -0.958717 0.04340200000000006
v 1.234242 -1.014509 0.3894540000000001
v 1.307278 -1.061689 0.38823300000000005
v 1.364939 -1.05481 0.042985000000000065
v 1.119008 -1.109654 0.04325200000000007
v 1.188058 -1.088752 0.38899600000000006
v 1.234242 -1.014509 0.3894540000000001
v 1.214585 -0.958717 0.04340200000000006
v -0.639339 -0.191187 0.07932300000000002
v -0.637157 -0.188999 0.225261
v -0.774606 -0.025193999999999987 0.225261
v -0.777379 -0.026676999999999996 0.079323
v -0.777379 -0.026676999999999996 0.079323
v -1.037547 -0.245726 0.07820100000000002
v -0.900237 -0.409365 0.07820100000000003
v -0.639339 -0.191187 0.07932300000000002
v -0.853857 -0.811462 -0.02339099999999995
v -0.835869 -0.830319 -0.023369999999999946
v -1.123826 -0.897991 0.781482
v -1.141589 -0.879112 0.776984
v 0.320236 0.5938110000000001 1.044003
v 0.32556 0.286797 -0.01924500000000002
v 0.306879 0.290169 -0.019157000000000018
v 0.301585 0.5934800000000001 1.04408
v 0.301585 0.5934800000000001 1.04408
v 0.306879 0.290169 -0.019157000000000018
v 0.307112 0.275582 -0.01904700000000002
v 0.301868 0.5754610000000001 1.048636
v -0.917221 -0.20114999999999997 0.26665
v -0.838927 -0.338827 0.17119400000000004
v -0.682657 -0.226276 0.163496
v -0.785128 -0.10601299999999998 0.260143
v -0.047133 0.921258 0.25226199999999993
v 0.097005 0.940489 -0.018923000000000058
v 0.032212 1.21026 -0.012260000000000075
v -0.101903 1.14929 0.25789399999999996
v -0.07643 0.914528 0.23984099999999994
v -0.131199 1.14256 0.2454729999999999
v 0.002915 1.203531 -0.024681000000000074
v 0.067709 0.93376 -0.03134400000000005
v -0.667848 -0.24575 0.12477000000000002
v -0.776615 -0.05280799999999999 0.257371
v -0.957414 -0.11356499999999999 0.288948
v -0.894157 -0.34486 0.15288200000000002
v 1.097097 0.42159 0.23233899999999996
v 1.112302 0.21172 0.007815999999999988
v 1.385609 0.259911 0.007815999999999984
v 1.328118 0.462327 0.23233899999999996
v -0.016762 1.011718 0.21175599999999994
v 0.085806 1.014573 0.0003769999999999379
v 0.048507 1.223175 0.0015309999999999252
v -0.048291 1.188046 0.21273099999999992
v -0.685716 -1.307495 0.8958940000000001
v -0.301705 -1.129285 -0.019917999999999932
v -0.29218 -1.121205 -0.01979599999999993
v -0.671482 -1.297219 0.9022000000000001
v -0.29218 -1.121205 -0.01979599999999993
v -0.316566 -1.115952 -0.019844999999999932
v -0.696212 -1.292105 0.8948270000000002
v -0.671482 -1.297219 0.9022000000000001
v -0.57541 -0.854749 -0.019832999999999948
v -0.600253 -0.84904 -0.01987199999999995
v -0.908812 -1.095891 0.8992810000000001
v -0.883684 -1.101403 0.9047870000000001
v -0.859261 -0.401136 -0.007013999999999976
v -0.80116 -0.352383 -0.0072089999999999784
v -0.8008 -0.352081 0.07588700000000002
v -0.858901 -0.400834 0.07608100000000002
v -0.690371 -0.260026 -0.007013999999999985
v -0.63227 -0.211273 -0.007208999999999987
v -0.63191 -0.210972 0.07588700000000001
v -0.690011 -0.259725 0.07608100000000001
v -0.96502 -0.155618 -0.007013999999999991
v -1.02519 -0.206108 -0.007208999999999987
v -1.02555 -0.206409 0.07588700000000001
v -0.965379 -0.15592 0.07608100000000001
v -0.771705 -0.4816829999999999 1.039081
v -0.477814 -0.483732 -0.01915699999999997
v -0.48158 -0.502316 -0.01907499999999997
v -0.771989 -0.5002679999999999 1.039073
v -1.433211 -0.23247299999999999 0.294719
v -1.433442 -0.21332299999999998 0.28742
v -1.463201 -0.212711 -0.000740999999999987
v -1.462908 -0.234829 -0.00040799999999998563
v -1.39965 -0.21332299999999998 0.28742
v -1.399419 -0.23247299999999999 0.294719
v -1.421062 -0.234829 -0.00040799999999998563
v -1.421355 -0.212711 -0.000740999999999987
v 1.491334 0.11627300000000003 0.518521
v 1.492887 0.13401500000000002 0.518521
v 1.438658 0.140144 -5.000000000000858E-05
v 1.442057 0.122343 -5.00000000000075E-05
v 0.806859 -1.512058 0.5185210000000001
v 0.824063 -1.507449 0.5185210000000001
v 0.811274 -1.454394 -4.999999999991095E-05
v 0.79571 -1.463676 -4.999999999991038E-05
v 1.365517 -1.265929 0.5313650000000001
v 1.379161 -1.254481 0.5313650000000001
v 1.335697 -1.20086 -4.999999999992647E-05
v 1.320785 -1.208869 -4.999999999992598E-05
v 0.637956 1.298795 0.5185209999999999
v 0.620213 1.297244 0.5185209999999999
v 0.623595 1.242774 -5.00000000000761E-05
v 0.640534 1.249213 -5.000000000007649E-05
v -0.261032 1.384972 0.5313649999999999
v -0.276456 1.376067 0.5313649999999999
v -0.242964 1.315713 -5.0000000000080565E-05
v -0.226888 1.321011 -5.000000000008089E-05
v 1.415823 -1.190696 0.5185210000000001
v 1.417376 -1.172954 0.5185210000000001
v 1.363147 -1.166826 -4.9999999999928553E-05
v 1.366546 -1.184626 -4.999999999992746E-05
v 1.219391 0.808613 0.778963
v 1.153842 1.053244 0.7789629999999998
v 1.417953 1.135609 0.0036599999999999307
v 1.4893 0.869338 0.0036599999999999467
v 1.130134 -1.034104 0.12987100000000004
v 0.956793 -0.987818 0.12987100000000004
v 0.957204 -0.988112 0.0002790000000000605
v 1.130134 -1.034104 0.0002790000000000633
v 0.808234 0.15296400000000004 1.041828
v 0.808958 -0.140135 0.0030740000000000086
v 0.7913 -0.139793 0.0018380000000000085
v 0.789584 0.15257800000000005 1.041781
v 0.789584 0.15257800000000005 1.041781
v 0.7913 -0.139793 0.0018380000000000085
v 0.79251 -0.157073 0.005591000000000009
v 0.789887 0.13465800000000006 1.046708
v 0.646761 0.850365 0.21435899999999994
v 0.684624 0.699463 0.21435899999999994
v 0.654624 0.647502 -5.000000000003965E-05
v 0.667035 0.88548 -5.000000000005422E-05
v 0.019457 0.29064200000000007 1.046197
v 0.022737 -0.0063170000000000006 -0.019245
v 0.004056 -0.0029450000000000014 -0.019157
v 0.000806 0.29031000000000007 1.046274
v 0.000806 0.29031000000000007 1.046274
v 0.004056 -0.0029450000000000014 -0.019157
v 0.004289 -0.017532 -0.019048
v 0.001089 0.27229200000000003 1.050829
v 1.219391 0.808613 0.778963
v 1.4893 0.869338 0.0036599999999999467
v 1.417953 1.135609 0.0036599999999999307
v 1.153842 1.053244 0.7789629999999998
v -1.048122 -0.310844 0.346846
v -1.050848 -0.319022 0.346846
v -1.050848 -0.3190219999999999 0.720378
v -1.048122 -0.31084399999999995 0.720378
v -0.796618 -0.013885 -0.007013999999999999
v -0.856788 -0.064375 -0.007208999999999996
v -0.857148 -0.064677 0.075887
v -0.796977 -0.014186999999999995 0.076081
v 1.185709 -0.817913 0.12987100000000004
v 1.185709 -0.817913 0.0002790000000000501
v 1.012778 -0.771921 0.0002790000000000473
v 1.012779 -0.771921 0.12987100000000004
v 1.130134 -1.034104 0.12987100000000004
v 1.130134 -1.034104 0.0002790000000000633
v 1.185709 -0.817913 0.0002790000000000501
v 1.185709 -0.817913 0.12987100000000004
v 0.956793 -0.987818 0.12987100000000004
v 1.130134 -1.034104 0.12987100000000004
v 1.185709 -0.817913 0.12987100000000004
v 1.012779 -0.771921 0.12987100000000004
v 0.212953 -0.75661 0.21192800000000006
v 0.212953 -0.75661 -0.00048599999999995365
v 0.391185 -0.740684 -0.0004859999999999546
v 0.391185 -0.740684 0.21192800000000006
v 0.391185 -0.740684 0.21192800000000006
v 0.391185 -0.740684 -0.0004859999999999546
v 0.36517 -0.446533 -0.0004859999999999727
v 0.36517 -0.446533 0.21192800000000003
v 0.36517 -0.446533 0.21192800000000003
v 0.36517 -0.446533 -0.0004859999999999727
v 0.186208 -0.462256 -0.0004859999999999717
v 0.186208 -0.462256 0.21192800000000003
v 0.186208 -0.462256 0.21192800000000003
v 0.186208 -0.462256 -0.0004859999999999717
v 0.212953 -0.75661 -0.00048599999999995365
v 0.212953 -0.75661 0.21192800000000006
v 0.36517 -0.446533 0.21192800000000003
v 0.186208 -0.462256 0.21192800000000003
v 0.212953 -0.75661 0.21192800000000006
v 0.391185 -0.740684 0.21192800000000006
v -1.412861 0.04790600000000002 0.331718
v -1.404496 0.03056000000000002 0.338727
v -1.423612 0.030249 -0.0005450000000000019
v -1.433221 0.050175 -0.0005450000000000031
v 1.453903 -0.44635299999999994 0.531365
v 1.447811 -0.42961599999999994 0.531365
v 1.382558 -0.452119 -4.999999999997232E-05
v 1.384984 -0.468871 -4.999999999997129E-05
v -1.073593 -0.38990499999999995 1.073492
v -1.005883 -0.018072 -0.004856999999999999
v -1.018118 -0.063737 -0.004856999999999997
v -1.083256 -0.42596799999999996 1.073492
v -1.083256 -0.42596799999999996 1.073492
v -1.018118 -0.063737 -0.004856999999999997
v -0.965575 -0.053345 -0.004935999999999997
v -1.041759 -0.41775999999999996 1.073492
v -1.02957 -0.3517719999999999 1.018093
v -1.370466 -0.452672 -0.0048569999999999725
v -1.331021 -0.417223 -0.004895999999999975
v -0.99842 -0.32377599999999995 1.018093
v -0.99842 -0.32377599999999995 1.018093
v -1.331021 -0.417223 -0.004895999999999975
v -1.382906 -0.406245 -0.004935999999999975
v -1.039395 -0.31510699999999997 1.018093
v -1.023496 -0.281138 0.22606600000000002
v -1.074401 -0.342582 0.22561600000000004
v -1.074401 -0.342582 0.345126
v -1.023496 -0.281138 0.345575
v -1.03861 -0.31435299999999994 0.720159
v -1.03861 -0.31435299999999994 0.782661
v -1.089644 -0.36538699999999996 0.782661
v -1.089644 -0.36538699999999996 0.720159
v -1.051193 -0.30177099999999996 0.782661
v -1.051193 -0.30177099999999996 0.720159
v -1.102225 -0.3528029999999999 0.720159
v -1.102225 -0.3528029999999999 0.782661
v -1.085807 -0.27598599999999995 1.134394
v -0.813128 -0.524144 -0.004856999999999968
v -0.86355 -0.507708 -0.004895999999999969
v -1.125627 -0.26300699999999994 1.134394
v -1.125627 -0.26300699999999994 1.134394
v -0.86355 -0.507708 -0.004895999999999969
v -0.847114 -0.55813 -0.0049359999999999665
v -1.112647 -0.30282599999999993 1.134394
v -0.918912 -0.445064 0.22526200000000002
v -0.88921 -0.416758 0.06361200000000003
v -0.619026 -0.190046 0.06361200000000002
v -0.615956 -0.190854 0.225261
v -0.615956 -0.190854 0.225261
v -0.619026 -0.190046 0.06361200000000002
v -0.772729 -0.006870999999999997 0.063612
v -0.772751 -0.003991999999999986 0.225261
v -0.772751 -0.003991999999999986 0.225261
v -0.772729 -0.006870999999999997 0.063612
v -1.042913 -0.233582 0.06361200000000002
v -1.075708 -0.258203 0.22526200000000002
v -1.211548 -0.721041 0.18166000000000004
v -1.211548 -0.721041 -0.00048599999999995587
v -1.035267 -0.751787 -0.00048599999999995397
v -1.035267 -0.751787 0.18166000000000004
v -1.035267 -0.751787 0.18166000000000004
v -1.035267 -0.751787 -0.00048599999999995397
v -0.984263 -0.460926 -0.00048599999999997175
v -0.984263 -0.460926 0.18166000000000002
v -0.984263 -0.460926 0.18166000000000002
v -0.984263 -0.460926 -0.00048599999999997175
v -1.161196 -0.429795 -0.0004859999999999737
v -1.161196 -0.429795 0.18166000000000002
v -1.161196 -0.429795 0.18166000000000002
v -1.161196 -0.429795 -0.0004859999999999737
v -1.211548 -0.721041 -0.00048599999999995587
v -1.211548 -0.721041 0.18166000000000004
v -0.984263 -0.460926 0.18166000000000002
v -1.161196 -0.429795 0.18166000000000002
v -1.211548 -0.721041 0.18166000000000004
v -1.035267 -0.751787 0.18166000000000004
v -1.235957 -0.872718 0.38910900000000004
v -1.237694 -0.886168 0.38928000000000007
v -1.078941 -0.884262 0.640752
v -1.077204 -0.870811 0.64058
v -1.061219 -1.357687 0.001225000000000083
v -1.193225 -1.166106 0.29075700000000004
v -1.21769 -1.180691 0.29720700000000005
v -1.07865 -1.372522 0.0016880000000000842
v -1.017794 -1.260659 0.04752100000000008
v -1.090362 -1.340772 0.04273300000000008
v -1.078915 -1.355378 0.019770000000000083
v -1.195838 -1.399753 0.05217600000000008
v -0.078187 0.959145 -5.000000000005873E-05
v -0.073828 0.934418 -5.000000000005722E-05
v -0.073828 0.934418 0.21235999999999994
v -0.078188 0.959146 0.21235999999999994
v -0.094904 1.053955 -5.000000000006454E-05
v -0.090544 1.029228 -5.000000000006302E-05
v -0.090544 1.029228 0.21235999999999994
v -0.094905 1.053955 0.21235999999999994
v 0.474016 1.293518 0.3521969999999999
v 0.439046 1.287352 0.3521969999999999
v 0.510397 0.882698 0.35219799999999996
v 0.545367 0.888864 0.35219799999999996
v 0.480307 1.272039 -5.0000000000077896E-05
v 0.480307 1.272039 0.41084599999999993
v 0.484667 1.247311 0.41084599999999993
v 0.484667 1.247311 -5.000000000007638E-05
v 0.536615 0.952704 -5.000000000005834E-05
v 0.536615 0.952704 0.41084599999999993
v 0.540974 0.927977 0.41084599999999993
v 0.540974 0.927977 -5.000000000005682E-05
v 0.291044 1.20726 0.2403059999999999
v 0.081174 1.192054 0.015783999999999927
v 0.129365 0.918747 0.015783999999999944
v 0.33178 0.976238 0.24030699999999994
v 0.387378 1.244001 0.33322699999999994
v 0.264944 1.247829 0.0037829999999999236
v 0.321129 0.92919 0.003782999999999943
v 0.43487 0.974661 0.33322699999999994
v 1.08804 0.34932 -0.0032820000000000214
v 1.361346 0.397512 -0.0032820000000000245
v 1.08836 0.471135 0.27929199999999993
v 1.325351 0.495603 0.23909499999999997
v 1.277146 0.504423 0.27929199999999993
v 1.082648 0.379896 -0.012975000000000023
v 1.082969 0.501711 0.26959999999999995
v 1.355955 0.428088 -0.012975000000000026
v 1.271755 0.534998 0.26959999999999995
v 1.31996 0.526178 0.22940199999999997
v 1.313405 0.588028 0.28612999999999994
v 1.341785 0.52742 -0.006958000000000032
v 1.267307 0.606591 0.37750599999999995
v 1.093084 0.467702 -0.01027400000000003
v 1.095517 0.565341 0.37521499999999997
v 1.271902 0.574903 0.38478599999999996
v 1.100112 0.533653 0.3824949999999999
v 1.318 0.556341 0.29340999999999995
v 1.097679 0.436014 -0.002994000000000027
v 1.34638 0.495733 0.00032299999999996963
v 0.484473 0.982322 0.29461099999999996
v 0.446986 0.953912 -0.0031770000000000587
v 0.49629 1.038792 0.38862899999999995
v 0.390801 1.272551 -0.003177000000000078
v 0.45748 1.258892 0.38862899999999995
v 0.464069 1.033111 0.39322699999999994
v 0.425259 1.253211 0.39322699999999994
v 0.452252 0.976641 0.29920899999999995
v 0.35858 1.26687 0.0014209999999999223
v 0.414765 0.94823 0.0014209999999999418
v 0.218774 1.216317 0.004684999999999925
v 0.266966 0.94301 0.004684999999999942
v 0.340589 1.215996 0.28725999999999996
v 0.365056 0.979005 0.24706199999999995
v 0.373877 1.02721 0.28725999999999996
v -1.176239 -1.207653 0.2172600000000001
v -1.392612 -1.247151 -4.9999999999923634E-05
v -1.270818 -1.450171 -4.9999999999911206E-05
v -1.072319 -1.331872 -7.899999999991844E-05
v -1.176239 -1.207653 0.2172600000000001
v -1.023184 -1.068183 -4.8999999999934594E-05
v -1.167168 -0.806518 0.29995700000000003
v -1.105079 -0.750377 -5.399999999995405E-05
v -1.16672 -0.817432 0.3612850000000001
v -1.243432 -1.159603 0.30357100000000004
v -1.066281 -1.02796 0.34058900000000003
v -1.204753 -0.828217 0.4477880000000001
v -1.175037 -0.879689 0.49777800000000005
v -1.141601 -0.937601 0.48885000000000006
v -1.158284 -0.998705 0.5733500000000001
v -1.244287 -1.058725 0.5673990000000001
v -1.023184 -1.068183 -4.8999999999934594E-05
v -1.244287 -1.058725 0.5673990000000001
v -1.333755 -1.211751 0.25327000000000005
v -1.456465 -0.999212 0.25327000000000005
v -1.496465 -0.929929 -7.299999999994305E-05
v -1.243432 -1.159603 0.30357100000000004
v -1.394601 -0.937827 0.3225410000000001
v -1.427182 -0.88993 0.25327000000000005
v -1.105079 -0.750377 -5.399999999995405E-05
v -1.167168 -0.806518 0.29995700000000003
v -1.243432 -1.159603 0.30357100000000004
v -1.244287 -1.058725 0.5673990000000001
v -1.359912 -0.917798 0.4477880000000001
v -1.204753 -0.828217 0.4477880000000001
v -1.312786 -0.980791 0.5371750000000001
v -1.175037 -0.879689 0.49777800000000005
v -1.158284 -0.998705 0.5733500000000001
v -1.244287 -1.058725 0.5673990000000001
v -1.141601 -0.937601 0.48885000000000006
v 0.684624 0.699463 0.21435899999999994
v 0.602662 0.677502 0.14556699999999997
v 0.654624 0.647502 -5.000000000003965E-05
v 0.540981 0.713114 -5.000000000004367E-05
v 0.654624 0.647502 -5.000000000003965E-05
v 0.575442 0.693217 0.14556699999999995
v 0.565131 0.782558 0.14556699999999995
v 0.646761 0.850365 0.21435899999999994
v 0.548609 0.827518 -5.0000000000050675E-05
v 0.667035 0.88548 -5.000000000005422E-05
vt 0.018151 0.432206
vt 0.027913 0.458083
vt 0.031914 0.472195
vt 0.508608 0.509260
vt 0.488861 0.521744
vt 0.486357 0.501400
vt 0.780909 0.302377
vt 0.834961 0.302377
vt 0.834961 0.341178
vt 0.780909 0.302377
vt 0.834961 0.341178
vt 0.780909 0.341178
vt 0.740512 0.302377
vt 0.740512 0.341178
vt 0.686531 0.341178
vt 0.740512 0.302377
vt 0.686531 0.341178
vt 0.686531 0.302377
vt 0.536533 0.064777
vt 0.536533 0.053069
vt 0.698822 0.053069
vt 0.698822 0.053069
vt 0.698822 0.064777
vt 0.536533 0.064777
vt 0.868398 0.059081
vt 0.704778 0.059081
vt 0.704778 0.053069
vt 0.704778 0.053069
vt 0.868398 0.053069
vt 0.868398 0.059081
vt 0.704778 0.053069
vt 0.868397 0.053069
vt 0.868397 0.059081
vt 0.874566 0.047521
vt 0.940159 0.047533
vt 0.940159 0.054982
vt 0.940159 0.054982
vt 0.874566 0.054948
vt 0.874566 0.047521
vt 0.874566 0.047521
vt 0.940159 0.047533
vt 0.940159 0.054982
vt 0.940159 0.054982
vt 0.874566 0.054948
vt 0.874566 0.047521
vt 0.874566 0.054948
vt 0.940159 0.054982
vt 0.940159 0.062262
vt 0.940159 0.062262
vt 0.874566 0.062262
vt 0.874566 0.054948
vt 0.874566 0.047521
vt 0.940159 0.047533
vt 0.940159 0.054982
vt 0.940159 0.054982
vt 0.874566 0.054948
vt 0.874566 0.047521
vt 0.874566 0.054948
vt 0.940159 0.054982
vt 0.940159 0.062262
vt 0.940159 0.062262
vt 0.874566 0.062262
vt 0.874566 0.054948
vt 0.874566 0.047521
vt 0.940159 0.047533
vt 0.940159 0.054982
vt 0.940159 0.054982
vt 0.874566 0.054948
vt 0.874566 0.047521
vt 0.704778 0.064777
vt 0.704778 0.053069
vt 0.868398 0.053069
vt 0.868398 0.053069
vt 0.868398 0.064777
vt 0.704778 0.064777
vt 0.536533 0.064777
vt 0.536533 0.053069
vt 0.698822 0.053069
vt 0.698822 0.053069
vt 0.698822 0.064777
vt 0.536533 0.064777
vt 0.874566 0.054948
vt 0.940159 0.054982
vt 0.940159 0.062262
vt 0.940159 0.062262
vt 0.874566 0.062262
vt 0.874566 0.054948
vt 0.010586 0.065183
vt 0.176550 0.065183
vt 0.176550 0.084162
vt 0.176550 0.084162
vt 0.010586 0.084162
vt 0.010586 0.065183
vt 0.188030 0.071753
vt 0.353765 0.071753
vt 0.353765 0.084738
vt 0.353765 0.084738
vt 0.188030 0.084738
vt 0.188030 0.071753
vt 0.367818 0.072440
vt 0.532131 0.072440
vt 0.532131 0.085214
vt 0.532131 0.085214
vt 0.367818 0.085214
vt 0.367818 0.072440
vt 0.531879 0.533063
vt 0.508608 0.509260
vt 0.509940 0.499799
vt 0.509940 0.499799
vt 0.561137 0.452945
vt 0.509940 0.499799
vt 0.505148 0.473054
vt 0.539699 0.574091
vt 0.531879 0.533063
vt 0.588551 0.528549
vt 0.550745 0.618339
vt 0.558345 0.608528
vt 0.595690 0.570325
vt 0.558345 0.608528
vt 0.597349 0.569431
vt 0.615464 0.501850
vt 0.623349 0.571728
vt 0.625395 0.551085
vt 0.639165 0.512281
vt 0.685849 0.464344
vt 0.606896 0.392437
vt 0.673741 0.342243
vt 0.606896 0.392437
vt 0.620698 0.374005
vt 0.620698 0.374005
vt 0.676507 0.311120
vt 0.600599 0.348849
vt 0.505148 0.473054
vt 0.517188 0.348190
vt 0.580497 0.382858
vt 0.561137 0.452945
vt 0.578708 0.168611
vt 0.578708 0.168611
vt 0.668338 0.239447
vt 0.623558 0.346373
vt 0.677471 0.268664
vt 0.620698 0.374005
vt 0.527028 0.288575
vt 0.540355 0.127897
vt 0.527335 0.165855
vt 0.489986 0.257697
vt 0.457532 0.329796
vt 0.423054 0.203456
vt 0.527335 0.165855
vt 0.501056 0.113445
vt 0.498945 0.146236
vt 0.489986 0.257697
vt 0.498945 0.146236
vt 0.454974 0.197356
vt 0.423054 0.203456
vt 0.498178 0.470598
vt 0.457532 0.329796
vt 0.505148 0.473054
vt 0.486357 0.501400
vt 0.509940 0.499799
vt 0.508608 0.509260
vt 0.454365 0.420747
vt 0.453866 0.409366
vt 0.457532 0.329796
vt 0.486357 0.501400
vt 0.453866 0.409366
vt 0.438842 0.364766
vt 0.363281 0.340595
vt 0.423054 0.203456
vt 0.432125 0.382710
vt 0.408902 0.387722
vt 0.701478 0.181438
vt 0.710336 0.100956
vt 0.715627 0.100956
vt 0.723892 0.181339
vt 0.701478 0.181438
vt 0.678341 0.181409
vt 0.686440 0.100956
vt 0.691755 0.100956
vt 0.701478 0.181438
vt 0.678341 0.181409
vt 0.850196 0.175754
vt 0.859380 0.100054
vt 0.864729 0.100054
vt 0.873590 0.175731
vt 0.850196 0.175754
vt 0.826010 0.175748
vt 0.834801 0.100054
vt 0.840174 0.100054
vt 0.850196 0.175754
vt 0.826010 0.175748
vt 0.698822 0.053069
vt 0.536533 0.053069
vt 0.536533 0.047389
vt 0.698822 0.047389
vt 0.698822 0.053069
vt 0.698822 0.070744
vt 0.536533 0.070744
vt 0.536533 0.064777
vt 0.536533 0.064777
vt 0.698822 0.064777
vt 0.868397 0.059081
vt 0.704778 0.059081
vt 0.704778 0.053069
vt 0.868397 0.053069
vt 0.704778 0.047389
vt 0.868397 0.047389
vt 0.536533 0.059081
vt 0.536533 0.047389
vt 0.698822 0.047389
vt 0.698822 0.059081
vt 0.536533 0.059081
vt 0.698822 0.070744
vt 0.536533 0.070744
vt 0.536533 0.064777
vt 0.536533 0.064777
vt 0.698822 0.064777
vt 0.948706 0.053898
vt 0.949145 0.047883
vt 0.994131 0.047383
vt 0.994169 0.053898
vt 0.948706 0.053898
vt 0.531879 0.533063
vt 0.509948 0.559678
vt 0.508608 0.509260
vt 0.488861 0.521744
vt 0.143706 0.256307
vt 0.176823 0.256307
vt 0.176823 0.309231
vt 0.143705 0.309231
vt 0.653675 0.181314
vt 0.663160 0.100956
vt 0.668454 0.100956
vt 0.678341 0.181409
vt 0.723892 0.181339
vt 0.733919 0.100956
vt 0.739229 0.100956
vt 0.741445 0.181290
vt 0.409294 0.166185
vt 0.420439 0.174992
vt 0.415946 0.197908
vt 0.404804 0.189131
vt 0.391706 0.200800
vt 0.379605 0.191580
vt 0.384315 0.166691
vt 0.396414 0.175880
vt 0.807611 0.175718
vt 0.810971 0.100054
vt 0.816323 0.100054
vt 0.826010 0.175748
vt 0.873590 0.175731
vt 0.883445 0.100054
vt 0.888812 0.100054
vt 0.897386 0.175729
vt 0.777166 0.302377
vt 0.777166 0.341178
vt 0.744018 0.341178
vt 0.744018 0.302377
vt 0.681663 0.295980
vt 0.681663 0.210684
vt 0.715113 0.210684
vt 0.715113 0.295980
vt 0.536533 0.064777
vt 0.536533 0.053069
vt 0.698822 0.053069
vt 0.698822 0.064777
vt 0.698822 0.053069
vt 0.536533 0.053069
vt 0.536533 0.047389
vt 0.698822 0.047389
vt 0.698822 0.070744
vt 0.536533 0.070744
vt 0.536533 0.064777
vt 0.698822 0.064777
vt 0.949691 0.213760
vt 0.949691 0.294194
vt 0.915266 0.294194
vt 0.915266 0.213760
vt 0.949691 0.213760
vt 0.949691 0.294194
vt 0.915266 0.294194
vt 0.915266 0.213760
vt 0.962895 0.213760
vt 0.997066 0.213760
vt 0.997066 0.294194
vt 0.962895 0.294194
vt 0.724620 0.295208
vt 0.729048 0.218073
vt 0.760934 0.212101
vt 0.760934 0.295208
vt 0.949691 0.213760
vt 0.949691 0.294194
vt 0.915266 0.294194
vt 0.915266 0.213760
vt 0.949691 0.213760
vt 0.949691 0.294194
vt 0.915266 0.294194
vt 0.915266 0.213760
vt 0.868398 0.053069
vt 0.704778 0.053069
vt 0.704778 0.047389
vt 0.868398 0.047389
vt 0.704778 0.070744
vt 0.704778 0.059081
vt 0.868398 0.059081
vt 0.868398 0.070744
vt 0.704778 0.070744
vt 0.704778 0.059081
vt 0.868397 0.059081
vt 0.868397 0.070744
vt 0.102895 0.955048
vt 0.102860 0.978218
vt 0.090530 0.978218
vt 0.090565 0.955048
vt 0.102895 0.955048
vt 0.102860 0.978218
vt 0.090530 0.978218
vt 0.090565 0.955048
vt 0.102896 0.954588
vt 0.102859 0.978584
vt 0.090529 0.978584
vt 0.090566 0.954588
vt 0.698822 0.064777
vt 0.536533 0.064777
vt 0.536533 0.059081
vt 0.698822 0.059081
vt 0.948741 0.054062
vt 0.949309 0.048062
vt 0.994292 0.047721
vt 0.994331 0.054010
vt 0.948229 0.065695
vt 0.948203 0.053498
vt 0.993679 0.054125
vt 0.993667 0.065593
vt 0.874566 0.070526
vt 0.874566 0.054948
vt 0.940159 0.054982
vt 0.940159 0.070526
vt 0.874566 0.070526
vt 0.874566 0.054948
vt 0.940159 0.054982
vt 0.940159 0.070526
vt 0.874448 0.065613
vt 0.874566 0.062262
vt 0.940159 0.062262
vt 0.940061 0.066656
vt 0.874566 0.070526
vt 0.874566 0.054948
vt 0.940159 0.054982
vt 0.940159 0.070526
vt 0.874448 0.065613
vt 0.874566 0.062262
vt 0.940159 0.062262
vt 0.940061 0.066656
vt 0.874566 0.070526
vt 0.874566 0.054948
vt 0.940159 0.054982
vt 0.940159 0.070526
vt 0.004448 0.243496
vt 0.004448 0.165984
vt 0.123147 0.165984
vt 0.123147 0.243496
vt 0.140144 0.256307
vt 0.112717 0.256308
vt 0.112717 0.309231
vt 0.140144 0.309231
vt 0.868398 0.053069
vt 0.704778 0.053069
vt 0.704778 0.047389
vt 0.868398 0.047389
vt 0.868398 0.070744
vt 0.704778 0.070744
vt 0.704778 0.064777
vt 0.868398 0.064777
vt 0.635018 0.179039
vt 0.615604 0.180024
vt 0.631414 0.099151
vt 0.648877 0.118969
vt 0.698822 0.053069
vt 0.536533 0.053069
vt 0.536533 0.047389
vt 0.698822 0.047389
vt 0.698822 0.070744
vt 0.536533 0.070744
vt 0.536533 0.064777
vt 0.698822 0.064777
vt 0.004448 0.165984
vt 0.123147 0.165984
vt 0.123147 0.243496
vt 0.004448 0.243496
vt 0.993932 0.081509
vt 0.993932 0.087397
vt 0.948608 0.087397
vt 0.948608 0.081509
vt 0.102896 0.954588
vt 0.102859 0.978584
vt 0.090529 0.978584
vt 0.090566 0.954588
vt 0.180983 0.256307
vt 0.180983 0.309231
vt 0.208411 0.309231
vt 0.208411 0.256308
vt 0.143706 0.256307
vt 0.143705 0.309231
vt 0.176823 0.309231
vt 0.176823 0.256307
vt 0.143706 0.317649
vt 0.143706 0.370573
vt 0.176823 0.370573
vt 0.176823 0.317649
vt 0.893794 0.343172
vt 0.893794 0.303290
vt 0.906984 0.303290
vt 0.906984 0.343172
vt 0.910118 0.343172
vt 0.910118 0.303290
vt 0.931910 0.303290
vt 0.931910 0.343172
vt 0.935044 0.343172
vt 0.935044 0.303290
vt 0.948301 0.303290
vt 0.948301 0.343172
vt 0.868760 0.343172
vt 0.868760 0.303290
vt 0.890564 0.303290
vt 0.890564 0.343172
vt 0.866165 0.303442
vt 0.866165 0.343384
vt 0.844374 0.343384
vt 0.844374 0.303442
vt 0.948706 0.066119
vt 0.948706 0.053898
vt 0.994169 0.053898
vt 0.994169 0.066119
vt 0.874448 0.065613
vt 0.874566 0.062262
vt 0.940159 0.062262
vt 0.940061 0.066656
vt 0.010586 0.084162
vt 0.176550 0.084162
vt 0.176550 0.096769
vt 0.010586 0.096769
vt 0.010586 0.045917
vt 0.176550 0.045917
vt 0.176550 0.065183
vt 0.010586 0.065183
vt 0.188030 0.084738
vt 0.353765 0.084738
vt 0.353765 0.097706
vt 0.188030 0.097706
vt 0.188030 0.053124
vt 0.353765 0.053124
vt 0.353765 0.071753
vt 0.188030 0.071753
vt 0.497905 0.664653
vt 0.468958 0.664653
vt 0.468958 0.596636
vt 0.497905 0.596636
vt 0.138177 0.954415
vt 0.138177 0.978392
vt 0.124729 0.978392
vt 0.124729 0.954415
vt 0.123211 0.971524
vt 0.114630 0.981724
vt 0.105650 0.960429
vt 0.113479 0.951123
vt 0.367818 0.085214
vt 0.532131 0.085214
vt 0.532131 0.097706
vt 0.367818 0.097706
vt 0.367818 0.052827
vt 0.532131 0.052827
vt 0.532131 0.072440
vt 0.367818 0.072440
vt 0.834961 0.359825
vt 0.834961 0.402384
vt 0.780909 0.402384
vt 0.780909 0.359825
vt 0.777166 0.359825
vt 0.777166 0.402384
vt 0.744018 0.402384
vt 0.744018 0.359825
vt 0.740512 0.359825
vt 0.740512 0.402384
vt 0.686531 0.402384
vt 0.686531 0.359825
vt 0.870731 0.352997
vt 0.870731 0.403499
vt 0.843620 0.403499
vt 0.843620 0.352997
vt 0.996822 0.352997
vt 0.996822 0.403499
vt 0.952098 0.403499
vt 0.952098 0.352997
vt 0.948964 0.352997
vt 0.948964 0.403499
vt 0.921819 0.403499
vt 0.921819 0.352997
vt 0.918685 0.352997
vt 0.918685 0.403499
vt 0.873962 0.403499
vt 0.873962 0.352997
vt 0.952098 0.344604
vt 0.952098 0.302496
vt 0.996822 0.302496
vt 0.996822 0.344604
vt 0.616163 0.078936
vt 0.616163 0.083079
vt 0.585856 0.083079
vt 0.585856 0.078936
vt 0.066113 0.021390
vt 0.009811 0.021390
vt 0.009811 0.013023
vt 0.066113 0.013023
vt 0.007750 0.970693
vt 0.037317 0.970693
vt 0.037317 0.979219
vt 0.070023 0.966411
vt 0.713144 0.030301
vt 0.713144 0.037971
vt 0.745900 0.037971
vt 0.745900 0.030301
vt 0.790046 0.022795
vt 0.790046 0.030466
vt 0.757291 0.030466
vt 0.757291 0.022795
vt 0.567555 0.014993
vt 0.567485 0.030130
vt 0.504121 0.030130
vt 0.504192 0.014992
vt 0.348216 0.014773
vt 0.411580 0.014772
vt 0.411582 0.022451
vt 0.348218 0.022451
vt 0.490803 0.022517
vt 0.427439 0.022517
vt 0.427438 0.014903
vt 0.490801 0.014904
vt 0.949691 0.213760
vt 0.949691 0.294194
vt 0.915266 0.294194
vt 0.915266 0.213760
vt 0.895954 0.212592
vt 0.895954 0.295208
vt 0.860234 0.295208
vt 0.860234 0.212592
vt 0.760934 0.295208
vt 0.724620 0.295208
vt 0.760934 0.212101
vt 0.724620 0.224044
vt 0.729048 0.218073
vt 0.771702 0.295208
vt 0.771702 0.212101
vt 0.807703 0.295208
vt 0.798387 0.212101
vt 0.807703 0.224044
vt 0.807703 0.224044
vt 0.807703 0.295208
vt 0.798387 0.212101
vt 0.771702 0.295208
vt 0.771702 0.212101
vt 0.729048 0.218073
vt 0.760934 0.212101
vt 0.724620 0.224044
vt 0.760934 0.295208
vt 0.724620 0.295208
vt 0.807703 0.224044
vt 0.807703 0.295208
vt 0.798387 0.212101
vt 0.771702 0.295208
vt 0.771702 0.212101
vt 0.733476 0.212101
vt 0.760934 0.212101
vt 0.724620 0.224044
vt 0.760934 0.295208
vt 0.724620 0.295208
vt 0.760934 0.295208
vt 0.724620 0.295208
vt 0.760934 0.212101
vt 0.724620 0.224044
vt 0.733476 0.212101
vt 0.103926 0.392524
vt 0.115985 0.465841
vt 0.139778 0.436341
vt 0.135527 0.379475
vt 0.103926 0.392524
vt 0.110581 0.325897
vt 0.066805 0.251974
vt 0.104679 0.249638
vt 0.057355 0.254937
vt 0.068527 0.373687
vt 0.063687 0.311911
vt 0.043908 0.252975
vt 0.037037 0.267180
vt 0.037694 0.286067
vt 0.025802 0.300534
vt 0.024201 0.329725
vt 0.110581 0.325897
vt 0.024201 0.329725
vt 0.091193 0.415983
vt 0.072743 0.453553
vt 0.087718 0.512460
vt 0.068527 0.373687
vt 0.056764 0.440397
vt 0.063077 0.471666
vt 0.031783 0.550805
vt 0.031914 0.472195
vt 0.068527 0.373687
vt 0.024201 0.329725
vt 0.033350 0.403527
vt 0.018151 0.432206
vt 0.024538 0.375263
vt 0.009330 0.410572
vt 0.005803 0.364209
vt 0.019644 0.351473
vt 0.003509 0.393102
vt 0.615604 0.180024
vt 0.614933 0.140948
vt 0.631414 0.099151
vt 0.601802 0.099326
vt 0.631414 0.099151
vt 0.610283 0.142082
vt 0.597206 0.147885
vt 0.592695 0.185627
vt 0.585370 0.108262
vt 0.568823 0.136975
vn 0.259916 0.887653 0.38015299999999996
vn 0.768919 0.607272 0.19996199999999997
vn 0.058782 0.969514 0.23787899999999995
vn 0.730323 0.10575700000000005 0.674866
vn 0.169878 -0.807337 0.56511
vn 0.365341 -0.723043 0.586289
vn -0.641513 0.767109 0.0024019999999999532
vn -0.641513 0.767109 0.0024019999999999532
vn -0.641513 0.767109 0.0024019999999999532
vn -0.642791 0.766039 -0.001876000000000047
vn -0.642791 0.766039 -0.001876000000000047
vn -0.642791 0.766039 -0.001876000000000047
vn 0.64277 -0.766046 -0.004428999999999953
vn 0.64277 -0.766046 -0.004428999999999953
vn 0.64277 -0.766046 -0.004428999999999953
vn 0.644066 -0.76497 -0.00010499999999995317
vn 0.644066 -0.76497 -0.00010499999999995317
vn 0.644066 -0.76497 -0.00010499999999995317
vn -0.438878 -0.864664 0.24442000000000005
vn 0.983832 0.173316 -0.04511900000000001
vn 0.955162 0.285349 -0.07900200000000002
vn 0.955162 0.285349 -0.07900200000000002
vn -0.36885 -0.895332 0.24966000000000005
vn -0.438878 -0.864664 0.24442000000000005
vn -0.80674 0.54198 -0.23543000000000003
vn -0.823711 0.51218 -0.24325200000000002
vn -0.323465 -0.894734 -0.30793199999999993
vn -0.323465 -0.894734 -0.30793199999999993
vn 0.213516 -0.971785 -0.10022199999999995
vn -0.80674 0.54198 -0.23543000000000003
vn -0.3579 -0.863882 -0.35442099999999993
vn 0.150231 -0.965818 -0.21124899999999994
vn -0.827756 0.54405 -0.13722100000000004
vn 0.978195 0.186804 -0.09076600000000001
vn 0.978195 0.186804 -0.09076600000000001
vn 0.978195 0.186804 -0.09076600000000001
vn 0.990724 -0.086715 -0.104629
vn 0.990724 -0.086715 -0.104629
vn 0.990724 -0.086715 -0.104629
vn 0.510102 -0.855311 -0.09076599999999994
vn 0.510102 -0.855311 -0.09076599999999994
vn 0.510102 -0.855311 -0.09076599999999994
vn 0.257372 -0.960631 -0.10462899999999994
vn 0.257372 -0.960631 -0.10462899999999994
vn 0.257372 -0.960631 -0.10462899999999994
vn 0.468959 -0.873115 -0.13322399999999995
vn 0.468959 -0.873115 -0.13322399999999995
vn 0.468959 -0.873115 -0.13322399999999995
vn 0.637426 -0.759672 -0.12878699999999996
vn 0.637426 -0.759672 -0.12878699999999996
vn 0.637426 -0.759672 -0.12878699999999996
vn -0.353823 0.930898 -0.09076600000000005
vn -0.353823 0.930898 -0.09076600000000005
vn -0.353823 0.930898 -0.09076600000000005
vn -0.086653 0.990729 -0.10462900000000006
vn -0.086653 0.990729 -0.10462900000000006
vn -0.086653 0.990729 -0.10462900000000006
vn -0.310215 0.941285 -0.13322400000000006
vn -0.310215 0.941285 -0.13322400000000006
vn -0.310215 0.941285 -0.13322400000000006
vn -0.495829 0.858818 -0.12878700000000007
vn -0.495829 0.858818 -0.12878700000000007
vn -0.495829 0.858818 -0.12878700000000007
vn 0.978197 0.186794 -0.09076600000000001
vn 0.978197 0.186794 -0.09076600000000001
vn 0.978197 0.186794 -0.09076600000000001
vn 0.990724 -0.086709 -0.104628
vn 0.990724 -0.086709 -0.104628
vn 0.990724 -0.086709 -0.104628
vn -0.35521 -0.900197 0.2519370000000001
vn 0.927964 0.358835 -0.10060300000000003
vn 0.922751 0.371241 -0.10349400000000003
vn 0.922751 0.371241 -0.10349400000000003
vn -0.367713 -0.89569 0.2500550000000001
vn -0.35521 -0.900197 0.2519370000000001
vn -0.43839 -0.866911 0.23723300000000005
vn 0.983773 0.173589 -0.04535400000000001
vn 0.955138 0.28569 -0.07805400000000001
vn 0.955138 0.28569 -0.07805400000000001
vn -0.368756 -0.897467 0.24201700000000007
vn -0.43839 -0.866911 0.23723300000000005
vn 0.980852 0.142057 -0.133224
vn 0.980852 0.142057 -0.133224
vn 0.980852 0.142057 -0.133224
vn 0.931868 0.339169 -0.12878700000000004
vn 0.931868 0.339169 -0.12878700000000004
vn 0.931868 0.339169 -0.12878700000000004
vn 0.929234 0.325138 0.17552799999999996
vn 0.642636 -0.738472 -0.20415299999999995
vn 0.161917 0.929727 0.33074299999999995
vn 0.161917 0.929727 0.33074299999999995
vn -0.711237 0.677117 0.18882199999999996
vn 0.929234 0.325138 0.17552799999999996
vn -0.919468 0.271276 0.284585
vn -0.285639 0.958279 0.01053899999999994
vn -0.659818 -0.693912 0.28831600000000007
vn -0.659818 -0.693912 0.28831600000000007
vn 0.232208 -0.972489 0.01854400000000006
vn -0.919468 0.271276 0.284585
vn 0.229822 -0.936879 0.26351300000000005
vn -0.684527 -0.728978 0.0038120000000000445
vn 0.934453 -0.22819399999999998 0.273358
vn 0.934453 -0.22819399999999998 0.273358
vn 0.727836 0.685298 0.024934999999999957
vn 0.229822 -0.936879 0.26351300000000005
vn -0.025778 0.934093 0.35609899999999994
vn 0.730323 0.10575700000000005 0.674866
vn 0.830622 0.510369 0.22268899999999997
vn 0.830622 0.510369 0.22268899999999997
vn -0.384392 0.86972 0.3095649999999999
vn 0.830622 0.510369 0.22268899999999997
vn 0.778552 0.20448900000000003 0.59333
vn -0.731632 0.12237800000000004 0.670625
vn -0.025778 0.934093 0.35609899999999994
vn -0.783437 -0.468863 0.40791400000000005
vn 0.169878 -0.807337 0.56511
vn 0.365341 -0.723043 0.586289
vn -0.343801 -0.875952 0.3383920000000001
vn 0.365341 -0.723043 0.586289
vn -0.438909 -0.734554 0.517484
vn -0.819389 0.0006680000000000351 0.573237
vn -0.483968 -0.675455 0.55636
vn -0.565626 -0.660289 0.49405000000000004
vn -0.862012 -0.423344 0.278775
vn -0.869349 -0.479474 0.11973500000000002
vn -0.798609 0.15005800000000002 0.582843
vn -0.859989 -0.490727 0.14002400000000004
vn -0.798609 0.15005800000000002 0.582843
vn -0.766713 -0.461854 0.44591700000000006
vn -0.766713 -0.461854 0.44591700000000006
vn -0.961923 -0.03361799999999999 0.271244
vn -0.093193 0.802738 0.589005
vn 0.778552 0.20448900000000003 0.59333
vn 0.92915 0.05614000000000002 0.365416
vn 0.237294 0.87757 0.4166079999999999
vn -0.384392 0.86972 0.3095649999999999
vn 0.704586 0.581273 0.40703799999999996
vn 0.704586 0.581273 0.40703799999999996
vn 0.204784 0.850004 0.48534299999999997
vn -0.408997 0.48396800000000006 0.773626
vn -0.565576 0.725512 0.39211799999999997
vn -0.766713 -0.461854 0.44591700000000006
vn 0.864222 -0.03808799999999997 0.501667
vn 0.94589 0.23253 0.22632199999999997
vn 0.815788 -0.30713199999999996 0.490061
vn 0.599259 -0.719714 0.3505710000000001
vn -0.005421 -0.90194 0.43182800000000005
vn 0.641156 -0.766561 0.03609800000000005
vn 0.815788 -0.30713199999999996 0.490061
vn 0.370734 -0.92711 0.054991000000000054
vn 0.32844 -0.866455 0.37601000000000007
vn 0.599259 -0.719714 0.3505710000000001
vn 0.32844 -0.866455 0.37601000000000007
vn 0.531551 -0.836801 0.13121300000000005
vn 0.641156 -0.766561 0.03609800000000005
vn 0.672567 -0.552903 0.49188500000000007
vn -0.005421 -0.90194 0.43182800000000005
vn 0.778552 0.20448900000000003 0.59333
vn 0.365341 -0.723043 0.586289
vn 0.830622 0.510369 0.22268899999999997
vn 0.730323 0.10575700000000005 0.674866
vn -0.343801 -0.875952 0.3383920000000001
vn -0.438909 -0.734554 0.517484
vn -0.005421 -0.90194 0.43182800000000005
vn 0.365341 -0.723043 0.586289
vn -0.438909 -0.734554 0.517484
vn -0.483968 -0.675455 0.55636
vn -0.869349 -0.479474 0.11973500000000002
vn 0.641156 -0.766561 0.03609800000000005
vn -0.565626 -0.660289 0.49405000000000004
vn -0.862012 -0.423344 0.278775
vn -0.097277 -0.959474 0.26447400000000004
vn 0.505123 -0.828214 0.24271700000000004
vn -0.827235 -0.492822 0.26983100000000004
vn -0.962456 0.09761400000000002 0.253278
vn -0.097277 -0.959474 0.26447400000000004
vn 0.974675 -0.09487799999999999 0.202503
vn 0.842961 0.505681 0.18358399999999997
vn 0.505123 -0.828214 0.24271700000000004
vn -0.097277 -0.959474 0.26447400000000004
vn 0.974675 -0.09487799999999999 0.202503
vn -0.101913 -0.975418 0.19537900000000005
vn 0.509697 -0.840458 0.18395400000000006
vn -0.841563 -0.502688 0.19767800000000002
vn -0.977253 0.09752000000000001 0.188324
vn -0.101913 -0.975418 0.19537900000000005
vn 0.98215 -0.09673199999999998 0.161319
vn 0.848357 0.507607 0.15041799999999997
vn 0.509697 -0.840458 0.18395400000000006
vn -0.101913 -0.975418 0.19537900000000005
vn 0.98215 -0.09673199999999998 0.161319
vn 0.317288 -0.947668 0.035412000000000055
vn 0.272357 -0.962054 0.016554000000000058
vn 0.866376 0.363551 0.342378
vn 0.42008 0.878854 0.22615899999999994
vn 0.317288 -0.947668 0.035412000000000055
vn 0.42008 0.878854 0.22615899999999994
vn 0.866376 0.363551 0.342378
vn -0.867097 0.41467 -0.276029
vn -0.867097 0.41467 -0.276029
vn -0.872901 0.399529 -0.280035
vn -0.827756 0.54405 -0.13722100000000004
vn -0.851115 0.502898 -0.15065800000000001
vn -0.3579 -0.863882 -0.35442099999999993
vn 0.150231 -0.965818 -0.21124899999999994
vn 0.929752 0.12847300000000003 0.345045
vn 0.92327 0.15825300000000003 0.35004
vn -0.447354 -0.886137 -0.12097799999999995
vn 0.915778 0.309691 0.255817
vn 0.905494 0.342756 0.250199
vn -0.382742 -0.918066 -0.10326699999999994
vn -0.447354 -0.886137 -0.12097799999999995
vn 0.905494 0.342756 0.250199
vn 0.915778 0.309691 0.255817
vn -0.385788 0.916136 -0.10891000000000006
vn -0.385788 0.916136 -0.10891000000000006
vn -0.821978 0.521923 -0.22792400000000002
vn -0.899701 -0.433358 0.05234400000000003
vn 0.89937 0.434215 -0.05089900000000003
vn -0.907703 -0.416416 0.051702000000000026
vn 0.90747 0.416812 -0.05259100000000003
vn -0.899701 -0.433358 0.05234400000000003
vn -0.025778 0.934093 0.35609899999999994
vn -0.731632 0.12237800000000004 0.670625
vn 0.730323 0.10575700000000005 0.674866
vn 0.169878 -0.807337 0.56511
vn -0.968247 0.249991 -0.0018170000000000154
vn -0.967983 0.251015 1.9999999999846296E-06
vn -0.968247 0.249991 -0.0018170000000000154
vn -0.968505 0.248967 -0.003636000000000015
vn 0.108043 0.975942 0.18937699999999993
vn -0.502646 0.837354 0.21490999999999993
vn 0.842961 0.505681 0.18358399999999997
vn 0.974675 -0.09487799999999999 0.202503
vn -0.962456 0.09761400000000002 0.253278
vn -0.827235 -0.492822 0.26983100000000004
vn -0.502646 0.837354 0.21490999999999993
vn 0.108043 0.975942 0.18937699999999993
vn 0.009287 -0.01271299999999994 0.999876
vn 0.009084 -0.011818999999999939 0.999889
vn 0.009287 -0.01271299999999994 0.999876
vn 0.009287 -0.01271299999999994 0.999876
vn 0.009287 -0.01271299999999994 0.999876
vn 0.009085 -0.011818999999999939 0.999889
vn 0.009287 -0.01271299999999994 0.999876
vn 0.009287 -0.01271299999999994 0.999876
vn 0.10669 0.982448 0.15301699999999993
vn -0.509104 0.844345 0.16701699999999994
vn 0.848357 0.507607 0.15041799999999997
vn 0.98215 -0.09673199999999998 0.161319
vn -0.977253 0.09752000000000001 0.188324
vn -0.841563 -0.502688 0.19767800000000002
vn -0.509104 0.844345 0.16701699999999994
vn 0.10669 0.982448 0.15301699999999993
vn -0.765875 -0.642643 0.02108300000000004
vn -0.765875 -0.642644 0.02108300000000004
vn -0.765875 -0.642643 0.02108300000000004
vn -0.765875 -0.642643 0.02108300000000004
vn -0.002528 -0.002121999999999939 0.999995
vn -0.002528 -0.002121999999999939 0.999995
vn -0.002528 -0.002121999999999939 0.999995
vn -0.002528 -0.002121999999999939 0.999995
vn -0.867097 0.41467 -0.276029
vn 0.272357 -0.962054 0.016554000000000058
vn 0.317288 -0.947668 0.035412000000000055
vn -0.872901 0.399529 -0.280035
vn 0.955162 0.285349 -0.07900200000000002
vn 0.983832 0.173316 -0.04511900000000001
vn -0.395526 0.882289 -0.25519500000000006
vn -0.901358 0.415255 -0.12294900000000003
vn -0.901358 0.415255 -0.12294900000000003
vn -0.395526 0.882289 -0.25519500000000006
vn -0.438878 -0.864664 0.24442000000000005
vn -0.36885 -0.895332 0.24966000000000005
vn 0.332004 -0.40262999999999993 0.853031
vn 0.332004 -0.40263099999999996 0.853031
vn 0.332004 -0.40262999999999993 0.853031
vn 0.332005 -0.40262799999999993 0.853032
vn 0.860272 0.19498700000000002 0.471075
vn 0.860273 0.19498500000000002 0.471074
vn 0.860272 0.19498700000000002 0.471075
vn 0.860271 0.19498800000000002 0.471076
vn -0.860272 -0.19498700000000002 -0.471075
vn -0.860272 -0.19498700000000002 -0.471075
vn -0.860272 -0.19498700000000002 -0.471075
vn -0.860272 -0.19498700000000002 -0.471075
vn 0.29227 -0.4242679999999999 0.857073
vn 0.292269 -0.42426899999999995 0.857073
vn 0.29227 -0.4242679999999999 0.857073
vn 0.292271 -0.42426699999999995 0.857074
vn 0.127012 -0.720319 0.681915
vn 0.127011 -0.72032 0.681914
vn 0.127012 -0.720319 0.681915
vn 0.127014 -0.720318 0.681916
vn 0.887782 0.15634600000000004 0.432896
vn 0.887783 0.15634500000000004 0.432895
vn 0.887782 0.15634600000000004 0.432896
vn 0.887781 0.15634700000000004 0.432897
vn 0.213516 -0.971785 -0.10022199999999995
vn -0.323465 -0.894734 -0.30793199999999993
vn 0.893936 0.18880200000000003 0.406488
vn 0.896939 0.18078700000000003 0.403506
vn 0.893936 0.18880200000000003 0.406488
vn -0.823711 0.51218 -0.24325200000000002
vn -0.80674 0.54198 -0.23543000000000003
vn 0.896939 0.18078700000000003 0.403506
vn 0.929752 0.12847300000000003 0.345045
vn -0.851115 0.502898 -0.15065800000000001
vn -0.827756 0.54405 -0.13722100000000004
vn 0.92327 0.15825300000000003 0.35004
vn 0.642791 -0.766042 -1.9999999999530933E-06
vn 0.642791 -0.766042 -1.9999999999530933E-06
vn 0.642791 -0.766042 -1.9999999999530933E-06
vn 0.642791 -0.766042 -1.9999999999530933E-06
vn 0.642791 -0.766041 -1.9999999999530933E-06
vn 0.642792 -0.766041 -1.9999999999530933E-06
vn 0.642791 -0.766041 -1.9999999999530933E-06
vn 0.642791 -0.766042 -9.999999999530934E-07
vn -0.64279 0.766042 -1.0000000000469065E-06
vn -0.64279 0.766042 -1.0000000000469065E-06
vn -0.64279 0.766042 -1.0000000000469065E-06
vn -0.64279 0.766042 -1.0000000000469065E-06
vn -0.821978 0.521923 -0.22792400000000002
vn -0.385788 0.916136 -0.10891000000000006
vn -0.447354 -0.886137 -0.12097799999999995
vn -0.382742 -0.918066 -0.10326699999999994
vn -0.994806 0.007737000000000006 0.101494
vn -0.994337 0.02714400000000001 0.102745
vn -0.994806 0.007737000000000006 0.101494
vn -0.994898 -0.011671999999999993 0.100206
vn 0.997253 -0.0018510000000000046 -0.074047
vn 0.997207 -0.015780000000000002 -0.073003
vn 0.997253 -0.0018510000000000046 -0.074047
vn 0.997105 0.012079999999999995 -0.075077
vn -0.993841 -0.050520999999999996 0.098629
vn -0.990724 0.086715 0.104629
vn -0.993841 -0.050520999999999996 0.098629
vn -0.978195 -0.186804 0.09076600000000001
vn -0.387394 0.916624 0.09862799999999994
vn -0.257372 0.960631 0.10462899999999994
vn -0.387394 0.916624 0.09862799999999994
vn -0.510102 0.855311 0.09076599999999994
vn -0.556069 0.820638 0.13168699999999994
vn -0.637426 0.759672 0.12878699999999996
vn -0.556069 0.820638 0.13168699999999994
vn -0.468959 0.873115 0.13322399999999995
vn 0.222337 -0.969968 0.09862800000000005
vn 0.086653 -0.990729 0.10462900000000006
vn 0.222337 -0.969968 0.09862800000000005
vn 0.353823 -0.930898 0.09076600000000005
vn 0.405117 -0.904731 0.13168700000000005
vn 0.495829 -0.858818 0.12878700000000007
vn 0.405117 -0.904731 0.13168700000000005
vn 0.310215 -0.941285 0.13322400000000006
vn -0.993841 -0.050519999999999995 0.098628
vn -0.990724 0.086709 0.104628
vn -0.993841 -0.050519999999999995 0.098628
vn -0.978197 -0.186794 0.09076600000000001
vn -0.909826 -0.24378700000000003 -0.335835
vn -0.909826 -0.24378700000000003 -0.335835
vn -0.909826 -0.24378700000000003 -0.335835
vn -0.909826 -0.24378700000000003 -0.335835
vn -0.257503 -0.966277 0.0006880000000000592
vn -0.257983 -0.966148 0.0013750000000000591
vn -0.257503 -0.966277 0.0006880000000000592
vn -0.257022 -0.966406 1.0000000000591752E-06
vn 0.922751 0.371241 -0.10349400000000003
vn 0.927964 0.358835 -0.10060300000000003
vn -0.452339 0.858243 -0.24250500000000005
vn -0.91062 0.397322 -0.11360500000000003
vn -0.91062 0.397322 -0.11360500000000003
vn -0.452339 0.858243 -0.24250500000000005
vn -0.35521 -0.900197 0.2519370000000001
vn -0.367713 -0.89569 0.2500550000000001
vn 0.54514 0.601482 0.583988
vn -0.156523 -0.553187 0.81822
vn 0.675962 -0.734996 0.05343800000000004
vn -0.055478 0.957744 0.28222099999999994
vn 0.955138 0.28569 -0.07805400000000001
vn 0.983773 0.173589 -0.04535400000000001
vn -0.395447 0.884851 -0.24629400000000007
vn -0.901466 0.416618 -0.11742600000000003
vn -0.901466 0.416618 -0.11742600000000003
vn -0.395447 0.884851 -0.24629400000000007
vn -0.43839 -0.866911 0.23723300000000005
vn -0.368756 -0.897467 0.24201700000000007
vn 0.909826 0.24378700000000003 0.335835
vn 0.909826 0.24378700000000003 0.335835
vn 0.909826 0.24378700000000003 0.335835
vn 0.909826 0.24378700000000003 0.335835
vn -0.948682 0.316232 -1.936362532939829E-17
vn -0.948682 0.316233 -1.9363686561738247E-17
vn -0.948682 0.316232 -1.936362532939829E-17
vn -0.948682 0.316231 -1.936356409705833E-17
vn -0.642791 0.766042 -1.0000000000469065E-06
vn -0.642791 0.766042 -2.0000000000469065E-06
vn -0.642791 0.766042 -1.0000000000469065E-06
vn -0.642791 0.766042 -1.0000000000469065E-06
vn 0.257022 0.966406 -1.0000000000591752E-06
vn 0.257022 0.966406 -1.0000000000591752E-06
vn 0.257022 0.966406 -1.0000000000591752E-06
vn 0.257022 0.966405 -1.0000000000591752E-06
vn 0.968511 -0.248969 -1.999999999984755E-06
vn 0.968511 -0.248969 -1.999999999984755E-06
vn 0.968511 -0.248969 -1.999999999984755E-06
vn 0.968511 -0.248969 -1.999999999984755E-06
vn 0 6.123233995736766E-17 1
vn 0 6.123233995736766E-17 1
vn 0 6.123233995736766E-17 1
vn 0 6.123233995736766E-17 1
vn 0.089006 -0.996031 6.098930880007687E-17
vn 0.089006 -0.996031 6.098930880007687E-17
vn 0.089006 -0.996031 6.098930880007687E-17
vn 0.089006 -0.996031 6.098930880007687E-17
vn 0.996112 0.088096 -5.394324220884261E-18
vn 0.996112 0.088096 -5.394324220884261E-18
vn 0.996112 0.088096 -5.394324220884261E-18
vn 0.996112 0.088096 -5.394324220884261E-18
vn -0.087524 0.996162 -6.099733023661128E-17
vn -0.087524 0.996162 -6.099733023661128E-17
vn -0.087524 0.996162 -6.099733023661128E-17
vn -0.087524 0.996162 -6.099733023661128E-17
vn -0.995898 -0.090486 5.54066951338237E-18
vn -0.995898 -0.090486 5.54066951338237E-18
vn -0.995898 -0.090486 5.54066951338237E-18
vn -0.995898 -0.090486 5.54066951338237E-18
vn 0 6.123233995736766E-17 1
vn 0 6.123233995736766E-17 1
vn 0 6.123233995736766E-17 1
vn 0 6.123233995736766E-17 1
vn 0.89937 0.434215 -0.05089900000000003
vn -0.899701 -0.433358 0.05234400000000003
vn 0.90747 0.416812 -0.05259100000000003
vn -0.907703 -0.416416 0.051702000000000026
vn -0.961333 -0.241864 0.13168700000000003
vn -0.931868 -0.339169 0.12878700000000004
vn -0.961333 -0.241864 0.13168700000000003
vn -0.980852 -0.142057 0.133224
vn -0.711237 0.677117 0.18882199999999996
vn 0.161917 0.929727 0.33074299999999995
vn -0.963609 -0.230376 -0.13559299999999996
vn -0.328936 -0.889025 -0.31849199999999994
vn -0.328936 -0.889025 -0.31849199999999994
vn -0.963609 -0.230376 -0.13559299999999996
vn 0.642636 -0.738472 -0.20415299999999995
vn 0.929234 0.325138 0.17552799999999996
vn 0.232208 -0.972489 0.01854400000000006
vn -0.659818 -0.693912 0.28831600000000007
vn 0.914283 -0.302284 -0.269649
vn 0.640891 0.717114 -0.27387300000000003
vn 0.640891 0.717114 -0.27387300000000003
vn 0.914283 -0.302284 -0.269649
vn -0.285639 0.958279 0.01053899999999994
vn -0.919468 0.271276 0.284585
vn -0.770055 0.637977 -3.906482454898155E-17
vn -0.770055 0.637977 9.999999999609352E-07
vn -0.770055 0.637977 -3.906482454898155E-17
vn -0.770056 0.637977 -3.906482454898155E-17
vn 0.707106 -0.707107 4.329781621023438E-17
vn 0.707106 -0.707107 4.329781621023438E-17
vn 0.707106 -0.707107 4.329781621023438E-17
vn 0.707106 -0.707107 4.329781621023438E-17
vn -0.707107 0.707107 -4.329781621023438E-17
vn -0.707107 0.707107 -4.329781621023438E-17
vn -0.707107 0.707107 -4.329781621023438E-17
vn -0.707107 0.707107 -4.329781621023438E-17
vn 0.727836 0.685298 0.024934999999999957
vn 0.934453 -0.22819399999999998 0.273358
vn -0.195573 0.94862 -0.24873900000000004
vn -0.945063 0.19818099999999997 -0.259961
vn -0.945063 0.19818099999999997 -0.259961
vn -0.195573 0.94862 -0.24873900000000004
vn -0.684527 -0.728978 0.0038120000000000445
vn 0.229822 -0.936879 0.26351300000000005
vn 0.642705 -0.765946 -0.016031999999999953
vn 0.642705 -0.765946 -0.01603099999999995
vn 0.642705 -0.765946 -0.016031999999999953
vn 0.642705 -0.765946 -0.016031999999999953
vn 0.765996 0.642746 -0.01134000000000004
vn 0.765995 0.642746 -0.01134000000000004
vn 0.765996 0.642746 -0.01134000000000004
vn 0.765996 0.642745 -0.01134100000000004
vn -0.642727 0.765972 -0.013732000000000046
vn -0.642727 0.765972 -0.013733000000000047
vn -0.642727 0.765972 -0.013732000000000046
vn -0.642728 0.765971 -0.013730000000000046
vn -0.171818 -0.985129 6.032175382986164E-17
vn -0.171818 -0.985129 6.032175382986164E-17
vn -0.171818 -0.985129 6.032175382986164E-17
vn -0.171818 -0.985129 6.032175382986164E-17
vn 0.984971 -0.172719 1.0575988525096585E-17
vn 0.984971 -0.172719 1.0575988525096585E-17
vn 0.984971 -0.172719 1.0575988525096585E-17
vn 0.984971 -0.172719 1.0575988525096585E-17
vn 0.173284 0.984872 -6.03060171184926E-17
vn 0.173284 0.984872 -6.03060171184926E-17
vn 0.173284 0.984872 -6.03060171184926E-17
vn 0.173284 0.984872 -6.03060171184926E-17
vn -0.985383 0.170355 -1.0431235273437368E-17
vn -0.985383 0.170355 -1.0431235273437368E-17
vn -0.985383 0.170355 -1.0431235273437368E-17
vn -0.985383 0.170355 -1.0431235273437368E-17
vn 0 6.123233995736766E-17 1
vn 0 6.123233995736766E-17 1
vn 0 6.123233995736766E-17 1
vn 0 6.123233995736766E-17 1
vn -0.840355 0.11526500000000003 0.529639
vn -0.840353 0.11528200000000002 0.529639
vn -0.840355 0.11526500000000003 0.529639
vn -0.840357 0.11524800000000003 0.52964
vn 0.515537 -0.587429 0.623818
vn 0.514978 -0.58792 0.623817
vn 0.515537 -0.587429 0.623818
vn 0.516095 -0.586938 0.623819
vn 0.559551 -0.544207 0.625093
vn 0.492813 -0.601806 0.628463
vn 0.492813 -0.601806 0.628463
vn 0.422239 -0.65472 0.626942
vn -0.98481 -0.173638 1.0632261045517404E-17
vn -0.98481 -0.173637 1.0632199813177449E-17
vn -0.98481 -0.173638 1.0632261045517404E-17
vn -0.984809 -0.17364 1.063238351019732E-17
vn -0.984808 -0.173649 -9.99999999989367E-07
vn -0.98481 -0.173637 1.0632199813177449E-17
vn -0.984808 -0.173649 -9.99999999989367E-07
vn -0.984806 -0.173661 -2.9999999999893664E-06
vn 1E-06 1.0000000000612324E-06 1
vn 2E-06 1.0000000000612324E-06 1
vn 1E-06 1.0000000000612324E-06 1
vn 1E-06 1.0000000000612324E-06 1
vn 0.98481 0.173638 -1.0632261045517404E-17
vn 0.984808 0.173644 -1.063262843955715E-17
vn 0.98481 0.173638 -1.0632261045517404E-17
vn 0.984811 0.173632 -1.000000000010632E-06
vn 0.984813 0.173618 -1.0631036398718258E-17
vn 0.984813 0.173618 -1.0631036398718258E-17
vn 0.984813 0.173618 -1.0631036398718258E-17
vn 0.984813 0.173618 -1.0631036398718258E-17
vn -0.720319 -0.12701199999999996 0.681915
vn -0.72032 -0.12701099999999996 0.681914
vn -0.720319 -0.12701199999999996 0.681915
vn -0.720318 -0.12701399999999993 0.681916
vn -0.925416 -0.16317699999999996 0.342021
vn -0.925416 -0.16317699999999996 0.342021
vn -0.925416 -0.16317699999999996 0.342021
vn -0.925416 -0.16317699999999996 0.342021
vn 0.159853 -0.906563 0.39062800000000003
vn 0.159853 -0.906563 0.39062800000000003
vn 0.159853 -0.906565 0.39062500000000006
vn 0.159852 -0.906565 0.39062300000000005
vn 0.159852 -0.906568 0.3906180000000001
vn -0.159853 0.906563 -0.39062800000000003
vn -0.159851 0.906564 -0.39062700000000006
vn -0.159859 0.906562 -0.39062800000000003
vn -0.159862 0.906562 -0.39062700000000006
vn -0.159875 0.906558 -0.39063000000000003
vn -0.008752 0.979075 -0.20331100000000005
vn -0.116977 0.968005 -0.22199700000000006
vn -0.152928 0.961658 -0.22765500000000005
vn -0.223775 0.945141 -0.23797800000000005
vn -0.223773 0.945141 -0.23797900000000005
vn 0.219017 -0.928729 0.29915400000000003
vn 0.208095 -0.940246 0.2695080000000001
vn 0.21384 -0.943679 0.25247200000000003
vn 0.211057 -0.950295 0.22889800000000005
vn 0.22511 -0.949594 0.21816700000000006
vn 0.992165 0.00039599999999999233 -0.124936
vn 0.985993 0.08624399999999999 -0.142757
vn 0.982229 0.11480999999999998 -0.148473
vn 0.972204 0.171425 -0.159477
vn 0.972204 0.171424 -0.159477
vn -0.960153 -0.1693 0.222358
vn -0.968381 -0.159675 0.191683
vn -0.970981 -0.163825 0.17423
vn -0.975499 -0.160936 0.150003
vn -0.975224 -0.171959 0.139173
vn -0.906563 -0.15985299999999997 0.390628
vn -0.906563 -0.15985299999999997 0.390628
vn -0.906565 -0.15985299999999997 0.390625
vn -0.906565 -0.15985199999999997 0.390623
vn -0.906567 -0.15985199999999997 0.390619
vn 0.359977 -0.649335 0.66991
vn -0.694072 -0.63649 0.33637000000000006
vn -0.125154 -0.634576 0.76266
vn 0.674723 -0.45386699999999996 0.582026
vn 0.359977 -0.649335 0.66991
vn 0.949447 0.03243000000000002 0.312246
vn 0.058782 0.969514 0.23787899999999995
vn 0.094996 0.98403 0.15053199999999994
vn 0.768919 0.607272 0.19996199999999997
vn 0.211961 -0.743969 0.633706
vn 0.95557 -0.05945899999999998 0.288706
vn 0.259916 0.887653 0.38015299999999996
vn 0.371541 0.683754 0.628043
vn 0.875235 0.3675 0.314495
vn 0.544703 0.15135100000000007 0.824858
vn -0.383949 -0.773557 0.504176
vn 0.949447 0.03243000000000002 0.312246
vn -0.383949 -0.773557 0.504176
vn -0.359578 -0.691769 0.626227
vn -0.90199 -0.14088799999999999 0.408123
vn -0.933357 0.344022 0.10243999999999998
vn 0.211961 -0.743969 0.633706
vn -0.77882 0.03016900000000004 0.626522
vn -0.645489 0.686399 0.33496399999999993
vn 0.094996 0.98403 0.15053199999999994
vn 0.058782 0.969514 0.23787899999999995
vn 0.211961 -0.743969 0.633706
vn -0.383949 -0.773557 0.504176
vn -0.792487 0.459124 0.40145899999999995
vn 0.259916 0.887653 0.38015299999999996
vn -0.48956 0.25464600000000004 0.833958
vn 0.371541 0.683754 0.628043
vn 0.544703 0.15135100000000007 0.824858
vn -0.383949 -0.773557 0.504176
vn 0.875235 0.3675 0.314495
vn -0.156523 -0.553187 0.81822
vn -0.352143 -0.905157 0.23808800000000005
vn 0.675962 -0.734996 0.05343800000000004
vn -0.852876 -0.512451 0.09997800000000003
vn 0.675962 -0.734996 0.05343800000000004
vn -0.702033 -0.49972199999999994 0.507373
vn -0.834786 0.27173300000000006 0.478846
vn 0.54514 0.601482 0.583988
vn -0.809321 0.529045 0.25516999999999995
vn -0.055478 0.957744 0.28222099999999994
g 01
f 1/1/1 2/2/2 3/3/3
f 4/4/4 5/5/5 6/6/6
f 7/7/7 8/8/8 9/9/9
f 10/10/10 11/11/11 12/12/12
f 13/13/13 14/14/14 15/15/15
f 16/16/16 17/17/17 18/18/18
f 19/19/19 20/20/20 21/21/21
f 22/22/22 23/23/23 24/24/24
f 25/25/25 26/26/26 27/27/27
f 28/28/28 29/29/29 30/30/30
f 31/31/31 32/32/32 33/33/33
f 34/34/34 35/35/35 36/36/36
f 37/37/37 38/38/38 39/39/39
f 40/40/40 41/41/41 42/42/42
f 43/43/43 44/44/44 45/45/45
f 46/46/46 47/47/47 48/48/48
f 49/49/49 50/50/50 51/51/51
f 52/52/52 53/53/53 54/54/54
f 55/55/55 56/56/56 57/57/57
f 58/58/58 59/59/59 60/60/60
f 61/61/61 62/62/62 63/63/63
f 64/64/64 65/65/65 66/66/66
f 67/67/67 68/68/68 69/69/69
f 70/70/70 71/71/71 72/72/72
f 73/73/73 74/74/74 75/75/75
f 76/76/76 77/77/77 78/78/78
f 79/79/79 80/80/80 81/81/81
f 82/82/82 83/83/83 84/84/84
f 85/85/85 86/86/86 87/87/87
f 88/88/88 89/89/89 90/90/90
f 91/91/91 92/92/92 93/93/93
f 94/94/94 95/95/95 96/96/96
f 97/97/97 98/98/98 99/99/99
f 100/100/100 101/101/101 102/102/102
f 103/103/103 104/104/104 105/105/105
f 106/106/106 107/107/107 108/108/108
f 106/106/106 109/109/109 110/110/110
f 111/111/111 112/112/112 110/110/110
f 113/113/113 114/114/114 110/110/110
f 110/110/110 115/115/115 113/113/113
f 116/116/116 113/113/113 115/115/115
f 117/117/117 116/116/116 115/115/115
f 118/118/118 119/119/119 115/115/115
f 120/120/120 118/118/118 115/115/115
f 115/115/115 121/121/121 120/120/120
f 121/121/121 115/115/115 110/110/110
f 122/122/122 120/120/120 121/121/121
f 121/121/121 123/123/123 122/122/122
f 123/123/123 121/121/121 124/124/124
f 124/124/124 121/121/121 125/125/125
f 125/125/125 121/121/121 126/126/126
f 110/110/110 126/126/126 121/121/121
f 126/126/126 127/127/127 125/125/125
f 127/127/127 128/128/128 129/129/129
f 130/130/130 131/131/131 127/127/127
f 132/132/132 126/126/126 110/110/110
f 133/133/133 134/134/134 110/110/110
f 110/110/110 135/135/135 132/132/132
f 134/134/134 135/135/135 136/136/136
f 137/137/137 132/132/132 135/135/135
f 138/138/138 135/135/135 134/134/134
f 132/132/132 138/138/138 139/139/139
f 139/139/139 140/140/140 132/132/132
f 126/126/126 132/132/132 140/140/140
f 139/139/139 141/141/141 140/140/140
f 140/140/140 141/141/141 131/131/131
f 140/140/140 142/142/142 126/126/126
f 131/131/131 142/142/142 140/140/140
f 143/143/143 138/138/138 134/134/134
f 144/144/144 138/138/138 143/143/143
f 143/143/143 145/145/145 144/144/144
f 146/146/146 143/143/143 134/134/134
f 146/146/146 147/147/147 148/148/148
f 149/149/149 143/143/143 146/146/146
f 150/150/150 144/144/144 149/149/149
f 150/150/150 151/151/151 152/152/152
f 149/149/149 153/153/153 150/150/150
f 146/146/146 153/153/153 149/149/149
f 146/146/146 154/154/154 150/150/150
f 155/155/155 154/154/154 146/146/146
f 146/146/146 156/156/156 157/157/157
f 156/156/156 146/146/146 134/134/134
f 134/134/134 158/158/158 156/156/156
f 159/159/159 156/156/156 158/158/158
f 158/158/158 160/160/160 159/159/159
f 159/159/159 160/160/160 161/161/161
f 159/159/159 162/162/162 163/163/163
f 156/156/156 159/159/159 164/164/164
f 165/165/165 166/166/166 164/164/164
f 166/166/166 167/167/167 164/164/164
f 164/164/164 167/167/167 168/168/168
f 169/169/169 164/164/164 168/168/168
f 167/167/167 170/170/170 168/168/168
f 170/170/170 171/171/171 168/168/168
f 172/172/172 173/173/173 174/174/174
f 174/174/174 175/175/175 176/176/176
f 177/177/177 178/178/178 179/179/179
f 179/179/179 180/180/180 181/181/181
f 182/182/182 183/183/183 184/184/184
f 184/184/184 185/185/185 186/186/186
f 187/187/187 188/188/188 189/189/189
f 189/189/189 190/190/190 191/191/191
f 192/192/192 193/193/193 194/194/194
f 194/194/194 195/195/195 196/196/196
f 197/197/197 198/198/198 199/199/199
f 200/200/200 201/201/201 197/197/197
f 202/202/202 203/203/203 204/204/204
f 205/205/205 204/204/204 206/206/206
f 206/206/206 207/207/207 205/205/205
f 208/208/208 209/209/209 210/210/210
f 210/210/210 211/211/211 212/212/212
f 213/213/213 214/214/214 215/215/215
f 216/216/216 217/217/217 213/213/213
f 218/218/218 219/219/219 220/220/220
f 220/220/220 221/221/221 222/222/222
f 223/223/223 224/224/224 225/225/225
f 224/224/224 226/226/226 225/225/225
f 227/227/227 228/228/228 229/229/229
f 229/229/229 230/230/230 227/227/227
f 231/231/231 232/232/232 233/233/233
f 233/233/233 234/234/234 231/231/231
f 235/235/235 236/236/236 237/237/237
f 237/237/237 238/238/238 235/235/235
f 239/239/239 240/240/240 241/241/241
f 241/241/241 242/242/242 239/239/239
f 243/243/243 244/244/244 245/245/245
f 245/245/245 246/246/246 243/243/243
f 247/247/247 248/248/248 249/249/249
f 249/249/249 250/250/250 247/247/247
f 251/251/251 252/252/252 253/253/253
f 253/253/253 254/254/254 251/251/251
f 255/255/255 256/256/256 257/257/257
f 257/257/257 258/258/258 255/255/255
f 259/259/259 260/260/260 261/261/261
f 261/261/261 262/262/262 259/259/259
f 263/263/263 264/264/264 265/265/265
f 265/265/265 266/266/266 263/263/263
f 267/267/267 268/268/268 269/269/269
f 269/269/269 270/270/270 267/267/267
f 271/271/271 272/272/272 273/273/273
f 273/273/273 274/274/274 271/271/271
f 275/275/275 276/276/276 277/277/277
f 277/277/277 278/278/278 275/275/275
f 279/279/279 280/280/280 281/281/281
f 281/281/281 282/282/282 279/279/279
f 283/283/283 284/284/284 285/285/285
f 285/285/285 286/286/286 283/283/283
f 287/287/287 288/288/288 289/289/289
f 289/289/289 290/290/290 287/287/287
f 291/291/291 292/292/292 293/293/293
f 293/293/293 294/294/294 291/291/291
f 295/295/295 296/296/296 297/297/297
f 297/297/297 298/298/298 295/295/295
f 299/299/299 300/300/300 301/301/301
f 301/301/301 302/302/302 299/299/299
f 303/303/303 304/304/304 305/305/305
f 305/305/305 306/306/306 303/303/303
f 307/307/307 308/308/308 309/309/309
f 309/309/309 310/310/310 307/307/307
f 311/311/311 312/312/312 313/313/313
f 313/313/313 314/314/314 311/311/311
f 315/315/315 316/316/316 317/317/317
f 317/317/317 318/318/318 315/315/315
f 319/319/319 320/320/320 321/321/321
f 321/321/321 322/322/322 319/319/319
f 323/323/323 324/324/324 325/325/325
f 325/325/325 326/326/326 323/323/323
f 327/327/327 328/328/328 329/329/329
f 329/329/329 330/330/330 327/327/327
f 331/331/331 332/332/332 333/333/333
f 333/333/333 334/334/334 331/331/331
f 335/335/335 336/336/336 337/337/337
f 337/337/337 338/338/338 335/335/335
f 339/339/339 340/340/340 341/341/341
f 341/341/341 342/342/342 339/339/339
f 343/343/343 344/344/344 345/345/345
f 345/345/345 346/346/346 343/343/343
f 347/347/347 348/348/348 349/349/349
f 349/349/349 350/350/350 347/347/347
f 351/351/351 352/352/352 353/353/353
f 353/353/353 354/354/354 351/351/351
f 355/355/355 356/356/356 357/357/357
f 357/357/357 358/358/358 355/355/355
f 359/359/359 360/360/360 361/361/361
f 361/361/361 362/362/362 359/359/359
f 363/363/363 364/364/364 365/365/365
f 365/365/365 366/366/366 363/363/363
f 367/367/367 368/368/368 369/369/369
f 369/369/369 370/370/370 367/367/367
f 371/371/371 372/372/372 373/373/373
f 373/373/373 374/374/374 371/371/371
f 375/375/375 376/376/376 377/377/377
f 377/377/377 378/378/378 375/375/375
f 379/379/379 380/380/380 381/381/381
f 381/381/381 382/382/382 379/379/379
f 383/383/383 384/384/384 385/385/385
f 385/385/385 386/386/386 383/383/383
f 387/387/387 388/388/388 389/389/389
f 389/389/389 390/390/390 387/387/387
f 391/391/391 392/392/392 393/393/393
f 393/393/393 394/394/394 391/391/391
f 395/395/395 396/396/396 397/397/397
f 397/397/397 398/398/398 395/395/395
f 399/399/399 400/400/400 401/401/401
f 401/401/401 402/402/402 399/399/399
f 403/403/403 404/404/404 405/405/405
f 405/405/405 406/406/406 403/403/403
f 407/407/407 408/408/408 409/409/409
f 409/409/409 410/410/410 407/407/407
f 411/411/411 412/412/412 413/413/413
f 413/413/413 414/414/414 411/411/411
f 415/415/415 416/416/416 417/417/417
f 417/417/417 418/418/418 415/415/415
f 419/419/419 420/420/420 421/421/421
f 421/421/421 422/422/422 419/419/419
f 423/423/423 424/424/424 425/425/425
f 425/425/425 426/426/426 423/423/423
f 427/427/427 428/428/428 429/429/429
f 429/429/429 430/430/430 427/427/427
f 431/431/431 432/432/432 433/433/433
f 433/433/433 434/434/434 431/431/431
f 435/435/435 436/436/436 437/437/437
f 437/437/437 438/438/438 435/435/435
f 439/439/439 440/440/440 441/441/441
f 441/441/441 442/442/442 439/439/439
f 443/443/443 444/444/444 445/445/445
f 445/445/445 446/446/446 443/443/443
f 447/447/447 448/448/448 449/449/449
f 449/449/449 450/450/450 447/447/447
f 451/451/451 452/452/452 453/453/453
f 453/453/453 454/454/454 451/451/451
f 455/455/455 456/456/456 457/457/457
f 457/457/457 458/458/458 455/455/455
f 459/459/459 460/460/460 461/461/461
f 461/461/461 462/462/462 459/459/459
f 463/463/463 464/464/464 465/465/465
f 465/465/465 466/466/466 463/463/463
f 467/467/467 468/468/468 469/469/469
f 469/469/469 470/470/470 467/467/467
f 471/471/471 472/472/472 473/473/473
f 473/473/473 474/474/474 471/471/471
f 475/475/475 476/476/476 477/477/477
f 477/477/477 478/478/478 475/475/475
f 479/479/479 480/480/480 481/481/481
f 481/481/481 482/482/482 479/479/479
f 483/483/483 484/484/484 485/485/485
f 485/485/485 486/486/486 483/483/483
f 487/487/487 488/488/488 489/489/489
f 489/489/489 490/490/490 487/487/487
f 491/491/491 492/492/492 493/493/493
f 493/493/493 494/494/494 491/491/491
f 495/495/495 496/496/496 497/497/497
f 497/497/497 498/498/498 495/495/495
f 499/499/499 500/500/500 501/501/501
f 501/501/501 502/502/502 499/499/499
f 503/503/503 504/504/504 505/505/505
f 505/505/505 506/506/506 503/503/503
f 507/507/507 508/508/508 509/509/509
f 509/509/509 510/510/510 507/507/507
f 511/511/511 512/512/512 513/513/513
f 513/513/513 514/514/514 511/511/511
f 515/515/515 516/516/516 517/517/517
f 518/518/518 517/517/517 516/516/516
f 519/519/519 520/520/520 521/521/521
f 521/521/521 522/522/522 519/519/519
f 523/523/523 524/524/524 525/525/525
f 525/525/525 526/526/526 523/523/523
f 527/527/527 528/528/528 529/529/529
f 529/529/529 530/530/530 527/527/527
f 531/531/531 532/532/532 533/533/533
f 533/533/533 534/534/534 531/531/531
f 535/535/535 536/536/536 537/537/537
f 537/537/537 538/538/538 535/535/535
f 539/539/539 540/540/540 541/541/541
f 541/541/541 542/542/542 539/539/539
f 543/543/543 544/544/544 545/545/545
f 545/545/545 546/546/546 543/543/543
f 547/547/547 548/548/548 549/549/549
f 548/548/548 550/550/550 549/549/549
f 550/550/550 551/551/551 549/549/549
f 552/552/552 553/553/553 554/554/554
f 553/553/553 555/555/555 554/554/554
f 555/555/555 556/556/556 554/554/554
f 557/557/557 558/558/558 559/559/559
f 558/558/558 560/560/560 559/559/559
f 560/560/560 561/561/561 559/559/559
f 562/562/562 563/563/563 564/564/564
f 563/563/563 565/565/565 564/564/564
f 565/565/565 566/566/566 564/564/564
f 567/567/567 568/568/568 569/569/569
f 568/568/568 570/570/570 569/569/569
f 570/570/570 571/571/571 569/569/569
f 572/572/572 573/573/573 574/574/574
f 573/573/573 575/575/575 574/574/574
f 575/575/575 576/576/576 574/574/574
f 577/577/577 578/578/578 579/579/579
f 578/578/578 580/580/580 579/579/579
f 580/580/580 581/581/581 579/579/579
f 582/582/582 583/583/583 584/584/584
f 584/584/584 585/585/585 586/586/586
f 585/585/585 587/587/587 586/586/586
f 588/588/588 587/587/587 589/589/589
f 587/587/587 588/588/588 590/590/590
f 586/586/586 587/587/587 591/591/591
f 590/590/590 592/592/592 587/587/587
f 590/590/590 593/593/593 592/592/592
f 593/593/593 594/594/594 592/592/592
f 594/594/594 595/595/595 592/592/592
f 595/595/595 596/596/596 592/592/592
f 592/592/592 596/596/596 597/597/597
f 591/591/591 598/598/598 592/592/592
f 599/599/599 591/591/591 592/592/592
f 591/591/591 600/600/600 586/586/586
f 586/586/586 600/600/600 583/583/583
f 583/583/583 600/600/600 601/601/601
f 601/601/601 602/602/602 583/583/583
f 600/600/600 603/603/603 604/604/604
f 604/604/604 601/601/601 600/600/600
f 602/602/602 601/601/601 605/605/605
f 601/601/601 604/604/604 605/605/605
f 606/606/606 602/602/602 605/605/605
f 607/607/607 606/606/606 605/605/605
f 605/605/605 604/604/604 607/607/607
f 604/604/604 608/608/608 609/609/609
f 604/604/604 610/610/610 607/607/607
f 610/610/610 604/604/604 609/609/609
f 610/610/610 611/611/611 607/607/607
f 612/612/612 610/610/610 609/609/609
f 613/613/613 611/611/611 610/610/610
f 610/610/610 612/612/612 613/613/613
f 613/613/613 612/612/612 614/614/614
f 615/615/615 614/614/614 612/612/612
f 614/614/614 616/616/616 613/613/613
f 617/617/617 618/618/618 619/619/619
f 620/620/620 621/621/621 618/618/618
f 622/622/622 618/618/618 617/617/617
f 618/618/618 622/622/622 620/620/620
f 623/623/623 622/622/622 617/617/617
f 622/622/622 623/623/623 620/620/620
f 624/624/624 623/623/623 617/617/617
f 620/620/620 623/623/623 625/625/625
f 623/623/623 624/624/624 626/626/626
f 626/626/626 625/625/625 623/623/623
