v 0.570743 0.3501600000000001 0.674649
v 0.805004 0.09680000000000004 0.68098
v 0.739821 0.15814500000000004 0.501176
v 0.525648 0.34058800000000006 0.541017
v 0.570743 0.3501600000000001 0.674649
v 0.321223 0.577839 0.642493
v 0.32031 0.55694 0.78486
v 0.32031 0.55694 0.78486
v 0.570743 0.3501600000000001 0.674649
v 0.321223 0.577839 0.642493
v 0.012351 0.26648700000000003 0.681903
v -0.034626 0.24713800000000005 0.820621
v -0.034626 0.24713800000000005 0.820621
v 0.32031 0.55694 0.78486
v -1.120129 -0.882251 0.568837
v -0.720558 -0.43000399999999994 0.822924
v -0.753403 -0.47649299999999994 0.693452
v -1.156377 -0.887472 0.4340510000000001
v -1.120129 -0.882251 0.568837
v -0.245984 1.32742 0.1564379999999999
v -0.226888 1.321011 -5.000000000008089E-05
v 0.294462 1.341197 -0.04923900000000008
v 0.287323 1.384287 0.2792729999999999
v -1.428121 0.03622 -5.000000000000222E-05
v -1.430524 0.031785000000000015 0.250026
v -1.39371 -0.888214 0.16243200000000005
v -1.469436 -0.523757 -4.999999999996793E-05
v 0.633191 1.274441 0.36187199999999997
v 0.287323 1.384287 0.2792729999999999
v 0.294462 1.341197 -0.04923900000000008
v 0.623595 1.242774 -5.00000000000761E-05
v -1.469436 -0.523757 -4.999999999996793E-05
v -1.39371 -0.888214 0.16243200000000005
v -1.430524 0.031785000000000015 0.250026
v -1.428121 0.03622 -5.000000000000222E-05
v 1.35863 0.569754 0.15643799999999997
v 1.34712 0.552067 -5.000000000003381E-05
v 1.447736 0.372532 0.3047
v 1.438658 0.140144 -5.000000000000858E-05
v 1.468177 0.12519400000000003 0.361872
v -0.226888 1.321011 -5.000000000008089E-05
v -0.245984 1.32742 0.1564379999999999
v 0.287323 1.384287 0.2792729999999999
v 0.294462 1.341197 -0.04923900000000008
v 0.623595 1.242774 -5.00000000000761E-05
v 0.633191 1.274441 0.36187199999999997
v 1.017552 -0.10723099999999997 0.700686
v 1.030737 -0.146266 0.165001
v 0.924716 -0.690205 -0.02210699999999996
v 0.906621 -0.697431 0.43184900000000004
v 0.925772 -1.405122 0.041868000000000086
v 0.705554 -0.518845 0.678273
v 0.811075 0.10600800000000005 0.765215
v 0.410819 -0.17982499999999996 0.86271
v 0.095112 -0.5565539999999999 1.181659
v 0.627825 -1.094838 0.34207300000000007
v 0.227131 -1.389931 0.1745440000000001
v 0.408901 -0.890009 0.879151
v -0.289318 -0.88689 0.83629
v 0.052214 -1.24858 0.7119040000000001
v -0.296969 -1.392769 0.3458930000000001
v -0.638666 -1.272851 0.7782620000000001
v 0.924716 -0.690205 -0.02210699999999996
v 1.030737 -0.146266 0.165001
v 1.017552 -0.10723099999999997 0.700686
v 0.906621 -0.697431 0.43184900000000004
v 0.925772 -1.405122 0.041868000000000086
v 0.705554 -0.518845 0.678273
v 0.811075 0.10600800000000005 0.765215
v 0.410819 -0.17982499999999996 0.86271
v 0.627825 -1.094838 0.34207300000000007
v 0.227131 -1.389931 0.1745440000000001
v 0.408901 -0.890009 0.879151
v 0.095112 -0.5565539999999999 1.181659
v -0.289318 -0.88689 0.83629
v 0.052214 -1.24858 0.7119040000000001
v -0.296969 -1.392769 0.3458930000000001
v -0.638666 -1.272851 0.7782620000000001
v -0.831383 -1.054295 0.5158910000000001
v -0.624419 -1.211185 0.4827640000000001
v -0.561802 -1.267096 0.6468220000000001
v -0.811208 -1.045513 0.6527640000000001
v -1.120129 -0.882251 0.568837
v -1.156377 -0.887472 0.4340510000000001
v -0.811208 -1.045513 0.6527640000000001
v -0.466019 -0.700325 0.695609
v -0.811208 -1.045513 0.6527640000000001
v -0.239548 -0.920678 0.7318760000000001
v -0.720558 -0.43000399999999994 0.822924
v 0.126447 -0.5994079999999999 1.071597
v -0.364388 -0.10082499999999996 0.7457
v -0.120831 -0.3551369999999999 0.856273
v 0.224357 -0.009948999999999958 0.684261
v 0.448118 -0.22925199999999996 0.728715
v -0.034626 0.24713800000000005 0.820621
v 0.805004 0.09680000000000004 0.68098
v 0.32031 0.55694 0.78486
v 0.570743 0.3501600000000001 0.674649
v 1.34712 0.552067 -5.000000000003381E-05
v 1.35863 0.569754 0.15643799999999997
v 1.477769 0.397524 0.12646899999999997
v 1.447736 0.372532 0.3047
v 1.438658 0.140144 -5.000000000000858E-05
v 1.468177 0.12519400000000003 0.361872
v 1.392666 -1.181775 0.3618720000000001
v 1.453948 -0.854987 0.28956600000000005
v 1.47494 -0.829503 0.10984600000000005
v 1.363147 -1.166826 -4.9999999999928553E-05
v 1.424223 -0.4529 0.298754
v 1.384984 -0.468871 -4.999999999997129E-05
v 1.384984 -0.468871 -4.999999999997129E-05
v 1.478582 -0.830464 0.10984600000000005
v 1.363147 -1.166826 -4.9999999999928553E-05
v 1.392666 -1.181775 0.3618720000000001
v 1.424223 -0.4529 0.298754
v 1.453948 -0.854987 0.28956600000000005
v 0.807322 -1.487247 0.36187200000000014
v 1.104213 -1.428426 0.3284620000000001
v 1.135341 -1.439436 0.1487420000000001
v 0.811274 -1.454394 -4.999999999991095E-05
v 1.349214 -1.240279 0.2987540000000001
v 1.320785 -1.208869 -4.999999999992598E-05
v 1.135682 -1.443187 0.1487420000000001
v 0.807322 -1.487247 0.36187200000000014
v 0.811274 -1.454394 -4.999999999991095E-05
v 1.320785 -1.208869 -4.999999999992598E-05
v 1.104213 -1.428426 0.3284620000000001
v 1.349214 -1.240279 0.2987540000000001
vt 0.510815 0.856959
vt 0.510815 0.991360
vt 0.477927 0.991360
vt 0.477927 0.856959
vt 0.510815 0.856959
vt 0.477927 0.694326
vt 0.510815 0.694326
vt 0.510815 0.694326
vt 0.510815 0.856959
vt 0.510815 0.642048
vt 0.620208 0.642048
vt 0.638092 0.694326
vt 0.638092 0.694326
vt 0.510815 0.694326
vt 0.971232 0.694326
vt 0.828888 0.694326
vt 0.855147 0.642048
vt 0.971232 0.642048
vt 0.971232 0.694326
vt 0.996331 0.474148
vt 0.996331 0.520051
vt 0.909662 0.520051
vt 0.909662 0.415742
vt 0.129360 0.165298
vt 0.129360 0.245028
vt 0.275543 0.201398
vt 0.222482 0.165297
vt 0.844992 0.415742
vt 0.909662 0.415742
vt 0.909662 0.520051
vt 0.844992 0.520051
vt 0.222482 0.165297
vt 0.275440 0.201280
vt 0.129360 0.245028
vt 0.129360 0.165298
vt 0.624719 0.583375
vt 0.624719 0.632195
vt 0.655219 0.527331
vt 0.692850 0.632195
vt 0.692850 0.527331
vt 0.686774 0.520051
vt 0.686774 0.474148
vt 0.774873 0.415742
vt 0.774873 0.520051
vt 0.840678 0.520051
vt 0.840678 0.415742
vt 0.372192 0.195562
vt 0.389702 0.241316
vt 0.373763 0.285391
vt 0.356332 0.264737
vt 0.342130 0.330753
vt 0.344894 0.216812
vt 0.366989 0.162633
vt 0.335288 0.168763
vt 0.301496 0.177329
vt 0.330274 0.285217
vt 0.302007 0.307434
vt 0.314076 0.225248
vt 0.274804 0.215425
vt 0.289954 0.263698
vt 0.270179 0.296077
vt 0.251376 0.253410
vt 0.374600 0.360908
vt 0.466230 0.482236
vt 0.450427 0.711125
vt 0.336440 0.493029
vt 0.230699 0.282072
vt 0.342371 0.711914
vt 0.463153 0.853492
vt 0.354381 0.925738
vt 0.233492 0.493029
vt 0.121032 0.493029
vt 0.234398 0.772623
vt 0.236600 0.994937
vt 0.115339 0.929107
vt 0.121186 0.697664
vt 0.027603 0.632912
vt 0.004808 0.853840
vt 0.994390 0.856959
vt 0.994390 0.991360
vt 0.971232 0.991360
vt 0.971232 0.856959
vt 0.971232 0.694326
vt 0.994390 0.694326
vt 0.971232 0.856959
vt 0.828888 0.856959
vt 0.971232 0.856959
vt 0.828888 0.991360
vt 0.828888 0.694326
vt 0.732564 0.991360
vt 0.732564 0.694326
vt 0.732564 0.856959
vt 0.638092 0.856959
vt 0.638092 0.991360
vt 0.638092 0.694326
vt 0.510815 0.991360
vt 0.510815 0.694326
vt 0.510815 0.856959
vt 0.766034 0.632195
vt 0.766034 0.583375
vt 0.735206 0.583375
vt 0.735206 0.527331
vt 0.697636 0.632195
vt 0.697636 0.527331
vt 0.996282 0.527805
vt 0.940312 0.527805
vt 0.940312 0.584002
vt 0.996282 0.632657
vt 0.884405 0.527805
vt 0.884405 0.632657
vt 0.881111 0.631953
vt 0.825141 0.583128
vt 0.769233 0.631953
vt 0.769233 0.526881
vt 0.881111 0.526881
vt 0.825141 0.526881
vt 0.996282 0.527805
vt 0.940312 0.527805
vt 0.940312 0.584002
vt 0.996282 0.632657
vt 0.884405 0.527805
vt 0.884405 0.632657
vt 0.825141 0.583128
vt 0.769233 0.526881
vt 0.769233 0.631953
vt 0.881111 0.631953
vt 0.825141 0.526881
vt 0.881111 0.526881
vn 0.649902 0.626013 0.43096899999999994
vn 0.314799 0.38928900000000005 0.865653
vn 0.672717 0.725153 -0.14698700000000006
vn 0.655174 0.742922 -0.13716200000000006
vn 0.649902 0.626013 0.43096899999999994
vn -0.272223 0.961852 0.027132999999999942
vn 0.427289 0.623505 0.654725
vn 0.427289 0.623505 0.654725
vn 0.649902 0.626013 0.43096899999999994
vn -0.272223 0.961852 0.027132999999999942
vn -0.711539 0.687508 -0.14506900000000006
vn -0.416275 0.39736200000000005 0.817813
vn -0.416275 0.39736200000000005 0.817813
vn 0.427289 0.623505 0.654725
vn -0.749677 -0.21501299999999998 0.625903
vn -0.246584 0.04731800000000006 0.967966
vn -0.749744 0.658921 0.06088899999999996
vn -0.948651 -0.17726599999999998 0.26199
vn -0.749677 -0.21501299999999998 0.625903
vn 0.059139 -0.994292 0.08879900000000006
vn 0.042992 -0.99801 0.046120000000000064
vn 0.059139 -0.994292 0.08879900000000006
vn 0.075163 -0.98849 0.13129200000000005
vn 0.961994 -0.012139000000000018 -0.272802
vn 0.999186 0.039003 0.010292999999999998
vn 0.961994 -0.012139000000000018 -0.272802
vn 0.843858 -0.06226000000000004 -0.532942
vn -0.311803 -0.944488 0.10354200000000005
vn -0.325709 -0.938327 0.11600000000000006
vn -0.311803 -0.944488 0.10354200000000005
vn -0.297776 -0.950285 0.09104300000000005
vn -0.989321 0.003706000000000009 0.145708
vn -0.953036 -0.06627199999999998 0.295518
vn -0.989321 0.003706000000000009 0.145708
vn -0.997255 0.073578 -0.008277000000000005
vn -0.933824 -0.341276 0.10725500000000003
vn -0.948886 -0.277944 0.14953900000000003
vn -0.969963 -0.207737 0.126557
vn -0.980984 -0.139137 0.135322
vn -0.994853 -0.064077 0.078497
vn -0.072415 0.993153 -0.09167100000000006
vn -0.093992 0.994204 -0.05218700000000006
vn 0.121621 0.987538 -0.09988100000000005
vn 0.126965 0.983835 -0.12628800000000007
vn 0.310904 0.944699 -0.10431900000000005
vn 0.321113 0.942659 -0.09099500000000006
vn -0.787406 0.30015099999999995 -0.538425
vn -0.978184 0.204058 -0.038945000000000014
vn -0.990268 0.133765 -0.038415000000000005
vn -0.760924 0.35731999999999997 -0.541587
vn -0.610328 0.4304239999999999 -0.665008
vn -0.533661 0.24471299999999996 -0.809519
vn -0.250285 0.17476499999999995 -0.952268
vn -0.503947 0.03146899999999994 -0.863161
vn -0.460005 0.25108099999999994 -0.851677
vn -0.47431 0.607859 -0.636818
vn -0.23806 0.835471 -0.49529300000000004
vn -0.41123 0.510037 -0.755481
vn 0.001545 0.44744899999999993 -0.894308
vn -0.215041 0.754532 -0.620031
vn -0.080504 0.951191 -0.29791800000000007
vn -0.093927 0.676423 -0.730499
vn 0.990268 -0.133765 0.038415000000000005
vn 0.978184 -0.204058 0.038945000000000014
vn 0.787406 -0.30015099999999995 0.538425
vn 0.760924 -0.35731999999999997 0.541587
vn 0.610328 -0.4304239999999999 0.665008
vn 0.495092 -0.28715899999999994 0.820014
vn 0.250285 -0.17476499999999995 0.952268
vn 0.544588 -0.05265299999999995 0.837049
vn 0.47431 -0.607859 0.636818
vn 0.23806 -0.835471 0.49529300000000004
vn 0.463363 -0.40660999999999997 0.787377
vn 0.382218 -0.39722699999999994 0.834338
vn -0.001545 -0.44744899999999993 0.894308
vn 0.215041 -0.754532 0.620031
vn 0.080504 -0.951191 0.29791800000000007
vn 0.093927 -0.676423 0.730499
vn -0.563095 -0.820339 0.09984100000000005
vn -0.607556 -0.793344 -0.03847999999999995
vn -0.494183 -0.542894 0.679006
vn -0.455741 -0.514762 0.726168
vn -0.749677 -0.21501299999999998 0.625903
vn -0.948651 -0.17726599999999998 0.26199
vn -0.455741 -0.514762 0.726168
vn -0.213818 -0.10679499999999995 0.971018
vn -0.455741 -0.514762 0.726168
vn -0.340918 -0.19916799999999996 0.918753
vn -0.246584 0.04731800000000006 0.967966
vn -0.244329 0.24999600000000005 0.936913
vn 0.023765 -0.015760999999999938 0.999593
vn -0.287823 0.30172400000000005 0.908912
vn 0.112476 0.12127000000000006 0.986227
vn 0.147819 0.33914700000000003 0.929047
vn -0.416275 0.39736200000000005 0.817813
vn 0.314799 0.38928900000000005 0.865653
vn 0.427289 0.623505 0.654725
vn 0.649902 0.626013 0.43096899999999994
vn 0.836098 0.396236 -0.379391
vn 0.825205 0.563067 0.044634999999999966
vn 0.954841 0.283181 -0.08993100000000001
vn 0.920408 0.334712 0.20203199999999996
vn 0.932895 0.03445999999999998 -0.358496
vn 0.998776 0.007125000000000003 0.04894
vn -0.97394 0.226804 -0.0009260000000000138
vn -0.992891 0.04716399999999999 -0.109289
vn -0.988208 0.043460000000000006 0.146823
vn -0.898072 0.16477000000000003 0.407821
vn -0.990609 -0.136578 0.0063240000000000084
vn -0.898242 -0.09317099999999998 0.429512
vn 0.893671 0.09825599999999997 -0.437833
vn 0.988965 -0.04296900000000001 -0.141783
vn 0.893113 -0.17050200000000001 -0.416266
vn 0.973191 -0.229707 0.011559000000000014
vn 0.99002 0.140887 0.0032929999999999912
vn 0.990542 -0.04496499999999999 0.129636
vn -0.146107 0.989264 -0.0029500000000000606
vn -0.419852 0.898554 -0.12776900000000005
vn -0.427133 0.893695 0.13735299999999995
vn -0.221717 0.892324 0.39319199999999993
vn -0.678821 0.73427 -0.007023000000000045
vn -0.557594 0.71768 0.4171619999999999
vn 0.427792 -0.894177 -0.13206799999999994
vn 0.141479 -0.989852 0.013339000000000061
vn 0.214211 -0.891169 -0.39991499999999996
vn 0.560396 -0.711692 -0.42361699999999997
vn 0.420458 -0.895299 0.14715700000000007
vn 0.682932 -0.730313 0.015723000000000046
g 01
f 1/1/1 2/2/2 3/3/3
f 3/3/3 4/4/4 5/5/5
f 4/4/4 6/6/6 7/7/7
f 8/8/8 9/9/9 4/4/4
f 10/10/10 11/11/11 12/12/12
f 13/13/13 14/14/14 10/10/10
f 15/15/15 16/16/16 17/17/17
f 17/17/17 18/18/18 19/19/19
f 20/20/20 21/21/21 22/22/22
f 22/22/22 23/23/23 20/20/20
f 24/24/24 25/25/25 26/26/26
f 26/26/26 27/27/27 24/24/24
f 28/28/28 29/29/29 30/30/30
f 30/30/30 31/31/31 28/28/28
f 32/32/32 33/33/33 34/34/34
f 34/34/34 35/35/35 32/32/32
f 36/36/36 37/37/37 38/38/38
f 37/37/37 39/39/39 38/38/38
f 39/39/39 40/40/40 38/38/38
f 41/41/41 42/42/42 43/43/43
f 43/43/43 44/44/44 41/41/41
f 45/45/45 44/44/44 43/43/43
f 43/43/43 46/46/46 45/45/45
f 47/47/47 48/48/48 49/49/49
f 49/49/49 50/50/50 47/47/47
f 50/50/50 49/49/49 51/51/51
f 52/52/52 47/47/47 50/50/50
f 53/53/53 47/47/47 52/52/52
f 52/52/52 54/54/54 53/53/53
f 55/55/55 54/54/54 52/52/52
f 56/56/56 50/50/50 51/51/51
f 52/52/52 50/50/50 56/56/56
f 51/51/51 57/57/57 56/56/56
f 52/52/52 58/58/58 55/55/55
f 56/56/56 58/58/58 52/52/52
f 59/59/59 55/55/55 58/58/58
f 56/56/56 57/57/57 60/60/60
f 60/60/60 58/58/58 56/56/56
f 58/58/58 60/60/60 59/59/59
f 60/60/60 57/57/57 61/61/61
f 62/62/62 59/59/59 60/60/60
f 60/60/60 61/61/61 62/62/62
f 63/63/63 64/64/64 65/65/65
f 65/65/65 66/66/66 63/63/63
f 63/63/63 66/66/66 67/67/67
f 65/65/65 68/68/68 66/66/66
f 68/68/68 65/65/65 69/69/69
f 69/69/69 70/70/70 68/68/68
f 66/66/66 71/71/71 67/67/67
f 71/71/71 66/66/66 68/68/68
f 72/72/72 67/67/67 71/71/71
f 73/73/73 68/68/68 70/70/70
f 68/68/68 73/73/73 71/71/71
f 70/70/70 74/74/74 73/73/73
f 73/73/73 74/74/74 75/75/75
f 76/76/76 72/72/72 71/71/71
f 71/71/71 73/73/73 76/76/76
f 75/75/75 76/76/76 73/73/73
f 72/72/72 76/76/76 77/77/77
f 76/76/76 75/75/75 78/78/78
f 78/78/78 77/77/77 76/76/76
f 79/79/79 80/80/80 81/81/81
f 81/81/81 82/82/82 79/79/79
f 83/83/83 84/84/84 79/79/79
f 79/79/79 85/85/85 83/83/83
f 86/86/86 87/87/87 81/81/81
f 83/83/83 87/87/87 86/86/86
f 81/81/81 88/88/88 86/86/86
f 86/86/86 89/89/89 83/83/83
f 86/86/86 88/88/88 90/90/90
f 91/91/91 89/89/89 86/86/86
f 90/90/90 92/92/92 86/86/86
f 86/86/86 92/92/92 91/91/91
f 93/93/93 92/92/92 90/90/90
f 91/91/91 92/92/92 93/93/93
f 90/90/90 94/94/94 93/93/93
f 93/93/93 95/95/95 91/91/91
f 93/93/93 94/94/94 96/96/96
f 97/97/97 95/95/95 93/93/93
f 96/96/96 98/98/98 93/93/93
f 93/93/93 98/98/98 97/97/97
f 99/99/99 100/100/100 101/101/101
f 100/100/100 102/102/102 101/101/101
f 99/99/99 101/101/101 103/103/103
f 101/101/101 102/102/102 104/104/104
f 103/103/103 101/101/101 104/104/104
f 105/105/105 106/106/106 107/107/107
f 105/105/105 107/107/107 108/108/108
f 107/107/107 106/106/106 109/109/109
f 108/108/108 107/107/107 110/110/110
f 110/110/110 107/107/107 109/109/109
f 111/111/111 112/112/112 113/113/113
f 113/113/113 112/112/112 114/114/114
f 115/115/115 112/112/112 111/111/111
f 112/112/112 116/116/116 114/114/114
f 115/115/115 116/116/116 112/112/112
f 117/117/117 118/118/118 119/119/119
f 117/117/117 119/119/119 120/120/120
f 118/118/118 121/121/121 119/119/119
f 120/120/120 119/119/119 122/122/122
f 121/121/121 122/122/122 119/119/119
f 123/123/123 124/124/124 125/125/125
f 126/126/126 123/123/123 125/125/125
f 123/123/123 127/127/127 124/124/124
f 126/126/126 128/128/128 123/123/123
f 128/128/128 127/127/127 123/123/123
