v 0.033046 -0.0006980000000000005 -0.006688
v 0.071808 0.014522000000000007 0.10107
v 0.076907 0.076143 0.025449999999999997
v -0.114783 -0.772514 0.08320900000000005
v 0.090152 -1.165256 0.3077540000000001
v 0.336329 -1.036799 0.3077540000000001
v 0.131394 -0.644058 0.08320900000000005
v -0.139725 -0.541444 0.13455100000000003
v 0.180248 -0.999816 0.4179010000000001
v 0.452447 -0.809803 0.4179010000000001
v 0.132474 -0.351431 0.13455100000000003
v -0.183479 -0.682186 0.07620200000000005
v -0.430395 -1.183703 0.35955200000000004
v -0.132575 -1.330332 0.35955200000000004
v 0.114342 -0.828815 0.07620200000000006
v -0.080353 -1.1316 0.11785700000000007
v 0.279479 -1.589185 0.3500430000000001
v 0.543176 -1.387895 0.3380750000000001
v 0.183344 -0.930309 0.10588900000000005
v -0.035892 -1.228636 0.11915800000000007
v -0.197943 -1.799981 0.3193560000000001
v 0.119763 -1.895132 0.3049710000000001
v 0.281813 -1.323787 0.10477400000000009
v 0.043675 -1.544024 0.1412430000000001
v 0.235568 -2.138358 0.19337900000000013
v 0.551136 -2.035706 0.2020930000000001
v 0.359244 -1.441371 0.1499570000000001
v 0.007881 0.007399000000000009 0.137839
v 0.071808 0.014522000000000007 0.10107
v 0.033046 -0.0006980000000000005 -0.006688
v -0.030442 -0.007780999999999998 0.029738
v -0.043025 -0.003731999999999994 0.102002
v 0.018974 -0.801457 0.023888000000000048
v 0.332883 -1.904675 0.1815530000000001
v 0.327888 -1.90557 0.1780370000000001
v -0.010828 -0.806798 0.0029070000000000493
v 0.327888 -1.90557 0.1780370000000001
v 0.320425 -1.905814 0.18870100000000012
v -0.047996 -0.810196 0.02423300000000005
v -0.034221 -0.366894 0.07512700000000003
v 0.012037 -0.362665 0.04858600000000002
v -0.030442 -0.007780999999999998 0.029738
v 0.049127 -0.356019 0.07469700000000003
v 0.033046 -0.0006980000000000005 -0.006688
v 0.076907 0.076143 0.025449999999999997
v -0.02556 -0.802913 0.08751800000000005
v 0.320425 -1.905814 0.18870100000000012
v 0.332883 -1.904675 0.1815530000000001
v 0.011608 -0.799515 0.06619300000000006
v 0.018974 -0.801457 0.023888000000000048
v 0.049127 -0.356019 0.07469700000000003
v 0.040178 -0.353585 0.12717800000000004
v 0.076907 0.076143 0.025449999999999997
v 0.071808 0.014522000000000007 0.10107
v 0.007881 0.007399000000000009 0.137839
v -0.006298 -0.35783 0.15388900000000003
v -0.043025 -0.003731999999999994 0.102002
v -0.043388 -0.364477 0.12777800000000003
v -0.030442 -0.007780999999999998 0.029738
v -0.034221 -0.366894 0.07512700000000003
v -0.055362 -0.808253 0.06653800000000006
v 0.320425 -1.905814 0.18870100000000012
v -0.047996 -0.810196 0.02423300000000005
vt 0.120826 0.956616
vt 0.210151 0.963556
vt 0.164703 0.994814
vt 0.233716 0.979566
vt 0.233716 0.404853
vt 0.481481 0.404853
vt 0.481481 0.979566
vt 0.233716 0.979566
vt 0.233716 0.404853
vt 0.481481 0.404853
vt 0.481481 0.979566
vt 0.233716 0.979566
vt 0.233716 0.404853
vt 0.481481 0.404853
vt 0.481481 0.979566
vt 0.233716 0.979566
vt 0.233716 0.404853
vt 0.481481 0.404853
vt 0.481481 0.979566
vt 0.233716 0.979566
vt 0.233716 0.404853
vt 0.481481 0.404853
vt 0.481481 0.979566
vt 0.233716 0.979566
vt 0.233716 0.404853
vt 0.481481 0.404853
vt 0.481481 0.979566
vt 0.214063 0.917948
vt 0.210151 0.963556
vt 0.120826 0.956616
vt 0.124648 0.911335
vt 0.171267 0.892001
vt 0.052960 0.419367
vt 0.074490 0.006588
vt 0.092858 0.008786
vt 0.101719 0.421598
vt 0.092858 0.008786
vt 0.113210 0.008765
vt 0.147667 0.417171
vt 0.152337 0.628915
vt 0.102118 0.626780
vt 0.163036 0.840450
vt 0.037980 0.626730
vt 0.089287 0.843349
vt 0.024488 0.842240
vt 0.098256 0.425210
vt 0.072725 0.005547
vt 0.111738 0.011669
vt 0.136947 0.424136
vt 0.181337 0.419429
vt 0.183766 0.630741
vt 0.140270 0.629114
vt 0.187165 0.836639
vt 0.144038 0.838826
vt 0.098818 0.840043
vt 0.093907 0.629523
vt 0.052033 0.841164
vt 0.050102 0.633416
vt 0.005226 0.843675
vt 0.005906 0.632082
vt 0.055693 0.424171
vt 0.072725 0.005547
vt 0.012750 0.422057
vn -0.881285 0.393709 0.261401
vn -0.881285 0.393709 0.261401
vn -0.881285 0.393709 0.261401
vn -0.209155 0.4008300000000001 0.891958
vn -0.209155 0.4008300000000001 0.891958
vn -0.209155 0.4008300000000001 0.891958
vn -0.209155 0.4008300000000001 0.891958
vn -0.258791 0.37072600000000006 0.891958
vn -0.258791 0.37072600000000006 0.891958
vn -0.258791 0.37072600000000006 0.891958
vn -0.258791 0.37072600000000006 0.891958
vn 0.199704 0.40562200000000004 0.891958
vn 0.199704 0.40562200000000004 0.891958
vn 0.199704 0.40562200000000004 0.891958
vn 0.199704 0.40562200000000004 0.891958
vn -0.198326 0.3149950000000001 0.928141
vn -0.198326 0.3149950000000001 0.928141
vn -0.198326 0.3149950000000001 0.928141
vn -0.198326 0.3149950000000001 0.928141
vn 0.131065 0.29451700000000003 0.946616
vn 0.131065 0.29451700000000003 0.946616
vn 0.131065 0.29451700000000003 0.946616
vn 0.131065 0.29451700000000003 0.946616
vn -0.050618 0.07104300000000005 0.996188
vn -0.050618 0.07104300000000005 0.996188
vn -0.050618 0.07104300000000005 0.996188
vn -0.050618 0.07104300000000005 0.996188
vn -0.157111 0.98413 -0.08249300000000005
vn -0.157113 0.984129 -0.08249200000000005
vn -0.157113 0.984129 -0.08249200000000005
vn -0.157111 0.98413 -0.08249300000000005
vn -0.157111 0.98413 -0.08249300000000005
vn 0.838337 0.08129999999999997 -0.539056
vn 0.862148 0.283506 0.419911
vn 0.087524 -0.13042700000000004 -0.987587
vn -0.272431 -0.06470800000000006 -0.959997
vn 0.087524 -0.13042700000000004 -0.987587
vn -0.937979 -0.346692 0.0005280000000000213
vn -0.811443 -0.12745500000000004 -0.570364
vn -0.819696 0.03922499999999997 -0.571454
vn 0.000895 -0.028628000000000063 -0.99959
vn -0.815415 -0.06405500000000004 -0.575323
vn 0.948515 -0.08532500000000001 -0.305024
vn 0.282625 -0.15260700000000005 -0.947013
vn 0.982643 -0.08960900000000001 -0.162429
vn -0.001123 0.01029600000000006 0.999946
vn -0.937979 -0.346692 0.0005280000000000213
vn 0.862148 0.283506 0.419911
vn 0.820385 0.008918000000000035 0.571743
vn 0.838337 0.08129999999999997 -0.539056
vn 0.948515 -0.08532500000000001 -0.305024
vn 0.832584 -0.060889999999999965 0.550542
vn 0.982643 -0.08960900000000001 -0.162429
vn 0.859579 -0.03771699999999997 0.50961
vn 0.198891 0.035318000000000065 0.979385
vn 0.00364 -0.056002999999999935 0.998424
vn -0.851141 0.03818000000000003 0.523547
vn -0.940517 -0.01928499999999998 0.339199
vn -0.815415 -0.06405500000000004 -0.575323
vn -0.819696 0.03922499999999997 -0.571454
vn -0.967793 -0.10143799999999999 0.230405
vn -0.937979 -0.346692 0.0005280000000000213
vn -0.811443 -0.12745500000000004 -0.570364
g trunk
f 1/1/1 2/2/2 3/3/3
f 4/4/4 5/5/5 6/6/6
f 6/6/6 7/7/7 4/4/4
f 8/8/8 9/9/9 10/10/10
f 10/10/10 11/11/11 8/8/8
f 12/12/12 13/13/13 14/14/14
f 14/14/14 15/15/15 12/12/12
f 16/16/16 17/17/17 18/18/18
f 18/18/18 19/19/19 16/16/16
f 20/20/20 21/21/21 22/22/22
f 22/22/22 23/23/23 20/20/20
f 24/24/24 25/25/25 26/26/26
f 26/26/26 27/27/27 24/24/24
f 28/28/28 29/29/29 30/30/30
f 28/28/28 30/30/30 31/31/31
f 32/32/32 28/28/28 31/31/31
f 33/33/33 34/34/34 35/35/35
f 35/35/35 36/36/36 33/33/33
f 36/36/36 37/37/37 38/38/38
f 38/38/38 39/39/39 36/36/36
f 36/36/36 39/39/39 40/40/40
f 33/33/33 36/36/36 41/41/41
f 40/40/40 41/41/41 36/36/36
f 41/41/41 40/40/40 42/42/42
f 41/41/41 43/43/43 33/33/33
f 42/42/42 44/44/44 41/41/41
f 43/43/43 41/41/41 44/44/44
f 44/44/44 45/45/45 43/43/43
f 46/46/46 47/47/47 48/48/48
f 48/48/48 49/49/49 46/46/46
f 48/48/48 50/50/50 49/49/49
f 49/49/49 50/50/50 51/51/51
f 51/51/51 52/52/52 49/49/49
f 52/52/52 51/51/51 53/53/53
f 53/53/53 54/54/54 52/52/52
f 52/52/52 54/54/54 55/55/55
f 49/49/49 52/52/52 56/56/56
f 55/55/55 56/56/56 52/52/52
f 56/56/56 46/46/46 49/49/49
f 56/56/56 55/55/55 57/57/57
f 57/57/57 58/58/58 56/56/56
f 46/46/46 56/56/56 58/58/58
f 58/58/58 57/57/57 59/59/59
f 59/59/59 60/60/60 58/58/58
f 58/58/58 61/61/61 46/46/46
f 61/61/61 58/58/58 60/60/60
f 62/62/62 46/46/46 61/61/61
f 60/60/60 63/63/63 61/61/61
f 62/62/62 61/61/61 63/63/63
