v 0.009945 0.91407 0.14679699999999996
v 0.028827 1.002716 0.09364199999999995
v -0.010287 0.976345 0.05541699999999994
v -0.058132 0.942042 0.07372999999999995
v 0.009945 0.91407 0.14679699999999996
v -0.010287 0.976345 0.05541699999999994
v -0.058132 0.942042 0.07372999999999995
v -0.070852 0.950398 0.13095099999999996
v 0.009945 0.91407 0.14679699999999996
v -0.023403 0.935298 0.16743799999999995
v 0.009945 0.91407 0.14679699999999996
v -0.070852 0.950398 0.13095099999999996
v -0.024339 0.043654 0.046954
v 0.151613 -1.317349 0.0027790000000000805
v 0.148108 -1.319821 0.02291100000000008
v -0.032361 0.041224000000000004 0.08691
v -0.024339 0.043654 0.046954
v -0.070852 0.950398 0.13095099999999996
v -0.058132 0.942042 0.07372999999999995
v -0.058132 0.942042 0.07372999999999995
v -0.024339 0.043654 0.046954
v 0.182683 -1.280558 0.038124000000000074
v 0.129514 -1.284465 0.011925000000000078
v -0.090502 -1.035862 0.25933500000000004
v 0.079595 -1.023398 0.34397900000000003
v 0.019221 0.072221 0.05871599999999999
v -0.025022 0.066422 0.097683
v 0.11148 0.347322 0.375311
v 0.254335 0.366048 0.24940899999999996
v 0.012889 0.30278 0.10468799999999999
v -0.03886 0.296772 0.07637199999999998
v -0.253097 0.573118 0.30234199999999994
v -0.086095 0.592488 0.39345699999999995
v 0.000698 0.208419 0.05076999999999999
v -0.017745 0.20433 0.10690299999999998
v 0.233002 0.500579 0.27491999999999994
v 0.293733 0.513899 0.09355599999999997
v 0.182683 -1.280558 0.038124000000000074
v 0.079595 -1.023397 0.34397900000000003
v -0.090502 -1.035862 0.25933500000000004
v 0.129514 -1.284465 0.011925000000000078
v 0.019221 0.072221 0.05871599999999999
v 0.254335 0.366048 0.24940899999999996
v 0.11148 0.347322 0.375311
v -0.025022 0.066422 0.097683
v 0.012889 0.30278 0.10468799999999999
v -0.086095 0.592488 0.39345699999999995
v -0.253097 0.573118 0.30234199999999994
v -0.03886 0.296772 0.07637199999999998
v 0.000698 0.208419 0.05076999999999999
v 0.293733 0.513899 0.09355599999999997
v 0.233002 0.500579 0.27491999999999994
v -0.017745 0.20433 0.10690299999999998
v 0.11005 -1.130792 0.24533900000000006
v 0.220568 -1.119834 0.23211800000000005
v 0.243691 -1.228337 0.11370700000000007
v 0.087868 -1.243788 0.1323370000000001
v 0.195973 -1.41363 -0.0043279999999999135
v 0.153419 -1.417848 0.0007290000000000869
v 0.002734 -0.837951 0.35170300000000004
v 0.216874 -0.817394 0.35391700000000004
v 0.281196 -1.006904 0.15952000000000005
v -0.021118 -1.035923 0.15640600000000004
v 0.212405 -1.33077 -0.032858999999999916
v 0.129439 -1.338731 -0.03369499999999992
v 0.39132 -0.837729 0.3409400000000001
v 0.501614 -0.819722 0.15910100000000005
v 0.362322 -0.997159 -0.0007429999999999389
v 0.198425 -1.023328 0.25544500000000003
v 0.144701 -1.308203 -0.04084199999999992
v 0.100407 -1.315288 0.02871500000000008
v 0.27577 -0.57916 0.46989000000000003
v 0.458078 -0.555491 0.31469500000000006
v 0.360391 -0.783172 0.08460500000000004
v 0.10015 -0.816838 0.30327000000000004
v 0.139217 -1.096966 -0.04177499999999993
v 0.067424 -1.106213 0.01758900000000007
v -0.23295 -0.558758 0.28913300000000003
v -0.019042 -0.520345 0.39629200000000003
v 0.166838 -0.835617 0.24860600000000005
v -0.133426 -0.889638 0.09759500000000006
v 0.209189 -1.177533 0.023848000000000074
v 0.126965 -1.192266 -0.017140999999999927
v -0.289728 -0.388495 0.289306
v -0.056961 -0.3674 0.425342
v 0.122013 -0.614364 0.26422900000000005
v -0.206798 -0.643976 0.07293400000000004
v 0.138055 -0.944678 0.013250000000000057
v 0.049277 -0.952784 -0.038917999999999946
v 0.014361 -0.288311 0.402781
v 0.278721 -0.284874 0.358536
v 0.306161 -0.574294 0.17055200000000004
v -0.067943 -0.579276 0.23286200000000004
v 0.154039 -0.931004 0.034151000000000056
v 0.050775 -0.932506 0.05103300000000006
v 0.172139 -0.020189999999999972 0.446835
v 0.490521 -0.052445999999999986 0.280058
v 0.388783 -0.344823 0.09757500000000002
v 0.025173 -0.308202 0.287504
v 0.151012 -0.696732 0.024702000000000043
v 0.052368 -0.686772 0.07628900000000004
v -0.27551 -0.003814999999999978 0.355723
v 0.074526 0.055546000000000026 0.408447
v 0.161916 -0.21345099999999997 0.230013
v -0.237464 -0.281149 0.16992400000000002
v 0.097956 -0.584281 0.05255300000000004
v -0.010856 -0.602695 0.036254000000000036
v -0.098533 0.16098400000000002 0.324571
v 0.225429 0.17819900000000002 0.297807
v 0.23699 -0.048956999999999994 0.15635
v -0.132842 -0.06861999999999999 0.186893
v 0.101561 -0.337625 0.07695500000000001
v 0.000988 -0.342975 0.08525800000000003
v -0.417708 0.275584 -0.07666100000000002
v -0.27226 0.42582 0.17434799999999998
v -0.075786 0.254534 0.18516099999999996
v -0.247379 0.083219 -0.100898
v 0.024772 -0.04322399999999999 0.119808
v -0.020193 -0.08973 0.042135000000000006
v 0.027058 0.04628600000000001 0.0996
v 0.183845 -1.323087 0.02891700000000008
v 0.187505 -1.32061 0.008843000000000082
v 0.040451 0.049224000000000004 0.05958
v 0.009945 0.91407 0.14679699999999996
v 0.028827 1.002716 0.09364199999999995
v 0.243691 -1.228337 0.11370700000000007
v 0.220568 -1.119834 0.23211800000000005
v 0.11005 -1.130792 0.24533900000000006
v 0.087868 -1.243788 0.1323370000000001
v 0.195973 -1.41363 -0.0043279999999999135
v 0.153419 -1.417848 0.0007290000000000869
v 0.362322 -0.997159 -0.0007429999999999389
v 0.501614 -0.819722 0.15910100000000005
v 0.39132 -0.837729 0.3409400000000001
v 0.198425 -1.023328 0.25544500000000003
v 0.144701 -1.308202 -0.04084199999999992
v 0.100407 -1.315288 0.02871500000000008
v 0.281196 -1.006904 0.15952000000000005
v 0.216874 -0.817394 0.35391700000000004
v 0.002734 -0.83795 0.35170300000000004
v -0.021118 -1.035923 0.15640600000000004
v 0.212405 -1.330769 -0.032858999999999916
v 0.129439 -1.338731 -0.03369499999999992
v 0.360391 -0.783171 0.08460500000000004
v 0.458078 -0.555491 0.31469500000000006
v 0.27577 -0.579159 0.46989000000000003
v 0.10015 -0.816837 0.30327000000000004
v 0.139216 -1.096966 -0.04177499999999993
v 0.067424 -1.106213 0.01758900000000007
v 0.166838 -0.835617 0.24860600000000005
v -0.019042 -0.520345 0.39629200000000003
v -0.23295 -0.558758 0.28913300000000003
v -0.133426 -0.889637 0.09759500000000006
v 0.209188 -1.177533 0.023848000000000074
v 0.126965 -1.192265 -0.017140999999999927
v 0.306161 -0.574294 0.17055200000000004
v 0.278721 -0.284874 0.358536
v 0.014361 -0.288311 0.402781
v -0.067943 -0.579276 0.23286200000000004
v 0.154039 -0.931004 0.034151000000000056
v 0.050775 -0.932506 0.05103300000000006
v 0.122013 -0.614364 0.26422900000000005
v -0.056961 -0.3674 0.425342
v -0.289728 -0.388495 0.289306
v -0.206798 -0.643976 0.07293400000000004
v 0.138055 -0.944678 0.013250000000000057
v 0.049277 -0.952784 -0.038917999999999946
v 0.161916 -0.21345099999999997 0.230013
v 0.074526 0.055546000000000026 0.408447
v -0.27551 -0.003814999999999978 0.355723
v -0.237464 -0.281149 0.16992400000000002
v 0.097956 -0.584281 0.05255300000000004
v -0.010856 -0.602695 0.036254000000000036
v 0.388783 -0.344823 0.09757500000000002
v 0.490521 -0.052445999999999986 0.280058
v 0.172139 -0.020189999999999972 0.446835
v 0.025173 -0.308202 0.287504
v 0.151012 -0.696732 0.024702000000000043
v 0.052368 -0.686772 0.07628900000000004
v 0.23699 -0.048956999999999994 0.15635
v 0.225429 0.17819900000000002 0.297807
v -0.098533 0.16098400000000002 0.324571
v -0.132842 -0.06861999999999999 0.186893
v 0.101561 -0.337625 0.07695500000000001
v 0.000988 -0.342975 0.08525800000000003
v -0.075786 0.254534 0.18516099999999996
v -0.27226 0.42582 0.17434799999999998
v -0.417708 0.275584 -0.07666100000000002
v -0.247379 0.083219 -0.100898
v 0.024772 -0.04322399999999999 0.119808
v -0.020193 -0.08973 0.042135000000000006
v 0.011534 0.047598 0.033435
v 0.17141 -1.317739 -0.00424399999999992
v 0.151613 -1.317349 0.0027790000000000805
v -0.024339 0.043654 0.046954
v -0.058132 0.942042 0.07372999999999995
v -0.010287 0.976345 0.05541699999999994
v 0.040451 0.049224000000000004 0.05958
v 0.187505 -1.32061 0.008843000000000082
v 0.17141 -1.317739 -0.00424399999999992
v 0.011534 0.047598 0.033435
v -0.010287 0.976345 0.05541699999999994
v 0.028827 1.002716 0.09364199999999995
v -0.032361 0.041224000000000004 0.08691
v 0.148108 -1.319821 0.02291100000000008
v 0.164202 -1.322694 0.03596100000000008
v -0.023403 0.935298 0.16743799999999995
v -0.070852 0.950398 0.13095099999999996
v 0.000519 0.04321400000000001 0.113267
v 0.183845 -1.323087 0.02891700000000008
v 0.009945 0.91407 0.14679699999999996
v 0.027058 0.04628600000000001 0.0996
vt 0.841344 0.900591
vt 0.885044 0.949630
vt 0.857238 0.988222
vt 0.805088 0.982236
vt 0.841344 0.900591
vt 0.857238 0.988222
vt 0.805088 0.982236
vt 0.779310 0.940220
vt 0.841344 0.900591
vt 0.809157 0.895607
vt 0.841344 0.900591
vt 0.779310 0.940220
vt 0.839973 0.717635
vt 0.842902 0.873355
vt 0.867897 0.878695
vt 0.869875 0.723706
vt 0.839973 0.717635
vt 0.871564 0.591358
vt 0.837497 0.586028
vt 0.837497 0.586028
vt 0.839973 0.717635
vt 0.559712 0.988693
vt 0.728772 0.983518
vt 0.775489 0.415849
vt 0.515255 0.415855
vt 0.560361 0.988693
vt 0.729611 0.983535
vt 0.775489 0.415849
vt 0.517126 0.417720
vt 0.560361 0.988693
vt 0.729611 0.983535
vt 0.775489 0.415849
vt 0.517126 0.417720
vt 0.560361 0.988693
vt 0.729611 0.983535
vt 0.775489 0.415849
vt 0.517126 0.417720
vt 0.559712 0.988693
vt 0.515255 0.415855
vt 0.775489 0.415849
vt 0.728772 0.983518
vt 0.560361 0.988693
vt 0.517126 0.417720
vt 0.775489 0.415849
vt 0.729611 0.983535
vt 0.560361 0.988693
vt 0.517126 0.417720
vt 0.775489 0.415849
vt 0.729611 0.983535
vt 0.560361 0.988693
vt 0.517126 0.417720
vt 0.775489 0.415849
vt 0.729611 0.983535
vt 0.777239 0.418048
vt 0.516330 0.419712
vt 0.538731 0.691623
vt 0.753748 0.693359
vt 0.562695 0.987712
vt 0.732436 0.987515
vt 0.777239 0.418048
vt 0.516330 0.419712
vt 0.538731 0.691623
vt 0.753748 0.693359
vt 0.562695 0.987712
vt 0.732436 0.987515
vt 0.777239 0.418048
vt 0.516330 0.419712
vt 0.538731 0.691623
vt 0.753748 0.693359
vt 0.562695 0.987712
vt 0.732436 0.987515
vt 0.777239 0.418048
vt 0.516330 0.419712
vt 0.538731 0.691623
vt 0.753748 0.693359
vt 0.562695 0.987712
vt 0.732436 0.987515
vt 0.777239 0.418048
vt 0.516330 0.419712
vt 0.538731 0.691623
vt 0.753748 0.693359
vt 0.562695 0.987712
vt 0.732436 0.987515
vt 0.775479 0.419381
vt 0.516148 0.413769
vt 0.539036 0.694357
vt 0.752591 0.694357
vt 0.562915 0.986169
vt 0.732454 0.988040
vt 0.777239 0.418048
vt 0.516330 0.419712
vt 0.538731 0.691623
vt 0.753748 0.693359
vt 0.562695 0.987712
vt 0.732436 0.987515
vt 0.775479 0.419381
vt 0.516148 0.413769
vt 0.539036 0.694357
vt 0.752591 0.694357
vt 0.562915 0.986169
vt 0.732454 0.988040
vt 0.775479 0.419381
vt 0.516148 0.413769
vt 0.539036 0.694357
vt 0.752591 0.694357
vt 0.562915 0.986169
vt 0.732454 0.988040
vt 0.775479 0.419381
vt 0.516148 0.413769
vt 0.539036 0.694357
vt 0.752591 0.694357
vt 0.562915 0.986169
vt 0.732454 0.988040
vt 0.775479 0.419381
vt 0.516148 0.413769
vt 0.539036 0.694357
vt 0.752591 0.694357
vt 0.562915 0.986169
vt 0.732454 0.988040
vt 0.894505 0.256017
vt 0.874218 0.068401
vt 0.808554 0.084923
vt 0.815812 0.273144
vt 0.911034 0.408880
vt 0.822226 0.439474
vt 0.538731 0.691623
vt 0.516330 0.419712
vt 0.777239 0.418048
vt 0.753748 0.693359
vt 0.562695 0.987712
vt 0.732436 0.987515
vt 0.538731 0.691623
vt 0.516330 0.419712
vt 0.777239 0.418048
vt 0.753748 0.693359
vt 0.562695 0.987712
vt 0.732436 0.987515
vt 0.538731 0.691623
vt 0.516330 0.419712
vt 0.777239 0.418048
vt 0.753748 0.693359
vt 0.562695 0.987712
vt 0.732436 0.987515
vt 0.538731 0.691623
vt 0.516330 0.419712
vt 0.777239 0.418048
vt 0.753748 0.693359
vt 0.562695 0.987712
vt 0.732436 0.987515
vt 0.538731 0.691623
vt 0.516330 0.419712
vt 0.777239 0.418048
vt 0.753748 0.693359
vt 0.562695 0.987712
vt 0.732436 0.987515
vt 0.538731 0.691623
vt 0.516330 0.419712
vt 0.777239 0.418048
vt 0.753748 0.693359
vt 0.562695 0.987712
vt 0.732436 0.987515
vt 0.539036 0.694357
vt 0.516148 0.413769
vt 0.775479 0.419381
vt 0.752591 0.694357
vt 0.562915 0.986169
vt 0.732454 0.988040
vt 0.539036 0.694357
vt 0.516148 0.413769
vt 0.775479 0.419381
vt 0.752591 0.694357
vt 0.562915 0.986169
vt 0.732454 0.988040
vt 0.539036 0.694357
vt 0.516148 0.413769
vt 0.775479 0.419381
vt 0.752591 0.694357
vt 0.562915 0.986169
vt 0.732454 0.988040
vt 0.539036 0.694357
vt 0.516148 0.413769
vt 0.775479 0.419381
vt 0.752591 0.694357
vt 0.562915 0.986169
vt 0.732454 0.988040
vt 0.539036 0.694357
vt 0.516148 0.413769
vt 0.775479 0.419381
vt 0.752591 0.694357
vt 0.562915 0.986169
vt 0.732454 0.988040
vt 0.815410 0.724986
vt 0.822308 0.879442
vt 0.842902 0.873355
vt 0.839973 0.717635
vt 0.837497 0.586028
vt 0.809431 0.591098
vt 0.971860 0.197870
vt 0.975576 0.346829
vt 0.937104 0.346384
vt 0.926013 0.197733
vt 0.916399 0.068877
vt 0.968576 0.066235
vt 0.903608 0.686069
vt 0.922631 0.499586
vt 0.957883 0.527449
vt 0.935522 0.882220
vt 0.887364 0.845310
vt 0.945709 0.720600
vt 0.993059 0.547269
vt 0.983748 0.907836
vt 0.987928 0.745954
vn -0.761144 0.44503800000000004 0.471807
vn -0.761144 0.44503800000000004 0.471807
vn -0.761144 0.44503800000000004 0.471807
vn -0.31545 0.750209 0.5811
vn -0.31545 0.750209 0.5811
vn -0.31545 0.750209 0.5811
vn 0.416284 0.908349 -0.04012200000000005
vn 0.416284 0.908349 -0.04012200000000005
vn 0.416284 0.908349 -0.04012200000000005
vn 0.434259 0.877994 -0.20135900000000007
vn 0.434259 0.877994 -0.20135900000000007
vn 0.434259 0.877994 -0.20135900000000007
vn -0.826736 -0.061653000000000034 -0.559202
vn -0.626181 -0.05590200000000005 -0.777671
vn -0.980467 -0.136459 0.141642
vn -0.905262 -0.09140599999999997 0.414905
vn -0.826736 -0.061653000000000034 -0.559202
vn -0.940645 -0.05603899999999998 0.334733
vn -0.761601 -0.00967500000000004 -0.647974
vn -0.761601 -0.00967500000000004 -0.647974
vn -0.826736 -0.061653000000000034 -0.559202
vn 0.229986 0.781306 -0.580231
vn 0.228955 0.780953 -0.581113
vn 0.229986 0.781306 -0.580231
vn 0.231016 0.781658 -0.579347
vn -0.511449 0.716853 -0.47385800000000006
vn -0.511353 0.716885 -0.47391400000000006
vn -0.511449 0.716853 -0.47385800000000006
vn -0.511546 0.716821 -0.47380200000000006
vn 0.263673 0.724801 -0.636506
vn 0.263985 0.724917 -0.636245
vn 0.263673 0.724801 -0.636506
vn 0.263361 0.724685 -0.636767
vn -0.697613 0.693317 -0.18068900000000004
vn -0.698548 0.692801 -0.17904700000000007
vn -0.697613 0.693317 -0.18068900000000004
vn -0.696675 0.69383 -0.18232900000000005
vn -0.229985 -0.781306 0.580231
vn -0.231015 -0.781658 0.579347
vn -0.229985 -0.781306 0.580231
vn -0.228954 -0.780953 0.581113
vn 0.511449 -0.716853 0.47385800000000006
vn 0.511546 -0.716821 0.47380200000000006
vn 0.511449 -0.716853 0.47385800000000006
vn 0.511353 -0.716885 0.47391400000000006
vn -0.263673 -0.724801 0.636506
vn -0.263361 -0.724685 0.636767
vn -0.263673 -0.724801 0.636506
vn -0.263985 -0.724917 0.636245
vn 0.697613 -0.693317 0.18068900000000004
vn 0.696675 -0.69383 0.18232900000000005
vn 0.697613 -0.693317 0.18068900000000004
vn 0.698548 -0.692801 0.17904700000000007
vn -0.152528 0.713649 -0.683696
vn -0.152554 0.713631 -0.683709
vn -0.153343 0.665044 -0.730891
vn -0.153247 0.613243 -0.774886
vn -0.152562 0.558804 -0.815146
vn -0.152268 0.558953 -0.815099
vn -0.060348 0.704686 -0.706949
vn -0.060336 0.704695 -0.70694
vn -0.054176 0.64617 -0.761268
vn -0.047674 0.583055 -0.811032
vn -0.040871 0.516617 -0.855241
vn -0.040956 0.516566 -0.855267
vn -0.597127 0.745136 -0.2970050000000001
vn -0.605234 0.73983 -0.2938410000000001
vn -0.64374 0.687722 -0.3356140000000001
vn -0.684119 0.626793 -0.37297700000000006
vn -0.724113 0.558055 -0.40525900000000004
vn -0.724749 0.557618 -0.40472300000000005
vn -0.504936 0.71202 -0.48792100000000005
vn -0.507358 0.710488 -0.4876420000000001
vn -0.521651 0.681177 -0.51369
vn -0.534675 0.650596 -0.539303
vn -0.549232 0.617266 -0.563318
vn -0.546345 0.618907 -0.564324
vn 0.296596 0.543257 -0.785431
vn 0.296227 0.542793 -0.785891
vn 0.29576 0.545568 -0.784144
vn 0.294438 0.547467 -0.783318
vn 0.293173 0.549335 -0.782484
vn 0.292263 0.548491 -0.783416
vn 0.327437 0.670773 -0.665469
vn 0.327728 0.671237 -0.664857
vn 0.343255 0.63922 -0.688167
vn 0.359041 0.606896 -0.709061
vn 0.374062 0.573623 -0.728721
vn 0.375046 0.574512 -0.727514
vn -0.146504 0.529187 -0.835761
vn -0.146769 0.528984 -0.835844
vn -0.149697 0.49041499999999993 -0.858536
vn -0.151739 0.45106699999999994 -0.879496
vn -0.15403 0.41053799999999996 -0.89874
vn -0.15289 0.4111969999999999 -0.898633
vn -0.33077 0.580096 -0.744366
vn -0.331184 0.579838 -0.744382
vn -0.349713 0.531495 -0.771501
vn -0.3675 0.48091399999999995 -0.796031
vn -0.384154 0.42868199999999995 -0.817715
vn -0.384341 0.4285939999999999 -0.817673
vn 0.029907 0.559213 -0.828484
vn 0.029942 0.559265 -0.828448
vn 0.041591 0.51485 -0.856271
vn 0.053048 0.46873799999999993 -0.881743
vn 0.064407 0.42149799999999993 -0.904539
vn 0.064213 0.4213199999999999 -0.904636
vn -1 0 0
vn 1 0 0
vn -0.097274 0.45288899999999993 -0.886245
vn -0.6 -0.8 4.898587196589413E-17
vn -0.111111 -0.44444399999999995 0.888889
vn 1 0 0
vn 0.526787 0.555596 -0.643279
vn 0.524636 0.561384 -0.640004
vn 0.582649 0.49667999999999995 -0.643296
vn 0.63534 0.4359779999999999 -0.63739
vn 0.682759 0.37509699999999996 -0.62701
vn 0.682676 0.38118099999999994 -0.623422
vn 0.8232 0.03478600000000003 0.566685
vn 0.65858 0.03553200000000005 0.751671
vn 0.98902 0.111393 -0.097118
vn 0.937943 0.06027199999999998 -0.341513
vn 0.766046 -0.02056099999999996 0.642457
vn 0.972032 0.020208999999999987 -0.233975
vn 0.153343 -0.665044 0.730892
vn 0.152557 -0.713629 0.68371
vn 0.152529 -0.713648 0.683697
vn 0.153247 -0.613243 0.774886
vn 0.152563 -0.558804 0.815146
vn 0.152271 -0.558952 0.815099
vn 0.64374 -0.687722 0.3356140000000001
vn 0.605233 -0.739831 0.2938430000000001
vn 0.597126 -0.745136 0.29700600000000005
vn 0.684119 -0.626793 0.37297700000000006
vn 0.724112 -0.558056 0.40525900000000004
vn 0.724749 -0.557618 0.40472300000000005
vn 0.054176 -0.64617 0.761268
vn 0.060335 -0.704696 0.70694
vn 0.060348 -0.704686 0.706949
vn 0.047674 -0.583055 0.811032
vn 0.040871 -0.516617 0.855241
vn 0.040956 -0.516566 0.855267
vn 0.521651 -0.681177 0.51369
vn 0.507357 -0.710489 0.4876420000000001
vn 0.504936 -0.71202 0.48792100000000005
vn 0.534674 -0.650596 0.539303
vn 0.549231 -0.617266 0.563319
vn 0.546344 -0.618907 0.564324
vn -0.29576 -0.545568 0.784144
vn -0.296228 -0.542793 0.785891
vn -0.296596 -0.543257 0.785431
vn -0.294439 -0.547467 0.783317
vn -0.293173 -0.549335 0.782484
vn -0.292264 -0.548491 0.783415
vn 0.149697 -0.49041499999999993 0.858536
vn 0.146769 -0.528984 0.835844
vn 0.146504 -0.529187 0.835762
vn 0.151739 -0.45106699999999994 0.879496
vn 0.15403 -0.41053799999999996 0.89874
vn 0.15289 -0.4111969999999999 0.898633
vn -0.343255 -0.63922 0.688167
vn -0.327729 -0.671238 0.664856
vn -0.327437 -0.670773 0.665468
vn -0.35904 -0.606896 0.709061
vn -0.374061 -0.573623 0.728722
vn -0.375045 -0.574511 0.727515
vn -0.041591 -0.51485 0.856271
vn -0.029942 -0.559265 0.828448
vn -0.029907 -0.559213 0.828484
vn -0.053048 -0.46873799999999993 0.881743
vn -0.064407 -0.42149799999999993 0.904539
vn -0.064213 -0.4213199999999999 0.904636
vn 0.349713 -0.531495 0.771501
vn 0.331184 -0.579838 0.744383
vn 0.330769 -0.580096 0.744366
vn 0.3675 -0.48091399999999995 0.796031
vn 0.384153 -0.42868199999999995 0.817715
vn 0.384341 -0.42859299999999995 0.817673
vn 0.097274 -0.45288899999999993 0.886245
vn 1 0 0
vn -1 0 0
vn -0.6 -0.8 4.898587196589413E-17
vn -0.111111 -0.44444399999999995 0.888889
vn 1 0 0
vn -0.582649 -0.49667999999999995 0.643296
vn -0.524636 -0.561384 0.640004
vn -0.526787 -0.555596 0.643279
vn -0.63534 -0.4359779999999999 0.63739
vn -0.682759 -0.37509699999999996 0.62701
vn -0.682676 -0.38118099999999994 0.623422
vn -0.01375 0.025114999999999936 -0.99959
vn 0.367011 0.06895199999999994 -0.927658
vn -0.626181 -0.05590200000000005 -0.777671
vn -0.826736 -0.061653000000000034 -0.559202
vn -0.761601 -0.00967500000000004 -0.647974
vn 0.381281 0.031208999999999945 -0.923932
vn 0.937943 0.06027199999999998 -0.341513
vn 0.98902 0.111393 -0.097118
vn 0.367011 0.06895199999999994 -0.927658
vn -0.01375 0.025114999999999936 -0.99959
vn 0.381281 0.031208999999999945 -0.923932
vn 0.972032 0.020208999999999987 -0.233975
vn -0.905262 -0.09140599999999997 0.414905
vn -0.980467 -0.136459 0.141642
vn -0.345428 -0.09456099999999995 0.933669
vn -0.289705 -0.06576899999999994 0.954854
vn -0.940645 -0.05603899999999998 0.334733
vn 0.101562 -0.051485999999999935 0.993496
vn 0.65858 0.03553200000000005 0.751671
vn 0.766046 -0.02056099999999996 0.642457
vn 0.8232 0.03478600000000003 0.566685
g fir
f 1/1/1 2/2/2 3/3/3
f 4/4/4 5/5/5 6/6/6
f 7/7/7 8/8/8 9/9/9
f 10/10/10 11/11/11 12/12/12
f 13/13/13 14/14/14 15/15/15
f 15/15/15 16/16/16 17/17/17
f 16/16/16 18/18/18 19/19/19
f 20/20/20 21/21/21 16/16/16
f 22/22/22 23/23/23 24/24/24
f 24/24/24 25/25/25 22/22/22
f 26/26/26 27/27/27 28/28/28
f 28/28/28 29/29/29 26/26/26
f 30/30/30 31/31/31 32/32/32
f 32/32/32 33/33/33 30/30/30
f 34/34/34 35/35/35 36/36/36
f 36/36/36 37/37/37 34/34/34
f 38/38/38 39/39/39 40/40/40
f 40/40/40 41/41/41 38/38/38
f 42/42/42 43/43/43 44/44/44
f 44/44/44 45/45/45 42/42/42
f 46/46/46 47/47/47 48/48/48
f 48/48/48 49/49/49 46/46/46
f 50/50/50 51/51/51 52/52/52
f 52/52/52 53/53/53 50/50/50
f 54/54/54 55/55/55 56/56/56
f 56/56/56 57/57/57 54/54/54
f 57/57/57 56/56/56 58/58/58
f 58/58/58 59/59/59 57/57/57
f 60/60/60 61/61/61 62/62/62
f 62/62/62 63/63/63 60/60/60
f 63/63/63 62/62/62 64/64/64
f 64/64/64 65/65/65 63/63/63
f 66/66/66 67/67/67 68/68/68
f 68/68/68 69/69/69 66/66/66
f 69/69/69 68/68/68 70/70/70
f 70/70/70 71/71/71 69/69/69
f 72/72/72 73/73/73 74/74/74
f 74/74/74 75/75/75 72/72/72
f 75/75/75 74/74/74 76/76/76
f 76/76/76 77/77/77 75/75/75
f 78/78/78 79/79/79 80/80/80
f 80/80/80 81/81/81 78/78/78
f 81/81/81 80/80/80 82/82/82
f 82/82/82 83/83/83 81/81/81
f 84/84/84 85/85/85 86/86/86
f 86/86/86 87/87/87 84/84/84
f 87/87/87 86/86/86 88/88/88
f 88/88/88 89/89/89 87/87/87
f 90/90/90 91/91/91 92/92/92
f 92/92/92 93/93/93 90/90/90
f 93/93/93 92/92/92 94/94/94
f 94/94/94 95/95/95 93/93/93
f 96/96/96 97/97/97 98/98/98
f 98/98/98 99/99/99 96/96/96
f 99/99/99 98/98/98 100/100/100
f 100/100/100 101/101/101 99/99/99
f 102/102/102 103/103/103 104/104/104
f 104/104/104 105/105/105 102/102/102
f 105/105/105 104/104/104 106/106/106
f 106/106/106 107/107/107 105/105/105
f 108/108/108 109/109/109 110/110/110
f 110/110/110 111/111/111 108/108/108
f 111/111/111 110/110/110 112/112/112
f 112/112/112 113/113/113 111/111/111
f 114/114/114 115/115/115 116/116/116
f 116/116/116 117/117/117 114/114/114
f 117/117/117 116/116/116 118/118/118
f 118/118/118 119/119/119 117/117/117
f 120/120/120 121/121/121 122/122/122
f 122/122/122 123/123/123 120/120/120
f 124/124/124 120/120/120 123/123/123
f 123/123/123 125/125/125 124/124/124
f 126/126/126 127/127/127 128/128/128
f 128/128/128 129/129/129 126/126/126
f 130/130/130 126/126/126 129/129/129
f 129/129/129 131/131/131 130/130/130
f 132/132/132 133/133/133 134/134/134
f 134/134/134 135/135/135 132/132/132
f 136/136/136 132/132/132 135/135/135
f 135/135/135 137/137/137 136/136/136
f 138/138/138 139/139/139 140/140/140
f 140/140/140 141/141/141 138/138/138
f 142/142/142 138/138/138 141/141/141
f 141/141/141 143/143/143 142/142/142
f 144/144/144 145/145/145 146/146/146
f 146/146/146 147/147/147 144/144/144
f 148/148/148 144/144/144 147/147/147
f 147/147/147 149/149/149 148/148/148
f 150/150/150 151/151/151 152/152/152
f 152/152/152 153/153/153 150/150/150
f 154/154/154 150/150/150 153/153/153
f 153/153/153 155/155/155 154/154/154
f 156/156/156 157/157/157 158/158/158
f 158/158/158 159/159/159 156/156/156
f 160/160/160 156/156/156 159/159/159
f 159/159/159 161/161/161 160/160/160
f 162/162/162 163/163/163 164/164/164
f 164/164/164 165/165/165 162/162/162
f 166/166/166 162/162/162 165/165/165
f 165/165/165 167/167/167 166/166/166
f 168/168/168 169/169/169 170/170/170
f 170/170/170 171/171/171 168/168/168
f 172/172/172 168/168/168 171/171/171
f 171/171/171 173/173/173 172/172/172
f 174/174/174 175/175/175 176/176/176
f 176/176/176 177/177/177 174/174/174
f 178/178/178 174/174/174 177/177/177
f 177/177/177 179/179/179 178/178/178
f 180/180/180 181/181/181 182/182/182
f 182/182/182 183/183/183 180/180/180
f 184/184/184 180/180/180 183/183/183
f 183/183/183 185/185/185 184/184/184
f 186/186/186 187/187/187 188/188/188
f 188/188/188 189/189/189 186/186/186
f 190/190/190 186/186/186 189/189/189
f 189/189/189 191/191/191 190/190/190
f 192/192/192 193/193/193 194/194/194
f 194/194/194 195/195/195 192/192/192
f 192/192/192 195/195/195 196/196/196
f 196/196/196 197/197/197 192/192/192
f 198/198/198 199/199/199 200/200/200
f 200/200/200 201/201/201 198/198/198
f 198/198/198 201/201/201 202/202/202
f 202/202/202 203/203/203 198/198/198
f 204/204/204 205/205/205 206/206/206
f 207/207/207 208/208/208 204/204/204
f 206/206/206 209/209/209 204/204/204
f 204/204/204 209/209/209 207/207/207
f 209/209/209 206/206/206 210/210/210
f 211/211/211 207/207/207 209/209/209
f 210/210/210 212/212/212 209/209/209
f 209/209/209 212/212/212 211/211/211
