v -0.467549 2.838008738812068E-17 0.463482
v -0.467549 0.995382 0.008097999999999939
v 0.461315 2.99273673865034E-17 0.488751
v 0.462296 0.978123 0.008097999999999939
v 0.461315 0.0013340000000000266 0.437329
v 0.462296 0.978123 -0.043324000000000064
v -0.46804 0.550775 0.33976399999999995
v 0.461806 0.529786 0.31046699999999994
v 0.461806 0.529786 0.25904499999999997
v -0.46853 0.0013340000000000246 0.4044
v -0.467549 0.995382 -0.050984000000000064
v -0.46804 0.550775 0.28068199999999993
v 0.489651 0.043783000000000044 0.657707
v 0.425904 0.043783000000000044 0.657707
v 0.450675 1.006673 0.22027899999999995
v 0.386929 1.006673 0.22027899999999995
v -0.428522 0.03185100000000004 0.674179
v -0.488393 0.03185100000000004 0.674179
v -0.387314 1.018102 0.25490599999999997
v -0.447185 1.018102 0.25490599999999997
v 0.415205 0.12870500000000004 0.403074
v 0.415205 0.05485300000000003 0.403074
v 0.415205 0.128706 -0.08566300000000002
v 0.415205 0.05485299999999999 -0.085663
v -0.440415 0.12870500000000004 0.403074
v -0.440415 0.05485300000000003 0.403074
v -0.440415 0.128706 -0.08566300000000002
v -0.440415 0.05485299999999999 -0.085663
v 0.444466 0.982851 0.35851799999999995
v 0.444466 0.921746 0.35851799999999995
v 0.475019 0.952299 0.35851799999999995
v 0.444467 0.982851 -6.018226655943876E-17
v 0.444467 0.921746 -5.64406644263438E-17
v 0.475019 0.952299 -5.831149610906127E-17
v -0.483619 0.982851 0.35851799999999995
v -0.514171 0.952299 0.35851799999999995
v -0.483619 0.921746 0.35851799999999995
v -0.514171 0.952299 -5.831149610906127E-17
v -0.483619 0.982851 -6.018226655943876E-17
v -0.483619 0.921746 -0.06427000000000005
v 0.374037 0.11938600000000005 0.713468
v 0.374037 0.05828200000000004 0.713468
v 0.404589 0.08883400000000004 0.713468
v 0.374037 0.11938700000000002 0.408203
v 0.374037 0.05828200000000003 0.408203
v 0.404589 0.08883400000000002 0.408203
v -0.411338 0.11938600000000005 0.703611
v -0.44189 0.08883400000000004 0.703611
v -0.411338 0.05828200000000004 0.703611
v -0.411338 0.11938700000000002 0.408203
v -0.44189 0.08883400000000002 0.408203
v -0.411338 0.05828200000000003 0.408203
v 0.511288 -0.05394799999999998 0.347394
v 0.511288 0.05233300000000002 0.347394
v 0.511288 -0.000806999999999982 0.294253
v -0.512191 -0.05394799999999998 0.347394
v -0.512191 0.05233300000000002 0.347394
v -0.512191 -0.000806999999999982 0.294253
v -0.467549 2.838008738812068E-17 0.463482
v -0.467549 -0.995382 0.00809800000000006
v 0.461315 2.99273673865034E-17 0.488751
v 0.462296 -0.978123 0.00809800000000006
v 0.461315 -0.0013339999999999732 0.437329
v 0.462296 -0.978123 -0.04332399999999994
v -0.46804 -0.550776 0.33976400000000007
v 0.461806 -0.529785 0.31046700000000005
v 0.461806 -0.529785 0.2590450000000001
v -0.46853 -0.0013339999999999752 0.4044
v -0.467549 -0.995382 -0.05098399999999994
v -0.46804 -0.550776 0.28068200000000004
v 0.486976 -0.03004999999999996 0.660836
v 0.425789 -0.03004999999999996 0.660836
v 0.449566 -1.006673 0.22020800000000004
v 0.388379 -1.006673 0.22020800000000004
v -0.432723 -0.028355999999999958 0.670852
v -0.484372 -0.028355999999999958 0.670852
v -0.397174 -1.018102 0.24434000000000006
v -0.448823 -1.018102 0.24434000000000006
v 0.415205 -0.12543999999999997 0.403074
v 0.415205 -0.051587999999999974 0.403074
v 0.415205 -0.12544 -0.08566299999999999
v 0.415205 -0.05158800000000001 -0.085663
v -0.440415 -0.12543999999999997 0.403074
v -0.440415 -0.051587999999999974 0.403074
v -0.440415 -0.12544 -0.08566299999999999
v -0.440415 -0.05158800000000001 -0.085663
v 0.444466 -0.982851 0.35851800000000006
v 0.444466 -0.921746 0.35851800000000006
v 0.475019 -0.952299 0.35851800000000006
v 0.444467 -0.982851 6.018226655943876E-17
v 0.444467 -0.921746 5.64406644263438E-17
v 0.475019 -0.952299 5.831149610906127E-17
v -0.483619 -0.982851 0.35851800000000006
v -0.514171 -0.952299 0.35851800000000006
v -0.483619 -0.921746 0.35851800000000006
v -0.514171 -0.952299 5.831149610906127E-17
v -0.483619 -0.982851 6.018226655943876E-17
v -0.483619 -0.921746 5.64406644263438E-17
v 0.374037 -0.11938599999999996 0.696317
v 0.374037 -0.05828199999999996 0.696317
v 0.404589 -0.08883399999999995 0.696317
v 0.374037 -0.11938699999999997 0.408203
v 0.374037 -0.05828199999999997 0.408203
v 0.404589 -0.08883399999999997 0.408203
v -0.411338 -0.11938599999999996 0.696317
v -0.44189 -0.08883399999999995 0.696317
v -0.411338 -0.05828199999999996 0.696317
v -0.411338 -0.11938699999999997 0.408203
v -0.44189 -0.08883399999999997 0.408203
v -0.411338 -0.05828199999999997 0.408203
v 0.461315 2.99273673865034E-17 0.488751
v 0.461806 0.529786 0.31046699999999994
v 0.462296 0.978123 0.008097999999999939
v -0.46804 0.550775 0.33976399999999995
v -0.467549 2.838008738812068E-17 0.463482
v -0.46853 0.0013340000000000246 0.4044
v -0.46804 0.550775 0.33976399999999995
v -0.467549 0.995382 0.008097999999999939
v 0.444466 0.982851 0.35851799999999995
v 0.475019 0.952299 -5.831149610906127E-17
v 0.475019 0.952299 0.35851799999999995
v -0.483619 0.982851 -6.018226655943876E-17
v -0.483619 0.982851 0.35851799999999995
v 0.374037 0.11938600000000005 0.713468
v 0.374037 0.11938700000000002 0.408203
v -0.44189 0.08883400000000002 0.408203
v -0.411338 0.11938700000000002 0.408203
v -0.411338 0.11938600000000005 0.703611
v 0.511288 -0.05394799999999998 0.347394
v 0.511288 0.05233300000000002 0.347394
v -0.512191 0.05233300000000002 0.347394
v -0.512191 -0.05394799999999998 0.347394
v 0.461806 -0.529785 0.31046700000000005
v 0.461315 2.99273673865034E-17 0.488751
v 0.462296 -0.978123 0.00809800000000006
v -0.46804 -0.550776 0.33976400000000007
v -0.46853 -0.0013339999999999752 0.4044
v -0.467549 2.838008738812068E-17 0.463482
v -0.46804 -0.550776 0.33976400000000007
v -0.467549 -0.995382 0.00809800000000006
v 0.444466 -0.982851 0.35851800000000006
v 0.475019 -0.952299 0.35851800000000006
v 0.475019 -0.952299 5.831149610906127E-17
v -0.483619 -0.982851 6.018226655943876E-17
v -0.483619 -0.982851 0.35851800000000006
v 0.374037 -0.11938599999999996 0.696317
v 0.374037 -0.11938699999999997 0.408203
v -0.44189 -0.08883399999999997 0.408203
v -0.411338 -0.11938699999999997 0.408203
v -0.411338 -0.11938599999999996 0.696317
v 0.444467 0.921746 -5.64406644263438E-17
v 0.444466 0.921746 0.35851799999999995
v 0.444466 0.921746 0.35851799999999995
v 0.444467 0.982851 -6.018226655943876E-17
v -0.514171 0.952299 -5.831149610906127E-17
v -0.514171 0.952299 -5.831149610906127E-17
v -0.514171 0.952299 0.35851799999999995
v -0.483619 0.921746 -0.06427000000000005
v -0.483619 0.921746 0.35851799999999995
v -0.483619 0.921746 0.35851799999999995
v 0.374037 0.05828200000000003 0.408203
v 0.374037 0.05828200000000004 0.713468
v 0.374037 0.05828200000000004 0.713468
v 0.404589 0.08883400000000002 0.408203
v 0.404589 0.08883400000000002 0.408203
v 0.404589 0.08883400000000004 0.713468
v -0.44189 0.08883400000000004 0.703611
v -0.44189 0.08883400000000004 0.703611
v -0.411338 0.05828200000000003 0.408203
v -0.411338 0.05828200000000004 0.703611
v -0.411338 0.05828200000000004 0.703611
v 0.444466 -0.921746 0.35851800000000006
v 0.444466 -0.921746 0.35851800000000006
v 0.444467 -0.921746 5.64406644263438E-17
v 0.444467 -0.982851 6.018226655943876E-17
v -0.514171 -0.952299 0.35851800000000006
v -0.514171 -0.952299 5.831149610906127E-17
v -0.514171 -0.952299 5.831149610906127E-17
v -0.483619 -0.921746 0.35851800000000006
v -0.483619 -0.921746 0.35851800000000006
v -0.483619 -0.921746 5.64406644263438E-17
v 0.374037 -0.05828199999999996 0.696317
v 0.374037 -0.05828199999999996 0.696317
v 0.374037 -0.05828199999999997 0.408203
v 0.404589 -0.08883399999999995 0.696317
v 0.404589 -0.08883399999999997 0.408203
v 0.404589 -0.08883399999999997 0.408203
v -0.44189 -0.08883399999999995 0.696317
v -0.44189 -0.08883399999999995 0.696317
v -0.411338 -0.05828199999999996 0.696317
v -0.411338 -0.05828199999999996 0.696317
v -0.411338 -0.05828199999999997 0.408203
vt 0.380413 0.044637
vt 0.381167 0.601315
vt 0.025424 0.037442
vt 0.024857 0.593737
vt 0.014668 0.050421
vt 0.012716 0.603908
vt 0.381459 0.296243
vt 0.025237 0.294051
vt 0.013426 0.305570
vt 0.394794 0.058374
vt 0.394853 0.614115
vt 0.395248 0.308561
vt 0.655037 0.964036
vt 0.655364 0.928316
vt 0.984165 0.953685
vt 0.983855 0.918657
vt 0.993037 0.650942
vt 0.992620 0.687341
vt 0.655107 0.624181
vt 0.655520 0.659277
vt 0.020392 0.870370
vt 0.047102 0.870370
vt 0.020392 0.613319
vt 0.047102 0.613319
vt 0.072926 0.870316
vt 0.099636 0.870316
vt 0.072926 0.613265
vt 0.099636 0.613265
vt 0.123510 0.617886
vt 0.145553 0.616921
vt 0.156580 0.616580
vt 0.126507 0.874293
vt 0.148620 0.872945
vt 0.159653 0.872101
vt 0.154911 0.889163
vt 0.154977 0.910690
vt 0.154730 0.931337
vt 0.025247 0.910674
vt 0.025311 0.889141
vt 0.025661 0.931343
vt 0.626567 0.752042
vt 0.615622 0.751850
vt 0.604570 0.751944
vt 0.625889 0.543561
vt 0.614801 0.544600
vt 0.603716 0.545094
vt 0.592342 0.779645
vt 0.603068 0.779480
vt 0.613458 0.779890
vt 0.592662 0.987829
vt 0.604111 0.988004
vt 0.612984 0.987697
vt 0.581703 0.758882
vt 0.582406 0.680920
vt 0.425993 0.542241
vt 0.185348 0.744554
vt 0.186052 0.666592
vt 0.420929 0.581485
vt 0.380413 0.044637
vt 0.381167 0.601315
vt 0.025424 0.037442
vt 0.024857 0.593737
vt 0.014668 0.050421
vt 0.012716 0.603908
vt 0.381459 0.296243
vt 0.025237 0.294051
vt 0.013426 0.305570
vt 0.394794 0.058374
vt 0.394853 0.614115
vt 0.395248 0.308561
vt 0.655037 0.964036
vt 0.655364 0.928316
vt 0.984165 0.953685
vt 0.983855 0.918657
vt 0.993037 0.650942
vt 0.992620 0.687341
vt 0.655107 0.624181
vt 0.655520 0.659277
vt 0.020392 0.870370
vt 0.047102 0.870370
vt 0.020392 0.613319
vt 0.047102 0.613319
vt 0.072926 0.870316
vt 0.099636 0.870316
vt 0.072926 0.613265
vt 0.099636 0.613265
vt 0.123510 0.617886
vt 0.145553 0.616921
vt 0.156580 0.616580
vt 0.126507 0.874293
vt 0.148620 0.872945
vt 0.159653 0.872101
vt 0.154911 0.889163
vt 0.154977 0.910690
vt 0.154730 0.931337
vt 0.025247 0.910674
vt 0.025311 0.889141
vt 0.025661 0.931343
vt 0.626567 0.752042
vt 0.615622 0.751850
vt 0.604570 0.751944
vt 0.625889 0.543561
vt 0.614801 0.544600
vt 0.603716 0.545094
vt 0.592342 0.779645
vt 0.603068 0.779480
vt 0.613458 0.779890
vt 0.592662 0.987829
vt 0.604111 0.988004
vt 0.612984 0.987697
vt 0.025424 0.037442
vt 0.025237 0.294051
vt 0.024857 0.593737
vt 0.381459 0.296243
vt 0.380413 0.044637
vt 0.394794 0.058374
vt 0.381459 0.296243
vt 0.381167 0.601315
vt 0.127188 0.618085
vt 0.115440 0.874166
vt 0.116122 0.617963
vt 0.025115 0.975307
vt 0.155118 0.975209
vt 0.593448 0.753082
vt 0.592606 0.543921
vt 0.601923 0.988640
vt 0.635504 0.989727
vt 0.635414 0.779257
vt 0.445482 0.541683
vt 0.426272 0.581221
vt 0.401446 0.580216
vt 0.421563 0.542519
vt 0.025237 0.294051
vt 0.025424 0.037442
vt 0.024857 0.593737
vt 0.381459 0.296243
vt 0.394794 0.058374
vt 0.380413 0.044637
vt 0.381459 0.296243
vt 0.381167 0.601315
vt 0.127188 0.618085
vt 0.116122 0.617963
vt 0.115440 0.874166
vt 0.025115 0.975307
vt 0.155118 0.975209
vt 0.593448 0.753082
vt 0.592606 0.543921
vt 0.601923 0.988640
vt 0.635504 0.989727
vt 0.635414 0.779257
vt 0.148620 0.872945
vt 0.145553 0.616921
vt 0.145553 0.616921
vt 0.126507 0.874293
vt 0.025247 0.910674
vt 0.025247 0.910674
vt 0.154977 0.910690
vt 0.025661 0.931343
vt 0.154730 0.931337
vt 0.154730 0.931337
vt 0.614801 0.544600
vt 0.615622 0.751850
vt 0.615622 0.751850
vt 0.603716 0.545094
vt 0.603716 0.545094
vt 0.604570 0.751944
vt 0.603068 0.779480
vt 0.603068 0.779480
vt 0.612984 0.987697
vt 0.613458 0.779890
vt 0.613458 0.779890
vt 0.145553 0.616921
vt 0.145553 0.616921
vt 0.148620 0.872945
vt 0.126507 0.874293
vt 0.154977 0.910690
vt 0.025247 0.910674
vt 0.025247 0.910674
vt 0.154730 0.931337
vt 0.154730 0.931337
vt 0.025661 0.931343
vt 0.615622 0.751850
vt 0.615622 0.751850
vt 0.614801 0.544600
vt 0.604570 0.751944
vt 0.603716 0.545094
vt 0.603716 0.545094
vt 0.603068 0.779480
vt 0.603068 0.779480
vt 0.613458 0.779890
vt 0.613458 0.779890
vt 0.612984 0.987697
vn -0.026533 0.21906500000000007 0.97535
vn 0.011097 0.597889 0.801502
vn 0.005261 0.26937800000000006 0.96302
vn 0.024915 0.578512 0.815294
vn 1 -0.000934 -2.3999999999999943E-05
vn 0.999999 -0.001094 6.698817991336021E-20
vn 0.015323 0.43044200000000005 0.902488
vn 0.038219 0.4426800000000001 0.895865
vn 1 -0.000928 5.682361148043719E-20
vn -0.999857 0.002853000000000001 0.016665
vn -0.999999 0.001103 -6.753927097297653E-20
vn -1 0.000893 -5.468047958192932E-20
vn 0 0.41360800000000003 0.910455
vn 0 0.41360800000000003 0.910455
vn 0 0.41360800000000003 0.910455
vn 0 0.41360800000000003 0.910455
vn 0 0.3912320000000001 0.920292
vn 0 0.3912320000000001 0.920292
vn 0 0.3912320000000001 0.920292
vn 0 0.3912320000000001 0.920292
vn 1 0 0
vn 1 0 0
vn 1 0 0
vn 1 0 0
vn -1 0 0
vn -1 0 0
vn -1 0 0
vn -1 0 0
vn -0.382684 0.923879 -5.657127300747288E-17
vn 0.281087 -0.959682 5.876357447496651E-17
vn 1 4E-06 -2.4492935982947065E-22
vn -0.382682 0.92388 9.999999999434285E-07
vn -0.877356 -0.479841 2.938178723748326E-17
vn 1 2E-06 9.999999999999997E-07
vn 0.382685 0.923879 9.999999999434287E-07
vn -0.948683 0.31623 -1.9363502864718376E-17
vn 0.382683 -0.92388 5.657133423981284E-17
vn -0.948683 -0.316227 1.9363319167698502E-17
vn 0.382684 0.923879 9.999999999434287E-07
vn 0.382684 -0.923879 5.657127300747288E-17
vn -0.382684 0.923879 -5.657127300747288E-17
vn 0.281087 -0.959682 5.876357447496651E-17
vn 1 4E-06 -2.4492935982947065E-22
vn -0.382682 0.92388 9.999999999434285E-07
vn -0.877356 -0.479841 2.938178723748326E-17
vn 1 2E-06 9.999999999999997E-07
vn 0.382685 0.923879 1.9999999999434287E-06
vn -1 2E-06 -1.2246467991473532E-22
vn 0.877356 -0.479841 1.0000000000293818E-06
vn 0.382684 0.923879 9.999999999434287E-07
vn -1 -0 0
vn -0.281087 -0.959682 5.876357447496651E-17
vn -0 6.123233995736766E-17 1
vn -0 6.123233995736766E-17 1
vn 1 0 0
vn -0 6.123233995736766E-17 1
vn -0 6.123233995736766E-17 1
vn -1 0 0
vn -0.026533 -0.21906499999999995 0.975349
vn 0.011097 -0.59789 0.801502
vn 0.005261 -0.26937799999999995 0.96302
vn 0.024915 -0.578512 0.815294
vn 1 0.000928 -5.682361148043719E-20
vn 0.999999 0.001094 -6.698817991336021E-20
vn 0.015323 -0.43044199999999994 0.902488
vn 0.038219 -0.44267999999999996 0.895865
vn 1 0.000928 -5.682361148043719E-20
vn -1 -0.000893 5.468047958192932E-20
vn -0.999999 -0.001103 6.753927097297653E-20
vn -1 -0.000893 5.468047958192932E-20
vn 0 -0.4112549999999999 0.91152
vn 0 -0.4112549999999999 0.91152
vn 0 -0.4112549999999999 0.91152
vn 0 -0.4112549999999999 0.91152
vn 0 -0.39574999999999994 0.918359
vn 0 -0.39574999999999994 0.918359
vn 0 -0.39574999999999994 0.918359
vn 0 -0.39574999999999994 0.918359
vn 1 0 0
vn 1 0 0
vn 1 0 0
vn 1 0 0
vn -1 0 0
vn -1 0 0
vn -1 0 0
vn -1 0 0
vn -0.382684 -0.923879 5.657127300747288E-17
vn 0.281087 0.959682 -5.876357447496651E-17
vn 1 -4E-06 2.4492935982947065E-22
vn -0.382682 -0.92388 1.0000000000565714E-06
vn -0.877356 0.479841 -2.938178723748326E-17
vn 1 -2E-06 1.0000000000000002E-06
vn 0.382685 -0.923879 2.000000000056571E-06
vn -0.948683 -0.31623 1.9363502864718376E-17
vn 0.382683 0.92388 9.999999999434285E-07
vn -0.948684 0.316226 -1.9363257935358545E-17
vn 0.382684 -0.923879 1.0000000000565712E-06
vn 0.382683 0.92388 -5.657133423981284E-17
vn -0.382684 -0.923879 5.657127300747288E-17
vn 0.281087 0.959682 -5.876357447496651E-17
vn 1 -4E-06 2.4492935982947065E-22
vn -0.382682 -0.92388 1.0000000000565714E-06
vn -0.877356 0.479841 -1.0000000000293818E-06
vn 1 -2E-06 1.0000000000000002E-06
vn 0.382685 -0.923879 2.000000000056571E-06
vn -1 -2E-06 1.2246467991473532E-22
vn 0.877356 0.479841 9.99999999970618E-07
vn 0.382684 -0.923879 2.000000000056571E-06
vn -1 -0 0
vn -0.281087 0.959682 -5.876357447496651E-17
vn 1 -0.000934 -2.3999999999999943E-05
vn 1 -0.000934 -2.3999999999999943E-05
vn 0.999999 -0.001094 6.698817991336021E-20
vn -0.999857 0.002853000000000001 0.016665
vn -0.999857 0.002853000000000001 0.016665
vn -1 0.000893 -5.468047958192932E-20
vn -1 0.000893 -5.468047958192932E-20
vn -0.999999 0.001103 -6.753927097297653E-20
vn -0.382684 0.923879 -5.657127300747288E-17
vn 1 2E-06 9.999999999999997E-07
vn 1 4E-06 -2.4492935982947065E-22
vn 0.382684 0.923879 9.999999999434287E-07
vn 0.382685 0.923879 9.999999999434287E-07
vn -0.382684 0.923879 -5.657127300747288E-17
vn -0.382682 0.92388 9.999999999434285E-07
vn -1 -0 0
vn 0.382684 0.923879 9.999999999434287E-07
vn 0.382685 0.923879 1.9999999999434287E-06
vn 1 0 0
vn 1 0 0
vn -1 0 0
vn -1 0 0
vn 1 0.000928 -5.682361148043719E-20
vn 1 0.000934 -2.4000000000000058E-05
vn 0.999999 0.001094 -6.698817991336021E-20
vn -1 -0.000893 5.468047958192932E-20
vn -0.999857 -0.002852999999999999 0.016665
vn -0.999857 -0.002852999999999999 0.016665
vn -0.999857 -0.002852999999999999 0.016665
vn -0.999999 -0.001103 6.753927097297653E-20
vn -0.382684 -0.923879 5.657127300747288E-17
vn 1 -4E-06 2.4492935982947065E-22
vn 1 -2E-06 1.0000000000000002E-06
vn 0.382684 -0.923879 1.0000000000565712E-06
vn 0.382685 -0.923879 2.000000000056571E-06
vn -0.382684 -0.923879 5.657127300747288E-17
vn -0.382682 -0.92388 1.0000000000565714E-06
vn -1 -0 0
vn 0.382684 -0.923879 2.000000000056571E-06
vn 0.382685 -0.923879 2.000000000056571E-06
vn -0.877356 -0.479841 2.938178723748326E-17
vn 0.281087 -0.959682 5.876357447496651E-17
vn 0.281087 -0.959682 5.876357447496651E-17
vn -0.382682 0.92388 9.999999999434285E-07
vn -0.948683 -0.316227 1.9363319167698502E-17
vn -0.948683 -0.316227 1.9363319167698502E-17
vn -0.948683 0.31623 -1.9363502864718376E-17
vn 0.382684 -0.923879 5.657127300747288E-17
vn 0.382683 -0.92388 5.657133423981284E-17
vn 0.382683 -0.92388 5.657133423981284E-17
vn -0.877356 -0.479841 2.938178723748326E-17
vn 0.281087 -0.959682 5.876357447496651E-17
vn 0.281087 -0.959682 5.876357447496651E-17
vn 1 2E-06 9.999999999999997E-07
vn 1 2E-06 9.999999999999997E-07
vn 1 4E-06 -2.4492935982947065E-22
vn -1 2E-06 -1.2246467991473532E-22
vn -1 2E-06 -1.2246467991473532E-22
vn -0.281087 -0.959682 5.876357447496651E-17
vn 0.877356 -0.479841 1.0000000000293818E-06
vn 0.877356 -0.479841 1.0000000000293818E-06
vn 0.281087 0.959682 -5.876357447496651E-17
vn 0.281087 0.959682 -5.876357447496651E-17
vn -0.877356 0.479841 -2.938178723748326E-17
vn -0.382682 -0.92388 1.0000000000565714E-06
vn -0.948683 -0.31623 1.9363502864718376E-17
vn -0.948684 0.316226 -1.9363257935358545E-17
vn -0.948684 0.316226 -1.9363257935358545E-17
vn 0.382683 0.92388 9.999999999434285E-07
vn 0.382683 0.92388 9.999999999434285E-07
vn 0.382683 0.92388 -5.657133423981284E-17
vn 0.281087 0.959682 -5.876357447496651E-17
vn 0.281087 0.959682 -5.876357447496651E-17
vn -0.877356 0.479841 -1.0000000000293818E-06
vn 1 -4E-06 2.4492935982947065E-22
vn 1 -2E-06 1.0000000000000002E-06
vn 1 -2E-06 1.0000000000000002E-06
vn -1 -2E-06 1.2246467991473532E-22
vn -1 -2E-06 1.2246467991473532E-22
vn 0.877356 0.479841 9.99999999970618E-07
vn 0.877356 0.479841 9.99999999970618E-07
vn -0.281087 0.959682 -5.876357447496651E-17
g 04 - Default
f 149/149/149 192/192/192 191/191/191
f 190/190/190 150/150/150 149/149/149
f 110/110/110 148/148/148 189/189/189
f 188/188/188 107/107/107 110/110/110
f 106/106/106 109/109/109 108/108/108
f 108/108/108 105/105/105 106/106/106
f 146/146/146 147/147/147 187/187/187
f 186/186/186 185/185/185 146/146/146
f 104/104/104 184/184/184 183/183/183
f 182/182/182 101/101/101 104/104/104
f 103/103/103 102/102/102 99/99/99
f 99/99/99 100/100/100 103/103/103
f 144/144/144 181/181/181 180/180/180
f 179/179/179 145/145/145 144/144/144
f 95/95/95 98/98/98 178/178/178
f 177/177/177 176/176/176 95/95/95
f 94/94/94 96/96/96 97/97/97
f 97/97/97 93/93/93 94/94/94
f 141/141/141 175/175/175 143/143/143
f 143/143/143 142/142/142 141/141/141
f 92/92/92 174/174/174 173/173/173
f 172/172/172 89/89/89 92/92/92
f 91/91/91 90/90/90 87/87/87
f 87/87/87 88/88/88 91/91/91
f 86/86/86 85/85/85 83/83/83
f 83/83/83 84/84/84 86/86/86
f 81/81/81 82/82/82 80/80/80
f 80/80/80 79/79/79 81/81/81
f 78/78/78 77/77/77 75/75/75
f 75/75/75 76/76/76 78/78/78
f 74/74/74 73/73/73 71/71/71
f 71/71/71 72/72/72 74/74/74
f 70/70/70 69/69/69 140/140/140
f 140/140/140 136/136/136 70/70/70
f 139/139/139 138/138/138 137/137/137
f 68/68/68 70/70/70 136/136/136
f 67/67/67 133/133/133 135/135/135
f 135/135/135 64/64/64 67/67/67
f 62/62/62 66/66/66 65/65/65
f 65/65/65 60/60/60 62/62/62
f 63/63/63 134/134/134 133/133/133
f 133/133/133 67/67/67 63/63/63
f 65/65/65 66/66/66 61/61/61
f 61/61/61 59/59/59 65/65/65
f 132/132/132 131/131/131 58/58/58
f 55/55/55 130/130/130 129/129/129
f 56/56/56 53/53/53 54/54/54
f 54/54/54 57/57/57 56/56/56
f 127/127/127 128/128/128 171/171/171
f 170/170/170 169/169/169 127/127/127
f 52/52/52 49/49/49 168/168/168
f 167/167/167 126/126/126 52/52/52
f 48/48/48 47/47/47 50/50/50
f 50/50/50 51/51/51 48/48/48
f 124/124/124 166/166/166 165/165/165
f 164/164/164 125/125/125 124/124/124
f 46/46/46 43/43/43 163/163/163
f 162/162/162 161/161/161 46/46/46
f 45/45/45 42/42/42 41/41/41
f 41/41/41 44/44/44 45/45/45
f 122/122/122 123/123/123 160/160/160
f 159/159/159 158/158/158 122/122/122
f 37/37/37 157/157/157 156/156/156
f 155/155/155 40/40/40 37/37/37
f 36/36/36 35/35/35 39/39/39
f 39/39/39 38/38/38 36/36/36
f 119/119/119 121/121/121 120/120/120
f 120/120/120 154/154/154 119/119/119
f 34/34/34 31/31/31 153/153/153
f 152/152/152 151/151/151 34/34/34
f 33/33/33 30/30/30 29/29/29
f 29/29/29 32/32/32 33/33/33
f 28/28/28 26/26/26 25/25/25
f 25/25/25 27/27/27 28/28/28
f 23/23/23 21/21/21 22/22/22
f 22/22/22 24/24/24 23/23/23
f 18/18/18 17/17/17 19/19/19
f 19/19/19 20/20/20 18/18/18
f 14/14/14 13/13/13 15/15/15
f 15/15/15 16/16/16 14/14/14
f 12/12/12 117/117/117 118/118/118
f 118/118/118 11/11/11 12/12/12
f 117/117/117 12/12/12 116/116/116
f 10/10/10 115/115/115 114/114/114
f 9/9/9 6/6/6 113/113/113
f 113/113/113 112/112/112 9/9/9
f 4/4/4 2/2/2 7/7/7
f 7/7/7 8/8/8 4/4/4
f 5/5/5 9/9/9 112/112/112
f 112/112/112 111/111/111 5/5/5
f 7/7/7 1/1/1 3/3/3
f 3/3/3 8/8/8 7/7/7
