v -0.467549 0.5 0.46348199999999995
v -0.467549 1.494048 0.008097999999999907
v 0.461315 0.5 0.48875099999999994
v 0.462296 1.476789 0.008097999999999909
v 0.461315 0.5 0.43732899999999997
v 0.462296 1.476789 -0.04332400000000009
v -0.46804 0.951527 0.26310399999999995
v 0.461806 0.934269 0.23380699999999993
v 0.461806 0.934269 0.18238499999999994
v -0.46853 0.5 0.4043999999999999
v -0.467549 1.494048 -0.05098400000000009
v -0.46804 0.951527 0.20402199999999995
v 0.489651 0.542449 0.657707
v 0.425904 0.542449 0.657707
v 0.450675 1.50534 0.22027899999999992
v 0.386929 1.50534 0.22027899999999992
v -0.428522 0.530517 0.674179
v -0.488393 0.530517 0.674179
v -0.387314 1.516769 0.2549059999999999
v -0.447185 1.516769 0.2549059999999999
v 0.415205 0.570395 0.40307399999999993
v 0.415205 0.496543 0.40307399999999993
v 0.415205 0.570395 -0.08566300000000004
v 0.415205 0.496543 -0.08566300000000003
v -0.440415 0.570395 0.40307399999999993
v -0.440415 0.496543 0.40307399999999993
v -0.440415 0.570395 -0.08566300000000004
v -0.440415 0.496543 -0.08566300000000003
v 0.444466 1.481517 0.3585179999999999
v 0.444466 1.420413 0.3585179999999999
v 0.475019 1.450965 0.3585179999999999
v 0.444467 1.481517 -9.071675259661947E-17
v 0.444467 1.420413 -8.697521169586446E-17
v 0.475019 1.450965 -8.884598214624197E-17
v -0.483619 1.481517 0.3585179999999999
v -0.514171 1.450965 0.3585179999999999
v -0.483619 1.420413 0.3585179999999999
v -0.514171 1.450965 -8.884598214624197E-17
v -0.483619 1.481517 -9.071675259661947E-17
v -0.483619 1.420413 -0.06427000000000008
v 0.374037 0.618052 0.713468
v 0.374037 0.556948 0.713468
v 0.404589 0.587501 0.713468
v 0.374037 0.618053 0.4082029999999999
v 0.374037 0.556948 0.4082029999999999
v 0.404589 0.587501 0.4082029999999999
v -0.411338 0.618052 0.703611
v -0.44189 0.587501 0.703611
v -0.411338 0.556948 0.703611
v -0.411338 0.618053 0.4082029999999999
v -0.44189 0.587501 0.4082029999999999
v -0.411338 0.556948 0.4082029999999999
v -0.467549 0.5 0.46348199999999995
v -0.467549 -0.49999999999999994 0.46348300000000003
v 0.461315 0.5 0.48875099999999994
v 0.461315 -0.49999999999999994 0.48875100000000005
v 0.461315 0.5 0.43732899999999997
v 0.461315 -0.5 0.4373290000000001
v -0.427988 -0.014588999999999974 0.435712
v 0.43426 0.0026700000000000287 0.468426
v 0.43426 0.0026700000000000257 0.417004
v -0.467549 0.5 0.4043999999999999
v -0.467549 -0.5 0.40440000000000004
v -0.427988 -0.014588999999999977 0.37663
v 0.493189 0.5 0.682676
v 0.445804 0.5 0.682676
v 0.493189 -0.48217799999999994 0.682675
v 0.445804 -0.48217799999999994 0.682675
v -0.454463 0.5 0.672372
v -0.513855 0.5 0.672372
v -0.454463 -0.48217799999999994 0.672371
v -0.513855 -0.48217799999999994 0.672371
v 0.405965 -0.42386999999999997 0.76217
v 0.405965 -0.37377299999999997 0.76217
v 0.431013 -0.3988209999999999 0.76217
v 0.401489 0.42366600000000004 0.76217
v 0.401489 0.47376300000000005 0.76217
v 0.426537 0.44871400000000006 0.76217
v 0.401489 0.42366600000000004 0.460632
v 0.401489 0.47376300000000005 0.46063199999999993
v 0.426537 0.44871400000000006 0.460632
v 0.405965 -0.42386999999999997 0.460632
v 0.405965 -0.37377299999999997 0.460632
v 0.431013 -0.3988209999999999 0.460632
v -0.417452 -0.42386999999999997 0.749917
v -0.417452 -0.37377299999999997 0.749917
v -0.4425 -0.3988209999999999 0.749917
v -0.412975 0.42366600000000004 0.749917
v -0.412975 0.47376300000000005 0.749917
v -0.438024 0.44871400000000006 0.749917
v -0.412975 0.423666 0.451069
v -0.412975 0.473763 0.45106899999999994
v -0.438024 0.448714 0.450015
v -0.417452 -0.42386999999999997 0.460632
v -0.417452 -0.37377299999999997 0.460632
v -0.4425 -0.3988209999999999 0.460632
v 0.511288 0.426344 0.347394
v 0.511288 0.532625 0.3473939999999999
v 0.511288 0.479485 0.29425299999999993
v -0.512191 0.426344 0.347394
v -0.512191 0.532625 0.3473939999999999
v -0.512191 0.479485 0.29425299999999993
v 0.511288 -0.515078 0.34739400000000004
v 0.511288 -0.408797 0.347394
v 0.511288 -0.461937 0.29425300000000004
v -0.512191 -0.515078 0.34739400000000004
v -0.512191 -0.408797 0.347394
v -0.512191 -0.461937 0.29425300000000004
v -0.440415 -0.436516 0.438596
v -0.440415 -0.436516 -0.08447299999999998
v -0.440415 0.442329 0.438596
v -0.440415 0.442329 -0.08447300000000003
v 0.415588 0.442329 -0.08447300000000003
v 0.415589 -0.436516 -0.08447199999999998
v 0.415588 -0.436516 0.438596
v 0.415588 0.442329 0.438596
v -0.467549 -0.49999999999999994 0.46348200000000006
v -0.467549 -1.494048 0.008098000000000091
v 0.461315 -0.49999999999999994 0.48875100000000005
v 0.462296 -1.476789 0.00809800000000009
v 0.461315 -0.5 0.4373290000000001
v 0.462296 -1.476789 -0.04332399999999991
v -0.46804 -0.951528 0.26310400000000006
v 0.461806 -0.934269 0.23380700000000004
v 0.461806 -0.934269 0.18238500000000005
v -0.46853 -0.5 0.40440000000000004
v -0.467549 -1.494048 -0.05098399999999991
v -0.46804 -0.951528 0.20402200000000006
v 0.486976 -0.528716 0.660836
v 0.425789 -0.528716 0.660836
v 0.449566 -1.50534 0.22020800000000007
v 0.388379 -1.50534 0.22020800000000007
v -0.432723 -0.527023 0.670852
v -0.484372 -0.527023 0.670852
v -0.397174 -1.516768 0.24434000000000008
v -0.448823 -1.516768 0.24434000000000008
v 0.415205 -0.570395 0.40307400000000004
v 0.415205 -0.496543 0.40307400000000004
v 0.415205 -0.570395 -0.08566299999999996
v 0.415205 -0.496543 -0.08566299999999998
v -0.440415 -0.570395 0.40307400000000004
v -0.440415 -0.496543 0.40307400000000004
v -0.440415 -0.570395 -0.08566299999999996
v -0.440415 -0.496543 -0.08566299999999998
v 0.444466 -1.481517 0.3585180000000001
v 0.444466 -1.420413 0.3585180000000001
v 0.475019 -1.450965 0.3585180000000001
v 0.444467 -1.481517 9.071675259661947E-17
v 0.444467 -1.420413 8.697521169586446E-17
v 0.475019 -1.450965 8.884598214624197E-17
v -0.483619 -1.481517 0.3585180000000001
v -0.514171 -1.450965 0.3585180000000001
v -0.483619 -1.420413 0.3585180000000001
v -0.514171 -1.450965 8.884598214624197E-17
v -0.483619 -1.481517 9.071675259661947E-17
v -0.483619 -1.420413 8.697521169586446E-17
v 0.374037 -0.618052 0.696317
v 0.374037 -0.556948 0.696317
v 0.404589 -0.587501 0.696317
v 0.374037 -0.618053 0.40820300000000004
v 0.374037 -0.556948 0.40820300000000004
v 0.404589 -0.587501 0.40820300000000004
v -0.411338 -0.618052 0.696317
v -0.44189 -0.587501 0.696317
v -0.411338 -0.556948 0.696317
v -0.411338 -0.618053 0.40820300000000004
v -0.44189 -0.587501 0.40820300000000004
v -0.411338 -0.556948 0.40820300000000004
v 0.461315 0.5 0.48875099999999994
v 0.461806 0.934269 0.23380699999999993
v 0.462296 1.476789 0.008097999999999909
v -0.46804 0.951527 0.26310399999999995
v -0.467549 0.5 0.46348199999999995
v -0.46853 0.5 0.4043999999999999
v -0.46804 0.951527 0.26310399999999995
v -0.467549 1.494048 0.008097999999999907
v 0.444466 1.481517 0.3585179999999999
v 0.475019 1.450965 -8.884598214624197E-17
v 0.475019 1.450965 0.3585179999999999
v -0.483619 1.481517 -9.071675259661947E-17
v -0.483619 1.481517 0.3585179999999999
v 0.374037 0.618052 0.713468
v 0.374037 0.618053 0.4082029999999999
v -0.44189 0.587501 0.4082029999999999
v -0.411338 0.618053 0.4082029999999999
v -0.411338 0.618052 0.703611
v 0.43426 0.0026700000000000287 0.468426
v 0.461315 0.5 0.48875099999999994
v 0.43426 0.0026700000000000257 0.417004
v 0.461315 -0.49999999999999994 0.48875100000000005
v 0.43426 0.0026700000000000287 0.468426
v -0.467549 0.5 0.46348199999999995
v -0.427988 -0.014588999999999974 0.435712
v -0.427988 -0.014588999999999977 0.37663
v -0.427988 -0.014588999999999974 0.435712
v -0.467549 -0.49999999999999994 0.46348300000000003
v 0.431013 -0.3988209999999999 0.460632
v 0.431013 -0.3988209999999999 0.76217
v 0.426537 0.44871400000000006 0.460632
v 0.426537 0.44871400000000006 0.76217
v -0.417452 -0.37377299999999997 0.460632
v -0.417452 -0.37377299999999997 0.749917
v -0.412975 0.42366600000000004 0.749917
v -0.412975 0.423666 0.451069
v 0.511288 0.426344 0.347394
v 0.511288 0.532625 0.3473939999999999
v -0.512191 0.532625 0.3473939999999999
v -0.512191 0.426344 0.347394
v 0.511288 -0.515078 0.34739400000000004
v 0.511288 -0.408797 0.347394
v -0.512191 -0.408797 0.347394
v -0.512191 -0.515078 0.34739400000000004
v 0.461806 -0.934269 0.23380700000000004
v 0.461315 -0.49999999999999994 0.48875100000000005
v 0.462296 -1.476789 0.00809800000000009
v -0.46804 -0.951528 0.26310400000000006
v -0.46853 -0.5 0.40440000000000004
v -0.467549 -0.49999999999999994 0.46348200000000006
v -0.46804 -0.951528 0.26310400000000006
v -0.467549 -1.494048 0.008098000000000091
v 0.444466 -1.481517 0.3585180000000001
v 0.475019 -1.450965 0.3585180000000001
v 0.475019 -1.450965 8.884598214624197E-17
v -0.483619 -1.481517 9.071675259661947E-17
v -0.483619 -1.481517 0.3585180000000001
v 0.374037 -0.618052 0.696317
v 0.374037 -0.618053 0.40820300000000004
v -0.44189 -0.587501 0.40820300000000004
v -0.411338 -0.618053 0.40820300000000004
v -0.411338 -0.618052 0.696317
v 0.444467 1.420413 -8.697521169586446E-17
v 0.444466 1.420413 0.3585179999999999
v 0.444466 1.420413 0.3585179999999999
v 0.444467 1.481517 -9.071675259661947E-17
v -0.514171 1.450965 -8.884598214624197E-17
v -0.514171 1.450965 -8.884598214624197E-17
v -0.514171 1.450965 0.3585179999999999
v -0.483619 1.420413 -0.06427000000000008
v -0.483619 1.420413 0.3585179999999999
v -0.483619 1.420413 0.3585179999999999
v 0.374037 0.556948 0.4082029999999999
v 0.374037 0.556948 0.713468
v 0.374037 0.556948 0.713468
v 0.404589 0.587501 0.4082029999999999
v 0.404589 0.587501 0.4082029999999999
v 0.404589 0.587501 0.713468
v -0.44189 0.587501 0.703611
v -0.44189 0.587501 0.703611
v -0.411338 0.556948 0.4082029999999999
v -0.411338 0.556948 0.703611
v -0.411338 0.556948 0.703611
v 0.405965 -0.37377299999999997 0.460632
v 0.405965 -0.37377299999999997 0.76217
v 0.405965 -0.37377299999999997 0.460632
v 0.405965 -0.42386999999999997 0.460632
v 0.405965 -0.42386999999999997 0.76217
v 0.405965 -0.42386999999999997 0.76217
v 0.401489 0.47376300000000005 0.46063199999999993
v 0.401489 0.47376300000000005 0.76217
v 0.401489 0.47376300000000005 0.46063199999999993
v 0.401489 0.42366600000000004 0.460632
v 0.401489 0.42366600000000004 0.76217
v 0.401489 0.42366600000000004 0.76217
v -0.417452 -0.42386999999999997 0.749917
v -0.417452 -0.42386999999999997 0.460632
v -0.4425 -0.3988209999999999 0.460632
v -0.4425 -0.3988209999999999 0.460632
v -0.4425 -0.3988209999999999 0.749917
v -0.417452 -0.42386999999999997 0.749917
v -0.412975 0.473763 0.45106899999999994
v -0.412975 0.473763 0.45106899999999994
v -0.412975 0.47376300000000005 0.749917
v -0.438024 0.448714 0.450015
v -0.438024 0.448714 0.450015
v -0.438024 0.44871400000000006 0.749917
v 0.444466 -1.420413 0.3585180000000001
v 0.444466 -1.420413 0.3585180000000001
v 0.444467 -1.420413 8.697521169586446E-17
v 0.444467 -1.481517 9.071675259661947E-17
v -0.514171 -1.450965 0.3585180000000001
v -0.514171 -1.450965 8.884598214624197E-17
v -0.514171 -1.450965 8.884598214624197E-17
v -0.483619 -1.420413 0.3585180000000001
v -0.483619 -1.420413 0.3585180000000001
v -0.483619 -1.420413 8.697521169586446E-17
v 0.374037 -0.556948 0.696317
v 0.374037 -0.556948 0.696317
v 0.374037 -0.556948 0.40820300000000004
v 0.404589 -0.587501 0.696317
v 0.404589 -0.587501 0.40820300000000004
v 0.404589 -0.587501 0.40820300000000004
v -0.44189 -0.587501 0.696317
v -0.44189 -0.587501 0.696317
v -0.411338 -0.556948 0.696317
v -0.411338 -0.556948 0.696317
v -0.411338 -0.556948 0.40820300000000004
vt 0.380413 0.038097
vt 0.381167 0.601168
vt 0.025424 0.030820
vt 0.024857 0.593504
vt 0.014668 0.043947
vt 0.012716 0.603791
vt 0.381459 0.292593
vt 0.025237 0.290375
vt 0.013426 0.302026
vt 0.394794 0.051992
vt 0.394853 0.614115
vt 0.395248 0.305052
vt 0.655037 0.964036
vt 0.655364 0.928316
vt 0.984165 0.953685
vt 0.983855 0.918657
vt 0.993037 0.650942
vt 0.992620 0.687341
vt 0.655107 0.624181
vt 0.655520 0.659277
vt 0.020392 0.870370
vt 0.047102 0.870370
vt 0.020392 0.613319
vt 0.047102 0.613319
vt 0.072926 0.870316
vt 0.099636 0.870316
vt 0.072926 0.613265
vt 0.099636 0.613265
vt 0.123510 0.617886
vt 0.145553 0.616921
vt 0.156580 0.616580
vt 0.126507 0.874293
vt 0.148620 0.872945
vt 0.159653 0.872101
vt 0.154911 0.889163
vt 0.154977 0.910690
vt 0.154730 0.931337
vt 0.025247 0.910674
vt 0.025311 0.889141
vt 0.025661 0.931343
vt 0.626567 0.752042
vt 0.615622 0.751850
vt 0.604570 0.751944
vt 0.625889 0.543561
vt 0.614801 0.544600
vt 0.603716 0.545094
vt 0.592342 0.779645
vt 0.603068 0.779480
vt 0.613458 0.779890
vt 0.592662 0.987829
vt 0.604111 0.988004
vt 0.612984 0.987697
vt 0.778356 0.537830
vt 0.777719 0.020217
vt 0.417373 0.537241
vt 0.416971 0.030010
vt 0.404021 0.534419
vt 0.403806 0.032861
vt 0.762830 0.273169
vt 0.427856 0.282099
vt 0.414529 0.282145
vt 0.793772 0.533348
vt 0.792695 0.024625
vt 0.778077 0.273160
vt 0.992310 0.798778
vt 0.992780 0.762404
vt 0.738256 0.780679
vt 0.739186 0.744380
vt 0.226525 0.786087
vt 0.226938 0.822539
vt 0.481679 0.779504
vt 0.481623 0.815915
vt 0.518047 0.770560
vt 0.499685 0.770560
vt 0.490498 0.770560
vt 0.517525 0.549229
vt 0.499162 0.549229
vt 0.489975 0.549229
vt 0.517525 0.757533
vt 0.499162 0.757533
vt 0.489975 0.757533
vt 0.518047 0.978861
vt 0.499685 0.978861
vt 0.490498 0.978861
vt 0.690659 0.550773
vt 0.691047 0.532415
vt 0.690273 0.569119
vt 0.645598 0.688044
vt 0.663967 0.688044
vt 0.673148 0.688044
vt 0.645598 0.901306
vt 0.663967 0.901306
vt 0.673148 0.901854
vt 0.794717 0.559552
vt 0.795105 0.541194
vt 0.794330 0.577898
vt 0.581752 0.928761
vt 0.581174 0.850796
vt 0.428337 0.589401
vt 0.185375 0.940474
vt 0.184798 0.862508
vt 0.422167 0.628815
vt 0.581703 0.758882
vt 0.582406 0.680920
vt 0.425993 0.542241
vt 0.185348 0.744554
vt 0.186052 0.666592
vt 0.420929 0.581485
vt 0.997947 0.619967
vt 0.828849 0.619967
vt 0.997947 0.013404
vt 0.828849 0.013404
vt 0.828849 0.013404
vt 0.828849 0.619967
vt 0.997947 0.619967
vt 0.997947 0.013404
vt 0.380413 0.038097
vt 0.381167 0.601168
vt 0.025424 0.030820
vt 0.024857 0.593504
vt 0.014668 0.043947
vt 0.012716 0.603791
vt 0.381459 0.292593
vt 0.025237 0.290375
vt 0.013426 0.302026
vt 0.394794 0.051992
vt 0.394853 0.614115
vt 0.395248 0.305052
vt 0.655037 0.964036
vt 0.655364 0.928316
vt 0.984165 0.953685
vt 0.983855 0.918657
vt 0.993037 0.650942
vt 0.992620 0.687341
vt 0.655107 0.624181
vt 0.655520 0.659277
vt 0.020392 0.870370
vt 0.047102 0.870370
vt 0.020392 0.613319
vt 0.047102 0.613319
vt 0.072926 0.870316
vt 0.099636 0.870316
vt 0.072926 0.613265
vt 0.099636 0.613265
vt 0.123510 0.617886
vt 0.145553 0.616921
vt 0.156580 0.616580
vt 0.126507 0.874293
vt 0.148620 0.872945
vt 0.159653 0.872101
vt 0.154911 0.889163
vt 0.154977 0.910690
vt 0.154730 0.931337
vt 0.025247 0.910674
vt 0.025311 0.889141
vt 0.025661 0.931343
vt 0.626567 0.752042
vt 0.615622 0.751850
vt 0.604570 0.751944
vt 0.625889 0.543561
vt 0.614801 0.544600
vt 0.603716 0.545094
vt 0.592342 0.779645
vt 0.603068 0.779480
vt 0.613458 0.779890
vt 0.592662 0.987829
vt 0.604111 0.988004
vt 0.612984 0.987697
vt 0.025424 0.030820
vt 0.025237 0.290375
vt 0.024857 0.593504
vt 0.381459 0.292593
vt 0.380413 0.038097
vt 0.394794 0.051992
vt 0.381459 0.292593
vt 0.381167 0.601168
vt 0.127188 0.618085
vt 0.115440 0.874166
vt 0.116122 0.617963
vt 0.025115 0.975307
vt 0.155118 0.975209
vt 0.593448 0.753082
vt 0.592606 0.543921
vt 0.601923 0.988640
vt 0.635504 0.989727
vt 0.635414 0.779257
vt 0.427856 0.282099
vt 0.417373 0.537241
vt 0.414529 0.282145
vt 0.416971 0.030010
vt 0.427856 0.282099
vt 0.778356 0.537830
vt 0.762830 0.273169
vt 0.778077 0.273160
vt 0.762830 0.273169
vt 0.777719 0.020217
vt 0.527234 0.978861
vt 0.527234 0.770560
vt 0.526712 0.757533
vt 0.526712 0.549229
vt 0.793943 0.596244
vt 0.689886 0.587466
vt 0.682335 0.688044
vt 0.682335 0.901307
vt 0.447828 0.588843
vt 0.428616 0.628383
vt 0.402684 0.627546
vt 0.422802 0.589849
vt 0.445482 0.541683
vt 0.426272 0.581221
vt 0.401446 0.580216
vt 0.421563 0.542519
vt 0.025237 0.290375
vt 0.025424 0.030820
vt 0.024857 0.593504
vt 0.381459 0.292593
vt 0.394794 0.051992
vt 0.380413 0.038097
vt 0.381459 0.292593
vt 0.381167 0.601168
vt 0.127188 0.618085
vt 0.116122 0.617963
vt 0.115440 0.874166
vt 0.025115 0.975307
vt 0.155118 0.975209
vt 0.593448 0.753082
vt 0.592606 0.543921
vt 0.601923 0.988640
vt 0.635504 0.989727
vt 0.635414 0.779257
vt 0.148620 0.872945
vt 0.145553 0.616921
vt 0.145553 0.616921
vt 0.126507 0.874293
vt 0.025247 0.910674
vt 0.025247 0.910674
vt 0.154977 0.910690
vt 0.025661 0.931343
vt 0.154730 0.931337
vt 0.154730 0.931337
vt 0.614801 0.544600
vt 0.615622 0.751850
vt 0.615622 0.751850
vt 0.603716 0.545094
vt 0.603716 0.545094
vt 0.604570 0.751944
vt 0.603068 0.779480
vt 0.603068 0.779480
vt 0.612984 0.987697
vt 0.613458 0.779890
vt 0.613458 0.779890
vt 0.499685 0.978861
vt 0.499685 0.770560
vt 0.499685 0.978861
vt 0.518047 0.978861
vt 0.518047 0.770560
vt 0.518047 0.770560
vt 0.499162 0.757533
vt 0.499162 0.549229
vt 0.499162 0.757533
vt 0.517525 0.757533
vt 0.517525 0.549229
vt 0.517525 0.549229
vt 0.690659 0.550773
vt 0.794717 0.559552
vt 0.794330 0.577898
vt 0.794330 0.577898
vt 0.690273 0.569119
vt 0.690659 0.550773
vt 0.663967 0.901306
vt 0.663967 0.901306
vt 0.663967 0.688044
vt 0.673148 0.901854
vt 0.673148 0.901854
vt 0.673148 0.688044
vt 0.145553 0.616921
vt 0.145553 0.616921
vt 0.148620 0.872945
vt 0.126507 0.874293
vt 0.154977 0.910690
vt 0.025247 0.910674
vt 0.025247 0.910674
vt 0.154730 0.931337
vt 0.154730 0.931337
vt 0.025661 0.931343
vt 0.615622 0.751850
vt 0.615622 0.751850
vt 0.614801 0.544600
vt 0.604570 0.751944
vt 0.603716 0.545094
vt 0.603716 0.545094
vt 0.603068 0.779480
vt 0.603068 0.779480
vt 0.613458 0.779890
vt 0.613458 0.779890
vt 0.612984 0.987697
vn -0.024858 0.40548300000000004 0.913765
vn 0.007895 0.42537100000000005 0.904985
vn 0.005855 0.45663800000000004 0.889634
vn 0.022053 0.40475000000000005 0.914162
vn 0.999999 -0.001129 6.913131181186809E-20
vn 1 -0.000904 5.535403532146036E-20
vn 0.013967 0.43086300000000005 0.902309
vn 0.036454 0.44590900000000006 0.894336
vn 0.999999 -0.001129 6.913131181186809E-20
vn -0.999843 0.006281000000000001 0.0166
vn -1 0.000904 -5.535403532146036E-20
vn -0.999999 0.001086 -6.649832119370127E-20
vn 0 0.41360800000000003 0.910455
vn 0 0.41360800000000003 0.910455
vn 0 0.41360800000000003 0.910455
vn 0 0.41360800000000003 0.910455
vn 0 0.3912320000000001 0.920292
vn 0 0.3912320000000001 0.920292
vn 0 0.3912320000000001 0.920292
vn 0 0.3912320000000001 0.920292
vn 1 0 0
vn 1 0 0
vn 1 0 0
vn 1 0 0
vn -1 0 0
vn -1 0 0
vn -1 0 0
vn -1 0 0
vn -0.382683 0.92388 -5.657133423981284E-17
vn 0.281084 -0.959683 5.876363570730647E-17
vn 1 1E-06 -6.123233995736766E-23
vn -0.382682 0.92388 -5.657133423981284E-17
vn -0.877355 -0.479842 -9.99999999970618E-07
vn 1 -1E-06 6.123233995736766E-23
vn 0.382683 0.92388 9.999999999434285E-07
vn -0.948683 0.316228 -1.9363380400038462E-17
vn 0.382684 -0.92388 5.657133423981284E-17
vn -0.948683 -0.316228 1.9363380400038462E-17
vn 0.382684 0.92388 9.999999999434285E-07
vn 0.382685 -0.923879 5.657127300747288E-17
vn -0.382684 0.923879 -5.657127300747288E-17
vn 0.281087 -0.959682 5.876357447496651E-17
vn 1 4E-06 -2.4492935982947065E-22
vn -0.382682 0.92388 9.999999999434285E-07
vn -0.877356 -0.479841 2.938178723748326E-17
vn 1 2E-06 9.999999999999997E-07
vn 0.382685 0.923879 1.9999999999434287E-06
vn -1 2E-06 -1.2246467991473532E-22
vn 0.877356 -0.479841 1.0000000000293818E-06
vn 0.382684 0.923879 9.999999999434287E-07
vn -1 -0 0
vn -0.281087 -0.959682 5.876357447496651E-17
vn -0.031948 -0.04800699999999994 0.998336
vn -0.027146 0.05930200000000006 0.997871
vn -0.027173 -0.03934299999999994 0.998856
vn -0.032901 0.04880100000000006 0.998267
vn 0.998524 -0.054321 3.3262019388241687E-18
vn 0.998555 0.053746 -3.2909933433486826E-18
vn -0.034217 0.013660000000000061 0.999321
vn -0.034211 -0.01925499999999994 0.999229
vn 0.998524 -0.054321 3.3262019388241687E-18
vn -0.997058 -0.076653 4.693642554752103E-18
vn -0.996695 0.081231 -4.9739642070769326E-18
vn -0.997058 -0.076653 4.693642554752103E-18
vn 0 6.123233995736766E-17 1
vn 0 6.123233995736766E-17 1
vn 0 6.123233995736766E-17 1
vn 0 6.123233995736766E-17 1
vn 0 6.123233995736766E-17 1
vn 0 6.123233995736766E-17 1
vn 0 6.123233995736766E-17 1
vn 0 6.123233995736766E-17 1
vn 0.281088 -0.959682 1.0000000000587635E-06
vn -0.877355 0.479841 -1.0000000000293818E-06
vn 0.948683 0.316229 -1.9363441632378416E-17
vn 0.281085 -0.959683 5.876363570730647E-17
vn -0.877355 0.479841 -2.938178723748326E-17
vn 0.948683 0.316228 -1.9363380400038462E-17
vn -0.877355 -0.479842 2.9381848469823214E-17
vn 0.281085 0.959683 -5.876363570730647E-17
vn 0.948683 -0.316227 1.9363319167698502E-17
vn -0.877356 -0.479841 2.938178723748326E-17
vn 0.281083 0.959684 -5.876369693964643E-17
vn 0.948684 -0.316225 1.0000000000193631E-06
vn 0.382682 -0.92388 1.0000000000565714E-06
vn 0.382682 0.92388 -1.0000000000565714E-06
vn -0.948683 0.316229 -1.9363441632378416E-17
vn 0.382683 -0.92388 5.657133423981284E-17
vn 0.382683 0.92388 -5.657133423981284E-17
vn -0.948683 0.316228 -1.9363380400038462E-17
vn 0.382683 -0.92388 5.657133423981284E-17
vn 0.382683 0.92388 -5.657133423981284E-17
vn -0.948683 -0.316228 1.9363380400038462E-17
vn 0.382681 -0.923881 1.0000000000565714E-06
vn 0.382684 0.923879 -5.657127300747288E-17
vn -0.948685 -0.316224 1.0000000000193631E-06
vn -0 -9.999999999387675E-07 1
vn -0 6.123233995736766E-17 1
vn 1 0 0
vn -0 6.123233995736766E-17 1
vn -0 6.123233995736766E-17 1
vn -1 0 0
vn -0 6.123233995736766E-17 1
vn -0 6.123233995736766E-17 1
vn 1 0 0
vn -0 6.123233995736766E-17 1
vn -0 6.123233995736766E-17 1
vn -1 0 0
vn -1 0 0
vn -1 0 0
vn -1 0 0
vn -1 0 0
vn 1 0 0
vn 1 0 0
vn 1 0 0
vn 1 0 0
vn -0.024858 -0.40548199999999995 0.913765
vn 0.007895 -0.42537099999999994 0.904985
vn 0.005855 -0.45663699999999996 0.889634
vn 0.022053 -0.40474999999999994 0.914162
vn 0.999999 0.001129 -6.913131181186809E-20
vn 1 0.000904 -5.535403532146036E-20
vn 0.013967 -0.43086299999999994 0.902309
vn 0.036455 -0.44590899999999994 0.894336
vn 0.999999 0.001129 -6.913131181186809E-20
vn -0.999999 -0.001086 6.649832119370127E-20
vn -1 -0.000904 5.535403532146036E-20
vn -0.999999 -0.001086 6.649832119370127E-20
vn 0 -0.4112549999999999 0.91152
vn 0 -0.4112549999999999 0.91152
vn 0 -0.4112549999999999 0.91152
vn 0 -0.4112549999999999 0.91152
vn 0 -0.39574999999999994 0.918359
vn 0 -0.39574999999999994 0.918359
vn 0 -0.39574999999999994 0.918359
vn 0 -0.39574999999999994 0.918359
vn 1 0 0
vn 1 0 0
vn 1 0 0
vn 1 0 0
vn -1 0 0
vn -1 0 0
vn -1 0 0
vn -1 0 0
vn -0.382684 -0.923879 5.657127300747288E-17
vn 0.281087 0.959682 -5.876357447496651E-17
vn 1 -4E-06 2.4492935982947065E-22
vn -0.382682 -0.92388 1.0000000000565714E-06
vn -0.877356 0.479841 -2.938178723748326E-17
vn 1 -2E-06 1.0000000000000002E-06
vn 0.382685 -0.923879 2.000000000056571E-06
vn -0.948683 -0.31623 1.9363502864718376E-17
vn 0.382683 0.92388 9.999999999434285E-07
vn -0.948684 0.316226 -1.9363257935358545E-17
vn 0.382684 -0.923879 1.0000000000565712E-06
vn 0.382683 0.92388 -5.657133423981284E-17
vn -0.382684 -0.923879 5.657127300747288E-17
vn 0.281087 0.959682 -5.876357447496651E-17
vn 1 -4E-06 2.4492935982947065E-22
vn -0.382682 -0.92388 1.0000000000565714E-06
vn -0.877356 0.479841 -1.0000000000293818E-06
vn 1 -2E-06 1.0000000000000002E-06
vn 0.382685 -0.923879 2.000000000056571E-06
vn -1 -2E-06 1.2246467991473532E-22
vn 0.877356 0.479841 9.99999999970618E-07
vn 0.382684 -0.923879 2.000000000056571E-06
vn -1 -0 0
vn -0.281087 0.959682 -5.876357447496651E-17
vn 0.999999 -0.001129 6.913131181186809E-20
vn 0.999999 -0.001129 6.913131181186809E-20
vn 1 -0.000904 5.535403532146036E-20
vn -0.999843 0.006281000000000001 0.0166
vn -0.999843 0.006281000000000001 0.0166
vn -0.999999 0.001086 -6.649832119370127E-20
vn -0.999999 0.001086 -6.649832119370127E-20
vn -1 0.000904 -5.535403532146036E-20
vn -0.382683 0.92388 -5.657133423981284E-17
vn 1 -1E-06 6.123233995736766E-23
vn 1 1E-06 -6.123233995736766E-23
vn 0.382684 0.92388 9.999999999434285E-07
vn 0.382683 0.92388 9.999999999434285E-07
vn -0.382684 0.923879 -5.657127300747288E-17
vn -0.382682 0.92388 9.999999999434285E-07
vn -1 -0 0
vn 0.382684 0.923879 9.999999999434287E-07
vn 0.382685 0.923879 1.9999999999434287E-06
vn 0.998524 -0.054321 3.3262019388241687E-18
vn 0.998524 -0.054321 3.3262019388241687E-18
vn 0.998555 0.053746 -3.2909933433486826E-18
vn 0.998555 0.053746 -3.2909933433486826E-18
vn 0.998555 0.053746 -3.2909933433486826E-18
vn -0.997058 -0.076653 4.693642554752103E-18
vn -0.997058 -0.076653 4.693642554752103E-18
vn -0.996695 0.081231 -4.9739642070769326E-18
vn -0.996695 0.081231 -4.9739642070769326E-18
vn -0.996695 0.081231 -4.9739642070769326E-18
vn 0.948684 -0.316225 1.0000000000193631E-06
vn 0.948683 0.316229 -1.9363441632378416E-17
vn 0.948683 -0.316227 1.9363319167698502E-17
vn 0.948683 0.316228 -1.9363380400038462E-17
vn 0.382684 0.923879 -5.657127300747288E-17
vn 0.382682 0.92388 -1.0000000000565714E-06
vn 0.382683 -0.92388 5.657133423981284E-17
vn 0.382683 -0.92388 5.657133423981284E-17
vn 1 0 0
vn 1 0 0
vn -1 0 0
vn -1 0 0
vn 1 0 0
vn 1 0 0
vn -1 0 0
vn -1 0 0
vn 0.999999 0.001129 -6.913131181186809E-20
vn 0.999999 0.001129 -6.913131181186809E-20
vn 1 0.000904 -5.535403532146036E-20
vn -0.999999 -0.001086 6.649832119370127E-20
vn -0.999843 -0.006280999999999999 0.0166
vn -0.999843 -0.006280999999999999 0.0166
vn -0.999843 -0.006280999999999999 0.0166
vn -1 -0.000904 5.535403532146036E-20
vn -0.382684 -0.923879 5.657127300747288E-17
vn 1 -4E-06 2.4492935982947065E-22
vn 1 -2E-06 1.0000000000000002E-06
vn 0.382684 -0.923879 1.0000000000565712E-06
vn 0.382685 -0.923879 2.000000000056571E-06
vn -0.382684 -0.923879 5.657127300747288E-17
vn -0.382682 -0.92388 1.0000000000565714E-06
vn -1 -0 0
vn 0.382684 -0.923879 2.000000000056571E-06
vn 0.382685 -0.923879 2.000000000056571E-06
vn -0.877355 -0.479842 -9.99999999970618E-07
vn 0.281084 -0.959683 5.876363570730647E-17
vn 0.281084 -0.959683 5.876363570730647E-17
vn -0.382682 0.92388 -5.657133423981284E-17
vn -0.948683 -0.316228 1.9363380400038462E-17
vn -0.948683 -0.316228 1.9363380400038462E-17
vn -0.948683 0.316228 -1.9363380400038462E-17
vn 0.382685 -0.923879 5.657127300747288E-17
vn 0.382684 -0.92388 5.657133423981284E-17
vn 0.382684 -0.92388 5.657133423981284E-17
vn -0.877356 -0.479841 2.938178723748326E-17
vn 0.281087 -0.959682 5.876357447496651E-17
vn 0.281087 -0.959682 5.876357447496651E-17
vn 1 2E-06 9.999999999999997E-07
vn 1 2E-06 9.999999999999997E-07
vn 1 4E-06 -2.4492935982947065E-22
vn -1 2E-06 -1.2246467991473532E-22
vn -1 2E-06 -1.2246467991473532E-22
vn -0.281087 -0.959682 5.876357447496651E-17
vn 0.877356 -0.479841 1.0000000000293818E-06
vn 0.877356 -0.479841 1.0000000000293818E-06
vn 0.281083 0.959684 -5.876369693964643E-17
vn -0.877355 0.479841 -1.0000000000293818E-06
vn 0.281083 0.959684 -5.876369693964643E-17
vn -0.877356 -0.479841 2.938178723748326E-17
vn 0.281088 -0.959682 1.0000000000587635E-06
vn 0.281088 -0.959682 1.0000000000587635E-06
vn 0.281085 0.959683 -5.876363570730647E-17
vn -0.877355 0.479841 -2.938178723748326E-17
vn 0.281085 0.959683 -5.876363570730647E-17
vn -0.877355 -0.479842 2.9381848469823214E-17
vn 0.281085 -0.959683 5.876363570730647E-17
vn 0.281085 -0.959683 5.876363570730647E-17
vn 0.382682 -0.92388 1.0000000000565714E-06
vn 0.382681 -0.923881 1.0000000000565714E-06
vn -0.948685 -0.316224 1.0000000000193631E-06
vn -0.948685 -0.316224 1.0000000000193631E-06
vn -0.948683 0.316229 -1.9363441632378416E-17
vn 0.382682 -0.92388 1.0000000000565714E-06
vn 0.382683 0.92388 -5.657133423981284E-17
vn 0.382683 0.92388 -5.657133423981284E-17
vn 0.382683 0.92388 -5.657133423981284E-17
vn -0.948683 -0.316228 1.9363380400038462E-17
vn -0.948683 -0.316228 1.9363380400038462E-17
vn -0.948683 0.316228 -1.9363380400038462E-17
vn 0.281087 0.959682 -5.876357447496651E-17
vn 0.281087 0.959682 -5.876357447496651E-17
vn -0.877356 0.479841 -2.938178723748326E-17
vn -0.382682 -0.92388 1.0000000000565714E-06
vn -0.948683 -0.31623 1.9363502864718376E-17
vn -0.948684 0.316226 -1.9363257935358545E-17
vn -0.948684 0.316226 -1.9363257935358545E-17
vn 0.382683 0.92388 9.999999999434285E-07
vn 0.382683 0.92388 9.999999999434285E-07
vn 0.382683 0.92388 -5.657133423981284E-17
vn 0.281087 0.959682 -5.876357447496651E-17
vn 0.281087 0.959682 -5.876357447496651E-17
vn -0.877356 0.479841 -1.0000000000293818E-06
vn 1 -4E-06 2.4492935982947065E-22
vn 1 -2E-06 1.0000000000000002E-06
vn 1 -2E-06 1.0000000000000002E-06
vn -1 -2E-06 1.2246467991473532E-22
vn -1 -2E-06 1.2246467991473532E-22
vn 0.877356 0.479841 9.99999999970618E-07
vn 0.877356 0.479841 9.99999999970618E-07
vn -0.281087 0.959682 -5.876357447496651E-17
g 04 - Default
f 229/229/229 296/296/296 295/295/295
f 294/294/294 230/230/230 229/229/229
f 168/168/168 228/228/228 293/293/293
f 292/292/292 165/165/165 168/168/168
f 164/164/164 167/167/167 166/166/166
f 166/166/166 163/163/163 164/164/164
f 226/226/226 227/227/227 291/291/291
f 290/290/290 289/289/289 226/226/226
f 162/162/162 288/288/288 287/287/287
f 286/286/286 159/159/159 162/162/162
f 161/161/161 160/160/160 157/157/157
f 157/157/157 158/158/158 161/161/161
f 224/224/224 285/285/285 284/284/284
f 283/283/283 225/225/225 224/224/224
f 153/153/153 156/156/156 282/282/282
f 281/281/281 280/280/280 153/153/153
f 152/152/152 154/154/154 155/155/155
f 155/155/155 151/151/151 152/152/152
f 221/221/221 279/279/279 223/223/223
f 223/223/223 222/222/222 221/221/221
f 150/150/150 278/278/278 277/277/277
f 276/276/276 147/147/147 150/150/150
f 149/149/149 148/148/148 145/145/145
f 145/145/145 146/146/146 149/149/149
f 144/144/144 143/143/143 141/141/141
f 141/141/141 142/142/142 144/144/144
f 139/139/139 140/140/140 138/138/138
f 138/138/138 137/137/137 139/139/139
f 136/136/136 135/135/135 133/133/133
f 133/133/133 134/134/134 136/136/136
f 132/132/132 131/131/131 129/129/129
f 129/129/129 130/130/130 132/132/132
f 128/128/128 127/127/127 220/220/220
f 220/220/220 216/216/216 128/128/128
f 219/219/219 218/218/218 217/217/217
f 126/126/126 128/128/128 216/216/216
f 125/125/125 213/213/213 215/215/215
f 215/215/215 122/122/122 125/125/125
f 120/120/120 124/124/124 123/123/123
f 123/123/123 118/118/118 120/120/120
f 121/121/121 214/214/214 213/213/213
f 213/213/213 125/125/125 121/121/121
f 123/123/123 124/124/124 119/119/119
f 119/119/119 117/117/117 123/123/123
f 115/115/115 114/114/114 113/113/113
f 113/113/113 116/116/116 115/115/115
f 109/109/109 111/111/111 112/112/112
f 112/112/112 110/110/110 109/109/109
f 212/212/212 211/211/211 108/108/108
f 105/105/105 210/210/210 209/209/209
f 106/106/106 103/103/103 104/104/104
f 104/104/104 107/107/107 106/106/106
f 208/208/208 207/207/207 102/102/102
f 99/99/99 206/206/206 205/205/205
f 100/100/100 97/97/97 98/98/98
f 98/98/98 101/101/101 100/100/100
f 203/203/203 275/275/275 274/274/274
f 273/273/273 204/204/204 203/203/203
f 90/90/90 272/272/272 271/271/271
f 270/270/270 93/93/93 90/90/90
f 92/92/92 89/89/89 88/88/88
f 88/88/88 91/91/91 92/92/92
f 269/269/269 268/268/268 267/267/267
f 266/266/266 265/265/265 264/264/264
f 87/87/87 202/202/202 201/201/201
f 201/201/201 96/96/96 87/87/87
f 95/95/95 86/86/86 85/85/85
f 85/85/85 94/94/94 95/95/95
f 199/199/199 200/200/200 263/263/263
f 262/262/262 261/261/261 199/199/199
f 260/260/260 259/259/259 78/78/78
f 78/78/78 81/81/81 258/258/258
f 79/79/79 76/76/76 77/77/77
f 77/77/77 80/80/80 79/79/79
f 197/197/197 198/198/198 257/257/257
f 256/256/256 255/255/255 197/197/197
f 254/254/254 253/253/253 75/75/75
f 75/75/75 84/84/84 252/252/252
f 82/82/82 73/73/73 74/74/74
f 74/74/74 83/83/83 82/82/82
f 72/72/72 71/71/71 69/69/69
f 69/69/69 70/70/70 72/72/72
f 68/68/68 67/67/67 65/65/65
f 65/65/65 66/66/66 68/68/68
f 194/194/194 63/63/63 196/196/196
f 196/196/196 195/195/195 194/194/194
f 62/62/62 64/64/64 193/193/193
f 193/193/193 192/192/192 62/62/62
f 189/189/189 191/191/191 190/190/190
f 190/190/190 58/58/58 189/189/189
f 57/57/57 188/188/188 187/187/187
f 187/187/187 61/61/61 57/57/57
f 59/59/59 54/54/54 56/56/56
f 56/56/56 60/60/60 59/59/59
f 60/60/60 55/55/55 53/53/53
f 53/53/53 59/59/59 60/60/60
f 185/185/185 186/186/186 251/251/251
f 250/250/250 249/249/249 185/185/185
f 52/52/52 49/49/49 248/248/248
f 247/247/247 184/184/184 52/52/52
f 48/48/48 47/47/47 50/50/50
f 50/50/50 51/51/51 48/48/48
f 182/182/182 246/246/246 245/245/245
f 244/244/244 183/183/183 182/182/182
f 46/46/46 43/43/43 243/243/243
f 242/242/242 241/241/241 46/46/46
f 45/45/45 42/42/42 41/41/41
f 41/41/41 44/44/44 45/45/45
f 180/180/180 181/181/181 240/240/240
f 239/239/239 238/238/238 180/180/180
f 37/37/37 237/237/237 236/236/236
f 235/235/235 40/40/40 37/37/37
f 36/36/36 35/35/35 39/39/39
f 39/39/39 38/38/38 36/36/36
f 177/177/177 179/179/179 178/178/178
f 178/178/178 234/234/234 177/177/177
f 34/34/34 31/31/31 233/233/233
f 232/232/232 231/231/231 34/34/34
f 33/33/33 30/30/30 29/29/29
f 29/29/29 32/32/32 33/33/33
f 28/28/28 26/26/26 25/25/25
f 25/25/25 27/27/27 28/28/28
f 23/23/23 21/21/21 22/22/22
f 22/22/22 24/24/24 23/23/23
f 18/18/18 17/17/17 19/19/19
f 19/19/19 20/20/20 18/18/18
f 14/14/14 13/13/13 15/15/15
f 15/15/15 16/16/16 14/14/14
f 12/12/12 175/175/175 176/176/176
f 176/176/176 11/11/11 12/12/12
f 175/175/175 12/12/12 174/174/174
f 10/10/10 173/173/173 172/172/172
f 9/9/9 6/6/6 171/171/171
f 171/171/171 170/170/170 9/9/9
f 4/4/4 2/2/2 7/7/7
f 7/7/7 8/8/8 4/4/4
f 5/5/5 9/9/9 170/170/170
f 170/170/170 169/169/169 5/5/5
f 7/7/7 1/1/1 3/3/3
f 3/3/3 8/8/8 7/7/7
