v 0.625024 0.754554 0.07172699999999996
v 0.625024 0.247193 0.07172699999999999
v 0.231946 -0.156247 0.07172700000000001
v -0.226681 1.119425 0.07172699999999993
v 0.260333 1.119425 0.07172699999999993
v 0.233191 -0.274935 0.08252200000000001
v -0.591372 0.247193 0.07172699999999999
v -0.591372 0.754554 0.07172699999999996
v -0.203395 -0.156247 0.07172700000000001
v -0.20464 -0.274935 0.08252200000000001
v -1.813867 -1.200068 1.132321
v -1.757562 -0.9936569999999999 1.132321
v -1.730221 -1.353713 1.132321
v -1.555621 -1.364589 1.132321
v -1.392346 -1.226326 1.132321
v -1.336038 -1.019915 1.132321
v -1.419686 -0.8662699999999999 1.132321
v -1.594286 -0.8553929999999998 1.132321
v 1.787004 -0.9936569999999999 1.114845
v 1.843309 -1.200068 1.114845
v 1.759663 -1.353713 1.114845
v 1.585063 -1.364589 1.114845
v 1.421788 -1.226326 1.114845
v 1.365481 -1.019915 1.114845
v 1.449128 -0.8662699999999999 1.114845
v 1.623728 -0.8553929999999998 1.114845
v -0.203395 -0.156247 0.07172700000000001
v 0.231946 -0.156247 0.07172700000000001
vt 0.748910 0.750823
vt 0.668237 0.750823
vt 0.586876 0.750823
vt 0.908493 0.750823
vt 0.828480 0.750823
vt 0.571131 0.755259
vt 0.681680 0.750823
vt 0.761250 0.750823
vt 0.592585 0.750823
vt 0.571131 0.750823
vt 0.430537 0.009247
vt 0.400773 0.009247
vt 0.453570 0.009247
vt 0.258951 0.009247
vt 0.286752 0.009247
vt 0.316539 0.009247
vt 0.342691 0.009247
vt 0.369399 0.009247
vt 0.400773 0.009247
vt 0.430537 0.009247
vt 0.237812 0.009247
vt 0.258951 0.009247
vt 0.286752 0.009247
vt 0.316539 0.009247
vt 0.342691 0.009247
vt 0.369399 0.009247
vt 0.592585 0.750823
vt 0.586876 0.750823
vn 0 6.123233995736766E-17 1
vn -0 6.123233995736766E-17 1
vn 0 0.09058100000000005 0.995889
vn 0 6.123233995736766E-17 1
vn 0 6.123233995736766E-17 1
vn 0 0.09058100000000005 0.995889
vn 0 6.123233995736766E-17 1
vn 0 6.123233995736766E-17 1
vn 0 6.123233995736766E-17 1
vn 0 0.09058100000000005 0.995889
vn -0 6.123233995736766E-17 1
vn 0 6.123233995736766E-17 1
vn 0 6.123233995736766E-17 1
vn 0 6.123233995736766E-17 1
vn 0 6.123233995736766E-17 1
vn 0 6.123233995736766E-17 1
vn 0 6.123233995736766E-17 1
vn 0 6.123233995736766E-17 1
vn 0 6.123233995736766E-17 1
vn -0 6.123233995736766E-17 1
vn -0 6.123233995736766E-17 1
vn -0 6.123233995736766E-17 1
vn -0 6.123233995736766E-17 1
vn 0 6.123233995736766E-17 1
vn 0 6.123233995736766E-17 1
vn 0 6.123233995736766E-17 1
vn 0 0.09058100000000005 0.995889
vn 0 6.123233995736766E-17 1
g 01
f 19/19/19 26/26/26 20/20/20
f 26/26/26 24/24/24 20/20/20
f 24/24/24 22/22/22 20/20/20
f 22/22/22 21/21/21 20/20/20
f 24/24/24 23/23/23 22/22/22
f 26/26/26 25/25/25 24/24/24
f 11/11/11 13/13/13 12/12/12
f 13/13/13 15/15/15 12/12/12
f 15/15/15 17/17/17 12/12/12
f 17/17/17 18/18/18 12/12/12
f 15/15/15 16/16/16 17/17/17
f 13/13/13 14/14/14 15/15/15
f 1/1/1 28/28/28 2/2/2
f 1/1/1 4/4/4 28/28/28
f 4/4/4 9/9/9 28/28/28
f 27/27/27 6/6/6 3/3/3
f 27/27/27 10/10/10 6/6/6
f 4/4/4 7/7/7 9/9/9
f 4/4/4 8/8/8 7/7/7
f 1/1/1 5/5/5 4/4/4
