v 0.112287 0.192926 -0.00030400000000001183
v 0.068044 0.077847 -0.0003040000000000048
v 0.068044 0.07784700000000001 0.245398
v 0.093442 0.168613 0.203113
v -0.038115 0.053147000000000014 0.25552
v -0.036823 0.048893 -0.000304000000000003
v -0.161867 0.320127 -0.00030400000000001964
v -0.082832 0.268988 0.24693199999999998
v 0.448322 0.02108500000000001 0.166841
v 0.25466 -0.05050299999999999 0.166843
v 0.130219 0.262698 0.16683899999999996
v 0.336158 0.332515 0.16680599999999998
v 0.444968 0.021804 0.0032189999999999988
v 0.25392 -0.051851 0.003219000000000003
v 0.133363 0.261759 0.003218999999999984
v 0.337322 0.333115 0.0032189999999999797
v -0.167492 -0.134687 0.128356
v 0.128959 0.08133000000000001 0.128356
v 0.23442 -0.06411399999999999 0.128356
v -0.062233 -0.279395 0.12835600000000003
v -0.167492 -0.134687 -0.0004359999999999918
v 0.128959 0.08133 -0.000436000000000005
v 0.23442 -0.064114 -0.0004359999999999961
v -0.062233 -0.279395 -0.0004359999999999829
v 0.194475 -0.147504 0.129515
v -0.158989 -0.230987 0.12910600000000003
v -0.172697 -0.162406 0.151561
v -0.186063 -0.09428799999999998 0.130717
v 0.162156 -0.01190199999999999 0.129518
v 0.178397 -0.07968499999999999 0.151125
v -0.229451 -0.067615 4.140224666217414E-18
v -0.272414 0.072196 -4.4207300155621155E-18
v -0.132633 0.115071 -7.046066591234255E-18
v -0.089658 -0.024739 1.5148268582053185E-18
v -0.22978 -0.06447099999999999 0.291623
v -0.273018 0.07514000000000001 0.291623
v -0.133688 0.11749500000000002 0.291623
v -0.090338 -0.022106999999999984 0.291623
v -0.257418 -0.369214 0.09499900000000003
v -0.439438 -0.140468 0.09499900000000001
v -0.293187 -0.024000999999999995 0.094999
v -0.111068 -0.252732 0.09499900000000001
v -0.439438 -0.140468 0.0003990000000000086
v -0.293187 -0.024001 0.0003980000000000015
v -0.111068 -0.252732 0.0003980000000000155
v -0.257418 -0.369213 0.0003990000000000226
v -0.232875 0.295069 -0.0021540000000000183
v -0.182323 0.186877 -0.0021540000000000114
v -0.290495 0.137259 -0.0021540000000000083
v -0.341097 0.245698 -0.0021540000000000153
v -0.233054 0.295704 0.20804599999999998
v -0.182531 0.187403 0.208046
v -0.290843 0.137706 0.208046
v -0.341336 0.246116 0.20804599999999998
v -0.082832 0.268988 0.24693199999999998
v -0.161867 0.320127 -0.00030400000000001964
v 0.093442 0.168613 0.203113
v 0.068044 0.07784700000000001 0.245398
v -0.038115 0.053147000000000014 0.25552
v -0.082832 0.268988 0.24693199999999998
v 0.25466 -0.05050299999999999 0.166843
v 0.448322 0.02108500000000001 0.166841
v 0.336158 0.332515 0.16680599999999998
v 0.130219 0.262698 0.16683899999999996
v 0.337322 0.333115 0.0032189999999999797
v 0.444968 0.021804 0.0032189999999999988
v 0.448322 0.02108500000000001 0.166841
v 0.336158 0.332515 0.16680599999999998
v 0.25466 -0.05050299999999999 0.166843
v 0.25392 -0.051851 0.003219000000000003
v 0.133363 0.261759 0.003218999999999984
v 0.130219 0.262698 0.16683899999999996
v 0.128959 0.08133000000000001 0.128356
v -0.167492 -0.134687 0.128356
v 0.23442 -0.06411399999999999 0.128356
v 0.128959 0.08133000000000001 0.128356
v 0.128959 0.08133 -0.000436000000000005
v -0.062233 -0.279395 0.12835600000000003
v 0.23442 -0.06411399999999999 0.128356
v 0.23442 -0.064114 -0.0004359999999999961
v -0.167492 -0.134687 0.128356
v -0.062233 -0.279395 0.12835600000000003
v -0.062233 -0.279395 -0.0004359999999999829
v -0.167492 -0.134687 -0.0004359999999999918
v -0.158989 -0.230987 0.12910600000000003
v 0.178397 -0.07968499999999999 0.151125
v 0.178397 -0.07968499999999999 0.151125
v -0.172697 -0.162406 0.151561
v -0.172697 -0.162406 0.151561
v 0.162156 -0.01190199999999999 0.129518
v -0.090338 -0.022106999999999984 0.291623
v -0.089658 -0.024739 1.5148268582053185E-18
v -0.273018 0.07514000000000001 0.291623
v -0.133688 0.11749500000000002 0.291623
v -0.090338 -0.022106999999999984 0.291623
v -0.22978 -0.06447099999999999 0.291623
v -0.293187 -0.024001 0.0003980000000000015
v -0.111068 -0.252732 0.0003980000000000155
v -0.257418 -0.369213 0.0003990000000000226
v -0.439438 -0.140468 0.0003990000000000086
v -0.341097 0.245698 -0.0021540000000000153
v -0.341336 0.246116 0.20804599999999998
v -0.290843 0.137706 0.208046
v -0.341336 0.246116 0.20804599999999998
v -0.182531 0.187403 0.208046
v -0.233054 0.295704 0.20804599999999998
v 0.112287 0.192926 -0.00030400000000001183
v 0.112287 0.192926 -0.00030400000000001183
v 0.093442 0.168613 0.203113
v -0.036823 0.048893 -0.000304000000000003
v -0.036823 0.048893 -0.000304000000000003
v -0.038115 0.053147000000000014 0.25552
v -0.273018 0.07514000000000001 0.291623
v -0.272414 0.072196 -4.4207300155621155E-18
v -0.273018 0.07514000000000001 0.291623
v -0.133688 0.11749500000000002 0.291623
v -0.132633 0.115071 -7.046066591234255E-18
v -0.133688 0.11749500000000002 0.291623
v -0.229451 -0.067615 4.140224666217414E-18
v -0.229451 -0.067615 4.140224666217414E-18
v -0.22978 -0.06447099999999999 0.291623
v -0.293187 -0.024000999999999995 0.094999
v -0.439438 -0.140468 0.09499900000000001
v -0.293187 -0.024000999999999995 0.094999
v -0.111068 -0.252732 0.09499900000000001
v -0.293187 -0.024000999999999995 0.094999
v -0.111068 -0.252732 0.09499900000000001
v -0.257418 -0.369214 0.09499900000000003
v -0.111068 -0.252732 0.09499900000000001
v -0.257418 -0.369214 0.09499900000000003
v -0.439438 -0.140468 0.09499900000000001
v -0.257418 -0.369214 0.09499900000000003
v -0.439438 -0.140468 0.09499900000000001
v -0.233054 0.295704 0.20804599999999998
v -0.232875 0.295069 -0.0021540000000000183
v -0.232875 0.295069 -0.0021540000000000183
v -0.182531 0.187403 0.208046
v -0.182323 0.186877 -0.0021540000000000114
v -0.182323 0.186877 -0.0021540000000000114
v -0.290843 0.137706 0.208046
v -0.290843 0.137706 0.208046
v -0.290495 0.137259 -0.0021540000000000083
vt 0.176093 0.378177
vt 0.176093 0.393742
vt 0.214916 0.393742
vt 0.214916 0.378177
vt 0.214916 0.406801
vt 0.176093 0.406801
vt 0.176139 0.436601
vt 0.214221 0.430883
vt 0.858378 0.297944
vt 0.858519 0.266850
vt 0.817380 0.266991
vt 0.816777 0.298038
vt 0.789583 0.229291
vt 0.816322 0.229291
vt 0.720183 0.229522
vt 0.747518 0.229522
vt 0.774114 0.006345
vt 0.682336 0.006345
vt 0.682336 0.045058
vt 0.774114 0.045058
vt 0.432119 0.006345
vt 0.312378 0.006345
vt 0.623466 0.006345
vt 0.498930 0.006345
vt 0.380398 0.576553
vt 0.380397 0.517556
vt 0.366882 0.517556
vt 0.353603 0.517556
vt 0.353604 0.576553
vt 0.366883 0.576553
vt 0.452552 0.219309
vt 0.485521 0.219309
vt 0.518284 0.219309
vt 0.548997 0.219309
vt 0.452552 0.166611
vt 0.485521 0.166611
vt 0.518284 0.166611
vt 0.548997 0.166611
vt 0.186429 0.020763
vt 0.154006 0.020763
vt 0.154006 0.043239
vt 0.186429 0.043239
vt 0.144353 0.020455
vt 0.144353 0.042931
vt 0.186429 0.054451
vt 0.194034 0.020763
vt 0.020784 0.032533
vt 0.034702 0.032533
vt 0.049997 0.032533
vt 0.006397 0.032533
vt 0.020784 0.008445
vt 0.034702 0.008445
vt 0.049997 0.008445
vt 0.006397 0.008445
vt 0.214916 0.344158
vt 0.176093 0.344158
vt 0.691264 0.423366
vt 0.678648 0.414803
vt 0.663465 0.420314
vt 0.678261 0.448073
vt 0.816322 0.205930
vt 0.789574 0.205850
vt 0.747509 0.205944
vt 0.720143 0.206161
vt 0.747518 0.229522
vt 0.789583 0.229291
vt 0.789574 0.205850
vt 0.747509 0.205944
vt 0.816322 0.205930
vt 0.816322 0.229291
vt 0.858387 0.229059
vt 0.858387 0.205698
vt 0.312378 0.045058
vt 0.432118 0.045058
vt 0.623466 0.045058
vt 0.678375 0.045058
vt 0.678375 0.006345
vt 0.498930 0.045058
vt 0.618142 0.045058
vt 0.618142 0.006345
vt 0.435329 0.045058
vt 0.495251 0.045058
vt 0.495251 0.006345
vt 0.435329 0.006345
vt 0.380397 0.517556
vt 0.366883 0.576553
vt 0.366883 0.576553
vt 0.366882 0.517556
vt 0.366882 0.517556
vt 0.353604 0.576553
vt 0.421574 0.166611
vt 0.421574 0.219309
vt 0.490757 0.235212
vt 0.467522 0.225247
vt 0.457896 0.249305
vt 0.481134 0.259271
vt 0.154006 0.054451
vt 0.194034 0.043239
vt 0.186429 0.008706
vt 0.154006 0.008706
vt 0.064000 0.032533
vt 0.064000 0.008445
vt 0.016160 0.037136
vt 0.005778 0.041555
vt 0.020454 0.047797
vt 0.010083 0.052205
vt 0.176093 0.378177
vt 0.176093 0.378177
vt 0.214916 0.378177
vt 0.176093 0.406801
vt 0.176093 0.406801
vt 0.214916 0.406801
vt 0.485521 0.166611
vt 0.485521 0.219309
vt 0.485521 0.166611
vt 0.518284 0.166611
vt 0.518284 0.219309
vt 0.518284 0.166611
vt 0.452552 0.219309
vt 0.452552 0.219309
vt 0.452552 0.166611
vt 0.154006 0.043239
vt 0.154006 0.020763
vt 0.154006 0.043239
vt 0.186429 0.043239
vt 0.154006 0.043239
vt 0.186429 0.043239
vt 0.186429 0.020763
vt 0.186429 0.043239
vt 0.186429 0.020763
vt 0.154006 0.020763
vt 0.186429 0.020763
vt 0.154006 0.020763
vt 0.020784 0.008445
vt 0.020784 0.032533
vt 0.020784 0.032533
vt 0.034702 0.008445
vt 0.034702 0.032533
vt 0.034702 0.032533
vt 0.049997 0.008445
vt 0.049997 0.008445
vt 0.049997 0.032533
vn 0.923759 0.373338 0.08536999999999997
vn 0.671757 -0.740772 4.5359202934899153E-17
vn 0.686159 -0.727109 0.022348000000000045
vn 0.919305 0.371601 0.12958199999999997
vn -0.712208 -0.690874 0.12431300000000005
vn -0.172989 -0.984889 0.00824100000000006
vn -0.956137 0.201053 0.213024
vn -0.005632 0.95834 0.28557499999999997
vn 5.4E-05 8.200000000006123E-05 1
vn 2E-06 1.4000000000061232E-05 1
vn 5.4E-05 8.200000000006123E-05 1
vn 0.000105 0.00015000000000006122 1
vn 0.3597 -0.932998 -0.011470999999999943
vn 0.35323 -0.935533 -0.0026549999999999426
vn -0.325649 0.945476 -0.005245000000000058
vn -0.330229 0.9439 0.0011129999999999422
vn 0 6.123233995736766E-17 1
vn 0 6.123233995736766E-17 1
vn 0 6.123233995736766E-17 1
vn 0 6.123233995736766E-17 1
vn -0.588912 0.808197 -4.9487793456524676E-17
vn -0.588912 0.808197 -4.9487793456524676E-17
vn 0.809573 0.587019 -3.5944546969434E-17
vn 0.587338 -0.809342 4.955790448577586E-17
vn 0.067026 -0.28846299999999997 0.955142
vn 0.067026 -0.28846299999999997 0.955142
vn 0.071273 -0.2974859999999999 0.952062
vn -0.063107 0.28067300000000006 0.957727
vn -0.066779 0.28846700000000003 0.955158
vn 0.067026 -0.28846299999999997 0.955142
vn -0.166237 -0.986037 0.00984900000000006
vn -0.98646 0.163971 -0.00320500000000001
vn 0.16615 0.986067 -0.00815600000000006
vn 0.986508 -0.163652 0.00442200000000001
vn -0.723442 -0.690357 0.006133000000000043
vn -0.689496 0.724244 -0.008178000000000045
vn 0.723196 0.690633 -0.0037670000000000424
vn 0.689547 -0.724188 0.008740000000000045
vn 0.154333 -0.729188 0.666683
vn -0.893112 -0.18901599999999996 0.408197
vn -0.154534 0.729149 0.666679
vn 0.893043 0.18917300000000004 0.408274
vn -0.906991 0.421151 -2.5788061205385346E-17
vn 0.421142 0.906995 -5.553742617963268E-17
vn 0.906925 -0.421291 -9.999999999742034E-07
vn -0.421406 -0.906872 -9.9999999994447E-07
vn 0.345375 0.938462 -0.0021290000000000575
vn 0.780309 -0.62539 0.002310000000000038
vn -0.344836 -0.938662 0.0014230000000000575
vn -0.999577 0.029041 -0.0013770000000000017
vn 0.345176 0.938535 -0.002543000000000058
vn 0.743845 -0.020955999999999957 0.668024
vn -0.325197 -0.884787 0.33376600000000006
vn -0.779453 0.626456 -0.002499000000000038
vn -0.005632 0.95834 0.28557499999999997
vn -0.956137 0.201053 0.213024
vn 0.14361 0.26867800000000003 0.952464
vn -0.012636 0.42516600000000004 0.905027
vn 0.14361 0.26867800000000003 0.952464
vn 0.29251 0.09844600000000006 0.951182
vn 0.346716 -0.93795 0.006162000000000057
vn 0.35323 -0.935533 -0.0026549999999999426
vn -0.325649 0.945476 -0.005245000000000058
vn -0.321049 0.946992 -0.011604000000000057
vn 0.942975 0.332827 -0.00499900000000002
vn 0.944942 0.326746 -0.017930000000000022
vn 0.942975 0.332827 -0.00499900000000002
vn 0.940811 0.338839 0.00793399999999998
vn -0.931377 -0.364032 -0.0042809999999999775
vn -0.933383 -0.358809 0.007175000000000022
vn -0.931377 -0.364032 -0.0042809999999999775
vn -0.929218 -0.369196 -0.015735999999999976
vn -0.588912 0.808197 -4.9487793456524676E-17
vn -0.588912 0.808197 -4.9487793456524676E-17
vn 0.809573 0.587019 -3.5944546969434E-17
vn 0.809573 0.587019 -3.5944546969434E-17
vn 0.809573 0.587019 -3.5944546969434E-17
vn 0.587338 -0.809342 4.955790448577586E-17
vn 0.587338 -0.809342 4.955790448577586E-17
vn 0.587338 -0.809342 4.955790448577586E-17
vn -0.808691 -0.588233 3.601888303014225E-17
vn -0.808691 -0.588233 3.601888303014225E-17
vn -0.808691 -0.588233 3.601888303014225E-17
vn -0.808691 -0.588233 3.601888303014225E-17
vn 0.071273 -0.2974859999999999 0.952062
vn 0.071273 -0.2974859999999999 0.952062
vn -0.066779 0.28846700000000003 0.955158
vn -0.066779 0.28846700000000003 0.955158
vn -0.063107 0.28067300000000006 0.957727
vn -0.063107 0.28067300000000006 0.957727
vn 0.689547 -0.724188 0.008740000000000045
vn 0.986508 -0.163652 0.00442200000000001
vn 0 6.123233995736766E-17 1
vn 0 6.123233995736766E-17 1
vn 0 6.123233995736766E-17 1
vn 0 6.123233995736766E-17 1
vn 0.421142 0.906995 -5.553742617963268E-17
vn 0.906925 -0.421291 -9.999999999742034E-07
vn -0.421406 -0.906872 -9.9999999994447E-07
vn -0.906991 0.421151 -2.5788061205385346E-17
vn -0.999577 0.029041 -0.0013770000000000017
vn -0.779453 0.626456 -0.002499000000000038
vn -0.325197 -0.884787 0.33376600000000006
vn 0 6.123233995736766E-17 1
vn 0.743845 -0.020955999999999957 0.668024
vn 0.345176 0.938535 -0.002543000000000058
vn 0.923759 0.373338 0.08536999999999997
vn 0.923759 0.373338 0.08536999999999997
vn 0.919305 0.371601 0.12958199999999997
vn -0.172989 -0.984889 0.00824100000000006
vn -0.172989 -0.984889 0.00824100000000006
vn -0.712208 -0.690874 0.12431300000000005
vn -0.689496 0.724244 -0.008178000000000045
vn -0.98646 0.163971 -0.00320500000000001
vn -0.689496 0.724244 -0.008178000000000045
vn 0.723196 0.690633 -0.0037670000000000424
vn 0.16615 0.986067 -0.00815600000000006
vn 0.723196 0.690633 -0.0037670000000000424
vn -0.166237 -0.986037 0.00984900000000006
vn -0.166237 -0.986037 0.00984900000000006
vn -0.723442 -0.690357 0.006133000000000043
vn -0.154534 0.729149 0.666679
vn -0.893112 -0.18901599999999996 0.408197
vn -0.154534 0.729149 0.666679
vn 0.893043 0.18917300000000004 0.408274
vn -0.154534 0.729149 0.666679
vn 0.893043 0.18917300000000004 0.408274
vn 0.154333 -0.729188 0.666683
vn 0.893043 0.18917300000000004 0.408274
vn 0.154333 -0.729188 0.666683
vn -0.893112 -0.18901599999999996 0.408197
vn 0.154333 -0.729188 0.666683
vn -0.893112 -0.18901599999999996 0.408197
vn 0.345176 0.938535 -0.002543000000000058
vn 0.345375 0.938462 -0.0021290000000000575
vn 0.345375 0.938462 -0.0021290000000000575
vn 0.743845 -0.020955999999999957 0.668024
vn 0.780309 -0.62539 0.002310000000000038
vn 0.780309 -0.62539 0.002310000000000038
vn -0.325197 -0.884787 0.33376600000000006
vn -0.325197 -0.884787 0.33376600000000006
vn -0.344836 -0.938662 0.0014230000000000575
g Standard_3
f 105/105/105 106/106/106 104/104/104
f 105/105/105 104/104/104 103/103/103
f 101/101/101 142/142/142 141/141/141
f 140/140/140 102/102/102 101/101/101
f 53/53/53 49/49/49 139/139/139
f 138/138/138 137/137/137 53/53/53
f 52/52/52 48/48/48 136/136/136
f 135/135/135 134/134/134 52/52/52
f 47/47/47 50/50/50 54/54/54
f 54/54/54 51/51/51 47/47/47
f 133/133/133 100/100/100 99/99/99
f 99/99/99 132/132/132 131/131/131
f 130/130/130 46/46/46 98/98/98
f 98/98/98 129/129/129 128/128/128
f 127/127/127 45/45/45 97/97/97
f 97/97/97 126/126/126 125/125/125
f 124/124/124 44/44/44 43/43/43
f 43/43/43 123/123/123 122/122/122
f 41/41/41 40/40/40 39/39/39
f 39/39/39 42/42/42 41/41/41
f 93/93/93 96/96/96 95/95/95
f 95/95/95 94/94/94 93/93/93
f 91/91/91 121/121/121 120/120/120
f 119/119/119 92/92/92 91/91/91
f 118/118/118 38/38/38 34/34/34
f 34/34/34 117/117/117 116/116/116
f 115/115/115 37/37/37 33/33/33
f 33/33/33 114/114/114 113/113/113
f 35/35/35 36/36/36 32/32/32
f 32/32/32 31/31/31 35/35/35
f 90/90/90 28/28/28 89/89/89
f 88/88/88 87/87/87 29/29/29
f 86/86/86 27/27/27 85/85/85
f 26/26/26 25/25/25 30/30/30
f 81/81/81 84/84/84 83/83/83
f 83/83/83 82/82/82 81/81/81
f 78/78/78 24/24/24 80/80/80
f 80/80/80 79/79/79 78/78/78
f 75/75/75 23/23/23 77/77/77
f 77/77/77 76/76/76 75/75/75
f 73/73/73 22/22/22 21/21/21
f 21/21/21 74/74/74 73/73/73
f 19/19/19 18/18/18 17/17/17
f 17/17/17 20/20/20 19/19/19
f 69/69/69 72/72/72 71/71/71
f 71/71/71 70/70/70 69/69/69
f 65/65/65 68/68/68 67/67/67
f 67/67/67 66/66/66 65/65/65
f 15/15/15 64/64/64 63/63/63
f 63/63/63 16/16/16 15/15/15
f 14/14/14 13/13/13 62/62/62
f 62/62/62 61/61/61 14/14/14
f 11/11/11 10/10/10 9/9/9
f 9/9/9 12/12/12 11/11/11
f 57/57/57 60/60/60 59/59/59
f 59/59/59 58/58/58 57/57/57
f 3/3/3 112/112/112 111/111/111
f 110/110/110 2/2/2 3/3/3
f 55/55/55 109/109/109 108/108/108
f 107/107/107 56/56/56 55/55/55
f 7/7/7 6/6/6 5/5/5
f 5/5/5 8/8/8 7/7/7
f 3/3/3 2/2/2 1/1/1
f 1/1/1 4/4/4 3/3/3
