v 0.25989 0.116657 0.03264499999999999
v 0.181832 0.12830400000000003 0.265327
v 0.185945 0.305523 0.21040399999999998
v 0.272527 0.316508 -5.000000000001938E-05
v -0.013814 0.252631 0.20096299999999997
v 0.059885 0.301719 -0.043714000000000024
v 0.156802 0.111015 -0.0016550000000000067
v 0.035963 0.15806000000000003 0.240304
v -0.017986 0.234016 -0.028649000000000015
v -0.017944 0.141872 -0.02864900000000001
v -0.097824 0.095724 -0.028649000000000008
v -0.177558 0.14176 -0.02864900000000001
v -0.1776 0.233904 -0.028649000000000015
v -0.097721 0.280052 -0.028649000000000018
v -0.0181 0.142112 0.217349
v -0.177558 0.14176 0.217349
v -0.017917 0.234128 0.21734899999999996
v -0.09798 0.09596100000000002 0.217349
v -0.177486 0.233835 0.21734899999999996
v -0.09761 0.279989 0.21734899999999996
v 0.145859 0.005545000000000012 0.192313
v -0.005182 -0.09747199999999999 0.192225
v -0.005182 -0.097472 -0.004826999999999994
v 0.14586 0.005544 -0.004796
v -0.11218 0.054941 -0.005314000000000004
v -0.11218 0.05494100000000001 0.190859
v 0.039082 0.158106 0.190986
v 0.039083 0.158105 -0.00526900000000001
v 0.238006 -0.233133 0.14718100000000003
v -0.000662 -0.37556 0.14718100000000003
v -0.102917 -0.204209 0.147181
v 0.13575 -0.061779999999999995 0.147181
v -0.102917 -0.204209 -0.008171999999999988
v 0.13575 -0.06178 -0.008171999999999997
v 0.238006 -0.233133 -0.008171999999999987
v -0.000662 -0.37556 -0.008171999999999978
v -0.035305 -0.10537699999999998 0.166841
v -0.190998 -0.240984 0.16684300000000002
v -0.418413 0.0077380000000000105 0.166839
v -0.250612 0.146044 0.166806
v -0.038696 -0.105893 0.0032190000000000066
v -0.191211 -0.242507 0.003219000000000015
v -0.41514 0.007975 0.0032189999999999996
v -0.249737 0.147017 0.003218999999999991
v -0.292046 0.330939 0.18576699999999996
v -0.227438 0.23867 0.18576699999999996
v -0.319705 0.174062 0.185767
v -0.384314 0.26633 0.18576699999999996
v -0.240617 0.239176 -0.0043830000000000145
v -0.317748 0.185167 -0.004383000000000011
v -0.371756 0.2623 -0.004383000000000016
v -0.294624 0.316307 -0.004383000000000019
v 0.059885 0.301719 -0.043714000000000024
v -0.013814 0.252631 0.20096299999999997
v 0.185945 0.305523 0.21040399999999998
v 0.181832 0.12830400000000003 0.265327
v 0.035963 0.15806000000000003 0.240304
v -0.013814 0.252631 0.20096299999999997
v -0.097721 0.280052 -0.028649000000000018
v -0.09761 0.279989 0.21734899999999996
v -0.177558 0.14176 0.217349
v -0.177486 0.233835 0.21734899999999996
v -0.09761 0.279989 0.21734899999999996
v -0.017917 0.234128 0.21734899999999996
v -0.0181 0.142112 0.217349
v -0.09798 0.09596100000000002 0.217349
v -0.005182 -0.09747199999999999 0.192225
v -0.11218 0.05494100000000001 0.190859
v 0.145859 0.005545000000000012 0.192313
v -0.005182 -0.097472 -0.004826999999999994
v -0.005182 -0.09747199999999999 0.192225
v 0.039082 0.158106 0.190986
v 0.14586 0.005544 -0.004796
v 0.145859 0.005545000000000012 0.192313
v 0.039082 0.158106 0.190986
v -0.11218 0.05494100000000001 0.190859
v -0.11218 0.054941 -0.005314000000000004
v 0.039083 0.158105 -0.00526900000000001
v 0.13575 -0.061779999999999995 0.147181
v -0.102917 -0.204209 0.147181
v 0.13575 -0.06178 -0.008171999999999997
v 0.238006 -0.233133 0.14718100000000003
v 0.13575 -0.061779999999999995 0.147181
v 0.238006 -0.233133 -0.008171999999999987
v -0.000662 -0.37556 0.14718100000000003
v 0.238006 -0.233133 0.14718100000000003
v -0.000662 -0.37556 -0.008171999999999978
v -0.102917 -0.204209 -0.008171999999999988
v -0.102917 -0.204209 0.147181
v -0.000662 -0.37556 0.14718100000000003
v -0.190998 -0.240984 0.16684300000000002
v -0.035305 -0.10537699999999998 0.166841
v -0.250612 0.146044 0.166806
v -0.418413 0.0077380000000000105 0.166839
v -0.249737 0.147017 0.003218999999999991
v -0.038696 -0.105893 0.0032190000000000066
v -0.035305 -0.10537699999999998 0.166841
v -0.250612 0.146044 0.166806
v -0.190998 -0.240984 0.16684300000000002
v -0.191211 -0.242507 0.003219000000000015
v -0.41514 0.007975 0.0032189999999999996
v -0.418413 0.0077380000000000105 0.166839
v -0.319705 0.174062 0.185767
v -0.227438 0.23867 0.18576699999999996
v -0.384314 0.26633 0.18576699999999996
v -0.292046 0.330939 0.18576699999999996
v -0.384314 0.26633 0.18576699999999996
v -0.371756 0.2623 -0.004383000000000016
v -0.292046 0.330939 0.18576699999999996
v -0.294624 0.316307 -0.004383000000000019
v -0.240617 0.239176 -0.0043830000000000145
v -0.227438 0.23867 0.18576699999999996
v 0.272527 0.316508 -5.000000000001938E-05
v 0.185945 0.305523 0.21040399999999998
v 0.272527 0.316508 -5.000000000001938E-05
v 0.181832 0.12830400000000003 0.265327
v 0.25989 0.116657 0.03264499999999999
v 0.181832 0.12830400000000003 0.265327
v -0.319705 0.174062 0.185767
v -0.317748 0.185167 -0.004383000000000011
v -0.317748 0.185167 -0.004383000000000011
vt 0.175674 0.405254
vt 0.214497 0.405254
vt 0.214497 0.371667
vt 0.175674 0.371667
vt 0.214497 0.343569
vt 0.175674 0.343569
vt 0.175674 0.418313
vt 0.214497 0.418313
vt 0.797993 0.052123
vt 0.777113 0.052123
vt 0.756861 0.052123
vt 0.734725 0.052123
vt 0.713060 0.052123
vt 0.696104 0.052123
vt 0.777113 0.103998
vt 0.734725 0.103998
vt 0.797993 0.103998
vt 0.756861 0.103998
vt 0.713060 0.103998
vt 0.696104 0.103998
vt 0.767239 0.195702
vt 0.737078 0.195702
vt 0.703550 0.196010
vt 0.837923 0.165280
vt 0.703550 0.163409
vt 0.737078 0.163101
vt 0.767239 0.163101
vt 0.801142 0.162485
vt 0.913742 0.237634
vt 0.867124 0.237634
vt 0.867124 0.275382
vt 0.913742 0.275382
vt 0.913929 0.281124
vt 0.867311 0.281124
vt 0.890024 0.164098
vt 0.867124 0.206053
vt 0.858378 0.297944
vt 0.858519 0.266850
vt 0.817380 0.266991
vt 0.816777 0.298038
vt 0.789583 0.229291
vt 0.816322 0.229291
vt 0.720183 0.229522
vt 0.747518 0.229522
vt 0.084623 0.272480
vt 0.071761 0.277427
vt 0.076443 0.291015
vt 0.091137 0.286201
vt 0.052797 0.271006
vt 0.036712 0.271006
vt 0.019446 0.271006
vt 0.027527 0.271006
vt 0.175674 0.439715
vt 0.214497 0.439715
vt 0.654541 0.464242
vt 0.668907 0.485082
vt 0.684117 0.472079
vt 0.683225 0.455669
vt 0.816833 0.052123
vt 0.816833 0.103998
vt 0.790447 0.042458
vt 0.806688 0.042458
vt 0.814808 0.025513
vt 0.806688 0.008568
vt 0.790447 0.008568
vt 0.782327 0.025513
vt 0.734013 0.196010
vt 0.734013 0.163409
vt 0.807462 0.165280
vt 0.837923 0.195224
vt 0.807462 0.195224
vt 0.770679 0.162485
vt 0.801142 0.195086
vt 0.770679 0.195086
vt 0.807462 0.165280
vt 0.807462 0.195224
vt 0.837923 0.195224
vt 0.837923 0.165280
vt 0.867311 0.307651
vt 0.913929 0.307651
vt 0.890024 0.201846
vt 0.866503 0.164098
vt 0.866503 0.201846
vt 0.913742 0.206053
vt 0.867124 0.232580
vt 0.913742 0.232580
vt 0.893348 0.163833
vt 0.893348 0.201581
vt 0.916869 0.201581
vt 0.916869 0.163833
vt 0.816322 0.205930
vt 0.789574 0.205850
vt 0.747509 0.205944
vt 0.720143 0.206161
vt 0.747518 0.229522
vt 0.789583 0.229291
vt 0.789574 0.205850
vt 0.747509 0.205944
vt 0.816322 0.205930
vt 0.816322 0.229291
vt 0.858387 0.229059
vt 0.858387 0.205698
vt 0.036712 0.302770
vt 0.052797 0.302770
vt 0.019446 0.302770
vt 0.027199 0.302115
vt 0.044625 0.302770
vt 0.044625 0.271006
vt 0.044791 0.302770
vt 0.044791 0.271006
vt 0.029788 0.271006
vt 0.029348 0.302804
vt 0.175674 0.371667
vt 0.214497 0.371667
vt 0.175674 0.371667
vt 0.214497 0.405254
vt 0.175674 0.405254
vt 0.214497 0.405254
vt 0.036712 0.302770
vt 0.036712 0.271006
vt 0.036712 0.271006
vn 0.848285 -0.408896 0.336476
vn 0.366326 -0.90445 0.21857500000000005
vn 0.797102 0.514804 0.31560299999999997
vn 0.272246 0.932909 0.23571899999999996
vn -0.61987 0.77453 -0.12595000000000006
vn -0.960192 -0.027541000000000017 -0.277981
vn -0.374936 -0.924854 -0.06378599999999994
vn -0.653089 -0.728268 -0.20760499999999996
vn 0.945092 0.326806 -6.700000000002002E-05
vn 0.756149 -0.654398 0.0011150000000000402
vn -0.188427 -0.982087 0.0006320000000000601
vn -0.944951 -0.327211 0.00017600000000002003
vn -0.866209 0.499682 0.0005419999999999694
vn -0.000507 1 0.00011099999999993877
vn 0.944759 -0.327764 0.00057400000000002
vn -0.755758 -0.65485 0.00019600000000004008
vn 0.755973 0.654603 -0.00030800000000004007
vn 0.189571 -0.981866 0.00107100000000006
vn -0.866062 0.499936 0.0003999999999999694
vn -0.00088 1 0.0002579999999999387
vn -0.004554 0.005638000000000061 0.999974
vn -0.004525 0.005788000000000061 0.999973
vn -0.818451 -0.574576 3.518263296334448E-17
vn 0.56346 -0.826143 2.0000000000505864E-06
vn -0.818451 -0.574576 3.518263296334448E-17
vn -0.004554 0.005638000000000061 0.999974
vn -0.004582 0.005488000000000061 0.999974
vn 0.819271 0.573406 9.99999999964889E-07
vn 0 6.123233995736766E-17 1
vn 0 6.123233995736766E-17 1
vn 0 6.123233995736766E-17 1
vn 0 6.123233995736766E-17 1
vn -0.512452 0.858716 -5.258119003883093E-17
vn -0.512452 0.858716 -5.258119003883093E-17
vn 0.85872 0.512445 -3.1378206449453274E-17
vn 0.512446 -0.85872 5.258143496819076E-17
vn 2.1E-05 9.600000000006123E-05 1
vn -3E-06 1.3000000000061231E-05 1
vn 2.1E-05 9.600000000006123E-05 1
vn 4.5E-05 0.00017800000000006122 1
vn 0.667164 -0.744823 -0.011470999999999955
vn 0.662014 -0.749487 -0.002654999999999954
vn -0.639751 0.768565 -0.005246000000000047
vn -0.643474 0.765467 0.0011129999999999532
vn 0.146915 0.833218 0.533071
vn 0.829716 -0.14656699999999998 0.5386
vn 0.112385 -0.757811 0.642722
vn -0.922953 -0.13711199999999998 0.359665
vn 0.982437 -0.173549 -0.06855099999999999
vn -0.475406 -0.877972 -0.056171999999999944
vn -0.877445 0.474831 -0.06801600000000002
vn 0.173125 0.981815 -0.07789400000000006
vn -0.960192 -0.027541000000000017 -0.277981
vn -0.61987 0.77453 -0.12595000000000006
vn -0.115986 0.30934900000000004 0.943849
vn -0.102364 0.29663800000000007 0.949488
vn -0.115986 0.30934900000000004 0.943849
vn -0.129564 0.32194300000000003 0.937852
vn -0.000507 1 0.00011099999999993877
vn -0.00088 1 0.0002579999999999387
vn 0 6.123233995736766E-17 1
vn 0 6.123233995736766E-17 1
vn 0 6.123233995736766E-17 1
vn 0 6.123233995736766E-17 1
vn 0 6.123233995736766E-17 1
vn 0 6.123233995736766E-17 1
vn -0.818451 -0.574576 3.518263296334448E-17
vn -0.818452 -0.574576 1.0000000000351825E-06
vn 0.563461 -0.826143 1.0000000000505867E-06
vn 0.563461 -0.826143 1.0000000000505867E-06
vn 0.563462 -0.826142 5.058660779705964E-17
vn 0.819271 0.573407 9.99999999964889E-07
vn 0.819271 0.573407 9.99999999964889E-07
vn 0.819271 0.573407 -3.511105235793432E-17
vn -0.563454 0.826147 -2.000000000050587E-06
vn -0.563456 0.826146 -5.0586852726419467E-17
vn -0.563454 0.826147 -2.000000000050587E-06
vn -0.563452 0.826149 -5.000000000050588E-06
vn -0.512452 0.858716 -5.258119003883093E-17
vn -0.512452 0.858716 -5.258119003883093E-17
vn 0.85872 0.512445 -3.1378206449453274E-17
vn 0.85872 0.512445 -3.1378206449453274E-17
vn 0.85872 0.512445 -3.1378206449453274E-17
vn 0.512446 -0.85872 5.258143496819076E-17
vn 0.512446 -0.85872 5.258143496819076E-17
vn 0.512446 -0.85872 5.258143496819076E-17
vn -0.858719 -0.512447 3.137832891413318E-17
vn -0.858719 -0.512447 3.137832891413318E-17
vn -0.858719 -0.512447 3.137832891413318E-17
vn -0.858719 -0.512447 3.137832891413318E-17
vn 0.65678 -0.754057 0.006162000000000046
vn 0.662014 -0.749487 -0.002654999999999954
vn -0.639751 0.768565 -0.005246000000000047
vn -0.635986 0.771613 -0.011604000000000047
vn 0.76368 0.645575 -0.00499800000000004
vn 0.767676 0.640587 -0.01793000000000004
vn 0.76368 0.645575 -0.00499800000000004
vn 0.759525 0.650429 0.00793399999999996
vn -0.741771 -0.67064 -0.004280999999999959
vn -0.745499 -0.666468 0.007175000000000041
vn -0.741771 -0.67064 -0.004280999999999959
vn -0.737921 -0.674703 -0.01573599999999996
vn 0.112385 -0.757811 0.642722
vn 0.829716 -0.14656699999999998 0.5386
vn -0.922953 -0.13711199999999998 0.359665
vn 0.146915 0.833218 0.533071
vn -0.922953 -0.13711199999999998 0.359665
vn -0.877445 0.474831 -0.06801600000000002
vn 0.146915 0.833218 0.533071
vn 0.173125 0.981815 -0.07789400000000006
vn 0.982437 -0.173549 -0.06855099999999999
vn 0.829716 -0.14656699999999998 0.5386
vn 0.272246 0.932909 0.23571899999999996
vn 0.797102 0.514804 0.31560299999999997
vn 0.272246 0.932909 0.23571899999999996
vn 0.366326 -0.90445 0.21857500000000005
vn 0.848285 -0.408896 0.336476
vn 0.366326 -0.90445 0.21857500000000005
vn 0.112385 -0.757811 0.642722
vn -0.475406 -0.877972 -0.056171999999999944
vn -0.475406 -0.877972 -0.056171999999999944
g Standard_3
f 109/109/109 112/112/112 111/111/111
f 111/111/111 110/110/110 109/109/109
f 106/106/106 52/52/52 108/108/108
f 108/108/108 107/107/107 106/106/106
f 105/105/105 51/51/51 121/121/121
f 120/120/120 119/119/119 105/105/105
f 103/103/103 50/50/50 49/49/49
f 49/49/49 104/104/104 103/103/103
f 48/48/48 47/47/47 45/45/45
f 47/47/47 46/46/46 45/45/45
f 99/99/99 102/102/102 101/101/101
f 101/101/101 100/100/100 99/99/99
f 95/95/95 98/98/98 97/97/97
f 97/97/97 96/96/96 95/95/95
f 43/43/43 94/94/94 93/93/93
f 93/93/93 44/44/44 43/43/43
f 42/42/42 41/41/41 92/92/92
f 92/92/92 91/91/91 42/42/42
f 39/39/39 38/38/38 37/37/37
f 37/37/37 40/40/40 39/39/39
f 87/87/87 90/90/90 89/89/89
f 89/89/89 88/88/88 87/87/87
f 84/84/84 86/86/86 85/85/85
f 85/85/85 36/36/36 84/84/84
f 81/81/81 83/83/83 82/82/82
f 82/82/82 35/35/35 81/81/81
f 33/33/33 80/80/80 79/79/79
f 79/79/79 34/34/34 33/33/33
f 31/31/31 30/30/30 29/29/29
f 29/29/29 32/32/32 31/31/31
f 75/75/75 78/78/78 77/77/77
f 77/77/77 76/76/76 75/75/75
f 72/72/72 74/74/74 73/73/73
f 73/73/73 28/28/28 72/72/72
f 69/69/69 71/71/71 70/70/70
f 70/70/70 24/24/24 69/69/69
f 67/67/67 68/68/68 25/25/25
f 25/25/25 23/23/23 67/67/67
f 21/21/21 27/27/27 26/26/26
f 26/26/26 22/22/22 21/21/21
f 66/66/66 65/65/65 61/61/61
f 65/65/65 64/64/64 61/61/61
f 64/64/64 63/63/63 61/61/61
f 63/63/63 62/62/62 61/61/61
f 59/59/59 60/60/60 17/17/17
f 17/17/17 9/9/9 59/59/59
f 14/14/14 13/13/13 19/19/19
f 19/19/19 20/20/20 14/14/14
f 12/12/12 16/16/16 19/19/19
f 19/19/19 13/13/13 12/12/12
f 11/11/11 18/18/18 16/16/16
f 16/16/16 12/12/12 11/11/11
f 10/10/10 15/15/15 18/18/18
f 18/18/18 11/11/11 10/10/10
f 9/9/9 17/17/17 15/15/15
f 15/15/15 10/10/10 9/9/9
f 55/55/55 58/58/58 57/57/57
f 57/57/57 56/56/56 55/55/55
f 53/53/53 7/7/7 8/8/8
f 8/8/8 54/54/54 53/53/53
f 118/118/118 8/8/8 7/7/7
f 7/7/7 117/117/117 116/116/116
f 115/115/115 6/6/6 5/5/5
f 5/5/5 114/114/114 113/113/113
f 3/3/3 2/2/2 1/1/1
f 1/1/1 4/4/4 3/3/3
