v -9.266978 11.867071 -0.24378900000000073
v -13.011301 16.804583 1.896715999999999
v -12.948185 16.791243 -0.44264100000000106
v 16.442104 0.9625560000000004 7.073394
v 18.135698 5.05804 4.703463
v 19.5994 2.253978 3.414576
v 22.602829 -0.47688599999999937 9.551505
v 18.135698 5.05804 4.703463
v 16.442104 0.9625560000000004 7.073394
v 14.706134 -3.2991349999999997 7.891376
v 15.452274 -1.157267 -1.447485
v 13.433145 -1.70448 -1.129581
v 15.452274 -1.157267 -1.447485
v 14.706134 -3.2991349999999997 7.891376
v 13.433145 -1.70448 -1.129581
v 18.593287 4.979024 2.4739719999999994
v 19.5994 2.253978 3.414576
v 18.135698 5.05804 4.703463
v 19.5994 2.253978 3.414576
v 18.593287 4.979024 2.4739719999999994
v 20.488092 7.780532 4.167728999999999
v 9.228213 -9.592032 -1.7660529999999994
v 10.32189 -12.962333 3.344847000000001
v 8.194964 -11.18258 -2.5224439999999992
v 5.823403 -9.757984 8.049694
v 10.606633 -4.203341 -1.6816239999999998
v 11.590411 -9.629605 5.709491000000001
v 3.170956 4.295299000000001 13.735404
v 5.349186 13.88565 5.7650619999999995
v 9.217471 16.133543 3.952060999999999
v 9.217471 16.133543 3.952060999999999
v 5.349186 13.88565 5.7650619999999995
v 8.108527 12.188044 1.4011969999999994
v 20.784428 16.556252 6.428800999999999
v 14.23634 3.58718 0.9766339999999998
v 7.49794 0.5337350000000005 8.933321
v 7.49794 0.5337350000000005 8.933321
v 5.244051 9.119432000000002 15.197839
v 12.204519 12.876767000000001 17.268108
v 10.492928 9.171806000000002 15.766945
v 9.407145 8.524475000000002 19.533512
v 9.017108 10.870497000000002 17.618589
v 9.407145 8.524475000000002 19.533512
v 13.274378 3.456529000000001 11.484509
v 10.492928 9.171806000000002 15.766945
v 9.017108 10.870497000000002 17.618589
v 9.407145 8.524475000000002 19.533512
v 9.407145 8.524475000000002 19.533512
v 13.274378 3.456529000000001 11.484509
v 5.349186 13.88565 5.7650619999999995
v 3.170956 4.295299000000001 13.735404
v 1.829936 5.319457000000001 12.340211
v 9.217471 16.133543 3.952060999999999
v 7.217054 7.382423000000001 14.654562
v 1.829936 5.319457000000001 12.340211
v 3.170956 4.295299000000001 13.735404
v 5.349186 13.88565 5.7650619999999995
v 10.771273 31.427525 -1.015026000000002
v 10.439729 15.193276 1.521090999999999
v 8.108527 12.188044 1.4011969999999994
v 10.439729 15.193276 1.521090999999999
v 11.590411 -9.629605 5.709491000000001
v 9.511442 -5.889239 -2.4833559999999997
v 5.823403 -9.757984 8.049694
v 8.000562 -6.406545999999999 9.643478
v 10.606633 -4.203341 -1.6816239999999998
v 11.590411 -9.629605 5.709491000000001
v 5.823403 -9.757984 8.049694
v 9.511442 -5.889239 -2.4833559999999997
v 6.894619 2.061550000000001 15.147401
v 10.797829 1.047422000000001 15.552632
v 11.167114 0.8576850000000007 11.520841
v 7.263902 1.8718120000000007 11.11561
v 19.5994 2.253978 3.414576
v 18.593287 4.979024 2.4739719999999994
v 18.135698 5.05804 4.703463
v 16.442104 0.9625560000000004 7.073394
v -13.011301 16.804583 1.896715999999999
v -9.266978 11.867071 -0.24378900000000073
v -10.221315 19.641665 -0.5560420000000013
v -12.948185 16.791243 -0.44264100000000106
v 4.567167 -12.949457 5.699705000000001
v 8.194964 -11.18258 -2.5224439999999992
v 10.32189 -12.962333 3.344847000000001
v 6.621191 -9.787567 7.2033510000000005
v 9.228213 -9.592032 -1.7660529999999994
v 4.567167 -12.949457 5.699705000000001
v 8.194964 -11.18258 -2.5224439999999992
v 8.285158 3.715032 0.3354129999999998
v 8.108527 12.188044 1.4011969999999994
v 10.439729 15.193276 1.521090999999999
v 13.95139 3.1341790000000005 3.810488
v 9.217471 16.133543 3.952060999999999
v 8.108527 12.188044 1.4011969999999994
v 8.285158 3.715032 0.3354129999999998
v 11.183915 -7.104041999999999 10.900766
v 13.433145 -1.70448 -1.129581
v 14.706134 -3.2991349999999997 7.891376
v 12.38898 -3.658361999999999 12.874096
v 13.433145 -1.70448 -1.129581
v 11.183915 -7.104041999999999 10.900766
v -11.408298 -7.339087999999999 7.393945000000001
v -10.366747 -6.322715999999999 8.295274
v -8.599271 0.9338699999999998 -3.555482
v -6.503485 -13.986944 13.065884
v -7.924623 -15.373729 11.836071000000002
v -2.580557 -15.799532 12.178900000000002
v -5.028373 -18.188177 10.060627000000002
v -10.269626 -5.237860999999999 12.221266
v -9.459486 -3.949491999999999 13.116411
v -9.443645 2.721171 1.1153109999999997
v -3.025309 -10.914984999999998 16.799482
v -4.130698 -12.672893999999998 15.578103
v 1.835678 -12.326642999999999 15.106696
v -0.06829 -15.354528 13.002954000000003
v -6.762521 2.438224000000001 14.280258
v -6.018815 3.914593000000001 14.780771
v -8.186525 8.953006 1.2775709999999996
v 1.771518 -1.2844459999999989 19.626984
v 0.75677 -3.2988709999999988 18.944061
v 6.609042 -2.132839999999999 17.879139
v 4.861204 -5.602555999999999 16.702852
v -9.024686 -1.4790349999999992 13.693852
v -8.228992 0.03329500000000088 14.350671
v -10.007251 5.513839 1.3344819999999995
v -0.709549 -5.475340999999999 18.854868
v -1.795232 -7.538831999999999 17.958675
v 4.180034 -6.232488999999999 17.189806
v 2.310017 -9.786716999999998 15.646171
v -8.369021 15.391438 0.5797449999999991
v -2.230814 10.512223 0.5377799999999994
v 1.093867 13.568468 -0.029656000000000828
v -6.588734 21.390705 2.7521539999999987
v -6.978763 21.230309 -0.28664100000000126
v -0.599958 23.095146 -0.2808250000000014
v 4.332263 -20.048948 10.451569000000001
v 10.797829 1.047422000000001 15.552632
v 6.894619 2.061550000000001 15.147401
v 0.055588 -16.374353 10.698128000000002
v -28.858688 -30.618299 -15.581426999999998
v 7.263902 1.8718120000000007 11.11561
v -29.412109 -28.554018 -14.237640999999998
v 2.069663 -13.611429 6.171204000000001
v 11.167114 0.8576850000000007 11.520841
v 6.346337 -17.286024 5.924648000000001
v 10.797829 1.047422000000001 15.552632
v 4.332263 -20.048948 10.451569000000001
v -14.305561 -28.614326 -8.442944999999998
v -28.858688 -30.618299 -15.581426999999998
v 14.99948 4.200859000000001 21.576117
v 16.206194 -1.663901999999999 15.2946
v 13.274378 3.456529000000001 11.484509
v 10.492928 9.171806000000002 15.766945
v 13.274378 3.456529000000001 11.484509
v 12.64772 6.035896000000001 10.049188
v 12.204519 12.876767000000001 17.268108
v 17.587381 16.828499 8.974130999999998
v 19.559898 32.105221 4.278520999999998
v 7.49794 0.5337350000000005 8.933321
v 9.407145 8.524475000000002 19.533512
v 9.017108 10.870497000000002 17.618589
v 5.244051 9.119432000000002 15.197839
v 5.13448 1.640001000000001 13.891177
v 16.206194 -1.663901999999999 15.2946
v 13.274378 3.456529000000001 11.484509
v 16.206194 -1.663901999999999 15.2946
v 22.602829 -0.47688599999999937 9.551505
v 16.442104 0.9625560000000004 7.073394
v 18.135698 5.05804 4.703463
v 12.64772 6.035896000000001 10.049188
v 20.488092 7.780532 4.167728999999999
v 17.587381 16.828499 8.974130999999998
v 19.5994 2.253978 3.414576
v 20.784428 16.556252 6.428800999999999
v 19.559898 32.105221 4.278520999999998
v 18.593287 4.979024 2.4739719999999994
v 7.49794 0.5337350000000005 8.933321
v 14.23634 3.58718 0.9766339999999998
v 10.7458 -1.8122059999999998 5.016935
v 16.206194 -1.663901999999999 15.2946
vt 0.237948 0.317667
vt 0.361655 0.355202
vt 0.388058 0.380469
vt 0.864255 0.878765
vt 0.866907 0.852614
vt 0.843495 0.868782
vt 0.743394 0.924484
vt 0.726221 0.829248
vt 0.702037 0.899690
vt 0.158161 0.927446
vt 0.158161 0.858939
vt 0.190264 0.858939
vt 0.158161 0.858939
vt 0.158161 0.927446
vt 0.115358 0.858939
vt 0.868155 0.839988
vt 0.843495 0.868782
vt 0.866907 0.852614
vt 0.843495 0.868782
vt 0.868155 0.839988
vt 0.845033 0.802686
vt 0.388222 0.859194
vt 0.394206 0.919215
vt 0.409624 0.859194
vt 0.307040 0.993468
vt 0.285638 0.858939
vt 0.291679 0.918237
vt 0.968724 0.257501
vt 0.802925 0.244208
vt 0.773282 0.097182
vt 0.773282 0.097182
vt 0.802925 0.244208
vt 0.759217 0.222916
vt 0.850643 0.704382
vt 0.916655 0.874560
vt 0.951577 0.971293
vt 0.539166 0.418479
vt 0.566261 0.517171
vt 0.631370 0.594997
vt 0.613595 0.543679
vt 0.637867 0.530063
vt 0.611414 0.555988
vt 0.637867 0.530063
vt 0.618178 0.518189
vt 0.613595 0.543679
vt 0.611414 0.555988
vt 0.637867 0.530063
vt 0.637867 0.530063
vt 0.618178 0.518189
vt 0.802925 0.244208
vt 0.968724 0.257501
vt 0.947412 0.302035
vt 0.773282 0.097182
vt 0.930837 0.167886
vt 0.960734 0.034976
vt 0.981964 0.079425
vt 0.820888 0.025630
vt 0.572378 0.043682
vt 0.768720 0.138813
vt 0.783728 0.010108
vt 0.743458 0.014091
vt 0.291679 0.918237
vt 0.307040 0.858939
vt 0.307040 0.993468
vt 0.285638 0.993468
vt 0.285638 0.858939
vt 0.253535 0.927446
vt 0.221432 0.993468
vt 0.221432 0.858939
vt 0.228740 0.835090
vt 0.335370 0.835090
vt 0.335370 0.899325
vt 0.228740 0.899325
vt 0.843495 0.868782
vt 0.868155 0.839988
vt 0.866907 0.852614
vt 0.864255 0.878765
vt 0.361655 0.355202
vt 0.237948 0.317667
vt 0.347918 0.443070
vt 0.388058 0.380469
vt 0.324016 0.993723
vt 0.324016 0.859194
vt 0.356119 0.927701
vt 0.388222 0.993723
vt 0.388222 0.859194
vt 0.409624 0.993723
vt 0.409624 0.859194
vt 0.566683 0.397452
vt 0.661089 0.392000
vt 0.703003 0.347200
vt 0.566563 0.234838
vt 0.712828 0.327275
vt 0.696711 0.183567
vt 0.596906 0.102354
vt 0.136759 0.993468
vt 0.115358 0.858939
vt 0.158161 0.927446
vt 0.158161 0.993468
vt 0.190264 0.858939
vt 0.200965 0.993468
vt 0.050237 0.786361
vt 0.028836 0.786361
vt 0.050237 0.583298
vt 0.028836 0.927446
vt 0.050237 0.927446
vt 0.028836 0.993468
vt 0.050237 0.993468
vt 0.158161 0.786361
vt 0.136759 0.786361
vt 0.158161 0.583298
vt 0.136759 0.927446
vt 0.158161 0.927446
vt 0.136759 0.993468
vt 0.158161 0.993468
vt 0.366820 0.786616
vt 0.345418 0.786616
vt 0.366820 0.583553
vt 0.345418 0.927701
vt 0.366820 0.927701
vt 0.345418 0.993723
vt 0.366820 0.993723
vt 0.264236 0.786361
vt 0.242834 0.786361
vt 0.264236 0.583298
vt 0.242834 0.927446
vt 0.264236 0.927446
vt 0.242834 0.993468
vt 0.264236 0.993468
vt 0.197169 0.408105
vt 0.088983 0.451454
vt 0.014305 0.393302
vt 0.161926 0.311654
vt 0.165580 0.281521
vt 0.063920 0.259133
vt 0.316406 0.222656
vt 0.488281 0.222656
vt 0.488281 0.167969
vt 0.316406 0.167969
vt 0.019531 0.222656
vt 0.488281 0.113281
vt 0.019531 0.167969
vt 0.316406 0.113281
vt 0.488281 0.058594
vt 0.316406 0.058594
vt 0.488281 0.007813
vt 0.316406 0.007813
vt 0.144531 0.058594
vt 0.019531 0.007813
vt 0.740313 0.503457
vt 0.835941 0.439402
vt 0.829731 0.521199
vt 0.750368 0.580538
vt 0.829731 0.521199
vt 0.834163 0.606788
vt 0.631370 0.594997
vt 0.666901 0.698017
vt 0.533658 0.859143
vt 0.539166 0.418479
vt 0.637867 0.530063
vt 0.611414 0.555988
vt 0.566261 0.517171
vt 0.548173 0.442081
vt 0.708579 0.451342
vt 0.636753 0.940845
vt 0.659606 0.970280
vt 0.743394 0.924484
vt 0.702037 0.899690
vt 0.726221 0.829248
vt 0.639745 0.811235
vt 0.845033 0.802686
vt 0.801276 0.702441
vt 0.843495 0.868782
vt 0.850643 0.704382
vt 0.923127 0.526630
vt 0.868155 0.839988
vt 0.951577 0.971293
vt 0.916655 0.874560
vt 0.940680 0.948414
vt 0.778305 0.955242
vn -0.218077 -0.522671 0.824171
vn -0.765508 0.16186000000000003 0.622735
vn -0.997831 0.059914 -0.027264000000000004
vn -0.740553 -0.07986900000000004 -0.667235
vn -0.740553 -0.07986900000000004 -0.667235
vn -0.740553 -0.07986900000000004 -0.667235
vn -0.197459 0.550888 0.810884
vn -0.197459 0.550888 0.810884
vn -0.197459 0.550888 0.810884
vn -0.226739 0.953099 0.20047799999999993
vn -0.226739 0.953099 0.20047799999999993
vn -0.226739 0.953099 0.20047799999999993
vn 0.226739 -0.953099 -0.20047799999999993
vn 0.226739 -0.953099 -0.20047799999999993
vn 0.226739 -0.953099 -0.20047799999999993
vn -0.903496 -0.392782 -0.17151599999999997
vn -0.903496 -0.392782 -0.17151599999999997
vn -0.903496 -0.392782 -0.17151599999999997
vn 0.672363 -0.007247000000000045 -0.740186
vn 0.672363 -0.007247000000000045 -0.740186
vn 0.672363 -0.007247000000000045 -0.740186
vn 0.039239 0.924047 -0.38026100000000007
vn 0.808311 -0.56955 0.14915400000000004
vn -0.031387 -0.630222 -0.775781
vn -0.658288 -0.744489 0.11132800000000004
vn -0.450103 0.582757 -0.676611
vn 0.684136 -0.630832 0.36607400000000007
vn 0.012614 -0.640803 -0.767602
vn 0.012614 -0.640803 -0.767602
vn 0.012614 -0.640803 -0.767602
vn 0.5943 -0.547757 0.588871
vn 0.5943 -0.547757 0.588871
vn 0.5943 -0.547757 0.588871
vn 0.533219 0.37554399999999993 -0.758053
vn -0.195697 -0.0014560000000000601 -0.980663
vn -0.802369 -0.08007900000000004 -0.591432
vn -0.802369 -0.08007900000000004 -0.591432
vn -0.835633 0.54378 0.07759599999999997
vn 0.442982 0.64238 0.625392
vn 0.996056 0.079661 -0.03906400000000001
vn -0.859397 -0.401401 -0.316723
vn -0.859397 -0.401401 -0.316723
vn -0.926062 -0.22206200000000004 -0.305119
vn 0.721219 0.664245 0.19652099999999997
vn 0.996056 0.079661 -0.03906400000000001
vn 0.859397 0.401401 0.316723
vn 0.859397 0.401401 0.316723
vn 0.926062 0.22206200000000004 0.305119
vn 0.931448 0.273314 0.24021699999999999
vn -0.578725 0.646049 0.49769299999999994
vn 0.349184 -0.86507 -0.36017299999999997
vn -0.700266 0.38601100000000005 0.600519
vn 0.575889 0.15731200000000006 0.80225
vn -0.273781 0.586097 0.762584
vn -0.700266 0.38601100000000005 0.600519
vn 0.349184 -0.86507 -0.36017299999999997
vn -0.578725 0.646049 0.49769299999999994
vn 0.914555 0.332916 -0.22968900000000003
vn 0.76512 0.10212099999999996 -0.635738
vn -0.880339 -0.16536400000000004 -0.444588
vn 0.76512 0.10212099999999996 -0.635738
vn 0.684136 -0.630832 0.36607400000000007
vn 1 0 0
vn -0.658288 -0.744489 0.11132800000000004
vn 0.25878 0.46782100000000004 0.84509
vn -0.450103 0.582757 -0.676611
vn 0.684136 -0.630832 0.36607400000000007
vn -0.658288 -0.744489 0.11132800000000004
vn 1 0 0
vn -0.249538 0.706473 0.662289
vn 0.842167 0.06893200000000002 0.534793
vn 0.532438 0.641391 -0.552384
vn -0.521625 0.716161 -0.46370200000000006
vn 0.838592 -0.315119 -0.44437
vn 0.600107 0.21171499999999993 -0.771394
vn 0.677658 0.20477700000000004 0.70629
vn 0.804914 0.422618 0.416542
vn -0.765508 0.16186000000000003 0.622735
vn -0.218077 -0.522671 0.824171
vn -0.115091 0.712016 0.692667
vn -0.997831 0.059914 -0.027264000000000004
vn -0.969685 -0.235752 0.06427600000000001
vn -0.031387 -0.630222 -0.775781
vn 0.808311 -0.56955 0.14915400000000004
vn 0.285989 0.603693 0.744153
vn 0.039239 0.924047 -0.38026100000000007
vn -0.969685 -0.235752 0.06427600000000001
vn -0.031387 -0.630222 -0.775781
vn -0.111733 -0.00478100000000006 -0.993727
vn -0.880339 -0.16536400000000004 -0.444588
vn 0.76512 0.10212099999999996 -0.635738
vn 0.20097 -0.059299999999999936 0.977801
vn 0.575889 0.15731200000000006 0.80225
vn -0.880339 -0.16536400000000004 -0.444588
vn -0.111733 -0.00478100000000006 -0.993727
vn 0.482287 -0.870656 0.09673700000000006
vn -0.251264 0.954668 -0.15961100000000006
vn 0.974148 -0.1552 0.164161
vn 0.03909 0.872369 0.48728299999999997
vn -0.251264 0.954668 -0.15961100000000006
vn 0.482287 -0.870656 0.09673700000000006
vn -0.766385 0.26740300000000006 0.58408
vn -0.785632 0.35696000000000006 0.505333
vn -0.776529 0.582281 0.24073299999999997
vn -0.554148 -0.15706199999999995 0.817467
vn -0.331877 -0.41230999999999995 0.848445
vn -0.098787 -0.601665 0.792616
vn -0.098787 -0.601665 0.792616
vn -0.764912 0.03407100000000004 0.643234
vn -0.82436 0.13671100000000003 0.54931
vn -0.887541 0.403198 0.22294099999999997
vn -0.408758 -0.33327299999999993 0.849615
vn -0.151246 -0.4981189999999999 0.853816
vn 0.097537 -0.608503 0.787534
vn 0.097537 -0.608503 0.787534
vn -0.702385 0.11571900000000004 0.702328
vn -0.773475 0.18400700000000003 0.60653
vn -0.892717 0.356071 0.27617
vn -0.303549 -0.16521699999999995 0.938382
vn -0.018507 -0.31263799999999997 0.949692
vn 0.242684 -0.41889099999999996 0.875006
vn 0.242684 -0.41889099999999996 0.875006
vn -0.716131 0.07542700000000004 0.693878
vn -0.785754 0.15314200000000003 0.599282
vn -0.895353 0.35334 0.271098
vn -0.3239 -0.22833299999999995 0.918125
vn -0.044303 -0.37826799999999994 0.924635
vn 0.214668 -0.48190099999999997 0.849523
vn 0.214668 -0.48190099999999997 0.849523
vn -0.397659 0.0005900000000000562 0.917533
vn 0.082157 0.09482400000000006 0.992098
vn 0.175097 -0.05028399999999994 0.983266
vn -0.355033 0.41740700000000003 0.836494
vn -0.71693 0.694946 0.05533599999999996
vn 0.105434 0.76344 0.637215
vn 0.158862 -0.660205 0.734093
vn 0.842167 0.06893200000000002 0.534793
vn -0.249538 0.706473 0.662289
vn -0.805026 0.05812500000000004 0.590386
vn -0.325782 -0.70556 0.629326
vn -0.521625 0.716161 -0.46370200000000006
vn 0.01108 0.763658 -0.645526
vn -0.228128 0.602661 -0.764695
vn 0.532438 0.641391 -0.552384
vn 0.789809 -0.058136000000000035 -0.610591
vn 0.842167 0.06893200000000002 0.534793
vn 0.158862 -0.660205 0.734093
vn 0.59849 -0.3312010000000001 -0.729463
vn -0.325782 -0.70556 0.629326
vn 0.789124 0.11550700000000004 0.603275
vn 0.167797 -0.878369 0.44756100000000004
vn 0.721219 0.664245 0.19652099999999997
vn 0.996056 0.079661 -0.03906400000000001
vn 0.931448 0.273314 0.24021699999999999
vn 0.803491 -0.12334799999999996 0.582398
vn 0.442982 0.64238 0.625392
vn 0.728882 -0.11512699999999995 0.67489
vn 0.661151 0.59355 0.45888799999999996
vn -0.802369 -0.08007900000000004 -0.591432
vn -0.478031 0.23232600000000006 0.84706
vn -0.498553 0.65476 0.568096
vn -0.835633 0.54378 0.07759599999999997
vn -0.718967 -0.528786 0.45107800000000003
vn 0.167797 -0.878369 0.44756100000000004
vn 0.721219 0.664245 0.19652099999999997
vn 0.167797 -0.878369 0.44756100000000004
vn 0.993184 0.091455 0.07226
vn 0.804914 0.422618 0.416542
vn 0.677658 0.20477700000000004 0.70629
vn 0.803491 -0.12334799999999996 0.582398
vn 0.851709 -0.07000599999999997 0.519318
vn 0.728882 -0.11512699999999995 0.67489
vn 0.838592 -0.315119 -0.44437
vn 0.533219 0.37554399999999993 -0.758053
vn 0.661151 0.59355 0.45888799999999996
vn 0.600107 0.21171499999999993 -0.771394
vn -0.802369 -0.08007900000000004 -0.591432
vn -0.195697 -0.0014560000000000601 -0.980663
vn -0.148279 -0.879886 -0.45145799999999997
vn 0.167797 -0.878369 0.44756100000000004
g 01
f 1/1/1 2/2/2 3/3/3
f 4/4/4 5/5/5 6/6/6
f 7/7/7 8/8/8 9/9/9
f 10/10/10 11/11/11 12/12/12
f 13/13/13 14/14/14 15/15/15
f 16/16/16 17/17/17 18/18/18
f 19/19/19 20/20/20 21/21/21
f 22/22/22 23/23/23 24/24/24
f 25/25/25 26/26/26 27/27/27
f 28/28/28 29/29/29 30/30/30
f 31/31/31 32/32/32 33/33/33
f 34/34/34 35/35/35 36/36/36
f 37/37/37 38/38/38 39/39/39
f 40/40/40 41/41/41 42/42/42
f 43/43/43 40/40/40 44/44/44
f 45/45/45 46/46/46 47/47/47
f 48/48/48 49/49/49 45/45/45
f 50/50/50 51/51/51 52/52/52
f 53/53/53 54/54/54 51/51/51
f 54/54/54 55/55/55 56/56/56
f 55/55/55 54/54/54 57/57/57
f 53/53/53 57/57/57 54/54/54
f 58/58/58 57/57/57 53/53/53
f 53/53/53 59/59/59 58/58/58
f 60/60/60 57/57/57 58/58/58
f 58/58/58 61/61/61 60/60/60
f 62/62/62 63/63/63 64/64/64
f 65/65/65 66/66/66 64/64/64
f 65/65/65 67/67/67 66/66/66
f 65/65/65 68/68/68 67/67/67
f 68/68/68 69/69/69 67/67/67
f 70/70/70 71/71/71 72/72/72
f 72/72/72 73/73/73 70/70/70
f 74/74/74 75/75/75 76/76/76
f 76/76/76 77/77/77 74/74/74
f 78/78/78 79/79/79 80/80/80
f 80/80/80 81/81/81 78/78/78
f 82/82/82 83/83/83 84/84/84
f 85/85/85 82/82/82 84/84/84
f 85/85/85 84/84/84 86/86/86
f 85/85/85 86/86/86 87/87/87
f 88/88/88 87/87/87 86/86/86
f 89/89/89 90/90/90 91/91/91
f 92/92/92 89/89/89 91/91/91
f 91/91/91 93/93/93 92/92/92
f 93/93/93 94/94/94 92/92/92
f 92/92/92 94/94/94 95/95/95
f 96/96/96 97/97/97 98/98/98
f 98/98/98 99/99/99 96/96/96
f 99/99/99 98/98/98 100/100/100
f 101/101/101 99/99/99 100/100/100
f 102/102/102 103/103/103 104/104/104
f 105/105/105 103/103/103 102/102/102
f 102/102/102 106/106/106 105/105/105
f 107/107/107 105/105/105 106/106/106
f 106/106/106 108/108/108 107/107/107
f 109/109/109 110/110/110 111/111/111
f 112/112/112 110/110/110 109/109/109
f 109/109/109 113/113/113 112/112/112
f 114/114/114 112/112/112 113/113/113
f 113/113/113 115/115/115 114/114/114
f 116/116/116 117/117/117 118/118/118
f 119/119/119 117/117/117 116/116/116
f 116/116/116 120/120/120 119/119/119
f 121/121/121 119/119/119 120/120/120
f 120/120/120 122/122/122 121/121/121
f 123/123/123 124/124/124 125/125/125
f 126/126/126 124/124/124 123/123/123
f 123/123/123 127/127/127 126/126/126
f 128/128/128 126/126/126 127/127/127
f 127/127/127 129/129/129 128/128/128
f 130/130/130 131/131/131 132/132/132
f 130/130/130 132/132/132 133/133/133
f 133/133/133 134/134/134 130/130/130
f 133/133/133 132/132/132 135/135/135
f 133/133/133 135/135/135 134/134/134
f 136/136/136 137/137/137 138/138/138
f 138/138/138 139/139/139 136/136/136
f 140/140/140 136/136/136 139/139/139
f 139/139/139 138/138/138 141/141/141
f 139/139/139 142/142/142 140/140/140
f 141/141/141 143/143/143 139/139/139
f 142/142/142 139/139/139 143/143/143
f 143/143/143 141/141/141 144/144/144
f 144/144/144 145/145/145 143/143/143
f 142/142/142 143/143/143 145/145/145
f 145/145/145 144/144/144 146/146/146
f 146/146/146 147/147/147 145/145/145
f 145/145/145 148/148/148 142/142/142
f 148/148/148 145/145/145 147/147/147
f 148/148/148 149/149/149 142/142/142
f 147/147/147 149/149/149 148/148/148
f 150/150/150 151/151/151 152/152/152
f 153/153/153 150/150/150 152/152/152
f 154/154/154 155/155/155 153/153/153
f 153/153/153 155/155/155 156/156/156
f 156/156/156 150/150/150 153/153/153
f 157/157/157 156/156/156 155/155/155
f 156/156/156 157/157/157 158/158/158
f 156/156/156 158/158/158 159/159/159
f 160/160/160 150/150/150 156/156/156
f 156/156/156 161/161/161 160/160/160
f 156/156/156 162/162/162 161/161/161
f 162/162/162 160/160/160 161/161/161
f 160/160/160 163/163/163 150/150/150
f 160/160/160 162/162/162 163/163/163
f 163/163/163 162/162/162 159/159/159
f 164/164/164 150/150/150 163/163/163
f 164/164/164 163/163/163 159/159/159
f 165/165/165 166/166/166 167/167/167
f 167/167/167 168/168/168 165/165/165
f 165/165/165 168/168/168 169/169/169
f 169/169/169 170/170/170 165/165/165
f 171/171/171 170/170/170 169/169/169
f 169/169/169 167/167/167 171/171/171
f 170/170/170 171/171/171 172/172/172
f 171/171/171 167/167/167 173/173/173
f 174/174/174 172/172/172 171/171/171
f 172/172/172 174/174/174 175/175/175
f 171/171/171 176/176/176 174/174/174
f 177/177/177 175/175/175 174/174/174
f 178/178/178 174/174/174 176/176/176
f 176/176/176 173/173/173 178/178/178
f 177/177/177 178/178/178 179/179/179
f 179/179/179 178/178/178 173/173/173
f 167/167/167 179/179/179 173/173/173
f 179/179/179 180/180/180 177/177/177
f 179/179/179 167/167/167 180/180/180
