v -0.430385 0.3370090000000003 4.591094
v -0.427413 0.3392320000000002 3.383173
v -0.443146 0.32400800000000024 3.383173
v -0.445505 0.32211900000000027 4.591094
v -0.458655 0.34002900000000025 3.383173
v -0.460628 0.3373110000000003 4.591094
v -0.4429 0.35524600000000023 3.383173
v -0.445605 0.35217000000000026 4.591094
v 0.359718 0.4743320000000002 3.615022
v 0.359718 -0.47433199999999975 3.615022
v 0.498673 0.6132870000000001 0.997015
v 0.498673 -0.6132859999999999 0.997015
v 0.625096 0.73971 -4.5294174189864433E-17
v 0.625096 -0.73971 4.5294174189864433E-17
v 0.578177 0.6927910000000002 0.94616
v 0.578177 -0.6927909999999999 0.94616
v 0.705987 -0.3939139999999999 1.944068
v 0.414354 -0.5714589999999999 1.944068
v 0.414355 -0.2163689999999999 1.944068
v 0.536282 -0.3946139999999999 1.688001
v 0.870533 -0.684632 4.1921619369692535E-17
v 0.545855 -0.684633 4.19216806020325E-17
v 0.578177 0.4259760000000001 0.94616
v 0.870533 0.15190200000000006 0.94616
v 0.87016 0.42595000000000005 0.94616
v 0.578177 0.4763740000000001 0.94616
v 0.927141 0.4763740000000001 0.94616
v 0.927141 0.476374 -0.01177500000000003
v 0.927141 0.15190200000000006 0.94616
v 0.87016 0.42595000000000005 0.94616
v 0.578177 0.4259760000000001 0.94616
v 0.870533 0.15190200000000006 0.94616
v 0.578177 0.476455 -0.01175000000000003
v 0.92714 -0.684633 4.19216806020325E-17
v 0.544979 0.15185900000000005 0.94616
v 0.870533 -0.684632 4.1921619369692535E-17
v 0.560718 -0.5590199999999997 3.614668
v 0.560718 -0.5590199999999997 3.750805
v 0.430442 -0.6892959999999998 3.750805
v 0.252482 -0.6416119999999997 3.750805
v 0.335074 -0.3333759999999998 3.750805
v 0.513034 -0.38106099999999976 3.750805
v 0.430609 -0.6895059999999997 3.614742
v 0.204607 -0.46407599999999977 3.614742
v 0.252393 -0.6417059999999998 3.614742
v 0.335074 -0.3333759999999998 3.614742
v 0.513362 -0.3812669999999998 3.614742
v 0.372333 0.48694700000000024 3.383173
v 0.372333 0.48694700000000024 3.383173
v 0.372333 0.48694700000000024 3.383173
v 0.372333 -0.4869469999999998 3.383173
v -0.601561 0.48694700000000024 3.383173
v 0.359718 0.4743320000000002 3.615022
v 0.359718 -0.47433199999999975 3.615022
v 0.498673 0.6132870000000001 0.997015
v 0.498673 -0.6132859999999999 0.997015
v 0.372333 0.48694700000000024 3.383173
v 0.372333 -0.4869469999999998 3.383173
v -0.601561 -0.4869469999999998 3.383173
v 0.513034 -0.3810609999999998 3.002018
v 0.560718 -0.5590199999999997 3.002018
v 0.560718 -0.5590199999999997 3.750805
v 0.430442 -0.6892959999999998 3.750805
v 0.252483 -0.6416119999999997 3.002018
v 0.430442 -0.6892959999999998 3.002018
v 0.252482 -0.6416119999999997 3.750805
v 0.204799 -0.46365199999999984 3.002018
v 0.204798 -0.4636519999999998 3.750805
v 0.335075 -0.33337599999999984 3.002018
v 0.513034 -0.38106099999999976 3.750805
v 0.870533 0.15190200000000006 0.94616
v 0.544979 0.15185900000000005 0.94616
v 0.359718 0.4743320000000002 3.615022
v -0.727901 -0.6132869999999999 0.997015
v -0.854324 -0.73971 4.5294174189864433E-17
v -0.807405 -0.6927909999999999 0.94616
v -0.601561 -0.4869469999999998 3.383173
v -0.854324 0.73971 -4.5294174189864433E-17
v -0.807405 0.6927910000000002 0.94616
v -0.727901 0.6132870000000001 0.997015
v -0.588946 0.4743320000000002 3.615022
v -0.588946 -0.47433199999999975 3.615022
v -0.601561 0.48694700000000024 3.383173
v -0.854324 0.73971 -4.5294174189864433E-17
v -0.807405 0.6927910000000002 0.94616
v -0.727901 0.6132870000000001 0.997015
v -0.588946 0.4743320000000002 3.615022
v 0.430465 0.6734530000000002 3.750805
v 0.560741 0.5431770000000002 3.750805
v 0.513057 0.3652180000000002 3.750805
v 0.335097 0.31753400000000015 3.002018
v 0.335097 0.3175340000000002 3.750805
v 0.204821 0.44781000000000015 3.002018
v 0.204821 0.44780900000000023 3.750805
v 0.252506 0.6257690000000002 3.002018
v 0.252506 0.6257690000000002 3.750805
v 0.560741 0.5431780000000003 3.002018
v 0.430465 0.6734530000000002 3.002018
v 0.513057 0.36521800000000015 3.002018
v 0.513057 0.3652180000000002 3.614668
v -0.79424 0.5432000000000002 3.750805
v -0.663965 0.6734760000000002 3.002018
v -0.663964 0.6734760000000002 3.750805
v -0.486005 0.6257920000000002 3.002018
v -0.486005 0.6257920000000002 3.750805
v -0.438321 0.4478320000000002 3.002018
v -0.438321 0.44783200000000023 3.750805
v -0.568597 0.3175570000000002 3.750805
v -0.746556 0.3652410000000002 3.750805
v -0.79424 0.5432000000000002 3.002018
v -0.746557 0.36524100000000015 3.002018
v -0.568597 0.31755700000000014 3.002018
v -0.568597 0.3175570000000002 3.614668
v -0.663988 -0.6911539999999998 3.750805
v -0.794263 -0.5608779999999998 3.750805
v -0.746579 -0.38291899999999984 3.002018
v -0.746579 -0.3829189999999998 3.750805
v -0.568619 -0.33523499999999984 3.002018
v -0.568619 -0.3352349999999998 3.750805
v -0.438344 -0.46550999999999976 3.750805
v -0.486028 -0.6434699999999998 3.750805
v -0.794263 -0.5608789999999998 3.002018
v -0.663988 -0.6911539999999998 3.002018
v -0.486028 -0.6434699999999998 3.002018
v -0.438344 -0.46551099999999984 3.002018
v -0.486028 -0.6434699999999998 3.614668
v 0.560951 0.5433440000000003 3.614742
v 0.335521 0.3173430000000002 3.614742
v 0.204821 0.4478100000000002 3.614742
v 0.252712 0.6260970000000002 3.614742
v 0.430483 0.6737590000000002 3.614742
v -0.485915 0.6258870000000002 3.614742
v -0.43813 0.44825700000000024 3.614742
v -0.664131 0.6736870000000003 3.614742
v -0.794546 0.5432190000000002 3.614742
v -0.746884 0.36544700000000024 3.614742
v -0.794474 -0.5610449999999998 3.614742
v -0.664006 -0.6914599999999997 3.614742
v -0.438344 -0.46550999999999976 3.614742
v -0.569044 -0.3350439999999998 3.614742
v -0.746674 -0.38282899999999975 3.614742
v 0.414354 -0.5714589999999999 1.944068
v 0.414354 -0.5714589999999999 2.376214
v 0.317143 -0.3939139999999998 2.376214
v -0.601561 -0.4869469999999998 3.383173
v 0.359718 0.4743320000000002 3.615022
v 0.498673 0.6132870000000001 0.997015
v 0.625096 0.73971 -4.5294174189864433E-17
v 0.578177 0.6927910000000002 0.94616
v -0.588946 -0.47433199999999975 3.615022
v -0.601561 -0.4869469999999998 3.383173
v 0.372333 0.48694700000000024 3.383173
v -0.601561 0.48694700000000024 3.383173
v -0.727901 -0.6132869999999999 0.997015
v -0.854324 -0.73971 4.5294174189864433E-17
v -0.807405 -0.6927909999999999 0.94616
v -0.588946 -0.47433199999999975 3.615022
v -0.601561 -0.4869469999999998 3.383173
v 0.359718 -0.47433199999999975 3.615022
v 0.498673 -0.6132859999999999 0.997015
v 0.625096 -0.73971 4.5294174189864433E-17
v 0.578177 -0.6927909999999999 0.94616
v 0.372333 -0.4869469999999998 3.383173
v -0.727901 -0.6132869999999999 0.997015
v -0.727901 0.6132870000000001 0.997015
v -0.588946 0.4743320000000002 3.615022
v -0.588946 -0.47433199999999975 3.615022
v 0.405745 -0.5253609999999999 2.672796
v 0.335075 -0.33337599999999984 3.002018
v 0.405745 -0.5253609999999999 2.672796
v 0.204799 -0.46365199999999984 3.002018
v 0.405745 -0.5253609999999999 2.672796
v 0.341485 0.6496110000000003 3.002018
v 0.410295 0.5212270000000001 2.672796
v 0.204821 0.44781000000000015 3.002018
v 0.536898 0.45419800000000016 3.002018
v 0.335097 0.31753400000000015 3.002018
v -0.770398 0.45422100000000015 3.002018
v -0.635768 0.5217360000000001 2.672796
v -0.568597 0.31755700000000014 3.002018
v -0.574985 0.6496340000000003 3.002018
v -0.438321 0.4478320000000002 3.002018
v -0.575008 -0.6673119999999998 3.002018
v -0.639106 -0.5258369999999999 2.672796
v -0.438344 -0.46551099999999984 3.002018
v -0.770421 -0.47189899999999985 3.002018
v -0.568619 -0.33523499999999984 3.002018
v 0.608776 -0.5714589999999999 2.21324
v 0.414354 -0.5714589999999999 2.21324
v 0.414355 -0.21636899999999987 2.21324
v 0.608777 -0.21636899999999987 2.21324
v 0.705988 -0.3939139999999999 2.21324
v 0.536876 -0.47003999999999985 3.002018
v 0.341463 -0.6654539999999998 3.002018
v 0.414354 -0.5714589999999999 1.944068
v 0.414354 -0.5714589999999999 2.376214
v 0.608776 -0.5714589999999999 2.376214
v 0.705988 -0.3939139999999998 2.376214
v 0.705987 -0.3939139999999999 1.944068
v 0.608776 -0.5714589999999999 1.944068
v 0.414355 -0.21636899999999987 2.376214
v 0.414355 -0.2163689999999999 1.944068
v 0.608777 -0.2163689999999999 1.944068
v 0.608777 -0.21636899999999987 2.376214
v -0.443146 0.32400800000000024 3.383173
v -0.430385 0.3370090000000003 4.591094
v -0.443146 0.32400800000000024 3.383173
v -0.460628 0.3373110000000003 4.591094
v -0.445505 0.32211900000000027 4.591094
v -0.443146 0.32400800000000024 3.383173
v -0.458655 0.34002900000000025 3.383173
v -0.445605 0.35217000000000026 4.591094
v -0.460628 0.3373110000000003 4.591094
v -0.458655 0.34002900000000025 3.383173
v -0.4429 0.35524600000000023 3.383173
v -0.427413 0.3392320000000002 3.383173
v -0.430385 0.3370090000000003 4.591094
v -0.430385 0.3370090000000003 4.591094
v -0.445605 0.35217000000000026 4.591094
v -0.4429 0.35524600000000023 3.383173
v 0.560718 -0.5590199999999997 3.750805
v 0.560718 -0.5590199999999997 3.002018
v 0.578177 0.6927910000000002 0.94616
v 0.578177 -0.6927909999999999 0.94616
v 0.927141 0.4763740000000001 0.94616
v 0.927141 0.476374 -0.01177500000000003
v 0.927141 0.4763740000000001 0.94616
v 0.578177 0.4763740000000001 0.94616
v 0.87016 0.42595000000000005 0.94616
v 0.927141 0.15190200000000006 0.94616
v 0.92714 -0.684633 4.19216806020325E-17
v 0.870533 0.15190200000000006 0.94616
v 0.927141 0.15190200000000006 0.94616
v 0.430609 -0.6895059999999997 3.614742
v 0.560718 -0.5590199999999997 3.614668
v 0.252393 -0.6417059999999998 3.614742
v 0.204798 -0.4636519999999998 3.750805
v 0.204607 -0.46407599999999977 3.614742
v 0.335074 -0.3333759999999998 3.750805
v 0.335074 -0.3333759999999998 3.614742
v 0.513362 -0.3812669999999998 3.614742
v 0.560718 -0.5590199999999997 3.750805
v 0.560718 -0.5590199999999997 3.614668
v -0.807405 -0.6927909999999999 0.94616
v -0.807405 0.6927910000000002 0.94616
v -0.588946 0.4743320000000002 3.615022
v -0.727901 0.6132870000000001 0.997015
v 0.498673 0.6132870000000001 0.997015
v 0.359718 0.4743320000000002 3.615022
v -0.807405 0.6927910000000002 0.94616
v 0.578177 0.6927910000000002 0.94616
v 0.430465 0.6734530000000002 3.002018
v 0.430465 0.6734530000000002 3.750805
v 0.430483 0.6737590000000002 3.614742
v 0.430465 0.6734530000000002 3.750805
v 0.560741 0.5431770000000002 3.750805
v 0.560951 0.5433440000000003 3.614742
v 0.513057 0.3652180000000002 3.750805
v 0.513057 0.3652180000000002 3.614668
v 0.335097 0.3175340000000002 3.750805
v 0.335521 0.3173430000000002 3.614742
v 0.204821 0.44780900000000023 3.750805
v 0.204821 0.4478100000000002 3.614742
v 0.252506 0.6257690000000002 3.750805
v 0.252712 0.6260970000000002 3.614742
v 0.430465 0.6734530000000002 3.750805
v 0.430483 0.6737590000000002 3.614742
v -0.79424 0.5432000000000002 3.002018
v -0.79424 0.5432000000000002 3.750805
v -0.794546 0.5432190000000002 3.614742
v -0.79424 0.5432000000000002 3.750805
v -0.663964 0.6734760000000002 3.750805
v -0.664131 0.6736870000000003 3.614742
v -0.486005 0.6257920000000002 3.750805
v -0.485915 0.6258870000000002 3.614742
v -0.438321 0.44783200000000023 3.750805
v -0.43813 0.44825700000000024 3.614742
v -0.568597 0.3175570000000002 3.750805
v -0.568597 0.3175570000000002 3.614668
v -0.746556 0.3652410000000002 3.750805
v -0.746884 0.36544700000000024 3.614742
v -0.79424 0.5432000000000002 3.750805
v -0.794546 0.5432190000000002 3.614742
v -0.663988 -0.6911539999999998 3.002018
v -0.663988 -0.6911539999999998 3.750805
v -0.664006 -0.6914599999999997 3.614742
v -0.663988 -0.6911539999999998 3.750805
v -0.794263 -0.5608779999999998 3.750805
v -0.794474 -0.5610449999999998 3.614742
v -0.746579 -0.3829189999999998 3.750805
v -0.746674 -0.38282899999999975 3.614742
v -0.568619 -0.3352349999999998 3.750805
v -0.569044 -0.3350439999999998 3.614742
v -0.438344 -0.46550999999999976 3.750805
v -0.438344 -0.46550999999999976 3.614742
v -0.486028 -0.6434699999999998 3.750805
v -0.486028 -0.6434699999999998 3.614668
v -0.663988 -0.6911539999999998 3.750805
v -0.664006 -0.6914599999999997 3.614742
v 0.359718 -0.47433199999999975 3.615022
v 0.498673 -0.6132859999999999 0.997015
v -0.727901 -0.6132869999999999 0.997015
v -0.588946 -0.47433199999999975 3.615022
v 0.578177 -0.6927909999999999 0.94616
v -0.807405 -0.6927909999999999 0.94616
v 0.536876 -0.47003999999999985 3.002018
v 0.341463 -0.6654539999999998 3.002018
v 0.341485 0.6496110000000003 3.002018
v 0.536898 0.45419800000000016 3.002018
v -0.770398 0.45422100000000015 3.002018
v -0.574985 0.6496340000000003 3.002018
v -0.575008 -0.6673119999999998 3.002018
v -0.770421 -0.47189899999999985 3.002018
v 0.608776 -0.5714589999999999 1.944068
v 0.608776 -0.5714589999999999 2.376214
v 0.608777 -0.2163689999999999 1.944068
v 0.705987 -0.3939139999999999 1.944068
v 0.705988 -0.3939139999999998 2.376214
v 0.608777 -0.21636899999999987 2.376214
v 0.705987 -0.3939139999999999 1.944068
v 0.536282 -0.3946139999999999 1.688001
v 0.927141 0.4763740000000001 0.94616
v 0.405745 -0.5253609999999999 2.672796
v 0.405745 -0.5253609999999999 2.672796
v 0.410295 0.5212270000000001 2.672796
v 0.410295 0.5212270000000001 2.672796
v -0.635768 0.5217360000000001 2.672796
v -0.635768 0.5217360000000001 2.672796
v -0.639106 -0.5258369999999999 2.672796
v -0.639106 -0.5258369999999999 2.672796
vt 0.941239 0.086925
vt 0.941239 0.385576
vt 0.946122 0.385576
vt 0.946122 0.086925
vt 0.951180 0.385576
vt 0.951180 0.086925
vt 0.956032 0.385576
vt 0.956032 0.086925
vt 0.401835 0.090586
vt 0.622374 0.090586
vt 0.373181 0.737159
vt 0.651060 0.737159
vt 0.344539 0.995026
vt 0.679701 0.995026
vt 0.355169 0.760495
vt 0.669072 0.760495
vt 0.381414 0.410615
vt 0.357420 0.450926
vt 0.313691 0.300915
vt 0.313691 0.383733
vt 0.996059 0.629539
vt 0.922503 0.629542
vt 0.922219 0.989467
vt 0.996072 0.921737
vt 0.996073 0.989467
vt 0.907516 0.616949
vt 0.907516 0.703227
vt 0.690496 0.703227
vt 0.907516 0.783450
vt 0.790543 0.022168
vt 0.856692 0.022168
vt 0.703788 0.022168
vt 0.690501 0.616949
vt 0.693163 0.990276
vt 0.922317 0.921730
vt 0.412309 0.022168
vt 0.343850 0.300484
vt 0.852074 0.305649
vt 0.852074 0.259652
vt 0.852074 0.215510
vt 0.818644 0.215510
vt 0.852074 0.078514
vt 0.384073 0.276449
vt 0.343850 0.204345
vt 0.384073 0.228380
vt 0.303628 0.228380
vt 0.303628 0.276449
vt 0.401835 0.146129
vt 0.401835 0.146129
vt 0.401835 0.031645
vt 0.622374 0.031645
vt 0.658446 0.328924
vt 0.404859 0.090586
vt 0.622374 0.090586
vt 0.376205 0.737159
vt 0.651060 0.737159
vt 0.658446 0.598606
vt 0.905557 0.598606
vt 0.905557 0.328924
vt 0.648864 0.259652
vt 0.648864 0.032842
vt 0.818644 0.032842
vt 0.818644 0.078514
vt 0.648864 0.124175
vt 0.648864 0.078514
vt 0.818644 0.124175
vt 0.648864 0.169837
vt 0.818644 0.169837
vt 0.648864 0.215510
vt 0.818644 0.259652
vt 0.996072 0.921737
vt 0.922317 0.921730
vt 0.401835 0.146129
vt 0.036449 0.735776
vt 0.008308 0.993143
vt 0.019383 0.759066
vt 0.065153 0.031645
vt 0.342628 0.993143
vt 0.331540 0.759066
vt 0.312781 0.735776
vt 0.284403 0.090471
vt 0.065153 0.090471
vt 0.284403 0.031645
vt 0.006438 0.995013
vt 0.017575 0.760482
vt 0.034736 0.737146
vt 0.063600 0.090586
vt 0.818644 0.032842
vt 0.818644 0.078514
vt 0.818644 0.124175
vt 0.648864 0.169837
vt 0.818644 0.169837
vt 0.648864 0.215510
vt 0.818644 0.215510
vt 0.648864 0.259652
vt 0.818644 0.259652
vt 0.648864 0.078514
vt 0.648864 0.032842
vt 0.648864 0.124175
vt 0.384073 0.228380
vt 0.818644 0.032842
vt 0.648864 0.078514
vt 0.818644 0.078514
vt 0.648864 0.124175
vt 0.818644 0.124175
vt 0.648864 0.169837
vt 0.818644 0.169837
vt 0.818644 0.215510
vt 0.818644 0.259652
vt 0.648864 0.032842
vt 0.648864 0.259652
vt 0.648864 0.215510
vt 0.303628 0.228380
vt 0.818644 0.032842
vt 0.818644 0.078514
vt 0.648864 0.124175
vt 0.818644 0.124175
vt 0.648864 0.169837
vt 0.818644 0.169837
vt 0.818644 0.215510
vt 0.818644 0.259652
vt 0.648864 0.078514
vt 0.648864 0.032842
vt 0.648864 0.259652
vt 0.648864 0.215510
vt 0.303628 0.276449
vt 0.384073 0.276449
vt 0.343850 0.204345
vt 0.303628 0.228380
vt 0.303628 0.276449
vt 0.343850 0.300484
vt 0.384073 0.228380
vt 0.343850 0.204345
vt 0.384073 0.276449
vt 0.343850 0.300484
vt 0.303628 0.276449
vt 0.384073 0.276449
vt 0.343850 0.300484
vt 0.303628 0.228380
vt 0.343850 0.204345
vt 0.384073 0.228380
vt 0.702730 0.215510
vt 0.818644 0.215510
vt 0.818644 0.259652
vt 0.063382 0.146126
vt 0.284078 0.090586
vt 0.312614 0.737146
vt 0.342628 0.995013
vt 0.331478 0.760481
vt 0.063382 0.146126
vt 0.063382 0.146126
vt 0.284078 0.031645
vt 0.063600 0.031645
vt 0.312781 0.735776
vt 0.342628 0.993143
vt 0.331540 0.759066
vt 0.284078 0.090586
vt 0.284078 0.031645
vt 0.063600 0.090586
vt 0.036449 0.735776
vt 0.008308 0.993143
vt 0.019384 0.759066
vt 0.063600 0.031645
vt 0.039451 0.735776
vt 0.312781 0.735776
vt 0.284403 0.090471
vt 0.068155 0.090471
vt 0.000000 0.000000
vt 0.920369 0.862577
vt 0.000000 0.000000
vt 0.758688 0.963417
vt 0.823546 0.882004
vt 0.891087 0.959105
vt 0.823546 0.882004
vt 0.920369 0.862577
vt 0.849518 0.985297
vt 0.758688 0.963417
vt 0.891087 0.959105
vt 0.823546 0.882004
vt 0.920369 0.862577
vt 0.849518 0.985297
vt 0.758688 0.963417
vt 0.891087 0.959105
vt 0.823546 0.882004
vt 0.920369 0.862577
vt 0.849518 0.985297
vt 0.758688 0.963417
vt 0.384073 0.276449
vt 0.384073 0.228380
vt 0.303628 0.228380
vt 0.303628 0.276449
vt 0.343850 0.300484
vt 0.891087 0.959105
vt 0.849518 0.985297
vt 0.703213 0.170006
vt 0.819128 0.170006
vt 0.819128 0.124334
vt 0.818644 0.033562
vt 0.702730 0.033562
vt 0.703213 0.124334
vt 0.818644 0.216796
vt 0.702730 0.216796
vt 0.702730 0.171125
vt 0.818644 0.171125
vt 0.946122 0.385576
vt 0.941239 0.086925
vt 0.946122 0.385576
vt 0.951180 0.086925
vt 0.946122 0.086925
vt 0.946122 0.385576
vt 0.951180 0.385576
vt 0.956032 0.086925
vt 0.951180 0.086925
vt 0.951180 0.385576
vt 0.956032 0.385576
vt 0.960901 0.385576
vt 0.960901 0.086925
vt 0.960901 0.086925
vt 0.956032 0.086925
vt 0.956032 0.385576
vt 0.818644 0.305649
vt 0.648864 0.305649
vt 0.355169 0.760495
vt 0.669072 0.760495
vt 0.907516 0.703227
vt 0.690496 0.703227
vt 0.777634 0.008675
vt 0.856692 0.008675
vt 0.765873 0.022168
vt 0.703788 0.008675
vt 0.412309 0.008675
vt 0.703788 0.022168
vt 0.703788 0.008675
vt 0.818644 0.259652
vt 0.818644 0.305649
vt 0.818644 0.215510
vt 0.852074 0.169837
vt 0.818644 0.169837
vt 0.852074 0.124175
vt 0.818644 0.124175
vt 0.818644 0.078514
vt 0.852074 0.032842
vt 0.818644 0.032842
vt 0.019383 0.759066
vt 0.331540 0.759066
vt 0.066603 0.090586
vt 0.037738 0.737146
vt 0.312614 0.737146
vt 0.284078 0.090586
vt 0.017575 0.760482
vt 0.331478 0.760481
vt 0.648864 0.305649
vt 0.818644 0.305649
vt 0.818644 0.305649
vt 0.852074 0.305649
vt 0.852074 0.259652
vt 0.818644 0.259652
vt 0.852074 0.215510
vt 0.818644 0.215510
vt 0.852074 0.169837
vt 0.818644 0.169837
vt 0.852074 0.124175
vt 0.818644 0.124175
vt 0.852074 0.078514
vt 0.818644 0.078514
vt 0.852074 0.032842
vt 0.818644 0.032842
vt 0.648864 0.305649
vt 0.818644 0.305649
vt 0.818644 0.305649
vt 0.852074 0.305649
vt 0.852074 0.259652
vt 0.818644 0.259652
vt 0.852074 0.215510
vt 0.818644 0.215510
vt 0.852074 0.169837
vt 0.818644 0.169837
vt 0.852074 0.124175
vt 0.818644 0.124175
vt 0.852074 0.078514
vt 0.818644 0.078514
vt 0.852074 0.032842
vt 0.818644 0.032842
vt 0.648864 0.305649
vt 0.818644 0.305649
vt 0.818644 0.305649
vt 0.852074 0.305649
vt 0.852074 0.259652
vt 0.818644 0.259652
vt 0.852074 0.215510
vt 0.818644 0.215510
vt 0.852074 0.169837
vt 0.818644 0.169837
vt 0.852074 0.124175
vt 0.818644 0.124175
vt 0.852074 0.078514
vt 0.818644 0.078514
vt 0.852074 0.032842
vt 0.818644 0.032842
vt 0.066603 0.090586
vt 0.037738 0.737146
vt 0.312614 0.737146
vt 0.284078 0.090586
vt 0.019384 0.759066
vt 0.331540 0.759066
vt 0.916707 0.914807
vt 0.801544 0.987011
vt 0.916707 0.914807
vt 0.801544 0.987011
vt 0.916707 0.914807
vt 0.801544 0.987011
vt 0.916707 0.914807
vt 0.801544 0.987011
vt 0.702730 0.079224
vt 0.818644 0.079224
vt 0.702730 0.034710
vt 0.702730 0.080372
vt 0.818644 0.080372
vt 0.818644 0.034710
vt 0.381414 0.410615
vt 0.313691 0.383733
vt 0.777634 0.008675
vt 0.823546 0.882004
vt 0.823546 0.882004
vt 0.823546 0.882004
vt 0.823546 0.882004
vt 0.823546 0.882004
vt 0.823546 0.882004
vt 0.823546 0.882004
vt 0.823546 0.882004
vn 0.695389 -0.718634 0.000388000000000044
vn 0.695389 -0.718634 0.000388000000000044
vn 0.695389 -0.718634 0.000388000000000044
vn 0.701675 -0.712497 0.00025600000000004363
vn -0.718487 -0.695535 -0.0027379999999999575
vn -0.718487 -0.695535 -0.0027379999999999575
vn -0.694729 0.719271 0.00027599999999995597
vn -0.694729 0.719271 0.00027599999999995597
vn -0.998523 -3.326691797543828E-18 -0.054329
vn -0.998523 -3.326691797543828E-18 -0.054329
vn 0.538849 5.158230687710639E-17 0.842403
vn 0.538849 5.158230687710639E-17 0.842403
vn 0.998773 3.0327153334085056E-18 0.049528
vn 0.998773 3.0327153334085056E-18 0.049528
vn 0.998773 3.0327153334085056E-18 0.049528
vn 0.998773 3.0327153334085056E-18 0.049528
vn 0.83356 -0.0009850000000000338 -0.552428
vn 0.491985 -0.80813 -0.32384799999999997
vn 0.491279 0.806967 -0.32779500000000006
vn 0.83356 -0.0009850000000000338 -0.552428
vn 1E-06 -0.749175 0.662373
vn 1E-06 -0.749175 0.662373
vn 0 6.123233995736766E-17 1
vn 0 6.123233995736766E-17 1
vn 0 6.123233995736766E-17 1
vn 0 1 -6.123233995736766E-17
vn 0 1 -6.123233995736766E-17
vn 0 1 -6.123233995736766E-17
vn 1 -0 0
vn 0 6.123233995736766E-17 1
vn 0 6.123233995736766E-17 1
vn 0 6.123233995736766E-17 1
vn 0.000233 1 8.499999999993878E-05
vn 1 -0 0
vn 0 6.123233995736766E-17 1
vn -2E-06 -0.749175 0.662373
vn 0.000775 -0.00020799999999993876 1
vn -0.997395 0.072123 -0.0007320000000000045
vn -0.437162 0.899382 -0.001187000000000055
vn 0.560807 0.827946 -0.0010720000000000508
vn -0.071612 0.997433 -6.10751565406971E-17
vn -0.560917 -0.827872 -0.0004159999999999493
vn 0.000258 -6.899999999993877E-05 1
vn 0 6.123233995736766E-17 1
vn 0 6.123233995736766E-17 1
vn 0 6.123233995736766E-17 1
vn 0.000258 -6.899999999993877E-05 1
vn 1 0 0
vn 1 0 0
vn -0.998523 -3.326691797543828E-18 -0.054329
vn -0.998523 -3.326691797543828E-18 -0.054329
vn 0 6.123233995736766E-17 1
vn 0.998594 3.2454364824204007E-18 0.053002
vn 0.998594 3.2454364824204007E-18 0.053002
vn 0.998594 3.2454364824204007E-18 0.053002
vn 0.998594 3.2454364824204007E-18 0.053002
vn 0 6.123233995736766E-17 1
vn 0 6.123233995736766E-17 1
vn 0 6.123233995736766E-17 1
vn 0.707107 0.707107 -4.329781621023438E-17
vn 0.899608 -0.436699 2.67401016270425E-17
vn 0.997432 -0.071613 4.38503156136697E-18
vn 0.258818 -0.965926 5.914590920566031E-17
vn -0.560735 -0.827995 5.0700071323000636E-17
vn 0.258819 -0.965926 5.914590920566031E-17
vn -0.827996 -0.560734 3.433505491365459E-17
vn -0.997432 0.071613 -4.38503156136697E-18
vn -0.899608 0.436699 -2.67401016270425E-17
vn -0.436697 0.899609 -5.5085164116707564E-17
vn 0.707107 0.707107 -4.329781621023438E-17
vn 1E-06 -0.749175 0.662373
vn 9.8E-05 -0.749191 0.662354
vn 1 0 0
vn -0.538849 5.158224564476643E-17 0.842402
vn -0.998773 3.0327153334085056E-18 0.049528
vn -0.998773 3.0327153334085056E-18 0.049528
vn 0.998523 -3.326691797543828E-18 -0.054329
vn -0.998773 3.0327153334085056E-18 0.049528
vn -0.998773 3.0327153334085056E-18 0.049528
vn -0.538849 5.158224564476643E-17 0.842402
vn 0.998523 -3.326691797543828E-18 -0.054329
vn 0.998523 -3.326691797543828E-18 -0.054329
vn 0.998523 -3.326691797543828E-18 -0.054329
vn 0 0.998773 0.04952799999999994
vn 0 0.998773 0.04952799999999994
vn 0 0.538849 0.842403
vn 0 -0.998523 -0.05432899999999994
vn 0.071613 0.997432 -6.107509530835714E-17
vn 0.965926 0.258818 -1.5848031763085984E-17
vn 0.560734 -0.827996 5.070013255534059E-17
vn -0.071613 -0.997432 6.107509530835714E-17
vn -0.436699 -0.899608 5.5085102884367607E-17
vn -0.899609 -0.436697 2.6739979162362585E-17
vn -0.997433 -0.071612 4.384970329027013E-18
vn -0.707107 0.707107 -4.329781621023438E-17
vn -0.707107 0.707107 -4.329781621023438E-17
vn 0.965926 0.258819 -1.584809299542594E-17
vn 0.436699 0.899608 -5.5085102884367607E-17
vn 0.827996 -0.560735 3.4335116145994555E-17
vn 0.000568 -0.0005659999999999387 1
vn -0.997432 0.071613 -4.38503156136697E-18
vn -0.258819 0.965926 -5.914590920566031E-17
vn -0.258818 0.965926 -5.914590920566031E-17
vn 0.560734 0.827996 -5.070013255534059E-17
vn 0.827996 0.560734 -3.433505491365459E-17
vn 0.997432 -0.071614 4.385092793706928E-18
vn 0.899608 -0.436699 2.67401016270425E-17
vn 0.071612 -0.997433 6.10751565406971E-17
vn -0.707107 -0.707107 4.329781621023438E-17
vn -0.899607 0.4367 -2.6740162859382456E-17
vn -0.707107 -0.707107 4.329781621023438E-17
vn 0.436697 -0.899609 5.5085164116707564E-17
vn 0.000206 -0.0007699999999999387 1
vn -0.071613 -0.997432 6.107509530835714E-17
vn -0.965926 -0.258819 1.584809299542594E-17
vn -0.827996 0.560734 -3.433505491365459E-17
vn -0.560734 0.827996 -5.070013255534059E-17
vn 0.071613 0.997432 -6.107509530835714E-17
vn 0.436699 0.899608 -5.5085102884367607E-17
vn 0.997433 0.071612 -4.384970329027013E-18
vn 0.707107 -0.707107 4.329781621023438E-17
vn -0.965926 -0.25882 1.5848154227765898E-17
vn -0.436699 -0.899608 5.5085102884367607E-17
vn 0.707106 -0.707107 4.329781621023438E-17
vn 0.899609 0.436697 -2.6739979162362585E-17
vn 6.3E-05 -6.299999999993877E-05 1
vn 0.000189 -0.00018899999999993878 1
vn 0.000189 -0.00018899999999993878 1
vn 0 6.123233995736766E-17 1
vn 0 6.123233995736766E-17 1
vn 0 6.123233995736766E-17 1
vn 0 6.123233995736766E-17 1
vn 6.9E-05 -0.00025699999999993876 1
vn 0 6.123233995736766E-17 1
vn 0 6.123233995736766E-17 1
vn 6.9E-05 -0.00025699999999993876 1
vn 0.000172 4.600000000006123E-05 1
vn 0.000326 0.00032600000000006127 1
vn -0.000326 -0.0003269999999999387 1
vn -4.6E-05 -0.00017199999999993878 1
vn 0 6.123233995736766E-17 1
vn -0.87713 -0.480254 2.940707619388565E-17
vn -0.87713 -0.480254 2.940707619388565E-17
vn -0.87713 -0.480254 2.940707619388565E-17
vn 1 0 0
vn 0 -0.998523 -0.05432899999999994
vn 0 0.538849 0.842403
vn 0 0.998773 0.04952799999999994
vn 0 0.998773 0.04952799999999994
vn 1 0 0
vn 1 0 0
vn 0 -0.998523 -0.05432899999999994
vn 0 -0.998523 -0.05432899999999994
vn 0 -0.538849 0.842402
vn -0 -0.998773 0.049528000000000065
vn -0 -0.998773 0.049528000000000065
vn -0 0.998523 -0.054329000000000065
vn -0 0.998523 -0.054329000000000065
vn -0 0.998523 -0.054329000000000065
vn 0 -0.538849 0.842403
vn -0 -0.998773 0.049528000000000065
vn -0 -0.998773 0.049528000000000065
vn -0 0.998523 -0.054329000000000065
vn -0.998595 3.2454364824204007E-18 0.053002
vn -0.998595 3.2454364824204007E-18 0.053002
vn -0.998595 3.2454364824204007E-18 0.053002
vn -0.998595 3.2454364824204007E-18 0.053002
vn 0 0 0
vn 0.527171 0.778434 -0.34077900000000005
vn 0 0 0
vn -0.768701 -0.520579 -0.37161199999999994
vn 0.42297 -0.40784100000000006 -0.809174
vn -0.052685 0.926596 -0.37235000000000007
vn 0.426575 0.42349099999999995 -0.799181
vn -0.770955 0.522106 -0.36473700000000003
vn 0.928246 -0.054205000000000024 -0.367995
vn 0.52343 -0.772911 -0.35864899999999994
vn -0.920547 -0.05214000000000002 -0.387137
vn -0.414825 0.42634299999999997 -0.803836
vn -0.52079 -0.769012 -0.3706729999999999
vn 0.057851 0.926919 -0.37077600000000005
vn 0.776367 0.52577 -0.34759100000000004
vn 0.053014 -0.913683 -0.40295499999999995
vn -0.423041 -0.40592800000000007 -0.810098
vn 0.768198 -0.520239 -0.37312499999999993
vn -0.923566 0.06157099999999998 -0.378465
vn -0.527704 0.779222 -0.33814500000000003
vn 0 6.123233995736766E-17 1
vn 0 6.123233995736766E-17 1
vn 0 6.123233995736766E-17 1
vn 0 6.123233995736766E-17 1
vn 0 6.123233995736766E-17 1
vn 0.923756 0.06071299999999998 -0.378138
vn -0.053159 -0.915074 -0.39976599999999995
vn -0 -1 6.123233995736766E-17
vn -1E-06 -1 6.123233995736766E-17
vn 0.509776 -0.860307 5.2678610691703105E-17
vn 0.98375 0.179543 -1.0000000000109938E-06
vn 0.98375 -0.179545 1.0993960477645577E-17
vn 0.509777 -0.860307 5.2678610691703105E-17
vn 0 1 -6.123233995736766E-17
vn 0 1 -6.123233995736766E-17
vn 0.509778 0.860306 -5.267854945936314E-17
vn 0.509777 0.860307 -5.2678610691703105E-17
vn 0.701675 -0.712497 0.00025600000000004363
vn 0.701675 -0.712497 0.00025600000000004363
vn -0.718487 -0.695535 -0.0027379999999999575
vn -0.708719 -0.705487 -0.0024869999999999567
vn -0.708719 -0.705487 -0.0024869999999999567
vn -0.708719 -0.705487 -0.0024869999999999567
vn -0.694729 0.719271 0.00027599999999995597
vn -0.703189 0.711003 0.0004509999999999565
vn -0.703189 0.711003 0.0004509999999999565
vn -0.703189 0.711003 0.0004509999999999565
vn 0.718837 0.695172 0.0030469999999999573
vn 0.718837 0.695172 0.0030469999999999573
vn 0.718837 0.695172 0.0030469999999999573
vn 0.705702 0.708501 0.0033849999999999566
vn 0.705702 0.708501 0.0033849999999999566
vn 0.705702 0.708501 0.0033849999999999566
vn 0.997432 -0.071613 4.38503156136697E-18
vn 0.899608 -0.436699 2.67401016270425E-17
vn 0.538849 5.158230687710639E-17 0.842403
vn 0.538849 5.158224564476643E-17 0.842402
vn 1 -0 0
vn 1 0 0
vn 0 6.123233995736766E-17 1
vn 0 6.123233995736766E-17 1
vn 0 6.123233995736766E-17 1
vn 0 6.123233995736766E-17 1
vn -2E-06 -0.749175 0.662373
vn -2E-06 -0.749175 0.662373
vn -1E-06 -0.749175 0.662373
vn -0.071937 0.997408 -0.0015060000000000611
vn -0.899655 0.436602 -0.0007420000000000268
vn 0.827835 0.56097 -0.0014450000000000344
vn 0.997458 -0.071259 -0.0006679999999999956
vn 0.899871 -0.436156 -0.0003599999999999733
vn 0.436984 -0.899469 0.0004580000000000551
vn 0.071646 -0.99743 0.0003160000000000611
vn -0.828381 -0.560165 -0.00041599999999996566
vn -0.997395 0.072123 -0.0007320000000000045
vn -0.899655 0.436602 -0.0007420000000000268
vn -0.538849 5.158224564476643E-17 0.842402
vn -0.538849 5.158224564476643E-17 0.842402
vn 0 0.998595 0.05300199999999994
vn 0 0.998595 0.05300199999999994
vn 0 0.998595 0.05300199999999994
vn -0 0.998595 0.05300199999999994
vn 0 0.538849 0.842403
vn 0 0.538848 0.842403
vn 0.436699 0.899608 -5.5085102884367607E-17
vn 0.071613 0.997432 -6.107509530835714E-17
vn -0.436594 -0.899656 -0.002186999999999945
vn -0.071559 -0.997434 -0.002175999999999939
vn -0.899575 -0.436762 -0.0018239999999999734
vn -0.99745 -0.071361 -0.0011869999999999956
vn -0.827822 0.560992 -0.00044500000000003434
vn -0.561002 0.827814 -0.0008180000000000508
vn 0.071043 0.997473 -0.0003600000000000611
vn 0.436001 0.899946 -0.00036000000000005515
vn 0.899469 0.436984 0.0004589999999999732
vn 0.99743 0.071646 0.0003159999999999956
vn 0.827872 -0.560917 -0.0004159999999999656
vn 0.560633 -0.828064 -0.0012239999999999493
vn -0.071559 -0.997434 -0.002175999999999939
vn -0.436594 -0.899656 -0.002186999999999945
vn -0.899607 0.4367 -2.6740162859382456E-17
vn -0.997432 0.071613 -4.38503156136697E-18
vn 0.899656 -0.436595 -0.0021869999999999733
vn 0.997434 -0.07156 -0.0021759999999999956
vn 0.436761 -0.899576 -0.001823999999999945
vn 0.071582 -0.997434 -0.0015059999999999388
vn -0.560807 -0.827946 -0.0010719999999999493
vn -0.827835 -0.56097 -0.0014449999999999658
vn -0.997458 0.071259 -0.0006680000000000043
vn -0.899871 0.436156 -0.00036000000000002675
vn -0.436984 0.899469 0.0004589999999999449
vn -0.071646 0.99743 0.0003159999999999389
vn 0.560917 0.827872 -0.00041600000000005066
vn 0.828064 0.560633 -0.0012230000000000342
vn 0.997434 -0.07156 -0.0021759999999999956
vn 0.899656 -0.436595 -0.0021869999999999733
vn -0.436699 -0.899608 5.5085102884367607E-17
vn -0.071613 -0.997432 6.107509530835714E-17
vn 0.436227 0.899834 -0.0021870000000000552
vn 0.07105 0.997472 -0.0014440000000000611
vn 0.899575 0.436762 -0.0018240000000000268
vn 0.997434 0.071583 -0.0015060000000000043
vn 0.827946 -0.560807 -0.0010719999999999658
vn 0.56097 -0.827835 -0.0014449999999999494
vn -0.071259 -0.997458 -0.0006679999999999389
vn -0.436157 -0.899871 -0.00035999999999994495
vn -0.899469 -0.436984 0.00045900000000002677
vn -0.997414 -0.071866 4.400523343376184E-18
vn -0.827996 0.560735 -3.4335116145994555E-17
vn -0.561202 0.827679 -0.0008070000000000506
vn 0.07105 0.997472 -0.0014440000000000611
vn 0.436227 0.899834 -0.0021870000000000552
vn 0 -0.998594 0.05300200000000006
vn 0 -0.998594 0.05300200000000006
vn 0 -0.998594 0.05300200000000006
vn 0 -0.998595 0.05300200000000006
vn 0 -0.538849 0.842402
vn -0 -0.538849 0.842402
vn 0.923756 0.06071299999999998 -0.378138
vn -0.053159 -0.915074 -0.39976599999999995
vn -0.052685 0.926596 -0.37235000000000007
vn 0.928246 -0.054205000000000024 -0.367995
vn -0.920547 -0.05214000000000002 -0.387137
vn 0.057851 0.926919 -0.37077600000000005
vn 0.053014 -0.913683 -0.40295499999999995
vn -0.923566 0.06157099999999998 -0.378465
vn 0.509777 -0.860307 5.2678610691703105E-17
vn 0.509776 -0.860307 5.2678610691703105E-17
vn 0.509778 0.860306 -5.267854945936314E-17
vn 0.98375 -0.179545 1.0993960477645577E-17
vn 0.98375 0.179543 -1.0000000000109938E-06
vn 0.509777 0.860307 -5.2678610691703105E-17
vn 0.83356 -0.0009850000000000338 -0.552428
vn 0.83356 -0.0009850000000000338 -0.552428
vn 0 6.123233995736766E-17 1
vn 0.42297 -0.40784100000000006 -0.809174
vn 0.42297 -0.40784100000000006 -0.809174
vn 0.426575 0.42349099999999995 -0.799181
vn 0.426575 0.42349099999999995 -0.799181
vn -0.414825 0.42634299999999997 -0.803836
vn -0.414825 0.42634299999999997 -0.803836
vn -0.423041 -0.40592800000000007 -0.810098
vn -0.423041 -0.40592800000000007 -0.810098
g 01
f 316/316/316 319/319/319 318/318/318
f 318/318/318 317/317/317 316/316/316
f 203/203/203 202/202/202 201/201/201
f 201/201/201 204/204/204 203/203/203
f 199/199/199 198/198/198 315/315/315
f 315/315/315 314/314/314 199/199/199
f 197/197/197 196/196/196 195/195/195
f 195/195/195 200/200/200 197/197/197
f 192/192/192 191/191/191 188/188/188
f 191/191/191 190/190/190 188/188/188
f 190/190/190 189/189/189 188/188/188
f 330/330/330 313/313/313 187/187/187
f 329/329/329 185/185/185 312/312/312
f 184/184/184 183/183/183 186/186/186
f 328/328/328 311/311/311 182/182/182
f 327/327/327 180/180/180 310/310/310
f 179/179/179 178/178/178 181/181/181
f 326/326/326 309/309/309 177/177/177
f 325/325/325 175/175/175 308/308/308
f 174/174/174 173/173/173 176/176/176
f 324/324/324 307/307/307 171/171/171
f 323/323/323 169/169/169 306/306/306
f 172/172/172 193/193/193 194/194/194
f 159/159/159 163/163/163 158/158/158
f 158/158/158 157/157/157 159/159/159
f 304/304/304 160/160/160 154/154/154
f 154/154/154 305/305/305 304/304/304
f 300/300/300 303/303/303 302/302/302
f 302/302/302 301/301/301 300/300/300
f 162/162/162 156/156/156 155/155/155
f 155/155/155 161/161/161 162/162/162
f 151/151/151 150/150/150 145/145/145
f 153/153/153 152/152/152 146/146/146
f 146/146/146 87/87/87 153/153/153
f 297/297/297 299/299/299 298/298/298
f 298/298/298 296/296/296 297/297/297
f 295/295/295 297/297/297 296/296/296
f 296/296/296 294/294/294 295/295/295
f 293/293/293 295/295/295 294/294/294
f 294/294/294 292/292/292 293/293/293
f 291/291/291 293/293/293 292/292/292
f 292/292/292 290/290/290 291/291/291
f 289/289/289 291/291/291 290/290/290
f 290/290/290 288/288/288 289/289/289
f 286/286/286 289/289/289 288/288/288
f 288/288/288 287/287/287 286/286/286
f 124/124/124 121/121/121 285/285/285
f 285/285/285 284/284/284 124/124/124
f 124/124/124 125/125/125 120/120/120
f 120/120/120 121/121/121 124/124/124
f 125/125/125 118/118/118 119/119/119
f 119/119/119 120/120/120 125/125/125
f 118/118/118 116/116/116 117/117/117
f 117/117/117 119/119/119 118/118/118
f 116/116/116 122/122/122 115/115/115
f 115/115/115 117/117/117 116/116/116
f 123/123/123 114/114/114 115/115/115
f 115/115/115 122/122/122 123/123/123
f 139/139/139 140/140/140 126/126/126
f 140/140/140 137/137/137 126/126/126
f 140/140/140 141/141/141 137/137/137
f 137/137/137 138/138/138 126/126/126
f 281/281/281 283/283/283 282/282/282
f 282/282/282 280/280/280 281/281/281
f 279/279/279 281/281/281 280/280/280
f 280/280/280 278/278/278 279/279/279
f 277/277/277 279/279/279 278/278/278
f 278/278/278 276/276/276 277/277/277
f 275/275/275 277/277/277 276/276/276
f 276/276/276 274/274/274 275/275/275
f 273/273/273 275/275/275 274/274/274
f 274/274/274 272/272/272 273/273/273
f 270/270/270 273/273/273 272/272/272
f 272/272/272 271/271/271 270/270/270
f 111/111/111 109/109/109 269/269/269
f 269/269/269 268/268/268 111/111/111
f 111/111/111 112/112/112 108/108/108
f 108/108/108 109/109/109 111/111/111
f 112/112/112 106/106/106 107/107/107
f 107/107/107 108/108/108 112/112/112
f 106/106/106 104/104/104 105/105/105
f 105/105/105 107/107/107 106/106/106
f 104/104/104 102/102/102 103/103/103
f 103/103/103 105/105/105 104/104/104
f 110/110/110 101/101/101 103/103/103
f 103/103/103 102/102/102 110/110/110
f 113/113/113 133/133/133 136/136/136
f 133/133/133 134/134/134 136/136/136
f 133/133/133 132/132/132 134/134/134
f 134/134/134 135/135/135 136/136/136
f 265/265/265 267/267/267 266/266/266
f 266/266/266 264/264/264 265/265/265
f 263/263/263 265/265/265 264/264/264
f 264/264/264 262/262/262 263/263/263
f 261/261/261 263/263/263 262/262/262
f 262/262/262 260/260/260 261/261/261
f 259/259/259 261/261/261 260/260/260
f 260/260/260 258/258/258 259/259/259
f 257/257/257 259/259/259 258/258/258
f 258/258/258 256/256/256 257/257/257
f 254/254/254 257/257/257 256/256/256
f 256/256/256 255/255/255 254/254/254
f 95/95/95 96/96/96 253/253/253
f 253/253/253 252/252/252 95/95/95
f 95/95/95 93/93/93 94/94/94
f 94/94/94 96/96/96 95/95/95
f 93/93/93 91/91/91 92/92/92
f 92/92/92 94/94/94 93/93/93
f 91/91/91 99/99/99 90/90/90
f 90/90/90 92/92/92 91/91/91
f 99/99/99 97/97/97 89/89/89
f 89/89/89 90/90/90 99/99/99
f 98/98/98 88/88/88 89/89/89
f 89/89/89 97/97/97 98/98/98
f 129/129/129 128/128/128 130/130/130
f 128/128/128 127/127/127 130/130/130
f 128/128/128 100/100/100 127/127/127
f 127/127/127 131/131/131 130/130/130
f 142/142/142 143/143/143 144/144/144
f 147/147/147 251/251/251 250/250/250
f 250/250/250 86/86/86 147/147/147
f 246/246/246 249/249/249 248/248/248
f 248/248/248 247/247/247 246/246/246
f 148/148/148 84/84/84 85/85/85
f 85/85/85 149/149/149 148/148/148
f 83/83/83 81/81/81 82/82/82
f 82/82/82 77/77/77 83/83/83
f 166/166/166 165/165/165 164/164/164
f 164/164/164 167/167/167 166/166/166
f 80/80/80 245/245/245 244/244/244
f 244/244/244 74/74/74 80/80/80
f 78/78/78 75/75/75 76/76/76
f 76/76/76 79/79/79 78/78/78
f 48/48/48 73/73/73 49/49/49
f 9/9/9 50/50/50 51/51/51
f 51/51/51 10/10/10 9/9/9
f 242/242/242 42/42/42 241/241/241
f 241/241/241 243/243/243 242/242/242
f 42/42/42 239/239/239 240/240/240
f 240/240/240 241/241/241 42/42/42
f 239/239/239 237/237/237 238/238/238
f 238/238/238 240/240/240 239/239/239
f 237/237/237 40/40/40 236/236/236
f 236/236/236 238/238/238 237/237/237
f 40/40/40 39/39/39 234/234/234
f 234/234/234 236/236/236 40/40/40
f 39/39/39 38/38/38 235/235/235
f 235/235/235 234/234/234 39/39/39
f 231/231/231 233/233/233 232/232/232
f 232/232/232 36/36/36 231/231/231
f 229/229/229 32/32/32 230/230/230
f 230/230/230 322/322/322 229/229/229
f 227/227/227 228/228/228 31/31/31
f 31/31/31 30/30/30 227/227/227
f 34/34/34 226/226/226 225/225/225
f 225/225/225 29/29/29 34/34/34
f 28/28/28 33/33/33 26/26/26
f 26/26/26 27/27/27 28/28/28
f 71/71/71 72/72/72 22/22/22
f 22/22/22 21/21/21 71/71/71
f 23/23/23 35/35/35 24/24/24
f 24/24/24 25/25/25 23/23/23
f 321/321/321 320/320/320 18/18/18
f 20/20/20 19/19/19 17/17/17
f 53/53/53 54/54/54 56/56/56
f 56/56/56 55/55/55 53/53/53
f 12/12/12 224/224/224 223/223/223
f 223/223/223 11/11/11 12/12/12
f 13/13/13 15/15/15 16/16/16
f 16/16/16 14/14/14 13/13/13
f 58/58/58 57/57/57 52/52/52
f 52/52/52 59/59/59 58/58/58
f 221/221/221 222/222/222 60/60/60
f 60/60/60 70/70/70 221/221/221
f 41/41/41 70/70/70 60/60/60
f 60/60/60 69/69/69 41/41/41
f 68/68/68 41/41/41 69/69/69
f 69/69/69 67/67/67 68/68/68
f 66/66/66 68/68/68 67/67/67
f 67/67/67 64/64/64 66/66/66
f 63/63/63 66/66/66 64/64/64
f 64/64/64 65/65/65 63/63/63
f 63/63/63 65/65/65 61/61/61
f 61/61/61 62/62/62 63/63/63
f 37/37/37 47/47/47 43/43/43
f 47/47/47 44/44/44 43/43/43
f 47/47/47 46/46/46 44/44/44
f 44/44/44 45/45/45 43/43/43
f 220/220/220 219/219/219 218/218/218
f 217/217/217 216/216/216 215/215/215
f 214/214/214 213/213/213 212/212/212
f 8/8/8 7/7/7 211/211/211
f 210/210/210 209/209/209 208/208/208
f 6/6/6 5/5/5 207/207/207
f 206/206/206 4/4/4 205/205/205
f 3/3/3 2/2/2 1/1/1
