v -0.042913 -0.24857499999999996 0.661855
v 0.262463 -0.28523999999999994 0.654865
v 0.265276 -0.24760799999999997 0.655965
v 0.265276 -0.24760799999999997 0.655965
v -0.039443 -0.21099999999999997 0.662946
v -0.042913 -0.24857499999999996 0.661855
v -0.50326 -0.372973 0.359344
v -0.49461 -0.3697369999999999 1.127625
v -0.511396 -0.43622399999999995 1.12801
v -0.511396 -0.43622399999999995 1.12801
v -0.520047 -0.43946 0.359729
v -0.50326 -0.372973 0.359344
v -0.387152 -0.29258199999999995 0.496755
v -0.081775 -0.32924699999999996 0.489765
v -0.078962 -0.29161399999999993 0.490865
v -0.078962 -0.29161399999999993 0.490865
v -0.383681 -0.25500699999999993 0.497845
v -0.387152 -0.29258199999999995 0.496755
v -0.592129 -0.420824 0.36068
v -0.583479 -0.41758899999999993 1.128961
v -0.566692 -0.35110099999999994 1.128576
v -0.566692 -0.35110099999999994 1.128576
v -0.575343 -0.354337 0.360296
v -0.532991 -0.42012999999999995 0.624194
v 0.281384 -0.48039299999999996 0.668278
v 0.281835 -0.48039299999999996 0.701187
v 0.281835 -0.48039299999999996 0.701187
v -0.532144 -0.42012999999999995 0.686064
v -0.52798 -0.3725359999999999 0.686007
v 0.284067 -0.45487399999999995 0.701156
v 0.283617 -0.45487399999999995 0.668248
v -0.528827 -0.3725359999999999 0.624137
v -0.52798 -0.3725359999999999 0.686007
v -0.039443 -0.21099999999999997 0.662946
v 0.265276 -0.24760799999999997 0.655965
v 0.265351 -0.24095999999999998 0.616391
v -0.039415 -0.20434899999999998 0.623373
v 0.262463 -0.28523999999999994 0.654865
v -0.042913 -0.24857499999999996 0.661855
v -0.043502 -0.24919199999999997 0.62364
v 0.261918 -0.28585999999999995 0.61665
v -0.49461 -0.3697369999999999 1.127625
v -0.566692 -0.35110099999999994 1.128576
v -0.583479 -0.41758899999999993 1.128961
v -0.511396 -0.43622399999999995 1.12801
v -0.511396 -0.43622399999999995 1.12801
v -0.583479 -0.41758899999999993 1.128961
v -0.592129 -0.420824 0.36068
v -0.520047 -0.43946 0.359729
v -0.566692 -0.35110099999999994 1.128576
v -0.49461 -0.3697369999999999 1.127625
v -0.50326 -0.372973 0.359344
v -0.575343 -0.354337 0.360296
v -0.74609 -0.37575499999999995 1.083225
v -0.350228 -0.47437499999999994 1.081651
v -0.334653 -0.41181399999999996 1.078998
v -0.730515 -0.31319299999999994 1.080571
v -0.558303 -0.5993559999999999 1.089376
v -0.459828 -0.20381099999999994 1.072597
v -0.52244 -0.18821199999999993 1.072846
v -0.620915 -0.5837579999999999 1.089625
v -0.383681 -0.25500699999999993 0.497845
v -0.078962 -0.29161399999999993 0.490865
v -0.078887 -0.284967 0.451291
v -0.383653 -0.24835499999999996 0.458273
v -0.081775 -0.32924699999999996 0.489765
v -0.387152 -0.29258199999999995 0.496755
v -0.38774 -0.29319799999999996 0.45854
v -0.08232 -0.329867 0.45155
v -0.532144 -0.42012999999999995 0.686064
v 0.281835 -0.48039299999999996 0.701187
v 0.284067 -0.45487399999999995 0.701156
v -0.52798 -0.3725359999999999 0.686007
v -0.742401 -0.42212999999999995 1.097536
v -0.72934 -0.31249999999999994 1.09308
v -0.768691 -0.29581099999999994 1.092968
v -0.78451 -0.4250729999999999 1.098227
v -0.695561 -0.5235949999999999 1.100853
v -0.727885 -0.5507109999999998 1.102353
v -0.620342 -0.5825899999999999 1.102124
v -0.637021 -0.6219069999999999 1.103886
v -0.553655 -0.19023799999999993 1.085905
v -0.459128 -0.20371899999999996 1.085136
v -0.442449 -0.16440299999999994 1.083374
v -0.556622 -0.14815499999999995 1.084304
v -0.659472 -0.22669199999999995 1.088776
v -0.686623 -0.19437599999999994 1.087887
v -0.72934 -0.31249999999999994 1.09308
v -0.768691 -0.29581099999999994 1.092968
v -0.337583 -0.36237499999999995 1.089661
v -0.35013 -0.47380999999999995 1.09418
v -0.310779 -0.49049799999999993 1.094292
v -0.295474 -0.3594319999999999 1.08897
v -0.383909 -0.26271399999999995 1.086408
v -0.351586 -0.23559799999999995 1.084907
v -0.459128 -0.20371899999999996 1.085136
v -0.442449 -0.16440299999999994 1.083374
v -0.510623 -0.5956889999999999 1.101133
v -0.620342 -0.5825899999999999 1.102124
v -0.637021 -0.6219069999999999 1.103886
v -0.507656 -0.6377709999999999 1.102734
v -0.415659 -0.5553399999999998 1.098258
v -0.388507 -0.5876559999999998 1.099147
v -0.35013 -0.47380999999999995 1.09418
v -0.310779 -0.49049799999999993 1.094292
vt 0.454919 0.865860
vt 0.323466 0.865860
vt 0.323466 0.856456
vt 0.323466 0.856456
vt 0.454919 0.856456
vt 0.454919 0.865860
vt 0.739953 0.048669
vt 0.961740 0.048669
vt 0.961740 0.062681
vt 0.961740 0.062681
vt 0.739953 0.062681
vt 0.739953 0.048669
vt 0.454919 0.865860
vt 0.323466 0.865860
vt 0.323466 0.856456
vt 0.323466 0.856456
vt 0.454919 0.856456
vt 0.454919 0.865860
vt 0.739953 0.006635
vt 0.961740 0.006635
vt 0.961740 0.020647
vt 0.961740 0.020647
vt 0.739953 0.020647
vt 0.526098 0.336786
vt 0.756362 0.336785
vt 0.756362 0.351928
vt 0.756362 0.351928
vt 0.526098 0.351928
vt 0.526098 0.362958
vt 0.756362 0.362958
vt 0.756362 0.378102
vt 0.526098 0.378102
vt 0.526098 0.362958
vt 0.454919 0.856456
vt 0.323466 0.856456
vt 0.323466 0.847422
vt 0.454919 0.847422
vt 0.323466 0.865860
vt 0.454919 0.865860
vt 0.454919 0.871811
vt 0.323466 0.871811
vt 0.967166 0.048669
vt 0.979408 0.027652
vt 0.991648 0.034658
vt 0.979408 0.055675
vt 0.961740 0.062681
vt 0.961740 0.090703
vt 0.739953 0.090703
vt 0.739953 0.062681
vt 0.961740 0.020647
vt 0.961740 0.048669
vt 0.739953 0.048669
vt 0.739953 0.020647
vt 0.984163 0.135582
vt 0.865613 0.135582
vt 0.865613 0.116831
vt 0.984163 0.116831
vt 0.984163 0.135582
vt 0.865613 0.135582
vt 0.865613 0.116831
vt 0.984163 0.116831
vt 0.454919 0.856456
vt 0.323466 0.856456
vt 0.323466 0.847422
vt 0.454919 0.847422
vt 0.323466 0.865860
vt 0.454919 0.865860
vt 0.454919 0.871811
vt 0.323466 0.871811
vt 0.526098 0.351928
vt 0.756362 0.351928
vt 0.756362 0.362958
vt 0.526098 0.362958
vt 0.946880 0.277369
vt 0.986934 0.277369
vt 0.986934 0.294901
vt 0.946880 0.294901
vt 0.893474 0.277369
vt 0.893474 0.294901
vt 0.853419 0.277369
vt 0.853419 0.294901
vt 0.946880 0.277369
vt 0.986934 0.277369
vt 0.986934 0.294901
vt 0.946880 0.294901
vt 0.893474 0.277369
vt 0.893474 0.294901
vt 0.853419 0.277369
vt 0.853419 0.294901
vt 0.946880 0.277369
vt 0.986934 0.277369
vt 0.986934 0.294901
vt 0.946880 0.294901
vt 0.893474 0.277369
vt 0.893474 0.294901
vt 0.853419 0.277369
vt 0.853419 0.294901
vt 0.946880 0.277369
vt 0.986934 0.277369
vt 0.986934 0.294901
vt 0.946880 0.294901
vt 0.893474 0.277369
vt 0.893474 0.294901
vt 0.853419 0.277369
vt 0.853419 0.294901
vn -0.03531 -0.46299399999999996 0.885658
vn -0.095914 -0.885525 0.45458300000000007
vn 0.06783 0.38952600000000004 0.918515
vn 0.06783 0.38952600000000004 0.918515
vn 0.111212 0.818166 0.564124
vn -0.03531 -0.46299399999999996 0.885658
vn 0.86007 0.51004 -0.011832000000000032
vn 0.860069 0.51004 -0.011832000000000032
vn 0.510054 -0.86014 -0.0021209999999999476
vn 0.510054 -0.86014 -0.0021209999999999476
vn 0.510053 -0.86014 -0.0021209999999999476
vn 0.86007 0.51004 -0.011832000000000032
vn -0.03531 -0.46299399999999996 0.885658
vn -0.095914 -0.885525 0.45458300000000007
vn 0.06783 0.38952600000000004 0.918514
vn 0.06783 0.38952600000000004 0.918514
vn 0.111211 0.818166 0.564124
vn -0.03531 -0.46299399999999996 0.885658
vn -0.860069 -0.510041 0.011832000000000032
vn -0.860069 -0.510041 0.011832000000000032
vn -0.510053 0.860141 0.0021209999999999476
vn -0.510053 0.860141 0.0021209999999999476
vn -0.510053 0.860141 0.0021209999999999476
vn -0.073852 -0.997269 0.0010110000000000611
vn -0.073852 -0.997269 0.0010110000000000611
vn -0.074282 -0.890883 0.44811900000000005
vn -0.074282 -0.890883 0.44811900000000005
vn -0.049465 -0.44355799999999995 0.89488
vn 0.082051 0.891274 0.44597999999999993
vn 0.028702 0.44752100000000006 0.893813
vn 0.100904 0.994895 -0.001382000000000061
vn 0.100904 0.994895 -0.001382000000000061
vn 0.082051 0.891274 0.44597999999999993
vn 0.111212 0.818166 0.564124
vn 0.06783 0.38952600000000004 0.918515
vn 0.121364 0.978859 0.16463799999999995
vn 0.121362 0.978863 0.16461899999999993
vn -0.095914 -0.885525 0.45458300000000007
vn -0.03531 -0.46299399999999996 0.885658
vn -0.118785 -0.99276 0.017822000000000063
vn -0.118783 -0.992761 0.017804000000000063
vn 0.013789 0.002309000000000061 0.999902
vn 0.013792 0.002304000000000061 0.999902
vn 0.013789 0.002309000000000061 0.999902
vn 0.013786 0.0023140000000000612 0.999902
vn 0.510054 -0.86014 -0.0021209999999999476
vn -0.860069 -0.510041 0.011832000000000032
vn -0.860069 -0.510041 0.011832000000000032
vn 0.510053 -0.86014 -0.0021209999999999476
vn -0.510053 0.860141 0.0021209999999999476
vn 0.860069 0.51004 -0.011832000000000032
vn 0.86007 0.51004 -0.011832000000000032
vn -0.510053 0.860141 0.0021209999999999476
vn 0.013682 0.03897700000000006 0.999147
vn 0.013682 0.03897700000000006 0.999147
vn 0.013682 0.03897700000000006 0.999147
vn 0.013682 0.03897700000000006 0.999147
vn 0.013682 0.03897800000000006 0.999146
vn 0.013682 0.03897800000000006 0.999146
vn 0.013682 0.03897800000000006 0.999146
vn 0.013682 0.03897800000000006 0.999146
vn 0.111211 0.818166 0.564124
vn 0.06783 0.38952600000000004 0.918514
vn 0.121364 0.978859 0.16463899999999995
vn 0.121362 0.978862 0.16461999999999993
vn -0.095914 -0.885525 0.45458300000000007
vn -0.03531 -0.46299399999999996 0.885658
vn -0.118785 -0.99276 0.017822000000000063
vn -0.118783 -0.992761 0.017804000000000063
vn -0.049465 -0.44355799999999995 0.89488
vn -0.074282 -0.890883 0.44811900000000005
vn 0.028702 0.44752100000000006 0.893813
vn 0.082051 0.891274 0.44597999999999993
vn 0.013682 0.03897800000000006 0.999146
vn 0.013682 0.03897800000000006 0.999146
vn 0.013682 0.03897800000000006 0.999146
vn 0.013682 0.03897800000000006 0.999146
vn 0.013683 0.03897700000000006 0.999147
vn 0.013683 0.03897700000000006 0.999147
vn 0.013683 0.03897700000000006 0.999147
vn 0.013683 0.03897700000000006 0.999146
vn 0.013682 0.03897700000000006 0.999146
vn 0.013683 0.03897800000000006 0.999146
vn 0.013683 0.03897800000000006 0.999146
vn 0.013682 0.03897700000000006 0.999146
vn 0.013683 0.03897700000000006 0.999147
vn 0.013683 0.03897800000000006 0.999146
vn 0.013682 0.03897800000000006 0.999146
vn 0.013682 0.03897800000000006 0.999146
vn 0.013682 0.03897800000000006 0.999146
vn 0.013681 0.03897800000000006 0.999146
vn 0.013682 0.03897800000000006 0.999146
vn 0.013682 0.03897800000000006 0.999146
vn 0.013682 0.03897800000000006 0.999146
vn 0.013682 0.03897800000000006 0.999146
vn 0.013683 0.03897800000000006 0.999146
vn 0.013683 0.03897800000000006 0.999146
vn 0.013682 0.03897700000000006 0.999146
vn 0.013683 0.03897700000000006 0.999147
vn 0.013683 0.03897700000000006 0.999146
vn 0.013682 0.03897800000000006 0.999146
vn 0.013681 0.03897800000000006 0.999146
vn 0.013681 0.03897900000000006 0.999146
vn 0.013681 0.03897800000000006 0.999146
vn 0.013682 0.03897800000000006 0.999146
g 01
f 1/1/1 2/2/2 3/3/3
f 4/4/4 5/5/5 6/6/6
f 7/7/7 8/8/8 9/9/9
f 10/10/10 11/11/11 12/12/12
f 13/13/13 14/14/14 15/15/15
f 16/16/16 17/17/17 18/18/18
f 19/19/19 20/20/20 21/21/21
f 22/22/22 23/23/23 19/19/19
f 24/24/24 25/25/25 26/26/26
f 27/27/27 28/28/28 24/24/24
f 29/29/29 30/30/30 31/31/31
f 31/31/31 32/32/32 33/33/33
f 34/34/34 35/35/35 36/36/36
f 36/36/36 37/37/37 34/34/34
f 38/38/38 39/39/39 40/40/40
f 40/40/40 41/41/41 38/38/38
f 42/42/42 43/43/43 44/44/44
f 44/44/44 45/45/45 42/42/42
f 46/46/46 47/47/47 48/48/48
f 48/48/48 49/49/49 46/46/46
f 50/50/50 51/51/51 52/52/52
f 52/52/52 53/53/53 50/50/50
f 54/54/54 55/55/55 56/56/56
f 56/56/56 57/57/57 54/54/54
f 58/58/58 59/59/59 60/60/60
f 60/60/60 61/61/61 58/58/58
f 62/62/62 63/63/63 64/64/64
f 64/64/64 65/65/65 62/62/62
f 66/66/66 67/67/67 68/68/68
f 68/68/68 69/69/69 66/66/66
f 70/70/70 71/71/71 72/72/72
f 72/72/72 73/73/73 70/70/70
f 74/74/74 75/75/75 76/76/76
f 76/76/76 77/77/77 74/74/74
f 78/78/78 74/74/74 77/77/77
f 77/77/77 79/79/79 78/78/78
f 80/80/80 78/78/78 79/79/79
f 79/79/79 81/81/81 80/80/80
f 82/82/82 83/83/83 84/84/84
f 84/84/84 85/85/85 82/82/82
f 86/86/86 82/82/82 85/85/85
f 85/85/85 87/87/87 86/86/86
f 88/88/88 86/86/86 87/87/87
f 87/87/87 89/89/89 88/88/88
f 90/90/90 91/91/91 92/92/92
f 92/92/92 93/93/93 90/90/90
f 94/94/94 90/90/90 93/93/93
f 93/93/93 95/95/95 94/94/94
f 96/96/96 94/94/94 95/95/95
f 95/95/95 97/97/97 96/96/96
f 98/98/98 99/99/99 100/100/100
f 100/100/100 101/101/101 98/98/98
f 102/102/102 98/98/98 101/101/101
f 101/101/101 103/103/103 102/102/102
f 104/104/104 102/102/102 103/103/103
f 103/103/103 105/105/105 104/104/104
