v -0.894866 -0.894866 -0.015868999999999946
v -0.894866 -0.8948659999999999 0.960659
v -0.894866 0.8948660000000002 0.960659
v -0.894866 0.894866 -0.015869000000000057
v 0.894866 -0.894866 -0.015868999999999946
v 0.894866 -0.8948659999999999 0.960659
v -0.894866 -0.8948659999999999 0.960659
v -0.894866 -0.894866 -0.015868999999999946
v 0.894866 0.894866 -0.015869000000000057
v 0.894866 0.8948660000000002 0.960659
v 0.894866 -0.8948659999999999 0.960659
v 0.894866 -0.894866 -0.015868999999999946
v -0.894866 0.894866 -0.015869000000000057
v -0.894866 0.8948660000000002 0.960659
v 0.894866 0.8948660000000002 0.960659
v 0.894866 0.894866 -0.015869000000000057
v -0.894866 0.8948660000000002 0.960659
v -0.894866 -0.8948659999999999 0.960659
v 0.894866 -0.8948659999999999 0.960659
v 0.894866 0.8948660000000002 0.960659
v -0.894866 0.894866 -0.015869000000000057
v 0.894866 0.894866 -0.015869000000000057
v 0.894866 -0.894866 -0.015868999999999946
v -0.894866 -0.894866 -0.015868999999999946
vt 0.000500 0.999500
vt 0.000500 0.000500
vt 0.999500 0.000500
vt 0.999500 0.999500
vt 0.000500 0.999500
vt 0.000500 0.000500
vt 0.999500 0.000500
vt 0.999500 0.999500
vt 0.000500 0.999500
vt 0.000500 0.000500
vt 0.999500 0.000500
vt 0.999500 0.999500
vt 0.000500 0.999500
vt 0.000500 0.000500
vt 0.999500 0.000500
vt 0.999500 0.999500
vt 0.000500 0.999500
vt 0.000500 0.000500
vt 0.999500 0.000500
vt 0.999500 0.999500
vt 0.999500 0.999500
vt 0.000500 0.999500
vt 0.000500 0.000500
vt 0.999500 0.000500
vn -1 0 0
vn -1 0 0
vn -1 0 0
vn -1 0 0
vn 0 -1 6.123233995736766E-17
vn 0 -1 6.123233995736766E-17
vn 0 -1 6.123233995736766E-17
vn 0 -1 6.123233995736766E-17
vn 1 0 0
vn 1 0 0
vn 1 0 0
vn 1 0 0
vn 0 1 -6.123233995736766E-17
vn 0 1 -6.123233995736766E-17
vn 0 1 -6.123233995736766E-17
vn 0 1 -6.123233995736766E-17
vn 0 6.123233995736766E-17 1
vn 0 6.123233995736766E-17 1
vn 0 6.123233995736766E-17 1
vn 0 6.123233995736766E-17 1
vn 0 -6.123233995736766E-17 -1
vn 0 -6.123233995736766E-17 -1
vn 0 -6.123233995736766E-17 -1
vn 0 -6.123233995736766E-17 -1
g 05 - Default
f 1/1/1 2/2/2 3/3/3
f 3/3/3 4/4/4 1/1/1
f 5/5/5 6/6/6 7/7/7
f 7/7/7 8/8/8 5/5/5
f 9/9/9 10/10/10 11/11/11
f 11/11/11 12/12/12 9/9/9
f 13/13/13 14/14/14 15/15/15
f 15/15/15 16/16/16 13/13/13
f 17/17/17 18/18/18 19/19/19
f 19/19/19 20/20/20 17/17/17
f 21/21/21 22/22/22 23/23/23
f 23/23/23 24/24/24 21/21/21
