v 0.275289 0.14133300000000001 0.637928
v 0.244138 0.14427200000000004 0.627401
v 0.255023 0.11724000000000004 0.627999
v 0.275289 0.14133300000000001 0.637928
v 0.263749 0.16159600000000002 0.61456
v 0.286753 0.14527000000000004 0.607222
v 0.25708 0.15859600000000001 0.600329
v 0.280084 0.14227100000000004 0.592991
v 0.251712 0.13072800000000004 0.587613
v 0.237469 0.14127200000000004 0.61317
v 0.248354 0.11424000000000004 0.613767
v 0.251712 0.13072800000000004 0.587613
v 0.255023 0.11724000000000004 0.627999
v 0.274691 0.11485700000000004 0.601296
v 0.251712 0.13072800000000004 0.587613
v 0.280084 0.14227100000000004 0.592991
v 0.28136 0.11785700000000005 0.615528
v 0.275289 0.14133300000000001 0.637928
v 0.286753 0.14527000000000004 0.607222
v -0.159466 0.144666 0.225584
v -0.174121 0.139157 0.152536
v -0.256981 0.276375 0.0007139999999999831
v -0.242326 0.281883 0.07376199999999998
v 0.13499 0.237055 0.18397499999999997
v 0.120335 0.231546 0.11092699999999998
v -0.007095 0.11897300000000001 0.194368
v 0.007559 0.12448200000000001 0.267416
v -0.300418 -0.01341299999999999 0.163228
v -0.315072 -0.018920999999999993 0.09018
v -0.174121 0.139157 0.152536
v -0.159466 0.144666 0.225584
v -0.09677 -0.01957499999999998 0.27026
v -0.111424 -0.025083999999999988 0.197212
v -0.315072 -0.018920999999999993 0.09018
v -0.300418 -0.01341299999999999 0.163228
v -0.027533 -0.18299699999999997 0.23283
v -0.042188 -0.188506 0.159781
v -0.111424 -0.025083999999999988 0.197212
v -0.09677 -0.01957499999999998 0.27026
v 0.007559 0.12448200000000001 0.267416
v -0.007095 0.11897300000000001 0.194368
v 0.063633 -0.056684999999999985 0.198252
v 0.078288 -0.051176999999999986 0.271301
v 0.078288 -0.051176999999999986 0.271301
v 0.063633 -0.056684999999999985 0.198252
v -0.042188 -0.188506 0.159781
v -0.027533 -0.18299699999999997 0.23283
v -0.242326 0.281883 0.07376199999999998
v -0.256981 0.276375 0.0007139999999999831
v -0.053845 0.267607 0.10853499999999999
v -0.039191 0.273116 0.18158299999999997
v 0.120335 0.231546 0.11092699999999998
v 0.13499 0.237055 0.18397499999999997
v 0.122559 0.06959500000000002 0.212531
v 0.122141 0.07078100000000001 0.273763
v 0.118345 0.05148600000000001 0.279609
v 0.112691 0.019432000000000015 0.227729
v 0.099808 0.05105200000000002 0.288387
v 0.064498 0.018303000000000014 0.25055
v 0.092148 0.07007800000000002 0.287966
v 0.044581 0.06776800000000001 0.249456
v 0.10595 0.08227100000000001 0.278928
v 0.080465 0.09946800000000001 0.225959
v 0.122141 0.07078100000000001 0.273763
v 0.122559 0.06959500000000002 0.212531
v 0.122141 0.07078100000000001 0.273763
v 0.259611 0.13347900000000001 0.605967
v 0.118345 0.05148600000000001 0.279609
v 0.099808 0.05105200000000002 0.288387
v 0.092148 0.07007800000000002 0.287966
v 0.10595 0.08227100000000001 0.278928
v 0.122141 0.07078100000000001 0.273763
v -0.383222 0.07880999999999999 -0.135369
v -0.382104 -0.06448 -0.105623
v -0.404122 0.034302 0.021974999999999998
v -0.370431 0.205565 -0.029913000000000012
v -0.37121 -0.135132 0.041724000000000004
v -0.326997 -0.20003 -0.10287299999999999
v -0.305834 0.141289 0.11939999999999999
v -0.277281 -0.280716 0.02894100000000002
v -0.22743 -0.304402 -0.12759399999999999
v -0.133565 -0.382707 -0.016903999999999975
v -0.300418 -0.01341299999999999 0.163228
v -0.237713 -0.169143 0.166672
v -0.159466 0.144666 0.225584
v -0.09677 -0.01957499999999998 0.27026
v -0.242326 0.281883 0.07376199999999998
v -0.278722 0.335015 -0.10071600000000001
v -0.129353 0.381685 -0.00021300000000002336
v -0.039191 0.273116 0.18158299999999997
v -0.027533 -0.18299699999999997 0.23283
v 0.078235 0.354652 0.06993699999999997
v 0.004131 0.415115 -0.08356500000000003
v 0.15435 0.388332 -0.13455300000000003
v 0.13499 0.237055 0.18397499999999997
v 0.242009 0.279704 0.048427999999999985
v 0.286876 0.294282 -0.17682800000000004
v 0.357075 0.156768 -0.01901100000000001
v 0.284475 0.13097 0.13629
v 0.165936 0.08557500000000001 0.241833
v 0.007559 0.12448200000000001 0.267416
v 0.078288 -0.051176999999999986 0.271301
v 0.35822 -0.008913999999999997 0.054811
v 0.404123 0.0030939999999999896 -0.170389
v 0.373054 -0.154833 -0.12254199999999998
v 0.249431 -0.04716699999999999 0.19026
v 0.291707 -0.175518 0.08166200000000001
v 0.282502 -0.276234 -0.06827599999999999
v 0.161814 -0.341444 0.01577800000000002
v 0.148844 -0.193879 0.19191
v 0.010087 -0.344999 0.08762500000000002
v 0.023316 -0.415115 -0.08412799999999997
v -0.133792 -0.285988 0.12884900000000002
vt 0.882778 0.838682
vt 0.890011 0.847981
vt 0.888978 0.859346
vt 0.882778 0.838682
vt 0.890011 0.836616
vt 0.890527 0.823184
vt 0.894660 0.836616
vt 0.896727 0.825250
vt 0.901376 0.844881
vt 0.893627 0.847981
vt 0.895177 0.859346
vt 0.901376 0.844881
vt 0.888978 0.859346
vt 0.895177 0.872778
vt 0.902926 0.874844
vt 0.896210 0.888276
vt 0.890011 0.872778
vt 0.882778 0.870711
vt 0.890011 0.887243
vt 0.968363 0.969875
vt 0.963366 0.974571
vt 0.938924 0.950497
vt 0.943922 0.945801
vt 0.961875 0.963930
vt 0.956878 0.968626
vt 0.943725 0.926329
vt 0.948722 0.921633
vt 0.944386 0.940567
vt 0.939388 0.945263
vt 0.934239 0.901022
vt 0.939236 0.896326
vt 0.970077 0.969967
vt 0.965080 0.974663
vt 0.939388 0.945263
vt 0.944386 0.940567
vt 0.948148 0.928625
vt 0.943151 0.933322
vt 0.929577 0.892966
vt 0.934574 0.888270
vt 0.948722 0.921633
vt 0.943725 0.926329
vt 0.927103 0.885441
vt 0.932100 0.880745
vt 0.966965 0.958523
vt 0.961968 0.963219
vt 0.943151 0.933322
vt 0.948148 0.928625
vt 0.943922 0.945801
vt 0.938924 0.950497
vt 0.938323 0.907256
vt 0.943320 0.902560
vt 0.924964 0.867690
vt 0.929961 0.862994
vt 0.516198 0.152790
vt 0.518182 0.167621
vt 0.513429 0.174409
vt 0.510349 0.161145
vt 0.507580 0.182764
vt 0.504134 0.170021
vt 0.501366 0.191640
vt 0.496823 0.180464
vt 0.495882 0.199473
vt 0.490243 0.189863
vt 0.490764 0.206783
vt 0.484028 0.198740
vt 0.518182 0.167621
vt 0.534575 0.272274
vt 0.513429 0.174409
vt 0.507580 0.182764
vt 0.501366 0.191640
vt 0.495882 0.199473
vt 0.490764 0.206783
vt 0.824269 0.879835
vt 0.828631 0.791013
vt 0.843379 0.838422
vt 0.847196 0.912748
vt 0.853904 0.769448
vt 0.850592 0.713486
vt 0.861860 0.871477
vt 0.877884 0.716358
vt 0.886160 0.661441
vt 0.911291 0.685918
vt 0.864556 0.815526
vt 0.878714 0.765412
vt 0.881313 0.864386
vt 0.892575 0.815611
vt 0.870206 0.925272
vt 0.864513 0.975791
vt 0.889165 0.968288
vt 0.897308 0.907459
vt 0.907594 0.771305
vt 0.916521 0.944252
vt 0.914357 0.990636
vt 0.942004 0.991086
vt 0.918668 0.898079
vt 0.941524 0.926579
vt 0.967888 0.967526
vt 0.964568 0.900437
vt 0.943201 0.875716
vt 0.923414 0.852399
vt 0.900690 0.857306
vt 0.914114 0.809764
vt 0.964090 0.846622
vt 0.994820 0.871882
vt 0.991852 0.814463
vt 0.940394 0.821125
vt 0.959045 0.793481
vt 0.977827 0.765943
vt 0.955730 0.732560
vt 0.933843 0.778018
vt 0.927996 0.720547
vt 0.946629 0.685234
vt 0.901060 0.732666
vn 0.416796 0.18748600000000007 0.889455
vn -0.707347 0.18582600000000005 0.682004
vn -0.154343 -0.766372 0.62358
vn 0.416796 0.18748600000000007 0.889455
vn -0.083157 0.971035 0.22399799999999995
vn 0.855611 0.504112 -0.11748000000000003
vn -0.110509 0.829443 -0.54755
vn 0.656394 0.08384099999999996 -0.749745
vn -0.416784 -0.18749100000000005 -0.88946
vn -0.942171 0.330952 -0.05277100000000002
vn -0.689252 -0.722737 0.05082200000000004
vn -0.416784 -0.18749100000000005 -0.88946
vn -0.154343 -0.766372 0.62358
vn 0.298708 -0.875457 -0.37993099999999996
vn -0.416784 -0.18749100000000005 -0.88946
vn 0.656394 0.08384099999999996 -0.749745
vn 0.811617 -0.569661 0.12947700000000004
vn 0.416796 0.18748600000000007 0.889455
vn 0.855611 0.504112 -0.11748000000000003
vn 0.922195 0.325051 -0.20952200000000004
vn 0.922195 0.325046 -0.20952400000000002
vn 0.922195 0.325051 -0.20952200000000004
vn 0.922194 0.325055 -0.20951900000000004
vn -0.634617 0.769717 0.06926599999999995
vn -0.634617 0.769717 0.06926699999999995
vn -0.634617 0.769717 0.06926599999999995
vn -0.634617 0.769717 0.06926499999999995
vn 0.762451 -0.6385 -0.10480999999999996
vn 0.762452 -0.6385 -0.10480899999999996
vn 0.762451 -0.6385 -0.10480999999999996
vn 0.762451 -0.6385 -0.10481099999999996
vn 0.077575 0.992876 -0.09043900000000006
vn 0.077576 0.992876 -0.09044000000000006
vn 0.077575 0.992876 -0.09043900000000006
vn 0.077573 0.992876 -0.09043700000000006
vn 0.882381 0.421661 -0.20881900000000003
vn 0.882381 0.421661 -0.20881900000000003
vn 0.882381 0.421661 -0.20881900000000003
vn 0.882381 0.421661 -0.20881900000000003
vn -0.908634 -0.361226 0.20952300000000001
vn -0.908635 -0.361226 0.20952100000000004
vn -0.908634 -0.361226 0.20952300000000001
vn -0.908633 -0.361227 0.20952400000000002
vn -0.790672 0.601675 0.11324599999999996
vn -0.790672 0.601675 0.11324599999999996
vn -0.790672 0.601675 0.11324599999999996
vn -0.790672 0.601674 0.11324699999999996
vn -0.092299 -0.991353 0.09327600000000005
vn -0.092298 -0.991353 0.09327300000000005
vn -0.129357 -0.986508 0.10034600000000006
vn -0.166282 -0.980225 0.10728000000000006
vn -0.202913 -0.972533 0.11404800000000005
vn -0.202913 -0.972533 0.11404700000000005
vn 0.985494 0.169676 0.0034479999999999897
vn 0.82812 0.560527 -0.005195000000000035
vn 0.859326 -0.471649 0.19775000000000004
vn 0.575792 -0.722121 0.38341200000000003
vn -0.040357 -0.736558 0.67517
vn -0.372966 -0.500515 0.781269
vn -0.627599 0.13188600000000006 0.767284
vn -0.549625 0.528245 0.647201
vn -0.090855 0.933529 0.34679899999999997
vn 0.289942 0.942453 0.16647999999999993
vn 0.82812 0.560527 -0.005195000000000035
vn 0.985494 0.169676 0.0034479999999999897
vn 0.847742 0.33219 -0.413502
vn 0.416707 0.18744100000000005 0.889506
vn 0.630478 -0.772187 -0.07890399999999996
vn -0.430541 -0.797039 0.42351300000000003
vn -0.869027 0.291973 0.399429
vn -0.079015 0.98988 -0.11787100000000006
vn 0.847742 0.33219 -0.413502
vn -0.991403 0.065845 -0.113067
vn -0.974502 -0.204432 -0.09248099999999998
vn -0.964887 0.054294000000000016 0.256993
vn -0.839651 0.429138 0.332907
vn -0.886668 -0.35093 0.301111
vn -0.84068 -0.534451 -0.08728999999999998
vn -0.695649 0.33015300000000003 0.638021
vn -0.661947 -0.698569 0.27171200000000006
vn -0.665663 -0.73951 -0.10009399999999996
vn -0.31379 -0.878336 0.36064000000000007
vn -0.68658 -0.03566099999999996 0.726179
vn -0.494901 -0.40943599999999997 0.766443
vn -0.557503 0.33923500000000006 0.757701
vn -0.385419 -0.25165299999999996 0.887763
vn -0.550592 0.65561 0.516744
vn -0.580504 0.737275 0.34560299999999994
vn -0.215617 0.854465 0.47265099999999993
vn -0.072224 0.787228 0.612418
vn -0.070118 -0.53227 0.843666
vn 0.198584 0.864288 0.46213799999999994
vn 0.125072 0.942227 0.31074999999999997
vn 0.434815 0.867128 0.24294999999999994
vn 0.389137 0.572126 0.721972
vn 0.612303 0.686581 0.39203599999999994
vn 0.691038 0.699296 0.18289999999999995
vn 0.873306 0.35892 0.329413
vn 0.71552 0.3020340000000001 0.629926
vn 0.416787 0.18748900000000004 0.889458
vn 0.21291 0.24470600000000006 0.945932
vn 0.310421 -0.17189799999999994 0.934928
vn 0.911095 -0.05548599999999997 0.408445
vn 0.979881 -0.018063999999999986 0.198765
vn 0.910449 -0.314137 0.269072
vn 0.627836 -0.14368999999999996 0.764968
vn 0.734778 -0.46738099999999994 0.4915860000000001
vn 0.738073 -0.580195 0.34441700000000003
vn 0.429131 -0.746806 0.508062
vn 0.372766 -0.531048 0.760942
vn 0.064252 -0.80625 0.588076
vn 0.086786 -0.919974 0.38225100000000006
vn -0.282723 -0.695372 0.660701
g 10 - Default
f 1/1/1 2/2/2 3/3/3
f 4/4/4 5/5/5 2/2/2
f 4/4/4 6/6/6 5/5/5
f 7/7/7 5/5/5 6/6/6
f 6/6/6 8/8/8 7/7/7
f 9/9/9 7/7/7 8/8/8
f 9/9/9 10/10/10 7/7/7
f 5/5/5 7/7/7 10/10/10
f 10/10/10 2/2/2 5/5/5
f 2/2/2 10/10/10 11/11/11
f 12/12/12 11/11/11 10/10/10
f 11/11/11 13/13/13 2/2/2
f 13/13/13 11/11/11 14/14/14
f 15/15/15 14/14/14 11/11/11
f 15/15/15 16/16/16 14/14/14
f 14/14/14 17/17/17 13/13/13
f 17/17/17 14/14/14 16/16/16
f 18/18/18 13/13/13 17/17/17
f 16/16/16 19/19/19 17/17/17
f 18/18/18 17/17/17 19/19/19
f 20/20/20 21/21/21 22/22/22
f 22/22/22 23/23/23 20/20/20
f 24/24/24 25/25/25 26/26/26
f 26/26/26 27/27/27 24/24/24
f 28/28/28 29/29/29 30/30/30
f 30/30/30 31/31/31 28/28/28
f 32/32/32 33/33/33 34/34/34
f 34/34/34 35/35/35 32/32/32
f 36/36/36 37/37/37 38/38/38
f 38/38/38 39/39/39 36/36/36
f 40/40/40 41/41/41 42/42/42
f 42/42/42 43/43/43 40/40/40
f 44/44/44 45/45/45 46/46/46
f 46/46/46 47/47/47 44/44/44
f 48/48/48 49/49/49 50/50/50
f 50/50/50 51/51/51 48/48/48
f 51/51/51 50/50/50 52/52/52
f 52/52/52 53/53/53 51/51/51
f 54/54/54 55/55/55 56/56/56
f 56/56/56 57/57/57 54/54/54
f 57/57/57 56/56/56 58/58/58
f 58/58/58 59/59/59 57/57/57
f 59/59/59 58/58/58 60/60/60
f 60/60/60 61/61/61 59/59/59
f 61/61/61 60/60/60 62/62/62
f 62/62/62 63/63/63 61/61/61
f 63/63/63 62/62/62 64/64/64
f 64/64/64 65/65/65 63/63/63
f 66/66/66 67/67/67 68/68/68
f 68/68/68 67/67/67 69/69/69
f 69/69/69 67/67/67 70/70/70
f 70/70/70 67/67/67 71/71/71
f 71/71/71 67/67/67 72/72/72
f 73/73/73 74/74/74 75/75/75
f 76/76/76 73/73/73 75/75/75
f 77/77/77 75/75/75 74/74/74
f 78/78/78 77/77/77 74/74/74
f 76/76/76 75/75/75 79/79/79
f 80/80/80 77/77/77 78/78/78
f 78/78/78 81/81/81 80/80/80
f 80/80/80 81/81/81 82/82/82
f 77/77/77 83/83/83 75/75/75
f 83/83/83 79/79/79 75/75/75
f 80/80/80 84/84/84 77/77/77
f 84/84/84 83/83/83 77/77/77
f 79/79/79 83/83/83 85/85/85
f 83/83/83 84/84/84 86/86/86
f 87/87/87 79/79/79 85/85/85
f 79/79/79 87/87/87 76/76/76
f 76/76/76 87/87/87 88/88/88
f 87/87/87 89/89/89 88/88/88
f 89/89/89 87/87/87 90/90/90
f 86/86/86 84/84/84 91/91/91
f 92/92/92 89/89/89 90/90/90
f 93/93/93 89/89/89 92/92/92
f 94/94/94 93/93/93 92/92/92
f 92/92/92 90/90/90 95/95/95
f 96/96/96 94/94/94 92/92/92
f 96/96/96 92/92/92 95/95/95
f 97/97/97 94/94/94 96/96/96
f 98/98/98 97/97/97 96/96/96
f 99/99/99 96/96/96 95/95/95
f 98/98/98 96/96/96 99/99/99
f 99/99/99 95/95/95 100/100/100
f 95/95/95 101/101/101 100/100/100
f 101/101/101 102/102/102 100/100/100
f 103/103/103 98/98/98 99/99/99
f 103/103/103 104/104/104 98/98/98
f 105/105/105 104/104/104 103/103/103
f 106/106/106 99/99/99 100/100/100
f 106/106/106 103/103/103 99/99/99
f 102/102/102 106/106/106 100/100/100
f 107/107/107 105/105/105 103/103/103
f 107/107/107 103/103/103 106/106/106
f 108/108/108 105/105/105 107/107/107
f 109/109/109 108/108/108 107/107/107
f 102/102/102 110/110/110 106/106/106
f 110/110/110 107/107/107 106/106/106
f 110/110/110 109/109/109 107/107/107
f 91/91/91 110/110/110 102/102/102
f 111/111/111 109/109/109 110/110/110
f 91/91/91 111/111/111 110/110/110
f 109/109/109 111/111/111 112/112/112
f 112/112/112 111/111/111 82/82/82
f 113/113/113 111/111/111 91/91/91
f 111/111/111 113/113/113 82/82/82
f 84/84/84 113/113/113 91/91/91
f 80/80/80 82/82/82 113/113/113
f 113/113/113 84/84/84 80/80/80
