v 0.039454 -0.068335 4.18431195098672E-18
v 0.039454 -0.068335 0.028216000000000005
v -0.039454 -0.068335 0.028216000000000005
v -0.039454 -0.068335 4.18431195098672E-18
v -0.078907 1.727731704237086E-18 0.028216
v -0.078907 0 0
v -0.039453 0.068335 0.028215999999999998
v -0.039453 0.068335 -4.18431195098672E-18
v 0.039453 0.068335 0.028215999999999998
v 0.039453 0.068335 -4.18431195098672E-18
v 0.078907 1.727731704237086E-18 0.028216
v 0.078907 0 0
v 0.039454 -0.068335 0.028216000000000005
v 0.039454 -0.068335 4.18431195098672E-18
v 0.039454 -0.06833499999999997 0.601249
v 0.039454 -0.06833499999999997 0.629465
v -0.039454 -0.06833499999999997 0.629465
v -0.039454 -0.06833499999999997 0.601249
v -0.078907 3.8543614871264435E-17 0.629465
v -0.078907 3.681588316702735E-17 0.601249
v -0.039453 0.06833500000000005 0.629465
v -0.039453 0.06833500000000005 0.601249
v 0.039453 0.06833500000000005 0.629465
v 0.039453 0.06833500000000005 0.601249
v 0.078907 3.8543614871264435E-17 0.629465
v 0.078907 3.681588316702735E-17 0.601249
v 0.039454 -0.06833499999999997 0.629465
v 0.039454 -0.06833499999999997 0.601249
v 0.029453 -0.051015 0.028216000000000005
v 0.029453 -0.05101499999999996 0.601249
v -0.029453 -0.05101499999999996 0.601249
v -0.029453 -0.051015 0.028216000000000005
v -0.058907 3.681588316702735E-17 0.601249
v -0.058907 1.727731704237086E-18 0.028216
v -0.029453 0.05101500000000003 0.601249
v -0.029453 0.051015 0.028215999999999998
v 0.029453 0.05101500000000003 0.601249
v 0.029453 0.051015 0.028215999999999998
v 0.058907 3.681588316702735E-17 0.601249
v 0.058907 1.727731704237086E-18 0.028216
v 0.029453 -0.05101499999999996 0.601249
v 0.029453 -0.051015 0.028216000000000005
v 0.039454 -0.06833499999999997 0.601249
v -0.039454 -0.06833499999999997 0.601249
v -0.078907 3.681588316702735E-17 0.601249
v -0.039453 0.06833500000000005 0.601249
v 0.039453 0.06833500000000005 0.601249
v 0.078907 3.681588316702735E-17 0.601249
v -0.039453 0.068335 0.028215999999999998
v -0.078907 1.727731704237086E-18 0.028216
v -0.039454 -0.068335 0.028216000000000005
v 0.039454 -0.068335 0.028216000000000005
v 0.078907 1.727731704237086E-18 0.028216
v 0.039453 0.068335 0.028215999999999998
v 0.078907 3.8543614871264435E-17 0.629465
v 0.039453 0.06833500000000005 0.629465
v -0.039453 0.06833500000000005 0.629465
v -0.078907 3.8543614871264435E-17 0.629465
v -0.039454 -0.06833499999999997 0.629465
v 0.039454 -0.06833499999999997 0.629465
v -0.078907 0 0
v -0.039453 0.068335 -4.18431195098672E-18
v 0.039453 0.068335 -4.18431195098672E-18
v 0.078907 0 0
v 0.039454 -0.068335 4.18431195098672E-18
v -0.039454 -0.068335 4.18431195098672E-18
vt 0.087260 0.902333
vt 0.087260 0.891329
vt 0.099291 0.891329
vt 0.099291 0.902333
vt 0.111323 0.891329
vt 0.111323 0.902333
vt 0.123355 0.891329
vt 0.123355 0.902333
vt 0.135386 0.891329
vt 0.135386 0.902333
vt 0.147418 0.891329
vt 0.147418 0.902333
vt 0.159449 0.891329
vt 0.159449 0.902333
vt 0.087260 0.667859
vt 0.087260 0.656856
vt 0.099291 0.656856
vt 0.099291 0.667859
vt 0.111323 0.656856
vt 0.111323 0.667859
vt 0.123355 0.656856
vt 0.123355 0.667859
vt 0.135386 0.656856
vt 0.135386 0.667859
vt 0.147418 0.656856
vt 0.147418 0.667859
vt 0.159449 0.656856
vt 0.159449 0.667859
vt 0.087260 0.891329
vt 0.087260 0.667859
vt 0.099291 0.667859
vt 0.099291 0.891329
vt 0.111323 0.667859
vt 0.111323 0.891329
vt 0.123355 0.667859
vt 0.123355 0.891329
vt 0.135386 0.667859
vt 0.135386 0.891329
vt 0.147418 0.667859
vt 0.147418 0.891329
vt 0.159449 0.667859
vt 0.159449 0.891329
vt 1.186394 0.828058
vt 1.172585 0.828058
vt 1.165680 0.804095
vt 1.172585 0.780132
vt 1.186394 0.780132
vt 1.193299 0.804095
vt 1.193299 0.804095
vt 1.186394 0.828058
vt 1.172585 0.828058
vt 1.165680 0.804095
vt 1.172585 0.780132
vt 1.186394 0.780132
vt 0.193092 0.804414
vt 0.186237 0.828182
vt 0.172526 0.828182
vt 0.165670 0.804414
vt 0.172526 0.780646
vt 0.186237 0.780646
vt 1.165483 0.804442
vt 1.172440 0.780344
vt 1.186353 0.780344
vt 1.193310 0.804442
vt 1.186353 0.828541
vt 1.172440 0.828541
vn 0.327327 -0.944911 5.785911158145623E-17
vn 0.654654 -0.755928 4.6287240279293024E-17
vn -0.327327 -0.944911 5.785911158145623E-17
vn -0.654654 -0.755928 4.6287240279293024E-17
vn -0.981981 -0.188981 1.1571748837483299E-17
vn -0.98198 0.188983 -1.1571871302163213E-17
vn -0.654653 0.755929 -4.6287301511632975E-17
vn -0.327327 0.944911 -5.785911158145623E-17
vn 0.327327 0.944911 -5.785911158145623E-17
vn 0.654653 0.755929 -4.6287301511632975E-17
vn 0.98198 0.188983 -1.1571871302163213E-17
vn 0.981981 -0.188981 1.1571748837483299E-17
vn 0.654654 -0.755928 4.6287240279293024E-17
vn 0.327327 -0.944911 5.785911158145623E-17
vn 0.327327 -0.944911 5.785911158145623E-17
vn 0.654654 -0.755928 4.6287240279293024E-17
vn -0.327327 -0.944911 5.785911158145623E-17
vn -0.654654 -0.755928 4.6287240279293024E-17
vn -0.981981 -0.188981 1.1571748837483299E-17
vn -0.98198 0.188983 -1.1571871302163213E-17
vn -0.654653 0.755929 -4.6287301511632975E-17
vn -0.327327 0.944911 -5.785911158145623E-17
vn 0.327327 0.944911 -5.785911158145623E-17
vn 0.654653 0.755929 -4.6287301511632975E-17
vn 0.98198 0.188983 -1.1571871302163213E-17
vn 0.981981 -0.188981 1.1571748837483299E-17
vn 0.654654 -0.755928 4.6287240279293024E-17
vn 0.327327 -0.944911 5.785911158145623E-17
vn 0.327326 -0.944912 5.785917281379619E-17
vn 0.654652 -0.75593 4.628736274397294E-17
vn -0.327326 -0.944912 5.785917281379619E-17
vn -0.654652 -0.75593 4.628736274397294E-17
vn -0.98198 -0.188983 1.1571871302163213E-17
vn -0.98198 0.188983 -1.1571871302163213E-17
vn -0.654652 0.75593 -4.628736274397294E-17
vn -0.327326 0.944912 -5.785917281379619E-17
vn 0.327326 0.944912 -5.785917281379619E-17
vn 0.654652 0.75593 -4.628736274397294E-17
vn 0.98198 0.188983 -1.1571871302163213E-17
vn 0.98198 -0.188983 1.1571871302163213E-17
vn 0.654652 -0.75593 4.628736274397294E-17
vn 0.327326 -0.944912 5.785917281379619E-17
vn 0 -6.123233995736766E-17 -1
vn 0 -6.123233995736766E-17 -1
vn 0 -6.123233995736766E-17 -1
vn 0 -6.123233995736766E-17 -1
vn 0 -6.123233995736766E-17 -1
vn 0 -6.123233995736766E-17 -1
vn 0 6.123233995736766E-17 1
vn 0 6.123233995736766E-17 1
vn 0 6.123233995736766E-17 1
vn -0 6.123233995736766E-17 1
vn 0 6.123233995736766E-17 1
vn 0 6.123233995736766E-17 1
vn 0 6.123233995736766E-17 1
vn 0 6.123233995736766E-17 1
vn 0 6.123233995736766E-17 1
vn 0 6.123233995736766E-17 1
vn 0 6.123233995736766E-17 1
vn 0 6.123233995736766E-17 1
vn 0 -6.123233995736766E-17 -1
vn 0 -6.123233995736766E-17 -1
vn 0 -6.123233995736766E-17 -1
vn 0 -6.123233995736766E-17 -1
vn 0 -6.123233995736766E-17 -1
vn 0 -6.123233995736766E-17 -1
g 10 - Default
f 1/1/1 2/2/2 3/3/3
f 3/3/3 4/4/4 1/1/1
f 4/4/4 3/3/3 5/5/5
f 5/5/5 6/6/6 4/4/4
f 6/6/6 5/5/5 7/7/7
f 7/7/7 8/8/8 6/6/6
f 8/8/8 7/7/7 9/9/9
f 9/9/9 10/10/10 8/8/8
f 10/10/10 9/9/9 11/11/11
f 11/11/11 12/12/12 10/10/10
f 12/12/12 11/11/11 13/13/13
f 13/13/13 14/14/14 12/12/12
f 15/15/15 16/16/16 17/17/17
f 17/17/17 18/18/18 15/15/15
f 18/18/18 17/17/17 19/19/19
f 19/19/19 20/20/20 18/18/18
f 20/20/20 19/19/19 21/21/21
f 21/21/21 22/22/22 20/20/20
f 22/22/22 21/21/21 23/23/23
f 23/23/23 24/24/24 22/22/22
f 24/24/24 23/23/23 25/25/25
f 25/25/25 26/26/26 24/24/24
f 26/26/26 25/25/25 27/27/27
f 27/27/27 28/28/28 26/26/26
f 29/29/29 30/30/30 31/31/31
f 31/31/31 32/32/32 29/29/29
f 32/32/32 31/31/31 33/33/33
f 33/33/33 34/34/34 32/32/32
f 34/34/34 33/33/33 35/35/35
f 35/35/35 36/36/36 34/34/34
f 36/36/36 35/35/35 37/37/37
f 37/37/37 38/38/38 36/36/36
f 38/38/38 37/37/37 39/39/39
f 39/39/39 40/40/40 38/38/38
f 40/40/40 39/39/39 41/41/41
f 41/41/41 42/42/42 40/40/40
f 43/43/43 44/44/44 45/45/45
f 45/45/45 46/46/46 43/43/43
f 43/43/43 46/46/46 47/47/47
f 47/47/47 48/48/48 43/43/43
f 49/49/49 50/50/50 51/51/51
f 51/51/51 52/52/52 49/49/49
f 49/49/49 52/52/52 53/53/53
f 53/53/53 54/54/54 49/49/49
f 55/55/55 56/56/56 57/57/57
f 57/57/57 58/58/58 55/55/55
f 55/55/55 58/58/58 59/59/59
f 59/59/59 60/60/60 55/55/55
f 61/61/61 62/62/62 63/63/63
f 63/63/63 64/64/64 61/61/61
f 61/61/61 64/64/64 65/65/65
f 65/65/65 66/66/66 61/61/61
