v 0.109168 -0.6017729999999999 0.945366
v 0.183056 -0.601773 0.740299
v 2.182322 -0.601773 0.670209
v 2.309067 -0.6017729999999999 0.930405
v 0.109168 -0.6017729999999999 0.945366
v -0.836124 -2.333038 0.6764490000000001
v -0.708898 -2.332213 0.9357330000000001
v -2.944385 -2.383257 0.9921860000000001
v -2.944385 -2.383257 0.9921860000000001
v -2.85926 -2.369815 0.7711500000000001
v 2.523676 -2.300992 0.6670430000000002
v 2.634267 -2.290821 0.9304050000000001
v 0.509859 -2.296071 0.8547120000000001
v 0.509859 -2.296071 0.8547120000000001
v 0.577484 -2.30268 0.6669420000000001
v -0.07778 -0.600882 0.673594
v 0.048862 -0.6008819999999999 0.942334
v -2.110669 -0.555056 0.841898
v -2.110669 -0.555056 0.841898
v -2.045621 -0.566412 0.656788
v 2.309067 0.07737600000000006 0.930405
v 2.309067 -0.6017729999999999 0.930405
v 2.309067 -0.57514 0.711711
v 2.309067 0.011155000000000043 0.711711
v 0.109168 -0.6017729999999999 0.945366
v 0.10504 0.07737500000000007 1.022314
v 0.104919 0.02915300000000005 0.855762
v 0.107694 -0.556117 0.744222
v 0.109168 -0.6017729999999999 0.945366
v 2.309067 -0.6017729999999999 0.930405
v 2.309067 0.07737600000000006 0.930405
v 0.10504 0.07737500000000007 1.022314
v -2.901638 -1.690361 0.7299120000000001
v -2.934845 -2.322024 0.7675610000000002
v -2.944385 -2.383257 0.9921860000000001
v -2.896141 -1.636061 0.8759500000000001
v -0.704738 -1.647196 0.9257090000000001
v -2.896141 -1.636061 0.8759500000000001
v -2.944385 -2.383257 0.9921860000000001
v -0.708898 -2.332213 0.9357330000000001
v 2.645946 -2.273548 0.7117110000000001
v 2.667095 -1.709173 0.7117110000000001
v 2.66603 -1.644593 0.9304050000000001
v 2.634267 -2.290821 0.9304050000000001
v 0.485386 -1.699234 0.7301420000000001
v 0.501195 -2.259108 0.6674150000000001
v 0.509859 -2.296071 0.8547120000000001
v 0.485702 -1.654225 0.8867510000000001
v 2.66603 -1.644593 0.9304050000000001
v 0.485702 -1.654225 0.8867510000000001
v 0.509859 -2.296071 0.8547120000000001
v 2.634267 -2.290821 0.9304050000000001
v 0.046969 -0.574249 0.725211
v 0.043354 0.012046000000000048 0.789315
v 0.043373 0.07826600000000006 1.016781
v 0.048862 -0.6008819999999999 0.942334
v -2.14953 0.04225300000000005 0.750062
v -2.123746 -0.520612 0.658553
v -2.110669 -0.555056 0.841898
v -2.149542 0.09106100000000006 0.913307
v 0.043373 0.07826600000000006 1.016781
v -2.149542 0.09106100000000006 0.913307
v -2.110669 -0.555056 0.841898
v 0.048862 -0.6008819999999999 0.942334
v -0.70536 -1.714098 0.7088420000000001
v -0.704738 -1.647196 0.9257090000000001
v -0.706651 -1.989274 0.7119540000000001
v -0.708898 -2.332213 0.9357330000000001
v -0.70813 -2.304301 0.7155170000000001
v 1.837251 2.197965 0.6884889999999999
v 0.397433 2.20565 0.6503299999999999
v 0.410797 2.203844 0.7953829999999998
v 1.82817 2.194469 0.8435459999999999
v 0.417423 1.863356 0.9904239999999999
v 1.831894 1.871052 1.0375639999999997
v 1.852495 1.54776 0.8512629999999999
v 0.394898 1.525697 0.8245739999999999
v 0.384261 1.526237 0.6732099999999999
v 1.857237 1.544366 0.6948289999999999
v 0.397433 2.20565 0.6503299999999999
v 0.384261 1.526237 0.6732099999999999
v 0.394898 1.525697 0.8245739999999999
v 0.410797 2.203844 0.7953829999999998
v 0.417423 1.863356 0.9904239999999999
v 1.857237 1.544366 0.6948289999999999
v 1.837251 2.197965 0.6884889999999999
v 1.82817 2.194469 0.8435459999999999
v 1.852495 1.54776 0.8512629999999999
v 1.831894 1.871052 1.0375639999999997
v -1.472044 2.256872 0.7122739999999999
v -2.950634 2.193354 0.6818079999999999
v -2.94371 2.188897 0.8340839999999999
v -1.479749 2.272144 0.8773119999999999
v -2.974243 1.866319 1.0574029999999999
v -1.476048 1.908686 1.0613739999999998
v -1.459216 1.52989 0.8548159999999999
v -3.007885 1.545587 0.8942359999999999
v -3.003413 1.542581 0.7301379999999998
v -1.45555 1.529179 0.6966729999999999
v -2.950634 2.193354 0.6818079999999999
v -3.003413 1.542581 0.7301379999999998
v -3.007885 1.545587 0.8942359999999999
v -2.94371 2.188897 0.8340839999999999
v -2.974243 1.866319 1.0574029999999999
v -1.45555 1.529179 0.6966729999999999
v -1.472044 2.256872 0.7122739999999999
v -1.479749 2.272144 0.8773119999999999
v -1.459216 1.52989 0.8548159999999999
v -1.476048 1.908686 1.0613739999999998
v -0.348974 -1.955683 0.9072260000000001
v -0.300592 -2.193107 0.8468030000000001
v 0.346274 -2.06129 0.7700700000000001
v 0.297892 -1.823866 0.8571360000000001
v -0.397356 -1.71826 0.7790080000000001
v 0.24951 -1.586443 0.7555600000000001
vt 0.440482 0.417497
vt 0.426739 0.460575
vt 0.071318 0.460575
vt 0.048596 0.417497
vt 0.440482 0.417497
vt 0.071613 0.460575
vt 0.048891 0.417497
vt 0.440776 0.417497
vt 0.440776 0.417497
vt 0.427034 0.460575
vt 0.072328 0.794517
vt 0.049606 0.751438
vt 0.441491 0.751438
vt 0.441491 0.751438
vt 0.427749 0.794517
vt 0.071962 0.627123
vt 0.049240 0.584045
vt 0.441125 0.584045
vt 0.441125 0.584045
vt 0.427383 0.627123
vt 0.048596 0.299140
vt 0.048596 0.417497
vt 0.009349 0.417497
vt 0.009349 0.299140
vt 0.440482 0.417497
vt 0.440482 0.299140
vt 0.474036 0.299140
vt 0.474036 0.417497
vt 0.440482 0.417497
vt 0.048596 0.417497
vt 0.048596 0.299140
vt 0.440482 0.299140
vt 0.474330 0.299140
vt 0.474330 0.417497
vt 0.440776 0.417497
vt 0.440776 0.299140
vt 0.048891 0.299140
vt 0.440776 0.299140
vt 0.440776 0.417497
vt 0.048891 0.417497
vt 0.010359 0.751438
vt 0.010359 0.633081
vt 0.049606 0.633081
vt 0.049606 0.751438
vt 0.475045 0.633081
vt 0.475045 0.751438
vt 0.441491 0.751438
vt 0.441491 0.633081
vt 0.049606 0.633081
vt 0.441491 0.633081
vt 0.441491 0.751438
vt 0.049606 0.751438
vt 0.009993 0.584045
vt 0.009993 0.465688
vt 0.049240 0.465688
vt 0.049240 0.584045
vt 0.474679 0.465688
vt 0.474679 0.584045
vt 0.441125 0.584045
vt 0.441125 0.465688
vt 0.049240 0.465688
vt 0.441125 0.465688
vt 0.441125 0.584045
vt 0.049240 0.584045
vt 0.009644 0.299140
vt 0.048891 0.299140
vt 0.009644 0.357262
vt 0.048891 0.417497
vt 0.009644 0.417497
vt 0.292158 0.800086
vt 0.566055 0.800086
vt 0.566055 0.825943
vt 0.292158 0.825943
vt 0.566055 0.892118
vt 0.292158 0.892118
vt 0.292158 0.963741
vt 0.566055 0.963741
vt 0.566055 0.993637
vt 0.292158 0.993637
vt 0.593241 0.487567
vt 0.716112 0.487567
vt 0.716112 0.516088
vt 0.593241 0.516088
vt 0.654824 0.550405
vt 0.903857 0.584193
vt 0.780994 0.584193
vt 0.780994 0.555592
vt 0.903857 0.555592
vt 0.842280 0.521107
vt 0.008289 0.800191
vt 0.282181 0.800191
vt 0.282181 0.826048
vt 0.008289 0.826048
vt 0.282181 0.892223
vt 0.008289 0.892223
vt 0.008289 0.963846
vt 0.282181 0.963846
vt 0.282181 0.993743
vt 0.008289 0.993743
vt 0.718004 0.487567
vt 0.840876 0.487567
vt 0.840876 0.516088
vt 0.718004 0.516088
vt 0.779587 0.550405
vt 0.779102 0.584193
vt 0.656240 0.584193
vt 0.656240 0.555591
vt 0.779102 0.555591
vt 0.717525 0.521107
vt 0.730177 0.704271
vt 0.779934 0.704271
vt 0.779934 0.823580
vt 0.730177 0.823580
vt 0.680420 0.704271
vt 0.680420 0.823580
vn 0.016597 -0.727273 0.686148
vn 0 -1 6.123233995736766E-17
vn 0 -1 6.123233995736766E-17
vn 0.004809 -0.707107 0.70709
vn 0.016597 -0.727273 0.686148
vn 0.019113 -0.999327 -0.031323999999999935
vn 0.033988 -0.704397 0.708992
vn 0.015626 -0.688701 0.724877
vn 0.015626 -0.688701 0.724877
vn 0.015588 -0.998381 -0.05470999999999994
vn 0.000988 -0.999322 0.03680700000000006
vn -0.023965 -0.692886 0.720649
vn -0.018333 -0.702853 0.711099
vn -0.018333 -0.702853 0.711099
vn 0.000865 -0.99937 0.03548800000000006
vn -0.019828 -0.999272 0.03258700000000006
vn -0.046885 -0.740809 0.670077
vn -0.044836 -0.733827 0.677855
vn -0.044836 -0.733827 0.677855
vn -0.017957 -0.998328 0.05493600000000006
vn 1 0 0
vn 1 0 0
vn 1 0 0
vn 1 0 0
vn -0.999972 -0.006126 0.00428
vn -0.999976 -0.006369 0.0025710000000000004
vn -0.999972 -0.006126 0.00428
vn -0.999965 -0.005884 0.00599
vn 0.016597 -0.727273 0.686148
vn 0.004809 -0.707107 0.70709
vn 0.024143 -0.05621499999999994 0.998127
vn 0.041401 -0.11223599999999995 0.992819
vn -0.99825 0.058614 -0.007849000000000004
vn -0.998302 0.05078 -0.028553000000000002
vn -0.99825 0.058614 -0.007849000000000004
vn -0.997709 0.066419 0.012858999999999997
vn 0.001641 0.08499400000000006 0.99638
vn -0.021639 0.15504300000000004 0.987671
vn 0.015626 -0.688701 0.724877
vn 0.033988 -0.704397 0.708992
vn 0.99853 -0.043244 0.03267
vn 0.999172 -0.037443 0.015926000000000003
vn 0.99853 -0.043244 0.03267
vn 0.997575 -0.049032 0.049403
vn -0.999023 -0.035458 0.026388000000000005
vn -0.998676 -0.032654 0.039755
vn -0.999023 -0.035458 0.026388000000000005
vn -0.999183 -0.038256 0.013016000000000002
vn -0.027701 -0.02442699999999994 0.999318
vn -0.019769 -0.05058699999999994 0.998524
vn -0.018333 -0.702853 0.711099
vn -0.023965 -0.692886 0.720649
vn 0.999959 0.007648 -0.0047810000000000005
vn 0.999978 0.006379 -0.0019400000000000005
vn 0.999959 0.007648 -0.0047810000000000005
vn 0.999931 0.008918 -0.0076230000000000004
vn -0.997484 -0.058812 0.039580000000000004
vn -0.996614 -0.055515999999999996 0.060654
vn -0.997484 -0.058812 0.039580000000000004
vn -0.9979 -0.062082 0.018489000000000002
vn -0.047991 -0.11088699999999994 0.992674
vn -0.047489 -0.11255099999999994 0.992511
vn -0.044836 -0.733827 0.677855
vn -0.046885 -0.740809 0.670077
vn 0.999988 -0.00471 -0.0014119999999999998
vn 0.999985 -0.005386 -0.0003309999999999997
vn 0.999987 -0.005145 0.0007460000000000004
vn 0.999984 -0.005362 0.0018250000000000004
vn 0.999985 -0.004661 0.0028980000000000004
vn 0.005427 0.999833 0.01743399999999994
vn 0.005019 0.999916 0.011986999999999939
vn -0.005781 0.940403 0.3400139999999999
vn -0.019417 0.754492 0.656022
vn -0.026779 0.01997800000000006 0.999442
vn -0.03335 0.00785700000000006 0.999413
vn -0.002529 -0.85537 0.518012
vn 0.003214 -0.849838 0.527035
vn 0.013601 -0.99987 0.008706000000000061
vn 0.01198 -0.999685 0.022050000000000063
vn -0.996404 0.024500000000000004 0.08111
vn -0.9973 0.021698000000000002 0.070161
vn -0.996396 0.025278000000000002 0.080971
vn -0.995895 0.027067000000000008 0.086373
vn -0.996378 0.026834000000000004 0.080695
vn 0.998422 0.034507 0.044301
vn 0.997766 0.031084000000000004 0.059135
vn 0.99838 0.035697 0.044305
vn 0.998597 0.038001 0.036886
vn 0.998292 0.038078 0.044314
vn -0.048736 0.998308 -0.03170600000000006
vn -0.04354 0.998564 0.03120999999999994
vn -0.057495 0.957698 0.28197199999999994
vn -0.048515 0.779597 0.6244
vn -0.012231 0.025954000000000064 0.999588
vn -0.002223 -0.01509299999999994 0.999884
vn 0.003205 -0.853474 0.521125
vn 0.004886 -0.848178 0.529689
vn -0.00912 -0.999896 0.011173000000000061
vn -0.008565 -0.999954 0.004295000000000062
vn -0.995782 0.091227 0.009815999999999995
vn -0.996489 0.078693 -0.028594000000000005
vn -0.995512 0.094169 0.009370999999999996
vn -0.994396 0.101849 0.028350999999999994
vn -0.994947 0.100046 0.008480999999999994
vn 0.999132 0.024315000000000003 0.033838
vn 0.998769 0.021681000000000002 0.044625
vn 0.999127 0.025094000000000005 0.033405
vn 0.999254 0.0268 0.027794
vn 0.999115 0.026652000000000002 0.03254
vn 0.095543 -0.021038999999999936 0.995203
vn 0.157821 -0.21321899999999994 0.964173
vn 0.147697 -0.26513899999999996 0.952831
vn 0.023055 0.19298200000000004 0.980931
vn -0.036386 0.42839000000000005 0.902861
vn -0.045074 0.38516300000000003 0.921747
g bazaar
f 1/1/1 2/2/2 3/3/3
f 3/3/3 4/4/4 5/5/5
f 6/6/6 7/7/7 8/8/8
f 9/9/9 10/10/10 6/6/6
f 11/11/11 12/12/12 13/13/13
f 14/14/14 15/15/15 11/11/11
f 16/16/16 17/17/17 18/18/18
f 19/19/19 20/20/20 16/16/16
f 21/21/21 22/22/22 23/23/23
f 23/23/23 24/24/24 21/21/21
f 25/25/25 26/26/26 27/27/27
f 27/27/27 28/28/28 25/25/25
f 29/29/29 30/30/30 31/31/31
f 31/31/31 32/32/32 29/29/29
f 33/33/33 34/34/34 35/35/35
f 35/35/35 36/36/36 33/33/33
f 37/37/37 38/38/38 39/39/39
f 39/39/39 40/40/40 37/37/37
f 41/41/41 42/42/42 43/43/43
f 43/43/43 44/44/44 41/41/41
f 45/45/45 46/46/46 47/47/47
f 47/47/47 48/48/48 45/45/45
f 49/49/49 50/50/50 51/51/51
f 51/51/51 52/52/52 49/49/49
f 53/53/53 54/54/54 55/55/55
f 55/55/55 56/56/56 53/53/53
f 57/57/57 58/58/58 59/59/59
f 59/59/59 60/60/60 57/57/57
f 61/61/61 62/62/62 63/63/63
f 63/63/63 64/64/64 61/61/61
f 65/65/65 66/66/66 67/67/67
f 66/66/66 68/68/68 67/67/67
f 68/68/68 69/69/69 67/67/67
f 70/70/70 71/71/71 72/72/72
f 72/72/72 73/73/73 70/70/70
f 73/73/73 72/72/72 74/74/74
f 74/74/74 75/75/75 73/73/73
f 76/76/76 75/75/75 74/74/74
f 74/74/74 77/77/77 76/76/76
f 76/76/76 77/77/77 78/78/78
f 78/78/78 79/79/79 76/76/76
f 80/80/80 81/81/81 82/82/82
f 82/82/82 83/83/83 80/80/80
f 83/83/83 82/82/82 84/84/84
f 85/85/85 86/86/86 87/87/87
f 87/87/87 88/88/88 85/85/85
f 87/87/87 89/89/89 88/88/88
f 90/90/90 91/91/91 92/92/92
f 92/92/92 93/93/93 90/90/90
f 93/93/93 92/92/92 94/94/94
f 94/94/94 95/95/95 93/93/93
f 96/96/96 95/95/95 94/94/94
f 94/94/94 97/97/97 96/96/96
f 96/96/96 97/97/97 98/98/98
f 98/98/98 99/99/99 96/96/96
f 100/100/100 101/101/101 102/102/102
f 102/102/102 103/103/103 100/100/100
f 103/103/103 102/102/102 104/104/104
f 105/105/105 106/106/106 107/107/107
f 107/107/107 108/108/108 105/105/105
f 107/107/107 109/109/109 108/108/108
f 110/110/110 111/111/111 112/112/112
f 112/112/112 113/113/113 110/110/110
f 114/114/114 110/110/110 113/113/113
f 113/113/113 115/115/115 114/114/114
