v -1.586606 0.650623 0.27560599999999996
v -1.786033 0.704089 0.27560699999999994
v -1.706637 1.03162 0.27560299999999993
v -1.498213 0.969616 0.27557099999999995
v 1.951272 1.129024 0.29607199999999995
v 1.789826 1.036462 0.29607199999999995
v 1.730588 1.139693 0.29607199999999995
v 1.892034 1.232319 0.29607199999999995
v -2.129147 -1.489172 0.2666460000000001
v -2.198306 -1.234676 0.26524500000000006
v -2.06224 -1.334133 0.30464500000000005
v -2.012705 -1.184234 0.26629500000000006
v -1.943546 -1.438731 0.2676960000000001
v -1.943546 -1.438731 0.2676960000000001
v 2.618994 0.08117400000000001 0.276533
v 2.355269 0.08024000000000002 0.275133
v 2.486554 0.18592900000000004 0.314532
v 2.354583 0.272572 0.276183
v 2.618307 0.273506 0.277584
v 2.618307 0.273505 0.277584
v 1.440045 1.56289 0.2886669999999999
v 1.646515 1.562862 0.2886689999999999
v 1.654596 1.225943 0.28866499999999995
v 1.437226 1.23189 0.2886329999999999
v -2.681787 0.751476 0.29301299999999997
v -2.418985 0.729422 0.2916119999999999
v -2.55898 0.635578 0.3310119999999999
v -2.435063 0.537762 0.29266299999999995
v -2.697865 0.559818 0.29406299999999996
v -2.697865 0.559818 0.29406299999999996
v -0.546215 1.491237 0.2712679999999999
v -0.83854 1.492118 0.2712679999999999
v -0.838047 1.679078 0.2712679999999999
v -0.545671 1.678282 0.2712679999999999
v -2.23302 -0.251504 0.2861
v -2.525345 -0.250621 0.2861
v -2.524853 -0.06366299999999998 0.2861
v -2.232476 -0.06445599999999999 0.2861
v -1.601881 1.320814 0.12121499999999992
v -1.604511 1.687611 0.1212149999999999
v -1.424858 1.688479 0.1212149999999999
v -1.422943 1.321948 0.12121499999999992
v -1.601881 1.320814 -0.007577000000000081
v -1.604511 1.687611 -0.007577000000000104
v -1.424858 1.688479 -0.007577000000000104
v -1.422943 1.321948 -0.007577000000000081
v -1.322368 1.713334 0.005595999999999895
v -1.23438 1.51158 0.0055369999999999074
v -1.543597 1.370122 0.005839999999999916
v -1.635313 1.571666 0.0057949999999999035
v 0.800807 1.692173 0.008191999999999896
v 0.738923 1.534566 0.008145999999999907
v 0.493775 1.625819 0.0083789999999999
v 0.553516 1.78534 0.00834499999999989
v 0.666034 1.597917 0.1270019999999999
v 0.588135 1.678725 0.1269489999999999
v 0.588135 1.678725 0.005973999999999897
v 0.666034 1.597917 0.005992999999999902
v 0.669363 1.759174 0.005674999999999893
v 0.669363 1.759174 0.1261099999999999
v 0.747375 1.678248 0.12618799999999988
v 0.747374 1.678248 0.005702999999999897
v 0.530235 -1.546126 0.010123000000000095
v 0.3528 -1.5902 0.010036000000000097
v 0.305469 -1.410095 0.008669000000000086
v 0.483163 -1.365958 0.008796000000000083
v 0.564001 -1.419341 0.20445900000000009
v 0.432375 -1.546229 0.20437100000000008
v 0.432375 -1.546229 0.0073190000000000945
v 0.564002 -1.419342 0.0073500000000000865
v 0.301332 -1.413919 0.006832000000000087
v 0.301332 -1.413919 0.20300500000000007
v 0.433151 -1.286847 0.2031320000000001
v 0.433152 -1.286848 0.006877000000000079
v 2.196828 -0.146405 0.006362000000000008
v 2.180601 0.031799 0.006361999999999998
v 2.474658 0.058844 0.006361999999999996
v 2.491218 -0.12004 0.0063620000000000065
v 1.388583 1.48685 0.006063999999999909
v 1.327982 1.315311 0.006063999999999919
v 1.156442 1.375912 0.006063999999999916
v 1.217044 1.547452 0.006063999999999905
v 2.048345 0.775005 0.012184999999999953
v 2.167649 0.65011 0.01218499999999996
v 2.042357 0.53193 0.012184999999999967
v 1.923043 0.656988 0.01218499999999996
v -2.018734 -0.141119 0.017117000000000007
v -1.842622 -0.109421 0.017117000000000007
v -1.790051 -0.400003 0.017117000000000025
v -1.966811 -0.432091 0.017117000000000028
v 2.00362 -1.381318 0.010435000000000085
v 2.20875 -1.437194 0.010435000000000088
v 2.152874 -1.642325 0.0104350000000001
v 1.947744 -1.586449 0.010435000000000097
v -0.544039 2.118474 0.00822299999999987
v -0.637984 2.316476 0.008222999999999857
v -0.346038 2.212417 0.008222999999999864
v -0.43998 2.41042 0.008222999999999852
v -1.397358 0.79113 0.02306199999999995
v -1.553989 0.885431 0.022974999999999943
v -1.460104 1.046251 0.021608999999999937
v -1.303245 0.951814 0.021734999999999942
v -1.844665 -1.75765 0.009425000000000107
v -1.747977 -2.018225 0.009425000000000123
v -1.935056 -2.087642 0.009425000000000128
v -2.031746 -1.827068 0.00942500000000011
v -0.828757 -2.245645 0.006253000000000138
v -1.007699 -2.246281 0.006253000000000138
v -1.009012 -1.950986 0.00625300000000012
v -0.829365 -1.950079 0.00625300000000012
v 0.538859 1.959564 0.06433399999999988
v 0.351632 1.95915 0.06433399999999988
v 0.539075 2.067604 0.06433399999999988
v 0.445069 1.905376 0.06433399999999989
v 0.351717 2.067261 0.06433399999999988
v 0.445503 2.121451 0.06433399999999988
v -0.06843 -1.727872 0.010015000000000105
v -0.244662 -1.646216 0.0100150000000001
v -0.162387 -1.471047 0.01001500000000009
v 0.013937 -1.552585 0.010015000000000095
v 1.230911 -1.181167 -0.01719099999999993
v 1.463143 -1.524624 -0.015912999999999906
v 1.339156 -1.117101 -0.01732899999999993
v 1.570873 -1.454694 -0.01605499999999991
v -0.387392 -1.488356 0.002108000000000091
v -0.466871 -1.604182 0.002108000000000098
v -0.582696 -1.524704 0.0021080000000000933
v -0.503217 -1.408878 0.0021080000000000864
v 1.003456 -1.682926 0.2672990000000001
v 0.725527 -1.684662 0.2672990000000001
v 0.724281 -1.485123 0.2672990000000001
v 1.00221 -1.483386 0.2672990000000001
v -1.604511 1.687611 0.1212149999999999
v -1.601881 1.320814 0.12121499999999992
v -1.424858 1.688479 0.1212149999999999
v -1.604511 1.687611 0.1212149999999999
v -1.604511 1.687611 -0.007577000000000104
v -1.422943 1.321948 0.12121499999999992
v -1.424858 1.688479 0.1212149999999999
v -1.424858 1.688479 -0.007577000000000104
v -1.601881 1.320814 0.12121499999999992
v -1.422943 1.321948 0.12121499999999992
v -1.422943 1.321948 -0.007577000000000081
v -1.601881 1.320814 -0.007577000000000081
v 0.588135 1.678725 0.1269489999999999
v 0.669363 1.759174 0.1261099999999999
v 0.666034 1.597917 0.1270019999999999
v 0.588135 1.678725 0.005973999999999897
v 0.588135 1.678725 0.1269489999999999
v 0.747375 1.678248 0.12618799999999988
v 0.666034 1.597917 0.005992999999999902
v 0.666034 1.597917 0.1270019999999999
v 0.747375 1.678248 0.12618799999999988
v 0.669363 1.759174 0.1261099999999999
v 0.669363 1.759174 0.005674999999999893
v 0.747374 1.678248 0.005702999999999897
v 0.432375 -1.546229 0.20437100000000008
v 0.301332 -1.413919 0.20300500000000007
v 0.564001 -1.419341 0.20445900000000009
v 0.432375 -1.546229 0.0073190000000000945
v 0.432375 -1.546229 0.20437100000000008
v 0.433151 -1.286847 0.2031320000000001
v 0.564002 -1.419342 0.0073500000000000865
v 0.564001 -1.419341 0.20445900000000009
v 0.433151 -1.286847 0.2031320000000001
v 0.301332 -1.413919 0.20300500000000007
v 0.301332 -1.413919 0.006832000000000087
v 0.433152 -1.286848 0.006877000000000079
v -1.943546 -1.438731 0.2676960000000001
v -2.129147 -1.489172 0.2666460000000001
v 2.618307 0.273506 0.277584
v 2.618994 0.08117400000000001 0.276533
v -2.697865 0.559818 0.29406299999999996
v -2.681787 0.751476 0.29301299999999997
vt 0.858378 0.297944
vt 0.858519 0.266850
vt 0.817380 0.266991
vt 0.816777 0.298038
vt 0.186429 0.020763
vt 0.154006 0.020763
vt 0.154006 0.043239
vt 0.186429 0.043239
vt 0.526628 0.112571
vt 0.526628 0.152130
vt 0.541005 0.132438
vt 0.555274 0.152130
vt 0.555274 0.112571
vt 0.555274 0.112571
vt 0.526628 0.112571
vt 0.526628 0.152130
vt 0.541005 0.132438
vt 0.555274 0.152130
vt 0.555274 0.112571
vt 0.555274 0.112571
vt 0.858378 0.297944
vt 0.858519 0.266850
vt 0.817380 0.266991
vt 0.816777 0.298038
vt 0.526628 0.112571
vt 0.526628 0.152130
vt 0.541005 0.132438
vt 0.555274 0.152130
vt 0.555274 0.112571
vt 0.555274 0.112571
vt 0.186429 0.020763
vt 0.154006 0.020763
vt 0.154006 0.043239
vt 0.186429 0.043239
vt 0.186429 0.020763
vt 0.154006 0.020763
vt 0.154006 0.043239
vt 0.186429 0.043239
vt 0.774114 0.006345
vt 0.682336 0.006345
vt 0.682336 0.045058
vt 0.774114 0.045058
vt 0.432119 0.006345
vt 0.312378 0.006345
vt 0.623466 0.006345
vt 0.498930 0.006345
vt 0.854889 0.261503
vt 0.854878 0.234551
vt 0.817339 0.234530
vt 0.817350 0.261524
vt 0.854889 0.261503
vt 0.854878 0.234551
vt 0.817339 0.234530
vt 0.817350 0.261524
vt 0.767239 0.195702
vt 0.737078 0.195702
vt 0.703550 0.196010
vt 0.837923 0.165280
vt 0.703550 0.163409
vt 0.737078 0.163101
vt 0.767239 0.163101
vt 0.801142 0.162485
vt 0.767239 0.195702
vt 0.737078 0.195702
vt 0.737078 0.163101
vt 0.767239 0.163101
vt 0.767239 0.195702
vt 0.737078 0.195702
vt 0.703550 0.196010
vt 0.837923 0.165280
vt 0.703550 0.163409
vt 0.737078 0.163101
vt 0.767239 0.163101
vt 0.801142 0.162485
vt 0.608261 0.054421
vt 0.608261 0.101034
vt 0.684673 0.101034
vt 0.684673 0.054421
vt 0.103552 0.040864
vt 0.103789 0.008237
vt 0.073727 0.008237
vt 0.073727 0.040864
vt 0.010083 0.052205
vt 0.020454 0.047797
vt 0.016160 0.037136
vt 0.005778 0.041555
vt 0.608261 0.054421
vt 0.608261 0.101034
vt 0.684673 0.101034
vt 0.684673 0.054421
vt 0.368520 0.225184
vt 0.410102 0.225184
vt 0.410102 0.184169
vt 0.368520 0.184169
vt 0.006440 0.059383
vt 0.006440 0.111242
vt 0.049960 0.059383
vt 0.049961 0.111242
vt 0.767239 0.195702
vt 0.737078 0.195702
vt 0.737078 0.163101
vt 0.767239 0.163101
vt 0.913742 0.237634
vt 0.867124 0.237634
vt 0.867124 0.275382
vt 0.913742 0.275382
vt 0.608261 0.054421
vt 0.608261 0.101034
vt 0.684673 0.101034
vt 0.684673 0.054421
vt 0.790447 0.008568
vt 0.790447 0.042458
vt 0.806688 0.008568
vt 0.782327 0.025513
vt 0.806688 0.042458
vt 0.814808 0.025513
vt 0.481134 0.259271
vt 0.490757 0.235212
vt 0.467522 0.225247
vt 0.457896 0.249305
vt 0.974904 0.159751
vt 0.975133 0.203544
vt 0.962878 0.159751
vt 0.963107 0.203544
vt 0.103552 0.040864
vt 0.103789 0.008237
vt 0.073727 0.008237
vt 0.073727 0.040864
vt 0.913742 0.237634
vt 0.867124 0.237634
vt 0.867124 0.275382
vt 0.913742 0.275382
vt 0.312378 0.045058
vt 0.432118 0.045058
vt 0.623466 0.045058
vt 0.678375 0.045058
vt 0.678375 0.006345
vt 0.498930 0.045058
vt 0.618142 0.045058
vt 0.618142 0.006345
vt 0.435329 0.045058
vt 0.495251 0.045058
vt 0.495251 0.006345
vt 0.435329 0.006345
vt 0.734013 0.196010
vt 0.734013 0.163409
vt 0.807462 0.165280
vt 0.837923 0.195224
vt 0.807462 0.195224
vt 0.770679 0.162485
vt 0.801142 0.195086
vt 0.770679 0.195086
vt 0.807462 0.165280
vt 0.807462 0.195224
vt 0.837923 0.195224
vt 0.837923 0.165280
vt 0.734013 0.196010
vt 0.734013 0.163409
vt 0.807462 0.165280
vt 0.837923 0.195224
vt 0.807462 0.195224
vt 0.770679 0.162485
vt 0.801142 0.195086
vt 0.770679 0.195086
vt 0.807462 0.165280
vt 0.807462 0.195224
vt 0.837923 0.195224
vt 0.837923 0.165280
vt 0.555274 0.112571
vt 0.526628 0.112571
vt 0.555274 0.112571
vt 0.526628 0.112571
vt 0.555274 0.112571
vt 0.526628 0.112571
vn 9.1E-05 3.600000000006123E-05 1
vn 9E-06 1.0000000000061233E-05 1
vn 9.1E-05 3.600000000006123E-05 1
vn 0.000173 6.200000000006123E-05 1
vn 0 6.123233995736766E-17 1
vn 0 6.123233995736766E-17 1
vn 0 6.123233995736766E-17 1
vn 0 6.123233995736766E-17 1
vn -0.137347 -0.17947999999999995 0.974127
vn -0.212006 0.09525700000000005 0.972615
vn 0.009095 0.007974000000000061 0.999927
vn 0.15593 0.19614400000000007 0.968098
vn 0.231058 -0.08031799999999994 0.969619
vn 1 0 0
vn 0.090334 -0.12096999999999994 0.988537
vn -0.146882 -0.18012699999999995 0.972615
vn -0.005349 0.010850000000000061 0.999927
vn -0.149104 0.20138400000000006 0.968097
vn 0.089982 0.13262500000000005 0.987073
vn -0.003833 -0.005474999999999938 0.999978
vn -7.9E-05 -5.799999999993877E-05 1
vn -6E-06 -1.1999999999938768E-05 1
vn -7.9E-05 -5.799999999993877E-05 1
vn -0.000151 -0.00010399999999993876 1
vn -0.121681 0.19045000000000006 0.974127
vn 0.162023 0.16664200000000007 0.972615
vn 0.004382 -0.01127299999999994 0.999927
vn 0.130984 -0.21361199999999994 0.968098
vn -0.154501 -0.18965399999999993 0.969619
vn 1 0 0
vn 0 6.123233995736766E-17 1
vn 0 6.123233995736766E-17 1
vn 0 6.123233995736766E-17 1
vn 0 6.123233995736766E-17 1
vn 0 6.123233995736766E-17 1
vn 0 6.123233995736766E-17 1
vn 0 6.123233995736766E-17 1
vn 0 6.123233995736766E-17 1
vn 0 6.123233995736766E-17 1
vn 0 6.123233995736766E-17 1
vn 0 6.123233995736766E-17 1
vn 0 6.123233995736766E-17 1
vn -0.999974 -0.007171 4.390971098342835E-19
vn -0.999974 -0.007171 4.390971098342835E-19
vn -0.004829 0.999988 -6.123160516928818E-17
vn 0.999986 0.005225 -3.19938976277246E-19
vn 0.000686 0.00026700000000006124 1
vn 0.000929 0.00011000000000006123 1
vn 0.000686 0.00026700000000006124 1
vn 0.000443 0.00042400000000006126 1
vn 0.000674 -0.00029599999999993873 1
vn 0.000735 -0.0005789999999999387 1
vn 0.000674 -0.00029599999999993873 1
vn 0.000613 -1.2999999999938767E-05 1
vn 0.004795 0.005435000000000061 0.999974
vn 0.004947 0.005432000000000062 0.999973
vn -0.703699 0.710498 -4.350545507502981E-17
vn -0.71995 -0.694026 4.000000000042496E-06
vn -0.703698 0.7105 1.999999999956494E-06
vn 0.004795 0.005435000000000061 0.999974
vn 0.004642 0.005438000000000062 0.999974
vn 0.70268 -0.711506 -9.999999999564328E-07
vn -0.002309 0.006870000000000062 0.999974
vn -0.00223 0.007000000000000062 0.999973
vn -0.002309 0.006870000000000062 0.999974
vn -0.002388 0.006739000000000062 0.999974
vn -0.005435 0.004795000000000061 0.999974
vn -0.005431 0.004947000000000062 0.999973
vn -0.7105 -0.703698 4.308907516331971E-17
vn 0.694026 -0.71995 4.000000000044084E-06
vn -0.7105 -0.703698 4.308907516331971E-17
vn -0.005435 0.004795000000000061 0.999974
vn -0.005438 0.004642000000000062 0.999974
vn 0.711508 0.702678 4.999999999956974E-06
vn 0 6.123233995736766E-17 1
vn 0 6.123233995736766E-17 1
vn 0 6.123233995736766E-17 1
vn 0 6.123233995736766E-17 1
vn 0 6.123233995736766E-17 1
vn 0 6.123233995736766E-17 1
vn 0 6.123233995736766E-17 1
vn 0 6.123233995736766E-17 1
vn 0 6.123233995736766E-17 1
vn 0 6.123233995736766E-17 1
vn 0 6.123233995736766E-17 1
vn 0 6.123233995736766E-17 1
vn 0 6.123233995736766E-17 1
vn 0 6.123233995736766E-17 1
vn 0 6.123233995736766E-17 1
vn 0 6.123233995736766E-17 1
vn -0 6.123233995736766E-17 1
vn -0 6.123233995736766E-17 1
vn -0 6.123233995736766E-17 1
vn -0 6.123233995736766E-17 1
vn 0 6.123233995736766E-17 1
vn 1E-06 6.123233995736766E-17 1
vn 0 6.123233995736766E-17 1
vn 0 6.123233995736766E-17 1
vn 0.003225 0.006491000000000062 0.999974
vn 0.003373 0.006527000000000061 0.999973
vn 0.003225 0.006491000000000062 0.999974
vn 0.003077 0.006454000000000061 0.999974
vn 0 6.123233995736766E-17 1
vn 0 6.123233995736766E-17 1
vn 0 6.123233995736766E-17 1
vn 0 6.123233995736766E-17 1
vn 0 6.123233995736766E-17 1
vn 0 6.123233995736766E-17 1
vn 0 6.123233995736766E-17 1
vn 0 6.123233995736766E-17 1
vn 0 6.123233995736766E-17 1
vn 0 6.123233995736766E-17 1
vn 0 6.123233995736766E-17 1
vn 0 6.123233995736766E-17 1
vn 0 6.123233995736766E-17 1
vn 0 6.123233995736766E-17 1
vn 0 6.123233995736766E-17 1
vn 0 6.123233995736766E-17 1
vn 0 6.123233995736766E-17 1
vn 0 6.123233995736766E-17 1
vn -0.00066 0.003274000000000061 0.999995
vn -0.000721 0.0032560000000000614 0.999994
vn -0.000721 0.0032560000000000614 0.999994
vn -0.000783 0.003237000000000061 0.999994
vn 0 6.123233995736766E-17 1
vn 0 6.123233995736766E-17 1
vn 0 6.123233995736766E-17 1
vn 0 -9.999999999387675E-07 1
vn 0 6.123233995736766E-17 1
vn 0 6.123233995736766E-17 1
vn 0 6.123233995736766E-17 1
vn 0 6.123233995736766E-17 1
vn -0.999974 -0.007171 4.390971098342835E-19
vn -0.999974 -0.007171 4.390971098342835E-19
vn -0.004829 0.999988 -6.123160516928818E-17
vn -0.004829 0.999988 -6.123160516928818E-17
vn -0.004829 0.999988 -6.123160516928818E-17
vn 0.999986 0.005225 -3.19938976277246E-19
vn 0.999986 0.005225 -3.19938976277246E-19
vn 0.999986 0.005225 -3.19938976277246E-19
vn 0.006334 -0.99998 6.12311153105685E-17
vn 0.006334 -0.99998 6.12311153105685E-17
vn 0.006334 -0.99998 6.12311153105685E-17
vn 0.006334 -0.99998 6.12311153105685E-17
vn -0.703698 0.7105 1.999999999956494E-06
vn -0.703696 0.710501 3.9999999999564945E-06
vn -0.719949 -0.694027 2.000000000042497E-06
vn -0.719949 -0.694027 2.000000000042497E-06
vn -0.719947 -0.694029 4.249701966827192E-17
vn 0.70268 -0.711506 -9.999999999564328E-07
vn 0.70268 -0.711506 -9.999999999564328E-07
vn 0.70268 -0.711506 -9.999999999564328E-07
vn 0.719953 0.694023 -2.0000000000424964E-06
vn 0.719952 0.694023 -2.0000000000424964E-06
vn 0.719953 0.694023 -2.0000000000424964E-06
vn 0.719953 0.694023 -2.0000000000424964E-06
vn -0.7105 -0.703698 4.308907516331971E-17
vn -0.7105 -0.703698 4.308907516331971E-17
vn 0.694028 -0.719948 2.000000000044084E-06
vn 0.694028 -0.719948 2.000000000044084E-06
vn 0.69403 -0.719947 4.408403945528698E-17
vn 0.711506 0.70268 2.9999999999569733E-06
vn 0.711506 0.70268 2.9999999999569733E-06
vn 0.711505 0.702681 9.999999999569732E-07
vn -0.694023 0.719953 -3.0000000000440843E-06
vn -0.694025 0.719951 -4.4084284384646806E-17
vn -0.694023 0.719953 -3.0000000000440843E-06
vn -0.694021 0.719955 -5.000000000044085E-06
vn 0.231058 -0.08031799999999994 0.969619
vn -0.137347 -0.17947999999999995 0.974127
vn 0.089982 0.13262500000000005 0.987073
vn 0.090334 -0.12096999999999994 0.988537
vn -0.154501 -0.18965399999999993 0.969619
vn -0.121681 0.19045000000000006 0.974127
g shdsfh
f 131/131/131 130/130/130 129/129/129
f 129/129/129 132/132/132 131/131/131
f 125/125/125 128/128/128 127/127/127
f 127/127/127 126/126/126 125/125/125
f 123/123/123 121/121/121 122/122/122
f 122/122/122 124/124/124 123/123/123
f 118/118/118 117/117/117 120/120/120
f 120/120/120 119/119/119 118/118/118
f 114/114/114 111/111/111 112/112/112
f 111/111/111 113/113/113 112/112/112
f 113/113/113 116/116/116 112/112/112
f 116/116/116 115/115/115 112/112/112
f 109/109/109 108/108/108 107/107/107
f 107/107/107 110/110/110 109/109/109
f 105/105/105 104/104/104 103/103/103
f 103/103/103 106/106/106 105/105/105
f 99/99/99 102/102/102 101/101/101
f 101/101/101 100/100/100 99/99/99
f 98/98/98 96/96/96 95/95/95
f 95/95/95 97/97/97 98/98/98
f 93/93/93 92/92/92 91/91/91
f 91/91/91 94/94/94 93/93/93
f 89/89/89 88/88/88 87/87/87
f 87/87/87 90/90/90 89/89/89
f 84/84/84 83/83/83 86/86/86
f 84/84/84 86/86/86 85/85/85
f 79/79/79 82/82/82 81/81/81
f 81/81/81 80/80/80 79/79/79
f 77/77/77 76/76/76 75/75/75
f 75/75/75 78/78/78 77/77/77
f 165/165/165 168/168/168 167/167/167
f 167/167/167 166/166/166 165/165/165
f 162/162/162 164/164/164 163/163/163
f 163/163/163 74/74/74 162/162/162
f 159/159/159 161/161/161 160/160/160
f 160/160/160 70/70/70 159/159/159
f 157/157/157 158/158/158 71/71/71
f 71/71/71 69/69/69 157/157/157
f 67/67/67 73/73/73 72/72/72
f 72/72/72 68/68/68 67/67/67
f 63/63/63 66/66/66 65/65/65
f 65/65/65 64/64/64 63/63/63
f 153/153/153 156/156/156 155/155/155
f 155/155/155 154/154/154 153/153/153
f 150/150/150 152/152/152 151/151/151
f 151/151/151 62/62/62 150/150/150
f 147/147/147 149/149/149 148/148/148
f 148/148/148 58/58/58 147/147/147
f 145/145/145 146/146/146 59/59/59
f 59/59/59 57/57/57 145/145/145
f 55/55/55 61/61/61 60/60/60
f 60/60/60 56/56/56 55/55/55
f 53/53/53 52/52/52 51/51/51
f 51/51/51 54/54/54 53/53/53
f 49/49/49 48/48/48 47/47/47
f 47/47/47 50/50/50 49/49/49
f 141/141/141 144/144/144 143/143/143
f 143/143/143 142/142/142 141/141/141
f 138/138/138 46/46/46 140/140/140
f 140/140/140 139/139/139 138/138/138
f 135/135/135 45/45/45 137/137/137
f 137/137/137 136/136/136 135/135/135
f 133/133/133 44/44/44 43/43/43
f 43/43/43 134/134/134 133/133/133
f 41/41/41 40/40/40 39/39/39
f 39/39/39 42/42/42 41/41/41
f 37/37/37 36/36/36 35/35/35
f 35/35/35 38/38/38 37/37/37
f 33/33/33 32/32/32 31/31/31
f 31/31/31 34/34/34 33/33/33
f 174/174/174 30/30/30 173/173/173
f 29/29/29 27/27/27 25/25/25
f 27/27/27 29/29/29 28/28/28
f 27/27/27 28/28/28 26/26/26
f 27/27/27 26/26/26 25/25/25
f 23/23/23 22/22/22 21/21/21
f 21/21/21 24/24/24 23/23/23
f 172/172/172 20/20/20 171/171/171
f 19/19/19 17/17/17 15/15/15
f 17/17/17 19/19/19 18/18/18
f 17/17/17 18/18/18 16/16/16
f 17/17/17 16/16/16 15/15/15
f 170/170/170 14/14/14 169/169/169
f 13/13/13 11/11/11 9/9/9
f 11/11/11 13/13/13 12/12/12
f 11/11/11 12/12/12 10/10/10
f 11/11/11 10/10/10 9/9/9
f 7/7/7 6/6/6 5/5/5
f 5/5/5 8/8/8 7/7/7
f 3/3/3 2/2/2 1/1/1
f 1/1/1 4/4/4 3/3/3
