v 1.523151 -1.263295 0.29252400000000006
v 1.590506 -1.008316 0.29112400000000005
v 1.658614 -1.16248 0.33052300000000007
v 1.776462 -1.057431 0.29217400000000004
v 1.709107 -1.312411 0.29357500000000003
v 1.709107 -1.312411 0.29357500000000003
v 2.546021 0.321403 0.275911
v 2.633254 0.13426500000000002 0.275912
v 2.331316 -0.015446999999999983 0.275908
v 2.244842 0.18407100000000004 0.275876
v 1.460152 1.200897 0.28941199999999995
v 1.459218 1.464621 0.2880109999999999
v 1.564907 1.333337 0.32741099999999995
v 1.65155 1.465308 0.2890609999999999
v 1.652484 1.201584 0.29046199999999994
v 1.652483 1.201584 0.29046199999999994
v 0.985267 -1.712833 0.2672370000000001
v 0.707338 -1.714569 0.2672370000000001
v 0.706092 -1.51503 0.2672370000000001
v 0.984022 -1.513292 0.2672370000000001
v -0.523877 1.458948 0.28097299999999986
v -0.816203 1.45983 0.28097299999999986
v -0.81571 1.646789 0.28097299999999986
v -0.523333 1.645994 0.28097299999999986
v -1.586605 0.650623 0.28970499999999993
v -1.786032 0.704088 0.28970599999999996
v -1.706637 1.03162 0.28970199999999996
v -1.498212 0.969615 0.2896699999999999
v -2.525311 -0.06722299999999999 0.278547
v -2.262673 -0.043306999999999984 0.277147
v -2.384245 -0.16003499999999998 0.316546
v -2.245225 -0.23484799999999997 0.278197
v -2.507865 -0.258762 0.279598
v -2.507865 -0.258762 0.279598
v -2.029474 -2.045918 0.007047000000000125
v -2.320612 -2.019564 0.007047000000000124
v -2.303827 -1.833359 0.007047000000000112
v -2.012631 -1.859634 0.007047000000000114
v -1.580399 1.320813 0.12121499999999992
v -1.583029 1.687611 0.1212149999999999
v -1.403376 1.688478 0.1212149999999999
v -1.40146 1.321947 0.12121499999999992
v -1.580399 1.320813 -0.007577000000000081
v -1.583029 1.687611 -0.007577000000000104
v -1.403376 1.688478 -0.007577000000000104
v -1.40146 1.321947 -0.007577000000000081
v -1.300885 1.713333 0.005595999999999895
v -1.212898 1.511579 0.0055369999999999074
v -1.522114 1.370121 0.005839999999999916
v -1.61383 1.571665 0.0057949999999999035
v 1.813169 2.103901 0.008191999999999871
v 1.808922 1.934633 0.008145999999999883
v 1.547347 1.936538 0.008378999999999881
v 1.548927 2.106871 0.008344999999999872
v 1.718761 1.969234 0.1270019999999999
v 1.617922 2.018526 0.1269489999999999
v 1.617922 2.018526 0.005973999999999876
v 1.718761 1.969234 0.0059929999999998795
v 1.666736 2.121905 0.00567499999999987
v 1.666736 2.121905 0.12610999999999986
v 1.767722 2.072541 0.12618799999999986
v 1.767721 2.072541 0.005702999999999873
v -0.338929 0.573912 0.07028999999999996
v -0.558897 0.574576 0.07028999999999996
v -0.558526 0.715257 0.07028999999999996
v -0.33852 0.714659 0.07028999999999996
v -0.558897 0.574576 -0.0008940000000000353
v -0.558526 0.715257 -0.0008940000000000438
v -0.33852 0.714659 -0.0008940000000000438
v -0.338929 0.573912 -0.0008940000000000352
v -0.513548 0.571408 0.15061899999999998
v -0.439099 0.483319 0.15061899999999998
v -0.584357 0.360326 0.15061899999999998
v -0.659234 0.448652 0.15061899999999998
v -0.513548 0.571408 0.006138999999999966
v -0.659234 0.448652 0.006138999999999973
v -0.584357 0.360326 0.006138999999999979
v -0.439099 0.483319 0.006138999999999971
v -0.71601 0.49754 0.012083999999999968
v -0.436717 0.735328 0.012083999999999954
v -0.320574 0.598263 0.012083999999999963
v -0.600122 0.361194 0.012083999999999977
v 0.56865 -0.248704 0.012572000000000015
v 0.56602 0.118091 0.012571999999999993
v 0.745673 0.118959 0.012571999999999993
v 0.747588 -0.247572 0.012572000000000015
v 2.125985 1.579215 0.010122999999999903
v 1.969354 1.673515 0.010035999999999897
v 2.063239 1.834336 0.008668999999999887
v 2.220098 1.739897 0.008795999999999894
v 2.239512 1.644989 0.2044589999999999
v 2.056715 1.64834 0.20437099999999989
v 2.056715 1.64834 0.007318999999999899
v 2.239512 1.644988 0.007349999999999899
v 2.057611 1.834558 0.006831999999999888
v 2.057611 1.834558 0.20300499999999988
v 2.240674 1.831201 0.2031319999999999
v 2.240674 1.8312 0.006876999999999888
v 2.078537 -1.997488 0.006362000000000122
v 1.902204 -1.967041 0.00636200000000012
v 1.952188 -1.676003 0.006362000000000102
v 2.129262 -1.706306 0.006362000000000104
v 1.240171 1.658236 0.0060639999999998985
v 1.17957 1.486697 0.006063999999999909
v 1.008031 1.547298 0.006063999999999905
v 1.068632 1.718838 0.006063999999999895
v 2.850423 0.422214 0.012184999999999974
v 2.95054 0.317406 0.01218499999999998
v 2.845399 0.218232 0.012184999999999986
v 2.745273 0.323178 0.01218499999999998
v -2.061595 1.808411 0.01711699999999989
v -1.888588 1.762711 0.017116999999999893
v -1.963748 1.477137 0.01711699999999991
v -2.137507 1.522758 0.017116999999999907
v -2.234881 1.366984 0.010434999999999917
v -2.235762 1.154382 0.010434999999999929
v -2.448364 1.155263 0.010434999999999929
v -2.447484 1.367865 0.010434999999999917
v -2.094081 -1.014765 0.009412000000000063
v -2.158661 -0.878655 0.009412000000000054
v -1.957972 -0.950187 0.00941200000000006
v -2.02255 -0.814076 0.00941200000000005
v -2.706443 -0.696054 0.02306200000000004
v -2.863074 -0.601754 0.022975000000000037
v -2.769189 -0.440933 0.021609000000000027
v -2.61233 -0.53537 0.021735000000000032
v -0.831508 -1.90356 0.0018260000000001166
v -0.810611 -2.126384 0.00182600000000013
v -0.970587 -2.141387 0.0018260000000001311
v -0.991486 -1.918563 0.0018260000000001175
v -0.643607 -1.612902 0.005956000000000099
v -0.644104 -1.473168 0.0059560000000000906
v -0.413508 -1.472143 0.0059560000000000906
v -0.412801 -1.612429 0.005956000000000099
v -0.408612 -0.541937 0.013065000000000033
v -0.603553 -0.542367 0.013065000000000033
v -0.408387 -0.429445 0.013065000000000026
v -0.506267 -0.598357 0.013065000000000037
v -0.603465 -0.429803 0.013065000000000026
v -0.505814 -0.373379 0.013065000000000023
v 0.456432 -1.67994 0.010015000000000102
v 0.323822 -1.618496 0.010015000000000098
v 0.385731 -1.486686 0.01001500000000009
v 0.518411 -1.548041 0.010015000000000095
v 2.493747 -1.541049 0.015280000000000094
v 2.106514 -1.392908 0.016558000000000087
v 2.441824 -1.655616 0.0151410000000001
v 2.058377 -1.511984 0.016416000000000094
v 1.596652 -1.645357 0.0021080000000001007
v 1.597982 -1.785823 0.0021080000000001094
v 1.457516 -1.787153 0.0021080000000001094
v 1.456187 -1.646688 0.0021080000000001007
v 0.35105 -0.728221 0.026414000000000045
v 0.202701 -0.725502 0.026343000000000043
v 0.203428 -0.574374 0.025234000000000034
v 0.351994 -0.5771 0.025337000000000033
v 1.85154 1.09875 0.29900199999999993
v 1.690094 1.006188 0.29900199999999993
v 1.630856 1.109419 0.29900199999999993
v 1.792302 1.202045 0.29900199999999993
v -2.129147 -1.686683 0.3462350000000001
v -2.198306 -1.432187 0.3448350000000001
v -2.062241 -1.531644 0.38423400000000013
v -2.012705 -1.381745 0.3458850000000001
v -1.943547 -1.636241 0.3472860000000001
v -1.943547 -1.636241 0.3472860000000001
v -0.764087 2.207996 0.009585999999999865
v -0.764002 2.316997 0.009585999999999859
v -0.669442 2.371634 0.009585999999999855
v -0.5751 2.317343 0.009585999999999859
v -0.575317 2.208411 0.009585999999999865
v -0.66988 2.153777 0.009585999999999869
v -1.583029 1.687611 0.1212149999999999
v -1.580399 1.320813 0.12121499999999992
v -1.403376 1.688478 0.1212149999999999
v -1.583029 1.687611 0.1212149999999999
v -1.583029 1.687611 -0.007577000000000104
v -1.40146 1.321947 0.12121499999999992
v -1.403376 1.688478 0.1212149999999999
v -1.403376 1.688478 -0.007577000000000104
v -1.580399 1.320813 0.12121499999999992
v -1.40146 1.321947 0.12121499999999992
v -1.40146 1.321947 -0.007577000000000081
v -1.580399 1.320813 -0.007577000000000081
v 1.617922 2.018526 0.1269489999999999
v 1.666736 2.121905 0.12610999999999986
v 1.718761 1.969234 0.1270019999999999
v 1.617922 2.018526 0.005973999999999876
v 1.617922 2.018526 0.1269489999999999
v 1.767722 2.072541 0.12618799999999986
v 1.718761 1.969234 0.0059929999999998795
v 1.718761 1.969234 0.1270019999999999
v 1.767722 2.072541 0.12618799999999986
v 1.666736 2.121905 0.12610999999999986
v 1.666736 2.121905 0.00567499999999987
v 1.767721 2.072541 0.005702999999999873
v -0.558526 0.715257 -0.0008940000000000438
v -0.33852 0.714659 -0.0008940000000000438
v -0.338929 0.573912 -0.0008940000000000352
v -0.558897 0.574576 -0.0008940000000000353
v -0.659234 0.448652 0.15061899999999998
v -0.513548 0.571408 0.15061899999999998
v -0.584357 0.360326 0.15061899999999998
v -0.659234 0.448652 0.006138999999999973
v -0.659234 0.448652 0.15061899999999998
v -0.439099 0.483319 0.15061899999999998
v -0.584357 0.360326 0.006138999999999979
v -0.584357 0.360326 0.15061899999999998
v -0.513548 0.571408 0.15061899999999998
v -0.513548 0.571408 0.006138999999999966
v -0.439099 0.483319 0.006138999999999971
v -0.439099 0.483319 0.15061899999999998
v 2.056715 1.64834 0.20437099999999989
v 2.057611 1.834558 0.20300499999999988
v 2.239512 1.644989 0.2044589999999999
v 2.056715 1.64834 0.007318999999999899
v 2.056715 1.64834 0.20437099999999989
v 2.240674 1.831201 0.2031319999999999
v 2.239512 1.644988 0.007349999999999899
v 2.239512 1.644989 0.2044589999999999
v 2.240674 1.831201 0.2031319999999999
v 2.057611 1.834558 0.20300499999999988
v 2.057611 1.834558 0.006831999999999888
v 2.240674 1.8312 0.006876999999999888
v 1.709107 -1.312411 0.29357500000000003
v 1.523151 -1.263295 0.29252400000000006
v 1.652484 1.201584 0.29046199999999994
v 1.460152 1.200897 0.28941199999999995
v -2.507865 -0.258762 0.279598
v -2.525311 -0.06722299999999999 0.278547
v -0.558526 0.715257 0.07028999999999996
v -0.558897 0.574576 0.07028999999999996
v -0.558526 0.715257 0.07028999999999996
v -0.33852 0.714659 0.07028999999999996
v -0.558526 0.715257 0.07028999999999996
v -0.33852 0.714659 0.07028999999999996
v -0.338929 0.573912 0.07028999999999996
v -0.33852 0.714659 0.07028999999999996
v -0.338929 0.573912 0.07028999999999996
v -0.558897 0.574576 0.07028999999999996
v -0.338929 0.573912 0.07028999999999996
v -0.558897 0.574576 0.07028999999999996
v -1.943547 -1.636241 0.3472860000000001
v -2.129147 -1.686683 0.3462350000000001
vt 0.526628 0.112571
vt 0.526628 0.152130
vt 0.541005 0.132438
vt 0.555274 0.152130
vt 0.555274 0.112571
vt 0.555274 0.112571
vt 0.858378 0.297944
vt 0.858519 0.266850
vt 0.817380 0.266991
vt 0.816777 0.298038
vt 0.526628 0.112571
vt 0.526628 0.152130
vt 0.541005 0.132438
vt 0.555274 0.152130
vt 0.555274 0.112571
vt 0.555274 0.112571
vt 0.913742 0.237634
vt 0.867124 0.237634
vt 0.867124 0.275382
vt 0.913742 0.275382
vt 0.186429 0.020763
vt 0.154006 0.020763
vt 0.154006 0.043239
vt 0.186429 0.043239
vt 0.858378 0.297944
vt 0.858519 0.266850
vt 0.817380 0.266991
vt 0.816777 0.298038
vt 0.526628 0.112571
vt 0.526628 0.152130
vt 0.541005 0.132438
vt 0.555274 0.152130
vt 0.555274 0.112571
vt 0.555274 0.112571
vt 0.186429 0.020763
vt 0.154006 0.020763
vt 0.154006 0.043239
vt 0.186429 0.043239
vt 0.774114 0.006345
vt 0.682336 0.006345
vt 0.682336 0.045058
vt 0.774114 0.045058
vt 0.432119 0.006345
vt 0.312378 0.006345
vt 0.623466 0.006345
vt 0.498930 0.006345
vt 0.854889 0.261503
vt 0.854878 0.234551
vt 0.817339 0.234530
vt 0.817350 0.261524
vt 0.854889 0.261503
vt 0.854878 0.234551
vt 0.817339 0.234530
vt 0.817350 0.261524
vt 0.767239 0.195702
vt 0.737078 0.195702
vt 0.703550 0.196010
vt 0.837923 0.165280
vt 0.703550 0.163409
vt 0.737078 0.163101
vt 0.767239 0.163101
vt 0.801142 0.162485
vt 0.186429 0.020763
vt 0.154006 0.020763
vt 0.154006 0.043239
vt 0.186429 0.043239
vt 0.144353 0.020455
vt 0.144353 0.042931
vt 0.186429 0.054451
vt 0.194034 0.020763
vt 0.608261 0.054421
vt 0.608261 0.101034
vt 0.684673 0.101034
vt 0.684673 0.054421
vt 0.528060 0.054421
vt 0.603016 0.054421
vt 0.395128 0.054421
vt 0.473850 0.054421
vt 0.774114 0.006345
vt 0.682336 0.006345
vt 0.682336 0.045058
vt 0.774114 0.045058
vt 0.774114 0.006345
vt 0.682336 0.006345
vt 0.682336 0.045058
vt 0.774114 0.045058
vt 0.767239 0.195702
vt 0.737078 0.195702
vt 0.737078 0.163101
vt 0.767239 0.163101
vt 0.767239 0.195702
vt 0.737078 0.195702
vt 0.703550 0.196010
vt 0.837923 0.165280
vt 0.703550 0.163409
vt 0.737078 0.163101
vt 0.767239 0.163101
vt 0.801142 0.162485
vt 0.608261 0.054421
vt 0.608261 0.101034
vt 0.684673 0.101034
vt 0.684673 0.054421
vt 0.103552 0.040864
vt 0.103789 0.008237
vt 0.073727 0.008237
vt 0.073727 0.040864
vt 0.010083 0.052205
vt 0.020454 0.047797
vt 0.016160 0.037136
vt 0.005778 0.041555
vt 0.608261 0.054421
vt 0.608261 0.101034
vt 0.684673 0.101034
vt 0.684673 0.054421
vt 0.368520 0.225184
vt 0.410102 0.225184
vt 0.410102 0.184169
vt 0.368520 0.184169
vt 0.006440 0.059383
vt 0.006440 0.111242
vt 0.049960 0.059383
vt 0.049961 0.111242
vt 0.767239 0.195702
vt 0.737078 0.195702
vt 0.737078 0.163101
vt 0.767239 0.163101
vt 0.913742 0.237634
vt 0.867124 0.237634
vt 0.867124 0.275382
vt 0.913742 0.275382
vt 0.608261 0.054421
vt 0.608261 0.101034
vt 0.684673 0.101034
vt 0.684673 0.054421
vt 0.790447 0.008568
vt 0.790447 0.042458
vt 0.806688 0.008568
vt 0.782327 0.025513
vt 0.806688 0.042458
vt 0.814808 0.025513
vt 0.481134 0.259271
vt 0.490757 0.235212
vt 0.467522 0.225247
vt 0.457896 0.249305
vt 0.974904 0.159751
vt 0.975133 0.203544
vt 0.962878 0.159751
vt 0.963107 0.203544
vt 0.103552 0.040864
vt 0.103789 0.008237
vt 0.073727 0.008237
vt 0.073727 0.040864
vt 0.767239 0.195702
vt 0.737078 0.195702
vt 0.737078 0.163101
vt 0.767239 0.163101
vt 0.186429 0.020763
vt 0.154006 0.020763
vt 0.154006 0.043239
vt 0.186429 0.043239
vt 0.526628 0.112571
vt 0.526628 0.152130
vt 0.541005 0.132438
vt 0.555274 0.152130
vt 0.555274 0.112571
vt 0.555274 0.112571
vt 0.790487 0.041484
vt 0.806728 0.041484
vt 0.814848 0.024539
vt 0.806728 0.008519
vt 0.790487 0.008519
vt 0.782367 0.024539
vt 0.312378 0.045058
vt 0.432118 0.045058
vt 0.623466 0.045058
vt 0.678375 0.045058
vt 0.678375 0.006345
vt 0.498930 0.045058
vt 0.618142 0.045058
vt 0.618142 0.006345
vt 0.435329 0.045058
vt 0.495251 0.045058
vt 0.495251 0.006345
vt 0.435329 0.006345
vt 0.734013 0.196010
vt 0.734013 0.163409
vt 0.807462 0.165280
vt 0.837923 0.195224
vt 0.807462 0.195224
vt 0.770679 0.162485
vt 0.801142 0.195086
vt 0.770679 0.195086
vt 0.807462 0.165280
vt 0.807462 0.195224
vt 0.837923 0.195224
vt 0.837923 0.165280
vt 0.154006 0.054451
vt 0.194034 0.043239
vt 0.186429 0.008706
vt 0.154006 0.008706
vt 0.603016 0.101034
vt 0.528060 0.101034
vt 0.395128 0.101034
vt 0.349555 0.054421
vt 0.349555 0.101034
vt 0.473850 0.101034
vt 0.398939 0.054421
vt 0.398939 0.101034
vt 0.523663 0.101034
vt 0.523663 0.054421
vt 0.477953 0.054421
vt 0.477953 0.101034
vt 0.734013 0.196010
vt 0.734013 0.163409
vt 0.807462 0.165280
vt 0.837923 0.195224
vt 0.807462 0.195224
vt 0.770679 0.162485
vt 0.801142 0.195086
vt 0.770679 0.195086
vt 0.807462 0.165280
vt 0.807462 0.195224
vt 0.837923 0.195224
vt 0.837923 0.165280
vt 0.555274 0.112571
vt 0.526628 0.112571
vt 0.555274 0.112571
vt 0.526628 0.112571
vt 0.555274 0.112571
vt 0.526628 0.112571
vt 0.154006 0.043239
vt 0.154006 0.020763
vt 0.154006 0.043239
vt 0.186429 0.043239
vt 0.154006 0.043239
vt 0.186429 0.043239
vt 0.186429 0.020763
vt 0.186429 0.043239
vt 0.186429 0.020763
vt 0.154006 0.020763
vt 0.186429 0.020763
vt 0.154006 0.020763
vt 0.555274 0.112571
vt 0.526628 0.112571
vn -0.138671 -0.049745999999999936 0.989088
vn -0.135974 0.18849800000000005 0.972615
vn 0.011864 0.002359000000000061 0.999927
vn 0.233112 0.09190100000000005 0.968098
vn 0.106542 -0.11504899999999994 0.98763
vn 0.000535 0.023406000000000062 0.999726
vn -8.6E-05 4.700000000006123E-05 1
vn -1.4E-05 1.0000000000612324E-06 1
vn -8.6E-05 4.700000000006123E-05 1
vn -0.000158 9.300000000006123E-05 1
vn -0.121052 -0.08507199999999994 0.988994
vn -0.180127 0.14688300000000007 0.972615
vn 0.01085 0.005349000000000061 0.999927
vn 0.201384 0.14910400000000004 0.968097
vn 0.132676 -0.08469099999999995 0.987535
vn -0.005529 0.019403000000000063 0.999796
vn 0 6.123233995736766E-17 1
vn 0 6.123233995736766E-17 1
vn 0 6.123233995736766E-17 1
vn 0 6.123233995736766E-17 1
vn 0 6.123233995736766E-17 1
vn 0 6.123233995736766E-17 1
vn 0 6.123233995736766E-17 1
vn 0 6.123233995736766E-17 1
vn 9.1E-05 3.600000000006123E-05 1
vn 9E-06 1.0000000000061233E-05 1
vn 9.1E-05 3.600000000006123E-05 1
vn 0.000173 6.200000000006123E-05 1
vn -0.152902 0.16642700000000005 0.974127
vn 0.130625 0.19224400000000005 0.972615
vn 0.006274 -0.010340999999999939 0.999927
vn 0.166088 -0.18762199999999996 0.968098
vn -0.11922 -0.21360099999999996 0.969619
vn 1 0 0
vn 0 6.123233995736766E-17 1
vn 0 6.123233995736766E-17 1
vn 0 6.123233995736766E-17 1
vn 0 6.123233995736766E-17 1
vn 0 6.123233995736766E-17 1
vn 0 6.123233995736766E-17 1
vn 0 6.123233995736766E-17 1
vn 0 6.123233995736766E-17 1
vn -0.999974 -0.00717 4.390358774943261E-19
vn -0.999974 -0.00717 4.390358774943261E-19
vn -0.004829 0.999988 -6.123160516928818E-17
vn 0.999986 0.005225 -3.19938976277246E-19
vn 0.000686 0.00026700000000006124 1
vn 0.000929 0.00011000000000006123 1
vn 0.000686 0.00026700000000006124 1
vn 0.000443 0.00042400000000006126 1
vn 0.000735 -4.799999999993877E-05 1
vn 0.000889 -0.00029299999999993876 1
vn 0.000735 -4.799999999993877E-05 1
vn 0.000581 0.00019700000000006122 1
vn 0.002647 0.006747000000000062 0.999974
vn 0.002791 0.0067960000000000615 0.999973
vn -0.904264 0.426974 -2.61446171209571E-17
vn -0.439162 -0.898408 4.000000000055011E-06
vn -0.904263 0.426976 1.999999999973855E-06
vn 0.002647 0.006747000000000062 0.999974
vn 0.002502 0.0066980000000000615 0.999974
vn 0.903652 -0.428267 -9.999999999737762E-07
vn 0.665675 -0.33527599999999996 0.666684
vn -0.410658 -0.815312 0.40819900000000003
vn -0.66577 0.33509600000000006 0.666679
vn 0.410491 0.815359 0.40827399999999997
vn -0.895637 -0.444786 2.7235287560277732E-17
vn -0.444796 0.895632 -5.4841643100697113E-17
vn 0.895706 0.444647 -1.0000000000272268E-06
vn 0.444533 -0.895762 2.0000000000548495E-06
vn 0 6.123233995736766E-17 1
vn 0 6.123233995736766E-17 1
vn 0 6.123233995736766E-17 1
vn 0 6.123233995736766E-17 1
vn -0.64436 0.764722 -4.682571747687811E-17
vn -0.64436 0.764722 -4.682571747687811E-17
vn -0.762793 -0.646643 3.9595464007052097E-17
vn 0.646191 -0.763176 4.673105227930402E-17
vn 0 6.123233995736766E-17 1
vn 0 6.123233995736766E-17 1
vn 0 6.123233995736766E-17 1
vn 0 6.123233995736766E-17 1
vn 0 6.123233995736766E-17 1
vn 0 6.123233995736766E-17 1
vn 0 6.123233995736766E-17 1
vn 0 6.123233995736766E-17 1
vn 0.003225 0.006491000000000062 0.999974
vn 0.003373 0.006527000000000061 0.999973
vn 0.003225 0.006491000000000062 0.999974
vn 0.003077 0.006454000000000061 0.999974
vn -0.000452 0.007233000000000061 0.999974
vn -0.000342 0.007339000000000062 0.999973
vn -0.999988 0.004813 -2.9471125221481053E-19
vn -0.01833 -0.999832 1.000000000061222E-06
vn -0.999988 0.004813 -2.9471125221481053E-19
vn -0.000452 0.007233000000000061 0.999974
vn -0.000562 0.007128000000000061 0.999974
vn 0.999981 -0.006242 1.0000000000003822E-06
vn 0 6.123233995736766E-17 1
vn 0 6.123233995736766E-17 1
vn 0 6.123233995736766E-17 1
vn 0 6.123233995736766E-17 1
vn 0 6.123233995736766E-17 1
vn 0 6.123233995736766E-17 1
vn 0 6.123233995736766E-17 1
vn 0 6.123233995736766E-17 1
vn 0 6.123233995736766E-17 1
vn 0 6.123233995736766E-17 1
vn 0 6.123233995736766E-17 1
vn 0 6.123233995736766E-17 1
vn 0 6.123233995736766E-17 1
vn 0 6.123233995736766E-17 1
vn 0 6.123233995736766E-17 1
vn 0 6.123233995736766E-17 1
vn -0 6.123233995736766E-17 1
vn -0 6.123233995736766E-17 1
vn -0 6.123233995736766E-17 1
vn -0 6.123233995736766E-17 1
vn 0 6.123233995736766E-17 1
vn 1E-06 6.123233995736766E-17 1
vn 0 6.123233995736766E-17 1
vn 0 6.123233995736766E-17 1
vn 0.003225 0.006491000000000062 0.999974
vn 0.003373 0.006527000000000061 0.999973
vn 0.003225 0.006491000000000062 0.999974
vn 0.003077 0.006454000000000061 0.999974
vn 0 6.123233995736766E-17 1
vn 0 6.123233995736766E-17 1
vn 0 6.123233995736766E-17 1
vn 0 6.123233995736766E-17 1
vn 0 6.123233995736766E-17 1
vn 0 6.123233995736766E-17 1
vn 0 6.123233995736766E-17 1
vn 0 6.123233995736766E-17 1
vn 0 6.123233995736766E-17 1
vn 0 6.123233995736766E-17 1
vn 0 6.123233995736766E-17 1
vn 0 6.123233995736766E-17 1
vn 0 6.123233995736766E-17 1
vn 0 6.123233995736766E-17 1
vn 0 6.123233995736766E-17 1
vn 0 6.123233995736766E-17 1
vn 0 6.123233995736766E-17 1
vn 0 6.123233995736766E-17 1
vn 0.002419 -0.002303999999999939 0.999995
vn 0.002458 -0.0022529999999999386 0.999994
vn 0.002458 -0.0022529999999999386 0.999994
vn 0.002498 -0.002202999999999939 0.999994
vn 0 6.123233995736766E-17 1
vn 0 6.123233995736766E-17 1
vn 0 6.123233995736766E-17 1
vn 0 6.123233995736766E-17 1
vn -0.000452 0.007233000000000061 0.999974
vn -0.000342 0.007339000000000062 0.999973
vn -0.000452 0.007233000000000061 0.999974
vn -0.000562 0.007128000000000061 0.999974
vn 0 6.123233995736766E-17 1
vn 0 6.123233995736766E-17 1
vn 0 6.123233995736766E-17 1
vn 0 6.123233995736766E-17 1
vn -0.137347 -0.17947999999999995 0.974127
vn -0.212006 0.09525700000000005 0.972615
vn 0.009095 0.007974000000000061 0.999927
vn 0.15593 0.19614400000000007 0.968098
vn 0.231058 -0.08031799999999994 0.969619
vn 1 0 0
vn 0 6.123233995736766E-17 1
vn 0 6.123233995736766E-17 1
vn 0 6.123233995736766E-17 1
vn 0 6.123233995736766E-17 1
vn 0 6.123233995736766E-17 1
vn 0 6.123233995736766E-17 1
vn -0.999974 -0.00717 4.390358774943261E-19
vn -0.999974 -0.00717 4.390358774943261E-19
vn -0.004829 0.999988 -6.123160516928818E-17
vn -0.004829 0.999988 -6.123160516928818E-17
vn -0.004829 0.999988 -6.123160516928818E-17
vn 0.999986 0.005225 -3.19938976277246E-19
vn 0.999986 0.005225 -3.19938976277246E-19
vn 0.999986 0.005225 -3.19938976277246E-19
vn 0.006335 -0.99998 6.12311153105685E-17
vn 0.006335 -0.99998 6.12311153105685E-17
vn 0.006335 -0.99998 6.12311153105685E-17
vn 0.006335 -0.99998 6.12311153105685E-17
vn -0.904263 0.426976 1.999999999973855E-06
vn -0.904262 0.426977 2.999999999973855E-06
vn -0.43916 -0.898409 2.0000000000550117E-06
vn -0.43916 -0.898409 2.0000000000550117E-06
vn -0.439158 -0.89841 5.5011746541098683E-17
vn 0.903652 -0.428267 -9.999999999737762E-07
vn 0.903652 -0.428267 -9.999999999737762E-07
vn 0.903652 -0.428267 -9.999999999737762E-07
vn 0.439164 0.898407 -3.0000000000550115E-06
vn 0.439163 0.898408 -3.000000000055012E-06
vn 0.439164 0.898407 -3.0000000000550115E-06
vn 0.439164 0.898407 -4.000000000055011E-06
vn -0.444796 0.895632 -5.4841643100697113E-17
vn 0.895706 0.444647 -1.0000000000272268E-06
vn 0.444533 -0.895762 2.0000000000548495E-06
vn -0.895637 -0.444786 2.7235287560277732E-17
vn -0.64436 0.764722 -4.682571747687811E-17
vn -0.64436 0.764722 -4.682571747687811E-17
vn -0.762793 -0.646643 3.9595464007052097E-17
vn -0.762793 -0.646643 3.9595464007052097E-17
vn -0.762793 -0.646643 3.9595464007052097E-17
vn 0.646191 -0.763176 4.673105227930402E-17
vn 0.646191 -0.763176 4.673105227930402E-17
vn 0.646191 -0.763176 4.673105227930402E-17
vn 0.763759 0.645502 -3.952559790716074E-17
vn 0.763759 0.645502 -3.952559790716074E-17
vn 0.763759 0.645502 -3.952559790716074E-17
vn 0.763759 0.645502 -3.952559790716074E-17
vn -0.999988 0.004813 -2.9471125221481053E-19
vn -0.999988 0.004813 -2.9471125221481053E-19
vn -0.018329 -0.999832 1.000000000061222E-06
vn -0.018329 -0.999832 1.000000000061222E-06
vn -0.018328 -0.999832 6.122205292425483E-17
vn 0.999981 -0.006241 3.8215103367393157E-19
vn 0.999981 -0.006241 3.8215103367393157E-19
vn 0.999981 -0.00624 -9.99999999999618E-07
vn 0.018338 0.999832 -2.0000000000612218E-06
vn 0.018336 0.999832 -6.122205292425483E-17
vn 0.018338 0.999832 -2.0000000000612218E-06
vn 0.018341 0.999832 -5.000000000061222E-06
vn 0.106542 -0.11504899999999994 0.98763
vn -0.138671 -0.049745999999999936 0.989088
vn 0.132676 -0.08469099999999995 0.987535
vn -0.121052 -0.08507199999999994 0.988994
vn -0.11922 -0.21360099999999996 0.969619
vn -0.152902 0.16642700000000005 0.974127
vn -0.66577 0.33509600000000006 0.666679
vn -0.410658 -0.815312 0.40819900000000003
vn -0.66577 0.33509600000000006 0.666679
vn 0.410491 0.815359 0.40827399999999997
vn -0.66577 0.33509600000000006 0.666679
vn 0.410491 0.815359 0.40827399999999997
vn 0.665675 -0.33527599999999996 0.666684
vn 0.410491 0.815359 0.40827399999999997
vn 0.665675 -0.33527599999999996 0.666684
vn -0.410658 -0.815312 0.40819900000000003
vn 0.665675 -0.33527599999999996 0.666684
vn -0.410658 -0.815312 0.40819900000000003
vn 0.231058 -0.08031799999999994 0.969619
vn -0.137347 -0.17947999999999995 0.974127
g shdsfh
f 172/172/172 171/171/171 167/167/167
f 171/171/171 170/170/170 167/167/167
f 170/170/170 169/169/169 167/167/167
f 169/169/169 168/168/168 167/167/167
f 244/244/244 166/166/166 243/243/243
f 165/165/165 163/163/163 161/161/161
f 163/163/163 165/165/165 164/164/164
f 163/163/163 164/164/164 162/162/162
f 163/163/163 162/162/162 161/161/161
f 159/159/159 158/158/158 157/157/157
f 157/157/157 160/160/160 159/159/159
f 153/153/153 156/156/156 155/155/155
f 155/155/155 154/154/154 153/153/153
f 149/149/149 152/152/152 151/151/151
f 151/151/151 150/150/150 149/149/149
f 147/147/147 145/145/145 146/146/146
f 146/146/146 148/148/148 147/147/147
f 142/142/142 141/141/141 144/144/144
f 144/144/144 143/143/143 142/142/142
f 138/138/138 135/135/135 136/136/136
f 135/135/135 137/137/137 136/136/136
f 137/137/137 140/140/140 136/136/136
f 140/140/140 139/139/139 136/136/136
f 133/133/133 132/132/132 131/131/131
f 131/131/131 134/134/134 133/133/133
f 129/129/129 128/128/128 127/127/127
f 127/127/127 130/130/130 129/129/129
f 123/123/123 126/126/126 125/125/125
f 125/125/125 124/124/124 123/123/123
f 122/122/122 120/120/120 119/119/119
f 119/119/119 121/121/121 122/122/122
f 117/117/117 116/116/116 115/115/115
f 115/115/115 118/118/118 117/117/117
f 113/113/113 112/112/112 111/111/111
f 111/111/111 114/114/114 113/113/113
f 108/108/108 107/107/107 110/110/110
f 108/108/108 110/110/110 109/109/109
f 103/103/103 106/106/106 105/105/105
f 105/105/105 104/104/104 103/103/103
f 101/101/101 100/100/100 99/99/99
f 99/99/99 102/102/102 101/101/101
f 221/221/221 224/224/224 223/223/223
f 223/223/223 222/222/222 221/221/221
f 218/218/218 220/220/220 219/219/219
f 219/219/219 98/98/98 218/218/218
f 215/215/215 217/217/217 216/216/216
f 216/216/216 94/94/94 215/215/215
f 213/213/213 214/214/214 95/95/95
f 95/95/95 93/93/93 213/213/213
f 91/91/91 97/97/97 96/96/96
f 96/96/96 92/92/92 91/91/91
f 87/87/87 90/90/90 89/89/89
f 89/89/89 88/88/88 87/87/87
f 85/85/85 84/84/84 83/83/83
f 83/83/83 86/86/86 85/85/85
f 81/81/81 80/80/80 79/79/79
f 79/79/79 82/82/82 81/81/81
f 209/209/209 212/212/212 211/211/211
f 211/211/211 210/210/210 209/209/209
f 206/206/206 208/208/208 207/207/207
f 207/207/207 78/78/78 206/206/206
f 203/203/203 205/205/205 204/204/204
f 204/204/204 77/77/77 203/203/203
f 201/201/201 202/202/202 75/75/75
f 75/75/75 76/76/76 201/201/201
f 73/73/73 72/72/72 71/71/71
f 71/71/71 74/74/74 73/73/73
f 242/242/242 200/200/200 199/199/199
f 199/199/199 241/241/241 240/240/240
f 239/239/239 70/70/70 198/198/198
f 198/198/198 238/238/238 237/237/237
f 236/236/236 69/69/69 197/197/197
f 197/197/197 235/235/235 234/234/234
f 233/233/233 68/68/68 67/67/67
f 67/67/67 232/232/232 231/231/231
f 65/65/65 64/64/64 63/63/63
f 63/63/63 66/66/66 65/65/65
f 193/193/193 196/196/196 195/195/195
f 195/195/195 194/194/194 193/193/193
f 190/190/190 192/192/192 191/191/191
f 191/191/191 62/62/62 190/190/190
f 187/187/187 189/189/189 188/188/188
f 188/188/188 58/58/58 187/187/187
f 185/185/185 186/186/186 59/59/59
f 59/59/59 57/57/57 185/185/185
f 55/55/55 61/61/61 60/60/60
f 60/60/60 56/56/56 55/55/55
f 53/53/53 52/52/52 51/51/51
f 51/51/51 54/54/54 53/53/53
f 49/49/49 48/48/48 47/47/47
f 47/47/47 50/50/50 49/49/49
f 181/181/181 184/184/184 183/183/183
f 183/183/183 182/182/182 181/181/181
f 178/178/178 46/46/46 180/180/180
f 180/180/180 179/179/179 178/178/178
f 175/175/175 45/45/45 177/177/177
f 177/177/177 176/176/176 175/175/175
f 173/173/173 44/44/44 43/43/43
f 43/43/43 174/174/174 173/173/173
f 41/41/41 40/40/40 39/39/39
f 39/39/39 42/42/42 41/41/41
f 37/37/37 36/36/36 35/35/35
f 35/35/35 38/38/38 37/37/37
f 230/230/230 34/34/34 229/229/229
f 33/33/33 31/31/31 29/29/29
f 31/31/31 33/33/33 32/32/32
f 31/31/31 32/32/32 30/30/30
f 31/31/31 30/30/30 29/29/29
f 27/27/27 26/26/26 25/25/25
f 25/25/25 28/28/28 27/27/27
f 23/23/23 22/22/22 21/21/21
f 21/21/21 24/24/24 23/23/23
f 19/19/19 18/18/18 17/17/17
f 17/17/17 20/20/20 19/19/19
f 228/228/228 16/16/16 227/227/227
f 15/15/15 13/13/13 11/11/11
f 13/13/13 15/15/15 14/14/14
f 13/13/13 14/14/14 12/12/12
f 13/13/13 12/12/12 11/11/11
f 9/9/9 8/8/8 7/7/7
f 7/7/7 10/10/10 9/9/9
f 226/226/226 6/6/6 225/225/225
f 5/5/5 3/3/3 1/1/1
f 3/3/3 5/5/5 4/4/4
f 3/3/3 4/4/4 2/2/2
f 3/3/3 2/2/2 1/1/1
