v -0.000379 0.30281 -0.030518000000000017
v -0.503966 0.30281 -1.85417648624905E-17
v -0.503966 -0.303707 1.859669027143226E-17
v -0.000379 -0.303707 -0.030517999999999983
v 0.503209 0.30281 -1.85417648624905E-17
v 0.503209 -0.303707 1.859669027143226E-17
vt 0.496863 0.500000
vt 0.496863 0.999500
vt 0.000500 0.999500
vt 0.000500 0.500000
vt 0.496863 0.000500
vt 0.000500 0.000500
vn 0.020196 6.121984856001636E-17 0.999796
vn 0.060489 6.112022354290571E-17 0.998169
vn 0.060489 6.112022354290571E-17 0.998169
vn -0.020196 6.121984856001636E-17 0.999796
vn -0.060489 6.112022354290571E-17 0.998169
vn -0.060489 6.112022354290571E-17 0.998169
g 04 [Plane01]
f 1/1/1 2/2/2 3/3/3
f 3/3/3 4/4/4 1/1/1
f 5/5/5 1/1/1 4/4/4
f 4/4/4 6/6/6 5/5/5
