v -0.392066 1 -6.123233995736766E-17
v 0.390653 1 -6.123233995736766E-17
v -0.392066 2.0049243839900938E-17 0.327429
v 0.390653 2.0049243839900938E-17 0.327429
v 0.382885 1 0.19770299999999993
v 0.382885 3.21550611464924E-17 0.525132
v 0.382885 1 -6.123233995736766E-17
v 0.452197 1 -6.123233995736766E-17
v 0.452197 1 0.19770299999999993
v 0.452198 3.21550611464924E-17 0.525132
v -0.392066 0.404551 0.24057399999999998
v 0.390653 0.404551 0.24057399999999998
v 0.382885 0.429387 0.435747
v 0.452197 0.429387 0.435747
v 0.452198 0.361103 0.24819999999999998
v 0.390653 0.652196 0.04368599999999996
v 0.382885 0.709536 0.18885499999999994
v 0.452197 0.630472 -3.86052758376015E-17
v -0.392066 0.652196 0.04368599999999996
v 0.452197 0.709536 0.18885499999999994
v 0.342129 -0.049580999999999965 0.58587
v 0.321135 3.587419101082299E-17 0.58587
v 0.342129 0.049581000000000035 0.58587
v 0.492953 0.049581000000000035 0.58587
v 0.492953 -0.049580999999999965 0.58587
v 0.342129 -0.049581 3.035960647426246E-18
v 0.321135 0 0
v 0.342129 0.049581 -3.035960647426246E-18
v 0.492953 0.049581 -3.035960647426246E-18
v 0.492953 -0.049581 3.035960647426246E-18
v -0.504863 -0.049580999999999965 0.58587
v -0.504863 0.049581000000000035 0.58587
v -0.354039 0.049581000000000035 0.58587
v -0.333045 3.587419101082299E-17 0.58587
v -0.354039 -0.049580999999999965 0.58587
v -0.504863 -0.049581 3.035960647426246E-18
v -0.504863 0.049581 -3.035960647426246E-18
v -0.354039 0.049581 -3.035960647426246E-18
v -0.333045 0 0
v -0.354039 -0.049581 3.035960647426246E-18
v -0.384297 0.429387 0.435747
v -0.384297 3.21550611464924E-17 0.525132
v -0.45361 3.21550611464924E-17 0.525132
v -0.45361 0.429387 0.435747
v -0.45361 1 0.19770299999999993
v -0.45361 0.709536 0.18885499999999994
v -0.45361 1 -6.123233995736766E-17
v -0.384297 1 0.19770299999999993
v -0.384298 1 -6.123233995736766E-17
v -0.45361 0.361103 0.24819999999999998
v -0.384297 0.709536 0.18885499999999994
v -0.45361 0.630472 -3.86052758376015E-17
v -0.392066 2.0049243839900938E-17 0.327429
v -0.392066 -0.404551 0.24057400000000004
v 0.382885 -0.429387 0.435747
v 0.382885 3.21550611464924E-17 0.525132
v 0.452198 3.21550611464924E-17 0.525132
v 0.452197 -0.429387 0.435747
v 0.452197 -1 0.19770300000000005
v 0.452197 -0.709536 0.18885500000000005
v 0.452197 -1 6.123233995736766E-17
v 0.382885 -1 0.19770300000000005
v 0.382885 -1 6.123233995736766E-17
v 0.452198 -0.361103 0.24820000000000003
v 0.390653 -1 6.123233995736766E-17
v 0.390653 -0.652196 0.043686000000000044
v -0.392066 -0.652196 0.043686000000000044
v 0.382885 -0.709536 0.18885500000000005
v 0.452197 -0.630472 3.86052758376015E-17
v 0.390653 -0.404551 0.24057400000000004
v 0.390653 2.0049243839900938E-17 0.327429
v -0.392066 -1 6.123233995736766E-17
v -0.384297 3.21550611464924E-17 0.525132
v -0.384297 -0.429387 0.435747
v -0.45361 -0.429387 0.435747
v -0.45361 3.21550611464924E-17 0.525132
v -0.45361 -1 0.19770300000000005
v -0.45361 -0.709536 0.18885500000000005
v -0.45361 -1 6.123233995736766E-17
v -0.384298 -1 6.123233995736766E-17
v -0.384297 -1 0.19770300000000005
v -0.45361 -0.361103 0.24820000000000003
v -0.384297 -0.709536 0.18885500000000005
v -0.45361 -0.630472 3.86052758376015E-17
v 0.382885 0 0
v 0.382885 3.21550611464924E-17 0.525132
v 0.382885 -1 0.5251320000000002
v 0.382885 -1 6.123233995736766E-17
v 0.452197 -1 6.123233995736766E-17
v 0.452198 -1 0.5251320000000002
v 0.452198 3.21550611464924E-17 0.525132
v 0.452198 0 0
v 0.382885 0 0
v 0.382885 3.21550611464924E-17 0.525132
v 0.382885 1 0.5251319999999999
v 0.382885 1 -6.123233995736766E-17
v 0.452197 1 -6.123233995736766E-17
v 0.452198 1 0.5251319999999999
v 0.452198 3.21550611464924E-17 0.525132
v 0.452198 0 0
v -0.45361 -1 6.123233995736766E-17
v -0.45361 -1 0.5251320000000002
v -0.45361 3.21550611464924E-17 0.525132
v -0.45361 0 0
v -0.45361 1 -6.123233995736766E-17
v -0.45361 0 0
v -0.45361 3.21550611464924E-17 0.525132
v -0.45361 1 0.5251319999999999
v -0.384298 0 0
v -0.384298 3.21550611464924E-17 0.525132
v -0.384298 -1 0.5251320000000002
v -0.384298 -1 6.123233995736766E-17
v -0.384298 0 0
v -0.384298 1 -6.123233995736766E-17
v -0.384298 1 0.5251319999999999
v -0.384298 3.21550611464924E-17 0.525132
v 0.452197 1 0.19770299999999993
v 0.382885 1 0.19770299999999993
v 0.492953 -0.049580999999999965 0.58587
v 0.342129 -0.049580999999999965 0.58587
v 0.321135 3.587419101082299E-17 0.58587
v 0.321135 3.587419101082299E-17 0.58587
v 0.321135 0 0
v -0.354039 -0.049580999999999965 0.58587
v -0.504863 -0.049580999999999965 0.58587
v -0.333045 3.587419101082299E-17 0.58587
v -0.333045 3.587419101082299E-17 0.58587
v -0.333045 0 0
v -0.384297 1 0.19770299999999993
v -0.45361 1 0.19770299999999993
v 0.382885 -1 0.19770300000000005
v 0.452197 -1 0.19770300000000005
v -0.45361 -1 0.19770300000000005
v -0.384297 -1 0.19770300000000005
v 0.492953 0.049581000000000035 0.58587
v 0.342129 0.049581000000000035 0.58587
v -0.504863 0.049581000000000035 0.58587
v -0.354039 0.049581000000000035 0.58587
v 0.492953 0.049581000000000035 0.58587
v 0.492953 0.049581 -3.035960647426246E-18
v 0.492953 -0.049581 3.035960647426246E-18
v 0.492953 -0.049581 3.035960647426246E-18
v 0.492953 -0.049580999999999965 0.58587
v 0.492953 0.049581000000000035 0.58587
v -0.504863 -0.049580999999999965 0.58587
v -0.504863 -0.049581 3.035960647426246E-18
v -0.504863 -0.049580999999999965 0.58587
v -0.504863 0.049581000000000035 0.58587
v -0.504863 0.049581 -3.035960647426246E-18
v -0.504863 0.049581000000000035 0.58587
vt 0.413576 0.005411
vt 0.413526 0.507342
vt 0.715399 0.005411
vt 0.715399 0.507342
vt 0.069053 0.028337
vt 0.347145 0.028737
vt 0.015468 0.022487
vt 0.015470 0.084344
vt 0.069061 0.078467
vt 0.347142 0.077939
vt 0.599040 0.005411
vt 0.598756 0.507342
vt 0.236805 0.028824
vt 0.236798 0.077865
vt 0.267025 0.293671
vt 0.510739 0.507342
vt 0.144298 0.025844
vt 0.267026 0.109332
vt 0.510883 0.005411
vt 0.144298 0.080611
vt 0.854493 0.632554
vt 0.860141 0.612692
vt 0.721548 0.672736
vt 0.771029 0.672736
vt 0.815809 0.625390
vt 0.853300 0.990610
vt 0.869189 0.990610
vt 0.721548 0.990610
vt 0.771029 0.990610
vt 0.802114 0.990610
vt 0.691660 0.815691
vt 0.270355 0.319733
vt 0.321223 0.319733
vt 0.649248 0.786930
vt 0.652976 0.808528
vt 0.238784 0.637608
vt 0.270355 0.637608
vt 0.321223 0.637608
vt 0.336627 0.637608
vt 0.187599 0.637608
vt 1.236805 0.028824
vt 1.347145 0.028737
vt 1.347142 0.077939
vt 1.236798 0.077865
vt 1.069061 0.078467
vt 1.144298 0.080611
vt 1.015470 0.084344
vt 1.069053 0.028337
vt 1.015468 0.022487
vt 0.019168 0.293668
vt 1.144298 0.025844
vt 0.019169 0.109329
vt 0.715399 0.005411
vt 0.599040 0.005411
vt 0.236805 0.028824
vt 0.347145 0.028737
vt 0.347142 0.077939
vt 0.236798 0.077865
vt 0.069061 0.078467
vt 0.144298 0.080611
vt 0.015470 0.084344
vt 0.069053 0.028337
vt 0.015468 0.022487
vt 0.267025 0.293671
vt 0.413526 0.507342
vt 0.510739 0.507342
vt 0.510883 0.005411
vt 0.144298 0.025844
vt 0.267026 0.109332
vt 0.598756 0.507342
vt 0.715399 0.507342
vt 0.413576 0.005411
vt 1.347145 0.028737
vt 1.236805 0.028824
vt 1.236798 0.077865
vt 1.347142 0.077939
vt 1.069061 0.078467
vt 1.144298 0.080611
vt 1.015470 0.084344
vt 1.015468 0.022487
vt 1.069053 0.028337
vt 0.019168 0.293668
vt 1.144298 0.025844
vt 0.019169 0.109329
vt 1.294910 0.974122
vt 1.294910 0.700085
vt 1.009500 0.700085
vt 1.009500 0.976444
vt 1.297872 0.985029
vt 1.297890 0.712937
vt 1.583422 0.699725
vt 1.583715 0.984993
vt 1.294910 0.974122
vt 1.294910 0.700085
vt 1.009500 0.700085
vt 1.009500 0.976444
vt 1.297872 0.985029
vt 1.297890 0.712937
vt 1.583422 0.699725
vt 1.583715 0.984993
vt 1.297872 0.985029
vt 1.297890 0.712937
vt 1.583422 0.699725
vt 1.583715 0.984993
vt 1.297872 0.985029
vt 1.583715 0.984993
vt 1.583422 0.699725
vt 1.297890 0.712937
vt 1.294910 0.974122
vt 1.294910 0.700085
vt 1.009500 0.700085
vt 1.009500 0.976444
vt 1.294910 0.974122
vt 1.009500 0.976444
vt 1.009500 0.700085
vt 1.294910 0.700085
vt 0.069061 0.078467
vt 0.069053 0.028337
vt 0.802114 0.672736
vt 0.853300 0.672736
vt 0.869189 0.672736
vt 0.705867 0.672736
vt 0.705867 0.990610
vt 0.187599 0.319733
vt 0.238784 0.319733
vt 0.336627 0.319733
vt 0.171917 0.319733
vt 0.171917 0.637608
vt 1.069053 0.028337
vt 1.069061 0.078467
vt 0.069053 0.028337
vt 0.069061 0.078467
vt 1.069061 0.078467
vt 1.069053 0.028337
vt 0.817729 0.583931
vt 0.856412 0.591094
vt 0.693579 0.774232
vt 0.654896 0.767068
vt 0.771029 0.672736
vt 0.771029 0.990610
vt 0.802114 0.990610
vt 0.802114 0.990610
vt 0.802114 0.672736
vt 0.771029 0.672736
vt 0.238784 0.319733
vt 0.238784 0.637608
vt 0.238784 0.319733
vt 0.270355 0.319733
vt 0.270355 0.637608
vt 0.270355 0.319733
vn 0 0.12462700000000006 0.992204
vn 0 0.12462700000000006 0.992204
vn 0 0.20991200000000004 0.97772
vn 0 0.20991200000000004 0.97772
vn 0 -0.030448999999999938 0.999536
vn 0 0.20380100000000007 0.979012
vn 0 1 -6.123233995736766E-17
vn 0 1 -6.123233995736766E-17
vn 0 -0.030448999999999938 0.999536
vn 0 0.20380100000000007 0.979012
vn 0 0.42738400000000004 0.90407
vn 0 0.42738400000000004 0.90407
vn 0 0.44735800000000003 0.894355
vn 0 0.44735800000000003 0.894355
vn 0 -0.677619 -0.735413
vn 0 0.38788000000000006 0.92171
vn 0 0.33910300000000004 0.940749
vn 0 -0.677619 -0.735414
vn 0 0.38788000000000006 0.92171
vn 1E-06 0.33910300000000004 0.940749
vn -0.669831 -0.647338 0.3637040000000001
vn -0.674318 0.09517800000000004 0.732281
vn -0.334916 0.869224 0.36370399999999997
vn 0.666667 0.33333300000000005 0.666667
vn 0.333333 -0.666667 0.666667
vn -0.359539 -0.93313 5.713773338441849E-17
vn -0.990185 -0.139761 8.557893064781661E-18
vn -0.719077 0.694931 -4.2552251238913464E-17
vn 0.447213 0.894427 -5.4767858131048484E-17
vn 0.894427 -0.447214 2.738395968169422E-17
vn -0.666667 -0.33333299999999993 0.666667
vn -0.333333 0.666667 0.666667
vn 0.66983 0.647339 0.36370399999999997
vn 0.674318 -0.09517799999999996 0.732281
vn 0.334915 -0.869225 0.3637040000000001
vn -0.447214 -0.894427 5.4767858131048484E-17
vn -0.894427 0.447214 -2.738395968169422E-17
vn 0.359538 0.93313 -5.713773338441849E-17
vn 0.990185 0.139763 -8.558015529461575E-18
vn 0.719076 -0.694931 4.2552251238913464E-17
vn 0 0.44735800000000003 0.894355
vn -0 0.20380100000000007 0.979012
vn -0 0.20380100000000007 0.979012
vn -0 0.44735800000000003 0.894355
vn -0 -0.030448999999999938 0.999536
vn -0 0.33910300000000004 0.940749
vn 0 1 -6.123233995736766E-17
vn -0 -0.030448999999999938 0.999536
vn 0 1 -6.123233995736766E-17
vn 0 -0.677619 -0.735414
vn -0 0.33910300000000004 0.940749
vn 0 -0.677619 -0.735414
vn 0 -0.20991199999999993 0.97772
vn 0 -0.42738399999999993 0.90407
vn 0 -0.4473579999999999 0.894355
vn 0 -0.20380099999999995 0.979012
vn 0 -0.20380099999999995 0.979012
vn 0 -0.4473579999999999 0.894355
vn 0 0.030449000000000063 0.999536
vn 1E-06 -0.33910299999999993 0.940749
vn 0 -1 6.123233995736766E-17
vn 0 0.030449000000000063 0.999536
vn 0 -1 6.123233995736766E-17
vn 0 0.677619 -0.735413
vn 0 -0.12462699999999995 0.992204
vn 0 -0.30042199999999997 0.953806
vn 0 -0.47197199999999995 0.881614
vn 0 -0.33910299999999993 0.940749
vn 0 0.677619 -0.735414
vn 0 -0.42738399999999993 0.90407
vn 0 -0.20991199999999993 0.97772
vn 0 -0.12462699999999995 0.992204
vn -0 -0.20380099999999995 0.979012
vn 0 -0.4473579999999999 0.894355
vn -0 -0.4473579999999999 0.894355
vn -0 -0.20380099999999995 0.979012
vn -0 0.030449000000000063 0.999536
vn -0 -0.33910299999999993 0.940749
vn 0 -1 6.123233995736766E-17
vn 0 -1 6.123233995736766E-17
vn -0 0.030449000000000063 0.999536
vn 0 0.677619 -0.735414
vn -0 -0.33910299999999993 0.940749
vn 0 0.677619 -0.735414
vn -1 0 0
vn -1 0 0
vn -1 0 0
vn -1 0 0
vn 1 0 -0
vn 1 0 -0
vn 1 0 -0
vn 1 0 0
vn -1 0 0
vn -1 0 0
vn -1 0 0
vn -1 0 0
vn 1 0 0
vn 1 -0 0
vn 1 0 0
vn 1 0 0
vn -1 0 0
vn -1 0 0
vn -1 0 0
vn -1 0 0
vn -1 0 0
vn -1 0 0
vn -1 0 0
vn -1 0 0
vn 1 0 0
vn 1 0 0
vn 1 0 0
vn 1 0 0
vn 1 0 0
vn 1 0 0
vn 1 0 0
vn 1 0 0
vn 0 1 -6.123233995736766E-17
vn 0 1 -6.123233995736766E-17
vn 0.333333 -0.666667 0.666667
vn -0.669831 -0.647338 0.3637040000000001
vn -0.674318 0.09517800000000004 0.732281
vn -0.674318 0.09517800000000004 0.732281
vn -0.990185 -0.139761 8.557893064781661E-18
vn 0.334915 -0.869225 0.3637040000000001
vn -0.666667 -0.33333299999999993 0.666667
vn 0.674318 -0.09517799999999996 0.732281
vn 0.674318 -0.09517799999999996 0.732281
vn 0.990185 0.139763 -8.558015529461575E-18
vn 0 1 -6.123233995736766E-17
vn 0 1 -6.123233995736766E-17
vn 0 -1 6.123233995736766E-17
vn 0 -1 6.123233995736766E-17
vn 0 -1 6.123233995736766E-17
vn 0 -1 6.123233995736766E-17
vn 0.666667 0.33333300000000005 0.666667
vn -0.334916 0.869224 0.36370399999999997
vn -0.333333 0.666667 0.666667
vn 0.66983 0.647339 0.36370399999999997
vn 0.666667 0.33333300000000005 0.666667
vn 0.447213 0.894427 -5.4767858131048484E-17
vn 0.894427 -0.447214 2.738395968169422E-17
vn 0.894427 -0.447214 2.738395968169422E-17
vn 0.333333 -0.666667 0.666667
vn 0.666667 0.33333300000000005 0.666667
vn -0.666667 -0.33333299999999993 0.666667
vn -0.447214 -0.894427 5.4767858131048484E-17
vn -0.666667 -0.33333299999999993 0.666667
vn -0.333333 0.666667 0.666667
vn -0.894427 0.447214 -2.738395968169422E-17
vn -0.333333 0.666667 0.666667
g orig_01 - Default
f 113/113/113 114/114/114 115/115/115
f 115/115/115 116/116/116 113/113/113
f 109/109/109 110/110/110 111/111/111
f 111/111/111 112/112/112 109/109/109
f 105/105/105 106/106/106 107/107/107
f 107/107/107 108/108/108 105/105/105
f 101/101/101 102/102/102 103/103/103
f 103/103/103 104/104/104 101/101/101
f 97/97/97 98/98/98 99/99/99
f 99/99/99 100/100/100 97/97/97
f 93/93/93 94/94/94 95/95/95
f 95/95/95 96/96/96 93/93/93
f 89/89/89 92/92/92 91/91/91
f 91/91/91 90/90/90 89/89/89
f 85/85/85 88/88/88 87/87/87
f 87/87/87 86/86/86 85/85/85
f 34/34/34 138/138/138 137/137/137
f 34/34/34 137/137/137 31/31/31
f 135/135/135 136/136/136 22/22/22
f 25/25/25 135/135/135 22/22/22
f 82/82/82 64/64/64 69/69/69
f 69/69/69 84/84/84 82/82/82
f 75/75/75 78/78/78 83/83/83
f 83/83/83 74/74/74 75/75/75
f 75/75/75 74/74/74 73/73/73
f 73/73/73 76/76/76 75/75/75
f 79/79/79 80/80/80 134/134/134
f 134/134/134 133/133/133 79/79/79
f 77/77/77 81/81/81 83/83/83
f 83/83/83 78/78/78 77/77/77
f 66/66/66 67/67/67 72/72/72
f 72/72/72 65/65/65 66/66/66
f 68/68/68 60/60/60 58/58/58
f 58/58/58 55/55/55 68/68/68
f 58/58/58 57/57/57 56/56/56
f 56/56/56 55/55/55 58/58/58
f 70/70/70 54/54/54 67/67/67
f 67/67/67 66/66/66 70/70/70
f 63/63/63 61/61/61 132/132/132
f 132/132/132 131/131/131 63/63/63
f 59/59/59 60/60/60 68/68/68
f 68/68/68 62/62/62 59/59/59
f 53/53/53 54/54/54 70/70/70
f 70/70/70 71/71/71 53/53/53
f 50/50/50 52/52/52 18/18/18
f 18/18/18 15/15/15 50/50/50
f 51/51/51 46/46/46 44/44/44
f 44/44/44 41/41/41 51/51/51
f 44/44/44 43/43/43 42/42/42
f 42/42/42 41/41/41 44/44/44
f 49/49/49 47/47/47 130/130/130
f 130/130/130 129/129/129 49/49/49
f 45/45/45 46/46/46 51/51/51
f 51/51/51 48/48/48 45/45/45
f 40/40/40 128/128/128 127/127/127
f 127/127/127 124/124/124 40/40/40
f 39/39/39 38/38/38 33/33/33
f 33/33/33 126/126/126 39/39/39
f 150/150/150 33/33/33 38/38/38
f 38/38/38 149/149/149 148/148/148
f 147/147/147 32/32/32 37/37/37
f 37/37/37 146/146/146 145/145/145
f 124/124/124 125/125/125 36/36/36
f 36/36/36 40/40/40 124/124/124
f 35/35/35 34/34/34 31/31/31
f 144/144/144 143/143/143 142/142/142
f 141/141/141 140/140/140 139/139/139
f 23/23/23 24/24/24 29/29/29
f 29/29/29 28/28/28 23/23/23
f 28/28/28 123/123/123 122/122/122
f 122/122/122 23/23/23 28/28/28
f 27/27/27 26/26/26 120/120/120
f 120/120/120 121/121/121 27/27/27
f 119/119/119 120/120/120 26/26/26
f 26/26/26 30/30/30 119/119/119
f 25/25/25 22/22/22 21/21/21
f 19/19/19 16/16/16 2/2/2
f 2/2/2 1/1/1 19/19/19
f 14/14/14 20/20/20 17/17/17
f 17/17/17 13/13/13 14/14/14
f 14/14/14 13/13/13 6/6/6
f 6/6/6 10/10/10 14/14/14
f 19/19/19 11/11/11 12/12/12
f 12/12/12 16/16/16 19/19/19
f 8/8/8 7/7/7 118/118/118
f 118/118/118 117/117/117 8/8/8
f 9/9/9 5/5/5 17/17/17
f 17/17/17 20/20/20 9/9/9
f 3/3/3 4/4/4 12/12/12
f 12/12/12 11/11/11 3/3/3
