v -0.979268 -0.07680099999999988 1.916809
v -0.503504 -0.05478299999999989 1.837769
v -0.91937 -0.5376059999999999 1.850891
v -0.503504 -0.45779799999999987 1.837646
v -0.17309 -0.1057999999999999 1.804321
v -0.228083 -0.44452999999999987 1.775757
v 0.259386 -0.0676069999999999 1.648605
v 0.254472 -0.3908899999999999 1.626572
v 0.317674 -0.047312999999999904 1.573044
v 0.296648 -0.3908899999999999 1.55101
v 0.381151 -0.07681499999999991 1.351364
v 0.357439 -0.39088999999999996 1.32933
v 0.461412 -0.08897699999999993 1.15239
v 0.437456 -0.39088999999999996 1.150375
v 0.511677 -0.3631539999999999 1.154175
v 0.365129 -0.30189099999999996 1.154175
v 0.457161 -0.013753999999999931 1.135681
v 0.585245 -0.11054899999999993 1.100525
v 0.603279 0.13051000000000004 1.116089
v 0.686777 -0.10709299999999992 1.064194
v 0.741157 0.16952400000000006 1.076538
v 0.75062 -0.10643499999999993 1.033615
v 0.777534 0.16952400000000006 1.039978
v 0.786997 -0.10643499999999995 0.997055
v 0.814399 0.17535200000000006 0.765198
v 0.837046 -0.09724899999999996 0.668198
v 0.393484 -0.27888299999999994 1.146118
v 0.533373 -0.29223799999999994 1.146118
v 0.500135 -0.3856939999999999 1.123718
v 0.457841 -0.4138279999999999 1.140686
v 0.515027 -0.40485199999999993 1.123718
v 0.502305 -0.43922599999999995 1.136902
v 0.571301 -0.4206599999999999 1.113525
v 0.558579 -0.46067499999999995 1.130371
v 0.602612 -0.42756799999999995 1.109619
v 0.607163 -0.47481999999999996 1.12204
v 0.655835 -0.41151599999999994 1.098755
v 0.661362 -0.46444399999999997 1.092865
v 0.711804 -0.37063799999999997 1.071136
v 0.711655 -0.46322699999999994 1.065735
v 0.758802 -0.37353699999999995 1.046112
v 0.774426 -0.37447099999999994 1.026321
v 0.722275 -0.47151599999999994 1.02507
v 0.810697 -0.3584359999999999 0.876663
v 0.744775 -0.48667199999999994 0.901413
v 0.840222 -0.34212299999999995 0.598587
v 0.756699 -0.521504 0.649338
v 0.795764 0.06926500000000003 0.743713
v 0.795764 0.17317100000000005 0.75415
v 0.958075 0.23826300000000006 0.730225
v 0.97193 0.09145200000000005 0.730225
v 1.098701 0.26822300000000004 0.721771
v 1.112556 0.12010900000000004 0.721771
v 1.239554 0.34284800000000004 0.714203
v 1.271605 0.11517700000000004 0.700142
v 1.269439 0.34284800000000004 0.681366
v 1.297584 0.11413200000000004 0.66169
v 1.39305 0.380278 0.280975
v 1.408889 0.12343200000000001 0.284882
v 1.528182 0.485625 0.00826999999999997
v 1.592528 0.134704 0.012176999999999992
v 0.769175 -0.15450399999999997 0.669434
v 0.771068 0.06282900000000004 0.755173
v 1.076873 0.04079500000000004 0.695282
v 1.042449 -0.12735899999999997 0.644409
v 1.186858 0.029613000000000042 0.659485
v 1.133758 -0.03818299999999996 0.63916
v 1.246901 0.0006720000000000388 0.633637
v 1.197739 -0.04494799999999997 0.622345
v 1.278883 -0.09332199999999996 0.574005
v 1.240707 -0.14571699999999999 0.562714
v 1.315382 -0.16501199999999996 0.530304
v 1.29231 -0.23104299999999997 0.519989
v 1.345604 -0.18843599999999996 0.51297
v 1.346593 -0.25434599999999996 0.516327
v 1.374656 -0.18098999999999998 0.491242
v 1.375646 -0.25434599999999996 0.494599
v 1.448509 -0.15398199999999998 0.284943
v 1.45194 -0.26756 0.281708
v 1.546561 -0.149191 0.219392
v 1.534001 -0.26756 0.21591200000000002
v 1.680305 -0.149191 0.11435000000000001
v 1.682881 -0.270032 0.11581500000000002
v 1.731666 -0.149191 0.014100000000000008
v 1.734242 -0.270032 0.015565000000000018
v 0.773488 -0.06957199999999995 0.68866
v 0.984193 -0.03887599999999996 0.669373
v 1.020459 -0.3166109999999999 0.596741
v 0.784119 -0.37268299999999993 0.616272
v 1.009717 -0.44539599999999996 0.589905
v 0.759705 -0.565493 0.65448
v 1.065014 -0.539634 0.564514
v 0.917786 -0.66821 0.630798
v 1.126965 -0.600165 0.566467
v 1.077698 -0.720708 0.597351
v 1.190197 -0.548713 0.544647
v 1.193421 -0.672838 0.554594
v 1.355786 -0.586478 0.510208
v 1.304943 -0.37222999999999995 0.513885
v 1.350292 -0.36551599999999995 0.505768
v 1.372723 -0.36551599999999995 0.470795
v 1.381146 -0.576156 0.4752350000000001
v 1.465122 -0.33937 0.259979
v 1.478428 -0.533439 0.26442000000000004
v 1.685875 -0.28456 0.10372900000000002
v 1.69918 -0.504821 0.09718300000000003
v 1.742546 -0.28456 0.006683000000000017
v 1.755851 -0.504821 0.0001370000000000309
vt 0.991702 0.498395
vt 0.682655 0.498283
vt 0.991618 0.006134
vt 0.681541 0.006947
vt 0.503234 0.497986
vt 0.503470 0.006800
vt 0.301854 0.498116
vt 0.301727 0.007274
vt 0.222056 0.498186
vt 0.221763 0.007271
vt 0.097251 0.498273
vt 0.096995 0.007216
vt 0.004975 0.498347
vt 0.005712 0.007194
vt 0.996965 0.007482
vt 0.996965 0.498167
vt 0.620151 0.498167
vt 0.620151 0.007482
vt 0.422735 0.498167
vt 0.422735 0.007482
vt 0.269103 0.498167
vt 0.269103 0.007482
vt 0.214754 0.498167
vt 0.214754 0.007482
vt 0.004130 0.498167
vt 0.004130 0.007482
vt 0.998318 0.500133
vt 0.998318 0.000531
vt 0.825542 0.000531
vt 0.825542 0.500133
vt 0.763318 0.000531
vt 0.763318 0.500133
vt 0.701093 0.000531
vt 0.701093 0.500133
vt 0.638869 0.000531
vt 0.638869 0.500133
vt 0.514419 0.000531
vt 0.514419 0.500133
vt 0.452195 0.000531
vt 0.389970 0.500133
vt 0.327746 0.000531
vt 0.265521 0.000531
vt 0.265521 0.500133
vt 0.141072 0.000531
vt 0.141072 0.500133
vt 0.002725 0.000531
vt 0.002725 0.500133
vt 1.000000 0.496820
vt 1.000000 0.001871
vt 0.857021 0.001871
vt 0.859110 0.496820
vt 0.749813 0.001871
vt 0.747809 0.496820
vt 0.601496 0.001871
vt 0.601496 0.496820
vt 0.555738 0.001871
vt 0.554042 0.496820
vt 0.302619 0.001871
vt 0.302619 0.496820
vt 0.003741 0.001871
vt 0.003741 0.496820
vt 0.999263 0.499521
vt 0.999263 0.000000
vt 0.833828 0.000000
vt 0.833828 0.499521
vt 0.700945 0.000000
vt 0.700945 0.499521
vt 0.634503 0.000000
vt 0.634503 0.499521
vt 0.568062 0.000000
vt 0.568062 0.499521
vt 0.482089 0.000000
vt 0.482089 0.499521
vt 0.415647 0.000000
vt 0.415647 0.499521
vt 0.349206 0.000000
vt 0.349206 0.499521
vt 0.216323 0.000000
vt 0.216323 0.499521
vt 0.149881 0.000000
vt 0.149881 0.499521
vt 0.083440 0.000000
vt 0.083440 0.499521
vt 0.002641 0.000000
vt 0.002641 0.499521
vt 0.998762 0.496586
vt 0.998762 -0.001504
vt 0.902530 -0.001504
vt 0.902530 0.496586
vt 0.744923 -0.001504
vt 0.744923 0.496586
vt 0.621338 -0.001504
vt 0.621338 0.496586
vt 0.494117 -0.001504
vt 0.494117 0.496586
vt 0.438803 -0.001504
vt 0.438803 0.496586
vt 0.328175 0.496586
vt 0.383489 -0.001504
vt 0.328175 -0.001504
vt 0.272861 -0.001504
vt 0.272861 0.496586
vt 0.184208 -0.001504
vt 0.184208 0.496586
vt 0.072823 -0.001504
vt 0.072823 0.496586
vt 0.003113 -0.001504
vt 0.003113 0.496586
vn 0.110977 -0.06743699999999994 0.991532
vn 0.132352 -0.00029999999999993926 0.991203
vn 0.057239 -0.13408099999999995 0.989316
vn 0.136782 -0.06338099999999995 0.988572
vn 0.224942 -0.08481899999999995 0.970674
vn 0.290852 -0.10743199999999994 0.950717
vn 0.501486 -0.08915799999999995 0.86056
vn 0.693127 -0.07280999999999996 0.717129
vn 0.884029 -0.07217099999999997 0.461827
vn 0.934289 -0.08452599999999998 0.346352
vn 0.947091 -0.08802499999999999 0.308658
vn 0.932639 -0.08750799999999997 0.350037
vn 0.915859 -0.08549699999999998 0.392291
vn 0.91033 -0.07494899999999997 0.407041
vn 0.077534 0.18547000000000005 0.979586
vn 0.166147 0.08434500000000006 0.982487
vn 0.230163 -0.04844899999999994 0.971945
vn 0.221306 0.0007150000000000598 0.975204
vn 0.282881 -0.08873899999999994 0.955041
vn 0.356879 -0.10406999999999994 0.928335
vn 0.488771 -0.10577299999999995 0.865976
vn 0.622079 -0.09946399999999996 0.776611
vn 0.840927 -0.054900999999999964 0.538356
vn 0.938482 -0.015214999999999979 0.344993
vn 0.989618 0.02077900000000001 0.142213
vn 0.988103 0.028296000000000012 0.15117
vn -0.004023 -0.04213699999999994 0.999104
vn 0.290376 -0.22196699999999994 0.930813
vn 0.424586 -0.09526999999999994 0.900361
vn 0.273067 0.013182000000000058 0.961905
vn 0.24319 0.24465100000000006 0.938619
vn 0.235247 0.2847950000000001 0.929274
vn 0.219906 0.30437100000000006 0.926822
vn 0.217976 0.30470200000000003 0.927169
vn 0.181173 0.2874920000000001 0.940492
vn 0.284889 0.16515800000000005 0.944225
vn 0.365263 0.057081000000000055 0.929153
vn 0.475353 -0.049400999999999945 0.878407
vn 0.470811 -0.051058999999999945 0.880755
vn 0.670258 -0.21727399999999994 0.70961
vn 0.625049 -0.16147499999999995 0.763701
vn 0.837769 -0.404073 0.367245
vn 0.865246 -0.446445 0.22811500000000004
vn 0.883956 -0.443791 0.14721300000000004
vn 0.898725 -0.419888 0.12644200000000003
vn 0.902957 -0.421564 0.08337700000000003
vn 0.912506 -0.39714 0.09804500000000002
vn 0.088425 -0.09955299999999995 0.991096
vn 0.114738 -0.04322499999999994 0.992455
vn 0.099802 0.009419000000000061 0.994963
vn 0.08683 -0.018836999999999937 0.996045
vn 0.05628 0.005281000000000061 0.998401
vn 0.081194 -0.010706999999999939 0.996641
vn 0.327611 0.008816000000000056 0.944772
vn 0.607685 0.02643800000000005 0.793738
vn 0.852065 0.07018100000000002 0.51871
vn 0.920267 0.07003900000000003 0.384971
vn 0.933731 0.07219500000000002 0.350619
vn 0.893948 0.09444300000000003 0.438107
vn 0.852883 0.10903500000000003 0.510589
vn 0.816328 0.15587600000000001 0.556158
vn 0.120804 -0.36520299999999994 0.923057
vn 0.140675 -0.34065999999999996 0.929603
vn 0.211502 -0.3224369999999999 0.92266
vn 0.313381 -0.43384399999999995 0.844732
vn 0.38416 -0.48404699999999995 0.786205
vn 0.357768 -0.516624 0.777883
vn 0.20241 -0.43291399999999997 0.878416
vn 0.235677 -0.42752499999999993 0.872742
vn 0.265847 -0.41728099999999996 0.869024
vn 0.29799 -0.34899699999999995 0.888484
vn 0.31128 -0.3022389999999999 0.900975
vn 0.251774 -0.15619699999999995 0.955098
vn 0.346662 -0.05308099999999995 0.936487
vn 0.440405 0.05052800000000006 0.896376
vn 0.737308 0.04255700000000004 0.674215
vn 0.858804 0.031792000000000036 0.511317
vn 0.850389 0.014039000000000032 0.525968
vn 0.736787 -0.026739999999999958 0.675596
vn 0.598993 -0.06147099999999995 0.798392
vn 0.600029 -0.05187599999999995 0.798295
vn 0.706066 -0.014325999999999957 0.708001
vn 0.80173 0.02433400000000004 0.597191
vn 0.889728 0.02449700000000003 0.455834
vn 0.889728 0.02449700000000003 0.455834
vn 0.121462 -0.22653199999999996 0.966401
vn 0.128291 -0.23034099999999993 0.964616
vn 0.11629 -0.14806299999999994 0.982117
vn 0.132278 -0.08885699999999995 0.987222
vn 0.186372 0.00759600000000006 0.98245
vn 0.242287 0.09086000000000005 0.965941
vn 0.256973 0.11639900000000006 0.959383
vn 0.240822 0.19261100000000006 0.951265
vn 0.219016 0.18595300000000006 0.957838
vn 0.253806 0.13184800000000005 0.958227
vn 0.236603 0.09208000000000005 0.967233
vn 0.268202 0.08387000000000006 0.959705
vn 0.483211 0.04670600000000005 0.874257
vn 0.191773 0.028671000000000058 0.98102
vn 0.553626 0.030487000000000052 0.832208
vn 0.855845 0.04065400000000004 0.515633
vn 0.876049 0.054006000000000026 0.479189
vn 0.819208 0.05998700000000003 0.570351
vn 0.709825 0.04866900000000004 0.702695
vn 0.691098 0.03655800000000004 0.721836
vn 0.789912 0.02951300000000004 0.61251
vn 0.862946 0.037152000000000025 0.503928
vn 0.862946 0.037152000000000025 0.503928
g water
f 106/106/106 108/108/108 107/107/107
f 107/107/107 105/105/105 106/106/106
f 104/104/104 106/106/106 105/105/105
f 105/105/105 103/103/103 104/104/104
f 102/102/102 104/104/104 103/103/103
f 103/103/103 101/101/101 102/102/102
f 98/98/98 102/102/102 101/101/101
f 101/101/101 100/100/100 98/98/98
f 98/98/98 100/100/100 99/99/99
f 99/99/99 96/96/96 98/98/98
f 97/97/97 98/98/98 96/96/96
f 95/95/95 97/97/97 96/96/96
f 96/96/96 94/94/94 95/95/95
f 93/93/93 95/95/95 94/94/94
f 94/94/94 92/92/92 93/93/93
f 91/91/91 93/93/93 92/92/92
f 92/92/92 90/90/90 91/91/91
f 89/89/89 91/91/91 90/90/90
f 90/90/90 88/88/88 89/89/89
f 87/87/87 86/86/86 89/89/89
f 89/89/89 88/88/88 87/87/87
f 83/83/83 85/85/85 84/84/84
f 84/84/84 82/82/82 83/83/83
f 81/81/81 83/83/83 82/82/82
f 82/82/82 80/80/80 81/81/81
f 79/79/79 81/81/81 80/80/80
f 80/80/80 78/78/78 79/79/79
f 77/77/77 79/79/79 78/78/78
f 78/78/78 76/76/76 77/77/77
f 75/75/75 77/77/77 76/76/76
f 76/76/76 74/74/74 75/75/75
f 73/73/73 75/75/75 74/74/74
f 74/74/74 72/72/72 73/73/73
f 71/71/71 73/73/73 72/72/72
f 72/72/72 70/70/70 71/71/71
f 69/69/69 71/71/71 70/70/70
f 70/70/70 68/68/68 69/69/69
f 67/67/67 69/69/69 68/68/68
f 68/68/68 66/66/66 67/67/67
f 65/65/65 67/67/67 66/66/66
f 66/66/66 64/64/64 65/65/65
f 63/63/63 62/62/62 65/65/65
f 65/65/65 64/64/64 63/63/63
f 59/59/59 61/61/61 60/60/60
f 60/60/60 58/58/58 59/59/59
f 57/57/57 59/59/59 58/58/58
f 58/58/58 56/56/56 57/57/57
f 55/55/55 57/57/57 56/56/56
f 56/56/56 54/54/54 55/55/55
f 53/53/53 55/55/55 54/54/54
f 54/54/54 52/52/52 53/53/53
f 51/51/51 53/53/53 52/52/52
f 52/52/52 50/50/50 51/51/51
f 49/49/49 48/48/48 51/51/51
f 51/51/51 50/50/50 49/49/49
f 45/45/45 47/47/47 46/46/46
f 46/46/46 44/44/44 45/45/45
f 43/43/43 45/45/45 44/44/44
f 44/44/44 42/42/42 43/43/43
f 40/40/40 43/43/43 42/42/42
f 42/42/42 41/41/41 40/40/40
f 40/40/40 41/41/41 39/39/39
f 38/38/38 40/40/40 39/39/39
f 39/39/39 37/37/37 38/38/38
f 36/36/36 38/38/38 37/37/37
f 37/37/37 35/35/35 36/36/36
f 34/34/34 36/36/36 35/35/35
f 35/35/35 33/33/33 34/34/34
f 32/32/32 34/34/34 33/33/33
f 33/33/33 31/31/31 32/32/32
f 30/30/30 32/32/32 31/31/31
f 31/31/31 29/29/29 30/30/30
f 28/28/28 27/27/27 30/30/30
f 30/30/30 29/29/29 28/28/28
f 24/24/24 26/26/26 25/25/25
f 25/25/25 23/23/23 24/24/24
f 22/22/22 24/24/24 23/23/23
f 23/23/23 21/21/21 22/22/22
f 20/20/20 22/22/22 21/21/21
f 21/21/21 19/19/19 20/20/20
f 18/18/18 20/20/20 19/19/19
f 19/19/19 17/17/17 18/18/18
f 16/16/16 15/15/15 18/18/18
f 18/18/18 17/17/17 16/16/16
f 13/13/13 11/11/11 12/12/12
f 12/12/12 14/14/14 13/13/13
f 11/11/11 9/9/9 10/10/10
f 10/10/10 12/12/12 11/11/11
f 9/9/9 7/7/7 8/8/8
f 8/8/8 10/10/10 9/9/9
f 7/7/7 5/5/5 6/6/6
f 6/6/6 8/8/8 7/7/7
f 5/5/5 2/2/2 4/4/4
f 4/4/4 6/6/6 5/5/5
f 4/4/4 2/2/2 1/1/1
f 1/1/1 3/3/3 4/4/4
