v 1.209045 -1.11332 0.001142000000000068
v 1.566498 -0.864967 5.2963953395904435E-17
v 1.741864 -0.548162 3.356524193571057E-17
v 1.717704 -0.132039 8.085056935630868E-18
v 1.515922 0.252856 -1.5482964552260158E-17
v 1.473615 0.52906 -3.239558177784493E-17
v 1.324237 1.157157 -7.08554308080477E-17
v 0.863569 1.319531 -8.07979707762853E-17
v 0.178687 1.377455 -8.434479283597588E-17
v 0.024479 0.925844 -5.669159455548911E-17
v -0.382712 0.360721 -2.208779090176162E-17
v -0.15176 -0.550153 3.368715552456569E-17
v -0.072835 -1.052994 6.44772865810684E-17
v 0.294433 -1.336633 8.18451662542362E-17
v 0.960746 -1.233077 7.550419005761105E-17
v -0.305968 -1.178003 0.5924970000000002
v 0.138752 -1.342747 0.5924970000000002
v 0.817552 -0.957705 0.6770110000000001
v 1.353917 -0.611174 0.49575600000000003
v 1.342902 -0.19260699999999997 0.495756
v 1.247133 0.17683000000000004 0.701209
v 1.236118 0.49626300000000007 0.699094
v 1.01582 0.969904 0.5924969999999999
v 0.586239 1.157157 0.5924969999999999
v 0.211732 1.146142 0.5924969999999999
v -0.17379 1.069038 0.5924969999999999
v -0.581341 0.18784500000000004 0.592497
v -0.515252 -0.517109 0.592497
v 0.23376 -0.9356769999999999 1.002911
v 0.564207 -0.7153789999999999 1.11699
v 0.784506 -0.31884299999999993 1.021073
v 0.718416 0.03363400000000006 1.021073
v 0.79552 0.6394540000000001 1.174468
v 0.564207 0.8707670000000001 1.11699
v 0.112596 1.035991 1.11699
v -0.779611 0.6724990000000001 1.11699
v -0.977879 0.0005900000000000684 1.11699
v -0.702507 -0.9907519999999999 1.11699
v -0.322754 -1.296562 1.11699
v -0.818783 -1.212265 1.74928
v -0.194256 -0.9223719999999999 1.749279
v 0.114385 -0.6868959999999998 1.749279
v 0.212154 -0.4030989999999999 1.610321
v 0.251859 -0.038585999999999905 1.634221
v 0.351869 0.36594700000000013 1.74928
v 0.239139 0.6781210000000001 1.74928
v 0.005009 0.8168650000000001 1.74928
v -0.315836 0.7735070000000001 1.822766
v -0.879484 0.9382660000000002 1.74928
v -1.142006 0.5450340000000001 1.74928
v -1.209001 -0.28441499999999986 1.596684
v -1.0876 -1.038836 1.74928
v -0.76241 0.36827300000000013 2.084073
v -0.691211 -0.05440199999999989 1.811713
v -0.713146 -0.3250119999999999 1.800308
v -0.710233 -0.4369049999999999 1.837818
v -0.804575 -0.6854709999999999 1.917276
v -0.730174 -0.9994859999999999 1.869395
v -0.801174 0.5570020000000001 2.007226
v -0.62497 0.4929900000000001 2.045962
v -0.203259 -0.048266999999999886 1.814109
v -0.178534 -0.3687809999999999 1.712615
v -0.321499 -0.5557539999999999 1.860623
v -0.563455 -0.8028139999999999 1.948367
v -1.006804 0.5646310000000001 1.891882
v -1.070734 -0.2957349999999999 1.807441
v -1.071176 -0.4508369999999999 1.74285
v -0.169848 -0.9687879999999999 1.284548
v 0.150363 -0.7622609999999999 1.243593
v 0.316216 -0.6941159999999998 1.15886
v 0.479191 -0.5799309999999999 1.176689
v 0.382876 -0.37539999999999996 1.135445
v 0.43402 -0.003980999999999932 1.123469
v 0.416521 0.4324160000000001 1.244719
v 0.308358 0.7096390000000001 1.253414
v 0.00417 0.8669810000000001 1.234363
v -0.099161 0.9062560000000001 1.223534
v 0.034321 0.5597750000000001 1.859953
v -0.263231 0.8828760000000001 1.11699
v -0.016926 0.996083 0.7495129999999999
v 0.171852 1.031454 0.7633589999999999
v 0.510891 0.962967 0.7467359999999998
v 0.684472 0.867639 0.745213
v 0.813341 0.74152 0.765769
v 0.886512 0.518447 0.765335
v 0.7545 0.05710100000000005 0.736889
v 0.83249 -0.3053449999999999 0.575889
v 0.612895 -0.777396 0.715312
v 0.163387 -1.088153 0.7306550000000002
v -0.091441 -1.252502 1.11699
v -0.028304 -1.187279 0.7350600000000002
v -0.313469 -1.23098 0.8268610000000001
v 1.324044 0.517652 0.30486599999999997
v 1.36665 0.21988700000000003 0.261633
v 1.400825 0.03854200000000002 0.340711
v 1.437755 -0.19144699999999998 0.266081
v 1.474463 -0.586535 0.25226600000000005
v 1.389153 -0.758846 0.23557500000000006
v 1.23842 -0.868852 0.25671200000000005
v 0.903368 -1.083644 0.21438500000000005
v 1.441567 0.531077 0.12433399999999997
v 1.47512 0.242019 0.09156599999999998
v 1.672854 -0.139573 0.09753100000000002
v 1.692228 -0.555672 0.08800300000000003
v 1.512724 -0.868425 0.09308800000000006
v 0.579712 -1.242874 0.28680100000000003
v 0.181954 -1.377455 0.3455720000000001
v -0.125968 -1.118896 0.31235300000000005
v 0.614509 -1.217455 -0.11309799999999993
v 0.600782 -1.209357 0.10785500000000008
v 0.477694 -1.201221 0.6851890000000002
v 0.338983 -0.966759 0.7246610000000001
v 0.795772 1.30383 0.2167999999999999
v 1.204422 1.084412 0.23017499999999994
v 0.874119 1.243718 -0.2203150000000001
v 0.826158 0.953253 -0.22031500000000007
v 0.755318 0.596065 -0.22031500000000004
v 0.718684 0.10233199999999999 -0.220315
v 0.735898 -0.11781500000000002 -0.220315
v 0.686613 -0.703757 -0.22031499999999996
v 0.623609 -1.085769 -0.21969499999999995
v 0.1033 -0.596884 -0.30632899999999996
v 0.089866 0.15855399999999997 -0.332379
v 0.089685 0.24989599999999998 -0.333797
v 0.179663 0.85582 -0.28608300000000003
v -0.263938 -0.533612 0.29657800000000006
v -0.391201 0.292608 0.23344199999999998
v -0.226014 0.535706 0.31321899999999997
v -0.080601 1.001734 0.31401399999999996
v -0.835514 -0.792291 0.823311
v -0.628486 -0.914877 0.7862430000000001
v -1.010688 0.08495800000000006 0.806767
v -0.897948 0.44484500000000005 0.79671
v -0.711518 0.855486 0.801046
v -0.209947 0.993781 0.8045249999999999
v -0.898601 -0.6402959999999999 1.828754
v 0.773054 -0.32116999999999996 1.075098
v 0.631079 -0.45109799999999994 1.074753
v 0.519222 -0.39574299999999996 1.178237
v 0.583018 -0.10090799999999993 1.110479
v 0.547425 -0.26350999999999997 1.185217
v 0.500629 -0.28310899999999994 1.055876
v 0.547892 -0.11561899999999994 1.013396
v 0.681774 -0.09837699999999995 0.962343
v 0.698006 -0.11178899999999993 1.070524
v 0.484096 -0.41045399999999993 1.081154
v 0.737929 -0.33588099999999993 0.978015
v 0.754435 -0.22673599999999994 1.104747
v 0.707638 -0.24633499999999994 0.975406
v 1.120788 -0.641382 0.582938
v 1.006026 -0.531151 0.593828
v 0.948375 -0.31484399999999996 0.631375
v 0.93711 -0.545886 0.48024400000000006
v 0.87443 -0.32940699999999995 0.498734
v 0.969969 -0.05573899999999997 0.475989
v 1.033816 -0.08534799999999995 0.668221
v 1.083287 -0.640102 0.4408230000000001
v 1.271088 -0.45383299999999993 0.602292
v 1.240699 -0.479403 0.40073500000000006
v 1.343667 -0.3163869999999999 0.584379
v 1.33325 -0.314802 0.377796
v 1.187352 -0.01599899999999996 0.628331
v 1.176934 -0.014413999999999974 0.421749
v 0.112596 1.035991 1.11699
v -0.099161 0.9062560000000001 1.223534
v -1.0876 -1.038836 1.74928
v -0.818783 -1.212265 1.74928
v -1.209001 -0.28441499999999986 1.596684
v 0.586239 1.157157 0.5924969999999999
v 0.795772 1.30383 0.2167999999999999
v -0.091441 -1.252502 1.11699
v 0.171852 1.031454 0.7633589999999999
v -1.142006 0.5450340000000001 1.74928
v -0.879484 0.9382660000000002 1.74928
v 0.510891 0.962967 0.7467359999999998
v -0.028304 -1.187279 0.7350600000000002
v 0.138752 -1.342747 0.5924970000000002
v 1.209045 -1.11332 0.001142000000000068
v 0.960746 -1.233077 7.550419005761105E-17
v 0.614509 -1.217455 -0.11309799999999993
v 1.324237 1.157157 -7.08554308080477E-17
v 1.473615 0.52906 -3.239558177784493E-17
v 1.515922 0.252856 -1.5482964552260158E-17
v 1.717704 -0.132039 8.085056935630868E-18
v 1.741864 -0.548162 3.356524193571057E-17
v 1.566498 -0.864967 5.2963953395904435E-17
v 0.181954 -1.377455 0.3455720000000001
v 0.294433 -1.336633 8.18451662542362E-17
v 0.863569 1.319531 -8.07979707762853E-17
v 0.519222 -0.39574299999999996 1.178237
v 0.519222 -0.39574299999999996 1.178237
v 0.631079 -0.45109799999999994 1.074753
v 0.484096 -0.41045399999999993 1.081154
v 0.773054 -0.32116999999999996 1.075098
v 0.698006 -0.11178899999999993 1.070524
v 0.681774 -0.09837699999999995 0.962343
v 0.698006 -0.11178899999999993 1.070524
v 0.754435 -0.22673599999999994 1.104747
v 0.547425 -0.26350999999999997 1.185217
v 0.583018 -0.10090799999999993 1.110479
v 0.948375 -0.31484399999999996 0.631375
v 1.006026 -0.531151 0.593828
v 1.120788 -0.641382 0.582938
v 1.120788 -0.641382 0.582938
v 1.083287 -0.640102 0.4408230000000001
v 1.187352 -0.01599899999999996 0.628331
v 1.176934 -0.014413999999999974 0.421749
v 1.033816 -0.08534799999999995 0.668221
v 1.271088 -0.45383299999999993 0.602292
v 1.187352 -0.01599899999999996 0.628331
v 1.343667 -0.3163869999999999 0.584379
v 0.178687 1.377455 -8.434479283597588E-17
vt 0.490851 0.868329
vt 0.516639 0.934844
vt 0.553422 0.974239
vt 0.616244 0.988303
vt 0.691213 0.977421
vt 0.742096 0.985582
vt 0.845850 0.981870
vt 0.903678 0.909326
vt 0.908890 0.805018
vt 0.863430 0.764457
vt 0.796097 0.694724
vt 0.654575 0.680946
vt 0.579883 0.674948
vt 0.068272 0.192298
vt 0.479430 0.821230
vt 0.598472 0.589803
vt 0.530996 0.620354
vt 0.213167 0.200045
vt 0.321945 0.125919
vt 0.402962 0.151782
vt 0.470681 0.198617
vt 0.533959 0.225375
vt 0.620590 0.280492
vt 0.644038 0.369492
vt 0.949254 0.756984
vt 0.920764 0.701533
vt 0.806328 0.615593
vt 0.700208 0.588682
vt 0.156967 0.331943
vt 0.235513 0.305727
vt 0.327388 0.295049
vt 0.397280 0.324745
vt 0.517399 0.355692
vt 0.546607 0.400152
vt 0.984975 0.688573
vt 0.911714 0.561806
vt 0.824439 0.502323
vt 0.670700 0.489793
vt 0.594894 0.519977
vt 0.653971 0.409094
vt 0.130505 0.476529
vt 0.197559 0.440746
vt 0.260420 0.431773
vt 0.341089 0.447772
vt 0.425666 0.473032
vt 0.474471 0.507226
vt 0.487774 0.549464
vt 0.466830 0.608822
vt 0.988919 0.501283
vt 0.940767 0.455106
vt 0.821318 0.420274
vt 0.707342 0.386858
vt 0.342902 0.677224
vt 0.262393 0.632984
vt 0.203746 0.615001
vt 0.178263 0.607008
vt 0.118743 0.605811
vt 0.058125 0.570769
vt 0.379902 0.692065
vt 0.378202 0.662802
vt 0.305976 0.545037
vt 0.237976 0.517593
vt 0.184895 0.532481
vt 0.112417 0.560959
vt 0.364379 0.721956
vt 0.184495 0.677144
vt 0.143598 0.666406
vt 0.105253 0.422036
vt 0.178351 0.376947
vt 0.217895 0.356807
vt 0.250692 0.336759
vt 0.291575 0.352651
vt 0.371355 0.377902
vt 0.462457 0.412306
vt 0.514553 0.450946
vt 0.545511 0.519478
vt 0.548762 0.555863
vt 0.441583 0.538411
vt 0.958818 0.634770
vt 0.940255 0.704212
vt 0.949972 0.734041
vt 0.593843 0.388459
vt 0.587393 0.349421
vt 0.567043 0.317872
vt 0.521806 0.290928
vt 0.417288 0.275854
vt 0.342371 0.243928
vt 0.220849 0.249888
vt 0.111855 0.307588
vt 0.067837 0.381648
vt 0.557435 0.587569
vt 0.598331 0.558144
vt 0.560907 0.173643
vt 0.505035 0.138040
vt 0.463618 0.128815
vt 0.419075 0.099974
vt 0.337542 0.068935
vt 0.292844 0.069876
vt 0.256203 0.091733
vt 0.185766 0.130280
vt 0.573912 0.137437
vt 0.518887 0.106084
vt 0.445711 0.053482
vt 0.361647 0.021900
vt 0.283641 0.031551
vt 0.130552 0.188293
vt 0.521032 0.650290
vt 0.580977 0.637308
vt 0.502855 0.763383
vt 0.130419 0.164274
vt 0.135040 0.245703
vt 0.154667 0.285971
vt 0.701333 0.308570
vt 0.664256 0.226164
vt 0.878797 0.910663
vt 0.837306 0.903082
vt 0.784892 0.879542
vt 0.710986 0.850136
vt 0.669893 0.837932
vt 0.583260 0.804424
vt 0.527736 0.776705
vt 0.630852 0.730373
vt 0.739955 0.760715
vt 0.757117 0.769203
vt 0.837893 0.801879
vt 0.671437 0.643818
vt 0.795496 0.670708
vt 0.837491 0.690422
vt 0.895674 0.729984
vt 0.697416 0.519160
vt 0.665746 0.536882
vt 0.820081 0.537889
vt 0.861214 0.568461
vt 0.901207 0.613879
vt 0.937248 0.674504
vt 0.125904 0.640709
vt 0.084490 0.822866
vt 0.189841 0.814693
vt 0.222672 0.749168
vt 0.878658 0.126922
vt 0.789525 0.111298
vt 0.789525 0.159967
vt 0.878658 0.163453
vt 0.924805 0.158232
vt 0.906699 0.121589
vt 0.727316 0.156478
vt 0.164689 0.984581
vt 0.114038 0.929132
vt 0.111336 0.982575
vt 0.708296 0.372903
vt 0.756322 0.388211
vt 0.823083 0.374950
vt 0.966020 0.413008
vt 0.977689 0.368700
vt 0.980532 0.308349
vt 0.931463 0.308205
vt 0.946954 0.448473
vt 0.805578 0.251778
vt 0.792292 0.204535
vt 0.841062 0.243111
vt 0.835943 0.193711
vt 0.920149 0.245746
vt 0.915102 0.196475
vt 0.574518 0.493852
vt 0.980683 0.645768
vt 0.020235 0.625170
vt 0.005879 0.551916
vt 0.167964 0.706267
vt 0.971728 0.809284
vt 0.938567 0.884193
vt 0.562579 0.539046
vt 0.609883 0.449058
vt 0.347724 0.738627
vt 0.446724 0.723939
vt 0.983898 0.762981
vt 0.069352 0.325509
vt 0.067852 0.275104
vt 0.205175 0.054802
vt 0.159774 0.090980
vt 0.110810 0.141749
vt 0.691323 0.192456
vt 0.582156 0.118058
vt 0.526916 0.090375
vt 0.452709 0.037266
vt 0.368962 0.005493
vt 0.289202 0.012796
vt 0.062391 0.240204
vt 0.511124 0.702116
vt 0.725416 0.277656
vt 0.727316 0.119946
vt 0.321406 0.932297
vt 0.253508 0.966514
vt 0.328599 0.973376
vt 0.164119 0.944796
vt 0.040695 0.937660
vt 0.025262 0.979276
vt 0.016684 0.730428
vt 0.054557 0.783583
vt 0.156377 0.716512
vt 0.059108 0.684044
vt 0.941710 0.359459
vt 0.933925 0.405428
vt 0.914277 0.435211
vt 0.747309 0.254720
vt 0.737800 0.221064
vt 0.927521 0.268170
vt 0.974758 0.257095
vt 0.869053 0.323286
vt 0.731739 0.309932
vt 0.858823 0.273255
vt 0.753643 0.272184
vt 0.908890 0.805018
vn 0.508933 -0.836923 -0.20136499999999993
vn 0.766239 -0.624228 -0.15236899999999998
vn 0.849594 -0.11697900000000003 -0.514302
vn 0.900705 0.255053 -0.351678
vn 0.939031 0.26578 -0.21813100000000002
vn 0.747784 0.10242999999999995 -0.655993
vn 0.803227 0.579356 0.13846599999999998
vn 0.262147 0.964748 0.023233999999999942
vn -0.406456 0.870774 -0.27666900000000005
vn -0.853439 0.386424 -0.34974
vn -0.838011 0.12715999999999997 -0.53063
vn -0.885009 -0.16533000000000003 -0.435229
vn -0.560084 -0.47455800000000004 -0.679044
vn 0.087111 -0.955088 -0.2832279999999999
vn 0.173771 -0.970003 0.16999600000000006
vn -0.636386 -0.717518 -0.28316199999999997
vn -0.068392 -0.930194 0.36064100000000004
vn 0.506932 -0.645766 0.570969
vn 0.598879 -0.17904999999999993 0.780567
vn 0.780864 -0.043669999999999966 0.623173
vn 0.695553 -0.07001299999999996 0.715055
vn 0.656111 0.16404900000000006 0.736618
vn 0.493032 0.551129 0.673184
vn 0.113285 0.808186 0.577929
vn -0.119414 0.873978 0.47106499999999996
vn -0.600023 0.774284 -0.20113900000000007
vn -0.703049 0.16011499999999995 -0.692881
vn -0.635639 -0.22728000000000007 -0.737772
vn 0.536105 -0.68913 0.4875360000000001
vn 0.622016 -0.537157 0.5697
vn 0.75734 0.02010000000000004 0.652712
vn 0.736255 -0.09063799999999995 0.670606
vn 0.846385 0.24759500000000004 0.471519
vn 0.395058 0.756451 0.521259
vn -0.028759 0.887066 0.46074599999999993
vn -0.830035 0.553853 -0.06549300000000002
vn -0.989005 -0.001388000000000009 -0.147874
vn -0.819948 -0.4824 -0.3081809999999999
vn -0.337324 -0.915482 -0.21932799999999994
vn 0.15111 -0.851303 0.502444
vn 0.451539 -0.670135 0.589094
vn 0.647663 -0.17766999999999994 0.740922
vn 0.757524 -0.18742299999999998 0.625324
vn 0.71855 -0.22715199999999997 0.657334
vn 0.783742 -0.056142999999999964 0.618544
vn 0.688154 0.595931 0.41389699999999996
vn 0.233 0.810979 0.536678
vn 0.163495 0.680942 0.713854
vn -0.367148 0.89137 0.26582199999999995
vn -0.956685 0.266364 0.11748999999999998
vn -0.991952 -0.109193 0.064092
vn -0.777746 -0.476054 0.4104670000000001
vn -0.075045 -0.07410699999999995 0.994423
vn 0.188883 -0.28798499999999994 0.938823
vn 0.07259 0.14047200000000007 0.98742
vn -0.130333 0.22558800000000007 0.965465
vn -0.40943 0.06979500000000005 0.909668
vn -0.185288 -0.3671559999999999 0.911518
vn -0.180128 0.46206500000000006 0.868361
vn 0.249488 0.055494000000000064 0.966786
vn 0.197666 -0.18748499999999996 0.962173
vn 0.270394 0.11896600000000006 0.955371
vn 0.215058 0.21472900000000006 0.952702
vn 0.120505 -0.06134199999999994 0.990816
vn -0.608668 0.22996200000000006 0.759369
vn -0.437854 -0.12835799999999994 0.889836
vn -0.533174 -0.07730599999999994 0.842466
vn 0.573411 -0.653894 0.49358100000000005
vn 0.653453 -0.661033 0.3688290000000001
vn 0.372307 -0.593941 0.713177
vn 0.525272 -0.08201399999999995 0.846973
vn 0.766567 0.11204100000000004 0.632314
vn 0.755324 -0.11924099999999996 0.644412
vn 0.727118 0.11559500000000004 0.67671
vn 0.522498 0.556055 0.646373
vn 0.27516 0.873236 0.40217699999999995
vn 0.052803 0.935509 0.34933499999999995
vn 0.191627 0.16307300000000005 0.967826
vn -0.247904 0.959605 0.13304699999999994
vn -0.129888 0.946137 0.29656999999999994
vn 0.055591 0.931676 0.35901299999999997
vn 0.294017 0.753922 0.587499
vn 0.525171 0.707501 0.47290299999999996
vn 0.59099 0.44660600000000006 0.671769
vn 0.732172 -0.0024479999999999585 0.681116
vn 0.807495 -0.09250399999999996 0.582577
vn 0.684065 -0.24176799999999996 0.688188
vn 0.507694 -0.3884389999999999 0.769001
vn 0.430532 -0.695308 0.57549
vn 0.518637 -0.795117 0.31433300000000003
vn 0.149155 -0.982476 0.11177800000000006
vn -0.428531 -0.823588 -0.3715689999999999
vn 0.873967 0.22914100000000004 0.428575
vn 0.902798 0.15111400000000003 0.402641
vn 0.850361 0.16923800000000003 0.498242
vn 0.763331 -0.0030259999999999606 0.646
vn 0.779995 -0.17431999999999997 0.601016
vn 0.621095 -0.547574 0.560718
vn 0.460634 -0.694629 0.552545
vn 0.345697 -0.87406 0.34134000000000003
vn 0.896449 0.13012100000000001 0.423612
vn 0.827693 0.26243900000000003 0.496035
vn 0.80002 0.18244900000000003 0.571559
vn 0.743967 -0.20712199999999997 0.635306
vn 0.576733 -0.539327 0.613601
vn 0.417744 -0.903516 0.09564700000000005
vn -0.269514 -0.959376 -0.08342199999999994
vn -0.777686 -0.544444 -0.31430099999999994
vn 0.112607 -0.888091 -0.4456609999999999
vn 0.392909 -0.919038 -0.03148399999999994
vn 0.25251 -0.533346 0.807329
vn 0.411717 -0.560052 0.71891
vn 0.263546 0.905644 0.33219199999999993
vn 0.607993 0.651545 0.45368899999999995
vn 0.216504 0.532547 -0.818242
vn 0.085276 0.08707099999999994 -0.992546
vn 0.213273 -0.0013820000000000598 -0.976992
vn 0.211362 0.01763199999999994 -0.977249
vn 0.181351 -0.00591000000000006 -0.983401
vn 0.122516 -0.15168400000000007 -0.980807
vn 0.01019 -0.35068900000000003 -0.936436
vn -0.308787 -0.17827300000000004 -0.934275
vn -0.289477 -0.04515700000000006 -0.956119
vn -0.294061 0.10453399999999995 -0.950053
vn -0.369399 0.23255799999999993 -0.899701
vn -0.845618 -0.18176600000000004 -0.501888
vn -0.958159 0.219439 -0.183788
vn -0.853574 0.427366 -0.297942
vn -0.884553 0.289269 -0.36591
vn -0.788697 -0.486651 -0.37566999999999995
vn -0.506308 -0.604292 -0.61521
vn -0.907039 0.07795099999999998 -0.413768
vn -0.782857 0.30386299999999994 -0.542957
vn -0.546963 0.834509 0.06652499999999995
vn -0.086752 0.943417 0.32005999999999996
vn -0.47552 0.06906900000000006 0.876989
vn 0.956695 -0.234433 0.17255800000000002
vn 0.34418 -0.883064 0.3189640000000001
vn -0.032545 -0.4745579999999999 0.879623
vn -0.433761 0.821723 0.36962399999999995
vn -0.491971 0.30797700000000006 0.814319
vn -0.915819 0.278722 0.289118
vn -0.623449 0.774336 0.10823599999999996
vn 0.570498 0.810307 -0.13392100000000007
vn 0.524114 0.683408 0.50819
vn -0.898331 -0.24802499999999997 0.36261
vn 0.917644 -0.270644 -0.291001
vn 0.901016 0.22454400000000002 0.371147
vn 0.901582 0.23675199999999996 -0.362076
vn 0.213897 -0.705095 0.676083
vn -0.582731 -0.596022 0.552433
vn -0.70552 -0.05263399999999996 0.706733
vn -0.718893 -0.4982809999999999 0.48467400000000005
vn -0.874393 0.02748200000000003 0.484439
vn -0.637991 0.712283 0.2926099999999999
vn -0.193428 0.23027800000000007 0.953707
vn -0.181341 -0.971875 0.15024900000000005
vn 0.779351 -0.480632 0.40200100000000005
vn 0.782442 -0.614977 -0.09791499999999996
vn 0.896668 0.13066300000000003 0.422983
vn 0.98065 -0.186862 -0.05838199999999999
vn 0.216347 0.895389 0.38919499999999996
vn 0.635563 0.771607 -0.026132000000000048
vn -0.028759 0.887066 0.46074599999999993
vn 0.052803 0.935509 0.34933499999999995
vn -0.777746 -0.476054 0.4104670000000001
vn 0.15111 -0.851303 0.502444
vn -0.991952 -0.109193 0.064092
vn 0.113285 0.808186 0.577929
vn 0.263546 0.905644 0.33219199999999993
vn 0.518637 -0.795117 0.31433300000000003
vn 0.055591 0.931676 0.35901299999999997
vn -0.956685 0.266364 0.11748999999999998
vn -0.367148 0.89137 0.26582199999999995
vn 0.294017 0.753922 0.587499
vn 0.149155 -0.982476 0.11177800000000006
vn -0.068392 -0.930194 0.36064100000000004
vn 0.508933 -0.836923 -0.20136499999999993
vn 0.173771 -0.970003 0.16999600000000006
vn 0.112607 -0.888091 -0.4456609999999999
vn 0.803227 0.579356 0.13846599999999998
vn 0.747784 0.10242999999999995 -0.655993
vn 0.939031 0.26578 -0.21813100000000002
vn 0.900705 0.255053 -0.351678
vn 0.849594 -0.11697900000000003 -0.514302
vn 0.766239 -0.624228 -0.15236899999999998
vn -0.269514 -0.959376 -0.08342199999999994
vn 0.087111 -0.955088 -0.2832279999999999
vn 0.262147 0.964748 0.023233999999999942
vn -0.032545 -0.4745579999999999 0.879623
vn -0.032545 -0.4745579999999999 0.879623
vn 0.34418 -0.883064 0.3189640000000001
vn -0.898331 -0.24802499999999997 0.36261
vn 0.956695 -0.234433 0.17255800000000002
vn 0.524114 0.683408 0.50819
vn 0.570498 0.810307 -0.13392100000000007
vn 0.524114 0.683408 0.50819
vn 0.901016 0.22454400000000002 0.371147
vn -0.491971 0.30797700000000006 0.814319
vn -0.433761 0.821723 0.36962399999999995
vn -0.70552 -0.05263399999999996 0.706733
vn -0.582731 -0.596022 0.552433
vn 0.213897 -0.705095 0.676083
vn 0.213897 -0.705095 0.676083
vn -0.181341 -0.971875 0.15024900000000005
vn 0.216347 0.895389 0.38919499999999996
vn 0.635563 0.771607 -0.026132000000000048
vn -0.193428 0.23027800000000007 0.953707
vn 0.779351 -0.480632 0.40200100000000005
vn 0.216347 0.895389 0.38919499999999996
vn 0.896668 0.13066300000000003 0.422983
vn -0.406456 0.870774 -0.27666900000000005
g cascade [Line05]
f 31/31/31 72/72/72 71/71/71
f 69/69/69 70/70/70 43/43/43
f 208/208/208 209/209/209 211/211/211
f 211/211/211 210/210/210 208/208/208
f 208/208/208 152/152/152 150/150/150
f 150/150/150 209/209/209 208/208/208
f 206/206/206 207/207/207 155/155/155
f 155/155/155 156/156/156 206/206/206
f 160/160/160 161/161/161 163/163/163
f 163/163/163 162/162/162 160/160/160
f 158/158/158 159/159/159 161/161/161
f 161/161/161 160/160/160 158/158/158
f 204/204/204 205/205/205 159/159/159
f 159/159/159 158/158/158 204/204/204
f 202/202/202 153/153/153 157/157/157
f 157/157/157 203/203/203 202/202/202
f 155/155/155 154/154/154 201/201/201
f 201/201/201 156/156/156 155/155/155
f 201/201/201 154/154/154 153/153/153
f 153/153/153 202/202/202 201/201/201
f 152/152/152 151/151/151 150/150/150
f 198/198/198 199/199/199 139/139/139
f 139/139/139 137/137/137 198/198/198
f 197/197/197 200/200/200 199/199/199
f 199/199/199 198/198/198 197/197/197
f 148/148/148 149/149/149 196/196/196
f 196/196/196 195/195/195 148/148/148
f 194/194/194 147/147/147 149/149/149
f 149/149/149 148/148/148 194/194/194
f 147/147/147 194/194/194 192/192/192
f 193/193/193 192/192/192 191/191/191
f 141/141/141 142/142/142 146/146/146
f 146/146/146 190/190/190 141/141/141
f 144/144/144 143/143/143 140/140/140
f 140/140/140 145/145/145 144/144/144
f 140/140/140 143/143/143 142/142/142
f 142/142/142 141/141/141 140/140/140
f 139/139/139 138/138/138 137/137/137
f 67/67/67 136/136/136 56/56/56
f 136/136/136 166/166/166 58/58/58
f 58/58/58 57/57/57 136/136/136
f 136/136/136 57/57/57 56/56/56
f 80/80/80 26/26/26 135/135/135
f 135/135/135 26/26/26 134/134/134
f 26/26/26 27/27/27 133/133/133
f 133/133/133 134/134/134 26/26/26
f 133/133/133 27/27/27 132/132/132
f 28/28/28 130/130/130 132/132/132
f 132/132/132 27/27/27 28/28/28
f 92/92/92 39/39/39 131/131/131
f 39/39/39 38/38/38 130/130/130
f 130/130/130 131/131/131 39/39/39
f 9/9/9 10/10/10 129/129/129
f 129/129/129 10/10/10 128/128/128
f 10/10/10 11/11/11 127/127/127
f 127/127/127 128/128/128 10/10/10
f 12/12/12 126/126/126 127/127/127
f 127/127/127 11/11/11 12/12/12
f 108/108/108 126/126/126 12/12/12
f 12/12/12 13/13/13 108/108/108
f 125/125/125 9/9/9 116/116/116
f 116/116/116 117/117/117 125/125/125
f 124/124/124 125/125/125 117/117/117
f 117/117/117 118/118/118 124/124/124
f 118/118/118 119/119/119 123/123/123
f 123/123/123 124/124/124 118/118/118
f 122/122/122 123/123/123 119/119/119
f 119/119/119 120/120/120 122/122/122
f 120/120/120 121/121/121 13/13/13
f 13/13/13 122/122/122 120/120/120
f 13/13/13 121/121/121 109/109/109
f 109/109/109 188/188/188 13/13/13
f 13/13/13 12/12/12 122/122/122
f 123/123/123 122/122/122 12/12/12
f 12/12/12 11/11/11 123/123/123
f 123/123/123 11/11/11 124/124/124
f 10/10/10 125/125/125 124/124/124
f 124/124/124 11/11/11 10/10/10
f 125/125/125 10/10/10 9/9/9
f 116/116/116 212/212/212 115/115/115
f 115/115/115 9/9/9 8/8/8
f 93/93/93 181/181/181 114/114/114
f 189/189/189 113/113/113 114/114/114
f 114/114/114 181/181/181 189/189/189
f 170/170/170 8/8/8 9/9/9
f 180/180/180 179/179/179 100/100/100
f 29/29/29 89/89/89 112/112/112
f 111/111/111 112/112/112 89/89/89
f 89/89/89 177/177/177 111/111/111
f 106/106/106 111/111/111 177/177/177
f 177/177/177 187/187/187 106/106/106
f 106/106/106 14/14/14 110/110/110
f 110/110/110 14/14/14 180/180/180
f 107/107/107 108/108/108 13/13/13
f 13/13/13 188/188/188 107/107/107
f 187/187/187 14/14/14 106/106/106
f 106/106/106 110/110/110 100/100/100
f 61/61/61 44/44/44 45/45/45
f 178/178/178 186/186/186 105/105/105
f 104/104/104 105/105/105 186/186/186
f 186/186/186 185/185/185 104/104/104
f 103/103/103 104/104/104 185/185/185
f 185/185/185 184/184/184 103/103/103
f 183/183/183 102/102/102 103/103/103
f 103/103/103 184/184/184 183/183/183
f 101/101/101 102/102/102 183/183/183
f 183/183/183 182/182/182 101/101/101
f 101/101/101 182/182/182 181/181/181
f 93/93/93 101/101/101 181/181/181
f 110/110/110 180/180/180 100/100/100
f 179/179/179 178/178/178 100/100/100
f 99/99/99 100/100/100 178/178/178
f 178/178/178 105/105/105 99/99/99
f 99/99/99 105/105/105 98/98/98
f 97/97/97 98/98/98 105/105/105
f 105/105/105 104/104/104 97/97/97
f 96/96/96 97/97/97 104/104/104
f 104/104/104 103/103/103 96/96/96
f 96/96/96 103/103/103 95/95/95
f 102/102/102 94/94/94 95/95/95
f 95/95/95 103/103/103 102/102/102
f 101/101/101 93/93/93 94/94/94
f 94/94/94 102/102/102 101/101/101
f 93/93/93 114/114/114 23/23/23
f 28/28/28 16/16/16 92/92/92
f 91/91/91 92/92/92 16/16/16
f 16/16/16 17/17/17 91/91/91
f 176/176/176 177/177/177 89/89/89
f 90/90/90 176/176/176 89/89/89
f 88/88/88 112/112/112 111/111/111
f 111/111/111 18/18/18 88/88/88
f 19/19/19 87/87/87 88/88/88
f 88/88/88 18/18/18 19/19/19
f 19/19/19 20/20/20 87/87/87
f 20/20/20 21/21/21 87/87/87
f 87/87/87 21/21/21 86/86/86
f 22/22/22 85/85/85 86/86/86
f 86/86/86 21/21/21 22/22/22
f 22/22/22 23/23/23 84/84/84
f 84/84/84 85/85/85 22/22/22
f 84/84/84 23/23/23 83/83/83
f 23/23/23 24/24/24 82/82/82
f 82/82/82 83/83/83 23/23/23
f 81/81/81 175/175/175 169/169/169
f 169/169/169 25/25/25 81/81/81
f 25/25/25 26/26/26 80/80/80
f 80/80/80 81/81/81 25/25/25
f 80/80/80 135/135/135 79/79/79
f 165/165/165 35/35/35 79/79/79
f 79/79/79 35/35/35 80/80/80
f 61/61/61 78/78/78 48/48/48
f 61/61/61 45/45/45 78/78/78
f 46/46/46 47/47/47 78/78/78
f 78/78/78 45/45/45 46/46/46
f 174/174/174 48/48/48 77/77/77
f 48/48/48 47/47/47 76/76/76
f 76/76/76 77/77/77 48/48/48
f 46/46/46 75/75/75 76/76/76
f 76/76/76 47/47/47 46/46/46
f 74/74/74 75/75/75 46/46/46
f 46/46/46 45/45/45 74/74/74
f 73/73/73 74/74/74 45/45/45
f 45/45/45 44/44/44 73/73/73
f 72/72/72 73/73/73 44/44/44
f 44/44/44 43/43/43 72/72/72
f 72/72/72 43/43/43 71/71/71
f 71/71/71 43/43/43 70/70/70
f 43/43/43 42/42/42 69/69/69
f 41/41/41 68/68/68 69/69/69
f 69/69/69 42/42/42 41/41/41
f 68/68/68 41/41/41 167/167/167
f 166/166/166 136/136/136 67/67/67
f 67/67/67 56/56/56 66/66/66
f 56/56/56 55/55/55 66/66/66
f 55/55/55 54/54/54 66/66/66
f 54/54/54 53/53/53 66/66/66
f 65/65/65 66/66/66 53/53/53
f 53/53/53 59/59/59 65/65/65
f 65/65/65 59/59/59 174/174/174
f 58/58/58 41/41/41 64/64/64
f 63/63/63 64/64/64 41/41/41
f 41/41/41 42/42/42 63/63/63
f 62/62/62 63/63/63 42/42/42
f 42/42/42 43/43/43 62/62/62
f 44/44/44 61/61/61 62/62/62
f 62/62/62 43/43/43 44/44/44
f 61/61/61 48/48/48 60/60/60
f 59/59/59 60/60/60 48/48/48
f 48/48/48 174/174/174 59/59/59
f 65/65/65 174/174/174 173/173/173
f 167/167/167 41/41/41 58/58/58
f 58/58/58 64/64/64 57/57/57
f 56/56/56 57/57/57 64/64/64
f 64/64/64 63/63/63 56/56/56
f 55/55/55 56/56/56 63/63/63
f 63/63/63 62/62/62 55/55/55
f 61/61/61 54/54/54 55/55/55
f 55/55/55 62/62/62 61/61/61
f 60/60/60 53/53/53 54/54/54
f 54/54/54 61/61/61 60/60/60
f 59/59/59 53/53/53 60/60/60
f 40/40/40 39/39/39 171/171/171
f 173/173/173 168/168/168 66/66/66
f 66/66/66 65/65/65 173/173/173
f 78/78/78 47/47/47 48/48/48
f 51/51/51 37/37/37 38/38/38
f 38/38/38 52/52/52 51/51/51
f 164/164/164 76/76/76 75/75/75
f 75/75/75 34/34/34 164/164/164
f 34/34/34 75/75/75 74/74/74
f 74/74/74 33/33/33 34/34/34
f 74/74/74 73/73/73 32/32/32
f 32/32/32 33/33/33 74/74/74
f 73/73/73 72/72/72 31/31/31
f 31/31/31 32/32/32 73/73/73
f 90/90/90 68/68/68 167/167/167
f 29/29/29 69/69/69 68/68/68
f 68/68/68 90/90/90 29/29/29
f 37/37/37 132/132/132 130/130/130
f 130/130/130 38/38/38 37/37/37
f 34/34/34 82/82/82 172/172/172
f 172/172/172 164/164/164 34/34/34
f 33/33/33 32/32/32 86/86/86
f 86/86/86 85/85/85 33/33/33
f 30/30/30 88/88/88 87/87/87
f 87/87/87 31/31/31 30/30/30
f 39/39/39 92/92/92 91/91/91
f 91/91/91 171/171/171 39/39/39
f 17/17/17 16/16/16 108/108/108
f 108/108/108 107/107/107 17/17/17
f 16/16/16 28/28/28 126/126/126
f 126/126/126 108/108/108 16/16/16
f 27/27/27 127/127/127 126/126/126
f 126/126/126 28/28/28 27/27/27
f 169/169/169 170/170/170 9/9/9
f 9/9/9 25/25/25 169/169/169
f 23/23/23 114/114/114 113/113/113
f 113/113/113 24/24/24 23/23/23
f 93/93/93 23/23/23 22/22/22
f 6/6/6 5/5/5 117/117/117
f 117/117/117 116/116/116 6/6/6
f 22/22/22 21/21/21 94/94/94
f 94/94/94 93/93/93 22/22/22
f 5/5/5 4/4/4 118/118/118
f 118/118/118 117/117/117 5/5/5
f 20/20/20 19/19/19 97/97/97
f 97/97/97 96/96/96 20/20/20
f 3/3/3 2/2/2 120/120/120
f 120/120/120 119/119/119 3/3/3
f 1/1/1 15/15/15 109/109/109
f 109/109/109 121/121/121 1/1/1
f 1/1/1 121/121/121 120/120/120
f 120/120/120 2/2/2 1/1/1
f 67/67/67 168/168/168 166/166/166
f 67/67/67 66/66/66 168/168/168
f 167/167/167 58/58/58 166/166/166
f 39/39/39 40/40/40 52/52/52
f 38/38/38 39/39/39 52/52/52
f 51/51/51 50/50/50 37/37/37
f 36/36/36 50/50/50 49/49/49
f 36/36/36 37/37/37 50/50/50
f 79/79/79 49/49/49 165/165/165
f 77/77/77 76/76/76 164/164/164
f 79/79/79 36/36/36 49/49/49
f 71/71/71 30/30/30 31/31/31
f 70/70/70 69/69/69 29/29/29
f 30/30/30 71/71/71 70/70/70
f 70/70/70 29/29/29 30/30/30
f 131/131/131 130/130/130 28/28/28
f 36/36/36 133/133/133 132/132/132
f 132/132/132 37/37/37 36/36/36
f 134/134/134 36/36/36 79/79/79
f 79/79/79 135/135/135 134/134/134
f 134/134/134 133/133/133 36/36/36
f 81/81/81 80/80/80 35/35/35
f 83/83/83 34/34/34 33/33/33
f 33/33/33 84/84/84 83/83/83
f 83/83/83 82/82/82 34/34/34
f 85/85/85 84/84/84 33/33/33
f 31/31/31 87/87/87 86/86/86
f 86/86/86 32/32/32 31/31/31
f 88/88/88 30/30/30 29/29/29
f 90/90/90 89/89/89 29/29/29
f 112/112/112 88/88/88 29/29/29
f 92/92/92 131/131/131 28/28/28
f 106/106/106 18/18/18 111/111/111
f 106/106/106 100/100/100 18/18/18
f 128/128/128 27/27/27 26/26/26
f 26/26/26 129/129/129 128/128/128
f 128/128/128 127/127/127 27/27/27
f 26/26/26 25/25/25 9/9/9
f 9/9/9 129/129/129 26/26/26
f 115/115/115 8/8/8 7/7/7
f 6/6/6 116/116/116 115/115/115
f 115/115/115 7/7/7 6/6/6
f 95/95/95 21/21/21 20/20/20
f 20/20/20 96/96/96 95/95/95
f 95/95/95 94/94/94 21/21/21
f 3/3/3 119/119/119 118/118/118
f 118/118/118 4/4/4 3/3/3
f 98/98/98 19/19/19 18/18/18
f 18/18/18 99/99/99 98/98/98
f 98/98/98 97/97/97 19/19/19
f 100/100/100 99/99/99 18/18/18
