v 0.740765 -0.962994 -0.055111999999999946
v 0.740765 -0.444282 -0.055111999999999974
v 0.70269 -0.45377599999999996 1.313837
v 0.70269 -0.9535719999999999 1.313837
v 0.640664 -0.4601059999999999 1.987352
v 0.640664 -0.9283049999999999 1.987352
v 0.225418 -0.44232399999999983 2.336164
v 0.221872 -0.8927429999999998 2.336164
v -0.441154 -0.41970999999999986 2.376485
v -0.441154 -0.8475139999999999 2.376485
v -0.441154 0.008094000000000146 2.376485
v 0.203293 0.008094000000000143 2.336164
v -0.441154 0.4358980000000002 2.376485
v 0.798549 -0.4601059999999999 1.987352
v 0.798549 0.008094000000000122 1.987352
v 0.860575 -0.4825249999999999 1.313837
v 0.860575 0.02420100000000008 1.313837
v 0.89865 -0.495043 -0.055111999999999974
v 0.89865 0.036742 -0.055112
v 0.198527 0.45851200000000014 2.336164
v -0.441154 0.8637020000000001 2.376485
v 0.642366 0.008094000000000122 1.987352
v 0.326458 0.9089310000000002 2.336164
v 0.642366 0.4762940000000001 1.987352
v 0.734329 0.4762940000000001 1.987352
v 0.704392 -0.00812399999999992 1.313837
v 0.734329 0.9444940000000001 1.987352
v 0.704392 0.4988250000000001 1.313837
v 0.804637 0.46905700000000006 1.313837
v 0.742467 -0.020816000000000005 -0.055112
v 0.742467 0.511492 -0.055112000000000036
v 0.804637 0.9706680000000001 1.313837
v 0.842712 0.459562 -0.05511200000000003
v 0.842712 0.98009 -0.055112000000000064
vt 0.000320 0.022852
vt 0.000320 0.137110
vt 0.250320 0.134994
vt 0.250320 0.018620
vt 0.442333 0.138139
vt 0.442333 0.024910
vt 0.703556 0.138049
vt 0.703556 0.028262
vt 1.000320 0.153712
vt 1.000320 0.056055
vt 1.000320 0.251368
vt 0.703556 0.247836
vt 1.000320 0.349025
vt 0.442333 0.138139
vt 0.442333 0.251368
vt 0.250320 0.134994
vt 0.250320 0.251368
vt 0.000320 0.137110
vt 0.000320 0.251368
vt 0.703556 0.357623
vt 1.000320 0.446682
vt 0.442333 0.251368
vt 0.703556 0.467410
vt 0.442333 0.364597
vt 0.442333 0.364597
vt 0.250320 0.251368
vt 0.442333 0.477826
vt 0.250320 0.367743
vt 0.250320 0.367743
vt 0.000320 0.251368
vt 0.000320 0.365627
vt 0.250320 0.484117
vt 0.000320 0.365627
vt 0.000320 0.479885
vn 0.999613 1.7023815154947357E-18 0.027802
vn 0.999613 1.7023815154947357E-18 0.027802
vn 0.998793 3.0080999327456437E-18 0.049126
vn 0.997516 4.312961097237148E-18 0.070436
vn 0.94082 2.0752007405591645E-17 0.338906
vn 0.814013 -0.0017989999999999645 0.580844
vn 0.346236 0.004029000000000057 0.938139
vn 0.265299 -0.0019219999999999411 0.964164
vn 0.060481 -0.00015799999999993887 0.998169
vn 0.060701 6.111942752248628E-17 0.998156
vn 0.061756 0.001022000000000061 0.998091
vn 0.316924 0.006193000000000058 0.948431
vn 0.062745 0.00022200000000006112 0.99803
vn 0.745348 0.009423000000000042 0.666609
vn 0.922326 2.366091094760635E-17 0.386412
vn 0.997516 4.312961097237148E-18 0.070436
vn 0.998793 3.0080999327456437E-18 0.049126
vn 0.999613 1.7023815154947357E-18 0.027802
vn 0.999613 1.7023815154947357E-18 0.027802
vn 0.341947 -0.02826699999999994 0.939294
vn 0.058126 -0.007574999999999939 0.998281
vn 0.802723 0.0023630000000000365 0.596348
vn 0.433594 -0.05894299999999995 0.899179
vn 0.937376 2.1328387421610347E-17 0.348319
vn 0.790074 -0.05572499999999996 0.610473
vn 0.997516 4.312961097237148E-18 0.070436
vn 0.938881 2.10786819392642E-17 0.344241
vn 0.998793 3.0080999327456437E-18 0.049126
vn 0.996911 4.8089430508918264E-18 0.078536
vn 0.999613 1.7023815154947357E-18 0.027802
vn 0.999613 1.7023815154947357E-18 0.027802
vn 0.998585 3.2562133742528978E-18 0.053178
vn 0.999613 1.7023815154947357E-18 0.027802
vn 0.999613 1.7023815154947357E-18 0.027802
g water
f 1/1/1 2/2/2 3/3/3
f 3/3/3 4/4/4 1/1/1
f 4/4/4 3/3/3 5/5/5
f 5/5/5 6/6/6 4/4/4
f 6/6/6 5/5/5 7/7/7
f 7/7/7 8/8/8 6/6/6
f 9/9/9 10/10/10 8/8/8
f 8/8/8 7/7/7 9/9/9
f 11/11/11 9/9/9 7/7/7
f 7/7/7 12/12/12 11/11/11
f 13/13/13 11/11/11 12/12/12
f 12/12/12 7/7/7 14/14/14
f 14/14/14 15/15/15 12/12/12
f 15/15/15 14/14/14 16/16/16
f 16/16/16 17/17/17 15/15/15
f 17/17/17 16/16/16 18/18/18
f 18/18/18 19/19/19 17/17/17
f 12/12/12 20/20/20 13/13/13
f 21/21/21 13/13/13 20/20/20
f 20/20/20 12/12/12 22/22/22
f 20/20/20 23/23/23 21/21/21
f 22/22/22 24/24/24 20/20/20
f 23/23/23 20/20/20 25/25/25
f 24/24/24 22/22/22 26/26/26
f 25/25/25 27/27/27 23/23/23
f 26/26/26 28/28/28 24/24/24
f 27/27/27 25/25/25 29/29/29
f 28/28/28 26/26/26 30/30/30
f 30/30/30 31/31/31 28/28/28
f 29/29/29 32/32/32 27/27/27
f 32/32/32 29/29/29 33/33/33
f 33/33/33 34/34/34 32/32/32
