v 0.487222 -0.08120799999999999 0.259187
v 0.487222 -0.081208 0.019143000000000004
v 0.670361 0.155557 0.01914299999999999
v 0.670361 0.155557 0.01914299999999999
v 0.670361 0.15555700000000003 0.259187
v 0.691134 -0.07500899999999999 0.328147
v 0.670361 0.15555700000000003 0.259187
v 0.670361 0.15555700000000003 0.259187
v 0.839774 0.12229100000000001 0.328147
v 0.691134 -0.07500899999999996 0.678562
v 0.839774 0.12229100000000004 0.600098
v 0.538905 0.13643500000000006 0.695196
v 0.595767 -0.16255499999999995 0.956275
v 0.746544 0.39138200000000006 0.600098
v 0.538905 0.13643500000000006 0.956275
v 0.48915 -0.022212999999999938 1.006661
v 0.439395 0.45373100000000005 0.790691
v 0.439395 0.45373100000000005 0.956275
v 0.177116 0.41704300000000005 1.006661
v 0.48915 -0.022212999999999927 1.206024
v 0.177116 0.41704300000000005 1.006661
v 0.177116 0.41704300000000005 1.219358
v 0.268808 0.6001750000000001 0.956275
v -0.079474 0.5208510000000001 1.006661
v -0.079474 0.5208510000000001 1.202306
v -0.171875 0.7161100000000001 0.956275
v -0.505942 0.39271300000000003 1.006661
v -0.505942 0.39271300000000003 1.202306
v -0.477511 0.48424000000000006 0.956275
v -0.477511 0.48424000000000006 0.695196
v -0.171875 0.71611 0.778612
v -0.212511 0.542832 0.601004
v 0.268808 0.600175 0.793014
v 0.268808 0.6001750000000001 0.956275
v 0.272375 0.739638 0.678562
v -0.212511 0.542832 0.32814699999999997
v 0.302581 0.681549 0.43182799999999993
v 0.075334 0.594546 0.25918699999999995
v 0.77675 0.333293 0.431828
v 0.434031 0.388078 0.259187
v 0.075334 0.594546 0.019142999999999966
v 0.670361 0.15555700000000003 0.259187
v 0.434031 0.388078 0.019142999999999976
v 0.670361 0.155557 0.01914299999999999
v -0.212511 0.542832 0.32814699999999997
v -0.068129 0.426837 0.259187
v -0.351393 0.282527 0.259187
v 0.075334 0.594546 0.25918699999999995
v -0.212511 0.542832 0.32814699999999997
v 0.075334 0.594546 0.019142999999999966
v -0.068129 0.426837 0.019142999999999973
v -0.351393 0.282527 0.019142999999999983
v -0.351393 0.282527 0.259187
v -0.476308 0.004994000000000001 0.019143
v -0.476308 0.004994000000000016 0.259187
v -0.576788 -0.311996 0.01914300000000002
v -0.344554 0.10641300000000001 0.328147
v -0.212511 0.542832 0.32814699999999997
v -0.576788 -0.311996 0.259187
v -0.521048 -0.529801 0.01914300000000003
v -0.212511 0.542832 0.601004
v -0.521048 -0.529801 0.25918700000000006
v -0.226559 -0.877535 0.019143000000000052
v -0.226559 -0.877535 0.25918700000000006
v -0.340899 -0.43238 0.328147
v -0.190253 -0.664589 0.3281470000000001
v -0.344554 0.10641300000000004 0.601004
v -0.477511 0.48424000000000006 0.695196
v -0.340899 -0.43237999999999993 0.619253
v -0.190253 -0.664589 0.595915
v -0.314032 -0.644601 0.695196
v -0.507286 0.20295600000000005 0.695196
v -0.477511 0.48424000000000006 0.956275
v -0.299816 -0.34561099999999995 0.695196
v -0.516836 0.22116000000000005 0.956275
v -0.505942 0.39271300000000003 1.006661
v -0.299816 -0.34561099999999995 0.956275
v -0.314032 -0.6446009999999999 0.956275
v -0.527266 0.09372200000000006 1.006661
v -0.505942 0.39271300000000003 1.202306
v -0.527266 0.09372200000000008 1.262692
v -0.463295 -0.46764799999999995 1.006661
v -0.463295 -0.46764799999999995 1.262692
v -0.471888 -0.7145219999999999 1.006661
v -0.471888 -0.7145219999999999 1.262692
v -0.342463 -0.8764709999999999 1.262692
v -0.400524 -0.8462129999999999 1.082416
v 0.631306 -0.45544399999999996 1.006661
v 0.446503 -0.44323999999999997 0.956275
v 0.595767 -0.16255499999999995 0.956275
v 0.42518 -0.6629069999999999 0.956275
v 0.631306 -0.45544399999999996 1.006661
v 0.691134 -0.07500899999999996 0.678562
v 0.595767 -0.16255499999999995 0.956275
v 0.421547 -0.571548 0.678562
v 0.691134 -0.07500899999999999 0.328147
v 0.48915 -0.022212999999999938 1.006661
v 0.631306 -0.45544399999999996 1.006661
v 0.48915 -0.022212999999999927 1.206024
v 0.631306 -0.45544399999999996 1.206024
v 0.346994 -0.8947769999999999 1.262692
v 0.288933 -0.8645189999999999 1.082416
v -0.342463 -0.8764709999999999 1.262692
v -0.400524 -0.8462129999999999 1.082416
v 0.178247 -0.7730419999999999 0.956275
v -0.471888 -0.7145219999999999 1.006661
v -0.314032 -0.6446009999999999 0.956275
v -0.314032 -0.644601 0.695196
v 0.178247 -0.773042 0.695196
v -0.190253 -0.664589 0.595915
v 0.232586 -0.804236 0.595915
v 0.421547 -0.571548 0.3281470000000001
v 0.487222 -0.08120799999999999 0.259187
v 0.232586 -0.804236 0.3281470000000001
v -0.190253 -0.664589 0.3281470000000001
v 0.339908 -0.669957 0.25918700000000006
v 0.487222 -0.081208 0.019143000000000004
v 0.342526 -0.649567 0.01914300000000004
v 0.156798 -0.862903 0.25918700000000006
v -0.226559 -0.877535 0.25918700000000006
v 0.156798 -0.862903 0.019143000000000052
v -0.226559 -0.877535 0.019143000000000052
v -0.471888 -0.7145219999999999 1.262692
v -0.342463 -0.8764709999999999 1.262692
v 0.346994 -0.8947769999999999 1.262692
v 0.631306 -0.45544399999999996 1.206024
v -0.463295 -0.46764799999999995 1.262692
v 0.48915 -0.022212999999999927 1.206024
v -0.527266 0.09372200000000008 1.262692
v 0.177116 0.41704300000000005 1.219358
v -0.079474 0.5208510000000001 1.202306
v -0.505942 0.39271300000000003 1.202306
vt 0.611965 0.967012
vt 0.541902 0.964411
vt 0.539463 0.844960
vt 0.539463 0.844960
vt 0.617796 0.850772
vt 0.660631 0.946634
vt 0.617796 0.850772
vt 0.617796 0.850772
vt 0.665939 0.882810
vt 0.781842 0.957164
vt 0.744855 0.893435
vt 0.811485 0.863154
vt 0.882010 0.974365
vt 0.735142 0.797300
vt 0.881830 0.837602
vt 0.912746 0.877166
vt 0.814108 0.713019
vt 0.861189 0.700063
vt 0.919102 0.641564
vt 0.981977 0.866114
vt 0.919102 0.641564
vt 0.981813 0.640545
vt 0.856836 0.619779
vt 0.919754 0.523042
vt 0.980661 0.532013
vt 0.861791 0.472254
vt 0.938648 0.360784
vt 0.994320 0.371348
vt 0.907851 0.367347
vt 0.823741 0.320616
vt 0.817218 0.460002
vt 0.755812 0.404737
vt 0.808288 0.619410
vt 0.856836 0.619779
vt 0.758172 0.590425
vt 0.651101 0.421331
vt 0.692405 0.610423
vt 0.628920 0.550316
vt 0.686480 0.820531
vt 0.610587 0.714685
vt 0.552435 0.541142
vt 0.617796 0.850772
vt 0.539371 0.707349
vt 0.539463 0.844960
vt 0.596452 0.185141
vt 0.589566 0.142869
vt 0.492418 0.160694
vt 0.661599 0.136757
vt 0.596452 0.185141
vt 0.649553 0.074392
vt 0.579354 0.084074
vt 0.487167 0.093423
vt 0.492418 0.160694
vt 0.387287 0.089943
vt 0.385784 0.157243
vt 0.269591 0.081559
vt 0.429227 0.186608
vt 0.596452 0.185141
vt 0.272094 0.143961
vt 0.183466 0.082323
vt 0.604896 0.248142
vt 0.198564 0.142412
vt 0.028238 0.110052
vt 0.054984 0.170006
vt 0.224325 0.191723
vt 0.126677 0.194794
vt 0.435505 0.260073
vt 0.576417 0.305213
vt 0.228993 0.267844
vt 0.129152 0.258832
vt 0.149459 0.288928
vt 0.472714 0.301948
vt 0.574419 0.374779
vt 0.259939 0.290516
vt 0.475316 0.373793
vt 0.539092 0.388496
vt 0.256022 0.355111
vt 0.144792 0.355455
vt 0.426187 0.389193
vt 0.536706 0.442304
vt 0.424310 0.458354
vt 0.212737 0.390404
vt 0.212231 0.458911
vt 0.116724 0.390218
vt 0.116128 0.458944
vt 0.041977 0.458042
vt 0.061335 0.408784
vt 0.164960 0.590027
vt 0.179550 0.637922
vt 0.076144 0.631655
vt 0.252075 0.616442
vt 0.164960 0.590027
vt 0.033126 0.724625
vt 0.076144 0.631655
vt 0.227017 0.721964
vt 0.036905 0.842981
vt 0.017762 0.614270
vt 0.164960 0.590027
vt 0.008123 0.549462
vt 0.160990 0.524539
vt 0.333115 0.496448
vt 0.328944 0.558390
vt 0.523227 0.556073
vt 0.515029 0.610814
vt 0.334570 0.620710
vt 0.517834 0.643996
vt 0.475774 0.649773
vt 0.467460 0.721041
vt 0.323260 0.715971
vt 0.433379 0.740587
vt 0.315311 0.761165
vt 0.229820 0.843692
vt 0.066315 0.900179
vt 0.331835 0.849713
vt 0.461413 0.812442
vt 0.274533 0.872988
vt 0.081236 0.977908
vt 0.277669 0.950954
vt 0.363021 0.876638
vt 0.478799 0.876865
vt 0.367596 0.949230
vt 0.480471 0.951531
vt 0.798706 0.020867
vt 0.850350 0.006877
vt 0.991648 0.097064
vt 0.979045 0.222413
vt 0.761310 0.070193
vt 0.881857 0.287590
vt 0.659511 0.170999
vt 0.749627 0.330610
vt 0.681654 0.316263
vt 0.616353 0.233272
vn 0.760267 -0.4030560000000001 -0.509451
vn 0.925854 -0.377865 -0.003477999999999977
vn 0.997082 0.076334 -4.674109438305703E-18
vn 0.997082 0.076334 -4.674109438305703E-18
vn 0.676959 0.007809999999999955 -0.735979
vn 0.686461 -0.43474500000000005 -0.582896
vn 0.676959 0.007809999999999955 -0.735979
vn 0.676959 0.007809999999999955 -0.735979
vn 0.876358 0.01301299999999997 -0.481484
vn 0.897037 -0.326208 0.298183
vn 0.752507 -0.0029239999999999596 0.658578
vn 0.728085 0.21903100000000003 0.649552
vn 0.954801 0.09669100000000001 0.281079
vn 0.768125 0.485854 0.4170499999999999
vn 0.875383 0.23203800000000002 0.424103
vn 0.738868 0.29101800000000005 0.607768
vn 0.773333 0.457308 0.4391189999999999
vn 0.622749 0.46961200000000003 0.625818
vn 0.439719 0.523555 0.729752
vn 0.594827 0.32563200000000003 0.734945
vn 0.439719 0.523555 0.729752
vn 0.427782 0.702292 0.569024
vn 0.345636 0.789005 0.507944
vn 0.058648 0.801876 0.594606
vn -0.072088 0.842316 0.534142
vn -0.190944 0.723403 0.663498
vn -0.768859 0.624378 0.13786999999999996
vn -0.787482 0.486003 0.37904099999999996
vn -0.820085 0.432828 0.374327
vn -0.68241 0.52454 -0.509092
vn -0.100203 0.989729 -0.10196100000000005
vn -0.626129 0.625911 -0.46497200000000005
vn 0.477516 0.814141 0.33038499999999993
vn 0.345636 0.789005 0.507944
vn 0.170174 0.965234 0.19840599999999994
vn -0.54671 0.763369 -0.34405800000000003
vn 0.274101 0.873464 -0.40240500000000007
vn -0.243563 0.869747 -0.42920500000000006
vn 0.669631 0.602211 -0.43466800000000005
vn 0.552818 0.721734 -0.41652400000000006
vn 0.11648 0.993193 -6.081553141927786E-17
vn 0.676959 0.007809999999999955 -0.735979
vn 0.603056 0.797699 -4.884497635165223E-17
vn 0.997082 0.076334 -4.674109438305703E-18
vn -0.54671 0.763369 -0.34405800000000003
vn -0.504654 0.723921 -0.47038700000000006
vn -0.820516 0.564873 0.08758899999999997
vn -0.243563 0.869747 -0.42920500000000006
vn -0.54671 0.763369 -0.34405800000000003
vn 0.11648 0.993193 -6.081553141927786E-17
vn -0.665446 0.746446 -4.570663523181726E-17
vn -0.627592 0.778543 -4.767200964742889E-17
vn -0.820516 0.564873 0.08758899999999997
vn -0.926962 0.375155 -2.2971618496706265E-17
vn -0.873865 0.321756 0.364462
vn -0.992343 0.123513 -7.562990005154352E-18
vn -0.816856 0.20069600000000004 0.540803
vn -0.54671 0.763369 -0.34405800000000003
vn -0.805765 -0.017611999999999964 0.591973
vn -0.919015 -0.394222 2.4139135522673396E-17
vn -0.626129 0.625911 -0.46497200000000005
vn -0.741218 -0.44658699999999996 0.501155
vn -0.527513 -0.849547 5.201975071376183E-17
vn -0.266997 -0.737867 0.619891
vn -0.686993 -0.19132899999999994 0.701024
vn -0.504217 -0.657716 0.55962
vn -0.912217 0.03756899999999997 -0.407981
vn -0.68241 0.52454 -0.509092
vn -0.963694 -0.265537 0.027989000000000017
vn -0.479277 -0.868468 -0.12671599999999994
vn -0.779889 -0.620619 -0.08127399999999996
vn -0.905082 -0.06439700000000002 -0.420332
vn -0.820085 0.432828 0.374327
vn -0.987244 -0.158887 0.01016900000000001
vn -0.972322 -0.10954900000000001 -0.206371
vn -0.768859 0.624378 0.13786999999999996
vn -0.812929 -0.10422600000000004 -0.572961
vn -0.507549 -0.36287300000000006 -0.781484
vn -0.93041 -0.03734200000000002 -0.364614
vn -0.787482 0.486003 0.37904099999999996
vn -0.530271 0.04976200000000005 0.846366
vn -0.769479 -0.03810200000000004 -0.637535
vn -0.621132 -0.004071999999999952 0.783695
vn -0.774592 -0.3655260000000001 -0.516137
vn -0.436755 -0.12437799999999995 0.89094
vn -0.461241 -0.845863 0.26790200000000003
vn -0.304346 -0.847352 -0.43516599999999994
vn 0.872196 -0.300011 -0.386353
vn 0.822693 -0.30295700000000003 -0.481033
vn 0.954801 0.09669100000000001 0.281079
vn 0.614153 -0.551824 -0.564187
vn 0.872196 -0.300011 -0.386353
vn 0.897037 -0.326208 0.298183
vn 0.954801 0.09669100000000001 0.281079
vn 0.795766 -0.604115 0.04245400000000003
vn 0.686461 -0.43474500000000005 -0.582896
vn 0.738868 0.29101800000000005 0.607768
vn 0.872196 -0.300011 -0.386353
vn 0.594827 0.32563200000000003 0.734945
vn 0.640118 0.046948000000000045 0.766841
vn 0.486145 -0.682729 0.545476
vn 0.283854 -0.869544 -0.40412799999999993
vn -0.461241 -0.845863 0.26790200000000003
vn -0.304346 -0.847352 -0.43516599999999994
vn 0.075883 -0.868671 -0.4895439999999999
vn -0.774592 -0.3655260000000001 -0.516137
vn -0.507549 -0.36287300000000006 -0.781484
vn -0.779889 -0.620619 -0.08127399999999996
vn 0.078983 -0.989954 0.11727600000000006
vn -0.479277 -0.868468 -0.12671599999999994
vn 0.341938 -0.926573 0.15665500000000004
vn 0.801562 -0.510331 -0.31154599999999993
vn 0.760267 -0.4030560000000001 -0.509451
vn 0.277732 -0.952792 0.12269000000000005
vn -0.504217 -0.657716 0.55962
vn 0.863984 -0.475896 -0.16448499999999996
vn 0.925854 -0.377865 -0.003477999999999977
vn 0.834955 -0.549915 -0.021085999999999966
vn 0.414264 -0.847492 0.33187700000000003
vn -0.266997 -0.737867 0.619891
vn 0.282225 -0.959348 5.874312287342074E-17
vn -0.527513 -0.849547 5.201975071376183E-17
vn -0.436755 -0.12437799999999995 0.89094
vn -0.461241 -0.845863 0.26790200000000003
vn 0.486145 -0.682729 0.545476
vn 0.640118 0.046948000000000045 0.766841
vn -0.621132 -0.004071999999999952 0.783695
vn 0.594827 0.32563200000000003 0.734945
vn -0.530271 0.04976200000000005 0.846366
vn 0.427782 0.702292 0.569024
vn -0.072088 0.842316 0.534142
vn -0.787482 0.486003 0.37904099999999996
g Default Standard [Object03]
f 1/1/1 2/2/2 3/3/3
f 4/4/4 5/5/5 1/1/1
f 6/6/6 1/1/1 7/7/7
f 8/8/8 9/9/9 6/6/6
f 10/10/10 6/6/6 9/9/9
f 9/9/9 11/11/11 10/10/10
f 12/12/12 10/10/10 11/11/11
f 13/13/13 10/10/10 12/12/12
f 14/14/14 11/11/11 9/9/9
f 11/11/11 14/14/14 12/12/12
f 12/12/12 15/15/15 13/13/13
f 16/16/16 13/13/13 15/15/15
f 15/15/15 12/12/12 17/17/17
f 17/17/17 12/12/12 14/14/14
f 16/16/16 15/15/15 18/18/18
f 17/17/17 18/18/18 15/15/15
f 18/18/18 19/19/19 16/16/16
f 20/20/20 16/16/16 19/19/19
f 21/21/21 22/22/22 20/20/20
f 19/19/19 18/18/18 23/23/23
f 22/22/22 19/19/19 24/24/24
f 24/24/24 25/25/25 22/22/22
f 19/19/19 23/23/23 26/26/26
f 26/26/26 24/24/24 19/19/19
f 27/27/27 28/28/28 25/25/25
f 25/25/25 24/24/24 27/27/27
f 29/29/29 27/27/27 24/24/24
f 24/24/24 26/26/26 29/29/29
f 30/30/30 29/29/29 26/26/26
f 31/31/31 26/26/26 23/23/23
f 26/26/26 31/31/31 30/30/30
f 31/31/31 32/32/32 30/30/30
f 23/23/23 33/33/33 31/31/31
f 33/33/33 34/34/34 18/18/18
f 18/18/18 17/17/17 33/33/33
f 32/32/32 31/31/31 35/35/35
f 31/31/31 33/33/33 35/35/35
f 35/35/35 33/33/33 17/17/17
f 36/36/36 32/32/32 35/35/35
f 17/17/17 14/14/14 35/35/35
f 35/35/35 37/37/37 36/36/36
f 37/37/37 35/35/35 14/14/14
f 36/36/36 37/37/37 38/38/38
f 14/14/14 39/39/39 37/37/37
f 9/9/9 39/39/39 14/14/14
f 37/37/37 40/40/40 38/38/38
f 40/40/40 37/37/37 39/39/39
f 40/40/40 39/39/39 9/9/9
f 41/41/41 38/38/38 40/40/40
f 9/9/9 42/42/42 40/40/40
f 40/40/40 43/43/43 41/41/41
f 40/40/40 42/42/42 44/44/44
f 44/44/44 43/43/43 40/40/40
f 45/45/45 46/46/46 47/47/47
f 48/48/48 46/46/46 49/49/49
f 48/48/48 50/50/50 51/51/51
f 51/51/51 46/46/46 48/48/48
f 46/46/46 51/51/51 52/52/52
f 52/52/52 53/53/53 46/46/46
f 53/53/53 52/52/52 54/54/54
f 54/54/54 55/55/55 53/53/53
f 55/55/55 54/54/54 56/56/56
f 57/57/57 53/53/53 55/55/55
f 53/53/53 57/57/57 58/58/58
f 56/56/56 59/59/59 55/55/55
f 57/57/57 55/55/55 59/59/59
f 59/59/59 56/56/56 60/60/60
f 61/61/61 58/58/58 57/57/57
f 60/60/60 62/62/62 59/59/59
f 62/62/62 60/60/60 63/63/63
f 63/63/63 64/64/64 62/62/62
f 65/65/65 59/59/59 62/62/62
f 65/65/65 62/62/62 64/64/64
f 59/59/59 65/65/65 57/57/57
f 64/64/64 66/66/66 65/65/65
f 57/57/57 67/67/67 61/61/61
f 67/67/67 57/57/57 65/65/65
f 68/68/68 61/61/61 67/67/67
f 69/69/69 65/65/65 66/66/66
f 65/65/65 69/69/69 67/67/67
f 66/66/66 70/70/70 69/69/69
f 71/71/71 69/69/69 70/70/70
f 67/67/67 72/72/72 68/68/68
f 73/73/73 68/68/68 72/72/72
f 67/67/67 69/69/69 74/74/74
f 74/74/74 72/72/72 67/67/67
f 71/71/71 74/74/74 69/69/69
f 72/72/72 75/75/75 73/73/73
f 75/75/75 72/72/72 74/74/74
f 73/73/73 75/75/75 76/76/76
f 77/77/77 74/74/74 71/71/71
f 74/74/74 77/77/77 75/75/75
f 71/71/71 78/78/78 77/77/77
f 75/75/75 79/79/79 76/76/76
f 79/79/79 75/75/75 77/77/77
f 80/80/80 76/76/76 79/79/79
f 79/79/79 81/81/81 80/80/80
f 82/82/82 77/77/77 78/78/78
f 77/77/77 82/82/82 79/79/79
f 81/81/81 79/79/79 82/82/82
f 82/82/82 83/83/83 81/81/81
f 78/78/78 84/84/84 82/82/82
f 83/83/83 82/82/82 84/84/84
f 84/84/84 85/85/85 83/83/83
f 86/86/86 85/85/85 84/84/84
f 84/84/84 87/87/87 86/86/86
f 88/88/88 89/89/89 90/90/90
f 91/91/91 89/89/89 92/92/92
f 93/93/93 94/94/94 89/89/89
f 89/89/89 95/95/95 93/93/93
f 95/95/95 89/89/89 91/91/91
f 96/96/96 93/93/93 95/95/95
f 94/94/94 97/97/97 98/98/98
f 97/97/97 99/99/99 100/100/100
f 100/100/100 98/98/98 97/97/97
f 98/98/98 100/100/100 101/101/101
f 101/101/101 102/102/102 98/98/98
f 98/98/98 102/102/102 91/91/91
f 102/102/102 101/101/101 103/103/103
f 103/103/103 104/104/104 102/102/102
f 102/102/102 105/105/105 91/91/91
f 105/105/105 102/102/102 104/104/104
f 95/95/95 91/91/91 105/105/105
f 105/105/105 104/104/104 106/106/106
f 106/106/106 107/107/107 105/105/105
f 105/105/105 107/107/107 108/108/108
f 108/108/108 109/109/109 105/105/105
f 105/105/105 109/109/109 95/95/95
f 109/109/109 108/108/108 110/110/110
f 95/95/95 109/109/109 111/111/111
f 110/110/110 111/111/111 109/109/109
f 112/112/112 95/95/95 111/111/111
f 95/95/95 112/112/112 96/96/96
f 113/113/113 96/96/96 112/112/112
f 114/114/114 111/111/111 110/110/110
f 111/111/111 114/114/114 112/112/112
f 110/110/110 115/115/115 114/114/114
f 112/112/112 116/116/116 113/113/113
f 116/116/116 112/112/112 114/114/114
f 117/117/117 113/113/113 116/116/116
f 116/116/116 118/118/118 117/117/117
f 119/119/119 114/114/114 115/115/115
f 119/119/119 116/116/116 114/114/114
f 118/118/118 116/116/116 119/119/119
f 115/115/115 120/120/120 119/119/119
f 119/119/119 121/121/121 118/118/118
f 121/121/121 119/119/119 120/120/120
f 120/120/120 122/122/122 121/121/121
f 123/123/123 124/124/124 125/125/125
f 125/125/125 126/126/126 123/123/123
f 126/126/126 127/127/127 123/123/123
f 126/126/126 128/128/128 127/127/127
f 129/129/129 127/127/127 128/128/128
f 128/128/128 130/130/130 129/129/129
f 129/129/129 130/130/130 131/131/131
f 131/131/131 132/132/132 129/129/129
