v 0.691292 -0.483504 -0.10514799999999998
v 0.691292 -0.183833 -0.10514799999999999
v 0.687088 -0.20044099999999998 0.543625
v 0.687088 -0.4668959999999999 0.543625
v 0.690987 -0.20044099999999992 1.151901
v 0.690987 -0.4668959999999999 1.151901
v 0.686768 -0.21346299999999993 1.549393
v 0.686768 -0.4538739999999999 1.549393
v 0.682571 -0.2225779999999999 1.946915
v 0.682571 -0.4447589999999999 1.946915
v 0.573135 -0.21655899999999986 2.206558
v 0.573135 -0.4327229999999999 2.206558
v 0.309875 -0.20589999999999986 2.344452
v 0.309875 -0.41140499999999985 2.344452
v -0.710152 -0.17339099999999985 2.472626
v -0.710152 -0.34638599999999986 2.472626
v -0.710152 -0.00039599999999984857 2.472626
v 0.309875 -0.00039599999999985643 2.344452
v -0.710152 0.17259900000000014 2.472626
v 0.595291 -0.21655899999999986 2.206558
v 0.595291 -0.0003959999999998649 2.206558
v 0.704727 -0.2225779999999999 1.946915
v 0.704727 -0.00039599999999988077 1.946915
v 0.708923 -0.22257799999999991 1.549393
v 0.708923 -0.0003959999999999051 1.549393
v 0.713142 -0.22257799999999991 1.151901
v 0.713142 -0.00039599999999992945 1.151901
v 0.709244 -0.22257799999999997 0.543625
v 0.709244 -0.0003959999999999667 0.543625
v 0.713448 -0.222578 -0.10514799999999999
v 0.713448 -0.00039600000000000643 -0.105148
v 0.309875 0.20510900000000015 2.344452
v -0.710152 0.3455940000000002 2.472626
v 0.526382 -0.0003959999999998649 2.206558
v 0.309875 0.41061400000000015 2.344452
v 0.526382 0.21576800000000013 2.206558
v 0.635818 -0.00039599999999988077 1.946915
v 0.573135 0.4319310000000001 2.206558
v 0.635818 0.22178600000000012 1.946915
v 0.746048 0.22178600000000012 1.946915
v 0.640015 -0.010656999999999904 1.549393
v 0.746048 0.4439680000000001 1.946915
v 0.640015 0.2320480000000001 1.549393
v 0.750244 0.2217860000000001 1.549393
v 0.644234 -0.02535499999999993 1.151901
v 0.750244 0.4439680000000001 1.549393
v 0.644234 0.24674600000000008 1.151901
v 0.754463 0.2217860000000001 1.151901
v 0.640335 -0.025354999999999964 0.543625
v 0.754463 0.44396800000000003 1.151901
v 0.640335 0.24674600000000002 0.543625
v 0.750565 0.22178600000000004 0.543625
v 0.644539 -0.033982000000000005 -0.105148
v 0.644539 0.255373 -0.10514800000000002
v 0.750565 0.44396800000000003 0.543625
v 0.754768 0.221786 -0.10514800000000002
v 0.754768 0.443968 -0.10514800000000003
vt 0.002408 0.501373
vt 0.002408 0.626030
vt 0.161856 0.626030
vt 0.161856 0.501373
vt 0.304468 0.626030
vt 0.304468 0.501373
vt 0.392835 0.626030
vt 0.392835 0.501373
vt 0.535447 0.626030
vt 0.535447 0.501373
vt 0.678060 0.626030
vt 0.678060 0.501373
vt 0.820673 0.626030
vt 0.820673 0.501373
vt 0.963285 0.626030
vt 0.963285 0.501373
vt 0.963285 0.750687
vt 0.820673 0.750687
vt 0.963285 0.875343
vt 0.678060 0.626030
vt 0.678060 0.750687
vt 0.535447 0.626030
vt 0.535447 0.750687
vt 0.392835 0.626030
vt 0.392835 0.750687
vt 0.304468 0.626030
vt 0.304468 0.750687
vt 0.161856 0.626030
vt 0.161856 0.750687
vt 0.002408 0.626030
vt 0.002408 0.750687
vt 0.820673 0.875343
vt 0.963285 1.000000
vt 0.678060 0.750687
vt 0.820673 1.000000
vt 0.678060 0.875343
vt 0.535447 0.750687
vt 0.678060 1.000000
vt 0.535447 0.875343
vt 0.535447 0.875343
vt 0.392835 0.750687
vt 0.535447 1.000000
vt 0.392835 0.875343
vt 0.392835 0.875343
vt 0.304468 0.750687
vt 0.392835 1.000000
vt 0.304468 0.875343
vt 0.304468 0.875343
vt 0.161856 0.750687
vt 0.304468 1.000000
vt 0.161856 0.875343
vt 0.161856 0.875343
vt 0.002408 0.750687
vt 0.002408 0.875343
vt 0.161856 1.000000
vt 0.002408 0.875343
vt 0.002408 1.000000
vn 0.999979 3.967243305837851E-19 0.006479
vn 0.999979 3.967243305837851E-19 0.006479
vn 0.999998 1.336701981269336E-19 0.002183
vn 0.999998 -1.2938393432991785E-19 -0.002113
vn 1 -4.500576986866523E-20 -0.000735
vn 0.999988 3.0248775938939626E-19 0.00494
vn 0.999944 6.486954095083529E-19 0.010594
vn 0.999944 6.47531995049163E-19 0.010575
vn 0.990318 8.500150968201864E-18 0.138818
vn 0.963724 1.6343033999301342E-17 0.266902
vn 0.811267 3.5801079596913895E-17 0.584676
vn 0.650385 4.651239159331626E-17 0.759605
vn 0.293929 5.852752380443086E-17 0.955827
vn 0.241196 5.942451635246634E-17 0.970476
vn 0.124677 6.075460524102028E-17 0.992198
vn 0.124677 6.075460524102028E-17 0.992198
vn 0.124677 6.075460524102028E-17 0.992198
vn 0.302096 5.837138133753957E-17 0.953277
vn 0.124677 6.075460524102028E-17 0.992198
vn 0.633311 4.7387585428326914E-17 0.773898
vn 0.805279 3.6304470663703416E-17 0.592897
vn 0.963724 1.6343033999301342E-17 0.266902
vn 0.990318 8.500150968201864E-18 0.138818
vn 0.999944 6.47531995049163E-19 0.010575
vn 0.999944 6.486954095083529E-19 0.010594
vn 0.999988 3.0248775938939626E-19 0.00494
vn 1 -4.500576986866523E-20 -0.000735
vn 0.999998 -1.2938393432991785E-19 -0.002113
vn 0.999998 1.336701981269336E-19 0.002183
vn 0.999979 3.967243305837851E-19 0.006479
vn 0.999979 3.967243305837851E-19 0.006479
vn 0.339191 5.760236438001499E-17 0.940718
vn 0.124677 6.075460524102028E-17 0.992198
vn 0.693181 4.413400504469219E-17 0.720763
vn 0.384174 -0.03441799999999994 0.922619
vn 0.72047 -0.04603099999999996 0.691957
vn 0.963724 1.6343033999301342E-17 0.266902
vn 0.702196 -0.09037399999999995 0.706225
vn 0.990318 8.500150968201864E-18 0.138818
vn 0.905712 -0.057166999999999975 0.42002
vn 0.999944 6.47531995049163E-19 0.010575
vn 0.97998 1.2191175188492029E-17 0.199097
vn 0.999944 6.486954095083529E-19 0.010594
vn 0.999944 6.47531995049163E-19 0.010575
vn 0.999988 3.0248775938939626E-19 0.00494
vn 0.999944 6.486954095083529E-19 0.010594
vn 1 -4.500576986866523E-20 -0.000735
vn 0.999988 3.0248775938939626E-19 0.00494
vn 0.999998 -1.2938393432991785E-19 -0.002113
vn 1 -4.500576986866523E-20 -0.000735
vn 0.999998 1.336701981269336E-19 0.002183
vn 0.999998 -1.2938393432991785E-19 -0.002113
vn 0.999979 3.967243305837851E-19 0.006479
vn 0.999979 3.967243305837851E-19 0.006479
vn 0.999998 1.336701981269336E-19 0.002183
vn 0.999979 3.967243305837851E-19 0.006479
vn 0.999979 3.967243305837851E-19 0.006479
g water
f 1/1/1 2/2/2 3/3/3
f 3/3/3 4/4/4 1/1/1
f 4/4/4 3/3/3 5/5/5
f 5/5/5 6/6/6 4/4/4
f 6/6/6 5/5/5 7/7/7
f 7/7/7 8/8/8 6/6/6
f 8/8/8 7/7/7 9/9/9
f 9/9/9 10/10/10 8/8/8
f 10/10/10 9/9/9 11/11/11
f 11/11/11 12/12/12 10/10/10
f 12/12/12 11/11/11 13/13/13
f 13/13/13 14/14/14 12/12/12
f 15/15/15 16/16/16 14/14/14
f 14/14/14 13/13/13 15/15/15
f 17/17/17 15/15/15 13/13/13
f 13/13/13 18/18/18 17/17/17
f 19/19/19 17/17/17 18/18/18
f 18/18/18 13/13/13 20/20/20
f 20/20/20 21/21/21 18/18/18
f 21/21/21 20/20/20 22/22/22
f 22/22/22 23/23/23 21/21/21
f 23/23/23 22/22/22 24/24/24
f 24/24/24 25/25/25 23/23/23
f 25/25/25 24/24/24 26/26/26
f 26/26/26 27/27/27 25/25/25
f 27/27/27 26/26/26 28/28/28
f 28/28/28 29/29/29 27/27/27
f 29/29/29 28/28/28 30/30/30
f 30/30/30 31/31/31 29/29/29
f 18/18/18 32/32/32 19/19/19
f 33/33/33 19/19/19 32/32/32
f 32/32/32 18/18/18 34/34/34
f 32/32/32 35/35/35 33/33/33
f 34/34/34 36/36/36 32/32/32
f 35/35/35 32/32/32 36/36/36
f 36/36/36 34/34/34 37/37/37
f 36/36/36 38/38/38 35/35/35
f 37/37/37 39/39/39 36/36/36
f 38/38/38 36/36/36 40/40/40
f 39/39/39 37/37/37 41/41/41
f 40/40/40 42/42/42 38/38/38
f 41/41/41 43/43/43 39/39/39
f 42/42/42 40/40/40 44/44/44
f 43/43/43 41/41/41 45/45/45
f 44/44/44 46/46/46 42/42/42
f 45/45/45 47/47/47 43/43/43
f 46/46/46 44/44/44 48/48/48
f 47/47/47 45/45/45 49/49/49
f 48/48/48 50/50/50 46/46/46
f 49/49/49 51/51/51 47/47/47
f 50/50/50 48/48/48 52/52/52
f 51/51/51 49/49/49 53/53/53
f 53/53/53 54/54/54 51/51/51
f 52/52/52 55/55/55 50/50/50
f 55/55/55 52/52/52 56/56/56
f 56/56/56 57/57/57 55/55/55
