v -0.456518 0.020069000000000017 0.271151
v -0.457862 0.01718700000000002 0.342461
v -0.313522 -0.03654499999999998 0.34301
v -0.312177 -0.033662999999999985 0.2717
v -0.542178 -0.19417399999999999 0.260876
v -0.543522 -0.19705699999999998 0.332186
v -0.457862 0.01718700000000002 0.342461
v -0.456518 0.020069000000000017 0.271151
v -0.397838 -0.24790599999999996 0.261424
v -0.399182 -0.250788 0.332734
v -0.543522 -0.19705699999999998 0.332186
v -0.542178 -0.19417399999999999 0.260876
v -0.312177 -0.033662999999999985 0.2717
v -0.313522 -0.03654499999999998 0.34301
v -0.399182 -0.250788 0.332734
v -0.397838 -0.24790599999999996 0.261424
v -0.313522 -0.03654499999999998 0.34301
v -0.457862 0.01718700000000002 0.342461
v -0.543522 -0.19705699999999998 0.332186
v -0.399182 -0.250788 0.332734
v -0.362772 -0.16669399999999998 0.271151
v -0.362495 -0.16986199999999999 0.342461
v -0.210626 -0.14422499999999996 0.34301
v -0.210903 -0.14105699999999996 0.2717
v -0.329834 -0.395064 0.260876
v -0.329557 -0.398233 0.332186
v -0.362495 -0.16986199999999999 0.342461
v -0.362772 -0.16669399999999998 0.271151
v -0.177966 -0.369427 0.261424
v -0.177689 -0.372595 0.332734
v -0.329557 -0.398233 0.332186
v -0.329834 -0.395064 0.260876
v -0.210903 -0.14105699999999996 0.2717
v -0.210626 -0.14422499999999996 0.34301
v -0.177689 -0.372595 0.332734
v -0.177966 -0.369427 0.261424
v -0.210626 -0.14422499999999996 0.34301
v -0.362495 -0.16986199999999999 0.342461
v -0.329557 -0.398233 0.332186
v -0.177689 -0.372595 0.332734
v 0.220476 0.250303 0.271151
v 0.22252 0.24786700000000003 0.342461
v 0.332219 0.355976 0.34301
v 0.330175 0.358412 0.2717
v 0.378445 0.08212500000000002 0.260876
v 0.380489 0.07968900000000001 0.332186
v 0.22252 0.24786700000000003 0.342461
v 0.220476 0.250303 0.271151
v 0.488143 0.19023400000000001 0.261424
v 0.490188 0.18779800000000002 0.332734
v 0.380489 0.07968900000000001 0.332186
v 0.378445 0.08212500000000002 0.260876
v 0.330175 0.358412 0.2717
v 0.332219 0.355976 0.34301
v 0.490188 0.18779800000000002 0.332734
v 0.488143 0.19023400000000001 0.261424
v 0.332219 0.355976 0.34301
v 0.22252 0.24786700000000003 0.342461
v 0.380489 0.07968900000000001 0.332186
v 0.490188 0.18779800000000002 0.332734
v 0.4362 -0.257591 0.452958
v 0.04571 -0.503987 0.44325500000000007
v 0.052161 -0.515084 0.46540500000000007
v 0.442651 -0.26868699999999995 0.475108
v 0.059372 -0.525638 0.44322400000000006
v 0.449862 -0.279241 0.452927
v 0.073604 -0.51503 -0.01277199999999997
v 0.073604 -0.51503 0.44905900000000004
v 0.062784 -0.491827 0.44905900000000004
v 0.062784 -0.491827 -0.012771999999999971
v 0.088288 -0.494059 0.44905900000000004
v 0.088288 -0.494059 -0.012771999999999971
v 0.073604 -0.51503 0.44905900000000004
v 0.073604 -0.51503 -0.01277199999999997
v 0.439406 -0.317767 -0.004680999999999981
v 0.419176 -0.29795199999999994 0.456281
v 0.408179 -0.27488099999999993 0.454806
v 0.428408 -0.294695 -0.006155999999999982
v 0.433675 -0.27685499999999996 0.45601
v 0.453905 -0.296669 -0.004951999999999982
v 0.419176 -0.29795199999999994 0.456281
v 0.439406 -0.317767 -0.004680999999999981
v 0.122927 -0.48557399999999995 0.47910100000000005
v 0.1282 -0.504718 0.15936100000000003
v 0.401762 -0.331546 0.15936100000000003
v 0.396489 -0.31240199999999996 0.479101
v 0.107737 -0.45903499999999997 0.47910100000000005
v 0.381299 -0.2858629999999999 0.479101
v 0.110929 -0.471031 0.13903600000000002
v 0.384491 -0.297859 0.13903600000000002
v -0.269167 0.054884000000000016 0.277174
v -0.27163 0.049159 -0.020126000000000005
v -0.427885 0.012058999999999999 -0.020126
v -0.42904 0.016925000000000016 0.277174
v -0.588913 -0.021033999999999983 0.277174
v -0.584139 -0.025041 -0.020126
v -0.171864 -0.371027 -0.020125999999999977
v -0.16709 -0.375033 0.277174
v -0.326963 -0.412993 0.277174
v -0.328118 -0.408127 -0.020125999999999977
v -0.484373 -0.445227 -0.020125999999999974
v -0.486836 -0.450952 0.277174
v -0.221747 -0.160934 -0.02012599999999999
v -0.27163 0.049159 -0.020126000000000005
v -0.269167 0.054884000000000016 0.277174
v -0.218128 -0.16007399999999997 0.277174
v -0.16709 -0.375033 0.277174
v -0.171864 -0.371027 -0.020125999999999977
v -0.588913 -0.021033999999999983 0.277174
v -0.584139 -0.025041 -0.020126
v -0.534256 -0.235134 -0.020125999999999988
v -0.537874 -0.23599299999999998 0.277174
v -0.486836 -0.450952 0.277174
v -0.484373 -0.445227 -0.020125999999999974
v 0.170061 0.485499 0.2771739999999999
v 0.171327 0.479396 -0.02012600000000003
v 0.06461 0.359382 -0.020126000000000022
v 0.060873 0.362705 0.277174
v -0.048315 0.23991100000000004 0.277174
v -0.042106 0.239367 -0.020126000000000015
v 0.494059 0.192423 -0.020126000000000012
v 0.500268 0.19188000000000002 0.277174
v 0.39108 0.06908600000000001 0.277174
v 0.387343 0.072409 -0.020126000000000005
v 0.280626 -0.047605 -0.020125999999999998
v 0.281892 -0.053707999999999985 0.277174
v 0.332693 0.33591 -0.020126000000000022
v 0.171327 0.479396 -0.02012600000000003
v 0.170061 0.485499 0.2771739999999999
v 0.335164 0.33869 0.277174
v 0.500268 0.19188000000000002 0.277174
v 0.494059 0.192423 -0.020126000000000012
v -0.048315 0.23991100000000004 0.277174
v -0.042106 0.239367 -0.020126000000000015
v 0.11926 0.095881 -0.02012600000000001
v 0.116789 0.09310200000000002 0.277174
v 0.281892 -0.053707999999999985 0.277174
v 0.280626 -0.047605 -0.020125999999999998
v -0.11191 0.350262 0.002581999999999979
v -0.184651 0.263574 0.002581999999999984
v -0.034053 0.156966 0.01438999999999999
v 0.028958 0.23206 0.014389999999999986
v -0.03917 0.436951 0.002581999999999973
v 0.121324 0.006831 0.0025819999999999997
v 0.101698 0.318748 0.014389999999999981
v 0.03357 0.523639 0.002581999999999968
v 0.190866 0.096202 0.002581999999999994
v 0.237955 -0.091034 0.03524200000000001
v 0.174438 0.405436 0.014389999999999976
v 0.10631 0.610327 0.002581999999999963
v 0.239901 0.483452 0.01438999999999997
v 0.257417 0.188085 0.0025819999999999884
v 0.310695 -0.004345999999999998 0.024747
v 0.34317 -0.17932 0.002582000000000011
v 0.4234 -0.098916 0.002582000000000006
v 0.315307 0.287234 0.0025819999999999823
v 0.388047 0.373922 0.002581999999999977
v 0.383435 0.082342 0.002581999999999995
v 0.524304 -0.03586 0.0025820000000000023
v 0.456176 0.169031 0.0025819999999999897
v 0.544608 0.279248 0.002581999999999983
v 0.597044 0.050828 0.002581999999999997
v 0.684173 0.125443 0.0025819999999999923
v -0.129182 -0.502732 0.00617600000000003
v -0.024616 -0.464673 0.006176000000000029
v -0.100446 -0.299844 0.01720800000000002
v -0.191027 -0.332813 0.017208000000000022
v -0.233747 -0.540791 0.006176000000000033
v -0.158948 -0.095599 0.006176000000000006
v -0.295593 -0.370872 0.017208000000000025
v -0.338313 -0.57885 0.006176000000000036
v -0.26211 -0.137515 0.006176000000000009
v -0.210152 0.045084 0.036691
v -0.400158 -0.40893 0.017208000000000025
v -0.442878 -0.616908 0.006176000000000038
v -0.494263 -0.443182 0.01720800000000003
v -0.363958 -0.18304 0.006176000000000011
v -0.314718 0.007025000000000002 0.026885
v -0.256345 0.171997 0.00617599999999999
v -0.364199 0.142973 0.006175999999999991
v -0.462004 -0.239011 0.006176000000000015
v -0.566569 -0.27707 0.006176000000000017
v -0.419284 -0.031033 0.006176000000000002
v -0.481129 0.138886 0.006175999999999991
v -0.523849 -0.069092 0.006176000000000004
v -0.653346 -0.119473 0.006176000000000007
v -0.585695 0.100827 0.006175999999999994
v -0.696578 0.080125 0.006175999999999995
v -0.218128 -0.16007399999999997 0.277174
v -0.269167 0.054884000000000016 0.277174
v -0.42904 0.016925000000000016 0.277174
v -0.588913 -0.021033999999999983 0.277174
v -0.537874 -0.23599299999999998 0.277174
v -0.378002 -0.19803399999999996 0.277174
v -0.16709 -0.375033 0.277174
v -0.486836 -0.450952 0.277174
v -0.326963 -0.412993 0.277174
v 0.335164 0.33869 0.277174
v 0.170061 0.485499 0.2771739999999999
v 0.060873 0.362705 0.277174
v -0.048315 0.23991100000000004 0.277174
v 0.116789 0.09310200000000002 0.277174
v 0.225976 0.21589500000000003 0.277174
v 0.500268 0.19188000000000002 0.277174
v 0.281892 -0.053707999999999985 0.277174
v 0.39108 0.06908600000000001 0.277174
v 0.138011 0.340707 0.27544
v 0.138012 0.289356 0.27544
v 0.127376 0.351342 0.311751
v 0.189362 0.340707 0.27544
v 0.127376 0.278721 0.311751
v 0.189362 0.289356 0.27544
v 0.215038 0.315032 0.311751
v 0.163687 0.315032 0.363102
v 0.199997 0.278721 0.311751
v 0.065158 0.285305 0.27544
v 0.013806 0.285306 0.27544
v 0.003171 0.295941 0.311751
v 0.013807 0.23395400000000002 0.27544
v 0.090833 0.25963 0.311751
v 0.065158 0.23395400000000002 0.27544
v 0.003171 0.22331900000000002 0.311751
v 0.039482 0.20827900000000002 0.311751
v 0.039482 0.25963 0.363102
v -0.477382 -0.13239199999999998 0.338337
v -0.414579 -0.12131799999999998 0.338337
v -0.440443 -0.15825699999999998 0.38343
v -0.388715 -0.08437999999999997 0.38343
v -0.459348 -0.05104599999999998 0.338337
v -0.51432 -0.10652699999999997 0.38343
v -0.451517 -0.09545399999999997 0.447202
v -0.462591 -0.03265099999999998 0.38343
v -0.449794 -0.38404 0.280994
v -0.386991 -0.372966 0.280994
v -0.412856 -0.409904 0.326088
v -0.361127 -0.336028 0.326088
v -0.43176 -0.302694 0.280994
v -0.486732 -0.358175 0.326088
v -0.42393 -0.347102 0.389859
v -0.435003 -0.284299 0.326088
v 0.273856 0.022350000000000016 0.280994
v 0.31895 0.06744300000000002 0.280994
v 0.318949 0.02235000000000002 0.326088
v 0.318949 0.11253600000000001 0.326088
v 0.24197 0.09932900000000001 0.280994
v 0.228763 0.02235000000000002 0.326088
v 0.273856 0.06744300000000003 0.389859
v 0.228763 0.11253600000000001 0.326088
v 0.149981 0.21147300000000002 0.280994
v 0.104888 0.16637900000000003 0.280994
v 0.149981 0.23015200000000002 0.326088
v 0.213753 0.16637900000000003 0.326088
v 0.195074 0.16638000000000003 0.280994
v 0.086209 0.16638000000000003 0.326088
v 0.149981 0.12128600000000002 0.280994
v 0.149981 0.16638000000000003 0.389859
v 0.149981 0.10260800000000002 0.326088
vt 0.015823 0.630427
vt 0.015823 0.556055
vt 0.227105 0.556055
vt 0.227105 0.630427
vt 0.015275 0.629774
vt 0.015275 0.557459
vt 0.227049 0.557459
vt 0.227049 0.629774
vt 0.227105 0.630427
vt 0.227105 0.556055
vt 0.015823 0.556055
vt 0.015823 0.630427
vt 0.018521 0.627608
vt 0.018521 0.559796
vt 0.225090 0.559796
vt 0.225090 0.627608
vt 0.243817 0.676253
vt 0.243817 0.564330
vt 0.485167 0.564330
vt 0.485167 0.676253
vt 0.015823 0.630427
vt 0.015823 0.556055
vt 0.227105 0.556055
vt 0.227105 0.630427
vt 0.015275 0.629774
vt 0.015275 0.557459
vt 0.227049 0.557459
vt 0.227049 0.629774
vt 0.227105 0.630427
vt 0.227105 0.556055
vt 0.015823 0.556055
vt 0.015823 0.630427
vt 0.018521 0.627608
vt 0.018521 0.559796
vt 0.225090 0.559796
vt 0.225090 0.627608
vt 0.243817 0.676253
vt 0.243817 0.564330
vt 0.485167 0.564330
vt 0.485167 0.676253
vt 0.015823 0.630427
vt 0.015823 0.556055
vt 0.227105 0.556055
vt 0.227105 0.630427
vt 0.015275 0.629774
vt 0.015275 0.557459
vt 0.227049 0.557459
vt 0.227049 0.629774
vt 0.227105 0.630427
vt 0.227105 0.556055
vt 0.015823 0.556055
vt 0.015823 0.630427
vt 0.018521 0.627608
vt 0.018521 0.559796
vt 0.225090 0.559796
vt 0.225090 0.627608
vt 0.243817 0.676253
vt 0.243817 0.564330
vt 0.485167 0.564330
vt 0.485167 0.676253
vt 0.179946 0.709129
vt 0.470967 0.709129
vt 0.470967 0.741687
vt 0.179946 0.741687
vt 0.470967 0.774244
vt 0.179946 0.774244
vt 0.177293 0.703083
vt 0.479570 0.703083
vt 0.479570 0.727401
vt 0.177293 0.727401
vt 0.479570 0.751719
vt 0.177293 0.751719
vt 0.479570 0.776037
vt 0.177293 0.776037
vt 0.177293 0.703083
vt 0.479570 0.703083
vt 0.479570 0.727401
vt 0.177293 0.727401
vt 0.479570 0.751719
vt 0.177293 0.751719
vt 0.479570 0.776037
vt 0.177293 0.776037
vt 0.646915 0.009994
vt 0.786531 0.010388
vt 0.784544 0.210212
vt 0.645903 0.209818
vt 0.589974 0.009599
vt 0.588962 0.209423
vt 0.451333 0.009204
vt 0.449346 0.209028
vt 0.309142 0.814708
vt 0.309142 0.993889
vt 0.442613 0.993889
vt 0.442613 0.814708
vt 0.309142 0.814708
vt 0.309142 0.993889
vt 0.309142 0.993889
vt 0.309142 0.814708
vt 0.442613 0.814708
vt 0.442613 0.993889
vt 0.309142 0.993889
vt 0.309142 0.814708
vt 0.485468 0.992018
vt 0.312883 0.992018
vt 0.312883 0.816579
vt 0.485468 0.816579
vt 0.312883 0.816579
vt 0.312883 0.992018
vt 0.312883 0.816579
vt 0.312883 0.992018
vt 0.485468 0.992018
vt 0.485468 0.816579
vt 0.312883 0.816579
vt 0.312883 0.992018
vt 0.309142 0.814708
vt 0.309142 0.993889
vt 0.442613 0.993889
vt 0.442613 0.814708
vt 0.309142 0.814708
vt 0.309142 0.993889
vt 0.309142 0.993889
vt 0.309142 0.814708
vt 0.442613 0.814708
vt 0.442613 0.993889
vt 0.309142 0.993889
vt 0.309142 0.814708
vt 0.485468 0.992018
vt 0.312883 0.992018
vt 0.312883 0.816579
vt 0.485468 0.816579
vt 0.312883 0.816579
vt 0.312883 0.992018
vt 0.312883 0.816579
vt 0.312883 0.992018
vt 0.485468 0.992018
vt 0.485468 0.816579
vt 0.312883 0.816579
vt 0.312883 0.992018
vt 0.452327 0.056049
vt 0.452327 0.007134
vt 0.533041 0.007134
vt 0.530487 0.062860
vt 0.452327 0.104964
vt 0.613756 0.007134
vt 0.531338 0.110924
vt 0.448921 0.158136
vt 0.612904 0.062009
vt 0.694470 0.007134
vt 0.529636 0.165799
vt 0.441258 0.216417
vt 0.529636 0.214714
vt 0.612904 0.113478
vt 0.693619 0.060306
vt 0.783699 0.008837
vt 0.781145 0.056900
vt 0.612904 0.162393
vt 0.612904 0.211308
vt 0.693619 0.109221
vt 0.783699 0.105816
vt 0.695322 0.164948
vt 0.693619 0.213863
vt 0.781145 0.153028
vt 0.787105 0.213011
vt 0.948560 0.015702
vt 0.990917 0.012824
vt 0.990917 0.102738
vt 0.942662 0.100211
vt 0.906203 0.012824
vt 0.990917 0.182579
vt 0.901042 0.101054
vt 0.855843 0.005139
vt 0.943399 0.181737
vt 0.990917 0.262421
vt 0.853524 0.099369
vt 0.809692 0.011948
vt 0.811167 0.099369
vt 0.898830 0.181737
vt 0.944874 0.261579
vt 0.989442 0.355001
vt 0.947823 0.353913
vt 0.856473 0.181737
vt 0.814116 0.181737
vt 0.902517 0.261579
vt 0.904027 0.355001
vt 0.854261 0.263263
vt 0.811904 0.261579
vt 0.863144 0.353913
vt 0.812642 0.354053
vt 0.326415 0.772032
vt 0.161179 0.772032
vt 0.161179 0.732319
vt 0.161179 0.692606
vt 0.326415 0.692606
vt 0.326415 0.732319
vt 0.491651 0.772032
vt 0.491651 0.692606
vt 0.491651 0.732319
vt 0.326415 0.772032
vt 0.161179 0.772032
vt 0.161179 0.732319
vt 0.161179 0.692606
vt 0.326415 0.692606
vt 0.326415 0.732319
vt 0.491651 0.772032
vt 0.491651 0.692606
vt 0.491651 0.732319
vt 0.668599 0.556099
vt 0.707839 0.517420
vt 0.680546 0.556192
vt 0.707632 0.595614
vt 0.707606 0.528798
vt 0.746665 0.556099
vt 0.726740 0.575562
vt 0.696821 0.566559
vt 0.734665 0.556192
vt 0.624101 0.598183
vt 0.585068 0.558668
vt 0.597016 0.558761
vt 0.624308 0.519989
vt 0.643209 0.578131
vt 0.663135 0.558668
vt 0.624075 0.531367
vt 0.643209 0.539391
vt 0.613290 0.569128
vt 0.647647 0.530495
vt 0.648267 0.585750
vt 0.647699 0.557902
vt 0.620640 0.585296
vt 0.581633 0.557809
vt 0.620640 0.530509
vt 0.609855 0.568269
vt 0.593580 0.557902
vt 0.647647 0.530495
vt 0.648267 0.585750
vt 0.647699 0.557902
vt 0.620640 0.585296
vt 0.581633 0.557809
vt 0.620640 0.530509
vt 0.609855 0.568269
vt 0.593580 0.557902
vt 0.647647 0.530495
vt 0.648267 0.585750
vt 0.647699 0.557902
vt 0.620640 0.585296
vt 0.581633 0.557809
vt 0.620640 0.530509
vt 0.609855 0.568269
vt 0.593580 0.557902
vt 0.680031 0.584040
vt 0.680031 0.528157
vt 0.688472 0.575562
vt 0.726740 0.575562
vt 0.735233 0.584040
vt 0.688472 0.536822
vt 0.734613 0.528785
vt 0.722523 0.556492
vt 0.726740 0.536822
vn 0.348376 0.936302 0.04441599999999994
vn 0.348377 0.936302 0.044412999999999946
vn 0.348376 0.936302 0.04441599999999994
vn 0.348375 0.936302 0.044418999999999945
vn -0.928488 0.371355 -0.0024890000000000224
vn -0.928488 0.371355 -0.0024890000000000224
vn -0.928488 0.371355 -0.0024890000000000224
vn -0.928488 0.371355 -0.0024890000000000224
vn -0.348376 -0.936302 -0.044412999999999946
vn -0.348376 -0.936302 -0.044411999999999945
vn -0.348376 -0.936302 -0.044412999999999946
vn -0.348376 -0.936302 -0.044412999999999946
vn 0.928488 -0.371355 0.0024910000000000227
vn 0.928488 -0.371354 0.0024950000000000224
vn 0.928488 -0.371355 0.0024910000000000227
vn 0.928487 -0.371356 0.0024870000000000226
vn -0.018831 -0.04038399999999994 0.999007
vn -0.018831 -0.04038399999999994 0.999007
vn -0.018831 -0.04038399999999994 0.999007
vn -0.018831 -0.04038399999999994 0.999007
vn -0.166449 0.985049 0.044415999999999935
vn -0.166447 0.98505 0.04441199999999994
vn -0.166449 0.985049 0.044415999999999935
vn -0.166451 0.985049 0.04441899999999994
vn -0.989771 -0.142642 -0.0024889999999999912
vn -0.989771 -0.142642 -0.0024889999999999912
vn -0.989771 -0.142642 -0.0024889999999999912
vn -0.989771 -0.142642 -0.0024879999999999915
vn 0.166449 -0.985049 -0.04441399999999994
vn 0.166449 -0.985049 -0.04441399999999994
vn 0.166449 -0.985049 -0.04441399999999994
vn 0.166449 -0.985049 -0.04441399999999994
vn 0.989772 0.14264 0.002491999999999991
vn 0.989771 0.142641 0.002494999999999991
vn 0.989772 0.14264 0.002491999999999991
vn 0.989772 0.14264 0.0024889999999999912
vn 0.003884 -0.044388999999999935 0.999007
vn 0.003884 -0.044388999999999935 0.999007
vn 0.003884 -0.044388999999999935 0.999007
vn 0.003883 -0.044388999999999935 0.999007
vn -0.701349 0.711433 0.044415999999999956
vn -0.701347 0.711435 0.04441199999999996
vn -0.701349 0.711433 0.044415999999999956
vn -0.70135 0.711432 0.04441899999999996
vn -0.728957 -0.684555 -0.002488999999999958
vn -0.728957 -0.684555 -0.002486999999999958
vn -0.728957 -0.684555 -0.002488999999999958
vn -0.728957 -0.684555 -0.002489999999999958
vn 0.701348 -0.711434 -0.04441199999999996
vn 0.701348 -0.711434 -0.04441199999999996
vn 0.701348 -0.711434 -0.04441199999999996
vn 0.701348 -0.711434 -0.04441199999999996
vn 0.728958 0.684554 0.002490999999999958
vn 0.728957 0.684555 0.002493999999999958
vn 0.728958 0.684554 0.002490999999999958
vn 0.728958 0.684554 0.002486999999999958
vn 0.028642 -0.034133999999999935 0.999007
vn 0.028642 -0.034133999999999935 0.999007
vn 0.028642 -0.034133999999999935 0.999007
vn 0.028641 -0.034133999999999935 0.999007
vn -0.470724 0.726279 0.500937
vn -0.470724 0.726279 0.500938
vn -0.281658 0.41225400000000006 0.866438
vn 0.252001 -0.43344399999999994 0.865229
vn 0.453601 -0.738513 0.49884300000000004
vn 0.453601 -0.738513 0.49884300000000004
vn -0.573573 -0.819155 5.01587774377775E-17
vn 0.422621 -0.906307 5.549529832974201E-17
vn -0.996195 0.087152 -5.336520891964506E-18
vn -0.422615 0.906309 -5.549542079442193E-17
vn 0.573579 0.81915 -5.015847127607772E-17
vn 0.996195 -0.087153 5.336582124304464E-18
vn 0.422621 -0.906307 5.549529832974201E-17
vn -0.573573 -0.819155 5.01587774377775E-17
vn -0.566352 -0.824096 0.01057000000000005
vn 0.429561 -0.9012 0.05758900000000006
vn -0.995914 0.077104 -0.047020000000000006
vn -0.42956 0.9012 -0.05758900000000006
vn 0.566354 0.824094 -0.01057000000000005
vn 0.995914 -0.077105 0.047020000000000006
vn 0.429561 -0.9012 0.05758900000000006
vn -0.566352 -0.824096 0.01057000000000005
vn 0.466617 -0.73712 0.48879800000000007
vn 0.533926 -0.843449 0.059306000000000046
vn 0.533926 -0.843449 0.059306000000000046
vn 0.233308 -0.36855999999999994 0.899851
vn -0.242455 0.38300800000000007 0.891359
vn -0.484909 0.766015 0.42199899999999996
vn -0.534544 0.844424 -0.034806000000000045
vn -0.534544 0.844424 -0.034806000000000045
vn -0.23098 0.972813 -0.01682000000000006
vn -0.23098 0.972813 -0.01682000000000006
vn -0.230978 0.972814 -0.01682000000000006
vn -0.230978 0.972814 -0.01682000000000006
vn -0.230977 0.972814 -0.01682000000000006
vn -0.230977 0.972814 -0.01682000000000006
vn 0.230978 -0.972814 -0.01681899999999994
vn 0.230979 -0.972814 -0.01681899999999994
vn 0.230978 -0.972814 -0.01681899999999994
vn 0.230978 -0.972814 -0.01681899999999994
vn 0.230978 -0.972814 -0.01681899999999994
vn 0.230979 -0.972813 -0.016819999999999943
vn 0.972875 0.230993 -0.012511000000000013
vn 0.972875 0.230994 -0.012511000000000013
vn 0.972875 0.230993 -0.012510000000000014
vn 0.972875 0.230993 -0.012510000000000014
vn 0.972875 0.230993 -0.012511000000000013
vn 0.972875 0.230992 -0.012512000000000014
vn -0.972875 -0.230993 -0.012509999999999986
vn -0.972875 -0.230994 -0.012508999999999985
vn -0.972875 -0.230993 -0.012509999999999986
vn -0.972875 -0.230992 -0.012509999999999986
vn -0.972875 -0.230992 -0.012509999999999986
vn -0.972875 -0.230993 -0.012510999999999986
vn -0.74719 0.664398 -0.016820000000000043
vn -0.74719 0.664398 -0.016820000000000043
vn -0.747189 0.664398 -0.016820000000000043
vn -0.747189 0.664398 -0.016820000000000043
vn -0.747189 0.664399 -0.016820000000000043
vn -0.747189 0.664398 -0.016820000000000043
vn 0.74719 -0.664398 -0.01681899999999996
vn 0.74719 -0.664398 -0.01681899999999996
vn 0.747189 -0.664398 -0.01681899999999996
vn 0.747189 -0.664399 -0.01681899999999996
vn 0.747189 -0.664399 -0.01681999999999996
vn 0.747189 -0.664398 -0.01681999999999996
vn 0.66444 0.747237 -0.012511000000000045
vn 0.664441 0.747236 -0.012510000000000045
vn 0.664441 0.747236 -0.012510000000000045
vn 0.66444 0.747237 -0.012511000000000045
vn 0.66444 0.747237 -0.012511000000000045
vn 0.664441 0.747236 -0.012512000000000046
vn -0.66444 -0.747237 -0.012509999999999955
vn -0.664439 -0.747238 -0.012508999999999954
vn -0.66444 -0.747237 -0.012509999999999955
vn -0.664441 -0.747236 -0.012510999999999954
vn -0.664441 -0.747236 -0.012509999999999955
vn -0.664441 -0.747236 -0.012509999999999955
vn -0.049086 0.041188000000000065 0.997945
vn -0.049086 0.041188000000000065 0.997945
vn -0.018786 0.01576300000000006 0.999699
vn -0.003101 0.003051000000000061 0.999991
vn -0.049086 0.041188000000000065 0.997945
vn -0.026772 0.01997400000000006 0.999442
vn -0.002175 0.002727000000000061 0.999994
vn -0.049086 0.041188000000000065 0.997945
vn -0.032547 0.04481300000000006 0.998465
vn 0.006931 0.07124600000000006 0.997435
vn 0.000399 0.002058000000000061 0.999998
vn -0.049086 0.041188000000000065 0.997945
vn 0.016392 -0.01375499999999994 0.999771
vn 0.02635 0.02103900000000006 0.999431
vn 0.090564 0.04333700000000006 0.994947
vn 0.170422 -0.09263699999999994 0.981007
vn 0.114142 -0.018108999999999938 0.993299
vn 0.025732 -0.019201999999999938 0.999485
vn 0.01637 -0.01373599999999994 0.999772
vn 0.059972 0.03333600000000006 0.997643
vn 0 6.123233995736766E-17 1
vn 0 6.123233995736766E-17 1
vn 0 6.123233995736766E-17 1
vn 0 6.123233995736766E-17 1
vn 0 6.123233995736766E-17 1
vn 0.020828 -0.057224999999999936 0.998144
vn 0.020828 -0.057224999999999936 0.998144
vn 0.00797 -0.02189799999999994 0.999728
vn 0.001103 -0.003984999999999938 0.999991
vn 0.020828 -0.057223999999999935 0.998144
vn 0.012584 -0.029260999999999936 0.999493
vn 0.000494 -0.0032789999999999386 0.999995
vn 0.020828 -0.057224999999999936 0.998144
vn 0.005514 -0.05242099999999994 0.99861
vn -0.039596 -0.055254999999999936 0.997687
vn -0.001306 -0.0015039999999999388 0.999998
vn 0.020828 -0.057224999999999936 0.998144
vn -0.006954 0.019106000000000064 0.999793
vn -0.031707 -0.004824999999999939 0.999486
vn -0.095223 0.00742700000000006 0.995428
vn -0.096458 0.15750000000000006 0.982797
vn -0.085484 0.06919900000000005 0.993934
vn -0.012053 0.028030000000000062 0.999534
vn -0.006946 0.01908300000000006 0.999794
vn -0.065306 0.001073000000000061 0.997865
vn 0 6.123233995736766E-17 1
vn 0 6.123233995736766E-17 1
vn 0 6.123233995736766E-17 1
vn 0 6.123233995736766E-17 1
vn 0 6.123233995736766E-17 1
vn 0 6.123233995736766E-17 1
vn 0 6.123233995736766E-17 1
vn -0 6.123233995736766E-17 1
vn 0 6.123233995736766E-17 1
vn -0 6.123233995736766E-17 1
vn -0 6.123233995736766E-17 1
vn 0 6.123233995736766E-17 1
vn -0 6.123233995736766E-17 1
vn 0 6.123233995736766E-17 1
vn 0 6.123233995736766E-17 1
vn 0 6.123233995736766E-17 1
vn -0 6.123233995736766E-17 1
vn 0 6.123233995736766E-17 1
vn -0 6.123233995736766E-17 1
vn -0 6.123233995736766E-17 1
vn 0 6.123233995736766E-17 1
vn -0 6.123233995736766E-17 1
vn 0 6.123233995736766E-17 1
vn -0.653281 0.653281 -0.38268500000000005
vn -0.832459 -0.416233 -0.365736
vn -0.59604 0.791965 0.13238999999999995
vn 0.527592 0.819111 -0.22517600000000004
vn -0.542063 -0.834945 0.09504800000000005
vn 0.524677 -0.711329 -0.46768099999999996
vn 0.933532 0.330306 0.13934499999999997
vn 0.099138 -0.10601299999999994 0.98941
vn 0.525998 -0.823973 0.21069900000000005
vn 0.527594 0.81911 -0.22517400000000007
vn -0.653285 0.653283 -0.38267500000000004
vn -0.596037 0.791968 0.13239099999999995
vn -0.711325 -0.524677 -0.46768699999999996
vn 0.958265 0.15017100000000003 0.243265
vn 0.623252 -0.623252 -0.47234899999999996
vn -0.823973 -0.526001 0.21069300000000002
vn 0.173968 -0.980945 0.08650000000000005
vn -0.072958 -0.17613999999999994 0.981658
vn -0.511686 -0.652143 -0.559363
vn 0.703874 -0.43780800000000003 -0.559362
vn 0.171176 -0.970791 0.16811700000000004
vn 0.966445 0.249698 0.06028899999999999
vn -0.122788 0.696363 -0.707108
vn -0.993563 -0.095905 0.060286000000000006
vn -2E-06 2.0000000000612323E-06 1
vn -0.169011 0.958502 0.22958499999999996
vn -0.511686 -0.652143 -0.559362
vn 0.703873 -0.43780900000000006 -0.559362
vn 0.171175 -0.970791 0.16811700000000004
vn 0.966445 0.249698 0.06028799999999999
vn -0.122789 0.696362 -0.707108
vn -0.993563 -0.095905 0.06028700000000001
vn -2E-06 2.0000000000612323E-06 1
vn -0.169011 0.958502 0.22958499999999996
vn -0.045095 -0.827697 -0.559361
vn 0.827697 0.045092999999999966 -0.559361
vn 0.697041 -0.697043 0.16811900000000005
vn 0.648444 0.758871 0.060288999999999954
vn -0.5 0.49999799999999994 -0.707108
vn -0.758871 -0.648445 0.06028800000000004
vn -3E-06 1.0000000000612324E-06 1
vn -0.68822 0.688218 0.22958499999999996
vn 0.29432 0.882957 -0.36573500000000003
vn -0.882959 0.294315 -0.365736
vn -0.2071 0.973692 0.09504799999999994
vn 0.973693 0.207097 0.09504599999999999
vn 0.882957 -0.29432 -0.365735
vn -0.973691 -0.207102 0.09505200000000001
vn -0.294319 -0.88296 -0.36572899999999997
vn 0 -3.999999999938768E-06 1
vn 0.207097 -0.973692 0.09504800000000005
g 01
f 1/1/1 2/2/2 3/3/3
f 3/3/3 4/4/4 1/1/1
f 5/5/5 6/6/6 7/7/7
f 7/7/7 8/8/8 5/5/5
f 9/9/9 10/10/10 11/11/11
f 11/11/11 12/12/12 9/9/9
f 13/13/13 14/14/14 15/15/15
f 15/15/15 16/16/16 13/13/13
f 17/17/17 18/18/18 19/19/19
f 19/19/19 20/20/20 17/17/17
f 21/21/21 22/22/22 23/23/23
f 23/23/23 24/24/24 21/21/21
f 25/25/25 26/26/26 27/27/27
f 27/27/27 28/28/28 25/25/25
f 29/29/29 30/30/30 31/31/31
f 31/31/31 32/32/32 29/29/29
f 33/33/33 34/34/34 35/35/35
f 35/35/35 36/36/36 33/33/33
f 37/37/37 38/38/38 39/39/39
f 39/39/39 40/40/40 37/37/37
f 41/41/41 42/42/42 43/43/43
f 43/43/43 44/44/44 41/41/41
f 45/45/45 46/46/46 47/47/47
f 47/47/47 48/48/48 45/45/45
f 49/49/49 50/50/50 51/51/51
f 51/51/51 52/52/52 49/49/49
f 53/53/53 54/54/54 55/55/55
f 55/55/55 56/56/56 53/53/53
f 57/57/57 58/58/58 59/59/59
f 59/59/59 60/60/60 57/57/57
f 61/61/61 62/62/62 63/63/63
f 63/63/63 64/64/64 61/61/61
f 64/64/64 63/63/63 65/65/65
f 65/65/65 66/66/66 64/64/64
f 67/67/67 68/68/68 69/69/69
f 69/69/69 70/70/70 67/67/67
f 70/70/70 69/69/69 71/71/71
f 71/71/71 72/72/72 70/70/70
f 72/72/72 71/71/71 73/73/73
f 73/73/73 74/74/74 72/72/72
f 75/75/75 76/76/76 77/77/77
f 77/77/77 78/78/78 75/75/75
f 78/78/78 77/77/77 79/79/79
f 79/79/79 80/80/80 78/78/78
f 80/80/80 79/79/79 81/81/81
f 81/81/81 82/82/82 80/80/80
f 83/83/83 84/84/84 85/85/85
f 85/85/85 86/86/86 83/83/83
f 87/87/87 83/83/83 86/86/86
f 86/86/86 88/88/88 87/87/87
f 89/89/89 87/87/87 88/88/88
f 88/88/88 90/90/90 89/89/89
f 91/91/91 92/92/92 93/93/93
f 93/93/93 94/94/94 91/91/91
f 95/95/95 94/94/94 93/93/93
f 93/93/93 96/96/96 95/95/95
f 97/97/97 98/98/98 99/99/99
f 99/99/99 100/100/100 97/97/97
f 101/101/101 100/100/100 99/99/99
f 99/99/99 102/102/102 101/101/101
f 103/103/103 104/104/104 105/105/105
f 105/105/105 106/106/106 103/103/103
f 103/103/103 106/106/106 107/107/107
f 107/107/107 108/108/108 103/103/103
f 109/109/109 110/110/110 111/111/111
f 111/111/111 112/112/112 109/109/109
f 113/113/113 112/112/112 111/111/111
f 111/111/111 114/114/114 113/113/113
f 115/115/115 116/116/116 117/117/117
f 117/117/117 118/118/118 115/115/115
f 119/119/119 118/118/118 117/117/117
f 117/117/117 120/120/120 119/119/119
f 121/121/121 122/122/122 123/123/123
f 123/123/123 124/124/124 121/121/121
f 125/125/125 124/124/124 123/123/123
f 123/123/123 126/126/126 125/125/125
f 127/127/127 128/128/128 129/129/129
f 129/129/129 130/130/130 127/127/127
f 127/127/127 130/130/130 131/131/131
f 131/131/131 132/132/132 127/127/127
f 133/133/133 134/134/134 135/135/135
f 135/135/135 136/136/136 133/133/133
f 137/137/137 136/136/136 135/135/135
f 135/135/135 138/138/138 137/137/137
f 139/139/139 140/140/140 141/141/141
f 141/141/141 142/142/142 139/139/139
f 143/143/143 139/139/139 142/142/142
f 142/142/142 141/141/141 144/144/144
f 142/142/142 145/145/145 143/143/143
f 146/146/146 143/143/143 145/145/145
f 144/144/144 147/147/147 142/142/142
f 145/145/145 142/142/142 147/147/147
f 147/147/147 144/144/144 148/148/148
f 145/145/145 149/149/149 146/146/146
f 150/150/150 146/146/146 149/149/149
f 149/149/149 151/151/151 150/150/150
f 147/147/147 152/152/152 145/145/145
f 149/149/149 145/145/145 152/152/152
f 148/148/148 153/153/153 147/147/147
f 152/152/152 147/147/147 153/153/153
f 153/153/153 148/148/148 154/154/154
f 154/154/154 155/155/155 153/153/153
f 151/151/151 149/149/149 156/156/156
f 152/152/152 156/156/156 149/149/149
f 156/156/156 157/157/157 151/151/151
f 153/153/153 158/158/158 152/152/152
f 158/158/158 153/153/153 155/155/155
f 156/156/156 152/152/152 158/158/158
f 155/155/155 159/159/159 158/158/158
f 157/157/157 156/156/156 160/160/160
f 158/158/158 160/160/160 156/156/156
f 160/160/160 158/158/158 159/159/159
f 160/160/160 161/161/161 157/157/157
f 159/159/159 162/162/162 160/160/160
f 161/161/161 160/160/160 162/162/162
f 162/162/162 163/163/163 161/161/161
f 164/164/164 165/165/165 166/166/166
f 166/166/166 167/167/167 164/164/164
f 168/168/168 164/164/164 167/167/167
f 167/167/167 166/166/166 169/169/169
f 167/167/167 170/170/170 168/168/168
f 171/171/171 168/168/168 170/170/170
f 169/169/169 172/172/172 167/167/167
f 170/170/170 167/167/167 172/172/172
f 172/172/172 169/169/169 173/173/173
f 170/170/170 174/174/174 171/171/171
f 175/175/175 171/171/171 174/174/174
f 174/174/174 176/176/176 175/175/175
f 172/172/172 177/177/177 170/170/170
f 174/174/174 170/170/170 177/177/177
f 173/173/173 178/178/178 172/172/172
f 177/177/177 172/172/172 178/178/178
f 178/178/178 173/173/173 179/179/179
f 179/179/179 180/180/180 178/178/178
f 176/176/176 174/174/174 181/181/181
f 177/177/177 181/181/181 174/174/174
f 181/181/181 182/182/182 176/176/176
f 178/178/178 183/183/183 177/177/177
f 183/183/183 178/178/178 180/180/180
f 181/181/181 177/177/177 183/183/183
f 180/180/180 184/184/184 183/183/183
f 182/182/182 181/181/181 185/185/185
f 183/183/183 185/185/185 181/181/181
f 185/185/185 183/183/183 184/184/184
f 185/185/185 186/186/186 182/182/182
f 184/184/184 187/187/187 185/185/185
f 186/186/186 185/185/185 187/187/187
f 187/187/187 188/188/188 186/186/186
f 189/189/189 190/190/190 191/191/191
f 191/191/191 192/192/192 193/193/193
f 191/191/191 194/194/194 189/189/189
f 193/193/193 194/194/194 191/191/191
f 195/195/195 189/189/189 194/194/194
f 194/194/194 193/193/193 196/196/196
f 194/194/194 197/197/197 195/195/195
f 196/196/196 197/197/197 194/194/194
f 198/198/198 199/199/199 200/200/200
f 200/200/200 201/201/201 202/202/202
f 200/200/200 203/203/203 198/198/198
f 202/202/202 203/203/203 200/200/200
f 204/204/204 198/198/198 203/203/203
f 203/203/203 202/202/202 205/205/205
f 203/203/203 206/206/206 204/204/204
f 205/205/205 206/206/206 203/203/203
f 207/207/207 208/208/208 209/209/209
f 210/210/210 207/207/207 209/209/209
f 211/211/211 209/209/209 208/208/208
f 208/208/208 212/212/212 211/211/211
f 209/209/209 213/213/213 210/210/210
f 212/212/212 210/210/210 213/213/213
f 214/214/214 209/209/209 211/211/211
f 213/213/213 209/209/209 214/214/214
f 215/215/215 211/211/211 212/212/212
f 211/211/211 215/215/215 214/214/214
f 213/213/213 215/215/215 212/212/212
f 215/215/215 213/213/213 214/214/214
f 216/216/216 217/217/217 218/218/218
f 217/217/217 219/219/219 218/218/218
f 218/218/218 220/220/220 216/216/216
f 221/221/221 216/216/216 220/220/220
f 222/222/222 218/218/218 219/219/219
f 219/219/219 221/221/221 223/223/223
f 223/223/223 222/222/222 219/219/219
f 220/220/220 223/223/223 221/221/221
f 224/224/224 218/218/218 222/222/222
f 222/222/222 223/223/223 224/224/224
f 220/220/220 218/218/218 224/224/224
f 223/223/223 220/220/220 224/224/224
f 225/225/225 226/226/226 227/227/227
f 228/228/228 227/227/227 226/226/226
f 226/226/226 229/229/229 228/228/228
f 227/227/227 230/230/230 225/225/225
f 229/229/229 225/225/225 230/230/230
f 227/227/227 228/228/228 231/231/231
f 230/230/230 227/227/227 231/231/231
f 232/232/232 228/228/228 229/229/229
f 231/231/231 228/228/228 232/232/232
f 230/230/230 232/232/232 229/229/229
f 231/231/231 232/232/232 230/230/230
f 233/233/233 234/234/234 235/235/235
f 236/236/236 235/235/235 234/234/234
f 234/234/234 237/237/237 236/236/236
f 235/235/235 238/238/238 233/233/233
f 237/237/237 233/233/233 238/238/238
f 235/235/235 236/236/236 239/239/239
f 238/238/238 235/235/235 239/239/239
f 240/240/240 236/236/236 237/237/237
f 239/239/239 236/236/236 240/240/240
f 238/238/238 240/240/240 237/237/237
f 239/239/239 240/240/240 238/238/238
f 241/241/241 242/242/242 243/243/243
f 244/244/244 243/243/243 242/242/242
f 242/242/242 245/245/245 244/244/244
f 243/243/243 246/246/246 241/241/241
f 245/245/245 241/241/241 246/246/246
f 243/243/243 244/244/244 247/247/247
f 246/246/246 243/243/243 247/247/247
f 248/248/248 244/244/244 245/245/245
f 247/247/247 244/244/244 248/248/248
f 246/246/246 248/248/248 245/245/245
f 247/247/247 248/248/248 246/246/246
f 249/249/249 250/250/250 251/251/251
f 251/251/251 252/252/252 249/249/249
f 253/253/253 249/249/249 252/252/252
f 254/254/254 251/251/251 250/250/250
f 250/250/250 255/255/255 254/254/254
f 256/256/256 252/252/252 251/251/251
f 256/256/256 251/251/251 254/254/254
f 252/252/252 257/257/257 253/253/253
f 256/256/256 257/257/257 252/252/252
f 255/255/255 253/253/253 257/257/257
f 254/254/254 257/257/257 256/256/256
f 257/257/257 254/254/254 255/255/255
