v -0.982808 -0.07680099999999988 1.892761
v -0.507044 -0.05478299999999989 1.813721
v -0.92291 -0.5376059999999999 1.826843
v -0.507044 -0.45779799999999987 1.813599
v -0.17663 -0.1057999999999999 1.780273
v -0.231623 -0.44452999999999987 1.751709
v 0.235643 -0.0676069999999999 1.633224
v 0.23073 -0.3908899999999999 1.611191
v 0.293932 -0.047312999999999904 1.557663
v 0.272905 -0.3908899999999999 1.535629
v 0.357408 -0.07681499999999991 1.335983
v 0.333696 -0.39088999999999996 1.31395
v 0.437669 -0.08897699999999993 1.137009
v 0.413713 -0.39088999999999996 1.134995
v 0.361589 -0.30189099999999996 1.143188
v 0.45362 -0.013753999999999931 1.12738
v 0.508137 -0.3631539999999999 1.143188
v 0.581705 -0.11054899999999993 1.092224
v 0.599739 0.13051000000000004 1.103455
v 0.683237 -0.10709299999999992 1.051559
v 0.737617 0.16952400000000006 1.061218
v 0.74708 -0.10643499999999995 1.018295
v 0.76197 0.16952400000000006 1.028992
v 0.771433 -0.10643499999999995 0.986069
v 0.798835 0.17535200000000006 0.754211
v 0.821482 -0.09724899999999996 0.657211
v 0.529833 -0.29223799999999994 1.138916
v 0.496594 -0.3856939999999999 1.116516
v 0.389944 -0.27888299999999994 1.138916
v 0.454301 -0.4138279999999999 1.133484
v 0.511487 -0.40485199999999993 1.116516
v 0.498765 -0.43922599999999995 1.1297
v 0.567761 -0.4206599999999999 1.106323
v 0.555039 -0.46067499999999995 1.123169
v 0.599072 -0.42756799999999995 1.102417
v 0.603623 -0.47481999999999996 1.114838
v 0.652295 -0.41151599999999994 1.091553
v 0.657822 -0.46444399999999997 1.085663
v 0.708264 -0.37063799999999997 1.063934
v 0.750989 -0.37097299999999994 1.03891
v 0.703843 -0.46066299999999993 1.058533
v 0.766614 -0.37190799999999996 1.019119
v 0.714463 -0.46895299999999995 1.017868
v 0.800198 -0.35159999999999997 0.869461
v 0.734276 -0.47983599999999993 0.894211
v 0.829724 -0.33528699999999995 0.591385
v 0.746201 -0.514668 0.642136
v 0.792224 0.17317100000000005 0.745972
v 0.954535 0.23826300000000006 0.722046
v 0.792224 0.06926500000000003 0.735535
v 0.96839 0.09145200000000005 0.722046
v 1.09516 0.26822300000000004 0.713593
v 1.109015 0.12010900000000004 0.713593
v 1.236014 0.34284800000000004 0.706024
v 1.268065 0.11517700000000004 0.691963
v 1.256866 0.34284800000000004 0.673187
v 1.28501 0.11413200000000004 0.653511
v 1.380477 0.380278 0.272797
v 1.396315 0.12343200000000001 0.276703
v 1.515609 0.485625 9.199999999997027E-05
v 1.579955 0.134704 0.003997999999999991
v 0.767528 0.06282900000000004 0.741013
v 1.073333 0.04079500000000004 0.681122
v 0.765635 -0.15450399999999997 0.655273
v 1.038909 -0.12735899999999997 0.630249
v 1.183318 0.02961300000000004 0.645325
v 1.130218 -0.03818299999999996 0.625
v 1.243361 0.0006720000000000379 0.619476
v 1.194199 -0.04494799999999997 0.608185
v 1.275343 -0.09332199999999997 0.559845
v 1.237167 -0.14571699999999999 0.548554
v 1.311842 -0.16501199999999996 0.516144
v 1.288769 -0.23104299999999997 0.505829
v 1.342064 -0.18843599999999996 0.49881
v 1.343053 -0.25434599999999996 0.502167
v 1.367942 -0.18098999999999998 0.477082
v 1.368932 -0.25434599999999996 0.480438
v 1.441795 -0.15398199999999998 0.270783
v 1.445226 -0.26756 0.267548
v 1.543021 -0.149191 0.205231
v 1.530461 -0.26756 0.20175200000000001
v 1.676093 -0.149191 0.10019000000000002
v 1.67867 -0.270032 0.10165500000000001
v 1.727454 -0.149191 -5.999999999999087E-05
v 1.730031 -0.270032 0.0014050000000000165
v 0.980653 -0.03887599999999996 0.662842
v 1.016919 -0.3166109999999999 0.59021
v 0.769948 -0.06957199999999995 0.682129
v 0.780579 -0.37268299999999993 0.609741
v 1.006176 -0.44539599999999996 0.583374
v 0.756165 -0.565493 0.647949
v 1.061474 -0.539634 0.557983
v 0.914246 -0.66821 0.624268
v 1.123425 -0.600165 0.559937
v 1.074158 -0.720708 0.59082
v 1.186657 -0.548713 0.538116
v 1.351147 -0.586478 0.503677
v 1.189881 -0.672838 0.548063
v 1.301403 -0.37222999999999995 0.507355
v 1.345654 -0.36551599999999995 0.499237
v 1.376507 -0.576156 0.46870400000000007
v 1.368084 -0.36551599999999995 0.464264
v 1.47379 -0.533439 0.25788900000000003
v 1.460484 -0.33937 0.253448
v 1.694541 -0.504821 0.09065200000000002
v 1.681236 -0.28456 0.09719800000000002
v 1.751213 -0.504821 -0.006392999999999969
v 1.737907 -0.28456 0.00015300000000001743
vt 0.991702 0.995963
vt 0.682655 0.995851
vt 0.991618 0.006134
vt 0.681541 0.006947
vt 0.503234 0.995554
vt 0.503470 0.006800
vt 0.301854 0.995684
vt 0.301727 0.007274
vt 0.222056 0.995754
vt 0.221763 0.007271
vt 0.097251 0.995841
vt 0.096995 0.007216
vt 0.004975 0.995915
vt 0.005712 0.007194
vt 0.996965 0.999476
vt 0.620151 0.999476
vt 0.996965 0.011223
vt 0.620151 0.011223
vt 0.422735 0.999476
vt 0.422735 0.011223
vt 0.269103 0.999476
vt 0.269103 0.011223
vt 0.214754 0.999476
vt 0.214754 0.011223
vt 0.004130 0.999476
vt 0.004130 0.011223
vt 0.988965 0.013625
vt 0.819436 0.013625
vt 0.988965 0.988349
vt 0.819436 0.988349
vt 0.758380 0.013625
vt 0.758380 0.988349
vt 0.697325 0.013625
vt 0.697325 0.988349
vt 0.636269 0.013625
vt 0.636269 0.988349
vt 0.514158 0.013625
vt 0.514158 0.988349
vt 0.453103 0.013625
vt 0.330992 0.013625
vt 0.392047 0.988349
vt 0.269936 0.013625
vt 0.269936 0.988349
vt 0.147825 0.013625
vt 0.147826 0.988349
vt 0.012078 0.013625
vt 0.012078 0.988349
vt 1.000000 0.000000
vt 0.856484 0.000000
vt 1.000000 1.000000
vt 0.858581 1.000000
vt 0.748874 0.000000
vt 0.746862 1.000000
vt 0.600000 0.000000
vt 0.600000 1.000000
vt 0.554069 0.000000
vt 0.552368 1.000000
vt 0.300000 0.000000
vt 0.300000 1.000000
vt 0.000000 0.000000
vt 0.000000 1.000000
vt 0.993652 0.000000
vt 0.829769 0.000000
vt 0.993652 0.993348
vt 0.829769 0.993348
vt 0.698133 0.000000
vt 0.698133 0.993348
vt 0.632315 0.000000
vt 0.632315 0.993348
vt 0.566497 0.000000
vt 0.566497 0.993348
vt 0.481330 0.000000
vt 0.481330 0.993348
vt 0.415512 0.000000
vt 0.415512 0.993348
vt 0.349694 0.000000
vt 0.349694 0.993348
vt 0.218058 0.000000
vt 0.218058 0.993348
vt 0.152240 0.000000
vt 0.152240 0.993348
vt 0.086422 0.000000
vt 0.086422 0.993348
vt 0.006382 0.000000
vt 0.006382 0.993348
vt 0.993150 0.004108
vt 0.897823 0.004108
vt 0.993150 0.990413
vt 0.897823 0.990413
vt 0.741696 0.004108
vt 0.741696 0.990413
vt 0.619272 0.004108
vt 0.619272 0.990413
vt 0.493245 0.004108
vt 0.493245 0.990413
vt 0.438451 0.004108
vt 0.328863 0.990413
vt 0.438451 0.990413
vt 0.383657 0.004108
vt 0.328863 0.004108
vt 0.274068 0.990413
vt 0.274068 0.004108
vt 0.186248 0.990413
vt 0.186248 0.004108
vt 0.075909 0.990413
vt 0.075909 0.004108
vt 0.006854 0.990413
vt 0.006854 0.004108
vn 0.110977 -0.06743699999999994 0.991532
vn 0.132352 -0.00029999999999993926 0.991203
vn 0.057239 -0.13408099999999995 0.989316
vn 0.136782 -0.06338099999999995 0.988572
vn 0.224157 -0.08471099999999994 0.970865
vn 0.288662 -0.10733599999999995 0.951395
vn 0.499467 -0.08910799999999995 0.861738
vn 0.692117 -0.07286999999999996 0.718097
vn 0.884029 -0.07217099999999997 0.461827
vn 0.934289 -0.08452599999999998 0.346352
vn 0.947091 -0.08802499999999999 0.308658
vn 0.932639 -0.08750799999999997 0.350037
vn 0.915859 -0.08549699999999998 0.392291
vn 0.91033 -0.07494899999999997 0.407041
vn 0.161619 0.07614400000000006 0.983911
vn 0.233565 -0.04373299999999994 0.971357
vn 0.073798 0.17653500000000005 0.981524
vn 0.230985 0.00457300000000006 0.972947
vn 0.303847 -0.07615299999999994 0.949673
vn 0.383779 -0.09594899999999995 0.918427
vn 0.541272 -0.09726699999999995 0.835203
vn 0.699132 -0.08642199999999996 0.709751
vn 0.887432 -0.040979999999999975 0.459113
vn 0.952596 -0.008483999999999981 0.304119
vn 0.989618 0.02077900000000001 0.142213
vn 0.988103 0.028296000000000012 0.15117
vn 0.290376 -0.22196699999999994 0.930813
vn 0.424586 -0.09526999999999994 0.900361
vn -0.004023 -0.04213699999999994 0.999104
vn 0.273067 0.013182000000000058 0.961905
vn 0.24319 0.24465100000000006 0.938619
vn 0.235247 0.2847950000000001 0.929274
vn 0.219906 0.30437100000000006 0.926822
vn 0.217976 0.30470200000000003 0.927169
vn 0.181173 0.2874920000000001 0.940492
vn 0.284889 0.16515800000000005 0.944225
vn 0.365263 0.057081000000000055 0.929153
vn 0.487461 -0.05757099999999994 0.871245
vn 0.495139 -0.06726899999999994 0.866206
vn 0.640415 -0.17291999999999993 0.74831
vn 0.684258 -0.22840099999999994 0.692549
vn 0.840907 -0.405534 0.358355
vn 0.868422 -0.450071 0.20803800000000003
vn 0.885662 -0.446664 0.12685900000000003
vn 0.899107 -0.4222 0.11555900000000002
vn 0.902957 -0.421564 0.08337700000000003
vn 0.912506 -0.39714 0.09804500000000002
vn 0.114738 -0.04322499999999994 0.992455
vn 0.099802 0.009419000000000061 0.994963
vn 0.088425 -0.09955299999999995 0.991096
vn 0.08683 -0.018836999999999937 0.996045
vn 0.05628 0.005281000000000061 0.998401
vn 0.081194 -0.010706999999999939 0.996641
vn 0.376516 0.017558000000000056 0.926244
vn 0.699509 0.04483000000000004 0.713216
vn 0.906159 0.08521100000000002 0.414265
vn 0.941092 0.07748700000000001 0.329153
vn 0.933731 0.07219500000000002 0.350619
vn 0.893948 0.09444300000000003 0.438107
vn 0.852883 0.10903500000000003 0.510589
vn 0.816328 0.15587600000000001 0.556158
vn 0.140675 -0.34065999999999996 0.929603
vn 0.211502 -0.3224369999999999 0.92266
vn 0.120804 -0.36520299999999994 0.923057
vn 0.313381 -0.43384399999999995 0.844732
vn 0.38416 -0.48404699999999995 0.786205
vn 0.357768 -0.516624 0.777883
vn 0.20241 -0.43291399999999997 0.878416
vn 0.235677 -0.42752499999999993 0.872742
vn 0.265847 -0.41728099999999996 0.869024
vn 0.29799 -0.34899699999999995 0.888484
vn 0.31128 -0.3022389999999999 0.900975
vn 0.251774 -0.15619699999999995 0.955098
vn 0.363897 -0.053751999999999946 0.929887
vn 0.47422 0.050176000000000054 0.878975
vn 0.762429 0.04154300000000004 0.645737
vn 0.86792 0.03122400000000003 0.495721
vn 0.847945 0.013860000000000034 0.529903
vn 0.72914 -0.02659199999999996 0.683848
vn 0.59082 -0.06133199999999995 0.804469
vn 0.596341 -0.05151499999999995 0.801077
vn 0.70715 -0.014367999999999957 0.706917
vn 0.802135 0.024336000000000038 0.596647
vn 0.889728 0.02449700000000003 0.455834
vn 0.889728 0.02449700000000003 0.455834
vn 0.128291 -0.23034099999999993 0.964616
vn 0.11629 -0.14806299999999994 0.982117
vn 0.121462 -0.22653199999999996 0.966401
vn 0.132278 -0.08885699999999995 0.987222
vn 0.186372 0.00759600000000006 0.98245
vn 0.242287 0.09086000000000005 0.965941
vn 0.256973 0.11639900000000006 0.959383
vn 0.240822 0.19261100000000006 0.951265
vn 0.219016 0.18595300000000006 0.957838
vn 0.253806 0.13184800000000005 0.958227
vn 0.237251 0.09188100000000006 0.967094
vn 0.484438 0.046534000000000054 0.873587
vn 0.2689 0.08387300000000006 0.959509
vn 0.194425 0.02831200000000006 0.980509
vn 0.555374 0.03050700000000005 0.831041
vn 0.876049 0.054006000000000026 0.479189
vn 0.855845 0.04065400000000004 0.515633
vn 0.709825 0.04866900000000004 0.702695
vn 0.819208 0.05998700000000003 0.570351
vn 0.789912 0.02951300000000004 0.61251
vn 0.691098 0.03655800000000004 0.721836
vn 0.862946 0.037152000000000025 0.503928
vn 0.862946 0.037152000000000025 0.503928
g water
f 105/105/105 107/107/107 108/108/108
f 108/108/108 106/106/106 105/105/105
f 103/103/103 105/105/105 106/106/106
f 106/106/106 104/104/104 103/103/103
f 101/101/101 103/103/103 104/104/104
f 104/104/104 102/102/102 101/101/101
f 97/97/97 101/101/101 102/102/102
f 102/102/102 100/100/100 97/97/97
f 97/97/97 100/100/100 99/99/99
f 99/99/99 96/96/96 97/97/97
f 98/98/98 97/97/97 96/96/96
f 95/95/95 98/98/98 96/96/96
f 96/96/96 94/94/94 95/95/95
f 93/93/93 95/95/95 94/94/94
f 94/94/94 92/92/92 93/93/93
f 91/91/91 93/93/93 92/92/92
f 92/92/92 90/90/90 91/91/91
f 89/89/89 91/91/91 90/90/90
f 90/90/90 87/87/87 89/89/89
f 86/86/86 88/88/88 89/89/89
f 89/89/89 87/87/87 86/86/86
f 83/83/83 85/85/85 84/84/84
f 84/84/84 82/82/82 83/83/83
f 81/81/81 83/83/83 82/82/82
f 82/82/82 80/80/80 81/81/81
f 79/79/79 81/81/81 80/80/80
f 80/80/80 78/78/78 79/79/79
f 77/77/77 79/79/79 78/78/78
f 78/78/78 76/76/76 77/77/77
f 75/75/75 77/77/77 76/76/76
f 76/76/76 74/74/74 75/75/75
f 73/73/73 75/75/75 74/74/74
f 74/74/74 72/72/72 73/73/73
f 71/71/71 73/73/73 72/72/72
f 72/72/72 70/70/70 71/71/71
f 69/69/69 71/71/71 70/70/70
f 70/70/70 68/68/68 69/69/69
f 67/67/67 69/69/69 68/68/68
f 68/68/68 66/66/66 67/67/67
f 65/65/65 67/67/67 66/66/66
f 66/66/66 63/63/63 65/65/65
f 62/62/62 64/64/64 65/65/65
f 65/65/65 63/63/63 62/62/62
f 59/59/59 61/61/61 60/60/60
f 60/60/60 58/58/58 59/59/59
f 57/57/57 59/59/59 58/58/58
f 58/58/58 56/56/56 57/57/57
f 55/55/55 57/57/57 56/56/56
f 56/56/56 54/54/54 55/55/55
f 53/53/53 55/55/55 54/54/54
f 54/54/54 52/52/52 53/53/53
f 51/51/51 53/53/53 52/52/52
f 52/52/52 49/49/49 51/51/51
f 48/48/48 50/50/50 51/51/51
f 51/51/51 49/49/49 48/48/48
f 45/45/45 47/47/47 46/46/46
f 46/46/46 44/44/44 45/45/45
f 43/43/43 45/45/45 44/44/44
f 44/44/44 42/42/42 43/43/43
f 41/41/41 43/43/43 42/42/42
f 42/42/42 40/40/40 41/41/41
f 41/41/41 40/40/40 39/39/39
f 38/38/38 41/41/41 39/39/39
f 39/39/39 37/37/37 38/38/38
f 36/36/36 38/38/38 37/37/37
f 37/37/37 35/35/35 36/36/36
f 34/34/34 36/36/36 35/35/35
f 35/35/35 33/33/33 34/34/34
f 32/32/32 34/34/34 33/33/33
f 33/33/33 31/31/31 32/32/32
f 30/30/30 32/32/32 31/31/31
f 31/31/31 28/28/28 30/30/30
f 27/27/27 29/29/29 30/30/30
f 30/30/30 28/28/28 27/27/27
f 24/24/24 26/26/26 25/25/25
f 25/25/25 23/23/23 24/24/24
f 22/22/22 24/24/24 23/23/23
f 23/23/23 21/21/21 22/22/22
f 20/20/20 22/22/22 21/21/21
f 21/21/21 19/19/19 20/20/20
f 18/18/18 20/20/20 19/19/19
f 19/19/19 16/16/16 18/18/18
f 15/15/15 17/17/17 18/18/18
f 18/18/18 16/16/16 15/15/15
f 13/13/13 11/11/11 12/12/12
f 12/12/12 14/14/14 13/13/13
f 11/11/11 9/9/9 10/10/10
f 10/10/10 12/12/12 11/11/11
f 9/9/9 7/7/7 8/8/8
f 8/8/8 10/10/10 9/9/9
f 7/7/7 5/5/5 6/6/6
f 6/6/6 8/8/8 7/7/7
f 5/5/5 2/2/2 4/4/4
f 4/4/4 6/6/6 5/5/5
f 4/4/4 2/2/2 1/1/1
f 1/1/1 3/3/3 4/4/4
