v -0.151286 -0.22993699999999997 0.358412
v -0.14338 -0.21281199999999997 0.392264
v -0.124658 -0.23766399999999996 0.380749
v -0.138945 -0.23437999999999998 0.399559
v -0.14338 -0.21281199999999997 0.392264
v -0.151286 -0.22993699999999997 0.358412
v -0.124658 -0.23766399999999996 0.380749
v -0.138945 -0.23437999999999998 0.399559
v 0.013502 -0.08983699999999997 0.416009
v 0.021587 -0.11424799999999997 0.380688
v 0.005855 -0.05642799999999998 0.390883
v -0.14338 -0.21281199999999997 0.392264
v 0.150104 -0.005181999999999974 0.430077
v -0.138945 -0.23437999999999998 0.399559
v 0.013502 -0.08983699999999997 0.416009
v 0.163743 -0.05139799999999998 0.374308
v 0.137204 0.04726800000000002 0.38294
v 0.013502 -0.08983699999999997 0.416009
v 0.013502 -0.08983699999999997 0.416009
v 0.150104 -0.005181999999999974 0.430077
v 0.300825 0.07539200000000001 0.272089
v 0.150104 -0.005181999999999974 0.430077
v 0.300825 0.02429800000000002 0.355822
v 0.300825 -0.02714499999999998 0.304294
v 0.682025 0.025271000000000033 0.584062
v 0.300825 0.02429800000000002 0.355822
v 0.688284 -0.027618999999999966 0.582971
v 0.979161 0.12334500000000005 0.954451
v 1.006248 0.11285700000000005 0.941345
v 1.070928 0.27844400000000014 1.38665
v 1.056339 0.2816050000000001 1.386631
v 0.979161 0.12334500000000005 0.954451
v 1.006248 0.11285700000000005 0.941345
v 0.722241 -0.039368999999999967 0.543645
v 1.006248 0.11285700000000005 0.941345
v 0.688284 -0.027618999999999966 0.582971
v 0.300825 -0.02714499999999998 0.304294
v 0.376327 -0.034591999999999984 0.24671
v 0.736969 0.006259000000000032 0.52043
v 0.432003 -0.022400999999999987 0.226011
v 1.006248 0.11285700000000005 0.941345
v 0.432003 -0.022400999999999987 0.226011
v 0.356239 -0.061230999999999994 0.110134
v 0.352436 -0.079389 0.014691000000000004
v 0.385073 -0.054008999999999995 0.099026
v 0.385073 -0.054008999999999995 0.099026
v 0.432003 -0.022400999999999987 0.226011
v 0.335407 -0.083654 0.021251000000000003
v 0.352436 -0.079389 0.014691000000000004
v 0.321756 -0.062269 -0.022048999999999996
v 0.352436 -0.079389 0.014691000000000004
v 0.347062 -0.058698 0.007361000000000004
v 0.385073 -0.054008999999999995 0.099026
v 0.375973 -0.018973999999999994 0.086615
v 0.415067 0.048362000000000016 0.200541
v 0.432003 -0.022400999999999987 0.226011
v 1.004039 0.14043200000000006 0.935194
v 1.070928 0.27844400000000014 1.38665
v 1.070119 0.29364800000000013 1.388101
v 0.36868 0.20523000000000002 0.234027
v 0.406201 0.10707700000000002 0.266521
v 0.415067 0.048362000000000016 0.200541
v 0.736969 0.006259000000000032 0.52043
v 0.406201 0.10707700000000002 0.266521
v 0.3771 0.17731 0.186168
v 0.36868 0.20523000000000002 0.234027
v 1.004039 0.14043200000000006 0.935194
v 0.712114 0.046209000000000035 0.545409
v 0.978329 0.14917800000000006 0.943294
v 1.070119 0.29364800000000013 1.388101
v 0.978329 0.14917800000000006 0.943294
v 0.978329 0.14917800000000006 0.943294
v 1.055349 0.29761700000000013 1.38809
v 0.406201 0.10707700000000002 0.266521
v 0.979161 0.12334500000000005 0.954451
v 1.056339 0.2816050000000001 1.386631
v 0.978329 0.14917800000000006 0.943294
v 0.682025 0.025271000000000033 0.584062
v 0.300825 0.07539200000000001 0.272089
v 0.318406 0.19016300000000003 0.23373
v 0.36868 0.20523000000000002 0.234027
v 0.297165 0.288918 0.22002199999999997
v 0.320081 0.295786 0.22031899999999996
v 0.257142 0.316273 0.21993499999999996
v 0.323919 0.283059 0.17245999999999997
v 0.278635 0.326775 0.22034899999999996
v 0.237138 0.335812 0.22034899999999996
v 0.273033 0.338818 0.19447899999999999
v 0.237138 0.335812 0.22034899999999996
v 0.234641 0.470422 0.11724599999999998
v -0.119193 0.520524 0.11724599999999998
v -0.135575 0.503936 0.25327099999999997
v -0.332403 0.41145 0.11724599999999998
v -0.329783 0.378969 0.256397
v -0.427784 0.199955 0.11724599999999999
v -0.39484 0.18764400000000003 0.259617
v -0.369981 0.19183600000000003 0.367079
v -0.555826 0.020011000000000008 0.117246
v -0.526526 0.026341000000000017 0.259675
v -0.523221 -0.20226199999999997 0.259733
v -0.554448 -0.245951 0.11724600000000002
v 0.887871 -0.22848099999999996 0.557827
v 1.151362 -0.3915719999999999 0.839169
v 1.156341 -0.40187199999999995 0.830187
v 0.892592 -0.24301299999999998 0.53653
v 0.574715 0.030846000000000023 0.414565
v 1.145279 -0.41074599999999994 0.826953
v 0.553019 0.007882000000000023 0.37988
v 0.876069 -0.2633599999999999 0.536782
v 0.492322 -0.0038879999999999752 0.402429
v 0.876069 -0.2633599999999999 0.536782
v 1.145279 -0.41074599999999994 0.826953
v 1.139807 -0.40102599999999994 0.835735
v 0.873352 -0.24954499999999996 0.562676
v 1.151362 -0.3915719999999999 0.839169
v 0.492322 -0.0038879999999999752 0.402429
v 0.523894 -0.016144999999999972 0.445736
v 0.887871 -0.22848099999999996 0.557827
v 0.556715 0.01599700000000003 0.455266
v 0.574715 0.030846000000000023 0.414565
v 0.329374 -0.061838 -0.012337999999999997
v 0.333581 -0.062204999999999996 0.117246
v 0.2963 -0.257174 0.11757100000000001
v 0.362224 -0.08467499999999999 0.257648
v 0.45714 0.10948600000000001 0.117246
v 0.446317 0.206952 0.11724599999999999
v -0.030065 -0.285333 0.367079
v 0.111475 -0.409082 0.11724600000000003
v -0.314098 -0.415775 0.11724600000000003
v 0.261218 0.279558 0.255511
v 0.405736 0.302505 0.11724599999999999
v 0.356569 0.362987 0.11724599999999998
v 0.1687 -0.04470599999999998 0.367079
v 0.08434 0.266773 0.394761
v 0.234641 0.470422 0.11724599999999998
v -0.135575 0.503936 0.25327099999999997
v -0.103414 0.07071900000000003 0.425353
v -0.120274 0.327834 0.367079
v -0.329783 0.378969 0.256397
v -0.369981 0.19183600000000003 0.367079
v -0.271034 -0.10431099999999997 0.413401
v -0.526526 0.026341000000000017 0.259675
v -0.523221 -0.20226199999999997 0.259733
v -0.310542 -0.261461 0.283136
v -0.554448 -0.245951 0.11724600000000002
v 0.45714 0.10948600000000001 0.117246
v 0.333581 -0.062204999999999996 0.117246
v 0.329374 -0.061838 -0.012337999999999997
v 0.347701 0.273666 0.03162799999999999
v 0.446317 0.206952 0.11724599999999999
v 0.405736 0.302505 0.11724599999999999
v 0.356569 0.362987 0.11724599999999998
v 0.234641 0.470422 0.11724599999999998
v 0.224126 0.247898 -0.08705800000000001
v -0.082336 0.28295 -0.08705800000000001
v -0.119193 0.520524 0.11724599999999998
v -0.332403 0.41145 0.11724599999999998
v 0.241851 -0.03588800000000001 -0.087058
v -0.351991 0.14149 -0.08705800000000001
v -0.427784 0.199955 0.11724599999999999
v -0.555826 0.020011000000000008 0.117246
v -0.00488 0.07442599999999999 -0.154064
v -0.323315 -0.005568000000000005 -0.087058
v -0.554448 -0.245951 0.11724600000000002
v 0.100038 -0.195526 -0.08705799999999998
v 0.2963 -0.257174 0.11757100000000001
v 0.111475 -0.409082 0.11724600000000003
v -0.314098 -0.415775 0.11724600000000003
v -0.281085 -0.222133 -0.08705799999999998
vt -0.053096 -1.977979
vt 0.046687 -1.977979
vt -0.153313 -1.977979
vt 0.588135 0.973202
vt 0.601437 0.980542
vt 0.570913 0.995036
vt 0.574936 0.969268
vt 0.588135 0.973202
vt 0.593571 0.909666
vt 0.581050 0.913392
vt 0.611185 0.911612
vt 0.601437 0.980542
vt 0.589764 0.859356
vt 0.588135 0.973202
vt 0.593571 0.909666
vt 0.565873 0.863837
vt 0.610499 0.849562
vt 0.593571 0.909666
vt 0.593571 0.909666
vt 0.589764 0.859356
vt 0.602768 0.767648
vt 0.589764 0.859356
vt 0.558661 0.808043
vt 0.515895 0.831707
vt 0.545534 0.651821
vt 0.558661 0.808043
vt 0.509117 0.654769
vt 0.580697 0.474041
vt 0.782864 0.378359
vt 0.785268 0.142185
vt 0.751387 0.141745
vt 0.750115 0.370865
vt 0.782864 0.378359
vt 0.750554 0.603864
vt 0.782864 0.378359
vt 0.721777 0.590148
vt 0.705472 0.784412
vt 0.743288 0.794833
vt 0.786206 0.609993
vt 0.782545 0.794041
vt 0.782864 0.378359
vt 0.782545 0.794041
vt 0.790389 0.866358
vt 0.832246 0.907161
vt 0.810582 0.862480
vt 0.810582 0.862480
vt 0.782545 0.794041
vt 0.820858 0.911634
vt 0.832246 0.907161
vt 0.846639 0.940640
vt 0.832246 0.907161
vt 0.846473 0.904704
vt 0.810582 0.862480
vt 0.832749 0.858602
vt 0.817825 0.803759
vt 0.782545 0.794041
vt 0.815959 0.376219
vt 0.785268 0.142185
vt 0.816096 0.143386
vt 0.674796 0.352872
vt 0.669619 0.397051
vt 0.604941 0.382158
vt 0.629268 0.555370
vt 0.669619 0.397051
vt 0.643722 0.343567
vt 0.674796 0.352872
vt 0.621758 0.798994
vt 0.660673 0.566003
vt 0.645311 0.778419
vt 0.734555 0.924315
vt 0.645311 0.778419
vt 0.645311 0.778419
vt 0.752597 0.905564
vt 0.669619 0.397051
vt 0.685634 0.777254
vt 0.776939 0.891372
vt 0.645311 0.778419
vt 0.695214 0.577093
vt 0.701628 0.389550
vt 0.698863 0.355356
vt 0.674796 0.352872
vt 0.708441 0.330166
vt 0.694418 0.321075
vt 0.726914 0.318152
vt 0.673232 0.308560
vt 0.715706 0.307428
vt 0.744572 0.293171
vt 0.709362 0.293852
vt 0.744572 0.293171
vt 0.970998 0.446281
vt 0.984153 0.591945
vt 0.894768 0.604334
vt 0.988183 0.689662
vt 0.895260 0.698073
vt 0.984372 0.785135
vt 0.888861 0.780829
vt 0.817668 0.772826
vt 0.983834 0.876503
vt 0.888866 0.866909
vt 0.881943 0.961251
vt 0.975584 0.985451
vt 0.925821 0.296088
vt 0.854769 0.579154
vt 0.866441 0.579060
vt 0.946969 0.290632
vt 0.864829 0.041627
vt 0.880067 0.576402
vt 0.909301 0.023024
vt 0.971582 0.291468
vt 0.932138 0.018848
vt 0.541183 0.234035
vt 0.511113 0.527236
vt 0.531653 0.532436
vt 0.557639 0.252794
vt 0.549099 0.536814
vt 0.667689 0.011021
vt 0.671620 0.052631
vt 0.580433 0.261520
vt 0.705036 0.082434
vt 0.748710 0.088049
vt 0.214451 0.502323
vt 0.210036 0.429233
vt 0.289086 0.427031
vt 0.221075 0.355680
vt 0.124404 0.407244
vt 0.082316 0.381108
vt 0.344877 0.250930
vt 0.386234 0.394874
vt 0.511111 0.274236
vt 0.112937 0.273467
vt 0.050341 0.344623
vt 0.032125 0.306275
vt 0.246274 0.271233
vt 0.177599 0.189431
vt 0.013286 0.221662
vt 0.118963 0.076457
vt 0.263033 0.157520
vt 0.191439 0.108270
vt 0.201412 0.010029
vt 0.291454 0.049875
vt 0.343095 0.148362
vt 0.411504 0.038243
vt 0.466754 0.119345
vt 0.429083 0.189824
vt 0.546899 0.159176
vt 0.424014 0.577266
vt 0.474615 0.645652
vt 0.406045 0.686346
vt 0.316478 0.576329
vt 0.380468 0.546291
vt 0.334191 0.526318
vt 0.291737 0.521363
vt 0.206432 0.530029
vt 0.278385 0.644613
vt 0.180214 0.707530
vt 0.066202 0.611230
vt 0.011906 0.706188
vt 0.363321 0.709960
vt 0.139517 0.807633
vt 0.014566 0.811943
vt 0.043026 0.910074
vt 0.259777 0.744466
vt 0.178208 0.842182
vt 0.147791 0.992910
vt 0.361693 0.786771
vt 0.505148 0.780733
vt 0.460888 0.883808
vt 0.292831 0.988497
vt 0.248271 0.880978
vn -0.808306 -0.487101 -0.3307169999999999
vn -0.445238 0.596345 0.667934
vn 0.657434 -0.699154 0.28100700000000006
vn -0.453711 -0.24653399999999995 0.856369
vn -0.445238 0.596345 0.667934
vn -0.808306 -0.487101 -0.3307169999999999
vn 0.657434 -0.699154 0.28100700000000006
vn -0.453711 -0.24653399999999995 0.856369
vn 0.017223 -0.08129999999999994 0.996541
vn 0.417636 -0.68166 0.600766
vn -0.372606 0.4035290000000001 0.835661
vn -0.445238 0.596345 0.667934
vn 0.286733 0.011031000000000058 0.957947
vn -0.453711 -0.24653399999999995 0.856369
vn 0.017223 -0.08129999999999994 0.996541
vn 0.402589 -0.653833 0.640644
vn -0.164466 0.613511 0.77237
vn 0.017223 -0.08129999999999994 0.996541
vn 0.017223 -0.08129999999999994 0.996541
vn 0.286733 0.011031000000000058 0.957947
vn -0.053869 0.769701 0.636128
vn 0.286733 0.011031000000000058 0.957947
vn 0.097318 -0.11908699999999994 0.988103
vn -0.197044 -0.69623 0.690245
vn -0.64876 0.3277340000000001 0.686805
vn 0.097318 -0.11908699999999994 0.988103
vn -0.404582 -0.73839 0.539532
vn -0.703349 -0.49019499999999994 0.51479
vn 0.554904 -0.831709 0.01847600000000005
vn 0.905266 -0.423985 0.027015000000000025
vn -0.530382 -0.761327 0.37293000000000004
vn -0.703349 -0.49019499999999994 0.51479
vn 0.554904 -0.831709 0.01847600000000005
vn 0.298715 -0.953166 -0.047381999999999945
vn 0.554904 -0.831709 0.01847600000000005
vn -0.404582 -0.73839 0.539532
vn -0.197044 -0.69623 0.690245
vn 0.191223 -0.976273 -0.10161199999999994
vn 0.768536 -0.01174200000000004 -0.639699
vn 0.633073 -0.729073 -0.2601359999999999
vn 0.554904 -0.831709 0.01847600000000005
vn 0.633073 -0.729073 -0.2601359999999999
vn 0.287641 -0.945485 0.15271300000000004
vn 0.630337 -0.703319 -0.3286609999999999
vn 0.9145 -0.306292 -0.264338
vn 0.9145 -0.306292 -0.264338
vn 0.633073 -0.729073 -0.2601359999999999
vn 0.180725 -0.970159 -0.16164799999999993
vn 0.630337 -0.703319 -0.3286609999999999
vn 0.505354 -0.539556 -0.673422
vn 0.630337 -0.703319 -0.3286609999999999
vn 0.872599 0.05471299999999997 -0.485363
vn 0.9145 -0.306292 -0.264338
vn 0.918507 0.10337499999999997 -0.381653
vn 0.891085 0.23450099999999996 -0.388557
vn 0.633073 -0.729073 -0.2601359999999999
vn 0.744109 0.512898 -0.42806200000000005
vn 0.905266 -0.423985 0.027015000000000025
vn 0.561741 0.754958 -0.3383570000000001
vn 0.488949 0.3566500000000001 0.796071
vn 0.396189 0.798135 0.45388899999999993
vn 0.891085 0.23450099999999996 -0.388557
vn 0.768536 -0.01174200000000004 -0.639699
vn 0.396189 0.798135 0.45388899999999993
vn 0.916564 0.396545 -0.05159400000000002
vn 0.488949 0.3566500000000001 0.796071
vn 0.744109 0.512898 -0.42806200000000005
vn 0.090546 0.990132 -0.10695800000000005
vn -0.388316 0.920412 -0.045313000000000055
vn 0.561741 0.754958 -0.3383570000000001
vn -0.388316 0.920412 -0.045313000000000055
vn -0.388316 0.920412 -0.045313000000000055
vn -0.887857 0.4601 0.004272999999999972
vn 0.396189 0.798135 0.45388899999999993
vn -0.703349 -0.49019499999999994 0.51479
vn -0.530382 -0.761327 0.37293000000000004
vn -0.388316 0.920412 -0.045313000000000055
vn -0.64876 0.3277340000000001 0.686805
vn -0.053869 0.769701 0.636128
vn -0.060574 0.24332400000000007 0.968052
vn 0.488949 0.3566500000000001 0.796071
vn -0.034557 0.07993000000000006 0.996201
vn 0.442545 0.35944400000000004 0.821556
vn -0.008982 -0.01811399999999994 0.999796
vn 0.766987 0.641136 -0.02600500000000004
vn 0.349342 0.526752 0.774914
vn 0.092391 0.42427200000000004 0.900809
vn 0.50076 0.821134 0.2738209999999999
vn 0.092391 0.42427200000000004 0.900809
vn 0.398932 0.87874 -0.26204600000000006
vn -0.15008 0.892503 -0.42534000000000005
vn -0.139236 0.820047 0.5551
vn -0.625742 0.705202 -0.33337200000000006
vn -0.692914 0.54265 0.47476399999999996
vn -0.884223 0.463194 -0.060013000000000025
vn -0.845998 0.496558 0.19421299999999997
vn -0.487906 0.30838800000000005 0.816605
vn -0.940307 0.25004 -0.23087500000000002
vn -0.797679 0.24051600000000004 0.553047
vn -0.702535 -0.36037699999999995 0.613655
vn -0.79935 -0.52406 -0.2939399999999999
vn 0.415392 0.819613 0.39456699999999995
vn -0.210063 0.744115 0.634165
vn 0.784112 0.2957199999999999 -0.545636
vn 0.651218 0.08194599999999996 -0.754453
vn 0.670113 0.71334 -0.20516900000000005
vn 0.255398 -0.746217 -0.614761
vn 0.278392 -0.18811300000000006 -0.941866
vn -0.269976 -0.832718 -0.48341999999999996
vn -0.518361 -0.843819 -0.13881899999999994
vn -0.269976 -0.832718 -0.48341999999999996
vn 0.255398 -0.746217 -0.614761
vn -0.760894 -0.33203699999999997 0.557488
vn -0.564294 -0.11045699999999994 0.818151
vn -0.210063 0.744115 0.634165
vn -0.518361 -0.843819 -0.13881899999999994
vn -0.507438 -0.3698119999999999 0.778297
vn 0.415392 0.819613 0.39456699999999995
vn -0.030575 0.3634510000000001 0.931111
vn 0.670113 0.71334 -0.20516900000000005
vn 0.754165 -0.24046500000000004 -0.611075
vn 0.909699 -0.391404 -0.13874399999999998
vn 0.805363 -0.586211 -0.08802299999999996
vn 0.772405 -0.21277799999999997 0.598428
vn 0.932068 -0.20403900000000003 -0.29936
vn 0.94246 0.251656 0.22008599999999998
vn 0.1529 -0.526001 0.836627
vn 0.341565 -0.930233 -0.13416299999999995
vn -0.242844 -0.965351 -0.09551999999999994
vn 0.586637 0.28540200000000004 0.757893
vn 0.85285 0.515156 0.08521699999999997
vn 0.693804 0.688389 0.21155699999999994
vn 0.375971 -0.05644599999999995 0.924911
vn 0.300915 0.3805450000000001 0.874434
vn 0.398932 0.87874 -0.26204600000000006
vn -0.139236 0.820047 0.5551
vn 0.013707 0.036290000000000065 0.999247
vn -0.145227 0.39931900000000004 0.905237
vn -0.692914 0.54265 0.47476399999999996
vn -0.487906 0.30838800000000005 0.816605
vn -0.285205 -0.20686499999999994 0.935877
vn -0.797679 0.24051600000000004 0.553047
vn -0.702535 -0.36037699999999995 0.613655
vn -0.310984 -0.687675 0.656043
vn -0.79935 -0.52406 -0.2939399999999999
vn 0.932068 -0.20403900000000003 -0.29936
vn 0.909699 -0.391404 -0.13874399999999998
vn 0.754165 -0.24046500000000004 -0.611075
vn 0.649965 0.31235199999999996 -0.692808
vn 0.94246 0.251656 0.22008599999999998
vn 0.85285 0.515156 0.08521699999999997
vn 0.693804 0.688389 0.21155699999999994
vn 0.398932 0.87874 -0.26204600000000006
vn 0.386985 0.29226399999999997 -0.874543
vn -0.091115 0.518351 -0.8503
vn -0.15008 0.892503 -0.42534000000000005
vn -0.625742 0.705202 -0.33337200000000006
vn 0.404138 -0.13823800000000006 -0.904192
vn -0.495271 0.27227099999999993 -0.82497
vn -0.884223 0.463194 -0.060013000000000025
vn -0.940307 0.25004 -0.23087500000000002
vn -0.003607 0.01487599999999994 -0.999883
vn -0.45425 -0.06491700000000006 -0.888506
vn -0.79935 -0.52406 -0.2939399999999999
vn 0.257777 -0.49256700000000003 -0.831221
vn 0.805363 -0.586211 -0.08802299999999996
vn 0.341565 -0.930233 -0.13416299999999995
vn -0.242844 -0.965351 -0.09551999999999994
vn -0.240969 -0.35058700000000004 -0.904999
g treeeeee [Line03]
f 1/1/1 2/2/2 3/3/3
f 4/4/4 5/5/5 6/6/6
f 6/6/6 7/7/7 8/8/8
f 9/9/9 8/8/8 7/7/7
f 7/7/7 10/10/10 9/9/9
f 11/11/11 12/12/12 8/8/8
f 13/13/13 9/9/9 10/10/10
f 14/14/14 15/15/15 11/11/11
f 10/10/10 16/16/16 13/13/13
f 17/17/17 11/11/11 18/18/18
f 19/19/19 20/20/20 17/17/17
f 21/21/21 17/17/17 22/22/22
f 23/23/23 13/13/13 16/16/16
f 13/13/13 23/23/23 21/21/21
f 16/16/16 24/24/24 23/23/23
f 25/25/25 21/21/21 26/26/26
f 25/25/25 23/23/23 24/24/24
f 24/24/24 27/27/27 25/25/25
f 28/28/28 25/25/25 27/27/27
f 29/29/29 30/30/30 31/31/31
f 31/31/31 32/32/32 33/33/33
f 34/34/34 35/35/35 32/32/32
f 32/32/32 36/36/36 34/34/34
f 36/36/36 37/37/37 38/38/38
f 38/38/38 34/34/34 36/36/36
f 39/39/39 34/34/34 38/38/38
f 38/38/38 40/40/40 39/39/39
f 41/41/41 34/34/34 39/39/39
f 42/42/42 38/38/38 43/43/43
f 44/44/44 45/45/45 43/43/43
f 43/43/43 46/46/46 47/47/47
f 43/43/43 48/48/48 49/49/49
f 50/50/50 51/51/51 48/48/48
f 50/50/50 52/52/52 51/51/51
f 53/53/53 51/51/51 52/52/52
f 52/52/52 54/54/54 53/53/53
f 53/53/53 54/54/54 55/55/55
f 55/55/55 56/56/56 53/53/53
f 39/39/39 56/56/56 55/55/55
f 39/39/39 57/57/57 41/41/41
f 58/58/58 41/41/41 57/57/57
f 57/57/57 59/59/59 58/58/58
f 60/60/60 61/61/61 62/62/62
f 63/63/63 62/62/62 64/64/64
f 62/62/62 65/65/65 66/66/66
f 67/67/67 63/63/63 68/68/68
f 68/68/68 69/69/69 67/67/67
f 70/70/70 67/67/67 71/71/71
f 72/72/72 73/73/73 70/70/70
f 74/74/74 68/68/68 63/63/63
f 75/75/75 76/76/76 73/73/73
f 73/73/73 77/77/77 75/75/75
f 78/78/78 75/75/75 77/77/77
f 77/77/77 68/68/68 78/78/78
f 79/79/79 78/78/78 68/68/68
f 68/68/68 74/74/74 79/79/79
f 80/80/80 79/79/79 74/74/74
f 74/74/74 81/81/81 80/80/80
f 82/82/82 80/80/80 81/81/81
f 81/81/81 83/83/83 82/82/82
f 83/83/83 81/81/81 65/65/65
f 84/84/84 82/82/82 83/83/83
f 65/65/65 85/85/85 83/83/83
f 83/83/83 86/86/86 84/84/84
f 86/86/86 83/83/83 85/85/85
f 87/87/87 84/84/84 86/86/86
f 85/85/85 88/88/88 86/86/86
f 89/89/89 86/86/86 88/88/88
f 90/90/90 91/91/91 92/92/92
f 92/92/92 91/91/91 93/93/93
f 93/93/93 94/94/94 92/92/92
f 94/94/94 93/93/93 95/95/95
f 95/95/95 96/96/96 94/94/94
f 94/94/94 96/96/96 97/97/97
f 96/96/96 95/95/95 98/98/98
f 97/97/97 96/96/96 99/99/99
f 98/98/98 99/99/99 96/96/96
f 100/100/100 99/99/99 98/98/98
f 98/98/98 101/101/101 100/100/100
f 102/102/102 103/103/103 104/104/104
f 104/104/104 105/105/105 102/102/102
f 106/106/106 102/102/102 105/105/105
f 105/105/105 104/104/104 107/107/107
f 105/105/105 108/108/108 106/106/106
f 107/107/107 109/109/109 105/105/105
f 108/108/108 105/105/105 109/109/109
f 109/109/109 110/110/110 108/108/108
f 111/111/111 112/112/112 113/113/113
f 113/113/113 114/114/114 111/111/111
f 114/114/114 113/113/113 115/115/115
f 116/116/116 111/111/111 114/114/114
f 114/114/114 117/117/117 116/116/116
f 115/115/115 118/118/118 114/114/114
f 114/114/114 119/119/119 117/117/117
f 119/119/119 114/114/114 118/118/118
f 118/118/118 120/120/120 119/119/119
f 121/121/121 122/122/122 123/123/123
f 123/123/123 122/122/122 124/124/124
f 124/124/124 122/122/122 125/125/125
f 124/124/124 125/125/125 126/126/126
f 127/127/127 123/123/123 124/124/124
f 127/127/127 128/128/128 123/123/123
f 129/129/129 128/128/128 127/127/127
f 126/126/126 130/130/130 124/124/124
f 126/126/126 131/131/131 130/130/130
f 130/130/130 131/131/131 132/132/132
f 130/130/130 133/133/133 124/124/124
f 124/124/124 133/133/133 127/127/127
f 134/134/134 130/130/130 132/132/132
f 130/130/130 134/134/134 133/133/133
f 132/132/132 135/135/135 134/134/134
f 134/134/134 135/135/135 136/136/136
f 133/133/133 134/134/134 137/137/137
f 127/127/127 133/133/133 137/137/137
f 136/136/136 138/138/138 134/134/134
f 137/137/137 134/134/134 138/138/138
f 138/138/138 136/136/136 139/139/139
f 139/139/139 140/140/140 138/138/138
f 138/138/138 140/140/140 137/137/137
f 137/137/137 140/140/140 141/141/141
f 137/137/137 141/141/141 127/127/127
f 142/142/142 141/141/141 140/140/140
f 142/142/142 143/143/143 141/141/141
f 127/127/127 141/141/141 144/144/144
f 144/144/144 141/141/141 143/143/143
f 144/144/144 129/129/129 127/127/127
f 144/144/144 143/143/143 145/145/145
f 145/145/145 129/129/129 144/144/144
f 146/146/146 147/147/147 148/148/148
f 146/146/146 148/148/148 149/149/149
f 149/149/149 150/150/150 146/146/146
f 149/149/149 151/151/151 150/150/150
f 152/152/152 151/151/151 149/149/149
f 153/153/153 152/152/152 149/149/149
f 149/149/149 154/154/154 153/153/153
f 148/148/148 154/154/154 149/149/149
f 153/153/153 154/154/154 155/155/155
f 155/155/155 156/156/156 153/153/153
f 157/157/157 156/156/156 155/155/155
f 148/148/148 158/158/158 154/154/154
f 155/155/155 159/159/159 157/157/157
f 159/159/159 160/160/160 157/157/157
f 159/159/159 161/161/161 160/160/160
f 162/162/162 155/155/155 154/154/154
f 159/159/159 155/155/155 162/162/162
f 162/162/162 154/154/154 158/158/158
f 159/159/159 163/163/163 161/161/161
f 163/163/163 159/159/159 162/162/162
f 164/164/164 161/161/161 163/163/163
f 158/158/158 165/165/165 162/162/162
f 165/165/165 158/158/158 148/148/148
f 148/148/148 166/166/166 165/165/165
f 165/165/165 166/166/166 167/167/167
f 165/165/165 167/167/167 168/168/168
f 162/162/162 169/169/169 163/163/163
f 162/162/162 165/165/165 169/169/169
f 168/168/168 169/169/169 165/165/165
f 163/163/163 169/169/169 164/164/164
f 168/168/168 164/164/164 169/169/169
