v -0.361296 -0.582246 0.06454500000000005
v -0.310202 -0.390845 0.06454500000000003
v 0.024231 -0.295145 0.06454500000000002
v 0.024231 -0.295145 0.06454500000000002
v -0.263753 -0.853396 -0.003447999999999948
v -0.361296 -0.582246 0.06454500000000005
v 0.242541 -0.370907 -0.0034479999999999776
v -0.263753 -0.853396 -0.003447999999999948
v 0.024231 -0.295145 0.06454500000000002
v 0.312214 -0.52642 -0.003447999999999968
v 0.5073 -0.554333 0.06454500000000003
v 0.502655 -0.781621 0.06454500000000005
v 0.502655 -0.781621 0.06454500000000005
v 0.154288 -0.869346 -0.0034479999999999468
v 0.312214 -0.52642 -0.003447999999999968
v 0.082102 0.020882999999999995 -0.047394
v -0.331293 -0.066843 0.064545
v -0.400967 0.13652 0.06454499999999999
v -0.535669 0.315958 0.06454499999999999
v 0.082102 0.020882999999999995 -0.047394
v -0.400967 0.13652 0.06454499999999999
v -0.2802 0.686797 -0.04739400000000004
v 0.082102 0.020882999999999995 -0.047394
v -0.535669 0.315958 0.06454499999999999
v 0.43047 0.499384 0.06454499999999998
v 0.277188 0.176396 -0.04739400000000001
v 0.096037 0.622997 -0.04739400000000003
v 0.462984 0.240196 0.06454499999999999
v 0.277188 0.176396 -0.04739400000000001
v 0.43047 0.499384 0.06454499999999998
v -0.352171 -0.347312 0.394107
v -0.352171 -0.347312 0.394107
v -0.326783 -0.20621 0.172546
v -0.352171 -0.347312 0.394107
v -0.352171 -0.347312 0.394107
v -0.191309 -0.35664 0.431152
v -0.191309 -0.35664 0.431152
v -0.427319 -0.03940999999999998 0.376653
v -0.352171 -0.347312 0.394107
v -0.326783 -0.20621 0.172546
v -0.400967 0.13652 0.06454499999999999
v -0.331293 -0.066843 0.064545
v -0.654908 0.321411 0.279053
v -0.535669 0.315958 0.06454499999999999
v -0.488928 0.10030700000000001 0.279053
v -0.654908 0.321411 0.279053
v -0.334395 0.311584 0.431152
v -0.654908 0.321411 0.279053
v -0.358371 0.08508500000000002 0.431152
v -0.334395 0.3115840000000001 0.598145
v -0.366061 0.09974300000000004 0.598145
v -0.357289 0.23788300000000004 0.646118
v -0.191309 -0.35663999999999996 0.598145
v -0.202756 -0.597397 0.43115200000000004
v -0.202756 -0.597397 0.598145
v -0.466035 -0.582657 0.31256100000000003
v -0.345842 -0.916769 0.31256100000000003
v -0.352171 -0.347312 0.394107
v -0.191309 -0.35664 0.431152
v -0.396363 -0.346813 0.11773700000000002
v -0.361296 -0.582246 0.06454500000000005
v -0.466035 -0.582657 0.31256100000000003
v -0.310202 -0.390845 0.06454500000000003
v -0.466035 -0.582657 0.31256100000000003
v -0.263753 -0.853396 -0.003447999999999948
v -0.345842 -0.916769 0.31256100000000003
v -0.466035 -0.582657 0.31256100000000003
v 0.060522 -0.641618 0.598145
v -0.272403 -0.759742 0.718246
v -0.329868 -0.6537 0.646118
v -0.329868 -0.6537 0.646118
v -0.202756 -0.597397 0.598145
v -0.322948 -0.4549079999999999 0.646118
v -0.191309 -0.35663999999999996 0.598145
v -0.329868 -0.6537 0.646118
v -0.272403 -0.759742 0.718246
v -0.22565 -0.784107 0.889893
v -0.329868 -0.6537 0.889893
v -0.322948 -0.4549079999999999 0.889893
v -0.374459 -0.002873999999999945 0.889893
v -0.374459 -0.0028739999999999604 0.646118
v -0.366061 0.09974300000000004 0.598145
v -0.357289 0.23788300000000007 0.832397
v -0.357289 0.23788300000000004 0.646118
v 0.502655 -0.781621 0.06454500000000005
v 0.598526 -0.828328 0.31256100000000003
v 0.169268 -0.936423 0.31256100000000003
v 0.169268 -0.936423 0.31256100000000003
v 0.154288 -0.869346 -0.0034479999999999468
v -0.263753 -0.853396 -0.003447999999999948
v 0.169268 -0.936423 0.31256100000000003
v 0.169268 -0.936423 0.31256100000000003
v -0.345842 -0.916769 0.31256100000000003
v 0.192733 0.25747500000000006 0.848633
v 0.192733 0.25747500000000006 0.646118
v -0.013883 0.34106500000000006 0.646118
v -0.013883 0.34106500000000006 0.832397
v 0.192733 0.25747500000000006 0.848633
v -0.357289 0.23788300000000004 0.646118
v -0.357289 0.23788300000000007 0.832397
v -0.357289 0.23788300000000007 0.832397
v -0.374459 -0.002873999999999945 0.889893
v 0.192733 0.25747500000000006 0.848633
v 0.443993 -0.09622899999999994 0.835938
v -0.322948 -0.4549079999999999 0.889893
v 0.558462 -0.4450819999999999 0.835938
v -0.329868 -0.6537 0.889893
v 0.329524 -0.798847 0.889893
v -0.22565 -0.784107 0.889893
v 0.43047 0.499384 0.06454499999999998
v 0.535568 0.547428 0.27905299999999994
v 0.575632 0.22805600000000004 0.279053
v 0.575632 0.22805600000000004 0.279053
v 0.462984 0.240196 0.06454499999999999
v 0.535568 0.547428 0.27905299999999994
v 0.096037 0.622997 -0.04739400000000003
v 0.535568 0.547428 0.27905299999999994
v 0.403929 0.287017 0.431152
v 0.12348 0.699744 0.27905299999999994
v 0.535568 0.547428 0.27905299999999994
v 0.266566 0.404939 0.431152
v 0.403929 0.2870170000000001 0.598145
v -0.2802 0.686797 -0.04739400000000004
v -0.340119 0.778359 0.27905299999999994
v 0.266566 0.40493900000000005 0.598145
v 0.192733 0.25747500000000006 0.646118
v -0.088287 0.498294 0.4311519999999999
v -0.340119 0.778359 0.27905299999999994
v -0.535669 0.315958 0.06454499999999999
v -0.654908 0.321411 0.279053
v -0.334395 0.311584 0.431152
v -0.088287 0.49829400000000007 0.598145
v -0.334395 0.3115840000000001 0.598145
v -0.013883 0.34106500000000006 0.646118
v -0.357289 0.23788300000000004 0.646118
v 0.598526 -0.828328 0.31256100000000003
v 0.502655 -0.781621 0.06454500000000005
v 0.5073 -0.554333 0.06454500000000003
v 0.5073 -0.554333 0.06454500000000003
v 0.604249 -0.548263 0.31256100000000003
v 0.392482 -0.612138 0.43115200000000004
v 0.363865 -0.513869 0.31256100000000003
v 0.312214 -0.52642 -0.003447999999999968
v 0.604249 -0.548263 0.31256100000000003
v 0.604249 -0.548263 0.31256100000000003
v 0.5073 -0.554333 0.06454500000000003
v 0.242541 -0.370907 -0.0034479999999999776
v 0.278013 -0.322246 0.312561
v 0.024231 -0.295145 0.06454500000000002
v 0.009011 -0.228891 0.11773700000000001
v 0.17589 -0.09811499999999998 0.172546
v 0.409652 -0.435255 0.431152
v 0.392482 -0.612138 0.598145
v 0.410216 -0.20923799999999998 0.346802
v 0.409652 -0.43525499999999995 0.598145
v 0.558462 -0.4450819999999999 0.646118
v 0.558462 -0.4450819999999999 0.646118
v 0.529844 -0.20923799999999998 0.598145
v 0.529844 -0.20923799999999998 0.431152
v 0.529844 -0.20923799999999998 0.598145
v 0.364428 0.03152000000000002 0.346802
v 0.484057 0.03152000000000003 0.431152
v 0.346694 0.14944200000000002 0.279053
v 0.082102 0.020882999999999995 -0.047394
v 0.277188 0.176396 -0.04739400000000001
v 0.462984 0.240196 0.06454499999999999
v 0.575632 0.22805600000000004 0.279053
v 0.403929 0.287017 0.431152
v 0.403929 0.287017 0.431152
v 0.484057 0.031520000000000034 0.598145
v 0.403929 0.287017 0.431152
v 0.443993 -0.09622899999999995 0.646118
v 0.558462 -0.4450819999999999 0.646118
v 0.403929 0.2870170000000001 0.598145
v 0.192733 0.25747500000000006 0.646118
v 0.403929 0.287017 0.431152
v -0.326783 -0.20621 0.172546
v 0.17589 -0.09811499999999998 0.172546
v 0.009011 -0.228891 0.11773700000000001
v 0.024231 -0.295145 0.06454500000000002
v -0.310202 -0.390845 0.06454500000000003
v -0.396363 -0.346813 0.11773700000000002
v -0.326783 -0.20621 0.172546
v -0.331293 -0.066843 0.064545
v 0.082102 0.020882999999999995 -0.047394
v 0.17589 -0.09811499999999998 0.172546
v 0.242541 -0.370907 -0.0034479999999999776
v 0.312214 -0.52642 -0.003447999999999968
v 0.154288 -0.869346 -0.0034479999999999468
v -0.263753 -0.853396 -0.003447999999999948
v 0.082102 0.020882999999999995 -0.047394
v -0.2802 0.686797 -0.04739400000000004
v 0.096037 0.622997 -0.04739400000000003
v 0.277188 0.176396 -0.04739400000000001
v 0.133369 0.21655300000000005 0.961517
v -0.015592 0.2645660000000001 0.961517
v -0.136819 0.06981000000000005 1.00589
v 0.151017 0.05367400000000006 1.00589
v -0.203212 -0.08407799999999994 0.961517
v 0.160015 -0.06709099999999994 0.961517
v -0.040913 -0.18163699999999994 0.92482
v 0.168281 0.24597100000000005 0.827972
v 0.133369 0.21655300000000005 0.961517
v 0.151017 0.05367400000000006 1.00589
v 0.151017 0.05367400000000005 0.827972
v 0.160015 -0.06709099999999994 0.961517
v 0.160015 -0.06709099999999994 0.827972
v -0.040913 -0.18163699999999994 0.92482
v -0.040913 -0.18163699999999994 0.827972
v -0.203212 -0.08407799999999994 0.961517
v -0.203212 -0.08407799999999994 0.827972
v -0.203212 -0.08407799999999994 0.827972
v -0.203212 -0.08407799999999994 0.961517
v -0.136819 0.06981000000000005 1.00589
v -0.136819 0.06981000000000005 0.827972
v -0.015592 0.2645660000000001 0.961517
v -0.015592 0.2645660000000001 0.827972
v 0.168281 0.24597100000000005 0.827972
v 0.133369 0.21655300000000005 0.961517
v -0.215984 -0.4551049999999999 0.83316
v -0.219707 -0.4921499999999999 1.009918
v 0.055004 -0.3761669999999999 1.009918
v 0.058727 -0.3391219999999999 0.83316
v 0.168227 -0.45264599999999994 1.009918
v 0.193831 -0.43577499999999997 0.83316
v 0.319928 -0.5904179999999999 0.961517
v 0.319928 -0.590418 0.83316
v 0.319928 -0.590418 0.83316
v 0.319928 -0.5904179999999999 0.961517
v 0.214735 -0.6800749999999999 0.944305
v 0.225355 -0.714133 0.83316
v 0.021086 -0.7187359999999999 0.961517
v 0.031706 -0.752794 0.83316
v -0.19797 -0.644543 0.83316
v -0.172701 -0.6358459999999999 1.009918
v -0.219707 -0.4921499999999999 1.009918
v -0.215984 -0.4551049999999999 0.83316
v 0.021086 -0.7187359999999999 0.961517
v 0.214735 -0.6800749999999999 0.944305
v 0.319928 -0.5904179999999999 0.961517
v -0.172701 -0.6358459999999999 1.009918
v 0.168227 -0.45264599999999994 1.009918
v 0.055004 -0.3761669999999999 1.009918
v -0.219707 -0.4921499999999999 1.009918
v 0.192733 0.25747500000000006 0.646118
v 0.192733 0.25747500000000006 0.848633
v 0.443993 -0.09622899999999994 0.835938
v 0.443993 -0.09622899999999995 0.646118
v 0.558462 -0.4450819999999999 0.835938
v 0.558462 -0.4450819999999999 0.646118
v 0.329524 -0.798847 0.889893
v 0.282771 -0.774483 0.718246
v 0.392482 -0.612138 0.598145
v -0.22565 -0.784107 0.889893
v 0.060522 -0.641618 0.598145
v -0.272403 -0.759742 0.718246
v 0.060522 -0.641618 0.598145
v -0.202756 -0.597397 0.598145
v -0.202756 -0.597397 0.43115200000000004
v 0.392482 -0.612138 0.43115200000000004
v 0.392482 -0.612138 0.598145
v 0.060522 -0.641618 0.43115200000000004
v -0.345842 -0.916769 0.31256100000000003
v 0.598526 -0.828328 0.31256100000000003
v 0.169268 -0.936423 0.31256100000000003
vt 0.733249 0.632971
vt 0.719602 0.685070
vt 0.646725 0.705825
vt 0.646725 0.705825
vt 0.714536 0.554085
vt 0.733249 0.632971
vt 0.599781 0.680165
vt 0.714536 0.554085
vt 0.646725 0.705825
vt 0.587174 0.635707
vt 0.543801 0.623422
vt 0.548845 0.559977
vt 0.548845 0.559977
vt 0.625837 0.542524
vt 0.587174 0.635707
vt 0.625294 0.806763
vt 0.716833 0.785184
vt 0.730797 0.841780
vt 0.757702 0.893564
vt 0.625294 0.806763
vt 0.730797 0.841780
vt 0.696091 0.995624
vt 0.625294 0.806763
vt 0.757702 0.893564
vt 0.540980 0.930023
vt 0.583881 0.842910
vt 0.615287 0.970588
vt 0.537569 0.856778
vt 0.583881 0.842910
vt 0.540980 0.930023
vt 0.848150 0.760931
vt 0.848150 0.760931
vt 0.928842 0.808469
vt 0.848150 0.760931
vt 0.848150 0.760931
vt 0.819237 0.753577
vt 0.819237 0.753577
vt 0.858821 0.868047
vt 0.848150 0.760931
vt 0.928842 0.808469
vt 0.973579 0.927456
vt 0.969066 0.856189
vt 0.913626 0.997188
vt 0.984340 0.992236
vt 0.900367 0.917366
vt 0.913626 0.997188
vt 0.826116 0.985527
vt 0.913626 0.997188
vt 0.830494 0.908784
vt 0.762513 0.985527
vt 0.767464 0.913990
vt 0.747063 0.960947
vt 0.755634 0.753577
vt 0.822591 0.671640
vt 0.758988 0.671640
vt 0.891993 0.683496
vt 0.884049 0.566260
vt 0.848150 0.760931
vt 0.819237 0.753577
vt 0.957499 0.762247
vt 0.976755 0.680923
vt 0.891993 0.683496
vt 0.970201 0.744975
vt 0.891993 0.683496
vt 0.996205 0.585779
vt 0.884049 0.566260
vt 0.891993 0.683496
vt 0.054050 0.619078
vt 0.031914 0.535764
vt 0.069846 0.551422
vt 0.069846 0.551422
vt 0.081997 0.584155
vt 0.135143 0.558063
vt 0.160923 0.592620
vt 0.069846 0.551422
vt 0.031914 0.535764
vt 0.021499 0.492657
vt 0.069846 0.482064
vt 0.135143 0.488706
vt 0.287031 0.494564
vt 0.287031 0.563922
vt 0.320493 0.581663
vt 0.365667 0.520174
vt 0.365667 0.573173
vt 0.988386 0.521675
vt 0.929493 0.564699
vt 0.906477 0.443371
vt 0.906477 0.443371
vt 0.989124 0.418045
vt 0.955090 0.304874
vt 0.906477 0.443371
vt 0.906477 0.443371
vt 0.864541 0.303922
vt 0.225407 0.370665
vt 0.256276 0.419006
vt 0.175618 0.449006
vt 0.162821 0.405945
vt 0.225407 0.370665
vt 0.054765 0.443748
vt 0.049132 0.387767
vt 0.049132 0.387767
vt 0.033157 0.309142
vt 0.225407 0.370665
vt 0.293161 0.253550
vt 0.033014 0.168497
vt 0.316960 0.142080
vt 0.023488 0.107805
vt 0.229161 0.037438
vt 0.052042 0.063727
vt 0.096780 0.833151
vt 0.101391 0.781347
vt 0.035438 0.743950
vt 0.035438 0.743950
vt 0.023328 0.807645
vt 0.101391 0.781347
vt 0.292108 0.859568
vt 0.101391 0.781347
vt 0.120991 0.676838
vt 0.290999 0.793479
vt 0.101391 0.781347
vt 0.193095 0.695860
vt 0.120991 0.633529
vt 0.498122 0.849327
vt 0.492014 0.786442
vt 0.193095 0.652551
vt 0.203901 0.603304
vt 0.351357 0.697875
vt 0.492014 0.786442
vt 0.608306 0.807860
vt 0.585156 0.724470
vt 0.439220 0.638653
vt 0.351357 0.654566
vt 0.427786 0.599875
vt 0.299925 0.610997
vt 0.427428 0.569781
vt 0.983454 0.137123
vt 0.992872 0.239579
vt 0.908164 0.252058
vt 0.908164 0.252058
vt 0.898048 0.173966
vt 0.857366 0.112256
vt 0.828317 0.170854
vt 0.868116 0.292455
vt 0.898048 0.173966
vt 0.898048 0.173966
vt 0.908164 0.252058
vt 0.828961 0.311640
vt 0.754946 0.203542
vt 0.768253 0.349497
vt 0.748176 0.337471
vt 0.682440 0.295572
vt 0.784541 0.121740
vt 0.849619 0.051998
vt 0.696752 0.178487
vt 0.777692 0.063241
vt 0.759349 0.011312
vt 0.759349 0.011312
vt 0.676256 0.072326
vt 0.685678 0.131280
vt 0.676256 0.072326
vt 0.604587 0.223972
vt 0.594522 0.168369
vt 0.560262 0.263302
vt 0.673087 0.397413
vt 0.589185 0.391846
vt 0.524888 0.357950
vt 0.477393 0.287960
vt 0.495249 0.203153
vt 0.495249 0.203153
vt 0.580766 0.109465
vt 0.495249 0.203153
vt 0.617752 0.062597
vt 0.759349 0.011312
vt 0.479768 0.145673
vt 0.449046 0.074185
vt 0.495249 0.203153
vt 0.720373 0.741235
vt 0.610664 0.748898
vt 0.649739 0.723608
vt 0.646725 0.705825
vt 0.719602 0.685070
vt 0.738481 0.702441
vt 0.720373 0.741235
vt 0.716833 0.785184
vt 0.625294 0.806763
vt 0.610664 0.748898
vt 0.599781 0.680165
vt 0.587174 0.635707
vt 0.625837 0.542524
vt 0.714536 0.554085
vt 0.625294 0.806763
vt 0.696091 0.995624
vt 0.615287 0.970588
vt 0.583881 0.842910
vt 0.370930 0.468419
vt 0.413354 0.422035
vt 0.510623 0.454503
vt 0.408803 0.521574
vt 0.576918 0.487159
vt 0.438736 0.560857
vt 0.544087 0.552684
vt 0.025262 0.979276
vt 0.040695 0.937660
vt 0.114038 0.929132
vt 0.111336 0.982575
vt 0.164119 0.944796
vt 0.164689 0.984581
vt 0.251881 0.951485
vt 0.255136 0.981543
vt 0.321406 0.932297
vt 0.328599 0.973376
vt 0.015260 0.903365
vt 0.015260 0.866834
vt 0.077469 0.858186
vt 0.077469 0.906855
vt 0.166602 0.873810
vt 0.166602 0.910341
vt 0.212750 0.905119
vt 0.194643 0.868477
vt 0.397341 0.873310
vt 0.402388 0.922581
vt 0.323301 0.919946
vt 0.318182 0.870546
vt 0.287817 0.928613
vt 0.274531 0.881370
vt 0.229549 0.931555
vt 0.220039 0.897899
vt 0.335095 0.967738
vt 0.342480 0.933254
vt 0.375223 0.947433
vt 0.373332 0.980356
vt 0.421846 0.947116
vt 0.418992 0.984154
vt 0.478921 0.976474
vt 0.470541 0.928125
vt 0.509283 0.917291
vt 0.528394 0.961887
vt 0.688487 0.518171
vt 0.621726 0.531432
vt 0.573700 0.516125
vt 0.734457 0.466507
vt 0.597143 0.453153
vt 0.619047 0.415405
vt 0.724227 0.416476
vt 0.275535 0.040888
vt 0.353729 0.025050
vt 0.404564 0.103227
vt 0.318998 0.120033
vt 0.457440 0.200859
vt 0.370041 0.208714
vt 0.466550 0.363380
vt 0.377183 0.363583
vt 0.313285 0.283421
vt 0.354633 0.474783
vt 0.257041 0.358332
vt 0.273746 0.470259
vt 0.788214 0.447585
vt 0.763504 0.377718
vt 0.811191 0.365031
vt 0.858886 0.526500
vt 0.811199 0.539186
vt 0.835900 0.434899
vt 0.864541 0.303922
vt 0.929493 0.564699
vt 0.906477 0.443371
vn 0 -6.123233995736766E-17 -1
vn 0 -6.123233995736766E-17 -1
vn 0 -6.123233995736766E-17 -1
vn -0.142999 0.19202299999999994 -0.970916
vn -0.142999 0.19202299999999994 -0.970916
vn -0.142999 0.19202299999999994 -0.970916
vn -0.216749 0.22744299999999995 -0.949363
vn -0.216749 0.22744299999999995 -0.949363
vn -0.216749 0.22744299999999995 -0.949363
vn 0.32825 -0.0067080000000000585 -0.944567
vn 0.32825 -0.0067080000000000585 -0.944567
vn 0.32825 -0.0067080000000000585 -0.944567
vn 0.214534 -0.09879800000000005 -0.971707
vn 0.214534 -0.09879800000000005 -0.971707
vn 0.214534 -0.09879800000000005 -0.971707
vn -0.243893 -0.08355900000000005 -0.966196
vn -0.243893 -0.08355900000000005 -0.966196
vn -0.243893 -0.08355900000000005 -0.966196
vn -0.266358 -0.19995200000000005 -0.942906
vn -0.266358 -0.19995200000000005 -0.942906
vn -0.266358 -0.19995200000000005 -0.942906
vn -0.23583 -0.12830800000000006 -0.963287
vn -0.23583 -0.12830800000000006 -0.963287
vn -0.23583 -0.12830800000000006 -0.963287
vn 0.362387 0.14699199999999996 -0.920363
vn 0.362387 0.14699199999999996 -0.920363
vn 0.362387 0.14699199999999996 -0.920363
vn 0.49918 0.06261999999999994 -0.864232
vn 0.49918 0.06261999999999994 -0.864232
vn 0.49918 0.06261999999999994 -0.864232
vn -0.737037 0.20559700000000003 0.643822
vn -0.84049 -0.17608799999999997 0.512416
vn -0.723037 -0.24059100000000003 -0.647559
vn -0.84049 -0.17608799999999997 0.512416
vn -0.737037 0.20559700000000003 0.643822
vn -0.787424 -0.17214699999999997 0.591886
vn -0.787424 -0.17214699999999997 0.591886
vn -0.815779 -0.18413799999999997 0.548268
vn -0.84049 -0.17608799999999997 0.512416
vn -0.723037 -0.24059100000000003 -0.647559
vn -0.81045 -0.436138 -0.391094
vn -0.542773 -0.525367 -0.655276
vn -0.928093 -0.05979899999999998 0.367514
vn -0.888209 0.16903299999999996 -0.427215
vn -0.91758 -0.299256 0.261712
vn -0.928093 -0.05979899999999998 0.367514
vn -0.775152 0.42273400000000005 0.469505
vn -0.928093 -0.05979899999999998 0.367514
vn -0.915477 -0.010973999999999975 0.402222
vn -0.837997 0.442356 0.319502
vn -0.977551 -0.11017900000000001 -0.179595
vn -0.770948 0.626074 0.11691599999999996
vn -0.853815 -0.10946800000000002 -0.508936
vn -0.599887 -0.47675199999999995 0.642528
vn -0.530538 -0.4283930000000001 -0.731443
vn -0.976076 -0.10237099999999999 0.19182
vn -0.405542 -0.654846 0.63774
vn -0.737037 0.20559700000000003 0.643822
vn -0.787424 -0.17214699999999997 0.591886
vn -0.730495 0.39598999999999995 -0.556389
vn -0.812128 -0.053620000000000036 -0.581011
vn -0.976076 -0.10237099999999999 0.19182
vn -0.27947 0.46131599999999995 -0.842071
vn -0.976076 -0.10237099999999999 0.19182
vn -0.529172 -0.784632 -0.32299999999999995
vn -0.405542 -0.654846 0.63774
vn -0.976076 -0.10237099999999999 0.19182
vn -0.039984 -0.906011 -0.42136099999999993
vn -0.308731 -0.834041 -0.45723199999999997
vn -0.798119 -0.39220700000000003 -0.457362
vn -0.798119 -0.39220700000000003 -0.457362
vn -0.530538 -0.4283930000000001 -0.731443
vn -0.818289 -0.040519000000000034 -0.573378
vn -0.853815 -0.10946800000000002 -0.508936
vn -0.798119 -0.39220700000000003 -0.457362
vn -0.308731 -0.834041 -0.45723199999999997
vn -0.466028 -0.854642 0.22892200000000004
vn -0.496452 -0.14137799999999995 0.856474
vn -0.683799 -0.004482999999999955 0.729657
vn -0.594343 0.05577500000000005 0.802276
vn -0.948537 -0.03806900000000002 -0.31437
vn -0.977551 -0.11017900000000001 -0.179595
vn -0.804103 0.496261 0.3273289999999999
vn -0.770948 0.626074 0.11691599999999996
vn 0.544221 -0.772771 -0.32657099999999994
vn 0.730344 -0.511321 0.45293300000000003
vn 0.109203 -0.979963 0.16657600000000006
vn 0.109203 -0.979963 0.16657600000000006
vn 0.120486 -0.969905 -0.21158399999999994
vn -0.529172 -0.784632 -0.32299999999999995
vn 0.109203 -0.979963 0.16657600000000006
vn 0.109203 -0.979963 0.16657600000000006
vn -0.405542 -0.654846 0.63774
vn 0.448981 0.737094 0.505083
vn 0.477404 0.568425 0.670058
vn 0.061843 0.84557 0.530271
vn -0.075208 0.878769 0.4712839999999999
vn 0.448981 0.737094 0.505083
vn -0.770948 0.626074 0.11691599999999996
vn -0.804103 0.496261 0.3273289999999999
vn -0.804103 0.496261 0.3273289999999999
vn -0.594343 0.05577500000000005 0.802276
vn 0.448981 0.737094 0.505083
vn 0.646632 0.35399200000000003 0.67569
vn -0.683799 -0.004482999999999955 0.729657
vn 0.701544 0.05145300000000004 0.710766
vn -0.496452 -0.14137799999999995 0.856474
vn 0.508149 -0.71363 0.4822000000000001
vn -0.466028 -0.854642 0.22892200000000004
vn 0.78847 0.39187199999999994 -0.474079
vn 0.663675 0.685082 0.30033199999999993
vn 0.8899 -0.452113 0.06059900000000003
vn 0.8899 -0.452113 0.06059900000000003
vn 0.621667 -0.713014 -0.32425499999999996
vn 0.663675 0.685082 0.30033199999999993
vn 0.311602 0.903794 -0.29336000000000007
vn 0.663675 0.685082 0.30033199999999993
vn 0.908826 0.251048 0.33318
vn 0.22344 0.914092 0.33839199999999997
vn 0.663675 0.685082 0.30033199999999993
vn 0.429856 0.7638 0.48149099999999995
vn 0.660679 0.4982150000000001 0.561503
vn -0.167795 0.940755 -0.29466000000000003
vn -0.483148 0.845017 0.22915799999999995
vn 0.359078 0.81969 0.44628499999999993
vn 0.477404 0.568425 0.670058
vn -0.088878 0.809623 0.580183
vn -0.483148 0.845017 0.22915799999999995
vn -0.888209 0.16903299999999996 -0.427215
vn -0.928093 -0.05979899999999998 0.367514
vn -0.775152 0.42273400000000005 0.469505
vn -0.204169 0.773509 0.6
vn -0.837997 0.442356 0.319502
vn 0.061843 0.84557 0.530271
vn -0.770948 0.626074 0.11691599999999996
vn 0.730344 -0.511321 0.45293300000000003
vn 0.544221 -0.772771 -0.32657099999999994
vn 0.831581 0.442325 -0.335889
vn 0.831581 0.442325 -0.335889
vn 0.505023 0.821159 0.26580099999999995
vn 0.810014 -0.399151 0.429599
vn 0.683745 0.724513 0.08702599999999996
vn 0.427355 0.896767 -0.11479200000000006
vn 0.505023 0.821159 0.26580099999999995
vn 0.505023 0.821159 0.26580099999999995
vn 0.831581 0.442325 -0.335889
vn 0.736125 0.651644 -0.18297500000000003
vn 0.745022 0.23566699999999996 -0.624022
vn 0.261713 0.792802 -0.550428
vn 0.097036 0.45562099999999994 -0.884869
vn 0.551256 -0.33054100000000003 -0.766067
vn 0.857775 -0.252362 -0.447812
vn 0.689197 -0.582572 -0.43083399999999994
vn 0.55273 -0.13920400000000005 -0.821652
vn 0.832499 -0.30480700000000005 -0.462644
vn 0.891345 -0.306598 -0.33392
vn 0.891345 -0.306598 -0.33392
vn 0.992317 0.016418000000000006 0.122628
vn 0.869263 -0.16532500000000003 -0.465887
vn 0.992317 0.016418000000000006 0.122628
vn 0.627859 -0.05581100000000005 -0.776323
vn 0.909145 0.12662599999999996 -0.396763
vn 0.694757 -0.637801 -0.33244899999999994
vn 0.212012 -0.728101 -0.651859
vn 0.612024 -0.718806 -0.32976399999999995
vn 0.621667 -0.713014 -0.32425499999999996
vn 0.8899 -0.452113 0.06059900000000003
vn 0.908826 0.251048 0.33318
vn 0.908826 0.251048 0.33318
vn 0.8987 0.23821900000000001 0.368226
vn 0.908826 0.251048 0.33318
vn 0.781089 0.30764700000000006 0.543373
vn 0.891345 -0.306598 -0.33392
vn 0.660679 0.4982150000000001 0.561503
vn 0.477404 0.568425 0.670058
vn 0.908826 0.251048 0.33318
vn -0.723037 -0.24059100000000003 -0.647559
vn 0.551256 -0.33054100000000003 -0.766067
vn 0.097036 0.45562099999999994 -0.884869
vn 0.261713 0.792802 -0.550428
vn -0.27947 0.46131599999999995 -0.842071
vn -0.730495 0.39598999999999995 -0.556389
vn -0.723037 -0.24059100000000003 -0.647559
vn -0.542773 -0.525367 -0.655276
vn 0.212012 -0.728101 -0.651859
vn 0.551256 -0.33054100000000003 -0.766067
vn 0 -6.123233995736766E-17 -1
vn 0 -6.123233995736766E-17 -1
vn 0 -6.123233995736766E-17 -1
vn 0 -6.123233995736766E-17 -1
vn 0 -6.123233995736766E-17 -1
vn 0 -6.123233995736766E-17 -1
vn 0 -6.123233995736766E-17 -1
vn 0 -6.123233995736766E-17 -1
vn 0.405042 0.49930300000000005 0.765922
vn -0.319854 0.887425 0.33191999999999994
vn -0.631796 0.36027300000000007 0.686322
vn 0.679535 -0.04382799999999996 0.732333
vn -0.478937 -0.569873 0.667731
vn 0.727656 -0.42434499999999997 0.538933
vn 0.160715 -0.946255 0.28066500000000005
vn 0.711851 0.679107 0.17911599999999997
vn 0.405042 0.49930300000000005 0.765922
vn 0.679535 -0.04382799999999996 0.732333
vn 0.999804 0.019775 -1.2108695226569456E-18
vn 0.727656 -0.42434499999999997 0.538933
vn 0.748139 -0.663542 4.063022931999165E-17
vn 0.160715 -0.946255 0.28066500000000005
vn -0.202064 -0.979372 5.996923924872708E-17
vn -0.478937 -0.569873 0.667731
vn -0.998251 -0.059117 3.619872241259704E-18
vn -0.998251 -0.059117 3.619872241259704E-18
vn -0.478937 -0.569873 0.667731
vn -0.631796 0.36027300000000007 0.686322
vn -0.873935 0.486043 -2.976155020989885E-17
vn -0.319854 0.887425 0.33191999999999994
vn -0.409186 0.912451 -5.587150982644008E-17
vn 0.711851 0.679107 0.17911599999999997
vn 0.405042 0.49930300000000005 0.765922
vn -0.6835 0.717186 0.13590999999999995
vn -0.853405 0.22129900000000002 0.47194
vn -0.065448 0.74638 0.662294
vn 0.27062 0.942592 0.19566699999999995
vn 0.520828 0.576215 0.629853
vn 0.685098 0.719958 0.11091299999999996
vn 0.654788 -0.06506099999999995 0.753007
vn 0.943394 -0.313723 0.10763400000000001
vn 0.943394 -0.313723 0.10763400000000001
vn 0.654788 -0.06506099999999995 0.753007
vn 0.505781 -0.758528 0.4108780000000001
vn 0.399224 -0.869852 0.28978800000000005
vn -0.027737 -0.857587 0.513591
vn -0.117362 -0.962238 0.24560900000000005
vn -0.751568 -0.648918 0.11853800000000005
vn -0.240081 -0.39222599999999996 0.887986
vn -0.853405 0.22129900000000002 0.47194
vn -0.6835 0.717186 0.13590999999999995
vn -0.027737 -0.857587 0.513591
vn 0.505781 -0.758528 0.4108780000000001
vn 0.654788 -0.06506099999999995 0.753007
vn -0.240081 -0.39222599999999996 0.887986
vn 0.520828 0.576215 0.629853
vn -0.065448 0.74638 0.662294
vn -0.853405 0.22129900000000002 0.47194
vn 0.477404 0.568425 0.670058
vn 0.448981 0.737094 0.505083
vn 0.646632 0.35399200000000003 0.67569
vn 0.781089 0.30764700000000006 0.543373
vn 0.701544 0.05145300000000004 0.710766
vn 0.891345 -0.306598 -0.33392
vn 0.508149 -0.71363 0.4822000000000001
vn 0.25591 -0.870284 -0.42085199999999995
vn 0.689197 -0.582572 -0.43083399999999994
vn -0.466028 -0.854642 0.22892200000000004
vn -0.039984 -0.906011 -0.42136099999999993
vn -0.308731 -0.834041 -0.45723199999999997
vn -0.039984 -0.906011 -0.42136099999999993
vn -0.530538 -0.4283930000000001 -0.731443
vn -0.599887 -0.47675199999999995 0.642528
vn 0.810014 -0.399151 0.429599
vn 0.689197 -0.582572 -0.43083399999999994
vn -0.005607 -0.712965 0.701177
vn -0.405542 -0.654846 0.63774
vn 0.730344 -0.511321 0.45293300000000003
vn 0.109203 -0.979963 0.16657600000000006
g Default Standard35
f 1/1/1 2/2/2 3/3/3
f 4/4/4 5/5/5 6/6/6
f 7/7/7 8/8/8 9/9/9
f 10/10/10 11/11/11 12/12/12
f 13/13/13 14/14/14 15/15/15
f 16/16/16 17/17/17 18/18/18
f 19/19/19 20/20/20 21/21/21
f 22/22/22 23/23/23 24/24/24
f 25/25/25 26/26/26 27/27/27
f 28/28/28 29/29/29 30/30/30
f 31/31/31 32/32/32 33/33/33
f 34/34/34 35/35/35 36/36/36
f 34/34/34 37/37/37 38/38/38
f 39/39/39 38/38/38 40/40/40
f 41/41/41 42/42/42 40/40/40
f 43/43/43 44/44/44 41/41/41
f 40/40/40 45/45/45 41/41/41
f 41/41/41 45/45/45 46/46/46
f 45/45/45 40/40/40 38/38/38
f 47/47/47 48/48/48 45/45/45
f 45/45/45 38/38/38 49/49/49
f 45/45/45 49/49/49 47/47/47
f 37/37/37 49/49/49 38/38/38
f 50/50/50 47/47/47 49/49/49
f 49/49/49 51/51/51 50/50/50
f 51/51/51 49/49/49 37/37/37
f 50/50/50 51/51/51 52/52/52
f 37/37/37 53/53/53 51/51/51
f 53/53/53 37/37/37 54/54/54
f 54/54/54 55/55/55 53/53/53
f 56/56/56 57/57/57 54/54/54
f 58/58/58 56/56/56 54/54/54
f 58/58/58 54/54/54 59/59/59
f 58/58/58 60/60/60 56/56/56
f 40/40/40 60/60/60 58/58/58
f 61/61/61 62/62/62 60/60/60
f 60/60/60 63/63/63 61/61/61
f 64/64/64 61/61/61 65/65/65
f 65/65/65 66/66/66 67/67/67
f 68/68/68 69/69/69 70/70/70
f 71/71/71 72/72/72 68/68/68
f 73/73/73 74/74/74 72/72/72
f 72/72/72 75/75/75 73/73/73
f 75/75/75 76/76/76 77/77/77
f 77/77/77 78/78/78 75/75/75
f 75/75/75 78/78/78 79/79/79
f 79/79/79 73/73/73 75/75/75
f 73/73/73 79/79/79 80/80/80
f 74/74/74 73/73/73 81/81/81
f 80/80/80 81/81/81 73/73/73
f 81/81/81 82/82/82 74/74/74
f 81/81/81 80/80/80 83/83/83
f 82/82/82 81/81/81 84/84/84
f 83/83/83 84/84/84 81/81/81
f 85/85/85 86/86/86 87/87/87
f 88/88/88 89/89/89 85/85/85
f 90/90/90 89/89/89 91/91/91
f 92/92/92 93/93/93 90/90/90
f 94/94/94 95/95/95 96/96/96
f 96/96/96 97/97/97 98/98/98
f 97/97/97 96/96/96 99/99/99
f 99/99/99 100/100/100 97/97/97
f 97/97/97 101/101/101 102/102/102
f 102/102/102 103/103/103 97/97/97
f 104/104/104 103/103/103 102/102/102
f 102/102/102 105/105/105 104/104/104
f 106/106/106 104/104/104 105/105/105
f 106/106/106 105/105/105 107/107/107
f 108/108/108 106/106/106 107/107/107
f 107/107/107 109/109/109 108/108/108
f 110/110/110 111/111/111 112/112/112
f 113/113/113 114/114/114 110/110/110
f 115/115/115 110/110/110 116/116/116
f 113/113/113 117/117/117 118/118/118
f 116/116/116 119/119/119 120/120/120
f 117/117/117 121/121/121 118/118/118
f 121/121/121 117/117/117 119/119/119
f 122/122/122 118/118/118 121/121/121
f 119/119/119 116/116/116 123/123/123
f 123/123/123 124/124/124 119/119/119
f 121/121/121 125/125/125 122/122/122
f 126/126/126 122/122/122 125/125/125
f 119/119/119 127/127/127 121/121/121
f 125/125/125 121/121/121 127/127/127
f 119/119/119 128/128/128 127/127/127
f 128/128/128 123/123/123 129/129/129
f 129/129/129 130/130/130 128/128/128
f 127/127/127 128/128/128 130/130/130
f 130/130/130 131/131/131 127/127/127
f 127/127/127 132/132/132 125/125/125
f 132/132/132 127/127/127 131/131/131
f 126/126/126 125/125/125 132/132/132
f 131/131/131 133/133/133 132/132/132
f 132/132/132 134/134/134 126/126/126
f 134/134/134 132/132/132 133/133/133
f 133/133/133 135/135/135 134/134/134
f 136/136/136 137/137/137 138/138/138
f 139/139/139 140/140/140 136/136/136
f 136/136/136 140/140/140 141/141/141
f 141/141/141 140/140/140 142/142/142
f 143/143/143 142/142/142 144/144/144
f 145/145/145 146/146/146 143/143/143
f 142/142/142 143/143/143 147/147/147
f 147/147/147 148/148/148 142/142/142
f 141/141/141 142/142/142 148/148/148
f 148/148/148 147/147/147 149/149/149
f 149/149/149 150/150/150 148/148/148
f 151/151/151 148/148/148 150/150/150
f 152/152/152 141/141/141 148/148/148
f 153/153/153 141/141/141 152/152/152
f 154/154/154 148/148/148 151/151/151
f 152/152/152 148/148/148 154/154/154
f 153/153/153 155/155/155 156/156/156
f 152/152/152 155/155/155 153/153/153
f 157/157/157 155/155/155 158/158/158
f 155/155/155 152/152/152 159/159/159
f 154/154/154 159/159/159 152/152/152
f 159/159/159 160/160/160 155/155/155
f 159/159/159 154/154/154 161/161/161
f 151/151/151 161/161/161 154/154/154
f 161/161/161 162/162/162 159/159/159
f 160/160/160 159/159/159 162/162/162
f 163/163/163 161/161/161 151/151/151
f 162/162/162 161/161/161 163/163/163
f 151/151/151 164/164/164 165/165/165
f 165/165/165 163/163/163 151/151/151
f 163/163/163 165/165/165 166/166/166
f 166/166/166 167/167/167 163/163/163
f 163/163/163 167/167/167 168/168/168
f 163/163/163 169/169/169 162/162/162
f 170/170/170 162/162/162 171/171/171
f 162/162/162 170/170/170 160/160/160
f 160/160/160 172/172/172 173/173/173
f 172/172/172 160/160/160 170/170/170
f 172/172/172 170/170/170 174/174/174
f 174/174/174 175/175/175 172/172/172
f 176/176/176 174/174/174 170/170/170
f 177/177/177 178/178/178 179/179/179
f 179/179/179 180/180/180 181/181/181
f 181/181/181 182/182/182 179/179/179
f 179/179/179 182/182/182 183/183/183
f 183/183/183 184/184/184 185/185/185
f 185/185/185 186/186/186 183/183/183
f 187/187/187 188/188/188 189/189/189
f 189/189/189 190/190/190 187/187/187
f 191/191/191 192/192/192 193/193/193
f 193/193/193 194/194/194 191/191/191
f 195/195/195 196/196/196 197/197/197
f 197/197/197 198/198/198 195/195/195
f 198/198/198 197/197/197 199/199/199
f 199/199/199 200/200/200 198/198/198
f 199/199/199 201/201/201 200/200/200
f 202/202/202 203/203/203 204/204/204
f 204/204/204 205/205/205 202/202/202
f 205/205/205 204/204/204 206/206/206
f 206/206/206 207/207/207 205/205/205
f 207/207/207 206/206/206 208/208/208
f 208/208/208 209/209/209 207/207/207
f 209/209/209 208/208/208 210/210/210
f 210/210/210 211/211/211 209/209/209
f 212/212/212 213/213/213 214/214/214
f 214/214/214 215/215/215 212/212/212
f 215/215/215 214/214/214 216/216/216
f 216/216/216 217/217/217 215/215/215
f 218/218/218 217/217/217 216/216/216
f 216/216/216 219/219/219 218/218/218
f 220/220/220 221/221/221 222/222/222
f 222/222/222 223/223/223 220/220/220
f 223/223/223 222/222/222 224/224/224
f 224/224/224 225/225/225 223/223/223
f 225/225/225 224/224/224 226/226/226
f 226/226/226 227/227/227 225/225/225
f 228/228/228 229/229/229 230/230/230
f 230/230/230 231/231/231 228/228/228
f 231/231/231 230/230/230 232/232/232
f 232/232/232 233/233/233 231/231/231
f 234/234/234 233/233/233 232/232/232
f 232/232/232 235/235/235 234/234/234
f 234/234/234 235/235/235 236/236/236
f 236/236/236 237/237/237 234/234/234
f 238/238/238 239/239/239 240/240/240
f 241/241/241 238/238/238 240/240/240
f 240/240/240 242/242/242 241/241/241
f 241/241/241 242/242/242 243/243/243
f 243/243/243 244/244/244 241/241/241
f 245/245/245 246/246/246 247/247/247
f 247/247/247 248/248/248 245/245/245
f 248/248/248 247/247/247 249/249/249
f 249/249/249 250/250/250 248/248/248
f 250/250/250 249/249/249 251/251/251
f 251/251/251 252/252/252 250/250/250
f 250/250/250 252/252/252 253/253/253
f 252/252/252 251/251/251 254/254/254
f 252/252/252 255/255/255 253/253/253
f 254/254/254 256/256/256 252/252/252
f 255/255/255 252/252/252 256/256/256
f 257/257/257 258/258/258 259/259/259
f 260/260/260 261/261/261 257/257/257
f 259/259/259 262/262/262 257/257/257
f 257/257/257 262/262/262 260/260/260
f 262/262/262 259/259/259 263/263/263
f 264/264/264 260/260/260 262/262/262
f 263/263/263 265/265/265 262/262/262
f 262/262/262 265/265/265 264/264/264
