v 0.302512 -0.16624299999999997 0.255878
v 0.255993 -0.18614 0.10282100000000001
v 0.275884 -0.24186899999999997 0.260066
v 0.255993 -0.18614 0.10282100000000001
v 0.220468 -0.20376599999999997 0.267476
v 0.275884 -0.24186899999999997 0.260066
v 0.261486 -0.31881099999999996 0.98835
v 0.236325 -0.19702299999999998 0.428529
v 0.240168 -0.21066499999999996 0.41734
v 0.240168 -0.21066499999999996 0.41734
v 0.265329 -0.33332199999999995 0.980859
v 0.261486 -0.31881099999999996 0.98835
v 0.310061 -0.174452 -0.01784499999999999
v 0.302512 -0.16624299999999997 0.255878
v 0.275884 -0.24186899999999997 0.260066
v 0.275884 -0.24186899999999997 0.260066
v 0.274823 -0.242401 -0.017844999999999986
v 0.310061 -0.174452 -0.01784499999999999
v 0.2481 -0.143965 -0.01784499999999999
v 0.255993 -0.18614 0.10282100000000001
v 0.302512 -0.16624299999999997 0.255878
v 0.302512 -0.16624299999999997 0.255878
v 0.310061 -0.174452 -0.01784499999999999
v 0.2481 -0.143965 -0.01784499999999999
v 0.21928 -0.2106 -0.017844999999999986
v 0.220468 -0.20376599999999997 0.267476
v 0.255993 -0.18614 0.10282100000000001
v 0.255993 -0.18614 0.10282100000000001
v 0.2481 -0.143965 -0.01784499999999999
v 0.21928 -0.2106 -0.017844999999999986
v -0.255434 -0.32636599999999993 0.990158
v -0.249605 -0.3408189999999999 0.983204
v -0.208412 -0.20668699999999998 0.421066
v -0.208412 -0.20668699999999998 0.421066
v -0.21411 -0.19303799999999996 0.431486
v -0.255434 -0.32636599999999993 0.990158
v -0.275246 -0.218427 -0.010987999999999986
v -0.258991 -0.242727 -0.017844999999999986
v -0.259974 -0.24219499999999997 0.256173
v -0.259974 -0.24219499999999997 0.256173
v -0.282395 -0.17651499999999998 0.250443
v -0.275246 -0.218427 -0.010987999999999986
v 0.254638 0.179206 -0.01784500000000001
v 0.258584 0.19662500000000002 0.270202
v 0.208366 0.19263000000000002 0.271449
v 0.216628 0.173525 -0.01784500000000001
v 0.254638 0.179206 -0.01784500000000001
v 0.249529 0.23206 -0.017845000000000014
v 0.253475 0.24872000000000002 0.254855
v 0.258584 0.19662500000000002 0.270202
v 0.254638 0.179206 -0.01784500000000001
v 0.249529 0.23206 -0.017845000000000014
v 0.199253 0.217354 -0.017845000000000014
v 0.202877 0.23959000000000003 0.256792
v 0.253475 0.24872000000000002 0.254855
v 0.249529 0.23206 -0.017845000000000014
v 0.199253 0.217354 -0.017845000000000014
v 0.22475 0.36995100000000003 0.513932
v 0.256063 -0.28955699999999995 1.047395
v 0.261222 -0.28477399999999997 1.074349
v 0.261222 -0.28477399999999997 1.074349
v 0.231408 0.3718080000000001 0.53989
v 0.241222 0.37196100000000004 0.519681
v 0.27436 -0.28660299999999994 1.051921
v 0.256063 -0.28955699999999995 1.047395
v 0.22475 0.36995100000000003 0.513932
v 0.241222 0.37196100000000004 0.519681
v 0.257362 0.30026200000000003 0.683888
v 0.233551 0.240614 0.19590699999999997
v 0.223899 0.210907 0.19902
v 0.251964 0.28351000000000004 0.685644
v 0.257362 0.30026200000000003 0.683888
v 0.251964 0.28351000000000004 0.685644
v 0.223899 0.210907 0.19902
v 0.252993 0.220506 0.198014
v 0.252993 0.220506 0.198014
v 0.268152 0.28910300000000005 0.685058
v 0.267142 -0.19499199999999992 1.18734
v 0.252054 -0.17168499999999998 0.252269
v 0.268184 -0.22628399999999999 0.24965
v 0.268184 -0.22628399999999999 0.24965
v 0.276441 -0.23037599999999991 1.18734
v 0.276441 -0.23037599999999991 1.18734
v 0.268184 -0.22628399999999999 0.24965
v 0.298651 -0.18919299999999997 0.24453
v 0.298651 -0.18919299999999997 0.24453
v 0.293931 -0.2056159999999999 1.18734
v 0.300538 -0.277085 0.365499
v 0.260667 0.34057000000000004 0.598762
v 0.266011 0.35383300000000006 0.570485
v 0.266011 0.35383300000000006 0.570485
v 0.305863 -0.265582 0.332906
v -0.236362 0.196075 -0.01784500000000001
v -0.174477 0.184075 -0.01784500000000001
v -0.180965 0.18802500000000003 0.261631
v -0.236362 0.19607500000000003 0.261631
v -0.236362 0.196075 -0.01784500000000001
v -0.313767 -0.25224099999999994 0.988818
v -0.312916 -0.23838099999999995 1.019075
v 0.310061 -0.22516299999999995 1.011817
v 0.310061 -0.22516299999999995 1.011817
v 0.308416 -0.23833299999999993 0.981782
v -0.31358 -0.25542699999999996 1.016092
v -0.313767 -0.25224099999999994 0.988818
v 0.308416 -0.23833299999999993 0.981782
v 0.306964 -0.24118499999999995 1.009213
v -0.31358 -0.25542699999999996 1.016092
v 0.314856 0.29581900000000005 0.495767
v 0.312218 0.30306900000000003 0.538429
v -0.299394 0.2753010000000001 0.545511
v -0.299394 0.2753010000000001 0.545511
v -0.299208 0.2678900000000001 0.50085
v -0.218544 0.33905300000000005 0.524037
v -0.230178 -0.3004649999999999 1.056408
v -0.244891 -0.3001829999999999 1.045152
v -0.244891 -0.3001829999999999 1.045152
v -0.228358 0.33920700000000004 0.503828
v -0.218544 0.33905300000000005 0.524037
v -0.235016 0.34106400000000003 0.529786
v -0.239046 -0.29647899999999994 1.074349
v -0.239046 -0.29647899999999994 1.074349
v -0.230178 -0.3004649999999999 1.056408
v -0.24098 0.26944100000000004 0.683888
v -0.235582 0.2526900000000001 0.685644
v -0.196603 0.199388 0.19902
v -0.206255 0.229095 0.19590699999999997
v -0.24098 0.26944100000000004 0.683888
v -0.235582 0.2526900000000001 0.685644
v -0.25177 0.25828200000000007 0.685058
v -0.225697 0.208987 0.198014
v -0.225697 0.208987 0.198014
v -0.196603 0.199388 0.19902
v -0.256872 -0.21628799999999992 1.18734
v -0.265174 -0.2420809999999999 1.18734
v -0.240409 -0.22628399999999999 0.247577
v -0.240409 -0.22628399999999999 0.247577
v -0.225449 -0.18127599999999996 0.252794
v -0.265174 -0.2420809999999999 1.18734
v -0.281787 -0.2248719999999999 1.18734
v -0.26966 -0.19674499999999998 0.237376
v -0.26966 -0.19674499999999998 0.237376
v -0.240409 -0.22628399999999999 0.247577
v -0.277874 -0.275947 0.37296
v -0.282277 -0.266849 0.337433
v -0.256258 0.32169400000000004 0.575126
v -0.256258 0.32169400000000004 0.575126
v -0.252226 0.31081100000000006 0.606524
v -0.231288 0.23434200000000002 0.261631
v -0.194539 0.23962500000000003 0.261631
v -0.194193 0.239887 -0.017845000000000014
v -0.194193 0.239887 -0.017845000000000014
v -0.231288 0.234342 -0.017845000000000014
v -0.236362 0.19607500000000003 0.261631
v -0.236362 0.196075 -0.01784500000000001
v 0.261059 -0.22803899999999994 1.01301
v -0.230688 -0.23974399999999996 1.012491
v -0.229558 0.26915000000000006 0.518747
v 0.241457 0.29717200000000005 0.526686
v 0.258584 0.19662500000000002 0.270202
v 0.253475 0.24872000000000002 0.254855
v 0.208366 0.19263000000000002 0.271449
v 0.202877 0.23959000000000003 0.256792
v -0.194539 0.23962500000000003 0.261631
v -0.231288 0.23434200000000002 0.261631
v -0.236362 0.19607500000000003 0.261631
v -0.180965 0.18802500000000003 0.261631
v -0.228857 -0.16616799999999998 0.263065
v -0.282395 -0.17651499999999998 0.250443
v -0.259974 -0.24219499999999997 0.256173
v -0.203784 -0.20376599999999997 0.271809
v 0.202877 0.23959000000000003 0.256792
v 0.199253 0.217354 -0.017845000000000014
v 0.216628 0.173525 -0.01784500000000001
v 0.208366 0.19263000000000002 0.271449
v 0.250715 -0.33747499999999997 0.905138
v 0.250522 -0.21407299999999996 0.979932
v 0.256781 -0.21108299999999994 0.964722
v 0.257198 -0.33587999999999996 0.888539
v 0.258102 -0.33814199999999994 0.919281
v 0.257701 -0.21616399999999994 0.992762
v 0.250522 -0.21407299999999996 0.979932
v 0.250715 -0.33747499999999997 0.905138
v 0.257198 -0.33587999999999996 0.888539
v 0.256781 -0.21108299999999994 0.964722
v 0.26396 -0.21317399999999995 0.977552
v 0.264585 -0.33654599999999996 0.902683
v 0.264585 -0.33654599999999996 0.902683
v 0.26396 -0.21317399999999995 0.977552
v 0.257701 -0.21616399999999994 0.992762
v 0.258102 -0.33814199999999994 0.919281
v 0.231408 0.3718080000000001 0.53989
v 0.261222 -0.28477399999999997 1.074349
v 0.27436 -0.28660299999999994 1.051921
v 0.241222 0.37196100000000004 0.519681
v 0.268152 0.28910300000000005 0.685058
v 0.252993 0.220506 0.198014
v 0.233551 0.240614 0.19590699999999997
v 0.257362 0.30026200000000003 0.683888
v 0.265329 -0.33332199999999995 0.980859
v 0.240168 -0.21066499999999996 0.41734
v 0.250996 -0.20138799999999998 0.423621
v 0.276082 -0.32365399999999994 0.98487
v 0.276082 -0.32365399999999994 0.98487
v 0.250996 -0.20138799999999998 0.423621
v 0.236325 -0.19702299999999998 0.428529
v 0.261486 -0.31881099999999996 0.98835
v 0.293931 -0.2056159999999999 1.18734
v 0.298651 -0.18919299999999997 0.24453
v 0.252054 -0.17168499999999998 0.252269
v 0.267142 -0.19499199999999992 1.18734
v 0.220468 -0.20376599999999997 0.267476
v 0.21928 -0.2106 -0.017844999999999986
v 0.274823 -0.242401 -0.017844999999999986
v 0.275884 -0.24186899999999997 0.260066
v -0.174477 0.184075 -0.01784500000000001
v -0.194193 0.239887 -0.017845000000000014
v -0.194539 0.23962500000000003 0.261631
v -0.180965 0.18802500000000003 0.261631
v -0.229558 0.26915000000000006 0.518747
v 0.241457 0.29717200000000005 0.526686
v 0.233785 0.210351 0.222351
v -0.192406 0.198832 0.222351
v -0.239448 -0.34917999999999993 0.905138
v -0.245931 -0.34758399999999995 0.888539
v -0.245514 -0.22278699999999996 0.964722
v -0.239255 -0.22577799999999995 0.979932
v -0.246835 -0.34984699999999996 0.919281
v -0.239448 -0.34917999999999993 0.905138
v -0.239255 -0.22577799999999995 0.979932
v -0.246434 -0.22786899999999993 0.992762
v -0.245931 -0.34758399999999995 0.888539
v -0.253318 -0.3482509999999999 0.902683
v -0.252693 -0.22487899999999994 0.977552
v -0.245514 -0.22278699999999996 0.964722
v -0.253318 -0.3482509999999999 0.902683
v -0.246835 -0.34984699999999996 0.919281
v -0.246434 -0.22786899999999993 0.992762
v -0.252693 -0.22487899999999994 0.977552
v -0.312916 -0.23838099999999995 1.019075
v -0.31358 -0.25542699999999996 1.016092
v 0.306964 -0.24118499999999995 1.009213
v 0.310061 -0.22516299999999995 1.011817
v -0.244891 -0.3001829999999999 1.045152
v -0.239046 -0.29647899999999994 1.074349
v -0.235016 0.34106400000000003 0.529786
v -0.228358 0.33920700000000004 0.503828
v -0.25177 0.25828200000000007 0.685058
v -0.24098 0.26944100000000004 0.683888
v -0.206255 0.229095 0.19590699999999997
v -0.225697 0.208987 0.198014
v -0.243215 -0.24006699999999995 0.978597
v -0.240852 -0.3437819999999999 0.916907
v 0.253975 -0.33207699999999996 0.911663
v 0.253975 -0.22890499999999994 0.972417
v 0.261059 -0.22803899999999994 1.01301
v 0.241457 0.29717200000000005 0.526686
v -0.229558 0.26915000000000006 0.518747
v -0.230688 -0.23974399999999996 1.012491
v -0.249605 -0.3408189999999999 0.983204
v -0.264766 -0.33629799999999993 0.984199
v -0.223627 -0.20233699999999996 0.422715
v -0.208412 -0.20668699999999998 0.421066
v -0.264766 -0.33629799999999993 0.984199
v -0.255434 -0.32636599999999993 0.990158
v -0.21411 -0.19303799999999996 0.431486
v -0.223627 -0.20233699999999996 0.422715
v -0.281787 -0.2248719999999999 1.18734
v -0.256872 -0.21628799999999992 1.18734
v -0.225449 -0.18127599999999996 0.252794
v -0.26966 -0.19674499999999998 0.237376
v -0.258991 -0.242727 -0.017844999999999986
v -0.193316 -0.243563 -0.010987999999999984
v -0.203784 -0.20376599999999997 0.271809
v -0.259974 -0.24219499999999997 0.256173
v 0.305863 -0.265582 0.332906
v 0.266011 0.35383300000000006 0.570485
v 0.270996 0.3475750000000001 0.588734
v 0.311239 -0.270793 0.354669
v 0.260667 0.34057000000000004 0.598762
v 0.300538 -0.277085 0.365499
v 0.314589 0.3142480000000001 0.519149
v 0.314856 0.29581900000000005 0.495767
v -0.299208 0.2678900000000001 0.50085
v -0.298637 0.28688700000000006 0.524833
v 0.312218 0.30306900000000003 0.538429
v -0.299394 0.2753010000000001 0.545511
v -0.207353 -0.218448 -0.010086999999999987
v -0.275246 -0.218427 -0.010987999999999986
v -0.282395 -0.17651499999999998 0.250443
v -0.228857 -0.16616799999999998 0.263065
v -0.193316 -0.243563 -0.010987999999999984
v -0.203784 -0.20376599999999997 0.271809
v -0.266081 0.31658500000000006 0.58859
v -0.256258 0.32169400000000004 0.575126
v -0.282277 -0.266849 0.337433
v -0.29231 -0.270698 0.353644
v -0.252226 0.31081100000000006 0.606524
v -0.277874 -0.275947 0.37296
vt 0.941533 0.987514
vt 0.930990 0.938363
vt 0.988332 0.967347
vt 0.930990 0.938363
vt 0.972722 0.916068
vt 0.988332 0.967347
vt 0.816202 0.522614
vt 0.815866 0.114212
vt 0.829801 0.114485
vt 0.829801 0.114485
vt 0.829571 0.522933
vt 0.816202 0.522614
vt 0.532146 0.239769
vt 0.532417 0.110878
vt 0.594639 0.111096
vt 0.594639 0.111096
vt 0.587770 0.240022
vt 0.532146 0.239769
vt 0.475346 0.239498
vt 0.475882 0.110640
vt 0.532417 0.110878
vt 0.532417 0.110878
vt 0.532146 0.239769
vt 0.475346 0.239498
vt 0.418701 0.239739
vt 0.424675 0.110354
vt 0.475882 0.110640
vt 0.475882 0.110640
vt 0.475346 0.239498
vt 0.418701 0.239739
vt 0.811566 0.523589
vt 0.825205 0.522286
vt 0.825152 0.113860
vt 0.825152 0.113860
vt 0.811230 0.115187
vt 0.811566 0.523589
vt 0.518533 0.239712
vt 0.580964 0.239999
vt 0.587838 0.111067
vt 0.587838 0.111067
vt 0.518804 0.110821
vt 0.518533 0.239712
vt 0.572984 0.239919
vt 0.573234 0.111049
vt 0.629857 0.111161
vt 0.616824 0.240117
vt 0.572984 0.239919
vt 0.511032 0.239681
vt 0.511303 0.110789
vt 0.573234 0.111049
vt 0.572984 0.239919
vt 0.511032 0.239681
vt 0.446464 0.239254
vt 0.451521 0.110349
vt 0.511303 0.110789
vt 0.511032 0.239681
vt 0.446464 0.239254
vt 0.680128 0.627278
vt 0.675638 0.120552
vt 0.692328 0.120883
vt 0.692328 0.120883
vt 0.705498 0.626150
vt 0.728321 0.626090
vt 0.713805 0.118645
vt 0.768523 0.117580
vt 0.765667 0.625735
vt 0.728321 0.626090
vt 0.902256 0.040213
vt 0.887230 0.565009
vt 0.840781 0.561654
vt 0.890706 0.039337
vt 0.902256 0.040213
vt 0.951781 0.040119
vt 0.973043 0.564628
vt 0.920662 0.566942
vt 0.920662 0.566942
vt 0.918557 0.041561
vt 0.963594 0.039461
vt 0.992784 0.563744
vt 0.953302 0.565511
vt 0.953302 0.565511
vt 0.939968 0.040777
vt 0.939968 0.040777
vt 0.953302 0.565511
vt 0.920662 0.566942
vt 0.920662 0.566942
vt 0.918557 0.041561
vt 0.791696 0.117797
vt 0.779142 0.625078
vt 0.752193 0.626392
vt 0.752193 0.626392
vt 0.768523 0.117580
vt 0.559371 0.239873
vt 0.616824 0.240117
vt 0.629857 0.111161
vt 0.559632 0.110992
vt 0.559371 0.239873
vt 0.768523 0.117580
vt 0.721691 0.118324
vt 0.746994 0.625913
vt 0.746994 0.625913
vt 0.779142 0.625078
vt 0.692328 0.120883
vt 0.658948 0.120221
vt 0.680128 0.627278
vt 0.705498 0.626150
vt 0.692328 0.120883
vt 0.680128 0.627278
vt 0.705498 0.626150
vt 0.692328 0.120883
vt 0.692328 0.120883
vt 0.658948 0.120221
vt 0.779142 0.625078
vt 0.768523 0.117580
vt 0.721691 0.118324
vt 0.721691 0.118324
vt 0.765667 0.625735
vt 0.680128 0.627278
vt 0.716910 0.626120
vt 0.692328 0.120883
vt 0.692328 0.120883
vt 0.658948 0.120221
vt 0.890706 0.039337
vt 0.879157 0.038460
vt 0.840781 0.561654
vt 0.887230 0.565009
vt 0.890706 0.039337
vt 0.951781 0.040119
vt 0.918557 0.041561
vt 0.920662 0.566942
vt 0.920662 0.566942
vt 0.973043 0.564628
vt 0.963594 0.039461
vt 0.939968 0.040777
vt 0.953302 0.565511
vt 0.953302 0.565511
vt 0.992784 0.563744
vt 0.939968 0.040777
vt 0.918557 0.041561
vt 0.920662 0.566942
vt 0.920662 0.566942
vt 0.953302 0.565511
vt 0.768523 0.117580
vt 0.721691 0.118324
vt 0.765667 0.625735
vt 0.765667 0.625735
vt 0.779142 0.625078
vt 0.518804 0.110821
vt 0.475882 0.110640
vt 0.475346 0.239498
vt 0.475346 0.239498
vt 0.518533 0.239712
vt 0.559632 0.110992
vt 0.559371 0.239873
vt 0.013130 0.635652
vt 0.362371 0.635008
vt 0.362107 0.993722
vt 0.007869 0.994114
vt 0.980353 0.987902
vt 0.932569 0.969307
vt 0.993183 0.932921
vt 0.946882 0.919356
vt 0.930990 0.938363
vt 0.929780 0.979892
vt 0.966820 0.991519
vt 0.984517 0.931430
vt 0.930990 0.938363
vt 0.929780 0.979892
vt 0.981565 0.969156
vt 0.972722 0.916068
vt 0.451521 0.110349
vt 0.446464 0.239254
vt 0.405250 0.240375
vt 0.407883 0.110588
vt 0.791696 0.117797
vt 0.779142 0.625078
vt 0.752193 0.626392
vt 0.768523 0.117580
vt 0.692328 0.120883
vt 0.705498 0.626150
vt 0.680128 0.627278
vt 0.675638 0.120552
vt 0.768523 0.117580
vt 0.752193 0.626392
vt 0.728321 0.626090
vt 0.713805 0.118645
vt 0.713805 0.118645
vt 0.728321 0.626090
vt 0.705498 0.626150
vt 0.692328 0.120883
vt 0.705498 0.626150
vt 0.692328 0.120883
vt 0.713805 0.118645
vt 0.728321 0.626090
vt 0.918557 0.041561
vt 0.920662 0.566942
vt 0.887230 0.565009
vt 0.902256 0.040213
vt 0.829571 0.522933
vt 0.829801 0.114485
vt 0.839183 0.117909
vt 0.838414 0.526572
vt 0.803578 0.527684
vt 0.803252 0.119126
vt 0.815866 0.114212
vt 0.816202 0.522614
vt 0.918557 0.041561
vt 0.920662 0.566942
vt 0.864006 0.563331
vt 0.890706 0.039337
vt 0.643670 0.111179
vt 0.631093 0.240109
vt 0.587770 0.240022
vt 0.594639 0.111096
vt 0.418701 0.239739
vt 0.475346 0.239498
vt 0.475882 0.110640
vt 0.424675 0.110354
vt 0.387714 0.255196
vt 0.386954 0.622909
vt 0.653863 0.622978
vt 0.653750 0.255370
vt 0.768523 0.117580
vt 0.721691 0.118324
vt 0.765667 0.625735
vt 0.779142 0.625078
vt 0.692328 0.120883
vt 0.658948 0.120221
vt 0.680128 0.627278
vt 0.705498 0.626150
vt 0.721691 0.118324
vt 0.713805 0.118645
vt 0.746994 0.625913
vt 0.765667 0.625735
vt 0.713805 0.118645
vt 0.692328 0.120883
vt 0.705498 0.626150
vt 0.746994 0.625913
vt 0.721691 0.118324
vt 0.692328 0.120883
vt 0.705498 0.626150
vt 0.746994 0.625913
vt 0.721691 0.118324
vt 0.692328 0.120883
vt 0.716910 0.626120
vt 0.765667 0.625735
vt 0.918557 0.041561
vt 0.890706 0.039337
vt 0.887230 0.565009
vt 0.920662 0.566942
vt 0.009588 0.210990
vt 0.012175 0.289912
vt 0.371158 0.287439
vt 0.370659 0.214623
vt 0.013130 0.635652
vt 0.007869 0.994114
vt 0.362107 0.993722
vt 0.362371 0.635008
vt 0.825205 0.522286
vt 0.838414 0.526572
vt 0.839183 0.117909
vt 0.825152 0.113860
vt 0.803578 0.527684
vt 0.811566 0.523589
vt 0.811230 0.115187
vt 0.803252 0.119126
vt 0.918557 0.041561
vt 0.890706 0.039337
vt 0.864006 0.563331
vt 0.920662 0.566942
vt 0.580964 0.239999
vt 0.631093 0.240109
vt 0.643670 0.111179
vt 0.587838 0.111067
vt 0.768523 0.117580
vt 0.752193 0.626392
vt 0.728321 0.626090
vt 0.713805 0.118645
vt 0.692813 0.626714
vt 0.675638 0.120552
vt 0.746994 0.625913
vt 0.765667 0.625735
vt 0.768523 0.117580
vt 0.713805 0.118645
vt 0.705498 0.626150
vt 0.692328 0.120883
vt 0.475346 0.239498
vt 0.518533 0.239712
vt 0.518804 0.110821
vt 0.475882 0.110640
vt 0.418701 0.239739
vt 0.424675 0.110354
vt 0.746994 0.625913
vt 0.765667 0.625735
vt 0.721691 0.118324
vt 0.713805 0.118645
vt 0.692813 0.626714
vt 0.675638 0.120552
vn -0.912922 0.334394 0.23399499999999998
vn -0.263918 0.898142 0.3516949999999999
vn -0.263918 0.898142 0.3516949999999999
vn -0.263918 0.898142 0.3516949999999999
vn 0.572896 0.792675 0.20846099999999995
vn -0.263918 0.898142 0.3516949999999999
vn -0.969141 0.228278 0.09302799999999999
vn -0.191309 0.957228 0.21705999999999995
vn -0.724364 -0.679687 -0.11541899999999995
vn -0.724364 -0.679687 -0.11541899999999995
vn 0.225432 -0.949809 -0.21689599999999995
vn -0.969141 0.228278 0.09302799999999999
vn 0.99886 0.047025 0.008192999999999997
vn 0.476246 0.857844 0.19311399999999995
vn 0.616242 -0.787349 0.018094000000000048
vn 0.616242 -0.787349 0.018094000000000048
vn -0.081038 -0.996649 0.01114800000000006
vn 0.99886 0.047025 0.008192999999999997
vn -0.58954 0.7887 0.17434199999999994
vn -0.794879 0.592104 0.13259099999999996
vn 0.476246 0.857844 0.19311399999999995
vn 0.476246 0.857844 0.19311399999999995
vn 0.99886 0.047025 0.008192999999999997
vn -0.58954 0.7887 0.17434199999999994
vn -0.97653 0.190751 0.10001899999999998
vn -0.883941 -0.467575 0.004570000000000029
vn -0.794879 0.592104 0.13259099999999996
vn -0.794879 0.592104 0.13259099999999996
vn -0.58954 0.7887 0.17434199999999994
vn -0.97653 0.190751 0.10001899999999998
vn 0.650839 0.72631 0.22109499999999996
vn 0.243617 -0.94727 -0.20815899999999996
vn 0.983503 -0.178404 0.02990800000000001
vn 0.983503 -0.178404 0.02990800000000001
vn -0.323388 0.925485 0.19722299999999995
vn 0.650839 0.72631 0.22109499999999996
vn -0.996154 0.04807899999999999 -0.073246
vn -0.123873 -0.990611 0.057832000000000064
vn -0.580494 -0.81416 0.01304400000000005
vn -0.580494 -0.81416 0.01304400000000005
vn -0.557917 0.81348 -0.16425400000000007
vn -0.996154 0.04807899999999999 -0.073246
vn 0.544953 -0.837071 0.04835800000000005
vn 0.932222 -0.361781 0.008736000000000023
vn -0.342507 -0.938279 0.04819100000000005
vn -0.768787 -0.638292 0.03936900000000004
vn 0.544953 -0.837071 0.04835800000000005
vn 0.830538 0.555097 -0.045530000000000036
vn 0.25604 0.963985 -0.07194100000000006
vn 0.932222 -0.361781 0.008736000000000023
vn 0.544953 -0.837071 0.04835800000000005
vn 0.830538 0.555097 -0.045530000000000036
vn -0.66283 0.747561 -0.04252500000000005
vn -0.974007 0.225085 -0.025448000000000012
vn 0.25604 0.963985 -0.07194100000000006
vn 0.830538 0.555097 -0.045530000000000036
vn -0.66283 0.747561 -0.04252500000000005
vn -0.992467 -0.101173 -0.069088
vn -0.439066 -0.57711 -0.688596
vn -0.781024 0.37136600000000003 0.502084
vn -0.781024 0.37136600000000003 0.502084
vn 0.367516 0.597759 0.712472
vn 0.811601 -0.3424170000000001 -0.473343
vn 0.978958 0.155412 0.132244
vn -0.439066 -0.57711 -0.688596
vn -0.992467 -0.101173 -0.069088
vn 0.811601 -0.3424170000000001 -0.473343
vn -0.677506 0.733345 -0.056494000000000044
vn 0.269567 0.954195 -0.12978800000000004
vn -0.978122 -0.190008 0.08470600000000002
vn -0.199898 -0.967256 0.15638600000000005
vn -0.677506 0.733345 -0.056494000000000044
vn -0.199898 -0.967256 0.15638600000000005
vn -0.978122 -0.190008 0.08470600000000002
vn 0.750583 -0.657171 0.06892600000000004
vn 0.750583 -0.657171 0.06892600000000004
vn 0.969532 0.23659 -0.06349700000000001
vn -0.969647 0.243642 0.020558999999999987
vn -0.147753 0.988647 0.02732199999999994
vn -0.701205 -0.71295 0.0037900000000000438
vn -0.701205 -0.71295 0.0037900000000000438
vn 0.390252 -0.920694 -0.005100999999999943
vn 0.390252 -0.920694 -0.005100999999999943
vn -0.701205 -0.71295 0.0037900000000000438
vn 0.989935 -0.141517 0.0012850000000000086
vn 0.989935 -0.141517 0.0012850000000000086
vn 0.767155 0.641295 0.01460399999999996
vn -0.990561 -0.098942 0.094866
vn 0.184093 -0.33696299999999996 0.923345
vn -0.87105 0.12505199999999997 -0.475009
vn -0.87105 0.12505199999999997 -0.475009
vn 0.81974 0.25008699999999995 -0.515251
vn -0.584547 -0.81135 0.004169000000000049
vn 0.97456 -0.223492 0.016881000000000014
vn 0.345602 -0.938254 0.015464000000000058
vn -0.946267 -0.323387 1.9801742721793254E-17
vn -0.584547 -0.81135 0.004169000000000049
vn -0.021492 0.585295 -0.810536
vn -0.003728 0.605534 0.795811
vn -0.022735 0.995363 -0.09346800000000005
vn -0.022735 0.995363 -0.09346800000000005
vn 0.015743 -0.901804 -0.43185799999999996
vn 0.024171 -0.985872 0.16574600000000006
vn -0.021492 0.585295 -0.810536
vn 0.015743 -0.901804 -0.43185799999999996
vn 0.02468 -0.753915 0.656508
vn 0.024171 -0.985872 0.16574600000000006
vn 0.044723 -0.993927 -0.10054299999999994
vn -0.009283 0.4271460000000001 0.904135
vn 0.044527 -0.856728 0.513843
vn 0.044527 -0.856728 0.513843
vn -0.019763 0.26010999999999995 -0.965377
vn 0.999822 -0.018735 -0.002372999999999999
vn 0.98334 -0.126531 -0.13051
vn -0.560695 -0.529792 -0.63635
vn -0.560695 -0.529792 -0.63635
vn -0.245019 -0.622759 -0.743059
vn 0.999822 -0.018735 -0.002372999999999999
vn -0.937083 0.23646800000000004 0.256823
vn 0.044678 0.641371 0.765929
vn 0.044678 0.641371 0.765929
vn 0.98334 -0.126531 -0.13051
vn 0.673495 0.739076 -0.013092000000000045
vn 0.19229 -0.97365 0.12259500000000005
vn 0.975546 -0.195955 0.09955300000000002
vn -0.273369 0.956846 -0.09856500000000006
vn 0.673495 0.739076 -0.013092000000000045
vn 0.19229 -0.97365 0.12259500000000005
vn -0.969817 0.231889 -0.07538800000000001
vn -0.747649 -0.663551 0.02686400000000004
vn -0.747649 -0.663551 0.02686400000000004
vn 0.975546 -0.195955 0.09955300000000002
vn 0.979024 0.199772 0.040033999999999986
vn -0.266014 -0.963702 -0.02271099999999994
vn 0.66787 -0.744259 0.005278000000000046
vn 0.66787 -0.744259 0.005278000000000046
vn 0.178646 0.98299 0.042612999999999936
vn -0.266014 -0.963702 -0.02271099999999994
vn -0.757163 0.653149 0.01001999999999996
vn -0.967167 -0.253342 -0.020126999999999985
vn -0.967167 -0.253342 -0.020126999999999985
vn 0.66787 -0.744259 0.005278000000000046
vn 0.985184 -0.09872799999999998 0.14023
vn -0.3605 0.36202399999999996 -0.859638
vn 0.883778 0.14096499999999998 -0.446167
vn 0.883778 0.14096499999999998 -0.446167
vn -0.328522 -0.33716199999999996 0.882267
vn -0.519051 0.854743 0.0003049999999999477
vn 0.746044 0.665837 0.008897999999999958
vn 0.271713 0.962378 0.000928999999999941
vn 0.271713 0.962378 0.000928999999999941
vn -0.86217 0.506619 -3.102146683686165E-17
vn -0.946267 -0.323387 1.9801742721793254E-17
vn -0.584547 -0.81135 0.004169000000000049
vn 0.034904 -0.687055 -0.725767
vn 0.01733 -0.696259 -0.717581
vn 0.034904 -0.687055 -0.725767
vn 0.052669 -0.67742 -0.733709
vn 0.001327 0.28270300000000004 0.959207
vn -0.007788 0.2894300000000001 0.957168
vn -0.007788 0.2894300000000001 0.957168
vn -0.016875 0.29609900000000006 0.955008
vn 0 6.123233995736766E-17 1
vn 0 6.123233995736766E-17 1
vn 0 6.123233995736766E-17 1
vn 0 6.123233995736766E-17 1
vn -0.259335 0.018607000000000058 0.965608
vn -0.23058 0.00616500000000006 0.973034
vn -0.259335 0.018607000000000058 0.965608
vn -0.287515 0.03089600000000006 0.957278
vn -0.974007 0.225085 -0.025448000000000012
vn -0.66283 0.747561 -0.04252500000000005
vn -0.768787 -0.638292 0.03936900000000004
vn -0.342507 -0.938279 0.04819100000000005
vn -0.918614 0.20370899999999997 -0.338602
vn -0.918845 0.20348599999999997 -0.338107
vn -0.918614 0.20370899999999997 -0.338602
vn -0.918382 0.20393099999999997 -0.339097
vn -0.859288 -0.266054 0.436852
vn -0.85901 -0.266247 0.437281
vn -0.859288 -0.266054 0.436852
vn -0.859565 -0.265861 0.436424
vn 0.85867 0.269105 -0.436197
vn 0.858454 0.269326 -0.436485
vn 0.85867 0.269105 -0.436197
vn 0.858886 0.268884 -0.435909
vn 0.918976 -0.20120399999999997 0.339117
vn 0.919174 -0.20091799999999999 0.33875
vn 0.918976 -0.20120399999999997 0.339117
vn 0.918778 -0.20148899999999997 0.339483
vn 0.367516 0.597759 0.712472
vn -0.781024 0.37136600000000003 0.502084
vn 0.978958 0.155412 0.132244
vn 0.811601 -0.3424170000000001 -0.473343
vn 0.969532 0.23659 -0.06349700000000001
vn 0.750583 -0.657171 0.06892600000000004
vn 0.269567 0.954195 -0.12978800000000004
vn -0.677506 0.733345 -0.056494000000000044
vn 0.225432 -0.949809 -0.21689599999999995
vn -0.724364 -0.679687 -0.11541899999999995
vn 0.960685 -0.259265 -0.09932999999999999
vn 0.765501 0.634988 0.10391399999999996
vn 0.765501 0.634988 0.10391399999999996
vn 0.960685 -0.259265 -0.09932999999999999
vn -0.191309 0.957228 0.21705999999999995
vn -0.969141 0.228278 0.09302799999999999
vn 0.767155 0.641295 0.01460399999999996
vn 0.989935 -0.141517 0.0012850000000000086
vn -0.147753 0.988647 0.02732199999999994
vn -0.969647 0.243642 0.020558999999999987
vn -0.883941 -0.467575 0.004570000000000029
vn -0.97653 0.190751 0.10001899999999998
vn -0.081038 -0.996649 0.01114800000000006
vn 0.616242 -0.787349 0.018094000000000048
vn 0.97456 -0.223492 0.016881000000000014
vn 0.271713 0.962378 0.000928999999999941
vn 0.746044 0.665837 0.008897999999999958
vn 0.345602 -0.938254 0.015464000000000058
vn -0.039302 0.966617 -0.25319500000000006
vn -0.052555 0.960654 -0.27273000000000003
vn -0.039302 0.966617 -0.25319500000000006
vn -0.026269 0.971913 -0.23387200000000005
vn 0.918614 0.20370799999999997 -0.338602
vn 0.918382 0.20393099999999997 -0.339097
vn 0.918614 0.20370799999999997 -0.338602
vn 0.918846 0.20348599999999997 -0.338106
vn 0.859289 -0.266053 0.436851
vn 0.859565 -0.265861 0.436424
vn 0.859289 -0.266053 0.436851
vn 0.859012 -0.266245 0.437278
vn -0.85867 0.269106 -0.436198
vn -0.858885 0.268885 -0.43591
vn -0.85867 0.269106 -0.436198
vn -0.858454 0.269327 -0.436486
vn -0.918975 -0.20120399999999997 0.339118
vn -0.918778 -0.20148899999999997 0.339484
vn -0.918975 -0.20120399999999997 0.339118
vn -0.919173 -0.20091899999999996 0.338753
vn -0.003728 0.605534 0.795811
vn 0.024171 -0.985872 0.16574600000000006
vn 0.02468 -0.753915 0.656508
vn -0.022735 0.995363 -0.09346800000000005
vn -0.560695 -0.529792 -0.63635
vn 0.044678 0.641371 0.765929
vn -0.937083 0.23646800000000004 0.256823
vn -0.245019 -0.622759 -0.743059
vn -0.969817 0.231889 -0.07538800000000001
vn 0.673495 0.739076 -0.013092000000000045
vn -0.273369 0.956846 -0.09856500000000006
vn -0.747649 -0.663551 0.02686400000000004
vn 0.021643 -0.509018 0.860484
vn 0.021189 -0.510735 0.859477
vn 0.021643 -0.509018 0.860484
vn 0.022097 -0.507296 0.861489
vn -0.034904 0.687055 0.725767
vn -0.052669 0.67742 0.733709
vn -0.034904 0.687055 0.725767
vn -0.01733 0.696259 0.717581
vn 0.243617 -0.94727 -0.20815899999999996
vn -0.971857 0.235067 -0.015388000000000015
vn -0.745739 -0.633646 -0.20583099999999996
vn 0.983503 -0.178404 0.02990800000000001
vn -0.971857 0.235067 -0.015388000000000015
vn 0.650839 0.72631 0.22109499999999996
vn -0.323388 0.925485 0.19722299999999995
vn -0.745739 -0.633646 -0.20583099999999996
vn -0.757163 0.653149 0.01001999999999996
vn 0.979024 0.199772 0.040033999999999986
vn 0.178646 0.98299 0.042612999999999936
vn -0.967167 -0.253342 -0.020126999999999985
vn -0.123873 -0.990611 0.057832000000000064
vn 0.998548 0.037603 0.038585
vn 0.737948 -0.672987 0.050208000000000044
vn -0.580494 -0.81416 0.01304400000000005
vn 0.81974 0.25008699999999995 -0.515251
vn -0.87105 0.12505199999999997 -0.475009
vn 0.998129 0.054937 0.026852999999999995
vn 0.938226 -0.06736199999999999 0.339403
vn 0.184093 -0.33696299999999996 0.923345
vn -0.990561 -0.098942 0.094866
vn -0.045452 0.962777 -0.26644900000000005
vn 0.044723 -0.993927 -0.10054299999999994
vn -0.019763 0.26010999999999995 -0.965377
vn -0.042203 0.984828 0.16832199999999994
vn -0.009283 0.4271460000000001 0.904135
vn 0.044527 -0.856728 0.513843
vn 0.292858 0.944944 -0.14599500000000007
vn -0.996154 0.04807899999999999 -0.073246
vn -0.557917 0.81348 -0.16425400000000007
vn 0.620738 0.77726 -0.10272300000000004
vn 0.998548 0.037603 0.038585
vn 0.737948 -0.672987 0.050208000000000044
vn -0.976974 0.11591199999999999 -0.179124
vn 0.883778 0.14096499999999998 -0.446167
vn -0.3605 0.36202399999999996 -0.859638
vn -0.970232 -0.051230999999999985 0.236698
vn -0.328522 -0.33716199999999996 0.882267
vn 0.985184 -0.09872799999999998 0.14023
g 04
f 1/1/1 2/2/2 3/3/3
f 4/4/4 5/5/5 6/6/6
f 7/7/7 8/8/8 9/9/9
f 10/10/10 11/11/11 12/12/12
f 13/13/13 14/14/14 15/15/15
f 16/16/16 17/17/17 18/18/18
f 19/19/19 20/20/20 21/21/21
f 22/22/22 23/23/23 24/24/24
f 25/25/25 26/26/26 27/27/27
f 28/28/28 29/29/29 30/30/30
f 31/31/31 32/32/32 33/33/33
f 34/34/34 35/35/35 36/36/36
f 37/37/37 38/38/38 39/39/39
f 40/40/40 41/41/41 42/42/42
f 43/43/43 44/44/44 45/45/45
f 45/45/45 46/46/46 47/47/47
f 48/48/48 49/49/49 50/50/50
f 50/50/50 51/51/51 52/52/52
f 53/53/53 54/54/54 55/55/55
f 55/55/55 56/56/56 57/57/57
f 58/58/58 59/59/59 60/60/60
f 61/61/61 62/62/62 58/58/58
f 63/63/63 64/64/64 65/65/65
f 65/65/65 66/66/66 67/67/67
f 68/68/68 69/69/69 70/70/70
f 70/70/70 71/71/71 72/72/72
f 73/73/73 74/74/74 75/75/75
f 76/76/76 77/77/77 73/73/73
f 78/78/78 79/79/79 80/80/80
f 81/81/81 82/82/82 78/78/78
f 83/83/83 84/84/84 85/85/85
f 86/86/86 87/87/87 83/83/83
f 88/88/88 89/89/89 90/90/90
f 91/91/91 92/92/92 88/88/88
f 93/93/93 94/94/94 95/95/95
f 95/95/95 96/96/96 97/97/97
f 98/98/98 99/99/99 100/100/100
f 101/101/101 102/102/102 98/98/98
f 103/103/103 104/104/104 105/105/105
f 105/105/105 106/106/106 107/107/107
f 108/108/108 109/109/109 110/110/110
f 111/111/111 112/112/112 108/108/108
f 113/113/113 114/114/114 115/115/115
f 116/116/116 117/117/117 113/113/113
f 118/118/118 119/119/119 120/120/120
f 121/121/121 122/122/122 118/118/118
f 123/123/123 124/124/124 125/125/125
f 125/125/125 126/126/126 127/127/127
f 128/128/128 129/129/129 130/130/130
f 131/131/131 132/132/132 128/128/128
f 133/133/133 134/134/134 135/135/135
f 136/136/136 137/137/137 133/133/133
f 138/138/138 139/139/139 140/140/140
f 141/141/141 142/142/142 138/138/138
f 143/143/143 144/144/144 145/145/145
f 146/146/146 147/147/147 143/143/143
f 148/148/148 149/149/149 150/150/150
f 151/151/151 152/152/152 148/148/148
f 153/153/153 148/148/148 152/152/152
f 152/152/152 154/154/154 153/153/153
f 155/155/155 156/156/156 157/157/157
f 157/157/157 158/158/158 155/155/155
f 159/159/159 160/160/160 161/161/161
f 160/160/160 162/162/162 161/161/161
f 163/163/163 164/164/164 165/165/165
f 166/166/166 163/163/163 165/165/165
f 167/167/167 168/168/168 169/169/169
f 170/170/170 167/167/167 169/169/169
f 171/171/171 172/172/172 173/173/173
f 173/173/173 174/174/174 171/171/171
f 175/175/175 176/176/176 177/177/177
f 177/177/177 178/178/178 175/175/175
f 179/179/179 180/180/180 181/181/181
f 181/181/181 182/182/182 179/179/179
f 183/183/183 184/184/184 185/185/185
f 185/185/185 186/186/186 183/183/183
f 187/187/187 188/188/188 189/189/189
f 189/189/189 190/190/190 187/187/187
f 191/191/191 192/192/192 193/193/193
f 193/193/193 194/194/194 191/191/191
f 195/195/195 196/196/196 197/197/197
f 197/197/197 198/198/198 195/195/195
f 199/199/199 200/200/200 201/201/201
f 201/201/201 202/202/202 199/199/199
f 203/203/203 204/204/204 205/205/205
f 205/205/205 206/206/206 203/203/203
f 207/207/207 208/208/208 209/209/209
f 209/209/209 210/210/210 207/207/207
f 211/211/211 212/212/212 213/213/213
f 213/213/213 214/214/214 211/211/211
f 215/215/215 216/216/216 217/217/217
f 217/217/217 218/218/218 215/215/215
f 219/219/219 220/220/220 221/221/221
f 221/221/221 222/222/222 219/219/219
f 223/223/223 224/224/224 225/225/225
f 225/225/225 226/226/226 223/223/223
f 227/227/227 228/228/228 229/229/229
f 229/229/229 230/230/230 227/227/227
f 231/231/231 232/232/232 233/233/233
f 233/233/233 234/234/234 231/231/231
f 235/235/235 236/236/236 237/237/237
f 237/237/237 238/238/238 235/235/235
f 239/239/239 240/240/240 241/241/241
f 241/241/241 242/242/242 239/239/239
f 243/243/243 244/244/244 245/245/245
f 245/245/245 246/246/246 243/243/243
f 247/247/247 248/248/248 249/249/249
f 249/249/249 250/250/250 247/247/247
f 251/251/251 252/252/252 253/253/253
f 253/253/253 254/254/254 251/251/251
f 255/255/255 256/256/256 257/257/257
f 257/257/257 258/258/258 255/255/255
f 259/259/259 260/260/260 261/261/261
f 261/261/261 262/262/262 259/259/259
f 263/263/263 264/264/264 265/265/265
f 265/265/265 266/266/266 263/263/263
f 267/267/267 268/268/268 269/269/269
f 269/269/269 270/270/270 267/267/267
f 271/271/271 272/272/272 273/273/273
f 273/273/273 274/274/274 271/271/271
f 275/275/275 276/276/276 277/277/277
f 277/277/277 278/278/278 275/275/275
f 278/278/278 277/277/277 279/279/279
f 279/279/279 280/280/280 278/278/278
f 281/281/281 282/282/282 283/283/283
f 283/283/283 284/284/284 281/281/281
f 285/285/285 281/281/281 284/284/284
f 284/284/284 286/286/286 285/285/285
f 287/287/287 288/288/288 289/289/289
f 289/289/289 290/290/290 287/287/287
f 291/291/291 287/287/287 290/290/290
f 290/290/290 292/292/292 291/291/291
f 293/293/293 294/294/294 295/295/295
f 295/295/295 296/296/296 293/293/293
f 297/297/297 293/293/293 296/296/296
f 296/296/296 298/298/298 297/297/297
