v 0.351154 -0.289729 -0.016492999999999983
v 0.367954 -0.288847 0.16856200000000002
v 0.320103 0.279038 0.17559799999999998
v 0.320103 0.279038 0.17559799999999998
v 0.322141 0.28101 -0.012437000000000017
v 0.351154 -0.289729 -0.016492999999999983
v -0.272211 0.291135 -0.016366000000000016
v 0.301928 0.271144 -0.011700000000000018
v 0.300347 0.29756 0.17536899999999997
v 0.300347 0.29756 0.17536899999999997
v -0.271684 0.281538 0.16835999999999998
v -0.272211 0.291135 -0.016366000000000016
v -0.288234 -0.280583 -0.016943999999999983
v -0.296856 0.265445 -0.012437000000000016
v -0.305537 0.263679 0.17559799999999998
v -0.305537 0.263679 0.17559799999999998
v -0.314767 -0.297556 0.17624500000000004
v -0.288234 -0.280583 -0.016943999999999983
v 0.357381 -0.289729 -0.016492999999999983
v 0.328368 0.28101 -0.012437000000000017
v 0.32633 0.279038 0.17559799999999998
v 0.32633 0.279038 0.17559799999999998
v 0.374181 -0.288847 0.16856200000000002
v 0.357381 -0.289729 -0.016492999999999983
v 0.367712 -0.46199399999999996 0.98835
v 0.331632 -0.287347 0.428529
v 0.337142 -0.30691 0.41734
v 0.337142 -0.30691 0.41734
v 0.373223 -0.4828029999999999 0.980859
v 0.367712 -0.46199399999999996 0.98835
v 0.437371 -0.254979 -0.017844999999999982
v 0.426546 -0.24320699999999998 0.255878
v 0.388361 -0.351656 0.260066
v 0.388361 -0.351656 0.260066
v 0.386839 -0.352419 -0.01784499999999998
v 0.437371 -0.254979 -0.017844999999999982
v -0.272211 0.29806 -0.016366000000000016
v -0.271684 0.288463 0.16835999999999998
v 0.300347 0.304485 0.17536899999999997
v 0.300347 0.304485 0.17536899999999997
v 0.301928 0.299067 -0.01170000000000002
v -0.272211 0.29806 -0.016366000000000016
v -0.304843 -0.280583 -0.016943999999999983
v -0.32116 -0.297556 0.17624500000000004
v -0.311931 0.263679 0.17559799999999998
v -0.311931 0.263679 0.17559799999999998
v -0.30325 0.265445 -0.012437000000000016
v -0.304843 -0.280583 -0.016943999999999983
v -0.373566 -0.47282799999999997 0.990158
v -0.365207 -0.49355399999999994 0.983204
v -0.306135 -0.301206 0.421066
v -0.306135 -0.301206 0.421066
v -0.314306 -0.281631 0.431486
v -0.373566 -0.47282799999999997 0.990158
v -0.401976 -0.257937 -0.017844999999999982
v -0.378666 -0.352888 -0.01784499999999998
v -0.380076 -0.352125 0.256173
v -0.380076 -0.352125 0.256173
v -0.412228 -0.257937 0.250443
v -0.401976 -0.257937 -0.017844999999999982
v -0.266194 -0.713956 0.00020900000000004373
v -0.264346 -0.982418 0.00020900000000006016
v -0.255556 -0.977564 0.28954500000000005
v -0.255556 -0.977564 0.28954500000000005
v -0.257527 -0.719579 0.28954500000000005
v -0.266194 -0.713956 0.00020900000000004373
v 0.290663 -0.725857 0.00020900000000004446
v -0.266194 -0.713956 0.00020900000000004373
v -0.257527 -0.719579 0.28954500000000005
v -0.257527 -0.719579 0.28954500000000005
v 0.279891 -0.737554 0.28954500000000005
v 0.290663 -0.725857 0.00020900000000004446
v 0.290528 -1.001162 0.00020900000000006132
v 0.290663 -0.725857 0.00020900000000004446
v 0.279891 -0.737554 0.28954500000000005
v 0.279891 -0.737554 0.28954500000000005
v 0.281662 -0.996032 0.28954500000000005
v 0.290528 -1.001162 0.00020900000000006132
v -0.264346 -0.982418 0.00020900000000006016
v 0.290528 -1.001162 0.00020900000000006132
v 0.281662 -0.996032 0.28954500000000005
v 0.281662 -0.996032 0.28954500000000005
v -0.255556 -0.977564 0.28954500000000005
v -0.264346 -0.982418 0.00020900000000006016
v 0.357893 0.252178 -0.017845000000000014
v 0.363552 0.277157 0.270202
v 0.291537 0.271428 0.271449
v 0.303385 0.244031 -0.017845000000000014
v 0.357893 0.252178 -0.017845000000000014
v 0.350566 0.327971 -0.01784500000000002
v 0.356225 0.351862 0.254855
v 0.363552 0.277157 0.270202
v 0.357893 0.252178 -0.017845000000000014
v 0.350566 0.327971 -0.01784500000000002
v 0.278469 0.306882 -0.017845000000000017
v 0.283666 0.338769 0.256792
v 0.356225 0.351862 0.254855
v 0.350566 0.327971 -0.01784500000000002
v 0.278469 0.306882 -0.017845000000000017
v 0.315032 0.525711 0.850336
v 0.359937 -0.42004299999999994 1.047395
v 0.367335 -0.41318399999999994 1.074349
v 0.367335 -0.41318399999999994 1.074349
v 0.32458 0.528374 0.876294
v 0.338653 0.528594 0.856085
v 0.386175 -0.4158069999999999 1.051921
v 0.359937 -0.42004299999999994 1.047395
v 0.315032 0.525711 0.850336
v 0.338653 0.528594 0.856085
v 0.361799 0.42577500000000007 1.020292
v 0.327653 0.340238 0.19590699999999997
v 0.313813 0.297637 0.19901999999999997
v 0.354058 0.4017530000000001 1.022047
v 0.361799 0.42577500000000007 1.020292
v 0.354058 0.4017530000000001 1.022047
v 0.313813 0.297637 0.19901999999999997
v 0.355534 0.311403 0.19801399999999997
v 0.355534 0.311403 0.19801399999999997
v 0.377272 0.4097720000000001 1.021461
v 0.375824 -0.28443399999999996 1.18734
v 0.354187 -0.25101 0.252269
v 0.377318 -0.329307 0.24965000000000004
v 0.377318 -0.329307 0.24965000000000004
v 0.389159 -0.3351759999999999 1.18734
v 0.389159 -0.3351759999999999 1.18734
v 0.377318 -0.329307 0.24965000000000004
v 0.421009 -0.276118 0.24453000000000003
v 0.421009 -0.276118 0.24453000000000003
v 0.414241 -0.29966899999999996 1.18734
v 0.348517 -0.211259 -0.017844999999999986
v 0.359836 -0.21163499999999996 0.263088
v 0.426546 -0.24320699999999998 0.255878
v 0.437371 -0.254979 -0.017844999999999982
v 0.348517 -0.211259 -0.017844999999999986
v 0.423714 -0.402158 0.365499
v 0.366538 0.48357800000000006 0.935166
v 0.374202 0.5025970000000001 0.906889
v 0.374202 0.5025970000000001 0.906889
v 0.43135 -0.385663 0.332906
v -0.346216 0.276368 -0.017845000000000017
v -0.257472 0.25916 -0.017845000000000017
v -0.266776 0.264823 0.261631
v -0.346216 0.276368 0.261631
v -0.346216 0.276368 -0.017845000000000017
v -0.457216 -0.36653099999999994 0.988818
v -0.455997 -0.34665499999999994 1.019075
v 0.437371 -0.32769999999999994 1.011817
v 0.437371 -0.32769999999999994 1.011817
v 0.435013 -0.3465869999999999 0.981782
v -0.456949 -0.37109899999999996 1.016092
v -0.457216 -0.36653099999999994 0.988818
v 0.435013 -0.3465869999999999 0.981782
v 0.43293 -0.35067699999999996 1.009213
v -0.456949 -0.37109899999999996 1.016092
v 0.444247 0.4194030000000001 0.83217
v 0.440465 0.42980100000000004 0.874833
v -0.436606 0.38998000000000005 0.881914
v -0.436606 0.38998000000000005 0.881914
v -0.436339 0.3793520000000001 0.837254
v 0.443864 0.44583200000000006 0.855553
v 0.444247 0.4194030000000001 0.83217
v -0.436339 0.3793520000000001 0.837254
v -0.43552 0.40659500000000004 0.861237
v 0.443864 0.44583200000000006 0.855553
v -0.320665 0.4814030000000001 0.860441
v -0.337347 -0.43568599999999996 1.056408
v -0.358446 -0.4352809999999999 1.045152
v -0.358446 -0.4352809999999999 1.045152
v -0.334738 0.4816230000000001 0.840231
v -0.320665 0.4814030000000001 0.860441
v -0.344286 0.48428600000000005 0.866189
v -0.350065 -0.42996899999999993 1.074349
v -0.350065 -0.42996899999999993 1.074349
v -0.337347 -0.43568599999999996 1.056408
v -0.352839 0.38157700000000006 1.020292
v -0.345098 0.35755500000000007 1.022047
v -0.2892 0.281118 0.19901999999999997
v -0.303041 0.32372 0.19590699999999997
v -0.352839 0.38157700000000006 1.020292
v -0.345098 0.35755500000000007 1.022047
v -0.368312 0.36557500000000004 1.021461
v -0.330922 0.294885 0.19801399999999997
v -0.330922 0.294885 0.19801399999999997
v -0.2892 0.281118 0.19901999999999997
v -0.375628 -0.3149719999999999 1.18734
v -0.387533 -0.35196099999999997 1.18734
v -0.352019 -0.329307 0.24757700000000002
v -0.352019 -0.329307 0.24757700000000002
v -0.330566 -0.264764 0.252794
v -0.387533 -0.35196099999999997 1.18734
v -0.411356 -0.32728299999999994 1.18734
v -0.393966 -0.286947 0.23737600000000003
v -0.393966 -0.286947 0.23737600000000003
v -0.352019 -0.329307 0.24757700000000002
v -0.405745 -0.400526 0.37296
v -0.412059 -0.38748 0.337433
v -0.374747 0.45650900000000005 0.911529
v -0.374747 0.45650900000000005 0.911529
v -0.368966 0.44090300000000004 0.942928
v -0.412059 -0.38748 0.337433
v -0.426447 -0.392998 0.353644
v -0.388834 0.44918300000000005 0.924994
v -0.388834 0.44918300000000005 0.924994
v -0.374747 0.45650900000000005 0.911529
v -0.33894 0.331243 0.261631
v -0.286241 0.33882 0.261631
v -0.285745 0.339196 -0.01784500000000002
v -0.285745 0.339196 -0.01784500000000002
v -0.33894 0.331244 -0.01784500000000002
v -0.346216 0.276368 0.261631
v -0.346216 0.276368 -0.017845000000000017
v 0.363552 0.277157 0.270202
v 0.356225 0.351862 0.254855
v 0.291537 0.271428 0.271449
v 0.283666 0.338769 0.256792
v 0.426546 -0.24320699999999998 0.255878
v 0.359836 -0.21163499999999996 0.263088
v 0.388361 -0.351656 0.260066
v 0.308891 -0.297015 0.267476
v -0.286241 0.33882 0.261631
v -0.33894 0.331243 0.261631
v -0.346216 0.276368 0.261631
v -0.266776 0.264823 0.261631
v -0.335453 -0.24309899999999998 0.263065
v -0.412228 -0.257937 0.250443
v -0.380076 -0.352125 0.256173
v -0.299499 -0.297015 0.271809
v 0.283666 0.338769 0.256792
v 0.278469 0.306882 -0.017845000000000017
v 0.303385 0.244031 -0.017845000000000014
v 0.291537 0.271428 0.271449
v 0.352267 -0.48875899999999994 0.905138
v 0.35199 -0.31179599999999996 0.979932
v 0.360965 -0.30750799999999995 0.964722
v 0.361564 -0.48647099999999993 0.888539
v 0.36286 -0.48971499999999996 0.919281
v 0.362285 -0.31479499999999994 0.992762
v 0.35199 -0.31179599999999996 0.979932
v 0.352267 -0.48875899999999994 0.905138
v 0.361564 -0.48647099999999993 0.888539
v 0.360965 -0.30750799999999995 0.964722
v 0.371261 -0.31050799999999995 0.977552
v 0.372157 -0.48742699999999994 0.902683
v 0.372157 -0.48742699999999994 0.902683
v 0.371261 -0.31050799999999995 0.977552
v 0.362285 -0.31479499999999994 0.992762
v 0.36286 -0.48971499999999996 0.919281
v 0.32458 0.528374 0.876294
v 0.367335 -0.41318399999999994 1.074349
v 0.386175 -0.4158069999999999 1.051921
v 0.338653 0.528594 0.856085
v 0.377272 0.4097720000000001 1.021461
v 0.355534 0.311403 0.19801399999999997
v 0.327653 0.340238 0.19590699999999997
v 0.361799 0.42577500000000007 1.020292
v 0.373223 -0.4828029999999999 0.980859
v 0.337142 -0.30691 0.41734
v 0.352669 -0.293605 0.423621
v 0.388644 -0.46893899999999994 0.98487
v 0.388644 -0.46893899999999994 0.98487
v 0.352669 -0.293605 0.423621
v 0.331632 -0.287347 0.428529
v 0.367712 -0.46199399999999996 0.98835
v 0.414241 -0.29966899999999996 1.18734
v 0.421009 -0.276118 0.24453000000000003
v 0.354187 -0.25101 0.252269
v 0.375824 -0.28443399999999996 1.18734
v 0.307188 -0.306816 -0.017844999999999982
v 0.308891 -0.297015 0.267476
v 0.359836 -0.21163499999999996 0.263088
v 0.348517 -0.211259 -0.017844999999999986
v 0.308891 -0.297015 0.267476
v 0.307188 -0.306816 -0.017844999999999982
v 0.386839 -0.352419 -0.01784499999999998
v 0.388361 -0.351656 0.260066
v -0.257472 0.25916 -0.017845000000000017
v -0.285745 0.339196 -0.01784500000000002
v -0.286241 0.33882 0.261631
v -0.266776 0.264823 0.261631
v 0.309236 0.27540700000000007 0.821548
v -0.32787 0.2569580000000001 0.83366
v -0.247422 0.25126 0.22291599999999998
v 0.293208 0.267778 0.22291599999999998
v -0.336458 0.3811590000000001 0.85515
v 0.338991 0.4213430000000001 0.86309
v 0.327989 0.29684 0.22235099999999997
v -0.283181 0.280321 0.22235099999999997
v -0.350641 -0.505544 0.905138
v -0.359938 -0.503256 0.888539
v -0.35934 -0.32429299999999994 0.964722
v -0.350364 -0.32858099999999996 0.979932
v -0.361234 -0.5064999999999998 0.919281
v -0.350641 -0.505544 0.905138
v -0.350364 -0.32858099999999996 0.979932
v -0.360659 -0.33158099999999996 0.992762
v -0.359938 -0.503256 0.888539
v -0.370531 -0.504212 0.902683
v -0.369635 -0.32729299999999995 0.977552
v -0.35934 -0.32429299999999994 0.964722
v -0.370531 -0.504212 0.902683
v -0.361234 -0.5064999999999998 0.919281
v -0.360659 -0.33158099999999996 0.992762
v -0.369635 -0.32729299999999995 0.977552
v -0.455997 -0.34665499999999994 1.019075
v -0.456949 -0.37109899999999996 1.016092
v 0.43293 -0.35067699999999996 1.009213
v 0.437371 -0.32769999999999994 1.011817
v 0.440465 0.42980100000000004 0.874833
v 0.443864 0.44583200000000006 0.855553
v -0.43552 0.40659500000000004 0.861237
v -0.436606 0.38998000000000005 0.881914
v -0.358446 -0.4352809999999999 1.045152
v -0.350065 -0.42996899999999993 1.074349
v -0.344286 0.48428600000000005 0.866189
v -0.334738 0.4816230000000001 0.840231
v -0.368312 0.36557500000000004 1.021461
v -0.352839 0.38157700000000006 1.020292
v -0.303041 0.32372 0.19590699999999997
v -0.330922 0.294885 0.19801399999999997
v -0.356043 -0.34907299999999997 0.978597
v -0.352654 -0.49780399999999997 0.916907
v 0.356942 -0.4810189999999999 0.911663
v 0.356942 -0.33306699999999995 0.972417
v 0.3671 -0.33182399999999995 1.01301
v 0.338991 0.4213430000000001 0.86309
v -0.336458 0.3811590000000001 0.85515
v -0.338079 -0.34860899999999995 1.012491
v -0.365207 -0.49355399999999994 0.983204
v -0.386948 -0.4870709999999999 0.984199
v -0.327953 -0.294967 0.422715
v -0.306135 -0.301206 0.421066
v -0.386948 -0.4870709999999999 0.984199
v -0.373566 -0.47282799999999997 0.990158
v -0.314306 -0.281631 0.431486
v -0.327953 -0.294967 0.422715
v -0.411356 -0.32728299999999994 1.18734
v -0.375628 -0.3149719999999999 1.18734
v -0.330566 -0.264764 0.252794
v -0.393966 -0.286947 0.23737600000000003
v -0.378666 -0.352888 -0.01784499999999998
v -0.284487 -0.293982 -0.017844999999999982
v -0.299499 -0.297015 0.271809
v -0.380076 -0.352125 0.256173
v -0.426447 -0.392998 0.353644
v -0.405745 -0.400526 0.37296
v -0.368966 0.44090300000000004 0.942928
v -0.388834 0.44918300000000005 0.924994
v -0.294042 -0.501837 0.07145800000000002
v 0.360044 -0.500911 0.07145800000000002
v 0.326982 0.280197 0.07145799999999998
v -0.301097 0.288859 0.07145799999999998
v 0.279891 -0.737554 0.28954500000000005
v -0.257527 -0.719579 0.28954500000000005
v -0.255556 -0.977564 0.28954500000000005
v 0.281662 -0.996032 0.28954500000000005
v 0.43135 -0.385663 0.332906
v 0.374202 0.5025970000000001 0.906889
v 0.381351 0.49362300000000003 0.925137
v 0.43906 -0.393135 0.354669
v 0.366538 0.48357800000000006 0.935166
v 0.423714 -0.402158 0.365499
v -0.304616 -0.257967 -0.016943999999999983
v -0.401976 -0.257937 -0.017844999999999982
v -0.412228 -0.257937 0.250443
v -0.335453 -0.24309899999999998 0.263065
v -0.284487 -0.293982 -0.017844999999999982
v -0.299499 -0.297015 0.271809
vt 0.860971 0.104943
vt 0.860511 0.025746
vt 0.404587 0.022737
vt 0.404587 0.022737
vt 0.403233 0.103206
vt 0.860971 0.104943
vt 0.860971 0.104943
vt 0.403233 0.103206
vt 0.404587 0.022737
vt 0.404587 0.022737
vt 0.860511 0.025746
vt 0.860971 0.104943
vt 0.860971 0.104943
vt 0.403233 0.103206
vt 0.404587 0.022737
vt 0.404587 0.022737
vt 0.860511 0.025746
vt 0.860971 0.104943
vt 0.860971 0.104943
vt 0.403233 0.103206
vt 0.404587 0.022737
vt 0.404587 0.022737
vt 0.860511 0.025746
vt 0.860971 0.104943
vt 0.816202 0.522614
vt 0.815866 0.114212
vt 0.829801 0.114485
vt 0.829801 0.114485
vt 0.829571 0.522933
vt 0.816202 0.522614
vt 0.532146 0.239769
vt 0.532417 0.110878
vt 0.594639 0.111096
vt 0.594639 0.111096
vt 0.587770 0.240022
vt 0.532146 0.239769
vt 0.860971 0.104943
vt 0.860511 0.025746
vt 0.404587 0.022737
vt 0.404587 0.022737
vt 0.403233 0.103206
vt 0.860971 0.104943
vt 0.860971 0.104943
vt 0.860511 0.025746
vt 0.404587 0.022737
vt 0.404587 0.022737
vt 0.403233 0.103206
vt 0.860971 0.104943
vt 0.811566 0.523589
vt 0.825205 0.522286
vt 0.825152 0.113860
vt 0.825152 0.113860
vt 0.811230 0.115187
vt 0.811566 0.523589
vt 0.518533 0.239712
vt 0.580964 0.239999
vt 0.587838 0.111067
vt 0.587838 0.111067
vt 0.518804 0.110821
vt 0.518533 0.239712
vt 0.919333 0.573182
vt 0.826051 0.572291
vt 0.825077 0.664905
vt 0.825077 0.664905
vt 0.919725 0.664703
vt 0.919333 0.573182
vt 0.989885 0.906928
vt 0.990264 0.664623
vt 0.919725 0.664703
vt 0.919725 0.664703
vt 0.919196 0.906916
vt 0.989885 0.906928
vt 0.824814 0.992239
vt 0.919871 0.992483
vt 0.919196 0.906916
vt 0.919196 0.906916
vt 0.824251 0.906957
vt 0.824814 0.992239
vt 0.751329 0.664857
vt 0.751157 0.906975
vt 0.824251 0.906957
vt 0.824251 0.906957
vt 0.825077 0.664905
vt 0.751329 0.664857
vt 0.572984 0.239919
vt 0.573234 0.111049
vt 0.629857 0.111161
vt 0.616824 0.240117
vt 0.572984 0.239919
vt 0.511032 0.239681
vt 0.511303 0.110789
vt 0.573234 0.111049
vt 0.572984 0.239919
vt 0.511032 0.239681
vt 0.446464 0.239254
vt 0.451521 0.110349
vt 0.511303 0.110789
vt 0.511032 0.239681
vt 0.446464 0.239254
vt 0.680128 0.627278
vt 0.675638 0.120552
vt 0.692328 0.120883
vt 0.692328 0.120883
vt 0.705498 0.626150
vt 0.728321 0.626090
vt 0.713805 0.118645
vt 0.768523 0.117580
vt 0.765667 0.625735
vt 0.728321 0.626090
vt 0.902256 0.040213
vt 0.887230 0.565009
vt 0.840781 0.561654
vt 0.890706 0.039337
vt 0.902256 0.040213
vt 0.951781 0.040119
vt 0.973043 0.564628
vt 0.920662 0.566942
vt 0.920662 0.566942
vt 0.918557 0.041561
vt 0.963594 0.039461
vt 0.992784 0.563744
vt 0.953302 0.565511
vt 0.953302 0.565511
vt 0.939968 0.040777
vt 0.939968 0.040777
vt 0.953302 0.565511
vt 0.920662 0.566942
vt 0.920662 0.566942
vt 0.918557 0.041561
vt 0.475346 0.239498
vt 0.475882 0.110640
vt 0.532417 0.110878
vt 0.532146 0.239769
vt 0.475346 0.239498
vt 0.791696 0.117797
vt 0.779142 0.625078
vt 0.752193 0.626392
vt 0.752193 0.626392
vt 0.768523 0.117580
vt 0.559371 0.239873
vt 0.616824 0.240117
vt 0.629857 0.111161
vt 0.559632 0.110992
vt 0.559371 0.239873
vt 0.768523 0.117580
vt 0.721691 0.118324
vt 0.746994 0.625913
vt 0.746994 0.625913
vt 0.779142 0.625078
vt 0.692328 0.120883
vt 0.658948 0.120221
vt 0.680128 0.627278
vt 0.705498 0.626150
vt 0.692328 0.120883
vt 0.680128 0.627278
vt 0.705498 0.626150
vt 0.692328 0.120883
vt 0.692328 0.120883
vt 0.658948 0.120221
vt 0.746994 0.625913
vt 0.765667 0.625735
vt 0.768523 0.117580
vt 0.713805 0.118645
vt 0.746994 0.625913
vt 0.779142 0.625078
vt 0.768523 0.117580
vt 0.721691 0.118324
vt 0.721691 0.118324
vt 0.765667 0.625735
vt 0.680128 0.627278
vt 0.716910 0.626120
vt 0.692328 0.120883
vt 0.692328 0.120883
vt 0.658948 0.120221
vt 0.890706 0.039337
vt 0.879157 0.038460
vt 0.840781 0.561654
vt 0.887230 0.565009
vt 0.890706 0.039337
vt 0.951781 0.040119
vt 0.918557 0.041561
vt 0.920662 0.566942
vt 0.920662 0.566942
vt 0.973043 0.564628
vt 0.963594 0.039461
vt 0.939968 0.040777
vt 0.953302 0.565511
vt 0.953302 0.565511
vt 0.992784 0.563744
vt 0.939968 0.040777
vt 0.918557 0.041561
vt 0.920662 0.566942
vt 0.920662 0.566942
vt 0.953302 0.565511
vt 0.768523 0.117580
vt 0.721691 0.118324
vt 0.765667 0.625735
vt 0.765667 0.625735
vt 0.779142 0.625078
vt 0.721691 0.118324
vt 0.713805 0.118645
vt 0.746994 0.625913
vt 0.746994 0.625913
vt 0.765667 0.625735
vt 0.518804 0.110821
vt 0.475882 0.110640
vt 0.475346 0.239498
vt 0.475346 0.239498
vt 0.518533 0.239712
vt 0.559632 0.110992
vt 0.559371 0.239873
vt 0.980353 0.987902
vt 0.932569 0.969307
vt 0.993183 0.932921
vt 0.946882 0.919356
vt 0.941533 0.987514
vt 0.930990 0.938363
vt 0.988332 0.967347
vt 0.972722 0.916068
vt 0.930990 0.938363
vt 0.929780 0.979892
vt 0.966820 0.991519
vt 0.984517 0.931430
vt 0.930990 0.938363
vt 0.929780 0.979892
vt 0.981565 0.969156
vt 0.972722 0.916068
vt 0.451521 0.110349
vt 0.446464 0.239254
vt 0.405250 0.240375
vt 0.407883 0.110588
vt 0.791696 0.117797
vt 0.779142 0.625078
vt 0.752193 0.626392
vt 0.768523 0.117580
vt 0.692328 0.120883
vt 0.705498 0.626150
vt 0.680128 0.627278
vt 0.675638 0.120552
vt 0.768523 0.117580
vt 0.752193 0.626392
vt 0.728321 0.626090
vt 0.713805 0.118645
vt 0.713805 0.118645
vt 0.728321 0.626090
vt 0.705498 0.626150
vt 0.692328 0.120883
vt 0.705498 0.626150
vt 0.692328 0.120883
vt 0.713805 0.118645
vt 0.728321 0.626090
vt 0.918557 0.041561
vt 0.920662 0.566942
vt 0.887230 0.565009
vt 0.902256 0.040213
vt 0.829571 0.522933
vt 0.829801 0.114485
vt 0.839183 0.117909
vt 0.838414 0.526572
vt 0.803578 0.527684
vt 0.803252 0.119126
vt 0.815866 0.114212
vt 0.816202 0.522614
vt 0.918557 0.041561
vt 0.920662 0.566942
vt 0.864006 0.563331
vt 0.890706 0.039337
vt 0.418701 0.239739
vt 0.424675 0.110354
vt 0.475882 0.110640
vt 0.475346 0.239498
vt 0.643670 0.111179
vt 0.631093 0.240109
vt 0.587770 0.240022
vt 0.594639 0.111096
vt 0.418701 0.239739
vt 0.475346 0.239498
vt 0.475882 0.110640
vt 0.424675 0.110354
vt 0.194819 0.006485
vt 0.194280 0.203683
vt 0.005739 0.203589
vt 0.005659 0.006448
vt 0.387714 0.255196
vt 0.386954 0.622909
vt 0.653863 0.622978
vt 0.653750 0.255370
vt 0.768523 0.117580
vt 0.721691 0.118324
vt 0.765667 0.625735
vt 0.779142 0.625078
vt 0.692328 0.120883
vt 0.658948 0.120221
vt 0.680128 0.627278
vt 0.705498 0.626150
vt 0.721691 0.118324
vt 0.713805 0.118645
vt 0.746994 0.625913
vt 0.765667 0.625735
vt 0.713805 0.118645
vt 0.692328 0.120883
vt 0.705498 0.626150
vt 0.746994 0.625913
vt 0.721691 0.118324
vt 0.692328 0.120883
vt 0.705498 0.626150
vt 0.746994 0.625913
vt 0.705498 0.626150
vt 0.746994 0.625913
vt 0.713805 0.118645
vt 0.692328 0.120883
vt 0.721691 0.118324
vt 0.692328 0.120883
vt 0.716910 0.626120
vt 0.765667 0.625735
vt 0.918557 0.041561
vt 0.890706 0.039337
vt 0.887230 0.565009
vt 0.920662 0.566942
vt 0.009588 0.210990
vt 0.012175 0.289912
vt 0.371158 0.287439
vt 0.370659 0.214623
vt 0.013130 0.635652
vt 0.007869 0.994114
vt 0.362107 0.993722
vt 0.362371 0.635008
vt 0.825205 0.522286
vt 0.838414 0.526572
vt 0.839183 0.117909
vt 0.825152 0.113860
vt 0.803578 0.527684
vt 0.811566 0.523589
vt 0.811230 0.115187
vt 0.803252 0.119126
vt 0.918557 0.041561
vt 0.890706 0.039337
vt 0.864006 0.563331
vt 0.920662 0.566942
vt 0.580964 0.239999
vt 0.631093 0.240109
vt 0.643670 0.111179
vt 0.587838 0.111067
vt 0.713805 0.118645
vt 0.675638 0.120552
vt 0.692813 0.626714
vt 0.746994 0.625913
vt 0.363457 0.608501
vt 0.363888 0.309506
vt 0.022015 0.311298
vt 0.020326 0.609197
vt 0.919196 0.906916
vt 0.919725 0.664703
vt 0.825077 0.664905
vt 0.824251 0.906957
vt 0.768523 0.117580
vt 0.752193 0.626392
vt 0.728321 0.626090
vt 0.713805 0.118645
vt 0.692813 0.626714
vt 0.675638 0.120552
vt 0.475346 0.239498
vt 0.518533 0.239712
vt 0.518804 0.110821
vt 0.475882 0.110640
vt 0.418701 0.239739
vt 0.424675 0.110354
vn -0.992286 -0.084734 0.090488
vn -0.992286 -0.084734 0.090488
vn -0.992286 -0.084734 0.090488
vn -0.99865 -0.050685 -0.011356999999999997
vn -0.99865 -0.050685 -0.011356999999999997
vn -0.99865 -0.050685 -0.011356999999999997
vn -0.035589 -0.989591 0.13943600000000006
vn -0.035589 -0.989591 0.13943600000000006
vn -0.035589 -0.989591 0.13943600000000006
vn 0.028596 -0.998241 -0.05194099999999994
vn 0.028596 -0.998241 -0.05194099999999994
vn 0.028596 -0.998241 -0.05194099999999994
vn 0.998811 0.015391000000000004 0.046256
vn 0.998811 0.015391000000000004 0.046256
vn 0.998811 0.015391000000000004 0.046256
vn 0.990761 -0.016137999999999993 0.134655
vn 0.990761 -0.016137999999999993 0.134655
vn 0.990761 -0.016137999999999993 0.134655
vn 0.99865 0.050684 0.011356999999999997
vn 0.99865 0.050684 0.011356999999999997
vn 0.99865 0.050684 0.011356999999999997
vn 0.992286 0.084733 -0.090488
vn 0.992286 0.084733 -0.090488
vn 0.992286 0.084733 -0.090488
vn -0.964741 0.227241 0.13279899999999997
vn -0.186718 0.93426 0.30380099999999993
vn -0.71932 -0.674954 -0.16436199999999998
vn -0.71932 -0.674954 -0.16436199999999998
vn 0.22003 -0.927051 -0.30358299999999994
vn -0.964741 0.227241 0.13279899999999997
vn 0.998825 0.047023 0.011747999999999996
vn 0.775814 0.630932 0.006148999999999961
vn 0.616135 -0.787213 0.02594300000000005
vn 0.616135 -0.787213 0.02594300000000005
vn -0.081033 -0.996583 0.015986000000000063
vn 0.998825 0.047023 0.011747999999999996
vn -0.028596 0.998241 0.05194099999999994
vn -0.028596 0.998241 0.05194099999999994
vn -0.028596 0.998241 0.05194099999999994
vn -0.001518 0.999579 -0.02896300000000006
vn -0.001518 0.999579 -0.02896300000000006
vn -0.001518 0.999579 -0.02896300000000006
vn -0.996439 0.016290999999999996 -0.08273
vn -0.996439 0.016290999999999996 -0.08273
vn -0.996439 0.016290999999999996 -0.08273
vn -0.998932 0.003294999999999997 -0.046086
vn -0.998932 0.003294999999999997 -0.046086
vn -0.998932 0.003294999999999997 -0.046086
vn 0.634657 0.708252 0.30917399999999995
vn 0.238226 -0.926306 -0.29189999999999994
vn 0.983038 -0.17832 0.04286900000000001
vn 0.983038 -0.17832 0.04286900000000001
vn -0.316942 0.907037 0.27718599999999993
vn 0.634657 0.708252 0.30917399999999995
vn -0.974759 0.222309 -0.020568000000000013
vn 0.064105 -0.997891 0.010160000000000061
vn -0.69741 -0.716442 -0.018172999999999957
vn -0.69741 -0.716442 -0.018172999999999957
vn -0.560274 0.82656 -0.05377200000000005
vn -0.974759 0.222309 -0.020568000000000013
vn -0.999512 -0.006877999999999999 0.030481
vn -0.999512 -0.006877999999999999 0.030481
vn -0.999512 -0.006877999999999999 0.030481
vn -0.999527 -0.007635999999999999 0.029791
vn -0.999527 -0.007635999999999999 0.029791
vn -0.999527 -0.007635999999999999 0.029791
vn 0.021363 0.999595 0.018783999999999936
vn 0.021363 0.999595 0.018783999999999936
vn 0.021363 0.999595 0.018783999999999936
vn 0.0334 0.998576 0.04161099999999994
vn 0.0334 0.998576 0.04161099999999994
vn 0.0334 0.998576 0.04161099999999994
vn 0.999308 -0.0004919999999999978 0.037184
vn 0.999308 -0.0004919999999999978 0.037184
vn 0.999308 -0.0004919999999999978 0.037184
vn 0.999511 0.006850000000000002 0.030503
vn 0.999511 0.006850000000000002 0.030503
vn 0.999511 0.006850000000000002 0.030503
vn -0.033756 -0.999291 0.016684000000000063
vn -0.033756 -0.999291 0.016684000000000063
vn -0.033756 -0.999291 0.016684000000000063
vn -0.03435 -0.999251 0.017808000000000063
vn -0.03435 -0.999251 0.017808000000000063
vn -0.03435 -0.999251 0.017808000000000063
vn 0.544281 -0.836039 0.06926100000000006
vn 0.932185 -0.361766 0.012527000000000022
vn -0.342087 -0.93713 0.06902300000000006
vn -0.768158 -0.63777 0.056411000000000044
vn 0.544281 -0.836039 0.06926100000000006
vn 0.82963 0.554491 -0.06522000000000003
vn 0.255343 0.961361 -0.10288500000000006
vn 0.932185 -0.361766 0.012527000000000022
vn 0.544281 -0.836039 0.06926100000000006
vn 0.82963 0.554491 -0.06522000000000003
vn -0.662198 0.746848 -0.06092500000000005
vn -0.973674 0.225008 -0.03648100000000001
vn 0.255343 0.961361 -0.10288500000000006
vn 0.82963 0.554491 -0.06522000000000003
vn -0.662198 0.746848 -0.06092500000000005
vn -0.990884 -0.06955800000000001 -0.115376
vn -0.393825 -0.20457100000000006 -0.896132
vn -0.703781 0.11404000000000004 0.701204
vn -0.703781 0.11404000000000004 0.701204
vn 0.343813 0.20952000000000007 0.915366
vn 0.725805 -0.10533300000000004 -0.679788
vn 0.979173 0.08632400000000001 0.18376
vn -0.393825 -0.20457100000000006 -0.896132
vn -0.990884 -0.06955800000000001 -0.115376
vn 0.725805 -0.10533300000000004 -0.679788
vn -0.672293 0.73868 -0.04872400000000005
vn 0.274479 0.955225 -0.11048100000000005
vn -0.977188 -0.199447 0.07296900000000002
vn -0.193359 -0.972087 0.13288700000000006
vn -0.672293 0.73868 -0.04872400000000005
vn -0.193359 -0.972087 0.13288700000000006
vn -0.977188 -0.199447 0.07296900000000002
vn 0.749851 -0.658997 0.058700000000000044
vn 0.749851 -0.658997 0.058700000000000044
vn 0.969352 0.239618 -0.05421400000000001
vn -0.969431 0.243588 0.029475999999999985
vn -0.147695 0.988257 0.039164999999999936
vn -0.7012 -0.712944 0.005434000000000043
vn -0.7012 -0.712944 0.005434000000000043
vn 0.390246 -0.920681 -0.007314999999999944
vn 0.390246 -0.920681 -0.007314999999999944
vn -0.7012 -0.712944 0.005434000000000043
vn 0.989934 -0.141516 0.0018420000000000088
vn 0.989934 -0.141516 0.0018420000000000088
vn 0.767069 0.641223 0.020940999999999963
vn -0.022387 0.999749 0.00017299999999993877
vn -0.597133 0.802132 0.00400399999999995
vn 0.775814 0.630932 0.006148999999999961
vn 0.998825 0.047023 0.011747999999999996
vn -0.022387 0.999749 0.00017299999999993877
vn -0.980452 -0.146892 0.130908
vn 0.228216 -0.516054 0.825594
vn -0.801961 0.28646699999999997 -0.524209
vn -0.801961 0.28646699999999997 -0.524209
vn 0.713556 0.4120289999999999 -0.56663
vn -0.584541 -0.811342 0.005978000000000049
vn 0.974413 -0.223458 0.024204000000000014
vn 0.345558 -0.938135 0.022173000000000057
vn -0.946267 -0.323387 1.9801742721793254E-17
vn -0.584541 -0.811342 0.005978000000000049
vn -0.016513 0.44968899999999995 -0.893033
vn -0.002886 0.46870800000000007 0.883348
vn -0.02263 0.990801 -0.13342100000000007
vn -0.02263 0.990801 -0.13342100000000007
vn 0.01439 -0.824252 -0.56604
vn 0.023828 -0.97187 0.23430900000000005
vn -0.016513 0.44968899999999995 -0.893033
vn 0.01439 -0.824252 -0.56604
vn 0.020458 -0.624945 0.780401
vn 0.023828 -0.97187 0.23430900000000005
vn 0.044486 -0.988662 -0.14341799999999993
vn -0.0068 0.31289600000000006 0.949763
vn 0.039373 -0.757562 0.651575
vn 0.039373 -0.757562 0.651575
vn -0.014029 0.18463999999999994 -0.982706
vn -0.043838 0.928583 -0.3685260000000001
vn 0.044486 -0.988662 -0.14341799999999993
vn -0.014029 0.18463999999999994 -0.982706
vn -0.041586 0.970413 0.23784499999999995
vn -0.043838 0.928583 -0.3685260000000001
vn 0.999779 -0.013571999999999999 0.016032
vn 0.980574 -0.05788500000000001 -0.187413
vn -0.46688 -0.18583200000000005 -0.864575
vn -0.46688 -0.18583200000000005 -0.864575
vn -0.181569 -0.21001200000000006 -0.960691
vn 0.999779 -0.013571999999999999 0.016032
vn -0.913402 0.10591500000000002 0.393038
vn 0.021058 0.21205900000000005 0.97703
vn 0.021058 0.21205900000000005 0.97703
vn 0.980574 -0.05788500000000001 -0.187413
vn 0.670658 0.741678 -0.011468000000000046
vn 0.191311 -0.975994 0.10409600000000005
vn 0.975965 -0.200719 0.08488100000000001
vn -0.276025 0.957484 -0.08387200000000006
vn 0.670658 0.741678 -0.011468000000000046
vn 0.191311 -0.975994 0.10409600000000005
vn -0.969115 0.238043 -0.06443900000000001
vn -0.749149 -0.662016 0.02258600000000004
vn -0.749149 -0.662016 0.02258600000000004
vn 0.975965 -0.200719 0.08488100000000001
vn 0.978197 0.199603 0.05736099999999999
vn -0.265942 -0.963439 -0.032558999999999935
vn 0.667861 -0.744248 0.007568000000000046
vn 0.667861 -0.744248 0.007568000000000046
vn 0.178475 0.982049 0.06104999999999994
vn -0.265942 -0.963439 -0.032558999999999935
vn -0.757123 0.653114 0.01436799999999996
vn -0.96696 -0.253288 -0.028855999999999986
vn -0.96696 -0.253288 -0.028855999999999986
vn 0.667861 -0.744248 0.007568000000000046
vn 0.96866 -0.166959 0.183909
vn -0.273891 0.548908 -0.789737
vn 0.802549 0.31090499999999993 -0.509169
vn 0.802549 0.31090499999999993 -0.509169
vn -0.257394 -0.53417 0.805239
vn -0.273891 0.548908 -0.789737
vn -0.944343 -0.15477299999999997 0.290279
vn -0.958601 0.18812 -0.213763
vn -0.958601 0.18812 -0.213763
vn 0.802549 0.31090499999999993 -0.509169
vn -0.519051 0.854743 0.0004369999999999477
vn 0.746013 0.665809 0.012758999999999958
vn 0.271713 0.962378 0.001331999999999941
vn 0.271713 0.962378 0.001331999999999941
vn -0.86217 0.506619 -3.102146683686165E-17
vn -0.946267 -0.323387 1.9801742721793254E-17
vn -0.584541 -0.811342 0.005978000000000049
vn 0.000945 0.20131500000000005 0.979526
vn -0.005552 0.20632100000000006 0.978469
vn -0.005552 0.20632100000000006 0.978469
vn -0.012043 0.21131000000000005 0.977345
vn 0.10767 0.0004780000000000609 0.994187
vn 0.099244 -0.0012569999999999392 0.995062
vn 0.099244 -0.0012569999999999392 0.995062
vn 0.090806 -0.002993999999999939 0.995864
vn 0 6.123233995736766E-17 1
vn 0 6.123233995736766E-17 1
vn 0 6.123233995736766E-17 1
vn 0 6.123233995736766E-17 1
vn -0.184068 0.01320700000000006 0.982825
vn -0.163035 0.004359000000000061 0.986611
vn -0.184068 0.01320700000000006 0.982825
vn -0.204945 0.02202300000000006 0.978526
vn -0.973674 0.225008 -0.03648100000000001
vn -0.662198 0.746848 -0.06092500000000005
vn -0.768158 -0.63777 0.056411000000000044
vn -0.342087 -0.93713 0.06902300000000006
vn -0.867574 0.19238999999999998 -0.458586
vn -0.86793 0.19221099999999997 -0.457988
vn -0.867574 0.19238999999999998 -0.458586
vn -0.867218 0.19256999999999996 -0.459185
vn -0.783893 -0.24270999999999998 0.571493
vn -0.78351 -0.24284599999999998 0.57196
vn -0.783893 -0.24270999999999998 0.571493
vn -0.784275 -0.24257399999999998 0.571026
vn 0.783527 0.24555499999999997 -0.570779
vn 0.783243 0.24572999999999998 -0.571093
vn 0.783527 0.24555499999999997 -0.570779
vn 0.78381 0.24538099999999996 -0.570465
vn 0.867773 -0.18999299999999997 0.459208
vn 0.868062 -0.18974599999999997 0.458766
vn 0.867773 -0.18999299999999997 0.459208
vn 0.867485 -0.19024099999999997 0.459651
vn 0.343813 0.20952000000000007 0.915366
vn -0.703781 0.11404000000000004 0.701204
vn 0.979173 0.08632400000000001 0.18376
vn 0.725805 -0.10533300000000004 -0.679788
vn 0.969352 0.239618 -0.05421400000000001
vn 0.749851 -0.658997 0.058700000000000044
vn 0.274479 0.955225 -0.11048100000000005
vn -0.672293 0.73868 -0.04872400000000005
vn 0.22003 -0.927051 -0.30358299999999994
vn -0.71932 -0.674954 -0.16436199999999998
vn 0.955717 -0.257924 -0.14170599999999997
vn 0.761172 0.631397 0.14817399999999997
vn 0.761172 0.631397 0.14817399999999997
vn 0.955717 -0.257924 -0.14170599999999997
vn -0.186718 0.93426 0.30380099999999993
vn -0.964741 0.227241 0.13279899999999997
vn 0.767069 0.641223 0.020940999999999963
vn 0.989934 -0.141516 0.0018420000000000088
vn -0.147695 0.988257 0.039164999999999936
vn -0.969431 0.243588 0.029475999999999985
vn -0.999512 0.018161 0.02541
vn -0.852204 -0.523085 0.011379000000000031
vn -0.597133 0.802132 0.00400399999999995
vn -0.022387 0.999749 0.00017299999999993877
vn -0.852204 -0.523085 0.011379000000000031
vn -0.999512 0.018161 0.02541
vn -0.081033 -0.996583 0.015986000000000063
vn 0.616135 -0.787213 0.02594300000000005
vn 0.974413 -0.223458 0.024204000000000014
vn 0.271713 0.962378 0.001331999999999941
vn 0.746013 0.665809 0.012758999999999958
vn 0.345558 -0.938135 0.022173000000000057
vn 0.029866 -0.999475 0.012545000000000061
vn 0.029193 -0.999487 0.01317000000000006
vn 0.029866 -0.999475 0.012545000000000061
vn 0.030538 -0.999463 0.011919000000000061
vn -0.041371 0.983783 -0.17452700000000004
vn -0.056092 0.980274 -0.18951600000000005
vn -0.041371 0.983783 -0.17452700000000004
vn -0.026672 0.986838 -0.15950000000000006
vn 0.867574 0.19238999999999998 -0.458586
vn 0.867218 0.19256999999999996 -0.459185
vn 0.867574 0.19238999999999998 -0.458586
vn 0.86793 0.19220999999999996 -0.457987
vn 0.783894 -0.24270999999999998 0.571491
vn 0.784275 -0.24257399999999998 0.571026
vn 0.783894 -0.24270999999999998 0.571491
vn 0.783513 -0.24284499999999998 0.571957
vn -0.783526 0.24555599999999997 -0.57078
vn -0.783809 0.24538099999999996 -0.570466
vn -0.783526 0.24555599999999997 -0.57078
vn -0.783242 0.24572999999999998 -0.571094
vn -0.867772 -0.18999399999999997 0.45921
vn -0.867484 -0.19024099999999997 0.459651
vn -0.867772 -0.18999399999999997 0.45921
vn -0.86806 -0.18974699999999997 0.458768
vn -0.002886 0.46870800000000007 0.883348
vn 0.023828 -0.97187 0.23430900000000005
vn 0.020458 -0.624945 0.780401
vn -0.02263 0.990801 -0.13342100000000007
vn -0.0068 0.31289600000000006 0.949763
vn -0.043838 0.928583 -0.3685260000000001
vn -0.041586 0.970413 0.23784499999999995
vn 0.039373 -0.757562 0.651575
vn -0.46688 -0.18583200000000005 -0.864575
vn 0.021058 0.21205900000000005 0.97703
vn -0.913402 0.10591500000000002 0.393038
vn -0.181569 -0.21001200000000006 -0.960691
vn -0.969115 0.238043 -0.06443900000000001
vn 0.670658 0.741678 -0.011468000000000046
vn -0.276025 0.957484 -0.08387200000000006
vn -0.749149 -0.662016 0.02258600000000004
vn 0.016212 -0.38128699999999993 0.924315
vn 0.01588 -0.38276899999999997 0.923707
vn 0.016212 -0.38128699999999993 0.924315
vn 0.016543 -0.3798019999999999 0.92492
vn -0.014409 0.20257500000000006 0.979161
vn -0.023089 0.19434300000000004 0.980662
vn -0.014409 0.20257500000000006 0.979161
vn -0.005737 0.21077000000000007 0.977519
vn 0.238226 -0.926306 -0.29189999999999994
vn -0.971736 0.235038 -0.022064000000000014
vn -0.72959 -0.619924 -0.28877699999999995
vn 0.983038 -0.17832 0.04286900000000001
vn -0.971736 0.235038 -0.022064000000000014
vn 0.634657 0.708252 0.30917399999999995
vn -0.316942 0.907037 0.27718599999999993
vn -0.72959 -0.619924 -0.28877699999999995
vn -0.757123 0.653114 0.01436799999999996
vn 0.978197 0.199603 0.05736099999999999
vn 0.178475 0.982049 0.06104999999999994
vn -0.96696 -0.253288 -0.028855999999999986
vn 0.064105 -0.997891 0.010160000000000061
vn 0.99426 0.087658 0.06134599999999999
vn 0.864541 -0.501502 0.032635000000000025
vn -0.69741 -0.716442 -0.018172999999999957
vn -0.944343 -0.15477299999999997 0.290279
vn 0.96866 -0.166959 0.183909
vn -0.257394 -0.53417 0.805239
vn -0.958601 0.18812 -0.213763
vn 0 6.123233995736766E-17 1
vn 0 6.123233995736766E-17 1
vn 0 6.123233995736766E-17 1
vn 0 6.123233995736766E-17 1
vn -0 6.123233995736766E-17 1
vn 0 6.123233995736766E-17 1
vn -0 6.123233995736766E-17 1
vn -0 6.123233995736766E-17 1
vn 0.713556 0.4120289999999999 -0.56663
vn -0.801961 0.28646699999999997 -0.524209
vn 0.998505 0.045558 0.030216999999999997
vn 0.904594 -0.18750199999999997 0.382823
vn 0.228216 -0.516054 0.825594
vn -0.980452 -0.146892 0.130908
vn 0.270679 0.962669 -0.000575000000000059
vn -0.974759 0.222309 -0.020568000000000013
vn -0.560274 0.82656 -0.05377200000000005
vn 0.60027 0.79958 0.018654999999999953
vn 0.99426 0.087658 0.06134599999999999
vn 0.864541 -0.501502 0.032635000000000025
g 04
f 1/1/1 2/2/2 3/3/3
f 4/4/4 5/5/5 6/6/6
f 7/7/7 8/8/8 9/9/9
f 10/10/10 11/11/11 12/12/12
f 13/13/13 14/14/14 15/15/15
f 16/16/16 17/17/17 18/18/18
f 19/19/19 20/20/20 21/21/21
f 22/22/22 23/23/23 24/24/24
f 25/25/25 26/26/26 27/27/27
f 28/28/28 29/29/29 30/30/30
f 31/31/31 32/32/32 33/33/33
f 34/34/34 35/35/35 36/36/36
f 37/37/37 38/38/38 39/39/39
f 40/40/40 41/41/41 42/42/42
f 43/43/43 44/44/44 45/45/45
f 46/46/46 47/47/47 48/48/48
f 49/49/49 50/50/50 51/51/51
f 52/52/52 53/53/53 54/54/54
f 55/55/55 56/56/56 57/57/57
f 58/58/58 59/59/59 60/60/60
f 61/61/61 62/62/62 63/63/63
f 64/64/64 65/65/65 66/66/66
f 67/67/67 68/68/68 69/69/69
f 70/70/70 71/71/71 72/72/72
f 73/73/73 74/74/74 75/75/75
f 76/76/76 77/77/77 78/78/78
f 79/79/79 80/80/80 81/81/81
f 82/82/82 83/83/83 84/84/84
f 85/85/85 86/86/86 87/87/87
f 87/87/87 88/88/88 89/89/89
f 90/90/90 91/91/91 92/92/92
f 92/92/92 93/93/93 94/94/94
f 95/95/95 96/96/96 97/97/97
f 97/97/97 98/98/98 99/99/99
f 100/100/100 101/101/101 102/102/102
f 103/103/103 104/104/104 100/100/100
f 105/105/105 106/106/106 107/107/107
f 107/107/107 108/108/108 109/109/109
f 110/110/110 111/111/111 112/112/112
f 112/112/112 113/113/113 114/114/114
f 115/115/115 116/116/116 117/117/117
f 118/118/118 119/119/119 115/115/115
f 120/120/120 121/121/121 122/122/122
f 123/123/123 124/124/124 120/120/120
f 125/125/125 126/126/126 127/127/127
f 128/128/128 129/129/129 125/125/125
f 130/130/130 131/131/131 132/132/132
f 132/132/132 133/133/133 134/134/134
f 135/135/135 136/136/136 137/137/137
f 138/138/138 139/139/139 135/135/135
f 140/140/140 141/141/141 142/142/142
f 142/142/142 143/143/143 144/144/144
f 145/145/145 146/146/146 147/147/147
f 148/148/148 149/149/149 145/145/145
f 150/150/150 151/151/151 152/152/152
f 152/152/152 153/153/153 154/154/154
f 155/155/155 156/156/156 157/157/157
f 158/158/158 159/159/159 155/155/155
f 160/160/160 161/161/161 162/162/162
f 162/162/162 163/163/163 164/164/164
f 165/165/165 166/166/166 167/167/167
f 168/168/168 169/169/169 165/165/165
f 170/170/170 171/171/171 172/172/172
f 173/173/173 174/174/174 170/170/170
f 175/175/175 176/176/176 177/177/177
f 177/177/177 178/178/178 179/179/179
f 180/180/180 181/181/181 182/182/182
f 183/183/183 184/184/184 180/180/180
f 185/185/185 186/186/186 187/187/187
f 188/188/188 189/189/189 185/185/185
f 190/190/190 191/191/191 192/192/192
f 193/193/193 194/194/194 190/190/190
f 195/195/195 196/196/196 197/197/197
f 198/198/198 199/199/199 195/195/195
f 200/200/200 201/201/201 202/202/202
f 203/203/203 204/204/204 200/200/200
f 205/205/205 206/206/206 207/207/207
f 208/208/208 209/209/209 205/205/205
f 210/210/210 205/205/205 209/209/209
f 209/209/209 211/211/211 210/210/210
f 212/212/212 213/213/213 214/214/214
f 213/213/213 215/215/215 214/214/214
f 216/216/216 217/217/217 218/218/218
f 217/217/217 219/219/219 218/218/218
f 220/220/220 221/221/221 222/222/222
f 223/223/223 220/220/220 222/222/222
f 224/224/224 225/225/225 226/226/226
f 227/227/227 224/224/224 226/226/226
f 228/228/228 229/229/229 230/230/230
f 230/230/230 231/231/231 228/228/228
f 232/232/232 233/233/233 234/234/234
f 234/234/234 235/235/235 232/232/232
f 236/236/236 237/237/237 238/238/238
f 238/238/238 239/239/239 236/236/236
f 240/240/240 241/241/241 242/242/242
f 242/242/242 243/243/243 240/240/240
f 244/244/244 245/245/245 246/246/246
f 246/246/246 247/247/247 244/244/244
f 248/248/248 249/249/249 250/250/250
f 250/250/250 251/251/251 248/248/248
f 252/252/252 253/253/253 254/254/254
f 254/254/254 255/255/255 252/252/252
f 256/256/256 257/257/257 258/258/258
f 258/258/258 259/259/259 256/256/256
f 260/260/260 261/261/261 262/262/262
f 262/262/262 263/263/263 260/260/260
f 264/264/264 265/265/265 266/266/266
f 266/266/266 267/267/267 264/264/264
f 268/268/268 269/269/269 270/270/270
f 270/270/270 271/271/271 268/268/268
f 272/272/272 273/273/273 274/274/274
f 274/274/274 275/275/275 272/272/272
f 276/276/276 277/277/277 278/278/278
f 278/278/278 279/279/279 276/276/276
f 280/280/280 281/281/281 282/282/282
f 282/282/282 283/283/283 280/280/280
f 284/284/284 285/285/285 286/286/286
f 286/286/286 287/287/287 284/284/284
f 288/288/288 289/289/289 290/290/290
f 290/290/290 291/291/291 288/288/288
f 292/292/292 293/293/293 294/294/294
f 294/294/294 295/295/295 292/292/292
f 296/296/296 297/297/297 298/298/298
f 298/298/298 299/299/299 296/296/296
f 300/300/300 301/301/301 302/302/302
f 302/302/302 303/303/303 300/300/300
f 304/304/304 305/305/305 306/306/306
f 306/306/306 307/307/307 304/304/304
f 308/308/308 309/309/309 310/310/310
f 310/310/310 311/311/311 308/308/308
f 312/312/312 313/313/313 314/314/314
f 314/314/314 315/315/315 312/312/312
f 316/316/316 317/317/317 318/318/318
f 318/318/318 319/319/319 316/316/316
f 320/320/320 321/321/321 322/322/322
f 322/322/322 323/323/323 320/320/320
f 324/324/324 325/325/325 326/326/326
f 326/326/326 327/327/327 324/324/324
f 328/328/328 329/329/329 330/330/330
f 330/330/330 331/331/331 328/328/328
f 332/332/332 333/333/333 334/334/334
f 334/334/334 335/335/335 332/332/332
f 336/336/336 337/337/337 338/338/338
f 338/338/338 339/339/339 336/336/336
f 340/340/340 341/341/341 342/342/342
f 342/342/342 343/343/343 340/340/340
f 344/344/344 345/345/345 346/346/346
f 346/346/346 347/347/347 344/344/344
f 348/348/348 349/349/349 350/350/350
f 350/350/350 351/351/351 348/348/348
f 352/352/352 353/353/353 354/354/354
f 354/354/354 355/355/355 352/352/352
f 356/356/356 357/357/357 358/358/358
f 358/358/358 359/359/359 356/356/356
f 359/359/359 358/358/358 360/360/360
f 360/360/360 361/361/361 359/359/359
f 362/362/362 363/363/363 364/364/364
f 364/364/364 365/365/365 362/362/362
f 366/366/366 362/362/362 365/365/365
f 365/365/365 367/367/367 366/366/366
