v 0.400376 -0.01116 0.0003820000000000007
v 0.258301 -0.282389 0.0003820000000000173
v -9.7E-05 -0.398041 0.0003820000000000244
v -0.258495 -0.282389 0.0003820000000000173
v -0.394334 -0.01116 0.0003820000000000007
v -0.277951 0.292443 0.0003819999999999821
v 0.003021 0.418199 0.00038199999999997443
v 0.283994 0.292443 0.0003819999999999821
v 0.349011 -0.0025569999999999786 0.344951
v 0.24676 -0.24941399999999997 0.368024
v -9.7E-05 -0.351665 0.349835
v -0.246954 -0.24941399999999997 0.371132
v -0.349205 -0.002556999999999977 0.373294
v -0.246954 0.24429900000000002 0.373294
v -9.7E-05 0.34655 0.373294
v 0.24676 0.24429900000000002 0.373294
v 0.267955 -0.0025569999999999794 0.335255
v 0.189445 -0.19209899999999996 0.358329
v -9.7E-05 -0.27061 0.34014
v -0.189639 -0.19209899999999996 0.361437
v -0.26815 -0.0025569999999999777 0.363599
v -0.189639 0.18698400000000004 0.363599
v -9.7E-05 0.265495 0.363599
v 0.189445 0.18698400000000004 0.363599
v 0.263049 -0.0025569999999999838 0.263919
v 0.185976 -0.18862999999999996 0.263919
v -9.7E-05 -0.265704 0.263919
v -0.18617 -0.18862999999999996 0.263919
v -0.263244 -0.0025569999999999838 0.263919
v -0.18617 0.18351500000000004 0.263919
v -9.7E-05 0.260589 0.263919
v 0.185976 0.18351500000000004 0.263919
v -9.7E-05 -0.0025569999999999846 0.245551
v 0.399098 0.04219 -0.0003770000000000026
v 0.463212 0.04219 0.0012509999999999973
v 0.390414 -0.03474 -0.0005969999999999978
v 0.461075 -0.035601 0.0012510000000000021
v 0.332221 0.05074500000000006 1.023865
v 0.407968 0.05074500000000006 1.025955
v 0.332637 -0.025029999999999938 1.00879
v 0.408384 -0.025029999999999938 1.010881
v -0.459291 -0.022159 0.0031950000000000012
v -0.453723 0.046881 0.002745999999999997
v -0.38939 -0.038216 -0.0024299999999999977
v -0.394922 0.041301 -0.0019850000000000024
v -0.365939 -0.021583999999999937 1.025813
v -0.35936 0.05390300000000006 1.025237
v -0.292053 -0.02818799999999994 1.004211
v -0.285474 0.04729900000000006 1.003635
v -0.012876 0.30012000000000005 0.512639
v 0.002277 0.29222000000000004 0.48951
v 0.000131 0.29144800000000004 0.507271
v -0.019233 0.013640000000000038 0.634432
v 0.004342 0.00703000000000004 0.646078
v 0.004444 0.0019770000000000373 0.607642
v 0.181939 0.23309500000000002 0.393914
v 0.216219 0.24932800000000002 0.387476
v 0.216559 0.22963400000000003 0.367718
v 0.006714 0.292212 0.395425
v 0.015087 0.317186 0.38921
v 0.009003 0.299659 0.369507
v -0.409197 0.25110200000000005 0.882279
v 0.424221 0.24351000000000006 0.878228
v -0.395849 -0.00023799999999993417 1.075294
v 0.428884 -0.00023799999999993417 1.075294
v -0.388837 -0.25157699999999994 0.878228
v 0.424221 -0.24398499999999995 0.878228
v -0.395849 -0.00023799999999993678 1.032671
v -0.409197 0.22407500000000005 0.853587
v 0.424221 0.21648300000000006 0.849536
v 0.428884 -0.00023799999999993678 1.032671
v -0.388837 -0.21598599999999996 0.842859
v 0.424221 -0.20839399999999994 0.842859
v 0.024095 0.32021400000000005 0.856227
v 0.024095 -0.0002369999999999356 1.051326
v 0.024095 -0.32083199999999995 0.85426
v 0.024095 0.24230100000000004 0.813706
v 0.024095 -0.23540499999999995 0.81174
v -0.336205 0.17318900000000007 0.920445
v 0.364035 0.16559700000000005 0.928188
v -0.315845 -0.16614999999999994 0.916394
v 0.364035 -0.15855799999999995 0.928188
v -0.336205 0.17318900000000007 0.877924
v 0.364035 0.16559700000000005 0.885668
v -0.315845 -0.16614999999999994 0.873874
v 0.364035 -0.15855799999999995 0.885668
v 0.024095 0.24230100000000004 0.856227
v 0.024095 -0.23540499999999995 0.85426
v 0.352908 0.005875000000000036 0.582211
v 0.352908 0.03989200000000003 0.616229
v 0.352908 -0.028142999999999963 0.616229
v 0.352908 0.00587500000000004 0.650246
v -0.346644 0.005875000000000036 0.582211
v -0.346644 0.03989200000000003 0.616229
v -0.346644 -0.028142999999999963 0.616229
v -0.346644 0.00587500000000004 0.650246
v -0.246954 -0.24941399999999997 0.371132
v -0.258495 -0.282389 0.0003820000000000173
v -0.246954 0.24429900000000002 0.373294
v -0.277951 0.292443 0.0003819999999999821
v 0.349011 -0.0025569999999999786 0.344951
v 0.400376 -0.01116 0.0003820000000000007
v 0.349011 -0.0025569999999999786 0.344951
v 0.349011 -0.0025569999999999786 0.344951
v 0.24676 -0.24941399999999997 0.368024
v 0.189445 -0.19209899999999996 0.358329
v 0.189445 -0.19209899999999996 0.358329
v 0.24676 -0.24941399999999997 0.368024
v 0.24676 -0.24941399999999997 0.368024
v -9.7E-05 -0.351665 0.349835
v -9.7E-05 -0.27061 0.34014
v -9.7E-05 -0.27061 0.34014
v -9.7E-05 -0.351665 0.349835
v -9.7E-05 -0.351665 0.349835
v -0.246954 -0.24941399999999997 0.371132
v -0.189639 -0.19209899999999996 0.361437
v -0.189639 -0.19209899999999996 0.361437
v -0.246954 -0.24941399999999997 0.371132
v -0.246954 -0.24941399999999997 0.371132
v -0.349205 -0.002556999999999977 0.373294
v -0.26815 -0.0025569999999999777 0.363599
v -0.26815 -0.0025569999999999777 0.363599
v -0.349205 -0.002556999999999977 0.373294
v -0.246954 0.24429900000000002 0.373294
v -0.189639 0.18698400000000004 0.363599
v -0.246954 0.24429900000000002 0.373294
v -9.7E-05 0.34655 0.373294
v -9.7E-05 0.265495 0.363599
v -9.7E-05 0.34655 0.373294
v 0.24676 0.24429900000000002 0.373294
v 0.267955 -0.0025569999999999794 0.335255
v 0.189445 0.18698400000000004 0.363599
v 0.24676 0.24429900000000002 0.373294
v 0.24676 0.24429900000000002 0.373294
v 0.349011 -0.0025569999999999786 0.344951
v 0.267955 -0.0025569999999999794 0.335255
v 0.267955 -0.0025569999999999794 0.335255
v 0.189445 -0.19209899999999996 0.358329
v -9.7E-05 -0.27061 0.34014
v -0.189639 -0.19209899999999996 0.361437
v -0.26815 -0.0025569999999999777 0.363599
v -0.189639 0.18698400000000004 0.363599
v -9.7E-05 0.265495 0.363599
v 0.189445 0.18698400000000004 0.363599
v 0.263049 -0.0025569999999999838 0.263919
v 0.185976 -0.18862999999999996 0.263919
v -9.7E-05 -0.265704 0.263919
v -0.18617 -0.18862999999999996 0.263919
v -0.263244 -0.0025569999999999838 0.263919
v -0.18617 0.18351500000000004 0.263919
v -9.7E-05 0.260589 0.263919
v 0.185976 0.18351500000000004 0.263919
v 0.407968 0.05074500000000006 1.025955
v 0.463212 0.04219 0.0012509999999999973
v 0.408384 -0.025029999999999938 1.010881
v 0.461075 -0.035601 0.0012510000000000021
v 0.332221 0.05074500000000006 1.023865
v 0.332637 -0.025029999999999938 1.00879
v 0.390414 -0.03474 -0.0005969999999999978
v 0.399098 0.04219 -0.0003770000000000026
v -0.35936 0.05390300000000006 1.025237
v -0.453723 0.046881 0.002745999999999997
v -0.285474 0.04729900000000006 1.003635
v -0.394922 0.041301 -0.0019850000000000024
v -0.365939 -0.021583999999999937 1.025813
v -0.292053 -0.02818799999999994 1.004211
v -0.38939 -0.038216 -0.0024299999999999977
v -0.459291 -0.022159 0.0031950000000000012
v -0.019233 0.013640000000000038 0.634432
v -0.012876 0.30012000000000005 0.512639
v 0.004342 0.00703000000000004 0.646078
v -0.019233 0.013640000000000038 0.634432
v 0.004444 0.0019770000000000373 0.607642
v 0.181939 0.23309500000000002 0.393914
v -0.019233 0.013640000000000038 0.634432
v 0.216219 0.24932800000000002 0.387476
v 0.181939 0.23309500000000002 0.393914
v 0.216559 0.22963400000000003 0.367718
v 0.006714 0.292212 0.395425
v 0.181939 0.23309500000000002 0.393914
v 0.002277 0.29222000000000004 0.48951
v 0.000131 0.29144800000000004 0.507271
v -0.012876 0.30012000000000005 0.512639
v 0.009003 0.299659 0.369507
v 0.015087 0.317186 0.38921
v 0.006714 0.292212 0.395425
v -0.395849 -0.00023799999999993417 1.075294
v 0.428884 -0.00023799999999993417 1.075294
v 0.424221 0.24351000000000006 0.878228
v -0.395849 -0.00023799999999993417 1.075294
v -0.388837 -0.25157699999999994 0.878228
v -0.395849 -0.00023799999999993678 1.032671
v 0.428884 -0.00023799999999993417 1.075294
v 0.428884 -0.00023799999999993678 1.032671
v -0.409197 0.25110200000000005 0.882279
v 0.424221 -0.24398499999999995 0.878228
v -0.346644 0.03989200000000003 0.616229
v 0.352908 0.03989200000000003 0.616229
v -0.346644 -0.028142999999999963 0.616229
v 0.352908 -0.028142999999999963 0.616229
vt 0.131406 0.728657
vt 0.175250 0.728657
vt 0.211411 0.728627
vt 0.253225 0.728657
vt 0.204810 0.728657
vt 0.253240 0.728657
vt 0.175169 0.728657
vt 0.210810 0.728657
vt 0.131407 0.675933
vt 0.174951 0.675933
vt 0.211659 0.675950
vt 0.253248 0.675980
vt 0.204518 0.675950
vt 0.253244 0.675946
vt 0.175010 0.675927
vt 0.212089 0.675925
vt 0.243858 0.811822
vt 0.228913 0.776095
vt 0.192831 0.761296
vt 0.156749 0.776095
vt 0.141804 0.811822
vt 0.156749 0.847548
vt 0.192831 0.862347
vt 0.228913 0.847548
vt 0.191863 0.696980
vt 0.222413 0.696980
vt 0.252963 0.696980
vt 0.222045 0.696980
vt 0.191895 0.697812
vt 0.161329 0.696980
vt 0.130763 0.696980
vt 0.161313 0.696980
vt 0.194327 0.812099
vt 0.005858 0.733149
vt 0.005858 0.746394
vt 0.005858 0.746394
vt 0.005858 0.746394
vt 0.112152 0.733149
vt 0.112152 0.746394
vt 0.112152 0.746394
vt 0.112152 0.746394
vt 0.005858 0.733149
vt 0.005858 0.746394
vt 0.005858 0.746394
vt 0.005858 0.746394
vt 0.112152 0.733149
vt 0.112152 0.746394
vt 0.112152 0.746394
vt 0.112152 0.746394
vt 0.006446 0.702081
vt 0.006446 0.704830
vt 0.006446 0.707579
vt 0.043670 0.702081
vt 0.043670 0.704830
vt 0.043670 0.707579
vt 0.088450 0.702082
vt 0.088450 0.704830
vt 0.088450 0.707579
vt 0.107887 0.702082
vt 0.107887 0.704830
vt 0.107886 0.707579
vt 0.103018 0.732629
vt 0.113077 0.699367
vt 0.006827 0.662103
vt 0.113166 0.662103
vt 0.006953 0.625403
vt 0.103018 0.746694
vt 0.029592 0.746187
vt 0.102404 0.746151
vt 0.029592 0.746187
vt 0.102404 0.746151
vt 0.029592 0.746187
vt 0.102404 0.733172
vt 0.060241 0.699506
vt 0.060241 0.662103
vt 0.060241 0.625370
vt 0.067724 0.745867
vt 0.067724 0.745867
vt 0.026595 0.736783
vt 0.107731 0.736715
vt 0.107731 0.736715
vt 0.026595 0.736783
vt 0.026595 0.746082
vt 0.108340 0.746014
vt 0.108340 0.746014
vt 0.026595 0.746082
vt 0.067724 0.737177
vt 0.067724 0.737177
vt 0.008121 0.722024
vt 0.008121 0.729771
vt 0.007725 0.729645
vt 0.007725 0.722573
vt 0.103655 0.722024
vt 0.103655 0.729771
vt 0.104405 0.729645
vt 0.104405 0.722573
vt 0.131272 0.675898
vt 0.131793 0.728657
vt 0.131407 0.675914
vt 0.131407 0.728657
vt 0.253250 0.675938
vt 0.253250 0.728657
vt 0.255046 0.811822
vt 0.255046 0.811822
vt 0.237019 0.767515
vt 0.228913 0.776095
vt 0.228913 0.776095
vt 0.237019 0.767515
vt 0.237019 0.767515
vt 0.192831 0.749392
vt 0.192831 0.761296
vt 0.192831 0.761296
vt 0.192831 0.749392
vt 0.192831 0.749392
vt 0.148366 0.767239
vt 0.156749 0.776095
vt 0.156749 0.776095
vt 0.148366 0.767239
vt 0.148366 0.767239
vt 0.130063 0.811545
vt 0.141804 0.811822
vt 0.141804 0.811822
vt 0.130063 0.811545
vt 0.148643 0.855575
vt 0.156749 0.847548
vt 0.148643 0.855575
vt 0.192831 0.874527
vt 0.192831 0.862347
vt 0.192831 0.874527
vt 0.237296 0.856128
vt 0.243858 0.811822
vt 0.228913 0.847548
vt 0.237296 0.856128
vt 0.237296 0.856128
vt 0.255046 0.811822
vt 0.243858 0.811822
vt 0.191863 0.676552
vt 0.222413 0.676552
vt 0.252963 0.676567
vt 0.222045 0.676549
vt 0.191895 0.677360
vt 0.161329 0.676529
vt 0.130763 0.676529
vt 0.161313 0.676529
vt 0.241975 0.812099
vt 0.228019 0.779221
vt 0.194327 0.765602
vt 0.160636 0.779221
vt 0.146680 0.812099
vt 0.160636 0.844977
vt 0.194327 0.858596
vt 0.228019 0.844977
vt 0.112152 0.733149
vt 0.005858 0.733149
vt 0.112152 0.733149
vt 0.005858 0.733149
vt 0.112152 0.746394
vt 0.112152 0.733149
vt 0.005858 0.733149
vt 0.005858 0.746394
vt 0.112152 0.733149
vt 0.005858 0.733149
vt 0.112152 0.733149
vt 0.005858 0.733149
vt 0.112152 0.746394
vt 0.112152 0.733149
vt 0.005858 0.733149
vt 0.005858 0.746394
vt 0.043670 0.710328
vt 0.006446 0.710328
vt 0.043670 0.704830
vt 0.043670 0.702081
vt 0.043670 0.707579
vt 0.088450 0.710328
vt 0.043670 0.710328
vt 0.088450 0.704830
vt 0.088450 0.702082
vt 0.088450 0.707579
vt 0.107886 0.710328
vt 0.088450 0.710328
vt 0.006446 0.702081
vt 0.006446 0.702081
vt 0.006446 0.702081
vt 0.006446 0.702081
vt 0.006446 0.702081
vt 0.006446 0.702081
vt 0.028775 0.733679
vt 0.103018 0.732629
vt 0.028775 0.733679
vt 0.103018 0.732629
vt 0.028775 0.733679
vt 0.102404 0.746151
vt 0.028775 0.745644
vt 0.029592 0.733136
vt 0.006921 0.699381
vt 0.113077 0.625407
vt 0.104405 0.714707
vt 0.007725 0.714707
vt 0.103655 0.714249
vt 0.008121 0.714249
vn 0.977653 -0.170153 0.12346100000000002
vn 0.584764 -0.805043 0.09978600000000006
vn -0.133754 -0.983626 0.12078700000000006
vn -0.783603 -0.613669 0.09683400000000005
vn -0.986721 0.10511400000000001 0.123822
vn -0.610946 0.775738 0.15803999999999996
vn 0.135658 0.974059 0.18112699999999995
vn 0.801867 0.577994 0.15143799999999996
vn 0.981154 0.125381 0.147025
vn 0.774371 -0.623062 0.11019700000000004
vn 0.146367 -0.981883 0.12034100000000006
vn -0.606254 -0.789046 0.09930800000000004
vn -0.981758 -0.160611 0.10176500000000001
vn -0.795965 0.590301 0.13410399999999997
vn -0.144614 0.973418 0.17760499999999996
vn 0.606913 0.776589 0.16901299999999994
vn -0.117085 0.16766000000000006 0.978867
vn -0.117085 0.16766000000000006 0.978867
vn -0.116447 0.05133600000000006 0.991869
vn 0.158722 0.11726100000000006 0.980335
vn 0.126542 0.041112000000000065 0.991109
vn 0.118623 -0.049134999999999936 0.991723
vn 0.049135 -0.11862299999999995 0.991723
vn -0.049135 -0.11862299999999995 0.991723
vn -0.796812 -0.10714799999999995 0.594651
vn -0.638477 0.4919990000000001 0.591848
vn -0.106321 0.797769 0.593516
vn 0.49245 0.639334 0.590546
vn 0.802055 0.10530700000000004 0.587893
vn 0.641782 -0.4926479999999999 0.58772
vn 0.105454 -0.802163 0.58772
vn -0.492648 -0.641782 0.58772
vn -0 6.123233995736766E-17 1
vn 0.000221 0.999965 -0.008337000000000061
vn 0.000212 0.999965 -0.008337000000000061
vn -0.012408 -0.999883 0.00890800000000006
vn 0.998251 -0.027415999999999996 0.052385
vn 0.00023 0.999965 -0.008337000000000061
vn 0.000221 0.999965 -0.008337000000000061
vn -0.006348 -0.999933 0.009681000000000061
vn 0.998454 -0.016326999999999998 0.053134
vn -0.99233 0.083903 0.090782
vn -0.992575 0.080651 0.091048
vn 0.992876 0.069613 -0.096699
vn 0.093177 0.99552 -0.016079000000000062
vn -0.992074 0.087155 0.090515
vn -0.99233 0.083903 0.090782
vn 0.994715 -0.008789000000000007 -0.102302
vn 0.088972 0.995915 -0.015372000000000061
vn 0.021031 -0.49843000000000004 -0.866675
vn -0.903949 -0.22448000000000004 -0.363986
vn 0.819782 0.21147200000000002 0.5322
vn 0.951353 0.09346500000000002 0.293583
vn -0.716401 -0.30385700000000004 -0.628045
vn 0.710277 0.24605800000000003 0.659517
vn -0.839215 0.2780039999999999 -0.467368
vn 0.233754 0.61378 0.754078
vn 0.63073 -0.75284 -0.18817999999999993
vn -0.309354 -0.922806 0.22962600000000005
vn 0.224775 0.647635 0.728042
vn 0.084579 0.27516999999999997 -0.957668
vn -0.708768 0.37253400000000003 0.599055
vn 0.734383 0.43516800000000005 0.520875
vn -0.76515 -0.16304699999999997 0.622866
vn 0.772119 0.13801800000000003 0.620309
vn -0.728062 -0.43543699999999996 0.529453
vn 0.707298 -0.41712599999999994 0.570732
vn -0.99915 -0.03982 0.010654000000000002
vn -0.998913 -0.033926 0.031957
vn 0.999856 0.016185 -0.0051140000000000005
vn 0.999988 -0.0030990000000000006 -0.003918
vn -0.99968 -0.02404 -0.007844999999999998
vn 0.999863 -0.01168 -0.011753
vn -0.001453 0.557617 0.830097
vn 0.003033 -0.004921999999999939 0.999983
vn 0.013412 -0.555876 0.831157
vn 0.085545 0.996334 -6.100786219908395E-17
vn -0.06079 -0.998151 6.111912136078648E-17
vn -0.188385 0.982095 -6.0135974910431E-17
vn 0.220109 0.975475 -5.973061681991321E-17
vn -0.199627 -0.979872 5.999985541870576E-17
vn 0.220497 -0.975388 5.972528960633693E-17
vn -0.188385 0.982095 -6.0135974910431E-17
vn 0.220109 0.975475 -5.973061681991321E-17
vn -0.199627 -0.979872 5.999985541870576E-17
vn 0.220497 -0.975388 5.972528960633693E-17
vn -0.053217 0.998583 -6.114557373164808E-17
vn 0.082082 -0.996626 6.10257420423515E-17
vn -0 0.3162269999999999 -0.948684
vn -0 0.948683 0.3162269999999999
vn 0 -0.948683 -0.31622799999999995
vn 0 -0.31622799999999995 0.948683
vn 0 -0.31622800000000006 -0.948683
vn -0 0.948683 -0.31622900000000004
vn 0 -0.948683 0.31622800000000006
vn -0 0.31622800000000006 0.948683
vn -0.606254 -0.789046 0.09930800000000004
vn -0.783603 -0.613669 0.09683400000000005
vn -0.795965 0.590301 0.13410399999999997
vn -0.610946 0.775738 0.15803999999999996
vn 0.981154 0.125381 0.147025
vn 0.977653 -0.170153 0.12346100000000002
vn -0.117085 0.16766000000000006 0.978867
vn -0.05309 0.11471100000000005 0.991979
vn -0.05309 0.11471100000000005 0.991979
vn -0.05309 0.11471100000000005 0.991979
vn -0.116447 0.05133600000000006 0.991869
vn -0.116447 0.05133600000000006 0.991869
vn -0.12145 0.11788700000000006 0.985572
vn -0.12145 0.11788700000000006 0.985572
vn -0.12145 0.11788700000000006 0.985572
vn 0.158722 0.11726100000000006 0.980335
vn 0.158722 0.11726100000000006 0.980335
vn 0.109694 0.05815600000000006 0.992263
vn 0.109694 0.05815600000000006 0.992263
vn 0.109694 0.05815600000000006 0.992263
vn 0.126542 0.041112000000000065 0.991109
vn 0.126542 0.041112000000000065 0.991109
vn 0.118669 0.040466000000000064 0.992109
vn 0.118669 0.040466000000000064 0.992109
vn 0.118669 0.040466000000000064 0.992109
vn 0.118623 -0.049134999999999936 0.991723
vn 0.118623 -0.049134999999999936 0.991723
vn 0.118623 -0.049134999999999936 0.991723
vn 0.049135 -0.11862299999999995 0.991723
vn 0.049135 -0.11862299999999995 0.991723
vn 0.049135 -0.11862299999999995 0.991723
vn -0.049135 -0.11862299999999995 0.991723
vn -0.049135 -0.11862299999999995 0.991723
vn -0.049135 -0.11862299999999995 0.991723
vn -0.013709 -0.15342999999999996 0.988064
vn -0.013709 -0.15342999999999996 0.988064
vn -0.013709 -0.15342999999999996 0.988064
vn -0.117215 -0.16106799999999993 0.979958
vn -0.117215 -0.16106799999999993 0.979958
vn -0.117215 -0.16106799999999993 0.979958
vn -0.988765 0.135769 0.06253599999999998
vn -0.602981 0.79583 0.05539699999999995
vn 0.136646 0.988856 0.05908199999999994
vn 0.797203 0.601686 0.04941099999999996
vn 0.989407 -0.136758 0.04869600000000001
vn 0.603032 -0.796229 0.048697000000000046
vn -0.136612 -0.989427 0.04869700000000006
vn -0.794089 -0.605307 0.054999000000000034
vn -0.796812 -0.10714799999999995 0.594651
vn -0.638477 0.4919990000000001 0.591848
vn -0.106321 0.797769 0.593516
vn 0.49245 0.639334 0.590546
vn 0.802055 0.10530700000000004 0.587893
vn 0.641782 -0.4926479999999999 0.58772
vn 0.105454 -0.802163 0.58772
vn -0.492648 -0.641782 0.58772
vn 0.998534 -0.005234999999999997 0.053877
vn 0.998454 -0.016326999999999998 0.053134
vn -0.000289 -0.999945 0.01045400000000006
vn -0.006348 -0.999933 0.009681000000000061
vn -0.996355 0.05909099999999999 -0.061527000000000005
vn -0.998345 0.005897999999999996 -0.057202
vn -0.996355 0.05909099999999999 -0.061527000000000005
vn -0.991522 0.112115 -0.065677
vn 0.084766 0.996293 -0.01466500000000006
vn 0.088972 0.995915 -0.015372000000000061
vn 0.990404 -0.087137 -0.107272
vn 0.994715 -0.008789000000000007 -0.102302
vn -0.153385 -0.987975 0.019478000000000058
vn -0.083786 -0.996321 0.018026000000000063
vn -0.153385 -0.987975 0.019478000000000058
vn -0.22223 -0.974772 0.02083500000000006
vn 0.951353 0.09346500000000002 0.293583
vn 0.021031 -0.49843000000000004 -0.866675
vn 0.809007 -0.11650299999999995 0.576138
vn -0.576083 0.781031 0.24108099999999993
vn -0.341111 -0.526006 -0.779077
vn -0.839215 0.2780039999999999 -0.467368
vn -0.576083 0.781031 0.24108099999999993
vn 0.309354 0.922806 -0.22962700000000005
vn -0.08458 -0.27517099999999994 0.957668
vn -0.224775 -0.647636 -0.728041
vn -0.309354 -0.922806 0.22962600000000005
vn -0.08458 -0.27517099999999994 0.957668
vn 0.581378 0.80679 0.10530999999999995
vn 0.581378 0.80679 0.10530999999999995
vn 0.581378 0.80679 0.10530999999999995
vn -0.947496 0.319663 0.00816899999999998
vn -0.947496 0.319663 0.00816899999999998
vn -0.947496 0.319663 0.00816899999999998
vn -0.76515 -0.16304699999999997 0.622866
vn 0.772119 0.13801800000000003 0.620309
vn 0.734383 0.43516800000000005 0.520875
vn -0.76515 -0.16304699999999997 0.622866
vn -0.728062 -0.43543699999999996 0.529453
vn -0.99915 -0.03982 0.010654000000000002
vn 0.772119 0.13801800000000003 0.620309
vn 0.999988 -0.0030990000000000006 -0.003918
vn -0.708768 0.37253400000000003 0.599055
vn 0.707298 -0.41712599999999994 0.570732
vn -0 0.948683 -0.31622900000000004
vn -0 0.948683 0.3162269999999999
vn 0 -0.948683 0.31622800000000006
vn 0 -0.948683 -0.31622799999999995
g 01
f 93/93/93 89/89/89 200/200/200
f 200/200/200 199/199/199 93/93/93
f 95/95/95 91/91/91 92/92/92
f 92/92/92 96/96/96 95/95/95
f 96/96/96 92/92/92 198/198/198
f 198/198/198 197/197/197 96/96/96
f 94/94/94 90/90/90 89/89/89
f 89/89/89 93/93/93 94/94/94
f 88/88/88 78/78/78 86/86/86
f 86/86/86 82/82/82 88/88/88
f 87/87/87 77/77/77 83/83/83
f 83/83/83 79/79/79 87/87/87
f 75/75/75 76/76/76 196/196/196
f 196/196/196 65/65/65 75/75/75
f 75/75/75 74/74/74 195/195/195
f 195/195/195 64/64/64 75/75/75
f 78/78/78 88/88/88 81/81/81
f 81/81/81 85/85/85 78/78/78
f 77/77/77 87/87/87 80/80/80
f 80/80/80 84/84/84 77/77/77
f 67/67/67 73/73/73 194/194/194
f 194/194/194 193/193/193 67/67/67
f 190/190/190 192/192/192 72/72/72
f 72/72/72 191/191/191 190/190/190
f 188/188/188 71/71/71 70/70/70
f 70/70/70 189/189/189 188/188/188
f 62/62/62 69/69/69 68/68/68
f 68/68/68 187/187/187 62/62/62
f 76/76/76 75/75/75 64/64/64
f 64/64/64 66/66/66 76/76/76
f 74/74/74 75/75/75 65/65/65
f 65/65/65 63/63/63 74/74/74
f 186/186/186 185/185/185 184/184/184
f 183/183/183 182/182/182 181/181/181
f 179/179/179 61/61/61 178/178/178
f 178/178/178 180/180/180 179/179/179
f 61/61/61 60/60/60 176/176/176
f 176/176/176 178/178/178 61/61/61
f 60/60/60 59/59/59 177/177/177
f 177/177/177 176/176/176 60/60/60
f 174/174/174 58/58/58 173/173/173
f 173/173/173 175/175/175 174/174/174
f 58/58/58 57/57/57 171/171/171
f 171/171/171 173/173/173 58/58/58
f 57/57/57 56/56/56 172/172/172
f 172/172/172 171/171/171 57/57/57
f 169/169/169 55/55/55 52/52/52
f 52/52/52 170/170/170 169/169/169
f 55/55/55 54/54/54 51/51/51
f 51/51/51 52/52/52 55/55/55
f 54/54/54 53/53/53 50/50/50
f 50/50/50 51/51/51 54/54/54
f 165/165/165 168/168/168 167/167/167
f 167/167/167 166/166/166 165/165/165
f 48/48/48 44/44/44 164/164/164
f 164/164/164 163/163/163 48/48/48
f 49/49/49 45/45/45 162/162/162
f 162/162/162 161/161/161 49/49/49
f 47/47/47 43/43/43 42/42/42
f 42/42/42 46/46/46 47/47/47
f 157/157/157 160/160/160 159/159/159
f 159/159/159 158/158/158 157/157/157
f 40/40/40 36/36/36 156/156/156
f 156/156/156 155/155/155 40/40/40
f 41/41/41 37/37/37 154/154/154
f 154/154/154 153/153/153 41/41/41
f 39/39/39 35/35/35 34/34/34
f 34/34/34 38/38/38 39/39/39
f 33/33/33 145/145/145 152/152/152
f 33/33/33 152/152/152 151/151/151
f 33/33/33 151/151/151 150/150/150
f 33/33/33 150/150/150 149/149/149
f 33/33/33 149/149/149 148/148/148
f 33/33/33 148/148/148 147/147/147
f 33/33/33 147/147/147 146/146/146
f 33/33/33 146/146/146 145/145/145
f 25/25/25 137/137/137 144/144/144
f 144/144/144 32/32/32 25/25/25
f 32/32/32 144/144/144 143/143/143
f 143/143/143 31/31/31 32/32/32
f 31/31/31 143/143/143 142/142/142
f 142/142/142 30/30/30 31/31/31
f 30/30/30 142/142/142 141/141/141
f 141/141/141 29/29/29 30/30/30
f 29/29/29 141/141/141 140/140/140
f 140/140/140 28/28/28 29/29/29
f 28/28/28 140/140/140 139/139/139
f 139/139/139 27/27/27 28/28/28
f 27/27/27 139/139/139 138/138/138
f 138/138/138 26/26/26 27/27/27
f 26/26/26 138/138/138 137/137/137
f 137/137/137 25/25/25 26/26/26
f 136/136/136 135/135/135 134/134/134
f 133/133/133 132/132/132 131/131/131
f 24/24/24 130/130/130 129/129/129
f 129/129/129 128/128/128 24/24/24
f 23/23/23 127/127/127 126/126/126
f 126/126/126 125/125/125 23/23/23
f 22/22/22 124/124/124 123/123/123
f 123/123/123 122/122/122 22/22/22
f 121/121/121 120/120/120 119/119/119
f 118/118/118 117/117/117 21/21/21
f 116/116/116 115/115/115 114/114/114
f 113/113/113 112/112/112 20/20/20
f 111/111/111 110/110/110 109/109/109
f 108/108/108 107/107/107 19/19/19
f 106/106/106 105/105/105 104/104/104
f 103/103/103 17/17/17 18/18/18
f 101/101/101 102/102/102 8/8/8
f 8/8/8 16/16/16 101/101/101
f 16/16/16 8/8/8 7/7/7
f 7/7/7 15/15/15 16/16/16
f 15/15/15 7/7/7 100/100/100
f 100/100/100 99/99/99 15/15/15
f 14/14/14 6/6/6 5/5/5
f 5/5/5 13/13/13 14/14/14
f 13/13/13 5/5/5 98/98/98
f 98/98/98 97/97/97 13/13/13
f 12/12/12 4/4/4 3/3/3
f 3/3/3 11/11/11 12/12/12
f 11/11/11 3/3/3 2/2/2
f 2/2/2 10/10/10 11/11/11
f 10/10/10 2/2/2 1/1/1
f 1/1/1 9/9/9 10/10/10
