v 0.330956 -0.542012 0.036002000000000034
v -0.334028 -0.541842 0.036002000000000034
v -0.334093 -0.541689 -0.002694999999999967
v -0.334093 -0.541689 -0.002694999999999967
v 0.330673 -0.54203 -0.0026949999999999665
v 0.330956 -0.542012 0.036002000000000034
v 0.330872 -0.327257 0.03600200000000002
v 0.330956 -0.542012 0.036002000000000034
v 0.330673 -0.54203 -0.0026949999999999665
v 0.330673 -0.54203 -0.0026949999999999665
v 0.330505 -0.327081 -0.00269499999999998
v 0.330872 -0.327257 0.03600200000000002
v -0.334028 -0.541842 0.036002000000000034
v -0.333829 -0.327396 0.03600200000000002
v -0.333696 -0.32736 -0.00269499999999998
v -0.333696 -0.32736 -0.00269499999999998
v -0.334093 -0.541689 -0.002694999999999967
v -0.334028 -0.541842 0.036002000000000034
v -0.333829 -0.327396 0.03600200000000002
v -0.542889 -0.327209 0.03600200000000002
v -0.542878 -0.326985 -0.00269499999999998
v -0.542878 -0.326985 -0.00269499999999998
v -0.333696 -0.32736 -0.00269499999999998
v -0.333829 -0.327396 0.03600200000000002
v -0.542877 0.32874 0.03600199999999998
v -0.33406 0.32888 0.03600199999999998
v -0.334158 0.328998 -0.00269500000000002
v -0.334158 0.328998 -0.00269500000000002
v -0.542854 0.328718 -0.00269500000000002
v -0.542877 0.32874 0.03600199999999998
v -0.333826 0.541941 0.036001999999999965
v 0.330702 0.541683 0.036001999999999965
v 0.330166 0.541176 -0.002695000000000033
v 0.330166 0.541176 -0.002695000000000033
v -0.333689 0.541693 -0.002695000000000033
v -0.333826 0.541941 0.036001999999999965
v -0.33406 0.32888 0.03600199999999998
v -0.333826 0.541941 0.036001999999999965
v -0.333689 0.541693 -0.002695000000000033
v -0.333689 0.541693 -0.002695000000000033
v -0.334158 0.328998 -0.00269500000000002
v -0.33406 0.32888 0.03600199999999998
v 0.330702 0.541683 0.036001999999999965
v 0.331138 0.328885 0.03600199999999998
v 0.331039 0.32901 -0.00269500000000002
v 0.331039 0.32901 -0.00269500000000002
v 0.330166 0.541176 -0.002695000000000033
v 0.330702 0.541683 0.036001999999999965
v 0.540501 0.328447 0.03600199999999998
v 0.5403 -0.327639 0.03600200000000002
v 0.540262 -0.327844 -0.00269499999999998
v 0.540262 -0.327844 -0.00269499999999998
v 0.540662 0.328133 -0.00269500000000002
v 0.540501 0.328447 0.03600199999999998
v 0.331138 0.328885 0.03600199999999998
v 0.540501 0.328447 0.03600199999999998
v 0.540662 0.328133 -0.00269500000000002
v 0.540662 0.328133 -0.00269500000000002
v 0.331039 0.32901 -0.00269500000000002
v 0.331138 0.328885 0.03600199999999998
v 0.5403 -0.327639 0.03600200000000002
v 0.330872 -0.327257 0.03600200000000002
v 0.330505 -0.327081 -0.00269499999999998
v 0.330505 -0.327081 -0.00269499999999998
v 0.540262 -0.327844 -0.00269499999999998
v 0.5403 -0.327639 0.03600200000000002
v 0.278888 -0.510963 0.2841620000000001
v 0.278295 -0.50998 -0.0025379999999999687
v -0.281281 -0.510388 -0.0025379999999999687
v -0.281281 -0.510388 -0.0025379999999999687
v -0.281615 -0.510963 0.2841620000000001
v 0.278888 -0.510963 0.2841620000000001
v -0.333829 -0.327396 0.03600200000000002
v -0.334028 -0.541842 0.036002000000000034
v -0.333962 -0.541995 0.2841620000000001
v -0.333962 -0.541995 0.2841620000000001
v -0.333962 -0.327433 0.284162
v -0.333829 -0.327396 0.03600200000000002
v -0.333962 -0.327433 0.284162
v -0.5429 -0.327433 0.284162
v -0.542889 -0.327209 0.03600200000000002
v -0.542889 -0.327209 0.03600200000000002
v -0.333829 -0.327396 0.03600200000000002
v -0.333962 -0.327433 0.284162
v -0.281615 0.511108 0.28416199999999997
v -0.281256 0.510408 -0.002538000000000031
v 0.278784 0.511154 -0.002538000000000031
v 0.278784 0.511154 -0.002538000000000031
v 0.278888 0.511108 0.28416199999999997
v -0.281615 0.511108 0.28416199999999997
v -0.333962 0.328761 0.284162
v -0.333962 0.54219 0.28416199999999997
v -0.333826 0.541941 0.036001999999999965
v -0.333826 0.541941 0.036001999999999965
v -0.33406 0.32888 0.03600199999999998
v -0.333962 0.328761 0.284162
v 0.331138 0.328885 0.03600199999999998
v 0.330702 0.541683 0.036001999999999965
v 0.331238 0.54219 0.28416199999999997
v 0.331238 0.54219 0.28416199999999997
v 0.331238 0.328761 0.284162
v 0.331138 0.328885 0.03600199999999998
v -0.333826 0.541941 0.036001999999999965
v -0.333962 0.54219 0.28416199999999997
v 0.331238 0.54219 0.28416199999999997
v 0.331238 0.54219 0.28416199999999997
v 0.330702 0.541683 0.036001999999999965
v -0.333826 0.541941 0.036001999999999965
v 0.50442 -0.278437 0.284162
v 0.503933 -0.277874 -0.002537999999999983
v 0.278467 -0.278064 -0.002537999999999983
v 0.278467 -0.278064 -0.002537999999999983
v 0.278888 -0.278437 0.284162
v 0.50442 -0.278437 0.284162
v 0.50442 0.279789 0.284162
v 0.502796 0.278758 -0.002538000000000017
v 0.503933 -0.277874 -0.002537999999999983
v 0.503933 -0.277874 -0.002537999999999983
v 0.50442 -0.278437 0.284162
v 0.50442 0.279789 0.284162
v 0.278888 0.279789 0.284162
v 0.278863 0.279295 -0.002538000000000017
v 0.502796 0.278758 -0.002538000000000017
v 0.502796 0.278758 -0.002538000000000017
v 0.50442 0.279789 0.284162
v 0.278888 0.279789 0.284162
v 0.331238 0.328761 0.284162
v 0.54034 0.328761 0.284162
v 0.540501 0.328447 0.03600199999999998
v 0.540501 0.328447 0.03600199999999998
v 0.331138 0.328885 0.03600199999999998
v 0.331238 0.328761 0.284162
v 0.330872 -0.327257 0.03600200000000002
v 0.5403 -0.327639 0.03600200000000002
v 0.54034 -0.327433 0.284162
v 0.54034 -0.327433 0.284162
v 0.331238 -0.327433 0.284162
v 0.330872 -0.327257 0.03600200000000002
v 0.345787 -0.562147 0.2995340000000001
v 0.260876 -0.493428 0.2995340000000001
v -0.26276 -0.493428 0.2995340000000001
v -0.348512 -0.562147 0.2995340000000001
v 0.345787 -0.562147 0.2995340000000001
v -0.564174 -0.341785 0.299534
v -0.49518 -0.263145 0.299534
v -0.495181 0.260407 0.299534
v -0.564174 0.343113 0.299534
v -0.564174 -0.341785 0.299534
v -0.348512 0.563475 0.29953399999999997
v -0.26276 0.494756 0.29953399999999997
v 0.260876 0.494756 0.29953399999999997
v 0.345787 0.563475 0.29953399999999997
v -0.348512 0.563475 0.29953399999999997
v 0.561449 0.343113 0.299534
v 0.492455 0.260407 0.299534
v 0.492455 -0.263145 0.299534
v 0.561449 -0.341785 0.299534
v 0.561449 0.343113 0.299534
v -0.066527 0.06396700000000001 0.298357
v 0.066475 0.06396700000000001 0.298357
v 0.092389 0.094416 -0.0024610000000000057
v -0.095114 0.094416 -0.0024610000000000057
v -0.066527 0.06396700000000001 0.298357
v -0.095114 -0.093088 -0.0024609999999999944
v -0.066527 -0.06903499999999999 0.298357
v -0.066527 0.06396700000000001 0.298357
v -0.095114 0.094416 -0.0024610000000000057
v -0.095114 -0.093088 -0.0024609999999999944
v 0.092389 -0.093088 -0.0024609999999999944
v 0.062923 -0.06447899999999998 0.298357
v -0.066527 -0.06903499999999999 0.298357
v -0.095114 -0.093088 -0.0024609999999999944
v 0.092389 -0.093088 -0.0024609999999999944
v -0.033213 0.03246600000000004 0.639398
v 0.03056 0.03246600000000004 0.639398
v 0.046844 0.04875100000000004 0.5913
v 0.046844 0.04875100000000004 0.5913
v -0.049498 0.04875100000000004 0.5913
v -0.039986 0.03753200000000003 0.428057
v 0.046844 0.04875100000000004 0.5913
v 0.046844 0.04875100000000004 0.5913
v 0.039746 0.03753200000000003 0.428057
v -0.000343 -0.0017469999999999873 0.207222
v 0.190712 0.18165100000000003 0.455388
v 0.268925 -0.007171999999999973 0.455388
v 0.001889 0.25986300000000007 0.455388
v -0.000343 -0.0017469999999999873 0.207222
v -0.000343 -0.0017469999999999873 0.207222
v -0.186934 0.18165100000000003 0.455388
v -0.265147 -0.007171999999999973 0.455388
v -0.186934 -0.19599499999999997 0.455388
v 0.005883 -0.26736399999999994 0.455388
v 0.176723 -0.17804699999999998 0.455388
v 0.268925 -0.007171999999999973 0.455388
v -0.049498 0.04875100000000004 0.5913
v -0.049498 -0.04759199999999997 0.5913
v -0.033213 -0.03130699999999996 0.639398
v -0.033213 -0.03130699999999996 0.639398
v -0.033213 0.03246600000000004 0.639398
v -0.039986 -0.042200999999999975 0.428057
v -0.049498 -0.04759199999999997 0.5913
v -0.039986 0.03753200000000003 0.428057
v -0.039986 -0.042200999999999975 0.428057
v -0.049498 -0.04759199999999997 0.5913
v 0.046844 -0.04759199999999997 0.5913
v 0.03056 -0.03130699999999996 0.639398
v 0.03056 -0.03130699999999996 0.639398
v -0.033213 -0.03130699999999996 0.639398
v 0.039746 -0.042200999999999975 0.428057
v 0.046844 -0.04759199999999997 0.5913
v -0.039986 -0.042200999999999975 0.428057
v 0.039746 -0.042200999999999975 0.428057
v -0.288564 -0.290026 0.311902
v -0.455047 -0.290026 0.311902
v -0.455047 -0.456509 0.31190200000000007
v -0.288564 -0.456509 0.31190200000000007
v -0.290026 0.288564 0.311902
v -0.290026 0.455047 0.31190199999999996
v -0.456509 0.455047 0.31190199999999996
v -0.456509 0.288564 0.311902
v 0.288564 0.290026 0.311902
v 0.455047 0.290026 0.311902
v 0.455047 0.456509 0.31190199999999996
v 0.288564 0.456509 0.31190199999999996
v 0.290026 -0.288564 0.311902
v 0.290026 -0.455047 0.31190200000000007
v 0.456509 -0.455047 0.31190200000000007
v 0.456509 -0.288564 0.311902
v 0.03056 -0.03130699999999996 0.639398
v 0.03056 0.03246600000000004 0.639398
v -0.033213 0.03246600000000004 0.639398
v -0.033213 -0.03130699999999996 0.639398
v -0.542889 -0.327209 0.03600200000000002
v -0.542877 0.32874 0.03600199999999998
v -0.542854 0.328718 -0.00269500000000002
v -0.542878 -0.326985 -0.00269499999999998
v 0.345613 -0.341614 0.299534
v 0.260876 -0.263145 0.299534
v 0.260876 -0.493428 0.2995340000000001
v 0.345787 -0.562147 0.2995340000000001
v -0.26276 -0.493428 0.2995340000000001
v -0.26276 -0.263145 0.299534
v -0.348338 -0.341614 0.299534
v -0.348512 -0.562147 0.2995340000000001
v -0.348338 -0.341614 0.299534
v -0.26276 -0.263145 0.299534
v -0.49518 -0.263145 0.299534
v -0.564174 -0.341785 0.299534
v -0.495181 0.260407 0.299534
v -0.26276 0.260407 0.299534
v -0.348338 0.342942 0.299534
v -0.564174 0.343113 0.299534
v -0.348338 0.342942 0.299534
v -0.26276 0.260407 0.299534
v -0.26276 0.494756 0.29953399999999997
v -0.348512 0.563475 0.29953399999999997
v 0.260876 0.494756 0.29953399999999997
v 0.260876 0.260407 0.299534
v 0.345613 0.342942 0.299534
v 0.345787 0.563475 0.29953399999999997
v 0.345613 0.342942 0.299534
v 0.260876 0.260407 0.299534
v 0.492455 0.260407 0.299534
v 0.561449 0.343113 0.299534
v 0.492455 -0.263145 0.299534
v 0.260876 -0.263145 0.299534
v 0.345613 -0.341614 0.299534
v 0.561449 -0.341785 0.299534
v -0.281615 -0.510963 0.2841620000000001
v -0.281281 -0.510388 -0.0025379999999999687
v -0.281245 -0.278036 -0.002537999999999983
v -0.281615 -0.278437 0.284162
v 0.278888 -0.278437 0.284162
v 0.278467 -0.278064 -0.002537999999999983
v 0.278295 -0.50998 -0.0025379999999999687
v 0.278888 -0.510963 0.2841620000000001
v 0.331238 -0.327433 0.284162
v 0.331238 -0.541995 0.2841620000000001
v 0.330956 -0.542012 0.036002000000000034
v 0.330872 -0.327257 0.03600200000000002
v 0.330956 -0.542012 0.036002000000000034
v 0.331238 -0.541995 0.2841620000000001
v -0.333962 -0.541995 0.2841620000000001
v -0.334028 -0.541842 0.036002000000000034
v -0.506974 0.279789 0.284162
v -0.506644 0.279333 -0.002538000000000017
v -0.281293 0.279362 -0.002538000000000017
v -0.281615 0.279789 0.284162
v -0.506974 -0.278437 0.284162
v -0.506571 -0.277875 -0.002537999999999983
v -0.506644 0.279333 -0.002538000000000017
v -0.506974 0.279789 0.284162
v -0.281615 -0.278437 0.284162
v -0.281245 -0.278036 -0.002537999999999983
v -0.506571 -0.277875 -0.002537999999999983
v -0.506974 -0.278437 0.284162
v -0.33406 0.32888 0.03600199999999998
v -0.542877 0.32874 0.03600199999999998
v -0.5429 0.328761 0.284162
v -0.333962 0.328761 0.284162
v -0.542889 -0.327209 0.03600200000000002
v -0.5429 -0.327433 0.284162
v -0.5429 0.328761 0.284162
v -0.542877 0.32874 0.03600199999999998
v 0.278888 0.511108 0.28416199999999997
v 0.278784 0.511154 -0.002538000000000031
v 0.278863 0.279295 -0.002538000000000017
v 0.278888 0.279789 0.284162
v -0.281615 0.279789 0.284162
v -0.281293 0.279362 -0.002538000000000017
v -0.281256 0.510408 -0.002538000000000031
v -0.281615 0.511108 0.28416199999999997
v 0.540501 0.328447 0.03600199999999998
v 0.54034 0.328761 0.284162
v 0.54034 -0.327433 0.284162
v 0.5403 -0.327639 0.03600200000000002
v 0.092389 0.094416 -0.0024610000000000057
v 0.066475 0.06396700000000001 0.298357
v 0.062923 -0.06447899999999998 0.298357
v 0.092389 -0.093088 -0.0024609999999999944
v -0.001327 0.17832600000000004 0.431503
v -0.127013 0.12626500000000002 0.431503
v 0.124359 0.12626500000000002 0.431503
v -0.179073 0.0005790000000000264 0.431503
v 0.17642 0.0005790000000000264 0.431503
v 0.124359 -0.12510699999999997 0.431503
v -0.127013 -0.12510699999999997 0.431503
v -0.001327 -0.17716699999999996 0.431503
v -0.153774 -0.15186899999999998 0.523583
v -0.127013 -0.12510699999999997 0.431503
v -0.179073 0.0005790000000000264 0.431503
v -0.21692 0.0005790000000000321 0.523583
v -0.127013 0.12626500000000002 0.431503
v -0.153774 0.15302700000000002 0.523583
v -0.001327 0.17832600000000004 0.431503
v -0.001327 0.21617300000000003 0.523583
v 0.124359 0.12626500000000002 0.431503
v 0.151121 0.15302700000000002 0.523583
v 0.17642 0.0005790000000000264 0.431503
v 0.214267 0.0005790000000000321 0.523583
v 0.124359 -0.12510699999999997 0.431503
v 0.151121 -0.15186899999999998 0.523583
v -0.001327 -0.17716699999999996 0.431503
v -0.001327 -0.21501499999999998 0.523583
v -0.127013 -0.12510699999999997 0.431503
v -0.153774 -0.15186899999999998 0.523583
v 0.276994 0.0005790000000000311 0.507511
v 0.268925 -0.007171999999999973 0.455388
v 0.190712 0.18165100000000003 0.455388
v 0.195476 0.19738100000000003 0.507511
v 0.001889 0.25986300000000007 0.455388
v -0.001327 0.27890000000000004 0.507511
v -0.186934 0.18165100000000003 0.455388
v -0.198129 0.19738200000000003 0.507511
v -0.265147 -0.007171999999999973 0.455388
v -0.279647 0.0005790000000000311 0.507511
v -0.186934 -0.19599499999999997 0.455388
v -0.198129 -0.19622299999999998 0.507511
v 0.005883 -0.26736399999999994 0.455388
v -0.001327 -0.27774099999999996 0.507511
v 0.176723 -0.17804699999999998 0.455388
v 0.195476 -0.19622299999999998 0.507511
v 0.268925 -0.007171999999999973 0.455388
v 0.276994 0.0005790000000000311 0.507511
v 0.046844 0.04875100000000004 0.5913
v 0.03056 0.03246600000000004 0.639398
v 0.03056 -0.03130699999999996 0.639398
v 0.046844 -0.04759199999999997 0.5913
v 0.039746 0.03753200000000003 0.428057
v 0.039746 -0.042200999999999975 0.428057
v 0.195476 0.19738100000000003 0.507511
v 0.151121 0.15302700000000002 0.523583
v 0.214267 0.0005790000000000321 0.523583
v 0.276994 0.0005790000000000311 0.507511
v -0.001327 0.27890000000000004 0.507511
v 0.151121 -0.15186899999999998 0.523583
v -0.001327 0.21617300000000003 0.523583
v 0.195476 -0.19622299999999998 0.507511
v -0.198129 0.19738200000000003 0.507511
v -0.001327 -0.21501499999999998 0.523583
v -0.153774 0.15302700000000002 0.523583
v -0.001327 -0.27774099999999996 0.507511
v -0.279647 0.0005790000000000311 0.507511
v -0.153774 -0.15186899999999998 0.523583
v -0.21692 0.0005790000000000321 0.523583
v -0.198129 -0.19622299999999998 0.507511
vt 0.514272 0.433807
vt 0.347955 0.433807
vt 0.347955 0.415675
vt 0.347955 0.415675
vt 0.514272 0.415675
vt 0.514272 0.433807
vt 0.572598 0.433807
vt 0.519770 0.433807
vt 0.519770 0.415675
vt 0.519770 0.415675
vt 0.572598 0.415675
vt 0.572598 0.433807
vt 0.341693 0.433807
vt 0.288865 0.433807
vt 0.288865 0.415675
vt 0.288865 0.415675
vt 0.341693 0.415675
vt 0.341693 0.433807
vt 0.284284 0.433807
vt 0.232581 0.433807
vt 0.232581 0.415675
vt 0.232581 0.415675
vt 0.284284 0.415675
vt 0.284284 0.433807
vt 0.057861 0.433807
vt 0.006158 0.433807
vt 0.006158 0.415675
vt 0.006158 0.415675
vt 0.057861 0.415675
vt 0.057861 0.433807
vt 0.513481 0.376305
vt 0.347164 0.376305
vt 0.347164 0.358172
vt 0.347164 0.358172
vt 0.513481 0.358172
vt 0.513481 0.376305
vt 0.572418 0.376305
vt 0.519590 0.376305
vt 0.519590 0.358172
vt 0.519590 0.358172
vt 0.572418 0.358172
vt 0.572418 0.376305
vt 0.341208 0.376305
vt 0.288380 0.376305
vt 0.288380 0.358172
vt 0.288380 0.358172
vt 0.341208 0.358172
vt 0.341208 0.376305
vt 0.226598 0.376305
vt 0.062533 0.376305
vt 0.062533 0.358172
vt 0.062533 0.358172
vt 0.226598 0.358172
vt 0.226598 0.376305
vt 0.283798 0.376305
vt 0.232096 0.376305
vt 0.232096 0.358172
vt 0.232096 0.358172
vt 0.283798 0.358172
vt 0.283798 0.376305
vt 0.057798 0.376305
vt 0.006096 0.376305
vt 0.006096 0.358172
vt 0.006096 0.358172
vt 0.057798 0.358172
vt 0.057798 0.376305
vt 0.331475 0.597595
vt 0.331475 0.475654
vt 0.465741 0.475654
vt 0.465741 0.475654
vt 0.465741 0.597595
vt 0.331475 0.597595
vt 0.060428 0.872034
vt 0.111825 0.872034
vt 0.111825 0.991364
vt 0.111825 0.991364
vt 0.060428 0.991364
vt 0.060428 0.872034
vt 0.054320 0.991364
vt 0.004269 0.991364
vt 0.004269 0.872034
vt 0.004269 0.872034
vt 0.054320 0.872034
vt 0.054320 0.991364
vt 0.326199 0.730909
vt 0.326199 0.608969
vt 0.460465 0.608969
vt 0.460465 0.608969
vt 0.460465 0.730909
vt 0.326199 0.730909
vt 0.334382 0.861346
vt 0.283256 0.861346
vt 0.283256 0.742015
vt 0.283256 0.742015
vt 0.334382 0.742015
vt 0.334382 0.861346
vt 0.061492 0.742015
vt 0.112618 0.742015
vt 0.112618 0.861346
vt 0.112618 0.861346
vt 0.061492 0.861346
vt 0.061492 0.742015
vt 0.277487 0.742015
vt 0.277487 0.861346
vt 0.118140 0.861346
vt 0.118140 0.861346
vt 0.118140 0.742015
vt 0.277487 0.742015
vt 0.208313 0.597595
vt 0.208313 0.475654
vt 0.262339 0.475654
vt 0.262339 0.475654
vt 0.262339 0.597595
vt 0.208313 0.597595
vt 0.067292 0.597595
vt 0.067292 0.475654
vt 0.201013 0.475654
vt 0.201013 0.475654
vt 0.201013 0.597595
vt 0.067292 0.597595
vt 0.006157 0.597595
vt 0.006157 0.475654
vt 0.060182 0.475654
vt 0.060182 0.475654
vt 0.060182 0.597595
vt 0.006157 0.597595
vt 0.055367 0.861143
vt 0.005277 0.861143
vt 0.005277 0.741813
vt 0.005277 0.741813
vt 0.055367 0.741813
vt 0.055367 0.861143
vt 0.338689 0.872260
vt 0.388779 0.872260
vt 0.388779 0.991590
vt 0.388779 0.991590
vt 0.338689 0.991590
vt 0.338689 0.872260
vt 0.166352 0.091436
vt 0.146720 0.125889
vt 0.025653 0.125889
vt 0.005827 0.091436
vt 0.166352 0.091436
vt 0.463114 0.045426
vt 0.444432 0.079879
vt 0.323385 0.079879
vt 0.304263 0.045426
vt 0.463114 0.045426
vt 0.162935 0.045426
vt 0.145652 0.079879
vt 0.024586 0.079879
vt 0.004954 0.045426
vt 0.162935 0.045426
vt 0.469389 0.091436
vt 0.450267 0.125889
vt 0.329219 0.125889
vt 0.309690 0.091436
vt 0.469389 0.091436
vt 0.793876 0.517865
vt 0.754223 0.517865
vt 0.754601 0.376025
vt 0.798373 0.377119
vt 0.793876 0.517865
vt 0.839790 0.376025
vt 0.835197 0.517865
vt 0.793876 0.517865
vt 0.798373 0.377119
vt 0.839790 0.376025
vt 0.880385 0.376025
vt 0.876485 0.517865
vt 0.835197 0.517865
vt 0.839790 0.376025
vt 0.880385 0.376025
vt 0.904151 0.106674
vt 0.920487 0.113944
vt 0.909791 0.168013
vt 0.909791 0.168013
vt 0.900654 0.161297
vt 0.888219 0.199179
vt 0.909791 0.168013
vt 0.909791 0.168013
vt 0.906423 0.217921
vt 0.837546 0.689060
vt 0.849548 0.854291
vt 0.803273 0.842739
vt 0.891678 0.813999
vt 0.837546 0.689060
vt 0.837546 0.689060
vt 0.916656 0.734592
vt 0.916781 0.640552
vt 0.891882 0.561042
vt 0.848864 0.523343
vt 0.805704 0.540296
vt 0.769432 0.591508
vt 0.966932 0.155808
vt 0.958308 0.163952
vt 0.956247 0.109268
vt 0.956247 0.109268
vt 0.966905 0.107990
vt 0.951303 0.219852
vt 0.958308 0.163952
vt 0.969897 0.203078
vt 0.951303 0.219852
vt 0.958308 0.163952
vt 0.939299 0.170641
vt 0.936970 0.114308
vt 0.936970 0.114308
vt 0.956247 0.109268
vt 0.928854 0.221925
vt 0.939299 0.170641
vt 0.951303 0.219852
vt 0.928854 0.221925
vt 0.748960 0.146351
vt 0.788840 0.146351
vt 0.788840 0.226783
vt 0.748960 0.226783
vt 0.805066 0.228534
vt 0.805066 0.148101
vt 0.844947 0.148101
vt 0.844947 0.228534
vt 0.555443 0.335812
vt 0.515563 0.335812
vt 0.515563 0.255380
vt 0.555443 0.255380
vt 0.603015 0.254671
vt 0.603015 0.335103
vt 0.563135 0.335103
vt 0.563135 0.254671
vt 0.936970 0.114308
vt 0.920487 0.113944
vt 0.920086 0.094943
vt 0.936159 0.094943
vt 0.226625 0.433807
vt 0.062560 0.433807
vt 0.062560 0.415675
vt 0.226625 0.415675
vt 0.219923 0.091436
vt 0.238065 0.125889
vt 0.184823 0.125889
vt 0.166352 0.091436
vt 0.585808 0.079879
vt 0.532565 0.079879
vt 0.550707 0.045426
vt 0.601696 0.045426
vt 0.513016 0.045426
vt 0.532565 0.079879
vt 0.479066 0.079879
vt 0.463114 0.045426
vt 0.287308 0.079879
vt 0.233571 0.079879
vt 0.253357 0.045426
vt 0.304263 0.045426
vt 0.213923 0.045426
vt 0.233571 0.079879
vt 0.178823 0.079879
vt 0.162935 0.045426
vt 0.590967 0.125889
vt 0.537321 0.125889
vt 0.555867 0.091436
vt 0.606193 0.091436
vt 0.517730 0.091436
vt 0.537321 0.125889
vt 0.483779 0.125889
vt 0.469389 0.091436
vt 0.293106 0.125889
vt 0.238065 0.125889
vt 0.259156 0.091436
vt 0.309690 0.091436
vt 0.472653 0.597595
vt 0.472653 0.475654
vt 0.528354 0.475654
vt 0.528354 0.597595
vt 0.270014 0.597595
vt 0.270014 0.475654
vt 0.325715 0.475654
vt 0.325715 0.597595
vt 0.333655 0.991590
vt 0.282258 0.991590
vt 0.282258 0.872260
vt 0.333655 0.872260
vt 0.276552 0.872034
vt 0.276552 0.991364
vt 0.117206 0.991364
vt 0.117206 0.872034
vt 0.204626 0.730673
vt 0.204626 0.608733
vt 0.258610 0.608733
vt 0.258610 0.730673
vt 0.065764 0.730673
vt 0.065764 0.608733
vt 0.199485 0.608733
vt 0.199485 0.730673
vt 0.006000 0.730673
vt 0.006000 0.608733
vt 0.059984 0.608733
vt 0.059984 0.730673
vt 0.342188 0.742357
vt 0.392238 0.742357
vt 0.392238 0.861688
vt 0.342188 0.861688
vt 0.555876 0.742357
vt 0.555876 0.861688
vt 0.398687 0.861688
vt 0.398687 0.742357
vt 0.465235 0.730909
vt 0.465235 0.608969
vt 0.520647 0.608969
vt 0.520647 0.730909
vt 0.264937 0.730673
vt 0.264937 0.608733
vt 0.320349 0.608733
vt 0.320349 0.730673
vt 0.552078 0.872433
vt 0.552078 0.991764
vt 0.394889 0.991764
vt 0.394889 0.872433
vt 0.915454 0.376025
vt 0.915454 0.517865
vt 0.876485 0.517865
vt 0.880385 0.376025
vt 0.652716 0.905060
vt 0.610077 0.823173
vt 0.711576 0.902155
vt 0.608637 0.704462
vt 0.752178 0.816159
vt 0.750737 0.697448
vt 0.649238 0.618466
vt 0.708098 0.615561
vt 0.993783 0.989750
vt 0.961839 0.989750
vt 0.961839 0.927583
vt 0.993783 0.927583
vt 0.961839 0.867389
vt 0.993783 0.867389
vt 0.961839 0.801583
vt 0.993783 0.801583
vt 0.961839 0.738777
vt 0.993783 0.738777
vt 0.961839 0.674415
vt 0.993783 0.674415
vt 0.961839 0.608506
vt 0.993783 0.608506
vt 0.961839 0.551192
vt 0.993783 0.551192
vt 0.961839 0.490340
vt 0.993783 0.490340
vt 0.955311 0.987271
vt 0.936128 0.987271
vt 0.936128 0.908637
vt 0.955311 0.908637
vt 0.936128 0.815335
vt 0.955311 0.815335
vt 0.936128 0.711825
vt 0.955311 0.711825
vt 0.936128 0.617933
vt 0.955311 0.617933
vt 0.936128 0.514749
vt 0.955311 0.514749
vt 0.936128 0.422071
vt 0.955311 0.422071
vt 0.936128 0.326016
vt 0.955311 0.326016
vt 0.936128 0.242836
vt 0.955311 0.242836
vt 0.909791 0.168013
vt 0.920487 0.113944
vt 0.936970 0.114308
vt 0.939299 0.170641
vt 0.906423 0.217921
vt 0.928854 0.221925
vt 0.790288 0.664485
vt 0.765469 0.686670
vt 0.713751 0.587346
vt 0.723523 0.536264
vt 0.792544 0.850367
vt 0.642358 0.590870
vt 0.767216 0.830658
vt 0.631359 0.540812
vt 0.728969 0.985021
vt 0.593111 0.695176
vt 0.717969 0.934963
vt 0.567783 0.675467
vt 0.636804 0.989569
vt 0.594858 0.839163
vt 0.646576 0.938487
vt 0.570039 0.861348
vn -0.000256 -0.999992 -0.003957999999999938
vn -0.000256 -0.999992 -0.003957999999999938
vn -0.000256 -0.999992 -0.003957999999999938
vn -0.000513 -1 0.00045400000000006123
vn -0.000513 -1 0.00045400000000006123
vn -0.000513 -1 0.00045400000000006123
vn 0.999973 0.0003909999999999996 -0.007296
vn 0.999973 0.0003909999999999996 -0.007296
vn 0.999973 0.0003909999999999996 -0.007296
vn 0.999955 0.0007809999999999995 -0.00946
vn 0.999955 0.0007809999999999995 -0.00946
vn 0.999955 0.0007809999999999995 -0.00946
vn -0.999994 0.0009259999999999997 -0.003432
vn -0.999994 0.0009259999999999997 -0.003432
vn -0.999994 0.0009259999999999997 -0.003432
vn -0.999997 0.001852 0.0017029999999999999
vn -0.999997 0.001852 0.0017029999999999999
vn -0.999997 0.001852 0.0017029999999999999
vn -0.000895 -0.999983 -0.005781999999999938
vn -0.000895 -0.999983 -0.005781999999999938
vn -0.000895 -0.999983 -0.005781999999999938
vn -0.001789 -0.999998 -0.0009529999999999387
vn -0.001789 -0.999998 -0.0009529999999999387
vn -0.001789 -0.999998 -0.0009529999999999387
vn -0.00067 0.999995 0.003064999999999939
vn -0.00067 0.999995 0.003064999999999939
vn -0.00067 0.999995 0.003064999999999939
vn -0.001342 0.999999 -0.0005550000000000613
vn -0.001342 0.999999 -0.0005550000000000613
vn -0.001342 0.999999 -0.0005550000000000613
vn 0.000389 0.999914 -0.01310600000000006
vn 0.000389 0.999914 -0.01310600000000006
vn 0.000389 0.999914 -0.01310600000000006
vn 0.000778 0.999979 -0.0064230000000000615
vn 0.000778 0.999979 -0.0064230000000000615
vn 0.000778 0.999979 -0.0064230000000000615
vn -0.999993 0.0010989999999999997 -0.003532
vn -0.999993 0.0010989999999999997 -0.003532
vn -0.999993 0.0010989999999999997 -0.003532
vn -0.999994 0.002203 0.002534
vn -0.999994 0.002203 0.002534
vn -0.999994 0.002203 0.002534
vn 0.999995 0.00205 -0.00256
vn 0.999995 0.00205 -0.00256
vn 0.999995 0.00205 -0.00256
vn 0.999895 0.0041129999999999995 -0.013895
vn 0.999895 0.0041129999999999995 -0.013895
vn 0.999895 0.0041129999999999995 -0.013895
vn 0.999999 -0.00030500000000000004 -0.000998
vn 0.999999 -0.00030500000000000004 -0.000998
vn 0.999999 -0.00030500000000000004 -0.000998
vn 0.999991 -0.0006109999999999998 0.004185
vn 0.999991 -0.0006109999999999998 0.004185
vn 0.999991 -0.0006109999999999998 0.004185
vn 0.002095 0.999965 -0.008108000000000061
vn 0.002095 0.999965 -0.008108000000000061
vn 0.002095 0.999965 -0.008108000000000061
vn 0.004185 0.999986 0.0032079999999999388
vn 0.004185 0.999986 0.0032079999999999388
vn 0.004185 0.999986 0.0032079999999999388
vn -0.001822 -0.999988 -0.004527999999999938
vn -0.001822 -0.999988 -0.004527999999999938
vn -0.001822 -0.999988 -0.004527999999999938
vn -0.003639 -0.999979 0.005321000000000062
vn -0.003639 -0.999979 0.005321000000000062
vn -0.003639 -0.999979 0.005321000000000062
vn -0.00073 0.999994 0.0034299999999999387
vn -0.00073 0.999994 0.0034299999999999387
vn -0.00073 0.999994 0.0034299999999999387
vn 0 0.999998 0.0020049999999999387
vn 0 0.999998 0.0020049999999999387
vn 0 0.999998 0.0020049999999999387
vn -1 0.000926 0.00026499999999999994
vn -1 0.000926 0.00026499999999999994
vn -1 0.000926 0.00026499999999999994
vn -1 -3.27593018771917E-20 -0.000535
vn -1 -3.27593018771917E-20 -0.000535
vn -1 -3.27593018771917E-20 -0.000535
vn 0 -1 -0.0009019999999999388
vn 0 -1 -0.0009019999999999388
vn 0 -1 -0.0009019999999999388
vn -0.000895 -1 -0.00014799999999993876
vn -0.000895 -1 -0.00014799999999993876
vn -0.000895 -1 -0.00014799999999993876
vn 0.001333 -0.999996 0.002444000000000061
vn 0.001333 -0.999996 0.002444000000000061
vn 0.001333 -0.999996 0.002444000000000061
vn 0 -1 -0.00016199999999993878
vn 0 -1 -0.00016199999999993878
vn 0 -1 -0.00016199999999993878
vn -1 -3.3677786976552213E-20 -0.00055
vn -1 -3.3677786976552213E-20 -0.00055
vn -1 -3.3677786976552213E-20 -0.00055
vn -0.999999 0.001099 0.00039499999999999995
vn -0.999999 0.001099 0.00039499999999999995
vn -0.999999 0.001099 0.00039499999999999995
vn 0.999996 0.00205 -0.002163
vn 0.999996 0.00205 -0.002163
vn 0.999996 0.00205 -0.002163
vn 1 -2.4492935982947065E-20 -0.0004
vn 1 -2.4492935982947065E-20 -0.0004
vn 1 -2.4492935982947065E-20 -0.0004
vn 0 1 -0.0010020000000000612
vn 0 1 -0.0010020000000000612
vn 0 1 -0.0010020000000000612
vn 0.000389 0.999998 -0.002044000000000061
vn 0.000389 0.999998 -0.002044000000000061
vn 0.000389 0.999998 -0.002044000000000061
vn -0.000842 0.999998 0.0019659999999999387
vn -0.000842 0.999998 0.0019659999999999387
vn -0.000842 0.999998 0.0019659999999999387
vn 0 0.999999 0.0013019999999999388
vn 0 0.999999 0.0013019999999999388
vn 0 0.999999 0.0013019999999999388
vn -0.999982 -0.0020419999999999995 0.005671
vn -0.999982 -0.0020419999999999995 0.005671
vn -0.999982 -0.0020419999999999995 0.005671
vn -0.999999 1.0403374558756765E-19 0.001699
vn -0.999999 1.0403374558756765E-19 0.001699
vn -0.999999 1.0403374558756765E-19 0.001699
vn -0.002401 -0.999996 0.0017220000000000612
vn -0.002401 -0.999996 0.0017220000000000612
vn -0.002401 -0.999996 0.0017220000000000612
vn 0 -0.999994 0.003597000000000061
vn 0 -0.999994 0.003597000000000061
vn 0 -0.999994 0.003597000000000061
vn 0 0.999999 -0.0012660000000000611
vn 0 0.999999 -0.0012660000000000611
vn 0 0.999999 -0.0012660000000000611
vn 0.002095 0.999998 0.0005009999999999388
vn 0.002095 0.999998 0.0005009999999999388
vn 0.002095 0.999998 0.0005009999999999388
vn -0.001822 -0.999998 0.0008290000000000612
vn -0.001822 -0.999998 0.0008290000000000612
vn -0.001822 -0.999998 0.0008290000000000612
vn 0 -1 -0.0007089999999999387
vn 0 -1 -0.0007089999999999387
vn 0 -1 -0.0007089999999999387
vn 0 6.123233995736766E-17 1
vn 0 6.123233995736766E-17 1
vn 0 6.123233995736766E-17 1
vn 0 6.123233995736766E-17 1
vn 0 6.123233995736766E-17 1
vn 0 6.123233995736766E-17 1
vn 0 6.123233995736766E-17 1
vn 0 6.123233995736766E-17 1
vn 0 6.123233995736766E-17 1
vn 0 6.123233995736766E-17 1
vn 0 6.123233995736766E-17 1
vn 0 6.123233995736766E-17 1
vn 0 6.123233995736766E-17 1
vn 0 6.123233995736766E-17 1
vn 0 6.123233995736766E-17 1
vn 0 6.123233995736766E-17 1
vn 0 6.123233995736766E-17 1
vn 0 6.123233995736766E-17 1
vn 0 6.123233995736766E-17 1
vn 0 6.123233995736766E-17 1
vn -0.700606 0.700185 0.13745199999999994
vn 0.711201 0.690642 0.13117399999999996
vn 0.70574 0.695421 0.13535199999999994
vn -0.700606 0.700185 0.13745199999999994
vn -0.700606 0.700185 0.13745199999999994
vn -0.887742 -0.444452 0.11990000000000003
vn -0.431179 -0.893946 0.12224800000000005
vn -0.700606 0.700185 0.13745199999999994
vn -0.700606 0.700185 0.13745199999999994
vn -0.887742 -0.444452 0.11990000000000003
vn 0.456075 -0.881563 0.12183100000000005
vn 0.886202 -0.446999 0.12180900000000003
vn -0.431179 -0.893946 0.12224800000000005
vn -0.887742 -0.444452 0.11990000000000003
vn 0.456075 -0.881563 0.12183100000000005
vn -0.407173 0.814347 0.4135809999999999
vn 0.637771 0.637767 0.43185799999999996
vn 0.581999 0.782385 0.22169799999999995
vn 0.581999 0.782385 0.22169799999999995
vn -0.880544 0.440123 0.17587999999999998
vn -0.445746 0.890902 -0.08720100000000006
vn 0.581999 0.782385 0.22169799999999995
vn 0.581999 0.782385 0.22169799999999995
vn 0.89252 0.445631 -0.06943500000000002
vn 0.010673 -0.00862900000000006 -0.999906
vn 0.684108 0.564775 -0.46154700000000004
vn 0.873771 -0.11270300000000003 -0.473098
vn 0.080165 0.858501 -0.506507
vn 0.010673 -0.00862900000000006 -0.999906
vn 0.010673 -0.00862900000000006 -0.999906
vn -0.549488 0.658467 -0.514281
vn -0.872819 0.07825499999999998 -0.48173
vn -0.68801 -0.589603 -0.42309599999999997
vn -0.038483 -0.910388 -0.41196299999999997
vn 0.548654 -0.668392 -0.502226
vn 0.873771 -0.11270300000000003 -0.473098
vn -0.880544 0.440123 0.17587999999999998
vn -0.438942 -0.878402 0.18904900000000005
vn -0.814347 -0.407173 0.413581
vn -0.814347 -0.407173 0.413581
vn -0.407173 0.814347 0.4135809999999999
vn -0.892228 -0.446627 -0.06673799999999998
vn -0.438942 -0.878402 0.18904900000000005
vn -0.445746 0.890902 -0.08720100000000006
vn -0.892228 -0.446627 -0.06673799999999998
vn -0.438942 -0.878402 0.18904900000000005
vn 0.825298 -0.545464 0.14612500000000003
vn 0.637771 -0.637767 0.4318580000000001
vn 0.637771 -0.637767 0.4318580000000001
vn -0.814347 -0.407173 0.413581
vn 0.446535 -0.893428 -0.048920999999999944
vn 0.825298 -0.545464 0.14612500000000003
vn -0.892228 -0.446627 -0.06673799999999998
vn 0.446535 -0.893428 -0.048920999999999944
vn 0 6.123233995736766E-17 1
vn 0 6.123233995736766E-17 1
vn 0 6.123233995736766E-17 1
vn 0 6.123233995736766E-17 1
vn 0 6.123233995736766E-17 1
vn 0 6.123233995736766E-17 1
vn 0 6.123233995736766E-17 1
vn 0 6.123233995736766E-17 1
vn 0 6.123233995736766E-17 1
vn 0 6.123233995736766E-17 1
vn 0 6.123233995736766E-17 1
vn 0 6.123233995736766E-17 1
vn 0 6.123233995736766E-17 1
vn 0 6.123233995736766E-17 1
vn 0 6.123233995736766E-17 1
vn 0 6.123233995736766E-17 1
vn 0 6.123233995736766E-17 1
vn 0 6.123233995736766E-17 1
vn 0 6.123233995736766E-17 1
vn 0 6.123233995736766E-17 1
vn -1 3.599999999999998E-05 -0.000285
vn -1 1.7999999999999963E-05 -0.00059
vn -1 3.599999999999998E-05 -0.000285
vn -1 3.599999999999998E-05 -0.000285
vn 0 6.123233995736766E-17 1
vn 0 6.123233995736766E-17 1
vn 0 6.123233995736766E-17 1
vn 0 6.123233995736766E-17 1
vn 0 6.123233995736766E-17 1
vn 0 6.123233995736766E-17 1
vn 0 6.123233995736766E-17 1
vn 0 6.123233995736766E-17 1
vn 0 6.123233995736766E-17 1
vn 0 6.123233995736766E-17 1
vn 0 6.123233995736766E-17 1
vn 0 6.123233995736766E-17 1
vn 0 6.123233995736766E-17 1
vn 0 6.123233995736766E-17 1
vn 0 6.123233995736766E-17 1
vn 0 6.123233995736766E-17 1
vn 0 6.123233995736766E-17 1
vn 0 6.123233995736766E-17 1
vn 0 6.123233995736766E-17 1
vn 0 6.123233995736766E-17 1
vn 0 6.123233995736766E-17 1
vn 0 6.123233995736766E-17 1
vn 0 6.123233995736766E-17 1
vn 0 6.123233995736766E-17 1
vn 0 6.123233995736766E-17 1
vn 0 6.123233995736766E-17 1
vn 0 6.123233995736766E-17 1
vn 0 6.123233995736766E-17 1
vn 0 6.123233995736766E-17 1
vn 0 6.123233995736766E-17 1
vn 0 6.123233995736766E-17 1
vn 0 6.123233995736766E-17 1
vn 0.999999 7.905095088496165E-20 0.001291
vn 0.999999 -0.0001569999999999999 0.001163
vn 0.999999 7.905095088496165E-20 0.001291
vn 0.999999 7.905095088496165E-20 0.001291
vn -0.999998 1.2668971137179368E-19 0.002069
vn -0.999999 0.0007410000000000001 0.00147
vn -0.999998 1.2668971137179368E-19 0.002069
vn -0.999998 1.2668971137179368E-19 0.002069
vn 0.999999 0.0003909999999999999 -0.001475
vn 0.999999 -6.96824028714844E-20 -0.001138
vn 0.999999 0.0003909999999999999 -0.001475
vn 0.999999 0.0003909999999999999 -0.001475
vn -0.000256 -1 -0.0006169999999999388
vn 0 -1 7.000000000006122E-05
vn -0.000256 -1 -0.0006169999999999388
vn -0.000256 -1 -0.0006169999999999388
vn 0 -0.999999 0.001488000000000061
vn 0.000131 -0.999999 0.0015920000000000612
vn 0 -0.999999 0.001488000000000061
vn 0 -0.999999 0.001488000000000061
vn 0.999999 7.047842329093017E-20 0.001151
vn 0.999999 0.0001320000000000001 0.001407
vn 0.999999 7.047842329093017E-20 0.001151
vn 0.999999 7.047842329093017E-20 0.001151
vn 0 0.999998 0.001959999999999939
vn 0.000715 0.999999 0.001398999999999939
vn 0 0.999998 0.001959999999999939
vn 0 0.999998 0.001959999999999939
vn 0 1 0.00047799999999993876
vn -0.00067 1 -8.700000000006123E-05
vn 0 1 0.00047799999999993876
vn 0 1 0.00047799999999993876
vn -1 1.7999999999999994E-05 -9.2E-05
vn -1 -2.694222958124177E-21 -4.4E-05
vn -1 1.7999999999999994E-05 -9.2E-05
vn -1 1.7999999999999994E-05 -9.2E-05
vn -1 5.449678256205721E-21 8.9E-05
vn -1 -0.000341 0.000364
vn -1 5.449678256205721E-21 8.9E-05
vn -1 5.449678256205721E-21 8.9E-05
vn 0.999999 7.660165728666694E-20 0.001251
vn 0.999999 -0.00016199999999999993 0.001121
vn 0.999999 7.660165728666694E-20 0.001251
vn 0.999999 7.660165728666694E-20 0.001251
vn 1 -0.000305 -0.00015999999999999999
vn 1 3.967855629237425E-20 0.000648
vn 1 -0.000305 -0.00015999999999999999
vn 1 -0.000305 -0.00015999999999999999
vn 0.70574 0.695421 0.13535199999999994
vn 0.711201 0.690642 0.13117399999999996
vn 0.886202 -0.446999 0.12180900000000003
vn 0.456075 -0.881563 0.12183100000000005
vn 0 6.123233995736766E-17 1
vn 0 6.123233995736766E-17 1
vn 0 6.123233995736766E-17 1
vn 0 6.123233995736766E-17 1
vn 0 6.123233995736766E-17 1
vn 0 6.123233995736766E-17 1
vn 0 6.123233995736766E-17 1
vn 0 6.123233995736766E-17 1
vn 0.738325 0.559173 0.37709599999999993
vn 0.559177 0.738321 0.37709899999999996
vn 0.91747 0.12667700000000004 0.377097
vn 0.91747 -0.12667399999999998 0.377098
vn 0.738324 -0.559174 0.37709700000000007
vn 0.559177 -0.738322 0.37709600000000004
vn 0.126677 -0.917469 0.37710000000000005
vn -0.126675 -0.917468 0.3771010000000001
vn -0.559174 -0.738322 0.37710200000000005
vn -0.738322 -0.559175 0.3771010000000001
vn -0.917469 -0.12667499999999998 0.377099
vn -0.917469 0.12667600000000004 0.377099
vn -0.738321 0.559176 0.37709999999999994
vn -0.559173 0.738321 0.37710499999999997
vn -0.126676 0.917466 0.37710599999999994
vn 0.126675 0.917467 0.37710599999999994
vn 0.559177 0.738321 0.37709899999999996
vn 0.738325 0.559173 0.37709599999999993
vn 0.976434 0.131951 -0.170782
vn 0.873771 -0.11270300000000003 -0.473098
vn 0.684108 0.564775 -0.46154700000000004
vn 0.582833 0.761668 -0.28314000000000006
vn 0.080165 0.858501 -0.506507
vn -0.125857 0.929316 -0.34717600000000004
vn -0.549488 0.658467 -0.514281
vn -0.753142 0.567358 -0.33298900000000003
vn -0.872819 0.07825499999999998 -0.48173
vn -0.959379 -0.13727400000000003 -0.246471
vn -0.68801 -0.589603 -0.42309599999999997
vn -0.582578 -0.792327 -0.18116499999999994
vn -0.038483 -0.910388 -0.41196299999999997
vn 0.157775 -0.948361 -0.27516999999999997
vn 0.548654 -0.668392 -0.502226
vn 0.735829 -0.588558 -0.33489599999999997
vn 0.873771 -0.11270300000000003 -0.473098
vn 0.976434 0.131951 -0.170782
vn 0.581999 0.782385 0.22169799999999995
vn 0.637771 0.637767 0.43185799999999996
vn 0.637771 -0.637767 0.4318580000000001
vn 0.825298 -0.545464 0.14612500000000003
vn 0.89252 0.445631 -0.06943500000000002
vn 0.446535 -0.893428 -0.048920999999999944
vn 0.199622 0.15118600000000004 0.96814
vn 0.151186 0.19962200000000005 0.968139
vn 0.248057 0.034250000000000065 0.96814
vn 0.248057 -0.03424899999999994 0.96814
vn 0.03425 0.24805900000000006 0.968139
vn 0.199622 -0.15118599999999993 0.96814
vn -0.03425 0.24805700000000006 0.96814
vn 0.151186 -0.19962399999999994 0.968139
vn -0.151184 0.19962000000000005 0.96814
vn 0.034249 -0.24806099999999995 0.968139
vn -0.199621 0.15118400000000007 0.96814
vn -0.03425 -0.24806099999999995 0.968139
vn -0.248057 0.034249000000000064 0.96814
vn -0.151186 -0.19962299999999994 0.968139
vn -0.248058 -0.03424899999999994 0.96814
vn -0.199621 -0.15118599999999993 0.96814
g 01
f 1/1/1 2/2/2 3/3/3
f 4/4/4 5/5/5 6/6/6
f 7/7/7 8/8/8 9/9/9
f 10/10/10 11/11/11 12/12/12
f 13/13/13 14/14/14 15/15/15
f 16/16/16 17/17/17 18/18/18
f 19/19/19 20/20/20 21/21/21
f 22/22/22 23/23/23 24/24/24
f 25/25/25 26/26/26 27/27/27
f 28/28/28 29/29/29 30/30/30
f 31/31/31 32/32/32 33/33/33
f 34/34/34 35/35/35 36/36/36
f 37/37/37 38/38/38 39/39/39
f 40/40/40 41/41/41 42/42/42
f 43/43/43 44/44/44 45/45/45
f 46/46/46 47/47/47 48/48/48
f 49/49/49 50/50/50 51/51/51
f 52/52/52 53/53/53 54/54/54
f 55/55/55 56/56/56 57/57/57
f 58/58/58 59/59/59 60/60/60
f 61/61/61 62/62/62 63/63/63
f 64/64/64 65/65/65 66/66/66
f 67/67/67 68/68/68 69/69/69
f 70/70/70 71/71/71 72/72/72
f 73/73/73 74/74/74 75/75/75
f 76/76/76 77/77/77 78/78/78
f 79/79/79 80/80/80 81/81/81
f 82/82/82 83/83/83 84/84/84
f 85/85/85 86/86/86 87/87/87
f 88/88/88 89/89/89 90/90/90
f 91/91/91 92/92/92 93/93/93
f 94/94/94 95/95/95 96/96/96
f 97/97/97 98/98/98 99/99/99
f 100/100/100 101/101/101 102/102/102
f 103/103/103 104/104/104 105/105/105
f 106/106/106 107/107/107 108/108/108
f 109/109/109 110/110/110 111/111/111
f 112/112/112 113/113/113 114/114/114
f 115/115/115 116/116/116 117/117/117
f 118/118/118 119/119/119 120/120/120
f 121/121/121 122/122/122 123/123/123
f 124/124/124 125/125/125 126/126/126
f 127/127/127 128/128/128 129/129/129
f 130/130/130 131/131/131 132/132/132
f 133/133/133 134/134/134 135/135/135
f 136/136/136 137/137/137 138/138/138
f 139/139/139 140/140/140 141/141/141
f 141/141/141 142/142/142 143/143/143
f 144/144/144 145/145/145 146/146/146
f 146/146/146 147/147/147 148/148/148
f 149/149/149 150/150/150 151/151/151
f 151/151/151 152/152/152 153/153/153
f 154/154/154 155/155/155 156/156/156
f 156/156/156 157/157/157 158/158/158
f 159/159/159 160/160/160 161/161/161
f 161/161/161 162/162/162 163/163/163
f 164/164/164 165/165/165 166/166/166
f 166/166/166 167/167/167 168/168/168
f 169/169/169 170/170/170 171/171/171
f 171/171/171 172/172/172 173/173/173
f 174/174/174 175/175/175 176/176/176
f 177/177/177 178/178/178 174/174/174
f 179/179/179 178/178/178 180/180/180
f 181/181/181 182/182/182 179/179/179
f 183/183/183 184/184/184 185/185/185
f 186/186/186 184/184/184 187/187/187
f 188/188/188 189/189/189 186/186/186
f 190/190/190 189/189/189 188/188/188
f 191/191/191 190/190/190 188/188/188
f 188/188/188 192/192/192 191/191/191
f 188/188/188 193/193/193 192/192/192
f 194/194/194 193/193/193 188/188/188
f 195/195/195 196/196/196 197/197/197
f 198/198/198 199/199/199 195/195/195
f 200/200/200 201/201/201 195/195/195
f 195/195/195 202/202/202 203/203/203
f 204/204/204 205/205/205 206/206/206
f 207/207/207 208/208/208 204/204/204
f 209/209/209 210/210/210 204/204/204
f 204/204/204 211/211/211 212/212/212
f 213/213/213 214/214/214 215/215/215
f 215/215/215 216/216/216 213/213/213
f 217/217/217 218/218/218 219/219/219
f 219/219/219 220/220/220 217/217/217
f 221/221/221 222/222/222 223/223/223
f 223/223/223 224/224/224 221/221/221
f 225/225/225 226/226/226 227/227/227
f 227/227/227 228/228/228 225/225/225
f 229/229/229 230/230/230 231/231/231
f 231/231/231 232/232/232 229/229/229
f 233/233/233 234/234/234 235/235/235
f 235/235/235 236/236/236 233/233/233
f 237/237/237 238/238/238 239/239/239
f 239/239/239 240/240/240 237/237/237
f 241/241/241 242/242/242 243/243/243
f 243/243/243 244/244/244 241/241/241
f 245/245/245 246/246/246 247/247/247
f 247/247/247 248/248/248 245/245/245
f 249/249/249 250/250/250 251/251/251
f 251/251/251 252/252/252 249/249/249
f 253/253/253 254/254/254 255/255/255
f 255/255/255 256/256/256 253/253/253
f 257/257/257 258/258/258 259/259/259
f 259/259/259 260/260/260 257/257/257
f 261/261/261 262/262/262 263/263/263
f 263/263/263 264/264/264 261/261/261
f 265/265/265 266/266/266 267/267/267
f 267/267/267 268/268/268 265/265/265
f 269/269/269 270/270/270 271/271/271
f 271/271/271 272/272/272 269/269/269
f 273/273/273 274/274/274 275/275/275
f 275/275/275 276/276/276 273/273/273
f 277/277/277 278/278/278 279/279/279
f 279/279/279 280/280/280 277/277/277
f 281/281/281 282/282/282 283/283/283
f 283/283/283 284/284/284 281/281/281
f 285/285/285 286/286/286 287/287/287
f 287/287/287 288/288/288 285/285/285
f 289/289/289 290/290/290 291/291/291
f 291/291/291 292/292/292 289/289/289
f 293/293/293 294/294/294 295/295/295
f 295/295/295 296/296/296 293/293/293
f 297/297/297 298/298/298 299/299/299
f 299/299/299 300/300/300 297/297/297
f 301/301/301 302/302/302 303/303/303
f 303/303/303 304/304/304 301/301/301
f 305/305/305 306/306/306 307/307/307
f 307/307/307 308/308/308 305/305/305
f 309/309/309 310/310/310 311/311/311
f 311/311/311 312/312/312 309/309/309
f 313/313/313 314/314/314 315/315/315
f 315/315/315 316/316/316 313/313/313
f 317/317/317 318/318/318 319/319/319
f 319/319/319 320/320/320 317/317/317
f 321/321/321 322/322/322 323/323/323
f 323/323/323 322/322/322 324/324/324
f 324/324/324 325/325/325 323/323/323
f 326/326/326 325/325/325 324/324/324
f 324/324/324 327/327/327 326/326/326
f 328/328/328 326/326/326 327/327/327
f 329/329/329 330/330/330 331/331/331
f 331/331/331 332/332/332 329/329/329
f 332/332/332 331/331/331 333/333/333
f 333/333/333 334/334/334 332/332/332
f 334/334/334 333/333/333 335/335/335
f 335/335/335 336/336/336 334/334/334
f 336/336/336 335/335/335 337/337/337
f 337/337/337 338/338/338 336/336/336
f 338/338/338 337/337/337 339/339/339
f 339/339/339 340/340/340 338/338/338
f 340/340/340 339/339/339 341/341/341
f 341/341/341 342/342/342 340/340/340
f 342/342/342 341/341/341 343/343/343
f 343/343/343 344/344/344 342/342/342
f 344/344/344 343/343/343 345/345/345
f 345/345/345 346/346/346 344/344/344
f 347/347/347 348/348/348 349/349/349
f 349/349/349 350/350/350 347/347/347
f 350/350/350 349/349/349 351/351/351
f 351/351/351 352/352/352 350/350/350
f 352/352/352 351/351/351 353/353/353
f 353/353/353 354/354/354 352/352/352
f 354/354/354 353/353/353 355/355/355
f 355/355/355 356/356/356 354/354/354
f 356/356/356 355/355/355 357/357/357
f 357/357/357 358/358/358 356/356/356
f 358/358/358 357/357/357 359/359/359
f 359/359/359 360/360/360 358/358/358
f 360/360/360 359/359/359 361/361/361
f 361/361/361 362/362/362 360/360/360
f 362/362/362 361/361/361 363/363/363
f 363/363/363 364/364/364 362/362/362
f 365/365/365 366/366/366 367/367/367
f 367/367/367 368/368/368 365/365/365
f 369/369/369 365/365/365 368/368/368
f 368/368/368 370/370/370 369/369/369
f 371/371/371 372/372/372 373/373/373
f 373/373/373 374/374/374 371/371/371
f 372/372/372 371/371/371 375/375/375
f 374/374/374 373/373/373 376/376/376
f 375/375/375 377/377/377 372/372/372
f 376/376/376 378/378/378 374/374/374
f 377/377/377 375/375/375 379/379/379
f 378/378/378 376/376/376 380/380/380
f 379/379/379 381/381/381 377/377/377
f 380/380/380 382/382/382 378/378/378
f 381/381/381 379/379/379 383/383/383
f 382/382/382 380/380/380 384/384/384
f 383/383/383 385/385/385 381/381/381
f 384/384/384 386/386/386 382/382/382
f 385/385/385 383/383/383 386/386/386
f 386/386/386 384/384/384 385/385/385
