v -0.250595 -0.541256 0.815325
v -0.210739 -0.667665 0.815325
v -0.289282 -0.41683499999999996 0.595982
v 1.197248 -0.859332 -0.03552899999999994
v 1.170944 -0.964634 -0.035527999999999935
v 1.249014 -0.944712 0.23043600000000006
v 1.249014 -0.944712 0.23043600000000006
v 1.260775 -0.909072 0.23005200000000006
v 1.197248 -0.859332 -0.03552899999999994
v 1.214661 -0.919544 -0.036378999999999946
v 1.137498 -0.839291 -0.03552899999999995
v 1.152656 -1.001443 -0.035527999999999935
v 1.071434 0.563854 0.32186299999999995
v 1.043422 0.512069 0.32688999999999996
v 1.043711 0.536795 0.26178599999999996
v -1.194442 0.561645 0.06499299999999997
v -1.158617 0.565925 0.017866999999999966
v -1.190422 0.62493 0.03230799999999996
v -1.313277 0.704041 0.05127599999999996
v -1.318957 0.861071 0.09100199999999994
v -1.291906 0.897472 0.06331299999999994
v -0.210739 -0.667665 0.815325
v -0.210316 -0.667992 0.695843
v -0.289282 -0.41683499999999996 0.595982
v -1.154447 0.736853 -0.027404000000000046
v -1.170289 0.897821 -0.013027000000000056
v -1.122398 0.898516 0.03622999999999994
v 0.038378 -0.45006299999999994 0.815325
v 0.079567 -0.4372809999999999 0.815043
v -0.250595 -0.541256 0.815325
v -0.714438 -1.193149 -0.009834999999999927
v -0.764532 -1.317465 -0.009839999999999918
v -0.681515 -1.293249 0.21944500000000008
v -0.716369 -1.425498 -0.009849999999999913
v -0.681515 -1.293249 0.21944500000000008
v 0.918853 -1.438775 -0.003736999999999912
v 0.916419 -1.468565 0.4572330000000001
v 0.900263 -1.460182 0.4579020000000001
v 0.902904 -1.431007 -0.0030659999999999125
v 0.918853 -1.438775 -0.003736999999999912
v 1.034981 -0.995879 -0.035528999999999936
v 1.084454 -0.93633 0.22966600000000006
v 1.070177 -0.911515 0.23043500000000006
v 0.969422 -0.91514 -0.03638099999999994
v 1.070177 -0.911515 0.23043500000000006
v 1.070177 -0.911515 0.23043500000000006
v 1.029036 -0.841107 -0.03552999999999995
v 1.137498 -0.839291 -0.03552899999999995
v 1.137498 -0.839291 -0.03552899999999995
v 1.152656 -1.001443 -0.035527999999999935
v 1.107569 -0.913698 0.23005100000000006
v 1.107569 -0.913698 0.23005100000000006
v 1.096906 -0.995278 0.12932500000000005
v 1.107569 -0.913698 0.23005100000000006
v 1.084454 -0.93633 0.22966600000000006
v -0.963226 -0.099877 -0.0020339999999999937
v -1.055237 -0.040266 -0.0020379999999999973
v -1.048738 -0.11070399999999998 0.168647
v -1.149495 -0.062093 -0.002045999999999996
v -1.048738 -0.11070399999999998 0.168647
v 1.22409 -0.312915 -0.00026699999999998085
v 1.213601 -0.356468 0.287092
v 1.199408 -0.351837 0.287092
v 1.20986 -0.308295 -0.00026799999999998114
v 1.22409 -0.312915 -0.00026699999999998085
v -1.291906 0.897472 0.06331299999999994
v -1.294283 0.713733 -0.007763000000000043
v -1.313277 0.704041 0.05127599999999996
v -1.226862 0.61846 0.03885199999999996
v -1.297652 0.861928 0.10792799999999994
v -1.190422 0.62493 0.03230799999999996
v -1.154447 0.736853 -0.027404000000000046
v -1.122398 0.898516 0.03622999999999994
v -1.190715 0.879757 0.09668499999999994
v -1.190422 0.62493 0.03230799999999996
v -1.201484 0.913023 0.050581999999999946
v -1.291906 0.897472 0.06331299999999994
v -0.051787 -1.227764 0.42746500000000004
v 0.374224 -1.094185 0.4274430000000001
v 0.332448 -0.962439 0.41417200000000004
v -0.093541 -1.096087 0.41417200000000004
v -0.051787 -1.227764 0.42746500000000004
v -0.067938 -1.213484 0.6007190000000001
v 0.359231 -1.0814 0.5923580000000002
v 0.319875 -0.956498 0.5831830000000001
v -0.106573 -1.089315 0.5831830000000001
v -0.067938 -1.213484 0.6007190000000001
v -0.089403 -1.217196 0.7615970000000001
v 0.337731 -1.084111 0.7763670000000001
v 0.298452 -0.960226 0.7617280000000001
v -0.128678 -1.093056 0.7469350000000001
v -0.089403 -1.217196 0.7615970000000001
v -0.356788 -1.330619 0.2984220000000001
v -0.366579 -1.302482 0.7447980000000001
v -0.385778 -1.173226 0.7447980000000001
v -0.379151 -1.189078 0.2984220000000001
v -0.356788 -1.330619 0.2984220000000001
v -0.236635 -1.295487 0.2984220000000001
v -0.246493 -1.267555 0.7447980000000001
v -0.366579 -1.302482 0.7447980000000001
v -0.356788 -1.330619 0.2984220000000001
v -0.236635 -1.295487 0.2984220000000001
v -0.503731 -1.381711 0.31657200000000013
v -0.532376 -1.351911 0.7620620000000001
v -0.554349 -1.223218 0.7609250000000001
v -0.528319 -1.240743 0.3152980000000001
v -0.503731 -1.381711 0.31657200000000013
v -0.388287 -1.347714 0.32254900000000003
v -0.420626 -1.319094 0.7678490000000001
v -0.532376 -1.351911 0.7620620000000001
v -0.503731 -1.381711 0.31657200000000013
v -0.388287 -1.347714 0.32254900000000003
v 0.804695 1.051378 0.17040999999999995
v 0.749989 1.131489 -0.00027600000000006927
v 0.691907 1.032738 -0.00028100000000006326
v 0.804695 1.051378 0.17040999999999995
v 0.853335 1.150569 -0.0002730000000000705
v 1.276638 -0.937347 0.22966800000000007
v 1.301407 -0.931815 0.2901250000000001
v 1.249872 -0.960323 0.2951520000000001
v 1.249014 -0.944712 0.23043600000000006
v 1.276638 -0.937347 0.22966800000000007
v 1.219994 -0.914596 0.2901250000000001
v 1.260775 -0.909072 0.23005200000000006
v 1.084454 -0.93633 0.22966600000000006
v 1.09416 -0.958594 0.2901250000000001
v 1.053067 -0.916168 0.2951520000000001
v 1.070177 -0.911515 0.23043500000000006
v 1.084454 -0.93633 0.22966600000000006
v 1.089698 -0.875503 0.2901250000000001
v 1.107569 -0.913698 0.23005100000000006
v 1.073088 -0.973597 0.20106800000000005
v 1.083504 -0.996524 0.21406800000000006
v 1.183794 -1.181372 -0.03383099999999993
v 1.178079 -1.003775 -0.03470799999999994
v 1.090783 -0.958422 0.08734500000000006
v 1.246982 -1.108186 -0.03485899999999993
v 1.073088 -0.973597 0.20106800000000005
v 1.183794 -1.181372 -0.03383099999999993
v 1.0694 -1.163029 -0.03423999999999993
v 1.083504 -0.996524 0.21406800000000006
v 1.047748 -0.993462 0.20367700000000005
v 0.988284 -1.056852 -0.035832999999999934
v 1.020372 -0.971748 0.07602300000000005
v 1.053919 -0.97514 -0.035194999999999935
v 1.031525 -1.002202 -0.035126999999999936
v 1.047748 -0.993462 0.20367700000000005
v 1.047748 -0.993462 0.20367700000000005
v 1.083504 -0.996524 0.21406800000000006
v 1.085861 -0.964854 0.27417400000000003
v 1.046311 -1.003171 0.27505900000000005
v 1.047748 -0.993462 0.20367700000000005
v 1.083504 -0.996524 0.21406800000000006
v 1.011022 -0.96123 0.25434400000000007
v 1.052817 -0.926884 0.24440400000000007
v 1.073088 -0.973597 0.20106800000000005
v -0.098855 0.601994 0.842729
v -0.714011 0.4153 0.06319199999999997
v -0.646251 0.19203 0.06319199999999998
v -0.031095 0.37872400000000006 0.842729
v -0.716369 -1.425498 -0.009849999999999913
v -0.597116 -1.378839 -0.009849999999999914
v -0.681515 -1.293249 0.21944500000000008
v -0.551376 -1.245784 -0.009839999999999923
v -0.289282 -0.41683499999999996 0.595982
v -0.001206 -0.32596299999999995 0.595982
v 0.038378 -0.45006299999999994 0.815325
v -0.250595 -0.541256 0.815325
v 0.918618 -1.419016 -0.005442999999999913
v 0.915972 -1.447992 0.4555250000000001
v 0.916419 -1.468565 0.4572330000000001
v 0.918853 -1.438775 -0.003736999999999912
v 0.434252 -0.91761 0.8150430000000001
v -0.664607 -1.259833 0.8150430000000001
v -0.688969 -1.31335 -0.0002679999999999196
v 0.468436 -0.948049 -0.0002669999999999419
v -1.149495 -0.062093 -0.002045999999999996
v -1.130627 -0.165126 -0.00204599999999999
v -1.048738 -0.11070399999999998 0.168647
v -1.030919 -0.222604 -0.0020379999999999864
v 1.152656 -1.001443 -0.035527999999999935
v 1.096906 -0.995278 0.12932500000000005
v 1.034981 -0.995879 -0.035528999999999936
v 1.084454 -0.93633 0.22966600000000006
v -0.894763 -0.04226399999999998 0.369975
v -0.869944 -0.04399099999999996 0.692397
v -0.844884 -0.04882599999999996 0.690512
v -0.868816 -0.04730699999999998 0.368106
v 1.228753 -0.298724 -0.0002669999999999817
v 1.218238 -0.34228 0.287092
v 1.213601 -0.356468 0.287092
v 1.22409 -0.312915 -0.00026699999999998085
v 1.221905 -0.305841 -0.0002669999999999813
v 1.377632 -0.800809 -0.00025599999999995093
v 1.389576 -0.760072 0.3018060000000001
v 1.211065 -0.349434 0.254448
v 1.221934 -0.305313 -0.0002669999999999813
v 1.211081 -0.349157 0.254448
v 1.389595 -0.759721 0.3018060000000001
v 1.377654 -0.800378 -0.000255999999999951
v 1.399801 -0.756985 0.33686400000000005
v 1.392409 -0.795614 -0.00025599999999995125
v 1.378173 -0.790953 -0.0002569999999999516
v 1.385675 -0.752393 0.33686400000000005
v 1.372316 -0.766301 0.45496300000000006
v 1.385467 -0.827111 -0.0002549999999999494
v 1.403296 -0.818092 -0.00025499999999994993
v 1.389712 -0.757592 0.45496300000000006
v -1.360733 0.475697 0.18500999999999998
v -1.326873 0.493707 -0.0002890000000000302
v -1.320133 0.480501 -0.00029100000000002946
v -1.354037 0.462656 0.18499999999999997
v -1.351602 0.476627 0.3031209999999999
v -1.31863 0.51703 -0.00028700000000003164
v -1.316083 0.499557 -0.00028900000000003055
v -1.34911 0.459393 0.30310699999999996
v -0.391765 1.328328 0.32317099999999993
v -0.400284 1.292362 -0.00021300000000007915
v -0.417445 1.297152 -0.00021300000000007942
v -0.408993 1.333365 0.32316599999999995
v -0.402415 1.31369 0.2281549999999999
v -1.206552 1.398456 0.36198399999999986
v -1.182663 1.33647 -0.00023600000000008182
v -0.412484 1.287678 -0.00021300000000007885
v -1.213521 1.42479 0.4542249999999999
v -1.180512 1.349 -0.0002380000000000826
v -1.196738 1.341573 -0.00023800000000008217
v -1.229524 1.417309 0.4542279999999999
v -1.020171 -0.974101 -0.00028299999999994036
v -0.998914 -0.971192 0.6339770000000001
v -1.139717 -0.522034 0.633977
v -1.160948 -0.527887 -0.0002819999999999677
v 0.300288 -0.49459999999999993 0.815043
v 0.299857 -0.49420299999999995 0.934498
v 0.222701 -0.25275299999999995 0.934785
v 0.221903 -0.25485599999999997 0.814182
v 0.359128 -1.092983 0.41625000000000006
v 0.357177 -1.085702 0.49892200000000003
v 0.398532 -1.215875 0.5121930000000001
v 0.381297 -1.163649 0.3749140000000001
v -0.044575 -1.297528 0.3749140000000001
v -0.027518 -1.349628 0.5122150000000001
v -0.069015 -1.218935 0.49892200000000003
v -0.066856 -1.226614 0.41625000000000006
v -0.027518 -1.349628 0.5122150000000001
v 0.398532 -1.215875 0.5121930000000001
v 0.357177 -1.085702 0.49892200000000003
v -0.069015 -1.218935 0.49892200000000003
v -0.044575 -1.297528 0.3749140000000001
v 0.381297 -1.163649 0.3749140000000001
v 0.398532 -1.215875 0.5121930000000001
v -0.027518 -1.349628 0.5122150000000001
v 0.36463 -1.075981 0.5799240000000001
v 0.36737 -1.07262 0.6625550000000001
v 0.408714 -1.20056 0.6740490000000001
v 0.384087 -1.143268 0.5377080000000001
v -0.041739 -1.276575 0.5561250000000001
v -0.01728 -1.334386 0.6924970000000001
v -0.058845 -1.205471 0.6809890000000001
v -0.061368 -1.208901 0.5983490000000001
v -0.01728 -1.334386 0.6924970000000001
v 0.408714 -1.20056 0.6740490000000001
v 0.36737 -1.07262 0.6625550000000001
v -0.058845 -1.205471 0.6809890000000001
v -0.041739 -1.276575 0.5561250000000001
v 0.384087 -1.143268 0.5377080000000001
v 0.408714 -1.20056 0.6740490000000001
v -0.01728 -1.334386 0.6924970000000001
v 0.333296 -0.965605 0.3315000000000001
v 0.332448 -0.962439 0.41417200000000004
v 0.374224 -1.094185 0.4274430000000001
v 0.355099 -1.034912 0.29016400000000003
v -0.07063 -1.169091 0.29016400000000003
v -0.051787 -1.227764 0.42746500000000004
v -0.093541 -1.096087 0.41417200000000004
v -0.092499 -1.099656 0.3315000000000001
v -0.07063 -1.169091 0.29016400000000003
v 0.355099 -1.034912 0.29016400000000003
v 0.374224 -1.094185 0.4274430000000001
v -0.051787 -1.227764 0.42746500000000004
v 0.32077 -0.959839 0.5005110000000002
v 0.319875 -0.956498 0.5831830000000001
v 0.359231 -1.0814 0.5923580000000002
v 0.342012 -1.027053 0.45917600000000003
v -0.0841 -1.160419 0.45917600000000003
v -0.067938 -1.213484 0.6007190000000001
v -0.106573 -1.089315 0.5831830000000001
v -0.105459 -1.093018 0.5005110000000002
v -0.0841 -1.160419 0.45917600000000003
v 0.342012 -1.027053 0.45917600000000003
v 0.359231 -1.0814 0.5923580000000002
v -0.067938 -1.213484 0.6007190000000001
v 0.300995 -0.960768 0.6790950000000001
v 0.298452 -0.960226 0.7617280000000001
v 0.337731 -1.084111 0.7763670000000001
v 0.322407 -1.023594 0.6384750000000001
v -0.103871 -1.156287 0.6237120000000002
v -0.089403 -1.217196 0.7615970000000001
v -0.128678 -1.093056 0.7469350000000001
v -0.125461 -1.093446 0.6643250000000002
v -0.103871 -1.156287 0.6237120000000002
v 0.322407 -1.023594 0.6384750000000001
v 0.337731 -1.084111 0.7763670000000001
v -0.089403 -1.217196 0.7615970000000001
v -0.385778 -1.173226 0.7447980000000001
v -0.366579 -1.302482 0.7447980000000001
v -0.246493 -1.267555 0.7447980000000001
v -0.306959 -1.148719 0.7447980000000001
v -0.306959 -1.148719 0.7447980000000001
v -0.246493 -1.267555 0.7447980000000001
v -0.236635 -1.295487 0.2984220000000001
v -0.300303 -1.164231 0.2984220000000001
v -0.554349 -1.223218 0.7609250000000001
v -0.532376 -1.351911 0.7620620000000001
v -0.420626 -1.319094 0.7678490000000001
v -0.478207 -1.199401 0.7648670000000001
v -0.478207 -1.199401 0.7648670000000001
v -0.420626 -1.319094 0.7678490000000001
v -0.388287 -1.347714 0.32254900000000003
v -0.449606 -1.215905 0.31937400000000005
v 0.703599 0.49620400000000003 1.097537
v 0.41416 0.6688450000000001 1.097533
v 0.417226 0.6700150000000001 0.933914
v 0.703835 0.49468500000000004 0.933913
v 0.535546 0.8508220000000001 0.933913
v 0.534989 0.8496370000000001 1.097501
v 0.813612 0.6709240000000001 1.097536
v 0.810514 0.6694520000000002 0.933914
v 0.417226 0.6700150000000001 0.933914
v 0.41416 0.6688450000000001 1.097533
v 0.534989 0.8496370000000001 1.097501
v 0.535546 0.8508220000000001 0.933913
v 0.703835 0.49468500000000004 0.933913
v 0.810514 0.6694520000000002 0.933914
v 0.813612 0.6709240000000001 1.097536
v 0.703599 0.49620400000000003 1.097537
v 0.41416 0.6688450000000001 1.097533
v 0.703599 0.49620400000000003 1.097537
v 0.813612 0.6709240000000001 1.097536
v 0.534989 0.8496370000000001 1.097501
v 0.804695 1.051378 0.17040999999999995
v 0.874848 1.057422 -0.0002760000000000647
v 0.853335 1.150569 -0.0002730000000000705
v 0.814854 0.965781 -0.0002780000000000591
v 0.782285 0.9906560000000001 0.9344979999999999
v 1.159396 -0.22135499999999994 0.934498
v 1.21501 -0.230299 -0.0002669999999999859
v 0.806769 1.064175 -0.0002750000000000652
v 0.330245 -0.509187 -0.0002739999999999688
v 0.300288 -0.49459999999999993 0.815043
v 0.434252 -0.91761 0.8150430000000001
v 0.468436 -0.948049 -0.0002669999999999419
v -0.083652 0.7163540000000002 0.934498
v -0.125747 0.770484 -0.0002840000000000472
v -0.010578 0.405051 -0.0006760000000000248
v 0.019966 0.38993200000000006 0.935456
v -0.751707 0.171226 -0.0010750000000000104
v -0.749441 0.14929100000000006 0.935055
v 0.019966 0.38993200000000006 0.935456
v -0.010578 0.405051 -0.0006760000000000248
v 0.782285 0.9906560000000001 0.9344979999999999
v 0.806769 1.064175 -0.0002750000000000652
v -0.125747 0.770484 -0.0002840000000000472
v -0.083652 0.7163540000000002 0.934498
v -1.06197 0.801119 0.18797099999999994
v -1.221168 1.101587 0.18827399999999994
v -1.223788 1.112785 0.002928999999999932
v -1.063564 0.807107 0.0028899999999999508
v -1.028076 1.215139 0.0029249999999999255
v -1.025298 1.204867 0.18822899999999992
v -0.865673 0.900689 0.18803099999999995
v -0.867686 0.908081 0.0028999999999999443
v -1.223788 1.112785 0.002928999999999932
v -1.221168 1.101587 0.18827399999999994
v -1.025298 1.204867 0.18822899999999992
v -1.028076 1.215139 0.0029249999999999255
v -1.063564 0.807107 0.0028899999999999508
v -0.867686 0.908081 0.0028999999999999443
v -0.865673 0.900689 0.18803099999999995
v -1.06197 0.801119 0.18797099999999994
v -1.221168 1.101587 0.18827399999999994
v -1.06197 0.801119 0.18797099999999994
v -0.865673 0.900689 0.18803099999999995
v -1.025298 1.204867 0.18822899999999992
v -0.646052 0.936871 0.18800899999999995
v -0.937981 1.115993 0.18828299999999995
v -0.940908 1.127729 0.002929999999999931
v -0.647859 0.943582 0.002893999999999942
v -0.822851 1.314786 0.0029169999999999192
v -0.820334 1.305445 0.18819599999999992
v -0.52603 1.116689 0.18819999999999995
v -0.52884 1.127175 0.002917999999999931
v -0.940908 1.127729 0.002929999999999931
v -0.937981 1.115993 0.18828299999999995
v -0.820334 1.305445 0.18819599999999992
v -0.822851 1.314786 0.0029169999999999192
v -0.647859 0.943582 0.002893999999999942
v -0.52884 1.127175 0.002917999999999931
v -0.52603 1.116689 0.18819999999999995
v -0.646052 0.936871 0.18800899999999995
v -0.937981 1.115993 0.18828299999999995
v -0.646052 0.936871 0.18800899999999995
v -0.52603 1.116689 0.18819999999999995
v -0.820334 1.305445 0.18819599999999992
v 0.813678 0.8351390000000001 1.048446
v 1.114086 -0.12843899999999994 1.048438
v 1.128272 -0.18354899999999993 0.933955
v 0.794775 0.8879410000000001 0.933955
v 0.781327 0.8248250000000001 1.048424
v 1.096424 -0.19381299999999996 0.933955
v 1.081816 -0.13881199999999994 1.048416
v 0.762869 0.8777140000000001 0.933955
v 0.657371 0.8932550000000001 1.048433
v 0.016938 0.6917200000000001 1.048438
v -0.034301 0.6769030000000001 0.933955
v 0.705034 0.9100710000000001 0.9339549999999999
v 0.646373 0.9284880000000001 1.048413
v -0.04531 0.7117290000000001 0.933955
v 0.005921 0.7265800000000001 1.048419
v 0.694082 0.9453180000000001 0.9339549999999999
v -0.607102 -1.226251 0.8100950000000001
v 0.348193 -0.9295359999999999 0.9441750000000001
v -0.555962 -1.211092 0.9441750000000001
v 0.402325 -0.912068 0.8100950000000001
v -0.566525 -1.17765 0.9441560000000001
v 0.337463 -0.8959879999999999 0.944156
v -0.6176 -1.193034 0.8100950000000001
v 0.391644 -0.87869 0.810095
v -0.646939 -1.149473 0.8100950000000001
v -0.937675 -0.20480299999999996 0.944175
v -0.659956 -1.099146 0.9441750000000001
v -0.958686 -0.14900699999999995 0.810095
v -0.69198 -1.109336 0.9441560000000001
v -0.969398 -0.21495799999999995 0.944156
v -0.679845 -1.159867 0.8100950000000001
v -0.991302 -0.15942799999999993 0.810095
v 1.034496 0.573051 0.26216999999999996
v 1.021413 0.586465 0.32688799999999996
v 1.071434 0.563854 0.32186299999999995
v 1.043711 0.536795 0.26178599999999996
v -1.226862 0.61846 0.03885199999999996
v -1.234983 0.553646 0.028557999999999965
v -1.194442 0.561645 0.06499299999999997
v -1.190422 0.62493 0.03230799999999996
v 1.073088 -0.973597 0.20106800000000005
v 1.052817 -0.926884 0.24440400000000007
v 1.085861 -0.964854 0.27417400000000003
v 1.083504 -0.996524 0.21406800000000006
v 0.078194 -0.576508 0.815325
v 0.077957 -0.577037 0.695843
v -0.210316 -0.667992 0.695843
v -0.210739 -0.667665 0.815325
v -0.289282 -0.41683499999999996 0.595982
v -0.210316 -0.667992 0.695843
v 0.077957 -0.577037 0.695843
v -0.001206 -0.32596299999999995 0.595982
v 0.078194 -0.576508 0.815325
v 0.038378 -0.45006299999999994 0.815325
v -0.001206 -0.32596299999999995 0.595982
v 0.077957 -0.577037 0.695843
v -0.812308 -0.908596 -0.00027799999999994436
v -0.779308 -0.901593 0.683098
v -0.998914 -0.971192 0.6339770000000001
v -1.020171 -0.974101 -0.00028299999999994036
v -0.953105 -0.46239 -0.0002779999999999717
v -1.160948 -0.527887 -0.0002819999999999677
v -1.139717 -0.522034 0.633977
v -0.923083 -0.45348399999999994 0.682284
v -0.768403 -0.935937 0.6882610000000001
v -0.933684 -0.41883999999999993 0.687446
v -1.17326 -0.4944799999999999 0.634297
v -1.010649 -1.012619 0.6342970000000001
v -0.699566 0.005802 -0.0006720000000000003
v -1.068445 -0.110475 -0.0002779999999999932
v -1.01677 -0.12941899999999995 0.815043
v -0.692972 -0.02669399999999995 0.815043
v 0.782285 0.9906560000000001 0.9344979999999999
v -0.083652 0.7163540000000002 0.934498
v 0.299857 -0.49420299999999995 0.934498
v 1.159396 -0.22135499999999994 0.934498
v 1.078804 0.390188 0.321863
v 1.136291 0.379079 0.32689
v 1.115667 0.370561 0.261787
v 1.130018 0.324678 0.321863
v 1.109663 0.338873 0.261403
v 1.219994 -0.914596 0.2901250000000001
v 1.271298 -0.885706 0.2951520000000001
v 1.260775 -0.909072 0.23005200000000006
v 1.301407 -0.931815 0.2901250000000001
v 1.276638 -0.937347 0.22966800000000007
v 1.294724 -0.80551 -0.036379999999999954
v 1.197248 -0.859332 -0.03552899999999994
v 1.260775 -0.909072 0.23005200000000006
v 1.357766 -0.886657 -0.03552699999999995
v 1.276638 -0.937347 0.22966800000000007
v 1.321897 -0.998925 -0.03552699999999994
v 1.276638 -0.937347 0.22966800000000007
v 1.249014 -0.944712 0.23043600000000006
v 1.226976 -1.041358 -0.03637899999999994
v 1.170944 -0.964634 -0.035527999999999935
v 1.089698 -0.875503 0.2901250000000001
v 1.130686 -0.917568 0.2951520000000001
v 1.107569 -0.913698 0.23005100000000006
v 1.09416 -0.958594 0.2901250000000001
v 1.084454 -0.93633 0.22966600000000006
v 1.381331 -0.774523 0.35984900000000003
v 1.390873 -0.817829 -0.0002559999999999499
v 1.282822 -1.316506 -0.0002609999999999194
v 1.315964 -1.304006 0.35724000000000006
v 0.911507 -1.428592 -0.0002639999999999125
v 0.91099 -1.447339 0.3589680000000001
v -0.402389 1.31387 0.2281549999999999
v -0.412368 1.288429 -0.0002130000000000789
v -1.206494 1.398889 0.3619829999999999
v -1.182616 1.336782 -0.00023600000000008185
v -1.19752 1.372259 0.21279199999999993
v 0.330245 -0.509187 -0.0002739999999999688
v 1.21501 -0.230299 -0.0002669999999999859
v 1.159396 -0.22135499999999994 0.934498
v 0.300288 -0.49459999999999993 0.815043
v 0.299857 -0.49420299999999995 0.934498
v 1.038959 -0.259045 -0.0002809999999999841
v 1.099694 -0.371007 -0.0002859999999999773
v 1.08378 -0.257455 0.14309600000000003
v 1.18496 -0.342302 -0.000282999999999979
v 1.145884 -0.242611 0.14315000000000003
v 1.187256 -0.223441 -0.00027699999999998635
v 0.597286 0.972199 0.00030299999999994047
v 0.49638 1.291469 0.0003459999999999209
v 0.460458 1.260564 0.4976499999999999
v 0.55978 0.946423 0.4974199999999999
v 0.406188 1.24175 0.5826509999999999
v 0.506644 0.923472 0.5825939999999998
v 0.302457 1.208704 0.6177859999999998
v 0.403523 0.888717 0.617777
v 0.197402 1.175975 0.5826479999999999
v 0.298039 0.857882 0.582594
v 0.140791 1.160096 0.49763499999999994
v 0.240351 0.845955 0.49741499999999994
v 0.09444 1.164967 0.00034499999999992864
v 0.19534 0.845572 0.00030199999999994825
v -1.068445 -0.110475 -0.0002779999999999932
v -0.953105 -0.46239 -0.0002779999999999717
v -0.923083 -0.45348399999999994 0.682284
v -1.01677 -0.12941899999999995 0.815043
v -0.779308 -0.901593 0.683098
v -0.664607 -1.259833 0.8150430000000001
v -0.688969 -1.31335 -0.0002679999999999196
v -0.812308 -0.908596 -0.00027799999999994436
v 0.221903 -0.25485599999999997 0.814182
v 0.040183 -0.31181899999999996 0.81389
v 0.038378 -0.45006299999999994 0.815325
v 0.300288 -0.49459999999999993 0.815043
v 0.078194 -0.576508 0.815325
v 0.434252 -0.91761 0.8150430000000001
v -0.210739 -0.667665 0.815325
v -0.664607 -1.259833 0.8150430000000001
v -0.250595 -0.541256 0.815325
v -1.01677 -0.12941899999999995 0.815043
v -0.692972 -0.02669399999999995 0.815043
v -0.331837 -0.42897799999999997 0.81389
v -0.804905 -0.04287399999999996 0.654631
v -0.804082 -0.04184499999999998 0.331339
v -0.828076 -0.03047799999999998 0.331339
v -0.828433 -0.03175099999999996 0.654711
v -0.836291 -0.043699999999999954 0.792247
v -0.867553 -0.031356999999999954 0.749677
v -0.856105 -0.03681799999999995 0.841528
v -0.789565 -0.06514499999999994 0.908481
v -0.908538 -0.041543999999999956 0.680114
v -0.912063 -0.04098599999999998 0.356822
v -0.937289 -0.04894499999999998 0.356822
v -0.932575 -0.04917999999999996 0.680194
v -0.92769 -0.06275299999999995 0.817731
v -0.958582 -0.07480299999999995 0.77516
v -0.945118 -0.07074799999999995 0.867011
v -0.880041 -0.047084999999999946 0.933965
v 0.09654 0.839564 0.679186
v 0.083368 0.838849 0.35547399999999996
v 0.063019 0.821692 0.3563779999999999
v 0.076124 0.822349 0.680174
v 0.085946 0.818101 0.821438
v 0.059429 0.791013 0.776926
v 0.069602 0.804747 0.868179
v 0.124995 0.8589350000000001 0.932367
v 0.054175 0.804115 0.648405
v 0.04842 0.824296 0.3251049999999999
v 0.023025 0.816307 0.32510399999999995
v 0.028764 0.796113 0.648485
v 0.033299 0.781549 0.789329
v -0.000693 0.768994 0.743452
v 0.012128 0.773292 0.835302
v 0.082536 0.798637 0.902255
v 1.099201 0.447775 -0.003786000000000027
v 1.056487 0.428891 -0.0037870000000000265
v 1.061463 0.416802 0.16105599999999998
v 1.115667 0.370561 0.261787
v 1.208516 0.42636 -0.004635000000000026
v 1.204629 0.323827 -0.00378500000000002
v 1.109663 0.338873 0.261403
v 1.08289 0.273993 0.16105599999999998
v 1.104798 0.260856 -0.003787000000000016
v 1.083819 0.350887 0.262171
v 1.013467 0.362139 0.16105499999999998
v 1.115667 0.370561 0.261787
v 1.061463 0.416802 0.16105599999999998
v 1.011128 0.384006 -0.0037880000000000236
v 1.056487 0.428891 -0.0037870000000000265
v -0.002213 0.79785 0.669567
v 0.015904 0.818004 0.34673099999999996
v -0.009422 0.810016 0.34485699999999997
v -0.027565 0.789845 0.667773
v -0.033519 0.775399 0.80856
v -0.064024 0.762772 0.760302
v -0.058064 0.767185 0.852844
v 0.007239 0.7926280000000001 0.92481
v -0.267515 -0.34204799999999996 1.085317
v -0.331837 -0.42897799999999997 0.81389
v -0.292049 -0.55454 0.815043
v -0.208803 -0.5278729999999999 1.085888
v -0.181927 -0.25556499999999993 1.207921
v -0.106294 -0.49597299999999994 1.207724
v 0.160974 0.32152300000000006 1.207998
v 0.138545 0.42705200000000004 0.934874
v -0.749441 0.14929100000000006 0.935055
v -0.712648 0.04721600000000008 1.207965
v 0.219159 0.11379700000000008 1.317107
v -0.646672 -0.1622919999999999 1.317106
v 0.295867 -0.10470799999999993 1.207951
v -0.57786 -0.38023199999999996 1.207881
v -0.556516 -0.45564599999999994 1.087276
v 0.325568 -0.17802699999999994 1.087293
v -0.545287 -0.49587599999999993 0.935055
v 0.222701 -0.25275299999999995 0.934785
v 0.342571 -0.21643599999999993 0.934776
v -0.54472 -0.49601199999999995 0.815043
v 0.221903 -0.25485599999999997 0.814182
v -0.80566 -0.06675299999999995 0.942195
v -0.863704 -0.05776499999999995 0.829841
v -0.880139 -0.056226999999999944 0.880433
v -0.899643 -0.05365799999999995 0.789749
v -0.869944 -0.04399099999999996 0.692397
v -0.844884 -0.04882599999999996 0.690512
v 1.39175 -0.817911 -0.0002559999999999499
v 1.381531 -0.774541 0.35984900000000003
v 1.316249 -1.304035 0.35724000000000006
v 1.283209 -1.316539 -0.0002609999999999194
v 0.916077 -1.455891 0.21064600000000008
v 0.911272 -1.447365 0.3589680000000001
v 0.911843 -1.428623 -0.0002639999999999125
v -1.334896 0.476508 0.20799599999999996
v -1.310061 0.508195 -0.0002880000000000311
v -1.337852 1.027358 -0.00020900000000006292
v -1.362296 1.029779 0.35795599999999994
v -1.199376 1.368374 0.21111699999999992
v -1.185498 1.334453 -0.0002360000000000817
v -1.211614 1.394086 0.35937799999999986
v -1.310621 0.508862 -0.0002880000000000312
v -1.335027 0.476662 0.20799599999999996
v -1.36248 1.030005 0.35795499999999997
v -1.338131 1.02785 -0.002615000000000063
v -1.199662 1.368732 0.21111599999999991
v -1.211799 1.394318 0.3593769999999999
v -1.185716 1.334718 -0.0002360000000000817
v 1.096424 -0.19381299999999996 0.933955
v 1.128272 -0.18354899999999993 0.933955
v 1.114086 -0.12843899999999994 1.048438
v 1.081816 -0.13881199999999994 1.048416
v 0.781327 0.8248250000000001 1.048424
v 0.813678 0.8351390000000001 1.048446
v 0.794775 0.8879410000000001 0.933955
v 0.762869 0.8777140000000001 0.933955
v -0.04531 0.7117290000000001 0.933955
v -0.034301 0.6769030000000001 0.933955
v 0.016938 0.6917200000000001 1.048438
v 0.005921 0.7265800000000001 1.048419
v 0.646373 0.9284880000000001 1.048413
v 0.657371 0.8932550000000001 1.048433
v 0.705034 0.9100710000000001 0.9339549999999999
v 0.694082 0.9453180000000001 0.9339549999999999
v 0.402325 -0.912068 0.8100950000000001
v 0.391644 -0.87869 0.810095
v 0.337463 -0.8959879999999999 0.944156
v 0.348193 -0.9295359999999999 0.9441750000000001
v -0.555962 -1.211092 0.9441750000000001
v -0.566525 -1.17765 0.9441560000000001
v -0.6176 -1.193034 0.8100950000000001
v -0.607102 -1.226251 0.8100950000000001
v -0.958686 -0.14900699999999995 0.810095
v -0.991302 -0.15942799999999993 0.810095
v -0.969398 -0.21495799999999995 0.944156
v -0.937675 -0.20480299999999996 0.944175
v -0.659956 -1.099146 0.9441750000000001
v -0.69198 -1.109336 0.9441560000000001
v -0.679845 -1.159867 0.8100950000000001
v -0.646939 -1.149473 0.8100950000000001
v 1.034496 0.573051 0.26216999999999996
v 1.043711 0.536795 0.26178599999999996
v 1.117836 0.576222 -0.003786000000000035
v 1.088607 0.632914 -0.0037870000000000386
v 1.008603 0.641746 0.16104699999999997
v 0.999866 0.667668 -0.004641000000000041
v 1.015246 0.552042 0.26140199999999997
v 0.965249 0.523646 0.16105399999999997
v 0.942494 0.580644 -0.0037900000000000355
v 1.034496 0.573051 0.26216999999999996
v 0.949252 0.515546 -0.0037890000000000315
v -0.004147 -0.4632009999999999 1.085892
v -0.106294 -0.49597299999999994 1.207724
v -0.208803 -0.5278729999999999 1.085888
v 0.079567 -0.4372809999999999 0.815043
v -0.250595 -0.541256 0.815325
v -0.292049 -0.55454 0.815043
v 0.406188 1.24175 0.5826509999999999
v 0.460458 1.260564 0.4976499999999999
v 0.49638 1.291469 0.0003459999999999209
v 0.09444 1.164967 0.00034499999999992864
v 0.197402 1.175975 0.5826479999999999
v 0.140791 1.160096 0.49763499999999994
v 0.302457 1.208704 0.6177859999999998
v -0.181927 -0.25556499999999993 1.207921
v -0.106294 -0.49597299999999994 1.207724
v -0.004147 -0.4632009999999999 1.085892
v -0.062616 -0.2775599999999999 1.085322
v 0.040183 -0.31181899999999996 0.81389
v 0.079567 -0.4372809999999999 0.815043
v 0.342571 -0.21643599999999993 0.934776
v 0.138545 0.42705200000000004 0.934874
v 0.325568 -0.17802699999999994 1.087293
v 0.219159 0.11379700000000008 1.317107
v 0.295867 -0.10470799999999993 1.207951
v 0.160974 0.32152300000000006 1.207998
v 1.117836 0.576222 -0.003786000000000035
v 1.043711 0.536795 0.26178599999999996
v 1.069506 0.432157 -0.004638000000000027
v 1.003134 0.461784 0.16105499999999998
v 0.972591 0.466617 -0.0037890000000000285
v 1.015246 0.552042 0.26140199999999997
v -0.751707 0.171226 -0.0010750000000000104
v -0.699566 0.005802 -0.0006720000000000003
v -0.693038 -0.026677999999999952 0.814944
v -0.749507 0.14930300000000005 0.934957
v -0.712713 0.04721900000000007 1.207866
v -0.646738 -0.16228099999999993 1.317007
v -0.556583 -0.45563699999999996 1.087177
v -0.57786 -0.38023199999999996 1.207881
v -0.545287 -0.49587599999999993 0.935055
v -0.544784 -0.49600199999999994 0.814945
v -0.747479 -0.35142499999999993 0.923998
v -0.698147 -0.509382 0.812039
v -0.62583 -0.43504699999999996 0.812039
v -0.624558 -0.31127699999999997 0.812039
v -0.796659 -0.48920199999999997 0.812039
v -0.696429 -0.21113099999999996 0.812039
v -0.865612 -0.3876899999999999 0.812039
v -0.797702 -0.19230399999999995 0.812039
v -0.866628 -0.26506899999999994 0.812039
v -0.576062 -0.7632099999999999 0.923998
v -0.430764 -0.717744 0.812039
v -0.506605 -0.626712 0.812039
v -0.622184 -0.615559 0.812039
v -0.441012 -0.835041 0.812039
v -0.707363 -0.690404 0.812039
v -0.529794 -0.909819 0.8120390000000001
v -0.714498 -0.807738 0.812039
v -0.642367 -0.898736 0.812039
vt 0.214336 0.289934
vt 0.214287 0.249910
vt 0.241297 0.324784
vt 0.660085 0.247525
vt 0.661238 0.122739
vt 0.618084 0.164264
vt 0.618084 0.164264
vt 0.606709 0.161065
vt 0.660085 0.247525
vt 0.675669 0.139847
vt 0.681194 0.169918
vt 0.661238 0.122739
vt 0.681090 0.250068
vt 0.680914 0.222622
vt 0.685543 0.240864
vt 0.086073 0.219821
vt 0.074044 0.210968
vt 0.087501 0.199059
vt 0.088929 0.042395
vt 0.080096 0.049419
vt 0.073226 0.060193
vt 0.214287 0.249910
vt 0.228943 0.249909
vt 0.241297 0.324784
vt 0.105930 0.184762
vt 0.068662 0.152281
vt 0.074563 0.131115
vt 0.088298 0.289100
vt 0.093572 0.289019
vt 0.051290 0.289100
vt 0.659893 0.593471
vt 0.648407 0.639859
vt 0.634694 0.551996
vt 0.635152 0.665066
vt 0.634694 0.551996
vt 0.428278 0.270749
vt 0.372005 0.270750
vt 0.372005 0.265567
vt 0.428278 0.265566
vt 0.428278 0.270749
vt 0.660085 0.247525
vt 0.610740 0.208984
vt 0.621897 0.196945
vt 0.677135 0.226220
vt 0.621897 0.196945
vt 0.621897 0.196945
vt 0.681575 0.200860
vt 0.681194 0.169918
vt 0.681194 0.169918
vt 0.661238 0.122739
vt 0.621188 0.172188
vt 0.621188 0.172188
vt 0.619811 0.135827
vt 0.621188 0.172188
vt 0.606709 0.161065
vt 0.659893 0.593471
vt 0.648407 0.639859
vt 0.634694 0.551996
vt 0.635152 0.665066
vt 0.634694 0.551996
vt 0.113448 0.005939
vt 0.198848 0.005938
vt 0.198848 0.007768
vt 0.113448 0.007769
vt 0.113448 0.005939
vt 0.073226 0.060193
vt 0.086523 0.011439
vt 0.088929 0.042395
vt 0.109080 0.068880
vt 0.083328 0.062771
vt 0.109325 0.124820
vt 0.105930 0.184762
vt 0.074563 0.131115
vt 0.082590 0.108953
vt 0.109325 0.124820
vt 0.072314 0.107140
vt 0.073226 0.060193
vt 0.313385 0.169889
vt 0.368139 0.169883
vt 0.368140 0.214290
vt 0.313385 0.214291
vt 0.313385 0.169889
vt 0.255556 0.274622
vt 0.310370 0.272762
vt 0.310436 0.317944
vt 0.255681 0.317945
vt 0.255556 0.274622
vt 0.255519 0.169784
vt 0.310274 0.169778
vt 0.310274 0.214186
vt 0.255520 0.214186
vt 0.255519 0.169784
vt 0.586113 0.247391
vt 0.586113 0.119908
vt 0.604372 0.119908
vt 0.604372 0.247391
vt 0.586113 0.247391
vt 0.572064 0.247391
vt 0.572064 0.119908
vt 0.586113 0.119908
vt 0.586113 0.247391
vt 0.572064 0.247391
vt 0.532266 0.250246
vt 0.532266 0.122762
vt 0.550745 0.122762
vt 0.550745 0.250246
vt 0.532266 0.250246
vt 0.518643 0.250246
vt 0.518643 0.122762
vt 0.532266 0.122762
vt 0.532266 0.250246
vt 0.518643 0.250246
vt 0.634694 0.551996
vt 0.620236 0.645421
vt 0.607633 0.599637
vt 0.634694 0.551996
vt 0.635152 0.665066
vt 0.688144 0.229360
vt 0.686253 0.210924
vt 0.693768 0.216528
vt 0.691789 0.230979
vt 0.688144 0.229360
vt 0.698403 0.239752
vt 0.693824 0.242815
vt 0.688144 0.229360
vt 0.686253 0.210924
vt 0.693768 0.216528
vt 0.691789 0.230979
vt 0.688144 0.229360
vt 0.698403 0.239752
vt 0.693824 0.242815
vt 0.569105 0.804795
vt 0.573910 0.832634
vt 0.570338 0.991872
vt 0.551799 0.920803
vt 0.558041 0.816261
vt 0.558648 0.977053
vt 0.569105 0.804795
vt 0.570338 0.991872
vt 0.586489 0.990738
vt 0.573910 0.832634
vt 0.587149 0.835014
vt 0.599647 0.958660
vt 0.600574 0.864690
vt 0.605504 0.916332
vt 0.603572 0.937937
vt 0.587149 0.835014
vt 0.587149 0.835014
vt 0.583585 0.816083
vt 0.580358 0.801087
vt 0.589847 0.810815
vt 0.590338 0.826777
vt 0.583585 0.816083
vt 0.598147 0.831844
vt 0.598732 0.851377
vt 0.592191 0.840713
vt 0.344824 0.781336
vt 0.344357 0.918435
vt 0.325862 0.918175
vt 0.326329 0.781076
vt 0.635152 0.665066
vt 0.620236 0.645421
vt 0.634694 0.551996
vt 0.607633 0.599637
vt 0.048947 0.225210
vt 0.085608 0.225110
vt 0.088298 0.289100
vt 0.051290 0.289100
vt 0.428278 0.276361
vt 0.372005 0.276362
vt 0.372005 0.270750
vt 0.428278 0.270749
vt 0.291403 0.762264
vt 0.432795 0.762264
vt 0.435858 0.995223
vt 0.288315 0.995223
vt 0.635152 0.665066
vt 0.620236 0.645421
vt 0.634694 0.551996
vt 0.607633 0.599637
vt 0.661238 0.122739
vt 0.619811 0.135827
vt 0.660085 0.247525
vt 0.610740 0.208984
vt 0.366138 0.738173
vt 0.326425 0.738318
vt 0.326425 0.726197
vt 0.366138 0.725827
vt 0.113448 0.004142
vt 0.198848 0.004142
vt 0.198848 0.005938
vt 0.113448 0.005939
vt 0.696508 0.119427
vt 0.759891 0.119408
vt 0.755920 0.205699
vt 0.701061 0.192156
vt 0.825740 0.144384
vt 0.821159 0.217114
vt 0.766309 0.230658
vt 0.762346 0.144368
vt 0.532813 0.270992
vt 0.491823 0.270993
vt 0.491823 0.266732
vt 0.532813 0.266731
vt 0.433795 0.260647
vt 0.490068 0.260647
vt 0.490068 0.266425
vt 0.433795 0.266425
vt 0.552295 0.479772
vt 0.552295 0.425261
vt 0.553966 0.425261
vt 0.553966 0.479772
vt 0.004717 0.011043
vt 0.041397 0.011043
vt 0.041397 0.016216
vt 0.004717 0.016216
vt 0.006030 0.032956
vt 0.047020 0.032956
vt 0.047020 0.038118
vt 0.006030 0.038118
vt 0.762351 0.009136
vt 0.878092 0.009136
vt 0.878092 0.138849
vt 0.762351 0.138849
vt 0.372005 0.265567
vt 0.428278 0.265566
vt 0.428278 0.270749
vt 0.372005 0.270750
vt 0.780642 0.721049
vt 0.780642 0.539910
vt 0.838059 0.539910
vt 0.838059 0.721049
vt 0.363127 0.323399
vt 0.363058 0.366853
vt 0.324097 0.366643
vt 0.324536 0.323077
vt 0.251995 0.375893
vt 0.251995 0.399504
vt 0.233280 0.401786
vt 0.243212 0.364087
vt 0.359838 0.220326
vt 0.368678 0.259538
vt 0.351056 0.255742
vt 0.351056 0.232131
vt 0.495687 0.123596
vt 0.495688 0.251079
vt 0.476196 0.251080
vt 0.476196 0.123596
vt 0.455914 0.123596
vt 0.455914 0.251080
vt 0.434004 0.251079
vt 0.434001 0.123596
vt 0.312149 0.375130
vt 0.312149 0.398741
vt 0.293435 0.401024
vt 0.303367 0.363324
vt 0.329831 0.268751
vt 0.338670 0.307964
vt 0.321049 0.304167
vt 0.321049 0.280557
vt 0.431008 0.121605
vt 0.431010 0.249089
vt 0.411517 0.249089
vt 0.411517 0.121606
vt 0.391235 0.121606
vt 0.391235 0.249090
vt 0.371283 0.249089
vt 0.371281 0.121606
vt 0.312898 0.370397
vt 0.304116 0.358592
vt 0.310381 0.322731
vt 0.321680 0.358592
vt 0.340564 0.267111
vt 0.331725 0.227898
vt 0.349346 0.231695
vt 0.349346 0.255306
vt 0.313385 0.119848
vt 0.368139 0.119847
vt 0.368139 0.169883
vt 0.313385 0.169889
vt 0.253255 0.369036
vt 0.244472 0.357231
vt 0.251504 0.321646
vt 0.262037 0.357230
vt 0.292670 0.370807
vt 0.284170 0.330383
vt 0.301452 0.335391
vt 0.301452 0.359002
vt 0.255681 0.223503
vt 0.310436 0.223502
vt 0.310370 0.272762
vt 0.255556 0.274622
vt 0.321391 0.265889
vt 0.312608 0.254084
vt 0.318874 0.218223
vt 0.330173 0.254084
vt 0.272492 0.369812
vt 0.263653 0.330599
vt 0.281275 0.334396
vt 0.281275 0.358006
vt 0.255519 0.119744
vt 0.310274 0.119743
vt 0.310274 0.169778
vt 0.255519 0.169784
vt 0.254250 0.398758
vt 0.258981 0.362934
vt 0.274481 0.377875
vt 0.263032 0.410563
vt 0.553667 0.119908
vt 0.572064 0.119908
vt 0.572064 0.247391
vt 0.553667 0.247391
vt 0.274088 0.398405
vt 0.279262 0.362625
vt 0.294028 0.377224
vt 0.282870 0.410210
vt 0.500041 0.122762
vt 0.518643 0.122762
vt 0.518643 0.250246
vt 0.500041 0.250246
vt 0.209968 0.015994
vt 0.252726 0.015994
vt 0.252726 0.062715
vt 0.209968 0.062715
vt 0.140470 0.062715
vt 0.140461 0.015559
vt 0.183219 0.015835
vt 0.183229 0.062715
vt 0.113135 0.062715
vt 0.113095 0.015994
vt 0.140461 0.015559
vt 0.140470 0.062715
vt 0.209968 0.062715
vt 0.183229 0.062715
vt 0.183219 0.015835
vt 0.209968 0.015994
vt 0.003991 0.186672
vt 0.046749 0.187314
vt 0.046609 0.250429
vt 0.003850 0.250154
vt 0.634694 0.551996
vt 0.648407 0.639859
vt 0.635152 0.665066
vt 0.659893 0.593471
vt 0.005435 0.728938
vt 0.164039 0.728938
vt 0.167084 0.994873
vt 0.002373 0.994873
vt 0.438044 0.995947
vt 0.435000 0.762986
vt 0.489667 0.762987
vt 0.492710 0.995947
vt 0.870686 0.726604
vt 0.872697 0.993210
vt 0.828026 0.993365
vt 0.827984 0.726642
vt 0.728216 0.992791
vt 0.728216 0.725436
vt 0.824938 0.725595
vt 0.821875 0.992677
vt 0.995147 0.727002
vt 0.997620 0.993162
vt 0.880564 0.992956
vt 0.883693 0.726805
vt 0.209960 0.128119
vt 0.252718 0.128070
vt 0.252729 0.180834
vt 0.209971 0.180883
vt 0.140175 0.180962
vt 0.140164 0.128203
vt 0.182922 0.128155
vt 0.182934 0.180914
vt 0.113138 0.180993
vt 0.113087 0.128229
vt 0.140164 0.128203
vt 0.140175 0.180962
vt 0.209971 0.180883
vt 0.182934 0.180914
vt 0.182922 0.128155
vt 0.209960 0.128119
vt 0.004201 0.048961
vt 0.046960 0.049007
vt 0.046972 0.111958
vt 0.004214 0.112006
vt 0.210141 0.067077
vt 0.252899 0.067028
vt 0.252910 0.119793
vt 0.210152 0.119841
vt 0.140313 0.119936
vt 0.140301 0.067176
vt 0.183103 0.067113
vt 0.183114 0.119872
vt 0.113233 0.119986
vt 0.113180 0.067222
vt 0.140301 0.067176
vt 0.140313 0.119936
vt 0.210152 0.119841
vt 0.183114 0.119872
vt 0.183103 0.067113
vt 0.210141 0.067077
vt 0.003922 0.117422
vt 0.046680 0.117468
vt 0.046693 0.180419
vt 0.003891 0.180482
vt 0.693873 0.493098
vt 0.565559 0.494449
vt 0.558576 0.461830
vt 0.700728 0.460334
vt 0.693386 0.514144
vt 0.558151 0.546830
vt 0.565070 0.514147
vt 0.700305 0.546830
vt 0.841321 0.200361
vt 0.923878 0.201166
vt 0.930738 0.233925
vt 0.834343 0.232985
vt 0.841466 0.184863
vt 0.930943 0.152175
vt 0.924024 0.184859
vt 0.834547 0.152177
vt 0.559024 0.254488
vt 0.682461 0.293057
vt 0.565927 0.292796
vt 0.689395 0.254780
vt 0.565545 0.317264
vt 0.682078 0.317261
vt 0.558625 0.355549
vt 0.688997 0.355549
vt 0.559596 0.361558
vt 0.683033 0.400130
vt 0.566499 0.399867
vt 0.689968 0.361853
vt 0.566656 0.418362
vt 0.683190 0.418360
vt 0.559737 0.456647
vt 0.690108 0.456647
vt 0.691789 0.230979
vt 0.693768 0.216528
vt 0.698403 0.239752
vt 0.693824 0.242815
vt 0.084925 0.182593
vt 0.069239 0.179067
vt 0.075835 0.165273
vt 0.088128 0.177038
vt 0.580886 0.821409
vt 0.574289 0.810647
vt 0.580358 0.801087
vt 0.583585 0.816083
vt 0.440212 0.405260
vt 0.459412 0.405338
vt 0.459327 0.518212
vt 0.440128 0.518134
vt 0.517503 0.518137
vt 0.459327 0.518212
vt 0.459412 0.405338
vt 0.517502 0.405263
vt 0.214421 0.404420
vt 0.214427 0.363826
vt 0.241203 0.329440
vt 0.229078 0.404419
vt 0.753999 0.721049
vt 0.751141 0.525881
vt 0.780642 0.539910
vt 0.780642 0.721049
vt 0.864703 0.721049
vt 0.838059 0.721049
vt 0.838059 0.539910
vt 0.867060 0.526113
vt 0.552905 0.613323
vt 0.486598 0.612147
vt 0.486595 0.536161
vt 0.552902 0.536148
vt 0.698911 0.992210
vt 0.651604 0.992210
vt 0.651604 0.759546
vt 0.695849 0.759546
vt 0.155672 0.717785
vt 0.154715 0.375996
vt 0.363058 0.373315
vt 0.363946 0.714658
vt 0.681090 0.250068
vt 0.680914 0.222622
vt 0.685543 0.240864
vt 0.686253 0.210924
vt 0.688144 0.229360
vt 0.681090 0.250068
vt 0.680914 0.222622
vt 0.685543 0.240864
vt 0.686253 0.210924
vt 0.688144 0.229360
vt 0.677135 0.226220
vt 0.660085 0.247525
vt 0.616319 0.202963
vt 0.681575 0.200860
vt 0.624290 0.180112
vt 0.681194 0.169918
vt 0.624290 0.180112
vt 0.618084 0.164264
vt 0.675669 0.139847
vt 0.661238 0.122739
vt 0.681090 0.250068
vt 0.680914 0.222622
vt 0.685543 0.240864
vt 0.686253 0.210924
vt 0.688144 0.229360
vt 0.512192 0.012450
vt 0.512192 0.117231
vt 0.444116 0.117231
vt 0.444116 0.012450
vt 0.387390 0.117231
vt 0.387390 0.012450
vt 0.996018 0.008081
vt 0.996018 0.138647
vt 0.880634 0.008081
vt 0.880634 0.138647
vt 0.880634 0.077913
vt 0.284795 0.995485
vt 0.171685 0.995396
vt 0.174261 0.729430
vt 0.287919 0.762529
vt 0.287919 0.729519
vt 0.826510 0.505311
vt 0.810240 0.534560
vt 0.808374 0.463870
vt 0.795182 0.535285
vt 0.794903 0.465600
vt 0.778469 0.511827
vt 0.944557 0.181356
vt 0.996500 0.181356
vt 0.996500 0.368035
vt 0.944557 0.368035
vt 0.996500 0.406635
vt 0.944557 0.406635
vt 0.996500 0.449640
vt 0.944557 0.449640
vt 0.996500 0.492645
vt 0.944557 0.492645
vt 0.996500 0.531245
vt 0.944557 0.531245
vt 0.996500 0.717925
vt 0.944557 0.717925
vt 0.650344 0.992210
vt 0.607484 0.992210
vt 0.607484 0.796817
vt 0.650344 0.759546
vt 0.550103 0.796817
vt 0.504817 0.759546
vt 0.498713 0.992210
vt 0.550103 0.992210
vt 0.482296 0.325458
vt 0.482285 0.389285
vt 0.461273 0.405346
vt 0.442070 0.323242
vt 0.440212 0.405260
vt 0.368312 0.322989
vt 0.440128 0.518134
vt 0.368427 0.752616
vt 0.461189 0.518220
vt 0.560408 0.753353
vt 0.560408 0.618343
vt 0.482177 0.534449
vt 0.326425 0.726197
vt 0.366138 0.725827
vt 0.366138 0.738173
vt 0.326425 0.738318
vt 0.308019 0.728816
vt 0.312511 0.742031
vt 0.301428 0.740229
vt 0.290750 0.737905
vt 0.326425 0.726197
vt 0.366138 0.725827
vt 0.366138 0.738173
vt 0.326425 0.738318
vt 0.308019 0.728816
vt 0.312511 0.742031
vt 0.301428 0.740229
vt 0.290750 0.737905
vt 0.326425 0.726197
vt 0.366138 0.725827
vt 0.366138 0.738173
vt 0.326425 0.738318
vt 0.308019 0.728816
vt 0.312511 0.742031
vt 0.301428 0.740229
vt 0.290750 0.737905
vt 0.326425 0.726197
vt 0.366138 0.725827
vt 0.366138 0.738173
vt 0.326425 0.738318
vt 0.308019 0.728816
vt 0.312511 0.742031
vt 0.301428 0.740229
vt 0.290750 0.737905
vt 0.660085 0.247525
vt 0.648876 0.249721
vt 0.619381 0.232321
vt 0.616319 0.202963
vt 0.677135 0.226220
vt 0.681575 0.200860
vt 0.624290 0.180112
vt 0.647166 0.169769
vt 0.681194 0.169918
vt 0.618084 0.164264
vt 0.632494 0.145608
vt 0.606709 0.161065
vt 0.619811 0.135827
vt 0.661238 0.122739
vt 0.650953 0.119050
vt 0.326425 0.726197
vt 0.366138 0.725827
vt 0.366138 0.738173
vt 0.326425 0.738318
vt 0.308019 0.728816
vt 0.312511 0.742031
vt 0.301428 0.740229
vt 0.290750 0.737905
vt 0.135777 0.250693
vt 0.090033 0.229313
vt 0.090209 0.193917
vt 0.135860 0.193883
vt 0.159812 0.274695
vt 0.159810 0.193907
vt 0.151154 0.608154
vt 0.151154 0.721236
vt 0.006108 0.721236
vt 0.006108 0.608154
vt 0.151154 0.511497
vt 0.006108 0.511497
vt 0.151144 0.414840
vt 0.006122 0.414840
vt 0.006071 0.361026
vt 0.151174 0.361017
vt 0.006426 0.301999
vt 0.127912 0.304855
vt 0.151148 0.303947
vt 0.006777 0.257114
vt 0.127801 0.259248
vt 0.290750 0.737905
vt 0.306970 0.729373
vt 0.301428 0.740229
vt 0.312511 0.742031
vt 0.326425 0.738318
vt 0.326425 0.726197
vt 0.256738 0.112840
vt 0.256738 0.013171
vt 0.327135 0.013171
vt 0.327135 0.112840
vt 0.384687 0.071712
vt 0.384687 0.013171
vt 0.384687 0.112840
vt 0.759364 0.010119
vt 0.759364 0.112189
vt 0.687597 0.112189
vt 0.687597 0.010119
vt 0.638492 0.072400
vt 0.638492 0.112189
vt 0.638492 0.010119
vt 0.515864 0.112310
vt 0.515864 0.011491
vt 0.587720 0.011491
vt 0.587731 0.112944
vt 0.636420 0.070240
vt 0.636420 0.011491
vt 0.636420 0.112310
vt 0.548810 0.509768
vt 0.548808 0.498936
vt 0.565070 0.498907
vt 0.565070 0.509749
vt 0.693386 0.509747
vt 0.693386 0.498911
vt 0.709648 0.498931
vt 0.709646 0.509762
vt 0.939772 0.187222
vt 0.939775 0.197809
vt 0.923512 0.197839
vt 0.923512 0.187241
vt 0.840954 0.187245
vt 0.840955 0.197836
vt 0.824692 0.197817
vt 0.824695 0.187229
vt 0.700660 0.300039
vt 0.700658 0.311013
vt 0.682078 0.310995
vt 0.682078 0.300016
vt 0.565545 0.300012
vt 0.565545 0.310998
vt 0.546964 0.311019
vt 0.546962 0.300044
vt 0.702204 0.404075
vt 0.702202 0.414907
vt 0.683622 0.414888
vt 0.683622 0.404053
vt 0.567088 0.404049
vt 0.567088 0.414891
vt 0.548508 0.414912
vt 0.548506 0.404080
vt 0.618084 0.164264
vt 0.606709 0.161065
vt 0.650953 0.119050
vt 0.661238 0.122739
vt 0.642471 0.154886
vt 0.675669 0.139847
vt 0.624290 0.180112
vt 0.647151 0.184565
vt 0.681194 0.169918
vt 0.618084 0.164264
vt 0.681632 0.187364
vt 0.083017 0.366372
vt 0.069794 0.401168
vt 0.056574 0.366373
vt 0.093572 0.289019
vt 0.051290 0.289100
vt 0.046016 0.289020
vt 0.906932 0.553127
vt 0.914074 0.577452
vt 0.919348 0.719425
vt 0.867669 0.719425
vt 0.880086 0.553127
vt 0.872943 0.577452
vt 0.893509 0.543080
vt 0.163621 0.274695
vt 0.163619 0.193907
vt 0.188147 0.193876
vt 0.188234 0.253272
vt 0.233979 0.229269
vt 0.233795 0.193873
vt 0.565838 0.749399
vt 0.565871 0.553833
vt 0.584545 0.737364
vt 0.611990 0.653602
vt 0.599342 0.715741
vt 0.598595 0.589476
vt 0.648876 0.249721
vt 0.616319 0.202963
vt 0.677135 0.226220
vt 0.646748 0.199511
vt 0.681575 0.200860
vt 0.624290 0.180112
vt 0.722595 0.986683
vt 0.701368 0.986569
vt 0.698322 0.753630
vt 0.722603 0.719349
vt 0.707697 0.641431
vt 0.679783 0.610256
vt 0.642103 0.675883
vt 0.651779 0.641420
vt 0.639046 0.721517
vt 0.636894 0.753632
vt 0.751779 0.376866
vt 0.751780 0.518251
vt 0.718032 0.476775
vt 0.704022 0.376866
vt 0.785528 0.476774
vt 0.718032 0.276957
vt 0.799538 0.376864
vt 0.751779 0.235479
vt 0.785527 0.276956
vt 0.861371 0.382020
vt 0.920331 0.382020
vt 0.903034 0.479024
vt 0.861371 0.519294
vt 0.903034 0.285017
vt 0.819708 0.479023
vt 0.861371 0.244746
vt 0.802411 0.382021
vt 0.819708 0.285017
vn 0.953714 0.300706 0.0023609999999999816
vn 0.953714 0.300706 0.0023609999999999816
vn 0.953714 0.300706 0.0023609999999999816
vn -0.822784 0.491636 0.28516699999999995
vn -0.939331 -0.18396299999999996 0.289507
vn -0.735249 -0.67 0.10251300000000005
vn -0.735249 -0.67 0.10251300000000005
vn 0.116839 0.991523 -0.05683200000000006
vn -0.822784 0.491636 0.28516699999999995
vn 0.012209 0.0011500000000000611 0.999925
vn 0.457781 0.506316 0.730808
vn 0.800275 -0.19191399999999997 0.568093
vn 0.901314 0.277846 -0.332318
vn 0.857963 -0.481496 -0.17905399999999996
vn 0.884852 -0.421417 0.19860800000000003
vn 0.0733 0.2902410000000001 0.954142
vn 0.756842 0.26133900000000004 0.599077
vn 0.554358 -0.030949999999999946 0.831703
vn -0.999121 -0.036044 0.021426000000000004
vn -0.786619 0.12454099999999996 -0.604748
vn -0.858373 0.4961 -0.13069000000000003
vn 0.953666 0.300856 0.002548999999999982
vn 0.953666 0.300856 0.002548999999999982
vn 0.953666 0.300856 0.002548999999999982
vn 0.945694 -0.06186900000000002 -0.319116
vn 0.709813 0.13166099999999994 -0.691976
vn 0.949714 0.19170800000000002 0.24757
vn -0.24307 0.770244 -0.589611
vn 0.269856 -0.855635 -0.4416629999999999
vn 0.272576 -0.854174 -0.44281899999999996
vn -0.889301 0.358336 0.284145
vn -0.93977 -0.012451999999999979 0.34158
vn -0.284541 -0.587004 0.757933
vn -0.341629 -0.79072 0.507987
vn -0.284541 -0.587004 0.757933
vn 0.055794 -0.996419 -0.06353699999999994
vn 0.874836 -0.4837 -0.02640099999999997
vn -0.450459 -0.890816 -0.059447999999999945
vn -0.439138 -0.896464 -0.059253999999999946
vn 0.055794 -0.996419 -0.06353699999999994
vn -0.637814 -0.734797 0.23079500000000006
vn -0.45772 -0.886903 0.062410000000000056
vn -0.748347 0.662615 0.030301999999999957
vn -0.93552 -0.00031799999999997835 0.353275
vn -0.748347 0.662615 0.030301999999999957
vn -0.748347 0.662615 0.030301999999999957
vn -0.420209 0.859024 0.2924069999999999
vn 0.457781 0.506316 0.730808
vn 0.457781 0.506316 0.730808
vn 0.800275 -0.19191399999999997 0.568093
vn 0.968077 0.018907999999999987 -0.24994
vn 0.968077 0.018907999999999987 -0.24994
vn 0.222665 -0.910466 0.34852900000000003
vn 0.968077 0.018907999999999987 -0.24994
vn -0.45772 -0.886903 0.062410000000000056
vn 0.516994 0.798023 0.30963999999999997
vn 0.165784 0.9138 0.37078999999999995
vn -0.48958 0.37514900000000007 0.787131
vn -0.691395 0.47585400000000005 0.543633
vn -0.48958 0.37514900000000007 0.787131
vn 0.151021 -0.978175 -0.14270799999999995
vn 0.711918 -0.697722 -0.07972399999999996
vn -0.305813 -0.93963 -0.15353699999999995
vn -0.305156 -0.939848 -0.15350999999999995
vn 0.151021 -0.978175 -0.14270799999999995
vn -0.858373 0.4961 -0.13069000000000003
vn -0.950445 0.12278199999999999 -0.285619
vn -0.999121 -0.036044 0.021426000000000004
vn -0.155875 -0.03045499999999994 0.987307
vn 0.012524 0.19708200000000006 0.980307
vn 0.554358 -0.030949999999999946 0.831703
vn 0.945694 -0.06186900000000002 -0.319116
vn 0.949714 0.19170800000000002 0.24757
vn 0.311017 0.37281000000000003 0.874232
vn 0.554358 -0.030949999999999946 0.831703
vn 0.042554 0.808256 0.587292
vn -0.858373 0.4961 -0.13069000000000003
vn 0.124124 -0.39582799999999996 0.909897
vn 0.298462 -0.949217 0.09953800000000006
vn -0.028611 0.09130400000000005 0.995412
vn -0.028674 0.09139400000000006 0.995402
vn 0.124124 -0.39582799999999996 0.909897
vn 0.126989 -0.38870699999999997 0.912568
vn 0.300746 -0.944381 0.13303000000000006
vn -0.021308 0.10003400000000005 0.994756
vn -0.039739 0.12759400000000007 0.99103
vn 0.126989 -0.38870699999999997 0.912568
vn 0.090145 -0.39096899999999996 0.915979
vn 0.292793 -0.951085 0.09853600000000005
vn -0.064532 0.09689200000000006 0.993201
vn -0.064527 0.09688600000000006 0.993202
vn 0.090145 -0.39096899999999996 0.915979
vn -0.802517 -0.596251 0.021262000000000038
vn -0.203922 -0.97733 0.056945000000000065
vn -0.988401 -0.151484 -0.01077799999999999
vn -0.987706 -0.156056 -0.00911999999999999
vn -0.802517 -0.596251 0.021262000000000038
vn 0.915416 -0.399685 0.04759900000000003
vn 0.917287 -0.395674 0.04501800000000002
vn -0.203922 -0.97733 0.056945000000000065
vn -0.802517 -0.596251 0.021262000000000038
vn 0.915416 -0.399685 0.04759900000000003
vn -0.793173 -0.608918 -0.009776999999999963
vn -0.201768 -0.978033 0.05235400000000006
vn -0.984055 -0.17029 -0.05135899999999999
vn -0.983782 -0.172052 -0.05069899999999999
vn -0.793173 -0.608918 -0.009776999999999963
vn 0.908442 -0.407369 0.09372200000000003
vn 0.909844 -0.404604 0.09208200000000002
vn -0.201768 -0.978033 0.05235400000000006
vn -0.793173 -0.608918 -0.009776999999999963
vn 0.908442 -0.407369 0.09372200000000003
vn 0.376181 0.49369500000000005 0.784062
vn -0.499042 0.711926 0.49408299999999994
vn -0.766565 0.45084700000000005 0.457291
vn 0.376181 0.49369500000000005 0.784062
vn 0.476112 0.694583 0.539326
vn 0.856037 -0.516234 0.02651100000000003
vn 0.929478 0.05698399999999998 -0.364449
vn -0.044505 -0.980189 -0.19300199999999995
vn -0.735249 -0.67 0.10251300000000005
vn 0.856037 -0.516234 0.02651100000000003
vn -0.894369 0.24181199999999997 -0.376339
vn 0.116839 0.991523 -0.05683200000000006
vn -0.45772 -0.886903 0.062410000000000056
vn 0.302176 -0.88544 -0.35310699999999995
vn -0.952008 -0.208843 -0.223752
vn -0.748347 0.662615 0.030301999999999957
vn -0.45772 -0.886903 0.062410000000000056
vn 0.005448 0.925192 -0.3794600000000001
vn 0.968077 0.018907999999999987 -0.24994
vn 0.853945 0.520208 0.012730999999999968
vn 0.598388 -0.730688 0.32867500000000005
vn 0.651922 -0.42269699999999993 0.629544
vn 0.734253 0.632747 0.24597499999999997
vn 0.656524 0.727519 0.19923099999999994
vn 0.813318 0.032535000000000036 0.580909
vn 0.853945 0.520208 0.012730999999999968
vn 0.651922 -0.42269699999999993 0.629544
vn -0.390441 -0.768469 0.506964
vn 0.598388 -0.730688 0.32867500000000005
vn -0.924789 -0.345172 -0.16006899999999996
vn -0.972004 0.03265000000000001 0.232683
vn -0.361095 -0.92904 -0.08058999999999994
vn -0.967368 -0.249502 -0.044126999999999986
vn -0.777105 0.628666 0.029783999999999963
vn -0.924789 -0.345172 -0.16006899999999996
vn -0.924789 -0.345172 -0.16006899999999996
vn 0.598388 -0.730688 0.32867500000000005
vn 0.996706 0.074526 -0.031983000000000004
vn -0.050901 -0.997996 0.03760300000000006
vn -0.924789 -0.345172 -0.16006899999999996
vn 0.598388 -0.730688 0.32867500000000005
vn -0.84087 -0.13368900000000003 -0.524466
vn -0.087411 0.671622 -0.735719
vn 0.853945 0.520208 0.012730999999999968
vn -0.738248 -0.22405099999999997 0.636232
vn -0.738248 -0.22405099999999997 0.636232
vn -0.738248 -0.22405099999999997 0.636232
vn -0.738248 -0.22405099999999997 0.636232
vn -0.341629 -0.79072 0.507987
vn 0.639953 -0.612395 0.46414700000000003
vn -0.284541 -0.587004 0.757933
vn 0.856038 -0.294309 0.424949
vn 0.258739 -0.819894 -0.510714
vn 0.258661 -0.819982 -0.510612
vn 0.258739 -0.819894 -0.510714
vn 0.258739 -0.819894 -0.510714
vn 0.999828 0.017351 0.006610999999999999
vn 0.999726 0.022292 0.007139999999999998
vn 0.874836 -0.4837 -0.02640099999999997
vn 0.055794 -0.996419 -0.06353699999999994
vn 0.298779 -0.952962 0.05093800000000005
vn 0.296919 -0.953391 0.053709000000000055
vn 0.298779 -0.952962 0.05093800000000005
vn 0.300636 -0.952522 0.048166000000000056
vn -0.691395 0.47585400000000005 0.543633
vn -0.707448 -0.500536 0.49898000000000003
vn -0.48958 0.37514900000000007 0.787131
vn -0.443879 -0.769944 0.45843000000000006
vn 0.800275 -0.19191399999999997 0.568093
vn 0.222665 -0.910466 0.34852900000000003
vn -0.637814 -0.734797 0.23079500000000006
vn -0.45772 -0.886903 0.062410000000000056
vn 0.189426 0.98185 -0.00937800000000006
vn 0.188757 0.98198 -0.00927100000000006
vn 0.189426 0.98185 -0.00937800000000006
vn 0.190095 0.98172 -0.00948400000000006
vn 0.950206 -0.311373 -0.012466999999999982
vn 0.950456 -0.310617 -0.012301999999999981
vn 0.711918 -0.697722 -0.07972399999999996
vn 0.151021 -0.978175 -0.14270799999999995
vn -0.934686 -0.355148 -0.015225999999999977
vn -0.951 -0.299202 0.07795600000000001
vn -0.934686 -0.355148 -0.015225999999999977
vn -0.907082 -0.406805 -0.10822499999999997
vn 0.934673 0.35517 0.015506999999999977
vn 0.906986 0.406896 0.10868399999999998
vn 0.934673 0.35517 0.015506999999999977
vn 0.951028 0.299139 -0.07785900000000001
vn 0.30811 0.944384 -0.11492200000000005
vn 0.309121 0.94405 -0.11495300000000006
vn 0.30811 0.944384 -0.11492200000000005
vn 0.307098 0.944717 -0.11489100000000005
vn 0.445654 -0.885556 0.13108100000000006
vn 0.447518 -0.884613 0.13110000000000005
vn 0.445654 -0.885556 0.13108100000000006
vn 0.443788 -0.886496 0.13106100000000007
vn -0.871731 -0.446154 -0.20256499999999997
vn -0.872221 -0.445158 -0.20264699999999997
vn -0.871731 -0.446154 -0.20256499999999997
vn -0.87124 -0.447149 -0.20248299999999997
vn -0.981782 -0.142486 -0.125703
vn -0.981688 -0.143104 -0.125739
vn -0.981782 -0.142486 -0.125703
vn -0.981876 -0.141867 -0.125668
vn 0.27298 0.955269 -0.11377200000000005
vn 0.267125 0.956958 -0.11347000000000006
vn 0.27298 0.955269 -0.11377200000000005
vn 0.278824 0.953544 -0.11406900000000006
vn -0.06968 -0.987764 0.13952300000000006
vn -0.076511 -0.983609 0.16327700000000006
vn -0.06968 -0.987764 0.13952300000000006
vn -0.062804 -0.991299 0.11568100000000006
vn -0.413114 0.892961 -0.17876800000000007
vn -0.409508 0.894587 -0.17893200000000006
vn -0.413114 0.892961 -0.17876800000000007
vn -0.416713 0.89132 -0.17860000000000006
vn -0.953387 -0.299828 0.03400600000000002
vn -0.953682 -0.298963 0.03333400000000002
vn -0.953387 -0.299828 0.03400600000000002
vn -0.953091 -0.300692 0.03467800000000002
vn -0.951519 -0.307556 0.004644000000000019
vn -0.952546 -0.304387 -0.002422999999999981
vn -0.951519 -0.307556 0.004644000000000019
vn -0.950434 -0.310707 0.011710000000000019
vn 0.953251 0.302145 -0.004486000000000019
vn 0.953175 0.302392 -0.0041390000000000185
vn 0.953251 0.302145 -0.004486000000000019
vn 0.953328 0.301898 -0.004834000000000018
vn -0.953354 -0.301834 0.0034080000000000187
vn -0.953212 -0.302281 0.0037190000000000187
vn -0.953354 -0.301834 0.0034080000000000187
vn -0.953497 -0.301388 0.0030970000000000186
vn 0.123914 -0.39443399999999995 0.910531
vn 0.296695 -0.944343 0.14208500000000004
vn -0.028854 0.09218800000000006 0.995323
vn -0.02879 0.09209500000000005 0.995334
vn 0.278273 -0.885826 -0.37131899999999995
vn 0.27839 -0.885565 -0.37185099999999993
vn 0.296695 -0.944343 0.14208500000000004
vn 0.123914 -0.39443399999999995 0.910531
vn 0.951834 0.30341 -0.04421800000000002
vn 0.951779 0.303627 -0.04390500000000002
vn 0.951834 0.30341 -0.04421800000000002
vn 0.951888 0.303193 -0.04453100000000002
vn -0.952166 -0.302692 0.041924000000000024
vn -0.951998 -0.303178 0.04222400000000002
vn -0.952166 -0.302692 0.041924000000000024
vn -0.952334 -0.302205 0.04162400000000002
vn 0.162948 -0.39366399999999996 0.904697
vn 0.301612 -0.948645 0.09541300000000005
vn 0.013793 0.09360500000000005 0.995514
vn 0.013956 0.09336600000000006 0.995534
vn 0.255912 -0.873262 -0.4146349999999999
vn 0.2557 -0.873904 -0.41341199999999995
vn 0.301612 -0.948645 0.09541300000000005
vn 0.162948 -0.39366399999999996 0.904697
vn 0.953365 0.301811 -0.0022130000000000188
vn 0.953274 0.302102 -0.0017840000000000184
vn 0.953365 0.301811 -0.0022130000000000188
vn 0.953456 0.30152 -0.0026410000000000188
vn -0.953461 -0.301514 0.0013510000000000184
vn -0.953274 -0.302102 0.0017320000000000185
vn -0.953461 -0.301514 0.0013510000000000184
vn -0.953647 -0.300926 0.0009700000000000185
vn 0.273344 -0.869543 -0.4113109999999999
vn 0.273744 -0.868546 -0.41314999999999996
vn 0.298462 -0.949217 0.09953800000000006
vn 0.124124 -0.39582799999999996 0.909897
vn 0.953639 0.300951 -0.0010280000000000185
vn 0.953809 0.300408 -0.0018170000000000185
vn 0.953639 0.300951 -0.0010280000000000185
vn 0.953468 0.301493 -0.00023900000000001847
vn -0.953955 -0.299948 -0.0008889999999999817
vn -0.954744 -0.29742 -0.002480999999999982
vn -0.953955 -0.299948 -0.0008889999999999817
vn -0.953158 -0.302473 0.0007030000000000185
vn 0.271592 -0.884538 -0.37925099999999995
vn 0.274596 -0.877348 -0.39351899999999995
vn 0.300746 -0.944381 0.13303000000000006
vn 0.126989 -0.38870699999999997 0.912568
vn 0.95179 0.30548 0.027897999999999982
vn 0.951944 0.305053 0.027297999999999982
vn 0.95179 0.30548 0.027897999999999982
vn 0.951635 0.305907 0.02849799999999998
vn -0.951817 -0.304627 -0.03530199999999998
vn -0.951644 -0.305206 -0.03496999999999998
vn -0.951817 -0.304627 -0.03530199999999998
vn -0.95199 -0.304048 -0.03563399999999998
vn 0.283911 -0.865865 -0.4119129999999999
vn 0.283835 -0.86603 -0.41161699999999996
vn 0.292793 -0.951085 0.09853600000000005
vn 0.090145 -0.39096899999999996 0.915979
vn -1E-06 6.123233995736766E-17 1
vn -2E-06 -1.9999999999387675E-06 1
vn -1E-06 6.123233995736766E-17 1
vn 0 2.0000000000612323E-06 1
vn 0.895528 0.444975 -0.005223000000000027
vn 0.917287 -0.395674 0.04501800000000002
vn 0.915416 -0.399685 0.04759900000000003
vn 0.899736 0.43643 -0.0017500000000000267
vn -0.05171 1.0000000000611504E-06 0.998662
vn -0.05171 1.0000000000611504E-06 0.998662
vn -0.05171 1.0000000000611504E-06 0.998662
vn -0.05171 1.0000000000611504E-06 0.998662
vn 0.902835 0.428124 0.03998599999999997
vn 0.909844 -0.404604 0.09208200000000002
vn 0.908442 -0.407369 0.09372200000000003
vn 0.905478 0.42226 0.04248999999999997
vn -0.517055 -0.855941 -0.004281999999999948
vn -0.512199 -0.858723 -0.015735999999999948
vn -0.517055 -0.855941 -0.004281999999999948
vn -0.521827 -0.853021 0.007173000000000052
vn 0.545259 0.838253 -0.004998000000000051
vn 0.539881 0.841704 0.007934999999999947
vn 0.545259 0.838253 -0.004998000000000051
vn 0.550523 0.834628 -0.017930000000000054
vn -0.834083 0.551614 -0.005246000000000034
vn -0.831357 0.555617 -0.011604000000000034
vn -0.834083 0.551614 -0.005246000000000034
vn -0.836755 0.547576 0.0011119999999999663
vn 0.849905 -0.526929 -0.002652999999999968
vn 0.853493 -0.520978 -0.011470999999999969
vn 0.849905 -0.526929 -0.002652999999999968
vn 0.84621 -0.532814 0.006165000000000033
vn -7E-06 9.800000000006123E-05 1
vn -7E-06 1.2000000000061232E-05 1
vn -7E-06 9.800000000006123E-05 1
vn -8E-06 0.00018300000000006123 1
vn 0.376181 0.49369500000000005 0.784062
vn 0.913815 -0.16828999999999997 0.369623
vn 0.476112 0.694583 0.539326
vn 0.795809 -0.520993 0.3086320000000001
vn 0.953021 0.298542 0.05123299999999998
vn 0.95346 0.296665 0.05388799999999998
vn 0.953021 0.298542 0.05123299999999998
vn 0.952571 0.300415 0.04857799999999998
vn 0.953177 0.301002 0.029189999999999983
vn 0.952917 0.301782 0.029613999999999984
vn 0.953177 0.301002 0.029189999999999983
vn 0.953435 0.300223 0.028766999999999984
vn -0.953132 -0.301447 0.025870000000000018
vn -0.953436 -0.300511 0.02553400000000002
vn -0.953132 -0.301447 0.025870000000000018
vn -0.952826 -0.302384 0.026205000000000016
vn -0.299616 0.953754 0.024145999999999942
vn -0.298434 0.954151 0.02307899999999994
vn -0.299616 0.953754 0.024145999999999942
vn -0.300797 0.953355 0.02521199999999994
vn -0.300496 0.951369 0.06781899999999995
vn -0.299725 0.95167 0.06699799999999995
vn -0.300496 0.951369 0.06781899999999995
vn -0.301268 0.951066 0.06863899999999995
vn -0.884615 -0.466178 -0.011590999999999973
vn -0.88353 -0.468108 -0.01579099999999997
vn -0.884615 -0.466178 -0.011590999999999973
vn -0.88568 -0.464237 -0.007389999999999971
vn 0.885874 0.463804 0.010666999999999972
vn 0.885414 0.464637 0.012485999999999973
vn 0.885874 0.463804 0.010666999999999972
vn 0.88633 0.462969 0.008847999999999972
vn -0.46414 0.883864 0.057954999999999944
vn -0.465572 0.882979 0.05992799999999995
vn -0.46414 0.883864 0.057954999999999944
vn -0.462706 0.884743 0.05598199999999994
vn 0.454988 -0.889746 -0.03658399999999994
vn 0.457825 -0.888122 -0.040436999999999945
vn 0.454988 -0.889746 -0.03658399999999994
vn 0.45214 -0.891347 -0.03272999999999995
vn 0.000307 -0.0006689999999999387 1
vn 0.000164 -0.0009209999999999388 1
vn 0.000307 -0.0006689999999999387 1
vn 0.000449 -0.00041699999999993874 1
vn -0.52721 -0.84899 -0.03557899999999995
vn -0.522466 -0.851437 -0.045660999999999945
vn -0.52721 -0.84899 -0.03557899999999995
vn -0.531886 -0.846432 -0.025492999999999946
vn 0.538521 0.841786 0.03729999999999995
vn 0.539536 0.841231 0.03507999999999995
vn 0.538521 0.841786 0.03729999999999995
vn 0.537502 0.842336 0.03951999999999995
vn -0.846826 0.530163 0.04256799999999997
vn -0.848589 0.526982 0.04676699999999997
vn -0.846826 0.530163 0.04256799999999997
vn -0.845038 0.533328 0.038367999999999965
vn 0.834913 -0.549213 -0.035850999999999966
vn 0.838313 -0.543453 -0.043466999999999964
vn 0.834913 -0.549213 -0.035850999999999966
vn 0.831427 -0.554917 -0.028230999999999964
vn 0.000202 -0.00043099999999993876 1
vn 0.000203 -0.001194999999999939 0.999999
vn 0.000202 -0.00043099999999993876 1
vn 0.000201 0.00033200000000006125 1
vn 0.954502 0.297332 -0.02277600000000002
vn 0.954382 0.297541 -0.02496900000000002
vn 0.954502 0.297332 -0.02277600000000002
vn 0.954618 0.297121 -0.020583000000000018
vn -0.954565 -0.297403 0.018913000000000017
vn -0.954565 -0.297403 0.018913000000000017
vn -0.954448 -0.297624 0.02120100000000002
vn -0.954677 -0.297181 0.016624000000000017
vn 0.300449 -0.953711 -0.012872999999999942
vn 0.300157 -0.953828 -0.01088899999999994
vn 0.300449 -0.953711 -0.012872999999999942
vn 0.300739 -0.953591 -0.01485599999999994
vn -0.300933 0.95356 0.012736999999999941
vn -0.300933 0.95356 0.012736999999999941
vn -0.300653 0.953672 0.010830999999999941
vn -0.301212 0.953445 0.01464299999999994
vn 0.297249 -0.954787 -0.0049309999999999415
vn 0.297249 -0.954787 -0.0049309999999999415
vn 0.297315 -0.954764 -0.005450999999999942
vn 0.297184 -0.95481 -0.004410999999999942
vn -0.29747 0.954724 0.0037769999999999414
vn -0.297422 0.95474 0.0033919999999999415
vn -0.297422 0.95474 0.0033919999999999415
vn -0.297373 0.954757 0.0030069999999999416
vn 0.954634 0.296953 -0.022196000000000018
vn 0.954634 0.296953 -0.022196000000000018
vn 0.954849 0.296508 -0.018590000000000016
vn 0.954406 0.297395 -0.02580100000000002
vn -0.954805 -0.296162 0.025207000000000018
vn -0.954552 -0.296627 0.029032000000000016
vn -0.954552 -0.296627 0.029032000000000016
vn -0.954285 -0.297088 0.03285800000000002
vn 0.511818 0.833394 0.20855799999999994
vn 0.400513 0.909947 -0.10763900000000005
vn 0.901314 0.277846 -0.332318
vn 0.884852 -0.421417 0.19860800000000003
vn -0.155875 -0.03045499999999994 0.987307
vn -0.664149 -0.03539099999999995 0.746762
vn 0.0733 0.2902410000000001 0.954142
vn 0.554358 -0.030949999999999946 0.831703
vn 0.853945 0.520208 0.012730999999999968
vn -0.087411 0.671622 -0.735719
vn 0.996706 0.074526 -0.031983000000000004
vn 0.598388 -0.730688 0.32867500000000005
vn -0.300883 0.953654 -0.0036500000000000586
vn -0.300893 0.953651 -0.0036210000000000586
vn -0.300883 0.953654 -0.0036500000000000586
vn -0.300872 0.953658 -0.0036790000000000585
vn -0.106703 0.33822300000000005 0.934997
vn -0.106711 0.33820900000000004 0.935001
vn -0.106703 0.33822300000000005 0.934997
vn -0.106696 0.33823800000000004 0.934993
vn -0.953953 -0.299944 0.002712000000000018
vn -0.953826 -0.30035 0.002202000000000018
vn -0.953953 -0.299944 0.002712000000000018
vn -0.954079 -0.299538 0.003221000000000018
vn 0.301833 -0.953346 -0.005285999999999942
vn 0.303105 -0.952945 -0.0048719999999999415
vn 0.301833 -0.953346 -0.005285999999999942
vn 0.30056 -0.953746 -0.005699999999999942
vn -0.301207 0.953558 0.0010489999999999417
vn -0.300557 0.953763 0.0012599999999999417
vn -0.301207 0.953558 0.0010489999999999417
vn -0.301857 0.953353 0.0008379999999999417
vn -0.197901 -0.06190999999999994 0.978265
vn -0.197589 -0.06161399999999994 0.978347
vn -0.197901 -0.06190999999999994 0.978265
vn -0.198213 -0.062205999999999935 0.978183
vn -0.301247 0.952674 0.04077999999999994
vn -0.300341 0.952943 0.04117699999999994
vn -0.301247 0.952674 0.04077999999999994
vn -0.302152 0.952404 0.04038399999999995
vn -0 6.123233995736766E-17 1
vn 0 6.123233995736766E-17 1
vn -0 6.123233995736766E-17 1
vn -0 6.123233995736766E-17 1
vn 0.20225 0.960771 -0.18977500000000005
vn 0.755834 0.574248 -0.31457100000000005
vn 0.653099 0.71163 0.25892999999999994
vn 0.938524 -0.12683300000000003 -0.321072
vn 0.73837 -0.611054 0.28534800000000005
vn -0.894369 0.24181199999999997 -0.376339
vn 0.206281 0.909893 -0.3599200000000001
vn 0.116839 0.991523 -0.05683200000000006
vn 0.929478 0.05698399999999998 -0.364449
vn 0.856037 -0.516234 0.02651100000000003
vn 0.179814 0.908919 0.37620899999999996
vn -0.822784 0.491636 0.28516699999999995
vn 0.116839 0.991523 -0.05683200000000006
vn 0.907153 0.270173 0.322614
vn 0.856037 -0.516234 0.02651100000000003
vn 0.574357 -0.768471 0.28207400000000005
vn 0.856037 -0.516234 0.02651100000000003
vn -0.735249 -0.67 0.10251300000000005
vn -0.242417 -0.905593 0.3480460000000001
vn -0.939331 -0.18396299999999996 0.289507
vn 0.005448 0.925192 -0.3794600000000001
vn 0.942429 0.03525999999999998 -0.332542
vn 0.968077 0.018907999999999987 -0.24994
vn 0.302176 -0.88544 -0.35310699999999995
vn -0.45772 -0.886903 0.062410000000000056
vn -0.985768 0.167133 0.01811699999999999
vn -0.976034 0.211485 -0.05129800000000002
vn -0.867759 0.496856 0.01133099999999997
vn -0.622568 0.780966 0.05000899999999995
vn -0.311229 0.950103 0.02100399999999994
vn -0.33307 0.941646 0.04866199999999994
vn 0.085676 0.989779 -0.11401000000000006
vn 0.073768 0.987482 -0.13941700000000007
vn -0.227434 0.960363 -0.16117500000000007
vn -0.392739 0.901761 -0.18050800000000006
vn -0.763357 0.626425 -0.15773000000000004
vn 0.299975 -0.95355 0.02753400000000006
vn 0.300521 -0.953393 0.02700200000000006
vn 0.300853 -0.953465 0.01977800000000006
vn 0.301014 -0.953483 0.016165000000000058
vn 0.302554 -0.953123 0.004262000000000058
vn -0.846424 -0.459166 0.26969200000000004
vn -0.369873 -0.747885 0.551237
vn -0.162874 -0.790801 0.590006
vn 0.546154 -0.603682 0.580761
vn 0.696673 -0.48605899999999996 0.527629
vn 0.961319 -0.018577999999999983 0.274809
vn 0.949869 0.300226 0.08725099999999998
vn 0.949877 0.300197 0.08726999999999999
vn 0.922795 0.291555 0.251882
vn 0.867994 0.274089 0.414079
vn 0.656198 0.20702500000000004 0.725634
vn 0.482123 0.15208800000000006 0.862802
vn 0.103137 0.03247500000000006 0.994137
vn -0.100051 -0.03172999999999994 0.994476
vn -0.477611 -0.15115199999999995 0.865471
vn -0.650951 -0.20632699999999995 0.730542
vn -0.865375 -0.274303 0.419385
vn -0.922144 -0.292081 0.253652
vn -0.949875 -0.300593 0.08591100000000002
vn -0.949993 -0.300124 0.08624800000000002
vn -0.951275 -0.304318 0.049660000000000024
vn -0.949265 -0.311121 0.04581300000000002
vn -0.950799 -0.30442 0.057535000000000024
vn -0.952681 -0.299875 0.049737000000000024
vn -0.954136 -0.295488 0.04808800000000002
vn -0.955461 -0.293039 0.03496300000000002
vn -0.955835 -0.289904 0.048321000000000024
vn -0.955419 -0.29114 0.04912100000000002
vn -0.001547 0.007308000000000062 0.999972
vn -0.004881 0.01044200000000006 0.999934
vn -0.000652 0.004991000000000061 0.999987
vn 0.001354 0.0016310000000000612 0.999998
vn 0.000824 3.200000000006123E-05 1
vn 0.000509 -0.00029499999999993876 1
vn -1.7E-05 -0.00046199999999993875 1
vn -0.000229 -0.00030099999999993874 1
vn 0.022078 0.019375000000000062 0.999569
vn -0.000289 0.00014600000000006123 1
vn 0.044617 0.038905000000000065 0.998246
vn 0.089215 0.07724400000000005 0.993013
vn 0.427466 0.90328 0.036848999999999944
vn 0.428115 0.903716 0.003968999999999945
vn 0.427774 0.903877 0.0039989999999999444
vn 0.368598 0.927065 0.06845799999999995
vn 0.351187 0.934485 0.058357999999999945
vn 0.301187 0.951986 0.05485099999999994
vn 0.363715 0.93137 0.016180999999999945
vn 0.373804 0.927274 0.020809999999999943
vn -0.301803 0.952607 0.03813099999999994
vn -0.300886 0.953647 0.004927999999999942
vn -0.301812 0.953354 0.005016999999999942
vn -0.363621 0.928825 0.07116099999999995
vn -0.382821 0.921771 0.06153799999999995
vn -0.432516 0.899681 0.059196999999999944
vn -0.371913 0.928072 0.019041999999999944
vn -0.362434 0.931726 0.022986999999999945
vn -0.643059 0.76483 0.03886699999999995
vn -0.643779 0.764819 0.024507999999999953
vn -0.643764 0.764832 0.024505999999999955
vn -0.687614 0.723983 0.055100999999999956
vn -0.697282 0.716529 0.019598999999999953
vn -0.7307 0.682405 0.020004999999999957
vn -0.684133 0.728698 -0.031016000000000044
vn -0.681422 0.731303 -0.029324000000000044
vn -0.299175 0.950916 0.07907699999999994
vn -0.299476 0.951904 0.06475099999999995
vn -0.299514 0.951892 0.06475499999999994
vn -0.356373 0.929693 0.09311499999999995
vn -0.367455 0.92828 0.05720299999999994
vn -0.411376 0.909754 0.05583699999999994
vn -0.349624 0.936862 0.007256999999999943
vn -0.346266 0.938093 0.009023999999999944
vn 0.037878 0.977515 0.20743499999999995
vn -0.561513 0.823843 0.07736699999999995
vn -0.483346 0.841308 0.24202799999999994
vn 0.653099 0.71163 0.25892999999999994
vn 0.72232 0.581951 0.3736129999999999
vn 0.830093 -0.474905 0.29225100000000004
vn 0.73837 -0.611054 0.28534800000000005
vn 0.325391 -0.868284 0.37443800000000005
vn 0.528476 -0.83782 0.13700500000000004
vn -0.631319 0.020568000000000048 0.77525
vn -0.631621 0.678247 0.37554799999999994
vn 0.653099 0.71163 0.25892999999999994
vn -0.483346 0.841308 0.24202799999999994
vn -0.725171 0.68324 0.08549799999999996
vn -0.561513 0.823843 0.07736699999999995
vn -0.304212 0.950932 0.05641299999999994
vn -0.303391 0.951922 0.042400999999999946
vn -0.303488 0.951891 0.042400999999999946
vn -0.362466 0.929667 0.06586599999999994
vn -0.370837 0.928251 0.028796999999999944
vn -0.414695 0.90964 0.024139999999999946
vn -0.349267 0.936814 -0.01981900000000006
vn -0.345945 0.938087 -0.01774200000000006
vn -0.860319 -0.270142 0.432289
vn -0.908212 -0.284978 0.306493
vn -0.907966 -0.285416 0.306815
vn -0.794953 -0.25001499999999993 0.552759
vn -0.716514 -0.22515899999999997 0.660235
vn -0.715544 -0.22565099999999996 0.66112
vn -0.244599 0.780227 0.575688
vn -0.277754 0.888202 0.36599099999999996
vn -0.278087 0.88744 0.36758299999999994
vn -0.194231 0.616204 0.763261
vn -0.051556 0.16405600000000006 0.985103
vn 0.045362 -0.14400699999999994 0.988536
vn 0.198111 -0.627564 0.752938
vn 0.198313 -0.62907 0.751627
vn 0.267169 -0.84842 0.4569520000000001
vn 0.280718 -0.899199 0.33561500000000005
vn 0.296648 -0.93877 0.17524300000000007
vn 0.29576 -0.945676 0.13499200000000006
vn 0.279711 -0.923168 0.2636720000000001
vn 0.300938 -0.953605 0.00857300000000006
vn 0.300055 -0.953809 0.014643000000000059
vn 0.130073 0.991431 0.012104999999999939
vn 0.109365 0.992662 0.05158199999999994
vn 0.119123 0.992843 0.00850499999999994
vn 0.055529 0.997082 0.05238399999999994
vn 0.099347 0.990531 0.09475899999999994
vn 0.195139 0.976727 0.08902599999999994
vn 0.985633 -0.167722 -0.01990699999999999
vn 0.991546 -0.122461 0.04288800000000001
vn 0.76836 -0.639977 0.007263000000000039
vn 0.608393 -0.78964 -0.07954599999999996
vn 0.326043 -0.945114 -0.02131999999999994
vn 0.333185 -0.940627 0.06486700000000005
vn 0.286546 -0.94941 -0.12850299999999995
vn 0.994391 0.042022000000000004 0.097061
vn 0.99059 0.053008000000000007 0.126179
vn 0.975215 -0.197406 0.09993100000000002
vn 0.961584 -0.258152 0.09334400000000001
vn 0.905145 -0.410134 0.11181600000000003
vn 0.888328 -0.4407 0.12906200000000004
vn 0.914623 -0.378851 0.14119700000000002
vn -0.995047 -0.03508200000000001 -0.093008
vn -0.992754 -0.017016000000000007 -0.118958
vn -0.977787 0.184201 -0.10001100000000002
vn -0.957664 0.273686 -0.08930600000000001
vn -0.905005 0.410559 -0.11139200000000003
vn -0.914749 0.378892 -0.14026800000000003
vn -0.88765 0.441883 -0.12968500000000002
vn 0.27431 -0.852693 0.44460000000000005
vn 0.274781 -0.852605 0.44447700000000007
vn 0.161017 -0.501771 0.849882
vn 0.160736 -0.501801 0.849918
vn -0.161637 0.504072 0.848401
vn -0.161309 0.504115 0.848438
vn -0.273646 0.855511 0.43956699999999993
vn -0.274195 0.855399 0.43944199999999994
vn -0.864363 -0.273092 0.422253
vn -0.864338 -0.273229 0.422216
vn -0.512591 -0.16161599999999995 0.843285
vn -0.512599 -0.16153399999999996 0.843297
vn 0.521153 0.16271800000000006 0.837808
vn 0.521107 0.16314000000000006 0.837754
vn 0.873411 0.272138 0.40385
vn 0.873543 0.271449 0.404028
vn 0.876773 0.280613 0.390545
vn 0.876779 0.280586 0.390551
vn 0.525654 0.16857500000000006 0.833829
vn 0.525652 0.16859200000000005 0.833827
vn -0.535444 -0.16876699999999994 0.827537
vn -0.535459 -0.16865799999999995 0.827549
vn -0.886038 -0.279835 0.369633
vn -0.886 -0.280011 0.369591
vn -0.278476 0.870434 0.40595099999999995
vn -0.27812 0.870515 0.40601999999999994
vn -0.166396 0.518979 0.838435
vn -0.166614 0.518942 0.838414
vn 0.170462 -0.539003 0.824875
vn 0.171008 -0.53893 0.824809
vn 0.281767 -0.889048 0.36083300000000007
vn 0.280892 -0.889238 0.36104900000000006
vn 0.511818 0.833394 0.20855799999999994
vn 0.884852 -0.421417 0.19860800000000003
vn 0.953255 0.12723000000000004 0.274077
vn 0.658478 0.713248 0.24017499999999994
vn -0.453759 0.817366 0.35498699999999994
vn -0.298332 0.940464 0.16286699999999996
vn -0.799956 -0.005548999999999964 0.600033
vn -0.915103 0.316969 0.24923399999999998
vn -0.948597 0.270678 0.16400399999999998
vn 0.511818 0.833394 0.20855799999999994
vn -0.98956 -0.102734 0.101078
vn 0.301316 -0.953524 -0.0009919999999999417
vn 0.301314 -0.953517 -0.0038619999999999414
vn 0.302044 -0.953294 -0.0003079999999999416
vn 0.269856 -0.855635 -0.4416629999999999
vn 0.272576 -0.854174 -0.44281899999999996
vn 0.305161 -0.952301 -3.099999999994169E-05
vn -0.29285 0.955686 0.030057999999999942
vn -0.270426 0.961899 0.040242999999999945
vn -0.285261 0.957712 0.03758699999999995
vn -0.308264 0.9506 0.03650099999999994
vn -0.308436 0.950828 0.028184999999999943
vn -0.324401 0.945095 0.039493999999999946
vn -0.300466 0.953741 0.009968999999999941
vn 0.716992 0.22643500000000003 0.65928
vn 0.716085 0.22474000000000002 0.660843
vn 0.829192 0.26219500000000007 0.493654
vn 0.829592 0.26280000000000003 0.49266
vn 0.907147 0.287127 0.307641
vn 0.906951 0.287535 0.307836
vn 0.952802 0.302093 0.03014199999999998
vn 0.953873 0.297867 0.037442999999999976
vn 0.950933 0.306547 0.04190099999999998
vn 0.952743 0.300815 0.04231699999999998
vn 0.949379 0.310926 0.04476199999999998
vn 0.95806 0.284843 0.03138199999999998
vn 0.953255 0.12723000000000004 0.274077
vn 0.884852 -0.421417 0.19860800000000003
vn 0.472968 -0.844658 0.25070900000000007
vn -0.062721 -0.915241 0.39799400000000007
vn -0.334553 -0.94175 0.03437700000000005
vn -0.799956 -0.005548999999999964 0.600033
vn -0.95343 -0.30158 -0.0045919999999999815
vn -0.953732 -0.300626 -0.004338999999999982
vn -0.953407 -0.301686 0.0011570000000000185
vn -0.953748 -0.300536 0.006614000000000018
vn -0.956597 -0.290712 0.020225000000000017
vn -0.952826 -0.303133 0.01528700000000002
vn -0.952561 -0.303986 0.01484700000000002
vn -0.948819 -0.314469 0.029198000000000023
vn -0.953985 -0.299847 0.0022030000000000183
vn -0.953549 -0.301215 -0.0036749999999999812
vn -0.008561 -0.002925999999999939 0.999959
vn 0.164407 -0.535706 0.828245
vn 0.57288 -0.22270499999999993 0.788804
vn 0.624259 0.19690200000000005 0.755996
vn -0.357203 -0.508927 0.783198
vn 0.338467 0.508615 0.791676
vn -0.640894 -0.20015199999999994 0.741076
vn -0.173129 0.529615 0.830382
vn -0.582558 0.21310900000000005 0.784354
vn -0.007617 -0.003496999999999939 0.999965
vn 0.565308 0.17721700000000007 0.805618
vn 0.276618 0.521366 0.807255
vn -0.1808 0.557766 0.810067
vn 0.524459 -0.27166999999999997 0.806932
vn -0.538843 0.26026600000000005 0.801193
vn 0.174197 -0.562329 0.808357
vn -0.58204 -0.18272799999999995 0.792364
vn -0.288099 -0.522169 0.802707
g 01
f 1/1/1 2/2/2 3/3/3
f 4/4/4 5/5/5 6/6/6
f 7/7/7 8/8/8 9/9/9
f 10/10/10 11/11/11 12/12/12
f 13/13/13 14/14/14 15/15/15
f 16/16/16 17/17/17 18/18/18
f 19/19/19 20/20/20 21/21/21
f 22/22/22 23/23/23 24/24/24
f 25/25/25 26/26/26 27/27/27
f 28/28/28 29/29/29 30/30/30
f 31/31/31 32/32/32 33/33/33
f 32/32/32 34/34/34 35/35/35
f 36/36/36 37/37/37 38/38/38
f 38/38/38 39/39/39 40/40/40
f 41/41/41 42/42/42 43/43/43
f 44/44/44 41/41/41 45/45/45
f 44/44/44 46/46/46 47/47/47
f 48/48/48 47/47/47 46/46/46
f 49/49/49 46/46/46 50/50/50
f 46/46/46 51/51/51 50/50/50
f 50/50/50 52/52/52 53/53/53
f 54/54/54 55/55/55 53/53/53
f 56/56/56 57/57/57 58/58/58
f 57/57/57 59/59/59 60/60/60
f 61/61/61 62/62/62 63/63/63
f 63/63/63 64/64/64 65/65/65
f 66/66/66 67/67/67 68/68/68
f 69/69/69 70/70/70 68/68/68
f 69/69/69 71/71/71 70/70/70
f 71/71/71 72/72/72 73/73/73
f 71/71/71 74/74/74 70/70/70
f 75/75/75 73/73/73 74/74/74
f 73/73/73 76/76/76 74/74/74
f 70/70/70 74/74/74 76/76/76
f 76/76/76 77/77/77 70/70/70
f 78/78/78 79/79/79 80/80/80
f 80/80/80 81/81/81 82/82/82
f 83/83/83 84/84/84 85/85/85
f 85/85/85 86/86/86 87/87/87
f 88/88/88 89/89/89 90/90/90
f 90/90/90 91/91/91 92/92/92
f 93/93/93 94/94/94 95/95/95
f 95/95/95 96/96/96 97/97/97
f 98/98/98 99/99/99 100/100/100
f 100/100/100 101/101/101 102/102/102
f 103/103/103 104/104/104 105/105/105
f 105/105/105 106/106/106 107/107/107
f 108/108/108 109/109/109 110/110/110
f 110/110/110 111/111/111 112/112/112
f 113/113/113 114/114/114 115/115/115
f 116/116/116 117/117/117 114/114/114
f 118/118/118 119/119/119 120/120/120
f 120/120/120 121/121/121 122/122/122
f 121/121/121 120/120/120 123/123/123
f 123/123/123 124/124/124 121/121/121
f 125/125/125 126/126/126 127/127/127
f 127/127/127 128/128/128 129/129/129
f 128/128/128 127/127/127 130/130/130
f 130/130/130 131/131/131 128/128/128
f 132/132/132 133/133/133 134/134/134
f 135/135/135 136/136/136 132/132/132
f 135/135/135 132/132/132 137/137/137
f 138/138/138 139/139/139 137/137/137
f 140/140/140 139/139/139 141/141/141
f 141/141/141 142/142/142 140/140/140
f 143/143/143 140/140/140 142/142/142
f 144/144/144 145/145/145 142/142/142
f 146/146/146 143/143/143 147/147/147
f 145/145/145 146/146/146 148/148/148
f 149/149/149 150/150/150 151/151/151
f 151/151/151 152/152/152 153/153/153
f 151/151/151 154/154/154 152/152/152
f 152/152/152 154/154/154 155/155/155
f 155/155/155 156/156/156 152/152/152
f 157/157/157 158/158/158 159/159/159
f 159/159/159 160/160/160 157/157/157
f 161/161/161 162/162/162 163/163/163
f 162/162/162 164/164/164 163/163/163
f 165/165/165 166/166/166 167/167/167
f 167/167/167 168/168/168 165/165/165
f 169/169/169 170/170/170 171/171/171
f 171/171/171 172/172/172 169/169/169
f 173/173/173 174/174/174 175/175/175
f 175/175/175 176/176/176 173/173/173
f 177/177/177 178/178/178 179/179/179
f 178/178/178 180/180/180 179/179/179
f 181/181/181 182/182/182 183/183/183
f 182/182/182 184/184/184 183/183/183
f 185/185/185 186/186/186 187/187/187
f 187/187/187 188/188/188 185/185/185
f 189/189/189 190/190/190 191/191/191
f 191/191/191 192/192/192 189/189/189
f 193/193/193 194/194/194 195/195/195
f 195/195/195 196/196/196 193/193/193
f 197/197/197 198/198/198 199/199/199
f 199/199/199 200/200/200 197/197/197
f 201/201/201 202/202/202 203/203/203
f 203/203/203 204/204/204 201/201/201
f 205/205/205 206/206/206 207/207/207
f 207/207/207 208/208/208 205/205/205
f 209/209/209 210/210/210 211/211/211
f 211/211/211 212/212/212 209/209/209
f 213/213/213 214/214/214 215/215/215
f 215/215/215 216/216/216 213/213/213
f 217/217/217 218/218/218 219/219/219
f 219/219/219 220/220/220 217/217/217
f 221/221/221 222/222/222 223/223/223
f 223/223/223 224/224/224 221/221/221
f 225/225/225 226/226/226 227/227/227
f 227/227/227 228/228/228 225/225/225
f 229/229/229 230/230/230 231/231/231
f 231/231/231 232/232/232 229/229/229
f 233/233/233 234/234/234 235/235/235
f 235/235/235 236/236/236 233/233/233
f 237/237/237 238/238/238 239/239/239
f 239/239/239 240/240/240 237/237/237
f 241/241/241 242/242/242 243/243/243
f 243/243/243 244/244/244 241/241/241
f 245/245/245 246/246/246 247/247/247
f 247/247/247 248/248/248 245/245/245
f 249/249/249 250/250/250 251/251/251
f 251/251/251 252/252/252 249/249/249
f 253/253/253 254/254/254 255/255/255
f 255/255/255 256/256/256 253/253/253
f 257/257/257 258/258/258 259/259/259
f 259/259/259 260/260/260 257/257/257
f 261/261/261 262/262/262 263/263/263
f 263/263/263 264/264/264 261/261/261
f 265/265/265 266/266/266 267/267/267
f 267/267/267 268/268/268 265/265/265
f 269/269/269 270/270/270 271/271/271
f 271/271/271 272/272/272 269/269/269
f 273/273/273 274/274/274 275/275/275
f 275/275/275 276/276/276 273/273/273
f 277/277/277 278/278/278 279/279/279
f 279/279/279 280/280/280 277/277/277
f 281/281/281 282/282/282 283/283/283
f 283/283/283 284/284/284 281/281/281
f 285/285/285 286/286/286 287/287/287
f 287/287/287 288/288/288 285/285/285
f 289/289/289 290/290/290 291/291/291
f 291/291/291 292/292/292 289/289/289
f 293/293/293 294/294/294 295/295/295
f 295/295/295 296/296/296 293/293/293
f 297/297/297 298/298/298 299/299/299
f 299/299/299 300/300/300 297/297/297
f 301/301/301 302/302/302 303/303/303
f 303/303/303 304/304/304 301/301/301
f 305/305/305 306/306/306 307/307/307
f 307/307/307 308/308/308 305/305/305
f 309/309/309 310/310/310 311/311/311
f 311/311/311 312/312/312 309/309/309
f 313/313/313 314/314/314 315/315/315
f 315/315/315 316/316/316 313/313/313
f 317/317/317 318/318/318 319/319/319
f 319/319/319 320/320/320 317/317/317
f 321/321/321 322/322/322 323/323/323
f 323/323/323 324/324/324 321/321/321
f 325/325/325 326/326/326 327/327/327
f 327/327/327 328/328/328 325/325/325
f 329/329/329 330/330/330 331/331/331
f 331/331/331 332/332/332 329/329/329
f 333/333/333 334/334/334 335/335/335
f 335/335/335 336/336/336 333/333/333
f 337/337/337 338/338/338 339/339/339
f 339/339/339 340/340/340 337/337/337
f 341/341/341 342/342/342 343/343/343
f 341/341/341 344/344/344 342/342/342
f 345/345/345 346/346/346 347/347/347
f 347/347/347 348/348/348 345/345/345
f 349/349/349 350/350/350 351/351/351
f 351/351/351 352/352/352 349/349/349
f 353/353/353 354/354/354 355/355/355
f 355/355/355 356/356/356 353/353/353
f 357/357/357 358/358/358 359/359/359
f 359/359/359 360/360/360 357/357/357
f 361/361/361 362/362/362 363/363/363
f 363/363/363 364/364/364 361/361/361
f 365/365/365 366/366/366 367/367/367
f 367/367/367 368/368/368 365/365/365
f 369/369/369 370/370/370 371/371/371
f 371/371/371 372/372/372 369/369/369
f 373/373/373 374/374/374 375/375/375
f 375/375/375 376/376/376 373/373/373
f 377/377/377 378/378/378 379/379/379
f 379/379/379 380/380/380 377/377/377
f 381/381/381 382/382/382 383/383/383
f 383/383/383 384/384/384 381/381/381
f 385/385/385 386/386/386 387/387/387
f 387/387/387 388/388/388 385/385/385
f 389/389/389 390/390/390 391/391/391
f 391/391/391 392/392/392 389/389/389
f 393/393/393 394/394/394 395/395/395
f 395/395/395 396/396/396 393/393/393
f 397/397/397 398/398/398 399/399/399
f 399/399/399 400/400/400 397/397/397
f 401/401/401 402/402/402 403/403/403
f 403/403/403 404/404/404 401/401/401
f 405/405/405 406/406/406 407/407/407
f 408/408/408 405/405/405 407/407/407
f 409/409/409 410/410/410 411/411/411
f 412/412/412 410/410/410 409/409/409
f 413/413/413 414/414/414 415/415/415
f 416/416/416 413/413/413 415/415/415
f 417/417/417 418/418/418 419/419/419
f 420/420/420 418/418/418 417/417/417
f 421/421/421 422/422/422 423/423/423
f 422/422/422 421/421/421 424/424/424
f 425/425/425 426/426/426 427/427/427
f 426/426/426 428/428/428 427/427/427
f 429/429/429 430/430/430 431/431/431
f 430/430/430 429/429/429 432/432/432
f 433/433/433 434/434/434 435/435/435
f 434/434/434 436/436/436 435/435/435
f 437/437/437 438/438/438 439/439/439
f 439/439/439 440/440/440 437/437/437
f 441/441/441 442/442/442 443/443/443
f 443/443/443 444/444/444 441/441/441
f 445/445/445 446/446/446 447/447/447
f 447/447/447 448/448/448 445/445/445
f 449/449/449 450/450/450 451/451/451
f 451/451/451 452/452/452 449/449/449
f 453/453/453 454/454/454 455/455/455
f 455/455/455 456/456/456 453/453/453
f 457/457/457 458/458/458 459/459/459
f 459/459/459 460/460/460 457/457/457
f 461/461/461 462/462/462 463/463/463
f 463/463/463 464/464/464 461/461/461
f 465/465/465 466/466/466 467/467/467
f 467/467/467 468/468/468 465/465/465
f 469/469/469 470/470/470 471/471/471
f 471/471/471 472/472/472 469/469/469
f 473/473/473 474/474/474 475/475/475
f 475/475/475 476/476/476 473/473/473
f 477/477/477 478/478/478 479/479/479
f 479/479/479 480/480/480 477/477/477
f 481/481/481 482/482/482 483/483/483
f 483/483/483 482/482/482 484/484/484
f 484/484/484 485/485/485 483/483/483
f 486/486/486 487/487/487 488/488/488
f 488/488/488 487/487/487 489/489/489
f 489/489/489 490/490/490 488/488/488
f 491/491/491 492/492/492 493/493/493
f 493/493/493 494/494/494 491/491/491
f 494/494/494 493/493/493 495/495/495
f 495/495/495 496/496/496 494/494/494
f 496/496/496 497/497/497 498/498/498
f 499/499/499 496/496/496 498/498/498
f 499/499/499 498/498/498 500/500/500
f 501/501/501 502/502/502 503/503/503
f 503/503/503 502/502/502 504/504/504
f 504/504/504 505/505/505 503/503/503
f 506/506/506 507/507/507 508/508/508
f 508/508/508 509/509/509 506/506/506
f 509/509/509 508/508/508 510/510/510
f 510/510/510 511/511/511 509/509/509
f 512/512/512 513/513/513 514/514/514
f 513/513/513 515/515/515 514/514/514
f 515/515/515 516/516/516 514/514/514
f 517/517/517 518/518/518 519/519/519
f 519/519/519 520/520/520 517/517/517
f 520/520/520 519/519/519 521/521/521
f 522/522/522 523/523/523 524/524/524
f 524/524/524 523/523/523 525/525/525
f 525/525/525 526/526/526 524/524/524
f 526/526/526 525/525/525 527/527/527
f 528/528/528 529/529/529 530/530/530
f 530/530/530 531/531/531 528/528/528
f 531/531/531 530/530/530 532/532/532
f 532/532/532 533/533/533 531/531/531
f 533/533/533 532/532/532 534/534/534
f 534/534/534 535/535/535 533/533/533
f 535/535/535 534/534/534 536/536/536
f 536/536/536 537/537/537 535/535/535
f 537/537/537 536/536/536 538/538/538
f 538/538/538 539/539/539 537/537/537
f 539/539/539 538/538/538 540/540/540
f 540/540/540 541/541/541 539/539/539
f 542/542/542 543/543/543 544/544/544
f 544/544/544 545/545/545 542/542/542
f 545/545/545 544/544/544 546/546/546
f 546/546/546 547/547/547 545/545/545
f 548/548/548 547/547/547 546/546/546
f 546/546/546 549/549/549 548/548/548
f 550/550/550 551/551/551 552/552/552
f 552/552/552 553/553/553 550/550/550
f 553/553/553 552/552/552 554/554/554
f 554/554/554 555/555/555 553/553/553
f 555/555/555 554/554/554 556/556/556
f 556/556/556 557/557/557 555/555/555
f 557/557/557 556/556/556 558/558/558
f 559/559/559 557/557/557 558/558/558
f 560/560/560 559/559/559 558/558/558
f 561/561/561 560/560/560 558/558/558
f 562/562/562 563/563/563 564/564/564
f 564/564/564 565/565/565 562/562/562
f 566/566/566 562/562/562 565/565/565
f 566/566/566 565/565/565 567/567/567
f 566/566/566 567/567/567 568/568/568
f 569/569/569 566/566/566 568/568/568
f 570/570/570 571/571/571 572/572/572
f 572/572/572 573/573/573 570/570/570
f 574/574/574 570/570/570 573/573/573
f 574/574/574 573/573/573 575/575/575
f 574/574/574 575/575/575 576/576/576
f 577/577/577 574/574/574 576/576/576
f 578/578/578 579/579/579 580/580/580
f 580/580/580 581/581/581 578/578/578
f 582/582/582 578/578/578 581/581/581
f 582/582/582 581/581/581 583/583/583
f 582/582/582 583/583/583 584/584/584
f 585/585/585 582/582/582 584/584/584
f 586/586/586 587/587/587 588/588/588
f 588/588/588 589/589/589 586/586/586
f 590/590/590 586/586/586 589/589/589
f 590/590/590 589/589/589 591/591/591
f 590/590/590 591/591/591 592/592/592
f 593/593/593 590/590/590 592/592/592
f 594/594/594 595/595/595 596/596/596
f 597/597/597 594/594/594 596/596/596
f 597/597/597 598/598/598 594/594/594
f 597/597/597 599/599/599 598/598/598
f 597/597/597 600/600/600 599/599/599
f 600/600/600 601/601/601 599/599/599
f 601/601/601 602/602/602 599/599/599
f 601/601/601 600/600/600 603/603/603
f 604/604/604 603/603/603 605/605/605
f 605/605/605 606/606/606 604/604/604
f 607/607/607 604/604/604 606/606/606
f 606/606/606 608/608/608 607/607/607
f 609/609/609 610/610/610 611/611/611
f 611/611/611 612/612/612 609/609/609
f 613/613/613 609/609/609 612/612/612
f 613/613/613 612/612/612 614/614/614
f 613/613/613 614/614/614 615/615/615
f 616/616/616 613/613/613 615/615/615
f 617/617/617 618/618/618 619/619/619
f 619/619/619 620/620/620 617/617/617
f 621/621/621 617/617/617 620/620/620
f 620/620/620 622/622/622 621/621/621
f 623/623/623 624/624/624 625/625/625
f 625/625/625 626/626/626 623/623/623
f 627/627/627 623/623/623 626/626/626
f 626/626/626 628/628/628 627/627/627
f 629/629/629 627/627/627 628/628/628
f 628/628/628 630/630/630 629/629/629
f 629/629/629 630/630/630 631/631/631
f 631/631/631 632/632/632 629/629/629
f 631/631/631 633/633/633 632/632/632
f 633/633/633 634/634/634 632/632/632
f 634/634/634 635/635/635 632/632/632
f 634/634/634 633/633/633 636/636/636
f 636/636/636 637/637/637 634/634/634
f 638/638/638 639/639/639 640/640/640
f 639/639/639 641/641/641 640/640/640
f 639/639/639 642/642/642 641/641/641
f 639/639/639 643/643/643 642/642/642
f 644/644/644 645/645/645 646/646/646
f 646/646/646 647/647/647 644/644/644
f 647/647/647 646/646/646 648/648/648
f 646/646/646 649/649/649 648/648/648
f 650/650/650 647/647/647 648/648/648
f 651/651/651 652/652/652 653/653/653
f 653/653/653 654/654/654 651/651/651
f 654/654/654 653/653/653 655/655/655
f 653/653/653 656/656/656 655/655/655
f 657/657/657 654/654/654 655/655/655
f 658/658/658 659/659/659 660/660/660
f 660/660/660 661/661/661 658/658/658
f 661/661/661 660/660/660 662/662/662
f 660/660/660 663/663/663 662/662/662
f 664/664/664 661/661/661 662/662/662
f 665/665/665 666/666/666 667/667/667
f 667/667/667 668/668/668 665/665/665
f 669/669/669 668/668/668 667/667/667
f 667/667/667 670/670/670 669/669/669
f 669/669/669 670/670/670 671/671/671
f 671/671/671 672/672/672 669/669/669
f 673/673/673 674/674/674 675/675/675
f 675/675/675 676/676/676 673/673/673
f 677/677/677 676/676/676 675/675/675
f 675/675/675 678/678/678 677/677/677
f 677/677/677 678/678/678 679/679/679
f 679/679/679 680/680/680 677/677/677
f 681/681/681 682/682/682 683/683/683
f 683/683/683 684/684/684 681/681/681
f 685/685/685 684/684/684 683/683/683
f 683/683/683 686/686/686 685/685/685
f 685/685/685 686/686/686 687/687/687
f 687/687/687 688/688/688 685/685/685
f 689/689/689 690/690/690 691/691/691
f 691/691/691 692/692/692 689/689/689
f 693/693/693 692/692/692 691/691/691
f 691/691/691 694/694/694 693/693/693
f 693/693/693 694/694/694 695/695/695
f 695/695/695 696/696/696 693/693/693
f 697/697/697 698/698/698 699/699/699
f 699/699/699 700/700/700 697/697/697
f 697/697/697 700/700/700 701/701/701
f 700/700/700 702/702/702 701/701/701
f 703/703/703 697/697/697 704/704/704
f 702/702/702 705/705/705 701/701/701
f 701/701/701 705/705/705 704/704/704
f 706/706/706 701/701/701 704/704/704
f 705/705/705 707/707/707 704/704/704
f 708/708/708 709/709/709 710/710/710
f 711/711/711 708/708/708 710/710/710
f 711/711/711 710/710/710 712/712/712
f 710/710/710 713/713/713 712/712/712
f 714/714/714 715/715/715 716/716/716
f 714/714/714 716/716/716 717/717/717
f 714/714/714 717/717/717 718/718/718
f 717/717/717 719/719/719 718/718/718
f 720/720/720 714/714/714 718/718/718
f 721/721/721 722/722/722 723/723/723
f 723/723/723 724/724/724 721/721/721
f 725/725/725 724/724/724 723/723/723
f 723/723/723 726/726/726 725/725/725
f 727/727/727 728/728/728 729/729/729
f 728/728/728 730/730/730 729/729/729
f 730/730/730 731/731/731 729/729/729
f 728/728/728 732/732/732 730/730/730
f 733/733/733 734/734/734 735/735/735
f 734/734/734 736/736/736 735/735/735
f 736/736/736 737/737/737 735/735/735
f 736/736/736 734/734/734 738/738/738
f 739/739/739 740/740/740 741/741/741
f 741/741/741 742/742/742 739/739/739
f 743/743/743 742/742/742 744/744/744
f 742/742/742 741/741/741 744/744/744
f 745/745/745 746/746/746 744/744/744
f 741/741/741 745/745/745 744/744/744
f 741/741/741 747/747/747 745/745/745
f 741/741/741 748/748/748 747/747/747
f 749/749/749 750/750/750 751/751/751
f 751/751/751 752/752/752 749/749/749
f 753/753/753 750/750/750 749/749/749
f 749/749/749 752/752/752 754/754/754
f 749/749/749 755/755/755 753/753/753
f 754/754/754 756/756/756 749/749/749
f 757/757/757 755/755/755 749/749/749
f 749/749/749 756/756/756 757/757/757
f 758/758/758 759/759/759 760/760/760
f 760/760/760 761/761/761 758/758/758
f 762/762/762 759/759/759 758/758/758
f 758/758/758 761/761/761 763/763/763
f 758/758/758 764/764/764 762/762/762
f 763/763/763 765/765/765 758/758/758
f 766/766/766 764/764/764 758/758/758
f 758/758/758 765/765/765 766/766/766
