v 0.2901 -0.063522 0.008983000000000003
v 0.293308 -0.061669999999999996 0.092022
v 0.191512 0.085991 0.092661
v 0.188304 0.084139 0.009621999999999995
v 0.514907 0.083627 -0.002982000000000005
v 0.518114 0.085479 0.080056
v 0.293308 -0.061669999999999996 0.092022
v 0.2901 -0.063522 0.008983000000000003
v 0.413111 0.231288 -0.0023430000000000143
v 0.416318 0.23314 0.08069499999999999
v 0.518114 0.085479 0.080056
v 0.514907 0.083627 -0.002982000000000005
v 0.188304 0.084139 0.009621999999999995
v 0.191512 0.085991 0.092661
v 0.416318 0.23314 0.08069499999999999
v 0.413111 0.231288 -0.0023430000000000143
v 0.191512 0.085991 0.092661
v 0.293308 -0.061669999999999996 0.092022
v 0.518114 0.085479 0.080056
v 0.416318 0.23314 0.08069499999999999
v -0.017354 -0.39298299999999997 0.588156
v -0.436817 -0.21069299999999996 0.575659
v -0.440951 -0.22633799999999998 0.604365
v -0.021487 -0.40862799999999994 0.616861
v -0.444262 -0.24226699999999998 0.575652
v -0.024798 -0.42455799999999994 0.588148
v -0.428185 -0.247376 -0.014944999999999984
v -0.42778 -0.24755799999999997 0.583205
v -0.417459 -0.21751199999999998 0.583172
v -0.417864 -0.21733 -0.014977999999999986
v -0.403453 -0.24466899999999997 0.583189
v -0.403858 -0.244487 -0.014961999999999984
v -0.42778 -0.24755799999999997 0.583205
v -0.428185 -0.247376 -0.014944999999999984
v -0.059762 -0.446071 -0.004492999999999973
v -0.057281 -0.40969199999999995 0.592497
v -0.047166 -0.37957799999999997 0.590555
v -0.049647 -0.415957 -0.006434999999999975
v -0.032976 -0.40651499999999996 0.59213
v -0.035457 -0.442894 -0.004859999999999973
v -0.057281 -0.40969199999999995 0.592497
v -0.059762 -0.446071 -0.004492999999999973
v 0.445507 -0.20141099999999998 0.452958
v 0.055017 -0.447807 0.443255
v 0.061469 -0.4589039999999999 0.46540500000000007
v 0.451959 -0.21250699999999997 0.475108
v 0.06868 -0.469458 0.44322400000000006
v 0.45917 -0.22306099999999998 0.452927
v 0.082911 -0.45885 -0.012771999999999973
v 0.082911 -0.45885 0.44905900000000004
v 0.072092 -0.435647 0.449059
v 0.072092 -0.435647 -0.012771999999999974
v 0.097595 -0.437879 0.449059
v 0.097595 -0.437879 -0.012771999999999974
v 0.082911 -0.45885 0.44905900000000004
v 0.082911 -0.45885 -0.012771999999999973
v 0.448713 -0.261587 -0.004680999999999985
v 0.428484 -0.24177299999999996 0.456281
v 0.417487 -0.21870099999999998 0.454806
v 0.437716 -0.238515 -0.006155999999999985
v 0.442983 -0.22067499999999998 0.45601
v 0.463212 -0.240489 -0.004951999999999985
v 0.428484 -0.24177299999999996 0.456281
v 0.448713 -0.261587 -0.004680999999999985
v -0.375989 -0.2719829999999999 0.622108
v -0.387027 -0.293022 0.20801500000000003
v -0.092766 -0.420262 0.20796500000000004
v -0.081729 -0.39922199999999997 0.622058
v -0.36591 -0.23482299999999998 0.622069
v -0.071649 -0.36206299999999997 0.622019
v -0.373017 -0.247841 0.18164100000000002
v -0.078757 -0.37508 0.18159200000000003
v 0.132235 -0.42939399999999994 0.479101
v 0.137508 -0.448538 0.15936100000000003
v 0.41107 -0.275366 0.15936100000000003
v 0.405797 -0.25622199999999995 0.479101
v 0.117044 -0.40285499999999996 0.479101
v 0.390607 -0.22968299999999997 0.479101
v 0.120236 -0.414852 0.13903600000000002
v 0.393799 -0.241679 0.13903600000000002
v 0.441525 -0.187145 0.006176000000000011
v 0.535925 -0.187145 0.006176000000000011
v 0.523299 -0.033746 0.017208000000000005
v 0.441525 -0.033746 0.017208000000000005
v 0.347125 -0.187145 0.006176000000000011
v 0.535925 0.146048 0.006175999999999991
v 0.347125 -0.033746 0.017208000000000005
v 0.252725 -0.187145 0.006176000000000011
v 0.441525 0.142566 0.006175999999999991
v 0.535925 0.273054 0.03669099999999999
v 0.252725 -0.033746 0.017208000000000005
v 0.158325 -0.187145 0.006176000000000011
v 0.167769 -0.033746 0.017208000000000005
v 0.347125 0.135825 0.006175999999999991
v 0.441525 0.273054 0.026884999999999982
v 0.535924 0.387629 0.006175999999999977
v 0.441525 0.395785 0.006175999999999976
v 0.252725 0.119654 0.006175999999999993
v 0.158325 0.119654 0.006175999999999993
v 0.347125 0.273054 0.006175999999999984
v 0.347125 0.426454 0.006175999999999974
v 0.252725 0.273054 0.006175999999999984
v 0.134875 0.270465 0.006175999999999984
v 0.252725 0.426454 0.006175999999999974
v 0.158325 0.442123 0.006175999999999973
v -0.556943 0.237214 0.0025819999999999858
v -0.621887 0.159817 0.00258199999999999
v -0.487431 0.064634 0.014389999999999997
v -0.431172 0.13168 0.014389999999999991
v -0.491999 0.314612 0.002581999999999981
v -0.348706 -0.069409 0.0025820000000000044
v -0.366228 0.209077 0.014389999999999988
v -0.427055 0.392009 0.0025819999999999762
v -0.286617 0.010383 0.0025819999999999997
v -0.244575 -0.156786 0.03524200000000001
v -0.301284 0.286475 0.014389999999999983
v -0.362111 0.469406 0.0025819999999999715
v -0.242837 0.356129 0.014389999999999977
v -0.227199 0.092418 0.0025819999999999945
v -0.179631 -0.079388 0.024747000000000005
v -0.150637 -0.235609 0.0025820000000000144
v -0.079005 -0.163823 0.00258200000000001
v -0.175513 0.180941 0.002581999999999989
v -0.110569 0.258338 0.0025819999999999845
v -0.114687 -0.001991 0.002582
v 0.011084 -0.107525 0.0025820000000000066
v -0.049743 0.075406 0.0025819999999999953
v 0.029212 0.173811 0.0025819999999999893
v 0.076028 -0.030128 0.002582000000000002
v 0.153819 0.03649 0.002581999999999998
v -0.158084 0.027508000000000005 0.043154
v -0.134197 0.12132 0.04315399999999999
v -0.243542 0.099215 0.005841999999999994
v -0.246323 -0.012306999999999997 0.043154
v -0.192648 0.198487 0.043153999999999984
v -0.332467 0.031857 0.043154
v -0.289423 0.2009 0.043153999999999984
v -0.351649 0.126743 0.04315399999999999
v -0.090636 0.019776000000000002 0.043154
v -0.017087 0.020693000000000003 0.043154
v -0.054814 0.096597 0.005841999999999994
v -0.13721 0.076707 0.04315399999999999
v 0.028053 0.078767 0.04315399999999999
v -0.121738 0.148616 0.04315399999999999
v 0.010793 0.150268 0.04315399999999999
v -0.05587 0.181354 0.043153999999999984
v -0.236978 0.088188 0.02889299999999999
v -0.265069 0.054711 0.028892999999999995
v -0.238094 0.100939 0.059794999999999994
v -0.19075 0.061213000000000004 0.059794999999999994
v -0.203501 0.060098 0.028892999999999995
v -0.27782 0.053595000000000004 0.059795
v -0.231592 0.026620000000000005 0.028893
v -0.234285 0.057404000000000004 0.103496
v -0.230476 0.013869000000000003 0.059795
v -0.226416 0.108425 0.02889299999999999
v -0.198325 0.141902 0.028892999999999988
v -0.195632 0.111118 0.059794999999999994
v -0.201019 0.172685 0.05979499999999999
v -0.252781 0.159071 0.028892999999999988
v -0.2572 0.105732 0.059794999999999994
v -0.229109 0.139208 0.10349599999999999
v -0.262586 0.167299 0.059794999999999994
vt 0.015823 0.630427
vt 0.015823 0.556055
vt 0.227105 0.556055
vt 0.227105 0.630427
vt 0.015275 0.629774
vt 0.015275 0.557459
vt 0.227049 0.557459
vt 0.227049 0.629774
vt 0.227105 0.630427
vt 0.227105 0.556055
vt 0.015823 0.556055
vt 0.015823 0.630427
vt 0.018521 0.627608
vt 0.018521 0.559796
vt 0.225090 0.559796
vt 0.225090 0.627608
vt 0.243817 0.676253
vt 0.243817 0.564330
vt 0.485167 0.564330
vt 0.485167 0.676253
vt 0.179946 0.709129
vt 0.470967 0.709129
vt 0.470967 0.741687
vt 0.179946 0.741687
vt 0.470967 0.774244
vt 0.179946 0.774244
vt 0.177293 0.703083
vt 0.479570 0.703083
vt 0.479570 0.727401
vt 0.177293 0.727401
vt 0.479570 0.751719
vt 0.177293 0.751719
vt 0.479570 0.776037
vt 0.177293 0.776037
vt 0.177293 0.703083
vt 0.479570 0.703083
vt 0.479570 0.727401
vt 0.177293 0.727401
vt 0.479570 0.751719
vt 0.177293 0.751719
vt 0.479570 0.776037
vt 0.177293 0.776037
vt 0.179946 0.709129
vt 0.470967 0.709129
vt 0.470967 0.741687
vt 0.179946 0.741687
vt 0.470967 0.774244
vt 0.179946 0.774244
vt 0.177293 0.703083
vt 0.479570 0.703083
vt 0.479570 0.727401
vt 0.177293 0.727401
vt 0.479570 0.751719
vt 0.177293 0.751719
vt 0.479570 0.776037
vt 0.177293 0.776037
vt 0.177293 0.703083
vt 0.479570 0.703083
vt 0.479570 0.727401
vt 0.177293 0.727401
vt 0.479570 0.751719
vt 0.177293 0.751719
vt 0.479570 0.776037
vt 0.177293 0.776037
vt 0.993745 0.196150
vt 0.993382 0.357908
vt 0.810058 0.356085
vt 0.810420 0.195221
vt 0.994107 0.162616
vt 0.810782 0.161688
vt 0.994469 0.016717
vt 0.811144 0.014894
vt 0.646915 0.009994
vt 0.786531 0.010388
vt 0.784544 0.210212
vt 0.645903 0.209818
vt 0.589974 0.009599
vt 0.588962 0.209423
vt 0.451333 0.009204
vt 0.449346 0.209028
vt 0.948560 0.015702
vt 0.990917 0.012824
vt 0.990917 0.102738
vt 0.942662 0.100211
vt 0.906203 0.012824
vt 0.990917 0.182579
vt 0.901042 0.101054
vt 0.855843 0.005139
vt 0.943399 0.181737
vt 0.990917 0.262421
vt 0.853524 0.099369
vt 0.809692 0.011948
vt 0.811167 0.099369
vt 0.898830 0.181737
vt 0.944874 0.261579
vt 0.989442 0.355001
vt 0.947823 0.353913
vt 0.856473 0.181737
vt 0.814116 0.181737
vt 0.902517 0.261579
vt 0.904027 0.355001
vt 0.854261 0.263263
vt 0.811904 0.261579
vt 0.863144 0.353913
vt 0.812642 0.354053
vt 0.452327 0.056049
vt 0.452327 0.007134
vt 0.533041 0.007134
vt 0.530487 0.062860
vt 0.452327 0.104964
vt 0.613756 0.007134
vt 0.531338 0.110924
vt 0.448921 0.158136
vt 0.612904 0.062009
vt 0.694470 0.007134
vt 0.529636 0.165799
vt 0.441258 0.216417
vt 0.529636 0.214714
vt 0.612904 0.113478
vt 0.693619 0.060306
vt 0.783699 0.008837
vt 0.781145 0.056900
vt 0.612904 0.162393
vt 0.612904 0.211308
vt 0.693619 0.109221
vt 0.783699 0.105816
vt 0.695322 0.164948
vt 0.693619 0.213863
vt 0.781145 0.153028
vt 0.787105 0.213011
vt 0.679344 0.455307
vt 0.661515 0.491403
vt 0.631989 0.455307
vt 0.661515 0.419211
vt 0.621451 0.500318
vt 0.621451 0.410296
vt 0.589323 0.475339
vt 0.589323 0.435275
vt 0.679344 0.455307
vt 0.661515 0.491403
vt 0.631989 0.455307
vt 0.661515 0.419211
vt 0.621451 0.500318
vt 0.621451 0.410296
vt 0.589323 0.475339
vt 0.589323 0.435275
vt 0.680031 0.584040
vt 0.680031 0.528157
vt 0.688472 0.575562
vt 0.726740 0.575562
vt 0.735233 0.584040
vt 0.688472 0.536822
vt 0.734613 0.528785
vt 0.722523 0.556492
vt 0.726740 0.536822
vt 0.647647 0.530495
vt 0.648267 0.585750
vt 0.647699 0.557902
vt 0.620640 0.585296
vt 0.581633 0.557809
vt 0.620640 0.530509
vt 0.609855 0.568269
vt 0.593580 0.557902
vn -0.822413 -0.567154 0.04441600000000003
vn -0.822413 -0.567154 0.04441600000000003
vn -0.822413 -0.567154 0.04441600000000003
vn -0.822413 -0.567154 0.04441600000000003
vn 0.547573 -0.836754 -0.002489999999999949
vn 0.547573 -0.836754 -0.002489999999999949
vn 0.547573 -0.836754 -0.002489999999999949
vn 0.547573 -0.836754 -0.002489999999999949
vn 0.822413 0.567154 -0.04441600000000003
vn 0.822413 0.567154 -0.04441600000000003
vn 0.822413 0.567154 -0.04441600000000003
vn 0.822413 0.567154 -0.04441600000000003
vn -0.547573 0.836754 0.002490999999999949
vn -0.547573 0.836754 0.002490999999999949
vn -0.547573 0.836754 0.002490999999999949
vn -0.547573 0.836754 0.002489999999999949
vn 0.038589 0.022279000000000063 0.999007
vn 0.038589 0.022279000000000063 0.999007
vn 0.038589 0.022279000000000063 0.999007
vn 0.038589 0.022279000000000063 0.999007
vn 0.335716 0.805936 0.48760899999999996
vn 0.335716 0.805935 0.48760999999999993
vn 0.182705 0.47926700000000005 0.858442
vn -0.227122 -0.4639249999999999 0.856265
vn -0.360882 -0.797243 0.48390900000000003
vn -0.360882 -0.797243 0.48390800000000006
vn -0.981781 -0.190012 0.0006070000000000116
vn -0.392985 -0.919545 -1.3999999999943694E-05
vn -0.670971 0.741484 0.0006799999999999546
vn 0.556584 0.830791 -0.00012400000000005088
vn 0.99919 -0.040235 -0.0006889999999999976
vn 0.592831 -0.805327 -0.0006469999999999507
vn -0.392985 -0.919545 -1.3999999999943694E-05
vn -0.981781 -0.190012 0.0006070000000000116
vn -0.980294 -0.196889 0.01607200000000001
vn -0.381669 -0.92249 0.057801000000000054
vn -0.676388 0.735347 -0.042000000000000044
vn 0.549816 0.833597 -0.05308300000000005
vn 0.999484 -0.03204 -0.0022009999999999977
vn 0.602521 -0.796774 0.04605000000000005
vn -0.381669 -0.92249 0.057801000000000054
vn -0.980294 -0.196889 0.01607200000000001
vn -0.470723 0.726277 0.50094
vn -0.470723 0.726277 0.50094
vn -0.281657 0.41225100000000003 0.86644
vn 0.252003 -0.43344699999999997 0.865227
vn 0.453603 -0.738515 0.49883900000000003
vn 0.453602 -0.738515 0.49883900000000003
vn -0.573577 -0.819152 5.015859374075763E-17
vn 0.422617 -0.906308 5.549535956208197E-17
vn -0.996195 0.087156 -5.336765821324336E-18
vn -0.422617 0.906308 -5.549535956208197E-17
vn 0.573577 0.819151 -5.0158532508417673E-17
vn 0.996195 -0.087157 5.336827053664293E-18
vn 0.422617 -0.906308 5.549535956208197E-17
vn -0.573577 -0.819152 5.015859374075763E-17
vn -0.566353 -0.824095 0.01056900000000005
vn 0.429561 -0.901199 0.05758900000000006
vn -0.995914 0.077105 -0.047020000000000006
vn -0.429562 0.901199 -0.05758900000000006
vn 0.566352 0.824096 -0.01057000000000005
vn 0.995914 -0.077104 0.047020000000000006
vn 0.429561 -0.901199 0.05758900000000006
vn -0.566353 -0.824095 0.01056900000000005
vn -0.346466 -0.801445 0.48749100000000006
vn -0.396233 -0.916371 0.057122000000000055
vn -0.396233 -0.916371 0.057122000000000055
vn -0.172865 -0.40012999999999993 0.900008
vn 0.180249 0.41650500000000007 0.891086
vn 0.359737 0.831782 0.42276199999999997
vn 0.396661 0.917353 -0.03351600000000005
vn 0.396661 0.917353 -0.03351600000000005
vn 0.466617 -0.73712 0.48879800000000007
vn 0.533926 -0.843449 0.059306000000000046
vn 0.533926 -0.843449 0.059306000000000046
vn 0.233308 -0.36855899999999997 0.899851
vn -0.242455 0.38300800000000007 0.891359
vn -0.484909 0.766016 0.42199899999999996
vn -0.534544 0.844424 -0.034806000000000045
vn -0.534544 0.844424 -0.034806000000000045
vn 0 -0.07173199999999995 0.997424
vn 0 -0.07173199999999995 0.997424
vn 0 -0.027460999999999937 0.999623
vn -0.000385 -0.004852999999999938 0.999988
vn -0 -0.07173199999999995 0.997424
vn 0.002125 -0.036999999999999936 0.999313
vn -0.000774 -0.003825999999999939 0.999992
vn 0 -0.07173199999999995 0.997424
vn -0.014995 -0.05992899999999994 0.99809
vn -0.066075 -0.04561399999999994 0.996772
vn -0.002053 -0.0011389999999999389 0.999997
vn 0 -0.07173199999999995 0.997424
vn 0 0.023966000000000064 0.999713
vn -0.036904 0.0075210000000000615 0.999291
vn -0.102129 0.04620800000000006 0.993698
vn -0.042867 0.21179400000000007 0.976374
vn -0.066246 0.11060000000000006 0.991655
vn -0.002049 0.03588900000000006 0.999354
vn 0 0.023924000000000063 0.999714
vn -0.071451 0.02729400000000006 0.997071
vn 0 6.123233995736766E-17 1
vn 0 6.123233995736766E-17 1
vn 0 6.123233995736766E-17 1
vn 0 6.123233995736766E-17 1
vn 0 6.123233995736766E-17 1
vn -0.05495 0.04610900000000006 0.997424
vn -0.05495 0.04610900000000006 0.997424
vn -0.021036 0.017651000000000062 0.999623
vn -0.00347 0.003414000000000061 0.999988
vn -0.05495 0.04610900000000006 0.997424
vn -0.02971 0.022155000000000064 0.999313
vn -0.002433 0.0030530000000000613 0.999992
vn -0.05495 0.04610900000000006 0.997424
vn -0.036269 0.05000900000000006 0.99809
vn 0.007529 0.07993600000000005 0.996772
vn 0.000447 0.0023050000000000613 0.999997
vn -0.05495 0.04610900000000006 0.997424
vn 0.018359 -0.01540499999999994 0.999713
vn 0.029483 0.023435000000000063 0.999291
vn 0.101044 0.04853300000000006 0.993698
vn 0.189798 -0.10329999999999995 0.976374
vn 0.127306 -0.020344999999999936 0.991655
vn 0.02881 -0.02149899999999994 0.999354
vn 0.018327 -0.015377999999999939 0.999714
vn 0.066836 0.03719000000000006 0.997071
vn 0 6.123233995736766E-17 1
vn 0 6.123233995736766E-17 1
vn 0 6.123233995736766E-17 1
vn 0 6.123233995736766E-17 1
vn 0 6.123233995736766E-17 1
vn -0.242982 0.20388600000000007 0.948362
vn -0.310901 -0.06284999999999995 0.948362
vn 0 6.123233995736766E-17 1
vn 0.007908 0.31709100000000007 0.948362
vn -0.144705 -0.28225799999999995 0.948362
vn 0.252842 0.19152100000000005 0.948362
vn 0.130456 -0.28912099999999996 0.948362
vn 0.307382 -0.07826899999999995 0.948362
vn 0.170264 0.36513300000000004 0.915253
vn -0.179314 0.36077400000000004 0.915253
vn 0 6.123233995736766E-17 1
vn 0.39163 0.09453900000000005 0.915253
vn -0.393865 0.08474600000000006 0.915253
vn 0.318091 -0.24724499999999994 0.915253
vn -0.311828 -0.25509799999999994 0.915253
vn 0.005022 -0.40284799999999993 0.915253
vn 0.216244 0.905251 -0.36573100000000003
vn -0.90525 0.21624399999999996 -0.365733
vn -0.291173 0.951937 0.09504999999999994
vn 0.951937 0.291174 0.09504499999999999
vn 0.905249 -0.21624200000000002 -0.365738
vn -0.951937 -0.291173 0.09504900000000001
vn -0.216242 -0.905251 -0.3657329999999999
vn -1E-06 -9.999999999387675E-07 1
vn 0.291172 -0.951937 0.09504600000000006
vn 0.027215 -0.828475 -0.559364
vn 0.820615 0.11706199999999997 -0.559364
vn 0.755141 -0.63364 0.16811500000000001
vn 0.579836 0.812499 0.060288999999999954
vn -0.541676 0.45452099999999995 -0.707106
vn -0.699469 -0.712116 0.06028800000000004
vn -4E-06 2.0000000000612323E-06 1
vn -0.745582 0.625618 0.22958799999999996
g 01
f 1/1/1 2/2/2 3/3/3
f 3/3/3 4/4/4 1/1/1
f 5/5/5 6/6/6 7/7/7
f 7/7/7 8/8/8 5/5/5
f 9/9/9 10/10/10 11/11/11
f 11/11/11 12/12/12 9/9/9
f 13/13/13 14/14/14 15/15/15
f 15/15/15 16/16/16 13/13/13
f 17/17/17 18/18/18 19/19/19
f 19/19/19 20/20/20 17/17/17
f 21/21/21 22/22/22 23/23/23
f 23/23/23 24/24/24 21/21/21
f 24/24/24 23/23/23 25/25/25
f 25/25/25 26/26/26 24/24/24
f 27/27/27 28/28/28 29/29/29
f 29/29/29 30/30/30 27/27/27
f 30/30/30 29/29/29 31/31/31
f 31/31/31 32/32/32 30/30/30
f 32/32/32 31/31/31 33/33/33
f 33/33/33 34/34/34 32/32/32
f 35/35/35 36/36/36 37/37/37
f 37/37/37 38/38/38 35/35/35
f 38/38/38 37/37/37 39/39/39
f 39/39/39 40/40/40 38/38/38
f 40/40/40 39/39/39 41/41/41
f 41/41/41 42/42/42 40/40/40
f 43/43/43 44/44/44 45/45/45
f 45/45/45 46/46/46 43/43/43
f 46/46/46 45/45/45 47/47/47
f 47/47/47 48/48/48 46/46/46
f 49/49/49 50/50/50 51/51/51
f 51/51/51 52/52/52 49/49/49
f 52/52/52 51/51/51 53/53/53
f 53/53/53 54/54/54 52/52/52
f 54/54/54 53/53/53 55/55/55
f 55/55/55 56/56/56 54/54/54
f 57/57/57 58/58/58 59/59/59
f 59/59/59 60/60/60 57/57/57
f 60/60/60 59/59/59 61/61/61
f 61/61/61 62/62/62 60/60/60
f 62/62/62 61/61/61 63/63/63
f 63/63/63 64/64/64 62/62/62
f 65/65/65 66/66/66 67/67/67
f 67/67/67 68/68/68 65/65/65
f 69/69/69 65/65/65 68/68/68
f 68/68/68 70/70/70 69/69/69
f 71/71/71 69/69/69 70/70/70
f 70/70/70 72/72/72 71/71/71
f 73/73/73 74/74/74 75/75/75
f 75/75/75 76/76/76 73/73/73
f 77/77/77 73/73/73 76/76/76
f 76/76/76 78/78/78 77/77/77
f 79/79/79 77/77/77 78/78/78
f 78/78/78 80/80/80 79/79/79
f 81/81/81 82/82/82 83/83/83
f 83/83/83 84/84/84 81/81/81
f 85/85/85 81/81/81 84/84/84
f 84/84/84 83/83/83 86/86/86
f 84/84/84 87/87/87 85/85/85
f 88/88/88 85/85/85 87/87/87
f 86/86/86 89/89/89 84/84/84
f 87/87/87 84/84/84 89/89/89
f 89/89/89 86/86/86 90/90/90
f 87/87/87 91/91/91 88/88/88
f 92/92/92 88/88/88 91/91/91
f 91/91/91 93/93/93 92/92/92
f 89/89/89 94/94/94 87/87/87
f 91/91/91 87/87/87 94/94/94
f 90/90/90 95/95/95 89/89/89
f 94/94/94 89/89/89 95/95/95
f 95/95/95 90/90/90 96/96/96
f 96/96/96 97/97/97 95/95/95
f 93/93/93 91/91/91 98/98/98
f 94/94/94 98/98/98 91/91/91
f 98/98/98 99/99/99 93/93/93
f 95/95/95 100/100/100 94/94/94
f 100/100/100 95/95/95 97/97/97
f 98/98/98 94/94/94 100/100/100
f 97/97/97 101/101/101 100/100/100
f 99/99/99 98/98/98 102/102/102
f 100/100/100 102/102/102 98/98/98
f 102/102/102 100/100/100 101/101/101
f 102/102/102 103/103/103 99/99/99
f 101/101/101 104/104/104 102/102/102
f 103/103/103 102/102/102 104/104/104
f 104/104/104 105/105/105 103/103/103
f 106/106/106 107/107/107 108/108/108
f 108/108/108 109/109/109 106/106/106
f 110/110/110 106/106/106 109/109/109
f 109/109/109 108/108/108 111/111/111
f 109/109/109 112/112/112 110/110/110
f 113/113/113 110/110/110 112/112/112
f 111/111/111 114/114/114 109/109/109
f 112/112/112 109/109/109 114/114/114
f 114/114/114 111/111/111 115/115/115
f 112/112/112 116/116/116 113/113/113
f 117/117/117 113/113/113 116/116/116
f 116/116/116 118/118/118 117/117/117
f 114/114/114 119/119/119 112/112/112
f 116/116/116 112/112/112 119/119/119
f 115/115/115 120/120/120 114/114/114
f 119/119/119 114/114/114 120/120/120
f 120/120/120 115/115/115 121/121/121
f 121/121/121 122/122/122 120/120/120
f 118/118/118 116/116/116 123/123/123
f 119/119/119 123/123/123 116/116/116
f 123/123/123 124/124/124 118/118/118
f 120/120/120 125/125/125 119/119/119
f 125/125/125 120/120/120 122/122/122
f 123/123/123 119/119/119 125/125/125
f 122/122/122 126/126/126 125/125/125
f 124/124/124 123/123/123 127/127/127
f 125/125/125 127/127/127 123/123/123
f 127/127/127 125/125/125 126/126/126
f 127/127/127 128/128/128 124/124/124
f 126/126/126 129/129/129 127/127/127
f 128/128/128 127/127/127 129/129/129
f 129/129/129 130/130/130 128/128/128
f 131/131/131 132/132/132 133/133/133
f 134/134/134 131/131/131 133/133/133
f 132/132/132 135/135/135 133/133/133
f 136/136/136 134/134/134 133/133/133
f 135/135/135 137/137/137 133/133/133
f 138/138/138 136/136/136 133/133/133
f 137/137/137 138/138/138 133/133/133
f 139/139/139 140/140/140 141/141/141
f 142/142/142 139/139/139 141/141/141
f 140/140/140 143/143/143 141/141/141
f 144/144/144 142/142/142 141/141/141
f 143/143/143 145/145/145 141/141/141
f 146/146/146 144/144/144 141/141/141
f 145/145/145 146/146/146 141/141/141
f 147/147/147 148/148/148 149/149/149
f 149/149/149 150/150/150 147/147/147
f 151/151/151 147/147/147 150/150/150
f 152/152/152 149/149/149 148/148/148
f 148/148/148 153/153/153 152/152/152
f 154/154/154 150/150/150 149/149/149
f 154/154/154 149/149/149 152/152/152
f 150/150/150 155/155/155 151/151/151
f 154/154/154 155/155/155 150/150/150
f 153/153/153 151/151/151 155/155/155
f 152/152/152 155/155/155 154/154/154
f 155/155/155 152/152/152 153/153/153
f 156/156/156 157/157/157 158/158/158
f 159/159/159 158/158/158 157/157/157
f 157/157/157 160/160/160 159/159/159
f 158/158/158 161/161/161 156/156/156
f 160/160/160 156/156/156 161/161/161
f 158/158/158 159/159/159 162/162/162
f 161/161/161 158/158/158 162/162/162
f 163/163/163 159/159/159 160/160/160
f 162/162/162 159/159/159 163/163/163
f 161/161/161 163/163/163 160/160/160
f 162/162/162 163/163/163 161/161/161
