v -0.467549 1 0.46348199999999995
v -0.467549 1.994048 0.008097999999999878
v 0.461315 1 0.48875099999999994
v 0.462296 1.976789 0.008097999999999878
v 0.461315 1 0.43732899999999997
v 0.462296 1.976789 -0.04332400000000012
v -0.46804 1.451527 0.2631039999999999
v 0.461806 1.434269 0.2338069999999999
v 0.461806 1.434269 0.1823849999999999
v -0.46853 1 0.4043999999999999
v -0.467549 1.994048 -0.050984000000000126
v -0.46804 1.451527 0.20402199999999993
v 0.489651 1.042449 0.6577069999999999
v 0.425904 1.042449 0.6577069999999999
v 0.450675 2.00534 0.2202789999999999
v 0.386929 2.00534 0.2202789999999999
v -0.428522 1.030517 0.6741789999999999
v -0.488393 1.030517 0.6741789999999999
v -0.387314 2.016769 0.2549059999999999
v -0.447185 2.016769 0.2549059999999999
v 0.415205 1.070395 0.40307399999999993
v 0.415205 0.996543 0.40307399999999993
v 0.415205 1.070395 -0.08566300000000007
v 0.415205 0.996543 -0.08566300000000006
v -0.440415 1.070395 0.40307399999999993
v -0.440415 0.996543 0.40307399999999993
v -0.440415 1.070395 -0.08566300000000007
v -0.440415 0.996543 -0.08566300000000006
v 0.444466 1.981517 0.3585179999999999
v 0.444466 1.920413 0.3585179999999999
v 0.475019 1.950965 0.3585179999999999
v 0.444467 1.981517 -1.213329225753033E-16
v 0.444467 1.920413 -1.175913816745483E-16
v 0.475019 1.950965 -1.194621521249258E-16
v -0.483619 1.981517 0.3585179999999999
v -0.514171 1.950965 0.3585179999999999
v -0.483619 1.920413 0.3585179999999999
v -0.514171 1.950965 -1.194621521249258E-16
v -0.483619 1.981517 -1.213329225753033E-16
v -0.483619 1.920413 -0.0642700000000001
v 0.374037 1.118052 0.7134679999999999
v 0.374037 1.056948 0.7134679999999999
v 0.404589 1.087501 0.7134679999999999
v 0.374037 1.118053 0.4082029999999999
v 0.374037 1.056948 0.4082029999999999
v 0.404589 1.087501 0.4082029999999999
v -0.411338 1.118052 0.7036109999999999
v -0.44189 1.087501 0.7036109999999999
v -0.411338 1.056948 0.7036109999999999
v -0.411338 1.118053 0.4082029999999999
v -0.44189 1.087501 0.4082029999999999
v -0.411338 1.056948 0.4082029999999999
v -0.467549 2.838008738812068E-17 0.463482
v -0.467549 -1 0.46348300000000003
v 0.461315 2.99273673865034E-17 0.488751
v 0.461315 -1 0.48875100000000005
v 0.461315 2.6778678001215643E-17 0.437329
v 0.461315 -1 0.4373290000000001
v -0.427988 -0.514589 0.43571200000000004
v 0.43426 -0.49732999999999994 0.46842600000000006
v 0.43426 -0.49733 0.41700400000000004
v -0.467549 2.476235827875948E-17 0.4044
v -0.467549 -1 0.40440000000000004
v -0.427988 -0.514589 0.3766300000000001
v 0.493189 4.1801848912735924E-17 0.682676
v 0.445804 4.1801848912735924E-17 0.682676
v 0.493189 -0.982178 0.6826750000000001
v 0.445804 -0.982178 0.6826750000000001
v -0.454463 4.1170910881815204E-17 0.672372
v -0.513855 4.1170910881815204E-17 0.672372
v -0.454463 -0.982178 0.6723710000000002
v -0.513855 -0.982178 0.6723710000000002
v 0.405965 -0.92387 0.7621700000000001
v 0.405965 -0.873773 0.76217
v 0.431013 -0.898821 0.76217
v 0.401489 -0.07633399999999996 0.76217
v 0.401489 -0.026236999999999955 0.76217
v 0.426537 -0.05128599999999995 0.76217
v 0.401489 -0.07633399999999997 0.460632
v 0.401489 -0.026236999999999972 0.460632
v 0.426537 -0.05128599999999997 0.460632
v 0.405965 -0.92387 0.46063200000000004
v 0.405965 -0.873773 0.46063200000000004
v 0.431013 -0.898821 0.46063200000000004
v -0.417452 -0.92387 0.7499170000000001
v -0.417452 -0.873773 0.749917
v -0.4425 -0.898821 0.749917
v -0.412975 -0.07633399999999996 0.749917
v -0.412975 -0.026236999999999955 0.749917
v -0.438024 -0.05128599999999995 0.749917
v -0.412975 -0.07633399999999997 0.451069
v -0.412975 -0.026236999999999972 0.451069
v -0.438024 -0.05128599999999997 0.450015
v -0.417452 -0.92387 0.46063200000000004
v -0.417452 -0.873773 0.46063200000000004
v -0.4425 -0.898821 0.46063200000000004
v 0.511288 -0.04490099999999998 0.347394
v 0.511288 0.06138000000000002 0.347394
v 0.511288 0.008240000000000018 0.294253
v -0.512191 -0.04490099999999998 0.347394
v -0.512191 0.06138000000000002 0.347394
v -0.512191 0.008240000000000018 0.294253
v 0.511288 -1.015078 0.34739400000000004
v 0.511288 -0.908797 0.34739400000000004
v 0.511288 -0.961937 0.29425300000000004
v -0.512191 -1.015078 0.34739400000000004
v -0.512191 -0.908797 0.34739400000000004
v -0.512191 -0.961937 0.29425300000000004
v -0.440415 -0.936516 0.43859600000000004
v -0.440415 -0.936516 -0.08447299999999995
v -0.440415 -0.05767099999999997 0.438596
v -0.440415 -0.05767100000000001 -0.084473
v 0.415588 -0.05767100000000001 -0.084473
v 0.415589 -0.936516 -0.08447199999999995
v 0.415588 -0.936516 0.43859600000000004
v 0.415588 -0.05767099999999997 0.438596
v -0.467549 -1 0.46348200000000006
v -0.467549 -1.994048 0.00809800000000012
v 0.461315 -1 0.48875100000000005
v 0.462296 -1.976789 0.00809800000000012
v 0.461315 -1 0.4373290000000001
v 0.462296 -1.976789 -0.04332399999999988
v -0.46804 -1.451528 0.2631040000000001
v 0.461806 -1.434269 0.23380700000000007
v 0.461806 -1.434269 0.18238500000000007
v -0.46853 -1 0.40440000000000004
v -0.467549 -1.994048 -0.05098399999999988
v -0.46804 -1.451528 0.2040220000000001
v 0.486976 -1.028716 0.6608360000000001
v 0.425789 -1.028716 0.6608360000000001
v 0.449566 -2.00534 0.2202080000000001
v 0.388379 -2.00534 0.2202080000000001
v -0.432723 -1.027022 0.6708520000000001
v -0.484372 -1.027022 0.6708520000000001
v -0.397174 -2.016768 0.2443400000000001
v -0.448823 -2.016768 0.2443400000000001
v 0.415205 -1.070395 0.40307400000000004
v 0.415205 -0.996543 0.40307400000000004
v 0.415205 -1.070395 -0.08566299999999993
v 0.415205 -0.996543 -0.08566299999999995
v -0.440415 -1.070395 0.40307400000000004
v -0.440415 -0.996543 0.40307400000000004
v -0.440415 -1.070395 -0.08566299999999993
v -0.440415 -0.996543 -0.08566299999999995
v 0.444466 -1.981517 0.3585180000000001
v 0.444466 -1.920413 0.3585180000000001
v 0.475019 -1.950965 0.3585180000000001
v 0.444467 -1.981517 1.213329225753033E-16
v 0.444467 -1.920413 1.175913816745483E-16
v 0.475019 -1.950965 1.194621521249258E-16
v -0.483619 -1.981517 0.3585180000000001
v -0.514171 -1.950965 0.3585180000000001
v -0.483619 -1.920413 0.3585180000000001
v -0.514171 -1.950965 1.194621521249258E-16
v -0.483619 -1.981517 1.213329225753033E-16
v -0.483619 -1.920413 1.175913816745483E-16
v 0.374037 -1.118052 0.6963170000000001
v 0.374037 -1.056948 0.6963170000000001
v 0.404589 -1.087501 0.6963170000000001
v 0.374037 -1.118053 0.40820300000000004
v 0.374037 -1.056948 0.40820300000000004
v 0.404589 -1.087501 0.40820300000000004
v -0.411338 -1.118052 0.6963170000000001
v -0.44189 -1.087501 0.6963170000000001
v -0.411338 -1.056948 0.6963170000000001
v -0.411338 -1.118053 0.40820300000000004
v -0.44189 -1.087501 0.40820300000000004
v -0.411338 -1.056948 0.40820300000000004
v -0.467549 1 0.46348199999999995
v -0.427988 0.485411 0.43571199999999993
v 0.43426 0.50267 0.46842599999999995
v 0.461315 1 0.48875099999999994
v 0.461315 2.99273673865034E-17 0.488751
v -0.467549 2.8380148620460636E-17 0.463483
v 0.43426 0.50267 0.41700399999999993
v 0.461315 1 0.43732899999999997
v 0.461315 2.6778678001215643E-17 0.437329
v -0.467549 1 0.4043999999999999
v -0.427988 0.485411 0.37662999999999996
v -0.467549 2.476235827875948E-17 0.4044
v 0.493189 1 0.6826759999999998
v 0.445804 1 0.6826759999999998
v 0.445804 0.017822000000000043 0.682675
v 0.493189 0.017822000000000043 0.682675
v -0.454463 1 0.6723719999999999
v -0.513855 1 0.6723719999999999
v -0.513855 0.017822000000000043 0.672371
v -0.454463 0.017822000000000043 0.672371
v 0.405965 0.07613000000000004 0.76217
v 0.405965 0.12622700000000006 0.76217
v 0.405965 0.12622700000000003 0.460632
v 0.405965 0.07613000000000003 0.460632
v 0.431013 0.10117800000000005 0.76217
v 0.431013 0.10117800000000003 0.460632
v 0.401489 0.923666 0.7621699999999999
v 0.401489 0.973763 0.7621699999999999
v 0.401489 0.973763 0.46063199999999993
v 0.401489 0.923666 0.46063199999999993
v 0.426537 0.948714 0.7621699999999999
v 0.426537 0.948714 0.46063199999999993
v -0.417452 0.07613000000000004 0.749917
v -0.417452 0.07613000000000003 0.460632
v -0.417452 0.12622700000000003 0.460632
v -0.417452 0.12622700000000006 0.749917
v -0.4425 0.10117800000000003 0.460632
v -0.4425 0.10117800000000005 0.749917
v -0.412975 0.923666 0.7499169999999998
v -0.412975 0.923666 0.45106899999999994
v -0.412975 0.973763 0.45106899999999994
v -0.412975 0.973763 0.7499169999999998
v -0.438024 0.948714 0.45001499999999994
v -0.438024 0.948714 0.7499169999999998
v 0.511288 0.926344 0.3473939999999999
v 0.511288 1.032625 0.3473939999999999
v -0.512191 1.032625 0.3473939999999999
v -0.512191 0.926344 0.3473939999999999
v 0.511288 0.979484 0.29425299999999993
v -0.512191 0.979484 0.29425299999999993
v -0.440415 0.942329 -0.08447300000000006
v -0.440415 0.063484 -0.084473
v -0.440415 0.06348400000000003 0.438596
v -0.440415 0.942329 0.43859599999999993
v 0.415588 0.942329 -0.08447300000000006
v 0.415588 0.942329 0.43859599999999993
v 0.415588 0.06348400000000003 0.438596
v 0.415589 0.063484 -0.084472
v 0.461315 1 0.48875099999999994
v 0.461806 1.434269 0.2338069999999999
v 0.462296 1.976789 0.008097999999999878
v -0.46804 1.451527 0.2631039999999999
v -0.467549 1 0.46348199999999995
v -0.46853 1 0.4043999999999999
v -0.46804 1.451527 0.2631039999999999
v -0.467549 1.994048 0.008097999999999878
v 0.444466 1.981517 0.3585179999999999
v 0.475019 1.950965 -1.194621521249258E-16
v 0.475019 1.950965 0.3585179999999999
v -0.483619 1.981517 -1.213329225753033E-16
v -0.483619 1.981517 0.3585179999999999
v 0.374037 1.118052 0.7134679999999999
v 0.374037 1.118053 0.4082029999999999
v -0.44189 1.087501 0.4082029999999999
v -0.411338 1.118053 0.4082029999999999
v -0.411338 1.118052 0.7036109999999999
v 0.43426 -0.49732999999999994 0.46842600000000006
v 0.461315 2.99273673865034E-17 0.488751
v 0.43426 -0.49733 0.41700400000000004
v 0.461315 -1 0.48875100000000005
v 0.43426 -0.49732999999999994 0.46842600000000006
v -0.467549 2.838008738812068E-17 0.463482
v -0.427988 -0.514589 0.43571200000000004
v -0.427988 -0.514589 0.3766300000000001
v -0.427988 -0.514589 0.43571200000000004
v -0.467549 -1 0.46348300000000003
v 0.431013 -0.898821 0.46063200000000004
v 0.431013 -0.898821 0.76217
v 0.426537 -0.05128599999999997 0.460632
v 0.426537 -0.05128599999999995 0.76217
v -0.417452 -0.873773 0.46063200000000004
v -0.417452 -0.873773 0.749917
v -0.412975 -0.07633399999999996 0.749917
v -0.412975 -0.07633399999999997 0.451069
v 0.511288 -0.04490099999999998 0.347394
v 0.511288 0.06138000000000002 0.347394
v -0.512191 0.06138000000000002 0.347394
v -0.512191 -0.04490099999999998 0.347394
v 0.511288 -1.015078 0.34739400000000004
v 0.511288 -0.908797 0.34739400000000004
v -0.512191 -0.908797 0.34739400000000004
v -0.512191 -1.015078 0.34739400000000004
v 0.461806 -1.434269 0.23380700000000007
v 0.461315 -1 0.48875100000000005
v 0.462296 -1.976789 0.00809800000000012
v -0.46804 -1.451528 0.2631040000000001
v -0.46853 -1 0.40440000000000004
v -0.467549 -1 0.46348200000000006
v -0.46804 -1.451528 0.2631040000000001
v -0.467549 -1.994048 0.00809800000000012
v 0.444466 -1.981517 0.3585180000000001
v 0.475019 -1.950965 0.3585180000000001
v 0.475019 -1.950965 1.194621521249258E-16
v -0.483619 -1.981517 1.213329225753033E-16
v -0.483619 -1.981517 0.3585180000000001
v 0.374037 -1.118052 0.6963170000000001
v 0.374037 -1.118053 0.40820300000000004
v -0.44189 -1.087501 0.40820300000000004
v -0.411338 -1.118053 0.40820300000000004
v -0.411338 -1.118052 0.6963170000000001
v 0.43426 0.50267 0.46842599999999995
v 0.461315 1 0.48875099999999994
v 0.43426 0.50267 0.41700399999999993
v 0.461315 2.99273673865034E-17 0.488751
v 0.43426 0.50267 0.46842599999999995
v -0.467549 1 0.46348199999999995
v -0.427988 0.485411 0.43571199999999993
v -0.427988 0.485411 0.37662999999999996
v -0.427988 0.485411 0.43571199999999993
v -0.467549 2.8380148620460636E-17 0.463483
v 0.431013 0.10117800000000003 0.460632
v 0.431013 0.10117800000000005 0.76217
v 0.426537 0.948714 0.46063199999999993
v 0.426537 0.948714 0.7621699999999999
v -0.417452 0.12622700000000003 0.460632
v -0.417452 0.12622700000000006 0.749917
v -0.412975 0.923666 0.7499169999999998
v -0.412975 0.923666 0.45106899999999994
v 0.511288 0.926344 0.3473939999999999
v 0.511288 1.032625 0.3473939999999999
v -0.512191 1.032625 0.3473939999999999
v -0.512191 0.926344 0.3473939999999999
v 0.444467 1.920413 -1.175913816745483E-16
v 0.444466 1.920413 0.3585179999999999
v 0.444466 1.920413 0.3585179999999999
v 0.444467 1.981517 -1.213329225753033E-16
v -0.514171 1.950965 -1.194621521249258E-16
v -0.514171 1.950965 -1.194621521249258E-16
v -0.514171 1.950965 0.3585179999999999
v -0.483619 1.920413 -0.0642700000000001
v -0.483619 1.920413 0.3585179999999999
v -0.483619 1.920413 0.3585179999999999
v 0.374037 1.056948 0.4082029999999999
v 0.374037 1.056948 0.7134679999999999
v 0.374037 1.056948 0.7134679999999999
v 0.404589 1.087501 0.4082029999999999
v 0.404589 1.087501 0.4082029999999999
v 0.404589 1.087501 0.7134679999999999
v -0.44189 1.087501 0.7036109999999999
v -0.44189 1.087501 0.7036109999999999
v -0.411338 1.056948 0.4082029999999999
v -0.411338 1.056948 0.7036109999999999
v -0.411338 1.056948 0.7036109999999999
v 0.405965 -0.873773 0.46063200000000004
v 0.405965 -0.873773 0.76217
v 0.405965 -0.873773 0.46063200000000004
v 0.405965 -0.92387 0.46063200000000004
v 0.405965 -0.92387 0.7621700000000001
v 0.405965 -0.92387 0.7621700000000001
v 0.401489 -0.026236999999999972 0.460632
v 0.401489 -0.026236999999999955 0.76217
v 0.401489 -0.026236999999999972 0.460632
v 0.401489 -0.07633399999999997 0.460632
v 0.401489 -0.07633399999999996 0.76217
v 0.401489 -0.07633399999999996 0.76217
v -0.417452 -0.92387 0.7499170000000001
v -0.417452 -0.92387 0.46063200000000004
v -0.4425 -0.898821 0.46063200000000004
v -0.4425 -0.898821 0.46063200000000004
v -0.4425 -0.898821 0.749917
v -0.417452 -0.92387 0.7499170000000001
v -0.412975 -0.026236999999999972 0.451069
v -0.412975 -0.026236999999999972 0.451069
v -0.412975 -0.026236999999999955 0.749917
v -0.438024 -0.05128599999999997 0.450015
v -0.438024 -0.05128599999999997 0.450015
v -0.438024 -0.05128599999999995 0.749917
v 0.444466 -1.920413 0.3585180000000001
v 0.444466 -1.920413 0.3585180000000001
v 0.444467 -1.920413 1.175913816745483E-16
v 0.444467 -1.981517 1.213329225753033E-16
v -0.514171 -1.950965 0.3585180000000001
v -0.514171 -1.950965 1.194621521249258E-16
v -0.514171 -1.950965 1.194621521249258E-16
v -0.483619 -1.920413 0.3585180000000001
v -0.483619 -1.920413 0.3585180000000001
v -0.483619 -1.920413 1.175913816745483E-16
v 0.374037 -1.056948 0.6963170000000001
v 0.374037 -1.056948 0.6963170000000001
v 0.374037 -1.056948 0.40820300000000004
v 0.404589 -1.087501 0.6963170000000001
v 0.404589 -1.087501 0.40820300000000004
v 0.404589 -1.087501 0.40820300000000004
v -0.44189 -1.087501 0.6963170000000001
v -0.44189 -1.087501 0.6963170000000001
v -0.411338 -1.056948 0.6963170000000001
v -0.411338 -1.056948 0.6963170000000001
v -0.411338 -1.056948 0.40820300000000004
v 0.405965 0.12622700000000003 0.460632
v 0.405965 0.12622700000000006 0.76217
v 0.405965 0.12622700000000003 0.460632
v 0.405965 0.07613000000000003 0.460632
v 0.405965 0.07613000000000004 0.76217
v 0.405965 0.07613000000000004 0.76217
v 0.401489 0.973763 0.46063199999999993
v 0.401489 0.973763 0.7621699999999999
v 0.401489 0.973763 0.46063199999999993
v 0.401489 0.923666 0.46063199999999993
v 0.401489 0.923666 0.7621699999999999
v 0.401489 0.923666 0.7621699999999999
v -0.417452 0.07613000000000004 0.749917
v -0.417452 0.07613000000000003 0.460632
v -0.4425 0.10117800000000003 0.460632
v -0.4425 0.10117800000000003 0.460632
v -0.4425 0.10117800000000005 0.749917
v -0.417452 0.07613000000000004 0.749917
v -0.412975 0.973763 0.45106899999999994
v -0.412975 0.973763 0.45106899999999994
v -0.412975 0.973763 0.7499169999999998
v -0.438024 0.948714 0.45001499999999994
v -0.438024 0.948714 0.45001499999999994
v -0.438024 0.948714 0.7499169999999998
vt 0.380413 0.035799
vt 0.381167 0.601117
vt 0.025424 0.028493
vt 0.024857 0.593421
vt 0.014668 0.041673
vt 0.012716 0.603750
vt 0.381459 0.291310
vt 0.025237 0.289084
vt 0.013426 0.300782
vt 0.394794 0.049750
vt 0.394853 0.614115
vt 0.395248 0.303820
vt 0.655037 0.964036
vt 0.655364 0.928316
vt 0.984165 0.953685
vt 0.983855 0.918657
vt 0.993037 0.650942
vt 0.992620 0.687341
vt 0.655107 0.624181
vt 0.655520 0.659277
vt 0.020392 0.870370
vt 0.047102 0.870370
vt 0.020392 0.613319
vt 0.047102 0.613319
vt 0.072926 0.870316
vt 0.099636 0.870316
vt 0.072926 0.613265
vt 0.099636 0.613265
vt 0.123510 0.617886
vt 0.145553 0.616921
vt 0.156580 0.616580
vt 0.126507 0.874293
vt 0.148620 0.872945
vt 0.159653 0.872101
vt 0.154911 0.889163
vt 0.154977 0.910690
vt 0.154730 0.931337
vt 0.025247 0.910674
vt 0.025311 0.889141
vt 0.025661 0.931343
vt 0.626567 0.752042
vt 0.615622 0.751850
vt 0.604570 0.751944
vt 0.625889 0.543561
vt 0.614801 0.544600
vt 0.603716 0.545094
vt 0.592342 0.779645
vt 0.603068 0.779480
vt 0.613458 0.779890
vt 0.592662 0.987829
vt 0.604111 0.988004
vt 0.612984 0.987697
vt 0.778356 0.534713
vt 0.777719 0.016563
vt 0.417373 0.534123
vt 0.416971 0.026366
vt 0.404021 0.531298
vt 0.403806 0.029221
vt 0.762830 0.269777
vt 0.427856 0.278717
vt 0.414529 0.278762
vt 0.793772 0.530226
vt 0.792695 0.020975
vt 0.778077 0.269768
vt 0.992310 0.798778
vt 0.992780 0.762404
vt 0.738256 0.780679
vt 0.739186 0.744380
vt 0.226525 0.786087
vt 0.226938 0.822539
vt 0.481679 0.779504
vt 0.481623 0.815915
vt 0.518047 0.770560
vt 0.499685 0.770560
vt 0.490498 0.770560
vt 0.517525 0.549229
vt 0.499162 0.549229
vt 0.489975 0.549229
vt 0.517525 0.757533
vt 0.499162 0.757533
vt 0.489975 0.757533
vt 0.518047 0.978861
vt 0.499685 0.978861
vt 0.490498 0.978861
vt 0.690659 0.550773
vt 0.691047 0.532415
vt 0.690273 0.569119
vt 0.645598 0.688044
vt 0.663967 0.688044
vt 0.673148 0.688044
vt 0.645598 0.901306
vt 0.663967 0.901306
vt 0.673148 0.901854
vt 0.794717 0.559552
vt 0.795105 0.541194
vt 0.794330 0.577898
vt 0.581752 0.928761
vt 0.581174 0.850796
vt 0.428337 0.589401
vt 0.185375 0.940474
vt 0.184798 0.862508
vt 0.422167 0.628815
vt 0.581703 0.758882
vt 0.582406 0.680920
vt 0.425993 0.542241
vt 0.185348 0.744554
vt 0.186052 0.666592
vt 0.420929 0.581485
vt 0.997947 0.619967
vt 0.828849 0.619967
vt 0.997947 0.013404
vt 0.828849 0.013404
vt 0.828849 0.013404
vt 0.828849 0.619967
vt 0.997947 0.619967
vt 0.997947 0.013404
vt 0.380413 0.035799
vt 0.381167 0.601117
vt 0.025424 0.028493
vt 0.024857 0.593421
vt 0.014668 0.041673
vt 0.012716 0.603750
vt 0.381459 0.291310
vt 0.025237 0.289084
vt 0.013426 0.300782
vt 0.394794 0.049750
vt 0.394853 0.614115
vt 0.395248 0.303820
vt 0.655037 0.964036
vt 0.655364 0.928316
vt 0.984165 0.953685
vt 0.983855 0.918657
vt 0.993037 0.650942
vt 0.992620 0.687341
vt 0.655107 0.624181
vt 0.655520 0.659277
vt 0.020392 0.870370
vt 0.047102 0.870370
vt 0.020392 0.613319
vt 0.047102 0.613319
vt 0.072926 0.870316
vt 0.099636 0.870316
vt 0.072926 0.613265
vt 0.099636 0.613265
vt 0.123510 0.617886
vt 0.145553 0.616921
vt 0.156580 0.616580
vt 0.126507 0.874293
vt 0.148620 0.872945
vt 0.159653 0.872101
vt 0.154911 0.889163
vt 0.154977 0.910690
vt 0.154730 0.931337
vt 0.025247 0.910674
vt 0.025311 0.889141
vt 0.025661 0.931343
vt 0.626567 0.752042
vt 0.615622 0.751850
vt 0.604570 0.751944
vt 0.625889 0.543561
vt 0.614801 0.544600
vt 0.603716 0.545094
vt 0.592342 0.779645
vt 0.603068 0.779480
vt 0.613458 0.779890
vt 0.592662 0.987829
vt 0.604111 0.988004
vt 0.612984 0.987697
vt 0.778356 0.025236
vt 0.762830 0.290172
vt 0.427856 0.281233
vt 0.417373 0.025826
vt 0.416971 0.533583
vt 0.777719 0.543386
vt 0.414529 0.281187
vt 0.404021 0.028651
vt 0.403806 0.530729
vt 0.793772 0.029723
vt 0.778077 0.290181
vt 0.792695 0.538974
vt 0.992310 0.798778
vt 0.992780 0.762404
vt 0.739186 0.744380
vt 0.738256 0.780679
vt 0.226525 0.786087
vt 0.226938 0.822539
vt 0.481623 0.815915
vt 0.481679 0.779504
vt 0.518047 0.770560
vt 0.499685 0.770560
vt 0.499685 0.978861
vt 0.518047 0.978861
vt 0.490498 0.770560
vt 0.490498 0.978861
vt 0.517525 0.549229
vt 0.499162 0.549229
vt 0.499162 0.757533
vt 0.517525 0.757533
vt 0.489975 0.549229
vt 0.489975 0.757533
vt 0.690659 0.550773
vt 0.794717 0.559552
vt 0.795105 0.541194
vt 0.691047 0.532415
vt 0.794330 0.577898
vt 0.690273 0.569119
vt 0.645598 0.688044
vt 0.645598 0.901306
vt 0.663967 0.901306
vt 0.663967 0.688044
vt 0.673148 0.901854
vt 0.673148 0.688044
vt 0.581752 0.928761
vt 0.581174 0.850796
vt 0.184798 0.862508
vt 0.185375 0.940474
vt 0.428337 0.589401
vt 0.422167 0.628815
vt 0.828849 0.013404
vt 0.828849 0.619967
vt 0.997947 0.619967
vt 0.997947 0.013404
vt 0.828849 0.013404
vt 0.997947 0.013404
vt 0.997947 0.619967
vt 0.828849 0.619967
vt 0.025424 0.028493
vt 0.025237 0.289084
vt 0.024857 0.593421
vt 0.381459 0.291310
vt 0.380413 0.035799
vt 0.394794 0.049750
vt 0.381459 0.291310
vt 0.381167 0.601117
vt 0.127188 0.618085
vt 0.115440 0.874166
vt 0.116122 0.617963
vt 0.025115 0.975307
vt 0.155118 0.975209
vt 0.593448 0.753082
vt 0.592606 0.543921
vt 0.601923 0.988640
vt 0.635504 0.989727
vt 0.635414 0.779257
vt 0.427856 0.278717
vt 0.417373 0.534123
vt 0.414529 0.278762
vt 0.416971 0.026366
vt 0.427856 0.278717
vt 0.778356 0.534713
vt 0.762830 0.269777
vt 0.778077 0.269768
vt 0.762830 0.269777
vt 0.777719 0.016563
vt 0.527234 0.978861
vt 0.527234 0.770560
vt 0.526712 0.757533
vt 0.526712 0.549229
vt 0.793943 0.596244
vt 0.689886 0.587466
vt 0.682335 0.688044
vt 0.682335 0.901307
vt 0.447828 0.588843
vt 0.428616 0.628383
vt 0.402684 0.627546
vt 0.422802 0.589849
vt 0.445482 0.541683
vt 0.426272 0.581221
vt 0.401446 0.580216
vt 0.421563 0.542519
vt 0.025237 0.289084
vt 0.025424 0.028493
vt 0.024857 0.593421
vt 0.381459 0.291310
vt 0.394794 0.049750
vt 0.380413 0.035799
vt 0.381459 0.291310
vt 0.381167 0.601117
vt 0.127188 0.618085
vt 0.116122 0.617963
vt 0.115440 0.874166
vt 0.025115 0.975307
vt 0.155118 0.975209
vt 0.593448 0.753082
vt 0.592606 0.543921
vt 0.601923 0.988640
vt 0.635504 0.989727
vt 0.635414 0.779257
vt 0.427856 0.281233
vt 0.417373 0.025826
vt 0.414529 0.281187
vt 0.416971 0.533583
vt 0.427856 0.281233
vt 0.778356 0.025236
vt 0.762830 0.290172
vt 0.778077 0.290181
vt 0.762830 0.290172
vt 0.777719 0.543386
vt 0.527234 0.978861
vt 0.527234 0.770560
vt 0.526712 0.757533
vt 0.526712 0.549229
vt 0.793943 0.596244
vt 0.689886 0.587466
vt 0.682335 0.688044
vt 0.682335 0.901307
vt 0.447828 0.588843
vt 0.428616 0.628383
vt 0.402684 0.627546
vt 0.422802 0.589849
vt 0.148620 0.872945
vt 0.145553 0.616921
vt 0.145553 0.616921
vt 0.126507 0.874293
vt 0.025247 0.910674
vt 0.025247 0.910674
vt 0.154977 0.910690
vt 0.025661 0.931343
vt 0.154730 0.931337
vt 0.154730 0.931337
vt 0.614801 0.544600
vt 0.615622 0.751850
vt 0.615622 0.751850
vt 0.603716 0.545094
vt 0.603716 0.545094
vt 0.604570 0.751944
vt 0.603068 0.779480
vt 0.603068 0.779480
vt 0.612984 0.987697
vt 0.613458 0.779890
vt 0.613458 0.779890
vt 0.499685 0.978861
vt 0.499685 0.770560
vt 0.499685 0.978861
vt 0.518047 0.978861
vt 0.518047 0.770560
vt 0.518047 0.770560
vt 0.499162 0.757533
vt 0.499162 0.549229
vt 0.499162 0.757533
vt 0.517525 0.757533
vt 0.517525 0.549229
vt 0.517525 0.549229
vt 0.690659 0.550773
vt 0.794717 0.559552
vt 0.794330 0.577898
vt 0.794330 0.577898
vt 0.690273 0.569119
vt 0.690659 0.550773
vt 0.663967 0.901306
vt 0.663967 0.901306
vt 0.663967 0.688044
vt 0.673148 0.901854
vt 0.673148 0.901854
vt 0.673148 0.688044
vt 0.145553 0.616921
vt 0.145553 0.616921
vt 0.148620 0.872945
vt 0.126507 0.874293
vt 0.154977 0.910690
vt 0.025247 0.910674
vt 0.025247 0.910674
vt 0.154730 0.931337
vt 0.154730 0.931337
vt 0.025661 0.931343
vt 0.615622 0.751850
vt 0.615622 0.751850
vt 0.614801 0.544600
vt 0.604570 0.751944
vt 0.603716 0.545094
vt 0.603716 0.545094
vt 0.603068 0.779480
vt 0.603068 0.779480
vt 0.613458 0.779890
vt 0.613458 0.779890
vt 0.612984 0.987697
vt 0.499685 0.978861
vt 0.499685 0.770560
vt 0.499685 0.978861
vt 0.518047 0.978861
vt 0.518047 0.770560
vt 0.518047 0.770560
vt 0.499162 0.757533
vt 0.499162 0.549229
vt 0.499162 0.757533
vt 0.517525 0.757533
vt 0.517525 0.549229
vt 0.517525 0.549229
vt 0.690659 0.550773
vt 0.794717 0.559552
vt 0.794330 0.577898
vt 0.794330 0.577898
vt 0.690273 0.569119
vt 0.690659 0.550773
vt 0.663967 0.901306
vt 0.663967 0.901306
vt 0.663967 0.688044
vt 0.673148 0.901854
vt 0.673148 0.901854
vt 0.673148 0.688044
vn -0.024858 0.40548300000000004 0.913765
vn 0.007895 0.42537100000000005 0.904985
vn 0.005855 0.45663800000000004 0.889634
vn 0.022053 0.40475000000000005 0.914162
vn 0.999999 -0.001129 6.913131181186809E-20
vn 1 -0.000904 5.535403532146036E-20
vn 0.013967 0.43086300000000005 0.902309
vn 0.036454 0.44590900000000006 0.894336
vn 0.999999 -0.001129 6.913131181186809E-20
vn -0.999843 0.006281000000000001 0.0166
vn -1 0.000904 -5.535403532146036E-20
vn -0.999999 0.001086 -6.649832119370127E-20
vn 0 0.41360800000000003 0.910455
vn 0 0.41360800000000003 0.910455
vn 0 0.41360800000000003 0.910455
vn 0 0.41360800000000003 0.910455
vn 0 0.3912320000000001 0.920292
vn 0 0.3912320000000001 0.920292
vn 0 0.3912320000000001 0.920292
vn 0 0.3912320000000001 0.920292
vn 1 0 0
vn 1 0 0
vn 1 0 0
vn 1 0 0
vn -1 0 0
vn -1 0 0
vn -1 0 0
vn -1 0 0
vn -0.382683 0.92388 -5.657133423981284E-17
vn 0.281084 -0.959683 5.876363570730647E-17
vn 1 1E-06 -6.123233995736766E-23
vn -0.382682 0.92388 -5.657133423981284E-17
vn -0.877355 -0.479842 -9.99999999970618E-07
vn 1 -1E-06 6.123233995736766E-23
vn 0.382683 0.92388 9.999999999434285E-07
vn -0.948683 0.316228 -1.9363380400038462E-17
vn 0.382684 -0.92388 5.657133423981284E-17
vn -0.948683 -0.316228 1.9363380400038462E-17
vn 0.382684 0.92388 9.999999999434285E-07
vn 0.382685 -0.923879 5.657127300747288E-17
vn -0.382684 0.923879 -5.657127300747288E-17
vn 0.281087 -0.959682 5.876357447496651E-17
vn 1 4E-06 -2.4492935982947065E-22
vn -0.382682 0.92388 9.999999999434285E-07
vn -0.877356 -0.479841 2.938178723748326E-17
vn 1 2E-06 9.999999999999997E-07
vn 0.382685 0.923879 1.9999999999434287E-06
vn -1 2E-06 -1.2246467991473532E-22
vn 0.877356 -0.479841 1.0000000000293818E-06
vn 0.382684 0.923879 9.999999999434287E-07
vn -1 -0 0
vn -0.281087 -0.959682 5.876357447496651E-17
vn -0.031948 -0.04800699999999994 0.998336
vn -0.027146 0.05930200000000006 0.997871
vn -0.027173 -0.03934199999999994 0.998856
vn -0.032901 0.04880100000000006 0.998267
vn 0.998524 -0.054321 3.3262019388241687E-18
vn 0.998555 0.053746 -3.2909933433486826E-18
vn -0.034217 0.013660000000000061 0.999321
vn -0.034211 -0.01925499999999994 0.999229
vn 0.998524 -0.054321 3.3262019388241687E-18
vn -0.997058 -0.076653 4.693642554752103E-18
vn -0.996695 0.081231 -4.9739642070769326E-18
vn -0.997058 -0.076653 4.693642554752103E-18
vn 0 6.123233995736766E-17 1
vn 0 6.123233995736766E-17 1
vn 0 6.123233995736766E-17 1
vn 0 6.123233995736766E-17 1
vn 0 6.123233995736766E-17 1
vn 0 6.123233995736766E-17 1
vn 0 6.123233995736766E-17 1
vn 0 6.123233995736766E-17 1
vn 0.281091 -0.959681 5.876351324262656E-17
vn -0.877355 0.479841 -1.0000000000293818E-06
vn 0.948682 0.31623 -1.9363502864718376E-17
vn 0.281085 -0.959683 5.876363570730647E-17
vn -0.877355 0.479841 -2.938178723748326E-17
vn 0.948683 0.316228 -1.9363380400038462E-17
vn -0.877355 -0.479841 2.938178723748326E-17
vn 0.281085 0.959683 -5.876363570730647E-17
vn 0.948683 -0.316227 1.9363319167698502E-17
vn -0.877356 -0.479841 2.938178723748326E-17
vn 0.281083 0.959684 -5.876369693964643E-17
vn 0.948685 -0.316223 1.9363074238338673E-17
vn 0.382681 -0.923881 5.657139547215278E-17
vn 0.382682 0.92388 -1.0000000000565714E-06
vn -0.948683 0.31623 -1.9363502864718376E-17
vn 0.382683 -0.92388 5.657133423981284E-17
vn 0.382683 0.92388 -5.657133423981284E-17
vn -0.948683 0.316228 -1.9363380400038462E-17
vn 0.382683 -0.92388 5.657133423981284E-17
vn 0.382683 0.92388 -5.657133423981284E-17
vn -0.948683 -0.316228 1.9363380400038462E-17
vn 0.382681 -0.923881 5.657139547215278E-17
vn 0.382684 0.923879 -5.657127300747288E-17
vn -0.948685 -0.316222 1.9363013005998716E-17
vn -0 6.123233995736766E-17 1
vn -0 6.123233995736766E-17 1
vn 1 0 0
vn -0 6.123233995736766E-17 1
vn -0 6.123233995736766E-17 1
vn -1 0 0
vn -0 6.123233995736766E-17 1
vn -0 6.123233995736766E-17 1
vn 1 0 0
vn -0 6.123233995736766E-17 1
vn -0 6.123233995736766E-17 1
vn -1 0 0
vn -1 0 0
vn -1 0 0
vn -1 0 0
vn -1 0 0
vn 1 0 0
vn 1 0 0
vn 1 0 0
vn 1 0 0
vn -0.024858 -0.4054829999999999 0.913765
vn 0.007895 -0.42537099999999994 0.904985
vn 0.005855 -0.45663699999999996 0.889634
vn 0.022053 -0.40474999999999994 0.914162
vn 0.999999 0.001129 -6.913131181186809E-20
vn 1 0.000904 -5.535403532146036E-20
vn 0.013967 -0.43086299999999994 0.902309
vn 0.036455 -0.44590899999999994 0.894336
vn 0.999999 0.001129 -6.913131181186809E-20
vn -0.999999 -0.001086 6.649832119370127E-20
vn -1 -0.000904 5.535403532146036E-20
vn -0.999999 -0.001086 6.649832119370127E-20
vn 0 -0.4112549999999999 0.91152
vn 0 -0.4112549999999999 0.91152
vn 0 -0.4112549999999999 0.91152
vn 0 -0.4112549999999999 0.91152
vn 0 -0.39574999999999994 0.918359
vn 0 -0.39574999999999994 0.918359
vn 0 -0.39574999999999994 0.918359
vn 0 -0.39574999999999994 0.918359
vn 1 0 0
vn 1 0 0
vn 1 0 0
vn 1 0 0
vn -1 0 0
vn -1 0 0
vn -1 0 0
vn -1 0 0
vn -0.382684 -0.923879 5.657127300747288E-17
vn 0.281087 0.959682 -5.876357447496651E-17
vn 1 -4E-06 2.4492935982947065E-22
vn -0.382682 -0.92388 1.0000000000565714E-06
vn -0.877356 0.479841 -2.938178723748326E-17
vn 1 -2E-06 1.0000000000000002E-06
vn 0.382685 -0.923879 2.000000000056571E-06
vn -0.948683 -0.31623 1.9363502864718376E-17
vn 0.382683 0.92388 9.999999999434285E-07
vn -0.948684 0.316226 -1.9363257935358545E-17
vn 0.382684 -0.923879 1.0000000000565712E-06
vn 0.382683 0.92388 -5.657133423981284E-17
vn -0.382684 -0.923879 5.657127300747288E-17
vn 0.281087 0.959682 -5.876357447496651E-17
vn 1 -4E-06 2.4492935982947065E-22
vn -0.382682 -0.92388 1.0000000000565714E-06
vn -0.877356 0.479841 -1.0000000000293818E-06
vn 1 -2E-06 1.0000000000000002E-06
vn 0.382685 -0.923879 2.000000000056571E-06
vn -1 -2E-06 1.2246467991473532E-22
vn 0.877356 0.479841 9.99999999970618E-07
vn 0.382684 -0.923879 2.000000000056571E-06
vn -1 -0 0
vn -0.281087 0.959682 -5.876357447496651E-17
vn -0.031948 -0.04800699999999994 0.998336
vn -0.034217 0.013660000000000061 0.999321
vn -0.034211 -0.01925499999999994 0.999229
vn -0.027173 -0.03934299999999994 0.998856
vn -0.032901 0.04880100000000006 0.998267
vn -0.027146 0.05930200000000006 0.997871
vn 0.998524 -0.054321 3.3262019388241687E-18
vn 0.998524 -0.054321 3.3262019388241687E-18
vn 0.998555 0.053746 -3.2909933433486826E-18
vn -0.997058 -0.076653 4.693642554752103E-18
vn -0.997058 -0.076653 4.693642554752103E-18
vn -0.996695 0.081231 -4.9739642070769326E-18
vn 0 6.123233995736766E-17 1
vn 0 6.123233995736766E-17 1
vn 0 6.123233995736766E-17 1
vn 0 6.123233995736766E-17 1
vn 0 6.123233995736766E-17 1
vn 0 6.123233995736766E-17 1
vn 0 6.123233995736766E-17 1
vn 0 6.123233995736766E-17 1
vn 0.281091 -0.959681 5.876351324262656E-17
vn -0.877355 0.479841 -1.0000000000293818E-06
vn 0.281083 0.959684 -5.876369693964643E-17
vn -0.877356 -0.479841 2.938178723748326E-17
vn 0.948682 0.31623 -1.9363502864718376E-17
vn 0.948685 -0.316223 1.9363074238338673E-17
vn 0.281085 -0.959683 5.876363570730647E-17
vn -0.877355 0.479841 -2.938178723748326E-17
vn 0.281085 0.959683 -5.876363570730647E-17
vn -0.877355 -0.479842 2.9381848469823214E-17
vn 0.948683 0.316228 -1.9363380400038462E-17
vn 0.948683 -0.316227 1.9363319167698502E-17
vn 0.382681 -0.923881 5.657139547215278E-17
vn 0.382681 -0.92388 5.657133423981284E-17
vn 0.382684 0.923879 -5.657127300747288E-17
vn 0.382682 0.92388 -1.0000000000565714E-06
vn -0.948685 -0.316222 1.9363013005998716E-17
vn -0.948683 0.31623 -1.9363502864718376E-17
vn 0.382683 -0.92388 5.657133423981284E-17
vn 0.382683 -0.92388 5.657133423981284E-17
vn 0.382683 0.92388 -5.657133423981284E-17
vn 0.382683 0.92388 -5.657133423981284E-17
vn -0.948683 -0.316228 1.9363380400038462E-17
vn -0.948683 0.316228 -1.9363380400038462E-17
vn -0 -9.999999999387675E-07 1
vn -0 -9.999999999387675E-07 1
vn -0 6.123233995736766E-17 1
vn -0 -9.999999999387675E-07 1
vn 1 0 0
vn -1 0 0
vn -1 0 0
vn -1 0 0
vn -1 0 0
vn -1 0 0
vn 1 0 0
vn 1 0 0
vn 1 0 0
vn 1 0 0
vn 0.999999 -0.001129 6.913131181186809E-20
vn 0.999999 -0.001129 6.913131181186809E-20
vn 1 -0.000904 5.535403532146036E-20
vn -0.999843 0.006281000000000001 0.0166
vn -0.999843 0.006281000000000001 0.0166
vn -0.999999 0.001086 -6.649832119370127E-20
vn -0.999999 0.001086 -6.649832119370127E-20
vn -1 0.000904 -5.535403532146036E-20
vn -0.382683 0.92388 -5.657133423981284E-17
vn 1 -1E-06 6.123233995736766E-23
vn 1 1E-06 -6.123233995736766E-23
vn 0.382684 0.92388 9.999999999434285E-07
vn 0.382683 0.92388 9.999999999434285E-07
vn -0.382684 0.923879 -5.657127300747288E-17
vn -0.382682 0.92388 9.999999999434285E-07
vn -1 -0 0
vn 0.382684 0.923879 9.999999999434287E-07
vn 0.382685 0.923879 1.9999999999434287E-06
vn 0.998524 -0.054321 3.3262019388241687E-18
vn 0.998524 -0.054321 3.3262019388241687E-18
vn 0.998555 0.053746 -3.2909933433486826E-18
vn 0.998555 0.053746 -3.2909933433486826E-18
vn 0.998555 0.053746 -3.2909933433486826E-18
vn -0.997058 -0.076653 4.693642554752103E-18
vn -0.997058 -0.076653 4.693642554752103E-18
vn -0.996695 0.081231 -4.9739642070769326E-18
vn -0.996695 0.081231 -4.9739642070769326E-18
vn -0.996695 0.081231 -4.9739642070769326E-18
vn 0.948685 -0.316223 1.9363074238338673E-17
vn 0.948682 0.31623 -1.9363502864718376E-17
vn 0.948683 -0.316227 1.9363319167698502E-17
vn 0.948683 0.316228 -1.9363380400038462E-17
vn 0.382684 0.923879 -5.657127300747288E-17
vn 0.382682 0.92388 -1.0000000000565714E-06
vn 0.382683 -0.92388 5.657133423981284E-17
vn 0.382683 -0.92388 5.657133423981284E-17
vn 1 0 0
vn 1 0 0
vn -1 0 0
vn -1 0 0
vn 1 0 0
vn 1 0 0
vn -1 0 0
vn -1 0 0
vn 0.999999 0.001129 -6.913131181186809E-20
vn 0.999999 0.001129 -6.913131181186809E-20
vn 1 0.000904 -5.535403532146036E-20
vn -0.999999 -0.001086 6.649832119370127E-20
vn -0.999843 -0.006280999999999999 0.0166
vn -0.999843 -0.006280999999999999 0.0166
vn -0.999843 -0.006280999999999999 0.0166
vn -1 -0.000904 5.535403532146036E-20
vn -0.382684 -0.923879 5.657127300747288E-17
vn 1 -4E-06 2.4492935982947065E-22
vn 1 -2E-06 1.0000000000000002E-06
vn 0.382684 -0.923879 1.0000000000565712E-06
vn 0.382685 -0.923879 2.000000000056571E-06
vn -0.382684 -0.923879 5.657127300747288E-17
vn -0.382682 -0.92388 1.0000000000565714E-06
vn -1 -0 0
vn 0.382684 -0.923879 2.000000000056571E-06
vn 0.382685 -0.923879 2.000000000056571E-06
vn 0.998524 -0.054321 3.3262019388241687E-18
vn 0.998524 -0.054321 3.3262019388241687E-18
vn 0.998555 0.053746 -3.2909933433486826E-18
vn 0.998555 0.053746 -3.2909933433486826E-18
vn 0.998555 0.053746 -3.2909933433486826E-18
vn -0.997058 -0.076653 4.693642554752103E-18
vn -0.997058 -0.076653 4.693642554752103E-18
vn -0.996695 0.081231 -4.9739642070769326E-18
vn -0.996695 0.081231 -4.9739642070769326E-18
vn -0.996695 0.081231 -4.9739642070769326E-18
vn 0.948685 -0.316223 1.9363074238338673E-17
vn 0.948682 0.31623 -1.9363502864718376E-17
vn 0.948683 -0.316227 1.9363319167698502E-17
vn 0.948683 0.316228 -1.9363380400038462E-17
vn 0.382684 0.923879 -5.657127300747288E-17
vn 0.382682 0.92388 -1.0000000000565714E-06
vn 0.382683 -0.92388 5.657133423981284E-17
vn 0.382683 -0.92388 5.657133423981284E-17
vn 1 0 0
vn 1 0 0
vn -1 0 0
vn -1 0 0
vn -0.877355 -0.479842 -9.99999999970618E-07
vn 0.281084 -0.959683 5.876363570730647E-17
vn 0.281084 -0.959683 5.876363570730647E-17
vn -0.382682 0.92388 -5.657133423981284E-17
vn -0.948683 -0.316228 1.9363380400038462E-17
vn -0.948683 -0.316228 1.9363380400038462E-17
vn -0.948683 0.316228 -1.9363380400038462E-17
vn 0.382685 -0.923879 5.657127300747288E-17
vn 0.382684 -0.92388 5.657133423981284E-17
vn 0.382684 -0.92388 5.657133423981284E-17
vn -0.877356 -0.479841 2.938178723748326E-17
vn 0.281087 -0.959682 5.876357447496651E-17
vn 0.281087 -0.959682 5.876357447496651E-17
vn 1 2E-06 9.999999999999997E-07
vn 1 2E-06 9.999999999999997E-07
vn 1 4E-06 -2.4492935982947065E-22
vn -1 2E-06 -1.2246467991473532E-22
vn -1 2E-06 -1.2246467991473532E-22
vn -0.281087 -0.959682 5.876357447496651E-17
vn 0.877356 -0.479841 1.0000000000293818E-06
vn 0.877356 -0.479841 1.0000000000293818E-06
vn 0.281083 0.959684 -5.876369693964643E-17
vn -0.877355 0.479841 -1.0000000000293818E-06
vn 0.281083 0.959684 -5.876369693964643E-17
vn -0.877356 -0.479841 2.938178723748326E-17
vn 0.281091 -0.959681 5.876351324262656E-17
vn 0.281091 -0.959681 5.876351324262656E-17
vn 0.281085 0.959683 -5.876363570730647E-17
vn -0.877355 0.479841 -2.938178723748326E-17
vn 0.281085 0.959683 -5.876363570730647E-17
vn -0.877355 -0.479841 2.938178723748326E-17
vn 0.281085 -0.959683 5.876363570730647E-17
vn 0.281085 -0.959683 5.876363570730647E-17
vn 0.382681 -0.923881 5.657139547215278E-17
vn 0.382681 -0.923881 5.657139547215278E-17
vn -0.948685 -0.316222 1.9363013005998716E-17
vn -0.948685 -0.316222 1.9363013005998716E-17
vn -0.948683 0.31623 -1.9363502864718376E-17
vn 0.382681 -0.923881 5.657139547215278E-17
vn 0.382683 0.92388 -5.657133423981284E-17
vn 0.382683 0.92388 -5.657133423981284E-17
vn 0.382683 0.92388 -5.657133423981284E-17
vn -0.948683 -0.316228 1.9363380400038462E-17
vn -0.948683 -0.316228 1.9363380400038462E-17
vn -0.948683 0.316228 -1.9363380400038462E-17
vn 0.281087 0.959682 -5.876357447496651E-17
vn 0.281087 0.959682 -5.876357447496651E-17
vn -0.877356 0.479841 -2.938178723748326E-17
vn -0.382682 -0.92388 1.0000000000565714E-06
vn -0.948683 -0.31623 1.9363502864718376E-17
vn -0.948684 0.316226 -1.9363257935358545E-17
vn -0.948684 0.316226 -1.9363257935358545E-17
vn 0.382683 0.92388 9.999999999434285E-07
vn 0.382683 0.92388 9.999999999434285E-07
vn 0.382683 0.92388 -5.657133423981284E-17
vn 0.281087 0.959682 -5.876357447496651E-17
vn 0.281087 0.959682 -5.876357447496651E-17
vn -0.877356 0.479841 -1.0000000000293818E-06
vn 1 -4E-06 2.4492935982947065E-22
vn 1 -2E-06 1.0000000000000002E-06
vn 1 -2E-06 1.0000000000000002E-06
vn -1 -2E-06 1.2246467991473532E-22
vn -1 -2E-06 1.2246467991473532E-22
vn 0.877356 0.479841 9.99999999970618E-07
vn 0.877356 0.479841 9.99999999970618E-07
vn -0.281087 0.959682 -5.876357447496651E-17
vn 0.281083 0.959684 -5.876369693964643E-17
vn -0.877355 0.479841 -1.0000000000293818E-06
vn 0.281083 0.959684 -5.876369693964643E-17
vn -0.877356 -0.479841 2.938178723748326E-17
vn 0.281091 -0.959681 5.876351324262656E-17
vn 0.281091 -0.959681 5.876351324262656E-17
vn 0.281085 0.959683 -5.876363570730647E-17
vn -0.877355 0.479841 -2.938178723748326E-17
vn 0.281085 0.959683 -5.876363570730647E-17
vn -0.877355 -0.479842 2.9381848469823214E-17
vn 0.281085 -0.959683 5.876363570730647E-17
vn 0.281085 -0.959683 5.876363570730647E-17
vn 0.382681 -0.923881 5.657139547215278E-17
vn 0.382681 -0.92388 5.657133423981284E-17
vn -0.948685 -0.316222 1.9363013005998716E-17
vn -0.948685 -0.316222 1.9363013005998716E-17
vn -0.948683 0.31623 -1.9363502864718376E-17
vn 0.382681 -0.923881 5.657139547215278E-17
vn 0.382683 0.92388 -5.657133423981284E-17
vn 0.382683 0.92388 -5.657133423981284E-17
vn 0.382683 0.92388 -5.657133423981284E-17
vn -0.948683 -0.316228 1.9363380400038462E-17
vn -0.948683 -0.316228 1.9363380400038462E-17
vn -0.948683 0.316228 -1.9363380400038462E-17
g 04 - Default
f 225/225/225 226/226/226 223/223/223
f 223/223/223 224/224/224 225/225/225
f 221/221/221 222/222/222 219/219/219
f 219/219/219 220/220/220 221/221/221
f 310/310/310 309/309/309 218/218/218
f 217/217/217 308/308/308 307/307/307
f 216/216/216 213/213/213 214/214/214
f 214/214/214 215/215/215 216/216/216
f 305/305/305 400/400/400 399/399/399
f 398/398/398 306/306/306 305/305/305
f 212/212/212 397/397/397 396/396/396
f 395/395/395 211/211/211 212/212/212
f 209/209/209 210/210/210 207/207/207
f 207/207/207 208/208/208 209/209/209
f 394/394/394 393/393/393 392/392/392
f 391/391/391 390/390/390 389/389/389
f 206/206/206 304/304/304 303/303/303
f 303/303/303 205/205/205 206/206/206
f 203/203/203 204/204/204 201/201/201
f 201/201/201 202/202/202 203/203/203
f 301/301/301 302/302/302 388/388/388
f 387/387/387 386/386/386 301/301/301
f 385/385/385 384/384/384 199/199/199
f 199/199/199 200/200/200 383/383/383
f 198/198/198 195/195/195 196/196/196
f 196/196/196 197/197/197 198/198/198
f 299/299/299 300/300/300 382/382/382
f 381/381/381 380/380/380 299/299/299
f 379/379/379 378/378/378 193/193/193
f 193/193/193 194/194/194 377/377/377
f 192/192/192 189/189/189 190/190/190
f 190/190/190 191/191/191 192/192/192
f 187/187/187 188/188/188 185/185/185
f 185/185/185 186/186/186 187/187/187
f 183/183/183 184/184/184 181/181/181
f 181/181/181 182/182/182 183/183/183
f 296/296/296 180/180/180 298/298/298
f 298/298/298 297/297/297 296/296/296
f 178/178/178 179/179/179 295/295/295
f 295/295/295 294/294/294 178/178/178
f 291/291/291 293/293/293 292/292/292
f 292/292/292 177/177/177 291/291/291
f 176/176/176 290/290/290 289/289/289
f 289/289/289 175/175/175 176/176/176
f 170/170/170 174/174/174 173/173/173
f 173/173/173 171/171/171 170/170/170
f 171/171/171 172/172/172 169/169/169
f 169/169/169 170/170/170 171/171/171
f 287/287/287 376/376/376 375/375/375
f 374/374/374 288/288/288 287/287/287
f 168/168/168 286/286/286 373/373/373
f 372/372/372 165/165/165 168/168/168
f 164/164/164 167/167/167 166/166/166
f 166/166/166 163/163/163 164/164/164
f 284/284/284 285/285/285 371/371/371
f 370/370/370 369/369/369 284/284/284
f 162/162/162 368/368/368 367/367/367
f 366/366/366 159/159/159 162/162/162
f 161/161/161 160/160/160 157/157/157
f 157/157/157 158/158/158 161/161/161
f 282/282/282 365/365/365 364/364/364
f 363/363/363 283/283/283 282/282/282
f 153/153/153 156/156/156 362/362/362
f 361/361/361 360/360/360 153/153/153
f 152/152/152 154/154/154 155/155/155
f 155/155/155 151/151/151 152/152/152
f 279/279/279 359/359/359 281/281/281
f 281/281/281 280/280/280 279/279/279
f 150/150/150 358/358/358 357/357/357
f 356/356/356 147/147/147 150/150/150
f 149/149/149 148/148/148 145/145/145
f 145/145/145 146/146/146 149/149/149
f 144/144/144 143/143/143 141/141/141
f 141/141/141 142/142/142 144/144/144
f 139/139/139 140/140/140 138/138/138
f 138/138/138 137/137/137 139/139/139
f 136/136/136 135/135/135 133/133/133
f 133/133/133 134/134/134 136/136/136
f 132/132/132 131/131/131 129/129/129
f 129/129/129 130/130/130 132/132/132
f 128/128/128 127/127/127 278/278/278
f 278/278/278 274/274/274 128/128/128
f 277/277/277 276/276/276 275/275/275
f 126/126/126 128/128/128 274/274/274
f 125/125/125 271/271/271 273/273/273
f 273/273/273 122/122/122 125/125/125
f 120/120/120 124/124/124 123/123/123
f 123/123/123 118/118/118 120/120/120
f 121/121/121 272/272/272 271/271/271
f 271/271/271 125/125/125 121/121/121
f 123/123/123 124/124/124 119/119/119
f 119/119/119 117/117/117 123/123/123
f 115/115/115 114/114/114 113/113/113
f 113/113/113 116/116/116 115/115/115
f 109/109/109 111/111/111 112/112/112
f 112/112/112 110/110/110 109/109/109
f 270/270/270 269/269/269 108/108/108
f 105/105/105 268/268/268 267/267/267
f 106/106/106 103/103/103 104/104/104
f 104/104/104 107/107/107 106/106/106
f 266/266/266 265/265/265 102/102/102
f 99/99/99 264/264/264 263/263/263
f 100/100/100 97/97/97 98/98/98
f 98/98/98 101/101/101 100/100/100
f 261/261/261 355/355/355 354/354/354
f 353/353/353 262/262/262 261/261/261
f 90/90/90 352/352/352 351/351/351
f 350/350/350 93/93/93 90/90/90
f 92/92/92 89/89/89 88/88/88
f 88/88/88 91/91/91 92/92/92
f 349/349/349 348/348/348 347/347/347
f 346/346/346 345/345/345 344/344/344
f 87/87/87 260/260/260 259/259/259
f 259/259/259 96/96/96 87/87/87
f 95/95/95 86/86/86 85/85/85
f 85/85/85 94/94/94 95/95/95
f 257/257/257 258/258/258 343/343/343
f 342/342/342 341/341/341 257/257/257
f 340/340/340 339/339/339 78/78/78
f 78/78/78 81/81/81 338/338/338
f 79/79/79 76/76/76 77/77/77
f 77/77/77 80/80/80 79/79/79
f 255/255/255 256/256/256 337/337/337
f 336/336/336 335/335/335 255/255/255
f 334/334/334 333/333/333 75/75/75
f 75/75/75 84/84/84 332/332/332
f 82/82/82 73/73/73 74/74/74
f 74/74/74 83/83/83 82/82/82
f 72/72/72 71/71/71 69/69/69
f 69/69/69 70/70/70 72/72/72
f 68/68/68 67/67/67 65/65/65
f 65/65/65 66/66/66 68/68/68
f 252/252/252 63/63/63 254/254/254
f 254/254/254 253/253/253 252/252/252
f 62/62/62 64/64/64 251/251/251
f 251/251/251 250/250/250 62/62/62
f 247/247/247 249/249/249 248/248/248
f 248/248/248 58/58/58 247/247/247
f 57/57/57 246/246/246 245/245/245
f 245/245/245 61/61/61 57/57/57
f 59/59/59 54/54/54 56/56/56
f 56/56/56 60/60/60 59/59/59
f 60/60/60 55/55/55 53/53/53
f 53/53/53 59/59/59 60/60/60
f 243/243/243 244/244/244 331/331/331
f 330/330/330 329/329/329 243/243/243
f 52/52/52 49/49/49 328/328/328
f 327/327/327 242/242/242 52/52/52
f 48/48/48 47/47/47 50/50/50
f 50/50/50 51/51/51 48/48/48
f 240/240/240 326/326/326 325/325/325
f 324/324/324 241/241/241 240/240/240
f 46/46/46 43/43/43 323/323/323
f 322/322/322 321/321/321 46/46/46
f 45/45/45 42/42/42 41/41/41
f 41/41/41 44/44/44 45/45/45
f 238/238/238 239/239/239 320/320/320
f 319/319/319 318/318/318 238/238/238
f 37/37/37 317/317/317 316/316/316
f 315/315/315 40/40/40 37/37/37
f 36/36/36 35/35/35 39/39/39
f 39/39/39 38/38/38 36/36/36
f 235/235/235 237/237/237 236/236/236
f 236/236/236 314/314/314 235/235/235
f 34/34/34 31/31/31 313/313/313
f 312/312/312 311/311/311 34/34/34
f 33/33/33 30/30/30 29/29/29
f 29/29/29 32/32/32 33/33/33
f 28/28/28 26/26/26 25/25/25
f 25/25/25 27/27/27 28/28/28
f 23/23/23 21/21/21 22/22/22
f 22/22/22 24/24/24 23/23/23
f 18/18/18 17/17/17 19/19/19
f 19/19/19 20/20/20 18/18/18
f 14/14/14 13/13/13 15/15/15
f 15/15/15 16/16/16 14/14/14
f 12/12/12 233/233/233 234/234/234
f 234/234/234 11/11/11 12/12/12
f 233/233/233 12/12/12 232/232/232
f 10/10/10 231/231/231 230/230/230
f 9/9/9 6/6/6 229/229/229
f 229/229/229 228/228/228 9/9/9
f 4/4/4 2/2/2 7/7/7
f 7/7/7 8/8/8 4/4/4
f 5/5/5 9/9/9 228/228/228
f 228/228/228 227/227/227 5/5/5
f 7/7/7 1/1/1 3/3/3
f 3/3/3 8/8/8 7/7/7
