v 0.335791 0.68142 0.03698699999999996
v -0.082534 0.624978 0.03698699999999996
v 0.13419 0.597154 0.036986999999999964
v -0.340576 0.959037 0.036986999999999944
v -0.25631 0.757436 0.03698699999999995
v -0.180294 1.349538 0.036986999999999916
v -0.312753 1.175761 0.03698699999999993
v 0.468249 0.855197 0.036986999999999944
v 0.496073 1.07192 0.03698699999999994
v 0.238031 1.40598 0.036986999999999916
v 0.021306 1.433803 0.03698699999999991
v 0.411807 1.273521 0.03698699999999992
vt 0.533032 0.845108
vt 0.360864 0.845108
vt 0.545840 0.845108
vt 0.391776 0.845108
vt 0.375501 0.845108
vt 0.427917 0.845108
vt 0.409379 0.845108
vt 0.518381 0.845108
vt 0.502102 0.845108
vt 0.465960 0.845108
vt 0.446939 0.845108
vt 0.484499 0.845108
vn 0 6.123233995736766E-17 1
vn 0 6.123233995736766E-17 1
vn 0 6.123233995736766E-17 1
vn 0 6.123233995736766E-17 1
vn 0 6.123233995736766E-17 1
vn 0 6.123233995736766E-17 1
vn 0 6.123233995736766E-17 1
vn 0 6.123233995736766E-17 1
vn 0 6.123233995736766E-17 1
vn 0 6.123233995736766E-17 1
vn 0 6.123233995736766E-17 1
vn 0 6.123233995736766E-17 1
g 01
f 1/1/1 2/2/2 3/3/3
f 4/4/4 5/5/5 2/2/2
f 1/1/1 4/4/4 2/2/2
f 6/6/6 7/7/7 4/4/4
f 1/1/1 8/8/8 9/9/9
f 10/10/10 6/6/6 4/4/4
f 1/1/1 10/10/10 4/4/4
f 1/1/1 9/9/9 10/10/10
f 10/10/10 11/11/11 6/6/6
f 9/9/9 12/12/12 10/10/10
