v -2 0 0
v -2 -2 1.2246467991473532E-16
v 0 -2 1.2246467991473532E-16
v 0 2 -1.2246467991473532E-16
v -2 2 -1.2246467991473532E-16
v 0 0 0
v 2 -2 1.2246467991473532E-16
v 2 2 -1.2246467991473532E-16
v 2 0 0
vt 0.000504 0.999857
vt 0.000504 -0.000143
vt 1.000504 -0.000143
vt 1.000504 1.999857
vt 0.000504 1.999857
vt 1.000504 0.999857
vt 2.000504 -0.000143
vt 2.000504 1.999857
vt 2.000504 0.999857
vn 0 6.123233995736766E-17 1
vn 0 6.123233995736766E-17 1
vn 0 6.123233995736766E-17 1
vn 0 6.123233995736766E-17 1
vn 0 6.123233995736766E-17 1
vn 0 6.123233995736766E-17 1
vn 0 6.123233995736766E-17 1
vn 0 6.123233995736766E-17 1
vn 0 6.123233995736766E-17 1
g Standard_13
f 1/1/1 2/2/2 3/3/3
f 4/4/4 5/5/5 1/1/1
f 3/3/3 6/6/6 1/1/1
f 1/1/1 6/6/6 4/4/4
f 6/6/6 3/3/3 7/7/7
f 8/8/8 4/4/4 6/6/6
f 7/7/7 9/9/9 6/6/6
f 6/6/6 9/9/9 8/8/8
