v -0.5 0.07342199999999995 -0.793855
v -0.336123 0.117897 -0.11194000000000001
v 0.342254 0.117897 -0.11194000000000001
v 0.342254 0.117897 -0.11194000000000001
v 0.438251 0.06988099999999994 -0.793855
v -0.5 0.07342199999999995 -0.793855
v -0.556533 0.2542759999999999 -2.09493
v -0.5 0.07342199999999995 -0.793855
v -0.369601 0.38627499999999987 -2.09493
v 0.438251 0.06988099999999994 -0.793855
v 0.513717 0.2507349999999999 -2.09493
v 0.404214 0.38627499999999987 -2.09493
v 0.404214 0.38627499999999987 -2.09493
v -0.369601 0.38627499999999987 -2.09493
v -0.5 0.07342199999999995 -0.793855
v -0.5 0.07342199999999995 -0.793855
v 0.438251 0.06988099999999994 -0.793855
v 0.404214 0.38627499999999987 -2.09493
v 0.640551 -0.05737499999999999 0.190045
v 0.640551 -0.057375 -0.009081999999999996
v 0.588549 -0.013927 -0.009082
v 0.588549 -0.013927 -0.009082
v 0.588549 -0.013927999999999987 0.190045
v 0.660142 0.15430900000000003 0.227733
v 0.607149 0.15791100000000002 0.258861
v 0.607149 -0.011827999999999984 0.258861
v 0.660142 -0.011827999999999986 0.227733
v 0.607149 -0.011827999999999993 0.109492
v 0.607149 -0.011827999999999984 0.258861
v 0.607149 0.15791100000000002 0.258861
v 0.607149 0.157911 0.10949199999999999
v 0.660142 0.154309 0.10949199999999999
v 0.607149 0.157911 0.10949199999999999
v 0.607149 0.15791100000000002 0.258861
v 0.660142 0.15430900000000003 0.227733
v 0.660142 -0.011827999999999993 0.109492
v 0.660142 0.154309 0.10949199999999999
v 0.660142 0.15430900000000003 0.227733
v 0.660142 -0.011827999999999986 0.227733
v 0.607149 -0.011827999999999993 0.109492
v 0.660142 -0.011827999999999993 0.109492
v 0.660142 -0.011827999999999986 0.227733
v 0.607149 -0.011827999999999984 0.258861
v 0.232551 0.31746 -0.029558000000000022
v -0.212382 0.349687 -0.029558000000000022
v -0.212382 0.052873 0.005597999999999996
v 0.232551 0.052873 0.005597999999999996
v -0.26217 0.19943 -0.03393900000000001
v -0.26217 0.184416 -0.03393900000000001
v 0.2683 0.184416 -0.03393900000000001
v 0.2683 0.19943 -0.03393900000000001
v -0.262169 0.19942999999999997 -0.340477
v -0.26217 0.19942999999999997 -0.291975
v 0.2683 0.19942999999999997 -0.291975
v 0.2683 0.19942999999999997 -0.340477
v 0.235829 0.280278 -0.018694000000000016
v 0.235829 0.280278 -0.06386000000000001
v 0.237965 0.052556 -0.028703000000000003
v 0.237965 0.052556 0.016462999999999995
v -0.220804 0.223375 -0.010393000000000013
v -0.220804 0.056321 0.022321999999999998
v -0.220804 0.073869 -0.009233000000000005
v -0.220803 0.223375 -0.061785000000000014
v 0.338244 -0.011827999999999993 0.109492
v 0.338244 -0.011828 7.242561170157447E-19
v 0.660695 -0.011828 7.242561170157447E-19
v 0.660695 -0.011827999999999993 0.109492
v 0.338244 0.15430900000000003 0.227733
v 0.338244 -0.011827999999999986 0.227733
v 0.391237 -0.011827999999999984 0.258861
v 0.391237 0.15791100000000002 0.258861
v 0.391237 -0.011827999999999993 0.109492
v 0.391237 0.157911 0.10949199999999999
v 0.391237 0.15791100000000002 0.258861
v 0.391237 -0.011827999999999984 0.258861
v 0.338244 0.154309 0.10949199999999999
v 0.338244 0.15430900000000003 0.227733
v 0.391237 0.15791100000000002 0.258861
v 0.391237 0.157911 0.10949199999999999
v 0.338244 -0.011827999999999993 0.109492
v 0.338244 -0.011827999999999986 0.227733
v 0.338244 0.15430900000000003 0.227733
v 0.338244 0.154309 0.10949199999999999
v 0.391237 -0.011827999999999993 0.109492
v 0.391237 -0.011827999999999984 0.258861
v 0.338244 -0.011827999999999986 0.227733
v 0.338244 -0.011827999999999993 0.109492
v 0.631333 0.22071500000000002 0.227733
v 0.57788 0.22071500000000002 0.258861
v 0.57788 0.220715 0.10949199999999999
v 0.631333 0.220715 0.10949199999999999
v 0.367606 0.220715 0.10949199999999999
v 0.421059 0.220715 0.10949199999999999
v 0.421059 0.22071500000000002 0.258861
v 0.367606 0.22071500000000002 0.227733
v -0.341743 0.197788 -0.022478000000000012
v 0.347873 0.197787 -0.022478000000000012
v 0.347873 0.166629 -0.150774
v -0.341743 0.166629 -0.150774
v 0.347873 0.197787 -0.022478000000000012
v -0.341743 0.197788 -0.022478000000000012
v -0.341743 0.054497 -0.022478000000000005
v 0.347873 0.054497 -0.022478000000000005
v -0.262169 0.210905 -0.08680500000000001
v -0.262169 0.183683 -0.08680500000000001
v 0.2683 0.18368299999999999 -0.232067
v 0.2683 0.21090499999999998 -0.232067
v -0.26217 0.19942999999999997 -0.230189
v -0.26217 0.17220899999999997 -0.230189
v 0.2683 0.172209 -0.08492700000000002
v 0.2683 0.19943 -0.08492700000000002
v -0.262169 0.19943 -0.08244100000000001
v -0.262169 0.184416 -0.08244100000000001
v -0.26217 0.184416 -0.03393900000000001
v -0.26217 0.19943 -0.03393900000000001
v 0.2683 0.19943 -0.03393900000000001
v 0.2683 0.184416 -0.03393900000000001
v 0.2683 0.184416 -0.08244100000000001
v 0.2683 0.19943 -0.08244100000000001
v 0.468668 0.224198 -0.029558000000000015
v 0.468668 0.224198 -0.11708200000000002
v 0.282796 0.28206 -0.10621800000000002
v 0.282796 0.28206 -0.018694000000000016
v -0.303728 0.245195 -0.10902600000000001
v -0.298727 0.117897 -0.11194000000000001
v -0.298727 0.11789699999999995 -0.793855
v -0.303728 0.26793599999999995 -0.593463
v 0.310013 0.26793599999999995 -0.593463
v 0.305012 0.11789699999999995 -0.793855
v 0.310013 0.052872999999999996 -0.136553
v 0.310013 0.245195 -0.10902600000000001
v 0.2683 0.21090499999999998 -0.280569
v -0.26217 0.210905 -0.135307
v -0.262169 0.210905 -0.08680500000000001
v 0.2683 0.21090499999999998 -0.232067
v -0.262169 0.19942999999999997 -0.278691
v -0.26217 0.19942999999999997 -0.230189
v 0.2683 0.19943 -0.08492700000000002
v 0.2683 0.19943 -0.133429
v -0.26217 0.19942999999999997 -0.291975
v -0.26217 0.17220899999999997 -0.291975
v 0.2683 0.17220899999999997 -0.291975
v 0.2683 0.19942999999999997 -0.291975
v -0.262169 0.19943 -0.08244100000000001
v -0.26217 0.19943 -0.03393900000000001
v 0.2683 0.19943 -0.03393900000000001
v 0.2683 0.19943 -0.08244100000000001
v 0.306716 0.201375 0.13963
v 0.306716 0.2013749999999999 -1.681659
v 0.305144 0.29008499999999987 -1.685809
v 0.305144 0.290085 0.13962999999999998
v 0.234625 0.200468 0.13963
v 0.234625 0.2004679999999999 -1.681659
v 0.306716 0.2013749999999999 -1.681659
v 0.306716 0.201375 0.13963
v 0.234625 0.200468 0.13963
v 0.233053 0.289177 0.13962999999999998
v 0.233053 0.2891769999999999 -1.685809
v 0.234625 0.2004679999999999 -1.681659
v 0.305144 0.290085 0.13962999999999998
v 0.305144 0.29008499999999987 -1.685809
v 0.233053 0.2891769999999999 -1.685809
v 0.233053 0.289177 0.13962999999999998
v 0.305144 0.290085 0.13962999999999998
v 0.233053 0.289177 0.13962999999999998
v 0.234625 0.200468 0.13963
v 0.306716 0.201375 0.13963
v -0.220117 0.201375 0.05820899999999998
v -0.220117 0.2013749999999999 -1.681659
v -0.221689 0.29008499999999987 -1.685809
v -0.221689 0.290085 0.058208999999999976
v -0.290254 0.200468 0.05820899999999998
v -0.290254 0.2004679999999999 -1.681659
v -0.220117 0.2013749999999999 -1.681659
v -0.220117 0.201375 0.05820899999999998
v -0.290254 0.200468 0.05820899999999998
v -0.291826 0.289177 0.058208999999999976
v -0.291826 0.2891769999999999 -1.685809
v -0.290254 0.2004679999999999 -1.681659
v -0.221689 0.290085 0.058208999999999976
v -0.221689 0.29008499999999987 -1.685809
v -0.291826 0.2891769999999999 -1.685809
v -0.291826 0.289177 0.058208999999999976
v -0.221689 0.290085 0.058208999999999976
v -0.291826 0.289177 0.058208999999999976
v -0.290254 0.200468 0.05820899999999998
v -0.220117 0.201375 0.05820899999999998
v 0.590121 -0.10263699999999999 0.190045
v 0.590121 -0.102637 -0.009081999999999993
v 0.640551 -0.057375 -0.009081999999999996
v 0.640551 -0.05737499999999999 0.190045
v 0.538119 -0.059189999999999986 0.190045
v 0.538119 -0.05919 -0.009081999999999996
v 0.590121 -0.102637 -0.009081999999999993
v 0.590121 -0.10263699999999999 0.190045
v 0.588549 -0.013927999999999987 0.190045
v 0.588549 -0.013927 -0.009082
v 0.538119 -0.05919 -0.009081999999999996
v 0.538119 -0.059189999999999986 0.190045
v 0.640551 -0.05737499999999999 0.190045
v 0.588549 -0.013927999999999987 0.190045
v 0.538119 -0.059189999999999986 0.190045
v 0.590121 -0.10263699999999999 0.190045
v 0.417101 -0.08099999999999999 0.153668
v 0.417101 -0.081 -0.009081999999999995
v 0.467532 -0.035738 -0.009081999999999998
v 0.467532 -0.03573799999999999 0.153668
v 0.365099 -0.037552999999999996 0.153668
v 0.365099 -0.037553 -0.009081999999999998
v 0.417101 -0.081 -0.009081999999999995
v 0.417101 -0.08099999999999999 0.153668
v 0.467532 -0.03573799999999999 0.153668
v 0.467532 -0.035738 -0.009081999999999998
v 0.41553 0.007708999999999999 -0.009082
v 0.41553 0.007709000000000009 0.153668
v 0.41553 0.007709000000000009 0.153668
v 0.41553 0.007708999999999999 -0.009082
v 0.365099 -0.037553 -0.009081999999999998
v 0.365099 -0.037552999999999996 0.153668
v 0.467532 -0.03573799999999999 0.153668
v 0.41553 0.007709000000000009 0.153668
v 0.365099 -0.037552999999999996 0.153668
v 0.417101 -0.08099999999999999 0.153668
v 0.500796 -0.08594399999999999 0.265485
v 0.500796 -0.085944 -0.009081999999999995
v 0.551226 -0.040681 -0.009081999999999998
v 0.551226 -0.04068099999999999 0.265485
v 0.448794 -0.042495999999999985 0.265485
v 0.448794 -0.042496 -0.009081999999999996
v 0.500796 -0.085944 -0.009081999999999995
v 0.500796 -0.08594399999999999 0.265485
v 0.551226 -0.04068099999999999 0.265485
v 0.551226 -0.040681 -0.009081999999999998
v 0.499224 0.0027659999999999994 -0.009082
v 0.499224 0.002766000000000016 0.265485
v 0.499224 0.002766000000000016 0.265485
v 0.499224 0.0027659999999999994 -0.009082
v 0.448794 -0.042496 -0.009081999999999996
v 0.448794 -0.042495999999999985 0.265485
v 0.551226 -0.04068099999999999 0.265485
v 0.499224 0.002766000000000016 0.265485
v 0.448794 -0.042495999999999985 0.265485
v 0.500796 -0.08594399999999999 0.265485
v -0.509805 0.077562 0.05125299999999999
v 0.347873 0.077562 0.05125299999999999
v 0.347873 0.076738 -0.0011310000000000048
v -0.509805 0.076738 -0.0011310000000000048
v 0.450361 0.322135 -0.07564100000000001
v 0.450361 0.156974 -0.07564100000000001
v 0.549659 0.156974 -0.07564100000000001
v 0.549659 0.322135 -0.07564100000000001
v 0.347873 3.1383411198349647E-18 0.051253
v -0.509805 3.1383411198349647E-18 0.051253
v -0.509805 -0.012146000000000002 -0.016252
v 0.347873 -0.012146000000000002 -0.016252
v 0.347873 0.077562 0.05125299999999999
v -0.509805 0.077562 0.05125299999999999
v -0.509805 3.1383411198349647E-18 0.051253
v 0.347873 3.1383411198349647E-18 0.051253
v -0.509804 0.22545 -0.029558000000000015
v -0.509804 0.056321 0.005597999999999996
v -0.46771 0.22545 -0.029558000000000015
v -0.220804 0.056321 0.022321999999999998
v -0.289956 0.27855 -0.018694000000000016
v -0.220804 0.223375 -0.010393000000000013
v 0.367606 0.22071500000000002 0.227733
v 0.421059 0.22071500000000002 0.258861
v 0.385857 0.262785 0.22773299999999996
v 0.49947 0.261167 0.258861
v 0.49947 0.307717 0.22773299999999996
v 0.57788 0.22071500000000002 0.258861
v 0.613082 0.262785 0.22773299999999996
v 0.631333 0.22071500000000002 0.227733
v 0.631333 0.22071500000000002 0.227733
v 0.631333 0.220715 0.10949199999999999
v 0.613082 0.262785 0.10949199999999999
v 0.613082 0.262785 0.22773299999999996
v 0.49947 0.307717 0.10949199999999999
v 0.49947 0.307717 0.22773299999999996
v 0.385857 0.262785 0.10949199999999999
v 0.385857 0.262785 0.22773299999999996
v 0.367606 0.220715 0.10949199999999999
v 0.367606 0.22071500000000002 0.227733
v 0.338244 -0.011827999999999993 0.109492
v 0.660695 -0.011827999999999993 0.109492
v 0.660142 0.154309 0.10949199999999999
v 0.338797 0.154309 0.10949199999999999
v 0.613082 0.262785 0.10949199999999999
v 0.385857 0.262785 0.10949199999999999
v 0.613082 0.26278499999999994 -0.721273
v 0.613082 0.262785 0.10949199999999999
v 0.660142 0.154309 0.10949199999999999
v 0.660142 0.15430899999999995 -0.721273
v 0.660695 -0.011827999999999993 0.109492
v 0.660695 -0.011828000000000043 -0.721273
v 0.613082 0.262785 0.10949199999999999
v 0.613082 0.26278499999999994 -0.721273
v 0.49947 0.26914299999999997 -0.721273
v 0.49947 0.307717 0.10949199999999999
v 0.385857 0.26278499999999994 -0.721273
v 0.385857 0.262785 0.10949199999999999
v 0.385857 0.262785 0.10949199999999999
v 0.385857 0.26278499999999994 -0.721273
v 0.338797 0.15171499999999993 -0.721273
v 0.338797 0.154309 0.10949199999999999
v 0.338244 -0.011828000000000043 -0.721273
v 0.338244 -0.011827999999999993 0.109492
v 0.450361 0.156974 -0.07564100000000001
v 0.450361 0.322135 -0.07564100000000001
v 0.423941 0.3255529999999999 -0.593463
v 0.421132 0.12382399999999996 -0.693659
v 0.418322 0.2524179999999999 -0.793855
v 0.418322 0.09775499999999987 -2.08896
v 0.418322 0.26291599999999987 -2.08896
v 0.450361 0.322135 -0.07564100000000001
v 0.549659 0.322135 -0.07564100000000001
v 0.576078 0.3255529999999999 -0.593463
v 0.423941 0.3255529999999999 -0.593463
v 0.575988 0.2524179999999999 -0.793855
v 0.418322 0.2524179999999999 -0.793855
v 0.418322 0.26291599999999987 -2.08896
v 0.575988 0.26291599999999987 -2.08896
v -0.500008 0.220635 -0.10951500000000002
v -0.303728 0.245195 -0.10902600000000001
v -0.303728 0.26793599999999995 -0.593463
v -0.500008 0.25334699999999993 -0.593463
v -0.298727 0.11789699999999995 -0.793855
v -0.499874 0.13803799999999994 -0.793855
v 0.310013 0.245195 -0.10902600000000001
v 0.50001 0.241509 -0.10951500000000002
v 0.50001 0.25334699999999993 -0.593463
v 0.310013 0.26793599999999995 -0.593463
v 0.499919 0.13803799999999994 -0.793855
v 0.305012 0.11789699999999995 -0.793855
v 0.282796 0.28206 -0.018694000000000016
v 0.235829 0.280278 -0.018694000000000016
v 0.237965 0.052556 0.016462999999999995
v 0.377407 0.052873 0.005597999999999996
v 0.468668 0.224198 -0.029558000000000015
v 0.49947 0.261167 0.258861
v 0.421059 0.22071500000000002 0.258861
v 0.421059 0.220715 0.10949199999999999
v 0.49947 0.261167 0.10949199999999999
v 0.57788 0.22071500000000002 0.258861
v 0.57788 0.220715 0.10949199999999999
v -0.46771 0.22545 -0.11708200000000002
v -0.509804 0.22545 -0.11708200000000002
v -0.509804 0.22545 -0.029558000000000015
v -0.46771 0.22545 -0.029558000000000015
v -0.289956 0.27855 -0.018694000000000016
v -0.289956 0.27855 -0.10621800000000002
v 0.576033 0.12382399999999996 -0.693659
v 0.575988 0.09775499999999987 -2.08896
v 0.575988 0.26291599999999987 -2.08896
v 0.575988 0.2524179999999999 -0.793855
v 0.576078 0.3255529999999999 -0.593463
v 0.549659 0.322135 -0.07564100000000001
v 0.549659 0.156974 -0.07564100000000001
vt 0.099117 0.527198
vt 0.156188 0.291412
vt 0.390286 0.291350
vt 0.390286 0.291350
vt 0.423892 0.527249
vt 0.099117 0.527198
vt 0.063971 0.989081
vt 0.099117 0.527198
vt 0.143379 0.994204
vt 0.423892 0.527249
vt 0.471511 0.988759
vt 0.411276 0.994120
vt 0.411276 0.994120
vt 0.143379 0.994204
vt 0.099117 0.527198
vt 0.099117 0.527198
vt 0.423892 0.527249
vt 0.411276 0.994120
vt 0.631481 0.890792
vt 0.561652 0.890792
vt 0.561652 0.867098
vt 0.561652 0.867098
vt 0.631482 0.867098
vt 0.242659 0.227949
vt 0.243920 0.206438
vt 0.184453 0.206438
vt 0.184459 0.227986
vt 0.882981 0.281462
vt 0.882981 0.229136
vt 0.823519 0.229136
vt 0.823519 0.281462
vt 0.242676 0.269363
vt 0.261273 0.269358
vt 0.261273 0.217027
vt 0.242659 0.227949
vt 0.184478 0.269420
vt 0.242676 0.269363
vt 0.242659 0.227949
vt 0.184459 0.227986
vt 0.165908 0.269424
vt 0.184478 0.269420
vt 0.184459 0.227986
vt 0.165908 0.217093
vt 0.062208 0.000586
vt 0.226864 0.000586
vt 0.226587 0.138830
vt 0.061931 0.139359
vt 0.571317 0.809283
vt 0.571315 0.804025
vt 0.812909 0.804025
vt 0.812906 0.809283
vt 0.571306 0.831371
vt 0.571318 0.809283
vt 0.812908 0.809283
vt 0.812919 0.831371
vt 0.471724 0.202368
vt 0.487406 0.203484
vt 0.469191 0.282188
vt 0.453345 0.281027
vt 0.759300 0.882130
vt 0.699888 0.885404
vt 0.707496 0.875247
vt 0.761870 0.864427
vt 0.056418 0.264188
vt 0.018191 0.264188
vt 0.018191 0.150725
vt 0.056418 0.150726
vt 0.242659 0.227949
vt 0.184459 0.227986
vt 0.184453 0.206438
vt 0.243920 0.206438
vt 0.882981 0.281462
vt 0.823519 0.281462
vt 0.823519 0.229136
vt 0.882981 0.229136
vt 0.242676 0.269363
vt 0.242659 0.227949
vt 0.261273 0.217027
vt 0.261273 0.269358
vt 0.184478 0.269420
vt 0.184459 0.227986
vt 0.242659 0.227949
vt 0.242676 0.269363
vt 0.165908 0.269424
vt 0.165908 0.217093
vt 0.184459 0.227986
vt 0.184478 0.269420
vt 0.268407 0.185774
vt 0.249960 0.197143
vt 0.248652 0.144833
vt 0.267372 0.144365
vt 0.168136 0.146846
vt 0.186856 0.146378
vt 0.188157 0.198689
vt 0.169171 0.188254
vt 0.571828 0.573966
vt 0.813640 0.573966
vt 0.813640 0.620184
vt 0.571828 0.620184
vt 0.813640 0.573966
vt 0.571828 0.573966
vt 0.571828 0.523832
vt 0.813640 0.523832
vt 0.815465 0.771269
vt 0.815392 0.761734
vt 0.564902 0.763809
vt 0.564982 0.773340
vt 0.564652 0.773255
vt 0.564588 0.763717
vt 0.815053 0.762057
vt 0.815117 0.771594
vt 0.571305 0.831371
vt 0.566036 0.831364
vt 0.566061 0.809275
vt 0.571317 0.809283
vt 0.812906 0.809283
vt 0.818162 0.809275
vt 0.818187 0.831364
vt 0.812918 0.831371
vt 0.387955 0.202475
vt 0.384444 0.171923
vt 0.452679 0.167893
vt 0.456112 0.198286
vt 0.816888 0.694206
vt 0.810460 0.626203
vt 0.579028 0.638440
vt 0.647116 0.693857
vt 0.647116 0.693857
vt 0.579028 0.638440
vt 0.810460 0.626203
vt 0.816888 0.694206
vt 0.559308 0.794687
vt 0.809814 0.792624
vt 0.815465 0.771269
vt 0.564982 0.773340
vt 0.558966 0.794598
vt 0.564652 0.773255
vt 0.815117 0.771594
vt 0.809429 0.792936
vt 0.571318 0.809283
vt 0.571312 0.799750
vt 0.812910 0.799750
vt 0.812908 0.809283
vt 0.571305 0.831371
vt 0.571317 0.809283
vt 0.812906 0.809283
vt 0.812918 0.831371
vt 0.374285 0.088348
vt 0.984525 0.088368
vt 0.985947 0.120588
vt 0.374293 0.119798
vt 0.374266 0.063501
vt 0.984548 0.063111
vt 0.984525 0.088368
vt 0.374285 0.088348
vt 0.374266 0.063501
vt 0.374240 0.032049
vt 0.985930 0.032031
vt 0.984548 0.063111
vt 0.374241 0.007185
vt 0.985930 0.007127
vt 0.985930 0.032031
vt 0.374240 0.032049
vt 0.349348 0.032208
vt 0.374240 0.032049
vt 0.374266 0.063501
vt 0.349394 0.063674
vt 0.374285 0.088348
vt 0.993734 0.088370
vt 0.995206 0.119752
vt 0.374293 0.119798
vt 0.374266 0.063501
vt 0.993739 0.063531
vt 0.993734 0.088370
vt 0.374285 0.088348
vt 0.374266 0.063501
vt 0.374240 0.032049
vt 0.995227 0.032031
vt 0.993739 0.063531
vt 0.374241 0.007185
vt 0.995227 0.007126
vt 0.995227 0.032031
vt 0.374240 0.032049
vt 0.349348 0.032208
vt 0.374240 0.032049
vt 0.374266 0.063501
vt 0.349394 0.063674
vt 0.631481 0.914487
vt 0.561652 0.914486
vt 0.561652 0.890792
vt 0.631481 0.890792
vt 0.631481 0.938221
vt 0.561652 0.938221
vt 0.561652 0.914486
vt 0.631481 0.914487
vt 0.631482 0.867098
vt 0.561652 0.867098
vt 0.561652 0.843363
vt 0.631482 0.843364
vt 0.967702 0.281709
vt 0.968397 0.257980
vt 0.991982 0.255279
vt 0.991286 0.279007
vt 0.539012 0.135907
vt 0.539012 0.193065
vt 0.515383 0.193065
vt 0.515383 0.135907
vt 0.562741 0.135907
vt 0.562741 0.193065
vt 0.539012 0.193065
vt 0.539012 0.135907
vt 0.515383 0.135907
vt 0.515383 0.193065
vt 0.491754 0.193065
vt 0.491754 0.135907
vt 0.491754 0.135907
vt 0.491754 0.193065
vt 0.468025 0.193065
vt 0.468025 0.135907
vt 0.957395 0.245426
vt 0.933980 0.241522
vt 0.934498 0.217789
vt 0.957914 0.221693
vt 0.355031 0.187169
vt 0.355031 0.275438
vt 0.329164 0.275438
vt 0.329164 0.187169
vt 0.380899 0.187169
vt 0.380899 0.275438
vt 0.355031 0.275438
vt 0.355031 0.187169
vt 0.329164 0.187169
vt 0.329164 0.275438
vt 0.303296 0.275438
vt 0.303296 0.187169
vt 0.303296 0.187169
vt 0.303296 0.275438
vt 0.277428 0.275438
vt 0.277428 0.187169
vt 0.965820 0.243793
vt 0.967763 0.220134
vt 0.991457 0.218677
vt 0.989514 0.242336
vt 0.684286 0.194106
vt 0.985033 0.194106
vt 0.985033 0.212443
vt 0.684286 0.212443
vt 0.891559 0.295599
vt 0.891385 0.237468
vt 0.926501 0.237468
vt 0.926363 0.295612
vt 0.985033 0.166975
vt 0.684286 0.166975
vt 0.684286 0.142958
vt 0.985033 0.142958
vt 0.985033 0.194106
vt 0.684286 0.194106
vt 0.684286 0.166975
vt 0.985033 0.166975
vt 0.766459 0.983934
vt 0.707125 0.986348
vt 0.767440 0.968891
vt 0.699888 0.885404
vt 0.779991 0.904885
vt 0.759300 0.882130
vt 0.554608 0.601505
vt 0.569092 0.617612
vt 0.547062 0.615777
vt 0.572558 0.648091
vt 0.555641 0.658037
vt 0.597585 0.665827
vt 0.588476 0.686010
vt 0.604632 0.686318
vt 0.643506 0.843110
vt 0.684910 0.841915
vt 0.685374 0.857973
vt 0.643969 0.859168
vt 0.686609 0.900755
vt 0.645204 0.901950
vt 0.687844 0.943537
vt 0.646439 0.944732
vt 0.688307 0.959595
vt 0.646903 0.960790
vt 0.056418 0.264188
vt 0.056418 0.150726
vt 0.114284 0.150920
vt 0.114284 0.263993
vt 0.152161 0.167480
vt 0.152161 0.247434
vt 0.708534 0.515723
vt 0.708553 0.220855
vt 0.749403 0.220871
vt 0.749356 0.515739
vt 0.807962 0.220887
vt 0.807905 0.515755
vt 0.708553 0.220855
vt 0.708534 0.515723
vt 0.669324 0.515790
vt 0.669324 0.220764
vt 0.630111 0.515940
vt 0.630098 0.221230
vt 0.630098 0.221230
vt 0.630111 0.515940
vt 0.588441 0.516018
vt 0.589252 0.221150
vt 0.530811 0.516040
vt 0.530693 0.221173
vt 0.834543 0.295391
vt 0.891559 0.295599
vt 0.886483 0.473125
vt 0.825146 0.512119
vt 0.877611 0.545159
vt 0.823824 0.994026
vt 0.881036 0.993430
vt 0.891559 0.295599
vt 0.926363 0.295612
vt 0.931460 0.473093
vt 0.886483 0.473125
vt 0.939223 0.545163
vt 0.877611 0.545159
vt 0.881036 0.993430
vt 0.935763 0.993470
vt 0.816308 0.760924
vt 0.816888 0.694206
vt 0.647116 0.693857
vt 0.645766 0.760145
vt 0.560054 0.692336
vt 0.564489 0.760944
vt 0.816888 0.694206
vt 0.816308 0.760924
vt 0.645766 0.760145
vt 0.647116 0.693857
vt 0.564489 0.760944
vt 0.560054 0.692336
vt 0.456112 0.198286
vt 0.471724 0.202368
vt 0.453345 0.281027
vt 0.405561 0.269497
vt 0.387955 0.202475
vt 0.219061 0.197915
vt 0.188157 0.198689
vt 0.186856 0.146378
vt 0.217754 0.145606
vt 0.249960 0.197143
vt 0.248652 0.144833
vt 0.798042 0.975280
vt 0.795745 0.989253
vt 0.766459 0.983934
vt 0.767440 0.968891
vt 0.779991 0.904885
vt 0.809383 0.911840
vt 0.992204 0.512345
vt 0.992973 0.994141
vt 0.935763 0.993470
vt 0.939223 0.545163
vt 0.931460 0.473093
vt 0.926363 0.295612
vt 0.983399 0.295536
vn 0 0.99788 -0.06508200000000006
vn 0 0.99788 -0.06508200000000006
vn 0 0.99788 -0.06508200000000006
vn 0.003764 0.99756 -0.06971000000000005
vn 0.003764 0.99756 -0.06971000000000005
vn 0.003764 0.99756 -0.06971000000000005
vn -0.571359 0.809134 0.13729899999999995
vn -0.571359 0.809134 0.13729899999999995
vn -0.571359 0.809134 0.13729899999999995
vn 0.771124 0.622993 0.13132599999999997
vn 0.771124 0.622993 0.13132599999999997
vn 0.771124 0.622993 0.13132599999999997
vn 0 0.972286 0.23379299999999995
vn 0 0.972286 0.23379299999999995
vn 0 0.972286 0.23379299999999995
vn 0.003667 0.971698 0.23619999999999994
vn 0.003667 0.971698 0.23619999999999994
vn 0.003667 0.971698 0.23619999999999994
vn 0.641158 0.767409 -4.699024877434356E-17
vn 0.641158 0.767409 -4.699024877434356E-17
vn 0.260285 0.965532 -5.91217836637171E-17
vn 0.260285 0.965532 -5.91217836637171E-17
vn -0.294328 0.955705 -5.852005345895606E-17
vn 0.506482 5.2797646360580224E-17 0.862251
vn 0.506482 5.2797646360580224E-17 0.862251
vn 0.506482 5.2797646360580224E-17 0.862251
vn 0.506481 5.2797646360580224E-17 0.862251
vn -1 0 0
vn -1 0 0
vn -1 0 0
vn -1 0 0
vn 0.067802 0.997699 -6.109144434312576E-17
vn 0.067802 0.997699 -6.109144434312576E-17
vn 0.067802 0.997699 -6.109144434312576E-17
vn 0.067802 0.997699 -6.109144434312576E-17
vn 1 0 0
vn 1 0 0
vn 1 0 0
vn 1 0 0
vn -1E-06 -1 6.123233995736766E-17
vn -1E-06 -1 6.123233995736766E-17
vn -1E-06 -1 6.123233995736766E-17
vn -1E-06 -1 6.123233995736766E-17
vn 0.00426 0.12467100000000006 0.992189
vn 0.008519 0.11761900000000006 0.993022
vn 0.00426 0.12467100000000006 0.992189
vn 0 0.13171400000000005 0.991288
vn 0 6.123233995736766E-17 1
vn 0 6.123233995736766E-17 1
vn 0 6.123233995736766E-17 1
vn 0 6.123233995736766E-17 1
vn 0 1 -6.123233995736766E-17
vn 0 1 -6.123233995736766E-17
vn 0 1 -6.123233995736766E-17
vn 0 1 -6.123233995736766E-17
vn -0.999956 -0.00938 5.743593488001087E-19
vn -0.999956 -0.00938 5.743593488001087E-19
vn -0.999956 -0.00938 5.743593488001087E-19
vn -0.999956 -0.00938 5.743593488001087E-19
vn 1 1.2246467991473532E-22 2E-06
vn 1 1.2246467991473532E-22 2E-06
vn 1 1.2246467991473532E-22 2E-06
vn 1 6.123233995736766E-23 1E-06
vn 0 -1 6.123233995736766E-17
vn 0 -1 6.123233995736766E-17
vn 0 -1 6.123233995736766E-17
vn 0 -1 6.123233995736766E-17
vn -0.506481 5.2797646360580224E-17 0.862251
vn -0.506482 5.2797646360580224E-17 0.862251
vn -0.506481 5.2797646360580224E-17 0.862251
vn -0.506481 5.2797646360580224E-17 0.862251
vn 1 0 0
vn 1 0 0
vn 1 0 0
vn 1 0 0
vn -0.067802 0.997699 -6.109144434312576E-17
vn -0.067802 0.997699 -6.109144434312576E-17
vn -0.067802 0.997699 -6.109144434312576E-17
vn -0.067802 0.997699 -6.109144434312576E-17
vn -1 0 0
vn -1 0 0
vn -1 0 0
vn -1 0 0
vn 0 -1 6.123233995736766E-17
vn 0 -1 6.123233995736766E-17
vn 0 -1 6.123233995736766E-17
vn 0 -1 6.123233995736766E-17
vn -0 -1 6.123233995736766E-17
vn -0 -1 6.123233995736766E-17
vn -0 -1 6.123233995736766E-17
vn -0 -1 6.123233995736766E-17
vn -0 -1 6.123233995736766E-17
vn -0 -1 6.123233995736766E-17
vn -0 -1 6.123233995736766E-17
vn -0 -1 6.123233995736766E-17
vn 0 0.971752 -0.23600300000000005
vn 0 0.971752 -0.23600300000000005
vn 0 0.971752 -0.23600300000000005
vn 0 0.971752 -0.23600300000000005
vn 0 6.123233995736766E-17 1
vn 0 6.123233995736766E-17 1
vn 0 6.123233995736766E-17 1
vn 0 6.123233995736766E-17 1
vn 0.264114 5.905804079782149E-17 0.964491
vn 0.264114 5.905804079782149E-17 0.964491
vn 0.264114 5.905804079782149E-17 0.964491
vn 0.264114 5.905804079782149E-17 0.964491
vn -0.264114 5.905804079782149E-17 0.964491
vn -0.264114 5.905804079782149E-17 0.964491
vn -0.264114 5.905804079782149E-17 0.964491
vn -0.264114 5.905804079782149E-17 0.964491
vn -1 9.999999999999997E-07 -2E-06
vn -1 2E-06 -1.0000000000000002E-06
vn -1 9.999999999999997E-07 -2E-06
vn -1 -1.2246467991473532E-22 -2E-06
vn 1 1.2246467991473532E-22 2E-06
vn 1 1.2246467991473532E-22 2E-06
vn 1 1.2246467991473532E-22 2E-06
vn 1 1.2246467991473532E-22 2E-06
vn 0.297228 0.954807 -5.846506681767435E-17
vn 0.297228 0.954807 -1.000000000058465E-06
vn 0.297228 0.954807 -5.846506681767435E-17
vn 0.297228 0.954807 -5.846506681767435E-17
vn 0.999376 0.035303 0.0007359999999999978
vn 0.999229 0.039256 -2.403736737366425E-18
vn 0.999376 0.035303 0.0007359999999999978
vn 0.999507 0.031348 0.001471999999999998
vn -0.999936 0.010231 0.004814999999999999
vn -0.999744 0.02046 0.009629999999999998
vn -0.999936 0.010231 0.004814999999999999
vn -1 0 -0
vn 0 1 -6.123233995736766E-17
vn 0 1 -6.123233995736766E-17
vn 0 1 -6.123233995736766E-17
vn 0 1 -6.123233995736766E-17
vn 0 1 -6.123233995736766E-17
vn 0 1 -6.123233995736766E-17
vn 0 1 -6.123233995736766E-17
vn 0 1 -6.123233995736766E-17
vn 0 6.123233995736766E-17 1
vn 0 6.123233995736766E-17 1
vn 0 6.123233995736766E-17 1
vn 0 6.123233995736766E-17 1
vn 0 1 -6.123233995736766E-17
vn 0 1 -6.123233995736766E-17
vn 0 1 -6.123233995736766E-17
vn 0 1 -6.123233995736766E-17
vn 0.999843 0.017717 -1.0848533670246828E-18
vn 0.999843 0.017717 -1.0848533670246828E-18
vn 0.999843 0.017717 -1.0848533670246828E-18
vn 0.999843 0.017717 -1.0848533670246828E-18
vn 0.012586 -0.999921 6.122750260251102E-17
vn 0.012586 -0.999921 6.122750260251102E-17
vn 0.012586 -0.999921 6.122750260251102E-17
vn 0.012587 -0.999921 6.122750260251102E-17
vn -0.999843 -0.017716 1.0847921346847253E-18
vn -0.999843 -0.017716 1.0847921346847253E-18
vn -0.999843 -0.017716 1.0847921346847253E-18
vn -0.999843 -0.017716 1.0847921346847253E-18
vn -0.012588 0.999921 -6.122750260251102E-17
vn -0.012588 0.999921 -6.122750260251102E-17
vn -0.012588 0.999921 -6.122750260251102E-17
vn -0.012589 0.999921 -6.122750260251102E-17
vn 0 6.123233995736766E-17 1
vn 0 6.123233995736766E-17 1
vn 0 6.123233995736766E-17 1
vn 0 6.123233995736766E-17 1
vn 0.999843 0.017716 -1.0847921346847253E-18
vn 0.999843 0.017716 -1.0847921346847253E-18
vn 0.999843 0.017716 -1.0847921346847253E-18
vn 0.999843 0.017716 -1.0847921346847253E-18
vn 0.012937 -0.999916 6.122719644081124E-17
vn 0.012937 -0.999916 6.122719644081124E-17
vn 0.012937 -0.999916 6.122719644081124E-17
vn 0.012937 -0.999916 6.122719644081124E-17
vn -0.999843 -0.017716 1.0847921346847253E-18
vn -0.999843 -0.017716 1.0847921346847253E-18
vn -0.999843 -0.017716 1.0847921346847253E-18
vn -0.999843 -0.017716 1.0847921346847253E-18
vn -0.012939 0.999916 -6.122719644081124E-17
vn -0.012938 0.999916 -6.122719644081124E-17
vn -0.012939 0.999916 -6.122719644081124E-17
vn -0.012939 0.999916 -6.122719644081124E-17
vn 0 6.123233995736766E-17 1
vn 0 6.123233995736766E-17 1
vn 0 6.123233995736766E-17 1
vn 0 6.123233995736766E-17 1
vn 0.667943 -0.744212 4.55698421843525E-17
vn 0.667943 -0.744212 4.55698421843525E-17
vn 0.667943 -0.744212 4.55698421843525E-17
vn 0.667943 -0.744212 4.55698421843525E-17
vn -0.641159 -0.767408 4.69901875420036E-17
vn -0.641159 -0.767408 4.69901875420036E-17
vn -0.641159 -0.767408 4.69901875420036E-17
vn -0.641159 -0.767408 4.69901875420036E-17
vn -0.294328 0.955705 -5.852005345895606E-17
vn 0.260285 0.965532 -5.91217836637171E-17
vn -0.667943 0.744213 -4.556990341669246E-17
vn -0.667943 0.744213 -4.556990341669246E-17
vn 0 6.123233995736766E-17 1
vn 0 6.123233995736766E-17 1
vn 0 6.123233995736766E-17 1
vn 0 6.123233995736766E-17 1
vn 0.667943 -0.744212 4.55698421843525E-17
vn 0.667943 -0.744212 4.55698421843525E-17
vn 0.667943 -0.744212 4.55698421843525E-17
vn 0.667943 -0.744213 4.556990341669246E-17
vn -0.641159 -0.767408 4.69901875420036E-17
vn -0.641159 -0.767408 4.69901875420036E-17
vn -0.641159 -0.767408 4.69901875420036E-17
vn -0.641159 -0.767408 4.69901875420036E-17
vn 0.641158 0.767409 -4.699024877434356E-17
vn 0.641158 0.767409 -4.699024877434356E-17
vn 0.641158 0.767409 -4.699024877434356E-17
vn 0.641158 0.767409 -4.699024877434356E-17
vn -0.667942 0.744214 -4.556996464903242E-17
vn -0.667942 0.744214 -4.556996464903242E-17
vn -0.667942 0.744214 -4.556996464903242E-17
vn -0.667941 0.744214 -4.556996464903242E-17
vn 0 6.123233995736766E-17 1
vn 0 6.123233995736766E-17 1
vn 0 6.123233995736766E-17 1
vn 0 6.123233995736766E-17 1
vn 0.667943 -0.744212 4.55698421843525E-17
vn 0.667943 -0.744212 4.55698421843525E-17
vn 0.667943 -0.744212 4.55698421843525E-17
vn 0.667943 -0.744213 4.556990341669246E-17
vn -0.641159 -0.767408 4.69901875420036E-17
vn -0.641159 -0.767408 4.69901875420036E-17
vn -0.641159 -0.767408 4.69901875420036E-17
vn -0.641159 -0.767408 4.69901875420036E-17
vn 0.641159 0.767408 -4.69901875420036E-17
vn 0.641159 0.767408 -4.69901875420036E-17
vn 0.641159 0.767408 -4.69901875420036E-17
vn 0.641159 0.767408 -4.69901875420036E-17
vn -0.667943 0.744213 -4.556990341669246E-17
vn -0.667943 0.744213 -4.556990341669246E-17
vn -0.667943 0.744213 -4.556990341669246E-17
vn -0.667943 0.744213 -4.556990341669246E-17
vn 0 6.123233995736766E-17 1
vn 0 6.123233995736766E-17 1
vn 0 6.123233995736766E-17 1
vn 0 6.123233995736766E-17 1
vn 0 0.999876 -0.01572800000000006
vn 0 0.999876 -0.01572800000000006
vn 0 0.999876 -0.01572800000000006
vn 0 0.999876 -0.01572800000000006
vn 0 6.123233995736766E-17 1
vn 0 6.123233995736766E-17 1
vn 0 6.123233995736766E-17 1
vn 0 6.123233995736766E-17 1
vn -0 -0.984196 0.17708400000000005
vn -0 -0.984196 0.17708400000000005
vn -0 -0.984196 0.17708400000000005
vn -0 -0.984196 0.17708400000000005
vn 0 6.123233995736766E-17 1
vn 0 6.123233995736766E-17 1
vn 0 6.123233995736766E-17 1
vn 0 6.123233995736766E-17 1
vn 0 0.20351700000000006 0.979071
vn -0.028211 0.21016200000000004 0.97726
vn -0.053736 0.18995100000000006 0.980322
vn -0.041911 0.18626500000000004 0.981605
vn -0.034629 0.17096000000000006 0.984669
vn 0.03552 0.19206300000000007 0.98074
vn -0.491648 0.21329100000000006 0.844268
vn -0.366753 0.33522700000000005 0.867822
vn -0.318016 0.40835200000000005 0.855637
vn -0.058222 0.523374 0.850112
vn 0.085253 0.530794 0.843202
vn 0.324637 0.4159050000000001 0.849491
vn 0.347267 0.35242200000000007 0.869025
vn 0.491647 0.21329100000000006 0.844269
vn 0.917389 0.397991 -2.436992021197271E-17
vn 0.917389 0.397991 -2.436992021197271E-17
vn 0.787129 0.616788 -3.776737249762488E-17
vn 0.59071 0.806884 -4.940739539416065E-17
vn 0.130697 0.991422 -6.070708894521337E-17
vn -0.130698 0.991422 -6.070708894521337E-17
vn -0.59071 0.806884 -4.940739539416065E-17
vn -0.787129 0.616788 -3.776737249762488E-17
vn -0.91739 0.397991 -2.436992021197271E-17
vn -0.91739 0.397991 -2.436992021197271E-17
vn 0 6.123233995736766E-17 1
vn 0 6.123233995736766E-17 1
vn 0 6.123233995736766E-17 1
vn 0 6.123233995736766E-17 1
vn 0 6.123233995736766E-17 1
vn 0 6.123233995736766E-17 1
vn 0.91739 0.39799 -2.4369858979632756E-17
vn 0.91739 0.39799 -2.4369858979632756E-17
vn 0.962471 0.271384 -1.6617477346990265E-17
vn 0.990517 0.137387 -8.412527489722871E-18
vn 0.999994 0.003329 -2.0384245971807693E-19
vn 0.999994 0.003328 -2.0378122737811956E-19
vn 0.214449 0.976491 -0.021854000000000057
vn 0.055874 0.998438 -6.113669504235426E-17
vn 0.124605 0.991743 -0.03032900000000006
vn -0.019647 0.999317 -0.031294000000000065
vn -0.214599 0.97642 -0.02346200000000006
vn -0.367768 0.929918 -5.694105510847543E-17
vn -0.919084 0.394061 -0.0006210000000000242
vn -0.920762 0.390125 -2.388826662586806E-17
vn -0.963244 0.268627 -0.0004250000000000164
vn -0.990515 0.137405 -0.0004260000000000084
vn -0.999994 0.003355 -5.000000000000206E-06
vn -0.999994 0.003328 -2.0378122737811956E-19
vn -0.998769 -0.004906999999999997 0.04936
vn -0.998701 3.1200326501877117E-18 0.050954
vn -0.999102 -0.0032709999999999974 0.042252
vn -0.999611 -0.009934999999999998 0.026066
vn -0.999926 -0.0066619999999999995 0.01014
vn -0.999949 -0.009993 0.0011930000000000007
vn -1 0 0
vn 0 0.999978 0.0066009999999999385
vn 0 0.999978 0.0066009999999999385
vn 0 0.99377 -0.11144800000000006
vn 0 0.973287 -0.22959100000000005
vn 0 0.985429 -0.17008500000000004
vn 0 0.985429 -0.17008500000000004
vn 0 0.999967 0.00810599999999994
vn 0 0.999967 0.00810599999999994
vn -0.099082 0.99345 0.056912999999999936
vn -0.124137 0.991174 0.04652899999999994
vn -0.090701 0.98108 -0.17104100000000005
vn -0.016432 0.932402 -0.36104900000000006
vn 0.013626 0.834713 -0.550517
vn 0.086468 0.86353 -0.49683000000000005
vn 0.047986 0.998213 0.035618999999999935
vn 0.019452 0.999512 0.024449999999999937
vn 0.056045 0.987513 -0.14723400000000006
vn 0.021106 0.930298 -0.3661980000000001
vn -0.008105 0.835576 -0.549315
vn -0.082542 0.798744 -0.595982
vn 0.058092 0.14540300000000006 0.987666
vn -0.005785 0.15251900000000004 0.988284
vn 0.035461 0.14455100000000007 0.988862
vn 0.089944 0.14162000000000005 0.985827
vn 0.103224 0.14688200000000007 0.983753
vn 0.169476 -0.985534 6.034655292754438E-17
vn 0.458476 -0.888707 5.441760914649234E-17
vn 0.458475 -0.888707 5.441760914649234E-17
vn -0.169476 -0.985534 6.034655292754438E-17
vn -0.458475 -0.888707 5.441760914649234E-17
vn -0.458476 -0.888707 5.441760914649234E-17
vn -0.144637 0.989485 -6.058848190271594E-17
vn 0 1 -6.123233995736766E-17
vn 0 1 -6.123233995736766E-17
vn -0.144637 0.989485 -6.058848190271594E-17
vn -0.286232 0.95816 -1.0000000000586703E-06
vn -0.286232 0.95816 -1.0000000000586703E-06
vn 0.999815 -0.005018999999999999 0.018591
vn 1 -1.959434878635765E-21 -3.2E-05
vn 1 0.000177 -1.500000000000001E-05
vn 1 0.00017699999999999997 -0.000225
vn 0.999602 -0.012725999999999998 0.025169
vn 0.998828 -0.012721999999999997 0.046707
vn 0.999091 2.610763278762285E-18 0.042637
g Standard_4
f 1/1/1 2/2/2 3/3/3
f 4/4/4 5/5/5 6/6/6
f 7/7/7 8/8/8 9/9/9
f 10/10/10 11/11/11 12/12/12
f 13/13/13 14/14/14 15/15/15
f 16/16/16 17/17/17 18/18/18
f 19/19/19 20/20/20 21/21/21
f 22/22/22 23/23/23 19/19/19
f 24/24/24 25/25/25 26/26/26
f 26/26/26 27/27/27 24/24/24
f 28/28/28 29/29/29 30/30/30
f 30/30/30 31/31/31 28/28/28
f 32/32/32 33/33/33 34/34/34
f 34/34/34 35/35/35 32/32/32
f 36/36/36 37/37/37 38/38/38
f 38/38/38 39/39/39 36/36/36
f 40/40/40 41/41/41 42/42/42
f 42/42/42 43/43/43 40/40/40
f 44/44/44 45/45/45 46/46/46
f 46/46/46 47/47/47 44/44/44
f 48/48/48 49/49/49 50/50/50
f 50/50/50 51/51/51 48/48/48
f 52/52/52 53/53/53 54/54/54
f 54/54/54 55/55/55 52/52/52
f 56/56/56 57/57/57 58/58/58
f 58/58/58 59/59/59 56/56/56
f 60/60/60 61/61/61 62/62/62
f 62/62/62 63/63/63 60/60/60
f 64/64/64 65/65/65 66/66/66
f 66/66/66 67/67/67 64/64/64
f 68/68/68 69/69/69 70/70/70
f 70/70/70 71/71/71 68/68/68
f 72/72/72 73/73/73 74/74/74
f 74/74/74 75/75/75 72/72/72
f 76/76/76 77/77/77 78/78/78
f 78/78/78 79/79/79 76/76/76
f 80/80/80 81/81/81 82/82/82
f 82/82/82 83/83/83 80/80/80
f 84/84/84 85/85/85 86/86/86
f 86/86/86 87/87/87 84/84/84
f 88/88/88 89/89/89 90/90/90
f 90/90/90 91/91/91 88/88/88
f 92/92/92 93/93/93 94/94/94
f 94/94/94 95/95/95 92/92/92
f 96/96/96 97/97/97 98/98/98
f 98/98/98 99/99/99 96/96/96
f 100/100/100 101/101/101 102/102/102
f 102/102/102 103/103/103 100/100/100
f 104/104/104 105/105/105 106/106/106
f 106/106/106 107/107/107 104/104/104
f 108/108/108 109/109/109 110/110/110
f 110/110/110 111/111/111 108/108/108
f 112/112/112 113/113/113 114/114/114
f 114/114/114 115/115/115 112/112/112
f 116/116/116 117/117/117 118/118/118
f 118/118/118 119/119/119 116/116/116
f 120/120/120 121/121/121 122/122/122
f 122/122/122 123/123/123 120/120/120
f 124/124/124 125/125/125 126/126/126
f 126/126/126 127/127/127 124/124/124
f 128/128/128 129/129/129 130/130/130
f 130/130/130 131/131/131 128/128/128
f 132/132/132 133/133/133 134/134/134
f 134/134/134 135/135/135 132/132/132
f 136/136/136 137/137/137 138/138/138
f 138/138/138 139/139/139 136/136/136
f 140/140/140 141/141/141 142/142/142
f 142/142/142 143/143/143 140/140/140
f 144/144/144 145/145/145 146/146/146
f 146/146/146 147/147/147 144/144/144
f 148/148/148 149/149/149 150/150/150
f 150/150/150 151/151/151 148/148/148
f 152/152/152 153/153/153 154/154/154
f 154/154/154 155/155/155 152/152/152
f 156/156/156 157/157/157 158/158/158
f 158/158/158 159/159/159 156/156/156
f 160/160/160 161/161/161 162/162/162
f 162/162/162 163/163/163 160/160/160
f 164/164/164 165/165/165 166/166/166
f 166/166/166 167/167/167 164/164/164
f 168/168/168 169/169/169 170/170/170
f 170/170/170 171/171/171 168/168/168
f 172/172/172 173/173/173 174/174/174
f 174/174/174 175/175/175 172/172/172
f 176/176/176 177/177/177 178/178/178
f 178/178/178 179/179/179 176/176/176
f 180/180/180 181/181/181 182/182/182
f 182/182/182 183/183/183 180/180/180
f 184/184/184 185/185/185 186/186/186
f 186/186/186 187/187/187 184/184/184
f 188/188/188 189/189/189 190/190/190
f 190/190/190 191/191/191 188/188/188
f 192/192/192 193/193/193 194/194/194
f 194/194/194 195/195/195 192/192/192
f 196/196/196 197/197/197 198/198/198
f 198/198/198 199/199/199 196/196/196
f 200/200/200 201/201/201 202/202/202
f 202/202/202 203/203/203 200/200/200
f 204/204/204 205/205/205 206/206/206
f 206/206/206 207/207/207 204/204/204
f 208/208/208 209/209/209 210/210/210
f 210/210/210 211/211/211 208/208/208
f 212/212/212 213/213/213 214/214/214
f 214/214/214 215/215/215 212/212/212
f 216/216/216 217/217/217 218/218/218
f 218/218/218 219/219/219 216/216/216
f 220/220/220 221/221/221 222/222/222
f 222/222/222 223/223/223 220/220/220
f 224/224/224 225/225/225 226/226/226
f 226/226/226 227/227/227 224/224/224
f 228/228/228 229/229/229 230/230/230
f 230/230/230 231/231/231 228/228/228
f 232/232/232 233/233/233 234/234/234
f 234/234/234 235/235/235 232/232/232
f 236/236/236 237/237/237 238/238/238
f 238/238/238 239/239/239 236/236/236
f 240/240/240 241/241/241 242/242/242
f 242/242/242 243/243/243 240/240/240
f 244/244/244 245/245/245 246/246/246
f 246/246/246 247/247/247 244/244/244
f 248/248/248 249/249/249 250/250/250
f 250/250/250 251/251/251 248/248/248
f 252/252/252 253/253/253 254/254/254
f 254/254/254 255/255/255 252/252/252
f 256/256/256 257/257/257 258/258/258
f 258/258/258 259/259/259 256/256/256
f 260/260/260 261/261/261 262/262/262
f 262/262/262 261/261/261 263/263/263
f 263/263/263 264/264/264 262/262/262
f 263/263/263 265/265/265 264/264/264
f 266/266/266 267/267/267 268/268/268
f 268/268/268 267/267/267 269/269/269
f 269/269/269 270/270/270 268/268/268
f 270/270/270 269/269/269 271/271/271
f 271/271/271 272/272/272 270/270/270
f 271/271/271 273/273/273 272/272/272
f 274/274/274 275/275/275 276/276/276
f 276/276/276 277/277/277 274/274/274
f 277/277/277 276/276/276 278/278/278
f 278/278/278 279/279/279 277/277/277
f 279/279/279 278/278/278 280/280/280
f 280/280/280 281/281/281 279/279/279
f 281/281/281 280/280/280 282/282/282
f 282/282/282 283/283/283 281/281/281
f 284/284/284 285/285/285 286/286/286
f 286/286/286 287/287/287 284/284/284
f 287/287/287 286/286/286 288/288/288
f 288/288/288 289/289/289 287/287/287
f 290/290/290 291/291/291 292/292/292
f 292/292/292 293/293/293 290/290/290
f 293/293/293 292/292/292 294/294/294
f 294/294/294 295/295/295 293/293/293
f 296/296/296 297/297/297 298/298/298
f 298/298/298 299/299/299 296/296/296
f 299/299/299 298/298/298 300/300/300
f 300/300/300 301/301/301 299/299/299
f 302/302/302 303/303/303 304/304/304
f 304/304/304 305/305/305 302/302/302
f 305/305/305 304/304/304 306/306/306
f 306/306/306 307/307/307 305/305/305
f 308/308/308 309/309/309 310/310/310
f 310/310/310 311/311/311 308/308/308
f 311/311/311 310/310/310 312/312/312
f 313/313/313 311/311/311 312/312/312
f 312/312/312 314/314/314 313/313/313
f 315/315/315 316/316/316 317/317/317
f 317/317/317 318/318/318 315/315/315
f 318/318/318 317/317/317 319/319/319
f 319/319/319 320/320/320 318/318/318
f 321/321/321 320/320/320 319/319/319
f 319/319/319 322/322/322 321/321/321
f 323/323/323 324/324/324 325/325/325
f 325/325/325 326/326/326 323/323/323
f 326/326/326 325/325/325 327/327/327
f 327/327/327 328/328/328 326/326/326
f 329/329/329 330/330/330 331/331/331
f 331/331/331 332/332/332 329/329/329
f 332/332/332 331/331/331 333/333/333
f 333/333/333 334/334/334 332/332/332
f 335/335/335 336/336/336 337/337/337
f 337/337/337 338/338/338 335/335/335
f 339/339/339 335/335/335 338/338/338
f 340/340/340 341/341/341 342/342/342
f 342/342/342 343/343/343 340/340/340
f 344/344/344 340/340/340 343/343/343
f 343/343/343 345/345/345 344/344/344
f 346/346/346 347/347/347 348/348/348
f 348/348/348 349/349/349 346/346/346
f 346/346/346 349/349/349 350/350/350
f 350/350/350 351/351/351 346/346/346
f 352/352/352 353/353/353 354/354/354
f 354/354/354 355/355/355 352/352/352
f 352/352/352 355/355/355 356/356/356
f 352/352/352 356/356/356 357/357/357
f 357/357/357 358/358/358 352/352/352
