v -1.326269 0.9272940000000001 0.9720149999999999
v -0.168881 1.36261 0.9720149999999999
v -1.040472 0.08608500000000005 0.972015
v 0.012987 0.572792 0.589859
v -0.771142 1.134683 0.9699459999999999
v -0.481806 0.30115600000000003 0.891693
v -1.797048 1.380811 -8.45502885688728E-17
v -1.088624 1.522312 0.027561999999999906
v -0.446554 1.678553 0.021815999999999895
v 0.371189 1.861966 0.013306999999999885
v 1.205937 2.090154 -0.002329000000000128
v -1.62397 0.85693 -5.247182907966707E-17
v -0.945925 0.987489 0.12664099999999995
v -0.31172 1.13905 0.23068099999999991
v 0.57354 1.353954 0.14242699999999991
v 1.436649 1.575621 0.003790999999999904
v -1.561165 0.273157 0.0015759999999999832
v -0.869539 0.384724 0.21534699999999998
v -0.164957 0.550631 0.32781899999999997
v 0.736393 0.807666 0.13058999999999996
v 1.600751 1.0489 -0.0027940000000000642
v -1.491837 -0.379057 0.004860000000000023
v -0.726199 -0.277775 0.21061000000000002
v 0.008307 -0.10432999999999999 0.236377
v 0.870143 0.166798 0.175454
v 1.719923 0.477784 0.00609399999999997
v -1.380313 -1.009048 -0.0033249999999999382
v -0.589311 -0.930547 0.003759000000000057
v 0.16847 -0.746314 0.011241000000000044
v 0.989089 -0.464009 -0.008040999999999972
v 1.805808 -0.136869 -0.004314999999999992
v -0.55029 -1.111748 6.807493148292358E-17
v -0.741596 -1.339737 8.203523143746388E-17
v -0.932902 -1.567726 9.599553139200417E-17
v -1.124207 -1.795715 1.0995583134654446E-16
v -0.772434 -0.925347 5.666116208253029E-17
v -0.963739 -1.153336 0.18859900000000007
v -1.155045 -1.381325 0.14538600000000007
v -1.346351 -1.609315 9.854212317849114E-17
v -0.994577 -0.738946 4.5247392682137004E-17
v -1.178488 -0.978579 0.15539600000000006
v -1.377188 -1.194925 0.10046400000000007
v -1.568494 -1.422914 8.712835377809784E-17
v -1.216721 -0.552546 3.383368451408367E-17
v -1.408026 -0.780535 4.7793984468623966E-17
v -1.599332 -1.008525 6.175434565550421E-17
v -1.790638 -1.236514 7.571464561004451E-17
v 0.36111 -0.86541 5.299107932250555E-17
v 0.169804 -1.093399 6.695137927704584E-17
v -0.021502 -1.321388 8.091167923158613E-17
v -0.212808 -1.549377 9.487197918612644E-17
v 0.138966 -0.679009 4.1577309922112256E-17
v -0.05234 -0.906998 0.18859900000000004
v -0.243645 -1.134988 0.14538600000000007
v -0.434951 -1.362977 8.345827101807311E-17
v -0.083177 -0.492609 3.0163601754058926E-17
v -0.267088 -0.732241 0.15539600000000006
v -0.465789 -0.948587 0.10046400000000005
v -0.657095 -1.176576 7.204450161767982E-17
v -0.305321 -0.306208 1.8749832353665635E-17
v -0.496627 -0.534197 3.2710132308205937E-17
v -0.687932 -0.762187 4.667049349508618E-17
v -0.879238 -0.990176 6.063079344962647E-17
v 1.105826 -0.042244 0.032093
v 1.367166 -0.527878 0.18905800000000003
v 1.077403 -0.632172 0.20416100000000004
v 0.793815 0.019752000000000006 0.11185
v 0.769698 -1.378589 0.09330200000000008
v 0.262481 -1.425205 0.1667720000000001
v 0.30708 -0.888383 0.15582300000000004
v 0.608821 -0.870569 0.11735300000000005
v -0.097375 -1.455122 0.17864500000000008
v -0.17634 -0.807561 0.14369900000000005
v 1.238592 -1.166853 0.029822000000000074
v 1.392658 -0.989439 0.00407500000000006
v 0.222189 -0.176911 0.16309
v 0.389176 -0.10462099999999999 0.181919
v -0.169978 -0.10433499999999998 0.131443
v 0.525473 -0.329677 2.01868941401251E-17
v 0.823092 -0.329677 2.01868941401251E-17
v 1.12071 -0.329677 2.01868941401251E-17
v 1.418329 -0.329676 2.0186832907785142E-17
v 0.525473 -0.619664 3.794347670734227E-17
v 0.823092 -0.619664 0.18859900000000002
v 1.12071 -0.619664 0.14538600000000002
v 1.418329 -0.619664 3.794347670734227E-17
v 0.525473 -0.909652 5.570012050689941E-17
v 0.827257 -0.896502 0.15539600000000006
v 1.12071 -0.909652 0.10046400000000005
v 1.418329 -0.909652 5.570012050689941E-17
v 0.525473 -1.19964 7.345676430645655E-17
v 0.823092 -1.19964 7.345676430645655E-17
v 1.12071 -1.19964 7.345676430645655E-17
v 1.418329 -1.19964 7.345676430645655E-17
v -0.375262 1.241183 0.17065399999999992
v -0.402838 1.225262 0.17065399999999992
v -0.402838 1.257104 0.17065399999999992
v -0.375262 1.241183 1.099482
v -0.402838 1.225262 1.099482
v -0.402838 1.257104 1.099482
v -0.283191 1.004405 0.18336099999999994
v -0.310767 0.988865 0.17989799999999995
v -0.310767 0.7868410000000001 1.08649
v -0.283191 0.8023810000000001 1.089952
v -0.310767 1.019945 0.18682399999999993
v -0.310767 0.8179210000000001 1.093415
v 0.093358 1.09128 0.7965559999999999
v 0.091051 1.078755 0.7818779999999999
v -0.295862 0.7956190000000001 1.084305
v -0.293556 0.8081440000000001 1.098983
v 0.080068 1.094759 0.7828109999999999
v -0.306845 0.8116230000000001 1.085238
v 0.632634 -0.427666 0.02204100000000003
v 0.610046 -0.447363 0.011287000000000028
v 0.350509 -0.344082 0.367264
v 0.373098 -0.324384 0.378018
v 0.610046 -0.416782 0.0024140000000000255
v 0.350509 -0.313501 0.358391
v 0.834789 -0.50447 0.02186500000000003
v 0.812051 -0.516927 0.04035100000000003
v 0.918741 -0.22441599999999998 0.368681
v 0.941479 -0.21195899999999998 0.350195
v 0.805243 -0.492635 0.02092200000000003
v 0.911933 -0.20012399999999997 0.349251
v 0.31792 -0.882392 0.007601000000000054
v 0.292869 -0.877537 0.026648000000000054
v 0.515773 -1.071594 0.36928700000000003
v 0.540824 -1.07645 0.35024000000000005
v 0.315653 -0.85541 0.024358000000000053
v 0.538557 -1.049468 0.36699600000000004
v 0.770707 1.285377 0.1641479999999999
v 0.832854 1.278013 0.1641479999999999
v 0.770707 1.285377 0.7977419999999998
v 0.832854 1.278013 0.7977419999999998
v 0.776843 1.337166 0.1641479999999999
v 0.83899 1.329803 0.1641479999999999
v 0.776843 1.337166 0.7977419999999998
v 0.83899 1.329803 0.7977419999999998
v 0.770707 0.84612 0.10746899999999994
v 0.832854 0.840427 0.11213999999999995
v 0.770707 1.247988 0.5973089999999999
v 0.832854 1.242296 0.6019789999999999
v 0.776843 0.886158 0.07462099999999995
v 0.83899 0.880466 0.07929199999999995
v 0.776843 1.288027 0.5644599999999999
v 0.83899 1.282334 0.5691309999999999
v 1.130322 0.712512 0.008721999999999957
v 1.099093 0.802218 0.848618
v 1.185992 1.37004 0.008721999999999917
v 1.14227 1.316954 0.7634879999999999
v 1.130322 0.712512 0.008721999999999957
v 1.099093 0.802218 0.848618
v 1.185992 1.37004 0.008721999999999917
v 1.14227 1.316954 0.7634879999999999
v 1.132371 1.325332 0.03890399999999992
v 1.194518 1.317969 0.03890399999999992
v 1.116074 1.296867 0.7977419999999998
v 1.178222 1.289503 0.7977419999999998
v 1.138507 1.377121 0.03890399999999992
v 1.200654 1.369758 0.03890399999999992
v 1.122211 1.348656 0.7977419999999998
v 1.184358 1.341293 0.7977419999999998
v 1.07982 0.715225 0.03890399999999996
v 1.063523 0.761575 0.608533
v 1.12567 0.754212 0.608533
v 1.141967 0.707861 0.03890399999999996
v 1.085956 0.767014 0.03890399999999995
v 1.148103 0.75965 0.03890399999999995
v 1.131807 0.806001 0.608533
v 1.069659 0.813365 0.608533
v 0.01008 0.746315 0.006124999999999954
v 3E-05 0.830833 0.884022
v 1.12583 0.701954 0.006124999999999957
v 1.103714 0.798832 0.884022
v 0.01008 0.746315 0.006124999999999954
v 3E-05 0.830833 0.884022
v 1.12583 0.701954 0.006124999999999957
v 1.103714 0.798832 0.884022
v 0.467394 1.376362 0.7395509999999998
v 0.84399 1.345733 0.7437549999999999
v 0.410966 0.818137 0.852317
v 0.787503 0.812996 0.856544
v 0.467394 1.376362 0.7395509999999998
v 0.84399 1.345733 0.7437549999999999
v 0.410966 0.818137 0.852317
v 0.787503 0.812996 0.856544
v 0.557862 1.362486 0.7189619999999999
v 0.521618 0.81148 0.850155
v -0.147498 1.413238 0.7191069999999999
v -0.098503 0.841511 0.752194
v -0.389931 1.243567 0.9836449999999999
v -0.17963 1.376243 0.9710249999999999
v -0.123356 1.249136 0.9627869999999998
v -0.40828 1.101485 0.9750669999999999
v 0.210056 1.139728 0.7722509999999999
v 0.25159 0.91105 0.8164099999999999
v 0.009943 0.913707 0.8551089999999999
v -0.009932 1.049886 0.8331499999999998
v 0.276506 0.75015 0.808154
v -0.012761 0.694565 0.826899
v 0.096776 1.345392 0.7507109999999999
v 0.011065 1.409578 0.7483109999999998
v -0.304361 0.8518350000000001 0.921014
v -0.340077 0.9236950000000002 0.9541049999999999
v -0.327611 0.67461 0.877147
v -1.409816 1.007172 0.006124999999999939
v -1.327681 0.9432280000000001 0.9725979999999999
v -0.173859 1.498741 0.006124999999999908
v -0.139417 1.373903 0.9725979999999999
v -1.409816 1.007172 0.006124999999999939
v -1.327681 0.9432280000000001 0.9725979999999999
v -0.173859 1.498741 0.006124999999999908
v -0.139417 1.373903 0.9725979999999999
v 0.195064 0.437358 0.12629799999999997
v 0.095608 0.47447800000000007 0.540634
v -0.173698 1.451712 0.1262979999999999
v -0.206452 1.362834 0.5917809999999999
v 0.060625 0.388427 0.12629799999999997
v 0.095608 0.47447800000000007 0.540634
v -0.308137 1.402781 0.1262979999999999
v -0.206452 1.362834 0.5917809999999999
v 0.036788 0.952433 0.12629799999999994
v -0.023399 0.926491 0.5113369999999999
v -0.094814 0.895708 0.12629799999999994
v -0.023399 0.926491 0.5113369999999999
v -0.36298 0.378294 0.12629799999999997
v -0.344313 0.31545900000000004 0.540634
v -1.072798 0.129893 0.126298
v -1.05466 0.06686600000000004 0.591781
v -0.314048 0.243855 0.12629799999999997
v -0.344313 0.31545900000000004 0.540634
v -1.023867 -0.004544999999999993 0.126298
v -1.05466 0.06686600000000004 0.591781
v -0.722751 0.211168 0.126298
v -0.696808 0.15098100000000003 0.511337
v -0.666026 0.07956600000000001 0.126298
v -0.696808 0.15098100000000003 0.511337
v -1.057925 0.324892 0.17158099999999998
v -0.64359 0.259462 0.17552999999999996
v -1.057925 0.33424400000000004 0.775479
v -0.692662 0.26881400000000005 0.94979
v -1.057925 0.181825 0.171581
v -0.64359 0.259462 0.17552999999999996
v -1.057925 0.19117700000000007 0.798672
v -0.692662 0.26881400000000005 0.94979
v -1.057925 0.29089400000000004 0.493695
v -0.594029 0.22546400000000003 0.527439
v -1.057925 0.14782700000000001 0.485402
v -0.594029 0.22546400000000003 0.527439
v -1.026348 0.015669 0.008721999999999999
v -1.020831 0.08301500000000006 1.008989
v -1.386611 1.00232 0.00872199999999994
v -1.33207 0.9535290000000001 0.9960489999999999
v -1.026348 0.015669 0.008721999999999999
v -1.020831 0.08301500000000006 1.008989
v -1.386611 1.00232 0.00872199999999994
v -1.33207 0.9535290000000001 0.9960489999999999
v -0.087682 0.799273 0.17319699999999993
v -0.1532 0.775426 0.54587
v -0.759788 0.554646 0.04708099999999996
v -0.825826 0.53061 0.4196559999999999
v -0.087682 0.799273 0.17319699999999993
v -0.1532 0.775426 0.54587
v -0.759788 0.554646 0.04708099999999996
v -0.825826 0.53061 0.4196559999999999
v 1.179705 1.364086 0.006124999999999917
v 1.161167 1.31973 0.7263979999999999
v -0.174085 1.475709 0.00612499999999991
v -0.189738 1.406224 0.7263979999999999
v 1.179705 1.364086 0.006124999999999917
v 1.161167 1.31973 0.7263979999999999
v -0.174085 1.475709 0.00612499999999991
v -0.189738 1.406224 0.7263979999999999
v -0.481806 0.30115600000000003 0.891693
v -1.326269 0.9272940000000001 0.9720149999999999
v -0.481806 0.30115600000000003 0.891693
v -0.481806 0.30115600000000003 0.891693
v -0.771142 1.134683 0.9699459999999999
v -0.168881 1.36261 0.9720149999999999
v -0.945925 0.987489 0.12664099999999995
v -1.797048 1.380811 -8.45502885688728E-17
v -1.088624 1.522312 0.027561999999999906
v -0.31172 1.13905 0.23068099999999991
v -0.945925 0.987489 0.12664099999999995
v -1.088624 1.522312 0.027561999999999906
v -0.446554 1.678553 0.021815999999999895
v 0.57354 1.353954 0.14242699999999991
v -0.31172 1.13905 0.23068099999999991
v -0.446554 1.678553 0.021815999999999895
v 0.371189 1.861966 0.013306999999999885
v 1.436649 1.575621 0.003790999999999904
v 0.57354 1.353954 0.14242699999999991
v 0.371189 1.861966 0.013306999999999885
v -1.62397 0.85693 -5.247182907966707E-17
v -0.945925 0.987489 0.12664099999999995
v -0.869539 0.384724 0.21534699999999998
v -1.62397 0.85693 -5.247182907966707E-17
v -0.945925 0.987489 0.12664099999999995
v -0.31172 1.13905 0.23068099999999991
v -0.164957 0.550631 0.32781899999999997
v -0.869539 0.384724 0.21534699999999998
v -0.945925 0.987489 0.12664099999999995
v -0.31172 1.13905 0.23068099999999991
v 0.57354 1.353954 0.14242699999999991
v 0.736393 0.807666 0.13058999999999996
v -0.164957 0.550631 0.32781899999999997
v -0.31172 1.13905 0.23068099999999991
v 0.57354 1.353954 0.14242699999999991
v 1.436649 1.575621 0.003790999999999904
v 1.600751 1.0489 -0.0027940000000000642
v 0.736393 0.807666 0.13058999999999996
v 0.57354 1.353954 0.14242699999999991
v -1.561165 0.273157 0.0015759999999999832
v -0.869539 0.384724 0.21534699999999998
v -0.726199 -0.277775 0.21061000000000002
v -1.561165 0.273157 0.0015759999999999832
v -0.869539 0.384724 0.21534699999999998
v -0.164957 0.550631 0.32781899999999997
v 0.008307 -0.10432999999999999 0.236377
v -0.726199 -0.277775 0.21061000000000002
v -0.869539 0.384724 0.21534699999999998
v -0.164957 0.550631 0.32781899999999997
v 0.736393 0.807666 0.13058999999999996
v 0.870143 0.166798 0.175454
v 0.008307 -0.10432999999999999 0.236377
v -0.164957 0.550631 0.32781899999999997
v 0.736393 0.807666 0.13058999999999996
v 1.600751 1.0489 -0.0027940000000000642
v 1.719923 0.477784 0.00609399999999997
v 0.870143 0.166798 0.175454
v 0.736393 0.807666 0.13058999999999996
v -1.491837 -0.379057 0.004860000000000023
v -0.726199 -0.277775 0.21061000000000002
v -0.589311 -0.930547 0.003759000000000057
v -1.491837 -0.379057 0.004860000000000023
v -0.726199 -0.277775 0.21061000000000002
v 0.008307 -0.10432999999999999 0.236377
v 0.16847 -0.746314 0.011241000000000044
v -0.589311 -0.930547 0.003759000000000057
v -0.726199 -0.277775 0.21061000000000002
v 0.008307 -0.10432999999999999 0.236377
v 0.870143 0.166798 0.175454
v 0.989089 -0.464009 -0.008040999999999972
v 0.16847 -0.746314 0.011241000000000044
v 0.008307 -0.10432999999999999 0.236377
v 0.870143 0.166798 0.175454
v 1.719923 0.477784 0.00609399999999997
v 1.805808 -0.136869 -0.004314999999999992
v 0.989089 -0.464009 -0.008040999999999972
v 0.870143 0.166798 0.175454
v -0.963739 -1.153336 0.18859900000000007
v -0.55029 -1.111748 6.807493148292358E-17
v -0.741596 -1.339737 8.203523143746388E-17
v -1.155045 -1.381325 0.14538600000000007
v -0.963739 -1.153336 0.18859900000000007
v -0.741596 -1.339737 8.203523143746388E-17
v -0.932902 -1.567726 9.599553139200417E-17
v -1.346351 -1.609315 9.854212317849114E-17
v -1.155045 -1.381325 0.14538600000000007
v -0.932902 -1.567726 9.599553139200417E-17
v -0.772434 -0.925347 5.666116208253029E-17
v -0.963739 -1.153336 0.18859900000000007
v -1.178488 -0.978579 0.15539600000000006
v -0.772434 -0.925347 5.666116208253029E-17
v -0.963739 -1.153336 0.18859900000000007
v -1.155045 -1.381325 0.14538600000000007
v -1.377188 -1.194925 0.10046400000000007
v -1.178488 -0.978579 0.15539600000000006
v -0.963739 -1.153336 0.18859900000000007
v -1.155045 -1.381325 0.14538600000000007
v -1.346351 -1.609315 9.854212317849114E-17
v -1.568494 -1.422914 8.712835377809784E-17
v -1.377188 -1.194925 0.10046400000000007
v -1.155045 -1.381325 0.14538600000000007
v -0.994577 -0.738946 4.5247392682137004E-17
v -1.178488 -0.978579 0.15539600000000006
v -1.408026 -0.780535 4.7793984468623966E-17
v -0.994577 -0.738946 4.5247392682137004E-17
v -1.178488 -0.978579 0.15539600000000006
v -1.377188 -1.194925 0.10046400000000007
v -1.599332 -1.008525 6.175434565550421E-17
v -1.408026 -0.780535 4.7793984468623966E-17
v -1.178488 -0.978579 0.15539600000000006
v -1.377188 -1.194925 0.10046400000000007
v -1.568494 -1.422914 8.712835377809784E-17
v -1.790638 -1.236514 7.571464561004451E-17
v -1.599332 -1.008525 6.175434565550421E-17
v -1.377188 -1.194925 0.10046400000000007
v -0.05234 -0.906998 0.18859900000000004
v 0.36111 -0.86541 5.299107932250555E-17
v 0.169804 -1.093399 6.695137927704584E-17
v -0.243645 -1.134988 0.14538600000000007
v -0.05234 -0.906998 0.18859900000000004
v 0.169804 -1.093399 6.695137927704584E-17
v -0.021502 -1.321388 8.091167923158613E-17
v -0.434951 -1.362977 8.345827101807311E-17
v -0.243645 -1.134988 0.14538600000000007
v -0.021502 -1.321388 8.091167923158613E-17
v 0.138966 -0.679009 4.1577309922112256E-17
v -0.05234 -0.906998 0.18859900000000004
v -0.267088 -0.732241 0.15539600000000006
v 0.138966 -0.679009 4.1577309922112256E-17
v -0.05234 -0.906998 0.18859900000000004
v -0.243645 -1.134988 0.14538600000000007
v -0.465789 -0.948587 0.10046400000000005
v -0.267088 -0.732241 0.15539600000000006
v -0.05234 -0.906998 0.18859900000000004
v -0.243645 -1.134988 0.14538600000000007
v -0.434951 -1.362977 8.345827101807311E-17
v -0.657095 -1.176576 7.204450161767982E-17
v -0.465789 -0.948587 0.10046400000000005
v -0.243645 -1.134988 0.14538600000000007
v -0.083177 -0.492609 3.0163601754058926E-17
v -0.267088 -0.732241 0.15539600000000006
v -0.496627 -0.534197 3.2710132308205937E-17
v -0.083177 -0.492609 3.0163601754058926E-17
v -0.267088 -0.732241 0.15539600000000006
v -0.465789 -0.948587 0.10046400000000005
v -0.687932 -0.762187 4.667049349508618E-17
v -0.496627 -0.534197 3.2710132308205937E-17
v -0.267088 -0.732241 0.15539600000000006
v -0.465789 -0.948587 0.10046400000000005
v -0.657095 -1.176576 7.204450161767982E-17
v -0.879238 -0.990176 6.063079344962647E-17
v -0.687932 -0.762187 4.667049349508618E-17
v -0.465789 -0.948587 0.10046400000000005
v 1.077403 -0.632172 0.20416100000000004
v 1.105826 -0.042244 0.032093
v 0.30708 -0.888383 0.15582300000000004
v 0.769698 -1.378589 0.09330200000000008
v 0.262481 -1.425205 0.1667720000000001
v -0.17634 -0.807561 0.14369900000000005
v 0.30708 -0.888383 0.15582300000000004
v 0.262481 -1.425205 0.1667720000000001
v 0.769698 -1.378589 0.09330200000000008
v 0.608821 -0.870569 0.11735300000000005
v 1.077403 -0.632172 0.20416100000000004
v 1.077403 -0.632172 0.20416100000000004
v 0.769698 -1.378589 0.09330200000000008
v 1.367166 -0.527878 0.18905800000000003
v 1.238592 -1.166853 0.029822000000000074
v 1.238592 -1.166853 0.029822000000000074
v 1.077403 -0.632172 0.20416100000000004
v 1.367166 -0.527878 0.18905800000000003
v 0.608821 -0.870569 0.11735300000000005
v 0.608821 -0.870569 0.11735300000000005
v 0.30708 -0.888383 0.15582300000000004
v 0.222189 -0.176911 0.16309
v 0.222189 -0.176911 0.16309
v 0.30708 -0.888383 0.15582300000000004
v 0.30708 -0.888383 0.15582300000000004
v -0.17634 -0.807561 0.14369900000000005
v -0.169978 -0.10433499999999998 0.131443
v 0.608821 -0.870569 0.11735300000000005
v 0.389176 -0.10462099999999999 0.181919
v 0.793815 0.019752000000000006 0.11185
v 0.793815 0.019752000000000006 0.11185
v 1.077403 -0.632172 0.20416100000000004
v 0.608821 -0.870569 0.11735300000000005
v 0.823092 -0.619664 0.18859900000000002
v 0.525473 -0.329677 2.01868941401251E-17
v 0.823092 -0.329677 2.01868941401251E-17
v 1.12071 -0.619664 0.14538600000000002
v 0.823092 -0.619664 0.18859900000000002
v 0.823092 -0.329677 2.01868941401251E-17
v 1.12071 -0.329677 2.01868941401251E-17
v 1.418329 -0.619664 3.794347670734227E-17
v 1.12071 -0.619664 0.14538600000000002
v 1.12071 -0.329677 2.01868941401251E-17
v 0.525473 -0.619664 3.794347670734227E-17
v 0.823092 -0.619664 0.18859900000000002
v 0.827257 -0.896502 0.15539600000000006
v 0.525473 -0.619664 3.794347670734227E-17
v 0.823092 -0.619664 0.18859900000000002
v 1.12071 -0.619664 0.14538600000000002
v 1.12071 -0.909652 0.10046400000000005
v 0.827257 -0.896502 0.15539600000000006
v 0.823092 -0.619664 0.18859900000000002
v 1.12071 -0.619664 0.14538600000000002
v 1.418329 -0.619664 3.794347670734227E-17
v 1.418329 -0.909652 5.570012050689941E-17
v 1.12071 -0.909652 0.10046400000000005
v 1.12071 -0.619664 0.14538600000000002
v 0.525473 -0.909652 5.570012050689941E-17
v 0.827257 -0.896502 0.15539600000000006
v 0.823092 -1.19964 7.345676430645655E-17
v 0.525473 -0.909652 5.570012050689941E-17
v 0.827257 -0.896502 0.15539600000000006
v 1.12071 -0.909652 0.10046400000000005
v 1.12071 -1.19964 7.345676430645655E-17
v 0.823092 -1.19964 7.345676430645655E-17
v 0.827257 -0.896502 0.15539600000000006
v 1.12071 -0.909652 0.10046400000000005
v 1.418329 -0.909652 5.570012050689941E-17
v 1.418329 -1.19964 7.345676430645655E-17
v 1.12071 -1.19964 7.345676430645655E-17
v 1.12071 -0.909652 0.10046400000000005
v -0.402838 1.225262 1.099482
v -0.402838 1.225262 0.17065399999999992
v -0.375262 1.241183 1.099482
v -0.402838 1.257104 1.099482
v -0.402838 1.257104 0.17065399999999992
v -0.375262 1.241183 0.17065399999999992
v -0.375262 1.241183 1.099482
v -0.402838 1.225262 1.099482
v -0.402838 1.257104 1.099482
v -0.310767 0.7868410000000001 1.08649
v -0.310767 0.988865 0.17989799999999995
v -0.283191 0.8023810000000001 1.089952
v -0.310767 0.8179210000000001 1.093415
v -0.310767 1.019945 0.18682399999999993
v -0.283191 1.004405 0.18336099999999994
v -0.283191 0.8023810000000001 1.089952
v -0.310767 0.7868410000000001 1.08649
v -0.310767 0.8179210000000001 1.093415
v -0.295862 0.7956190000000001 1.084305
v 0.091051 1.078755 0.7818779999999999
v -0.293556 0.8081440000000001 1.098983
v -0.306845 0.8116230000000001 1.085238
v 0.080068 1.094759 0.7828109999999999
v 0.093358 1.09128 0.7965559999999999
v -0.293556 0.8081440000000001 1.098983
v -0.295862 0.7956190000000001 1.084305
v -0.306845 0.8116230000000001 1.085238
v 0.350509 -0.344082 0.367264
v 0.610046 -0.447363 0.011287000000000028
v 0.373098 -0.324384 0.378018
v 0.350509 -0.313501 0.358391
v 0.610046 -0.416782 0.0024140000000000255
v 0.632634 -0.427666 0.02204100000000003
v 0.373098 -0.324384 0.378018
v 0.350509 -0.344082 0.367264
v 0.350509 -0.313501 0.358391
v 0.918741 -0.22441599999999998 0.368681
v 0.812051 -0.516927 0.04035100000000003
v 0.941479 -0.21195899999999998 0.350195
v 0.911933 -0.20012399999999997 0.349251
v 0.805243 -0.492635 0.02092200000000003
v 0.834789 -0.50447 0.02186500000000003
v 0.941479 -0.21195899999999998 0.350195
v 0.918741 -0.22441599999999998 0.368681
v 0.911933 -0.20012399999999997 0.349251
v 0.515773 -1.071594 0.36928700000000003
v 0.292869 -0.877537 0.026648000000000054
v 0.540824 -1.07645 0.35024000000000005
v 0.538557 -1.049468 0.36699600000000004
v 0.315653 -0.85541 0.024358000000000053
v 0.31792 -0.882392 0.007601000000000054
v 0.540824 -1.07645 0.35024000000000005
v 0.515773 -1.071594 0.36928700000000003
v 0.538557 -1.049468 0.36699600000000004
v 0.832854 1.278013 0.1641479999999999
v 0.832854 1.278013 0.7977419999999998
v 0.83899 1.329803 0.7977419999999998
v 0.83899 1.329803 0.1641479999999999
v 0.832854 1.278013 0.7977419999999998
v 0.770707 1.285377 0.7977419999999998
v 0.776843 1.337166 0.7977419999999998
v 0.83899 1.329803 0.7977419999999998
v 0.770707 1.285377 0.7977419999999998
v 0.770707 1.285377 0.1641479999999999
v 0.776843 1.337166 0.1641479999999999
v 0.776843 1.337166 0.7977419999999998
v 0.832854 0.840427 0.11213999999999995
v 0.832854 1.242296 0.6019789999999999
v 0.83899 1.282334 0.5691309999999999
v 0.83899 0.880466 0.07929199999999995
v 0.832854 1.242296 0.6019789999999999
v 0.770707 1.247988 0.5973089999999999
v 0.776843 1.288027 0.5644599999999999
v 0.83899 1.282334 0.5691309999999999
v 0.770707 1.247988 0.5973089999999999
v 0.770707 0.84612 0.10746899999999994
v 0.776843 0.886158 0.07462099999999995
v 0.776843 1.288027 0.5644599999999999
v 1.099093 0.802218 0.848618
v 1.185992 1.37004 0.008721999999999917
v 1.14227 1.316954 0.7634879999999999
v 1.130322 0.712512 0.008721999999999957
v 1.194518 1.317969 0.03890399999999992
v 1.178222 1.289503 0.7977419999999998
v 1.184358 1.341293 0.7977419999999998
v 1.200654 1.369758 0.03890399999999992
v 1.178222 1.289503 0.7977419999999998
v 1.116074 1.296867 0.7977419999999998
v 1.122211 1.348656 0.7977419999999998
v 1.184358 1.341293 0.7977419999999998
v 1.116074 1.296867 0.7977419999999998
v 1.132371 1.325332 0.03890399999999992
v 1.138507 1.377121 0.03890399999999992
v 1.122211 1.348656 0.7977419999999998
v 1.141967 0.707861 0.03890399999999996
v 1.12567 0.754212 0.608533
v 1.131807 0.806001 0.608533
v 1.148103 0.75965 0.03890399999999995
v 1.12567 0.754212 0.608533
v 1.063523 0.761575 0.608533
v 1.069659 0.813365 0.608533
v 1.131807 0.806001 0.608533
v 1.063523 0.761575 0.608533
v 1.07982 0.715225 0.03890399999999996
v 1.085956 0.767014 0.03890399999999995
v 1.069659 0.813365 0.608533
v 3E-05 0.830833 0.884022
v 1.12583 0.701954 0.006124999999999957
v 1.103714 0.798832 0.884022
v 0.01008 0.746315 0.006124999999999954
v 0.84399 1.345733 0.7437549999999999
v 0.410966 0.818137 0.852317
v 0.787503 0.812996 0.856544
v 0.467394 1.376362 0.7395509999999998
v 0.521618 0.81148 0.850155
v -0.147498 1.413238 0.7191069999999999
v -0.123356 1.249136 0.9627869999999998
v -0.389931 1.243567 0.9836449999999999
v 0.009943 0.913707 0.8551089999999999
v 0.210056 1.139728 0.7722509999999999
v 0.25159 0.91105 0.8164099999999999
v -0.012761 0.694565 0.826899
v 0.009943 0.913707 0.8551089999999999
v 0.25159 0.91105 0.8164099999999999
v 0.210056 1.139728 0.7722509999999999
v -0.009932 1.049886 0.8331499999999998
v -0.123356 1.249136 0.9627869999999998
v -0.123356 1.249136 0.9627869999999998
v 0.210056 1.139728 0.7722509999999999
v -0.17963 1.376243 0.9710249999999999
v 0.096776 1.345392 0.7507109999999999
v 0.096776 1.345392 0.7507109999999999
v -0.123356 1.249136 0.9627869999999998
v -0.17963 1.376243 0.9710249999999999
v -0.009932 1.049886 0.8331499999999998
v -0.009932 1.049886 0.8331499999999998
v 0.009943 0.913707 0.8551089999999999
v -0.304361 0.8518350000000001 0.921014
v -0.304361 0.8518350000000001 0.921014
v 0.009943 0.913707 0.8551089999999999
v 0.009943 0.913707 0.8551089999999999
v -0.012761 0.694565 0.826899
v -0.327611 0.67461 0.877147
v -0.009932 1.049886 0.8331499999999998
v -0.340077 0.9236950000000002 0.9541049999999999
v -0.40828 1.101485 0.9750669999999999
v -0.40828 1.101485 0.9750669999999999
v -0.123356 1.249136 0.9627869999999998
v -0.009932 1.049886 0.8331499999999998
v -1.327681 0.9432280000000001 0.9725979999999999
v -0.173859 1.498741 0.006124999999999908
v -0.139417 1.373903 0.9725979999999999
v -1.409816 1.007172 0.006124999999999939
v -0.023399 0.926491 0.5113369999999999
v -0.173698 1.451712 0.1262979999999999
v -0.094814 0.895708 0.12629799999999994
v 0.095608 0.47447800000000007 0.540634
v 0.060625 0.388427 0.12629799999999997
v 0.095608 0.47447800000000007 0.540634
v -0.173698 1.451712 0.1262979999999999
v 0.195064 0.437358 0.12629799999999997
v -0.023399 0.926491 0.5113369999999999
v -0.023399 0.926491 0.5113369999999999
v 0.036788 0.952433 0.12629799999999994
v 0.195064 0.437358 0.12629799999999997
v -0.308137 1.402781 0.1262979999999999
v -0.206452 1.362834 0.5917809999999999
v -0.023399 0.926491 0.5113369999999999
v -0.023399 0.926491 0.5113369999999999
v -0.094814 0.895708 0.12629799999999994
v -0.308137 1.402781 0.1262979999999999
v -0.696808 0.15098100000000003 0.511337
v -1.072798 0.129893 0.126298
v -0.666026 0.07956600000000001 0.126298
v -0.344313 0.31545900000000004 0.540634
v -0.314048 0.243855 0.12629799999999997
v -0.344313 0.31545900000000004 0.540634
v -1.072798 0.129893 0.126298
v -0.36298 0.378294 0.12629799999999997
v -0.696808 0.15098100000000003 0.511337
v -0.696808 0.15098100000000003 0.511337
v -0.722751 0.211168 0.126298
v -0.36298 0.378294 0.12629799999999997
v -1.023867 -0.004544999999999993 0.126298
v -1.05466 0.06686600000000004 0.591781
v -0.696808 0.15098100000000003 0.511337
v -0.696808 0.15098100000000003 0.511337
v -0.666026 0.07956600000000001 0.126298
v -1.023867 -0.004544999999999993 0.126298
v -0.594029 0.22546400000000003 0.527439
v -1.057925 0.33424400000000004 0.775479
v -1.057925 0.14782700000000001 0.485402
v -0.64359 0.259462 0.17552999999999996
v -1.057925 0.181825 0.171581
v -0.64359 0.259462 0.17552999999999996
v -1.057925 0.33424400000000004 0.775479
v -1.057925 0.324892 0.17158099999999998
v -0.594029 0.22546400000000003 0.527439
v -0.594029 0.22546400000000003 0.527439
v -1.057925 0.29089400000000004 0.493695
v -1.057925 0.324892 0.17158099999999998
v -1.057925 0.19117700000000007 0.798672
v -0.692662 0.26881400000000005 0.94979
v -0.594029 0.22546400000000003 0.527439
v -1.057925 0.14782700000000001 0.485402
v -1.020831 0.08301500000000006 1.008989
v -1.386611 1.00232 0.00872199999999994
v -1.33207 0.9535290000000001 0.9960489999999999
v -1.026348 0.015669 0.008721999999999999
v 1.161167 1.31973 0.7263979999999999
v -0.174085 1.475709 0.00612499999999991
v -0.189738 1.406224 0.7263979999999999
v 1.179705 1.364086 0.006124999999999917
vt 0.004666 0.805056
vt 0.453667 0.805056
vt 0.004666 0.589389
vt 0.453667 0.589389
vt 0.229167 0.805056
vt 0.229167 0.589389
vt 0.466667 0.990278
vt 0.597569 0.990278
vt 0.728472 0.990278
vt 0.859375 0.990278
vt 0.990278 0.990278
vt 0.466667 0.900000
vt 0.597569 0.900000
vt 0.728472 0.900000
vt 0.859375 0.900000
vt 0.990278 0.900000
vt 0.466667 0.809722
vt 0.597569 0.809722
vt 0.728472 0.809722
vt 0.859375 0.809722
vt 0.990278 0.809722
vt 0.466667 0.719444
vt 0.597569 0.719444
vt 0.728472 0.719444
vt 0.859375 0.719444
vt 0.990278 0.719444
vt 0.466667 0.629167
vt 0.597569 0.629167
vt 0.728472 0.629167
vt 0.859375 0.629167
vt 0.990278 0.629167
vt 0.771333 0.434223
vt 0.828407 0.434223
vt 0.885482 0.434223
vt 0.942556 0.434223
vt 0.771333 0.388722
vt 0.828407 0.388722
vt 0.885482 0.388722
vt 0.942556 0.388722
vt 0.771333 0.343222
vt 0.828407 0.343222
vt 0.885482 0.343222
vt 0.942556 0.343222
vt 0.771333 0.297722
vt 0.828407 0.297722
vt 0.885482 0.297722
vt 0.942556 0.297722
vt 0.771333 0.434223
vt 0.828407 0.434223
vt 0.885482 0.434223
vt 0.942556 0.434223
vt 0.771333 0.388722
vt 0.828407 0.388722
vt 0.885482 0.388722
vt 0.942556 0.388722
vt 0.771333 0.343222
vt 0.828407 0.343222
vt 0.885482 0.343222
vt 0.942556 0.343222
vt 0.771333 0.297722
vt 0.828407 0.297722
vt 0.885482 0.297722
vt 0.942556 0.297722
vt 0.006944 0.813889
vt 0.006944 0.899397
vt 0.055872 0.903078
vt 0.062036 0.813889
vt 0.119444 0.995833
vt 0.187480 0.995833
vt 0.165351 0.901906
vt 0.119444 0.904861
vt 0.231944 0.995833
vt 0.231944 0.904322
vt 0.049461 0.995833
vt 0.006944 0.995833
vt 0.144614 0.813889
vt 0.119444 0.813889
vt 0.231944 0.813889
vt 0.771333 0.434223
vt 0.828407 0.434223
vt 0.885482 0.434223
vt 0.942556 0.434223
vt 0.771333 0.388722
vt 0.828407 0.388722
vt 0.885482 0.388722
vt 0.942556 0.388722
vt 0.771333 0.343222
vt 0.828407 0.343222
vt 0.885482 0.343222
vt 0.942556 0.343222
vt 0.771333 0.297722
vt 0.828407 0.297722
vt 0.885482 0.297722
vt 0.942556 0.297722
vt 0.465278 0.607287
vt 0.465278 0.622222
vt 0.465278 0.592352
vt 0.697047 0.607287
vt 0.697047 0.622222
vt 0.697047 0.592352
vt 0.465278 0.607287
vt 0.465278 0.622222
vt 0.697047 0.622222
vt 0.697047 0.607287
vt 0.465278 0.592352
vt 0.697047 0.592352
vt 0.465278 0.607287
vt 0.465278 0.622222
vt 0.697047 0.622222
vt 0.697047 0.607287
vt 0.465278 0.592352
vt 0.697047 0.592352
vt 0.465278 0.607287
vt 0.465278 0.622222
vt 0.697047 0.622222
vt 0.697047 0.607287
vt 0.465278 0.592352
vt 0.697047 0.592352
vt 0.465278 0.607287
vt 0.465278 0.622222
vt 0.697047 0.622222
vt 0.697047 0.607287
vt 0.465278 0.592352
vt 0.697047 0.592352
vt 0.465278 0.607287
vt 0.465278 0.622222
vt 0.697047 0.622222
vt 0.697047 0.607287
vt 0.465278 0.592352
vt 0.697047 0.592352
vt 0.698977 0.600930
vt 0.698977 0.623866
vt 0.462806 0.600930
vt 0.462806 0.623866
vt 0.698529 0.623905
vt 0.698529 0.601045
vt 0.460899 0.623905
vt 0.460899 0.601045
vt 0.698977 0.600930
vt 0.698977 0.623866
vt 0.462806 0.600930
vt 0.462806 0.623866
vt 0.698529 0.623905
vt 0.698529 0.601045
vt 0.460899 0.623905
vt 0.460899 0.601045
vt 0.681506 0.337323
vt 0.655296 0.000500
vt 0.320365 0.337323
vt 0.346575 0.000499
vt 0.681506 0.337323
vt 0.655296 0.000500
vt 0.320365 0.337323
vt 0.346575 0.000499
vt 0.698977 0.600930
vt 0.698977 0.623866
vt 0.462806 0.600930
vt 0.462806 0.623866
vt 0.698529 0.623905
vt 0.698529 0.601045
vt 0.460899 0.623905
vt 0.460899 0.601045
vt 0.698977 0.600930
vt 0.462806 0.600930
vt 0.462806 0.623866
vt 0.698977 0.623866
vt 0.698529 0.623905
vt 0.698529 0.601045
vt 0.460899 0.601045
vt 0.460899 0.623905
vt 0.674024 0.339194
vt 0.675080 0.000500
vt 0.000500 0.339194
vt -0.000557 0.000499
vt 0.674024 0.339194
vt 0.675080 0.000500
vt 0.000500 0.339194
vt -0.000557 0.000499
vt 0.867629 0.170473
vt 0.997695 0.171148
vt 0.866259 0.012924
vt 0.997695 0.014469
vt 0.867629 0.170473
vt 0.997695 0.171148
vt 0.866259 0.012924
vt 0.997695 0.014469
vt 0.680433 0.544353
vt 0.680321 0.371367
vt 0.482305 0.544352
vt 0.482425 0.371367
vt 0.006944 0.813889
vt 0.006944 0.899397
vt 0.055872 0.903078
vt 0.062036 0.813889
vt 0.119444 0.995833
vt 0.187480 0.995833
vt 0.165351 0.901906
vt 0.119444 0.904861
vt 0.231944 0.995833
vt 0.231944 0.904322
vt 0.049461 0.995833
vt 0.006944 0.995833
vt 0.144614 0.813889
vt 0.119444 0.813889
vt 0.231944 0.813889
vt 0.549024 0.339194
vt 0.550080 0.043555
vt 0.044944 0.339194
vt 0.043888 0.043555
vt 0.549024 0.339194
vt 0.550080 0.043555
vt 0.044944 0.339194
vt 0.043888 0.043555
vt 0.992534 0.622486
vt 0.993034 0.436041
vt 0.715365 0.624421
vt 0.718076 0.436041
vt 0.991848 0.622457
vt 0.993034 0.436041
vt 0.715210 0.624010
vt 0.717475 0.436662
vt 0.851169 0.623456
vt 0.856168 0.436041
vt 0.854326 0.623434
vt 0.856168 0.436041
vt 0.992534 0.622486
vt 0.993034 0.436041
vt 0.715365 0.624421
vt 0.718076 0.436041
vt 0.991848 0.622457
vt 0.993034 0.436041
vt 0.715210 0.624010
vt 0.717475 0.436662
vt 0.851169 0.623456
vt 0.856168 0.436041
vt 0.854326 0.623434
vt 0.856168 0.436041
vt 0.992534 0.622486
vt 0.993034 0.436041
vt 0.715365 0.624421
vt 0.718076 0.436041
vt 0.991848 0.622457
vt 0.993034 0.436041
vt 0.715210 0.624010
vt 0.717475 0.436662
vt 0.851169 0.623456
vt 0.856168 0.436041
vt 0.854326 0.623434
vt 0.856168 0.436041
vt 0.681506 0.337323
vt 0.655296 0.000500
vt 0.320365 0.337323
vt 0.346575 0.000499
vt 0.681506 0.337323
vt 0.655296 0.000500
vt 0.320365 0.337323
vt 0.346575 0.000499
vt 0.867629 0.170473
vt 0.997695 0.171148
vt 0.866259 0.012924
vt 0.997695 0.014469
vt 0.867629 0.170473
vt 0.997695 0.171148
vt 0.866259 0.012924
vt 0.997695 0.014469
vt 0.445233 0.580860
vt 0.445913 0.368555
vt 0.011235 0.580860
vt 0.010554 0.368555
vt 0.445233 0.580860
vt 0.445913 0.368555
vt 0.011235 0.580860
vt 0.010554 0.368555
vt 0.229167 0.589389
vt 0.004666 0.805056
vt 0.229167 0.589389
vt 0.229167 0.589389
vt 0.229167 0.805056
vt 0.453667 0.805056
vt 0.597569 0.900000
vt 0.466667 0.990278
vt 0.597569 0.990278
vt 0.728472 0.900000
vt 0.597569 0.900000
vt 0.597569 0.990278
vt 0.728472 0.990278
vt 0.859375 0.900000
vt 0.728472 0.900000
vt 0.728472 0.990278
vt 0.859375 0.990278
vt 0.990278 0.900000
vt 0.859375 0.900000
vt 0.859375 0.990278
vt 0.466667 0.900000
vt 0.597569 0.900000
vt 0.597569 0.809722
vt 0.466667 0.900000
vt 0.597569 0.900000
vt 0.728472 0.900000
vt 0.728472 0.809722
vt 0.597569 0.809722
vt 0.597569 0.900000
vt 0.728472 0.900000
vt 0.859375 0.900000
vt 0.859375 0.809722
vt 0.728472 0.809722
vt 0.728472 0.900000
vt 0.859375 0.900000
vt 0.990278 0.900000
vt 0.990278 0.809722
vt 0.859375 0.809722
vt 0.859375 0.900000
vt 0.466667 0.809722
vt 0.597569 0.809722
vt 0.597569 0.719444
vt 0.466667 0.809722
vt 0.597569 0.809722
vt 0.728472 0.809722
vt 0.728472 0.719444
vt 0.597569 0.719444
vt 0.597569 0.809722
vt 0.728472 0.809722
vt 0.859375 0.809722
vt 0.859375 0.719444
vt 0.728472 0.719444
vt 0.728472 0.809722
vt 0.859375 0.809722
vt 0.990278 0.809722
vt 0.990278 0.719444
vt 0.859375 0.719444
vt 0.859375 0.809722
vt 0.466667 0.719444
vt 0.597569 0.719444
vt 0.597569 0.629167
vt 0.466667 0.719444
vt 0.597569 0.719444
vt 0.728472 0.719444
vt 0.728472 0.629167
vt 0.597569 0.629167
vt 0.597569 0.719444
vt 0.728472 0.719444
vt 0.859375 0.719444
vt 0.859375 0.629167
vt 0.728472 0.629167
vt 0.728472 0.719444
vt 0.859375 0.719444
vt 0.990278 0.719444
vt 0.990278 0.629167
vt 0.859375 0.629167
vt 0.859375 0.719444
vt 0.828407 0.388722
vt 0.771333 0.434223
vt 0.828407 0.434223
vt 0.885482 0.388722
vt 0.828407 0.388722
vt 0.828407 0.434223
vt 0.885482 0.434223
vt 0.942556 0.388722
vt 0.885482 0.388722
vt 0.885482 0.434223
vt 0.771333 0.388722
vt 0.828407 0.388722
vt 0.828407 0.343222
vt 0.771333 0.388722
vt 0.828407 0.388722
vt 0.885482 0.388722
vt 0.885482 0.343222
vt 0.828407 0.343222
vt 0.828407 0.388722
vt 0.885482 0.388722
vt 0.942556 0.388722
vt 0.942556 0.343222
vt 0.885482 0.343222
vt 0.885482 0.388722
vt 0.771333 0.343222
vt 0.828407 0.343222
vt 0.828407 0.297722
vt 0.771333 0.343222
vt 0.828407 0.343222
vt 0.885482 0.343222
vt 0.885482 0.297722
vt 0.828407 0.297722
vt 0.828407 0.343222
vt 0.885482 0.343222
vt 0.942556 0.343222
vt 0.942556 0.297722
vt 0.885482 0.297722
vt 0.885482 0.343222
vt 0.828407 0.388722
vt 0.771333 0.434223
vt 0.828407 0.434223
vt 0.885482 0.388722
vt 0.828407 0.388722
vt 0.828407 0.434223
vt 0.885482 0.434223
vt 0.942556 0.388722
vt 0.885482 0.388722
vt 0.885482 0.434223
vt 0.771333 0.388722
vt 0.828407 0.388722
vt 0.828407 0.343222
vt 0.771333 0.388722
vt 0.828407 0.388722
vt 0.885482 0.388722
vt 0.885482 0.343222
vt 0.828407 0.343222
vt 0.828407 0.388722
vt 0.885482 0.388722
vt 0.942556 0.388722
vt 0.942556 0.343222
vt 0.885482 0.343222
vt 0.885482 0.388722
vt 0.771333 0.343222
vt 0.828407 0.343222
vt 0.828407 0.297722
vt 0.771333 0.343222
vt 0.828407 0.343222
vt 0.885482 0.343222
vt 0.885482 0.297722
vt 0.828407 0.297722
vt 0.828407 0.343222
vt 0.885482 0.343222
vt 0.942556 0.343222
vt 0.942556 0.297722
vt 0.885482 0.297722
vt 0.885482 0.343222
vt 0.055872 0.903078
vt 0.006944 0.813889
vt 0.165351 0.901906
vt 0.119444 0.995833
vt 0.187480 0.995833
vt 0.231944 0.904322
vt 0.165351 0.901906
vt 0.187480 0.995833
vt 0.119444 0.995833
vt 0.119444 0.904861
vt 0.055872 0.903078
vt 0.055872 0.903078
vt 0.119444 0.995833
vt 0.006944 0.899397
vt 0.049461 0.995833
vt 0.049461 0.995833
vt 0.055872 0.903078
vt 0.006944 0.899397
vt 0.119444 0.904861
vt 0.119444 0.904861
vt 0.165351 0.901906
vt 0.144614 0.813889
vt 0.144614 0.813889
vt 0.165351 0.901906
vt 0.165351 0.901906
vt 0.231944 0.904322
vt 0.231944 0.813889
vt 0.119444 0.904861
vt 0.119444 0.813889
vt 0.062036 0.813889
vt 0.062036 0.813889
vt 0.055872 0.903078
vt 0.119444 0.904861
vt 0.828407 0.388722
vt 0.771333 0.434223
vt 0.828407 0.434223
vt 0.885482 0.388722
vt 0.828407 0.388722
vt 0.828407 0.434223
vt 0.885482 0.434223
vt 0.942556 0.388722
vt 0.885482 0.388722
vt 0.885482 0.434223
vt 0.771333 0.388722
vt 0.828407 0.388722
vt 0.828407 0.343222
vt 0.771333 0.388722
vt 0.828407 0.388722
vt 0.885482 0.388722
vt 0.885482 0.343222
vt 0.828407 0.343222
vt 0.828407 0.388722
vt 0.885482 0.388722
vt 0.942556 0.388722
vt 0.942556 0.343222
vt 0.885482 0.343222
vt 0.885482 0.388722
vt 0.771333 0.343222
vt 0.828407 0.343222
vt 0.828407 0.297722
vt 0.771333 0.343222
vt 0.828407 0.343222
vt 0.885482 0.343222
vt 0.885482 0.297722
vt 0.828407 0.297722
vt 0.828407 0.343222
vt 0.885482 0.343222
vt 0.942556 0.343222
vt 0.942556 0.297722
vt 0.885482 0.297722
vt 0.885482 0.343222
vt 0.697047 0.577417
vt 0.465278 0.577417
vt 0.697047 0.607287
vt 0.697047 0.592352
vt 0.465278 0.592352
vt 0.465278 0.607287
vt 0.527816 0.578120
vt 0.516017 0.595421
vt 0.539615 0.595421
vt 0.697047 0.577417
vt 0.465278 0.577417
vt 0.697047 0.607287
vt 0.697047 0.592352
vt 0.465278 0.592352
vt 0.465278 0.607287
vt 0.527816 0.578120
vt 0.516017 0.595421
vt 0.539615 0.595421
vt 0.697047 0.577417
vt 0.465278 0.577417
vt 0.697047 0.607287
vt 0.697047 0.592352
vt 0.465278 0.592352
vt 0.465278 0.607287
vt 0.527816 0.578120
vt 0.516017 0.595421
vt 0.539615 0.595421
vt 0.697047 0.577417
vt 0.465278 0.577417
vt 0.697047 0.607287
vt 0.697047 0.592352
vt 0.465278 0.592352
vt 0.465278 0.607287
vt 0.527816 0.578120
vt 0.516017 0.595421
vt 0.539615 0.595421
vt 0.697047 0.577417
vt 0.465278 0.577417
vt 0.697047 0.607287
vt 0.697047 0.592352
vt 0.465278 0.592352
vt 0.465278 0.607287
vt 0.527816 0.578120
vt 0.516017 0.595421
vt 0.539615 0.595421
vt 0.697047 0.577417
vt 0.465278 0.577417
vt 0.697047 0.607287
vt 0.697047 0.592352
vt 0.465278 0.592352
vt 0.465278 0.607287
vt 0.527816 0.578120
vt 0.516017 0.595421
vt 0.539615 0.595421
vt 0.698510 0.623295
vt 0.461020 0.623295
vt 0.461020 0.600946
vt 0.698510 0.600946
vt 0.480090 0.621863
vt 0.501592 0.621863
vt 0.501592 0.603065
vt 0.480090 0.603065
vt 0.462864 0.600806
vt 0.698738 0.600806
vt 0.698738 0.623271
vt 0.462864 0.623271
vt 0.698510 0.623295
vt 0.461020 0.623295
vt 0.461020 0.600946
vt 0.698510 0.600946
vt 0.480090 0.621863
vt 0.501592 0.621863
vt 0.501592 0.603065
vt 0.480090 0.603065
vt 0.462864 0.600806
vt 0.698738 0.600806
vt 0.698738 0.623271
vt 0.462864 0.623271
vt 0.655296 0.000500
vt 0.320365 0.337323
vt 0.346575 0.000499
vt 0.681506 0.337323
vt 0.698510 0.623295
vt 0.461020 0.623295
vt 0.461020 0.600946
vt 0.698510 0.600946
vt 0.480090 0.621863
vt 0.501592 0.621863
vt 0.501592 0.603065
vt 0.480090 0.603065
vt 0.462864 0.600806
vt 0.698738 0.600806
vt 0.698738 0.623271
vt 0.462864 0.623271
vt 0.698510 0.623295
vt 0.461020 0.623295
vt 0.461020 0.600946
vt 0.698510 0.600946
vt 0.480090 0.621863
vt 0.501592 0.621863
vt 0.501592 0.603065
vt 0.480090 0.603065
vt 0.462864 0.600806
vt 0.698738 0.600806
vt 0.698738 0.623271
vt 0.462864 0.623271
vt 0.675080 0.000500
vt 0.000500 0.339194
vt -0.000557 0.000499
vt 0.674024 0.339194
vt 0.997695 0.171148
vt 0.866259 0.012924
vt 0.997695 0.014469
vt 0.867629 0.170473
vt 0.680321 0.371367
vt 0.482305 0.544352
vt 0.055872 0.903078
vt 0.006944 0.813889
vt 0.165351 0.901906
vt 0.119444 0.995833
vt 0.187480 0.995833
vt 0.231944 0.904322
vt 0.165351 0.901906
vt 0.187480 0.995833
vt 0.119444 0.995833
vt 0.119444 0.904861
vt 0.055872 0.903078
vt 0.055872 0.903078
vt 0.119444 0.995833
vt 0.006944 0.899397
vt 0.049461 0.995833
vt 0.049461 0.995833
vt 0.055872 0.903078
vt 0.006944 0.899397
vt 0.119444 0.904861
vt 0.119444 0.904861
vt 0.165351 0.901906
vt 0.144614 0.813889
vt 0.144614 0.813889
vt 0.165351 0.901906
vt 0.165351 0.901906
vt 0.231944 0.904322
vt 0.231944 0.813889
vt 0.119444 0.904861
vt 0.119444 0.813889
vt 0.062036 0.813889
vt 0.062036 0.813889
vt 0.055872 0.903078
vt 0.119444 0.904861
vt 0.550080 0.043555
vt 0.044944 0.339194
vt 0.043888 0.043555
vt 0.549024 0.339194
vt 0.856168 0.436041
vt 0.715365 0.624421
vt 0.854326 0.623434
vt 0.993034 0.436041
vt 0.899644 0.622486
vt 0.990414 0.431734
vt 0.808100 0.624010
vt 0.991848 0.622457
vt 0.856168 0.436041
vt 0.856168 0.436041
vt 0.851169 0.623456
vt 0.991848 0.622457
vt 0.715365 0.624421
vt 0.718076 0.436041
vt 0.856168 0.436041
vt 0.856168 0.436041
vt 0.854326 0.623434
vt 0.715365 0.624421
vt 0.856168 0.436041
vt 0.715365 0.624421
vt 0.854326 0.623434
vt 0.993034 0.436041
vt 0.899644 0.622486
vt 0.990414 0.431734
vt 0.808100 0.624010
vt 0.991848 0.622457
vt 0.856168 0.436041
vt 0.856168 0.436041
vt 0.851169 0.623456
vt 0.991848 0.622457
vt 0.715365 0.624421
vt 0.718076 0.436041
vt 0.856168 0.436041
vt 0.856168 0.436041
vt 0.854326 0.623434
vt 0.715365 0.624421
vt 0.856168 0.436041
vt 0.715365 0.624421
vt 0.854326 0.623434
vt 0.993034 0.436041
vt 0.899644 0.622486
vt 0.990414 0.431734
vt 0.808100 0.624010
vt 0.991848 0.622457
vt 0.856168 0.436041
vt 0.856168 0.436041
vt 0.851169 0.623456
vt 0.991848 0.622457
vt 0.715365 0.624421
vt 0.718076 0.436041
vt 0.856168 0.436041
vt 0.854326 0.623434
vt 0.655296 0.000500
vt 0.320365 0.337323
vt 0.346575 0.000499
vt 0.681506 0.337323
vt 0.445913 0.368555
vt 0.011235 0.580860
vt 0.010554 0.368555
vt 0.445233 0.580860
vn 0.034212 -0.08163699999999995 0.996075
vn 0.596705 -0.23399799999999996 0.767586
vn 0.126014 0.04281300000000006 0.991104
vn 0.596705 -0.23399799999999996 0.767586
vn 0.034212 -0.08163699999999995 0.996075
vn 0.034212 -0.08163699999999995 0.996075
vn -0.070917 0.16337200000000004 0.984012
vn -0.070917 0.16337200000000004 0.984012
vn -0.075234 0.34360000000000007 0.936098
vn -0.041589 0.23053100000000007 0.972176
vn 0.013785 0.018072000000000064 0.999742
vn -0.172675 -0.05704799999999994 0.983325
vn -0.070917 0.16337200000000004 0.984012
vn -0.075234 0.34360000000000007 0.936098
vn -0.041589 0.23053100000000007 0.972176
vn 0.013785 0.018072000000000064 0.999742
vn -0.290947 -0.028718999999999942 0.956308
vn -0.20409 0.11716800000000005 0.971915
vn -0.187368 0.11432500000000005 0.975614
vn 0.097402 0.007471000000000061 0.995217
vn 0.149892 0.03434500000000006 0.988106
vn -0.25669 -0.02241999999999994 0.966234
vn -0.284521 -0.06839699999999994 0.956227
vn -0.116807 -0.16757099999999994 0.978916
vn 0.183409 0.10668900000000006 0.97723
vn 0.140177 0.044644000000000066 0.98912
vn -0.007532 -0.01432399999999994 0.999869
vn -0.20311 -0.33423299999999995 0.920345
vn 0.042643 -0.32113699999999995 0.946072
vn 0.14652 -0.2507249999999999 0.956906
vn 0.191856 0.01018800000000006 0.98137
vn 0.417651 -0.35045099999999996 0.838303
vn 0.417651 -0.35045099999999996 0.838303
vn 0.343326 -0.28808399999999995 0.893944
vn 0 6.123233995736766E-17 1
vn 0.344064 0.41003900000000004 0.844682
vn 0.417651 -0.35045099999999996 0.838303
vn 0.343326 -0.28808399999999995 0.893944
vn 0 6.123233995736766E-17 1
vn 0.294265 0.35069200000000006 0.889058
vn 0.258744 0.47748900000000005 0.839676
vn -0.207375 -0.01139799999999994 0.978195
vn -0.282136 -0.3362359999999999 0.898524
vn 0 6.123233995736766E-17 1
vn -0.057738 0.573998 0.816819
vn -0.350452 0.08504800000000005 0.932711
vn -0.205582 -0.24500299999999994 0.947475
vn 0.417651 -0.35045099999999996 0.838303
vn 0.417651 -0.35045099999999996 0.838303
vn 0.343326 -0.28808399999999995 0.893944
vn 0 6.123233995736766E-17 1
vn 0.344064 0.41003900000000004 0.844682
vn 0.417651 -0.35045099999999996 0.838303
vn 0.343326 -0.28808399999999995 0.893944
vn 0 6.123233995736766E-17 1
vn 0.294265 0.35069200000000006 0.889058
vn 0.258744 0.47748900000000005 0.839676
vn -0.207375 -0.01139799999999994 0.978195
vn -0.282136 -0.33623699999999995 0.898523
vn 0 6.123233995736766E-17 1
vn -0.057738 0.573998 0.816819
vn -0.350452 0.08504900000000006 0.932711
vn -0.205582 -0.24500299999999994 0.947475
vn -0.051536 0.28192400000000006 0.958052
vn -0.051536 0.28192400000000006 0.958052
vn -0.051536 0.28192400000000006 0.958052
vn 0.286781 0.2554870000000001 0.9233
vn 0.142596 0.00833900000000006 0.989746
vn 0.142596 0.00833900000000006 0.989746
vn 0.142596 0.00833900000000006 0.989746
vn 0.126861 -0.0067849999999999395 0.991897
vn 0.028164 0.05728900000000006 0.99796
vn 0.028164 0.05728900000000006 0.99796
vn 0.234539 -0.23671799999999996 0.942845
vn 0.485039 -0.30210899999999996 0.820651
vn -0.067327 -0.10296199999999994 0.992404
vn -0.067327 -0.10296199999999994 0.992404
vn -0.084135 -0.020213999999999937 0.996249
vn 0 0.545205 0.838303
vn 0 0.545205 0.838303
vn 0 0.4481800000000001 0.893943
vn 0 6.123233995736766E-17 1
vn -0.535268 5.172185537986923E-17 0.844682
vn 0 0.545205 0.838303
vn 0 0.4481800000000001 0.893943
vn 0 6.123233995736766E-17 1
vn -0.457795 5.443910169781738E-17 0.889058
vn -0.532096 -0.10871499999999995 0.839676
vn 0.142029 -0.15153199999999994 0.978195
vn 0.438926 5.501872702785382E-17 0.898524
vn 0 6.123233995736766E-17 1
vn -0.402595 -0.4131889999999999 0.816819
vn 0.160115 -0.3231299999999999 0.932711
vn 0.319829 5.801611130110692E-17 0.947475
vn 0.499999 -0.866026 5.3028798443919284E-17
vn 0.499999 -0.866026 5.3028798443919284E-17
vn -1 0 0
vn 0.499999 -0.866026 5.3028798443919284E-17
vn 0.499999 -0.866026 5.3028798443919284E-17
vn -1 0 0
vn 0.499999 -0.845293 -0.18836399999999995
vn 0.5 -0.845292 -0.18836399999999995
vn 0.499999 -0.845293 -0.18836399999999995
vn 0.499999 -0.845293 -0.18836399999999995
vn -1 -0 0
vn -1 1E-06 -6.123233995736766E-23
vn 0.721127 -0.578872 0.38063400000000003
vn 0.721127 -0.578872 0.38063400000000003
vn 0.721127 -0.578872 0.38063400000000003
vn 0.721127 -0.578872 0.38063400000000003
vn -0.463373 -0.26875000000000004 -0.844428
vn -0.463375 -0.26874600000000004 -0.844428
vn 0.409575 -0.751814 0.516743
vn 0.409575 -0.751814 0.516743
vn 0.409575 -0.751814 0.516743
vn 0.409575 -0.751814 0.516743
vn -0.819153 -0.15982600000000002 -0.550858
vn -0.819153 -0.15982400000000002 -0.550859
vn 0.659156 -0.655034 0.3693830000000001
vn 0.659159 -0.655033 0.36938100000000007
vn 0.659156 -0.655034 0.3693830000000001
vn 0.659156 -0.655034 0.3693830000000001
vn -0.947996 -0.011264999999999982 0.318084
vn -0.947995 -0.01126699999999998 0.318087
vn -0.372002 -0.890405 -0.26228499999999993
vn -0.372002 -0.890405 -0.26228499999999993
vn -0.372002 -0.890405 -0.26228499999999993
vn -0.372002 -0.890405 -0.26228499999999993
vn -0.495331 0.577254 0.649173
vn -0.495327 0.577258 0.649172
vn -0.117661 -0.993054 6.080702012402379E-17
vn -0.117661 -0.993054 6.080702012402379E-17
vn -0.117661 -0.993054 6.080702012402379E-17
vn -0.117661 -0.993054 6.080702012402379E-17
vn 0.117661 0.993054 -6.080702012402379E-17
vn 0.117661 0.993054 -6.080702012402379E-17
vn 0.117661 0.993054 -6.080702012402379E-17
vn 0.117661 0.993054 -6.080702012402379E-17
vn -0.117661 -0.767743 0.629863
vn -0.117661 -0.767743 0.629863
vn -0.117661 -0.767743 0.629863
vn -0.117661 -0.767743 0.629863
vn 0.117661 0.767743 -0.629863
vn 0.117661 0.767743 -0.629863
vn 0.117661 0.767743 -0.629863
vn 0.117661 0.767743 -0.629863
vn 0.99538 -0.084274 0.046012000000000004
vn 0.99538 -0.084274 0.046012000000000004
vn 0.99538 -0.084274 0.046012000000000004
vn 0.995815 -0.074861 0.05242000000000001
vn -0.995102 0.08425 -0.05171800000000001
vn -0.996078 0.076083 -0.04516300000000001
vn -0.995102 0.08425 -0.05171800000000001
vn -0.995102 0.08425 -0.05171800000000001
vn -0.117568 -0.992269 -0.039745999999999934
vn -0.117568 -0.992269 -0.039745999999999934
vn -0.117568 -0.992269 -0.039745999999999934
vn -0.117568 -0.992269 -0.039745999999999934
vn 0.117568 0.992269 0.039745999999999934
vn 0.117568 0.992269 0.039745999999999934
vn 0.117568 0.992269 0.039745999999999934
vn 0.117568 0.992269 0.039745999999999934
vn -0.11731 -0.99009 0.07720700000000005
vn -0.11731 -0.99009 0.07720700000000005
vn -0.11731 -0.99009 0.07720700000000005
vn -0.11731 -0.99009 0.07720700000000005
vn 0.117309 0.99009 -0.07720700000000005
vn 0.117309 0.99009 -0.07720700000000005
vn 0.117309 0.99009 -0.07720700000000005
vn 0.117311 0.99009 -0.07720700000000005
vn -0.039547 -0.994662 0.09530700000000006
vn -0.039547 -0.994662 0.09530700000000006
vn -0.039547 -0.994662 0.09530700000000006
vn -0.02881 -0.993633 0.10892400000000006
vn 0.039493 0.993299 -0.10861800000000006
vn 0.02885 0.995015 -0.09546300000000006
vn 0.039493 0.993299 -0.10861800000000006
vn 0.039493 0.993299 -0.10861800000000006
vn 0.005119 0.19750800000000004 0.980288
vn 0.005119 0.19750800000000004 0.980288
vn 0.005119 0.19750800000000004 0.980288
vn -0.008143 0.20794400000000005 0.978107
vn 0.008289 -0.19880600000000007 -0.980004
vn -0.005874 -0.20652500000000004 -0.978424
vn 0.008289 -0.19880600000000007 -0.980004
vn 0.008289 -0.19880600000000007 -0.980004
vn 0.016788 0.23054500000000006 0.972917
vn 0.016788 0.23054500000000006 0.972917
vn 0.016788 0.23054500000000006 0.972917
vn -0.153809 0.04394600000000006 0.987123
vn 0.078593 -0.02978699999999994 0.996462
vn 0.078593 -0.02978699999999994 0.996462
vn 0.078593 -0.02978699999999994 0.996462
vn 0.079275 -0.07027299999999995 0.994373
vn 0.156748 0.21463100000000004 0.964035
vn 0.156748 0.21463100000000004 0.964035
vn 0.156748 0.21463100000000004 0.964035
vn 0.191957 0.18348100000000006 0.964099
vn 0.072253 -0.03994299999999994 0.996586
vn 0.072253 -0.03994299999999994 0.996586
vn 0.54981 0.38070400000000004 0.743487
vn 0.498833 0.685925 0.529785
vn 0.405654 -0.20821599999999996 0.889995
vn 0.405654 -0.20821599999999996 0.889995
vn 0.247349 -0.26325999999999994 0.932477
vn 0.367982 -0.925222 -0.09248699999999994
vn 0.367982 -0.925222 -0.09248699999999994
vn 0.367982 -0.925222 -0.09248699999999994
vn 0.337749 -0.931877 -0.13240599999999994
vn -0.366331 0.92107 0.13202799999999995
vn -0.339342 0.936272 0.09078399999999995
vn -0.366331 0.92107 0.13202799999999995
vn -0.366331 0.92107 0.13202799999999995
vn 0.337388 -0.926965 0.16403000000000006
vn 0.943578 0.261588 0.20305799999999996
vn 0.908397 0.382962 0.16779699999999997
vn 0.922392 0.362242 0.13406899999999997
vn -0.946682 -0.290079 0.14017400000000002
vn -0.946682 -0.290079 0.14017400000000002
vn -0.337966 0.928554 0.15351499999999996
vn -0.337966 0.928554 0.15351499999999996
vn 0.908397 0.382962 0.16779699999999997
vn 0.908397 0.382962 0.16779699999999997
vn -0.946682 -0.290079 0.14017400000000002
vn -0.951434 -0.237825 0.19548100000000002
vn 0.93965 0.342005 0.00953199999999998
vn -0.428282 0.890371 0.15432099999999996
vn -0.223058 0.960705 0.16519899999999996
vn -0.19686 0.970517 0.13907999999999995
vn 0.415712 -0.890631 0.18428000000000005
vn 0.415712 -0.890631 0.18428000000000005
vn -0.939649 -0.342004 -0.009691999999999978
vn -0.939649 -0.342004 -0.009691999999999978
vn -0.223058 0.960705 0.16519899999999996
vn -0.223058 0.960705 0.16519899999999996
vn 0.415712 -0.890631 0.18428000000000005
vn 0.400917 -0.894472 0.19795500000000005
vn 0.009532 -6.122958450206958E-17 -0.999955
vn 0.154879 0.985205 0.07336899999999995
vn 0.148789 0.977371 -0.15036100000000005
vn 0.20076 0.978178 -0.053516000000000064
vn 0.184111 -0.977188 -0.10586499999999995
vn 0.184111 -0.977188 -0.10586499999999995
vn -0.404581 0.14634500000000006 0.902717
vn -0.404581 0.14634500000000006 0.902717
vn 0.148789 0.977371 -0.15036100000000005
vn 0.148789 0.977371 -0.15036100000000005
vn 0.184111 -0.977188 -0.10586499999999995
vn 0.174369 -0.977464 -0.11899099999999994
vn 0.938965 0.342851 -0.02826300000000002
vn 0.938965 0.342851 -0.02826300000000002
vn 0.938965 0.342851 -0.02826300000000002
vn 0.941202 0.335986 -0.03539000000000002
vn -0.938767 -0.342779 0.03491900000000002
vn -0.941391 -0.336167 0.02782600000000002
vn -0.938767 -0.342779 0.03491900000000002
vn -0.938767 -0.342779 0.03491900000000002
vn -0.34202 0.939693 -5.753960123155869E-17
vn -0.34202 0.939693 -5.753960123155869E-17
vn -0.34202 0.939693 -5.753960123155869E-17
vn -0.34202 0.939693 -5.753960123155869E-17
vn 0.34202 -0.939693 5.753960123155869E-17
vn 0.34202 -0.939693 5.753960123155869E-17
vn 0.34202 -0.939693 5.753960123155869E-17
vn 0.34202 -0.939693 5.753960123155869E-17
vn 0.082008 0.994615 0.06336199999999995
vn 0.082008 0.994615 0.06336199999999995
vn 0.082008 0.994615 0.06336199999999995
vn 0.063594 0.993231 0.09719999999999994
vn -0.081782 -0.991873 -0.09746499999999994
vn -0.063769 -0.995976 -0.06297699999999995
vn -0.081782 -0.991873 -0.09746499999999994
vn -0.081782 -0.991873 -0.09746499999999994
vn 0.126014 0.04281300000000006 0.991104
vn 0.126014 0.04281300000000006 0.991104
vn 0.596705 -0.23399799999999996 0.767586
vn 0.028255 -0.08370599999999995 0.99609
vn 0.028255 -0.08370599999999995 0.99609
vn 0.028255 -0.08370599999999995 0.99609
vn -0.172675 -0.05704799999999994 0.983325
vn -0.172675 -0.05704799999999994 0.983325
vn -0.075234 0.34360000000000007 0.936098
vn -0.190566 0.12942700000000004 0.973105
vn -0.190566 0.12942700000000004 0.973105
vn -0.190566 0.12942700000000004 0.973105
vn -0.041589 0.23053100000000007 0.972176
vn 0.005019 0.3621170000000001 0.932119
vn 0.005019 0.3621170000000001 0.932119
vn 0.005019 0.3621170000000001 0.932119
vn 0.013785 0.018072000000000064 0.999742
vn 0.082821 0.27635100000000007 0.957482
vn 0.082821 0.27635100000000007 0.957482
vn 0.082821 0.27635100000000007 0.957482
vn -0.20409 0.11716800000000005 0.971915
vn -0.20409 0.11716800000000005 0.971915
vn -0.290947 -0.028718999999999942 0.956308
vn -0.290947 -0.028718999999999942 0.956308
vn -0.187368 0.11432500000000005 0.975614
vn -0.187368 0.11432500000000005 0.975614
vn -0.184038 0.12024200000000006 0.975537
vn -0.184038 0.12024200000000006 0.975537
vn -0.184038 0.12024200000000006 0.975537
vn 0.097402 0.007471000000000061 0.995217
vn 0.097402 0.007471000000000061 0.995217
vn 0.155165 0.19846000000000005 0.967749
vn 0.155165 0.19846000000000005 0.967749
vn 0.155165 0.19846000000000005 0.967749
vn 0.149892 0.03434500000000006 0.988106
vn 0.149892 0.03434500000000006 0.988106
vn 0.146413 0.02221700000000006 0.988974
vn 0.146413 0.02221700000000006 0.988974
vn 0.146413 0.02221700000000006 0.988974
vn -0.284521 -0.06839699999999994 0.956227
vn -0.284521 -0.06839699999999994 0.956227
vn -0.25669 -0.02241999999999994 0.966234
vn -0.25669 -0.02241999999999994 0.966234
vn -0.116807 -0.16757099999999994 0.978916
vn -0.116807 -0.16757099999999994 0.978916
vn -0.031751 -0.01401599999999994 0.999398
vn -0.031751 -0.01401599999999994 0.999398
vn -0.031751 -0.01401599999999994 0.999398
vn 0.183409 0.10668900000000006 0.97723
vn 0.183409 0.10668900000000006 0.97723
vn 0.104577 -0.11032699999999994 0.988378
vn 0.104577 -0.11032699999999994 0.988378
vn 0.104577 -0.11032699999999994 0.988378
vn 0.140177 0.044644000000000066 0.98912
vn 0.140177 0.044644000000000066 0.98912
vn 0.158467 0.10182500000000005 0.9821
vn 0.158467 0.10182500000000005 0.9821
vn 0.158467 0.10182500000000005 0.9821
vn -0.20311 -0.33423299999999995 0.920345
vn -0.20311 -0.33423299999999995 0.920345
vn -0.007532 -0.01432399999999994 0.999869
vn -0.007532 -0.01432399999999994 0.999869
vn 0.042643 -0.32113699999999995 0.946072
vn 0.042643 -0.32113699999999995 0.946072
vn 0.06104 -0.28985999999999995 0.955121
vn 0.06104 -0.28985999999999995 0.955121
vn 0.06104 -0.28985999999999995 0.955121
vn 0.14652 -0.2507249999999999 0.956906
vn 0.14652 -0.2507249999999999 0.956906
vn 0.125519 -0.30027999999999994 0.945556
vn 0.125519 -0.30027999999999994 0.945556
vn 0.125519 -0.30027999999999994 0.945556
vn 0.191856 0.01018800000000006 0.98137
vn 0.191856 0.01018800000000006 0.98137
vn 0.099959 -0.26048899999999997 0.960288
vn 0.099959 -0.26048899999999997 0.960288
vn 0.099959 -0.26048899999999997 0.960288
vn 0.344064 0.41003900000000004 0.844682
vn 0.344064 0.41003900000000004 0.844682
vn 0.343326 -0.28808399999999995 0.893944
vn 0.336926 -0.44044199999999994 0.832161
vn 0.336926 -0.44044199999999994 0.832161
vn 0.336926 -0.44044199999999994 0.832161
vn 0 6.123233995736766E-17 1
vn 0.057394 -0.570576 0.819237
vn 0.057394 -0.570576 0.819237
vn 0.057394 -0.570576 0.819237
vn 0.258744 0.47748900000000005 0.839676
vn 0.258744 0.47748900000000005 0.839676
vn 0.294265 0.35069200000000006 0.889058
vn 0.294265 0.35069200000000006 0.889058
vn -0.207375 -0.01139799999999994 0.978195
vn -0.207375 -0.01139799999999994 0.978195
vn -0.20205 -0.06258999999999995 0.977373
vn -0.20205 -0.06258999999999995 0.977373
vn -0.20205 -0.06258999999999995 0.977373
vn -0.282136 -0.3362359999999999 0.898524
vn -0.282136 -0.3362359999999999 0.898524
vn -0.314646 -0.14906199999999994 0.937432
vn -0.314646 -0.14906199999999994 0.937432
vn -0.314646 -0.14906199999999994 0.937432
vn -0.057738 0.573998 0.816819
vn -0.057738 0.573998 0.816819
vn 0 6.123233995736766E-17 1
vn 0 6.123233995736766E-17 1
vn -0.350452 0.08504800000000005 0.932711
vn -0.350452 0.08504800000000005 0.932711
vn -0.349453 0.29322600000000004 0.889888
vn -0.349453 0.29322600000000004 0.889888
vn -0.349453 0.29322600000000004 0.889888
vn -0.205582 -0.24500299999999994 0.947475
vn -0.205582 -0.24500299999999994 0.947475
vn -0.250767 0.21041900000000005 0.944902
vn -0.250767 0.21041900000000005 0.944902
vn -0.250767 0.21041900000000005 0.944902
vn 0.344064 0.41003900000000004 0.844682
vn 0.344064 0.41003900000000004 0.844682
vn 0.343326 -0.28808399999999995 0.893944
vn 0.336926 -0.44044099999999997 0.832161
vn 0.336926 -0.44044099999999997 0.832161
vn 0.336926 -0.44044099999999997 0.832161
vn 0 6.123233995736766E-17 1
vn 0.057394 -0.570576 0.819237
vn 0.057394 -0.570576 0.819237
vn 0.057394 -0.570576 0.819237
vn 0.258744 0.47748900000000005 0.839676
vn 0.258744 0.47748900000000005 0.839676
vn 0.294265 0.35069200000000006 0.889058
vn 0.294265 0.35069200000000006 0.889058
vn -0.207375 -0.01139799999999994 0.978195
vn -0.207375 -0.01139799999999994 0.978195
vn -0.20205 -0.06258999999999995 0.977373
vn -0.20205 -0.06258999999999995 0.977373
vn -0.20205 -0.06258999999999995 0.977373
vn -0.282136 -0.33623699999999995 0.898523
vn -0.282136 -0.33623699999999995 0.898523
vn -0.314645 -0.14906199999999994 0.937432
vn -0.314645 -0.14906199999999994 0.937432
vn -0.314645 -0.14906199999999994 0.937432
vn -0.057738 0.573998 0.816819
vn -0.057738 0.573998 0.816819
vn 0 6.123233995736766E-17 1
vn 0 6.123233995736766E-17 1
vn -0.350452 0.08504900000000006 0.932711
vn -0.350452 0.08504900000000006 0.932711
vn -0.349453 0.29322600000000004 0.889888
vn -0.349453 0.29322600000000004 0.889888
vn -0.349453 0.29322600000000004 0.889888
vn -0.205582 -0.24500299999999994 0.947475
vn -0.205582 -0.24500299999999994 0.947475
vn -0.250767 0.21041900000000005 0.944902
vn -0.250767 0.21041900000000005 0.944902
vn -0.250767 0.21041900000000005 0.944902
vn 0.286781 0.2554870000000001 0.9233
vn 0.286781 0.2554870000000001 0.9233
vn 0.126861 -0.0067849999999999395 0.991897
vn 0.126861 -0.0067849999999999395 0.991897
vn 0.028164 0.05728900000000006 0.99796
vn -0.021363 0.02216000000000006 0.999526
vn -0.021363 0.02216000000000006 0.999526
vn -0.021363 0.02216000000000006 0.999526
vn -0.13693 -0.09006399999999995 0.986478
vn -0.13693 -0.09006399999999995 0.986478
vn -0.13693 -0.09006399999999995 0.986478
vn 0.234539 -0.23671799999999996 0.942845
vn 0.234539 -0.23671799999999996 0.942845
vn 0.485039 -0.30210899999999996 0.820651
vn 0.485039 -0.30210899999999996 0.820651
vn 0.145659 -0.26672699999999994 0.952702
vn 0.145659 -0.26672699999999994 0.952702
vn 0.145659 -0.26672699999999994 0.952702
vn -0.067327 -0.10296199999999994 0.992404
vn 0.126182 0.004924000000000061 0.991995
vn 0.126182 0.004924000000000061 0.991995
vn 0.126182 0.004924000000000061 0.991995
vn -0.084135 -0.020213999999999937 0.996249
vn -0.084135 -0.020213999999999937 0.996249
vn -0.022124 0.017621000000000064 0.9996
vn -0.022124 0.017621000000000064 0.9996
vn -0.022124 0.017621000000000064 0.9996
vn 0.179874 -0.031296999999999936 0.983192
vn 0.179874 -0.031296999999999936 0.983192
vn 0.179874 -0.031296999999999936 0.983192
vn -0.205901 0.04882400000000006 0.977354
vn -0.205901 0.04882400000000006 0.977354
vn -0.205901 0.04882400000000006 0.977354
vn -0.535268 5.172185537986923E-17 0.844682
vn -0.535268 5.172185537986923E-17 0.844682
vn 0 0.4481800000000001 0.893943
vn 0.120826 0.541211 0.832161
vn 0.120826 0.541211 0.832161
vn 0.120826 0.541211 0.832161
vn 0 6.123233995736766E-17 1
vn 0.400194 0.41072600000000004 0.819237
vn 0.400194 0.41072600000000004 0.819237
vn 0.400194 0.41072600000000004 0.819237
vn -0.532096 -0.10871499999999995 0.839676
vn -0.532096 -0.10871499999999995 0.839676
vn -0.457795 5.443910169781738E-17 0.889058
vn -0.457795 5.443910169781738E-17 0.889058
vn 0.142029 -0.15153199999999994 0.978195
vn 0.142029 -0.15153199999999994 0.978195
vn 0.177822 -0.11454699999999994 0.977373
vn 0.177822 -0.11454699999999994 0.977373
vn 0.177822 -0.11454699999999994 0.977373
vn 0.438926 5.501872702785382E-17 0.898524
vn 0.438926 5.501872702785382E-17 0.898524
vn 0.316438 -0.14521699999999996 0.937432
vn 0.316438 -0.14521699999999996 0.937432
vn 0.316438 -0.14521699999999996 0.937432
vn -0.402595 -0.4131889999999999 0.816819
vn -0.402595 -0.4131889999999999 0.816819
vn 0 6.123233995736766E-17 1
vn 0 6.123233995736766E-17 1
vn 0.160115 -0.3231299999999999 0.932711
vn 0.160115 -0.3231299999999999 0.932711
vn -0 -0.45617899999999995 0.889888
vn -0 -0.45617899999999995 0.889888
vn -0 -0.45617899999999995 0.889888
vn 0.319829 5.801611130110692E-17 0.947475
vn 0.319829 5.801611130110692E-17 0.947475
vn -0 -0.3273539999999999 0.944902
vn -0 -0.3273539999999999 0.944902
vn -0 -0.3273539999999999 0.944902
vn -1 0 0
vn -1 0 0
vn 0.5 0.866025 -5.3028737211579333E-17
vn 0.5 0.866025 -5.3028737211579333E-17
vn 0.5 0.866025 -5.3028737211579333E-17
vn 0.5 0.866025 -5.3028737211579333E-17
vn 0 6.123233995736766E-17 1
vn 0 6.123233995736766E-17 1
vn 0 6.123233995736766E-17 1
vn -1 1E-06 -6.123233995736766E-23
vn -1 1E-06 -6.123233995736766E-23
vn 0.500001 0.845292 0.18836399999999995
vn 0.500001 0.845292 0.18836399999999995
vn 0.500001 0.845292 0.18836399999999995
vn 0.5 0.845292 0.18836399999999995
vn 2E-06 -0.21750299999999995 0.97606
vn 2E-06 -0.21750299999999995 0.97606
vn 2E-06 -0.21750299999999995 0.97606
vn -0.463375 -0.26874600000000004 -0.844428
vn -0.463375 -0.26874600000000004 -0.844428
vn -0.257754 0.84762 0.46379299999999996
vn -0.257754 0.84762 0.46379299999999996
vn -0.257754 0.84762 0.46379299999999996
vn -0.257752 0.847619 0.46379499999999996
vn -0.682558 -0.49948399999999993 0.533507
vn -0.682558 -0.49948399999999993 0.533507
vn -0.682558 -0.49948399999999993 0.533507
vn -0.819153 -0.15982400000000002 -0.550859
vn -0.819153 -0.15982400000000002 -0.550859
vn 0.409577 0.911637 0.034115999999999945
vn 0.409577 0.911637 0.034115999999999945
vn 0.409577 0.911637 0.034115999999999945
vn 0.409582 0.911635 0.03411999999999994
vn -0.573574 0.22825400000000007 0.78671
vn -0.573574 0.22825400000000007 0.78671
vn -0.573574 0.22825400000000007 0.78671
vn -0.947995 -0.01126699999999998 0.318087
vn -0.947995 -0.01126699999999998 0.318087
vn 0.288847 0.666298 -0.687469
vn 0.288847 0.666298 -0.687469
vn 0.288847 0.666298 -0.687469
vn 0.288844 0.6663 -0.687469
vn 0.235785 0.646449 0.72561
vn 0.235785 0.646449 0.72561
vn 0.235785 0.646449 0.72561
vn -0.495327 0.577258 0.649172
vn -0.495327 0.577258 0.649172
vn 0.867328 0.313144 -0.386888
vn 0.867328 0.313144 -0.386888
vn 0.867328 0.313144 -0.386888
vn 0.867328 0.313143 -0.386889
vn 0.49262 -0.42887099999999995 0.757229
vn 0.49262 -0.42887099999999995 0.757229
vn 0.49262 -0.42887099999999995 0.757229
vn 0.993054 -0.11766 7.204597119383879E-18
vn 0.993054 -0.11766 7.204597119383879E-18
vn 0.993054 -0.11766 7.204597119383879E-18
vn 0.993054 -0.117662 7.204719584063793E-18
vn 0 6.123233995736766E-17 1
vn 0 6.123233995736766E-17 1
vn 0 6.123233995736766E-17 1
vn 0 6.123233995736766E-17 1
vn -0.993054 0.117662 -7.204719584063793E-18
vn -0.993054 0.117662 -7.204719584063793E-18
vn -0.993054 0.117662 -7.204719584063793E-18
vn -0.993054 0.11766 -7.204597119383879E-18
vn 0.993054 -0.090964 0.074628
vn 0.993054 -0.090964 0.074628
vn 0.993054 -0.090964 0.074628
vn 0.993054 -0.090966 0.07463
vn -0 0.634269 0.773113
vn -0 0.634269 0.773113
vn -0 0.634269 0.773113
vn -0 0.634269 0.773113
vn -0.993054 0.090966 -0.074629
vn -0.993054 0.090966 -0.074629
vn -0.993054 0.090966 -0.074629
vn -0.993054 0.090964 -0.074628
vn 0.995815 -0.074861 0.05242000000000001
vn 0.995815 -0.074861 0.05242000000000001
vn -0.996078 0.076083 -0.04516300000000001
vn -0.996078 0.076083 -0.04516300000000001
vn 0.992912 -0.117646 0.01691000000000001
vn 0.992912 -0.117646 0.01691000000000001
vn 0.992912 -0.117646 0.01691000000000001
vn 0.992912 -0.117646 0.01691000000000001
vn 0 6.123233995736766E-17 1
vn 0 6.123233995736766E-17 1
vn 0 6.123233995736766E-17 1
vn 0 6.123233995736766E-17 1
vn -0.992912 0.117646 -0.01691000000000001
vn -0.992912 0.117646 -0.01691000000000001
vn -0.992912 0.117646 -0.01691000000000001
vn -0.992912 0.117646 -0.01691000000000001
vn 0.992338 -0.117576 0.037957000000000005
vn 0.992338 -0.117576 0.037957000000000005
vn 0.992338 -0.117576 0.037957000000000005
vn 0.992338 -0.117575 0.037957000000000005
vn 0 6.123233995736766E-17 1
vn 0 6.123233995736766E-17 1
vn 0 6.123233995736766E-17 1
vn 0 6.123233995736766E-17 1
vn -0.992338 0.117576 -0.037957000000000005
vn -0.992338 0.117576 -0.037957000000000005
vn -0.992338 0.117576 -0.037957000000000005
vn -0.992338 0.117575 -0.037957000000000005
vn -0.02881 -0.993633 0.10892400000000006
vn -0.02881 -0.993633 0.10892400000000006
vn 0.02885 0.995015 -0.09546300000000006
vn 0.02885 0.995015 -0.09546300000000006
vn -0.008143 0.20794400000000005 0.978107
vn -0.008143 0.20794400000000005 0.978107
vn -0.005874 -0.20652500000000004 -0.978424
vn -0.005874 -0.20652500000000004 -0.978424
vn -0.153809 0.04394600000000006 0.987123
vn -0.153809 0.04394600000000006 0.987123
vn 0.079275 -0.07027299999999995 0.994373
vn 0.079275 -0.07027299999999995 0.994373
vn 0.191957 0.18348100000000006 0.964099
vn 0.191957 0.18348100000000006 0.964099
vn 0.072253 -0.03994299999999994 0.996586
vn 0.155011 -0.14191699999999993 0.977666
vn 0.155011 -0.14191699999999993 0.977666
vn 0.155011 -0.14191699999999993 0.977666
vn 0.378331 -0.3438129999999999 0.859452
vn 0.378331 -0.3438129999999999 0.859452
vn 0.378331 -0.3438129999999999 0.859452
vn 0.54981 0.38070400000000004 0.743487
vn 0.54981 0.38070400000000004 0.743487
vn 0.498833 0.685925 0.529785
vn 0.498833 0.685925 0.529785
vn 0.622391 0.22700300000000007 0.749065
vn 0.622391 0.22700300000000007 0.749065
vn 0.622391 0.22700300000000007 0.749065
vn 0.405654 -0.20821599999999996 0.889995
vn 0.167634 0.18074400000000004 0.969139
vn 0.167634 0.18074400000000004 0.969139
vn 0.167634 0.18074400000000004 0.969139
vn 0.247349 -0.26325999999999994 0.932477
vn 0.247349 -0.26325999999999994 0.932477
vn 0.1648 -0.14270999999999995 0.975948
vn 0.1648 -0.14270999999999995 0.975948
vn 0.1648 -0.14270999999999995 0.975948
vn 0.33768 0.01858000000000006 0.941077
vn 0.33768 0.01858000000000006 0.941077
vn 0.33768 0.01858000000000006 0.941077
vn 0.255585 -0.42080899999999993 0.8704
vn 0.255585 -0.42080899999999993 0.8704
vn 0.255585 -0.42080899999999993 0.8704
vn 0.337749 -0.931877 -0.13240599999999994
vn 0.337749 -0.931877 -0.13240599999999994
vn -0.339342 0.936272 0.09078399999999995
vn -0.339342 0.936272 0.09078399999999995
vn 0.922392 0.362242 0.13406899999999997
vn 0.922392 0.362242 0.13406899999999997
vn -0.951434 -0.237825 0.19548100000000002
vn -0.951434 -0.237825 0.19548100000000002
vn 0.337388 -0.926965 0.16403000000000006
vn 0.337388 -0.926965 0.16403000000000006
vn -0.337966 0.928554 0.15351499999999996
vn 0.943578 0.261588 0.20305799999999996
vn 0.943578 0.261588 0.20305799999999996
vn 0.942491 0.289615 0.16683699999999999
vn 0.942491 0.289615 0.16683699999999999
vn 0.942491 0.289615 0.16683699999999999
vn -0.899067 -0.406944 0.16147800000000004
vn -0.899067 -0.406944 0.16147800000000004
vn -0.899067 -0.406944 0.16147800000000004
vn -0.903511 -0.380102 0.19796700000000003
vn -0.903511 -0.380102 0.19796700000000003
vn -0.903511 -0.380102 0.19796700000000003
vn -0.19686 0.970517 0.13907999999999995
vn -0.19686 0.970517 0.13907999999999995
vn 0.400917 -0.894472 0.19795500000000005
vn 0.400917 -0.894472 0.19795500000000005
vn 0.93965 0.342005 0.00953199999999998
vn 0.93965 0.342005 0.00953199999999998
vn -0.939649 -0.342004 -0.009691999999999978
vn -0.428282 0.890371 0.15432099999999996
vn -0.428282 0.890371 0.15432099999999996
vn -0.415328 0.894073 0.16773799999999994
vn -0.415328 0.894073 0.16773799999999994
vn -0.415328 0.894073 0.16773799999999994
vn 0.260372 -0.951613 0.16321500000000005
vn 0.260372 -0.951613 0.16321500000000005
vn 0.260372 -0.951613 0.16321500000000005
vn 0.224422 -0.954777 0.19502900000000006
vn 0.224422 -0.954777 0.19502900000000006
vn 0.224422 -0.954777 0.19502900000000006
vn 0.20076 0.978178 -0.053516000000000064
vn 0.20076 0.978178 -0.053516000000000064
vn 0.174369 -0.977464 -0.11899099999999994
vn 0.174369 -0.977464 -0.11899099999999994
vn 0.009532 -6.122958450206958E-17 -0.999955
vn 0.009532 -6.122958450206958E-17 -0.999955
vn -0.404581 0.14634500000000006 0.902717
vn 0.154879 0.985205 0.07336899999999995
vn 0.154879 0.985205 0.07336899999999995
vn 0.131478 0.985843 0.10405199999999995
vn 0.131478 0.985843 0.10405199999999995
vn 0.131478 0.985843 0.10405199999999995
vn 0.151844 -0.979011 0.13594600000000007
vn 0.151844 -0.979011 0.13594600000000007
vn 0.151844 -0.979011 0.13594600000000007
vn 0.151585 -0.979114 0.13548900000000005
vn 0.941202 0.335986 -0.03539000000000002
vn 0.941202 0.335986 -0.03539000000000002
vn -0.941391 -0.336167 0.02782600000000002
vn -0.941391 -0.336167 0.02782600000000002
vn 0.063594 0.993231 0.09719999999999994
vn 0.063594 0.993231 0.09719999999999994
vn -0.063769 -0.995976 -0.06297699999999995
vn -0.063769 -0.995976 -0.06297699999999995
g ruinmat
f 710/710/710 271/271/271 709/709/709
f 273/273/273 272/272/272 270/270/270
f 708/708/708 269/269/269 707/707/707
f 267/267/267 266/266/266 268/268/268
f 262/262/262 263/263/263 265/265/265
f 265/265/265 264/264/264 262/262/262
f 260/260/260 261/261/261 259/259/259
f 259/259/259 258/258/258 260/260/260
f 706/706/706 255/255/255 705/705/705
f 257/257/257 256/256/256 254/254/254
f 704/704/704 253/253/253 703/703/703
f 251/251/251 250/250/250 252/252/252
f 699/699/699 702/702/702 701/701/701
f 701/701/701 700/700/700 699/699/699
f 698/698/698 697/697/697 696/696/696
f 695/695/695 239/239/239 694/694/694
f 245/245/245 693/693/693 244/244/244
f 692/692/692 691/691/691 238/238/238
f 690/690/690 249/249/249 689/689/689
f 248/248/248 242/242/242 243/243/243
f 688/688/688 241/241/241 687/687/687
f 247/247/247 246/246/246 240/240/240
f 686/686/686 685/685/685 684/684/684
f 683/683/683 682/682/682 681/681/681
f 680/680/680 679/679/679 678/678/678
f 677/677/677 227/227/227 676/676/676
f 233/233/233 675/675/675 232/232/232
f 674/674/674 673/673/673 226/226/226
f 672/672/672 237/237/237 671/671/671
f 236/236/236 230/230/230 231/231/231
f 670/670/670 229/229/229 669/669/669
f 235/235/235 234/234/234 228/228/228
f 668/668/668 667/667/667 666/666/666
f 665/665/665 664/664/664 663/663/663
f 662/662/662 661/661/661 660/660/660
f 659/659/659 215/215/215 658/658/658
f 221/221/221 657/657/657 220/220/220
f 656/656/656 655/655/655 214/214/214
f 654/654/654 225/225/225 653/653/653
f 224/224/224 218/218/218 219/219/219
f 652/652/652 217/217/217 651/651/651
f 223/223/223 222/222/222 216/216/216
f 650/650/650 211/211/211 649/649/649
f 213/213/213 212/212/212 210/210/210
f 648/648/648 209/209/209 647/647/647
f 207/207/207 206/206/206 208/208/208
f 646/646/646 645/645/645 644/644/644
f 643/643/643 642/642/642 641/641/641
f 640/640/640 639/639/639 638/638/638
f 637/637/637 636/636/636 205/205/205
f 635/635/635 634/634/634 633/633/633
f 632/632/632 204/204/204 203/203/203
f 631/631/631 630/630/630 629/629/629
f 628/628/628 202/202/202 627/627/627
f 626/626/626 201/201/201 625/625/625
f 624/624/624 623/623/623 622/622/622
f 621/621/621 620/620/620 619/619/619
f 200/200/200 199/199/199 618/618/618
f 617/617/617 198/198/198 616/616/616
f 197/197/197 196/196/196 195/195/195
f 615/615/615 194/194/194 614/614/614
f 193/193/193 192/192/192 191/191/191
f 613/613/613 190/190/190 612/612/612
f 188/188/188 187/187/187 189/189/189
f 611/611/611 184/184/184 610/610/610
f 186/186/186 185/185/185 183/183/183
f 609/609/609 182/182/182 608/608/608
f 180/180/180 179/179/179 181/181/181
f 607/607/607 176/176/176 606/606/606
f 178/178/178 177/177/177 175/175/175
f 605/605/605 174/174/174 604/604/604
f 172/172/172 171/171/171 173/173/173
f 600/600/600 603/603/603 602/602/602
f 602/602/602 601/601/601 600/600/600
f 596/596/596 599/599/599 598/598/598
f 598/598/598 597/597/597 596/596/596
f 592/592/592 595/595/595 594/594/594
f 594/594/594 593/593/593 592/592/592
f 167/167/167 170/170/170 169/169/169
f 169/169/169 168/168/168 167/167/167
f 163/163/163 166/166/166 165/165/165
f 165/165/165 164/164/164 163/163/163
f 588/588/588 591/591/591 590/590/590
f 590/590/590 589/589/589 588/588/588
f 584/584/584 587/587/587 586/586/586
f 586/586/586 585/585/585 584/584/584
f 580/580/580 583/583/583 582/582/582
f 582/582/582 581/581/581 580/580/580
f 159/159/159 161/161/161 162/162/162
f 162/162/162 160/160/160 159/159/159
f 155/155/155 156/156/156 158/158/158
f 158/158/158 157/157/157 155/155/155
f 579/579/579 152/152/152 578/578/578
f 154/154/154 153/153/153 151/151/151
f 577/577/577 150/150/150 576/576/576
f 148/148/148 147/147/147 149/149/149
f 572/572/572 575/575/575 574/574/574
f 574/574/574 573/573/573 572/572/572
f 568/568/568 571/571/571 570/570/570
f 570/570/570 569/569/569 568/568/568
f 564/564/564 567/567/567 566/566/566
f 566/566/566 565/565/565 564/564/564
f 143/143/143 145/145/145 146/146/146
f 146/146/146 144/144/144 143/143/143
f 139/139/139 140/140/140 142/142/142
f 142/142/142 141/141/141 139/139/139
f 560/560/560 563/563/563 562/562/562
f 562/562/562 561/561/561 560/560/560
f 556/556/556 559/559/559 558/558/558
f 558/558/558 557/557/557 556/556/556
f 552/552/552 555/555/555 554/554/554
f 554/554/554 553/553/553 552/552/552
f 135/135/135 137/137/137 138/138/138
f 138/138/138 136/136/136 135/135/135
f 131/131/131 132/132/132 134/134/134
f 134/134/134 133/133/133 131/131/131
f 551/551/551 550/550/550 549/549/549
f 545/545/545 548/548/548 547/547/547
f 547/547/547 546/546/546 545/545/545
f 130/130/130 129/129/129 544/544/544
f 544/544/544 543/543/543 130/130/130
f 127/127/127 126/126/126 125/125/125
f 125/125/125 128/128/128 127/127/127
f 542/542/542 541/541/541 540/540/540
f 536/536/536 539/539/539 538/538/538
f 538/538/538 537/537/537 536/536/536
f 124/124/124 123/123/123 535/535/535
f 535/535/535 534/534/534 124/124/124
f 121/121/121 120/120/120 119/119/119
f 119/119/119 122/122/122 121/121/121
f 533/533/533 532/532/532 531/531/531
f 527/527/527 530/530/530 529/529/529
f 529/529/529 528/528/528 527/527/527
f 118/118/118 117/117/117 526/526/526
f 526/526/526 525/525/525 118/118/118
f 115/115/115 114/114/114 113/113/113
f 113/113/113 116/116/116 115/115/115
f 524/524/524 523/523/523 522/522/522
f 518/518/518 521/521/521 520/520/520
f 520/520/520 519/519/519 518/518/518
f 112/112/112 111/111/111 517/517/517
f 517/517/517 516/516/516 112/112/112
f 109/109/109 108/108/108 107/107/107
f 107/107/107 110/110/110 109/109/109
f 515/515/515 514/514/514 513/513/513
f 509/509/509 512/512/512 511/511/511
f 511/511/511 510/510/510 509/509/509
f 106/106/106 105/105/105 508/508/508
f 508/508/508 507/507/507 106/106/106
f 103/103/103 102/102/102 101/101/101
f 101/101/101 104/104/104 103/103/103
f 506/506/506 505/505/505 504/504/504
f 500/500/500 503/503/503 502/502/502
f 502/502/502 501/501/501 500/500/500
f 100/100/100 97/97/97 499/499/499
f 499/499/499 498/498/498 100/100/100
f 99/99/99 96/96/96 95/95/95
f 95/95/95 98/98/98 99/99/99
f 497/497/497 496/496/496 495/495/495
f 94/94/94 494/494/494 493/493/493
f 492/492/492 491/491/491 490/490/490
f 93/93/93 489/489/489 488/488/488
f 487/487/487 91/91/91 486/486/486
f 92/92/92 485/485/485 484/484/484
f 483/483/483 482/482/482 481/481/481
f 90/90/90 480/480/480 479/479/479
f 478/478/478 477/477/477 476/476/476
f 89/89/89 475/475/475 474/474/474
f 473/473/473 87/87/87 472/472/472
f 88/88/88 471/471/471 470/470/470
f 469/469/469 468/468/468 467/467/467
f 86/86/86 82/82/82 466/466/466
f 465/465/465 464/464/464 463/463/463
f 85/85/85 81/81/81 462/462/462
f 461/461/461 83/83/83 460/460/460
f 84/84/84 80/80/80 79/79/79
f 459/459/459 458/458/458 457/457/457
f 456/456/456 455/455/455 454/454/454
f 453/453/453 452/452/452 451/451/451
f 450/450/450 449/449/449 78/78/78
f 448/448/448 447/447/447 446/446/446
f 445/445/445 77/77/77 76/76/76
f 444/444/444 443/443/443 442/442/442
f 441/441/441 75/75/75 440/440/440
f 439/439/439 74/74/74 438/438/438
f 437/437/437 436/436/436 435/435/435
f 434/434/434 433/433/433 432/432/432
f 73/73/73 72/72/72 431/431/431
f 430/430/430 71/71/71 429/429/429
f 70/70/70 69/69/69 68/68/68
f 428/428/428 67/67/67 427/427/427
f 66/66/66 65/65/65 64/64/64
f 426/426/426 425/425/425 424/424/424
f 63/63/63 423/423/423 422/422/422
f 421/421/421 420/420/420 419/419/419
f 62/62/62 418/418/418 417/417/417
f 416/416/416 60/60/60 415/415/415
f 61/61/61 414/414/414 413/413/413
f 412/412/412 411/411/411 410/410/410
f 59/59/59 409/409/409 408/408/408
f 407/407/407 406/406/406 405/405/405
f 58/58/58 404/404/404 403/403/403
f 402/402/402 56/56/56 401/401/401
f 57/57/57 400/400/400 399/399/399
f 398/398/398 397/397/397 396/396/396
f 55/55/55 51/51/51 395/395/395
f 394/394/394 393/393/393 392/392/392
f 54/54/54 50/50/50 391/391/391
f 390/390/390 52/52/52 389/389/389
f 53/53/53 49/49/49 48/48/48
f 388/388/388 387/387/387 386/386/386
f 47/47/47 385/385/385 384/384/384
f 383/383/383 382/382/382 381/381/381
f 46/46/46 380/380/380 379/379/379
f 378/378/378 44/44/44 377/377/377
f 45/45/45 376/376/376 375/375/375
f 374/374/374 373/373/373 372/372/372
f 43/43/43 371/371/371 370/370/370
f 369/369/369 368/368/368 367/367/367
f 42/42/42 366/366/366 365/365/365
f 364/364/364 40/40/40 363/363/363
f 41/41/41 362/362/362 361/361/361
f 360/360/360 359/359/359 358/358/358
f 39/39/39 35/35/35 357/357/357
f 356/356/356 355/355/355 354/354/354
f 38/38/38 34/34/34 353/353/353
f 352/352/352 36/36/36 351/351/351
f 37/37/37 33/33/33 32/32/32
f 350/350/350 349/349/349 348/348/348
f 31/31/31 347/347/347 346/346/346
f 345/345/345 344/344/344 343/343/343
f 30/30/30 342/342/342 341/341/341
f 340/340/340 339/339/339 338/338/338
f 29/29/29 337/337/337 336/336/336
f 335/335/335 27/27/27 334/334/334
f 28/28/28 333/333/333 332/332/332
f 331/331/331 330/330/330 329/329/329
f 26/26/26 328/328/328 327/327/327
f 326/326/326 325/325/325 324/324/324
f 25/25/25 323/323/323 322/322/322
f 321/321/321 320/320/320 319/319/319
f 24/24/24 318/318/318 317/317/317
f 316/316/316 22/22/22 315/315/315
f 23/23/23 314/314/314 313/313/313
f 312/312/312 311/311/311 310/310/310
f 21/21/21 309/309/309 308/308/308
f 307/307/307 306/306/306 305/305/305
f 20/20/20 304/304/304 303/303/303
f 302/302/302 301/301/301 300/300/300
f 19/19/19 299/299/299 298/298/298
f 297/297/297 17/17/17 296/296/296
f 18/18/18 295/295/295 294/294/294
f 293/293/293 292/292/292 291/291/291
f 16/16/16 11/11/11 290/290/290
f 289/289/289 288/288/288 287/287/287
f 15/15/15 10/10/10 286/286/286
f 285/285/285 284/284/284 283/283/283
f 14/14/14 9/9/9 282/282/282
f 281/281/281 12/12/12 280/280/280
f 13/13/13 8/8/8 7/7/7
f 279/279/279 278/278/278 277/277/277
f 276/276/276 4/4/4 2/2/2
f 275/275/275 3/3/3 274/274/274
f 6/6/6 5/5/5 1/1/1
