v 0.079003 -0.609923 0.008721000000000038
v 0.007334 -0.6733999999999999 0.945939
v -0.887955 -0.543151 0.008722000000000034
v -0.816287 -0.6066279999999998 0.945939
v 0.079003 -0.609923 0.008721000000000038
v 0.007334 -0.6733999999999999 0.945939
v -0.887955 -0.543151 0.008722000000000034
v -0.816287 -0.6066279999999998 0.945939
v -0.795006 -1.29377 0.0026860000000000794
v -0.822582 -1.309691 0.0026860000000000803
v -0.822582 -1.277849 0.002686000000000078
v -0.818077 -1.221199 0.5862990000000001
v -0.845653 -1.23712 0.5862990000000001
v -0.845653 -1.205278 0.5862990000000001
v -0.795006 -1.088966 0.0026850000000000667
v -0.822582 -1.104887 0.0026850000000000675
v -0.845653 -1.110258 0.5862990000000001
v -0.818077 -1.094337 0.5862990000000001
v -0.822582 -1.073045 0.002685000000000066
v -0.845653 -1.078416 0.5862990000000001
v -0.424059 -1.266518 -0.06992099999999991
v -0.449972 -1.282439 -0.07935299999999992
v -0.671259 -1.350798 0.46117300000000006
v -0.645346 -1.334877 0.47060500000000005
v -0.449972 -1.250597 -0.07935299999999992
v -0.671259 -1.318956 0.46117300000000006
v -0.003178 -1.351948 0.010331000000000083
v -0.013298 -1.416743 0.4246670000000001
v -0.815415 -1.280887 0.010331000000000078
v -0.826164 -1.345626 0.47581400000000007
v -0.015647 -1.49447 0.010331000000000092
v -0.013298 -1.416743 0.4246670000000001
v -0.827885 -1.423409 0.010331000000000087
v -0.826164 -1.345626 0.47581400000000007
v -0.420235 -1.358976 0.010331000000000083
v -0.421696 -1.424528 0.3953700000000001
v -0.423429 -1.50231 0.010331000000000092
v -0.421696 -1.424528 0.3953700000000001
v -1.531578 0.231619 -1.418257334858554E-17
v -0.824972 0.086098 0.027561999999999993
v -0.123737 -0.124247 0.021816000000000006
v 0.548079 -0.09023 0.013307000000000005
v 1.139142 -0.012095 -0.002328999999999999
v -1.52932 -0.370093 2.266166039184207E-17
v -0.795553 -0.472984 0.12664100000000003
v -0.123737 -0.513434 0.23068100000000002
v 0.548079 -0.478868 0.14242700000000003
v 1.219895 -0.410376 0.0037910000000000253
v -1.467369 -0.799563 0.001576000000000049
v -0.795553 -0.862048 0.21534700000000007
v -0.123737 -0.90262 0.3278190000000001
v 0.548079 -0.866126 0.13059000000000007
v 1.219895 -0.799563 -0.002793999999999951
v -1.467369 -1.188749 0.004860000000000073
v -0.795553 -1.252071 0.21061000000000007
v -0.123737 -1.291807 0.2363770000000001
v 0.548079 -1.257528 0.17545400000000008
v 1.219895 -1.188749 0.0060940000000000724
v -1.467369 -1.577936 -0.003324999999999903
v -0.795553 -1.641302 0.003759000000000101
v -0.123737 -1.680994 0.011241000000000102
v 0.548079 -1.646955 -0.008040999999999899
v 1.219895 -1.577936 -0.004314999999999904
v -0.194216 -0.260956 1.5978946505914836E-17
v -0.221792 -0.274744 -0.007959999999999983
v -0.221792 -0.247168 0.007961000000000015
v -0.194216 -0.72537 0.804389
v -0.221792 -0.739158 0.796428
v -0.221792 -0.711582 0.812349
v -0.673558 1.460063 -0.0031500000000000894
v -0.672544 1.367374 0.7869729999999999
v -0.073379 1.0253 -0.003150000000000063
v -0.132668 1.000053 0.7872169999999998
v -0.012768 -0.723657 0.773058
v -0.045388 -1.339444 0.2315500000000001
v -0.757179 -0.6857539999999999 0.943468
v -0.711135 -1.062345 0.3194100000000001
v -0.002235 -1.328445 0.1525680000000001
v 0.026325 -0.645537 0.761196
v -0.814461 -0.6071019999999999 0.93257
v -0.779647 -1.064358 0.22784700000000005
v -0.885807 -0.595054 -0.006070999999999964
v -0.812347 -0.595054 -0.006070999999999964
v -0.84766 -0.6705389999999999 1.001653
v -0.7742 -0.6705389999999999 1.001653
v -0.885807 -0.533838 -0.006070999999999967
v -0.812347 -0.533838 -0.006070999999999967
v -0.84766 -0.6093229999999998 1.001653
v -0.7742 -0.6093229999999998 1.001653
v -0.781392 -1.419647 0.010331000000000087
v -0.846186 -1.409528 0.4246670000000001
v -0.71033 -0.60741 0.010331000000000036
v -0.77507 -0.596661 0.47581400000000007
v -0.923914 -1.407178 0.010331000000000087
v -0.846186 -1.409528 0.4246670000000001
v -0.852852 -0.594941 0.010331000000000036
v -0.77507 -0.596661 0.47581400000000007
v -0.78842 -1.00259 0.01033100000000006
v -0.853972 -1.001129 0.39537000000000005
v -0.931753 -0.999396 0.01033100000000006
v -0.853972 -1.001129 0.39537000000000005
v 0.480075 1.481611 -9.072250843657546E-17
v 0.260803 1.01138 0.027561999999999937
v 0.041531 0.541149 0.021815999999999964
v -0.177741 0.070918 0.013305999999999995
v -0.397013 -0.399313 -0.0023289999999999756
v 0.143624 1.638501 -1.0032925025248687E-16
v -0.075648 1.16827 0.12664099999999992
v -0.294921 0.698039 0.23068099999999994
v -0.514194 0.227808 0.14242699999999997
v -0.733466 -0.242423 0.003791000000000015
v -0.192828 1.795392 0.00157599999999989
v -0.4121 1.325161 0.21534699999999993
v -0.631373 0.854929 0.32781899999999997
v -0.850645 0.384699 0.13058999999999998
v -1.103905 -0.184615 -0.0027939999999999888
v -0.52928 1.952281 0.00485999999999988
v -0.748553 1.482051 0.2106099999999999
v -0.967825 1.01182 0.23637699999999995
v -1.187098 0.541589 0.17545399999999997
v -1.483601 0.022244 0.006093999999999998
v -0.865732 2.109172 -0.003325000000000129
v -1.227301 1.723091 0.0037579999999998947
v -1.577764 1.206565 0.011240999999999925
v -1.720036 0.766876 -0.008041000000000046
v -1.742822 0.228248 -0.004315000000000014
v 0.235613 0.905079 0.18896499999999994
v -0.11973 0.220887 0.188965
v -0.240515 1.025544 0.5218509999999998
v -0.468068 0.531634 0.607788
v 0.180578 0.498214 0.18896499999999997
v -0.263296 0.712807 0.625122
v 0.010837 0.301745 0.18896499999999997
v -0.355018 0.66709 0.532542
v 0.225449 0.761021 0.18896499999999994
v -0.234646 0.901268 0.568545
v -0.051771 1.012491 0.24356899999999995
v -0.363282 0.375185 0.313237
v -0.073555 0.624665 0.3208619999999999
v -0.153501 0.481484 0.27906499999999995
v -0.048327 0.854965 0.29563799999999996
v -0.321194 0.505978 0.18896499999999997
v -0.323969 0.537699 0.18896499999999997
v -0.29511 0.524242 0.18896499999999997
v -0.372551 0.39584300000000006 0.53918
v -0.375326 0.4275630000000001 0.53918
v -0.346467 0.41410600000000003 0.53918
v 0.105758 0.417427 0.18896499999999997
v 0.102983 0.449148 0.18896499999999997
v 0.120445 0.48659800000000003 0.694453
v 0.123221 0.45487700000000003 0.694453
v 0.131841 0.435691 0.18896499999999997
v 0.149304 0.47314000000000006 0.694453
v -0.16061 0.471922 0.18896499999999997
v -0.163386 0.503643 0.18896499999999997
v -0.083558 0.45820200000000005 0.694453
v -0.080782 0.42648100000000005 0.694453
v -0.134527 0.490186 0.18896499999999997
v -0.054699 0.44474500000000006 0.694453
v -0.445568 0.175872 -1.0769054092982164E-17
v -0.201773 0.346579 -2.122184315008453E-17
v 0.042022 0.517287 -3.1674693439526847E-17
v 0.285818 0.687994 -4.2127482496629207E-17
v -0.279238 -0.061672 3.776320869850778E-18
v -0.035443 0.10903500000000002 0.188599
v 0.208353 0.279742 0.14538599999999996
v 0.452147 0.45045 -2.7582107533796264E-17
v -0.112907 -0.299216 1.832169583268372E-17
v 0.126758 -0.11534799999999999 0.155396
v 0.374683 0.042198000000000006 0.100464
v 0.618478 0.212906 -1.303673257096332E-17
v 0.053422 -0.53676 3.286707079551667E-17
v 0.297218 -0.366053 2.2414281738414305E-17
v 0.541013 -0.195346 1.1961492681311942E-17
v 0.784808 -0.024638 1.5086423918696244E-18
v -0.782669 -1.404876 -0.006038999999999914
v -0.80266 -1.402704 0.6215830000000001
v -1.367446 -1.328838 0.4712100000000001
v -1.411242 -1.324079 -0.006038999999999919
v -0.788403 -1.486268 -0.006038999999999909
v -1.416976 -1.405471 -0.006038999999999914
v -1.373179 -1.410231 0.47121000000000013
v -0.808394 -1.484096 0.6472080000000001
v -1.068111 -1.386842 0.5838500000000001
v -1.068492 -1.386852 -0.006039999999999915
v -1.069118 -1.468488 -0.00603799999999991
v -1.068737 -1.468478 0.5823320000000001
v 0.029405 0.13172 0.07427899999999998
v 0.034678 0.138223 0.147259
v -0.916674 -0.201197 0.172301
v -0.911401 -0.19469399999999998 0.245282
v 0.008786 0.189245 0.07064299999999998
v 0.014058 0.195747 0.143624
v -0.937294 -0.143672 0.168666
v -0.93202 -0.13716999999999996 0.241646
v -0.440155 -0.372635 2.2817313000013698E-17
v -0.467731 -0.388556 2.379219308447495E-17
v -0.467731 -0.356714 2.1842432915552447E-17
v -0.465423 -0.32533299999999993 0.523066
v -0.492999 -0.34125399999999995 0.523066
v -0.492999 -0.30941199999999996 0.523066
v 1.005421 -0.188751 1.1557665399293104E-17
v 0.977845 -0.204672 1.2532545483754353E-17
v 0.977845 -0.17283 1.0582785314831853E-17
v 1.005421 -0.26040699999999994 0.749141
v 0.977845 -0.27632799999999996 0.749141
v 0.977845 -0.24448599999999995 0.749141
v 0.681453 0.834772 0.002685999999999949
v 0.653877 0.818851 0.0026859999999999497
v 0.653877 0.850693 0.002685999999999948
v 0.658382 0.907342 0.5862989999999999
v 0.630806 0.891421 0.586299
v 0.630806 0.923263 0.5862989999999999
v 0.681453 1.039575 0.0026859999999999363
v 0.653877 1.023654 0.002685999999999937
v 0.630806 1.018283 0.5862989999999999
v 0.658382 1.034204 0.5862989999999999
v 0.653877 1.055496 0.0026859999999999354
v 0.630806 1.050125 0.5862989999999999
v 1.0524 0.862024 -0.06992100000000005
v 1.026487 0.846103 -0.07935300000000006
v 0.8052 0.777743 0.46117299999999994
v 0.831113 0.793664 0.47060499999999994
v 1.026487 0.877945 -0.07935300000000006
v 0.8052 0.809585 0.46117299999999994
v 1.25581 -0.683636 4.1860631959095E-17
v 1.21084 -1.450598 8.882350987747762E-17
v 0.672536 -0.757648 0.12750200000000006
v 0.625094 -1.344674 0.14849800000000007
v 1.29237 -1.05264 6.445561033272349E-17
v 0.682198 -1.068741 0.23077400000000006
v 1.247572 -1.286854 7.87970816034984E-17
v 0.653558 -1.166654 0.18458000000000008
v 1.240846 -0.823461 5.042244389363393E-17
v 0.628517 -0.885829 0.17419700000000005
v 0.984523 -0.714274 0.08170400000000004
v 0.93697 -1.416986 0.12427200000000008
v 1.094117 -1.068437 0.13189700000000004
v 1.082173 -1.231989 0.09010000000000007
v 1.019653 -0.849052 0.10667300000000006
v 1.264559 -1.375113 0.010331000000000085
v 1.259986 -1.429387 0.4246670000000001
v 0.389802 -1.31236 0.01033100000000008
v 0.41847 -1.429387 0.4758140000000001
v 1.230667 -1.49419 0.010331000000000092
v 1.226094 -1.42979 0.4246670000000001
v 0.389802 -1.49419 0.010331000000000092
v 0.384578 -1.42979 0.4758140000000001
v 0.836714 -1.411072 0.010331000000000087
v 0.841105 -1.465346 0.3953700000000001
v 0.812424 -1.530149 0.010331000000000094
v 0.807213 -1.465749 0.3953700000000001
v -0.59986 0.37249800000000005 0.824052
v -0.598845 0.279809 0.03392899999999999
v -1.199024 0.714571 0.03392899999999996
v -1.139735 0.739818 0.824296
v -0.388386 1.618477 -9.910313387718054E-17
v 0.099976 1.661203 0.0275619999999999
v 0.588337 1.703929 0.021815999999999895
v 1.076699 1.746655 0.013305999999999893
v 1.56506 1.789381 -0.0023290000000001096
v -0.350756 1.188364 -7.276630844109726E-17
v 0.137605 1.23109 0.12664099999999992
v 0.625967 1.273816 0.23068099999999991
v 1.114329 1.316542 0.14242699999999991
v 1.60269 1.359268 0.003790999999999917
v -0.313126 0.75825 0.0015759999999999535
v 0.175236 0.800976 0.21534699999999996
v 0.663597 0.843702 0.32781899999999997
v 1.151959 0.886428 0.13058999999999996
v 1.64032 0.929155 -0.002794000000000057
v -0.275496 0.328137 0.00485999999999998
v 0.212866 0.370863 0.21060999999999996
v 0.701227 0.413589 0.23637699999999998
v 1.189589 0.456315 0.17545399999999997
v 1.67795 0.499041 0.006093999999999969
v -0.237866 -0.101977 -0.0033249999999999938
v 0.250496 -0.059251 0.0037580000000000035
v 0.738857 -0.016524 0.011241000000000001
v 1.227219 0.026202 -0.008041000000000001
v 1.71558 0.068928 -0.004315000000000005
v -0.149136 1.0065 0.8040579999999999
v -0.599633 0.3813520000000001 0.804057
v -0.644153 1.353115 0.8040569999999999
v -1.094073 0.727562 0.804057
v -0.592908 0.32589300000000004 0.740431
v -0.098203 1.020298 0.7404309999999998
v -0.660967 1.415467 0.7407359999999998
v -1.175428 0.714672 0.740736
v -0.630496 1.429783 0.12346099999999992
v -0.658641 1.389587 0.7659529999999999
v -1.151767 0.694394 0.12346099999999996
v -1.123622 0.734589 0.765953
v -0.630496 1.429783 0.12346099999999992
v -0.658641 1.389587 0.7659529999999999
v -1.151767 0.694394 0.12346099999999996
v -1.123622 0.734589 0.765953
v -0.066837 1.015409 0.10884699999999994
v -0.186754 1.053595 0.7408019999999998
v -0.589204 0.280956 0.12409499999999998
v -0.652703 0.39942500000000003 0.754284
v -0.066837 1.015409 0.10884699999999994
v -0.186754 1.053595 0.7408019999999998
v -0.589204 0.280956 0.12409499999999998
v -0.652703 0.39942500000000003 0.754284
v 0.007334 -0.6733999999999999 0.945939
v -0.887955 -0.543151 0.008722000000000034
v -0.816287 -0.6066279999999998 0.945939
v 0.079003 -0.609923 0.008721000000000038
v -0.845653 -1.23712 0.5862990000000001
v -0.822582 -1.309691 0.0026860000000000803
v -0.818077 -1.221199 0.5862990000000001
v -0.845653 -1.23712 0.5862990000000001
v -0.845653 -1.205278 0.5862990000000001
v -0.845653 -1.110258 0.5862990000000001
v -0.822582 -1.104887 0.0026850000000000675
v -0.818077 -1.094337 0.5862990000000001
v -0.845653 -1.110258 0.5862990000000001
v -0.845653 -1.078416 0.5862990000000001
v -0.671259 -1.350798 0.46117300000000006
v -0.449972 -1.282439 -0.07935299999999992
v -0.645346 -1.334877 0.47060500000000005
v -0.671259 -1.350798 0.46117300000000006
v -0.671259 -1.318956 0.46117300000000006
v -0.421696 -1.424528 0.3953700000000001
v -0.815415 -1.280887 0.010331000000000078
v -0.423429 -1.50231 0.010331000000000092
v -0.013298 -1.416743 0.4246670000000001
v -0.015647 -1.49447 0.010331000000000092
v -0.013298 -1.416743 0.4246670000000001
v -0.815415 -1.280887 0.010331000000000078
v -0.003178 -1.351948 0.010331000000000083
v -0.421696 -1.424528 0.3953700000000001
v -0.421696 -1.424528 0.3953700000000001
v -0.420235 -1.358976 0.010331000000000083
v -0.003178 -1.351948 0.010331000000000083
v -0.827885 -1.423409 0.010331000000000087
v -0.826164 -1.345626 0.47581400000000007
v -0.421696 -1.424528 0.3953700000000001
v -0.421696 -1.424528 0.3953700000000001
v -0.423429 -1.50231 0.010331000000000092
v -0.827885 -1.423409 0.010331000000000087
v -0.221792 -0.739158 0.796428
v -0.221792 -0.274744 -0.007959999999999983
v -0.194216 -0.72537 0.804389
v -0.221792 -0.739158 0.796428
v -0.221792 -0.711582 0.812349
v -0.132668 1.000053 0.7872169999999998
v -0.673558 1.460063 -0.0031500000000000894
v -0.812347 -0.595054 -0.006070999999999964
v -0.7742 -0.6705389999999999 1.001653
v -0.7742 -0.6093229999999998 1.001653
v -0.812347 -0.533838 -0.006070999999999967
v -0.7742 -0.6705389999999999 1.001653
v -0.84766 -0.6705389999999999 1.001653
v -0.84766 -0.6093229999999998 1.001653
v -0.7742 -0.6093229999999998 1.001653
v -0.84766 -0.6705389999999999 1.001653
v -0.885807 -0.595054 -0.006070999999999964
v -0.885807 -0.533838 -0.006070999999999967
v -0.84766 -0.6093229999999998 1.001653
v -0.853972 -1.001129 0.39537000000000005
v -0.71033 -0.60741 0.010331000000000036
v -0.931753 -0.999396 0.01033100000000006
v -0.846186 -1.409528 0.4246670000000001
v -0.923914 -1.407178 0.010331000000000087
v -0.846186 -1.409528 0.4246670000000001
v -0.71033 -0.60741 0.010331000000000036
v -0.781392 -1.419647 0.010331000000000087
v -0.853972 -1.001129 0.39537000000000005
v -0.853972 -1.001129 0.39537000000000005
v -0.78842 -1.00259 0.01033100000000006
v -0.781392 -1.419647 0.010331000000000087
v -0.852852 -0.594941 0.010331000000000036
v -0.77507 -0.596661 0.47581400000000007
v -0.853972 -1.001129 0.39537000000000005
v -0.853972 -1.001129 0.39537000000000005
v -0.931753 -0.999396 0.01033100000000006
v -0.852852 -0.594941 0.010331000000000036
v -0.375326 0.4275630000000001 0.53918
v -0.323969 0.537699 0.18896499999999997
v -0.372551 0.39584300000000006 0.53918
v -0.375326 0.4275630000000001 0.53918
v -0.346467 0.41410600000000003 0.53918
v 0.120445 0.48659800000000003 0.694453
v 0.102983 0.449148 0.18896499999999997
v 0.123221 0.45487700000000003 0.694453
v 0.120445 0.48659800000000003 0.694453
v 0.149304 0.47314000000000006 0.694453
v -0.083558 0.45820200000000005 0.694453
v -0.163386 0.503643 0.18896499999999997
v -0.080782 0.42648100000000005 0.694453
v -0.083558 0.45820200000000005 0.694453
v -0.054699 0.44474500000000006 0.694453
v -1.068111 -1.386842 0.5838500000000001
v -1.068737 -1.468478 0.5823320000000001
v -1.367446 -1.328838 0.4712100000000001
v -1.373179 -1.410231 0.47121000000000013
v -0.80266 -1.402704 0.6215830000000001
v -0.808394 -1.484096 0.6472080000000001
v -0.788403 -1.486268 -0.006038999999999909
v -0.808394 -1.484096 0.6472080000000001
v -0.80266 -1.402704 0.6215830000000001
v -0.80266 -1.402704 0.6215830000000001
v -0.782669 -1.404876 -0.006038999999999914
v -0.788403 -1.486268 -0.006038999999999909
v -1.367446 -1.328838 0.4712100000000001
v -1.373179 -1.410231 0.47121000000000013
v -1.416976 -1.405471 -0.006038999999999914
v -1.411242 -1.324079 -0.006038999999999919
v 0.034678 0.138223 0.147259
v -0.911401 -0.19469399999999998 0.245282
v -0.93202 -0.13716999999999996 0.241646
v 0.014058 0.195747 0.143624
v -0.911401 -0.19469399999999998 0.245282
v -0.916674 -0.201197 0.172301
v -0.937294 -0.143672 0.168666
v -0.93202 -0.13716999999999996 0.241646
v -0.492999 -0.34125399999999995 0.523066
v -0.467731 -0.388556 2.379219308447495E-17
v -0.465423 -0.32533299999999993 0.523066
v -0.492999 -0.34125399999999995 0.523066
v -0.492999 -0.30941199999999996 0.523066
v 0.977845 -0.27632799999999996 0.749141
v 0.977845 -0.204672 1.2532545483754353E-17
v 1.005421 -0.26040699999999994 0.749141
v 0.977845 -0.27632799999999996 0.749141
v 0.977845 -0.24448599999999995 0.749141
v 0.630806 0.891421 0.586299
v 0.653877 0.818851 0.0026859999999999497
v 0.658382 0.907342 0.5862989999999999
v 0.630806 0.891421 0.586299
v 0.630806 0.923263 0.5862989999999999
v 0.630806 1.018283 0.5862989999999999
v 0.653877 1.023654 0.002685999999999937
v 0.658382 1.034204 0.5862989999999999
v 0.630806 1.018283 0.5862989999999999
v 0.630806 1.050125 0.5862989999999999
v 0.8052 0.777743 0.46117299999999994
v 1.026487 0.846103 -0.07935300000000006
v 0.831113 0.793664 0.47060499999999994
v 0.8052 0.777743 0.46117299999999994
v 0.8052 0.809585 0.46117299999999994
v 0.841105 -1.465346 0.3953700000000001
v 0.389802 -1.31236 0.01033100000000008
v 0.812424 -1.530149 0.010331000000000094
v 1.226094 -1.42979 0.4246670000000001
v 1.230667 -1.49419 0.010331000000000092
v 1.226094 -1.42979 0.4246670000000001
v 0.389802 -1.31236 0.01033100000000008
v 1.264559 -1.375113 0.010331000000000085
v 0.841105 -1.465346 0.3953700000000001
v 0.841105 -1.465346 0.3953700000000001
v 0.836714 -1.411072 0.010331000000000087
v 1.264559 -1.375113 0.010331000000000085
v 0.389802 -1.49419 0.010331000000000092
v 0.384578 -1.42979 0.4758140000000001
v 0.807213 -1.465749 0.3953700000000001
v 0.807213 -1.465749 0.3953700000000001
v 0.812424 -1.530149 0.010331000000000094
v 0.389802 -1.49419 0.010331000000000092
v -1.139735 0.739818 0.824296
v -0.598845 0.279809 0.03392899999999999
v -0.658641 1.389587 0.7659529999999999
v -1.151767 0.694394 0.12346099999999996
v -1.123622 0.734589 0.765953
v -0.630496 1.429783 0.12346099999999992
v -0.186754 1.053595 0.7408019999999998
v -0.589204 0.280956 0.12409499999999998
v -0.652703 0.39942500000000003 0.754284
v -0.066837 1.015409 0.10884699999999994
v -0.818077 -1.221199 0.5862990000000001
v -0.845653 -1.205278 0.5862990000000001
v -0.822582 -1.277849 0.002686000000000078
v -0.822582 -1.277849 0.002686000000000078
v -0.795006 -1.29377 0.0026860000000000794
v -0.818077 -1.221199 0.5862990000000001
v -0.818077 -1.094337 0.5862990000000001
v -0.845653 -1.078416 0.5862990000000001
v -0.822582 -1.073045 0.002685000000000066
v -0.822582 -1.073045 0.002685000000000066
v -0.795006 -1.088966 0.0026850000000000667
v -0.818077 -1.094337 0.5862990000000001
v -0.645346 -1.334877 0.47060500000000005
v -0.671259 -1.318956 0.46117300000000006
v -0.449972 -1.250597 -0.07935299999999992
v -0.449972 -1.250597 -0.07935299999999992
v -0.424059 -1.266518 -0.06992099999999991
v -0.645346 -1.334877 0.47060500000000005
v -0.194216 -0.72537 0.804389
v -0.221792 -0.711582 0.812349
v -0.221792 -0.247168 0.007961000000000015
v -0.221792 -0.247168 0.007961000000000015
v -0.194216 -0.260956 1.5978946505914836E-17
v -0.194216 -0.72537 0.804389
v -0.263296 0.712807 0.625122
v -0.372551 0.39584300000000006 0.53918
v -0.346467 0.41410600000000003 0.53918
v -0.29511 0.524242 0.18896499999999997
v -0.29511 0.524242 0.18896499999999997
v -0.321194 0.505978 0.18896499999999997
v -0.372551 0.39584300000000006 0.53918
v 0.123221 0.45487700000000003 0.694453
v 0.149304 0.47314000000000006 0.694453
v 0.131841 0.435691 0.18896499999999997
v 0.131841 0.435691 0.18896499999999997
v 0.105758 0.417427 0.18896499999999997
v 0.123221 0.45487700000000003 0.694453
v -0.080782 0.42648100000000005 0.694453
v -0.054699 0.44474500000000006 0.694453
v -0.134527 0.490186 0.18896499999999997
v -0.134527 0.490186 0.18896499999999997
v -0.16061 0.471922 0.18896499999999997
v -0.080782 0.42648100000000005 0.694453
v -0.465423 -0.32533299999999993 0.523066
v -0.492999 -0.30941199999999996 0.523066
v -0.467731 -0.356714 2.1842432915552447E-17
v -0.467731 -0.356714 2.1842432915552447E-17
v -0.440155 -0.372635 2.2817313000013698E-17
v -0.465423 -0.32533299999999993 0.523066
v 1.005421 -0.26040699999999994 0.749141
v 0.977845 -0.24448599999999995 0.749141
v 0.977845 -0.17283 1.0582785314831853E-17
v 0.977845 -0.17283 1.0582785314831853E-17
v 1.005421 -0.188751 1.1557665399293104E-17
v 1.005421 -0.26040699999999994 0.749141
v 0.658382 0.907342 0.5862989999999999
v 0.630806 0.923263 0.5862989999999999
v 0.653877 0.850693 0.002685999999999948
v 0.653877 0.850693 0.002685999999999948
v 0.681453 0.834772 0.002685999999999949
v 0.658382 0.907342 0.5862989999999999
v 0.658382 1.034204 0.5862989999999999
v 0.630806 1.050125 0.5862989999999999
v 0.653877 1.055496 0.0026859999999999354
v 0.653877 1.055496 0.0026859999999999354
v 0.681453 1.039575 0.0026859999999999363
v 0.658382 1.034204 0.5862989999999999
v 0.831113 0.793664 0.47060499999999994
v 0.8052 0.809585 0.46117299999999994
v 1.026487 0.877945 -0.07935300000000006
v 1.026487 0.877945 -0.07935300000000006
v 1.0524 0.862024 -0.06992100000000005
v 0.831113 0.793664 0.47060499999999994
vt 0.681506 0.337323
vt 0.655296 0.000500
vt 0.320365 0.337323
vt 0.346575 0.000499
vt 0.681506 0.337323
vt 0.655296 0.000500
vt 0.320365 0.337323
vt 0.346575 0.000499
vt 0.465278 0.607287
vt 0.465278 0.622222
vt 0.465278 0.592352
vt 0.697047 0.607287
vt 0.697047 0.622222
vt 0.697047 0.592352
vt 0.465278 0.607287
vt 0.465278 0.622222
vt 0.697047 0.622222
vt 0.697047 0.607287
vt 0.465278 0.592352
vt 0.697047 0.592352
vt 0.465278 0.607287
vt 0.465278 0.622222
vt 0.697047 0.622222
vt 0.697047 0.607287
vt 0.465278 0.592352
vt 0.697047 0.592352
vt 0.992534 0.622486
vt 0.993034 0.436041
vt 0.715365 0.624421
vt 0.718076 0.436041
vt 0.991848 0.622457
vt 0.993034 0.436041
vt 0.715210 0.624010
vt 0.717475 0.436662
vt 0.851169 0.623456
vt 0.856168 0.436041
vt 0.854326 0.623434
vt 0.856168 0.436041
vt 0.466667 0.990278
vt 0.597569 0.990278
vt 0.728472 0.990278
vt 0.859375 0.990278
vt 0.990278 0.990278
vt 0.466667 0.900000
vt 0.597569 0.900000
vt 0.728472 0.900000
vt 0.859375 0.900000
vt 0.990278 0.900000
vt 0.466667 0.809722
vt 0.597569 0.809722
vt 0.728472 0.809722
vt 0.859375 0.809722
vt 0.990278 0.809722
vt 0.466667 0.719444
vt 0.597569 0.719444
vt 0.728472 0.719444
vt 0.859375 0.719444
vt 0.990278 0.719444
vt 0.466667 0.629167
vt 0.597569 0.629167
vt 0.728472 0.629167
vt 0.859375 0.629167
vt 0.990278 0.629167
vt 0.465278 0.607287
vt 0.465278 0.622222
vt 0.465278 0.592352
vt 0.697047 0.607287
vt 0.697047 0.622222
vt 0.697047 0.592352
vt 0.681506 0.337323
vt 0.655296 0.000500
vt 0.320365 0.337323
vt 0.346575 0.000499
vt 0.680433 0.544353
vt 0.680321 0.371367
vt 0.482305 0.544352
vt 0.482425 0.371367
vt 0.692556 0.359234
vt 0.691517 0.556178
vt 0.466064 0.556445
vt 0.463000 0.354666
vt 0.461609 0.575930
vt 0.461609 0.598866
vt 0.697780 0.575930
vt 0.697780 0.598866
vt 0.462056 0.598905
vt 0.462056 0.576045
vt 0.699687 0.598905
vt 0.699687 0.576045
vt 0.992534 0.622486
vt 0.993034 0.436041
vt 0.715365 0.624421
vt 0.718076 0.436041
vt 0.991848 0.622457
vt 0.993034 0.436041
vt 0.715210 0.624010
vt 0.717475 0.436662
vt 0.851169 0.623456
vt 0.856168 0.436041
vt 0.854326 0.623434
vt 0.856168 0.436041
vt 0.466667 0.990278
vt 0.597569 0.990278
vt 0.728472 0.990278
vt 0.859375 0.990278
vt 0.990278 0.990278
vt 0.466667 0.900000
vt 0.597569 0.900000
vt 0.728472 0.900000
vt 0.859375 0.900000
vt 0.990278 0.900000
vt 0.466667 0.809722
vt 0.597569 0.809722
vt 0.728472 0.809722
vt 0.859375 0.809722
vt 0.990278 0.809722
vt 0.466667 0.719444
vt 0.597569 0.719444
vt 0.728472 0.719444
vt 0.859375 0.719444
vt 0.990278 0.719444
vt 0.466667 0.629167
vt 0.597569 0.629167
vt 0.728472 0.629167
vt 0.859375 0.629167
vt 0.990278 0.629167
vt 0.006944 0.995833
vt 0.231944 0.995833
vt 0.006944 0.813889
vt 0.231944 0.813889
vt 0.119444 0.995833
vt 0.119444 0.813889
vt 0.187480 0.995833
vt 0.144614 0.813889
vt 0.049461 0.995833
vt 0.062036 0.813889
vt 0.006944 0.899397
vt 0.231944 0.904322
vt 0.119444 0.904861
vt 0.165351 0.901906
vt 0.055872 0.903078
vt 0.465278 0.607287
vt 0.465278 0.622222
vt 0.465278 0.592352
vt 0.697047 0.607287
vt 0.697047 0.622222
vt 0.697047 0.592352
vt 0.465278 0.607287
vt 0.465278 0.622222
vt 0.697047 0.622222
vt 0.697047 0.607287
vt 0.465278 0.592352
vt 0.697047 0.592352
vt 0.465278 0.607287
vt 0.465278 0.622222
vt 0.697047 0.622222
vt 0.697047 0.607287
vt 0.465278 0.592352
vt 0.697047 0.592352
vt 0.771333 0.434223
vt 0.828407 0.434223
vt 0.885482 0.434223
vt 0.942556 0.434223
vt 0.771333 0.388722
vt 0.828407 0.388722
vt 0.885482 0.388722
vt 0.942556 0.388722
vt 0.771333 0.343222
vt 0.828407 0.343222
vt 0.885482 0.343222
vt 0.942556 0.343222
vt 0.771333 0.297722
vt 0.828407 0.297722
vt 0.885482 0.297722
vt 0.942556 0.297722
vt 0.403102 0.585185
vt 0.391995 0.490535
vt 0.050129 0.487340
vt 0.043503 0.585185
vt 0.399530 0.369513
vt 0.043587 0.369513
vt 0.050145 0.465636
vt 0.388536 0.460715
vt 0.223466 0.487554
vt 0.223256 0.585185
vt 0.224310 0.369513
vt 0.224518 0.465106
vt 0.461609 0.575930
vt 0.461609 0.598866
vt 0.697780 0.575930
vt 0.697780 0.598866
vt 0.462056 0.598905
vt 0.462056 0.576045
vt 0.699687 0.598905
vt 0.699687 0.576045
vt 0.465278 0.607287
vt 0.465278 0.622222
vt 0.465278 0.592352
vt 0.697047 0.607287
vt 0.697047 0.622222
vt 0.697047 0.592352
vt 0.465278 0.607287
vt 0.465278 0.622222
vt 0.465278 0.592352
vt 0.697047 0.607287
vt 0.697047 0.622222
vt 0.697047 0.592352
vt 0.465278 0.607287
vt 0.465278 0.622222
vt 0.465278 0.592352
vt 0.697047 0.607287
vt 0.697047 0.622222
vt 0.697047 0.592352
vt 0.465278 0.607287
vt 0.465278 0.622222
vt 0.697047 0.622222
vt 0.697047 0.607287
vt 0.465278 0.592352
vt 0.697047 0.592352
vt 0.465278 0.607287
vt 0.465278 0.622222
vt 0.697047 0.622222
vt 0.697047 0.607287
vt 0.465278 0.592352
vt 0.697047 0.592352
vt 0.006944 0.995833
vt 0.231944 0.995833
vt 0.006944 0.813889
vt 0.231944 0.813889
vt 0.119444 0.995833
vt 0.119444 0.813889
vt 0.187480 0.995833
vt 0.144614 0.813889
vt 0.049461 0.995833
vt 0.062036 0.813889
vt 0.006944 0.899397
vt 0.231944 0.904322
vt 0.119444 0.904861
vt 0.165351 0.901906
vt 0.055872 0.903078
vt 0.992534 0.622486
vt 0.993034 0.436041
vt 0.715365 0.624421
vt 0.718076 0.436041
vt 0.991848 0.622457
vt 0.993034 0.436041
vt 0.715210 0.624010
vt 0.717475 0.436662
vt 0.851169 0.623456
vt 0.856168 0.436041
vt 0.854326 0.623434
vt 0.856168 0.436041
vt 0.655296 0.000500
vt 0.681506 0.337323
vt 0.320365 0.337323
vt 0.346575 0.000499
vt 0.466667 0.990278
vt 0.597569 0.990278
vt 0.728472 0.990278
vt 0.859375 0.990278
vt 0.990278 0.990278
vt 0.466667 0.900000
vt 0.597569 0.900000
vt 0.728472 0.900000
vt 0.859375 0.900000
vt 0.990278 0.900000
vt 0.466667 0.809722
vt 0.597569 0.809722
vt 0.728472 0.809722
vt 0.859375 0.809722
vt 0.990278 0.809722
vt 0.466667 0.719444
vt 0.597569 0.719444
vt 0.728472 0.719444
vt 0.859375 0.719444
vt 0.990278 0.719444
vt 0.466667 0.629167
vt 0.597569 0.629167
vt 0.728472 0.629167
vt 0.859375 0.629167
vt 0.990278 0.629167
vt 0.351569 0.569987
vt 0.351486 0.445821
vt 0.203788 0.569987
vt 0.203877 0.445821
vt 0.360612 0.437111
vt 0.359836 0.578475
vt 0.191674 0.578667
vt 0.189388 0.433833
vt 0.674024 0.339194
vt 0.675080 0.000500
vt 0.000500 0.339194
vt -0.000557 0.000499
vt 0.674024 0.339194
vt 0.675080 0.000500
vt 0.000500 0.339194
vt -0.000557 0.000499
vt 0.674024 0.339194
vt 0.675080 0.000500
vt 0.000500 0.339194
vt -0.000557 0.000499
vt 0.674024 0.339194
vt 0.675080 0.000500
vt 0.000500 0.339194
vt -0.000557 0.000499
vt 0.655296 0.000500
vt 0.320365 0.337323
vt 0.346575 0.000499
vt 0.681506 0.337323
vt 0.697047 0.577417
vt 0.465278 0.577417
vt 0.527816 0.578120
vt 0.516017 0.595421
vt 0.539615 0.595421
vt 0.697047 0.577417
vt 0.465278 0.577417
vt 0.527816 0.578120
vt 0.516017 0.595421
vt 0.539615 0.595421
vt 0.697047 0.577417
vt 0.465278 0.577417
vt 0.527816 0.578120
vt 0.516017 0.595421
vt 0.539615 0.595421
vt 0.856168 0.436041
vt 0.715365 0.624421
vt 0.854326 0.623434
vt 0.993034 0.436041
vt 0.899644 0.622486
vt 0.990414 0.431734
vt 0.808100 0.624010
vt 0.991848 0.622457
vt 0.856168 0.436041
vt 0.856168 0.436041
vt 0.851169 0.623456
vt 0.991848 0.622457
vt 0.715365 0.624421
vt 0.718076 0.436041
vt 0.856168 0.436041
vt 0.856168 0.436041
vt 0.854326 0.623434
vt 0.715365 0.624421
vt 0.697047 0.577417
vt 0.465278 0.577417
vt 0.527816 0.578120
vt 0.516017 0.595421
vt 0.539615 0.595421
vt 0.346575 0.000499
vt 0.681506 0.337323
vt 0.462076 0.598295
vt 0.699566 0.598295
vt 0.699566 0.575946
vt 0.462076 0.575946
vt 0.602149 0.596377
vt 0.623651 0.596377
vt 0.623651 0.577579
vt 0.602149 0.577579
vt 0.697722 0.575806
vt 0.461847 0.575806
vt 0.461847 0.598271
vt 0.697722 0.598271
vt 0.856168 0.436041
vt 0.715365 0.624421
vt 0.854326 0.623434
vt 0.993034 0.436041
vt 0.899644 0.622486
vt 0.990414 0.431734
vt 0.808100 0.624010
vt 0.991848 0.622457
vt 0.856168 0.436041
vt 0.856168 0.436041
vt 0.851169 0.623456
vt 0.991848 0.622457
vt 0.715365 0.624421
vt 0.718076 0.436041
vt 0.856168 0.436041
vt 0.856168 0.436041
vt 0.854326 0.623434
vt 0.715365 0.624421
vt 0.697047 0.577417
vt 0.465278 0.577417
vt 0.527816 0.578120
vt 0.516017 0.595421
vt 0.539615 0.595421
vt 0.697047 0.577417
vt 0.465278 0.577417
vt 0.527816 0.578120
vt 0.516017 0.595421
vt 0.539615 0.595421
vt 0.697047 0.577417
vt 0.465278 0.577417
vt 0.527816 0.578120
vt 0.516017 0.595421
vt 0.539615 0.595421
vt 0.223466 0.487554
vt 0.224518 0.465106
vt 0.050129 0.487340
vt 0.050145 0.465636
vt 0.391995 0.490535
vt 0.388536 0.460715
vt 0.039717 0.527813
vt 0.039717 0.422183
vt 0.015910 0.420135
vt 0.015910 0.420135
vt 0.015910 0.527813
vt 0.039717 0.527813
vt 0.405991 0.525954
vt 0.435130 0.525954
vt 0.435130 0.416417
vt 0.405991 0.416417
vt 0.462076 0.598295
vt 0.699566 0.598295
vt 0.699566 0.575946
vt 0.462076 0.575946
vt 0.602149 0.596377
vt 0.623651 0.596377
vt 0.623651 0.577579
vt 0.602149 0.577579
vt 0.697047 0.577417
vt 0.465278 0.577417
vt 0.527816 0.578120
vt 0.516017 0.595421
vt 0.539615 0.595421
vt 0.697047 0.577417
vt 0.465278 0.577417
vt 0.527816 0.578120
vt 0.516017 0.595421
vt 0.539615 0.595421
vt 0.697047 0.577417
vt 0.465278 0.577417
vt 0.527816 0.578120
vt 0.516017 0.595421
vt 0.539615 0.595421
vt 0.697047 0.577417
vt 0.465278 0.577417
vt 0.527816 0.578120
vt 0.516017 0.595421
vt 0.539615 0.595421
vt 0.697047 0.577417
vt 0.465278 0.577417
vt 0.527816 0.578120
vt 0.516017 0.595421
vt 0.539615 0.595421
vt 0.856168 0.436041
vt 0.715365 0.624421
vt 0.854326 0.623434
vt 0.993034 0.436041
vt 0.899644 0.622486
vt 0.990414 0.431734
vt 0.808100 0.624010
vt 0.991848 0.622457
vt 0.856168 0.436041
vt 0.856168 0.436041
vt 0.851169 0.623456
vt 0.991848 0.622457
vt 0.715365 0.624421
vt 0.718076 0.436041
vt 0.856168 0.436041
vt 0.856168 0.436041
vt 0.854326 0.623434
vt 0.715365 0.624421
vt 0.346575 0.000499
vt 0.681506 0.337323
vt 0.675080 0.000500
vt 0.000500 0.339194
vt -0.000557 0.000499
vt 0.674024 0.339194
vt 0.675080 0.000500
vt 0.000500 0.339194
vt -0.000557 0.000499
vt 0.674024 0.339194
vt 0.697047 0.607287
vt 0.697047 0.592352
vt 0.465278 0.592352
vt 0.465278 0.592352
vt 0.465278 0.607287
vt 0.697047 0.607287
vt 0.697047 0.607287
vt 0.697047 0.592352
vt 0.465278 0.592352
vt 0.465278 0.592352
vt 0.465278 0.607287
vt 0.697047 0.607287
vt 0.697047 0.607287
vt 0.697047 0.592352
vt 0.465278 0.592352
vt 0.465278 0.592352
vt 0.465278 0.607287
vt 0.697047 0.607287
vt 0.697047 0.607287
vt 0.697047 0.592352
vt 0.465278 0.592352
vt 0.465278 0.592352
vt 0.465278 0.607287
vt 0.697047 0.607287
vt 0.119444 0.813889
vt 0.697047 0.607287
vt 0.697047 0.592352
vt 0.465278 0.592352
vt 0.465278 0.592352
vt 0.465278 0.607287
vt 0.697047 0.607287
vt 0.697047 0.607287
vt 0.697047 0.592352
vt 0.465278 0.592352
vt 0.465278 0.592352
vt 0.465278 0.607287
vt 0.697047 0.607287
vt 0.697047 0.607287
vt 0.697047 0.592352
vt 0.465278 0.592352
vt 0.465278 0.592352
vt 0.465278 0.607287
vt 0.697047 0.607287
vt 0.697047 0.607287
vt 0.697047 0.592352
vt 0.465278 0.592352
vt 0.465278 0.592352
vt 0.465278 0.607287
vt 0.697047 0.607287
vt 0.697047 0.607287
vt 0.697047 0.592352
vt 0.465278 0.592352
vt 0.465278 0.592352
vt 0.465278 0.607287
vt 0.697047 0.607287
vt 0.697047 0.607287
vt 0.697047 0.592352
vt 0.465278 0.592352
vt 0.465278 0.592352
vt 0.465278 0.607287
vt 0.697047 0.607287
vt 0.697047 0.607287
vt 0.697047 0.592352
vt 0.465278 0.592352
vt 0.465278 0.592352
vt 0.465278 0.607287
vt 0.697047 0.607287
vt 0.697047 0.607287
vt 0.697047 0.592352
vt 0.465278 0.592352
vt 0.465278 0.592352
vt 0.465278 0.607287
vt 0.697047 0.607287
vn 0.068708 0.994989 0.07264299999999994
vn 0.068708 0.994989 0.07264299999999994
vn 0.068708 0.994989 0.07264299999999994
vn 0.080655 0.994861 0.061212999999999934
vn -0.068757 -0.995694 -0.062178999999999936
vn -0.080588 -0.994035 -0.07348699999999994
vn -0.068757 -0.995694 -0.062178999999999936
vn -0.068757 -0.995694 -0.062178999999999936
vn 0.863665 -0.494903 0.09568200000000003
vn -0.868481 -0.494974 0.027216000000000032
vn -0.002356 0.992343 -0.12348900000000006
vn 0.864058 0.502593 -0.02833800000000003
vn -0.005594 -0.992369 0.12317700000000005
vn -0.86322 0.495662 -0.09575900000000002
vn 0.865524 -0.499991 0.029614000000000033
vn -0.865098 -0.500099 -0.038801999999999975
vn 0.00055 -0.999958 -0.00918099999999994
vn 0.865495 0.499413 0.03881099999999997
vn 0.000306 0.999958 0.009214999999999939
vn -0.865493 0.500046 -0.02961200000000003
vn 0.817928 -0.507685 0.27064800000000006
vn -0.772889 -0.507709 -0.38062399999999996
vn 0.050169 -0.993199 -0.10506899999999994
vn 0.783308 0.489914 0.38263899999999995
vn -0.037735 0.993197 0.11015999999999994
vn -0.820908 0.501789 -0.27261300000000005
vn 0.996138 -0.087151 0.010701000000000006
vn -0.029856 0.987663 0.15372299999999994
vn 0.191185 0.967511 0.16544099999999995
vn 0.216233 0.96634 0.13939099999999993
vn 0.018892 -0.982699 0.18424300000000005
vn 0.018892 -0.982699 0.18424300000000005
vn -0.996136 0.087152 -0.010880000000000006
vn -0.996136 0.087152 -0.010880000000000006
vn 0.191185 0.967511 0.16544099999999995
vn 0.191185 0.967511 0.16544099999999995
vn 0.018892 -0.982699 0.18424300000000005
vn 0.004483 -0.980194 0.19798800000000005
vn -0.086964 0.08751900000000006 0.99236
vn 0.002544 0.27605100000000005 0.96114
vn 0.079092 0.42076700000000006 0.903714
vn 0.061487 0.21921500000000005 0.973737
vn 0.023772 0.02017900000000006 0.999514
vn -0.206263 0.060171000000000065 0.976645
vn -0.122685 0.17085900000000007 0.977628
vn 0.061838 0.26717900000000006 0.961661
vn 0.133203 0.17612900000000006 0.975313
vn 0.131832 0.10731400000000006 0.985446
vn -0.300972 -0.01474999999999994 0.953519
vn -0.188138 0.02543000000000006 0.981813
vn 0.031458 0.061053000000000066 0.997639
vn 0.216553 0.07016300000000006 0.973746
vn 0.197971 -0.008042999999999939 0.980175
vn -0.210248 -0.16214999999999993 0.964108
vn -0.179409 -0.25110099999999996 0.951189
vn -0.00366 -0.32416799999999996 0.945992
vn 0.170618 -0.15322599999999995 0.973351
vn 0.224349 0.03585000000000006 0.973849
vn -0.012523 -0.02102399999999994 0.999701
vn -0.122258 -0.3262749999999999 0.937335
vn -0.016687 -0.49027499999999996 0.871408
vn 0.064087 -0.45067699999999994 0.890384
vn 0.145807 -0.23364299999999993 0.961328
vn 0.866025 -0.433013 -0.24999999999999997
vn -0.874658 -0.419798 -0.24236999999999997
vn -0.01808 0.865884 0.4999179999999999
vn 0.866026 0.433013 0.24999999999999997
vn -0.01808 -0.865884 -0.4999179999999999
vn -0.874658 0.419798 0.24236999999999997
vn 0.585216 0.807876 0.06970599999999995
vn 0.559907 0.822995 0.09582599999999994
vn 0.585216 0.807876 0.06970599999999995
vn 0.585216 0.807876 0.06970599999999995
vn 0.431318 -0.21552999999999994 0.876077
vn 0.311146 -0.841937 0.4408290000000001
vn -0.326493 -0.632258 0.702604
vn -0.398941 -0.89284 0.20900600000000005
vn 0.059086 -0.988898 0.13634600000000005
vn 0.720782 -0.2780679999999999 0.634943
vn -0.198727 -0.11069799999999995 0.973783
vn -0.555865 -0.762916 0.33011100000000004
vn 0 -0.997206 -0.07469699999999994
vn 0 -0.997206 -0.07469699999999994
vn 0 -0.997206 -0.07469699999999994
vn 0 -0.997206 -0.07469699999999994
vn 0 0.997206 0.07469699999999994
vn 0 0.997206 0.07469699999999994
vn 0 0.997206 0.07469699999999994
vn 0 0.997206 0.07469699999999994
vn -0.08715 -0.996138 0.010701000000000061
vn 0.987663 0.02985600000000001 0.153723
vn 0.967511 -0.191185 0.165442
vn 0.96634 -0.216233 0.139392
vn -0.982699 -0.01889199999999999 0.184243
vn -0.982699 -0.01889199999999999 0.184243
vn 0.087151 0.996136 -0.01088100000000006
vn 0.087151 0.996136 -0.01088100000000006
vn 0.967511 -0.191185 0.165442
vn 0.967511 -0.191185 0.165442
vn -0.982699 -0.01889199999999999 0.184243
vn -0.980194 -0.004482999999999988 0.197989
vn 0.179985 0.07712900000000006 0.980641
vn 0.339412 -0.07266499999999994 0.937827
vn 0.372201 -0.23743299999999995 0.897269
vn 0.163036 -0.18533699999999995 0.969056
vn 0.002204 -0.034257999999999934 0.999411
vn 0.190812 0.22618100000000005 0.955214
vn 0.262875 0.08216800000000006 0.961325
vn 0.244107 -0.16947199999999996 0.954825
vn 0.100994 -0.24336399999999994 0.964663
vn 0.044738 -0.22051599999999993 0.974357
vn 0.159367 0.3414960000000001 0.926274
vn 0.135478 0.21045900000000006 0.96817
vn 0.041205 -0.06076699999999994 0.997301
vn -0.048374 -0.2680179999999999 0.962199
vn -0.085479 -0.20930799999999994 0.974106
vn -0 0.28059300000000004 0.959827
vn -0.070515 0.27262100000000006 0.959534
vn -0.221664 0.10290000000000006 0.969679
vn -0.196646 -0.14110099999999995 0.970269
vn -0.098294 -0.23289699999999994 0.967521
vn -0.010973 0.028613000000000062 0.99953
vn -0.156591 0.23989600000000005 0.958086
vn -0.303937 0.15498900000000004 0.940001
vn -0.320544 0.03640000000000006 0.946534
vn -0.259894 -0.09062299999999994 0.961375
vn 0.182016 -0.012841999999999939 0.983212
vn 0.227468 -0.36731099999999994 0.901854
vn 0.818448 0.21609700000000004 0.532395
vn 0.59666 -0.4787989999999999 0.64401
vn 0.342592 -0.16410599999999995 0.92504
vn 0.606391 -0.57836 0.545701
vn 0.253416 -0.27466399999999996 0.927545
vn 0.469169 -0.60093 0.647119
vn 0.327332 0.07651500000000006 0.941806
vn 0.837664 0.07877200000000002 0.540477
vn 0.518686 0.17185900000000007 0.837514
vn 0.332559 -0.46318999999999994 0.821499
vn 0.575991 -0.34359399999999996 0.74174
vn 0.4229 -0.39420099999999997 0.815941
vn 0.656643 0.12040100000000004 0.744529
vn -0.784497 -0.54931 -0.28778899999999996
vn -0.114727 0.952333 0.28266499999999994
vn 0.892775 -0.450375 -0.010712999999999973
vn 0.083468 -0.95405 -0.28778899999999996
vn -0.918872 0.394411 -0.010713000000000025
vn 0.803276 0.52426 0.28266499999999994
vn -0.817108 -0.572144 0.07061600000000004
vn -0.088855 0.993544 -0.07053800000000006
vn -0.907119 0.420875 0.00015699999999997422
vn 0.086938 -0.993708 0.07061600000000005
vn 0.905493 -0.424362 0.000157000000000026
vn 0.818215 0.570569 -0.07053800000000005
vn -0.817653 -0.570424 0.07784800000000004
vn -0.078408 0.991737 0.10153399999999994
vn -0.888217 0.423401 0.17833099999999996
vn 0.084976 -0.991095 -0.10251399999999994
vn 0.896037 -0.406706 -0.17806499999999997
vn 0.810988 0.580115 -0.07592400000000005
vn -0.406369 0.07582200000000006 0.910558
vn -0.26119 0.44382000000000005 0.857207
vn -0.056942 0.32901300000000006 0.942607
vn 0 6.123233995736766E-17 1
vn -0.396597 -0.32222399999999995 0.859583
vn -0.175276 0.04236200000000006 0.983608
vn 0.091887 0.3068620000000001 0.947308
vn 0.158113 0.28878400000000004 0.944248
vn -0.164113 -0.29426199999999997 0.941529
vn -0.011655 -0.3158309999999999 0.948744
vn 0.257435 -0.03887499999999994 0.965513
vn 0.322872 0.16687400000000005 0.931615
vn -0 6.123233995736766E-17 1
vn 0.058439 -0.33286999999999994 0.94116
vn 0.25669 -0.27329799999999993 0.927048
vn 0.230993 -0.04358099999999994 0.971979
vn 0.062934 0.998017 -0.0014490000000000611
vn 0.061295 0.99812 -0.0007520000000000611
vn -0.347922 0.02450900000000006 0.937203
vn 0.186634 0.982421 -0.00403500000000006
vn -0.06321 -0.997999 0.0013840000000000612
vn -0.184444 -0.982835 0.00391900000000006
vn -0.346696 0.004856000000000057 0.937965
vn -0.061554 -0.998103 0.0007200000000000612
vn 0.144571 0.989491 -0.0027140000000000605
vn 0.101074 0.994879 -0.000546000000000061
vn -0.100609 -0.994926 0.0005250000000000609
vn -0.143179 -0.989693 0.0026360000000000606
vn 0.336824 -0.939693 0.05939300000000006
vn 0.336823 -0.939693 0.059391000000000055
vn 0.336824 -0.939692 0.05939400000000006
vn 0.336824 -0.939693 0.05939300000000006
vn -0.336824 0.939693 -0.05939300000000006
vn -0.336824 0.939692 -0.05939400000000006
vn -0.336823 0.939693 -0.059391000000000055
vn -0.336824 0.939693 -0.05939300000000006
vn 0.864219 -0.495613 0.08656900000000002
vn -0.867578 -0.497291 0.00306000000000003
vn -0.00023 0.995935 -0.09007600000000006
vn 0.86457 0.502499 -0.003676000000000031
vn -0.003126 -0.995945 0.08991500000000005
vn -0.862879 0.497917 -0.08671200000000003
vn 0.865037 -0.499429 -0.04776999999999997
vn -0.866359 -0.497153 -0.04755299999999997
vn -0.002636 0.995453 0.09521499999999994
vn 0.865036 0.49943 0.04776999999999997
vn -0.002635 -0.995453 -0.09521499999999994
vn -0.866359 0.497153 0.04755299999999997
vn 0.863665 -0.494902 0.09568200000000003
vn -0.868481 -0.494974 0.027216000000000032
vn -0.002356 0.992343 -0.12348800000000006
vn 0.864058 0.502593 -0.02833800000000003
vn -0.005594 -0.992369 0.12317700000000005
vn -0.86322 0.495662 -0.09575900000000002
vn 0.865524 -0.499991 0.029614000000000033
vn -0.865098 -0.500099 -0.038800999999999974
vn 0.00055 -0.999958 -0.00918099999999994
vn 0.865495 0.499412 0.03881099999999997
vn 0.000306 0.999958 0.009214999999999939
vn -0.865492 0.500046 -0.02961200000000003
vn 0.817928 -0.507685 0.27064800000000006
vn -0.772889 -0.507709 -0.38062399999999996
vn 0.050169 -0.993199 -0.10506899999999994
vn 0.783308 0.489914 0.38263899999999995
vn -0.037734 0.993197 0.11015999999999994
vn -0.820908 0.501789 -0.27261300000000005
vn 0.291465 -0.031191999999999942 0.956073
vn 0.402321 -0.09024999999999994 0.91104
vn 0.124465 0.25409500000000007 0.959137
vn 0.141289 -0.06102999999999994 0.988086
vn 0.497743 0.008302000000000054 0.867285
vn 0.23291 -0.06840299999999995 0.97009
vn 0.428316 -0.11623699999999994 0.896122
vn 0.186463 -0.31826799999999994 0.929482
vn 0.373481 0.11184000000000005 0.920871
vn 0.169738 0.27090900000000007 0.947522
vn 0.271492 0.15103500000000006 0.950516
vn 0.317525 -0.05482399999999994 0.946664
vn 0.326425 -0.03409099999999995 0.944608
vn 0.323856 -0.15071099999999996 0.934025
vn 0.296679 0.22095900000000004 0.929063
vn 0.960445 -0.273364 0.05308900000000001
vn -0.093728 0.987297 0.12829299999999993
vn 0.213733 0.967663 0.13396199999999994
vn 0.126643 0.963828 0.23451599999999995
vn 0.084639 -0.984447 0.15394600000000006
vn 0.084639 -0.984447 0.15394600000000006
vn -0.999937 -6.870880866616225E-19 -0.011221
vn -0.999937 -6.870880866616225E-19 -0.011221
vn 0.213733 0.967663 0.13396199999999994
vn 0.213733 0.967663 0.13396199999999994
vn 0.084639 -0.984447 0.15394600000000006
vn 0.072856 -0.983518 0.16548500000000005
vn -0.559907 -0.822995 0.09582600000000005
vn -0.585216 -0.807876 0.06970600000000006
vn -0.585216 -0.807876 0.06970600000000006
vn -0.585216 -0.807876 0.06970600000000006
vn -0.163435 0.09897700000000005 0.981576
vn -0.108173 0.28786600000000007 0.951542
vn 0.029096 0.39047500000000007 0.920154
vn 0.088082 0.20459900000000006 0.974875
vn 0.030518 0.01689000000000006 0.999391
vn -0.305486 0.04007300000000005 0.951353
vn -0.211494 0.15795700000000004 0.964531
vn 0.031274 0.25991700000000006 0.965124
vn 0.181274 0.17525700000000005 0.96769
vn 0.183202 0.11065600000000006 0.976828
vn -0.393992 -0.03437099999999994 0.918471
vn -0.26272 0.006224000000000059 0.964852
vn 0.034339 0.057221000000000063 0.997771
vn 0.289693 0.08719300000000006 0.95314
vn 0.265341 0.01609700000000006 0.96402
vn -0.249298 -0.16851099999999994 0.953653
vn -0.197345 -0.24763899999999994 0.948541
vn 0.017765 -0.29614199999999996 0.954979
vn 0.226562 -0.12117799999999994 0.966429
vn 0.301321 0.05818900000000005 0.951746
vn -0.012738 -0.020137999999999937 0.999716
vn -0.107341 -0.30808399999999997 0.945284
vn 0.030966 -0.45134199999999997 0.891814
vn 0.083233 -0.40916499999999995 0.908656
vn 0.182439 -0.19909899999999994 0.962848
vn 0.545121 0.27396300000000007 0.79233
vn 0.246087 -0.44209299999999996 0.862551
vn -0.179885 0.38774400000000003 0.904044
vn -0.451974 -0.27010999999999996 0.850153
vn -0.073336 -0.723432 0.686489
vn 0.776578 -0.13613899999999998 0.615137
vn 0.136073 0.72624 0.673839
vn -0.638332 0.10463200000000004 0.762617
vn -0.81583 0.578292 0.0004399999999999646
vn -0.81583 0.578292 0.0004399999999999646
vn -0.81583 0.578292 0.0004399999999999646
vn -0.815422 0.578866 -0.0004940000000000354
vn 0.81583 -0.578292 0.0004410000000000354
vn 0.815422 -0.578866 -0.0004939999999999645
vn 0.81583 -0.578292 0.0004410000000000354
vn 0.81583 -0.578292 0.0004410000000000354
vn -0.802433 0.566844 -0.18651700000000002
vn -0.802433 0.566844 -0.18651700000000002
vn -0.802433 0.566844 -0.18651700000000002
vn -0.801891 0.567304 -0.18744700000000003
vn 0.802307 -0.566737 0.18738200000000002
vn 0.802032 -0.567425 0.18647600000000003
vn 0.802307 -0.566737 0.18738200000000002
vn 0.802307 -0.566737 0.18738200000000002
vn 0.080655 0.994861 0.061212999999999934
vn 0.080655 0.994861 0.061212999999999934
vn -0.080588 -0.994035 -0.07348699999999994
vn -0.080588 -0.994035 -0.07348699999999994
vn -0.005594 -0.992369 0.12317700000000005
vn -0.868481 -0.494974 0.027216000000000032
vn 0 6.123233995736766E-17 1
vn 0 6.123233995736766E-17 1
vn 0 6.123233995736766E-17 1
vn 0.00055 -0.999958 -0.00918099999999994
vn -0.865098 -0.500099 -0.038801999999999975
vn 0 6.123233995736766E-17 1
vn 0 6.123233995736766E-17 1
vn 0 6.123233995736766E-17 1
vn 0.050169 -0.993199 -0.10506899999999994
vn -0.772889 -0.507709 -0.38062399999999996
vn -0.34202 5.753960123155869E-17 0.939693
vn -0.34202 5.753960123155869E-17 0.939693
vn -0.34202 5.753960123155869E-17 0.939693
vn 0.216233 0.96634 0.13939099999999993
vn 0.216233 0.96634 0.13939099999999993
vn 0.004483 -0.980194 0.19798800000000005
vn 0.004483 -0.980194 0.19798800000000005
vn 0.996138 -0.087151 0.010701000000000006
vn 0.996138 -0.087151 0.010701000000000006
vn -0.996136 0.087152 -0.010880000000000006
vn -0.029856 0.987663 0.15372299999999994
vn -0.029856 0.987663 0.15372299999999994
vn -0.01661 0.98569 0.16774799999999995
vn -0.01661 0.98569 0.16774799999999995
vn -0.01661 0.98569 0.16774799999999995
vn -0.157505 -0.973918 0.16332500000000005
vn -0.157505 -0.973918 0.16332500000000005
vn -0.157505 -0.973918 0.16332500000000005
vn -0.187783 -0.962598 0.19529900000000006
vn -0.187783 -0.962598 0.19529900000000006
vn -0.187783 -0.962598 0.19529900000000006
vn -0.01808 -0.865884 -0.4999179999999999
vn -0.874658 -0.419798 -0.24236999999999997
vn 0 -0.49999999999999994 0.866026
vn 0 -0.49999999999999994 0.866026
vn 0 -0.49999999999999994 0.866026
vn 0.559907 0.822995 0.09582599999999994
vn 0.559907 0.822995 0.09582599999999994
vn 0.999284 -2.3162357235673464E-18 -0.037827
vn 0.999284 -2.3162357235673464E-18 -0.037827
vn 0.999284 -2.3162357235673464E-18 -0.037827
vn 0.999284 -2.3162357235673464E-18 -0.037827
vn 0 6.123233995736766E-17 1
vn 0 6.123233995736766E-17 1
vn 0 6.123233995736766E-17 1
vn 0 6.123233995736766E-17 1
vn -0.999284 2.3162357235673464E-18 0.037827
vn -0.999284 2.3162357235673464E-18 0.037827
vn -0.999284 2.3162357235673464E-18 0.037827
vn -0.999284 2.3162357235673464E-18 0.037827
vn 0.96634 -0.216233 0.139392
vn 0.96634 -0.216233 0.139392
vn -0.980194 -0.004482999999999988 0.197989
vn -0.980194 -0.004482999999999988 0.197989
vn -0.08715 -0.996138 0.010701000000000061
vn -0.08715 -0.996138 0.010701000000000061
vn 0.087151 0.996136 -0.01088100000000006
vn 0.987663 0.02985600000000001 0.153723
vn 0.987663 0.02985600000000001 0.153723
vn 0.98569 0.01661000000000001 0.167748
vn 0.98569 0.01661000000000001 0.167748
vn 0.98569 0.01661000000000001 0.167748
vn -0.973919 0.157505 0.163325
vn -0.973919 0.157505 0.163325
vn -0.973919 0.157505 0.163325
vn -0.962598 0.187783 0.1953
vn -0.962598 0.187783 0.1953
vn -0.962598 0.187783 0.1953
vn -0.918872 0.394411 -0.010713000000000025
vn -0.114727 0.952333 0.28266499999999994
vn 0 1.0000000000612324E-06 1
vn 0 1.0000000000612324E-06 1
vn 0 1.0000000000612324E-06 1
vn -0.907119 0.420875 0.00015699999999997422
vn -0.088855 0.993544 -0.07053800000000006
vn 0 6.123233995736766E-17 1
vn 0 6.123233995736766E-17 1
vn 0 6.123233995736766E-17 1
vn -0.888217 0.423401 0.17833099999999996
vn -0.078408 0.991737 0.10153399999999994
vn 0 6.123233995736766E-17 1
vn 0 6.123233995736766E-17 1
vn 0 6.123233995736766E-17 1
vn -0.280356 -0.002485999999999941 0.959893
vn -0.237358 0.09375800000000005 0.966887
vn 0.19311 0.981145 -0.007938000000000061
vn -0.190623 -0.981633 0.00770500000000006
vn -0.180093 0.14823500000000006 0.972416
vn -0.212739 0.30703300000000006 0.927617
vn 0.997689 -0.060604 0.030733000000000003
vn 0.997689 -0.060604 0.030733000000000003
vn 0.997689 -0.060604 0.030733000000000003
vn 0.997017 -0.070238 0.03200000000000001
vn 0.997017 -0.070238 0.03200000000000001
vn 0.997017 -0.070238 0.03200000000000001
vn -0.993311 0.069971 0.091853
vn -0.993311 0.069971 0.091853
vn -0.993311 0.069971 0.091853
vn -0.993311 0.069971 0.091853
vn 0.071784 0.08852200000000006 0.993484
vn 0.071784 0.08852100000000006 0.993484
vn 0.071784 0.08852200000000006 0.993484
vn 0.071784 0.08852200000000006 0.993484
vn -0.938827 -0.330368 0.09726800000000001
vn -0.938825 -0.330374 0.09726400000000002
vn -0.938827 -0.330368 0.09726800000000001
vn -0.938828 -0.330363 0.09727200000000001
vn -0.003126 -0.995945 0.08991500000000005
vn -0.867578 -0.497291 0.00306000000000003
vn 0 6.123233995736766E-17 1
vn 0 6.123233995736766E-17 1
vn 0 6.123233995736766E-17 1
vn -0.002635 -0.995453 -0.09521499999999994
vn -0.866359 -0.497153 -0.04755299999999997
vn 0 6.123233995736766E-17 1
vn 0 6.123233995736766E-17 1
vn 0 6.123233995736766E-17 1
vn -0.005594 -0.992369 0.12317700000000005
vn -0.868481 -0.494974 0.027216000000000032
vn 0 6.123233995736766E-17 1
vn 0 6.123233995736766E-17 1
vn 0 6.123233995736766E-17 1
vn 0.00055 -0.999958 -0.00918099999999994
vn -0.865098 -0.500099 -0.038800999999999974
vn -0 6.123233995736766E-17 1
vn -0 6.123233995736766E-17 1
vn -0 6.123233995736766E-17 1
vn 0.050169 -0.993199 -0.10506899999999994
vn -0.772889 -0.507709 -0.38062399999999996
vn -0.34202 5.753960123155869E-17 0.939693
vn -0.34202 5.753960123155869E-17 0.939693
vn -0.34202 5.753960123155869E-17 0.939693
vn 0.126643 0.963828 0.23451599999999995
vn 0.126643 0.963828 0.23451599999999995
vn 0.072856 -0.983518 0.16548500000000005
vn 0.072856 -0.983518 0.16548500000000005
vn 0.960445 -0.273364 0.05308900000000001
vn 0.960445 -0.273364 0.05308900000000001
vn -0.999937 -6.870880866616225E-19 -0.011221
vn -0.093728 0.987297 0.12829299999999993
vn -0.093728 0.987297 0.12829299999999993
vn -0.082927 0.986669 0.14002499999999996
vn -0.082927 0.986669 0.14002499999999996
vn -0.082927 0.986669 0.14002499999999996
vn -0.058226 -0.988973 0.13617200000000004
vn -0.058226 -0.988973 0.13617200000000004
vn -0.058226 -0.988973 0.13617200000000004
vn -0.083642 -0.983027 0.16328500000000007
vn -0.083642 -0.983027 0.16328500000000007
vn -0.083642 -0.983027 0.16328500000000007
vn -0.559907 -0.822995 0.09582600000000005
vn -0.559907 -0.822995 0.09582600000000005
vn -0.815422 0.578866 -0.0004940000000000354
vn -0.815422 0.578866 -0.0004940000000000354
vn 0.815422 -0.578866 -0.0004939999999999645
vn 0.815422 -0.578866 -0.0004939999999999645
vn -0.801891 0.567304 -0.18744700000000003
vn -0.801891 0.567304 -0.18744700000000003
vn 0.802032 -0.567425 0.18647600000000003
vn 0.802032 -0.567425 0.18647600000000003
vn 0.864058 0.502593 -0.02833800000000003
vn -0.86322 0.495662 -0.09575900000000002
vn -0.002356 0.992343 -0.12348900000000006
vn -0.002356 0.992343 -0.12348900000000006
vn 0.863665 -0.494903 0.09568200000000003
vn 0.864058 0.502593 -0.02833800000000003
vn 0.865495 0.499413 0.03881099999999997
vn -0.865493 0.500046 -0.02961200000000003
vn 0.000306 0.999958 0.009214999999999939
vn 0.000306 0.999958 0.009214999999999939
vn 0.865524 -0.499991 0.029614000000000033
vn 0.865495 0.499413 0.03881099999999997
vn 0.783308 0.489914 0.38263899999999995
vn -0.820908 0.501789 -0.27261300000000005
vn -0.037735 0.993197 0.11015999999999994
vn -0.037735 0.993197 0.11015999999999994
vn 0.817928 -0.507685 0.27064800000000006
vn 0.783308 0.489914 0.38263899999999995
vn 0.866026 0.433013 0.24999999999999997
vn -0.874658 0.419798 0.24236999999999997
vn -0.01808 0.865884 0.4999179999999999
vn -0.01808 0.865884 0.4999179999999999
vn 0.866025 -0.433013 -0.24999999999999997
vn 0.866026 0.433013 0.24999999999999997
vn 0.606391 -0.57836 0.545701
vn 0.083468 -0.95405 -0.28778899999999996
vn 0.803276 0.52426 0.28266499999999994
vn 0.892775 -0.450375 -0.010712999999999973
vn 0.892775 -0.450375 -0.010712999999999973
vn -0.784497 -0.54931 -0.28778899999999996
vn 0.083468 -0.95405 -0.28778899999999996
vn 0.086938 -0.993708 0.07061600000000005
vn 0.818215 0.570569 -0.07053800000000005
vn 0.905493 -0.424362 0.000157000000000026
vn 0.905493 -0.424362 0.000157000000000026
vn -0.817108 -0.572144 0.07061600000000004
vn 0.086938 -0.993708 0.07061600000000005
vn 0.084976 -0.991095 -0.10251399999999994
vn 0.810988 0.580115 -0.07592400000000005
vn 0.896037 -0.406706 -0.17806499999999997
vn 0.896037 -0.406706 -0.17806499999999997
vn -0.817653 -0.570424 0.07784800000000004
vn 0.084976 -0.991095 -0.10251399999999994
vn 0.86457 0.502499 -0.003676000000000031
vn -0.862879 0.497917 -0.08671200000000003
vn -0.00023 0.995935 -0.09007600000000006
vn -0.00023 0.995935 -0.09007600000000006
vn 0.864219 -0.495613 0.08656900000000002
vn 0.86457 0.502499 -0.003676000000000031
vn 0.865036 0.49943 0.04776999999999997
vn -0.866359 0.497153 0.04755299999999997
vn -0.002636 0.995453 0.09521499999999994
vn -0.002636 0.995453 0.09521499999999994
vn 0.865037 -0.499429 -0.04776999999999997
vn 0.865036 0.49943 0.04776999999999997
vn 0.864058 0.502593 -0.02833800000000003
vn -0.86322 0.495662 -0.09575900000000002
vn -0.002356 0.992343 -0.12348800000000006
vn -0.002356 0.992343 -0.12348800000000006
vn 0.863665 -0.494902 0.09568200000000003
vn 0.864058 0.502593 -0.02833800000000003
vn 0.865495 0.499412 0.03881099999999997
vn -0.865492 0.500046 -0.02961200000000003
vn 0.000306 0.999958 0.009214999999999939
vn 0.000306 0.999958 0.009214999999999939
vn 0.865524 -0.499991 0.029614000000000033
vn 0.865495 0.499412 0.03881099999999997
vn 0.783308 0.489914 0.38263899999999995
vn -0.820908 0.501789 -0.27261300000000005
vn -0.037734 0.993197 0.11015999999999994
vn -0.037734 0.993197 0.11015999999999994
vn 0.817928 -0.507685 0.27064800000000006
vn 0.783308 0.489914 0.38263899999999995
g ruinmat
f 471/471/471 303/303/303 470/470/470
f 305/305/305 304/304/304 302/302/302
f 469/469/469 301/301/301 468/468/468
f 299/299/299 298/298/298 300/300/300
f 467/467/467 295/295/295 466/466/466
f 297/297/297 296/296/296 294/294/294
f 465/465/465 293/293/293 464/464/464
f 291/291/291 290/290/290 292/292/292
f 284/284/284 288/288/288 289/289/289
f 289/289/289 285/285/285 284/284/284
f 285/285/285 289/289/289 286/286/286
f 286/286/286 283/283/283 285/285/285
f 282/282/282 287/287/287 288/288/288
f 288/288/288 284/284/284 282/282/282
f 283/283/283 286/286/286 287/287/287
f 287/287/287 282/282/282 283/283/283
f 284/284/284 285/285/285 283/283/283
f 283/283/283 282/282/282 284/284/284
f 275/275/275 280/280/280 281/281/281
f 281/281/281 276/276/276 275/275/275
f 274/274/274 279/279/279 280/280/280
f 280/280/280 275/275/275 274/274/274
f 273/273/273 278/278/278 279/279/279
f 279/279/279 274/274/274 273/273/273
f 272/272/272 277/277/277 278/278/278
f 278/278/278 273/273/273 272/272/272
f 270/270/270 275/275/275 276/276/276
f 276/276/276 271/271/271 270/270/270
f 269/269/269 274/274/274 275/275/275
f 275/275/275 270/270/270 269/269/269
f 268/268/268 273/273/273 274/274/274
f 274/274/274 269/269/269 268/268/268
f 267/267/267 272/272/272 273/273/273
f 273/273/273 268/268/268 267/267/267
f 265/265/265 270/270/270 271/271/271
f 271/271/271 266/266/266 265/265/265
f 264/264/264 269/269/269 270/270/270
f 270/270/270 265/265/265 264/264/264
f 263/263/263 268/268/268 269/269/269
f 269/269/269 264/264/264 263/263/263
f 262/262/262 267/267/267 268/268/268
f 268/268/268 263/263/263 262/262/262
f 260/260/260 265/265/265 266/266/266
f 266/266/266 261/261/261 260/260/260
f 259/259/259 264/264/264 265/265/265
f 265/265/265 260/260/260 259/259/259
f 258/258/258 263/263/263 264/264/264
f 264/264/264 259/259/259 258/258/258
f 257/257/257 262/262/262 263/263/263
f 263/263/263 258/258/258 257/257/257
f 463/463/463 253/253/253 462/462/462
f 256/256/256 255/255/255 254/254/254
f 461/461/461 460/460/460 459/459/459
f 458/458/458 457/457/457 456/456/456
f 455/455/455 454/454/454 453/453/453
f 452/452/452 242/242/242 451/451/451
f 248/248/248 450/450/450 247/247/247
f 449/449/449 448/448/448 241/241/241
f 447/447/447 252/252/252 446/446/446
f 251/251/251 245/245/245 246/246/246
f 445/445/445 244/244/244 444/444/444
f 250/250/250 249/249/249 243/243/243
f 238/238/238 240/240/240 235/235/235
f 235/235/235 231/231/231 238/238/238
f 229/229/229 237/237/237 239/239/239
f 239/239/239 233/233/233 229/229/229
f 233/233/233 239/239/239 238/238/238
f 238/238/238 231/231/231 233/233/233
f 236/236/236 240/240/240 234/234/234
f 234/234/234 226/226/226 236/236/236
f 230/230/230 234/234/234 240/240/240
f 240/240/240 238/238/238 230/230/230
f 232/232/232 239/239/239 237/237/237
f 237/237/237 227/227/227 232/232/232
f 230/230/230 238/238/238 239/239/239
f 239/239/239 232/232/232 230/230/230
f 228/228/228 235/235/235 240/240/240
f 240/240/240 236/236/236 228/228/228
f 443/443/443 442/442/442 441/441/441
f 544/544/544 543/543/543 542/542/542
f 541/541/541 540/540/540 539/539/539
f 225/225/225 224/224/224 440/440/440
f 440/440/440 439/439/439 225/225/225
f 222/222/222 221/221/221 220/220/220
f 220/220/220 223/223/223 222/222/222
f 438/438/438 437/437/437 436/436/436
f 538/538/538 537/537/537 536/536/536
f 535/535/535 534/534/534 533/533/533
f 219/219/219 218/218/218 435/435/435
f 435/435/435 434/434/434 219/219/219
f 216/216/216 215/215/215 214/214/214
f 214/214/214 217/217/217 216/216/216
f 433/433/433 432/432/432 431/431/431
f 532/532/532 531/531/531 530/530/530
f 529/529/529 528/528/528 527/527/527
f 213/213/213 210/210/210 430/430/430
f 430/430/430 429/429/429 213/213/213
f 212/212/212 209/209/209 208/208/208
f 208/208/208 211/211/211 212/212/212
f 428/428/428 427/427/427 426/426/426
f 526/526/526 525/525/525 524/524/524
f 523/523/523 522/522/522 521/521/521
f 207/207/207 204/204/204 425/425/425
f 425/425/425 424/424/424 207/207/207
f 206/206/206 203/203/203 202/202/202
f 202/202/202 205/205/205 206/206/206
f 423/423/423 422/422/422 421/421/421
f 520/520/520 519/519/519 518/518/518
f 517/517/517 516/516/516 515/515/515
f 201/201/201 198/198/198 420/420/420
f 420/420/420 419/419/419 201/201/201
f 200/200/200 197/197/197 196/196/196
f 196/196/196 199/199/199 200/200/200
f 415/415/415 418/418/418 417/417/417
f 417/417/417 416/416/416 415/415/415
f 411/411/411 414/414/414 413/413/413
f 413/413/413 412/412/412 411/411/411
f 192/192/192 194/194/194 195/195/195
f 195/195/195 193/193/193 192/192/192
f 188/188/188 189/189/189 191/191/191
f 191/191/191 190/190/190 188/188/188
f 407/407/407 410/410/410 409/409/409
f 409/409/409 408/408/408 407/407/407
f 406/406/406 405/405/405 404/404/404
f 403/403/403 402/402/402 401/401/401
f 399/399/399 395/395/395 396/396/396
f 396/396/396 400/400/400 399/399/399
f 181/181/181 186/186/186 187/187/187
f 187/187/187 398/398/398 181/181/181
f 184/184/184 185/185/185 179/179/179
f 179/179/179 397/397/397 184/184/184
f 395/395/395 178/178/178 182/182/182
f 182/182/182 396/396/396 395/395/395
f 186/186/186 180/180/180 183/183/183
f 183/183/183 187/187/187 186/186/186
f 177/177/177 176/176/176 185/185/185
f 185/185/185 184/184/184 177/177/177
f 170/170/170 174/174/174 175/175/175
f 175/175/175 171/171/171 170/170/170
f 169/169/169 173/173/173 174/174/174
f 174/174/174 170/170/170 169/169/169
f 168/168/168 172/172/172 173/173/173
f 173/173/173 169/169/169 168/168/168
f 166/166/166 170/170/170 171/171/171
f 171/171/171 167/167/167 166/166/166
f 165/165/165 169/169/169 170/170/170
f 170/170/170 166/166/166 165/165/165
f 164/164/164 168/168/168 169/169/169
f 169/169/169 165/165/165 164/164/164
f 162/162/162 166/166/166 167/167/167
f 167/167/167 163/163/163 162/162/162
f 161/161/161 165/165/165 166/166/166
f 166/166/166 162/162/162 161/161/161
f 160/160/160 164/164/164 165/165/165
f 165/165/165 161/161/161 160/160/160
f 394/394/394 393/393/393 392/392/392
f 514/514/514 513/513/513 512/512/512
f 511/511/511 510/510/510 509/509/509
f 159/159/159 158/158/158 391/391/391
f 391/391/391 390/390/390 159/159/159
f 156/156/156 155/155/155 154/154/154
f 154/154/154 157/157/157 156/156/156
f 389/389/389 388/388/388 387/387/387
f 508/508/508 507/507/507 506/506/506
f 505/505/505 504/504/504 503/503/503
f 153/153/153 152/152/152 386/386/386
f 386/386/386 385/385/385 153/153/153
f 150/150/150 149/149/149 148/148/148
f 148/148/148 151/151/151 150/150/150
f 384/384/384 383/383/383 382/382/382
f 502/502/502 501/501/501 500/500/500
f 499/499/499 498/498/498 497/497/497
f 147/147/147 144/144/144 381/381/381
f 381/381/381 380/380/380 147/147/147
f 146/146/146 143/143/143 142/142/142
f 142/142/142 145/145/145 146/146/146
f 139/139/139 141/141/141 136/136/136
f 136/136/136 496/496/496 139/139/139
f 130/130/130 138/138/138 140/140/140
f 140/140/140 134/134/134 130/130/130
f 134/134/134 140/140/140 139/139/139
f 139/139/139 132/132/132 134/134/134
f 137/137/137 141/141/141 135/135/135
f 135/135/135 127/127/127 137/137/137
f 131/131/131 135/135/135 141/141/141
f 141/141/141 139/139/139 131/131/131
f 133/133/133 140/140/140 138/138/138
f 138/138/138 128/128/128 133/133/133
f 131/131/131 139/139/139 140/140/140
f 140/140/140 133/133/133 131/131/131
f 129/129/129 136/136/136 141/141/141
f 141/141/141 137/137/137 129/129/129
f 120/120/120 125/125/125 126/126/126
f 126/126/126 121/121/121 120/120/120
f 119/119/119 124/124/124 125/125/125
f 125/125/125 120/120/120 119/119/119
f 118/118/118 123/123/123 124/124/124
f 124/124/124 119/119/119 118/118/118
f 117/117/117 122/122/122 123/123/123
f 123/123/123 118/118/118 117/117/117
f 115/115/115 120/120/120 121/121/121
f 121/121/121 116/116/116 115/115/115
f 114/114/114 119/119/119 120/120/120
f 120/120/120 115/115/115 114/114/114
f 113/113/113 118/118/118 119/119/119
f 119/119/119 114/114/114 113/113/113
f 112/112/112 117/117/117 118/118/118
f 118/118/118 113/113/113 112/112/112
f 110/110/110 115/115/115 116/116/116
f 116/116/116 111/111/111 110/110/110
f 109/109/109 114/114/114 115/115/115
f 115/115/115 110/110/110 109/109/109
f 108/108/108 113/113/113 114/114/114
f 114/114/114 109/109/109 108/108/108
f 107/107/107 112/112/112 113/113/113
f 113/113/113 108/108/108 107/107/107
f 105/105/105 110/110/110 111/111/111
f 111/111/111 106/106/106 105/105/105
f 104/104/104 109/109/109 110/110/110
f 110/110/110 105/105/105 104/104/104
f 103/103/103 108/108/108 109/109/109
f 109/109/109 104/104/104 103/103/103
f 102/102/102 107/107/107 108/108/108
f 108/108/108 103/103/103 102/102/102
f 379/379/379 378/378/378 377/377/377
f 376/376/376 375/375/375 374/374/374
f 373/373/373 372/372/372 371/371/371
f 370/370/370 91/91/91 369/369/369
f 97/97/97 368/368/368 96/96/96
f 367/367/367 366/366/366 90/90/90
f 365/365/365 101/101/101 364/364/364
f 100/100/100 94/94/94 95/95/95
f 363/363/363 93/93/93 362/362/362
f 99/99/99 98/98/98 92/92/92
f 358/358/358 361/361/361 360/360/360
f 360/360/360 359/359/359 358/358/358
f 354/354/354 357/357/357 356/356/356
f 356/356/356 355/355/355 354/354/354
f 350/350/350 353/353/353 352/352/352
f 352/352/352 351/351/351 350/350/350
f 86/86/86 88/88/88 89/89/89
f 89/89/89 87/87/87 86/86/86
f 82/82/82 83/83/83 85/85/85
f 85/85/85 84/84/84 82/82/82
f 76/76/76 80/80/80 81/81/81
f 81/81/81 77/77/77 76/76/76
f 77/77/77 81/81/81 78/78/78
f 78/78/78 75/75/75 77/77/77
f 74/74/74 79/79/79 80/80/80
f 80/80/80 76/76/76 74/74/74
f 75/75/75 78/78/78 79/79/79
f 79/79/79 74/74/74 75/75/75
f 76/76/76 77/77/77 75/75/75
f 75/75/75 74/74/74 76/76/76
f 349/349/349 71/71/71 348/348/348
f 73/73/73 72/72/72 70/70/70
f 347/347/347 346/346/346 345/345/345
f 495/495/495 494/494/494 493/493/493
f 492/492/492 491/491/491 490/490/490
f 69/69/69 66/66/66 344/344/344
f 344/344/344 343/343/343 69/69/69
f 68/68/68 65/65/65 64/64/64
f 64/64/64 67/67/67 68/68/68
f 57/57/57 62/62/62 63/63/63
f 63/63/63 58/58/58 57/57/57
f 56/56/56 61/61/61 62/62/62
f 62/62/62 57/57/57 56/56/56
f 55/55/55 60/60/60 61/61/61
f 61/61/61 56/56/56 55/55/55
f 54/54/54 59/59/59 60/60/60
f 60/60/60 55/55/55 54/54/54
f 52/52/52 57/57/57 58/58/58
f 58/58/58 53/53/53 52/52/52
f 51/51/51 56/56/56 57/57/57
f 57/57/57 52/52/52 51/51/51
f 50/50/50 55/55/55 56/56/56
f 56/56/56 51/51/51 50/50/50
f 49/49/49 54/54/54 55/55/55
f 55/55/55 50/50/50 49/49/49
f 47/47/47 52/52/52 53/53/53
f 53/53/53 48/48/48 47/47/47
f 46/46/46 51/51/51 52/52/52
f 52/52/52 47/47/47 46/46/46
f 45/45/45 50/50/50 51/51/51
f 51/51/51 46/46/46 45/45/45
f 44/44/44 49/49/49 50/50/50
f 50/50/50 45/45/45 44/44/44
f 42/42/42 47/47/47 48/48/48
f 48/48/48 43/43/43 42/42/42
f 41/41/41 46/46/46 47/47/47
f 47/47/47 42/42/42 41/41/41
f 40/40/40 45/45/45 46/46/46
f 46/46/46 41/41/41 40/40/40
f 39/39/39 44/44/44 45/45/45
f 45/45/45 40/40/40 39/39/39
f 342/342/342 341/341/341 340/340/340
f 339/339/339 338/338/338 337/337/337
f 336/336/336 335/335/335 334/334/334
f 333/333/333 28/28/28 332/332/332
f 34/34/34 331/331/331 33/33/33
f 330/330/330 329/329/329 27/27/27
f 328/328/328 38/38/38 327/327/327
f 37/37/37 31/31/31 32/32/32
f 326/326/326 30/30/30 325/325/325
f 36/36/36 35/35/35 29/29/29
f 324/324/324 323/323/323 322/322/322
f 489/489/489 488/488/488 487/487/487
f 486/486/486 485/485/485 484/484/484
f 26/26/26 25/25/25 321/321/321
f 321/321/321 320/320/320 26/26/26
f 23/23/23 22/22/22 21/21/21
f 21/21/21 24/24/24 23/23/23
f 319/319/319 318/318/318 317/317/317
f 483/483/483 482/482/482 481/481/481
f 480/480/480 479/479/479 478/478/478
f 20/20/20 19/19/19 316/316/316
f 316/316/316 315/315/315 20/20/20
f 17/17/17 16/16/16 15/15/15
f 15/15/15 18/18/18 17/17/17
f 314/314/314 313/313/313 312/312/312
f 477/477/477 476/476/476 475/475/475
f 474/474/474 473/473/473 472/472/472
f 14/14/14 11/11/11 311/311/311
f 311/311/311 310/310/310 14/14/14
f 13/13/13 10/10/10 9/9/9
f 9/9/9 12/12/12 13/13/13
f 309/309/309 6/6/6 308/308/308
f 8/8/8 7/7/7 5/5/5
f 307/307/307 4/4/4 306/306/306
f 2/2/2 1/1/1 3/3/3
