v 0.784177 0.541847 0.772351
v 0.483123 0.38465000000000005 0.637502
v 1.009788 -0.737656 0.772351
v 0.639251 -0.811187 0.664113
v 0.784177 0.541847 0.772351
v 0.483123 0.38465000000000005 0.637502
v 1.009788 -0.737656 0.772351
v 0.639251 -0.811187 0.664113
v -0.799333 1.835296 -1.1237946859439705E-16
v -0.241653 1.335032 0.027561999999999916
v 0.356926 0.926146 0.021816999999999944
v 1.172965 0.706897 0.013306999999999956
v 1.920487 0.358321 -0.002329000000000022
v -1.121374 1.375374 -8.421736833652459E-17
v -0.559364 0.895192 0.12664099999999995
v 0.130723 0.444634 0.23068099999999997
v 0.935681 0.198041 0.142427
v 1.683204 -0.150535 0.003791000000000009
v -1.443414 0.915453 0.001576999999999944
v -0.796648 0.386336 0.21534699999999998
v -0.087512 -0.05563899999999998 0.327819
v 0.698398 -0.310815 0.13059000000000004
v 1.44592 -0.659391 -0.0027939999999999597
v -1.765454 0.455532 0.004860999999999972
v -1.033931 -0.12251999999999999 0.21061
v -0.378281 -0.61996 0.23637700000000003
v 0.461114 -0.819671 0.17545400000000005
v 1.208637 -1.168247 0.006095000000000071
v -2.087495 -0.004389 -0.0033239999999999997
v -1.516522 -0.625135 0.0037590000000000384
v -0.721812 -1.123079 0.011241000000000069
v 0.223831 -1.328527 -0.008040999999999918
v 0.971354 -1.677103 -0.004314999999999898
v -0.847874 -0.253589 0.06951600000000001
v -0.850871 -0.25148999999999994 0.55886
v -1.398899 0.132243 0.06951599999999998
v -1.402322 0.13464000000000004 0.55886
v -0.847874 -0.253589 0.06951600000000001
v -0.850871 -0.25148999999999994 0.55886
v -1.398899 0.132243 0.06951599999999998
v -1.402322 0.13464000000000004 0.55886
v -0.176532 0.720159 0.773071
v -0.812447 -0.21868599999999994 0.726501
v -0.598786 1.057396 0.6388549999999998
v -1.404129 0.05021200000000004 0.653809
v -0.551679 0.18191900000000005 0.740356
v -1.063405 0.536816 0.537231
v -0.435182 -0.262381 -0.19173899999999997
v -0.378637 -0.301975 -0.16661399999999998
v -0.717513 -0.06469099999999996 0.755212
v -0.660967 -0.10428499999999996 0.780337
v -0.40007 -0.212235 -0.191739
v -0.343525 -0.251829 -0.16661399999999998
v -0.6824 -0.014544999999999954 0.755212
v -0.625855 -0.05413899999999995 0.780337
v 0.337846 0.324615 0.19287099999999996
v 0.31027 0.308694 0.19287099999999996
v 0.31027 0.340536 0.19287099999999996
v 0.337846 0.32461500000000004 1.121699
v 0.31027 0.3086940000000001 1.121699
v 0.31027 0.34053600000000006 1.121699
v 0.798795 1.025493 -0.009033000000000062
v 0.771219 1.009572 -0.009033000000000062
v 0.771219 1.041414 -0.009033000000000064
v 0.931119 1.157318 0.7647659999999998
v 0.903543 1.141397 0.7647659999999998
v 0.903543 1.173239 0.7647659999999998
v 0.569391 1.016536 -0.007200000000000062
v 0.589972 1.004343 -0.028215000000000063
v 0.371791 0.36967000000000005 0.47413
v 0.351209 0.38186400000000004 0.495145
v 0.558769 1.004179 -0.03455700000000006
v 0.340587 0.36950600000000006 0.467788
v -1.388865 1.350826 -0.009033000000000083
v -1.416441 1.334905 -0.009033000000000081
v -1.302355 1.267564 0.5790969999999999
v -1.274779 1.283485 0.5790969999999999
v -1.416441 1.366747 -0.009033000000000083
v -1.302355 1.299406 0.5790969999999999
v 0.291028 0.09542800000000001 0.192871
v 0.263452 0.07950700000000001 0.192871
v 0.263452 0.11134900000000002 0.192871
v 0.291028 0.09542800000000005 0.826899
v 0.263452 0.07950700000000005 0.826899
v 0.263452 0.11134900000000006 0.826899
v 0.204436 -0.23030399999999998 0.610474
v 0.089283 -0.254042 0.359292
v 0.078092 -0.11521099999999997 0.384261
v 0.270046 -0.11171299999999997 0.657168
v -0.15513 0.13264100000000004 0.277588
v -0.070342 0.355517 0.277588
v 0.083018 0.272765 0.367688
v 0.042854 0.11377100000000002 0.409485
v -0.005734 0.510395 0.27758799999999995
v 0.258139 0.429737 0.401861
v -0.144186 -0.10200299999999998 0.277588
v -0.183203 -0.23710599999999998 0.277588
v 0.29415 0.16919300000000004 0.621165
v 0.248942 0.07774100000000005 0.713745
v 0.353094 0.33956600000000003 0.696411
v 0.440955 -0.879517 0.10365400000000005
v 0.375833 -0.886989 0.51799
v 0.314838 -0.164276 0.10365400000000001
v 0.249619 -0.17119499999999999 0.655685
v 0.300062 -0.90436 0.10365400000000005
v 0.375833 -0.886989 0.51799
v 0.173946 -0.189119 0.10365400000000001
v 0.249619 -0.17119499999999999 0.655685
v 0.334093 -0.523119 0.10365400000000002
v 0.270316 -0.538216 0.578537
v 0.19464 -0.55613 0.10365400000000002
v 0.270316 -0.538216 0.578537
v 0.303444 -0.933324 0.008722000000000058
v 0.374023 -0.885754 0.811967
v 1.081563 -0.818215 0.008722000000000051
v 1.010984 -0.765047 0.811967
v 0.303444 -0.933324 0.008722000000000058
v 0.374023 -0.885754 0.811967
v 1.081563 -0.818215 0.008722000000000051
v 1.010984 -0.765047 0.811967
v 0.081948 0.376811 0.370117
v -0.092857 0.587344 0.23172899999999996
v 0.033773 0.645344 0.25669699999999995
v 0.135342 0.423331 0.356509
v 0.186912 0.949271 0.08142099999999994
v 0.425346 0.945823 0.08190899999999994
v 0.400036 0.77341 0.17200899999999994
v 0.236895 0.756772 0.21331799999999995
v 0.592981 0.938084 0.04186999999999994
v 0.607437 0.662538 0.16614299999999999
v -0.029838 0.858733 0.15002499999999994
v -0.170139 0.84919 0.15002499999999994
v 0.374922 0.539587 0.36835699999999993
v 0.278184 0.471673 0.37280299999999994
v 0.55518 0.542468 0.39050299999999993
v -1.720043 1.268201 -7.765491476627362E-17
v -1.487311 1.268201 -7.765491476627362E-17
v -1.254578 1.268201 -7.765491476627362E-17
v -1.021846 1.268201 -7.765491476627362E-17
v -1.720043 1.041436 -6.376956319584114E-17
v -1.487311 1.041436 0.13366499999999995
v -1.254578 1.041436 0.10303899999999994
v -1.021846 1.041436 -6.376956319584114E-17
v -1.720043 0.814671 -4.988421162540867E-17
v -1.484053 0.824953 0.11013299999999994
v -1.254578 0.814671 0.07120199999999995
v -1.021846 0.814671 -4.988421162540867E-17
v -1.720043 0.587906 -3.599886005497619E-17
v -1.487311 0.587906 -3.599886005497619E-17
v -1.254578 0.587906 -3.599886005497619E-17
v -1.021846 0.587906 -3.599886005497619E-17
v -1.128756 0.436798 -0.03173800000000003
v -1.156332 0.420877 -0.03173800000000003
v -1.156332 0.452719 -0.03173800000000003
v -0.998496 0.5683 0.752131
v -1.026072 0.552379 0.752131
v -1.026072 0.584221 0.752131
v -0.975344 0.669891 -0.031738000000000044
v -1.00292 0.65397 -0.031738000000000044
v -1.078226 0.532054 0.672725
v -1.05065 0.547975 0.672725
v -1.00292 0.685812 -0.031738000000000044
v -1.078226 0.563896 0.672725
v -0.632174 1.10037 0.6814229999999999
v -0.644441 1.092708 0.7097909999999998
v -0.623422 1.116511 0.7074379999999999
v -0.167212 0.698938 0.774061
v -0.179479 0.691276 0.802429
v -0.158459 0.715078 0.800076
v -0.704654 1.14236 -0.035826000000000066
v -0.645947 1.101253 0.7845529999999998
v -0.13098 0.681856 -0.03582600000000004
v -0.189687 0.722963 0.784553
v -0.704654 1.14236 -0.035826000000000066
v -0.645947 1.101253 0.7845529999999998
v -0.13098 0.681856 -0.03582600000000004
v -0.189687 0.722963 0.784553
v -0.88801 -0.379531 0.15383000000000002
v -0.903552 -0.31119199999999997 0.802525
v -0.137495 0.746095 0.13373399999999994
v -0.18842 0.698997 0.802525
v -0.88801 -0.379531 0.15383000000000002
v -0.903552 -0.31119199999999997 0.802525
v -0.137495 0.746095 0.13373399999999994
v -0.18842 0.698997 0.802525
v -1.400174 -0.011724 0.010331
v -1.451505 0.029041000000000025 0.424667
v -0.9836 0.583206 0.010330999999999963
v -1.034609 0.62443 0.47581399999999996
v -1.517367 0.070336 0.010330999999999996
v -1.451505 0.029041000000000025 0.424667
v -1.100792 0.665265 0.01033099999999996
v -1.034609 0.62443 0.47581399999999996
v -1.223724 0.31585 0.01033099999999998
v -1.279497 0.350272 0.39537
v -1.345675 0.391116 0.010330999999999976
v -1.279497 0.350272 0.39537
v -1.491068 0.053723 -0.0060710000000000035
v -1.42745 0.016993 -0.006071000000000001
v -1.441385 0.06272600000000005 0.792547
v -1.377767 0.025996000000000047 0.792547
v -1.46046 0.106738 -0.006071000000000007
v -1.396842 0.070008 -0.006071000000000004
v -1.410777 0.11574100000000004 0.792547
v -1.347159 0.07901100000000004 0.792546
v -1.02546 -0.597318 3.657517883865494E-17
v -0.984912 -0.827275 5.065598403823133E-17
v -0.944365 -1.057233 6.47368504701477E-17
v -0.903817 -1.287191 7.881771690206404E-17
v -1.249522 -0.636826 3.899434612569062E-17
v -1.208974 -0.866783 0.14187900000000006
v -1.168426 -1.096741 0.10937100000000007
v -1.127878 -1.326699 8.123688418909972E-17
v -1.473583 -0.676334 4.14135134127263E-17
v -1.422308 -0.907719 0.11690100000000006
v -1.392488 -1.13625 0.07557700000000007
v -1.35194 -1.366207 8.365605147613539E-17
v -1.697645 -0.715842 4.383268069976198E-17
v -1.657097 -0.9458 5.791354713167833E-17
v -1.616549 -1.175758 7.199441356359469E-17
v -1.576002 -1.405716 8.607527999551103E-17
v 1.087579 -0.787174 0.006125000000000049
v 1.025149 -0.768878 0.803028
v 0.802428 0.595414 0.006124999999999964
v 0.781239 0.568815 0.832447
v 1.087579 -0.787174 0.006125000000000049
v 1.025149 -0.768878 0.803028
v 0.802428 0.595414 0.006124999999999964
v 0.781239 0.568815 0.832447
v 0.068599 0.296651 -0.004932000000000018
v 0.091284 0.302729 0.372539
v 0.789491 0.489813 0.38334199999999996
v 0.803022 0.493439 -0.00493200000000003
v 0.047453 0.37557 -0.004932000000000023
v 0.781876 0.572358 -0.0049320000000000344
v 0.768344 0.568732 0.38334199999999996
v 0.070137 0.381648 0.366405
v 0.42529 0.432974 0.382615
v 0.425705 0.433138 -0.004932000000000027
v 0.398867 0.510211 -0.004931000000000031
v 0.398452 0.510047 0.38151799999999997
v 1.337608 -0.11337 -0.004931999999999993
v 1.274678 -1.118371 -0.004931999999999931
v 1.334359 -0.16054099999999996 0.270854
v 1.274678 -1.118371 0.35419800000000007
v 1.41807 -0.127558 -0.004931999999999992
v 1.355139 -1.132558 -0.00493199999999993
v 1.414821 -0.17472799999999997 0.270854
v 1.335105 -1.12321 0.35419800000000007
v 1.242823 -1.254949 -0.0049319999999999226
v 1.242823 -1.254949 0.3368030000000001
v 1.30975 -1.301812 -0.00493199999999992
v 1.30975 -1.301812 0.3368030000000001
v 1.145914 -1.325676 -0.004931999999999918
v 1.145914 -1.325676 0.35419800000000007
v 1.192777 -1.392603 -0.004931999999999915
v 1.192777 -1.392603 0.3541980000000001
v 0.971347 -1.343535 -0.004931999999999917
v 0.971347 -1.343535 0.28858500000000004
v 0.985534 -1.423996 -0.004931999999999912
v 0.985535 -1.423997 0.2885850000000001
v 0.631434 -1.37377 -0.004931999999999916
v 0.709788 -1.37377 0.23023600000000008
v 0.624313 -1.455162 -0.00493199999999991
v 0.702667 -1.455163 0.23023600000000008
v 0.465697 -0.06764199999999998 0.258773
v 0.196657 -0.18587899999999996 0.498323
v 0.68504 -0.75524 0.17770700000000006
v 0.41617 -0.87401 0.41719400000000006
v 0.465697 -0.06764199999999998 0.258773
v 0.196657 -0.18587899999999996 0.498323
v 0.68504 -0.75524 0.17770700000000006
v 0.41617 -0.87401 0.41719400000000006
v 0.541189 -0.224351 -0.006070999999999986
v 0.603533 -0.218897 -0.006070999999999987
v 0.541189 -0.22435099999999994 0.838201
v 0.603533 -0.21889699999999995 0.838201
v 0.536644 -0.172398 -0.00607099999999999
v 0.598988 -0.166944 -0.00607099999999999
v 0.536644 -0.17239799999999994 0.838201
v 0.598988 -0.16694399999999995 0.838201
v 0.209497 -0.056793 0.00026000000000000345
v 0.220506 -0.09815899999999997 0.487742
v 0.871954 0.060017 0.0002599999999999963
v 0.883475 0.018741000000000032 0.487742
v 0.209497 -0.056793 0.00026000000000000345
v 0.220506 -0.09815899999999997 0.487742
v 0.871954 0.060017 0.0002599999999999963
v 0.883475 0.018741000000000032 0.487742
v -0.744609 1.182191 0.010330999999999927
v -0.692961 1.14188 0.42466699999999996
v -1.102863 0.670551 0.010330999999999958
v -1.051492 0.629844 0.47581399999999996
v -0.627416 1.100132 0.010330999999999932
v -0.692961 1.14188 0.42466699999999996
v -0.98567 0.588492 0.010330999999999963
v -1.051492 0.629844 0.47581399999999996
v -0.891384 0.896996 0.010330999999999944
v -0.835916 0.862139 0.39536999999999994
v -0.7701 0.820779 0.01033099999999995
v -0.835916 0.862139 0.39536999999999994
v -0.95927 0.470851 0.06347799999999998
v -0.948262 0.42948500000000006 0.55096
v -0.296813 0.58766 0.06347799999999997
v -0.285292 0.546384 0.55096
v -0.95927 0.470851 0.06347799999999998
v -0.948262 0.42948500000000006 0.55096
v -0.296813 0.58766 0.06347799999999997
v -0.285292 0.546384 0.55096
v -0.693076 1.07815 -0.007393000000000066
v -0.650942 1.138324 -0.00739300000000007
v -0.621131 1.027773 0.7284299999999999
v -0.578996 1.087948 0.7284299999999999
v -0.743031 1.113128 -0.002058000000000068
v -0.700896 1.173303 -0.002058000000000072
v -0.671086 1.062752 0.7337649999999999
v -0.628951 1.122926 0.7337649999999999
v -1.289325 -1.068048 1.000000000065399E-06
v -1.249817 -0.843986 1.0000000000516791E-06
v -1.019859 -0.884533 1.000000000054162E-06
v -1.059367 -1.108595 0.14187900000000006
v -0.789901 -0.925082 5.664493551244158E-17
v -0.829409 -1.149143 0.10937100000000007
v -0.559943 -0.965629 5.912772320069297E-17
v -0.599451 -1.189691 7.28475637562207E-17
v -1.328833 -1.292109 7.911885754997436E-17
v -1.093865 -1.323064 0.11690100000000009
v -0.868917 -1.373205 0.07557700000000009
v -0.638959 -1.413752 1.0000000000865674E-06
v -1.368342 -1.516171 1.0000000000928386E-06
v -1.138383 -1.556718 1.0000000000953214E-06
v -0.908426 -1.597266 1.0000000000978043E-06
v -0.678467 -1.637814 1.0028718363493617E-16
v -1.548337 1.155156 -7.0732904895793E-17
v -1.694099 1.328868 -8.136969713446724E-17
v -1.515815 1.478465 -9.052987149506957E-17
v -1.370053 1.304753 0.13366599999999992
v -1.337532 1.628063 -9.969010708801186E-17
v -1.19177 1.454351 0.10303899999999992
v -1.159248 1.777661 -1.0885034268095415E-16
v -1.013487 1.603948 -9.821348920993994E-17
v -1.402575 0.981444 -6.009611265711875E-17
v -1.228406 1.141012 0.11013299999999993
v -1.046008 1.280639 0.07120199999999992
v -0.867725 1.430236 -8.75766969712657E-17
v -1.256813 0.807732 -4.9459320418444494E-17
v -1.07853 0.957329 -5.861949477904682E-17
v -0.900247 1.106927 -6.777973037198911E-17
v -0.721963 1.256524 -7.693990473259144E-17
v 0.76013 1.234624 -7.559891648752509E-17
v 0.614368 1.408336 -8.623570872619934E-17
v 0.792652 1.557933 -9.539588308680167E-17
v 0.938414 1.384221 0.13366599999999992
v 0.970935 1.707531 -1.0455611867974395E-16
v 1.116697 1.533818 0.10303899999999991
v 1.149218 1.857128 -1.1371629304034628E-16
v 1.29498 1.683416 -1.0307950080167204E-16
v 0.905892 1.060911 -6.496206301651088E-17
v 1.080061 1.22048 0.11013399999999993
v 1.262458 1.360107 0.07120199999999992
v 1.440742 1.509704 -9.244270856299778E-17
v 1.051653 0.8872 -5.432533201017659E-17
v 1.229937 1.036797 -6.348550637077891E-17
v 1.40822 1.186394 -7.264568073138124E-17
v 1.586503 1.335992 -8.180591632432354E-17
v 1.127182 -0.272069 1.0000000000166594E-06
v 0.887964 -0.557157 1.000000000034116E-06
v 0.548621 -0.194609 0.02756300000000001
v 0.783819 0.07746900000000001 0.126642
v 0.176992 0.109964 0.021816999999999993
v 0.354174 0.414845 0.23068199999999997
v -0.349183 0.30188 0.01330699999999998
v -0.163105 0.624176 0.14242799999999997
v -0.822645 0.575233 -0.0023280000000000353
v -0.636567 0.89753 0.0037919999999999447
v 1.366399 0.013019 0.0015769999999999992
v 0.969898 0.399766 0.21534699999999998
v 0.527178 0.732574 0.32781999999999994
v 0.022973 0.946473 0.13058999999999996
v -0.450489 1.219827 -0.0027930000000000745
v 1.605616 0.298107 0.004860999999999982
v 1.155975 0.722062 0.21060999999999994
v 0.751778 1.088406 0.23637799999999995
v 0.209051 1.26877 0.17545399999999992
v -0.264411 1.542123 0.006094999999999905
v 1.844834 0.583195 -0.0033240000000000357
v 1.503673 1.026067 0.0037589999999999373
v 1.007681 1.400776 0.011241999999999915
v 0.395129 1.591066 -0.008040000000000097
v -0.078333 1.86442 -0.004314000000000115
v 0.086811 1.446327 -0.004932000000000088
v 0.020954 1.445946 0.2770799999999999
v -1.166811 1.44883 0.32590799999999986
v -1.183504 1.448829 -0.004932000000000088
v 0.086811 1.364624 -0.004932000000000083
v -1.183504 1.367126 -0.004932000000000084
v -1.166811 1.367126 0.32590799999999986
v 0.020954 1.364242 0.2709459999999999
v -0.566384 1.451278 0.3251809999999999
v -0.566913 1.451228 -0.004933000000000088
v -0.559793 1.369835 -0.004932000000000084
v -0.559264 1.369886 0.32408399999999987
v 1.32689 1.446327 -0.004932000000000088
v 1.261033 1.445946 0.2770799999999999
v 0.884202 1.44883 0.39639999999999986
v 0.767606 1.448829 -0.004932000000000088
v 1.32689 1.364624 -0.004932000000000083
v 0.767605 1.367126 -0.004932000000000084
v 0.884202 1.367126 0.39639999999999986
v 1.261033 1.364242 0.2709459999999999
v 1.052149 1.451278 0.3376319999999999
v 1.05162 1.451227 -0.004933000000000088
v 1.05874 1.369835 -0.004932000000000084
v 1.059269 1.369886 0.33653499999999986
v 0.483123 0.38465000000000005 0.637502
v 1.009788 -0.737656 0.772351
v 0.639251 -0.811187 0.664113
v 0.784177 0.541847 0.772351
v -0.378637 -0.301975 -0.16661399999999998
v -0.660967 -0.10428499999999996 0.780337
v -0.625855 -0.05413899999999995 0.780337
v -0.343525 -0.251829 -0.16661399999999998
v -0.660967 -0.10428499999999996 0.780337
v -0.717513 -0.06469099999999996 0.755212
v -0.6824 -0.014544999999999954 0.755212
v -0.625855 -0.05413899999999995 0.780337
v -0.717513 -0.06469099999999996 0.755212
v -0.435182 -0.262381 -0.19173899999999997
v -0.40007 -0.212235 -0.191739
v -0.6824 -0.014544999999999954 0.755212
v 0.31027 0.3086940000000001 1.121699
v 0.31027 0.308694 0.19287099999999996
v 0.337846 0.32461500000000004 1.121699
v 0.31027 0.3086940000000001 1.121699
v 0.31027 0.34053600000000006 1.121699
v 0.903543 1.141397 0.7647659999999998
v 0.771219 1.009572 -0.009033000000000062
v 0.931119 1.157318 0.7647659999999998
v 0.903543 1.141397 0.7647659999999998
v 0.903543 1.173239 0.7647659999999998
v 0.371791 0.36967000000000005 0.47413
v 0.589972 1.004343 -0.028215000000000063
v 0.351209 0.38186400000000004 0.495145
v 0.371791 0.36967000000000005 0.47413
v 0.340587 0.36950600000000006 0.467788
v -1.302355 1.267564 0.5790969999999999
v -1.416441 1.334905 -0.009033000000000081
v -1.274779 1.283485 0.5790969999999999
v -1.302355 1.267564 0.5790969999999999
v -1.302355 1.299406 0.5790969999999999
v 0.263452 0.07950700000000005 0.826899
v 0.263452 0.07950700000000001 0.192871
v 0.291028 0.09542800000000005 0.826899
v 0.263452 0.07950700000000005 0.826899
v 0.263452 0.11134900000000006 0.826899
v 0.270316 -0.538216 0.578537
v 0.314838 -0.164276 0.10365400000000001
v 0.19464 -0.55613 0.10365400000000002
v 0.375833 -0.886989 0.51799
v 0.300062 -0.90436 0.10365400000000005
v 0.375833 -0.886989 0.51799
v 0.314838 -0.164276 0.10365400000000001
v 0.440955 -0.879517 0.10365400000000005
v 0.270316 -0.538216 0.578537
v 0.270316 -0.538216 0.578537
v 0.334093 -0.523119 0.10365400000000002
v 0.440955 -0.879517 0.10365400000000005
v 0.173946 -0.189119 0.10365400000000001
v 0.249619 -0.17119499999999999 0.655685
v 0.270316 -0.538216 0.578537
v 0.270316 -0.538216 0.578537
v 0.19464 -0.55613 0.10365400000000002
v 0.173946 -0.189119 0.10365400000000001
v 0.374023 -0.885754 0.811967
v 1.081563 -0.818215 0.008722000000000051
v 1.010984 -0.765047 0.811967
v 0.303444 -0.933324 0.008722000000000058
v -1.026072 0.552379 0.752131
v -1.156332 0.420877 -0.03173800000000003
v -0.998496 0.5683 0.752131
v -1.026072 0.552379 0.752131
v -1.026072 0.584221 0.752131
v -1.078226 0.532054 0.672725
v -1.00292 0.65397 -0.031738000000000044
v -1.05065 0.547975 0.672725
v -1.078226 0.532054 0.672725
v -1.078226 0.563896 0.672725
v -0.179479 0.691276 0.802429
v -0.644441 1.092708 0.7097909999999998
v -0.167212 0.698938 0.774061
v -0.179479 0.691276 0.802429
v -0.158459 0.715078 0.800076
v -0.645947 1.101253 0.7845529999999998
v -0.13098 0.681856 -0.03582600000000004
v -0.189687 0.722963 0.784553
v -0.704654 1.14236 -0.035826000000000066
v -0.903552 -0.31119199999999997 0.802525
v -0.137495 0.746095 0.13373399999999994
v -0.18842 0.698997 0.802525
v -0.88801 -0.379531 0.15383000000000002
v -1.279497 0.350272 0.39537
v -0.9836 0.583206 0.010330999999999963
v -1.345675 0.391116 0.010330999999999976
v -1.451505 0.029041000000000025 0.424667
v -1.517367 0.070336 0.010330999999999996
v -1.451505 0.029041000000000025 0.424667
v -0.9836 0.583206 0.010330999999999963
v -1.400174 -0.011724 0.010331
v -1.279497 0.350272 0.39537
v -1.279497 0.350272 0.39537
v -1.223724 0.31585 0.01033099999999998
v -1.400174 -0.011724 0.010331
v -1.100792 0.665265 0.01033099999999996
v -1.034609 0.62443 0.47581399999999996
v -1.279497 0.350272 0.39537
v -1.279497 0.350272 0.39537
v -1.345675 0.391116 0.010330999999999976
v -1.100792 0.665265 0.01033099999999996
v -1.42745 0.016993 -0.006071000000000001
v -1.377767 0.025996000000000047 0.792547
v -1.347159 0.07901100000000004 0.792546
v -1.396842 0.070008 -0.006071000000000004
v -1.377767 0.025996000000000047 0.792547
v -1.441385 0.06272600000000005 0.792547
v -1.410777 0.11574100000000004 0.792547
v -1.347159 0.07901100000000004 0.792546
v -1.441385 0.06272600000000005 0.792547
v -1.491068 0.053723 -0.0060710000000000035
v -1.46046 0.106738 -0.006071000000000007
v -1.410777 0.11574100000000004 0.792547
v 1.025149 -0.768878 0.803028
v 0.802428 0.595414 0.006124999999999964
v 0.781239 0.568815 0.832447
v 1.087579 -0.787174 0.006125000000000049
v 0.42529 0.432974 0.382615
v 0.398452 0.510047 0.38151799999999997
v 0.789491 0.489813 0.38334199999999996
v 0.768344 0.568732 0.38334199999999996
v 0.091284 0.302729 0.372539
v 0.070137 0.381648 0.366405
v 0.047453 0.37557 -0.004932000000000023
v 0.070137 0.381648 0.366405
v 0.091284 0.302729 0.372539
v 0.091284 0.302729 0.372539
v 0.068599 0.296651 -0.004932000000000018
v 0.047453 0.37557 -0.004932000000000023
v 0.789491 0.489813 0.38334199999999996
v 0.768344 0.568732 0.38334199999999996
v 0.781876 0.572358 -0.0049320000000000344
v 0.803022 0.493439 -0.00493200000000003
v 1.274678 -1.118371 0.35419800000000007
v 1.334359 -0.16054099999999996 0.270854
v 1.414821 -0.17472799999999997 0.270854
v 1.335105 -1.12321 0.35419800000000007
v 1.334359 -0.16054099999999996 0.270854
v 1.337608 -0.11337 -0.004931999999999993
v 1.41807 -0.127558 -0.004931999999999992
v 1.414821 -0.17472799999999997 0.270854
v 1.274678 -1.118371 -0.004931999999999931
v 1.274678 -1.118371 0.35419800000000007
v 1.335105 -1.12321 0.35419800000000007
v 1.355139 -1.132558 -0.00493199999999993
v 1.30975 -1.301812 -0.00493199999999992
v 1.335105 -1.12321 0.35419800000000007
v 1.274678 -1.118371 0.35419800000000007
v 1.335105 -1.12321 0.35419800000000007
v 1.30975 -1.301812 0.3368030000000001
v 1.30975 -1.301812 0.3368030000000001
v 1.242823 -1.254949 0.3368030000000001
v 1.274678 -1.118371 0.35419800000000007
v 1.242823 -1.254949 -0.0049319999999999226
v 1.242823 -1.254949 0.3368030000000001
v 1.30975 -1.301812 0.3368030000000001
v 1.30975 -1.301812 -0.00493199999999992
v 1.242823 -1.254949 0.3368030000000001
v 1.30975 -1.301812 0.3368030000000001
v 1.192777 -1.392603 0.3541980000000001
v 1.192777 -1.392603 0.3541980000000001
v 1.145914 -1.325676 0.35419800000000007
v 1.242823 -1.254949 0.3368030000000001
v 1.145914 -1.325676 -0.004931999999999918
v 1.145914 -1.325676 0.35419800000000007
v 1.192777 -1.392603 0.3541980000000001
v 1.192777 -1.392603 -0.004931999999999915
v 1.145914 -1.325676 0.35419800000000007
v 1.192777 -1.392603 0.3541980000000001
v 0.985535 -1.423997 0.2885850000000001
v 0.985535 -1.423997 0.2885850000000001
v 0.971347 -1.343535 0.28858500000000004
v 1.145914 -1.325676 0.35419800000000007
v 0.971347 -1.343535 -0.004931999999999917
v 0.971347 -1.343535 0.28858500000000004
v 0.709788 -1.37377 0.23023600000000008
v 0.971347 -1.343535 -0.004931999999999917
v 0.985535 -1.423997 0.2885850000000001
v 0.985534 -1.423996 -0.004931999999999912
v 0.624313 -1.455162 -0.00493199999999991
v 0.985535 -1.423997 0.2885850000000001
v 0.971347 -1.343535 0.28858500000000004
v 0.985535 -1.423997 0.2885850000000001
v 0.702667 -1.455163 0.23023600000000008
v 0.702667 -1.455163 0.23023600000000008
v 0.709788 -1.37377 0.23023600000000008
v 0.971347 -1.343535 0.28858500000000004
v 0.631434 -1.37377 -0.004931999999999916
v 0.709788 -1.37377 0.23023600000000008
v 0.702667 -1.455163 0.23023600000000008
v 0.624313 -1.455162 -0.00493199999999991
v 0.603533 -0.218897 -0.006070999999999987
v 0.603533 -0.21889699999999995 0.838201
v 0.598988 -0.16694399999999995 0.838201
v 0.598988 -0.166944 -0.00607099999999999
v 0.603533 -0.21889699999999995 0.838201
v 0.541189 -0.22435099999999994 0.838201
v 0.536644 -0.17239799999999994 0.838201
v 0.598988 -0.16694399999999995 0.838201
v 0.541189 -0.22435099999999994 0.838201
v 0.541189 -0.224351 -0.006070999999999986
v 0.536644 -0.172398 -0.00607099999999999
v 0.536644 -0.17239799999999994 0.838201
v -0.835916 0.862139 0.39536999999999994
v -1.102863 0.670551 0.010330999999999958
v -0.7701 0.820779 0.01033099999999995
v -0.692961 1.14188 0.42466699999999996
v -0.627416 1.100132 0.010330999999999932
v -0.692961 1.14188 0.42466699999999996
v -1.102863 0.670551 0.010330999999999958
v -0.744609 1.182191 0.010330999999999927
v -0.835916 0.862139 0.39536999999999994
v -0.835916 0.862139 0.39536999999999994
v -0.891384 0.896996 0.010330999999999944
v -0.744609 1.182191 0.010330999999999927
v -0.98567 0.588492 0.010330999999999963
v -1.051492 0.629844 0.47581399999999996
v -0.835916 0.862139 0.39536999999999994
v -0.835916 0.862139 0.39536999999999994
v -0.7701 0.820779 0.01033099999999995
v -0.98567 0.588492 0.010330999999999963
v -0.650942 1.138324 -0.00739300000000007
v -0.578996 1.087948 0.7284299999999999
v -0.628951 1.122926 0.7337649999999999
v -0.700896 1.173303 -0.002058000000000072
v -0.578996 1.087948 0.7284299999999999
v -0.621131 1.027773 0.7284299999999999
v -0.671086 1.062752 0.7337649999999999
v -0.628951 1.122926 0.7337649999999999
v -0.621131 1.027773 0.7284299999999999
v -0.693076 1.07815 -0.007393000000000066
v -0.743031 1.113128 -0.002058000000000068
v -0.671086 1.062752 0.7337649999999999
v -0.566384 1.451278 0.3251809999999999
v -0.559264 1.369886 0.32408399999999987
v -1.166811 1.44883 0.32590799999999986
v -1.166811 1.367126 0.32590799999999986
v 0.020954 1.445946 0.2770799999999999
v 0.020954 1.364242 0.2709459999999999
v 0.086811 1.364624 -0.004932000000000083
v 0.020954 1.364242 0.2709459999999999
v 0.020954 1.445946 0.2770799999999999
v 0.020954 1.445946 0.2770799999999999
v 0.086811 1.446327 -0.004932000000000088
v 0.086811 1.364624 -0.004932000000000083
v -1.166811 1.44883 0.32590799999999986
v -1.166811 1.367126 0.32590799999999986
v -1.183504 1.367126 -0.004932000000000084
v -1.183504 1.448829 -0.004932000000000088
v 1.052149 1.451278 0.3376319999999999
v 1.059269 1.369886 0.33653499999999986
v 0.884202 1.44883 0.39639999999999986
v 0.884202 1.367126 0.39639999999999986
v 1.261033 1.445946 0.2770799999999999
v 1.261033 1.364242 0.2709459999999999
v 1.32689 1.364624 -0.004932000000000083
v 1.261033 1.364242 0.2709459999999999
v 1.261033 1.445946 0.2770799999999999
v 1.261033 1.445946 0.2770799999999999
v 1.32689 1.446327 -0.004932000000000088
v 1.32689 1.364624 -0.004932000000000083
v 0.884202 1.44883 0.39639999999999986
v 0.884202 1.367126 0.39639999999999986
v 0.767605 1.367126 -0.004932000000000084
v 0.767606 1.448829 -0.004932000000000088
v 0.337846 0.32461500000000004 1.121699
v 0.31027 0.34053600000000006 1.121699
v 0.31027 0.340536 0.19287099999999996
v 0.31027 0.340536 0.19287099999999996
v 0.337846 0.324615 0.19287099999999996
v 0.337846 0.32461500000000004 1.121699
v 0.931119 1.157318 0.7647659999999998
v 0.903543 1.173239 0.7647659999999998
v 0.771219 1.041414 -0.009033000000000064
v 0.771219 1.041414 -0.009033000000000064
v 0.798795 1.025493 -0.009033000000000062
v 0.931119 1.157318 0.7647659999999998
v 0.351209 0.38186400000000004 0.495145
v 0.340587 0.36950600000000006 0.467788
v 0.558769 1.004179 -0.03455700000000006
v 0.558769 1.004179 -0.03455700000000006
v 0.569391 1.016536 -0.007200000000000062
v 0.351209 0.38186400000000004 0.495145
v -1.274779 1.283485 0.5790969999999999
v -1.302355 1.299406 0.5790969999999999
v -1.416441 1.366747 -0.009033000000000083
v -1.416441 1.366747 -0.009033000000000083
v -1.388865 1.350826 -0.009033000000000083
v -1.274779 1.283485 0.5790969999999999
v 0.291028 0.09542800000000005 0.826899
v 0.263452 0.11134900000000006 0.826899
v 0.263452 0.11134900000000002 0.192871
v 0.263452 0.11134900000000002 0.192871
v 0.291028 0.09542800000000001 0.192871
v 0.291028 0.09542800000000005 0.826899
v -0.998496 0.5683 0.752131
v -1.026072 0.584221 0.752131
v -1.156332 0.452719 -0.03173800000000003
v -1.156332 0.452719 -0.03173800000000003
v -1.128756 0.436798 -0.03173800000000003
v -0.998496 0.5683 0.752131
v -1.05065 0.547975 0.672725
v -1.078226 0.563896 0.672725
v -1.00292 0.685812 -0.031738000000000044
v -1.00292 0.685812 -0.031738000000000044
v -0.975344 0.669891 -0.031738000000000044
v -1.05065 0.547975 0.672725
v -0.167212 0.698938 0.774061
v -0.158459 0.715078 0.800076
v -0.623422 1.116511 0.7074379999999999
v -0.623422 1.116511 0.7074379999999999
v -0.632174 1.10037 0.6814229999999999
v -0.167212 0.698938 0.774061
vt 0.867648 0.276530
vt 0.999500 0.275071
vt 0.867648 0.008243
vt 0.999501 0.006576
vt 0.867648 0.276530
vt 0.999500 0.275071
vt 0.867648 0.008243
vt 0.999501 0.006576
vt 0.466667 0.990278
vt 0.597569 0.990278
vt 0.728472 0.990278
vt 0.859375 0.990278
vt 0.990278 0.990278
vt 0.466667 0.900000
vt 0.597569 0.900000
vt 0.728472 0.900000
vt 0.859375 0.900000
vt 0.990278 0.900000
vt 0.466667 0.809722
vt 0.597569 0.809722
vt 0.728472 0.809722
vt 0.859375 0.809722
vt 0.990278 0.809722
vt 0.466667 0.719444
vt 0.597569 0.719444
vt 0.728472 0.719444
vt 0.859375 0.719444
vt 0.990278 0.719444
vt 0.466667 0.629167
vt 0.597569 0.629167
vt 0.728472 0.629167
vt 0.859375 0.629167
vt 0.990278 0.629167
vt 0.867629 0.170473
vt 0.997695 0.171148
vt 0.866259 0.012924
vt 0.997695 0.014469
vt 0.867629 0.170473
vt 0.997695 0.171148
vt 0.866259 0.012924
vt 0.997695 0.014469
vt 0.004666 0.589389
vt 0.453667 0.589389
vt 0.004666 0.805056
vt 0.453667 0.805056
vt 0.229167 0.589389
vt 0.229167 0.805056
vt 0.461609 0.575930
vt 0.461609 0.598866
vt 0.697780 0.575930
vt 0.697780 0.598866
vt 0.462056 0.598905
vt 0.462056 0.576045
vt 0.699687 0.598905
vt 0.699687 0.576045
vt 0.465278 0.607287
vt 0.465278 0.622222
vt 0.465278 0.592352
vt 0.697047 0.607287
vt 0.697047 0.622222
vt 0.697047 0.592352
vt 0.465278 0.607287
vt 0.465278 0.622222
vt 0.465278 0.592352
vt 0.697047 0.607287
vt 0.697047 0.622222
vt 0.697047 0.592352
vt 0.465278 0.607287
vt 0.465278 0.622222
vt 0.697047 0.622222
vt 0.697047 0.607287
vt 0.465278 0.592352
vt 0.697047 0.592352
vt 0.465278 0.607287
vt 0.465278 0.622222
vt 0.697047 0.622222
vt 0.697047 0.607287
vt 0.465278 0.592352
vt 0.697047 0.592352
vt 0.465278 0.607287
vt 0.465278 0.622222
vt 0.465278 0.592352
vt 0.697047 0.607287
vt 0.697047 0.622222
vt 0.697047 0.592352
vt 0.006944 0.813889
vt 0.006944 0.899397
vt 0.055872 0.903078
vt 0.062036 0.813889
vt 0.119444 0.995833
vt 0.187480 0.995833
vt 0.165351 0.901906
vt 0.119444 0.904861
vt 0.231944 0.995833
vt 0.231944 0.904322
vt 0.049461 0.995833
vt 0.006944 0.995833
vt 0.144614 0.813889
vt 0.119444 0.813889
vt 0.231944 0.813889
vt 0.992534 0.622486
vt 0.993034 0.436041
vt 0.715365 0.624421
vt 0.718076 0.436041
vt 0.991848 0.622457
vt 0.993034 0.436041
vt 0.715210 0.624010
vt 0.717475 0.436662
vt 0.851169 0.623456
vt 0.856168 0.436041
vt 0.854326 0.623434
vt 0.856168 0.436041
vt 0.681506 0.337323
vt 0.655296 0.000500
vt 0.320365 0.337323
vt 0.346575 0.000499
vt 0.681506 0.337323
vt 0.655296 0.000500
vt 0.320365 0.337323
vt 0.346575 0.000499
vt 0.006944 0.813889
vt 0.006944 0.899397
vt 0.055872 0.903078
vt 0.062036 0.813889
vt 0.119444 0.995833
vt 0.187480 0.995833
vt 0.165351 0.901906
vt 0.119444 0.904861
vt 0.231944 0.995833
vt 0.231944 0.904322
vt 0.049461 0.995833
vt 0.006944 0.995833
vt 0.144614 0.813889
vt 0.119444 0.813889
vt 0.231944 0.813889
vt 0.771333 0.434223
vt 0.828407 0.434223
vt 0.885482 0.434223
vt 0.942556 0.434223
vt 0.771333 0.388722
vt 0.828407 0.388722
vt 0.885482 0.388722
vt 0.942556 0.388722
vt 0.771333 0.343222
vt 0.828407 0.343222
vt 0.885482 0.343222
vt 0.942556 0.343222
vt 0.771333 0.297722
vt 0.828407 0.297722
vt 0.885482 0.297722
vt 0.942556 0.297722
vt 0.465278 0.607287
vt 0.465278 0.622222
vt 0.465278 0.592352
vt 0.697047 0.607287
vt 0.697047 0.622222
vt 0.697047 0.592352
vt 0.465278 0.607287
vt 0.465278 0.622222
vt 0.697047 0.622222
vt 0.697047 0.607287
vt 0.465278 0.592352
vt 0.697047 0.592352
vt 0.465278 0.607287
vt 0.465278 0.622222
vt 0.465278 0.592352
vt 0.697047 0.607287
vt 0.697047 0.622222
vt 0.697047 0.592352
vt 0.681506 0.337323
vt 0.655296 0.000500
vt 0.320365 0.337323
vt 0.346575 0.000499
vt 0.681506 0.337323
vt 0.655296 0.000500
vt 0.320365 0.337323
vt 0.346575 0.000499
vt 0.674024 0.339194
vt 0.675080 0.000500
vt 0.000500 0.339194
vt -0.000557 0.000499
vt 0.674024 0.339194
vt 0.675080 0.000500
vt 0.000500 0.339194
vt -0.000557 0.000499
vt 0.992534 0.622486
vt 0.993034 0.436041
vt 0.715365 0.624421
vt 0.718076 0.436041
vt 0.991848 0.622457
vt 0.993034 0.436041
vt 0.715210 0.624010
vt 0.717475 0.436662
vt 0.851169 0.623456
vt 0.856168 0.436041
vt 0.854326 0.623434
vt 0.856168 0.436041
vt 0.461609 0.575930
vt 0.461609 0.598866
vt 0.697780 0.575930
vt 0.697780 0.598866
vt 0.462056 0.598905
vt 0.462056 0.576045
vt 0.699687 0.598905
vt 0.699687 0.576045
vt 0.771333 0.434223
vt 0.828407 0.434223
vt 0.885482 0.434223
vt 0.942556 0.434223
vt 0.771333 0.388722
vt 0.828407 0.388722
vt 0.885482 0.388722
vt 0.942556 0.388722
vt 0.771333 0.343222
vt 0.828407 0.343222
vt 0.885482 0.343222
vt 0.942556 0.343222
vt 0.771333 0.297722
vt 0.828407 0.297722
vt 0.885482 0.297722
vt 0.942556 0.297722
vt 0.445233 0.580860
vt 0.445913 0.368555
vt 0.011235 0.580860
vt 0.010554 0.368555
vt 0.445233 0.580860
vt 0.445913 0.368555
vt 0.011235 0.580860
vt 0.010554 0.368555
vt 0.403102 0.585185
vt 0.391995 0.490535
vt 0.050129 0.487340
vt 0.043503 0.585185
vt 0.399530 0.369513
vt 0.043587 0.369513
vt 0.050145 0.465636
vt 0.388536 0.460715
vt 0.223466 0.487554
vt 0.223256 0.585185
vt 0.224310 0.369513
vt 0.224518 0.465106
vt 0.275726 0.103496
vt 0.487900 0.103496
vt 0.280236 0.198336
vt 0.487900 0.204071
vt 0.276152 0.330013
vt 0.469953 0.330013
vt 0.280272 0.236877
vt 0.469953 0.231246
vt 0.522728 0.103496
vt 0.522728 0.199199
vt 0.510657 0.330013
vt 0.510657 0.236030
vt 0.554984 0.103496
vt 0.554984 0.204071
vt 0.547924 0.330013
vt 0.547924 0.231246
vt 0.592974 0.103496
vt 0.592974 0.185810
vt 0.591696 0.330014
vt 0.592974 0.249478
vt 0.631192 0.103496
vt 0.631192 0.185320
vt 0.630771 0.330014
vt 0.630771 0.249660
vt 0.867629 0.170473
vt 0.997695 0.171148
vt 0.866259 0.012924
vt 0.997695 0.014469
vt 0.867629 0.170473
vt 0.997695 0.171148
vt 0.866259 0.012924
vt 0.997695 0.014469
vt 0.698977 0.600930
vt 0.698977 0.623866
vt 0.462806 0.600930
vt 0.462806 0.623866
vt 0.698529 0.623905
vt 0.698529 0.601045
vt 0.460899 0.623905
vt 0.460899 0.601045
vt 0.867629 0.170473
vt 0.997695 0.171148
vt 0.866259 0.012924
vt 0.997695 0.014469
vt 0.867629 0.170473
vt 0.997695 0.171148
vt 0.866259 0.012924
vt 0.997695 0.014469
vt 0.992534 0.622486
vt 0.993034 0.436041
vt 0.715365 0.624421
vt 0.718076 0.436041
vt 0.991848 0.622457
vt 0.993034 0.436041
vt 0.715210 0.624010
vt 0.717475 0.436662
vt 0.851169 0.623456
vt 0.856168 0.436041
vt 0.854326 0.623434
vt 0.856168 0.436041
vt 0.867629 0.170473
vt 0.997695 0.171148
vt 0.866259 0.012924
vt 0.997695 0.014469
vt 0.867629 0.170473
vt 0.997695 0.171148
vt 0.866259 0.012924
vt 0.997695 0.014469
vt 0.461609 0.575930
vt 0.461609 0.598866
vt 0.697780 0.575930
vt 0.697780 0.598866
vt 0.462056 0.598905
vt 0.462056 0.576045
vt 0.699687 0.598905
vt 0.699687 0.576045
vt 0.771333 0.388722
vt 0.771333 0.434223
vt 0.828407 0.434223
vt 0.828407 0.388722
vt 0.885482 0.434223
vt 0.885482 0.388722
vt 0.942556 0.434223
vt 0.942556 0.388722
vt 0.771333 0.343222
vt 0.828407 0.343222
vt 0.885482 0.343222
vt 0.942556 0.343222
vt 0.771333 0.297722
vt 0.828407 0.297722
vt 0.885482 0.297722
vt 0.942556 0.297722
vt 0.771333 0.388722
vt 0.771333 0.434223
vt 0.828407 0.434223
vt 0.828407 0.388722
vt 0.885482 0.434223
vt 0.885482 0.388722
vt 0.942556 0.434223
vt 0.942556 0.388722
vt 0.771333 0.343222
vt 0.828407 0.343222
vt 0.885482 0.343222
vt 0.942556 0.343222
vt 0.771333 0.297722
vt 0.828407 0.297722
vt 0.885482 0.297722
vt 0.942556 0.297722
vt 0.771333 0.388722
vt 0.771333 0.434223
vt 0.828407 0.434223
vt 0.828407 0.388722
vt 0.885482 0.434223
vt 0.885482 0.388722
vt 0.942556 0.434223
vt 0.942556 0.388722
vt 0.771333 0.343222
vt 0.828407 0.343222
vt 0.885482 0.343222
vt 0.942556 0.343222
vt 0.771333 0.297722
vt 0.828407 0.297722
vt 0.885482 0.297722
vt 0.942556 0.297722
vt 0.466667 0.900000
vt 0.466667 0.990278
vt 0.597569 0.990278
vt 0.597569 0.900000
vt 0.728472 0.990278
vt 0.728472 0.900000
vt 0.859375 0.990278
vt 0.859375 0.900000
vt 0.990278 0.990278
vt 0.990278 0.900000
vt 0.466667 0.809722
vt 0.597569 0.809722
vt 0.728472 0.809722
vt 0.859375 0.809722
vt 0.990278 0.809722
vt 0.466667 0.719444
vt 0.597569 0.719444
vt 0.728472 0.719444
vt 0.859375 0.719444
vt 0.990278 0.719444
vt 0.466667 0.629167
vt 0.597569 0.629167
vt 0.728472 0.629167
vt 0.859375 0.629167
vt 0.990278 0.629167
vt 0.403102 0.585185
vt 0.391995 0.490535
vt 0.050129 0.487340
vt 0.043503 0.585185
vt 0.399530 0.369513
vt 0.043587 0.369513
vt 0.050145 0.465636
vt 0.388536 0.460715
vt 0.223466 0.487554
vt 0.223256 0.585185
vt 0.224310 0.369513
vt 0.224518 0.465106
vt 0.403102 0.585185
vt 0.391995 0.490535
vt 0.050129 0.487340
vt 0.043503 0.585185
vt 0.399530 0.369513
vt 0.043587 0.369513
vt 0.050145 0.465636
vt 0.388536 0.460715
vt 0.223466 0.487554
vt 0.223256 0.585185
vt 0.224310 0.369513
vt 0.224518 0.465106
vt 0.999500 0.275071
vt 0.867648 0.008243
vt 0.999501 0.006576
vt 0.867648 0.276530
vt 0.462076 0.598295
vt 0.699566 0.598295
vt 0.699566 0.575946
vt 0.462076 0.575946
vt 0.602149 0.596377
vt 0.623651 0.596377
vt 0.623651 0.577579
vt 0.602149 0.577579
vt 0.697722 0.575806
vt 0.461847 0.575806
vt 0.461847 0.598271
vt 0.697722 0.598271
vt 0.697047 0.577417
vt 0.465278 0.577417
vt 0.527816 0.578120
vt 0.516017 0.595421
vt 0.539615 0.595421
vt 0.697047 0.577417
vt 0.465278 0.577417
vt 0.527816 0.578120
vt 0.516017 0.595421
vt 0.539615 0.595421
vt 0.697047 0.577417
vt 0.465278 0.577417
vt 0.527816 0.578120
vt 0.516017 0.595421
vt 0.539615 0.595421
vt 0.697047 0.577417
vt 0.465278 0.577417
vt 0.527816 0.578120
vt 0.516017 0.595421
vt 0.539615 0.595421
vt 0.697047 0.577417
vt 0.465278 0.577417
vt 0.527816 0.578120
vt 0.516017 0.595421
vt 0.539615 0.595421
vt 0.856168 0.436041
vt 0.715365 0.624421
vt 0.854326 0.623434
vt 0.993034 0.436041
vt 0.899644 0.622486
vt 0.990414 0.431734
vt 0.808100 0.624010
vt 0.991848 0.622457
vt 0.856168 0.436041
vt 0.856168 0.436041
vt 0.851169 0.623456
vt 0.991848 0.622457
vt 0.715365 0.624421
vt 0.718076 0.436041
vt 0.856168 0.436041
vt 0.856168 0.436041
vt 0.854326 0.623434
vt 0.715365 0.624421
vt 0.655296 0.000500
vt 0.320365 0.337323
vt 0.346575 0.000499
vt 0.681506 0.337323
vt 0.697047 0.577417
vt 0.465278 0.577417
vt 0.527816 0.578120
vt 0.516017 0.595421
vt 0.539615 0.595421
vt 0.697047 0.577417
vt 0.465278 0.577417
vt 0.527816 0.578120
vt 0.516017 0.595421
vt 0.539615 0.595421
vt 0.697047 0.577417
vt 0.465278 0.577417
vt 0.527816 0.578120
vt 0.516017 0.595421
vt 0.539615 0.595421
vt 0.655296 0.000500
vt 0.320365 0.337323
vt 0.346575 0.000499
vt 0.681506 0.337323
vt 0.675080 0.000500
vt 0.000500 0.339194
vt -0.000557 0.000499
vt 0.674024 0.339194
vt 0.856168 0.436041
vt 0.715365 0.624421
vt 0.854326 0.623434
vt 0.993034 0.436041
vt 0.899644 0.622486
vt 0.990414 0.431734
vt 0.808100 0.624010
vt 0.991848 0.622457
vt 0.856168 0.436041
vt 0.856168 0.436041
vt 0.851169 0.623456
vt 0.991848 0.622457
vt 0.715365 0.624421
vt 0.718076 0.436041
vt 0.856168 0.436041
vt 0.856168 0.436041
vt 0.854326 0.623434
vt 0.715365 0.624421
vt 0.462076 0.598295
vt 0.699566 0.598295
vt 0.699566 0.575946
vt 0.462076 0.575946
vt 0.602149 0.596377
vt 0.623651 0.596377
vt 0.623651 0.577579
vt 0.602149 0.577579
vt 0.697722 0.575806
vt 0.461847 0.575806
vt 0.461847 0.598271
vt 0.697722 0.598271
vt 0.445913 0.368555
vt 0.011235 0.580860
vt 0.010554 0.368555
vt 0.445233 0.580860
vt 0.223466 0.487554
vt 0.224518 0.465106
vt 0.050129 0.487340
vt 0.050145 0.465636
vt 0.391995 0.490535
vt 0.388536 0.460715
vt 0.039717 0.527813
vt 0.039717 0.422183
vt 0.015910 0.420135
vt 0.015910 0.420135
vt 0.015910 0.527813
vt 0.039717 0.527813
vt 0.405991 0.525954
vt 0.435130 0.525954
vt 0.435130 0.416417
vt 0.405991 0.416417
vt 0.487900 0.204071
vt 0.280236 0.198450
vt 0.280272 0.236991
vt 0.469953 0.231246
vt 0.274576 0.098681
vt 0.416417 0.098681
vt 0.416417 0.066779
vt 0.274576 0.066779
vt 0.487900 0.103496
vt 0.487900 0.204071
vt 0.469953 0.231246
vt 0.469953 0.330013
vt 0.510657 0.330013
vt 0.469953 0.231246
vt 0.487900 0.204071
vt 0.469953 0.231246
vt 0.510657 0.236030
vt 0.510657 0.236030
vt 0.522728 0.199199
vt 0.487900 0.204071
vt 0.522728 0.103496
vt 0.522728 0.199199
vt 0.510657 0.236030
vt 0.510657 0.330013
vt 0.522728 0.199199
vt 0.510657 0.236030
vt 0.547924 0.231246
vt 0.547924 0.231246
vt 0.554984 0.204071
vt 0.522728 0.199199
vt 0.554984 0.103496
vt 0.554984 0.204071
vt 0.547924 0.231246
vt 0.547924 0.330013
vt 0.554984 0.204071
vt 0.547924 0.231246
vt 0.592974 0.249478
vt 0.592974 0.249478
vt 0.592974 0.185810
vt 0.554984 0.204071
vt 0.592974 0.103496
vt 0.592974 0.185810
vt 0.631192 0.185320
vt 0.592974 0.103496
vt 0.592974 0.249478
vt 0.591696 0.330014
vt 0.630771 0.330014
vt 0.592974 0.249478
vt 0.592974 0.185810
vt 0.592974 0.249478
vt 0.630771 0.249774
vt 0.630771 0.249774
vt 0.631192 0.185434
vt 0.592974 0.185810
vt 0.420199 0.098942
vt 0.584650 0.098942
vt 0.584650 0.067974
vt 0.420199 0.067974
vt 0.698510 0.623295
vt 0.461020 0.623295
vt 0.461020 0.600946
vt 0.698510 0.600946
vt 0.480090 0.621863
vt 0.501592 0.621863
vt 0.501592 0.603065
vt 0.480090 0.603065
vt 0.462864 0.600806
vt 0.698738 0.600806
vt 0.698738 0.623271
vt 0.462864 0.623271
vt 0.856168 0.436041
vt 0.715365 0.624421
vt 0.854326 0.623434
vt 0.993034 0.436041
vt 0.899644 0.622486
vt 0.990414 0.431734
vt 0.808100 0.624010
vt 0.991848 0.622457
vt 0.856168 0.436041
vt 0.856168 0.436041
vt 0.851169 0.623456
vt 0.991848 0.622457
vt 0.715365 0.624421
vt 0.718076 0.436041
vt 0.856168 0.436041
vt 0.856168 0.436041
vt 0.854326 0.623434
vt 0.715365 0.624421
vt 0.462076 0.598295
vt 0.699566 0.598295
vt 0.699566 0.575946
vt 0.462076 0.575946
vt 0.602149 0.596377
vt 0.623651 0.596377
vt 0.623651 0.577579
vt 0.602149 0.577579
vt 0.697722 0.575806
vt 0.461847 0.575806
vt 0.461847 0.598271
vt 0.697722 0.598271
vt 0.223466 0.487554
vt 0.224518 0.465106
vt 0.050129 0.487340
vt 0.050145 0.465636
vt 0.391995 0.490535
vt 0.388536 0.460715
vt 0.039717 0.527813
vt 0.039717 0.422183
vt 0.015910 0.420135
vt 0.015910 0.420135
vt 0.015910 0.527813
vt 0.039717 0.527813
vt 0.405991 0.525954
vt 0.435130 0.525954
vt 0.435130 0.416417
vt 0.405991 0.416417
vt 0.223466 0.487554
vt 0.224518 0.465106
vt 0.050129 0.487340
vt 0.050145 0.465636
vt 0.391995 0.490535
vt 0.388536 0.460715
vt 0.039717 0.527813
vt 0.039717 0.422183
vt 0.015910 0.420135
vt 0.015910 0.420135
vt 0.015910 0.527813
vt 0.039717 0.527813
vt 0.405991 0.525954
vt 0.435130 0.525954
vt 0.435130 0.416417
vt 0.405991 0.416417
vt 0.697047 0.607287
vt 0.697047 0.592352
vt 0.465278 0.592352
vt 0.465278 0.592352
vt 0.465278 0.607287
vt 0.697047 0.607287
vt 0.697047 0.607287
vt 0.697047 0.592352
vt 0.465278 0.592352
vt 0.465278 0.592352
vt 0.465278 0.607287
vt 0.697047 0.607287
vt 0.697047 0.607287
vt 0.697047 0.592352
vt 0.465278 0.592352
vt 0.465278 0.592352
vt 0.465278 0.607287
vt 0.697047 0.607287
vt 0.697047 0.607287
vt 0.697047 0.592352
vt 0.465278 0.592352
vt 0.465278 0.592352
vt 0.465278 0.607287
vt 0.697047 0.607287
vt 0.697047 0.607287
vt 0.697047 0.592352
vt 0.465278 0.592352
vt 0.465278 0.592352
vt 0.465278 0.607287
vt 0.697047 0.607287
vt 0.697047 0.607287
vt 0.697047 0.592352
vt 0.465278 0.592352
vt 0.465278 0.592352
vt 0.465278 0.607287
vt 0.697047 0.607287
vt 0.697047 0.607287
vt 0.697047 0.592352
vt 0.465278 0.592352
vt 0.465278 0.592352
vt 0.465278 0.607287
vt 0.697047 0.607287
vt 0.697047 0.607287
vt 0.697047 0.592352
vt 0.465278 0.592352
vt 0.465278 0.592352
vt 0.465278 0.607287
vt 0.697047 0.607287
vn 0.378632 0.06676299999999995 -0.923136
vn 0.378632 0.06676299999999995 -0.923136
vn 0.378632 0.06676299999999995 -0.923136
vn 0.277641 0.014872999999999942 -0.96057
vn -0.271313 -0.047839999999999945 0.961302
vn -0.395001 -0.031138999999999945 0.918153
vn -0.271313 -0.047839999999999945 0.961302
vn -0.271313 -0.047839999999999945 0.961302
vn -0.023312 0.12762100000000007 0.991549
vn 0.103231 0.22844000000000006 0.968069
vn 0.16146 0.27744900000000006 0.947076
vn 0.112366 0.11793500000000005 0.986643
vn 0.021782 0.001867000000000061 0.999761
vn -0.131802 0.14627000000000007 0.980425
vn -0.026481 0.17675800000000005 0.983898
vn 0.127993 0.17650400000000005 0.975943
vn 0.148759 0.07342000000000005 0.986144
vn 0.138119 0.018999000000000058 0.990233
vn -0.204025 0.12478400000000006 0.97098
vn -0.127248 0.09699400000000005 0.987117
vn 0.050447 0.03398200000000006 0.998148
vn 0.183232 -0.02807499999999994 0.982669
vn 0.14418 -0.07337199999999995 0.986828
vn -0.175194 0.01533000000000006 0.984415
vn -0.197441 -0.05798399999999994 0.978598
vn -0.08556 -0.20196499999999995 0.975648
vn 0.087871 -0.15589599999999995 0.983857
vn 0.18051 -0.056170999999999936 0.981968
vn -0.018025 -0.005171999999999939 0.999824
vn -0.170888 -0.10854799999999995 0.979293
vn -0.15283 -0.29183799999999993 0.944179
vn -0.06966 -0.32944099999999993 0.941603
vn 0.021307 -0.19298999999999994 0.980969
vn 0.573576 0.819152 -5.015859374075763E-17
vn 0.573576 0.819152 -5.015859374075763E-17
vn 0.573576 0.819152 -5.015859374075763E-17
vn 0.573576 0.819152 -5.015859374075763E-17
vn -0.573576 -0.819152 5.015859374075763E-17
vn -0.573576 -0.819152 5.015859374075763E-17
vn -0.573576 -0.819152 5.015859374075763E-17
vn -0.573576 -0.819152 5.015859374075763E-17
vn -0.273968 0.09406500000000005 0.957128
vn -0.144642 0.19498100000000004 0.970083
vn -0.266261 0.04972400000000005 0.962617
vn -0.010296 0.23978000000000005 0.970773
vn -0.278323 0.14235000000000006 0.94988
vn -0.210404 0.14471200000000006 0.966845
vn -0.573577 -0.819152 5.015859374075763E-17
vn -0.573577 -0.819152 5.015859374075763E-17
vn -0.573577 -0.819152 5.015859374075763E-17
vn -0.573577 -0.819152 5.015859374075763E-17
vn 0.573577 0.819152 -5.015859374075763E-17
vn 0.573576 0.819152 -5.015859374075763E-17
vn 0.573577 0.819152 -5.015859374075763E-17
vn 0.573577 0.819152 -5.015859374075763E-17
vn 0.900235 -0.435405 2.6660866979137666E-17
vn -0.952545 -0.304398 1.8639001818342802E-17
vn -0.23795 0.971277 -5.947356345677219E-17
vn 0.831772 0.555117 -3.399111286011406E-17
vn -0.329768 -0.944062 5.780712532483243E-17
vn -0.938249 0.345962 -2.118406279633083E-17
vn 0.884772 -0.460289 -0.07288699999999997
vn -0.923954 -0.318233 0.21221600000000002
vn -0.223555 0.966458 -0.12641700000000006
vn 0.822395 0.520646 -0.22933200000000004
vn -0.274945 -0.938918 0.20697200000000004
vn -0.931273 0.350457 0.09954899999999997
vn 0.381192 0.48964100000000005 0.784184
vn 0.751377 -0.548576 -0.36673799999999995
vn 0.923172 -0.013297999999999977 0.384157
vn -0.564318 0.622862 0.541837
vn -0.965506 0.209095 -0.15517
vn -0.496586 -0.42729200000000006 -0.755529
vn 0.885125 -0.410746 -0.21872799999999998
vn -0.93668 -0.318659 0.14521200000000004
vn -0.28856 -0.955967 -0.05348299999999995
vn 0.821152 0.562773 -0.09485100000000003
vn -0.17904 0.972929 0.14613099999999996
vn -0.904641 0.366525 0.21744999999999998
vn 0.900235 -0.435404 2.666080574679771E-17
vn -0.952545 -0.304397 1.8638940586002842E-17
vn -0.23795 0.971277 -5.947356345677219E-17
vn 0.831772 0.555117 -3.399111286011406E-17
vn -0.329768 -0.944062 5.780712532483243E-17
vn -0.938248 0.345962 -2.118406279633083E-17
vn -0.867703 0.023393000000000032 0.496532
vn -0.623477 -0.10287499999999995 0.775044
vn -0.706015 -0.08785999999999995 0.702726
vn -0.823721 -0.07892999999999997 0.561474
vn -0.492304 0.07465500000000005 0.867216
vn -0.401696 0.18869900000000006 0.896121
vn -0.600435 0.2936830000000001 0.743793
vn -0.7145 0.11438600000000004 0.690221
vn -0.380537 0.15874200000000005 0.911039
vn -0.509044 0.37593000000000004 0.774307
vn -0.387904 -0.04624099999999994 0.920539
vn -0.28162 0.08133100000000006 0.956073
vn -0.696506 0.34897400000000006 0.626974
vn -0.79833 0.20756100000000002 0.565321
vn -0.763815 0.31448600000000004 0.563635
vn 0.173641 -0.984763 0.009532000000000061
vn 0.952781 0.261438 0.15446399999999996
vn 0.98948 0.05309300000000001 0.134576
vn 0.992563 0.03124100000000001 0.117657
vn -0.940765 -0.284802 0.18398200000000003
vn -0.940765 -0.284802 0.18398200000000003
vn -0.173642 0.984775 -0.00817300000000006
vn -0.173642 0.984775 -0.00817300000000006
vn 0.98948 0.05309300000000001 0.134576
vn 0.98948 0.05309300000000001 0.134576
vn -0.940765 -0.284802 0.18398200000000003
vn -0.936576 -0.311298 0.16099300000000002
vn 0.146188 -0.988202 0.04567900000000006
vn 0.146188 -0.988202 0.04567900000000006
vn 0.146188 -0.988202 0.04567900000000006
vn 0.185577 -0.979275 0.08112600000000006
vn -0.145894 0.986213 -0.07809800000000006
vn -0.186028 0.981655 -0.041791000000000064
vn -0.145894 0.986213 -0.07809800000000006
vn -0.145894 0.986213 -0.07809800000000006
vn -0.208158 0.34863900000000003 0.91385
vn -0.226926 0.32127300000000003 0.919396
vn -0.135305 0.4127410000000001 0.900743
vn -0.121682 0.40869400000000006 0.904524
vn 0.02973 0.516938 0.855506
vn 0.164479 0.43307700000000005 0.886223
vn 0.151623 0.603578 0.782754
vn -0.063942 0.517032 0.853575
vn 0.229746 0.41011900000000007 0.882621
vn 0.312814 0.553372 0.771963
vn -0.08993 0.37406500000000004 0.923032
vn -0.019894 0.2924530000000001 0.956073
vn -0.080602 0.583452 0.808138
vn -0.259214 0.44265400000000005 0.858409
vn 0.182458 0.737624 0.650092
vn -0.273276 0.26465700000000003 0.924812
vn 0.038078 0.47680500000000003 0.878184
vn 0.137041 0.27975800000000006 0.95024
vn 0 6.123233995736766E-17 1
vn -0.47344 -0.03415999999999995 0.880164
vn -0.114316 0.11948500000000005 0.986233
vn 0.234496 0.18068500000000007 0.955178
vn 0.276662 0.13715000000000005 0.95113
vn -0.28026 -0.13590199999999994 0.950255
vn -0.179212 -0.22865599999999994 0.95687
vn 0.173604 -0.16213899999999995 0.971377
vn 0.331257 -0.04379999999999994 0.942524
vn -0 6.123233995736766E-17 1
vn -0.134099 -0.28107899999999997 0.950269
vn 0.049489 -0.34039499999999995 0.938979
vn 0.153152 -0.14952899999999994 0.976824
vn 0.8854 -0.459521 -0.07004299999999997
vn -0.925314 -0.31768 0.20705900000000002
vn -0.224429 0.966461 -0.12483900000000006
vn 0.822943 0.521964 -0.22431800000000002
vn -0.277168 -0.939005 0.20358600000000004
vn -0.931749 0.350159 0.09609199999999997
vn 0.897087 -0.441424 0.019503000000000027
vn -0.942266 -0.29821 -0.15233599999999997
vn -0.329691 -0.923709 -0.19510299999999994
vn 0.820905 0.541468 0.18146099999999998
vn -0.249664 0.958282 0.13915399999999994
vn -0.939924 0.338812 -0.041841000000000024
vn -0.285686 -0.517092 -0.806845
vn -0.447778 -0.32655699999999993 0.832379
vn 0.663138 0.731741 -0.15749300000000005
vn 0.375147 0.22712399999999994 -0.89871
vn -0.650401 -0.75917 -0.025295999999999954
vn 0.33366 0.56125 0.757409
vn -0.625981 -0.779817 0.005721000000000048
vn -0.625981 -0.779817 0.005721000000000048
vn -0.625981 -0.779817 0.005721000000000048
vn -0.638248 -0.769798 -0.007100999999999953
vn 0.625981 0.779817 0.005720999999999953
vn 0.638248 0.769798 -0.0071010000000000465
vn 0.625981 0.779817 0.005720999999999953
vn 0.625981 0.779817 0.005720999999999953
vn 0.830121 -0.552093 0.07805100000000002
vn 0.830121 -0.552093 0.07805100000000002
vn 0.830121 -0.552093 0.07805100000000002
vn 0.815996 -0.577659 0.021454000000000036
vn -0.831971 0.554286 -0.024316000000000036
vn -0.813557 0.575933 -0.08016600000000004
vn -0.831971 0.554286 -0.024316000000000036
vn -0.831971 0.554286 -0.024316000000000036
vn -0.57355 -0.819115 0.00953200000000005
vn 0.876886 -0.455546 0.15345500000000004
vn 0.733756 -0.659023 0.16519900000000004
vn 0.717924 -0.682086 0.13908000000000006
vn -0.866607 0.463836 0.18398199999999998
vn -0.866607 0.463836 0.18398199999999998
vn 0.57355 0.819113 -0.00969200000000005
vn 0.57355 0.819113 -0.00969200000000005
vn 0.733756 -0.659023 0.16519900000000004
vn 0.733756 -0.659023 0.16519900000000004
vn -0.866607 0.463836 0.18398199999999998
vn -0.856537 0.476683 0.19778099999999998
vn -0.499583 -0.865303 0.04083400000000006
vn -0.499583 -0.865303 0.04083400000000006
vn -0.499582 -0.865304 0.04083400000000006
vn -0.499583 -0.865303 0.04083400000000006
vn 0.499583 0.865303 -0.04083400000000006
vn 0.499583 0.865303 -0.04083400000000006
vn 0.499584 0.865303 -0.04083400000000006
vn 0.499583 0.865303 -0.04083400000000006
vn 0.254242 0.30932500000000007 0.91634
vn 0.49757 0.04741100000000006 0.866127
vn 0.316223 -0.08392699999999995 0.944965
vn 0 6.123233995736766E-17 1
vn -0.120415 0.48018200000000005 0.868865
vn 0.128349 0.12861200000000006 0.983354
vn 0.242651 -0.19837599999999994 0.949614
vn 0.193093 -0.25570199999999993 0.947276
vn -0.191233 0.26196400000000003 0.945941
vn -0.272841 0.13512500000000005 0.952522
vn -0.139234 -0.20803899999999995 0.96816
vn 0.014183 -0.34989099999999995 0.936683
vn 0 6.123233995736766E-17 1
vn -0.315713 0.08348500000000006 0.945175
vn -0.344084 -0.11266199999999994 0.932155
vn -0.133208 -0.18249799999999994 0.974141
vn 0.976852 0.201471 0.07190199999999998
vn 0.976852 0.201471 0.07190199999999998
vn 0.976852 0.201471 0.07190199999999998
vn 0.983428 0.178634 0.03096699999999999
vn -0.978898 -0.201893 -0.03159999999999999
vn -0.98145 -0.177353 -0.07281599999999999
vn -0.978898 -0.201893 -0.03159999999999999
vn -0.978898 -0.201893 -0.03159999999999999
vn 0.35701 -0.934079 -0.006413999999999943
vn 0.360163 -0.932884 -0.0032079999999999427
vn -0.001915 -0.0005139999999999388 0.999998
vn 0.156008 -0.987754 -0.0020509999999999396
vn -0.357771 0.933786 0.006570999999999942
vn -0.158439 0.987367 0.00200399999999994
vn -0.004364 0.005676000000000061 0.999974
vn -0.361002 0.932559 0.0032859999999999426
vn 0.226867 -0.973925 -0.0013699999999999403
vn 0.294701 -0.955587 -0.0022399999999999413
vn -0.296033 0.955175 0.0022919999999999417
vn -0.22879 0.973475 0.0013379999999999404
vn -0.998058 0.062292 -0.0005680000000000038
vn -0.998045 0.062495 -3.826715085635692E-18
vn -0.99807 0.06209 -0.001137000000000004
vn -0.998058 0.062292 -0.0005680000000000038
vn 0.996942 -0.073141 0.027534000000000003
vn 0.996411 -0.062391999999999996 0.057210000000000004
vn 0.996464 -0.08398 -0.0026259999999999947
vn 0.996942 -0.073141 0.027534000000000003
vn -0.973863 0.227137 -1.390813000089662E-17
vn -0.973863 0.227137 -1.390813000089662E-17
vn 0.964102 -0.258545 0.06051400000000001
vn 0.990073 -0.140552 8.60632784568794E-18
vn -0.589521 0.807753 -4.9460606297583605E-17
vn -0.589521 0.807753 -4.9460606297583605E-17
vn 0.613149 -0.789968 4.8371589131441816E-17
vn 0.613149 -0.789968 4.8371589131441816E-17
vn -0.101773 0.994808 -6.0914421648309E-17
vn -0.101773 0.994808 -6.0914421648309E-17
vn 0.149773 -0.98872 6.054163916264856E-17
vn 0.149774 -0.98872 6.054163916264856E-17
vn -0.088563 0.995633 0.029506999999999936
vn -0.114832 0.993385 -6.082728802854968E-17
vn 0.08596 -0.996299 6.100571906718545E-17
vn 0.117401 -0.992314 -0.03911699999999994
vn -0.633022 -0.11161900000000004 -0.766044
vn -0.633022 -0.11161900000000004 -0.766044
vn -0.633022 -0.11161900000000004 -0.766044
vn -0.633022 -0.11161900000000004 -0.766044
vn 0.633022 0.11161900000000004 0.766044
vn 0.633022 0.11161900000000004 0.766044
vn 0.633022 0.11161900000000004 0.766044
vn 0.633022 0.11161900000000004 0.766044
vn 0.087156 -0.996195 6.099935090382987E-17
vn 0.087156 -0.996195 6.099935090382987E-17
vn 0.087156 -0.996195 6.099935090382987E-17
vn 0.087156 -0.996195 6.099935090382987E-17
vn -0.087156 0.996195 -6.099935090382987E-17
vn -0.087156 0.996195 -6.099935090382987E-17
vn -0.087156 0.996195 -6.099935090382987E-17
vn -0.087156 0.996195 -6.099935090382987E-17
vn 0.172988 -0.98106 -0.08715599999999994
vn 0.172988 -0.98106 -0.08715599999999994
vn 0.172988 -0.98106 -0.08715599999999994
vn 0.172988 -0.98106 -0.08715599999999994
vn -0.172988 0.98106 0.08715599999999994
vn -0.172988 0.98106 0.08715599999999994
vn -0.172988 0.98106 0.08715599999999994
vn -0.172988 0.98106 0.08715599999999994
vn 0.573557 0.819125 0.00819799999999995
vn -0.886381 0.436943 0.15300199999999997
vn -0.720853 0.673212 0.16478899999999996
vn -0.701542 0.699029 0.13855399999999995
vn 0.875431 -0.44714 0.18353900000000004
vn 0.875431 -0.44714 0.18353900000000004
vn -0.573556 -0.819124 -0.00833499999999995
vn -0.573556 -0.819124 -0.00833499999999995
vn -0.720853 0.673212 0.16478899999999996
vn -0.720853 0.673212 0.16478899999999996
vn 0.875431 -0.44714 0.18353900000000004
vn 0.864406 -0.462413 0.19742800000000002
vn 0.172988 -0.98106 -0.08715599999999994
vn 0.172988 -0.98106 -0.08715599999999994
vn 0.172988 -0.98106 -0.08715599999999994
vn 0.172988 -0.98106 -0.08715599999999994
vn -0.172988 0.98106 0.08715599999999994
vn -0.172988 0.98106 0.08715599999999994
vn -0.172988 0.98106 0.08715599999999994
vn -0.172988 0.98106 0.08715599999999994
vn 0.813378 -0.569534 -0.11851999999999996
vn 0.813378 -0.569534 -0.11851999999999996
vn 0.813378 -0.569534 -0.11851999999999996
vn 0.813378 -0.569534 -0.11851999999999996
vn -0.813378 0.569534 0.11851999999999996
vn -0.813379 0.569533 0.11851999999999996
vn -0.813378 0.569534 0.11851999999999996
vn -0.813378 0.569534 0.11851999999999996
vn -0.492942 0.05062500000000006 0.868588
vn -0.231987 0.3246740000000001 0.916934
vn 0.125725 0.48323000000000005 0.866419
vn -0.095201 0.14632700000000007 0.984645
vn 0.19432 0.26508000000000004 0.944443
vn 0.276302 0.14646100000000006 0.949846
vn 0 6.123233995736766E-17 1
vn 0.31198 0.09321000000000006 0.945505
vn -0.314851 -0.09046999999999994 0.94482
vn -0.227926 -0.20455699999999993 0.951949
vn 0.15051 -0.19998599999999994 0.96817
vn 0.334837 -0.10564699999999995 0.936335
vn 0 1.0000000000612324E-06 1
vn -0.190899 -0.26623899999999995 0.944814
vn -0.011062 -0.36116899999999996 0.932435
vn 0.131789 -0.18338499999999994 0.974167
vn -0.340835 -0.32999699999999993 0.880303
vn -0.379199 0.030580000000000055 0.92481
vn -0.277652 0.3892320000000001 0.878299
vn -0.160944 0.01990300000000006 0.986763
vn -0.077917 0.29533200000000004 0.952212
vn 0.065289 0.2836270000000001 0.956709
vn 0 6.123233995736766E-17 1
vn 0.124862 0.27555900000000005 0.95314
vn -0.127837 -0.28011899999999995 0.951415
vn 0.01605 -0.28647599999999995 0.957953
vn 0.237511 -0.013959999999999941 0.971285
vn 0.282047 0.17841100000000004 0.942666
vn -0 6.123233995736766E-17 1
vn 0.081677 -0.29789199999999993 0.951099
vn 0.257023 -0.22877099999999995 0.938937
vn 0.213223 -0.01897299999999994 0.976819
vn -0.340835 -0.32999699999999993 0.880303
vn -0.379198 0.030580000000000055 0.92481
vn -0.277651 0.3892320000000001 0.878299
vn -0.160944 0.01990300000000006 0.986763
vn -0.077917 0.29533200000000004 0.952212
vn 0.065289 0.2836270000000001 0.956709
vn 0 6.123233995736766E-17 1
vn 0.124862 0.27555900000000005 0.95314
vn -0.127837 -0.28011899999999995 0.951415
vn 0.01605 -0.28647599999999995 0.957953
vn 0.237511 -0.013959999999999941 0.971285
vn 0.282047 0.17841100000000004 0.942666
vn -0 6.123233995736766E-17 1
vn 0.081677 -0.29789199999999993 0.951099
vn 0.257023 -0.22877099999999995 0.938937
vn 0.213223 -0.01897299999999994 0.97682
vn 0.175331 -0.23091899999999996 0.957045
vn 0.020928 -0.19234699999999993 0.981104
vn -0.175263 -0.3156669999999999 0.932544
vn 0.017273 -0.2632999999999999 0.964559
vn -0.260489 -0.37114299999999995 0.89129
vn -0.205991 -0.23787099999999994 0.949202
vn -0.178648 -0.15785599999999994 0.971168
vn -0.227613 -0.08476199999999995 0.970055
vn -0.032972 5.80000000000612E-05 0.999456
vn -0.204615 -0.00886899999999994 0.978802
vn 0.280288 -0.20684999999999995 0.937364
vn 0.176977 -0.15788599999999994 0.971469
vn -0.074271 -0.04337099999999994 0.996294
vn -0.264683 0.06563700000000006 0.962099
vn -0.203667 0.12712700000000005 0.970752
vn 0.257921 -0.044035999999999936 0.965162
vn 0.297086 0.05958900000000006 0.95299
vn 0.152535 0.27884900000000007 0.948143
vn -0.107447 0.24160700000000004 0.964407
vn -0.257891 0.10580600000000005 0.960363
vn 0.027765 0.005401000000000062 0.9996
vn 0.265812 0.13634700000000005 0.954334
vn 0.253422 0.39002900000000007 0.885243
vn 0.139449 0.45327100000000003 0.880398
vn -0.003456 0.28740000000000004 0.957804
vn 0.007496 0.999967 0.0031029999999999387
vn 0.00828 0.999965 0.0014669999999999388
vn 0.00121 6.12322787250277E-17 0.999999
vn -0.003984 0.999992 2.899999999993877E-05
vn -0.008059 -0.999962 -0.003306999999999939
vn 0.004442 -0.99999 -4.099999999993877E-05
vn 0.002136 -0.006607999999999939 0.999976
vn -0.008885 -0.999959 -0.0015679999999999388
vn 0.00037 1 -3.700000000006123E-05
vn 0.004228 0.999991 0.0009289999999999388
vn -0.00448 -0.99999 -0.000996999999999939
vn -0.000281 -1 3.0000000000061234E-05
vn 0.017799 0.999826 0.005508999999999938
vn 0.021634 0.999762 0.0026589999999999388
vn 0.330279 5.779616473598006E-17 0.943883
vn -0.010838 0.99994 0.0018539999999999388
vn -0.019429 -0.999793 -0.006020999999999939
vn 0.01182 -0.999928 -0.0020149999999999387
vn 0.326804 0.007757000000000058 0.94506
vn -0.023666 -0.999716 -0.0029129999999999386
vn 0.001299 0.999999 0.001171999999999939
vn 0.011634 0.999931 0.0017299999999999388
vn -0.012707 -0.999918 -0.0018999999999999388
vn -0.001462 -0.999998 -0.0012769999999999388
vn 0.277641 0.014872999999999942 -0.96057
vn 0.277641 0.014872999999999942 -0.96057
vn -0.395001 -0.031138999999999945 0.918153
vn -0.395001 -0.031138999999999945 0.918153
vn 0.769751 -0.538986 0.34202000000000005
vn 0.769751 -0.538986 0.34202000000000005
vn 0.769751 -0.538986 0.34202000000000005
vn 0.769751 -0.538985 0.34202000000000005
vn -0.280167 0.19617500000000004 0.939692
vn -0.280167 0.19617500000000004 0.939692
vn -0.280167 0.19617500000000004 0.939692
vn -0.280167 0.19617500000000004 0.939692
vn -0.769751 0.538986 -0.34202000000000005
vn -0.769751 0.538986 -0.34202000000000005
vn -0.769751 0.538986 -0.34202000000000005
vn -0.769751 0.538986 -0.34202000000000005
vn -0.329768 -0.944062 5.780712532483243E-17
vn -0.952545 -0.304398 1.8639001818342802E-17
vn -1E-06 6.123233995736766E-17 1
vn -1E-06 6.123233995736766E-17 1
vn -1E-06 6.123233995736766E-17 1
vn -0.274945 -0.938918 0.20697200000000004
vn -0.923954 -0.318233 0.21221600000000002
vn 1E-06 2.0000000000612323E-06 1
vn 1E-06 2.0000000000612323E-06 1
vn 1E-06 2.0000000000612323E-06 1
vn 0.923172 -0.013297999999999977 0.384157
vn 0.751377 -0.548576 -0.36673799999999995
vn -0.084137 -0.895447 0.43714500000000006
vn -0.084137 -0.895447 0.43714500000000006
vn -0.084137 -0.895447 0.43714500000000006
vn -0.28856 -0.955967 -0.05348299999999995
vn -0.93668 -0.318659 0.14521200000000004
vn -1E-06 6.123233995736766E-17 1
vn -1E-06 6.123233995736766E-17 1
vn -1E-06 6.123233995736766E-17 1
vn -0.329768 -0.944062 5.780712532483243E-17
vn -0.952545 -0.304397 1.8638940586002842E-17
vn -1E-06 6.123233995736766E-17 1
vn -1E-06 6.123233995736766E-17 1
vn -1E-06 6.123233995736766E-17 1
vn 0.992563 0.03124100000000001 0.117657
vn 0.992563 0.03124100000000001 0.117657
vn -0.936576 -0.311298 0.16099300000000002
vn -0.936576 -0.311298 0.16099300000000002
vn 0.173641 -0.984763 0.009532000000000061
vn 0.173641 -0.984763 0.009532000000000061
vn -0.173642 0.984775 -0.00817300000000006
vn 0.952781 0.261438 0.15446399999999996
vn 0.952781 0.261438 0.15446399999999996
vn 0.948906 0.284518 0.13648399999999997
vn 0.948906 0.284518 0.13648399999999997
vn 0.948906 0.284518 0.13648399999999997
vn -0.986804 -0.08465999999999999 0.138022
vn -0.986804 -0.08465999999999999 0.138022
vn -0.986804 -0.08465999999999999 0.138022
vn -0.985685 -0.05558099999999999 0.159172
vn -0.985685 -0.05558099999999999 0.159172
vn -0.985685 -0.05558099999999999 0.159172
vn 0.185577 -0.979275 0.08112600000000006
vn 0.185577 -0.979275 0.08112600000000006
vn -0.186028 0.981655 -0.041791000000000064
vn -0.186028 0.981655 -0.041791000000000064
vn -0.277168 -0.939005 0.20358600000000004
vn -0.925314 -0.31768 0.20705900000000002
vn -1E-06 6.123233995736766E-17 1
vn -1E-06 6.123233995736766E-17 1
vn -1E-06 6.123233995736766E-17 1
vn -0.329691 -0.923709 -0.19510299999999994
vn -0.942266 -0.29821 -0.15233599999999997
vn -1E-06 6.123233995736766E-17 1
vn -1E-06 6.123233995736766E-17 1
vn -1E-06 6.123233995736766E-17 1
vn -0.650401 -0.75917 -0.025295999999999954
vn -0.447778 -0.32655699999999993 0.832379
vn 0.748461 -0.646197 0.14911900000000003
vn 0.748461 -0.646197 0.14911900000000003
vn 0.748461 -0.646197 0.14911900000000003
vn -0.638248 -0.769798 -0.007100999999999953
vn -0.638248 -0.769798 -0.007100999999999953
vn 0.638248 0.769798 -0.0071010000000000465
vn 0.638248 0.769798 -0.0071010000000000465
vn 0.815996 -0.577659 0.021454000000000036
vn 0.815996 -0.577659 0.021454000000000036
vn -0.813557 0.575933 -0.08016600000000004
vn -0.813557 0.575933 -0.08016600000000004
vn 0.717924 -0.682086 0.13908000000000006
vn 0.717924 -0.682086 0.13908000000000006
vn -0.856537 0.476683 0.19778099999999998
vn -0.856537 0.476683 0.19778099999999998
vn -0.57355 -0.819115 0.00953200000000005
vn -0.57355 -0.819115 0.00953200000000005
vn 0.57355 0.819113 -0.00969200000000005
vn 0.876886 -0.455546 0.15345500000000004
vn 0.876886 -0.455546 0.15345500000000004
vn 0.867959 -0.467529 0.16751900000000003
vn 0.867959 -0.467529 0.16751900000000003
vn 0.867959 -0.467529 0.16751900000000003
vn -0.759107 0.630172 0.16321499999999997
vn -0.759107 0.630172 0.16321499999999997
vn -0.759107 0.630172 0.16321499999999997
vn -0.731473 0.653384 0.19502899999999998
vn -0.731473 0.653384 0.19502899999999998
vn -0.731473 0.653384 0.19502899999999998
vn 0.865019 -0.49942 -0.04818399999999997
vn 0.86502 -0.499419 -0.04818399999999997
vn 0.865019 -0.49942 -0.04818399999999997
vn 0.865019 -0.499421 -0.04818399999999997
vn 0 6.123233995736766E-17 1
vn 0 6.123233995736766E-17 1
vn 0 6.123233995736766E-17 1
vn 0 6.123233995736766E-17 1
vn -0.86502 0.499419 0.04818399999999997
vn -0.86502 0.499418 0.04818399999999997
vn -0.86502 0.499419 0.04818399999999997
vn -0.865019 0.49942 0.04818399999999997
vn 0.983428 0.178634 0.03096699999999999
vn 0.983428 0.178634 0.03096699999999999
vn -0.98145 -0.177353 -0.07281599999999999
vn -0.98145 -0.177353 -0.07281599999999999
vn -0.013382 0.0048810000000000615 0.999899
vn -0.035717 0.024701000000000063 0.999057
vn 0.154204 -0.988032 -0.0038519999999999392
vn -0.156712 0.987637 0.0037609999999999397
vn -0.050186 0.031123000000000064 0.998255
vn -0.068895 0.05894500000000006 0.995881
vn -0.965216 -0.253723 0.06311700000000002
vn -0.965216 -0.253723 0.06311700000000002
vn -0.965216 -0.253723 0.06311700000000002
vn -0.964062 -0.25832 0.06209600000000001
vn -0.964062 -0.25832 0.06209600000000001
vn -0.964062 -0.25832 0.06209600000000001
vn 0.965298 0.258651 0.036055999999999984
vn 0.965298 0.258651 0.036055999999999984
vn 0.965298 0.258651 0.036055999999999984
vn 0.965298 0.258651 0.036055999999999984
vn 0.011043 0.08634600000000006 0.996204
vn 0.015118 0.08574100000000005 0.996203
vn 0.011043 0.08634600000000006 0.996204
vn 0.006965 0.08695000000000006 0.996188
vn 0.171178 0.9708 0.16806199999999993
vn 0.171178 0.9708 0.16806199999999993
vn 0.171178 0.9708 0.16806199999999993
vn 0.171178 0.9708 0.16806199999999993
vn -0.973863 0.227137 -1.390813000089662E-17
vn -0.973863 0.227137 -1.390813000089662E-17
vn 0.964102 -0.258545 0.06051400000000001
vn 0.964102 -0.258545 0.06051400000000001
vn 0.990073 -0.140552 8.60632784568794E-18
vn 0.990073 -0.140552 8.60632784568794E-18
vn -0.007676 -0.09585399999999994 0.995366
vn -0.007676 -0.09585399999999994 0.995366
vn -0.007676 -0.09585399999999994 0.995366
vn -0.075985 -0.10851799999999995 0.991186
vn -0.075985 -0.10851799999999995 0.991186
vn -0.075985 -0.10851799999999995 0.991186
vn -0.589521 0.807753 -4.9460606297583605E-17
vn -0.589521 0.807753 -4.9460606297583605E-17
vn 0.613149 -0.789968 4.8371589131441816E-17
vn 0.613149 -0.789968 4.8371589131441816E-17
vn 0.070001 0.09997300000000006 0.992525
vn 0.070001 0.09997300000000006 0.992525
vn 0.070001 0.09997300000000006 0.992525
vn 0.117562 0.08231800000000006 0.989648
vn 0.117562 0.08231800000000006 0.989648
vn 0.117562 0.08231800000000006 0.989648
vn -0.101773 0.994808 -6.0914421648309E-17
vn -0.101773 0.994808 -6.0914421648309E-17
vn 0.149773 -0.98872 6.054163916264856E-17
vn 0.149773 -0.98872 6.054163916264856E-17
vn -0.270216 -0.18920699999999993 0.944025
vn -0.270216 -0.18920699999999993 0.944025
vn -0.270216 -0.18920699999999993 0.944025
vn -0.345704 -0.06095799999999994 0.936362
vn -0.345704 -0.06095799999999994 0.936362
vn -0.345704 -0.06095799999999994 0.936362
vn -0.114832 0.993385 -6.082728802854968E-17
vn -0.114832 0.993385 -6.082728802854968E-17
vn -0.088563 0.995633 0.029506999999999936
vn -0.088563 0.995633 0.029506999999999936
vn 0.08596 -0.996299 6.100571906718545E-17
vn 0.08596 -0.996299 6.100571906718545E-17
vn 0.117401 -0.992314 -0.03911699999999994
vn 0.117401 -0.992314 -0.03911699999999994
vn -0.198207 -0.03494999999999994 0.979537
vn -0.198207 -0.03494999999999994 0.979537
vn -0.198207 -0.03494999999999994 0.979537
vn -0.219809 0.01923100000000006 0.975353
vn -0.219809 0.01923100000000006 0.975353
vn -0.219809 0.01923100000000006 0.975353
vn -0.945475 0.08271700000000001 0.315016
vn -0.945475 0.08271700000000001 0.315016
vn -0.945475 0.08271700000000001 0.315016
vn -0.945475 0.08271700000000001 0.315016
vn 0.996195 0.087156 -5.336765821324336E-18
vn 0.996195 0.087156 -5.336765821324336E-18
vn 0.996195 0.087156 -5.336765821324336E-18
vn 0.996195 0.087156 -5.336765821324336E-18
vn 0 6.123233995736766E-17 1
vn 0 6.123233995736766E-17 1
vn 0 6.123233995736766E-17 1
vn 0 6.123233995736766E-17 1
vn -0.996195 -0.087156 5.336765821324336E-18
vn -0.996195 -0.087156 5.336765821324336E-18
vn -0.996195 -0.087156 5.336765821324336E-18
vn -0.996195 -0.087156 5.336765821324336E-18
vn -0.701542 0.699029 0.13855399999999995
vn -0.701542 0.699029 0.13855399999999995
vn 0.864406 -0.462413 0.19742800000000002
vn 0.864406 -0.462413 0.19742800000000002
vn 0.573557 0.819125 0.00819799999999995
vn 0.573557 0.819125 0.00819799999999995
vn -0.573556 -0.819124 -0.00833499999999995
vn -0.886381 0.436943 0.15300199999999997
vn -0.886381 0.436943 0.15300199999999997
vn -0.876651 0.451166 0.16713099999999997
vn -0.876651 0.451166 0.16713099999999997
vn -0.876651 0.451166 0.16713099999999997
vn 0.7507 -0.640212 0.16302800000000003
vn 0.7507 -0.640212 0.16302800000000003
vn 0.7507 -0.640212 0.16302800000000003
vn 0.718982 -0.667238 0.19457200000000002
vn 0.718982 -0.667238 0.19457200000000002
vn 0.718982 -0.667238 0.19457200000000002
vn 0.573576 0.819152 -5.015859374075763E-17
vn 0.573576 0.819152 -5.015859374075763E-17
vn 0.573576 0.819152 -5.015859374075763E-17
vn 0.573576 0.819152 -5.015859374075763E-17
vn 0.071393 -0.04998999999999994 0.996195
vn 0.071393 -0.04998999999999994 0.996195
vn 0.071393 -0.04998999999999994 0.996195
vn 0.071393 -0.04998999999999994 0.996195
vn -0.573577 -0.819152 5.015859374075763E-17
vn -0.573577 -0.819152 5.015859374075763E-17
vn -0.573577 -0.819152 5.015859374075763E-17
vn -0.573578 -0.819151 5.0158532508417673E-17
vn 0.028751 -0.006510999999999939 0.999565
vn 0.058476 -0.031433999999999934 0.997794
vn -0.004078 0.999992 0.00020599999999993876
vn 0.004541 -0.99999 -0.00022899999999993878
vn 0.085947 -0.04044999999999994 0.995478
vn 0.090228 -0.07456099999999995 0.993126
vn 0.972527 -0.017429999999999987 0.232136
vn 0.972527 -0.017429999999999987 0.232136
vn 0.972527 -0.017429999999999987 0.232136
vn 0.9738 -9.999999999860754E-07 0.227407
vn 0.9738 -9.999999999860754E-07 0.227407
vn 0.9738 -9.999999999860754E-07 0.227407
vn -0.998729 -9.999999999969142E-07 0.050393
vn -0.998729 -9.999999999969142E-07 0.050393
vn -0.998729 -9.999999999969142E-07 0.050393
vn -0.99873 1.0000000000030857E-06 0.050393
vn 0.310985 0.008973000000000059 0.950372
vn 0.303233 -0.014722999999999941 0.952803
vn -0.013234 0.999905 0.0038449999999999387
vn 0.014337 -0.999889 -0.004164999999999939
vn 0.292925 -0.030012999999999943 0.955664
vn 0.306564 -0.07126199999999995 0.949179
vn 0.972527 -0.017427999999999985 0.232135
vn 0.972527 -0.017427999999999985 0.232135
vn 0.972527 -0.017427999999999985 0.232135
vn 0.9738 1.0000000000139245E-06 0.227407
vn 0.9738 1.0000000000139245E-06 0.227407
vn 0.9738 1.0000000000139245E-06 0.227407
vn -0.960295 -9.999999999829168E-07 0.278988
vn -0.960295 -9.999999999829168E-07 0.278988
vn -0.960295 -9.999999999829168E-07 0.278988
vn -0.960295 1.708308806002609E-17 0.278988
vn 0.831772 0.555117 -3.399111286011406E-17
vn -0.938249 0.345962 -2.118406279633083E-17
vn -0.23795 0.971277 -5.947356345677219E-17
vn -0.23795 0.971277 -5.947356345677219E-17
vn 0.900235 -0.435405 2.6660866979137666E-17
vn 0.831772 0.555117 -3.399111286011406E-17
vn 0.822395 0.520646 -0.22933200000000004
vn -0.931273 0.350457 0.09954899999999997
vn -0.223555 0.966458 -0.12641700000000006
vn -0.223555 0.966458 -0.12641700000000006
vn 0.884772 -0.460289 -0.07288699999999997
vn 0.822395 0.520646 -0.22933200000000004
vn -0.564318 0.622862 0.541837
vn -0.496586 -0.42729200000000006 -0.755529
vn -0.965506 0.209095 -0.15517
vn -0.965506 0.209095 -0.15517
vn 0.381192 0.48964100000000005 0.784184
vn -0.564318 0.622862 0.541837
vn 0.821152 0.562773 -0.09485100000000003
vn -0.904641 0.366525 0.21744999999999998
vn -0.17904 0.972929 0.14613099999999996
vn -0.17904 0.972929 0.14613099999999996
vn 0.885125 -0.410746 -0.21872799999999998
vn 0.821152 0.562773 -0.09485100000000003
vn 0.831772 0.555117 -3.399111286011406E-17
vn -0.938248 0.345962 -2.118406279633083E-17
vn -0.23795 0.971277 -5.947356345677219E-17
vn -0.23795 0.971277 -5.947356345677219E-17
vn 0.900235 -0.435404 2.666080574679771E-17
vn 0.831772 0.555117 -3.399111286011406E-17
vn 0.822943 0.521964 -0.22431800000000002
vn -0.931749 0.350159 0.09609199999999997
vn -0.224429 0.966461 -0.12483900000000006
vn -0.224429 0.966461 -0.12483900000000006
vn 0.8854 -0.459521 -0.07004299999999997
vn 0.822943 0.521964 -0.22431800000000002
vn 0.820905 0.541468 0.18146099999999998
vn -0.939924 0.338812 -0.041841000000000024
vn -0.249664 0.958282 0.13915399999999994
vn -0.249664 0.958282 0.13915399999999994
vn 0.897087 -0.441424 0.019503000000000027
vn 0.820905 0.541468 0.18146099999999998
vn 0.375147 0.22712399999999994 -0.89871
vn 0.33366 0.56125 0.757409
vn 0.663138 0.731741 -0.15749300000000005
vn 0.663138 0.731741 -0.15749300000000005
vn -0.285686 -0.517092 -0.806845
vn 0.375147 0.22712399999999994 -0.89871
g ruinmat
f 679/679/679 682/682/682 681/681/681
f 681/681/681 680/680/680 679/679/679
f 678/678/678 677/677/677 676/676/676
f 675/675/675 674/674/674 673/673/673
f 671/671/671 667/667/667 668/668/668
f 668/668/668 672/672/672 671/671/671
f 408/408/408 413/413/413 414/414/414
f 414/414/414 670/670/670 408/408/408
f 411/411/411 412/412/412 406/406/406
f 406/406/406 669/669/669 411/411/411
f 667/667/667 405/405/405 409/409/409
f 409/409/409 668/668/668 667/667/667
f 413/413/413 407/407/407 410/410/410
f 410/410/410 414/414/414 413/413/413
f 404/404/404 403/403/403 412/412/412
f 412/412/412 411/411/411 404/404/404
f 663/663/663 666/666/666 665/665/665
f 665/665/665 664/664/664 663/663/663
f 662/662/662 661/661/661 660/660/660
f 659/659/659 658/658/658 657/657/657
f 655/655/655 651/651/651 652/652/652
f 652/652/652 656/656/656 655/655/655
f 396/396/396 401/401/401 402/402/402
f 402/402/402 654/654/654 396/396/396
f 399/399/399 400/400/400 394/394/394
f 394/394/394 653/653/653 399/399/399
f 651/651/651 393/393/393 397/397/397
f 397/397/397 652/652/652 651/651/651
f 401/401/401 395/395/395 398/398/398
f 398/398/398 402/402/402 401/401/401
f 392/392/392 391/391/391 400/400/400
f 400/400/400 399/399/399 392/392/392
f 384/384/384 389/389/389 390/390/390
f 390/390/390 385/385/385 384/384/384
f 383/383/383 388/388/388 389/389/389
f 389/389/389 384/384/384 383/383/383
f 382/382/382 387/387/387 388/388/388
f 388/388/388 383/383/383 382/382/382
f 381/381/381 386/386/386 387/387/387
f 387/387/387 382/382/382 381/381/381
f 379/379/379 384/384/384 385/385/385
f 385/385/385 380/380/380 379/379/379
f 378/378/378 383/383/383 384/384/384
f 384/384/384 379/379/379 378/378/378
f 377/377/377 382/382/382 383/383/383
f 383/383/383 378/378/378 377/377/377
f 376/376/376 381/381/381 382/382/382
f 382/382/382 377/377/377 376/376/376
f 373/373/373 379/379/379 380/380/380
f 380/380/380 375/375/375 373/373/373
f 371/371/371 378/378/378 379/379/379
f 379/379/379 373/373/373 371/371/371
f 369/369/369 377/377/377 378/378/378
f 378/378/378 371/371/371 369/369/369
f 366/366/366 376/376/376 377/377/377
f 377/377/377 369/369/369 366/366/366
f 372/372/372 373/373/373 375/375/375
f 375/375/375 374/374/374 372/372/372
f 370/370/370 371/371/371 373/373/373
f 373/373/373 372/372/372 370/370/370
f 368/368/368 369/369/369 371/371/371
f 371/371/371 370/370/370 368/368/368
f 367/367/367 366/366/366 369/369/369
f 369/369/369 368/368/368 367/367/367
f 360/360/360 364/364/364 365/365/365
f 365/365/365 361/361/361 360/360/360
f 359/359/359 363/363/363 364/364/364
f 364/364/364 360/360/360 359/359/359
f 358/358/358 362/362/362 363/363/363
f 363/363/363 359/359/359 358/358/358
f 355/355/355 360/360/360 361/361/361
f 361/361/361 357/357/357 355/355/355
f 353/353/353 359/359/359 360/360/360
f 360/360/360 355/355/355 353/353/353
f 350/350/350 358/358/358 359/359/359
f 359/359/359 353/353/353 350/350/350
f 354/354/354 355/355/355 357/357/357
f 357/357/357 356/356/356 354/354/354
f 352/352/352 353/353/353 355/355/355
f 355/355/355 354/354/354 352/352/352
f 351/351/351 350/350/350 353/353/353
f 353/353/353 352/352/352 351/351/351
f 344/344/344 348/348/348 349/349/349
f 349/349/349 345/345/345 344/344/344
f 343/343/343 347/347/347 348/348/348
f 348/348/348 344/344/344 343/343/343
f 342/342/342 346/346/346 347/347/347
f 347/347/347 343/343/343 342/342/342
f 339/339/339 344/344/344 345/345/345
f 345/345/345 341/341/341 339/339/339
f 337/337/337 343/343/343 344/344/344
f 344/344/344 339/339/339 337/337/337
f 334/334/334 342/342/342 343/343/343
f 343/343/343 337/337/337 334/334/334
f 338/338/338 339/339/339 341/341/341
f 341/341/341 340/340/340 338/338/338
f 336/336/336 337/337/337 339/339/339
f 339/339/339 338/338/338 336/336/336
f 335/335/335 334/334/334 337/337/337
f 337/337/337 336/336/336 335/335/335
f 328/328/328 332/332/332 333/333/333
f 333/333/333 329/329/329 328/328/328
f 327/327/327 331/331/331 332/332/332
f 332/332/332 328/328/328 327/327/327
f 326/326/326 330/330/330 331/331/331
f 331/331/331 327/327/327 326/326/326
f 323/323/323 328/328/328 329/329/329
f 329/329/329 325/325/325 323/323/323
f 321/321/321 327/327/327 328/328/328
f 328/328/328 323/323/323 321/321/321
f 318/318/318 326/326/326 327/327/327
f 327/327/327 321/321/321 318/318/318
f 322/322/322 323/323/323 325/325/325
f 325/325/325 324/324/324 322/322/322
f 320/320/320 321/321/321 323/323/323
f 323/323/323 322/322/322 320/320/320
f 319/319/319 318/318/318 321/321/321
f 321/321/321 320/320/320 319/319/319
f 647/647/647 650/650/650 649/649/649
f 649/649/649 648/648/648 647/647/647
f 643/643/643 646/646/646 645/645/645
f 645/645/645 644/644/644 643/643/643
f 639/639/639 642/642/642 641/641/641
f 641/641/641 640/640/640 639/639/639
f 314/314/314 316/316/316 317/317/317
f 317/317/317 315/315/315 314/314/314
f 310/310/310 311/311/311 313/313/313
f 313/313/313 312/312/312 310/310/310
f 306/306/306 307/307/307 309/309/309
f 309/309/309 308/308/308 306/306/306
f 304/304/304 305/305/305 303/303/303
f 303/303/303 302/302/302 304/304/304
f 638/638/638 637/637/637 636/636/636
f 635/635/635 634/634/634 633/633/633
f 632/632/632 631/631/631 630/630/630
f 629/629/629 291/291/291 628/628/628
f 297/297/297 627/627/627 296/296/296
f 626/626/626 625/625/625 290/290/290
f 624/624/624 301/301/301 623/623/623
f 300/300/300 294/294/294 295/295/295
f 622/622/622 293/293/293 621/621/621
f 299/299/299 298/298/298 292/292/292
f 286/286/286 287/287/287 289/289/289
f 289/289/289 288/288/288 286/286/286
f 284/284/284 285/285/285 283/283/283
f 283/283/283 282/282/282 284/284/284
f 617/617/617 620/620/620 619/619/619
f 619/619/619 618/618/618 617/617/617
f 613/613/613 616/616/616 615/615/615
f 615/615/615 614/614/614 613/613/613
f 609/609/609 612/612/612 611/611/611
f 611/611/611 610/610/610 609/609/609
f 278/278/278 280/280/280 281/281/281
f 281/281/281 279/279/279 278/278/278
f 274/274/274 275/275/275 277/277/277
f 277/277/277 276/276/276 274/274/274
f 270/270/270 271/271/271 273/273/273
f 273/273/273 272/272/272 270/270/270
f 268/268/268 269/269/269 267/267/267
f 267/267/267 266/266/266 268/268/268
f 605/605/605 608/608/608 607/607/607
f 607/607/607 606/606/606 605/605/605
f 604/604/604 603/603/603 602/602/602
f 601/601/601 600/600/600 599/599/599
f 598/598/598 265/265/265 597/597/597
f 264/264/264 596/596/596 595/595/595
f 594/594/594 262/262/262 593/593/593
f 263/263/263 592/592/592 591/591/591
f 590/590/590 589/589/589 588/588/588
f 587/587/587 586/586/586 585/585/585
f 583/583/583 261/261/261 260/260/260
f 260/260/260 584/584/584 583/583/583
f 581/581/581 258/258/258 259/259/259
f 259/259/259 582/582/582 581/581/581
f 580/580/580 579/579/579 578/578/578
f 577/577/577 576/576/576 575/575/575
f 573/573/573 257/257/257 256/256/256
f 256/256/256 574/574/574 573/573/573
f 571/571/571 254/254/254 255/255/255
f 255/255/255 572/572/572 571/571/571
f 570/570/570 569/569/569 568/568/568
f 567/567/567 566/566/566 565/565/565
f 564/564/564 253/253/253 563/563/563
f 252/252/252 562/562/562 561/561/561
f 559/559/559 250/250/250 251/251/251
f 251/251/251 560/560/560 559/559/559
f 555/555/555 558/558/558 557/557/557
f 557/557/557 556/556/556 555/555/555
f 551/551/551 554/554/554 553/553/553
f 553/553/553 552/552/552 551/551/551
f 246/246/246 248/248/248 249/249/249
f 249/249/249 247/247/247 246/246/246
f 242/242/242 243/243/243 245/245/245
f 245/245/245 244/244/244 242/242/242
f 547/547/547 550/550/550 549/549/549
f 549/549/549 548/548/548 547/547/547
f 546/546/546 545/545/545 544/544/544
f 543/543/543 542/542/542 541/541/541
f 539/539/539 535/535/535 536/536/536
f 536/536/536 540/540/540 539/539/539
f 235/235/235 240/240/240 241/241/241
f 241/241/241 538/538/538 235/235/235
f 238/238/238 239/239/239 233/233/233
f 233/233/233 537/537/537 238/238/238
f 535/535/535 232/232/232 236/236/236
f 236/236/236 536/536/536 535/535/535
f 240/240/240 234/234/234 237/237/237
f 237/237/237 241/241/241 240/240/240
f 231/231/231 230/230/230 239/239/239
f 239/239/239 238/238/238 231/231/231
f 534/534/534 227/227/227 533/533/533
f 229/229/229 228/228/228 226/226/226
f 532/532/532 225/225/225 531/531/531
f 223/223/223 222/222/222 224/224/224
f 216/216/216 220/220/220 221/221/221
f 221/221/221 217/217/217 216/216/216
f 215/215/215 219/219/219 220/220/220
f 220/220/220 216/216/216 215/215/215
f 214/214/214 218/218/218 219/219/219
f 219/219/219 215/215/215 214/214/214
f 212/212/212 216/216/216 217/217/217
f 217/217/217 213/213/213 212/212/212
f 211/211/211 215/215/215 216/216/216
f 216/216/216 212/212/212 211/211/211
f 210/210/210 214/214/214 215/215/215
f 215/215/215 211/211/211 210/210/210
f 208/208/208 212/212/212 213/213/213
f 213/213/213 209/209/209 208/208/208
f 207/207/207 211/211/211 212/212/212
f 212/212/212 208/208/208 207/207/207
f 206/206/206 210/210/210 211/211/211
f 211/211/211 207/207/207 206/206/206
f 527/527/527 530/530/530 529/529/529
f 529/529/529 528/528/528 527/527/527
f 523/523/523 526/526/526 525/525/525
f 525/525/525 524/524/524 523/523/523
f 519/519/519 522/522/522 521/521/521
f 521/521/521 520/520/520 519/519/519
f 202/202/202 204/204/204 205/205/205
f 205/205/205 203/203/203 202/202/202
f 198/198/198 199/199/199 201/201/201
f 201/201/201 200/200/200 198/198/198
f 518/518/518 517/517/517 516/516/516
f 515/515/515 514/514/514 513/513/513
f 512/512/512 511/511/511 510/510/510
f 509/509/509 187/187/187 508/508/508
f 193/193/193 507/507/507 192/192/192
f 506/506/506 505/505/505 186/186/186
f 504/504/504 197/197/197 503/503/503
f 196/196/196 190/190/190 191/191/191
f 502/502/502 189/189/189 501/501/501
f 195/195/195 194/194/194 188/188/188
f 500/500/500 183/183/183 499/499/499
f 185/185/185 184/184/184 182/182/182
f 498/498/498 181/181/181 497/497/497
f 179/179/179 178/178/178 180/180/180
f 496/496/496 175/175/175 495/495/495
f 177/177/177 176/176/176 174/174/174
f 494/494/494 173/173/173 493/493/493
f 171/171/171 170/170/170 172/172/172
f 492/492/492 491/491/491 490/490/490
f 730/730/730 729/729/729 728/728/728
f 727/727/727 726/726/726 725/725/725
f 169/169/169 166/166/166 489/489/489
f 489/489/489 488/488/488 169/169/169
f 168/168/168 165/165/165 164/164/164
f 164/164/164 167/167/167 168/168/168
f 487/487/487 486/486/486 485/485/485
f 724/724/724 723/723/723 722/722/722
f 721/721/721 720/720/720 719/719/719
f 163/163/163 162/162/162 484/484/484
f 484/484/484 483/483/483 163/163/163
f 160/160/160 159/159/159 158/158/158
f 158/158/158 161/161/161 160/160/160
f 482/482/482 481/481/481 480/480/480
f 718/718/718 717/717/717 716/716/716
f 715/715/715 714/714/714 713/713/713
f 157/157/157 154/154/154 479/479/479
f 479/479/479 478/478/478 157/157/157
f 156/156/156 153/153/153 152/152/152
f 152/152/152 155/155/155 156/156/156
f 146/146/146 150/150/150 151/151/151
f 151/151/151 147/147/147 146/146/146
f 145/145/145 149/149/149 150/150/150
f 150/150/150 146/146/146 145/145/145
f 144/144/144 148/148/148 149/149/149
f 149/149/149 145/145/145 144/144/144
f 142/142/142 146/146/146 147/147/147
f 147/147/147 143/143/143 142/142/142
f 141/141/141 145/145/145 146/146/146
f 146/146/146 142/142/142 141/141/141
f 140/140/140 144/144/144 145/145/145
f 145/145/145 141/141/141 140/140/140
f 138/138/138 142/142/142 143/143/143
f 143/143/143 139/139/139 138/138/138
f 137/137/137 141/141/141 142/142/142
f 142/142/142 138/138/138 137/137/137
f 136/136/136 140/140/140 141/141/141
f 141/141/141 137/137/137 136/136/136
f 128/128/128 123/123/123 124/124/124
f 124/124/124 134/134/134 128/128/128
f 135/135/135 130/130/130 127/127/127
f 127/127/127 133/133/133 135/135/135
f 133/133/133 127/127/127 128/128/128
f 128/128/128 134/134/134 133/133/133
f 122/122/122 123/123/123 131/131/131
f 131/131/131 132/132/132 122/122/122
f 125/125/125 131/131/131 123/123/123
f 123/123/123 128/128/128 125/125/125
f 126/126/126 127/127/127 130/130/130
f 130/130/130 129/129/129 126/126/126
f 125/125/125 128/128/128 127/127/127
f 127/127/127 126/126/126 125/125/125
f 121/121/121 124/124/124 123/123/123
f 123/123/123 122/122/122 121/121/121
f 477/477/477 118/118/118 476/476/476
f 120/120/120 119/119/119 117/117/117
f 475/475/475 116/116/116 474/474/474
f 114/114/114 113/113/113 115/115/115
f 473/473/473 472/472/472 471/471/471
f 470/470/470 469/469/469 468/468/468
f 467/467/467 466/466/466 465/465/465
f 464/464/464 102/102/102 463/463/463
f 108/108/108 462/462/462 107/107/107
f 461/461/461 460/460/460 101/101/101
f 459/459/459 112/112/112 458/458/458
f 111/111/111 105/105/105 106/106/106
f 457/457/457 104/104/104 456/456/456
f 110/110/110 109/109/109 103/103/103
f 93/93/93 88/88/88 89/89/89
f 89/89/89 99/99/99 93/93/93
f 100/100/100 95/95/95 92/92/92
f 92/92/92 98/98/98 100/100/100
f 98/98/98 92/92/92 93/93/93
f 93/93/93 99/99/99 98/98/98
f 87/87/87 88/88/88 96/96/96
f 96/96/96 97/97/97 87/87/87
f 90/90/90 96/96/96 88/88/88
f 88/88/88 93/93/93 90/90/90
f 91/91/91 92/92/92 95/95/95
f 95/95/95 94/94/94 91/91/91
f 90/90/90 93/93/93 92/92/92
f 92/92/92 91/91/91 90/90/90
f 86/86/86 89/89/89 88/88/88
f 88/88/88 87/87/87 86/86/86
f 455/455/455 454/454/454 453/453/453
f 712/712/712 711/711/711 710/710/710
f 709/709/709 708/708/708 707/707/707
f 85/85/85 82/82/82 452/452/452
f 452/452/452 451/451/451 85/85/85
f 84/84/84 81/81/81 80/80/80
f 80/80/80 83/83/83 84/84/84
f 450/450/450 449/449/449 448/448/448
f 706/706/706 705/705/705 704/704/704
f 703/703/703 702/702/702 701/701/701
f 79/79/79 78/78/78 447/447/447
f 447/447/447 446/446/446 79/79/79
f 76/76/76 75/75/75 74/74/74
f 74/74/74 77/77/77 76/76/76
f 445/445/445 444/444/444 443/443/443
f 700/700/700 699/699/699 698/698/698
f 697/697/697 696/696/696 695/695/695
f 73/73/73 72/72/72 442/442/442
f 442/442/442 441/441/441 73/73/73
f 70/70/70 69/69/69 68/68/68
f 68/68/68 71/71/71 70/70/70
f 440/440/440 439/439/439 438/438/438
f 694/694/694 693/693/693 692/692/692
f 691/691/691 690/690/690 689/689/689
f 67/67/67 64/64/64 437/437/437
f 437/437/437 436/436/436 67/67/67
f 66/66/66 63/63/63 62/62/62
f 62/62/62 65/65/65 66/66/66
f 435/435/435 434/434/434 433/433/433
f 688/688/688 687/687/687 686/686/686
f 685/685/685 684/684/684 683/683/683
f 61/61/61 58/58/58 432/432/432
f 432/432/432 431/431/431 61/61/61
f 60/60/60 57/57/57 56/56/56
f 56/56/56 59/59/59 60/60/60
f 427/427/427 430/430/430 429/429/429
f 429/429/429 428/428/428 427/427/427
f 423/423/423 426/426/426 425/425/425
f 425/425/425 424/424/424 423/423/423
f 419/419/419 422/422/422 421/421/421
f 421/421/421 420/420/420 419/419/419
f 52/52/52 54/54/54 55/55/55
f 55/55/55 53/53/53 52/52/52
f 48/48/48 49/49/49 51/51/51
f 51/51/51 50/50/50 48/48/48
f 43/43/43 46/46/46 47/47/47
f 47/47/47 45/45/45 43/43/43
f 42/42/42 44/44/44 47/47/47
f 47/47/47 46/46/46 42/42/42
f 38/38/38 39/39/39 41/41/41
f 41/41/41 40/40/40 38/38/38
f 36/36/36 37/37/37 35/35/35
f 35/35/35 34/34/34 36/36/36
f 27/27/27 32/32/32 33/33/33
f 33/33/33 28/28/28 27/27/27
f 26/26/26 31/31/31 32/32/32
f 32/32/32 27/27/27 26/26/26
f 25/25/25 30/30/30 31/31/31
f 31/31/31 26/26/26 25/25/25
f 24/24/24 29/29/29 30/30/30
f 30/30/30 25/25/25 24/24/24
f 22/22/22 27/27/27 28/28/28
f 28/28/28 23/23/23 22/22/22
f 21/21/21 26/26/26 27/27/27
f 27/27/27 22/22/22 21/21/21
f 20/20/20 25/25/25 26/26/26
f 26/26/26 21/21/21 20/20/20
f 19/19/19 24/24/24 25/25/25
f 25/25/25 20/20/20 19/19/19
f 17/17/17 22/22/22 23/23/23
f 23/23/23 18/18/18 17/17/17
f 16/16/16 21/21/21 22/22/22
f 22/22/22 17/17/17 16/16/16
f 15/15/15 20/20/20 21/21/21
f 21/21/21 16/16/16 15/15/15
f 14/14/14 19/19/19 20/20/20
f 20/20/20 15/15/15 14/14/14
f 12/12/12 17/17/17 18/18/18
f 18/18/18 13/13/13 12/12/12
f 11/11/11 16/16/16 17/17/17
f 17/17/17 12/12/12 11/11/11
f 10/10/10 15/15/15 16/16/16
f 16/16/16 11/11/11 10/10/10
f 9/9/9 14/14/14 15/15/15
f 15/15/15 10/10/10 9/9/9
f 418/418/418 6/6/6 417/417/417
f 8/8/8 7/7/7 5/5/5
f 416/416/416 4/4/4 415/415/415
f 2/2/2 1/1/1 3/3/3
