v -0.290378 0.297461 0.22875999999999996
v -0.522038 0.299072 0.22875999999999996
v -0.516495 -0.293108 0.22876000000000002
v -0.298473 -0.299484 0.22876000000000002
v -0.284308 0.52005 0.22875999999999996
v 0.292402 0.295437 0.22875999999999996
v 0.288355 0.518027 0.22875999999999996
v -0.298473 -0.509933 0.22876000000000002
v 0.286331 -0.51398 0.22876000000000002
v 0.292402 -0.287343 0.22876000000000002
v 0.512968 0.28532 0.22875999999999996
v 0.514578 -0.289059 0.22876000000000002
v 0.230351 -0.00030299999999996904 0.505371
v 0.165962 0.16710700000000003 0.505371
v 0.001413 0.23149600000000004 0.505371
v -0.17029 0.16853800000000002 0.505371
v -0.23611 0.001128000000000031 0.505371
v 0.167393 -0.16628299999999996 0.505371
v 0.001413 -0.23496399999999998 0.505371
v -0.173152 -0.16914499999999996 0.505371
vt 0.000000 0.000000
vt 0.000000 0.000000
vt 0.000000 0.000000
vt 0.000000 0.000000
vt 0.000000 0.000000
vt 0.000000 0.000000
vt 0.000000 0.000000
vt 0.000000 0.000000
vt 0.000000 0.000000
vt 0.000000 0.000000
vt 0.000000 0.000000
vt 0.000000 0.000000
vt 0.000000 0.000000
vt 0.000000 0.000000
vt 0.000000 0.000000
vt 0.000000 0.000000
vt 0.000000 0.000000
vt 0.000000 0.000000
vt 0.000000 0.000000
vt 0.000000 0.000000
vn 0 6.123233995736766E-17 1
vn 0 6.123233995736766E-17 1
vn 0 6.123233995736766E-17 1
vn 0 6.123233995736766E-17 1
vn 0 6.123233995736766E-17 1
vn 0 6.123233995736766E-17 1
vn 0 6.123233995736766E-17 1
vn 0 6.123233995736766E-17 1
vn 0 6.123233995736766E-17 1
vn 0 6.123233995736766E-17 1
vn 0 6.123233995736766E-17 1
vn 0 6.123233995736766E-17 1
vn 0 6.123233995736766E-17 1
vn 0 6.123233995736766E-17 1
vn 0 6.123233995736766E-17 1
vn 0 6.123233995736766E-17 1
vn 0 6.123233995736766E-17 1
vn 0 6.123233995736766E-17 1
vn 0 6.123233995736766E-17 1
vn 0 6.123233995736766E-17 1
g water
f 1/1/1 2/2/2 3/3/3
f 1/1/1 3/3/3 4/4/4
f 1/1/1 4/4/4 5/5/5
f 6/6/6 7/7/7 5/5/5
f 4/4/4 6/6/6 5/5/5
f 4/4/4 8/8/8 9/9/9
f 4/4/4 9/9/9 10/10/10
f 4/4/4 10/10/10 6/6/6
f 10/10/10 11/11/11 6/6/6
f 10/10/10 12/12/12 11/11/11
f 13/13/13 14/14/14 15/15/15
f 13/13/13 15/15/15 16/16/16
f 13/13/13 16/16/16 17/17/17
f 18/18/18 13/13/13 17/17/17
f 18/18/18 17/17/17 19/19/19
f 17/17/17 20/20/20 19/19/19
