v -0.346892 0.142203 0.147181
v -0.289785 -0.129802 0.147181
v -0.48507 -0.170802 0.147181
v -0.54218 0.10120200000000001 0.147181
v -0.48507 -0.170802 -0.00817199999999999
v -0.54218 0.101202 -0.008172000000000007
v -0.346892 0.142203 -0.008172000000000009
v -0.289785 -0.129802 -0.008171999999999992
v -0.284987 0.539722 0.16684099999999996
v -0.147923 0.385309 0.16684299999999996
v -0.394499 0.15557 0.166839
v -0.534374 0.322064 0.16680599999999998
v -0.284438 0.536337 0.003218999999999967
v -0.146398 0.38511 0.0032189999999999767
v -0.394767 0.15884 0.0032189999999999905
v -0.535356 0.32293 0.00321899999999998
v -0.227911 0.220514 0.185767
v -0.163302 0.128246 0.185767
v -0.25557 0.06363800000000001 0.185767
v -0.320178 0.155906 0.185767
v -0.176482 0.128752 -0.0043830000000000075
v -0.253613 0.074743 -0.004383000000000004
v -0.307621 0.151876 -0.004383000000000009
v -0.230489 0.205883 -0.004383000000000013
v 0.098831 -0.446608 2.7346852883680056E-17
v 0.004788 -0.334587 2.0487544929315776E-17
v 0.116817 -0.240636 1.4734705357981123E-17
v 0.21087 -0.352652 2.159370715064562E-17
v 0.097303 -0.443841 0.291623
v 0.003085 -0.33211 0.291623
v 0.1149 -0.23881399999999997 0.291623
v 0.209218 -0.350493 0.291623
v 0.499914 -0.08809699999999998 0.137206
v 0.42531 -0.06440599999999999 0.162021
v 0.351494 -0.04103799999999999 0.138636
v 0.363882 -0.471774 0.13719900000000002
v 0.289824 -0.446098 0.16199300000000003
v 0.216615 -0.420376 0.13854200000000003
v 0.251524 -0.418202 0.12835600000000003
v 0.248894 -0.05140499999999999 0.128356
v 0.428547 -0.05053799999999999 0.128356
v 0.430462 -0.417069 0.12835600000000003
v 0.251524 -0.418202 -0.00043599999999997444
v 0.248894 -0.051405 -0.0004359999999999969
v 0.428547 -0.050538 -0.00043599999999999694
v 0.430462 -0.417069 -0.0004359999999999745
v 0.328767 -0.022540999999999988 0.192313
v 0.149849 0.015063000000000012 0.192225
v 0.149849 0.015063 -0.0048270000000000006
v 0.328767 -0.022542 -0.004795999999999998
v 0.185684 0.197802 -0.005314000000000012
v 0.185684 0.197802 0.190859
v 0.364863 0.160142 0.190986
v 0.364863 0.160141 -0.00526900000000001
v -0.54218 0.10120200000000001 0.147181
v -0.48507 -0.170802 0.147181
v -0.54218 0.101202 -0.008172000000000007
v -0.346892 0.142203 0.147181
v -0.54218 0.10120200000000001 0.147181
v -0.346892 0.142203 -0.008172000000000009
v -0.289785 -0.129802 0.147181
v -0.346892 0.142203 0.147181
v -0.289785 -0.129802 -0.008171999999999992
v -0.48507 -0.170802 -0.00817199999999999
v -0.48507 -0.170802 0.147181
v -0.289785 -0.129802 0.147181
v -0.147923 0.385309 0.16684299999999996
v -0.284987 0.539722 0.16684099999999996
v -0.534374 0.322064 0.16680599999999998
v -0.394499 0.15557 0.166839
v -0.535356 0.32293 0.00321899999999998
v -0.284438 0.536337 0.003218999999999967
v -0.284987 0.539722 0.16684099999999996
v -0.534374 0.322064 0.16680599999999998
v -0.147923 0.385309 0.16684299999999996
v -0.146398 0.38511 0.0032189999999999767
v -0.394767 0.15884 0.0032189999999999905
v -0.394499 0.15557 0.166839
v -0.25557 0.06363800000000001 0.185767
v -0.163302 0.128246 0.185767
v -0.320178 0.155906 0.185767
v -0.227911 0.220514 0.185767
v -0.320178 0.155906 0.185767
v -0.307621 0.151876 -0.004383000000000009
v -0.227911 0.220514 0.185767
v -0.230489 0.205883 -0.004383000000000013
v -0.176482 0.128752 -0.0043830000000000075
v -0.163302 0.128246 0.185767
v 0.209218 -0.350493 0.291623
v 0.21087 -0.352652 2.159370715064562E-17
v 0.003085 -0.33211 0.291623
v 0.1149 -0.23881399999999997 0.291623
v 0.209218 -0.350493 0.291623
v 0.097303 -0.443841 0.291623
v 0.248894 -0.05140499999999999 0.128356
v 0.251524 -0.418202 0.12835600000000003
v 0.428547 -0.05053799999999999 0.128356
v 0.248894 -0.05140499999999999 0.128356
v 0.248894 -0.051405 -0.0004359999999999969
v 0.430462 -0.417069 0.12835600000000003
v 0.428547 -0.05053799999999999 0.128356
v 0.428547 -0.050538 -0.00043599999999999694
v 0.251524 -0.418202 0.12835600000000003
v 0.430462 -0.417069 0.12835600000000003
v 0.430462 -0.417069 -0.0004359999999999745
v 0.251524 -0.418202 -0.00043599999999997444
v 0.149849 0.015063000000000012 0.192225
v 0.185684 0.197802 0.190859
v 0.328767 -0.022540999999999988 0.192313
v 0.149849 0.015063 -0.0048270000000000006
v 0.149849 0.015063000000000012 0.192225
v 0.364863 0.160142 0.190986
v 0.328767 -0.022542 -0.004795999999999998
v 0.328767 -0.022540999999999988 0.192313
v 0.364863 0.160142 0.190986
v 0.185684 0.197802 0.190859
v 0.185684 0.197802 -0.005314000000000012
v 0.364863 0.160141 -0.00526900000000001
v -0.25557 0.06363800000000001 0.185767
v -0.253613 0.074743 -0.004383000000000004
v -0.253613 0.074743 -0.004383000000000004
v 0.003085 -0.33211 0.291623
v 0.004788 -0.334587 2.0487544929315776E-17
v 0.003085 -0.33211 0.291623
v 0.1149 -0.23881399999999997 0.291623
v 0.116817 -0.240636 1.4734705357981123E-17
v 0.1149 -0.23881399999999997 0.291623
v 0.098831 -0.446608 2.7346852883680056E-17
v 0.098831 -0.446608 2.7346852883680056E-17
v 0.097303 -0.443841 0.291623
vt 0.913742 0.237634
vt 0.867124 0.237634
vt 0.867124 0.275382
vt 0.913742 0.275382
vt 0.913929 0.281124
vt 0.867311 0.281124
vt 0.890024 0.164098
vt 0.867124 0.206053
vt 0.858378 0.297944
vt 0.858519 0.266850
vt 0.817380 0.266991
vt 0.816777 0.298038
vt 0.789583 0.229291
vt 0.816322 0.229291
vt 0.720183 0.229522
vt 0.747518 0.229522
vt 0.084623 0.272480
vt 0.071761 0.277427
vt 0.076443 0.291015
vt 0.091137 0.286201
vt 0.052797 0.271006
vt 0.036712 0.271006
vt 0.019446 0.271006
vt 0.027527 0.271006
vt 0.452552 0.219309
vt 0.485521 0.219309
vt 0.518284 0.219309
vt 0.548997 0.219309
vt 0.452552 0.166611
vt 0.485521 0.166611
vt 0.518284 0.166611
vt 0.548997 0.166611
vt 0.866672 0.576883
vt 0.855658 0.576883
vt 0.844837 0.576883
vt 0.866671 0.533373
vt 0.855510 0.533373
vt 0.844836 0.533374
vt 0.774114 0.006345
vt 0.682336 0.006345
vt 0.682336 0.045058
vt 0.774114 0.045058
vt 0.432119 0.006345
vt 0.312378 0.006345
vt 0.623466 0.006345
vt 0.498930 0.006345
vt 0.767239 0.195702
vt 0.737078 0.195702
vt 0.703550 0.196010
vt 0.837923 0.165280
vt 0.703550 0.163409
vt 0.737078 0.163101
vt 0.767239 0.163101
vt 0.801142 0.162485
vt 0.867311 0.307651
vt 0.913929 0.307651
vt 0.890024 0.201846
vt 0.866503 0.164098
vt 0.866503 0.201846
vt 0.913742 0.206053
vt 0.867124 0.232580
vt 0.913742 0.232580
vt 0.893348 0.163833
vt 0.893348 0.201581
vt 0.916869 0.201581
vt 0.916869 0.163833
vt 0.816322 0.205930
vt 0.789574 0.205850
vt 0.747509 0.205944
vt 0.720143 0.206161
vt 0.747518 0.229522
vt 0.789583 0.229291
vt 0.789574 0.205850
vt 0.747509 0.205944
vt 0.816322 0.205930
vt 0.816322 0.229291
vt 0.858387 0.229059
vt 0.858387 0.205698
vt 0.036712 0.302770
vt 0.052797 0.302770
vt 0.019446 0.302770
vt 0.027199 0.302115
vt 0.044625 0.302770
vt 0.044625 0.271006
vt 0.044791 0.302770
vt 0.044791 0.271006
vt 0.029788 0.271006
vt 0.029348 0.302804
vt 0.421574 0.166611
vt 0.421574 0.219309
vt 0.490757 0.235212
vt 0.467522 0.225247
vt 0.457896 0.249305
vt 0.481134 0.259271
vt 0.312378 0.045058
vt 0.432118 0.045058
vt 0.623466 0.045058
vt 0.678375 0.045058
vt 0.678375 0.006345
vt 0.498930 0.045058
vt 0.618142 0.045058
vt 0.618142 0.006345
vt 0.435329 0.045058
vt 0.495251 0.045058
vt 0.495251 0.006345
vt 0.435329 0.006345
vt 0.734013 0.196010
vt 0.734013 0.163409
vt 0.807462 0.165280
vt 0.837923 0.195224
vt 0.807462 0.195224
vt 0.770679 0.162485
vt 0.801142 0.195086
vt 0.770679 0.195086
vt 0.807462 0.165280
vt 0.807462 0.195224
vt 0.837923 0.195224
vt 0.837923 0.165280
vt 0.036712 0.302770
vt 0.036712 0.271006
vt 0.036712 0.271006
vt 0.485521 0.166611
vt 0.485521 0.219309
vt 0.485521 0.166611
vt 0.518284 0.166611
vt 0.518284 0.219309
vt 0.518284 0.166611
vt 0.452552 0.219309
vt 0.452552 0.219309
vt 0.452552 0.166611
vn 0 6.123233995736766E-17 1
vn 0 6.123233995736766E-17 1
vn 0 6.123233995736766E-17 1
vn 0 6.123233995736766E-17 1
vn -0.978662 -0.205477 1.2581837517420035E-17
vn -0.978662 -0.205477 1.2581837517420035E-17
vn -0.20547 0.978663 -5.992582551969731E-17
vn 0.978663 0.205471 -1.258147012338029E-17
vn -9.6E-05 2.0000000000061235E-05 1
vn -1.3E-05 -2.9999999999387676E-06 1
vn -9.6E-05 2.0000000000061235E-05 1
vn -0.000178 4.400000000006123E-05 1
vn 0.738525 0.674128 -0.011471000000000042
vn 0.743238 0.669022 -0.0026550000000000406
vn -0.762524 -0.646939 -0.00524599999999996
vn -0.759392 -0.650633 0.00111300000000004
vn 0.146915 0.833218 0.533071
vn 0.829716 -0.14656699999999998 0.5386
vn 0.112385 -0.757811 0.642722
vn -0.922952 -0.13711199999999998 0.359665
vn 0.982437 -0.173549 -0.06855199999999999
vn -0.475406 -0.877972 -0.056171999999999944
vn -0.877445 0.474831 -0.06801600000000002
vn 0.173125 0.981815 -0.07789400000000006
vn 0.231098 -0.972881 0.009849000000000059
vn -0.972388 -0.23335 -0.0032049999999999856
vn -0.23119 0.972875 -0.008156000000000059
vn 0.972308 0.233663 0.004421999999999986
vn -0.397278 -0.917678 0.006133000000000057
vn -0.917196 0.398352 -0.008178000000000024
vn 0.396944 0.917835 -0.0037670000000000563
vn 0.917222 -0.39828 0.008740000000000024
vn 0.284967 -0.10105099999999995 0.953196
vn 0.102923 -0.03654699999999994 0.994018
vn -0.272646 0.09670800000000006 0.957242
vn 0.284585 -0.10100099999999994 0.953315
vn -0.090616 0.032092000000000065 0.995369
vn -0.272653 0.09670800000000006 0.95724
vn 0 6.123233995736766E-17 1
vn 0 6.123233995736766E-17 1
vn 0 6.123233995736766E-17 1
vn 0 6.123233995736766E-17 1
vn -0.999974 -0.007171 4.390971098342835E-19
vn -0.999974 -0.007171 4.390971098342835E-19
vn -0.004831 0.999988 -6.123160516928818E-17
vn 0.999986 0.005224 -3.198777439372887E-19
vn 0.000913 0.007190000000000062 0.999974
vn 0.001041 0.0072730000000000615 0.999973
vn -0.98131 0.192436 -1.1783306572036003E-17
vn -0.205683 -0.978619 2.000000000059923E-06
vn -0.98131 0.192436 -1.1783306572036003E-17
vn 0.000913 0.007190000000000062 0.999974
vn 0.000785 0.007107000000000061 0.999974
vn 0.981034 -0.193837 1.000000000011869E-06
vn -0.978662 -0.205477 1.2581837517420035E-17
vn -0.978662 -0.205477 1.2581837517420035E-17
vn -0.20547 0.978663 -5.992582551969731E-17
vn -0.20547 0.978663 -5.992582551969731E-17
vn -0.20547 0.978663 -5.992582551969731E-17
vn 0.978663 0.205471 -1.258147012338029E-17
vn 0.978663 0.205471 -1.258147012338029E-17
vn 0.978663 0.205471 -1.258147012338029E-17
vn 0.205472 -0.978663 5.992582551969731E-17
vn 0.205472 -0.978663 5.992582551969731E-17
vn 0.205472 -0.978663 5.992582551969731E-17
vn 0.205472 -0.978663 5.992582551969731E-17
vn 0.747857 0.663832 0.006161999999999959
vn 0.743238 0.669022 -0.0026550000000000406
vn -0.762524 -0.646939 -0.00524599999999996
vn -0.765607 -0.643204 -0.01160399999999996
vn -0.652718 0.757585 -0.004999000000000046
vn -0.647767 0.761627 -0.017930000000000047
vn -0.652718 0.757585 -0.004999000000000046
vn -0.657532 0.753385 0.007933999999999953
vn 0.677576 -0.735441 -0.004280999999999955
vn 0.673439 -0.739208 0.007175000000000045
vn 0.677576 -0.735441 -0.004280999999999955
vn 0.681602 -0.731553 -0.015735999999999955
vn 0.112385 -0.757811 0.642722
vn 0.829716 -0.14656699999999998 0.5386
vn -0.922952 -0.13711199999999998 0.359665
vn 0.146915 0.833218 0.533071
vn -0.922952 -0.13711199999999998 0.359665
vn -0.877445 0.474831 -0.06801600000000002
vn 0.146915 0.833218 0.533071
vn 0.173125 0.981815 -0.07789400000000006
vn 0.982437 -0.173549 -0.06855199999999999
vn 0.829716 -0.14656699999999998 0.5386
vn 0.917222 -0.39828 0.008740000000000024
vn 0.972308 0.233663 0.004421999999999986
vn 0 6.123233995736766E-17 1
vn 0 6.123233995736766E-17 1
vn 0 6.123233995736766E-17 1
vn 0 6.123233995736766E-17 1
vn -0.999974 -0.007171 4.390971098342835E-19
vn -0.999974 -0.007171 4.390971098342835E-19
vn -0.004831 0.999988 -6.123160516928818E-17
vn -0.004831 0.999988 -6.123160516928818E-17
vn -0.004831 0.999988 -6.123160516928818E-17
vn 0.999986 0.005224 -3.198777439372887E-19
vn 0.999986 0.005224 -3.198777439372887E-19
vn 0.999986 0.005224 -3.198777439372887E-19
vn 0.006332 -0.99998 6.12311153105685E-17
vn 0.006332 -0.99998 6.12311153105685E-17
vn 0.006332 -0.99998 6.12311153105685E-17
vn 0.006332 -0.99998 6.12311153105685E-17
vn -0.98131 0.192436 -1.1783306572036003E-17
vn -0.981309 0.192436 -1.1783306572036003E-17
vn -0.205682 -0.978619 1.000000000059923E-06
vn -0.205682 -0.978619 1.000000000059923E-06
vn -0.205681 -0.978619 5.992313129673918E-17
vn 0.981034 -0.193837 1.000000000011869E-06
vn 0.981034 -0.193837 1.000000000011869E-06
vn 0.981034 -0.193837 1.1869093080316275E-17
vn 0.20569 0.978617 -2.000000000059923E-06
vn 0.205688 0.978618 -5.992307006439922E-17
vn 0.20569 0.978617 -2.000000000059923E-06
vn 0.205693 0.978617 -5.000000000059924E-06
vn 0.112385 -0.757811 0.642722
vn -0.475406 -0.877972 -0.056171999999999944
vn -0.475406 -0.877972 -0.056171999999999944
vn -0.917196 0.398352 -0.008178000000000024
vn -0.972388 -0.23335 -0.0032049999999999856
vn -0.917196 0.398352 -0.008178000000000024
vn 0.396944 0.917835 -0.0037670000000000563
vn -0.23119 0.972875 -0.008156000000000059
vn 0.396944 0.917835 -0.0037670000000000563
vn 0.231098 -0.972881 0.009849000000000059
vn 0.231098 -0.972881 0.009849000000000059
vn -0.397278 -0.917678 0.006133000000000057
g Standard_3
f 115/115/115 118/118/118 117/117/117
f 117/117/117 116/116/116 115/115/115
f 112/112/112 114/114/114 113/113/113
f 113/113/113 54/54/54 112/112/112
f 109/109/109 111/111/111 110/110/110
f 110/110/110 50/50/50 109/109/109
f 107/107/107 108/108/108 51/51/51
f 51/51/51 49/49/49 107/107/107
f 47/47/47 53/53/53 52/52/52
f 52/52/52 48/48/48 47/47/47
f 103/103/103 106/106/106 105/105/105
f 105/105/105 104/104/104 103/103/103
f 100/100/100 46/46/46 102/102/102
f 102/102/102 101/101/101 100/100/100
f 97/97/97 45/45/45 99/99/99
f 99/99/99 98/98/98 97/97/97
f 95/95/95 44/44/44 43/43/43
f 43/43/43 96/96/96 95/95/95
f 41/41/41 40/40/40 39/39/39
f 39/39/39 42/42/42 41/41/41
f 37/37/37 34/34/34 35/35/35
f 35/35/35 38/38/38 37/37/37
f 36/36/36 33/33/33 34/34/34
f 34/34/34 37/37/37 36/36/36
f 91/91/91 94/94/94 93/93/93
f 93/93/93 92/92/92 91/91/91
f 89/89/89 130/130/130 129/129/129
f 128/128/128 90/90/90 89/89/89
f 127/127/127 32/32/32 28/28/28
f 28/28/28 126/126/126 125/125/125
f 124/124/124 31/31/31 27/27/27
f 27/27/27 123/123/123 122/122/122
f 29/29/29 30/30/30 26/26/26
f 26/26/26 25/25/25 29/29/29
f 85/85/85 88/88/88 87/87/87
f 87/87/87 86/86/86 85/85/85
f 82/82/82 24/24/24 84/84/84
f 84/84/84 83/83/83 82/82/82
f 81/81/81 23/23/23 121/121/121
f 120/120/120 119/119/119 81/81/81
f 79/79/79 22/22/22 21/21/21
f 21/21/21 80/80/80 79/79/79
f 20/20/20 19/19/19 17/17/17
f 19/19/19 18/18/18 17/17/17
f 75/75/75 78/78/78 77/77/77
f 77/77/77 76/76/76 75/75/75
f 71/71/71 74/74/74 73/73/73
f 73/73/73 72/72/72 71/71/71
f 15/15/15 70/70/70 69/69/69
f 69/69/69 16/16/16 15/15/15
f 14/14/14 13/13/13 68/68/68
f 68/68/68 67/67/67 14/14/14
f 11/11/11 10/10/10 9/9/9
f 9/9/9 12/12/12 11/11/11
f 63/63/63 66/66/66 65/65/65
f 65/65/65 64/64/64 63/63/63
f 60/60/60 62/62/62 61/61/61
f 61/61/61 8/8/8 60/60/60
f 57/57/57 59/59/59 58/58/58
f 58/58/58 7/7/7 57/57/57
f 5/5/5 56/56/56 55/55/55
f 55/55/55 6/6/6 5/5/5
f 3/3/3 2/2/2 1/1/1
f 1/1/1 4/4/4 3/3/3
