v -0.5 0.6909409999999999 -2.004229
v -0.5 0.6909409999999998 -3.838305
v -0.5 -0.020319000000000236 -3.838076
v -0.5 -0.02031900000000012 -2.004
v -0.294736 0.3417149999999999 -2.004229
v -0.294736 0.34171499999999977 -3.838305
v -0.294736 0.5910779999999998 -3.838305
v -0.294736 0.5910779999999999 -2.004229
v -0.294736 0.5910779999999999 -2.004229
v -0.294736 0.5910779999999998 -3.838305
v -0.398526 0.6909409999999998 -3.838305
v -0.398526 0.6909409999999999 -2.004229
v -0.398526 0.6909409999999999 -2.004229
v -0.398526 0.6909409999999998 -3.838305
v -0.5 0.6909409999999998 -3.838305
v -0.5 0.6909409999999999 -2.004229
v 0.5 -0.02031800000000012 -2.004
v 0.5 -0.020318000000000235 -3.838076
v 0.5 0.6909409999999998 -3.838305
v 0.5 0.6909409999999999 -2.004229
v 0.323752 0.3628399999999999 -2.011719
v 0.323752 0.3628399999999998 -3.845795
v -0.318206 0.3628399999999998 -3.845795
v -0.318206 0.3628399999999999 -2.011719
v 0.499888 -0.023395999999999993 0.135628
v -0.501258 -0.023190999999999993 0.135629
v -0.501262 -0.023190999999999996 0.083212
v 0.499885 -0.023395999999999997 0.083211
v 0.500678 0.023396000000000007 0.135628
v -0.50075 0.023191000000000007 0.135628
v -0.501258 -0.023190999999999993 0.135629
v 0.499888 -0.023395999999999993 0.135628
v 0.23604 0.09578899999999997 -0.514162
v 0.23604 0.13511899999999996 -0.519735
v 0.319275 0.13511899999999996 -0.519735
v 0.319275 0.09578899999999997 -0.514162
v -0.236222 0.13511899999999996 -0.519735
v -0.236222 0.09578899999999997 -0.514162
v -0.318916 0.09578899999999997 -0.514162
v -0.318916 0.13511899999999996 -0.519735
v -0.318206 0.3628399999999999 -2.011719
v -0.318206 0.11486199999999999 -0.11846700000000002
v 0.323752 0.11486199999999999 -0.11846700000000002
v 0.323752 0.3628399999999999 -2.011719
v 0.294736 0.34171499999999977 -3.838305
v 0.294736 0.3417149999999999 -2.004229
v 0.294736 0.5910779999999999 -2.004229
v 0.294736 0.5910779999999998 -3.838305
v 0.398526 0.6909409999999999 -2.004229
v 0.398526 0.6909409999999998 -3.838305
v 0.5 0.6909409999999999 -2.004229
v 0.5 0.6909409999999998 -3.838305
v -0.5 -0.020318999999999993 0.134464
v -0.294736 0.013895000000000008 0.134464
v -0.294736 0.165494 0.134464
v -0.5 0.26543 0.13446399999999997
v -0.398526 0.26543 0.13446399999999997
v 0.294736 0.013896000000000009 0.134464
v 0.5 -0.020317999999999992 0.134464
v 0.294736 0.165494 0.134464
v 0.5 0.265431 0.13446399999999997
v 0.398526 0.265431 0.13446399999999997
v 0.5 0.265431 0.13446399999999997
v 0.5 -0.020317999999999992 0.134464
v 0.5 -0.02031800000000012 -2.004
v 0.5 0.6905779999999999 -1.807868
v 0.5 0.6909409999999999 -2.004229
v -0.5 0.6909409999999999 -2.004229
v -0.5 -0.02031900000000012 -2.004
v -0.5 0.6905779999999999 -1.807868
v -0.5 0.26543 0.13446399999999997
v -0.5 -0.020318999999999993 0.134464
v -0.236222 0.21351099999999998 -0.454523
v -0.236222 0.13511899999999996 -0.519735
v -0.318916 0.13511899999999996 -0.519735
v -0.318916 0.21351099999999998 -0.454523
v -0.236222 0.24525099999999997 -0.385349
v -0.318916 0.24525099999999997 -0.385349
v -0.204586 0.22009399999999998 -0.241306
v -0.318916 0.177237 0.0034519999999999894
v -0.118157 0.201635 -0.136799
v -9.1E-05 0.194878 -0.09854700000000001
v 0.319275 0.177237 0.0034519999999999894
v 0.117974 0.201635 -0.136799
v -0.318916 0.131118 0.09470499999999998
v 0.204404 0.22009399999999998 -0.241306
v 0.319275 0.131118 0.09470499999999998
v 0.319275 0.24525099999999997 -0.385349
v 0.321513 0.08132200000000002 0.131585
v 0.236039 0.24525099999999997 -0.385349
v -0.318561 0.08132200000000002 0.131585
v 0.236039 0.21351099999999998 -0.454523
v -0.319813 0.018566000000000006 0.131788
v 0.323979 0.018566000000000006 0.131788
v 0.319275 0.21351099999999998 -0.454523
v 0.23604 0.13511899999999996 -0.519735
v 0.319275 0.13511899999999996 -0.519735
v 0.117974 0.10751499999999999 -0.173413
v -9.1E-05 0.10933899999999999 -0.132643
v -9.1E-05 0.194878 -0.09854700000000001
v 0.117974 0.201635 -0.136799
v 0.204404 0.10253399999999999 -0.284305
v 0.204404 0.22009399999999998 -0.241306
v 0.236039 0.24525099999999997 -0.385349
v 0.23604 0.09578899999999997 -0.514162
v 0.23604 0.13511899999999996 -0.519735
v 0.236039 0.21351099999999998 -0.454523
v -0.118157 0.201635 -0.136799
v -9.1E-05 0.194878 -0.09854700000000001
v -9.1E-05 0.10933899999999999 -0.132643
v -0.118156 0.10751499999999999 -0.173413
v -0.204586 0.22009399999999998 -0.241306
v -0.204586 0.10253399999999999 -0.284305
v -0.236222 0.24525099999999997 -0.385349
v -0.236222 0.09578899999999997 -0.514162
v -0.236222 0.13511899999999996 -0.519735
v -0.236222 0.21351099999999998 -0.454523
v -0.294736 0.165494 0.134464
v -0.294736 0.013895000000000008 0.134464
v -0.294736 0.3417149999999999 -2.004229
v -0.294736 0.5905669999999998 -1.807868
v -0.294736 0.5910779999999999 -2.004229
v -0.398526 0.26543 0.13446399999999997
v -0.398526 0.6905779999999999 -1.807868
v -0.398526 0.6909409999999999 -2.004229
v -0.5 0.6905779999999999 -1.807868
v -0.5 0.26543 0.13446399999999997
v -0.5 0.6909409999999999 -2.004229
v 0.294736 0.3417149999999999 -2.004229
v 0.294736 0.013896000000000009 0.134464
v 0.294736 0.165494 0.134464
v 0.294736 0.5905679999999999 -1.807868
v 0.294736 0.5910779999999999 -2.004229
v 0.398526 0.265431 0.13446399999999997
v 0.398526 0.6905779999999999 -1.807868
v 0.398526 0.6909409999999999 -2.004229
v 0.5 0.6905779999999999 -1.807868
v 0.5 0.265431 0.13446399999999997
v 0.5 0.6909409999999999 -2.004229
vt 0.314328 0.971145
vt 0.314328 0.561355
vt 0.155410 0.561304
vt 0.155410 0.971094
vt 0.205563 0.971094
vt 0.205563 0.561304
vt 0.149847 0.561304
vt 0.149847 0.971094
vt 0.237744 0.971094
vt 0.237744 0.561304
vt 0.205563 0.561304
vt 0.205563 0.971094
vt 0.260417 0.971094
vt 0.260417 0.561304
vt 0.237744 0.561304
vt 0.237744 0.971094
vt 0.314328 0.971145
vt 0.314328 0.561355
vt 0.155410 0.561304
vt 0.155410 0.971094
vt 0.325249 0.973138
vt 0.325249 0.559219
vt 0.108206 0.559219
vt 0.108206 0.973138
vt 0.665290 0.033490
vt 0.271639 0.033531
vt 0.271731 0.013572
vt 0.665524 0.013571
vt 0.665365 0.051184
vt 0.271746 0.051103
vt 0.271639 0.033531
vt 0.665290 0.033490
vt 0.210240 0.253730
vt 0.210240 0.319093
vt 0.240214 0.319093
vt 0.240214 0.253730
vt 0.040174 0.319093
vt 0.040174 0.253730
vt 0.010395 0.253730
vt 0.010395 0.319093
vt 0.107333 0.973322
vt 0.107333 0.334145
vt 0.322228 0.334145
vt 0.322228 0.973322
vt 0.149847 0.561304
vt 0.149847 0.971094
vt 0.205563 0.971094
vt 0.205563 0.561304
vt 0.237744 0.971094
vt 0.237744 0.561304
vt 0.260417 0.971094
vt 0.260417 0.561304
vt 0.272041 0.034001
vt 0.352721 0.047449
vt 0.352721 0.107036
vt 0.272041 0.146317
vt 0.311926 0.146317
vt 0.584418 0.047450
vt 0.665098 0.034002
vt 0.584418 0.107037
vt 0.665098 0.146317
vt 0.625213 0.146317
vt 0.467454 0.992571
vt 0.561366 0.992571
vt 0.745480 0.283329
vt 0.497482 0.333164
vt 0.508115 0.283329
vt 0.808009 0.991510
vt 0.576404 0.991510
vt 0.818245 0.941601
vt 0.846784 0.279642
vt 0.755203 0.279642
vt 0.040174 0.254438
vt 0.040174 0.319093
vt 0.010395 0.319093
vt 0.010395 0.254438
vt 0.040174 0.237704
vt 0.010395 0.237704
vt 0.051567 0.187572
vt 0.010395 0.102369
vt 0.082691 0.151165
vt 0.125207 0.137839
vt 0.240213 0.102369
vt 0.167724 0.151165
vt 0.010395 0.065554
vt 0.198848 0.187572
vt 0.240213 0.065554
vt 0.240213 0.237704
vt 0.241020 0.045457
vt 0.210240 0.237704
vt 0.010523 0.045457
vt 0.210240 0.254438
vt 0.010072 0.011130
vt 0.241908 0.011130
vt 0.240213 0.254438
vt 0.210240 0.319093
vt 0.240214 0.319093
vt 0.549668 0.145840
vt 0.603695 0.138207
vt 0.618303 0.178219
vt 0.561225 0.191163
vt 0.486627 0.137859
vt 0.497902 0.194654
vt 0.429150 0.195551
vt 0.381557 0.117467
vt 0.376152 0.135000
vt 0.400149 0.175713
vt 0.627380 0.264757
vt 0.569331 0.272233
vt 0.569288 0.229638
vt 0.622645 0.218225
vt 0.688042 0.246253
vt 0.679093 0.189042
vt 0.752908 0.223444
vt 0.770736 0.133754
vt 0.781843 0.148357
vt 0.773317 0.194841
vt 0.928496 0.279642
vt 0.989125 0.279642
vt 0.983064 0.991510
vt 0.893607 0.940349
vt 0.898671 0.991510
vt 0.880816 0.279642
vt 0.848574 0.943661
vt 0.846815 0.991510
vt 0.818245 0.941601
vt 0.846784 0.279642
vt 0.808009 0.991510
vt 0.328747 0.283329
vt 0.332763 0.992571
vt 0.383560 0.992571
vt 0.420328 0.334212
vt 0.415335 0.283329
vt 0.432504 0.992571
vt 0.466438 0.331041
vt 0.468453 0.283329
vt 0.497482 0.333164
vt 0.467454 0.992571
vt 0.508115 0.283329
vn -1 0 0
vn -1 0 0
vn -1 0 0
vn -1 0 0
vn 1 -0 0
vn 1 -1E-06 6.123233995736766E-23
vn 0.966022 0.25846 -1.5826110585381246E-17
vn 0.856099 0.516812 0.0005749999999999683
vn 0.856099 0.516812 0.0005749999999999683
vn 0.966022 0.25846 -1.5826110585381246E-17
vn 0.493911 0.869513 -5.3242315613350625E-17
vn 0.246956 0.969026 0.0008959999999999407
vn 0.246956 0.969026 0.0008959999999999407
vn 0.493911 0.869513 -5.3242315613350625E-17
vn 1E-06 1 -6.123233995736766E-17
vn 1E-06 1 0.0009249999999999388
vn 1 0 0
vn 1 0 0
vn 1 0 0
vn 1 0 0
vn 0 1 -6.123233995736766E-17
vn 0 1 -6.123233995736766E-17
vn 0 1 -6.123233995736766E-17
vn 0 1 -6.123233995736766E-17
vn -0.000204 -1 2.0000000000612323E-06
vn -0.000204 -1 6.123233995736766E-17
vn -0.000204 -1 2.0000000000612323E-06
vn -0.000204 -1 2.0000000000612323E-06
vn 1E-06 5.000000000061232E-06 1
vn -1E-06 3.600000000006123E-05 1
vn 1E-06 5.000000000061232E-06 1
vn 1E-06 5.000000000061232E-06 1
vn 0 -0.14029100000000005 -0.99011
vn -0 0.41074999999999995 -0.911748
vn -0 0.12946899999999995 -0.991583
vn 0 -0.14029100000000005 -0.99011
vn 0 0.12946899999999995 -0.991583
vn -0 -0.14029100000000005 -0.99011
vn -0 -0.14029100000000005 -0.99011
vn 0 0.41074999999999995 -0.911748
vn 0 0.991531 0.12987099999999993
vn 0 0.991531 0.12987099999999993
vn 0 0.991531 0.12987099999999993
vn 0 0.991531 0.12987099999999993
vn -1 0 0
vn -1 0 0
vn -0.920196 0.391459 0.000579999999999976
vn -0.856033 0.516921 -3.165228240310245E-17
vn -0.37376 0.927525 0.0009039999999999432
vn -0.246956 0.969027 -5.933579069186812E-17
vn -1E-06 1 0.0006169999999999388
vn -1E-06 1 -6.123233995736766E-17
vn 0 6.123233995736766E-17 1
vn 0 6.123233995736766E-17 1
vn 0 6.123233995736766E-17 1
vn 0 6.123233995736766E-17 1
vn 0 6.123233995736766E-17 1
vn 0 6.123233995736766E-17 1
vn 0 6.123233995736766E-17 1
vn 0 6.123233995736766E-17 1
vn 0 6.123233995736766E-17 1
vn 0 6.123233995736766E-17 1
vn 1 0 0
vn 1 0 0
vn 1 0 0
vn 1 0 0
vn 1 0 0
vn -1 0 0
vn -1 0 0
vn -1 0 0
vn -1 0 0
vn -1 0 0
vn 0 0.745753 -0.666223
vn 0 0.12946899999999995 -0.991583
vn 0 0.41074999999999995 -0.911748
vn 0 0.83757 -0.54633
vn 0 0.973221 -0.22987000000000005
vn -0.000124 0.999682 -0.025235000000000063
vn 0.00027 0.985017 0.17245499999999994
vn 0.00028 0.973334 0.22939399999999993
vn 0.000875 0.984991 0.17260199999999995
vn 0 0.985166 0.17160699999999995
vn -0.000234 0.963531 0.26759499999999997
vn -0.000874 0.984991 0.17260299999999995
vn -0 0.764429 0.644708
vn -0.00027 0.985017 0.17245499999999994
vn -0 0.764428 0.644709
vn 9.3E-05 0.991746 -0.12821400000000005
vn -0 0.3149060000000001 0.949123
vn -0 0.991738 -0.12828300000000006
vn 0 0.3149060000000001 0.949123
vn -0 0.83757 -0.546329
vn 0 0.003248000000000061 0.999995
vn 0 0.003248000000000061 0.999995
vn -0 0.745753 -0.666223
vn -0 0.41074999999999995 -0.911748
vn -0 0.12946899999999995 -0.991583
vn -0.472512 0.32206899999999994 -0.820368
vn 0.106987 0.36558999999999997 -0.924607
vn -0.104752 0.3656809999999999 -0.924827
vn -0.63505 0.27587899999999993 -0.721527
vn -0.901794 0.16717599999999996 -0.398522
vn -0.898818 0.15056499999999998 -0.41165
vn -0.995147 0.048598999999999996 -0.085557
vn -0.995758 0.06007099999999999 -0.069702
vn -1 -0 0
vn -1 -1E-06 6.123233995736766E-23
vn 0.476133 0.3213599999999999 -0.818551
vn -0.104752 0.3656809999999999 -0.924827
vn 0.106987 0.36558999999999997 -0.924607
vn 0.634232 0.2760699999999999 -0.722174
vn 0.858679 0.18022199999999997 -0.479782
vn 0.93502 0.14241399999999999 -0.324739
vn 0.995147 0.048598999999999996 -0.085556
vn 0.995758 0.06007199999999999 -0.069701
vn 1 -1E-06 1E-06
vn 1 -1E-06 1E-06
vn 0.965119 0.255757 0.05597199999999999
vn 1 1E-06 -6.123233995736766E-23
vn 1 -0 0
vn 0.882528 0.465314 0.06802699999999998
vn 0.856099 0.516812 0.0005749999999999683
vn 0.368592 0.908094 0.19876099999999994
vn 0.447163 0.890794 0.08081299999999994
vn 0.246956 0.969026 0.0008959999999999407
vn 1E-06 0.994102 0.10845399999999994
vn 0 0.976873 0.21382299999999996
vn 1E-06 1 0.0009249999999999388
vn -1 0 0
vn -1 1E-06 -6.123233995736766E-23
vn -0.96512 0.255757 0.05597199999999999
vn -0.882528 0.465314 0.06802699999999998
vn -0.920196 0.391459 0.000579999999999976
vn -0.368592 0.908094 0.19876099999999994
vn -0.447163 0.890795 0.08081299999999994
vn -0.37376 0.927525 0.0009039999999999432
vn -1E-06 0.994102 0.10845399999999994
vn -0 0.976873 0.21382299999999996
vn -1E-06 1 0.0006169999999999388
g 05 - Default
f 1/1/1 2/2/2 3/3/3
f 3/3/3 4/4/4 1/1/1
f 5/5/5 6/6/6 7/7/7
f 7/7/7 8/8/8 5/5/5
f 9/9/9 10/10/10 11/11/11
f 11/11/11 12/12/12 9/9/9
f 13/13/13 14/14/14 15/15/15
f 15/15/15 16/16/16 13/13/13
f 17/17/17 18/18/18 19/19/19
f 19/19/19 20/20/20 17/17/17
f 21/21/21 22/22/22 23/23/23
f 23/23/23 24/24/24 21/21/21
f 25/25/25 26/26/26 27/27/27
f 27/27/27 28/28/28 25/25/25
f 29/29/29 30/30/30 31/31/31
f 31/31/31 32/32/32 29/29/29
f 33/33/33 34/34/34 35/35/35
f 35/35/35 36/36/36 33/33/33
f 37/37/37 38/38/38 39/39/39
f 39/39/39 40/40/40 37/37/37
f 41/41/41 42/42/42 43/43/43
f 43/43/43 44/44/44 41/41/41
f 45/45/45 46/46/46 47/47/47
f 47/47/47 48/48/48 45/45/45
f 48/48/48 47/47/47 49/49/49
f 49/49/49 50/50/50 48/48/48
f 50/50/50 49/49/49 51/51/51
f 51/51/51 52/52/52 50/50/50
f 53/53/53 54/54/54 55/55/55
f 56/56/56 53/53/53 55/55/55
f 55/55/55 57/57/57 56/56/56
f 58/58/58 59/59/59 60/60/60
f 60/60/60 59/59/59 61/61/61
f 61/61/61 62/62/62 60/60/60
f 63/63/63 64/64/64 65/65/65
f 65/65/65 66/66/66 63/63/63
f 65/65/65 67/67/67 66/66/66
f 68/68/68 69/69/69 70/70/70
f 71/71/71 70/70/70 69/69/69
f 69/69/69 72/72/72 71/71/71
f 73/73/73 74/74/74 75/75/75
f 75/75/75 76/76/76 73/73/73
f 77/77/77 73/73/73 76/76/76
f 76/76/76 78/78/78 77/77/77
f 79/79/79 77/77/77 78/78/78
f 78/78/78 80/80/80 79/79/79
f 79/79/79 80/80/80 81/81/81
f 80/80/80 82/82/82 81/81/81
f 80/80/80 83/83/83 82/82/82
f 83/83/83 84/84/84 82/82/82
f 83/83/83 80/80/80 85/85/85
f 83/83/83 86/86/86 84/84/84
f 85/85/85 87/87/87 83/83/83
f 86/86/86 83/83/83 88/88/88
f 89/89/89 87/87/87 85/85/85
f 88/88/88 90/90/90 86/86/86
f 85/85/85 91/91/91 89/89/89
f 92/92/92 90/90/90 88/88/88
f 89/89/89 91/91/91 93/93/93
f 93/93/93 94/94/94 89/89/89
f 88/88/88 95/95/95 92/92/92
f 96/96/96 92/92/92 95/95/95
f 95/95/95 97/97/97 96/96/96
f 98/98/98 99/99/99 100/100/100
f 100/100/100 101/101/101 98/98/98
f 102/102/102 98/98/98 101/101/101
f 101/101/101 103/103/103 102/102/102
f 102/102/102 103/103/103 104/104/104
f 104/104/104 105/105/105 102/102/102
f 106/106/106 105/105/105 104/104/104
f 104/104/104 107/107/107 106/106/106
f 108/108/108 109/109/109 110/110/110
f 110/110/110 111/111/111 108/108/108
f 112/112/112 108/108/108 111/111/111
f 111/111/111 113/113/113 112/112/112
f 114/114/114 112/112/112 113/113/113
f 113/113/113 115/115/115 114/114/114
f 114/114/114 115/115/115 116/116/116
f 116/116/116 117/117/117 114/114/114
f 118/118/118 119/119/119 120/120/120
f 120/120/120 121/121/121 118/118/118
f 120/120/120 122/122/122 121/121/121
f 123/123/123 118/118/118 121/121/121
f 124/124/124 121/121/121 122/122/122
f 121/121/121 124/124/124 123/123/123
f 122/122/122 125/125/125 124/124/124
f 123/123/123 124/124/124 126/126/126
f 126/126/126 124/124/124 125/125/125
f 126/126/126 127/127/127 123/123/123
f 125/125/125 128/128/128 126/126/126
f 129/129/129 130/130/130 131/131/131
f 131/131/131 132/132/132 129/129/129
f 133/133/133 129/129/129 132/132/132
f 132/132/132 131/131/131 134/134/134
f 133/133/133 132/132/132 135/135/135
f 134/134/134 135/135/135 132/132/132
f 135/135/135 136/136/136 133/133/133
f 137/137/137 135/135/135 134/134/134
f 136/136/136 135/135/135 137/137/137
f 134/134/134 138/138/138 137/137/137
f 137/137/137 139/139/139 136/136/136
