v 0.832128 0.105382 0.029990999999999993
v 0.832128 0.10538200000000002 0.175954
v 0.90925 0.182504 0.175954
v 0.90925 0.182504 0.175954
v 0.90925 0.182504 0.02999099999999999
v 0.832128 0.105382 0.029990999999999993
v 0.853184 0.104906 0.046667999999999994
v 0.853184 0.10490600000000003 0.476736
v 0.908765 0.16048700000000002 0.476736
v 0.908765 0.16048700000000002 0.476736
v 0.908765 0.160488 0.046667999999999994
v 0.853184 0.104906 0.046667999999999994
v 0.635911 0.08354200000000002 0.215459
v 0.36413 0.08414700000000001 0.215459
v 0.364089 0.06846100000000001 0.199774
v 0.06322 0.057589000000000015 0.230308
v 0.06322 0.04190400000000001 0.214623
v 0.364089 0.06846100000000001 0.199774
v 0.364089 0.06846100000000001 0.199774
v 0.36413 0.08414700000000001 0.215459
v 0.06322 0.057589000000000015 0.230308
v 0.635911 0.08354200000000003 0.368337
v 0.36413 0.08414700000000003 0.368337
v 0.364089 0.06846200000000002 0.352652
v 0.06322 0.05758900000000002 0.383186
v 0.063221 0.04190400000000002 0.367501
v 0.364089 0.06846200000000002 0.352652
v 0.364089 0.06846200000000002 0.352652
v 0.36413 0.08414700000000003 0.368337
v 0.06322 0.05758900000000002 0.383186
v -0.144126 0.053393 0.029990999999999997
v -0.144126 0.05339300000000002 0.175954
v -0.067004 0.130515 0.175954
v -0.067004 0.130515 0.175954
v -0.067004 0.130515 0.029990999999999993
v -0.144126 0.053393 0.029990999999999997
v -0.12307 0.052917 0.046668
v -0.12307 0.052917000000000027 0.476736
v -0.067488 0.10849900000000003 0.476736
v -0.067488 0.10849900000000003 0.476736
v -0.067488 0.108499 0.046667999999999994
v -0.12307 0.052917 0.046668
v -0.364089 0.08414600000000001 0.215459
v -0.63587 0.08354200000000002 0.215459
v -0.635911 0.06785700000000001 0.199774
v -0.93678 0.10355300000000002 0.230308
v -0.936779 0.08786800000000002 0.214623
v -0.635911 0.06785700000000001 0.199774
v -0.635911 0.06785700000000001 0.199774
v -0.63587 0.08354200000000002 0.215459
v -0.93678 0.10355300000000002 0.230308
v -0.364089 0.08414600000000003 0.368337
v -0.63587 0.08354200000000003 0.368337
v -0.635911 0.06785700000000003 0.352652
v -0.93678 0.10355300000000003 0.383186
v -0.936779 0.08786800000000003 0.367501
v -0.635911 0.06785700000000003 0.352652
v -0.635911 0.06785700000000003 0.352652
v -0.63587 0.08354200000000003 0.368337
v -0.93678 0.10355300000000003 0.383186
v 0.909249 0.028260000000000004 0.029991
v 0.909249 0.02826000000000001 0.175954
v 0.832128 0.10538200000000002 0.175954
v 0.832128 0.105382 0.029990999999999993
v 0.909249 0.028260000000000004 0.029991
v 0.01729 0.053392 0.029990999999999997
v 0.01729 0.053392000000000016 0.175954
v 0.093853 0.129956 0.175954
v 0.093853 0.129956 0.029990999999999993
v 0.01729 0.053392 0.029990999999999997
v 0.093853 -0.023170999999999997 0.029991
v 0.093853 -0.02317099999999999 0.175954
v 0.01729 0.053392000000000016 0.175954
v 0.01729 0.053392 0.029990999999999997
v 0.093853 -0.023170999999999997 0.029991
v 0.170416 0.053392 0.029990999999999997
v 0.170416 0.053392000000000016 0.175954
v 0.093853 -0.02317099999999999 0.175954
v 0.093853 -0.023170999999999997 0.029991
v 0.170416 0.053392 0.029990999999999997
v 0.029269 0.05339200000000002 0.395662
v 0.029269 0.05339200000000003 0.450734
v 0.093853 0.11797600000000003 0.450734
v 0.093853 0.11797600000000003 0.395662
v 0.029269 0.05339200000000002 0.395662
v 0.093853 -0.011190999999999975 0.395662
v 0.093853 -0.011190999999999972 0.450734
v 0.029269 0.05339200000000003 0.450734
v 0.029269 0.05339200000000002 0.395662
v 0.093853 -0.011190999999999975 0.395662
v 0.158436 0.05339200000000002 0.395662
v 0.158436 0.05339200000000003 0.450734
v 0.093853 -0.011190999999999972 0.450734
v 0.093853 -0.011190999999999975 0.395662
v 0.158436 0.05339200000000002 0.395662
v 0.964347 0.104906 0.046667999999999994
v 0.964347 0.10490600000000003 0.476736
v 0.908765 0.04932500000000003 0.476736
v 0.908765 0.049325 0.046668
v 0.964347 0.104906 0.046667999999999994
v 0.844195 0.10538200000000003 0.395662
v 0.844195 0.10538200000000003 0.450734
v 0.90925 0.17043700000000003 0.450734
v 0.90925 0.17043700000000003 0.450734
v 0.90925 0.17043700000000003 0.395662
v 0.90925 0.04032700000000002 0.395662
v 0.90925 0.04032700000000003 0.450734
v 0.844195 0.10538200000000003 0.450734
v 0.844195 0.10538200000000003 0.395662
v 0.90925 0.04032700000000002 0.395662
v 0.974305 0.10538200000000003 0.395662
v 0.974304 0.10538200000000003 0.450734
v 0.90925 0.04032700000000003 0.450734
v 0.90925 0.04032700000000002 0.395662
v 0.974305 0.10538200000000003 0.395662
v 0.038193 0.05292 0.046668
v 0.038193 0.05292000000000003 0.476736
v 0.093372 0.10809900000000003 0.476736
v 0.093372 0.108099 0.046667999999999994
v 0.038193 0.05292 0.046668
v 0.093372 -0.002258999999999997 0.046668
v 0.093372 -0.002258999999999971 0.476736
v 0.038193 0.05292000000000003 0.476736
v 0.038193 0.05292 0.046668
v 0.093372 -0.002258999999999997 0.046668
v 0.148551 0.05292 0.046668
v 0.148551 0.05292000000000003 0.476736
v 0.093372 -0.002258999999999971 0.476736
v 0.093372 -0.002258999999999997 0.046668
v 0.148551 0.05292 0.046668
v 0.63587 0.09847000000000002 0.200531
v 0.926785 0.11848100000000002 0.21538
v 0.926785 0.10279600000000001 0.199695
v 0.63587 0.08278500000000001 0.184846
v 0.63587 0.09847000000000002 0.200531
v 0.364089 0.09907500000000001 0.200531
v 0.63587 0.09847000000000002 0.200531
v 0.364089 0.08338900000000002 0.184846
v 0.364089 0.09907500000000001 0.200531
v 0.364089 0.09907500000000001 0.200531
v 0.06322 0.056832000000000014 0.199695
v 0.063221 0.07251700000000001 0.21538
v 0.364089 0.09907500000000001 0.200531
v 0.63587 0.09847000000000003 0.353409
v 0.926785 0.11848100000000003 0.368258
v 0.926785 0.10279600000000003 0.352573
v 0.63587 0.08278500000000001 0.337724
v 0.63587 0.09847000000000003 0.353409
v 0.364089 0.09907500000000002 0.353409
v 0.63587 0.09847000000000003 0.353409
v 0.364089 0.08338900000000002 0.337724
v 0.364089 0.09907500000000002 0.353409
v 0.364089 0.09907500000000002 0.353409
v 0.06322 0.05683200000000002 0.352573
v 0.06322 0.07251700000000003 0.368258
v 0.364089 0.09907500000000002 0.353409
v -0.067004 -0.023728999999999997 0.029991
v -0.067004 -0.02372899999999999 0.175954
v -0.144126 0.05339300000000002 0.175954
v -0.144126 0.053393 0.029990999999999997
v -0.067004 -0.023728999999999997 0.029991
v -0.999793 0.105381 0.029990999999999993
v -0.999793 0.10538100000000002 0.175954
v -0.923229 0.181944 0.175954
v -0.923229 0.181944 0.02999099999999999
v -0.999793 0.105381 0.029990999999999993
v -0.923229 0.028818000000000003 0.029990999999999997
v -0.923229 0.02881800000000001 0.175954
v -0.999793 0.10538100000000002 0.175954
v -0.999793 0.105381 0.029990999999999993
v -0.923229 0.028818000000000003 0.029990999999999997
v -0.846666 0.105381 0.029990999999999993
v -0.846666 0.10538100000000002 0.175954
v -0.923229 0.02881800000000001 0.175954
v -0.923229 0.028818000000000003 0.029990999999999997
v -0.846666 0.105381 0.029990999999999993
v -0.987813 0.10538100000000003 0.395662
v -0.987813 0.10538100000000003 0.450734
v -0.923229 0.16996500000000003 0.450734
v -0.923229 0.16996500000000003 0.395662
v -0.987813 0.10538100000000003 0.395662
v -0.923229 0.04079800000000002 0.395662
v -0.92323 0.04079800000000003 0.450734
v -0.987813 0.10538100000000003 0.450734
v -0.987813 0.10538100000000003 0.395662
v -0.923229 0.04079800000000002 0.395662
v -0.858646 0.10538100000000003 0.395662
v -0.858646 0.10538100000000003 0.450734
v -0.92323 0.04079800000000003 0.450734
v -0.923229 0.04079800000000002 0.395662
v -0.858646 0.10538100000000003 0.395662
v -0.011907 0.052917 0.046668
v -0.011907 0.052917000000000027 0.476736
v -0.067488 -0.002663999999999971 0.476736
v -0.067488 -0.002663999999999997 0.046668
v -0.011907 0.052917 0.046668
v -0.132059 0.053393000000000024 0.395662
v -0.132059 0.05339300000000003 0.450734
v -0.067004 0.11844800000000003 0.450734
v -0.067004 0.11844800000000003 0.450734
v -0.067004 0.11844800000000003 0.395662
v -0.067004 -0.011661999999999976 0.395662
v -0.067004 -0.011661999999999973 0.450734
v -0.132059 0.05339300000000003 0.450734
v -0.132059 0.053393000000000024 0.395662
v -0.067004 -0.011661999999999976 0.395662
v -0.001949 0.053393000000000024 0.395662
v -0.001949 0.05339300000000003 0.450734
v -0.067004 -0.011661999999999973 0.450734
v -0.067004 -0.011661999999999976 0.395662
v -0.001949 0.053393000000000024 0.395662
v -0.978889 0.104909 0.046667999999999994
v -0.978889 0.10490900000000003 0.476736
v -0.92371 0.16008700000000003 0.476736
v -0.92371 0.160087 0.046667999999999994
v -0.978889 0.104909 0.046667999999999994
v -0.92371 0.04973 0.046668
v -0.92371 0.04973000000000003 0.476736
v -0.978889 0.10490900000000003 0.476736
v -0.978889 0.104909 0.046667999999999994
v -0.92371 0.04973 0.046668
v -0.868531 0.104909 0.046667999999999994
v -0.868531 0.10490800000000003 0.476736
v -0.92371 0.04973000000000003 0.476736
v -0.92371 0.04973 0.046668
v -0.868531 0.104909 0.046667999999999994
v -0.36413 0.09907400000000001 0.200531
v -0.073215 0.07251700000000001 0.21538
v -0.073215 0.05683100000000001 0.199695
v -0.36413 0.08338900000000002 0.184846
v -0.36413 0.09907400000000001 0.200531
v -0.635911 0.09847000000000002 0.200531
v -0.36413 0.09907400000000001 0.200531
v -0.635911 0.08278500000000001 0.184846
v -0.635911 0.09847000000000002 0.200531
v -0.635911 0.09847000000000002 0.200531
v -0.93678 0.10279600000000001 0.199695
v -0.936779 0.11848100000000002 0.21538
v -0.635911 0.09847000000000002 0.200531
v -0.36413 0.09907400000000002 0.353409
v -0.073215 0.07251700000000003 0.368258
v -0.073215 0.05683100000000002 0.352573
v -0.36413 0.08338900000000002 0.337724
v -0.36413 0.09907400000000002 0.353409
v -0.635911 0.09847000000000003 0.353409
v -0.36413 0.09907400000000002 0.353409
v -0.635911 0.08278500000000001 0.337724
v -0.635911 0.09847000000000003 0.353409
v -0.635911 0.09847000000000003 0.353409
v -0.936779 0.10279600000000003 0.352573
v -0.936779 0.11848100000000003 0.368258
v -0.635911 0.09847000000000003 0.353409
v 0.926785 0.08786800000000002 0.214623
v 0.63587 0.06785700000000001 0.199774
v 0.63587 0.08278500000000001 0.184846
v 0.926785 0.10279600000000001 0.199695
v 0.926785 0.08786800000000002 0.214623
v 0.364089 0.08338900000000002 0.184846
v 0.63587 0.06785700000000001 0.199774
v 0.06322 0.04190400000000001 0.214623
v 0.06322 0.056832000000000014 0.199695
v 0.364089 0.06846100000000001 0.199774
v 0.63587 0.06785700000000001 0.199774
v 0.926785 0.10355300000000002 0.230308
v 0.635911 0.08354200000000002 0.215459
v 0.63587 0.06785700000000001 0.199774
v 0.926785 0.08786800000000002 0.214623
v 0.926785 0.10355300000000002 0.230308
v 0.364089 0.06846100000000001 0.199774
v 0.635911 0.08354200000000002 0.215459
v 0.926785 0.08786800000000003 0.367501
v 0.63587 0.06785700000000003 0.352652
v 0.63587 0.08278500000000001 0.337724
v 0.926785 0.10279600000000003 0.352573
v 0.926785 0.08786800000000003 0.367501
v 0.364089 0.08338900000000002 0.337724
v 0.63587 0.06785700000000003 0.352652
v 0.063221 0.04190400000000002 0.367501
v 0.06322 0.05683200000000002 0.352573
v 0.364089 0.06846200000000002 0.352652
v 0.63587 0.06785700000000003 0.352652
v 0.926785 0.10355300000000003 0.383186
v 0.635911 0.08354200000000003 0.368337
v 0.63587 0.06785700000000003 0.352652
v 0.926785 0.08786800000000003 0.367501
v 0.926785 0.10355300000000003 0.383186
v 0.364089 0.06846200000000002 0.352652
v 0.635911 0.08354200000000003 0.368337
v -0.073215 0.04190400000000001 0.214623
v -0.36413 0.06846100000000001 0.199774
v -0.36413 0.08338900000000002 0.184846
v -0.073215 0.05683100000000001 0.199695
v -0.073215 0.04190400000000001 0.214623
v -0.635911 0.08278500000000001 0.184846
v -0.36413 0.06846100000000001 0.199774
v -0.936779 0.08786800000000002 0.214623
v -0.93678 0.10279600000000001 0.199695
v -0.635911 0.06785700000000001 0.199774
v -0.36413 0.06846100000000001 0.199774
v -0.073215 0.057589000000000015 0.230308
v -0.364089 0.08414600000000001 0.215459
v -0.36413 0.06846100000000001 0.199774
v -0.073215 0.04190400000000001 0.214623
v -0.073215 0.057589000000000015 0.230308
v -0.635911 0.06785700000000001 0.199774
v -0.364089 0.08414600000000001 0.215459
v -0.073215 0.04190400000000002 0.367501
v -0.36413 0.06846100000000002 0.352652
v -0.36413 0.08338900000000002 0.337724
v -0.073215 0.05683100000000002 0.352573
v -0.073215 0.04190400000000002 0.367501
v -0.635911 0.08278500000000001 0.337724
v -0.36413 0.06846100000000002 0.352652
v -0.936779 0.08786800000000003 0.367501
v -0.936779 0.10279600000000003 0.352573
v -0.635911 0.06785700000000003 0.352652
v -0.36413 0.06846100000000002 0.352652
v -0.073215 0.05758900000000002 0.383186
v -0.364089 0.08414600000000003 0.368337
v -0.36413 0.06846100000000002 0.352652
v -0.073215 0.04190400000000002 0.367501
v -0.073215 0.05758900000000002 0.383186
v -0.635911 0.06785700000000003 0.352652
v -0.364089 0.08414600000000003 0.368337
v 0.020415 0.3628399999999999 -2.008
v 0.905386 0.3628399999999999 -2.008
v 0.905386 0.3628399999999998 -3.842076
v 0.020068 0.3628399999999998 -3.842076
v -0.999708 0.6909409999999999 -2.00051
v -0.999708 0.6909409999999998 -3.834586
v -0.999708 -0.020318000000000235 -3.834357
v -0.999708 -0.02031800000000012 -2.000281
v -0.794444 0.3417149999999999 -2.00051
v -0.794444 0.34171499999999977 -3.834586
v -0.794444 0.5910779999999998 -3.834586
v -0.794444 0.5910779999999999 -2.00051
v -0.794444 0.5910779999999999 -2.00051
v -0.794444 0.5910779999999998 -3.834586
v -0.898234 0.6909409999999998 -3.834586
v -0.898234 0.6909409999999999 -2.00051
v -0.898234 0.6909409999999999 -2.00051
v -0.898234 0.6909409999999998 -3.834586
v -0.999708 0.6909409999999998 -3.834586
v -0.999708 0.6909409999999999 -2.00051
v 1.000292 -0.02031800000000012 -2.002141
v 1.000292 -0.020318000000000235 -3.838076
v 1.000292 0.6909419999999997 -3.834586
v 1.000292 0.6909419999999998 -2.00051
v 0.020415 0.3628399999999999 -2.008
v 0.020069 0.3628399999999998 -3.842076
v -0.865248 0.3628399999999998 -3.842076
v -0.865248 0.3628399999999999 -2.008
v 0.020415 0.3628399999999999 -2.008
v 0.021109 0.11486199999999999 -0.11474800000000002
v 0.880966 0.11486199999999999 -0.11474800000000002
v 0.880966 0.3628399999999999 -2.008
v 0.181731 0.08132200000000002 0.135303
v -0.178195 0.08132200000000002 0.135303
v -0.175729 0.018567000000000007 0.135507
v 0.180479 0.018567000000000007 0.135507
v 0.986371 0.105382 0.029990999999999993
v 0.986371 0.10538200000000002 0.175954
v 0.909249 0.02826000000000001 0.175954
v 0.909249 0.028260000000000004 0.029991
v 0.90925 0.182504 0.02999099999999999
v 0.90925 0.182504 0.175954
v 0.986371 0.10538200000000002 0.175954
v 0.986371 0.105382 0.029990999999999993
v 0.90925 0.182504 0.175954
v 0.832128 0.10538200000000002 0.175954
v 0.909249 0.02826000000000001 0.175954
v 0.986371 0.10538200000000002 0.175954
v 0.093853 0.129956 0.029990999999999993
v 0.093853 0.129956 0.175954
v 0.170416 0.053392000000000016 0.175954
v 0.170416 0.053392 0.029990999999999997
v 0.093853 0.129956 0.175954
v 0.01729 0.053392000000000016 0.175954
v 0.093853 -0.02317099999999999 0.175954
v 0.170416 0.053392000000000016 0.175954
v 0.093853 0.11797600000000003 0.395662
v 0.093853 0.11797600000000003 0.450734
v 0.158436 0.05339200000000003 0.450734
v 0.158436 0.05339200000000002 0.395662
v 0.093853 0.11797600000000003 0.450734
v 0.029269 0.05339200000000003 0.450734
v 0.093853 -0.011190999999999972 0.450734
v 0.158436 0.05339200000000003 0.450734
v 0.908765 0.049325 0.046668
v 0.908765 0.04932500000000003 0.476736
v 0.853184 0.10490600000000003 0.476736
v 0.853184 0.104906 0.046667999999999994
v 0.908765 0.160488 0.046667999999999994
v 0.908765 0.16048700000000002 0.476736
v 0.964347 0.10490600000000003 0.476736
v 0.964347 0.104906 0.046667999999999994
v 0.908765 0.16048700000000002 0.476736
v 0.853184 0.10490600000000003 0.476736
v 0.908765 0.04932500000000003 0.476736
v 0.964347 0.10490600000000003 0.476736
v 0.90925 0.17043700000000003 0.395662
v 0.90925 0.17043700000000003 0.450734
v 0.974304 0.10538200000000003 0.450734
v 0.974305 0.10538200000000003 0.395662
v 0.90925 0.17043700000000003 0.450734
v 0.844195 0.10538200000000003 0.450734
v 0.90925 0.04032700000000003 0.450734
v 0.974304 0.10538200000000003 0.450734
v 0.093372 0.108099 0.046667999999999994
v 0.093372 0.10809900000000003 0.476736
v 0.148551 0.05292000000000003 0.476736
v 0.148551 0.05292 0.046668
v 0.093372 0.10809900000000003 0.476736
v 0.038193 0.05292000000000003 0.476736
v 0.093372 -0.002258999999999971 0.476736
v 0.148551 0.05292000000000003 0.476736
v 1.00018 -0.023394999999999992 0.139347
v -0.000393 -0.023292999999999994 0.139348
v -0.000397 -0.023292999999999994 0.086931
v 1.000176 -0.023394999999999992 0.08693
v 1.00097 0.023396000000000007 0.139347
v 0.000256 0.023294000000000006 0.139347
v -0.000393 -0.023292999999999994 0.139348
v 1.00018 -0.023394999999999992 0.139347
v 0.772348 0.09578899999999997 -0.510443
v 0.772348 0.13511899999999996 -0.516016
v 0.884814 0.13511899999999996 -0.516016
v 0.884814 0.09578899999999997 -0.510443
v 0.134237 0.13511899999999996 -0.516016
v 0.134237 0.09578899999999997 -0.510443
v 0.021102 0.09578899999999997 -0.510443
v 0.021102 0.13511899999999996 -0.516016
v 0.010118 0.053393 0.029990999999999997
v 0.010118 0.05339300000000002 0.175954
v -0.067004 -0.02372899999999999 0.175954
v -0.067004 -0.023728999999999997 0.029991
v -0.067004 0.130515 0.029990999999999993
v -0.067004 0.130515 0.175954
v 0.010118 0.05339300000000002 0.175954
v 0.010118 0.053393 0.029990999999999997
v -0.067004 0.130515 0.175954
v -0.144126 0.05339300000000002 0.175954
v -0.067004 -0.02372899999999999 0.175954
v 0.010118 0.05339300000000002 0.175954
v -0.923229 0.181944 0.02999099999999999
v -0.923229 0.181944 0.175954
v -0.846666 0.10538100000000002 0.175954
v -0.846666 0.105381 0.029990999999999993
v -0.923229 0.181944 0.175954
v -0.999793 0.10538100000000002 0.175954
v -0.923229 0.02881800000000001 0.175954
v -0.846666 0.10538100000000002 0.175954
v -0.923229 0.16996500000000003 0.395662
v -0.923229 0.16996500000000003 0.450734
v -0.858646 0.10538100000000003 0.450734
v -0.858646 0.10538100000000003 0.395662
v -0.923229 0.16996500000000003 0.450734
v -0.987813 0.10538100000000003 0.450734
v -0.92323 0.04079800000000003 0.450734
v -0.858646 0.10538100000000003 0.450734
v -0.067488 -0.002663999999999997 0.046668
v -0.067488 -0.002663999999999971 0.476736
v -0.12307 0.052917000000000027 0.476736
v -0.12307 0.052917 0.046668
v -0.067488 0.108499 0.046667999999999994
v -0.067488 0.10849900000000003 0.476736
v -0.011907 0.052917000000000027 0.476736
v -0.011907 0.052917 0.046668
v -0.067488 0.10849900000000003 0.476736
v -0.12307 0.052917000000000027 0.476736
v -0.067488 -0.002663999999999971 0.476736
v -0.011907 0.052917000000000027 0.476736
v -0.067004 0.11844800000000003 0.395662
v -0.067004 0.11844800000000003 0.450734
v -0.001949 0.05339300000000003 0.450734
v -0.001949 0.053393000000000024 0.395662
v -0.067004 0.11844800000000003 0.450734
v -0.132059 0.05339300000000003 0.450734
v -0.067004 -0.011661999999999973 0.450734
v -0.001949 0.05339300000000003 0.450734
v -0.92371 0.160087 0.046667999999999994
v -0.92371 0.16008700000000003 0.476736
v -0.868531 0.10490800000000003 0.476736
v -0.868531 0.104909 0.046667999999999994
v -0.92371 0.16008700000000003 0.476736
v -0.978889 0.10490900000000003 0.476736
v -0.92371 0.04973000000000003 0.476736
v -0.868531 0.10490800000000003 0.476736
v -0.000393 -0.023292999999999994 0.139348
v -1.000966 -0.023190999999999993 0.139348
v -1.00097 -0.023190999999999993 0.086931
v -0.000397 -0.023292999999999994 0.086931
v 0.000256 0.023294000000000006 0.139347
v -1.000458 0.023192000000000008 0.139346
v -1.000966 -0.023190999999999993 0.139348
v -0.000393 -0.023292999999999994 0.139348
v -0.092764 0.09578899999999997 -0.510443
v -0.092764 0.13511899999999996 -0.516016
v 0.021102 0.13511899999999996 -0.516016
v 0.021102 0.09578899999999997 -0.510443
v -0.730875 0.13511899999999996 -0.516016
v -0.730875 0.09578899999999997 -0.510443
v -0.84261 0.09578899999999997 -0.510443
v -0.84261 0.13511899999999996 -0.516016
v -0.866289 0.3628399999999999 -2.008
v -0.86629 0.11486199999999999 -0.11474800000000002
v 0.021109 0.11486199999999999 -0.11474800000000002
v 0.020415 0.3628399999999999 -2.008
v 0.795028 0.3417159999999998 -3.834586
v 0.795028 0.3417159999999999 -2.00051
v 0.795028 0.5910789999999999 -2.00051
v 0.795028 0.5910789999999998 -3.834586
v 0.898818 0.6909419999999998 -2.00051
v 0.898818 0.6909419999999997 -3.834586
v 1.000292 0.6909419999999998 -2.00051
v 1.000292 0.6909419999999997 -3.834586
v 0.795028 0.013896000000000009 0.138183
v 1.000292 -0.020317999999999992 0.138183
v 0.795028 0.165495 0.138183
v 1.000292 0.265431 0.13818299999999997
v 0.898818 0.265431 0.13818299999999997
v 1.000292 0.265431 0.13818299999999997
v 1.000292 -0.020317999999999992 0.138183
v 1.000292 -0.02031800000000012 -2.002141
v 1.000292 0.6905789999999999 -1.804149
v 1.000292 0.6909419999999998 -2.00051
v -0.999708 -0.020317999999999992 0.138183
v -0.794444 0.013896000000000009 0.138183
v -0.794444 0.165494 0.138183
v -0.999708 0.265431 0.13818299999999997
v -0.898234 0.265431 0.13818299999999997
v 0.635911 0.08354200000000002 0.215459
v 0.926785 0.10355300000000002 0.230308
v 0.926785 0.11848100000000002 0.21538
v 0.63587 0.09847000000000002 0.200531
v 0.36413 0.08414700000000001 0.215459
v 0.364089 0.09907500000000001 0.200531
v 0.063221 0.07251700000000001 0.21538
v 0.06322 0.057589000000000015 0.230308
v 0.635911 0.08354200000000003 0.368337
v 0.926785 0.10355300000000003 0.383186
v 0.926785 0.11848100000000003 0.368258
v 0.63587 0.09847000000000003 0.353409
v 0.36413 0.08414700000000003 0.368337
v 0.364089 0.09907500000000002 0.353409
v 0.06322 0.07251700000000003 0.368258
v 0.06322 0.05758900000000002 0.383186
v 0.134237 0.21351199999999998 -0.450804
v 0.134237 0.13511899999999996 -0.516016
v 0.021102 0.13511899999999996 -0.516016
v 0.021102 0.21351199999999998 -0.450804
v 0.134237 0.24525099999999997 -0.38163
v 0.021102 0.24525099999999997 -0.38163
v 0.176983 0.22009499999999999 -0.237587
v 0.021102 0.177237 0.007170999999999989
v 0.293765 0.201635 -0.13308
v 0.453293 0.194879 -0.09482800000000001
v 0.884814 0.177237 0.007170999999999989
v 0.612821 0.201635 -0.13308
v 0.021102 0.131118 0.09842299999999998
v 0.729603 0.22009499999999999 -0.237587
v 0.884814 0.131119 0.09842299999999998
v 0.884814 0.24525099999999997 -0.38163
v 0.887839 0.08132200000000002 0.135303
v 0.772348 0.24525099999999997 -0.38163
v 0.022855 0.08132200000000002 0.135303
v 0.772348 0.21351199999999998 -0.450804
v 0.023674 0.018567000000000007 0.135507
v 0.89117 0.018567000000000007 0.135507
v 0.884814 0.21351199999999998 -0.450804
v 0.772348 0.13511899999999996 -0.516016
v 0.884814 0.13511899999999996 -0.516016
v 0.612821 0.10751599999999999 -0.169694
v 0.453293 0.10933899999999999 -0.128924
v 0.453293 0.194879 -0.09482800000000001
v 0.612821 0.201635 -0.13308
v 0.729603 0.10253399999999999 -0.280586
v 0.729603 0.22009499999999999 -0.237587
v 0.772348 0.24525099999999997 -0.38163
v 0.772348 0.09578899999999997 -0.510443
v 0.772348 0.13511899999999996 -0.516016
v 0.772348 0.21351199999999998 -0.450804
v 0.293765 0.201635 -0.13308
v 0.453293 0.194879 -0.09482800000000001
v 0.453293 0.10933899999999999 -0.128924
v 0.293765 0.10751599999999999 -0.169694
v 0.176983 0.22009499999999999 -0.237587
v 0.176983 0.10253399999999999 -0.280586
v 0.134237 0.24525099999999997 -0.38163
v 0.134237 0.09578899999999997 -0.510443
v 0.134237 0.13511899999999996 -0.516016
v 0.134237 0.21351199999999998 -0.450804
v -0.364089 0.08414600000000001 0.215459
v -0.073215 0.057589000000000015 0.230308
v -0.073215 0.07251700000000001 0.21538
v -0.36413 0.09907400000000001 0.200531
v -0.63587 0.08354200000000002 0.215459
v -0.635911 0.09847000000000002 0.200531
v -0.936779 0.11848100000000002 0.21538
v -0.93678 0.10355300000000002 0.230308
v -0.364089 0.08414600000000003 0.368337
v -0.073215 0.05758900000000002 0.383186
v -0.073215 0.07251700000000003 0.368258
v -0.36413 0.09907400000000002 0.353409
v -0.63587 0.08354200000000003 0.368337
v -0.635911 0.09847000000000003 0.353409
v -0.936779 0.11848100000000003 0.368258
v -0.93678 0.10355300000000003 0.383186
v -0.999708 0.6909409999999999 -2.00051
v -0.999708 -0.02031800000000012 -2.000281
v -0.999708 0.6905779999999999 -1.804149
v -0.999708 0.265431 0.13818299999999997
v -0.999708 -0.020317999999999992 0.138183
v -0.730875 0.21351199999999998 -0.450804
v -0.730875 0.13511899999999996 -0.516016
v -0.84261 0.13511899999999996 -0.516016
v -0.84261 0.21351199999999998 -0.450804
v -0.730875 0.24525099999999997 -0.38163
v -0.84261 0.24525099999999997 -0.38163
v -0.68813 0.22009499999999999 -0.237587
v -0.84261 0.177237 0.007170999999999989
v -0.571347 0.201635 -0.13308
v -0.41182 0.194879 -0.09482800000000001
v 0.021102 0.177237 0.007170999999999989
v -0.252292 0.201635 -0.13308
v -0.84261 0.131118 0.09842299999999998
v -0.135509 0.22009499999999999 -0.237587
v 0.021102 0.131118 0.09842299999999998
v 0.021102 0.24525099999999997 -0.38163
v 0.022855 0.08132200000000002 0.135303
v -0.092764 0.24525099999999997 -0.38163
v -0.84213 0.08132200000000002 0.135303
v -0.092764 0.21351199999999998 -0.450804
v -0.843822 0.018567000000000007 0.135507
v 0.023674 0.018567000000000007 0.135507
v 0.021102 0.21351199999999998 -0.450804
v -0.092764 0.13511899999999996 -0.516016
v 0.021102 0.13511899999999996 -0.516016
v -0.252292 0.10751599999999999 -0.169694
v -0.41182 0.10933899999999999 -0.128924
v -0.41182 0.194879 -0.09482800000000001
v -0.252292 0.201635 -0.13308
v -0.135509 0.10253399999999999 -0.280586
v -0.135509 0.22009499999999999 -0.237587
v -0.092764 0.24525099999999997 -0.38163
v -0.092764 0.09578899999999997 -0.510443
v -0.092764 0.13511899999999996 -0.516016
v -0.092764 0.21351199999999998 -0.450804
v -0.571347 0.201635 -0.13308
v -0.41182 0.194879 -0.09482800000000001
v -0.41182 0.10933899999999999 -0.128924
v -0.571347 0.10751599999999999 -0.169694
v -0.68813 0.22009499999999999 -0.237587
v -0.68813 0.10253399999999999 -0.280586
v -0.730875 0.24525099999999997 -0.38163
v -0.730875 0.09578899999999997 -0.510443
v -0.730875 0.13511899999999996 -0.516016
v -0.730875 0.21351199999999998 -0.450804
v 0.795028 0.3417159999999999 -2.00051
v 0.795028 0.013896000000000009 0.138183
v 0.795028 0.165495 0.138183
v 0.795028 0.5905679999999999 -1.804149
v 0.795028 0.5910789999999999 -2.00051
v 0.898818 0.265431 0.13818299999999997
v 0.898818 0.6905779999999999 -1.804149
v 0.898818 0.6909419999999998 -2.00051
v 1.000292 0.6905789999999999 -1.804149
v 1.000292 0.265431 0.13818299999999997
v 1.000292 0.6909419999999998 -2.00051
v -0.794444 0.165494 0.138183
v -0.794444 0.013896000000000009 0.138183
v -0.794444 0.3417149999999999 -2.00051
v -0.794444 0.5905679999999999 -1.804149
v -0.794444 0.5910779999999999 -2.00051
v -0.898234 0.265431 0.13818299999999997
v -0.898234 0.6905779999999999 -1.804149
v -0.898234 0.6909409999999999 -2.00051
v -0.999708 0.6905779999999999 -1.804149
v -0.999708 0.265431 0.13818299999999997
v -0.999708 0.6909409999999999 -2.00051
vt 0.744544 0.164181
vt 0.744544 0.146644
vt 0.768728 0.146644
vt 0.768728 0.146644
vt 0.768728 0.164181
vt 0.744544 0.164181
vt 0.716824 0.133541
vt 0.716824 0.034255
vt 0.743160 0.034255
vt 0.743160 0.034255
vt 0.743160 0.133541
vt 0.716824 0.133541
vt 0.141244 0.255772
vt 0.141237 0.209617
vt 0.145163 0.209666
vt 0.141281 0.158431
vt 0.145100 0.158480
vt 0.145163 0.209666
vt 0.145163 0.209666
vt 0.141237 0.209617
vt 0.141281 0.158431
vt 0.121327 0.255531
vt 0.121465 0.209412
vt 0.125206 0.209447
vt 0.122268 0.158293
vt 0.126066 0.158347
vt 0.125206 0.209447
vt 0.125206 0.209447
vt 0.121465 0.209412
vt 0.122268 0.158293
vt 0.744544 0.164181
vt 0.744544 0.146644
vt 0.768728 0.146644
vt 0.768728 0.146644
vt 0.768728 0.164181
vt 0.744544 0.164181
vt 0.716824 0.133541
vt 0.716824 0.034255
vt 0.743160 0.034255
vt 0.743160 0.034255
vt 0.743160 0.133541
vt 0.716824 0.133541
vt 0.141244 0.255772
vt 0.141237 0.209617
vt 0.145163 0.209666
vt 0.141281 0.158431
vt 0.145100 0.158480
vt 0.145163 0.209666
vt 0.145163 0.209666
vt 0.141237 0.209617
vt 0.141281 0.158431
vt 0.121327 0.255531
vt 0.121465 0.209412
vt 0.125206 0.209447
vt 0.122268 0.158293
vt 0.126066 0.158347
vt 0.125206 0.209447
vt 0.125206 0.209447
vt 0.121465 0.209412
vt 0.122268 0.158293
vt 0.720359 0.164181
vt 0.720359 0.146644
vt 0.744544 0.146644
vt 0.744544 0.164181
vt 0.720359 0.164181
vt 0.769584 0.164555
vt 0.769584 0.146890
vt 0.794010 0.146890
vt 0.794010 0.164555
vt 0.769584 0.164555
vt 0.744849 0.164555
vt 0.744849 0.146890
vt 0.769584 0.146890
vt 0.769584 0.164555
vt 0.744849 0.164555
vt 0.720428 0.164555
vt 0.720428 0.146890
vt 0.744849 0.146890
vt 0.744849 0.164555
vt 0.720428 0.164555
vt 0.768884 0.033739
vt 0.768884 0.016213
vt 0.793308 0.016213
vt 0.793308 0.033739
vt 0.768884 0.033739
vt 0.744090 0.033739
vt 0.744090 0.016213
vt 0.768884 0.016213
vt 0.768884 0.033739
vt 0.744090 0.033739
vt 0.719671 0.033739
vt 0.719671 0.016213
vt 0.744090 0.016213
vt 0.744090 0.033739
vt 0.719671 0.033739
vt 0.769971 0.133541
vt 0.769971 0.034255
vt 0.796314 0.034255
vt 0.796314 0.133541
vt 0.769971 0.133541
vt 0.695750 0.034617
vt 0.695750 0.017218
vt 0.719934 0.017218
vt 0.719934 0.017218
vt 0.719934 0.034617
vt 0.768303 0.034617
vt 0.768303 0.017218
vt 0.792487 0.017218
vt 0.792487 0.034617
vt 0.768303 0.034617
vt 0.744119 0.034617
vt 0.744119 0.017218
vt 0.768303 0.017218
vt 0.768303 0.034617
vt 0.744119 0.034617
vt 0.769413 0.135244
vt 0.769413 0.035233
vt 0.796022 0.035233
vt 0.796022 0.135244
vt 0.769413 0.135244
vt 0.742804 0.135244
vt 0.742804 0.035233
vt 0.769413 0.035233
vt 0.769413 0.135244
vt 0.742804 0.135244
vt 0.716195 0.135244
vt 0.716195 0.035233
vt 0.742804 0.035233
vt 0.742804 0.135244
vt 0.716195 0.135244
vt 0.137402 0.255626
vt 0.136700 0.305001
vt 0.133348 0.305057
vt 0.133499 0.255644
vt 0.137402 0.255626
vt 0.137524 0.209664
vt 0.137402 0.255626
vt 0.133712 0.209635
vt 0.137524 0.209664
vt 0.137524 0.209664
vt 0.133775 0.158535
vt 0.137603 0.158580
vt 0.137524 0.209664
vt 0.117748 0.255399
vt 0.117383 0.304741
vt 0.113627 0.304748
vt 0.113990 0.255392
vt 0.117748 0.255399
vt 0.117902 0.209464
vt 0.117748 0.255399
vt 0.114150 0.209413
vt 0.117902 0.209464
vt 0.117902 0.209464
vt 0.114899 0.158363
vt 0.118668 0.158443
vt 0.117902 0.209464
vt 0.720359 0.164181
vt 0.720359 0.146644
vt 0.744544 0.146644
vt 0.744544 0.164181
vt 0.720359 0.164181
vt 0.769584 0.164555
vt 0.769584 0.146890
vt 0.794010 0.146890
vt 0.794010 0.164555
vt 0.769584 0.164555
vt 0.744849 0.164555
vt 0.744849 0.146890
vt 0.769584 0.146890
vt 0.769584 0.164555
vt 0.744849 0.164555
vt 0.720428 0.164555
vt 0.720428 0.146890
vt 0.744849 0.146890
vt 0.744849 0.164555
vt 0.720428 0.164555
vt 0.768884 0.033739
vt 0.768884 0.016213
vt 0.793308 0.016213
vt 0.793308 0.033739
vt 0.768884 0.033739
vt 0.744090 0.033739
vt 0.744090 0.016213
vt 0.768884 0.016213
vt 0.768884 0.033739
vt 0.744090 0.033739
vt 0.719671 0.033739
vt 0.719671 0.016213
vt 0.744090 0.016213
vt 0.744090 0.033739
vt 0.719671 0.033739
vt 0.769971 0.133541
vt 0.769971 0.034255
vt 0.796314 0.034255
vt 0.796314 0.133541
vt 0.769971 0.133541
vt 0.695750 0.034617
vt 0.695750 0.017218
vt 0.719934 0.017218
vt 0.719934 0.017218
vt 0.719934 0.034617
vt 0.768303 0.034617
vt 0.768303 0.017218
vt 0.792487 0.017218
vt 0.792487 0.034617
vt 0.768303 0.034617
vt 0.744119 0.034617
vt 0.744119 0.017218
vt 0.768303 0.017218
vt 0.768303 0.034617
vt 0.744119 0.034617
vt 0.769413 0.135244
vt 0.769413 0.035233
vt 0.796022 0.035233
vt 0.796022 0.135244
vt 0.769413 0.135244
vt 0.742804 0.135244
vt 0.742804 0.035233
vt 0.769413 0.035233
vt 0.769413 0.135244
vt 0.742804 0.135244
vt 0.716195 0.135244
vt 0.716195 0.035233
vt 0.742804 0.035233
vt 0.742804 0.135244
vt 0.716195 0.135244
vt 0.137402 0.255626
vt 0.136700 0.305001
vt 0.133348 0.305057
vt 0.133499 0.255644
vt 0.137402 0.255626
vt 0.137524 0.209664
vt 0.137402 0.255626
vt 0.133712 0.209635
vt 0.137524 0.209664
vt 0.137524 0.209664
vt 0.133775 0.158535
vt 0.137603 0.158580
vt 0.137524 0.209664
vt 0.117748 0.255399
vt 0.117383 0.304741
vt 0.113627 0.304748
vt 0.113990 0.255392
vt 0.117748 0.255399
vt 0.117902 0.209464
vt 0.117748 0.255399
vt 0.114150 0.209413
vt 0.117902 0.209464
vt 0.117902 0.209464
vt 0.114899 0.158363
vt 0.118668 0.158443
vt 0.117902 0.209464
vt 0.142392 0.305254
vt 0.145270 0.255846
vt 0.148988 0.255857
vt 0.145563 0.305202
vt 0.142392 0.305254
vt 0.148817 0.209806
vt 0.145270 0.255846
vt 0.145100 0.158480
vt 0.148688 0.158724
vt 0.145163 0.209666
vt 0.145270 0.255846
vt 0.139448 0.305210
vt 0.141244 0.255772
vt 0.145270 0.255846
vt 0.142392 0.305254
vt 0.139448 0.305210
vt 0.145163 0.209666
vt 0.141244 0.255772
vt 0.124682 0.304973
vt 0.125096 0.255547
vt 0.128673 0.255451
vt 0.128243 0.304762
vt 0.124682 0.304973
vt 0.128764 0.209599
vt 0.125096 0.255547
vt 0.126066 0.158347
vt 0.129652 0.158632
vt 0.125206 0.209447
vt 0.125096 0.255547
vt 0.120939 0.304958
vt 0.121327 0.255531
vt 0.125096 0.255547
vt 0.124682 0.304973
vt 0.120939 0.304958
vt 0.125206 0.209447
vt 0.121327 0.255531
vt 0.142392 0.305254
vt 0.145270 0.255846
vt 0.148988 0.255857
vt 0.145563 0.305202
vt 0.142392 0.305254
vt 0.148817 0.209806
vt 0.145270 0.255846
vt 0.145100 0.158480
vt 0.148688 0.158724
vt 0.145163 0.209666
vt 0.145270 0.255846
vt 0.139448 0.305210
vt 0.141244 0.255772
vt 0.145270 0.255846
vt 0.142392 0.305254
vt 0.139448 0.305210
vt 0.145163 0.209666
vt 0.141244 0.255772
vt 0.124682 0.304973
vt 0.125096 0.255547
vt 0.128673 0.255451
vt 0.128243 0.304762
vt 0.124682 0.304973
vt 0.128764 0.209599
vt 0.125096 0.255547
vt 0.126066 0.158347
vt 0.129652 0.158632
vt 0.125206 0.209447
vt 0.125096 0.255547
vt 0.120939 0.304958
vt 0.121327 0.255531
vt 0.125096 0.255547
vt 0.124682 0.304973
vt 0.120939 0.304958
vt 0.125206 0.209447
vt 0.121327 0.255531
vt 0.325249 0.973138
vt 0.108206 0.973138
vt 0.108206 0.559219
vt 0.325249 0.559219
vt 0.314328 0.971145
vt 0.314328 0.561355
vt 0.155410 0.561304
vt 0.155410 0.971094
vt 0.205563 0.971094
vt 0.205563 0.561304
vt 0.149847 0.561304
vt 0.149847 0.971094
vt 0.237744 0.971094
vt 0.237744 0.561304
vt 0.205563 0.561304
vt 0.205563 0.971094
vt 0.260417 0.971094
vt 0.260417 0.561304
vt 0.237744 0.561304
vt 0.237744 0.971094
vt 0.314328 0.971145
vt 0.314328 0.561355
vt 0.155410 0.561304
vt 0.155410 0.971094
vt 0.325249 0.973138
vt 0.325249 0.559219
vt 0.108206 0.559219
vt 0.108206 0.973138
vt 0.115880 0.973322
vt 0.115880 0.334145
vt 0.314636 0.334145
vt 0.314636 0.973322
vt 0.236173 0.045457
vt 0.015388 0.045457
vt 0.014956 0.011130
vt 0.237024 0.011130
vt 0.696175 0.164181
vt 0.696175 0.146644
vt 0.720359 0.146644
vt 0.720359 0.164181
vt 0.768728 0.164181
vt 0.768728 0.146644
vt 0.792912 0.146644
vt 0.792912 0.164181
vt 0.418419 0.095054
vt 0.446349 0.067124
vt 0.474278 0.095054
vt 0.446349 0.122983
vt 0.696306 0.164555
vt 0.696306 0.146890
vt 0.720428 0.146890
vt 0.720428 0.164555
vt 0.417158 0.095686
vt 0.445088 0.067757
vt 0.473018 0.095686
vt 0.445088 0.123616
vt 0.695604 0.033739
vt 0.695604 0.016213
vt 0.719671 0.016213
vt 0.719671 0.033739
vt 0.424651 0.095550
vt 0.444780 0.075421
vt 0.464909 0.095550
vt 0.444780 0.115678
vt 0.690931 0.133541
vt 0.690931 0.034255
vt 0.716824 0.034255
vt 0.716824 0.133541
vt 0.743160 0.133541
vt 0.743160 0.034255
vt 0.769971 0.034255
vt 0.769971 0.133541
vt 0.516395 0.103673
vt 0.536524 0.083544
vt 0.556653 0.103673
vt 0.536524 0.123802
vt 0.719934 0.034617
vt 0.719934 0.017218
vt 0.744119 0.017218
vt 0.744119 0.034617
vt 0.422951 0.095693
vt 0.446511 0.072133
vt 0.470071 0.095692
vt 0.446511 0.119252
vt 0.689585 0.135244
vt 0.689585 0.035233
vt 0.716195 0.035233
vt 0.716195 0.135244
vt 0.512903 0.103622
vt 0.536463 0.080062
vt 0.560023 0.103622
vt 0.536463 0.127182
vt 0.665290 0.033490
vt 0.271639 0.033531
vt 0.271731 0.013572
vt 0.665524 0.013571
vt 0.665365 0.051184
vt 0.271746 0.051103
vt 0.271639 0.033531
vt 0.665290 0.033490
vt 0.206690 0.253730
vt 0.206690 0.319093
vt 0.235401 0.319093
vt 0.235401 0.253730
vt 0.043790 0.319093
vt 0.043790 0.253730
vt 0.023877 0.253730
vt 0.023877 0.319093
vt 0.696175 0.164181
vt 0.696175 0.146644
vt 0.720359 0.146644
vt 0.720359 0.164181
vt 0.768728 0.164181
vt 0.768728 0.146644
vt 0.792912 0.146644
vt 0.792912 0.164181
vt 0.418419 0.095054
vt 0.446349 0.067124
vt 0.474278 0.095054
vt 0.446349 0.122983
vt 0.696306 0.164555
vt 0.696306 0.146890
vt 0.720428 0.146890
vt 0.720428 0.164555
vt 0.417158 0.095686
vt 0.445088 0.067757
vt 0.473018 0.095686
vt 0.445088 0.123616
vt 0.695604 0.033739
vt 0.695604 0.016213
vt 0.719671 0.016213
vt 0.719671 0.033739
vt 0.424651 0.095550
vt 0.444780 0.075421
vt 0.464909 0.095550
vt 0.444780 0.115678
vt 0.690931 0.133541
vt 0.690931 0.034255
vt 0.716824 0.034255
vt 0.716824 0.133541
vt 0.743160 0.133541
vt 0.743160 0.034255
vt 0.769971 0.034255
vt 0.769971 0.133541
vt 0.516395 0.103673
vt 0.536524 0.083544
vt 0.556653 0.103673
vt 0.536524 0.123802
vt 0.719934 0.034617
vt 0.719934 0.017218
vt 0.744119 0.017218
vt 0.744119 0.034617
vt 0.422951 0.095693
vt 0.446511 0.072133
vt 0.470071 0.095692
vt 0.446511 0.119252
vt 0.689585 0.135244
vt 0.689585 0.035233
vt 0.716195 0.035233
vt 0.716195 0.135244
vt 0.512903 0.103622
vt 0.536463 0.080062
vt 0.560023 0.103622
vt 0.536463 0.127182
vt 0.665290 0.033490
vt 0.271639 0.033531
vt 0.271731 0.013572
vt 0.665524 0.013571
vt 0.665365 0.051184
vt 0.271746 0.051103
vt 0.271639 0.033531
vt 0.665290 0.033490
vt 0.206690 0.253730
vt 0.206690 0.319093
vt 0.231864 0.319093
vt 0.231864 0.253730
vt 0.043790 0.319093
vt 0.043790 0.253730
vt 0.015266 0.253730
vt 0.015266 0.319093
vt 0.314636 0.973322
vt 0.314636 0.334145
vt 0.115880 0.334145
vt 0.115880 0.973322
vt 0.149847 0.561304
vt 0.149847 0.971094
vt 0.205563 0.971094
vt 0.205563 0.561304
vt 0.237744 0.971094
vt 0.237744 0.561304
vt 0.260417 0.971094
vt 0.260417 0.561304
vt 0.584418 0.047450
vt 0.665098 0.034002
vt 0.584418 0.107037
vt 0.665098 0.146317
vt 0.625213 0.146317
vt 0.467454 0.992571
vt 0.561366 0.992571
vt 0.745480 0.283329
vt 0.497482 0.333164
vt 0.508115 0.283329
vt 0.272041 0.034001
vt 0.352721 0.047449
vt 0.352721 0.107036
vt 0.272041 0.146317
vt 0.311926 0.146317
vt 0.141244 0.255772
vt 0.139448 0.305210
vt 0.136700 0.305001
vt 0.137402 0.255626
vt 0.141237 0.209617
vt 0.137524 0.209664
vt 0.137603 0.158580
vt 0.141281 0.158431
vt 0.121327 0.255531
vt 0.120939 0.304958
vt 0.117383 0.304741
vt 0.117748 0.255399
vt 0.121465 0.209412
vt 0.117902 0.209464
vt 0.118668 0.158443
vt 0.122268 0.158293
vt 0.043790 0.254438
vt 0.043790 0.319093
vt 0.023877 0.319093
vt 0.023877 0.254438
vt 0.043790 0.237704
vt 0.023877 0.237704
vt 0.054702 0.187572
vt 0.023877 0.102369
vt 0.084515 0.151165
vt 0.125240 0.137839
vt 0.235401 0.102369
vt 0.165965 0.151165
vt 0.023877 0.065554
vt 0.195778 0.187572
vt 0.235401 0.065554
vt 0.235401 0.237704
vt 0.236173 0.045457
vt 0.206690 0.237704
vt 0.023999 0.045457
vt 0.206690 0.254438
vt 0.023567 0.011130
vt 0.237024 0.011130
vt 0.235401 0.254438
vt 0.206690 0.319093
vt 0.235401 0.319093
vt 0.549668 0.145840
vt 0.604042 0.138414
vt 0.618570 0.178455
vt 0.561225 0.191163
vt 0.486627 0.137859
vt 0.497902 0.194654
vt 0.429150 0.195551
vt 0.381557 0.117467
vt 0.376152 0.135000
vt 0.400149 0.175713
vt 0.561465 0.191283
vt 0.618570 0.178455
vt 0.604042 0.138414
vt 0.550000 0.145938
vt 0.498133 0.194643
vt 0.486974 0.137822
vt 0.429377 0.195396
vt 0.381949 0.117212
vt 0.376506 0.134733
vt 0.400417 0.175497
vt 0.141244 0.255772
vt 0.139448 0.305210
vt 0.136700 0.305001
vt 0.137402 0.255626
vt 0.141237 0.209617
vt 0.137524 0.209664
vt 0.137603 0.158580
vt 0.141281 0.158431
vt 0.121327 0.255531
vt 0.120939 0.304958
vt 0.117383 0.304741
vt 0.117748 0.255399
vt 0.121465 0.209412
vt 0.117902 0.209464
vt 0.118668 0.158443
vt 0.122268 0.158293
vt 0.808009 0.991510
vt 0.576404 0.991510
vt 0.818245 0.941601
vt 0.846784 0.279642
vt 0.755203 0.279642
vt 0.043790 0.254438
vt 0.043790 0.319093
vt 0.015266 0.319093
vt 0.015266 0.254438
vt 0.043790 0.237704
vt 0.015266 0.237704
vt 0.054702 0.187572
vt 0.015266 0.102369
vt 0.084515 0.151165
vt 0.125240 0.137839
vt 0.231863 0.102369
vt 0.165965 0.151165
vt 0.015266 0.065554
vt 0.195778 0.187572
vt 0.231863 0.065554
vt 0.231863 0.237704
vt 0.232636 0.045457
vt 0.206690 0.237704
vt 0.015388 0.045457
vt 0.206690 0.254438
vt 0.014956 0.011130
vt 0.233486 0.011130
vt 0.231863 0.254438
vt 0.206690 0.319093
vt 0.231864 0.319093
vt 0.549668 0.145840
vt 0.604042 0.138414
vt 0.618570 0.178455
vt 0.561225 0.191163
vt 0.486627 0.137859
vt 0.497902 0.194654
vt 0.429150 0.195551
vt 0.381557 0.117467
vt 0.376152 0.135000
vt 0.400149 0.175713
vt 0.561465 0.191283
vt 0.618570 0.178455
vt 0.604042 0.138414
vt 0.550000 0.145938
vt 0.498133 0.194643
vt 0.486974 0.137822
vt 0.429377 0.195396
vt 0.381949 0.117212
vt 0.376506 0.134733
vt 0.400417 0.175497
vt 0.328747 0.283329
vt 0.332763 0.992571
vt 0.383560 0.992571
vt 0.420328 0.334212
vt 0.415335 0.283329
vt 0.432504 0.992571
vt 0.466438 0.331041
vt 0.468453 0.283329
vt 0.497482 0.333164
vt 0.467454 0.992571
vt 0.508115 0.283329
vt 0.928496 0.279642
vt 0.989125 0.279642
vt 0.983064 0.991510
vt 0.893607 0.940349
vt 0.898671 0.991510
vt 0.880816 0.279642
vt 0.848574 0.943661
vt 0.846815 0.991510
vt 0.818245 0.941601
vt 0.846784 0.279642
vt 0.808009 0.991510
vn -0.948682 0.31623 -2.0000000000193635E-06
vn -0.866026 -0.288675 0.408248
vn -0.235701 0.707108 0.666666
vn -0.235701 0.707108 0.666666
vn 0.316229 0.948683 -5.809007996777542E-17
vn -0.948682 0.31623 -2.0000000000193635E-06
vn -0.948683 0.316228 -1.9363380400038462E-17
vn -0.866026 -0.288674 0.408248
vn -0.235702 0.707107 0.666667
vn -0.235702 0.707107 0.666667
vn 0.316228 0.948683 -5.809007996777542E-17
vn -0.948683 0.316228 -1.9363380400038462E-17
vn -0.037234 -0.001207999999999939 0.999306
vn 0.009714 0.31701100000000004 0.948372
vn 0.048445 -0.947853 0.31500400000000006
vn 0.07441 -0.31377399999999994 0.946578
vn 0.067847 -0.945951 -0.31713299999999994
vn 0.048445 -0.947853 0.31500400000000006
vn 0.048445 -0.947853 0.31500400000000006
vn 0.009714 0.31701100000000004 0.948372
vn 0.07441 -0.31377399999999994 0.946578
vn -0.037234 -0.0012069999999999388 0.999306
vn 0.009714 0.31700600000000007 0.948374
vn 0.048445 -0.947853 0.31500500000000003
vn 0.07441 -0.31377599999999994 0.946577
vn 0.067846 -0.94595 -0.3171359999999999
vn 0.048445 -0.947853 0.31500500000000003
vn 0.048445 -0.947853 0.31500500000000003
vn 0.009714 0.31700600000000007 0.948374
vn 0.07441 -0.31377599999999994 0.946577
vn -0.948683 0.316229 -1.0000000000193633E-06
vn -0.866026 -0.288674 0.408248
vn -0.235701 0.707107 0.666667
vn -0.235701 0.707107 0.666667
vn 0.316229 0.948683 -5.809007996777542E-17
vn -0.948683 0.316229 -1.0000000000193633E-06
vn -0.948683 0.316229 -1.9363441632378416E-17
vn -0.866026 -0.288675 0.408249
vn -0.235701 0.707107 0.666667
vn -0.235701 0.707107 0.666667
vn 0.316229 0.948683 -5.809007996777542E-17
vn -0.948683 0.316229 -1.9363441632378416E-17
vn -0.009831 0.0007410000000000613 0.999951
vn 0.033479 0.3154640000000001 0.948347
vn -0.022631 -0.948232 0.3167710000000001
vn 0.025674 -0.31735299999999994 0.94796
vn -0.078429 -0.946175 -0.31400999999999996
vn -0.022631 -0.948232 0.3167710000000001
vn -0.022631 -0.948232 0.3167710000000001
vn 0.033479 0.3154640000000001 0.948347
vn 0.025674 -0.31735299999999994 0.94796
vn -0.009831 0.0007430000000000612 0.999951
vn 0.033479 0.31545900000000004 0.948348
vn -0.022631 -0.948232 0.3167710000000001
vn 0.025674 -0.31735399999999997 0.947959
vn -0.078429 -0.946174 -0.31401299999999993
vn -0.022631 -0.948232 0.3167710000000001
vn -0.022631 -0.948232 0.3167710000000001
vn 0.033479 0.31545900000000004 0.948348
vn 0.025674 -0.31735399999999997 0.947959
vn -0.316228 -0.948683 5.809007996777542E-17
vn 0.235702 -0.707107 0.666667
vn -0.866026 -0.288675 0.408248
vn -0.948682 0.31623 -2.0000000000193635E-06
vn -0.316228 -0.948683 5.809007996777542E-17
vn -0.948683 0.316228 -1.9363380400038462E-17
vn -0.866026 -0.288675 0.408248
vn -0.235702 0.707107 0.666667
vn 0.316228 0.948683 -5.809007996777542E-17
vn -0.948683 0.316228 -1.9363380400038462E-17
vn -0.316228 -0.948683 5.809007996777542E-17
vn 0.235702 -0.707107 0.666667
vn -0.866026 -0.288675 0.408248
vn -0.948683 0.316228 -1.9363380400038462E-17
vn -0.316228 -0.948683 5.809007996777542E-17
vn 0.948683 -0.316228 1.9363380400038462E-17
vn 0.866026 0.288675 0.408248
vn 0.235702 -0.707107 0.666667
vn -0.316228 -0.948683 5.809007996777542E-17
vn 0.948683 -0.316228 1.9363380400038462E-17
vn -0.948683 0.316228 -1.0000000000193633E-06
vn -0.866026 -0.288675 0.408247
vn -0.235703 0.707107 0.666667
vn 0.316228 0.948683 -5.809007996777542E-17
vn -0.948683 0.316228 -1.0000000000193633E-06
vn -0.316229 -0.948683 -9.999999999419098E-07
vn 0.235702 -0.707107 0.666667
vn -0.866026 -0.288675 0.408247
vn -0.948683 0.316228 -1.0000000000193633E-06
vn -0.316229 -0.948683 -9.999999999419098E-07
vn 0.948683 -0.316228 1.0000000000193633E-06
vn 0.866025 0.288675 0.408249
vn 0.235702 -0.707107 0.666667
vn -0.316229 -0.948683 -9.999999999419098E-07
vn 0.948683 -0.316228 1.0000000000193633E-06
vn 0.948683 -0.316229 1.9363441632378416E-17
vn 0.866025 0.288675 0.408249
vn 0.2357 -0.707107 0.666667
vn -0.31623 -0.948683 5.809007996777542E-17
vn 0.948683 -0.316229 1.9363441632378416E-17
vn -0.948683 0.316228 -1.9363380400038462E-17
vn -0.866025 -0.288675 0.408248
vn -0.235702 0.707107 0.666667
vn -0.235702 0.707107 0.666667
vn 0.316228 0.948683 1.99999999994191E-06
vn -0.316227 -0.948684 5.809014120011538E-17
vn 0.235702 -0.707106 0.666667
vn -0.866025 -0.288675 0.408248
vn -0.948683 0.316228 -1.9363380400038462E-17
vn -0.316227 -0.948684 5.809014120011538E-17
vn 0.948683 -0.316228 3.0000000000193632E-06
vn 0.866025 0.288675 0.40825
vn 0.235702 -0.707106 0.666667
vn -0.316227 -0.948684 5.809014120011538E-17
vn 0.948683 -0.316228 3.0000000000193632E-06
vn -0.948683 0.316228 -1.9363380400038462E-17
vn -0.866025 -0.288675 0.408248
vn -0.235702 0.707107 0.666667
vn 0.316229 0.948683 -5.809007996777542E-17
vn -0.948683 0.316228 -1.9363380400038462E-17
vn -0.316228 -0.948683 5.809007996777542E-17
vn 0.235703 -0.707107 0.666667
vn -0.866025 -0.288675 0.408248
vn -0.948683 0.316228 -1.9363380400038462E-17
vn -0.316228 -0.948683 5.809007996777542E-17
vn 0.948683 -0.316227 1.9363319167698502E-17
vn 0.866026 0.288675 0.408248
vn 0.235703 -0.707107 0.666667
vn -0.316228 -0.948683 5.809007996777542E-17
vn 0.948683 -0.316227 1.9363319167698502E-17
vn -0.02471 0.999695 -0.0005430000000000612
vn -0.081099 0.945978 0.31392499999999995
vn 0.026548 0.3174409999999999 -0.947906
vn 0.037234 0.0011779999999999389 -0.999306
vn -0.02471 0.999695 -0.0005430000000000612
vn -0.048447 0.947844 -0.31503200000000003
vn -0.02471 0.999695 -0.0005430000000000612
vn -0.009713 -0.31703600000000004 -0.948364
vn -0.048447 0.947844 -0.31503200000000003
vn -0.048447 0.947844 -0.31503200000000003
vn -0.074409 0.31370599999999993 -0.9466
vn -0.067843 0.945945 0.31715299999999996
vn -0.048447 0.947844 -0.31503200000000003
vn -0.02471 0.999695 -0.0005420000000000612
vn -0.081099 0.945979 0.3139219999999999
vn 0.026549 0.3174409999999999 -0.947906
vn 0.037233 0.0011789999999999388 -0.999306
vn -0.02471 0.999695 -0.0005420000000000612
vn -0.048447 0.947845 -0.31502800000000003
vn -0.02471 0.999695 -0.0005420000000000612
vn -0.009714 -0.31703400000000004 -0.948365
vn -0.048447 0.947845 -0.31502800000000003
vn -0.048447 0.947845 -0.31502800000000003
vn -0.07441 0.31371099999999996 -0.946598
vn -0.067843 0.945943 0.31715899999999997
vn -0.048447 0.947845 -0.31502800000000003
vn -0.316229 -0.948683 5.809007996777542E-17
vn 0.235702 -0.707107 0.666667
vn -0.866026 -0.288674 0.408248
vn -0.948683 0.316229 -1.0000000000193633E-06
vn -0.316229 -0.948683 5.809007996777542E-17
vn -0.948683 0.316228 -1.9363380400038462E-17
vn -0.866026 -0.288675 0.408248
vn -0.235702 0.707107 0.666667
vn 0.316228 0.948683 -5.809007996777542E-17
vn -0.948683 0.316228 -1.9363380400038462E-17
vn -0.316228 -0.948683 5.809007996777542E-17
vn 0.235702 -0.707107 0.666667
vn -0.866026 -0.288675 0.408248
vn -0.948683 0.316228 -1.9363380400038462E-17
vn -0.316228 -0.948683 5.809007996777542E-17
vn 0.948683 -0.316228 1.9363380400038462E-17
vn 0.866026 0.288675 0.408248
vn 0.235702 -0.707107 0.666667
vn -0.316228 -0.948683 5.809007996777542E-17
vn 0.948683 -0.316228 1.9363380400038462E-17
vn -0.948683 0.316228 -1.9363380400038462E-17
vn -0.866026 -0.288675 0.408248
vn -0.235702 0.707107 0.666667
vn 0.316228 0.948683 -5.809007996777542E-17
vn -0.948683 0.316228 -1.9363380400038462E-17
vn -0.316228 -0.948683 5.809007996777542E-17
vn 0.235702 -0.707107 0.666667
vn -0.866026 -0.288675 0.408248
vn -0.948683 0.316228 -1.9363380400038462E-17
vn -0.316228 -0.948683 5.809007996777542E-17
vn 0.948683 -0.316228 1.9363380400038462E-17
vn 0.866025 0.288675 0.408249
vn 0.235702 -0.707107 0.666667
vn -0.316228 -0.948683 5.809007996777542E-17
vn 0.948683 -0.316228 1.9363380400038462E-17
vn 0.948683 -0.316227 1.9363319167698502E-17
vn 0.866026 0.288674 0.408248
vn 0.235702 -0.707107 0.666667
vn -0.316228 -0.948683 5.809007996777542E-17
vn 0.948683 -0.316227 1.9363319167698502E-17
vn -0.948683 0.316229 -1.0000000000193633E-06
vn -0.866026 -0.288675 0.408247
vn -0.235702 0.707107 0.666666
vn -0.235702 0.707107 0.666666
vn 0.316228 0.948683 1.99999999994191E-06
vn -0.316228 -0.948683 -9.999999999419098E-07
vn 0.235702 -0.707106 0.666667
vn -0.866026 -0.288675 0.408247
vn -0.948683 0.316229 -1.0000000000193633E-06
vn -0.316228 -0.948683 -9.999999999419098E-07
vn 0.948683 -0.316228 4.000000000019363E-06
vn 0.866024 0.288674 0.408251
vn 0.235702 -0.707106 0.666667
vn -0.316228 -0.948683 -9.999999999419098E-07
vn 0.948683 -0.316228 4.000000000019363E-06
vn -0.948683 0.316228 -1.9363380400038462E-17
vn -0.866025 -0.288675 0.408248
vn -0.235702 0.707107 0.666667
vn 0.316229 0.948683 -5.809007996777542E-17
vn -0.948683 0.316228 -1.9363380400038462E-17
vn -0.316228 -0.948683 5.809007996777542E-17
vn 0.235703 -0.707107 0.666667
vn -0.866025 -0.288675 0.408248
vn -0.948683 0.316228 -1.9363380400038462E-17
vn -0.316228 -0.948683 5.809007996777542E-17
vn 0.948683 -0.316228 1.9363380400038462E-17
vn 0.866026 0.288674 0.408248
vn 0.235703 -0.707107 0.666667
vn -0.316228 -0.948683 5.809007996777542E-17
vn 0.948683 -0.316228 1.9363380400038462E-17
vn 0.052819 0.998603 0.001599999999999939
vn 0.070151 0.945767 0.31718099999999994
vn 0.076933 0.3135339999999999 -0.946455
vn 0.009832 -0.0007030000000000612 -0.999951
vn 0.052819 0.998603 0.001599999999999939
vn 0.022632 0.948228 -0.31678300000000004
vn 0.052819 0.998603 0.001599999999999939
vn -0.03348 -0.3154330000000001 -0.948357
vn 0.022632 0.948228 -0.31678300000000004
vn 0.022632 0.948228 -0.31678300000000004
vn -0.025678 0.31736099999999995 -0.947957
vn 0.078423 0.946195 0.3139509999999999
vn 0.022632 0.948228 -0.31678300000000004
vn 0.052819 0.998603 0.0016009999999999388
vn 0.070151 0.945768 0.31717799999999996
vn 0.076933 0.3135339999999999 -0.946455
vn 0.009832 -0.0007020000000000613 -0.999951
vn 0.052819 0.998603 0.0016009999999999388
vn 0.022632 0.94823 -0.31677900000000003
vn 0.052819 0.998603 0.0016009999999999388
vn -0.03348 -0.31543000000000004 -0.948358
vn 0.022632 0.94823 -0.31677900000000003
vn 0.022632 0.94823 -0.31677900000000003
vn -0.025678 0.3173659999999999 -0.947956
vn 0.078423 0.946193 0.31395699999999993
vn 0.022632 0.94823 -0.31677900000000003
vn 0.081092 -0.945999 -0.31386299999999995
vn 0.024711 -0.999694 0.0005660000000000612
vn 0.037234 0.0011779999999999389 -0.999306
vn 0.026548 0.3174409999999999 -0.947906
vn 0.081092 -0.945999 -0.31386299999999995
vn -0.009713 -0.31703600000000004 -0.948364
vn 0.024711 -0.999694 0.0005660000000000612
vn 0.067847 -0.945951 -0.31713299999999994
vn -0.074409 0.31370599999999993 -0.9466
vn 0.048445 -0.947853 0.31500400000000006
vn 0.024711 -0.999694 0.0005660000000000612
vn -0.026552 -0.3174509999999999 0.947903
vn -0.037234 -0.001207999999999939 0.999306
vn 0.024711 -0.999694 0.0005660000000000612
vn 0.081092 -0.945999 -0.31386299999999995
vn -0.026552 -0.3174509999999999 0.947903
vn 0.048445 -0.947853 0.31500400000000006
vn -0.037234 -0.001207999999999939 0.999306
vn 0.081092 -0.945998 -0.31386499999999995
vn 0.024711 -0.999694 0.0005650000000000612
vn 0.037233 0.0011789999999999388 -0.999306
vn 0.026549 0.3174409999999999 -0.947906
vn 0.081092 -0.945998 -0.31386499999999995
vn -0.009714 -0.31703400000000004 -0.948365
vn 0.024711 -0.999694 0.0005650000000000612
vn 0.067846 -0.94595 -0.3171359999999999
vn -0.07441 0.31371099999999996 -0.946598
vn 0.048445 -0.947853 0.31500500000000003
vn 0.024711 -0.999694 0.0005650000000000612
vn -0.026553 -0.31745199999999996 0.947903
vn -0.037234 -0.0012069999999999388 0.999306
vn 0.024711 -0.999694 0.0005650000000000612
vn 0.081092 -0.945998 -0.31386499999999995
vn -0.026553 -0.31745199999999996 0.947903
vn 0.048445 -0.947853 0.31500500000000003
vn -0.037234 -0.0012069999999999388 0.999306
vn -0.070148 -0.94576 -0.31720199999999993
vn -0.052821 -0.998603 -0.0015779999999999388
vn 0.009832 -0.0007030000000000612 -0.999951
vn 0.076933 0.3135339999999999 -0.946455
vn -0.070148 -0.94576 -0.31720199999999993
vn -0.03348 -0.3154330000000001 -0.948357
vn -0.052821 -0.998603 -0.0015779999999999388
vn -0.078429 -0.946175 -0.31400999999999996
vn -0.025678 0.31736099999999995 -0.947957
vn -0.022631 -0.948232 0.3167710000000001
vn -0.052821 -0.998603 -0.0015779999999999388
vn -0.076932 -0.31346399999999996 0.946479
vn -0.009831 0.0007410000000000613 0.999951
vn -0.052821 -0.998603 -0.0015779999999999388
vn -0.070148 -0.94576 -0.31720199999999993
vn -0.076932 -0.31346399999999996 0.946479
vn -0.022631 -0.948232 0.3167710000000001
vn -0.009831 0.0007410000000000613 0.999951
vn -0.070148 -0.94576 -0.31720299999999996
vn -0.052822 -0.998603 -0.001578999999999939
vn 0.009832 -0.0007020000000000613 -0.999951
vn 0.076933 0.3135339999999999 -0.946455
vn -0.070148 -0.94576 -0.31720299999999996
vn -0.03348 -0.31543000000000004 -0.948358
vn -0.052822 -0.998603 -0.001578999999999939
vn -0.078429 -0.946174 -0.31401299999999993
vn -0.025678 0.3173659999999999 -0.947956
vn -0.022631 -0.948232 0.3167710000000001
vn -0.052822 -0.998603 -0.001578999999999939
vn -0.076932 -0.31346499999999994 0.946478
vn -0.009831 0.0007430000000000612 0.999951
vn -0.052822 -0.998603 -0.001578999999999939
vn -0.070148 -0.94576 -0.31720299999999996
vn -0.076932 -0.31346499999999994 0.946478
vn -0.022631 -0.948232 0.3167710000000001
vn -0.009831 0.0007430000000000612 0.999951
vn 0 1 -6.123233995736766E-17
vn 0 1 -6.123233995736766E-17
vn 0 1 -6.123233995736766E-17
vn 0 1 -6.123233995736766E-17
vn -1 0 0
vn -1 0 -0
vn -1 0 0
vn -1 0 0
vn 1 -0 0
vn 1 -1E-06 6.123233995736766E-23
vn 0.966022 0.25846 -1.5826110585381246E-17
vn 0.856099 0.516812 0.0005749999999999683
vn 0.856099 0.516812 0.0005749999999999683
vn 0.966022 0.25846 -1.5826110585381246E-17
vn 0.493911 0.869513 -5.3242315613350625E-17
vn 0.246956 0.969026 0.0008959999999999407
vn 0.246956 0.969026 0.0008959999999999407
vn 0.493911 0.869513 -5.3242315613350625E-17
vn 1E-06 1 -6.123233995736766E-17
vn 1E-06 1 0.0009249999999999388
vn 1 0 -0
vn 1 0 -0
vn 1 0 -0
vn 1 0 -0
vn 0 1 -6.123233995736766E-17
vn 0 1 -6.123233995736766E-17
vn 0 1 -6.123233995736766E-17
vn 0 1 -6.123233995736766E-17
vn -0 0.991531 0.12987099999999993
vn -0 0.991531 0.12987099999999993
vn -0 0.991531 0.12987099999999993
vn -0 0.991531 0.12987099999999993
vn 0 0.003248000000000061 0.999995
vn 0 0.003248000000000061 0.999995
vn 0 0.003248000000000061 0.999995
vn 0 0.003248000000000061 0.999995
vn 0.948683 -0.316229 1.9363441632378416E-17
vn 0.866026 0.288674 0.408249
vn 0.235702 -0.707107 0.666667
vn -0.316228 -0.948683 5.809007996777542E-17
vn 0.316229 0.948683 -5.809007996777542E-17
vn -0.235701 0.707108 0.666666
vn 0.866026 0.288674 0.408249
vn 0.948683 -0.316229 1.9363441632378416E-17
vn -0.235701 0.707108 0.666666
vn -0.866026 -0.288675 0.408248
vn 0.235702 -0.707107 0.666667
vn 0.866026 0.288674 0.408249
vn 0.316228 0.948683 -5.809007996777542E-17
vn -0.235702 0.707107 0.666667
vn 0.866026 0.288675 0.408248
vn 0.948683 -0.316228 1.9363380400038462E-17
vn -0.235702 0.707107 0.666667
vn -0.866026 -0.288675 0.408248
vn 0.235702 -0.707107 0.666667
vn 0.866026 0.288675 0.408248
vn 0.316228 0.948683 -5.809007996777542E-17
vn -0.235703 0.707107 0.666667
vn 0.866025 0.288675 0.408249
vn 0.948683 -0.316228 1.0000000000193633E-06
vn -0.235703 0.707107 0.666667
vn -0.866026 -0.288675 0.408247
vn 0.235702 -0.707107 0.666667
vn 0.866025 0.288675 0.408249
vn -0.31623 -0.948683 5.809007996777542E-17
vn 0.2357 -0.707107 0.666667
vn -0.866026 -0.288674 0.408248
vn -0.948683 0.316228 -1.9363380400038462E-17
vn 0.316228 0.948683 -5.809007996777542E-17
vn -0.235702 0.707107 0.666667
vn 0.866025 0.288675 0.408249
vn 0.948683 -0.316229 1.9363441632378416E-17
vn -0.235702 0.707107 0.666667
vn -0.866026 -0.288674 0.408248
vn 0.2357 -0.707107 0.666667
vn 0.866025 0.288675 0.408249
vn 0.316228 0.948683 1.99999999994191E-06
vn -0.235702 0.707107 0.666667
vn 0.866025 0.288675 0.40825
vn 0.948683 -0.316228 3.0000000000193632E-06
vn -0.235702 0.707107 0.666667
vn -0.866025 -0.288675 0.408248
vn 0.235702 -0.707106 0.666667
vn 0.866025 0.288675 0.40825
vn 0.316229 0.948683 -5.809007996777542E-17
vn -0.235702 0.707107 0.666667
vn 0.866026 0.288675 0.408248
vn 0.948683 -0.316227 1.9363319167698502E-17
vn -0.235702 0.707107 0.666667
vn -0.866025 -0.288675 0.408248
vn 0.235703 -0.707107 0.666667
vn 0.866026 0.288675 0.408248
vn -0.000102 -1 2.0000000000612323E-06
vn -0.000102 -1 1.0000000000612324E-06
vn -0.000102 -1 2.0000000000612323E-06
vn -0.000102 -1 2.0000000000612323E-06
vn 0 5.000000000061232E-06 1
vn -0 2.0000000000061235E-05 1
vn 0 5.000000000061232E-06 1
vn 0 5.000000000061232E-06 1
vn 0 -0.14029200000000006 -0.99011
vn -0 0.41074999999999995 -0.911748
vn -0 0.12946899999999995 -0.991584
vn 0 -0.14029100000000005 -0.99011
vn 0 0.12946899999999995 -0.991584
vn -0 -0.14029100000000005 -0.99011
vn -0 -0.14029100000000005 -0.99011
vn 0 0.2730429999999999 -0.962002
vn 0.948683 -0.316229 1.9363441632378416E-17
vn 0.866026 0.288674 0.408248
vn 0.235702 -0.707107 0.666667
vn -0.316229 -0.948683 5.809007996777542E-17
vn 0.316229 0.948683 -5.809007996777542E-17
vn -0.235701 0.707107 0.666667
vn 0.866026 0.288674 0.408248
vn 0.948683 -0.316229 1.9363441632378416E-17
vn -0.235701 0.707107 0.666667
vn -0.866026 -0.288674 0.408248
vn 0.235702 -0.707107 0.666667
vn 0.866026 0.288674 0.408248
vn 0.316228 0.948683 -5.809007996777542E-17
vn -0.235702 0.707107 0.666667
vn 0.866026 0.288675 0.408248
vn 0.948683 -0.316228 1.9363380400038462E-17
vn -0.235702 0.707107 0.666667
vn -0.866026 -0.288675 0.408248
vn 0.235702 -0.707107 0.666667
vn 0.866026 0.288675 0.408248
vn 0.316228 0.948683 -5.809007996777542E-17
vn -0.235702 0.707107 0.666667
vn 0.866025 0.288675 0.408249
vn 0.948683 -0.316228 1.9363380400038462E-17
vn -0.235702 0.707107 0.666667
vn -0.866026 -0.288675 0.408248
vn 0.235702 -0.707107 0.666667
vn 0.866025 0.288675 0.408249
vn -0.316228 -0.948683 5.809007996777542E-17
vn 0.235702 -0.707107 0.666667
vn -0.866026 -0.288675 0.408249
vn -0.948683 0.316229 -1.9363441632378416E-17
vn 0.316229 0.948683 -5.809007996777542E-17
vn -0.235701 0.707107 0.666667
vn 0.866026 0.288674 0.408248
vn 0.948683 -0.316227 1.9363319167698502E-17
vn -0.235701 0.707107 0.666667
vn -0.866026 -0.288675 0.408249
vn 0.235702 -0.707107 0.666667
vn 0.866026 0.288674 0.408248
vn 0.316228 0.948683 1.99999999994191E-06
vn -0.235702 0.707107 0.666666
vn 0.866024 0.288674 0.408251
vn 0.948683 -0.316228 4.000000000019363E-06
vn -0.235702 0.707107 0.666666
vn -0.866026 -0.288675 0.408247
vn 0.235702 -0.707106 0.666667
vn 0.866024 0.288674 0.408251
vn 0.316229 0.948683 -5.809007996777542E-17
vn -0.235702 0.707107 0.666667
vn 0.866026 0.288674 0.408248
vn 0.948683 -0.316228 1.9363380400038462E-17
vn -0.235702 0.707107 0.666667
vn -0.866025 -0.288675 0.408248
vn 0.235703 -0.707107 0.666667
vn 0.866026 0.288674 0.408248
vn -0.000102 -1 1.0000000000612324E-06
vn -0.000102 -1 6.123233995736766E-17
vn -0.000102 -1 1.0000000000612324E-06
vn -0.000102 -1 1.0000000000612324E-06
vn 0 2.0000000000061235E-05 1
vn -0 3.600000000006123E-05 1
vn 0 2.0000000000061235E-05 1
vn 0 2.0000000000061235E-05 1
vn -0 -0.14029100000000005 -0.99011
vn 0 0.41074999999999995 -0.911748
vn 0 0.2730429999999999 -0.962002
vn -0 -0.14029100000000005 -0.99011
vn 0 0.12946899999999995 -0.991584
vn -0 -0.14029100000000005 -0.99011
vn -0 -0.14029100000000005 -0.99011
vn 0 0.41074999999999995 -0.911748
vn -0 0.991531 0.12987099999999993
vn -0 0.991531 0.12987099999999993
vn -0 0.991531 0.12987099999999993
vn -0 0.991531 0.12987099999999993
vn -1 0 0
vn -1 0 0
vn -0.920195 0.391459 0.0005809999999999761
vn -0.856033 0.516921 -3.165228240310245E-17
vn -0.37376 0.927525 0.0009039999999999432
vn -0.246956 0.969027 -5.933579069186812E-17
vn -1E-06 1 0.0006169999999999388
vn -1E-06 1 -6.123233995736766E-17
vn 0 6.123233995736766E-17 1
vn 0 6.123233995736766E-17 1
vn 0 6.123233995736766E-17 1
vn 0 6.123233995736766E-17 1
vn 0 6.123233995736766E-17 1
vn 1 0 -0
vn 1 0 0
vn 1 0 -0
vn 1 0 -0
vn 1 0 0
vn 0 6.123233995736766E-17 1
vn 0 6.123233995736766E-17 1
vn 0 6.123233995736766E-17 1
vn 0 6.123233995736766E-17 1
vn 0 6.123233995736766E-17 1
vn -0.037234 -0.001207999999999939 0.999306
vn -0.026552 -0.3174509999999999 0.947903
vn -0.081099 0.945978 0.31392499999999995
vn -0.02471 0.999695 -0.0005430000000000612
vn 0.009714 0.31701100000000004 0.948372
vn -0.048447 0.947844 -0.31503200000000003
vn -0.067843 0.945945 0.31715299999999996
vn 0.07441 -0.31377399999999994 0.946578
vn -0.037234 -0.0012069999999999388 0.999306
vn -0.026553 -0.31745199999999996 0.947903
vn -0.081099 0.945979 0.3139219999999999
vn -0.02471 0.999695 -0.0005420000000000612
vn 0.009714 0.31700600000000007 0.948374
vn -0.048447 0.947845 -0.31502800000000003
vn -0.067843 0.945943 0.31715899999999997
vn 0.07441 -0.31377599999999994 0.946577
vn 0 0.745753 -0.666223
vn 0 0.12946899999999995 -0.991584
vn 0 0.2730429999999999 -0.962002
vn 0 0.793928 -0.608012
vn 0 0.973221 -0.22986900000000005
vn 0 0.996461 -0.08405500000000006
vn 0.0002 0.985017 0.17245599999999994
vn 0 0.96818 0.2502539999999999
vn 0.000646 0.984991 0.17260399999999995
vn -0 0.985165 0.17160699999999995
vn -0.000174 0.963531 0.26759499999999997
vn -0.000647 0.984991 0.17260299999999995
vn -0 0.764428 0.644709
vn -0.0002 0.985017 0.17245499999999994
vn -0 0.764428 0.644709
vn 6.9E-05 0.991746 -0.12821400000000005
vn -0 0.3149060000000001 0.949123
vn -0 0.991738 -0.12828300000000006
vn -0 0.3149060000000001 0.949123
vn -0 0.837571 -0.546329
vn -0 0.003248000000000061 0.999995
vn 0 0.003248000000000061 0.999995
vn -0 0.745753 -0.666223
vn -0 0.41074999999999995 -0.911748
vn -0 0.12946899999999995 -0.991584
vn -0.38171 0.33767499999999995 -0.860391
vn 0.07944 0.36653899999999995 -0.927005
vn -0.077677 0.3665919999999999 -0.927134
vn -0.532451 0.3020379999999999 -0.790739
vn -0.849933 0.20569199999999999 -0.485081
vn -0.844693 0.18386099999999997 -0.502681
vn -0.991338 0.06491799999999999 -0.114166
vn -0.9924 0.080335 -0.093215
vn -1 -1E-06 6.123233995736766E-23
vn -1 -2E-06 1.0000000000000002E-06
vn 0.385527 0.33709999999999996 -0.858914
vn -0.077677 0.3665919999999999 -0.927134
vn 0.07944 0.36653899999999995 -0.927005
vn 0.531903 0.30211699999999997 -0.791078
vn 0.788188 0.21632299999999996 -0.576163
vn 0.897995 0.17888599999999996 -0.402002
vn 0.991338 0.06491899999999999 -0.114166
vn 0.9924 0.080336 -0.093214
vn 1 -9.999999999999997E-07 2E-06
vn 1 -2E-06 3E-06
vn -0.009831 0.0007410000000000613 0.999951
vn -0.076932 -0.31346399999999996 0.946479
vn 0.070151 0.945767 0.31718099999999994
vn 0.052819 0.998603 0.001599999999999939
vn 0.033479 0.3154640000000001 0.948347
vn 0.022632 0.948228 -0.31678300000000004
vn 0.078423 0.946195 0.3139509999999999
vn 0.025674 -0.31735299999999994 0.94796
vn -0.009831 0.0007430000000000612 0.999951
vn -0.076932 -0.31346499999999994 0.946478
vn 0.070151 0.945768 0.31717799999999996
vn 0.052819 0.998603 0.0016009999999999388
vn 0.033479 0.31545900000000004 0.948348
vn 0.022632 0.94823 -0.31677900000000003
vn 0.078423 0.946193 0.31395699999999993
vn 0.025674 -0.31735399999999997 0.947959
vn -1 0 0
vn -1 0 0
vn -1 0 0
vn -1 0 0
vn -1 0 0
vn 0 0.745753 -0.666223
vn 0 0.12946899999999995 -0.991584
vn 0 0.41074999999999995 -0.911748
vn 0 0.83757 -0.54633
vn 0 0.973222 -0.22987000000000005
vn -9.2E-05 0.999682 -0.025235000000000063
vn 0.0002 0.985017 0.17245499999999994
vn 0.000208 0.973334 0.22939399999999993
vn 0.000648 0.984991 0.17260199999999995
vn 0 0.985165 0.17160799999999996
vn 0 0.96818 0.2502539999999999
vn -0.000645 0.984991 0.17260599999999995
vn -0 0.764429 0.644708
vn -0.000199 0.985017 0.17245599999999994
vn -0 0.764428 0.644709
vn 0 0.996461 -0.08405500000000006
vn -0 0.3149060000000001 0.949123
vn 0 0.991738 -0.12828300000000006
vn -0 0.3149060000000001 0.949123
vn 0 0.83757 -0.546329
vn -0 0.003248000000000061 0.999995
vn -0 0.003248000000000061 0.999995
vn 0 0.793928 -0.608012
vn 0 0.41074999999999995 -0.911748
vn 0 0.2730429999999999 -0.962002
vn -0.38171 0.33767499999999995 -0.860391
vn 0.07944 0.36653899999999995 -0.927005
vn -0.077678 0.3665919999999999 -0.927134
vn -0.532451 0.3020379999999999 -0.790739
vn -0.849934 0.20569199999999999 -0.485082
vn -0.844693 0.18386099999999997 -0.502682
vn -0.991338 0.06491799999999999 -0.114167
vn -0.9924 0.080335 -0.093215
vn -1 -1E-06 6.123233995736766E-23
vn -1 -1E-06 6.123233995736766E-23
vn 0.385527 0.33709999999999996 -0.858914
vn -0.077678 0.3665919999999999 -0.927134
vn 0.07944 0.36653899999999995 -0.927005
vn 0.531903 0.30211699999999997 -0.791078
vn 0.788189 0.21632299999999996 -0.576163
vn 0.897995 0.17888599999999996 -0.402001
vn 0.991338 0.06491899999999999 -0.114166
vn 0.9924 0.080336 -0.093214
vn 1 -9.999999999999997E-07 2E-06
vn 1 -3E-06 3E-06
vn -1 0 0
vn -1 1E-06 -6.123233995736766E-23
vn -0.965119 0.255757 0.05597199999999999
vn -0.882528 0.465314 0.06802699999999998
vn -0.920195 0.391459 0.0005809999999999761
vn -0.368592 0.908094 0.19876099999999994
vn -0.447163 0.890794 0.08081299999999994
vn -0.37376 0.927525 0.0009039999999999432
vn -1E-06 0.994101 0.10845399999999994
vn -0 0.976873 0.21382299999999996
vn -1E-06 1 0.0006169999999999388
vn 0.965119 0.255757 0.05597199999999999
vn 1 1E-06 -6.123233995736766E-23
vn 1 -0 0
vn 0.882528 0.465314 0.06802699999999998
vn 0.856099 0.516812 0.0005749999999999683
vn 0.368592 0.908094 0.19876099999999994
vn 0.447163 0.890794 0.08081299999999994
vn 0.246956 0.969026 0.0008959999999999407
vn 1E-06 0.994101 0.10845399999999994
vn 0 0.976873 0.21382299999999996
vn 1E-06 1 0.0009249999999999388
g 20 - Default
f 1/1/1 2/2/2 3/3/3
f 4/4/4 5/5/5 6/6/6
f 7/7/7 8/8/8 9/9/9
f 10/10/10 11/11/11 12/12/12
f 13/13/13 14/14/14 15/15/15
f 16/16/16 17/17/17 18/18/18
f 19/19/19 20/20/20 21/21/21
f 22/22/22 23/23/23 24/24/24
f 25/25/25 26/26/26 27/27/27
f 28/28/28 29/29/29 30/30/30
f 31/31/31 32/32/32 33/33/33
f 34/34/34 35/35/35 36/36/36
f 37/37/37 38/38/38 39/39/39
f 40/40/40 41/41/41 42/42/42
f 43/43/43 44/44/44 45/45/45
f 46/46/46 47/47/47 48/48/48
f 49/49/49 50/50/50 51/51/51
f 52/52/52 53/53/53 54/54/54
f 55/55/55 56/56/56 57/57/57
f 58/58/58 59/59/59 60/60/60
f 61/61/61 62/62/62 63/63/63
f 63/63/63 64/64/64 65/65/65
f 66/66/66 67/67/67 68/68/68
f 68/68/68 69/69/69 70/70/70
f 71/71/71 72/72/72 73/73/73
f 73/73/73 74/74/74 75/75/75
f 76/76/76 77/77/77 78/78/78
f 78/78/78 79/79/79 80/80/80
f 81/81/81 82/82/82 83/83/83
f 83/83/83 84/84/84 85/85/85
f 86/86/86 87/87/87 88/88/88
f 88/88/88 89/89/89 90/90/90
f 91/91/91 92/92/92 93/93/93
f 93/93/93 94/94/94 95/95/95
f 96/96/96 97/97/97 98/98/98
f 98/98/98 99/99/99 100/100/100
f 101/101/101 102/102/102 103/103/103
f 104/104/104 105/105/105 101/101/101
f 106/106/106 107/107/107 108/108/108
f 108/108/108 109/109/109 110/110/110
f 111/111/111 112/112/112 113/113/113
f 113/113/113 114/114/114 115/115/115
f 116/116/116 117/117/117 118/118/118
f 118/118/118 119/119/119 120/120/120
f 121/121/121 122/122/122 123/123/123
f 123/123/123 124/124/124 125/125/125
f 126/126/126 127/127/127 128/128/128
f 128/128/128 129/129/129 130/130/130
f 131/131/131 132/132/132 133/133/133
f 133/133/133 134/134/134 135/135/135
f 136/136/136 137/137/137 134/134/134
f 134/134/134 138/138/138 139/139/139
f 140/140/140 138/138/138 141/141/141
f 141/141/141 142/142/142 143/143/143
f 144/144/144 145/145/145 146/146/146
f 146/146/146 147/147/147 148/148/148
f 149/149/149 150/150/150 147/147/147
f 147/147/147 151/151/151 152/152/152
f 153/153/153 151/151/151 154/154/154
f 154/154/154 155/155/155 156/156/156
f 157/157/157 158/158/158 159/159/159
f 159/159/159 160/160/160 161/161/161
f 162/162/162 163/163/163 164/164/164
f 164/164/164 165/165/165 166/166/166
f 167/167/167 168/168/168 169/169/169
f 169/169/169 170/170/170 171/171/171
f 172/172/172 173/173/173 174/174/174
f 174/174/174 175/175/175 176/176/176
f 177/177/177 178/178/178 179/179/179
f 179/179/179 180/180/180 181/181/181
f 182/182/182 183/183/183 184/184/184
f 184/184/184 185/185/185 186/186/186
f 187/187/187 188/188/188 189/189/189
f 189/189/189 190/190/190 191/191/191
f 192/192/192 193/193/193 194/194/194
f 194/194/194 195/195/195 196/196/196
f 197/197/197 198/198/198 199/199/199
f 200/200/200 201/201/201 197/197/197
f 202/202/202 203/203/203 204/204/204
f 204/204/204 205/205/205 206/206/206
f 207/207/207 208/208/208 209/209/209
f 209/209/209 210/210/210 211/211/211
f 212/212/212 213/213/213 214/214/214
f 214/214/214 215/215/215 216/216/216
f 217/217/217 218/218/218 219/219/219
f 219/219/219 220/220/220 221/221/221
f 222/222/222 223/223/223 224/224/224
f 224/224/224 225/225/225 226/226/226
f 227/227/227 228/228/228 229/229/229
f 229/229/229 230/230/230 231/231/231
f 232/232/232 233/233/233 230/230/230
f 230/230/230 234/234/234 235/235/235
f 236/236/236 234/234/234 237/237/237
f 237/237/237 238/238/238 239/239/239
f 240/240/240 241/241/241 242/242/242
f 242/242/242 243/243/243 244/244/244
f 245/245/245 246/246/246 243/243/243
f 243/243/243 247/247/247 248/248/248
f 249/249/249 247/247/247 250/250/250
f 250/250/250 251/251/251 252/252/252
f 253/253/253 254/254/254 255/255/255
f 255/255/255 256/256/256 257/257/257
f 258/258/258 255/255/255 259/259/259
f 260/260/260 261/261/261 258/258/258
f 258/258/258 262/262/262 260/260/260
f 263/263/263 262/262/262 258/258/258
f 264/264/264 265/265/265 266/266/266
f 266/266/266 267/267/267 268/268/268
f 269/269/269 266/266/266 270/270/270
f 271/271/271 272/272/272 273/273/273
f 273/273/273 274/274/274 275/275/275
f 276/276/276 273/273/273 277/277/277
f 278/278/278 279/279/279 276/276/276
f 276/276/276 280/280/280 278/278/278
f 281/281/281 280/280/280 276/276/276
f 282/282/282 283/283/283 284/284/284
f 284/284/284 285/285/285 286/286/286
f 287/287/287 284/284/284 288/288/288
f 289/289/289 290/290/290 291/291/291
f 291/291/291 292/292/292 293/293/293
f 294/294/294 291/291/291 295/295/295
f 296/296/296 297/297/297 294/294/294
f 294/294/294 298/298/298 296/296/296
f 299/299/299 298/298/298 294/294/294
f 300/300/300 301/301/301 302/302/302
f 302/302/302 303/303/303 304/304/304
f 305/305/305 302/302/302 306/306/306
f 307/307/307 308/308/308 309/309/309
f 309/309/309 310/310/310 311/311/311
f 312/312/312 309/309/309 313/313/313
f 314/314/314 315/315/315 312/312/312
f 312/312/312 316/316/316 314/314/314
f 317/317/317 316/316/316 312/312/312
f 318/318/318 319/319/319 320/320/320
f 320/320/320 321/321/321 322/322/322
f 323/323/323 320/320/320 324/324/324
f 325/325/325 326/326/326 327/327/327
f 327/327/327 328/328/328 325/325/325
f 329/329/329 330/330/330 331/331/331
f 331/331/331 332/332/332 329/329/329
f 333/333/333 334/334/334 335/335/335
f 335/335/335 336/336/336 333/333/333
f 337/337/337 338/338/338 339/339/339
f 339/339/339 340/340/340 337/337/337
f 341/341/341 342/342/342 343/343/343
f 343/343/343 344/344/344 341/341/341
f 345/345/345 346/346/346 347/347/347
f 347/347/347 348/348/348 345/345/345
f 349/349/349 350/350/350 351/351/351
f 351/351/351 352/352/352 349/349/349
f 353/353/353 354/354/354 355/355/355
f 355/355/355 356/356/356 353/353/353
f 357/357/357 358/358/358 359/359/359
f 359/359/359 360/360/360 357/357/357
f 361/361/361 362/362/362 363/363/363
f 363/363/363 364/364/364 361/361/361
f 365/365/365 366/366/366 367/367/367
f 367/367/367 368/368/368 365/365/365
f 369/369/369 370/370/370 371/371/371
f 371/371/371 372/372/372 369/369/369
f 373/373/373 374/374/374 375/375/375
f 375/375/375 376/376/376 373/373/373
f 377/377/377 378/378/378 379/379/379
f 379/379/379 380/380/380 377/377/377
f 381/381/381 382/382/382 383/383/383
f 383/383/383 384/384/384 381/381/381
f 385/385/385 386/386/386 387/387/387
f 387/387/387 388/388/388 385/385/385
f 389/389/389 390/390/390 391/391/391
f 391/391/391 392/392/392 389/389/389
f 393/393/393 394/394/394 395/395/395
f 395/395/395 396/396/396 393/393/393
f 397/397/397 398/398/398 399/399/399
f 399/399/399 400/400/400 397/397/397
f 401/401/401 402/402/402 403/403/403
f 403/403/403 404/404/404 401/401/401
f 405/405/405 406/406/406 407/407/407
f 407/407/407 408/408/408 405/405/405
f 409/409/409 410/410/410 411/411/411
f 411/411/411 412/412/412 409/409/409
f 413/413/413 414/414/414 415/415/415
f 415/415/415 416/416/416 413/413/413
f 417/417/417 418/418/418 419/419/419
f 419/419/419 420/420/420 417/417/417
f 421/421/421 422/422/422 423/423/423
f 423/423/423 424/424/424 421/421/421
f 425/425/425 426/426/426 427/427/427
f 427/427/427 428/428/428 425/425/425
f 429/429/429 430/430/430 431/431/431
f 431/431/431 432/432/432 429/429/429
f 433/433/433 434/434/434 435/435/435
f 435/435/435 436/436/436 433/433/433
f 437/437/437 438/438/438 439/439/439
f 439/439/439 440/440/440 437/437/437
f 441/441/441 442/442/442 443/443/443
f 443/443/443 444/444/444 441/441/441
f 445/445/445 446/446/446 447/447/447
f 447/447/447 448/448/448 445/445/445
f 449/449/449 450/450/450 451/451/451
f 451/451/451 452/452/452 449/449/449
f 453/453/453 454/454/454 455/455/455
f 455/455/455 456/456/456 453/453/453
f 457/457/457 458/458/458 459/459/459
f 459/459/459 460/460/460 457/457/457
f 461/461/461 462/462/462 463/463/463
f 463/463/463 464/464/464 461/461/461
f 465/465/465 466/466/466 467/467/467
f 467/467/467 468/468/468 465/465/465
f 469/469/469 470/470/470 471/471/471
f 471/471/471 472/472/472 469/469/469
f 473/473/473 474/474/474 475/475/475
f 475/475/475 476/476/476 473/473/473
f 477/477/477 478/478/478 479/479/479
f 479/479/479 480/480/480 477/477/477
f 481/481/481 482/482/482 483/483/483
f 483/483/483 484/484/484 481/481/481
f 485/485/485 486/486/486 487/487/487
f 487/487/487 488/488/488 485/485/485
f 489/489/489 490/490/490 491/491/491
f 491/491/491 492/492/492 489/489/489
f 493/493/493 494/494/494 495/495/495
f 495/495/495 496/496/496 493/493/493
f 497/497/497 498/498/498 499/499/499
f 499/499/499 500/500/500 497/497/497
f 501/501/501 502/502/502 503/503/503
f 503/503/503 504/504/504 501/501/501
f 505/505/505 506/506/506 507/507/507
f 507/507/507 508/508/508 505/505/505
f 509/509/509 510/510/510 511/511/511
f 511/511/511 512/512/512 509/509/509
f 512/512/512 511/511/511 513/513/513
f 513/513/513 514/514/514 512/512/512
f 514/514/514 513/513/513 515/515/515
f 515/515/515 516/516/516 514/514/514
f 517/517/517 518/518/518 519/519/519
f 519/519/519 518/518/518 520/520/520
f 520/520/520 521/521/521 519/519/519
f 522/522/522 523/523/523 524/524/524
f 524/524/524 525/525/525 522/522/522
f 524/524/524 526/526/526 525/525/525
f 527/527/527 528/528/528 529/529/529
f 530/530/530 527/527/527 529/529/529
f 529/529/529 531/531/531 530/530/530
f 532/532/532 533/533/533 534/534/534
f 534/534/534 535/535/535 532/532/532
f 536/536/536 532/532/532 535/535/535
f 535/535/535 537/537/537 536/536/536
f 536/536/536 537/537/537 538/538/538
f 538/538/538 539/539/539 536/536/536
f 540/540/540 541/541/541 542/542/542
f 542/542/542 543/543/543 540/540/540
f 544/544/544 540/540/540 543/543/543
f 543/543/543 545/545/545 544/544/544
f 544/544/544 545/545/545 546/546/546
f 546/546/546 547/547/547 544/544/544
f 548/548/548 549/549/549 550/550/550
f 550/550/550 551/551/551 548/548/548
f 552/552/552 548/548/548 551/551/551
f 551/551/551 553/553/553 552/552/552
f 554/554/554 552/552/552 553/553/553
f 553/553/553 555/555/555 554/554/554
f 554/554/554 555/555/555 556/556/556
f 555/555/555 557/557/557 556/556/556
f 555/555/555 558/558/558 557/557/557
f 558/558/558 559/559/559 557/557/557
f 558/558/558 555/555/555 560/560/560
f 558/558/558 561/561/561 559/559/559
f 560/560/560 562/562/562 558/558/558
f 561/561/561 558/558/558 563/563/563
f 564/564/564 562/562/562 560/560/560
f 563/563/563 565/565/565 561/561/561
f 560/560/560 566/566/566 564/564/564
f 567/567/567 565/565/565 563/563/563
f 564/564/564 566/566/566 568/568/568
f 568/568/568 569/569/569 564/564/564
f 563/563/563 570/570/570 567/567/567
f 571/571/571 567/567/567 570/570/570
f 570/570/570 572/572/572 571/571/571
f 573/573/573 574/574/574 575/575/575
f 575/575/575 576/576/576 573/573/573
f 577/577/577 573/573/573 576/576/576
f 576/576/576 578/578/578 577/577/577
f 577/577/577 578/578/578 579/579/579
f 579/579/579 580/580/580 577/577/577
f 581/581/581 580/580/580 579/579/579
f 579/579/579 582/582/582 581/581/581
f 583/583/583 584/584/584 585/585/585
f 585/585/585 586/586/586 583/583/583
f 587/587/587 583/583/583 586/586/586
f 586/586/586 588/588/588 587/587/587
f 589/589/589 587/587/587 588/588/588
f 588/588/588 590/590/590 589/589/589
f 589/589/589 590/590/590 591/591/591
f 591/591/591 592/592/592 589/589/589
f 593/593/593 594/594/594 595/595/595
f 595/595/595 596/596/596 593/593/593
f 597/597/597 593/593/593 596/596/596
f 596/596/596 598/598/598 597/597/597
f 597/597/597 598/598/598 599/599/599
f 599/599/599 600/600/600 597/597/597
f 601/601/601 602/602/602 603/603/603
f 603/603/603 604/604/604 601/601/601
f 605/605/605 601/601/601 604/604/604
f 604/604/604 606/606/606 605/605/605
f 605/605/605 606/606/606 607/607/607
f 607/607/607 608/608/608 605/605/605
f 609/609/609 610/610/610 611/611/611
f 612/612/612 611/611/611 610/610/610
f 610/610/610 613/613/613 612/612/612
f 614/614/614 615/615/615 616/616/616
f 616/616/616 617/617/617 614/614/614
f 618/618/618 614/614/614 617/617/617
f 617/617/617 619/619/619 618/618/618
f 620/620/620 618/618/618 619/619/619
f 619/619/619 621/621/621 620/620/620
f 620/620/620 621/621/621 622/622/622
f 621/621/621 623/623/623 622/622/622
f 621/621/621 624/624/624 623/623/623
f 624/624/624 625/625/625 623/623/623
f 624/624/624 621/621/621 626/626/626
f 624/624/624 627/627/627 625/625/625
f 626/626/626 628/628/628 624/624/624
f 627/627/627 624/624/624 629/629/629
f 630/630/630 628/628/628 626/626/626
f 629/629/629 631/631/631 627/627/627
f 626/626/626 632/632/632 630/630/630
f 633/633/633 631/631/631 629/629/629
f 630/630/630 632/632/632 634/634/634
f 634/634/634 635/635/635 630/630/630
f 629/629/629 636/636/636 633/633/633
f 637/637/637 633/633/633 636/636/636
f 636/636/636 638/638/638 637/637/637
f 639/639/639 640/640/640 641/641/641
f 641/641/641 642/642/642 639/639/639
f 643/643/643 639/639/639 642/642/642
f 642/642/642 644/644/644 643/643/643
f 643/643/643 644/644/644 645/645/645
f 645/645/645 646/646/646 643/643/643
f 647/647/647 646/646/646 645/645/645
f 645/645/645 648/648/648 647/647/647
f 649/649/649 650/650/650 651/651/651
f 651/651/651 652/652/652 649/649/649
f 653/653/653 649/649/649 652/652/652
f 652/652/652 654/654/654 653/653/653
f 655/655/655 653/653/653 654/654/654
f 654/654/654 656/656/656 655/655/655
f 655/655/655 656/656/656 657/657/657
f 657/657/657 658/658/658 655/655/655
f 659/659/659 660/660/660 661/661/661
f 661/661/661 662/662/662 659/659/659
f 663/663/663 659/659/659 662/662/662
f 662/662/662 661/661/661 664/664/664
f 663/663/663 662/662/662 665/665/665
f 664/664/664 665/665/665 662/662/662
f 665/665/665 666/666/666 663/663/663
f 667/667/667 665/665/665 664/664/664
f 666/666/666 665/665/665 667/667/667
f 664/664/664 668/668/668 667/667/667
f 667/667/667 669/669/669 666/666/666
f 670/670/670 671/671/671 672/672/672
f 672/672/672 673/673/673 670/670/670
f 672/672/672 674/674/674 673/673/673
f 675/675/675 670/670/670 673/673/673
f 676/676/676 673/673/673 674/674/674
f 673/673/673 676/676/676 675/675/675
f 674/674/674 677/677/677 676/676/676
f 675/675/675 676/676/676 678/678/678
f 678/678/678 676/676/676 677/677/677
f 678/678/678 679/679/679 675/675/675
f 677/677/677 680/680/680 678/678/678
