v 1.540907 1.049768 -1.790584
v 1.534263 1.059958 -1.790584
v 1.723887 1.001287 -1.436919
v 1.723887 1.001287 -1.436919
v 1.729782 0.9921349999999999 -1.436919
v 1.540907 1.049768 -1.790584
v 1.925116 0.9637739999999999 -1.790584
v 1.931757 0.9535839999999999 -1.790584
v 1.728187 0.9922899999999999 -1.436919
v 1.728187 0.9922899999999999 -1.436919
v 1.722288 1.001439 -1.436919
v 1.925116 0.9637739999999999 -1.790584
v 1.785902 1.192416 -1.790584
v 1.796629 1.198143 -1.790584
v 1.73529 0.9965209999999999 -1.436919
v 1.73529 0.9965209999999999 -1.436919
v 1.725664 0.9914459999999999 -1.436919
v 1.785902 1.192416 -1.790584
v 1.681728 0.8199139999999999 -1.790584
v 1.670999 0.8141849999999999 -1.790584
v 1.718595 0.9929449999999999 -1.436919
v 1.718595 0.9929449999999999 -1.436919
v 1.728228 0.9980239999999999 -1.436919
v 1.681728 0.8199139999999999 -1.790584
v 1.534263 1.059958 -1.790584
v 1.528741 1.04916 -1.790733
v 1.718802 0.9914639999999999 -1.430793
v 1.723887 1.001287 -1.436919
v 1.528741 1.04916 -1.790733
v 1.540907 1.049768 -1.790584
v 1.729782 0.9921349999999999 -1.436919
v 1.718802 0.9914639999999999 -1.430793
v 1.931757 0.9535839999999999 -1.790584
v 1.937281 0.9643829999999999 -1.790733
v 1.733273 1.002113 -1.430793
v 1.728187 0.9922899999999999 -1.436919
v 1.937281 0.9643829999999999 -1.790733
v 1.925116 0.9637739999999999 -1.790584
v 1.722288 1.001439 -1.436919
v 1.733273 1.002113 -1.430793
v 1.796629 1.198143 -1.790584
v 1.786352 1.204589 -1.790733
v 1.725949 1.002442 -1.430793
v 1.73529 0.9965209999999999 -1.436919
v 1.786352 1.204589 -1.790733
v 1.785902 1.192416 -1.790584
v 1.725664 0.9914459999999999 -1.436919
v 1.725949 1.002442 -1.430793
v 1.670999 0.8141849999999999 -1.790584
v 1.681276 0.8077379999999998 -1.790733
v 1.727936 0.9870239999999999 -1.430793
v 1.718595 0.9929449999999999 -1.436919
v 1.681276 0.8077379999999998 -1.790733
v 1.681728 0.8199139999999999 -1.790584
v 1.728228 0.9980239999999999 -1.436919
v 1.727936 0.9870239999999999 -1.430793
vt 0.300472 0.010488
vt 0.300472 0.005695
vt 0.397814 0.005695
vt 0.397814 0.005695
vt 0.397814 0.010488
vt 0.300472 0.010488
vt 0.300472 0.010488
vt 0.300472 0.005695
vt 0.397814 0.005695
vt 0.397814 0.005695
vt 0.397814 0.010488
vt 0.300472 0.010488
vt 0.300472 0.010488
vt 0.300472 0.005695
vt 0.397814 0.005695
vt 0.397814 0.005695
vt 0.397814 0.010488
vt 0.300472 0.010488
vt 0.300472 0.010488
vt 0.300472 0.005695
vt 0.397814 0.005695
vt 0.397814 0.005695
vt 0.397814 0.010488
vt 0.300472 0.010488
vt 0.300472 0.005695
vt 0.300472 0.003033
vt 0.397225 0.003032
vt 0.397814 0.005695
vt 0.300472 0.015281
vt 0.300472 0.010488
vt 0.397814 0.010488
vt 0.397225 0.015280
vt 0.300472 0.005695
vt 0.300472 0.003033
vt 0.397225 0.003032
vt 0.397814 0.005695
vt 0.300472 0.015281
vt 0.300472 0.010488
vt 0.397814 0.010488
vt 0.397225 0.015280
vt 0.300472 0.005695
vt 0.300472 0.003033
vt 0.397225 0.003032
vt 0.397814 0.005695
vt 0.300472 0.015281
vt 0.300472 0.010488
vt 0.397814 0.010488
vt 0.397225 0.015280
vt 0.300472 0.005695
vt 0.300472 0.003033
vt 0.397225 0.003032
vt 0.397814 0.005695
vt 0.300472 0.015281
vt 0.300472 0.010488
vt 0.397814 0.010488
vt 0.397225 0.015280
vn 0.883374 0.023008999999999974 -0.468104
vn -0.366564 0.867757 0.33560199999999996
vn 0.490694 0.863054 -0.11982400000000006
vn 0.490694 0.863054 -0.11982400000000006
vn 0.454453 -0.808858 -0.3731229999999999
vn 0.883374 0.023008999999999974 -0.468104
vn -0.867721 -0.00663800000000003 -0.497007
vn 0.382018 -0.870558 0.31014700000000006
vn -0.475599 -0.861169 -0.17942299999999994
vn -0.475599 -0.861169 -0.17942299999999994
vn -0.456137 0.819088 -0.34790000000000004
vn -0.867721 -0.00663800000000003 -0.497007
vn -0.067531 -0.862427 -0.501656
vn 0.899297 0.297557 0.320508
vn 0.815446 -0.552273 -0.17332999999999998
vn 0.815446 -0.552273 -0.17332999999999998
vn -0.852154 -0.379833 -0.359945
vn -0.067531 -0.862427 -0.501656
vn 0.064726 0.887781 -0.45569200000000004
vn -0.903152 -0.324551 0.281039
vn -0.821628 0.54559 -0.16510400000000003
vn -0.821628 0.54559 -0.16510400000000003
vn 0.862897 0.39707 -0.31264
vn 0.064726 0.887781 -0.45569200000000004
vn -0.366564 0.867757 0.33560199999999996
vn -0.430841 -0.898715 0.08177200000000005
vn -0.881165 0.01290000000000003 0.472633
vn 0.490694 0.863054 -0.11982400000000006
vn -0.430841 -0.898715 0.08177200000000005
vn 0.883374 0.023008999999999974 -0.468104
vn 0.454453 -0.808858 -0.3731229999999999
vn -0.881165 0.01290000000000003 0.472633
vn 0.382018 -0.870558 0.31014700000000006
vn 0.412264 0.900532 0.13813399999999995
vn 0.867351 -0.007908999999999968 0.497634
vn -0.475599 -0.861169 -0.17942299999999994
vn 0.412264 0.900532 0.13813399999999995
vn -0.867721 -0.00663800000000003 -0.497007
vn -0.456137 0.819088 -0.34790000000000004
vn 0.867351 -0.007908999999999968 0.497634
vn 0.899297 0.297557 0.320508
vn -0.861815 0.490407 0.12951699999999997
vn 0.083589 0.860474 0.502591
vn 0.815446 -0.552273 -0.17332999999999998
vn -0.861815 0.490407 0.12951699999999997
vn -0.067531 -0.862427 -0.501656
vn -0.852154 -0.379833 -0.359945
vn 0.083589 0.860474 0.502591
vn -0.903152 -0.324551 0.281039
vn 0.857772 -0.496005 0.13493400000000003
vn -0.086606 -0.885269 0.45694500000000005
vn -0.821628 0.54559 -0.16510400000000003
vn 0.857772 -0.496005 0.13493400000000003
vn 0.064726 0.887781 -0.45569200000000004
vn 0.862897 0.39707 -0.31264
vn -0.086606 -0.885269 0.45694500000000005
g 01
f 1/1/1 2/2/2 3/3/3
f 4/4/4 5/5/5 6/6/6
f 7/7/7 8/8/8 9/9/9
f 10/10/10 11/11/11 12/12/12
f 13/13/13 14/14/14 15/15/15
f 16/16/16 17/17/17 18/18/18
f 19/19/19 20/20/20 21/21/21
f 22/22/22 23/23/23 24/24/24
f 25/25/25 26/26/26 27/27/27
f 27/27/27 28/28/28 25/25/25
f 29/29/29 30/30/30 31/31/31
f 31/31/31 32/32/32 29/29/29
f 33/33/33 34/34/34 35/35/35
f 35/35/35 36/36/36 33/33/33
f 37/37/37 38/38/38 39/39/39
f 39/39/39 40/40/40 37/37/37
f 41/41/41 42/42/42 43/43/43
f 43/43/43 44/44/44 41/41/41
f 45/45/45 46/46/46 47/47/47
f 47/47/47 48/48/48 45/45/45
f 49/49/49 50/50/50 51/51/51
f 51/51/51 52/52/52 49/49/49
f 53/53/53 54/54/54 55/55/55
f 55/55/55 56/56/56 53/53/53
