v -0.583526 -2.883475 2.421452
v -0.469439 -2.887283 2.525399
v -0.606151 -2.876211 2.631831
v -0.611442 -2.722863 2.631831
v -0.474398 -2.705886 2.525399
v -0.588805 -2.714757 2.421452
v -0.638788 -2.735794 2.848071
v -0.638632 -2.692995 2.848071
v -0.611119 -2.692502 2.880866
v -0.611274 -2.735302 2.880866
v -0.830578 -2.662471 2.873782
v -0.762114 -2.674127 2.873782
v -0.762114 -2.674127 3.094132
v -0.830578 -2.662471 3.094132
v -0.748536 -2.650751 2.873782
v -0.830481 -2.635913 2.873782
v -0.830482 -2.635913 3.094132
v -0.748536 -2.650751 3.094132
v -0.6365 -2.733634 2.88052
v -0.694615 -2.756699 2.873782
v -0.672777 -2.762203 2.631831
v -0.611442 -2.722863 2.631831
v -0.634597 -2.872231 2.848071
v -0.60708 -2.871962 2.880866
v -0.605742 -2.914742 2.880866
v -0.633258 -2.91501 2.848071
v -0.824287 -2.950828 2.873782
v -0.824287 -2.950828 3.094133
v -0.756171 -2.937284 3.094133
v -0.756171 -2.937284 2.873781
v -0.741952 -2.960276 2.873782
v -0.741952 -2.960276 3.094133
v -0.823457 -2.977374 3.094133
v -0.823456 -2.977374 2.873782
v -0.632319 -2.867237 2.88052
v -0.606151 -2.876211 2.631831
v -0.669303 -2.846771 2.631831
v -0.692135 -2.847396 2.873782
v -0.588805 -2.714757 2.421452
v -0.474398 -2.705886 2.525399
v -0.469439 -2.887283 2.525399
v -0.583526 -2.883475 2.421452
v -0.606151 -2.876211 2.631831
v -0.469439 -2.887283 2.525399
v -0.474398 -2.705886 2.525399
v -0.611442 -2.722863 2.631831
v -0.768809 -2.751388 3.279951
v -1.128927 -2.766543 3.279951
v -1.128927 -2.76636 3.256501
v -0.768834 -2.75122 3.256501
v -1.128839 -2.742007 3.256501
v -0.771191 -2.728942 3.256501
v -1.128839 -2.742191 3.279951
v -0.771166 -2.729111 3.279951
v -0.768809 -2.751388 3.279951
v -1.128927 -2.766543 3.279951
v -1.580279 -2.807072 3.586692
v -0.638632 -2.692995 2.848071
v -0.638788 -2.735794 2.848071
v -1.580337 -2.822837 3.586692
v -0.611274 -2.735302 2.880866
v -1.552823 -2.822347 3.619487
v -1.552765 -2.806581 3.619487
v -0.611119 -2.692502 2.880866
v -1.580279 -2.807072 3.586692
v -0.638632 -2.692995 2.848071
v -0.916872 -2.893449 2.873781
v -0.894376 -2.892834 2.631831
v -0.946104 -2.922013 2.631758
v -0.965844 -2.930482 2.881264
v -0.971712 -2.941369 2.423541
v -0.999785 -2.966212 2.42132
v -0.894376 -2.892834 2.631831
v -0.916872 -2.893449 2.873781
v -0.836908 -2.936643 2.873781
v -0.81459 -2.936035 2.631831
v -0.748082 -2.918454 2.873782
v -0.725702 -2.917844 2.631831
v -0.692135 -2.847396 2.873782
v -0.669303 -2.846771 2.631831
v -0.899037 -2.722381 2.631831
v -0.922204 -2.723016 2.873782
v -0.971163 -2.687115 2.882093
v -0.953766 -2.691825 2.631496
v -1.006626 -2.65531 2.420729
v -0.979599 -2.673718 2.423849
v -0.979599 -2.673718 2.423849
v -1.006626 -2.65531 2.420729
v -1.06465 -2.8122 2.421452
v -1.021238 -2.811295 2.421452
v -0.999785 -2.966212 2.42132
v -0.971712 -2.941369 2.423541
v -0.632319 -2.867237 2.88052
v -0.692135 -2.847396 2.873782
v -0.748082 -2.918454 2.873782
v -0.71744 -2.969031 2.875572
v -0.836908 -2.936643 2.873781
v -0.845871 -2.998732 2.880519
v -0.916872 -2.893449 2.873781
v -0.965844 -2.930482 2.881264
v -0.953766 -2.691825 2.631496
v -0.979599 -2.673718 2.423849
v -1.021238 -2.811295 2.421452
v -0.990477 -2.810171 2.631831
v -0.971712 -2.941369 2.423541
v -0.946104 -2.922013 2.631758
v -1.125394 -2.855227 3.256501
v -1.125399 -2.855043 3.279951
v -0.764999 -2.860238 3.279951
v -0.76502 -2.860407 3.256501
v -1.124632 -2.879568 3.256501
v -0.76676 -2.882741 3.256501
v -1.124638 -2.879384 3.279951
v -0.76674 -2.882572 3.279951
v -0.764999 -2.860238 3.279951
v -1.125399 -2.855043 3.279951
v -0.845077 -2.675525 2.873782
v -0.922204 -2.723016 2.873782
v -0.899036 -2.72238 2.631831
v -0.820476 -2.67699 2.631831
v -0.755266 -2.68883 2.873782
v -0.731119 -2.692718 2.631831
v -0.694615 -2.756699 2.873782
v -0.672777 -2.762203 2.631831
v -0.769717 -2.957961 2.631831
v -0.606151 -2.876211 2.631831
v -0.611442 -2.722863 2.631831
v -0.777224 -2.654938 2.631831
v -0.946104 -2.922013 2.631758
v -0.990477 -2.810171 2.631831
v -0.953766 -2.691825 2.631496
v -0.588805 -2.714757 2.421452
v -0.583526 -2.883475 2.421452
v -0.570903 -2.887804 2.206137
v -0.575772 -2.709727 2.206137
v -0.693968 -2.576442 2.206137
v -0.6365 -2.733634 2.88052
v -0.726175 -2.635805 2.875937
v -0.870185 -2.550315 2.206137
v -0.858016 -2.615339 2.877876
v -1.006626 -2.65531 2.420729
v -0.971163 -2.687115 2.882093
v -1.02197 -2.64357 2.206137
v -1.0783 -2.812572 2.206137
v -1.06465 -2.8122 2.421452
v -0.999785 -2.966212 2.42132
v -1.012819 -2.978245 2.206137
v -0.856165 -3.063067 2.206137
v -0.965844 -2.930482 2.881264
v -0.845871 -2.998732 2.880519
v -0.681639 -3.027349 2.206137
v -0.71744 -2.969031 2.875572
v -0.583526 -2.883475 2.421452
v -0.570903 -2.887804 2.206137
v -0.632319 -2.867237 2.88052
v -1.577699 -2.827008 3.586692
v -0.633258 -2.91501 2.848071
v -0.605742 -2.914742 2.880866
v -1.550182 -2.826737 3.619487
v -1.550675 -2.81098 3.619487
v -0.60708 -2.871962 2.880866
v -0.634597 -2.872231 2.848071
v -1.578192 -2.81125 3.586692
v -1.577699 -2.827008 3.586692
v -0.633258 -2.91501 2.848071
v -0.694615 -2.756699 2.873782
v -0.6365 -2.733634 2.88052
v -0.726175 -2.635805 2.875937
v -0.755266 -2.68883 2.873782
v -0.845077 -2.675525 2.873782
v -0.858016 -2.615339 2.877876
v -0.971163 -2.687115 2.882093
v -0.922204 -2.723016 2.873782
v -1.595826 -2.805267 3.5946
v -1.605648 -2.811056 3.60097
v -1.576589 -2.8106419999999996 3.64327
v -1.570627 -2.8049219999999995 3.633199
v -1.595664 -2.816563 3.5946
v -0.69008 -2.798001 3.603518
v -1.570465 -2.8161879999999995 3.633199
v -1.605648 -2.811056 3.60097
v -1.576589 -2.8106419999999996 3.64327
v -0.695723 -2.792447 3.594016
v -0.662919 -2.797613 3.560855
v -0.695562 -2.803714 3.594016
v -0.69008 -2.798001 3.603518
v -0.670952 -2.792093 3.553868
v -0.577844 -2.796381 3.082275
v -0.587304 -2.790882 3.079582
v -0.670791 -2.80336 3.553868
v -0.662919 -2.797613 3.560855
v -0.587143 -2.802148 3.079582
v -0.577844 -2.796381 3.082275
v -1.502925 -2.789753 3.591958
v -1.52683 -2.790073 3.550549
v -1.52683 -2.7900729999999996 3.633367
v -1.598547 -2.791034 3.591958
v -1.574641 -2.7907139999999995 3.633367
v -1.574641 -2.790714 3.550549
v -1.526371 -2.824311 3.550549
v -1.502465 -2.823991 3.591958
v -1.574181 -2.824951 3.550549
v -1.574181 -2.8249509999999995 3.633367
v -1.598087 -2.825272 3.591958
v -1.526371 -2.8243109999999993 3.633367
v -0.66823 -2.778409 3.55317
v -0.692135 -2.77873 3.511761
v -0.692135 -2.77873 3.594579
v -0.763851 -2.779691 3.55317
v -0.739946 -2.779371 3.594579
v -0.739946 -2.779371 3.511761
v -0.691675 -2.812968 3.511761
v -0.667769 -2.812648 3.55317
v -0.739486 -2.813608 3.511761
v -0.739486 -2.813608 3.594579
v -0.763391 -2.813929 3.55317
v -0.691675 -2.812968 3.594579
v -0.700289 -2.783625 3.561076
v -0.700016 -2.798868 3.539194
v -0.729703 -2.75217 3.281863
v -0.813061 -2.732057 2.626652
v -0.815933 -2.685298 2.626652
v -0.730253 -2.721417 3.281863
v -0.733099 -2.784212 3.561076
v -0.870638 -2.686248 2.626652
v -0.771834 -2.722194 3.281863
v -0.732827 -2.799455 3.539194
v -0.867767 -2.733007 2.626652
v -0.771946 -2.752944 3.281863
v -0.700016 -2.798868 3.539194
v -0.813061 -2.732057 2.626652
v -0.729703 -2.75217 3.281863
v -0.728281 -2.855032 3.281863
v -0.699897 -2.807531 3.539194
v -0.699748 -2.822775 3.561076
v -0.812629 -2.924262 2.626652
v -0.811051 -2.877441 2.626652
v -0.727981 -2.885788 3.281863
v -0.732562 -2.823096 3.561076
v -0.867339 -2.924826 2.626652
v -0.769567 -2.886161 3.281863
v -0.732711 -2.807851 3.539194
v -0.865762 -2.878004 2.626652
v -0.770529 -2.855425 3.281863
v -0.699897 -2.807531 3.539194
v -0.811051 -2.877441 2.626652
v -0.728281 -2.855032 3.281863
vt 0.385172 0.061207
vt 0.389023 0.043027
vt 0.369048 0.043027
vt 0.431224 0.124225
vt 0.451199 0.124225
vt 0.446377 0.143234
vt 0.612788 0.064806
vt 0.612788 0.060214
vt 0.608528 0.060214
vt 0.608528 0.064806
vt 0.426391 0.120153
vt 0.433184 0.120153
vt 0.433184 0.092718
vt 0.426391 0.092718
vt 0.438662 0.120153
vt 0.446072 0.120153
vt 0.446072 0.092718
vt 0.438662 0.092718
vt 0.541021 0.097834
vt 0.537238 0.097834
vt 0.537238 0.115962
vt 0.541021 0.115962
vt 0.612788 0.064806
vt 0.608528 0.064806
vt 0.608528 0.060214
vt 0.612788 0.060214
vt 0.426391 0.120153
vt 0.426391 0.092718
vt 0.433184 0.092718
vt 0.433184 0.120153
vt 0.438662 0.120153
vt 0.438662 0.092718
vt 0.446072 0.092718
vt 0.446072 0.120153
vt 0.541021 0.097834
vt 0.541021 0.115962
vt 0.537238 0.115962
vt 0.537238 0.097834
vt 0.373671 0.019988
vt 0.386903 0.019988
vt 0.386903 0.038997
vt 0.373671 0.038997
vt 0.408783 0.038997
vt 0.388808 0.038997
vt 0.388808 0.019988
vt 0.408783 0.019988
vt 0.422689 0.102530
vt 0.422689 0.056077
vt 0.419984 0.056077
vt 0.419984 0.102530
vt 0.417279 0.056077
vt 0.417279 0.102530
vt 0.414575 0.056077
vt 0.414575 0.102530
vt 0.411871 0.102530
vt 0.411871 0.056077
vt 0.647405 0.182545
vt 0.647405 0.019789
vt 0.644361 0.019789
vt 0.644361 0.182545
vt 0.640101 0.019789
vt 0.640101 0.182545
vt 0.637667 0.182545
vt 0.637667 0.019789
vt 0.633407 0.182545
vt 0.633407 0.019789
vt 0.518867 0.068613
vt 0.523228 0.095891
vt 0.517693 0.096649
vt 0.513067 0.068568
vt 0.516924 0.120727
vt 0.513148 0.121578
vt 0.520290 0.115962
vt 0.520290 0.097834
vt 0.525528 0.097834
vt 0.525528 0.115962
vt 0.530767 0.097834
vt 0.530767 0.115962
vt 0.536006 0.097834
vt 0.536006 0.115962
vt 0.537833 0.096254
vt 0.542002 0.068998
vt 0.547520 0.068840
vt 0.543418 0.097099
vt 0.547520 0.121880
vt 0.544121 0.121105
vt 0.539430 0.117900
vt 0.541226 0.120905
vt 0.529999 0.120905
vt 0.529999 0.117900
vt 0.518771 0.120905
vt 0.520567 0.117900
vt 0.454236 0.065789
vt 0.460760 0.058546
vt 0.474903 0.058546
vt 0.474903 0.065789
vt 0.490334 0.058546
vt 0.492351 0.065789
vt 0.504296 0.058546
vt 0.510497 0.065789
vt 0.450434 0.084984
vt 0.425976 0.084984
vt 0.425976 0.070946
vt 0.450434 0.070946
vt 0.425976 0.056908
vt 0.450434 0.056908
vt 0.419984 0.056077
vt 0.422689 0.056077
vt 0.422689 0.102530
vt 0.419984 0.102530
vt 0.417279 0.056077
vt 0.417279 0.102530
vt 0.414575 0.056077
vt 0.414575 0.102530
vt 0.411871 0.102530
vt 0.411871 0.056077
vt 0.525528 0.097834
vt 0.520290 0.097834
vt 0.520290 0.115962
vt 0.525528 0.115962
vt 0.530767 0.097834
vt 0.530767 0.115962
vt 0.536006 0.097834
vt 0.536006 0.115962
vt 0.346805 0.040674
vt 0.330374 0.033261
vt 0.331371 0.021857
vt 0.349104 0.018712
vt 0.365582 0.040479
vt 0.371593 0.031353
vt 0.367257 0.021321
vt 0.606224 0.123550
vt 0.627604 0.123552
vt 0.627604 0.149171
vt 0.606224 0.148998
vt 0.586362 0.148935
vt 0.606224 0.068706
vt 0.586362 0.068706
vt 0.568469 0.148919
vt 0.568469 0.068706
vt 0.549531 0.123550
vt 0.549531 0.068706
vt 0.549531 0.148982
vt 0.530127 0.149171
vt 0.530127 0.123550
vt 0.510633 0.123550
vt 0.510633 0.148966
vt 0.492134 0.148857
vt 0.510633 0.068706
vt 0.492134 0.068706
vt 0.474904 0.148893
vt 0.474904 0.068706
vt 0.454320 0.123550
vt 0.454320 0.148831
vt 0.454320 0.068706
vt 0.633407 0.182545
vt 0.633407 0.019789
vt 0.637667 0.019789
vt 0.637667 0.182545
vt 0.640101 0.182545
vt 0.640101 0.019789
vt 0.644361 0.019789
vt 0.644361 0.182545
vt 0.647405 0.182545
vt 0.647405 0.019789
vt 0.600914 0.058546
vt 0.606112 0.065789
vt 0.586570 0.065789
vt 0.585557 0.058546
vt 0.569184 0.058546
vt 0.568424 0.065789
vt 0.549581 0.065789
vt 0.555601 0.058546
vt 0.544513 0.022397
vt 0.544842 0.023145
vt 0.540573 0.023145
vt 0.540828 0.022397
vt 0.544498 0.020898
vt 0.472740 0.023145
vt 0.540843 0.020898
vt 0.544808 0.019401
vt 0.540573 0.019401
vt 0.472616 0.022397
vt 0.468933 0.023145
vt 0.472514 0.020898
vt 0.472630 0.019401
vt 0.469112 0.022397
vt 0.430672 0.023145
vt 0.430672 0.022397
vt 0.469214 0.020898
vt 0.469045 0.019401
vt 0.430672 0.020898
vt 0.430672 0.019401
vt 0.404642 0.075854
vt 0.408932 0.078547
vt 0.400352 0.078547
vt 0.404642 0.086626
vt 0.400352 0.083933
vt 0.408932 0.083933
vt 0.408932 0.078547
vt 0.404642 0.075854
vt 0.408932 0.083933
vt 0.400352 0.083933
vt 0.404642 0.086626
vt 0.400352 0.078547
vt 0.404642 0.075854
vt 0.408932 0.078547
vt 0.400352 0.078547
vt 0.404642 0.086626
vt 0.400352 0.083933
vt 0.408932 0.083933
vt 0.408932 0.078547
vt 0.404642 0.075854
vt 0.408932 0.083933
vt 0.400352 0.083933
vt 0.404642 0.086626
vt 0.400352 0.078547
vt 0.656378 0.019927
vt 0.651615 0.019927
vt 0.651615 0.077203
vt 0.651615 0.182307
vt 0.656378 0.182307
vt 0.656378 0.077203
vt 0.661141 0.019927
vt 0.661141 0.182307
vt 0.661141 0.077203
vt 0.665223 0.019927
vt 0.665223 0.182307
vt 0.665223 0.077203
vt 0.670666 0.019927
vt 0.670666 0.182307
vt 0.670666 0.077203
vt 0.651615 0.077203
vt 0.651615 0.019927
vt 0.656378 0.019927
vt 0.656378 0.182307
vt 0.651615 0.182307
vt 0.656378 0.077203
vt 0.661141 0.019927
vt 0.661141 0.182307
vt 0.661141 0.077203
vt 0.665223 0.019927
vt 0.665223 0.182307
vt 0.665223 0.077203
vt 0.670666 0.019927
vt 0.670666 0.182307
vt 0.670666 0.077203
vn -0.058924 -0.997867 0.02811600000000006
vn -0.058924 -0.997867 0.02811600000000006
vn -0.058924 -0.997867 0.02811600000000006
vn -0.101953 0.994413 0.02734499999999994
vn -0.101953 0.994413 0.02734499999999994
vn -0.101953 0.994413 0.02734499999999994
vn 0.76612 -0.0027790000000000393 -0.642692
vn 0.766124 -0.0027840000000000395 -0.642687
vn 0.76612 -0.0027790000000000393 -0.642692
vn 0.766116 -0.0027730000000000393 -0.642696
vn -0.16783 -0.985816 6.036382044741236E-17
vn -0.16783 -0.985816 6.036382044741236E-17
vn -0.16783 -0.985816 6.036382044741236E-17
vn -0.16783 -0.985816 6.036382044741236E-17
vn 0.178176 0.983999 -1.0000000000602526E-06
vn 0.178181 0.983998 9.999999999397475E-07
vn 0.178176 0.983999 -1.0000000000602526E-06
vn 0.178171 0.984 -3.0000000000602525E-06
vn 0.453675 -0.890435 0.036114000000000056
vn 0.362945 -0.930249 0.05392200000000005
vn 0.453675 -0.890435 0.036114000000000056
vn 0.539807 -0.841598 0.017939000000000052
vn 0.765749 0.02395699999999996 -0.642693
vn 0.765746 0.023950999999999962 -0.642697
vn 0.765749 0.02395699999999996 -0.642693
vn 0.765753 0.023961999999999962 -0.642689
vn -0.195018 0.9808 -6.00566790301862E-17
vn -0.195018 0.9808 -6.00566790301862E-17
vn -0.195018 0.9808 -6.00566790301862E-17
vn -0.195018 0.9808 -6.00566790301862E-17
vn 0.205308 -0.978697 -9.99999999940072E-07
vn 0.205303 -0.978698 -2.999999999940072E-06
vn 0.205308 -0.978697 -9.99999999940072E-07
vn 0.205313 -0.978696 1.0000000000599277E-06
vn 0.367635 0.929714 0.021835999999999946
vn 0.422488 0.906292 0.011750999999999944
vn 0.367635 0.929714 0.021835999999999946
vn 0.311436 0.949734 0.031840999999999946
vn 0.672651 0.019720999999999954 -0.739697
vn 0.67157 0.018360999999999954 -0.740713
vn 0.672651 0.019720999999999954 -0.739697
vn 0.673728 0.021080999999999954 -0.738678
vn 0.613339 0.01896000000000005 0.789592
vn 0.615064 0.01681600000000005 0.788298
vn 0.613339 0.01896000000000005 0.789592
vn 0.611608 0.02110400000000005 0.790879
vn 0.02983 -0.709128 0.704448
vn 0.029849 -0.709235 0.70434
vn 0.037478 -0.890941 -0.4525699999999999
vn 0.018733 -0.44552600000000003 -0.895073
vn -0.016376 0.44830999999999993 -0.893728
vn -0.032766 0.896509 -0.44181300000000007
vn -0.025729 0.70397 0.709763
vn -0.025748 0.70408 0.709654
vn 0.02983 -0.709128 0.704448
vn 0.029849 -0.709235 0.70434
vn -0.490364 0.701783 -0.516762
vn -0.490368 0.701775 -0.516769
vn -0.526532 -0.44603300000000007 -0.723753
vn -0.221034 -0.89509 -0.38724299999999995
vn 0.478148 -0.702834 0.526687
vn 0.478144 -0.702841 0.526681
vn 0.518684 0.44505900000000004 0.729993
vn 0.20559 0.89314 0.4000429999999999
vn -0.490364 0.701783 -0.516762
vn -0.490368 0.701775 -0.516769
vn -0.549237 0.835046 -0.03221500000000005
vn -0.490793 0.870193 -0.04342300000000006
vn -0.543439 0.839049 -0.025911000000000052
vn -0.601024 0.799098 -0.014536000000000049
vn -0.598987 0.800678 -0.011365000000000049
vn -0.662261 0.749215 -0.009330000000000045
vn 0.475195 0.878666 0.04622599999999995
vn 0.474749 0.878899 0.04637399999999994
vn 0.264134 0.96411 0.02691599999999994
vn 0.026277 0.999643 0.004918999999999938
vn -0.417552 0.907927 -0.03631800000000006
vn -0.622034 0.78098 -0.05606800000000005
vn -0.782504 0.618523 -0.07153200000000004
vn -0.781287 0.61999 -0.07212800000000004
vn -0.543369 -0.838614 -0.03842599999999995
vn -0.596829 -0.800178 -0.05924999999999995
vn -0.533731 -0.845043 -0.03213999999999995
vn -0.5218 -0.852968 -0.013032999999999947
vn -0.538734 -0.842406 -0.010830999999999948
vn -0.562756 -0.82662 -0.0020719999999999493
vn -0.044524 0.010049000000000061 0.998958
vn -0.08929 0.03760600000000006 0.995296
vn -0.02967 0.006415000000000061 0.999539
vn -0.023093 -0.009629999999999939 0.999687
vn -0.034824 -0.0056729999999999385 0.999377
vn -0.069622 -0.010489999999999939 0.997518
vn -0.0735 0.03500900000000006 0.996681
vn -0.088745 0.06987300000000006 0.993601
vn -0.051165 0.033841000000000065 0.998117
vn -0.016954 0.045885000000000065 0.998803
vn 0.02048 0.07919600000000006 0.996649
vn 0.045478 0.10523500000000005 0.993407
vn 0.061295 0.10486000000000005 0.992596
vn 0.068561 0.10969600000000006 0.991598
vn -0.947029 0.289147 0.13975099999999996
vn -0.948008 0.28444 0.14274299999999998
vn -0.986114 0.07962800000000002 0.145736
vn -0.977976 -0.147669 0.147503
vn -0.922946 -0.357713 0.14216700000000002
vn -0.919386 -0.364861 0.14699000000000004
vn 0.012834 0.891636 -0.45257200000000003
vn 0.010231 0.709791 0.704338
vn 0.010215 0.709683 0.704448
vn 0.006409 0.44587399999999994 -0.895073
vn -0.003977 -0.44859200000000005 -0.893728
vn -0.007971 -0.897073 -0.4418099999999999
vn -0.006259 -0.704411 0.709764
vn -0.006274 -0.704522 0.709654
vn 0.010215 0.709683 0.704448
vn 0.010231 0.709791 0.704338
vn 0.308216 -0.95073 0.033408000000000056
vn 0.523724 -0.85054 0.04791300000000005
vn 0.511662 -0.857614 0.051973000000000054
vn 0.063141 -0.997876 0.016043000000000064
vn -0.373813 -0.92714 -0.025986999999999944
vn -0.591174 -0.805451 -0.04198699999999995
vn -0.754523 -0.653616 -0.059006999999999955
vn -0.76471 -0.642072 -0.05441799999999996
vn -0.000138 -3.999999999938768E-06 1
vn 1E-06 -9.999999999387675E-07 1
vn 1E-06 6.123233995736766E-17 1
vn -0.000679 0.0007870000000000613 0.999999
vn -2.4E-05 -0.0002579999999999387 1
vn -0.001149 0.0015790000000000613 0.999998
vn -0.002667 0.0036640000000000613 0.99999
vn 0.922253 0.379175 0.07533599999999997
vn 0.864453 -0.495767 0.08328600000000003
vn 0.978224 -0.197943 0.06241500000000001
vn 0.92804 0.366811 0.06474099999999998
vn 0.60874 0.788027 0.09192399999999996
vn 0.720228 0.686683 0.09868399999999995
vn 0.361775 0.927016 0.09879699999999994
vn -0.195135 0.976033 0.09634699999999995
vn -0.313262 0.944408 0.09980799999999994
vn -0.729229 0.678527 0.08846999999999995
vn -0.530421 0.841956 0.09881299999999994
vn -0.780161 0.619121 0.08965299999999995
vn -0.996903 -0.024709999999999996 0.074654
vn -0.997752 -0.022037999999999995 0.063292
vn -0.736964 -0.670696 0.08396600000000004
vn -0.745672 -0.661231 0.08214000000000005
vn -0.317471 -0.943582 0.09415300000000006
vn -0.469481 -0.877698 0.09609500000000006
vn -0.022851 -0.994927 0.09796600000000005
vn 0.517315 -0.851008 0.09038700000000005
vn 0.605112 -0.789375 0.10356500000000005
vn 0.864453 -0.495767 0.08328600000000003
vn 0.978224 -0.197943 0.06241500000000001
vn 0.760537 -0.640991 0.10350900000000005
vn -0.470777 -0.715069 -0.516764
vn -0.47078 -0.715063 -0.516769
vn 0.401506 -0.695211 0.596218
vn 0.401512 -0.695201 0.596225
vn 0.458535 0.715785 0.526686
vn 0.45854 0.715776 0.526693
vn -0.413863 0.696469 -0.586215
vn -0.413867 0.696464 -0.586219
vn -0.470777 -0.715069 -0.516764
vn -0.47078 -0.715063 -0.516769
vn -0.063156 -0.03426399999999994 0.997415
vn -0.098075 -0.04332299999999994 0.994236
vn -0.031911 -0.043284999999999935 0.998553
vn -0.016865 -0.03135699999999994 0.999366
vn 0.036508 -0.07048299999999995 0.996845
vn 0.037408 -0.05980899999999994 0.997509
vn 0.073621 -0.08859999999999994 0.993343
vn 0.07665 -0.12448099999999994 0.989257
vn 0.034441 0.999099 -0.024783000000000062
vn -0.682014 -0.563205 0.46653700000000004
vn -0.426785 0.0073970000000000554 0.904323
vn 0.410449 0.86907 -0.27613200000000004
vn 0.732982 -0.48813200000000007 -0.47377699999999995
vn 0.498732 0.002522000000000053 0.866753
vn 0.020074 -0.863809 -0.50342
vn -0.682014 -0.563205 0.46653700000000004
vn -0.426785 0.0073970000000000554 0.904323
vn -0.043285 0.86545 -0.49912300000000004
vn 0.935211 0.013948000000000021 0.353818
vn -0.412854 -0.872113 -0.26262299999999994
vn 0.498732 0.002522000000000053 0.866753
vn -0.435774 0.860037 -0.26540100000000005
vn 0.854256 0.496908 0.15274099999999996
vn -0.85992 0.487763 -0.15041600000000002
vn -0.479489 -0.873149 -0.08774999999999994
vn 0.935211 0.013948000000000021 0.353818
vn 0.031855 -0.999487 0.003467000000000061
vn 0.854256 0.496908 0.15274099999999996
vn -0.013388 0.99991 -1.0000000000612269E-06
vn -0.013396 0.99991 -4.000000000061227E-06
vn -0.013397 0.99991 2.999999999938773E-06
vn -0.013402 0.99991 -6.12268290467715E-17
vn -0.013405 0.99991 1.0999999999938773E-05
vn -0.013403 0.99991 -1.0000000000061228E-05
vn 0.013398 -0.99991 -9.99999999938773E-07
vn 0.013397 -0.99991 6.12268290467715E-17
vn 0.013398 -0.99991 6.12268290467715E-17
vn 0.013398 -0.99991 1.0000000000612269E-06
vn 0.0134 -0.99991 6.12268290467715E-17
vn 0.013398 -0.99991 1.0000000000612269E-06
vn -0.013393 0.99991 9.99999999938773E-07
vn -0.013398 0.99991 -1.0000000000612269E-06
vn -0.013397 0.99991 1.999999999938773E-06
vn -0.013401 0.99991 -6.12268290467715E-17
vn -0.0134 0.99991 2.999999999938773E-06
vn -0.013403 0.99991 -4.000000000061227E-06
vn 0.013403 -0.99991 -9.999999999938774E-06
vn 0.013401 -0.99991 6.12268290467715E-17
vn 0.013397 -0.99991 -2.999999999938773E-06
vn 0.013397 -0.99991 3.000000000061227E-06
vn 0.01339 -0.99991 6.12268290467715E-17
vn 0.013403 -0.99991 1.0000000000061228E-05
vn 0.865277 0.501134 0.01268199999999997
vn 0.477827 -0.853012 -0.20988699999999993
vn 0.906488 -0.395107 -0.14889999999999998
vn 0.466209 -0.880449 -0.08636799999999994
vn 0.873603 0.478809 -0.08694300000000003
vn 0.432071 0.89891 0.07263599999999995
vn -0.478146 0.840995 0.25318699999999994
vn -0.464135 0.877854 0.11811299999999994
vn -0.899089 0.396897 0.18469299999999997
vn -0.86292 -0.50437 0.03129900000000003
vn -0.874426 -0.471362 0.11488200000000003
vn -0.433791 -0.900519 -0.029841999999999945
vn 0.477827 -0.853012 -0.20988699999999993
vn 0.466209 -0.880449 -0.08636799999999994
vn 0.906488 -0.395107 -0.14889999999999998
vn 0.895218 0.420015 -0.14890000000000003
vn 0.454064 0.865895 -0.20988700000000005
vn 0.8788 -0.477022 0.01268200000000003
vn 0.886506 -0.454475 -0.08694399999999997
vn 0.441691 0.893 -0.08636800000000006
vn 0.456756 -0.886622 0.07263700000000005
vn -0.454717 -0.85389 0.25318700000000005
vn -0.439688 -0.890351 0.11811300000000005
vn -0.887774 -0.421599 0.18469300000000002
vn -0.876532 0.480325 0.03129799999999997
vn -0.887122 0.447009 0.11488199999999997
vn -0.458518 0.888184 -0.029842000000000056
vn 0.454064 0.865895 -0.20988700000000005
vn 0.441691 0.893 -0.08636800000000006
vn 0.895218 0.420015 -0.14890000000000003
g oriental crane
f 1/1/1 2/2/2 3/3/3
f 4/4/4 5/5/5 6/6/6
f 7/7/7 8/8/8 9/9/9
f 9/9/9 10/10/10 7/7/7
f 11/11/11 12/12/12 13/13/13
f 13/13/13 14/14/14 11/11/11
f 15/15/15 16/16/16 17/17/17
f 17/17/17 18/18/18 15/15/15
f 19/19/19 20/20/20 21/21/21
f 21/21/21 22/22/22 19/19/19
f 23/23/23 24/24/24 25/25/25
f 25/25/25 26/26/26 23/23/23
f 27/27/27 28/28/28 29/29/29
f 29/29/29 30/30/30 27/27/27
f 31/31/31 32/32/32 33/33/33
f 33/33/33 34/34/34 31/31/31
f 35/35/35 36/36/36 37/37/37
f 37/37/37 38/38/38 35/35/35
f 39/39/39 40/40/40 41/41/41
f 41/41/41 42/42/42 39/39/39
f 43/43/43 44/44/44 45/45/45
f 45/45/45 46/46/46 43/43/43
f 47/47/47 48/48/48 49/49/49
f 49/49/49 50/50/50 47/47/47
f 50/50/50 49/49/49 51/51/51
f 51/51/51 52/52/52 50/50/50
f 52/52/52 51/51/51 53/53/53
f 53/53/53 54/54/54 52/52/52
f 55/55/55 54/54/54 53/53/53
f 53/53/53 56/56/56 55/55/55
f 57/57/57 58/58/58 59/59/59
f 59/59/59 60/60/60 57/57/57
f 60/60/60 59/59/59 61/61/61
f 61/61/61 62/62/62 60/60/60
f 63/63/63 62/62/62 61/61/61
f 61/61/61 64/64/64 63/63/63
f 65/65/65 63/63/63 64/64/64
f 64/64/64 66/66/66 65/65/65
f 67/67/67 68/68/68 69/69/69
f 69/69/69 70/70/70 67/67/67
f 70/70/70 69/69/69 71/71/71
f 71/71/71 72/72/72 70/70/70
f 73/73/73 74/74/74 75/75/75
f 75/75/75 76/76/76 73/73/73
f 76/76/76 75/75/75 77/77/77
f 77/77/77 78/78/78 76/76/76
f 78/78/78 77/77/77 79/79/79
f 79/79/79 80/80/80 78/78/78
f 81/81/81 82/82/82 83/83/83
f 83/83/83 84/84/84 81/81/81
f 84/84/84 83/83/83 85/85/85
f 85/85/85 86/86/86 84/84/84
f 87/87/87 88/88/88 89/89/89
f 89/89/89 90/90/90 87/87/87
f 90/90/90 89/89/89 91/91/91
f 91/91/91 92/92/92 90/90/90
f 93/93/93 94/94/94 95/95/95
f 95/95/95 96/96/96 93/93/93
f 96/96/96 95/95/95 97/97/97
f 97/97/97 98/98/98 96/96/96
f 98/98/98 97/97/97 99/99/99
f 99/99/99 100/100/100 98/98/98
f 101/101/101 102/102/102 103/103/103
f 103/103/103 104/104/104 101/101/101
f 104/104/104 103/103/103 105/105/105
f 105/105/105 106/106/106 104/104/104
f 107/107/107 108/108/108 109/109/109
f 109/109/109 110/110/110 107/107/107
f 111/111/111 107/107/107 110/110/110
f 110/110/110 112/112/112 111/111/111
f 113/113/113 111/111/111 112/112/112
f 112/112/112 114/114/114 113/113/113
f 113/113/113 114/114/114 115/115/115
f 115/115/115 116/116/116 113/113/113
f 117/117/117 118/118/118 119/119/119
f 119/119/119 120/120/120 117/117/117
f 121/121/121 117/117/117 120/120/120
f 120/120/120 122/122/122 121/121/121
f 123/123/123 121/121/121 122/122/122
f 122/122/122 124/124/124 123/123/123
f 125/125/125 126/126/126 127/127/127
f 125/125/125 127/127/127 128/128/128
f 129/129/129 125/125/125 128/128/128
f 129/129/129 128/128/128 130/130/130
f 128/128/128 131/131/131 130/130/130
f 132/132/132 133/133/133 134/134/134
f 134/134/134 135/135/135 132/132/132
f 132/132/132 135/135/135 136/136/136
f 137/137/137 132/132/132 136/136/136
f 138/138/138 137/137/137 136/136/136
f 138/138/138 136/136/136 139/139/139
f 139/139/139 140/140/140 138/138/138
f 140/140/140 139/139/139 141/141/141
f 142/142/142 140/140/140 141/141/141
f 139/139/139 143/143/143 141/141/141
f 141/141/141 143/143/143 144/144/144
f 144/144/144 145/145/145 141/141/141
f 146/146/146 145/145/145 144/144/144
f 144/144/144 147/147/147 146/146/146
f 146/146/146 147/147/147 148/148/148
f 149/149/149 146/146/146 148/148/148
f 150/150/150 149/149/149 148/148/148
f 150/150/150 148/148/148 151/151/151
f 151/151/151 152/152/152 150/150/150
f 152/152/152 151/151/151 153/153/153
f 151/151/151 154/154/154 153/153/153
f 155/155/155 152/152/152 153/153/153
f 156/156/156 157/157/157 158/158/158
f 158/158/158 159/159/159 156/156/156
f 160/160/160 159/159/159 158/158/158
f 158/158/158 161/161/161 160/160/160
f 160/160/160 161/161/161 162/162/162
f 162/162/162 163/163/163 160/160/160
f 164/164/164 163/163/163 162/162/162
f 162/162/162 165/165/165 164/164/164
f 166/166/166 167/167/167 168/168/168
f 168/168/168 169/169/169 166/166/166
f 170/170/170 169/169/169 168/168/168
f 168/168/168 171/171/171 170/170/170
f 170/170/170 171/171/171 172/172/172
f 172/172/172 173/173/173 170/170/170
f 174/174/174 175/175/175 176/176/176
f 176/176/176 177/177/177 174/174/174
f 178/178/178 174/174/174 177/177/177
f 177/177/177 176/176/176 179/179/179
f 177/177/177 180/180/180 178/178/178
f 181/181/181 178/178/178 180/180/180
f 180/180/180 182/182/182 181/181/181
f 179/179/179 183/183/183 177/177/177
f 180/180/180 177/177/177 183/183/183
f 183/183/183 179/179/179 184/184/184
f 182/182/182 180/180/180 185/185/185
f 183/183/183 185/185/185 180/180/180
f 185/185/185 186/186/186 182/182/182
f 184/184/184 187/187/187 183/183/183
f 185/185/185 183/183/183 187/187/187
f 187/187/187 184/184/184 188/188/188
f 188/188/188 189/189/189 187/187/187
f 186/186/186 185/185/185 190/190/190
f 187/187/187 190/190/190 185/185/185
f 190/190/190 187/187/187 189/189/189
f 190/190/190 191/191/191 186/186/186
f 189/189/189 192/192/192 190/190/190
f 191/191/191 190/190/190 192/192/192
f 192/192/192 193/193/193 191/191/191
f 194/194/194 195/195/195 196/196/196
f 195/195/195 197/197/197 196/196/196
f 197/197/197 198/198/198 196/196/196
f 195/195/195 199/199/199 197/197/197
f 200/200/200 201/201/201 202/202/202
f 201/201/201 203/203/203 202/202/202
f 203/203/203 204/204/204 202/202/202
f 201/201/201 205/205/205 203/203/203
f 206/206/206 207/207/207 208/208/208
f 207/207/207 209/209/209 208/208/208
f 209/209/209 210/210/210 208/208/208
f 207/207/207 211/211/211 209/209/209
f 212/212/212 213/213/213 214/214/214
f 213/213/213 215/215/215 214/214/214
f 215/215/215 216/216/216 214/214/214
f 213/213/213 217/217/217 215/215/215
f 218/218/218 219/219/219 220/220/220
f 220/220/220 221/221/221 222/222/222
f 220/220/220 223/223/223 218/218/218
f 222/222/222 223/223/223 220/220/220
f 224/224/224 218/218/218 223/223/223
f 223/223/223 222/222/222 225/225/225
f 223/223/223 226/226/226 224/224/224
f 225/225/225 226/226/226 223/223/223
f 227/227/227 224/224/224 226/226/226
f 226/226/226 225/225/225 228/228/228
f 226/226/226 229/229/229 227/227/227
f 228/228/228 229/229/229 226/226/226
f 230/230/230 227/227/227 229/229/229
f 229/229/229 228/228/228 231/231/231
f 229/229/229 232/232/232 230/230/230
f 231/231/231 232/232/232 229/229/229
f 233/233/233 234/234/234 235/235/235
f 236/236/236 237/237/237 233/233/233
f 235/235/235 238/238/238 233/233/233
f 233/233/233 238/238/238 236/236/236
f 238/238/238 235/235/235 239/239/239
f 240/240/240 236/236/236 238/238/238
f 239/239/239 241/241/241 238/238/238
f 238/238/238 241/241/241 240/240/240
f 241/241/241 239/239/239 242/242/242
f 243/243/243 240/240/240 241/241/241
f 242/242/242 244/244/244 241/241/241
f 241/241/241 244/244/244 243/243/243
f 244/244/244 242/242/242 245/245/245
f 246/246/246 243/243/243 244/244/244
f 245/245/245 247/247/247 244/244/244
f 244/244/244 247/247/247 246/246/246
