v 0.1851 6.508113 2.7441499999999994
v 0.071541 6.519724 2.8480969999999997
v 0.207174 6.499318 2.9545299999999997
v 0.201953 6.345967 2.9545299999999997
v 0.064068 6.338413 2.8480969999999997
v 0.178814 6.33943 2.7441499999999994
v 0.23012 6.356996 3.1707699999999996
v 0.227034 6.314307 3.1707699999999996
v 0.199552 6.3157 3.2035649999999998
v 0.202637 6.358389 3.2035649999999998
v 0.41644 6.270712 3.1964809999999995
v 0.348934 6.287028 3.1964799999999998
v 0.348934 6.287028 3.4168309999999997
v 0.41644 6.270712 3.4168309999999997
v 0.333787 6.264637 3.1964809999999995
v 0.414525 6.244223 3.1964809999999995
v 0.414525 6.244223 3.4168309999999997
v 0.333787 6.264637 3.4168309999999997
v 0.227689 6.354997 3.2032189999999994
v 0.287248 6.374029 3.1964809999999995
v 0.265837 6.381015 2.9545299999999997
v 0.201953 6.345967 2.9545299999999997
v 0.235281 6.493399 3.1707699999999996
v 0.207811 6.495015 3.2035649999999998
v 0.209405 6.537786 3.2035649999999998
v 0.236875 6.53617 3.1707699999999996
v 0.429908 6.558823 3.1964809999999995
v 0.429908 6.558823 3.4168309999999997
v 0.361024 6.549975 3.4168309999999997
v 0.361024 6.549975 3.1964799999999998
v 0.348413 6.573886 3.1964809999999995
v 0.348413 6.573887 3.4168309999999997
v 0.430897 6.585363 3.4168309999999997
v 0.430896 6.585363 3.1964809999999995
v 0.232667 6.488572 3.2032189999999994
v 0.207174 6.499318 2.9545299999999997
v 0.268162 6.465623 2.9545299999999997
v 0.290984 6.464683 3.1964809999999995
v 0.178814 6.33943 2.7441499999999994
v 0.064068 6.338413 2.8480969999999997
v 0.071541 6.519724 2.8480969999999997
v 0.1851 6.508113 2.7441499999999994
v 0.207174 6.499318 2.9545299999999997
v 0.071541 6.519724 2.8480969999999997
v 0.064068 6.338413 2.8480969999999997
v 0.201953 6.345967 2.9545299999999997
v 0.360904 6.363649 3.6026489999999995
v 0.721215 6.354112 3.6026489999999995
v 0.721201 6.353929 3.5791999999999997
v 0.360918 6.36348 3.5791999999999997
v 0.719446 6.329639 3.5791999999999997
v 0.361743 6.341094 3.5791999999999997
v 0.719459 6.329822 3.6026489999999995
v 0.36173 6.341264 3.6026489999999995
v 0.360904 6.363649 3.6026489999999995
v 0.721215 6.354112 3.6026489999999995
v 1.174282 6.36364 3.9093909999999994
v 0.227034 6.314307 3.1707699999999996
v 0.23012 6.356996 3.1707699999999996
v 1.175419 6.379364 3.9093909999999994
v 0.202637 6.358389 3.2035649999999998
v 1.147936 6.380759 3.9421859999999995
v 1.1468 6.365035 3.9421859999999995
v 0.199552 6.3157 3.2035649999999998
v 1.174282 6.36364 3.9093909999999994
v 0.227034 6.314307 3.1707699999999996
v 0.518346 6.495239 3.1964799999999998
v 0.495861 6.496167 2.9545299999999997
v 0.549466 6.521735 2.9544569999999997
v 0.56974 6.528832 3.2039629999999995
v 0.576339 6.539292 2.7462389999999997
v 0.606048 6.562154 2.7440189999999998
v 0.495861 6.496167 2.9545299999999997
v 0.518346 6.495239 3.1964799999999998
v 0.441528 6.543807 3.1964799999999998
v 0.419221 6.544729 2.9545299999999997
v 0.351665 6.531743 3.1964809999999995
v 0.329296 6.532666 2.9545299999999997
v 0.290984 6.464683 3.1964809999999995
v 0.268162 6.465623 2.9545299999999997
v 0.48884 6.325794 2.9545299999999997
v 0.511996 6.324841 3.1964799999999998
v 0.558382 6.285672 3.2047909999999997
v 0.541348 6.291563 2.9541939999999998
v 0.591584 6.251513 2.7434279999999998
v 0.565881 6.271729 2.7465479999999998
v 0.565881 6.271729 2.7465479999999998
v 0.591584 6.251513 2.7434279999999998
v 0.660214 6.404062 2.7441499999999994
v 0.616843 6.406132 2.7441499999999994
v 0.606048 6.562154 2.7440189999999998
v 0.576339 6.539292 2.7462389999999997
v 0.232667 6.488572 3.2032189999999994
v 0.290984 6.464683 3.1964809999999995
v 0.351665 6.531743 3.1964809999999995
v 0.324557 6.5843 3.1982709999999996
v 0.441528 6.543807 3.1964799999999998
v 0.454721 6.605136 3.2032179999999997
v 0.518346 6.495239 3.1964799999999998
v 0.56974 6.528832 3.2039629999999995
v 0.541348 6.291563 2.9541939999999998
v 0.565881 6.271729 2.7465479999999998
v 0.616843 6.406132 2.7441499999999994
v 0.586077 6.407117 2.9545299999999997
v 0.576339 6.539292 2.7462389999999997
v 0.549466 6.521735 2.9544569999999997
v 0.723762 6.442829 3.5791999999999997
v 0.723755 6.442646 3.6026489999999995
v 0.364556 6.472506 3.6026489999999995
v 0.364589 6.472672 3.5791999999999997
v 0.724669 6.467165 3.5791999999999997
v 0.367854 6.494834 3.5791999999999997
v 0.724662 6.466981 3.6026489999999995
v 0.367822 6.494667 3.6026489999999995
v 0.364556 6.472506 3.6026489999999995
v 0.723755 6.442646 3.6026489999999995
v 0.431799 6.282743 3.1964799999999998
v 0.511996 6.324841 3.1964799999999998
v 0.488839 6.325793 2.9545299999999997
v 0.407355 6.285889 2.9545299999999997
v 0.343109 6.302166 3.1964809999999995
v 0.319285 6.307698 2.9545299999999997
v 0.287248 6.374029 3.1964809999999995
v 0.265837 6.381015 2.9545299999999997
v 0.375954 6.569676 2.9545299999999997
v 0.207174 6.499318 2.9545299999999997
v 0.201953 6.345967 2.9545299999999997
v 0.362695 6.26685 2.9545299999999997
v 0.549466 6.521735 2.9544569999999997
v 0.586077 6.407117 2.9545299999999997
v 0.541348 6.291563 2.9541939999999998
v 0.178814 6.33943 2.7441499999999994
v 0.1851 6.508113 2.7441499999999994
v 0.172803 6.513297 2.5288359999999996
v 0.165468 6.335304 2.5288359999999996
v 0.27426 6.194239 2.5288359999999996
v 0.227689 6.354997 3.2032189999999994
v 0.310456 6.251257 3.1986359999999996
v 0.448274 6.156107 2.5288359999999996
v 0.440586 6.221812 3.2005739999999996
v 0.591584 6.251513 2.7434279999999998
v 0.558382 6.285672 3.2047909999999997
v 0.606088 6.23875 2.5288359999999996
v 0.673858 6.403499 2.5288359999999996
v 0.660214 6.404062 2.7441499999999994
v 0.606048 6.562154 2.7440189999999998
v 0.619874 6.573267 2.5288359999999996
v 0.469396 6.668616 2.5288359999999996
v 0.56974 6.528832 3.2039629999999995
v 0.454721 6.605136 3.2032179999999997
v 0.292833 6.644932 2.5288359999999996
v 0.324557 6.5843 3.1982709999999996
v 0.1851 6.508113 2.7441499999999994
v 0.172803 6.513297 2.5288359999999996
v 0.232667 6.488572 3.2032189999999994
v 1.173073 6.383706 3.9093909999999994
v 0.236875 6.53617 3.1707699999999996
v 0.209405 6.537786 3.2035649999999998
v 1.145603 6.38532 3.9421859999999995
v 1.145016 6.369566 3.9421859999999995
v 0.207811 6.495015 3.2035649999999998
v 0.235281 6.493399 3.1707699999999996
v 1.172486 6.367952 3.9093909999999994
v 1.173073 6.383706 3.9093909999999994
v 0.236875 6.53617 3.1707699999999996
v 0.287248 6.374029 3.1964809999999995
v 0.227689 6.354997 3.2032189999999994
v 0.310456 6.251257 3.1986359999999996
v 0.343109 6.302166 3.1964809999999995
v 0.431799 6.282743 3.1964799999999998
v 0.440586 6.221812 3.2005739999999996
v 0.558382 6.285672 3.2047909999999997
v 0.511996 6.324841 3.1964799999999998
v 1.189669 6.360775 3.9172989999999994
v 1.199864 6.365878 3.9236679999999997
v 1.170845 6.367455 3.9659689999999994
v 1.164506 6.362157 3.9558979999999995
v 1.190281 6.372056 3.9172989999999994
v 0.285551 6.415545 3.9262169999999994
v 1.165115 6.373407 3.9558979999999995
v 1.199864 6.365878 3.9236679999999997
v 1.170845 6.367455 3.9659689999999994
v 0.290801 6.409617 3.9167149999999995
v 0.258427 6.417017 3.8835539999999997
v 0.291412 6.420868 3.9167149999999995
v 0.285551 6.415545 3.9262169999999994
v 0.266064 6.41096 3.8765659999999995
v 0.173468 6.421612 3.4049739999999997
v 0.182529 6.415479 3.4022799999999997
v 0.266675 6.422212 3.8765659999999995
v 0.258427 6.417017 3.8835539999999997
v 0.183139 6.42673 3.4022799999999997
v 0.173468 6.421612 3.4049739999999997
v 1.095924 6.351658 3.9146569999999996
v 1.119795 6.350341 3.8732479999999994
v 1.119795 6.350341 3.9560659999999994
v 1.191409 6.346389 3.9146569999999996
v 1.167538 6.347706 3.9560659999999994
v 1.167538 6.347706 3.8732469999999997
v 1.121681 6.38453 3.8732469999999997
v 1.097809 6.385847 3.9146569999999996
v 1.169423 6.381896 3.8732469999999997
v 1.169423 6.381896 3.9560659999999994
v 1.193295 6.380578 3.9146569999999996
v 1.121681 6.38453 3.9560659999999994
v 0.262411 6.397495 3.8758679999999996
v 0.286282 6.396177 3.8344599999999995
v 0.286282 6.396177 3.9172779999999996
v 0.357896 6.392226 3.8758679999999996
v 0.334025 6.393543 3.9172779999999996
v 0.334025 6.393543 3.8344589999999994
v 0.288167 6.430367 3.8344589999999994
v 0.264296 6.431684 3.8758679999999996
v 0.33591 6.427732 3.8344589999999994
v 0.33591 6.427732 3.9172779999999996
v 0.359781 6.426414 3.8758679999999996
v 0.288167 6.430367 3.9172779999999996
v 0.294752 6.400503 3.8837749999999995
v 0.295524 6.415729 3.8618929999999994
v 0.321943 6.367108 3.6045619999999996
v 0.403729 6.341334 2.9493509999999996
v 0.403392 6.294488 2.9493509999999996
v 0.320387 6.336389 3.6045619999999996
v 0.327525 6.398842 3.8837749999999995
v 0.458033 6.29169 2.9493509999999996
v 0.361922 6.334317 3.6045619999999996
v 0.328298 6.414068 3.8618929999999994
v 0.458371 6.338537 2.9493509999999996
v 0.36414 6.364988 3.6045619999999996
v 0.295524 6.415729 3.8618929999999994
v 0.403729 6.341334 2.9493509999999996
v 0.321943 6.367108 3.6045619999999996
v 0.327568 6.469825 3.6045619999999996
v 0.295997 6.424379 3.8618929999999994
v 0.296893 6.439599 3.8837749999999995
v 0.416458 6.533118 2.9493509999999996
v 0.411678 6.486515 2.9493509999999996
v 0.329374 6.50053 3.6045619999999996
v 0.329652 6.437671 3.8837749999999995
v 0.471079 6.529934 2.9493509999999996
v 0.370888 6.498055 3.6045619999999996
v 0.328757 6.422452 3.8618929999999994
v 0.466299 6.48333 2.9493509999999996
v 0.369744 6.467325 3.6045619999999996
v 0.295997 6.424379 3.8618929999999994
v 0.411678 6.486515 2.9493509999999996
v 0.327568 6.469825 3.6045619999999996
vt 0.385172 0.061207
vt 0.389023 0.043027
vt 0.369048 0.043027
vt 0.431224 0.124225
vt 0.451199 0.124225
vt 0.446377 0.143234
vt 0.612788 0.064806
vt 0.612788 0.060214
vt 0.608528 0.060214
vt 0.608528 0.064806
vt 0.426391 0.120153
vt 0.433184 0.120153
vt 0.433184 0.092718
vt 0.426391 0.092718
vt 0.438662 0.120153
vt 0.446072 0.120153
vt 0.446072 0.092718
vt 0.438662 0.092718
vt 0.541021 0.097834
vt 0.537238 0.097834
vt 0.537238 0.115962
vt 0.541021 0.115962
vt 0.612788 0.064806
vt 0.608528 0.064806
vt 0.608528 0.060214
vt 0.612788 0.060214
vt 0.426391 0.120153
vt 0.426391 0.092718
vt 0.433184 0.092718
vt 0.433184 0.120153
vt 0.438662 0.120153
vt 0.438662 0.092718
vt 0.446072 0.092718
vt 0.446072 0.120153
vt 0.541021 0.097834
vt 0.541021 0.115962
vt 0.537238 0.115962
vt 0.537238 0.097834
vt 0.373671 0.019988
vt 0.386903 0.019988
vt 0.386903 0.038997
vt 0.373671 0.038997
vt 0.408783 0.038997
vt 0.388808 0.038997
vt 0.388808 0.019988
vt 0.408783 0.019988
vt 0.422689 0.102530
vt 0.422689 0.056077
vt 0.419984 0.056077
vt 0.419984 0.102530
vt 0.417279 0.056077
vt 0.417279 0.102530
vt 0.414575 0.056077
vt 0.414575 0.102530
vt 0.411871 0.102530
vt 0.411871 0.056077
vt 0.647405 0.182545
vt 0.647405 0.019789
vt 0.644361 0.019789
vt 0.644361 0.182545
vt 0.640101 0.019789
vt 0.640101 0.182545
vt 0.637667 0.182545
vt 0.637667 0.019789
vt 0.633407 0.182545
vt 0.633407 0.019789
vt 0.518867 0.068613
vt 0.523228 0.095891
vt 0.517693 0.096649
vt 0.513067 0.068568
vt 0.516924 0.120727
vt 0.513148 0.121578
vt 0.520290 0.115962
vt 0.520290 0.097834
vt 0.525528 0.097834
vt 0.525528 0.115962
vt 0.530767 0.097834
vt 0.530767 0.115962
vt 0.536006 0.097834
vt 0.536006 0.115962
vt 0.537833 0.096254
vt 0.542002 0.068998
vt 0.547520 0.068840
vt 0.543418 0.097099
vt 0.547520 0.121880
vt 0.544121 0.121105
vt 0.539430 0.117900
vt 0.541226 0.120905
vt 0.529999 0.120905
vt 0.529999 0.117900
vt 0.518771 0.120905
vt 0.520567 0.117900
vt 0.454236 0.065789
vt 0.460760 0.058546
vt 0.474903 0.058546
vt 0.474903 0.065789
vt 0.490334 0.058546
vt 0.492351 0.065789
vt 0.504296 0.058546
vt 0.510497 0.065789
vt 0.450434 0.084984
vt 0.425976 0.084984
vt 0.425976 0.070946
vt 0.450434 0.070946
vt 0.425976 0.056908
vt 0.450434 0.056908
vt 0.419984 0.056077
vt 0.422689 0.056077
vt 0.422689 0.102530
vt 0.419984 0.102530
vt 0.417279 0.056077
vt 0.417279 0.102530
vt 0.414575 0.056077
vt 0.414575 0.102530
vt 0.411871 0.102530
vt 0.411871 0.056077
vt 0.525528 0.097834
vt 0.520290 0.097834
vt 0.520290 0.115962
vt 0.525528 0.115962
vt 0.530767 0.097834
vt 0.530767 0.115962
vt 0.536006 0.097834
vt 0.536006 0.115962
vt 0.346805 0.040674
vt 0.330374 0.033261
vt 0.331371 0.021857
vt 0.349104 0.018712
vt 0.365582 0.040479
vt 0.371593 0.031353
vt 0.367257 0.021321
vt 0.606224 0.123550
vt 0.627604 0.123552
vt 0.627604 0.149171
vt 0.606224 0.148998
vt 0.586362 0.148935
vt 0.606224 0.068706
vt 0.586362 0.068706
vt 0.568469 0.148919
vt 0.568469 0.068706
vt 0.549531 0.123550
vt 0.549531 0.068706
vt 0.549531 0.148982
vt 0.530127 0.149171
vt 0.530127 0.123550
vt 0.510633 0.123550
vt 0.510633 0.148966
vt 0.492134 0.148857
vt 0.510633 0.068706
vt 0.492134 0.068706
vt 0.474904 0.148893
vt 0.474904 0.068706
vt 0.454320 0.123550
vt 0.454320 0.148831
vt 0.454320 0.068706
vt 0.633407 0.182545
vt 0.633407 0.019789
vt 0.637667 0.019789
vt 0.637667 0.182545
vt 0.640101 0.182545
vt 0.640101 0.019789
vt 0.644361 0.019789
vt 0.644361 0.182545
vt 0.647405 0.182545
vt 0.647405 0.019789
vt 0.600914 0.058546
vt 0.606112 0.065789
vt 0.586570 0.065789
vt 0.585557 0.058546
vt 0.569184 0.058546
vt 0.568424 0.065789
vt 0.549581 0.065789
vt 0.555601 0.058546
vt 0.544513 0.022397
vt 0.544842 0.023145
vt 0.540573 0.023145
vt 0.540828 0.022397
vt 0.544498 0.020898
vt 0.472740 0.023145
vt 0.540843 0.020898
vt 0.544808 0.019401
vt 0.540573 0.019401
vt 0.472616 0.022397
vt 0.468933 0.023145
vt 0.472514 0.020898
vt 0.472630 0.019401
vt 0.469112 0.022397
vt 0.430672 0.023145
vt 0.430672 0.022397
vt 0.469214 0.020898
vt 0.469045 0.019401
vt 0.430672 0.020898
vt 0.430672 0.019401
vt 0.404642 0.075854
vt 0.408932 0.078547
vt 0.400352 0.078547
vt 0.404642 0.086626
vt 0.400352 0.083933
vt 0.408932 0.083933
vt 0.408932 0.078547
vt 0.404642 0.075854
vt 0.408932 0.083933
vt 0.400352 0.083933
vt 0.404642 0.086626
vt 0.400352 0.078547
vt 0.404642 0.075854
vt 0.408932 0.078547
vt 0.400352 0.078547
vt 0.404642 0.086626
vt 0.400352 0.083933
vt 0.408932 0.083933
vt 0.408932 0.078547
vt 0.404642 0.075854
vt 0.408932 0.083933
vt 0.400352 0.083933
vt 0.404642 0.086626
vt 0.400352 0.078547
vt 0.656378 0.019927
vt 0.651615 0.019927
vt 0.651615 0.077203
vt 0.651615 0.182307
vt 0.656378 0.182307
vt 0.656378 0.077203
vt 0.661141 0.019927
vt 0.661141 0.182307
vt 0.661141 0.077203
vt 0.665223 0.019927
vt 0.665223 0.182307
vt 0.665223 0.077203
vt 0.670666 0.019927
vt 0.670666 0.182307
vt 0.670666 0.077203
vt 0.651615 0.077203
vt 0.651615 0.019927
vt 0.656378 0.019927
vt 0.656378 0.182307
vt 0.651615 0.182307
vt 0.656378 0.077203
vt 0.661141 0.019927
vt 0.661141 0.182307
vt 0.661141 0.077203
vt 0.665223 0.019927
vt 0.665223 0.182307
vt 0.665223 0.077203
vt 0.670666 0.019927
vt 0.670666 0.182307
vt 0.670666 0.077203
vn 0.127111 0.99149 0.02811599999999994
vn 0.127111 0.99149 0.02811599999999994
vn 0.127111 0.99149 0.02811599999999994
vn 0.033625 -0.99906 0.027345000000000064
vn 0.033625 -0.99906 0.027345000000000064
vn 0.033625 -0.99906 0.027345000000000064
vn -0.764131 0.05522999999999996 -0.642692
vn -0.764135 0.05523599999999996 -0.642687
vn -0.764131 0.05522999999999996 -0.642692
vn -0.764128 0.05522299999999996 -0.642696
vn 0.234937 0.972011 -5.95185079943009E-17
vn 0.234937 0.972011 -5.95185079943009E-17
vn 0.234937 0.972011 -5.95185079943009E-17
vn 0.234937 0.972011 -5.95185079943009E-17
vn -0.245134 -0.969489 -9.999999999406359E-07
vn -0.245139 -0.969488 1.000000000059364E-06
vn -0.245134 -0.969489 -9.999999999406359E-07
vn -0.245129 -0.969491 -2.9999999999406358E-06
vn -0.391641 0.919409 0.036112999999999944
vn -0.298398 0.952917 0.05392199999999994
vn -0.391641 0.919409 0.036112999999999944
vn -0.480914 0.876584 0.017938999999999948
vn -0.765593 0.02853199999999996 -0.642693
vn -0.765589 0.02853699999999996 -0.642697
vn -0.765593 0.02853199999999996 -0.642693
vn -0.765596 0.028526999999999962 -0.642689
vn 0.127403 -0.991851 6.073335761905507E-17
vn 0.127403 -0.991851 6.073335761905507E-17
vn 0.127403 -0.991851 6.073335761905507E-17
vn 0.127403 -0.991851 6.073335761905507E-17
vn -0.137813 0.990458 -1.000000000060648E-06
vn -0.137808 0.990459 -3.000000000060648E-06
vn -0.137813 0.990458 -1.000000000060648E-06
vn -0.137818 0.990458 9.99999999939352E-07
vn -0.430431 -0.902359 0.021836000000000057
vn -0.483552 -0.875237 0.011751000000000053
vn -0.430431 -0.902359 0.021836000000000057
vn -0.375735 -0.92618 0.03184100000000006
vn -0.672422 0.026382999999999955 -0.739697
vn -0.671251 0.027664999999999954 -0.740713
vn -0.672422 0.026382999999999955 -0.739697
vn -0.67359 0.025099999999999956 -0.738678
vn -0.613198 0.02308100000000005 0.789592
vn -0.614772 0.025337000000000047 0.788298
vn -0.613198 0.02308100000000005 0.789592
vn -0.611617 0.020824000000000047 0.79088
vn 0.018795 0.709506 0.704448
vn 0.018784 0.709615 0.70434
vn 0.023614 0.891416 -0.45257000000000003
vn 0.011817 0.44576299999999996 -0.895073
vn -0.014359 -0.4483790000000001 -0.893728
vn -0.028696 -0.896648 -0.44181299999999996
vn -0.022533 -0.70408 0.709764
vn -0.022522 -0.70419 0.709654
vn 0.018795 0.709506 0.704448
vn 0.018784 0.709615 0.70434
vn 0.441161 -0.733712 -0.516762
vn 0.441166 -0.733704 -0.51677
vn 0.555837 0.40893299999999994 -0.723753
vn 0.281804 0.877855 -0.38724300000000006
vn -0.428901 0.733924 0.526687
vn -0.428897 0.73393 0.526681
vn -0.54794 -0.40849899999999995 0.729993
vn -0.266262 -0.876966 0.40004300000000004
vn 0.441161 -0.733712 -0.516762
vn 0.441166 -0.733704 -0.51677
vn 0.490771 -0.870693 -0.032214999999999945
vn 0.430058 -0.901757 -0.04342299999999995
vn 0.484712 -0.87429 -0.025910999999999948
vn 0.544898 -0.838376 -0.014534999999999947
vn 0.542757 -0.839813 -0.011364999999999948
vn 0.609406 -0.792803 -0.009329999999999951
vn -0.534243 -0.844066 0.04622600000000005
vn -0.533815 -0.844329 0.04637400000000005
vn -0.329529 -0.943762 0.02691700000000006
vn -0.094662 -0.995497 0.0049190000000000605
vn 0.354405 -0.934386 -0.03631799999999995
vn 0.567099 -0.821739 -0.05606799999999995
vn 0.738316 -0.67065 -0.07153199999999996
vn 0.737002 -0.672031 -0.07212799999999996
vn 0.599515 0.799441 -0.03842600000000005
vn 0.650217 0.757434 -0.059250000000000046
vn 0.59034 0.806514 -0.03214000000000005
vn 0.57898 0.815238 -0.01303300000000005
vn 0.595151 0.803541 -0.010831000000000049
vn 0.618036 0.786147 -0.002072000000000048
vn 0.043731 -0.01307399999999994 0.998958
vn 0.086505 -0.043631999999999935 0.995296
vn 0.029161 -0.008430999999999939 0.999539
vn 0.023698 0.00802700000000006 0.999687
vn 0.03513 0.0032750000000000613 0.999377
vn 0.070177 0.005699000000000061 0.997518
vn 0.07093 -0.03995999999999994 0.996681
vn 0.083753 -0.07578499999999995 0.993601
vn 0.048728 -0.03726499999999994 0.998117
vn 0.013772 -0.04693799999999994 0.998803
vn -0.025855 -0.07760799999999994 0.996649
vn -0.052577 -0.10187399999999995 0.993407
vn -0.068332 -0.10041699999999995 0.992596
vn -0.075911 -0.10474399999999995 0.991598
vn 0.925008 -0.353313 0.13975200000000002
vn 0.926307 -0.348684 0.14274300000000004
vn 0.978347 -0.146962 0.145736
vn 0.985792 0.08035800000000001 0.147503
vn 0.945273 0.293678 0.14216699999999996
vn 0.942211 0.301052 0.14698999999999998
vn -0.073856 -0.888664 -0.4525719999999999
vn -0.058807 -0.707425 0.704338
vn -0.058784 -0.707317 0.704448
vn -0.036924 -0.44438900000000003 -0.895073
vn 0.034683 0.44726699999999997 -0.893728
vn 0.069376 0.894422 -0.44181100000000006
vn 0.054476 0.70233 0.709764
vn 0.054499 0.702439 0.709654
vn -0.058784 -0.707317 0.704448
vn -0.058807 -0.707425 0.704338
vn -0.242395 0.969602 0.03340799999999994
vn -0.464257 0.884404 0.04791299999999994
vn -0.451739 0.890635 0.05197299999999994
vn 0.005334 0.999857 0.01604299999999994
vn 0.436419 0.899368 -0.025987000000000055
vn 0.644937 0.763082 -0.041987000000000045
vn 0.797506 0.600418 -0.05900700000000003
vn 0.80688 0.588204 -0.054418000000000036
vn 0.000138 -5.999999999938768E-06 1
vn -1E-06 1.0000000000612324E-06 1
vn -1E-06 6.123233995736766E-17 1
vn 0.000623 -0.0008309999999999388 0.999999
vn 4.1E-05 0.00025600000000006125 1
vn 0.001038 -0.001653999999999939 0.999998
vn 0.00241 -0.0038379999999999387 0.99999
vn -0.946051 -0.315137 0.07533600000000001
vn -0.828478 0.553794 0.08328599999999997
vn -0.962375 0.264459 0.062414999999999984
vn -0.950978 -0.302405 0.06474100000000002
vn -0.661268 -0.744496 0.09192500000000005
vn -0.765556 -0.635756 0.09868400000000004
vn -0.4244 -0.900069 0.09879700000000005
vn 0.127846 -0.987103 0.09634700000000006
vn 0.247861 -0.963641 0.09980800000000005
vn 0.681057 -0.726866 0.08847000000000003
vn 0.471526 -0.876298 0.09881300000000005
vn 0.735938 -0.671087 0.08965300000000004
vn 0.996256 -0.043607999999999994 0.074654
vn 0.996919 -0.04633199999999999 0.063292
vn 0.781158 0.618661 0.08396599999999996
vn 0.789198 0.608621 0.08213999999999996
vn 0.381334 0.91963 0.09415299999999995
vn 0.528477 0.843492 0.09609499999999994
vn 0.090922 0.991028 0.09796599999999994
vn -0.457831 0.884433 0.09038699999999994
vn -0.549642 0.828956 0.10356499999999995
vn -0.828478 0.553794 0.08328599999999997
vn -0.962375 0.264459 0.062414999999999984
vn -0.714863 0.691561 0.10350899999999996
vn 0.518635 0.681156 -0.516764
vn 0.518637 0.68115 -0.516769
vn -0.352961 0.721071 0.596218
vn -0.352968 0.721062 0.596225
vn -0.50647 -0.682708 0.526686
vn -0.506474 -0.682699 0.526693
vn 0.365203 -0.723173 -0.586215
vn 0.365207 -0.723168 -0.586219
vn 0.518635 0.681156 -0.516764
vn 0.518637 0.68115 -0.516769
vn 0.065354 0.029859000000000063 0.997415
vn 0.100811 0.03650600000000006 0.994236
vn 0.0348 0.04099800000000006 0.998553
vn 0.018972 0.030129000000000062 0.999366
vn -0.031596 0.07281700000000006 0.996845
vn -0.033225 0.06223000000000006 0.997509
vn -0.067382 0.09343300000000006 0.993343
vn -0.067947 0.12943700000000005 0.989257
vn -0.10277 -0.994396 -0.024782999999999937
vn 0.718977 0.515184 0.4665369999999999
vn 0.425277 -0.03660299999999994 0.904323
vn -0.468993 -0.838926 -0.27613199999999993
vn -0.697838 0.537175 -0.47377700000000006
vn -0.497734 0.031632000000000056 0.866753
vn 0.03912 0.863156 -0.50342
vn 0.718977 0.515184 0.4665369999999999
vn 0.425277 -0.03660299999999994 0.904323
vn -0.016076 -0.866382 -0.49912299999999993
vn -0.933971 0.05012000000000002 0.353818
vn 0.4716 0.841797 -0.26262300000000005
vn -0.497734 0.031632000000000056 0.866753
vn 0.375863 -0.887857 -0.26540099999999994
vn -0.886275 -0.437249 0.15274200000000002
vn 0.824504 -0.545498 -0.15041599999999997
vn 0.53815 0.838269 -0.08775000000000005
vn -0.933971 0.05012000000000002 0.353818
vn 0.036657 0.999322 0.003466999999999939
vn -0.886275 -0.437249 0.15274200000000002
vn -0.055109 -0.99848 -9.999999999388607E-07
vn -0.055101 -0.998481 -3.99999999993886E-06
vn -0.0551 -0.998481 3.0000000000611393E-06
vn -0.055095 -0.998481 6.113932803297241E-17
vn -0.055092 -0.998481 1.2000000000061139E-05
vn -0.055094 -0.998481 -9.999999999938862E-06
vn 0.055099 0.998481 -1.0000000000611392E-06
vn 0.0551 0.998481 -6.113932803297241E-17
vn 0.055099 0.998481 -6.113932803297241E-17
vn 0.055099 0.998481 -6.113932803297241E-17
vn 0.055097 0.998481 -6.113932803297241E-17
vn 0.055099 0.998481 9.999999999388607E-07
vn -0.055104 -0.998481 1.0000000000611392E-06
vn -0.055099 -0.998481 6.113932803297241E-17
vn -0.0551 -0.998481 2.000000000061139E-06
vn -0.055096 -0.998481 6.113932803297241E-17
vn -0.055097 -0.998481 3.0000000000611393E-06
vn -0.055094 -0.998481 -3.99999999993886E-06
vn 0.055094 0.998481 -1.000000000006114E-05
vn 0.055096 0.998481 -6.113932803297241E-17
vn 0.0551 0.998481 -3.0000000000611393E-06
vn 0.0551 0.998481 2.999999999938861E-06
vn 0.055107 0.998481 -6.113932803297241E-17
vn 0.055094 0.998481 9.999999999938862E-06
vn -0.89756 -0.44071 0.012682000000000028
vn -0.418298 0.883727 -0.20988700000000005
vn -0.877307 0.456248 -0.14890000000000003
vn -0.404829 0.910305 -0.08636800000000006
vn -0.904338 -0.417868 -0.08694299999999998
vn -0.492607 -0.867215 0.07263600000000006
vn 0.419439 -0.871761 0.25318700000000005
vn 0.402937 -0.907574 0.11811300000000005
vn 0.869803 -0.457528 0.18469300000000002
vn 0.89543 0.4441 0.03129899999999997
vn 0.904648 0.410382 0.11488199999999997
vn 0.494433 0.868703 -0.029842000000000053
vn -0.418298 0.883727 -0.20988700000000005
vn -0.404829 0.910305 -0.08636800000000006
vn -0.877307 0.456248 -0.14890000000000003
vn -0.921877 -0.357732 -0.14889999999999998
vn -0.512288 -0.832772 -0.20988699999999993
vn -0.844075 0.536075 0.012681999999999968
vn -0.853307 0.514108 -0.08694400000000002
vn -0.5018 -0.860661 -0.08636799999999994
vn -0.394976 0.915816 0.07263599999999995
vn 0.512117 0.820751 0.25318699999999994
vn 0.49962 0.858155 0.11811299999999994
vn 0.914558 0.359822 0.18469299999999997
vn 0.841586 -0.539215 0.031298000000000034
vn 0.854433 -0.506702 0.11488200000000003
vn 0.396627 -0.917495 -0.029841999999999945
vn -0.512288 -0.832772 -0.20988699999999993
vn -0.5018 -0.860661 -0.08636799999999994
vn -0.921877 -0.357732 -0.14889999999999998
g oriental crane
f 1/1/1 2/2/2 3/3/3
f 4/4/4 5/5/5 6/6/6
f 7/7/7 8/8/8 9/9/9
f 9/9/9 10/10/10 7/7/7
f 11/11/11 12/12/12 13/13/13
f 13/13/13 14/14/14 11/11/11
f 15/15/15 16/16/16 17/17/17
f 17/17/17 18/18/18 15/15/15
f 19/19/19 20/20/20 21/21/21
f 21/21/21 22/22/22 19/19/19
f 23/23/23 24/24/24 25/25/25
f 25/25/25 26/26/26 23/23/23
f 27/27/27 28/28/28 29/29/29
f 29/29/29 30/30/30 27/27/27
f 31/31/31 32/32/32 33/33/33
f 33/33/33 34/34/34 31/31/31
f 35/35/35 36/36/36 37/37/37
f 37/37/37 38/38/38 35/35/35
f 39/39/39 40/40/40 41/41/41
f 41/41/41 42/42/42 39/39/39
f 43/43/43 44/44/44 45/45/45
f 45/45/45 46/46/46 43/43/43
f 47/47/47 48/48/48 49/49/49
f 49/49/49 50/50/50 47/47/47
f 50/50/50 49/49/49 51/51/51
f 51/51/51 52/52/52 50/50/50
f 52/52/52 51/51/51 53/53/53
f 53/53/53 54/54/54 52/52/52
f 55/55/55 54/54/54 53/53/53
f 53/53/53 56/56/56 55/55/55
f 57/57/57 58/58/58 59/59/59
f 59/59/59 60/60/60 57/57/57
f 60/60/60 59/59/59 61/61/61
f 61/61/61 62/62/62 60/60/60
f 63/63/63 62/62/62 61/61/61
f 61/61/61 64/64/64 63/63/63
f 65/65/65 63/63/63 64/64/64
f 64/64/64 66/66/66 65/65/65
f 67/67/67 68/68/68 69/69/69
f 69/69/69 70/70/70 67/67/67
f 70/70/70 69/69/69 71/71/71
f 71/71/71 72/72/72 70/70/70
f 73/73/73 74/74/74 75/75/75
f 75/75/75 76/76/76 73/73/73
f 76/76/76 75/75/75 77/77/77
f 77/77/77 78/78/78 76/76/76
f 78/78/78 77/77/77 79/79/79
f 79/79/79 80/80/80 78/78/78
f 81/81/81 82/82/82 83/83/83
f 83/83/83 84/84/84 81/81/81
f 84/84/84 83/83/83 85/85/85
f 85/85/85 86/86/86 84/84/84
f 87/87/87 88/88/88 89/89/89
f 89/89/89 90/90/90 87/87/87
f 90/90/90 89/89/89 91/91/91
f 91/91/91 92/92/92 90/90/90
f 93/93/93 94/94/94 95/95/95
f 95/95/95 96/96/96 93/93/93
f 96/96/96 95/95/95 97/97/97
f 97/97/97 98/98/98 96/96/96
f 98/98/98 97/97/97 99/99/99
f 99/99/99 100/100/100 98/98/98
f 101/101/101 102/102/102 103/103/103
f 103/103/103 104/104/104 101/101/101
f 104/104/104 103/103/103 105/105/105
f 105/105/105 106/106/106 104/104/104
f 107/107/107 108/108/108 109/109/109
f 109/109/109 110/110/110 107/107/107
f 111/111/111 107/107/107 110/110/110
f 110/110/110 112/112/112 111/111/111
f 113/113/113 111/111/111 112/112/112
f 112/112/112 114/114/114 113/113/113
f 113/113/113 114/114/114 115/115/115
f 115/115/115 116/116/116 113/113/113
f 117/117/117 118/118/118 119/119/119
f 119/119/119 120/120/120 117/117/117
f 121/121/121 117/117/117 120/120/120
f 120/120/120 122/122/122 121/121/121
f 123/123/123 121/121/121 122/122/122
f 122/122/122 124/124/124 123/123/123
f 125/125/125 126/126/126 127/127/127
f 125/125/125 127/127/127 128/128/128
f 129/129/129 125/125/125 128/128/128
f 129/129/129 128/128/128 130/130/130
f 128/128/128 131/131/131 130/130/130
f 132/132/132 133/133/133 134/134/134
f 134/134/134 135/135/135 132/132/132
f 132/132/132 135/135/135 136/136/136
f 137/137/137 132/132/132 136/136/136
f 138/138/138 137/137/137 136/136/136
f 138/138/138 136/136/136 139/139/139
f 139/139/139 140/140/140 138/138/138
f 140/140/140 139/139/139 141/141/141
f 142/142/142 140/140/140 141/141/141
f 139/139/139 143/143/143 141/141/141
f 141/141/141 143/143/143 144/144/144
f 144/144/144 145/145/145 141/141/141
f 146/146/146 145/145/145 144/144/144
f 144/144/144 147/147/147 146/146/146
f 146/146/146 147/147/147 148/148/148
f 149/149/149 146/146/146 148/148/148
f 150/150/150 149/149/149 148/148/148
f 150/150/150 148/148/148 151/151/151
f 151/151/151 152/152/152 150/150/150
f 152/152/152 151/151/151 153/153/153
f 151/151/151 154/154/154 153/153/153
f 155/155/155 152/152/152 153/153/153
f 156/156/156 157/157/157 158/158/158
f 158/158/158 159/159/159 156/156/156
f 160/160/160 159/159/159 158/158/158
f 158/158/158 161/161/161 160/160/160
f 160/160/160 161/161/161 162/162/162
f 162/162/162 163/163/163 160/160/160
f 164/164/164 163/163/163 162/162/162
f 162/162/162 165/165/165 164/164/164
f 166/166/166 167/167/167 168/168/168
f 168/168/168 169/169/169 166/166/166
f 170/170/170 169/169/169 168/168/168
f 168/168/168 171/171/171 170/170/170
f 170/170/170 171/171/171 172/172/172
f 172/172/172 173/173/173 170/170/170
f 174/174/174 175/175/175 176/176/176
f 176/176/176 177/177/177 174/174/174
f 178/178/178 174/174/174 177/177/177
f 177/177/177 176/176/176 179/179/179
f 177/177/177 180/180/180 178/178/178
f 181/181/181 178/178/178 180/180/180
f 180/180/180 182/182/182 181/181/181
f 179/179/179 183/183/183 177/177/177
f 180/180/180 177/177/177 183/183/183
f 183/183/183 179/179/179 184/184/184
f 182/182/182 180/180/180 185/185/185
f 183/183/183 185/185/185 180/180/180
f 185/185/185 186/186/186 182/182/182
f 184/184/184 187/187/187 183/183/183
f 185/185/185 183/183/183 187/187/187
f 187/187/187 184/184/184 188/188/188
f 188/188/188 189/189/189 187/187/187
f 186/186/186 185/185/185 190/190/190
f 187/187/187 190/190/190 185/185/185
f 190/190/190 187/187/187 189/189/189
f 190/190/190 191/191/191 186/186/186
f 189/189/189 192/192/192 190/190/190
f 191/191/191 190/190/190 192/192/192
f 192/192/192 193/193/193 191/191/191
f 194/194/194 195/195/195 196/196/196
f 195/195/195 197/197/197 196/196/196
f 197/197/197 198/198/198 196/196/196
f 195/195/195 199/199/199 197/197/197
f 200/200/200 201/201/201 202/202/202
f 201/201/201 203/203/203 202/202/202
f 203/203/203 204/204/204 202/202/202
f 201/201/201 205/205/205 203/203/203
f 206/206/206 207/207/207 208/208/208
f 207/207/207 209/209/209 208/208/208
f 209/209/209 210/210/210 208/208/208
f 207/207/207 211/211/211 209/209/209
f 212/212/212 213/213/213 214/214/214
f 213/213/213 215/215/215 214/214/214
f 215/215/215 216/216/216 214/214/214
f 213/213/213 217/217/217 215/215/215
f 218/218/218 219/219/219 220/220/220
f 220/220/220 221/221/221 222/222/222
f 220/220/220 223/223/223 218/218/218
f 222/222/222 223/223/223 220/220/220
f 224/224/224 218/218/218 223/223/223
f 223/223/223 222/222/222 225/225/225
f 223/223/223 226/226/226 224/224/224
f 225/225/225 226/226/226 223/223/223
f 227/227/227 224/224/224 226/226/226
f 226/226/226 225/225/225 228/228/228
f 226/226/226 229/229/229 227/227/227
f 228/228/228 229/229/229 226/226/226
f 230/230/230 227/227/227 229/229/229
f 229/229/229 228/228/228 231/231/231
f 229/229/229 232/232/232 230/230/230
f 231/231/231 232/232/232 229/229/229
f 233/233/233 234/234/234 235/235/235
f 236/236/236 237/237/237 233/233/233
f 235/235/235 238/238/238 233/233/233
f 233/233/233 238/238/238 236/236/236
f 238/238/238 235/235/235 239/239/239
f 240/240/240 236/236/236 238/238/238
f 239/239/239 241/241/241 238/238/238
f 238/238/238 241/241/241 240/240/240
f 241/241/241 239/239/239 242/242/242
f 243/243/243 240/240/240 241/241/241
f 242/242/242 244/244/244 241/241/241
f 241/241/241 244/244/244 243/243/243
f 244/244/244 242/242/242 245/245/245
f 246/246/246 243/243/243 244/244/244
f 245/245/245 247/247/247 244/244/244
f 244/244/244 247/247/247 246/246/246
