v -0.967325 0.13486500000000007 0.811731
v -0.678557 0.04391700000000004 0.726113
v -0.339351 0.08413100000000005 0.825674
v -0.993481 -0.27892599999999995 0.853946
v -0.618415 -0.19795799999999994 0.74955
v -0.312094 -0.12796199999999994 0.845214
v 0.212584 0.982352 0.8346099999999999
v 0.100046 0.768206 0.739537
v 0.044039 0.586811 0.772114
v 0.070432 0.36432200000000003 0.851946
v -0.184508 1.027451 0.8095499999999999
v -0.184199 0.684626 0.736317
v -0.189649 0.3544050000000001 0.845725
vt 0.525805 0.323709
vt 0.541473 0.441793
vt 0.528506 0.580686
vt 0.621694 0.326616
vt 0.596845 0.474944
vt 0.580079 0.600889
vt 0.976740 0.375644
vt 0.928669 0.428769
vt 0.886048 0.452988
vt 0.831543 0.445145
vt 0.994526 0.535942
vt 0.913604 0.544577
vt 0.833346 0.551706
vn 0.290792 0.12769000000000005 0.948228
vn -0.089507 0.08432900000000006 0.99241
vn -0.286852 0.051267000000000056 0.956602
vn 0.25065 0.08255900000000005 0.964551
vn 0.097314 0.09481900000000006 0.990727
vn -0.294315 0.034309000000000055 0.955092
vn 0.021235 -0.3388379999999999 0.940605
vn 0.030832 -0.14296999999999996 0.989247
vn -0.039418 0.28270500000000004 0.958397
vn -0.035264 0.3338130000000001 0.94198
vn -0.08514 -0.20821899999999993 0.97437
vn -0.010638 -0.04276399999999994 0.999029
vn -0.024643 0.3242920000000001 0.945636
g Standard_4
f 2/2/2 5/5/5 6/6/6
f 6/6/6 3/3/3 2/2/2
f 12/12/12 9/9/9 8/8/8
f 13/13/13 10/10/10 9/9/9
f 9/9/9 12/12/12 13/13/13
f 12/12/12 8/8/8 7/7/7
f 7/7/7 11/11/11 12/12/12
f 5/5/5 2/2/2 1/1/1
f 1/1/1 4/4/4 5/5/5
