v -1.909735 -1.535986 0.20473400000000008
v -1.883555 -1.478504 0.2262810000000001
v -1.92988 -1.477996 0.17812200000000009
v -1.670335 -1.573034 -0.047971999999999904
v -1.909735 -1.535986 0.20473400000000008
v -1.92988 -1.477996 0.17812200000000009
v -1.92988 -1.477996 0.17812200000000009
v -1.69048 -1.515043 -0.0745829999999999
v -1.670335 -1.573034 -0.047971999999999904
v -1.639323 1.501712 0.22261399999999992
v -1.666473 1.547451 0.23834699999999992
v -1.694195 1.499806 0.23099099999999992
v -1.724395 1.626996 -0.0354580000000001
v -1.752116 1.579352 -0.042815000000000096
v -1.694195 1.499806 0.23099099999999992
v -1.694195 1.499806 0.23099099999999992
v -1.666473 1.547451 0.23834699999999992
v -1.724395 1.626996 -0.0354580000000001
v -0.924075 -1.541581 0.16262700000000008
v -0.874329 -1.517917 0.1893710000000001
v -0.921453 -1.481527 0.17486200000000007
v -0.810392 -1.485678 -0.0911539999999999
v -0.924075 -1.541581 0.16262700000000008
v -0.921453 -1.481527 0.17486200000000007
v -0.921453 -1.481527 0.17486200000000007
v -0.807771 -1.425624 -0.07891899999999992
v -0.810392 -1.485678 -0.0911539999999999
v -2.004003 -0.655537 0.21249800000000002
v -1.961124 -0.653166 0.20228900000000002
v -1.98177 -0.616445 0.22850300000000004
v -2.049861 -0.60472 -0.06870399999999996
v -2.004003 -0.655537 0.21249800000000002
v -1.98177 -0.616445 0.22850300000000004
v -1.98177 -0.616445 0.22850300000000004
v -2.027627 -0.565628 -0.05269799999999997
v -2.049861 -0.60472 -0.06870399999999996
v -2.06317 -0.771754 0.16146600000000005
v -2.029239 -0.776709 0.17611100000000005
v -2.052079 -0.743733 0.18825700000000006
v -1.944368 -0.712496 -0.04381699999999996
v -2.06317 -0.771754 0.16146600000000005
v -2.052079 -0.743733 0.18825700000000006
v -2.052079 -0.743733 0.18825700000000006
v -1.933277 -0.684474 -0.01702699999999996
v -1.944368 -0.712496 -0.04381699999999996
v -2.013625 -0.946646 0.21414300000000006
v -1.970019 -0.947809 0.20738700000000004
v -1.992871 -0.903851 0.21008400000000005
v -2.0348 -1.044701 -0.057327999999999935
v -2.013625 -0.946646 0.21414300000000006
v -1.992871 -0.903851 0.21008400000000005
v -1.992871 -0.903851 0.21008400000000005
v -2.01313 -1.001905 -0.061386999999999935
v -2.0348 -1.044701 -0.057327999999999935
v -1.272184 -1.482214 0.2498960000000001
v -1.230664 -1.442778 0.2281980000000001
v -1.28996 -1.427325 0.2290570000000001
v -1.308458 -1.583568 -0.012525999999999904
v -1.272184 -1.482214 0.2498960000000001
v -1.28996 -1.427325 0.2290570000000001
v -1.28996 -1.427325 0.2290570000000001
v -1.326234 -1.528678 -0.03336499999999991
v -1.308458 -1.583568 -0.012525999999999904
v -1.135461 -1.545142 0.15363100000000007
v -1.084134 -1.551695 0.18638100000000007
v -1.11471 -1.498604 0.1877870000000001
v -0.981311 -1.443893 -0.06186799999999991
v -1.135461 -1.545142 0.15363100000000007
v -1.11471 -1.498604 0.1877870000000001
v -1.11471 -1.498604 0.1877870000000001
v -0.96056 -1.397354 -0.027711999999999914
v -0.981311 -1.443893 -0.06186799999999991
v -1.570009 -1.488501 0.3396000000000001
v -1.536675 -1.431019 0.3333950000000001
v -1.603343 -1.43051 0.3379260000000001
v -1.609709 -1.525548 -0.006226999999999906
v -1.570009 -1.488501 0.3396000000000001
v -1.603343 -1.43051 0.3379260000000001
v -1.603343 -1.43051 0.3379260000000001
v -1.643043 -1.467557 -0.00789999999999991
v -1.609709 -1.525548 -0.006226999999999906
v -1.946437 -1.514745 -0.03520599999999991
v -1.988838 -1.556984 0.4635370000000001
v -2.027329 -1.5182 0.46355000000000013
v -2.027329 -1.5182 0.46355000000000013
v -1.984929 -1.47596 -0.03519299999999991
v -1.946437 -1.514745 -0.03520599999999991
v -0.874329 1.543064 0.18937099999999993
v -0.924075 1.566728 0.1626269999999999
v -0.921454 1.506673 0.1748619999999999
v -0.810392 1.510824 -0.0911540000000001
v -0.807772 1.45077 -0.07891900000000009
v -0.921454 1.506673 0.1748619999999999
v -0.921454 1.506673 0.1748619999999999
v -0.924075 1.566728 0.1626269999999999
v -0.810392 1.510824 -0.0911540000000001
v -2.029239 0.801855 0.17611099999999993
v -2.06317 0.7969 0.16146599999999994
v -2.052079 0.768878 0.18825699999999995
v -1.944368 0.737642 -0.04381700000000005
v -1.933277 0.70962 -0.017027000000000046
v -2.052079 0.768878 0.18825699999999995
v -2.052079 0.768878 0.18825699999999995
v -2.06317 0.7969 0.16146599999999994
v -1.944368 0.737642 -0.04381700000000005
v -1.970019 0.972955 0.20738699999999993
v -2.013625 0.971792 0.21414299999999994
v -1.992872 0.928996 0.21008399999999994
v -2.0348 1.069847 -0.05732800000000006
v -2.014046 1.027051 -0.06138700000000006
v -1.992872 0.928996 0.21008399999999994
v -1.992872 0.928996 0.21008399999999994
v -2.013625 0.971792 0.21414299999999994
v -2.0348 1.069847 -0.05732800000000006
v -1.963205 1.496504 0.16177999999999992
v -2.016515 1.503778 0.16594199999999992
v -1.991142 1.481221 0.2134079999999999
v -2.042401 1.232912 -0.06021300000000008
v -2.017029 1.210355 -0.012747000000000074
v -1.991142 1.481221 0.2134079999999999
v -1.991142 1.481221 0.2134079999999999
v -2.016515 1.503778 0.16594199999999992
v -2.042401 1.232912 -0.06021300000000008
v -1.230664 1.467924 0.22819799999999993
v -1.272184 1.507361 0.24989599999999992
v -1.289961 1.452471 0.22905699999999993
v -1.308458 1.608714 -0.0125260000000001
v -1.326234 1.553824 -0.033365000000000096
v -1.289961 1.452471 0.22905699999999993
v -1.289961 1.452471 0.22905699999999993
v -1.272184 1.507361 0.24989599999999992
v -1.308458 1.608714 -0.0125260000000001
v -1.084135 1.576841 0.1863809999999999
v -1.135461 1.570289 0.1536309999999999
v -1.11471 1.52375 0.18778699999999993
v -0.981311 1.469039 -0.06186800000000009
v -0.960561 1.4225 -0.027712000000000087
v -1.11471 1.52375 0.18778699999999993
v -1.11471 1.52375 0.18778699999999993
v -1.135461 1.570289 0.1536309999999999
v -0.981311 1.469039 -0.06186800000000009
v -1.614959 1.456164 0.2640539999999999
v -1.647792 1.513647 0.2555899999999999
v -1.677296 1.455656 0.23998499999999992
v -1.53762 1.550694 -0.0746130000000001
v -1.567123 1.492703 -0.0902180000000001
v -1.677296 1.455656 0.23998499999999992
v -1.677296 1.455656 0.23998499999999992
v -1.647792 1.513647 0.2555899999999999
v -1.53762 1.550694 -0.0746130000000001
v -1.946438 1.539891 -0.0352060000000001
v -1.984929 1.501106 -0.03519300000000009
v -2.027329 1.543345 0.4635499999999999
v -2.027329 1.543345 0.4635499999999999
v -1.988838 1.58213 0.46353699999999987
v -1.946438 1.539891 -0.0352060000000001
v 0.835549 -1.517917 0.1893710000000001
v 0.885295 -1.541581 0.16262700000000008
v 0.882674 -1.481527 0.17486200000000007
v 0.771613 -1.485678 -0.0911539999999999
v 0.768992 -1.425623 -0.07891899999999992
v 0.882674 -1.481527 0.17486200000000007
v 0.882674 -1.481527 0.17486200000000007
v 0.885295 -1.541581 0.16262700000000008
v 0.771613 -1.485678 -0.0911539999999999
v 1.93882 -0.800321 0.14698700000000006
v 1.971632 -0.799446 0.15207100000000007
v 1.956015 -0.767243 0.14901600000000007
v 1.987565 -0.873229 -0.052203999999999945
v 1.971949 -0.841027 -0.055258999999999954
v 1.956015 -0.767243 0.14901600000000007
v 1.956015 -0.767243 0.14901600000000007
v 1.971632 -0.799446 0.15207100000000007
v 1.987565 -0.873229 -0.052203999999999945
v 1.990459 -0.776709 0.17611100000000005
v 2.02439 -0.771754 0.16146600000000005
v 2.0133 -0.743732 0.18825700000000006
v 1.905588 -0.712495 -0.04381699999999996
v 1.894497 -0.684474 -0.01702699999999996
v 2.0133 -0.743732 0.18825700000000006
v 2.0133 -0.743732 0.18825700000000006
v 2.02439 -0.771754 0.16146600000000005
v 1.905588 -0.712495 -0.04381699999999996
v 1.93124 -0.947809 0.20738700000000004
v 1.974846 -0.946645 0.21414300000000006
v 1.954092 -0.90385 0.21008400000000005
v 1.996021 -1.0447 -0.057327999999999935
v 1.975267 -1.001905 -0.061386999999999935
v 1.954092 -0.90385 0.21008400000000005
v 1.954092 -0.90385 0.21008400000000005
v 1.974846 -0.946645 0.21414300000000006
v 1.996021 -1.0447 -0.057327999999999935
v 1.924425 -1.471357 0.1617800000000001
v 1.977735 -1.478632 0.1659420000000001
v 1.952363 -1.456075 0.21340800000000007
v 2.003622 -1.207766 -0.060212999999999926
v 1.978249 -1.185209 -0.012746999999999927
v 1.952363 -1.456075 0.21340800000000007
v 1.952363 -1.456075 0.21340800000000007
v 1.977735 -1.478632 0.1659420000000001
v 2.003622 -1.207766 -0.060212999999999926
v 1.191885 -1.442778 0.2281980000000001
v 1.233405 -1.482214 0.2498960000000001
v 1.251181 -1.427325 0.2290570000000001
v 1.269679 -1.583567 -0.012525999999999904
v 1.287455 -1.528678 -0.03336499999999991
v 1.251181 -1.427325 0.2290570000000001
v 1.251181 -1.427325 0.2290570000000001
v 1.233405 -1.482214 0.2498960000000001
v 1.269679 -1.583567 -0.012525999999999904
v 1.045355 -1.551695 0.18638100000000007
v 1.096682 -1.545142 0.15363100000000007
v 1.075931 -1.498603 0.1877870000000001
v 0.942532 -1.443893 -0.06186799999999991
v 0.921781 -1.397354 -0.027711999999999914
v 1.075931 -1.498603 0.1877870000000001
v 1.075931 -1.498603 0.1877870000000001
v 1.096682 -1.545142 0.15363100000000007
v 0.942532 -1.443893 -0.06186799999999991
v 1.376924 -1.431018 0.3333950000000001
v 1.410258 -1.4885 0.3396000000000001
v 1.443592 -1.43051 0.3379260000000001
v 1.449958 -1.525548 -0.006226999999999906
v 1.483292 -1.467557 -0.00789999999999991
v 1.443592 -1.43051 0.3379260000000001
v 1.443592 -1.43051 0.3379260000000001
v 1.410258 -1.4885 0.3396000000000001
v 1.449958 -1.525548 -0.006226999999999906
v 1.907658 -1.514744 -0.03520599999999991
v 1.946149 -1.47596 -0.03519299999999991
v 1.98855 -1.518199 0.46355000000000013
v 1.98855 -1.518199 0.46355000000000013
v 1.950059 -1.556984 0.4635370000000001
v 1.907658 -1.514744 -0.03520599999999991
v 0.823142 1.547105 0.1897919999999999
v 0.767052 1.524951 0.17915699999999993
v 0.813977 1.486484 0.18775299999999992
v 0.875581 1.539473 -0.0888580000000001
v 0.823142 1.547105 0.1897919999999999
v 0.813977 1.486484 0.18775299999999992
v 0.813977 1.486484 0.18775299999999992
v 0.866416 1.478851 -0.0908960000000001
v 0.875581 1.539473 -0.0888580000000001
v 1.965223 0.684559 0.17057199999999995
v 1.922344 0.68761 0.16054499999999994
v 1.94299 0.642702 0.16488699999999998
v 2.011081 0.78115 -0.09836500000000004
v 1.965223 0.684559 0.17057199999999995
v 1.94299 0.642702 0.16488699999999998
v 1.94299 0.642702 0.16488699999999998
v 1.988847 0.739294 -0.10405000000000005
v 2.011081 0.78115 -0.09836500000000004
v 1.971632 -0.672477 0.15207100000000004
v 1.938819 -0.671602 0.14698700000000003
v 1.956015 -0.70468 0.14901600000000007
v 1.987565 -0.598694 -0.052203999999999966
v 1.971632 -0.672477 0.15207100000000004
v 1.956015 -0.70468 0.14901600000000007
v 1.956015 -0.70468 0.14901600000000007
v 1.971949 -0.630896 -0.05525899999999996
v 1.987565 -0.598694 -0.052203999999999966
v 1.965223 0.658513 0.21249799999999996
v 1.922344 0.656142 0.20228899999999997
v 1.94299 0.619421 0.22850299999999998
v 2.011081 0.607695 -0.06870400000000004
v 1.965223 0.658513 0.21249799999999996
v 1.94299 0.619421 0.22850299999999998
v 1.94299 0.619421 0.22850299999999998
v 1.988847 0.568603 -0.052698000000000036
v 2.011081 0.607695 -0.06870400000000004
v 1.974845 0.971792 0.21414299999999994
v 1.931239 0.972956 0.20738699999999993
v 1.954091 0.928997 0.21008399999999994
v 1.99602 1.069847 -0.05732800000000006
v 1.974845 0.971792 0.21414299999999994
v 1.954091 0.928997 0.21008399999999994
v 1.954091 0.928997 0.21008399999999994
v 1.975266 1.027052 -0.06138700000000006
v 1.99602 1.069847 -0.05732800000000006
v 1.977734 1.503779 0.16594199999999992
v 1.924425 1.496504 0.16177999999999992
v 1.952362 1.481222 0.2134079999999999
v 2.003621 1.232913 -0.06021300000000008
v 1.977734 1.503779 0.16594199999999992
v 1.952362 1.481222 0.2134079999999999
v 1.952362 1.481222 0.2134079999999999
v 1.978249 1.210356 -0.012747000000000074
v 2.003621 1.232913 -0.06021300000000008
v 1.402913 1.507361 0.19593699999999992
v 1.356456 1.467925 0.2019779999999999
v 1.405522 1.452471 0.1686709999999999
v 1.282108 1.608714 -0.039832000000000096
v 1.402913 1.507361 0.19593699999999992
v 1.405522 1.452471 0.1686709999999999
v 1.405522 1.452471 0.1686709999999999
v 1.284716 1.553825 -0.0670980000000001
v 1.282108 1.608714 -0.039832000000000096
v 1.061649 1.561881 0.1881899999999999
v 1.00129 1.567712 0.19671999999999992
v 1.028407 1.513585 0.20623499999999992
v 1.013015 1.483717 -0.0800990000000001
v 1.061649 1.561881 0.1881899999999999
v 1.028407 1.513585 0.20623499999999992
v 1.028407 1.513585 0.20623499999999992
v 0.979774 1.435421 -0.06205300000000009
v 1.013015 1.483717 -0.0800990000000001
v 1.410258 1.513647 0.3395999999999999
v 1.376924 1.456165 0.3333949999999999
v 1.443592 1.455657 0.3379259999999999
v 1.449958 1.550694 -0.0062270000000000944
v 1.410258 1.513647 0.3395999999999999
v 1.443592 1.455657 0.3379259999999999
v 1.443592 1.455657 0.3379259999999999
v 1.483292 1.492704 -0.007900000000000093
v 1.449958 1.550694 -0.0062270000000000944
v 1.907658 1.539891 -0.0352060000000001
v 1.950058 1.58213 0.46353699999999987
v 1.988549 1.543346 0.4635499999999999
v 1.988549 1.543346 0.4635499999999999
v 1.946149 1.501107 -0.03519300000000009
v 1.907658 1.539891 -0.0352060000000001
v -1.907947 -1.476547 -0.02848299999999991
v -1.950347 -1.518787 0.4702590000000001
v -1.988838 -1.556984 0.4635370000000001
v -1.946437 -1.514745 -0.03520599999999991
v -1.907947 -1.476547 -0.02848299999999991
v -1.907947 1.501693 -0.028483000000000095
v -1.946438 1.539891 -0.0352060000000001
v -1.988838 1.58213 0.46353699999999987
v -1.950347 1.543932 0.47025899999999987
v -1.907947 1.501693 -0.028483000000000095
v 1.869167 -1.476547 -0.02848299999999991
v 1.907658 -1.514744 -0.03520599999999991
v 1.950059 -1.556984 0.4635370000000001
v 1.911568 -1.518786 0.4702590000000001
v 1.869167 -1.476547 -0.02848299999999991
v 1.869167 1.501694 -0.028483000000000095
v 1.911567 1.543933 0.47025899999999987
v 1.950058 1.58213 0.46353699999999987
v 1.907658 1.539891 -0.0352060000000001
v 1.869167 1.501694 -0.028483000000000095
v 1.925038 -1.520561 0.18068900000000007
v 1.925173 -1.519315 0.26014700000000013
v 1.424718 -1.47609 0.2607220000000001
v 1.424718 -1.47609 0.2607220000000001
v 1.424584 -1.477337 0.1812650000000001
v 1.926406 -1.504922 0.17434600000000008
v 1.425952 -1.461698 0.17492100000000008
v -1.644155 -1.515551 -0.026423999999999906
v -1.883555 -1.478504 0.2262810000000001
v -1.909735 -1.535986 0.20473400000000008
v -1.670335 -1.573034 -0.047971999999999904
v -1.69048 -1.515043 -0.0745829999999999
v -1.92988 -1.477996 0.17812200000000009
v -1.883555 -1.478504 0.2262810000000001
v -1.644155 -1.515551 -0.026423999999999906
v -1.697245 1.581258 -0.0511920000000001
v -1.724395 1.626996 -0.0354580000000001
v -1.666473 1.547451 0.23834699999999992
v -1.639323 1.501712 0.22261399999999992
v -1.752116 1.579352 -0.042815000000000096
v -1.697245 1.581258 -0.0511920000000001
v -1.639323 1.501712 0.22261399999999992
v -1.694195 1.499806 0.23099099999999992
v -0.760646 -1.462014 -0.06440999999999991
v -0.874329 -1.517917 0.1893710000000001
v -0.924075 -1.541581 0.16262700000000008
v -0.810392 -1.485678 -0.0911539999999999
v -0.807771 -1.425624 -0.07891899999999992
v -0.921453 -1.481527 0.17486200000000007
v -0.874329 -1.517917 0.1893710000000001
v -0.760646 -1.462014 -0.06440999999999991
v -2.006982 -0.602349 -0.07891199999999995
v -1.961124 -0.653166 0.20228900000000002
v -2.004003 -0.655537 0.21249800000000002
v -2.049861 -0.60472 -0.06870399999999996
v -2.027627 -0.565628 -0.05269799999999997
v -1.98177 -0.616445 0.22850300000000004
v -1.961124 -0.653166 0.20228900000000002
v -2.006982 -0.602349 -0.07891199999999995
v -1.910437 -0.717451 -0.029172999999999956
v -2.029239 -0.776709 0.17611100000000005
v -2.06317 -0.771754 0.16146600000000005
v -1.944368 -0.712496 -0.04381699999999996
v -1.933277 -0.684474 -0.01702699999999996
v -2.052079 -0.743733 0.18825700000000006
v -2.029239 -0.776709 0.17611100000000005
v -1.910437 -0.717451 -0.029172999999999956
v -1.991194 -1.045864 -0.06408399999999993
v -1.970019 -0.947809 0.20738700000000004
v -2.013625 -0.946646 0.21414300000000006
v -2.0348 -1.044701 -0.057327999999999935
v -2.01313 -1.001905 -0.061386999999999935
v -1.992871 -0.903851 0.21008400000000005
v -1.970019 -0.947809 0.20738700000000004
v -1.991194 -1.045864 -0.06408399999999993
v -1.266938 -1.544132 -0.0342239999999999
v -1.230664 -1.442778 0.2281980000000001
v -1.272184 -1.482214 0.2498960000000001
v -1.308458 -1.583568 -0.012525999999999904
v -1.326234 -1.528678 -0.03336499999999991
v -1.28996 -1.427325 0.2290570000000001
v -1.230664 -1.442778 0.2281980000000001
v -1.266938 -1.544132 -0.0342239999999999
v -0.929984 -1.450446 -0.02911899999999991
v -1.084134 -1.551695 0.18638100000000007
v -1.135461 -1.545142 0.15363100000000007
v -0.981311 -1.443893 -0.06186799999999991
v -0.96056 -1.397354 -0.027711999999999914
v -1.11471 -1.498604 0.1877870000000001
v -1.084134 -1.551695 0.18638100000000007
v -0.929984 -1.450446 -0.02911899999999991
v -1.576375 -1.468066 -0.01243199999999991
v -1.536675 -1.431019 0.3333950000000001
v -1.570009 -1.488501 0.3396000000000001
v -1.609709 -1.525548 -0.006226999999999906
v -1.643043 -1.467557 -0.00789999999999991
v -1.603343 -1.43051 0.3379260000000001
v -1.536675 -1.431019 0.3333950000000001
v -1.576375 -1.468066 -0.01243199999999991
v -1.988838 -1.480002 0.47027200000000013
v -2.027329 -1.5182 0.46355000000000013
v -1.988838 -1.556984 0.4635370000000001
v -1.950347 -1.518787 0.4702590000000001
v -1.946437 -1.437763 -0.028470999999999913
v -1.988838 -1.480002 0.47027200000000013
v -1.950347 -1.518787 0.4702590000000001
v -1.907947 -1.476547 -0.02848299999999991
v -1.984929 -1.47596 -0.03519299999999991
v -2.027329 -1.5182 0.46355000000000013
v -1.988838 -1.480002 0.47027200000000013
v -1.946437 -1.437763 -0.028470999999999913
v -0.760646 1.48716 -0.06441000000000009
v -0.810392 1.510824 -0.0911540000000001
v -0.924075 1.566728 0.1626269999999999
v -0.874329 1.543064 0.18937099999999993
v -0.807772 1.45077 -0.07891900000000009
v -0.760646 1.48716 -0.06441000000000009
v -0.874329 1.543064 0.18937099999999993
v -0.921454 1.506673 0.1748619999999999
v -1.910437 0.742597 -0.029173000000000046
v -1.944368 0.737642 -0.04381700000000005
v -2.06317 0.7969 0.16146599999999994
v -2.029239 0.801855 0.17611099999999993
v -1.933277 0.70962 -0.017027000000000046
v -1.910437 0.742597 -0.029173000000000046
v -2.029239 0.801855 0.17611099999999993
v -2.052079 0.768878 0.18825699999999995
v -1.991194 1.07101 -0.06408400000000007
v -2.0348 1.069847 -0.05732800000000006
v -2.013625 0.971792 0.21414299999999994
v -1.970019 0.972955 0.20738699999999993
v -2.014046 1.027051 -0.06138700000000006
v -1.991194 1.07101 -0.06408400000000007
v -1.970019 0.972955 0.20738699999999993
v -1.992872 0.928996 0.21008399999999994
v -1.989092 1.225638 -0.06437500000000007
v -2.042401 1.232912 -0.06021300000000008
v -2.016515 1.503778 0.16594199999999992
v -1.963205 1.496504 0.16177999999999992
v -2.017029 1.210355 -0.012747000000000074
v -1.989092 1.225638 -0.06437500000000007
v -1.963205 1.496504 0.16177999999999992
v -1.991142 1.481221 0.2134079999999999
v -1.266938 1.569278 -0.034224000000000095
v -1.308458 1.608714 -0.0125260000000001
v -1.272184 1.507361 0.24989599999999992
v -1.230664 1.467924 0.22819799999999993
v -1.326234 1.553824 -0.033365000000000096
v -1.266938 1.569278 -0.034224000000000095
v -1.230664 1.467924 0.22819799999999993
v -1.289961 1.452471 0.22905699999999993
v -0.929985 1.475592 -0.02911900000000009
v -0.981311 1.469039 -0.06186800000000009
v -1.135461 1.570289 0.1536309999999999
v -1.084135 1.576841 0.1863809999999999
v -0.960561 1.4225 -0.027712000000000087
v -0.929985 1.475592 -0.02911900000000009
v -1.084135 1.576841 0.1863809999999999
v -1.11471 1.52375 0.18778699999999993
v -1.504786 1.493212 -0.0661490000000001
v -1.53762 1.550694 -0.0746130000000001
v -1.647792 1.513647 0.2555899999999999
v -1.614959 1.456164 0.2640539999999999
v -1.567123 1.492703 -0.0902180000000001
v -1.504786 1.493212 -0.0661490000000001
v -1.614959 1.456164 0.2640539999999999
v -1.677296 1.455656 0.23998499999999992
v -1.988838 1.505148 0.4702719999999999
v -1.950347 1.543932 0.47025899999999987
v -1.988838 1.58213 0.46353699999999987
v -2.027329 1.543345 0.4635499999999999
v -1.946438 1.462909 -0.02847100000000009
v -1.907947 1.501693 -0.028483000000000095
v -1.950347 1.543932 0.47025899999999987
v -1.988838 1.505148 0.4702719999999999
v -1.984929 1.501106 -0.03519300000000009
v -1.946438 1.462909 -0.02847100000000009
v -1.988838 1.505148 0.4702719999999999
v -2.027329 1.543345 0.4635499999999999
v 0.721866 -1.462014 -0.06440999999999991
v 0.771613 -1.485678 -0.0911539999999999
v 0.885295 -1.541581 0.16262700000000008
v 0.835549 -1.517917 0.1893710000000001
v 0.768992 -1.425623 -0.07891899999999992
v 0.721866 -1.462014 -0.06440999999999991
v 0.835549 -1.517917 0.1893710000000001
v 0.882674 -1.481527 0.17486200000000007
v 1.954753 -0.874105 -0.05728799999999994
v 1.987565 -0.873229 -0.052203999999999945
v 1.971632 -0.799446 0.15207100000000007
v 1.93882 -0.800321 0.14698700000000006
v 1.971949 -0.841027 -0.055258999999999954
v 1.954753 -0.874105 -0.05728799999999994
v 1.93882 -0.800321 0.14698700000000006
v 1.956015 -0.767243 0.14901600000000007
v 1.871657 -0.717451 -0.029172999999999956
v 1.905588 -0.712495 -0.04381699999999996
v 2.02439 -0.771754 0.16146600000000005
v 1.990459 -0.776709 0.17611100000000005
v 1.894497 -0.684474 -0.01702699999999996
v 1.871657 -0.717451 -0.029172999999999956
v 1.990459 -0.776709 0.17611100000000005
v 2.0133 -0.743732 0.18825700000000006
v 1.952415 -1.045864 -0.06408399999999993
v 1.996021 -1.0447 -0.057327999999999935
v 1.974846 -0.946645 0.21414300000000006
v 1.93124 -0.947809 0.20738700000000004
v 1.975267 -1.001905 -0.061386999999999935
v 1.952415 -1.045864 -0.06408399999999993
v 1.93124 -0.947809 0.20738700000000004
v 1.954092 -0.90385 0.21008400000000005
v 1.950312 -1.200491 -0.06437499999999993
v 2.003622 -1.207766 -0.060212999999999926
v 1.977735 -1.478632 0.1659420000000001
v 1.924425 -1.471357 0.1617800000000001
v 1.978249 -1.185209 -0.012746999999999927
v 1.950312 -1.200491 -0.06437499999999993
v 1.924425 -1.471357 0.1617800000000001
v 1.952363 -1.456075 0.21340800000000007
v 1.228158 -1.544131 -0.0342239999999999
v 1.269679 -1.583567 -0.012525999999999904
v 1.233405 -1.482214 0.2498960000000001
v 1.191885 -1.442778 0.2281980000000001
v 1.287455 -1.528678 -0.03336499999999991
v 1.228158 -1.544131 -0.0342239999999999
v 1.191885 -1.442778 0.2281980000000001
v 1.251181 -1.427325 0.2290570000000001
v 0.891205 -1.450445 -0.02911899999999991
v 0.942532 -1.443893 -0.06186799999999991
v 1.096682 -1.545142 0.15363100000000007
v 1.045355 -1.551695 0.18638100000000007
v 0.921781 -1.397354 -0.027711999999999914
v 0.891205 -1.450445 -0.02911899999999991
v 1.045355 -1.551695 0.18638100000000007
v 1.075931 -1.498603 0.1877870000000001
v 1.416624 -1.468065 -0.01243199999999991
v 1.449958 -1.525548 -0.006226999999999906
v 1.410258 -1.4885 0.3396000000000001
v 1.376924 -1.431018 0.3333950000000001
v 1.483292 -1.467557 -0.00789999999999991
v 1.416624 -1.468065 -0.01243199999999991
v 1.376924 -1.431018 0.3333950000000001
v 1.443592 -1.43051 0.3379260000000001
v 1.950059 -1.480002 0.47027200000000013
v 1.911568 -1.518786 0.4702590000000001
v 1.950059 -1.556984 0.4635370000000001
v 1.98855 -1.518199 0.46355000000000013
v 1.907658 -1.437762 -0.028470999999999913
v 1.869167 -1.476547 -0.02848299999999991
v 1.911568 -1.518786 0.4702590000000001
v 1.950059 -1.480002 0.47027200000000013
v 1.946149 -1.47596 -0.03519299999999991
v 1.907658 -1.437762 -0.028470999999999913
v 1.950059 -1.480002 0.47027200000000013
v 1.98855 -1.518199 0.46355000000000013
v 0.819492 1.517319 -0.0994920000000001
v 0.767052 1.524951 0.17915699999999993
v 0.823142 1.547105 0.1897919999999999
v 0.875581 1.539473 -0.0888580000000001
v 0.866416 1.478851 -0.0908960000000001
v 0.813977 1.486484 0.18775299999999992
v 0.767052 1.524951 0.17915699999999993
v 0.819492 1.517319 -0.0994920000000001
v 1.968202 0.784202 -0.10839100000000004
v 1.922344 0.68761 0.16054499999999994
v 1.965223 0.684559 0.17057199999999995
v 2.011081 0.78115 -0.09836500000000004
v 1.988847 0.739294 -0.10405000000000005
v 1.94299 0.642702 0.16488699999999998
v 1.922344 0.68761 0.16054499999999994
v 1.968202 0.784202 -0.10839100000000004
v 1.954753 -0.597818 -0.057287999999999964
v 1.938819 -0.671602 0.14698700000000003
v 1.971632 -0.672477 0.15207100000000004
v 1.987565 -0.598694 -0.052203999999999966
v 1.971949 -0.630896 -0.05525899999999996
v 1.956015 -0.70468 0.14901600000000007
v 1.938819 -0.671602 0.14698700000000003
v 1.954753 -0.597818 -0.057287999999999964
v 1.968202 0.605325 -0.07891200000000004
v 1.922344 0.656142 0.20228899999999997
v 1.965223 0.658513 0.21249799999999996
v 2.011081 0.607695 -0.06870400000000004
v 1.988847 0.568603 -0.052698000000000036
v 1.94299 0.619421 0.22850299999999998
v 1.922344 0.656142 0.20228899999999997
v 1.968202 0.605325 -0.07891200000000004
v 1.952414 1.071011 -0.06408400000000007
v 1.931239 0.972956 0.20738699999999993
v 1.974845 0.971792 0.21414299999999994
v 1.99602 1.069847 -0.05732800000000006
v 1.975266 1.027052 -0.06138700000000006
v 1.954091 0.928997 0.21008399999999994
v 1.931239 0.972956 0.20738699999999993
v 1.952414 1.071011 -0.06408400000000007
v 1.950312 1.225638 -0.06437500000000007
v 1.924425 1.496504 0.16177999999999992
v 1.977734 1.503779 0.16594199999999992
v 2.003621 1.232913 -0.06021300000000008
v 1.978249 1.210356 -0.012747000000000074
v 1.952362 1.481222 0.2134079999999999
v 1.924425 1.496504 0.16177999999999992
v 1.950312 1.225638 -0.06437500000000007
v 1.235651 1.569278 -0.0337910000000001
v 1.356456 1.467925 0.2019779999999999
v 1.402913 1.507361 0.19593699999999992
v 1.282108 1.608714 -0.039832000000000096
v 1.284716 1.553825 -0.0670980000000001
v 1.405522 1.452471 0.1686709999999999
v 1.356456 1.467925 0.2019779999999999
v 1.235651 1.569278 -0.0337910000000001
v 0.952657 1.489548 -0.0715680000000001
v 1.00129 1.567712 0.19671999999999992
v 1.061649 1.561881 0.1881899999999999
v 1.013015 1.483717 -0.0800990000000001
v 0.979774 1.435421 -0.06205300000000009
v 1.028407 1.513585 0.20623499999999992
v 1.00129 1.567712 0.19671999999999992
v 0.952657 1.489548 -0.0715680000000001
v 1.416623 1.493212 -0.012432000000000092
v 1.376924 1.456165 0.3333949999999999
v 1.410258 1.513647 0.3395999999999999
v 1.449958 1.550694 -0.0062270000000000944
v 1.483292 1.492704 -0.007900000000000093
v 1.443592 1.455657 0.3379259999999999
v 1.376924 1.456165 0.3333949999999999
v 1.416623 1.493212 -0.012432000000000092
v 1.950058 1.505149 0.4702719999999999
v 1.988549 1.543346 0.4635499999999999
v 1.950058 1.58213 0.46353699999999987
v 1.911567 1.543933 0.47025899999999987
v 1.907658 1.462909 -0.02847100000000009
v 1.950058 1.505149 0.4702719999999999
v 1.911567 1.543933 0.47025899999999987
v 1.869167 1.501694 -0.028483000000000095
v 1.946149 1.501107 -0.03519300000000009
v 1.988549 1.543346 0.4635499999999999
v 1.950058 1.505149 0.4702719999999999
v 1.907658 1.462909 -0.02847100000000009
v -1.977665 -1.497499 0.3229700000000001
v -1.983656 -1.474229 0.10304300000000009
v -1.986446 -1.224708 0.013410000000000075
v -1.995011 -1.210361 0.2178980000000001
v -2.006219 -0.993698 -0.0007779999999999392
v -1.978013 -0.950132 0.18350000000000005
v 1.944522 1.522238 0.32296999999999987
v 1.921863 1.514242 0.1030429999999999
v 1.666264 1.506295 0.0760319999999999
v 1.652718 1.496513 0.2805199999999999
v 1.436986 1.499166 0.09394899999999991
v 1.424228 1.47637 0.28689399999999987
v 1.426087 -1.460452 0.2543780000000001
v 1.424718 -1.47609 0.2607220000000001
v 1.925173 -1.519315 0.26014700000000013
v 1.926541 -1.503676 0.25380200000000014
v 1.425952 -1.461698 0.17492100000000008
v 1.926406 -1.504922 0.17434600000000008
v -1.986446 -1.224708 0.013410000000000075
v -1.983656 -1.474229 0.10304300000000009
v -1.977665 -1.497499 0.3229700000000001
v -1.995011 -1.210361 0.2178980000000001
v -2.006219 -0.993698 -0.0007779999999999392
v -1.978013 -0.950132 0.18350000000000005
v 1.666264 1.506295 0.0760319999999999
v 1.921863 1.514242 0.1030429999999999
v 1.944522 1.522238 0.32296999999999987
v 1.652718 1.496513 0.2805199999999999
v 1.436986 1.499166 0.09394899999999991
v 1.424228 1.47637 0.28689399999999987
vt 0.692826 0.933688
vt 0.646048 0.933688
vt 0.669437 0.891185
vt 0.751915 0.996485
vt 0.751915 0.800556
vt 0.798828 0.800556
vt 0.798828 0.800556
vt 0.798828 0.996485
vt 0.751915 0.996485
vt 0.646048 0.933688
vt 0.692826 0.933688
vt 0.669437 0.891185
vt 0.751915 0.996485
vt 0.798828 0.996485
vt 0.798828 0.800556
vt 0.798828 0.800556
vt 0.751915 0.800556
vt 0.751915 0.996485
vt 0.693780 0.934379
vt 0.644993 0.934379
vt 0.669386 0.891745
vt 0.751789 0.997154
vt 0.751789 0.801535
vt 0.798548 0.801535
vt 0.798548 0.801535
vt 0.798548 0.997154
vt 0.751789 0.997154
vt 0.693780 0.934379
vt 0.644993 0.934379
vt 0.669386 0.891745
vt 0.751789 0.997154
vt 0.751789 0.801535
vt 0.798548 0.801535
vt 0.798548 0.801535
vt 0.798548 0.997154
vt 0.751789 0.997154
vt 0.693780 0.934379
vt 0.644993 0.934379
vt 0.669386 0.891745
vt 0.751789 0.997154
vt 0.751789 0.801535
vt 0.798548 0.801535
vt 0.798548 0.801535
vt 0.798548 0.997154
vt 0.751789 0.997154
vt 0.693780 0.934379
vt 0.644993 0.934379
vt 0.669386 0.891745
vt 0.751789 0.997154
vt 0.751789 0.801535
vt 0.798548 0.801535
vt 0.798548 0.801535
vt 0.798548 0.997154
vt 0.751789 0.997154
vt 0.693780 0.934379
vt 0.644993 0.934379
vt 0.669386 0.891745
vt 0.751789 0.997154
vt 0.751789 0.801535
vt 0.798548 0.801535
vt 0.798548 0.801535
vt 0.798548 0.997154
vt 0.751789 0.997154
vt 0.693780 0.934379
vt 0.644993 0.934379
vt 0.669386 0.891745
vt 0.751789 0.997154
vt 0.751789 0.801535
vt 0.798548 0.801535
vt 0.798548 0.801535
vt 0.798548 0.997154
vt 0.751789 0.997154
vt 0.692826 0.933688
vt 0.646048 0.933688
vt 0.669437 0.891185
vt 0.751915 0.996485
vt 0.751915 0.800556
vt 0.798828 0.800556
vt 0.798828 0.800556
vt 0.798828 0.996485
vt 0.751915 0.996485
vt 0.923697 0.997122
vt 0.923697 0.800577
vt 0.959226 0.800577
vt 0.959226 0.800577
vt 0.959226 0.997122
vt 0.923697 0.997122
vt 0.644993 0.934379
vt 0.693780 0.934379
vt 0.669386 0.891745
vt 0.751789 0.997154
vt 0.798548 0.997154
vt 0.798548 0.801535
vt 0.798548 0.801535
vt 0.751789 0.801535
vt 0.751789 0.997154
vt 0.644993 0.934379
vt 0.693780 0.934379
vt 0.669386 0.891745
vt 0.751789 0.997154
vt 0.798548 0.997154
vt 0.798548 0.801535
vt 0.798548 0.801535
vt 0.751789 0.801535
vt 0.751789 0.997154
vt 0.644993 0.934379
vt 0.693780 0.934379
vt 0.669386 0.891745
vt 0.751789 0.997154
vt 0.798548 0.997154
vt 0.798548 0.801535
vt 0.798548 0.801535
vt 0.751789 0.801535
vt 0.751789 0.997154
vt 0.644993 0.934379
vt 0.693780 0.934379
vt 0.669386 0.891745
vt 0.751789 0.997154
vt 0.798548 0.997154
vt 0.798548 0.801535
vt 0.798548 0.801535
vt 0.751789 0.801535
vt 0.751789 0.997154
vt 0.644993 0.934379
vt 0.693780 0.934379
vt 0.669386 0.891745
vt 0.751789 0.997154
vt 0.798548 0.997154
vt 0.798548 0.801535
vt 0.798548 0.801535
vt 0.751789 0.801535
vt 0.751789 0.997154
vt 0.644993 0.934379
vt 0.693780 0.934379
vt 0.669386 0.891745
vt 0.751789 0.997154
vt 0.798548 0.997154
vt 0.798548 0.801535
vt 0.798548 0.801535
vt 0.751789 0.801535
vt 0.751789 0.997154
vt 0.646048 0.933688
vt 0.692826 0.933688
vt 0.669437 0.891185
vt 0.751915 0.996485
vt 0.798828 0.996485
vt 0.798828 0.800556
vt 0.798828 0.800556
vt 0.751915 0.800556
vt 0.751915 0.996485
vt 0.923697 0.997122
vt 0.959226 0.997122
vt 0.959226 0.800577
vt 0.959226 0.800577
vt 0.923697 0.800577
vt 0.923697 0.997122
vt 0.644993 0.934379
vt 0.693780 0.934379
vt 0.669386 0.891745
vt 0.751789 0.997154
vt 0.798548 0.997154
vt 0.798548 0.801535
vt 0.798548 0.801535
vt 0.751789 0.801535
vt 0.751789 0.997154
vt 0.644993 0.934379
vt 0.693780 0.934379
vt 0.669386 0.891745
vt 0.751789 0.997154
vt 0.798548 0.997154
vt 0.798548 0.801535
vt 0.798548 0.801535
vt 0.751789 0.801535
vt 0.751789 0.997154
vt 0.644993 0.934379
vt 0.693780 0.934379
vt 0.669386 0.891745
vt 0.751789 0.997154
vt 0.798548 0.997154
vt 0.798548 0.801535
vt 0.798548 0.801535
vt 0.751789 0.801535
vt 0.751789 0.997154
vt 0.644993 0.934379
vt 0.693780 0.934379
vt 0.669386 0.891745
vt 0.751789 0.997154
vt 0.798548 0.997154
vt 0.798548 0.801535
vt 0.798548 0.801535
vt 0.751789 0.801535
vt 0.751789 0.997154
vt 0.644993 0.934379
vt 0.693780 0.934379
vt 0.669386 0.891745
vt 0.751789 0.997154
vt 0.798548 0.997154
vt 0.798548 0.801535
vt 0.798548 0.801535
vt 0.751789 0.801535
vt 0.751789 0.997154
vt 0.644993 0.934379
vt 0.693780 0.934379
vt 0.669386 0.891745
vt 0.751789 0.997154
vt 0.798548 0.997154
vt 0.798548 0.801535
vt 0.798548 0.801535
vt 0.751789 0.801535
vt 0.751789 0.997154
vt 0.644993 0.934379
vt 0.693780 0.934379
vt 0.669386 0.891745
vt 0.751789 0.997154
vt 0.798548 0.997154
vt 0.798548 0.801535
vt 0.798548 0.801535
vt 0.751789 0.801535
vt 0.751789 0.997154
vt 0.646048 0.933688
vt 0.692826 0.933688
vt 0.669437 0.891185
vt 0.751915 0.996485
vt 0.798828 0.996485
vt 0.798828 0.800556
vt 0.798828 0.800556
vt 0.751915 0.800556
vt 0.751915 0.996485
vt 0.923697 0.997122
vt 0.959226 0.997122
vt 0.959226 0.800577
vt 0.959226 0.800577
vt 0.923697 0.800577
vt 0.923697 0.997122
vt 0.693780 0.934379
vt 0.644993 0.934379
vt 0.669386 0.891745
vt 0.751789 0.997154
vt 0.751789 0.801535
vt 0.798548 0.801535
vt 0.798548 0.801535
vt 0.798548 0.997154
vt 0.751789 0.997154
vt 0.693780 0.934379
vt 0.644993 0.934379
vt 0.669386 0.891745
vt 0.751789 0.997154
vt 0.751789 0.801535
vt 0.798548 0.801535
vt 0.798548 0.801535
vt 0.798548 0.997154
vt 0.751789 0.997154
vt 0.693780 0.934379
vt 0.644993 0.934379
vt 0.669386 0.891745
vt 0.751789 0.997154
vt 0.751789 0.801535
vt 0.798548 0.801535
vt 0.798548 0.801535
vt 0.798548 0.997154
vt 0.751789 0.997154
vt 0.693780 0.934379
vt 0.644993 0.934379
vt 0.669386 0.891745
vt 0.751789 0.997154
vt 0.751789 0.801535
vt 0.798548 0.801535
vt 0.798548 0.801535
vt 0.798548 0.997154
vt 0.751789 0.997154
vt 0.693780 0.934379
vt 0.644993 0.934379
vt 0.669386 0.891745
vt 0.751789 0.997154
vt 0.751789 0.801535
vt 0.798548 0.801535
vt 0.798548 0.801535
vt 0.798548 0.997154
vt 0.751789 0.997154
vt 0.693780 0.934379
vt 0.644993 0.934379
vt 0.669386 0.891745
vt 0.751789 0.997154
vt 0.751789 0.801535
vt 0.798548 0.801535
vt 0.798548 0.801535
vt 0.798548 0.997154
vt 0.751789 0.997154
vt 0.693780 0.934379
vt 0.644993 0.934379
vt 0.669386 0.891745
vt 0.751789 0.997154
vt 0.751789 0.801535
vt 0.798548 0.801535
vt 0.798548 0.801535
vt 0.798548 0.997154
vt 0.751789 0.997154
vt 0.693780 0.934379
vt 0.644993 0.934379
vt 0.669386 0.891745
vt 0.751789 0.997154
vt 0.751789 0.801535
vt 0.798548 0.801535
vt 0.798548 0.801535
vt 0.798548 0.997154
vt 0.751789 0.997154
vt 0.692826 0.933688
vt 0.646048 0.933688
vt 0.669437 0.891185
vt 0.751915 0.996485
vt 0.751915 0.800556
vt 0.798828 0.800556
vt 0.798828 0.800556
vt 0.798828 0.996485
vt 0.751915 0.996485
vt 0.923697 0.997122
vt 0.923697 0.800577
vt 0.959226 0.800577
vt 0.959226 0.800577
vt 0.959226 0.997122
vt 0.923697 0.997122
vt 0.889097 0.997122
vt 0.889097 0.800577
vt 0.923697 0.800577
vt 0.923697 0.997122
vt 0.889097 0.997122
vt 0.889097 0.997122
vt 0.923697 0.997122
vt 0.923697 0.800577
vt 0.889097 0.800577
vt 0.889097 0.997122
vt 0.889097 0.997122
vt 0.923697 0.997122
vt 0.923697 0.800577
vt 0.889097 0.800577
vt 0.889097 0.997122
vt 0.889097 0.997122
vt 0.889097 0.800577
vt 0.923697 0.800577
vt 0.923697 0.997122
vt 0.889097 0.997122
vt 0.959226 0.800577
vt 0.923697 0.800577
vt 0.923697 0.997122
vt 0.923697 0.997122
vt 0.959226 0.997122
vt 0.995683 0.800577
vt 0.995683 0.997122
vt 0.705001 0.996485
vt 0.705001 0.800556
vt 0.751915 0.800556
vt 0.751915 0.996485
vt 0.798828 0.996485
vt 0.798828 0.800556
vt 0.845742 0.800556
vt 0.845742 0.996485
vt 0.705001 0.996485
vt 0.751915 0.996485
vt 0.751915 0.800556
vt 0.705001 0.800556
vt 0.798828 0.996485
vt 0.845742 0.996485
vt 0.845742 0.800556
vt 0.798828 0.800556
vt 0.705030 0.997154
vt 0.705030 0.801535
vt 0.751789 0.801535
vt 0.751789 0.997154
vt 0.798548 0.997154
vt 0.798548 0.801535
vt 0.845307 0.801535
vt 0.845307 0.997154
vt 0.705030 0.997154
vt 0.705030 0.801535
vt 0.751789 0.801535
vt 0.751789 0.997154
vt 0.798548 0.997154
vt 0.798548 0.801535
vt 0.845307 0.801535
vt 0.845307 0.997154
vt 0.705030 0.997154
vt 0.705030 0.801535
vt 0.751789 0.801535
vt 0.751789 0.997154
vt 0.798548 0.997154
vt 0.798548 0.801535
vt 0.845307 0.801535
vt 0.845307 0.997154
vt 0.705030 0.997154
vt 0.705030 0.801535
vt 0.751789 0.801535
vt 0.751789 0.997154
vt 0.798548 0.997154
vt 0.798548 0.801535
vt 0.845307 0.801535
vt 0.845307 0.997154
vt 0.705030 0.997154
vt 0.705030 0.801535
vt 0.751789 0.801535
vt 0.751789 0.997154
vt 0.798548 0.997154
vt 0.798548 0.801535
vt 0.845307 0.801535
vt 0.845307 0.997154
vt 0.705030 0.997154
vt 0.705030 0.801535
vt 0.751789 0.801535
vt 0.751789 0.997154
vt 0.798548 0.997154
vt 0.798548 0.801535
vt 0.845307 0.801535
vt 0.845307 0.997154
vt 0.705001 0.996485
vt 0.705001 0.800556
vt 0.751915 0.800556
vt 0.751915 0.996485
vt 0.798828 0.996485
vt 0.798828 0.800556
vt 0.845742 0.800556
vt 0.845742 0.996485
vt 0.644233 0.964775
vt 0.671655 0.936951
vt 0.699077 0.964775
vt 0.671655 0.992599
vt 0.853569 0.997122
vt 0.853569 0.800577
vt 0.889097 0.800577
vt 0.889097 0.997122
vt 0.959226 0.997122
vt 0.959226 0.800577
vt 0.995683 0.800577
vt 0.995683 0.997122
vt 0.705030 0.997154
vt 0.751789 0.997154
vt 0.751789 0.801535
vt 0.705030 0.801535
vt 0.798548 0.997154
vt 0.845307 0.997154
vt 0.845307 0.801535
vt 0.798548 0.801535
vt 0.705030 0.997154
vt 0.751789 0.997154
vt 0.751789 0.801535
vt 0.705030 0.801535
vt 0.798548 0.997154
vt 0.845307 0.997154
vt 0.845307 0.801535
vt 0.798548 0.801535
vt 0.705030 0.997154
vt 0.751789 0.997154
vt 0.751789 0.801535
vt 0.705030 0.801535
vt 0.798548 0.997154
vt 0.845307 0.997154
vt 0.845307 0.801535
vt 0.798548 0.801535
vt 0.705030 0.997154
vt 0.751789 0.997154
vt 0.751789 0.801535
vt 0.705030 0.801535
vt 0.798548 0.997154
vt 0.845307 0.997154
vt 0.845307 0.801535
vt 0.798548 0.801535
vt 0.705030 0.997154
vt 0.751789 0.997154
vt 0.751789 0.801535
vt 0.705030 0.801535
vt 0.798548 0.997154
vt 0.845307 0.997154
vt 0.845307 0.801535
vt 0.798548 0.801535
vt 0.705030 0.997154
vt 0.751789 0.997154
vt 0.751789 0.801535
vt 0.705030 0.801535
vt 0.798548 0.997154
vt 0.845307 0.997154
vt 0.845307 0.801535
vt 0.798548 0.801535
vt 0.705001 0.996485
vt 0.751915 0.996485
vt 0.751915 0.800556
vt 0.705001 0.800556
vt 0.798828 0.996485
vt 0.845742 0.996485
vt 0.845742 0.800556
vt 0.798828 0.800556
vt 0.644233 0.964775
vt 0.671655 0.992599
vt 0.699077 0.964775
vt 0.671655 0.936951
vt 0.853569 0.997122
vt 0.889097 0.997122
vt 0.889097 0.800577
vt 0.853569 0.800577
vt 0.959226 0.997122
vt 0.995683 0.997122
vt 0.995683 0.800577
vt 0.959226 0.800577
vt 0.705030 0.997154
vt 0.751789 0.997154
vt 0.751789 0.801535
vt 0.705030 0.801535
vt 0.798548 0.997154
vt 0.845307 0.997154
vt 0.845307 0.801535
vt 0.798548 0.801535
vt 0.705030 0.997154
vt 0.751789 0.997154
vt 0.751789 0.801535
vt 0.705030 0.801535
vt 0.798548 0.997154
vt 0.845307 0.997154
vt 0.845307 0.801535
vt 0.798548 0.801535
vt 0.705030 0.997154
vt 0.751789 0.997154
vt 0.751789 0.801535
vt 0.705030 0.801535
vt 0.798548 0.997154
vt 0.845307 0.997154
vt 0.845307 0.801535
vt 0.798548 0.801535
vt 0.705030 0.997154
vt 0.751789 0.997154
vt 0.751789 0.801535
vt 0.705030 0.801535
vt 0.798548 0.997154
vt 0.845307 0.997154
vt 0.845307 0.801535
vt 0.798548 0.801535
vt 0.705030 0.997154
vt 0.751789 0.997154
vt 0.751789 0.801535
vt 0.705030 0.801535
vt 0.798548 0.997154
vt 0.845307 0.997154
vt 0.845307 0.801535
vt 0.798548 0.801535
vt 0.705030 0.997154
vt 0.751789 0.997154
vt 0.751789 0.801535
vt 0.705030 0.801535
vt 0.798548 0.997154
vt 0.845307 0.997154
vt 0.845307 0.801535
vt 0.798548 0.801535
vt 0.705030 0.997154
vt 0.751789 0.997154
vt 0.751789 0.801535
vt 0.705030 0.801535
vt 0.798548 0.997154
vt 0.845307 0.997154
vt 0.845307 0.801535
vt 0.798548 0.801535
vt 0.705001 0.996485
vt 0.751915 0.996485
vt 0.751915 0.800556
vt 0.705001 0.800556
vt 0.798828 0.996485
vt 0.845742 0.996485
vt 0.845742 0.800556
vt 0.798828 0.800556
vt 0.644233 0.964775
vt 0.671655 0.992599
vt 0.699077 0.964775
vt 0.671655 0.936951
vt 0.853569 0.997122
vt 0.889097 0.997122
vt 0.889097 0.800577
vt 0.853569 0.800577
vt 0.959226 0.997122
vt 0.995683 0.997122
vt 0.995683 0.800577
vt 0.959226 0.800577
vt 0.705030 0.997154
vt 0.705030 0.801535
vt 0.751789 0.801535
vt 0.751789 0.997154
vt 0.798548 0.997154
vt 0.798548 0.801535
vt 0.845307 0.801535
vt 0.845307 0.997154
vt 0.705030 0.997154
vt 0.705030 0.801535
vt 0.751789 0.801535
vt 0.751789 0.997154
vt 0.798548 0.997154
vt 0.798548 0.801535
vt 0.845307 0.801535
vt 0.845307 0.997154
vt 0.705030 0.997154
vt 0.705030 0.801535
vt 0.751789 0.801535
vt 0.751789 0.997154
vt 0.798548 0.997154
vt 0.798548 0.801535
vt 0.845307 0.801535
vt 0.845307 0.997154
vt 0.705030 0.997154
vt 0.705030 0.801535
vt 0.751789 0.801535
vt 0.751789 0.997154
vt 0.798548 0.997154
vt 0.798548 0.801535
vt 0.845307 0.801535
vt 0.845307 0.997154
vt 0.705030 0.997154
vt 0.705030 0.801535
vt 0.751789 0.801535
vt 0.751789 0.997154
vt 0.798548 0.997154
vt 0.798548 0.801535
vt 0.845307 0.801535
vt 0.845307 0.997154
vt 0.705030 0.997154
vt 0.705030 0.801535
vt 0.751789 0.801535
vt 0.751789 0.997154
vt 0.798548 0.997154
vt 0.798548 0.801535
vt 0.845307 0.801535
vt 0.845307 0.997154
vt 0.705030 0.997154
vt 0.705030 0.801535
vt 0.751789 0.801535
vt 0.751789 0.997154
vt 0.798548 0.997154
vt 0.798548 0.801535
vt 0.845307 0.801535
vt 0.845307 0.997154
vt 0.705030 0.997154
vt 0.705030 0.801535
vt 0.751789 0.801535
vt 0.751789 0.997154
vt 0.798548 0.997154
vt 0.798548 0.801535
vt 0.845307 0.801535
vt 0.845307 0.997154
vt 0.705001 0.996485
vt 0.705001 0.800556
vt 0.751915 0.800556
vt 0.751915 0.996485
vt 0.798828 0.996485
vt 0.798828 0.800556
vt 0.845742 0.800556
vt 0.845742 0.996485
vt 0.644233 0.964775
vt 0.671655 0.936951
vt 0.699077 0.964775
vt 0.671655 0.992599
vt 0.853569 0.997122
vt 0.853569 0.800577
vt 0.889097 0.800577
vt 0.889097 0.997122
vt 0.959226 0.997122
vt 0.959226 0.800577
vt 0.995683 0.800577
vt 0.995683 0.997122
vt 0.638982 0.800599
vt 0.638982 1.000000
vt 0.414426 1.000000
vt 0.416645 0.800599
vt 0.212994 1.000000
vt 0.214615 0.800599
vt 0.638982 0.800599
vt 0.638982 1.000000
vt 0.414426 1.000000
vt 0.416645 0.800599
vt 0.212994 1.000000
vt 0.214615 0.800599
vt 0.889097 0.997122
vt 0.923697 0.997122
vt 0.923697 0.800577
vt 0.889097 0.800577
vt 0.853569 0.997122
vt 0.853569 0.800577
vt 0.414426 1.000000
vt 0.638982 1.000000
vt 0.638982 0.800599
vt 0.416645 0.800599
vt 0.212994 1.000000
vt 0.214615 0.800599
vt 0.414426 1.000000
vt 0.638982 1.000000
vt 0.638982 0.800599
vt 0.416645 0.800599
vt 0.212994 1.000000
vt 0.214615 0.800599
vn -0.718675 0.06791500000000004 0.692021
vn -0.718675 0.06791500000000004 0.692021
vn -0.718675 0.06791500000000004 0.692021
vn -0.43137 -0.856614 -0.28307699999999997
vn 0.294068 -0.865515 0.40547200000000005
vn -0.72527 0.009021999999999959 -0.688406
vn -0.72527 0.009021999999999959 -0.688406
vn -0.291616 0.867306 -0.4034110000000001
vn -0.43137 -0.856614 -0.28307699999999997
vn 0.15466 -0.23803099999999994 0.958865
vn 0.15466 -0.23803099999999994 0.958865
vn 0.15466 -0.23803099999999994 0.958865
vn -0.479303 0.810436 0.3368399999999999
vn -0.497718 -0.855431 -0.14322899999999994
vn -0.979906 -0.043480999999999985 0.194661
vn -0.979906 -0.043480999999999985 0.194661
vn 0.500813 0.853811 0.14210399999999995
vn -0.479303 0.810436 0.3368399999999999
vn -0.404734 -0.16555499999999995 0.899323
vn -0.404734 -0.16555499999999995 0.899323
vn -0.404734 -0.16555499999999995 0.899323
vn -0.808031 -0.384231 -0.446601
vn -0.030002 -0.973239 -0.22782699999999995
vn -0.777964 0.589 -0.21874800000000003
vn -0.777964 0.589 -0.21874800000000003
vn 0.031079 0.9731 0.22827899999999995
vn -0.808031 -0.384231 -0.446601
vn 0.228405 -0.47731799999999996 0.848527
vn 0.228405 -0.47731799999999996 0.848527
vn 0.228405 -0.47731799999999996 0.848527
vn -0.985521 -0.08827799999999998 0.144762
vn -0.482988 -0.872071 -0.07883199999999994
vn -0.546619 0.8039 0.23441899999999993
vn -0.546619 0.8039 0.23441899999999993
vn 0.496569 0.864726 0.07528999999999994
vn -0.985521 -0.08827799999999998 0.144762
vn -0.3978 -0.546866 0.736677
vn -0.3978 -0.546866 0.736677
vn -0.3978 -0.546866 0.736677
vn -0.873576 0.10532899999999998 -0.475154
vn -0.450629 -0.753725 -0.4783629999999999
vn -0.461371 0.88714 -0.010919000000000054
vn -0.461371 0.88714 -0.010919000000000054
vn 0.462432 0.743957 0.48237399999999997
vn -0.873576 0.10532899999999998 -0.475154
vn 0.153579 0.01923300000000006 0.987949
vn 0.153579 0.01923300000000006 0.987949
vn 0.153579 0.01923300000000006 0.987949
vn -0.995148 -0.039403999999999995 0.090157
vn -0.474281 -0.815548 0.33156900000000006
vn -0.557098 0.793977 -0.24339700000000006
vn -0.557098 0.793977 -0.24339700000000006
vn 0.495494 0.803864 -0.32907200000000003
vn -0.995148 -0.039403999999999995 0.090157
vn 0.113493 0.38455700000000004 0.916098
vn 0.113493 0.38455700000000004 0.916098
vn 0.113493 0.38455700000000004 0.916098
vn -0.679521 -0.647919 0.34416900000000006
vn 0.285943 -0.906515 0.31059200000000003
vn -0.965398 0.258611 0.03356299999999999
vn -0.965398 0.258611 0.03356299999999999
vn -0.284826 0.906779 -0.31084800000000007
vn -0.679521 -0.647919 0.34416900000000006
vn -0.537342 -0.33001699999999995 0.776114
vn -0.537342 -0.33001699999999995 0.776114
vn -0.537342 -0.33001699999999995 0.776114
vn -0.832253 0.11099899999999997 -0.543171
vn -0.321194 -0.747777 -0.581089
vn -0.511007 0.858739 0.03793599999999994
vn -0.511007 0.858739 0.03793599999999994
vn 0.322102 0.747121 0.58143
vn -0.832253 0.11099899999999997 -0.543171
vn 0.068169 0.06791100000000005 0.99536
vn 0.068169 0.06791100000000005 0.99536
vn 0.068169 0.06791100000000005 0.99536
vn -0.494128 -0.856614 0.14849000000000007
vn 0.499632 -0.865516 0.035364000000000055
vn -0.993544 0.009021000000000006 0.113089
vn -0.993544 0.009021000000000006 0.113089
vn -0.496478 0.867306 -0.035918000000000054
vn -0.494128 -0.856614 0.14849000000000007
vn -0.315323 -0.94297 -0.10666899999999994
vn 0.314873 -0.947626 -0.053487999999999945
vn -0.945372 -0.308118 -0.10646599999999999
vn -0.945372 -0.308118 -0.10646599999999999
vn -0.945223 0.322081 -0.05308000000000002
vn -0.315323 -0.94297 -0.10666899999999994
vn -0.404732 0.16555500000000006 0.899324
vn -0.404732 0.16555500000000006 0.899324
vn -0.404732 0.16555500000000006 0.899324
vn -0.808031 0.384231 -0.446601
vn 0.03108 -0.973099 0.22827900000000007
vn -0.777964 -0.589 -0.21874799999999997
vn -0.777964 -0.589 -0.21874799999999997
vn -0.030004 0.973239 -0.22782800000000006
vn -0.808031 0.384231 -0.446601
vn -0.397799 0.546864 0.736679
vn -0.397799 0.546864 0.736679
vn -0.397799 0.546864 0.736679
vn -0.873576 -0.10532400000000003 -0.475155
vn 0.46243 -0.743958 0.48237300000000005
vn -0.461375 -0.887138 -0.010921999999999946
vn -0.461375 -0.887138 -0.010921999999999946
vn -0.450627 0.753727 -0.47836200000000006
vn -0.873576 -0.10532400000000003 -0.475155
vn 0.15358 -0.01923299999999994 0.987949
vn 0.15358 -0.01923299999999994 0.987949
vn 0.15358 -0.01923299999999994 0.987949
vn -0.994387 0.04729100000000001 0.094644
vn 0.488114 -0.808018 -0.32992799999999994
vn -0.564969 -0.789142 -0.24096799999999993
vn -0.564969 -0.789142 -0.24096799999999993
vn -0.474283 0.815547 0.33156899999999995
vn -0.994387 0.04729100000000001 0.094644
vn 0.153577 0.921791 0.3559709999999999
vn 0.153577 0.921791 0.3559709999999999
vn 0.153577 0.921791 0.3559709999999999
vn -0.994387 0.10511 -0.012068000000000008
vn 0.488117 -0.586388 0.646445
vn -0.564969 -0.4963389999999999 0.659135
vn -0.564969 -0.4963389999999999 0.659135
vn -0.474285 0.590505 -0.652961
vn -0.994387 0.10511 -0.012068000000000008
vn 0.113493 -0.38455599999999995 0.916098
vn 0.113493 -0.38455599999999995 0.916098
vn 0.113493 -0.38455599999999995 0.916098
vn -0.679522 0.647918 0.34416899999999995
vn -0.284824 -0.906779 -0.31084799999999996
vn -0.965398 -0.258613 0.033562000000000015
vn -0.965398 -0.258613 0.033562000000000015
vn 0.285941 0.906516 0.3105919999999999
vn -0.679522 0.647918 0.34416899999999995
vn -0.537342 0.33001600000000003 0.776114
vn -0.537342 0.33001600000000003 0.776114
vn -0.537342 0.33001600000000003 0.776114
vn -0.832252 -0.11099900000000003 -0.543171
vn 0.322104 -0.74712 0.58143
vn -0.511007 -0.858739 0.03793600000000005
vn -0.511007 -0.858739 0.03793600000000005
vn -0.321193 0.747778 -0.581088
vn -0.832252 -0.11099900000000003 -0.543171
vn -0.358873 -0.06791099999999994 0.930913
vn -0.358873 -0.06791099999999994 0.930913
vn -0.358873 -0.06791099999999994 0.930913
vn -0.510584 0.856616 -0.07424800000000005
vn -0.434782 -0.867306 -0.24237299999999995
vn -0.94825 -0.009018000000000019 -0.317395
vn -0.94825 -0.009018000000000019 -0.317395
vn 0.437875 0.865516 0.24320399999999995
vn -0.510584 0.856616 -0.07424800000000005
vn -0.315324 0.94297 -0.10666900000000006
vn -0.945222 -0.322083 -0.05307999999999998
vn -0.945373 0.308117 -0.10646600000000002
vn -0.945373 0.308117 -0.10646600000000002
vn 0.314874 0.947625 -0.053487000000000055
vn -0.315324 0.94297 -0.10666900000000006
vn 0.404732 -0.16555599999999995 0.899324
vn 0.404732 -0.16555599999999995 0.899324
vn 0.404732 -0.16555599999999995 0.899324
vn 0.808032 -0.38423 -0.446601
vn -0.031079 0.9731 0.22827799999999995
vn 0.777964 0.589001 -0.21874800000000003
vn 0.777964 0.589001 -0.21874800000000003
vn 0.030004 -0.973239 -0.22782799999999995
vn 0.808032 -0.38423 -0.446601
vn -0.15358 0.019232000000000058 0.987949
vn -0.15358 0.019232000000000058 0.987949
vn -0.15358 0.019232000000000058 0.987949
vn 0.994387 -0.04728999999999999 0.094644
vn -0.488118 0.808016 -0.3299270000000001
vn 0.564968 0.789142 -0.24096800000000004
vn 0.564968 0.789142 -0.24096800000000004
vn 0.474286 -0.815546 0.33156800000000003
vn 0.994387 -0.04728999999999999 0.094644
vn 0.397801 -0.546865 0.736677
vn 0.397801 -0.546865 0.736677
vn 0.397801 -0.546865 0.736677
vn 0.873576 0.10532499999999997 -0.475155
vn -0.46243 0.743959 0.48237399999999997
vn 0.461374 0.887138 -0.010921000000000054
vn 0.461374 0.887138 -0.010921000000000054
vn 0.450629 -0.753725 -0.4783629999999999
vn 0.873576 0.10532499999999997 -0.475155
vn -0.15358 0.01923300000000006 0.987949
vn -0.15358 0.01923300000000006 0.987949
vn -0.15358 0.01923300000000006 0.987949
vn 0.994387 -0.04729099999999999 0.094644
vn -0.488116 0.808017 -0.3299270000000001
vn 0.564969 0.789142 -0.24096800000000004
vn 0.564969 0.789142 -0.24096800000000004
vn 0.474282 -0.815548 0.33156900000000006
vn 0.994387 -0.04729099999999999 0.094644
vn -0.153576 -0.921791 0.35597200000000007
vn -0.153576 -0.921791 0.35597200000000007
vn -0.153576 -0.921791 0.35597200000000007
vn 0.994387 -0.10511 -0.012067999999999994
vn -0.488117 0.586388 0.646445
vn 0.564968 0.49633900000000003 0.659135
vn 0.564968 0.49633900000000003 0.659135
vn 0.474286 -0.590505 -0.65296
vn 0.994387 -0.10511 -0.012067999999999994
vn -0.113493 0.38455700000000004 0.916098
vn -0.113493 0.38455700000000004 0.916098
vn -0.113493 0.38455700000000004 0.916098
vn 0.679522 -0.647918 0.34416900000000006
vn 0.284826 0.906779 -0.31084700000000004
vn 0.965398 0.258613 0.03356199999999999
vn 0.965398 0.258613 0.03356199999999999
vn -0.285942 -0.906515 0.31059200000000003
vn 0.679522 -0.647918 0.34416900000000006
vn 0.537343 -0.33001699999999995 0.776113
vn 0.537343 -0.33001699999999995 0.776113
vn 0.537343 -0.33001699999999995 0.776113
vn 0.832253 0.11100099999999997 -0.543171
vn -0.322104 0.74712 0.58143
vn 0.511005 0.85874 0.03793699999999994
vn 0.511005 0.85874 0.03793699999999994
vn 0.321194 -0.747777 -0.581088
vn 0.832253 0.11100099999999997 -0.543171
vn -0.06817 0.06791100000000005 0.99536
vn -0.06817 0.06791100000000005 0.99536
vn -0.06817 0.06791100000000005 0.99536
vn 0.494127 -0.856615 0.14849100000000007
vn 0.496478 0.867306 -0.03591700000000005
vn 0.993544 0.009020000000000007 0.11309
vn 0.993544 0.009020000000000007 0.11309
vn -0.499633 -0.865515 0.035364000000000055
vn 0.494127 -0.856615 0.14849100000000007
vn 0.315324 -0.94297 -0.10666899999999994
vn 0.945223 0.322081 -0.053081000000000024
vn 0.945372 -0.308117 -0.10646599999999999
vn 0.945372 -0.308117 -0.10646599999999999
vn -0.314873 -0.947625 -0.053486999999999944
vn 0.315324 -0.94297 -0.10666899999999994
vn -0.184295 -0.00519399999999994 0.982857
vn -0.184295 -0.00519399999999994 0.982857
vn -0.184295 -0.00519399999999994 0.982857
vn 0.91806 0.361439 0.16287099999999996
vn 0.155255 0.987872 0.0021589999999999396
vn 0.762739 -0.626422 0.16069900000000004
vn 0.762739 -0.626422 0.16069900000000004
vn -0.156395 -0.987692 -0.0023779999999999396
vn 0.91806 0.361439 0.16287099999999996
vn -0.228405 -0.010891999999999942 0.973505
vn -0.228405 -0.010891999999999942 0.973505
vn -0.228405 -0.010891999999999942 0.973505
vn 0.98552 0.00406800000000001 0.169508
vn 0.482988 0.794652 0.3677659999999999
vn 0.546617 -0.813408 -0.19893799999999995
vn 0.546617 -0.813408 -0.19893799999999995
vn -0.496566 -0.786521 -0.36715999999999993
vn 0.98552 0.00406800000000001 0.169508
vn -0.15358 -0.01923199999999994 0.987949
vn -0.15358 -0.01923199999999994 0.987949
vn -0.15358 -0.01923199999999994 0.987949
vn 0.994387 0.047290000000000006 0.094644
vn 0.474286 0.815546 0.3315679999999999
vn 0.564968 -0.789142 -0.24096799999999993
vn 0.564968 -0.789142 -0.24096799999999993
vn -0.488117 -0.808016 -0.32992699999999997
vn 0.994387 0.047290000000000006 0.094644
vn -0.228406 0.47731900000000005 0.848526
vn -0.228406 0.47731900000000005 0.848526
vn -0.228406 0.47731900000000005 0.848526
vn 0.98552 0.08827900000000001 0.144763
vn 0.482987 0.872072 -0.07883200000000005
vn 0.54662 -0.803899 0.23442000000000005
vn 0.54662 -0.803899 0.23442000000000005
vn -0.496568 -0.864726 0.07529100000000005
vn 0.98552 0.08827900000000001 0.144763
vn -0.15358 -0.01923299999999994 0.987949
vn -0.15358 -0.01923299999999994 0.987949
vn -0.15358 -0.01923299999999994 0.987949
vn 0.994387 0.047290000000000006 0.094644
vn 0.474283 0.815548 0.33156899999999995
vn 0.564969 -0.789142 -0.24096799999999993
vn 0.564969 -0.789142 -0.24096799999999993
vn -0.488116 -0.808017 -0.32992699999999997
vn 0.994387 0.047290000000000006 0.094644
vn -0.153578 0.921791 0.3559709999999999
vn -0.153578 0.921791 0.3559709999999999
vn -0.153578 0.921791 0.3559709999999999
vn 0.994387 0.105111 -0.012068000000000008
vn 0.474284 0.590506 -0.65296
vn 0.564968 -0.49633799999999995 0.659135
vn 0.564968 -0.49633799999999995 0.659135
vn -0.488117 -0.586388 0.646445
vn 0.994387 0.105111 -0.012068000000000008
vn 0.432485 -0.3845549999999999 0.815521
vn 0.432485 -0.3845549999999999 0.815521
vn 0.432485 -0.3845549999999999 0.815521
vn 0.754039 0.647918 -0.10783100000000004
vn -0.056081 0.906516 0.41843099999999994
vn 0.810058 -0.25861300000000004 -0.526237
vn 0.810058 -0.25861300000000004 -0.526237
vn 0.05502 -0.906779 -0.4179999999999999
vn 0.754039 0.647918 -0.10783100000000004
vn 0.158998 0.24766300000000005 0.955711
vn 0.158998 0.24766300000000005 0.955711
vn 0.158998 0.24766300000000005 0.955711
vn 0.983831 -0.09832600000000001 -0.149695
vn 0.536678 0.779002 -0.32424200000000003
vn 0.447098 -0.87729 0.17454600000000006
vn 0.447098 -0.87729 0.17454600000000006
vn -0.537648 -0.77834 0.32422500000000004
vn 0.983831 -0.09832600000000001 -0.149695
vn -0.06817 -0.06791099999999994 0.99536
vn -0.06817 -0.06791099999999994 0.99536
vn -0.06817 -0.06791099999999994 0.99536
vn 0.494126 0.856615 0.14849099999999996
vn -0.499632 0.865515 0.035363999999999944
vn 0.993544 -0.009018999999999992 0.11309
vn 0.993544 -0.009018999999999992 0.11309
vn 0.496478 -0.867306 -0.03591699999999994
vn 0.494126 0.856615 0.14849099999999996
vn 0.315324 0.94297 -0.10666900000000006
vn -0.314874 0.947625 -0.053487000000000055
vn 0.945373 0.308116 -0.10646600000000002
vn 0.945373 0.308116 -0.10646600000000002
vn 0.945223 -0.322082 -0.05308099999999998
vn 0.315324 0.94297 -0.10666900000000006
vn 0.945222 -0.322084 0.05308000000000002
vn 0.945373 0.308116 0.10646599999999999
vn 0.314873 -0.947626 -0.053487999999999945
vn -0.315323 -0.94297 -0.10666899999999994
vn 0.945222 -0.322084 0.05308000000000002
vn 0.945222 0.322083 0.05307999999999998
vn -0.315324 0.94297 -0.10666900000000006
vn 0.314874 0.947625 -0.053487000000000055
vn 0.945373 -0.308117 0.10646600000000002
vn 0.945222 0.322083 0.05307999999999998
vn -0.945222 -0.322083 0.05308000000000002
vn 0.315324 -0.94297 -0.10666899999999994
vn -0.314873 -0.947625 -0.053486999999999944
vn -0.945373 0.308116 0.10646599999999999
vn -0.945222 -0.322083 0.05308000000000002
vn -0.945223 0.322082 0.05307999999999998
vn -0.945373 -0.308116 0.10646600000000002
vn -0.314874 0.947625 -0.053487000000000055
vn 0.315324 0.94297 -0.10666900000000006
vn -0.945223 0.322082 0.05307999999999998
vn -0.080915 -0.932146 -0.35292699999999994
vn -0.010291 -0.13234899999999994 0.99115
vn -0.073534 -0.858145 0.508114
vn -0.073534 -0.858145 0.508114
vn -0.060139 -0.686648 -0.724498
vn 0.010296 0.13240799999999994 -0.991142
vn 0.073533 0.858147 -0.508111
vn 0.725288 -0.008776999999999958 0.688389
vn 0.433373 0.854887 0.28522899999999995
vn 0.294068 -0.865515 0.40547200000000005
vn -0.43137 -0.856614 -0.28307699999999997
vn -0.291616 0.867306 -0.4034110000000001
vn -0.72527 0.009021999999999959 -0.688406
vn 0.433373 0.854887 0.28522899999999995
vn 0.725288 -0.008776999999999958 0.688389
vn 0.979903 0.04324999999999998 -0.194727
vn -0.479303 0.810436 0.3368399999999999
vn 0.500813 0.853811 0.14210399999999995
vn 0.482218 -0.808663 -0.33694099999999993
vn -0.497718 -0.855431 -0.14322899999999994
vn 0.979903 0.04324999999999998 -0.194727
vn 0.482218 -0.808663 -0.33694099999999993
vn -0.979906 -0.043480999999999985 0.194661
vn 0.777998 -0.588946 0.21877500000000003
vn 0.808508 0.383233 0.446595
vn -0.030002 -0.973239 -0.22782699999999995
vn -0.808031 -0.384231 -0.446601
vn 0.031079 0.9731 0.22827899999999995
vn -0.777964 0.589 -0.21874800000000003
vn 0.808508 0.383233 0.446595
vn 0.777998 -0.588946 0.21877500000000003
vn 0.503657 -0.832031 -0.23249699999999995
vn 0.987365 0.02611699999999999 -0.156297
vn -0.482988 -0.872071 -0.07883199999999994
vn -0.985521 -0.08827799999999998 0.144762
vn 0.496569 0.864726 0.07528999999999994
vn -0.546619 0.8039 0.23441899999999993
vn 0.987365 0.02611699999999999 -0.156297
vn 0.503657 -0.832031 -0.23249699999999995
vn 0.422631 -0.906142 -0.016984999999999945
vn 0.873518 -0.16608199999999998 0.457584
vn -0.450629 -0.753725 -0.4783629999999999
vn -0.873576 0.10532899999999998 -0.475154
vn 0.462432 0.743957 0.48237399999999997
vn -0.461371 0.88714 -0.010919000000000054
vn 0.873518 -0.16608199999999998 0.457584
vn 0.422631 -0.906142 -0.016984999999999945
vn 0.521821 -0.814519 0.25350000000000006
vn 0.997421 -0.019957000000000003 -0.068942
vn -0.474281 -0.815548 0.33156900000000006
vn -0.995148 -0.039403999999999995 0.090157
vn 0.495494 0.803864 -0.32907200000000003
vn -0.557098 0.793977 -0.24339700000000006
vn 0.997421 -0.019957000000000003 -0.068942
vn 0.521821 -0.814519 0.25350000000000006
vn 0.965414 -0.258549 -0.033587999999999986
vn 0.68032 0.647175 -0.34399100000000005
vn 0.285943 -0.906515 0.31059200000000003
vn -0.679521 -0.647919 0.34416900000000006
vn -0.284826 0.906779 -0.31084800000000007
vn -0.965398 0.258611 0.03356299999999999
vn 0.68032 0.647175 -0.34399100000000005
vn 0.965414 -0.258549 -0.033587999999999986
vn 0.51105 -0.858715 -0.03789299999999995
vn 0.832373 -0.11202299999999997 0.542776
vn -0.321194 -0.747777 -0.581089
vn -0.832253 0.11099899999999997 -0.543171
vn 0.322102 0.747121 0.58143
vn -0.511007 0.858739 0.03793599999999994
vn 0.832373 -0.11202299999999997 0.542776
vn 0.51105 -0.858715 -0.03789299999999995
vn 0.993543 -0.008779000000000007 -0.113116
vn 0.497064 0.854887 -0.14864300000000005
vn 0.499632 -0.865516 0.035364000000000055
vn -0.494128 -0.856614 0.14849000000000007
vn -0.496478 0.867306 -0.035918000000000054
vn -0.993544 0.009021000000000006 0.113089
vn 0.497064 0.854887 -0.14864300000000005
vn 0.993543 -0.008779000000000007 -0.113116
vn -0.087155 -0.08682399999999994 0.992404
vn -0.087156 -0.08682399999999994 0.992404
vn -0.087155 -0.08682399999999994 0.992404
vn -0.087155 -0.08682399999999994 0.992404
vn 0.315325 0.94297 0.10666899999999994
vn -0.314875 0.947625 0.053486999999999944
vn 0.945373 0.308116 0.10646599999999999
vn 0.945222 -0.322084 0.05308000000000002
vn -0.945223 0.322081 -0.05308000000000002
vn -0.945372 -0.308118 -0.10646599999999999
vn -0.314875 0.947625 0.053486999999999944
vn 0.315325 0.94297 0.10666899999999994
vn 0.777997 0.588947 0.21877399999999997
vn -0.808031 0.384231 -0.446601
vn -0.030004 0.973239 -0.22782800000000006
vn 0.808508 -0.383233 0.446595
vn 0.03108 -0.973099 0.22827900000000007
vn 0.777997 0.588947 0.21877399999999997
vn 0.808508 -0.383233 0.446595
vn -0.777964 -0.589 -0.21874799999999997
vn 0.422633 0.906142 -0.016984000000000055
vn -0.873576 -0.10532400000000003 -0.475155
vn -0.450627 0.753727 -0.47836200000000006
vn 0.873518 0.16608000000000003 0.457584
vn 0.46243 -0.743958 0.48237300000000005
vn 0.422633 0.906142 -0.016984000000000055
vn 0.873518 0.16608000000000003 0.457584
vn -0.461375 -0.887138 -0.010921999999999946
vn 0.522 0.814419 0.25344999999999995
vn -0.994387 0.04729100000000001 0.094644
vn -0.474283 0.815547 0.33156899999999995
vn 0.99723 0.012201999999999994 -0.073377
vn 0.488114 -0.808018 -0.32992799999999994
vn 0.522 0.814419 0.25344999999999995
vn 0.99723 0.012201999999999994 -0.073377
vn -0.564969 -0.789142 -0.24096799999999993
vn 0.521999 0.516713 -0.67862
vn -0.994387 0.10511 -0.012068000000000008
vn -0.474285 0.590505 -0.652961
vn 0.99723 -0.064777 -0.03656499999999999
vn 0.488117 -0.586388 0.646445
vn 0.521999 0.516713 -0.67862
vn 0.99723 -0.064777 -0.03656499999999999
vn -0.564969 -0.4963389999999999 0.659135
vn 0.965413 0.258552 -0.033588000000000014
vn -0.679522 0.647918 0.34416899999999995
vn 0.285941 0.906516 0.3105919999999999
vn 0.680321 -0.647174 -0.34399099999999994
vn -0.284824 -0.906779 -0.31084799999999996
vn 0.965413 0.258552 -0.033588000000000014
vn 0.680321 -0.647174 -0.34399099999999994
vn -0.965398 -0.258613 0.033562000000000015
vn 0.511051 0.858715 -0.03789200000000006
vn -0.832252 -0.11099900000000003 -0.543171
vn -0.321193 0.747778 -0.581088
vn 0.832373 0.11202500000000003 0.542776
vn 0.322104 -0.74712 0.58143
vn 0.511051 0.858715 -0.03789200000000006
vn 0.832373 0.11202500000000003 0.542776
vn -0.511007 -0.858739 0.03793600000000005
vn 0.948261 0.008778000000000018 0.317372
vn -0.510584 0.856616 -0.07424800000000005
vn 0.437875 0.865516 0.24320399999999995
vn 0.513313 -0.854887 0.07535300000000006
vn -0.434782 -0.867306 -0.24237299999999995
vn 0.948261 0.008778000000000018 0.317372
vn 0.513313 -0.854887 0.07535300000000006
vn -0.94825 -0.009018000000000019 -0.317395
vn -0.087155 0.08682400000000005 0.992404
vn -0.087155 0.08682400000000005 0.992404
vn -0.087155 0.08682400000000005 0.992404
vn -0.087155 0.08682400000000005 0.992404
vn 0.315324 -0.94297 0.10666900000000006
vn 0.945222 0.322083 0.05307999999999998
vn 0.945373 -0.308117 0.10646600000000002
vn -0.314874 -0.947625 0.053487000000000055
vn -0.945222 -0.322083 -0.05307999999999998
vn 0.315324 -0.94297 0.10666900000000006
vn -0.314874 -0.947625 0.053487000000000055
vn -0.945373 0.308117 -0.10646600000000002
vn -0.777997 -0.588947 0.21877400000000002
vn 0.808032 -0.38423 -0.446601
vn 0.030004 -0.973239 -0.22782799999999995
vn -0.808507 0.383235 0.446595
vn -0.031079 0.9731 0.22827799999999995
vn -0.777997 -0.588947 0.21877400000000002
vn -0.808507 0.383235 0.446595
vn 0.777964 0.589001 -0.21874800000000003
vn -0.521997 -0.814421 0.25345000000000006
vn 0.994387 -0.04728999999999999 0.094644
vn 0.474286 -0.815546 0.33156800000000003
vn -0.99723 -0.012206000000000005 -0.073376
vn -0.488118 0.808016 -0.3299270000000001
vn -0.521997 -0.814421 0.25345000000000006
vn -0.99723 -0.012206000000000005 -0.073376
vn 0.564968 0.789142 -0.24096800000000004
vn -0.422631 -0.906143 -0.016984999999999945
vn 0.873576 0.10532499999999997 -0.475155
vn 0.450629 -0.753725 -0.4783629999999999
vn -0.873518 -0.16607999999999998 0.457584
vn -0.46243 0.743959 0.48237399999999997
vn -0.422631 -0.906143 -0.016984999999999945
vn -0.873518 -0.16607999999999998 0.457584
vn 0.461374 0.887138 -0.010921000000000054
vn -0.522002 -0.814418 0.25345000000000006
vn 0.994387 -0.04729099999999999 0.094644
vn 0.474282 -0.815548 0.33156900000000006
vn -0.99723 -0.012205000000000006 -0.073376
vn -0.488116 0.808017 -0.3299270000000001
vn -0.522002 -0.814418 0.25345000000000006
vn -0.99723 -0.012205000000000006 -0.073376
vn 0.564969 0.789142 -0.24096800000000004
vn -0.521998 -0.516714 -0.67862
vn 0.994387 -0.10511 -0.012067999999999994
vn 0.474286 -0.590505 -0.65296
vn -0.99723 0.064776 -0.03656600000000001
vn -0.488117 0.586388 0.646445
vn -0.521998 -0.516714 -0.67862
vn -0.99723 0.064776 -0.03656600000000001
vn 0.564968 0.49633900000000003 0.659135
vn -0.965414 -0.258551 -0.033587999999999986
vn 0.679522 -0.647918 0.34416900000000006
vn -0.285942 -0.906515 0.31059200000000003
vn -0.68032 0.647175 -0.3439920000000001
vn 0.284826 0.906779 -0.31084700000000004
vn -0.965414 -0.258551 -0.033587999999999986
vn -0.68032 0.647175 -0.3439920000000001
vn 0.965398 0.258613 0.03356199999999999
vn -0.51105 -0.858715 -0.03789299999999995
vn 0.832253 0.11100099999999997 -0.543171
vn 0.321194 -0.747777 -0.581088
vn -0.832373 -0.11202499999999997 0.542776
vn -0.322104 0.74712 0.58143
vn -0.51105 -0.858715 -0.03789299999999995
vn -0.832373 -0.11202499999999997 0.542776
vn 0.511005 0.85874 0.03793699999999994
vn -0.993543 -0.008777000000000007 -0.113115
vn 0.494127 -0.856615 0.14849100000000007
vn -0.499633 -0.865515 0.035364000000000055
vn -0.497064 0.854887 -0.14864200000000005
vn 0.496478 0.867306 -0.03591700000000005
vn -0.993543 -0.008777000000000007 -0.113115
vn -0.497064 0.854887 -0.14864200000000005
vn 0.993544 0.009020000000000007 0.11309
vn 0.087155 -0.08682399999999994 0.992404
vn 0.087155 -0.08682399999999994 0.992404
vn 0.087155 -0.08682399999999994 0.992404
vn 0.087155 -0.08682399999999994 0.992404
vn -0.315325 0.94297 0.10666899999999994
vn -0.945222 -0.322083 0.05308000000000002
vn -0.945373 0.308116 0.10646599999999999
vn 0.314874 0.947625 0.053486999999999944
vn 0.945223 0.322081 -0.053081000000000024
vn -0.315325 0.94297 0.10666899999999994
vn 0.314874 0.947625 0.053486999999999944
vn 0.945372 -0.308117 -0.10646599999999999
vn -0.762781 0.626369 -0.16070500000000001
vn -0.918448 -0.360408 -0.16297199999999998
vn 0.155255 0.987872 0.0021589999999999396
vn 0.91806 0.361439 0.16287099999999996
vn -0.156395 -0.987692 -0.0023779999999999396
vn 0.762739 -0.626422 0.16069900000000004
vn -0.918448 -0.360408 -0.16297199999999998
vn -0.762781 0.626369 -0.16070500000000001
vn -0.503657 0.836808 0.21466799999999994
vn -0.987365 0.05552699999999999 -0.148417
vn 0.482988 0.794652 0.3677659999999999
vn 0.98552 0.00406800000000001 0.169508
vn -0.496566 -0.786521 -0.36715999999999993
vn 0.546617 -0.813408 -0.19893799999999995
vn -0.987365 0.05552699999999999 -0.148417
vn -0.503657 0.836808 0.21466799999999994
vn -0.521997 0.814421 0.25344999999999995
vn -0.99723 0.012205999999999995 -0.073376
vn 0.474286 0.815546 0.3315679999999999
vn 0.994387 0.047290000000000006 0.094644
vn -0.488117 -0.808016 -0.32992699999999997
vn 0.564968 -0.789142 -0.24096799999999993
vn -0.99723 0.012205999999999995 -0.073376
vn -0.521997 0.814421 0.25344999999999995
vn -0.503658 0.83203 -0.23249600000000006
vn -0.987365 -0.02611800000000001 -0.156297
vn 0.482987 0.872072 -0.07883200000000005
vn 0.98552 0.08827900000000001 0.144763
vn -0.496568 -0.864726 0.07529100000000005
vn 0.54662 -0.803899 0.23442000000000005
vn -0.987365 -0.02611800000000001 -0.156297
vn -0.503658 0.83203 -0.23249600000000006
vn -0.522 0.814419 0.25344999999999995
vn -0.99723 0.012204999999999995 -0.073376
vn 0.474283 0.815548 0.33156899999999995
vn 0.994387 0.047290000000000006 0.094644
vn -0.488116 -0.808017 -0.32992699999999997
vn 0.564969 -0.789142 -0.24096799999999993
vn -0.99723 0.012204999999999995 -0.073376
vn -0.522 0.814419 0.25344999999999995
vn -0.521999 0.516713 -0.678619
vn -0.99723 -0.064777 -0.03656499999999999
vn 0.474284 0.590506 -0.65296
vn 0.994387 0.105111 -0.012068000000000008
vn -0.488117 -0.586388 0.646445
vn 0.564968 -0.49633799999999995 0.659135
vn -0.99723 -0.064777 -0.03656499999999999
vn -0.521999 0.516713 -0.678619
vn -0.810085 0.25855200000000006 0.526225
vn -0.754591 -0.647174 0.10843500000000005
vn -0.056081 0.906516 0.41843099999999994
vn 0.754039 0.647918 -0.10783100000000004
vn 0.05502 -0.906779 -0.4179999999999999
vn 0.810058 -0.25861300000000004 -0.526237
vn -0.754591 -0.647174 0.10843500000000005
vn -0.810085 0.25855200000000006 0.526225
vn -0.447156 0.877264 -0.17452700000000004
vn -0.983773 0.09938400000000001 0.149376
vn 0.536678 0.779002 -0.32424200000000003
vn 0.983831 -0.09832600000000001 -0.149695
vn -0.537648 -0.77834 0.32422500000000004
vn 0.447098 -0.87729 0.17454600000000006
vn -0.983773 0.09938400000000001 0.149376
vn -0.447156 0.877264 -0.17452700000000004
vn -0.993543 0.008777999999999992 -0.113115
vn -0.497065 -0.854887 -0.14864299999999994
vn -0.499632 0.865515 0.035363999999999944
vn 0.494126 0.856615 0.14849099999999996
vn 0.496478 -0.867306 -0.03591699999999994
vn 0.993544 -0.009018999999999992 0.11309
vn -0.497065 -0.854887 -0.14864299999999994
vn -0.993543 0.008777999999999992 -0.113115
vn 0.087155 0.08682400000000005 0.992404
vn 0.087155 0.08682400000000005 0.992404
vn 0.087155 0.08682400000000005 0.992404
vn 0.087155 0.08682400000000005 0.992404
vn -0.315324 -0.94297 0.10666900000000006
vn 0.314874 -0.947625 0.053487000000000055
vn -0.945373 -0.308116 0.10646600000000002
vn -0.945223 0.322082 0.05307999999999998
vn 0.945223 -0.322082 -0.05308099999999998
vn 0.945373 0.308116 -0.10646600000000002
vn 0.314874 -0.947625 0.053487000000000055
vn -0.315324 -0.94297 0.10666900000000006
vn 0.999283 0.037565 0.004756999999999997
vn 0.999632 0.0014529999999999983 -0.027075
vn 0.998416 0.054209 0.015039999999999996
vn 0.999448 0.026505 -0.02002
vn 0.99882 0.0027399999999999968 -0.048481
vn 0.987878 -0.08195500000000001 -0.131836
vn -0.060695 0.998149 0.003950999999999939
vn -0.027524 0.99906 -0.033486000000000064
vn -0.049622 0.998606 0.01796799999999994
vn -0.068517 0.995444 0.06631399999999994
vn -0.055874 0.995326 0.07876299999999994
vn -0.084186 0.9902 0.11142599999999994
vn 0.060142 0.686683 0.724465
vn -0.073534 -0.858145 0.508114
vn -0.010291 -0.13234899999999994 0.99115
vn 0.080916 0.932153 0.35290699999999997
vn 0.073533 0.858147 -0.508111
vn 0.010296 0.13240799999999994 -0.991142
vn -0.998416 -0.054209 -0.015039999999999996
vn -0.999632 -0.0014529999999999983 0.027075
vn -0.999283 -0.037565 -0.004756999999999997
vn -0.999448 -0.026505 0.02002
vn -0.99882 -0.0027399999999999968 0.048481
vn -0.987878 0.08195500000000001 0.131836
vn 0.049622 -0.998606 -0.01796799999999994
vn 0.027524 -0.99906 0.033486000000000064
vn 0.060695 -0.998149 -0.003950999999999939
vn 0.068517 -0.995444 -0.06631399999999994
vn 0.055874 -0.995326 -0.07876299999999994
vn 0.084186 -0.9902 -0.11142599999999994
g zaun
f 1/1/1 2/2/2 3/3/3
f 4/4/4 5/5/5 6/6/6
f 7/7/7 8/8/8 9/9/9
f 10/10/10 11/11/11 12/12/12
f 13/13/13 14/14/14 15/15/15
f 16/16/16 17/17/17 18/18/18
f 19/19/19 20/20/20 21/21/21
f 22/22/22 23/23/23 24/24/24
f 25/25/25 26/26/26 27/27/27
f 28/28/28 29/29/29 30/30/30
f 31/31/31 32/32/32 33/33/33
f 34/34/34 35/35/35 36/36/36
f 37/37/37 38/38/38 39/39/39
f 40/40/40 41/41/41 42/42/42
f 43/43/43 44/44/44 45/45/45
f 46/46/46 47/47/47 48/48/48
f 49/49/49 50/50/50 51/51/51
f 52/52/52 53/53/53 54/54/54
f 55/55/55 56/56/56 57/57/57
f 58/58/58 59/59/59 60/60/60
f 61/61/61 62/62/62 63/63/63
f 64/64/64 65/65/65 66/66/66
f 67/67/67 68/68/68 69/69/69
f 70/70/70 71/71/71 72/72/72
f 73/73/73 74/74/74 75/75/75
f 76/76/76 77/77/77 78/78/78
f 79/79/79 80/80/80 81/81/81
f 82/82/82 83/83/83 84/84/84
f 85/85/85 86/86/86 87/87/87
f 88/88/88 89/89/89 90/90/90
f 91/91/91 92/92/92 93/93/93
f 94/94/94 95/95/95 96/96/96
f 97/97/97 98/98/98 99/99/99
f 100/100/100 101/101/101 102/102/102
f 103/103/103 104/104/104 105/105/105
f 106/106/106 107/107/107 108/108/108
f 109/109/109 110/110/110 111/111/111
f 112/112/112 113/113/113 114/114/114
f 115/115/115 116/116/116 117/117/117
f 118/118/118 119/119/119 120/120/120
f 121/121/121 122/122/122 123/123/123
f 124/124/124 125/125/125 126/126/126
f 127/127/127 128/128/128 129/129/129
f 130/130/130 131/131/131 132/132/132
f 133/133/133 134/134/134 135/135/135
f 136/136/136 137/137/137 138/138/138
f 139/139/139 140/140/140 141/141/141
f 142/142/142 143/143/143 144/144/144
f 145/145/145 146/146/146 147/147/147
f 148/148/148 149/149/149 150/150/150
f 151/151/151 152/152/152 153/153/153
f 154/154/154 155/155/155 156/156/156
f 157/157/157 158/158/158 159/159/159
f 160/160/160 161/161/161 162/162/162
f 163/163/163 164/164/164 165/165/165
f 166/166/166 167/167/167 168/168/168
f 169/169/169 170/170/170 171/171/171
f 172/172/172 173/173/173 174/174/174
f 175/175/175 176/176/176 177/177/177
f 178/178/178 179/179/179 180/180/180
f 181/181/181 182/182/182 183/183/183
f 184/184/184 185/185/185 186/186/186
f 187/187/187 188/188/188 189/189/189
f 190/190/190 191/191/191 192/192/192
f 193/193/193 194/194/194 195/195/195
f 196/196/196 197/197/197 198/198/198
f 199/199/199 200/200/200 201/201/201
f 202/202/202 203/203/203 204/204/204
f 205/205/205 206/206/206 207/207/207
f 208/208/208 209/209/209 210/210/210
f 211/211/211 212/212/212 213/213/213
f 214/214/214 215/215/215 216/216/216
f 217/217/217 218/218/218 219/219/219
f 220/220/220 221/221/221 222/222/222
f 223/223/223 224/224/224 225/225/225
f 226/226/226 227/227/227 228/228/228
f 229/229/229 230/230/230 231/231/231
f 232/232/232 233/233/233 234/234/234
f 235/235/235 236/236/236 237/237/237
f 238/238/238 239/239/239 240/240/240
f 241/241/241 242/242/242 243/243/243
f 244/244/244 245/245/245 246/246/246
f 247/247/247 248/248/248 249/249/249
f 250/250/250 251/251/251 252/252/252
f 253/253/253 254/254/254 255/255/255
f 256/256/256 257/257/257 258/258/258
f 259/259/259 260/260/260 261/261/261
f 262/262/262 263/263/263 264/264/264
f 265/265/265 266/266/266 267/267/267
f 268/268/268 269/269/269 270/270/270
f 271/271/271 272/272/272 273/273/273
f 274/274/274 275/275/275 276/276/276
f 277/277/277 278/278/278 279/279/279
f 280/280/280 281/281/281 282/282/282
f 283/283/283 284/284/284 285/285/285
f 286/286/286 287/287/287 288/288/288
f 289/289/289 290/290/290 291/291/291
f 292/292/292 293/293/293 294/294/294
f 295/295/295 296/296/296 297/297/297
f 298/298/298 299/299/299 300/300/300
f 301/301/301 302/302/302 303/303/303
f 304/304/304 305/305/305 306/306/306
f 307/307/307 308/308/308 309/309/309
f 310/310/310 311/311/311 312/312/312
f 313/313/313 314/314/314 315/315/315
f 316/316/316 317/317/317 318/318/318
f 319/319/319 320/320/320 321/321/321
f 322/322/322 323/323/323 324/324/324
f 324/324/324 325/325/325 326/326/326
f 327/327/327 328/328/328 329/329/329
f 329/329/329 330/330/330 331/331/331
f 332/332/332 333/333/333 334/334/334
f 334/334/334 335/335/335 336/336/336
f 337/337/337 338/338/338 339/339/339
f 339/339/339 340/340/340 341/341/341
f 342/342/342 343/343/343 344/344/344
f 345/345/345 346/346/346 342/342/342
f 347/347/347 342/342/342 346/346/346
f 346/346/346 348/348/348 347/347/347
f 349/349/349 350/350/350 351/351/351
f 351/351/351 352/352/352 349/349/349
f 353/353/353 354/354/354 355/355/355
f 355/355/355 356/356/356 353/353/353
f 357/357/357 358/358/358 359/359/359
f 359/359/359 360/360/360 357/357/357
f 361/361/361 362/362/362 363/363/363
f 363/363/363 364/364/364 361/361/361
f 365/365/365 366/366/366 367/367/367
f 367/367/367 368/368/368 365/365/365
f 369/369/369 370/370/370 371/371/371
f 371/371/371 372/372/372 369/369/369
f 373/373/373 374/374/374 375/375/375
f 375/375/375 376/376/376 373/373/373
f 377/377/377 378/378/378 379/379/379
f 379/379/379 380/380/380 377/377/377
f 381/381/381 382/382/382 383/383/383
f 383/383/383 384/384/384 381/381/381
f 385/385/385 386/386/386 387/387/387
f 387/387/387 388/388/388 385/385/385
f 389/389/389 390/390/390 391/391/391
f 391/391/391 392/392/392 389/389/389
f 393/393/393 394/394/394 395/395/395
f 395/395/395 396/396/396 393/393/393
f 397/397/397 398/398/398 399/399/399
f 399/399/399 400/400/400 397/397/397
f 401/401/401 402/402/402 403/403/403
f 403/403/403 404/404/404 401/401/401
f 405/405/405 406/406/406 407/407/407
f 407/407/407 408/408/408 405/405/405
f 409/409/409 410/410/410 411/411/411
f 411/411/411 412/412/412 409/409/409
f 413/413/413 414/414/414 415/415/415
f 415/415/415 416/416/416 413/413/413
f 417/417/417 418/418/418 419/419/419
f 419/419/419 420/420/420 417/417/417
f 421/421/421 422/422/422 423/423/423
f 423/423/423 424/424/424 421/421/421
f 425/425/425 426/426/426 427/427/427
f 427/427/427 428/428/428 425/425/425
f 429/429/429 430/430/430 431/431/431
f 431/431/431 432/432/432 429/429/429
f 433/433/433 434/434/434 435/435/435
f 435/435/435 436/436/436 433/433/433
f 437/437/437 438/438/438 439/439/439
f 439/439/439 440/440/440 437/437/437
f 441/441/441 442/442/442 443/443/443
f 443/443/443 444/444/444 441/441/441
f 445/445/445 446/446/446 447/447/447
f 447/447/447 448/448/448 445/445/445
f 449/449/449 450/450/450 451/451/451
f 451/451/451 452/452/452 449/449/449
f 453/453/453 454/454/454 455/455/455
f 455/455/455 456/456/456 453/453/453
f 457/457/457 458/458/458 459/459/459
f 459/459/459 460/460/460 457/457/457
f 461/461/461 462/462/462 463/463/463
f 463/463/463 464/464/464 461/461/461
f 465/465/465 466/466/466 467/467/467
f 467/467/467 468/468/468 465/465/465
f 469/469/469 470/470/470 471/471/471
f 471/471/471 472/472/472 469/469/469
f 473/473/473 474/474/474 475/475/475
f 475/475/475 476/476/476 473/473/473
f 477/477/477 478/478/478 479/479/479
f 479/479/479 480/480/480 477/477/477
f 481/481/481 482/482/482 483/483/483
f 483/483/483 484/484/484 481/481/481
f 485/485/485 486/486/486 487/487/487
f 487/487/487 488/488/488 485/485/485
f 489/489/489 490/490/490 491/491/491
f 491/491/491 492/492/492 489/489/489
f 493/493/493 494/494/494 495/495/495
f 495/495/495 496/496/496 493/493/493
f 497/497/497 498/498/498 499/499/499
f 499/499/499 500/500/500 497/497/497
f 501/501/501 502/502/502 503/503/503
f 503/503/503 504/504/504 501/501/501
f 505/505/505 506/506/506 507/507/507
f 507/507/507 508/508/508 505/505/505
f 509/509/509 510/510/510 511/511/511
f 511/511/511 512/512/512 509/509/509
f 513/513/513 514/514/514 515/515/515
f 515/515/515 516/516/516 513/513/513
f 517/517/517 518/518/518 519/519/519
f 519/519/519 520/520/520 517/517/517
f 521/521/521 522/522/522 523/523/523
f 523/523/523 524/524/524 521/521/521
f 525/525/525 526/526/526 527/527/527
f 527/527/527 528/528/528 525/525/525
f 529/529/529 530/530/530 531/531/531
f 531/531/531 532/532/532 529/529/529
f 533/533/533 534/534/534 535/535/535
f 535/535/535 536/536/536 533/533/533
f 537/537/537 538/538/538 539/539/539
f 539/539/539 540/540/540 537/537/537
f 541/541/541 542/542/542 543/543/543
f 543/543/543 544/544/544 541/541/541
f 545/545/545 546/546/546 547/547/547
f 547/547/547 548/548/548 545/545/545
f 549/549/549 550/550/550 551/551/551
f 551/551/551 552/552/552 549/549/549
f 553/553/553 554/554/554 555/555/555
f 555/555/555 556/556/556 553/553/553
f 557/557/557 558/558/558 559/559/559
f 559/559/559 560/560/560 557/557/557
f 561/561/561 562/562/562 563/563/563
f 563/563/563 564/564/564 561/561/561
f 565/565/565 566/566/566 567/567/567
f 567/567/567 568/568/568 565/565/565
f 569/569/569 570/570/570 571/571/571
f 571/571/571 572/572/572 569/569/569
f 573/573/573 574/574/574 575/575/575
f 575/575/575 576/576/576 573/573/573
f 577/577/577 578/578/578 579/579/579
f 579/579/579 580/580/580 577/577/577
f 581/581/581 582/582/582 583/583/583
f 583/583/583 584/584/584 581/581/581
f 585/585/585 586/586/586 587/587/587
f 587/587/587 588/588/588 585/585/585
f 589/589/589 590/590/590 591/591/591
f 591/591/591 592/592/592 589/589/589
f 593/593/593 594/594/594 595/595/595
f 595/595/595 596/596/596 593/593/593
f 597/597/597 598/598/598 599/599/599
f 599/599/599 600/600/600 597/597/597
f 601/601/601 602/602/602 603/603/603
f 603/603/603 604/604/604 601/601/601
f 605/605/605 606/606/606 607/607/607
f 607/607/607 608/608/608 605/605/605
f 609/609/609 610/610/610 611/611/611
f 611/611/611 612/612/612 609/609/609
f 613/613/613 614/614/614 615/615/615
f 615/615/615 616/616/616 613/613/613
f 617/617/617 618/618/618 619/619/619
f 619/619/619 620/620/620 617/617/617
f 621/621/621 622/622/622 623/623/623
f 623/623/623 624/624/624 621/621/621
f 625/625/625 626/626/626 627/627/627
f 627/627/627 628/628/628 625/625/625
f 629/629/629 630/630/630 631/631/631
f 631/631/631 632/632/632 629/629/629
f 633/633/633 634/634/634 635/635/635
f 635/635/635 636/636/636 633/633/633
f 637/637/637 638/638/638 639/639/639
f 639/639/639 640/640/640 637/637/637
f 641/641/641 642/642/642 643/643/643
f 643/643/643 644/644/644 641/641/641
f 645/645/645 646/646/646 647/647/647
f 647/647/647 648/648/648 645/645/645
f 649/649/649 650/650/650 651/651/651
f 651/651/651 652/652/652 649/649/649
f 653/653/653 654/654/654 655/655/655
f 655/655/655 656/656/656 653/653/653
f 657/657/657 658/658/658 659/659/659
f 659/659/659 660/660/660 657/657/657
f 661/661/661 662/662/662 663/663/663
f 663/663/663 664/664/664 661/661/661
f 664/664/664 663/663/663 665/665/665
f 665/665/665 666/666/666 664/664/664
f 667/667/667 668/668/668 669/669/669
f 669/669/669 670/670/670 667/667/667
f 670/670/670 669/669/669 671/671/671
f 671/671/671 672/672/672 670/670/670
f 673/673/673 674/674/674 675/675/675
f 675/675/675 676/676/676 673/673/673
f 677/677/677 673/673/673 676/676/676
f 676/676/676 678/678/678 677/677/677
f 679/679/679 680/680/680 681/681/681
f 681/681/681 682/682/682 679/679/679
f 683/683/683 679/679/679 682/682/682
f 682/682/682 684/684/684 683/683/683
f 685/685/685 686/686/686 687/687/687
f 687/687/687 688/688/688 685/685/685
f 689/689/689 685/685/685 688/688/688
f 688/688/688 690/690/690 689/689/689
