v -0.175111 -2.362803 1.8515580000000003
v -1.371583 -2.365305 1.8515580000000003
v -1.373867 -2.497038 1.8515580000000003
v -0.175111 -2.497606 1.8515580000000003
v -1.502316 -2.232822 1.8515580000000003
v -1.502316 -1.1095909999999998 1.851558
v -1.635216 -1.1061329999999998 1.851558
v -1.638747 -2.235341 1.8515580000000003
v -0.170193 -0.8392289999999999 1.851558
v -1.364132 -0.8398249999999999 1.851558
v -1.363502 -0.9741289999999999 1.851558
v -0.175111 -0.9742209999999999 1.851558
v -1.363502 -0.9741289999999999 1.851558
v -1.364132 -0.8398249999999999 1.851558
v -1.420632 -0.8420029999999998 1.855543
v -1.403733 -0.9728849999999999 1.855543
v -1.468036 -0.8402399999999999 1.855543
v -1.431157 -0.9723549999999999 1.855543
v -1.529 -0.8323919999999999 1.855543
v -1.456888 -0.9750379999999998 1.855543
v -1.597437 -0.8491179999999999 1.855543
v -1.477279 -0.9855779999999998 1.855543
v -1.630231 -0.8902709999999999 1.855543
v -1.491613 -0.9991899999999999 1.855543
v -1.635586 -0.9594689999999999 1.855543
v -1.500013 -1.0259939999999999 1.855543
v -1.632698 -1.0070029999999999 1.855543
v -1.501984 -1.0466849999999999 1.855543
v -1.63169 -1.0530609999999998 1.855543
v -1.50072 -1.0753189999999997 1.855543
v -1.635216 -1.1061329999999998 1.851558
v -1.502316 -1.1095909999999998 1.851558
v -1.502316 -2.232822 1.8515580000000003
v -1.638747 -2.235341 1.8515580000000003
v -1.63642 -2.284951 1.8555430000000002
v -1.505538 -2.268052 1.8555430000000002
v -1.638184 -2.332355 1.8555430000000002
v -1.506069 -2.295475 1.8555430000000002
v -1.646032 -2.393318 1.8555430000000002
v -1.503386 -2.321206 1.8555430000000002
v -1.629306 -2.461755 1.8555430000000002
v -1.492846 -2.341598 1.8555430000000002
v -1.588153 -2.494549 1.8555430000000002
v -1.479234 -2.355931 1.8555430000000002
v -1.518955 -2.499904 1.8555430000000002
v -1.45243 -2.364331 1.8555430000000002
v -1.471421 -2.497016 1.8555430000000002
v -1.431739 -2.366302 1.8555430000000002
v -1.425363 -2.496008 1.8555430000000002
v -1.403104 -2.365038 1.8555430000000002
v -1.373867 -2.497038 1.8515580000000003
v -1.371583 -2.365305 1.8515580000000003
v 1.729515 -2.870855 0.037393000000000176
v 1.763957 -2.742318 0.03739300000000017
v 0.787477 -2.48067 1.6835410000000002
v 0.753035 -2.609208 1.6835410000000002
v -0.096369 -2.249624 1.6832330000000002
v -0.095351 -2.387656 1.6832330000000002
v 0.952086 1.989002 1.0438379999999998
v 0.963454 2.120884 1.0438379999999998
v -0.576152 2.122668 1.0438379999999998
v -0.576152 1.989002 1.0438379999999998
v -1.654371 2.216407 0.042402999999999864
v -1.625533 2.346486 0.04240299999999986
v 0.028463 -2.350694 1.6733570000000002
v -0.005518 -2.285169 1.6733570000000002
v -0.045296 -2.288609 1.7218320000000003
v -0.038349 -2.333501 1.7428370000000002
v -0.033874 -2.390995 1.6733570000000002
v -0.103912 -2.281075 1.7637590000000003
v -0.066177 -2.366539 1.7218320000000003
v -0.112719 -2.313943 1.7728740000000003
v -0.120437 -2.342748 1.7637590000000003
vt 0.001835 0.000384
vt 0.263537 0.000387
vt 0.261323 0.312260
vt 0.001835 0.312258
vt 0.369061 0.000387
vt 0.583949 0.000389
vt 0.581817 0.315108
vt 0.370790 0.315106
vt 1.000200 0.315111
vt 0.682188 0.315109
vt 0.684608 0.000390
vt 1.000200 0.000392
vt 0.684857 -0.000839
vt 0.684857 0.316607
vt 0.673703 0.316607
vt 0.673703 -0.000839
vt 0.662550 0.316607
vt 0.662550 -0.000839
vt 0.651396 0.316607
vt 0.651396 -0.000839
vt 0.640242 0.316607
vt 0.640242 -0.000839
vt 0.629089 0.316607
vt 0.629088 -0.000839
vt 0.617935 0.316607
vt 0.617935 -0.000839
vt 0.606781 0.316607
vt 0.606781 -0.000839
vt 0.595627 0.316607
vt 0.595627 -0.000839
vt 0.584474 0.316607
vt 0.584473 -0.000839
vt 0.371472 -0.000745
vt 0.371472 0.317247
vt 0.359399 0.317247
vt 0.359399 -0.000745
vt 0.347326 0.317247
vt 0.347326 -0.000745
vt 0.335254 0.317247
vt 0.335254 -0.000745
vt 0.323181 0.317247
vt 0.323181 -0.000745
vt 0.311108 0.317247
vt 0.311108 -0.000745
vt 0.299035 0.317247
vt 0.299035 -0.000745
vt 0.286962 0.317247
vt 0.286962 -0.000745
vt 0.274889 0.317247
vt 0.274889 -0.000745
vt 0.262816 0.317247
vt 0.262816 -0.000745
vt -0.000062 0.316127
vt -0.000062 0.001060
vt 0.490086 0.001066
vt 0.490086 0.316133
vt 0.998939 0.001072
vt 0.998939 0.316139
vt 0.998940 0.001072
vt 0.998939 0.316138
vt 0.499439 0.316133
vt 0.499439 0.001066
vt -0.000061 0.001061
vt -0.000061 0.316127
vt 0.037411 0.414023
vt 0.037411 0.284512
vt 0.055443 0.284512
vt 0.055443 0.430772
vt 0.037411 0.559820
vt 0.073476 0.284512
vt 0.055443 0.559820
vt 0.073476 0.447521
vt 0.073476 0.559820
vn 0 6.123233995736766E-17 1
vn 0 6.123233995736766E-17 1
vn 0 6.123233995736766E-17 1
vn 0 6.123233995736766E-17 1
vn 0 6.123233995736766E-17 1
vn 0 6.123233995736766E-17 1
vn 0 6.123233995736766E-17 1
vn 0 6.123233995736766E-17 1
vn 0 6.123233995736766E-17 1
vn 0 6.123233995736766E-17 1
vn 0 6.123233995736766E-17 1
vn 0 6.123233995736766E-17 1
vn 0.084658 0.006554000000000061 0.996388
vn 0.070343 0.0003300000000000611 0.997523
vn 0.056482 0.004373000000000061 0.998394
vn 0.033021 0.004264000000000062 0.999446
vn 0 6.123233995736766E-17 1
vn 0 6.123233995736766E-17 1
vn 0 6.123233995736766E-17 1
vn 0 6.123233995736766E-17 1
vn 0 6.123233995736766E-17 1
vn 0 6.123233995736766E-17 1
vn 0 6.123233995736766E-17 1
vn 0 6.123233995736766E-17 1
vn 0 6.123233995736766E-17 1
vn 0 6.123233995736766E-17 1
vn 0 6.123233995736766E-17 1
vn 0 6.123233995736766E-17 1
vn -0.004197 -0.02469499999999994 0.999686
vn -0.005201 -0.06320599999999994 0.997987
vn -0.007794 -0.09472099999999994 0.995473
vn -0.003002 -0.11535999999999995 0.993319
vn -0.008081 0.09687400000000006 0.995264
vn -0.001477 0.08000100000000006 0.996794
vn -0.005393 0.06464700000000005 0.997894
vn -0.004901 0.037961000000000064 0.999267
vn 0 6.123233995736766E-17 1
vn 0 6.123233995736766E-17 1
vn 0 6.123233995736766E-17 1
vn 0 6.123233995736766E-17 1
vn 0 6.123233995736766E-17 1
vn 0 6.123233995736766E-17 1
vn 0 6.123233995736766E-17 1
vn 0 6.123233995736766E-17 1
vn 0 6.123233995736766E-17 1
vn 0 6.123233995736766E-17 1
vn 0 6.123233995736766E-17 1
vn 0 6.123233995736766E-17 1
vn 0.025647 -0.0043589999999999384 0.999662
vn 0.067524 -0.00508699999999994 0.997705
vn 0.10118 -0.007622999999999939 0.994839
vn 0.125408 -0.0021739999999999394 0.992103
vn 0.823104 -0.22054999999999997 0.523313
vn 0.823104 -0.22054999999999997 0.523313
vn 0.618033 -0.16560099999999994 0.768513
vn 0.308819 -0.08278499999999994 0.947511
vn -0.000345 4.200000000006123E-05 1
vn -0.000364 -2.9999999999387676E-06 1
vn 0 6.123233995736766E-17 1
vn 0 6.123233995736766E-17 1
vn -0.362082 0.039707000000000055 0.9313
vn -0.365572 5.699402108253854E-17 0.930783
vn -0.675204 0.07404600000000004 0.733905
vn -0.66615 0.14768300000000006 0.73105
vn 0.720736 0.028466000000000043 0.692625
vn 0.70639 0.36632600000000004 0.605656
vn 0.662848 0.39219300000000007 0.637822
vn 0.523335 -0.20783499999999994 0.826393
vn 0.40774 -0.690412 0.597561
vn 0.491534 0.28651400000000005 0.822377
vn 0.335075 -0.57812 0.743977
vn 0.359001 -0.30292899999999995 0.88281
vn 0.456978 -0.3773099999999999 0.805486
g water
f 1/1/1 2/2/2 3/3/3
f 3/3/3 4/4/4 1/1/1
f 5/5/5 6/6/6 7/7/7
f 7/7/7 8/8/8 5/5/5
f 9/9/9 10/10/10 11/11/11
f 11/11/11 12/12/12 9/9/9
f 13/13/13 14/14/14 15/15/15
f 15/15/15 16/16/16 13/13/13
f 16/16/16 15/15/15 17/17/17
f 17/17/17 18/18/18 16/16/16
f 18/18/18 17/17/17 19/19/19
f 19/19/19 20/20/20 18/18/18
f 20/20/20 19/19/19 21/21/21
f 21/21/21 22/22/22 20/20/20
f 22/22/22 21/21/21 23/23/23
f 23/23/23 24/24/24 22/22/22
f 24/24/24 23/23/23 25/25/25
f 25/25/25 26/26/26 24/24/24
f 26/26/26 25/25/25 27/27/27
f 27/27/27 28/28/28 26/26/26
f 28/28/28 27/27/27 29/29/29
f 29/29/29 30/30/30 28/28/28
f 30/30/30 29/29/29 31/31/31
f 31/31/31 32/32/32 30/30/30
f 33/33/33 34/34/34 35/35/35
f 35/35/35 36/36/36 33/33/33
f 36/36/36 35/35/35 37/37/37
f 37/37/37 38/38/38 36/36/36
f 38/38/38 37/37/37 39/39/39
f 39/39/39 40/40/40 38/38/38
f 40/40/40 39/39/39 41/41/41
f 41/41/41 42/42/42 40/40/40
f 42/42/42 41/41/41 43/43/43
f 43/43/43 44/44/44 42/42/42
f 44/44/44 43/43/43 45/45/45
f 45/45/45 46/46/46 44/44/44
f 46/46/46 45/45/45 47/47/47
f 47/47/47 48/48/48 46/46/46
f 48/48/48 47/47/47 49/49/49
f 49/49/49 50/50/50 48/48/48
f 50/50/50 49/49/49 51/51/51
f 51/51/51 52/52/52 50/50/50
f 53/53/53 54/54/54 55/55/55
f 55/55/55 56/56/56 53/53/53
f 56/56/56 55/55/55 57/57/57
f 57/57/57 58/58/58 56/56/56
f 59/59/59 60/60/60 61/61/61
f 61/61/61 62/62/62 59/59/59
f 63/63/63 62/62/62 61/61/61
f 61/61/61 64/64/64 63/63/63
f 65/65/65 66/66/66 67/67/67
f 67/67/67 68/68/68 65/65/65
f 69/69/69 65/65/65 68/68/68
f 68/68/68 67/67/67 70/70/70
f 68/68/68 71/71/71 69/69/69
f 70/70/70 72/72/72 68/68/68
f 71/71/71 68/68/68 72/72/72
f 72/72/72 73/73/73 71/71/71
