v -0.175133 0.310065 -0.21090100000000003
v -0.184307 0.335001 0.23743999999999998
v -0.153939 0.267775 0.24179999999999996
v -0.144764 0.24284 -0.20654100000000003
v -0.355493 0.11447599999999998 -0.25263
v -0.365665 0.14212300000000003 0.244456
v -0.296569 0.11608600000000001 0.247318
v -0.286396 0.08843899999999999 -0.249768
v -0.347311 -0.14982300000000004 -0.237763
v -0.371849 -0.161125 0.165208
v -0.3045 -0.130721 0.164895
v -0.279961 -0.11941900000000001 -0.238075
v -0.154381 -0.33072 -0.22375299999999998
v -0.187654 -0.335245 0.19150300000000003
v -0.161505 -0.266211 0.18819800000000003
v -0.128231 -0.261686 -0.22705799999999998
v 0.109254 -0.31946 -0.16867899999999997
v 0.100108 -0.294601 0.278277
v 0.06974 -0.22737599999999997 0.273917
v 0.078886 -0.252235 -0.17303899999999997
v 0.291638 -0.12937 -0.225825
v 0.28264 -0.10491599999999998 0.213862
v 0.213544 -0.07887899999999999 0.211
v 0.222542 -0.10333400000000001 -0.228687
v 0.283456 0.13492799999999996 -0.240692
v 0.273283 0.16257500000000003 0.256394
v 0.205934 0.13217100000000004 0.256706
v 0.216106 0.10452399999999999 -0.240379
v -0.33 -0.175026 -0.07013099999999999
v -0.262651 -0.144622 -0.07044399999999999
v -0.194484 -0.367616 -0.10370499999999998
v -0.168334 -0.298582 -0.10700899999999999
v 0.056761 0.232029 -0.20181500000000002
v 0.047585 0.256965 0.24652499999999997
v 0.073193 0.324568 0.24328899999999998
v 0.082368 0.299632 -0.20505100000000004
v -0.184307 0.335001 0.23743999999999998
v -0.365665 0.14212300000000003 0.244456
v -0.153939 0.267775 0.24179999999999996
v -0.296569 0.11608600000000001 0.247318
v -0.144764 0.24284 -0.20654100000000003
v -0.175133 0.310065 -0.21090100000000003
v -0.355493 0.11447599999999998 -0.25263
v -0.286396 0.08843899999999999 -0.249768
v -0.355493 0.11447599999999998 -0.25263
v -0.365665 0.14212300000000003 0.244456
v -0.371849 -0.161125 0.165208
v -0.296569 0.11608600000000001 0.247318
v -0.286396 0.08843899999999999 -0.249768
v -0.3045 -0.130721 0.164895
v -0.347311 -0.14982300000000004 -0.237763
v -0.279961 -0.11941900000000001 -0.238075
v -0.371849 -0.161125 0.165208
v -0.3045 -0.130721 0.164895
v -0.3045 -0.130721 0.164895
v -0.262651 -0.144622 -0.07044399999999999
v -0.161505 -0.266211 0.18819800000000003
v -0.187654 -0.335245 0.19150300000000003
v -0.161505 -0.266211 0.18819800000000003
v 0.06974 -0.22737599999999997 0.273917
v -0.154381 -0.33072 -0.22375299999999998
v 0.109254 -0.31946 -0.16867899999999997
v 0.078886 -0.252235 -0.17303899999999997
v 0.100108 -0.294601 0.278277
v 0.28264 -0.10491599999999998 0.213862
v 0.213544 -0.07887899999999999 0.211
v 0.291638 -0.12937 -0.225825
v 0.222542 -0.10333400000000001 -0.228687
v 0.273283 0.16257500000000003 0.256394
v 0.205934 0.13217100000000004 0.256706
v 0.283456 0.13492799999999996 -0.240692
v 0.216106 0.10452399999999999 -0.240379
v -0.371849 -0.161125 0.165208
v -0.187654 -0.335245 0.19150300000000003
v -0.194484 -0.367616 -0.10370499999999998
v -0.33 -0.175026 -0.07013099999999999
v -0.33 -0.175026 -0.07013099999999999
v -0.262651 -0.144622 -0.07044399999999999
v -0.279961 -0.11941900000000001 -0.238075
v -0.347311 -0.14982300000000004 -0.237763
v -0.168334 -0.298582 -0.10700899999999999
v -0.262651 -0.144622 -0.07044399999999999
v -0.33 -0.175026 -0.07013099999999999
v -0.194484 -0.367616 -0.10370499999999998
v -0.154381 -0.33072 -0.22375299999999998
v -0.128231 -0.261686 -0.22705799999999998
v -0.168334 -0.298582 -0.10700899999999999
v -0.194484 -0.367616 -0.10370499999999998
v 0.216106 0.10452399999999999 -0.240379
v 0.205934 0.13217100000000004 0.256706
v 0.273283 0.16257500000000003 0.256394
v 0.283456 0.13492799999999996 -0.240692
v 0.073193 0.324568 0.24328899999999998
v 0.047585 0.256965 0.24652499999999997
v 0.056761 0.232029 -0.20181500000000002
v 0.082368 0.299632 -0.20505100000000004
v -0.144764 0.24284 -0.20654100000000003
v -0.153939 0.267775 0.24179999999999996
v -0.184307 0.335001 0.23743999999999998
v -0.175133 0.310065 -0.21090100000000003
v 0.273283 0.16257500000000003 0.256394
v 0.205934 0.13217100000000004 0.256706
v -0.168334 -0.298582 -0.10700899999999999
v -0.128231 -0.261686 -0.22705799999999998
v 0.073193 0.324568 0.24328899999999998
vt 0.502681 0.552334
vt 0.516435 0.373294
vt 0.750098 0.017467
vt 0.503239 0.552277
vt 0.456941 0.573490
vt 0.476695 0.385704
vt 0.792795 0.044034
vt 0.456351 0.572406
vt 0.417996 0.560317
vt 0.420613 0.400039
vt 0.844585 0.044590
vt 0.418265 0.561678
vt 0.721144 0.549553
vt 0.354472 0.174899
vt 0.343084 0.190996
vt 0.288939 0.798756
vt 0.674110 0.555975
vt 0.374610 0.278559
vt 0.361629 0.287299
vt 0.674148 0.555946
vt 0.628666 0.574531
vt 0.633501 0.410396
vt 0.368949 0.374571
vt 0.627897 0.574067
vt 0.587202 0.574372
vt 0.591516 0.383388
vt 0.354577 0.461251
vt 0.588004 0.574787
vt 0.408858 0.479055
vt 0.408767 0.481081
vt 0.736295 0.475942
vt 0.736001 0.477405
vt 0.544513 0.564791
vt 0.554195 0.372183
vt 0.553758 0.372674
vt 0.544139 0.563776
vt 0.746636 0.042609
vt 0.791356 0.071981
vt 0.515835 0.373776
vt 0.476274 0.384617
vt 0.327374 0.395019
vt 0.339598 0.395014
vt 0.338626 0.305530
vt 0.326276 0.308872
vt 0.456941 0.573490
vt 0.476695 0.385704
vt 0.850563 0.069409
vt 0.476274 0.384617
vt 0.456351 0.572406
vt 0.420796 0.400794
vt 0.328335 0.217188
vt 0.317055 0.230188
vt 0.320492 0.107593
vt 0.314960 0.133998
vt 0.776405 0.397503
vt 0.776532 0.472984
vt 0.729759 0.401249
vt 0.729759 0.401249
vt 0.729759 0.401249
vt 0.677460 0.405324
vt 0.296145 0.820883
vt 0.320117 0.739038
vt 0.308147 0.730239
vt 0.677460 0.405324
vt 0.382942 0.376726
vt 0.633501 0.410396
vt 0.326561 0.650155
vt 0.314777 0.646008
vt 0.366964 0.467860
vt 0.591087 0.384248
vt 0.333883 0.565153
vt 0.321741 0.561816
vt 0.776405 0.397503
vt 0.729759 0.401249
vt 0.736295 0.475942
vt 0.776918 0.470655
vt 0.316583 0.162423
vt 0.304413 0.171992
vt 0.317055 0.230188
vt 0.328335 0.217188
vt 0.289826 0.112148
vt 0.304413 0.171992
vt 0.316583 0.162423
vt 0.295544 0.088714
vt 0.296145 0.820883
vt 0.288939 0.798756
vt 0.275712 0.836835
vt 0.282224 0.859902
vt 0.588004 0.574787
vt 0.591087 0.384248
vt 0.591516 0.383388
vt 0.587202 0.574372
vt 0.708158 0.026883
vt 0.706778 0.006857
vt 0.322902 0.477202
vt 0.334742 0.479043
vt 0.503239 0.552277
vt 0.515835 0.373776
vt 0.516435 0.373294
vt 0.502681 0.552334
vt 0.672754 0.062593
vt 0.666034 0.040756
vt 0.736001 0.477405
vt 0.721207 0.549011
vt 0.708158 0.026883
vn -0.728468 0.683035 -0.05289700000000004
vn -0.728468 0.683035 -0.05289700000000004
vn -0.020428 0.05552000000000006 0.998249
vn 0.728468 -0.683035 0.05289700000000004
vn -0.728468 0.683035 -0.05289700000000004
vn -0.728468 0.683035 -0.05289700000000004
vn -0.066465 -0.06695699999999995 0.99554
vn 0.728468 -0.683035 0.05289700000000004
vn -0.994775 -0.025231999999999994 0.098929
vn -0.923108 -0.380802 -0.05349599999999998
vn -0.029164 -0.15141799999999994 0.98804
vn 0.992199 0.122073 -0.025280000000000007
vn 0.095945 -0.960013 -0.26300299999999993
vn -0.243228 0.06543800000000005 0.967759
vn -0.165064 0.12715500000000005 0.978052
vn 0.229892 -0.03768000000000006 -0.972487
vn 0.396036 -0.918235 0.0007750000000000562
vn 0.007814 0.12917900000000004 0.991591
vn -0.141896 0.10109700000000006 0.984706
vn -0.314406 0.949214 0.01193299999999994
vn 0.974682 -0.221256 0.03225200000000002
vn 0.87788 -0.47681 0.04448400000000003
vn 0.062592 0.07739800000000005 0.995034
vn -0.87788 0.47681 -0.04448400000000003
vn 0.999314 0.031988 0.018670999999999997
vn 0.999314 0.031988 0.018670999999999997
vn -0.022124 -0.06496799999999994 0.997642
vn -0.999314 -0.031988 -0.018670999999999997
vn -0.962017 -0.266178 -0.06060299999999998
vn 0.973625 0.213301 0.08097499999999999
vn 0.139074 -0.986936 -0.08133799999999994
vn 0.788059 0.615424 0.014713999999999961
vn -0.353877 -0.934222 0.044718000000000056
vn -0.353877 -0.934222 0.044718000000000056
vn 0.353878 0.934222 -0.044718000000000056
vn 0.353877 0.934222 -0.044718000000000056
vn -0.020427 0.05551900000000006 0.998249
vn -0.01928 -0.17211499999999993 0.984888
vn 0.728468 -0.683035 0.05289700000000004
vn 0.728468 -0.683035 0.05289700000000004
vn 0.087157 0.022916999999999937 -0.995931
vn 0.109949 -0.01479200000000006 -0.993827
vn 0.109357 0.04919999999999994 -0.992784
vn 0.049572 0.02179099999999994 -0.998533
vn -0.997632 -0.062661 -0.028362999999999996
vn -0.999419 0.026105 -0.021904
vn -0.000552 -0.020303999999999937 0.999794
vn 0.997735 0.051161 0.043665
vn 0.999314 0.031988 0.018670999999999997
vn 0.911845 0.403602 0.07512699999999997
vn 0.020428 -0.05552100000000006 -0.998249
vn 0.020427 -0.05552000000000006 -0.998249
vn -0.000552 -0.020303999999999937 0.999794
vn -0.029164 -0.15141799999999994 0.98804
vn 0.911845 0.403602 0.07512699999999997
vn 0.973625 0.213301 0.08097499999999999
vn 0.692794 0.714928 -0.09442300000000005
vn 0.150008 -0.985404 0.08047100000000006
vn -0.177109 0.980942 -0.07990800000000006
vn -0.561556 0.825445 -0.05740100000000005
vn 0.208003 -0.12522300000000006 -0.970079
vn 0.100349 -0.07224700000000006 -0.992326
vn 0.005848 -0.12882600000000005 -0.99165
vn 0.452438 -0.889859 0.05875100000000005
vn 0.004903 -0.034467999999999936 0.999394
vn -0.974682 0.221256 -0.03225200000000002
vn -0.071345 -0.16199800000000006 -0.984209
vn -0.009648 -0.13452600000000006 -0.990863
vn 0.027029 -0.04960399999999994 0.998403
vn -0.999314 -0.031987 -0.018670999999999997
vn -0.008165 0.007798999999999939 -0.999936
vn -0.085649 0.03750199999999994 -0.995619
vn -0.923108 -0.380802 -0.05349599999999998
vn -0.690972 -0.716669 0.09457200000000004
vn -0.764554 -0.644492 -0.00938299999999996
vn -0.962017 -0.266178 -0.06060299999999998
vn 0.404299 -0.897402 -0.17666899999999994
vn 0.404299 -0.897402 -0.17666899999999994
vn 0.404299 -0.897402 -0.17666899999999994
vn 0.404299 -0.897402 -0.17666899999999994
vn -0.144077 0.10516699999999994 -0.983962
vn -0.085865 0.18011899999999995 -0.97989
vn -0.144077 0.10516699999999994 -0.983962
vn -0.20099 0.02926599999999994 -0.979156
vn -0.918872 0.338347 -0.20296700000000004
vn -0.918872 0.338347 -0.20296700000000004
vn -0.918872 0.338347 -0.20296700000000004
vn -0.918872 0.338347 -0.20296700000000004
vn -0.619907 -0.784065 0.03092200000000005
vn -0.619907 -0.784066 0.03092200000000005
vn 0.630141 0.775891 -0.03025800000000005
vn 0.630141 0.775891 -0.03025800000000005
vn -0.020428 0.05552000000000006 0.998249
vn -0.020428 0.05552000000000006 0.998249
vn -0.095618 -0.01142500000000006 -0.995353
vn -0.059088 0.014139999999999939 -0.998153
vn -0.054756 -0.99702 0.05433200000000006
vn -0.054757 -0.997021 0.05433200000000006
vn 0.04166 0.997637 -0.054634000000000064
vn 0.04166 0.997637 -0.054634000000000064
vn 0.027029 -0.04960399999999994 0.998403
vn -0.022124 -0.06496799999999994 0.997642
vn -0.163142 0.983399 0.07943999999999994
vn -0.111053 0.959773 0.2578829999999999
vn -0.020428 0.05552000000000006 0.998249
g 10 - Default
f 103/103/103 59/59/59 20/20/20
f 20/20/20 104/104/104 103/103/103
f 17/17/17 64/64/64 58/58/58
f 72/72/72 95/95/95 96/96/96
f 96/96/96 71/71/71 72/72/72
f 93/93/93 94/94/94 102/102/102
f 102/102/102 101/101/101 105/105/105
f 99/99/99 35/35/35 36/36/36
f 36/36/36 100/100/100 99/99/99
f 97/97/97 33/33/33 34/34/34
f 34/34/34 98/98/98 97/97/97
f 41/41/41 42/42/42 96/96/96
f 96/96/96 95/95/95 41/41/41
f 93/93/93 37/37/37 3/3/3
f 3/3/3 94/94/94 93/93/93
f 91/91/91 92/92/92 36/36/36
f 36/36/36 35/35/35 91/91/91
f 89/89/89 90/90/90 34/34/34
f 34/34/34 33/33/33 89/89/89
f 85/85/85 88/88/88 87/87/87
f 87/87/87 86/86/86 85/85/85
f 81/81/81 84/84/84 83/83/83
f 83/83/83 82/82/82 81/81/81
f 77/77/77 80/80/80 79/79/79
f 79/79/79 78/78/78 77/77/77
f 73/73/73 76/76/76 75/75/75
f 75/75/75 74/74/74 73/73/73
f 68/68/68 72/72/72 71/71/71
f 71/71/71 67/67/67 68/68/68
f 66/66/66 70/70/70 28/28/28
f 28/28/28 24/24/24 66/66/66
f 65/65/65 69/69/69 27/27/27
f 27/27/27 23/23/23 65/65/65
f 21/21/21 25/25/25 26/26/26
f 26/26/26 22/22/22 21/21/21
f 63/63/63 68/68/68 67/67/67
f 67/67/67 62/62/62 63/63/63
f 60/60/60 66/66/66 24/24/24
f 24/24/24 20/20/20 60/60/60
f 18/18/18 65/65/65 23/23/23
f 23/23/23 19/19/19 18/18/18
f 17/17/17 21/21/21 22/22/22
f 22/22/22 64/64/64 17/17/17
f 16/16/16 63/63/63 62/62/62
f 62/62/62 61/61/61 16/16/16
f 60/60/60 20/20/20 59/59/59
f 14/14/14 18/18/18 19/19/19
f 19/19/19 15/15/15 14/14/14
f 31/31/31 13/13/13 17/17/17
f 17/17/17 58/58/58 31/31/31
f 55/55/55 57/57/57 32/32/32
f 32/32/32 56/56/56 55/55/55
f 53/53/53 14/14/14 15/15/15
f 15/15/15 54/54/54 53/53/53
f 44/44/44 52/52/52 51/51/51
f 51/51/51 43/43/43 44/44/44
f 50/50/50 30/30/30 48/48/48
f 30/30/30 12/12/12 48/48/48
f 12/12/12 49/49/49 48/48/48
f 38/38/38 47/47/47 11/11/11
f 11/11/11 7/7/7 38/38/38
f 9/9/9 29/29/29 45/45/45
f 29/29/29 10/10/10 45/45/45
f 10/10/10 46/46/46 45/45/45
f 41/41/41 44/44/44 43/43/43
f 43/43/43 42/42/42 41/41/41
f 39/39/39 40/40/40 8/8/8
f 8/8/8 4/4/4 39/39/39
f 37/37/37 38/38/38 7/7/7
f 7/7/7 3/3/3 37/37/37
f 1/1/1 5/5/5 6/6/6
f 6/6/6 2/2/2 1/1/1
