v 2.078123 0.368011 -2.253417466005083E-17
v 2.075106 0.060899000000000016 0.21142
v 2.337022 0.040218 -2.4626422484054125E-18
v 2.32068 -0.053921 3.3017090028412214E-18
v 2.057348 -0.05837699999999999 0.118896
v 2.031694 -0.238037 0.002197000000000015
v -1.514627 -0.346618 2.1224231211342862E-17
v -1.475264 -0.09311999999999998 0.199213
v -1.752632 -0.09841 6.025874575204551E-18
v 1.113855 -0.014737 9.023809939517273E-19
v 0.83259 -0.019191999999999994 0.125488
v 0.824869 -0.265381 0.002197000000000016
v -2.160062 -0.08047799999999995 0.605835
v -2.479507 -0.08047799999999995 0.737648
v -2.479507 -0.119785 7.334715841793286E-18
v -1.840618 0.025791000000000057 0.886475
v -1.423928 0.02579100000000006 0.938193
v -1.517372 0.053379 -3.2685210745843285E-18
v -1.840618 0.025791000000000057 0.886475
v -2.166225 0.01912400000000004 0.654015
v -2.160062 -0.08047799999999995 0.605835
v -2.160062 -0.08047799999999995 0.605835
v -1.840618 -0.08047799999999994 0.908925
v -1.840618 0.025791000000000057 0.886475
v -1.517372 0.053379 -3.2685210745843285E-18
v -2.479507 0.08884 -5.439881081812543E-18
v -2.166225 0.01912400000000004 0.654015
v -2.166225 0.01912400000000004 0.654015
v -1.840618 0.025791000000000057 0.886475
v -1.517372 0.053379 -3.2685210745843285E-18
v -2.160062 -0.08047799999999995 0.605835
v -2.479507 -0.119785 7.334715841793286E-18
v -1.487619 -0.109958 6.732985637032233E-18
v -1.487619 -0.109958 6.732985637032233E-18
v -1.840618 -0.08047799999999994 0.908925
v -2.160062 -0.08047799999999995 0.605835
v -1.840618 0.025791000000000057 0.886475
v -1.840618 -0.08047799999999994 0.908925
v -1.423928 -0.08047799999999994 0.958333
v -1.423928 -0.08047799999999994 0.958333
v -1.423928 0.02579100000000006 0.938193
v -1.840618 0.025791000000000057 0.886475
v -1.487619 -0.109958 6.732985637032233E-18
v -1.423928 -0.08047799999999994 0.958333
v -1.840618 -0.08047799999999994 0.908925
v -2.479507 0.02579100000000005 0.791738
v -2.166225 0.01912400000000004 0.654015
v -2.479507 0.08884 -5.439881081812543E-18
v -2.479507 0.02579100000000005 0.791738
v -2.479507 -0.08047799999999995 0.737648
v -2.160062 -0.08047799999999995 0.605835
v -2.160062 -0.08047799999999995 0.605835
v -2.166225 0.01912400000000004 0.654015
v -2.479507 0.02579100000000005 0.791738
v -0.750838 -0.3296239999999999 1.156609
v -0.292958 0.15530700000000008 1.163307
v -0.753523 0.15530700000000008 1.156609
v -0.809166 0.2312740000000001 1.178216
v -1.321623 0.2312740000000001 1.189424
v -1.321623 -0.30840999999999996 1.189424
v -0.80648 -0.30840999999999996 1.178216
v 1.288968 -0.17221799999999998 0.403904
v 1.273552 -0.172218 1.0545311122777944E-17
v 1.36253 -0.172218 1.0545311122777944E-17
v 1.373149 -0.17221799999999998 0.403904
v -1.402361 0.15451600000000004 0.978977
v -1.428098 0.154516 -9.461376240852621E-18
v -1.523907 0.154516 -9.461376240852621E-18
v -1.486541 0.15451600000000004 0.978977
v -0.767705 0.2456840000000001 1.38646
v -0.761702 0.15530700000000008 1.38646
v -0.327251 0.15530700000000008 1.393628
v -0.327251 0.2456840000000001 1.393628
v -0.753523 0.15530700000000008 1.156609
v -0.292958 0.15530700000000008 1.163307
v -0.327251 0.15530700000000008 1.393628
v -0.761702 0.15530700000000008 1.38646
v -0.776 0.297207 0.12548799999999996
v -0.95566 0.304928 -1.8671454958520205E-17
v -0.839937 0.053143 -3.25407024235439E-18
v -0.771544 0.015942000000000008 0.091064
v -0.95566 -0.088764 5.435227423975783E-18
v -0.783224 -0.342476 0.251946
v -1.189825 -0.187 1.1450447572027752E-17
v -1.125098 -0.345364 0.11816400000000003
v -1.422034 -0.345364 0.24437800000000004
v -1.486761 -0.187 0.138176
v -1.486761 -0.007801 0.0019460000000000005
v -0.399958 0.004052000000000059 0.963716
v -0.292958 0.15530700000000008 1.163307
v -0.750838 -0.3296239999999999 1.156609
v -0.502391 -0.05285499999999995 0.74667
v -0.734276 -0.295784 0.343441
v -0.50835 -0.08614 5.27455376392765E-18
v -0.717713 -0.261945 1.603950529013267E-17
v 1.366136 0.33469 0.12548799999999996
v 1.358415 0.155029 -9.492788431250752E-18
v 1.6102 0.270752 -1.6578778508137207E-17
v 1.647401 0.339145 0.09106399999999999
v 1.752107 0.155029 -9.492788431250752E-18
v 2.005819 0.327466 0.251946
v 1.850343 -0.079135 4.8456212225262895E-18
v 2.008708 -0.014407999999999994 0.118164
v 2.008708 -0.311344 0.24437800000000004
v 1.850343 -0.376072 0.13817600000000002
v 1.671144 -0.376072 0.001946000000000023
v -0.757951 -0.3539119999999999 1.491672
v -1.111428 -0.3539119999999999 1.491672
v -1.464905 -0.35391199999999995 1.242771
v -0.754479 -0.3491989999999999 0.70552
v -1.443033 -0.3152769999999999 0.610887
v -0.713949 -0.397931 2.436624627157527E-17
v -1.523907 -0.411509 2.519765898351641E-17
v 2.003847 -0.314799 1.927587938623938E-17
v 1.582419 -0.322292 1.973469330953994E-17
v 1.729058 -0.311806 0.17076300000000003
v 1.980461 -0.29196999999999995 0.779453
v 1.833856 -0.29196999999999995 0.702549
v 2.068872 0.384879 -2.356704177045171E-17
v 1.327595 0.344976 -2.1123687709132866E-17
v 1.310604 0.38060800000000006 0.667697
v 2.057908 0.38060800000000006 0.916599
v 1.704431 0.38060800000000006 0.916599
v 2.054946 0.08884 -5.439881081812543E-18
v 2.054946 0.02579100000000005 0.791738
v 2.368228 0.01912400000000004 0.654015
v 2.5 0.074896 -4.586057333447009E-18
v 2.5 0.021822000000000046 0.748091
v 2.068872 0.384879 -2.356704177045171E-17
v 2.057908 0.38060800000000006 0.916599
v 2.057908 -0.13513299999999995 0.916599
v 2.061701 -0.306384 1.8760609245498132E-17
v 2.057908 -0.30252999999999997 0.820226
v 1.273552 -0.172218 1.0545311122777944E-17
v 1.288968 -0.17221799999999998 0.403904
v 1.310604 0.08199600000000003 0.453342
v 1.327595 0.344976 -2.1123687709132866E-17
v 1.310604 0.38060800000000006 0.667697
v 1.288968 -0.17221799999999998 0.403904
v 1.373149 -0.17221799999999998 0.403904
v 1.385396 0.044195000000000026 0.453342
v 1.310604 0.08199600000000003 0.453342
v 1.388051 0.3050050000000001 0.667697
v 1.310604 0.38060800000000006 0.667697
v 1.980461 0.3050050000000001 0.916599
v 2.005433 0.329382 -2.0168830599837677E-17
v 2.003847 -0.314799 1.927587938623938E-17
v 1.980461 -0.13513299999999995 0.916599
v 1.980461 -0.29196999999999995 0.779453
v 1.582419 -0.322292 1.973469330953994E-17
v 1.582419 -0.411595 2.520292496475274E-17
v 1.729058 -0.396372 0.17076300000000003
v 1.729058 -0.311806 0.17076300000000003
v 1.833856 -0.36757399999999996 0.702549
v 1.833856 -0.29196999999999995 0.702549
v 1.388051 0.3050050000000001 0.667697
v 1.366217 0.326319 -1.9981275942548258E-17
v 2.005433 0.329382 -2.0168830599837677E-17
v 1.704431 0.3050050000000001 0.916599
v 1.980461 0.3050050000000001 0.916599
v 1.373149 -0.17221799999999998 0.403904
v 1.36253 -0.172218 1.0545311122777944E-17
v 1.366217 0.326319 -1.9981275942548258E-17
v 1.385396 0.044195000000000026 0.453342
v 1.388051 0.3050050000000001 0.667697
v 1.308353 -0.016820999999999975 0.384694
v 1.225096 -0.04247099999999999 0.279264
v 1.308353 -0.016821 1.0299891904228813E-18
v 1.059826 -0.05722599999999998 0.316686
v 0.823125 -0.016821 1.0299891904228813E-18
v 0.823125 -0.017979999999999965 0.569265
v 0.994833 0.017149000000000046 0.716443
v 0.830327 0.03179700000000005 0.815786
v 0.814641 0.08481000000000005 0.871633
v 0.994833 0.08481000000000004 0.716931
v 1.059826 0.04440400000000002 0.316686
v 0.814641 0.08481 -5.193114751784351E-18
v 1.225096 0.05916000000000001 0.279264
v 1.308353 0.08481 -5.193114751784351E-18
v 1.317081 0.06564500000000002 0.384694
v -0.794758 -0.317981 1.9470720691983728E-17
v -0.835398 -0.27830899999999986 1.491672
v -0.835398 0.11743100000000009 1.491672
v -0.794758 0.300279 -1.8386785810058406E-17
v -0.835398 0.26060700000000003 1.354526
v -1.225503 0.29036100000000004 0.609979
v -1.364205 0.300279 -1.8386785810058406E-17
v -0.794758 0.300279 -1.8386785810058406E-17
v -1.0868 0.28044300000000005 0.745836
v -0.835398 0.26060700000000003 1.354526
v -0.982003 0.26060700000000003 1.277622
v -0.835398 -0.27830899999999986 1.491672
v -0.794758 -0.317981 1.9470720691983728E-17
v -1.428098 -0.317981 1.9470720691983728E-17
v -1.111428 -0.27830899999999986 1.491672
v -1.387458 -0.2783089999999999 1.242771
v 0.780094 0.270342 -1.655367324875469E-17
v 0.509754 0.191671 -1.1736463831968618E-17
v 0.552575 0.17649700000000001 0.263865
v 0.748646 0.22600000000000003 0.45336
v 0.527891 0.16278800000000002 0.516027
v 0.433226 0.24568400000000007 0.903546
v 0.791022 0.24568400000000007 0.995762
v 0.569268 0.2456840000000001 1.194426
v 0.428346 0.2456840000000001 1.244684
v 0.32291 0.24568400000000007 1.015778
v -0.327251 0.2456840000000001 1.393628
v -0.327251 0.15530700000000008 1.393628
v -0.292958 0.15530700000000008 1.163307
v -0.292627 0.24568400000000007 1.084553
v -0.399958 0.004052000000000059 0.963716
v 2.5 -0.08047799999999995 0.725014
v 2.374391 -0.08047799999999995 0.605835
v 2.5 -0.119785 7.334715841793286E-18
v 2.054946 -0.119785 7.334715841793286E-18
v 2.054946 -0.08047799999999995 0.737648
v 0.707112 0.10812100000000004 0.689091
v 0.76978 -0.035026999999999954 0.795784
v 0.77113 0.16362800000000005 0.952162
v 0.775153 -0.22422199999999998 0.366971
v 0.694894 0.111118 -6.8040151513827796E-18
v 0.720137 -0.353429 2.1641284678792493E-17
v 0.766444 -0.453539 2.777125423192457E-17
v 0.552575 0.17649700000000001 0.263865
v 0.509754 0.191671 -1.1736463831968618E-17
v 0.539369 0.133915 -8.19992880539089E-18
v 0.563837 0.13551200000000002 0.282931
v 0.527891 0.16278800000000002 0.516027
v 0.538135 0.11025400000000003 0.565863
v 0.402452 0.13843500000000006 0.967139
v 0.433226 0.24568400000000007 0.903546
v 0.32291 0.24568400000000007 1.015778
v 0.324165 0.12865000000000004 1.015054
v 1.225096 -0.04247099999999999 0.279264
v 1.308353 -0.016820999999999975 0.384694
v 1.317081 0.06564500000000002 0.384694
v 1.225096 0.05916000000000001 0.279264
v 1.059826 -0.05722599999999998 0.316686
v 1.059826 0.04440400000000002 0.316686
v 0.994833 0.017149000000000046 0.716443
v 0.994833 0.08481000000000004 0.716931
v 0.830327 0.03179700000000005 0.815786
v 0.814641 0.08481000000000005 0.871633
v -1.404472 -0.06189599999999994 1.028415
v -1.402361 0.15451600000000004 0.978977
v -1.486541 0.15451600000000004 0.978977
v -1.464905 -0.09969799999999993 1.028415
v -1.387458 -0.2783089999999999 1.242771
v -1.464905 -0.35391199999999995 1.242771
v -1.225503 0.3794080000000001 0.609979
v -1.364205 0.393807 -2.4113724101591087E-17
v -1.364205 0.300279 -1.8386785810058406E-17
v -1.225503 0.29036100000000004 0.609979
v -1.0868 0.36500900000000003 0.745836
v -1.0868 0.28044300000000005 0.745836
v -0.982003 0.33621000000000006 1.277622
v -0.982003 0.26060700000000003 1.277622
v -1.428098 -0.317981 1.9470720691983728E-17
v -1.404472 -0.06189599999999994 1.028415
v -1.387458 -0.2783089999999999 1.242771
v -1.402361 0.15451600000000004 0.978977
v -1.428098 0.154516 -9.461376240852621E-18
v 0.840322 0.19149700000000006 0.935496
v 0.791022 0.24568400000000007 0.995762
v 0.77113 0.16362800000000005 0.952162
v 0.560248 0.16840100000000008 1.184448
v 0.569268 0.2456840000000001 1.194426
v 0.385045 0.15530700000000008 1.269684
v 0.428346 0.2456840000000001 1.244684
v 0.833699 -0.05609099999999995 0.816391
v 0.840322 0.19149700000000006 0.935496
v 0.77113 0.16362800000000005 0.952162
v 0.76978 -0.035026999999999954 0.795784
v 0.866216 -0.24727699999999997 0.38288
v 0.775153 -0.22422199999999998 0.366971
v 0.840322 -0.453539 2.777125423192457E-17
v 0.766444 -0.453539 2.777125423192457E-17
v 0.342992 0.15530700000000006 1.088094
v 0.385045 0.15530700000000008 1.269684
v 0.428346 0.2456840000000001 1.244684
v 0.32291 0.24568400000000007 1.015778
v 0.324165 0.12865000000000004 1.015054
v -0.399958 0.004052000000000059 0.963716
v -0.50835 0.21856500000000006 0.734045
v -0.292627 0.24568400000000007 1.084553
v -0.502391 -0.05285499999999995 0.74667
v -0.50835 0.199272 -1.220189084798457E-17
v -0.50835 -0.08614 5.27455376392765E-18
v 0.694894 0.111118 -6.8040151513827796E-18
v 0.563837 0.13551200000000002 0.282931
v 0.539369 0.133915 -8.19992880539089E-18
v 0.538135 0.11025400000000003 0.565863
v 0.707112 0.10812100000000004 0.689091
v 0.77113 0.16362800000000005 0.952162
v 0.402452 0.13843500000000006 0.967139
v 0.560248 0.16840100000000008 1.184448
v 0.342992 0.15530700000000006 1.088094
v 0.324165 0.12865000000000004 1.015054
v 0.385045 0.15530700000000008 1.269684
v 2.054946 0.02579100000000005 0.791738
v 2.054946 -0.08047799999999995 0.737648
v 2.374391 -0.08047799999999995 0.605835
v 2.368228 0.01912400000000004 0.654015
v 2.5 0.013728000000000047 0.757176
v 2.5 -0.08047799999999995 0.725014
v 2.5 0.021822000000000046 0.748091
v 2.061701 -0.306384 1.8760609245498132E-17
v 2.057908 -0.30252999999999997 0.820226
v 1.98888 -0.36757399999999996 0.75576
v 1.989447 -0.400282 2.4510203502815042E-17
v 1.729058 -0.396372 0.17076300000000003
v 1.833856 -0.36757399999999996 0.702549
v 1.582419 -0.411595 2.520292496475274E-17
v 2.057908 -0.13513299999999995 0.916599
v 2.057908 0.38060800000000006 0.916599
v 1.980461 0.3050050000000001 0.916599
v 1.980461 -0.13513299999999995 0.916599
v 1.980461 -0.29196999999999995 0.779453
v 2.057908 -0.30252999999999997 0.820226
v 1.98888 -0.36757399999999996 0.75576
v 1.833856 -0.36757399999999996 0.702549
v 1.833856 -0.29196999999999995 0.702549
v 1.704431 0.38060800000000006 0.916599
v 1.310604 0.38060800000000006 0.667697
v 1.388051 0.3050050000000001 0.667697
v 1.704431 0.3050050000000001 0.916599
v 1.980461 0.3050050000000001 0.916599
v 2.057908 0.38060800000000006 0.916599
v 0.833472 -0.2597229999999999 0.487459
v 0.722339 -0.387186 -0.017114999999999974
v 0.498064 0.0012689999999999989 -0.017115
v 0.629728 0.07728600000000002 0.514283
v 0.803903 -0.08112499999999996 0.781627
v 0.935074 -0.26436299999999996 0.863652
v 0.821227 -0.26790899999999995 0.490987
v 0.92283 -0.27254899999999993 0.867181
v 0.791658 -0.08931099999999996 0.785155
v 0.617484 0.06909900000000002 0.517812
v 0.48582 -0.006917000000000001 -0.013587
v 0.710094 -0.395372 -0.013586999999999976
v -0.835398 -0.27830899999999986 1.491672
v -0.757951 -0.3539119999999999 1.491672
v -0.757951 0.11743100000000009 1.491672
v -0.835398 0.11743100000000009 1.491672
v -0.835398 0.26060700000000003 1.354526
v -0.757951 0.2711670000000001 1.3953
v -0.826978 0.33621000000000006 1.330833
v -0.982003 0.33621000000000006 1.277622
v -0.982003 0.26060700000000003 1.277622
v -1.387458 -0.2783089999999999 1.242771
v -1.464905 -0.35391199999999995 1.242771
v -1.111428 -0.3539119999999999 1.491672
v -1.111428 -0.27830899999999986 1.491672
v -0.835398 -0.27830899999999986 1.491672
v -0.757951 -0.3539119999999999 1.491672
v -1.523907 0.154516 -9.461376240852621E-18
v -1.523907 -0.411509 2.519765898351641E-17
v -1.443033 -0.3152769999999999 0.610887
v -1.464905 -0.09969799999999993 1.028415
v -1.464905 -0.35391199999999995 1.242771
v -1.486541 0.15451600000000004 0.978977
v -0.826978 0.33621000000000006 1.330833
v -0.757951 0.2711670000000001 1.3953
v -0.769432 0.33291500000000007 0.681533
v -1.0868 0.36500900000000003 0.745836
v -0.982003 0.33621000000000006 1.277622
v -0.733949 0.362141 -2.2174740824501082E-17
v -1.364205 0.393807 -2.4113724101591087E-17
v -1.225503 0.3794080000000001 0.609979
v -0.50835 0.21856500000000006 0.734045
v -0.50835 0.199272 -1.220189084798457E-17
v -0.559417 0.229306 -1.404094294626415E-17
v -0.748296 0.245684 -1.5043806210085917E-17
v -0.767705 0.2456840000000001 1.38646
v -0.327251 0.2456840000000001 1.393628
v -0.292627 0.24568400000000007 1.084553
v -0.754479 -0.3491989999999999 0.70552
v -0.713949 -0.397931 2.436624627157527E-17
v -0.698949 -0.008851 5.419674409626611E-19
v -0.757951 -0.3539119999999999 1.491672
v -0.757951 0.11743100000000009 1.491672
v -0.757951 0.2711670000000001 1.3953
v -0.769432 0.33291500000000007 0.681533
v -0.733949 0.362141 -2.2174740824501082E-17
v 0.748646 0.22600000000000003 0.45336
v 0.791022 0.24568400000000007 0.995762
v 0.840322 0.19149700000000006 0.935496
v 0.805596 0.19162300000000002 0.470045
v 0.780094 0.270342 -1.655367324875469E-17
v 0.840322 0.191458 -1.1723421343557697E-17
v 0.866216 -0.24727699999999997 0.38288
v 0.833699 -0.05609099999999995 0.816391
v 0.840322 -0.453539 2.777125423192457E-17
vt 0.792297 0.476829
vt 0.846101 0.393752
vt 0.867366 0.494740
vt 0.625488 0.429465
vt 0.625645 0.335254
vt 0.663330 0.341351
vt 0.071046 0.355344
vt 0.062623 0.470843
vt 0.004829 0.470750
vt 0.982030 0.051139
vt 0.938443 0.103131
vt 0.918839 0.012643
vt 0.937337 0.118668
vt 0.989718 0.076470
vt 0.989416 0.318167
vt 0.738015 0.022140
vt 0.806407 0.005361
vt 0.791084 0.310257
vt 0.825844 0.368611
vt 0.759819 0.363502
vt 0.759461 0.320861
vt 0.759461 0.320861
vt 0.827646 0.328695
vt 0.825844 0.368611
vt 0.791084 0.310257
vt 0.633186 0.312702
vt 0.684569 0.096868
vt 0.684569 0.096868
vt 0.738015 0.022140
vt 0.791084 0.310257
vt 0.937337 0.118668
vt 0.989416 0.318167
vt 0.815602 0.312427
vt 0.815602 0.312427
vt 0.884956 0.019560
vt 0.937337 0.118668
vt 0.825844 0.368611
vt 0.827646 0.328695
vt 0.895671 0.328271
vt 0.895671 0.328271
vt 0.894813 0.369092
vt 0.825844 0.368611
vt 0.815602 0.312427
vt 0.816630 0.002685
vt 0.884956 0.019560
vt 0.633153 0.052856
vt 0.684569 0.096868
vt 0.633186 0.312702
vt 0.703806 0.365622
vt 0.705735 0.320889
vt 0.759461 0.320861
vt 0.759461 0.320861
vt 0.759819 0.363502
vt 0.703806 0.365622
vt 0.093309 0.229894
vt 0.004493 0.375981
vt 0.005999 0.225459
vt 0.093171 0.215913
vt 0.001544 0.216680
vt 0.001065 0.017685
vt 0.093171 0.016914
vt 1.137277 0.491963
vt 1.137477 0.622528
vt 1.151968 0.621366
vt 1.151091 0.490856
vt 0.151091 0.490856
vt 0.153216 0.807185
vt 0.137762 0.808424
vt 0.137277 0.491963
vt 0.488202 0.747122
vt 0.504579 0.748251
vt 0.506364 0.890381
vt 0.490057 0.890797
vt 0.501984 0.609575
vt 0.426911 0.607391
vt 0.432501 0.532306
vt 0.503317 0.534643
vt 0.245388 0.232762
vt 0.207127 0.247278
vt 0.218024 0.159368
vt 0.235767 0.139095
vt 0.196631 0.115943
vt 0.231672 0.005947
vt 0.154284 0.082028
vt 0.166534 0.023670
vt 0.110464 0.000426
vt 0.098096 0.063452
vt 0.096567 0.137808
vt 0.403227 0.679709
vt 0.386590 0.603827
vt 0.486701 0.616374
vt 0.431433 0.763948
vt 0.480462 0.883109
vt 0.427376 0.995768
vt 0.474222 0.995803
vt 0.245388 0.232762
vt 0.207127 0.247278
vt 0.218024 0.159368
vt 0.235767 0.139095
vt 0.196631 0.115943
vt 0.231672 0.005947
vt 0.154284 0.082028
vt 0.166534 0.023670
vt 0.110464 0.000426
vt 0.098096 0.063452
vt 0.096567 0.137808
vt 0.157396 0.490798
vt 0.215081 0.492094
vt 0.272766 0.576291
vt 0.158946 0.749561
vt 0.270666 0.785926
vt 0.150473 0.988629
vt 0.280205 0.991543
vt 1.892254 0.795162
vt 1.958995 0.773171
vt 1.934686 0.732527
vt 1.885926 0.541122
vt 1.910744 0.562291
vt 1.157283 0.796482
vt 1.271348 0.797930
vt 1.272766 0.576291
vt 1.157396 0.490798
vt 1.215081 0.492094
vt 0.633186 0.312702
vt 0.633153 0.052856
vt 0.684569 0.096868
vt 0.685617 0.312648
vt 0.706198 0.066626
vt 0.377597 0.466638
vt 0.225256 0.465993
vt 0.224122 0.297635
vt 0.355488 0.232771
vt 0.239758 0.242723
vt 1.346551 0.204152
vt 1.413172 0.198494
vt 1.419466 0.104873
vt 1.343213 0.030749
vt 1.452763 0.009863
vt 0.046903 0.949177
vt 0.060728 0.949177
vt 0.060977 0.866158
vt 0.050049 0.854602
vt 0.060866 0.761568
vt 0.048501 0.734545
vt 1.788350 0.499821
vt 1.786557 0.798859
vt 1.892254 0.795162
vt 1.859713 0.497336
vt 1.885926 0.541122
vt 1.582712 0.022538
vt 1.576602 0.054860
vt 1.614377 0.051526
vt 1.614821 0.021086
vt 1.702898 0.045756
vt 1.703251 0.018539
vt 1.696841 0.573812
vt 1.689015 0.791174
vt 1.786557 0.798859
vt 1.743390 0.496294
vt 1.788350 0.499821
vt 1.614615 0.642731
vt 1.607572 0.773693
vt 1.689015 0.791174
vt 1.654297 0.634996
vt 1.696841 0.573812
vt 0.560922 0.085377
vt 0.578640 0.111147
vt 0.624213 0.083948
vt 0.572660 0.165357
vt 0.624280 0.243369
vt 0.530884 0.243362
vt 0.506385 0.187158
vt 0.489971 0.241294
vt 0.568792 0.100161
vt 0.542969 0.159047
vt 0.478282 0.182288
vt 0.426261 0.100160
vt 0.471334 0.235567
vt 0.425092 0.231300
vt 0.490817 0.256651
vt 0.785433 0.986474
vt 0.788350 0.499821
vt 0.859713 0.497336
vt 0.896923 0.982591
vt 0.885926 0.541122
vt 0.958995 0.773171
vt 0.989450 0.967798
vt 0.896923 0.982591
vt 0.934686 0.732527
vt 0.885926 0.541122
vt 0.910744 0.562291
vt 0.788350 0.499821
vt 0.785433 0.986474
vt 0.682275 0.978384
vt 0.743390 0.496294
vt 0.696841 0.573812
vt 0.998763 0.723765
vt 0.956116 0.756667
vt 0.947886 0.667307
vt 0.965514 0.588618
vt 0.929240 0.594419
vt 0.891710 0.486248
vt 0.940305 0.415862
vt 0.894960 0.380565
vt 0.870667 0.381578
vt 0.868355 0.464554
vt 0.490057 0.890797
vt 0.506364 0.890381
vt 0.506343 0.965988
vt 0.490069 0.991668
vt 0.526820 0.987559
vt 0.916740 0.079697
vt 0.937337 0.118668
vt 0.916438 0.317290
vt 0.989416 0.318167
vt 0.989718 0.076470
vt 0.628407 0.565429
vt 0.642855 0.610115
vt 0.604795 0.634707
vt 0.705411 0.519428
vt 0.670861 0.357258
vt 0.748319 0.420350
vt 0.766106 0.437214
vt 0.099699 0.717962
vt 0.094485 0.630693
vt 0.106716 0.630295
vt 0.109426 0.723408
vt 0.102351 0.801190
vt 0.114570 0.816780
vt 0.104857 0.955514
vt 0.085537 0.931905
vt 0.084727 0.981720
vt 0.104720 0.986302
vt 0.532056 0.883028
vt 0.527134 0.895481
vt 0.511639 0.894083
vt 0.513506 0.882784
vt 0.535177 0.828063
vt 0.516631 0.828322
vt 0.519801 0.696171
vt 0.507453 0.696247
vt 0.517469 0.634248
vt 0.507850 0.618118
vt 0.060227 0.866448
vt 0.060728 0.949177
vt 0.046903 0.949177
vt 0.050049 0.854602
vt 0.060866 0.761568
vt 0.048501 0.734545
vt 0.582431 0.054597
vt 0.480557 0.059205
vt 0.480602 0.025524
vt 0.582712 0.022538
vt 0.614377 0.051526
vt 0.614821 0.021086
vt 0.702898 0.045756
vt 0.703251 0.018539
vt 0.682275 0.978384
vt 0.654309 0.635096
vt 0.696841 0.573812
vt 0.614615 0.642731
vt 0.597545 0.960155
vt 0.577145 0.552791
vt 0.589303 0.572958
vt 0.571746 0.577753
vt 0.590494 0.674917
vt 0.604767 0.668164
vt 0.592213 0.738921
vt 0.607788 0.718671
vt 0.392104 0.529109
vt 0.440840 0.515595
vt 0.434493 0.492941
vt 0.392099 0.505405
vt 0.313430 0.519909
vt 0.314364 0.495690
vt 0.240014 0.512236
vt 0.240014 0.488165
vt 0.954919 0.375229
vt 0.924327 0.372557
vt 0.927123 0.337467
vt 0.968207 0.344166
vt 0.967036 0.385964
vt 0.577973 0.667871
vt 0.537298 0.749885
vt 0.534469 0.618823
vt 0.587442 0.746760
vt 0.540858 0.988158
vt 0.593523 0.989679
vt 0.622891 0.563283
vt 0.581035 0.504163
vt 0.627163 0.513211
vt 0.536828 0.478956
vt 0.512066 0.525989
vt 0.470035 0.527773
vt 0.476072 0.411267
vt 0.438110 0.446091
vt 0.458178 0.384888
vt 0.470875 0.383192
vt 0.427804 0.387564
vt 0.703806 0.365622
vt 0.705735 0.320889
vt 0.759461 0.320861
vt 0.759819 0.363502
vt 0.787091 0.361678
vt 0.786272 0.323942
vt 0.786539 0.365569
vt 1.503110 0.273903
vt 1.385794 0.267982
vt 1.397066 0.297462
vt 1.508965 0.303442
vt 1.494733 0.383876
vt 1.405536 0.347069
vt 1.523103 0.432529
vt 0.079488 0.896683
vt 0.079767 0.722833
vt 0.066256 0.749613
vt 0.066553 0.896683
vt 0.066181 0.964828
vt 0.079886 0.962980
vt 0.066762 0.993622
vt 0.039122 0.993891
vt 0.039122 0.967130
vt 0.045815 0.843239
vt 0.045499 0.696068
vt 0.032690 0.722251
vt 0.032670 0.842521
vt 0.030488 0.935188
vt 0.044603 0.960694
vt 0.395926 0.819810
vt 0.407931 0.992687
vt 0.328879 0.992687
vt 0.326651 0.812118
vt 0.365128 0.721716
vt 0.404332 0.693979
vt 0.395926 0.819810
vt 0.404332 0.693979
vt 0.365128 0.721716
vt 0.326651 0.812118
vt 0.328879 0.992687
vt 0.407931 0.992687
vt 0.066256 0.749613
vt 0.079767 0.722833
vt 0.079489 0.896683
vt 0.066553 0.896683
vt 0.066181 0.964828
vt 0.079886 0.962980
vt 0.066762 0.993622
vt 0.039122 0.993891
vt 0.039122 0.967130
vt 0.032690 0.722251
vt 0.045499 0.696068
vt 0.045815 0.843239
vt 0.032669 0.842521
vt 0.030488 0.935188
vt 0.044603 0.960694
vt 0.251697 0.212208
vt 0.247241 0.006748
vt 0.349169 0.031222
vt 0.419466 0.104873
vt 0.452763 0.009863
vt 0.413172 0.198494
vt 0.397067 0.297462
vt 0.385794 0.267982
vt 0.506037 0.288672
vt 0.494733 0.383876
vt 0.405536 0.347069
vt 0.620865 0.270639
vt 0.619330 0.475915
vt 0.517262 0.429896
vt 0.320395 0.749196
vt 0.321348 0.992194
vt 0.311717 0.992338
vt 0.287510 0.992165
vt 0.277674 0.532754
vt 0.347953 0.531314
vt 0.353478 0.633772
vt 0.129639 0.751650
vt 0.136714 0.986948
vt 0.066624 0.985338
vt 0.130620 0.490473
vt 0.046441 0.488206
vt 0.018985 0.519479
vt 0.014010 0.750938
vt 0.006023 0.983706
vt 0.191588 0.326432
vt 0.192227 0.143966
vt 0.179717 0.164326
vt 0.182157 0.320926
vt 0.197175 0.479219
vt 0.179710 0.479289
vt 0.102601 0.349870
vt 0.137578 0.204077
vt 0.068816 0.478427
vn 0.579956 0.45806500000000006 0.673667
vn 0.579956 0.45806500000000006 0.673667
vn 0.579956 0.45806500000000006 0.673667
vn 0.352763 -0.544612 0.760892
vn 0.352763 -0.544612 0.760892
vn 0.352763 -0.544612 0.760892
vn -0.504458 -0.48372299999999996 0.715216
vn -0.504458 -0.48372299999999996 0.715216
vn -0.504458 -0.48372299999999996 0.715216
vn 0.3745 -0.42456199999999994 0.824316
vn 0.3745 -0.42456199999999994 0.824316
vn 0.3745 -0.42456199999999994 0.824316
vn 0.021951 -0.998343 0.053198000000000065
vn 0.021951 -0.998343 0.053198000000000065
vn 0.021951 -0.998343 0.053198000000000065
vn -0.003694 0.99955 0.02975999999999994
vn -0.003694 0.99955 0.02975999999999994
vn -0.003694 0.99955 0.02975999999999994
vn -0.528156 -0.39602199999999993 0.751145
vn -0.528156 -0.39602199999999993 0.751145
vn -0.528156 -0.39602199999999993 0.751145
vn -0.68035 0.15148300000000006 0.717061
vn -0.68035 0.15148300000000006 0.717061
vn -0.68035 0.15148300000000006 0.717061
vn 0.036687 0.995398 0.08853299999999995
vn 0.036687 0.995398 0.08853299999999995
vn 0.036687 0.995398 0.08853299999999995
vn -0.033849 0.999251 0.01875499999999994
vn -0.033849 0.999251 0.01875499999999994
vn -0.033849 0.999251 0.01875499999999994
vn 0.009889 -0.998177 0.05954800000000006
vn 0.009889 -0.998177 0.05954800000000006
vn 0.009889 -0.998177 0.05954800000000006
vn -0.022475 -0.999467 0.023688000000000063
vn -0.022475 -0.999467 0.023688000000000063
vn -0.022475 -0.999467 0.023688000000000063
vn -0.115239 0.20531700000000006 0.971887
vn -0.115239 0.20531700000000006 0.971887
vn -0.115239 0.20531700000000006 0.971887
vn -0.121048 0.18483600000000006 0.975286
vn -0.121048 0.18483600000000006 0.975286
vn -0.121048 0.18483600000000006 0.975286
vn -0.003675 -0.999513 0.030991000000000064
vn -0.003675 -0.999513 0.030991000000000064
vn -0.003675 -0.999513 0.030991000000000064
vn 0.056023 0.995279 0.07925799999999994
vn 0.056023 0.995279 0.07925799999999994
vn 0.056023 0.995279 0.07925799999999994
vn 0.345141 -0.4257349999999999 0.836437
vn 0.345141 -0.4257349999999999 0.836437
vn 0.345141 -0.4257349999999999 0.836437
vn 0.364132 -0.38720199999999994 0.847043
vn 0.364132 -0.38720199999999994 0.847043
vn 0.364132 -0.38720199999999994 0.847043
vn -0.014542 -8.099999999993877E-05 0.999894
vn -0.014542 -8.099999999993877E-05 0.999894
vn -0.014542 -8.099999999993877E-05 0.999894
vn 0.021753 0.00010800000000006121 0.999763
vn 0.021867 6.121770542811785E-17 0.999761
vn 0.021753 0.00010800000000006121 0.999763
vn 0.021753 0.00010800000000006121 0.999763
vn 0 -1 6.123233995736766E-17
vn 0 -1 6.123233995736766E-17
vn 0 -1 6.123233995736766E-17
vn 0 -1 6.123233995736766E-17
vn 0 1 -6.123233995736766E-17
vn 0 1 -6.123233995736766E-17
vn 0 1 -6.123233995736766E-17
vn 0 1 -6.123233995736766E-17
vn -0.016385 -0.0005479999999999387 0.999866
vn -0.016497 -0.0010959999999999388 0.999863
vn -0.016385 -0.0005479999999999387 0.999866
vn -0.016272 6.122425728849329E-17 0.999868
vn 0 -1 6.123233995736766E-17
vn 0 -1 6.123233995736766E-17
vn 0 -1 6.123233995736766E-17
vn 0 -1 6.123233995736766E-17
vn -0.698625 -0.17383399999999993 0.69405
vn -0.560701 -0.25770299999999996 0.786895
vn -0.698656 0.05346300000000004 0.713457
vn -0.683584 0.26303100000000007 0.680829
vn -0.47781 0.48616500000000007 0.73167
vn -0.384626 0.48188200000000003 0.787308
vn 0.086748 0.609887 0.787726
vn -0.010275 0.595292 0.803443
vn 0.315635 0.630899 0.70876
vn 0.340116 0.591703 0.730896
vn 0.347378 0.567505 0.746503
vn 0.877993 -0.402109 -0.259684
vn 0.971808 -0.234344 0.025939000000000014
vn 0.706262 -0.707949 0.0016900000000000435
vn 0.912012 -0.398656 -0.09647699999999997
vn 0.6936 -0.720282 -0.010610999999999957
vn 0.840374 -0.541922 -0.009561999999999966
vn 0.642427 -0.765059 -0.04440199999999995
vn 0.172044 -0.701209 0.691886
vn 0.257703 -0.560701 0.786895
vn -0.049645 -0.700692 0.711734
vn -0.25734 -0.68655 0.680019
vn -0.484217 -0.48088899999999996 0.730945
vn -0.480035 -0.38732799999999995 0.787111
vn -0.609565 0.08578500000000004 0.788081
vn -0.594405 -0.013556999999999951 0.804052
vn -0.630854 0.3156840000000001 0.708778
vn -0.591626 0.34014000000000005 0.730947
vn -0.567505 0.3473780000000001 0.746503
vn 0.53776 -0.639168 0.549799
vn -0.317831 -0.15814699999999995 0.934865
vn -0.627986 -0.678161 0.38174800000000003
vn 0.473005 -0.88093 0.015136000000000054
vn -0.661892 -0.747006 0.062296000000000046
vn 0.389495 -0.912715 0.12347100000000005
vn -0.652201 -0.730785 0.20146200000000006
vn -0.012601 0.999206 -0.03779000000000006
vn -0.017757 0.99878 -0.046080000000000065
vn -0.001135 0.999237 -0.039051000000000065
vn 0.007177 0.999343 -0.03553100000000006
vn 0.021799 0.998898 -0.041556000000000065
vn 0.661349 0.749971 -0.012681000000000045
vn -0.858475 0.512163 -0.02664900000000003
vn -0.602107 0.684063 0.41173499999999996
vn 0.316261 0.701121 0.639068
vn -0.291774 0.16379300000000005 0.942359
vn 0.043608 0.995408 0.08521899999999995
vn 0.395206 0.13868600000000006 0.908063
vn -0.160141 0.782086 0.602243
vn -0.019817 0.996518 0.08098699999999995
vn -0.268182 0.897579 0.34990099999999996
vn 0.661349 0.749971 -0.012681000000000045
vn 0.316261 0.701121 0.639068
vn 0.556945 -0.25326399999999993 0.790993
vn 0.92856 -0.37099 0.011963000000000022
vn 0.324164 -0.650099 0.687233
vn -0.995414 0.090661 0.030517999999999993
vn -0.473533 -0.14317099999999994 0.869062
vn -0.818247 -0.23582399999999998 0.524269
vn -0.858475 0.512163 -0.02664900000000003
vn -0.602107 0.684063 0.41173499999999996
vn -0.473533 -0.14317099999999994 0.869062
vn 0 -0.22270799999999993 0.974885
vn -0.13869 -0.35046799999999995 0.926249
vn -0.818247 -0.23582399999999998 0.524269
vn -0.486984 -0.41451399999999994 0.768781
vn -0.602107 0.684063 0.41173499999999996
vn -0.999652 0.0012309999999999986 -0.026337
vn -0.999628 0.0024609999999999983 -0.027169
vn -0.999565 0.009788999999999999 -0.027816
vn -0.999514 0.013452999999999998 -0.028138
vn -0.999165 0.026902999999999996 -0.030766
vn -0.758661 1.000000000039892E-06 0.651486
vn -0.483165 -0.732109 0.4801750000000001
vn -0.554552 -0.742113 0.37648400000000004
vn -0.9343 1.0000000000218284E-06 0.356487
vn -0.720606 -0.3714199999999999 0.585469
vn -0.80142 3.6623184993181515E-17 0.598102
vn 0.010706 -0.999589 -0.02659599999999994
vn 0.00479 -0.999474 -0.03206199999999994
vn 0.007137 -0.999621 -0.026592999999999936
vn 0.008311 -0.999681 -0.02385799999999994
vn 0 -0.999647 -0.026585999999999936
vn 0.998603 -0.024186000000000003 -0.04699
vn 0.999627 -0.007393000000000002 -0.02628
vn 0.999058 -0.010704000000000002 -0.042055
vn 0.998676 -0.012359000000000004 -0.049941
vn 0.99935 0.016258999999999996 -0.032161
vn -0.381581 -0.782676 0.49174600000000007
vn -0.294767 -0.659818 0.691196
vn 0.12319 -0.990174 -0.06617699999999994
vn 0.2721 -0.867086 0.41728100000000007
vn -0.083223 -0.99443 -0.06467399999999994
vn -0.032045 -0.991125 0.12901100000000004
vn 0.689783 -0.582268 0.4303060000000001
vn 0.427402 -0.615817 0.661889
vn 0.031843 0.997775 -0.05857800000000006
vn -0.099527 0.988259 -0.11592700000000006
vn 0.004204 0.999855 0.016495999999999938
vn 0.037557 0.995588 0.08598999999999994
vn -0.060241 0.992845 0.10309799999999994
vn -0.064969 0.995283 0.07204599999999994
vn -0.12972 0.990172 0.05227199999999994
vn -0.999629 -1.667601546398951E-18 -0.027234
vn -0.999629 -1.667601546398951E-18 -0.027234
vn -0.999547 -0.009849000000000002 -0.028439
vn -0.999469 -0.014773000000000001 -0.029041
vn -0.999088 -0.029542000000000002 -0.030840999999999997
vn -0.016407 -0.999478 -0.027836999999999938
vn 0 -0.999868 -0.016256999999999938
vn -0.013419 -0.999507 -0.028390999999999937
vn -0.006154 -0.999303 -0.03682999999999994
vn 0.007177 -0.999343 -0.03553099999999994
vn 0.021799 -0.998898 -0.04155499999999994
vn 0 0.999647 -0.02658600000000006
vn 0 0.999647 -0.02658600000000006
vn 0.009877 0.99954 -0.028680000000000063
vn 0.014816 0.999448 -0.02972600000000006
vn 0.02963 0.999021 -0.03286000000000006
vn 0.188796 0.976836 0.10073299999999995
vn -0.88677 0.430342 0.16865599999999997
vn -0.867269 0.492649 0.07170799999999997
vn 0.121381 0.992032 -0.033743000000000065
vn -0.945697 0.240202 -0.21899700000000002
vn -0.3455 0.912039 -0.22094100000000005
vn 0.673503 0.49220100000000006 0.551482
vn 0.406155 0.558354 0.723381
vn -0.400296 0.808708 0.43099199999999993
vn -0.917365 0.302351 -0.258891
vn 0.628511 0.774885 0.06728299999999995
vn 0.989096 9.017625473181579E-18 0.147269
vn 0.971808 -0.234344 0.025939000000000014
vn 0.926176 0.282793 -0.24945000000000003
vn 0.877993 -0.402109 -0.259684
vn -0.425727 -0.785765 0.44869800000000004
vn -0.097617 -0.815307 0.570742
vn -0.025655 -0.997903 0.05942500000000006
vn 0.010977 -0.998199 0.05897500000000006
vn 0.205627 -0.84225 0.49833000000000005
vn -0.721253 -0.674012 0.15969200000000003
vn -0.653407 -0.635006 0.4121000000000001
vn 0.001171 -0.824926 0.56524
vn -0.718593 -0.608532 0.33662000000000003
vn -0.601909 -0.7984 0.016193000000000048
vn -0.945926 -0.234322 0.22431400000000004
vn -0.492146 -0.732933 0.46968200000000004
vn -0.867269 0.492649 0.07170799999999997
vn -0.88677 0.430342 0.16865599999999997
vn -0.749848 -0.656388 0.08296100000000003
vn -0.769188 -0.636728 -0.05410299999999996
vn -0.945697 0.240202 -0.21899700000000002
vn -0.443001 -0.896158 -0.025506999999999943
vn -0.460972 -0.850505 -0.25326999999999994
vn -0.3455 0.912039 -0.22094100000000005
vn -0.917365 0.302351 -0.258891
vn -0.744696 -0.638352 -0.19476899999999997
vn -0.294767 -0.659818 0.691196
vn -0.381581 -0.782676 0.49174600000000007
vn -0.773783 0.04197700000000004 0.632059
vn -0.118722 6.07992436168492E-17 0.992927
vn 0.2721 -0.867086 0.41728100000000007
vn 0.861068 -0.00045399999999996886 0.508489
vn 0.689783 -0.582268 0.4303060000000001
vn 0.761444 -0.19789499999999996 0.617285
vn 0.427402 -0.615817 0.661889
vn 0.556951 -0.518616 0.648724
vn -0.180049 0.36487100000000006 0.913483
vn 0 0.22270800000000004 0.974885
vn -0.48085 0.14176000000000005 0.865267
vn -0.839533 0.23719300000000001 0.488799
vn -0.541521 0.44043800000000005 0.716079
vn -0.627986 -0.678161 0.38174800000000003
vn -0.846246 0.366837 0.386392
vn -0.341458 0.934201 0.10332199999999994
vn -0.975108 1.3576985506407174E-17 0.221729
vn -0.821127 3.49480518689678E-17 0.570745
vn -0.326872 0.899881 0.28873699999999997
vn -0.924069 2.3404531140204853E-17 0.382225
vn -0.720606 0.37142100000000006 0.585469
vn -0.80142 3.6623184993181515E-17 0.598102
vn 0.999594 0.010187999999999997 -0.026606
vn 0.999525 0.015282999999999998 -0.026768
vn 0.998417 0.044739 -0.034077
vn 0.999714 -0.007096000000000002 -0.022858
vn 0.999655 -1.6092471264195795E-18 -0.026281
vn 0.918067 0.18308300000000002 0.351615
vn 0.673503 0.49220100000000006 0.551482
vn 0.001171 -0.824926 0.56524
vn 0.370705 -0.797385 0.47618800000000006
vn 0.406155 0.558354 0.723381
vn -0.013034 -0.32590199999999997 0.945314
vn -0.400296 0.808708 0.43099199999999993
vn 0.176445 -0.682698 0.709077
vn 0.918067 0.18308300000000002 0.351615
vn 0.001171 -0.824926 0.56524
vn -0.653407 -0.635006 0.4121000000000001
vn 0.711697 -0.62347 0.32368600000000003
vn -0.718593 -0.608532 0.33662000000000003
vn 0.314873 -0.82934 0.46157400000000004
vn -0.492146 -0.732933 0.46968200000000004
vn -0.632043 -0.693774 0.34525200000000006
vn -0.013034 -0.32590199999999997 0.945314
vn -0.400296 0.808708 0.43099199999999993
vn -0.917365 0.302351 -0.258891
vn -0.744696 -0.638352 -0.19476899999999997
vn 0.877993 -0.402109 -0.259684
vn 0.537654 0.827779 -0.16034700000000005
vn 0.926176 0.282793 -0.24945000000000003
vn 0.912012 -0.398656 -0.09647699999999997
vn 0.936905 0.349374 -0.012120000000000021
vn 0.840374 -0.541922 -0.009561999999999966
vn -0.601909 -0.7984 0.016193000000000048
vn -0.769188 -0.636728 -0.05410299999999996
vn -0.749848 -0.656388 0.08296100000000003
vn -0.443001 -0.896158 -0.025506999999999943
vn -0.721253 -0.674012 0.15969200000000003
vn 0.001171 -0.824926 0.56524
vn -0.460972 -0.850505 -0.25326999999999994
vn 0.370705 -0.797385 0.47618800000000006
vn -0.632043 -0.693774 0.34525200000000006
vn -0.744696 -0.638352 -0.19476899999999997
vn -0.013034 -0.32590199999999997 0.945314
vn 0.395206 0.13868600000000006 0.908063
vn 0.205627 -0.84225 0.49833000000000005
vn -0.097617 -0.815307 0.570742
vn -0.160141 0.782086 0.602243
vn -0.640139 0.02575300000000005 0.767827
vn -0.425727 -0.785765 0.44869800000000004
vn -0.268182 0.897579 0.34990099999999996
vn 0.92856 -0.37099 0.011963000000000022
vn 0.324164 -0.650099 0.687233
vn 0.157703 -0.902571 0.40061700000000006
vn 0.291371 -0.955317 0.049720000000000056
vn -0.554552 -0.742113 0.37648400000000004
vn -0.720606 -0.3714199999999999 0.585469
vn -0.483165 -0.732109 0.4801750000000001
vn 0.556945 -0.25326399999999993 0.790993
vn 0.316261 0.701121 0.639068
vn 0 6.123233995736766E-17 1
vn 0 -0.35883799999999993 0.9334
vn -0.355358 -0.36358299999999993 0.86112
vn 0.324164 -0.650099 0.687233
vn 0.157703 -0.902571 0.40061700000000006
vn -0.720606 -0.3714199999999999 0.585469
vn -0.80142 3.6623184993181515E-17 0.598102
vn -0.291774 0.16379300000000005 0.942359
vn -0.602107 0.684063 0.41173499999999996
vn -0.486984 -0.41451399999999994 0.768781
vn -0.327158 5.786272428951371E-17 0.94497
vn 0 6.123233995736766E-17 1
vn 0.316261 0.701121 0.639068
vn 0.825592 0.502279 -0.2571260000000001
vn 0.825527 0.476619 -0.30222400000000005
vn 0.819465 0.495164 -0.28860100000000005
vn 0.818893 0.515207 -0.25293600000000005
vn 0.830821 0.508843 -0.22542200000000004
vn 0.837144 0.500825 -0.21991900000000003
vn -0.825592 -0.502279 0.2571260000000001
vn -0.837143 -0.500826 0.21991900000000003
vn -0.830821 -0.508843 0.22542200000000004
vn -0.818893 -0.515207 0.25293600000000005
vn -0.819465 -0.495164 0.28860100000000005
vn -0.825528 -0.476618 0.30222400000000005
vn 0 6.123233995736766E-17 1
vn 0.53776 -0.639168 0.549799
vn 0.372711 0.2997560000000001 0.878199
vn 0 0.38125800000000004 0.924469
vn -0.355593 0.37877600000000006 0.854448
vn 0.571274 0.599477 0.560601
vn -0.001582 0.889733 0.45647899999999997
vn -0.720606 0.37142100000000006 0.585469
vn -0.80142 3.6623184993181515E-17 0.598102
vn -0.541521 0.44043800000000005 0.716079
vn -0.627986 -0.678161 0.38174800000000003
vn -0.317831 -0.15814699999999995 0.934865
vn -0.358707 5.715732773320484E-17 0.93345
vn 0 6.123233995736766E-17 1
vn 0.53776 -0.639168 0.549799
vn -0.995256 -0.073471 0.063778
vn -0.652201 -0.730785 0.20146200000000006
vn -0.661892 -0.747006 0.062296000000000046
vn -0.839533 0.23719300000000001 0.488799
vn -0.627986 -0.678161 0.38174800000000003
vn -0.48085 0.14176000000000005 0.865267
vn -0.001582 0.889733 0.45647899999999997
vn 0.571274 0.599477 0.560601
vn 0.662266 0.748237 0.03930899999999995
vn -0.326872 0.899881 0.28873699999999997
vn -0.720606 0.37142100000000006 0.585469
vn 0.454222 0.889437 0.050842999999999944
vn -0.341458 0.934201 0.10332199999999994
vn -0.846246 0.366837 0.386392
vn 0.537654 0.827779 -0.16034700000000005
vn 0.936905 0.349374 -0.012120000000000021
vn 0.301205 0.953534 -0.0070020000000000585
vn 0.097068 0.995265 0.005038999999999939
vn 0.05427 0.998328 -0.019923000000000062
vn 0.628511 0.774885 0.06728299999999995
vn 0.926176 0.282793 -0.24945000000000003
vn 0.473005 -0.88093 0.015136000000000054
vn 0.389495 -0.912715 0.12347100000000005
vn 0.999234 0.020843000000000004 0.03313
vn 0.53776 -0.639168 0.549799
vn 0.372711 0.2997560000000001 0.878199
vn 0.571274 0.599477 0.560601
vn 0.662266 0.748237 0.03930899999999995
vn 0.454222 0.889437 0.050842999999999944
vn 0.121381 0.992032 -0.033743000000000065
vn 0.673503 0.49220100000000006 0.551482
vn 0.918067 0.18308300000000002 0.351615
vn 0.81659 0.576407 0.030594999999999966
vn 0.188796 0.976836 0.10073299999999995
vn 0.96597 0.257652 0.022746999999999983
vn 0.711697 -0.62347 0.32368600000000003
vn 0.176445 -0.682698 0.709077
vn 0.314873 -0.82934 0.46157400000000004
g Standard_13
f 1/1/1 2/2/2 3/3/3
f 4/4/4 5/5/5 6/6/6
f 7/7/7 8/8/8 9/9/9
f 10/10/10 11/11/11 12/12/12
f 13/13/13 14/14/14 15/15/15
f 16/16/16 17/17/17 18/18/18
f 19/19/19 20/20/20 21/21/21
f 22/22/22 23/23/23 24/24/24
f 25/25/25 26/26/26 27/27/27
f 28/28/28 29/29/29 30/30/30
f 31/31/31 32/32/32 33/33/33
f 34/34/34 35/35/35 36/36/36
f 37/37/37 38/38/38 39/39/39
f 40/40/40 41/41/41 42/42/42
f 43/43/43 44/44/44 45/45/45
f 46/46/46 47/47/47 48/48/48
f 49/49/49 50/50/50 51/51/51
f 52/52/52 53/53/53 54/54/54
f 55/55/55 56/56/56 57/57/57
f 58/58/58 59/59/59 60/60/60
f 60/60/60 61/61/61 58/58/58
f 62/62/62 63/63/63 64/64/64
f 64/64/64 65/65/65 62/62/62
f 66/66/66 67/67/67 68/68/68
f 68/68/68 69/69/69 66/66/66
f 70/70/70 71/71/71 72/72/72
f 72/72/72 73/73/73 70/70/70
f 74/74/74 75/75/75 76/76/76
f 76/76/76 77/77/77 74/74/74
f 78/78/78 79/79/79 80/80/80
f 80/80/80 81/81/81 78/78/78
f 80/80/80 82/82/82 81/81/81
f 82/82/82 83/83/83 81/81/81
f 82/82/82 84/84/84 83/83/83
f 84/84/84 85/85/85 83/83/83
f 86/86/86 85/85/85 84/84/84
f 87/87/87 86/86/86 84/84/84
f 88/88/88 87/87/87 84/84/84
f 89/89/89 90/90/90 91/91/91
f 92/92/92 89/89/89 91/91/91
f 92/92/92 91/91/91 93/93/93
f 93/93/93 94/94/94 92/92/92
f 93/93/93 95/95/95 94/94/94
f 96/96/96 97/97/97 98/98/98
f 98/98/98 99/99/99 96/96/96
f 98/98/98 100/100/100 99/99/99
f 100/100/100 101/101/101 99/99/99
f 100/100/100 102/102/102 101/101/101
f 102/102/102 103/103/103 101/101/101
f 104/104/104 103/103/103 102/102/102
f 105/105/105 104/104/104 102/102/102
f 106/106/106 105/105/105 102/102/102
f 107/107/107 108/108/108 109/109/109
f 110/110/110 107/107/107 109/109/109
f 110/110/110 109/109/109 111/111/111
f 112/112/112 110/110/110 111/111/111
f 111/111/111 113/113/113 112/112/112
f 114/114/114 115/115/115 116/116/116
f 117/117/117 114/114/114 116/116/116
f 116/116/116 118/118/118 117/117/117
f 119/119/119 120/120/120 121/121/121
f 122/122/122 119/119/119 121/121/121
f 121/121/121 123/123/123 122/122/122
f 124/124/124 125/125/125 126/126/126
f 126/126/126 127/127/127 124/124/124
f 126/126/126 128/128/128 127/127/127
f 129/129/129 130/130/130 131/131/131
f 132/132/132 129/129/129 131/131/131
f 131/131/131 133/133/133 132/132/132
f 134/134/134 135/135/135 136/136/136
f 136/136/136 137/137/137 134/134/134
f 136/136/136 138/138/138 137/137/137
f 139/139/139 140/140/140 141/141/141
f 141/141/141 142/142/142 139/139/139
f 142/142/142 141/141/141 143/143/143
f 143/143/143 144/144/144 142/142/142
f 145/145/145 146/146/146 147/147/147
f 147/147/147 148/148/148 145/145/145
f 148/148/148 147/147/147 149/149/149
f 150/150/150 151/151/151 152/152/152
f 152/152/152 153/153/153 150/150/150
f 153/153/153 152/152/152 154/154/154
f 154/154/154 155/155/155 153/153/153
f 156/156/156 157/157/157 158/158/158
f 158/158/158 159/159/159 156/156/156
f 159/159/159 158/158/158 160/160/160
f 161/161/161 162/162/162 163/163/163
f 164/164/164 161/161/161 163/163/163
f 164/164/164 163/163/163 165/165/165
f 166/166/166 167/167/167 168/168/168
f 168/168/168 167/167/167 169/169/169
f 169/169/169 170/170/170 168/168/168
f 171/171/171 170/170/170 169/169/169
f 169/169/169 172/172/172 171/171/171
f 173/173/173 171/171/171 172/172/172
f 174/174/174 175/175/175 176/176/176
f 176/176/176 177/177/177 174/174/174
f 177/177/177 176/176/176 178/178/178
f 178/178/178 179/179/179 177/177/177
f 179/179/179 178/178/178 180/180/180
f 181/181/181 182/182/182 183/183/183
f 184/184/184 181/181/181 183/183/183
f 183/183/183 185/185/185 184/184/184
f 186/186/186 187/187/187 188/188/188
f 188/188/188 189/189/189 186/186/186
f 189/189/189 188/188/188 190/190/190
f 190/190/190 191/191/191 189/189/189
f 192/192/192 193/193/193 194/194/194
f 194/194/194 195/195/195 192/192/192
f 194/194/194 196/196/196 195/195/195
f 197/197/197 198/198/198 199/199/199
f 199/199/199 200/200/200 197/197/197
f 201/201/201 200/200/200 199/199/199
f 202/202/202 200/200/200 201/201/201
f 202/202/202 203/203/203 200/200/200
f 202/202/202 204/204/204 203/203/203
f 205/205/205 204/204/204 202/202/202
f 202/202/202 206/206/206 205/205/205
f 207/207/207 208/208/208 209/209/209
f 209/209/209 210/210/210 207/207/207
f 211/211/211 210/210/210 209/209/209
f 212/212/212 213/213/213 214/214/214
f 215/215/215 214/214/214 213/213/213
f 213/213/213 216/216/216 215/215/215
f 217/217/217 218/218/218 219/219/219
f 217/217/217 220/220/220 218/218/218
f 221/221/221 220/220/220 217/217/217
f 222/222/222 220/220/220 221/221/221
f 222/222/222 223/223/223 220/220/220
f 224/224/224 225/225/225 226/226/226
f 226/226/226 227/227/227 224/224/224
f 228/228/228 224/224/224 227/227/227
f 227/227/227 229/229/229 228/228/228
f 229/229/229 230/230/230 228/228/228
f 230/230/230 231/231/231 228/228/228
f 232/232/232 231/231/231 230/230/230
f 230/230/230 233/233/233 232/232/232
f 234/234/234 235/235/235 236/236/236
f 236/236/236 237/237/237 234/234/234
f 238/238/238 234/234/234 237/237/237
f 237/237/237 239/239/239 238/238/238
f 240/240/240 238/238/238 239/239/239
f 239/239/239 241/241/241 240/240/240
f 242/242/242 240/240/240 241/241/241
f 241/241/241 243/243/243 242/242/242
f 244/244/244 245/245/245 246/246/246
f 246/246/246 247/247/247 244/244/244
f 248/248/248 244/244/244 247/247/247
f 247/247/247 249/249/249 248/248/248
f 250/250/250 251/251/251 252/252/252
f 252/252/252 253/253/253 250/250/250
f 254/254/254 250/250/250 253/253/253
f 253/253/253 255/255/255 254/254/254
f 256/256/256 254/254/254 255/255/255
f 255/255/255 257/257/257 256/256/256
f 258/258/258 259/259/259 260/260/260
f 258/258/258 261/261/261 259/259/259
f 258/258/258 262/262/262 261/261/261
f 263/263/263 264/264/264 265/265/265
f 264/264/264 266/266/266 265/265/265
f 266/266/266 264/264/264 267/267/267
f 268/268/268 266/266/266 267/267/267
f 267/267/267 269/269/269 268/268/268
f 270/270/270 271/271/271 272/272/272
f 272/272/272 273/273/273 270/270/270
f 274/274/274 270/270/270 273/273/273
f 273/273/273 275/275/275 274/274/274
f 276/276/276 274/274/274 275/275/275
f 275/275/275 277/277/277 276/276/276
f 278/278/278 279/279/279 280/280/280
f 280/280/280 281/281/281 278/278/278
f 278/278/278 281/281/281 282/282/282
f 283/283/283 284/284/284 285/285/285
f 283/283/283 286/286/286 284/284/284
f 287/287/287 284/284/284 286/286/286
f 286/286/286 288/288/288 287/287/287
f 289/289/289 290/290/290 291/291/291
f 292/292/292 290/290/290 289/289/289
f 289/289/289 293/293/293 292/292/292
f 293/293/293 294/294/294 292/292/292
f 295/295/295 292/292/292 294/294/294
f 296/296/296 295/295/295 294/294/294
f 295/295/295 296/296/296 297/297/297
f 297/297/297 298/298/298 295/295/295
f 296/296/296 299/299/299 297/297/297
f 300/300/300 301/301/301 302/302/302
f 302/302/302 303/303/303 300/300/300
f 304/304/304 303/303/303 302/302/302
f 302/302/302 305/305/305 304/304/304
f 304/304/304 306/306/306 303/303/303
f 307/307/307 308/308/308 309/309/309
f 309/309/309 310/310/310 307/307/307
f 311/311/311 310/310/310 309/309/309
f 309/309/309 312/312/312 311/311/311
f 310/310/310 311/311/311 313/313/313
f 314/314/314 315/315/315 316/316/316
f 316/316/316 317/317/317 314/314/314
f 314/314/314 317/317/317 318/318/318
f 318/318/318 319/319/319 314/314/314
f 319/319/319 318/318/318 320/320/320
f 321/321/321 320/320/320 318/318/318
f 318/318/318 322/322/322 321/321/321
f 323/323/323 324/324/324 325/325/325
f 325/325/325 326/326/326 323/323/323
f 323/323/323 326/326/326 327/327/327
f 327/327/327 328/328/328 323/323/323
f 329/329/329 330/330/330 331/331/331
f 331/331/331 332/332/332 329/329/329
f 329/329/329 332/332/332 333/333/333
f 333/333/333 334/334/334 329/329/329
f 335/335/335 336/336/336 337/337/337
f 337/337/337 338/338/338 335/335/335
f 335/335/335 338/338/338 339/339/339
f 339/339/339 340/340/340 335/335/335
f 341/341/341 342/342/342 343/343/343
f 343/343/343 344/344/344 341/341/341
f 345/345/345 344/344/344 343/343/343
f 343/343/343 346/346/346 345/345/345
f 345/345/345 346/346/346 347/347/347
f 345/345/345 347/347/347 348/348/348
f 348/348/348 349/349/349 345/345/345
f 350/350/350 351/351/351 352/352/352
f 352/352/352 353/353/353 350/350/350
f 354/354/354 353/353/353 352/352/352
f 352/352/352 355/355/355 354/354/354
f 356/356/356 357/357/357 358/358/358
f 359/359/359 356/356/356 358/358/358
f 358/358/358 360/360/360 359/359/359
f 361/361/361 356/356/356 359/359/359
f 362/362/362 363/363/363 364/364/364
f 362/362/362 364/364/364 365/365/365
f 365/365/365 366/366/366 362/362/362
f 365/365/365 364/364/364 367/367/367
f 365/365/365 367/367/367 368/368/368
f 368/368/368 369/369/369 365/365/365
f 370/370/370 371/371/371 372/372/372
f 370/370/370 372/372/372 373/373/373
f 373/373/373 374/374/374 370/370/370
f 370/370/370 374/374/374 375/375/375
f 376/376/376 370/370/370 375/375/375
f 377/377/377 378/378/378 379/379/379
f 380/380/380 377/377/377 379/379/379
f 379/379/379 381/381/381 380/380/380
f 382/382/382 381/381/381 379/379/379
f 379/379/379 383/383/383 382/382/382
f 383/383/383 379/379/379 384/384/384
f 385/385/385 386/386/386 387/387/387
f 387/387/387 388/388/388 385/385/385
f 389/389/389 385/385/385 388/388/388
f 388/388/388 390/390/390 389/389/389
f 391/391/391 388/388/388 387/387/387
f 391/391/391 390/390/390 388/388/388
f 387/387/387 392/392/392 391/391/391
f 391/391/391 393/393/393 390/390/390
