v 0.094809 -0.142399 0.14137
v 0.094809 -0.14239899999999997 0.296724
v -0.104609 -0.13536199999999998 0.296724
v -0.104609 -0.135362 0.14137
v 0.104612 0.135363 0.14137
v 0.104612 0.13536300000000004 0.296724
v 0.094809 -0.14239899999999997 0.296724
v 0.094809 -0.142399 0.14137
v -0.094808 0.142401 0.14137
v -0.094808 0.14240100000000003 0.296724
v 0.104612 0.13536300000000004 0.296724
v 0.104612 0.135363 0.14137
v -0.104609 -0.135362 0.14137
v -0.104609 -0.13536199999999998 0.296724
v -0.094808 0.14240100000000003 0.296724
v -0.094808 0.142401 0.14137
v -0.104609 -0.13536199999999998 0.296724
v 0.094809 -0.14239899999999997 0.296724
v 0.104612 0.13536300000000004 0.296724
v -0.094808 0.14240100000000003 0.296724
vt 0.497305 0.518194
vt 0.520826 0.518194
vt 0.520826 0.555941
vt 0.497305 0.555941
vt 0.517699 0.560413
vt 0.517699 0.586941
vt 0.471081 0.586941
vt 0.471081 0.560413
vt 0.493981 0.556207
vt 0.470460 0.556207
vt 0.470460 0.518459
vt 0.493981 0.518459
vt 0.517886 0.635485
vt 0.517886 0.662012
vt 0.471268 0.662012
vt 0.471268 0.635485
vt 0.471081 0.629743
vt 0.471081 0.591995
vt 0.517699 0.591995
vt 0.517699 0.629743
vn -0.035265 -0.999378 6.119425344191418E-17
vn -0.035265 -0.999378 6.119425344191418E-17
vn -0.035265 -0.999378 6.119425344191418E-17
vn -0.035265 -0.999378 6.119425344191418E-17
vn 0.999378 -0.035274 2.159909559656187E-18
vn 0.999378 -0.035274 2.159909559656187E-18
vn 0.999378 -0.035274 2.159909559656187E-18
vn 0.999378 -0.035274 2.159909559656187E-18
vn 0.035272 0.999378 -6.119425344191418E-17
vn 0.035272 0.999378 -6.119425344191418E-17
vn 0.035272 0.999378 -6.119425344191418E-17
vn 0.035272 0.999378 -6.119425344191418E-17
vn -0.999378 0.035265 -2.1593584685965703E-18
vn -0.999378 0.035265 -2.1593584685965703E-18
vn -0.999378 0.035265 -2.1593584685965703E-18
vn -0.999378 0.035265 -2.1593584685965703E-18
vn 0 6.123233995736766E-17 1
vn 0 6.123233995736766E-17 1
vn 0 6.123233995736766E-17 1
vn 0 6.123233995736766E-17 1
g 01
f 1/1/1 2/2/2 3/3/3
f 3/3/3 4/4/4 1/1/1
f 5/5/5 6/6/6 7/7/7
f 7/7/7 8/8/8 5/5/5
f 9/9/9 10/10/10 11/11/11
f 11/11/11 12/12/12 9/9/9
f 13/13/13 14/14/14 15/15/15
f 15/15/15 16/16/16 13/13/13
f 17/17/17 18/18/18 19/19/19
f 19/19/19 20/20/20 17/17/17
