v 0.754852 -1.391838 0.059323000000000084
v 0.768636 1.094564 0.05370799999999993
v -0.776271 1.095124 0.05381299999999993
v -0.658923 -1.448123 0.05937600000000009
v 1.00283 1.1191 -0.47839700000000007
v -1.010466 1.11966 -0.4782910000000001
v 0.768636 1.094564 0.05370799999999993
v -0.776271 1.095124 0.05381299999999993
vt 0.394425 0.884811
vt 0.417067 0.882226
vt 0.044051 0.631852
vt 0.011688 0.631852
vt 0.417067 0.882226
vt 0.044051 0.631852
vt 0.417067 0.882226
vt 0.044051 0.631852
vn 1E-05 0.002221000000000061 0.999998
vn 6.9E-05 0.002258000000000061 0.999997
vn 1E-05 0.002221000000000061 0.999998
vn -5E-05 0.002185000000000061 0.999998
vn 0.00028 0.998933 0.046185999999999935
vn 0.000365 0.998946 0.045901999999999936
vn 0.000365 0.998946 0.045901999999999936
vn 0.000365 0.998946 0.045901999999999936
g Default Standard
f 7/7/7 5/5/5 6/6/6
f 6/6/6 8/8/8 7/7/7
f 3/3/3 4/4/4 1/1/1
f 1/1/1 2/2/2 3/3/3
