v 0.212719 0.014977 -0.0001970000000000009
v 0.112303 0.015267 -0.0001970000000000009
v 0.118727 -2.199999999996339E-05 0.597891
v 0.113889 -0.19460799999999998 0.600265
v 0.096496 -0.221309 -0.00019699999999998644
v 0.225181 -0.205783 -0.0001969999999999874
v -1.127449 -0.33096 -0.00019699999999997972
v -1.027821 -0.322243 -0.00019699999999998026
v -1.035372 -0.30720499999999995 0.580391
v -1.047338 -0.10528699999999996 0.580391
v -1.047676 -0.095293 -0.00019699999999999416
v -1.147305 -0.104009 -0.00019699999999999362
v -0.101284 1.195932 -0.0014910000000000732
v -0.088104 1.253023 -0.0014910000000000767
v -0.052126 1.268295 0.08573799999999991
v -0.780917 -0.7002509999999998 1.185462
v -0.862562 0.23295300000000008 1.185462
v -0.914012 0.8210260000000001 1.183178
v -0.2785 -1.352589 0.7643730000000001
v -0.265813 -1.351438 0.7643730000000001
v -0.273302 -1.339583 0.7643730000000001
v -0.883544 -1.374463 0.8032660000000001
v -0.87078 -1.373264 0.8032660000000001
v -0.878243 -1.361656 0.8032660000000001
v -0.936857 1.122025 -0.00919500000000007
v -0.917565 1.048957 1.258699
v -0.911907 1.028766 1.256387
v -0.911907 1.028766 1.256387
v -0.931162 1.101845 -0.011517000000000067
v -0.936857 1.122025 -0.00919500000000007
v 1.297881 -0.400041 0.14124300000000004
v 1.290916 -0.27454 0.14226400000000003
v 1.252916 -0.248674 -0.0007089999999999848
v 1.252916 -0.248674 -0.0007089999999999848
v 1.251939 -0.421892 -0.0007169999999999742
v 1.297881 -0.400041 0.14124300000000004
v 1.290916 -0.27454 0.14226400000000003
v 1.341706 -0.238226 -0.0007149999999999854
v 1.252916 -0.248674 -0.0007089999999999848
v 1.251939 -0.421892 -0.0007169999999999742
v 1.340842 -0.409361 -0.0007209999999999749
v 1.297881 -0.400041 0.14124300000000004
v 0.457102 -1.326366 0.6349020000000001
v 0.392972 -1.385113 0.0009830000000000847
v 0.457102 -1.326366 0.6349020000000001
v -1.142215 1.027688 0.15655599999999995
v -1.144268 1.100189 -0.007209000000000068
v -1.239022 1.082572 -0.007214000000000066
v -1.142215 1.027688 0.15655599999999995
v -1.055235 1.036626 -0.007207000000000063
v 0.190077 -1.020021 0.15655600000000006
v 0.195713 -1.088209 -0.007208999999999933
v 0.290467 -1.070591 -0.007213999999999934
v 0.190077 -1.020021 0.15655600000000006
v 0.10668 -1.024646 -0.007206999999999937
v -1.05809 -1.065388 -0.007222999999999935
v -0.940524 -1.083041 -0.007217999999999934
v -0.96847 -1.007878 0.12988000000000005
v -0.96847 -1.007878 0.12988000000000005
v -1.075375 -0.977451 -0.00722299999999994
v -0.956389 -0.93195 -0.007217999999999942
v -0.2785 -1.352589 0.7643730000000001
v -0.321939 -1.270713 -0.018339999999999922
v -0.309259 -1.269607 -0.018339999999999922
v -0.265813 -1.351438 0.7643730000000001
v -0.2785 -1.352589 0.7643730000000001
v -0.883544 -1.374463 0.8032660000000001
v -0.875218 -1.284596 -0.01833399999999992
v -0.862542 -1.283493 -0.01833399999999992
v -0.862542 -1.283493 -0.01833399999999992
v -0.87078 -1.373264 0.8032660000000001
v -0.952085 1.100338 -0.011651000000000068
v -0.932842 1.027184 1.256308
v -0.938652 1.047279 1.258615
v -0.957862 1.120357 -0.009345000000000069
v -0.952085 1.100338 -0.011651000000000068
v -0.422838 1.347346 0.058757999999999914
v -0.369096 1.335533 0.20047099999999993
v -0.301263 1.341467 0.20047099999999993
v -0.306636 1.396231 0.058757999999999914
v -0.422838 1.347346 0.058757999999999914
v -0.396374 1.30689 -0.00229300000000008
v -0.422838 1.347346 0.058757999999999914
v -0.336935 1.358559 -0.002293000000000083
v -0.422838 1.347346 0.058757999999999914
v -0.365601 1.234392 -0.0022930000000000754
v -0.22833 1.335441 0.05887899999999992
v -0.274657 1.27879 0.20047099999999993
v -0.306636 1.396231 0.058757999999999914
v -0.301263 1.341467 0.20047099999999993
v -0.269426 1.317996 -0.0022930000000000806
v -0.238997 1.236882 0.05875799999999992
v -0.287143 1.241256 -0.002293000000000076
v -0.365601 1.234392 -0.0022930000000000754
v -0.412254 1.221724 0.05875799999999992
v -0.369096 1.335533 0.20047099999999993
v -0.384412 1.269187 0.20047099999999993
v -0.287143 1.241256 -0.002293000000000076
v -0.321171 1.178381 0.05863599999999993
v -0.384412 1.269187 0.20047099999999993
v -0.238997 1.236882 0.05875799999999992
v -0.326047 1.234117 0.20047099999999993
v -0.274657 1.27879 0.20047099999999993
v -0.914012 0.8210260000000001 1.183178
v -0.862562 0.23295300000000008 1.185462
v -0.692597 0.2247030000000001 1.276397
v -0.741428 0.7828370000000001 1.276004
v -0.914012 0.8210260000000001 1.183178
v -0.493781 0.23407100000000008 1.309259
v -0.541684 0.7816000000000001 1.3086
v -0.296359 0.25936900000000007 1.276397
v -0.345189 0.8175040000000001 1.276004
v -0.130409 0.29700800000000005 1.185462
v -0.181859 0.8850810000000001 1.183179
v -0.076558 0.9740450000000002 1.044256
v -0.048765 -0.6361929999999999 1.185462
v 0.035357 0.4631120000000001 0.860576
v -0.045317 1.070851 0.8802949999999999
v 0.064766 -0.18740399999999993 0.880295
v 0.084526 -0.8671589999999999 1.044256
v 0.132103 -0.95707 0.8802950000000002
v -0.034623 -0.7978319999999999 1.183178
v -0.218707 -0.6282029999999998 1.275902
v -0.207207 -0.7596439999999999 1.276004
v -0.417568 -0.6370509999999999 1.308753
v -0.406951 -0.7584069999999999 1.3086
v -0.614945 -0.6628689999999999 1.275902
v -0.603445 -0.7943099999999998 1.276004
v -0.780917 -0.7002509999999998 1.185462
v -0.780917 -0.7002509999999998 1.185462
v -0.766776 -0.8618879999999999 1.183179
v -0.872077 -0.9508509999999999 1.044256
v -0.780917 -0.7002509999999998 1.185462
v -0.780917 -0.7002509999999998 1.185462
v -0.914012 0.8210260000000001 1.183178
v -0.943024 -0.5938129999999999 0.927376
v -0.903318 -1.047657 0.8802950000000002
v -1.033161 0.8903530000000001 1.044256
v -0.914012 0.8210260000000001 1.183178
v -0.99348 -0.017094999999999947 0.854363
v -1.080737 0.980264 0.8802949999999999
v -0.052126 1.268295 0.08573799999999991
v -0.103734 1.246388 0.2353099999999999
v -0.112424 1.208747 0.2353099999999999
v -0.127712 1.16188 0.08573799999999993
v -0.052126 1.268295 0.08573799999999991
v -0.150908 1.20538 0.2353099999999999
v -0.052126 1.268295 0.08573799999999991
v -0.101284 1.195932 -0.0014910000000000732
v -0.159654 1.190826 -0.0014910000000000728
v -0.182547 1.244761 -0.0014910000000000762
v -0.220628 1.253553 0.08573799999999991
v -0.141734 1.322136 0.08511899999999992
v -0.136378 1.260926 0.21179599999999993
v -0.220628 1.253553 0.08573799999999991
v -0.220628 1.253553 0.08573799999999991
v -0.166003 1.240941 0.2353099999999999
v -0.103734 1.246388 0.2353099999999999
v -0.052126 1.268295 0.08573799999999991
v -0.138327 1.2832 -0.0014910000000000784
v -0.088104 1.253023 -0.0014910000000000767
v -0.182547 1.244761 -0.0014910000000000762
v -0.220628 1.253553 0.08573799999999991
v -0.159654 1.190826 -0.0014910000000000728
v -0.127712 1.16188 0.08573799999999993
v -0.150908 1.20538 0.2353099999999999
v -0.166003 1.240941 0.2353099999999999
v 0.225181 -0.205783 -0.0001969999999999874
v 0.212719 0.014977 -0.0001970000000000009
v 0.118727 -2.199999999996339E-05 0.597891
v 0.113889 -0.19460799999999998 0.600265
v -1.035372 -0.30720499999999995 0.580391
v -1.047338 -0.10528699999999996 0.580391
v -1.147305 -0.104009 -0.00019699999999999362
v -1.127449 -0.33096 -0.00019699999999997972
v -1.203134 0.6344370000000001 1.08651
v -0.966177 0.7419040000000001 1.113435
v -1.079677 1.014858 1.022849
v -1.316633 0.9073910000000001 0.9959239999999999
v -1.433931 0.4584500000000001 0.550688
v -1.135746 0.538988 0.807508
v -1.121249 1.024728 0.6383509999999999
v -1.419435 0.94419 0.3815299999999999
v -1.065217 0.08319100000000003 0.395713
v -1.139895 0.622115 0.573276
v -1.34413 0.665251 0.35645699999999997
v -1.269452 0.126328 0.178893
v 1.331194 0.261799 0.287257
v 1.411741 0.526298 0.29948099999999994
v 1.102748 0.617793 0.35573299999999997
v 1.022202 0.353294 0.343509
v 1.157728 0.24422200000000002 0.562262
v 1.521356 0.45873800000000003 0.572634
v 1.373123 0.705803 0.659634
v 1.009495 0.49128800000000006 0.649262
v 1.010272 1.105873 0.06999599999999993
v 1.184153 1.355021 0.05001799999999992
v 0.869951 1.578896 0.1072889999999999
v 0.69607 1.329748 0.1272679999999999
v 1.253073 1.146538 0.5925999999999999
v 0.993026 1.298191 0.6382639999999999
v 0.823523 0.969905 0.7632429999999999
v 1.083571 0.818252 0.717579
v 0.900862 1.283635 0.10827699999999991
v 0.793597 1.111651 0.3354869999999999
v 1.158622 1.028411 0.4448059999999999
v 1.265887 1.200395 0.21759599999999993
v 0.413509 1.199435 0.2077819999999999
v 0.977249 1.297971 0.2021229999999999
v 0.926092 1.592605 0.23614199999999988
v 0.362352 1.494069 0.2418019999999999
v 0.636512 1.140307 0.12225999999999992
v 0.806285 1.300301 0.00393199999999992
v 0.607049 1.534678 0.0349819999999999
v 0.437276 1.374684 0.15330999999999992
v 1.005354 1.398594 -0.010202000000000084
v 1.005354 1.398594 0.3943839999999999
v 0.332664 1.39667 0.3943839999999999
v 0.332664 1.39667 -0.010202000000000084
v 0.428943 -1.238708 1.157315
v 0.425661 -1.20119 0.5147050000000001
v 1.343687 -1.120874 0.5147050000000001
v 1.34697 -1.158392 1.157315
v 1.067005 -1.354136 0.8612490000000002
v 1.350672 -1.159882 0.6556170000000001
v 1.053282 -0.797771 0.587446
v 0.769615 -0.992025 0.7930770000000001
v 0.338146 -1.361859 0.8303430000000002
v 0.758854 -1.325052 0.8303430000000002
v 0.732623 -1.025227 0.8303430000000002
v 0.311915 -1.062034 0.8303430000000002
v 1.160355 -0.9322329999999999 0.9655120000000001
v 0.637096 -1.156137 0.9054140000000002
v 0.759002 -1.422826 0.8375990000000001
v 1.282261 -1.198923 0.8976970000000001
v 0.256959 -1.063559 0.11760100000000007
v 0.426732 -0.903566 -0.0007269999999999447
v 0.227496 -0.669188 0.03032300000000004
v 0.057723 -0.829182 0.14865100000000006
v 0.562184 -0.896484 0.526604
v 0.38175 -1.103966 0.6573830000000002
v 0.69244 -1.328191 0.7303030000000001
v 0.872874 -1.120709 0.5995240000000001
v 0.428197 -1.23018 1.157315
v 1.346224 -1.149863 1.157315
v 1.342941 -1.112345 0.5147050000000001
v 0.424915 -1.192662 0.5147050000000001
v 1.004718 1.405866 -0.010202000000000086
v 0.332028 1.403942 -0.010202000000000086
v 0.332028 1.403942 0.3943839999999999
v 1.004718 1.405866 0.3943839999999999
v -1.224658 0.978898 -0.00721400000000006
v -1.142215 1.027688 0.15655599999999995
v -1.239022 1.082572 -0.007214000000000066
v -1.12786 0.917066 -0.0072090000000000565
v 0.276103 -0.966917 -0.007213999999999941
v 0.190077 -1.020021 0.15655600000000006
v 0.290467 -1.070591 -0.007213999999999934
v 0.179306 -0.905085 -0.007208999999999945
v 0.196473 -1.023413 0.8802950000000002
v -0.957643 -1.124385 0.8802950000000002
v -0.957643 -1.124385 -0.00019699999999993114
v 0.196473 -1.023413 -0.00019699999999993732
v 0.007817 1.13293 -0.00019700000000006935
v -1.146298 1.031958 -0.00019700000000006317
v -1.146298 1.031958 0.8802949999999999
v 0.007817 1.13293 0.8802949999999999
v 1.134449 1.169045 0.005875999999999928
v 1.134449 1.169045 0.49641399999999997
v 0.918029 1.111056 0.49641399999999997
v 0.918029 1.111056 0.0058759999999999325
v 1.103212 0.419944 0.005876999999999974
v 1.103212 0.41994400000000004 0.496414
v 1.319631 0.47793300000000005 0.49641399999999997
v 1.319631 0.477933 0.005875999999999971
v 1.131592 1.179881 0.0023359999999999275
v 0.9156 1.120263 0.0023359999999999314
v 0.9156 1.120263 0.4976749999999999
v 1.131592 1.179881 0.4976749999999999
v 1.10607 0.409109 0.002335999999999975
v 1.322058 0.468726 0.0023359999999999713
v 1.322058 0.46872600000000003 0.4976749999999999
v 1.10607 0.40910900000000006 0.497676
v -0.112424 1.208747 0.2353099999999999
v -0.103734 1.246388 0.2353099999999999
v -0.166003 1.240941 0.2353099999999999
v -0.150908 1.20538 0.2353099999999999
v 1.004718 1.405866 -0.010202000000000086
v 0.332028 1.403942 -0.010202000000000086
v 0.332028 1.403942 0.3943839999999999
v 1.004718 1.405866 0.3943839999999999
v -0.148026 -0.5947469999999999 1.38399
v -0.690361 -0.6421949999999998 1.38399
v -0.780917 -0.7002479999999999 1.185462
v -0.048765 -0.6361929999999999 1.185462
v -0.130409 0.29700800000000005 1.185462
v -0.220965 0.23895500000000008 1.38399
v -0.148026 -0.5947469999999999 1.38399
v -0.048765 -0.6361929999999999 1.185462
v -0.763301 0.1915070000000001 1.38399
v -0.220965 0.23895500000000008 1.38399
v -0.130409 0.29700800000000005 1.185462
v -0.862562 0.23295300000000008 1.185463
v -0.780917 -0.7002479999999999 1.185462
v -0.690361 -0.6421949999999998 1.38399
v -0.763301 0.1915070000000001 1.38399
v -0.862562 0.23295300000000008 1.185463
v -0.690361 -0.6421949999999998 1.38399
v -0.148026 -0.5947469999999999 1.38399
v -0.220965 0.23895500000000008 1.38399
v -0.763301 0.1915070000000001 1.38399
v -0.273302 -1.339583 0.7643730000000001
v -0.316709 -1.257455 -0.018338999999999925
v -0.321939 -1.270713 -0.018339999999999922
v -0.2785 -1.352589 0.7643730000000001
v -0.87078 -1.373264 0.8032660000000001
v -0.862542 -1.283493 -0.01833399999999992
v -0.869994 -1.271336 -0.018332999999999922
v -0.878243 -1.361656 0.8032660000000001
v -0.247006 -1.356736 0.7351200000000001
v -0.30975 -1.062445 0.7826520000000001
v -0.906036 -1.11814 0.8041790000000001
v -0.896246 -1.386244 0.7819770000000001
v 0.442079 -0.917635 0.0008510000000000561
v 0.443214 -0.930606 0.14047600000000005
v 0.456092 -1.077812 0.14047600000000005
v 0.457227 -1.090783 0.0008510000000000668
v 0.437359 -1.092521 0.0008510000000000669
v 0.436224 -1.07955 0.14047500000000004
v 0.423345 -0.932345 0.14047500000000004
v 0.42221 -0.919373 0.0008510000000000562
v 0.441785 -1.030266 0.07028200000000007
v 0.947592 -0.986013 0.07028200000000005
v 0.943187 -0.935662 0.07028200000000005
v 0.43738 -0.979914 0.07028200000000005
v 0.952761 -0.872956 0.0008510000000000534
v 0.953895 -0.885927 0.14047600000000005
v 0.966774 -1.033133 0.14047500000000004
v 0.967909 -1.046105 0.000851000000000064
v 0.948041 -1.047843 0.0008510000000000642
v 0.946906 -1.034871 0.14047500000000004
v 0.934027 -0.887666 0.14047500000000004
v 0.932893 -0.874694 0.0008510000000000535
v 0.398142 -1.105975 0.15933400000000006
v 1.003725 -1.052994 0.15933400000000006
v 0.986836 -0.859952 0.15933400000000006
v 0.381253 -0.912933 0.15933400000000006
v -0.607867 1.151703 0.03046799999999993
v -0.610227 1.157844 0.0059239999999999285
v -0.653198 1.250069 0.024938999999999923
v -0.64795 1.236438 0.08440899999999993
v -0.627266 1.151679 0.00601999999999993
v -0.624906 1.145539 0.03056499999999993
v -0.647951 1.236438 0.08440899999999993
v -0.653198 1.250069 0.024938999999999923
v -0.581538 1.076235 0.28109899999999993
v -0.618939 1.170267 -0.0030780000000000716
v -0.62583 1.189401 0.002370999999999927
v -0.588122 1.09474 0.30073999999999995
v -0.601113 1.09004 0.30081299999999994
v -0.635677 1.185839 0.0024259999999999278
v -0.628786 1.166705 -0.0030230000000000716
v -0.594529 1.071535 0.2811719999999999
v -0.957862 1.120357 -0.009345000000000069
v -0.938652 1.047279 1.258615
v -0.917565 1.048957 1.258699
v -0.936857 1.122025 -0.00919500000000007
v -0.931162 1.101845 -0.011517000000000067
v -0.911907 1.028766 1.256387
v -0.932842 1.027184 1.256308
v -0.952085 1.100338 -0.011651000000000068
v -1.20275 0.932735 0.004824999999999943
v -1.141774 0.235777 0.0048249999999999856
v -1.141774 0.23577700000000004 0.729785
v -1.20275 0.932735 0.7297849999999999
v -0.939656 1.343182 0.7156629999999999
v -0.914107 1.051147 0.8461409999999999
v -0.163828 1.116787 0.8461409999999999
v -0.189378 1.408823 0.7156629999999999
v -0.939653 1.34234 0.5959899999999999
v -0.939656 1.343182 0.7156629999999999
v -0.189378 1.408823 0.7156629999999999
v -0.189289 1.407988 0.5959899999999999
v -0.914107 1.05035 0.5959899999999999
v -0.914107 1.051147 0.8461409999999999
v -0.939656 1.343182 0.7156629999999999
v -0.939653 1.34234 0.5959899999999999
v -0.189289 1.407988 0.5959899999999999
v -0.189378 1.408823 0.7156629999999999
v -0.163828 1.116787 0.8461409999999999
v -0.163743 1.115999 0.5959899999999999
v 1.340842 -0.409361 -0.0007209999999999749
v 1.341706 -0.238226 -0.0007149999999999854
v 1.290916 -0.27454 0.14226400000000003
v 1.297881 -0.400041 0.14124300000000004
v 1.323947 -1.129432 0.6349020000000001
v 1.388077 -1.070685 0.0009830000000000654
v 0.373231 -1.159472 0.0009830000000000708
v 0.446708 -1.207559 0.6349020000000001
v 0.392972 -1.385113 0.0009830000000000847
v 0.457102 -1.326366 0.6349020000000001
v 0.446708 -1.207559 0.6349020000000001
v 0.373231 -1.159472 0.0009830000000000708
v 0.392972 -1.385113 0.0009830000000000847
v 1.407817 -1.296325 0.0009830000000000793
v 0.457102 -1.326366 0.6349020000000001
v 1.33446 -1.249607 0.6349020000000001
v 1.388077 -1.070685 0.0009830000000000654
v 1.323947 -1.129432 0.6349020000000001
v 1.33446 -1.249607 0.6349020000000001
v 1.407817 -1.296325 0.0009830000000000793
v 1.323947 -1.129432 0.6349020000000001
v 0.446708 -1.207559 0.6349020000000001
v 0.457102 -1.326366 0.6349020000000001
v 1.33446 -1.249607 0.6349020000000001
v -0.925504 1.202624 0.18387199999999992
v -0.977088 1.287694 0.1838889999999999
v -0.993294 1.125055 0.18389699999999995
v -1.077029 1.261995 0.18392899999999993
v -1.087216 1.161619 0.18392999999999993
v -1.105413 1.150278 0.0025389999999999298
v -1.087216 1.161619 0.18392999999999993
v -1.077029 1.261995 0.18392899999999993
v -1.093427 1.274703 0.002538999999999922
v -0.977088 1.287694 0.1838889999999999
v -0.971376 1.301807 0.0025369999999999204
v -0.925504 1.202624 0.18387199999999992
v -0.907929 1.194121 0.002536999999999927
v -0.993294 1.125055 0.18389699999999995
v -0.990765 1.100476 0.0025379999999999327
v -1.087216 1.161619 0.18392999999999993
v -1.105413 1.150278 0.0025389999999999298
v 1.211218 -0.11680599999999998 0.274531
v 1.289015 -0.15817099999999998 0.274531
v 1.226519 -0.030033999999999984 0.274531
v 1.352397 -0.09696399999999998 0.274531
v 1.313772 -0.01777099999999998 0.274531
v 1.078225 0.186802 0.204063
v 1.009496 0.202669 0.204063
v 1.084373 0.11653400000000001 0.204063
v 0.973167 0.142208 0.204063
v 1.019443 0.08897300000000001 0.204063
v 1.014867 -0.009135999999999983 0.274531
v 0.977892 -0.07867599999999998 0.272871
v 1.092429 -0.022812999999999983 0.274531
v 1.032602 -0.13532999999999998 0.274531
v 1.10339 -0.10080499999999999 0.274531
v 1.293683 0.10817000000000002 0.204063
v 1.3114 0.184909 0.204063
v 1.215225 0.10130600000000001 0.204063
v 1.243891 0.225473 0.204063
v 1.184451 0.173804 0.204063
v -0.957643 -1.124385 -0.00019699999999993114
v -0.957643 -1.124385 0.8802950000000002
v -1.024521 -0.6306289999999999 0.927376
v -1.028414 -0.315458 -0.00019699999999998066
v -1.051592 -0.027280999999999948 0.850847
v -1.047676 -0.095293 -0.00019699999999999416
v -1.146298 1.031958 -0.00019700000000006317
v -1.146298 1.031958 0.8802949999999999
v 0.196473 -1.023413 0.8802950000000002
v 0.196473 -1.023413 -0.00019699999999993732
v 0.100669 -0.215112 -0.00019699999999998682
v 0.113558 -0.18092099999999994 0.892435
v 0.126484 0.090931 -0.00019700000000000555
v 0.094701 0.45421000000000006 0.860576
v 0.007817 1.13293 0.8802949999999999
v 0.007817 1.13293 -0.00019700000000006935
v -0.92517 1.006428 1.381194
v -0.891231 1.030872 1.493014
v -0.935601 0.9763100000000001 1.381718
v -0.917565 1.048957 1.258699
v -0.911907 1.028766 1.256387
v -0.949153 0.9857040000000001 1.382848
v -0.891231 1.030872 1.493014
v -0.92517 1.006428 1.381194
v -0.938652 1.047279 1.258615
v -0.917565 1.048957 1.258699
v -0.326047 1.234117 0.20047099999999993
v -0.274657 1.27879 0.20047099999999993
v -0.384412 1.269187 0.20047099999999993
v -0.301263 1.341467 0.20047099999999993
v -0.369096 1.335533 0.20047099999999993
v 0.215437 1.06892 0.18210099999999996
v 0.163853 1.153991 0.18211799999999992
v 0.147647 0.991352 0.18212599999999995
v 0.063912 1.128291 0.18215799999999993
v 0.053726 1.027916 0.18215899999999993
v 0.035528 1.016575 0.0007679999999999378
v 0.053726 1.027916 0.18215899999999993
v 0.063912 1.128291 0.18215799999999993
v 0.047514 1.141 0.0007679999999999302
v 0.163853 1.153991 0.18211799999999992
v 0.169566 1.168104 0.0007669999999999284
v 0.215437 1.06892 0.18210099999999996
v 0.233012 1.060418 0.000765999999999935
v 0.147647 0.991352 0.18212599999999995
v 0.150176 0.966773 0.0007669999999999408
v 0.053726 1.027916 0.18215899999999993
v 0.035528 1.016575 0.0007679999999999378
v -0.785547 0.26694900000000005 1.288959
v -0.846522 0.9639010000000001 1.288959
v -1.033733 0.9475220000000001 1.157758
v -0.972758 0.25057000000000007 1.157758
v -1.158824 0.9365780000000001 0.9614019999999999
v -1.097848 0.23962000000000006 0.961402
v -1.141774 0.23577700000000004 0.729785
v -1.20275 0.932735 0.7297849999999999
v 0.874499 0.990915 0.7607259999999999
v 0.84738 1.092126 0.49641399999999997
v 1.205097 1.187976 0.49641399999999997
v 1.232217 1.086765 0.7607259999999999
v 0.939971 0.74657 0.870207
v 1.297689 0.84242 0.870207
v 1.005443 0.502225 0.760726
v 1.363161 0.598075 0.760726
v 1.032563 0.40101400000000004 0.496414
v 1.39028 0.49686400000000003 0.49641399999999997
v 1.230149 1.094669 0.7686329999999999
v 1.202262 1.198817 0.4976749999999999
v 0.844959 1.101335 0.4976749999999999
v 0.87285 0.997188 0.7686329999999999
v 1.297476 0.843234 0.880868
v 0.940185 0.745756 0.880868
v 1.364802 0.591799 0.768633
v 1.007521 0.49432300000000007 0.768633
v 1.39269 0.48765100000000006 0.4976749999999999
v 1.035412 0.3901760000000001 0.497676
v -1.016353 0.9490430000000001 1.139319
v -0.829141 0.9654210000000001 1.27052
v -0.768166 0.26846900000000007 1.27052
v -0.955377 0.25209000000000004 1.139319
v -1.141443 0.9380990000000001 0.9429639999999999
v -1.080467 0.24114000000000005 0.942964
v -1.185369 0.934256 0.7113459999999999
v -0.076558 0.9740450000000002 1.044256
v -0.045317 1.070851 0.8802949999999999
v -0.181859 0.8850810000000001 1.183179
v -1.080737 0.980263 0.8803859999999999
v -0.541684 0.7816000000000001 1.3086
v -0.345189 0.8175040000000001 1.276004
v -0.914011 0.8210260000000001 1.183179
v -0.741428 0.7828370000000001 1.276004
v -1.033161 0.8903530000000001 1.044256
v -0.903317 -1.047657 0.8803860000000001
v 0.132103 -0.95707 0.8802950000000002
v -0.872077 -0.9508509999999999 1.044256
v 0.084527 -0.8671589999999999 1.044256
v -0.603445 -0.7943099999999998 1.276004
v -0.766776 -0.8618879999999999 1.183179
v -0.207207 -0.7596439999999999 1.276004
v -0.406951 -0.7584069999999999 1.3086
v -0.034623 -0.7978319999999999 1.183179
v -0.949153 0.9857040000000001 1.382848
v -0.938652 1.047279 1.258615
v -0.932842 1.027184 1.256308
v -0.935601 0.9763100000000001 1.381718
v -0.911907 1.028766 1.256387
v -0.891231 1.030872 1.493014
v 1.211218 -0.11680599999999998 0.274531
v 1.226519 -0.030033999999999984 0.274531
v 1.191822 0.0058940000000000095 0.155087
v 1.226519 -0.030034 0.0019820000000000016
v 1.211218 -0.116806 0.0019820000000000068
v 1.166325 -0.138702 0.138251
v 1.289015 -0.15817099999999998 0.274531
v 1.289015 -0.158171 0.0019820000000000094
v 1.295967 -0.207631 0.138251
v 1.352397 -0.09696399999999998 0.274531
v 1.352397 -0.096965 0.001982000000000006
v 1.401586 -0.10563799999999998 0.138251
v 1.313772 -0.01777099999999998 0.274531
v 1.313772 -0.017772 0.001982000000000001
v 1.337221 0.02632800000000001 0.146669
v 1.226519 -0.030033999999999984 0.274531
v 1.226519 -0.030034 0.0019820000000000016
v 1.191822 0.0058940000000000095 0.155087
v 1.084373 0.11653400000000001 0.204063
v 1.019443 0.08897300000000001 0.204063
v 1.010448 0.05001300000000001 0.102712
v 1.019443 0.088973 0.0013379999999999946
v 1.084373 0.116534 0.0013379999999999928
v 1.118647 0.095941 0.102712
v 1.078225 0.186802 0.204063
v 1.078225 0.186802 0.0013379999999999885
v 1.108403 0.213036 0.10271199999999998
v 1.009496 0.202669 0.204063
v 1.009496 0.202669 0.0013379999999999876
v 0.993872 0.239475 0.10271099999999998
v 0.973167 0.142208 0.204063
v 0.973167 0.142208 0.0013379999999999913
v 0.933334 0.138723 0.10271199999999998
v 1.019443 0.08897300000000001 0.204063
v 1.019443 0.088973 0.0013379999999999946
v 1.010448 0.05001300000000001 0.102712
v 1.014867 -0.009135999999999983 0.274531
v 1.092429 -0.022812999999999983 0.274531
v 1.124543 0.008201000000000009 0.146669
v 1.092429 -0.022813 0.001982000000000001
v 1.014867 -0.009137 0.0019820000000000003
v 0.995295 0.030991000000000008 0.138251
v 0.977892 -0.07867599999999998 0.272871
v 0.977892 -0.078676 0.0019820000000000046
v 0.933682 -0.08488999999999998 0.140254
v 1.032602 -0.13532999999999998 0.274531
v 1.032602 -0.13533 0.001982000000000008
v 1.024849 -0.179298 0.138251
v 1.10339 -0.10080499999999999 0.274531
v 1.10339 -0.100805 0.001982000000000006
v 1.142809 -0.12176499999999998 0.138251
v 1.092429 -0.022812999999999983 0.274531
v 1.092429 -0.022813 0.001982000000000001
v 1.124543 0.008201000000000009 0.146669
v 1.293683 0.10817000000000002 0.204063
v 1.215225 0.10130600000000001 0.204063
v 1.192232 0.06303600000000001 0.119547
v 1.215225 0.101306 0.0013379999999999937
v 1.293683 0.10817 0.0013379999999999933
v 1.322975 0.07447500000000001 0.119547
v 1.3114 0.184909 0.204063
v 1.3114 0.184909 0.0013379999999999887
v 1.352496 0.202354 0.10271099999999998
v 1.243891 0.225473 0.204063
v 1.243891 0.225473 0.0013379999999999861
v 1.24 0.26995 0.10271199999999998
v 1.184451 0.173804 0.204063
v 1.184451 0.173804 0.0013379999999999894
v 1.140951 0.183847 0.10271199999999998
v 1.215225 0.10130600000000001 0.204063
v 1.215225 0.101306 0.0013379999999999937
v 1.192232 0.06303600000000001 0.119547
v 0.035357 0.4631120000000001 0.860576
v 0.056483 -0.19796799999999995 0.892435
v 0.113558 -0.18092099999999994 0.892435
v 0.132103 -0.95707 0.8802950000000002
v 0.094701 0.45421000000000006 0.860576
v 0.196473 -1.023413 0.8802950000000002
v -0.045317 1.070851 0.8802949999999999
v -0.957643 -1.124385 0.8802950000000002
v 0.007817 1.13293 0.8802949999999999
v -0.903318 -1.047657 0.8802950000000002
v -1.146298 1.031958 0.8802949999999999
v -1.024521 -0.6306289999999999 0.927376
v -1.080737 0.980264 0.8802949999999999
v -0.943024 -0.5938129999999999 0.927376
v -0.99348 -0.017094999999999947 0.854364
v -1.051592 -0.027280999999999948 0.850847
vt 0.642770 0.644114
vt 0.627565 0.644114
vt 0.646127 0.475361
vt 0.674385 0.475709
vt 0.693126 0.644114
vt 0.678176 0.644114
vt 0.712711 0.644492
vt 0.697323 0.644492
vt 0.716068 0.471994
vt 0.744139 0.471994
vt 0.762885 0.644492
vt 0.747496 0.644492
vt 0.987871 0.112383
vt 0.989745 0.136192
vt 0.970131 0.138022
vt 0.767655 0.412424
vt 0.620699 0.412425
vt 0.530354 0.412197
vt 0.933107 0.487581
vt 0.932296 0.490443
vt 0.931404 0.487292
vt 0.939601 0.498342
vt 0.938731 0.501147
vt 0.937920 0.497961
vt 0.538022 0.040737
vt 0.383011 0.041087
vt 0.383112 0.035535
vt 0.383112 0.035535
vt 0.538022 0.035184
vt 0.538022 0.040737
vt 0.681466 0.453571
vt 0.698065 0.454181
vt 0.700863 0.494843
vt 0.700863 0.494843
vt 0.679740 0.493862
vt 0.681466 0.453571
vt 0.701597 0.456393
vt 0.702564 0.416484
vt 0.712145 0.426515
vt 0.671077 0.421354
vt 0.681693 0.416212
vt 0.681466 0.453571
vt 0.121549 0.608799
vt 0.126646 0.758167
vt 0.109924 0.584547
vt 0.392421 0.433773
vt 0.407900 0.468268
vt 0.392295 0.489834
vt 0.392421 0.433773
vt 0.415917 0.439518
vt 0.505573 0.415935
vt 0.520248 0.381504
vt 0.529467 0.416130
vt 0.505573 0.415935
vt 0.508453 0.364857
vt 0.638217 0.464979
vt 0.624770 0.454514
vt 0.643774 0.426336
vt 0.643774 0.426336
vt 0.649191 0.465113
vt 0.663323 0.452512
vt 0.933107 0.487581
vt 0.933324 0.279972
vt 0.934875 0.280133
vt 0.934660 0.487741
vt 0.933107 0.487581
vt 0.939601 0.498342
vt 0.939595 0.280628
vt 0.941147 0.280563
vt 0.941147 0.280563
vt 0.941165 0.498273
vt 0.538022 0.029659
vt 0.383121 0.030005
vt 0.382964 0.024471
vt 0.538022 0.024148
vt 0.538022 0.029659
vt 0.982126 0.911089
vt 0.959668 0.903325
vt 0.960236 0.867795
vt 0.982256 0.878154
vt 0.982126 0.911089
vt 0.992780 0.918519
vt 0.982126 0.911089
vt 0.992665 0.887505
vt 0.982126 0.911089
vt 0.993587 0.948422
vt 0.983248 0.852585
vt 0.961537 0.835379
vt 0.982256 0.878154
vt 0.960236 0.867795
vt 0.993222 0.857583
vt 0.985542 0.826295
vt 0.996488 0.832984
vt 0.993587 0.948422
vt 0.982900 0.944421
vt 0.959668 0.903325
vt 0.960596 0.938673
vt 0.996871 0.973121
vt 0.984512 0.970745
vt 0.960596 0.938673
vt 0.987726 0.998663
vt 0.961503 0.973795
vt 0.962914 0.999563
vt 0.530354 0.412197
vt 0.620699 0.412425
vt 0.624487 0.472428
vt 0.536307 0.472428
vt 0.530354 0.412197
vt 0.625621 0.533670
vt 0.539115 0.533670
vt 0.624224 0.594835
vt 0.536044 0.594116
vt 0.620539 0.653306
vt 0.527841 0.653306
vt 0.515410 0.707966
vt 0.768010 0.653306
vt 0.597199 0.759283
vt 0.500733 0.759283
vt 0.699176 0.759283
vt 0.806062 0.707966
vt 0.820778 0.759283
vt 0.793548 0.653306
vt 0.764022 0.595463
vt 0.784787 0.594969
vt 0.762294 0.533670
vt 0.781466 0.533670
vt 0.763260 0.472428
vt 0.784026 0.472428
vt 0.767655 0.412424
vt 0.767655 0.412424
vt 0.792774 0.412197
vt 0.804476 0.361592
vt 0.767655 0.412424
vt 0.767655 0.412424
vt 0.530354 0.412197
vt 0.744597 0.310275
vt 0.819456 0.310275
vt 0.516870 0.361592
vt 0.530354 0.412197
vt 0.659389 0.300930
vt 0.500267 0.310275
vt 0.970131 0.138022
vt 0.936792 0.139205
vt 0.937392 0.121639
vt 0.967079 0.092173
vt 0.970131 0.138022
vt 0.937988 0.104794
vt 0.970131 0.138022
vt 0.987871 0.112383
vt 0.982654 0.091222
vt 0.987235 0.183924
vt 0.966766 0.186368
vt 0.969537 0.161537
vt 0.941393 0.156561
vt 0.966766 0.186368
vt 0.966766 0.186368
vt 0.936887 0.174549
vt 0.936792 0.139205
vt 0.970131 0.138022
vt 0.989498 0.160394
vt 0.989745 0.136192
vt 0.987235 0.183924
vt 0.966766 0.186368
vt 0.982041 0.204910
vt 0.964138 0.212721
vt 0.937565 0.191089
vt 0.936887 0.174549
vt 0.677299 0.644114
vt 0.643780 0.644114
vt 0.645535 0.475361
vt 0.672959 0.475709
vt 0.716068 0.471994
vt 0.744139 0.471994
vt 0.747496 0.644492
vt 0.712711 0.644492
vt 0.788621 0.208594
vt 0.788621 0.289232
vt 0.740964 0.289232
vt 0.740964 0.208594
vt 0.534582 0.071920
vt 0.534582 0.196237
vt 0.454959 0.196237
vt 0.454959 0.071920
vt 0.593231 0.089885
vt 0.593231 0.258356
vt 0.548933 0.258356
vt 0.548933 0.089885
vt 0.788621 0.208594
vt 0.788621 0.289232
vt 0.740964 0.289232
vt 0.740964 0.208594
vt 0.472098 0.203269
vt 0.534256 0.203268
vt 0.534256 0.291865
vt 0.472098 0.291865
vt 0.534582 0.071920
vt 0.534582 0.196237
vt 0.454959 0.196237
vt 0.454959 0.071920
vt 0.534582 0.071920
vt 0.534582 0.196237
vt 0.454959 0.196237
vt 0.454959 0.071920
vt 0.534582 0.071920
vt 0.534582 0.196237
vt 0.454959 0.196237
vt 0.454959 0.071920
vt 0.593231 0.089885
vt 0.593231 0.258356
vt 0.548933 0.258356
vt 0.548933 0.089885
vt 0.788621 0.208594
vt 0.788621 0.289232
vt 0.740964 0.289232
vt 0.740964 0.208594
vt 0.108594 0.399883
vt 0.108594 0.262409
vt 0.002717 0.262409
vt 0.002717 0.399883
vt 0.601732 0.083552
vt 0.601732 0.287969
vt 0.737285 0.287969
vt 0.737285 0.083552
vt 0.093474 0.125470
vt 0.093474 0.246492
vt 0.021950 0.246492
vt 0.021950 0.125470
vt 0.472098 0.203269
vt 0.534256 0.203268
vt 0.534256 0.291865
vt 0.472098 0.291865
vt 0.593231 0.089885
vt 0.593231 0.258356
vt 0.548933 0.258356
vt 0.548933 0.089885
vt 0.788621 0.208594
vt 0.788621 0.289232
vt 0.740964 0.289232
vt 0.740964 0.208594
vt 0.534582 0.071920
vt 0.534582 0.196237
vt 0.454959 0.196237
vt 0.454959 0.071920
vt 0.601732 0.083552
vt 0.737285 0.083552
vt 0.737285 0.287969
vt 0.601732 0.287969
vt 0.108594 0.399883
vt 0.002717 0.399883
vt 0.002717 0.262409
vt 0.108594 0.262409
vt 0.374463 0.470944
vt 0.392421 0.433773
vt 0.392295 0.489834
vt 0.366328 0.437984
vt 0.521806 0.454863
vt 0.505573 0.415935
vt 0.529467 0.416130
vt 0.506877 0.471870
vt 0.270999 0.765317
vt 0.410571 0.765317
vt 0.410571 0.995920
vt 0.270999 0.995920
vt 0.818402 0.995920
vt 0.681164 0.995920
vt 0.681164 0.765317
vt 0.818402 0.765317
vt 0.900311 0.909997
vt 0.823104 0.909998
vt 0.823104 0.833867
vt 0.900310 0.833866
vt 0.900310 0.825650
vt 0.823104 0.825650
vt 0.823104 0.749519
vt 0.900310 0.749519
vt 0.867990 0.209399
vt 0.867990 0.285535
vt 0.790027 0.285536
vt 0.790027 0.209399
vt 0.900860 0.915697
vt 0.900861 0.991833
vt 0.822898 0.991834
vt 0.822898 0.915698
vt 0.942605 0.269466
vt 0.934237 0.275489
vt 0.934117 0.244695
vt 0.942530 0.250415
vt 0.108594 0.399883
vt 0.002717 0.399883
vt 0.002717 0.262409
vt 0.108594 0.262409
vt 0.266628 0.420337
vt 0.358956 0.420337
vt 0.375113 0.495289
vt 0.250471 0.495289
vt 0.250564 0.729138
vt 0.259034 0.648515
vt 0.400963 0.648515
vt 0.409433 0.729139
vt 0.267274 0.481867
vt 0.359601 0.481867
vt 0.375758 0.556818
vt 0.251116 0.556818
vt 0.248518 0.642578
vt 0.256987 0.561954
vt 0.398917 0.561954
vt 0.407386 0.642578
vt 0.154347 0.424103
vt 0.246675 0.424102
vt 0.246579 0.730579
vt 0.154252 0.730445
vt 0.931404 0.487292
vt 0.931590 0.279677
vt 0.933324 0.279972
vt 0.933107 0.487581
vt 0.941165 0.498273
vt 0.941147 0.280563
vt 0.942880 0.280234
vt 0.942843 0.497960
vt 0.080880 0.034950
vt 0.076213 0.115697
vt 0.003101 0.115332
vt 0.001443 0.041228
vt 0.887438 0.070759
vt 0.886496 0.034216
vt 0.904328 0.034216
vt 0.908412 0.070759
vt 0.863817 0.070759
vt 0.866050 0.034216
vt 0.884066 0.034216
vt 0.885008 0.070759
vt 0.907786 0.025178
vt 0.845837 0.024880
vt 0.845851 0.011567
vt 0.907799 0.011865
vt 0.838357 0.070759
vt 0.836671 0.034216
vt 0.854369 0.034216
vt 0.859175 0.070759
vt 0.814729 0.070759
vt 0.816220 0.034216
vt 0.834249 0.034216
vt 0.835935 0.070759
vt 0.986058 0.064386
vt 0.911869 0.064386
vt 0.911869 0.013376
vt 0.986058 0.013376
vt 0.109098 0.066139
vt 0.109018 0.072830
vt 0.096381 0.074242
vt 0.096374 0.058104
vt 0.109135 0.041435
vt 0.109279 0.048122
vt 0.096591 0.056735
vt 0.096498 0.040621
vt 0.114799 0.050157
vt 0.152699 0.050157
vt 0.152699 0.055491
vt 0.114799 0.055491
vt 0.114799 0.058539
vt 0.152699 0.058539
vt 0.152699 0.063895
vt 0.114799 0.063896
vt 0.538022 0.046284
vt 0.383076 0.046657
vt 0.383011 0.041087
vt 0.538022 0.040737
vt 0.538022 0.035184
vt 0.383112 0.035535
vt 0.383121 0.030005
vt 0.538022 0.029659
vt 0.335808 0.067871
vt 0.335808 0.305595
vt 0.221706 0.305596
vt 0.221705 0.067872
vt 0.916852 0.737714
vt 0.956001 0.736986
vt 0.956793 0.935359
vt 0.917644 0.936087
vt 0.902251 0.737967
vt 0.916852 0.737714
vt 0.917644 0.936087
vt 0.903043 0.936363
vt 0.943438 0.676935
vt 0.956001 0.736986
vt 0.916852 0.737714
vt 0.910893 0.708936
vt 0.911916 0.965083
vt 0.917644 0.936087
vt 0.956793 0.935359
vt 0.944712 0.995868
vt 0.681693 0.416212
vt 0.702564 0.416484
vt 0.698065 0.454181
vt 0.681466 0.453571
vt 0.121906 0.428445
vt 0.127003 0.577813
vt 0.002709 0.577813
vt 0.019432 0.404193
vt 0.408025 0.421311
vt 0.321097 0.407187
vt 0.321097 0.375774
vt 0.408025 0.361650
vt 0.126646 0.758167
vt 0.002353 0.758167
vt 0.109924 0.584547
vt 0.019075 0.584547
vt 0.143319 0.361650
vt 0.212418 0.375050
vt 0.230247 0.407187
vt 0.143319 0.421311
vt 0.212418 0.375050
vt 0.321097 0.375774
vt 0.321097 0.407187
vt 0.230247 0.407187
vt 0.798076 0.625617
vt 0.804998 0.604091
vt 0.805747 0.647113
vt 0.816975 0.612473
vt 0.817459 0.639028
vt 0.649827 0.071607
vt 0.653692 0.024623
vt 0.667555 0.024623
vt 0.665377 0.071607
vt 0.682021 0.024623
vt 0.681313 0.071607
vt 0.696147 0.024623
vt 0.697342 0.071607
vt 0.710564 0.024623
vt 0.713243 0.071607
vt 0.724262 0.024623
vt 0.728614 0.071607
vt 0.912095 0.631692
vt 0.925640 0.612702
vt 0.916275 0.665372
vt 0.938192 0.634645
vt 0.932404 0.667196
vt 0.950611 0.217957
vt 0.943381 0.241098
vt 0.942651 0.195961
vt 0.930953 0.233404
vt 0.930501 0.205508
vt 0.945821 0.676459
vt 0.937958 0.650320
vt 0.959765 0.668392
vt 0.947043 0.626099
vt 0.960521 0.637268
vt 0.913346 0.662291
vt 0.917807 0.691932
vt 0.898910 0.662291
vt 0.906128 0.710252
vt 0.894448 0.691933
vt 0.414050 0.995920
vt 0.414050 0.765635
vt 0.474502 0.765635
vt 0.511938 0.995920
vt 0.547533 0.765635
vt 0.538903 0.995920
vt 0.676457 0.995920
vt 0.676457 0.765635
vt 0.266285 0.765699
vt 0.266285 0.995920
vt 0.166984 0.996162
vt 0.162874 0.765986
vt 0.130157 0.995920
vt 0.085605 0.765699
vt 0.003637 0.765699
vt 0.003637 0.995920
vt 0.525525 0.508608
vt 0.536046 0.530421
vt 0.522176 0.512791
vt 0.523001 0.474984
vt 0.520697 0.476455
vt 0.512362 0.512537
vt 0.498501 0.530597
vt 0.508960 0.508632
vt 0.513897 0.475894
vt 0.511509 0.474953
vt 0.904840 0.654115
vt 0.892480 0.650365
vt 0.910312 0.629896
vt 0.890313 0.623829
vt 0.901334 0.611178
vt 0.866568 0.645779
vt 0.873490 0.624252
vt 0.874240 0.667274
vt 0.885467 0.632634
vt 0.885951 0.659189
vt 0.730545 0.070947
vt 0.734121 0.023959
vt 0.748188 0.023959
vt 0.745950 0.070947
vt 0.762938 0.023959
vt 0.761816 0.070947
vt 0.777398 0.023959
vt 0.777836 0.070947
vt 0.792221 0.023959
vt 0.793797 0.070947
vt 0.806385 0.023959
vt 0.809316 0.070947
vt 0.111839 0.305595
vt 0.111839 0.067873
vt 0.147912 0.067872
vt 0.147913 0.305594
vt 0.184596 0.067872
vt 0.184596 0.305596
vt 0.221706 0.305596
vt 0.221705 0.067872
vt 0.794954 0.201984
vt 0.749380 0.201985
vt 0.749380 0.076148
vt 0.794954 0.076147
vt 0.839240 0.201984
vt 0.839240 0.076147
vt 0.883527 0.201983
vt 0.883527 0.076147
vt 0.929101 0.201983
vt 0.929100 0.076146
vt 0.928940 0.505539
vt 0.928940 0.606462
vt 0.870650 0.606463
vt 0.870650 0.505539
vt 0.928939 0.407228
vt 0.870650 0.407229
vt 0.928939 0.308918
vt 0.870649 0.308919
vt 0.928939 0.207995
vt 0.870649 0.207996
vt 0.375476 0.305482
vt 0.339403 0.305482
vt 0.339403 0.067760
vt 0.375476 0.067759
vt 0.412160 0.305482
vt 0.412160 0.067757
vt 0.449270 0.305481
vt 0.835994 0.303191
vt 0.865705 0.289749
vt 0.813973 0.341471
vt 0.865706 0.641320
vt 0.788065 0.466335
vt 0.798500 0.398759
vt 0.810806 0.589599
vt 0.793976 0.533911
vt 0.835994 0.625212
vt 0.480075 0.376951
vt 0.480075 0.725123
vt 0.450363 0.388504
vt 0.450363 0.712303
vt 0.408345 0.484071
vt 0.425175 0.426783
vt 0.408345 0.619223
vt 0.402435 0.551647
vt 0.425797 0.675475
vt 0.516146 0.513936
vt 0.513897 0.475894
vt 0.517202 0.477515
vt 0.518157 0.514256
vt 0.520697 0.476455
vt 0.516630 0.550846
vt 0.947162 0.272565
vt 0.946383 0.239414
vt 0.971626 0.230041
vt 0.993539 0.252817
vt 0.989869 0.281402
vt 0.968745 0.273515
vt 0.945792 0.312807
vt 0.989241 0.316228
vt 0.967675 0.313812
vt 0.945796 0.354136
vt 0.989279 0.352726
vt 0.967682 0.353147
vt 0.946994 0.394046
vt 0.989818 0.388377
vt 0.968556 0.393372
vt 0.945997 0.427032
vt 0.992549 0.418255
vt 0.970396 0.437201
vt 0.877339 0.671739
vt 0.889110 0.669626
vt 0.893054 0.709763
vt 0.885558 0.745047
vt 0.875076 0.739470
vt 0.877395 0.706034
vt 0.863285 0.669891
vt 0.862324 0.738799
vt 0.863037 0.704705
vt 0.848911 0.669596
vt 0.849060 0.738503
vt 0.849088 0.704389
vt 0.834857 0.670990
vt 0.836274 0.738699
vt 0.834734 0.705060
vt 0.823097 0.668600
vt 0.825595 0.743271
vt 0.818998 0.707798
vt 0.947225 0.486163
vt 0.946371 0.457401
vt 0.970000 0.448034
vt 0.991088 0.467655
vt 0.988208 0.492500
vt 0.967928 0.485887
vt 0.946676 0.522070
vt 0.987881 0.522727
vt 0.967352 0.520794
vt 0.946362 0.553136
vt 0.987839 0.554603
vt 0.967396 0.554621
vt 0.946221 0.584923
vt 0.987818 0.585438
vt 0.967446 0.589239
vt 0.945038 0.615157
vt 0.989888 0.611135
vt 0.968281 0.627105
vt 0.963606 0.669302
vt 0.962978 0.641991
vt 0.981526 0.634186
vt 0.997318 0.651746
vt 0.994212 0.675825
vt 0.979127 0.670119
vt 0.962245 0.701758
vt 0.993545 0.705184
vt 0.978092 0.703077
vt 0.961812 0.734994
vt 0.993172 0.735681
vt 0.977684 0.735103
vt 0.962403 0.767540
vt 0.993095 0.765211
vt 0.977855 0.768076
vt 0.961193 0.794773
vt 0.995288 0.789973
vt 0.979122 0.804354
vt 0.244142 0.737447
vt 0.355996 0.742422
vt 0.356819 0.758911
vt 0.485498 0.737390
vt 0.246514 0.757275
vt 0.495718 0.757275
vt 0.140265 0.737390
vt 0.495718 0.335872
vt 0.130562 0.757275
vt 0.485498 0.356844
vt 0.130562 0.335872
vt 0.413251 0.335872
vt 0.140265 0.356844
vt 0.408236 0.356844
vt 0.301509 0.356844
vt 0.311281 0.335872
vn 0.002886 0.99967 0.02552399999999994
vn 0.002886 0.99967 0.02552399999999994
vn 0.002886 0.99967 0.02552399999999994
vn 0.119677 -0.991981 0.04064300000000006
vn 0.119677 -0.991981 0.04064300000000006
vn 0.119677 -0.991981 0.04064300000000006
vn 0.087125 -0.995833 0.026927000000000062
vn 0.087125 -0.995833 0.026927000000000062
vn 0.087125 -0.995833 0.026927000000000062
vn -0.087143 0.996047 0.017195999999999937
vn -0.087143 0.996047 0.017195999999999937
vn -0.087143 0.996047 0.017195999999999937
vn 0.700125 -0.666892 -0.2551089999999999
vn 0.840035 0.356569 -0.4089
vn 0.946409 0.322943 -0.00429800000000002
vn -0.75527 -0.07034099999999996 0.651628
vn -0.855515 -0.07285699999999998 0.512627
vn -0.756949 -0.06514999999999996 0.650218
vn -0.378276 -0.813827 0.4411280000000001
vn 0.067238 -0.741435 0.667647
vn -0.799686 0.31752600000000003 0.509587
vn 0.083816 -0.926306 0.3673310000000001
vn 0.866217 0.034564000000000025 0.498472
vn 0.574274 0.36924100000000004 0.730664
vn 0.768369 0.639512 0.025175999999999962
vn 0.634246 0.756316 0.16036999999999996
vn 0.933025 -0.356489 -0.04877899999999998
vn 0.933025 -0.356489 -0.04877899999999998
vn 0.541436 -0.838835 -0.05659899999999995
vn 0.768369 0.639512 0.025175999999999962
vn -0.967402 -0.05570099999999999 0.247044
vn -0.967402 -0.05570099999999999 0.247044
vn -0.967402 -0.05570099999999999 0.247044
vn -0.951644 0.005354000000000019 0.307156
vn -0.951644 0.005354000000000019 0.307156
vn -0.951644 0.005354000000000019 0.307156
vn 0.806032 0.459557 0.37298899999999996
vn 0.598937 0.699216 0.3903479999999999
vn -0.114338 0.971806 0.20620199999999994
vn 0.138782 -0.984565 0.10663200000000006
vn 0.864167 -0.397922 0.308016
vn 0.734222 -0.625785 0.26327000000000006
vn 1 0 0
vn 0.086853 -0.99274 0.08321400000000005
vn 0.086853 -0.99274 0.08321300000000005
vn -0.463212 0.38275200000000004 0.799334
vn 0.204338 0.896048 0.39413699999999996
vn -0.663255 0.49775200000000003 0.55887
vn -0.463212 0.38275200000000004 0.799334
vn 0.547901 0.767452 0.3328999999999999
vn 0.454269 -0.39630899999999997 0.797859
vn -0.207023 -0.905679 0.36998200000000003
vn 0.658632 -0.503478 0.559208
vn 0.454269 -0.39630899999999997 0.797859
vn -0.553578 -0.775403 0.3038120000000001
vn -0.53386 -0.596596 0.599222
vn -0.132193 -0.880283 0.45566100000000004
vn -0.642086 -0.10102199999999996 0.759948
vn -0.642086 -0.10102199999999996 0.759948
vn -0.672169 0.41158000000000006 0.615459
vn -0.321293 0.840134 0.43697299999999994
vn -0.378276 -0.813827 0.4411280000000001
vn -0.988912 -0.143022 0.03996600000000001
vn 0.088059 -0.990195 -0.10843899999999994
vn 0.067238 -0.741435 0.667647
vn -0.378276 -0.813827 0.4411280000000001
vn 0.083816 -0.926306 0.3673310000000001
vn 0.086203 -0.990465 -0.10746399999999995
vn 0.574736 -0.814093 -0.08324799999999995
vn 0.574736 -0.814093 -0.08324799999999995
vn 0.866217 0.034564000000000025 0.498472
vn -0.7661 -0.642218 -0.025428999999999962
vn -0.460344 -0.862825 -0.20884499999999995
vn -0.883586 0.453187 0.11788399999999997
vn -0.546248 0.83572 0.05644199999999995
vn -0.7661 -0.642218 -0.025428999999999962
vn -0.847341 0.51246 -0.13927800000000004
vn -0.715161 0.40789100000000006 0.567599
vn 0.134627 0.650176 0.747761
vn 0.150696 0.982477 -0.10968000000000006
vn -0.847341 0.51246 -0.13927800000000004
vn -0.798722 0.465254 -0.38155300000000003
vn -0.847341 0.51246 -0.13927800000000004
vn 0.111306 0.851212 -0.512884
vn -0.847341 0.51246 -0.13927800000000004
vn -0.689301 -0.615859 -0.3815509999999999
vn 0.842549 0.481375 -0.24163800000000002
vn 0.684921 0.06399200000000003 0.725802
vn 0.150696 0.982477 -0.10968000000000006
vn 0.134627 0.650176 0.747761
vn 0.764253 0.17573299999999997 -0.620512
vn 0.847663 -0.513953 -0.13160099999999997
vn 0.325358 -0.738817 -0.590162
vn -0.689301 -0.615859 -0.3815509999999999
vn -0.802999 -0.571565 -0.16883699999999996
vn -0.715161 0.40789100000000006 0.567599
vn -0.4177 -0.32255899999999993 0.849401
vn 0.325358 -0.738817 -0.590162
vn -0.028333 -0.997673 -0.06202199999999994
vn -0.4177 -0.32255899999999993 0.849401
vn 0.847663 -0.513953 -0.13160099999999997
vn 0.215549 -0.737615 0.639893
vn 0.684921 0.06399200000000003 0.725802
vn -0.756949 -0.06514999999999996 0.650218
vn -0.855515 -0.07285699999999998 0.512627
vn -0.376565 -0.031348999999999946 0.92586
vn -0.271456 -0.02290599999999994 0.962178
vn -0.756949 -0.06514999999999996 0.650218
vn -0.054412 -0.003724999999999939 0.998512
vn 0.054688 0.00582000000000006 0.998487
vn 0.268618 0.024345000000000058 0.962939
vn 0.375748 0.03446600000000005 0.926081
vn 0.638312 0.057495000000000046 0.767628
vn 0.637953 0.05879600000000005 0.767827
vn 0.878564 0.07880900000000003 0.471079
vn 0.710786 0.05675300000000004 0.701115
vn 0.939551 0.08671500000000001 0.331248
vn 0.960012 0.11921800000000002 0.253305
vn 0.953189 0.07461600000000002 0.293025
vn 0.893701 0.07589700000000003 0.442196
vn 0.968407 0.08472500000000001 0.23454
vn 0.584175 0.04408400000000005 0.810429
vn 0.375822 0.029162000000000056 0.926233
vn 0.27149 0.023818000000000058 0.962147
vn 0.054393 0.00417300000000006 0.998511
vn -0.054755 -0.005375999999999939 0.998485
vn -0.268053 -0.02338399999999994 0.96312
vn -0.37418 -0.03643099999999994 0.92664
vn -0.75527 -0.07034099999999996 0.651628
vn -0.75527 -0.07034099999999996 0.651628
vn -0.63519 -0.06644299999999996 0.769493
vn -0.862009 -0.08229699999999997 0.500168
vn -0.75527 -0.07034099999999996 0.651628
vn -0.75527 -0.07034099999999996 0.651628
vn -0.756949 -0.06514999999999996 0.650218
vn -0.968403 -0.08788199999999999 0.233394
vn -0.962422 -0.10995899999999999 0.248298
vn -0.938918 -0.07951199999999999 0.334831
vn -0.756949 -0.06514999999999996 0.650218
vn -0.980295 -0.08060599999999998 0.180345
vn -0.968641 -0.09075799999999999 0.231297
vn 0.946409 0.322943 -0.00429800000000002
vn 0.39457 0.538735 0.744365
vn 0.49629 -0.47393599999999997 0.72738
vn 0.08708 -0.995333 0.041591000000000065
vn 0.946409 0.322943 -0.00429800000000002
vn -0.493391 -0.671178 0.553251
vn 0.946409 0.322943 -0.00429800000000002
vn 0.700125 -0.666892 -0.2551089999999999
vn -0.573688 -0.778335 -0.25509999999999994
vn -0.819745 0.409771 -0.400131
vn -0.997421 0.027430000000000003 0.066325
vn -0.22937 0.970299 -0.07686900000000006
vn -0.080096 0.915506 0.39425099999999996
vn -0.997421 0.027430000000000003 0.066325
vn -0.997421 0.027430000000000003 0.066325
vn -0.375345 0.35971100000000006 0.854239
vn 0.39457 0.538735 0.744365
vn 0.946409 0.322943 -0.00429800000000002
vn 0.138085 0.905707 -0.40078500000000006
vn 0.840035 0.356569 -0.4089
vn -0.819745 0.409771 -0.400131
vn -0.997421 0.027430000000000003 0.066325
vn -0.573688 -0.778335 -0.25509999999999994
vn 0.08708 -0.995333 0.041591000000000065
vn -0.493391 -0.671178 0.553251
vn -0.375345 0.35971100000000006 0.854239
vn 0.985366 0.01674100000000001 0.169626
vn 0.986129 0.05566800000000001 0.15637
vn 0.985366 0.01674100000000001 0.169626
vn 0.982937 -0.02221399999999999 0.182595
vn -0.98375 -0.07217799999999999 0.164397
vn -0.983844 -0.05829899999999999 0.169273
vn -0.98375 -0.07217799999999999 0.164397
vn -0.983443 -0.08604099999999999 0.159486
vn -0.211243 0.22762500000000005 0.950559
vn -0.211243 0.22762600000000005 0.950559
vn -0.211243 0.22762500000000005 0.950559
vn -0.211243 0.22762500000000005 0.950559
vn -0.669453 0.26204600000000006 0.695101
vn -0.669453 0.26204600000000006 0.695101
vn -0.669453 0.26204600000000006 0.695101
vn -0.669453 0.26204600000000006 0.695101
vn -0.722837 -0.3045359999999999 0.620294
vn -0.722837 -0.3045359999999999 0.620294
vn -0.722837 -0.3045359999999999 0.620294
vn -0.722836 -0.3045359999999999 0.620295
vn 0.151985 -0.09176699999999995 0.984114
vn 0.151985 -0.09176699999999995 0.984114
vn 0.151985 -0.09176699999999995 0.984114
vn 0.151985 -0.09176699999999995 0.984114
vn 0.12667 -0.2609909999999999 0.956995
vn 0.12667 -0.2609909999999999 0.956994
vn 0.12667 -0.2609909999999999 0.956995
vn 0.12667 -0.2609909999999999 0.956995
vn 0.157818 -0.03099699999999994 0.986982
vn 0.157818 -0.03099699999999994 0.986982
vn 0.157818 -0.03099699999999994 0.986982
vn 0.157818 -0.03099699999999994 0.986982
vn 0.285831 0.20849700000000004 0.935323
vn 0.285832 0.20849700000000004 0.935323
vn 0.285831 0.20849700000000004 0.935323
vn 0.285831 0.20849700000000004 0.935323
vn 0.000943 0.797121 0.603819
vn 0.000943 0.797121 0.603819
vn 0.000943 0.797121 0.603819
vn 0.000943 0.797121 0.603819
vn 0.029142 -0.10965699999999995 0.993542
vn 0.029141 -0.10965699999999995 0.993542
vn 0.029142 -0.10965699999999995 0.993542
vn 0.029142 -0.10965799999999995 0.993542
vn 0.404347 0.22632500000000005 0.886161
vn 0.404347 0.22632500000000005 0.886161
vn 0.404347 0.22632500000000005 0.886161
vn 0.404347 0.22632500000000005 0.886161
vn 0.00286 -0.999996 6.123209502800783E-17
vn 0.00286 -0.999996 -9.99999999938768E-07
vn 0.00286 -0.999996 6.123209502800783E-17
vn 0.00286 -0.999996 6.123209502800783E-17
vn 0.087006 -0.994488 -0.05850699999999994
vn 0.087006 -0.994488 -0.05850599999999994
vn 0.087006 -0.994488 -0.05850699999999994
vn 0.087006 -0.994488 -0.05850699999999994
vn 0.322728 0.42432400000000003 0.846047
vn 0.322728 0.42432400000000003 0.846047
vn 0.322728 0.42432400000000003 0.846047
vn 0.322728 0.42432400000000003 0.846047
vn 0 6.123233995736766E-17 1
vn 0 6.123233995736766E-17 1
vn 0 6.123233995736766E-17 1
vn 0 6.123233995736766E-17 1
vn -0.004898 -0.24854099999999996 0.968609
vn -0.004898 -0.24854099999999996 0.968609
vn -0.004898 -0.24854099999999996 0.968609
vn -0.004898 -0.24854099999999996 0.968609
vn 0.404347 0.22632500000000005 0.886161
vn 0.404347 0.22632500000000005 0.886161
vn 0.404347 0.22632500000000005 0.886161
vn 0.404347 0.22632500000000005 0.886161
vn 0.119525 0.45293600000000006 0.883494
vn 0.119526 0.45293600000000006 0.883494
vn 0.119525 0.45293600000000006 0.883494
vn 0.119525 0.45293600000000006 0.883495
vn -0.087006 0.994488 0.05850699999999994
vn -0.087006 0.994488 0.05850699999999994
vn -0.087006 0.994488 0.05850699999999994
vn -0.087006 0.994488 0.05850599999999994
vn -0.00286 0.999996 -6.123209502800783E-17
vn -0.00286 0.999996 -6.123209502800783E-17
vn -0.00286 0.999996 -6.123209502800783E-17
vn -0.00286 0.999996 9.99999999938768E-07
vn -0.726052 -0.4670909999999999 0.504653
vn -0.463212 0.38275200000000004 0.799334
vn -0.663255 0.49775200000000003 0.55887
vn -0.477218 -0.74705 0.46279500000000007
vn 0.71603 0.45982800000000007 0.525223
vn 0.454269 -0.39630899999999997 0.797859
vn 0.658632 -0.503478 0.559208
vn 0.470495 0.736525 0.48596899999999993
vn 0.087156 -0.996195 6.099935090382987E-17
vn 0.087155 -0.996195 6.099935090382987E-17
vn 0.087156 -0.996195 6.099935090382987E-17
vn 0.087156 -0.996195 6.099935090382987E-17
vn -0.087156 0.996195 -6.099935090382987E-17
vn -0.087156 0.996195 -6.099935090382987E-17
vn -0.087156 0.996195 -6.099935090382987E-17
vn -0.087156 0.996195 -6.099935090382987E-17
vn 0.258819 -0.965926 5.914590920566031E-17
vn 0.258818 -0.965926 5.914590920566031E-17
vn 0.258819 -0.965926 5.914590920566031E-17
vn 0.258819 -0.965926 5.914590920566031E-17
vn -0.258818 0.965926 -5.914590920566031E-17
vn -0.258818 0.965926 -5.914590920566031E-17
vn -0.258818 0.965926 -5.914590920566031E-17
vn -0.258818 0.965926 -5.914590920566031E-17
vn -0.26607 0.963954 -5.902515903126439E-17
vn -0.26607 0.963954 -5.902515903126439E-17
vn -0.26607 0.963954 -5.902515903126439E-17
vn -0.26607 0.963954 -5.902515903126439E-17
vn 0.26607 -0.963954 5.902515903126439E-17
vn 0.26607 -0.963954 5.902515903126439E-17
vn 0.26607 -0.963954 5.902515903126439E-17
vn 0.26607 -0.963954 5.902515903126439E-17
vn 0.49629 -0.47393599999999997 0.72738
vn 0.39457 0.538735 0.744365
vn -0.375345 0.35971100000000006 0.854239
vn -0.493391 -0.671178 0.553251
vn -0.00286 0.999996 -6.123209502800783E-17
vn -0.00286 0.999996 -6.123209502800783E-17
vn -0.00286 0.999996 -6.123209502800783E-17
vn -0.00286 0.999996 9.99999999938768E-07
vn 0.084523 -0.966097 0.24395000000000006
vn 0.084523 -0.966097 0.24395200000000006
vn 0.084523 -0.966097 0.24395000000000006
vn 0.084523 -0.966097 0.24395000000000006
vn 0.898132 0.07857600000000002 0.43265
vn 0.898131 0.07857600000000002 0.43265
vn 0.898132 0.07857600000000002 0.43265
vn 0.898132 0.07857600000000002 0.43265
vn -0.084522 0.966097 0.24395099999999995
vn -0.084523 0.966097 0.24395099999999995
vn -0.084522 0.966097 0.24395099999999995
vn -0.084522 0.966097 0.24395099999999995
vn -0.898131 -0.07857599999999997 0.43265
vn -0.898131 -0.07857599999999997 0.43265
vn -0.898131 -0.07857599999999997 0.43265
vn -0.898131 -0.07857599999999997 0.43265
vn 0 6.123233995736766E-17 1
vn 0 6.123233995736766E-17 1
vn 0 6.123233995736766E-17 1
vn 0 6.123233995736766E-17 1
vn -0.799686 0.31752600000000003 0.509587
vn -0.926483 0.365483 0.08972899999999998
vn -0.988912 -0.143022 0.03996600000000001
vn -0.378276 -0.813827 0.4411280000000001
vn 0.866217 0.034564000000000025 0.498472
vn 0.574736 -0.814093 -0.08324799999999995
vn 0.845038 0.530539 0.06662699999999998
vn 0.574274 0.36924100000000004 0.730664
vn 0.062503 -0.11433199999999995 0.991474
vn 0.049567 -0.14894399999999994 0.987603
vn 0.062503 -0.11433199999999995 0.991474
vn 0.075354 -0.07956199999999994 0.993978
vn 0.996195 0.087156 9.999999999946632E-07
vn 0.996195 0.087155 -5.336704588984378E-18
vn 0.996195 0.087156 9.999999999946632E-07
vn 0.996195 0.087156 9.999999999946632E-07
vn -0.996195 -0.087156 5.336765821324336E-18
vn -0.996195 -0.087156 5.336765821324336E-18
vn -0.996195 -0.087156 5.336765821324336E-18
vn -0.996195 -0.087156 5.336765821324336E-18
vn -0 -9.999999999387675E-07 1
vn 0 -1.9999999999387675E-06 1
vn -0 -9.999999999387675E-07 1
vn -0 6.123233995736766E-17 1
vn 0.996195 0.087156 9.999999999946632E-07
vn 0.996195 0.087156 -5.336765821324336E-18
vn 0.996195 0.087156 9.999999999946632E-07
vn 0.996195 0.087156 9.999999999946632E-07
vn -0.996195 -0.087154 5.336643356644421E-18
vn -0.996195 -0.087154 5.336643356644421E-18
vn -0.996195 -0.087154 5.336643356644421E-18
vn -0.996195 -0.087154 5.336643356644421E-18
vn -0 6.123233995736766E-17 1
vn -0 6.123233995736766E-17 1
vn -0 6.123233995736766E-17 1
vn -0 6.123233995736766E-17 1
vn 0.907713 0.419256 0.016806999999999975
vn 0.907683 0.419288 0.017614999999999974
vn 0.907713 0.419256 0.016806999999999975
vn 0.907742 0.419224 0.015997999999999974
vn -0.965198 -0.260162 0.026611000000000017
vn -0.964968 -0.260924 0.027496000000000017
vn -0.965198 -0.260162 0.026611000000000017
vn -0.965427 -0.2594 0.025727000000000017
vn 0.939346 0.342822 -0.01008100000000002
vn 0.93981 0.341531 -0.01067900000000002
vn 0.939346 0.342822 -0.01008100000000002
vn 0.938881 0.344112 -0.00948400000000002
vn -0.941323 -0.337508 0.0005740000000000207
vn -0.94082 -0.338908 0.00017500000000002076
vn -0.941323 -0.337508 0.0005740000000000207
vn -0.941823 -0.336107 0.0009730000000000206
vn -0.546248 0.83572 0.05644199999999995
vn -0.883586 0.453187 0.11788399999999997
vn 0.634246 0.756316 0.16036999999999996
vn 0.768369 0.639512 0.025175999999999962
vn 0.541436 -0.838835 -0.05659899999999995
vn 0.933025 -0.356489 -0.04877899999999998
vn -0.460344 -0.862825 -0.20884499999999995
vn -0.7661 -0.642218 -0.025428999999999962
vn -0.996195 -0.087156 5.336765821324336E-18
vn -0.996195 -0.087156 5.336765821324336E-18
vn -0.996195 -0.087156 5.336765821324336E-18
vn -0.996195 -0.087156 5.336765821324336E-18
vn -0.03544 0.4050810000000001 0.913593
vn -0.03544 0.40508200000000005 0.913593
vn -0.03544 0.4050810000000001 0.913593
vn -0.03544 0.4050810000000001 0.913593
vn -0.087154 0.99617 -0.0070170000000000605
vn -0.087154 0.99617 -0.007018000000000061
vn -0.087154 0.99617 -0.0070170000000000605
vn -0.087154 0.99617 -0.00701600000000006
vn -0.9962 -0.087093 0.0004320000000000053
vn -0.996206 -0.087032 0.0002800000000000053
vn -0.9962 -0.087093 0.0004320000000000053
vn -0.996195 -0.087155 0.0005850000000000053
vn 0.996192 0.087185 9.599999999999466E-05
vn 0.99619 0.087213 0.00012999999999999465
vn 0.996192 0.087185 9.599999999999466E-05
vn 0.996195 0.087156 6.299999999999466E-05
vn 0.864167 -0.397922 0.308016
vn 0.598937 0.699216 0.3903479999999999
vn 0.806032 0.459557 0.37298899999999996
vn 0.734222 -0.625785 0.26327000000000006
vn -0.087619 0.992575 0.08436899999999994
vn -0.086853 0.99274 0.08321299999999994
vn -0.087619 0.992575 0.08436899999999994
vn -0.088384 0.992408 0.08552499999999995
vn -0.990344 -0.086644 0.108217
vn -0.990344 -0.086643 0.108217
vn -0.990344 -0.086644 0.108217
vn -0.990344 -0.086644 0.108217
vn 0.086853 -0.99274 0.08321400000000005
vn 0.086853 -0.99274 0.08321300000000005
vn 0.086853 -0.99274 0.08321300000000005
vn 0.086853 -0.99274 0.08321300000000005
vn 0.990344 0.086643 0.108217
vn 0.990344 0.086643 0.108217
vn 0.990344 0.086643 0.108217
vn 0.990344 0.086644 0.108217
vn 0 6.123233995736766E-17 1
vn 0 6.123233995736766E-17 1
vn 0 6.123233995736766E-17 1
vn 0 6.123233995736766E-17 1
vn 0.000356 1.3000000000061231E-05 1
vn 0.000376 1.1000000000061232E-05 1
vn 0.000362 -1.9999999999387675E-06 1
vn 0.000365 -9.999999999938769E-06 1
vn 0.000334 -2.8999999999938766E-05 1
vn -0.951137 -0.286764 0.11448000000000001
vn -0.703526 -0.6996 0.12494600000000004
vn -0.88158 0.458927 0.11046599999999997
vn -0.578828 0.809104 0.10153299999999994
vn 0.155765 0.983634 0.09056499999999995
vn 0.597781 0.797841 0.07815199999999994
vn 0.984732 0.147787 0.09198999999999999
vn 0.940741 -0.322483 0.10493700000000002
vn 0.448186 -0.884759 0.12779100000000004
vn -0.004522 -0.992031 0.12591000000000005
vn -0.703526 -0.6996 0.12494600000000004
vn -0.951137 -0.286764 0.11448000000000001
vn -0.763164 -0.17971899999999996 0.620711
vn -0.062883 -0.639765 0.765994
vn -0.256768 0.44633300000000004 0.857238
vn 0.589017 -0.25750899999999993 0.765995
vn 0.525271 0.582336 0.620464
vn 0.692072 0.35852400000000006 0.626496
vn -0.10318 0.624175 0.774441
vn 0.36986 -0.36490999999999996 0.854426
vn -0.625507 0.09475700000000004 0.774443
vn -0.349165 -0.696846 0.62649
vn -0.181483 0.780358 0.598418
vn -0.656414 0.06173000000000005 0.751871
vn 0.45937 0.26525400000000005 0.847714
vn -0.268202 -0.598031 0.755266
vn 0.60309 -0.53571 0.591014
vn 0.333671 -0.6441 0.688331
vn 0.596026 0.11196900000000005 0.795121
vn -0.351681 -0.33976199999999995 0.872286
vn 0.092285 0.609183 0.787642
vn -0.68012 0.34078500000000006 0.649078
vn -0.993771 -0.110715 -0.012715999999999993
vn -0.990951 -0.134222 8.218727133757802E-18
vn -0.995931 -0.089272 -0.012326999999999994
vn -0.997226 -0.073539 -0.011526999999999996
vn -0.996997 -0.077425 -0.0016919999999999952
vn -0.996192 -0.087155 0.002382000000000005
vn -0.996111 -0.088105 0.0011910000000000054
vn -0.996027 -0.089055 5.4530460349033765E-18
vn 0.994115 0.107953 -0.009065000000000007
vn 0.993049 0.117701 -7.207107645322131E-18
vn 0.998978 0.04413 -0.009806000000000004
vn 0.999885 0.015046 -0.001814000000000001
vn 0.998893 0.047026 -0.0011210000000000029
vn 0.996848 0.079265 0.0033539999999999954
vn 0.9927 0.120308 -0.008586000000000007
vn 0.993578 0.113152 -6.928561730856065E-18
vn 0.278144 0.937069 0.21103799999999995
vn -0.372021 -0.578212 0.726135
vn 0.549487 -0.834227 -0.04615199999999995
vn 0.634246 0.756316 0.16036999999999996
vn 0.933025 -0.356489 -0.04877899999999998
vn -0.991396 -0.075332 0.107051
vn -0.372021 -0.578212 0.726135
vn 0.278144 0.937069 0.21103799999999995
vn -0.883586 0.453187 0.11788399999999997
vn 0.634246 0.756316 0.16036999999999996
vn 0.215549 -0.737615 0.639893
vn 0.684921 0.06399200000000003 0.725802
vn -0.4177 -0.32255899999999993 0.849401
vn 0.134627 0.650176 0.747761
vn -0.715161 0.40789100000000006 0.567599
vn 0.000355 1.3000000000061231E-05 1
vn 0.000375 1.1000000000061232E-05 1
vn 0.000362 -1.9999999999387675E-06 1
vn 0.000365 -9.999999999938769E-06 1
vn 0.000334 -2.8999999999938766E-05 1
vn -0.951137 -0.286764 0.11448000000000001
vn -0.703526 -0.699599 0.12494700000000004
vn -0.881581 0.458926 0.11046599999999997
vn -0.578829 0.809104 0.10153299999999994
vn 0.155765 0.983634 0.09056499999999995
vn 0.597781 0.797841 0.07815099999999994
vn 0.984732 0.147787 0.09198999999999999
vn 0.940741 -0.322483 0.10493600000000002
vn 0.448186 -0.884759 0.12779100000000004
vn -0.004522 -0.992031 0.12591000000000005
vn -0.703526 -0.699599 0.12494700000000004
vn -0.951137 -0.286764 0.11448000000000001
vn -0.570266 -0.04989199999999995 0.819944
vn -0.570266 -0.04989199999999995 0.819944
vn -0.671365 -0.05873699999999995 0.738796
vn -0.762583 -0.06671699999999996 0.643441
vn -0.92567 -0.08098599999999997 0.369562
vn -0.92567 -0.08098599999999997 0.369562
vn -0.978619 -0.08561799999999999 0.187014
vn -0.978619 -0.08561799999999999 0.187014
vn 0.208709 -0.778914 -0.591383
vn 0.240602 -0.897941 -0.36852799999999997
vn 0.240602 -0.897941 -0.36852899999999994
vn 0.159462 -0.595121 -0.787657
vn 0.036956 -0.13792100000000004 -0.989754
vn -0.036956 0.13792099999999993 -0.989754
vn -0.159462 0.595121 -0.787657
vn -0.208709 0.778913 -0.591383
vn -0.240602 0.89794 -0.36852900000000005
vn -0.240602 0.89794 -0.36852900000000005
vn -0.212046 0.777216 0.592429
vn -0.244558 0.896384 0.36971299999999996
vn -0.244558 0.896384 0.36971299999999996
vn -0.16189 0.593381 0.788474
vn -0.037446 0.13725100000000007 0.989828
vn 0.037446 -0.13725099999999996 0.989828
vn 0.161891 -0.59338 0.788474
vn 0.212046 -0.777215 0.59243
vn 0.244558 -0.896384 0.36971300000000007
vn 0.244559 -0.896384 0.36971300000000007
vn 0.671365 0.05873699999999995 -0.738796
vn 0.570266 0.04989199999999995 -0.819944
vn 0.570266 0.04989199999999995 -0.819944
vn 0.762583 0.06671699999999996 -0.643441
vn 0.90016 0.07875399999999998 -0.428381
vn 0.92567 0.08098599999999997 -0.369562
vn 0.978619 0.08561799999999999 -0.187014
vn -0.076154 0.864896 0.49614099999999994
vn -0.075619 0.864828 0.4963409999999999
vn -0.075657 0.864769 0.49643799999999993
vn -0.075659 0.864769 0.49643699999999996
vn -0.075657 0.864769 0.49643799999999993
vn -0.075657 0.864769 0.49643799999999993
vn -0.075658 0.864768 0.49643899999999996
vn -0.075658 0.864768 0.49643899999999996
vn -0.075659 0.864769 0.49643699999999996
vn 0.075701 -0.864771 0.49642700000000006
vn 0.075684 -0.864829 0.4963290000000001
vn 0.075673 -0.8648 0.49638200000000005
vn 0.075661 -0.864799 0.49638600000000005
vn 0.075659 -0.864771 0.49643300000000007
vn 0.075664 -0.864772 0.49643200000000004
vn 0.075658 -0.864771 0.49643500000000007
vn 0.075657 -0.864774 0.49642900000000006
vn 0.075661 -0.864768 0.49644000000000005
vn -0.991396 -0.075332 0.107051
vn -0.883586 0.453187 0.11788399999999997
vn -0.460344 -0.862825 -0.20884499999999995
vn 0.549487 -0.834227 -0.04615199999999995
vn 0.933025 -0.356489 -0.04877899999999998
vn -0.372021 -0.578212 0.726135
vn -0.763164 -0.17971899999999996 0.620711
vn -0.256768 0.44633300000000004 0.857238
vn -0.84408 0.535454 0.02859999999999997
vn -0.486466 0.817634 -0.30793700000000007
vn -0.92694 -0.19016200000000003 -0.323453
vn -0.77011 -0.637906 0.002680000000000039
vn -0.062883 -0.639765 0.765994
vn -0.092147 -0.937495 -0.33557699999999996
vn 0.368348 -0.929688 -1.1999999999943073E-05
vn 0.589017 -0.25750899999999993 0.765995
vn 0.863131 -0.377348 -0.33558
vn 0.998019 0.06268 0.005388999999999996
vn 0.525271 0.582336 0.620464
vn 0.623347 0.711486 -0.32438600000000006
vn 0.249376 0.968099 0.02440199999999994
vn -0.256768 0.44633300000000004 0.857238
vn -0.486466 0.817634 -0.30793700000000007
vn -0.84408 0.535454 0.02859999999999997
vn 0.36986 -0.36490999999999996 0.854426
vn -0.349165 -0.696846 0.62649
vn 0.010712 -0.999943 3.900000000006123E-05
vn -0.418293 -0.834808 -0.35794699999999996
vn 0.664688 -0.655792 -0.35794699999999996
vn 0.954312 -0.298812 3.9000000000018295E-05
vn 0.692072 0.35852400000000006 0.626496
vn 0.829091 0.429506 -0.357956
vn 0.579079 0.815271 3.899999999995008E-05
vn -0.10318 0.624175 0.774441
vn -0.152286 0.921238 -0.3579510000000001
vn -0.596418 0.802674 3.7999999999950854E-05
vn -0.625507 0.09475700000000004 0.774443
vn -0.923207 0.13985499999999998 -0.357953
vn -0.947692 -0.319186 3.900000000001954E-05
vn -0.349165 -0.696846 0.62649
vn -0.418293 -0.834808 -0.35794699999999996
vn 0.010712 -0.999943 3.900000000006123E-05
vn -0.181483 0.780358 0.598418
vn 0.45937 0.26525400000000005 0.847714
vn 0.535667 0.84434 0.012269999999999948
vn 0.821513 0.489112 -0.2930630000000001
vn -0.198345 0.93387 -0.2975670000000001
vn -0.638423 0.76968 0.0028019999999999525
vn -0.656414 0.06173000000000005 0.751871
vn -0.949249 0.09171799999999998 -0.300857
vn -0.93006 -0.367381 0.0043650000000000225
vn -0.268202 -0.598031 0.755266
vn -0.38333 -0.872853 -0.30196999999999996
vn 0.063035 -0.998011 0.00028000000000006107
vn 0.60309 -0.53571 0.591014
vn 0.712394 -0.632802 -0.30340899999999993
vn 0.968545 -0.248789 0.004897000000000016
vn 0.45937 0.26525400000000005 0.847714
vn 0.821513 0.489112 -0.2930630000000001
vn 0.535667 0.84434 0.012269999999999948
vn 0.333671 -0.6441 0.688331
vn -0.351681 -0.33976199999999995 0.872286
vn -0.299805 -0.952108 0.060056000000000054
vn -0.642798 -0.674988 -0.36221899999999996
vn 0.431811 -0.833542 -0.34459599999999996
vn 0.814935 -0.577631 0.04715100000000003
vn 0.596026 0.11196900000000005 0.795121
vn 0.91708 0.13360199999999997 -0.375653
vn 0.802259 0.596961 0.004236999999999964
vn 0.092285 0.609183 0.787642
vn 0.137696 0.908953 -0.39350300000000005
vn -0.319186 0.947692 4.1999999999941966E-05
vn -0.68012 0.34078500000000006 0.649078
vn -0.821919 0.411836 -0.393498
vn -0.999822 -0.008135999999999997 0.017015
vn -0.351681 -0.33976199999999995 0.872286
vn -0.642798 -0.674988 -0.36221899999999996
vn -0.299805 -0.952108 0.060056000000000054
vn -0.003888 0.021654000000000062 0.999758
vn -0.004803 0.016083000000000063 0.999859
vn -0.004646 0.01661900000000006 0.999851
vn -0.002971 -0.00789099999999994 0.999964
vn 0.010706 -0.002675999999999939 0.999939
vn -0.008262 -0.008016999999999939 0.999934
vn 0.006137 -0.014588999999999939 0.999875
vn 0.037405 -0.026483999999999938 0.998949
vn 0.014755 -0.01262999999999994 0.999811
vn 0.052369 -0.05961399999999994 0.996847
vn -0.019174 -0.01514099999999994 0.999701
vn 0.033969 -0.018573999999999938 0.99925
vn -0.011004 -0.01395699999999994 0.999842
vn -0.030692 0.04773500000000006 0.998388
vn -0.052572 0.019288000000000062 0.998431
vn -0.063813 0.06978600000000006 0.995519
g 01
f 1/1/1 2/2/2 3/3/3
f 4/4/4 5/5/5 6/6/6
f 7/7/7 8/8/8 9/9/9
f 10/10/10 11/11/11 12/12/12
f 13/13/13 14/14/14 15/15/15
f 16/16/16 17/17/17 18/18/18
f 19/19/19 20/20/20 21/21/21
f 22/22/22 23/23/23 24/24/24
f 25/25/25 26/26/26 27/27/27
f 28/28/28 29/29/29 30/30/30
f 31/31/31 32/32/32 33/33/33
f 34/34/34 35/35/35 36/36/36
f 37/37/37 38/38/38 39/39/39
f 40/40/40 41/41/41 42/42/42
f 43/43/43 44/44/44 45/45/45
f 46/46/46 47/47/47 48/48/48
f 49/49/49 50/50/50 47/47/47
f 51/51/51 52/52/52 53/53/53
f 54/54/54 55/55/55 52/52/52
f 56/56/56 57/57/57 58/58/58
f 56/56/56 59/59/59 60/60/60
f 59/59/59 61/61/61 60/60/60
f 62/62/62 63/63/63 64/64/64
f 64/64/64 65/65/65 66/66/66
f 67/67/67 68/68/68 69/69/69
f 70/70/70 71/71/71 67/67/67
f 72/72/72 73/73/73 74/74/74
f 74/74/74 75/75/75 76/76/76
f 77/77/77 78/78/78 79/79/79
f 79/79/79 80/80/80 81/81/81
f 82/82/82 83/83/83 80/80/80
f 80/80/80 84/84/84 82/82/82
f 85/85/85 82/82/82 86/86/86
f 84/84/84 80/80/80 87/87/87
f 87/87/87 80/80/80 88/88/88
f 89/89/89 90/90/90 88/88/88
f 87/87/87 91/91/91 84/84/84
f 92/92/92 87/87/87 88/88/88
f 91/91/91 87/87/87 92/92/92
f 92/92/92 93/93/93 91/91/91
f 94/94/94 95/95/95 85/85/85
f 96/96/96 85/85/85 95/95/95
f 95/95/95 97/97/97 96/96/96
f 95/95/95 86/86/86 98/98/98
f 99/99/99 95/95/95 98/98/98
f 100/100/100 95/95/95 99/99/99
f 101/101/101 99/99/99 98/98/98
f 99/99/99 102/102/102 100/100/100
f 102/102/102 99/99/99 101/101/101
f 101/101/101 103/103/103 102/102/102
f 104/104/104 105/105/105 106/106/106
f 106/106/106 107/107/107 108/108/108
f 107/107/107 106/106/106 109/109/109
f 109/109/109 110/110/110 107/107/107
f 110/110/110 109/109/109 111/111/111
f 111/111/111 112/112/112 110/110/110
f 112/112/112 111/111/111 113/113/113
f 113/113/113 114/114/114 112/112/112
f 115/115/115 114/114/114 113/113/113
f 115/115/115 113/113/113 116/116/116
f 117/117/117 118/118/118 115/115/115
f 119/119/119 117/117/117 115/115/115
f 115/115/115 120/120/120 119/119/119
f 115/115/115 116/116/116 120/120/120
f 120/120/120 121/121/121 119/119/119
f 116/116/116 122/122/122 120/120/120
f 122/122/122 116/116/116 123/123/123
f 123/123/123 124/124/124 122/122/122
f 124/124/124 123/123/123 125/125/125
f 125/125/125 126/126/126 124/124/124
f 126/126/126 125/125/125 127/127/127
f 127/127/127 128/128/128 126/126/126
f 128/128/128 127/127/127 129/129/129
f 130/130/130 131/131/131 128/128/128
f 132/132/132 131/131/131 133/133/133
f 132/132/132 134/134/134 135/135/135
f 132/132/132 136/136/136 137/137/137
f 136/136/136 132/132/132 138/138/138
f 138/138/138 132/132/132 139/139/139
f 138/138/138 140/140/140 136/136/136
f 138/138/138 141/141/141 140/140/140
f 142/142/142 143/143/143 144/144/144
f 144/144/144 145/145/145 146/146/146
f 144/144/144 147/147/147 145/145/145
f 148/148/148 145/145/145 149/149/149
f 145/145/145 150/150/150 149/149/149
f 151/151/151 152/152/152 153/153/153
f 154/154/154 153/153/153 155/155/155
f 156/156/156 157/157/157 154/154/154
f 157/157/157 158/158/158 154/154/154
f 154/154/154 158/158/158 159/159/159
f 159/159/159 153/153/153 154/154/154
f 160/160/160 153/153/153 159/159/159
f 159/159/159 161/161/161 160/160/160
f 153/153/153 160/160/160 162/162/162
f 163/163/163 162/162/162 164/164/164
f 164/164/164 165/165/165 163/163/163
f 163/163/163 165/165/165 166/166/166
f 166/166/166 167/167/167 163/163/163
f 168/168/168 169/169/169 170/170/170
f 170/170/170 171/171/171 168/168/168
f 172/172/172 173/173/173 174/174/174
f 174/174/174 175/175/175 172/172/172
f 176/176/176 177/177/177 178/178/178
f 178/178/178 179/179/179 176/176/176
f 180/180/180 181/181/181 182/182/182
f 182/182/182 183/183/183 180/180/180
f 184/184/184 185/185/185 186/186/186
f 186/186/186 187/187/187 184/184/184
f 188/188/188 189/189/189 190/190/190
f 190/190/190 191/191/191 188/188/188
f 192/192/192 193/193/193 194/194/194
f 194/194/194 195/195/195 192/192/192
f 196/196/196 197/197/197 198/198/198
f 198/198/198 199/199/199 196/196/196
f 200/200/200 201/201/201 202/202/202
f 202/202/202 203/203/203 200/200/200
f 204/204/204 205/205/205 206/206/206
f 206/206/206 207/207/207 204/204/204
f 208/208/208 209/209/209 210/210/210
f 210/210/210 211/211/211 208/208/208
f 212/212/212 213/213/213 214/214/214
f 214/214/214 215/215/215 212/212/212
f 216/216/216 217/217/217 218/218/218
f 218/218/218 219/219/219 216/216/216
f 220/220/220 221/221/221 222/222/222
f 222/222/222 223/223/223 220/220/220
f 224/224/224 225/225/225 226/226/226
f 226/226/226 227/227/227 224/224/224
f 228/228/228 229/229/229 230/230/230
f 230/230/230 231/231/231 228/228/228
f 232/232/232 233/233/233 234/234/234
f 234/234/234 235/235/235 232/232/232
f 236/236/236 237/237/237 238/238/238
f 238/238/238 239/239/239 236/236/236
f 240/240/240 241/241/241 242/242/242
f 242/242/242 243/243/243 240/240/240
f 244/244/244 245/245/245 246/246/246
f 246/246/246 247/247/247 244/244/244
f 248/248/248 249/249/249 250/250/250
f 250/250/250 251/251/251 248/248/248
f 252/252/252 253/253/253 254/254/254
f 252/252/252 255/255/255 253/253/253
f 256/256/256 257/257/257 258/258/258
f 256/256/256 259/259/259 257/257/257
f 260/260/260 261/261/261 262/262/262
f 262/262/262 263/263/263 260/260/260
f 264/264/264 265/265/265 266/266/266
f 266/266/266 267/267/267 264/264/264
f 268/268/268 269/269/269 270/270/270
f 270/270/270 271/271/271 268/268/268
f 272/272/272 273/273/273 274/274/274
f 274/274/274 275/275/275 272/272/272
f 276/276/276 277/277/277 278/278/278
f 278/278/278 279/279/279 276/276/276
f 280/280/280 281/281/281 282/282/282
f 282/282/282 283/283/283 280/280/280
f 284/284/284 285/285/285 286/286/286
f 286/286/286 287/287/287 284/284/284
f 288/288/288 289/289/289 290/290/290
f 290/290/290 291/291/291 288/288/288
f 292/292/292 293/293/293 294/294/294
f 294/294/294 295/295/295 292/292/292
f 296/296/296 297/297/297 298/298/298
f 298/298/298 299/299/299 296/296/296
f 300/300/300 301/301/301 302/302/302
f 302/302/302 303/303/303 300/300/300
f 304/304/304 305/305/305 306/306/306
f 306/306/306 307/307/307 304/304/304
f 308/308/308 309/309/309 310/310/310
f 310/310/310 311/311/311 308/308/308
f 312/312/312 313/313/313 314/314/314
f 314/314/314 315/315/315 312/312/312
f 316/316/316 317/317/317 318/318/318
f 318/318/318 319/319/319 316/316/316
f 320/320/320 321/321/321 322/322/322
f 322/322/322 323/323/323 320/320/320
f 324/324/324 325/325/325 326/326/326
f 326/326/326 327/327/327 324/324/324
f 328/328/328 329/329/329 330/330/330
f 330/330/330 331/331/331 328/328/328
f 332/332/332 333/333/333 334/334/334
f 334/334/334 335/335/335 332/332/332
f 336/336/336 337/337/337 338/338/338
f 338/338/338 339/339/339 336/336/336
f 340/340/340 341/341/341 342/342/342
f 342/342/342 343/343/343 340/340/340
f 344/344/344 345/345/345 346/346/346
f 346/346/346 347/347/347 344/344/344
f 348/348/348 349/349/349 350/350/350
f 350/350/350 351/351/351 348/348/348
f 352/352/352 353/353/353 354/354/354
f 354/354/354 355/355/355 352/352/352
f 356/356/356 357/357/357 358/358/358
f 358/358/358 359/359/359 356/356/356
f 360/360/360 361/361/361 362/362/362
f 362/362/362 363/363/363 360/360/360
f 364/364/364 365/365/365 366/366/366
f 366/366/366 367/367/367 364/364/364
f 368/368/368 369/369/369 370/370/370
f 370/370/370 371/371/371 368/368/368
f 372/372/372 373/373/373 374/374/374
f 374/374/374 375/375/375 372/372/372
f 376/376/376 377/377/377 378/378/378
f 378/378/378 379/379/379 376/376/376
f 380/380/380 381/381/381 382/382/382
f 382/382/382 383/383/383 380/380/380
f 384/384/384 385/385/385 386/386/386
f 386/386/386 387/387/387 384/384/384
f 388/388/388 389/389/389 390/390/390
f 390/390/390 391/391/391 388/388/388
f 392/392/392 393/393/393 394/394/394
f 394/394/394 395/395/395 392/392/392
f 396/396/396 397/397/397 398/398/398
f 398/398/398 399/399/399 396/396/396
f 400/400/400 401/401/401 402/402/402
f 402/402/402 403/403/403 400/400/400
f 404/404/404 405/405/405 406/406/406
f 405/405/405 407/407/407 406/406/406
f 408/408/408 409/409/409 410/410/410
f 410/410/410 411/411/411 408/408/408
f 412/412/412 413/413/413 414/414/414
f 414/414/414 415/415/415 412/412/412
f 416/416/416 417/417/417 418/418/418
f 417/417/417 419/419/419 418/418/418
f 419/419/419 420/420/420 418/418/418
f 421/421/421 422/422/422 423/423/423
f 423/423/423 424/424/424 421/421/421
f 424/424/424 423/423/423 425/425/425
f 425/425/425 426/426/426 424/424/424
f 426/426/426 425/425/425 427/427/427
f 427/427/427 428/428/428 426/426/426
f 428/428/428 427/427/427 429/429/429
f 429/429/429 430/430/430 428/428/428
f 430/430/430 429/429/429 431/431/431
f 431/431/431 432/432/432 430/430/430
f 433/433/433 434/434/434 435/435/435
f 434/434/434 436/436/436 435/435/435
f 436/436/436 437/437/437 435/435/435
f 438/438/438 439/439/439 440/440/440
f 439/439/439 441/441/441 440/440/440
f 441/441/441 442/442/442 440/440/440
f 443/443/443 444/444/444 445/445/445
f 444/444/444 446/446/446 445/445/445
f 446/446/446 447/447/447 445/445/445
f 448/448/448 449/449/449 450/450/450
f 449/449/449 451/451/451 450/450/450
f 451/451/451 452/452/452 450/450/450
f 453/453/453 454/454/454 455/455/455
f 455/455/455 456/456/456 453/453/453
f 456/456/456 455/455/455 457/457/457
f 457/457/457 458/458/458 456/456/456
f 459/459/459 458/458/458 457/457/457
f 457/457/457 460/460/460 459/459/459
f 461/461/461 462/462/462 463/463/463
f 463/463/463 464/464/464 461/461/461
f 464/464/464 463/463/463 465/465/465
f 465/465/465 466/466/466 464/464/464
f 467/467/467 466/466/466 465/465/465
f 465/465/465 468/468/468 467/467/467
f 469/469/469 470/470/470 471/471/471
f 472/472/472 469/469/469 471/471/471
f 471/471/471 473/473/473 472/472/472
f 474/474/474 475/475/475 476/476/476
f 477/477/477 474/474/474 476/476/476
f 476/476/476 478/478/478 477/477/477
f 479/479/479 480/480/480 481/481/481
f 480/480/480 482/482/482 481/481/481
f 482/482/482 483/483/483 481/481/481
f 484/484/484 485/485/485 486/486/486
f 485/485/485 487/487/487 486/486/486
f 487/487/487 488/488/488 486/486/486
f 489/489/489 490/490/490 491/491/491
f 491/491/491 492/492/492 489/489/489
f 492/492/492 491/491/491 493/493/493
f 493/493/493 494/494/494 492/492/492
f 494/494/494 493/493/493 495/495/495
f 495/495/495 496/496/496 494/494/494
f 496/496/496 495/495/495 497/497/497
f 497/497/497 498/498/498 496/496/496
f 498/498/498 497/497/497 499/499/499
f 499/499/499 500/500/500 498/498/498
f 501/501/501 502/502/502 503/503/503
f 503/503/503 504/504/504 501/501/501
f 504/504/504 503/503/503 505/505/505
f 505/505/505 506/506/506 504/504/504
f 507/507/507 506/506/506 505/505/505
f 505/505/505 508/508/508 507/507/507
f 509/509/509 510/510/510 511/511/511
f 511/511/511 512/512/512 509/509/509
f 513/513/513 509/509/509 512/512/512
f 512/512/512 514/514/514 513/513/513
f 515/515/515 513/513/513 514/514/514
f 514/514/514 516/516/516 515/515/515
f 517/517/517 515/515/515 516/516/516
f 516/516/516 518/518/518 517/517/517
f 519/519/519 520/520/520 521/521/521
f 521/521/521 522/522/522 519/519/519
f 523/523/523 519/519/519 522/522/522
f 522/522/522 524/524/524 523/523/523
f 525/525/525 523/523/523 524/524/524
f 524/524/524 526/526/526 525/525/525
f 527/527/527 525/525/525 526/526/526
f 526/526/526 528/528/528 527/527/527
f 529/529/529 530/530/530 531/531/531
f 531/531/531 532/532/532 529/529/529
f 533/533/533 529/529/529 532/532/532
f 532/532/532 534/534/534 533/533/533
f 535/535/535 533/533/533 534/534/534
f 536/536/536 537/537/537 538/538/538
f 537/537/537 539/539/539 538/538/538
f 540/540/540 541/541/541 538/538/538
f 539/539/539 540/540/540 538/538/538
f 539/539/539 542/542/542 540/540/540
f 542/542/542 543/543/543 540/540/540
f 539/539/539 544/544/544 542/542/542
f 545/545/545 546/546/546 547/547/547
f 546/546/546 548/548/548 547/547/547
f 549/549/549 550/550/550 547/547/547
f 548/548/548 549/549/549 547/547/547
f 548/548/548 551/551/551 549/549/549
f 551/551/551 552/552/552 549/549/549
f 548/548/548 553/553/553 551/551/551
f 554/554/554 555/555/555 556/556/556
f 554/554/554 556/556/556 557/557/557
f 556/556/556 558/558/558 557/557/557
f 557/557/557 559/559/559 554/554/554
f 560/560/560 561/561/561 562/562/562
f 562/562/562 563/563/563 564/564/564
f 562/562/562 565/565/565 560/560/560
f 564/564/564 565/565/565 562/562/562
f 566/566/566 560/560/560 565/565/565
f 565/565/565 564/564/564 567/567/567
f 565/565/565 568/568/568 566/566/566
f 567/567/567 568/568/568 565/565/565
f 569/569/569 566/566/566 568/568/568
f 568/568/568 567/567/567 570/570/570
f 568/568/568 571/571/571 569/569/569
f 570/570/570 571/571/571 568/568/568
f 572/572/572 569/569/569 571/571/571
f 571/571/571 570/570/570 573/573/573
f 571/571/571 574/574/574 572/572/572
f 573/573/573 574/574/574 571/571/571
f 575/575/575 572/572/572 574/574/574
f 574/574/574 573/573/573 576/576/576
f 574/574/574 577/577/577 575/575/575
f 576/576/576 577/577/577 574/574/574
f 578/578/578 579/579/579 580/580/580
f 580/580/580 581/581/581 582/582/582
f 580/580/580 583/583/583 578/578/578
f 582/582/582 583/583/583 580/580/580
f 584/584/584 578/578/578 583/583/583
f 583/583/583 582/582/582 585/585/585
f 583/583/583 586/586/586 584/584/584
f 585/585/585 586/586/586 583/583/583
f 587/587/587 584/584/584 586/586/586
f 586/586/586 585/585/585 588/588/588
f 586/586/586 589/589/589 587/587/587
f 588/588/588 589/589/589 586/586/586
f 590/590/590 587/587/587 589/589/589
f 589/589/589 588/588/588 591/591/591
f 589/589/589 592/592/592 590/590/590
f 591/591/591 592/592/592 589/589/589
f 593/593/593 590/590/590 592/592/592
f 592/592/592 591/591/591 594/594/594
f 592/592/592 595/595/595 593/593/593
f 594/594/594 595/595/595 592/592/592
f 596/596/596 597/597/597 598/598/598
f 598/598/598 599/599/599 600/600/600
f 598/598/598 601/601/601 596/596/596
f 600/600/600 601/601/601 598/598/598
f 602/602/602 596/596/596 601/601/601
f 601/601/601 600/600/600 603/603/603
f 601/601/601 604/604/604 602/602/602
f 603/603/603 604/604/604 601/601/601
f 605/605/605 602/602/602 604/604/604
f 604/604/604 603/603/603 606/606/606
f 604/604/604 607/607/607 605/605/605
f 606/606/606 607/607/607 604/604/604
f 608/608/608 605/605/605 607/607/607
f 607/607/607 606/606/606 609/609/609
f 607/607/607 610/610/610 608/608/608
f 609/609/609 610/610/610 607/607/607
f 611/611/611 608/608/608 610/610/610
f 610/610/610 609/609/609 612/612/612
f 610/610/610 613/613/613 611/611/611
f 612/612/612 613/613/613 610/610/610
f 614/614/614 615/615/615 616/616/616
f 616/616/616 617/617/617 618/618/618
f 616/616/616 619/619/619 614/614/614
f 618/618/618 619/619/619 616/616/616
f 620/620/620 614/614/614 619/619/619
f 619/619/619 618/618/618 621/621/621
f 619/619/619 622/622/622 620/620/620
f 621/621/621 622/622/622 619/619/619
f 623/623/623 620/620/620 622/622/622
f 622/622/622 621/621/621 624/624/624
f 622/622/622 625/625/625 623/623/623
f 624/624/624 625/625/625 622/622/622
f 626/626/626 623/623/623 625/625/625
f 625/625/625 624/624/624 627/627/627
f 625/625/625 628/628/628 626/626/626
f 627/627/627 628/628/628 625/625/625
f 629/629/629 626/626/626 628/628/628
f 628/628/628 627/627/627 630/630/630
f 628/628/628 631/631/631 629/629/629
f 630/630/630 631/631/631 628/628/628
f 632/632/632 633/633/633 634/634/634
f 634/634/634 633/633/633 635/635/635
f 634/634/634 636/636/636 632/632/632
f 635/635/635 637/637/637 634/634/634
f 638/638/638 632/632/632 636/636/636
f 639/639/639 637/637/637 635/635/635
f 636/636/636 640/640/640 638/638/638
f 635/635/635 641/641/641 639/639/639
f 638/638/638 640/640/640 642/642/642
f 643/643/643 639/639/639 641/641/641
f 642/642/642 644/644/644 638/638/638
f 641/641/641 645/645/645 643/643/643
f 646/646/646 644/644/644 642/642/642
f 647/647/647 643/643/643 645/645/645
f 642/642/642 647/647/647 646/646/646
f 645/645/645 646/646/646 647/647/647
