v -0.231945 0.01164500000000003 0.493163
v -0.124609 -0.22060699999999997 0.493163
v 0.129103 -0.22060699999999997 0.493163
v 0.23644 0.01164500000000003 0.493163
v 0.125952 0.21914300000000003 0.493163
v -0.121457 0.21914300000000003 0.493163
v -0.308845 0.301363 0.20937399999999998
v -0.523172 0.301363 0.20937399999999998
v -0.523172 -0.278072 0.20937400000000003
v -0.308845 -0.278072 0.20937400000000003
v -0.308845 -0.527754 0.20937400000000003
v 0.31334 -0.527754 0.20937400000000003
v 0.31334 -0.278072 0.20937400000000003
v 0.31334 0.301363 0.20937399999999998
v -0.308845 0.532893 0.20937399999999998
v 0.31334 0.532893 0.20937399999999998
v 0.527667 0.301363 0.20937399999999998
v 0.527667 -0.278072 0.20937400000000003
vt 0.333333 0.500000
vt 0.333333 0.000000
vt 0.666667 0.000000
vt 0.666667 0.500000
vt 0.666667 1.000000
vt 0.333333 1.000000
vt 0.333333 1.000000
vt 0.000000 1.000000
vt 0.000000 0.000000
vt 0.333333 0.000000
vt 0.333333 0.000000
vt 0.666667 0.000000
vt 0.666667 0.000000
vt 0.666667 1.000000
vt 0.333333 1.000000
vt 0.666667 1.000000
vt 1.000000 1.000000
vt 1.000000 0.000000
vn 0 6.123233995736766E-17 1
vn 0 6.123233995736766E-17 1
vn 0 6.123233995736766E-17 1
vn 0 6.123233995736766E-17 1
vn 0 6.123233995736766E-17 1
vn 0 6.123233995736766E-17 1
vn 0 6.123233995736766E-17 1
vn 0 6.123233995736766E-17 1
vn 0 6.123233995736766E-17 1
vn 0 6.123233995736766E-17 1
vn 0 6.123233995736766E-17 1
vn 0 6.123233995736766E-17 1
vn 0 6.123233995736766E-17 1
vn 0 6.123233995736766E-17 1
vn 0 6.123233995736766E-17 1
vn 0 6.123233995736766E-17 1
vn 0 6.123233995736766E-17 1
vn 0 6.123233995736766E-17 1
g Default Standard
f 1/1/1 2/2/2 3/3/3
f 3/3/3 4/4/4 1/1/1
f 1/1/1 4/4/4 5/5/5
f 5/5/5 6/6/6 1/1/1
f 7/7/7 8/8/8 9/9/9
f 9/9/9 10/10/10 7/7/7
f 10/10/10 11/11/11 12/12/12
f 12/12/12 13/13/13 10/10/10
f 14/14/14 7/7/7 10/10/10
f 10/10/10 13/13/13 14/14/14
f 15/15/15 7/7/7 14/14/14
f 14/14/14 16/16/16 15/15/15
f 17/17/17 14/14/14 13/13/13
f 13/13/13 18/18/18 17/17/17
