v -0.029529 0.35292400000000007 0.717258
v -0.010528 0.34788300000000005 0.74808
v 0.006826 0.35344100000000006 0.716339
v 0.022641 -0.3183369999999999 0.621347
v -0.003187 -0.32389499999999993 0.668587
v -0.031465 -0.31885399999999997 0.622716
v -0.045267 0.021719000000000044 0.71636
v -0.045267 -0.03240799999999996 0.71636
v 0.001608 -0.005344999999999956 0.71636
v -0.025579 0.18239100000000005 0.716217
v -0.007145 0.18395800000000007 0.681624
v -0.017999 0.29944000000000004 0.654594
v -0.058884 0.29752100000000004 0.731316
v 0.006728 0.18239100000000005 0.733433
v -0.025579 0.18239100000000005 0.716217
v -0.058884 0.29752100000000004 0.731316
v 0.012769 0.29752100000000004 0.769498
v 0.025162 0.18395800000000007 0.69884
v 0.006728 0.18239100000000005 0.733433
v 0.012769 0.29752100000000004 0.769498
v 0.053653 0.29944000000000004 0.692776
v -0.007145 0.18395800000000007 0.681624
v 0.025162 0.18395800000000007 0.69884
v 0.053653 0.29944000000000004 0.692776
v -0.017999 0.29944000000000004 0.654594
v -0.031286 0.18221400000000004 0.718171
v -0.058884 0.29752100000000004 0.731316
v -0.017999 0.29944000000000004 0.654594
v -0.008705 0.18413400000000002 0.675797
v 0.008289 0.18221400000000004 0.73926
v 0.012769 0.29752100000000004 0.769498
v -0.058884 0.29752100000000004 0.731316
v -0.031286 0.18221400000000004 0.718171
v 0.030869 0.18413400000000005 0.696886
v 0.053653 0.29944000000000004 0.692776
v 0.012769 0.29752100000000004 0.769498
v 0.008289 0.18221400000000004 0.73926
v -0.008705 0.18413400000000002 0.675797
v -0.017999 0.29944000000000004 0.654594
v 0.053653 0.29944000000000004 0.692776
v 0.030869 0.18413400000000005 0.696886
v -0.015392 -0.18324999999999997 0.651141
v -0.007955 -0.18644999999999998 0.667798
v -0.03014 -0.31705199999999994 0.697409
v -0.064883 -0.34167099999999995 0.623485
v 0.001324 -0.18324999999999997 0.643678
v -0.015392 -0.18324999999999997 0.651141
v -0.064883 -0.34167099999999995 0.623485
v 0.013211 -0.35433699999999996 0.591001
v 0.008761 -0.18644999999999998 0.660335
v 0.001324 -0.18324999999999997 0.643678
v 0.013211 -0.35433699999999996 0.591001
v 0.047954 -0.32971899999999993 0.664925
v -0.007955 -0.18644999999999998 0.667798
v 0.008761 -0.18644999999999998 0.660335
v 0.047954 -0.32971899999999993 0.664925
v -0.03014 -0.31705199999999994 0.697409
v -0.018108 -0.18289099999999997 0.650107
v -0.064883 -0.34167099999999995 0.623485
v -0.03014 -0.31705199999999994 0.697409
v -0.008999 -0.18680999999999998 0.670511
v 0.002368 -0.18289099999999997 0.640965
v 0.013211 -0.35433699999999996 0.591001
v -0.064883 -0.34167099999999995 0.623485
v -0.018108 -0.18289099999999997 0.650107
v 0.011478 -0.18680999999999998 0.661369
v 0.047954 -0.32971899999999993 0.664925
v 0.013211 -0.35433699999999996 0.591001
v 0.002368 -0.18289099999999997 0.640965
v -0.008999 -0.18680999999999998 0.670511
v -0.03014 -0.31705199999999994 0.697409
v 0.047954 -0.32971899999999993 0.664925
v 0.011478 -0.18680999999999998 0.661369
v 0.006593 -0.031052999999999976 0.373484
v 0.047512 -0.06759599999999999 0.155044
v 0.047512 0.059423000000000004 0.155044
v 0.006593 0.022879000000000024 0.373484
v -0.047328 -0.031052999999999976 0.371752
v -0.079481 -0.06759599999999999 0.153312
v 0.047512 -0.06759599999999999 0.155044
v 0.006593 -0.031052999999999976 0.373484
v -0.047328 0.022879000000000024 0.371752
v -0.079481 0.059423000000000004 0.153312
v -0.079481 -0.06759599999999999 0.153312
v -0.047328 -0.031052999999999976 0.371752
v 0.006593 0.022879000000000024 0.373484
v 0.047512 0.059423000000000004 0.155044
v -0.079481 0.059423000000000004 0.153312
v -0.047328 0.022879000000000024 0.371752
v -0.003187 -0.32389499999999993 0.668587
v -0.010528 0.34788300000000005 0.74808
v -0.029529 0.35292400000000007 0.717258
v -0.031465 -0.31885399999999997 0.622716
v 0.022641 -0.3183369999999999 0.621347
v 0.006826 0.35344100000000006 0.716339
v -0.010528 0.34788300000000005 0.74808
v -0.003187 -0.32389499999999993 0.668587
v -0.073727 0.22138100000000005 0.698331
v -0.034419 0.21456000000000006 0.760372
v 0.018079 0.21456000000000006 0.760372
v -0.00817 0.22734500000000002 0.644272
v 0.057387 0.22138100000000005 0.698331
v -0.045267 -0.032408 0.001177000000000002
v -0.045267 -0.03240799999999996 0.71636
v -0.045267 0.021719000000000044 0.71636
v -0.045267 0.021719 0.0011769999999999988
v 0.001608 -0.005344999999999956 0.71636
v 0.001608 -0.005345 0.0011770000000000005
v -0.045267 -0.03240799999999996 0.71636
v -0.045267 -0.032408 0.001177000000000002
v 0.012484 -0.24134799999999995 0.702318
v -0.00817 -0.22517799999999996 0.591853
v 0.043413 -0.23269899999999996 0.643291
v -0.059753 -0.23269899999999996 0.643291
v -0.028824 -0.24134799999999995 0.702318
v -0.075025 -0.08251599999999995 0.80334
v -0.053435 -0.03888599999999995 0.831901
v -0.099184 -0.0023459999999999523 0.779775
v -0.063818 0.00224700000000005 0.820577
v -0.052371 0.04469800000000005 0.816882
v -0.072673 0.07582400000000004 0.775003
v -0.037671 0.014263000000000055 0.905136
v -0.053435 -0.03888599999999995 0.831901
v 0.018326 0.04092500000000005 0.843259
v 0.05864 0.06761500000000005 0.824144
v 0.017446 -0.028240999999999947 0.855687
v -0.075025 -0.08251599999999995 0.80334
v 0.056741 -0.06078499999999995 0.847128
v 0.025518 0.006438000000000052 0.852289
v 0.075391 0.004507000000000051 0.841831
v -0.070182 -0.030620999999999954 0.762531
v -0.070182 -0.03062099999999995 0.798181
v -0.056329 0.02979300000000005 0.798181
v -0.056329 0.029793000000000045 0.762531
v -0.044039 -0.022584999999999956 0.726881
v -0.036299 0.011171000000000045 0.726881
v 0.002917 0.048003000000000046 0.798181
v 0.002917 0.048003000000000046 0.762531
v -0.003195 0.021345000000000044 0.726881
v -0.003195 0.02134500000000005 0.83383
v 0.022168 -0.002235999999999949 0.83383
v 0.048311 0.0058000000000000464 0.762531
v 0.022168 -0.0022359999999999555 0.726881
v 0.048311 0.005800000000000048 0.798181
v 0.014428 -0.035991999999999955 0.83383
v 0.034458 -0.05461499999999995 0.798181
v -0.018676 -0.04616699999999995 0.83383
v 0.034458 -0.05461499999999995 0.762531
v 0.014428 -0.03599199999999996 0.726881
v -0.024788 -0.07282499999999995 0.798181
v -0.044039 -0.02258499999999995 0.83383
v -0.070182 -0.03062099999999995 0.798181
v -0.024788 -0.07282499999999996 0.762531
v -0.018676 -0.04616699999999996 0.726881
v -0.070182 -0.030620999999999954 0.762531
v -0.044039 -0.022584999999999956 0.726881
v -0.0301 -0.16479599999999994 0.695001
v -0.028824 -0.24134799999999995 0.702318
v 0.012484 -0.24134799999999995 0.702318
v 0.013761 -0.16479599999999994 0.695001
v 0.043413 -0.23269899999999996 0.643291
v -0.024749 -0.07751799999999996 0.710229
v 0.030454 -0.15957499999999997 0.647011
v -0.00817 -0.22517799999999996 0.591853
v 0.00841 -0.07751799999999996 0.710229
v 0.019675 -0.05221399999999996 0.733112
v -0.041479 -0.052214999999999956 0.733112
v 0.035082 -0.05084599999999996 0.661358
v -0.00817 -0.15505799999999997 0.616422
v -0.059753 -0.23269899999999996 0.643291
v 0.03212 -0.007594999999999955 0.733112
v -0.071508 -0.007594999999999955 0.733112
v -0.041479 0.037025000000000044 0.733112
v 0.019675 0.037025000000000044 0.733112
v -0.024749 0.06341700000000004 0.723939
v 0.00841 0.06341700000000004 0.723939
v 0.061503 -0.00759499999999996 0.654947
v 0.008047 0.14247900000000005 0.728392
v -0.024386 0.14247900000000005 0.728392
v 0.018079 0.21456000000000006 0.760372
v -0.034419 0.21456000000000006 0.760372
v 0.057387 0.22138100000000005 0.698331
v 0.034151 0.14650300000000005 0.691797
v 0.047852 0.03674500000000004 0.679198
v -0.00817 0.22734500000000002 0.644272
v -0.00817 0.14994600000000002 0.644043
v -0.00817 0.07999700000000004 0.614529
v -0.073727 0.22138100000000005 0.698331
v -0.047649 0.14650300000000002 0.676952
v -0.034419 0.21456000000000006 0.760372
v -0.051421 0.03674500000000004 0.675068
v -0.024386 0.14247900000000005 0.728392
v -0.024749 0.06341700000000004 0.723939
v 0.047852 0.03674500000000004 0.679198
v 0.019675 0.037025000000000044 0.733112
v 0.00841 0.06341700000000004 0.723939
v 0.020237 -0.007594999999999971 0.483273
v -0.00817 0.07999700000000004 0.614529
v -0.00817 -0.09409799999999996 0.619348
v -0.026389 0.03903100000000003 0.483273
v -0.051421 0.03674500000000004 0.675068
v -0.046793 -0.15957499999999997 0.647011
v -0.028824 -0.24134799999999995 0.702318
v -0.0301 -0.16479599999999994 0.695001
v -0.051421 -0.05084599999999996 0.661358
v -0.024749 -0.07751799999999996 0.710229
v -0.041479 -0.052214999999999956 0.733112
v -0.071508 -0.007594999999999955 0.733112
v -0.041479 0.037025000000000044 0.733112
v -0.024749 0.06341700000000004 0.723939
v -0.093501 -0.00759499999999996 0.654947
v -0.026389 -0.05421999999999997 0.483273
v -0.073014 -0.007594999999999971 0.483273
v -0.121124 -0.007594999999999981 0.311599
v -0.00817 0.10421100000000001 0.327661
v -0.00817 -0.11940099999999998 0.295538
v 0.104784 -0.007594999999999981 0.311599
vt 0.019071 0.370985
vt 0.001291 0.370985
vt 0.010181 0.355587
vt 0.010181 0.355587
vt 0.001291 0.370985
vt 0.019071 0.370985
vt 0.019071 0.370985
vt 0.001291 0.370985
vt 0.010181 0.355587
vt 0.441378 0.934080
vt 0.493703 0.934080
vt 0.493703 0.883645
vt 0.441378 0.883645
vt 0.441378 0.934080
vt 0.493703 0.934080
vt 0.493703 0.883645
vt 0.441378 0.883645
vt 0.441378 0.934080
vt 0.493703 0.934080
vt 0.493703 0.883645
vt 0.441378 0.883645
vt 0.441378 0.934080
vt 0.493703 0.934080
vt 0.493703 0.883645
vt 0.441378 0.883645
vt 0.441378 0.934080
vt 0.441378 0.883645
vt 0.493703 0.883645
vt 0.493703 0.934080
vt 0.441378 0.934080
vt 0.441378 0.883645
vt 0.493703 0.883645
vt 0.493703 0.934080
vt 0.441378 0.934080
vt 0.441378 0.883645
vt 0.493703 0.883645
vt 0.493703 0.934080
vt 0.441378 0.934080
vt 0.441378 0.883645
vt 0.493703 0.883645
vt 0.493703 0.934080
vt 0.441378 0.934080
vt 0.493703 0.934080
vt 0.493703 0.883645
vt 0.441378 0.883645
vt 0.441378 0.934080
vt 0.493703 0.934080
vt 0.493703 0.883645
vt 0.441378 0.883645
vt 0.441378 0.934080
vt 0.493703 0.934080
vt 0.493703 0.883645
vt 0.441378 0.883645
vt 0.441378 0.934080
vt 0.493703 0.934080
vt 0.493703 0.883645
vt 0.441378 0.883645
vt 0.441378 0.934080
vt 0.441378 0.883645
vt 0.493703 0.883645
vt 0.493703 0.934080
vt 0.441378 0.934080
vt 0.441378 0.883645
vt 0.493703 0.883645
vt 0.493703 0.934080
vt 0.441378 0.934080
vt 0.441378 0.883645
vt 0.493703 0.883645
vt 0.493703 0.934080
vt 0.441378 0.934080
vt 0.441378 0.883645
vt 0.493703 0.883645
vt 0.493703 0.934080
vt 0.441378 0.934080
vt 0.441378 0.883645
vt 0.493703 0.883645
vt 0.493703 0.934080
vt 0.441378 0.934080
vt 0.441378 0.883645
vt 0.493703 0.883645
vt 0.493703 0.934080
vt 0.441378 0.934080
vt 0.441378 0.883645
vt 0.493703 0.883645
vt 0.493703 0.934080
vt 0.441378 0.934080
vt 0.441378 0.883645
vt 0.493703 0.883645
vt 0.493703 0.934080
vt 0.120575 0.495834
vt 0.120411 0.380189
vt 0.095986 0.380378
vt 0.096150 0.495738
vt 0.120486 0.495834
vt 0.120322 0.380189
vt 0.095897 0.380378
vt 0.096060 0.495738
vt 0.962449 0.559330
vt 0.953184 0.548065
vt 0.940809 0.548065
vt 0.946997 0.569146
vt 0.931544 0.559330
vt 0.093573 0.383533
vt 0.093659 0.495304
vt 0.121363 0.495154
vt 0.121277 0.383610
vt 0.093706 0.495304
vt 0.093620 0.383534
vt 0.121410 0.495154
vt 0.121324 0.383610
vt 0.940809 0.548065
vt 0.946997 0.569146
vt 0.931544 0.559330
vt 0.962449 0.559330
vt 0.953184 0.548065
vt 0.188811 0.747691
vt 0.188995 0.740126
vt 0.198027 0.747690
vt 0.198367 0.740116
vt 0.206673 0.740118
vt 0.206291 0.747679
vt 0.225341 0.719802
vt 0.250830 0.740126
vt 0.220579 0.740110
vt 0.220692 0.747682
vt 0.234277 0.740116
vt 0.250646 0.747691
vt 0.234829 0.747691
vt 0.227184 0.740095
vt 0.227569 0.747693
vt 0.934691 0.607635
vt 0.934691 0.592044
vt 0.945211 0.592044
vt 0.945211 0.607635
vt 0.934691 0.623227
vt 0.945211 0.623227
vt 0.955731 0.592044
vt 0.955731 0.607635
vt 0.955731 0.623227
vt 0.955731 0.576453
vt 0.966251 0.576453
vt 0.966251 0.607635
vt 0.966251 0.623227
vt 0.966251 0.592044
vt 0.976771 0.576453
vt 0.976771 0.592044
vt 0.987291 0.576453
vt 0.976771 0.607635
vt 0.976771 0.623227
vt 0.987291 0.592044
vt 0.997811 0.576453
vt 0.997811 0.592044
vt 0.987291 0.607635
vt 0.987291 0.623227
vt 0.997811 0.607635
vt 0.997811 0.623227
vt 0.949882 0.507873
vt 0.986343 0.507932
vt 0.986388 0.517265
vt 0.950044 0.517066
vt 0.986350 0.531850
vt 0.924796 0.507571
vt 0.950021 0.531851
vt 0.986322 0.544558
vt 0.924698 0.517347
vt 0.916890 0.510552
vt 0.916811 0.501430
vt 0.916467 0.531860
vt 0.949993 0.544581
vt 0.986350 0.531850
vt 0.903156 0.510552
vt 0.903103 0.501402
vt 0.916811 0.501430
vt 0.916890 0.510552
vt 0.924796 0.507571
vt 0.924698 0.517347
vt 0.903156 0.533764
vt 0.950044 0.517066
vt 0.949882 0.507873
vt 0.986388 0.517265
vt 0.986343 0.507932
vt 0.986350 0.531850
vt 0.950021 0.531851
vt 0.916467 0.531860
vt 0.986322 0.544558
vt 0.949993 0.544581
vt 0.929815 0.544336
vt 0.986350 0.531850
vt 0.950021 0.531851
vt 0.986388 0.517265
vt 0.916467 0.531860
vt 0.950044 0.517066
vt 0.924698 0.517347
vt 0.889809 0.531860
vt 0.889386 0.510552
vt 0.881578 0.517347
vt 0.903156 0.579011
vt 0.876461 0.544336
vt 0.929815 0.544336
vt 0.882779 0.579011
vt 0.889809 0.531860
vt 0.950021 0.531851
vt 0.986388 0.517265
vt 0.950044 0.517066
vt 0.916467 0.531860
vt 0.924698 0.517347
vt 0.916890 0.510552
vt 0.903156 0.510552
vt 0.889386 0.510552
vt 0.881578 0.517347
vt 0.903156 0.533764
vt 0.923497 0.579011
vt 0.903156 0.579011
vt 0.903156 0.623621
vt 0.876461 0.623621
vt 0.929815 0.623621
vt 0.903156 0.623621
vn -0.009794 0.985862 0.16727499999999995
vn -0.009794 0.985862 0.16727499999999995
vn -0.009794 0.985862 0.16727499999999995
vn 0.006632 -0.993542 -0.11326999999999994
vn 0.006632 -0.993542 -0.11326999999999994
vn 0.006632 -0.993542 -0.11326999999999994
vn 0 6.123233995736766E-17 1
vn 0 6.123233995736766E-17 1
vn 0 6.123233995736766E-17 1
vn 0.960942 0.274609 0.03434499999999999
vn -0.028945 0.22522800000000007 0.973876
vn 0.556872 0.23809100000000005 0.795743
vn 0.781519 0.29795999999999995 -0.548131
vn 0.018432 0.29799799999999993 -0.954388
vn 0.960942 0.274609 0.03434499999999999
vn 0.781519 0.29795999999999995 -0.548131
vn -0.564511 0.27402899999999997 -0.778611
vn -0.971208 0.237509 -0.018560000000000014
vn 0.018432 0.29799799999999993 -0.954388
vn -0.564511 0.27402899999999997 -0.778611
vn -0.792643 0.22529700000000003 0.566532
vn -0.028945 0.22522800000000007 0.973876
vn -0.971208 0.237509 -0.018560000000000014
vn -0.792643 0.22529700000000003 0.566532
vn 0.556872 0.23809100000000005 0.795743
vn -0.972639 -0.229972 -0.03295099999999999
vn -0.791457 -0.25286299999999995 0.556468
vn -0.563576 -0.19263000000000005 -0.803291
vn 0.028636 -0.17854700000000007 -0.983515
vn -0.019953 -0.2528869999999999 0.96729
vn 0.569822 -0.22957399999999994 0.789049
vn -0.791457 -0.25286299999999995 0.556468
vn -0.972639 -0.229972 -0.03295099999999999
vn 0.981148 -0.192233 0.01988600000000001
vn 0.80074 -0.17859500000000003 -0.571769
vn 0.569822 -0.22957399999999994 0.789049
vn -0.019953 -0.2528869999999999 0.96729
vn 0.028636 -0.17854700000000007 -0.983515
vn -0.563576 -0.19263000000000005 -0.803291
vn 0.80074 -0.17859500000000003 -0.571769
vn 0.981148 -0.192233 0.01988600000000001
vn 0.945145 -0.324257 0.03947100000000002
vn 0.027606 -0.22671200000000005 -0.973571
vn 0.607649 -0.26740300000000006 -0.747836
vn 0.711161 -0.32758899999999996 0.622041
vn -0.080478 -0.31144799999999995 0.946849
vn 0.945145 -0.324257 0.03947100000000002
vn 0.711161 -0.32758899999999996 0.622041
vn -0.607013 -0.27707399999999993 0.744825
vn -0.970478 -0.239783 -0.025994999999999987
vn -0.080478 -0.31144799999999995 0.946849
vn -0.607013 -0.27707399999999993 0.744825
vn -0.757885 -0.22664200000000004 -0.611755
vn 0.027606 -0.22671200000000005 -0.973571
vn -0.970478 -0.239783 -0.025994999999999987
vn -0.757885 -0.22664200000000004 -0.611755
vn 0.607649 -0.26740300000000006 -0.747836
vn -0.950862 0.307155 -0.03896000000000002
vn -0.716205 0.31188099999999996 -0.624325
vn -0.611175 0.24833600000000006 0.751528
vn -0.029842 0.20861500000000005 0.977543
vn 0.079143 0.2963279999999999 -0.951801
vn 0.609374 0.2630529999999999 -0.747975
vn -0.716205 0.31188099999999996 -0.624325
vn -0.950862 0.307155 -0.03896000000000002
vn 0.974225 0.22402 0.026484999999999988
vn 0.760184 0.20882900000000001 0.615233
vn 0.609374 0.2630529999999999 -0.747975
vn 0.079143 0.2963279999999999 -0.951801
vn -0.029842 0.20861500000000005 0.977543
vn -0.611175 0.24833600000000006 0.751528
vn 0.760184 0.20882900000000001 0.615233
vn 0.974225 0.22402 0.026484999999999988
vn 0.868133 -0.436799 0.23569500000000002
vn 0.431631 -0.872962 0.22722800000000007
vn 0.868426 0.436238 0.23565599999999998
vn 0.431599 0.872865 0.22765999999999995
vn -0.440952 -0.872593 0.21010300000000007
vn -0.876724 -0.43649 0.20206900000000003
vn 0.431631 -0.872962 0.22722800000000007
vn 0.868133 -0.436799 0.23569500000000002
vn -0.877018 0.435923 0.20201699999999997
vn -0.440956 0.872487 0.21053399999999994
vn -0.876724 -0.43649 0.20206900000000003
vn -0.440952 -0.872593 0.21010300000000007
vn 0.431599 0.872865 0.22765999999999995
vn 0.868426 0.436238 0.23565599999999998
vn -0.440956 0.872487 0.21053399999999994
vn -0.877018 0.435923 0.20201699999999997
vn -0.478506 -0.10824199999999995 0.871387
vn 0.523462 -0.09437599999999995 0.846806
vn -0.853407 -0.07035599999999997 0.516475
vn -0.852574 -0.07042099999999997 0.51784
vn 0.879319 -0.04638299999999997 0.47397
vn 0.879868 -0.04616499999999997 0.47297
vn 0.523462 -0.09437599999999995 0.846806
vn -0.478506 -0.10824199999999995 0.871387
vn -0.754043 0.576325 -0.31506800000000007
vn -0.668752 -0.04271299999999995 0.742257
vn 0.245357 0.555756 0.794314
vn 0.260855 0.660888 -0.703692
vn 0.98186 0.10929400000000002 0.15494
vn -0.866025 -0.5 3.061616997868383E-17
vn 0 -1 6.123233995736766E-17
vn -0.866025 0.5 -3.061616997868383E-17
vn 0 1 -6.123233995736766E-17
vn 0.866025 0.5 -3.061616997868383E-17
vn 0.866025 -0.5 3.061616997868383E-17
vn 0 -1 6.123233995736766E-17
vn -0.866025 -0.5 3.061616997868383E-17
vn 0.250652 -0.779532 0.574024
vn 0.222487 -0.47230600000000006 -0.852893
vn 0.968151 -0.250177 -0.009760999999999985
vn -0.752071 -0.500881 -0.4283779999999999
vn -0.706569 -0.29148899999999994 0.644821
vn -0.423268 -0.34468899999999997 0.837875
vn -0.630583 -0.33280599999999994 0.701146
vn -0.764564 0.12523600000000001 0.632265
vn -0.874369 0.09495000000000003 0.475882
vn -0.613726 0.5654 0.551056
vn -0.40768 0.629264 0.661682
vn -0.243803 0.16293000000000005 0.956041
vn -0.630583 -0.33280599999999994 0.701146
vn 0.091144 0.679166 0.728304
vn 0.091014 0.47591800000000006 0.874768
vn 0.083382 -0.39716799999999997 0.91395
vn -0.423268 -0.34468899999999997 0.837875
vn 0.085298 -0.14596199999999995 0.985606
vn 0.374954 0.15776000000000007 0.913521
vn 0.208538 0.16941000000000006 0.96323
vn -0.907332 -0.261553 -0.329148
vn -0.832523 -0.530782 0.15866600000000003
vn -0.847853 0.530231 -3.2467284847935014E-17
vn -0.680178 0.654996 -0.32914800000000005
vn -0.794051 -0.08615100000000005 -0.601715
vn -0.471635 0.644593 -0.601715
vn 0.29209 0.91942 0.26334499999999994
vn 0.227154 0.916549 -0.32914800000000005
vn 0.322417 0.730744 -0.601715
vn 0.567141 0.610007 0.553392
vn 0.705358 0.3747130000000001 0.601715
vn 0.907332 0.261553 -0.329148
vn 0.794051 0.08615099999999996 -0.601715
vn 0.8976 0.293217 0.329148
vn 0.67719 -0.42350199999999993 0.601715
vn 0.702733 -0.630736 0.32914800000000005
vn -0.028168 -0.798214 0.601715
vn 0.680178 -0.654996 -0.32914799999999994
vn 0.471635 -0.644593 -0.601715
vn -0.194867 -0.923953 0.32914800000000005
vn -0.567141 -0.610007 0.553392
vn -0.832523 -0.530782 0.15866600000000003
vn -0.227154 -0.916549 -0.32914799999999994
vn -0.322417 -0.730744 -0.601715
vn -0.907332 -0.261553 -0.329148
vn -0.794051 -0.08615100000000005 -0.601715
vn -0.56064 -0.01526599999999995 0.827919
vn -0.706569 -0.29148899999999994 0.644821
vn 0.250652 -0.779532 0.574024
vn 0.557891 -0.01430499999999995 0.829791
vn 0.968151 -0.250177 -0.009760999999999985
vn -0.453039 -0.512606 0.729377
vn 0.9676 0.11252599999999999 -0.226027
vn 0.222487 -0.47230600000000006 -0.852893
vn 0.660909 -0.36142899999999994 0.6577
vn 0.447167 -0.535316 0.716574
vn -0.26533 -0.3930969999999999 0.880383
vn 0.932611 -0.341558 -0.11651399999999998
vn -0.006714 0.17469099999999996 -0.9846
vn -0.752071 -0.500881 -0.4283779999999999
vn 0.556718 -0.06071699999999995 0.82848
vn -0.862724 -0.013036999999999969 0.505507
vn -0.252632 0.27042700000000003 0.929003
vn 0.380823 0.31800500000000004 0.868243
vn -0.457468 0.29700000000000004 0.838161
vn 0.540952 0.16947300000000007 0.823802
vn 0.987139 -0.143313 0.07083700000000001
vn 0.461971 -0.22230599999999995 0.858582
vn -0.529672 -0.22991799999999996 0.816447
vn 0.245357 0.555756 0.794314
vn -0.668752 -0.04271299999999995 0.742257
vn 0.98186 0.10929400000000002 0.15494
vn 0.995882 -0.05773600000000001 -0.069891
vn 0.945893 0.323072 0.03017099999999998
vn 0.260855 0.660888 -0.703692
vn 0.094632 0.16722499999999996 -0.981367
vn 0.004679 0.710652 -0.703528
vn -0.754043 0.576325 -0.31506800000000007
vn -0.983101 -0.07011900000000001 -0.169104
vn -0.668752 -0.04271299999999995 0.742257
vn -0.907826 0.410983 0.08332899999999997
vn -0.529672 -0.22991799999999996 0.816447
vn -0.457468 0.29700000000000004 0.838161
vn 0.945893 0.323072 0.03017099999999998
vn 0.380823 0.31800500000000004 0.868243
vn 0.540952 0.16947300000000007 0.823802
vn 0.999483 -0.024874 -0.020356
vn 0.004679 0.710652 -0.703528
vn 0.033199 -0.527695 -0.848785
vn -0.425151 0.904415 0.035773999999999945
vn -0.907826 0.410983 0.08332899999999997
vn -0.967614 0.06675499999999998 -0.243448
vn -0.706569 -0.29148899999999994 0.644821
vn -0.56064 -0.01526599999999995 0.827919
vn -0.899689 -0.435489 0.030164000000000028
vn -0.453039 -0.512606 0.729377
vn -0.26533 -0.3930969999999999 0.880383
vn -0.862724 -0.013036999999999969 0.505507
vn -0.252632 0.27042700000000003 0.929003
vn -0.457468 0.29700000000000004 0.838161
vn -0.999792 -0.009994999999999999 0.017787
vn -0.412059 -0.910859 0.023315000000000054
vn -0.996903 4.815188749567478E-18 0.078638
vn -0.963122 -0.010567999999999984 0.268857
vn 0.283348 0.874368 0.39394599999999996
vn 0.275804 -0.897559 0.34397600000000006
vn 0.896561 -0.034859999999999974 0.441546
g 01
f 1/1/1 2/2/2 3/3/3
f 4/4/4 5/5/5 6/6/6
f 7/7/7 8/8/8 9/9/9
f 10/10/10 11/11/11 12/12/12
f 12/12/12 13/13/13 10/10/10
f 14/14/14 15/15/15 16/16/16
f 16/16/16 17/17/17 14/14/14
f 18/18/18 19/19/19 20/20/20
f 20/20/20 21/21/21 18/18/18
f 22/22/22 23/23/23 24/24/24
f 24/24/24 25/25/25 22/22/22
f 26/26/26 27/27/27 28/28/28
f 28/28/28 29/29/29 26/26/26
f 30/30/30 31/31/31 32/32/32
f 32/32/32 33/33/33 30/30/30
f 34/34/34 35/35/35 36/36/36
f 36/36/36 37/37/37 34/34/34
f 38/38/38 39/39/39 40/40/40
f 40/40/40 41/41/41 38/38/38
f 42/42/42 43/43/43 44/44/44
f 44/44/44 45/45/45 42/42/42
f 46/46/46 47/47/47 48/48/48
f 48/48/48 49/49/49 46/46/46
f 50/50/50 51/51/51 52/52/52
f 52/52/52 53/53/53 50/50/50
f 54/54/54 55/55/55 56/56/56
f 56/56/56 57/57/57 54/54/54
f 58/58/58 59/59/59 60/60/60
f 60/60/60 61/61/61 58/58/58
f 62/62/62 63/63/63 64/64/64
f 64/64/64 65/65/65 62/62/62
f 66/66/66 67/67/67 68/68/68
f 68/68/68 69/69/69 66/66/66
f 70/70/70 71/71/71 72/72/72
f 72/72/72 73/73/73 70/70/70
f 74/74/74 75/75/75 76/76/76
f 76/76/76 77/77/77 74/74/74
f 78/78/78 79/79/79 80/80/80
f 80/80/80 81/81/81 78/78/78
f 82/82/82 83/83/83 84/84/84
f 84/84/84 85/85/85 82/82/82
f 86/86/86 87/87/87 88/88/88
f 88/88/88 89/89/89 86/86/86
f 90/90/90 91/91/91 92/92/92
f 92/92/92 93/93/93 90/90/90
f 94/94/94 95/95/95 96/96/96
f 96/96/96 97/97/97 94/94/94
f 98/98/98 99/99/99 100/100/100
f 101/101/101 98/98/98 100/100/100
f 101/101/101 100/100/100 102/102/102
f 103/103/103 104/104/104 105/105/105
f 105/105/105 106/106/106 103/103/103
f 106/106/106 105/105/105 107/107/107
f 107/107/107 108/108/108 106/106/106
f 108/108/108 107/107/107 109/109/109
f 109/109/109 110/110/110 108/108/108
f 111/111/111 112/112/112 113/113/113
f 111/111/111 114/114/114 112/112/112
f 111/111/111 115/115/115 114/114/114
f 116/116/116 117/117/117 118/118/118
f 119/119/119 118/118/118 117/117/117
f 118/118/118 119/119/119 120/120/120
f 120/120/120 121/121/121 118/118/118
f 120/120/120 119/119/119 122/122/122
f 122/122/122 119/119/119 123/123/123
f 121/121/121 120/120/120 124/124/124
f 120/120/120 122/122/122 124/124/124
f 124/124/124 125/125/125 121/121/121
f 123/123/123 126/126/126 122/122/122
f 123/123/123 127/127/127 126/126/126
f 127/127/127 128/128/128 126/126/126
f 124/124/124 122/122/122 129/129/129
f 126/126/126 129/129/129 122/122/122
f 125/125/125 124/124/124 129/129/129
f 126/126/126 128/128/128 129/129/129
f 129/129/129 130/130/130 125/125/125
f 130/130/130 129/129/129 128/128/128
f 131/131/131 132/132/132 133/133/133
f 133/133/133 134/134/134 131/131/131
f 135/135/135 131/131/131 134/134/134
f 134/134/134 136/136/136 135/135/135
f 134/134/134 133/133/133 137/137/137
f 136/136/136 134/134/134 138/138/138
f 137/137/137 138/138/138 134/134/134
f 138/138/138 139/139/139 136/136/136
f 137/137/137 140/140/140 141/141/141
f 139/139/139 138/138/138 142/142/142
f 142/142/142 143/143/143 139/139/139
f 138/138/138 137/137/137 144/144/144
f 141/141/141 144/144/144 137/137/137
f 144/144/144 142/142/142 138/138/138
f 144/144/144 141/141/141 145/145/145
f 145/145/145 146/146/146 144/144/144
f 142/142/142 144/144/144 146/146/146
f 146/146/146 145/145/145 147/147/147
f 143/143/143 142/142/142 148/148/148
f 146/146/146 148/148/148 142/142/142
f 148/148/148 149/149/149 143/143/143
f 147/147/147 150/150/150 146/146/146
f 148/148/148 146/146/146 150/150/150
f 150/150/150 147/147/147 151/151/151
f 151/151/151 152/152/152 150/150/150
f 149/149/149 148/148/148 153/153/153
f 150/150/150 153/153/153 148/148/148
f 153/153/153 150/150/150 152/152/152
f 153/153/153 154/154/154 149/149/149
f 152/152/152 155/155/155 153/153/153
f 154/154/154 153/153/153 155/155/155
f 155/155/155 156/156/156 154/154/154
f 157/157/157 158/158/158 159/159/159
f 159/159/159 160/160/160 157/157/157
f 160/160/160 159/159/159 161/161/161
f 162/162/162 157/157/157 160/160/160
f 161/161/161 163/163/163 160/160/160
f 163/163/163 161/161/161 164/164/164
f 160/160/160 165/165/165 162/162/162
f 165/165/165 160/160/160 163/163/163
f 162/162/162 165/165/165 166/166/166
f 166/166/166 167/167/167 162/162/162
f 163/163/163 168/168/168 165/165/165
f 166/166/166 165/165/165 168/168/168
f 164/164/164 169/169/169 163/163/163
f 168/168/168 163/163/163 169/169/169
f 169/169/169 164/164/164 170/170/170
f 167/167/167 166/166/166 171/171/171
f 171/171/171 166/166/166 168/168/168
f 171/171/171 172/172/172 167/167/167
f 173/173/173 172/172/172 171/171/171
f 171/171/171 174/174/174 173/173/173
f 175/175/175 173/173/173 174/174/174
f 174/174/174 176/176/176 175/175/175
f 171/171/171 168/168/168 177/177/177
f 175/175/175 176/176/176 178/178/178
f 178/178/178 179/179/179 175/175/175
f 180/180/180 181/181/181 179/179/179
f 179/179/179 178/178/178 180/180/180
f 182/182/182 180/180/180 178/178/178
f 183/183/183 178/178/178 176/176/176
f 178/178/178 183/183/183 182/182/182
f 176/176/176 184/184/184 183/183/183
f 185/185/185 182/182/182 183/183/183
f 186/186/186 183/183/183 184/184/184
f 183/183/183 186/186/186 185/185/185
f 184/184/184 187/187/187 186/186/186
f 188/188/188 185/185/185 186/186/186
f 189/189/189 186/186/186 187/187/187
f 186/186/186 189/189/189 188/188/188
f 190/190/190 188/188/188 189/189/189
f 187/187/187 191/191/191 189/189/189
f 189/189/189 192/192/192 190/190/190
f 192/192/192 189/189/189 191/191/191
f 191/191/191 193/193/193 192/192/192
f 194/194/194 171/171/171 177/177/177
f 194/194/194 195/195/195 171/171/171
f 194/194/194 196/196/196 195/195/195
f 194/194/194 177/177/177 197/197/197
f 197/197/197 177/177/177 168/168/168
f 198/198/198 194/194/194 197/197/197
f 197/197/197 168/168/168 199/199/199
f 169/169/169 199/199/199 168/168/168
f 198/198/198 197/197/197 200/200/200
f 201/201/201 198/198/198 200/200/200
f 199/199/199 169/169/169 202/202/202
f 170/170/170 202/202/202 169/169/169
f 202/202/202 170/170/170 203/203/203
f 203/203/203 204/204/204 202/202/202
f 205/205/205 202/202/202 204/204/204
f 202/202/202 205/205/205 199/199/199
f 204/204/204 206/206/206 205/205/205
f 206/206/206 207/207/207 208/208/208
f 206/206/206 208/208/208 205/205/205
f 208/208/208 209/209/209 210/210/210
f 208/208/208 210/210/210 201/201/201
f 211/211/211 208/208/208 201/201/201
f 208/208/208 211/211/211 205/205/205
f 211/211/211 201/201/201 200/200/200
f 212/212/212 199/199/199 205/205/205
f 212/212/212 205/205/205 211/211/211
f 197/197/197 199/199/199 212/212/212
f 211/211/211 200/200/200 213/213/213
f 212/212/212 211/211/211 213/213/213
f 214/214/214 213/213/213 200/200/200
f 212/212/212 213/213/213 214/214/214
f 200/200/200 215/215/215 214/214/214
f 215/215/215 200/200/200 197/197/197
f 214/214/214 216/216/216 212/212/212
f 197/197/197 212/212/212 216/216/216
f 197/197/197 217/217/217 215/215/215
f 216/216/216 217/217/217 197/197/197
