v -0.799937 0.2742170000000001 1.776863
v -1.475925 0.3026510000000001 1.454536
v -1.042486 -0.024048999999999952 0.778992
v -0.60443 -0.323179 0.09434600000000001
v -0.023126 -0.2836199999999999 0.564451
v -0.422325 -0.05621899999999992 1.191141
v -0.058548 -0.039211999999999914 1.416393
v -0.325557 0.2564550000000001 1.938972
v 0.329091 -0.21365599999999996 0.917225
vt 0.080171 0.760658
vt 0.032260 0.453578
vt 0.355154 0.452044
vt 0.678670 0.452212
vt 0.631634 0.763131
vt 0.357207 0.764474
vt 0.355209 0.899460
vt 0.124262 0.911214
vt 0.582137 0.932603
vn -0.208707 -0.907306 0.36501700000000004
vn -0.193365 -0.926146 0.32382800000000006
vn -0.209412 -0.932284 0.29494500000000007
vn -0.176422 -0.938401 0.2971190000000001
vn -0.144363 -0.953333 0.2651720000000001
vn -0.196579 -0.93237 0.30338400000000004
vn -0.144055 -0.930747 0.33609300000000003
vn -0.175374 -0.892575 0.41539700000000007
vn -0.081654 -0.958911 0.2717010000000001
g sail
f 1/1/1 2/2/2 3/3/3
f 3/3/3 4/4/4 5/5/5
f 3/3/3 6/6/6 1/1/1
f 5/5/5 6/6/6 3/3/3
f 1/1/1 6/6/6 7/7/7
f 7/7/7 6/6/6 5/5/5
f 7/7/7 8/8/8 1/1/1
f 5/5/5 9/9/9 7/7/7
