v -0.131717 0.119292 0.028617999999999994
v -0.188045 0.064575 0.029419999999999998
v -0.163207 0.033509 0.028692999999999996
v -0.085145 0.06434 0.026947999999999996
v -0.090821 -0.009683999999999998 0.026473
v -0.267407 -0.073126 0.030374000000000005
v -0.247957 -0.137877 0.029589000000000008
v 0.139449 -0.0003519999999999987 0.021139
v 0.155114 0.082903 0.021024999999999995
v 0.120785 0.066714 0.027077999999999998
v 0.050625 0.117105 0.021120999999999994
v 0.237358 0.185079 0.01847399999999999
v 0.222358 0.25566 0.020236999999999984
vt 0.725421 0.153861
vt 0.742901 0.167594
vt 0.739905 0.181753
vt 0.719228 0.181417
vt 0.723610 0.211469
vt 0.763863 0.218329
vt 0.764004 0.244187
vt 0.678734 0.238349
vt 0.670476 0.209782
vt 0.684190 0.209132
vt 0.685334 0.177673
vt 0.645539 0.172264
vt 0.645621 0.144453
vn 0.025325 -0.00892099999999994 0.999639
vn 0.023997 -0.0071239999999999385 0.999687
vn 0.024004 -0.004193999999999938 0.999703
vn 0.039807 -0.024362999999999937 0.99891
vn 0.016585 -0.004632999999999938 0.999852
vn 0.023444 -0.004205999999999938 0.999716
vn 0.02359 -0.005026999999999939 0.999709
vn 0.065808 -0.030982999999999938 0.997351
vn 0.189177 -0.03424899999999994 0.981345
vn 0.062185 -0.013209999999999939 0.997977
vn 0.028977 -0.01110299999999994 0.999518
vn 0.021586 -0.02037899999999994 0.999559
vn 0.04195 -0.03932699999999994 0.998346
g flagship
f 2/2/2 3/3/3 4/4/4
f 1/1/1 2/2/2 4/4/4
f 5/5/5 8/8/8 10/10/10
f 5/5/5 6/6/6 8/8/8
f 6/6/6 7/7/7 8/8/8
f 8/8/8 9/9/9 10/10/10
f 11/11/11 4/4/4 5/5/5
f 5/5/5 10/10/10 11/11/11
f 1/1/1 4/4/4 13/13/13
f 11/11/11 12/12/12 13/13/13
f 13/13/13 4/4/4 11/11/11
