v 0.06071 0.074987 0.024929999999999997
v -0.373449 -0.198316 0.028111000000000014
v -0.379972 -0.188513 0.014881000000000012
v 0.051214 0.089259 0.005670999999999995
v -0.377664 -0.193076 -0.005971999999999988
v 0.054572 0.082615 -0.024688000000000005
v -0.369715 -0.2057 -0.005629999999999987
v 0.066146 0.064237 -0.024189000000000002
v -0.36711 -0.208939 0.015435000000000013
v 0.069939 0.059522 0.006476999999999997
v 0.265963 0.220207 -0.0014450000000000135
v 0.277344 0.21129 0.014799999999999989
v 0.27041 0.215775 -0.027051000000000013
v 0.284541 0.204118 -0.026631000000000012
v 0.288826 0.201346 -0.0007650000000000123
v 0.300432 0.13229 -0.027241000000000008
v 0.346274 0.134325 -0.04514300000000001
v 0.375406 0.137608 -0.07288400000000002
v 0.322821 0.122528 -0.08073200000000001
v 0.377138 0.174824 -0.10063500000000002
v 0.411951 0.196819 -0.08937400000000001
v 0.398512 0.186144 -0.06303600000000001
v 0.351242 0.15224 -0.039943000000000006
v -0.094402 -0.022731999999999995 0.071465
v -0.10995 -0.017661999999999997 0.067141
v -0.122561 -0.018927999999999997 0.053967
v -0.12451 -0.025503999999999995 0.039478
v -0.105252 -0.041121 0.037703
v -0.093501 -0.040377 0.051166
v -0.086334 -0.031730999999999995 0.064539
v 0.069939 0.059522 0.006476999999999997
v -0.36711 -0.208939 0.015435000000000013
v 0.288826 0.201346 -0.0007650000000000123
v -0.086334 -0.031730999999999995 0.064539
v 0.346274 0.134325 -0.04514300000000001
v -0.373449 -0.198316 0.028111000000000014
v 0.06071 0.074987 0.024929999999999997
v -0.373449 -0.198316 0.028111000000000014
v 0.06071 0.074987 0.024929999999999997
v 0.277344 0.21129 0.014799999999999989
v 0.06071 0.074987 0.024929999999999997
vt 0.255711 0.254910
vt 0.255711 0.006070
vt 0.247115 0.006070
vt 0.247115 0.254810
vt 0.238598 0.006070
vt 0.238520 0.254911
vt 0.229923 0.006070
vt 0.229925 0.254810
vt 0.222226 0.006070
vt 0.222226 0.254911
vt 0.247149 0.378133
vt 0.255673 0.380392
vt 0.238346 0.379157
vt 0.230009 0.381921
vt 0.222255 0.382737
vt 0.015385 0.164477
vt 0.007114 0.140374
vt 0.065038 0.122648
vt 0.056764 0.149091
vt 0.040208 0.111538
vt 0.031931 0.092584
vt 0.023658 0.104134
vt 0.015385 0.135405
vt 0.015385 0.390385
vt 0.023658 0.396204
vt 0.031931 0.400704
vt 0.040208 0.401016
vt 0.056764 0.394632
vt 0.065038 0.390667
vt 0.007114 0.387390
vt 0.264307 0.254810
vt 0.264017 0.006070
vt 0.264064 0.382688
vt 0.073310 0.387390
vt 0.073310 0.140374
vt 0.255711 0.006070
vt 0.255711 0.254910
vt 0.255711 0.006070
vt 0.255711 0.254910
vt 0.255673 0.380392
vt 0.255711 0.254910
vn 0.008838 0.02958700000000006 0.999523
vn 0.172874 -0.2635739999999999 0.949022
vn -0.489002 0.772513 0.4050929999999999
vn -0.51173 0.826257 0.23543799999999995
vn -0.52972 0.814434 -0.23684100000000005
vn -0.517943 0.822379 -0.23543200000000006
vn 0.510803 -0.837982 -0.19200699999999996
vn 0.51647 -0.834462 -0.19217499999999996
vn 0.52157 -0.845214 0.11652600000000006
vn 0.516029 -0.806649 0.2881520000000001
vn -0.518354 0.85295 0.06152399999999995
vn -0.16422 0.33318800000000004 0.928449
vn -0.512557 0.826683 -0.23212300000000005
vn 0.529424 -0.828021 -0.18463999999999994
vn 0.496739 -0.744985 0.44525000000000003
vn 0.187822 0.14057600000000006 0.972091
vn 0.417373 -0.728803 0.542813
vn 0.368701 -0.927407 0.06305300000000005
vn 0.298267 -0.931354 -0.20884799999999995
vn -0.427652 0.843388 -0.32528500000000005
vn -0.387035 0.920228 -0.058171000000000056
vn -0.235572 0.867524 0.43807199999999996
vn -0.031001 0.591819 0.805475
vn 0.187814 0.14059900000000006 0.972089
vn -0.107854 0.712154 0.693689
vn -0.387035 0.920228 -0.058171000000000056
vn -0.427652 0.843388 -0.32528500000000005
vn 0.298269 -0.931354 -0.20884399999999995
vn 0.368701 -0.927407 0.06305400000000005
vn 0.397522 -0.550959 0.733771
vn 0.516029 -0.806649 0.2881520000000001
vn 0.52157 -0.845214 0.11652600000000006
vn 0.496739 -0.744985 0.44525000000000003
vn 0.397522 -0.550959 0.733771
vn 0.417373 -0.728803 0.542813
vn 0.172874 -0.2635739999999999 0.949022
vn 0.008838 0.02958700000000006 0.999523
vn 0.172874 -0.2635739999999999 0.949022
vn 0.008838 0.02958700000000006 0.999523
vn -0.16422 0.33318800000000004 0.928449
vn 0.008838 0.02958700000000006 0.999523
g flagship_sail
f 19/19/19 18/18/18 29/29/29
f 29/29/29 28/28/28 19/19/19
f 29/29/29 18/18/18 35/35/35
f 35/35/35 34/34/34 29/29/29
f 30/30/30 17/17/17 16/16/16
f 16/16/16 24/24/24 30/30/30
f 22/22/22 25/25/25 23/23/23
f 25/25/25 16/16/16 23/23/23
f 25/25/25 24/24/24 16/16/16
f 22/22/22 21/21/21 26/26/26
f 26/26/26 25/25/25 22/22/22
f 26/26/26 21/21/21 20/20/20
f 20/20/20 27/27/27 26/26/26
f 41/41/41 31/31/31 33/33/33
f 33/33/33 40/40/40 39/39/39
f 10/10/10 8/8/8 14/14/14
f 14/14/14 15/15/15 10/10/10
f 6/6/6 4/4/4 11/11/11
f 11/11/11 13/13/13 6/6/6
f 4/4/4 1/1/1 12/12/12
f 12/12/12 11/11/11 4/4/4
f 38/38/38 32/32/32 31/31/31
f 31/31/31 37/37/37 36/36/36
f 9/9/9 7/7/7 8/8/8
f 8/8/8 10/10/10 9/9/9
f 5/5/5 3/3/3 4/4/4
f 4/4/4 6/6/6 5/5/5
f 3/3/3 2/2/2 1/1/1
f 1/1/1 4/4/4 3/3/3
