v 0.130666 -0.215127 0.003215000000000013
v -0.013362 -0.270189 0.05102800000000001
v -0.030422 -0.267973 0.0028340000000000166
v -0.106004 -0.124579 0.021596000000000008
v 0.021257 -0.038345 -0.023164999999999998
v -0.110142 -0.143802 -0.02445499999999999
v -0.016435 -0.223836 0.12225700000000002
v -0.013362 -0.270189 0.05102800000000001
v 0.130666 -0.215127 0.003215000000000013
v 0.122034 -0.150722 0.08887100000000002
v -0.106004 -0.124579 0.021596000000000008
v -0.06383 -0.14844 0.10877000000000002
v 0.068455 -0.065048 0.074392
v 0.021257 -0.038345 -0.023164999999999998
v -0.06383 -0.14844 0.10877000000000002
v -0.016435 -0.223836 0.12225700000000002
v 0.122034 -0.150722 0.08887100000000002
v 0.068455 -0.065048 0.074392
v -0.201695 -0.442114 0.282675
v -0.20722 -0.430053 0.296883
v -0.216161 -0.443179 0.269734
v -0.225102 -0.423663 0.292723
v -0.230628 -0.431775 0.275943
v 0.21597 0.443179 0.011885999999999973
v 0.233851 0.436788 0.016045999999999973
v 0.210444 0.435066 -0.004894000000000027
v 0.239377 0.424727 0.001837999999999974
v 0.22491 0.423663 -0.011104000000000025
v -0.106004 -0.124579 0.021596000000000008
v -0.110142 -0.143802 -0.02445499999999999
v -0.030422 -0.267973 0.0028340000000000166
v -0.013362 -0.270189 0.05102800000000001
v -0.06383 -0.14844 0.10877000000000002
v -0.016435 -0.223836 0.12225700000000002
v 0.07039 -0.080538 0.053359000000000004
v 0.034913 -0.060466 -0.019969999999999998
v 0.021257 -0.038345 -0.023164999999999998
v 0.068455 -0.065048 0.074392
v 0.110576 -0.144728 0.06434100000000001
v 0.122034 -0.150722 0.08887100000000002
v 0.117112 -0.19325 -9.699999999998817E-05
v 0.130666 -0.215127 0.003215000000000013
v 0.004375 -0.013870000000000002 -0.018751
v 0.22491 0.423663 -0.011104000000000025
v 0.239377 0.424727 0.001837999999999974
v -0.201695 -0.442114 0.282675
v -0.216161 -0.443179 0.269734
v 0.025435 -0.012321 8.900000000000075E-05
v 0.233851 0.436788 0.016045999999999973
v -0.20722 -0.430053 0.296883
v 0.01739 0.0052380000000000005 0.020773
v 0.21597 0.443179 0.011885999999999973
v -0.225102 -0.423663 0.292723
v -0.008641 0.014541000000000002 0.014716999999999997
v 0.210444 0.435066 -0.004894000000000027
v -0.230628 -0.431775 0.275943
v -0.016686 0.0027309999999999995 -0.009711
vt 0.087345 0.460858
vt 0.087345 0.520928
vt 0.076043 0.520928
vt 0.025293 0.520928
vt 0.025293 0.460858
vt 0.036174 0.520928
vt 0.116881 0.521101
vt 0.097057 0.521101
vt 0.097057 0.460685
vt 0.116881 0.460685
vt 0.076252 0.460858
vt 0.098574 0.460858
vt 0.098574 0.520928
vt 0.076252 0.520928
vt 0.076252 0.460858
vt 0.098574 0.460858
vt 0.098574 0.520928
vt 0.076252 0.520928
vt 0.673022 0.048988
vt 0.668773 0.049759
vt 0.672966 0.041328
vt 0.668201 0.041431
vt 0.670570 0.036658
vt 0.664448 0.512054
vt 0.668735 0.512054
vt 0.663774 0.519642
vt 0.669314 0.519745
vt 0.666401 0.524415
vt 0.162356 0.513251
vt 0.159084 0.525815
vt 0.141838 0.500687
vt 0.144366 0.488189
vt 0.161837 0.488189
vt 0.152470 0.475691
vt 0.126716 0.451100
vt 0.138242 0.452830
vt 0.141828 0.460384
vt 0.126716 0.460858
vt 0.107256 0.451100
vt 0.107256 0.460858
vt 0.087345 0.451100
vt 0.087345 0.460858
vt 0.677309 0.280610
vt 0.677309 0.512054
vt 0.673022 0.512054
vt 0.673022 0.048988
vt 0.677310 0.049051
vt 0.673022 0.280517
vt 0.668735 0.512054
vt 0.668773 0.049759
vt 0.668734 0.280610
vt 0.664448 0.512054
vt 0.664446 0.048988
vt 0.664447 0.280518
vt 0.660607 0.512054
vt 0.660607 0.049051
vt 0.660607 0.280610
vn 0.724962 -0.652956 0.21926700000000002
vn -0.629439 -0.66342 0.4045750000000001
vn 0.308398 -0.938976 -0.15236199999999994
vn -0.499106 0.84227 0.20365399999999995
vn -0.538486 0.838411 0.08425999999999995
vn -0.602724 0.75418 -0.26064800000000005
vn 0.073718 -0.582039 0.809812
vn -0.629439 -0.66342 0.4045750000000001
vn 0.724962 -0.652956 0.21926700000000002
vn 0.270665 -0.07842099999999995 0.959474
vn -0.499106 0.84227 0.20365399999999995
vn -0.071325 0.47785800000000006 0.875537
vn -0.26168 0.692323 0.672468
vn -0.538486 0.838411 0.08425999999999995
vn -0.071325 0.47785800000000006 0.875537
vn 0.073718 -0.582039 0.809812
vn 0.270665 -0.07842099999999995 0.959474
vn -0.26168 0.692323 0.672468
vn -0.392245 -0.770889 0.50187
vn -0.392246 -0.770889 0.50187
vn -0.39225 -0.770888 0.501868
vn -0.392252 -0.770888 0.501867
vn -0.392258 -0.770887 0.501864
vn 0.39227 0.770875 -0.501873
vn 0.39226 0.770887 -0.501862
vn 0.392256 0.770888 -0.501863
vn 0.392249 0.770895 -0.501858
vn 0.392249 0.770891 -0.501865
vn -0.835564 -0.476255 0.27388500000000005
vn -0.835564 -0.476255 0.2738860000000001
vn -0.835564 -0.476255 0.2738860000000001
vn -0.629439 -0.66342 0.4045750000000001
vn -0.835565 -0.476255 0.27388300000000004
vn 0.073718 -0.582039 0.809812
vn 0.835565 0.476256 -0.27388300000000004
vn 0.835565 0.476255 -0.27388400000000007
vn 0.835564 0.476256 -0.27388400000000007
vn 0.835566 0.476256 -0.27388000000000007
vn 0.835567 0.476255 -0.27387800000000007
vn 0.270665 -0.07842099999999995 0.959474
vn 0.835572 0.476248 -0.27387400000000006
vn 0.724962 -0.652956 0.21926700000000002
vn 0.601974 -0.48692900000000006 -0.632872
vn 0.645836 -0.3133600000000001 -0.696205
vn 0.845904 -0.412731 -0.337787
vn 0.778176 -0.575932 -0.25048899999999996
vn 0.536408 -0.642935 -0.546719
vn 0.896858 -0.405167 0.17744400000000002
vn 0.492339 -0.23778099999999994 0.837295
vn 0.695483 0.09307000000000004 0.71249
vn 0.246466 0.15795600000000007 0.956193
vn -0.509992 0.27263000000000004 0.815831
vn -0.355403 0.619573 0.699871
vn -0.751872 0.508574 0.41957199999999994
vn -0.883591 0.463454 0.06691599999999998
vn -0.879037 0.47285 0.06088999999999997
vn -0.88133 0.468159 0.06390599999999998
g Material #0
f 1/1/1 2/2/2 3/3/3
f 4/4/4 5/5/5 6/6/6
f 7/7/7 8/8/8 9/9/9
f 9/9/9 10/10/10 7/7/7
f 11/11/11 12/12/12 13/13/13
f 13/13/13 14/14/14 11/11/11
f 15/15/15 16/16/16 17/17/17
f 17/17/17 18/18/18 15/15/15
f 19/19/19 20/20/20 21/21/21
f 20/20/20 22/22/22 21/21/21
f 22/22/22 23/23/23 21/21/21
f 24/24/24 25/25/25 26/26/26
f 25/25/25 27/27/27 26/26/26
f 27/27/27 28/28/28 26/26/26
f 29/29/29 30/30/30 31/31/31
f 32/32/32 29/29/29 31/31/31
f 32/32/32 33/33/33 29/29/29
f 33/33/33 32/32/32 34/34/34
f 35/35/35 36/36/36 37/37/37
f 37/37/37 38/38/38 35/35/35
f 39/39/39 35/35/35 38/38/38
f 38/38/38 40/40/40 39/39/39
f 41/41/41 39/39/39 40/40/40
f 40/40/40 42/42/42 41/41/41
f 43/43/43 44/44/44 45/45/45
f 46/46/46 47/47/47 43/43/43
f 45/45/45 48/48/48 43/43/43
f 43/43/43 48/48/48 46/46/46
f 48/48/48 45/45/45 49/49/49
f 50/50/50 46/46/46 48/48/48
f 49/49/49 51/51/51 48/48/48
f 48/48/48 51/51/51 50/50/50
f 51/51/51 49/49/49 52/52/52
f 53/53/53 50/50/50 51/51/51
f 52/52/52 54/54/54 51/51/51
f 51/51/51 54/54/54 53/53/53
f 54/54/54 52/52/52 55/55/55
f 56/56/56 53/53/53 54/54/54
f 55/55/55 57/57/57 54/54/54
f 54/54/54 57/57/57 56/56/56
