v -0.109273 -0.10165399999999998 0.141065
v -0.109273 0.002994000000000009 0.141065
v -0.109273 0.10764200000000002 0.141065
v -0.109273 -0.10165399999999997 0.474855
v -0.109273 0.002994000000000029 0.474855
v -0.109273 0.10764200000000003 0.474855
v -0.109273 -0.10165399999999994 0.808646
v -0.109273 0.0029940000000000496 0.808646
v -0.109273 0.10764200000000006 0.808646
v -0.103879 0.11449200000000001 0.141065
v 0.000769 0.11449200000000001 0.141065
v 0.105416 0.11449200000000001 0.141065
v -0.103879 0.11449200000000002 0.474855
v 0.000769 0.11449200000000002 0.474855
v 0.105416 0.11449200000000002 0.474855
v -0.103879 0.11449200000000005 0.808646
v 0.000769 0.11449200000000005 0.808646
v 0.105416 0.11449300000000005 0.808646
v 0.107903 -0.10917499999999998 0.141065
v 0.003255 -0.10917499999999998 0.141065
v -0.101393 -0.10917499999999998 0.141065
v 0.107903 -0.10917499999999997 0.474855
v 0.003255 -0.10917499999999997 0.474855
v -0.101393 -0.10917499999999997 0.474855
v 0.107903 -0.10917499999999994 0.808646
v 0.003255 -0.10917499999999994 0.808646
v -0.101393 -0.10917499999999994 0.808646
v 0.110021 0.10712700000000001 0.141065
v 0.110021 0.0024790000000000085 0.141065
v 0.110021 -0.10216799999999998 0.141065
v 0.110021 0.10712700000000003 0.474855
v 0.110021 0.002479000000000029 0.474855
v 0.110021 -0.10216799999999997 0.474855
v 0.110021 0.10712700000000006 0.808646
v 0.110021 0.0024790000000000493 0.808646
v 0.110021 -0.10216799999999994 0.808646
vt 0.500662 0.241679
vt 0.500662 0.122095
vt 0.500662 0.002510
vt 0.250331 0.241679
vt 0.250331 0.122095
vt 0.250331 0.002510
vt -0.000000 0.241679
vt 0.000000 0.122095
vt 0.000000 0.002510
vt 0.500662 0.241679
vt 0.500662 0.122095
vt 0.500662 0.002510
vt 0.250331 0.241679
vt 0.250331 0.122095
vt 0.250331 0.002510
vt -0.000000 0.241679
vt 0.000000 0.122095
vt 0.000000 0.002510
vt 0.500662 0.241679
vt 0.500662 0.122095
vt 0.500662 0.002510
vt 0.250331 0.241679
vt 0.250331 0.122095
vt 0.250331 0.002510
vt -0.000000 0.241679
vt 0.000000 0.122095
vt 0.000000 0.002510
vt 0.500662 0.241679
vt 0.500662 0.122095
vt 0.500662 0.002510
vt 0.250331 0.241679
vt 0.250331 0.122095
vt 0.250331 0.002510
vt -0.000000 0.241679
vt 0.000000 0.122095
vt 0.000000 0.002510
vn -1 -0 0
vn -1 -0 0
vn -1 -0 0
vn -1 -0 0
vn -1 -0 0
vn -1 -0 0
vn -1 -0 0
vn -1 -0 0
vn -1 -0 0
vn -0 1 -6.123233995736766E-17
vn -0 1 -6.123233995736766E-17
vn -0 1 -6.123233995736766E-17
vn -0 1 -6.123233995736766E-17
vn -0 1 -6.123233995736766E-17
vn -0 1 -6.123233995736766E-17
vn -0 1 -6.123233995736766E-17
vn -0 1 -6.123233995736766E-17
vn -0 1 -6.123233995736766E-17
vn -0 -1 6.123233995736766E-17
vn -0 -1 6.123233995736766E-17
vn -0 -1 6.123233995736766E-17
vn -0 -1 6.123233995736766E-17
vn -0 -1 6.123233995736766E-17
vn -0 -1 6.123233995736766E-17
vn -0 -1 6.123233995736766E-17
vn -0 -1 6.123233995736766E-17
vn -0 -1 6.123233995736766E-17
vn 1 -0 0
vn 1 0 -0
vn 1 0 -0
vn 1 -0 0
vn 1 -0 0
vn 1 0 -0
vn 1 -0 0
vn 1 -0 0
vn 1 0 -0
g cloth
f 32/32/32 35/35/35 36/36/36
f 36/36/36 33/33/33 32/32/32
f 31/31/31 34/34/34 35/35/35
f 35/35/35 32/32/32 31/31/31
f 29/29/29 32/32/32 33/33/33
f 33/33/33 30/30/30 29/29/29
f 28/28/28 31/31/31 32/32/32
f 32/32/32 29/29/29 28/28/28
f 23/23/23 26/26/26 27/27/27
f 27/27/27 24/24/24 23/23/23
f 22/22/22 25/25/25 26/26/26
f 26/26/26 23/23/23 22/22/22
f 20/20/20 23/23/23 24/24/24
f 24/24/24 21/21/21 20/20/20
f 19/19/19 22/22/22 23/23/23
f 23/23/23 20/20/20 19/19/19
f 14/14/14 17/17/17 18/18/18
f 18/18/18 15/15/15 14/14/14
f 13/13/13 16/16/16 17/17/17
f 17/17/17 14/14/14 13/13/13
f 11/11/11 14/14/14 15/15/15
f 15/15/15 12/12/12 11/11/11
f 10/10/10 13/13/13 14/14/14
f 14/14/14 11/11/11 10/10/10
f 5/5/5 8/8/8 9/9/9
f 9/9/9 6/6/6 5/5/5
f 4/4/4 7/7/7 8/8/8
f 8/8/8 5/5/5 4/4/4
f 2/2/2 5/5/5 6/6/6
f 6/6/6 3/3/3 2/2/2
f 1/1/1 4/4/4 5/5/5
f 5/5/5 2/2/2 1/1/1
