v -0.135896 0.008249 -0.0008390000000000006
v -0.135896 -0.004149 -0.0008389999999999998
v -0.135896 0.002050000000000001 0.015381
v 0.135054 -0.004149 -0.0008389999999999998
v 0.135054 0.008249 -0.0008390000000000006
v 0.135054 0.002050000000000001 0.015381
v 0.114413 -0.0025139999999999993 0.010805
v 0.118812 0.0026950000000000008 0.014225
v 0.00013 0.0009210000000000106 0.170887
v 0.00013 0.0009210000000000106 0.170887
v 0.000176 -0.004189999999999991 0.1616
v 0.000176 -0.004189999999999991 0.1616
v 0.00013 0.0009210000000000106 0.170887
v -0.119032 0.002199000000000001 0.014355
v -0.119032 0.002199000000000001 0.014355
v -0.114526 -0.0029119999999999992 0.010926
v 0.112977 0.004915000000000001 0.009842
v 0.114413 -0.0025139999999999993 0.010805
v 0.000176 -0.004189999999999991 0.1616
v 9.1E-05 0.0032690000000000097 0.158855
v 0.118812 0.0026950000000000008 0.014225
v 0.112977 0.004915000000000001 0.009842
v 9.1E-05 0.0032690000000000097 0.158855
v 0.00013 0.0009210000000000106 0.170887
v 9.1E-05 0.0032690000000000097 0.158855
v 0.000176 -0.004189999999999991 0.1616
v -0.114526 -0.0029119999999999992 0.010926
v -0.113257 0.004547000000000001 0.00996
v 0.00013 0.0009210000000000106 0.170887
v 9.1E-05 0.0032690000000000097 0.158855
v -0.113257 0.004547000000000001 0.00996
v -0.119032 0.002199000000000001 0.014355
v 0.135054 0.002050000000000001 0.015381
v -0.135896 0.002050000000000001 0.015381
v -0.135896 -0.004149 -0.0008389999999999998
v 0.135054 -0.004149 -0.0008389999999999998
v -0.135896 0.002050000000000001 0.015381
v 0.135054 0.002050000000000001 0.015381
v 0.135054 0.008249 -0.0008390000000000006
v -0.135896 0.008249 -0.0008390000000000006
v -0.135896 0.008249 -0.0008390000000000006
v 0.135054 0.008249 -0.0008390000000000006
v 0.135054 -0.004149 -0.0008389999999999998
v -0.135896 -0.004149 -0.0008389999999999998
vt 0.993311 0.031799
vt 0.966789 0.031799
vt 0.980050 0.061409
vt 0.993311 0.031799
vt 0.966789 0.031799
vt 0.980050 0.061409
vt 0.980588 0.534932
vt 0.988451 0.535142
vt 0.981534 0.997687
vt 0.981534 0.997687
vt 0.973993 0.980154
vt 0.976245 0.548879
vt 0.985659 0.531698
vt 0.983657 0.994287
vt 0.983657 0.994287
vt 0.974432 0.994160
vt 0.992156 0.990589
vt 0.972064 0.990647
vt 0.972676 0.533703
vt 0.992787 0.539046
vt 0.988451 0.535142
vt 0.996316 0.535315
vt 0.989820 0.975274
vt 0.981534 0.997687
vt 0.993824 0.986148
vt 0.973270 0.991655
vt 0.974137 0.532977
vt 0.994721 0.532886
vt 0.985659 0.531698
vt 0.994844 0.554342
vt 0.993088 0.994364
vt 0.983657 0.994287
vt 0.994978 0.505409
vt 0.994978 0.005121
vt 0.966937 0.005121
vt 0.966937 0.505409
vt 0.994978 0.505409
vt 0.994978 0.005121
vt 0.966937 0.005121
vt 0.966937 0.505409
vt 0.994978 0.505409
vt 0.994978 0.005121
vt 0.966937 0.005121
vt 0.966937 0.505409
vn -1 0 0
vn -1 0 0
vn -1 0 0
vn 1 0 0
vn 1 0 0
vn 1 0 0
vn 0.170452 -0.978255 0.11816600000000005
vn 0.587565 0.670788 0.45255999999999996
vn 0.167631 0.31332000000000004 0.934736
vn 0.167631 0.31332000000000004 0.934736
vn -0.408438 -0.892707 -0.19039899999999996
vn -0.408438 -0.892707 -0.19039899999999996
vn 0.167631 0.31332000000000004 0.934736
vn -0.755773 -0.31768399999999997 0.572611
vn -0.755773 -0.31768399999999997 0.572611
vn 0.597493 -0.656511 -0.4604289999999999
vn -0.770693 0.2617459999999999 -0.580965
vn 0.170452 -0.978255 0.11816600000000005
vn -0.408438 -0.892707 -0.19039899999999996
vn 0.379067 0.791837 -0.47885600000000006
vn 0.587565 0.670788 0.45255999999999996
vn -0.770693 0.2617459999999999 -0.580965
vn 0.379067 0.791837 -0.47885600000000006
vn 0.167631 0.31332000000000004 0.934736
vn 0.379067 0.791837 -0.47885600000000006
vn -0.408438 -0.892707 -0.19039899999999996
vn 0.597493 -0.656511 -0.4604289999999999
vn 0.198392 0.969644 -0.14293600000000006
vn 0.167631 0.31332000000000004 0.934736
vn 0.379067 0.791837 -0.47885600000000006
vn 0.198392 0.969644 -0.14293600000000006
vn -0.755773 -0.31768399999999997 0.572611
vn 0 -0.934107 0.35699300000000006
vn 0 -0.934107 0.35699300000000006
vn 0 -0.934107 0.35699300000000006
vn 0 -0.934107 0.35699300000000006
vn 0 0.934107 0.35699299999999995
vn 0 0.934107 0.35699299999999995
vn 0 0.934107 0.35699299999999995
vn 0 0.934107 0.35699299999999995
vn 0 -6.123233995736766E-17 -1
vn 0 -6.123233995736766E-17 -1
vn 0 -6.123233995736766E-17 -1
vn 0 -6.123233995736766E-17 -1
g flag
f 1/1/1 2/2/2 3/3/3
f 4/4/4 5/5/5 6/6/6
f 7/7/7 8/8/8 9/9/9
f 10/10/10 11/11/11 7/7/7
f 12/12/12 13/13/13 14/14/14
f 15/15/15 16/16/16 12/12/12
f 17/17/17 18/18/18 19/19/19
f 19/19/19 20/20/20 17/17/17
f 21/21/21 22/22/22 23/23/23
f 23/23/23 24/24/24 21/21/21
f 25/25/25 26/26/26 27/27/27
f 27/27/27 28/28/28 25/25/25
f 29/29/29 30/30/30 31/31/31
f 31/31/31 32/32/32 29/29/29
f 33/33/33 34/34/34 35/35/35
f 35/35/35 36/36/36 33/33/33
f 37/37/37 38/38/38 39/39/39
f 39/39/39 40/40/40 37/37/37
f 41/41/41 42/42/42 43/43/43
f 43/43/43 44/44/44 41/41/41
