v -0.176439 -0.364932 0.259271
v -0.430722 -0.366529 0.259271
v -0.178109 -0.106841 -0.004912999999999993
v -0.432394 -0.108437 -0.004912999999999993
v -0.176439 -0.364932 -0.004912999999999977
v -0.178109 -0.10684099999999999 0.259271
v -0.431436 -0.366361 -0.0045619999999999775
v -0.432394 -0.10843699999999999 0.259271
v -0.200701 0.10062700000000001 0.208982
v -0.201582 -0.11197499999999999 0.208982
v -0.414184 -0.11109399999999998 0.208982
v -0.413304 0.10150800000000001 0.208982
v -0.200701 0.100627 -0.003622000000000006
v -0.201582 -0.111975 -0.003621999999999993
v -0.414184 -0.111094 -0.003621999999999993
v -0.413304 0.101508 -0.003622000000000006
v -0.139719 -0.342774 0.16397600000000004
v -0.174783 -0.051234999999999996 0.163933
v -0.016014 -0.032131999999999994 0.163933
v 0.01905 -0.323671 0.16397600000000004
v -0.139719 -0.342774 -0.002158999999999979
v -0.174783 -0.051235 -0.002201999999999997
v -0.015558 -0.032186 -0.001980999999999998
v 0.01905 -0.323671 -0.00215899999999998
v 0.031062 -0.11069399999999999 0.176353
v -0.083604 -0.31478 0.17608900000000002
v -0.122115 -0.291351 0.19056300000000004
v -0.160258 -0.267962 0.17712800000000004
v -0.04736 -0.06684199999999998 0.176355
v -0.008121 -0.08872199999999998 0.190282
v -0.06399 0.001669 -1.0219677538884662E-19
v -0.158033 0.11369 -6.96150472975313E-18
v -0.046004 0.207641 -1.2714344301087778E-17
v 0.048049 0.095625 -5.855342508423283E-18
v -0.065518 0.004436000000000018 0.291623
v -0.159736 0.11616700000000002 0.291623
v -0.047921 0.20946300000000004 0.291623
v 0.046397 0.09778400000000001 0.291623
v 0.188382 0.273558 -0.002154000000000017
v 0.100208 0.19302 -0.002154000000000012
v 0.020567 0.281454 -0.0021540000000000174
v 0.108963 0.362114 -0.002154000000000022
v 0.188935 0.273919 0.20804599999999998
v 0.100648 0.193376 0.208046
v 0.02089 0.28192 0.20804599999999998
v 0.10929 0.362466 0.20804599999999998
v 0.38817 0.05543300000000001 0.092097
v 0.393224 0.058259 0.0027929999999999964
v 0.339568 -0.045482 0.0048290000000000026
v 0.334514 -0.04830799999999999 0.094132
v 0.428003 -0.028144 1.7233229757601554E-18
v 0.11983 0.060131000000000004 0.087387
v 0.190455 0.186541 -0.01682300000000001
v 0.105201 0.018341 0.00034999999999999886
v -0.178109 -0.10684099999999999 0.259271
v -0.432394 -0.10843699999999999 0.259271
v -0.176439 -0.364932 0.259271
v -0.178109 -0.10684099999999999 0.259271
v -0.178109 -0.106841 -0.004912999999999993
v -0.430722 -0.366529 0.259271
v -0.176439 -0.364932 0.259271
v -0.176439 -0.364932 -0.004912999999999977
v -0.432394 -0.10843699999999999 0.259271
v -0.430722 -0.366529 0.259271
v -0.431436 -0.366361 -0.0045619999999999775
v -0.432394 -0.108437 -0.004912999999999993
v -0.201582 -0.11197499999999999 0.208982
v -0.200701 0.10062700000000001 0.208982
v -0.413304 0.10150800000000001 0.208982
v -0.414184 -0.11109399999999998 0.208982
v -0.200701 0.10062700000000001 0.208982
v -0.413304 0.10150800000000001 0.208982
v -0.413304 0.101508 -0.003622000000000006
v -0.200701 0.100627 -0.003622000000000006
v -0.174783 -0.051234999999999996 0.163933
v -0.139719 -0.342774 0.16397600000000004
v -0.016014 -0.032131999999999994 0.163933
v -0.174783 -0.051234999999999996 0.163933
v -0.174783 -0.051235 -0.002201999999999997
v 0.01905 -0.323671 0.16397600000000004
v -0.016014 -0.032131999999999994 0.163933
v -0.015558 -0.032186 -0.001980999999999998
v -0.139719 -0.342774 0.16397600000000004
v 0.01905 -0.323671 0.16397600000000004
v 0.01905 -0.323671 -0.00215899999999998
v -0.139719 -0.342774 -0.002158999999999979
v -0.083604 -0.31478 0.17608900000000002
v -0.008121 -0.08872199999999998 0.190282
v -0.008121 -0.08872199999999998 0.190282
v -0.122115 -0.291351 0.19056300000000004
v -0.122115 -0.291351 0.19056300000000004
v -0.04736 -0.06684199999999998 0.176355
v 0.046397 0.09778400000000001 0.291623
v 0.048049 0.095625 -5.855342508423283E-18
v -0.159736 0.11616700000000002 0.291623
v -0.047921 0.20946300000000004 0.291623
v 0.046397 0.09778400000000001 0.291623
v -0.065518 0.004436000000000018 0.291623
v 0.108963 0.362114 -0.002154000000000022
v 0.10929 0.362466 0.20804599999999998
v 0.02089 0.28192 0.20804599999999998
v 0.10929 0.362466 0.20804599999999998
v 0.100648 0.193376 0.208046
v 0.188935 0.273919 0.20804599999999998
v -0.159736 0.11616700000000002 0.291623
v -0.158033 0.11369 -6.96150472975313E-18
v -0.159736 0.11616700000000002 0.291623
v -0.047921 0.20946300000000004 0.291623
v -0.046004 0.207641 -1.2714344301087778E-17
v -0.047921 0.20946300000000004 0.291623
v -0.06399 0.001669 -1.0219677538884662E-19
v -0.06399 0.001669 -1.0219677538884662E-19
v -0.065518 0.004436000000000018 0.291623
v 0.188935 0.273919 0.20804599999999998
v 0.188382 0.273558 -0.002154000000000017
v 0.188382 0.273558 -0.002154000000000017
v 0.100648 0.193376 0.208046
v 0.100208 0.19302 -0.002154000000000012
v 0.100208 0.19302 -0.002154000000000012
v 0.02089 0.28192 0.20804599999999998
v 0.02089 0.28192 0.20804599999999998
v 0.020567 0.281454 -0.0021540000000000174
v 0.428003 -0.028144 1.7233229757601554E-18
v 0.38817 0.05543300000000001 0.092097
v 0.334514 -0.04830799999999999 0.094132
v 0.428003 -0.028144 1.7233229757601554E-18
v 0.38817 0.05543300000000001 0.092097
v 0.334514 -0.04830799999999999 0.094132
v 0.11983 0.060131000000000004 0.087387
v 0.105201 0.018341 0.00034999999999999886
v 0.190455 0.186541 -0.01682300000000001
v 0.393224 0.058259 0.0027929999999999964
v 0.38817 0.05543300000000001 0.092097
vt 0.506494 0.281743
vt 0.506494 0.332969
vt 0.633079 0.332927
vt 0.573212 0.332927
vt 0.633079 0.332927
vt 0.566828 0.281743
vt 0.633079 0.332927
vt 0.566828 0.332969
vt 0.368520 0.225184
vt 0.410102 0.225184
vt 0.410102 0.184169
vt 0.368520 0.184169
vt 0.409576 0.183904
vt 0.367987 0.183904
vt 0.410102 0.184305
vt 0.368520 0.184305
vt 0.567201 0.241885
vt 0.501226 0.241885
vt 0.501226 0.275812
vt 0.567201 0.275812
vt 0.576455 0.275127
vt 0.642251 0.275127
vt 0.688361 0.274831
vt 0.642251 0.275127
vt 0.380735 0.444435
vt 0.380736 0.503433
vt 0.394251 0.503433
vt 0.407530 0.503433
vt 0.407529 0.444435
vt 0.394250 0.444435
vt 0.452552 0.219309
vt 0.485521 0.219309
vt 0.518284 0.219309
vt 0.548997 0.219309
vt 0.452552 0.166611
vt 0.485521 0.166611
vt 0.518284 0.166611
vt 0.548997 0.166611
vt 0.020784 0.032533
vt 0.034702 0.032533
vt 0.049997 0.032533
vt 0.006397 0.032533
vt 0.020784 0.008445
vt 0.034702 0.008445
vt 0.049997 0.008445
vt 0.006397 0.008445
vt 0.246936 0.333770
vt 0.248262 0.322342
vt 0.243103 0.352951
vt 0.245836 0.341985
vt 0.237519 0.336487
vt 0.273498 0.346217
vt 0.281878 0.333589
vt 0.276443 0.354904
vt 0.633079 0.281701
vt 0.573212 0.281701
vt 0.633079 0.281701
vt 0.573212 0.281701
vt 0.573212 0.332927
vt 0.633079 0.281701
vt 0.573212 0.281701
vt 0.573212 0.332927
vt 0.633079 0.281701
vt 0.573212 0.281701
vt 0.573212 0.332927
vt 0.633079 0.332927
vt 0.367987 0.224901
vt 0.409576 0.224901
vt 0.368520 0.225301
vt 0.410102 0.225301
vt 0.410183 0.225301
vt 0.368629 0.225301
vt 0.368629 0.184305
vt 0.410183 0.184305
vt 0.642251 0.241200
vt 0.576455 0.241200
vt 0.688361 0.240904
vt 0.650039 0.240904
vt 0.650039 0.274831
vt 0.642251 0.241200
vt 0.576455 0.241200
vt 0.576455 0.275127
vt 0.688361 0.240904
vt 0.650039 0.240904
vt 0.650039 0.274831
vt 0.688361 0.274831
vt 0.380736 0.503433
vt 0.394250 0.444435
vt 0.394250 0.444435
vt 0.394251 0.503433
vt 0.394251 0.503433
vt 0.407529 0.444435
vt 0.421574 0.166611
vt 0.421574 0.219309
vt 0.490757 0.235212
vt 0.467522 0.225247
vt 0.457896 0.249305
vt 0.481134 0.259271
vt 0.064000 0.032533
vt 0.064000 0.008445
vt 0.016160 0.037136
vt 0.005778 0.041555
vt 0.020454 0.047797
vt 0.010083 0.052205
vt 0.485521 0.166611
vt 0.485521 0.219309
vt 0.485521 0.166611
vt 0.518284 0.166611
vt 0.518284 0.219309
vt 0.518284 0.166611
vt 0.452552 0.219309
vt 0.452552 0.219309
vt 0.452552 0.166611
vt 0.020784 0.008445
vt 0.020784 0.032533
vt 0.020784 0.032533
vt 0.034702 0.008445
vt 0.034702 0.032533
vt 0.034702 0.032533
vt 0.049997 0.008445
vt 0.049997 0.008445
vt 0.049997 0.032533
vt 0.237519 0.336487
vt 0.246936 0.333770
vt 0.245836 0.341985
vt 0.237519 0.336487
vt 0.246936 0.333770
vt 0.245836 0.341985
vt 0.273498 0.346217
vt 0.276443 0.354904
vt 0.281878 0.333589
vt 0.248262 0.322342
vt 0.246936 0.333770
vn 0 6.123233995736766E-17 1
vn 0 6.123233995736766E-17 1
vn -0.006278 0.99998 -6.12311153105685E-17
vn -0.006278 0.99998 -6.12311153105685E-17
vn 0.999979 0.00647 -3.9617323952416876E-19
vn 0 6.123233995736766E-17 1
vn 0.005601 -0.999984 -0.0006519999999999388
vn 1E-06 -9.999999999387675E-07 1
vn -0 6.123233995736766E-17 1
vn -0 6.123233995736766E-17 1
vn -0 6.123233995736766E-17 1
vn -0 6.123233995736766E-17 1
vn 0.999991 -0.004145 2.5380804912328896E-19
vn 0.999991 -0.004145 2.5380804912328896E-19
vn -0.999991 0.004143 -2.5368558444337423E-19
vn -0.999991 0.004143 -2.5368558444337423E-19
vn -1.7E-05 0.00014500000000006123 1
vn -1.7E-05 0.00014500000000006123 1
vn -1.7E-05 0.00014500000000006123 1
vn -1.7E-05 0.00014500000000006123 1
vn -0.992845 -0.119412 7.311876178989188E-18
vn -0.992845 -0.119412 7.311876178989188E-18
vn -0.118789 0.992919 -0.0006480000000000609
vn 0.993026 0.1179 -7.219292880973647E-18
vn 0.257657 -0.14599999999999994 0.955142
vn 0.257657 -0.14599999999999994 0.955142
vn 0.267173 -0.14898399999999995 0.952062
vn -0.249272 0.14360900000000004 0.957726
vn -0.257494 0.14618400000000006 0.955158
vn 0.257657 -0.14599999999999994 0.955142
vn 0.231098 -0.972881 0.009849000000000059
vn -0.972388 -0.23335 -0.0032049999999999856
vn -0.23119 0.972875 -0.008156000000000059
vn 0.972308 0.233663 0.004421999999999986
vn -0.397278 -0.917678 0.006133000000000057
vn -0.917196 0.398352 -0.008178000000000024
vn 0.396944 0.917835 -0.0037670000000000563
vn 0.917222 -0.39828 0.008740000000000024
vn 0.998769 -0.049552 -0.0021289999999999968
vn -0.364006 -0.931394 0.0023100000000000572
vn -0.998799 0.048978 0.001422999999999997
vn -0.270605 0.96269 -0.001377000000000059
vn 0.998779 -0.04934 -0.002542999999999997
vn 0.201999 -0.716199 0.668024
vn -0.941518 0.04631300000000002 0.333766
vn 0.365279 0.930895 -0.0024990000000000567
vn 0.587767 0.42118000000000005 0.690752
vn 0.765778 0.639954 0.06358899999999996
vn -0.036142 -0.99878 -0.03365799999999994
vn 0.054502 -0.835148 0.547319
vn 0.841308 -0.444467 0.307652
vn -0.519788 0.12532900000000005 0.845052
vn -0.173401 0.91571 0.36250199999999994
vn -0.757151 -0.632255 0.16424500000000003
vn -0.006278 0.99998 -6.12311153105685E-17
vn -0.006278 0.99998 -6.12311153105685E-17
vn 0.999979 0.00647 -3.9617323952416876E-19
vn 0.999979 0.00647 -3.9617323952416876E-19
vn 0.999979 0.00647 -3.9617323952416876E-19
vn 0.00594 -0.999982 -0.00032599999999993875
vn 0.006279 -0.99998 6.12311153105685E-17
vn 0.00594 -0.999982 -0.00032599999999993875
vn -0.999986 -0.005096 0.0013510000000000002
vn -0.999975 -0.006477 0.0027010000000000003
vn -0.999986 -0.005096 0.0013510000000000002
vn -0.999993 -0.003714 2.2741691060166348E-19
vn 0.999991 -0.004145 2.5380804912328896E-19
vn 0.999991 -0.004145 2.5380804912328896E-19
vn -0.999991 0.004143 -2.5368558444337423E-19
vn -0.999991 0.004143 -2.5368558444337423E-19
vn 0.004144 0.999991 -6.123178886630805E-17
vn 0.004144 0.999991 -6.123178886630805E-17
vn 0.004144 0.999991 -6.123178886630805E-17
vn 0.004144 0.999991 -6.123178886630805E-17
vn -0.992845 -0.119412 7.311876178989188E-18
vn -0.992845 -0.119412 7.311876178989188E-18
vn -0.119123 0.992879 -0.0003240000000000608
vn -0.119458 0.992839 -6.079385517093295E-17
vn -0.119123 0.992879 -0.0003240000000000608
vn 0.992935 0.118656 0.0013469999999999927
vn 0.992841 0.119412 0.002693999999999993
vn 0.992935 0.118656 0.0013469999999999927
vn 0.119455 -0.99284 6.079391640327291E-17
vn 0.119455 -0.99284 6.079391640327291E-17
vn 0.119455 -0.99284 6.079391640327291E-17
vn 0.119455 -0.99284 6.079391640327291E-17
vn 0.267173 -0.14898399999999995 0.952062
vn 0.267173 -0.14898399999999995 0.952062
vn -0.257494 0.14618400000000006 0.955158
vn -0.257494 0.14618400000000006 0.955158
vn -0.249272 0.14360900000000004 0.957726
vn -0.249272 0.14360900000000004 0.957726
vn 0.917222 -0.39828 0.008740000000000024
vn 0.972308 0.233663 0.004421999999999986
vn 0 6.123233995736766E-17 1
vn 0 6.123233995736766E-17 1
vn 0 6.123233995736766E-17 1
vn 0 6.123233995736766E-17 1
vn -0.270605 0.96269 -0.001377000000000059
vn 0.365279 0.930895 -0.0024990000000000567
vn -0.941518 0.04631300000000002 0.333766
vn 0 6.123233995736766E-17 1
vn 0.201999 -0.716199 0.668024
vn 0.998779 -0.04934 -0.002542999999999997
vn -0.917196 0.398352 -0.008178000000000024
vn -0.972388 -0.23335 -0.0032049999999999856
vn -0.917196 0.398352 -0.008178000000000024
vn 0.396944 0.917835 -0.0037670000000000563
vn -0.23119 0.972875 -0.008156000000000059
vn 0.396944 0.917835 -0.0037670000000000563
vn 0.231098 -0.972881 0.009849000000000059
vn 0.231098 -0.972881 0.009849000000000059
vn -0.397278 -0.917678 0.006133000000000057
vn 0.998779 -0.04934 -0.002542999999999997
vn 0.998769 -0.049552 -0.0021289999999999968
vn 0.998769 -0.049552 -0.0021289999999999968
vn 0.201999 -0.716199 0.668024
vn -0.364006 -0.931394 0.0023100000000000572
vn -0.364006 -0.931394 0.0023100000000000572
vn -0.941518 0.04631300000000002 0.333766
vn -0.941518 0.04631300000000002 0.333766
vn -0.998799 0.048978 0.001422999999999997
vn 0.841308 -0.444467 0.307652
vn 0.587767 0.42118000000000005 0.690752
vn 0.054502 -0.835148 0.547319
vn 0.841308 -0.444467 0.307652
vn 0.587767 0.42118000000000005 0.690752
vn 0.054502 -0.835148 0.547319
vn -0.519788 0.12532900000000005 0.845052
vn -0.757151 -0.632255 0.16424500000000003
vn -0.173401 0.91571 0.36250199999999994
vn 0.765778 0.639954 0.06358899999999996
vn 0.587767 0.42118000000000005 0.690752
g Standard_3
f 133/133/133 132/132/132 131/131/131
f 52/52/52 50/50/50 47/47/47
f 53/53/53 130/130/130 52/52/52
f 50/50/50 129/129/129 54/54/54
f 54/54/54 49/49/49 128/128/128
f 52/52/52 127/127/127 53/53/53
f 49/49/49 126/126/126 125/125/125
f 124/124/124 123/123/123 48/48/48
f 50/50/50 51/51/51 47/47/47
f 103/103/103 104/104/104 102/102/102
f 103/103/103 102/102/102 101/101/101
f 99/99/99 122/122/122 121/121/121
f 120/120/120 100/100/100 99/99/99
f 45/45/45 41/41/41 119/119/119
f 118/118/118 117/117/117 45/45/45
f 44/44/44 40/40/40 116/116/116
f 115/115/115 114/114/114 44/44/44
f 39/39/39 42/42/42 46/46/46
f 46/46/46 43/43/43 39/39/39
f 95/95/95 98/98/98 97/97/97
f 97/97/97 96/96/96 95/95/95
f 93/93/93 113/113/113 112/112/112
f 111/111/111 94/94/94 93/93/93
f 110/110/110 38/38/38 34/34/34
f 34/34/34 109/109/109 108/108/108
f 107/107/107 37/37/37 33/33/33
f 33/33/33 106/106/106 105/105/105
f 35/35/35 36/36/36 32/32/32
f 32/32/32 31/31/31 35/35/35
f 92/92/92 28/28/28 91/91/91
f 90/90/90 89/89/89 29/29/29
f 88/88/88 27/27/27 87/87/87
f 26/26/26 25/25/25 30/30/30
f 83/83/83 86/86/86 85/85/85
f 85/85/85 84/84/84 83/83/83
f 80/80/80 24/24/24 82/82/82
f 82/82/82 81/81/81 80/80/80
f 77/77/77 23/23/23 79/79/79
f 79/79/79 78/78/78 77/77/77
f 75/75/75 22/22/22 21/21/21
f 21/21/21 76/76/76 75/75/75
f 19/19/19 18/18/18 17/17/17
f 17/17/17 20/20/20 19/19/19
f 71/71/71 74/74/74 73/73/73
f 73/73/73 72/72/72 71/71/71
f 69/69/69 16/16/16 15/15/15
f 15/15/15 70/70/70 69/69/69
f 67/67/67 14/14/14 13/13/13
f 13/13/13 68/68/68 67/67/67
f 11/11/11 10/10/10 9/9/9
f 9/9/9 12/12/12 11/11/11
f 63/63/63 66/66/66 65/65/65
f 65/65/65 64/64/64 63/63/63
f 60/60/60 7/7/7 62/62/62
f 62/62/62 61/61/61 60/60/60
f 57/57/57 5/5/5 59/59/59
f 59/59/59 58/58/58 57/57/57
f 55/55/55 3/3/3 4/4/4
f 4/4/4 56/56/56 55/55/55
f 2/2/2 1/1/1 6/6/6
f 6/6/6 8/8/8 2/2/2
