v -0.183164 0.15750400000000003 0.330841
v -0.15493 0.493837 0.33084099999999994
v 0.153167 0.12926800000000002 0.330841
v 0.181404 0.465602 0.33084099999999994
v -0.15493 0.493837 -0.006675000000000031
v 0.181404 0.465602 -0.006675000000000029
v -0.15493 0.493837 0.33084099999999994
v 0.181404 0.465602 0.33084099999999994
v -0.183164 0.157504 -0.00667500000000001
v -0.15493 0.493837 -0.006675000000000031
v 0.153167 0.129268 -0.006675000000000008
v 0.181404 0.465602 -0.006675000000000029
v -0.183164 0.15750400000000003 0.330841
v -0.15493 0.493837 0.33084099999999994
v 0.153167 0.12926800000000002 0.330841
v 0.181404 0.465602 0.33084099999999994
v -0.395626 0.15585200000000002 0.259271
v -0.649884 0.15190000000000003 0.259271
v -0.399687 0.413917 -0.004913000000000025
v -0.653947 0.409965 -0.004913000000000025
v -0.395626 0.155852 -0.004913000000000009
v -0.399687 0.413917 0.259271
v -0.650599 0.152061 -0.00456200000000001
v -0.653947 0.409965 0.259271
v -0.366962 -0.11852199999999999 0.128356
v -0.369593 0.248274 0.12835599999999997
v -0.189939 0.249142 0.12835599999999997
v -0.188025 -0.11738899999999998 0.128356
v -0.366962 -0.118522 -0.00043599999999999276
v -0.369593 0.248274 -0.0004360000000000152
v -0.189939 0.249142 -0.00043600000000001526
v -0.188025 -0.117389 -0.0004359999999999928
v -0.187806 0.445206 0.18397999999999998
v -0.197407 0.252103 0.18397999999999998
v -0.39051 0.261705 0.18397999999999998
v -0.380909 0.454808 0.18397999999999998
v -0.39051 0.261705 -0.009348000000000016
v -0.380909 0.454808 -0.009348000000000028
v -0.187806 0.445206 -0.009348000000000028
v -0.197407 0.252103 -0.009348000000000016
v 0.119368 0.660305 -0.003922000000000041
v 0.118908 0.659981 0.13823099999999997
v -0.561972 0.579237 0.13843399999999997
v -0.560255 0.579705 -0.003925000000000035
v 0.143112 0.541874 -0.003919000000000033
v 0.142583 0.54146 0.13828799999999997
v -0.548387 0.46064 -0.003921000000000029
v -0.550427 0.460056 0.13850399999999996
v 0.336133 0.166271 0.0014609999999999899
v 0.338488 0.163906 0.09142599999999998
v 0.450613 0.854106 0.09347599999999995
v 0.447937 0.855125 0.0027309999999999474
v 0.218106 0.189748 0.0013499999999999884
v 0.220067 0.187357 0.09131299999999999
v 0.329592 0.876292 0.0025199999999999463
v 0.331852 0.875286 0.09323199999999994
v 0.485158 0.129238 0.0023929999999999924
v 0.490302 0.125587 0.147421
v 0.564467 0.533502 0.14869899999999997
v 0.559324 0.536213 0.002984999999999967
v 0.363862 0.159112 0.0022889999999999903
v 0.368123 0.155484 0.147283
v 0.434263 0.561458 0.002869999999999966
v 0.438555 0.558847 0.14855699999999997
v 0.109557 0.844478 0.02665099999999995
v 0.19337 -0.02831399999999994 0.940974
v 0.140986 -0.033073999999999944 0.941232
v 0.057172 0.839717 0.026908999999999947
v 0.109557 0.844478 0.02665099999999995
v 0.19337 -0.02831399999999994 0.940974
v 0.140986 -0.033073999999999944 0.941232
v 0.057172 0.839717 0.026908999999999947
v -0.032091 0.845141 0.020623999999999948
v 0.118906 0.12004100000000004 0.79297
v 0.075361 0.11120500000000004 0.793188
v -0.075636 0.836305 0.020840999999999946
v -0.032091 0.845141 0.020623999999999948
v 0.118906 0.12004100000000004 0.79297
v 0.075361 0.11120500000000004 0.793188
v -0.075636 0.836305 0.020840999999999946
v 0.373552 -0.098923 6.057286765602681E-18
v 0.279509 0.013097 -8.019599564216442E-19
v 0.391538 0.107048 -6.554799527756294E-18
v 0.485591 -0.004968 3.0420226490820254E-19
v 0.372024 -0.09615699999999999 0.291623
v 0.277806 0.015574000000000017 0.291623
v 0.389621 0.10887000000000001 0.291623
v 0.483939 -0.002808999999999982 0.291623
v 0.182509 0.102821 -0.0021540000000000066
v 0.265049 0.016519 -0.002154000000000001
v 0.178465 -0.06513 -0.002153999999999996
v 0.095798 0.021391 -0.0021540000000000014
v 0.182135 0.10336600000000001 0.208046
v 0.264682 0.016951000000000015 0.208046
v 0.177993 -0.06481799999999999 0.208046
v 0.095439 0.021710000000000014 0.208046
v -0.053618 -0.108048 6.616031867713661E-18
v -0.147661 0.003973 -2.4327608665062173E-19
v -0.035632 0.097924 -5.996115657985271E-18
v 0.058422 -0.014092 8.628861346792251E-19
v -0.055146 -0.10528099999999999 0.291623
v -0.149364 0.006449000000000018 0.291623
v -0.037549 0.09974500000000001 0.291623
v 0.056769 -0.011933999999999983 0.291623
v -0.472243 -0.04576499999999998 0.332402
v -0.432727 0.15518200000000001 0.332402
v -0.271297 -0.08528299999999998 0.332402
v -0.231779 0.11566500000000002 0.332402
v -0.432727 0.155182 0.127606
v -0.231779 0.11566500000000002 0.127606
v -0.432727 0.15518200000000001 0.332402
v -0.231779 0.11566500000000002 0.332402
v -0.472243 -0.04576499999999999 0.127606
v -0.432727 0.155182 0.127606
v -0.271297 -0.08528299999999998 0.127606
v -0.231779 0.11566500000000002 0.127606
v -0.472243 -0.04576499999999998 0.332402
v -0.432727 0.15518200000000001 0.332402
v -0.271297 -0.08528299999999998 0.332402
v -0.231779 0.11566500000000002 0.332402
v -0.56391 -0.226554 0.128356
v -0.56654 0.140242 0.128356
v -0.386887 0.14111 0.128356
v -0.384972 -0.225421 0.128356
v -0.56391 -0.226554 -0.00043599999999998615
v -0.56654 0.140242 -0.0004360000000000086
v -0.386887 0.14111 -0.00043600000000000865
v -0.384972 -0.225421 -0.0004359999999999862
v -0.113315 -0.375451 0.18803100000000003
v -0.096662 -0.594926 0.18797100000000003
v -0.435212 -0.626685 0.18827400000000002
v -0.455455 -0.406182 0.18822900000000004
v -0.120913 -0.374474 0.002900000000000023
v -0.102803 -0.594101 0.0028900000000000366
v -0.446559 -0.62481 0.0029290000000000383
v -0.466007 -0.404807 0.002925000000000025
v -0.168434 -0.680849 0.519783
v -0.173886 -0.900886 0.518911
v -0.510257 -0.898409 0.46917700000000007
v -0.50822 -0.676988 0.46943500000000005
v -0.148572 -0.679113 0.33556900000000006
v -0.152613 -0.899447 0.33495800000000003
v -0.493964 -0.895401 0.2842160000000001
v -0.4912 -0.674558 0.28462300000000007
v -0.610201 -0.925723 0.28026000000000006
v -0.612067 -0.646261 0.28026000000000006
v -0.330741 -0.923859 0.28026000000000006
v -0.332605 -0.644397 0.28026000000000006
v -0.612067 -0.646261 0.0007920000000000395
v -0.332605 -0.644397 0.0007920000000000394
v -0.612067 -0.646261 0.28026000000000006
v -0.332605 -0.644397 0.28026000000000006
v -0.610201 -0.925723 0.0007920000000000567
v -0.612067 -0.646261 0.0007920000000000395
v -0.330741 -0.923859 0.0007920000000000565
v -0.332605 -0.644397 0.0007920000000000394
v -0.610201 -0.925723 0.28026000000000006
v -0.612067 -0.646261 0.28026000000000006
v -0.330741 -0.923859 0.28026000000000006
v -0.332605 -0.644397 0.28026000000000006
v 0.056692 -0.632066 0.32190300000000005
v 0.059799 -0.960075 0.32190300000000005
v -0.26821 -0.963181 0.32190300000000005
v -0.271317 -0.635172 0.3219040000000001
v -0.26821 -0.963181 -0.006095999999999941
v -0.271317 -0.635172 -0.006096999999999961
v 0.056692 -0.632066 -0.006095999999999961
v 0.059799 -0.960075 -0.006096999999999941
v 0.316298 -0.989077 0.25927100000000003
v 0.062015 -0.990673 0.25927100000000003
v 0.314628 -0.730986 -0.004912999999999955
v 0.060343 -0.732582 -0.004912999999999955
v 0.316298 -0.989077 -0.004912999999999939
v 0.314628 -0.730986 0.25927100000000003
v 0.061301 -0.990505 -0.004561999999999939
v 0.060343 -0.732582 0.25927100000000003
v 0.22495 -0.639828 0.23749400000000004
v 0.095263 -0.694758 0.22956400000000005
v 0.083692 -0.601543 0.23224500000000003
v 0.145684 -0.663949 0.2930690000000001
v 0.06489 -0.542087 -0.007035999999999967
v 0.084192 -0.693458 -0.02136999999999996
v 0.281571 -0.622636 -0.017152999999999963
v 0.179083 -0.725287 -0.025305999999999954
v 0.165442 -0.716842 0.22927500000000006
v 0.658535 -0.917347 0.29377700000000007
v 0.528508 -0.624173 0.29377700000000007
v 0.956074 -0.785315 -0.039418999999999954
v 0.826046 -0.492139 -0.039418999999999975
v 0.658535 -0.917347 -0.03941899999999995
v 0.956074 -0.785315 0.29377700000000007
v 0.528342 -0.623263 -0.03897599999999996
v 0.826046 -0.492139 0.29377700000000007
v 0.879864 -0.863454 0.524777
v 0.652254 -0.855167 0.524777
v 0.888153 -0.635846 0.524777
v 0.660543 -0.627557 0.524777
v 0.652254 -0.855167 0.29701600000000006
v 0.660543 -0.627557 0.29701600000000006
v 0.652254 -0.855167 0.524777
v 0.660543 -0.627557 0.524777
v 0.879864 -0.863454 0.29701600000000006
v 0.652254 -0.855167 0.29701600000000006
v 0.888153 -0.635846 0.29701600000000006
v 0.660543 -0.627557 0.29701600000000006
v 0.879864 -0.863454 0.524777
v 0.652254 -0.855167 0.524777
v 0.888153 -0.635846 0.524777
v 0.660543 -0.627557 0.524777
v -0.10204 0.16464100000000004 0.455829
v -0.133585 0.35746200000000006 0.455829
v 0.044018 0.38453500000000007 0.455829
v 0.074834 0.19174700000000003 0.455829
v -0.10204 0.16464100000000004 0.327037
v -0.133585 0.357462 0.327037
v 0.044018 0.384535 0.327037
v 0.074834 0.19174700000000003 0.327037
v -0.183164 0.15750400000000003 0.330841
v 0.153167 0.12926800000000002 0.330841
v 0.153167 0.129268 -0.006675000000000008
v -0.183164 0.157504 -0.00667500000000001
v -0.399687 0.413917 0.259271
v -0.653947 0.409965 0.259271
v -0.395626 0.15585200000000002 0.259271
v -0.399687 0.413917 0.259271
v -0.399687 0.413917 -0.004913000000000025
v -0.649884 0.15190000000000003 0.259271
v -0.395626 0.15585200000000002 0.259271
v -0.395626 0.155852 -0.004913000000000009
v -0.653947 0.409965 0.259271
v -0.649884 0.15190000000000003 0.259271
v -0.650599 0.152061 -0.00456200000000001
v -0.653947 0.409965 -0.004913000000000025
v -0.369593 0.248274 0.12835599999999997
v -0.366962 -0.11852199999999999 0.128356
v -0.189939 0.249142 0.12835599999999997
v -0.369593 0.248274 0.12835599999999997
v -0.369593 0.248274 -0.0004360000000000152
v -0.188025 -0.11738899999999998 0.128356
v -0.189939 0.249142 0.12835599999999997
v -0.189939 0.249142 -0.00043600000000001526
v -0.366962 -0.11852199999999999 0.128356
v -0.188025 -0.11738899999999998 0.128356
v -0.188025 -0.117389 -0.0004359999999999928
v -0.366962 -0.118522 -0.00043599999999999276
v -0.380909 0.454808 0.18397999999999998
v -0.39051 0.261705 0.18397999999999998
v -0.187806 0.445206 0.18397999999999998
v -0.380909 0.454808 0.18397999999999998
v -0.380909 0.454808 -0.009348000000000028
v -0.197407 0.252103 0.18397999999999998
v -0.187806 0.445206 0.18397999999999998
v -0.187806 0.445206 -0.009348000000000028
v -0.39051 0.261705 0.18397999999999998
v -0.197407 0.252103 0.18397999999999998
v -0.197407 0.252103 -0.009348000000000016
v -0.39051 0.261705 -0.009348000000000016
v 0.118908 0.659981 0.13823099999999997
v 0.119368 0.660305 -0.003922000000000041
v 0.142583 0.54146 0.13828799999999997
v 0.143112 0.541874 -0.003919000000000033
v 0.142583 0.54146 0.13828799999999997
v -0.550427 0.460056 0.13850399999999996
v -0.561972 0.579237 0.13843399999999997
v 0.118908 0.659981 0.13823099999999997
v -0.560255 0.579705 -0.003925000000000035
v -0.561972 0.579237 0.13843399999999997
v -0.550427 0.460056 0.13850399999999996
v -0.548387 0.46064 -0.003921000000000029
v 0.338488 0.163906 0.09142599999999998
v 0.336133 0.166271 0.0014609999999999899
v 0.220067 0.187357 0.09131299999999999
v 0.218106 0.189748 0.0013499999999999884
v 0.220067 0.187357 0.09131299999999999
v 0.331852 0.875286 0.09323199999999994
v 0.450613 0.854106 0.09347599999999995
v 0.338488 0.163906 0.09142599999999998
v 0.447937 0.855125 0.0027309999999999474
v 0.450613 0.854106 0.09347599999999995
v 0.331852 0.875286 0.09323199999999994
v 0.329592 0.876292 0.0025199999999999463
v 0.490302 0.125587 0.147421
v 0.485158 0.129238 0.0023929999999999924
v 0.368123 0.155484 0.147283
v 0.363862 0.159112 0.0022889999999999903
v 0.368123 0.155484 0.147283
v 0.438555 0.558847 0.14855699999999997
v 0.564467 0.533502 0.14869899999999997
v 0.490302 0.125587 0.147421
v 0.559324 0.536213 0.002984999999999967
v 0.564467 0.533502 0.14869899999999997
v 0.438555 0.558847 0.14855699999999997
v 0.434263 0.561458 0.002869999999999966
v 0.483939 -0.002808999999999982 0.291623
v 0.485591 -0.004968 3.0420226490820254E-19
v 0.277806 0.015574000000000017 0.291623
v 0.389621 0.10887000000000001 0.291623
v 0.483939 -0.002808999999999982 0.291623
v 0.372024 -0.09615699999999999 0.291623
v 0.095798 0.021391 -0.0021540000000000014
v 0.095439 0.021710000000000014 0.208046
v 0.177993 -0.06481799999999999 0.208046
v 0.095439 0.021710000000000014 0.208046
v 0.264682 0.016951000000000015 0.208046
v 0.182135 0.10336600000000001 0.208046
v 0.056769 -0.011933999999999983 0.291623
v 0.058422 -0.014092 8.628861346792251E-19
v -0.149364 0.006449000000000018 0.291623
v -0.037549 0.09974500000000001 0.291623
v 0.056769 -0.011933999999999983 0.291623
v -0.055146 -0.10528099999999999 0.291623
v -0.472243 -0.04576499999999998 0.332402
v -0.271297 -0.08528299999999998 0.332402
v -0.271297 -0.08528299999999998 0.127606
v -0.472243 -0.04576499999999999 0.127606
v -0.56654 0.140242 0.128356
v -0.56391 -0.226554 0.128356
v -0.386887 0.14111 0.128356
v -0.56654 0.140242 0.128356
v -0.56654 0.140242 -0.0004360000000000086
v -0.384972 -0.225421 0.128356
v -0.386887 0.14111 0.128356
v -0.386887 0.14111 -0.00043600000000000865
v -0.56391 -0.226554 0.128356
v -0.384972 -0.225421 0.128356
v -0.384972 -0.225421 -0.0004359999999999862
v -0.56391 -0.226554 -0.00043599999999998615
v -0.096662 -0.594926 0.18797100000000003
v -0.113315 -0.375451 0.18803100000000003
v -0.455455 -0.406182 0.18822900000000004
v -0.435212 -0.626685 0.18827400000000002
v -0.466007 -0.404807 0.002925000000000025
v -0.120913 -0.374474 0.002900000000000023
v -0.113315 -0.375451 0.18803100000000003
v -0.455455 -0.406182 0.18822900000000004
v -0.096662 -0.594926 0.18797100000000003
v -0.102803 -0.594101 0.0028900000000000366
v -0.446559 -0.62481 0.0029290000000000383
v -0.435212 -0.626685 0.18827400000000002
v -0.173886 -0.900886 0.518911
v -0.168434 -0.680849 0.519783
v -0.50822 -0.676988 0.46943500000000005
v -0.510257 -0.898409 0.46917700000000007
v -0.4912 -0.674558 0.28462300000000007
v -0.148572 -0.679113 0.33556900000000006
v -0.168434 -0.680849 0.519783
v -0.50822 -0.676988 0.46943500000000005
v -0.173886 -0.900886 0.518911
v -0.152613 -0.899447 0.33495800000000003
v -0.493964 -0.895401 0.2842160000000001
v -0.510257 -0.898409 0.46917700000000007
v -0.610201 -0.925723 0.28026000000000006
v -0.330741 -0.923859 0.28026000000000006
v -0.330741 -0.923859 0.0007920000000000565
v -0.610201 -0.925723 0.0007920000000000567
v -0.271317 -0.635172 0.3219040000000001
v -0.26821 -0.963181 0.32190300000000005
v 0.056692 -0.632066 0.32190300000000005
v -0.271317 -0.635172 0.3219040000000001
v -0.271317 -0.635172 -0.006096999999999961
v 0.059799 -0.960075 0.32190300000000005
v 0.056692 -0.632066 0.32190300000000005
v 0.056692 -0.632066 -0.006095999999999961
v -0.26821 -0.963181 0.32190300000000005
v 0.059799 -0.960075 0.32190300000000005
v 0.059799 -0.960075 -0.006096999999999941
v -0.26821 -0.963181 -0.006095999999999941
v 0.314628 -0.730986 0.25927100000000003
v 0.060343 -0.732582 0.25927100000000003
v 0.316298 -0.989077 0.25927100000000003
v 0.314628 -0.730986 0.25927100000000003
v 0.314628 -0.730986 -0.004912999999999955
v 0.062015 -0.990673 0.25927100000000003
v 0.316298 -0.989077 0.25927100000000003
v 0.316298 -0.989077 -0.004912999999999939
v 0.060343 -0.732582 0.25927100000000003
v 0.062015 -0.990673 0.25927100000000003
v 0.061301 -0.990505 -0.004561999999999939
v 0.060343 -0.732582 -0.004912999999999955
v 0.095263 -0.694758 0.22956400000000005
v 0.084192 -0.693458 -0.02136999999999996
v 0.956074 -0.785315 0.29377700000000007
v 0.826046 -0.492139 0.29377700000000007
v 0.658535 -0.917347 0.29377700000000007
v 0.956074 -0.785315 0.29377700000000007
v 0.956074 -0.785315 -0.039418999999999954
v 0.528508 -0.624173 0.29377700000000007
v 0.658535 -0.917347 0.29377700000000007
v 0.658535 -0.917347 -0.03941899999999995
v 0.826046 -0.492139 0.29377700000000007
v 0.528508 -0.624173 0.29377700000000007
v 0.528342 -0.623263 -0.03897599999999996
v 0.826046 -0.492139 -0.039418999999999975
v 0.879864 -0.863454 0.524777
v 0.888153 -0.635846 0.524777
v 0.888153 -0.635846 0.29701600000000006
v 0.879864 -0.863454 0.29701600000000006
v -0.133585 0.35746200000000006 0.455829
v -0.10204 0.16464100000000004 0.455829
v 0.044018 0.38453500000000007 0.455829
v -0.133585 0.35746200000000006 0.455829
v -0.133585 0.357462 0.327037
v 0.074834 0.19174700000000003 0.455829
v 0.044018 0.38453500000000007 0.455829
v 0.044018 0.384535 0.327037
v -0.10204 0.16464100000000004 0.455829
v 0.074834 0.19174700000000003 0.455829
v 0.074834 0.19174700000000003 0.327037
v -0.10204 0.16464100000000004 0.327037
v 0.277806 0.015574000000000017 0.291623
v 0.279509 0.013097 -8.019599564216442E-19
v 0.277806 0.015574000000000017 0.291623
v 0.389621 0.10887000000000001 0.291623
v 0.391538 0.107048 -6.554799527756294E-18
v 0.389621 0.10887000000000001 0.291623
v 0.373552 -0.098923 6.057286765602681E-18
v 0.373552 -0.098923 6.057286765602681E-18
v 0.372024 -0.09615699999999999 0.291623
v 0.182135 0.10336600000000001 0.208046
v 0.182509 0.102821 -0.0021540000000000066
v 0.182509 0.102821 -0.0021540000000000066
v 0.264682 0.016951000000000015 0.208046
v 0.265049 0.016519 -0.002154000000000001
v 0.265049 0.016519 -0.002154000000000001
v 0.177993 -0.06481799999999999 0.208046
v 0.177993 -0.06481799999999999 0.208046
v 0.178465 -0.06513 -0.002153999999999996
v -0.149364 0.006449000000000018 0.291623
v -0.147661 0.003973 -2.4327608665062173E-19
v -0.149364 0.006449000000000018 0.291623
v -0.037549 0.09974500000000001 0.291623
v -0.035632 0.097924 -5.996115657985271E-18
v -0.037549 0.09974500000000001 0.291623
v -0.053618 -0.108048 6.616031867713661E-18
v -0.053618 -0.108048 6.616031867713661E-18
v -0.055146 -0.10528099999999999 0.291623
v 0.145684 -0.663949 0.2930690000000001
v 0.22495 -0.639828 0.23749400000000004
v 0.281571 -0.622636 -0.017152999999999963
v 0.22495 -0.639828 0.23749400000000004
v 0.145684 -0.663949 0.2930690000000001
v 0.06489 -0.542087 -0.007035999999999967
v 0.083692 -0.601543 0.23224500000000003
v 0.06489 -0.542087 -0.007035999999999967
vt 0.006440 0.059383
vt 0.006440 0.111242
vt 0.049960 0.059383
vt 0.049961 0.111242
vt 0.099393 0.112509
vt 0.099393 0.059108
vt 0.054788 0.112509
vt 0.054788 0.059108
vt 0.054788 0.059108
vt 0.054788 0.112509
vt 0.054788 0.059108
vt 0.099393 0.059108
vt 0.099393 0.059108
vt 0.099393 0.112509
vt 0.054788 0.112509
vt 0.099393 0.112509
vt 0.506494 0.281743
vt 0.506494 0.332969
vt 0.633079 0.332927
vt 0.573212 0.332927
vt 0.633079 0.332927
vt 0.566828 0.281743
vt 0.633079 0.332927
vt 0.566828 0.332969
vt 0.774114 0.006345
vt 0.682336 0.006345
vt 0.682336 0.045058
vt 0.774114 0.045058
vt 0.432119 0.006345
vt 0.312378 0.006345
vt 0.623466 0.006345
vt 0.498930 0.006345
vt 0.103552 0.040864
vt 0.103789 0.008237
vt 0.073727 0.008237
vt 0.073727 0.040864
vt 0.106078 0.046283
vt 0.106078 0.078435
vt 0.106629 0.078554
vt 0.135568 0.008237
vt 0.973933 0.286339
vt 0.993544 0.286339
vt 0.993578 0.208470
vt 0.973933 0.208470
vt 0.994242 0.161011
vt 0.994242 0.144612
vt 0.951089 0.286339
vt 0.970734 0.286339
vt 0.952043 0.079148
vt 0.961977 0.079148
vt 0.962004 0.004447
vt 0.952043 0.004447
vt 0.993052 0.192050
vt 0.993052 0.182526
vt 0.965751 0.079434
vt 0.975712 0.079434
vt 0.927052 0.203544
vt 0.941322 0.203544
vt 0.941346 0.159751
vt 0.927052 0.159751
vt 0.979117 0.124247
vt 0.993532 0.124247
vt 0.945278 0.203544
vt 0.959572 0.203544
vt 0.445206 0.309030
vt 0.248191 0.309030
vt 0.248191 0.313296
vt 0.445206 0.313296
vt 0.445206 0.309030
vt 0.248191 0.309030
vt 0.248191 0.313296
vt 0.445206 0.313296
vt 0.445206 0.309030
vt 0.248191 0.309030
vt 0.248191 0.313296
vt 0.445206 0.313296
vt 0.445206 0.309030
vt 0.248191 0.309030
vt 0.248191 0.313296
vt 0.445206 0.313296
vt 0.452552 0.219309
vt 0.485521 0.219309
vt 0.518284 0.219309
vt 0.548997 0.219309
vt 0.452552 0.166611
vt 0.485521 0.166611
vt 0.518284 0.166611
vt 0.548997 0.166611
vt 0.020784 0.032533
vt 0.034702 0.032533
vt 0.049997 0.032533
vt 0.006397 0.032533
vt 0.020784 0.008445
vt 0.034702 0.008445
vt 0.049997 0.008445
vt 0.006397 0.008445
vt 0.452552 0.219309
vt 0.485521 0.219309
vt 0.518284 0.219309
vt 0.548997 0.219309
vt 0.452552 0.166611
vt 0.485521 0.166611
vt 0.518284 0.166611
vt 0.548997 0.166611
vt 0.006440 0.059383
vt 0.006440 0.111242
vt 0.049960 0.059383
vt 0.049961 0.111242
vt 0.099393 0.112509
vt 0.099393 0.059108
vt 0.054788 0.112509
vt 0.054788 0.059108
vt 0.054788 0.059108
vt 0.054788 0.112509
vt 0.054788 0.059108
vt 0.099393 0.059108
vt 0.099393 0.059108
vt 0.099393 0.112509
vt 0.054788 0.112509
vt 0.099393 0.112509
vt 0.774114 0.006345
vt 0.682336 0.006345
vt 0.682336 0.045058
vt 0.774114 0.045058
vt 0.432119 0.006345
vt 0.312378 0.006345
vt 0.623466 0.006345
vt 0.498930 0.006345
vt 0.854889 0.261503
vt 0.854878 0.234551
vt 0.817339 0.234530
vt 0.817350 0.261524
vt 0.789389 0.229092
vt 0.816727 0.229076
vt 0.719593 0.229131
vt 0.747833 0.229116
vt 0.854889 0.261503
vt 0.854878 0.234551
vt 0.817339 0.234530
vt 0.817350 0.261524
vt 0.789389 0.229092
vt 0.816727 0.229076
vt 0.719593 0.229131
vt 0.747833 0.229116
vt 0.006440 0.059383
vt 0.006440 0.111242
vt 0.049960 0.059383
vt 0.049961 0.111242
vt 0.099393 0.112509
vt 0.099393 0.059108
vt 0.054788 0.112509
vt 0.054788 0.059108
vt 0.054788 0.059108
vt 0.054788 0.112509
vt 0.054788 0.059108
vt 0.099393 0.059108
vt 0.099393 0.059108
vt 0.099393 0.112509
vt 0.054788 0.112509
vt 0.099393 0.112509
vt 0.103552 0.040864
vt 0.103789 0.008237
vt 0.073727 0.008237
vt 0.073727 0.040864
vt 0.106078 0.046283
vt 0.106078 0.078435
vt 0.106629 0.078554
vt 0.135568 0.008237
vt 0.506494 0.281743
vt 0.506494 0.332969
vt 0.633079 0.332927
vt 0.573212 0.332927
vt 0.633079 0.332927
vt 0.566828 0.281743
vt 0.633079 0.332927
vt 0.566828 0.332969
vt 0.297194 0.373421
vt 0.276271 0.367316
vt 0.284499 0.376611
vt 0.288875 0.365669
vt 0.281653 0.405795
vt 0.261215 0.390604
vt 0.307762 0.402484
vt 0.311685 0.396375
vt 0.299262 0.369069
vt 0.506494 0.281743
vt 0.506494 0.332969
vt 0.633079 0.332927
vt 0.573212 0.332927
vt 0.633079 0.332927
vt 0.566828 0.281743
vt 0.633079 0.332927
vt 0.566828 0.332969
vt 0.006440 0.059383
vt 0.006440 0.111242
vt 0.049960 0.059383
vt 0.049961 0.111242
vt 0.099393 0.112509
vt 0.099393 0.059108
vt 0.054788 0.112509
vt 0.054788 0.059108
vt 0.054788 0.059108
vt 0.054788 0.112509
vt 0.054788 0.059108
vt 0.099393 0.059108
vt 0.099393 0.059108
vt 0.099393 0.112509
vt 0.054788 0.112509
vt 0.099393 0.112509
vt 0.774114 0.006345
vt 0.682336 0.006345
vt 0.682336 0.045058
vt 0.774114 0.045058
vt 0.432119 0.006345
vt 0.312378 0.006345
vt 0.623466 0.006345
vt 0.498930 0.006345
vt 0.099393 0.112509
vt 0.099393 0.059108
vt 0.054788 0.059108
vt 0.054788 0.112509
vt 0.633079 0.281701
vt 0.573212 0.281701
vt 0.633079 0.281701
vt 0.573212 0.281701
vt 0.573212 0.332927
vt 0.633079 0.281701
vt 0.573212 0.281701
vt 0.573212 0.332927
vt 0.633079 0.281701
vt 0.573212 0.281701
vt 0.573212 0.332927
vt 0.633079 0.332927
vt 0.312378 0.045058
vt 0.432118 0.045058
vt 0.623466 0.045058
vt 0.678375 0.045058
vt 0.678375 0.006345
vt 0.498930 0.045058
vt 0.618142 0.045058
vt 0.618142 0.006345
vt 0.435329 0.045058
vt 0.495251 0.045058
vt 0.495251 0.006345
vt 0.435329 0.006345
vt 0.135046 0.078435
vt 0.135046 0.046283
vt 0.135597 0.078554
vt 0.135597 0.046402
vt 0.106629 0.046402
vt 0.106127 0.008119
vt 0.106127 0.041101
vt 0.135568 0.041219
vt 0.135607 0.008319
vt 0.135607 0.041301
vt 0.106166 0.041182
vt 0.106166 0.008200
vt 0.979827 0.144612
vt 0.979827 0.161011
vt 0.970700 0.208470
vt 0.951089 0.208470
vt 0.947154 0.286339
vt 0.947490 0.208470
vt 0.931010 0.208470
vt 0.930674 0.286339
vt 0.994242 0.180024
vt 0.994242 0.163596
vt 0.979827 0.163596
vt 0.979827 0.180024
vt 0.978638 0.182526
vt 0.978638 0.192050
vt 0.975685 0.004734
vt 0.965751 0.004734
vt 0.979012 0.004734
vt 0.978897 0.079434
vt 0.992148 0.079434
vt 0.992263 0.004734
vt 0.993053 0.204680
vt 0.993052 0.195130
vt 0.978638 0.195130
vt 0.978638 0.204680
vt 0.993532 0.110476
vt 0.979117 0.110476
vt 0.959547 0.159751
vt 0.945278 0.159751
vt 0.962878 0.159751
vt 0.963107 0.203544
vt 0.975133 0.203544
vt 0.974904 0.159751
vt 0.979117 0.142230
vt 0.993532 0.142230
vt 0.993532 0.128458
vt 0.979117 0.128458
vt 0.421574 0.166611
vt 0.421574 0.219309
vt 0.490757 0.235212
vt 0.467522 0.225247
vt 0.457896 0.249305
vt 0.481134 0.259271
vt 0.064000 0.032533
vt 0.064000 0.008445
vt 0.016160 0.037136
vt 0.005778 0.041555
vt 0.020454 0.047797
vt 0.010083 0.052205
vt 0.421574 0.166611
vt 0.421574 0.219309
vt 0.490757 0.235212
vt 0.467522 0.225247
vt 0.457896 0.249305
vt 0.481134 0.259271
vt 0.099393 0.112509
vt 0.099393 0.059108
vt 0.054788 0.059108
vt 0.054788 0.112509
vt 0.312378 0.045058
vt 0.432118 0.045058
vt 0.623466 0.045058
vt 0.678375 0.045058
vt 0.678375 0.006345
vt 0.498930 0.045058
vt 0.618142 0.045058
vt 0.618142 0.006345
vt 0.435329 0.045058
vt 0.495251 0.045058
vt 0.495251 0.006345
vt 0.435329 0.006345
vt 0.816716 0.205701
vt 0.789378 0.205719
vt 0.747822 0.205743
vt 0.719542 0.205756
vt 0.747833 0.229116
vt 0.789389 0.229092
vt 0.789378 0.205719
vt 0.747822 0.205743
vt 0.816716 0.205701
vt 0.816727 0.229076
vt 0.859185 0.229052
vt 0.859174 0.205677
vt 0.816716 0.205701
vt 0.789378 0.205719
vt 0.747822 0.205743
vt 0.719542 0.205756
vt 0.747833 0.229116
vt 0.789389 0.229092
vt 0.789378 0.205719
vt 0.747822 0.205743
vt 0.816716 0.205701
vt 0.816727 0.229076
vt 0.859185 0.229052
vt 0.859174 0.205677
vt 0.099393 0.112509
vt 0.099393 0.059108
vt 0.054788 0.059108
vt 0.054788 0.112509
vt 0.135046 0.078435
vt 0.135046 0.046283
vt 0.135597 0.078554
vt 0.135597 0.046402
vt 0.106629 0.046402
vt 0.106127 0.008119
vt 0.106127 0.041101
vt 0.135568 0.041219
vt 0.135607 0.008319
vt 0.135607 0.041301
vt 0.106166 0.041182
vt 0.106166 0.008200
vt 0.633079 0.281701
vt 0.573212 0.281701
vt 0.633079 0.281701
vt 0.573212 0.281701
vt 0.573212 0.332927
vt 0.633079 0.281701
vt 0.573212 0.281701
vt 0.573212 0.332927
vt 0.633079 0.281701
vt 0.573212 0.281701
vt 0.573212 0.332927
vt 0.633079 0.332927
vt 0.301648 0.364045
vt 0.316662 0.388626
vt 0.633079 0.281701
vt 0.573212 0.281701
vt 0.633079 0.281701
vt 0.573212 0.281701
vt 0.573212 0.332927
vt 0.633079 0.281701
vt 0.573212 0.281701
vt 0.573212 0.332927
vt 0.633079 0.281701
vt 0.573212 0.281701
vt 0.573212 0.332927
vt 0.633079 0.332927
vt 0.099393 0.112509
vt 0.099393 0.059108
vt 0.054788 0.059108
vt 0.054788 0.112509
vt 0.312378 0.045058
vt 0.432118 0.045058
vt 0.623466 0.045058
vt 0.678375 0.045058
vt 0.678375 0.006345
vt 0.498930 0.045058
vt 0.618142 0.045058
vt 0.618142 0.006345
vt 0.435329 0.045058
vt 0.495251 0.045058
vt 0.495251 0.006345
vt 0.435329 0.006345
vt 0.485521 0.166611
vt 0.485521 0.219309
vt 0.485521 0.166611
vt 0.518284 0.166611
vt 0.518284 0.219309
vt 0.518284 0.166611
vt 0.452552 0.219309
vt 0.452552 0.219309
vt 0.452552 0.166611
vt 0.020784 0.008445
vt 0.020784 0.032533
vt 0.020784 0.032533
vt 0.034702 0.008445
vt 0.034702 0.032533
vt 0.034702 0.032533
vt 0.049997 0.008445
vt 0.049997 0.008445
vt 0.049997 0.032533
vt 0.485521 0.166611
vt 0.485521 0.219309
vt 0.485521 0.166611
vt 0.518284 0.166611
vt 0.518284 0.219309
vt 0.518284 0.166611
vt 0.452552 0.219309
vt 0.452552 0.219309
vt 0.452552 0.166611
vt 0.288875 0.365669
vt 0.297194 0.373421
vt 0.307762 0.402484
vt 0.297194 0.373421
vt 0.288875 0.365669
vt 0.281653 0.405795
vt 0.284499 0.376611
vt 0.281653 0.405795
vn 0 6.123233995736766E-17 1
vn 0 6.123233995736766E-17 1
vn 0 6.123233995736766E-17 1
vn 0 6.123233995736766E-17 1
vn 0.083657 0.996495 -6.101772060581709E-17
vn 0.083657 0.996495 -6.101772060581709E-17
vn 0.083657 0.996495 -6.101772060581709E-17
vn 0.083657 0.996495 -6.101772060581709E-17
vn -0.996495 0.083653 -5.1222689344536774E-18
vn -0.996495 0.083653 -5.1222689344536774E-18
vn 0.996494 -0.083661 5.122758793173336E-18
vn 0.996494 -0.083661 5.122758793173336E-18
vn -0.996495 0.083653 -5.1222689344536774E-18
vn -0.996495 0.083653 -5.1222689344536774E-18
vn 0.996494 -0.083661 5.122758793173336E-18
vn 0.996494 -0.083661 5.122758793173336E-18
vn 0 6.123233995736766E-17 1
vn 0 6.123233995736766E-17 1
vn -0.015543 0.999879 -6.122493084423281E-17
vn -0.015543 0.999879 -6.122493084423281E-17
vn 0.999876 0.015735 -9.6349086922918E-19
vn 0 6.123233995736766E-17 1
vn 0.014866 -0.999889 -0.0006519999999999388
vn 1E-06 -9.999999999387675E-07 1
vn 0 6.123233995736766E-17 1
vn 0 6.123233995736766E-17 1
vn 0 6.123233995736766E-17 1
vn 0 6.123233995736766E-17 1
vn -0.999974 -0.007171 4.390971098342835E-19
vn -0.999974 -0.007171 4.390971098342835E-19
vn -0.004831 0.999988 -6.123160516928818E-17
vn 0.999986 0.005225 -3.19938976277246E-19
vn 0 6.123233995736766E-17 1
vn 0 6.123233995736766E-17 1
vn 0 6.123233995736766E-17 1
vn 0 6.123233995736766E-17 1
vn -0.998766 0.049662 -3.0409204669627928E-18
vn -0.998766 0.049662 -3.0409204669627928E-18
vn 0.049663 0.998766 -6.115677924986028E-17
vn 0.998766 -0.049662 3.0409204669627928E-18
vn -0.117765 0.99304 0.0018609999999999393
vn -0.117761 0.99304 0.0018829999999999392
vn -0.117765 0.99304 0.0018609999999999393
vn -0.11777 0.993039 0.0018399999999999393
vn 0.98055 0.196232 0.003919999999999988
vn 0.980618 0.195883 0.004221999999999988
vn 0.116667 -0.993168 -0.002429999999999939
vn 0.116662 -0.993169 -0.002403999999999939
vn 0.986625 -0.160134 -0.03046499999999999
vn 0.986629 -0.160191 -0.03004099999999999
vn 0.986625 -0.160134 -0.03046499999999999
vn 0.986621 -0.160076 -0.03088799999999999
vn -0.19461 -0.98065 -0.021245999999999942
vn -0.194188 -0.980721 -0.02183099999999994
vn -0.986736 0.160228 0.02606399999999999
vn -0.986722 0.160265 0.026363999999999988
vn 0.983113 -0.178863 -0.038693999999999985
vn 0.98313 -0.178624 -0.03936299999999999
vn 0.983113 -0.178863 -0.038693999999999985
vn 0.983096 -0.179102 -0.03802499999999999
vn -0.238371 -0.971032 -0.01663799999999994
vn -0.237638 -0.971199 -0.01731499999999994
vn -0.984552 0.172018 0.03266199999999998
vn -0.984605 0.171822 0.032086999999999984
vn -0.061944 0.719113 0.692127
vn -0.061944 0.719113 0.692127
vn -0.061944 0.719113 0.692127
vn -0.061944 0.719113 0.692127
vn 0.061944 -0.719113 -0.692127
vn 0.061944 -0.719113 -0.692127
vn 0.061944 -0.719113 -0.692127
vn 0.061944 -0.719113 -0.692127
vn -0.140211 0.708027 0.692127
vn -0.140211 0.708027 0.692127
vn -0.140211 0.708027 0.692127
vn -0.140212 0.708026 0.692127
vn 0.140211 -0.708027 -0.692127
vn 0.140211 -0.708027 -0.692127
vn 0.140211 -0.708027 -0.692127
vn 0.140212 -0.708026 -0.692127
vn 0.231098 -0.972881 0.009849000000000059
vn -0.972388 -0.23335 -0.0032049999999999856
vn -0.23119 0.972875 -0.008156000000000059
vn 0.972308 0.233663 0.004421999999999986
vn -0.397278 -0.917678 0.006133000000000057
vn -0.917196 0.398352 -0.008178000000000024
vn 0.396944 0.917835 -0.0037670000000000563
vn 0.917222 -0.39828 0.008740000000000024
vn 0.026623 0.999643 -0.002129000000000061
vn 0.939501 -0.34254 0.002310000000000021
vn -0.026048 -0.99966 0.0014230000000000612
vn -0.956227 -0.292622 -0.001376999999999982
vn 0.02641 0.999648 -0.0025430000000000613
vn 0.711375 0.21837900000000002 0.668024
vn -0.024697 -0.942333 0.33376600000000006
vn -0.939031 0.343823 -0.002499000000000021
vn 0.231098 -0.972881 0.009849000000000059
vn -0.972388 -0.23335 -0.0032049999999999856
vn -0.23119 0.972875 -0.008156000000000059
vn 0.972308 0.233663 0.004421999999999986
vn -0.397278 -0.917678 0.006133000000000057
vn -0.917196 0.398352 -0.008178000000000024
vn 0.396944 0.917835 -0.0037670000000000563
vn 0.917222 -0.39828 0.008740000000000024
vn 0 6.123233995736766E-17 1
vn 0 -9.999999999387675E-07 1
vn 0 6.123233995736766E-17 1
vn 0 6.123233995736766E-17 1
vn 0.192959 0.981207 -6.008160059254885E-17
vn 0.192959 0.981207 -6.008160059254885E-17
vn 0.192959 0.981207 -6.008160059254885E-17
vn 0.192959 0.981207 -6.008160059254885E-17
vn -0.981208 0.192955 -1.1815086156473877E-17
vn -0.981208 0.192955 -1.1815086156473877E-17
vn 0.981206 -0.192963 1.1815576015193535E-17
vn 0.981206 -0.192963 1.1815576015193535E-17
vn -0.981208 0.192955 -1.1815086156473877E-17
vn -0.981208 0.192955 -1.1815086156473877E-17
vn 0.981206 -0.192963 1.1815576015193535E-17
vn 0.981206 -0.192963 1.1815576015193535E-17
vn 0 6.123233995736766E-17 1
vn 0 6.123233995736766E-17 1
vn 0 6.123233995736766E-17 1
vn 0 6.123233995736766E-17 1
vn -0.999974 -0.007171 4.390971098342835E-19
vn -0.999974 -0.007171 4.390971098342835E-19
vn -0.004831 0.999988 -6.123160516928818E-17
vn 0.999986 0.005225 -3.19938976277246E-19
vn 0.000736 2.6000000000061232E-05 1
vn 0.000914 -0.00020199999999993877 1
vn 0.000736 2.6000000000061232E-05 1
vn 0.000558 0.00025400000000006125 1
vn 0.995802 0.082115 -0.04043600000000001
vn 0.996213 0.078873 -0.036584000000000005
vn -0.994292 -0.089582 0.057955000000000007
vn -0.994553 -0.08792 0.055982000000000004
vn -0.14642 -4.799999999993943E-05 0.989223
vn -0.146267 -0.00029299999999993947 0.989245
vn -0.14642 -4.799999999993943E-05 0.989223
vn -0.146572 0.00019700000000006057 0.9892
vn 0.994086 -0.018527999999999992 0.107005
vn 0.993601 -0.02179499999999999 0.110827
vn -0.995921 0.010947999999999994 -0.089566
vn -0.995722 0.012626999999999994 -0.091531
vn 0 6.123233995736766E-17 1
vn 0 6.123233995736766E-17 1
vn 0 6.123233995736766E-17 1
vn 0 6.123233995736766E-17 1
vn -0.006672 0.999978 -6.12309928458886E-17
vn -0.006672 0.999978 -6.12309928458886E-17
vn -0.006672 0.999978 -6.12309928458886E-17
vn -0.006672 0.999978 -6.12309928458886E-17
vn -0.999978 -0.006676 4.087871015553865E-19
vn -0.999978 -0.006676 4.087871015553865E-19
vn 0.999978 0.006667 -4.082360104957702E-19
vn 0.999978 0.006667 -4.082360104957702E-19
vn -0.999978 -0.006676 4.087871015553865E-19
vn -0.999978 -0.006676 4.087871015553865E-19
vn 0.999978 0.006667 -4.082360104957702E-19
vn 0.999978 0.006667 -4.082360104957702E-19
vn 0 6.123233995736766E-17 1
vn 0 6.123233995736766E-17 1
vn 0 6.123233995736766E-17 1
vn 0 6.123233995736766E-17 1
vn -0.999955 -0.009471 5.799314917362292E-19
vn -0.999955 -0.009471 5.799314917362292E-19
vn -0.009471 0.999955 -6.122958450206958E-17
vn 0.999955 0.009471 -5.799314917362292E-19
vn 0 6.123233995736766E-17 1
vn 0 6.123233995736766E-17 1
vn -0.006278 0.99998 -6.12311153105685E-17
vn -0.006278 0.99998 -6.12311153105685E-17
vn 0.999979 0.00647 -3.9617323952416876E-19
vn 0 6.123233995736766E-17 1
vn 0.005601 -0.999984 -0.0006519999999999388
vn 1E-06 -9.999999999387675E-07 1
vn 0.856944 -0.03711599999999997 0.514072
vn -0.733393 -0.622535 0.27310200000000007
vn -0.310429 0.788778 0.530531
vn -0.085562 -0.25300899999999993 0.963673
vn -0.914634 0.370187 0.16249999999999998
vn -0.771219 -0.635828 0.03073000000000004
vn 0.723588 0.647845 0.23815599999999998
vn 0.259609 -0.963952 0.05830800000000006
vn 0.256476 -0.884363 0.39002800000000004
vn 0 6.123233995736766E-17 1
vn -0 -9.999999999387675E-07 1
vn 0.914127 0.405428 -2.4825305124235657E-17
vn 0.914127 0.405428 -2.4825305124235657E-17
vn 0.405604 -0.914049 5.596935910569195E-17
vn -0 -9.999999999387675E-07 1
vn -0.914401 -0.404809 -0.0006519999999999752
vn -0 -9.999999999387675E-07 1
vn 0 6.123233995736766E-17 1
vn 0 6.123233995736766E-17 1
vn 0 6.123233995736766E-17 1
vn 0 6.123233995736766E-17 1
vn -0.999338 0.036391 -2.2283060833885666E-18
vn -0.999338 0.036391 -2.2283060833885666E-18
vn -0.999338 0.036391 -2.2283060833885666E-18
vn -0.999338 0.036391 -2.2283060833885666E-18
vn -0.036387 -0.999338 6.119180414831589E-17
vn -0.036387 -0.999338 6.119180414831589E-17
vn 0.036395 0.999337 -6.119174291597593E-17
vn 0.036395 0.999337 -6.119174291597593E-17
vn -0.036387 -0.999338 6.119180414831589E-17
vn -0.036387 -0.999338 6.119180414831589E-17
vn 0.036395 0.999337 -6.119174291597593E-17
vn 0.036395 0.999337 -6.119174291597593E-17
vn 0 6.123233995736766E-17 1
vn 0 6.123233995736766E-17 1
vn 0 6.123233995736766E-17 1
vn 0 6.123233995736766E-17 1
vn -0.986881 -0.161449 9.885900053777052E-18
vn -0.986881 -0.161449 9.885900053777052E-18
vn -0.150693 0.988581 -6.053312786739449E-17
vn 0.987464 0.157842 -9.665035003550827E-18
vn -0.083659 -0.996495 6.101772060581709E-17
vn -0.083659 -0.996495 6.101772060581709E-17
vn -0.083659 -0.996495 6.101772060581709E-17
vn -0.083659 -0.996495 6.101772060581709E-17
vn -0.015543 0.999879 -6.122493084423281E-17
vn -0.015543 0.999879 -6.122493084423281E-17
vn 0.999876 0.015735 -9.6349086922918E-19
vn 0.999876 0.015735 -9.6349086922918E-19
vn 0.999876 0.015735 -9.6349086922918E-19
vn 0.015205 -0.999884 -0.0003259999999999388
vn 0.015544 -0.999879 6.122493084423281E-17
vn 0.015205 -0.999884 -0.0003259999999999388
vn -0.999896 -0.014361 0.0013510000000000009
vn -0.999872 -0.015742 0.0027010000000000007
vn -0.999896 -0.014361 0.0013510000000000009
vn -0.999916 -0.012979 7.947345403066748E-19
vn -0.999974 -0.007171 4.390971098342835E-19
vn -0.999974 -0.007171 4.390971098342835E-19
vn -0.004831 0.999988 -6.123160516928818E-17
vn -0.004831 0.999988 -6.123160516928818E-17
vn -0.004831 0.999988 -6.123160516928818E-17
vn 0.999986 0.005225 -3.19938976277246E-19
vn 0.999986 0.005225 -3.19938976277246E-19
vn 0.999986 0.005225 -3.19938976277246E-19
vn 0.006331 -0.99998 6.12311153105685E-17
vn 0.006331 -0.99998 6.12311153105685E-17
vn 0.006331 -0.99998 6.12311153105685E-17
vn 0.006331 -0.99998 6.12311153105685E-17
vn -0.998766 0.049662 -3.0409204669627928E-18
vn -0.998766 0.049662 -3.0409204669627928E-18
vn 0.049663 0.998766 -6.115677924986028E-17
vn 0.049663 0.998766 -6.115677924986028E-17
vn 0.049663 0.998766 -6.115677924986028E-17
vn 0.998766 -0.049662 3.0409204669627928E-18
vn 0.998766 -0.049662 3.0409204669627928E-18
vn 0.998766 -0.049662 3.0409204669627928E-18
vn -0.049663 -0.998766 6.115677924986028E-17
vn -0.049663 -0.998766 6.115677924986028E-17
vn -0.049663 -0.998766 6.115677924986028E-17
vn -0.049663 -0.998766 6.115677924986028E-17
vn 0.98055 0.196232 0.003919999999999988
vn 0.980481 0.196581 0.003617999999999988
vn 0.116667 -0.993168 -0.002429999999999939
vn 0.116673 -0.993167 -0.0024569999999999393
vn 0.000237 0.0005730000000000613 1
vn 0.000239 0.0006130000000000613 1
vn 0.000237 0.0005730000000000613 1
vn 0.000235 0.0005330000000000613 1
vn -0.995115 -0.097795 -0.013489999999999995
vn -0.995265 -0.096415 -0.012319999999999994
vn -0.995115 -0.097795 -0.013489999999999995
vn -0.994962 -0.099175 -0.014658999999999993
vn -0.19461 -0.98065 -0.021245999999999942
vn -0.195033 -0.980579 -0.02066199999999994
vn -0.986736 0.160228 0.02606399999999999
vn -0.98675 0.160192 0.02576399999999999
vn -0.001992 -0.002555999999999939 0.999995
vn -0.002486 -0.002384999999999939 0.999994
vn -0.001992 -0.002555999999999939 0.999995
vn -0.001498 -0.0027269999999999387 0.999995
vn 0.175803 0.984406 0.00620099999999994
vn 0.175553 0.984452 0.0058709999999999405
vn 0.175803 0.984406 0.00620099999999994
vn 0.176052 0.984359 0.0065309999999999405
vn -0.238371 -0.971032 -0.01663799999999994
vn -0.239104 -0.970863 -0.01595999999999994
vn -0.984552 0.172018 0.03266199999999998
vn -0.984499 0.172214 0.03323799999999998
vn -0.001761 -0.0028319999999999387 0.999994
vn -0.001704 -0.0028609999999999387 0.999994
vn -0.001761 -0.0028319999999999387 0.999994
vn -0.001818 -0.0028019999999999387 0.999995
vn 0.197581 0.980219 0.011504999999999939
vn 0.197312 0.980276 0.01127299999999994
vn 0.197581 0.980219 0.011504999999999939
vn 0.197849 0.980162 0.01173599999999994
vn 0.917222 -0.39828 0.008740000000000024
vn 0.972308 0.233663 0.004421999999999986
vn 0 6.123233995736766E-17 1
vn 0 6.123233995736766E-17 1
vn 0 6.123233995736766E-17 1
vn 0 6.123233995736766E-17 1
vn -0.956227 -0.292622 -0.001376999999999982
vn -0.939031 0.343823 -0.002499000000000021
vn -0.024697 -0.942333 0.33376600000000006
vn 0 6.123233995736766E-17 1
vn 0.711375 0.21837900000000002 0.668024
vn 0.02641 0.999648 -0.0025430000000000613
vn 0.917222 -0.39828 0.008740000000000024
vn 0.972308 0.233663 0.004421999999999986
vn 0 6.123233995736766E-17 1
vn 0 6.123233995736766E-17 1
vn 0 6.123233995736766E-17 1
vn 0 6.123233995736766E-17 1
vn -0.192961 -0.981207 6.008160059254885E-17
vn -0.192961 -0.981207 6.008160059254885E-17
vn -0.192961 -0.981207 6.008160059254885E-17
vn -0.192961 -0.981207 6.008160059254885E-17
vn -0.999974 -0.007171 4.390971098342835E-19
vn -0.999974 -0.007171 4.390971098342835E-19
vn -0.004831 0.999988 -6.123160516928818E-17
vn -0.004831 0.999988 -6.123160516928818E-17
vn -0.004831 0.999988 -6.123160516928818E-17
vn 0.999986 0.005225 -3.19938976277246E-19
vn 0.999986 0.005225 -3.19938976277246E-19
vn 0.999986 0.005225 -3.19938976277246E-19
vn 0.006331 -0.99998 6.12311153105685E-17
vn 0.006331 -0.99998 6.12311153105685E-17
vn 0.006331 -0.99998 6.12311153105685E-17
vn 0.006331 -0.99998 6.12311153105685E-17
vn 0.996599 0.075629 -0.03273100000000001
vn 0.996213 0.078873 -0.036584000000000005
vn -0.994292 -0.089582 0.057955000000000007
vn -0.994024 -0.091242 0.05992800000000001
vn -0.0885 0.996019 0.010666999999999939
vn -0.087554 0.99612 0.008848999999999939
vn -0.0885 0.996019 0.010666999999999939
vn -0.089445 0.995914 0.012484999999999939
vn 0.091175 -0.995767 -0.01159099999999994
vn 0.088975 -0.996006 -0.007389999999999939
vn 0.091175 -0.995767 -0.01159099999999994
vn 0.093374 -0.995506 -0.015790999999999937
vn 0.99309 -0.025061999999999994 0.114647
vn 0.993601 -0.02179499999999999 0.110827
vn -0.995921 0.010947999999999994 -0.089566
vn -0.996113 0.009267999999999995 -0.087601
vn 0.010495 0.999869 0.012345999999999939
vn 0.011704 0.999874 0.01068699999999994
vn 0.010495 0.999869 0.012345999999999939
vn 0.009287 0.999859 0.01400399999999994
vn -0.007701 -0.999888 -0.01286399999999994
vn -0.010509 -0.999904 -0.009034999999999939
vn -0.007701 -0.999888 -0.01286399999999994
vn -0.004893 -0.999849 -0.016691999999999936
vn 0.006669 -0.999978 6.12309928458886E-17
vn 0.006669 -0.999978 6.12309928458886E-17
vn 0.006669 -0.999978 6.12309928458886E-17
vn 0.006669 -0.999978 6.12309928458886E-17
vn -0.999955 -0.009471 5.799314917362292E-19
vn -0.999955 -0.009471 5.799314917362292E-19
vn -0.009471 0.999955 -6.122958450206958E-17
vn -0.009471 0.999955 -6.122958450206958E-17
vn -0.009471 0.999955 -6.122958450206958E-17
vn 0.999955 0.009471 -5.799314917362292E-19
vn 0.999955 0.009471 -5.799314917362292E-19
vn 0.999955 0.009471 -5.799314917362292E-19
vn 0.009471 -0.999955 -9.999999999387703E-07
vn 0.009471 -0.999955 -9.999999999387703E-07
vn 0.009471 -0.999955 -9.999999999387703E-07
vn 0.009471 -0.999955 -9.999999999387703E-07
vn -0.006278 0.99998 -6.12311153105685E-17
vn -0.006278 0.99998 -6.12311153105685E-17
vn 0.999979 0.00647 -3.9617323952416876E-19
vn 0.999979 0.00647 -3.9617323952416876E-19
vn 0.999979 0.00647 -3.9617323952416876E-19
vn 0.00594 -0.999982 -0.00032599999999993875
vn 0.006279 -0.99998 6.12311153105685E-17
vn 0.00594 -0.999982 -0.00032599999999993875
vn -0.999986 -0.005096 0.0013510000000000002
vn -0.999975 -0.006477 0.0027010000000000003
vn -0.999986 -0.005096 0.0013510000000000002
vn -0.999993 -0.003714 2.2741691060166348E-19
vn -0.733393 -0.622535 0.27310200000000007
vn -0.771219 -0.635828 0.03073000000000004
vn 0.914127 0.405428 -2.4825305124235657E-17
vn 0.914127 0.405428 -2.4825305124235657E-17
vn 0.405604 -0.914049 5.596935910569195E-17
vn 0.405604 -0.914049 5.596935910569195E-17
vn 0.405604 -0.914049 5.596935910569195E-17
vn -0.914264 -0.405119 -0.0003259999999999752
vn -0.914126 -0.405429 2.482536635657561E-17
vn -0.914264 -0.405119 -0.0003259999999999752
vn -0.404347 0.914605 0.001350999999999944
vn -0.405609 0.914043 0.002701999999999944
vn -0.404347 0.914605 0.001350999999999944
vn -0.403083 0.915163 -5.603757193240446E-17
vn 0.999338 -0.036393 2.228428548068481E-18
vn 0.999338 -0.036393 2.228428548068481E-18
vn 0.999338 -0.036393 2.228428548068481E-18
vn 0.999338 -0.036393 2.228428548068481E-18
vn -0.986881 -0.161449 9.885900053777052E-18
vn -0.986881 -0.161449 9.885900053777052E-18
vn -0.150693 0.988581 -6.053312786739449E-17
vn -0.150693 0.988581 -6.053312786739449E-17
vn -0.150693 0.988581 -6.053312786739449E-17
vn 0.987464 0.157842 -9.665035003550827E-18
vn 0.987464 0.157842 -9.665035003550827E-18
vn 0.987464 0.157842 -9.665035003550827E-18
vn 0.151483 -0.98846 6.052571875425964E-17
vn 0.151483 -0.98846 6.052571875425964E-17
vn 0.151483 -0.98846 6.052571875425964E-17
vn 0.151483 -0.98846 6.052571875425964E-17
vn -0.917196 0.398352 -0.008178000000000024
vn -0.972388 -0.23335 -0.0032049999999999856
vn -0.917196 0.398352 -0.008178000000000024
vn 0.396944 0.917835 -0.0037670000000000563
vn -0.23119 0.972875 -0.008156000000000059
vn 0.396944 0.917835 -0.0037670000000000563
vn 0.231098 -0.972881 0.009849000000000059
vn 0.231098 -0.972881 0.009849000000000059
vn -0.397278 -0.917678 0.006133000000000057
vn 0.02641 0.999648 -0.0025430000000000613
vn 0.026623 0.999643 -0.002129000000000061
vn 0.026623 0.999643 -0.002129000000000061
vn 0.711375 0.21837900000000002 0.668024
vn 0.939501 -0.34254 0.002310000000000021
vn 0.939501 -0.34254 0.002310000000000021
vn -0.024697 -0.942333 0.33376600000000006
vn -0.024697 -0.942333 0.33376600000000006
vn -0.026048 -0.99966 0.0014230000000000612
vn -0.917196 0.398352 -0.008178000000000024
vn -0.972388 -0.23335 -0.0032049999999999856
vn -0.917196 0.398352 -0.008178000000000024
vn 0.396944 0.917835 -0.0037670000000000563
vn -0.23119 0.972875 -0.008156000000000059
vn 0.396944 0.917835 -0.0037670000000000563
vn 0.231098 -0.972881 0.009849000000000059
vn 0.231098 -0.972881 0.009849000000000059
vn -0.397278 -0.917678 0.006133000000000057
vn -0.085562 -0.25300899999999993 0.963673
vn 0.856944 -0.03711599999999997 0.514072
vn 0.723588 0.647845 0.23815599999999998
vn 0.856944 -0.03711599999999997 0.514072
vn -0.085562 -0.25300899999999993 0.963673
vn -0.914634 0.370187 0.16249999999999998
vn -0.310429 0.788778 0.530531
vn -0.914634 0.370187 0.16249999999999998
g 01
f 406/406/406 409/409/409 408/408/408
f 408/408/408 407/407/407 406/406/406
f 403/403/403 217/217/217 405/405/405
f 405/405/405 404/404/404 403/403/403
f 400/400/400 216/216/216 402/402/402
f 402/402/402 401/401/401 400/400/400
f 398/398/398 215/215/215 214/214/214
f 214/214/214 399/399/399 398/398/398
f 212/212/212 211/211/211 210/210/210
f 210/210/210 213/213/213 212/212/212
f 394/394/394 397/397/397 396/396/396
f 396/396/396 395/395/395 394/394/394
f 208/208/208 204/204/204 205/205/205
f 205/205/205 209/209/209 208/208/208
f 207/207/207 203/203/203 202/202/202
f 202/202/202 206/206/206 207/207/207
f 201/201/201 199/199/199 198/198/198
f 198/198/198 200/200/200 201/201/201
f 197/197/197 195/195/195 194/194/194
f 194/194/194 196/196/196 197/197/197
f 390/390/390 393/393/393 392/392/392
f 392/392/392 391/391/391 390/390/390
f 387/387/387 192/192/192 389/389/389
f 389/389/389 388/388/388 387/387/387
f 384/384/384 190/190/190 386/386/386
f 386/386/386 385/385/385 384/384/384
f 382/382/382 188/188/188 189/189/189
f 189/189/189 383/383/383 382/382/382
f 187/187/187 186/186/186 191/191/191
f 191/191/191 193/193/193 187/187/187
f 184/184/184 185/185/185 380/380/380
f 380/380/380 381/381/381 184/184/184
f 180/180/180 380/380/380 185/185/185
f 444/444/444 182/182/182 178/178/178
f 178/178/178 443/443/443 442/442/442
f 179/179/179 441/441/441 440/440/440
f 177/177/177 185/185/185 184/184/184
f 184/184/184 439/439/439 177/177/177
f 183/183/183 181/181/181 179/179/179
f 179/179/179 438/438/438 183/183/183
f 178/178/178 437/437/437 179/179/179
f 180/180/180 185/185/185 177/177/177
f 376/376/376 379/379/379 378/378/378
f 378/378/378 377/377/377 376/376/376
f 373/373/373 175/175/175 375/375/375
f 375/375/375 374/374/374 373/373/373
f 370/370/370 173/173/173 372/372/372
f 372/372/372 371/371/371 370/370/370
f 368/368/368 171/171/171 172/172/172
f 172/172/172 369/369/369 368/368/368
f 170/170/170 169/169/169 174/174/174
f 174/174/174 176/176/176 170/170/170
f 364/364/364 367/367/367 366/366/366
f 366/366/366 365/365/365 364/364/364
f 361/361/361 168/168/168 363/363/363
f 363/363/363 362/362/362 361/361/361
f 358/358/358 167/167/167 360/360/360
f 360/360/360 359/359/359 358/358/358
f 356/356/356 166/166/166 165/165/165
f 165/165/165 357/357/357 356/356/356
f 161/161/161 164/164/164 163/163/163
f 163/163/163 162/162/162 161/161/161
f 352/352/352 355/355/355 354/354/354
f 354/354/354 353/353/353 352/352/352
f 159/159/159 155/155/155 156/156/156
f 156/156/156 160/160/160 159/159/159
f 158/158/158 154/154/154 153/153/153
f 153/153/153 157/157/157 158/158/158
f 152/152/152 150/150/150 149/149/149
f 149/149/149 151/151/151 152/152/152
f 148/148/148 146/146/146 145/145/145
f 145/145/145 147/147/147 148/148/148
f 348/348/348 351/351/351 350/350/350
f 350/350/350 349/349/349 348/348/348
f 344/344/344 347/347/347 346/346/346
f 346/346/346 345/345/345 344/344/344
f 143/143/143 343/343/343 342/342/342
f 342/342/342 144/144/144 143/143/143
f 142/142/142 141/141/141 341/341/341
f 341/341/341 340/340/340 142/142/142
f 139/139/139 138/138/138 137/137/137
f 137/137/137 140/140/140 139/139/139
f 336/336/336 339/339/339 338/338/338
f 338/338/338 337/337/337 336/336/336
f 332/332/332 335/335/335 334/334/334
f 334/334/334 333/333/333 332/332/332
f 135/135/135 331/331/331 330/330/330
f 330/330/330 136/136/136 135/135/135
f 134/134/134 133/133/133 329/329/329
f 329/329/329 328/328/328 134/134/134
f 131/131/131 130/130/130 129/129/129
f 129/129/129 132/132/132 131/131/131
f 324/324/324 327/327/327 326/326/326
f 326/326/326 325/325/325 324/324/324
f 321/321/321 128/128/128 323/323/323
f 323/323/323 322/322/322 321/321/321
f 318/318/318 127/127/127 320/320/320
f 320/320/320 319/319/319 318/318/318
f 316/316/316 126/126/126 125/125/125
f 125/125/125 317/317/317 316/316/316
f 123/123/123 122/122/122 121/121/121
f 121/121/121 124/124/124 123/123/123
f 312/312/312 315/315/315 314/314/314
f 314/314/314 313/313/313 312/312/312
f 119/119/119 115/115/115 116/116/116
f 116/116/116 120/120/120 119/119/119
f 118/118/118 114/114/114 113/113/113
f 113/113/113 117/117/117 118/118/118
f 112/112/112 110/110/110 109/109/109
f 109/109/109 111/111/111 112/112/112
f 108/108/108 106/106/106 105/105/105
f 105/105/105 107/107/107 108/108/108
f 308/308/308 311/311/311 310/310/310
f 310/310/310 309/309/309 308/308/308
f 306/306/306 436/436/436 435/435/435
f 434/434/434 307/307/307 306/306/306
f 433/433/433 104/104/104 100/100/100
f 100/100/100 432/432/432 431/431/431
f 430/430/430 103/103/103 99/99/99
f 99/99/99 429/429/429 428/428/428
f 101/101/101 102/102/102 98/98/98
f 98/98/98 97/97/97 101/101/101
f 304/304/304 305/305/305 303/303/303
f 304/304/304 303/303/303 302/302/302
f 300/300/300 427/427/427 426/426/426
f 425/425/425 301/301/301 300/300/300
f 95/95/95 91/91/91 424/424/424
f 423/423/423 422/422/422 95/95/95
f 94/94/94 90/90/90 421/421/421
f 420/420/420 419/419/419 94/94/94
f 89/89/89 92/92/92 96/96/96
f 96/96/96 93/93/93 89/89/89
f 296/296/296 299/299/299 298/298/298
f 298/298/298 297/297/297 296/296/296
f 294/294/294 418/418/418 417/417/417
f 416/416/416 295/295/295 294/294/294
f 415/415/415 88/88/88 84/84/84
f 84/84/84 414/414/414 413/413/413
f 412/412/412 87/87/87 83/83/83
f 83/83/83 411/411/411 410/410/410
f 85/85/85 86/86/86 82/82/82
f 82/82/82 81/81/81 85/85/85
f 79/79/79 80/80/80 77/77/77
f 77/77/77 78/78/78 79/79/79
f 75/75/75 74/74/74 73/73/73
f 73/73/73 76/76/76 75/75/75
f 71/71/71 72/72/72 69/69/69
f 69/69/69 70/70/70 71/71/71
f 67/67/67 66/66/66 65/65/65
f 65/65/65 68/68/68 67/67/67
f 290/290/290 293/293/293 292/292/292
f 292/292/292 291/291/291 290/290/290
f 286/286/286 289/289/289 288/288/288
f 288/288/288 287/287/287 286/286/286
f 284/284/284 64/64/64 63/63/63
f 63/63/63 285/285/285 284/284/284
f 282/282/282 62/62/62 61/61/61
f 61/61/61 283/283/283 282/282/282
f 59/59/59 58/58/58 57/57/57
f 57/57/57 60/60/60 59/59/59
f 278/278/278 281/281/281 280/280/280
f 280/280/280 279/279/279 278/278/278
f 274/274/274 277/277/277 276/276/276
f 276/276/276 275/275/275 274/274/274
f 272/272/272 56/56/56 55/55/55
f 55/55/55 273/273/273 272/272/272
f 270/270/270 54/54/54 53/53/53
f 53/53/53 271/271/271 270/270/270
f 51/51/51 50/50/50 49/49/49
f 49/49/49 52/52/52 51/51/51
f 266/266/266 269/269/269 268/268/268
f 268/268/268 267/267/267 266/266/266
f 262/262/262 265/265/265 264/264/264
f 264/264/264 263/263/263 262/262/262
f 260/260/260 48/48/48 47/47/47
f 47/47/47 261/261/261 260/260/260
f 258/258/258 46/46/46 45/45/45
f 45/45/45 259/259/259 258/258/258
f 43/43/43 42/42/42 41/41/41
f 41/41/41 44/44/44 43/43/43
f 254/254/254 257/257/257 256/256/256
f 256/256/256 255/255/255 254/254/254
f 251/251/251 40/40/40 253/253/253
f 253/253/253 252/252/252 251/251/251
f 248/248/248 39/39/39 250/250/250
f 250/250/250 249/249/249 248/248/248
f 246/246/246 38/38/38 37/37/37
f 37/37/37 247/247/247 246/246/246
f 33/33/33 36/36/36 35/35/35
f 35/35/35 34/34/34 33/33/33
f 242/242/242 245/245/245 244/244/244
f 244/244/244 243/243/243 242/242/242
f 239/239/239 32/32/32 241/241/241
f 241/241/241 240/240/240 239/239/239
f 236/236/236 31/31/31 238/238/238
f 238/238/238 237/237/237 236/236/236
f 234/234/234 30/30/30 29/29/29
f 29/29/29 235/235/235 234/234/234
f 27/27/27 26/26/26 25/25/25
f 25/25/25 28/28/28 27/27/27
f 230/230/230 233/233/233 232/232/232
f 232/232/232 231/231/231 230/230/230
f 227/227/227 23/23/23 229/229/229
f 229/229/229 228/228/228 227/227/227
f 224/224/224 21/21/21 226/226/226
f 226/226/226 225/225/225 224/224/224
f 222/222/222 19/19/19 20/20/20
f 20/20/20 223/223/223 222/222/222
f 18/18/18 17/17/17 22/22/22
f 22/22/22 24/24/24 18/18/18
f 218/218/218 221/221/221 220/220/220
f 220/220/220 219/219/219 218/218/218
f 15/15/15 11/11/11 12/12/12
f 12/12/12 16/16/16 15/15/15
f 14/14/14 10/10/10 9/9/9
f 9/9/9 13/13/13 14/14/14
f 8/8/8 6/6/6 5/5/5
f 5/5/5 7/7/7 8/8/8
f 4/4/4 2/2/2 1/1/1
f 1/1/1 3/3/3 4/4/4
