v -0.354722 0.413322 0.21396899999999996
v -0.078269 0.358367 0.21389299999999997
v -0.155551 -0.07016299999999999 0.214281
v -0.434508 -0.019281999999999987 0.214224
v -0.358541 0.404286 -0.023104000000000024
v -0.081399 0.351076 -0.02311700000000002
v -0.161768 -0.083513 -0.023066999999999997
v -0.439834 -0.031825 -0.023071999999999995
v -0.101071 -0.350599 0.356684
v -0.275639 -0.36848 0.356684
v -0.118952 -0.17603199999999997 0.356684
v -0.29352 -0.19391199999999997 0.356684
v -0.275639 -0.36848 0.18120400000000003
v -0.29352 -0.193912 0.181204
v -0.275639 -0.36848 0.356684
v -0.29352 -0.19391199999999997 0.356684
v -0.101071 -0.350599 0.18120400000000003
v -0.275639 -0.36848 0.18120400000000003
v -0.118952 -0.176032 0.181204
v -0.29352 -0.193912 0.181204
v -0.101071 -0.350599 0.356684
v -0.275639 -0.36848 0.356684
v -0.118952 -0.17603199999999997 0.356684
v -0.29352 -0.19391199999999997 0.356684
v -0.422915 -0.10305099999999999 0.175103
v 0.06324 -0.22682 0.17510300000000004
v 0.002063 -0.464787 0.17510300000000004
v -0.483493 -0.340165 0.17510300000000004
v -0.422915 -0.103051 -0.0010399999999999936
v 0.06324 -0.22682 -0.001039999999999986
v 0.002063 -0.464787 -0.0010399999999999715
v -0.483493 -0.340165 -0.001039999999999979
v 0.096071 0.029709 -1.8191515877934357E-18
v 0.002028 0.141729 -8.678398309817761E-18
v 0.114057 0.23568 -1.443123788115241E-17
v 0.20811 0.123664 -7.572236088487914E-18
v 0.094543 0.03247500000000002 0.291623
v 0.000325 0.14420600000000003 0.291623
v 0.11214 0.23750200000000002 0.291623
v 0.206458 0.12582300000000002 0.291623
v 0.336806 0.166605 -0.0021540000000000105
v 0.419345 0.080303 -0.002154000000000005
v 0.332762 -0.0013460000000000002 -0.002154
v 0.250095 0.085176 -0.0021540000000000053
v 0.336432 0.16715 0.208046
v 0.418979 0.08073500000000002 0.208046
v 0.332289 -0.0010339999999999872 0.208046
v 0.249736 0.08549400000000001 0.208046
v 0.321047 0.235397 -1.4413909128944474E-17
v 0.227004 0.347418 -2.1273217083308757E-17
v 0.339032 0.441369 -2.7026056654643406E-17
v 0.433086 0.329353 -2.016705486197891E-17
v 0.319519 0.23816400000000001 0.291623
v 0.2253 0.349895 0.291623
v 0.337116 0.443191 0.291623
v 0.431434 0.331512 0.291623
v -0.078269 0.358367 0.21389299999999997
v -0.354722 0.413322 0.21396899999999996
v -0.434508 -0.019281999999999987 0.214224
v -0.155551 -0.07016299999999999 0.214281
v -0.439834 -0.031825 -0.023071999999999995
v -0.358541 0.404286 -0.023104000000000024
v -0.354722 0.413322 0.21396899999999996
v -0.434508 -0.019281999999999987 0.214224
v -0.078269 0.358367 0.21389299999999997
v -0.081399 0.351076 -0.02311700000000002
v -0.161768 -0.083513 -0.023066999999999997
v -0.155551 -0.07016299999999999 0.214281
v -0.101071 -0.350599 0.356684
v -0.118952 -0.17603199999999997 0.356684
v -0.118952 -0.176032 0.181204
v -0.101071 -0.350599 0.18120400000000003
v 0.06324 -0.22682 0.17510300000000004
v -0.422915 -0.10305099999999999 0.175103
v 0.002063 -0.464787 0.17510300000000004
v 0.06324 -0.22682 0.17510300000000004
v 0.06324 -0.22682 -0.001039999999999986
v -0.483493 -0.340165 0.17510300000000004
v 0.002063 -0.464787 0.17510300000000004
v 0.002063 -0.464787 -0.0010399999999999715
v -0.422915 -0.10305099999999999 0.175103
v -0.483493 -0.340165 0.17510300000000004
v -0.483493 -0.340165 -0.001039999999999979
v -0.422915 -0.103051 -0.0010399999999999936
v 0.206458 0.12582300000000002 0.291623
v 0.20811 0.123664 -7.572236088487914E-18
v 0.000325 0.14420600000000003 0.291623
v 0.11214 0.23750200000000002 0.291623
v 0.206458 0.12582300000000002 0.291623
v 0.094543 0.03247500000000002 0.291623
v 0.250095 0.085176 -0.0021540000000000053
v 0.249736 0.08549400000000001 0.208046
v 0.332289 -0.0010339999999999872 0.208046
v 0.249736 0.08549400000000001 0.208046
v 0.418979 0.08073500000000002 0.208046
v 0.336432 0.16715 0.208046
v 0.431434 0.331512 0.291623
v 0.433086 0.329353 -2.016705486197891E-17
v 0.2253 0.349895 0.291623
v 0.337116 0.443191 0.291623
v 0.431434 0.331512 0.291623
v 0.319519 0.23816400000000001 0.291623
v 0.000325 0.14420600000000003 0.291623
v 0.002028 0.141729 -8.678398309817761E-18
v 0.000325 0.14420600000000003 0.291623
v 0.11214 0.23750200000000002 0.291623
v 0.114057 0.23568 -1.443123788115241E-17
v 0.11214 0.23750200000000002 0.291623
v 0.096071 0.029709 -1.8191515877934357E-18
v 0.096071 0.029709 -1.8191515877934357E-18
v 0.094543 0.03247500000000002 0.291623
v 0.336432 0.16715 0.208046
v 0.336806 0.166605 -0.0021540000000000105
v 0.336806 0.166605 -0.0021540000000000105
v 0.418979 0.08073500000000002 0.208046
v 0.419345 0.080303 -0.002154000000000005
v 0.419345 0.080303 -0.002154000000000005
v 0.332289 -0.0010339999999999872 0.208046
v 0.332289 -0.0010339999999999872 0.208046
v 0.332762 -0.0013460000000000002 -0.002154
v 0.2253 0.349895 0.291623
v 0.227004 0.347418 -2.1273217083308757E-17
v 0.2253 0.349895 0.291623
v 0.337116 0.443191 0.291623
v 0.339032 0.441369 -2.7026056654643406E-17
v 0.337116 0.443191 0.291623
v 0.321047 0.235397 -1.4413909128944474E-17
v 0.321047 0.235397 -1.4413909128944474E-17
v 0.319519 0.23816400000000001 0.291623
vt 0.854889 0.261503
vt 0.854878 0.234551
vt 0.817339 0.234530
vt 0.817350 0.261524
vt 0.789389 0.229092
vt 0.816727 0.229076
vt 0.719593 0.229131
vt 0.747833 0.229116
vt 0.006440 0.059383
vt 0.006440 0.111242
vt 0.049960 0.059383
vt 0.049961 0.111242
vt 0.099393 0.112509
vt 0.099393 0.059108
vt 0.054788 0.112509
vt 0.054788 0.059108
vt 0.054788 0.059108
vt 0.054788 0.112509
vt 0.054788 0.059108
vt 0.099393 0.059108
vt 0.099393 0.059108
vt 0.099393 0.112509
vt 0.054788 0.112509
vt 0.099393 0.112509
vt 0.774114 0.006345
vt 0.682336 0.006345
vt 0.682336 0.045058
vt 0.774114 0.045058
vt 0.432119 0.006345
vt 0.312378 0.006345
vt 0.623466 0.006345
vt 0.498930 0.006345
vt 0.452552 0.219309
vt 0.485521 0.219309
vt 0.518284 0.219309
vt 0.548997 0.219309
vt 0.452552 0.166611
vt 0.485521 0.166611
vt 0.518284 0.166611
vt 0.548997 0.166611
vt 0.020784 0.032533
vt 0.034702 0.032533
vt 0.049997 0.032533
vt 0.006397 0.032533
vt 0.020784 0.008445
vt 0.034702 0.008445
vt 0.049997 0.008445
vt 0.006397 0.008445
vt 0.452552 0.219309
vt 0.485521 0.219309
vt 0.518284 0.219309
vt 0.548997 0.219309
vt 0.452552 0.166611
vt 0.485521 0.166611
vt 0.518284 0.166611
vt 0.548997 0.166611
vt 0.816716 0.205701
vt 0.789378 0.205719
vt 0.747822 0.205743
vt 0.719542 0.205756
vt 0.747833 0.229116
vt 0.789389 0.229092
vt 0.789378 0.205719
vt 0.747822 0.205743
vt 0.816716 0.205701
vt 0.816727 0.229076
vt 0.859185 0.229052
vt 0.859174 0.205677
vt 0.099393 0.112509
vt 0.099393 0.059108
vt 0.054788 0.059108
vt 0.054788 0.112509
vt 0.312378 0.045058
vt 0.432118 0.045058
vt 0.623466 0.045058
vt 0.678375 0.045058
vt 0.678375 0.006345
vt 0.498930 0.045058
vt 0.618142 0.045058
vt 0.618142 0.006345
vt 0.435329 0.045058
vt 0.495251 0.045058
vt 0.495251 0.006345
vt 0.435329 0.006345
vt 0.421574 0.166611
vt 0.421574 0.219309
vt 0.490757 0.235212
vt 0.467522 0.225247
vt 0.457896 0.249305
vt 0.481134 0.259271
vt 0.064000 0.032533
vt 0.064000 0.008445
vt 0.016160 0.037136
vt 0.005778 0.041555
vt 0.020454 0.047797
vt 0.010083 0.052205
vt 0.421574 0.166611
vt 0.421574 0.219309
vt 0.490757 0.235212
vt 0.467522 0.225247
vt 0.457896 0.249305
vt 0.481134 0.259271
vt 0.485521 0.166611
vt 0.485521 0.219309
vt 0.485521 0.166611
vt 0.518284 0.166611
vt 0.518284 0.219309
vt 0.518284 0.166611
vt 0.452552 0.219309
vt 0.452552 0.219309
vt 0.452552 0.166611
vt 0.020784 0.008445
vt 0.020784 0.032533
vt 0.020784 0.032533
vt 0.034702 0.008445
vt 0.034702 0.032533
vt 0.034702 0.032533
vt 0.049997 0.008445
vt 0.049997 0.008445
vt 0.049997 0.032533
vt 0.485521 0.166611
vt 0.485521 0.219309
vt 0.485521 0.166611
vt 0.518284 0.166611
vt 0.518284 0.219309
vt 0.518284 0.166611
vt 0.452552 0.219309
vt 0.452552 0.219309
vt 0.452552 0.166611
vn 0.000172 0.0007160000000000612 1
vn 0.00044 0.0008260000000000613 1
vn 0.000172 0.0007160000000000612 1
vn -9.5E-05 0.0006060000000000612 1
vn 0.188396 0.98126 -0.04043600000000006
vn 0.191629 0.980785 -0.03658400000000006
vn -0.180798 -0.981811 0.05795500000000006
vn -0.182469 -0.981617 0.05598200000000006
vn 0 6.123233995736766E-17 1
vn 0 6.123233995736766E-17 1
vn 0 6.123233995736766E-17 1
vn 0 6.123233995736766E-17 1
vn -0.994795 -0.101897 6.239391744635893E-18
vn -0.994795 -0.101897 6.239391744635893E-18
vn -0.994795 -0.101897 6.239391744635893E-18
vn -0.994795 -0.101897 6.239391744635893E-18
vn 0.101901 -0.994794 6.09135643955496E-17
vn 0.101901 -0.994794 6.09135643955496E-17
vn -0.101893 0.994795 -6.091362562788956E-17
vn -0.101893 0.994795 -6.091362562788956E-17
vn 0.101901 -0.994794 6.09135643955496E-17
vn 0.101901 -0.994794 6.09135643955496E-17
vn -0.101893 0.994795 -6.091362562788956E-17
vn -0.101893 0.994795 -6.091362562788956E-17
vn 0 6.123233995736766E-17 1
vn 0 6.123233995736766E-17 1
vn 0 6.123233995736766E-17 1
vn 0 6.123233995736766E-17 1
vn 0.246717 0.969088 -5.933952586460551E-17
vn 0.246717 0.969088 -5.933952586460551E-17
vn 0.968508 -0.248984 1.524587293194523E-17
vn -0.248602 -0.968606 5.931001187674606E-17
vn 0.231098 -0.972881 0.009849000000000059
vn -0.972388 -0.23335 -0.0032049999999999856
vn -0.23119 0.972874 -0.008156000000000059
vn 0.972308 0.233663 0.004421999999999986
vn -0.397278 -0.917678 0.006133000000000057
vn -0.917196 0.398352 -0.008178000000000024
vn 0.396944 0.917835 -0.0037670000000000563
vn 0.917222 -0.39828 0.008740000000000024
vn 0.026622 0.999643 -0.002129000000000061
vn 0.939501 -0.342539 0.002310000000000021
vn -0.026047 -0.99966 0.0014230000000000612
vn -0.956227 -0.292622 -0.001376999999999982
vn 0.02641 0.999648 -0.0025430000000000613
vn 0.711375 0.21837900000000002 0.668024
vn -0.024697 -0.942333 0.33376600000000006
vn -0.939031 0.343823 -0.002499000000000021
vn 0.231098 -0.972881 0.009849000000000059
vn -0.972388 -0.23335 -0.0032049999999999856
vn -0.23119 0.972875 -0.008156000000000059
vn 0.972308 0.233663 0.004421999999999986
vn -0.397278 -0.917678 0.006133000000000057
vn -0.917196 0.398352 -0.008178000000000024
vn 0.396944 0.917835 -0.0037670000000000563
vn 0.917222 -0.39828 0.008740000000000024
vn 0.194858 0.980285 -0.032731000000000066
vn 0.191629 0.980785 -0.03658400000000006
vn -0.180798 -0.981811 0.05795500000000006
vn -0.179126 -0.981999 0.059927000000000064
vn -0.983184 0.182304 0.010666999999999989
vn -0.983028 0.183242 0.008848999999999989
vn -0.983184 0.182304 0.010666999999999989
vn -0.983337 0.181365 0.01248499999999999
vn 0.983661 -0.179659 -0.01159099999999999
vn 0.9833 -0.181843 -0.007389999999999989
vn 0.983661 -0.179659 -0.01159099999999999
vn 0.983999 -0.177471 -0.015789999999999988
vn 0.994795 0.101895 -6.239269279955978E-18
vn 0.994795 0.101895 -6.239269279955978E-18
vn 0.994795 0.101895 -6.239269279955978E-18
vn 0.994795 0.101895 -6.239269279955978E-18
vn 0.246717 0.969088 -5.933952586460551E-17
vn 0.246717 0.969088 -5.933952586460551E-17
vn 0.968508 -0.248984 1.524587293194523E-17
vn 0.968508 -0.248984 1.524587293194523E-17
vn 0.968508 -0.248984 1.524587293194523E-17
vn -0.248602 -0.968606 5.931001187674606E-17
vn -0.248602 -0.968606 5.931001187674606E-17
vn -0.248602 -0.968606 5.931001187674606E-17
vn -0.96888 0.24753 -1.5156841109647216E-17
vn -0.96888 0.24753 -1.5156841109647216E-17
vn -0.96888 0.24753 -1.5156841109647216E-17
vn -0.96888 0.24753 -1.5156841109647216E-17
vn 0.917222 -0.39828 0.008740000000000024
vn 0.972308 0.233663 0.004421999999999986
vn 0 6.123233995736766E-17 1
vn 0 6.123233995736766E-17 1
vn 0 6.123233995736766E-17 1
vn 0 6.123233995736766E-17 1
vn -0.956227 -0.292622 -0.001376999999999982
vn -0.939031 0.343823 -0.002499000000000021
vn -0.024697 -0.942333 0.33376600000000006
vn 0 6.123233995736766E-17 1
vn 0.711375 0.21837900000000002 0.668024
vn 0.02641 0.999648 -0.0025430000000000613
vn 0.917222 -0.39828 0.008740000000000024
vn 0.972308 0.233663 0.004421999999999986
vn 0 6.123233995736766E-17 1
vn 0 6.123233995736766E-17 1
vn 0 6.123233995736766E-17 1
vn 0 6.123233995736766E-17 1
vn -0.917196 0.398352 -0.008178000000000024
vn -0.972388 -0.23335 -0.0032049999999999856
vn -0.917196 0.398352 -0.008178000000000024
vn 0.396944 0.917835 -0.0037670000000000563
vn -0.23119 0.972874 -0.008156000000000059
vn 0.396944 0.917835 -0.0037670000000000563
vn 0.231098 -0.972881 0.009849000000000059
vn 0.231098 -0.972881 0.009849000000000059
vn -0.397278 -0.917678 0.006133000000000057
vn 0.02641 0.999648 -0.0025430000000000613
vn 0.026622 0.999643 -0.002129000000000061
vn 0.026622 0.999643 -0.002129000000000061
vn 0.711375 0.21837900000000002 0.668024
vn 0.939501 -0.342539 0.002310000000000021
vn 0.939501 -0.342539 0.002310000000000021
vn -0.024697 -0.942333 0.33376600000000006
vn -0.024697 -0.942333 0.33376600000000006
vn -0.026047 -0.99966 0.0014230000000000612
vn -0.917196 0.398352 -0.008178000000000024
vn -0.972388 -0.23335 -0.0032049999999999856
vn -0.917196 0.398352 -0.008178000000000024
vn 0.396944 0.917835 -0.0037670000000000563
vn -0.23119 0.972875 -0.008156000000000059
vn 0.396944 0.917835 -0.0037670000000000563
vn 0.231098 -0.972881 0.009849000000000059
vn 0.231098 -0.972881 0.009849000000000059
vn -0.397278 -0.917678 0.006133000000000057
g 01
f 99/99/99 102/102/102 101/101/101
f 101/101/101 100/100/100 99/99/99
f 97/97/97 129/129/129 128/128/128
f 127/127/127 98/98/98 97/97/97
f 126/126/126 56/56/56 52/52/52
f 52/52/52 125/125/125 124/124/124
f 123/123/123 55/55/55 51/51/51
f 51/51/51 122/122/122 121/121/121
f 53/53/53 54/54/54 50/50/50
f 50/50/50 49/49/49 53/53/53
f 95/95/95 96/96/96 94/94/94
f 95/95/95 94/94/94 93/93/93
f 91/91/91 120/120/120 119/119/119
f 118/118/118 92/92/92 91/91/91
f 47/47/47 43/43/43 117/117/117
f 116/116/116 115/115/115 47/47/47
f 46/46/46 42/42/42 114/114/114
f 113/113/113 112/112/112 46/46/46
f 41/41/41 44/44/44 48/48/48
f 48/48/48 45/45/45 41/41/41
f 87/87/87 90/90/90 89/89/89
f 89/89/89 88/88/88 87/87/87
f 85/85/85 111/111/111 110/110/110
f 109/109/109 86/86/86 85/85/85
f 108/108/108 40/40/40 36/36/36
f 36/36/36 107/107/107 106/106/106
f 105/105/105 39/39/39 35/35/35
f 35/35/35 104/104/104 103/103/103
f 37/37/37 38/38/38 34/34/34
f 34/34/34 33/33/33 37/37/37
f 81/81/81 84/84/84 83/83/83
f 83/83/83 82/82/82 81/81/81
f 78/78/78 32/32/32 80/80/80
f 80/80/80 79/79/79 78/78/78
f 75/75/75 31/31/31 77/77/77
f 77/77/77 76/76/76 75/75/75
f 73/73/73 30/30/30 29/29/29
f 29/29/29 74/74/74 73/73/73
f 27/27/27 26/26/26 25/25/25
f 25/25/25 28/28/28 27/27/27
f 69/69/69 72/72/72 71/71/71
f 71/71/71 70/70/70 69/69/69
f 23/23/23 19/19/19 20/20/20
f 20/20/20 24/24/24 23/23/23
f 22/22/22 18/18/18 17/17/17
f 17/17/17 21/21/21 22/22/22
f 16/16/16 14/14/14 13/13/13
f 13/13/13 15/15/15 16/16/16
f 12/12/12 10/10/10 9/9/9
f 9/9/9 11/11/11 12/12/12
f 65/65/65 68/68/68 67/67/67
f 67/67/67 66/66/66 65/65/65
f 61/61/61 64/64/64 63/63/63
f 63/63/63 62/62/62 61/61/61
f 7/7/7 60/60/60 59/59/59
f 59/59/59 8/8/8 7/7/7
f 6/6/6 5/5/5 58/58/58
f 58/58/58 57/57/57 6/6/6
f 3/3/3 2/2/2 1/1/1
f 1/1/1 4/4/4 3/3/3
