v -1.935475 1.320597 0.05009099999999991
v -1.798022 1.215785 0.05009099999999992
v -1.670681 1.486566 0.050090999999999906
v -1.80892 1.538855 0.0500909999999999
v -1.652262 1.834358 0.050090999999999886
v -1.54406 1.787782 0.050090999999999886
vt 0.852814 0.163439
vt 0.829230 0.153816
vt 0.862663 0.028723
vt 0.871764 0.054505
vt 0.977457 0.052348
vt 0.979266 0.015622
vn 0 6.123233995736766E-17 1
vn 0 6.123233995736766E-17 1
vn 0 6.123233995736766E-17 1
vn 0 6.123233995736766E-17 1
vn 0 6.123233995736766E-17 1
vn 0 6.123233995736766E-17 1
g Material #179
f 1/1/1 2/2/2 3/3/3
f 3/3/3 4/4/4 1/1/1
f 5/5/5 4/4/4 3/3/3
f 3/3/3 6/6/6 5/5/5
