v 0.447686 1.935794 0.7405149999999999
v 0.217766 1.966064 1.2819059999999998
v 0.390211 1.943362 0.9360139999999999
v 0.447687 1.935794 -0.0007050000000001185
v -0.012456 1.996535 1.4444069999999998
v -0.012451 1.996333 -0.0007050000000001222
v -0.012451 1.996333 0.7405149999999999
v -0.012452 1.996334 0.9360149999999999
v -0.012456 1.996335 1.2818879999999997
v 0.439859 1.876307 0.7405149999999999
v 0.209942 1.906576 1.2819249999999998
v 0.382384 1.883874 0.9360149999999999
v 0.43986 1.876307 -0.0007050000000001149
v -0.020278 1.937047 1.4444799999999998
v -0.020278 1.936845 -0.0007050000000001186
v -0.020278 1.936845 0.7405159999999998
v -0.020278 1.936846 0.9360159999999998
v -0.020278 1.936846 1.2819239999999998
v 0.217766 1.966064 1.2819059999999998
v -0.012456 1.996335 1.2818879999999997
v -0.020278 1.936846 1.2819239999999998
v 0.209942 1.906576 1.2819249999999998
v -0.020278 1.936846 1.2819239999999998
v -0.020278 1.936846 0.9360159999999998
v -0.012452 1.996334 0.9360149999999999
v -0.012456 1.996335 1.2818879999999997
v 0.382384 1.883874 0.9360149999999999
v 0.209942 1.906576 1.2819249999999998
v 0.217766 1.966064 1.2819059999999998
v 0.390211 1.943362 0.9360139999999999
v -0.020278 1.937047 1.4444799999999998
v -0.012456 1.996535 1.4444069999999998
v -0.020278 1.937047 1.4444799999999998
v -0.012456 1.996535 1.4444069999999998
v 0.439859 1.876307 0.7405149999999999
v 0.447686 1.935794 0.7405149999999999
v -0.020278 1.936845 0.7405159999999998
v -0.012451 1.996333 0.7405149999999999
v 0.43986 1.876307 -0.0007050000000001149
v 0.447687 1.935794 -0.0007050000000001185
v -0.020278 1.936845 -0.0007050000000001186
v -0.012451 1.996333 -0.0007050000000001222
v -0.020278 1.936845 -0.0007050000000001186
v 0.43986 1.876307 -0.0007050000000001149
v 0.447687 1.935794 -0.0007050000000001185
v -0.012451 1.996333 -0.0007050000000001222
vt 0.973818 0.572769
vt 0.964977 0.523957
vt 0.970763 0.547896
vt 0.975238 0.625488
vt 0.952771 0.503988
vt 0.953182 0.625293
vt 0.953166 0.572769
vt 0.953166 0.547896
vt 0.952389 0.523957
vt 0.973818 0.572769
vt 0.964977 0.523957
vt 0.970763 0.547896
vt 0.975238 0.625488
vt 0.952771 0.503988
vt 0.953182 0.625293
vt 0.953166 0.572769
vt 0.953166 0.547896
vt 0.952389 0.523957
vt 0.964977 0.523957
vt 0.952389 0.523957
vt 0.952389 0.523957
vt 0.964977 0.523957
vt 0.952389 0.523957
vt 0.953166 0.547896
vt 0.953166 0.547896
vt 0.952389 0.523957
vt 0.922996 0.533070
vt 0.922994 0.515274
vt 0.919986 0.515275
vt 0.919987 0.533070
vt 0.922984 0.504053
vt 0.919976 0.504056
vt 0.952771 0.503988
vt 0.952771 0.503988
vt 0.922996 0.542362
vt 0.919988 0.542362
vt 0.953166 0.572769
vt 0.953166 0.572769
vt 0.922996 0.573416
vt 0.919988 0.573416
vt 0.953182 0.625293
vt 0.953182 0.625293
vt 0.953182 0.625293
vt 0.975238 0.625488
vt 0.975238 0.625488
vt 0.953182 0.625293
vn 0.130442 0.991456 -3.100000000006071E-05
vn 0.130429 0.991458 -4.800000000006071E-05
vn 0.130429 0.991458 -4.800000000006071E-05
vn 0.130442 0.991456 -6.070917084477191E-17
vn 0.130361 0.991466 -0.0012220000000000607
vn 0.130442 0.991456 -6.070917084477191E-17
vn 0.130429 0.991458 -4.000000000060709E-06
vn 0.130429 0.991458 -4.800000000006071E-05
vn 0.130361 0.991467 -1.0000000000607098E-06
vn -0.130442 -0.991456 2.900000000006071E-05
vn -0.130429 -0.991458 4.900000000006071E-05
vn -0.130429 -0.991458 4.900000000006071E-05
vn -0.130442 -0.991456 6.070917084477191E-17
vn -0.130359 -0.991466 0.0012220000000000607
vn -0.130442 -0.991456 6.070917084477191E-17
vn -0.130429 -0.991458 2.0000000000607093E-06
vn -0.130429 -0.991458 4.900000000006071E-05
vn -0.13036 -0.991467 1.0000000000607098E-06
vn 0.130361 0.991466 -0.0012220000000000607
vn 0.130361 0.991466 -0.0012220000000000607
vn -0.130359 -0.991466 0.0012220000000000607
vn -0.130359 -0.991466 0.0012220000000000607
vn -0.991464 0.130378 -5.7000000000007986E-05
vn -0.991458 0.130424 -2.000000000007986E-06
vn -0.991462 0.130398 -6.000000000007985E-06
vn -0.991467 0.130358 -0.00011100000000000798
vn 0.910567 -0.11972499999999997 0.395643
vn 0.693002 -0.09065199999999995 0.715214
vn 0.801631 -0.10529899999999996 0.588472
vn 0.932223 -0.12263499999999997 0.340472
vn 0.568691 -0.07376199999999994 0.819238
vn 0.568574 -0.07413499999999995 0.819285
vn -0.991467 0.130358 -0.00016100000000000798
vn -0.991467 0.130358 -0.00016100000000000798
vn 0.973148 -0.128027 0.191292
vn 0.986911 -0.129843 0.09564700000000001
vn -0.991456 0.130439 -7.98708519169908E-18
vn -0.991457 0.130431 -2.0000000000079866E-06
vn 0.991456 -0.130442 1.0000000000079873E-06
vn 0.991456 -0.130442 1.0000000000079873E-06
vn -0.991456 0.130442 -7.987268888718953E-18
vn -0.991456 0.13044 -7.987146424039037E-18
vn 0 -6.123233995736766E-17 -1
vn 0 -6.123233995736766E-17 -1
vn 0 -6.123233995736766E-17 -1
vn 0 -6.123233995736766E-17 -1
g 01
f 43/43/43 46/46/46 45/45/45
f 45/45/45 44/44/44 43/43/43
f 37/37/37 38/38/38 42/42/42
f 42/42/42 41/41/41 37/37/37
f 39/39/39 40/40/40 36/36/36
f 36/36/36 35/35/35 39/39/39
f 24/24/24 25/25/25 38/38/38
f 38/38/38 37/37/37 24/24/24
f 35/35/35 36/36/36 30/30/30
f 30/30/30 27/27/27 35/35/35
f 33/33/33 34/34/34 26/26/26
f 26/26/26 23/23/23 33/33/33
f 28/28/28 29/29/29 32/32/32
f 32/32/32 31/31/31 28/28/28
f 27/27/27 30/30/30 29/29/29
f 29/29/29 28/28/28 27/27/27
f 23/23/23 26/26/26 25/25/25
f 25/25/25 24/24/24 23/23/23
f 13/13/13 10/10/10 16/16/16
f 16/16/16 15/15/15 13/13/13
f 16/16/16 10/10/10 12/12/12
f 12/12/12 17/17/17 16/16/16
f 22/22/22 14/14/14 21/21/21
f 11/11/11 18/18/18 17/17/17
f 17/17/17 12/12/12 11/11/11
f 7/7/7 1/1/1 4/4/4
f 4/4/4 6/6/6 7/7/7
f 3/3/3 1/1/1 7/7/7
f 7/7/7 8/8/8 3/3/3
f 20/20/20 5/5/5 19/19/19
f 8/8/8 9/9/9 2/2/2
f 2/2/2 3/3/3 8/8/8
