v 0.656265 -1.108472 1.25362
v 0.649567 -1.057595 1.25362
v -0.001567 -1.099886 1.237254
v -0.001567 -1.099886 1.237254
v -0.028007 -1.148644 1.237254
v 0.656265 -1.108472 1.25362
v -1.098994 0.777767 0.746062
v -1.097337 0.784145 0.672316
v -1.092676 0.788805 0.682316
v -0.344103 0.815076 0.682316
v -0.338412 0.8037 0.746062
v -0.339363 0.810336 0.672316
v -1.144755 0.803957 0.746062
v -1.138437 0.814996 0.682316
v -1.143097 0.810336 0.672316
v -0.357213 -0.13390899999999994 0.746061
v -0.3071 -0.13376799999999994 0.746143
v -0.306196 0.578773 0.746062
v -0.028007 -1.148644 1.237254
v -0.001567 -1.099886 1.237254
v -0.682358 -1.057595 1.25362
v -0.682358 -1.057595 1.25362
v -0.733234 -1.108472 1.25362
v -0.028007 -1.148644 1.237254
v 0.970329 0.507409 0.24561699999999997
v 0.914526 0.632022 -0.0018250000000000386
v 0.919643 0.473839 -0.002702000000000029
v 1.062654 0.474327 -0.003522000000000029
v 1.093816 0.481606 0.23605099999999998
v 1.17352 0.480408 0.23605099999999998
v 1.17352 0.480408 0.23605099999999998
v 1.207495 0.477887 -0.003522000000000029
v 1.062654 0.474327 -0.003522000000000029
v 0.915115 0.362545 -0.003522000000000022
v 0.919527 0.39424 0.23605099999999998
v 0.987818 0.479028 0.20726999999999998
v 0.987818 0.479028 0.20726999999999998
v 0.963867 0.498982 -0.0035220000000000303
v 0.915115 0.362545 -0.003522000000000022
v 0.919527 0.39424 0.23605099999999998
v 0.981163 0.408386 0.291907
v 0.987818 0.479028 0.20726999999999998
v 1.041954 0.428836 0.21552899999999997
v 0.970329 0.507409 0.24561699999999997
v 0.919643 0.473839 -0.002702000000000029
v 0.655289 0.19026700000000007 1.253489
v 0.656265 0.1387180000000001 1.25362
v 0.954894 0.05870000000000008 1.25362
v 0.656265 0.1387180000000001 1.25362
v 0.3313 0.10431600000000009 1.25362
v 0.3313 0.10431600000000009 1.25362
v 0.357636 0.05870000000000008 1.25362
v 0.656265 0.1387180000000001 1.25362
v 0.357636 0.05870000000000008 1.25362
v 0.093408 -0.13357499999999992 1.25362
v 0.114483 -0.18445299999999992 1.25362
v 1.218017 -0.7835259999999998 1.253491
v 1.173506 -0.7571699999999999 1.25362
v 0.954894 -0.9757829999999998 1.25362
v 1.173506 -0.7571699999999999 1.25362
v 1.306196 -0.4585409999999999 1.25362
v 1.306196 -0.4585409999999999 1.25362
v 1.253524 -0.4585409999999999 1.25362
v 1.173506 -0.7571699999999999 1.25362
v 1.253524 -0.4585409999999999 1.25362
v 1.219121 -0.13357599999999992 1.25362
v 1.173506 -0.15991199999999992 1.25362
v 1.173506 -0.15991199999999992 1.25362
v 0.98123 0.10431600000000009 1.25362
v 0.954894 0.05870000000000008 1.25362
v 0.954894 0.05870000000000008 1.25362
v 0.655289 0.19026700000000007 1.253489
v 0.517761 0.326445 0.23651299999999997
v 0.470732 0.23983400000000002 0.23674999999999996
v 0.484205 0.208686 0.169435
v 0.484205 0.208686 0.169435
v 0.560915 0.327325 0.16847199999999998
v 0.484323 0.206588 -0.0012800000000000127
v 0.561015 0.325143 -0.00190000000000002
v 0.465367 0.435466 -0.0030330000000000266
v 0.454596 0.401855 0.23581299999999997
v 0.517761 0.326445 0.23651299999999997
v 0.465225 0.437697 0.16733799999999996
v 0.465225 0.437697 0.16733799999999996
v 0.326237 0.381437 -0.0026170000000000234
v 0.326035 0.383644 0.16775399999999996
v 0.335701 0.239867 0.16914399999999996
v 0.335899 0.237722 -0.0012270000000000145
v 0.470732 0.23983400000000002 0.23674999999999996
v 0.368656 0.26586 0.23612199999999997
v 0.484205 0.208686 0.169435
v 0.484323 0.206588 -0.0012800000000000127
v 0.362565 0.364457 0.23557199999999998
v 0.335701 0.239867 0.16914399999999996
v 0.368656 0.26586 0.23612199999999997
v 0.465225 0.437697 0.16733799999999996
v 0.362565 0.364457 0.23557199999999998
v 0.454596 0.401855 0.23581299999999997
v 1.151735 0.911897 0.24561699999999995
v 1.278943 0.961497 -0.001825000000000059
v 1.100594 0.953156 -0.0027020000000000585
v 1.078269 0.921568 0.21262799999999996
v 1.151735 0.911897 0.24561699999999995
v 1.063896 0.81696 0.20941899999999994
v 1.090479 0.856843 0.26451299999999994
v 1.090479 0.856843 0.26451299999999994
v 1.151735 0.911897 0.24561699999999995
v 1.141137 0.811859 0.21577599999999994
v 1.063896 0.81696 0.20941899999999994
v 1.19537 0.373705 -0.003522000000000023
v 1.164534 0.376748 0.23605099999999998
v 1.084831 0.377945 0.23605099999999998
v 1.057665 0.377896 -0.003522000000000023
v 1.19537 0.373705 -0.003522000000000023
v -0.035928 0.373799 0.23763199999999998
v -0.106148 0.419401 0.23763199999999998
v -0.057598 0.292925 0.23763199999999998
v -0.171216 0.366709 0.23763199999999998
v -0.057598 0.292925 0.23763199999999998
v -0.141212 0.288543 0.23763199999999998
v -0.057598 0.292925 0.23763199999999998
v 0.974052 0.935159 0.046658999999999944
v 0.737355 0.982809 0.050022999999999936
v 0.744246 0.992412 -0.03847900000000006
v 0.935933 0.995267 -0.04783100000000006
v 0.974052 0.935159 0.046658999999999944
v 1.089809 0.592674 -0.0022340000000000363
v 1.070767 0.501749 0.21577599999999997
v 1.041954 0.428836 0.21552899999999997
v 1.06102 0.438377 -0.0031880000000000267
v 1.089809 0.592674 -0.0022340000000000363
v 0.970329 0.507409 0.24561699999999997
v 1.070767 0.501749 0.21577599999999997
v 1.089809 0.592674 -0.0022340000000000363
v 0.914526 0.632022 -0.0018250000000000386
v 0.970329 0.507409 0.24561699999999997
v 1.041954 0.428836 0.21552899999999997
v 1.070767 0.501749 0.21577599999999997
v 0.954894 -0.9757829999999998 1.25362
v 0.98123 -1.021398 1.25362
v 1.218017 -0.7835259999999998 1.253491
v 0.954894 -0.9757829999999998 1.25362
v 0.649567 -1.057595 1.25362
v 0.656265 -1.108472 1.25362
v 1.164534 0.376748 0.23605099999999998
v 1.19537 0.373705 -0.003522000000000023
v 1.207495 0.477887 -0.003522000000000029
v 1.207495 0.477887 -0.003522000000000029
v 1.17352 0.480408 0.23605099999999998
v 1.129176 0.429177 0.291907
v 1.084831 0.377945 0.23605099999999998
v 0.972026 1.120293 0.07243999999999993
v 0.735606 1.084943 0.07224899999999992
v 0.737355 0.982809 0.050022999999999936
v 0.974052 0.935159 0.046658999999999944
v 0.972026 1.120293 0.07243999999999993
v 0.690363 1.038669 0.012019999999999935
v 0.744246 0.992412 -0.03847900000000006
v 0.735606 1.084943 0.07224899999999992
v 0.742497 1.094545 -0.016252000000000065
v 0.744246 0.992412 -0.03847900000000006
v -0.122323 -1.316198 0.43650300000000003
v -0.105812 -1.127435 0.43650300000000003
v -0.105795 -1.127354 1.025353
v -0.122369 -1.316191 0.9541000000000001
v -0.122323 -1.316198 0.43650300000000003
v -0.122369 -1.316191 0.9541000000000001
v -0.549759 -1.2788 0.9541010000000001
v -0.549773 -1.278801 0.43650300000000003
v -0.549773 -1.278801 0.43650300000000003
v -0.549759 -1.2788 0.9541010000000001
v -0.533246 -1.089968 1.025353
v -0.533262 -1.090049 0.43650300000000003
v -0.090107 -1.125732 1.028395
v -0.546409 -1.085862 1.028395
v -0.566133 -1.314076 0.9417330000000002
v -0.110139 -1.353896 0.9417340000000001
v -0.733244 -0.13357499999999992 1.25362
v 0.093408 -0.13357499999999992 1.25362
v 0.093408 -0.133575 8.179109809805386E-18
v -0.733244 -0.133575 8.179109809805386E-18
v -0.733244 -0.133575 8.179109809805386E-18
v -0.733234 -1.108472 6.787433433722324E-17
v -0.733234 -1.108472 1.25362
v -0.733244 -0.13357499999999992 1.25362
v -0.386372 0.779709 0.746062
v -0.338412 0.8037 0.746062
v -0.344103 0.815076 0.682316
v -0.392062 0.791085 0.682316
v -1.092676 0.788805 0.682316
v -1.138437 0.814996 0.682316
v -1.144755 0.803957 0.746062
v -1.098994 0.777767 0.746062
v -0.682367 -0.18445299999999995 1.079764
v 0.114483 -0.18445299999999995 1.079764
v 0.114483 -0.18445299999999992 1.25362
v -0.682367 -0.18445299999999992 1.25362
v -0.682367 -0.18445299999999995 1.079764
v -0.682367 -0.18445299999999992 1.25362
v -0.682358 -1.057595 1.25362
v -0.682358 -1.057595 1.079764
v -1.152144 -0.967676 0.7421050000000001
v -1.152144 -0.9676759999999999 0.9361430000000001
v -0.733296 -0.9677989999999999 0.9361430000000001
v -0.733296 -0.967799 0.7421050000000001
v -1.152181 -0.13392099999999996 0.746061
v -1.203737 -0.13395999999999994 0.746062
v -1.202783 -0.32580899999999996 0.936144
v -1.152166 -0.32578999999999997 0.936143
v -1.152166 -0.32578999999999997 0.936143
v -1.202783 -0.32580899999999996 0.936144
v -1.201829 -1.018553 0.9361440000000001
v -1.152144 -0.9676759999999999 0.9361430000000001
v -1.152144 -0.9676759999999999 0.9361430000000001
v -1.201829 -1.018553 0.9361440000000001
v -0.733298 -1.018553 0.9361440000000001
v -0.733296 -0.9677989999999999 0.9361430000000001
v -0.733244 -0.13357499999999992 1.25362
v -0.682367 -0.18445299999999992 1.25362
v 0.114483 -0.18445299999999992 1.25362
v 0.093408 -0.13357499999999992 1.25362
v -0.682367 -0.18445299999999992 1.25362
v -0.733244 -0.13357499999999992 1.25362
v -0.733234 -1.108472 1.25362
v -0.682358 -1.057595 1.25362
v -0.733298 -1.018553 6.23683835605967E-17
v -0.733298 -1.018553 0.9361440000000001
v -1.201829 -1.018553 0.9361440000000001
v -1.201829 -1.018553 6.23683835605967E-17
v -0.170538 0.595806 0.3145879999999999
v -0.129291 0.531867 0.3145879999999999
v -0.130166 0.529468 -0.0018100000000000325
v -0.168866 0.594982 -0.0018100000000000364
v -0.244094 0.576335 0.3145879999999999
v -0.170538 0.595806 0.3145879999999999
v -0.168866 0.594982 -0.0018100000000000364
v -0.243133 0.578422 -0.0018100000000000353
v -0.244094 0.576335 0.3145879999999999
v -0.243133 0.578422 -0.0018100000000000353
v -0.250332 0.502672 -0.0018100000000000308
v -0.248308 0.500363 0.3145879999999999
v -0.177355 0.472879 0.3145879999999999
v -0.248308 0.500363 0.3145879999999999
v -0.250332 0.502672 -0.0018100000000000308
v -0.180515 0.472417 -0.0018100000000000288
v -0.180515 0.472417 -0.0018100000000000288
v -0.130166 0.529468 -0.0018100000000000325
v -0.129291 0.531867 0.3145879999999999
v -0.177355 0.472879 0.3145879999999999
v 1.088077 0.798557 -0.003355000000000049
v 1.063896 0.81696 0.20941899999999994
v 0.986398 0.842703 0.23605099999999996
v 0.961102 0.85261 -0.003522000000000052
v 1.063896 0.81696 0.20941899999999994
v 1.046428 0.874127 0.29190699999999997
v 0.986398 0.842703 0.23605099999999996
v 1.106458 0.905551 0.23605099999999996
v 0.314502 0.21120600000000003 0.314588
v 0.313857 0.211664 -0.001810000000000013
v 0.24149 0.235177 -0.0018100000000000143
v 0.242233 0.23501400000000003 0.314588
v 0.197258 0.17364000000000002 0.314588
v 0.242233 0.23501400000000003 0.314588
v 0.24149 0.235177 -0.0018100000000000143
v 0.196765 0.173619 -0.0018100000000000106
v 0.197258 0.17364000000000002 0.314588
v 0.196765 0.173619 -0.0018100000000000106
v 0.24149 0.112061 -0.001810000000000007
v 0.241731 0.11189900000000001 0.314588
v 0.241731 0.11189900000000001 0.314588
v 0.24149 0.112061 -0.001810000000000007
v 0.313857 0.135573 -0.0018100000000000082
v 0.314192 0.13511700000000001 0.314588
v 0.313857 0.211664 -0.001810000000000013
v 0.314502 0.21120600000000003 0.314588
v 0.314192 0.13511700000000001 0.314588
v 0.313857 0.135573 -0.0018100000000000082
v -0.141212 0.288543 0.0007529999999999823
v -0.141212 0.288543 0.23763199999999998
v -0.171216 0.366709 0.23763199999999998
v -0.171216 0.366709 0.0007529999999999775
v -0.057598 0.292925 0.0007529999999999821
v -0.057598 0.292925 0.23763199999999998
v -0.141212 0.288543 0.23763199999999998
v -0.141212 0.288543 0.0007529999999999823
v 0.974052 0.935159 0.046658999999999944
v 0.935933 0.995267 -0.04783100000000006
v 0.934598 1.090633 -0.030901000000000067
v 0.972026 1.120293 0.07243999999999993
v 0.742497 1.094545 -0.016252000000000065
v 0.735606 1.084943 0.07224899999999992
v 0.972026 1.120293 0.07243999999999993
v 0.934598 1.090633 -0.030901000000000067
v 1.013026 0.348588 0.23605099999999998
v 1.003304 0.323221 -0.00352200000000002
v 1.060956 0.447925 -0.0035220000000000273
v 1.04292 0.435309 0.20726999999999998
v 0.981163 0.408386 0.291907
v 1.013026 0.348588 0.23605099999999998
v 0.987818 0.479028 0.20726999999999998
v 0.130412 0.744291 0.11112299999999996
v -0.02912 0.61413 0.09299699999999995
v -0.067449 0.666691 0.03866799999999996
v 0.087712 0.803654 0.05178399999999995
v 0.037232 0.856713 0.11093299999999995
v 0.087712 0.803654 0.05178399999999995
v -0.067449 0.666691 0.03866799999999996
v -0.117034 0.719378 0.09308599999999996
v 0.048816 0.830157 0.20689199999999994
v 0.037232 0.856713 0.11093299999999995
v -0.117034 0.719378 0.09308599999999996
v -0.109351 0.69938 0.18104599999999996
v 0.048816 0.830157 0.20689199999999994
v -0.109351 0.69938 0.18104599999999996
v -0.055017 0.634334 0.18099099999999999
v 0.106359 0.760697 0.20706599999999994
v 0.106359 0.760697 0.20706599999999994
v -0.055017 0.634334 0.18099099999999999
v -0.02912 0.61413 0.09299699999999995
v 0.130412 0.744291 0.11112299999999996
v -0.824544 -0.42888899999999996 0.736223
v -0.842242 -0.67002 0.736257
v -0.710187 -0.6428389999999999 1.453174
v -0.700872 -0.4792939999999999 1.452892
v -0.774109 0.5846230000000001 0.977984
v -0.726413 0.6027950000000001 0.977821
v -0.87927 1.022401 0.9795159999999999
v -0.939066 0.9996190000000001 0.9796659999999999
v -0.765492 0.5433730000000001 0.977984
v -0.768035 0.5943500000000002 0.977821
v -1.21434 0.5786400000000002 0.979516
v -1.211151 0.5147310000000002 0.979666
v -0.723598 0.5388220000000001 0.977984
v -0.772866 0.5521550000000001 0.977821
v -0.895839 0.12284000000000006 0.979516
v -0.834073 0.10612300000000005 0.979666
v -0.706323 0.5772590000000001 0.977984
v -0.734229 0.5345230000000001 0.977821
v -0.363926 0.28490100000000007 0.979516
v -0.328941 0.33847900000000003 0.979666
v 0.831937 -1.227092 -0.020212999999999922
v 0.817225 -1.058955 -0.020212999999999932
v 0.817227 -1.058882 0.7300640000000002
v 0.831897 -1.227093 0.6582160000000001
v 0.451193 -1.260403 -0.020212999999999922
v 0.831937 -1.227092 -0.020212999999999922
v 0.831897 -1.227093 0.6582160000000001
v 0.451205 -1.260399 0.6582160000000001
v 0.451193 -1.260403 -0.020212999999999922
v 0.451205 -1.260399 0.6582160000000001
v 0.436484 -1.092202 0.7300640000000002
v 0.436481 -1.092275 -0.020212999999999932
v 0.830738 -1.055032 0.7328680000000001
v 0.424302 -1.090636 0.7328680000000001
v 0.442299 -1.293876 0.6462070000000001
v 0.848458 -1.258276 0.6462070000000001
v -0.737541 0.6055660000000002 0.977984
v -0.70552 0.5658190000000001 0.977821
v -0.353686 0.8408610000000001 0.979516
v -0.39383 0.8906900000000001 0.979666
v 1.268347 0.982617 0.8572239999999999
v 1.268296 0.982044 -6.013285206109317E-17
v 1.17211 -0.117368 7.186717276116328E-18
v 1.17211 -0.11736799999999994 0.857194
v 1.190924 -0.119014 7.287505707686155E-18
v 1.287109 0.980398 -6.003206362952334E-17
v 1.28716 0.980971 0.8572239999999999
v 1.190924 -0.11901399999999994 0.857194
v -1.152181 -0.13392099999999998 0.613349
v -1.152171 -0.25323899999999994 0.742056
v -0.733263 -0.25323899999999994 0.742049
v -0.733244 -0.13357499999999997 0.613343
v -0.733296 -0.967799 0.7421050000000001
v -0.733263 -0.25323899999999994 0.742049
v -1.152171 -0.25323899999999994 0.742056
v -1.152144 -0.967676 0.7421050000000001
v 0.114483 -0.18445299999999992 1.25362
v 0.114483 -0.18445299999999995 1.079764
v 0.357636 0.05870000000000007 1.079764
v 0.357636 0.05870000000000008 1.25362
v 0.656265 0.13871800000000006 1.079764
v 0.656265 0.1387180000000001 1.25362
v 0.954894 0.05870000000000007 1.079764
v 0.954894 0.05870000000000008 1.25362
v 1.173506 -0.15991199999999994 1.079764
v 1.173506 -0.15991199999999992 1.25362
v 1.253524 -0.4585409999999999 1.079764
v 1.253524 -0.4585409999999999 1.25362
v 1.173506 -0.7571699999999999 1.079764
v 1.173506 -0.7571699999999999 1.25362
v 0.954894 -0.9757829999999998 1.079764
v 0.954894 -0.9757829999999998 1.25362
v 0.649567 -1.057595 1.079764
v 0.649567 -1.057595 1.25362
v -0.001567 -1.099886 1.237254
v -0.001567 -1.08458 1.079764
v -0.682358 -1.057595 1.25362
v -0.682358 -1.057595 1.079764
v -0.357213 -0.13390899999999997 0.613349
v -0.357213 -0.13390899999999994 0.746061
v -0.357078 0.575178 0.746062
v -0.357078 0.575178 0.61335
v -0.386372 0.779709 0.746062
v -0.387323 0.786345 0.61335
v -0.392062 0.791085 0.682316
v -0.535548 0.934569 0.6133489999999999
v -0.535548 0.934569 0.6823159999999999
v -0.74123 0.989682 0.6823159999999999
v -0.74123 0.989682 0.6133489999999999
v -0.946912 0.934569 0.6823159999999999
v -0.946912 0.934569 0.6133489999999999
v -1.092676 0.788805 0.682316
v -1.097337 0.784145 0.61335
v -1.097337 0.784145 0.672316
v -1.152436 0.572145 0.746062
v -1.098994 0.777767 0.746062
v -1.152436 0.572145 0.61335
v -1.152181 -0.13392099999999996 0.746061
v -1.152181 -0.13392099999999998 0.613349
v -1.152166 -0.32578999999999997 0.936143
v -1.152144 -0.9676759999999999 0.9361430000000001
v -1.152181 -0.13392099999999996 0.746061
v -1.152144 -0.967676 0.7421050000000001
v -1.152181 -0.13392099999999998 0.613349
v -1.203737 -0.13395999999999994 0.746062
v -1.152181 -0.13392099999999996 0.746061
v -1.152436 0.572145 0.746062
v -1.20331 0.578661 0.746062
v -1.098994 0.777767 0.746062
v -1.144755 0.803957 0.746062
v -0.338412 0.8037 0.746062
v -0.386372 0.779709 0.746062
v -0.357078 0.575178 0.746062
v -0.306196 0.578773 0.746062
v -0.357213 -0.13390899999999994 0.746061
v -0.392062 0.791085 0.682316
v -0.344103 0.815076 0.682316
v -0.509212 0.980185 0.6823159999999999
v -0.535548 0.934569 0.6823159999999999
v -0.74123 1.042354 0.6823159999999999
v -0.74123 0.989682 0.6823159999999999
v -0.973248 0.980185 0.6823159999999999
v -0.946912 0.934569 0.6823159999999999
v -1.138437 0.814996 0.682316
v -1.092676 0.788805 0.682316
v 0.037232 0.856713 0.11093299999999995
v 0.048816 0.830157 0.20689199999999994
v 0.087712 0.803654 0.05178399999999995
v 0.106359 0.760697 0.20706599999999994
v 0.130412 0.744291 0.11112299999999996
v 0.314502 0.21120600000000003 0.314588
v 0.242233 0.23501400000000003 0.314588
v 0.314192 0.13511700000000001 0.314588
v 0.197258 0.17364000000000002 0.314588
v 0.241731 0.11189900000000001 0.314588
v 1.062654 0.474327 -0.003522000000000029
v 1.057665 0.377896 -0.003522000000000023
v 1.084831 0.377945 0.23605099999999998
v 1.093816 0.481606 0.23605099999999998
v 1.129176 0.429177 0.291907
v 1.17352 0.480408 0.23605099999999998
v -0.067449 0.666691 0.03866799999999996
v -0.02912 0.61413 0.09299699999999995
v -0.117034 0.719378 0.09308599999999996
v -0.055017 0.634334 0.18099099999999999
v -0.109351 0.69938 0.18104599999999996
v 0.368656 0.26586 0.23612199999999997
v 0.470732 0.23983400000000002 0.23674999999999996
v 0.362565 0.364457 0.23557199999999998
v 0.517761 0.326445 0.23651299999999997
v 0.454596 0.401855 0.23581299999999997
v -0.177355 0.472879 0.3145879999999999
v -0.129291 0.531867 0.3145879999999999
v -0.248308 0.500363 0.3145879999999999
v -0.170538 0.595806 0.3145879999999999
v -0.244094 0.576335 0.3145879999999999
v 0.915115 0.362545 -0.003522000000000022
v 1.003304 0.323221 -0.00352200000000002
v 1.013026 0.348588 0.23605099999999998
v 0.919527 0.39424 0.23605099999999998
v 0.981163 0.408386 0.291907
v -0.68325 0.572769 0.542767
v -0.685437 0.5707940000000001 1.073992
v -0.713019 0.5227610000000001 1.073784
v -0.710812 0.524733 0.54256
v -0.768397 0.5226300000000001 1.073622
v -0.766203 0.524586 0.542397
v -0.796208 0.5705160000000001 1.073666
v -0.79402 0.572491 0.542441
v -0.768646 0.6185520000000001 1.073873
v -0.766439 0.620523 0.542649
v -0.713254 0.6186990000000001 1.074036
v -0.71106 0.620656 0.542811
v -0.685437 0.5707940000000001 1.073992
v -0.68325 0.572769 0.542767
v -0.106148 0.419401 0.0007529999999999743
v -0.171216 0.366709 0.0007529999999999775
v -0.171216 0.366709 0.23763199999999998
v -0.106148 0.419401 0.23763199999999998
v -0.035928 0.373799 0.0007529999999999771
v -0.035928 0.373799 0.23763199999999998
v -0.057598 0.292925 0.23763199999999998
v -0.057598 0.292925 0.0007529999999999821
v 1.151735 0.911897 0.24561699999999995
v 1.090479 0.856843 0.26451299999999994
v 1.141137 0.811859 0.21577599999999994
v 1.257553 0.860561 -0.002234000000000053
v 1.278943 0.961497 -0.001825000000000059
v 1.063896 0.81696 0.20941899999999994
v 1.088077 0.798557 -0.003355000000000049
v 1.141137 0.811859 0.21577599999999994
v -1.212172 -0.236487 -0.0002719999999999855
v -1.201829 -1.018553 6.23683835605967E-17
v -1.201829 -1.018553 0.9361440000000001
v -1.202783 -0.32580899999999996 0.936144
v -1.203737 -0.13395999999999994 0.746062
v -1.20331 0.578661 -3.5432767072070327E-17
v -1.20331 0.578661 0.746062
v -1.143097 0.810336 0.672316
v -1.144755 0.803957 0.746062
v -1.175173 0.832772 -0.000541000000000051
v -0.973248 0.980185 0.6823159999999999
v -1.138437 0.814996 0.682316
v -0.988272 1.017389 -0.0005800000000000623
v -0.74123 1.042354 0.6823159999999999
v -0.739713 1.107601 0.004727999999999933
v -0.509212 0.980185 0.6823159999999999
v -0.487907 1.03191 0.003441999999999937
v -0.339363 0.810336 0.672316
v -0.344103 0.815076 0.682316
v -0.305673 0.832567 -0.0006050000000000509
v -0.306196 0.578773 0.746062
v -0.338412 0.8037 0.746062
v -0.306196 0.578773 -3.543962509414555E-17
v -0.308238 -0.133704 8.187008781659884E-18
v -0.3071 -0.13376799999999994 0.746143
v 0.114483 -0.18445299999999995 1.079764
v -0.682367 -0.18445299999999995 1.079764
v -0.682358 -1.057595 1.079764
v -0.001567 -1.08458 1.079764
v 0.649567 -1.057595 1.079764
v 0.357636 0.05870000000000007 1.079764
v 0.954894 0.05870000000000007 1.079764
v 0.656265 0.13871800000000006 1.079764
v 1.173506 -0.7571699999999999 1.079764
v 0.954894 -0.9757829999999998 1.079764
v 1.173506 -0.15991199999999994 1.079764
v 1.253524 -0.4585409999999999 1.079764
v -0.733234 -1.108472 1.25362
v -0.733234 -1.108472 6.787433433722324E-17
v -0.028007 -1.133339 6.939699893494312E-17
v -0.028007 -1.148644 1.237254
v 0.656265 -1.108472 1.25362
v 0.656265 -1.108472 6.787433433722324E-17
v 1.001032 -1.069952 6.551566460206545E-17
v 0.98123 -1.021398 1.25362
v 1.257336 -0.813648 4.9821570941632284E-17
v 1.218017 -0.7835259999999998 1.253491
v 1.306196 -0.4585409999999999 1.25362
v 1.35115 -0.46353 2.838302654043863E-17
v 1.219122 -0.133576 8.179171042145343E-18
v 1.219121 -0.13357599999999992 1.25362
v 0.98123 0.104316 -6.3875127749927656E-18
v 0.98123 0.10431600000000009 1.25362
v 0.655289 0.19026700000000007 1.253489
v 0.656265 0.19139 -1.1719257544440597E-17
v 0.3313 0.10431600000000009 1.25362
v 0.3313 0.104316 -6.3875127749927656E-18
v 0.093408 -0.133575 8.179109809805386E-18
v 0.093408 -0.13357499999999992 1.25362
v -1.245307 -1.012159 0.18879300000000004
v -1.207191 -1.052332 0.21290500000000007
v -1.177652 -1.005296 0.27571200000000007
v -1.188997 -0.959917 0.21921500000000005
v -1.290348 -1.025226 3.0000000000062776E-05
v -1.206192 -0.939179 2.6000000000057505E-05
v -1.207191 -1.052332 0.21290500000000007
v -1.264665 -1.126121 3.0000000000068956E-05
v -1.148036 -1.065414 0.18877000000000005
v -1.154098 -1.117608 2.5000000000068435E-05
v -1.108521 -1.022636 2.1000000000062618E-05
v -1.122181 -1.009046 0.21921200000000005
v -1.177652 -1.005296 0.27571200000000007
v -1.207191 -1.052332 0.21290500000000007
v 1.001072 0.940509 -0.0035220000000000576
v 0.961102 0.85261 -0.003522000000000052
v 0.986398 0.842703 0.23605099999999996
v 1.032734 0.935865 0.23605099999999996
v 1.12231 0.941323 -0.0035220000000000576
v 1.106458 0.905551 0.23605099999999996
v 1.046428 0.874127 0.29190699999999997
v 1.106458 0.905551 0.23605099999999996
v 0.749147 -0.4010249999999999 1.866593
v 0.611038 -0.3551339999999999 1.866676
v 0.641007 -0.4376639999999999 2.011596
v 0.684227 -0.4532059999999999 2.011569
v 0.655303 -0.47761699999999985 2.315274
v 0.759123 -0.5494709999999999 1.866662
v 0.687471 -0.5014839999999999 2.011591
v 0.655303 -0.47761699999999985 2.315274
v 0.623788 -0.6000929999999999 1.866754
v 0.649062 -0.5159079999999999 2.011621
v 0.655303 -0.47761699999999985 2.315274
v 0.619203 -0.4770239999999999 2.008705
v 0.655303 -0.47761699999999985 2.315274
v 0.539958 -0.4776289999999999 1.86586
v 0.641007 -0.4376639999999999 2.011596
v 0.611038 -0.3551339999999999 1.866676
v -0.796208 0.5705160000000001 1.073666
v -0.768397 0.5226300000000001 1.073622
v -0.768646 0.6185520000000001 1.073873
v -0.685437 0.5707940000000001 1.073992
v -0.713254 0.6186990000000001 1.074036
v -0.713019 0.5227610000000001 1.073784
v -0.357213 -0.13390899999999997 0.613349
v -0.357078 0.575178 0.61335
v -1.152181 -0.13392099999999998 0.613349
v -0.387323 0.786345 0.61335
v -0.535548 0.934569 0.6133489999999999
v -0.74123 0.989682 0.6133489999999999
v -0.946912 0.934569 0.6133489999999999
v -1.097337 0.784145 0.61335
v -1.152436 0.572145 0.61335
v 0.718044 -0.9934169999999999 1.218386
v 0.719321 -1.008661 1.070586
v 1.020007 -0.8847199999999998 1.07061
v 1.010391 -0.8729129999999999 1.21841
v 0.837636 -0.9041839999999999 1.528643
v 1.178925 -0.6201439999999999 1.218383
v 1.193347 -0.6247419999999999 1.070583
v 1.068131 -0.7428829999999998 1.482055
v 0.900515 -0.6438709999999999 1.747556
v 1.169438 -0.29531099999999993 1.07058
v 1.11456 -0.4680799999999999 1.528093
v 0.749147 -0.4010249999999999 1.866593
v 0.759123 -0.5494709999999999 1.866662
v 1.155679 -0.29984999999999995 1.21838
v 0.877282 -0.2981469999999999 1.747395
v 0.611038 -0.3551339999999999 1.866676
v 1.023535 -0.17784799999999992 1.481757
v 0.941869 -0.015842999999999923 1.218381
v 0.94953 -0.0032039999999999343 1.070581
v 0.62858 0.11419600000000008 1.070583
v 0.769347 -0.013840999999999905 1.528131
v 0.551782 -0.1926709999999999 1.747587
v 0.539958 -0.4776289999999999 1.86586
v 0.62982 0.09830100000000007 1.218382
v 0.479071 0.00842100000000009 1.482057
v 0.339293 -0.008028999999999925 1.218385
v 0.329766 0.0048330000000000655 1.070585
v 0.152646 -0.29091399999999995 1.070586
v 0.282249 -0.1907899999999999 1.528615
v 0.167084 -0.29557399999999995 1.218386
v 0.188464 -0.6557949999999999 1.218386
v 0.174635 -0.6614089999999999 1.070586
v 0.395539 -0.9397969999999999 1.070586
v 0.191958 -0.4801729999999999 1.482339
v 0.380934 -0.4798869999999999 1.745326
v 0.317713 -0.7658569999999999 1.528686
v 0.585326 -0.7617679999999999 1.747769
v 0.623788 -0.6000929999999999 1.866754
v 0.759123 -0.5494709999999999 1.866662
v 0.900515 -0.6438709999999999 1.747556
v 0.837636 -0.9041839999999999 1.528643
v 0.556777 -0.9437639999999999 1.482387
v 0.718044 -0.9934169999999999 1.218386
v 0.719321 -1.008661 1.070586
v 0.403241 -0.9264619999999999 1.218386
vt 0.838458 0.691354
vt 0.839213 0.679763
vt 0.914230 0.679763
vt 0.914230 0.679763
vt 0.916718 0.691354
vt 0.838458 0.691354
vt 0.871604 0.091110
vt 0.870665 0.110583
vt 0.869743 0.107013
vt 0.870913 0.145754
vt 0.872596 0.131187
vt 0.871649 0.148473
vt 0.749295 0.130615
vt 0.750926 0.145555
vt 0.750001 0.147906
vt 0.006250 0.024478
vt 0.006250 0.013131
vt 0.075125 0.013131
vt 0.916718 0.691354
vt 0.914230 0.679763
vt 0.989247 0.679763
vt 0.989247 0.679763
vt 0.994978 0.691354
vt 0.916718 0.691354
vt 0.200126 0.881549
vt 0.203181 0.950492
vt 0.182111 0.933139
vt 0.253129 0.800060
vt 0.225128 0.787626
vt 0.225719 0.764123
vt 0.225719 0.764123
vt 0.253129 0.762574
vt 0.253129 0.800060
vt 0.222116 0.678701
vt 0.227856 0.618051
vt 0.238707 0.619331
vt 0.238707 0.619331
vt 0.239422 0.678701
vt 0.222116 0.678701
vt 0.227856 0.618051
vt 0.222195 0.600075
vt 0.230907 0.599724
vt 0.206369 0.864003
vt 0.200126 0.881549
vt 0.182111 0.933139
vt 0.611053 0.691354
vt 0.612640 0.679763
vt 0.647465 0.679763
vt 0.609685 0.679763
vt 0.573141 0.691354
vt 0.573141 0.691354
vt 0.574860 0.679763
vt 0.609685 0.679763
vt 0.571772 0.679763
vt 0.535244 0.691354
vt 0.533037 0.679763
vt 0.762751 0.691354
vt 0.764183 0.679763
vt 0.799009 0.679763
vt 0.761202 0.679763
vt 0.724818 0.691354
vt 0.724818 0.691354
vt 0.726376 0.679763
vt 0.761202 0.679763
vt 0.723283 0.679763
vt 0.686920 0.691354
vt 0.688458 0.679763
vt 0.685387 0.679763
vt 0.649023 0.691354
vt 0.650561 0.679763
vt 0.647465 0.679763
vt 0.611053 0.691354
vt 0.530421 0.386707
vt 0.525456 0.386707
vt 0.517598 0.371959
vt 0.517598 0.371959
vt 0.531291 0.369538
vt 0.523931 0.348763
vt 0.531291 0.348763
vt 0.545561 0.348763
vt 0.541256 0.390308
vt 0.532430 0.386707
vt 0.544499 0.375093
vt 0.545561 0.369538
vt 0.559147 0.348763
vt 0.559147 0.369538
vt 0.573802 0.369538
vt 0.573802 0.348763
vt 0.579058 0.386707
vt 0.574393 0.386707
vt 0.580725 0.369538
vt 0.580725 0.348763
vt 0.560550 0.386707
vt 0.572139 0.375249
vt 0.569419 0.390472
vt 0.546826 0.374850
vt 0.558291 0.386707
vt 0.550133 0.390212
vt 0.274906 0.746243
vt 0.306751 0.739373
vt 0.298739 0.785010
vt 0.274425 0.766064
vt 0.274906 0.746243
vt 0.267923 0.788078
vt 0.265254 0.766612
vt 0.265254 0.766612
vt 0.270310 0.750710
vt 0.259970 0.781747
vt 0.267923 0.788078
vt 0.253129 0.737322
vt 0.226537 0.733036
vt 0.226896 0.709061
vt 0.253129 0.696422
vt 0.253129 0.737322
vt 0.110650 0.917104
vt 0.107759 0.897585
vt 0.120003 0.917104
vt 0.115326 0.885677
vt 0.120003 0.917104
vt 0.122894 0.897585
vt 0.120003 0.917104
vt 0.182795 0.728344
vt 0.203800 0.728528
vt 0.204364 0.750616
vt 0.183745 0.761781
vt 0.182795 0.728344
vt 0.215433 0.943811
vt 0.213511 0.879708
vt 0.222320 0.873661
vt 0.236200 0.908421
vt 0.215433 0.943811
vt 0.200126 0.881549
vt 0.213511 0.879708
vt 0.215433 0.943811
vt 0.203181 0.950492
vt 0.200126 0.881549
vt 0.206369 0.864003
vt 0.213511 0.879708
vt 0.799009 0.679763
vt 0.800561 0.691354
vt 0.762751 0.691354
vt 0.802097 0.679763
vt 0.837703 0.679763
vt 0.838458 0.691354
vt 0.226537 0.733036
vt 0.253129 0.737322
vt 0.253129 0.762574
vt 0.253129 0.762574
vt 0.225719 0.764123
vt 0.217380 0.749020
vt 0.215623 0.731142
vt 0.182451 0.695110
vt 0.203642 0.696607
vt 0.203893 0.722254
vt 0.182795 0.728344
vt 0.182451 0.695110
vt 0.211841 0.712255
vt 0.212193 0.732281
vt 0.205275 0.696276
vt 0.215733 0.694432
vt 0.221240 0.717747
vt 0.865444 0.669386
vt 0.842981 0.669386
vt 0.842971 0.537819
vt 0.866026 0.554097
vt 0.866529 0.669386
vt 0.866532 0.553739
vt 0.917592 0.553738
vt 0.917593 0.669385
vt 0.918219 0.669385
vt 0.918218 0.553738
vt 0.939570 0.538542
vt 0.940735 0.669385
vt 0.118739 0.061530
vt 0.197498 0.061526
vt 0.197462 0.149598
vt 0.118756 0.149595
vt 0.898955 0.374874
vt 0.991579 0.374874
vt 0.991579 0.669089
vt 0.898813 0.668628
vt 0.897777 0.668628
vt 0.788645 0.669089
vt 0.788644 0.374874
vt 0.897918 0.374874
vt 0.101403 0.024478
vt 0.101403 0.013131
vt 0.108030 0.013131
vt 0.108030 0.024478
vt 0.203761 0.024478
vt 0.203761 0.013131
vt 0.210446 0.013131
vt 0.210446 0.024478
vt 0.992318 0.078008
vt 0.901514 0.078008
vt 0.901514 0.035939
vt 0.992318 0.035939
vt 0.332976 0.078008
vt 0.332976 0.035939
vt 0.433674 0.035939
vt 0.433674 0.078008
vt 0.265888 0.135513
vt 0.265888 0.090033
vt 0.213870 0.090033
vt 0.213870 0.135513
vt 0.306861 0.024478
vt 0.306861 0.013131
vt 0.343579 0.013131
vt 0.343579 0.024478
vt 0.343579 0.024478
vt 0.343579 0.013131
vt 0.439572 0.013131
vt 0.432647 0.024478
vt 0.449988 0.024478
vt 0.443293 0.013131
vt 0.504627 0.013131
vt 0.504627 0.024478
vt 0.898955 0.369070
vt 0.904686 0.357130
vt 0.993953 0.357130
vt 0.991579 0.369070
vt 0.892216 0.357130
vt 0.897918 0.369070
vt 0.788644 0.369070
vt 0.794347 0.357130
vt 0.454229 0.305888
vt 0.454229 0.086467
vt 0.513567 0.086467
vt 0.513567 0.305888
vt 0.018712 0.902594
vt 0.027212 0.902594
vt 0.027505 0.982329
vt 0.019005 0.982329
vt 0.004772 0.902594
vt 0.013272 0.902594
vt 0.013673 0.982329
vt 0.005173 0.982329
vt 0.069048 0.902594
vt 0.068702 0.982329
vt 0.060202 0.982329
vt 0.060548 0.902594
vt 0.046825 0.902594
vt 0.055324 0.902594
vt 0.054722 0.982329
vt 0.046223 0.982329
vt 0.041297 0.982329
vt 0.032796 0.982329
vt 0.032796 0.902594
vt 0.041297 0.902594
vt 0.195751 0.851107
vt 0.197730 0.793509
vt 0.208799 0.794288
vt 0.214634 0.851107
vt 0.197730 0.793509
vt 0.190350 0.773676
vt 0.198605 0.769870
vt 0.183378 0.791738
vt 0.027212 0.902594
vt 0.027505 0.982329
vt 0.019005 0.982329
vt 0.018712 0.902594
vt 0.004772 0.902594
vt 0.013272 0.902594
vt 0.013673 0.982329
vt 0.005173 0.982329
vt 0.069048 0.902594
vt 0.068702 0.982329
vt 0.060202 0.982329
vt 0.060548 0.902594
vt 0.055324 0.902594
vt 0.054722 0.982329
vt 0.046223 0.982329
vt 0.046825 0.902594
vt 0.032796 0.982329
vt 0.032796 0.902594
vt 0.041297 0.902594
vt 0.041297 0.982329
vt 0.142124 0.979153
vt 0.141442 0.917104
vt 0.150793 0.917104
vt 0.151475 0.979153
vt 0.126267 0.979153
vt 0.126116 0.917104
vt 0.135469 0.917104
vt 0.135621 0.979153
vt 0.181027 0.724196
vt 0.160478 0.725861
vt 0.160024 0.702238
vt 0.181302 0.698373
vt 0.205319 0.669576
vt 0.204097 0.691537
vt 0.182451 0.695110
vt 0.185300 0.651745
vt 0.264129 0.621882
vt 0.269964 0.678701
vt 0.251081 0.678701
vt 0.253060 0.621102
vt 0.245680 0.601269
vt 0.253934 0.597463
vt 0.238707 0.619331
vt 0.574393 0.386707
vt 0.576722 0.326577
vt 0.584294 0.326577
vt 0.579058 0.386707
vt 0.522996 0.386707
vt 0.518353 0.386707
vt 0.520200 0.326577
vt 0.528288 0.326577
vt 0.537387 0.386707
vt 0.532430 0.386707
vt 0.533967 0.326577
vt 0.542055 0.326577
vt 0.546314 0.386707
vt 0.548801 0.326577
vt 0.556372 0.326577
vt 0.550764 0.386707
vt 0.560550 0.386707
vt 0.562204 0.326577
vt 0.570593 0.326577
vt 0.565498 0.386707
vt 0.615646 0.459921
vt 0.590807 0.459968
vt 0.594498 0.318321
vt 0.611327 0.318430
vt 0.583225 0.406896
vt 0.583225 0.442434
vt 0.539142 0.442434
vt 0.539142 0.406896
vt 0.583225 0.406896
vt 0.583225 0.442434
vt 0.539142 0.442434
vt 0.539142 0.406896
vt 0.583225 0.406896
vt 0.583225 0.442434
vt 0.539142 0.442434
vt 0.539142 0.406896
vt 0.583225 0.406896
vt 0.583225 0.442434
vt 0.539142 0.442434
vt 0.539142 0.406896
vt 0.025314 0.242502
vt 0.003109 0.242502
vt 0.003098 0.055886
vt 0.025986 0.074711
vt 0.079254 0.242501
vt 0.029551 0.242502
vt 0.029552 0.074232
vt 0.079253 0.074232
vt 0.083167 0.242501
vt 0.083166 0.074232
vt 0.105149 0.056811
vt 0.106502 0.242501
vt 0.118046 0.160277
vt 0.197434 0.160272
vt 0.197398 0.247994
vt 0.118064 0.247990
vt 0.583225 0.406896
vt 0.583225 0.442434
vt 0.539142 0.442434
vt 0.539142 0.406896
vt 0.651228 0.475057
vt 0.651313 0.671496
vt 0.534371 0.671496
vt 0.534371 0.475149
vt 0.783161 0.671496
vt 0.659378 0.671496
vt 0.659313 0.475073
vt 0.783161 0.475149
vt 0.783145 0.460089
vt 0.740205 0.460086
vt 0.740206 0.321000
vt 0.783170 0.320994
vt 0.618745 0.321010
vt 0.740206 0.321000
vt 0.740205 0.460086
vt 0.618766 0.460076
vt 0.897460 0.035939
vt 0.897460 0.078008
vt 0.856359 0.078008
vt 0.856359 0.035939
vt 0.819405 0.078008
vt 0.819406 0.035939
vt 0.782452 0.078008
vt 0.782452 0.035939
vt 0.745499 0.078008
vt 0.745499 0.035939
vt 0.708546 0.078008
vt 0.708546 0.035939
vt 0.671593 0.078008
vt 0.671593 0.035939
vt 0.634640 0.078008
vt 0.634640 0.035939
vt 0.596858 0.078008
vt 0.596858 0.035939
vt 0.517258 0.035939
vt 0.517258 0.078008
vt 0.437658 0.035939
vt 0.437658 0.078008
vt 0.629422 0.122535
vt 0.629422 0.091110
vt 0.719644 0.091110
vt 0.719227 0.122535
vt 0.749096 0.091110
vt 0.749635 0.122535
vt 0.750711 0.107013
vt 0.779518 0.122535
vt 0.779639 0.107013
vt 0.809997 0.107013
vt 0.809876 0.122535
vt 0.840354 0.107013
vt 0.840234 0.122535
vt 0.869743 0.107013
vt 0.870613 0.122535
vt 0.870665 0.110583
vt 0.901895 0.091110
vt 0.871604 0.091110
vt 0.901895 0.122535
vt 0.991878 0.091110
vt 0.991878 0.122535
vt 0.345608 0.090033
vt 0.265888 0.090033
vt 0.369437 0.134586
vt 0.265888 0.135513
vt 0.369437 0.165692
vt 0.303371 0.013131
vt 0.303371 0.024478
vt 0.236441 0.024478
vt 0.236441 0.013131
vt 0.213935 0.024478
vt 0.213935 0.013131
vt 0.097065 0.013131
vt 0.097065 0.024478
vt 0.075125 0.024478
vt 0.075125 0.013131
vt 0.006250 0.024478
vt 0.111068 0.024478
vt 0.111068 0.013131
vt 0.132921 0.013131
vt 0.132921 0.024478
vt 0.155711 0.013131
vt 0.155711 0.024478
vt 0.178183 0.013131
vt 0.178183 0.024478
vt 0.200118 0.013131
vt 0.200118 0.024478
vt 0.445129 0.104042
vt 0.425192 0.089023
vt 0.444111 0.141178
vt 0.411881 0.116909
vt 0.423588 0.149161
vt 0.500860 0.324189
vt 0.511575 0.346371
vt 0.486126 0.336154
vt 0.503463 0.372045
vt 0.487734 0.365731
vt 0.253129 0.800060
vt 0.253129 0.821910
vt 0.224779 0.816760
vt 0.225128 0.787626
vt 0.216829 0.799889
vt 0.216667 0.781019
vt 0.410009 0.168355
vt 0.400459 0.197357
vt 0.401153 0.141050
vt 0.385702 0.187976
vt 0.386130 0.153177
vt 0.440281 0.148640
vt 0.420222 0.140376
vt 0.448206 0.113130
vt 0.412347 0.106660
vt 0.430915 0.087142
vt 0.486126 0.336154
vt 0.500860 0.324189
vt 0.487734 0.365731
vt 0.511575 0.346371
vt 0.503463 0.372045
vt 0.222116 0.678701
vt 0.212028 0.678701
vt 0.214406 0.617294
vt 0.227856 0.618051
vt 0.222195 0.600075
vt 0.803028 0.669508
vt 0.803094 0.540965
vt 0.809282 0.540960
vt 0.809215 0.669503
vt 0.815469 0.540958
vt 0.815403 0.669501
vt 0.821656 0.540977
vt 0.821591 0.669521
vt 0.827843 0.541013
vt 0.827779 0.669556
vt 0.834032 0.541044
vt 0.833966 0.669587
vt 0.840220 0.541054
vt 0.840152 0.669598
vt 0.095050 0.979153
vt 0.079607 0.979153
vt 0.079672 0.917104
vt 0.089026 0.917104
vt 0.110650 0.979153
vt 0.104494 0.917104
vt 0.120003 0.917104
vt 0.120003 0.979153
vt 0.274906 0.746243
vt 0.266843 0.731785
vt 0.274071 0.717000
vt 0.303666 0.712837
vt 0.306751 0.739373
vt 0.271279 0.697919
vt 0.287327 0.667855
vt 0.274071 0.717000
vt 0.617058 0.305888
vt 0.517361 0.305888
vt 0.517361 0.086467
vt 0.605095 0.086467
vt 0.629392 0.131020
vt 0.719643 0.305888
vt 0.719643 0.130723
vt 0.750001 0.147906
vt 0.749295 0.130615
vt 0.750001 0.305888
vt 0.780540 0.145754
vt 0.750926 0.145555
vt 0.780540 0.305888
vt 0.810870 0.145754
vt 0.810870 0.305888
vt 0.841262 0.145754
vt 0.841262 0.305888
vt 0.871649 0.148473
vt 0.870913 0.145754
vt 0.871649 0.305888
vt 0.901481 0.131020
vt 0.872596 0.131187
vt 0.901481 0.305888
vt 0.991794 0.305888
vt 0.991802 0.131001
vt 0.138431 0.877255
vt 0.004901 0.877260
vt 0.004900 0.560346
vt 0.116498 0.560342
vt 0.228095 0.560339
vt 0.179178 0.965509
vt 0.279262 0.965505
vt 0.229220 0.994550
vt 0.315894 0.669377
vt 0.279260 0.590032
vt 0.315896 0.886157
vt 0.329304 0.777767
vt 0.994978 0.699197
vt 0.994978 0.992315
vt 0.916718 0.992315
vt 0.916718 0.699197
vt 0.838458 0.699197
vt 0.838458 0.992315
vt 0.800562 0.992315
vt 0.800561 0.699197
vt 0.762665 0.992315
vt 0.762751 0.699197
vt 0.724818 0.699197
vt 0.724768 0.992315
vt 0.686871 0.992315
vt 0.686920 0.699197
vt 0.648975 0.992315
vt 0.649023 0.699197
vt 0.610214 0.699197
vt 0.610214 0.992315
vt 0.573141 0.699197
vt 0.573141 0.992315
vt 0.535244 0.992315
vt 0.535244 0.699197
vt 0.283920 0.817113
vt 0.279937 0.802245
vt 0.282476 0.794966
vt 0.290102 0.804072
vt 0.295966 0.856492
vt 0.305360 0.835394
vt 0.276719 0.817492
vt 0.286381 0.870624
vt 0.270443 0.826961
vt 0.273969 0.873772
vt 0.262262 0.871306
vt 0.263477 0.826112
vt 0.266123 0.806801
vt 0.270294 0.809004
vt 0.166786 0.851107
vt 0.156698 0.851107
vt 0.159076 0.789701
vt 0.172527 0.790457
vt 0.184093 0.851107
vt 0.183378 0.791738
vt 0.166865 0.772482
vt 0.175577 0.772130
vt 0.187710 0.532777
vt 0.173188 0.507852
vt 0.193509 0.469426
vt 0.199916 0.474609
vt 0.210760 0.399010
vt 0.202177 0.545964
vt 0.206895 0.477678
vt 0.210760 0.399010
vt 0.215639 0.547112
vt 0.212898 0.477902
vt 0.210760 0.399010
vt 0.220065 0.476519
vt 0.210760 0.399010
vt 0.232613 0.537693
vt 0.226316 0.471123
vt 0.246910 0.521279
vt 0.815052 0.508530
vt 0.821239 0.508541
vt 0.811953 0.520128
vt 0.821231 0.531753
vt 0.815042 0.531743
vt 0.824328 0.520151
vt 0.005130 0.258063
vt 0.123954 0.257892
vt 0.005191 0.546602
vt 0.159342 0.268833
vt 0.184193 0.322607
vt 0.193444 0.397252
vt 0.184225 0.471915
vt 0.159030 0.526539
vt 0.123509 0.546574
vt 0.209996 0.202878
vt 0.217270 0.149126
vt 0.267440 0.152479
vt 0.256764 0.228456
vt 0.217655 0.321115
vt 0.303579 0.251757
vt 0.321199 0.166290
vt 0.263203 0.329468
vt 0.242488 0.448258
vt 0.378542 0.204022
vt 0.300259 0.375572
vt 0.285960 0.575254
vt 0.253086 0.525310
vt 0.351758 0.290633
vt 0.304950 0.507043
vt 0.316193 0.656247
vt 0.345579 0.403509
vt 0.399558 0.355400
vt 0.436096 0.275816
vt 0.481427 0.372002
vt 0.373681 0.478816
vt 0.350357 0.609633
vt 0.334275 0.753619
vt 0.437465 0.436936
vt 0.408232 0.538158
vt 0.462718 0.531217
vt 0.511280 0.484553
vt 0.526876 0.616759
vt 0.414443 0.628280
vt 0.477083 0.641674
vt 0.479950 0.762501
vt 0.526439 0.758579
vt 0.511831 0.886404
vt 0.431507 0.716156
vt 0.370100 0.740212
vt 0.421685 0.812874
vt 0.367795 0.876229
vt 0.338305 0.850210
vt 0.329957 0.920506
vt 0.339515 0.980371
vt 0.397672 0.987126
vt 0.422411 0.908433
vt 0.458719 0.983871
vt 0.490802 0.990157
vt 0.471657 0.877142
vn -0.024913 -0.0032799999999999388 0.999684
vn -0.024913 -0.0032799999999999388 0.999684
vn -0.024913 -0.0032799999999999388 0.999684
vn -0.024694 0.013390000000000062 0.999605
vn -0.024694 0.013390000000000062 0.999605
vn -0.024694 0.013390000000000062 0.999605
vn 0.748561 -0.661833 -0.04041599999999996
vn 0.748561 -0.661833 -0.04041599999999996
vn 0.748561 -0.661833 -0.04041599999999996
vn 0.756023 0.65271 0.04898599999999996
vn 0.756023 0.65271 0.04898599999999996
vn 0.756023 0.65271 0.04898599999999996
vn -0.748561 0.661833 0.04041599999999996
vn -0.748561 0.661833 0.04041599999999996
vn -0.748561 0.661833 0.04041599999999996
vn -0.001642 0.00011600000000006123 0.999999
vn -0.001642 0.00011600000000006123 0.999999
vn -0.001642 0.00011600000000006123 0.999999
vn 0.023248 -0.012605999999999938 0.99965
vn 0.023248 -0.012605999999999938 0.99965
vn 0.023248 -0.012605999999999938 0.99965
vn 0.021945 -0.021944999999999937 0.999518
vn 0.021945 -0.021944999999999937 0.999518
vn 0.021945 -0.021944999999999937 0.999518
vn -0.388649 0.36687500000000006 0.845195
vn -0.593834 0.656822 0.46469999999999995
vn -0.888042 -0.395338 0.23471000000000003
vn -0.680233 0.730048 0.06567399999999995
vn -0.606869 0.645844 0.46324499999999996
vn 0.525898 0.752743 0.3959909999999999
vn 0.525898 0.752743 0.3959909999999999
vn 0.918328 0.377099 0.12029499999999997
vn -0.680233 0.730048 0.06567399999999995
vn -0.942504 -0.314178 0.11392800000000002
vn -0.87735 -0.14937799999999998 0.456007
vn -0.584805 0.722769 0.36824899999999994
vn -0.584805 0.722769 0.36824899999999994
vn -0.93274 0.333288 0.13753099999999996
vn -0.942504 -0.314178 0.11392800000000002
vn -0.87735 -0.14937799999999998 0.456007
vn 0.165407 0.19952700000000007 0.965831
vn -0.584805 0.722769 0.36824899999999994
vn 0.640649 -0.578278 0.505137
vn -0.388649 0.36687500000000006 0.845195
vn -0.888042 -0.395338 0.23471000000000003
vn -0.000268 0.002529000000000061 0.999997
vn 0.000683 0.002547000000000061 0.999997
vn 0.000683 0.002547000000000061 0.999997
vn -0.000268 0.002529000000000061 0.999997
vn -0.000268 0.002529000000000061 0.999997
vn 0 6.123233995736766E-17 1
vn 0 6.123233995736766E-17 1
vn 0 6.123233995736766E-17 1
vn 0 6.123233995736766E-17 1
vn 0 6.123233995736766E-17 1
vn 0 6.123233995736766E-17 1
vn 0.002298 -0.0010209999999999388 0.999997
vn 0.001823 -0.0018229999999999388 0.999997
vn 0.001823 -0.0018229999999999388 0.999997
vn 0.002298 -0.0010209999999999388 0.999997
vn 0.002298 -0.0010209999999999388 0.999997
vn 0 6.123233995736766E-17 1
vn 0 6.123233995736766E-17 1
vn 0 6.123233995736766E-17 1
vn 0 6.123233995736766E-17 1
vn 0 6.123233995736766E-17 1
vn 0 6.123233995736766E-17 1
vn 0 6.123233995736766E-17 1
vn -0.000348 0.00020100000000006124 1
vn 0 6.123233995736766E-17 1
vn -0.000348 0.00020100000000006124 1
vn -0.000348 0.00020100000000006124 1
vn 0.562038 -0.08327599999999995 0.822909
vn 0.100837 -0.564826 0.819026
vn 0.464901 -0.857388 0.22080100000000005
vn 0.464901 -0.857388 0.22080100000000005
vn 0.914826 0.300151 0.27019
vn 0.384742 -0.922951 0.011607000000000057
vn 0.984688 -0.174304 0.0027310000000000108
vn 0.456096 0.889859 -0.011273000000000054
vn 0.317912 0.635129 0.703949
vn 0.562038 -0.08327599999999995 0.822909
vn 0.008126 0.970565 0.24070099999999994
vn 0.008126 0.970565 0.24070099999999994
vn -0.843715 0.536732 -0.007953000000000033
vn -0.80896 0.521168 0.27197099999999996
vn -0.784501 -0.534733 0.31403800000000004
vn -0.571124 -0.820808 0.009591000000000051
vn 0.100837 -0.564826 0.819026
vn -0.467428 -0.38249299999999997 0.797001
vn 0.464901 -0.857388 0.22080100000000005
vn 0.384742 -0.922951 0.011607000000000057
vn -0.442373 0.28887300000000005 0.849034
vn -0.784501 -0.534733 0.31403800000000004
vn -0.467428 -0.38249299999999997 0.797001
vn 0.008126 0.970565 0.24070099999999994
vn -0.442373 0.28887300000000005 0.849034
vn 0.317912 0.635129 0.703949
vn 0.522521 0.47415100000000004 0.708627
vn 0.647515 0.611034 0.45536899999999997
vn 0.007585 0.986698 0.16238399999999995
vn -0.473798 0.697587 0.537483
vn 0.522521 0.47415100000000004 0.708627
vn -0.260661 -0.915828 0.30547500000000005
vn -0.290793 -0.14443699999999995 0.945821
vn -0.290793 -0.14443699999999995 0.945821
vn 0.522521 0.47415100000000004 0.708627
vn 0.410028 -0.744659 0.52665
vn -0.260661 -0.915828 0.30547500000000005
vn 0.4054 -0.912065 0.06155100000000006
vn 0.737242 -0.535568 0.4118740000000001
vn -0.69546 -0.616309 0.36945700000000004
vn -0.730797 -0.677529 0.08300700000000004
vn 0.4054 -0.912065 0.06155100000000006
vn 0.794152 0.30484400000000006 0.52573
vn 0.143768 0.767173 0.625121
vn 0.50833 -0.38845399999999997 0.768573
vn -0.821666 0.22016600000000003 0.52573
vn 0.50833 -0.38845399999999997 0.768573
vn -0.308149 -0.875699 0.3717480000000001
vn 0.50833 -0.38845399999999997 0.768573
vn 0.663526 -0.734637 -0.14156799999999994
vn -0.449355 -0.601301 0.660694
vn -0.474592 -0.731708 -0.48924999999999996
vn 0.623694 -0.520799 -0.582901
vn 0.663526 -0.734637 -0.14156799999999994
vn 0.837936 0.459131 0.29506399999999994
vn 0.714555 0.22157700000000002 0.663563
vn 0.640649 -0.578278 0.505137
vn 0.979998 -0.183326 0.07743200000000001
vn 0.837936 0.459131 0.29506399999999994
vn -0.388649 0.36687500000000006 0.845195
vn 0.714555 0.22157700000000002 0.663563
vn 0.837936 0.459131 0.29506399999999994
vn -0.593834 0.656822 0.46469999999999995
vn -0.388649 0.36687500000000006 0.845195
vn 0.640649 -0.578278 0.505137
vn 0.714555 0.22157700000000002 0.663563
vn 0.000345 0.00019900000000006124 1
vn 0.000345 0.00019900000000006124 1
vn 0.000345 0.00019900000000006124 1
vn 0 6.123233995736766E-17 1
vn 0 6.123233995736766E-17 1
vn 0 6.123233995736766E-17 1
vn 0.737242 -0.535568 0.4118740000000001
vn 0.4054 -0.912065 0.06155100000000006
vn 0.918328 0.377099 0.12029499999999997
vn 0.918328 0.377099 0.12029499999999997
vn 0.525898 0.752743 0.3959909999999999
vn 1E-06 -1.9999999999387675E-06 1
vn -0.69546 -0.616309 0.36945700000000004
vn 0.343829 0.71017 0.614361
vn -0.583218 0.48340400000000006 0.652822
vn -0.449355 -0.601301 0.660694
vn 0.663526 -0.734637 -0.14156799999999994
vn 0.343829 0.71017 0.614361
vn -0.996565 0.0004159999999999949 -0.082819
vn -0.474592 -0.731708 -0.48924999999999996
vn -0.583218 0.48340400000000006 0.652822
vn -0.446821 0.847231 -0.28731500000000004
vn -0.474592 -0.731708 -0.48924999999999996
vn 0.996168 -0.087463 8.800000000000535E-05
vn 0.996196 -0.087139 -1.5999999999994663E-05
vn 0.996168 -0.087463 8.800000000000535E-05
vn 0.996168 -0.087463 8.800000000000535E-05
vn -0.087154 -0.996195 5.0000000000609995E-06
vn -0.087154 -0.996195 5.0000000000609995E-06
vn -0.087154 -0.996195 5.0000000000609995E-06
vn -0.087154 -0.996195 5.0000000000609995E-06
vn -0.996196 0.087141 1.5999999999994663E-05
vn -0.996199 0.087106 2.6999999999994666E-05
vn -0.996196 0.087141 1.5999999999994663E-05
vn -0.996196 0.087141 1.5999999999994663E-05
vn -0.030794 -0.35252399999999995 0.935296
vn -0.030801 -0.35250899999999996 0.935301
vn -0.030794 -0.35252399999999995 0.935296
vn -0.030786 -0.35253999999999996 0.93529
vn 0 1 -6.123233995736766E-17
vn 0 1 -6.123233995736766E-17
vn 0 1 -6.123233995736766E-17
vn 0 1 -6.123233995736766E-17
vn -1 -1E-05 6.123233995736766E-22
vn -1 -1E-05 6.123233995736766E-22
vn -1 -1E-05 6.123233995736766E-22
vn -1 -1E-05 6.123233995736766E-22
vn -0.438727 0.877057 0.19567699999999993
vn -0.438729 0.877056 0.19567599999999993
vn -0.438727 0.877057 0.19567699999999993
vn -0.438727 0.877057 0.19567699999999993
vn 0.487139 0.851122 0.19566999999999996
vn 0.487139 0.851122 0.19566999999999996
vn 0.487139 0.851122 0.19566999999999996
vn 0.487139 0.851122 0.19566999999999996
vn 0 -1 6.123233995736766E-17
vn 0 -1 6.123233995736766E-17
vn 0 -1 6.123233995736766E-17
vn 0 -1 6.123233995736766E-17
vn 1 1E-05 -6.123233995736766E-22
vn 1 1E-05 -6.123233995736766E-22
vn 1 1E-05 -6.123233995736766E-22
vn 1 1E-05 -6.123233995736766E-22
vn 0.000293 1 -6.123233995736766E-17
vn 0.000293 1 -6.123233995736766E-17
vn 0.000293 1 -6.123233995736766E-17
vn 0.000293 1 -6.123233995736766E-17
vn -0.000266 0.703791 0.710407
vn -0.000523 0.703825 0.710373
vn -0.000266 0.703791 0.710407
vn -0.000266 0.703791 0.710407
vn 6E-06 6.123233995736766E-17 1
vn 8E-06 6.123233995736766E-17 1
vn 6E-06 6.123233995736766E-17 1
vn 6E-06 6.123233995736766E-17 1
vn 0 6.000000000061232E-06 1
vn 0 6.000000000061232E-06 1
vn 0 6.000000000061232E-06 1
vn 0 6.000000000061232E-06 1
vn 0 6.123233995736766E-17 1
vn 0 6.123233995736766E-17 1
vn 0 6.123233995736766E-17 1
vn 0 6.123233995736766E-17 1
vn 0 6.123233995736766E-17 1
vn 0 6.123233995736766E-17 1
vn 0 6.123233995736766E-17 1
vn 0 6.123233995736766E-17 1
vn 0 -1 6.123233995736766E-17
vn 0 -1 6.123233995736766E-17
vn 0 -1 6.123233995736766E-17
vn 0 -1 6.123233995736766E-17
vn 0.582416 0.812886 -0.00285200000000005
vn 0.953072 -0.302716 -0.004155999999999982
vn 0.98764 0.15674 -0.0001070000000000096
vn 0.156134 0.987734 0.0020679999999999397
vn -0.762646 0.646813 0.0019459999999999603
vn 0.582416 0.812886 -0.00285200000000005
vn 0.156134 0.987734 0.0020679999999999397
vn -0.749772 0.661693 0.0020849999999999597
vn -0.762646 0.646813 0.0019459999999999603
vn -0.749772 0.661693 0.0020849999999999597
vn -0.850826 -0.525445 0.001609000000000032
vn -0.840319 -0.54209 0.001419000000000033
vn 0.006609 -0.999975 -0.0024199999999999387
vn -0.840319 -0.54209 0.001419000000000033
vn -0.850826 -0.525445 0.001609000000000032
vn 0.454268 -0.890865 0.0005770000000000546
vn 0.454268 -0.890865 0.0005770000000000546
vn 0.98764 0.15674 -0.0001070000000000096
vn 0.953072 -0.302716 -0.004155999999999982
vn 0.006609 -0.999975 -0.0024199999999999387
vn -0.34628 -0.937775 0.02585500000000006
vn 0.130869 -0.89281 0.43100200000000005
vn -0.848363 -0.381822 0.366732
vn -0.927657 -0.364118 0.08289000000000003
vn 0.130869 -0.89281 0.43100200000000005
vn 0.078069 -0.11981099999999995 0.989723
vn -0.848363 -0.381822 0.366732
vn 0.621412 0.49758500000000006 0.605191
vn 0.649889 0.760029 -0.0006200000000000465
vn 0.925211 0.379452 -0.0009470000000000232
vn -0.307074 0.951685 0.0012109999999999417
vn -0.305133 0.952309 0.0012059999999999417
vn -0.999997 0.00204 0.0015559999999999999
vn -0.305133 0.952309 0.0012059999999999417
vn -0.307074 0.951685 0.0012109999999999417
vn -0.999999 9.539998565357881E-20 0.001558
vn -0.999997 0.00204 0.0015559999999999999
vn -0.999999 9.539998565357881E-20 0.001558
vn -0.525474 -0.850809 0.0003600000000000521
vn -0.079042 -0.996871 -0.000839999999999939
vn -0.079042 -0.996871 -0.000839999999999939
vn -0.525474 -0.850809 0.0003600000000000521
vn 0.646783 -0.762673 -0.0013929999999999533
vn 0.923655 -0.383221 -0.0019249999999999766
vn 0.925211 0.379452 -0.0009470000000000232
vn 0.649889 0.760029 -0.0006200000000000465
vn 0.923655 -0.383221 -0.0019249999999999766
vn 0.646783 -0.762673 -0.0013929999999999533
vn -0.726743 -0.686909 4.206104540777546E-17
vn -0.308149 -0.875699 0.3717480000000001
vn -0.821666 0.22016600000000003 0.52573
vn -0.965925 0.258821 -1.5848215460105855E-17
vn 0.428715 -0.90344 5.531974521108424E-17
vn 0.50833 -0.38845399999999997 0.768573
vn -0.308149 -0.875699 0.3717480000000001
vn -0.726743 -0.686909 4.206104540777546E-17
vn 0.663526 -0.734637 -0.14156799999999994
vn 0.623694 -0.520799 -0.582901
vn 0.789011 0.460902 -0.4062410000000001
vn 0.343829 0.71017 0.614361
vn -0.446821 0.847231 -0.28731500000000004
vn -0.583218 0.48340400000000006 0.652822
vn 0.343829 0.71017 0.614361
vn 0.789011 0.460902 -0.4062410000000001
vn 0.375066 -0.850207 0.36942400000000003
vn 0.353147 -0.931759 0.08433000000000006
vn 0.930778 -0.363872 0.035340000000000024
vn 0.879982 0.09301300000000003 0.465811
vn 0.165407 0.19952700000000007 0.965831
vn 0.375066 -0.850207 0.36942400000000003
vn -0.584805 0.722769 0.36824899999999994
vn 0.824716 -0.371351 -0.426546
vn 0.62532 -0.778163 -0.05863299999999995
vn 0.059994 0.03226199999999994 -0.997677
vn 0.710244 0.587926 -0.38716400000000006
vn -0.22831 0.863877 -0.44898800000000005
vn 0.710244 0.587926 -0.38716400000000006
vn 0.059994 0.03226199999999994 -0.997677
vn -0.644799 0.755299 -0.11729300000000004
vn 0.011052 0.693354 0.720512
vn -0.22831 0.863877 -0.44898800000000005
vn -0.644799 0.755299 -0.11729300000000004
vn -0.471849 0.41716800000000004 0.776743
vn 0.011052 0.693354 0.720512
vn -0.471849 0.41716800000000004 0.776743
vn 0.139573 -0.36714299999999994 0.919633
vn 0.818426 -0.10637599999999997 0.56468
vn 0.818426 -0.10637599999999997 0.56468
vn 0.139573 -0.36714299999999994 0.919633
vn 0.62532 -0.778163 -0.05863299999999995
vn 0.824716 -0.371351 -0.426546
vn -0.982325 0.06417900000000001 0.175837
vn -0.981382 0.07205200000000002 0.178036
vn -0.982325 0.06417900000000001 0.175837
vn -0.983201 0.05630100000000001 0.173626
vn 0.003934 -0.0025539999999999387 0.999989
vn 0.004352 -0.002453999999999939 0.999988
vn 0.003934 -0.0025539999999999387 0.999989
vn 0.003517 -0.002653999999999939 0.99999
vn 0.003645 0.002953000000000061 0.999989
vn 0.003679 0.0033800000000000613 0.999988
vn 0.003645 0.002953000000000061 0.999989
vn 0.003611 0.002525000000000061 0.99999
vn -0.001682 0.004379000000000062 0.999989
vn -0.002078 0.004543000000000062 0.999988
vn -0.001682 0.004379000000000062 0.999989
vn -0.001285 0.004215000000000062 0.99999
vn -0.004684 -0.00024599999999993876 0.999989
vn -0.004963 -0.0005719999999999388 0.999988
vn -0.004684 -0.00024599999999993876 0.999989
vn -0.004406 8.000000000006124E-05 0.99999
vn 0.996221 0.086856 5.999999999999468E-05
vn 0.996193 0.087172 -1.1000000000005338E-05
vn 0.996221 0.086856 5.999999999999468E-05
vn 0.996221 0.086856 5.999999999999468E-05
vn 0.087156 -0.996195 3.0000000000609996E-06
vn 0.087156 -0.996195 3.0000000000609996E-06
vn 0.087156 -0.996195 3.0000000000609996E-06
vn 0.087156 -0.996195 3.0000000000609996E-06
vn -0.996193 -0.087171 1.1000000000005338E-05
vn -0.996191 -0.087202 1.800000000000534E-05
vn -0.996193 -0.087171 1.1000000000005338E-05
vn -0.996193 -0.087171 1.1000000000005338E-05
vn 0.034127 -0.38946099999999995 0.920411
vn 0.034116 -0.38944599999999996 0.920417
vn 0.034127 -0.38946099999999995 0.920411
vn 0.034138 -0.38947599999999993 0.920404
vn -0.001213 -0.004530999999999939 0.999989
vn -0.000989 -0.004896999999999939 0.999988
vn -0.001213 -0.004530999999999939 0.999989
vn -0.001438 -0.004164999999999939 0.99999
vn -0.996195 0.087156 -5.336765821324336E-18
vn -0.996195 0.087156 -5.336765821324336E-18
vn -0.996195 0.087156 -5.336765821324336E-18
vn -0.996195 0.087156 -5.336765821324336E-18
vn 0.996195 -0.087155 5.336704588984378E-18
vn 0.996195 -0.087155 5.336704588984378E-18
vn 0.996195 -0.087155 5.336704588984378E-18
vn 0.996195 -0.087155 5.336704588984378E-18
vn -0.000291 0.732857 0.680382
vn 1.1E-05 0.733348 0.679854
vn -0.000291 0.732857 0.680382
vn -0.000593 0.732366 0.680911
vn 8E-06 7.300000000006123E-05 1
vn 1.7E-05 7.800000000006123E-05 1
vn 8E-06 7.300000000006123E-05 1
vn 0 6.800000000006123E-05 1
vn 0.707107 -0.707107 4.329781621023438E-17
vn 0.707107 -0.707107 4.329781621023438E-17
vn 0.575061 -0.81811 5.009478964252206E-17
vn 0.420975 -0.907072 5.55421410698094E-17
vn 0.088963 -0.996035 6.09895537294367E-17
vn -0.088963 -0.996035 6.09895537294367E-17
vn -0.420975 -0.907072 5.55421410698094E-17
vn -0.575061 -0.81811 5.009478964252206E-17
vn -0.81811 -0.575062 -9.999999999647875E-07
vn -0.907073 -0.420974 -9.999999999742228E-07
vn -0.996035 -0.088963 5.447412659627299E-18
vn -0.996035 0.088962 -5.447351427287342E-18
vn -0.907073 0.420974 -1.000000000025777E-06
vn -0.818111 0.575061 -1.0000000000352124E-06
vn -0.575061 0.81811 -5.009478964252206E-17
vn -0.420974 0.907072 -5.55421410698094E-17
vn -0.156912 0.987313 0.024315999999999942
vn -0.162604 0.986691 -6.041739874487506E-17
vn -0.014038 0.997815 0.06456099999999994
vn 0.020848 0.997698 0.06452499999999994
vn 0.05188 0.997483 0.04832599999999994
vn 0.039607 0.999215 -6.118427257050113E-17
vn -1 0.000191 -1.1695376931857224E-20
vn -1 0.000191 -1.1695376931857224E-20
vn -0.998884 -0.04724 2.892615739586048E-18
vn -0.995509 -0.09467 5.796865623763996E-18
vn -0.960085 -0.279618 -0.007104999999999983
vn -0.877562 -0.479408 -0.0072139999999999704
vn -0.756192 -0.654312 -0.0069949999999999605
vn -0.5 -0.866026 3.000000000053029E-06
vn -0.499999 -0.866026 5.3028798443919284E-17
vn -0.088963 -0.996035 6.09895537294367E-17
vn 0.088963 -0.996035 6.09895537294367E-17
vn 0.420975 -0.907072 5.55421410698094E-17
vn 0.575061 -0.818111 5.0094850874862015E-17
vn 0.707106 -0.707108 4.329787744257433E-17
vn 0.867899 -0.49674 3.0416552550422813E-17
vn 0.909206 -0.416347 1.000000000025494E-06
vn 0.981838 -0.18972 1.1616999536711793E-17
vn 0.967845 -0.251547 2.0000000000154028E-06
vn 0.996448 -0.084213 5.156559044829803E-18
vn 1 0.000169 -9.00000000000001E-06
vn 1 0.000203 -1.2430165011345635E-20
vn 1 3.3E-05 -4.7E-05
vn 1 3.9E-05 -2.3000000000000003E-05
vn 1 0.000169 -9.00000000000001E-06
vn 1 4.4E-05 -2.694222958124177E-21
vn 1 0.000203 -1.2430165011345635E-20
vn 1.5E-05 -9.999999999387675E-07 1
vn 1.5E-05 -9.999999999387675E-07 1
vn 1E-06 1.0000000000612324E-06 1
vn 1E-06 1.0000000000612324E-06 1
vn 1E-06 1.0000000000612324E-06 1
vn 4E-06 -9.999999999387675E-07 1
vn -1E-06 6.123233995736766E-17 1
vn -1E-06 6.123233995736766E-17 1
vn -1E-06 6.123233995736766E-17 1
vn 0 6.123233995736766E-17 1
vn 0 -9.999999999387675E-07 1
vn -2E-06 -9.999999999387675E-07 1
vn -2E-06 -9.999999999387675E-07 1
vn -1E-06 -1.9999999999387675E-06 1
vn -1E-06 -1.9999999999387675E-06 1
vn 1E-06 -1.9999999999387675E-06 1
vn 1E-06 -1.9999999999387675E-06 1
vn 2E-06 -9.999999999387675E-07 1
vn 2E-06 -9.999999999387675E-07 1
vn 2E-06 -9.999999999387675E-07 1
vn 2E-06 -9.999999999387675E-07 1
vn -0.22831 0.863877 -0.44898800000000005
vn 0.011052 0.693354 0.720512
vn 0.710244 0.587926 -0.38716400000000006
vn 0.818426 -0.10637599999999997 0.56468
vn 0.824716 -0.371351 -0.426546
vn 0 1.0000000000612324E-06 1
vn -0 1.0000000000612324E-06 1
vn -0 6.123233995736766E-17 1
vn -0 6.123233995736766E-17 1
vn -0 6.123233995736766E-17 1
vn -0.680233 0.730048 0.06567399999999995
vn -0.730797 -0.677529 0.08300700000000004
vn -0.69546 -0.616309 0.36945700000000004
vn -0.606869 0.645844 0.46324499999999996
vn 1E-06 -1.9999999999387675E-06 1
vn 0.525898 0.752743 0.3959909999999999
vn -0.765142 -0.639063 -0.07845599999999996
vn -0.765143 -0.639064 -0.07845299999999995
vn -0.765139 -0.639067 -0.07845799999999996
vn -0.765139 -0.639067 -0.07845799999999996
vn -0.765139 -0.639067 -0.07845799999999996
vn -0.467428 -0.38249299999999997 0.797001
vn 0.100837 -0.564826 0.819026
vn -0.442373 0.28887300000000005 0.849034
vn 0.562038 -0.08327599999999995 0.822909
vn 0.317912 0.635129 0.703949
vn -0 6.123233995736766E-17 1
vn -1E-06 6.123233995736766E-17 1
vn -0 6.123233995736766E-17 1
vn -0 6.123233995736766E-17 1
vn 0 6.123233995736766E-17 1
vn -0.942504 -0.314178 0.11392800000000002
vn 0.353147 -0.931759 0.08433000000000006
vn 0.375066 -0.850207 0.36942400000000003
vn -0.87735 -0.14937799999999998 0.456007
vn 0.165407 0.19952700000000007 0.965831
vn 0.982447 -0.186513 0.0033660000000000113
vn 0.981502 0.191393 0.004750999999999988
vn 0.656519 -0.754309 -8.499999999995382E-05
vn 0.329749 -0.944066 -0.002122999999999942
vn -0.324931 -0.945725 -0.004835999999999942
vn -0.652705 -0.757592 -0.005488999999999954
vn -0.981481 -0.1915 -0.004750999999999988
vn -0.982445 0.186523 -0.0033660000000000113
vn -0.656583 0.754254 8.399999999995381E-05
vn -0.329665 0.944096 0.002122999999999942
vn 0.324942 0.945722 0.004836999999999942
vn 0.652763 0.757542 0.005489999999999954
vn 0.981502 0.191393 0.004750999999999988
vn 0.982447 -0.186513 0.0033660000000000113
vn -0.285918 0.958254 -5.867613469350739E-17
vn -0.965925 0.258821 -1.5848215460105855E-17
vn -0.821666 0.22016600000000003 0.52573
vn 0.143768 0.767173 0.625121
vn 0.933581 0.358365 -2.194352750882206E-17
vn 0.794152 0.30484400000000006 0.52573
vn 0.50833 -0.38845399999999997 0.768573
vn 0.428715 -0.90344 5.531974521108424E-17
vn 0.522521 0.47415100000000004 0.708627
vn -0.290793 -0.14443699999999995 0.945821
vn 0.410028 -0.744659 0.52665
vn 0.648966 -0.726498 0.22593100000000005
vn 0.647515 0.611034 0.45536899999999997
vn -0.260661 -0.915828 0.30547500000000005
vn 0.340435 -0.932661 0.11935900000000006
vn 0.410028 -0.744659 0.52665
vn -0.999971 0.0004370000000000005 0.007563
vn -0.999913 -0.013224 8.097364635962299E-19
vn -0.999961 -0.007301 0.004947000000000001
vn -0.999946 0.0020530000000000006 0.010222
vn -0.999961 0.00565 0.006786
vn -0.995477 0.093766 0.015281999999999995
vn -0.985598 0.169105 -1.0000000000103547E-06
vn -0.906134 0.422389 0.022575999999999975
vn -0.967845 0.251547 -2.0000000000154028E-06
vn -0.842901 0.535045 0.056970999999999966
vn -0.609285 0.791757 0.04350699999999995
vn -0.707107 0.707107 -4.329781621023438E-17
vn -0.445167 0.892787 0.06898199999999995
vn -0.118314 0.989481 0.08323899999999994
vn 0.070876 0.99323 0.09203399999999995
vn 0.506512 0.859794 0.06480199999999994
vn 0.594903 0.800346 0.07440699999999995
vn 0.865326 0.499633 0.03972899999999997
vn 0.707107 0.707106 1.6999999999956703E-05
vn 0.955852 0.291125 0.03992299999999998
vn 0.9982 0.059015 0.010645999999999996
vn 0.989898 0.14178 -2.0000000000086816E-06
vn 0.999997 -0.002463 1.5081525331499653E-19
vn 0.999998 -0.002067 -0.0007629999999999999
vn 0.999998 -0.001268 -0.001525
vn 0 6.123233995736766E-17 1
vn 0 6.123233995736766E-17 1
vn 0 6.123233995736766E-17 1
vn 0 6.123233995736766E-17 1
vn 0 6.123233995736766E-17 1
vn 0 6.123233995736766E-17 1
vn 0 6.123233995736766E-17 1
vn 0 6.123233995736766E-17 1
vn -0 6.123233995736766E-17 1
vn 0 6.123233995736766E-17 1
vn -1E-06 6.123233995736766E-17 1
vn -1E-06 6.123233995736766E-17 1
vn -0.046199 -0.998913 -0.006174999999999938
vn -0.035238 -0.999379 6.119431467425414E-17
vn 0.000706 -0.999981 -0.006181999999999938
vn 0.000874 -0.999923 -0.01236999999999994
vn 0.116686 -0.993142 0.007309000000000061
vn 0.073729 -0.997278 6.10656655280037E-17
vn 0.374248 -0.926911 0.027817000000000057
vn 0.575225 -0.816969 0.04095700000000005
vn 0.865273 -0.4998 0.03877300000000003
vn 0.865151 -0.49998 0.03915200000000003
vn 0.999219 0.028688 0.027173999999999997
vn 0.997604 0.059363 0.03553699999999999
vn 0.889292 0.45721 0.010871999999999972
vn 0.818111 0.575061 -3.521233064822381E-17
vn 0.499142 0.86652 0.0002759999999999469
vn 0.498282 0.867015 -5.3089357228137124E-17
vn 0.088423 0.996083 0.0005959999999999389
vn -0.088125 0.996109 0.0005959999999999389
vn -0.499462 0.866336 0.00017299999999994696
vn -0.5 0.866025 -5.3028737211579333E-17
vn -0.707106 0.707107 -4.329781621023438E-17
vn -0.707106 0.707107 -4.329781621023438E-17
vn -0.892443 0.07026200000000003 0.445656
vn -0.561525 -0.674346 0.47952800000000007
vn -0.301335 -0.45939099999999994 0.835558
vn -0.728527 0.633692 0.2601589999999999
vn -0.954301 0.17181000000000002 0.244524
vn -0.709633 0.694046 0.12133399999999996
vn -0.561525 -0.674346 0.47952800000000007
vn -0.363682 -0.853152 0.37398700000000007
vn 0.464107 -0.802255 0.37548800000000004
vn 0.560265 -0.802798 0.20400400000000005
vn 0.892981 -0.441635 0.08685300000000003
vn 0.762531 -0.541197 0.35447500000000004
vn -0.301335 -0.45939099999999994 0.835558
vn -0.561525 -0.674346 0.47952800000000007
vn -0.693225 0.713795 0.09967299999999996
vn -0.927657 -0.364118 0.08289000000000003
vn -0.848363 -0.381822 0.366732
vn -0.251213 0.878739 0.4058439999999999
vn 0.188431 0.977699 0.09272999999999995
vn 0.621412 0.49758500000000006 0.605191
vn 0.078069 -0.11981099999999995 0.989723
vn 0.621412 0.49758500000000006 0.605191
vn 0.572373 0.46854400000000007 0.672945
vn -0.292935 0.654523 0.696986
vn -0.194235 0.904128 0.38055999999999995
vn 0.811635 0.464714 0.35396299999999997
vn 0.024091 -0.10479899999999995 0.994202
vn 0.626905 -0.36760199999999993 0.68692
vn 0.703224 -0.608287 0.3680530000000001
vn 0.024091 -0.10479899999999995 0.994202
vn -0.236751 -0.737458 0.632538
vn -0.266759 -0.904198 0.33356600000000003
vn 0.024091 -0.10479899999999995 0.994202
vn -0.927525 -0.057646999999999976 0.36929
vn 0.024091 -0.10479899999999995 0.994202
vn -0.708701 -0.03293499999999996 0.70474
vn -0.194235 0.904128 0.38055999999999995
vn -0.292935 0.654523 0.696986
vn -0.002938 -0.002626999999999939 0.999992
vn -0.002928 -0.002636999999999939 0.999992
vn -0.002931 -0.002621999999999939 0.999992
vn -0.002931 -0.002621999999999939 0.999992
vn -0.002931 -0.002621999999999939 0.999992
vn -0.002928 -0.002636999999999939 0.999992
vn 0 -9.999999999387675E-07 1
vn -0 6.123233995736766E-17 1
vn 1E-06 -9.999999999387675E-07 1
vn -1E-06 6.123233995736766E-17 1
vn -0 6.123233995736766E-17 1
vn 0 6.123233995736766E-17 1
vn 1E-06 -9.999999999387675E-07 1
vn 4E-06 -9.999999999387675E-07 1
vn 6E-06 -9.999999999387675E-07 1
vn 0.090961 -0.988558 0.12032800000000006
vn 0.090102 -0.990598 0.10294800000000005
vn 0.630772 -0.769171 0.10248300000000005
vn 0.623138 -0.770189 0.13604500000000005
vn 0.331412 -0.838006 0.43348800000000004
vn 0.958563 -0.247399 0.14124600000000004
vn 0.961948 -0.253578 0.10175700000000001
vn 0.777955 -0.501572 0.37843400000000005
vn 0.590398 -0.3052289999999999 0.747171
vn 0.93182 0.349583 0.09748299999999997
vn 0.885741 0.05939800000000003 0.460364
vn 0.572373 0.46854400000000007 0.672945
vn 0.626905 -0.36760199999999993 0.68692
vn 0.924498 0.345676 0.16065999999999997
vn 0.496939 0.4509870000000001 0.741392
vn -0.292935 0.654523 0.696986
vn 0.734427 0.556461 0.3885469999999999
vn 0.587737 0.795661 0.14658999999999994
vn 0.592781 0.799246 0.09907599999999994
vn 1.8E-05 0.994267 0.10692799999999994
vn 0.2819 0.82994 0.4813859999999999
vn -0.288477 0.57524 0.765428
vn -0.708701 -0.03293499999999996 0.70474
vn 0.003426 0.984239 0.17680899999999994
vn -0.317189 0.850702 0.41916299999999995
vn -0.635802 0.757952 0.14582299999999995
vn -0.633683 0.766086 0.10751199999999995
vn -0.966264 0.236559 0.10185199999999998
vn -0.76003 0.45740100000000006 0.46166999999999997
vn -0.961456 0.239156 0.13567399999999996
vn -0.927101 -0.355856 0.11768400000000002
vn -0.929397 -0.355151 0.10044800000000002
vn -0.523967 -0.845417 0.10357900000000006
vn -0.931551 -0.05530699999999998 0.359381
vn -0.689684 -0.03912099999999996 0.723053
vn -0.709593 -0.558224 0.42995800000000006
vn -0.192309 -0.631944 0.750776
vn -0.236751 -0.737458 0.632538
vn 0.626905 -0.36760199999999993 0.68692
vn 0.590398 -0.3052289999999999 0.747171
vn 0.331412 -0.838006 0.43348800000000004
vn -0.225057 -0.908211 0.3528490000000001
vn 0.090961 -0.988558 0.12032800000000006
vn 0.090102 -0.990598 0.10294800000000005
vn -0.529358 -0.838298 0.13052200000000005
g 01
f 1/1/1 2/2/2 3/3/3
f 4/4/4 5/5/5 6/6/6
f 7/7/7 8/8/8 9/9/9
f 10/10/10 11/11/11 12/12/12
f 13/13/13 14/14/14 15/15/15
f 16/16/16 17/17/17 18/18/18
f 19/19/19 20/20/20 21/21/21
f 22/22/22 23/23/23 24/24/24
f 25/25/25 26/26/26 27/27/27
f 28/28/28 29/29/29 30/30/30
f 31/31/31 32/32/32 33/33/33
f 34/34/34 35/35/35 36/36/36
f 37/37/37 38/38/38 39/39/39
f 40/40/40 41/41/41 42/42/42
f 43/43/43 44/44/44 45/45/45
f 46/46/46 47/47/47 48/48/48
f 49/49/49 46/46/46 50/50/50
f 51/51/51 52/52/52 53/53/53
f 54/54/54 51/51/51 55/55/55
f 55/55/55 56/56/56 54/54/54
f 57/57/57 58/58/58 59/59/59
f 60/60/60 57/57/57 61/61/61
f 62/62/62 63/63/63 64/64/64
f 65/65/65 62/62/62 66/66/66
f 66/66/66 67/67/67 65/65/65
f 68/68/68 66/66/66 69/69/69
f 69/69/69 70/70/70 68/68/68
f 71/71/71 69/69/69 72/72/72
f 73/73/73 74/74/74 75/75/75
f 76/76/76 77/77/77 73/73/73
f 76/76/76 78/78/78 79/79/79
f 79/79/79 77/77/77 76/76/76
f 77/77/77 79/79/79 80/80/80
f 81/81/81 82/82/82 77/77/77
f 77/77/77 83/83/83 81/81/81
f 80/80/80 84/84/84 77/77/77
f 84/84/84 80/80/80 85/85/85
f 85/85/85 86/86/86 84/84/84
f 87/87/87 86/86/86 85/85/85
f 85/85/85 88/88/88 87/87/87
f 89/89/89 90/90/90 87/87/87
f 87/87/87 91/91/91 89/89/89
f 91/91/91 87/87/87 88/88/88
f 88/88/88 92/92/92 91/91/91
f 93/93/93 86/86/86 94/94/94
f 94/94/94 95/95/95 93/93/93
f 96/96/96 86/86/86 97/97/97
f 97/97/97 98/98/98 96/96/96
f 99/99/99 100/100/100 101/101/101
f 101/101/101 102/102/102 103/103/103
f 104/104/104 105/105/105 102/102/102
f 102/102/102 106/106/106 107/107/107
f 108/108/108 106/106/106 109/109/109
f 110/110/110 111/111/111 112/112/112
f 112/112/112 113/113/113 114/114/114
f 115/115/115 116/116/116 117/117/117
f 116/116/116 118/118/118 119/119/119
f 118/118/118 120/120/120 121/121/121
f 122/122/122 123/123/123 124/124/124
f 124/124/124 125/125/125 126/126/126
f 127/127/127 128/128/128 129/129/129
f 129/129/129 130/130/130 131/131/131
f 132/132/132 133/133/133 134/134/134
f 134/134/134 135/135/135 136/136/136
f 136/136/136 137/137/137 138/138/138
f 139/139/139 140/140/140 141/141/141
f 140/140/140 142/142/142 143/143/143
f 143/143/143 144/144/144 140/140/140
f 145/145/145 146/146/146 147/147/147
f 148/148/148 149/149/149 145/145/145
f 149/149/149 150/150/150 145/145/145
f 145/145/145 150/150/150 151/151/151
f 152/152/152 153/153/153 154/154/154
f 154/154/154 155/155/155 156/156/156
f 154/154/154 157/157/157 158/158/158
f 159/159/159 157/157/157 154/154/154
f 160/160/160 157/157/157 159/159/159
f 161/161/161 157/157/157 160/160/160
f 162/162/162 163/163/163 164/164/164
f 164/164/164 165/165/165 162/162/162
f 166/166/166 167/167/167 168/168/168
f 168/168/168 169/169/169 166/166/166
f 170/170/170 171/171/171 172/172/172
f 172/172/172 173/173/173 170/170/170
f 174/174/174 175/175/175 176/176/176
f 176/176/176 177/177/177 174/174/174
f 178/178/178 179/179/179 180/180/180
f 180/180/180 181/181/181 178/178/178
f 182/182/182 183/183/183 184/184/184
f 184/184/184 185/185/185 182/182/182
f 186/186/186 187/187/187 188/188/188
f 188/188/188 189/189/189 186/186/186
f 190/190/190 191/191/191 192/192/192
f 192/192/192 193/193/193 190/190/190
f 194/194/194 195/195/195 196/196/196
f 196/196/196 197/197/197 194/194/194
f 198/198/198 199/199/199 200/200/200
f 200/200/200 201/201/201 198/198/198
f 202/202/202 203/203/203 204/204/204
f 204/204/204 205/205/205 202/202/202
f 206/206/206 207/207/207 208/208/208
f 208/208/208 209/209/209 206/206/206
f 210/210/210 211/211/211 212/212/212
f 212/212/212 213/213/213 210/210/210
f 214/214/214 215/215/215 216/216/216
f 216/216/216 217/217/217 214/214/214
f 218/218/218 219/219/219 220/220/220
f 220/220/220 221/221/221 218/218/218
f 222/222/222 223/223/223 224/224/224
f 224/224/224 225/225/225 222/222/222
f 226/226/226 227/227/227 228/228/228
f 228/228/228 229/229/229 226/226/226
f 230/230/230 231/231/231 232/232/232
f 232/232/232 233/233/233 230/230/230
f 234/234/234 235/235/235 236/236/236
f 236/236/236 237/237/237 234/234/234
f 238/238/238 239/239/239 240/240/240
f 240/240/240 241/241/241 238/238/238
f 242/242/242 243/243/243 244/244/244
f 244/244/244 245/245/245 242/242/242
f 246/246/246 247/247/247 248/248/248
f 248/248/248 249/249/249 246/246/246
f 250/250/250 251/251/251 252/252/252
f 252/252/252 253/253/253 250/250/250
f 254/254/254 255/255/255 256/256/256
f 257/257/257 255/255/255 254/254/254
f 258/258/258 259/259/259 260/260/260
f 260/260/260 261/261/261 258/258/258
f 262/262/262 263/263/263 264/264/264
f 264/264/264 265/265/265 262/262/262
f 266/266/266 267/267/267 268/268/268
f 268/268/268 269/269/269 266/266/266
f 270/270/270 271/271/271 272/272/272
f 272/272/272 273/273/273 270/270/270
f 274/274/274 275/275/275 276/276/276
f 276/276/276 277/277/277 274/274/274
f 278/278/278 279/279/279 280/280/280
f 280/280/280 281/281/281 278/278/278
f 282/282/282 283/283/283 284/284/284
f 284/284/284 285/285/285 282/282/282
f 286/286/286 287/287/287 288/288/288
f 288/288/288 289/289/289 286/286/286
f 290/290/290 291/291/291 292/292/292
f 292/292/292 293/293/293 290/290/290
f 294/294/294 295/295/295 296/296/296
f 296/296/296 297/297/297 294/294/294
f 297/297/297 298/298/298 299/299/299
f 300/300/300 298/298/298 297/297/297
f 301/301/301 302/302/302 303/303/303
f 303/303/303 304/304/304 301/301/301
f 305/305/305 306/306/306 307/307/307
f 307/307/307 308/308/308 305/305/305
f 309/309/309 310/310/310 311/311/311
f 311/311/311 312/312/312 309/309/309
f 313/313/313 314/314/314 315/315/315
f 315/315/315 316/316/316 313/313/313
f 317/317/317 318/318/318 319/319/319
f 319/319/319 320/320/320 317/317/317
f 321/321/321 322/322/322 323/323/323
f 323/323/323 324/324/324 321/321/321
f 325/325/325 326/326/326 327/327/327
f 327/327/327 328/328/328 325/325/325
f 329/329/329 330/330/330 331/331/331
f 331/331/331 332/332/332 329/329/329
f 333/333/333 334/334/334 335/335/335
f 335/335/335 336/336/336 333/333/333
f 337/337/337 338/338/338 339/339/339
f 339/339/339 340/340/340 337/337/337
f 341/341/341 342/342/342 343/343/343
f 343/343/343 344/344/344 341/341/341
f 345/345/345 346/346/346 347/347/347
f 347/347/347 348/348/348 345/345/345
f 349/349/349 350/350/350 351/351/351
f 351/351/351 352/352/352 349/349/349
f 353/353/353 354/354/354 355/355/355
f 355/355/355 356/356/356 353/353/353
f 357/357/357 358/358/358 359/359/359
f 359/359/359 360/360/360 357/357/357
f 361/361/361 362/362/362 363/363/363
f 363/363/363 364/364/364 361/361/361
f 365/365/365 366/366/366 367/367/367
f 367/367/367 368/368/368 365/365/365
f 369/369/369 370/370/370 371/371/371
f 371/371/371 372/372/372 369/369/369
f 373/373/373 374/374/374 375/375/375
f 375/375/375 376/376/376 373/373/373
f 377/377/377 378/378/378 379/379/379
f 379/379/379 380/380/380 377/377/377
f 380/380/380 379/379/379 381/381/381
f 381/381/381 382/382/382 380/380/380
f 382/382/382 381/381/381 383/383/383
f 383/383/383 384/384/384 382/382/382
f 384/384/384 383/383/383 385/385/385
f 385/385/385 386/386/386 384/384/384
f 386/386/386 385/385/385 387/387/387
f 387/387/387 388/388/388 386/386/386
f 388/388/388 387/387/387 389/389/389
f 389/389/389 390/390/390 388/388/388
f 390/390/390 389/389/389 391/391/391
f 391/391/391 392/392/392 390/390/390
f 392/392/392 391/391/391 393/393/393
f 393/393/393 394/394/394 392/392/392
f 395/395/395 394/394/394 393/393/393
f 393/393/393 396/396/396 395/395/395
f 397/397/397 395/395/395 396/396/396
f 396/396/396 398/398/398 397/397/397
f 399/399/399 400/400/400 401/401/401
f 401/401/401 402/402/402 399/399/399
f 402/402/402 401/401/401 403/403/403
f 403/403/403 404/404/404 402/402/402
f 404/404/404 403/403/403 405/405/405
f 406/406/406 404/404/404 405/405/405
f 407/407/407 406/406/406 405/405/405
f 406/406/406 407/407/407 408/408/408
f 408/408/408 409/409/409 406/406/406
f 409/409/409 408/408/408 410/410/410
f 410/410/410 411/411/411 409/409/409
f 411/411/411 410/410/410 412/412/412
f 413/413/413 411/411/411 412/412/412
f 414/414/414 413/413/413 412/412/412
f 413/413/413 414/414/414 415/415/415
f 414/414/414 416/416/416 415/415/415
f 417/417/417 413/413/413 415/415/415
f 417/417/417 415/415/415 418/418/418
f 418/418/418 419/419/419 417/417/417
f 420/420/420 421/421/421 422/422/422
f 421/421/421 423/423/423 422/422/422
f 423/423/423 424/424/424 422/422/422
f 425/425/425 426/426/426 427/427/427
f 427/427/427 428/428/428 425/425/425
f 428/428/428 427/427/427 429/429/429
f 429/429/429 430/430/430 428/428/428
f 431/431/431 432/432/432 433/433/433
f 433/433/433 434/434/434 431/431/431
f 434/434/434 433/433/433 435/435/435
f 436/436/436 437/437/437 438/438/438
f 438/438/438 439/439/439 436/436/436
f 439/439/439 438/438/438 440/440/440
f 440/440/440 441/441/441 439/439/439
f 441/441/441 440/440/440 442/442/442
f 442/442/442 443/443/443 441/441/441
f 443/443/443 442/442/442 444/444/444
f 444/444/444 445/445/445 443/443/443
f 446/446/446 447/447/447 448/448/448
f 447/447/447 449/449/449 448/448/448
f 449/449/449 450/450/450 448/448/448
f 451/451/451 452/452/452 453/453/453
f 452/452/452 454/454/454 453/453/453
f 454/454/454 455/455/455 453/453/453
f 456/456/456 457/457/457 458/458/458
f 458/458/458 459/459/459 456/456/456
f 458/458/458 460/460/460 459/459/459
f 459/459/459 460/460/460 461/461/461
f 462/462/462 463/463/463 464/464/464
f 463/463/463 465/465/465 464/464/464
f 465/465/465 466/466/466 464/464/464
f 467/467/467 468/468/468 469/469/469
f 468/468/468 470/470/470 469/469/469
f 470/470/470 471/471/471 469/469/469
f 472/472/472 473/473/473 474/474/474
f 473/473/473 475/475/475 474/474/474
f 475/475/475 476/476/476 474/474/474
f 477/477/477 478/478/478 479/479/479
f 479/479/479 480/480/480 477/477/477
f 479/479/479 481/481/481 480/480/480
f 482/482/482 483/483/483 484/484/484
f 484/484/484 485/485/485 482/482/482
f 485/485/485 484/484/484 486/486/486
f 486/486/486 487/487/487 485/485/485
f 487/487/487 486/486/486 488/488/488
f 488/488/488 489/489/489 487/487/487
f 489/489/489 488/488/488 490/490/490
f 490/490/490 491/491/491 489/489/489
f 491/491/491 490/490/490 492/492/492
f 492/492/492 493/493/493 491/491/491
f 493/493/493 492/492/492 494/494/494
f 494/494/494 495/495/495 493/493/493
f 496/496/496 497/497/497 498/498/498
f 498/498/498 499/499/499 496/496/496
f 496/496/496 499/499/499 500/500/500
f 499/499/499 501/501/501 500/500/500
f 501/501/501 502/502/502 500/500/500
f 502/502/502 503/503/503 500/500/500
f 504/504/504 505/505/505 506/506/506
f 504/504/504 506/506/506 507/507/507
f 507/507/507 508/508/508 504/504/504
f 509/509/509 510/510/510 507/507/507
f 507/507/507 511/511/511 509/509/509
f 512/512/512 513/513/513 514/514/514
f 514/514/514 515/515/515 512/512/512
f 512/512/512 515/515/515 516/516/516
f 517/517/517 512/512/512 516/516/516
f 516/516/516 518/518/518 517/517/517
f 517/517/517 518/518/518 519/519/519
f 518/518/518 520/520/520 519/519/519
f 521/521/521 517/517/517 519/519/519
f 521/521/521 519/519/519 522/522/522
f 519/519/519 523/523/523 522/522/522
f 524/524/524 521/521/521 522/522/522
f 524/524/524 522/522/522 525/525/525
f 525/525/525 526/526/526 524/524/524
f 526/526/526 525/525/525 527/527/527
f 527/527/527 528/528/528 526/526/526
f 528/528/528 527/527/527 529/529/529
f 527/527/527 530/530/530 529/529/529
f 531/531/531 528/528/528 529/529/529
f 531/531/531 529/529/529 532/532/532
f 529/529/529 533/533/533 532/532/532
f 534/534/534 531/531/531 532/532/532
f 535/535/535 534/534/534 532/532/532
f 532/532/532 536/536/536 535/535/535
f 537/537/537 538/538/538 539/539/539
f 537/537/537 539/539/539 540/540/540
f 537/537/537 540/540/540 541/541/541
f 537/537/537 541/541/541 542/542/542
f 543/543/543 544/544/544 542/542/542
f 541/541/541 543/543/543 542/542/542
f 541/541/541 545/545/545 543/543/543
f 541/541/541 546/546/546 545/545/545
f 545/545/545 547/547/547 543/543/543
f 545/545/545 548/548/548 547/547/547
f 549/549/549 550/550/550 551/551/551
f 551/551/551 552/552/552 549/549/549
f 553/553/553 552/552/552 551/551/551
f 551/551/551 554/554/554 553/553/553
f 553/553/553 554/554/554 555/555/555
f 555/555/555 556/556/556 553/553/553
f 556/556/556 555/555/555 557/557/557
f 557/557/557 558/558/558 556/556/556
f 559/559/559 558/558/558 557/557/557
f 557/557/557 560/560/560 559/559/559
f 559/559/559 560/560/560 561/561/561
f 561/561/561 562/562/562 559/559/559
f 562/562/562 561/561/561 563/563/563
f 563/563/563 564/564/564 562/562/562
f 565/565/565 564/564/564 563/563/563
f 563/563/563 566/566/566 565/565/565
f 567/567/567 565/565/565 566/566/566
f 566/566/566 568/568/568 567/567/567
f 567/567/567 568/568/568 569/569/569
f 569/569/569 570/570/570 567/567/567
f 571/571/571 572/572/572 573/573/573
f 573/573/573 574/574/574 571/571/571
f 575/575/575 571/571/571 574/574/574
f 574/574/574 576/576/576 575/575/575
f 577/577/577 571/571/571 575/575/575
f 575/575/575 578/578/578 577/577/577
f 579/579/579 577/577/577 578/578/578
f 578/578/578 580/580/580 579/579/579
f 579/579/579 580/580/580 581/581/581
f 581/581/581 582/582/582 579/579/579
f 579/579/579 582/582/582 583/583/583
f 583/583/583 584/584/584 579/579/579
f 585/585/585 586/586/586 587/587/587
f 587/587/587 588/588/588 585/585/585
f 589/589/589 585/585/585 588/588/588
f 588/588/588 590/590/590 589/589/589
f 587/587/587 591/591/591 588/588/588
f 588/588/588 591/591/591 592/592/592
f 593/593/593 594/594/594 595/595/595
f 595/595/595 596/596/596 593/593/593
f 596/596/596 595/595/595 597/597/597
f 598/598/598 593/593/593 596/596/596
f 596/596/596 599/599/599 598/598/598
f 599/599/599 596/596/596 600/600/600
f 601/601/601 598/598/598 599/599/599
f 602/602/602 599/599/599 603/603/603
f 599/599/599 602/602/602 601/601/601
f 601/601/601 602/602/602 604/604/604
f 604/604/604 602/602/602 605/605/605
f 604/604/604 606/606/606 601/601/601
f 607/607/607 604/604/604 605/605/605
f 608/608/608 606/606/606 604/604/604
f 604/604/604 607/607/607 608/608/608
f 609/609/609 610/610/610 611/611/611
f 610/610/610 612/612/612 611/611/611
f 612/612/612 613/613/613 611/611/611
f 610/610/610 614/614/614 612/612/612
f 615/615/615 616/616/616 617/617/617
f 616/616/616 618/618/618 617/617/617
f 618/618/618 619/619/619 617/617/617
f 619/619/619 620/620/620 617/617/617
f 620/620/620 621/621/621 617/617/617
f 621/621/621 622/622/622 617/617/617
f 622/622/622 623/623/623 617/617/617
f 624/624/624 625/625/625 626/626/626
f 626/626/626 627/627/627 624/624/624
f 627/627/627 628/628/628 624/624/624
f 629/629/629 627/627/627 626/626/626
f 626/626/626 630/630/630 629/629/629
f 627/627/627 631/631/631 628/628/628
f 627/627/627 629/629/629 631/631/631
f 628/628/628 631/631/631 632/632/632
f 629/629/629 630/630/630 633/633/633
f 631/631/631 634/634/634 632/632/632
f 629/629/629 634/634/634 631/631/631
f 635/635/635 636/636/636 632/632/632
f 633/633/633 637/637/637 629/629/629
f 637/637/637 634/634/634 629/629/629
f 632/632/632 638/638/638 635/635/635
f 632/632/632 634/634/634 638/638/638
f 639/639/639 635/635/635 638/638/638
f 637/637/637 640/640/640 634/634/634
f 634/634/634 640/640/640 638/638/638
f 641/641/641 637/637/637 633/633/633
f 637/637/637 641/641/641 640/640/640
f 633/633/633 642/642/642 641/641/641
f 641/641/641 642/642/642 643/643/643
f 640/640/640 644/644/644 638/638/638
f 641/641/641 644/644/644 640/640/640
f 638/638/638 645/645/645 639/639/639
f 638/638/638 644/644/644 645/645/645
f 646/646/646 639/639/639 645/645/645
f 647/647/647 644/644/644 641/641/641
f 643/643/643 647/647/647 641/641/641
f 644/644/644 648/648/648 645/645/645
f 647/647/647 648/648/648 644/644/644
f 649/649/649 647/647/647 643/643/643
f 647/647/647 649/649/649 648/648/648
f 643/643/643 650/650/650 649/649/649
f 649/649/649 650/650/650 651/651/651
f 648/648/648 652/652/652 645/645/645
f 649/649/649 652/652/652 648/648/648
f 651/651/651 653/653/653 649/649/649
f 653/653/653 652/652/652 649/649/649
f 654/654/654 653/653/653 651/651/651
f 651/651/651 655/655/655 654/654/654
f 654/654/654 655/655/655 656/656/656
f 653/653/653 657/657/657 652/652/652
f 653/653/653 654/654/654 657/657/657
f 645/645/645 652/652/652 658/658/658
f 652/652/652 657/657/657 658/658/658
f 645/645/645 658/658/658 646/646/646
f 654/654/654 659/659/659 657/657/657
f 657/657/657 659/659/659 658/658/658
f 646/646/646 658/658/658 660/660/660
f 658/658/658 659/659/659 660/660/660
f 660/660/660 661/661/661 646/646/646
f 662/662/662 661/661/661 660/660/660
f 660/660/660 663/663/663 662/662/662
f 660/660/660 664/664/664 663/663/663
f 665/665/665 664/664/664 660/660/660
f 659/659/659 665/665/665 660/660/660
f 666/666/666 664/664/664 665/665/665
f 656/656/656 667/667/667 666/666/666
f 668/668/668 665/665/665 659/659/659
f 668/668/668 666/666/666 665/665/665
f 666/666/666 668/668/668 656/656/656
f 668/668/668 659/659/659 654/654/654
f 656/656/656 668/668/668 654/654/654
