v 0.3865 0.724417 0.11767599999999996
v 0.459347 1.23435 0.11767599999999993
v -1.256617 1.384092 0.11767599999999992
v -1.284947 0.870112 0.11767599999999995
v 0.544336 -1.02797 0.044434000000000064
v 0.698125 -1.0563 0.044434000000000064
v 0.414829 -0.841805 0.04443400000000005
v 0.989515 -1.032018 0.044434000000000064
v 1.204011 -0.906558 0.04443400000000006
v 1.305188 -0.671827 0.04443400000000004
v 1.309235 -0.465426 0.04443400000000003
v 1.062363 -0.246883 0.044434000000000015
v 0.997609 0.303521 0.04443399999999998
v 1.119022 0.704182 0.04443399999999996
v 0.928809 1.193879 0.044433999999999925
v 0.568618 1.218162 0.044433999999999925
vt 0.644161 0.729456
vt 0.672215 0.938202
vt 0.011409 0.999501
vt 0.000500 0.789097
vt 0.704943 0.012097
vt 0.764166 0.000500
vt 0.655071 0.088306
vt 0.876379 0.010440
vt 0.958979 0.061798
vt 0.997942 0.157888
vt 0.999501 0.242380
vt 0.904432 0.331843
vt 0.879496 0.557157
vt 0.926251 0.721172
vt 0.853001 0.921635
vt 0.714294 0.931575
vn 0 6.123233995736766E-17 1
vn 0 6.123233995736766E-17 1
vn 0 6.123233995736766E-17 1
vn 0 6.123233995736766E-17 1
vn 0 6.123233995736766E-17 1
vn 0 6.123233995736766E-17 1
vn 0 6.123233995736766E-17 1
vn 0 6.123233995736766E-17 1
vn 0 6.123233995736766E-17 1
vn 0 6.123233995736766E-17 1
vn 0 6.123233995736766E-17 1
vn 0 6.123233995736766E-17 1
vn 0 6.123233995736766E-17 1
vn 0 6.123233995736766E-17 1
vn 0 6.123233995736766E-17 1
vn 0 6.123233995736766E-17 1
g water
f 1/1/1 2/2/2 3/3/3
f 3/3/3 4/4/4 1/1/1
f 5/5/5 6/6/6 7/7/7
f 6/6/6 8/8/8 7/7/7
f 8/8/8 9/9/9 7/7/7
f 9/9/9 10/10/10 7/7/7
f 10/10/10 11/11/11 7/7/7
f 11/11/11 12/12/12 7/7/7
f 12/12/12 13/13/13 7/7/7
f 13/13/13 14/14/14 7/7/7
f 14/14/14 15/15/15 7/7/7
f 15/15/15 16/16/16 7/7/7
