v -0.384399 0.9615010000000002 0.9366379999999999
v -0.466975 -0.19390699999999994 0.964775
v -0.519454 -0.19128099999999995 0.91425
v -0.519454 -0.19128099999999995 0.91425
v -0.436879 0.964114 0.8810179999999999
v -0.436879 0.964114 0.8810179999999999
v -0.519454 -0.19128099999999995 0.91425
v -0.571966 -0.18640899999999994 0.964552
v -0.571966 -0.18640899999999994 0.964552
v -0.48939 0.9689990000000002 0.9364139999999999
v -0.48939 0.9689990000000002 0.9364139999999999
v -0.571966 -0.18640899999999994 0.964552
v -0.519486 -0.18902199999999994 1.020172
v -0.519486 -0.18902199999999994 1.020172
v -0.436911 0.9663730000000001 0.9869399999999999
v -0.392966 0.9092890000000001 1.218544
v -0.161669 0.884749 0.889639
v -0.490236 0.902572 0.65725
v -0.721532 0.9271120000000002 0.9861549999999999
v -0.262994 0.870747 0.733006
v -0.236733 0.8781770000000001 1.115163
v -0.622682 0.9063770000000001 1.140489
v -0.648944 0.898947 0.758331
v -0.436911 0.9663730000000001 0.9869399999999999
v -0.384399 0.9615010000000002 0.9366379999999999
v -0.436879 0.964114 0.8810179999999999
v -0.48939 0.9689990000000002 0.9364139999999999
v -0.519454 -0.19128099999999995 0.91425
v -0.466975 -0.19390699999999994 0.964775
v -0.519486 -0.18902199999999994 1.020172
v -0.571966 -0.18640899999999994 0.964552
v -0.436911 0.9663730000000001 0.9869399999999999
v -0.519486 -0.18902199999999994 1.020172
v -0.466975 -0.19390699999999994 0.964775
v -0.384399 0.9615010000000002 0.9366379999999999
vt 0.130802 0.006347
vt 0.465264 0.006347
vt 0.465264 0.026913
vt 0.465264 0.026913
vt 0.130802 0.026913
vt 0.130802 0.026913
vt 0.465264 0.026913
vt 0.465264 0.047477
vt 0.465264 0.047477
vt 0.130802 0.047477
vt 0.130802 0.047477
vt 0.465264 0.047477
vt 0.465264 0.068042
vt 0.465264 0.068042
vt 0.130802 0.068042
vt 0.989988 0.457668
vt 0.996003 0.568550
vt 0.885233 0.574478
vt 0.879218 0.463595
vt 0.878624 0.677584
vt 0.893400 0.572996
vt 0.999082 0.588231
vt 0.984307 0.692819
vt 0.491215 0.011626
vt 0.497112 0.028764
vt 0.479421 0.032191
vt 0.473523 0.015053
vt 0.492611 0.044049
vt 0.498508 0.061187
vt 0.480817 0.064614
vt 0.474920 0.047477
vt 0.130802 0.068042
vt 0.465264 0.068042
vt 0.465264 0.088607
vt 0.130802 0.088607
vn 0.948276 -0.07663900000000001 -0.308056
vn 0.948316 -0.05881199999999998 0.311831
vn 0.321455 -0.04876400000000006 -0.945668
vn 0.321455 -0.04876400000000006 -0.945668
vn -0.312357 -0.003624000000000058 -0.949958
vn -0.312357 -0.003624000000000058 -0.949958
vn 0.321455 -0.04876400000000006 -0.945668
vn -0.945285 0.05833199999999998 -0.32099
vn -0.945285 0.05833199999999998 -0.32099
vn -0.94523 0.07668600000000002 0.317268
vn -0.94523 0.07668600000000002 0.317268
vn -0.945285 0.05833199999999998 -0.32099
vn -0.312394 0.04824400000000006 0.948727
vn -0.312394 0.04824400000000006 0.948727
vn 0.321372 0.002852000000000058 0.946949
vn 0.071266 0.997162 -0.024284000000000062
vn 0.071266 0.997162 -0.024284000000000062
vn 0.071266 0.997162 -0.024284000000000062
vn 0.071266 0.997162 -0.024284000000000062
vn -0.071266 -0.997162 0.024284000000000062
vn -0.071266 -0.997162 0.024284000000000062
vn -0.071266 -0.997162 0.024284000000000062
vn -0.071266 -0.997162 0.024284000000000062
vn 0.071265 0.997231 -0.021245000000000062
vn 0.072168 0.997166 -0.021243000000000064
vn 0.071265 0.997231 -0.021245000000000062
vn 0.070361 0.997295 -0.021246000000000063
vn -0.071265 -0.997231 0.021246000000000063
vn -0.07036 -0.997295 0.021248000000000062
vn -0.071265 -0.997231 0.021246000000000063
vn -0.072169 -0.997166 0.02124400000000006
vn 0.321372 0.002852000000000058 0.946949
vn -0.312394 0.04824400000000006 0.948727
vn 0.948316 -0.05881199999999998 0.311831
vn 0.948276 -0.07663900000000001 -0.308056
g 01
f 1/1/1 2/2/2 3/3/3
f 4/4/4 5/5/5 1/1/1
f 6/6/6 7/7/7 8/8/8
f 9/9/9 10/10/10 6/6/6
f 11/11/11 12/12/12 13/13/13
f 14/14/14 15/15/15 11/11/11
f 16/16/16 17/17/17 18/18/18
f 18/18/18 19/19/19 16/16/16
f 20/20/20 21/21/21 22/22/22
f 22/22/22 23/23/23 20/20/20
f 24/24/24 25/25/25 26/26/26
f 26/26/26 27/27/27 24/24/24
f 28/28/28 29/29/29 30/30/30
f 30/30/30 31/31/31 28/28/28
f 32/32/32 33/33/33 34/34/34
f 34/34/34 35/35/35 32/32/32
