v -0.658263 -1.019279 6.241283823940576E-17
v -0.50759 -0.979948 6.000450907654253E-17
v -0.45493 -0.767437 4.699196327986237E-17
v -1.016803 -0.937038 5.737702936897188E-17
v -1.127833 -0.889417 5.4461084107862075E-17
v -1.194533 -0.635069 3.888676090438552E-17
v -0.436485 -0.504179 3.087205992736567E-17
v -1.205648 -0.364222 2.2302165323952364E-17
v -0.413901 -0.366875 2.2464614721859262E-17
v -0.413336 -0.071333 4.367886506178907E-18
v -1.148934 -0.070162 4.29618343608883E-18
v -0.949887 0.264382 -1.6188728502608778E-17
v -0.797645 0.359253 -2.1997901826704202E-17
v -0.470633 0.245227 -1.5015823030725398E-17
v -0.335662 0.095391 -5.841014140873259E-18
vt 0.000000 0.000000
vt 0.000000 0.000000
vt 0.000000 0.000000
vt 0.000000 0.000000
vt 0.000000 0.000000
vt 0.000000 0.000000
vt 0.000000 0.000000
vt 0.000000 0.000000
vt 0.000000 0.000000
vt 0.000000 0.000000
vt 0.000000 0.000000
vt 0.000000 0.000000
vt 0.000000 0.000000
vt 0.000000 0.000000
vt 0.000000 0.000000
vn -1E-06 6.123233995736766E-17 1
vn -1E-06 6.123233995736766E-17 1
vn -1E-06 6.123233995736766E-17 1
vn 0 6.123233995736766E-17 1
vn -0 6.123233995736766E-17 1
vn -0 6.123233995736766E-17 1
vn -0 6.123233995736766E-17 1
vn -0 6.123233995736766E-17 1
vn 0 6.123233995736766E-17 1
vn -0 6.123233995736766E-17 1
vn 0 6.123233995736766E-17 1
vn 0 6.123233995736766E-17 1
vn -0 6.123233995736766E-17 1
vn -0 6.123233995736766E-17 1
vn -1E-06 6.123233995736766E-17 1
g cutout
f 1/1/1 2/2/2 3/3/3
f 4/4/4 1/1/1 3/3/3
f 5/5/5 4/4/4 3/3/3
f 6/6/6 5/5/5 3/3/3
f 6/6/6 3/3/3 7/7/7
f 8/8/8 6/6/6 7/7/7
f 8/8/8 7/7/7 9/9/9
f 8/8/8 9/9/9 10/10/10
f 11/11/11 8/8/8 10/10/10
f 12/12/12 11/11/11 10/10/10
f 12/12/12 10/10/10 13/13/13
f 10/10/10 14/14/14 13/13/13
f 10/10/10 15/15/15 14/14/14
