v -0.158289 0.22724999999999998 -0.448753
v -0.158289 0.20655099999999998 -0.452403
v 0.096622 0.20655099999999998 -0.452403
v 0.096622 0.22725099999999998 -0.448753
v -0.158289 0.22724999999999998 -0.448753
v 0.096622 0.22725099999999998 -0.448753
v 0.096622 0.23110699999999998 -0.470627
v -0.158289 0.23110699999999998 -0.470626
v -0.158289 0.20655099999999998 -0.452403
v -0.158289 0.21040799999999998 -0.474276
v 0.096622 0.21040799999999998 -0.474276
v 0.096622 0.20655099999999998 -0.452403
v -0.158289 0.20823499999999998 -0.340913
v -0.158289 0.18753599999999998 -0.344562
v 0.096622 0.18753599999999998 -0.344563
v 0.096622 0.20823499999999998 -0.340913
v -0.158289 0.20823499999999998 -0.340913
v 0.096622 0.20823499999999998 -0.340913
v 0.096622 0.21209199999999997 -0.362786
v -0.158289 0.21209199999999997 -0.362786
v -0.158289 0.18753599999999998 -0.344562
v -0.158289 0.19139299999999998 -0.366436
v 0.096622 0.19139299999999998 -0.366436
v 0.096622 0.18753599999999998 -0.344563
v -0.158289 0.18238 -0.194281
v -0.158289 0.161681 -0.197931
v 0.096622 0.161681 -0.197931
v 0.096622 0.18238 -0.194281
v -0.158289 0.18238 -0.194281
v 0.096622 0.18238 -0.194281
v 0.096622 0.186237 -0.216155
v -0.158289 0.186237 -0.216155
v -0.158289 0.161681 -0.197931
v -0.158289 0.165538 -0.219805
v 0.096622 0.165538 -0.219805
v 0.096622 0.161681 -0.197931
v -0.158289 0.163365 -0.08644100000000002
v -0.158289 0.142666 -0.09009100000000002
v 0.096622 0.142666 -0.09009100000000002
v 0.096622 0.163365 -0.08644100000000002
v -0.158289 0.163365 -0.08644100000000002
v 0.096622 0.163365 -0.08644100000000002
v 0.096622 0.167222 -0.10831500000000001
v -0.158289 0.167222 -0.10831500000000001
v -0.158289 0.142666 -0.09009100000000002
v -0.158289 0.146523 -0.11196400000000001
v 0.096622 0.146523 -0.11196400000000001
v 0.096622 0.142666 -0.09009100000000002
v -0.158289 0.133895 0.08070599999999999
v -0.158289 0.113195 0.077057
v 0.096622 0.113195 0.077057
v 0.096622 0.133895 0.08070599999999999
v -0.158289 0.133895 0.08070599999999999
v 0.096622 0.133895 0.08070599999999999
v 0.096622 0.137752 0.058832999999999996
v -0.158289 0.137752 0.058832999999999996
v -0.158289 0.113195 0.077057
v -0.158289 0.117052 0.055182999999999996
v 0.096622 0.117052 0.055182999999999996
v 0.096622 0.113195 0.077057
v -0.158289 0.08689000000000002 0.347287
v -0.158289 0.06619000000000003 0.343637
v 0.096622 0.06619000000000003 0.343637
v 0.096622 0.08689000000000002 0.347287
v -0.158289 0.08689000000000002 0.347287
v 0.096622 0.08689000000000002 0.347287
v 0.096622 0.09074700000000001 0.325413
v -0.158289 0.09074600000000001 0.325413
v -0.158289 0.06619000000000003 0.343637
v -0.158289 0.07004700000000001 0.321764
v 0.096622 0.07004700000000001 0.321764
v 0.096622 0.06619000000000003 0.343637
v -0.158289 0.10971800000000001 0.217822
v -0.158289 0.08901800000000001 0.214173
v 0.096622 0.08901800000000001 0.214172
v 0.096622 0.10971800000000001 0.217822
v -0.158289 0.10971800000000001 0.217822
v 0.096622 0.10971800000000001 0.217822
v 0.096622 0.11357500000000001 0.195949
v -0.158289 0.11357500000000001 0.195949
v -0.158289 0.08901800000000001 0.214173
v -0.158289 0.09287500000000001 0.192299
v 0.096622 0.09287500000000001 0.192299
v 0.096622 0.08901800000000001 0.214172
v -0.158289 -0.38803999999999983 3.040747
v -0.158289 -0.40873899999999985 3.037097
v 0.096622 -0.40873899999999985 3.037097
v 0.096622 -0.38803999999999983 3.040747
v -0.158289 -0.38803999999999983 3.040747
v 0.096622 -0.38803999999999983 3.040747
v 0.096622 -0.38418299999999983 3.018874
v -0.158289 -0.38418299999999983 3.018874
v -0.158289 -0.40873899999999985 3.037097
v -0.158289 -0.40488199999999985 3.015224
v 0.096622 -0.40488199999999985 3.015224
v 0.096622 -0.40873899999999985 3.037097
v -0.158289 -0.4097049999999998 3.163618
v -0.158289 -0.43040399999999984 3.159968
v 0.096622 -0.43040399999999984 3.159968
v 0.096622 -0.4097049999999998 3.163618
v -0.158289 -0.4097049999999998 3.163618
v 0.096622 -0.4097049999999998 3.163618
v 0.096622 -0.4058479999999998 3.141744
v -0.158289 -0.4058479999999998 3.141744
v -0.158289 -0.43040399999999984 3.159968
v -0.158289 -0.4265479999999998 3.138094
v 0.096622 -0.4265479999999998 3.138094
v 0.096622 -0.43040399999999984 3.159968
v -0.158289 -0.06325399999999994 1.198796
v -0.158289 -0.08395399999999993 1.195146
v 0.096622 -0.08395399999999993 1.195146
v 0.096622 -0.06325399999999994 1.198796
v -0.158289 -0.06325399999999994 1.198796
v 0.096622 -0.06325399999999994 1.198796
v 0.096622 -0.05939699999999993 1.176922
v -0.158289 -0.05939699999999993 1.176922
v -0.158289 -0.08395399999999993 1.195146
v -0.158289 -0.08009699999999993 1.173272
v 0.096622 -0.08009699999999993 1.173272
v 0.096622 -0.08395399999999993 1.195146
v -0.158289 -0.08242599999999992 1.307523
v -0.158289 -0.10312499999999991 1.303873
v 0.096622 -0.10312499999999991 1.303873
v 0.096622 -0.08242599999999992 1.307523
v -0.158289 -0.08242599999999992 1.307523
v 0.096622 -0.08242599999999992 1.307523
v 0.096622 -0.07856899999999992 1.285649
v -0.158289 -0.07856899999999992 1.285649
v -0.158289 -0.10312499999999991 1.303873
v -0.158289 -0.09926799999999991 1.281999
v 0.096622 -0.09926799999999991 1.281999
v 0.096622 -0.10312499999999991 1.303873
v -0.158289 0.06371000000000003 0.478743
v -0.158289 0.04301100000000003 0.475093
v 0.096622 0.04301100000000003 0.475093
v 0.096622 0.06371000000000003 0.478742
v -0.158289 0.06371000000000003 0.478743
v 0.096622 0.06371000000000003 0.478742
v 0.096622 0.06756700000000003 0.456869
v -0.158289 0.06756700000000003 0.456869
v -0.158289 0.04301100000000003 0.475093
v -0.158289 0.04686800000000003 0.453219
v 0.096622 0.04686800000000003 0.453219
v 0.096622 0.04301100000000003 0.475093
v -0.158289 0.04469500000000003 0.586583
v -0.158289 0.023996000000000035 0.582933
v 0.096622 0.023996000000000035 0.582933
v 0.096622 0.04469500000000003 0.586583
v -0.158289 0.04469500000000003 0.586583
v 0.096622 0.04469500000000003 0.586583
v 0.096622 0.04855200000000003 0.564709
v -0.158289 0.04855200000000003 0.564709
v -0.158289 0.023996000000000035 0.582933
v -0.158289 0.027853000000000034 0.561059
v 0.096622 0.027853000000000034 0.561059
v 0.096622 0.023996000000000035 0.582933
v -0.158289 0.018840000000000044 0.733214
v -0.158289 -0.0018589999999999553 0.729564
v 0.096622 -0.0018589999999999553 0.729564
v 0.096622 0.018840000000000044 0.733214
v -0.158289 0.018840000000000044 0.733214
v 0.096622 0.018840000000000044 0.733214
v 0.096622 0.022697000000000044 0.71134
v -0.158289 0.022697000000000044 0.711341
v -0.158289 -0.0018589999999999553 0.729564
v -0.158289 0.0019980000000000436 0.707691
v 0.096622 0.0019980000000000436 0.707691
v 0.096622 -0.0018589999999999553 0.729564
v -0.158289 -0.0001749999999999485 0.841054
v -0.158289 -0.020873999999999948 0.837405
v 0.096622 -0.020873999999999948 0.837404
v 0.096622 -0.0001749999999999485 0.841054
v -0.158289 -0.0001749999999999485 0.841054
v 0.096622 -0.0001749999999999485 0.841054
v 0.096622 0.0036820000000000503 0.819181
v -0.158289 0.0036820000000000503 0.819181
v -0.158289 -0.020873999999999948 0.837405
v -0.158289 -0.017016999999999952 0.815531
v 0.096622 -0.017016999999999952 0.815531
v 0.096622 -0.020873999999999948 0.837404
v -0.158289 -0.02141099999999994 0.961491
v -0.158289 -0.04211099999999995 0.957841
v 0.096622 -0.04211099999999995 0.957841
v 0.096622 -0.02141099999999994 0.961491
v -0.158289 -0.02141099999999994 0.961491
v 0.096622 -0.02141099999999994 0.961491
v 0.096622 -0.01755399999999994 0.939617
v -0.158289 -0.01755399999999994 0.939617
v -0.158289 -0.04211099999999995 0.957841
v -0.158289 -0.03825399999999995 0.935968
v 0.096622 -0.03825399999999995 0.935967
v 0.096622 -0.04211099999999995 0.957841
v -0.158289 -0.040425999999999934 1.069331
v -0.158289 -0.06112599999999994 1.065681
v 0.096622 -0.06112599999999994 1.065681
v 0.096622 -0.040425999999999934 1.069331
v -0.158289 -0.040425999999999934 1.069331
v 0.096622 -0.040425999999999934 1.069331
v 0.096622 -0.036568999999999935 1.047457
v -0.158289 -0.036568999999999935 1.047458
v -0.158289 -0.06112599999999994 1.065681
v -0.158289 -0.05726899999999994 1.043808
v 0.096622 -0.05726899999999994 1.043808
v 0.096622 -0.06112599999999994 1.065681
v -0.149586 0.20595999999999998 -0.578263
v -0.149586 -0.08594399999999994 1.077211
v -0.149586 -0.061038999999999934 1.081602
v -0.149588 0.23086399999999999 -0.573871
v -0.149588 0.23086399999999999 -0.573871
v -0.149586 -0.061038999999999934 1.081602
v -0.126085 -0.061038999999999934 1.081602
v -0.126085 0.23086399999999999 -0.573871
v -0.126087 0.20595999999999998 -0.578263
v -0.126085 -0.08594399999999994 1.077211
v -0.149586 -0.08594399999999994 1.077211
v -0.149586 0.20595999999999998 -0.578263
v -0.126085 -0.08594399999999994 1.077211
v -0.126087 0.20595999999999998 -0.578263
v -0.126085 0.23086399999999999 -0.573871
v -0.126085 -0.061038999999999934 1.081602
v 0.059456 0.20595999999999998 -0.578263
v 0.059456 -0.08594299999999994 1.077211
v 0.059456 -0.061038999999999934 1.081602
v 0.059451 0.23086199999999998 -0.573872
v 0.059451 0.23086199999999998 -0.573872
v 0.059456 -0.061038999999999934 1.081602
v 0.082956 -0.061038999999999934 1.081602
v 0.082956 0.23086499999999996 -0.573872
v 0.082951 0.20595799999999997 -0.578263
v 0.082956 -0.08594299999999994 1.077211
v 0.059456 -0.08594299999999994 1.077211
v 0.059456 0.20595999999999998 -0.578263
v 0.082956 -0.08594299999999994 1.077211
v 0.082951 0.20595799999999997 -0.578263
v 0.082956 0.23086499999999996 -0.573872
v 0.082956 -0.061038999999999934 1.081602
v -0.158289 -0.10326699999999991 1.425717
v -0.158289 -0.12396599999999992 1.422068
v 0.096622 -0.12396599999999992 1.422068
v 0.096622 -0.10326699999999991 1.425717
v -0.158289 -0.10326699999999991 1.425717
v 0.096622 -0.10326699999999991 1.425717
v 0.096622 -0.09940999999999992 1.403844
v -0.158289 -0.09940999999999992 1.403844
v -0.158289 -0.12396599999999992 1.422068
v -0.158289 -0.12010899999999991 1.400194
v 0.096622 -0.12010899999999991 1.400194
v 0.096622 -0.12396599999999992 1.422068
v -0.158289 -0.1222819999999999 1.533558
v -0.158289 -0.1429809999999999 1.529908
v 0.096622 -0.1429809999999999 1.529908
v 0.096622 -0.1222819999999999 1.533558
v -0.158289 -0.1222819999999999 1.533558
v 0.096622 -0.1222819999999999 1.533558
v 0.096622 -0.1184249999999999 1.511684
v -0.158289 -0.1184249999999999 1.511684
v -0.158289 -0.1429809999999999 1.529908
v -0.158289 -0.13912399999999991 1.508034
v 0.096622 -0.13912399999999991 1.508034
v 0.096622 -0.1429809999999999 1.529908
v -0.158289 -0.14283499999999988 1.650121
v -0.158289 -0.1635339999999999 1.646471
v 0.096622 -0.1635339999999999 1.646471
v 0.096622 -0.14283499999999988 1.650121
v -0.158289 -0.14283499999999988 1.650121
v 0.096622 -0.14283499999999988 1.650121
v 0.096622 -0.13897799999999988 1.628247
v -0.158289 -0.13897799999999988 1.628247
v -0.158289 -0.1635339999999999 1.646471
v -0.158289 -0.1596769999999999 1.624597
v 0.096622 -0.1596769999999999 1.624597
v 0.096622 -0.1635339999999999 1.646471
v -0.158289 -0.16184999999999988 1.757961
v -0.158289 -0.18254999999999988 1.754311
v 0.096622 -0.18254899999999988 1.754311
v 0.096622 -0.16184999999999988 1.757961
v -0.158289 -0.16184999999999988 1.757961
v 0.096622 -0.16184999999999988 1.757961
v 0.096622 -0.15799299999999988 1.736087
v -0.158289 -0.15799299999999988 1.736087
v -0.158289 -0.18254999999999988 1.754311
v -0.158289 -0.17869299999999988 1.732437
v 0.096622 -0.17869299999999988 1.732437
v 0.096622 -0.18254899999999988 1.754311
v -0.158289 -0.1830859999999999 1.878398
v -0.158289 -0.20378599999999988 1.874748
v 0.096622 -0.20378599999999988 1.874748
v 0.096622 -0.1830859999999999 1.878397
v -0.158289 -0.1830859999999999 1.878398
v 0.096622 -0.1830859999999999 1.878397
v 0.096622 -0.1792289999999999 1.856524
v -0.158289 -0.1792289999999999 1.856524
v -0.158289 -0.20378599999999988 1.874748
v -0.158289 -0.19992899999999988 1.852874
v 0.096622 -0.19992899999999988 1.852874
v 0.096622 -0.20378599999999988 1.874748
v -0.158289 -0.2021009999999999 1.986238
v -0.158289 -0.2228009999999999 1.982588
v 0.096622 -0.2228009999999999 1.982588
v 0.096622 -0.2021009999999999 1.986238
v -0.158289 -0.2021009999999999 1.986238
v 0.096622 -0.2021009999999999 1.986238
v 0.096622 -0.1982439999999999 1.964364
v -0.158289 -0.1982439999999999 1.964364
v -0.158289 -0.2228009999999999 1.982588
v -0.158289 -0.2189439999999999 1.960714
v 0.096622 -0.2189439999999999 1.960714
v 0.096622 -0.2228009999999999 1.982588
v -0.158289 -0.22376699999999985 2.109108
v -0.158289 -0.24446599999999985 2.105458
v 0.096622 -0.24446599999999985 2.105458
v 0.096622 -0.22376699999999985 2.109108
v -0.158289 -0.22376699999999985 2.109108
v 0.096622 -0.22376699999999985 2.109108
v 0.096622 -0.21990999999999986 2.087234
v -0.158289 -0.21990999999999986 2.087234
v -0.158289 -0.24446599999999985 2.105458
v -0.158289 -0.24060899999999985 2.083584
v 0.096622 -0.24060899999999985 2.083584
v 0.096622 -0.24446599999999985 2.105458
v -0.158289 -0.24278199999999986 2.216948
v -0.158289 -0.2634809999999999 2.213298
v 0.096622 -0.2634809999999999 2.213298
v 0.096622 -0.24278199999999986 2.216948
v -0.158289 -0.24278199999999986 2.216948
v 0.096622 -0.24278199999999986 2.216948
v 0.096622 -0.23892499999999986 2.195075
v -0.158289 -0.23892499999999986 2.195075
v -0.158289 -0.2634809999999999 2.213298
v -0.158289 -0.2596239999999999 2.191425
v 0.096622 -0.2596239999999999 2.191425
v 0.096622 -0.2634809999999999 2.213298
v -0.158289 -0.2653139999999998 2.344733
v -0.158289 -0.28601299999999985 2.341084
v 0.096622 -0.28601299999999985 2.341084
v 0.096622 -0.2653139999999998 2.344733
v -0.158289 -0.2653139999999998 2.344733
v 0.096622 -0.2653139999999998 2.344733
v 0.096622 -0.26145699999999983 2.32286
v -0.158289 -0.26145699999999983 2.32286
v -0.158289 -0.28601299999999985 2.341084
v -0.158289 -0.28215599999999985 2.31921
v 0.096622 -0.28215599999999985 2.31921
v 0.096622 -0.28601299999999985 2.341084
v -0.158289 -0.36817599999999984 2.928093
v -0.158289 -0.38887499999999986 2.924443
v 0.096622 -0.38887499999999986 2.924443
v 0.096622 -0.36817599999999984 2.928093
v -0.158289 -0.36817599999999984 2.928093
v 0.096622 -0.36817599999999984 2.928093
v 0.096622 -0.36431899999999984 2.906219
v -0.158289 -0.36431899999999984 2.906219
v -0.158289 -0.38887499999999986 2.924443
v -0.158289 -0.38501799999999986 2.902569
v 0.096622 -0.38501799999999986 2.902569
v 0.096622 -0.38887499999999986 2.924443
v -0.158289 -0.34915999999999986 2.820252
v -0.158289 -0.36985999999999986 2.816603
v 0.096622 -0.36985999999999986 2.816603
v 0.096622 -0.34915999999999986 2.820252
v -0.158289 -0.34915999999999986 2.820252
v 0.096622 -0.34915999999999986 2.820252
v 0.096622 -0.34530399999999983 2.798379
v -0.158289 -0.34530399999999983 2.798379
v -0.158289 -0.36985999999999986 2.816603
v -0.158289 -0.36600299999999986 2.794729
v 0.096622 -0.36600299999999986 2.794729
v 0.096622 -0.36985999999999986 2.816603
v -0.158289 -0.32413499999999984 2.678325
v -0.158289 -0.3448339999999998 2.674675
v 0.096622 -0.3448339999999998 2.674675
v 0.096622 -0.32413499999999984 2.678325
v -0.158289 -0.32413499999999984 2.678325
v 0.096622 -0.32413499999999984 2.678325
v 0.096622 -0.32027799999999984 2.656451
v -0.158289 -0.32027799999999984 2.656452
v -0.158289 -0.3448339999999998 2.674675
v -0.158289 -0.3409769999999998 2.652802
v 0.096622 -0.3409769999999998 2.652802
v 0.096622 -0.3448339999999998 2.674675
v -0.158289 -0.30511999999999984 2.570485
v -0.158289 -0.32581899999999986 2.566835
v 0.096622 -0.32581899999999986 2.566835
v 0.096622 -0.30511999999999984 2.570485
v -0.158289 -0.30511999999999984 2.570485
v 0.096622 -0.30511999999999984 2.570485
v 0.096622 -0.30126299999999984 2.548611
v -0.158289 -0.30126299999999984 2.548611
v -0.158289 -0.32581899999999986 2.566835
v -0.158289 -0.32196199999999986 2.544961
v 0.096622 -0.32196199999999986 2.544961
v 0.096622 -0.32581899999999986 2.566835
v -0.158289 -0.28432899999999983 2.452574
v -0.158289 -0.30502799999999985 2.448924
v 0.096622 -0.30502799999999985 2.448924
v 0.096622 -0.28432899999999983 2.452573
v -0.158289 -0.28432899999999983 2.452574
v 0.096622 -0.28432899999999983 2.452573
v 0.096622 -0.28047199999999983 2.4307
v -0.158289 -0.28047199999999983 2.4307
v -0.158289 -0.30502799999999985 2.448924
v -0.158289 -0.30117099999999986 2.42705
v 0.096622 -0.30117099999999986 2.42705
v 0.096622 -0.30502799999999985 2.448924
v -0.126084 -0.46227099999999977 3.211473
v -0.126085 -0.2740339999999999 2.143928
v -0.126085 -0.24912999999999985 2.148319
v -0.126084 -0.4373669999999998 3.215865
v -0.149586 -0.08594399999999994 1.077211
v -0.149585 -0.2740339999999999 2.143928
v -0.149585 -0.24912999999999985 2.148319
v -0.149586 -0.061038999999999934 1.081602
v -0.149586 -0.061038999999999934 1.081602
v -0.149585 -0.24912999999999985 2.148319
v -0.126085 -0.24912999999999985 2.148319
v -0.126085 -0.061038999999999934 1.081602
v -0.126085 -0.08594399999999994 1.077211
v -0.126085 -0.2740339999999999 2.143928
v -0.149585 -0.2740339999999999 2.143928
v -0.149586 -0.08594399999999994 1.077211
v -0.126085 -0.2740339999999999 2.143928
v -0.126085 -0.08594399999999994 1.077211
v -0.126085 -0.061038999999999934 1.081602
v -0.126085 -0.24912999999999985 2.148319
v -0.149585 -0.2740339999999999 2.143928
v -0.149585 -0.46227099999999977 3.211473
v -0.149585 -0.4373669999999998 3.215864
v -0.149585 -0.24912999999999985 2.148319
v -0.149585 -0.4373669999999998 3.215864
v -0.149585 -0.46227099999999977 3.211473
v -0.126084 -0.46227099999999977 3.211473
v -0.126084 -0.4373669999999998 3.215865
v -0.149585 -0.4373669999999998 3.215864
v -0.126084 -0.4373669999999998 3.215865
v -0.126085 -0.24912999999999985 2.148319
v -0.149585 -0.24912999999999985 2.148319
v -0.126085 -0.2740339999999999 2.143928
v -0.126084 -0.46227099999999977 3.211473
v -0.149585 -0.46227099999999977 3.211473
v -0.149585 -0.2740339999999999 2.143928
v 0.082958 -0.4622719999999998 3.211473
v 0.082957 -0.27403499999999986 2.143928
v 0.082957 -0.24912999999999985 2.148319
v 0.082958 -0.43736799999999976 3.215865
v 0.059456 -0.08594299999999994 1.077211
v 0.059457 -0.27403499999999986 2.143928
v 0.059456 -0.24912999999999985 2.148319
v 0.059456 -0.061038999999999934 1.081602
v 0.059456 -0.061038999999999934 1.081602
v 0.059456 -0.24912999999999985 2.148319
v 0.082957 -0.24912999999999985 2.148319
v 0.082956 -0.061038999999999934 1.081602
v 0.082956 -0.08594299999999994 1.077211
v 0.082957 -0.27403499999999986 2.143928
v 0.059457 -0.27403499999999986 2.143928
v 0.059456 -0.08594299999999994 1.077211
v 0.082957 -0.27403499999999986 2.143928
v 0.082956 -0.08594299999999994 1.077211
v 0.082956 -0.061038999999999934 1.081602
v 0.082957 -0.24912999999999985 2.148319
v 0.059457 -0.27403499999999986 2.143928
v 0.059457 -0.4622719999999998 3.211473
v 0.059457 -0.43736799999999976 3.215865
v 0.059456 -0.24912999999999985 2.148319
v 0.059457 -0.43736799999999976 3.215865
v 0.059457 -0.4622719999999998 3.211473
v 0.082958 -0.4622719999999998 3.211473
v 0.082958 -0.43736799999999976 3.215865
v 0.059457 -0.43736799999999976 3.215865
v 0.082958 -0.43736799999999976 3.215865
v 0.082957 -0.24912999999999985 2.148319
v 0.059456 -0.24912999999999985 2.148319
v 0.082957 -0.27403499999999986 2.143928
v 0.082958 -0.4622719999999998 3.211473
v 0.059457 -0.4622719999999998 3.211473
v 0.059457 -0.27403499999999986 2.143928
vt 0.633728 0.642885
vt 0.633728 0.653904
vt 0.652545 0.653904
vt 0.652545 0.642885
vt 0.639185 0.664195
vt 0.658003 0.664195
vt 0.658003 0.674346
vt 0.639185 0.674346
vt 0.639139 0.674491
vt 0.639139 0.664340
vt 0.657957 0.664340
vt 0.657957 0.674491
vt 0.619604 0.642536
vt 0.619604 0.653555
vt 0.638422 0.653555
vt 0.638422 0.642536
vt 0.624816 0.665814
vt 0.643633 0.665814
vt 0.643633 0.675965
vt 0.624816 0.675965
vt 0.624770 0.676110
vt 0.624770 0.665959
vt 0.643588 0.665959
vt 0.643588 0.676110
vt 0.633728 0.642885
vt 0.633728 0.653904
vt 0.652545 0.653904
vt 0.652545 0.642885
vt 0.639185 0.664195
vt 0.658003 0.664195
vt 0.658003 0.674346
vt 0.639185 0.674346
vt 0.639139 0.674491
vt 0.639139 0.664340
vt 0.657957 0.664340
vt 0.657957 0.674491
vt 0.617581 0.642536
vt 0.617581 0.653555
vt 0.636398 0.653555
vt 0.636398 0.642536
vt 0.622792 0.665814
vt 0.641609 0.665814
vt 0.641609 0.675965
vt 0.622792 0.675965
vt 0.622746 0.676110
vt 0.622746 0.665959
vt 0.641564 0.665959
vt 0.641564 0.676110
vt 0.681319 0.622566
vt 0.681319 0.633585
vt 0.700137 0.633585
vt 0.700137 0.622566
vt 0.658869 0.606143
vt 0.677687 0.606143
vt 0.677687 0.616294
vt 0.658869 0.616294
vt 0.658823 0.616439
vt 0.658823 0.606288
vt 0.677641 0.606288
vt 0.677641 0.616439
vt 0.635973 0.642480
vt 0.635973 0.653499
vt 0.617155 0.653499
vt 0.617155 0.642480
vt 0.641339 0.663790
vt 0.622521 0.663790
vt 0.622521 0.673942
vt 0.641339 0.673942
vt 0.641384 0.674086
vt 0.641384 0.663935
vt 0.622567 0.663935
vt 0.622567 0.674086
vt 0.681319 0.622566
vt 0.681319 0.633585
vt 0.700137 0.633585
vt 0.700137 0.622566
vt 0.658869 0.606143
vt 0.677687 0.606143
vt 0.677687 0.616294
vt 0.658869 0.616294
vt 0.658823 0.616439
vt 0.658823 0.606288
vt 0.677641 0.606288
vt 0.677641 0.616439
vt 0.996701 0.542976
vt 0.991191 0.542976
vt 0.991191 0.580612
vt 0.996701 0.580612
vt 0.996575 0.543728
vt 0.996575 0.581364
vt 0.991499 0.581364
vt 0.991499 0.543728
vt 0.658823 0.616439
vt 0.658823 0.606288
vt 0.677641 0.606288
vt 0.677641 0.616439
vt 0.988113 0.539422
vt 0.982604 0.539422
vt 0.982603 0.577058
vt 0.988113 0.577058
vt 0.988358 0.540427
vt 0.988358 0.578063
vt 0.983282 0.578063
vt 0.983282 0.540427
vt 0.639139 0.674491
vt 0.639139 0.664340
vt 0.657957 0.664340
vt 0.657957 0.674491
vt 0.995905 0.569715
vt 0.990395 0.569715
vt 0.990395 0.532080
vt 0.995905 0.532080
vt 0.987826 0.567565
vt 0.987826 0.529930
vt 0.982750 0.529930
vt 0.982750 0.567565
vt 0.641384 0.674086
vt 0.641384 0.663935
vt 0.622567 0.663935
vt 0.622567 0.674086
vt 0.996219 0.540381
vt 0.990710 0.540381
vt 0.990710 0.578017
vt 0.996219 0.578017
vt 0.995534 0.541489
vt 0.995534 0.579124
vt 0.990458 0.579124
vt 0.990458 0.541489
vt 0.658823 0.616439
vt 0.658823 0.606288
vt 0.677641 0.606288
vt 0.677641 0.616439
vt 0.633728 0.642885
vt 0.633728 0.653904
vt 0.652545 0.653904
vt 0.652545 0.642885
vt 0.639185 0.664195
vt 0.658003 0.664195
vt 0.658003 0.674346
vt 0.639185 0.674346
vt 0.639139 0.674491
vt 0.639139 0.664340
vt 0.657957 0.664340
vt 0.657957 0.674491
vt 0.619604 0.642536
vt 0.619604 0.653555
vt 0.638422 0.653555
vt 0.638422 0.642536
vt 0.624816 0.665814
vt 0.643633 0.665814
vt 0.643633 0.675965
vt 0.624816 0.675965
vt 0.624770 0.676110
vt 0.624770 0.665959
vt 0.643588 0.665959
vt 0.643588 0.676110
vt 0.633728 0.642885
vt 0.633728 0.653904
vt 0.652545 0.653904
vt 0.652545 0.642885
vt 0.639185 0.664195
vt 0.658003 0.664195
vt 0.658003 0.674346
vt 0.639185 0.674346
vt 0.639139 0.674491
vt 0.639139 0.664340
vt 0.657957 0.664340
vt 0.657957 0.674491
vt 0.617581 0.642536
vt 0.617581 0.653555
vt 0.636398 0.653555
vt 0.636398 0.642536
vt 0.622792 0.665814
vt 0.641609 0.665814
vt 0.641609 0.675965
vt 0.622792 0.675965
vt 0.622746 0.676110
vt 0.622746 0.665959
vt 0.641564 0.665959
vt 0.641564 0.676110
vt 0.639192 0.642885
vt 0.639192 0.653904
vt 0.658010 0.653904
vt 0.658010 0.642885
vt 0.644649 0.664195
vt 0.663467 0.664195
vt 0.663467 0.674346
vt 0.644649 0.674346
vt 0.644604 0.674491
vt 0.644604 0.664340
vt 0.663421 0.664340
vt 0.663421 0.674491
vt 0.998279 0.532114
vt 0.992769 0.532114
vt 0.992769 0.569750
vt 0.998279 0.569750
vt 0.988739 0.530488
vt 0.988739 0.568123
vt 0.983663 0.568123
vt 0.983663 0.530488
vt 0.658823 0.616439
vt 0.658823 0.606288
vt 0.677641 0.606288
vt 0.677641 0.616439
vt 0.990829 0.439210
vt 0.990564 0.583271
vt 0.996074 0.583367
vt 0.996339 0.439306
vt 0.988941 0.438130
vt 0.989332 0.582389
vt 0.984256 0.582478
vt 0.983865 0.438041
vt 0.988870 0.437762
vt 0.988605 0.581823
vt 0.983530 0.581734
vt 0.983795 0.437674
vt 0.983404 0.581732
vt 0.983669 0.437672
vt 0.988705 0.437760
vt 0.988440 0.581820
vt 0.983890 0.436355
vt 0.983868 0.582960
vt 0.989378 0.583056
vt 0.989400 0.436451
vt 0.988941 0.438130
vt 0.988919 0.584735
vt 0.983843 0.584647
vt 0.983865 0.438041
vt 0.988870 0.437762
vt 0.988848 0.584368
vt 0.983773 0.584279
vt 0.983795 0.437674
vt 0.983647 0.584277
vt 0.983669 0.437672
vt 0.988705 0.437760
vt 0.988683 0.584365
vt 0.633728 0.642885
vt 0.633728 0.653904
vt 0.652545 0.653904
vt 0.652545 0.642885
vt 0.639185 0.664195
vt 0.658003 0.664195
vt 0.658003 0.674346
vt 0.639185 0.674346
vt 0.639139 0.674491
vt 0.639139 0.664340
vt 0.657957 0.664340
vt 0.657957 0.674491
vt 0.619604 0.642536
vt 0.619604 0.653555
vt 0.638422 0.653555
vt 0.638422 0.642536
vt 0.624816 0.665814
vt 0.643633 0.665814
vt 0.643633 0.675965
vt 0.624816 0.675965
vt 0.624770 0.676110
vt 0.624770 0.665959
vt 0.643588 0.665959
vt 0.643588 0.676110
vt 0.633728 0.642885
vt 0.633728 0.653904
vt 0.652545 0.653904
vt 0.652545 0.642885
vt 0.639185 0.664195
vt 0.658003 0.664195
vt 0.658003 0.674346
vt 0.639185 0.674346
vt 0.639139 0.674491
vt 0.639139 0.664340
vt 0.657957 0.664340
vt 0.657957 0.674491
vt 0.617581 0.642536
vt 0.617581 0.653555
vt 0.636398 0.653555
vt 0.636398 0.642536
vt 0.622792 0.665814
vt 0.641609 0.665814
vt 0.641609 0.675965
vt 0.622792 0.675965
vt 0.622746 0.676110
vt 0.622746 0.665959
vt 0.641564 0.665959
vt 0.641564 0.676110
vt 0.639192 0.642885
vt 0.639192 0.653904
vt 0.658010 0.653904
vt 0.658010 0.642885
vt 0.644649 0.664195
vt 0.663467 0.664195
vt 0.663467 0.674346
vt 0.644649 0.674346
vt 0.644604 0.674491
vt 0.644604 0.664340
vt 0.663421 0.664340
vt 0.663421 0.674491
vt 0.681319 0.622566
vt 0.681319 0.633585
vt 0.700137 0.633585
vt 0.700137 0.622566
vt 0.658869 0.606143
vt 0.677687 0.606143
vt 0.677687 0.616294
vt 0.658869 0.616294
vt 0.658823 0.616439
vt 0.658823 0.606288
vt 0.677641 0.606288
vt 0.677641 0.616439
vt 0.633728 0.642885
vt 0.633728 0.653904
vt 0.652545 0.653904
vt 0.652545 0.642885
vt 0.639185 0.664195
vt 0.658003 0.664195
vt 0.658003 0.674346
vt 0.639185 0.674346
vt 0.639139 0.674491
vt 0.639139 0.664340
vt 0.657957 0.664340
vt 0.657957 0.674491
vt 0.635973 0.642480
vt 0.635973 0.653499
vt 0.617155 0.653499
vt 0.617155 0.642480
vt 0.641339 0.663790
vt 0.622521 0.663790
vt 0.622521 0.673942
vt 0.641339 0.673942
vt 0.641384 0.674086
vt 0.641384 0.663935
vt 0.622567 0.663935
vt 0.622567 0.674086
vt 0.633557 0.624147
vt 0.633557 0.635166
vt 0.652374 0.635166
vt 0.652374 0.624147
vt 0.677652 0.605837
vt 0.696470 0.605837
vt 0.696470 0.615989
vt 0.677652 0.615989
vt 0.677606 0.616134
vt 0.677606 0.605982
vt 0.696424 0.605982
vt 0.696424 0.616134
vt 0.634453 0.622566
vt 0.634453 0.633585
vt 0.653271 0.633585
vt 0.653271 0.622566
vt 0.635557 0.623557
vt 0.654374 0.623557
vt 0.654374 0.633708
vt 0.635557 0.633708
vt 0.639139 0.674491
vt 0.639139 0.664340
vt 0.657957 0.664340
vt 0.657957 0.674491
vt 0.607432 0.627729
vt 0.607432 0.638748
vt 0.626250 0.638748
vt 0.626250 0.627729
vt 0.609261 0.628721
vt 0.628079 0.628721
vt 0.628079 0.638872
vt 0.609261 0.638872
vt 0.616472 0.675301
vt 0.616472 0.665149
vt 0.635290 0.665149
vt 0.635290 0.675301
vt 0.683546 0.622566
vt 0.683546 0.633585
vt 0.702363 0.633585
vt 0.702363 0.622566
vt 0.661095 0.606143
vt 0.679913 0.606143
vt 0.679913 0.616294
vt 0.661095 0.616294
vt 0.661050 0.616439
vt 0.661050 0.606288
vt 0.679867 0.606288
vt 0.679867 0.616439
vt 0.633728 0.642885
vt 0.633728 0.653904
vt 0.652545 0.653904
vt 0.652545 0.642885
vt 0.639185 0.664195
vt 0.658003 0.664195
vt 0.658003 0.674346
vt 0.639185 0.674346
vt 0.639139 0.674491
vt 0.639139 0.664340
vt 0.657957 0.664340
vt 0.657957 0.674491
vt 0.624057 0.643233
vt 0.624057 0.654253
vt 0.642875 0.654253
vt 0.642875 0.643233
vt 0.629268 0.662576
vt 0.648086 0.662576
vt 0.648086 0.672727
vt 0.629268 0.672727
vt 0.630206 0.674840
vt 0.630206 0.664689
vt 0.649024 0.664689
vt 0.649024 0.674840
vt 0.984063 0.583545
vt 0.983013 0.438787
vt 0.988049 0.438699
vt 0.989099 0.583457
vt 0.983066 0.574652
vt 0.983236 0.473523
vt 0.988740 0.474004
vt 0.988571 0.575132
vt 0.989332 0.582389
vt 0.988285 0.438329
vt 0.983209 0.438418
vt 0.984256 0.582478
vt 0.989261 0.582757
vt 0.988214 0.438696
vt 0.983139 0.438785
vt 0.984185 0.582845
vt 0.983013 0.438787
vt 0.984060 0.582848
vt 0.989096 0.582760
vt 0.988049 0.438699
vt 0.983236 0.473523
vt 0.983572 0.581240
vt 0.989082 0.581144
vt 0.988740 0.474004
vt 0.987166 0.575715
vt 0.987166 0.580119
vt 0.983073 0.580119
vt 0.983073 0.575715
vt 0.989335 0.583087
vt 0.984259 0.583175
vt 0.983209 0.438418
vt 0.988285 0.438329
vt 0.988214 0.438696
vt 0.989264 0.583454
vt 0.984188 0.583543
vt 0.983139 0.438785
vt 0.984058 0.582529
vt 0.983256 0.436242
vt 0.988292 0.436154
vt 0.989094 0.582441
vt 0.984281 0.584165
vt 0.983477 0.437559
vt 0.988987 0.437463
vt 0.989791 0.584069
vt 0.989332 0.582389
vt 0.988528 0.435784
vt 0.983452 0.435872
vt 0.984256 0.582478
vt 0.989261 0.582757
vt 0.988457 0.436151
vt 0.983382 0.436240
vt 0.984185 0.582845
vt 0.983256 0.436242
vt 0.984060 0.582848
vt 0.989096 0.582760
vt 0.988292 0.436154
vt 0.983477 0.437559
vt 0.984280 0.583846
vt 0.989789 0.583750
vt 0.988987 0.437463
vt 0.988387 0.580823
vt 0.988387 0.585350
vt 0.984180 0.585350
vt 0.984181 0.580823
vt 0.989330 0.582071
vt 0.984255 0.582159
vt 0.983452 0.435872
vt 0.988528 0.435784
vt 0.988457 0.436151
vt 0.989260 0.582438
vt 0.984184 0.582527
vt 0.983382 0.436240
vn 0 -0.17364399999999994 0.984808
vn 1E-06 -0.17364299999999994 0.984809
vn 0 -0.17364399999999994 0.984808
vn 0 -0.17364599999999994 0.984808
vn -0 0.984808 0.17364899999999994
vn -0 0.984808 0.17364899999999994
vn -0 0.984808 0.17364899999999994
vn -0 0.984808 0.17364899999999994
vn 0 -0.984808 -0.17364899999999994
vn 0 -0.984808 -0.17364899999999994
vn 0 -0.984808 -0.17364899999999994
vn 0 -0.984808 -0.17364899999999994
vn 1E-06 -0.17364599999999994 0.984808
vn 1E-06 -0.17364499999999994 0.984808
vn 1E-06 -0.17364599999999994 0.984808
vn 1E-06 -0.17364599999999994 0.984808
vn -0 0.984808 0.17364699999999994
vn -0 0.984808 0.17364699999999994
vn -0 0.984808 0.17364699999999994
vn -0 0.984808 0.17364599999999994
vn 0 -0.984808 -0.17364799999999994
vn 0 -0.984808 -0.17364799999999994
vn 0 -0.984808 -0.17364799999999994
vn 0 -0.984808 -0.17364799999999994
vn 1E-06 -0.17364399999999994 0.984808
vn 1E-06 -0.17364399999999994 0.984808
vn 1E-06 -0.17364399999999994 0.984808
vn 1E-06 -0.17364399999999994 0.984808
vn -0 0.984808 0.17364899999999994
vn -0 0.984808 0.17364899999999994
vn -0 0.984808 0.17364899999999994
vn -0 0.984808 0.17364899999999994
vn 0 -0.984808 -0.17364799999999994
vn 0 -0.984808 -0.17364799999999994
vn 0 -0.984808 -0.17364799999999994
vn 0 -0.984808 -0.17364899999999994
vn 1E-06 -0.17364699999999994 0.984808
vn 1E-06 -0.17364899999999994 0.984808
vn 1E-06 -0.17364699999999994 0.984808
vn 1E-06 -0.17364599999999994 0.984808
vn -0 0.984808 0.17364799999999994
vn -0 0.984808 0.17364899999999994
vn -0 0.984808 0.17364799999999994
vn -0 0.984808 0.17364799999999994
vn 0 -0.984808 -0.17364899999999994
vn 0 -0.984808 -0.17364899999999994
vn 0 -0.984808 -0.17364899999999994
vn 0 -0.984808 -0.17364899999999994
vn 0 -0.17364599999999994 0.984808
vn 0 -0.17364599999999994 0.984808
vn 0 -0.17364599999999994 0.984808
vn 0 -0.17364599999999994 0.984808
vn -0 0.984807 0.17364999999999994
vn -0 0.984807 0.17364999999999994
vn -0 0.984807 0.17364999999999994
vn -0 0.984807 0.17364999999999994
vn 0 -0.984808 -0.17364899999999994
vn 0 -0.984808 -0.17364899999999994
vn 0 -0.984808 -0.17364899999999994
vn 0 -0.984808 -0.17364999999999994
vn 0 -0.17364599999999994 0.984808
vn 0 -0.17364599999999994 0.984808
vn 0 -0.17364599999999994 0.984808
vn 0 -0.17364599999999994 0.984808
vn -0 0.984808 0.17364799999999994
vn -0 0.984808 0.17364799999999994
vn -0 0.984808 0.17364799999999994
vn -0 0.984808 0.17364799999999994
vn 0 -0.984808 -0.17364799999999994
vn 0 -0.984808 -0.17364799999999994
vn 0 -0.984808 -0.17364799999999994
vn 0 -0.984808 -0.17364799999999994
vn 1E-06 -0.17364599999999994 0.984808
vn 1E-06 -0.17364599999999994 0.984808
vn 1E-06 -0.17364599999999994 0.984808
vn 1E-06 -0.17364599999999994 0.984808
vn -0 0.984808 0.17364799999999994
vn -0 0.984808 0.17364799999999994
vn -0 0.984808 0.17364799999999994
vn -0 0.984808 0.17364799999999994
vn 0 -0.984808 -0.17364799999999994
vn 0 -0.984808 -0.17364799999999994
vn 0 -0.984808 -0.17364799999999994
vn 0 -0.984808 -0.17364799999999994
vn 0 -0.17363999999999993 0.984809
vn 0 -0.17363999999999993 0.984809
vn 0 -0.17363999999999993 0.984809
vn 0 -0.17363999999999993 0.984809
vn -0 0.984807 0.17364999999999994
vn 0 0.984807 0.17365099999999994
vn -0 0.984807 0.17364999999999994
vn -0 0.984808 0.17364899999999994
vn 0 -0.984808 -0.17364799999999994
vn 0 -0.984808 -0.17364999999999994
vn 0 -0.984808 -0.17364799999999994
vn 0 -0.984808 -0.17364699999999994
vn 0 -0.17363999999999993 0.984809
vn 0 -0.17363999999999993 0.984809
vn 0 -0.17363999999999993 0.984809
vn 0 -0.17363999999999993 0.984809
vn 0 0.984808 0.17364899999999994
vn 0 0.984808 0.17364899999999994
vn 0 0.984808 0.17364899999999994
vn 0 0.984808 0.17364899999999994
vn 0 -0.984808 -0.17364799999999994
vn 0 -0.984808 -0.17364999999999994
vn 0 -0.984808 -0.17364799999999994
vn 0 -0.984808 -0.17364699999999994
vn 0 -0.17364599999999994 0.984808
vn 0 -0.17364599999999994 0.984808
vn 0 -0.17364599999999994 0.984808
vn 1E-06 -0.17364599999999994 0.984808
vn -0 0.984808 0.17364899999999994
vn -0 0.984808 0.17364799999999994
vn -0 0.984808 0.17364899999999994
vn -0 0.984808 0.17364899999999994
vn 0 -0.984808 -0.17364799999999994
vn 0 -0.984808 -0.17364799999999994
vn 0 -0.984808 -0.17364799999999994
vn 0 -0.984808 -0.17364899999999994
vn 0 -0.17364799999999994 0.984808
vn 0 -0.17365099999999994 0.984807
vn 0 -0.17364799999999994 0.984808
vn 0 -0.17364599999999994 0.984808
vn -0 0.984808 0.17364799999999994
vn -0 0.984808 0.17364799999999994
vn -0 0.984808 0.17364799999999994
vn -0 0.984808 0.17364799999999994
vn 0 -0.984808 -0.17364799999999994
vn 0 -0.984808 -0.17364799999999994
vn 0 -0.984808 -0.17364799999999994
vn 0 -0.984808 -0.17364799999999994
vn 1E-06 -0.17364599999999994 0.984808
vn 1E-06 -0.17364599999999994 0.984808
vn 1E-06 -0.17364599999999994 0.984808
vn 1E-06 -0.17364599999999994 0.984808
vn -0 0.984808 0.17364799999999994
vn -0 0.984808 0.17364799999999994
vn -0 0.984808 0.17364799999999994
vn -0 0.984808 0.17364799999999994
vn 0 -0.984808 -0.17364799999999994
vn 0 -0.984808 -0.17364799999999994
vn 0 -0.984808 -0.17364799999999994
vn 0 -0.984808 -0.17364799999999994
vn 1E-06 -0.17364599999999994 0.984808
vn 1E-06 -0.17364599999999994 0.984808
vn 1E-06 -0.17364599999999994 0.984808
vn 1E-06 -0.17364599999999994 0.984808
vn -0 0.984808 0.17364699999999994
vn -0 0.984808 0.17364699999999994
vn -0 0.984808 0.17364699999999994
vn -0 0.984808 0.17364699999999994
vn 0 -0.984808 -0.17364699999999994
vn 0 -0.984808 -0.17364699999999994
vn 0 -0.984808 -0.17364699999999994
vn 0 -0.984808 -0.17364699999999994
vn 1E-06 -0.17364599999999994 0.984808
vn 1E-06 -0.17364599999999994 0.984808
vn 1E-06 -0.17364599999999994 0.984808
vn 1E-06 -0.17364599999999994 0.984808
vn -0 0.984808 0.17364799999999994
vn -0 0.984808 0.17364799999999994
vn -0 0.984808 0.17364799999999994
vn -0 0.984808 0.17364799999999994
vn 0 -0.984808 -0.17364799999999994
vn 0 -0.984808 -0.17364799999999994
vn 0 -0.984808 -0.17364799999999994
vn 0 -0.984808 -0.17364799999999994
vn 0 -0.17364599999999994 0.984808
vn 0 -0.17364599999999994 0.984808
vn 0 -0.17364599999999994 0.984808
vn 1E-06 -0.17364599999999994 0.984808
vn -0 0.984808 0.17364799999999994
vn -0 0.984808 0.17364799999999994
vn -0 0.984808 0.17364799999999994
vn -0 0.984808 0.17364799999999994
vn 0 -0.984808 -0.17364799999999994
vn 0 -0.984808 -0.17364799999999994
vn 0 -0.984808 -0.17364799999999994
vn 0 -0.984808 -0.17364799999999994
vn 0 -0.17364599999999994 0.984808
vn 0 -0.17364599999999994 0.984808
vn 0 -0.17364599999999994 0.984808
vn 0 -0.17364599999999994 0.984808
vn -0 0.984808 0.17364799999999994
vn -0 0.984808 0.17364899999999994
vn -0 0.984808 0.17364799999999994
vn -0 0.984808 0.17364699999999994
vn 0 -0.984808 -0.17364799999999994
vn 0 -0.984808 -0.17364699999999994
vn 0 -0.984808 -0.17364799999999994
vn 0 -0.984808 -0.17364799999999994
vn 0 -0.17364599999999994 0.984808
vn 0 -0.17364599999999994 0.984808
vn 0 -0.17364599999999994 0.984808
vn 0 -0.17364599999999994 0.984808
vn -0 0.984808 0.17364899999999994
vn -0 0.984808 0.17364999999999994
vn -0 0.984808 0.17364899999999994
vn -0 0.984808 0.17364799999999994
vn 0 -0.984808 -0.17364899999999994
vn 0 -0.984808 -0.17364799999999994
vn 0 -0.984808 -0.17364899999999994
vn 0 -0.984808 -0.17364899999999994
vn -1 -3.9E-05 -5.999999999999998E-06
vn -1 0 0
vn -1 -2.6E-05 -3.999999999999998E-06
vn -1 -7.9E-05 -1.2999999999999994E-05
vn 7E-06 0.984808 0.17364699999999994
vn -0 0.984808 0.17364799999999994
vn 5E-06 0.984808 0.17364799999999994
vn 1.5E-05 0.984808 0.17364699999999994
vn 7E-06 -0.984808 -0.17364699999999994
vn 1E-06 -0.984808 -0.17364799999999994
vn 5E-06 -0.984808 -0.17364799999999994
vn 1.3E-05 -0.984808 -0.17364699999999994
vn 1 -2.6E-05 -4.999999999999999E-06
vn 1 -7.7E-05 -1.4999999999999995E-05
vn 1 -3.9E-05 -6.999999999999997E-06
vn 1 0 -0
vn -1 -0.000101 -1.5999999999999992E-05
vn -1 0 0
vn -1 -6.8E-05 -1.0999999999999996E-05
vn -1 -0.000203 -3.299999999999999E-05
vn -5.3E-05 0.984808 0.17364699999999994
vn 0 0.984808 0.17364799999999994
vn -3.5E-05 0.984808 0.17364699999999994
vn -0.000106 0.984808 0.17364799999999994
vn -5.3E-05 -0.984808 -0.17364699999999994
vn 0 -0.984808 -0.17364799999999994
vn -3.6E-05 -0.984808 -0.17364699999999994
vn -0.000107 -0.984808 -0.17364799999999994
vn 1 -6.7E-05 -1.2999999999999996E-05
vn 1 -0.000202 -3.8999999999999986E-05
vn 1 -0.000101 -1.8999999999999994E-05
vn 1 0 -0
vn 0 -0.17365099999999994 0.984807
vn 0 -0.17365099999999994 0.984807
vn 0 -0.17365099999999994 0.984807
vn 0 -0.17365099999999994 0.984807
vn -0 0.984808 0.17364799999999994
vn -0 0.984808 0.17364799999999994
vn -0 0.984808 0.17364799999999994
vn -0 0.984808 0.17364799999999994
vn 0 -0.984808 -0.17364799999999994
vn 0 -0.984808 -0.17364799999999994
vn 0 -0.984808 -0.17364799999999994
vn 0 -0.984808 -0.17364799999999994
vn 0 -0.17364799999999994 0.984808
vn 0 -0.17364599999999994 0.984808
vn 0 -0.17364799999999994 0.984808
vn 0 -0.17365099999999994 0.984807
vn -0 0.984808 0.17364799999999994
vn -0 0.984808 0.17364799999999994
vn -0 0.984808 0.17364799999999994
vn -0 0.984808 0.17364799999999994
vn 0 -0.984808 -0.17364799999999994
vn 0 -0.984808 -0.17364799999999994
vn 0 -0.984808 -0.17364799999999994
vn 0 -0.984808 -0.17364799999999994
vn 0 -0.17364899999999994 0.984808
vn 1E-06 -0.17364599999999994 0.984808
vn 0 -0.17364899999999994 0.984808
vn 0 -0.17365099999999994 0.984807
vn -0 0.984808 0.17364799999999994
vn -0 0.984808 0.17364799999999994
vn -0 0.984808 0.17364799999999994
vn -0 0.984808 0.17364799999999994
vn 0 -0.984808 -0.17364799999999994
vn 0 -0.984808 -0.17364799999999994
vn 0 -0.984808 -0.17364799999999994
vn 0 -0.984808 -0.17364699999999994
vn 0 -0.17364799999999994 0.984808
vn 0 -0.17364599999999994 0.984808
vn 0 -0.17364799999999994 0.984808
vn 0 -0.17365099999999994 0.984807
vn -0 0.984808 0.17364799999999994
vn -0 0.984808 0.17364799999999994
vn -0 0.984808 0.17364799999999994
vn -0 0.984808 0.17364699999999994
vn 0 -0.984808 -0.17364799999999994
vn 0 -0.984808 -0.17364799999999994
vn 0 -0.984808 -0.17364799999999994
vn 0 -0.984808 -0.17364799999999994
vn 0 -0.17364899999999994 0.984808
vn 0 -0.17365099999999994 0.984807
vn 0 -0.17364899999999994 0.984808
vn 1E-06 -0.17364599999999994 0.984808
vn -0 0.984808 0.17364799999999994
vn -0 0.984808 0.17364699999999994
vn -0 0.984808 0.17364799999999994
vn -0 0.984808 0.17364799999999994
vn 0 -0.984808 -0.17364799999999994
vn 0 -0.984808 -0.17364699999999994
vn 0 -0.984808 -0.17364799999999994
vn 0 -0.984808 -0.17364799999999994
vn 0 -0.17364599999999994 0.984808
vn 0 -0.17364599999999994 0.984808
vn 0 -0.17364599999999994 0.984808
vn 0 -0.17364599999999994 0.984808
vn -0 0.984808 0.17364799999999994
vn -0 0.984808 0.17364799999999994
vn -0 0.984808 0.17364799999999994
vn -0 0.984808 0.17364699999999994
vn 0 -0.984808 -0.17364799999999994
vn 0 -0.984808 -0.17364799999999994
vn 0 -0.984808 -0.17364799999999994
vn 0 -0.984808 -0.17364799999999994
vn 0 -0.17365099999999994 0.984807
vn 0 -0.17365099999999994 0.984807
vn 0 -0.17365099999999994 0.984807
vn 0 -0.17365099999999994 0.984807
vn -0 0.984808 0.17364799999999994
vn -0 0.984808 0.17364799999999994
vn -0 0.984808 0.17364799999999994
vn -0 0.984808 0.17364799999999994
vn 0 -0.984808 -0.17364799999999994
vn 0 -0.984808 -0.17364799999999994
vn 0 -0.984808 -0.17364799999999994
vn 0 -0.984808 -0.17364699999999994
vn 0 -0.17363999999999993 0.984809
vn 0 -0.17363999999999993 0.984809
vn 0 -0.17363999999999993 0.984809
vn 0 -0.17363999999999993 0.984809
vn -0 0.984808 0.17364799999999994
vn -0 0.984808 0.17364799999999994
vn -0 0.984808 0.17364799999999994
vn -0 0.984808 0.17364799999999994
vn 0 -0.984808 -0.17364799999999994
vn 0 -0.984808 -0.17364799999999994
vn 0 -0.984808 -0.17364799999999994
vn 0 -0.984808 -0.17364799999999994
vn 0 -0.17364599999999994 0.984808
vn 1E-06 -0.17363999999999993 0.984809
vn 0 -0.17364599999999994 0.984808
vn 0 -0.17365099999999994 0.984807
vn -0 0.984808 0.17364799999999994
vn -0 0.984808 0.17364699999999994
vn -0 0.984808 0.17364799999999994
vn -0 0.984808 0.17364799999999994
vn -0 -0.984808 -0.17364699999999994
vn -0 -0.984808 -0.17364699999999994
vn -0 -0.984808 -0.17364699999999994
vn -0 -0.984808 -0.17364699999999994
vn 0 -0.17365099999999994 0.984807
vn 0 -0.17365099999999994 0.984807
vn 0 -0.17365099999999994 0.984807
vn 0 -0.17365099999999994 0.984807
vn -0 0.984808 0.17364799999999994
vn -0 0.984808 0.17364699999999994
vn -0 0.984808 0.17364799999999994
vn -0 0.984808 0.17364799999999994
vn 0 -0.984808 -0.17364799999999994
vn 0 -0.984808 -0.17364999999999994
vn 0 -0.984808 -0.17364799999999994
vn 0 -0.984808 -0.17364699999999994
vn 0 -0.17363999999999993 0.984809
vn 0 -0.17363999999999993 0.984809
vn 0 -0.17363999999999993 0.984809
vn 0 -0.17363999999999993 0.984809
vn -0 0.984808 0.17364899999999994
vn -0 0.984808 0.17364799999999994
vn -0 0.984808 0.17364899999999994
vn -0 0.984807 0.17364999999999994
vn 0 -0.984808 -0.17364699999999994
vn 0 -0.984808 -0.17364699999999994
vn 0 -0.984808 -0.17364699999999994
vn 0 -0.984808 -0.17364599999999994
vn 0 -0.17365099999999994 0.984807
vn 0 -0.17365099999999994 0.984807
vn 0 -0.17365099999999994 0.984807
vn 0 -0.17365099999999994 0.984807
vn -0 0.984808 0.17364699999999994
vn -0 0.984808 0.17364599999999994
vn -0 0.984808 0.17364699999999994
vn 0 0.984808 0.17364799999999994
vn 0 -0.984808 -0.17364799999999994
vn 0 -0.984808 -0.17364799999999994
vn 0 -0.984808 -0.17364799999999994
vn 0 -0.984808 -0.17364799999999994
vn 0 -0.17364599999999994 0.984808
vn 1E-06 -0.17363999999999993 0.984809
vn 0 -0.17364599999999994 0.984808
vn 0 -0.17365099999999994 0.984807
vn -0 0.984808 0.17364799999999994
vn -0 0.984808 0.17364799999999994
vn -0 0.984808 0.17364799999999994
vn -0 0.984808 0.17364699999999994
vn -0 -0.984808 -0.17364799999999994
vn -0 -0.984808 -0.17364799999999994
vn -0 -0.984808 -0.17364799999999994
vn -0 -0.984808 -0.17364799999999994
vn 0 -0.17364599999999994 0.984808
vn 0 -0.17365099999999994 0.984807
vn 0 -0.17364599999999994 0.984808
vn 1E-06 -0.17363999999999993 0.984809
vn -0 0.984808 0.17364899999999994
vn -0 0.984808 0.17364899999999994
vn -0 0.984808 0.17364899999999994
vn -0 0.984808 0.17364799999999994
vn 0 -0.984808 -0.17364799999999994
vn 0 -0.984808 -0.17364699999999994
vn 0 -0.984808 -0.17364799999999994
vn 0 -0.984808 -0.17364799999999994
vn 1 -6.123233995736766E-23 -1E-06
vn 1 -6.123233995736766E-23 -1E-06
vn 1 -6.123233995736766E-23 -1E-06
vn 1 -6.123233995736766E-23 -1E-06
vn -1 0 0
vn -1 6.123233995736766E-23 1E-06
vn -1 6.123233995736766E-23 1E-06
vn -1 -2.6E-05 -3.999999999999998E-06
vn -0 0.984808 0.17364799999999994
vn 0 0.984808 0.17364799999999994
vn -1E-06 0.984808 0.17364799999999994
vn 5E-06 0.984808 0.17364799999999994
vn 1E-06 -0.984808 -0.17364799999999994
vn 2E-06 -0.984808 -0.17364799999999994
vn 1E-06 -0.984808 -0.17364799999999994
vn 5E-06 -0.984808 -0.17364799999999994
vn 1 -6.123233995736766E-23 -1E-06
vn 1 -2.6E-05 -4.999999999999999E-06
vn 1 0 -0
vn 1 -6.123233995736766E-23 -1E-06
vn -1 6.123233995736766E-23 1E-06
vn -1 6.123233995736766E-23 1E-06
vn -1 6.123233995736766E-23 1E-06
vn -1 6.123233995736766E-23 1E-06
vn -1.5E-05 -0.17364899999999994 0.984808
vn -1E-05 -0.17364499999999994 0.984808
vn -1.5E-05 -0.17364899999999994 0.984808
vn -2E-05 -0.17365399999999995 0.984807
vn -2E-06 0.984808 0.17364799999999994
vn -4E-06 0.984808 0.17364799999999994
vn -1E-06 0.984808 0.17364799999999994
vn 0 0.984808 0.17364799999999994
vn 2E-06 -0.984808 -0.17364799999999994
vn 2E-06 -0.984808 -0.17364799999999994
vn 2E-06 -0.984808 -0.17364799999999994
vn 1E-06 -0.984808 -0.17364799999999994
vn 1 -6.123233995736766E-23 -1E-06
vn 1 -6.123233995736766E-23 -1E-06
vn 1 -6.123233995736766E-23 -1E-06
vn 1 -6.123233995736766E-23 -1E-06
vn -1 0 0
vn -1 6.123233995736766E-23 1E-06
vn -1 6.123233995736766E-23 1E-06
vn -1 -6.8E-05 -1.0999999999999996E-05
vn 0 0.984808 0.17364799999999994
vn 0 0.984808 0.17364799999999994
vn 0 0.984808 0.17364799999999994
vn -3.5E-05 0.984808 0.17364699999999994
vn 0 -0.984808 -0.17364799999999994
vn -1E-06 -0.984808 -0.17364799999999994
vn 0 -0.984808 -0.17364799999999994
vn -3.6E-05 -0.984808 -0.17364699999999994
vn 1 -6.123233995736766E-23 -1E-06
vn 1 -6.7E-05 -1.2999999999999996E-05
vn 1 0 -0
vn 1 -6.123233995736766E-23 -1E-06
vn -1 6.123233995736766E-23 1E-06
vn -1 6.123233995736766E-23 1E-06
vn -1 6.123233995736766E-23 1E-06
vn -1 6.123233995736766E-23 1E-06
vn -0 -0.17364499999999994 0.984808
vn -0 -0.17364499999999994 0.984808
vn -0 -0.17364499999999994 0.984808
vn 0 -0.17364399999999994 0.984809
vn 0 0.984808 0.17364799999999994
vn 0 0.984808 0.17364799999999994
vn 0 0.984808 0.17364799999999994
vn 0 0.984808 0.17364799999999994
vn -1E-06 -0.984808 -0.17364799999999994
vn -2E-06 -0.984808 -0.17364799999999994
vn -1E-06 -0.984808 -0.17364799999999994
vn 0 -0.984808 -0.17364799999999994
g ladder
f 1/1/1 2/2/2 3/3/3
f 3/3/3 4/4/4 1/1/1
f 5/5/5 6/6/6 7/7/7
f 7/7/7 8/8/8 5/5/5
f 9/9/9 10/10/10 11/11/11
f 11/11/11 12/12/12 9/9/9
f 13/13/13 14/14/14 15/15/15
f 15/15/15 16/16/16 13/13/13
f 17/17/17 18/18/18 19/19/19
f 19/19/19 20/20/20 17/17/17
f 21/21/21 22/22/22 23/23/23
f 23/23/23 24/24/24 21/21/21
f 25/25/25 26/26/26 27/27/27
f 27/27/27 28/28/28 25/25/25
f 29/29/29 30/30/30 31/31/31
f 31/31/31 32/32/32 29/29/29
f 33/33/33 34/34/34 35/35/35
f 35/35/35 36/36/36 33/33/33
f 37/37/37 38/38/38 39/39/39
f 39/39/39 40/40/40 37/37/37
f 41/41/41 42/42/42 43/43/43
f 43/43/43 44/44/44 41/41/41
f 45/45/45 46/46/46 47/47/47
f 47/47/47 48/48/48 45/45/45
f 49/49/49 50/50/50 51/51/51
f 51/51/51 52/52/52 49/49/49
f 53/53/53 54/54/54 55/55/55
f 55/55/55 56/56/56 53/53/53
f 57/57/57 58/58/58 59/59/59
f 59/59/59 60/60/60 57/57/57
f 61/61/61 62/62/62 63/63/63
f 63/63/63 64/64/64 61/61/61
f 65/65/65 66/66/66 67/67/67
f 67/67/67 68/68/68 65/65/65
f 69/69/69 70/70/70 71/71/71
f 71/71/71 72/72/72 69/69/69
f 73/73/73 74/74/74 75/75/75
f 75/75/75 76/76/76 73/73/73
f 77/77/77 78/78/78 79/79/79
f 79/79/79 80/80/80 77/77/77
f 81/81/81 82/82/82 83/83/83
f 83/83/83 84/84/84 81/81/81
f 85/85/85 86/86/86 87/87/87
f 87/87/87 88/88/88 85/85/85
f 89/89/89 90/90/90 91/91/91
f 91/91/91 92/92/92 89/89/89
f 93/93/93 94/94/94 95/95/95
f 95/95/95 96/96/96 93/93/93
f 97/97/97 98/98/98 99/99/99
f 99/99/99 100/100/100 97/97/97
f 101/101/101 102/102/102 103/103/103
f 103/103/103 104/104/104 101/101/101
f 105/105/105 106/106/106 107/107/107
f 107/107/107 108/108/108 105/105/105
f 109/109/109 110/110/110 111/111/111
f 111/111/111 112/112/112 109/109/109
f 113/113/113 114/114/114 115/115/115
f 115/115/115 116/116/116 113/113/113
f 117/117/117 118/118/118 119/119/119
f 119/119/119 120/120/120 117/117/117
f 121/121/121 122/122/122 123/123/123
f 123/123/123 124/124/124 121/121/121
f 125/125/125 126/126/126 127/127/127
f 127/127/127 128/128/128 125/125/125
f 129/129/129 130/130/130 131/131/131
f 131/131/131 132/132/132 129/129/129
f 133/133/133 134/134/134 135/135/135
f 135/135/135 136/136/136 133/133/133
f 137/137/137 138/138/138 139/139/139
f 139/139/139 140/140/140 137/137/137
f 141/141/141 142/142/142 143/143/143
f 143/143/143 144/144/144 141/141/141
f 145/145/145 146/146/146 147/147/147
f 147/147/147 148/148/148 145/145/145
f 149/149/149 150/150/150 151/151/151
f 151/151/151 152/152/152 149/149/149
f 153/153/153 154/154/154 155/155/155
f 155/155/155 156/156/156 153/153/153
f 157/157/157 158/158/158 159/159/159
f 159/159/159 160/160/160 157/157/157
f 161/161/161 162/162/162 163/163/163
f 163/163/163 164/164/164 161/161/161
f 165/165/165 166/166/166 167/167/167
f 167/167/167 168/168/168 165/165/165
f 169/169/169 170/170/170 171/171/171
f 171/171/171 172/172/172 169/169/169
f 173/173/173 174/174/174 175/175/175
f 175/175/175 176/176/176 173/173/173
f 177/177/177 178/178/178 179/179/179
f 179/179/179 180/180/180 177/177/177
f 181/181/181 182/182/182 183/183/183
f 183/183/183 184/184/184 181/181/181
f 185/185/185 186/186/186 187/187/187
f 187/187/187 188/188/188 185/185/185
f 189/189/189 190/190/190 191/191/191
f 191/191/191 192/192/192 189/189/189
f 193/193/193 194/194/194 195/195/195
f 195/195/195 196/196/196 193/193/193
f 197/197/197 198/198/198 199/199/199
f 199/199/199 200/200/200 197/197/197
f 201/201/201 202/202/202 203/203/203
f 203/203/203 204/204/204 201/201/201
f 205/205/205 206/206/206 207/207/207
f 207/207/207 208/208/208 205/205/205
f 209/209/209 210/210/210 211/211/211
f 211/211/211 212/212/212 209/209/209
f 213/213/213 214/214/214 215/215/215
f 215/215/215 216/216/216 213/213/213
f 217/217/217 218/218/218 219/219/219
f 219/219/219 220/220/220 217/217/217
f 221/221/221 222/222/222 223/223/223
f 223/223/223 224/224/224 221/221/221
f 225/225/225 226/226/226 227/227/227
f 227/227/227 228/228/228 225/225/225
f 229/229/229 230/230/230 231/231/231
f 231/231/231 232/232/232 229/229/229
f 233/233/233 234/234/234 235/235/235
f 235/235/235 236/236/236 233/233/233
f 237/237/237 238/238/238 239/239/239
f 239/239/239 240/240/240 237/237/237
f 241/241/241 242/242/242 243/243/243
f 243/243/243 244/244/244 241/241/241
f 245/245/245 246/246/246 247/247/247
f 247/247/247 248/248/248 245/245/245
f 249/249/249 250/250/250 251/251/251
f 251/251/251 252/252/252 249/249/249
f 253/253/253 254/254/254 255/255/255
f 255/255/255 256/256/256 253/253/253
f 257/257/257 258/258/258 259/259/259
f 259/259/259 260/260/260 257/257/257
f 261/261/261 262/262/262 263/263/263
f 263/263/263 264/264/264 261/261/261
f 265/265/265 266/266/266 267/267/267
f 267/267/267 268/268/268 265/265/265
f 269/269/269 270/270/270 271/271/271
f 271/271/271 272/272/272 269/269/269
f 273/273/273 274/274/274 275/275/275
f 275/275/275 276/276/276 273/273/273
f 277/277/277 278/278/278 279/279/279
f 279/279/279 280/280/280 277/277/277
f 281/281/281 282/282/282 283/283/283
f 283/283/283 284/284/284 281/281/281
f 285/285/285 286/286/286 287/287/287
f 287/287/287 288/288/288 285/285/285
f 289/289/289 290/290/290 291/291/291
f 291/291/291 292/292/292 289/289/289
f 293/293/293 294/294/294 295/295/295
f 295/295/295 296/296/296 293/293/293
f 297/297/297 298/298/298 299/299/299
f 299/299/299 300/300/300 297/297/297
f 301/301/301 302/302/302 303/303/303
f 303/303/303 304/304/304 301/301/301
f 305/305/305 306/306/306 307/307/307
f 307/307/307 308/308/308 305/305/305
f 309/309/309 310/310/310 311/311/311
f 311/311/311 312/312/312 309/309/309
f 313/313/313 314/314/314 315/315/315
f 315/315/315 316/316/316 313/313/313
f 317/317/317 318/318/318 319/319/319
f 319/319/319 320/320/320 317/317/317
f 321/321/321 322/322/322 323/323/323
f 323/323/323 324/324/324 321/321/321
f 325/325/325 326/326/326 327/327/327
f 327/327/327 328/328/328 325/325/325
f 329/329/329 330/330/330 331/331/331
f 331/331/331 332/332/332 329/329/329
f 333/333/333 334/334/334 335/335/335
f 335/335/335 336/336/336 333/333/333
f 337/337/337 338/338/338 339/339/339
f 339/339/339 340/340/340 337/337/337
f 341/341/341 342/342/342 343/343/343
f 343/343/343 344/344/344 341/341/341
f 345/345/345 346/346/346 347/347/347
f 347/347/347 348/348/348 345/345/345
f 349/349/349 350/350/350 351/351/351
f 351/351/351 352/352/352 349/349/349
f 353/353/353 354/354/354 355/355/355
f 355/355/355 356/356/356 353/353/353
f 357/357/357 358/358/358 359/359/359
f 359/359/359 360/360/360 357/357/357
f 361/361/361 362/362/362 363/363/363
f 363/363/363 364/364/364 361/361/361
f 365/365/365 366/366/366 367/367/367
f 367/367/367 368/368/368 365/365/365
f 369/369/369 370/370/370 371/371/371
f 371/371/371 372/372/372 369/369/369
f 373/373/373 374/374/374 375/375/375
f 375/375/375 376/376/376 373/373/373
f 377/377/377 378/378/378 379/379/379
f 379/379/379 380/380/380 377/377/377
f 381/381/381 382/382/382 383/383/383
f 383/383/383 384/384/384 381/381/381
f 385/385/385 386/386/386 387/387/387
f 387/387/387 388/388/388 385/385/385
f 389/389/389 390/390/390 391/391/391
f 391/391/391 392/392/392 389/389/389
f 393/393/393 394/394/394 395/395/395
f 395/395/395 396/396/396 393/393/393
f 397/397/397 398/398/398 399/399/399
f 399/399/399 400/400/400 397/397/397
f 401/401/401 402/402/402 403/403/403
f 403/403/403 404/404/404 401/401/401
f 405/405/405 406/406/406 407/407/407
f 407/407/407 408/408/408 405/405/405
f 409/409/409 410/410/410 411/411/411
f 411/411/411 412/412/412 409/409/409
f 413/413/413 414/414/414 415/415/415
f 415/415/415 416/416/416 413/413/413
f 417/417/417 418/418/418 419/419/419
f 419/419/419 420/420/420 417/417/417
f 421/421/421 422/422/422 423/423/423
f 423/423/423 424/424/424 421/421/421
f 425/425/425 426/426/426 427/427/427
f 427/427/427 428/428/428 425/425/425
f 429/429/429 430/430/430 431/431/431
f 431/431/431 432/432/432 429/429/429
f 433/433/433 434/434/434 435/435/435
f 435/435/435 436/436/436 433/433/433
f 437/437/437 438/438/438 439/439/439
f 439/439/439 440/440/440 437/437/437
f 441/441/441 442/442/442 443/443/443
f 443/443/443 444/444/444 441/441/441
f 445/445/445 446/446/446 447/447/447
f 447/447/447 448/448/448 445/445/445
f 449/449/449 450/450/450 451/451/451
f 451/451/451 452/452/452 449/449/449
f 453/453/453 454/454/454 455/455/455
f 455/455/455 456/456/456 453/453/453
f 457/457/457 458/458/458 459/459/459
f 459/459/459 460/460/460 457/457/457
f 461/461/461 462/462/462 463/463/463
f 463/463/463 464/464/464 461/461/461
f 465/465/465 466/466/466 467/467/467
f 467/467/467 468/468/468 465/465/465
f 469/469/469 470/470/470 471/471/471
f 471/471/471 472/472/472 469/469/469
f 473/473/473 474/474/474 475/475/475
f 475/475/475 476/476/476 473/473/473
