v -0.452561 0.273449 0.08081099999999998
v -0.449513 0.290024 -1.77588481637956E-17
v -0.567354 0.246191 -1.50748510064443E-17
v -0.358681 0.229373 -1.4045045513041292E-17
v -0.543802 0.239511 0.054442999999999984
v -0.530264 0.14317 -8.766634111696328E-18
v -0.382233 0.226489 0.054442999999999984
v -0.515085 0.159744 0.08081099999999998
v -0.397354 0.154396 -9.454028360057738E-18
v -0.412176 0.168437 0.05444299999999999
v 0.016876 0.379738 0.05444299999999998
v -0.018576 0.382496 -2.3421125104333302E-17
v 0.070879 0.262717 -1.608677665657976E-17
v 0.118787 0.476932 -2.9203662360547276E-17
v 0.089786 0.291472 0.09509999999999999
v 0.238979 0.305229 -1.8689885892847373E-17
v 0.116424 0.448177 0.05444299999999997
v 0.203528 0.323743 0.05444299999999998
v 0.230394 0.434007 -2.6575264167877264E-17
v 0.133684 0.361158 0.11536399999999997
v 0.197306 0.417069 0.09509999999999998
v 0.116424 0.448177 0.05444299999999997
v 0.181634 0.046617000000000006 0.075439
v 0.149739 0.045545 -2.78882692335831E-18
v 0.272793 -0.025998 1.5919183742116445E-18
v 0.224144 0.114226 -6.994325263970278E-18
v 0.281638 -0.011524999999999994 0.116516
v 0.435911 -0.000243 1.487945860964034E-20
v 0.242101 0.10243300000000001 0.116516
v 0.414201 0.009406000000000006 0.107162
v 0.490284 0.065577 -4.015433157384299E-18
v 0.261278 0.04716000000000001 0.15802
v 0.385607 0.060875000000000005 0.148666
v 0.458389 0.062896 0.075439
v 0.364368 0.128534 -7.870437584080296E-18
v 0.356059 0.114061 0.10716199999999998
v 0.252476 -0.298417 0.03509500000000002
v 0.267274 -0.274414 1.680301133706109E-17
v 0.175699 -0.285195 1.746315719414147E-17
v 0.276904 -0.335227 0.03509500000000002
v 0.3102 -0.339099 2.0763825247203415E-17
v 0.200363 -0.304552 0.05444300000000002
v 0.155667 -0.339099 2.0763825247203415E-17
v 0.241076 -0.361812 0.05444300000000002
v 0.247242 -0.385815 2.3624355240651804E-17
v 0.188964 -0.335227 0.04095500000000002
v -0.146445 -0.100608 0.054443000000000005
v -0.128586 -0.085734 5.249693433904959E-18
v -0.223737 -0.06284 3.847840242920983E-18
v -0.128187 -0.174739 0.05444300000000001
v -0.103918 -0.185894 1.1382724604034904E-17
v -0.216868 -0.083664 0.076538
v -0.290694 -0.137245 8.403832497448924E-18
v -0.219476 -0.202273 0.07653800000000001
v -0.227261 -0.223096 1.3660690115128895E-17
v -0.266425 -0.138732 0.054443000000000005
v 0.719244 -0.220615 1.3508772679694666E-17
v 0.757917 -0.145638 8.91775552671111E-18
v 0.730604 -0.148983 0.054443000000000005
v 0.702055 -0.204333 0.05444300000000001
v 0.586334 -0.231842 1.419622816039603E-17
v 0.66355 -0.104209 0.05890700000000001
v 0.667086 -0.084988 5.204014108296762E-18
v 0.682494 -0.153469 0.09193200000000001
v 0.603938 -0.21262 0.07465400000000001
v 0.549245 -0.12882 7.887950033308101E-18
v 0.576558 -0.136567 0.054443000000000005
v 0.950226 0.337296 0.12087199999999998
v 0.992359 0.38387 -2.3505258339434722E-17
v 0.7795 0.355054 -2.1740787231223216E-17
v 0.987367 0.265787 0.09631299999999998
v 1.040752 0.271563 -1.6628437935842633E-17
v 0.786858 0.315181 0.13403299999999999
v 0.595437 0.256922 -1.5731935246526812E-17
v 0.931237 0.258728 0.16066699999999998
v 0.910252 0.171901 0.12087199999999998
v 0.940275 0.149235 -9.138008253537763E-18
v 0.759594 0.235592 0.17382799999999998
v 0.656055 0.247512 0.09631299999999998
v 0.567908 0.182327 -1.1164308847406973E-17
v 0.732381 0.15615 0.134033
v 0.708519 0.128711 -7.881275708252748E-18
v 0.634926 0.190261 0.09631299999999998
vt 0.827624 0.348980
vt 0.833030 0.279479
vt 0.992679 0.397436
vt 0.671737 0.369075
vt 0.949665 0.405055
vt 0.912145 0.555902
vt 0.727091 0.376894
vt 0.881845 0.500032
vt 0.707443 0.509065
vt 0.746168 0.465935
vt 0.896175 0.069116
vt 0.990315 0.032354
vt 0.933888 0.273116
vt 0.736023 0.008742
vt 0.846514 0.187543
vt 0.622942 0.264432
vt 0.726076 0.067668
vt 0.696864 0.244726
vt 0.584184 0.109368
vt 0.774807 0.153853
vt 0.680116 0.149858
vt 0.726639 0.068896
vt 0.919291 0.680412
vt 0.954184 0.659063
vt 0.987345 0.854964
vt 0.781653 0.639885
vt 0.900198 0.806929
vt 0.803433 0.989616
vt 0.814927 0.728199
vt 0.805885 0.911605
vt 0.652085 0.961519
vt 0.857084 0.769466
vt 0.792690 0.865723
vt 0.706749 0.929958
vt 0.634284 0.774129
vt 0.739425 0.812744
vt 0.081703 0.920583
vt 0.044011 0.975208
vt 0.199620 0.993679
vt 0.060027 0.827799
vt 0.005921 0.812163
vt 0.171038 0.926503
vt 0.259419 0.883608
vt 0.132868 0.780918
vt 0.132545 0.737849
vt 0.204522 0.867066
vt 0.565090 0.555709
vt 0.518937 0.519200
vt 0.679321 0.495672
vt 0.517941 0.635093
vt 0.469876 0.654978
vt 0.656630 0.551485
vt 0.764816 0.624663
vt 0.627176 0.675454
vt 0.644411 0.733353
vt 0.714077 0.622504
vt 0.316675 0.976143
vt 0.242350 0.834673
vt 0.309885 0.832870
vt 0.349637 0.918547
vt 0.559238 0.974361
vt 0.420854 0.757667
vt 0.404884 0.697911
vt 0.394494 0.835873
vt 0.511510 0.914312
vt 0.622672 0.784280
vt 0.571913 0.804845
vt 0.189157 0.599589
vt 0.029287 0.656813
vt 0.069611 0.296019
vt 0.274255 0.665980
vt 0.210929 0.780233
vt 0.213929 0.374711
vt 0.299291 0.032355
vt 0.293015 0.559094
vt 0.398496 0.539229
vt 0.454603 0.658562
vt 0.314341 0.326593
vt 0.297887 0.169105
vt 0.460512 0.015144
vt 0.412749 0.277212
vt 0.578991 0.277508
vt 0.377949 0.128193
vn 0.074247 0.765801 0.638777
vn 0.113066 0.972478 0.20372299999999993
vn -0.697192 0.629828 0.34240299999999996
vn 0.901373 0.22079300000000002 0.372528
vn -0.812071 0.15044600000000002 0.563832
vn -0.708107 -0.634971 0.30886300000000005
vn 0.609046 0.009237000000000049 0.793081
vn -0.122454 -0.537547 0.834295
vn 0.395183 -0.868737 0.29854100000000006
vn 0.606297 -0.565233 0.559389
vn -0.707859 0.20987400000000003 0.674454
vn -0.8251 0.14950000000000002 0.544848
vn -0.498033 -0.776226 0.38656900000000005
vn -0.128884 0.896776 0.42329799999999995
vn -0.053762 -0.697959 0.714117
vn 0.579501 -0.641574 0.502555
vn -0.229141 0.720223 0.654808
vn 0.685607 -0.3438939999999999 0.641623
vn 0.831256 0.341693 0.438473
vn -0.013446 0.16839600000000005 0.985628
vn 0.460777 0.517767 0.720834
vn -0.027214 0.743954 0.667676
vn -0.865331 -0.15000499999999997 0.478227
vn -0.915111 -0.10813299999999998 0.388432
vn -0.309139 -0.936233 0.16703800000000005
vn -0.419283 0.889366 0.18229099999999995
vn -0.101605 -0.863594 0.49384400000000006
vn 0.378609 -0.912408 0.15545800000000007
vn -0.442446 0.734134 0.515062
vn 0.587845 -0.642386 0.49171000000000004
vn 0.931072 -0.10597199999999997 0.349106
vn -0.300269 0.08718400000000005 0.949862
vn 0.373864 0.004265000000000056 0.927474
vn 0.747635 0.45231800000000005 0.486263
vn 0.282566 0.943794 0.17149299999999995
vn 0.145555 0.874818 0.4620679999999999
vn 0.256409 0.692641 0.674169
vn 0.45572 0.633417 0.625382
vn -0.343665 0.789773 0.508087
vn 0.570229 0.20407700000000006 0.795733
vn 0.725522 -0.26643999999999995 0.63453
vn -0.283666 0.3132400000000001 0.906319
vn -0.782255 -0.19219199999999997 0.59257
vn 0.174663 -0.521933 0.834913
vn -0.136157 -0.897641 0.41916800000000004
vn -0.574055 -0.525031 0.628334
vn 0.522087 0.645788 0.557121
vn 0.764098 0.513214 0.3908519999999999
vn -0.078255 0.950356 0.30116299999999996
vn 0.671719 -0.08875999999999996 0.735469
vn 0.641641 -0.664047 0.3838480000000001
vn -0.239617 0.501712 0.831185
vn -0.895589 0.251454 0.367004
vn -0.104317 -0.654827 0.748545
vn -0.514419 -0.800637 0.3071710000000001
vn -0.824566 -0.16049299999999997 0.542525
vn 0.634845 -0.66199 0.39842500000000003
vn 0.779213 0.473893 0.41018599999999994
vn 0.792594 0.056817000000000034 0.607097
vn 0.416497 -0.717155 0.558765
vn -0.278621 -0.901397 0.33144100000000004
vn 0.216902 0.811654 0.542376
vn -0.054803 0.947789 0.31415399999999993
vn 0.17954 0.09671900000000005 0.978985
vn -0.470743 -0.50617 0.722629
vn -0.892848 0.15318700000000002 0.423505
vn -0.510323 0.535682 0.672767
vn 0.339322 0.692426 0.636715
vn 0.611221 0.631296 0.47736199999999995
vn -0.231472 0.925856 0.29868399999999995
vn 0.839291 -0.031104999999999966 0.542792
vn 0.855905 -0.288745 0.429013
vn -0.277128 0.72467 0.630915
vn -0.614975 0.666998 0.42061799999999994
vn 0.376122 0.043224000000000054 0.925561
vn 0.473526 -0.64292 0.602019
vn 0.329994 -0.911444 0.24571000000000007
vn -0.238148 -0.00411399999999994 0.97122
vn -0.655968 0.43396500000000005 0.61756
vn -0.809352 -0.12630899999999998 0.573582
vn -0.124723 -0.827185 0.547914
vn -0.225046 -0.940278 0.25540500000000005
vn -0.628098 -0.38204099999999996 0.677892
g waterstone
f 1/1/1 2/2/2 3/3/3
f 4/4/4 2/2/2 1/1/1
f 3/3/3 5/5/5 1/1/1
f 5/5/5 3/3/3 6/6/6
f 1/1/1 7/7/7 4/4/4
f 6/6/6 8/8/8 5/5/5
f 1/1/1 5/5/5 8/8/8
f 7/7/7 1/1/1 8/8/8
f 8/8/8 6/6/6 9/9/9
f 4/4/4 7/7/7 10/10/10
f 10/10/10 9/9/9 4/4/4
f 8/8/8 10/10/10 7/7/7
f 9/9/9 10/10/10 8/8/8
f 11/11/11 12/12/12 13/13/13
f 12/12/12 11/11/11 14/14/14
f 13/13/13 15/15/15 11/11/11
f 15/15/15 13/13/13 16/16/16
f 11/11/11 17/17/17 14/14/14
f 16/16/16 18/18/18 15/15/15
f 18/18/18 16/16/16 19/19/19
f 11/11/11 15/15/15 20/20/20
f 20/20/20 15/15/15 18/18/18
f 17/17/17 11/11/11 20/20/20
f 19/19/19 21/21/21 18/18/18
f 20/20/20 18/18/18 21/21/21
f 21/21/21 19/19/19 14/14/14
f 22/22/22 17/17/17 20/20/20
f 17/17/17 22/22/22 14/14/14
f 20/20/20 21/21/21 22/22/22
f 14/14/14 22/22/22 21/21/21
f 23/23/23 24/24/24 25/25/25
f 26/26/26 24/24/24 23/23/23
f 25/25/25 27/27/27 23/23/23
f 27/27/27 25/25/25 28/28/28
f 23/23/23 29/29/29 26/26/26
f 28/28/28 30/30/30 27/27/27
f 30/30/30 28/28/28 31/31/31
f 23/23/23 27/27/27 32/32/32
f 23/23/23 32/32/32 29/29/29
f 27/27/27 30/30/30 33/33/33
f 33/33/33 32/32/32 27/27/27
f 31/31/31 34/34/34 30/30/30
f 33/33/33 30/30/30 34/34/34
f 34/34/34 31/31/31 35/35/35
f 32/32/32 33/33/33 36/36/36
f 33/33/33 34/34/34 36/36/36
f 36/36/36 29/29/29 32/32/32
f 35/35/35 36/36/36 34/34/34
f 26/26/26 29/29/29 36/36/36
f 36/36/36 35/35/35 26/26/26
f 37/37/37 38/38/38 39/39/39
f 38/38/38 37/37/37 40/40/40
f 40/40/40 41/41/41 38/38/38
f 39/39/39 42/42/42 37/37/37
f 40/40/40 37/37/37 42/42/42
f 42/42/42 39/39/39 43/43/43
f 41/41/41 40/40/40 44/44/44
f 42/42/42 44/44/44 40/40/40
f 44/44/44 45/45/45 41/41/41
f 43/43/43 46/46/46 42/42/42
f 46/46/46 43/43/43 45/45/45
f 46/46/46 44/44/44 42/42/42
f 45/45/45 44/44/44 46/46/46
f 47/47/47 48/48/48 49/49/49
f 48/48/48 47/47/47 50/50/50
f 50/50/50 51/51/51 48/48/48
f 49/49/49 52/52/52 47/47/47
f 50/50/50 47/47/47 52/52/52
f 52/52/52 49/49/49 53/53/53
f 51/51/51 50/50/50 54/54/54
f 52/52/52 54/54/54 50/50/50
f 54/54/54 55/55/55 51/51/51
f 53/53/53 56/56/56 52/52/52
f 56/56/56 53/53/53 55/55/55
f 56/56/56 54/54/54 52/52/52
f 55/55/55 54/54/54 56/56/56
f 57/57/57 58/58/58 59/59/59
f 59/59/59 60/60/60 57/57/57
f 61/61/61 57/57/57 60/60/60
f 62/62/62 59/59/59 58/58/58
f 58/58/58 63/63/63 62/62/62
f 64/64/64 60/60/60 59/59/59
f 59/59/59 62/62/62 64/64/64
f 60/60/60 65/65/65 61/61/61
f 65/65/65 60/60/60 64/64/64
f 66/66/66 61/61/61 65/65/65
f 67/67/67 64/64/64 62/62/62
f 67/67/67 65/65/65 64/64/64
f 67/67/67 62/62/62 63/63/63
f 65/65/65 67/67/67 66/66/66
f 63/63/63 66/66/66 67/67/67
f 68/68/68 69/69/69 70/70/70
f 69/69/69 68/68/68 71/71/71
f 71/71/71 72/72/72 69/69/69
f 70/70/70 73/73/73 68/68/68
f 73/73/73 70/70/70 74/74/74
f 75/75/75 71/71/71 68/68/68
f 75/75/75 68/68/68 73/73/73
f 72/72/72 71/71/71 76/76/76
f 75/75/75 76/76/76 71/71/71
f 76/76/76 77/77/77 72/72/72
f 73/73/73 78/78/78 75/75/75
f 76/76/76 75/75/75 78/78/78
f 74/74/74 79/79/79 73/73/73
f 78/78/78 73/73/73 79/79/79
f 79/79/79 74/74/74 80/80/80
f 77/77/77 76/76/76 81/81/81
f 78/78/78 81/81/81 76/76/76
f 81/81/81 82/82/82 77/77/77
f 79/79/79 83/83/83 78/78/78
f 83/83/83 81/81/81 78/78/78
f 80/80/80 83/83/83 79/79/79
f 82/82/82 81/81/81 83/83/83
f 83/83/83 80/80/80 82/82/82
