v -0.498841 1 0.026471999999999937
v 0.441429 2.2031824543040585E-17 0.359807
v 0.441429 0.09709500000000003 0.359807
v -0.498841 0.09709500000000003 0.359807
v -0.498841 2.2031824543040585E-17 0.359807
v 0.441429 0.572979 0.15274799999999997
v 0.441429 1 0.026471999999999937
v 0.493276 0.946917 0.009006999999999942
v 0.536561 0.946917 0.009006999999999942
v 0.470384 0.032897000000000044 0.715119
v 0.499695 0.019228000000000044 0.715119
v 0.759843 0.72963 0.009006999999999954
v 0.789155 0.715961 0.009006999999999956
v 0.43085 -0.0065009999999999565 0.715119
v 0.474133 -0.0065009999999999565 0.715119
v 0.441429 0.636345 0.13036799999999998
v 0.524837 0.572979 0.15274799999999997
v 0.524837 0.636345 0.13036799999999998
v -0.435832 -0.0065009999999999565 0.715119
v -0.479116 -0.0065009999999999565 0.715119
v -0.498259 0.946917 0.009006999999999942
v -0.541544 0.946917 0.009006999999999942
v -0.475367 0.032897000000000044 0.715119
v -0.504679 0.019228000000000044 0.715119
v -0.764824 0.72963 0.009006999999999954
v -0.794136 0.715961 0.009006999999999956
v 0.503957 0.000372 -2.2778430464140768E-20
v 0.518057 0.00037200000000005436 0.887538
v 0.468094 0.043640000000000054 0.887538
v 0.453996 0.04364 -2.6721793157395244E-18
v 0.418133 0.00037200000000005436 0.887538
v 0.404034 0.000372 -2.2778430464140768E-20
v 0.468094 -0.04289699999999994 0.887538
v 0.453996 -0.042897 2.6266836871512004E-18
v -0.508939 0.000372 -2.2778430464140768E-20
v -0.458978 0.04364 -2.6721793157395244E-18
v -0.473077 0.043640000000000054 0.887538
v -0.523039 0.00037200000000005436 0.887538
v -0.409016 0.000372 -2.2778430464140768E-20
v -0.423115 0.00037200000000005436 0.887538
v -0.458978 -0.042897 2.6266836871512004E-18
v -0.473077 -0.04289699999999994 0.887538
v -0.49884 -1 0.02647200000000006
v 0.441429 2.2031824543040585E-17 0.359807
v 0.441429 -0.09709499999999997 0.359807
v -0.49884 -0.09709499999999997 0.359807
v -0.49884 2.2031824543040585E-17 0.359807
v 0.441429 -0.572979 0.15274800000000002
v 0.441429 -1 0.02647200000000006
v 0.493276 -0.946917 0.009007000000000057
v 0.536561 -0.946917 0.009007000000000057
v 0.470385 -0.022840999999999955 0.715119
v 0.499697 -0.009172999999999957 0.715119
v 0.759842 -0.72963 0.009007000000000044
v 0.789155 -0.715961 0.009007000000000043
v 0.43085 0.016557000000000044 0.715119
v 0.474133 0.016557000000000044 0.715119
v 0.441429 -0.636345 0.13036800000000004
v 0.524837 -0.572979 0.15274800000000002
v 0.524837 -0.636345 0.13036800000000004
v -0.435832 0.016557000000000044 0.715119
v -0.479116 0.016557000000000044 0.715119
v -0.498258 -0.946917 0.009007000000000057
v -0.541543 -0.946917 0.009007000000000057
v -0.475367 -0.022840999999999955 0.715119
v -0.504678 -0.009172999999999957 0.715119
v -0.764824 -0.72963 0.009007000000000044
v -0.794136 -0.715961 0.009007000000000043
v 0.461782 -0.508202 0.3151880000000001
v 0.505043 -0.508202 0.3151880000000001
v 0.644037 -0.405589 0.315188
v 0.614742 -0.419257 0.315188
v -0.466766 -0.508202 0.3151880000000001
v -0.510025 -0.508202 0.3151880000000001
v -0.649018 -0.405589 0.315188
v -0.619724 -0.419257 0.315188
v 0.461782 0.508202 0.31518799999999997
v 0.505043 0.508202 0.31518799999999997
v 0.644037 0.405589 0.315188
v 0.614742 0.419257 0.315188
v -0.466767 0.508202 0.31518799999999997
v -0.510025 0.508202 0.31518799999999997
v -0.649019 0.405589 0.315188
v -0.619725 0.419257 0.315188
v 0.786073 0.693611 0.16533899999999996
v 0.836035 0.736879 0.16533899999999996
v 0.736111 0.736879 0.16533899999999996
v 0.771974 0.736879 -0.11233500000000005
v 0.786073 0.780148 0.16533899999999996
v -0.810529 0.708368 0.16533899999999996
v -0.760568 0.6651 0.16533899999999999
v -0.710605 0.708368 0.16533899999999996
v -0.760568 0.751637 0.16533899999999996
v -0.746468 0.708368 -0.11233500000000005
v 0.837866 -0.737627 0.16533900000000007
v 0.787904 -0.694359 0.16533900000000007
v 0.737941 -0.737627 0.16533900000000007
v 0.787904 -0.780895 0.16533900000000007
v 0.773804 -0.737627 -0.11233499999999996
v -0.79603 -0.673553 0.16533900000000004
v -0.845991 -0.716822 0.16533900000000007
v -0.746067 -0.716822 0.16533900000000007
v -0.781929 -0.716822 -0.11233499999999996
v -0.79603 -0.76009 0.16533900000000007
v 0.441429 0.572979 0.15274799999999997
v 0.441429 0.636345 0.13036799999999998
v 0.453996 0.04364 -2.6721793157395244E-18
v 0.404034 0.000372 -2.2778430464140768E-20
v 0.418133 0.00037200000000005436 0.887538
v 0.518057 0.00037200000000005436 0.887538
v 0.468094 -0.04289699999999994 0.887538
v 0.418133 0.00037200000000005436 0.887538
v 0.468094 0.043640000000000054 0.887538
v -0.458978 0.04364 -2.6721793157395244E-18
v -0.423115 0.00037200000000005436 0.887538
v -0.409016 0.000372 -2.2778430464140768E-20
v -0.523039 0.00037200000000005436 0.887538
v -0.423115 0.00037200000000005436 0.887538
v -0.473077 -0.04289699999999994 0.887538
v -0.473077 0.043640000000000054 0.887538
v 0.441429 -0.572979 0.15274800000000002
v 0.441429 -0.636345 0.13036800000000004
v 0.771974 0.736879 -0.11233500000000005
v 0.736111 0.736879 0.16533899999999996
v 0.836035 0.736879 0.16533899999999996
v 0.736111 0.736879 0.16533899999999996
v 0.786073 0.780148 0.16533899999999996
v 0.786073 0.693611 0.16533899999999996
v -0.746468 0.708368 -0.11233500000000005
v -0.710605 0.708368 0.16533899999999996
v -0.810529 0.708368 0.16533899999999996
v -0.760568 0.751637 0.16533899999999996
v -0.710605 0.708368 0.16533899999999996
v -0.760568 0.6651 0.16533899999999999
v 0.773804 -0.737627 -0.11233499999999996
v 0.737941 -0.737627 0.16533900000000007
v 0.837866 -0.737627 0.16533900000000007
v 0.787904 -0.780895 0.16533900000000007
v 0.737941 -0.737627 0.16533900000000007
v 0.787904 -0.694359 0.16533900000000007
v -0.781929 -0.716822 -0.11233499999999996
v -0.746067 -0.716822 0.16533900000000007
v -0.845991 -0.716822 0.16533900000000007
v -0.746067 -0.716822 0.16533900000000007
v -0.79603 -0.76009 0.16533900000000007
v -0.79603 -0.673553 0.16533900000000004
v 0.468094 0.043640000000000054 0.887538
v 0.468094 0.043640000000000054 0.887538
v 0.503957 0.000372 -2.2778430464140768E-20
v 0.453996 -0.042897 2.6266836871512004E-18
v 0.468094 -0.04289699999999994 0.887538
v 0.468094 -0.04289699999999994 0.887538
v 0.518057 0.00037200000000005436 0.887538
v 0.503957 0.000372 -2.2778430464140768E-20
v -0.473077 0.043640000000000054 0.887538
v -0.473077 0.043640000000000054 0.887538
v -0.473077 -0.04289699999999994 0.887538
v -0.458978 -0.042897 2.6266836871512004E-18
v -0.508939 0.000372 -2.2778430464140768E-20
v -0.508939 0.000372 -2.2778430464140768E-20
v -0.523039 0.00037200000000005436 0.887538
v -0.473077 -0.04289699999999994 0.887538
v 0.786073 0.693611 0.16533899999999996
v 0.771974 0.736879 -0.11233500000000005
v 0.771974 0.736879 -0.11233500000000005
v 0.836035 0.736879 0.16533899999999996
v 0.786073 0.780148 0.16533899999999996
v -0.760568 0.6651 0.16533899999999999
v -0.746468 0.708368 -0.11233500000000005
v -0.746468 0.708368 -0.11233500000000005
v -0.760568 0.751637 0.16533899999999996
v -0.810529 0.708368 0.16533899999999996
v 0.787904 -0.694359 0.16533900000000007
v 0.773804 -0.737627 -0.11233499999999996
v 0.773804 -0.737627 -0.11233499999999996
v 0.787904 -0.780895 0.16533900000000007
v 0.837866 -0.737627 0.16533900000000007
v -0.79603 -0.673553 0.16533900000000004
v -0.781929 -0.716822 -0.11233499999999996
v -0.781929 -0.716822 -0.11233499999999996
v -0.845991 -0.716822 0.16533900000000007
v -0.79603 -0.76009 0.16533900000000007
vt 0.001132 0.585099
vt 0.266549 0.011366
vt 0.266283 0.063214
vt 0.003598 0.059030
vt 0.003869 0.007254
vt 0.264981 0.344661
vt 0.263812 0.589354
vt 0.583588 0.633987
vt 0.601823 0.634315
vt 0.581050 0.067418
vt 0.594460 0.067968
vt 0.584597 0.587577
vt 0.600025 0.587855
vt 0.579396 0.019175
vt 0.595245 0.019825
vt 0.264807 0.381452
vt 0.285595 0.344995
vt 0.285421 0.381786
vt 0.579396 0.019175
vt 0.595245 0.019825
vt 0.583588 0.633987
vt 0.601823 0.634315
vt 0.581050 0.067418
vt 0.594460 0.067968
vt 0.584597 0.587577
vt 0.600025 0.587855
vt 0.941186 0.489013
vt 0.941935 0.006620
vt 0.966123 0.007318
vt 0.966719 0.489171
vt 0.991573 0.007649
vt 0.993334 0.488480
vt 0.917002 0.007190
vt 0.915742 0.489169
vt 0.627580 0.864620
vt 0.627659 0.813554
vt 0.386732 0.814748
vt 0.386384 0.863124
vt 0.627518 0.770506
vt 0.386898 0.763847
vt 0.627658 0.915508
vt 0.386669 0.912989
vt 0.001132 0.585099
vt 0.266549 0.011366
vt 0.266283 0.063214
vt 0.003598 0.059030
vt 0.003869 0.007254
vt 0.264981 0.344661
vt 0.263812 0.589354
vt 0.583588 0.633987
vt 0.601823 0.634315
vt 0.581050 0.067418
vt 0.594460 0.067968
vt 0.584597 0.587577
vt 0.600025 0.587855
vt 0.579396 0.019175
vt 0.595245 0.019825
vt 0.264807 0.381452
vt 0.285595 0.344995
vt 0.285421 0.381786
vt 0.579396 0.019175
vt 0.595245 0.019825
vt 0.583588 0.633987
vt 0.601823 0.634315
vt 0.581050 0.067418
vt 0.594460 0.067968
vt 0.584597 0.587577
vt 0.600025 0.587855
vt 0.581492 0.326581
vt 0.598534 0.327070
vt 0.597242 0.327912
vt 0.582824 0.327498
vt 0.581492 0.326581
vt 0.598534 0.327070
vt 0.597242 0.327912
vt 0.582824 0.327498
vt 0.581492 0.326581
vt 0.598534 0.327070
vt 0.597242 0.327912
vt 0.582824 0.327498
vt 0.581492 0.326581
vt 0.598534 0.327070
vt 0.597242 0.327912
vt 0.582824 0.327498
vt 0.966123 0.510419
vt 0.941935 0.509721
vt 0.991573 0.510751
vt 0.928271 0.992268
vt 0.917002 0.510291
vt 0.636410 0.876845
vt 0.636759 0.828469
vt 0.636924 0.777568
vt 0.636695 0.926710
vt 0.877683 0.904170
vt 0.941935 0.006620
vt 0.966123 0.007318
vt 0.991573 0.007649
vt 0.917002 0.007190
vt 0.928271 0.489167
vt 0.386732 0.814748
vt 0.386384 0.863124
vt 0.386898 0.763847
vt 0.627657 0.890449
vt 0.386669 0.912989
vt 0.264981 0.344661
vt 0.264807 0.381452
vt 0.974730 0.488313
vt 0.889439 0.489314
vt 0.891129 0.007543
vt 0.562354 0.626686
vt 0.546662 0.656933
vt 0.530969 0.626686
vt 0.546662 0.596439
vt 0.627338 0.823788
vt 0.386845 0.964735
vt 0.627731 0.968114
vt 0.645366 0.662208
vt 0.613981 0.662208
vt 0.629673 0.692455
vt 0.629673 0.631961
vt 0.264981 0.344661
vt 0.264807 0.381452
vt 0.984032 0.991498
vt 0.891129 0.510644
vt 0.707186 0.644981
vt 0.675801 0.644981
vt 0.691494 0.675227
vt 0.691494 0.614734
vt 0.877454 0.810868
vt 0.636871 0.978455
vt 0.749798 0.646963
vt 0.734105 0.677209
vt 0.718413 0.646963
vt 0.734105 0.616716
vt 0.984032 0.488397
vt 0.891129 0.007543
vt 0.562354 0.626686
vt 0.546662 0.656933
vt 0.530969 0.626686
vt 0.546662 0.596439
vt 0.627428 0.797147
vt 0.386845 0.964735
vt 0.645366 0.662208
vt 0.613981 0.662208
vt 0.629673 0.692455
vt 0.629673 0.631961
vt 0.966123 0.007318
vt 0.966123 0.007318
vt 0.941186 0.489013
vt 0.915742 0.489169
vt 0.917002 0.007190
vt 0.917002 0.007190
vt 0.941935 0.006620
vt 0.941186 0.489013
vt 0.386732 0.814748
vt 0.386732 0.814748
vt 0.386669 0.912989
vt 0.627658 0.915508
vt 0.627580 0.864620
vt 0.627580 0.864620
vt 0.386384 0.863124
vt 0.386669 0.912989
vt 0.966123 0.510419
vt 0.928271 0.992268
vt 0.928271 0.992268
vt 0.941935 0.509721
vt 0.917002 0.510291
vt 0.636759 0.828469
vt 0.877683 0.904170
vt 0.877683 0.904170
vt 0.636695 0.926710
vt 0.636410 0.876845
vt 0.966123 0.007318
vt 0.928271 0.489167
vt 0.928271 0.489167
vt 0.917002 0.007190
vt 0.941935 0.006620
vt 0.386732 0.814748
vt 0.627657 0.890449
vt 0.627657 0.890449
vt 0.386384 0.863124
vt 0.386669 0.912989
vn 0.020659 0.3385250000000001 0.940731
vn 0 6.123233995736766E-17 1
vn 0.014754 0.18966100000000005 0.981739
vn 0 0.17591000000000007 0.984406
vn 0 6.123233995736766E-17 1
vn 0.041302 0.36588400000000004 0.929744
vn 0 0.27471000000000007 0.961527
vn 1E-06 0.572308 0.820039
vn 0 0.572308 0.820039
vn 0.29474 0.631888 0.716831
vn 0.294671 0.63192 0.716831
vn 0.281608 0.603918 0.745641
vn 0.281674 0.603883 0.745644
vn 3E-06 0.613564 0.789645
vn 3E-06 0.613564 0.789645
vn 0.012307 0.30398100000000006 0.952599
vn 0 0.33302500000000007 0.942918
vn 0 0.33302500000000007 0.942918
vn -3E-06 0.613564 0.789645
vn -3E-06 0.613564 0.789645
vn -1E-06 0.572308 0.820039
vn 0 0.572308 0.820039
vn -0.294742 0.631887 0.71683
vn -0.294671 0.63192 0.71683
vn -0.281608 0.603918 0.74564
vn -0.281677 0.603882 0.745644
vn 0.933154 -0.359172 -0.014823999999999978
vn 0.933154 0.359171 -0.014824000000000023
vn -0.277349 0.960759 0.004405999999999941
vn 0.277346 0.96076 -0.004406000000000059
vn -0.933154 -0.35917 0.014823000000000022
vn -0.933154 0.35917 0.014822999999999977
vn 0.277346 -0.96076 -0.004405999999999941
vn -0.277348 -0.960759 0.004406000000000059
vn -0.933155 -0.359169 -0.014823999999999978
vn -0.277349 0.960759 -0.004406000000000059
vn 0.277346 0.96076 0.004405999999999941
vn -0.933155 0.359169 -0.014824000000000023
vn 0.933153 0.359173 0.014823999999999978
vn 0.933154 -0.35917 0.014824000000000023
vn 0.277347 -0.96076 0.004406000000000059
vn -0.277351 -0.960759 -0.004405999999999941
vn 0.020659 -0.33852499999999996 0.940731
vn 0 6.123233995736766E-17 1
vn 0.014754 -0.18966099999999994 0.981739
vn 0 -0.17590999999999996 0.984406
vn 0 6.123233995736766E-17 1
vn 0.041302 -0.36588299999999996 0.929744
vn 0 -0.27470999999999995 0.961527
vn 1E-06 -0.572308 0.820039
vn 0 -0.572308 0.820039
vn 0.291402 -0.624736 0.724424
vn 0.291335 -0.624767 0.724424
vn 0.281601 -0.603922 0.74564
vn 0.28167 -0.603885 0.745644
vn 3E-06 -0.606153 0.795348
vn 2E-06 -0.606153 0.795348
vn 0.012307 -0.3039799999999999 0.952599
vn 0 -0.33302499999999996 0.942918
vn 0 -0.33302499999999996 0.942918
vn -3E-06 -0.606153 0.795348
vn -2E-06 -0.606153 0.795348
vn -1E-06 -0.572308 0.820039
vn 0 -0.572308 0.820039
vn -0.29141 -0.624733 0.724423
vn -0.29134 -0.624765 0.724424
vn -0.281604 -0.603921 0.74564
vn -0.281676 -0.603882 0.745644
vn 2E-06 -0.594987 0.803735
vn 1E-06 -0.583704 0.811967
vn 0.288209 -0.617835 0.731584
vn 0.284964 -0.610886 0.738657
vn -2E-06 -0.594987 0.803735
vn -1E-06 -0.583704 0.811967
vn -0.288218 -0.617831 0.731584
vn -0.284972 -0.610882 0.738657
vn 2E-06 0.599987 0.80001
vn 1E-06 0.586231 0.810144
vn 0.29046 0.622654 0.726592
vn 0.286104 0.613318 0.736197
vn -2E-06 0.599987 0.80001
vn -1E-06 0.586231 0.810144
vn -0.290463 0.622653 0.726591
vn -0.286107 0.613317 0.736196
vn -0.002747 -0.988094 -0.15382899999999994
vn 0.974405 -1.3765091254756208E-17 -0.224801
vn -0.991762 -7.84337288981914E-18 -0.128092
vn -0.017857 -6.122260401531443E-17 -0.999841
vn -0.002747 0.988094 -0.15382900000000005
vn -0.974405 -1.3765091254756208E-17 -0.224801
vn 0.002736 -0.988094 -0.15382999999999994
vn 0.991763 -7.843250425139224E-18 -0.12809
vn 0.002736 0.988094 -0.15383000000000005
vn 0.017782 -6.12226652476544E-17 -0.999842
vn 0.974404 1.9999999999862348E-06 -0.224803
vn -0.002747 0.988094 -0.15382900000000005
vn -0.991763 1.999999999992157E-06 -0.12809
vn -0.002748 -0.988094 -0.15382899999999994
vn -0.017858 8.999999999938778E-06 -0.999841
vn 0.002738 0.988094 -0.15382900000000005
vn -0.974404 1.9999999999862348E-06 -0.224804
vn 0.991763 1.999999999992157E-06 -0.128087
vn 0.017798 9.999999999938779E-06 -0.999842
vn 0.002738 -0.988094 -0.15382999999999994
vn 0 0.33302500000000007 0.942918
vn 0 0.33302500000000007 0.942918
vn 0.277346 0.96076 -0.004406000000000059
vn -0.933154 0.35917 0.014822999999999977
vn -0.933154 -0.35917 0.014823000000000022
vn 0 6.123233995736766E-17 1
vn 0 6.123233995736766E-17 1
vn 0 6.123233995736766E-17 1
vn 0 6.123233995736766E-17 1
vn -0.277349 0.960759 -0.004406000000000059
vn 0.933154 -0.35917 0.014824000000000023
vn 0.933153 0.359173 0.014823999999999978
vn 0 6.123233995736766E-17 1
vn 0 6.123233995736766E-17 1
vn 0 6.123233995736766E-17 1
vn 0 6.123233995736766E-17 1
vn 0 -0.33302499999999996 0.942918
vn 0 -0.33302499999999996 0.942918
vn -0.017857 -6.122260401531443E-17 -0.999841
vn -0.991762 -7.84337288981914E-18 -0.128092
vn 0 6.123233995736766E-17 1
vn 0 6.123233995736766E-17 1
vn 0 6.123233995736766E-17 1
vn 0 6.123233995736766E-17 1
vn 0.017782 -6.12226652476544E-17 -0.999842
vn 0.991763 -7.843250425139224E-18 -0.12809
vn 0 6.123233995736766E-17 1
vn 0 6.123233995736766E-17 1
vn 0 6.123233995736766E-17 1
vn 0 6.123233995736766E-17 1
vn -0.017858 8.999999999938778E-06 -0.999841
vn -0.991763 1.999999999992157E-06 -0.12809
vn 0 6.123233995736766E-17 1
vn 0 6.123233995736766E-17 1
vn 0 6.123233995736766E-17 1
vn 0 6.123233995736766E-17 1
vn 0.017798 9.999999999938779E-06 -0.999842
vn 0.991763 1.999999999992157E-06 -0.128087
vn 0 6.123233995736766E-17 1
vn 0 6.123233995736766E-17 1
vn 0 6.123233995736766E-17 1
vn 0 6.123233995736766E-17 1
vn -0.277349 0.960759 0.004405999999999941
vn -0.277349 0.960759 0.004405999999999941
vn 0.933154 -0.359172 -0.014823999999999978
vn -0.277348 -0.960759 0.004406000000000059
vn 0.277346 -0.96076 -0.004405999999999941
vn 0.277346 -0.96076 -0.004405999999999941
vn 0.933154 0.359171 -0.014824000000000023
vn 0.933154 -0.359172 -0.014823999999999978
vn 0.277346 0.96076 0.004405999999999941
vn 0.277346 0.96076 0.004405999999999941
vn -0.277351 -0.960759 -0.004405999999999941
vn 0.277347 -0.96076 0.004406000000000059
vn -0.933155 -0.359169 -0.014823999999999978
vn -0.933155 -0.359169 -0.014823999999999978
vn -0.933155 0.359169 -0.014824000000000023
vn -0.277351 -0.960759 -0.004405999999999941
vn -0.002747 -0.988094 -0.15382899999999994
vn -0.017857 -6.122260401531443E-17 -0.999841
vn -0.017857 -6.122260401531443E-17 -0.999841
vn 0.974405 -1.3765091254756208E-17 -0.224801
vn -0.002747 0.988094 -0.15382900000000005
vn 0.002736 -0.988094 -0.15382999999999994
vn 0.017782 -6.12226652476544E-17 -0.999842
vn 0.017782 -6.12226652476544E-17 -0.999842
vn 0.002736 0.988094 -0.15383000000000005
vn -0.974405 -1.3765091254756208E-17 -0.224801
vn -0.002747 0.988094 -0.15382900000000005
vn -0.017858 8.999999999938778E-06 -0.999841
vn -0.017858 8.999999999938778E-06 -0.999841
vn -0.002748 -0.988094 -0.15382899999999994
vn 0.974404 1.9999999999862348E-06 -0.224803
vn 0.002738 0.988094 -0.15382900000000005
vn 0.017798 9.999999999938779E-06 -0.999842
vn 0.017798 9.999999999938779E-06 -0.999842
vn -0.974404 1.9999999999862348E-06 -0.224804
vn 0.002738 -0.988094 -0.15382999999999994
g 02 - Default
f 144/144/144 146/146/146 143/143/143
f 145/145/145 144/144/144 143/143/143
f 182/182/182 181/181/181 180/180/180
f 142/142/142 104/104/104 179/179/179
f 178/178/178 102/102/102 141/141/141
f 101/101/101 100/100/100 103/103/103
f 140/140/140 139/139/139 137/137/137
f 139/139/139 138/138/138 137/137/137
f 177/177/177 176/176/176 175/175/175
f 174/174/174 98/98/98 136/136/136
f 135/135/135 97/97/97 173/173/173
f 99/99/99 96/96/96 95/95/95
f 134/134/134 133/133/133 131/131/131
f 133/133/133 132/132/132 131/131/131
f 172/172/172 171/171/171 170/170/170
f 169/169/169 93/93/93 130/130/130
f 129/129/129 92/92/92 168/168/168
f 94/94/94 91/91/91 90/90/90
f 126/126/126 128/128/128 125/125/125
f 127/127/127 126/126/126 125/125/125
f 167/167/167 166/166/166 165/165/165
f 124/124/124 89/89/89 164/164/164
f 163/163/163 87/87/87 123/123/123
f 86/86/86 85/85/85 88/88/88
f 26/26/26 83/83/83 84/84/84
f 84/84/84 25/25/25 26/26/26
f 82/82/82 81/81/81 21/21/21
f 21/21/21 22/22/22 82/82/82
f 80/80/80 79/79/79 13/13/13
f 13/13/13 12/12/12 80/80/80
f 8/8/8 77/77/77 78/78/78
f 78/78/78 9/9/9 8/8/8
f 76/76/76 75/75/75 68/68/68
f 68/68/68 67/67/67 76/76/76
f 63/63/63 73/73/73 74/74/74
f 74/74/74 64/64/64 63/63/63
f 55/55/55 71/71/71 72/72/72
f 72/72/72 54/54/54 55/55/55
f 70/70/70 69/69/69 50/50/50
f 50/50/50 51/51/51 70/70/70
f 65/65/65 66/66/66 75/75/75
f 75/75/75 76/76/76 65/65/65
f 73/73/73 61/61/61 62/62/62
f 62/62/62 74/74/74 73/73/73
f 121/121/121 122/122/122 60/60/60
f 60/60/60 59/59/59 121/121/121
f 52/52/52 72/72/72 71/71/71
f 71/71/71 53/53/53 52/52/52
f 57/57/57 56/56/56 69/69/69
f 69/69/69 70/70/70 57/57/57
f 45/45/45 44/44/44 47/47/47
f 47/47/47 46/46/46 45/45/45
f 49/49/49 58/58/58 43/43/43
f 58/58/58 48/48/48 43/43/43
f 48/48/48 45/45/45 43/43/43
f 45/45/45 46/46/46 43/43/43
f 118/118/118 120/120/120 117/117/117
f 119/119/119 118/118/118 117/117/117
f 162/162/162 161/161/161 160/160/160
f 159/159/159 158/158/158 157/157/157
f 115/115/115 42/42/42 41/41/41
f 41/41/41 116/116/116 115/115/115
f 156/156/156 40/40/40 39/39/39
f 39/39/39 114/114/114 155/155/155
f 38/38/38 37/37/37 36/36/36
f 36/36/36 35/35/35 38/38/38
f 113/113/113 112/112/112 110/110/110
f 112/112/112 111/111/111 110/110/110
f 154/154/154 153/153/153 152/152/152
f 151/151/151 150/150/150 149/149/149
f 34/34/34 33/33/33 109/109/109
f 109/109/109 108/108/108 34/34/34
f 32/32/32 31/31/31 148/148/148
f 147/147/147 107/107/107 32/32/32
f 30/30/30 29/29/29 28/28/28
f 28/28/28 27/27/27 30/30/30
f 23/23/23 84/84/84 83/83/83
f 83/83/83 24/24/24 23/23/23
f 20/20/20 19/19/19 81/81/81
f 81/81/81 82/82/82 20/20/20
f 105/105/105 17/17/17 18/18/18
f 18/18/18 106/106/106 105/105/105
f 10/10/10 11/11/11 79/79/79
f 79/79/79 80/80/80 10/10/10
f 77/77/77 14/14/14 15/15/15
f 15/15/15 78/78/78 77/77/77
f 3/3/3 4/4/4 5/5/5
f 5/5/5 2/2/2 3/3/3
f 4/4/4 3/3/3 1/1/1
f 3/3/3 6/6/6 1/1/1
f 6/6/6 16/16/16 1/1/1
f 16/16/16 7/7/7 1/1/1
