v 0.535373 2.2031824543040585E-17 0.359807
v 0.528049 -1 0.35980700000000004
v -0.529103 -1 0.35980700000000004
v -0.529103 2.2031824543040585E-17 0.359807
v 0.463108 -0.54908 0.2761700000000001
v -0.529103 -0.50021 0.27211100000000005
v -0.498841 2 0.026471999999999878
v 0.441429 1 0.35980699999999993
v 0.441429 1.097096 0.35980699999999993
v -0.498841 1.097096 0.35980699999999993
v -0.498841 1 0.35980699999999993
v 0.441429 1.57298 0.1527479999999999
v 0.441429 2 0.026471999999999878
v 0.43085 -1.026781 0.7017010000000001
v 0.474133 -1.026781 0.7017010000000001
v 0.43085 4.37884097179728E-17 0.715119
v 0.474134 4.37884097179728E-17 0.715119
v 0.493276 1.946917 0.00900699999999988
v 0.536561 1.946917 0.00900699999999988
v 0.43085 -0.47912299999999997 0.548764
v 0.474134 -0.47912299999999997 0.548764
v 0.470384 1.108885 0.7151189999999998
v 0.499696 1.095217 0.7151189999999998
v 0.759843 1.72963 0.009006999999999894
v 0.789155 1.715962 0.009006999999999894
v 0.463313 -1.026781 0.6884080000000001
v 0.463313 -0.753429 0.616455
v 0.391536 -0.998291 0.37140500000000004
v 0.463313 -0.47912299999999997 0.535471
v 0.463313 -0.20481799999999997 0.611445
v 0.391536 -0.478552 0.26832600000000006
v 0.463313 4.297444822291951E-17 0.701826
v 0.391535 -0.0036319999999999777 0.360148
v 0.503957 1.061396 -6.499176070139021E-17
v 0.453996 1.018127 -6.234229858377486E-17
v 0.404033 1.061396 -6.499176070139021E-17
v 0.453996 1.104664 -6.76411615866656E-17
v 0.518057 1.061396 0.8875379999999999
v 0.468094 1.018127 0.8875379999999999
v 0.418133 1.061396 0.8875379999999999
v 0.468094 1.104664 0.8875379999999999
v 0.43085 1.069488 0.7151189999999998
v 0.474134 1.069488 0.7151189999999998
v 0.546931 -0.54908 0.2761700000000001
v 0.463108 -0.700188 0.2919590000000001
v 0.523444 -0.700188 0.2919590000000001
v 0.441429 1.636345 0.1303679999999999
v 0.524837 1.57298 0.1527479999999999
v 0.524837 1.636345 0.1303679999999999
v 0.449519 -1.026781 0.6884080000000001
v 0.449519 -0.753429 0.616455
v 0.377742 -0.998291 0.37140500000000004
v 0.449519 -0.47912299999999997 0.535471
v 0.449519 -0.20481799999999997 0.611445
v 0.377742 -0.478552 0.26832600000000006
v 0.449519 4.297444822291951E-17 0.701826
v 0.377741 -0.0036319999999999777 0.360148
v -0.435832 -1.021196 0.7017010000000001
v -0.479116 -1.021196 0.7017010000000001
v -0.435832 1.069488 0.7151189999999998
v -0.479116 1.069488 0.7151189999999998
v -0.435832 -0.47912299999999997 0.548764
v -0.479116 -0.47912299999999997 0.548764
v -0.435832 4.37884097179728E-17 0.715119
v -0.479116 4.37884097179728E-17 0.715119
v -0.498259 1.946917 0.00900699999999988
v -0.541544 1.946917 0.00900699999999988
v -0.475367 1.108885 0.7151189999999998
v -0.504678 1.095217 0.7151189999999998
v -0.764824 1.72963 0.009006999999999894
v -0.794136 1.715962 0.009006999999999894
v -0.508939 1.061396 -6.499176070139021E-17
v -0.458978 1.018127 -6.234229858377486E-17
v -0.409016 1.061396 -6.499176070139021E-17
v -0.458978 1.104664 -6.76411615866656E-17
v -0.523039 1.061396 0.8875379999999999
v -0.423115 1.061396 0.8875379999999999
v -0.473077 1.104664 0.8875379999999999
v -0.473077 1.018127 0.8875379999999999
v -0.454501 -1.021196 0.6884080000000001
v -0.362338 -0.992707 0.34393900000000005
v -0.454502 -0.753429 0.616455
v -0.454502 -0.47912299999999997 0.535471
v -0.362339 -0.478552 0.24086000000000002
v -0.454501 -0.20481799999999997 0.611445
v -0.362338 -0.0036319999999999794 0.332683
v -0.454501 4.297444822291951E-17 0.701826
v -0.463778 -1.021196 0.6884080000000001
v -0.463779 -0.753429 0.616455
v -0.371616 -0.992707 0.34393900000000005
v -0.463779 -0.47912299999999997 0.535471
v -0.463778 -0.20481799999999997 0.611445
v -0.371616 -0.478552 0.24086000000000002
v -0.463778 4.297444822291951E-17 0.701826
v -0.371615 -0.0036319999999999794 0.332683
v 0.503957 -1.059321 6.486470359597867E-17
v 0.518057 -1.059321 0.8875380000000002
v 0.468094 -1.016052 0.8875380000000002
v 0.453996 -1.016052 6.221524147836332E-17
v 0.418133 -1.059321 0.8875380000000002
v 0.404034 -1.059321 6.486470359597867E-17
v 0.468094 -1.102589 0.8875380000000002
v 0.453996 -1.102589 6.751410448125405E-17
v -0.508939 -1.057612 6.476005752699152E-17
v -0.458977 -1.014343 6.211059540937619E-17
v -0.473077 -1.014343 0.8875380000000002
v -0.523038 -1.057612 0.8875380000000002
v -0.409016 -1.057612 6.476005752699152E-17
v -0.423114 -1.057612 0.8875380000000002
v -0.458977 -1.10088 6.740945841226691E-17
v -0.473077 -1.10088 0.8875380000000002
v -0.49884 -2 0.02647200000000012
v 0.441429 -1 0.35980700000000004
v 0.441429 -1.097095 0.35980700000000004
v -0.49884 -1.097095 0.35980700000000004
v -0.49884 -1 0.35980700000000004
v 0.441429 -1.572979 0.15274800000000008
v 0.441429 -2 0.02647200000000012
v 0.493276 -1.946917 0.009007000000000119
v 0.536561 -1.946917 0.009007000000000119
v 0.470385 -1.108885 0.7151190000000001
v 0.499697 -1.095217 0.7151190000000001
v 0.759842 -1.72963 0.009007000000000105
v 0.789155 -1.715961 0.009007000000000105
v 0.43085 -1.069488 0.7151190000000001
v 0.474134 -1.069488 0.7151190000000001
v 0.441429 -1.636345 0.13036800000000012
v 0.524837 -1.572979 0.15274800000000008
v 0.524837 -1.636345 0.13036800000000012
v -0.435831 -1.069488 0.7151190000000001
v -0.479116 -1.069488 0.7151190000000001
v -0.498258 -1.946917 0.009007000000000119
v -0.541543 -1.946917 0.009007000000000119
v -0.475367 -1.088088 0.7151190000000001
v -0.504678 -1.074419 0.7151190000000001
v -0.764824 -1.72963 0.009007000000000105
v -0.794136 -1.715961 0.009007000000000105
v 0.461782 -1.508202 0.31518800000000013
v 0.505043 -1.508202 0.31518800000000013
v 0.644037 -1.405589 0.31518800000000013
v 0.614743 -1.419257 0.31518800000000013
v -0.466766 -1.508202 0.31518800000000013
v -0.510025 -1.508202 0.31518800000000013
v -0.649018 -1.405589 0.31518800000000013
v -0.619724 -1.419257 0.31518800000000013
v 0.461782 1.508202 0.3151879999999999
v 0.505043 1.508202 0.3151879999999999
v 0.644037 1.405589 0.3151879999999999
v 0.614742 1.419258 0.3151879999999999
v -0.466767 1.508202 0.3151879999999999
v -0.510025 1.508202 0.3151879999999999
v -0.649019 1.405589 0.3151879999999999
v -0.619725 1.419258 0.3151879999999999
v 0.786073 1.693611 0.1653389999999999
v 0.836035 1.736879 0.1653389999999999
v 0.736111 1.736879 0.1653389999999999
v 0.771974 1.736879 -0.11233500000000012
v 0.786073 1.780148 0.1653389999999999
v -0.810529 1.708368 0.1653389999999999
v -0.760568 1.6651 0.1653389999999999
v -0.710605 1.708368 0.1653389999999999
v -0.760568 1.751637 0.1653389999999999
v -0.746468 1.708368 -0.11233500000000012
v 0.837866 -1.737627 0.16533900000000012
v 0.787904 -1.694359 0.16533900000000012
v 0.737941 -1.737627 0.16533900000000012
v 0.787904 -1.780895 0.16533900000000012
v 0.773804 -1.737627 -0.1123349999999999
v -0.79603 -1.673553 0.16533900000000012
v -0.845991 -1.716822 0.16533900000000012
v -0.746067 -1.716822 0.16533900000000012
v -0.781929 -1.716822 -0.1123349999999999
v -0.79603 -1.76009 0.16533900000000012
v 0.430851 1.026781 0.7017009999999999
v 0.430851 0.4791230000000001 0.548764
v 0.474133 0.4791230000000001 0.548764
v 0.474133 1.026781 0.7017009999999999
v 0.430851 4.37884097179728E-17 0.715119
v 0.474133 4.37884097179728E-17 0.715119
v 0.391536 0.998291 0.37140499999999993
v 0.463313 0.753429 0.616455
v 0.391536 0.478552 0.26832599999999995
v 0.463313 0.20481800000000003 0.611445
v 0.391535 0.003632000000000022 0.360148
v 0.546931 0.54908 0.27616999999999997
v 0.463108 0.54908 0.27616999999999997
v -0.529104 0.50021 0.27211099999999994
v -0.529104 2.2031824543040585E-17 0.359807
v 0.535373 2.2031824543040585E-17 0.359807
v 0.377742 0.478552 0.26832599999999995
v 0.449519 0.753429 0.616455
v 0.377742 0.998291 0.37140499999999993
v 0.377742 0.003632000000000022 0.360148
v 0.449519 0.20481800000000003 0.611445
v -0.435832 1.021196 0.7017009999999999
v -0.479116 1.021196 0.7017009999999999
v -0.479116 0.4791230000000001 0.548764
v -0.435832 0.4791230000000001 0.548764
v -0.479116 4.37884097179728E-17 0.715119
v -0.435832 4.37884097179728E-17 0.715119
v -0.362338 0.992707 0.34393899999999994
v -0.454502 0.753429 0.616455
v -0.362339 0.478552 0.24085999999999996
v -0.4545 0.20481800000000003 0.611445
v -0.362338 0.00363200000000002 0.332683
v -0.371616 0.478552 0.24085999999999996
v -0.463778 0.753429 0.616455
v -0.371616 0.992707 0.34393899999999994
v -0.371615 0.00363200000000002 0.332683
v -0.463778 0.20481800000000003 0.611445
v 0.463108 0.700188 0.29195899999999997
v 0.528049 1 0.35980699999999993
v 0.523443 0.700188 0.29195899999999997
v -0.529104 1 0.35980699999999993
v -0.454502 0.4791230000000001 0.535471
v -0.4545 1.021196 0.6884079999999999
v -0.4545 4.297444822291951E-17 0.701826
v -0.463778 1.021196 0.6884079999999999
v -0.463778 0.4791230000000001 0.535471
v -0.463778 4.297444822291951E-17 0.701826
v 0.463313 0.4791230000000001 0.535471
v 0.463313 1.026781 0.6884079999999999
v 0.463313 4.297444822291951E-17 0.701826
v 0.449519 1.026781 0.6884079999999999
v 0.449519 0.4791230000000001 0.535471
v 0.449519 4.297444822291951E-17 0.701826
v 0.503957 -0.003257 1.9943373124114646E-19
v 0.518057 -0.0032569999999999457 0.887538
v 0.468094 0.040012000000000054 0.887538
v 0.453996 0.040012 -2.4500283863741947E-18
v 0.418133 -0.0032569999999999457 0.887538
v 0.404035 -0.003257 1.9943373124114646E-19
v 0.468094 -0.04652499999999994 0.887538
v 0.453996 -0.046525 2.84883461651653E-18
v -0.508939 -0.003257 1.9943373124114646E-19
v -0.458978 0.040012 -2.4500283863741947E-18
v -0.473077 0.040012000000000054 0.887538
v -0.523038 -0.0032569999999999457 0.887538
v -0.409016 -0.003257 1.9943373124114646E-19
v -0.423114 -0.0032569999999999457 0.887538
v -0.458978 -0.046525 2.84883461651653E-18
v -0.473077 -0.04652499999999994 0.887538
v 0.453996 1.018127 -6.234229858377486E-17
v 0.418133 1.061396 0.8875379999999999
v 0.404033 1.061396 -6.499176070139021E-17
v 0.518057 1.061396 0.8875379999999999
v 0.418133 1.061396 0.8875379999999999
v 0.468094 1.104664 0.8875379999999999
v 0.441429 1.57298 0.1527479999999999
v 0.441429 1.636345 0.1303679999999999
v 0.468094 1.018127 0.8875379999999999
v -0.458978 1.018127 -6.234229858377486E-17
v -0.423115 1.061396 0.8875379999999999
v -0.409016 1.061396 -6.499176070139021E-17
v -0.523039 1.061396 0.8875379999999999
v -0.473077 1.104664 0.8875379999999999
v -0.423115 1.061396 0.8875379999999999
v -0.473077 1.018127 0.8875379999999999
v 0.453996 -1.016052 6.221524147836332E-17
v 0.404034 -1.059321 6.486470359597867E-17
v 0.418133 -1.059321 0.8875380000000002
v 0.518057 -1.059321 0.8875380000000002
v 0.468094 -1.102589 0.8875380000000002
v 0.418133 -1.059321 0.8875380000000002
v 0.468094 -1.016052 0.8875380000000002
v -0.458977 -1.014343 6.211059540937619E-17
v -0.423114 -1.057612 0.8875380000000002
v -0.409016 -1.057612 6.476005752699152E-17
v -0.523038 -1.057612 0.8875380000000002
v -0.423114 -1.057612 0.8875380000000002
v -0.473077 -1.10088 0.8875380000000002
v -0.473077 -1.014343 0.8875380000000002
v 0.441429 -1.572979 0.15274800000000008
v 0.441429 -1.636345 0.13036800000000012
v 0.771974 1.736879 -0.11233500000000012
v 0.736111 1.736879 0.1653389999999999
v 0.836035 1.736879 0.1653389999999999
v 0.736111 1.736879 0.1653389999999999
v 0.786073 1.780148 0.1653389999999999
v 0.786073 1.693611 0.1653389999999999
v -0.746468 1.708368 -0.11233500000000012
v -0.710605 1.708368 0.1653389999999999
v -0.810529 1.708368 0.1653389999999999
v -0.760568 1.751637 0.1653389999999999
v -0.710605 1.708368 0.1653389999999999
v -0.760568 1.6651 0.1653389999999999
v 0.773804 -1.737627 -0.1123349999999999
v 0.737941 -1.737627 0.16533900000000012
v 0.837866 -1.737627 0.16533900000000012
v 0.787904 -1.780895 0.16533900000000012
v 0.737941 -1.737627 0.16533900000000012
v 0.787904 -1.694359 0.16533900000000012
v -0.781929 -1.716822 -0.1123349999999999
v -0.746067 -1.716822 0.16533900000000012
v -0.845991 -1.716822 0.16533900000000012
v -0.746067 -1.716822 0.16533900000000012
v -0.79603 -1.76009 0.16533900000000012
v -0.79603 -1.673553 0.16533900000000012
v 0.453996 0.040012 -2.4500283863741947E-18
v 0.404035 -0.003257 1.9943373124114646E-19
v 0.418133 -0.0032569999999999457 0.887538
v 0.518057 -0.0032569999999999457 0.887538
v 0.468094 -0.04652499999999994 0.887538
v 0.418133 -0.0032569999999999457 0.887538
v 0.468094 0.040012000000000054 0.887538
v -0.458978 0.040012 -2.4500283863741947E-18
v -0.423114 -0.0032569999999999457 0.887538
v -0.409016 -0.003257 1.9943373124114646E-19
v -0.523038 -0.0032569999999999457 0.887538
v -0.423114 -0.0032569999999999457 0.887538
v -0.473077 -0.04652499999999994 0.887538
v -0.473077 0.040012000000000054 0.887538
v 0.468094 1.018127 0.8875379999999999
v 0.468094 1.018127 0.8875379999999999
v 0.503957 1.061396 -6.499176070139021E-17
v 0.518057 1.061396 0.8875379999999999
v 0.468094 1.104664 0.8875379999999999
v 0.468094 1.104664 0.8875379999999999
v 0.453996 1.104664 -6.76411615866656E-17
v 0.503957 1.061396 -6.499176070139021E-17
v -0.473077 1.018127 0.8875379999999999
v -0.473077 1.018127 0.8875379999999999
v -0.473077 1.104664 0.8875379999999999
v -0.523039 1.061396 0.8875379999999999
v -0.508939 1.061396 -6.499176070139021E-17
v -0.508939 1.061396 -6.499176070139021E-17
v -0.458978 1.104664 -6.76411615866656E-17
v -0.473077 1.104664 0.8875379999999999
v 0.468094 -1.016052 0.8875380000000002
v 0.468094 -1.016052 0.8875380000000002
v 0.503957 -1.059321 6.486470359597867E-17
v 0.453996 -1.102589 6.751410448125405E-17
v 0.468094 -1.102589 0.8875380000000002
v 0.468094 -1.102589 0.8875380000000002
v 0.518057 -1.059321 0.8875380000000002
v 0.503957 -1.059321 6.486470359597867E-17
v -0.473077 -1.014343 0.8875380000000002
v -0.473077 -1.014343 0.8875380000000002
v -0.473077 -1.10088 0.8875380000000002
v -0.458977 -1.10088 6.740945841226691E-17
v -0.508939 -1.057612 6.476005752699152E-17
v -0.508939 -1.057612 6.476005752699152E-17
v -0.523038 -1.057612 0.8875380000000002
v -0.473077 -1.10088 0.8875380000000002
v 0.786073 1.693611 0.1653389999999999
v 0.771974 1.736879 -0.11233500000000012
v 0.771974 1.736879 -0.11233500000000012
v 0.836035 1.736879 0.1653389999999999
v 0.786073 1.780148 0.1653389999999999
v -0.760568 1.6651 0.1653389999999999
v -0.746468 1.708368 -0.11233500000000012
v -0.746468 1.708368 -0.11233500000000012
v -0.760568 1.751637 0.1653389999999999
v -0.810529 1.708368 0.1653389999999999
v 0.787904 -1.694359 0.16533900000000012
v 0.773804 -1.737627 -0.1123349999999999
v 0.773804 -1.737627 -0.1123349999999999
v 0.787904 -1.780895 0.16533900000000012
v 0.837866 -1.737627 0.16533900000000012
v -0.79603 -1.673553 0.16533900000000012
v -0.781929 -1.716822 -0.1123349999999999
v -0.781929 -1.716822 -0.1123349999999999
v -0.845991 -1.716822 0.16533900000000012
v -0.79603 -1.76009 0.16533900000000012
v 0.468094 0.040012000000000054 0.887538
v 0.468094 0.040012000000000054 0.887538
v 0.503957 -0.003257 1.9943373124114646E-19
v 0.453996 -0.046525 2.84883461651653E-18
v 0.468094 -0.04652499999999994 0.887538
v 0.468094 -0.04652499999999994 0.887538
v 0.518057 -0.0032569999999999457 0.887538
v 0.503957 -0.003257 1.9943373124114646E-19
v -0.473077 0.040012000000000054 0.887538
v -0.473077 0.040012000000000054 0.887538
v -0.473077 -0.04652499999999994 0.887538
v -0.458978 -0.046525 2.84883461651653E-18
v -0.508939 -0.003257 1.9943373124114646E-19
v -0.508939 -0.003257 1.9943373124114646E-19
v -0.523038 -0.0032569999999999457 0.887538
v -0.473077 -0.04652499999999994 0.887538
vt 0.271447 0.024793
vt 0.273379 0.566964
vt 0.567256 0.566964
vt 0.567256 0.022805
vt 0.289557 0.316965
vt 0.565672 0.291289
vt 0.001132 0.585099
vt 0.266549 0.011366
vt 0.266283 0.063214
vt 0.003598 0.059030
vt 0.003869 0.007254
vt 0.264981 0.344661
vt 0.263812 0.589354
vt 0.638731 0.608925
vt 0.626279 0.608564
vt 0.645001 0.010210
vt 0.629812 0.009821
vt 0.583588 0.633987
vt 0.601823 0.634315
vt 0.643627 0.326687
vt 0.626986 0.326213
vt 0.581050 0.067418
vt 0.594460 0.067968
vt 0.584597 0.587577
vt 0.600025 0.587855
vt 0.762507 0.586048
vt 0.796048 0.470028
vt 0.847171 0.570524
vt 0.808013 0.320564
vt 0.797538 0.171100
vt 0.877842 0.320252
vt 0.758513 0.021637
vt 0.850519 0.023615
vt 0.941186 0.992115
vt 0.966719 0.992273
vt 0.993334 0.991582
vt 0.915742 0.992270
vt 0.941935 0.509721
vt 0.966123 0.510419
vt 0.991573 0.510751
vt 0.917002 0.510291
vt 0.579396 0.019175
vt 0.595245 0.019825
vt 0.268676 0.316965
vt 0.289557 0.400742
vt 0.274523 0.400898
vt 0.264807 0.381452
vt 0.285595 0.344995
vt 0.285421 0.381786
vt 0.762507 0.586048
vt 0.796048 0.470028
vt 0.847171 0.570524
vt 0.808013 0.320564
vt 0.797538 0.171100
vt 0.877842 0.320252
vt 0.758513 0.021637
vt 0.850519 0.023615
vt 0.638731 0.608925
vt 0.626279 0.608564
vt 0.579396 0.019175
vt 0.595245 0.019825
vt 0.643627 0.326687
vt 0.626986 0.326213
vt 0.645001 0.010210
vt 0.629812 0.009821
vt 0.583588 0.633987
vt 0.601823 0.634315
vt 0.581050 0.067418
vt 0.594460 0.067968
vt 0.584597 0.587577
vt 0.600025 0.587855
vt 0.877607 0.878341
vt 0.877686 0.827275
vt 0.877544 0.784227
vt 0.877684 0.929229
vt 0.636410 0.876845
vt 0.636924 0.777568
vt 0.636695 0.926710
vt 0.636759 0.828469
vt 0.661429 0.586048
vt 0.746093 0.570524
vt 0.694971 0.470028
vt 0.706936 0.320564
vt 0.776764 0.320252
vt 0.696461 0.171100
vt 0.749441 0.023615
vt 0.657435 0.021637
vt 0.661429 0.586048
vt 0.694971 0.470028
vt 0.746093 0.570524
vt 0.706936 0.320564
vt 0.696461 0.171100
vt 0.776764 0.320252
vt 0.657435 0.021637
vt 0.749441 0.023615
vt 0.941186 0.489013
vt 0.941935 0.006620
vt 0.966123 0.007318
vt 0.966719 0.489171
vt 0.991573 0.007649
vt 0.993334 0.488480
vt 0.917002 0.007190
vt 0.915742 0.489169
vt 0.627580 0.864620
vt 0.627659 0.813554
vt 0.386732 0.814748
vt 0.386384 0.863124
vt 0.627518 0.770506
vt 0.386898 0.763847
vt 0.627658 0.915508
vt 0.386669 0.912989
vt 0.001132 0.585099
vt 0.266549 0.011366
vt 0.266283 0.063214
vt 0.003598 0.059030
vt 0.003869 0.007254
vt 0.264981 0.344661
vt 0.263812 0.589354
vt 0.583588 0.633987
vt 0.601823 0.634315
vt 0.581050 0.067418
vt 0.594460 0.067968
vt 0.584597 0.587577
vt 0.600025 0.587855
vt 0.579396 0.019175
vt 0.595245 0.019825
vt 0.264807 0.381452
vt 0.285595 0.344995
vt 0.285421 0.381786
vt 0.579396 0.019175
vt 0.595245 0.019825
vt 0.583588 0.633987
vt 0.601823 0.634315
vt 0.581050 0.067418
vt 0.594460 0.067968
vt 0.584597 0.587577
vt 0.600025 0.587855
vt 0.581492 0.326581
vt 0.598534 0.327070
vt 0.597242 0.327912
vt 0.582824 0.327498
vt 0.581492 0.326581
vt 0.598534 0.327070
vt 0.597242 0.327912
vt 0.582824 0.327498
vt 0.581492 0.326581
vt 0.598534 0.327070
vt 0.597242 0.327912
vt 0.582824 0.327498
vt 0.581492 0.326581
vt 0.598534 0.327070
vt 0.597242 0.327912
vt 0.582824 0.327498
vt 0.966123 0.510419
vt 0.941935 0.509721
vt 0.991573 0.510751
vt 0.928271 0.992268
vt 0.917002 0.510291
vt 0.636410 0.876845
vt 0.636759 0.828469
vt 0.636924 0.777568
vt 0.636695 0.926710
vt 0.877683 0.904170
vt 0.941935 0.006620
vt 0.966123 0.007318
vt 0.991573 0.007649
vt 0.917002 0.007190
vt 0.928271 0.489167
vt 0.386732 0.814748
vt 0.386384 0.863124
vt 0.386898 0.763847
vt 0.627657 0.890449
vt 0.386669 0.912989
vt 0.638731 0.608925
vt 0.643627 0.326687
vt 0.626986 0.326213
vt 0.626279 0.608564
vt 0.645001 0.010210
vt 0.629812 0.009821
vt 0.847171 0.570524
vt 0.796048 0.470028
vt 0.877842 0.320252
vt 0.797538 0.171100
vt 0.850519 0.023615
vt 0.268676 0.316965
vt 0.289557 0.316965
vt 0.565672 0.291289
vt 0.567256 0.022805
vt 0.271447 0.024793
vt 0.877842 0.320252
vt 0.796048 0.470028
vt 0.847171 0.570524
vt 0.850519 0.023615
vt 0.797538 0.171100
vt 0.638731 0.608925
vt 0.626279 0.608564
vt 0.626986 0.326213
vt 0.643627 0.326687
vt 0.629812 0.009821
vt 0.645001 0.010210
vt 0.746093 0.570524
vt 0.694971 0.470028
vt 0.776764 0.320252
vt 0.696461 0.171100
vt 0.749441 0.023615
vt 0.776764 0.320252
vt 0.694971 0.470028
vt 0.746093 0.570524
vt 0.749441 0.023615
vt 0.696461 0.171100
vt 0.289557 0.400742
vt 0.273379 0.566964
vt 0.274523 0.400898
vt 0.567256 0.566964
vt 0.706936 0.320564
vt 0.661429 0.586048
vt 0.657435 0.021637
vt 0.661429 0.586048
vt 0.706936 0.320564
vt 0.657435 0.021637
vt 0.808013 0.320564
vt 0.762507 0.586048
vt 0.758513 0.021637
vt 0.762507 0.586048
vt 0.808013 0.320564
vt 0.758513 0.021637
vt 0.941186 0.489013
vt 0.941935 0.006620
vt 0.966123 0.007318
vt 0.966719 0.489171
vt 0.991573 0.007649
vt 0.993334 0.488480
vt 0.917002 0.007190
vt 0.915742 0.489169
vt 0.627580 0.864620
vt 0.627659 0.813554
vt 0.386732 0.814748
vt 0.386384 0.863124
vt 0.627518 0.770506
vt 0.386898 0.763847
vt 0.627658 0.915508
vt 0.386669 0.912989
vt 0.974730 0.991414
vt 0.891129 0.510644
vt 0.889439 0.992415
vt 0.707186 0.644981
vt 0.675801 0.644981
vt 0.691494 0.675227
vt 0.264981 0.344661
vt 0.264807 0.381452
vt 0.691494 0.614734
vt 0.877364 0.837509
vt 0.636871 0.978455
vt 0.877757 0.981835
vt 0.749798 0.646963
vt 0.734105 0.677209
vt 0.718413 0.646963
vt 0.734105 0.616716
vt 0.974730 0.488313
vt 0.889439 0.489314
vt 0.891129 0.007543
vt 0.562354 0.626686
vt 0.546662 0.656933
vt 0.530969 0.626686
vt 0.546662 0.596439
vt 0.627338 0.823788
vt 0.386845 0.964735
vt 0.627731 0.968114
vt 0.645366 0.662208
vt 0.613981 0.662208
vt 0.629673 0.692455
vt 0.629673 0.631961
vt 0.264981 0.344661
vt 0.264807 0.381452
vt 0.984032 0.991498
vt 0.891129 0.510644
vt 0.707186 0.644981
vt 0.675801 0.644981
vt 0.691494 0.675227
vt 0.691494 0.614734
vt 0.877454 0.810868
vt 0.636871 0.978455
vt 0.749798 0.646963
vt 0.734105 0.677209
vt 0.718413 0.646963
vt 0.734105 0.616716
vt 0.984032 0.488397
vt 0.891129 0.007543
vt 0.562354 0.626686
vt 0.546662 0.656933
vt 0.530969 0.626686
vt 0.546662 0.596439
vt 0.627428 0.797147
vt 0.386845 0.964735
vt 0.645366 0.662208
vt 0.613981 0.662208
vt 0.629673 0.692455
vt 0.629673 0.631961
vt 0.974730 0.488313
vt 0.889439 0.489314
vt 0.891129 0.007543
vt 0.562354 0.626686
vt 0.546662 0.656933
vt 0.530969 0.626686
vt 0.546662 0.596439
vt 0.627338 0.823788
vt 0.386845 0.964735
vt 0.627731 0.968114
vt 0.645366 0.662208
vt 0.613981 0.662208
vt 0.629673 0.692455
vt 0.629673 0.631961
vt 0.966123 0.510419
vt 0.966123 0.510419
vt 0.941186 0.992115
vt 0.941935 0.509721
vt 0.917002 0.510291
vt 0.917002 0.510291
vt 0.915742 0.992270
vt 0.941186 0.992115
vt 0.636759 0.828469
vt 0.636759 0.828469
vt 0.636695 0.926710
vt 0.636410 0.876845
vt 0.877607 0.878341
vt 0.877607 0.878341
vt 0.877684 0.929229
vt 0.636695 0.926710
vt 0.966123 0.007318
vt 0.966123 0.007318
vt 0.941186 0.489013
vt 0.915742 0.489169
vt 0.917002 0.007190
vt 0.917002 0.007190
vt 0.941935 0.006620
vt 0.941186 0.489013
vt 0.386732 0.814748
vt 0.386732 0.814748
vt 0.386669 0.912989
vt 0.627658 0.915508
vt 0.627580 0.864620
vt 0.627580 0.864620
vt 0.386384 0.863124
vt 0.386669 0.912989
vt 0.966123 0.510419
vt 0.928271 0.992268
vt 0.928271 0.992268
vt 0.941935 0.509721
vt 0.917002 0.510291
vt 0.636759 0.828469
vt 0.877683 0.904170
vt 0.877683 0.904170
vt 0.636695 0.926710
vt 0.636410 0.876845
vt 0.966123 0.007318
vt 0.928271 0.489167
vt 0.928271 0.489167
vt 0.917002 0.007190
vt 0.941935 0.006620
vt 0.386732 0.814748
vt 0.627657 0.890449
vt 0.627657 0.890449
vt 0.386384 0.863124
vt 0.386669 0.912989
vt 0.966123 0.007318
vt 0.966123 0.007318
vt 0.941186 0.489013
vt 0.915742 0.489169
vt 0.917002 0.007190
vt 0.917002 0.007190
vt 0.941935 0.006620
vt 0.941186 0.489013
vt 0.386732 0.814748
vt 0.386732 0.814748
vt 0.386669 0.912989
vt 0.627658 0.915508
vt 0.627580 0.864620
vt 0.627580 0.864620
vt 0.386384 0.863124
vt 0.386669 0.912989
vn 0 -0.15058599999999994 0.988597
vn 0.008693 0.20659700000000006 0.978388
vn 0 0.17282600000000006 0.984952
vn -0.004178 -0.15795999999999993 0.987437
vn -0.003858 -0.07369399999999994 0.997273
vn 0.003691 0.08352200000000005 0.996499
vn 0.020659 0.3385250000000001 0.940731
vn 0 6.123233995736766E-17 1
vn 0.014754 0.18966100000000005 0.981739
vn 0 0.17591000000000007 0.984406
vn 0 6.123233995736766E-17 1
vn 0.041302 0.36588400000000004 0.929744
vn 0 0.27471000000000007 0.961527
vn 0 0.26896600000000004 0.96315
vn 0 0.26896600000000004 0.96315
vn 1E-06 -0.32799899999999993 0.944678
vn 0 -0.32799899999999993 0.944678
vn 1E-06 0.572308 0.820039
vn 0 0.572308 0.820039
vn 0 0.07292800000000006 0.997337
vn 1E-06 -0.13444899999999996 0.99092
vn 0.321152 0.688509 0.650243
vn 0.321077 0.688548 0.65024
vn 0.281608 0.603918 0.745641
vn 0.281675 0.603882 0.745644
vn 0.972429 -0.059364000000000014 -0.225515
vn 0.96871 -0.060969000000000016 -0.240592
vn 0.97141 -0.053204000000000015 -0.231371
vn 0.965744 -0.0024030000000000162 -0.259484
vn 0.969535 0.06961099999999999 -0.234855
vn 0.968463 -0.0013670000000000151 -0.249154
vn 0.974406 0.09075299999999999 -0.205662
vn 0.972437 0.06857399999999998 -0.222856
vn 0.933154 0.359172 -0.014824000000000023
vn 0.277347 -0.96076 -0.004405999999999941
vn -0.933154 -0.359171 0.014824000000000023
vn -0.277346 0.96076 0.004405999999999941
vn 0.933154 -0.359171 -0.014823999999999978
vn -0.277347 -0.96076 0.004406000000000059
vn -0.933154 0.359172 0.014823999999999978
vn 0.277346 0.96076 -0.004406000000000059
vn 3E-06 0.673686 0.739018
vn 3E-06 0.673686 0.739018
vn 0 -0.15058599999999994 0.988597
vn 0.009056 0.18386500000000006 0.98291
vn 0 0.22072000000000006 0.975337
vn 0.012307 0.30398100000000006 0.952599
vn 0 0.33302500000000007 0.942918
vn 0 0.33302500000000007 0.942918
vn -0.972429 0.059364000000000014 0.225515
vn -0.96871 0.060969000000000016 0.240592
vn -0.97141 0.053204000000000015 0.231371
vn -0.965744 0.0024030000000000162 0.259484
vn -0.969535 -0.06961099999999999 0.234855
vn -0.968463 0.0013670000000000151 0.249154
vn -0.974406 -0.09075299999999999 0.205662
vn -0.972437 -0.06857399999999998 0.222856
vn -0 0.27153400000000005 0.962429
vn 0 0.27153400000000005 0.962429
vn -3E-06 0.673686 0.739018
vn -3E-06 0.673686 0.739018
vn -1E-06 -0.13360599999999995 0.991035
vn -0 0.07474000000000006 0.997203
vn -0 -0.32799899999999993 0.944678
vn -1E-06 -0.32799899999999993 0.944678
vn -1E-06 0.572308 0.820039
vn 0 0.572308 0.820039
vn -0.321153 0.688509 0.650243
vn -0.321074 0.688549 0.650239
vn -0.281608 0.603919 0.74564
vn -0.281678 0.603881 0.745644
vn -0.933155 0.359169 -0.014824000000000023
vn -0.277349 -0.960759 -0.004405999999999941
vn 0.933154 -0.359172 0.014824000000000023
vn 0.277346 0.96076 0.004405999999999941
vn -0.933155 -0.359169 -0.014823999999999978
vn 0.933154 0.359171 0.014823999999999978
vn -0.27735 0.960759 -0.004406000000000059
vn 0.277346 -0.96076 0.004406000000000059
vn 0.962125 0.07074700000000002 0.263268
vn 0.9609 0.06303500000000001 0.269625
vn 0.957636 0.07133700000000001 0.279005
vn 0.954385 0.0027560000000000184 0.298566
vn 0.957612 0.0017580000000000176 0.288057
vn 0.958693 -0.08098999999999999 0.272671
vn 0.962215 -0.08027499999999999 0.260188
vn 0.964431 -0.10671699999999999 0.241837
vn -0.962125 -0.07074500000000002 -0.263268
vn -0.957637 -0.07133600000000001 -0.279004
vn -0.9609 -0.06303400000000002 -0.269624
vn -0.954385 -0.0027560000000000184 -0.298565
vn -0.958693 0.08098999999999999 -0.27267
vn -0.957612 -0.0017580000000000176 -0.288056
vn -0.964431 0.10671799999999998 -0.241837
vn -0.962215 0.08027599999999999 -0.260188
vn 0.933153 -0.359174 -0.014823999999999978
vn 0.933155 0.35917 -0.014824000000000023
vn -0.277352 0.960758 0.004405999999999941
vn 0.277346 0.96076 -0.004406000000000059
vn -0.933155 -0.359169 0.014823000000000022
vn -0.933155 0.359167 0.014822999999999977
vn 0.277346 -0.96076 -0.004405999999999941
vn -0.27735 -0.960759 0.004406000000000059
vn -0.933155 -0.359169 -0.014823999999999978
vn -0.277349 0.960759 -0.004406000000000059
vn 0.277346 0.96076 0.004405999999999941
vn -0.933155 0.359169 -0.014824000000000023
vn 0.933153 0.359173 0.014823999999999978
vn 0.933154 -0.35917 0.014824000000000023
vn 0.277347 -0.96076 0.004406000000000059
vn -0.277351 -0.960759 -0.004405999999999941
vn 0.020659 -0.33852499999999996 0.940731
vn 0 6.123233995736766E-17 1
vn 0.014754 -0.18966099999999994 0.981739
vn 0 -0.17590999999999996 0.984406
vn 0 6.123233995736766E-17 1
vn 0.041302 -0.36588299999999996 0.929744
vn 0 -0.27470999999999995 0.961527
vn 0 -0.572308 0.820039
vn 0 -0.572308 0.820039
vn 0.321151 -0.68851 0.650243
vn 0.321077 -0.688548 0.650239
vn 0.281601 -0.603922 0.74564
vn 0.281671 -0.603884 0.745644
vn 3E-06 -0.673686 0.739018
vn 2E-06 -0.673686 0.739018
vn 0.012307 -0.3039799999999999 0.952599
vn 0 -0.33302499999999996 0.942918
vn 0 -0.33302499999999996 0.942918
vn -3E-06 -0.673686 0.739018
vn -2E-06 -0.673686 0.739018
vn -0 -0.572308 0.820039
vn 0 -0.572308 0.820039
vn -0.313739 -0.672605 0.670202
vn -0.313666 -0.672642 0.670199
vn -0.281601 -0.603922 0.74564
vn -0.281674 -0.603883 0.745644
vn 1E-06 -0.641094 0.767462
vn 0 -0.607238 0.79452
vn 0.30858 -0.6615 0.683517
vn 0.295393 -0.63323 0.715376
vn -1E-06 -0.641094 0.767462
vn -0 -0.607238 0.79452
vn -0.303431 -0.650446 0.696311
vn -0.292728 -0.627508 0.721488
vn 2E-06 0.641094 0.767462
vn 2E-06 0.607238 0.79452
vn 0.308581 0.6615 0.683518
vn 0.295395 0.633229 0.715376
vn -2E-06 0.641094 0.767462
vn -2E-06 0.607238 0.79452
vn -0.308583 0.661499 0.683517
vn -0.295399 0.633227 0.715376
vn -0.002747 -0.988094 -0.15382899999999994
vn 0.974405 -1.3765091254756208E-17 -0.224801
vn -0.991762 -7.84337288981914E-18 -0.128092
vn -0.017857 -6.122260401531443E-17 -0.999841
vn -0.002747 0.988094 -0.15382900000000005
vn -0.974405 -1.3765091254756208E-17 -0.224801
vn 0.002736 -0.988094 -0.15382999999999994
vn 0.991763 -7.843250425139224E-18 -0.12809
vn 0.002736 0.988094 -0.15383000000000005
vn 0.017782 -6.12226652476544E-17 -0.999842
vn 0.974404 1.9999999999862348E-06 -0.224803
vn -0.002747 0.988094 -0.15382900000000005
vn -0.991763 1.999999999992157E-06 -0.12809
vn -0.002748 -0.988094 -0.15382899999999994
vn -0.017858 8.999999999938778E-06 -0.999841
vn 0.002736 0.988094 -0.15382900000000005
vn -0.974404 1.9999999999862348E-06 -0.224804
vn 0.991763 1.999999999992157E-06 -0.128087
vn 0.017783 9.999999999938779E-06 -0.999842
vn 0.002736 -0.988094 -0.15382999999999994
vn 0 -0.2689659999999999 0.96315
vn 0 -0.07292799999999995 0.997337
vn 1E-06 0.13444900000000007 0.99092
vn 0 -0.2689659999999999 0.96315
vn 1E-06 0.32799900000000004 0.944678
vn 0 0.32799900000000004 0.944678
vn 0.97141 0.05320399999999999 -0.231372
vn 0.96871 0.06096899999999999 -0.240592
vn 0.968463 0.0013669999999999848 -0.249154
vn 0.969535 -0.06961100000000002 -0.234855
vn 0.972437 -0.06857400000000001 -0.222856
vn 0 0.15058600000000005 0.988597
vn -0.003858 0.07369400000000005 0.997273
vn 0.003691 -0.08352199999999994 0.996499
vn -0.004178 0.15796000000000004 0.987437
vn 0 0.15058600000000005 0.988597
vn -0.968463 -0.001367999999999985 0.249154
vn -0.968709 -0.06096799999999999 0.240593
vn -0.971409 -0.053202999999999986 0.231372
vn -0.972437 0.06857400000000001 0.222856
vn -0.969535 0.06961000000000002 0.234855
vn -0 -0.27153399999999994 0.962429
vn 0 -0.27153399999999994 0.962429
vn -0 -0.07473999999999995 0.997203
vn -1E-06 0.13360600000000006 0.991035
vn -1E-06 0.32799900000000004 0.944678
vn -0 0.32799900000000004 0.944678
vn 0.9609 -0.06303699999999998 0.269624
vn 0.957637 -0.07133799999999998 0.279003
vn 0.957612 -0.0017579999999999824 0.288055
vn 0.958693 0.08099000000000002 0.272668
vn 0.962216 0.08027500000000001 0.260185
vn -0.957613 0.0017579999999999824 -0.288054
vn -0.957637 0.07133499999999998 -0.279002
vn -0.960901 0.06303299999999999 -0.269622
vn -0.962216 -0.08027500000000001 -0.260186
vn -0.958693 -0.08098900000000002 -0.272668
vn 0.009056 -0.18386499999999995 0.98291
vn 0.008693 -0.20659699999999995 0.978388
vn 0 -0.22071999999999994 0.975337
vn 0 -0.17282599999999995 0.984952
vn 0.954386 -0.0027539999999999817 0.298564
vn 0.962125 -0.07074899999999999 0.263266
vn 0.964431 0.10671500000000002 0.241835
vn -0.962126 0.07074399999999999 -0.263266
vn -0.954386 0.0027569999999999817 -0.298563
vn -0.964431 -0.10671600000000002 -0.241836
vn 0.965744 0.002402999999999984 -0.259484
vn 0.972429 0.059363999999999986 -0.225515
vn 0.974406 -0.09075300000000001 -0.205662
vn -0.972429 -0.059361999999999984 0.225517
vn -0.965744 -0.002403999999999984 0.259484
vn -0.974406 0.09075300000000001 0.205662
vn 0.933154 -0.359172 -0.014823999999999978
vn 0.933154 0.359171 -0.014824000000000023
vn -0.277351 0.960759 0.004405999999999941
vn 0.277346 0.96076 -0.004406000000000059
vn -0.933155 -0.359167 0.014823000000000022
vn -0.933155 0.359169 0.014822999999999977
vn 0.277346 -0.96076 -0.004405999999999941
vn -0.27735 -0.960759 0.004406000000000059
vn -0.933156 -0.359166 -0.014823999999999978
vn -0.277352 0.960758 -0.004406000000000059
vn 0.277343 0.960761 0.004404999999999941
vn -0.933156 0.359167 -0.014824000000000023
vn 0.933152 0.359175 0.014822999999999977
vn 0.933154 -0.359171 0.014823000000000022
vn 0.277344 -0.960761 0.004405000000000059
vn -0.277354 -0.960758 -0.004405999999999941
vn 0.277347 -0.96076 -0.004405999999999941
vn -0.933154 0.359172 0.014823999999999978
vn -0.933154 -0.359171 0.014824000000000023
vn 0 6.123233995736766E-17 1
vn 0 6.123233995736766E-17 1
vn 0 6.123233995736766E-17 1
vn 0 0.33302500000000007 0.942918
vn 0 0.33302500000000007 0.942918
vn 0 6.123233995736766E-17 1
vn -0.277349 -0.960759 -0.004405999999999941
vn 0.933154 0.359171 0.014823999999999978
vn 0.933154 -0.359172 0.014824000000000023
vn 0 6.123233995736766E-17 1
vn 0 6.123233995736766E-17 1
vn 0 6.123233995736766E-17 1
vn 0 6.123233995736766E-17 1
vn 0.277346 0.96076 -0.004406000000000059
vn -0.933155 0.359167 0.014822999999999977
vn -0.933155 -0.359169 0.014823000000000022
vn 0 6.123233995736766E-17 1
vn 0 6.123233995736766E-17 1
vn 0 6.123233995736766E-17 1
vn 0 6.123233995736766E-17 1
vn -0.277349 0.960759 -0.004406000000000059
vn 0.933154 -0.35917 0.014824000000000023
vn 0.933153 0.359173 0.014823999999999978
vn 0 6.123233995736766E-17 1
vn 0 6.123233995736766E-17 1
vn 0 6.123233995736766E-17 1
vn 0 6.123233995736766E-17 1
vn 0 -0.33302499999999996 0.942918
vn 0 -0.33302499999999996 0.942918
vn -0.017857 -6.122260401531443E-17 -0.999841
vn -0.991762 -7.84337288981914E-18 -0.128092
vn 0 6.123233995736766E-17 1
vn 0 6.123233995736766E-17 1
vn 0 6.123233995736766E-17 1
vn 0 6.123233995736766E-17 1
vn 0.017782 -6.12226652476544E-17 -0.999842
vn 0.991763 -7.843250425139224E-18 -0.12809
vn 0 6.123233995736766E-17 1
vn 0 6.123233995736766E-17 1
vn 0 6.123233995736766E-17 1
vn 0 6.123233995736766E-17 1
vn -0.017858 8.999999999938778E-06 -0.999841
vn -0.991763 1.999999999992157E-06 -0.12809
vn 0 6.123233995736766E-17 1
vn 0 6.123233995736766E-17 1
vn 0 6.123233995736766E-17 1
vn 0 6.123233995736766E-17 1
vn 0.017783 9.999999999938779E-06 -0.999842
vn 0.991763 1.999999999992157E-06 -0.128087
vn 0 6.123233995736766E-17 1
vn 0 6.123233995736766E-17 1
vn 0 6.123233995736766E-17 1
vn 0 6.123233995736766E-17 1
vn 0.277346 0.96076 -0.004406000000000059
vn -0.933155 0.359169 0.014822999999999977
vn -0.933155 -0.359167 0.014823000000000022
vn 0 6.123233995736766E-17 1
vn 0 6.123233995736766E-17 1
vn 0 6.123233995736766E-17 1
vn 0 6.123233995736766E-17 1
vn -0.277352 0.960758 -0.004406000000000059
vn 0.933154 -0.359171 0.014823000000000022
vn 0.933152 0.359175 0.014822999999999977
vn 0 6.123233995736766E-17 1
vn 0 6.123233995736766E-17 1
vn 0 6.123233995736766E-17 1
vn 0 6.123233995736766E-17 1
vn -0.277347 -0.96076 0.004406000000000059
vn -0.277347 -0.96076 0.004406000000000059
vn 0.933154 0.359172 -0.014824000000000023
vn 0.933154 -0.359171 -0.014823999999999978
vn 0.277346 0.96076 -0.004406000000000059
vn 0.277346 0.96076 -0.004406000000000059
vn -0.277346 0.96076 0.004405999999999941
vn 0.933154 0.359172 -0.014824000000000023
vn 0.277346 -0.96076 0.004406000000000059
vn 0.277346 -0.96076 0.004406000000000059
vn -0.27735 0.960759 -0.004406000000000059
vn -0.933155 -0.359169 -0.014823999999999978
vn -0.933155 0.359169 -0.014824000000000023
vn -0.933155 0.359169 -0.014824000000000023
vn 0.277346 0.96076 0.004405999999999941
vn -0.27735 0.960759 -0.004406000000000059
vn -0.277352 0.960758 0.004405999999999941
vn -0.277352 0.960758 0.004405999999999941
vn 0.933153 -0.359174 -0.014823999999999978
vn -0.27735 -0.960759 0.004406000000000059
vn 0.277346 -0.96076 -0.004405999999999941
vn 0.277346 -0.96076 -0.004405999999999941
vn 0.933155 0.35917 -0.014824000000000023
vn 0.933153 -0.359174 -0.014823999999999978
vn 0.277346 0.96076 0.004405999999999941
vn 0.277346 0.96076 0.004405999999999941
vn -0.277351 -0.960759 -0.004405999999999941
vn 0.277347 -0.96076 0.004406000000000059
vn -0.933155 -0.359169 -0.014823999999999978
vn -0.933155 -0.359169 -0.014823999999999978
vn -0.933155 0.359169 -0.014824000000000023
vn -0.277351 -0.960759 -0.004405999999999941
vn -0.002747 -0.988094 -0.15382899999999994
vn -0.017857 -6.122260401531443E-17 -0.999841
vn -0.017857 -6.122260401531443E-17 -0.999841
vn 0.974405 -1.3765091254756208E-17 -0.224801
vn -0.002747 0.988094 -0.15382900000000005
vn 0.002736 -0.988094 -0.15382999999999994
vn 0.017782 -6.12226652476544E-17 -0.999842
vn 0.017782 -6.12226652476544E-17 -0.999842
vn 0.002736 0.988094 -0.15383000000000005
vn -0.974405 -1.3765091254756208E-17 -0.224801
vn -0.002747 0.988094 -0.15382900000000005
vn -0.017858 8.999999999938778E-06 -0.999841
vn -0.017858 8.999999999938778E-06 -0.999841
vn -0.002748 -0.988094 -0.15382899999999994
vn 0.974404 1.9999999999862348E-06 -0.224803
vn 0.002736 0.988094 -0.15382900000000005
vn 0.017783 9.999999999938779E-06 -0.999842
vn 0.017783 9.999999999938779E-06 -0.999842
vn -0.974404 1.9999999999862348E-06 -0.224804
vn 0.002736 -0.988094 -0.15382999999999994
vn -0.277351 0.960759 0.004405999999999941
vn -0.277351 0.960759 0.004405999999999941
vn 0.933154 -0.359172 -0.014823999999999978
vn -0.27735 -0.960759 0.004406000000000059
vn 0.277346 -0.96076 -0.004405999999999941
vn 0.277346 -0.96076 -0.004405999999999941
vn 0.933154 0.359171 -0.014824000000000023
vn 0.933154 -0.359172 -0.014823999999999978
vn 0.277343 0.960761 0.004404999999999941
vn 0.277343 0.960761 0.004404999999999941
vn -0.277354 -0.960758 -0.004405999999999941
vn 0.277344 -0.960761 0.004405000000000059
vn -0.933156 -0.359166 -0.014823999999999978
vn -0.933156 -0.359166 -0.014823999999999978
vn -0.933156 0.359167 -0.014824000000000023
vn -0.277354 -0.960758 -0.004405999999999941
g 02 - Default
f 310/310/310 312/312/312 309/309/309
f 311/311/311 310/310/310 309/309/309
f 380/380/380 379/379/379 378/378/378
f 377/377/377 376/376/376 375/375/375
f 307/307/307 242/242/242 241/241/241
f 241/241/241 308/308/308 307/307/307
f 374/374/374 240/240/240 239/239/239
f 239/239/239 306/306/306 373/373/373
f 238/238/238 237/237/237 236/236/236
f 236/236/236 235/235/235 238/238/238
f 305/305/305 304/304/304 302/302/302
f 304/304/304 303/303/303 302/302/302
f 372/372/372 371/371/371 370/370/370
f 369/369/369 368/368/368 367/367/367
f 234/234/234 233/233/233 301/301/301
f 301/301/301 300/300/300 234/234/234
f 232/232/232 231/231/231 366/366/366
f 365/365/365 299/299/299 232/232/232
f 230/230/230 229/229/229 228/228/228
f 228/228/228 227/227/227 230/230/230
f 225/225/225 190/190/190 194/194/194
f 226/226/226 194/194/194 193/193/193
f 225/225/225 191/191/191 190/190/190
f 224/224/224 192/192/192 191/191/191
f 223/223/223 184/184/184 183/183/183
f 221/221/221 183/183/183 182/182/182
f 222/222/222 181/181/181 180/180/180
f 221/221/221 182/182/182 181/181/181
f 219/219/219 206/206/206 210/210/210
f 220/220/220 210/210/210 209/209/209
f 219/219/219 207/207/207 206/206/206
f 218/218/218 208/208/208 207/207/207
f 217/217/217 205/205/205 204/204/204
f 215/215/215 204/204/204 203/203/203
f 216/216/216 202/202/202 201/201/201
f 215/215/215 203/203/203 202/202/202
f 212/212/212 214/214/214 187/187/187
f 187/187/187 211/211/211 212/212/212
f 211/211/211 213/213/213 212/212/212
f 186/186/186 211/211/211 187/187/187
f 210/210/210 206/206/206 209/209/209
f 207/207/207 208/208/208 206/206/206
f 204/204/204 205/205/205 203/203/203
f 202/202/202 203/203/203 201/201/201
f 198/198/198 197/197/197 199/199/199
f 199/199/199 200/200/200 198/198/198
f 195/195/195 196/196/196 197/197/197
f 197/197/197 198/198/198 195/195/195
f 194/194/194 190/190/190 193/193/193
f 191/191/191 192/192/192 190/190/190
f 186/186/186 188/188/188 185/185/185
f 186/186/186 187/187/187 188/188/188
f 188/188/188 189/189/189 185/185/185
f 183/183/183 184/184/184 182/182/182
f 181/181/181 182/182/182 180/180/180
f 178/178/178 179/179/179 176/176/176
f 176/176/176 175/175/175 178/178/178
f 175/175/175 176/176/176 177/177/177
f 177/177/177 174/174/174 175/175/175
f 296/296/296 298/298/298 295/295/295
f 297/297/297 296/296/296 295/295/295
f 364/364/364 363/363/363 362/362/362
f 294/294/294 173/173/173 361/361/361
f 360/360/360 171/171/171 293/293/293
f 170/170/170 169/169/169 172/172/172
f 292/292/292 291/291/291 289/289/289
f 291/291/291 290/290/290 289/289/289
f 359/359/359 358/358/358 357/357/357
f 356/356/356 167/167/167 288/288/288
f 287/287/287 166/166/166 355/355/355
f 168/168/168 165/165/165 164/164/164
f 286/286/286 285/285/285 283/283/283
f 285/285/285 284/284/284 283/283/283
f 354/354/354 353/353/353 352/352/352
f 351/351/351 162/162/162 282/282/282
f 281/281/281 161/161/161 350/350/350
f 163/163/163 160/160/160 159/159/159
f 278/278/278 280/280/280 277/277/277
f 279/279/279 278/278/278 277/277/277
f 349/349/349 348/348/348 347/347/347
f 276/276/276 158/158/158 346/346/346
f 345/345/345 156/156/156 275/275/275
f 155/155/155 154/154/154 157/157/157
f 71/71/71 152/152/152 153/153/153
f 153/153/153 70/70/70 71/71/71
f 151/151/151 150/150/150 66/66/66
f 66/66/66 67/67/67 151/151/151
f 149/149/149 148/148/148 25/25/25
f 25/25/25 24/24/24 149/149/149
f 18/18/18 146/146/146 147/147/147
f 147/147/147 19/19/19 18/18/18
f 145/145/145 144/144/144 137/137/137
f 137/137/137 136/136/136 145/145/145
f 132/132/132 142/142/142 143/143/143
f 143/143/143 133/133/133 132/132/132
f 124/124/124 140/140/140 141/141/141
f 141/141/141 123/123/123 124/124/124
f 139/139/139 138/138/138 119/119/119
f 119/119/119 120/120/120 139/139/139
f 134/134/134 135/135/135 144/144/144
f 144/144/144 145/145/145 134/134/134
f 142/142/142 130/130/130 131/131/131
f 131/131/131 143/143/143 142/142/142
f 273/273/273 274/274/274 129/129/129
f 129/129/129 128/128/128 273/273/273
f 121/121/121 141/141/141 140/140/140
f 140/140/140 122/122/122 121/121/121
f 126/126/126 125/125/125 138/138/138
f 138/138/138 139/139/139 126/126/126
f 114/114/114 113/113/113 116/116/116
f 116/116/116 115/115/115 114/114/114
f 118/118/118 127/127/127 112/112/112
f 127/127/127 117/117/117 112/112/112
f 117/117/117 114/114/114 112/112/112
f 114/114/114 115/115/115 112/112/112
f 55/55/55 53/53/53 54/54/54
f 54/54/54 56/56/56 57/57/57
f 51/51/51 53/53/53 55/55/55
f 52/52/52 50/50/50 51/51/51
f 33/33/33 32/32/32 30/30/30
f 30/30/30 29/29/29 31/31/31
f 27/27/27 26/26/26 28/28/28
f 31/31/31 29/29/29 27/27/27
f 93/93/93 91/91/91 92/92/92
f 92/92/92 94/94/94 95/95/95
f 89/89/89 91/91/91 93/93/93
f 90/90/90 88/88/88 89/89/89
f 86/86/86 87/87/87 85/85/85
f 85/85/85 83/83/83 84/84/84
f 82/82/82 80/80/80 81/81/81
f 84/84/84 83/83/83 82/82/82
f 2/2/2 45/45/45 6/6/6
f 6/6/6 3/3/3 2/2/2
f 270/270/270 272/272/272 269/269/269
f 271/271/271 270/270/270 269/269/269
f 344/344/344 343/343/343 342/342/342
f 341/341/341 340/340/340 339/339/339
f 267/267/267 111/111/111 110/110/110
f 110/110/110 268/268/268 267/267/267
f 338/338/338 109/109/109 108/108/108
f 108/108/108 266/266/266 337/337/337
f 107/107/107 106/106/106 105/105/105
f 105/105/105 104/104/104 107/107/107
f 265/265/265 264/264/264 262/262/262
f 264/264/264 263/263/263 262/262/262
f 336/336/336 335/335/335 334/334/334
f 333/333/333 332/332/332 331/331/331
f 103/103/103 102/102/102 261/261/261
f 261/261/261 260/260/260 103/103/103
f 101/101/101 100/100/100 330/330/330
f 329/329/329 259/259/259 101/101/101
f 99/99/99 98/98/98 97/97/97
f 97/97/97 96/96/96 99/99/99
f 46/46/46 45/45/45 2/2/2
f 45/45/45 5/5/5 6/6/6
f 93/93/93 92/92/92 95/95/95
f 90/90/90 89/89/89 93/93/93
f 86/86/86 85/85/85 84/84/84
f 84/84/84 82/82/82 81/81/81
f 258/258/258 257/257/257 255/255/255
f 257/257/257 256/256/256 255/255/255
f 328/328/328 327/327/327 326/326/326
f 325/325/325 324/324/324 323/323/323
f 253/253/253 254/254/254 75/75/75
f 75/75/75 78/78/78 253/253/253
f 322/322/322 252/252/252 74/74/74
f 74/74/74 77/77/77 321/321/321
f 76/76/76 72/72/72 73/73/73
f 73/73/73 79/79/79 76/76/76
f 68/68/68 153/153/153 152/152/152
f 152/152/152 69/69/69 68/68/68
f 62/62/62 64/64/64 65/65/65
f 65/65/65 63/63/63 62/62/62
f 61/61/61 60/60/60 150/150/150
f 150/150/150 151/151/151 61/61/61
f 58/58/58 62/62/62 63/63/63
f 63/63/63 59/59/59 58/58/58
f 55/55/55 54/54/54 57/57/57
f 52/52/52 51/51/51 55/55/55
f 247/247/247 251/251/251 246/246/246
f 249/249/249 48/48/48 49/49/49
f 49/49/49 250/250/250 249/249/249
f 1/1/1 4/4/4 44/44/44
f 4/4/4 5/5/5 44/44/44
f 4/4/4 6/6/6 5/5/5
f 248/248/248 247/247/247 246/246/246
f 320/320/320 319/319/319 318/318/318
f 317/317/317 316/316/316 315/315/315
f 37/37/37 245/245/245 244/244/244
f 244/244/244 41/41/41 37/37/37
f 36/36/36 243/243/243 314/314/314
f 313/313/313 40/40/40 36/36/36
f 35/35/35 34/34/34 38/38/38
f 38/38/38 39/39/39 35/35/35
f 33/33/33 30/30/30 31/31/31
f 31/31/31 27/27/27 28/28/28
f 22/22/22 23/23/23 148/148/148
f 148/148/148 149/149/149 22/22/22
f 16/16/16 20/20/20 21/21/21
f 21/21/21 17/17/17 16/16/16
f 146/146/146 42/42/42 43/43/43
f 43/43/43 147/147/147 146/146/146
f 20/20/20 14/14/14 15/15/15
f 15/15/15 21/21/21 20/20/20
f 9/9/9 10/10/10 11/11/11
f 11/11/11 8/8/8 9/9/9
f 10/10/10 9/9/9 7/7/7
f 9/9/9 12/12/12 7/7/7
f 12/12/12 47/47/47 7/7/7
f 47/47/47 13/13/13 7/7/7
