v -0.009685 -0.340173 0.13992500000000002
v 0.067807 -0.38158 0.09015700000000003
v 0.071767 -0.359122 0.19385000000000002
v 0.071767 -0.359122 0.19385000000000002
v 0.067807 -0.38158 0.09015700000000003
v 0.153976 -0.310175 0.13804700000000003
v -0.012026 0.11366000000000001 0.203487
v -0.033172 0.08684000000000001 0.203415
v 0.000564 0.08199200000000001 0.200945
v 0.025047 0.170324 0.0006689999999999896
v -0.03097 0.218102 0.0006689999999999867
v -0.03097 0.218102 0.137304
v 0.219057 -0.494314 0.24823500000000004
v 0.290485 -0.425145 0.12739300000000003
v 0.209769 -0.403989 0.13037500000000002
v 0.049611 -0.360621 0.08339100000000003
v 0.121664 -0.328031 0.17694200000000002
v -0.017669 -0.324994 -0.0009279999999999801
v 0.344346 -0.166567 -0.0015989999999999898
v 0.213686 -0.22072 -0.0015989999999999865
v 0.188286 -0.20850099999999996 0.226774
v 0.495547 -0.146755 0.158996
v 0.526725 0.03006000000000001 0.193262
v 0.464999 0.03006000000000001 0.185342
v -0.507218 0.07034700000000002 0.17538
v -0.38627 -0.302242 0.13970800000000003
v -0.342667 -0.239938 0.14577600000000002
v -0.267215 0.37511 0.11227499999999997
v -0.073109 0.484773 0.16037299999999996
v -0.080018 0.526568 0.15874999999999997
v -0.080018 0.526568 0.15874999999999997
v -0.338326 0.452363 0.10609599999999997
v -0.267215 0.37511 0.11227499999999997
v -0.073109 0.484773 0.16037299999999996
v 0.237376 0.424316 0.21973499999999999
v 0.268239 0.477771 0.22369599999999998
v 0.268239 0.477771 0.22369599999999998
v -0.080018 0.526568 0.15874999999999997
v -0.073109 0.484773 0.16037299999999996
v 0.358492 0.322687 0.15914299999999998
v 0.464999 0.03006000000000001 0.185342
v 0.526725 0.03006000000000001 0.193262
v 0.526725 0.03006000000000001 0.193262
v 0.405776 0.362363 0.16521099999999997
v 0.358492 0.322687 0.15914299999999998
v -0.033172 0.08684000000000001 0.203415
v -0.03965 0.091481 0.023998999999999993
v -0.005915 0.086633 0.02152799999999999
v -0.005915 0.086633 0.02152799999999999
v 0.000564 0.08199200000000001 0.200945
v 0.000564 0.08199200000000001 0.200945
v -0.005915 0.086633 0.02152799999999999
v -0.018504 0.118301 0.024069999999999994
v -0.018504 0.118301 0.024069999999999994
v -0.012026 0.11366000000000001 0.203487
v -0.054091 0.141549 0.05292999999999999
v -0.057528 0.09512600000000002 0.143433
v -0.026066 0.091533 0.05292999999999999
v -0.040966 0.11194 0.0007229999999999932
v -0.054091 0.141549 0.05292999999999999
v -0.026066 0.091533 0.05292999999999999
v -0.040465 0.089982 0.0007229999999999945
v -0.054091 0.141549 0.05292999999999999
v -0.057708 0.123535 0.0007229999999999924
v 0.357521 0.521767 0.000722999999999968
v 0.374622 0.485863 0.0007229999999999703
v 0.37082 0.478787 0.12441399999999997
v 0.414267 0.489005 0.0007229999999999701
v 0.37082 0.478787 0.12441399999999997
v 0.424272 0.483023 0.12441399999999997
v 0.380636 0.495789 0.13980499999999998
v 0.357324 0.521676 0.08906799999999997
v 0.357521 0.521767 0.000722999999999968
v 0.401215 0.531434 0.07943699999999997
v 0.397166 0.524911 0.0007229999999999679
v 0.380636 0.495789 0.13980499999999998
v 0.424272 0.483023 0.12441399999999997
v 0.414267 0.489005 0.0007229999999999701
v 0.397166 0.524911 0.0007229999999999679
v 0.401215 0.531434 0.07943699999999997
v 0.486893 0.478327 0.27322099999999994
v 0.528644 0.434562 0.23690499999999998
v 0.520554 0.536628 0.23690499999999998
v 0.520554 0.536628 0.23690499999999998
v 0.515132 0.441824 0.0007229999999999729
v 0.446748 0.408795 0.16941199999999998
v 0.446575 0.409171 0.000722999999999975
v 0.528644 0.434562 0.23690499999999998
v 0.509132 0.517523 0.0007229999999999684
v 0.520554 0.536628 0.23690499999999998
v 0.440574 0.484871 0.0007229999999999703
v 0.428117 0.492603 0.15102399999999996
v 0.428117 0.492603 0.15102399999999996
v 0.446575 0.409171 0.000722999999999975
v 0.520554 0.536628 0.23690499999999998
v 0.486893 0.478327 0.27322099999999994
v 0.446748 0.408795 0.16941199999999998
v 0.528644 0.434562 0.23690499999999998
v 0.486893 0.478327 0.27322099999999994
v -0.359872 -0.287736 0.12612200000000004
v -0.327585 -0.35419 0.12841900000000003
v -0.265389 -0.395046 -0.00016299999999997583
v -0.327585 -0.35419 0.12841900000000003
v -0.399153 -0.334549 0.15889300000000003
v -0.457239 -0.399327 0.10896600000000002
v -0.265389 -0.395046 -0.00016299999999997583
v -0.457239 -0.399327 0.10896600000000002
v -0.463042 -0.406243 -0.00016299999999997512
v -0.463042 -0.406243 -0.00016299999999997512
v -0.470198 -0.30649 0.10807800000000001
v -0.486034 -0.325362 -0.00016299999999998008
v -0.399153 -0.334549 0.15889300000000003
v -0.359872 -0.287736 0.12612200000000004
v 0.158622 -0.455914 0.18027200000000002
v 0.128291 -0.489254 -0.00104899999999997
v 0.191452 -0.58629 -0.001048999999999964
v 0.193789 -0.57757 0.14838000000000004
v 0.158622 -0.455914 0.18027200000000002
v 0.219057 -0.494314 0.24823500000000004
v 0.193789 -0.57757 0.14838000000000004
v 0.209769 -0.403989 0.13037500000000002
v 0.128291 -0.489254 -0.00104899999999997
v 0.219057 -0.494314 0.24823500000000004
v 0.05583 -0.499462 0.11662700000000002
v 0.045989 -0.487734 -0.0009279999999999702
v 0.125776 -0.481708 -0.0015989999999999705
v 0.167339 -0.43928 0.17694200000000002
v 0.05583 -0.499462 0.11662700000000002
v 0.049611 -0.360621 0.08339100000000003
v 0.05583 -0.499462 0.11662700000000002
v 0.121664 -0.328031 0.17694200000000002
v 0.023162 0.10201400000000001 0.137304
v 0.023162 0.102014 0.0006689999999999937
v 0.025047 0.170324 0.0006689999999999896
v 0.026142 0.169867 0.11871899999999999
v 0.023162 0.10201400000000001 0.137304
v -0.03097 0.218102 0.137304
v -0.003905 0.160058 0.161406
v -0.03097 0.218102 0.137304
v -0.003905 0.160058 0.161406
v 0.023162 0.10201400000000001 0.137304
v -0.026066 0.091533 0.05292999999999999
v -0.073574 0.036093 0.05293
v -0.070554 0.054012 0.0007229999999999966
v -0.070554 0.054012 0.0007229999999999966
v -0.040465 0.089982 0.0007229999999999945
v -0.073574 0.036093 0.05293
v -0.057528 0.09512600000000002 0.143433
v 0.380636 0.495789 0.13980499999999998
v 0.401215 0.531434 0.07943699999999997
v 0.357324 0.521676 0.08906799999999997
v 0.357521 0.521767 0.000722999999999968
v 0.401215 0.531434 0.07943699999999997
v 0.380636 0.495789 0.13980499999999998
v 0.37082 0.478787 0.12441399999999997
v -0.460126 0.06929900000000001 0.183301
v -0.267215 0.37511 0.11227499999999997
v -0.338326 0.452363 0.10609599999999997
v -0.507218 0.07034700000000002 0.17538
v -0.460126 0.06929900000000001 0.183301
v -0.362957 0.472661 -2.8942139036589357E-17
v -0.342667 -0.239938 0.14577600000000002
v -0.460126 0.06929900000000001 0.183301
v -0.539866 0.028197 2.9999999999998273E-05
v -0.38627 -0.302242 0.13970800000000003
v -0.412769 -0.322412 3.0000000000019743E-05
v -0.22091 -0.395043 0.14602700000000002
v -0.25104 -0.421647 3.000000000002582E-05
v -0.122818 -0.53314 0.13322200000000003
v -0.04793 -0.521238 -0.0009279999999999681
v 0.045989 -0.487734 -0.0009279999999999702
v 0.05583 -0.499462 0.11662700000000002
v -0.111496 -0.403723 0.258106
v -0.042478 -0.409761 0.22277500000000003
v -0.105457 -0.334706 0.22277500000000003
v -0.111496 -0.403723 0.258106
v -0.042478 -0.409761 0.22277500000000003
v -0.122818 -0.53314 0.13322200000000003
v 0.05583 -0.499462 0.11662700000000002
v 0.049611 -0.360621 0.08339100000000003
v -0.005941 -0.315153 0.13322200000000003
v -0.017669 -0.324994 -0.0009279999999999801
v -0.203219 -0.257148 -0.0009279999999999843
v -0.196933 -0.309853 0.14013900000000004
v -0.22091 -0.395043 0.14602700000000002
v -0.342667 -0.239938 0.14577600000000002
v -0.38627 -0.302242 0.13970800000000003
v -0.38627 -0.302242 0.13970800000000003
v -0.22091 -0.395043 0.14602700000000002
v -0.342667 -0.239938 0.14577600000000002
v -0.339132 -0.236973 0.00030800000000001453
v -0.460126 0.06929900000000001 0.183301
v -0.39221 -0.121002 0.00030800000000000743
v -0.440879 0.03006 0.00030799999999999816
v -0.267215 0.37511 0.11227499999999997
v -0.257534 0.362609 0.0003689999999999778
v 0.010099 -0.01635899999999999 0.091232
v -0.053944 0.03289500000000001 0.105488
v -0.053944 0.032895 0.0006809999999999979
v 0.010099 0.03289500000000001 0.123976
v 0.074144 0.03289500000000001 0.105488
v -0.053944 0.032895 0.0006809999999999979
v 0.010099 -0.016359 0.0006810000000000009
v -0.053944 0.03289500000000001 0.105488
v 0.010099 0.082149 0.105488
v 0.010099 0.082149 0.000680999999999995
v 0.010099 0.03289500000000001 0.123976
v -0.053944 0.03289500000000001 0.105488
v 0.010099 -0.01635899999999999 0.091232
v 0.074144 0.03289500000000001 0.105488
v 0.010099 -0.016359 0.0006810000000000009
v 0.074144 0.032895 0.0006809999999999979
v 0.010099 0.082149 0.105488
v 0.074144 0.032895 0.0006809999999999979
v 0.010099 0.082149 0.000680999999999995
v 0.369479 -0.30971 0.297775
v 0.333383 -0.407143 0.251891
v 0.44711 -0.43151 -0.0015989999999999735
v 0.44711 -0.43151 -0.0015989999999999735
v 0.505559 -0.315383 -0.0015989999999999806
v 0.499883 -0.148333 3.0000000000009084E-05
v 0.495547 -0.146755 0.158996
v 0.411917 -0.22310299999999997 0.25405
v 0.32531 -0.21227699999999997 0.270612
v 0.526725 0.03006000000000001 0.193262
v 0.499883 -0.148333 3.0000000000009084E-05
v 0.546469 0.032219 2.999999999999803E-05
v 0.405776 0.362363 0.16521099999999997
v 0.409311 0.36533 2.9999999999977632E-05
v 0.270546 0.481767 2.99999999999705E-05
v 0.268239 0.477771 0.22369599999999998
v -0.080018 0.526568 0.15874999999999997
v -0.08082 0.532881 2.999999999996737E-05
v -0.338326 0.452363 0.10609599999999997
v -0.362957 0.472661 -2.8942139036589357E-17
v 0.344346 -0.166567 -0.0015989999999999898
v 0.188286 -0.20850099999999996 0.226774
v 0.213686 -0.22072 -0.0015989999999999865
v -0.017669 -0.324994 -0.0009279999999999801
v 0.121664 -0.328031 0.17694200000000002
v 0.257331 -0.31975 0.15538700000000003
v 0.188286 -0.20850099999999996 0.226774
v 0.369479 -0.30971 0.297775
v 0.32531 -0.21227699999999997 0.270612
v 0.188286 -0.20850099999999996 0.226774
v 0.167339 -0.43928 0.17694200000000002
v 0.268158 -0.390065 0.13882400000000003
v 0.257331 -0.31975 0.15538700000000003
v 0.333383 -0.407143 0.251891
v 0.369479 -0.30971 0.297775
v 0.268158 -0.390065 0.13882400000000003
v 0.32531 -0.468082 0.12871500000000002
v 0.333383 -0.407143 0.251891
v 0.44711 -0.43151 -0.0015989999999999735
v 0.32531 -0.468082 0.12871500000000002
v 0.298731 -0.501326 -0.0015989999999999692
v 0.125776 -0.481708 -0.0015989999999999705
v 0.268158 -0.390065 0.13882400000000003
v 0.344346 -0.166567 -0.0015989999999999898
v 0.437544 -0.125644 0.151553
v 0.419283 -0.110836 0.0003080000000000068
v 0.495547 -0.146755 0.158996
v 0.43891 0.028472 0.00030799999999999827
v 0.419283 -0.110836 0.0003080000000000068
v 0.464999 0.03006000000000001 0.185342
v 0.495547 -0.146755 0.158996
v 0.340353 0.306276 0.00030799999999998125
v 0.358492 0.322687 0.15914299999999998
v 0.268239 0.477771 0.22369599999999998
v 0.237376 0.424316 0.21973499999999999
v 0.405776 0.362363 0.16521099999999997
v 0.268239 0.477771 0.22369599999999998
v 0.237376 0.424316 0.21973499999999999
v 0.220066 0.399734 0.0003079999999999755
v -0.071237 0.459159 0.00030799999999997187
v -0.073109 0.484773 0.16037299999999996
v -0.257534 0.362609 0.0003689999999999778
v -0.267215 0.37511 0.11227499999999997
v -0.012026 0.11366000000000001 0.203487
v -0.018504 0.118301 0.024069999999999994
v -0.03965 0.091481 0.023998999999999993
v -0.033172 0.08684000000000001 0.203415
v -0.486034 -0.325362 -0.00016299999999998008
v -0.470198 -0.30649 0.10807800000000001
v -0.359872 -0.287736 0.12612200000000004
v -0.43881 -0.267142 0.0038940000000000164
v -0.03097 0.218102 0.0006689999999999867
v -0.048543 0.139243 0.0006689999999999914
v -0.03097 0.218102 0.137304
v -0.048543 0.139243 0.137304
v -0.003905 0.160058 0.161406
v -0.048543 0.139243 0.0006689999999999914
v 0.023162 0.102014 0.0006689999999999937
v 0.023162 0.10201400000000001 0.137304
v -0.048543 0.139243 0.137304
v -0.003905 0.160058 0.161406
v 0.153976 -0.310175 0.13804700000000003
v 0.158254 -0.285914 -0.0004099999999999825
v 0.097901 -0.227366 -0.00040999999999998606
v 0.096334 -0.236256 0.13918200000000003
v 0.071767 -0.359122 0.19385000000000002
v 0.011257 -0.28501 0.13804700000000003
v 0.097901 -0.227366 -0.00040999999999998606
v -0.009685 -0.340173 0.13992500000000002
v -0.067673 -0.335889 -0.00040999999999997945
v -0.040066 -0.283351 -0.00040999999999998264
v 0.097901 -0.227366 -0.00040999999999998606
v -0.095004 0.08639 0.0007229999999999947
v -0.070554 0.054012 0.0007229999999999966
v -0.073574 0.036093 0.05293
v -0.110856 0.084634 0.05292999999999999
v -0.057708 0.123535 0.0007229999999999924
v -0.057528 0.09512600000000002 0.143433
v -0.054091 0.141549 0.05292999999999999
v -0.057708 0.123535 0.0007229999999999924
v 0.282792 -0.536418 0.14660700000000002
v 0.193789 -0.57757 0.14838000000000004
v 0.191452 -0.58629 -0.001048999999999964
v 0.219057 -0.494314 0.24823500000000004
v 0.290485 -0.425145 0.12739300000000003
v 0.354418 -0.445903 0.007827000000000028
v 0.333774 -0.542543 -0.0010489999999999668
v 0.191452 -0.58629 -0.001048999999999964
vt 0.644294 0.034408
vt 0.795855 0.086987
vt 0.676998 0.063759
vt 0.676998 0.063759
vt 0.795855 0.086987
vt 0.636279 0.127039
vt 0.898414 0.238298
vt 0.888242 0.284771
vt 0.878128 0.270503
vt 0.967275 0.504377
vt 0.967539 0.571148
vt 0.936149 0.621694
vt 0.342016 0.140643
vt 0.323878 0.113585
vt 0.212903 0.289601
vt 0.124745 0.724536
vt 0.069509 0.729087
vt 0.101387 0.672477
vt 0.649374 0.430274
vt 0.679252 0.325680
vt 0.741376 0.414340
vt 0.687560 0.560181
vt 0.597027 0.566327
vt 0.603206 0.539414
vt 0.668587 0.853170
vt 0.418347 0.867555
vt 0.419792 0.801279
vt 0.024003 0.483439
vt 0.145796 0.490704
vt 0.147474 0.528450
vt 0.147474 0.528450
vt 0.006980 0.558475
vt 0.024003 0.483439
vt 0.145796 0.490704
vt 0.315626 0.524841
vt 0.317243 0.537344
vt 0.317243 0.537344
vt 0.147474 0.528450
vt 0.145796 0.490704
vt 0.407904 0.514137
vt 0.603206 0.539414
vt 0.597027 0.566327
vt 0.597027 0.566327
vt 0.418070 0.555367
vt 0.407904 0.514137
vt 0.878128 0.300843
vt 0.771161 0.300843
vt 0.771161 0.240147
vt 0.771161 0.240147
vt 0.878128 0.270503
vt 0.878128 0.270503
vt 0.771161 0.240147
vt 0.771161 0.179380
vt 0.771161 0.179380
vt 0.878128 0.209769
vt 0.934210 0.198972
vt 0.948443 0.157637
vt 0.949053 0.254521
vt 0.919423 0.241179
vt 0.934210 0.198972
vt 0.949053 0.254521
vt 0.917581 0.284400
vt 0.934210 0.198972
vt 0.902985 0.211544
vt 0.574849 0.335217
vt 0.596258 0.303943
vt 0.593120 0.407273
vt 0.622380 0.301414
vt 0.593120 0.407273
vt 0.602456 0.429094
vt 0.581250 0.443754
vt 0.575068 0.367032
vt 0.574849 0.335217
vt 0.542405 0.376424
vt 0.532512 0.303339
vt 0.549849 0.438569
vt 0.525039 0.384863
vt 0.520639 0.357078
vt 0.532512 0.303339
vt 0.542405 0.376424
vt 0.615611 0.264124
vt 0.602494 0.239863
vt 0.640579 0.208727
vt 0.640579 0.208727
vt 0.560466 0.210878
vt 0.505839 0.262041
vt 0.456456 0.246411
vt 0.602494 0.239863
vt 0.620144 0.193797
vt 0.640579 0.208727
vt 0.633562 0.160273
vt 0.682764 0.198731
vt 0.682764 0.198731
vt 0.706063 0.142581
vt 0.640579 0.208727
vt 0.724821 0.229820
vt 0.731577 0.200436
vt 0.756008 0.223553
vt 0.724821 0.229820
vt 0.365115 0.359172
vt 0.370226 0.335706
vt 0.417527 0.326090
vt 0.369586 0.338645
vt 0.347204 0.352006
vt 0.327118 0.329129
vt 0.389276 0.295022
vt 0.326052 0.328890
vt 0.325270 0.293875
vt 0.293310 0.318230
vt 0.319228 0.358529
vt 0.286056 0.344494
vt 0.348622 0.353620
vt 0.351686 0.375941
vt 0.222014 0.200686
vt 0.156677 0.224928
vt 0.025314 0.122175
vt 0.169285 0.142978
vt 0.222014 0.200686
vt 0.342016 0.140643
vt 0.169285 0.142978
vt 0.212903 0.289601
vt 0.156677 0.224928
vt 0.342016 0.140643
vt 0.073443 0.779555
vt 0.074802 0.816517
vt 0.025776 0.827952
vt 0.011171 0.775149
vt 0.073443 0.779555
vt 0.124745 0.724536
vt 0.073443 0.779555
vt 0.070676 0.728991
vt 0.906302 0.595914
vt 0.902662 0.523462
vt 0.967275 0.504377
vt 0.935984 0.581988
vt 0.906302 0.595914
vt 0.936149 0.621694
vt 0.913341 0.645580
vt 0.936149 0.621694
vt 0.913341 0.645580
vt 0.906302 0.595914
vt 0.958804 0.033547
vt 0.961208 0.083185
vt 0.913351 0.042176
vt 0.913351 0.042176
vt 0.931456 0.012410
vt 0.961208 0.083185
vt 0.987364 0.104245
vt 0.549849 0.438569
vt 0.542405 0.376424
vt 0.575068 0.367032
vt 0.574849 0.335217
vt 0.542405 0.376424
vt 0.549849 0.438569
vt 0.593120 0.407273
vt 0.669835 0.826518
vt 0.924401 0.807712
vt 0.890556 0.894044
vt 0.668587 0.853170
vt 0.669835 0.826518
vt 0.892435 0.953786
vt 0.419792 0.801279
vt 0.669835 0.826518
vt 0.630479 0.954022
vt 0.418347 0.867555
vt 0.415027 0.967979
vt 0.266226 0.862042
vt 0.267370 0.936441
vt 0.225765 0.922730
vt 0.115001 0.989827
vt 0.069431 0.977406
vt 0.081036 0.921610
vt 0.165857 0.836708
vt 0.115371 0.855495
vt 0.198653 0.802825
vt 0.165857 0.836708
vt 0.136244 0.790124
vt 0.111339 0.813217
vt 0.073443 0.779555
vt 0.125643 0.726775
vt 0.160827 0.747782
vt 0.167840 0.683015
vt 0.289823 0.689506
vt 0.238989 0.815530
vt 0.266226 0.862042
vt 0.419792 0.801279
vt 0.418347 0.867555
vt 0.418347 0.867555
vt 0.266226 0.862042
vt 0.419792 0.801279
vt 0.423091 0.716425
vt 0.669835 0.826518
vt 0.561152 0.714667
vt 0.629027 0.695113
vt 0.924401 0.807712
vt 0.962173 0.729227
vt 0.095622 0.324425
vt 0.146012 0.327083
vt 0.166438 0.353043
vt 0.054614 0.285698
vt 0.071719 0.315612
vt 0.166438 0.353043
vt 0.124807 0.378626
vt 0.146012 0.327083
vt 0.161874 0.287964
vt 0.205508 0.318238
vt 0.126928 0.282701
vt 0.146012 0.327083
vt 0.095622 0.324425
vt 0.071719 0.315612
vt 0.124807 0.378626
vt 0.060552 0.357899
vt 0.023349 0.287802
vt 0.060552 0.357899
vt 0.019022 0.319410
vt 0.788531 0.528133
vt 0.849872 0.532665
vt 0.810054 0.671629
vt 0.810054 0.671629
vt 0.702012 0.609011
vt 0.677834 0.609529
vt 0.687560 0.560181
vt 0.745836 0.518533
vt 0.746809 0.477179
vt 0.597027 0.566327
vt 0.666255 0.641576
vt 0.585495 0.644313
vt 0.418070 0.555367
vt 0.419155 0.622303
vt 0.339139 0.659641
vt 0.317243 0.537344
vt 0.147474 0.528450
vt 0.131383 0.632724
vt 0.006980 0.558475
vt 0.004686 0.624194
vt 0.655772 0.439680
vt 0.741329 0.414401
vt 0.680186 0.327447
vt 0.750740 0.285599
vt 0.783686 0.361817
vt 0.813565 0.417443
vt 0.741329 0.414401
vt 0.803894 0.456341
vt 0.746809 0.477179
vt 0.741329 0.414401
vt 0.840895 0.354359
vt 0.846646 0.407273
vt 0.813565 0.417443
vt 0.846465 0.462778
vt 0.803894 0.456341
vt 0.846646 0.407273
vt 0.891470 0.412422
vt 0.846465 0.462778
vt 0.944309 0.447515
vt 0.892669 0.412705
vt 0.948548 0.379558
vt 0.916151 0.306778
vt 0.846646 0.407273
vt 0.662168 0.449427
vt 0.675279 0.532954
vt 0.644282 0.484245
vt 0.686638 0.559445
vt 0.585028 0.463162
vt 0.642044 0.485650
vt 0.603206 0.539414
vt 0.687560 0.560181
vt 0.405994 0.436231
vt 0.407904 0.514137
vt 0.317243 0.537344
vt 0.315626 0.524841
vt 0.418070 0.555367
vt 0.317243 0.537344
vt 0.315626 0.524841
vt 0.355541 0.456842
vt 0.142901 0.405099
vt 0.145796 0.490704
vt 0.048286 0.404519
vt 0.024003 0.483439
vt 0.878128 0.209769
vt 0.771161 0.179380
vt 0.771161 0.118655
vt 0.878128 0.149005
vt 0.291381 0.379280
vt 0.319228 0.358529
vt 0.350520 0.375314
vt 0.307853 0.394377
vt 0.967539 0.571148
vt 0.975692 0.666300
vt 0.936149 0.621694
vt 0.936034 0.687266
vt 0.913341 0.645580
vt 0.873163 0.509038
vt 0.902662 0.523462
vt 0.906302 0.595914
vt 0.895080 0.614992
vt 0.913341 0.645580
vt 0.636279 0.127039
vt 0.469760 0.159268
vt 0.427472 0.086923
vt 0.558188 0.085554
vt 0.676998 0.063759
vt 0.588831 0.059599
vt 0.427472 0.086923
vt 0.644294 0.034408
vt 0.520576 0.008289
vt 0.505796 0.035013
vt 0.427472 0.086923
vt 0.916434 0.083639
vt 0.913351 0.042176
vt 0.961208 0.083185
vt 0.937448 0.096068
vt 0.902985 0.211544
vt 0.948443 0.157637
vt 0.934210 0.198972
vt 0.902985 0.211544
vt 0.230662 0.119270
vt 0.169285 0.142978
vt 0.025314 0.122175
vt 0.342016 0.140643
vt 0.323878 0.113585
vt 0.354537 0.040584
vt 0.192393 0.075262
vt 0.025314 0.122175
vn -0.762703 -0.15601699999999996 0.627649
vn 0.128961 -0.970189 0.20519100000000007
vn -0.043274 -0.24995399999999995 0.96729
vn -0.043274 -0.24995399999999995 0.96729
vn 0.128961 -0.970189 0.20519100000000007
vn 0.859648 0.288399 0.421701
vn 0.065198 -0.05407199999999994 0.996406
vn 0.065198 -0.05407199999999994 0.996406
vn 0.065198 -0.05407199999999994 0.996406
vn 0.915028 0.403375 -0.0034600000000000247
vn -0.317104 0.948391 -5.807220012450787E-17
vn -0.179165 0.864571 0.46948599999999996
vn 0.162723 0.16507600000000006 0.972765
vn 0.740874 0.31443200000000004 0.593496
vn -0.259151 0.855537 0.4482169999999999
vn 0.025045 0.33344200000000007 0.942438
vn -0.459116 -0.12626199999999996 0.879358
vn -0.337499 0.894211 0.29407799999999995
vn -0.397118 0.91393 0.08384499999999995
vn -0.395333 0.913832 -0.09286200000000006
vn -0.381265 0.919914 -0.09162200000000005
vn 0.6461 -0.03854999999999995 0.762279
vn 0.61375 -0.04370399999999995 0.78829
vn -0.690532 -0.17154299999999995 0.702665
vn -0.646926 0.09501300000000004 0.756611
vn -0.500795 -0.34951199999999993 0.791862
vn 0.331545 0.45527100000000004 0.826321
vn 0.437257 -0.41481199999999996 0.797958
vn 0.02231 -0.622149 0.782581
vn -0.142919 0.679144 0.719957
vn -0.142919 0.679144 0.719957
vn -0.339509 0.573134 0.745823
vn 0.437257 -0.41481199999999996 0.797958
vn 0.02231 -0.622149 0.782581
vn -0.322546 -0.787007 0.525913
vn 0.200456 0.30129300000000003 0.932223
vn 0.200456 0.30129300000000003 0.932223
vn -0.142919 0.679144 0.719957
vn 0.02231 -0.622149 0.782581
vn -0.298497 -0.34156699999999995 0.891197
vn -0.690532 -0.17154299999999995 0.702665
vn 0.61375 -0.04370399999999995 0.78829
vn 0.61375 -0.04370399999999995 0.78829
vn 0.736076 0.46337800000000007 0.4934299999999999
vn -0.298497 -0.34156699999999995 0.891197
vn -0.618916 -0.785455 0.002028000000000048
vn -0.98895 0.142915 0.039402999999999994
vn 0.370051 -0.92826 -0.03737299999999995
vn 0.370051 -0.92826 -0.03737299999999995
vn 0.988961 -0.142844 -0.039402999999999994
vn 0.988961 -0.142844 -0.039402999999999994
vn 0.370051 -0.92826 -0.03737299999999995
vn 0.618947 0.78543 -0.002032000000000048
vn 0.618947 0.78543 -0.002032000000000048
vn -0.369948 0.928301 0.037368999999999944
vn 0.274415 0.961551 0.01075699999999994
vn 0.146425 -0.015941999999999942 0.989093
vn 0.982645 -0.183409 -0.02773699999999999
vn 0.855485 0.46522 -0.22741100000000003
vn 0.274415 0.961551 0.01075699999999994
vn 0.982645 -0.183409 -0.02773699999999999
vn 0.914464 -0.323892 -0.24258899999999997
vn 0.274415 0.961551 0.01075699999999994
vn -0.348423 0.89385 -0.28219400000000006
vn -0.865326 0.498365 -0.05331500000000003
vn -0.498981 -0.864188 -0.06477899999999995
vn -0.589334 -0.772302 0.23714000000000005
vn 0.854759 -0.50797 -0.10655699999999997
vn -0.589334 -0.772302 0.23714000000000005
vn 0.7445 -0.2941579999999999 0.599325
vn -0.20388 0.40053500000000003 0.893311
vn -0.749544 0.574733 0.32842999999999994
vn -0.865326 0.498365 -0.05331500000000003
vn 0.383022 0.907458 0.17266799999999993
vn 0.497543 0.861995 -0.09703200000000005
vn -0.20388 0.40053500000000003 0.893311
vn 0.7445 -0.2941579999999999 0.599325
vn 0.854759 -0.50797 -0.10655699999999997
vn 0.497543 0.861995 -0.09703200000000005
vn 0.383022 0.907458 0.17266799999999993
vn -0.469108 -0.07144799999999994 0.880246
vn 0.662822 -0.588491 0.46297400000000005
vn 0.629233 0.683586 0.36983199999999994
vn 0.629233 0.683586 0.36983199999999994
vn 0.852064 -0.521106 -0.04934299999999996
vn -0.407338 -0.866224 0.28936300000000004
vn -0.788504 -0.613656 -0.04108999999999997
vn 0.662822 -0.588491 0.46297400000000005
vn 0.093986 0.99052 -0.10018400000000005
vn 0.629233 0.683586 0.36983199999999994
vn -0.861986 0.497558 -0.09704000000000003
vn -0.897913 0.422412 0.12377299999999997
vn -0.897913 0.422412 0.12377299999999997
vn -0.788504 -0.613656 -0.04108999999999997
vn 0.629233 0.683586 0.36983199999999994
vn -0.469108 -0.07144799999999994 0.880246
vn -0.407338 -0.866224 0.28936300000000004
vn 0.662822 -0.588491 0.46297400000000005
vn -0.469108 -0.07144799999999994 0.880246
vn 0.067882 0.786374 0.614009
vn 0.563884 -0.30002599999999996 0.769428
vn 0.581013 -0.725094 0.36968000000000006
vn 0.563884 -0.30002599999999996 0.769428
vn -0.086472 0.05533900000000006 0.994716
vn -0.319321 -0.761861 0.563562
vn 0.581013 -0.725094 0.36968000000000006
vn -0.319321 -0.761861 0.563562
vn -0.794324 -0.593485 0.12970900000000002
vn -0.794324 -0.593485 0.12970900000000002
vn -0.826663 0.334729 0.452311
vn -0.795331 0.551173 0.25230199999999997
vn -0.086472 0.05533900000000006 0.994716
vn 0.067882 0.786374 0.614009
vn -0.927932 0.07884200000000002 0.364315
vn -0.983616 0.10740400000000001 0.144793
vn -0.365254 -0.917862 0.15530400000000005
vn -0.352075 -0.842435 0.40785600000000005
vn -0.927932 0.07884200000000002 0.364315
vn 0.162723 0.16507600000000006 0.972765
vn -0.352075 -0.842435 0.40785600000000005
vn -0.259151 0.855537 0.4482169999999999
vn -0.983616 0.10740400000000001 0.144793
vn 0.162723 0.16507600000000006 0.972765
vn 0.303029 -0.853293 0.4243410000000001
vn 0.205594 -0.971954 -0.11417999999999995
vn 0.134199 -0.986741 0.09128200000000006
vn -0.02682 -0.509094 0.860293
vn 0.303029 -0.853293 0.4243410000000001
vn 0.025045 0.33344200000000007 0.942438
vn 0.303029 -0.853293 0.4243410000000001
vn -0.459116 -0.12626199999999996 0.879358
vn 0.529421 -0.709943 0.46442900000000004
vn 0.507397 -0.861712 5.2764642129343204E-17
vn 0.915028 0.403375 -0.0034600000000000247
vn 0.864273 0.386599 0.321829
vn 0.529421 -0.709943 0.46442900000000004
vn -0.179165 0.864571 0.46948599999999996
vn 0.228289 0.10307700000000006 0.968121
vn -0.179165 0.864571 0.46948599999999996
vn 0.228289 0.10307700000000006 0.968121
vn 0.529421 -0.709943 0.46442900000000004
vn 0.982645 -0.183409 -0.02773699999999999
vn -0.248207 -0.968379 0.02519100000000006
vn 0.348886 -0.890126 -0.29317999999999994
vn 0.348886 -0.890126 -0.29317999999999994
vn 0.914464 -0.323892 -0.24258899999999997
vn -0.248207 -0.968379 0.02519100000000006
vn 0.146425 -0.015941999999999942 0.989093
vn -0.20388 0.40053500000000003 0.893311
vn 0.383022 0.907458 0.17266799999999993
vn -0.749544 0.574733 0.32842999999999994
vn -0.865326 0.498365 -0.05331500000000003
vn 0.383022 0.907458 0.17266799999999993
vn -0.20388 0.40053500000000003 0.893311
vn -0.589334 -0.772302 0.23714000000000005
vn 0.732164 0.17375900000000002 0.658592
vn 0.437257 -0.41481199999999996 0.797958
vn -0.339509 0.573134 0.745823
vn -0.646926 0.09501300000000004 0.756611
vn 0.732164 0.17375900000000002 0.658592
vn -0.732054 0.645065 0.21906099999999998
vn 0.331545 0.45527100000000004 0.826321
vn 0.732164 0.17375900000000002 0.658592
vn -0.975497 -0.10059199999999999 0.195668
vn -0.500795 -0.34951199999999993 0.791862
vn -0.668621 -0.703035 0.24225600000000005
vn -0.651992 -0.36778099999999997 0.663056
vn -0.600841 -0.795944 0.07391100000000006
vn -0.241647 -0.881042 0.4066600000000001
vn 0.035867 -0.988376 -0.14773999999999995
vn 0.205594 -0.971954 -0.11417999999999995
vn 0.303029 -0.853293 0.4243410000000001
vn -0.193415 -0.14763399999999993 0.969946
vn 0.592556 -0.010554999999999952 0.80546
vn -0.051911 0.68169 0.729798
vn -0.193415 -0.14763399999999993 0.969946
vn 0.592556 -0.010554999999999952 0.80546
vn -0.241647 -0.881042 0.4066600000000001
vn 0.303029 -0.853293 0.4243410000000001
vn 0.025045 0.33344200000000007 0.942438
vn 0.526277 0.788285 0.3188099999999999
vn -0.337499 0.894211 0.29407799999999995
vn 0.191425 0.964742 0.18063399999999993
vn -0.067391 0.504404 0.860834
vn -0.651992 -0.36778099999999997 0.663056
vn 0.331545 0.45527100000000004 0.826321
vn -0.500795 -0.34951199999999993 0.791862
vn -0.500795 -0.34951199999999993 0.791862
vn -0.651992 -0.36778099999999997 0.663056
vn 0.331545 0.45527100000000004 0.826321
vn 0.749571 0.661742 -0.01555200000000004
vn 0.732164 0.17375900000000002 0.658592
vn 0.931775 0.361762 -0.03039000000000002
vn 0.962413 -0.239052 0.12890200000000002
vn 0.437257 -0.41481199999999996 0.797958
vn 0.617833 -0.773249 0.14272300000000004
vn -0.157782 -0.894114 0.41912400000000005
vn -0.704821 -0.08185399999999995 0.704647
vn -1 -5E-06 3.061616997868383E-22
vn -3E-06 -0.11538399999999994 0.993321
vn 0.761161 -0.32488399999999995 0.561324
vn -1 -5E-06 3.061616997868383E-22
vn 0.248319 -0.968678 5.931442060522299E-17
vn -0.704821 -0.08185399999999995 0.704647
vn -3E-06 0.905165 0.42506099999999997
vn -3E-06 1 -6.123233995736766E-17
vn -3E-06 -0.11538399999999994 0.993321
vn -0.704821 -0.08185399999999995 0.704647
vn -0.157782 -0.894114 0.41912400000000005
vn 0.761161 -0.32488399999999995 0.561324
vn 0.248319 -0.968678 5.931442060522299E-17
vn 0.917525 0.397679 -2.4350815721906014E-17
vn -3E-06 0.905165 0.42506099999999997
vn 0.917525 0.397679 -2.4350815721906014E-17
vn -3E-06 1 -6.123233995736766E-17
vn 0.317244 -0.25867099999999993 0.912384
vn -0.324877 -0.65344 0.683718
vn 0.678048 -0.658776 0.3259830000000001
vn 0.678048 -0.658776 0.3259830000000001
vn 0.91249 -0.251436 0.322711
vn 0.989899 -0.132362 0.050808000000000006
vn 0.6461 -0.03854999999999995 0.762279
vn 0.567606 0.27879600000000004 0.774659
vn -0.286763 0.513504 0.808752
vn 0.61375 -0.04370399999999995 0.78829
vn 0.989899 -0.132362 0.050808000000000006
vn 0.982908 0.167142 0.07717699999999998
vn 0.736076 0.46337800000000007 0.4934299999999999
vn 0.806755 0.590229 0.027863999999999965
vn 0.408318 0.912427 0.027447999999999945
vn 0.200456 0.30129300000000003 0.932223
vn -0.142919 0.679144 0.719957
vn -0.116745 0.987624 0.10473799999999994
vn -0.339509 0.573134 0.745823
vn -0.732054 0.645065 0.21906099999999998
vn -0.397118 0.91393 0.08384499999999995
vn -0.460956 0.35097200000000006 0.815069
vn -0.395333 0.913832 -0.09286200000000006
vn -0.337499 0.894211 0.29407799999999995
vn -0.459116 -0.12626199999999996 0.879358
vn -0.335162 -0.27566299999999994 0.900931
vn -0.460956 0.35097200000000006 0.815069
vn 0.317244 -0.25867099999999993 0.912384
vn -0.286763 0.513504 0.808752
vn -0.460956 0.35097200000000006 0.815069
vn -0.02682 -0.509094 0.860293
vn -0.300082 -0.29841799999999996 0.906034
vn -0.335162 -0.27566299999999994 0.900931
vn -0.324877 -0.65344 0.683718
vn 0.317244 -0.25867099999999993 0.912384
vn -0.300082 -0.29841799999999996 0.906034
vn 0.127716 -0.829448 0.543788
vn -0.324877 -0.65344 0.683718
vn 0.678048 -0.658776 0.3259830000000001
vn 0.127716 -0.829448 0.543788
vn 0.075148 -0.970842 0.22763600000000006
vn 0.134199 -0.986741 0.09128200000000006
vn -0.300082 -0.29841799999999996 0.906034
vn -0.397118 0.91393 0.08384499999999995
vn -0.564002 0.604801 0.562244
vn -0.850978 0.502736 0.15196399999999996
vn 0.6461 -0.03854999999999995 0.762279
vn -0.990284 -0.017072999999999994 0.138009
vn -0.850978 0.502736 0.15196399999999996
vn -0.690532 -0.17154299999999995 0.702665
vn 0.6461 -0.03854999999999995 0.762279
vn -0.799598 -0.582513 0.14602000000000004
vn -0.298497 -0.34156699999999995 0.891197
vn 0.200456 0.30129300000000003 0.932223
vn -0.322546 -0.787007 0.525913
vn 0.736076 0.46337800000000007 0.4934299999999999
vn 0.200456 0.30129300000000003 0.932223
vn -0.322546 -0.787007 0.525913
vn -0.41378 -0.900531 0.13352700000000006
vn 0.014097 -0.988839 0.14831900000000006
vn 0.02231 -0.622149 0.782581
vn 0.617833 -0.773249 0.14272300000000004
vn 0.437257 -0.41481199999999996 0.797958
vn -0.369948 0.928301 0.037368999999999944
vn 0.618947 0.78543 -0.002032000000000048
vn -0.98895 0.142915 0.039402999999999994
vn -0.618916 -0.785455 0.002028000000000048
vn -0.795331 0.551173 0.25230199999999997
vn -0.826663 0.334729 0.452311
vn 0.067882 0.786374 0.614009
vn -0.678597 0.513863 0.524835
vn -0.317104 0.948391 -5.807220012450787E-17
vn -0.906311 -0.422612 2.587752165406306E-17
vn -0.179165 0.864571 0.46948599999999996
vn -0.741164 -0.34560399999999997 0.575529
vn 0.228289 0.10307700000000006 0.968121
vn -0.906311 -0.422612 2.587752165406306E-17
vn 0.507397 -0.861712 5.2764642129343204E-17
vn 0.529421 -0.709943 0.46442900000000004
vn -0.741164 -0.34560399999999997 0.575529
vn 0.228289 0.10307700000000006 0.968121
vn 0.859648 0.288399 0.421701
vn 0.688857 0.710101 0.14571599999999996
vn 0.190614 0.97394 0.12291399999999994
vn 0.149879 0.764096 0.62745
vn -0.043274 -0.24995399999999995 0.96729
vn -0.628881 0.606677 0.4862639999999999
vn 0.190614 0.97394 0.12291399999999994
vn -0.762703 -0.15601699999999996 0.627649
vn -0.853833 0.391751 0.342784
vn -0.645081 0.722826 0.24777699999999994
vn 0.190614 0.97394 0.12291399999999994
vn -0.936697 -0.20020500000000002 -0.287257
vn 0.348886 -0.890126 -0.29317999999999994
vn -0.248207 -0.968379 0.02519100000000006
vn -0.965781 0.255592 0.04404699999999999
vn -0.348423 0.89385 -0.28219400000000006
vn 0.146425 -0.015941999999999942 0.989093
vn 0.274415 0.961551 0.01075699999999994
vn -0.348423 0.89385 -0.28219400000000006
vn 0.733169 -0.548351 0.40221100000000004
vn -0.352075 -0.842435 0.40785600000000005
vn -0.365254 -0.917862 0.15530400000000005
vn 0.162723 0.16507600000000006 0.972765
vn 0.740874 0.31443200000000004 0.593496
vn 0.909849 -0.10414799999999998 0.401657
vn 0.691793 -0.671039 0.2666990000000001
vn -0.365254 -0.917862 0.15530400000000005
g 01
f 1/1/1 2/2/2 3/3/3
f 4/4/4 5/5/5 6/6/6
f 7/7/7 8/8/8 9/9/9
f 10/10/10 11/11/11 12/12/12
f 13/13/13 14/14/14 15/15/15
f 16/16/16 17/17/17 18/18/18
f 19/19/19 20/20/20 21/21/21
f 22/22/22 23/23/23 24/24/24
f 25/25/25 26/26/26 27/27/27
f 28/28/28 29/29/29 30/30/30
f 31/31/31 32/32/32 33/33/33
f 34/34/34 35/35/35 36/36/36
f 37/37/37 38/38/38 39/39/39
f 40/40/40 41/41/41 42/42/42
f 43/43/43 44/44/44 45/45/45
f 46/46/46 47/47/47 48/48/48
f 49/49/49 50/50/50 46/46/46
f 51/51/51 52/52/52 53/53/53
f 54/54/54 55/55/55 51/51/51
f 56/56/56 57/57/57 58/58/58
f 59/59/59 60/60/60 58/58/58
f 61/61/61 62/62/62 59/59/59
f 63/63/63 59/59/59 64/64/64
f 65/65/65 66/66/66 67/67/67
f 66/66/66 68/68/68 69/69/69
f 70/70/70 69/69/69 68/68/68
f 70/70/70 71/71/71 69/69/69
f 69/69/69 72/72/72 73/73/73
f 74/74/74 75/75/75 73/73/73
f 76/76/76 77/77/77 74/74/74
f 74/74/74 77/77/77 78/78/78
f 78/78/78 79/79/79 80/80/80
f 81/81/81 82/82/82 83/83/83
f 84/84/84 82/82/82 85/85/85
f 86/86/86 87/87/87 85/85/85
f 85/85/85 88/88/88 86/86/86
f 85/85/85 89/89/89 90/90/90
f 89/89/89 91/91/91 92/92/92
f 93/93/93 91/91/91 94/94/94
f 93/93/93 95/95/95 89/89/89
f 96/96/96 95/95/95 93/93/93
f 94/94/94 97/97/97 93/93/93
f 96/96/96 93/93/93 97/97/97
f 97/97/97 98/98/98 99/99/99
f 100/100/100 101/101/101 102/102/102
f 103/103/103 100/100/100 104/104/104
f 104/104/104 105/105/105 103/103/103
f 106/106/106 103/103/103 107/107/107
f 107/107/107 108/108/108 106/106/106
f 109/109/109 105/105/105 110/110/110
f 110/110/110 111/111/111 109/109/109
f 112/112/112 110/110/110 105/105/105
f 113/113/113 110/110/110 112/112/112
f 114/114/114 115/115/115 116/116/116
f 116/116/116 117/117/117 118/118/118
f 119/119/119 118/118/118 120/120/120
f 121/121/121 122/122/122 118/118/118
f 123/123/123 121/121/121 118/118/118
f 124/124/124 125/125/125 126/126/126
f 126/126/126 127/127/127 128/128/128
f 129/129/129 130/130/130 127/127/127
f 127/127/127 131/131/131 129/129/129
f 132/132/132 133/133/133 134/134/134
f 134/134/134 135/135/135 136/136/136
f 137/137/137 135/135/135 134/134/134
f 138/138/138 135/135/135 139/139/139
f 140/140/140 141/141/141 135/135/135
f 142/142/142 143/143/143 144/144/144
f 145/145/145 146/146/146 142/142/142
f 147/147/147 142/142/142 148/148/148
f 149/149/149 150/150/150 151/151/151
f 152/152/152 151/151/151 153/153/153
f 154/154/154 151/151/151 155/155/155
f 156/156/156 157/157/157 158/158/158
f 158/158/158 159/159/159 160/160/160
f 159/159/159 158/158/158 161/161/161
f 162/162/162 163/163/163 159/159/159
f 161/161/161 164/164/164 159/159/159
f 165/165/165 159/159/159 164/164/164
f 164/164/164 166/166/166 165/165/165
f 167/167/167 165/165/165 166/166/166
f 166/166/166 168/168/168 167/167/167
f 167/167/167 168/168/168 169/169/169
f 168/168/168 170/170/170 169/169/169
f 170/170/170 171/171/171 172/172/172
f 172/172/172 169/169/169 170/170/170
f 173/173/173 167/167/167 169/169/169
f 173/173/173 169/169/169 174/174/174
f 167/167/167 173/173/173 175/175/175
f 176/176/176 177/177/177 175/175/175
f 177/177/177 178/178/178 179/179/179
f 179/179/179 180/180/180 177/177/177
f 180/180/180 181/181/181 177/177/177
f 175/175/175 177/177/177 181/181/181
f 180/180/180 182/182/182 181/181/181
f 183/183/183 181/181/181 182/182/182
f 183/183/183 175/175/175 181/181/181
f 175/175/175 184/184/184 185/185/185
f 183/183/183 184/184/184 175/175/175
f 184/184/184 186/186/186 187/187/187
f 188/188/188 189/189/189 184/184/184
f 190/190/190 184/184/184 183/183/183
f 183/183/183 191/191/191 190/190/190
f 192/192/192 190/190/190 191/191/191
f 191/191/191 193/193/193 192/192/192
f 192/192/192 193/193/193 194/194/194
f 195/195/195 192/192/192 194/194/194
f 194/194/194 196/196/196 195/195/195
f 197/197/197 198/198/198 199/199/199
f 200/200/200 197/197/197 201/201/201
f 202/202/202 203/203/203 197/197/197
f 202/202/202 204/204/204 205/205/205
f 205/205/205 206/206/206 202/202/202
f 207/207/207 205/205/205 208/208/208
f 207/207/207 208/208/208 209/209/209
f 210/210/210 197/197/197 211/211/211
f 211/211/211 212/212/212 210/210/210
f 213/213/213 200/200/200 210/210/210
f 210/210/210 214/214/214 213/213/213
f 215/215/215 213/213/213 214/214/214
f 216/216/216 217/217/217 218/218/218
f 219/219/219 220/220/220 216/216/216
f 220/220/220 221/221/221 222/222/222
f 220/220/220 223/223/223 216/216/216
f 222/222/222 223/223/223 220/220/220
f 216/216/216 223/223/223 224/224/224
f 225/225/225 222/222/222 226/226/226
f 226/226/226 227/227/227 225/225/225
f 228/228/228 225/225/225 227/227/227
f 227/227/227 229/229/229 228/228/228
f 228/228/228 229/229/229 230/230/230
f 230/230/230 231/231/231 228/228/228
f 232/232/232 231/231/231 230/230/230
f 230/230/230 233/233/233 232/232/232
f 234/234/234 232/232/232 233/233/233
f 233/233/233 235/235/235 234/234/234
f 236/236/236 237/237/237 224/224/224
f 237/237/237 238/238/238 239/239/239
f 239/239/239 240/240/240 237/237/237
f 240/240/240 241/241/241 242/242/242
f 243/243/243 224/224/224 241/241/241
f 241/241/241 244/244/244 245/245/245
f 241/241/241 240/240/240 246/246/246
f 246/246/246 247/247/247 248/248/248
f 249/249/249 250/250/250 241/241/241
f 241/241/241 251/251/251 249/249/249
f 252/252/252 249/249/249 251/251/251
f 253/253/253 252/252/252 254/254/254
f 254/254/254 255/255/255 256/256/256
f 256/256/256 255/255/255 246/246/246
f 246/246/246 257/257/257 256/256/256
f 255/255/255 258/258/258 246/246/246
f 259/259/259 224/224/224 260/260/260
f 260/260/260 261/261/261 259/259/259
f 260/260/260 224/224/224 223/223/223
f 223/223/223 262/262/262 260/260/260
f 263/263/263 264/264/264 260/260/260
f 260/260/260 265/265/265 263/263/263
f 265/265/265 260/260/260 266/266/266
f 267/267/267 263/263/263 265/265/265
f 265/265/265 268/268/268 267/267/267
f 269/269/269 270/270/270 268/268/268
f 268/268/268 271/271/271 272/272/272
f 267/267/267 268/268/268 273/273/273
f 273/273/273 274/274/274 267/267/267
f 275/275/275 274/274/274 273/273/273
f 273/273/273 276/276/276 275/275/275
f 277/277/277 275/275/275 276/276/276
f 276/276/276 278/278/278 277/277/277
f 279/279/279 280/280/280 281/281/281
f 281/281/281 282/282/282 279/279/279
f 283/283/283 284/284/284 285/285/285
f 285/285/285 286/286/286 283/283/283
f 287/287/287 288/288/288 289/289/289
f 289/289/289 288/288/288 290/290/290
f 290/290/290 291/291/291 289/289/289
f 292/292/292 293/293/293 294/294/294
f 294/294/294 295/295/295 292/292/292
f 296/296/296 295/295/295 294/294/294
f 297/297/297 298/298/298 299/299/299
f 299/299/299 300/300/300 297/297/297
f 301/301/301 297/297/297 300/300/300
f 301/301/301 300/300/300 302/302/302
f 302/302/302 300/300/300 303/303/303
f 302/302/302 304/304/304 301/301/301
f 305/305/305 304/304/304 302/302/302
f 302/302/302 306/306/306 305/305/305
f 307/307/307 306/306/306 302/302/302
f 308/308/308 309/309/309 310/310/310
f 310/310/310 311/311/311 308/308/308
f 312/312/312 308/308/308 311/311/311
f 311/311/311 310/310/310 313/313/313
f 311/311/311 313/313/313 314/314/314
f 311/311/311 314/314/314 315/315/315
f 316/316/316 317/317/317 318/318/318
f 319/319/319 317/317/317 316/316/316
f 316/316/316 320/320/320 319/319/319
f 321/321/321 320/320/320 316/316/316
f 316/316/316 322/322/322 321/321/321
f 323/323/323 322/322/322 316/316/316
