v -0.440343 -0.201211 0.07959000000000001
v -0.12 -0.34 0.07959000000000002
v 0.12 -0.34 0.07959000000000002
v 0.494481 -0.05081299999999999 0.07959
v -0.440343 0.228849 0.07958999999999998
v 0.373937 0.318839 0.07958999999999998
v -0.12 0.513273 0.07958999999999997
v 0.12 0.451769 0.07958999999999997
vt 0.000000 0.333333
vt 0.000000 0.000000
vt 1.000000 0.000000
vt 1.000000 0.333333
vt 0.000000 0.666667
vt 1.000000 0.666667
vt 0.000000 1.000000
vt 1.000000 1.000000
vn 0 6.123233995736766E-17 1
vn 0 6.123233995736766E-17 1
vn 0 6.123233995736766E-17 1
vn 0 6.123233995736766E-17 1
vn 0 6.123233995736766E-17 1
vn 0 6.123233995736766E-17 1
vn 0 6.123233995736766E-17 1
vn 0 6.123233995736766E-17 1
g Default Standard
f 1/1/1 2/2/2 3/3/3
f 3/3/3 4/4/4 1/1/1
f 5/5/5 1/1/1 4/4/4
f 4/4/4 6/6/6 5/5/5
f 7/7/7 5/5/5 6/6/6
f 6/6/6 8/8/8 7/7/7
