v 0.609129 1.185489 0.2409129999999999
v 0.607479 1.432644 0.2409129999999999
v 0.856283 1.187138 0.2409129999999999
v 0.854635 1.434294 0.2409129999999999
v 0.607479 1.432644 -0.006248000000000088
v 0.854635 1.434294 -0.006248000000000088
v 0.607479 1.432644 0.2409129999999999
v 0.854635 1.434294 0.2409129999999999
v 0.609129 1.185489 -0.006248000000000073
v 0.607479 1.432644 -0.006248000000000088
v 0.856283 1.187138 -0.006248000000000073
v 0.854635 1.434294 -0.006248000000000088
v 0.609129 1.185489 0.2409129999999999
v 0.607479 1.432644 0.2409129999999999
v 0.856283 1.187138 0.2409129999999999
v 0.854635 1.434294 0.2409129999999999
v -1.365089 -1.318777 0.25927000000000006
v -1.426089 -1.191873 0.25070300000000006
v -1.333531 -1.175887 0.25347900000000007
v -1.393036 -1.240512 0.31446900000000005
v -1.274616 -1.155287 0.014212000000000072
v -1.424877 -1.181801 -0.00027299999999992765
v -1.344789 -1.375582 0.004892000000000084
v -1.452168 -1.278109 -0.0038539999999999217
v -1.444822 -1.263021 0.25067800000000007
v 1.116762 -1.27681 7.81820639809666E-17
v 1.022719 -1.16479 7.132281725894228E-17
v 1.134748 -1.070839 6.556997768760763E-17
v 1.228801 -1.182855 7.242897948027212E-17
v 1.115234 -1.274043 0.2916230000000001
v 1.021016 -1.162313 0.2916230000000001
v 1.132831 -1.069017 0.2916230000000001
v 1.227149 -1.180696 0.2916230000000001
v 0.363039 1.805831 -1.105752576975532E-16
v 0.268996 1.917852 -1.1743456565191747E-16
v 0.381025 2.011803 -1.2318740522325213E-16
v 0.475078 1.899787 -1.1632840343058763E-16
v 0.361511 1.808598 0.2916229999999999
v 0.267293 1.920329 0.2916229999999999
v 0.379108 2.013625 0.2916229999999999
v 0.473426 1.901946 0.2916229999999999
v 1.368345 -1.106644 -0.007674999999999933
v 1.475641 -1.218831 -0.007674999999999926
v 1.363089 -1.324968 -0.007674999999999919
v 1.255628 -1.212497 -0.007674999999999926
v 1.36786 -1.105936 0.26556900000000006
v 1.475165 -1.218269 0.26556900000000006
v 1.362474 -1.324563 0.26556900000000006
v 1.255161 -1.212083 0.26556900000000006
v -1.18623 1.335815 0.22372099999999992
v -1.008423 1.355937 0.22372099999999992
v -0.974954 1.062541 0.22372099999999995
v -1.153433 1.042073 0.22372099999999995
v -1.18623 1.335815 -0.00043600000000008183
v -1.153433 1.042073 -0.00043600000000006383
v -0.974954 1.062541 -0.0004360000000000651
v -1.008423 1.355937 -0.0004360000000000831
v 1.445744 1.417171 0.18802999999999992
v 1.440222 1.077938 0.18797099999999994
v 1.100194 1.081757 0.18827399999999994
v 1.102248 1.423124 0.18822899999999992
v 1.438282 1.419848 0.002899999999999913
v 1.434196 1.080156 0.002889999999999934
v 1.089095 1.086394 0.002928999999999934
v 1.091887 1.426871 0.002924999999999913
v -0.858847 1.559331 0.18802999999999992
v -0.946485 1.357424 0.18797099999999992
v -1.260767 1.487239 0.1882739999999999
v -1.175825 1.69173 0.1882289999999999
v -0.865113 1.563739 0.002899999999999904
v -0.951532 1.361018 0.002889999999999917
v -1.269929 1.49419 0.0029289999999999087
v -1.184518 1.697868 0.002924999999999896
v 0.653 -1.391227 0.12835600000000008
v 0.65037 -1.024431 0.12835600000000005
v 0.830023 -1.023563 0.12835600000000005
v 0.831938 -1.390094 0.12835600000000008
v 0.653 -1.391227 -0.00043599999999991486
v 0.65037 -1.024431 -0.0004359999999999373
v 0.830023 -1.023563 -0.00043599999999993736
v 0.831938 -1.390094 -0.0004359999999999149
v -1.399183 1.047212 0.12835599999999994
v -1.427745 1.412904 0.12835599999999991
v -1.248603 1.426474 0.12835599999999991
v -1.220773 1.060996 0.12835599999999994
v -1.399183 1.047212 -0.00043600000000006416
v -1.427745 1.412904 -0.00043600000000008655
v -1.248603 1.426474 -0.00043600000000008736
v -1.220773 1.060996 -0.00043600000000006497
v -1.346758 -1.403668 0.16684100000000007
v -1.392303 -1.605051 0.1668430000000001
v -1.722715 -1.538657 0.16683900000000007
v -1.668993 -1.327946 0.1668060000000001
v -1.349189 -1.406087 0.0032190000000000864
v -1.391576 -1.606406 0.0032190000000000985
v -1.720214 -1.536533 0.003219000000000094
v -1.668862 -1.326643 0.003219000000000081
v 0.694811 1.972012 0.2089819999999999
v 0.738351 1.763914 0.2089819999999999
v 0.530253 1.720374 0.2089819999999999
v 0.486713 1.928472 0.2089819999999999
v 0.694811 1.972012 -0.0036220000000001203
v 0.738351 1.763914 -0.0036220000000001078
v 0.530253 1.720374 -0.003622000000000105
v 0.486713 1.928472 -0.0036220000000001177
v 1.292894 1.431908 0.2216779999999999
v 1.208831 1.078582 0.22126899999999994
v 1.141395 1.097117 0.24372399999999994
v 1.074525 1.11575 0.22287999999999994
v 1.144378 1.096135 0.20043199999999994
v 1.174519 1.100522 0.22352199999999994
v 1.160437 1.041561 0.22365999999999994
v 1.116511 1.116444 0.22368499999999994
v 1.102615 1.058177 0.22382399999999994
v 1.157214 1.463897 0.2216809999999999
v 1.22509 1.448033 0.2000659999999999
v 1.225075 1.447983 0.24328799999999992
v 1.20419 1.504158 0.2236579999999999
v 1.192232 1.44473 0.2235199999999999
v 1.262572 1.489626 0.2238219999999999
v 1.250774 1.430898 0.2236829999999999
v 1.160437 1.041561 0.22365999999999994
v 1.102615 1.058177 0.22382399999999994
v 1.116511 1.116444 0.22368499999999994
v 1.174519 1.100522 0.22352199999999994
v 1.20419 1.504158 0.2236579999999999
v 1.262572 1.489626 0.2238219999999999
v 1.250774 1.430898 0.2236829999999999
v 1.192232 1.44473 0.2235199999999999
v 1.440108 1.452362 0.2216779999999999
v 1.437331 1.089185 0.22126899999999994
v 1.367456 1.092142 0.24372399999999994
v 1.298112 1.095321 0.22287999999999994
v 1.370584 1.091853 0.20043199999999994
v 1.398976 1.102881 0.22352199999999994
v 1.39846 1.042264 0.22365999999999994
v 1.338875 1.105404 0.22368499999999994
v 1.338385 1.045505 0.22382399999999994
v 1.300711 1.453145 0.2216809999999999
v 1.370415 1.452889 0.2000659999999999
v 1.370412 1.452837 0.24328799999999992
v 1.337474 1.502906 0.2236579999999999
v 1.339133 1.44231 0.2235199999999999
v 1.397627 1.501821 0.2238219999999999
v 1.399285 1.441943 0.2236829999999999
v 1.39846 1.042264 0.22365999999999994
v 1.338385 1.045505 0.22382399999999994
v 1.338875 1.105404 0.22368499999999994
v 1.398976 1.102881 0.22352199999999994
v 1.337474 1.502906 0.2236579999999999
v 1.397627 1.501821 0.2238219999999999
v 1.399285 1.441943 0.2236829999999999
v 1.339133 1.44231 0.2235199999999999
v -0.599619 -1.813597 0.15915000000000012
v -0.591917 -1.97406 0.15915000000000012
v -0.886875 -1.988229 0.15915000000000012
v -0.894875 -1.827145 0.15915000000000012
v -0.599619 -1.813597 -7.399999999988895E-05
v -0.894875 -1.827145 -7.399999999988812E-05
v -0.886875 -1.988229 -7.399999999987825E-05
v -0.591917 -1.97406 -7.399999999987912E-05
v -0.246224 -1.851684 0.1880300000000001
v -0.412832 -1.995518 0.1879710000000001
v -0.639585 -1.742125 0.1882740000000001
v -0.474283 -1.594793 0.18822900000000012
v -0.249954 -1.844993 0.0029000000000001126
v -0.415819 -1.990089 0.002890000000000122
v -0.64482 -1.731885 0.0029290000000001064
v -0.479449 -1.585489 0.0029250000000000972
v 0.609129 1.185489 0.2409129999999999
v 0.856283 1.187138 0.2409129999999999
v 0.856283 1.187138 -0.006248000000000073
v 0.609129 1.185489 -0.006248000000000073
v -1.426089 -1.191873 0.25070300000000006
v -1.424877 -1.181801 -0.00027299999999992765
v 1.227149 -1.180696 0.2916230000000001
v 1.228801 -1.182855 7.242897948027212E-17
v 1.021016 -1.162313 0.2916230000000001
v 1.132831 -1.069017 0.2916230000000001
v 1.227149 -1.180696 0.2916230000000001
v 1.115234 -1.274043 0.2916230000000001
v 0.473426 1.901946 0.2916229999999999
v 0.475078 1.899787 -1.1632840343058763E-16
v 0.267293 1.920329 0.2916229999999999
v 0.379108 2.013625 0.2916229999999999
v 0.473426 1.901946 0.2916229999999999
v 0.361511 1.808598 0.2916229999999999
v 1.255628 -1.212497 -0.007674999999999926
v 1.255161 -1.212083 0.26556900000000006
v 1.362474 -1.324563 0.26556900000000006
v 1.255161 -1.212083 0.26556900000000006
v 1.475165 -1.218269 0.26556900000000006
v 1.36786 -1.105936 0.26556900000000006
v -1.153433 1.042073 0.22372099999999995
v -1.18623 1.335815 0.22372099999999992
v -0.974954 1.062541 0.22372099999999995
v -1.153433 1.042073 -0.00043600000000006383
v -1.153433 1.042073 0.22372099999999995
v -1.008423 1.355937 0.22372099999999992
v -0.974954 1.062541 -0.0004360000000000651
v -0.974954 1.062541 0.22372099999999995
v -1.18623 1.335815 0.22372099999999992
v -1.18623 1.335815 -0.00043600000000008183
v -1.008423 1.355937 -0.0004360000000000831
v -1.008423 1.355937 0.22372099999999992
v 1.440222 1.077938 0.18797099999999994
v 1.445744 1.417171 0.18802999999999992
v 1.102248 1.423124 0.18822899999999992
v 1.100194 1.081757 0.18827399999999994
v 1.091887 1.426871 0.002924999999999913
v 1.438282 1.419848 0.002899999999999913
v 1.445744 1.417171 0.18802999999999992
v 1.102248 1.423124 0.18822899999999992
v 1.440222 1.077938 0.18797099999999994
v 1.434196 1.080156 0.002889999999999934
v 1.089095 1.086394 0.002928999999999934
v 1.100194 1.081757 0.18827399999999994
v -0.946485 1.357424 0.18797099999999992
v -0.858847 1.559331 0.18802999999999992
v -1.175825 1.69173 0.1882289999999999
v -1.260767 1.487239 0.1882739999999999
v -1.184518 1.697868 0.002924999999999896
v -0.865113 1.563739 0.002899999999999904
v -0.858847 1.559331 0.18802999999999992
v -1.175825 1.69173 0.1882289999999999
v -0.946485 1.357424 0.18797099999999992
v -0.951532 1.361018 0.002889999999999917
v -1.269929 1.49419 0.0029289999999999087
v -1.260767 1.487239 0.1882739999999999
v 0.65037 -1.024431 0.12835600000000005
v 0.653 -1.391227 0.12835600000000008
v 0.830023 -1.023563 0.12835600000000005
v 0.65037 -1.024431 0.12835600000000005
v 0.65037 -1.024431 -0.0004359999999999373
v 0.831938 -1.390094 0.12835600000000008
v 0.830023 -1.023563 0.12835600000000005
v 0.830023 -1.023563 -0.00043599999999993736
v 0.653 -1.391227 0.12835600000000008
v 0.831938 -1.390094 0.12835600000000008
v 0.831938 -1.390094 -0.0004359999999999149
v 0.653 -1.391227 -0.00043599999999991486
v -1.427745 1.412904 0.12835599999999991
v -1.399183 1.047212 0.12835599999999994
v -1.248603 1.426474 0.12835599999999991
v -1.427745 1.412904 0.12835599999999991
v -1.427745 1.412904 -0.00043600000000008655
v -1.220773 1.060996 0.12835599999999994
v -1.248603 1.426474 0.12835599999999991
v -1.248603 1.426474 -0.00043600000000008736
v -1.399183 1.047212 0.12835599999999994
v -1.220773 1.060996 0.12835599999999994
v -1.220773 1.060996 -0.00043600000000006497
v -1.399183 1.047212 -0.00043600000000006416
v -1.392303 -1.605051 0.1668430000000001
v -1.346758 -1.403668 0.16684100000000007
v -1.668993 -1.327946 0.1668060000000001
v -1.722715 -1.538657 0.16683900000000007
v -1.668862 -1.326643 0.003219000000000081
v -1.349189 -1.406087 0.0032190000000000864
v -1.346758 -1.403668 0.16684100000000007
v -1.668993 -1.327946 0.1668060000000001
v -1.392303 -1.605051 0.1668430000000001
v -1.391576 -1.606406 0.0032190000000000985
v -1.720214 -1.536533 0.003219000000000094
v -1.722715 -1.538657 0.16683900000000007
v 0.738351 1.763914 0.2089819999999999
v 0.694811 1.972012 0.2089819999999999
v 0.530253 1.720374 0.2089819999999999
v 0.738351 1.763914 0.2089819999999999
v 0.738351 1.763914 -0.0036220000000001078
v 0.486713 1.928472 0.2089819999999999
v 0.530253 1.720374 0.2089819999999999
v 0.530253 1.720374 -0.003622000000000105
v 0.694811 1.972012 0.2089819999999999
v 0.486713 1.928472 0.2089819999999999
v 0.486713 1.928472 -0.0036220000000001177
v 0.694811 1.972012 -0.0036220000000001203
v 1.208831 1.078582 0.22126899999999994
v 1.225075 1.447983 0.24328799999999992
v 1.225075 1.447983 0.24328799999999992
v 1.141395 1.097117 0.24372399999999994
v 1.141395 1.097117 0.24372399999999994
v 1.157214 1.463897 0.2216809999999999
v 1.157214 1.463897 0.2216809999999999
v 1.074525 1.11575 0.22287999999999994
v 1.292894 1.431908 0.2216779999999999
v 1.22509 1.448033 0.2000659999999999
v 1.144378 1.096135 0.20043199999999994
v 1.144378 1.096135 0.20043199999999994
v 1.208831 1.078582 0.22126899999999994
v 1.292894 1.431908 0.2216779999999999
v 1.208831 1.078582 0.22126899999999994
v 1.144378 1.096135 0.20043199999999994
v 1.141395 1.097117 0.24372399999999994
v 1.074525 1.11575 0.22287999999999994
v 1.141395 1.097117 0.24372399999999994
v 1.144378 1.096135 0.20043199999999994
v 1.157214 1.463897 0.2216809999999999
v 1.22509 1.448033 0.2000659999999999
v 1.225075 1.447983 0.24328799999999992
v 1.292894 1.431908 0.2216779999999999
v 1.225075 1.447983 0.24328799999999992
v 1.22509 1.448033 0.2000659999999999
v 1.437331 1.089185 0.22126899999999994
v 1.370412 1.452837 0.24328799999999992
v 1.370412 1.452837 0.24328799999999992
v 1.367456 1.092142 0.24372399999999994
v 1.367456 1.092142 0.24372399999999994
v 1.300711 1.453145 0.2216809999999999
v 1.300711 1.453145 0.2216809999999999
v 1.298112 1.095321 0.22287999999999994
v 1.440108 1.452362 0.2216779999999999
v 1.370415 1.452889 0.2000659999999999
v 1.370584 1.091853 0.20043199999999994
v 1.370584 1.091853 0.20043199999999994
v 1.437331 1.089185 0.22126899999999994
v 1.440108 1.452362 0.2216779999999999
v 1.437331 1.089185 0.22126899999999994
v 1.370584 1.091853 0.20043199999999994
v 1.367456 1.092142 0.24372399999999994
v 1.298112 1.095321 0.22287999999999994
v 1.367456 1.092142 0.24372399999999994
v 1.370584 1.091853 0.20043199999999994
v 1.300711 1.453145 0.2216809999999999
v 1.370415 1.452889 0.2000659999999999
v 1.370412 1.452837 0.24328799999999992
v 1.440108 1.452362 0.2216779999999999
v 1.370412 1.452837 0.24328799999999992
v 1.370415 1.452889 0.2000659999999999
v -0.894875 -1.827145 0.15915000000000012
v -0.599619 -1.813597 0.15915000000000012
v -0.886875 -1.988229 0.15915000000000012
v -0.894875 -1.827145 -7.399999999988812E-05
v -0.894875 -1.827145 0.15915000000000012
v -0.591917 -1.97406 0.15915000000000012
v -0.886875 -1.988229 -7.399999999987825E-05
v -0.886875 -1.988229 0.15915000000000012
v -0.599619 -1.813597 0.15915000000000012
v -0.599619 -1.813597 -7.399999999988895E-05
v -0.591917 -1.97406 -7.399999999987912E-05
v -0.591917 -1.97406 0.15915000000000012
v -0.412832 -1.995518 0.1879710000000001
v -0.246224 -1.851684 0.1880300000000001
v -0.474283 -1.594793 0.18822900000000012
v -0.639585 -1.742125 0.1882740000000001
v -0.479449 -1.585489 0.0029250000000000972
v -0.249954 -1.844993 0.0029000000000001126
v -0.246224 -1.851684 0.1880300000000001
v -0.474283 -1.594793 0.18822900000000012
v -0.412832 -1.995518 0.1879710000000001
v -0.415819 -1.990089 0.002890000000000122
v -0.64482 -1.731885 0.0029290000000001064
v -0.639585 -1.742125 0.1882740000000001
v -1.393036 -1.240512 0.31446900000000005
v -1.365089 -1.318777 0.25927000000000006
v -1.344789 -1.375582 0.004892000000000084
v -1.365089 -1.318777 0.25927000000000006
v -1.393036 -1.240512 0.31446900000000005
v -1.274616 -1.155287 0.014212000000000072
v -1.333531 -1.175887 0.25347900000000007
v -1.274616 -1.155287 0.014212000000000072
v 1.021016 -1.162313 0.2916230000000001
v 1.022719 -1.16479 7.132281725894228E-17
v 1.021016 -1.162313 0.2916230000000001
v 1.132831 -1.069017 0.2916230000000001
v 1.134748 -1.070839 6.556997768760763E-17
v 1.132831 -1.069017 0.2916230000000001
v 1.116762 -1.27681 7.81820639809666E-17
v 1.116762 -1.27681 7.81820639809666E-17
v 1.115234 -1.274043 0.2916230000000001
v 0.267293 1.920329 0.2916229999999999
v 0.268996 1.917852 -1.1743456565191747E-16
v 0.267293 1.920329 0.2916229999999999
v 0.379108 2.013625 0.2916229999999999
v 0.381025 2.011803 -1.2318740522325213E-16
v 0.379108 2.013625 0.2916229999999999
v 0.363039 1.805831 -1.105752576975532E-16
v 0.363039 1.805831 -1.105752576975532E-16
v 0.361511 1.808598 0.2916229999999999
v 1.36786 -1.105936 0.26556900000000006
v 1.368345 -1.106644 -0.007674999999999933
v 1.368345 -1.106644 -0.007674999999999933
v 1.475165 -1.218269 0.26556900000000006
v 1.475641 -1.218831 -0.007674999999999926
v 1.475641 -1.218831 -0.007674999999999926
v 1.362474 -1.324563 0.26556900000000006
v 1.362474 -1.324563 0.26556900000000006
v 1.363089 -1.324968 -0.007674999999999919
vt 0.006440 0.059383
vt 0.006440 0.111242
vt 0.049960 0.059383
vt 0.049961 0.111242
vt 0.099393 0.112509
vt 0.099393 0.059108
vt 0.054788 0.112509
vt 0.054788 0.059108
vt 0.054788 0.059108
vt 0.054788 0.112509
vt 0.054788 0.059108
vt 0.099393 0.059108
vt 0.099393 0.059108
vt 0.099393 0.112509
vt 0.054788 0.112509
vt 0.099393 0.112509
vt 0.297194 0.373421
vt 0.276271 0.367316
vt 0.284499 0.376611
vt 0.288875 0.365669
vt 0.281653 0.405795
vt 0.261215 0.390604
vt 0.307762 0.402484
vt 0.311685 0.396375
vt 0.299262 0.369069
vt 0.452552 0.219309
vt 0.485521 0.219309
vt 0.518284 0.219309
vt 0.548997 0.219309
vt 0.452552 0.166611
vt 0.485521 0.166611
vt 0.518284 0.166611
vt 0.548997 0.166611
vt 0.452552 0.219309
vt 0.485521 0.219309
vt 0.518284 0.219309
vt 0.548997 0.219309
vt 0.452552 0.166611
vt 0.485521 0.166611
vt 0.518284 0.166611
vt 0.548997 0.166611
vt 0.020784 0.032533
vt 0.034702 0.032533
vt 0.049997 0.032533
vt 0.006397 0.032533
vt 0.020784 0.008445
vt 0.034702 0.008445
vt 0.049997 0.008445
vt 0.006397 0.008445
vt 0.608261 0.054421
vt 0.608261 0.101034
vt 0.684673 0.101034
vt 0.684673 0.054421
vt 0.528060 0.054421
vt 0.603016 0.054421
vt 0.395128 0.054421
vt 0.473850 0.054421
vt 0.854889 0.261503
vt 0.854878 0.234551
vt 0.817339 0.234530
vt 0.817350 0.261524
vt 0.789389 0.229092
vt 0.816727 0.229076
vt 0.719593 0.229131
vt 0.747833 0.229116
vt 0.854889 0.261503
vt 0.854878 0.234551
vt 0.817339 0.234530
vt 0.817350 0.261524
vt 0.789389 0.229092
vt 0.816727 0.229076
vt 0.719593 0.229131
vt 0.747833 0.229116
vt 0.774114 0.006345
vt 0.682336 0.006345
vt 0.682336 0.045058
vt 0.774114 0.045058
vt 0.432119 0.006345
vt 0.312378 0.006345
vt 0.623466 0.006345
vt 0.498930 0.006345
vt 0.774114 0.006345
vt 0.682336 0.006345
vt 0.682336 0.045058
vt 0.774114 0.045058
vt 0.432119 0.006345
vt 0.312378 0.006345
vt 0.623466 0.006345
vt 0.498930 0.006345
vt 0.858378 0.297944
vt 0.858519 0.266850
vt 0.817380 0.266991
vt 0.816777 0.298038
vt 0.789583 0.229291
vt 0.816322 0.229291
vt 0.720183 0.229522
vt 0.747518 0.229522
vt 0.368520 0.225184
vt 0.410102 0.225184
vt 0.410102 0.184169
vt 0.368520 0.184169
vt 0.409576 0.183904
vt 0.367987 0.183904
vt 0.410452 0.183904
vt 0.368520 0.184305
vt 0.380398 0.576553
vt 0.380397 0.517556
vt 0.366882 0.517556
vt 0.353603 0.517556
vt 0.393149 0.517485
vt 0.332847 0.463183
vt 0.344273 0.463183
vt 0.332847 0.453819
vt 0.344273 0.453819
vt 0.353604 0.576553
vt 0.393329 0.576468
vt 0.366883 0.576553
vt 0.344273 0.463183
vt 0.332847 0.463183
vt 0.344273 0.453819
vt 0.332847 0.453819
vt 0.344273 0.463183
vt 0.344273 0.453819
vt 0.332847 0.453819
vt 0.332847 0.463183
vt 0.344273 0.463183
vt 0.344273 0.453819
vt 0.332847 0.453819
vt 0.332847 0.463183
vt 0.851945 0.062938
vt 0.851945 0.009492
vt 0.838429 0.009492
vt 0.825150 0.009492
vt 0.864697 0.009421
vt 0.347971 0.465408
vt 0.336545 0.465408
vt 0.347971 0.474772
vt 0.336545 0.474772
vt 0.825151 0.062938
vt 0.864877 0.062853
vt 0.838430 0.062938
vt 0.336545 0.465408
vt 0.347971 0.465408
vt 0.336545 0.474772
vt 0.347971 0.474772
vt 0.336545 0.465408
vt 0.336545 0.474772
vt 0.347971 0.474772
vt 0.347971 0.465408
vt 0.336545 0.465408
vt 0.336545 0.474772
vt 0.347971 0.474772
vt 0.347971 0.465408
vt 0.608261 0.054421
vt 0.608261 0.101034
vt 0.684673 0.101034
vt 0.684673 0.054421
vt 0.528060 0.054421
vt 0.603016 0.054421
vt 0.395128 0.054421
vt 0.473850 0.054421
vt 0.854889 0.261503
vt 0.854878 0.234551
vt 0.817339 0.234530
vt 0.817350 0.261524
vt 0.789389 0.229092
vt 0.816727 0.229076
vt 0.719593 0.229131
vt 0.747833 0.229116
vt 0.099393 0.112509
vt 0.099393 0.059108
vt 0.054788 0.059108
vt 0.054788 0.112509
vt 0.301648 0.364045
vt 0.316662 0.388626
vt 0.421574 0.166611
vt 0.421574 0.219309
vt 0.490757 0.235212
vt 0.467522 0.225247
vt 0.457896 0.249305
vt 0.481134 0.259271
vt 0.421574 0.166611
vt 0.421574 0.219309
vt 0.490757 0.235212
vt 0.467522 0.225247
vt 0.457896 0.249305
vt 0.481134 0.259271
vt 0.064000 0.032533
vt 0.064000 0.008445
vt 0.016160 0.037136
vt 0.005778 0.041555
vt 0.020454 0.047797
vt 0.010083 0.052205
vt 0.603016 0.101034
vt 0.528060 0.101034
vt 0.395128 0.101034
vt 0.349555 0.054421
vt 0.349555 0.101034
vt 0.473850 0.101034
vt 0.398939 0.054421
vt 0.398939 0.101034
vt 0.523663 0.101034
vt 0.523663 0.054421
vt 0.477953 0.054421
vt 0.477953 0.101034
vt 0.816716 0.205701
vt 0.789378 0.205719
vt 0.747822 0.205743
vt 0.719542 0.205756
vt 0.747833 0.229116
vt 0.789389 0.229092
vt 0.789378 0.205719
vt 0.747822 0.205743
vt 0.816716 0.205701
vt 0.816727 0.229076
vt 0.859185 0.229052
vt 0.859174 0.205677
vt 0.816716 0.205701
vt 0.789378 0.205719
vt 0.747822 0.205743
vt 0.719542 0.205756
vt 0.747833 0.229116
vt 0.789389 0.229092
vt 0.789378 0.205719
vt 0.747822 0.205743
vt 0.816716 0.205701
vt 0.816727 0.229076
vt 0.859185 0.229052
vt 0.859174 0.205677
vt 0.312378 0.045058
vt 0.432118 0.045058
vt 0.623466 0.045058
vt 0.678375 0.045058
vt 0.678375 0.006345
vt 0.498930 0.045058
vt 0.618142 0.045058
vt 0.618142 0.006345
vt 0.435329 0.045058
vt 0.495251 0.045058
vt 0.495251 0.006345
vt 0.435329 0.006345
vt 0.312378 0.045058
vt 0.432118 0.045058
vt 0.623466 0.045058
vt 0.678375 0.045058
vt 0.678375 0.006345
vt 0.498930 0.045058
vt 0.618142 0.045058
vt 0.618142 0.006345
vt 0.435329 0.045058
vt 0.495251 0.045058
vt 0.495251 0.006345
vt 0.435329 0.006345
vt 0.816322 0.205930
vt 0.789574 0.205850
vt 0.747509 0.205944
vt 0.720143 0.206161
vt 0.747518 0.229522
vt 0.789583 0.229291
vt 0.789574 0.205850
vt 0.747509 0.205944
vt 0.816322 0.205930
vt 0.816322 0.229291
vt 0.858387 0.229059
vt 0.858387 0.205698
vt 0.367987 0.224901
vt 0.409576 0.224901
vt 0.410452 0.224901
vt 0.368840 0.224901
vt 0.368840 0.183904
vt 0.368520 0.225301
vt 0.410102 0.225301
vt 0.410102 0.184305
vt 0.410183 0.225301
vt 0.368629 0.225301
vt 0.368629 0.184305
vt 0.410183 0.184305
vt 0.380397 0.517556
vt 0.366883 0.576553
vt 0.366883 0.576553
vt 0.366882 0.517556
vt 0.366882 0.517556
vt 0.353604 0.576553
vt 0.407197 0.576553
vt 0.407196 0.517555
vt 0.380398 0.576553
vt 0.393329 0.576468
vt 0.393149 0.517485
vt 0.393149 0.517485
vt 0.380397 0.517556
vt 0.380398 0.576553
vt 0.381213 0.514446
vt 0.393149 0.517485
vt 0.393618 0.511300
vt 0.405882 0.514270
vt 0.393618 0.511300
vt 0.393149 0.517485
vt 0.381213 0.514446
vt 0.393149 0.517485
vt 0.393618 0.511300
vt 0.405882 0.514270
vt 0.393618 0.511300
vt 0.393149 0.517485
vt 0.851945 0.009492
vt 0.838430 0.062938
vt 0.838430 0.062938
vt 0.838429 0.009492
vt 0.838429 0.009492
vt 0.825151 0.062938
vt 0.878744 0.062938
vt 0.878743 0.009492
vt 0.851945 0.062938
vt 0.864877 0.062853
vt 0.864697 0.009421
vt 0.864697 0.009421
vt 0.851945 0.009492
vt 0.851945 0.062938
vt 0.852761 0.006382
vt 0.864697 0.009421
vt 0.865166 0.003236
vt 0.877429 0.006206
vt 0.865166 0.003236
vt 0.864697 0.009421
vt 0.852761 0.006253
vt 0.864697 0.003213
vt 0.865166 0.009398
vt 0.877429 0.006428
vt 0.865166 0.009398
vt 0.864697 0.003213
vt 0.603016 0.101034
vt 0.528060 0.101034
vt 0.395128 0.101034
vt 0.349555 0.054421
vt 0.349555 0.101034
vt 0.473850 0.101034
vt 0.398939 0.054421
vt 0.398939 0.101034
vt 0.523663 0.101034
vt 0.523663 0.054421
vt 0.477953 0.054421
vt 0.477953 0.101034
vt 0.816716 0.205701
vt 0.789378 0.205719
vt 0.747822 0.205743
vt 0.719542 0.205756
vt 0.747833 0.229116
vt 0.789389 0.229092
vt 0.789378 0.205719
vt 0.747822 0.205743
vt 0.816716 0.205701
vt 0.816727 0.229076
vt 0.859185 0.229052
vt 0.859174 0.205677
vt 0.288875 0.365669
vt 0.297194 0.373421
vt 0.307762 0.402484
vt 0.297194 0.373421
vt 0.288875 0.365669
vt 0.281653 0.405795
vt 0.284499 0.376611
vt 0.281653 0.405795
vt 0.485521 0.166611
vt 0.485521 0.219309
vt 0.485521 0.166611
vt 0.518284 0.166611
vt 0.518284 0.219309
vt 0.518284 0.166611
vt 0.452552 0.219309
vt 0.452552 0.219309
vt 0.452552 0.166611
vt 0.485521 0.166611
vt 0.485521 0.219309
vt 0.485521 0.166611
vt 0.518284 0.166611
vt 0.518284 0.219309
vt 0.518284 0.166611
vt 0.452552 0.219309
vt 0.452552 0.219309
vt 0.452552 0.166611
vt 0.020784 0.008445
vt 0.020784 0.032533
vt 0.020784 0.032533
vt 0.034702 0.008445
vt 0.034702 0.032533
vt 0.034702 0.032533
vt 0.049997 0.008445
vt 0.049997 0.008445
vt 0.049997 0.032533
vn 0 6.123233995736766E-17 1
vn 0 6.123233995736766E-17 1
vn 0 6.123233995736766E-17 1
vn 0 6.123233995736766E-17 1
vn -0.006672 0.999978 -6.12309928458886E-17
vn -0.006672 0.999978 -6.12309928458886E-17
vn -0.006672 0.999978 -6.12309928458886E-17
vn -0.006672 0.999978 -6.12309928458886E-17
vn -0.999978 -0.006676 4.087871015553865E-19
vn -0.999978 -0.006676 4.087871015553865E-19
vn 0.999978 0.006667 -4.082360104957702E-19
vn 0.999978 0.006667 -4.082360104957702E-19
vn -0.999978 -0.006676 4.087871015553865E-19
vn -0.999978 -0.006676 4.087871015553865E-19
vn 0.999978 0.006667 -4.082360104957702E-19
vn 0.999978 0.006667 -4.082360104957702E-19
vn 0.002637 -0.855586 0.517654
vn -0.657064 0.704199 0.26901899999999995
vn 0.772256 0.34967600000000004 0.530422
vn -0.258458 0.07749800000000005 0.962909
vn 0.326146 0.931821 0.15917999999999993
vn -0.671712 0.74034 0.026467999999999953
vn 0.680989 -0.69107 0.24223100000000006
vn -0.950667 -0.304756 0.057924000000000024
vn -0.871895 -0.29647 0.38975
vn 0.231098 -0.972881 0.009850000000000058
vn -0.972388 -0.233349 -0.0032049999999999856
vn -0.231189 0.972875 -0.00815500000000006
vn 0.972308 0.233663 0.004422999999999986
vn -0.397278 -0.917678 0.006134000000000056
vn -0.917196 0.398352 -0.008178000000000024
vn 0.396944 0.917835 -0.0037670000000000563
vn 0.917222 -0.39828 0.008740000000000024
vn 0.231098 -0.972881 0.009849000000000059
vn -0.972388 -0.23335 -0.0032049999999999856
vn -0.23119 0.972875 -0.008156000000000059
vn 0.972308 0.233663 0.004421999999999986
vn -0.397278 -0.917678 0.006133000000000057
vn -0.917196 0.398352 -0.008178000000000024
vn 0.396944 0.917835 -0.0037670000000000563
vn 0.917222 -0.39828 0.008740000000000024
vn 0.026622 0.999643 -0.002129000000000061
vn 0.9395 -0.34254 0.002310000000000021
vn -0.026048 -0.99966 0.001424000000000061
vn -0.956227 -0.292622 -0.001376999999999982
vn 0.02641 0.999648 -0.0025430000000000613
vn 0.711375 0.21837900000000002 0.668024
vn -0.024697 -0.942332 0.33376600000000006
vn -0.939031 0.343823 -0.002499000000000021
vn 0 6.123233995736766E-17 1
vn 0 6.123233995736766E-17 1
vn 0 6.123233995736766E-17 1
vn 0 6.123233995736766E-17 1
vn -0.993825 -0.110963 6.794524138689388E-18
vn -0.993825 -0.110963 6.794524138689388E-18
vn 0.113932 -0.993489 6.083365619190524E-17
vn 0.993556 0.11334 -6.94007341076805E-18
vn 0.000735 -3.099999999993877E-05 1
vn 0.000889 -0.00018999999999993878 1
vn 0.000735 -3.099999999993877E-05 1
vn 0.000581 0.00012800000000006122 1
vn 0.99911 -0.012019000000000002 -0.04044
vn 0.99923 -0.014139000000000002 -0.036589
vn -0.998294 0.007101000000000003 0.057957
vn -0.998398 0.008191000000000004 0.055985
vn 0.000663 -0.00031999999999993877 1
vn 0.000714 -0.0006049999999999387 1
vn 0.000663 -0.00031999999999993877 1
vn 0.000612 -3.499999999993877E-05 1
vn 0.919149 -0.39183 -0.04043699999999998
vn 0.918 -0.39489 -0.03658399999999998
vn -0.921295 0.384521 0.05795499999999998
vn -0.920752 0.386112 0.055981999999999976
vn 0 6.123233995736766E-17 1
vn 0 6.123233995736766E-17 1
vn 0 6.123233995736766E-17 1
vn 0 6.123233995736766E-17 1
vn -0.999974 -0.007171 4.390971098342835E-19
vn -0.999974 -0.007171 4.390971098342835E-19
vn -0.00483 0.999988 -6.123160516928818E-17
vn 0.999986 0.005225 -3.19938976277246E-19
vn 0 6.123233995736766E-17 1
vn 0 6.123233995736766E-17 1
vn 0 6.123233995736766E-17 1
vn 0 6.123233995736766E-17 1
vn -0.996964 -0.077867 4.767978615460348E-18
vn -0.996964 -0.077867 4.767978615460348E-18
vn -0.075535 0.997143 -6.105739916210947E-17
vn 0.997113 0.075927 -4.649187875943054E-18
vn -3.9E-05 9.000000000006124E-05 1
vn -1E-05 9.000000000061232E-06 1
vn -3.9E-05 9.000000000006124E-05 1
vn -6.8E-05 0.00017000000000006124 1
vn 0.978273 -0.207002 -0.011470999999999988
vn 0.976872 -0.213808 -0.002654999999999987
vn -0.970174 0.242352 -0.005245000000000014
vn -0.971349 0.237653 0.0011129999999999855
vn -0 6.123233995736766E-17 1
vn -0 6.123233995736766E-17 1
vn -0 6.123233995736766E-17 1
vn -0 6.123233995736766E-17 1
vn 0.978805 0.204793 -1.2539954596889196E-17
vn 0.978805 0.204793 -1.2539954596889196E-17
vn 0.204795 -0.978805 5.993452051197125E-17
vn -0.978805 -0.204795 1.254007706156911E-17
vn 0.287854 -0.06959199999999995 0.955142
vn 0.287854 -0.06959199999999995 0.955142
vn 0.297824 -0.06984599999999995 0.952062
vn -0.279135 0.06959700000000006 0.957726
vn -0.288653 0.06520999999999995 -0.955211
vn 0.003239 0.0015720000000000612 0.999994
vn 0.003269 0.001589000000000061 0.999994
vn 0.003269 0.001589000000000061 0.999994
vn 0.003299 0.001607000000000061 0.999993
vn -0.287748 0.06981400000000006 0.955158
vn -0.288899 0.06532699999999994 -0.955128
vn 0.287854 -0.06959199999999995 0.955142
vn -0.003206 -0.001705999999999939 0.999994
vn -0.003176 -0.001687999999999939 0.999994
vn -0.003235 -0.0017249999999999388 0.999993
vn -0.003206 -0.001705999999999939 0.999994
vn -0.003269 -0.001589000000000061 -0.999994
vn -0.003299 -0.001607000000000061 -0.999993
vn -0.003269 -0.001589000000000061 -0.999994
vn -0.003239 -0.0015720000000000612 -0.999994
vn 0.003206 0.001705999999999939 -0.999994
vn 0.003235 0.0017249999999999388 -0.999993
vn 0.003206 0.001705999999999939 -0.999994
vn 0.003176 0.001687999999999939 -0.999994
vn 0.296128 -0.0033399999999999415 0.955142
vn 0.296128 -0.0033399999999999415 0.955142
vn 0.305902 -0.0013549999999999418 0.952062
vn -0.287631 0.005299000000000059 0.957727
vn -0.295925 -0.0011090000000000585 -0.955211
vn 0.002804 0.002257000000000061 0.999994
vn 0.002829 0.002281000000000061 0.999994
vn 0.002829 0.002281000000000061 0.999994
vn 0.002855 0.0023050000000000613 0.999993
vn -0.296074 0.0035810000000000585 0.955158
vn -0.296191 -0.0010500000000000585 -0.955128
vn 0.296128 -0.0033399999999999415 0.955142
vn -0.002742 -0.0023809999999999387 0.999994
vn -0.002717 -0.002355999999999939 0.999994
vn -0.002766 -0.002405999999999939 0.999993
vn -0.002742 -0.0023809999999999387 0.999994
vn -0.002829 -0.002281000000000061 -0.999994
vn -0.002855 -0.0023050000000000613 -0.999993
vn -0.002829 -0.002281000000000061 -0.999994
vn -0.002804 -0.002257000000000061 -0.999994
vn 0.002742 0.0023809999999999387 -0.999994
vn 0.002766 0.002405999999999939 -0.999993
vn 0.002742 0.0023809999999999387 -0.999994
vn 0.002717 0.002355999999999939 -0.999994
vn 0 6.123233995736766E-17 1
vn 0 6.123233995736766E-17 1
vn 0 6.123233995736766E-17 1
vn 0 6.123233995736766E-17 1
vn -0.045836 0.998949 -6.116798476807246E-17
vn -0.045836 0.998949 -6.116798476807246E-17
vn -0.998769 -0.049605 3.037430223585223E-18
vn 0.047982 -0.998848 6.116180030173677E-17
vn 0.000458 -0.0005759999999999388 1
vn 0.000381 -0.0008549999999999387 1
vn 0.000458 -0.0005759999999999388 1
vn 0.000536 -0.00029699999999993875 1
vn 0.657876 -0.75204 -0.04043699999999995
vn 0.655513 -0.754298 -0.03658499999999995
vn -0.662983 0.746388 0.05795499999999995
vn -0.661802 0.747586 0.05598199999999995
vn 0.00667 -0.999978 6.12309928458886E-17
vn 0.00667 -0.999978 6.12309928458886E-17
vn 0.00667 -0.999978 6.12309928458886E-17
vn 0.00667 -0.999978 6.12309928458886E-17
vn -0.657064 0.704199 0.26901899999999995
vn -0.671712 0.74034 0.026467999999999953
vn 0.917222 -0.39828 0.008740000000000024
vn 0.972308 0.233663 0.004422999999999986
vn 0 6.123233995736766E-17 1
vn 0 6.123233995736766E-17 1
vn 0 6.123233995736766E-17 1
vn 0 6.123233995736766E-17 1
vn 0.917222 -0.39828 0.008740000000000024
vn 0.972308 0.233663 0.004421999999999986
vn 0 6.123233995736766E-17 1
vn 0 6.123233995736766E-17 1
vn 0 6.123233995736766E-17 1
vn 0 6.123233995736766E-17 1
vn -0.956227 -0.292622 -0.001376999999999982
vn -0.939031 0.343823 -0.002499000000000021
vn -0.024697 -0.942332 0.33376600000000006
vn 0 6.123233995736766E-17 1
vn 0.711375 0.21837900000000002 0.668024
vn 0.02641 0.999648 -0.0025430000000000613
vn -0.993825 -0.110963 6.794524138689388E-18
vn -0.993825 -0.110963 6.794524138689388E-18
vn 0.113932 -0.993489 6.083365619190524E-17
vn 0.113932 -0.993489 6.083365619190524E-17
vn 0.113932 -0.993489 6.083365619190524E-17
vn 0.993556 0.11334 -6.94007341076805E-18
vn 0.993556 0.11334 -6.94007341076805E-18
vn 0.993556 0.11334 -6.94007341076805E-18
vn -0.112448 0.993658 -6.084400445735804E-17
vn -0.112448 0.993658 -6.084400445735804E-17
vn -0.112448 0.993658 -6.084400445735804E-17
vn -0.112448 0.993658 -6.084400445735804E-17
vn 0.999332 -0.016259000000000003 -0.032736
vn 0.99923 -0.014139000000000002 -0.036589
vn -0.998294 0.007101000000000003 0.057957
vn -0.998185 0.0060120000000000035 0.059929
vn 0.018802 0.999688 0.016441999999999936
vn 0.020268 0.999702 0.013639999999999939
vn 0.018802 0.999688 0.016441999999999936
vn 0.017335 0.999665 0.01924499999999994
vn -0.01466 -0.999733 -0.017865999999999937
vn -0.018073 -0.999772 -0.011391999999999939
vn -0.01466 -0.999733 -0.017865999999999937
vn -0.011247 -0.999641 -0.024338999999999937
vn 0.916828 -0.397939 -0.032730999999999975
vn 0.918 -0.39489 -0.03658399999999998
vn -0.921295 0.384521 0.05795499999999998
vn -0.921833 0.382927 0.05992699999999998
vn 0.386283 0.922319 0.010666999999999942
vn 0.387167 0.921967 0.008847999999999943
vn 0.386283 0.922319 0.010666999999999942
vn 0.385397 0.922666 0.012484999999999942
vn -0.383799 -0.923344 -0.011590999999999943
vn -0.385857 -0.922529 -0.0073899999999999435
vn -0.383799 -0.923344 -0.011590999999999943
vn -0.381732 -0.924138 -0.015790999999999944
vn -0.999974 -0.007171 4.390971098342835E-19
vn -0.999974 -0.007171 4.390971098342835E-19
vn -0.00483 0.999988 -6.123160516928818E-17
vn -0.00483 0.999988 -6.123160516928818E-17
vn -0.00483 0.999988 -6.123160516928818E-17
vn 0.999986 0.005225 -3.19938976277246E-19
vn 0.999986 0.005225 -3.19938976277246E-19
vn 0.999986 0.005225 -3.19938976277246E-19
vn 0.006333 -0.99998 6.12311153105685E-17
vn 0.006333 -0.99998 6.12311153105685E-17
vn 0.006333 -0.99998 6.12311153105685E-17
vn 0.006333 -0.99998 6.12311153105685E-17
vn -0.996964 -0.077867 4.767978615460348E-18
vn -0.996964 -0.077867 4.767978615460348E-18
vn -0.075535 0.997143 -6.105739916210947E-17
vn -0.075535 0.997143 -6.105739916210947E-17
vn -0.075535 0.997143 -6.105739916210947E-17
vn 0.997113 0.075927 -4.649187875943054E-18
vn 0.997113 0.075927 -4.649187875943054E-18
vn 0.997113 0.075927 -4.649187875943054E-18
vn 0.077031 -0.997029 6.105041867535432E-17
vn 0.077031 -0.997029 6.105041867535432E-17
vn 0.077031 -0.997029 6.105041867535432E-17
vn 0.077031 -0.997029 6.105041867535432E-17
vn 0.975348 -0.220586 0.006162000000000014
vn 0.976872 -0.213808 -0.002654999999999987
vn -0.970174 0.242352 -0.005245000000000014
vn -0.968937 0.247035 -0.011604000000000015
vn 0.234969 0.97199 -0.00499900000000006
vn 0.241141 0.970325 -0.017931000000000058
vn 0.234969 0.97199 -0.00499900000000006
vn 0.228749 0.973453 0.00793499999999994
vn -0.202486 -0.979276 -0.00428099999999994
vn -0.207959 -0.978111 0.00717400000000006
vn -0.202486 -0.979276 -0.00428099999999994
vn -0.19698 -0.980281 -0.01573599999999994
vn 0.978805 0.204793 -1.2539954596889196E-17
vn 0.978805 0.204793 -1.2539954596889196E-17
vn 0.204795 -0.978805 5.993452051197125E-17
vn 0.204795 -0.978805 5.993452051197125E-17
vn 0.204795 -0.978805 5.993452051197125E-17
vn -0.978805 -0.204795 1.254007706156911E-17
vn -0.978805 -0.204795 1.254007706156911E-17
vn -0.978805 -0.204795 1.254007706156911E-17
vn -0.204794 0.978805 -5.993452051197125E-17
vn -0.204794 0.978805 -5.993452051197125E-17
vn -0.204794 0.978805 -5.993452051197125E-17
vn -0.204794 0.978805 -5.993452051197125E-17
vn 0.297824 -0.06984599999999995 0.952062
vn 0.297824 -0.06984599999999995 0.952062
vn -0.287748 0.06981400000000006 0.955158
vn -0.287748 0.06981400000000006 0.955158
vn -0.279135 0.06959700000000006 0.957726
vn -0.279135 0.06959700000000006 0.957726
vn -0.288899 0.06532699999999994 -0.955128
vn -0.288899 0.06532699999999994 -0.955128
vn 0.288469 -0.06715800000000005 -0.955131
vn 0.288469 -0.06715800000000005 -0.955131
vn 0.288469 -0.06715800000000005 -0.955131
vn 0.290101 -0.06791500000000006 -0.954583
vn 0.290101 -0.06791500000000006 -0.954583
vn 0.290101 -0.06791500000000006 -0.954583
vn -0.263882 -0.964548 0.003700000000000059
vn -0.263882 -0.964548 0.003700000000000059
vn -0.263882 -0.964548 0.003700000000000059
vn -0.269361 -0.963034 0.003288000000000059
vn -0.269361 -0.963034 0.003288000000000059
vn -0.269361 -0.963034 0.003288000000000059
vn 0.227954 0.973671 0.0011919999999999403
vn 0.227954 0.973671 0.0011919999999999403
vn 0.227954 0.973671 0.0011919999999999403
vn 0.231006 0.972952 0.0011929999999999404
vn 0.231006 0.972952 0.0011929999999999404
vn 0.231006 0.972952 0.0011929999999999404
vn 0.305902 -0.0013549999999999418 0.952062
vn 0.305902 -0.0013549999999999418 0.952062
vn -0.296074 0.0035810000000000585 0.955158
vn -0.296074 0.0035810000000000585 0.955158
vn -0.287631 0.005299000000000059 0.957727
vn -0.287631 0.005299000000000059 0.957727
vn -0.296191 -0.0010500000000000585 -0.955128
vn -0.296191 -0.0010500000000000585 -0.955128
vn 0.296182 -0.0008310000000000585 -0.955131
vn 0.296182 -0.0008310000000000585 -0.955131
vn 0.296182 -0.0008310000000000585 -0.955131
vn 0.297942 -0.0012030000000000586 -0.954583
vn 0.297942 -0.0012030000000000586 -0.954583
vn 0.297942 -0.0012030000000000586 -0.954583
vn -0.041105 -0.999148 0.0037000000000000613
vn -0.041105 -0.999148 0.0037000000000000613
vn -0.041105 -0.999148 0.0037000000000000613
vn -0.046784 -0.9989 0.0032880000000000613
vn -0.046784 -0.9989 0.0032880000000000613
vn -0.046784 -0.9989 0.0032880000000000613
vn 0.004047 0.999991 0.0011919999999999388
vn 0.004047 0.999991 0.0011919999999999388
vn 0.004047 0.999991 0.0011919999999999388
vn 0.007183 0.999974 0.0011919999999999388
vn 0.007183 0.999974 0.0011919999999999388
vn 0.007183 0.999974 0.0011919999999999388
vn -0.045836 0.998949 -6.116798476807246E-17
vn -0.045836 0.998949 -6.116798476807246E-17
vn -0.998769 -0.049605 3.037430223585223E-18
vn -0.998769 -0.049605 3.037430223585223E-18
vn -0.998769 -0.049605 3.037430223585223E-18
vn 0.047982 -0.998848 6.116180030173677E-17
vn 0.047982 -0.998848 6.116180030173677E-17
vn 0.047982 -0.998848 6.116180030173677E-17
vn 0.99885 0.047943 -2.935662074576078E-18
vn 0.99885 0.047943 -2.935662074576078E-18
vn 0.99885 0.047943 -2.935662074576078E-18
vn 0.99885 0.047943 -2.935662074576078E-18
vn 0.653133 -0.756536 -0.032730999999999955
vn 0.655513 -0.754298 -0.03658499999999995
vn -0.662983 0.746388 0.05795499999999995
vn -0.66416 0.745185 0.059927999999999954
vn 0.74842 0.66314 0.01066699999999996
vn 0.749063 0.662439 0.00884899999999996
vn 0.74842 0.66314 0.01066699999999996
vn 0.747773 0.663837 0.01248499999999996
vn -0.746627 -0.665142 -0.01159099999999996
vn -0.748127 -0.663514 -0.007390999999999959
vn -0.746627 -0.665142 -0.01159099999999996
vn -0.74511 -0.666755 -0.015790999999999958
vn -0.258458 0.07749800000000005 0.962909
vn 0.002637 -0.855586 0.517654
vn 0.680989 -0.69107 0.24223100000000006
vn 0.002637 -0.855586 0.517654
vn -0.258458 0.07749800000000005 0.962909
vn 0.326146 0.931821 0.15917999999999993
vn 0.772256 0.34967600000000004 0.530422
vn 0.326146 0.931821 0.15917999999999993
vn -0.917196 0.398352 -0.008178000000000024
vn -0.972388 -0.233349 -0.0032049999999999856
vn -0.917196 0.398352 -0.008178000000000024
vn 0.396944 0.917835 -0.0037670000000000563
vn -0.231189 0.972875 -0.00815500000000006
vn 0.396944 0.917835 -0.0037670000000000563
vn 0.231098 -0.972881 0.009850000000000058
vn 0.231098 -0.972881 0.009850000000000058
vn -0.397278 -0.917678 0.006134000000000056
vn -0.917196 0.398352 -0.008178000000000024
vn -0.972388 -0.23335 -0.0032049999999999856
vn -0.917196 0.398352 -0.008178000000000024
vn 0.396944 0.917835 -0.0037670000000000563
vn -0.23119 0.972875 -0.008156000000000059
vn 0.396944 0.917835 -0.0037670000000000563
vn 0.231098 -0.972881 0.009849000000000059
vn 0.231098 -0.972881 0.009849000000000059
vn -0.397278 -0.917678 0.006133000000000057
vn 0.02641 0.999648 -0.0025430000000000613
vn 0.026622 0.999643 -0.002129000000000061
vn 0.026622 0.999643 -0.002129000000000061
vn 0.711375 0.21837900000000002 0.668024
vn 0.9395 -0.34254 0.002310000000000021
vn 0.9395 -0.34254 0.002310000000000021
vn -0.024697 -0.942332 0.33376600000000006
vn -0.024697 -0.942332 0.33376600000000006
vn -0.026048 -0.99966 0.001424000000000061
g 01++
f 350/350/350 353/353/353 352/352/352
f 352/352/352 351/351/351 350/350/350
f 346/346/346 349/349/349 348/348/348
f 348/348/348 347/347/347 346/346/346
f 168/168/168 345/345/345 344/344/344
f 344/344/344 169/169/169 168/168/168
f 167/167/167 166/166/166 343/343/343
f 343/343/343 342/342/342 167/167/167
f 164/164/164 163/163/163 162/162/162
f 162/162/162 165/165/165 164/164/164
f 338/338/338 341/341/341 340/340/340
f 340/340/340 339/339/339 338/338/338
f 335/335/335 337/337/337 336/336/336
f 336/336/336 161/161/161 335/335/335
f 332/332/332 334/334/334 333/333/333
f 333/333/333 160/160/160 332/332/332
f 330/330/330 331/331/331 158/158/158
f 158/158/158 159/159/159 330/330/330
f 156/156/156 155/155/155 154/154/154
f 154/154/154 157/157/157 156/156/156
f 152/152/152 153/153/153 150/150/150
f 150/150/150 151/151/151 152/152/152
f 148/148/148 149/149/149 146/146/146
f 146/146/146 147/147/147 148/148/148
f 145/145/145 144/144/144 142/142/142
f 142/142/142 143/143/143 145/145/145
f 329/329/329 328/328/328 327/327/327
f 326/326/326 325/325/325 324/324/324
f 137/137/137 138/138/138 136/136/136
f 136/136/136 135/135/135 137/137/137
f 323/323/323 322/322/322 321/321/321
f 320/320/320 319/319/319 318/318/318
f 317/317/317 316/316/316 315/315/315
f 314/314/314 313/313/313 312/312/312
f 140/140/140 134/134/134 311/311/311
f 311/311/311 310/310/310 140/140/140
f 309/309/309 133/133/133 308/308/308
f 307/307/307 306/306/306 139/139/139
f 305/305/305 132/132/132 304/304/304
f 131/131/131 130/130/130 141/141/141
f 128/128/128 129/129/129 126/126/126
f 126/126/126 127/127/127 128/128/128
f 124/124/124 125/125/125 122/122/122
f 122/122/122 123/123/123 124/124/124
f 121/121/121 120/120/120 118/118/118
f 118/118/118 119/119/119 121/121/121
f 303/303/303 302/302/302 301/301/301
f 300/300/300 299/299/299 298/298/298
f 113/113/113 114/114/114 112/112/112
f 112/112/112 111/111/111 113/113/113
f 297/297/297 296/296/296 295/295/295
f 294/294/294 293/293/293 292/292/292
f 291/291/291 290/290/290 289/289/289
f 288/288/288 287/287/287 286/286/286
f 116/116/116 110/110/110 285/285/285
f 285/285/285 284/284/284 116/116/116
f 283/283/283 109/109/109 282/282/282
f 281/281/281 280/280/280 115/115/115
f 279/279/279 108/108/108 278/278/278
f 107/107/107 106/106/106 117/117/117
f 274/274/274 277/277/277 276/276/276
f 276/276/276 275/275/275 274/274/274
f 271/271/271 105/105/105 273/273/273
f 273/273/273 272/272/272 271/271/271
f 268/268/268 104/104/104 270/270/270
f 270/270/270 269/269/269 268/268/268
f 266/266/266 103/103/103 102/102/102
f 102/102/102 267/267/267 266/266/266
f 100/100/100 99/99/99 98/98/98
f 98/98/98 101/101/101 100/100/100
f 262/262/262 265/265/265 264/264/264
f 264/264/264 263/263/263 262/262/262
f 258/258/258 261/261/261 260/260/260
f 260/260/260 259/259/259 258/258/258
f 96/96/96 257/257/257 256/256/256
f 256/256/256 97/97/97 96/96/96
f 95/95/95 94/94/94 255/255/255
f 255/255/255 254/254/254 95/95/95
f 92/92/92 91/91/91 90/90/90
f 90/90/90 93/93/93 92/92/92
f 250/250/250 253/253/253 252/252/252
f 252/252/252 251/251/251 250/250/250
f 247/247/247 89/89/89 249/249/249
f 249/249/249 248/248/248 247/247/247
f 244/244/244 88/88/88 246/246/246
f 246/246/246 245/245/245 244/244/244
f 242/242/242 87/87/87 86/86/86
f 86/86/86 243/243/243 242/242/242
f 84/84/84 83/83/83 82/82/82
f 82/82/82 85/85/85 84/84/84
f 238/238/238 241/241/241 240/240/240
f 240/240/240 239/239/239 238/238/238
f 235/235/235 81/81/81 237/237/237
f 237/237/237 236/236/236 235/235/235
f 232/232/232 80/80/80 234/234/234
f 234/234/234 233/233/233 232/232/232
f 230/230/230 79/79/79 78/78/78
f 78/78/78 231/231/231 230/230/230
f 76/76/76 75/75/75 74/74/74
f 74/74/74 77/77/77 76/76/76
f 226/226/226 229/229/229 228/228/228
f 228/228/228 227/227/227 226/226/226
f 222/222/222 225/225/225 224/224/224
f 224/224/224 223/223/223 222/222/222
f 72/72/72 221/221/221 220/220/220
f 220/220/220 73/73/73 72/72/72
f 71/71/71 70/70/70 219/219/219
f 219/219/219 218/218/218 71/71/71
f 68/68/68 67/67/67 66/66/66
f 66/66/66 69/69/69 68/68/68
f 214/214/214 217/217/217 216/216/216
f 216/216/216 215/215/215 214/214/214
f 210/210/210 213/213/213 212/212/212
f 212/212/212 211/211/211 210/210/210
f 64/64/64 209/209/209 208/208/208
f 208/208/208 65/65/65 64/64/64
f 63/63/63 62/62/62 207/207/207
f 207/207/207 206/206/206 63/63/63
f 60/60/60 59/59/59 58/58/58
f 58/58/58 61/61/61 60/60/60
f 202/202/202 205/205/205 204/204/204
f 204/204/204 203/203/203 202/202/202
f 199/199/199 201/201/201 200/200/200
f 200/200/200 57/57/57 199/199/199
f 196/196/196 198/198/198 197/197/197
f 197/197/197 56/56/56 196/196/196
f 194/194/194 195/195/195 54/54/54
f 54/54/54 55/55/55 194/194/194
f 52/52/52 51/51/51 50/50/50
f 50/50/50 53/53/53 52/52/52
f 192/192/192 193/193/193 191/191/191
f 192/192/192 191/191/191 190/190/190
f 188/188/188 388/388/388 387/387/387
f 386/386/386 189/189/189 188/188/188
f 48/48/48 44/44/44 385/385/385
f 384/384/384 383/383/383 48/48/48
f 47/47/47 43/43/43 382/382/382
f 381/381/381 380/380/380 47/47/47
f 42/42/42 45/45/45 49/49/49
f 49/49/49 46/46/46 42/42/42
f 184/184/184 187/187/187 186/186/186
f 186/186/186 185/185/185 184/184/184
f 182/182/182 379/379/379 378/378/378
f 377/377/377 183/183/183 182/182/182
f 376/376/376 41/41/41 37/37/37
f 37/37/37 375/375/375 374/374/374
f 373/373/373 40/40/40 36/36/36
f 36/36/36 372/372/372 371/371/371
f 38/38/38 39/39/39 35/35/35
f 35/35/35 34/34/34 38/38/38
f 178/178/178 181/181/181 180/180/180
f 180/180/180 179/179/179 178/178/178
f 176/176/176 370/370/370 369/369/369
f 368/368/368 177/177/177 176/176/176
f 367/367/367 33/33/33 29/29/29
f 29/29/29 366/366/366 365/365/365
f 364/364/364 32/32/32 28/28/28
f 28/28/28 363/363/363 362/362/362
f 30/30/30 31/31/31 27/27/27
f 27/27/27 26/26/26 30/30/30
f 24/24/24 25/25/25 174/174/174
f 174/174/174 175/175/175 24/24/24
f 20/20/20 174/174/174 25/25/25
f 361/361/361 22/22/22 18/18/18
f 18/18/18 360/360/360 359/359/359
f 19/19/19 358/358/358 357/357/357
f 17/17/17 25/25/25 24/24/24
f 24/24/24 356/356/356 17/17/17
f 23/23/23 21/21/21 19/19/19
f 19/19/19 355/355/355 23/23/23
f 18/18/18 354/354/354 19/19/19
f 20/20/20 25/25/25 17/17/17
f 170/170/170 173/173/173 172/172/172
f 172/172/172 171/171/171 170/170/170
f 15/15/15 11/11/11 12/12/12
f 12/12/12 16/16/16 15/15/15
f 14/14/14 10/10/10 9/9/9
f 9/9/9 13/13/13 14/14/14
f 8/8/8 6/6/6 5/5/5
f 5/5/5 7/7/7 8/8/8
f 4/4/4 2/2/2 1/1/1
f 1/1/1 3/3/3 4/4/4
