v -0.598752 -3.689926 0.018744000000000226
v -0.598752 -3.689926 0.060922000000000226
v -0.726729 -3.482348 0.06092200000000021
v -0.726729 -3.482348 0.018744000000000212
v -0.380923 -3.555628 0.01874400000000022
v -0.380923 -3.555628 0.06092200000000021
v -0.598752 -3.689926 0.060922000000000226
v -0.598752 -3.689926 0.018744000000000226
v -0.508901 -3.348051 0.018744000000000205
v -0.508901 -3.348051 0.060922000000000205
v -0.380923 -3.555628 0.06092200000000021
v -0.380923 -3.555628 0.01874400000000022
v -0.726729 -3.482348 0.018744000000000212
v -0.726729 -3.482348 0.06092200000000021
v -0.508901 -3.348051 0.060922000000000205
v -0.508901 -3.348051 0.018744000000000205
v -0.726729 -3.482348 0.06092200000000021
v -0.598752 -3.689926 0.060922000000000226
v -0.380923 -3.555628 0.06092200000000021
v -0.508901 -3.348051 0.060922000000000205
v -0.598752 -3.689926 0.20651300000000022
v -0.598752 -3.689926 0.24869200000000022
v -0.726729 -3.482348 0.24869200000000022
v -0.726729 -3.482348 0.20651300000000022
v -0.380923 -3.555628 0.20651300000000022
v -0.380923 -3.555628 0.24869200000000022
v -0.598752 -3.689926 0.24869200000000022
v -0.598752 -3.689926 0.20651300000000022
v -0.508901 -3.348051 0.2065130000000002
v -0.508901 -3.348051 0.2486920000000002
v -0.380923 -3.555628 0.24869200000000022
v -0.380923 -3.555628 0.20651300000000022
v -0.726729 -3.482348 0.20651300000000022
v -0.726729 -3.482348 0.24869200000000022
v -0.508901 -3.348051 0.2486920000000002
v -0.508901 -3.348051 0.2065130000000002
v -0.726729 -3.482348 0.24869200000000022
v -0.598752 -3.689926 0.24869200000000022
v -0.380923 -3.555628 0.24869200000000022
v -0.508901 -3.348051 0.2486920000000002
v -0.71638 -3.48649 0.2691050000000002
v -0.71638 -3.48649 -0.0010819999999997865
v -0.597152 -3.679876 -0.0010819999999997748
v -0.597152 -3.679876 0.2691050000000002
v -0.597152 -3.679876 0.2691050000000002
v -0.597152 -3.679876 -0.0010819999999997748
v -0.390784 -3.552644 -0.0010819999999997826
v -0.390784 -3.552644 0.2691050000000002
v -0.390784 -3.552644 0.2691050000000002
v -0.390784 -3.552644 -0.0010819999999997826
v -0.510012 -3.359258 -0.0010819999999997943
v -0.510012 -3.359258 0.2691050000000002
v -0.510012 -3.359258 0.2691050000000002
v -0.510012 -3.359258 -0.0010819999999997943
v -0.71638 -3.48649 -0.0010819999999997865
v -0.71638 -3.48649 0.2691050000000002
v -0.71638 -3.48649 0.2691050000000002
v -0.597152 -3.679876 0.2691050000000002
v -0.390784 -3.552644 0.2691050000000002
v -0.510012 -3.359258 0.2691050000000002
vt 0.496857 0.961199
vt 0.496857 0.877693
vt 0.980273 0.877693
vt 0.980273 0.961199
vt 0.985210 0.957309
vt 0.985210 0.876529
vt 0.494779 0.876529
vt 0.494779 0.957309
vt 0.980273 0.961199
vt 0.980273 0.877693
vt 0.496857 0.877693
vt 0.496857 0.961199
vt 0.494779 0.957309
vt 0.494779 0.876529
vt 0.985210 0.876529
vt 0.985210 0.957309
vt 0.005716 0.999170
vt 0.005716 0.502813
vt 0.476021 0.502813
vt 0.476020 0.999170
vt 0.496857 0.617101
vt 0.496857 0.533595
vt 0.980273 0.533595
vt 0.980273 0.617101
vt 0.985210 0.613210
vt 0.985210 0.532431
vt 0.494779 0.532431
vt 0.494779 0.613210
vt 0.980273 0.617101
vt 0.980273 0.533595
vt 0.496857 0.533595
vt 0.496857 0.617101
vt 0.494779 0.613210
vt 0.494779 0.532431
vt 0.985210 0.532431
vt 0.985210 0.613210
vt 0.005716 0.999170
vt 0.005716 0.502813
vt 0.476021 0.502813
vt 0.476020 0.999170
vt 0.501646 0.493342
vt 0.507052 0.987202
vt 0.985062 0.987196
vt 0.985062 0.493342
vt 0.504720 0.496956
vt 0.504720 0.988694
vt 0.975448 0.990053
vt 0.975448 0.496956
vt 0.985062 0.493342
vt 0.985062 0.986682
vt 0.501646 0.986682
vt 0.501646 0.493342
vt 0.975448 0.496956
vt 0.975448 0.991935
vt 0.510127 0.990654
vt 0.504720 0.496956
vt 0.004465 1.002697
vt 0.004465 0.503833
vt 0.482013 0.503833
vt 0.482013 1.002697
vn -0.851223 -0.524804 3.213497693898638E-17
vn -0.851223 -0.524804 3.213497693898638E-17
vn -0.851223 -0.524804 3.213497693898638E-17
vn -0.851223 -0.524804 3.213497693898638E-17
vn 0.524804 -0.851223 5.212237611553037E-17
vn 0.524804 -0.851223 5.212237611553037E-17
vn 0.524804 -0.851223 5.212237611553037E-17
vn 0.524804 -0.851223 5.212237611553037E-17
vn 0.851223 0.524804 -3.213497693898638E-17
vn 0.851223 0.524804 -3.213497693898638E-17
vn 0.851223 0.524804 -3.213497693898638E-17
vn 0.851223 0.524804 -3.213497693898638E-17
vn -0.524804 0.851223 -5.212237611553037E-17
vn -0.524804 0.851223 -5.212237611553037E-17
vn -0.524804 0.851223 -5.212237611553037E-17
vn -0.524804 0.851223 -5.212237611553037E-17
vn -0 6.123233995736766E-17 1
vn -0 6.123233995736766E-17 1
vn -0 6.123233995736766E-17 1
vn -0 6.123233995736766E-17 1
vn -0.851223 -0.524804 3.213497693898638E-17
vn -0.851223 -0.524804 3.213497693898638E-17
vn -0.851223 -0.524804 3.213497693898638E-17
vn -0.851223 -0.524804 3.213497693898638E-17
vn 0.524804 -0.851223 5.212237611553037E-17
vn 0.524804 -0.851223 5.212237611553037E-17
vn 0.524804 -0.851223 5.212237611553037E-17
vn 0.524804 -0.851223 5.212237611553037E-17
vn 0.851223 0.524804 -3.213497693898638E-17
vn 0.851223 0.524804 -3.213497693898638E-17
vn 0.851223 0.524804 -3.213497693898638E-17
vn 0.851223 0.524804 -3.213497693898638E-17
vn -0.524804 0.851223 -5.212237611553037E-17
vn -0.524804 0.851223 -5.212237611553037E-17
vn -0.524804 0.851223 -5.212237611553037E-17
vn -0.524804 0.851223 -5.212237611553037E-17
vn -0 6.123233995736766E-17 1
vn -0 6.123233995736766E-17 1
vn -0 6.123233995736766E-17 1
vn -0 6.123233995736766E-17 1
vn -0.851223 -0.524804 3.213497693898638E-17
vn -0.851223 -0.524804 3.213497693898638E-17
vn -0.851223 -0.524804 3.213497693898638E-17
vn -0.851223 -0.524804 3.213497693898638E-17
vn 0.524804 -0.851223 5.212237611553037E-17
vn 0.524804 -0.851223 5.212237611553037E-17
vn 0.524804 -0.851223 5.212237611553037E-17
vn 0.524804 -0.851223 5.212237611553037E-17
vn 0.851223 0.524804 -3.213497693898638E-17
vn 0.851223 0.524804 -3.213497693898638E-17
vn 0.851223 0.524804 -3.213497693898638E-17
vn 0.851223 0.524804 -3.213497693898638E-17
vn -0.524804 0.851223 -5.212237611553037E-17
vn -0.524804 0.851223 -5.212237611553037E-17
vn -0.524804 0.851223 -5.212237611553037E-17
vn -0.524804 0.851223 -5.212237611553037E-17
vn -0 6.123233995736766E-17 1
vn -0 6.123233995736766E-17 1
vn -0 6.123233995736766E-17 1
vn -0 6.123233995736766E-17 1
g kiste
f 1/1/1 2/2/2 3/3/3
f 3/3/3 4/4/4 1/1/1
f 5/5/5 6/6/6 7/7/7
f 7/7/7 8/8/8 5/5/5
f 9/9/9 10/10/10 11/11/11
f 11/11/11 12/12/12 9/9/9
f 13/13/13 14/14/14 15/15/15
f 15/15/15 16/16/16 13/13/13
f 17/17/17 18/18/18 19/19/19
f 19/19/19 20/20/20 17/17/17
f 21/21/21 22/22/22 23/23/23
f 23/23/23 24/24/24 21/21/21
f 25/25/25 26/26/26 27/27/27
f 27/27/27 28/28/28 25/25/25
f 29/29/29 30/30/30 31/31/31
f 31/31/31 32/32/32 29/29/29
f 33/33/33 34/34/34 35/35/35
f 35/35/35 36/36/36 33/33/33
f 37/37/37 38/38/38 39/39/39
f 39/39/39 40/40/40 37/37/37
f 41/41/41 42/42/42 43/43/43
f 43/43/43 44/44/44 41/41/41
f 45/45/45 46/46/46 47/47/47
f 47/47/47 48/48/48 45/45/45
f 49/49/49 50/50/50 51/51/51
f 51/51/51 52/52/52 49/49/49
f 53/53/53 54/54/54 55/55/55
f 55/55/55 56/56/56 53/53/53
f 57/57/57 58/58/58 59/59/59
f 59/59/59 60/60/60 57/57/57
