v 0.038104 -0.33478 0.05283900000000002
v 0.038104 -0.33478 0.337153
v 0.038104 0.300431 0.337153
v 0.038104 0.300431 0.052838999999999976
v 0.549114 -0.163835 0.205476
v 0.396268 -0.163532 0.205614
v 0.396115 -0.164033 0.181636
v 0.548899 -0.16425 0.181532
v 0.411742 0.359213 0.20822399999999996
v 0.411528 0.358876 0.18315099999999998
v 0.559463 0.358639 0.20726599999999998
v 0.559784 0.359145 0.18311299999999997
v 0.424536 0.311065 0.19171699999999997
v 0.423461 0.309233 0.021060999999999983
v 0.449201 0.335405 0.02100699999999998
v 0.449941 0.336644 0.19122099999999997
v 0.425299 0.338065 0.19188499999999997
v 0.424224 0.336296 0.02107999999999998
v 0.439945 -0.132298 0.187482
v 0.43883 -0.135514 0.020599000000000006
v 0.414573 -0.107615 0.020660000000000008
v 0.415664 -0.10438399999999999 0.188039
v 0.414902 -0.131384 0.187872
v 0.41381 -0.134679 0.020642000000000008
v 0.506138 -0.137239 0.020327000000000008
v 0.507402 -0.134527 0.184993
v 0.533067 -0.10861799999999999 0.184675
v 0.531906 -0.11103 0.020293000000000005
v 0.531158 -0.138075 0.020285000000000008
v 0.532445 -0.135441 0.184603
v 0.54148 0.304818 0.02044899999999998
v 0.538628 0.30665 0.18610699999999997
v 0.513213 0.331926 0.18669099999999997
v 0.515325 0.330544 0.02051299999999998
v 0.542371 0.329795 0.020521999999999978
v 0.54005 0.331292 0.18676999999999996
v 0.37447 0.06314600000000001 0.207454
v 0.380901 0.346127 0.20923899999999998
v 0.538546 0.343905 0.20586299999999996
v 0.530505 0.058713000000000015 0.205862
v 0.531023 0.05866000000000001 0.28123
v 0.538301 0.342553 0.282154
v 0.374986 0.06309300000000001 0.28282
v 0.380656 0.344776 0.285528
v 0.346132 -0.317837 -0.0007499999999999805
v 0.396427 -0.179203 0.00019800000000001097
v 0.550853 -0.241651 -0.003177999999999985
v 0.498143 -0.383299 -0.0031779999999999764
v 0.490553 -0.380261 0.08255700000000003
v 0.542427 -0.239739 0.08304800000000001
v 0.346132 -0.317837 0.21386600000000003
v 0.396427 -0.179204 0.215297
v 0.057442 -0.355985 -0.003161999999999978
v 0.057442 -0.35598499999999994 0.675006
v 0.033742 -0.34190699999999996 0.675006
v 0.033742 -0.341907 -0.003161999999999979
v 0.059963 -0.33153699999999997 0.675006
v 0.059963 -0.331537 -0.0031619999999999795
v 0.052841 0.003594 -0.0031620000000000003
v 0.052841 0.0035940000000000555 0.903984
v 0.029141 0.017672000000000056 0.903984
v 0.029141 0.017672 -0.0031620000000000007
v 0.055362 0.028043000000000054 0.903984
v 0.055362 0.028043 -0.0031620000000000016
v 0.053004 0.302224 -0.0031620000000000185
v 0.053004 0.30222400000000005 0.903984
v 0.029304 0.3163020000000001 0.903984
v 0.029304 0.316302 -0.0031620000000000194
v 0.055525 0.32667300000000005 0.903984
v 0.055525 0.326673 -0.00316200000000002
v 0.28452 -0.108583 -0.0031619999999999934
v 0.28452 -0.10858299999999996 0.706868
v 0.26082 -0.09450499999999996 0.706868
v 0.26082 -0.094505 -0.0031619999999999942
v 0.287041 -0.08413399999999996 0.706868
v 0.287041 -0.084134 -0.0031619999999999947
v 0.306498 0.311156 -0.003162000000000019
v 0.306498 0.31115600000000004 0.706868
v 0.282798 0.3252340000000001 0.706868
v 0.282798 0.325234 -0.00316200000000002
v 0.309019 0.33560500000000004 0.706868
v 0.309019 0.335605 -0.0031620000000000203
v 0.03989 -0.370435 0.363076
v 0.03989 0.381177 0.363076
v 0.027281 0.381176 0.337514
v 0.027281 -0.370435 0.337514
v 0.055821 0.381176 0.340523
v 0.055821 -0.370435 0.340523
v 0.013041 0.332819 0.384958
v 0.340012 0.332819 0.384958
v 0.340012 0.349371 0.359769
v 0.013041 0.349371 0.359769
v 0.340012 0.318726 0.361189
v 0.013041 0.318726 0.361189
v 0.525965 0.329742 0.282266
v 0.519358 0.07199500000000002 0.281509
v 0.387245 0.07572800000000002 0.282707
v 0.392397 0.331615 0.285249
v 0.528826 -0.248011 0.09145000000000002
v 0.485917 -0.364269 0.09105700000000003
v 0.362643 -0.310966 0.20553100000000002
v 0.404224 -0.196375 0.206729
v 0.525753 0.329847 0.262789
v 0.519146 0.07209900000000001 0.262033
v 0.387033 0.07583300000000001 0.263231
v 0.392185 0.331719 0.265772
v 0.520245 -0.244247 0.07556300000000002
v 0.477336 -0.360505 0.07517000000000003
v 0.354062 -0.307202 0.18964400000000003
v 0.395643 -0.192611 0.190841
v 0.525753 0.329847 0.262789
v 0.519146 0.07209900000000001 0.262033
v 0.387033 0.07583300000000001 0.263231
v 0.392185 0.331719 0.265772
v 0.520245 -0.244247 0.07556300000000002
v 0.477336 -0.360505 0.07517000000000003
v 0.354062 -0.307202 0.18964400000000003
v 0.395643 -0.192611 0.190841
v 0.704375 0.172045 0.07668799999999999
v 0.710481 0.377544 0.07868199999999997
v 0.660908 0.380597 0.020755999999999976
v 0.654825 0.173764 0.01991999999999999
v 0.58713 0.173443 0.179749
v 0.537583 0.175162 0.12298199999999998
v 0.593182 0.376662 0.18407799999999996
v 0.543611 0.379714 0.12615399999999996
v 0.695714 0.185144 0.08489599999999999
v 0.701204 0.3645 0.08643299999999997
v 0.596349 0.186311 0.172043
v 0.601901 0.363739 0.17582599999999998
v 0.68285 0.185677 0.07027999999999998
v 0.68834 0.365033 0.07181699999999998
v 0.583485 0.186844 0.157427
v 0.589037 0.364272 0.16120999999999996
v 0.77219 0.118203 0.054003999999999996
v 0.590414 0.12548000000000004 0.272072
v 0.531103 0.125725 0.224069
v 0.71442 0.117684 0.005598999999999993
v 0.770557 -0.037834999999999994 0.058422
v 0.71279 -0.038351 0.010018000000000003
v 0.59157 -0.032164999999999985 0.275944
v 0.53226 -0.03191899999999999 0.227942
v 0.763832 0.106538 0.064399
v 0.598734 0.11314400000000001 0.262331
v 0.76235 -0.025575999999999998 0.068029
v 0.599816 -0.020423999999999984 0.265683
v 0.748845 0.106325 0.05195899999999999
v 0.583747 0.11293200000000002 0.249892
v 0.747363 -0.025787999999999995 0.05559
v 0.584829 -0.020635999999999988 0.253244
v 0.68285 0.185677 0.07027999999999998
v 0.68834 0.365033 0.07181699999999998
v 0.583485 0.186844 0.157427
v 0.589037 0.364272 0.16120999999999996
v 0.748845 0.106325 0.05195899999999999
v 0.583747 0.11293200000000002 0.249892
v 0.747363 -0.025787999999999995 0.05559
v 0.584829 -0.020635999999999988 0.253244
v 0.042209 -0.33478 0.05283900000000002
v 0.042209 0.300431 0.052838999999999976
v 0.042209 0.300431 0.337153
v 0.042209 -0.33478 0.337153
v 0.396115 -0.164033 0.181636
v 0.396268 -0.163532 0.205614
v 0.411528 0.358876 0.18315099999999998
v 0.411742 0.359213 0.20822399999999996
v 0.549114 -0.163835 0.205476
v 0.559463 0.358639 0.20726599999999998
v 0.559784 0.359145 0.18311299999999997
v 0.548899 -0.16425 0.181532
v 0.549114 -0.163835 0.205476
v 0.396268 -0.163532 0.205614
v 0.411742 0.359213 0.20822399999999996
v 0.559463 0.358639 0.20726599999999998
v 0.424224 0.336296 0.02107999999999998
v 0.425299 0.338065 0.19188499999999997
v 0.41381 -0.134679 0.020642000000000008
v 0.414902 -0.131384 0.187872
v 0.532445 -0.135441 0.184603
v 0.531158 -0.138075 0.020285000000000008
v 0.54005 0.331292 0.18676999999999996
v 0.542371 0.329795 0.020521999999999978
v 0.530505 0.058713000000000015 0.205862
v 0.531023 0.05866000000000001 0.28123
v 0.37447 0.06314600000000001 0.207454
v 0.374986 0.06309300000000001 0.28282
v 0.380901 0.346127 0.20923899999999998
v 0.538546 0.343905 0.20586299999999996
v 0.538301 0.342553 0.282154
v 0.380656 0.344776 0.285528
v 0.498143 -0.383299 -0.0031779999999999764
v 0.490553 -0.380261 0.08255700000000003
v 0.346132 -0.317837 -0.0007499999999999805
v 0.346132 -0.317837 0.21386600000000003
v 0.396427 -0.179203 0.00019800000000001097
v 0.550853 -0.241651 -0.003177999999999985
v 0.542427 -0.239739 0.08304800000000001
v 0.396427 -0.179204 0.215297
v 0.033742 -0.34190699999999996 0.675006
v 0.033742 -0.341907 -0.003161999999999979
v 0.057442 -0.35598499999999994 0.675006
v 0.059963 -0.33153699999999997 0.675006
v 0.059963 -0.331537 -0.0031619999999999795
v 0.057442 -0.355985 -0.003161999999999978
v 0.029141 0.017672000000000056 0.903984
v 0.029141 0.017672 -0.0031620000000000007
v 0.052841 0.0035940000000000555 0.903984
v 0.055362 0.028043000000000054 0.903984
v 0.055362 0.028043 -0.0031620000000000016
v 0.052841 0.003594 -0.0031620000000000003
v 0.029304 0.3163020000000001 0.903984
v 0.029304 0.316302 -0.0031620000000000194
v 0.053004 0.30222400000000005 0.903984
v 0.055525 0.32667300000000005 0.903984
v 0.055525 0.326673 -0.00316200000000002
v 0.053004 0.302224 -0.0031620000000000185
v 0.26082 -0.09450499999999996 0.706868
v 0.26082 -0.094505 -0.0031619999999999942
v 0.28452 -0.10858299999999996 0.706868
v 0.287041 -0.08413399999999996 0.706868
v 0.287041 -0.084134 -0.0031619999999999947
v 0.28452 -0.108583 -0.0031619999999999934
v 0.282798 0.3252340000000001 0.706868
v 0.282798 0.325234 -0.00316200000000002
v 0.306498 0.31115600000000004 0.706868
v 0.309019 0.33560500000000004 0.706868
v 0.309019 0.335605 -0.0031620000000000203
v 0.306498 0.311156 -0.003162000000000019
v 0.03989 0.381177 0.363076
v 0.03989 -0.370435 0.363076
v 0.340012 0.332819 0.384958
v 0.013041 0.332819 0.384958
v 0.538301 0.342553 0.282154
v 0.531023 0.05866000000000001 0.28123
v 0.374986 0.06309300000000001 0.28282
v 0.519358 0.07199500000000002 0.281509
v 0.380656 0.344776 0.285528
v 0.387245 0.07572800000000002 0.282707
v 0.380656 0.344776 0.285528
v 0.525965 0.329742 0.282266
v 0.392397 0.331615 0.285249
v 0.542427 -0.239739 0.08304800000000001
v 0.490553 -0.380261 0.08255700000000003
v 0.346132 -0.317837 0.21386600000000003
v 0.485917 -0.364269 0.09105700000000003
v 0.396427 -0.179204 0.215297
v 0.362643 -0.310966 0.20553100000000002
v 0.396427 -0.179204 0.215297
v 0.528826 -0.248011 0.09145000000000002
v 0.404224 -0.196375 0.206729
v 0.525965 0.329742 0.282266
v 0.519358 0.07199500000000002 0.281509
v 0.519358 0.07199500000000002 0.281509
v 0.387245 0.07572800000000002 0.282707
v 0.519146 0.07209900000000001 0.262033
v 0.387245 0.07572800000000002 0.282707
v 0.392397 0.331615 0.285249
v 0.387033 0.07583300000000001 0.263231
v 0.392397 0.331615 0.285249
v 0.525965 0.329742 0.282266
v 0.525753 0.329847 0.262789
v 0.392185 0.331719 0.265772
v 0.528826 -0.248011 0.09145000000000002
v 0.485917 -0.364269 0.09105700000000003
v 0.485917 -0.364269 0.09105700000000003
v 0.362643 -0.310966 0.20553100000000002
v 0.477336 -0.360505 0.07517000000000003
v 0.362643 -0.310966 0.20553100000000002
v 0.404224 -0.196375 0.206729
v 0.354062 -0.307202 0.18964400000000003
v 0.404224 -0.196375 0.206729
v 0.528826 -0.248011 0.09145000000000002
v 0.520245 -0.244247 0.07556300000000002
v 0.395643 -0.192611 0.190841
v 0.654825 0.173764 0.01991999999999999
v 0.704375 0.172045 0.07668799999999999
v 0.537583 0.175162 0.12298199999999998
v 0.58713 0.173443 0.179749
v 0.543611 0.379714 0.12615399999999996
v 0.660908 0.380597 0.020755999999999976
v 0.710481 0.377544 0.07868199999999997
v 0.593182 0.376662 0.18407799999999996
v 0.710481 0.377544 0.07868199999999997
v 0.704375 0.172045 0.07668799999999999
v 0.58713 0.173443 0.179749
v 0.695714 0.185144 0.08489599999999999
v 0.593182 0.376662 0.18407799999999996
v 0.596349 0.186311 0.172043
v 0.593182 0.376662 0.18407799999999996
v 0.701204 0.3645 0.08643299999999997
v 0.601901 0.363739 0.17582599999999998
v 0.701204 0.3645 0.08643299999999997
v 0.695714 0.185144 0.08489599999999999
v 0.695714 0.185144 0.08489599999999999
v 0.596349 0.186311 0.172043
v 0.68285 0.185677 0.07027999999999998
v 0.596349 0.186311 0.172043
v 0.601901 0.363739 0.17582599999999998
v 0.583485 0.186844 0.157427
v 0.601901 0.363739 0.17582599999999998
v 0.701204 0.3645 0.08643299999999997
v 0.68834 0.365033 0.07181699999999998
v 0.589037 0.364272 0.16120999999999996
v 0.71442 0.117684 0.005598999999999993
v 0.77219 0.118203 0.054003999999999996
v 0.71279 -0.038351 0.010018000000000003
v 0.770557 -0.037834999999999994 0.058422
v 0.53226 -0.03191899999999999 0.227942
v 0.531103 0.125725 0.224069
v 0.590414 0.12548000000000004 0.272072
v 0.59157 -0.032164999999999985 0.275944
v 0.590414 0.12548000000000004 0.272072
v 0.77219 0.118203 0.054003999999999996
v 0.770557 -0.037834999999999994 0.058422
v 0.763832 0.106538 0.064399
v 0.59157 -0.032164999999999985 0.275944
v 0.76235 -0.025575999999999998 0.068029
v 0.59157 -0.032164999999999985 0.275944
v 0.598734 0.11314400000000001 0.262331
v 0.599816 -0.020423999999999984 0.265683
v 0.598734 0.11314400000000001 0.262331
v 0.763832 0.106538 0.064399
v 0.763832 0.106538 0.064399
v 0.76235 -0.025575999999999998 0.068029
v 0.748845 0.106325 0.05195899999999999
v 0.76235 -0.025575999999999998 0.068029
v 0.599816 -0.020423999999999984 0.265683
v 0.747363 -0.025787999999999995 0.05559
v 0.599816 -0.020423999999999984 0.265683
v 0.598734 0.11314400000000001 0.262331
v 0.583747 0.11293200000000002 0.249892
v 0.584829 -0.020635999999999988 0.253244
v 0.589037 0.364272 0.16120999999999996
v 0.68285 0.185677 0.07027999999999998
v 0.583747 0.11293200000000002 0.249892
v 0.747363 -0.025787999999999995 0.05559
v 0.531023 0.05866000000000001 0.28123
v 0.531023 0.05866000000000001 0.28123
v 0.374986 0.06309300000000001 0.28282
v 0.374986 0.06309300000000001 0.28282
v 0.538301 0.342553 0.282154
v 0.346132 -0.317837 0.21386600000000003
v 0.346132 -0.317837 0.21386600000000003
v 0.542427 -0.239739 0.08304800000000001
v 0.704375 0.172045 0.07668799999999999
v 0.704375 0.172045 0.07668799999999999
v 0.58713 0.173443 0.179749
v 0.58713 0.173443 0.179749
v 0.710481 0.377544 0.07868199999999997
v 0.77219 0.118203 0.054003999999999996
v 0.77219 0.118203 0.054003999999999996
v 0.770557 -0.037834999999999994 0.058422
v 0.770557 -0.037834999999999994 0.058422
v 0.590414 0.12548000000000004 0.272072
vt 0.419879 0.404595
vt 0.419879 0.229986
vt 0.858630 0.229986
vt 0.858630 0.404595
vt 0.368750 0.034688
vt 0.228526 0.034746
vt 0.228526 0.016327
vt 0.368750 0.016294
vt 0.224164 0.493140
vt 0.205255 0.493140
vt 0.369003 0.498249
vt 0.369004 0.517173
vt 0.099144 0.241973
vt 0.099141 0.426481
vt 0.187818 0.426481
vt 0.187877 0.241974
vt 0.144386 0.241973
vt 0.144384 0.426481
vt 0.099141 0.241976
vt 0.099138 0.426470
vt 0.187852 0.426477
vt 0.187851 0.241976
vt 0.144380 0.241981
vt 0.144385 0.426483
vt 0.187869 0.426481
vt 0.187857 0.241981
vt 0.099139 0.241982
vt 0.099144 0.426481
vt 0.144384 0.426481
vt 0.144379 0.241982
vt 0.187826 0.426481
vt 0.187706 0.241980
vt 0.099126 0.241983
vt 0.099142 0.426490
vt 0.144430 0.426481
vt 0.144419 0.241979
vt 0.585320 0.415229
vt 0.400741 0.415233
vt 0.882013 0.415225
vt 0.695767 0.415228
vt 0.695859 0.475100
vt 0.881898 0.475073
vt 0.585406 0.475121
vt 0.400759 0.475191
vt 0.192263 0.915325
vt 0.192265 0.993858
vt 0.192251 0.735286
vt 0.192251 0.816611
vt 0.234534 0.816632
vt 0.234453 0.735181
vt 0.297524 0.915090
vt 0.300228 0.993978
vt 0.124335 0.992980
vt 0.124335 0.439458
vt 0.149177 0.439458
vt 0.149177 0.992980
vt 0.175571 0.439458
vt 0.175571 0.992980
vt 0.057714 0.992247
vt 0.057714 0.274229
vt 0.082508 0.274229
vt 0.082508 0.992247
vt 0.033762 0.274229
vt 0.033762 0.992247
vt 0.033725 0.992247
vt 0.033725 0.274229
vt 0.057582 0.274229
vt 0.057582 0.992247
vt 0.082513 0.274229
vt 0.082513 0.992247
vt 0.124455 0.992980
vt 0.124455 0.439356
vt 0.149378 0.439356
vt 0.149378 0.992980
vt 0.175092 0.439356
vt 0.175092 0.992980
vt 0.149335 0.992980
vt 0.149335 0.439356
vt 0.175425 0.439356
vt 0.175425 0.992980
vt 0.125113 0.439356
vt 0.125113 0.992980
vt 0.401371 0.205340
vt 0.920382 0.205340
vt 0.920382 0.221032
vt 0.401371 0.221032
vt 0.920413 0.191494
vt 0.401593 0.191494
vt 0.194474 0.547296
vt 0.465458 0.547296
vt 0.465458 0.564449
vt 0.194474 0.564449
vt 0.465458 0.531111
vt 0.194474 0.531111
vt 0.873180 0.485974
vt 0.704571 0.485982
vt 0.594080 0.485989
vt 0.409996 0.486013
vt 0.238398 0.741580
vt 0.238202 0.808803
vt 0.297920 0.898857
vt 0.307700 0.988336
vt 0.873213 0.501328
vt 0.704605 0.501342
vt 0.594088 0.501354
vt 0.410047 0.501393
vt 0.247785 0.741292
vt 0.247587 0.809132
vt 0.306056 0.894333
vt 0.317093 0.988536
vt 0.005421 0.120862
vt 0.196879 0.120867
vt 0.196945 0.010708
vt 0.005442 0.010429
vt 0.873344 0.177869
vt 0.988828 0.177989
vt 0.988830 0.019574
vt 0.873397 0.019144
vt 0.695859 0.475100
vt 0.881898 0.475073
vt 0.882013 0.415225
vt 0.695767 0.415228
vt 0.585406 0.475121
vt 0.585320 0.415229
vt 0.400759 0.475191
vt 0.400741 0.415233
vt 0.704571 0.485982
vt 0.873180 0.485974
vt 0.594080 0.485989
vt 0.409996 0.486013
vt 0.704605 0.501342
vt 0.873213 0.501328
vt 0.594088 0.501354
vt 0.410047 0.501393
vt 0.695859 0.475100
vt 0.881898 0.475073
vt 0.882013 0.415225
vt 0.695767 0.415228
vt 0.585406 0.475121
vt 0.585320 0.415229
vt 0.400759 0.475191
vt 0.400741 0.415233
vt 0.704571 0.485982
vt 0.873180 0.485974
vt 0.594080 0.485989
vt 0.409996 0.486013
vt 0.704605 0.501342
vt 0.873213 0.501328
vt 0.594088 0.501354
vt 0.410047 0.501393
vt 0.988847 0.234044
vt 0.988846 0.394366
vt 0.873308 0.234021
vt 0.873281 0.394353
vt 0.196945 0.230429
vt 0.005418 0.230587
vt 0.196923 0.129650
vt 0.005428 0.129558
vt 0.419879 0.009089
vt 0.858630 0.009089
vt 0.858630 0.183698
vt 0.419879 0.183698
vt 0.205152 0.041066
vt 0.223923 0.041066
vt 0.228812 0.517129
vt 0.228813 0.498239
vt 0.373698 0.041066
vt 0.373525 0.493140
vt 0.392005 0.493140
vt 0.392164 0.041066
vt 0.368805 0.039990
vt 0.228570 0.039990
vt 0.228568 0.491991
vt 0.368789 0.491991
vt 0.144384 0.426481
vt 0.144386 0.241973
vt 0.144385 0.426483
vt 0.144380 0.241981
vt 0.144379 0.241982
vt 0.144384 0.426481
vt 0.144419 0.241979
vt 0.144430 0.426481
vt 0.695767 0.415228
vt 0.695859 0.475100
vt 0.585320 0.415229
vt 0.585406 0.475121
vt 0.993581 0.415231
vt 0.882013 0.415225
vt 0.881898 0.475073
vt 0.993366 0.475159
vt 0.192251 0.816611
vt 0.234534 0.816632
vt 0.192263 0.915325
vt 0.297524 0.915090
vt 0.192254 0.637811
vt 0.192251 0.735286
vt 0.234453 0.735181
vt 0.295231 0.638024
vt 0.149177 0.439458
vt 0.149177 0.992980
vt 0.124335 0.439458
vt 0.101014 0.439458
vt 0.101014 0.992980
vt 0.124335 0.992980
vt 0.009382 0.274229
vt 0.009382 0.992247
vt 0.057714 0.274229
vt 0.033762 0.274229
vt 0.033762 0.992247
vt 0.057714 0.992247
vt 0.057582 0.274229
vt 0.057582 0.992247
vt 0.033725 0.274229
vt 0.009313 0.274229
vt 0.009313 0.992247
vt 0.033725 0.992247
vt 0.149378 0.439356
vt 0.149378 0.992980
vt 0.124455 0.439356
vt 0.101283 0.439356
vt 0.101283 0.992980
vt 0.124455 0.992980
vt 0.100912 0.439356
vt 0.100912 0.992980
vt 0.149335 0.439356
vt 0.125113 0.439356
vt 0.125113 0.992980
vt 0.149335 0.992980
vt 0.920382 0.205340
vt 0.401371 0.205340
vt 0.465458 0.547296
vt 0.194474 0.547296
vt 0.881898 0.475073
vt 0.695859 0.475100
vt 0.585406 0.475121
vt 0.687596 0.485983
vt 0.400759 0.475191
vt 0.577319 0.485991
vt 0.993366 0.475159
vt 0.889916 0.485976
vt 0.984346 0.486000
vt 0.234453 0.735181
vt 0.234534 0.816632
vt 0.297524 0.915090
vt 0.246776 0.821195
vt 0.300228 0.993978
vt 0.307088 0.922175
vt 0.295231 0.638024
vt 0.246370 0.729565
vt 0.295845 0.653211
vt 0.873180 0.485974
vt 0.704571 0.485982
vt 0.687596 0.485983
vt 0.594080 0.485989
vt 0.687603 0.501344
vt 0.577319 0.485991
vt 0.409996 0.486013
vt 0.577373 0.501357
vt 0.984346 0.486000
vt 0.889916 0.485976
vt 0.889760 0.501331
vt 0.984290 0.501373
vt 0.238398 0.741580
vt 0.238202 0.808803
vt 0.246776 0.821195
vt 0.297920 0.898857
vt 0.254151 0.815516
vt 0.307088 0.922175
vt 0.307700 0.988336
vt 0.316475 0.921787
vt 0.295845 0.653211
vt 0.246370 0.729565
vt 0.253478 0.735407
vt 0.303399 0.658363
vt 0.695767 0.415228
vt 0.695859 0.475100
vt 0.585320 0.415229
vt 0.585406 0.475121
vt 0.993581 0.415231
vt 0.882013 0.415225
vt 0.881898 0.475073
vt 0.993366 0.475159
vt 0.881898 0.475073
vt 0.695859 0.475100
vt 0.585406 0.475121
vt 0.687596 0.485983
vt 0.400759 0.475191
vt 0.577319 0.485991
vt 0.993366 0.475159
vt 0.889916 0.485976
vt 0.984346 0.486000
vt 0.873180 0.485974
vt 0.704571 0.485982
vt 0.687596 0.485983
vt 0.594080 0.485989
vt 0.687603 0.501344
vt 0.577319 0.485991
vt 0.409996 0.486013
vt 0.577373 0.501357
vt 0.984346 0.486000
vt 0.889916 0.485976
vt 0.889760 0.501331
vt 0.984290 0.501373
vt 0.695767 0.415228
vt 0.695859 0.475100
vt 0.585320 0.415229
vt 0.585406 0.475121
vt 0.993581 0.415231
vt 0.882013 0.415225
vt 0.881898 0.475073
vt 0.993366 0.475159
vt 0.881898 0.475073
vt 0.695859 0.475100
vt 0.585406 0.475121
vt 0.687596 0.485983
vt 0.400759 0.475191
vt 0.577319 0.485991
vt 0.993366 0.475159
vt 0.889916 0.485976
vt 0.984346 0.486000
vt 0.873180 0.485974
vt 0.704571 0.485982
vt 0.687596 0.485983
vt 0.594080 0.485989
vt 0.687603 0.501344
vt 0.577319 0.485991
vt 0.409996 0.486013
vt 0.577373 0.501357
vt 0.984346 0.486000
vt 0.889916 0.485976
vt 0.889760 0.501331
vt 0.984290 0.501373
vt 0.873281 0.394353
vt 0.988847 0.234044
vt 0.005418 0.230587
vt 0.196923 0.129650
vt 0.695859 0.475100
vt 0.695859 0.475100
vt 0.585406 0.475121
vt 0.585406 0.475121
vt 0.881898 0.475073
vt 0.297524 0.915090
vt 0.297524 0.915090
vt 0.234453 0.735181
vt 0.695859 0.475100
vt 0.695859 0.475100
vt 0.585406 0.475121
vt 0.585406 0.475121
vt 0.881898 0.475073
vt 0.695859 0.475100
vt 0.695859 0.475100
vt 0.585406 0.475121
vt 0.585406 0.475121
vt 0.881898 0.475073
vn -1 0 0
vn -1 0 0
vn -1 0 0
vn -1 0 0
vn -0.001685 -0.999816 0.019125000000000062
vn -0.001964 -0.999779 0.02091400000000006
vn -0.001685 -0.999816 0.019125000000000062
vn -0.001406 -0.999849 0.017335000000000062
vn -0.999541 0.029498 0.006942999999999999
vn -0.999534 0.029438 0.008130999999999998
vn 0.000994 0.999993 0.0037039999999999387
vn -0.001809 0.99978 0.020894999999999938
vn -0.999585 0.028191 0.005991999999999998
vn -0.999585 0.028183 0.005992999999999998
vn 0.035628 0.999338 -0.007427000000000061
vn 0.046466 0.998879 -0.00906400000000006
vn -0.999585 0.028183 0.005992999999999998
vn -0.999585 0.028176 0.0059939999999999985
vn -0.036168 -0.999156 0.01949500000000006
vn -0.034748 -0.999202 0.01970000000000006
vn -0.999585 0.028174 0.005970999999999998
vn -0.999585 0.028175 0.005970999999999998
vn -0.034748 -0.999202 0.01970000000000006
vn -0.033328 -0.999246 0.019904000000000064
vn -0.033339 -0.999304 0.01671700000000006
vn -0.034786 -0.999258 0.01650800000000006
vn 0.999709 -0.023162 -0.006720999999999999
vn 0.999653 -0.025398 -0.0070529999999999985
vn -0.034786 -0.999258 0.01650800000000006
vn -0.036233 -0.99921 0.016298000000000062
vn 0.999207 -0.035704 0.017596000000000004
vn 0.998774 -0.046839 0.016030000000000003
vn 0.023627 0.999689 -0.00801500000000006
vn 0.025652 0.999636 -0.008316000000000061
vn 0.998774 -0.046839 0.016030000000000003
vn 0.998214 -0.057969 0.014461000000000003
vn -0.028405 -0.999596 -0.0005069999999999387
vn -0.999738 0.022741 -0.002809000000000001
vn 0.999636 -0.026909 -0.0020689999999999984
vn 0.999579 -0.028181 -0.006887999999999998
vn 0.999636 -0.026909 -0.0020689999999999984
vn 0.999668 -0.025636 0.0027500000000000016
vn -0.028405 -0.999596 -0.0005069999999999387
vn -0.999769 0.021401 0.0020249999999999986
vn -0.395525 -0.918455 5.623914879554412E-17
vn -0.94005 0.341037 1.9999999999791176E-06
vn 0.9332 -0.346051 0.09688200000000002
vn 0.932984 -0.347182 0.09490100000000003
vn 0.9332 -0.346051 0.09688200000000002
vn 0.933412 -0.344918 0.09886200000000003
vn -0.397223 -0.917721 -0.0014109999999999438
vn -0.940049 0.341039 -2.0882615986720708E-17
vn -0.510702 -0.859758 5.264499413706651E-17
vn -0.510702 -0.859758 5.264499413706651E-17
vn -0.510702 -0.859758 5.264499413706651E-17
vn -0.510702 -0.859758 5.264499413706651E-17
vn -0.367796 0.929907 -5.694038155273589E-17
vn -0.367796 0.929907 -5.694038155273589E-17
vn -0.510701 -0.859758 5.264499413706651E-17
vn -0.510701 -0.859758 5.264499413706651E-17
vn -0.510701 -0.859758 5.264499413706651E-17
vn -0.510701 -0.859758 5.264499413706651E-17
vn -0.367798 0.929906 -5.694032032039593E-17
vn -0.367798 0.929906 -5.694032032039593E-17
vn -0.510701 -0.859758 5.264499413706651E-17
vn -0.510701 -0.859758 5.264499413706651E-17
vn -0.510701 -0.859758 5.264499413706651E-17
vn -0.510701 -0.859758 5.264499413706651E-17
vn -0.367796 0.929907 -5.694038155273589E-17
vn -0.367796 0.929907 -5.694038155273589E-17
vn -0.510704 -0.859756 5.264487167238659E-17
vn -0.510704 -0.859757 5.2644932904726545E-17
vn -0.510704 -0.859756 5.264487167238659E-17
vn -0.510704 -0.859757 5.2644932904726545E-17
vn -0.367794 0.929907 -5.694038155273589E-17
vn -0.367794 0.929907 -5.694038155273589E-17
vn -0.510703 -0.859757 5.2644932904726545E-17
vn -0.510703 -0.859757 5.2644932904726545E-17
vn -0.510703 -0.859757 5.2644932904726545E-17
vn -0.510703 -0.859757 5.2644932904726545E-17
vn -0.367796 0.929906 -5.694032032039593E-17
vn -0.367796 0.929906 -5.694032032039593E-17
vn -0.89684 2.7086370509501414E-17 0.442354
vn -0.89684 2.708643174184137E-17 0.442355
vn -0.89684 2.7086370509501414E-17 0.442354
vn -0.89684 2.7086370509501414E-17 0.442354
vn 0.816765 3.5329223185202417E-17 0.57697
vn 0.816765 3.5329223185202417E-17 0.57697
vn 0 0.835714 0.549166
vn 0 0.835714 0.549165
vn 0 0.835714 0.549166
vn 0 0.835714 0.549166
vn -1E-06 -0.860162 0.51002
vn -1E-06 -0.860163 0.51002
vn 0.018674 -0.0054119999999999386 0.999811
vn 0.013595 -0.006773999999999938 0.999885
vn 0.012881 -0.008205999999999939 0.999883
vn 0.018268 -0.007163999999999939 0.999807
vn 0.626473 -0.17205799999999993 0.760215
vn 0.608214 -0.22754699999999994 0.76046
vn 0.552216 -0.26262899999999995 0.791254
vn 0.560575 -0.15203499999999995 0.814028
vn -0.999612 0.02559 0.011036999999999998
vn -0.999612 0.02559 0.011035999999999999
vn 0.028295 0.999587 0.005057999999999938
vn 0.999739 -0.020021 -0.011005999999999998
vn -0.809023 0.29687800000000003 0.507291
vn -0.809024 0.29687800000000003 0.507291
vn 0.398497 0.917167 0.002065999999999944
vn 0.811906 -0.28931500000000004 -0.507056
vn 0.015581 -0.0067709999999999385 0.999856
vn 0.008979 -0.0031649999999999387 0.999955
vn 0.015581 -0.0067709999999999385 0.999856
vn 0.022183 -0.010375999999999939 0.9997
vn 0.608266 -0.22786499999999996 0.760322
vn 0.608173 -0.22703499999999993 0.760644
vn 0.608266 -0.22786499999999996 0.760322
vn 0.608359 -0.22869399999999995 0.759999
vn 0.756103 -0.01786600000000004 -0.654209
vn 0.759235 -0.016249000000000038 -0.650614
vn 0.756103 -0.01786600000000004 -0.654209
vn 0.752946 -0.01948500000000004 -0.657794
vn -0.021803 -0.999699 -0.01124399999999994
vn -0.021801 -0.999699 -0.011242999999999939
vn -0.756328 0.01035900000000004 0.65411
vn -0.759386 0.01229000000000004 0.650524
vn 0.662437 -0.029694999999999954 0.748529
vn 0.666633 -0.027768999999999953 0.744869
vn 0.663116 -0.03172999999999995 0.747844
vn 0.666109 -0.03183399999999995 0.745175
vn -0.750238 0.017305000000000043 0.660941
vn -0.750239 0.017305000000000043 0.66094
vn 0.024693 0.999586 0.01476999999999994
vn 0.750462 -0.00939700000000004 -0.660847
vn 0.01571 0.999636 -0.02194500000000006
vn 0.018586 0.999668 -0.017869000000000062
vn 0.01571 0.999636 -0.02194500000000006
vn 0.012833 0.999579 -0.026020000000000064
vn 0.64214 -0.02840500000000005 -0.766061
vn 0.642141 -0.02840500000000005 -0.76606
vn -0.012206 -0.999769 0.017696000000000062
vn -0.016769 -0.999738 0.015615000000000061
vn 0.770312 0.01359000000000004 0.637522
vn 0.769381 0.01867500000000004 0.638517
vn 0.771232 0.012881000000000038 0.636423
vn 0.770504 0.018265000000000038 0.637174
vn -0.007995 -0.999612 0.02669700000000006
vn -0.008001 -0.999612 0.026692000000000063
vn -0.638648 0.02829500000000005 0.768979
vn 0.004437 0.999739 -0.022412000000000064
vn 0.658687 -0.03663399999999995 0.751524
vn 0.668922 -0.026839999999999954 0.742848
vn 0.658687 -0.03663399999999995 0.751524
vn 0.658687 -0.03663399999999995 0.751524
vn 0.768044 0.00897800000000004 0.640334
vn 0.772485 0.02218200000000004 0.634646
vn 0.772485 0.02218200000000004 0.634646
vn 0.772485 0.02218200000000004 0.634646
vn 1 0 0
vn 1 0 0
vn 1 0 0
vn 1 0 0
vn -0.999541 0.029498 0.006942999999999999
vn -0.999546 0.029559 0.005753999999999998
vn 0.000994 0.999993 0.0037039999999999387
vn 0.003796 0.999902 -0.01348800000000006
vn 0.999792 -0.020307 0.002123000000000001
vn 0.99972 -0.019846 0.012872000000000001
vn 0.999792 -0.020307 0.002123000000000001
vn 0.999747 -0.020765 -0.008625999999999998
vn 0.00368 -0.004286999999999938 0.999984
vn 0.000893 -0.0050189999999999384 0.999987
vn 0.00368 -0.004286999999999938 0.999984
vn 0.006468 -0.0035539999999999387 0.999973
vn 0.046466 0.998879 -0.00906400000000006
vn 0.057297 0.9983 -0.01070000000000006
vn -0.999585 0.028175 0.005970999999999998
vn -0.999585 0.028176 0.005970999999999998
vn 0.999653 -0.025398 -0.0070529999999999985
vn 0.999591 -0.027635 -0.007384999999999998
vn 0.025652 0.999636 -0.008316000000000061
vn 0.027676 0.99958 -0.00861700000000006
vn -0.028405 -0.999596 -0.0005069999999999387
vn -0.028405 -0.999596 -0.0005069999999999387
vn -0.999769 0.021401 0.0020249999999999986
vn -0.999775 0.020061 0.006858999999999999
vn 0.014474 0.999738 0.017756999999999936
vn 0.014474 0.999738 0.017756999999999936
vn 0.014474 0.999738 0.017756999999999936
vn 0.014474 0.999738 0.017756999999999936
vn -0.397223 -0.917721 -0.0014109999999999438
vn -0.398918 -0.916982 -0.002820999999999944
vn -0.940049 0.341039 -2.0882615986720708E-17
vn -0.940049 0.341041 -1.0000000000208827E-06
vn 0.379097 0.925322 0.008050999999999944
vn 0.375151 0.926824 0.016102999999999944
vn 0.379097 0.925322 0.008050999999999944
vn 0.38301 0.923744 2.999999999943437E-06
vn -0.367796 0.929907 -5.694038155273589E-17
vn -0.367796 0.929907 -5.694038155273589E-17
vn 0.994727 -0.102558 6.2798663213477125E-18
vn 0.994727 -0.102558 6.2798663213477125E-18
vn 0.994727 -0.102558 6.2798663213477125E-18
vn 0.994727 -0.102558 6.2798663213477125E-18
vn -0.367798 0.929906 -5.694032032039593E-17
vn -0.367798 0.929906 -5.694032032039593E-17
vn 0.994727 -0.102558 6.2798663213477125E-18
vn 0.994727 -0.102558 6.2798663213477125E-18
vn 0.994727 -0.102558 6.2798663213477125E-18
vn 0.994727 -0.102558 6.2798663213477125E-18
vn -0.367796 0.929907 -5.694038155273589E-17
vn -0.367796 0.929907 -5.694038155273589E-17
vn 0.994727 -0.102558 6.2798663213477125E-18
vn 0.994727 -0.102558 6.2798663213477125E-18
vn 0.994727 -0.102558 6.2798663213477125E-18
vn 0.994727 -0.102558 6.2798663213477125E-18
vn -0.367794 0.929907 -5.694038155273589E-17
vn -0.367794 0.929907 -5.694038155273589E-17
vn 0.994727 -0.10256 6.2799887860276275E-18
vn 0.994727 -0.10256 6.2799887860276275E-18
vn 0.994727 -0.10256 6.2799887860276275E-18
vn 0.994727 -0.10256 6.2799887860276275E-18
vn -0.367796 0.929906 -5.694032032039593E-17
vn -0.367796 0.929906 -5.694032032039593E-17
vn 0.994727 -0.102558 6.2798663213477125E-18
vn 0.994727 -0.102558 6.2798663213477125E-18
vn 0.994727 -0.102558 6.2798663213477125E-18
vn 0.994727 -0.102558 6.2798663213477125E-18
vn 0.816765 3.5329223185202417E-17 0.57697
vn 0.816765 3.5329223185202417E-17 0.57697
vn -1E-06 -0.860163 0.51002
vn -1E-06 -0.860163 0.510019
vn 0.017776 -0.006232999999999938 0.999823
vn 0.012822 -0.006014999999999939 0.9999
vn 0.014217 -0.0070579999999999385 0.999874
vn 0.013595 -0.006773999999999938 0.999885
vn 0.018748 -0.007616999999999938 0.999795
vn 0.012881 -0.008205999999999939 0.999883
vn 0.018748 -0.007616999999999938 0.999795
vn 0.018674 -0.0054119999999999386 0.999811
vn 0.018268 -0.007163999999999939 0.999807
vn 0.607271 -0.22344799999999995 0.762426
vn 0.585802 -0.27353099999999997 0.7629
vn 0.517088 -0.25060399999999994 0.818424
vn 0.608214 -0.22754699999999994 0.76046
vn 0.593622 -0.16031399999999996 0.788614
vn 0.552216 -0.26262899999999995 0.791254
vn 0.593622 -0.16031399999999996 0.788614
vn 0.626473 -0.17205799999999993 0.760215
vn 0.560575 -0.15203499999999995 0.814028
vn -0.999612 0.02559 0.011035999999999999
vn -0.999612 0.02559 0.011035999999999999
vn 0.028295 0.999587 0.005057999999999938
vn 0.028295 0.999587 0.005057999999999938
vn 0.028295 0.999587 0.005057999999999938
vn 0.999739 -0.020021 -0.011005999999999998
vn 0.999739 -0.020021 -0.011005999999999998
vn 0.999739 -0.020021 -0.011005999999999998
vn -0.014133 -0.999887 -0.005219999999999938
vn -0.014133 -0.999887 -0.0052219999999999385
vn -0.014133 -0.999887 -0.005219999999999938
vn -0.014133 -0.999887 -0.005216999999999939
vn -0.809024 0.29687800000000003 0.507291
vn -0.809024 0.29687800000000003 0.507291
vn 0.398497 0.917167 0.002065999999999944
vn 0.398497 0.917167 0.002064999999999944
vn 0.398498 0.917167 0.002065999999999944
vn 0.811906 -0.28931500000000004 -0.507056
vn 0.811906 -0.28931500000000004 -0.507056
vn 0.811906 -0.28931500000000004 -0.507056
vn -0.389167 -0.921132 -0.008044999999999943
vn -0.389168 -0.921132 -0.008044999999999943
vn -0.389167 -0.921132 -0.008044999999999943
vn -0.389166 -0.921133 -0.008043999999999944
vn -0.021803 -0.999699 -0.01124399999999994
vn -0.021805 -0.999699 -0.011244999999999939
vn -0.756328 0.01035900000000004 0.65411
vn -0.753245 0.008424000000000039 0.657686
vn 0.022493 0.999189 0.03340099999999994
vn 0.022493 0.999189 0.03340199999999994
vn 0.022493 0.999189 0.03340099999999994
vn 0.022493 0.999189 0.03340099999999994
vn 0.665566 -0.029076999999999954 0.745773
vn 0.66148 -0.028469999999999954 0.749422
vn 0.663083 -0.031814999999999954 0.74787
vn 0.662437 -0.029694999999999954 0.748529
vn 0.665267 -0.030740999999999956 0.745972
vn 0.663116 -0.03172999999999995 0.747844
vn 0.665267 -0.030740999999999956 0.745972
vn 0.666633 -0.027768999999999953 0.744869
vn 0.666109 -0.03183399999999995 0.745175
vn -0.750238 0.017305000000000043 0.660941
vn -0.750238 0.017305000000000043 0.660942
vn 0.024693 0.999586 0.01476999999999994
vn 0.024691 0.999586 0.01476799999999994
vn 0.024694 0.999586 0.01477199999999994
vn 0.750462 -0.00939700000000004 -0.660847
vn 0.750462 -0.00939700000000004 -0.660847
vn 0.750462 -0.00939700000000004 -0.660846
vn -0.014058 -0.99961 -0.02412899999999994
vn -0.014057 -0.99961 -0.024127999999999938
vn -0.014058 -0.99961 -0.02412899999999994
vn -0.014059 -0.99961 -0.024129999999999936
vn 0.64214 -0.02840500000000005 -0.766061
vn 0.642139 -0.02840600000000005 -0.766062
vn -0.012206 -0.999769 0.017696000000000062
vn -0.007642 -0.999775 0.01977600000000006
vn -0.629016 0.014475000000000047 0.777258
vn -0.629016 0.014475000000000047 0.777258
vn -0.629016 0.014475000000000047 0.777258
vn -0.629015 0.014475000000000047 0.777258
vn 0.769917 0.01777600000000004 0.637897
vn 0.769836 0.01281700000000004 0.638113
vn 0.770487 0.014218000000000038 0.637297
vn 0.770312 0.01359000000000004 0.637522
vn 0.770786 0.018746000000000037 0.636818
vn 0.771232 0.012881000000000038 0.636423
vn 0.770786 0.018746000000000037 0.636818
vn 0.769381 0.01867500000000004 0.638517
vn 0.770504 0.018265000000000038 0.637174
vn -0.007995 -0.999612 0.02669700000000006
vn -0.007988 -0.999612 0.02670100000000006
vn -0.638648 0.02829500000000005 0.768979
vn -0.638649 0.02829500000000005 0.768978
vn -0.638647 0.02829500000000005 0.768979
vn 0.004437 0.999739 -0.022412000000000064
vn 0.004437 0.999739 -0.022412000000000064
vn 0.004437 0.999739 -0.022412000000000064
vn 0.638717 -0.014134000000000048 -0.769312
vn 0.638715 -0.014135000000000047 -0.769314
vn 0.638717 -0.014134000000000048 -0.769312
vn 0.638719 -0.014134000000000048 -0.769311
vn 0.668922 -0.026839999999999954 0.742848
vn 0.668922 -0.026839999999999954 0.742848
vn 0.768044 0.00897800000000004 0.640334
vn 0.768044 0.00897800000000004 0.640334
vn 0.012822 -0.006014999999999939 0.9999
vn 0.012822 -0.006014999999999939 0.9999
vn 0.014217 -0.0070579999999999385 0.999874
vn 0.014217 -0.0070579999999999385 0.999874
vn 0.017776 -0.006232999999999938 0.999823
vn 0.517088 -0.25060399999999994 0.818424
vn 0.517088 -0.25060399999999994 0.818424
vn 0.607271 -0.22344799999999995 0.762426
vn 0.66148 -0.028469999999999954 0.749422
vn 0.66148 -0.028469999999999954 0.749422
vn 0.663083 -0.031814999999999954 0.74787
vn 0.663083 -0.031814999999999954 0.74787
vn 0.665566 -0.029076999999999954 0.745773
vn 0.769836 0.01281700000000004 0.638113
vn 0.769836 0.01281700000000004 0.638113
vn 0.770487 0.014218000000000038 0.637297
vn 0.770487 0.014218000000000038 0.637297
vn 0.769917 0.01777600000000004 0.637897
g 1024x1024
f 162/162/162 159/159/159 160/160/160
f 160/160/160 161/161/161 162/162/162
f 336/336/336 155/155/155 335/335/335
f 156/156/156 158/158/158 157/157/157
f 334/334/334 152/152/152 333/333/333
f 154/154/154 153/153/153 151/151/151
f 329/329/329 332/332/332 331/331/331
f 331/331/331 330/330/330 329/329/329
f 326/326/326 328/328/328 150/150/150
f 150/150/150 327/327/327 326/326/326
f 323/323/323 325/325/325 149/149/149
f 149/149/149 324/324/324 323/323/323
f 321/321/321 148/148/148 147/147/147
f 147/147/147 322/322/322 321/321/321
f 318/318/318 320/320/320 319/319/319
f 319/319/319 354/354/354 318/318/318
f 353/353/353 317/317/317 146/146/146
f 146/146/146 316/316/316 352/352/352
f 351/351/351 315/315/315 145/145/145
f 145/145/145 314/314/314 350/350/350
f 312/312/312 144/144/144 143/143/143
f 143/143/143 313/313/313 312/312/312
f 308/308/308 311/311/311 310/310/310
f 310/310/310 309/309/309 308/308/308
f 306/306/306 307/307/307 141/141/141
f 141/141/141 142/142/142 306/306/306
f 304/304/304 305/305/305 139/139/139
f 139/139/139 140/140/140 304/304/304
f 137/137/137 136/136/136 135/135/135
f 135/135/135 138/138/138 137/137/137
f 300/300/300 303/303/303 302/302/302
f 302/302/302 301/301/301 300/300/300
f 297/297/297 299/299/299 134/134/134
f 134/134/134 298/298/298 297/297/297
f 294/294/294 296/296/296 133/133/133
f 133/133/133 295/295/295 294/294/294
f 292/292/292 132/132/132 131/131/131
f 131/131/131 293/293/293 292/292/292
f 289/289/289 291/291/291 290/290/290
f 290/290/290 349/349/349 289/289/289
f 348/348/348 288/288/288 130/130/130
f 130/130/130 287/287/287 347/347/347
f 346/346/346 286/286/286 129/129/129
f 129/129/129 285/285/285 345/345/345
f 283/283/283 128/128/128 127/127/127
f 127/127/127 284/284/284 283/283/283
f 279/279/279 282/282/282 281/281/281
f 281/281/281 280/280/280 279/279/279
f 277/277/277 278/278/278 125/125/125
f 125/125/125 126/126/126 277/277/277
f 275/275/275 276/276/276 123/123/123
f 123/123/123 124/124/124 275/275/275
f 121/121/121 120/120/120 119/119/119
f 119/119/119 122/122/122 121/121/121
f 271/271/271 274/274/274 273/273/273
f 273/273/273 272/272/272 271/271/271
f 268/268/268 270/270/270 110/110/110
f 110/110/110 269/269/269 268/268/268
f 265/265/265 267/267/267 109/109/109
f 109/109/109 266/266/266 265/265/265
f 263/263/263 107/107/107 108/108/108
f 108/108/108 264/264/264 263/263/263
f 259/259/259 262/262/262 261/261/261
f 261/261/261 260/260/260 259/259/259
f 256/256/256 258/258/258 106/106/106
f 106/106/106 257/257/257 256/256/256
f 253/253/253 255/255/255 105/105/105
f 105/105/105 254/254/254 253/253/253
f 251/251/251 103/103/103 104/104/104
f 104/104/104 252/252/252 251/251/251
f 248/248/248 250/250/250 249/249/249
f 249/249/249 344/344/344 248/248/248
f 343/343/343 247/247/247 102/102/102
f 102/102/102 246/246/246 342/342/342
f 243/243/243 245/245/245 101/101/101
f 101/101/101 244/244/244 243/243/243
f 242/242/242 99/99/99 100/100/100
f 100/100/100 243/243/243 242/242/242
f 239/239/239 241/241/241 240/240/240
f 240/240/240 341/341/341 239/239/239
f 340/340/340 238/238/238 98/98/98
f 98/98/98 237/237/237 339/339/339
f 338/338/338 236/236/236 97/97/97
f 97/97/97 235/235/235 337/337/337
f 233/233/233 95/95/95 96/96/96
f 96/96/96 234/234/234 233/233/233
f 117/117/117 116/116/116 115/115/115
f 115/115/115 118/118/118 117/117/117
f 113/113/113 112/112/112 111/111/111
f 111/111/111 114/114/114 113/113/113
f 231/231/231 232/232/232 94/94/94
f 94/94/94 93/93/93 231/231/231
f 91/91/91 92/92/92 89/89/89
f 89/89/89 90/90/90 91/91/91
f 229/229/229 230/230/230 88/88/88
f 88/88/88 87/87/87 229/229/229
f 85/85/85 86/86/86 83/83/83
f 83/83/83 84/84/84 85/85/85
f 225/225/225 228/228/228 227/227/227
f 227/227/227 226/226/226 225/225/225
f 81/81/81 82/82/82 224/224/224
f 224/224/224 223/223/223 81/81/81
f 79/79/79 80/80/80 77/77/77
f 77/77/77 78/78/78 79/79/79
f 219/219/219 222/222/222 221/221/221
f 221/221/221 220/220/220 219/219/219
f 75/75/75 76/76/76 218/218/218
f 218/218/218 217/217/217 75/75/75
f 73/73/73 74/74/74 71/71/71
f 71/71/71 72/72/72 73/73/73
f 213/213/213 216/216/216 215/215/215
f 215/215/215 214/214/214 213/213/213
f 69/69/69 70/70/70 212/212/212
f 212/212/212 211/211/211 69/69/69
f 67/67/67 68/68/68 65/65/65
f 65/65/65 66/66/66 67/67/67
f 207/207/207 210/210/210 209/209/209
f 209/209/209 208/208/208 207/207/207
f 63/63/63 64/64/64 206/206/206
f 206/206/206 205/205/205 63/63/63
f 61/61/61 62/62/62 59/59/59
f 59/59/59 60/60/60 61/61/61
f 201/201/201 204/204/204 203/203/203
f 203/203/203 202/202/202 201/201/201
f 57/57/57 58/58/58 200/200/200
f 200/200/200 199/199/199 57/57/57
f 55/55/55 56/56/56 53/53/53
f 53/53/53 54/54/54 55/55/55
f 195/195/195 198/198/198 197/197/197
f 197/197/197 196/196/196 195/195/195
f 193/193/193 194/194/194 52/52/52
f 52/52/52 46/46/46 193/193/193
f 191/191/191 192/192/192 51/51/51
f 51/51/51 45/45/45 191/191/191
f 47/47/47 50/50/50 49/49/49
f 49/49/49 48/48/48 47/47/47
f 187/187/187 190/190/190 189/189/189
f 189/189/189 188/188/188 187/187/187
f 185/185/185 186/186/186 44/44/44
f 44/44/44 38/38/38 185/185/185
f 183/183/183 184/184/184 43/43/43
f 43/43/43 37/37/37 183/183/183
f 39/39/39 42/42/42 41/41/41
f 41/41/41 40/40/40 39/39/39
f 181/181/181 182/182/182 34/34/34
f 34/34/34 33/33/33 181/181/181
f 32/32/32 31/31/31 35/35/35
f 35/35/35 36/36/36 32/32/32
f 179/179/179 180/180/180 28/28/28
f 28/28/28 27/27/27 179/179/179
f 26/26/26 25/25/25 29/29/29
f 29/29/29 30/30/30 26/26/26
f 177/177/177 178/178/178 22/22/22
f 22/22/22 21/21/21 177/177/177
f 20/20/20 19/19/19 23/23/23
f 23/23/23 24/24/24 20/20/20
f 175/175/175 176/176/176 16/16/16
f 16/16/16 15/15/15 175/175/175
f 14/14/14 13/13/13 17/17/17
f 17/17/17 18/18/18 14/14/14
f 171/171/171 174/174/174 173/173/173
f 173/173/173 172/172/172 171/171/171
f 167/167/167 170/170/170 169/169/169
f 169/169/169 168/168/168 167/167/167
f 165/165/165 166/166/166 11/11/11
f 11/11/11 12/12/12 165/165/165
f 163/163/163 164/164/164 9/9/9
f 9/9/9 10/10/10 163/163/163
f 7/7/7 8/8/8 5/5/5
f 5/5/5 6/6/6 7/7/7
f 2/2/2 3/3/3 4/4/4
f 4/4/4 1/1/1 2/2/2
