v -0.361045 -0.45513799999999993 0.58848
v -0.370557 0.024679000000000034 0.582635
v -0.174934 0.01948700000000004 0.648475
v -0.193691 -0.47412299999999996 0.694768
v 0.357845 0.46750800000000003 0.588099
v 0.360441 -0.023315999999999965 0.579155
v 0.185195 -0.0014289999999999585 0.676472
v 0.17671 0.46855100000000005 0.683606
v -0.361045 -0.45513799999999993 0.4844760000000001
v -0.370557 0.024679000000000027 0.478631
v 0.357845 0.46750800000000003 0.48409499999999994
v 0.36044 -0.023315999999999972 0.475152
v 0.006198 0.01873900000000005 0.826069
v -0.173278 0.46967500000000006 0.717638
v 0.007855 0.4813180000000001 0.873386
v 0.173399 -0.46364599999999995 0.717638
v -0.002179 -0.48131799999999997 0.872659
v -0.357734 0.46760500000000005 0.585758
v 0.354532 -0.47309699999999993 0.594141
v -0.357734 0.46760500000000005 0.48175399999999996
v 0.354532 -0.47309699999999993 0.4901380000000001
v -0.193691 -0.47412299999999996 0.590765
v 0.17671 0.46855100000000005 0.579602
v 0.007855 0.4813180000000001 0.769382
v -0.173278 0.46967500000000006 0.613635
v -0.002179 -0.48131799999999997 0.768656
v 0.1734 -0.46364799999999995 0.613635
v 0.341858 -0.08035499999999997 0.560452
v 0.341856 -0.42595399999999994 0.56776
v 0.443739 -0.4169379999999999 0.491733
v 0.445649 -0.06854299999999998 0.480904
v 0.565221 -0.41817099999999996 0.462623
v 0.563349 -0.06269299999999997 0.462346
v 0.34167 0.45454600000000006 0.563556
v 0.341668 0.14629900000000004 0.570865
v 0.443739 0.15705400000000003 0.485545
v 0.445649 0.46498900000000004 0.48090399999999994
v 0.554289 0.16199700000000003 0.457982
v 0.569485 0.46661900000000006 0.46585299999999996
v 0.565221 -0.418171 0.417758
v 0.563349 -0.06269299999999997 0.417481
v 0.554289 0.16199700000000003 0.413117
v 0.569485 0.466619 0.4209879999999999
v -0.343101 0.08035400000000004 0.570073
v -0.446892 0.06854300000000003 0.480904
v -0.444982 0.41693700000000006 0.491733
v -0.343099 0.42595400000000005 0.577381
v -0.566464 0.41817000000000004 0.462623
v -0.564592 0.06269300000000003 0.462346
v -0.342913 -0.45454599999999995 0.570073
v -0.446892 -0.46498899999999993 0.48090400000000005
v -0.444982 -0.15705499999999997 0.485545
v -0.342911 -0.14629999999999999 0.577381
v -0.555532 -0.16199799999999998 0.457982
v -0.570728 -0.46661899999999995 0.4658530000000001
v -0.564592 0.06269300000000003 0.417481
v -0.566464 0.41817 0.417758
v -0.570728 -0.466619 0.42098800000000003
v -0.555532 -0.16199799999999998 0.413117
v -0.370557 0.024679000000000034 0.582635
v -0.361045 -0.45513799999999993 0.58848
v 0.360441 -0.023315999999999965 0.579155
v 0.357845 0.46750800000000003 0.588099
v 0.006198 0.01873900000000005 0.826069
v -0.357734 0.46760500000000005 0.585758
v 0.354532 -0.47309699999999993 0.594141
v -0.002179 -0.48131799999999997 0.872659
v 0.007855 0.4813180000000001 0.873386
v -0.193691 -0.47412299999999996 0.694768
v -0.361045 -0.45513799999999993 0.4844760000000001
v -0.361045 -0.45513799999999993 0.58848
v 0.17671 0.46855100000000005 0.683606
v 0.357845 0.46750800000000003 0.48409499999999994
v 0.357845 0.46750800000000003 0.588099
v -0.173278 0.46967500000000006 0.717638
v 0.007855 0.4813180000000001 0.873386
v 0.173399 -0.46364599999999995 0.717638
v -0.002179 -0.48131799999999997 0.872659
v -0.357734 0.46760500000000005 0.585758
v -0.357734 0.46760500000000005 0.48175399999999996
v 0.354532 -0.47309699999999993 0.594141
v 0.354532 -0.47309699999999993 0.4901380000000001
v -0.002179 -0.48131799999999997 0.872659
v -0.002179 -0.48131799999999997 0.768656
v 0.007855 0.4813180000000001 0.873386
v 0.007855 0.4813180000000001 0.769382
v 0.565221 -0.41817099999999996 0.462623
v 0.563349 -0.06269299999999997 0.462346
v 0.554289 0.16199700000000003 0.457982
v 0.569485 0.46661900000000006 0.46585299999999996
v -0.566464 0.41817000000000004 0.462623
v -0.564592 0.06269300000000003 0.462346
v -0.555532 -0.16199799999999998 0.457982
v -0.570728 -0.46661899999999995 0.4658530000000001
vt 0.340299 0.069605
vt 0.340299 0.343778
vt 0.277653 0.343778
vt 0.277653 0.069605
vt 0.045139 0.617950
vt 0.045139 0.330640
vt 0.108911 0.338147
vt 0.108911 0.617950
vt 0.379812 0.069605
vt 0.379812 0.343778
vt 0.005535 0.617950
vt 0.005535 0.330640
vt 0.196563 0.343778
vt 0.277653 0.617950
vt 0.196563 0.617950
vt 0.108911 0.069605
vt 0.188943 0.069605
vt 0.340299 0.617950
vt 0.045139 0.069605
vt 0.379812 0.617950
vt 0.005535 0.069605
vt 0.276935 0.012242
vt 0.110972 0.685573
vt 0.197280 0.685573
vt 0.278371 0.685573
vt 0.189568 0.012242
vt 0.109537 0.012242
vt 0.383633 0.245294
vt 0.383633 0.461690
vt 0.432396 0.461690
vt 0.432396 0.245294
vt 0.469512 0.461730
vt 0.469512 0.245174
vt 0.383005 0.012884
vt 0.383005 0.228761
vt 0.431611 0.228761
vt 0.431611 0.012884
vt 0.468721 0.228760
vt 0.468721 0.012884
vt 0.483084 0.461830
vt 0.483084 0.245236
vt 0.482487 0.228766
vt 0.482487 0.012887
vt 0.383633 0.245294
vt 0.432396 0.245294
vt 0.432396 0.461690
vt 0.383633 0.461690
vt 0.469512 0.461730
vt 0.469512 0.245174
vt 0.383005 0.012884
vt 0.431611 0.012884
vt 0.431611 0.228761
vt 0.383005 0.228761
vt 0.468721 0.228760
vt 0.468721 0.012884
vt 0.483084 0.245236
vt 0.483084 0.461830
vt 0.482487 0.012887
vt 0.482487 0.228766
vt 0.346248 0.343778
vt 0.346248 0.069605
vt 0.039029 0.330640
vt 0.039029 0.617950
vt 0.188943 0.343778
vt 0.346248 0.617950
vt 0.039029 0.069605
vt 0.196563 0.069605
vt 0.188943 0.617950
vt 0.276935 0.055489
vt 0.339581 0.012242
vt 0.339581 0.055489
vt 0.110972 0.632056
vt 0.047200 0.685573
vt 0.047200 0.632056
vt 0.278371 0.632056
vt 0.197280 0.632056
vt 0.109537 0.055489
vt 0.189568 0.055489
vt 0.341017 0.632056
vt 0.341017 0.685573
vt 0.045765 0.055489
vt 0.045765 0.012242
vt 0.195845 0.055489
vt 0.195845 0.012242
vt 0.191004 0.632056
vt 0.191004 0.685573
vt 0.469512 0.461730
vt 0.469512 0.245174
vt 0.468721 0.228760
vt 0.468721 0.012884
vt 0.469512 0.461730
vt 0.469512 0.245174
vt 0.468721 0.228760
vt 0.468721 0.012884
vn -0.425459 0.05263100000000005 0.903446
vn -0.318891 0.003888000000000058 0.947783
vn -0.53327 -0.004823999999999948 0.845931
vn -0.636025 0.09106700000000004 0.766276
vn 0.475298 -0.009194999999999946 0.879777
vn 0.485921 0.004648000000000054 0.873991
vn 0.550347 0.019202000000000052 0.834715
vn 0.623758 -0.025560999999999952 0.7812
vn -0.999804 -0.019821 1.2136862102949843E-18
vn -0.99999 0.00456 -2.7921947020559653E-19
vn 0.999986 0.005288 -3.000000000000324E-06
vn 0.999992 -0.003924 -5.99999999999976E-06
vn -0.682343 -0.0022719999999999555 0.731029
vn -0.641428 -0.10147999999999996 0.760442
vn -0.647338 -0.07526599999999996 0.758478
vn 0.62272 0.05656700000000005 0.780397
vn 0.657363 0.05898200000000005 0.751262
vn -0.453419 -0.06050599999999994 0.889241
vn 0.526621 0.04085100000000005 0.849118
vn -0.999581 0.02894 -1.77206391836622E-18
vn 0.999914 -0.013136 -2.999999999999196E-06
vn -0.062641 -0.998036 6.111207964169139E-17
vn 0.052209 0.998636 -6.114881904566582E-17
vn -0.017671 0.999844 -6.12227877123343E-17
vn -0.028874 0.999583 -6.120680607160544E-17
vn 0.054363 -0.998521 5.000000000061142E-06
vn -0.001353 -0.999999 1.0000000000061233E-05
vn 0.601835 0.01916700000000005 0.798391
vn 0.597009 0.016959000000000047 0.802055
vn 0.488049 0.022849000000000053 0.872517
vn 0.339841 0.01771700000000006 0.940316
vn 0.194607 0.015275000000000061 0.980762
vn 0.155669 0.0015900000000000605 0.987808
vn 0.630977 0.013078000000000046 0.775692
vn 0.640104 0.018208000000000047 0.768073
vn 0.512001 0.013379000000000052 0.858881
vn 0.337395 -0.0036339999999999424 0.941356
vn 0.181558 -0.00929199999999994 0.983336
vn 0.121002 -0.031671999999999936 0.992147
vn 0.999986 0.005268 -3.2257196689541284E-19
vn 0.999986 0.005268 -3.2257196689541284E-19
vn 0.998758 -0.049825 3.0509013383758436E-18
vn 0.998758 -0.049825 3.0509013383758436E-18
vn -0.646393 -0.018119999999999956 0.762789
vn -0.356889 -0.017367999999999946 0.933985
vn -0.521244 -0.02226199999999995 0.853118
vn -0.642559 -0.01619699999999995 0.766065
vn -0.194607 -0.01527499999999994 0.980762
vn -0.155669 -0.0015899999999999396 0.987808
vn -0.659176 -0.012526999999999953 0.751884
vn -0.348748 0.0038340000000000574 0.937209
vn -0.53323 -0.013052999999999948 0.84587
vn -0.667721 -0.017641999999999956 0.744202
vn -0.181558 0.00929200000000006 0.983336
vn -0.121002 0.03167200000000006 0.992147
vn -0.999986 -0.005268 3.2257196689541284E-19
vn -0.999986 -0.005268 3.2257196689541284E-19
vn -0.998758 0.049825 -3.0509013383758436E-18
vn -0.998758 0.049825 -3.0509013383758436E-18
vn -0.99999 0.00456 -2.7921947020559653E-19
vn -0.999804 -0.019821 1.2136862102949843E-18
vn 0.999992 -0.003924 -2.99999999999976E-06
vn 0.999986 0.005288 -3.237966136945602E-19
vn 0.673409 0.009961000000000044 0.739203
vn -0.999581 0.02894 -1.77206391836622E-18
vn 0.999914 -0.013136 8.043480176799816E-19
vn -0.676811 0.07952600000000004 0.731849
vn 0.742852 -0.07075499999999996 0.665706
vn -0.087716 -0.996146 6.099635051917196E-17
vn -0.112719 -0.993627 6.084210625481936E-17
vn -0.112719 -0.993627 6.084210625481936E-17
vn 0.028984 0.99958 -6.120662237458557E-17
vn 0.005756 0.999983 -6.123129900758838E-17
vn 0.005756 0.999983 -6.123129900758838E-17
vn -0.04652 0.998917 -6.116602533319383E-17
vn 0.028943 0.999581 -6.120668360692552E-17
vn 0.049525 -0.998773 1.0000000000061158E-05
vn 0.00837 -0.999965 6.123019682546915E-17
vn -0.011224 0.999937 -6.122848231995034E-17
vn -0.011224 0.999937 -6.122848231995034E-17
vn -0.052098 -0.998642 8.000000000061149E-06
vn -0.052099 -0.998642 6.114918643970556E-17
vn 0.00837 -0.999965 6.123019682546915E-17
vn 0.054363 -0.998521 5.000000000061142E-06
vn 0.028943 0.999581 -6.120668360692552E-17
vn -0.017671 0.999844 -6.12227877123343E-17
vn 0.999986 0.005268 -3.2257196689541284E-19
vn 0.999986 0.005268 -3.2257196689541284E-19
vn 0.998758 -0.049825 3.0509013383758436E-18
vn 0.998758 -0.049825 3.0509013383758436E-18
vn -0.999986 -0.005268 3.2257196689541284E-19
vn -0.999986 -0.005268 3.2257196689541284E-19
vn -0.998758 0.049825 -3.0509013383758436E-18
vn -0.998758 0.049825 -3.0509013383758436E-18
g Standard_6
f 93/93/93 59/59/59 58/58/58
f 58/58/58 94/94/94 93/93/93
f 91/91/91 57/57/57 56/56/56
f 56/56/56 92/92/92 91/91/91
f 51/51/51 52/52/52 54/54/54
f 54/54/54 55/55/55 51/51/51
f 52/52/52 51/51/51 50/50/50
f 50/50/50 53/53/53 52/52/52
f 45/45/45 46/46/46 48/48/48
f 48/48/48 49/49/49 45/45/45
f 46/46/46 45/45/45 44/44/44
f 44/44/44 47/47/47 46/46/46
f 89/89/89 42/42/42 43/43/43
f 43/43/43 90/90/90 89/89/89
f 87/87/87 40/40/40 41/41/41
f 41/41/41 88/88/88 87/87/87
f 37/37/37 36/36/36 38/38/38
f 38/38/38 39/39/39 37/37/37
f 36/36/36 37/37/37 34/34/34
f 34/34/34 35/35/35 36/36/36
f 31/31/31 30/30/30 32/32/32
f 32/32/32 33/33/33 31/31/31
f 30/30/30 31/31/31 28/28/28
f 28/28/28 29/29/29 30/30/30
f 85/85/85 72/72/72 23/23/23
f 23/23/23 86/86/86 85/85/85
f 83/83/83 69/69/69 22/22/22
f 22/22/22 84/84/84 83/83/83
f 81/81/81 77/77/77 27/27/27
f 27/27/27 82/82/82 81/81/81
f 79/79/79 75/75/75 25/25/25
f 25/25/25 80/80/80 79/79/79
f 77/77/77 78/78/78 26/26/26
f 26/26/26 27/27/27 77/77/77
f 75/75/75 76/76/76 24/24/24
f 24/24/24 25/25/25 75/75/75
f 72/72/72 74/74/74 73/73/73
f 73/73/73 23/23/23 72/72/72
f 69/69/69 71/71/71 70/70/70
f 70/70/70 22/22/22 69/69/69
f 8/8/8 68/68/68 64/64/64
f 64/64/64 7/7/7 8/8/8
f 4/4/4 67/67/67 13/13/13
f 13/13/13 3/3/3 4/4/4
f 62/62/62 66/66/66 21/21/21
f 21/21/21 12/12/12 62/62/62
f 60/60/60 65/65/65 20/20/20
f 20/20/20 10/10/10 60/60/60
f 7/7/7 16/16/16 19/19/19
f 19/19/19 6/6/6 7/7/7
f 3/3/3 14/14/14 18/18/18
f 18/18/18 2/2/2 3/3/3
f 16/16/16 7/7/7 64/64/64
f 64/64/64 17/17/17 16/16/16
f 14/14/14 3/3/3 13/13/13
f 13/13/13 15/15/15 14/14/14
f 62/62/62 12/12/12 11/11/11
f 11/11/11 63/63/63 62/62/62
f 60/60/60 10/10/10 9/9/9
f 9/9/9 61/61/61 60/60/60
f 7/7/7 6/6/6 5/5/5
f 5/5/5 8/8/8 7/7/7
f 3/3/3 2/2/2 1/1/1
f 1/1/1 4/4/4 3/3/3
