v -2.395442 2.6799320000000004 4.526284
v -2.944893 2.6799320000000004 4.49203
v -2.944893 2.6799320000000004 4.566165
v -3.494343 2.6799320000000004 4.454828
v -3.494343 2.6799320000000004 4.600506
v -4.043794 2.6799320000000004 4.411859
v -4.043794 2.6799320000000004 4.637935
v 2.725493 -3.2998039999999995 5.22536
v 2.176043 -3.2998039999999995 5.191107
v 2.176043 -3.2998039999999995 5.265242
v 1.626593 -3.2998039999999995 5.153904
v 1.626593 -3.2998039999999995 5.299582
v 1.077142 -3.2998039999999995 5.110935
v 1.077142 -3.2998039999999995 5.337011
v -0.471539 -2.4345699999999995 6.742626
v -1.02099 -2.4345699999999995 6.708373
v -1.02099 -2.4345699999999995 6.782508
v -1.57044 -2.4345699999999995 6.671171
v -1.57044 -2.4345699999999995 6.816848
v -2.11989 -2.4345699999999995 6.628201
v -2.11989 -2.4345699999999995 6.854278
vt 0.423676 0.412675
vt 0.421613 0.381332
vt 0.426079 0.381332
vt 0.419371 0.349988
vt 0.428148 0.349988
vt 0.416783 0.318644
vt 0.430403 0.318644
vt 0.423676 0.412675
vt 0.421613 0.381332
vt 0.426079 0.381332
vt 0.419371 0.349988
vt 0.428148 0.349988
vt 0.416783 0.318644
vt 0.430403 0.318644
vt 0.423676 0.412675
vt 0.421613 0.381332
vt 0.426079 0.381332
vt 0.419371 0.349988
vt 0.428148 0.349988
vt 0.416783 0.318644
vt 0.430403 0.318644
vn 0 1 -6.123233995736766E-17
vn 0 1 -6.123233995736766E-17
vn 0 1 -6.123233995736766E-17
vn 0 1 -6.123233995736766E-17
vn 0 1 -6.123233995736766E-17
vn 0 1 -6.123233995736766E-17
vn 0 1 -6.123233995736766E-17
vn 0 1 -6.123233995736766E-17
vn 0 1 -6.123233995736766E-17
vn 0 1 -6.123233995736766E-17
vn 0 1 -6.123233995736766E-17
vn 0 1 -6.123233995736766E-17
vn 0 1 -6.123233995736766E-17
vn 0 1 -6.123233995736766E-17
vn 0 1 -6.123233995736766E-17
vn 0 1 -6.123233995736766E-17
vn 0 1 -6.123233995736766E-17
vn 0 1 -6.123233995736766E-17
vn 0 1 -6.123233995736766E-17
vn 0 1 -6.123233995736766E-17
vn 0 1 -6.123233995736766E-17
g 01
f 1/1/1 2/2/2 3/3/3
f 3/3/3 2/2/2 4/4/4
f 4/4/4 5/5/5 3/3/3
f 5/5/5 4/4/4 6/6/6
f 6/6/6 7/7/7 5/5/5
f 8/8/8 9/9/9 10/10/10
f 10/10/10 9/9/9 11/11/11
f 11/11/11 12/12/12 10/10/10
f 12/12/12 11/11/11 13/13/13
f 13/13/13 14/14/14 12/12/12
f 15/15/15 16/16/16 17/17/17
f 17/17/17 16/16/16 18/18/18
f 18/18/18 19/19/19 17/17/17
f 19/19/19 18/18/18 20/20/20
f 20/20/20 21/21/21 19/19/19
