v 0.09962 -0.099443 6.089127582380512E-18
v 0.127402 -0.099443 6.089127582380512E-18
v 0.09962 -0.124447 7.620181010674533E-18
v 0.127402 -0.124447 7.620181010674533E-18
v 0.09962 -0.09944299999999995 0.910162
v 0.127402 -0.09944299999999995 0.910162
v 0.09962 -0.12444699999999995 0.910162
v 0.127402 -0.12444699999999995 0.910162
v 0.09962 0.12779 -7.824880723152013E-18
v 0.127402 0.12779 -7.824880723152013E-18
v 0.127402 0.12779000000000004 0.910162
v 0.09962 0.12779000000000004 0.910162
v 0.127402 0.102786 -6.293827294857993E-18
v 0.127402 0.10278600000000006 0.910162
v 0.09962 0.102786 -6.293827294857993E-18
v 0.09962 0.10278600000000006 0.910162
v -0.125005 -0.099443 6.089127582380512E-18
v -0.097223 -0.099443 6.089127582380512E-18
v -0.097223 -0.09944299999999995 0.910162
v -0.125005 -0.09944299999999995 0.910162
v -0.097223 -0.124447 7.620181010674533E-18
v -0.097223 -0.12444699999999995 0.910162
v -0.125005 -0.124447 7.620181010674533E-18
v -0.125005 -0.12444699999999995 0.910162
v -0.125005 0.12779 -7.824880723152013E-18
v -0.097223 0.12779 -7.824880723152013E-18
v -0.097223 0.12779000000000004 0.910162
v -0.125005 0.12779000000000004 0.910162
v -0.097223 0.102786 -6.293827294857993E-18
v -0.097223 0.10278600000000006 0.910162
v -0.125005 0.102786 -6.293827294857993E-18
v -0.125005 0.10278600000000006 0.910162
v 0.127402 -0.099443 6.089127582380512E-18
v 0.127402 -0.09944299999999995 0.910162
v 0.127402 -0.124447 7.620181010674533E-18
v 0.127402 -0.12444699999999995 0.910162
v 0.09962 -0.124447 7.620181010674533E-18
v 0.09962 -0.099443 6.089127582380512E-18
v 0.09962 -0.09944299999999995 0.910162
v 0.09962 -0.12444699999999995 0.910162
v 0.127402 0.12779 -7.824880723152013E-18
v 0.127402 0.12779000000000004 0.910162
v 0.127402 0.102786 -6.293827294857993E-18
v 0.127402 0.10278600000000006 0.910162
v 0.09962 0.102786 -6.293827294857993E-18
v 0.09962 0.12779 -7.824880723152013E-18
v 0.09962 0.12779000000000004 0.910162
v 0.09962 0.10278600000000006 0.910162
v -0.097223 -0.099443 6.089127582380512E-18
v -0.097223 -0.09944299999999995 0.910162
v -0.097223 -0.124447 7.620181010674533E-18
v -0.097223 -0.12444699999999995 0.910162
v -0.125005 -0.124447 7.620181010674533E-18
v -0.125005 -0.099443 6.089127582380512E-18
v -0.125005 -0.09944299999999995 0.910162
v -0.125005 -0.12444699999999995 0.910162
v -0.097223 0.12779 -7.824880723152013E-18
v -0.097223 0.12779000000000004 0.910162
v -0.097223 0.102786 -6.293827294857993E-18
v -0.097223 0.10278600000000006 0.910162
v -0.125005 0.102786 -6.293827294857993E-18
v -0.125005 0.12779 -7.824880723152013E-18
v -0.125005 0.12779000000000004 0.910162
v -0.125005 0.10278600000000006 0.910162
v -0.097223 -0.12444699999999995 0.910162
v -0.125005 -0.12444699999999995 0.910162
v -0.125005 -0.09944299999999995 0.910162
v -0.097223 -0.09944299999999995 0.910162
v -0.097223 0.10278600000000006 0.910162
v -0.125005 0.10278600000000006 0.910162
v -0.125005 0.12779000000000004 0.910162
v -0.097223 0.12779000000000004 0.910162
v 0.127402 0.10278600000000006 0.910162
v 0.09962 0.10278600000000006 0.910162
v 0.09962 0.12779000000000004 0.910162
v 0.127402 0.12779000000000004 0.910162
v 0.127402 -0.12444699999999995 0.910162
v 0.09962 -0.12444699999999995 0.910162
v 0.09962 -0.09944299999999995 0.910162
v 0.127402 -0.09944299999999995 0.910162
vt 0.514878 0.264963
vt 0.514878 0.280931
vt 0.514878 0.280931
vt 0.514878 0.280931
vt 0.596061 0.264963
vt 0.596061 0.280931
vt 0.596061 0.280931
vt 0.596061 0.280931
vt 0.514878 0.264963
vt 0.514878 0.280931
vt 0.596061 0.280931
vt 0.596061 0.264963
vt 0.514878 0.280931
vt 0.596061 0.280931
vt 0.514878 0.280931
vt 0.596061 0.280931
vt 0.514878 0.264963
vt 0.514878 0.280931
vt 0.596061 0.280931
vt 0.596061 0.264963
vt 0.514878 0.280931
vt 0.596061 0.280931
vt 0.514878 0.280931
vt 0.596061 0.280931
vt 0.514878 0.264963
vt 0.514878 0.280931
vt 0.596061 0.280931
vt 0.596061 0.264963
vt 0.514878 0.280931
vt 0.596061 0.280931
vt 0.514878 0.280931
vt 0.596061 0.280931
vt 0.514878 0.264963
vt 0.596061 0.264963
vt 0.514878 0.264963
vt 0.596061 0.264963
vt 0.514878 0.264963
vt 0.514878 0.280931
vt 0.596061 0.280931
vt 0.596061 0.264963
vt 0.514878 0.264963
vt 0.596061 0.264963
vt 0.514878 0.264963
vt 0.596061 0.264963
vt 0.514878 0.264963
vt 0.514878 0.280931
vt 0.596061 0.280931
vt 0.596061 0.264963
vt 0.514878 0.264963
vt 0.596061 0.264963
vt 0.514878 0.264963
vt 0.596061 0.264963
vt 0.514878 0.264963
vt 0.514878 0.280931
vt 0.596061 0.280931
vt 0.596061 0.264963
vt 0.514878 0.264963
vt 0.596061 0.264963
vt 0.514878 0.264963
vt 0.596061 0.264963
vt 0.514878 0.264963
vt 0.514878 0.280931
vt 0.596061 0.280931
vt 0.596061 0.264963
vt 0.596061 0.280931
vt 0.596061 0.280931
vt 0.596061 0.280931
vt 0.596061 0.280931
vt 0.596061 0.280931
vt 0.596061 0.280931
vt 0.596061 0.280931
vt 0.596061 0.280931
vt 0.596061 0.280931
vt 0.596061 0.280931
vt 0.596061 0.280931
vt 0.596061 0.280931
vt 0.596061 0.280931
vt 0.596061 0.280931
vt 0.596061 0.280931
vt 0.596061 0.280931
vn 0 1 -6.123233995736766E-17
vn 0 1 -6.123233995736766E-17
vn 0 -1 6.123233995736766E-17
vn 1 0 0
vn 0 1 -6.123233995736766E-17
vn 0 1 -6.123233995736766E-17
vn 0 -1 6.123233995736766E-17
vn 1 0 0
vn 0 1 -6.123233995736766E-17
vn 0 1 -6.123233995736766E-17
vn 0 1 -6.123233995736766E-17
vn 0 1 -6.123233995736766E-17
vn 1 0 0
vn 1 0 0
vn 0 -1 6.123233995736766E-17
vn 0 -1 6.123233995736766E-17
vn 0 1 -6.123233995736766E-17
vn 0 1 -6.123233995736766E-17
vn 0 1 -6.123233995736766E-17
vn 0 1 -6.123233995736766E-17
vn 1 0 0
vn 1 0 0
vn 0 -1 6.123233995736766E-17
vn 0 -1 6.123233995736766E-17
vn 0 1 -6.123233995736766E-17
vn 0 1 -6.123233995736766E-17
vn 0 1 -6.123233995736766E-17
vn 0 1 -6.123233995736766E-17
vn 1 0 0
vn 1 0 0
vn 0 -1 6.123233995736766E-17
vn 0 -1 6.123233995736766E-17
vn 1 0 0
vn 1 0 0
vn 0 -1 6.123233995736766E-17
vn 0 -1 6.123233995736766E-17
vn -1 0 0
vn -1 0 0
vn -1 0 0
vn -1 0 0
vn 1 0 0
vn 1 0 0
vn 0 -1 6.123233995736766E-17
vn 0 -1 6.123233995736766E-17
vn -1 0 0
vn -1 0 0
vn -1 0 0
vn -1 0 0
vn 1 0 0
vn 1 0 0
vn 0 -1 6.123233995736766E-17
vn 0 -1 6.123233995736766E-17
vn -1 0 0
vn -1 0 0
vn -1 0 0
vn -1 0 0
vn 1 0 0
vn 1 0 0
vn 0 -1 6.123233995736766E-17
vn 0 -1 6.123233995736766E-17
vn -1 0 0
vn -1 0 0
vn -1 0 0
vn -1 0 0
vn 0 6.123233995736766E-17 1
vn 0 6.123233995736766E-17 1
vn 0 6.123233995736766E-17 1
vn 0 6.123233995736766E-17 1
vn 0 6.123233995736766E-17 1
vn 0 6.123233995736766E-17 1
vn 0 6.123233995736766E-17 1
vn 0 6.123233995736766E-17 1
vn 0 6.123233995736766E-17 1
vn 0 6.123233995736766E-17 1
vn 0 6.123233995736766E-17 1
vn 0 6.123233995736766E-17 1
vn 0 6.123233995736766E-17 1
vn 0 6.123233995736766E-17 1
vn 0 6.123233995736766E-17 1
vn 0 6.123233995736766E-17 1
g 01
f 77/77/77 80/80/80 79/79/79
f 79/79/79 78/78/78 77/77/77
f 73/73/73 76/76/76 75/75/75
f 75/75/75 74/74/74 73/73/73
f 69/69/69 72/72/72 71/71/71
f 71/71/71 70/70/70 69/69/69
f 65/65/65 68/68/68 67/67/67
f 67/67/67 66/66/66 65/65/65
f 61/61/61 64/64/64 63/63/63
f 63/63/63 62/62/62 61/61/61
f 59/59/59 60/60/60 32/32/32
f 32/32/32 31/31/31 59/59/59
f 57/57/57 58/58/58 30/30/30
f 30/30/30 29/29/29 57/57/57
f 25/25/25 28/28/28 27/27/27
f 27/27/27 26/26/26 25/25/25
f 53/53/53 56/56/56 55/55/55
f 55/55/55 54/54/54 53/53/53
f 51/51/51 52/52/52 24/24/24
f 24/24/24 23/23/23 51/51/51
f 49/49/49 50/50/50 22/22/22
f 22/22/22 21/21/21 49/49/49
f 17/17/17 20/20/20 19/19/19
f 19/19/19 18/18/18 17/17/17
f 45/45/45 48/48/48 47/47/47
f 47/47/47 46/46/46 45/45/45
f 43/43/43 44/44/44 16/16/16
f 16/16/16 15/15/15 43/43/43
f 41/41/41 42/42/42 14/14/14
f 14/14/14 13/13/13 41/41/41
f 9/9/9 12/12/12 11/11/11
f 11/11/11 10/10/10 9/9/9
f 37/37/37 40/40/40 39/39/39
f 39/39/39 38/38/38 37/37/37
f 35/35/35 36/36/36 7/7/7
f 7/7/7 3/3/3 35/35/35
f 33/33/33 34/34/34 8/8/8
f 8/8/8 4/4/4 33/33/33
f 1/1/1 5/5/5 6/6/6
f 6/6/6 2/2/2 1/1/1
