v -0.086714 -0.296361 1.8146877502105437E-17
v -0.052491 -0.312319 1.912402318314511E-17
v -0.052491 -0.31231899999999996 0.5837
v -0.086714 -0.29636099999999993 0.5837
v -0.066854 -0.343121 2.101010171851195E-17
v -0.066854 -0.34312099999999995 0.5837
v -0.101077 -0.327162 2.0032894805132317E-17
v -0.101077 -0.32716199999999995 0.5837
v 0.046456 0.019422 -1.1892545066519946E-18
v 0.084217 0.019422 -1.1892545066519946E-18
v 0.084217 0.019422000000000033 0.5837
v 0.046456 0.019422000000000033 0.5837
v 0.084217 -0.014563 8.917265667991452E-19
v 0.084217 -0.014562999999999963 0.5837
v 0.046456 -0.014563 8.917265667991452E-19
v 0.046456 -0.014562999999999963 0.5837
v -0.012047 0.368121 -2.254091021744614E-17
v 0.024427 0.377894 -2.3139333875849496E-17
v 0.024427 0.37789400000000006 0.5837
v -0.012048 0.36812100000000003 0.5837
v 0.033223 0.345067 -2.1129259852068987E-17
v 0.033223 0.34506700000000007 0.5837
v -0.003251 0.335293 -2.0530774961325675E-17
v -0.003251 0.33529300000000006 0.5837
v -0.052491 -0.312319 1.912402318314511E-17
v -0.052491 -0.31231899999999996 0.5837
v -0.066854 -0.343121 2.101010171851195E-17
v -0.066854 -0.34312099999999995 0.5837
v -0.101077 -0.327162 2.0032894805132317E-17
v -0.086714 -0.296361 1.8146877502105437E-17
v -0.086714 -0.29636099999999993 0.5837
v -0.101077 -0.32716199999999995 0.5837
v -0.066854 -0.34312099999999995 0.5837
v -0.101077 -0.32716199999999995 0.5837
v -0.086714 -0.29636099999999993 0.5837
v -0.052491 -0.31231899999999996 0.5837
v 0.084217 0.019422 -1.1892545066519946E-18
v 0.084217 0.019422000000000033 0.5837
v 0.084217 -0.014563 8.917265667991452E-19
v 0.084217 -0.014562999999999963 0.5837
v 0.046456 -0.014563 8.917265667991452E-19
v 0.046456 0.019422 -1.1892545066519946E-18
v 0.046456 0.019422000000000033 0.5837
v 0.046456 -0.014562999999999963 0.5837
v 0.084217 -0.014562999999999963 0.5837
v 0.046456 -0.014562999999999963 0.5837
v 0.046456 0.019422000000000033 0.5837
v 0.084217 0.019422000000000033 0.5837
v 0.024427 0.377894 -2.3139333875849496E-17
v 0.024427 0.37789400000000006 0.5837
v 0.033223 0.345067 -2.1129259852068987E-17
v 0.033223 0.34506700000000007 0.5837
v -0.003251 0.335293 -2.0530774961325675E-17
v -0.012047 0.368121 -2.254091021744614E-17
v -0.012048 0.36812100000000003 0.5837
v -0.003251 0.33529300000000006 0.5837
v 0.033223 0.34506700000000007 0.5837
v -0.003251 0.33529300000000006 0.5837
v -0.012048 0.36812100000000003 0.5837
v 0.024427 0.37789400000000006 0.5837
vt 0.514878 0.264963
vt 0.514878 0.280931
vt 0.596061 0.280931
vt 0.596061 0.264963
vt 0.514878 0.280931
vt 0.596061 0.280931
vt 0.514878 0.280931
vt 0.596061 0.280931
vt 0.514878 0.264963
vt 0.514878 0.280931
vt 0.596061 0.280931
vt 0.596061 0.264963
vt 0.514878 0.280931
vt 0.596061 0.280931
vt 0.514878 0.280931
vt 0.596061 0.280931
vt 0.514878 0.264963
vt 0.514878 0.280931
vt 0.596061 0.280931
vt 0.596061 0.264963
vt 0.514878 0.280931
vt 0.596061 0.280931
vt 0.514878 0.280931
vt 0.596061 0.280931
vt 0.514878 0.264963
vt 0.596061 0.264963
vt 0.514878 0.264963
vt 0.596061 0.264963
vt 0.514878 0.264963
vt 0.514878 0.280931
vt 0.596061 0.280931
vt 0.596061 0.264963
vt 0.596061 0.280931
vt 0.596061 0.280931
vt 0.596061 0.280931
vt 0.596061 0.280931
vt 0.514878 0.264963
vt 0.596061 0.264963
vt 0.514878 0.264963
vt 0.596061 0.264963
vt 0.514878 0.264963
vt 0.514878 0.280931
vt 0.596061 0.280931
vt 0.596061 0.264963
vt 0.596061 0.280931
vt 0.596061 0.280931
vt 0.596061 0.280931
vt 0.596061 0.280931
vt 0.514878 0.264963
vt 0.596061 0.264963
vt 0.514878 0.264963
vt 0.596061 0.264963
vt 0.514878 0.264963
vt 0.514878 0.280931
vt 0.596061 0.280931
vt 0.596061 0.264963
vt 0.596061 0.280931
vt 0.596061 0.280931
vt 0.596061 0.280931
vt 0.596061 0.280931
vn 0.422618 0.906308 -5.549535956208197E-17
vn 0.422619 0.906308 -5.549535956208197E-17
vn 0.422618 0.906308 -5.549535956208197E-17
vn 0.422618 0.906308 -5.549535956208197E-17
vn 0.906308 -0.422618 2.5877889048102807E-17
vn 0.906308 -0.422618 2.5877889048102807E-17
vn -0.422618 -0.906308 5.549535956208197E-17
vn -0.422618 -0.906308 5.549535956208197E-17
vn 0 1 -6.123233995736766E-17
vn 0 1 -6.123233995736766E-17
vn 0 1 -6.123233995736766E-17
vn 0 1 -6.123233995736766E-17
vn 1 0 0
vn 1 0 0
vn 0 -1 6.123233995736766E-17
vn 0 -1 6.123233995736766E-17
vn -0.258818 0.965926 -5.914590920566031E-17
vn -0.258818 0.965926 -5.914590920566031E-17
vn -0.258818 0.965926 -5.914590920566031E-17
vn -0.258818 0.965926 -5.914590920566031E-17
vn 0.965926 0.25882 -1.5848154227765898E-17
vn 0.965926 0.25882 -1.5848154227765898E-17
vn 0.258821 -0.965925 5.914584797332036E-17
vn 0.258821 -0.965925 5.914584797332036E-17
vn 0.906308 -0.422618 2.5877889048102807E-17
vn 0.906308 -0.422618 2.5877889048102807E-17
vn -0.422618 -0.906308 5.549535956208197E-17
vn -0.422619 -0.906308 5.549535956208197E-17
vn -0.906308 0.422618 -2.5877889048102807E-17
vn -0.906308 0.422617 -2.587782781576285E-17
vn -0.906308 0.422618 -2.5877889048102807E-17
vn -0.906308 0.422619 -2.5877950280442764E-17
vn 0 6.123233995736766E-17 1
vn 0 6.123233995736766E-17 1
vn 0 6.123233995736766E-17 1
vn 0 6.123233995736766E-17 1
vn 1 0 0
vn 1 0 0
vn 0 -1 6.123233995736766E-17
vn 0 -1 6.123233995736766E-17
vn -1 -0 0
vn -1 -0 0
vn -1 -0 0
vn -1 -0 0
vn 0 6.123233995736766E-17 1
vn 0 6.123233995736766E-17 1
vn 0 6.123233995736766E-17 1
vn 0 6.123233995736766E-17 1
vn 0.965926 0.25882 -1.5848154227765898E-17
vn 0.965926 0.258819 -1.584809299542594E-17
vn 0.258821 -0.965925 5.914584797332036E-17
vn 0.258821 -0.965925 5.914584797332036E-17
vn -0.965926 -0.258819 1.584809299542594E-17
vn -0.965926 -0.258819 1.584809299542594E-17
vn -0.965926 -0.258819 1.584809299542594E-17
vn -0.965926 -0.258819 1.584809299542594E-17
vn 0 6.123233995736766E-17 1
vn 0 6.123233995736766E-17 1
vn 0 6.123233995736766E-17 1
vn 0 6.123233995736766E-17 1
g 01
f 57/57/57 60/60/60 59/59/59
f 59/59/59 58/58/58 57/57/57
f 53/53/53 56/56/56 55/55/55
f 55/55/55 54/54/54 53/53/53
f 51/51/51 52/52/52 24/24/24
f 24/24/24 23/23/23 51/51/51
f 49/49/49 50/50/50 22/22/22
f 22/22/22 21/21/21 49/49/49
f 17/17/17 20/20/20 19/19/19
f 19/19/19 18/18/18 17/17/17
f 45/45/45 48/48/48 47/47/47
f 47/47/47 46/46/46 45/45/45
f 41/41/41 44/44/44 43/43/43
f 43/43/43 42/42/42 41/41/41
f 39/39/39 40/40/40 16/16/16
f 16/16/16 15/15/15 39/39/39
f 37/37/37 38/38/38 14/14/14
f 14/14/14 13/13/13 37/37/37
f 9/9/9 12/12/12 11/11/11
f 11/11/11 10/10/10 9/9/9
f 33/33/33 36/36/36 35/35/35
f 35/35/35 34/34/34 33/33/33
f 29/29/29 32/32/32 31/31/31
f 31/31/31 30/30/30 29/29/29
f 27/27/27 28/28/28 8/8/8
f 8/8/8 7/7/7 27/27/27
f 25/25/25 26/26/26 6/6/6
f 6/6/6 5/5/5 25/25/25
f 1/1/1 4/4/4 3/3/3
f 3/3/3 2/2/2 1/1/1
