v 0.591043 -4.8067386866533615E-20 -0.000785
v 0.591043 -2.0725187640690317E-17 -0.338468
v 0.294855 -2.0725187640690317E-17 -0.338468
v 0.294855 -4.8067386866533615E-20 -0.000785
v -0.001333 -2.0725187640690317E-17 -0.338468
v -0.001333 -4.8067386866533615E-20 -0.000785
vt 0.498691 0.252525
vt 0.498691 0.496820
vt 0.249345 0.496820
vt 0.249345 0.252525
vt 0.000000 0.496820
vt 0.000000 0.252525
vn 0 1 -6.123233995736766E-17
vn 0 1 -6.123233995736766E-17
vn 0 1 -6.123233995736766E-17
vn 0 1 -6.123233995736766E-17
vn 0 1 -6.123233995736766E-17
vn 0 1 -6.123233995736766E-17
g flag
f 1/1/1 2/2/2 3/3/3
f 3/3/3 4/4/4 1/1/1
f 4/4/4 3/3/3 5/5/5
f 5/5/5 6/6/6 4/4/4
