v 0.428317 -0.49999999999999994 0.561778
v 0.428403 -0.49999999999999994 0.682606
v 0.428403 0.5 0.682606
v 0.428403 0.5 0.561778
v 0.420971 3.627507914052388E-17 0.592417
v 0.491869 -0.12817 7.848149012335814E-18
v 0.48794 0.12817 -7.848149012335814E-18
v 0.49629 -0.15443999999999997 0.228276
v 0.49629 0.15444000000000002 0.249974
v 0.49629 -0.280217 0.340889
v 0.49629 0.280217 0.373436
v 0 -0.49999999999999994 0.47028600000000004
v 0.459471 -0.49999999999999994 0.720875
v 0.502406 -0.49999999999999994 0.679493
v 0.416535 -0.49999999999999994 0.679493
v 0.442456 1.480242 -0.00024400000000009063
v 0.435131 1.48656 -0.00024400000000009101
v 0.435131 1.48656 0.16602099999999992
v 0.503003 1.445775 -0.00024400000000008852
v 0.503003 1.445775 0.16602099999999992
v 0.510145 0.8582 0.24997499999999995
v 0.503003 0.879524 -0.00024400000000005385
v 0.447503 1.202415 0.16247499999999993
v 0.447503 1.2612 0.2737049999999999
v 0.459471 0.5 0.720875
v 0.489314 1.260719 0.31484299999999993
v 0.431819 1.494131 0.1738339999999999
v 0.538103 1.438943 0.1738339999999999
v 0.431819 1.494131 0.1326289999999999
v 0.502406 0.5 0.679493
v 0.416535 0.5 0.679493
v 0.440802 1.240774 0.28554599999999997
v 0.537601 1.238403 0.28682799999999997
v 0.538103 1.438943 0.1326289999999999
v 0.441954 0.950439 0.3220569999999999
v -0.420971 3.627507914052388E-17 0.592417
v 0 -0.280217 0.340889
v -0.428403 0.5 0.561778
v -0.442456 1.480242 -0.00024400000000009063
v 0 0.5 0.4702859999999999
v -0.441954 0.950439 0.3220569999999999
v -0.428403 0.5 0.682606
v -0.428403 0.5 0.561778
v -0.420971 3.627507914052388E-17 0.592417
v -0.49629 0.5 0.682606
v -0.49629 -0.280217 0.340889
v -0.49629 -0.15443999999999997 0.228276
v -0.49629 0.15444000000000002 0.249974
v -0.503003 -0.12817 7.848149012335814E-18
v -0.49629 -0.49999999999999994 0.682606
v -0.49629 -0.5 3.061616997868383E-17
v -0.428217 -0.49999999999999994 0.561778
v -0.428403 -0.49999999999999994 0.682606
v 0 -0.15443999999999997 0.228277
v 0 -0.12817 7.848149012335814E-18
v 0 0.280217 0.373436
v -0.459471 -0.49999999999999994 0.720875
v -0.459471 0.5 0.720875
v -0.502406 -0.49999999999999994 0.679493
v -0.416535 0.5 0.679493
v -0.502406 0.5 0.679493
v -0.416535 -0.49999999999999994 0.679493
v -0.441954 0.950439 0.3220569999999999
v -0.447503 1.2612 0.2737049999999999
v -0.447503 1.202415 0.16247499999999993
v -0.435131 1.48656 0.16602099999999992
v -0.435131 1.48656 -0.00024400000000009101
v -0.521924 1.272797 0.26259699999999997
v -0.503003 1.445775 -0.00024400000000008852
v -0.503003 1.445775 0.16602099999999992
v -0.489314 1.260719 0.31484299999999993
v -0.431819 1.494131 0.1738339999999999
v -0.538103 1.438943 0.1738339999999999
v -0.538103 1.438943 0.1326289999999999
v -0.431819 1.494131 0.1326289999999999
v -0.440802 1.240774 0.28554599999999997
v -0.537601 1.238403 0.28682799999999997
v 0.503217 0.723186 0.37343599999999993
v 0 0.723186 0.33022299999999993
v -0.503003 0.12817 -7.848149012335814E-18
v -0 0.12817 -7.848149012335814E-18
v -0 0.15444000000000002 0.249974
v -0.49629 0.280217 0.373436
v -0 0.280217 0.373436
v -0.498792 0.8582 0.24997499999999995
v -0 0.8582 0.20676199999999995
v -0 0.879524 -0.00024400000000005385
v -0.503003 0.879524 -0.00024400000000005385
v -0.496747 0.723186 0.37343599999999993
v -0 0.723186 0.33022299999999993
v 0.428317 -0.49999999999999994 0.561778
v 0.428403 0.5 0.561778
v 0.420971 3.627507914052388E-17 0.592417
v 0.441954 0.950439 0.3220569999999999
v -0.428217 -0.49999999999999994 0.561778
v -0.503003 1.445775 -0.00024400000000008852
v -0.503003 1.445775 0.16602099999999992
v 0.49629 -0.5 3.061616997868383E-17
v 0.49629 -0.49999999999999994 0.682606
v 0.49629 0.5 0.682606
v 0.521924 1.272797 0.26259599999999994
v 0.503003 1.445775 0.16602099999999992
v 0.503003 1.445775 -0.00024400000000008852
v 0.428403 -0.49999999999999994 0.682606
v 0.428403 -0.49999999999999994 0.561778
v 0.442456 -1.480242 -0.00024399999999990936
v 0.435131 -1.48656 -0.00024399999999990898
v 0.435131 -1.48656 0.16602100000000009
v 0.503003 -1.445775 -0.00024399999999991147
v 0.503003 -1.445775 0.16602100000000009
v 0.510145 -0.8582 0.24997500000000006
v 0.503003 -0.879524 -0.00024399999999994614
v 0.447503 -1.202415 0.1624750000000001
v 0.447503 -1.2612 0.27370500000000003
v 0.459471 -0.49999999999999994 0.720875
v 0.489314 -1.260719 0.31484300000000004
v 0.431819 -1.494131 0.17383400000000007
v 0.538103 -1.438943 0.17383400000000007
v 0.431819 -1.494131 0.13262900000000008
v 0.502406 -0.49999999999999994 0.679493
v 0.416535 -0.49999999999999994 0.679493
v 0.440802 -1.240774 0.2855460000000001
v 0.537601 -1.238403 0.2868280000000001
v 0.538103 -1.438943 0.13262900000000008
v 0.441954 -0.950439 0.32205700000000004
v -0.428403 -0.49999999999999994 0.561778
v -0.442456 -1.480242 -0.00024399999999990936
v 0 -0.49999999999999994 0.47028600000000004
v -0.441954 -0.950439 0.32205700000000004
v -0.428403 -0.49999999999999994 0.682606
v -0.428403 -0.49999999999999994 0.561778
v -0.49629 -0.49999999999999994 0.682606
v -0.459471 -0.49999999999999994 0.720875
v -0.416535 -0.49999999999999994 0.679493
v -0.502406 -0.49999999999999994 0.679493
v -0.441954 -0.950439 0.32205700000000004
v -0.447503 -1.2612 0.27370500000000003
v -0.447503 -1.202415 0.1624750000000001
v -0.435131 -1.48656 0.16602100000000009
v -0.435131 -1.48656 -0.00024399999999990898
v -0.521924 -1.272797 0.2625970000000001
v -0.503003 -1.445775 -0.00024399999999991147
v -0.503003 -1.445775 0.16602100000000009
v -0.489314 -1.260719 0.31484300000000004
v -0.431819 -1.494131 0.17383400000000007
v -0.538103 -1.438943 0.17383400000000007
v -0.538103 -1.438943 0.13262900000000008
v -0.431819 -1.494131 0.13262900000000008
v -0.440802 -1.240774 0.2855460000000001
v -0.537601 -1.238403 0.2868280000000001
v 0.503217 -0.723186 0.37343600000000005
v 0 -0.723186 0.33022300000000004
v -0.510145 -0.8582 0.24997500000000006
v -0 -0.8582 0.20676200000000006
v -0 -0.879524 -0.00024399999999994614
v -0.503003 -0.879524 -0.00024399999999994614
v -0.503217 -0.723186 0.37343600000000005
v -0 -0.723186 0.33022300000000004
v 0.428403 -0.49999999999999994 0.561778
v 0.441954 -0.950439 0.32205700000000004
v -0.503003 -1.445775 -0.00024399999999991147
v -0.503003 -1.445775 0.16602100000000009
v 0.49629 -0.49999999999999994 0.682606
v 0.521924 -1.272797 0.26259600000000005
v 0.503003 -1.445775 0.16602100000000009
v 0.503003 -1.445775 -0.00024399999999991147
v -0.49629 -0.5 3.061616997868383E-17
v 0.49629 -0.5 3.061616997868383E-17
v 0.48794 0.12817 -7.848149012335814E-18
v 0.49629 0.15444000000000002 0.249974
v 0.49629 -0.15443999999999997 0.228276
v 0.491869 -0.12817 7.848149012335814E-18
v 0.428403 0.5 0.561778
v 0.428403 0.5 0.682606
v 0.502406 0.5 0.679493
v 0.459471 0.5 0.720875
v 0.416535 0.5 0.679493
v 0.435131 1.48656 -0.00024400000000009101
v 0.435131 1.48656 0.16602099999999992
v 0 0.5 0.4702859999999999
v -0.428403 0.5 0.561778
v 0 -0.12817 7.848149012335814E-18
v 0 -0.15443999999999997 0.228277
v 0 -0.280217 0.340889
v -0.428403 0.5 0.561778
v -0.428403 0.5 0.682606
v -0.502406 0.5 0.679493
v -0.459471 0.5 0.720875
v -0.416535 0.5 0.679493
v -0.435131 1.48656 -0.00024400000000009101
v -0.435131 1.48656 0.16602099999999992
v 0.510145 0.8582 0.24997499999999995
v -0 0.8582 0.20676199999999995
v -0 0.8582 0.20676199999999995
v 0.503217 0.723186 0.37343599999999993
v -0 0.15444000000000002 0.249974
v -0 0.12817 -7.848149012335814E-18
v -0 0.8582 0.20676199999999995
v -0 0.879524 -0.00024400000000005385
v -0 0.8582 0.20676199999999995
v -0.498792 0.8582 0.24997499999999995
v 0.428403 0.5 0.561778
v 0.435131 -1.48656 -0.00024399999999990898
v 0.435131 -1.48656 0.16602100000000009
v -0.435131 -1.48656 -0.00024399999999990898
v -0.435131 -1.48656 0.16602100000000009
v -0 -0.8582 0.20676200000000006
v -0 -0.8582 0.20676200000000006
v 0.510145 -0.8582 0.24997500000000006
v 0.503217 -0.723186 0.37343600000000005
v -0 -0.8582 0.20676200000000006
v -0 -0.879524 -0.00024399999999994614
v -0.510145 -0.8582 0.24997500000000006
v -0 -0.8582 0.20676200000000006
v -0 -0.8582 0.20676200000000006
v -0.503217 -0.723186 0.37343600000000005
v 0.459471 0.5 0.720875
v 0.459471 -0.49999999999999994 0.720875
v 0.459471 -0.49999999999999994 0.720875
v 0.538103 1.438943 0.1738339999999999
v 0.431819 1.494131 0.1738339999999999
v 0.459471 0.5 0.720875
v 0.431819 1.494131 0.1326289999999999
v 0.431819 1.494131 0.1738339999999999
v 0.489314 1.260719 0.31484299999999993
v 0.538103 1.438943 0.1738339999999999
v -0.459471 -0.49999999999999994 0.720875
v -0.459471 -0.49999999999999994 0.720875
v -0.459471 0.5 0.720875
v -0.459471 0.5 0.720875
v -0.431819 1.494131 0.1738339999999999
v -0.431819 1.494131 0.1326289999999999
v -0.538103 1.438943 0.1738339999999999
v -0.489314 1.260719 0.31484299999999993
v 0.49629 0.5 0.682606
v 0.503003 1.445775 0.16602099999999992
v 0.431819 -1.494131 0.17383400000000007
v 0.459471 -0.49999999999999994 0.720875
v 0.431819 -1.494131 0.17383400000000007
v 0.431819 -1.494131 0.13262900000000008
v 0.489314 -1.260719 0.31484300000000004
v -0.459471 -0.49999999999999994 0.720875
v -0.431819 -1.494131 0.13262900000000008
v -0.431819 -1.494131 0.17383400000000007
v -0.489314 -1.260719 0.31484300000000004
v -0.538103 -1.438943 0.17383400000000007
vt 1.966529 0.963781
vt 1.996748 0.936770
vt 1.892864 0.397839
vt 1.861063 0.426264
vt 1.927936 0.682386
vt 1.365595 0.988467
vt 1.437494 0.989701
vt 1.358796 0.860207
vt 1.445481 0.849552
vt 1.003483 0.760875
vt 1.120100 0.754473
vt 0.374545 0.554756
vt 1.783093 0.413610
vt 1.783093 0.363724
vt 1.783093 0.463544
vt 0.244009 0.009908
vt 1.628916 0.037569
vt 1.659001 0.012311
vt 1.804169 0.991347
vt 1.804169 0.898251
vt 1.642520 0.196843
vt 1.647949 0.327915
vt 1.686706 0.153460
vt 1.708399 0.100056
vt 1.514697 0.413610
vt 1.601720 0.514216
vt 1.527759 0.545153
vt 1.537853 0.483279
vt 1.519094 0.563856
vt 1.514697 0.363724
vt 1.514697 0.463545
vt 1.601720 0.563856
vt 1.601720 0.464511
vt 1.529036 0.464511
vt 1.754772 0.248659
vt 0.256310 0.281930
vt 1.108501 0.760875
vt 0.003136 0.609405
vt 0.003493 0.005501
vt 0.374503 0.009100
vt 0.001483 0.331127
vt 0.892864 0.397839
vt 0.861063 0.426264
vt 0.927936 0.682386
vt 0.543459 0.608579
vt 0.003483 0.760875
vt 0.003483 0.857019
vt 0.120106 0.851829
vt 0.003483 0.991746
vt 0.262859 0.608432
vt 0.261546 0.991648
vt 0.966529 0.963781
vt 0.996748 0.936770
vt 1.108501 0.857019
vt 1.108501 0.991746
vt 1.257123 0.754473
vt 0.783093 0.413610
vt 0.514697 0.413610
vt 0.783093 0.363724
vt 0.514697 0.463545
vt 0.514697 0.363724
vt 0.783093 0.463544
vt 0.754772 0.248659
vt 0.708553 0.100053
vt 0.686706 0.153460
vt 0.659001 0.012311
vt 0.628916 0.037569
vt 0.750115 0.840357
vt 0.804169 0.991347
vt 0.804169 0.898251
vt 0.601720 0.514216
vt 0.527759 0.545153
vt 0.537853 0.483279
vt 0.529036 0.464511
vt 0.519094 0.563856
vt 0.601720 0.563856
vt 0.601720 0.464511
vt 1.637702 0.101534
vt 1.506531 0.133372
vt 0.117234 0.990661
vt 1.257175 0.990494
vt 1.257128 0.851747
vt 0.120100 0.754473
vt 0.257123 0.754473
vt 0.642520 0.196843
vt 1.509545 0.228908
vt 1.511500 0.337722
vt 0.647949 0.327915
vt 0.637702 0.101534
vt 0.506531 0.133372
vt 0.492984 0.553786
vt 0.240472 0.611865
vt 0.492664 0.281850
vt 0.243420 0.334669
vt 0.256239 0.554763
vt 0.804169 0.991347
vt 0.804169 0.898251
vt 0.261546 0.991648
vt 0.262859 0.608432
vt 0.543459 0.608579
vt 0.750108 0.840643
vt 0.804169 0.898251
vt 0.804169 0.991347
vt 1.892733 0.399034
vt 1.862394 0.424505
vt 0.244009 0.009908
vt 1.628916 0.037569
vt 1.659001 0.012311
vt 1.804169 0.991347
vt 1.804169 0.898251
vt 1.642520 0.196843
vt 1.647949 0.327915
vt 1.686706 0.153460
vt 1.708399 0.100056
vt 1.844390 0.514215
vt 1.601720 0.514216
vt 1.527759 0.545153
vt 1.537853 0.483279
vt 1.519094 0.563856
vt 1.844390 0.464510
vt 1.844390 0.563855
vt 1.601720 0.563856
vt 1.601720 0.464511
vt 1.529036 0.464511
vt 1.754772 0.248659
vt 0.003136 0.609405
vt 0.003493 0.005501
vt 0.121615 0.589519
vt 0.001483 0.331127
vt 0.892733 0.399034
vt 0.862394 0.424505
vt 0.541958 0.603673
vt 0.844390 0.514215
vt 0.844390 0.563855
vt 0.844390 0.464510
vt 0.754772 0.248659
vt 0.708553 0.100053
vt 0.686706 0.153460
vt 0.659001 0.012311
vt 0.628916 0.037569
vt 0.750115 0.840357
vt 0.804169 0.991347
vt 0.804169 0.898251
vt 0.601720 0.514216
vt 0.527759 0.545153
vt 0.537853 0.483279
vt 0.529036 0.464511
vt 0.519094 0.563856
vt 0.601720 0.563856
vt 0.601720 0.464511
vt 1.637702 0.101534
vt 1.506531 0.133372
vt 0.642520 0.196843
vt 1.509545 0.228908
vt 1.511500 0.337722
vt 0.647949 0.327915
vt 0.637702 0.101534
vt 0.506531 0.133372
vt 0.240472 0.611865
vt 0.243420 0.334669
vt 0.804169 0.991347
vt 0.804169 0.898251
vt 0.541958 0.603673
vt 0.750108 0.840643
vt 0.804169 0.898251
vt 0.804169 0.991347
vt 0.541958 0.991577
vt 0.541958 0.991576
vt 1.117234 0.990661
vt 1.120106 0.851829
vt 1.003483 0.857019
vt 1.003483 0.991746
vt 1.862394 0.424505
vt 1.892733 0.399034
vt 1.844390 0.464510
vt 1.844390 0.514215
vt 1.844390 0.563855
vt 1.818712 0.991224
vt 1.818712 0.898127
vt 0.121615 0.589519
vt 0.256098 0.009071
vt 0.108501 0.991746
vt 0.108501 0.857019
vt 0.108501 0.760875
vt 0.862394 0.424505
vt 0.892733 0.399034
vt 0.844390 0.464510
vt 0.844390 0.514215
vt 0.844390 0.563855
vt 0.818712 0.991224
vt 0.818712 0.898127
vt 1.642520 0.196843
vt 1.509545 0.228908
vt 1.509545 0.228908
vt 1.637702 0.101534
vt 0.257128 0.851747
vt 0.257175 0.990494
vt 0.509545 0.228908
vt 0.511500 0.337722
vt 0.509545 0.228908
vt 0.642520 0.196843
vt 0.492910 0.009078
vt 1.818712 0.991224
vt 1.818712 0.898127
vt 0.818712 0.991224
vt 0.818712 0.898127
vt 1.509545 0.228908
vt 1.509545 0.228908
vt 1.642520 0.196843
vt 1.637702 0.101534
vt 0.509545 0.228908
vt 0.511500 0.337722
vt 0.642520 0.196843
vt 0.509545 0.228908
vt 0.509545 0.228908
vt 0.637702 0.101534
vt 1.514697 0.413610
vt 1.783093 0.413610
vt 1.783093 0.413610
vt 1.537853 0.483279
vt 1.527759 0.545153
vt 1.844390 0.514215
vt 1.519094 0.563856
vt 1.527759 0.545153
vt 1.601720 0.514216
vt 1.537853 0.483279
vt 0.783093 0.413610
vt 0.783093 0.413610
vt 0.514697 0.413610
vt 0.844390 0.514215
vt 0.527759 0.545153
vt 0.519094 0.563856
vt 0.537853 0.483279
vt 0.601720 0.514216
vt 0.543459 0.608579
vt 0.804169 0.898251
vt 1.527759 0.545153
vt 1.844390 0.514215
vt 1.527759 0.545153
vt 1.519094 0.563856
vt 1.601720 0.514216
vt 0.844390 0.514215
vt 0.519094 0.563856
vt 0.527759 0.545153
vt 0.601720 0.514216
vt 0.537853 0.483279
vn -0.992467 -0.014612999999999992 0.121641
vn -1 4.347496136973104E-20 0.00071
vn -0.998151 0.0027500000000000037 0.060715
vn -0.999787 0.017583 -0.010819000000000002
vn -0.99259 -0.007126999999999992 0.121305
vn 0.999728 0.015320999999999998 -0.017597
vn 0.999633 0.008841999999999997 -0.025615
vn 0.999633 0.008841999999999997 -0.025615
vn 0.999432 0.0023619999999999978 -0.03363
vn -0 -0.66704 -0.745022
vn 0 0.700506 -0.713646
vn 1.2E-05 -0.032440999999999935 0.999474
vn 0 6.123233995736766E-17 1
vn 0.693958 4.408820325440407E-17 0.720015
vn -0.693958 4.408820325440407E-17 0.720015
vn 0 0.519727 0.854333
vn -0.999053 -0.043501 2.6636680204854506E-18
vn -0.99898 -0.043642 0.011569000000000003
vn 0.515072 0.857147 -5.2485116497437817E-17
vn 0.515072 0.857147 -5.2485116497437817E-17
vn 0.00721 -0.996345 -0.08511599999999994
vn 0.003605 -0.995585 -0.09379699999999995
vn -0.99971 -0.023606 0.0048080000000000015
vn -0.999986 0.0026509999999999997 -0.004511
vn 0.004105 0.24935800000000005 0.968403
vn 0.222615 0.44639100000000004 0.866705
vn -0.341814 0.698133 0.629105
vn 0.701723 0.665272 0.2549469999999999
vn -0.044631 0.999004 -6.117135254677013E-17
vn 0.668017 0.17650900000000005 0.72291
vn -0.66801 0.19778300000000004 0.717387
vn -0.804094 0.24831100000000003 0.540161
vn 0.593118 0.42475500000000005 0.683954
vn 0.844463 0.464688 0.26635799999999993
vn -0.999681 0.014646999999999999 -0.020587
vn 0.232306 2.6000000000059555E-05 0.972643
vn -0 -0.66704 -0.745022
vn 0.20107 0.27046800000000004 0.941498
vn 0 0.519727 0.854333
vn 0 0.20470300000000005 0.978824
vn 0.06213 0.43653600000000004 0.897539
vn 0.99984 0.010274999999999998 -0.014634
vn 0.996496 0.019908000000000002 0.081239
vn 0.992411 0.0073890000000000075 0.122743
vn -0.998194 -0.038188 -0.046368
vn 0 -0.66704 -0.745022
vn 0 -0.938812 -0.34443099999999993
vn -0 0.842484 -0.538721
vn 0 -0.993443 -0.11432499999999994
vn -1 0 0
vn -0.999995 -0.0017249999999999998 0.002527
vn 0.999892 -0.014584 0.0015420000000000008
vn 0.99664 0.004922000000000005 0.081758
vn -0 -0.823349 -0.567536
vn -0 -0.993443 -0.11432499999999994
vn 0 0.700506 -0.713646
vn 0.305872 5.82976576002309E-17 0.952073
vn -0.193597 0.19664000000000006 0.961173
vn -0.693958 4.408820325440407E-17 0.720015
vn 0.66801 0.19778300000000004 0.717387
vn -0.654434 0.23495600000000005 0.718688
vn 0.693958 4.408820325440407E-17 0.720015
vn 0.999651 0.010777999999999998 -0.024106
vn 0.999906 -0.012127 0.006409000000000001
vn 0.999779 -0.019079 -0.008850999999999998
vn 0.99898 -0.043643 0.011569000000000003
vn 0.999053 -0.043501 2.6636680204854506E-18
vn -0.997372 -0.0009850000000000043 -0.072445
vn -0.515072 0.857147 -5.2485116497437817E-17
vn -0.515072 0.857147 -5.2485116497437817E-17
vn -0.222615 0.44639100000000004 0.866705
vn 0.123562 0.853506 0.506222
vn -0.77125 0.527826 0.3557699999999999
vn -0.763578 0.61521 0.19612599999999997
vn 0.534278 0.845309 -5.17602480570225E-17
vn 0.804094 0.24831100000000003 0.540161
vn -0.593118 0.42475500000000005 0.683954
vn 0.062255 -0.675259 -0.734949
vn 0.063245 -0.673479 -0.736496
vn 0 0.994523 -0.10451600000000005
vn 0 0.994523 -0.10451600000000005
vn 0 0.945887 -0.32449600000000006
vn -0 0.700506 -0.713646
vn -0 0.700506 -0.713646
vn -0.007346 -0.996372 -0.08478899999999995
vn -3.4E-05 -0.995599 -0.09371599999999994
vn 0 -0.994736 -0.10246999999999995
vn -0.003673 -0.9956 -0.09363399999999994
vn -0.064066 -0.673443 -0.736457
vn -0.064066 -0.673443 -0.736457
vn -0.208481 -0.06287199999999994 0.976003
vn -0.20107 0.27046800000000004 0.941498
vn -0.232291 1.2000000000059559E-05 0.972647
vn -0.046552 0.45801500000000006 0.887725
vn 0.208529 -0.06282999999999994 0.975996
vn -0.998917 -0.0018120000000000028 -0.046493
vn -0.994071 0.108735 -6.6580984852643726E-18
vn 0.999995 -0.0017249999999999998 0.002527
vn 1 0 0
vn 0.95175 -0.15040100000000003 -0.267491
vn 0.090815 -0.4778740000000001 -0.873721
vn 0.737355 -0.32783300000000004 -0.590621
vn 0.999983 -0.005274 0.0025270000000000006
vn -0.999685 -0.025084 1.5359520154906103E-18
vn -0.999689 -0.018943 -0.016229
vn 0 -0.519727 0.854333
vn -0.999053 0.043501 -2.6636680204854506E-18
vn -0.99898 0.043642 0.011568999999999996
vn 0.515074 -0.857146 5.248505526509786E-17
vn 0.515074 -0.857146 5.248505526509786E-17
vn 0.00721 0.996345 -0.08511600000000005
vn 0.003605 0.995585 -0.09379700000000006
vn -0.99971 0.023606 0.004807999999999998
vn -0.999986 -0.0026510000000000006 -0.004511
vn 0.007748 -0.47062299999999996 0.882301
vn 0.222614 -0.4463909999999999 0.866705
vn -0.341814 -0.698133 0.629105
vn 0.701722 -0.665272 0.25494700000000003
vn -0.044631 -0.999004 6.117135254677013E-17
vn 0.620755 -0.34755099999999994 0.70276
vn -0.615438 -0.3878019999999999 0.686182
vn -0.804094 -0.24831099999999998 0.540161
vn 0.593118 -0.42475599999999997 0.683955
vn 0.844463 -0.464689 0.26635800000000004
vn -0.999681 -0.014647000000000002 -0.020587
vn 0.184787 -0.46603999999999995 0.865252
vn 0 -0.519727 0.854333
vn 0 -0.42116599999999993 0.906983
vn 0.06213 -0.4365359999999999 0.897539
vn 0.999716 -0.013700000000000002 -0.019512
vn 0.999548 -0.030071 1.841317694858003E-18
vn -0.99945 0.033153 -2.03003576660661E-18
vn -0.007748 -0.47062299999999996 0.882301
vn 0.615438 -0.3878019999999999 0.686182
vn -0.620755 -0.34755099999999994 0.70276
vn 0.999651 -0.010778000000000001 -0.024106
vn 0.999906 0.012127 0.006408999999999999
vn 0.999779 0.019079 -0.008851000000000001
vn 0.99898 0.043643 0.011568999999999996
vn 0.999053 0.043501 -2.6636680204854506E-18
vn -0.999412 -0.022887 -0.025547
vn -0.515074 -0.857146 5.248505526509786E-17
vn -0.515074 -0.857146 5.248505526509786E-17
vn -0.222614 -0.4463909999999999 0.866705
vn 0.123562 -0.853505 0.506222
vn -0.77125 -0.527826 0.35577000000000003
vn -0.763578 -0.61521 0.19612600000000002
vn 0.534278 -0.845309 5.17602480570225E-17
vn 0.804094 -0.24831099999999998 0.540161
vn -0.593118 -0.42475599999999997 0.683955
vn 0.063245 0.673479 -0.736496
vn 0.063245 0.673479 -0.736496
vn -0.00721 0.996345 -0.08511600000000005
vn 0 0.995591 -0.09379800000000006
vn 0 0.994736 -0.10247000000000006
vn -0.003605 0.995585 -0.09379700000000006
vn -0.062255 0.675259 -0.734949
vn -0.063245 0.673479 -0.736496
vn -0.184787 -0.46603999999999995 0.865252
vn -0.046552 -0.45801499999999995 0.887725
vn -0.997967 -0.050941 -0.038315
vn -0.994071 -0.108735 6.6580984852643726E-18
vn 0.995643 0.05912699999999999 -0.072104
vn 0.997372 0.0009849999999999956 -0.072445
vn 0.994071 -0.108735 6.6580984852643726E-18
vn 0.998834 0.003035999999999997 -0.048185
vn -0.999065 0.020141999999999997 -0.038254
vn 0.999975 0.007098 -4.346271490173957E-19
vn 0 0.994523 -0.10451600000000005
vn 0 0.842484 -0.538721
vn -0 -0.938812 -0.34443099999999993
vn 0 -0.993443 -0.11432499999999994
vn -0.999787 0.017583 -0.010819000000000002
vn -0.998151 0.0027500000000000037 0.060715
vn 0.668017 0.17650900000000005 0.72291
vn 0.004105 0.24935800000000005 0.968403
vn -0.66801 0.19778300000000004 0.717387
vn 0.515072 0.857147 -5.2485116497437817E-17
vn 0.515072 0.857147 -5.2485116497437817E-17
vn 0 0.20470300000000005 0.978824
vn 0.20107 0.27046800000000004 0.941498
vn -0 -0.993443 -0.11432499999999994
vn -0 -0.823349 -0.567536
vn -0 -0.66704 -0.745022
vn 0.996496 0.019908000000000002 0.081239
vn 0.99984 0.010274999999999998 -0.014634
vn -0.654434 0.23495600000000005 0.718688
vn -0.193597 0.19664000000000006 0.961173
vn 0.66801 0.19778300000000004 0.717387
vn -0.515072 0.857147 -5.2485116497437817E-17
vn -0.515072 0.857147 -5.2485116497437817E-17
vn 0.062255 -0.675259 -0.734949
vn 0.062255 -0.675259 -0.734949
vn 0.063245 -0.673479 -0.736496
vn 0.063245 -0.673479 -0.736496
vn 0 0.945887 -0.32449600000000006
vn 0 0.994523 -0.10451600000000005
vn -3.4E-05 -0.995599 -0.09371599999999994
vn 0 -0.994736 -0.10246999999999995
vn -0.064066 -0.673443 -0.736457
vn -0.063763 -0.673982 -0.735991
vn -0.20107 0.27046800000000004 0.941498
vn 0.515074 -0.857146 5.248505526509786E-17
vn 0.515074 -0.857146 5.248505526509786E-17
vn -0.515074 -0.857146 5.248505526509786E-17
vn -0.515074 -0.857146 5.248505526509786E-17
vn 0.063245 0.673479 -0.736496
vn 0.062255 0.675259 -0.734949
vn 0.062255 0.675259 -0.734949
vn 0.062255 0.675259 -0.734949
vn 0 0.995591 -0.09379800000000006
vn 0 0.994736 -0.10247000000000006
vn -0.062255 0.675259 -0.734949
vn -0.062255 0.675259 -0.734949
vn -0.063245 0.673479 -0.736496
vn -0.063245 0.673479 -0.736496
vn 0.004105 0.24935800000000005 0.968403
vn 0 6.123233995736766E-17 1
vn 0 6.123233995736766E-17 1
vn 0.701723 0.665272 0.2549469999999999
vn -0.341814 0.698133 0.629105
vn 0.004105 0.24935800000000005 0.968403
vn -0.044631 0.999004 -6.117135254677013E-17
vn -0.341814 0.698133 0.629105
vn 0.222615 0.44639100000000004 0.866705
vn 0.701723 0.665272 0.2549469999999999
vn 0.305872 5.82976576002309E-17 0.952073
vn 0.305872 5.82976576002309E-17 0.952073
vn -0.193597 0.19664000000000006 0.961173
vn -0.193597 0.19664000000000006 0.961173
vn 0.123562 0.853506 0.506222
vn 0.534278 0.845309 -5.17602480570225E-17
vn -0.77125 0.527826 0.3557699999999999
vn -0.222615 0.44639100000000004 0.866705
vn 0.95175 -0.15040100000000003 -0.267491
vn 0.737355 -0.32783300000000004 -0.590621
vn -0.341814 -0.698133 0.629105
vn 0.007748 -0.47062299999999996 0.882301
vn -0.341814 -0.698133 0.629105
vn -0.044631 -0.999004 6.117135254677013E-17
vn 0.222614 -0.4463909999999999 0.866705
vn -0.007748 -0.47062299999999996 0.882301
vn 0.534278 -0.845309 5.17602480570225E-17
vn 0.123562 -0.853505 0.506222
vn -0.222614 -0.4463909999999999 0.866705
vn -0.77125 -0.527826 0.35577000000000003
g 08 - Default
f 168/168/168 163/163/163 166/166/166
f 163/163/163 164/164/164 166/166/166
f 164/164/164 165/165/165 166/166/166
f 132/132/132 167/167/167 141/141/141
f 167/167/167 161/161/161 141/141/141
f 161/161/161 162/162/162 141/141/141
f 216/216/216 158/158/158 215/215/215
f 214/214/214 213/213/213 157/157/157
f 211/211/211 212/212/212 156/156/156
f 156/156/156 153/153/153 211/211/211
f 210/210/210 209/209/209 208/208/208
f 207/207/207 152/152/152 151/151/151
f 205/205/205 206/206/206 143/143/143
f 143/143/143 142/142/142 205/205/205
f 147/147/147 246/246/246 245/245/245
f 144/144/144 150/150/150 147/147/147
f 149/149/149 144/144/144 145/145/145
f 244/244/244 243/243/243 149/149/149
f 134/134/134 242/242/242 144/144/144
f 144/144/144 149/149/149 134/134/134
f 135/135/135 150/150/150 144/144/144
f 144/144/144 133/133/133 135/135/135
f 145/145/145 146/146/146 147/147/147
f 147/147/147 148/148/148 145/145/145
f 144/144/144 146/146/146 145/145/145
f 139/139/139 140/140/140 138/138/138
f 138/138/138 137/137/137 139/139/139
f 130/130/130 136/136/136 131/131/131
f 130/130/130 138/138/138 136/136/136
f 130/130/130 137/137/137 138/138/138
f 129/129/129 128/128/128 126/126/126
f 129/129/129 160/160/160 128/128/128
f 160/160/160 159/159/159 128/128/128
f 203/203/203 109/109/109 110/110/110
f 110/110/110 204/204/204 203/203/203
f 124/124/124 123/123/123 116/116/116
f 241/241/241 118/118/118 124/124/124
f 122/122/122 240/240/240 239/239/239
f 117/117/117 116/116/116 122/122/122
f 121/121/121 122/122/122 116/116/116
f 116/116/116 238/238/238 121/121/121
f 116/116/116 123/123/123 120/120/120
f 120/120/120 115/115/115 116/116/116
f 118/118/118 237/237/237 119/119/119
f 119/119/119 124/124/124 118/118/118
f 116/116/116 117/117/117 118/118/118
f 160/160/160 129/129/129 127/127/127
f 127/127/127 106/106/106 160/160/160
f 154/154/154 111/111/111 112/112/112
f 112/112/112 155/155/155 154/154/154
f 108/108/108 114/114/114 113/113/113
f 113/113/113 107/107/107 108/108/108
f 114/114/114 125/125/125 113/113/113
f 114/114/114 105/105/105 125/125/125
f 114/114/114 104/104/104 105/105/105
f 100/100/100 98/98/98 103/103/103
f 236/236/236 101/101/101 235/235/235
f 103/103/103 102/102/102 100/100/100
f 96/96/96 51/51/51 45/45/45
f 51/51/51 50/50/50 45/45/45
f 12/12/12 93/93/93 40/40/40
f 12/12/12 91/91/91 93/93/93
f 93/93/93 202/202/202 40/40/40
f 98/98/98 100/100/100 99/99/99
f 89/89/89 201/201/201 200/200/200
f 200/200/200 90/90/90 89/89/89
f 198/198/198 85/85/85 88/88/88
f 88/88/88 199/199/199 198/198/198
f 84/84/84 196/196/196 48/48/48
f 48/48/48 83/83/83 84/84/84
f 196/196/196 197/197/197 80/80/80
f 80/80/80 48/48/48 196/196/196
f 195/195/195 79/79/79 194/194/194
f 193/193/193 192/192/192 78/78/78
f 190/190/190 69/69/69 70/70/70
f 70/70/70 191/191/191 190/190/190
f 74/74/74 77/77/77 71/71/71
f 234/234/234 233/233/233 74/74/74
f 76/76/76 232/232/232 231/231/231
f 72/72/72 71/71/71 76/76/76
f 189/189/189 76/76/76 71/71/71
f 71/71/71 230/230/230 189/189/189
f 187/187/187 188/188/188 71/71/71
f 71/71/71 77/77/77 187/187/187
f 72/72/72 75/75/75 74/74/74
f 74/74/74 73/73/73 72/72/72
f 71/71/71 72/72/72 73/73/73
f 66/66/66 64/64/64 65/65/65
f 65/65/65 67/67/67 66/66/66
f 186/186/186 65/65/65 64/64/64
f 186/186/186 63/63/63 65/65/65
f 186/186/186 185/185/185 63/63/63
f 60/60/60 229/229/229 228/228/228
f 227/227/227 62/62/62 60/60/60
f 59/59/59 57/57/57 58/58/58
f 58/58/58 61/61/61 59/59/59
f 183/183/183 184/184/184 46/46/46
f 46/46/46 47/47/47 183/183/183
f 182/182/182 183/183/183 47/47/47
f 47/47/47 49/49/49 182/182/182
f 53/53/53 43/43/43 42/42/42
f 53/53/53 44/44/44 43/43/43
f 53/53/53 52/52/52 44/44/44
f 96/96/96 45/45/45 68/68/68
f 68/68/68 97/97/97 96/96/96
f 12/12/12 36/36/36 95/95/95
f 36/36/36 40/40/40 181/181/181
f 41/41/41 180/180/180 94/94/94
f 180/180/180 92/92/92 94/94/94
f 41/41/41 38/38/38 180/180/180
f 178/178/178 179/179/179 20/20/20
f 20/20/20 19/19/19 178/178/178
f 34/34/34 226/226/226 225/225/225
f 26/26/26 33/33/33 34/34/34
f 32/32/32 26/26/26 27/27/27
f 224/224/224 223/223/223 32/32/32
f 177/177/177 222/222/222 26/26/26
f 26/26/26 32/32/32 177/177/177
f 26/26/26 176/176/176 175/175/175
f 175/175/175 33/33/33 26/26/26
f 28/28/28 34/34/34 29/29/29
f 29/29/29 221/221/221 220/220/220
f 26/26/26 28/28/28 27/27/27
f 94/94/94 16/16/16 39/39/39
f 39/39/39 41/41/41 94/94/94
f 86/86/86 87/87/87 22/22/22
f 22/22/22 21/21/21 86/86/86
f 18/18/18 17/17/17 23/23/23
f 23/23/23 24/24/24 18/18/18
f 24/24/24 173/173/173 174/174/174
f 24/24/24 35/35/35 173/173/173
f 24/24/24 23/23/23 35/35/35
f 31/31/31 15/15/15 219/219/219
f 218/218/218 217/217/217 31/31/31
f 30/30/30 25/25/25 13/13/13
f 13/13/13 14/14/14 30/30/30
f 12/12/12 40/40/40 36/36/36
f 54/54/54 171/171/171 10/10/10
f 10/10/10 37/37/37 54/54/54
f 56/56/56 11/11/11 170/170/170
f 170/170/170 82/82/82 56/56/56
f 55/55/55 172/172/172 171/171/171
f 171/171/171 54/54/54 55/55/55
f 82/82/82 170/170/170 169/169/169
f 169/169/169 81/81/81 82/82/82
f 7/7/7 9/9/9 8/8/8
f 8/8/8 6/6/6 7/7/7
f 3/3/3 1/1/1 2/2/2
f 3/3/3 5/5/5 1/1/1
f 3/3/3 4/4/4 5/5/5
