v 0.428317 3.439898147657009E-17 0.561778
v 0.428403 4.1797562648938915E-17 0.682606
v 0.428403 1 0.6826059999999999
v 0.428403 1 0.5617779999999999
v 0.420971 0.5 0.592417
v 0.503003 0.37183 -2.2768020966348018E-17
v 0.503003 0.62817 -3.846431899101964E-17
v 0.49629 0.34556 0.22827599999999998
v 0.49629 0.65444 0.24997399999999997
v 0.49629 0.21978300000000003 0.340889
v 0.49629 0.780217 0.37343599999999993
v 0 2.8796712229190604E-17 0.470286
v 0.459471 4.4140863066767415E-17 0.720875
v 0.502406 4.160694637465162E-17 0.679493
v 0.416535 4.160694637465162E-17 0.679493
v 0.442456 1.980242 -0.00024400000000012126
v 0.435131 1.98656 -0.00024400000000012164
v 0.435131 1.98656 0.1660209999999999
v 0.503003 1.945775 -0.00024400000000011915
v 0.503003 1.945775 0.1660209999999999
v 0.510145 1.3582 0.24997499999999992
v 0.503003 1.379524 -0.00024400000000008445
v 0.447503 1.702415 0.1624749999999999
v 0.447503 1.7612 0.27370499999999987
v 0.459471 1 0.7208749999999999
v 0.489314 1.760719 0.3148429999999999
v 0.431819 1.994131 0.17383399999999988
v 0.538103 1.938943 0.17383399999999988
v 0.431819 1.994131 0.13262899999999989
v 0.502406 1 0.6794929999999999
v 0.416535 1 0.6794929999999999
v 0.440802 1.740774 0.2855459999999999
v 0.537601 1.738403 0.2868279999999999
v 0.538103 1.938943 0.13262899999999989
v 0.441954 1.450439 0.32205699999999987
v -0.420971 0.5 0.592417
v 0 0.21978300000000003 0.340889
v -0.428403 1 0.5617779999999999
v -0.442456 1.980242 -0.00024400000000012126
v 0 1 0.4702859999999999
v -0.441954 1.450439 0.32205699999999987
v -0.428403 1 0.6826059999999999
v -0.428403 1 0.5617779999999999
v -0.420971 0.5 0.592417
v -0.49629 1 0.6826059999999999
v -0.49629 0.21978300000000003 0.340889
v -0.49629 0.34556 0.22827599999999998
v -0.49629 0.65444 0.24997399999999997
v -0.503003 0.37183 -2.2768020966348018E-17
v -0.49629 4.1797562648938915E-17 0.682606
v -0.49629 0 0
v -0.428217 3.439898147657009E-17 0.561778
v -0.428403 4.1797562648938915E-17 0.682606
v 0 0.34556 0.22827699999999998
v 0 0.37183 -2.2768020966348018E-17
v 0 0.780217 0.37343599999999993
v -0.459471 4.4140863066767415E-17 0.720875
v -0.459471 1 0.7208749999999999
v -0.502406 4.160694637465162E-17 0.679493
v -0.416535 1 0.6794929999999999
v -0.502406 1 0.6794929999999999
v -0.416535 4.160694637465162E-17 0.679493
v -0.441954 1.450439 0.32205699999999987
v -0.447503 1.7612 0.27370499999999987
v -0.447503 1.702415 0.1624749999999999
v -0.435131 1.98656 0.1660209999999999
v -0.435131 1.98656 -0.00024400000000012164
v -0.521924 1.772797 0.2625969999999999
v -0.503003 1.945775 -0.00024400000000011915
v -0.503003 1.945775 0.1660209999999999
v -0.489314 1.760719 0.3148429999999999
v -0.431819 1.994131 0.17383399999999988
v -0.538103 1.938943 0.17383399999999988
v -0.538103 1.938943 0.13262899999999989
v -0.431819 1.994131 0.13262899999999989
v -0.440802 1.740774 0.2855459999999999
v -0.537601 1.738403 0.2868279999999999
v 0.503217 1.223186 0.37343599999999993
v 0 1.223186 0.33022299999999993
v -0.503003 0.62817 -3.846431899101964E-17
v -0 0.62817 -3.846431899101964E-17
v -0 0.65444 0.24997399999999997
v -0.49629 0.780217 0.37343599999999993
v -0 0.780217 0.37343599999999993
v -0.498792 1.3582 0.24997499999999992
v -0 1.3582 0.20676199999999992
v -0 1.379524 -0.00024400000000008445
v -0.503003 1.379524 -0.00024400000000008445
v -0.496747 1.223186 0.37343599999999993
v -0 1.223186 0.33022299999999993
v 0.428317 3.439898147657009E-17 0.561778
v 0.428403 1 0.5617779999999999
v 0.420971 0.5 0.592417
v 0.441954 1.450439 0.32205699999999987
v -0.428217 3.439898147657009E-17 0.561778
v -0.503003 1.945775 -0.00024400000000011915
v -0.503003 1.945775 0.1660209999999999
v 0.49629 0 0
v 0.49629 4.1797562648938915E-17 0.682606
v 0.49629 1 0.6826059999999999
v 0.521924 1.772797 0.2625959999999999
v 0.503003 1.945775 0.1660209999999999
v 0.503003 1.945775 -0.00024400000000011915
v 0.428317 3.439898147657009E-17 0.561778
v 0.428403 4.1797562648938915E-17 0.682606
v 0.428403 -1 0.6826060000000002
v 0.428403 -1 0.5617780000000001
v 0.420971 -0.49999999999999994 0.592417
v 0.503003 -0.37183 2.2768020966348018E-17
v 0.503003 -0.62817 3.846431899101964E-17
v 0.49629 -0.34556 0.22827600000000003
v 0.49629 -0.65444 0.24997400000000003
v 0.49629 -0.21978299999999998 0.340889
v 0.49629 -0.780217 0.37343600000000005
v 0 2.8796712229190604E-17 0.470286
v 0.459471 4.4140863066767415E-17 0.720875
v 0.502406 4.160694637465162E-17 0.679493
v 0.416535 4.160694637465162E-17 0.679493
v 0.442456 -1.980242 -0.00024399999999987873
v 0.435131 -1.98656 -0.00024399999999987835
v 0.435131 -1.98656 0.1660210000000001
v 0.503003 -1.945775 -0.00024399999999988084
v 0.503003 -1.945775 0.1660210000000001
v 0.510145 -1.3582 0.24997500000000009
v 0.503003 -1.379524 -0.00024399999999991554
v 0.447503 -1.702415 0.16247500000000012
v 0.447503 -1.7612 0.2737050000000001
v 0.459471 -1 0.7208750000000002
v 0.489314 -1.760719 0.3148430000000001
v 0.431819 -1.994131 0.1738340000000001
v 0.538103 -1.938943 0.1738340000000001
v 0.431819 -1.994131 0.1326290000000001
v 0.502406 -1 0.6794930000000001
v 0.416535 -1 0.6794930000000001
v 0.440802 -1.740774 0.28554600000000013
v 0.537601 -1.738403 0.28682800000000014
v 0.538103 -1.938943 0.1326290000000001
v 0.441954 -1.450439 0.3220570000000001
v -0.420971 -0.49999999999999994 0.592417
v 0 -0.21978299999999998 0.340889
v -0.428403 -1 0.5617780000000001
v -0.442456 -1.980242 -0.00024399999999987873
v 0 -1 0.47028600000000004
v -0.441954 -1.450439 0.3220570000000001
v -0.428403 -1 0.6826060000000002
v -0.428403 -1 0.5617780000000001
v -0.420971 -0.49999999999999994 0.592417
v -0.49629 -1 0.6826060000000002
v -0.49629 -0.21978299999999998 0.340889
v -0.49629 -0.34556 0.22827600000000003
v -0.49629 -0.65444 0.24997400000000003
v -0.503003 -0.37183 2.2768020966348018E-17
v -0.49629 4.1797562648938915E-17 0.682606
v -0.49629 0 0
v -0.428217 3.439898147657009E-17 0.561778
v -0.428403 4.1797562648938915E-17 0.682606
v 0 -0.34556 0.22827700000000004
v 0 -0.37183 2.2768020966348018E-17
v 0 -0.780217 0.37343600000000005
v -0.459471 4.4140863066767415E-17 0.720875
v -0.459471 -1 0.7208750000000002
v -0.502406 4.160694637465162E-17 0.679493
v -0.416535 -1 0.6794930000000001
v -0.502406 -1 0.6794930000000001
v -0.416535 4.160694637465162E-17 0.679493
v -0.441954 -1.450439 0.3220570000000001
v -0.447503 -1.7612 0.2737050000000001
v -0.447503 -1.702415 0.16247500000000012
v -0.435131 -1.98656 0.1660210000000001
v -0.435131 -1.98656 -0.00024399999999987835
v -0.521924 -1.772797 0.26259700000000014
v -0.503003 -1.945775 -0.00024399999999988084
v -0.503003 -1.945775 0.1660210000000001
v -0.489314 -1.760719 0.3148430000000001
v -0.431819 -1.994131 0.1738340000000001
v -0.538103 -1.938943 0.1738340000000001
v -0.538103 -1.938943 0.1326290000000001
v -0.431819 -1.994131 0.1326290000000001
v -0.440802 -1.740774 0.28554600000000013
v -0.537601 -1.738403 0.28682800000000014
v 0.503217 -1.223186 0.37343600000000005
v 0 -1.223186 0.33022300000000004
v -0.503003 -0.62817 3.846431899101964E-17
v -0 -0.62817 3.846431899101964E-17
v -0 -0.65444 0.24997400000000003
v -0.49629 -0.780217 0.37343600000000005
v -0 -0.780217 0.37343600000000005
v -0.498792 -1.3582 0.24997500000000009
v -0 -1.3582 0.20676200000000008
v -0 -1.379524 -0.00024399999999991554
v -0.503003 -1.379524 -0.00024399999999991554
v -0.496747 -1.223186 0.37343600000000005
v -0 -1.223186 0.33022300000000004
v 0.428317 3.439898147657009E-17 0.561778
v 0.428403 -1 0.5617780000000001
v 0.420971 -0.49999999999999994 0.592417
v 0.441954 -1.450439 0.3220570000000001
v -0.428217 3.439898147657009E-17 0.561778
v -0.503003 -1.945775 -0.00024399999999988084
v -0.503003 -1.945775 0.1660210000000001
v 0.49629 0 0
v 0.49629 4.1797562648938915E-17 0.682606
v 0.49629 -1 0.6826060000000002
v 0.521924 -1.772797 0.2625960000000001
v 0.503003 -1.945775 0.1660210000000001
v 0.503003 -1.945775 -0.00024399999999988084
v 0.503003 0.62817 -3.846431899101964E-17
v 0.49629 0.65444 0.24997399999999997
v 0.49629 0.34556 0.22827599999999998
v 0.503003 0.37183 -2.2768020966348018E-17
v 0.428403 1 0.5617779999999999
v 0.428403 1 0.6826059999999999
v 0.502406 1 0.6794929999999999
v 0.459471 1 0.7208749999999999
v 0.416535 1 0.6794929999999999
v 0.435131 1.98656 -0.00024400000000012164
v 0.435131 1.98656 0.1660209999999999
v 0 1 0.4702859999999999
v -0.428403 1 0.5617779999999999
v 0 0.37183 -2.2768020966348018E-17
v 0 0.34556 0.22827699999999998
v 0 0.21978300000000003 0.340889
v -0.428403 1 0.5617779999999999
v -0.428403 1 0.6826059999999999
v -0.502406 1 0.6794929999999999
v -0.459471 1 0.7208749999999999
v -0.416535 1 0.6794929999999999
v -0.435131 1.98656 -0.00024400000000012164
v -0.435131 1.98656 0.1660209999999999
v 0.510145 1.3582 0.24997499999999992
v -0 1.3582 0.20676199999999992
v -0 1.3582 0.20676199999999992
v 0.503217 1.223186 0.37343599999999993
v -0 0.65444 0.24997399999999997
v -0 0.62817 -3.846431899101964E-17
v -0 1.3582 0.20676199999999992
v -0 1.379524 -0.00024400000000008445
v -0 1.3582 0.20676199999999992
v -0.498792 1.3582 0.24997499999999992
v 0.428403 1 0.5617779999999999
v 0.49629 -0.65444 0.24997400000000003
v 0.503003 -0.62817 3.846431899101964E-17
v 0.503003 -0.37183 2.2768020966348018E-17
v 0.49629 -0.34556 0.22827600000000003
v 0.428403 -1 0.5617780000000001
v 0.428403 -1 0.6826060000000002
v 0.459471 -1 0.7208750000000002
v 0.502406 -1 0.6794930000000001
v 0.416535 -1 0.6794930000000001
v 0.435131 -1.98656 -0.00024399999999987835
v 0.435131 -1.98656 0.1660210000000001
v 0 -1 0.47028600000000004
v -0.428403 -1 0.5617780000000001
v 0 -0.37183 2.2768020966348018E-17
v 0 -0.34556 0.22827700000000004
v 0 -0.21978299999999998 0.340889
v -0.428403 -1 0.6826060000000002
v -0.428403 -1 0.5617780000000001
v -0.502406 -1 0.6794930000000001
v -0.459471 -1 0.7208750000000002
v -0.416535 -1 0.6794930000000001
v -0.435131 -1.98656 -0.00024399999999987835
v -0.435131 -1.98656 0.1660210000000001
v -0 -1.3582 0.20676200000000008
v -0 -1.3582 0.20676200000000008
v 0.510145 -1.3582 0.24997500000000009
v 0.503217 -1.223186 0.37343600000000005
v -0 -0.65444 0.24997400000000003
v -0 -0.62817 3.846431899101964E-17
v -0 -1.3582 0.20676200000000008
v -0 -1.379524 -0.00024399999999991554
v -0.498792 -1.3582 0.24997500000000009
v -0 -1.3582 0.20676200000000008
v 0.428403 -1 0.5617780000000001
v 0.459471 1 0.7208749999999999
v 0.459471 4.4140863066767415E-17 0.720875
v 0.459471 4.4140863066767415E-17 0.720875
v 0.538103 1.938943 0.17383399999999988
v 0.431819 1.994131 0.17383399999999988
v 0.459471 1 0.7208749999999999
v 0.431819 1.994131 0.13262899999999989
v 0.431819 1.994131 0.17383399999999988
v 0.489314 1.760719 0.3148429999999999
v 0.538103 1.938943 0.17383399999999988
v -0.459471 4.4140863066767415E-17 0.720875
v -0.459471 4.4140863066767415E-17 0.720875
v -0.459471 1 0.7208749999999999
v -0.459471 1 0.7208749999999999
v -0.431819 1.994131 0.17383399999999988
v -0.431819 1.994131 0.13262899999999989
v -0.538103 1.938943 0.17383399999999988
v -0.489314 1.760719 0.3148429999999999
v 0.49629 1 0.6826059999999999
v 0.503003 1.945775 0.1660209999999999
v 0.459471 4.4140863066767415E-17 0.720875
v 0.459471 4.4140863066767415E-17 0.720875
v 0.459471 -1 0.7208750000000002
v 0.431819 -1.994131 0.1738340000000001
v 0.459471 -1 0.7208750000000002
v 0.431819 -1.994131 0.1738340000000001
v 0.431819 -1.994131 0.1326290000000001
v 0.489314 -1.760719 0.3148430000000001
v -0.459471 -1 0.7208750000000002
v -0.459471 4.4140863066767415E-17 0.720875
v -0.459471 4.4140863066767415E-17 0.720875
v -0.459471 -1 0.7208750000000002
v -0.431819 -1.994131 0.1326290000000001
v -0.431819 -1.994131 0.1738340000000001
v -0.489314 -1.760719 0.3148430000000001
v -0.538103 -1.938943 0.1738340000000001
v 0.49629 -1 0.6826060000000002
v 0.503003 -1.945775 0.1660210000000001
vt 1.966529 0.963781
vt 1.996748 0.936770
vt 1.892864 0.397839
vt 1.861063 0.426264
vt 1.927936 0.682386
vt 1.365595 0.988467
vt 1.437494 0.989701
vt 1.358796 0.860207
vt 1.445481 0.849552
vt 1.003483 0.760875
vt 1.120100 0.754473
vt 0.374545 0.554756
vt 1.783093 0.413610
vt 1.783093 0.363724
vt 1.783093 0.463544
vt 0.244009 0.009908
vt 1.628916 0.037569
vt 1.659001 0.012311
vt 1.804169 0.991347
vt 1.804169 0.898251
vt 1.642520 0.196843
vt 1.647949 0.327915
vt 1.686706 0.153460
vt 1.708399 0.100056
vt 1.514697 0.413610
vt 1.601720 0.514216
vt 1.527759 0.545153
vt 1.537853 0.483279
vt 1.519094 0.563856
vt 1.514697 0.363724
vt 1.514697 0.463545
vt 1.601720 0.563856
vt 1.601720 0.464511
vt 1.529036 0.464511
vt 1.754772 0.248659
vt 0.256310 0.281930
vt 1.108501 0.760875
vt 0.003136 0.609405
vt 0.003493 0.005501
vt 0.374503 0.009100
vt 0.001483 0.331127
vt 0.892864 0.397839
vt 0.861063 0.426264
vt 0.927936 0.682386
vt 0.543459 0.608579
vt 0.003483 0.760875
vt 0.003483 0.857019
vt 0.120106 0.851829
vt 0.003483 0.991746
vt 0.262859 0.608432
vt 0.261546 0.991648
vt 0.966529 0.963781
vt 0.996748 0.936770
vt 1.108501 0.857019
vt 1.108501 0.991746
vt 1.257123 0.754473
vt 0.783093 0.413610
vt 0.514697 0.413610
vt 0.783093 0.363724
vt 0.514697 0.463545
vt 0.514697 0.363724
vt 0.783093 0.463544
vt 0.754772 0.248659
vt 0.708553 0.100053
vt 0.686706 0.153460
vt 0.659001 0.012311
vt 0.628916 0.037569
vt 0.750115 0.840357
vt 0.804169 0.991347
vt 0.804169 0.898251
vt 0.601720 0.514216
vt 0.527759 0.545153
vt 0.537853 0.483279
vt 0.529036 0.464511
vt 0.519094 0.563856
vt 0.601720 0.563856
vt 0.601720 0.464511
vt 1.637702 0.101534
vt 1.506531 0.133372
vt 0.117234 0.990661
vt 1.257175 0.990494
vt 1.257128 0.851747
vt 0.120100 0.754473
vt 0.257123 0.754473
vt 0.642520 0.196843
vt 1.509545 0.228908
vt 1.511500 0.337722
vt 0.647949 0.327915
vt 0.637702 0.101534
vt 0.506531 0.133372
vt 0.492984 0.553786
vt 0.240472 0.611865
vt 0.492664 0.281850
vt 0.243420 0.334669
vt 0.256239 0.554763
vt 0.804169 0.991347
vt 0.804169 0.898251
vt 0.261546 0.991648
vt 0.262859 0.608432
vt 0.543459 0.608579
vt 0.750108 0.840643
vt 0.804169 0.898251
vt 0.804169 0.991347
vt 1.966529 0.963781
vt 1.996748 0.936770
vt 1.892864 0.397839
vt 1.861063 0.426264
vt 1.927936 0.682386
vt 1.365595 0.988467
vt 1.437494 0.989701
vt 1.358796 0.860207
vt 1.445481 0.849552
vt 1.003483 0.760875
vt 1.120100 0.754473
vt 0.374545 0.554756
vt 1.783093 0.413610
vt 1.783093 0.363724
vt 1.783093 0.463544
vt 0.244009 0.009908
vt 1.628916 0.037569
vt 1.659001 0.012311
vt 1.804169 0.991347
vt 1.804169 0.898251
vt 1.642520 0.196843
vt 1.647949 0.327915
vt 1.686706 0.153460
vt 1.708399 0.100056
vt 1.514697 0.413610
vt 1.601720 0.514216
vt 1.527759 0.545153
vt 1.537853 0.483279
vt 1.519094 0.563856
vt 1.514697 0.363724
vt 1.514697 0.463545
vt 1.601720 0.563856
vt 1.601720 0.464511
vt 1.529036 0.464511
vt 1.754772 0.248659
vt 0.256310 0.281930
vt 1.108501 0.760875
vt 0.003136 0.609405
vt 0.003493 0.005501
vt 0.374503 0.009100
vt 0.001483 0.331127
vt 0.892864 0.397839
vt 0.861063 0.426264
vt 0.927936 0.682386
vt 0.543459 0.608579
vt 0.003483 0.760875
vt 0.003483 0.857019
vt 0.120106 0.851829
vt 0.003483 0.991746
vt 0.262859 0.608432
vt 0.261546 0.991648
vt 0.966529 0.963781
vt 0.996748 0.936770
vt 1.108501 0.857019
vt 1.108501 0.991746
vt 1.257123 0.754473
vt 0.783093 0.413610
vt 0.514697 0.413610
vt 0.783093 0.363724
vt 0.514697 0.463545
vt 0.514697 0.363724
vt 0.783093 0.463544
vt 0.754772 0.248659
vt 0.708553 0.100053
vt 0.686706 0.153460
vt 0.659001 0.012311
vt 0.628916 0.037569
vt 0.750115 0.840357
vt 0.804169 0.991347
vt 0.804169 0.898251
vt 0.601720 0.514216
vt 0.527759 0.545153
vt 0.537853 0.483279
vt 0.529036 0.464511
vt 0.519094 0.563856
vt 0.601720 0.563856
vt 0.601720 0.464511
vt 1.637702 0.101534
vt 1.506531 0.133372
vt 0.117234 0.990661
vt 1.257175 0.990494
vt 1.257128 0.851747
vt 0.120100 0.754473
vt 0.257123 0.754473
vt 0.642520 0.196843
vt 1.509545 0.228908
vt 1.511500 0.337722
vt 0.647949 0.327915
vt 0.637702 0.101534
vt 0.506531 0.133372
vt 0.492984 0.553786
vt 0.240472 0.611865
vt 0.492664 0.281850
vt 0.243420 0.334669
vt 0.256239 0.554763
vt 0.804169 0.991347
vt 0.804169 0.898251
vt 0.261546 0.991648
vt 0.262859 0.608432
vt 0.543459 0.608579
vt 0.750108 0.840643
vt 0.804169 0.898251
vt 0.804169 0.991347
vt 1.117234 0.990661
vt 1.120106 0.851829
vt 1.003483 0.857019
vt 1.003483 0.991746
vt 1.862394 0.424505
vt 1.892733 0.399034
vt 1.844390 0.464510
vt 1.844390 0.514215
vt 1.844390 0.563855
vt 1.818712 0.991224
vt 1.818712 0.898127
vt 0.121615 0.589519
vt 0.256098 0.009071
vt 0.108501 0.991746
vt 0.108501 0.857019
vt 0.108501 0.760875
vt 0.862394 0.424505
vt 0.892733 0.399034
vt 0.844390 0.464510
vt 0.844390 0.514215
vt 0.844390 0.563855
vt 0.818712 0.991224
vt 0.818712 0.898127
vt 1.642520 0.196843
vt 1.509545 0.228908
vt 1.509545 0.228908
vt 1.637702 0.101534
vt 0.257128 0.851747
vt 0.257175 0.990494
vt 0.509545 0.228908
vt 0.511500 0.337722
vt 0.509545 0.228908
vt 0.642520 0.196843
vt 0.492910 0.009078
vt 1.120106 0.851829
vt 1.117234 0.990661
vt 1.003483 0.991746
vt 1.003483 0.857019
vt 1.862394 0.424505
vt 1.892733 0.399034
vt 1.844390 0.514215
vt 1.844390 0.464510
vt 1.844390 0.563855
vt 1.818712 0.991224
vt 1.818712 0.898127
vt 0.121615 0.589519
vt 0.256098 0.009071
vt 0.108501 0.991746
vt 0.108501 0.857019
vt 0.108501 0.760875
vt 0.892733 0.399034
vt 0.862394 0.424505
vt 0.844390 0.464510
vt 0.844390 0.514215
vt 0.844390 0.563855
vt 0.818712 0.991224
vt 0.818712 0.898127
vt 1.509545 0.228908
vt 1.509545 0.228908
vt 1.642520 0.196843
vt 1.637702 0.101534
vt 0.257128 0.851747
vt 0.257175 0.990494
vt 0.509545 0.228908
vt 0.511500 0.337722
vt 0.642520 0.196843
vt 0.509545 0.228908
vt 0.492910 0.009078
vt 1.514697 0.413610
vt 1.783093 0.413610
vt 1.783093 0.413610
vt 1.537853 0.483279
vt 1.527759 0.545153
vt 1.844390 0.514215
vt 1.519094 0.563856
vt 1.527759 0.545153
vt 1.601720 0.514216
vt 1.537853 0.483279
vt 0.783093 0.413610
vt 0.783093 0.413610
vt 0.514697 0.413610
vt 0.844390 0.514215
vt 0.527759 0.545153
vt 0.519094 0.563856
vt 0.537853 0.483279
vt 0.601720 0.514216
vt 0.543459 0.608579
vt 0.804169 0.898251
vt 1.783093 0.413610
vt 1.783093 0.413610
vt 1.514697 0.413610
vt 1.527759 0.545153
vt 1.844390 0.514215
vt 1.527759 0.545153
vt 1.519094 0.563856
vt 1.601720 0.514216
vt 0.514697 0.413610
vt 0.783093 0.413610
vt 0.783093 0.413610
vt 0.844390 0.514215
vt 0.519094 0.563856
vt 0.527759 0.545153
vt 0.601720 0.514216
vt 0.537853 0.483279
vt 0.543459 0.608579
vt 0.804169 0.898251
vn -0.992467 -0.014612999999999992 0.121641
vn -1 4.347496136973104E-20 0.00071
vn -0.998151 0.0027500000000000037 0.060715
vn -0.999787 0.017583 -0.010819000000000002
vn -0.99259 -0.007126999999999992 0.121305
vn 0.999568 1.8001083300666944E-18 0.029398
vn 0.999601 -0.0009499999999999983 0.028223
vn 0.999601 -0.0009499999999999983 0.028223
vn 0.999632 -0.0018999999999999983 0.027048
vn -0 -0.66704 -0.745022
vn 0 0.700506 -0.713646
vn 1.2E-05 -0.032440999999999935 0.999474
vn 0 6.123233995736766E-17 1
vn 0.693958 4.408820325440407E-17 0.720015
vn -0.693958 4.408820325440407E-17 0.720015
vn 0 0.519727 0.854333
vn -0.999053 -0.043501 2.6636680204854506E-18
vn -0.99898 -0.043642 0.011569000000000003
vn 0.515072 0.857147 -5.2485116497437817E-17
vn 0.515072 0.857147 -5.2485116497437817E-17
vn 0.00721 -0.996345 -0.08511599999999994
vn 0.003605 -0.995585 -0.09379699999999995
vn -0.99971 -0.023606 0.0048080000000000015
vn -0.999986 0.0026509999999999997 -0.004511
vn 0.004105 0.24935800000000005 0.968403
vn 0.222615 0.44639100000000004 0.866705
vn -0.341814 0.698133 0.629105
vn 0.701723 0.665272 0.2549469999999999
vn -0.044631 0.999004 -6.117135254677013E-17
vn 0.668017 0.17650900000000005 0.72291
vn -0.66801 0.19778300000000004 0.717387
vn -0.804094 0.24831100000000003 0.540161
vn 0.593118 0.42475500000000005 0.683954
vn 0.844463 0.464688 0.26635799999999993
vn -0.999681 0.014646999999999999 -0.020587
vn 0.232306 2.6000000000059555E-05 0.972643
vn -0 -0.66704 -0.745022
vn 0.20107 0.27046800000000004 0.941498
vn 0 0.519727 0.854333
vn 0 0.20470300000000005 0.978824
vn 0.06213 0.43653600000000004 0.897539
vn 0.99984 0.010274999999999998 -0.014634
vn 0.996496 0.019908000000000002 0.081239
vn 0.992411 0.0073890000000000075 0.122743
vn -0.998194 -0.038188 -0.046368
vn 0 -0.66704 -0.745022
vn 0 -0.938812 -0.34443099999999993
vn -0 0.842484 -0.538721
vn 0 -0.993443 -0.11432499999999994
vn -1 0 0
vn -0.999995 -0.0017249999999999998 0.002527
vn 0.999892 -0.014584 0.0015420000000000008
vn 0.99664 0.004922000000000005 0.081758
vn -0 -0.823349 -0.567536
vn -0 -0.993443 -0.11432499999999994
vn 0 0.700506 -0.713646
vn 0.305872 5.82976576002309E-17 0.952073
vn -0.193597 0.19664000000000006 0.961173
vn -0.693958 4.408820325440407E-17 0.720015
vn 0.66801 0.19778300000000004 0.717387
vn -0.654434 0.23495600000000005 0.718688
vn 0.693958 4.408820325440407E-17 0.720015
vn 0.999651 0.010777999999999998 -0.024106
vn 0.999906 -0.012127 0.006409000000000001
vn 0.999779 -0.019079 -0.008850999999999998
vn 0.99898 -0.043643 0.011569000000000003
vn 0.999053 -0.043501 2.6636680204854506E-18
vn -0.997372 -0.0009850000000000043 -0.072445
vn -0.515072 0.857147 -5.2485116497437817E-17
vn -0.515072 0.857147 -5.2485116497437817E-17
vn -0.222615 0.44639100000000004 0.866705
vn 0.123562 0.853506 0.506222
vn -0.77125 0.527826 0.3557699999999999
vn -0.763578 0.61521 0.19612599999999997
vn 0.534278 0.845309 -5.17602480570225E-17
vn 0.804094 0.24831100000000003 0.540161
vn -0.593118 0.42475500000000005 0.683954
vn 0.062255 -0.675259 -0.734949
vn 0.063245 -0.673479 -0.736496
vn 0 0.994523 -0.10451600000000005
vn 0 0.994523 -0.10451600000000005
vn 0 0.945887 -0.32449600000000006
vn -0 0.700506 -0.713646
vn -0 0.700506 -0.713646
vn -0.007346 -0.996372 -0.08478899999999995
vn -3.4E-05 -0.995599 -0.09371599999999994
vn 0 -0.994736 -0.10246999999999995
vn -0.003673 -0.9956 -0.09363399999999994
vn -0.064066 -0.673443 -0.736457
vn -0.064066 -0.673443 -0.736457
vn -0.208481 -0.06287199999999994 0.976003
vn -0.20107 0.27046800000000004 0.941498
vn -0.232291 1.2000000000059559E-05 0.972647
vn -0.046552 0.45801500000000006 0.887725
vn 0.208529 -0.06282999999999994 0.975996
vn -0.998917 -0.0018120000000000028 -0.046493
vn -0.994071 0.108735 -6.6580984852643726E-18
vn 0.999995 -0.0017249999999999998 0.002527
vn 1 0 0
vn 0.95175 -0.15040100000000003 -0.267491
vn 0.090815 -0.4778740000000001 -0.873721
vn 0.737355 -0.32783300000000004 -0.590621
vn 0.999983 -0.005274 0.0025270000000000006
vn -0.992467 0.014613000000000006 0.121641
vn -1 4.347496136973104E-20 0.00071
vn -0.998151 -0.002749999999999996 0.060715
vn -0.999787 -0.017583 -0.010818999999999999
vn -0.99259 0.0071270000000000075 0.121305
vn 0.999568 1.8001083300666944E-18 0.029398
vn 0.999601 0.0009500000000000017 0.028223
vn 0.999601 0.0009500000000000017 0.028223
vn 0.999632 0.0019000000000000017 0.027048
vn -0 0.66704 -0.745022
vn 0 -0.700506 -0.713646
vn 1.2E-05 0.03244100000000006 0.999474
vn 0 6.123233995736766E-17 1
vn 0.693958 4.408820325440407E-17 0.720015
vn -0.693958 4.408820325440407E-17 0.720015
vn 0 -0.519727 0.854333
vn -0.999053 0.043501 -2.6636680204854506E-18
vn -0.99898 0.043642 0.011568999999999996
vn 0.515074 -0.857146 5.248505526509786E-17
vn 0.515074 -0.857146 5.248505526509786E-17
vn 0.00721 0.996345 -0.08511600000000005
vn 0.003605 0.995585 -0.09379700000000006
vn -0.99971 0.023606 0.004807999999999998
vn -0.999986 -0.0026510000000000006 -0.004511
vn 0.004105 -0.24935799999999994 0.968403
vn 0.222615 -0.4463909999999999 0.866705
vn -0.341814 -0.698133 0.629105
vn 0.701722 -0.665272 0.25494700000000003
vn -0.044631 -0.999004 6.117135254677013E-17
vn 0.668017 -0.17650899999999994 0.72291
vn -0.66801 -0.19778299999999993 0.717388
vn -0.804094 -0.24831099999999998 0.540162
vn 0.593118 -0.42475599999999997 0.683955
vn 0.844463 -0.464689 0.26635800000000004
vn -0.999681 -0.014647000000000002 -0.020587
vn 0.232306 -2.5999999999940442E-05 0.972643
vn -0 0.66704 -0.745022
vn 0.20107 -0.27046799999999993 0.941498
vn 0 -0.519727 0.854333
vn 0 -0.20470299999999994 0.978824
vn 0.06213 -0.4365359999999999 0.897539
vn 0.99984 -0.010275000000000001 -0.014634
vn 0.996496 -0.019907999999999995 0.081239
vn 0.992411 -0.007388999999999992 0.122743
vn -0.998194 0.038188 -0.046367
vn 0 0.66704 -0.745022
vn 0 0.938812 -0.34443100000000004
vn -0 -0.842484 -0.538721
vn 0 0.993443 -0.11432500000000005
vn -1 0 0
vn -0.999995 0.0017250000000000002 0.002527
vn 0.999892 0.014584 0.001541999999999999
vn 0.99664 -0.004921999999999995 0.081758
vn -0 0.823349 -0.567536
vn -0 0.993443 -0.11432500000000005
vn 0 -0.700506 -0.713646
vn 0.305872 5.82976576002309E-17 0.952073
vn -0.193597 -0.19663999999999995 0.961173
vn -0.693958 4.408820325440407E-17 0.720015
vn 0.66801 -0.19778299999999993 0.717388
vn -0.654434 -0.23495599999999994 0.718688
vn 0.693958 4.408820325440407E-17 0.720015
vn 0.999651 -0.010778000000000001 -0.024106
vn 0.999906 0.012127 0.006408999999999999
vn 0.999779 0.019079 -0.008851000000000001
vn 0.99898 0.043643 0.011568999999999996
vn 0.999053 0.043501 -2.6636680204854506E-18
vn -0.997372 0.0009849999999999956 -0.072445
vn -0.515074 -0.857146 5.248505526509786E-17
vn -0.515074 -0.857146 5.248505526509786E-17
vn -0.222615 -0.4463909999999999 0.866705
vn 0.123562 -0.853505 0.506222
vn -0.77125 -0.527826 0.35577000000000003
vn -0.763578 -0.61521 0.19612600000000002
vn 0.534278 -0.845309 5.17602480570225E-17
vn 0.804094 -0.24831099999999998 0.540162
vn -0.593118 -0.42475599999999997 0.683955
vn 0.063245 0.673479 -0.736496
vn 0.063245 0.673479 -0.736496
vn 0 -0.994523 -0.10451599999999994
vn 0 -0.994523 -0.10451599999999994
vn 0 -0.945887 -0.32449599999999995
vn -0 -0.700506 -0.713646
vn -0 -0.700506 -0.713646
vn -0.007346 0.996372 -0.08478900000000006
vn -3.4E-05 0.995599 -0.09371600000000005
vn 0 0.994736 -0.10247000000000006
vn -0.003673 0.9956 -0.09363400000000005
vn -0.063763 0.673982 -0.735991
vn -0.064066 0.673443 -0.736457
vn -0.208481 0.06287200000000005 0.976003
vn -0.20107 -0.27046799999999993 0.941498
vn -0.232291 -1.1999999999940442E-05 0.972647
vn -0.046552 -0.4580139999999999 0.887725
vn 0.208529 0.06283000000000005 0.975996
vn -0.998917 0.0018119999999999972 -0.046493
vn -0.994071 -0.108735 6.6580984852643726E-18
vn 0.999995 0.0017250000000000002 0.002527
vn 1 0 0
vn 0.95175 0.15040099999999998 -0.267491
vn 0.090818 0.47787399999999997 -0.873721
vn 0.737356 0.32783299999999993 -0.59062
vn 0.999983 0.005274 0.0025269999999999997
vn 0 0.994523 -0.10451600000000005
vn 0 0.842484 -0.538721
vn -0 -0.938812 -0.34443099999999993
vn 0 -0.993443 -0.11432499999999994
vn -0.999787 0.017583 -0.010819000000000002
vn -0.998151 0.0027500000000000037 0.060715
vn 0.668017 0.17650900000000005 0.72291
vn 0.004105 0.24935800000000005 0.968403
vn -0.66801 0.19778300000000004 0.717387
vn 0.515072 0.857147 -5.2485116497437817E-17
vn 0.515072 0.857147 -5.2485116497437817E-17
vn 0 0.20470300000000005 0.978824
vn 0.20107 0.27046800000000004 0.941498
vn -0 -0.993443 -0.11432499999999994
vn -0 -0.823349 -0.567536
vn -0 -0.66704 -0.745022
vn 0.996496 0.019908000000000002 0.081239
vn 0.99984 0.010274999999999998 -0.014634
vn -0.654434 0.23495600000000005 0.718688
vn -0.193597 0.19664000000000006 0.961173
vn 0.66801 0.19778300000000004 0.717387
vn -0.515072 0.857147 -5.2485116497437817E-17
vn -0.515072 0.857147 -5.2485116497437817E-17
vn 0.062255 -0.675259 -0.734949
vn 0.062255 -0.675259 -0.734949
vn 0.063245 -0.673479 -0.736496
vn 0.063245 -0.673479 -0.736496
vn 0 0.945887 -0.32449600000000006
vn 0 0.994523 -0.10451600000000005
vn -3.4E-05 -0.995599 -0.09371599999999994
vn 0 -0.994736 -0.10246999999999995
vn -0.064066 -0.673443 -0.736457
vn -0.063763 -0.673982 -0.735991
vn -0.20107 0.27046800000000004 0.941498
vn 0 -0.842484 -0.538721
vn 0 -0.994523 -0.10451599999999994
vn 0 0.993443 -0.11432500000000005
vn -0 0.938812 -0.34443100000000004
vn -0.999787 -0.017583 -0.010818999999999999
vn -0.998151 -0.002749999999999996 0.060715
vn 0.004105 -0.24935799999999994 0.968403
vn 0.668017 -0.17650899999999994 0.72291
vn -0.66801 -0.19778299999999993 0.717388
vn 0.515074 -0.857146 5.248505526509786E-17
vn 0.515074 -0.857146 5.248505526509786E-17
vn 0 -0.20470299999999994 0.978824
vn 0.20107 -0.27046799999999993 0.941498
vn -0 0.993443 -0.11432500000000005
vn -0 0.823349 -0.567536
vn -0 0.66704 -0.745022
vn 0.99984 -0.010275000000000001 -0.014634
vn 0.996496 -0.019907999999999995 0.081239
vn -0.654434 -0.23495599999999994 0.718688
vn -0.193597 -0.19663999999999995 0.961173
vn 0.66801 -0.19778299999999993 0.717388
vn -0.515074 -0.857146 5.248505526509786E-17
vn -0.515074 -0.857146 5.248505526509786E-17
vn 0.063245 0.673479 -0.736496
vn 0.062255 0.675259 -0.734949
vn 0.062255 0.675259 -0.734949
vn 0.062255 0.675259 -0.734949
vn 0 -0.945887 -0.32449599999999995
vn 0 -0.994523 -0.10451599999999994
vn -3.4E-05 0.995599 -0.09371600000000005
vn 0 0.994736 -0.10247000000000006
vn -0.063763 0.673982 -0.735991
vn -0.063763 0.673982 -0.735991
vn -0.20107 -0.27046799999999993 0.941498
vn 0.004105 0.24935800000000005 0.968403
vn 0 6.123233995736766E-17 1
vn 0 6.123233995736766E-17 1
vn 0.701723 0.665272 0.2549469999999999
vn -0.341814 0.698133 0.629105
vn 0.004105 0.24935800000000005 0.968403
vn -0.044631 0.999004 -6.117135254677013E-17
vn -0.341814 0.698133 0.629105
vn 0.222615 0.44639100000000004 0.866705
vn 0.701723 0.665272 0.2549469999999999
vn 0.305872 5.82976576002309E-17 0.952073
vn 0.305872 5.82976576002309E-17 0.952073
vn -0.193597 0.19664000000000006 0.961173
vn -0.193597 0.19664000000000006 0.961173
vn 0.123562 0.853506 0.506222
vn 0.534278 0.845309 -5.17602480570225E-17
vn -0.77125 0.527826 0.3557699999999999
vn -0.222615 0.44639100000000004 0.866705
vn 0.95175 -0.15040100000000003 -0.267491
vn 0.737355 -0.32783300000000004 -0.590621
vn 0 6.123233995736766E-17 1
vn 0 6.123233995736766E-17 1
vn 0.004105 -0.24935799999999994 0.968403
vn -0.341814 -0.698133 0.629105
vn 0.004105 -0.24935799999999994 0.968403
vn -0.341814 -0.698133 0.629105
vn -0.044631 -0.999004 6.117135254677013E-17
vn 0.222615 -0.4463909999999999 0.866705
vn -0.193597 -0.19663999999999995 0.961173
vn 0.305872 5.82976576002309E-17 0.952073
vn 0.305872 5.82976576002309E-17 0.952073
vn -0.193597 -0.19663999999999995 0.961173
vn 0.534278 -0.845309 5.17602480570225E-17
vn 0.123562 -0.853505 0.506222
vn -0.222615 -0.4463909999999999 0.866705
vn -0.77125 -0.527826 0.35577000000000003
vn 0.95175 0.15040099999999998 -0.267491
vn 0.737356 0.32783299999999993 -0.59062
g 08 - Default
f 203/203/203 206/206/206 201/201/201
f 312/312/312 311/311/311 204/204/204
f 206/206/206 203/203/203 205/205/205
f 199/199/199 148/148/148 154/154/154
f 154/154/154 148/148/148 153/153/153
f 115/115/115 143/143/143 196/196/196
f 115/115/115 196/196/196 194/194/194
f 196/196/196 143/143/143 274/274/274
f 201/201/201 202/202/202 203/203/203
f 192/192/192 193/193/193 273/273/273
f 273/273/273 272/272/272 192/192/192
f 270/270/270 271/271/271 191/191/191
f 191/191/191 188/188/188 270/270/270
f 187/187/187 186/186/186 151/151/151
f 151/151/151 268/268/268 187/187/187
f 268/268/268 151/151/151 183/183/183
f 183/183/183 269/269/269 268/268/268
f 267/267/267 266/266/266 265/265/265
f 264/264/264 182/182/182 181/181/181
f 262/262/262 263/263/263 173/173/173
f 173/173/173 172/172/172 262/262/262
f 177/177/177 310/310/310 309/309/309
f 174/174/174 180/180/180 177/177/177
f 179/179/179 174/174/174 175/175/175
f 308/308/308 307/307/307 179/179/179
f 261/261/261 306/306/306 174/174/174
f 174/174/174 179/179/179 261/261/261
f 259/259/259 180/180/180 174/174/174
f 174/174/174 260/260/260 259/259/259
f 175/175/175 176/176/176 177/177/177
f 177/177/177 178/178/178 175/175/175
f 174/174/174 176/176/176 175/175/175
f 169/169/169 170/170/170 168/168/168
f 168/168/168 167/167/167 169/169/169
f 257/257/257 166/166/166 258/258/258
f 257/257/257 168/168/168 166/166/166
f 257/257/257 167/167/167 168/168/168
f 163/163/163 165/165/165 305/305/305
f 304/304/304 303/303/303 163/163/163
f 162/162/162 164/164/164 161/161/161
f 161/161/161 160/160/160 162/162/162
f 255/255/255 150/150/150 149/149/149
f 149/149/149 256/256/256 255/255/255
f 254/254/254 152/152/152 150/150/150
f 150/150/150 255/255/255 254/254/254
f 156/156/156 147/147/147 155/155/155
f 156/156/156 146/146/146 147/147/147
f 156/156/156 145/145/145 146/146/146
f 199/199/199 200/200/200 171/171/171
f 171/171/171 148/148/148 199/199/199
f 115/115/115 198/198/198 139/139/139
f 139/139/139 253/253/253 143/143/143
f 144/144/144 252/252/252 141/141/141
f 144/144/144 197/197/197 252/252/252
f 197/197/197 195/195/195 252/252/252
f 250/250/250 122/122/122 123/123/123
f 123/123/123 251/251/251 250/250/250
f 137/137/137 136/136/136 129/129/129
f 302/302/302 131/131/131 137/137/137
f 135/135/135 301/301/301 300/300/300
f 130/130/130 129/129/129 135/135/135
f 249/249/249 135/135/135 129/129/129
f 129/129/129 299/299/299 249/249/249
f 129/129/129 136/136/136 248/248/248
f 248/248/248 247/247/247 129/129/129
f 131/131/131 298/298/298 132/132/132
f 132/132/132 137/137/137 131/131/131
f 129/129/129 130/130/130 131/131/131
f 197/197/197 144/144/144 142/142/142
f 142/142/142 119/119/119 197/197/197
f 189/189/189 124/124/124 125/125/125
f 125/125/125 190/190/190 189/189/189
f 121/121/121 127/127/127 126/126/126
f 126/126/126 120/120/120 121/121/121
f 127/127/127 138/138/138 126/126/126
f 127/127/127 245/245/245 138/138/138
f 127/127/127 246/246/246 245/245/245
f 134/134/134 297/297/297 296/296/296
f 295/295/295 118/118/118 134/134/134
f 133/133/133 117/117/117 116/116/116
f 116/116/116 128/128/128 133/133/133
f 115/115/115 139/139/139 143/143/143
f 157/157/157 140/140/140 113/113/113
f 113/113/113 244/244/244 157/157/157
f 159/159/159 185/185/185 241/241/241
f 241/241/241 114/114/114 159/159/159
f 158/158/158 157/157/157 244/244/244
f 244/244/244 243/243/243 158/158/158
f 185/185/185 184/184/184 242/242/242
f 242/242/242 241/241/241 185/185/185
f 110/110/110 109/109/109 111/111/111
f 111/111/111 112/112/112 110/110/110
f 106/106/106 108/108/108 107/107/107
f 106/106/106 104/104/104 108/108/108
f 106/106/106 105/105/105 104/104/104
f 100/100/100 98/98/98 103/103/103
f 294/294/294 101/101/101 293/293/293
f 103/103/103 102/102/102 100/100/100
f 96/96/96 51/51/51 45/45/45
f 51/51/51 50/50/50 45/45/45
f 12/12/12 93/93/93 40/40/40
f 12/12/12 91/91/91 93/93/93
f 93/93/93 240/240/240 40/40/40
f 98/98/98 100/100/100 99/99/99
f 89/89/89 239/239/239 238/238/238
f 238/238/238 90/90/90 89/89/89
f 236/236/236 85/85/85 88/88/88
f 88/88/88 237/237/237 236/236/236
f 84/84/84 234/234/234 48/48/48
f 48/48/48 83/83/83 84/84/84
f 234/234/234 235/235/235 80/80/80
f 80/80/80 48/48/48 234/234/234
f 233/233/233 79/79/79 232/232/232
f 231/231/231 230/230/230 78/78/78
f 228/228/228 69/69/69 70/70/70
f 70/70/70 229/229/229 228/228/228
f 74/74/74 77/77/77 71/71/71
f 292/292/292 291/291/291 74/74/74
f 76/76/76 290/290/290 289/289/289
f 72/72/72 71/71/71 76/76/76
f 227/227/227 76/76/76 71/71/71
f 71/71/71 288/288/288 227/227/227
f 225/225/225 226/226/226 71/71/71
f 71/71/71 77/77/77 225/225/225
f 72/72/72 75/75/75 74/74/74
f 74/74/74 73/73/73 72/72/72
f 71/71/71 72/72/72 73/73/73
f 66/66/66 64/64/64 65/65/65
f 65/65/65 67/67/67 66/66/66
f 224/224/224 65/65/65 64/64/64
f 224/224/224 63/63/63 65/65/65
f 224/224/224 223/223/223 63/63/63
f 60/60/60 287/287/287 286/286/286
f 285/285/285 62/62/62 60/60/60
f 59/59/59 57/57/57 58/58/58
f 58/58/58 61/61/61 59/59/59
f 221/221/221 222/222/222 46/46/46
f 46/46/46 47/47/47 221/221/221
f 220/220/220 221/221/221 47/47/47
f 47/47/47 49/49/49 220/220/220
f 53/53/53 43/43/43 42/42/42
f 53/53/53 44/44/44 43/43/43
f 53/53/53 52/52/52 44/44/44
f 96/96/96 45/45/45 68/68/68
f 68/68/68 97/97/97 96/96/96
f 12/12/12 36/36/36 95/95/95
f 36/36/36 40/40/40 219/219/219
f 41/41/41 218/218/218 94/94/94
f 218/218/218 92/92/92 94/94/94
f 41/41/41 38/38/38 218/218/218
f 216/216/216 217/217/217 20/20/20
f 20/20/20 19/19/19 216/216/216
f 34/34/34 284/284/284 283/283/283
f 26/26/26 33/33/33 34/34/34
f 32/32/32 26/26/26 27/27/27
f 282/282/282 281/281/281 32/32/32
f 215/215/215 280/280/280 26/26/26
f 26/26/26 32/32/32 215/215/215
f 26/26/26 214/214/214 213/213/213
f 213/213/213 33/33/33 26/26/26
f 28/28/28 34/34/34 29/29/29
f 29/29/29 279/279/279 278/278/278
f 26/26/26 28/28/28 27/27/27
f 94/94/94 16/16/16 39/39/39
f 39/39/39 41/41/41 94/94/94
f 86/86/86 87/87/87 22/22/22
f 22/22/22 21/21/21 86/86/86
f 18/18/18 17/17/17 23/23/23
f 23/23/23 24/24/24 18/18/18
f 24/24/24 211/211/211 212/212/212
f 24/24/24 35/35/35 211/211/211
f 24/24/24 23/23/23 35/35/35
f 31/31/31 15/15/15 277/277/277
f 276/276/276 275/275/275 31/31/31
f 30/30/30 25/25/25 13/13/13
f 13/13/13 14/14/14 30/30/30
f 12/12/12 40/40/40 36/36/36
f 54/54/54 209/209/209 10/10/10
f 10/10/10 37/37/37 54/54/54
f 56/56/56 11/11/11 208/208/208
f 208/208/208 82/82/82 56/56/56
f 55/55/55 210/210/210 209/209/209
f 209/209/209 54/54/54 55/55/55
f 82/82/82 208/208/208 207/207/207
f 207/207/207 81/81/81 82/82/82
f 7/7/7 9/9/9 8/8/8
f 8/8/8 6/6/6 7/7/7
f 3/3/3 1/1/1 2/2/2
f 3/3/3 5/5/5 1/1/1
f 3/3/3 4/4/4 5/5/5
