v 0.47018 1.440438 -0.029206000000000086
v 0.47018 1.440438 0.1647619999999999
v 0.50518 1.475438 0.1647619999999999
v 0.50518 1.475438 0.1647619999999999
v 0.50518 1.475438 -0.02920600000000009
v 0.47018 1.440438 -0.029206000000000086
v -1.967595 -0.595524 -0.02920599999999996
v -1.967595 -0.595524 0.23684400000000003
v -2.002717 -0.560646 0.23684400000000003
v -2.002717 -0.560646 0.23684400000000003
v -2.002717 -0.560646 -0.029205999999999965
v -1.967595 -0.595524 -0.02920599999999996
v -1.048749 -1.471539 -0.02920599999999991
v -1.048749 -1.471539 0.22207400000000008
v -1.083749 -1.506539 0.22207400000000008
v -1.083749 -1.506539 0.22207400000000008
v -1.083749 -1.506539 -0.029205999999999906
v -1.048749 -1.471539 -0.02920599999999991
v -1.932717 -1.471539 -0.02920599999999991
v -1.932717 -1.471539 0.3690460000000001
v -1.967718 -1.506539 0.3690460000000001
v -1.967718 -1.506539 0.3690460000000001
v -1.967718 -1.506539 -0.029205999999999906
v -1.932717 -1.471539 -0.02920599999999991
v 1.057129 -1.456113 -0.02920599999999991
v 1.057129 -1.456113 0.21328500000000009
v 1.022251 -1.491235 0.21328500000000009
v 1.022251 -1.491235 0.21328500000000009
v 1.022251 -1.491235 -0.02920599999999991
v 1.057129 -1.456113 -0.02920599999999991
v 1.933144 -0.504598 0.0014160000000000307
v 1.933144 -0.586871 0.21199900000000002
v 1.968144 -0.618591 0.19720700000000002
v 1.968144 -0.618591 0.19720700000000002
v 1.968144 -0.536319 -0.013374999999999967
v 1.933144 -0.504598 0.0014160000000000307
v 1.933144 -1.421235 -0.029205999999999913
v 1.933144 -1.421235 0.2847570000000001
v 1.968144 -1.456235 0.2847570000000001
v 1.968144 -1.456235 0.2847570000000001
v 1.968144 -1.456235 -0.02920599999999991
v 1.933144 -1.421235 -0.029205999999999913
v -1.271319 1.42826 -0.029206000000000086
v -1.271319 1.42826 0.17068199999999992
v -1.236441 1.463382 0.17068199999999992
v -1.236441 1.463382 0.17068199999999992
v -1.236441 1.463382 -0.02920600000000009
v -1.271319 1.42826 -0.029206000000000086
v -1.995143 0.509414 -0.02920600000000003
v -1.995143 0.509414 0.36904599999999993
v -2.030142 0.544414 0.36904599999999993
v -2.030142 0.544414 0.36904599999999993
v -2.030142 0.544414 -0.029206000000000034
v -1.995143 0.509414 -0.02920600000000003
v -1.995143 1.393382 -0.029206000000000086
v -1.995143 1.393382 0.2669959999999999
v -2.030143 1.428382 0.2669959999999999
v -2.030143 1.428382 0.2669959999999999
v -2.030143 1.428382 -0.029206000000000086
v -1.995143 1.393382 -0.029206000000000086
v 1.923053 0.564423 -0.029206000000000034
v 1.923053 0.564423 0.36904599999999993
v 1.958175 0.529546 0.36904599999999993
v 1.958175 0.529546 0.36904599999999993
v 1.958175 0.529546 -0.02920600000000003
v 1.923053 0.564423 -0.029206000000000034
v 1.218837 1.440438 -0.029206000000000086
v 1.218837 1.440438 0.1647619999999999
v 1.253837 1.475438 0.1647619999999999
v 1.253837 1.475438 0.1647619999999999
v 1.253837 1.475438 -0.02920600000000009
v 1.218837 1.440438 -0.029206000000000086
v 1.906837 1.496736 -0.02117600000000009
v 1.880717 1.385607 0.1855749999999999
v 1.899113 1.425074 0.2091129999999999
v 1.899113 1.425074 0.2091129999999999
v 1.925233 1.536202 0.0023609999999999057
v 1.906837 1.496736 -0.02117600000000009
v 0.50518 1.405438 -0.029206000000000086
v 0.50518 1.405438 0.1647619999999999
v 0.47018 1.440438 0.1647619999999999
v 0.47018 1.440438 -0.029206000000000086
v 0.50518 1.405438 -0.029206000000000086
v -1.932718 -0.560401 -0.029205999999999965
v -1.932718 -0.560401 0.23684400000000003
v -1.967595 -0.595524 0.23684400000000003
v -1.967595 -0.595524 -0.02920599999999996
v -1.932718 -0.560401 -0.029205999999999965
v -1.083749 -1.436539 -0.029205999999999913
v -1.083749 -1.436539 0.22207400000000008
v -1.048749 -1.471539 0.22207400000000008
v -1.048749 -1.471539 -0.02920599999999991
v -1.083749 -1.436539 -0.029205999999999913
v -1.967718 -1.436539 -0.029205999999999913
v -1.967718 -1.436539 0.3690460000000001
v -1.932717 -1.471539 0.3690460000000001
v -1.932717 -1.471539 -0.02920599999999991
v -1.967718 -1.436539 -0.029205999999999913
v 1.022007 -1.421236 -0.029205999999999913
v 1.022007 -1.421236 0.21328500000000009
v 1.057129 -1.456113 0.21328500000000009
v 1.057129 -1.456113 -0.02920599999999991
v 1.022007 -1.421236 -0.029205999999999913
v 1.898144 -0.536319 -0.013374999999999967
v 1.898144 -0.618591 0.19720700000000002
v 1.933144 -0.586871 0.21199900000000002
v 1.933144 -0.504598 0.0014160000000000307
v 1.898144 -0.536319 -0.013374999999999967
v 1.898144 -1.456235 -0.02920599999999991
v 1.898144 -1.456235 0.2847570000000001
v 1.933144 -1.421235 0.2847570000000001
v 1.933144 -1.421235 -0.029205999999999913
v 1.898144 -1.456235 -0.02920599999999991
v -1.236196 1.393382 -0.029206000000000086
v -1.236196 1.393382 0.17068199999999992
v -1.271319 1.42826 0.17068199999999992
v -1.271319 1.42826 -0.029206000000000086
v -1.236196 1.393382 -0.029206000000000086
v -1.960142 0.544414 -0.029206000000000034
v -1.960142 0.544414 0.36904599999999993
v -1.995143 0.509414 0.36904599999999993
v -1.995143 0.509414 -0.02920600000000003
v -1.960142 0.544414 -0.029206000000000034
v -1.960142 1.428382 -0.029206000000000086
v -1.960142 1.428382 0.2669959999999999
v -1.995143 1.393382 0.2669959999999999
v -1.995143 1.393382 -0.029206000000000086
v -1.960142 1.428382 -0.029206000000000086
v 1.888176 0.529301 -0.02920600000000003
v 1.888176 0.529301 0.36904599999999993
v 1.923053 0.564423 0.36904599999999993
v 1.923053 0.564423 -0.029206000000000034
v 1.888176 0.529301 -0.02920600000000003
v 1.253837 1.405438 -0.029206000000000086
v 1.253837 1.405438 0.1647619999999999
v 1.218837 1.440438 0.1647619999999999
v 1.218837 1.440438 -0.029206000000000086
v 1.253837 1.405438 -0.029206000000000086
v 1.952462 1.478029 -0.02546700000000009
v 1.926342 1.3669 0.18128499999999992
v 1.880717 1.385607 0.1855749999999999
v 1.906837 1.496736 -0.02117600000000009
v 1.952462 1.478029 -0.02546700000000009
v -0.670347 1.409296 0.06095999999999992
v -0.670347 1.385532 0.06095999999999992
v -0.674355 1.385532 -0.007245000000000085
v -0.674355 1.409296 -0.007245000000000086
v -1.262738 1.384699 0.10269499999999991
v -1.262738 1.360935 0.10269499999999991
v -1.25873 1.360935 0.1708989999999999
v -1.25873 1.384699 0.1708989999999999
v 0.54018 1.440438 0.1647619999999999
v 0.50518 1.475438 0.1647619999999999
v 0.47018 1.440438 0.1647619999999999
v 0.50518 1.405438 0.1647619999999999
v 0.54018 1.440438 -0.029206000000000086
v 0.54018 1.440438 0.1647619999999999
v 0.50518 1.405438 0.1647619999999999
v 0.50518 1.405438 -0.029206000000000086
v 0.50518 1.475438 -0.02920600000000009
v 0.50518 1.475438 0.1647619999999999
v 0.54018 1.440438 0.1647619999999999
v 0.54018 1.440438 -0.029206000000000086
v 1.27122 1.497472 0.05610199999999991
v 1.27122 1.473708 0.05610199999999991
v 1.26592 1.473708 -0.01201500000000009
v 1.26592 1.497472 -0.012015000000000092
v 0.489088 1.497472 0.0630349999999999
v 0.489088 1.473708 0.0630349999999999
v 0.494388 1.473708 0.1311509999999999
v 0.494388 1.497472 0.1311509999999999
v 0.507215 -1.37264 0.06754800000000008
v 0.513366 -1.349685 0.06754800000000008
v 0.517237 -1.350723 -0.0006559999999999173
v 0.511086 -1.373677 -0.0006559999999999159
v 1.018083 -1.509527 0.1379730000000001
v 1.024234 -1.486573 0.1379730000000001
v 1.020362 -1.485535 0.20617700000000008
v 1.014212 -1.50849 0.20617700000000008
v -1.96784 -0.525524 0.23684400000000003
v -2.002717 -0.560646 0.23684400000000003
v -1.967595 -0.595524 0.23684400000000003
v -1.932718 -0.560401 0.23684400000000003
v -1.96784 -0.525524 -0.029205999999999968
v -1.96784 -0.525524 0.23684400000000003
v -1.932718 -0.560401 0.23684400000000003
v -1.932718 -0.560401 -0.029205999999999965
v -2.002717 -0.560646 -0.029205999999999965
v -2.002717 -0.560646 0.23684400000000003
v -1.96784 -0.525524 0.23684400000000003
v -1.96784 -0.525524 -0.029205999999999968
v -1.118749 -1.471539 0.22207400000000008
v -1.083749 -1.506539 0.22207400000000008
v -1.048749 -1.471539 0.22207400000000008
v -1.083749 -1.436539 0.22207400000000008
v -1.118749 -1.471539 -0.02920599999999991
v -1.118749 -1.471539 0.22207400000000008
v -1.083749 -1.436539 0.22207400000000008
v -1.083749 -1.436539 -0.029205999999999913
v -1.083749 -1.506539 -0.029205999999999906
v -1.083749 -1.506539 0.22207400000000008
v -1.118749 -1.471539 0.22207400000000008
v -1.118749 -1.471539 -0.02920599999999991
v -2.044934 -1.528572 0.2759810000000001
v -2.044934 -1.504808 0.2759810000000001
v -2.039634 -1.504808 0.20786500000000008
v -2.039634 -1.528572 0.20786500000000008
v -1.048172 -1.528572 0.12034700000000009
v -1.048172 -1.504808 0.12034700000000009
v -1.053472 -1.504808 0.18846300000000007
v -1.053472 -1.528572 0.18846300000000007
v -2.025124 -0.520329 0.16903900000000002
v -2.001359 -0.520329 0.16903900000000002
v -2.001359 -0.515703 0.10087300000000003
v -2.025124 -0.515703 0.10087300000000003
v -2.025124 -1.507485 0.04897500000000009
v -2.001359 -1.507485 0.04897500000000009
v -2.001359 -1.512112 0.11714000000000009
v -2.025124 -1.512112 0.11714000000000009
v -2.002717 -1.471539 0.3690460000000001
v -1.967718 -1.506539 0.3690460000000001
v -1.932717 -1.471539 0.3690460000000001
v -1.967718 -1.436539 0.3690460000000001
v -2.002717 -1.471539 -0.02920599999999991
v -2.002717 -1.471539 0.3690460000000001
v -1.967718 -1.436539 0.3690460000000001
v -1.967718 -1.436539 -0.029205999999999913
v -1.967718 -1.506539 -0.029205999999999906
v -1.967718 -1.506539 0.3690460000000001
v -2.002717 -1.471539 0.3690460000000001
v -2.002717 -1.471539 -0.02920599999999991
v 0.987129 -1.456358 0.21328500000000009
v 1.022251 -1.491235 0.21328500000000009
v 1.057129 -1.456113 0.21328500000000009
v 1.022007 -1.421236 0.21328500000000009
v 0.987129 -1.456358 -0.02920599999999991
v 0.987129 -1.456358 0.21328500000000009
v 1.022007 -1.421236 0.21328500000000009
v 1.022007 -1.421236 -0.029205999999999913
v 1.022251 -1.491235 -0.02920599999999991
v 1.022251 -1.491235 0.21328500000000009
v 0.987129 -1.456358 0.21328500000000009
v 0.987129 -1.456358 -0.02920599999999991
v 1.933144 -0.650312 0.18241500000000002
v 1.968144 -0.618591 0.19720700000000002
v 1.933144 -0.586871 0.21199900000000002
v 1.898144 -0.618591 0.19720700000000002
v 1.933144 -0.56804 -0.028166999999999966
v 1.933144 -0.650312 0.18241500000000002
v 1.898144 -0.618591 0.19720700000000002
v 1.898144 -0.536319 -0.013374999999999967
v 1.968144 -0.536319 -0.013374999999999967
v 1.968144 -0.618591 0.19720700000000002
v 1.933144 -0.650312 0.18241500000000002
v 1.933144 -0.56804 -0.028166999999999966
v 1.990178 -1.530949 0.15594300000000008
v 1.966413 -1.530949 0.15594300000000008
v 1.966413 -1.532709 0.0876430000000001
v 1.990178 -1.532709 0.0876430000000001
v 1.990178 -0.539192 0.06790000000000003
v 1.966413 -0.539192 0.06790000000000003
v 1.966413 -0.537432 0.13619900000000001
v 1.990178 -0.537432 0.13619900000000001
v 0.977398 -1.513641 0.13857300000000008
v 0.977398 -1.489877 0.13857300000000008
v 0.981406 -1.489877 0.0703690000000001
v 0.981406 -1.513641 0.0703690000000001
v 1.973628 -1.513641 0.18680100000000008
v 1.973628 -1.489877 0.18680100000000008
v 1.96962 -1.489877 0.2550060000000001
v 1.96962 -1.513641 0.2550060000000001
v 1.933144 -1.491235 0.2847570000000001
v 1.968144 -1.456235 0.2847570000000001
v 1.933144 -1.421235 0.2847570000000001
v 1.898144 -1.456235 0.2847570000000001
v 1.933144 -1.491235 -0.02920599999999991
v 1.933144 -1.491235 0.2847570000000001
v 1.898144 -1.456235 0.2847570000000001
v 1.898144 -1.456235 -0.02920599999999991
v 1.968144 -1.456235 -0.02920599999999991
v 1.968144 -1.456235 0.2847570000000001
v 1.933144 -1.491235 0.2847570000000001
v 1.933144 -1.491235 -0.02920599999999991
v -1.201319 1.428504 0.17068199999999992
v -1.236441 1.463382 0.17068199999999992
v -1.271319 1.42826 0.17068199999999992
v -1.236196 1.393382 0.17068199999999992
v -1.201319 1.428504 -0.029206000000000086
v -1.201319 1.428504 0.17068199999999992
v -1.236196 1.393382 0.17068199999999992
v -1.236196 1.393382 -0.029206000000000086
v -1.236441 1.463382 -0.02920600000000009
v -1.236441 1.463382 0.17068199999999992
v -1.201319 1.428504 0.17068199999999992
v -1.201319 1.428504 -0.029206000000000086
v -1.995143 0.579414 0.36904599999999993
v -2.030142 0.544414 0.36904599999999993
v -1.995143 0.509414 0.36904599999999993
v -1.960142 0.544414 0.36904599999999993
v -1.995143 0.579414 -0.029206000000000034
v -1.995143 0.579414 0.36904599999999993
v -1.960142 0.544414 0.36904599999999993
v -1.960142 0.544414 -0.029206000000000034
v -2.030142 0.544414 -0.029206000000000034
v -2.030142 0.544414 0.36904599999999993
v -1.995143 0.579414 0.36904599999999993
v -1.995143 0.579414 -0.029206000000000034
v -2.052176 1.505599 0.17392999999999992
v -2.028412 1.505599 0.17392999999999992
v -2.028412 1.500298 0.10581399999999991
v -2.052176 1.500298 0.10581399999999991
v -2.052176 0.508836 0.26731999999999995
v -2.028412 0.508836 0.26731999999999995
v -2.028412 0.514137 0.33543599999999996
v -2.052176 0.514137 0.33543599999999996
v -1.191587 1.485788 0.0959709999999999
v -1.191587 1.462024 0.09597099999999992
v -1.195596 1.462024 0.02776599999999991
v -1.195596 1.485788 0.02776599999999991
v -2.035626 1.485788 0.1690399999999999
v -2.035626 1.462024 0.1690399999999999
v -2.031618 1.462024 0.23724399999999993
v -2.031618 1.485788 0.23724399999999993
v -1.995143 1.463382 0.2669959999999999
v -2.030143 1.428382 0.2669959999999999
v -1.995143 1.393382 0.2669959999999999
v -1.960142 1.428382 0.2669959999999999
v -1.995143 1.463382 -0.02920600000000009
v -1.995143 1.463382 0.2669959999999999
v -1.960142 1.428382 0.2669959999999999
v -1.960142 1.428382 -0.029206000000000086
v -2.030143 1.428382 -0.029206000000000086
v -2.030143 1.428382 0.2669959999999999
v -1.995143 1.463382 0.2669959999999999
v -1.995143 1.463382 -0.02920600000000009
v 1.923298 0.494423 0.36904599999999993
v 1.958175 0.529546 0.36904599999999993
v 1.923053 0.564423 0.36904599999999993
v 1.888176 0.529301 0.36904599999999993
v 1.923298 0.494423 -0.02920600000000003
v 1.923298 0.494423 0.36904599999999993
v 1.888176 0.529301 0.36904599999999993
v 1.888176 0.529301 -0.02920600000000003
v 1.958175 0.529546 -0.02920600000000003
v 1.958175 0.529546 0.36904599999999993
v 1.923298 0.494423 0.36904599999999993
v 1.923298 0.494423 -0.02920600000000003
v 1.288837 1.440438 0.1647619999999999
v 1.253837 1.475438 0.1647619999999999
v 1.218837 1.440438 0.1647619999999999
v 1.253837 1.405438 0.1647619999999999
v 1.288837 1.440438 -0.029206000000000086
v 1.288837 1.440438 0.1647619999999999
v 1.253837 1.405438 0.1647619999999999
v 1.253837 1.405438 -0.029206000000000086
v 1.253837 1.475438 -0.02920600000000009
v 1.253837 1.475438 0.1647619999999999
v 1.288837 1.440438 0.1647619999999999
v 1.288837 1.440438 -0.029206000000000086
v 1.967524 1.485107 0.13086599999999993
v 1.967524 1.462776 0.12273799999999992
v 1.962224 1.486073 0.05872899999999991
v 1.962224 1.508404 0.0668569999999999
v 1.21826 1.497472 0.0630349999999999
v 1.21826 1.473708 0.0630349999999999
v 1.22356 1.473708 0.1311509999999999
v 1.22356 1.497472 0.1311509999999999
v 1.980581 0.484692 0.29433499999999996
v 1.956817 0.484692 0.29433499999999996
v 1.956817 0.4887 0.22613099999999997
v 1.980581 0.4887 0.22613099999999997
v 1.986323 1.480922 0.1115929999999999
v 1.962919 1.480922 0.10746599999999991
v 1.951076 1.476914 0.17463499999999993
v 1.974479 1.476914 0.17876099999999992
v 1.944738 1.406366 0.20482199999999992
v 1.899113 1.425074 0.2091129999999999
v 1.880717 1.385607 0.1855749999999999
v 1.926342 1.3669 0.18128499999999992
v 1.970858 1.517495 -0.001930000000000093
v 1.944738 1.406366 0.20482199999999992
v 1.926342 1.3669 0.18128499999999992
v 1.952462 1.478029 -0.02546700000000009
v 1.925233 1.536202 0.0023609999999999057
v 1.899113 1.425074 0.2091129999999999
v 1.944738 1.406366 0.20482199999999992
v 1.970858 1.517495 -0.001930000000000093
v -0.931816 1.406345 0.08771899999999992
v -0.670347 1.385532 0.06095999999999992
v -0.670347 1.409296 0.06095999999999992
v -0.931816 1.430109 0.08771899999999992
v -1.25873 1.360935 0.1708989999999999
v -1.25873 1.384699 0.1708989999999999
v -0.931816 1.406345 0.08771899999999992
v -1.25873 1.360935 0.1708989999999999
v -1.262738 1.360935 0.10269499999999991
v -0.931897 1.406345 0.019335999999999912
v -0.670347 1.385532 0.06095999999999992
v -0.674355 1.385532 -0.007245000000000085
v 0.874134 1.4481 0.07048699999999991
v 1.27122 1.473708 0.05610199999999991
v 1.27122 1.497472 0.05610199999999991
v 0.874551 1.471864 0.07046199999999991
v 0.494388 1.473708 0.1311509999999999
v 0.494388 1.497472 0.1311509999999999
v 0.874134 1.4481 0.07048699999999991
v 0.494388 1.473708 0.1311509999999999
v 0.489088 1.473708 0.0630349999999999
v 0.874054 1.4481 0.0020579999999999115
v 1.27122 1.473708 0.05610199999999991
v 1.26592 1.473708 -0.01201500000000009
v 0.731582 -1.429388 0.1257280000000001
v 0.513366 -1.349685 0.06754800000000008
v 0.507215 -1.37264 0.06754800000000008
v 0.725431 -1.452342 0.1257280000000001
v 1.020362 -1.485535 0.20617700000000008
v 1.014212 -1.50849 0.20617700000000008
v 0.731582 -1.429388 0.1257280000000001
v 1.020362 -1.485535 0.20617700000000008
v 1.024234 -1.486573 0.1379730000000001
v 0.731659 -1.429408 0.05734600000000009
v 0.513366 -1.349685 0.06754800000000008
v 0.517237 -1.350723 -0.0006559999999999173
v -1.555166 -1.4792 0.19829500000000008
v -2.044934 -1.504808 0.2759810000000001
v -2.044934 -1.528572 0.2759810000000001
v -1.555583 -1.502964 0.19827000000000009
v -1.053472 -1.504808 0.18846300000000007
v -1.053472 -1.528572 0.18846300000000007
v -1.555166 -1.4792 0.19829500000000008
v -1.053472 -1.504808 0.18846300000000007
v -1.048172 -1.504808 0.12034700000000009
v -1.555086 -1.4792 0.1298660000000001
v -2.044934 -1.504808 0.2759810000000001
v -2.039634 -1.504808 0.20786500000000008
v -2.021867 -1.022187 0.14277700000000004
v -2.001359 -0.520329 0.16903900000000002
v -2.025124 -0.520329 0.16903900000000002
v -2.045631 -1.022187 0.14277700000000004
v -2.001359 -1.512112 0.11714000000000009
v -2.025124 -1.512112 0.11714000000000009
v -2.021867 -1.022187 0.14277700000000004
v -2.001359 -1.512112 0.11714000000000009
v -2.001359 -1.507485 0.04897500000000009
v -2.021867 -1.022267 0.07436600000000007
v -2.001359 -0.520329 0.16903900000000002
v -2.001359 -0.515703 0.10087300000000003
v 1.940806 -1.043498 0.14625600000000005
v 1.966413 -1.530949 0.15594300000000008
v 1.990178 -1.530949 0.15594300000000008
v 1.96457 -1.043915 0.14626400000000006
v 1.966413 -0.537432 0.13619900000000001
v 1.990178 -0.537432 0.13619900000000001
v 1.940806 -1.043498 0.14625600000000005
v 1.966413 -0.537432 0.13619900000000001
v 1.966413 -0.539192 0.06790000000000003
v 1.940806 -1.043418 0.07792000000000007
v 1.966413 -1.530949 0.15594300000000008
v 1.966413 -1.532709 0.0876430000000001
v 1.483587 -1.510385 0.20167100000000007
v 0.977398 -1.489877 0.13857300000000008
v 0.977398 -1.513641 0.13857300000000008
v 1.483587 -1.534149 0.20167100000000007
v 1.96962 -1.489877 0.2550060000000001
v 1.96962 -1.513641 0.2550060000000001
v 1.483587 -1.510385 0.20167100000000007
v 1.96962 -1.489877 0.2550060000000001
v 1.973628 -1.489877 0.18680100000000008
v 1.483667 -1.510385 0.13328900000000007
v 0.977398 -1.489877 0.13857300000000008
v 0.981406 -1.489877 0.0703690000000001
v -2.002804 1.015831 0.22637099999999993
v -2.028412 1.505599 0.17392999999999992
v -2.052176 1.505599 0.17392999999999992
v -2.026568 1.016248 0.22634599999999994
v -2.028412 0.514137 0.33543599999999996
v -2.052176 0.514137 0.33543599999999996
v -2.002804 1.015831 0.22637099999999993
v -2.028412 0.514137 0.33543599999999996
v -2.028412 0.508836 0.26731999999999995
v -2.002804 1.015751 0.15794199999999994
v -2.028412 1.505599 0.17392999999999992
v -2.028412 1.500298 0.10581399999999991
v -1.622063 1.482532 0.12559099999999992
v -1.191587 1.462024 0.09597099999999992
v -1.191587 1.485788 0.0959709999999999
v -1.622063 1.506296 0.12559099999999992
v -2.031618 1.462024 0.23724399999999993
v -2.031618 1.485788 0.23724399999999993
v -1.622063 1.482532 0.12559099999999992
v -2.031618 1.462024 0.23724399999999993
v -2.035626 1.462024 0.1690399999999999
v -1.622143 1.482532 0.05720799999999991
v -1.191587 1.462024 0.09597099999999992
v -1.195596 1.462024 0.02776599999999991
v 1.604342 1.437139 0.10288299999999992
v 1.967524 1.462776 0.12273799999999992
v 1.967524 1.485107 0.13086599999999993
v 1.602686 1.459428 0.11096899999999991
v 1.22356 1.473708 0.1311509999999999
v 1.22356 1.497472 0.1311509999999999
v 1.604342 1.437139 0.10288299999999992
v 1.22356 1.473708 0.1311509999999999
v 1.21826 1.473708 0.0630349999999999
v 1.604262 1.460536 0.03857799999999991
v 1.967524 1.462776 0.12273799999999992
v 1.962224 1.486073 0.05872899999999991
v 1.97439 0.990882 0.20924899999999994
v 1.956817 0.484692 0.29433499999999996
v 1.980581 0.484692 0.29433499999999996
v 1.998064 0.990882 0.21131999999999995
v 1.951076 1.476914 0.17463499999999993
v 1.974479 1.476914 0.17876099999999992
v 1.97439 0.990882 0.20924899999999994
v 1.951076 1.476914 0.17463499999999993
v 1.962919 1.480922 0.10746599999999991
v 1.98035 0.990962 0.14112599999999995
v 1.956817 0.484692 0.29433499999999996
v 1.956817 0.4887 0.22613099999999997
v -0.931897 1.430109 0.019335999999999912
v -1.262738 1.384699 0.10269499999999991
v -1.25873 1.384699 0.1708989999999999
v -0.931816 1.430109 0.08771899999999992
v -0.670347 1.409296 0.06095999999999992
v -0.674355 1.409296 -0.007245000000000086
v 0.874471 1.471864 0.00203299999999991
v 0.489088 1.497472 0.0630349999999999
v 0.494388 1.497472 0.1311509999999999
v 0.874551 1.471864 0.07046199999999991
v 1.27122 1.497472 0.05610199999999991
v 1.26592 1.497472 -0.012015000000000092
v 0.725509 -1.452363 0.05734600000000009
v 1.018083 -1.509527 0.1379730000000001
v 1.014212 -1.50849 0.20617700000000008
v 0.725431 -1.452342 0.1257280000000001
v 0.507215 -1.37264 0.06754800000000008
v 0.511086 -1.373677 -0.0006559999999999159
v -1.555503 -1.502964 0.1298410000000001
v -1.048172 -1.528572 0.12034700000000009
v -1.053472 -1.528572 0.18846300000000007
v -1.555583 -1.502964 0.19827000000000009
v -2.044934 -1.528572 0.2759810000000001
v -2.039634 -1.528572 0.20786500000000008
v -2.045631 -1.022267 0.07436600000000007
v -2.025124 -1.507485 0.04897500000000009
v -2.025124 -1.512112 0.11714000000000009
v -2.045631 -1.022187 0.14277700000000004
v -2.025124 -0.520329 0.16903900000000002
v -2.025124 -0.515703 0.10087300000000003
v 1.96457 -1.043835 0.07792800000000007
v 1.990178 -0.539192 0.06790000000000003
v 1.990178 -0.537432 0.13619900000000001
v 1.96457 -1.043915 0.14626400000000006
v 1.990178 -1.530949 0.15594300000000008
v 1.990178 -1.532709 0.0876430000000001
v 1.483667 -1.534149 0.13328900000000007
v 1.973628 -1.513641 0.18680100000000008
v 1.96962 -1.513641 0.2550060000000001
v 1.483587 -1.534149 0.20167100000000007
v 0.977398 -1.513641 0.13857300000000008
v 0.981406 -1.513641 0.0703690000000001
v -2.026568 1.016168 0.15791699999999995
v -2.052176 0.508836 0.26731999999999995
v -2.052176 0.514137 0.33543599999999996
v -2.026568 1.016248 0.22634599999999994
v -2.052176 1.505599 0.17392999999999992
v -2.052176 1.500298 0.10581399999999991
v -1.622143 1.506296 0.05720799999999991
v -2.035626 1.485788 0.1690399999999999
v -2.031618 1.485788 0.23724399999999993
v -1.622063 1.506296 0.12559099999999992
v -1.191587 1.485788 0.0959709999999999
v -1.195596 1.485788 0.02776599999999991
v 1.602607 1.482825 0.04666399999999991
v 1.21826 1.497472 0.0630349999999999
v 1.22356 1.497472 0.1311509999999999
v 1.602686 1.459428 0.11096899999999991
v 1.967524 1.485107 0.13086599999999993
v 1.962224 1.508404 0.0668569999999999
v 2.004024 0.990962 0.14319799999999994
v 1.986323 1.480922 0.1115929999999999
v 1.974479 1.476914 0.17876099999999992
v 1.998064 0.990882 0.21131999999999995
v 1.980581 0.484692 0.29433499999999996
v 1.980581 0.4887 0.22613099999999997
vt 0.054633 0.982120
vt 0.054633 0.661790
vt 0.073861 0.661790
vt 0.073861 0.661790
vt 0.073861 0.982120
vt 0.054633 0.982120
vt 0.054633 0.982120
vt 0.054633 0.661790
vt 0.073861 0.661790
vt 0.073861 0.661790
vt 0.073861 0.982120
vt 0.054633 0.982120
vt 0.054633 0.982120
vt 0.054633 0.661790
vt 0.073861 0.661790
vt 0.073861 0.661790
vt 0.073861 0.982120
vt 0.054633 0.982120
vt 0.054633 0.982120
vt 0.054633 0.661790
vt 0.073861 0.661790
vt 0.073861 0.661790
vt 0.073861 0.982120
vt 0.054633 0.982120
vt 0.054633 0.982120
vt 0.054633 0.661790
vt 0.073861 0.661790
vt 0.073861 0.661790
vt 0.073861 0.982120
vt 0.054633 0.982120
vt 0.054633 0.982120
vt 0.054633 0.661790
vt 0.073861 0.661790
vt 0.073861 0.661790
vt 0.073861 0.982120
vt 0.054633 0.982120
vt 0.054633 0.982120
vt 0.054633 0.661790
vt 0.073861 0.661790
vt 0.073861 0.661790
vt 0.073861 0.982120
vt 0.054633 0.982120
vt 0.054633 0.982120
vt 0.054633 0.661790
vt 0.073861 0.661790
vt 0.073861 0.661790
vt 0.073861 0.982120
vt 0.054633 0.982120
vt 0.054633 0.982120
vt 0.054633 0.661790
vt 0.073861 0.661790
vt 0.073861 0.661790
vt 0.073861 0.982120
vt 0.054633 0.982120
vt 0.054633 0.982120
vt 0.054633 0.661790
vt 0.073861 0.661790
vt 0.073861 0.661790
vt 0.073861 0.982120
vt 0.054633 0.982120
vt 0.054633 0.982120
vt 0.054633 0.661790
vt 0.073861 0.661790
vt 0.073861 0.661790
vt 0.073861 0.982120
vt 0.054633 0.982120
vt 0.054633 0.982120
vt 0.054633 0.661790
vt 0.073861 0.661790
vt 0.073861 0.661790
vt 0.073861 0.982120
vt 0.054633 0.982120
vt 0.054633 0.982120
vt 0.054633 0.661790
vt 0.073861 0.661790
vt 0.073861 0.661790
vt 0.073861 0.982120
vt 0.054633 0.982120
vt 0.035405 0.982120
vt 0.035405 0.661790
vt 0.054633 0.661790
vt 0.054633 0.982120
vt 0.035405 0.982120
vt 0.035405 0.982120
vt 0.035405 0.661790
vt 0.054633 0.661790
vt 0.054633 0.982120
vt 0.035405 0.982120
vt 0.035405 0.982120
vt 0.035405 0.661790
vt 0.054633 0.661790
vt 0.054633 0.982120
vt 0.035405 0.982120
vt 0.035405 0.982120
vt 0.035405 0.661790
vt 0.054633 0.661790
vt 0.054633 0.982120
vt 0.035405 0.982120
vt 0.035405 0.982120
vt 0.035405 0.661790
vt 0.054633 0.661790
vt 0.054633 0.982120
vt 0.035405 0.982120
vt 0.035405 0.982120
vt 0.035405 0.661790
vt 0.054633 0.661790
vt 0.054633 0.982120
vt 0.035405 0.982120
vt 0.035405 0.982120
vt 0.035405 0.661790
vt 0.054633 0.661790
vt 0.054633 0.982120
vt 0.035405 0.982120
vt 0.035405 0.982120
vt 0.035405 0.661790
vt 0.054633 0.661790
vt 0.054633 0.982120
vt 0.035405 0.982120
vt 0.035405 0.982120
vt 0.035405 0.661790
vt 0.054633 0.661790
vt 0.054633 0.982120
vt 0.035405 0.982120
vt 0.035405 0.982120
vt 0.035405 0.661790
vt 0.054633 0.661790
vt 0.054633 0.982120
vt 0.035405 0.982120
vt 0.035405 0.982120
vt 0.035405 0.661790
vt 0.054633 0.661790
vt 0.054633 0.982120
vt 0.035405 0.982120
vt 0.035405 0.982120
vt 0.035405 0.661790
vt 0.054633 0.661790
vt 0.054633 0.982120
vt 0.035405 0.982120
vt 0.035405 0.982120
vt 0.035405 0.661790
vt 0.054633 0.661790
vt 0.054633 0.982120
vt 0.035405 0.982120
vt 0.149842 0.845644
vt 0.189380 0.845925
vt 0.189259 0.937488
vt 0.149721 0.937207
vt 0.149842 0.845644
vt 0.189380 0.845925
vt 0.189259 0.937488
vt 0.149721 0.937207
vt 0.013839 0.606532
vt 0.054465 0.567040
vt 0.095091 0.606532
vt 0.054465 0.646023
vt 0.016177 0.982120
vt 0.016177 0.661790
vt 0.035405 0.661790
vt 0.035405 0.982120
vt 0.073861 0.982120
vt 0.073861 0.661790
vt 0.093089 0.661790
vt 0.093089 0.982120
vt 0.149842 0.845644
vt 0.189380 0.845925
vt 0.189259 0.937488
vt 0.149721 0.937207
vt 0.149842 0.845644
vt 0.189380 0.845925
vt 0.189259 0.937488
vt 0.149721 0.937207
vt 0.149842 0.845644
vt 0.189380 0.845925
vt 0.189259 0.937488
vt 0.149721 0.937207
vt 0.149842 0.845644
vt 0.189380 0.845925
vt 0.189259 0.937488
vt 0.149721 0.937207
vt 0.013839 0.606532
vt 0.054465 0.567040
vt 0.095091 0.606532
vt 0.054465 0.646023
vt 0.016177 0.982120
vt 0.016177 0.661790
vt 0.035405 0.661790
vt 0.035405 0.982120
vt 0.073861 0.982120
vt 0.073861 0.661790
vt 0.093089 0.661790
vt 0.093089 0.982120
vt 0.013839 0.606532
vt 0.054465 0.567040
vt 0.095091 0.606532
vt 0.054465 0.646023
vt 0.016177 0.982120
vt 0.016177 0.661790
vt 0.035405 0.661790
vt 0.035405 0.982120
vt 0.073861 0.982120
vt 0.073861 0.661790
vt 0.093089 0.661790
vt 0.093089 0.982120
vt 0.149842 0.845644
vt 0.189380 0.845925
vt 0.189259 0.937488
vt 0.149721 0.937207
vt 0.149842 0.845644
vt 0.189380 0.845925
vt 0.189259 0.937488
vt 0.149721 0.937207
vt 0.149842 0.845644
vt 0.189380 0.845925
vt 0.189259 0.937488
vt 0.149721 0.937207
vt 0.149842 0.845644
vt 0.189380 0.845925
vt 0.189259 0.937488
vt 0.149721 0.937207
vt 0.013839 0.606532
vt 0.054465 0.567040
vt 0.095091 0.606532
vt 0.054465 0.646023
vt 0.016177 0.982120
vt 0.016177 0.661790
vt 0.035405 0.661790
vt 0.035405 0.982120
vt 0.073861 0.982120
vt 0.073861 0.661790
vt 0.093089 0.661790
vt 0.093089 0.982120
vt 0.013839 0.606532
vt 0.054465 0.567040
vt 0.095091 0.606532
vt 0.054465 0.646023
vt 0.016177 0.982120
vt 0.016177 0.661790
vt 0.035405 0.661790
vt 0.035405 0.982120
vt 0.073861 0.982120
vt 0.073861 0.661790
vt 0.093089 0.661790
vt 0.093089 0.982120
vt 0.013839 0.606532
vt 0.054465 0.567040
vt 0.095091 0.606532
vt 0.054465 0.646023
vt 0.016177 0.982120
vt 0.016177 0.661790
vt 0.035405 0.661790
vt 0.035405 0.982120
vt 0.073861 0.982120
vt 0.073861 0.661790
vt 0.093089 0.661790
vt 0.093089 0.982120
vt 0.149842 0.845644
vt 0.189380 0.845925
vt 0.189259 0.937488
vt 0.149721 0.937207
vt 0.149842 0.845644
vt 0.189380 0.845925
vt 0.189259 0.937488
vt 0.149721 0.937207
vt 0.149842 0.845644
vt 0.189380 0.845925
vt 0.189259 0.937488
vt 0.149721 0.937207
vt 0.149842 0.845644
vt 0.189380 0.845925
vt 0.189259 0.937488
vt 0.149721 0.937207
vt 0.013839 0.606532
vt 0.054465 0.567040
vt 0.095091 0.606532
vt 0.054465 0.646023
vt 0.016177 0.982120
vt 0.016177 0.661790
vt 0.035405 0.661790
vt 0.035405 0.982120
vt 0.073861 0.982120
vt 0.073861 0.661790
vt 0.093089 0.661790
vt 0.093089 0.982120
vt 0.013839 0.606532
vt 0.054465 0.567040
vt 0.095091 0.606532
vt 0.054465 0.646023
vt 0.016177 0.982120
vt 0.016177 0.661790
vt 0.035405 0.661790
vt 0.035405 0.982120
vt 0.073861 0.982120
vt 0.073861 0.661790
vt 0.093089 0.661790
vt 0.093089 0.982120
vt 0.013839 0.606532
vt 0.054465 0.567040
vt 0.095091 0.606532
vt 0.054465 0.646023
vt 0.016177 0.982120
vt 0.016177 0.661790
vt 0.035405 0.661790
vt 0.035405 0.982120
vt 0.073861 0.982120
vt 0.073861 0.661790
vt 0.093089 0.661790
vt 0.093089 0.982120
vt 0.149842 0.845644
vt 0.189380 0.845925
vt 0.189259 0.937488
vt 0.149721 0.937207
vt 0.149842 0.845644
vt 0.189380 0.845925
vt 0.189259 0.937488
vt 0.149721 0.937207
vt 0.149842 0.845644
vt 0.189380 0.845925
vt 0.189259 0.937488
vt 0.149721 0.937207
vt 0.149842 0.845644
vt 0.189380 0.845925
vt 0.189259 0.937488
vt 0.149721 0.937207
vt 0.013839 0.606532
vt 0.054465 0.567040
vt 0.095091 0.606532
vt 0.054465 0.646023
vt 0.016177 0.982120
vt 0.016177 0.661790
vt 0.035405 0.661790
vt 0.035405 0.982120
vt 0.073861 0.982120
vt 0.073861 0.661790
vt 0.093089 0.661790
vt 0.093089 0.982120
vt 0.013839 0.606532
vt 0.054465 0.567040
vt 0.095091 0.606532
vt 0.054465 0.646023
vt 0.016177 0.982120
vt 0.016177 0.661790
vt 0.035405 0.661790
vt 0.035405 0.982120
vt 0.073861 0.982120
vt 0.073861 0.661790
vt 0.093089 0.661790
vt 0.093089 0.982120
vt 0.013839 0.606532
vt 0.054465 0.567040
vt 0.095091 0.606532
vt 0.054465 0.646023
vt 0.016177 0.982120
vt 0.016177 0.661790
vt 0.035405 0.661790
vt 0.035405 0.982120
vt 0.073861 0.982120
vt 0.073861 0.661790
vt 0.093089 0.661790
vt 0.093089 0.982120
vt 0.149842 0.845644
vt 0.189380 0.845925
vt 0.189259 0.937488
vt 0.149721 0.937207
vt 0.149842 0.845644
vt 0.189380 0.845925
vt 0.189259 0.937488
vt 0.149721 0.937207
vt 0.149842 0.845644
vt 0.189380 0.845925
vt 0.189259 0.937488
vt 0.149721 0.937207
vt 0.149842 0.845644
vt 0.189380 0.845925
vt 0.189259 0.937488
vt 0.149721 0.937207
vt 0.013839 0.606532
vt 0.054465 0.567040
vt 0.095091 0.606532
vt 0.054465 0.646023
vt 0.016177 0.982120
vt 0.016177 0.661790
vt 0.035405 0.661790
vt 0.035405 0.982120
vt 0.073861 0.982120
vt 0.073861 0.661790
vt 0.093089 0.661790
vt 0.093089 0.982120
vt 0.149404 0.753406
vt 0.149404 0.522688
vt 0.180299 0.522688
vt 0.180299 0.753406
vt 0.149404 0.974937
vt 0.180299 0.974937
vt 0.209670 0.753822
vt 0.209531 0.975631
vt 0.117027 0.974242
vt 0.117167 0.750641
vt 0.209814 0.522814
vt 0.117310 0.521425
vt 0.149404 0.746092
vt 0.149404 0.522688
vt 0.180299 0.522688
vt 0.180299 0.745902
vt 0.149404 0.974937
vt 0.180299 0.974937
vt 0.209674 0.746499
vt 0.209531 0.975631
vt 0.117027 0.974242
vt 0.117172 0.742726
vt 0.209814 0.522814
vt 0.117310 0.521425
vt 0.149404 0.753406
vt 0.149404 0.522688
vt 0.180299 0.522688
vt 0.180299 0.753406
vt 0.149404 0.974937
vt 0.180299 0.974937
vt 0.209670 0.753822
vt 0.209531 0.975631
vt 0.117027 0.974242
vt 0.117167 0.750641
vt 0.209814 0.522814
vt 0.117310 0.521425
vt 0.149404 0.746092
vt 0.149404 0.522688
vt 0.180299 0.522688
vt 0.180299 0.745902
vt 0.149404 0.974937
vt 0.180299 0.974937
vt 0.209674 0.746499
vt 0.209531 0.975631
vt 0.117027 0.974242
vt 0.117172 0.742726
vt 0.209814 0.522814
vt 0.117310 0.521425
vt 0.149404 0.751533
vt 0.149404 0.522688
vt 0.180299 0.522688
vt 0.180299 0.751533
vt 0.149404 0.974937
vt 0.180299 0.974937
vt 0.209671 0.751947
vt 0.209531 0.975631
vt 0.117027 0.974242
vt 0.117165 0.752707
vt 0.209814 0.522814
vt 0.117310 0.521425
vt 0.149404 0.744576
vt 0.149404 0.522688
vt 0.180299 0.522688
vt 0.180299 0.744386
vt 0.149404 0.974937
vt 0.180299 0.974937
vt 0.209675 0.744981
vt 0.209531 0.975631
vt 0.117027 0.974242
vt 0.117171 0.744431
vt 0.209814 0.522814
vt 0.117310 0.521425
vt 0.149404 0.753406
vt 0.149404 0.522688
vt 0.180299 0.522688
vt 0.180299 0.753406
vt 0.149404 0.974937
vt 0.180299 0.974937
vt 0.209670 0.753822
vt 0.209531 0.975631
vt 0.117027 0.974242
vt 0.117167 0.750641
vt 0.209814 0.522814
vt 0.117310 0.521425
vt 0.149404 0.746092
vt 0.149404 0.522688
vt 0.180299 0.522688
vt 0.180299 0.745902
vt 0.149404 0.974937
vt 0.180299 0.974937
vt 0.209674 0.746499
vt 0.209531 0.975631
vt 0.117027 0.974242
vt 0.117172 0.742726
vt 0.209814 0.522814
vt 0.117310 0.521425
vt 0.149404 0.753406
vt 0.149404 0.522688
vt 0.180299 0.522688
vt 0.180299 0.753406
vt 0.149404 0.974937
vt 0.180299 0.974937
vt 0.209670 0.753822
vt 0.209531 0.975631
vt 0.117027 0.974242
vt 0.117167 0.750641
vt 0.209814 0.522814
vt 0.117310 0.521425
vt 0.149404 0.746092
vt 0.149404 0.522688
vt 0.180299 0.522688
vt 0.180299 0.745902
vt 0.149404 0.974937
vt 0.180299 0.974937
vt 0.209674 0.746499
vt 0.209531 0.975631
vt 0.117027 0.974242
vt 0.117172 0.742726
vt 0.209814 0.522814
vt 0.117310 0.521425
vt 0.149404 0.753406
vt 0.149404 0.522688
vt 0.180299 0.522688
vt 0.180299 0.753406
vt 0.149404 0.974937
vt 0.180299 0.974937
vt 0.209670 0.753822
vt 0.209531 0.975631
vt 0.117027 0.974242
vt 0.117167 0.750641
vt 0.209814 0.522814
vt 0.117310 0.521425
vt 0.118462 0.752014
vt 0.118462 0.975392
vt 0.209262 0.975392
vt 0.209262 0.753805
vt 0.209262 0.523029
vt 0.118462 0.523029
vt 0.118462 0.743917
vt 0.118462 0.975392
vt 0.209262 0.975392
vt 0.209262 0.746299
vt 0.209262 0.523029
vt 0.118462 0.523029
vt 0.118462 0.752014
vt 0.118462 0.975392
vt 0.209262 0.975392
vt 0.209262 0.753805
vt 0.209262 0.523029
vt 0.118462 0.523029
vt 0.118462 0.743917
vt 0.118462 0.975392
vt 0.209262 0.975392
vt 0.209262 0.746299
vt 0.209262 0.523029
vt 0.118462 0.523029
vt 0.118462 0.754078
vt 0.118462 0.975392
vt 0.209262 0.975392
vt 0.209262 0.751931
vt 0.209262 0.523029
vt 0.118462 0.523029
vt 0.118462 0.745620
vt 0.118462 0.975392
vt 0.209262 0.975392
vt 0.209262 0.744783
vt 0.209262 0.523029
vt 0.118462 0.523029
vt 0.118462 0.752014
vt 0.118462 0.975392
vt 0.209262 0.975392
vt 0.209262 0.753805
vt 0.209262 0.523029
vt 0.118462 0.523029
vt 0.118462 0.743917
vt 0.118462 0.975392
vt 0.209262 0.975392
vt 0.209262 0.746299
vt 0.209262 0.523029
vt 0.118462 0.523029
vt 0.118462 0.752014
vt 0.118462 0.975392
vt 0.209262 0.975392
vt 0.209262 0.753805
vt 0.209262 0.523029
vt 0.118462 0.523029
vt 0.118462 0.743917
vt 0.118462 0.975392
vt 0.209262 0.975392
vt 0.209262 0.746299
vt 0.209262 0.523029
vt 0.118462 0.523029
vt 0.118462 0.752014
vt 0.118462 0.975392
vt 0.209262 0.975392
vt 0.209262 0.753805
vt 0.209262 0.523029
vt 0.118462 0.523029
vn -0.948683 0.316228 -1.9363380400038462E-17
vn -0.948683 -0.316228 1.9363380400038462E-17
vn -0.316228 0.948683 -5.809007996777542E-17
vn -0.316228 0.948683 -5.809007996777542E-17
vn 0.316227 0.948684 -5.809014120011538E-17
vn -0.948683 0.316228 -1.9363380400038462E-17
vn -0.31291 -0.949783 5.815743554172853E-17
vn 0.319544 -0.947572 5.802205083808279E-17
vn -0.947573 -0.319541 1.956624314231722E-17
vn -0.947573 -0.319541 1.956624314231722E-17
vn -0.949782 0.312911 -1.9160272728399872E-17
vn -0.31291 -0.949783 5.815743554172853E-17
vn 0.948683 -0.31623 -9.999999999806364E-07
vn 0.948684 0.316226 -1.0000000000193631E-06
vn 0.316227 -0.948684 5.809014120011538E-17
vn 0.316227 -0.948684 5.809014120011538E-17
vn -0.316225 -0.948684 5.809014120011538E-17
vn 0.948683 -0.31623 -9.999999999806364E-07
vn 0.948683 -0.316228 1.9363380400038462E-17
vn 0.948683 0.316228 -1.9363380400038462E-17
vn 0.316228 -0.948683 5.809007996777542E-17
vn 0.316228 -0.948683 5.809007996777542E-17
vn -0.316228 -0.948683 5.809007996777542E-17
vn 0.948683 -0.316228 1.9363380400038462E-17
vn 0.949783 -0.31291 1.9160211496059915E-17
vn 0.947573 0.31954 -1.956618190997726E-17
vn 0.319542 -0.947572 5.802205083808279E-17
vn 0.319542 -0.947572 5.802205083808279E-17
vn -0.312911 -0.949782 5.815737430938857E-17
vn 0.949783 -0.31291 1.9160211496059915E-17
vn 0.315646 0.883819 0.34529899999999997
vn -0.315647 0.883819 0.34529899999999997
vn 0.948489 0.295089 0.11528799999999999
vn 0.948489 0.295089 0.11528799999999999
vn 0.94849 -0.295086 -0.11528699999999999
vn 0.315646 0.883819 0.34529899999999997
vn 0.316228 0.948683 -5.809007996777542E-17
vn -0.316228 0.948683 -5.809007996777542E-17
vn 0.948684 0.316227 -1.9363319167698502E-17
vn 0.948684 0.316227 -1.9363319167698502E-17
vn 0.948684 -0.316227 1.9363319167698502E-17
vn 0.316228 0.948683 -5.809007996777542E-17
vn -0.949782 0.312911 -1.9160272728399872E-17
vn -0.947572 -0.319541 1.956624314231722E-17
vn -0.31954 0.947573 -5.802211207042274E-17
vn -0.31954 0.947573 -5.802211207042274E-17
vn 0.312911 0.949783 -5.815743554172853E-17
vn -0.949782 0.312911 -1.9160272728399872E-17
vn -0.31623 -0.948683 5.809007996777542E-17
vn 0.316226 -0.948684 5.809014120011538E-17
vn -0.948684 -0.316227 1.9363319167698502E-17
vn -0.948684 -0.316227 1.9363319167698502E-17
vn -0.948684 0.316226 -1.9363257935358545E-17
vn -0.31623 -0.948683 5.809007996777542E-17
vn -0.316227 -0.948684 5.809014120011538E-17
vn 0.316227 -0.948684 5.809014120011538E-17
vn -0.948683 -0.316228 1.9363380400038462E-17
vn -0.948683 -0.316228 1.9363380400038462E-17
vn -0.948683 0.316228 -1.9363380400038462E-17
vn -0.316227 -0.948684 5.809014120011538E-17
vn 0.312911 0.949782 -5.815737430938857E-17
vn -0.31954 0.947573 -5.802211207042274E-17
vn 0.947573 0.319541 -1.956624314231722E-17
vn 0.947573 0.319541 -1.956624314231722E-17
vn 0.949782 -0.312911 1.9160272728399872E-17
vn 0.312911 0.949782 -5.815737430938857E-17
vn -0.948683 0.316228 -1.9363380400038462E-17
vn -0.948683 -0.316228 1.9363380400038462E-17
vn -0.316228 0.948683 -5.809007996777542E-17
vn -0.316228 0.948683 -5.809007996777542E-17
vn 0.316227 0.948684 -5.809014120011538E-17
vn -0.948683 0.316228 -1.9363380400038462E-17
vn -0.991629 -0.006803000000000008 -0.128937
vn -0.753504 -0.534665 -0.38257699999999994
vn -0.668088 0.687325 0.28503199999999995
vn -0.668088 0.687325 0.28503199999999995
vn -0.093248 0.881852 0.46221399999999996
vn -0.991629 -0.006803000000000008 -0.128937
vn -0.316228 -0.948683 5.809007996777542E-17
vn 0.316227 -0.948684 5.809014120011538E-17
vn -0.948683 -0.316228 1.9363380400038462E-17
vn -0.948683 0.316228 -1.9363380400038462E-17
vn -0.316228 -0.948683 5.809007996777542E-17
vn 0.949783 -0.312909 1.9160150263719957E-17
vn 0.947573 0.31954 -1.956618190997726E-17
vn 0.319544 -0.947572 5.802205083808279E-17
vn -0.31291 -0.949783 5.815743554172853E-17
vn 0.949783 -0.312909 1.9160150263719957E-17
vn 0.316229 0.948683 -5.809007996777542E-17
vn -0.316228 0.948683 -5.809007996777542E-17
vn 0.948684 0.316226 -1.0000000000193631E-06
vn 0.948683 -0.31623 -9.999999999806364E-07
vn 0.316229 0.948683 -5.809007996777542E-17
vn 0.316228 0.948683 -5.809007996777542E-17
vn -0.316228 0.948683 -5.809007996777542E-17
vn 0.948683 0.316228 -1.9363380400038462E-17
vn 0.948683 -0.316228 1.9363380400038462E-17
vn 0.316228 0.948683 -5.809007996777542E-17
vn 0.312912 0.949782 -5.815737430938857E-17
vn -0.319541 0.947573 -5.802211207042274E-17
vn 0.947573 0.31954 -1.956618190997726E-17
vn 0.949783 -0.31291 1.9160211496059915E-17
vn 0.312912 0.949782 -5.815737430938857E-17
vn -0.948489 0.295089 0.11528799999999999
vn -0.94849 -0.295085 -0.11528699999999999
vn -0.315647 0.883819 0.34529899999999997
vn 0.315646 0.883819 0.34529899999999997
vn -0.948489 0.295089 0.11528799999999999
vn -0.948684 0.316227 -1.9363319167698502E-17
vn -0.948684 -0.316227 1.9363319167698502E-17
vn -0.316228 0.948683 -5.809007996777542E-17
vn 0.316228 0.948683 -5.809007996777542E-17
vn -0.948684 0.316227 -1.9363319167698502E-17
vn -0.312911 -0.949783 5.815743554172853E-17
vn 0.31954 -0.947573 5.802211207042274E-17
vn -0.947572 -0.319541 1.956624314231722E-17
vn -0.949782 0.312911 -1.9160272728399872E-17
vn -0.312911 -0.949783 5.815743554172853E-17
vn 0.948683 -0.316229 1.9363441632378416E-17
vn 0.948683 0.316228 -1.9363380400038462E-17
vn 0.316226 -0.948684 5.809014120011538E-17
vn -0.31623 -0.948683 5.809007996777542E-17
vn 0.948683 -0.316229 1.9363441632378416E-17
vn 0.948683 -0.316228 1.9363380400038462E-17
vn 0.948683 0.316229 -1.9363441632378416E-17
vn 0.316227 -0.948684 5.809014120011538E-17
vn -0.316227 -0.948684 5.809014120011538E-17
vn 0.948683 -0.316228 1.9363380400038462E-17
vn -0.949782 0.312912 -1.9160333960739832E-17
vn -0.947573 -0.31954 1.956618190997726E-17
vn -0.31954 0.947573 -5.802211207042274E-17
vn 0.312911 0.949782 -5.815737430938857E-17
vn -0.949782 0.312912 -1.9160333960739832E-17
vn -0.316228 -0.948683 5.809007996777542E-17
vn 0.316227 -0.948684 5.809014120011538E-17
vn -0.948683 -0.316228 1.9363380400038462E-17
vn -0.948683 0.316228 -1.9363380400038462E-17
vn -0.316228 -0.948683 5.809007996777542E-17
vn 0.093248 -0.881852 -0.46221399999999996
vn 0.668088 -0.687325 -0.28503199999999995
vn -0.753504 -0.534665 -0.38257699999999994
vn -0.991629 -0.006803000000000008 -0.128937
vn 0.093248 -0.881852 -0.46221399999999996
vn 0.998278 -3.592317688278889E-18 -0.058667
vn 0.998278 -3.592317688278889E-18 -0.058667
vn 0.998278 -3.592317688278889E-18 -0.058667
vn 0.998278 -3.592317688278889E-18 -0.058667
vn -0.998278 3.592133991259017E-18 0.058664
vn -0.998278 3.592133991259017E-18 0.058664
vn -0.998278 3.592133991259017E-18 0.058664
vn -0.998278 3.592133991259017E-18 0.058664
vn 0 6.123233995736766E-17 1
vn 0 6.123233995736766E-17 1
vn 0 6.123233995736766E-17 1
vn 0 6.123233995736766E-17 1
vn 0.948683 -0.316228 1.9363380400038462E-17
vn 0.948683 0.316228 -1.9363380400038462E-17
vn 0.316227 -0.948684 5.809014120011538E-17
vn -0.316228 -0.948683 5.809007996777542E-17
vn 0.316227 0.948684 -5.809014120011538E-17
vn -0.316228 0.948683 -5.809007996777542E-17
vn 0.948683 0.316228 -1.9363380400038462E-17
vn 0.948683 -0.316228 1.9363380400038462E-17
vn 0.996986 -4.750282469212668E-18 -0.077578
vn 0.996986 -4.750282469212668E-18 -0.077578
vn 0.996986 -4.750282469212668E-18 -0.077578
vn 0.996986 -4.750282469212668E-18 -0.077578
vn -0.996986 4.750282469212668E-18 0.077578
vn -0.996986 4.750282469212668E-18 0.077578
vn -0.996986 4.750282469212668E-18 0.077578
vn -0.996986 4.750282469212668E-18 0.077578
vn -0.964261 0.258377 -0.058663000000000014
vn -0.964261 0.258377 -0.058663000000000014
vn -0.964261 0.258377 -0.058663000000000014
vn -0.964261 0.258377 -0.058663000000000014
vn 0.964262 -0.258374 0.058663000000000014
vn 0.964262 -0.258374 0.058663000000000014
vn 0.964262 -0.258374 0.058663000000000014
vn 0.964262 -0.258374 0.058663000000000014
vn 0 6.123233995736766E-17 1
vn 0 6.123233995736766E-17 1
vn 0 6.123233995736766E-17 1
vn 0 6.123233995736766E-17 1
vn 0.312912 0.949782 -5.815737430938857E-17
vn -0.31954 0.947573 -5.802211207042274E-17
vn 0.947573 0.31954 -1.956618190997726E-17
vn 0.949783 -0.312909 1.9160150263719957E-17
vn -0.949782 0.312911 -1.9160272728399872E-17
vn -0.947573 -0.319541 1.956624314231722E-17
vn -0.31954 0.947573 -5.802211207042274E-17
vn 0.312912 0.949782 -5.815737430938857E-17
vn 0 6.123233995736766E-17 1
vn 0 6.123233995736766E-17 1
vn 0 6.123233995736766E-17 1
vn 0 6.123233995736766E-17 1
vn -0.948684 0.316227 -1.9363319167698502E-17
vn -0.948682 -0.31623 1.9363502864718376E-17
vn -0.316228 0.948683 -5.809007996777542E-17
vn 0.316229 0.948683 -5.809007996777542E-17
vn -0.316225 -0.948684 5.809014120011538E-17
vn 0.316227 -0.948684 5.809014120011538E-17
vn -0.948682 -0.31623 1.9363502864718376E-17
vn -0.948684 0.316227 -1.9363319167698502E-17
vn -0.996986 -4.750282469212668E-18 -0.077578
vn -0.996986 -4.750282469212668E-18 -0.077578
vn -0.996986 -4.750282469212668E-18 -0.077578
vn -0.996986 -4.750282469212668E-18 -0.077578
vn 0.996986 4.750282469212668E-18 0.077578
vn 0.996986 4.750282469212668E-18 0.077578
vn 0.996986 4.750282469212668E-18 0.077578
vn 0.996986 4.750282469212668E-18 0.077578
vn -0 0.997705 0.06771999999999995
vn -0 0.997705 0.06771999999999995
vn -0 0.997705 0.06771999999999995
vn -0 0.997705 0.06771999999999995
vn -0 -0.997705 -0.06771999999999995
vn -0 -0.997705 -0.06771999999999995
vn -0 -0.997705 -0.06771999999999995
vn -0 -0.997705 -0.06771999999999995
vn 0 6.123233995736766E-17 1
vn 0 6.123233995736766E-17 1
vn 0 6.123233995736766E-17 1
vn 0 6.123233995736766E-17 1
vn -0.948683 0.316228 -1.9363380400038462E-17
vn -0.948683 -0.316228 1.9363380400038462E-17
vn -0.316228 0.948683 -5.809007996777542E-17
vn 0.316228 0.948683 -5.809007996777542E-17
vn -0.316228 -0.948683 5.809007996777542E-17
vn 0.316228 -0.948683 5.809007996777542E-17
vn -0.948683 -0.316228 1.9363380400038462E-17
vn -0.948683 0.316228 -1.9363380400038462E-17
vn 0 6.123233995736766E-17 1
vn 0 6.123233995736766E-17 1
vn 0 6.123233995736766E-17 1
vn 0 6.123233995736766E-17 1
vn -0.949782 0.312911 -1.9160272728399872E-17
vn -0.947573 -0.31954 1.956618190997726E-17
vn -0.319541 0.947573 -5.802211207042274E-17
vn 0.312912 0.949782 -5.815737430938857E-17
vn -0.312911 -0.949782 5.815737430938857E-17
vn 0.319542 -0.947572 5.802205083808279E-17
vn -0.947573 -0.31954 1.956618190997726E-17
vn -0.949782 0.312911 -1.9160272728399872E-17
vn -0 -0.42261799999999994 0.906308
vn 1E-06 -0.42261799999999994 0.906308
vn -0 -0.42261799999999994 0.906308
vn -1E-06 -0.42261799999999994 0.906308
vn -0.315649 -0.883818 -0.34529899999999997
vn 0.315648 -0.883818 -0.34529899999999997
vn -0.94849 -0.295085 -0.11528699999999999
vn -0.948489 0.295089 0.11528799999999999
vn 0.94849 -0.295086 -0.11528699999999999
vn 0.948489 0.295089 0.11528799999999999
vn 0.315648 -0.883818 -0.34529899999999997
vn -0.315649 -0.883818 -0.34529899999999997
vn -0 -0.999668 0.025760000000000064
vn -0 -0.999668 0.025760000000000064
vn -0 -0.999668 0.025760000000000064
vn -0 -0.999668 0.025760000000000064
vn 0 0.999668 -0.025762000000000063
vn 0 0.999668 -0.025762000000000063
vn 0 0.999668 -0.025762000000000063
vn 0 0.999668 -0.025762000000000063
vn -0.998278 -3.592133991259017E-18 -0.058664
vn -0.998278 -3.592133991259017E-18 -0.058664
vn -0.998278 -3.592133991259017E-18 -0.058664
vn -0.998278 -3.592133991259017E-18 -0.058664
vn 0.998278 3.592133991259017E-18 0.058664
vn 0.998278 3.592133991259017E-18 0.058664
vn 0.998278 3.592133991259017E-18 0.058664
vn 0.998278 3.592133991259017E-18 0.058664
vn 0 6.123233995736766E-17 1
vn 0 6.123233995736766E-17 1
vn 0 6.123233995736766E-17 1
vn 0 6.123233995736766E-17 1
vn -0.316228 -0.948683 5.809007996777542E-17
vn 0.316228 -0.948683 5.809007996777542E-17
vn -0.948684 -0.316227 1.9363319167698502E-17
vn -0.948684 0.316227 -1.9363319167698502E-17
vn 0.948684 -0.316227 1.9363319167698502E-17
vn 0.948684 0.316227 -1.9363319167698502E-17
vn 0.316228 -0.948683 5.809007996777542E-17
vn -0.316228 -0.948683 5.809007996777542E-17
vn 0 6.123233995736766E-17 1
vn 0 6.123233995736766E-17 1
vn 0 6.123233995736766E-17 1
vn 0 6.123233995736766E-17 1
vn 0.949782 -0.312912 1.9160333960739832E-17
vn 0.947572 0.319541 -1.956624314231722E-17
vn 0.31954 -0.947573 5.802211207042274E-17
vn -0.312911 -0.949783 5.815743554172853E-17
vn 0.312911 0.949783 -5.815743554172853E-17
vn -0.31954 0.947573 -5.802211207042274E-17
vn 0.947572 0.319541 -1.956624314231722E-17
vn 0.949782 -0.312912 1.9160333960739832E-17
vn 0 6.123233995736766E-17 1
vn 0 6.123233995736766E-17 1
vn 0 6.123233995736766E-17 1
vn 0 6.123233995736766E-17 1
vn 0.316227 0.948684 -5.809014120011538E-17
vn -0.31623 0.948682 -5.809001873543547E-17
vn 0.948683 0.316228 -1.9363380400038462E-17
vn 0.948683 -0.316229 1.9363441632378416E-17
vn -0.948684 0.316226 -1.9363257935358545E-17
vn -0.948684 -0.316227 1.9363319167698502E-17
vn -0.31623 0.948682 -5.809001873543547E-17
vn 0.316227 0.948684 -5.809014120011538E-17
vn 0 0.996986 -0.07757800000000005
vn 0 0.996986 -0.07757800000000005
vn 0 0.996986 -0.07757800000000005
vn 0 0.996986 -0.07757800000000005
vn -0 -0.996986 0.07757800000000005
vn -0 -0.996986 0.07757800000000005
vn -0 -0.996986 0.07757800000000005
vn -0 -0.996986 0.07757800000000005
vn 0.998278 -3.592317688278889E-18 -0.058667
vn 0.998278 -3.592317688278889E-18 -0.058667
vn 0.998278 -3.592317688278889E-18 -0.058667
vn 0.998278 -3.592317688278889E-18 -0.058667
vn -0.998278 3.592133991259017E-18 0.058664
vn -0.998278 3.592133991259017E-18 0.058664
vn -0.998278 3.592133991259017E-18 0.058664
vn -0.998278 3.592133991259017E-18 0.058664
vn 0 6.123233995736766E-17 1
vn 0 6.123233995736766E-17 1
vn 0 6.123233995736766E-17 1
vn 0 6.123233995736766E-17 1
vn 0.316227 0.948684 -5.809014120011538E-17
vn -0.316227 0.948684 -5.809014120011538E-17
vn 0.948683 0.316229 -1.9363441632378416E-17
vn 0.948683 -0.316228 1.9363380400038462E-17
vn -0.948683 0.316228 -1.9363380400038462E-17
vn -0.948683 -0.316228 1.9363380400038462E-17
vn -0.316227 0.948684 -5.809014120011538E-17
vn 0.316227 0.948684 -5.809014120011538E-17
vn 0 6.123233995736766E-17 1
vn 0 6.123233995736766E-17 1
vn 0 6.123233995736766E-17 1
vn 0 6.123233995736766E-17 1
vn -0.312912 -0.949782 5.815737430938857E-17
vn 0.31954 -0.947573 5.802211207042274E-17
vn -0.947573 -0.31954 1.956618190997726E-17
vn -0.949782 0.312912 -1.9160333960739832E-17
vn 0.949782 -0.312911 1.9160272728399872E-17
vn 0.947573 0.319541 -1.956624314231722E-17
vn 0.31954 -0.947573 5.802211207042274E-17
vn -0.312912 -0.949782 5.815737430938857E-17
vn 0 6.123233995736766E-17 1
vn 0 6.123233995736766E-17 1
vn 0 6.123233995736766E-17 1
vn 0 6.123233995736766E-17 1
vn 0.948683 -0.316228 1.9363380400038462E-17
vn 0.948683 0.316228 -1.9363380400038462E-17
vn 0.316227 -0.948684 5.809014120011538E-17
vn -0.316228 -0.948683 5.809007996777542E-17
vn 0.316227 0.948684 -5.809014120011538E-17
vn -0.316228 0.948683 -5.809007996777542E-17
vn 0.948683 0.316228 -1.9363380400038462E-17
vn 0.948683 -0.316228 1.9363380400038462E-17
vn 0.996986 0.026532999999999998 -0.072899
vn 0.996986 0.026532999999999998 -0.072899
vn 0.996986 0.026532999999999998 -0.072899
vn 0.996986 0.026532999999999998 -0.072899
vn -0.996986 4.750282469212668E-18 0.077578
vn -0.996986 4.750282469212668E-18 0.077578
vn -0.996986 4.750282469212668E-18 0.077578
vn -0.996986 4.750282469212668E-18 0.077578
vn -0 -0.998278 -0.05866399999999994
vn -0 -0.998278 -0.05866399999999994
vn -0 -0.998278 -0.05866399999999994
vn -0 -0.998278 -0.05866399999999994
vn -0.010187 0.998278 0.057772999999999936
vn -0.010187 0.998278 0.057772999999999936
vn -0.010187 0.998278 0.057772999999999936
vn -0.010187 0.998278 0.057772999999999936
vn -0.110598 -0.47053799999999996 0.875421
vn -0.110598 -0.47053799999999996 0.875421
vn -0.110598 -0.47053799999999996 0.875421
vn -0.110599 -0.47053799999999996 0.875421
vn 0.991629 0.006803000000000008 0.128937
vn 0.753504 0.534665 0.38257699999999994
vn 0.668088 -0.687325 -0.28503199999999995
vn 0.093248 -0.881852 -0.46221399999999996
vn -0.093248 0.881852 0.46221399999999996
vn -0.668088 0.687325 0.28503199999999995
vn 0.753504 0.534665 0.38257699999999994
vn 0.991629 0.006803000000000008 0.128937
vn 0.150629 6.053367895845409E-17 0.98859
vn 0.101809 6.091417671894918E-17 0.994804
vn 0.101809 6.091417671894918E-17 0.994804
vn 0.199002 6.000763192588035E-17 0.979999
vn 0.246585 5.934154653182411E-17 0.969121
vn 0.246585 5.934154653182411E-17 0.969121
vn 0.064397 -0.997921 -0.002691999999999939
vn 0.135591 -0.990733 -0.007967999999999939
vn 0.135768 -0.990732 -0.004063999999999939
vn -0.007863 -0.999968 0.0015540000000000612
vn -0.079704 -0.996816 0.0023990000000000612
vn -0.080068 -0.996778 0.004705000000000061
vn 0.076868 -0.000437999999999939 0.997041
vn 0.036205 6.119217154235563E-17 0.999344
vn 0.036179 0.00020900000000006121 0.999345
vn 0.117415 -0.0004369999999999392 0.993083
vn 0.157639 -0.0008619999999999395 0.987496
vn 0.157643 2.0000000000604666E-06 0.987496
vn -0.022866 -0.999737 0.001728000000000061
vn -0.066458 -0.997776 0.005171000000000061
vn -0.06641 -0.997789 0.002624000000000061
vn 0.021047 -0.999777 -0.0016889999999999388
vn 0.06469 -0.997902 -0.002567999999999939
vn 0.065027 -0.997871 -0.0050599999999999395
vn -0.242153 0.06488600000000005 0.968066
vn -0.235519 0.06310800000000005 0.969819
vn -0.235519 0.06310800000000005 0.969819
vn -0.248769 0.06665800000000005 0.966266
vn -0.255367 0.06842600000000006 0.96442
vn -0.255367 0.06842600000000006 0.96442
vn 0.242922 0.970045 -0.0013400000000000595
vn 0.191937 0.981399 -0.00403200000000006
vn 0.191858 0.981421 -0.0020560000000000604
vn 0.293503 0.955956 0.0017449999999999415
vn 0.343156 0.939275 0.0026509999999999425
vn 0.343257 0.939227 0.005198999999999942
vn 0.111396 -0.001734999999999939 0.993775
vn 0.156659 6.047630425591404E-17 0.987653
vn 0.156845 -0.0018979999999999394 0.987621
vn 0.06559 -0.001736999999999939 0.997845
vn 0.019525 -0.0006989999999999387 0.999809
vn 0.019528 -9.999999999387794E-07 0.999809
vn 0.016447 0.999864 0.0013249999999999389
vn 0.051053 0.998688 0.003972999999999938
vn 0.050753 0.998709 0.002015999999999939
vn -0.018426 0.999829 -0.001388000000000061
vn -0.052833 0.998601 -0.002110000000000061
vn -0.053442 0.998562 -0.004158000000000061
vn -1E-06 -0.052256999999999935 0.998634
vn -1E-06 -0.052256999999999935 0.998634
vn -1E-06 -0.052256999999999935 0.998634
vn -0 -0.052256999999999935 0.998634
vn -0 -0.052256999999999935 0.998634
vn -0 -0.052256999999999935 0.998634
vn 0.999896 0.014368 0.0009429999999999992
vn 0.999127 0.041674 0.0028289999999999973
vn 0.999119 0.041952 0.0013899999999999974
vn 0.999915 -0.01298 -0.0009129999999999992
vn 0.999176 -0.04057 -0.0013439999999999975
vn 0.999184 -0.040308 -0.0027359999999999975
vn 0 0.019868000000000063 0.999803
vn 0 0.019868000000000063 0.999803
vn 0 0.019868000000000063 0.999803
vn 0 0.019868000000000063 0.999803
vn 0 0.019868000000000063 0.999803
vn 0 0.019868000000000063 0.999803
vn -0.999868 0.016276 -0.000435000000000001
vn -0.998723 0.050511 -0.001302000000000003
vn -0.998718 0.050617 -0.0006210000000000032
vn -0.999838 -0.018014 0.0004490000000000011
vn -0.998629 -0.052351 0.0006420000000000032
vn -0.998634 -0.052238 0.0013460000000000032
vn -0.118827 6.079850882876972E-17 0.992915
vn -0.123695 6.076207558649508E-17 0.99232
vn -0.123695 6.076207558649508E-17 0.99232
vn -0.113955 6.083347249488537E-17 0.993486
vn -0.109079 6.086696658484205E-17 0.994033
vn -0.109079 6.086696658484205E-17 0.994033
vn -0.01442 0.999896 -0.0008220000000000613
vn -0.041887 0.999119 -0.0024620000000000614
vn -0.041851 0.999123 -0.0012550000000000612
vn 0.013063 0.999914 0.0007929999999999387
vn 0.040487 0.999179 0.0012139999999999389
vn 0.040499 0.999177 0.002379999999999939
vn 0.001177 0.14204800000000006 0.989859
vn 0 0.10646500000000006 0.994316
vn 0.000411 0.10650600000000006 0.994312
vn 0.001175 0.17737400000000006 0.984143
vn 0.001348 0.21230400000000005 0.977203
vn -1E-06 0.21230900000000005 0.977203
vn 0.999869 -0.01614 0.0013010000000000012
vn 0.998735 -0.05013 0.003901000000000003
vn 0.998733 -0.050285 0.001980000000000003
vn 0.999836 0.018056 -0.0013600000000000012
vn 0.998631 0.052273 -0.002067000000000003
vn 0.998621 0.052338 -0.004073000000000004
vn 0.134361 6.067714633097421E-17 0.990933
vn 0.068645 6.108789286740823E-17 0.997641
vn 0.068645 6.108789286740823E-17 0.997641
vn 0.19943 6.000230471230406E-17 0.979912
vn 0.263022 5.907634926746875E-17 0.96479
vn 0.263022 5.907634926746875E-17 0.96479
vn 0.017072 -0.999854 -0.0009659999999999387
vn 0.049224 -0.998784 -0.002892999999999939
vn 0.049373 -0.998779 -0.0014749999999999388
vn -0.015313 -0.999882 0.0009370000000000613
vn -0.047706 -0.99886 0.0014330000000000612
vn -0.047829 -0.998852 0.0028110000000000613
vn -0.005673 -0.34112999999999993 0.939999
vn -0.027219 -0.34189299999999995 0.939345
vn -0.027156 -0.34228699999999995 0.939203
vn 0.021269 -0.23127999999999996 0.972655
vn 0.045862 -0.17291399999999996 0.983869
vn 0.053159 1.0000000000611458E-06 0.998586
vn -0.02215 -0.973553 -0.22738499999999995
vn -0.09505 -0.995445 0.0073960000000000605
vn -0.075746 -0.982859 -0.16808099999999995
vn 0.039154 -0.938223 -0.34380799999999995
vn 0.085442 -0.935105 -0.34391499999999997
vn 0.086158 -0.933884 -0.34704099999999993
vn -0.057745 0.13247500000000006 0.989503
vn 0 0.16576600000000005 0.986165
vn -0.043045 0.16510100000000005 0.985337
vn -0.11569 0.09628800000000005 0.988607
vn -0.130343 0.062087000000000066 0.989523
vn -0.173362 0.05744900000000006 0.983181
vn -0.99275 -0.027059000000000007 -0.117113
vn -0.982435 -0.05971700000000001 -0.176793
vn -0.989955 -0.050593000000000006 -0.132018
vn -0.998324 0.008632999999999997 -0.057222
vn -0.998543 0.033648 -0.042188
vn -0.998878 0.047272 0.002777999999999997
vn -0.028206 0.999602 0.0008139999999999388
vn -0.134029 0.990946 0.007875999999999939
vn -0.135788 0.99073 0.004018999999999939
vn -0.029275 0.999571 3.3999999999938797E-05
vn 0.079704 0.996816 -0.0023990000000000612
vn 0.080068 0.996778 -0.004706000000000061
vn 0.000796 1 -9.000000000061232E-06
vn 0.065497 0.99784 -0.005097000000000061
vn 0.066347 0.997793 -0.002588000000000061
vn 0.001391 0.999999 -2.0000000000612323E-06
vn -0.064759 0.997898 0.0025699999999999387
vn -0.065097 0.997866 0.005064999999999939
vn -0.268331 -0.963327 -0.00031099999999994104
vn -0.192813 -0.981227 0.00398000000000006
vn -0.191846 -0.981423 0.00203100000000006
vn -0.267802 -0.963474 -9.999999999941005E-06
vn -0.343156 -0.939275 -0.0026509999999999425
vn -0.343257 -0.939227 -0.005198999999999942
vn 0.001086 -0.999999 5.900000000006123E-05
vn -0.050484 -0.998717 -0.0039279999999999385
vn -0.05071 -0.998712 -0.001993999999999939
vn 0.000667 -1 1.0000000000612324E-06
vn 0.052879 -0.998599 0.0021120000000000613
vn 0.053489 -0.99856 0.004162000000000061
vn -1 -0.000691 -2.999999999999996E-05
vn -0.99911 -0.042078 -0.0028559999999999974
vn -0.999119 -0.041952 -0.0014039999999999975
vn -1 -0.000497 1.0000000000000304E-06
vn -0.999176 0.04057 0.0013439999999999975
vn -0.999184 0.040308 0.0027359999999999975
vn 1 0.000911 -1.0000000000000057E-05
vn 0.998715 -0.050653 0.001305000000000003
vn 0.99872 -0.050575 0.0006230000000000031
vn 1 0.001007 9.999999999999383E-07
vn 0.998626 0.052395 -0.0006430000000000033
vn 0.998632 0.052283 -0.0013470000000000034
vn 0.000683 -1 1.6000000000061233E-05
vn 0.041553 -0.999133 0.0024420000000000613
vn 0.041852 -0.999123 0.001246000000000061
vn 0.000839 -1 1.0000000000612324E-06
vn -0.040487 -0.999179 -0.0012139999999999389
vn -0.040499 -0.999177 -0.002379999999999939
vn -0.999999 -0.001034 5.500000000000006E-05
vn -0.998763 0.049581 -0.003858000000000003
vn -0.998735 0.050251 -0.001959000000000003
vn -1 -0.000666 1.0000000000000408E-06
vn -0.998628 -0.052318 0.002069000000000003
vn -0.998619 -0.052383 0.004076000000000003
vn -0.000838 1 1.3999999999938768E-05
vn -0.048763 0.998806 0.002865999999999939
vn -0.049379 0.998779 0.0014619999999999388
vn -0.001208 0.999999 9.999999999387677E-07
vn 0.047706 0.99886 -0.0014330000000000612
vn 0.047829 0.998852 -0.0028110000000000613
vn -0.005027 0.965889 0.25890899999999994
vn 0.037955 0.999275 -0.002953000000000061
vn 0.075754 0.982611 0.16952099999999995
vn 0.013724 0.939645 0.34187699999999993
vn -0.085202 0.935128 0.34391299999999997
vn -0.085913 0.933911 0.34702999999999995
vn 0.996168 0.008422000000000006 0.08705
vn 0.983243 0.04688600000000001 0.17617
vn 0.990002 0.05055300000000001 0.131681
vn 0.996049 0.017007000000000008 0.087163
vn 0.998543 -0.033641 0.042193
vn 0.998887 -0.047079 -0.002766999999999997
g tree
f 1/1/1 2/2/2 3/3/3
f 4/4/4 5/5/5 6/6/6
f 7/7/7 8/8/8 9/9/9
f 10/10/10 11/11/11 12/12/12
f 13/13/13 14/14/14 15/15/15
f 16/16/16 17/17/17 18/18/18
f 19/19/19 20/20/20 21/21/21
f 22/22/22 23/23/23 24/24/24
f 25/25/25 26/26/26 27/27/27
f 28/28/28 29/29/29 30/30/30
f 31/31/31 32/32/32 33/33/33
f 34/34/34 35/35/35 36/36/36
f 37/37/37 38/38/38 39/39/39
f 40/40/40 41/41/41 42/42/42
f 43/43/43 44/44/44 45/45/45
f 46/46/46 47/47/47 48/48/48
f 49/49/49 50/50/50 51/51/51
f 52/52/52 53/53/53 54/54/54
f 55/55/55 56/56/56 57/57/57
f 58/58/58 59/59/59 60/60/60
f 61/61/61 62/62/62 63/63/63
f 64/64/64 65/65/65 66/66/66
f 67/67/67 68/68/68 69/69/69
f 70/70/70 71/71/71 72/72/72
f 73/73/73 74/74/74 75/75/75
f 76/76/76 77/77/77 78/78/78
f 79/79/79 80/80/80 81/81/81
f 81/81/81 82/82/82 83/83/83
f 84/84/84 85/85/85 86/86/86
f 86/86/86 87/87/87 88/88/88
f 89/89/89 90/90/90 91/91/91
f 91/91/91 92/92/92 93/93/93
f 94/94/94 95/95/95 96/96/96
f 96/96/96 97/97/97 98/98/98
f 99/99/99 100/100/100 101/101/101
f 101/101/101 102/102/102 103/103/103
f 104/104/104 105/105/105 106/106/106
f 106/106/106 107/107/107 108/108/108
f 109/109/109 110/110/110 111/111/111
f 111/111/111 112/112/112 113/113/113
f 114/114/114 115/115/115 116/116/116
f 116/116/116 117/117/117 118/118/118
f 119/119/119 120/120/120 121/121/121
f 121/121/121 122/122/122 123/123/123
f 124/124/124 125/125/125 126/126/126
f 126/126/126 127/127/127 128/128/128
f 129/129/129 130/130/130 131/131/131
f 131/131/131 132/132/132 133/133/133
f 134/134/134 135/135/135 136/136/136
f 136/136/136 137/137/137 138/138/138
f 139/139/139 140/140/140 141/141/141
f 141/141/141 142/142/142 143/143/143
f 144/144/144 145/145/145 146/146/146
f 146/146/146 147/147/147 144/144/144
f 148/148/148 149/149/149 150/150/150
f 150/150/150 151/151/151 148/148/148
f 152/152/152 153/153/153 154/154/154
f 154/154/154 155/155/155 152/152/152
f 156/156/156 157/157/157 158/158/158
f 158/158/158 159/159/159 156/156/156
f 160/160/160 161/161/161 162/162/162
f 162/162/162 163/163/163 160/160/160
f 164/164/164 165/165/165 166/166/166
f 166/166/166 167/167/167 164/164/164
f 168/168/168 169/169/169 170/170/170
f 170/170/170 171/171/171 168/168/168
f 172/172/172 173/173/173 174/174/174
f 174/174/174 175/175/175 172/172/172
f 176/176/176 177/177/177 178/178/178
f 178/178/178 179/179/179 176/176/176
f 180/180/180 181/181/181 182/182/182
f 182/182/182 183/183/183 180/180/180
f 184/184/184 185/185/185 186/186/186
f 186/186/186 187/187/187 184/184/184
f 188/188/188 189/189/189 190/190/190
f 190/190/190 191/191/191 188/188/188
f 192/192/192 193/193/193 194/194/194
f 194/194/194 195/195/195 192/192/192
f 196/196/196 197/197/197 198/198/198
f 198/198/198 199/199/199 196/196/196
f 200/200/200 201/201/201 202/202/202
f 202/202/202 203/203/203 200/200/200
f 204/204/204 205/205/205 206/206/206
f 206/206/206 207/207/207 204/204/204
f 208/208/208 209/209/209 210/210/210
f 210/210/210 211/211/211 208/208/208
f 212/212/212 213/213/213 214/214/214
f 214/214/214 215/215/215 212/212/212
f 216/216/216 217/217/217 218/218/218
f 218/218/218 219/219/219 216/216/216
f 220/220/220 221/221/221 222/222/222
f 222/222/222 223/223/223 220/220/220
f 224/224/224 225/225/225 226/226/226
f 226/226/226 227/227/227 224/224/224
f 228/228/228 229/229/229 230/230/230
f 230/230/230 231/231/231 228/228/228
f 232/232/232 233/233/233 234/234/234
f 234/234/234 235/235/235 232/232/232
f 236/236/236 237/237/237 238/238/238
f 238/238/238 239/239/239 236/236/236
f 240/240/240 241/241/241 242/242/242
f 242/242/242 243/243/243 240/240/240
f 244/244/244 245/245/245 246/246/246
f 246/246/246 247/247/247 244/244/244
f 248/248/248 249/249/249 250/250/250
f 250/250/250 251/251/251 248/248/248
f 252/252/252 253/253/253 254/254/254
f 254/254/254 255/255/255 252/252/252
f 256/256/256 257/257/257 258/258/258
f 258/258/258 259/259/259 256/256/256
f 260/260/260 261/261/261 262/262/262
f 262/262/262 263/263/263 260/260/260
f 264/264/264 265/265/265 266/266/266
f 266/266/266 267/267/267 264/264/264
f 268/268/268 269/269/269 270/270/270
f 270/270/270 271/271/271 268/268/268
f 272/272/272 273/273/273 274/274/274
f 274/274/274 275/275/275 272/272/272
f 276/276/276 277/277/277 278/278/278
f 278/278/278 279/279/279 276/276/276
f 280/280/280 281/281/281 282/282/282
f 282/282/282 283/283/283 280/280/280
f 284/284/284 285/285/285 286/286/286
f 286/286/286 287/287/287 284/284/284
f 288/288/288 289/289/289 290/290/290
f 290/290/290 291/291/291 288/288/288
f 292/292/292 293/293/293 294/294/294
f 294/294/294 295/295/295 292/292/292
f 296/296/296 297/297/297 298/298/298
f 298/298/298 299/299/299 296/296/296
f 300/300/300 301/301/301 302/302/302
f 302/302/302 303/303/303 300/300/300
f 304/304/304 305/305/305 306/306/306
f 306/306/306 307/307/307 304/304/304
f 308/308/308 309/309/309 310/310/310
f 310/310/310 311/311/311 308/308/308
f 312/312/312 313/313/313 314/314/314
f 314/314/314 315/315/315 312/312/312
f 316/316/316 317/317/317 318/318/318
f 318/318/318 319/319/319 316/316/316
f 320/320/320 321/321/321 322/322/322
f 322/322/322 323/323/323 320/320/320
f 324/324/324 325/325/325 326/326/326
f 326/326/326 327/327/327 324/324/324
f 328/328/328 329/329/329 330/330/330
f 330/330/330 331/331/331 328/328/328
f 332/332/332 333/333/333 334/334/334
f 334/334/334 335/335/335 332/332/332
f 336/336/336 337/337/337 338/338/338
f 338/338/338 339/339/339 336/336/336
f 340/340/340 341/341/341 342/342/342
f 342/342/342 343/343/343 340/340/340
f 344/344/344 345/345/345 346/346/346
f 346/346/346 347/347/347 344/344/344
f 348/348/348 349/349/349 350/350/350
f 350/350/350 351/351/351 348/348/348
f 352/352/352 353/353/353 354/354/354
f 354/354/354 355/355/355 352/352/352
f 356/356/356 357/357/357 358/358/358
f 358/358/358 359/359/359 356/356/356
f 360/360/360 361/361/361 362/362/362
f 362/362/362 363/363/363 360/360/360
f 364/364/364 365/365/365 366/366/366
f 366/366/366 367/367/367 364/364/364
f 368/368/368 369/369/369 370/370/370
f 370/370/370 371/371/371 368/368/368
f 372/372/372 373/373/373 374/374/374
f 374/374/374 375/375/375 372/372/372
f 376/376/376 377/377/377 378/378/378
f 378/378/378 379/379/379 376/376/376
f 380/380/380 381/381/381 382/382/382
f 382/382/382 383/383/383 380/380/380
f 384/384/384 385/385/385 386/386/386
f 386/386/386 387/387/387 384/384/384
f 388/388/388 389/389/389 390/390/390
f 390/390/390 391/391/391 388/388/388
f 392/392/392 388/388/388 391/391/391
f 391/391/391 393/393/393 392/392/392
f 394/394/394 395/395/395 396/396/396
f 396/396/396 397/397/397 394/394/394
f 398/398/398 394/394/394 397/397/397
f 397/397/397 399/399/399 398/398/398
f 400/400/400 401/401/401 402/402/402
f 402/402/402 403/403/403 400/400/400
f 404/404/404 400/400/400 403/403/403
f 403/403/403 405/405/405 404/404/404
f 406/406/406 407/407/407 408/408/408
f 408/408/408 409/409/409 406/406/406
f 410/410/410 406/406/406 409/409/409
f 409/409/409 411/411/411 410/410/410
f 412/412/412 413/413/413 414/414/414
f 414/414/414 415/415/415 412/412/412
f 416/416/416 412/412/412 415/415/415
f 415/415/415 417/417/417 416/416/416
f 418/418/418 419/419/419 420/420/420
f 420/420/420 421/421/421 418/418/418
f 422/422/422 418/418/418 421/421/421
f 421/421/421 423/423/423 422/422/422
f 424/424/424 425/425/425 426/426/426
f 426/426/426 427/427/427 424/424/424
f 428/428/428 424/424/424 427/427/427
f 427/427/427 429/429/429 428/428/428
f 430/430/430 431/431/431 432/432/432
f 432/432/432 433/433/433 430/430/430
f 434/434/434 430/430/430 433/433/433
f 433/433/433 435/435/435 434/434/434
f 436/436/436 437/437/437 438/438/438
f 438/438/438 439/439/439 436/436/436
f 440/440/440 436/436/436 439/439/439
f 439/439/439 441/441/441 440/440/440
f 442/442/442 443/443/443 444/444/444
f 444/444/444 445/445/445 442/442/442
f 446/446/446 442/442/442 445/445/445
f 445/445/445 447/447/447 446/446/446
f 448/448/448 449/449/449 450/450/450
f 450/450/450 451/451/451 448/448/448
f 452/452/452 448/448/448 451/451/451
f 451/451/451 453/453/453 452/452/452
f 454/454/454 455/455/455 456/456/456
f 456/456/456 457/457/457 454/454/454
f 458/458/458 454/454/454 457/457/457
f 457/457/457 459/459/459 458/458/458
f 460/460/460 461/461/461 462/462/462
f 462/462/462 463/463/463 460/460/460
f 464/464/464 460/460/460 463/463/463
f 463/463/463 465/465/465 464/464/464
f 466/466/466 467/467/467 468/468/468
f 468/468/468 469/469/469 466/466/466
f 470/470/470 466/466/466 469/469/469
f 469/469/469 471/471/471 470/470/470
f 472/472/472 473/473/473 474/474/474
f 474/474/474 475/475/475 472/472/472
f 476/476/476 472/472/472 475/475/475
f 475/475/475 477/477/477 476/476/476
f 478/478/478 479/479/479 480/480/480
f 480/480/480 481/481/481 478/478/478
f 482/482/482 478/478/478 481/481/481
f 481/481/481 483/483/483 482/482/482
f 484/484/484 485/485/485 486/486/486
f 486/486/486 487/487/487 484/484/484
f 488/488/488 484/484/484 487/487/487
f 487/487/487 489/489/489 488/488/488
f 490/490/490 491/491/491 492/492/492
f 492/492/492 493/493/493 490/490/490
f 494/494/494 490/490/490 493/493/493
f 493/493/493 495/495/495 494/494/494
f 496/496/496 497/497/497 498/498/498
f 498/498/498 499/499/499 496/496/496
f 500/500/500 496/496/496 499/499/499
f 499/499/499 501/501/501 500/500/500
f 502/502/502 503/503/503 504/504/504
f 504/504/504 505/505/505 502/502/502
f 506/506/506 502/502/502 505/505/505
f 505/505/505 507/507/507 506/506/506
f 508/508/508 509/509/509 510/510/510
f 510/510/510 511/511/511 508/508/508
f 512/512/512 508/508/508 511/511/511
f 511/511/511 513/513/513 512/512/512
f 514/514/514 515/515/515 516/516/516
f 516/516/516 517/517/517 514/514/514
f 518/518/518 514/514/514 517/517/517
f 517/517/517 519/519/519 518/518/518
f 520/520/520 521/521/521 522/522/522
f 522/522/522 523/523/523 520/520/520
f 520/520/520 523/523/523 524/524/524
f 524/524/524 525/525/525 520/520/520
f 526/526/526 527/527/527 528/528/528
f 528/528/528 529/529/529 526/526/526
f 526/526/526 529/529/529 530/530/530
f 530/530/530 531/531/531 526/526/526
f 532/532/532 533/533/533 534/534/534
f 534/534/534 535/535/535 532/532/532
f 532/532/532 535/535/535 536/536/536
f 536/536/536 537/537/537 532/532/532
f 538/538/538 539/539/539 540/540/540
f 540/540/540 541/541/541 538/538/538
f 538/538/538 541/541/541 542/542/542
f 542/542/542 543/543/543 538/538/538
f 544/544/544 545/545/545 546/546/546
f 546/546/546 547/547/547 544/544/544
f 544/544/544 547/547/547 548/548/548
f 548/548/548 549/549/549 544/544/544
f 550/550/550 551/551/551 552/552/552
f 552/552/552 553/553/553 550/550/550
f 550/550/550 553/553/553 554/554/554
f 554/554/554 555/555/555 550/550/550
f 556/556/556 557/557/557 558/558/558
f 558/558/558 559/559/559 556/556/556
f 556/556/556 559/559/559 560/560/560
f 560/560/560 561/561/561 556/556/556
f 562/562/562 563/563/563 564/564/564
f 564/564/564 565/565/565 562/562/562
f 562/562/562 565/565/565 566/566/566
f 566/566/566 567/567/567 562/562/562
f 568/568/568 569/569/569 570/570/570
f 570/570/570 571/571/571 568/568/568
f 568/568/568 571/571/571 572/572/572
f 572/572/572 573/573/573 568/568/568
f 574/574/574 575/575/575 576/576/576
f 576/576/576 577/577/577 574/574/574
f 574/574/574 577/577/577 578/578/578
f 578/578/578 579/579/579 574/574/574
f 580/580/580 581/581/581 582/582/582
f 582/582/582 583/583/583 580/580/580
f 580/580/580 583/583/583 584/584/584
f 584/584/584 585/585/585 580/580/580
