v 0.31306 -0.74336 0.32662900000000006
v 0.357822 -1.105614 0.38978500000000005
v 0.41271 -1.112446 0.31169500000000006
v 0.352125 -0.754551 0.23779800000000006
v 0.297236 -0.747718 0.31588800000000006
v 0.367948 -0.750191 0.24853900000000007
v 0.309603 -0.714861 0.27880400000000005
v 0.32433 -0.716694 0.2578520000000001
v 0.345041 -0.710989 0.27191100000000007
v 0.330314 -0.709156 0.29286200000000007
v 0.164955 0.509349 0.03993699999999997
v 0.132607 0.505814 0.04622899999999997
v 0.146049 0.504141 0.02710399999999997
v 0.151513 0.511022 0.05906199999999997
vt 0.825231 0.886045
vt 0.825231 0.996346
vt 0.876751 0.996346
vt 0.876751 0.886045
vt 0.825231 0.886045
vt 0.876751 0.886045
vt 0.839048 0.875008
vt 0.862934 0.875008
vt 0.862934 0.875008
vt 0.839048 0.875008
vt 0.861893 0.501133
vt 0.840089 0.501133
vt 0.861893 0.501133
vt 0.840089 0.501133
vn 0.204931 0.503158 0.839545
vn -0.966465 -0.160982 0.200076
vn 0.982421 0.051909999999999984 -0.179319
vn -0.291629 0.08951199999999994 -0.952334
vn -0.995605 -0.016666000000000007 -0.092162
vn 0.955078 0.293718 0.03943599999999998
vn -0.981691 0.188129 0.02983399999999999
vn -0.226676 -0.08520200000000006 -0.970236
vn 0.891496 0.428454 -0.14717600000000003
vn 0.189996 0.33594700000000005 0.922519
vn 0.739104 0.43026999999999993 -0.51826
vn -0.855504 0.365444 0.366828
vn -0.441307 0.47689299999999996 -0.760146
vn 0.251507 0.820576 0.513225
g boot
f 1/1/1 2/2/2 3/3/3
f 4/4/4 3/3/3 2/2/2
f 5/5/5 2/2/2 1/1/1
f 2/2/2 5/5/5 4/4/4
f 3/3/3 6/6/6 1/1/1
f 6/6/6 3/3/3 4/4/4
f 7/7/7 5/5/5 1/1/1
f 8/8/8 4/4/4 5/5/5
f 5/5/5 7/7/7 8/8/8
f 9/9/9 6/6/6 4/4/4
f 4/4/4 8/8/8 9/9/9
f 10/10/10 1/1/1 6/6/6
f 6/6/6 9/9/9 10/10/10
f 1/1/1 10/10/10 7/7/7
f 11/11/11 9/9/9 8/8/8
f 12/12/12 7/7/7 10/10/10
f 13/13/13 8/8/8 7/7/7
f 7/7/7 12/12/12 13/13/13
f 8/8/8 13/13/13 11/11/11
f 10/10/10 14/14/14 12/12/12
f 12/12/12 14/14/14 13/13/13
f 14/14/14 10/10/10 9/9/9
f 14/14/14 11/11/11 13/13/13
f 9/9/9 11/11/11 14/14/14
