v 0.742233 1.367721 0.2444669999999999
v 0.464304 1.365985 0.2444669999999999
v 0.463058 1.565525 0.2444669999999999
v 0.740987 1.567262 0.2444669999999999
v 0.463058 1.565525 -0.005848000000000096
v 0.740987 1.567262 -0.005848000000000096
v 0.742233 1.367721 -0.005848000000000084
v 0.464304 1.365985 -0.005848000000000083
v 0.745233 1.038085 0.21231199999999995
v 0.703555 1.327044 0.22717299999999993
v 0.888358 1.353217 0.23796599999999993
v 0.93013 1.06422 0.22310799999999995
v 0.70828 1.332577 0.13285299999999992
v 0.893084 1.358749 0.1436459999999999
v 0.934855 1.069752 0.12878899999999993
v 0.749959 1.043617 0.11799299999999993
v -1.609739 0.862777 -5.28298545713978E-17
v -1.703782 0.974798 -5.968916252576208E-17
v -1.591753 1.068749 -6.544200209709673E-17
v -1.4977 0.956733 -5.858300030443223E-17
v -1.611267 0.865544 0.29162299999999997
v -1.705486 0.977275 0.29162299999999997
v -1.59367 1.070571 0.29162299999999997
v -1.499352 0.958892 0.29162299999999997
v -1.098805 1.202301 0.22372099999999992
v -0.859079 1.269986 0.22372099999999992
v -0.777805 0.986089 0.22372099999999995
v -1.018404 0.917879 0.22372099999999995
v -1.098805 1.202301 -0.00043600000000007364
v -1.018404 0.917879 -0.00043600000000005624
v -0.777805 0.986089 -0.0004360000000000604
v -0.859079 1.269986 -0.00043600000000007776
v 1.18398 1.919336 0.2020479999999999
v 1.264511 1.720962 0.2020479999999999
v 1.066137 1.640431 0.2020479999999999
v 0.985605 1.838805 0.2020479999999999
v 1.066137 1.640431 -0.0120340000000001
v 0.985605 1.838805 -0.012034000000000112
v 1.18398 1.919336 -0.012034000000000118
v 1.264511 1.720962 -0.012034000000000105
v -1.070308 -0.978578 0.18803000000000006
v -1.07583 -1.198615 0.18797100000000008
v -1.415858 -1.196138 0.18827400000000008
v -1.413804 -0.974717 0.18822900000000006
v -1.07777 -0.976842 0.0029000000000000596
v -1.081856 -1.197176 0.0028900000000000735
v -1.426957 -1.19313 0.002929000000000073
v -1.424165 -0.972287 0.0029250000000000595
v 1.081246 -1.15888 0.23236800000000007
v 1.079699 -0.927228 0.23236800000000005
v 1.312896 -1.157335 0.23236800000000007
v 1.311351 -0.925682 0.23236800000000005
v 1.079699 -0.927228 0.0007110000000000569
v 1.311351 -0.925682 0.0007110000000000567
v 1.079699 -0.927228 0.23236800000000005
v 1.311351 -0.925682 0.23236800000000005
v 1.081246 -1.15888 0.000711000000000071
v 1.079699 -0.927228 0.0007110000000000569
v 1.312896 -1.157335 0.000711000000000071
v 1.311351 -0.925682 0.0007110000000000567
v 1.081246 -1.15888 0.23236800000000007
v 1.079699 -0.927228 0.23236800000000005
v 1.312896 -1.157335 0.23236800000000007
v 1.311351 -0.925682 0.23236800000000005
v 1.032078 1.70023 0.3205979999999999
v 1.03126 1.822823 0.3205979999999999
v 1.15467 1.701048 0.3205979999999999
v 1.153853 1.823641 0.3205979999999999
v 1.03126 1.822823 0.1980029999999999
v 1.153853 1.823641 0.1980029999999999
v 1.03126 1.822823 0.3205979999999999
v 1.153853 1.823641 0.3205979999999999
v 1.032078 1.70023 0.1980029999999999
v 1.03126 1.822823 0.1980029999999999
v 1.15467 1.701048 0.1980029999999999
v 1.153853 1.823641 0.1980029999999999
v 1.032078 1.70023 0.3205979999999999
v 1.03126 1.822823 0.3205979999999999
v 1.15467 1.701048 0.3205979999999999
v 1.153853 1.823641 0.3205979999999999
v 0.855808 -1.259942 0.12835600000000008
v 0.872739 -0.893527 0.12835600000000005
v 1.052183 -0.90224 0.12835600000000005
v 1.034552 -1.268352 0.12835600000000008
v 0.855808 -1.259942 -0.0004359999999999229
v 0.872739 -0.893527 -0.00043599999999994533
v 1.052183 -0.90224 -0.0004359999999999448
v 1.034552 -1.268352 -0.00043599999999992234
v 0.720824 1.144755 0.12835599999999991
v 0.764304 1.508985 0.12835599999999991
v 1.018002 1.476945 0.12835599999999991
v 0.973546 1.113109 0.12835599999999994
v 0.720824 1.144755 -0.0004360000000000701
v 0.764304 1.508985 -0.0004360000000000924
v 1.018002 1.476945 -0.00043600000000009045
v 0.973546 1.113109 -0.00043600000000006817
v -0.702213 -0.977678 0.16684100000000004
v -0.702241 -1.184148 0.16684300000000007
v -1.039161 -1.192229 0.16683900000000007
v -1.033213 -0.974858 0.16680600000000007
v -0.704051 -0.980574 0.00321900000000006
v -0.701233 -1.185309 0.0032190000000000725
v -1.03719 -1.189606 0.003219000000000073
v -1.033373 -0.973559 0.0032190000000000595
v -0.739678 1.87549 0.2089819999999999
v -0.697281 1.667156 0.2089819999999999
v -0.905615 1.624759 0.2089819999999999
v -0.948012 1.833092 0.2089819999999999
v -0.739678 1.87549 -0.0036220000000001147
v -0.697281 1.667156 -0.0036220000000001017
v -0.905615 1.624759 -0.003622000000000099
v -0.948012 1.833092 -0.003622000000000112
v 1.042069 -0.884277 0.16025200000000006
v 0.965538 -0.868251 0.18504900000000005
v 0.889794 -0.852308 0.16166900000000006
v 0.969178 -0.868937 0.13686500000000004
v 0.957414 -1.276475 0.1601420000000001
v 0.881766 -1.256957 0.18494500000000008
v 0.806896 -1.237705 0.16143000000000007
v 0.885254 -1.258183 0.13665400000000008
v 0.904511 -1.318011 0.1607850000000001
v 0.918557 -1.252765 0.16082300000000008
v 0.839708 -1.300585 0.1607220000000001
v 0.853546 -1.236179 0.16077600000000009
v 0.92728 -0.865873 0.16082300000000005
v 0.941327 -0.800627 0.16078500000000007
v 1.00613 -0.818053 0.16072200000000006
v 0.992291 -0.882459 0.16077600000000006
v 0.83793 -1.012693 -0.014590999999999937
v 0.82178 -1.009083 0.05101400000000006
v 0.818863 -1.077049 -0.012611999999999934
v 0.802896 -1.073502 0.052219000000000064
v 0.740022 -0.946633 0.42886100000000005
v 0.741626 -1.028438 0.43419500000000005
v 0.698968 -1.096744 0.42613100000000004
v 0.69794 -1.012058 0.42171300000000006
v 0.836437 -0.968342 0.03702200000000006
v 0.837638 -1.049976 0.04447200000000006
v 0.793922 -1.117923 0.04048100000000007
v 0.793659 -1.033529 0.03254700000000006
v 0.714314 -1.054723 0.4109360000000001
v 0.698165 -1.051113 0.4765420000000001
v 0.717236 -0.986759 0.47456300000000007
v 0.7332 -0.990304 0.40973200000000004
v -1.156043 1.177449 0.23920399999999992
v -1.396504 1.224697 0.23920399999999992
v -1.439968 0.999045 0.23920399999999994
v -1.199633 0.952543 0.23920399999999994
v -1.156043 1.177449 -0.0004360000000000721
v -1.396504 1.224697 -0.000436000000000075
v -1.439968 0.999045 -0.0004360000000000612
v -1.199633 0.952543 -0.00043600000000005836
v 0.155466 -0.814279 -0.003921999999999951
v 0.155734 -0.814773 0.13823100000000005
v 0.156583 -1.500423 0.13843400000000008
v 0.156319 -1.498664 -0.003924999999999908
v 0.275857 -0.804497 -0.00391899999999995
v 0.276206 -0.805071 0.13828800000000005
v 0.275955 -1.500751 -0.003920999999999908
v 0.276298 -1.502846 0.13850400000000007
v 0.740987 1.567262 0.2444669999999999
v 0.463058 1.565525 0.2444669999999999
v 0.740987 1.567262 -0.005848000000000096
v 0.742233 1.367721 0.2444669999999999
v 0.740987 1.567262 0.2444669999999999
v 0.742233 1.367721 -0.005848000000000084
v 0.464304 1.365985 0.2444669999999999
v 0.742233 1.367721 0.2444669999999999
v 0.464304 1.365985 -0.005848000000000083
v 0.463058 1.565525 -0.005848000000000096
v 0.463058 1.565525 0.2444669999999999
v 0.464304 1.365985 0.2444669999999999
v 0.893084 1.358749 0.1436459999999999
v 0.934855 1.069752 0.12878899999999993
v 0.749959 1.043617 0.11799299999999993
v 0.70828 1.332577 0.13285299999999992
v -1.499352 0.958892 0.29162299999999997
v -1.4977 0.956733 -5.858300030443223E-17
v -1.705486 0.977275 0.29162299999999997
v -1.59367 1.070571 0.29162299999999997
v -1.499352 0.958892 0.29162299999999997
v -1.611267 0.865544 0.29162299999999997
v -1.018404 0.917879 0.22372099999999995
v -1.098805 1.202301 0.22372099999999992
v -0.777805 0.986089 0.22372099999999995
v -1.018404 0.917879 -0.00043600000000005624
v -1.018404 0.917879 0.22372099999999995
v -0.859079 1.269986 0.22372099999999992
v -0.777805 0.986089 -0.0004360000000000604
v -0.777805 0.986089 0.22372099999999995
v -1.098805 1.202301 0.22372099999999992
v -1.098805 1.202301 -0.00043600000000007364
v -0.859079 1.269986 -0.00043600000000007776
v -0.859079 1.269986 0.22372099999999992
v 0.985605 1.838805 0.2020479999999999
v 1.066137 1.640431 0.2020479999999999
v 1.18398 1.919336 0.2020479999999999
v 0.985605 1.838805 0.2020479999999999
v 0.985605 1.838805 -0.012034000000000112
v 1.264511 1.720962 0.2020479999999999
v 1.18398 1.919336 0.2020479999999999
v 1.18398 1.919336 -0.012034000000000118
v 1.066137 1.640431 0.2020479999999999
v 1.264511 1.720962 0.2020479999999999
v 1.264511 1.720962 -0.012034000000000105
v 1.066137 1.640431 -0.0120340000000001
v -1.07583 -1.198615 0.18797100000000008
v -1.070308 -0.978578 0.18803000000000006
v -1.413804 -0.974717 0.18822900000000006
v -1.415858 -1.196138 0.18827400000000008
v -1.424165 -0.972287 0.0029250000000000595
v -1.07777 -0.976842 0.0029000000000000596
v -1.070308 -0.978578 0.18803000000000006
v -1.413804 -0.974717 0.18822900000000006
v -1.07583 -1.198615 0.18797100000000008
v -1.081856 -1.197176 0.0028900000000000735
v -1.426957 -1.19313 0.002929000000000073
v -1.415858 -1.196138 0.18827400000000008
v 1.081246 -1.15888 0.23236800000000007
v 1.312896 -1.157335 0.23236800000000007
v 1.312896 -1.157335 0.000711000000000071
v 1.081246 -1.15888 0.000711000000000071
v 1.032078 1.70023 0.3205979999999999
v 1.15467 1.701048 0.3205979999999999
v 1.15467 1.701048 0.1980029999999999
v 1.032078 1.70023 0.1980029999999999
v 0.872739 -0.893527 0.12835600000000005
v 0.855808 -1.259942 0.12835600000000008
v 1.052183 -0.90224 0.12835600000000005
v 0.872739 -0.893527 0.12835600000000005
v 0.872739 -0.893527 -0.00043599999999994533
v 1.034552 -1.268352 0.12835600000000008
v 1.052183 -0.90224 0.12835600000000005
v 1.052183 -0.90224 -0.0004359999999999448
v 0.855808 -1.259942 0.12835600000000008
v 1.034552 -1.268352 0.12835600000000008
v 1.034552 -1.268352 -0.00043599999999992234
v 0.855808 -1.259942 -0.0004359999999999229
v 0.764304 1.508985 0.12835599999999991
v 0.720824 1.144755 0.12835599999999991
v 1.018002 1.476945 0.12835599999999991
v 0.764304 1.508985 0.12835599999999991
v 0.764304 1.508985 -0.0004360000000000924
v 0.973546 1.113109 0.12835599999999994
v 1.018002 1.476945 0.12835599999999991
v 1.018002 1.476945 -0.00043600000000009045
v 0.720824 1.144755 0.12835599999999991
v 0.973546 1.113109 0.12835599999999994
v 0.973546 1.113109 -0.00043600000000006817
v 0.720824 1.144755 -0.0004360000000000701
v -0.702241 -1.184148 0.16684300000000007
v -0.702213 -0.977678 0.16684100000000004
v -1.033213 -0.974858 0.16680600000000007
v -1.039161 -1.192229 0.16683900000000007
v -1.033373 -0.973559 0.0032190000000000595
v -0.704051 -0.980574 0.00321900000000006
v -0.702213 -0.977678 0.16684100000000004
v -1.033213 -0.974858 0.16680600000000007
v -0.702241 -1.184148 0.16684300000000007
v -0.701233 -1.185309 0.0032190000000000725
v -1.03719 -1.189606 0.003219000000000073
v -1.039161 -1.192229 0.16683900000000007
v -0.697281 1.667156 0.2089819999999999
v -0.739678 1.87549 0.2089819999999999
v -0.905615 1.624759 0.2089819999999999
v -0.697281 1.667156 0.2089819999999999
v -0.697281 1.667156 -0.0036220000000001017
v -0.948012 1.833092 0.2089819999999999
v -0.905615 1.624759 0.2089819999999999
v -0.905615 1.624759 -0.003622000000000099
v -0.739678 1.87549 0.2089819999999999
v -0.948012 1.833092 0.2089819999999999
v -0.948012 1.833092 -0.003622000000000112
v -0.739678 1.87549 -0.0036220000000001147
v 0.965538 -0.868251 0.18504900000000005
v 1.042069 -0.884277 0.16025200000000006
v 0.889794 -0.852308 0.16166900000000006
v 0.806896 -1.237705 0.16143000000000007
v 0.889794 -0.852308 0.16166900000000006
v 0.881766 -1.256957 0.18494500000000008
v 0.957414 -1.276475 0.1601420000000001
v 0.806896 -1.237705 0.16143000000000007
v 0.839708 -1.300585 0.1607220000000001
v 0.904511 -1.318011 0.1607850000000001
v 0.918557 -1.252765 0.16082300000000008
v 0.853546 -1.236179 0.16077600000000009
v 1.00613 -0.818053 0.16072200000000006
v 0.941327 -0.800627 0.16078500000000007
v 0.92728 -0.865873 0.16082300000000005
v 0.992291 -0.882459 0.16077600000000006
v 0.818863 -1.077049 -0.012611999999999934
v 0.83793 -1.012693 -0.014590999999999937
v 0.82178 -1.009083 0.05101400000000006
v 0.802896 -1.073502 0.052219000000000064
v 0.741626 -1.028438 0.43419500000000005
v 0.740022 -0.946633 0.42886100000000005
v 0.698968 -1.096744 0.42613100000000004
v 0.793922 -1.117923 0.04048100000000007
v 0.698968 -1.096744 0.42613100000000004
v 0.837638 -1.049976 0.04447200000000006
v 0.836437 -0.968342 0.03702200000000006
v 0.793922 -1.117923 0.04048100000000007
v 0.717236 -0.986759 0.47456300000000007
v 0.698165 -1.051113 0.4765420000000001
v 0.714314 -1.054723 0.4109360000000001
v 0.7332 -0.990304 0.40973200000000004
v -1.396504 1.224697 0.23920399999999992
v -1.156043 1.177449 0.23920399999999992
v -1.439968 0.999045 0.23920399999999994
v -1.396504 1.224697 -0.000436000000000075
v -1.396504 1.224697 0.23920399999999992
v -1.199633 0.952543 0.23920399999999994
v -1.439968 0.999045 -0.0004360000000000612
v -1.439968 0.999045 0.23920399999999994
v -1.156043 1.177449 0.23920399999999992
v -1.156043 1.177449 -0.0004360000000000721
v -1.199633 0.952543 -0.00043600000000005836
v -1.199633 0.952543 0.23920399999999994
v 0.155734 -0.814773 0.13823100000000005
v 0.155466 -0.814279 -0.003921999999999951
v 0.276206 -0.805071 0.13828800000000005
v 0.275857 -0.804497 -0.00391899999999995
v 0.276206 -0.805071 0.13828800000000005
v 0.276298 -1.502846 0.13850400000000007
v 0.156583 -1.500423 0.13843400000000008
v 0.155734 -0.814773 0.13823100000000005
v 0.156319 -1.498664 -0.003924999999999908
v 0.156583 -1.500423 0.13843400000000008
v 0.276298 -1.502846 0.13850400000000007
v 0.275955 -1.500751 -0.003920999999999908
v 0.888358 1.353217 0.23796599999999993
v 0.703555 1.327044 0.22717299999999993
v 0.888358 1.353217 0.23796599999999993
v 0.93013 1.06422 0.22310799999999995
v 0.888358 1.353217 0.23796599999999993
v 0.93013 1.06422 0.22310799999999995
v 0.745233 1.038085 0.21231199999999995
v 0.93013 1.06422 0.22310799999999995
v 0.745233 1.038085 0.21231199999999995
v 0.703555 1.327044 0.22717299999999993
v 0.745233 1.038085 0.21231199999999995
v 0.703555 1.327044 0.22717299999999993
v -1.705486 0.977275 0.29162299999999997
v -1.703782 0.974798 -5.968916252576208E-17
v -1.705486 0.977275 0.29162299999999997
v -1.59367 1.070571 0.29162299999999997
v -1.591753 1.068749 -6.544200209709673E-17
v -1.59367 1.070571 0.29162299999999997
v -1.609739 0.862777 -5.28298545713978E-17
v -1.609739 0.862777 -5.28298545713978E-17
v -1.611267 0.865544 0.29162299999999997
v 0.969178 -0.868937 0.13686500000000004
v 0.969178 -0.868937 0.13686500000000004
v 0.957414 -1.276475 0.1601420000000001
v 1.042069 -0.884277 0.16025200000000006
v 1.042069 -0.884277 0.16025200000000006
v 0.969178 -0.868937 0.13686500000000004
v 0.885254 -1.258183 0.13665400000000008
v 0.885254 -1.258183 0.13665400000000008
v 0.69794 -1.012058 0.42171300000000006
v 0.69794 -1.012058 0.42171300000000006
v 0.836437 -0.968342 0.03702200000000006
v 0.740022 -0.946633 0.42886100000000005
v 0.740022 -0.946633 0.42886100000000005
v 0.69794 -1.012058 0.42171300000000006
v 0.793659 -1.033529 0.03254700000000006
v 0.793659 -1.033529 0.03254700000000006
vt 0.913742 0.237634
vt 0.867124 0.237634
vt 0.867124 0.275382
vt 0.913742 0.275382
vt 0.913929 0.281124
vt 0.867311 0.281124
vt 0.890024 0.164098
vt 0.867124 0.206053
vt 0.186429 0.020763
vt 0.154006 0.020763
vt 0.154006 0.043239
vt 0.186429 0.043239
vt 0.144353 0.020455
vt 0.144353 0.042931
vt 0.186429 0.054451
vt 0.194034 0.020763
vt 0.452552 0.219309
vt 0.485521 0.219309
vt 0.518284 0.219309
vt 0.548997 0.219309
vt 0.452552 0.166611
vt 0.485521 0.166611
vt 0.518284 0.166611
vt 0.548997 0.166611
vt 0.608261 0.054421
vt 0.608261 0.101034
vt 0.684673 0.101034
vt 0.684673 0.054421
vt 0.528060 0.054421
vt 0.603016 0.054421
vt 0.395128 0.054421
vt 0.473850 0.054421
vt 0.103552 0.040864
vt 0.103789 0.008237
vt 0.073727 0.008237
vt 0.073727 0.040864
vt 0.106078 0.046283
vt 0.106078 0.078435
vt 0.106629 0.078554
vt 0.135568 0.008237
vt 0.854889 0.261503
vt 0.854878 0.234551
vt 0.817339 0.234530
vt 0.817350 0.261524
vt 0.789389 0.229092
vt 0.816727 0.229076
vt 0.719593 0.229131
vt 0.747833 0.229116
vt 0.006440 0.059383
vt 0.006440 0.111242
vt 0.049960 0.059383
vt 0.049961 0.111242
vt 0.099393 0.112509
vt 0.099393 0.059108
vt 0.054788 0.112509
vt 0.054788 0.059108
vt 0.054788 0.059108
vt 0.054788 0.112509
vt 0.054788 0.059108
vt 0.099393 0.059108
vt 0.099393 0.059108
vt 0.099393 0.112509
vt 0.054788 0.112509
vt 0.099393 0.112509
vt 0.006440 0.059383
vt 0.006440 0.111242
vt 0.049960 0.059383
vt 0.049961 0.111242
vt 0.099393 0.112509
vt 0.099393 0.059108
vt 0.054788 0.112509
vt 0.054788 0.059108
vt 0.054788 0.059108
vt 0.054788 0.112509
vt 0.054788 0.059108
vt 0.099393 0.059108
vt 0.099393 0.059108
vt 0.099393 0.112509
vt 0.054788 0.112509
vt 0.099393 0.112509
vt 0.774114 0.006345
vt 0.682336 0.006345
vt 0.682336 0.045058
vt 0.774114 0.045058
vt 0.432119 0.006345
vt 0.312378 0.006345
vt 0.623466 0.006345
vt 0.498930 0.006345
vt 0.774114 0.006345
vt 0.682336 0.006345
vt 0.682336 0.045058
vt 0.774114 0.045058
vt 0.432119 0.006345
vt 0.312378 0.006345
vt 0.623466 0.006345
vt 0.498930 0.006345
vt 0.858378 0.297944
vt 0.858519 0.266850
vt 0.817380 0.266991
vt 0.816777 0.298038
vt 0.789583 0.229291
vt 0.816322 0.229291
vt 0.720183 0.229522
vt 0.747518 0.229522
vt 0.368520 0.225184
vt 0.410102 0.225184
vt 0.410102 0.184169
vt 0.368520 0.184169
vt 0.409576 0.183904
vt 0.367987 0.183904
vt 0.410452 0.183904
vt 0.368520 0.184305
vt 0.920021 0.643713
vt 0.930134 0.646354
vt 0.940131 0.643862
vt 0.929745 0.641139
vt 0.919342 0.591526
vt 0.908324 0.591528
vt 0.897499 0.591528
vt 0.929667 0.591586
vt 0.881910 0.590699
vt 0.881716 0.598616
vt 0.890681 0.591295
vt 0.890681 0.598616
vt 0.881716 0.598616
vt 0.881910 0.590699
vt 0.890681 0.591295
vt 0.890681 0.598616
vt 0.890206 0.590347
vt 0.881598 0.590095
vt 0.890912 0.597381
vt 0.881598 0.597381
vt 0.918035 0.529743
vt 0.907923 0.527102
vt 0.897926 0.529594
vt 0.908452 0.532166
vt 0.918994 0.581627
vt 0.930011 0.581627
vt 0.940836 0.581627
vt 0.908598 0.581686
vt 0.881598 0.590095
vt 0.890206 0.590347
vt 0.890912 0.597381
vt 0.881598 0.597381
vt 0.826756 0.111134
vt 0.888900 0.111134
vt 0.888900 0.157747
vt 0.826756 0.157747
vt 0.757530 0.111134
vt 0.819674 0.111134
vt 0.623638 0.111134
vt 0.689339 0.111134
vt 0.973933 0.286339
vt 0.993544 0.286339
vt 0.993578 0.208470
vt 0.973933 0.208470
vt 0.994242 0.161011
vt 0.994242 0.144612
vt 0.951089 0.286339
vt 0.970734 0.286339
vt 0.867311 0.307651
vt 0.913929 0.307651
vt 0.890024 0.201846
vt 0.866503 0.164098
vt 0.866503 0.201846
vt 0.913742 0.206053
vt 0.867124 0.232580
vt 0.913742 0.232580
vt 0.893348 0.163833
vt 0.893348 0.201581
vt 0.916869 0.201581
vt 0.916869 0.163833
vt 0.154006 0.054451
vt 0.194034 0.043239
vt 0.186429 0.008706
vt 0.154006 0.008706
vt 0.421574 0.166611
vt 0.421574 0.219309
vt 0.490757 0.235212
vt 0.467522 0.225247
vt 0.457896 0.249305
vt 0.481134 0.259271
vt 0.603016 0.101034
vt 0.528060 0.101034
vt 0.395128 0.101034
vt 0.349555 0.054421
vt 0.349555 0.101034
vt 0.473850 0.101034
vt 0.398939 0.054421
vt 0.398939 0.101034
vt 0.523663 0.101034
vt 0.523663 0.054421
vt 0.477953 0.054421
vt 0.477953 0.101034
vt 0.135046 0.078435
vt 0.135046 0.046283
vt 0.135597 0.078554
vt 0.135597 0.046402
vt 0.106629 0.046402
vt 0.106127 0.008119
vt 0.106127 0.041101
vt 0.135568 0.041219
vt 0.135607 0.008319
vt 0.135607 0.041301
vt 0.106166 0.041182
vt 0.106166 0.008200
vt 0.816716 0.205701
vt 0.789378 0.205719
vt 0.747822 0.205743
vt 0.719542 0.205756
vt 0.747833 0.229116
vt 0.789389 0.229092
vt 0.789378 0.205719
vt 0.747822 0.205743
vt 0.816716 0.205701
vt 0.816727 0.229076
vt 0.859185 0.229052
vt 0.859174 0.205677
vt 0.099393 0.112509
vt 0.099393 0.059108
vt 0.054788 0.059108
vt 0.054788 0.112509
vt 0.099393 0.112509
vt 0.099393 0.059108
vt 0.054788 0.059108
vt 0.054788 0.112509
vt 0.312378 0.045058
vt 0.432118 0.045058
vt 0.623466 0.045058
vt 0.678375 0.045058
vt 0.678375 0.006345
vt 0.498930 0.045058
vt 0.618142 0.045058
vt 0.618142 0.006345
vt 0.435329 0.045058
vt 0.495251 0.045058
vt 0.495251 0.006345
vt 0.435329 0.006345
vt 0.312378 0.045058
vt 0.432118 0.045058
vt 0.623466 0.045058
vt 0.678375 0.045058
vt 0.678375 0.006345
vt 0.498930 0.045058
vt 0.618142 0.045058
vt 0.618142 0.006345
vt 0.435329 0.045058
vt 0.495251 0.045058
vt 0.495251 0.006345
vt 0.435329 0.006345
vt 0.816322 0.205930
vt 0.789574 0.205850
vt 0.747509 0.205944
vt 0.720143 0.206161
vt 0.747518 0.229522
vt 0.789583 0.229291
vt 0.789574 0.205850
vt 0.747509 0.205944
vt 0.816322 0.205930
vt 0.816322 0.229291
vt 0.858387 0.229059
vt 0.858387 0.205698
vt 0.367987 0.224901
vt 0.409576 0.224901
vt 0.410452 0.224901
vt 0.368840 0.224901
vt 0.368840 0.183904
vt 0.368520 0.225301
vt 0.410102 0.225301
vt 0.410102 0.184305
vt 0.410183 0.225301
vt 0.368629 0.225301
vt 0.368629 0.184305
vt 0.410183 0.184305
vt 0.908325 0.641060
vt 0.919342 0.641060
vt 0.897499 0.641060
vt 0.941188 0.591528
vt 0.941188 0.641060
vt 0.929987 0.586512
vt 0.919871 0.589142
vt 0.939980 0.589015
vt 0.890977 0.590402
vt 0.881910 0.590699
vt 0.881716 0.598616
vt 0.890977 0.598616
vt 0.890977 0.590402
vt 0.881910 0.590699
vt 0.881716 0.598616
vt 0.890977 0.598616
vt 0.889853 0.598366
vt 0.890206 0.590347
vt 0.881598 0.590095
vt 0.881598 0.598482
vt 0.930011 0.532094
vt 0.918993 0.532094
vt 0.940836 0.532094
vt 0.897148 0.581628
vt 0.897147 0.532094
vt 0.908216 0.586879
vt 0.918328 0.584239
vt 0.898219 0.584386
vt 0.889853 0.598366
vt 0.890206 0.590347
vt 0.881598 0.590095
vt 0.881598 0.598482
vt 0.819674 0.157747
vt 0.757530 0.157747
vt 0.623638 0.157747
vt 0.565343 0.111134
vt 0.565343 0.157747
vt 0.689339 0.157747
vt 0.627240 0.111134
vt 0.627240 0.157747
vt 0.752541 0.157747
vt 0.752541 0.111134
vt 0.694050 0.111134
vt 0.694050 0.157747
vt 0.979827 0.144612
vt 0.979827 0.161011
vt 0.970700 0.208470
vt 0.951089 0.208470
vt 0.947154 0.286339
vt 0.947490 0.208470
vt 0.931010 0.208470
vt 0.930674 0.286339
vt 0.994242 0.180024
vt 0.994242 0.163596
vt 0.979827 0.163596
vt 0.979827 0.180024
vt 0.154006 0.043239
vt 0.154006 0.020763
vt 0.154006 0.043239
vt 0.186429 0.043239
vt 0.154006 0.043239
vt 0.186429 0.043239
vt 0.186429 0.020763
vt 0.186429 0.043239
vt 0.186429 0.020763
vt 0.154006 0.020763
vt 0.186429 0.020763
vt 0.154006 0.020763
vt 0.485521 0.166611
vt 0.485521 0.219309
vt 0.485521 0.166611
vt 0.518284 0.166611
vt 0.518284 0.219309
vt 0.518284 0.166611
vt 0.452552 0.219309
vt 0.452552 0.219309
vt 0.452552 0.166611
vt 0.929745 0.641139
vt 0.929745 0.641139
vt 0.919342 0.591526
vt 0.919342 0.641060
vt 0.919342 0.641060
vt 0.929745 0.641139
vt 0.929667 0.591586
vt 0.929667 0.591586
vt 0.908452 0.532166
vt 0.908452 0.532166
vt 0.918994 0.581627
vt 0.918993 0.532094
vt 0.918993 0.532094
vt 0.908452 0.532166
vt 0.908598 0.581686
vt 0.908598 0.581686
vn 0 6.123233995736766E-17 1
vn 0 6.123233995736766E-17 1
vn 0 6.123233995736766E-17 1
vn 0 6.123233995736766E-17 1
vn -0.006252 0.99998 -6.12311153105685E-17
vn -0.006252 0.99998 -6.12311153105685E-17
vn 0.999981 0.006244 -3.823347306938037E-19
vn 0.006245 -0.999981 6.123117654290848E-17
vn -0.267691 -0.744517 0.611584
vn -0.885765 0.265622 0.380613
vn 0.200897 0.666612 0.717822
vn 0.845002 -0.313198 0.43345
vn -0.569852 0.821513 0.01963499999999995
vn 0.820222 0.567192 0.07435899999999995
vn 0.569725 -0.8216 -0.01964699999999995
vn -0.820388 -0.566953 -0.07435399999999996
vn 0.231098 -0.972881 0.009849000000000059
vn -0.972388 -0.23335 -0.0032049999999999856
vn -0.23119 0.972875 -0.008156000000000059
vn 0.972308 0.233663 0.004421999999999986
vn -0.397278 -0.917678 0.006133000000000057
vn -0.917196 0.398352 -0.008178000000000024
vn 0.396944 0.917835 -0.0037670000000000563
vn 0.917222 -0.39828 0.008740000000000024
vn 0 6.123233995736766E-17 1
vn 0 6.123233995736766E-17 1
vn 0 6.123233995736766E-17 1
vn 0 6.123233995736766E-17 1
vn -0.962292 -0.27202 1.665642111520315E-17
vn -0.962292 -0.27202 1.665642111520315E-17
vn 0.272753 -0.962084 5.891065455554412E-17
vn 0.961381 0.275222 -1.6852487067746645E-17
vn 0 6.123233995736766E-17 1
vn 0 6.123233995736766E-17 1
vn 0 6.123233995736766E-17 1
vn 0 6.123233995736766E-17 1
vn -0.926561 -0.376144 2.30321772809241E-17
vn -0.926561 -0.376144 2.30321772809241E-17
vn -0.376143 0.926562 -5.673555937557849E-17
vn 0.926561 0.376144 -2.30321772809241E-17
vn 0.000735 -4.799999999993877E-05 1
vn 0.000889 -0.00029299999999993876 1
vn 0.000735 -4.799999999993877E-05 1
vn 0.000581 0.00019700000000006122 1
vn 0.99901 -0.018528000000000003 -0.040436
vn 0.999093 -0.021795000000000002 -0.036584
vn -0.998259 0.010947000000000004 0.057955
vn -0.998352 0.012626000000000004 0.055983
vn 0 6.123233995736766E-17 1
vn 0 6.123233995736766E-17 1
vn 0 6.123233995736766E-17 1
vn 0 6.123233995736766E-17 1
vn -0.006672 0.999978 -6.12309928458886E-17
vn -0.006672 0.999978 -6.12309928458886E-17
vn -0.006672 0.999978 -6.12309928458886E-17
vn -0.006672 0.999978 -6.12309928458886E-17
vn -0.999978 -0.006676 4.087871015553865E-19
vn -0.999978 -0.006676 4.087871015553865E-19
vn 0.999978 0.006667 -4.082360104957702E-19
vn 0.999978 0.006667 -4.082360104957702E-19
vn -0.999978 -0.006676 4.087871015553865E-19
vn -0.999978 -0.006676 4.087871015553865E-19
vn 0.999978 0.006667 -4.082360104957702E-19
vn 0.999978 0.006667 -4.082360104957702E-19
vn 0 6.123233995736766E-17 1
vn 0 6.123233995736766E-17 1
vn 0 6.123233995736766E-17 1
vn 0 6.123233995736766E-17 1
vn -0.006672 0.999978 -6.12309928458886E-17
vn -0.006672 0.999978 -6.12309928458886E-17
vn -0.006672 0.999978 -6.12309928458886E-17
vn -0.006672 0.999978 -6.12309928458886E-17
vn -0.999978 -0.006676 4.087871015553865E-19
vn -0.999978 -0.006676 4.087871015553865E-19
vn 0.999978 0.006667 -4.082360104957702E-19
vn 0.999978 0.006667 -4.082360104957702E-19
vn -0.999978 -0.006676 4.087871015553865E-19
vn -0.999978 -0.006676 4.087871015553865E-19
vn 0.999978 0.006667 -4.082360104957702E-19
vn 0.999978 0.006667 -4.082360104957702E-19
vn 0 6.123233995736766E-17 1
vn 0 6.123233995736766E-17 1
vn 0 6.123233995736766E-17 1
vn 0 6.123233995736766E-17 1
vn -0.998934 0.046157 -2.826301115412219E-18
vn -0.998934 0.046157 -2.826301115412219E-18
vn 0.048494 0.998823 -6.116026949323784E-17
vn 0.998842 -0.048101 2.9453367842893417E-18
vn 0 6.123233995736766E-17 1
vn 0 6.123233995736766E-17 1
vn 0 6.123233995736766E-17 1
vn 0 6.123233995736766E-17 1
vn -0.99295 0.118535 -7.258175416846576E-18
vn -0.99295 0.118535 -7.258175416846576E-18
vn 0.125297 0.992119 -6.074976788616364E-17
vn 0.992618 -0.121285 7.426564351729337E-18
vn -5.8E-05 7.900000000006123E-05 1
vn -1.2E-05 6.000000000061232E-06 1
vn -5.8E-05 7.900000000006123E-05 1
vn -0.000104 0.00015100000000006124 1
vn 0.99984 0.013758 -0.011471
vn 0.999973 0.006811 -0.0026550000000000002
vn -0.999733 0.022507 -0.005245000000000001
vn -0.999843 0.017665 0.0011139999999999989
vn -0 6.123233995736766E-17 1
vn -0 6.123233995736766E-17 1
vn -0 6.123233995736766E-17 1
vn -0 6.123233995736766E-17 1
vn 0.979915 0.199417 -1.2210769537278388E-17
vn 0.979915 0.199417 -1.2210769537278388E-17
vn 0.199419 -0.979914 6.000242717698397E-17
vn -0.979914 -0.199419 1.2210892001958302E-17
vn 0.541768 0.740127 -0.39837200000000006
vn 0.168565 0.29874400000000007 0.939329
vn -0.185277 0.896523 0.40238999999999997
vn -0.024094 0.34119499999999997 -0.939684
vn 0.390198 -0.709545 0.586763
vn -0.218567 -0.533277 0.817217
vn -0.669004 -0.4729360000000001 -0.57338
vn -0.056614 -0.57351 -0.81724
vn -0.000989 -0.0005009999999999388 0.999999
vn -0.00083 -0.00040099999999993873 1
vn -0.001149 -0.0005999999999999387 0.999999
vn -0.000989 -0.0005009999999999388 0.999999
vn 0.00083 0.00040100000000006125 1
vn 0.000989 0.0005010000000000613 0.999999
vn 0.001149 0.0006000000000000612 0.999999
vn 0.000989 0.0005010000000000613 0.999999
vn 0.9318 -0.268568 0.24417300000000003
vn 0.9318 -0.268573 0.24416900000000002
vn 0.9318 -0.268563 0.24417800000000003
vn 0.9318 -0.268568 0.24417300000000003
vn -0.480967 0.511611 0.711986
vn 0.822908 -0.13503799999999996 0.551894
vn 0.059958 -0.41731999999999997 0.906779
vn -0.980171 0.177894 0.08728299999999999
vn 0.835822 0.324525 -0.442815
vn 0.86972 -0.344491 -0.353429
vn -0.543712 -0.40808700000000003 -0.733378
vn -0.607422 0.25395599999999996 -0.752692
vn 0.931793 -0.268616 0.24414600000000003
vn 0.931793 -0.268622 0.24414100000000002
vn 0.931792 -0.268627 0.24413600000000002
vn 0.931793 -0.268622 0.24414100000000002
vn 0 6.123233995736766E-17 1
vn 0 6.123233995736766E-17 1
vn 0 6.123233995736766E-17 1
vn 0 6.123233995736766E-17 1
vn 0.192806 0.981237 -6.008343756274758E-17
vn 0.192806 0.981237 -6.008343756274758E-17
vn -0.981951 0.189136 -1.158123985017669E-17
vn -0.189964 -0.981791 6.011736027908395E-17
vn -0.999997 -0.0012419999999999998 0.001861
vn -0.999998 -0.0012369999999999998 0.001883
vn -0.999997 -0.0012419999999999998 0.001861
vn -0.999998 -0.0012459999999999997 0.00184
vn -0.080629 0.996736 0.003919999999999939
vn -0.080275 0.996764 0.004220999999999939
vn 0.999997 0.00013599999999999986 -0.00243
vn 0.999997 0.00012999999999999985 -0.002404
vn -0.006252 0.99998 -6.12311153105685E-17
vn -0.006252 0.99998 -6.12311153105685E-17
vn 0.999981 0.006244 -3.823347306938037E-19
vn 0.999981 0.006244 -3.823347306938037E-19
vn 0.999981 0.006244 -3.823347306938037E-19
vn 0.006245 -0.999981 6.123117654290848E-17
vn 0.006245 -0.999981 6.123117654290848E-17
vn 0.006245 -0.999981 6.123117654290848E-17
vn -0.999981 -0.006247 3.8251842771367577E-19
vn -0.999981 -0.006247 3.8251842771367577E-19
vn -0.999981 -0.006247 3.8251842771367577E-19
vn -0.999981 -0.006247 3.8251842771367577E-19
vn 0.820222 0.567192 0.07435899999999995
vn 0.569725 -0.8216 -0.01964699999999995
vn -0.820388 -0.566953 -0.07435399999999996
vn -0.569852 0.821513 0.01963499999999995
vn 0.917222 -0.39828 0.008740000000000024
vn 0.972308 0.233663 0.004421999999999986
vn 0 6.123233995736766E-17 1
vn 0 6.123233995736766E-17 1
vn 0 6.123233995736766E-17 1
vn 0 6.123233995736766E-17 1
vn -0.962292 -0.27202 1.665642111520315E-17
vn -0.962292 -0.27202 1.665642111520315E-17
vn 0.272753 -0.962084 5.891065455554412E-17
vn 0.272753 -0.962084 5.891065455554412E-17
vn 0.272753 -0.962084 5.891065455554412E-17
vn 0.961381 0.275222 -1.6852487067746645E-17
vn 0.961381 0.275222 -1.6852487067746645E-17
vn 0.961381 0.275222 -1.6852487067746645E-17
vn -0.27172 0.962376 -5.892853439881166E-17
vn -0.27172 0.962376 -5.892853439881166E-17
vn -0.27172 0.962376 -5.892853439881166E-17
vn -0.27172 0.962376 -5.892853439881166E-17
vn -0.926561 -0.376144 2.30321772809241E-17
vn -0.926561 -0.376144 2.30321772809241E-17
vn -0.376143 0.926562 -5.673555937557849E-17
vn -0.376143 0.926562 -5.673555937557849E-17
vn -0.376143 0.926562 -5.673555937557849E-17
vn 0.926561 0.376144 -2.30321772809241E-17
vn 0.926561 0.376144 -2.30321772809241E-17
vn 0.926561 0.376144 -2.30321772809241E-17
vn 0.376143 -0.926562 5.673555937557849E-17
vn 0.376143 -0.926562 5.673555937557849E-17
vn 0.376143 -0.926562 5.673555937557849E-17
vn 0.376143 -0.926562 5.673555937557849E-17
vn 0.99915 -0.025062000000000004 -0.032731
vn 0.999093 -0.021795000000000002 -0.036584
vn -0.998259 0.010947000000000004 0.057955
vn -0.99816 0.009268000000000004 0.059928
vn 0.012198 0.999869 0.010666999999999939
vn 0.013149 0.999874 0.00884799999999994
vn 0.012198 0.999869 0.010666999999999939
vn 0.011246 0.999859 0.012484999999999939
vn -0.009511 -0.999888 -0.01159099999999994
vn -0.011724 -0.999904 -0.007389999999999938
vn -0.009511 -0.999888 -0.01159099999999994
vn -0.007297 -0.999849 -0.015789999999999936
vn 0.006669 -0.999978 6.12309928458886E-17
vn 0.006669 -0.999978 6.12309928458886E-17
vn 0.006669 -0.999978 6.12309928458886E-17
vn 0.006669 -0.999978 6.12309928458886E-17
vn 0.00667 -0.999978 6.12309928458886E-17
vn 0.00667 -0.999978 6.12309928458886E-17
vn 0.00667 -0.999978 6.12309928458886E-17
vn 0.00667 -0.999978 6.12309928458886E-17
vn -0.998934 0.046157 -2.826301115412219E-18
vn -0.998934 0.046157 -2.826301115412219E-18
vn 0.048494 0.998823 -6.116026949323784E-17
vn 0.048494 0.998823 -6.116026949323784E-17
vn 0.048494 0.998823 -6.116026949323784E-17
vn 0.998842 -0.048101 2.9453367842893417E-18
vn 0.998842 -0.048101 2.9453367842893417E-18
vn 0.998842 -0.048101 2.9453367842893417E-18
vn -0.046994 -0.998895 6.116467822171477E-17
vn -0.046994 -0.998895 6.116467822171477E-17
vn -0.046994 -0.998895 6.116467822171477E-17
vn -0.046994 -0.998895 6.116467822171477E-17
vn -0.99295 0.118535 -7.258175416846576E-18
vn -0.99295 0.118535 -7.258175416846576E-18
vn 0.125297 0.992119 -6.074976788616364E-17
vn 0.125297 0.992119 -6.074976788616364E-17
vn 0.125297 0.992119 -6.074976788616364E-17
vn 0.992618 -0.121285 7.426564351729337E-18
vn 0.992618 -0.121285 7.426564351729337E-18
vn 0.992618 -0.121285 7.426564351729337E-18
vn -0.12425 -0.992251 6.075785055503801E-17
vn -0.12425 -0.992251 6.075785055503801E-17
vn -0.12425 -0.992251 6.075785055503801E-17
vn -0.12425 -0.992251 6.075785055503801E-17
vn 0.999981 -0.00013699999999999962 0.006162
vn 0.999973 0.006811 -0.0026550000000000002
vn -0.999733 0.022507 -0.005245000000000001
vn -0.999559 0.027347 -0.011604000000000001
vn 0.014906 0.999876 -0.0049990000000000616
vn 0.021292 0.999613 -0.017929000000000063
vn 0.014906 0.999876 -0.0049990000000000616
vn 0.008518 0.999932 0.00793299999999994
vn 0.018384 -0.999822 -0.0042809999999999385
vn 0.012789 -0.999892 0.007176000000000062
vn 0.018384 -0.999822 -0.0042809999999999385
vn 0.023977 -0.999589 -0.015735999999999938
vn 0.979915 0.199417 -1.2210769537278388E-17
vn 0.979915 0.199417 -1.2210769537278388E-17
vn 0.199419 -0.979914 6.000242717698397E-17
vn 0.199419 -0.979914 6.000242717698397E-17
vn 0.199419 -0.979914 6.000242717698397E-17
vn -0.979914 -0.199419 1.2210892001958302E-17
vn -0.979914 -0.199419 1.2210892001958302E-17
vn -0.979914 -0.199419 1.2210892001958302E-17
vn -0.199418 0.979914 -6.000242717698397E-17
vn -0.199418 0.979914 -6.000242717698397E-17
vn -0.199418 0.979914 -6.000242717698397E-17
vn -0.199418 0.979914 -6.000242717698397E-17
vn 0.168565 0.29874400000000007 0.939329
vn 0.541768 0.740127 -0.39837200000000006
vn -0.185277 0.896523 0.40238999999999997
vn -0.669004 -0.4729360000000001 -0.57338
vn -0.185277 0.896523 0.40238999999999997
vn -0.218567 -0.533277 0.817217
vn 0.390198 -0.709545 0.586763
vn -0.669004 -0.4729360000000001 -0.57338
vn 0.000988 0.0005009999999999388 -0.999999
vn 0.001081 0.0003469999999999387 -0.999999
vn 0.000988 0.0005009999999999388 -0.999999
vn 0.000894 0.0006549999999999387 -0.999999
vn -0.000988 -0.0005010000000000613 -0.999999
vn -0.001081 -0.00034700000000006124 -0.999999
vn -0.000988 -0.0005010000000000613 -0.999999
vn -0.000894 -0.0006550000000000612 -0.999999
vn -0.9318 0.268568 -0.24417300000000003
vn -0.931802 0.268564 -0.24416900000000002
vn -0.9318 0.268568 -0.24417300000000003
vn -0.931797 0.268572 -0.24417800000000003
vn 0.822908 -0.13503799999999996 0.551894
vn -0.480967 0.511611 0.711986
vn 0.059958 -0.41731999999999997 0.906779
vn -0.543712 -0.40808700000000003 -0.733378
vn 0.059958 -0.41731999999999997 0.906779
vn 0.86972 -0.344491 -0.353429
vn 0.835822 0.324525 -0.442815
vn -0.543712 -0.40808700000000003 -0.733378
vn -0.931793 0.268622 -0.24414100000000002
vn -0.93179 0.268626 -0.24414600000000003
vn -0.931793 0.268622 -0.24414100000000002
vn -0.931795 0.268617 -0.24413600000000002
vn 0.192806 0.981237 -6.008343756274758E-17
vn 0.192806 0.981237 -6.008343756274758E-17
vn -0.981951 0.189136 -1.158123985017669E-17
vn -0.981951 0.189136 -1.158123985017669E-17
vn -0.981951 0.189136 -1.158123985017669E-17
vn -0.189964 -0.981791 6.011736027908395E-17
vn -0.189964 -0.981791 6.011736027908395E-17
vn -0.189964 -0.981791 6.011736027908395E-17
vn 0.981732 -0.190271 1.1650738556028302E-17
vn 0.981732 -0.190271 1.1650738556028302E-17
vn 0.981732 -0.190271 1.1650738556028302E-17
vn 0.981732 -0.190271 1.1650738556028302E-17
vn -0.080629 0.996736 0.003919999999999939
vn -0.080984 0.996709 0.003617999999999939
vn 0.999997 0.00013599999999999986 -0.00243
vn 0.999997 0.00014099999999999985 -0.002457
vn -0.000542 0.00030300000000006125 1
vn -0.000581 0.00030900000000006123 1
vn -0.000542 0.00030300000000006125 1
vn -0.000502 0.00029600000000006124 1
vn -0.018834 -0.999732 -0.01348999999999994
vn -0.020223 -0.99972 -0.01231899999999994
vn -0.018834 -0.999732 -0.01348999999999994
vn -0.017445 -0.99974 -0.014659999999999939
vn 0.200897 0.666612 0.717822
vn -0.885765 0.265622 0.380613
vn 0.200897 0.666612 0.717822
vn 0.845002 -0.313198 0.43345
vn 0.200897 0.666612 0.717822
vn 0.845002 -0.313198 0.43345
vn -0.267691 -0.744517 0.611584
vn 0.845002 -0.313198 0.43345
vn -0.267691 -0.744517 0.611584
vn -0.885765 0.265622 0.380613
vn -0.267691 -0.744517 0.611584
vn -0.885765 0.265622 0.380613
vn -0.917196 0.398352 -0.008178000000000024
vn -0.972388 -0.23335 -0.0032049999999999856
vn -0.917196 0.398352 -0.008178000000000024
vn 0.396944 0.917835 -0.0037670000000000563
vn -0.23119 0.972875 -0.008156000000000059
vn 0.396944 0.917835 -0.0037670000000000563
vn 0.231098 -0.972881 0.009849000000000059
vn 0.231098 -0.972881 0.009849000000000059
vn -0.397278 -0.917678 0.006133000000000057
vn -0.024094 0.34119499999999997 -0.939684
vn -0.024094 0.34119499999999997 -0.939684
vn 0.390198 -0.709545 0.586763
vn 0.541768 0.740127 -0.39837200000000006
vn 0.541768 0.740127 -0.39837200000000006
vn -0.024094 0.34119499999999997 -0.939684
vn -0.056614 -0.57351 -0.81724
vn -0.056614 -0.57351 -0.81724
vn -0.980171 0.177894 0.08728299999999999
vn -0.980171 0.177894 0.08728299999999999
vn 0.835822 0.324525 -0.442815
vn -0.480967 0.511611 0.711986
vn -0.480967 0.511611 0.711986
vn -0.980171 0.177894 0.08728299999999999
vn -0.607422 0.25395599999999996 -0.752692
vn -0.607422 0.25395599999999996 -0.752692
g 01
f 327/327/327 330/330/330 329/329/329
f 329/329/329 328/328/328 327/327/327
f 323/323/323 326/326/326 325/325/325
f 325/325/325 324/324/324 323/323/323
f 321/321/321 160/160/160 159/159/159
f 159/159/159 322/322/322 321/321/321
f 319/319/319 158/158/158 157/157/157
f 157/157/157 320/320/320 319/319/319
f 155/155/155 154/154/154 153/153/153
f 153/153/153 156/156/156 155/155/155
f 315/315/315 318/318/318 317/317/317
f 317/317/317 316/316/316 315/315/315
f 312/312/312 314/314/314 313/313/313
f 313/313/313 152/152/152 312/312/312
f 309/309/309 311/311/311 310/310/310
f 310/310/310 151/151/151 309/309/309
f 307/307/307 308/308/308 149/149/149
f 149/149/149 150/150/150 307/307/307
f 147/147/147 148/148/148 145/145/145
f 145/145/145 146/146/146 147/147/147
f 303/303/303 306/306/306 305/305/305
f 305/305/305 304/304/304 303/303/303
f 142/142/142 141/141/141 144/144/144
f 144/144/144 143/143/143 142/142/142
f 300/300/300 302/302/302 367/367/367
f 366/366/366 301/301/301 300/300/300
f 140/140/140 365/365/365 364/364/364
f 363/363/363 362/362/362 140/140/140
f 298/298/298 299/299/299 361/361/361
f 360/360/360 140/140/140 298/298/298
f 138/138/138 295/295/295 297/297/297
f 297/297/297 139/139/139 138/138/138
f 137/137/137 296/296/296 295/295/295
f 295/295/295 138/138/138 137/137/137
f 136/136/136 135/135/135 133/133/133
f 134/134/134 133/133/133 135/135/135
f 291/291/291 294/294/294 293/293/293
f 293/293/293 292/292/292 291/291/291
f 129/129/129 130/130/130 132/132/132
f 132/132/132 131/131/131 129/129/129
f 287/287/287 290/290/290 289/289/289
f 289/289/289 288/288/288 287/287/287
f 126/126/126 125/125/125 128/128/128
f 128/128/128 127/127/127 126/126/126
f 283/283/283 286/286/286 285/285/285
f 285/285/285 284/284/284 283/283/283
f 121/121/121 122/122/122 124/124/124
f 124/124/124 123/123/123 121/121/121
f 280/280/280 282/282/282 359/359/359
f 358/358/358 281/281/281 280/280/280
f 120/120/120 357/357/357 356/356/356
f 355/355/355 354/354/354 120/120/120
f 278/278/278 279/279/279 353/353/353
f 352/352/352 120/120/120 278/278/278
f 118/118/118 275/275/275 277/277/277
f 277/277/277 119/119/119 118/118/118
f 117/117/117 276/276/276 275/275/275
f 275/275/275 118/118/118 117/117/117
f 116/116/116 115/115/115 113/113/113
f 114/114/114 113/113/113 115/115/115
f 271/271/271 274/274/274 273/273/273
f 273/273/273 272/272/272 271/271/271
f 268/268/268 112/112/112 270/270/270
f 270/270/270 269/269/269 268/268/268
f 265/265/265 111/111/111 267/267/267
f 267/267/267 266/266/266 265/265/265
f 263/263/263 110/110/110 109/109/109
f 109/109/109 264/264/264 263/263/263
f 107/107/107 106/106/106 105/105/105
f 105/105/105 108/108/108 107/107/107
f 259/259/259 262/262/262 261/261/261
f 261/261/261 260/260/260 259/259/259
f 255/255/255 258/258/258 257/257/257
f 257/257/257 256/256/256 255/255/255
f 103/103/103 254/254/254 253/253/253
f 253/253/253 104/104/104 103/103/103
f 102/102/102 101/101/101 252/252/252
f 252/252/252 251/251/251 102/102/102
f 99/99/99 98/98/98 97/97/97
f 97/97/97 100/100/100 99/99/99
f 247/247/247 250/250/250 249/249/249
f 249/249/249 248/248/248 247/247/247
f 244/244/244 96/96/96 246/246/246
f 246/246/246 245/245/245 244/244/244
f 241/241/241 95/95/95 243/243/243
f 243/243/243 242/242/242 241/241/241
f 239/239/239 94/94/94 93/93/93
f 93/93/93 240/240/240 239/239/239
f 91/91/91 90/90/90 89/89/89
f 89/89/89 92/92/92 91/91/91
f 235/235/235 238/238/238 237/237/237
f 237/237/237 236/236/236 235/235/235
f 232/232/232 88/88/88 234/234/234
f 234/234/234 233/233/233 232/232/232
f 229/229/229 87/87/87 231/231/231
f 231/231/231 230/230/230 229/229/229
f 227/227/227 86/86/86 85/85/85
f 85/85/85 228/228/228 227/227/227
f 83/83/83 82/82/82 81/81/81
f 81/81/81 84/84/84 83/83/83
f 223/223/223 226/226/226 225/225/225
f 225/225/225 224/224/224 223/223/223
f 79/79/79 75/75/75 76/76/76
f 76/76/76 80/80/80 79/79/79
f 78/78/78 74/74/74 73/73/73
f 73/73/73 77/77/77 78/78/78
f 72/72/72 70/70/70 69/69/69
f 69/69/69 71/71/71 72/72/72
f 68/68/68 66/66/66 65/65/65
f 65/65/65 67/67/67 68/68/68
f 219/219/219 222/222/222 221/221/221
f 221/221/221 220/220/220 219/219/219
f 63/63/63 59/59/59 60/60/60
f 60/60/60 64/64/64 63/63/63
f 62/62/62 58/58/58 57/57/57
f 57/57/57 61/61/61 62/62/62
f 56/56/56 54/54/54 53/53/53
f 53/53/53 55/55/55 56/56/56
f 52/52/52 50/50/50 49/49/49
f 49/49/49 51/51/51 52/52/52
f 215/215/215 218/218/218 217/217/217
f 217/217/217 216/216/216 215/215/215
f 211/211/211 214/214/214 213/213/213
f 213/213/213 212/212/212 211/211/211
f 47/47/47 210/210/210 209/209/209
f 209/209/209 48/48/48 47/47/47
f 46/46/46 45/45/45 208/208/208
f 208/208/208 207/207/207 46/46/46
f 43/43/43 42/42/42 41/41/41
f 41/41/41 44/44/44 43/43/43
f 203/203/203 206/206/206 205/205/205
f 205/205/205 204/204/204 203/203/203
f 200/200/200 40/40/40 202/202/202
f 202/202/202 201/201/201 200/200/200
f 197/197/197 39/39/39 199/199/199
f 199/199/199 198/198/198 197/197/197
f 195/195/195 38/38/38 37/37/37
f 37/37/37 196/196/196 195/195/195
f 33/33/33 36/36/36 35/35/35
f 35/35/35 34/34/34 33/33/33
f 191/191/191 194/194/194 193/193/193
f 193/193/193 192/192/192 191/191/191
f 188/188/188 190/190/190 189/189/189
f 189/189/189 32/32/32 188/188/188
f 185/185/185 187/187/187 186/186/186
f 186/186/186 31/31/31 185/185/185
f 183/183/183 184/184/184 29/29/29
f 29/29/29 30/30/30 183/183/183
f 27/27/27 26/26/26 25/25/25
f 25/25/25 28/28/28 27/27/27
f 179/179/179 182/182/182 181/181/181
f 181/181/181 180/180/180 179/179/179
f 177/177/177 351/351/351 350/350/350
f 349/349/349 178/178/178 177/177/177
f 348/348/348 24/24/24 20/20/20
f 20/20/20 347/347/347 346/346/346
f 345/345/345 23/23/23 19/19/19
f 19/19/19 344/344/344 343/343/343
f 21/21/21 22/22/22 18/18/18
f 18/18/18 17/17/17 21/21/21
f 342/342/342 176/176/176 175/175/175
f 175/175/175 341/341/341 340/340/340
f 339/339/339 16/16/16 174/174/174
f 174/174/174 338/338/338 337/337/337
f 336/336/336 15/15/15 173/173/173
f 173/173/173 335/335/335 334/334/334
f 333/333/333 14/14/14 13/13/13
f 13/13/13 332/332/332 331/331/331
f 11/11/11 10/10/10 9/9/9
f 9/9/9 12/12/12 11/11/11
f 169/169/169 172/172/172 171/171/171
f 171/171/171 170/170/170 169/169/169
f 166/166/166 168/168/168 167/167/167
f 167/167/167 8/8/8 166/166/166
f 163/163/163 165/165/165 164/164/164
f 164/164/164 7/7/7 163/163/163
f 5/5/5 162/162/162 161/161/161
f 161/161/161 6/6/6 5/5/5
f 3/3/3 2/2/2 1/1/1
f 1/1/1 4/4/4 3/3/3
