v 1.565447 1.496419 0.6868789999999999
v 1.509647 1.608459 -0.19189500000000012
v 1.236113 1.621423 -0.19189500000000012
v 1.238961 1.545284 0.8580289999999999
v 0.979196 1.521712 -0.1918950000000001
v 1.013576 1.500913 0.9567039999999999
v 0.563765 1.051522 -0.19189500000000007
v 0.658102 1.037855 0.4541049999999999
v 0.561884 0.527851 -0.19189500000000004
v 0.61714 1.054332 1.04202
v 0.924709 1.460845 1.235274
v 1.027396 1.30976 1.517862
v 0.764402 0.9634230000000001 1.595248
v 0.624575 0.4545620000000001 0.4541049999999999
v 0.870029 0.293652 -0.19189500000000004
v 0.897626 0.26075100000000007 0.454105
v 0.569214 0.48112000000000005 1.101748
v 0.713628 0.3922060000000001 1.882861
v 0.897626 0.2607510000000001 1.882861
v 2.301063 0.283099 -0.272145
v 2.194298 0.254577 0.24726799999999996
v 2.142819 0.02406700000000003 0.443516
v 2.28389 0.04082599999999999 -0.272145
v 2.014327 -0.15314199999999997 0.63228
v 2.194735 -0.22851100000000002 -0.272145
v 1.912032 -0.34628499999999995 0.480294
v 2.080314 -0.4437 -0.272145
v 1.779923 -0.539068 -0.27214499999999997
v 1.779468 -0.39402599999999993 0.480294
v 1.459454 -0.20075799999999996 0.480294
v 1.336063 -0.271006 -0.272145
v 1.336063 -0.271006 -0.272145
v 1.459454 -0.20075799999999996 0.480294
v 1.477528 0.11262900000000005 0.63228
v 1.361131 0.16366199999999997 -0.272145
v 1.728819 0.32833300000000004 0.480294
v 1.709672 0.462844 -0.2721450000000001
v 2.011793 0.415012 -0.272145
v 1.946643 0.293847 0.443516
v 2.194298 0.254577 0.24726799999999996
v 2.301063 0.283099 -0.272145
v 2.142819 0.02406700000000003 0.443516
v 2.194298 0.254577 0.24726799999999996
v 1.946643 0.293847 0.443516
v 2.014327 -0.15314199999999997 0.63228
v 1.728819 0.32833300000000004 0.480294
v 1.477528 0.11262900000000005 0.63228
v 1.459454 -0.20075799999999996 0.480294
v 1.779468 -0.39402599999999993 0.480294
v 1.912032 -0.34628499999999995 0.480294
v 1.509647 1.608459 -0.19189500000000012
v 1.565447 1.496419 0.6868789999999999
v 1.759904 1.340251 0.6244219999999999
v 1.838376 1.401346 -0.1918950000000001
v 2.017988 1.188153 -0.1918950000000001
v 1.923124 1.169828 0.6915459999999999
v 2.059859 0.949857 -0.19189500000000007
v 1.970861 0.951541 0.8580289999999999
v 1.920819 0.7441040000000001 0.956704
v 1.92589 0.570827 -0.19189500000000004
v 1.531457 0.39985600000000004 0.454105
v 1.574099 0.313458 -0.19189500000000004
v 1.835553 0.6223310000000001 1.336175
v 1.531457 0.3998560000000001 1.556613
v 1.227071 0.17399400000000004 0.454105
v 1.251144 0.193289 -0.191895
v 0.870029 0.293652 -0.19189500000000004
v 0.897626 0.26075100000000007 0.454105
v 1.652881 0.2821640000000001 0.984666
v 1.291605 0.06942400000000007 1.032957
v 0.897626 0.2607510000000001 1.882861
v 1.227071 0.17399400000000012 1.882861
v 2.355683 -1.12419 -0.19189499999999995
v 2.229502 -0.511412 -0.19189499999999998
v 2.204882 -0.52539 0.21155500000000002
v 2.341399 -1.214915 0.22909100000000007
v 2.134403 -0.598238 0.552722
v 2.231074 -1.148209 0.6316160000000001
v 2.002518 -1.743154 -0.1918949999999999
v 2.164361 -1.700004 0.7708400000000001
v 2.164361 -1.700004 0.7708400000000001
v 2.164361 -1.700004 0.7708400000000001
v 1.186099 -2.188648 0.5527220000000002
v 1.186099 -2.188648 0.5527220000000002
v 1.256051 -2.170755 -0.19189499999999987
v 1.923382 -1.687476 1.141994
v 1.27303 -2.060019 1.1419940000000002
v 0.670096 -1.81197 1.141994
v 0.583166 -1.940598 0.5527220000000002
v 0.564011 -1.886046 -0.1918949999999999
v 2.204882 -0.52539 0.21155500000000002
v 2.229502 -0.511412 -0.19189499999999998
v 1.65294 -0.441369 -0.19189499999999998
v 1.56517 -0.452557 0.23558900000000002
v 2.134403 -0.598238 0.552722
v 1.631186 -0.550293 0.631616
v 1.27732 -0.781529 -0.19189499999999995
v 1.362862 -0.647873 0.77084
v 0.725146 -1.029868 -0.19189499999999995
v 0.773537 -0.939496 0.5527220000000002
v 1.29156 -0.8496689999999999 1.340853
v 0.810483 -1.066033 1.340853
v 0.413998 -1.098634 0.5527220000000002
v 0.369708 -1.139043 -0.19189499999999993
v 0.500811 -1.16115 1.096282
v 0.357598 -1.47898 -0.19189499999999993
v 0.361041 -1.474157 0.5527220000000002
v 0.564011 -1.886046 -0.1918949999999999
v 0.490261 -1.457317 1.141994
v 0.583166 -1.940598 0.5527220000000002
v 0.670096 -1.81197 1.141994
v -0.197631 1.764836 1.320311
v -0.274763 1.3437520000000003 2.600708
v 0.183705 1.0588090000000001 2.600708
v 0.400546 1.393062 1.320311
v -0.197631 1.764836 -0.19189500000000012
v 0.377191 0.7416390000000002 2.600708
v 0.400546 1.393062 -0.1918950000000001
v 0.652993 0.9792420000000001 1.320311
v 0.245202 0.26735600000000015 2.600708
v 0.652993 0.979242 -0.19189500000000007
v 0.480782 0.36043000000000003 1.320311
v -0.188277 -0.03067499999999983 2.774291
v 0.480782 0.36043 -0.19189500000000004
v -0.084791 0.09664600000000008 1.320311
v -0.084791 0.09664599999999998 -0.191895
v -0.084791 0.09664600000000008 1.320311
v -0.188277 -0.03067499999999983 2.774291
v -0.277341 -0.37468399999999985 2.774291
v -0.200995 -0.6011309999999999 1.320311
v -0.084791 0.09664599999999998 -0.191895
v 0.130095 -0.8744199999999999 2.600708
v -0.200995 -0.601131 -0.19189499999999998
v 0.330599 -1.12928 1.320311
v 0.199068 -1.1981819999999999 2.600708
v 0.330599 -1.12928 -0.19189499999999995
v -0.014739 -1.4994769999999997 2.600708
v 0.160209 -1.514849 1.320311
v 0.160209 -1.514849 -0.19189499999999993
v 0.14163 -1.94481 1.3203110000000002
v 0.14163 -1.94481 -0.1918949999999999
v 0.14163 -1.94481 1.3203110000000002
v -0.014739 -1.4994769999999997 2.600708
v -0.591838 -1.4593459999999998 2.600708
v -0.611329 -1.892451 1.3203110000000002
v 0.14163 -1.94481 -0.1918949999999999
v -1.160967 -1.1899169999999997 2.600708
v -0.611329 -1.892451 -0.1918949999999999
v -1.353888 -1.540919 1.320311
v -1.562526 -0.9459229999999998 2.600708
v -1.353888 -1.540919 -0.19189499999999993
v -1.838339 -1.155354 1.320311
v -1.762673 -0.5516769999999998 3.018901
v -1.838339 -1.155354 -0.19189499999999993
v -2.213628 -0.30111599999999994 1.320311
v -2.065307 -0.296503 -0.19189499999999998
v -1.99685 0.658681 -0.19189500000000004
v -2.143406 0.6216410000000001 1.320311
v -1.682057 0.5993190000000003 3.018901
v -0.993708 1.1606860000000003 2.600708
v -1.135661 1.525985 1.320311
v -0.274763 1.3437520000000003 2.600708
v -1.135661 1.525985 -0.1918950000000001
v -0.197631 1.764836 1.320311
v -0.197631 1.764836 -0.19189500000000012
v -0.197949 -0.27051899999999995 0.823281
v -0.182642 -0.264994 -0.19189499999999998
v -0.134869 -0.719272 -0.19189499999999995
v -0.151646 -0.710816 0.823281
v -0.334318 -0.2326179999999999 1.568157
v 0.424539 -0.997471 -0.19189499999999995
v -0.219184 -0.7964619999999999 1.696824
v -0.11159 -0.2812429999999999 2.173756
v -0.071342 -0.6639629999999999 2.11853
v 0.399948 -0.8983409999999998 2.11853
v 0.390545 -0.980453 0.8232810000000002
v 0.867713 -0.892377 -0.19189499999999995
v 0.484548 -1.142711 1.615649
v 0.773314 -0.8097999999999999 2.015505
v 0.820079 -0.878593 0.823281
v 0.884038 -1.041836 1.63227
v 1.235261 -0.5009189999999999 1.902037
v 1.270435 -0.46414599999999995 0.823281
v 1.332369 -0.464769 -0.19189499999999998
v 1.380929 -0.144823 -0.191895
v 1.32015 -0.14858299999999994 0.823281
v 1.394405 -0.12727899999999992 1.538963
v 1.221681 -0.1612829999999999 2.027803
v 1.386403 -0.5522159999999999 1.382625
v -0.334318 -0.2326179999999999 1.568157
v -0.11159 -0.2812429999999999 2.173756
v 0.042757 0.09349300000000013 2.11853
v -0.070559 0.2994440000000001 1.622266
v 0.549457 0.1783900000000001 1.991605
v -0.020382 0.16059200000000007 0.823281
v -0.197949 -0.27051899999999995 0.823281
v -0.182642 -0.264994 -0.19189499999999998
v 0.000563 0.179806 -0.191895
v 0.532951 0.4097320000000001 1.602442
v 1.053215 0.1261660000000001 1.964688
v 0.562546 0.25826000000000005 0.823281
v 0.602001 0.280577 -0.19189500000000004
v 1.132302 0.20528000000000007 1.430518
v 1.221681 -0.1612829999999999 2.027803
v 1.394405 -0.12727899999999992 1.538963
v 1.12301 0.09558000000000005 0.823281
v 1.180262 0.11273099999999998 -0.191895
v 1.32015 -0.14858299999999994 0.823281
v 1.380929 -0.144823 -0.191895
v 0.500811 -1.16115 1.096282
v 0.490261 -1.457317 1.141994
v 0.810483 -1.066033 1.340853
v 1.126029 -1.611053 1.255683
v 1.29156 -0.8496689999999999 1.340853
v 0.883131 -1.747335 1.141994
v 0.670096 -1.81197 1.141994
v 1.27303 -2.060019 1.1419940000000002
v 1.189029 -1.803468 1.281966
v 1.923382 -1.687476 1.141994
v 1.743507 -1.271511 1.25307
v 1.362862 -0.647873 0.77084
v 1.833262 -1.47907 1.272652
v 1.846325 -1.158584 0.7708400000000001
v 2.164361 -1.700004 0.7708400000000001
v 2.231074 -1.148209 0.6316160000000001
v 1.962251 -0.834453 0.690206
v 1.631186 -0.550293 0.631616
v 2.134403 -0.598238 0.552722
v 0.897626 0.2607510000000001 1.882861
v 1.227071 0.17399400000000012 1.882861
v 0.952993 0.3445580000000001 1.882861
v 0.713628 0.3922060000000001 1.882861
v 1.531457 0.3998560000000001 1.556613
v 1.130113 0.6930440000000001 1.550183
v 0.764402 0.9634230000000001 1.595248
v 1.387585 0.9960200000000001 1.398615
v 1.835553 0.6223310000000001 1.336175
v 1.027396 1.30976 1.517862
v 1.920819 0.7441040000000001 0.956704
v 1.475466 1.115611 0.9567039999999999
v 0.924709 1.460845 1.235274
v 1.013576 1.500913 0.9567039999999999
v 1.970861 0.951541 0.8580289999999999
v 1.238961 1.545284 0.8580289999999999
v 1.640965 1.244426 0.8580289999999999
v 1.923124 1.169828 0.6915459999999999
v 1.565447 1.496419 0.6868789999999999
v 1.759904 1.340251 0.6244219999999999
v -0.16931 -1.2525549999999999 2.791909
v -0.014739 -1.4994769999999997 2.600708
v 0.199068 -1.1981819999999999 2.600708
v 0.130095 -0.8744199999999999 2.600708
v -0.591838 -1.4593459999999998 2.600708
v -0.225609 -1.1626189999999998 2.791909
v -0.30875 -0.5787789999999998 2.833386
v -0.277341 -0.37468399999999985 2.774291
v -0.738568 -0.8836939999999998 3.139931
v -1.000052 -1.0691909999999998 3.018902
v -1.160967 -1.1899169999999997 2.600708
v -1.349736 -0.8694719999999998 3.018902
v -1.562526 -0.9459229999999998 2.600708
v -1.762673 -0.5516769999999998 3.018901
v -0.953846 -0.7589209999999997 3.13955
v -0.917973 -0.49646599999999985 3.114963
v -0.872229 -0.3110569999999998 3.019273
v -1.682057 0.5993190000000003 3.018901
v -0.825261 0.03157000000000019 3.008393
v -0.188277 -0.03067499999999983 2.774291
v -0.919357 0.31837600000000016 3.090941
v -0.178766 0.20064400000000016 2.845568
v 0.245202 0.26735600000000015 2.600708
v -0.559687 0.6457210000000002 3.117987
v -0.892781 1.0349140000000001 3.018902
v -0.993708 1.1606860000000003 2.600708
v -0.17781 0.6618460000000003 3.05822
v -0.176976 1.0645040000000001 2.906826
v -0.274763 1.3437520000000003 2.600708
v 0.183705 1.0588090000000001 2.600708
v 0.211335 0.7032140000000002 2.780655
v 0.377191 0.7416390000000002 2.600708
v -0.11159 -0.2812429999999999 2.173756
v -0.071342 -0.6639629999999999 2.11853
v 0.213198 -0.37978099999999987 2.11853
v 0.042757 0.09349300000000013 2.11853
v 0.399948 -0.8983409999999998 2.11853
v 0.549457 0.1783900000000001 1.991605
v 0.65582 -0.29113699999999987 2.11853
v 0.773314 -0.8097999999999999 2.015505
v 1.053215 0.1261660000000001 1.964688
v 1.235261 -0.5009189999999999 1.902037
v 1.221681 -0.1612829999999999 2.027803
vt 0.286102 0.230229
vt 0.409024 0.234165
vt 0.412970 0.210756
vt 0.281853 0.210657
vt 0.418746 0.192075
vt 0.274896 0.190585
vt 0.426299 0.125762
vt 0.343528 0.126745
vt 0.423314 0.064510
vt 0.271502 0.127550
vt 0.242209 0.183471
vt 0.203642 0.168623
vt 0.198516 0.120954
vt 0.340981 0.057659
vt 0.415785 0.015042
vt 0.333106 0.015222
vt 0.250906 0.059249
vt 0.160687 0.052808
vt 0.155376 0.015222
vt 0.011014 0.070055
vt 0.020773 0.030928
vt 0.039331 0.020597
vt 0.027774 0.074875
vt 0.060207 0.008278
vt 0.051613 0.078957
vt 0.080154 0.021564
vt 0.073871 0.081432
vt 0.102295 0.077981
vt 0.093059 0.020160
vt 0.122988 0.009373
vt 0.134448 0.062922
vt 0.793979 0.272958
vt 0.782620 0.355115
vt 0.722547 0.365739
vt 0.729876 0.263923
vt 0.662594 0.350545
vt 0.648718 0.265427
vt 0.601176 0.275783
vt 0.627969 0.354072
vt 0.566255 0.343996
vt 0.561099 0.287031
vt 0.361443 0.353419
vt 0.334658 0.378708
vt 0.314857 0.340184
vt 0.377115 0.320487
vt 0.298635 0.310729
vt 0.313497 0.260105
vt 0.356251 0.246540
vt 0.398885 0.280756
vt 0.399272 0.301467
vt 0.023145 0.097183
vt 0.131564 0.108310
vt 0.126840 0.139885
vt 0.020224 0.130200
vt 0.015682 0.157055
vt 0.133969 0.167382
vt 0.013932 0.181158
vt 0.155578 0.189737
vt 0.167838 0.214223
vt 0.012360 0.230075
vt 0.100483 0.284931
vt 0.012868 0.288897
vt 0.218584 0.234084
vt 0.248647 0.284931
vt 0.100902 0.336125
vt 0.014063 0.331942
vt 0.018784 0.377788
vt 0.102541 0.377467
vt 0.170312 0.284115
vt 0.177646 0.339657
vt 0.295444 0.382480
vt 0.292910 0.336125
vt 0.779392 0.668324
vt 0.711371 0.671612
vt 0.702619 0.603651
vt 0.787436 0.616770
vt 0.699489 0.558169
vt 0.790554 0.562075
vt 0.853387 0.673786
vt 0.837971 0.554810
vt 0.837971 0.554810
vt 0.837971 0.554810
vt 0.948674 0.571306
vt 0.948674 0.571306
vt 0.942069 0.666519
vt 0.855022 0.502364
vt 0.932285 0.496033
vt 0.982220 0.486199
vt 0.989035 0.561472
vt 0.985314 0.667014
vt 0.678839 0.614138
vt 0.679488 0.672514
vt 0.622817 0.675572
vt 0.615474 0.622945
vt 0.678786 0.572714
vt 0.613660 0.570207
vt 0.571188 0.675691
vt 0.586830 0.555340
vt 0.512692 0.680357
vt 0.522560 0.587333
vt 0.567544 0.481081
vt 0.516579 0.485146
vt 0.484648 0.590417
vt 0.478540 0.684264
vt 0.486825 0.519371
vt 0.442799 0.678400
vt 0.447709 0.584591
vt 0.413376 0.670302
vt 0.459085 0.508502
vt 0.413738 0.570050
vt 0.428056 0.495797
vt 0.575558 0.817247
vt 0.579851 0.704989
vt 0.634176 0.704252
vt 0.622617 0.828745
vt 0.572880 0.960467
vt 0.681670 0.707687
vt 0.622617 0.970055
vt 0.661872 0.833227
vt 0.723917 0.704348
vt 0.661872 0.974537
vt 0.716992 0.828870
vt 0.764249 0.703806
vt 0.716992 0.970180
vt 0.758707 0.826661
vt 0.757368 0.973701
vt 0.766566 0.837704
vt 0.780383 0.704451
vt 0.817910 0.703977
vt 0.842752 0.837074
vt 0.766566 0.975734
vt 0.872979 0.721889
vt 0.842752 0.975104
vt 0.901056 0.839778
vt 0.908455 0.722228
vt 0.901056 0.977808
vt 0.941182 0.721115
vt 0.943044 0.838884
vt 0.943044 0.976914
vt 0.990043 0.838768
vt 0.990043 0.976798
vt 0.020972 0.828838
vt 0.054660 0.711980
vt 0.112606 0.712459
vt 0.082380 0.834234
vt 0.012125 0.960887
vt 0.161600 0.725932
vt 0.069110 0.961467
vt 0.133035 0.846996
vt 0.201673 0.734866
vt 0.133035 0.979045
vt 0.190694 0.856808
vt 0.249489 0.699911
vt 0.190694 0.988857
vt 0.278827 0.858518
vt 0.286970 0.986263
vt 0.381936 0.974171
vt 0.375943 0.847924
vt 0.367311 0.693823
vt 0.461694 0.699823
vt 0.471184 0.839523
vt 0.517881 0.705880
vt 0.468972 0.973980
vt 0.536025 0.835753
vt 0.544228 0.974788
vt 0.750421 0.139168
vt 0.748371 0.237853
vt 0.710248 0.245019
vt 0.712075 0.148534
vt 0.758217 0.067442
vt 0.649218 0.259669
vt 0.722892 0.068392
vt 0.740067 0.009800
vt 0.700804 0.024993
vt 0.649387 0.037335
vt 0.652923 0.162733
vt 0.591454 0.259623
vt 0.646009 0.094368
vt 0.600722 0.047043
vt 0.596937 0.162689
vt 0.597015 0.098153
vt 0.534744 0.050594
vt 0.529337 0.151629
vt 0.521708 0.248212
vt 0.489008 0.248710
vt 0.485600 0.154397
vt 0.488016 0.093774
vt 0.496500 0.040071
vt 0.532206 0.102837
vt 0.779885 0.070045
vt 0.787248 0.010071
vt 0.830993 0.016433
vt 0.817460 0.075998
vt 0.880571 0.033936
vt 0.823971 0.160759
vt 0.781938 0.150543
vt 0.779136 0.261601
vt 0.825849 0.273234
vt 0.876411 0.082592
vt 0.931347 0.036972
vt 0.881008 0.164795
vt 0.884697 0.277398
vt 0.938370 0.098068
vt 0.979431 0.025396
vt 0.980058 0.078502
vt 0.938636 0.162253
vt 0.944156 0.274776
vt 0.979718 0.163032
vt 0.984027 0.268878
vt 0.804658 0.364244
vt 0.825433 0.406552
vt 0.768142 0.374076
vt 0.762581 0.477543
vt 0.697793 0.379363
vt 0.796979 0.478810
vt 0.826195 0.471931
vt 0.770286 0.554141
vt 0.767731 0.510371
vt 0.670210 0.549635
vt 0.668379 0.475328
vt 0.649540 0.356028
vt 0.671140 0.512406
vt 0.627256 0.456321
vt 0.630879 0.566345
vt 0.587736 0.494659
vt 0.594151 0.428429
vt 0.610547 0.363481
vt 0.550224 0.415865
vt 0.481380 0.260721
vt 0.523416 0.278023
vt 0.479130 0.271472
vt 0.450045 0.257675
vt 0.533283 0.338277
vt 0.464323 0.332538
vt 0.401180 0.324463
vt 0.462073 0.384851
vt 0.543441 0.391795
vt 0.395392 0.376120
vt 0.540667 0.430886
vt 0.459773 0.427763
vt 0.370546 0.397829
vt 0.375876 0.424525
vt 0.526166 0.457112
vt 0.394815 0.450641
vt 0.464569 0.456209
vt 0.500600 0.481145
vt 0.432960 0.481172
vt 0.467708 0.486821
vt 0.043169 0.468118
vt 0.008069 0.443669
vt 0.050446 0.414990
vt 0.095113 0.425039
vt 0.011950 0.522696
vt 0.055469 0.475990
vt 0.136426 0.489086
vt 0.164390 0.484300
vt 0.095052 0.551855
vt 0.067741 0.585482
vt 0.027054 0.612290
vt 0.094400 0.633699
vt 0.063439 0.669559
vt 0.137239 0.690794
vt 0.111714 0.581537
vt 0.148019 0.576763
vt 0.173181 0.569437
vt 0.296982 0.681947
vt 0.220724 0.563500
vt 0.212323 0.472767
vt 0.260771 0.578140
vt 0.244904 0.472962
vt 0.253679 0.411456
vt 0.307372 0.529957
vt 0.359647 0.574795
vt 0.398189 0.584511
vt 0.310302 0.476858
vt 0.365052 0.475262
vt 0.401335 0.484631
vt 0.363182 0.421369
vt 0.315236 0.419583
vt 0.319791 0.394298
vt 0.880062 0.297620
vt 0.941065 0.289239
vt 0.906922 0.338880
vt 0.827916 0.334455
vt 0.993489 0.343730
vt 0.833283 0.409119
vt 0.908435 0.402201
vt 0.993508 0.399980
vt 0.858897 0.475763
vt 0.962605 0.477105
vt 0.908582 0.485824
vn 0.415875 0.856053 0.30695399999999995
vn 0.420711 0.901424 0.10216399999999995
vn -0.044758 0.994941 0.08994299999999994
vn 0.109265 0.869399 0.4818779999999999
vn -0.44844 0.892743 0.043718999999999945
vn -0.469171 0.862076 0.19158099999999995
vn -0.905262 0.410457 0.10965899999999998
vn -0.961908 0.2687 0.05034099999999998
vn -0.9586 -0.273345 0.07980700000000002
vn -0.916979 0.386531 0.09871399999999997
vn -0.119102 0.944506 0.30614199999999997
vn 0.011879 0.759102 0.650863
vn -0.480278 0.3707150000000001 0.794924
vn -0.903918 -0.427087 -0.022994999999999974
vn -0.430768 -0.901901 -0.031832999999999945
vn -0.44929 -0.892645 -0.036370999999999945
vn -0.907326 -0.413883 0.07390200000000002
vn -0.41963 0.09834400000000006 0.902352
vn -0.425152 -0.814731 0.39428300000000005
vn 0.928741 0.308583 0.20546999999999999
vn 0.671457 0.659529 0.33788599999999996
vn 0.904951 0.03686300000000003 0.423917
vn 0.939903 -0.283404 0.19043400000000002
vn 0.542392 -0.26138999999999996 0.798428
vn 0.864136 -0.450723 0.22387100000000001
vn 0.549163 -0.772777 0.31817600000000007
vn 0.618801 -0.749441 0.23542100000000005
vn -0.107543 -0.97588 0.18997900000000006
vn -0.044377 -0.841453 0.538506
vn -0.6087 -0.608284 0.509386
vn -0.936718 -0.304855 0.17211500000000002
vn -0.936718 -0.304855 0.17211500000000002
vn -0.6087 -0.608284 0.509386
vn -0.782723 0.24469800000000003 0.572248
vn -0.805487 0.574555 0.14517899999999997
vn -0.121729 0.885423 0.44856199999999996
vn -0.269514 0.946757 0.17610599999999996
vn 0.262733 0.950054 0.16842899999999994
vn 0.402853 0.718144 0.567432
vn 0.671457 0.659529 0.33788599999999996
vn 0.928741 0.308583 0.20546999999999999
vn 0.904951 0.03686300000000003 0.423917
vn 0.671457 0.659529 0.33788599999999996
vn 0.402853 0.718144 0.567432
vn 0.542392 -0.26138999999999996 0.798428
vn -0.121729 0.885423 0.44856199999999996
vn -0.782723 0.24469800000000003 0.572248
vn -0.6087 -0.608284 0.509386
vn -0.044377 -0.841453 0.538506
vn 0.549163 -0.772777 0.31817600000000007
vn 0.420711 0.901424 0.10216399999999995
vn 0.415875 0.856053 0.30695399999999995
vn 0.645484 0.723912 0.24351999999999993
vn 0.65199 0.748875 0.11872299999999995
vn 0.843709 0.525304 0.11049799999999997
vn 0.800482 0.519332 0.29920399999999997
vn 0.996179 -0.022236999999999996 0.084461
vn 0.757426 0.30487500000000006 0.577371
vn 0.945464 -0.22937199999999996 0.23127000000000003
vn 0.726427 -0.677854 0.11321500000000004
vn 0.64672 -0.761917 -0.03515599999999995
vn 0.513028 -0.853353 0.09268700000000006
vn 0.842517 0.053745000000000036 0.535982
vn 0.714794 -0.26393799999999995 0.647616
vn 0.189027 -0.97758 -0.09276899999999995
vn 0.049481 -0.998383 -0.027974999999999937
vn -0.430768 -0.901901 -0.031832999999999945
vn -0.44929 -0.892645 -0.036370999999999945
vn 0.686299 -0.725317 -0.05393099999999996
vn 0.136536 -0.990162 0.03062600000000006
vn -0.425152 -0.814731 0.39428300000000005
vn 0.340496 -0.54055 0.76933
vn 0.999143 -0.034438 0.022966000000000004
vn 0.675384 0.734448 0.06666099999999996
vn 0.67012 0.728233 0.14358199999999993
vn 0.985888 -0.16122 0.04508800000000001
vn 0.581991 0.619379 0.52693
vn 0.705342 0.14391300000000007 0.694105
vn 0.702979 -0.709013 -0.05586799999999996
vn 0.784909 -0.529878 0.32116400000000006
vn 0.649982 -0.749643 -0.12473599999999996
vn 0.649982 -0.749643 -0.12473599999999996
vn 0.112855 -0.989669 0.08842900000000005
vn 0.112855 -0.989669 0.08842900000000005
vn -0.096148 -0.994822 -0.03293799999999994
vn 0.697493 -0.22542699999999993 0.68021
vn 0.073523 -0.760985 0.64459
vn -0.445718 -0.618639 0.647009
vn -0.680486 -0.726048 0.09896400000000004
vn -0.769318 -0.638525 -0.020887999999999962
vn 0.67012 0.728233 0.14358199999999993
vn 0.675384 0.734448 0.06666099999999996
vn -0.155912 0.987726 -0.00942500000000006
vn -0.229328 0.966881 0.11202499999999994
vn 0.581991 0.619379 0.52693
vn 0.089549 0.80151 0.591238
vn -0.612207 0.786637 -0.08003200000000005
vn -0.083937 0.927899 0.36325999999999997
vn -0.381246 0.921592 -0.07293400000000005
vn -0.42898 0.899875 0.07875499999999995
vn -0.041766 0.687921 0.724583
vn -0.462007 0.600686 0.652476
vn -0.745042 0.662904 0.07396099999999996
vn -0.793091 0.60894 0.014126999999999964
vn -0.860991 0.361765 0.357521
vn -0.995124 -0.095784 0.02353600000000001
vn -0.980491 -0.167634 0.10265000000000002
vn -0.769318 -0.638525 -0.020887999999999962
vn -0.694696 -0.22179599999999994 0.684254
vn -0.680486 -0.726048 0.09896400000000004
vn -0.445718 -0.618639 0.647009
vn 0.145625 0.976359 0.15973599999999993
vn 0.067179 0.891986 0.44704299999999997
vn 0.607581 0.599524 0.520976
vn 0.701427 0.69822 0.14314199999999994
vn 0.290196 0.956967 -5.859732867198225E-17
vn 0.879411 0.20414500000000002 0.430071
vn 0.763464 0.64585 -3.9546906761465905E-17
vn 0.985145 0.135598 0.10536899999999999
vn 0.769063 -0.3929599999999999 0.504108
vn 0.999985 -0.005547 3.396557897435184E-19
vn 0.78163 -0.623122 0.027811000000000037
vn 0.619013 -0.518965 0.589489
vn 0.656075 -0.754695 4.621174080412559E-17
vn 0.786819 -0.617025 0.013989000000000038
vn 0.888859 -0.458182 2.805555598634663E-17
vn 0.786819 -0.617025 0.013989000000000038
vn 0.619013 -0.518965 0.589489
vn 0.760709 0.12274900000000004 0.637381
vn 0.956222 0.292632 -0.0025800000000000176
vn 0.888859 -0.458182 2.805555598634663E-17
vn 0.74472 0.36851800000000007 0.556405
vn 0.885912 0.463853 -2.840280458624486E-17
vn 0.985364 0.164443 0.044911999999999994
vn 0.834144 -0.18845499999999998 0.518352
vn 0.999238 -0.039041 2.390571784275591E-18
vn 0.661911 -0.608767 0.43735300000000005
vn 0.963007 -0.264063 0.053738000000000015
vn 0.986114 -0.166073 1.0169038393739919E-17
vn 0.673657 -0.715988 0.18316200000000005
vn 0.388853 -0.9213 5.641335480272282E-17
vn 0.673657 -0.715988 0.18316200000000005
vn 0.661911 -0.608767 0.43735300000000005
vn -0.143639 -0.791486 0.594068
vn -0.2481 -0.956228 0.15516000000000005
vn 0.388853 -0.9213 5.641335480272282E-17
vn -0.440784 -0.827993 0.3466080000000001
vn -0.313193 -0.949689 5.815167970177254E-17
vn -0.505428 -0.851078 0.14216000000000006
vn -0.575682 -0.750505 0.32454900000000003
vn -0.561074 -0.827766 5.06860491171504E-17
vn -0.753753 -0.646417 0.11832900000000005
vn -0.690708 -0.20576399999999995 0.693242
vn -0.866151 -0.498699 -0.032909999999999974
vn -0.989177 -0.14428 0.02670600000000001
vn -0.990897 -0.092853 -0.097473
vn -0.901479 0.4281 -0.06376400000000003
vn -0.877021 0.456444 0.14997499999999997
vn -0.412913 0.28850900000000007 0.863866
vn -0.363538 0.861838 0.3536599999999999
vn -0.47759 0.867494 0.13914899999999994
vn 0.067179 0.891986 0.44704299999999997
vn -0.414335 0.910124 -5.572902217135929E-17
vn 0.145625 0.976359 0.15973599999999993
vn 0.290196 0.956967 -5.859732867198225E-17
vn -0.992377 0.091298 -0.08278
vn -0.974238 0.225121 -0.013464000000000014
vn -0.91056 -0.413213 -0.011605999999999974
vn -0.760857 -0.643161 -0.08625799999999996
vn -0.981606 0.179583 0.06480299999999999
vn -0.232277 -0.972612 0.00852600000000006
vn -0.77854 -0.582872 0.23267000000000002
vn -0.675046 0.023949000000000047 0.737387
vn -0.41975 -0.36944199999999994 0.829049
vn -0.050689 -0.578886 0.813832
vn -0.043128 -0.997026 -0.06387199999999994
vn 0.468808 -0.882646 0.03398100000000005
vn -0.052162 -0.993687 0.09932300000000005
vn 0.364481 -0.572459 0.734469
vn 0.424741 -0.897816 -0.11628499999999994
vn 0.553588 -0.824105 0.11996800000000006
vn 0.720994 -0.36014699999999994 0.591999
vn 0.888641 -0.453019 -0.07135199999999997
vn 0.881499 -0.469081 0.05406600000000003
vn 0.964943 0.255352 0.060660999999999986
vn 0.965703 0.258508 -0.02433400000000002
vn 0.954192 0.287276 0.08360599999999999
vn 0.664596 0.12983300000000006 0.735837
vn 0.915339 -0.401291 0.033461000000000025
vn -0.981606 0.179583 0.06480299999999999
vn -0.675046 0.023949000000000047 0.737387
vn -0.397527 0.512705 0.76099
vn -0.501394 0.83818 0.21461199999999994
vn 0.028492 0.62985 0.776194
vn -0.673584 0.73038 -0.11326700000000005
vn -0.992377 0.091298 -0.08278
vn -0.974238 0.225121 -0.013464000000000014
vn -0.470596 0.882321 0.006990999999999946
vn 0.050163 0.992714 0.10955199999999994
vn 0.442156 0.692766 0.569714
vn 0.05703 0.994997 -0.08202700000000006
vn 0.133615 0.990666 0.026969999999999942
vn 0.518083 0.855181 -0.015963000000000054
vn 0.664596 0.12983300000000006 0.735837
vn 0.954192 0.287276 0.08360599999999999
vn 0.597613 0.801078 -0.03366700000000005
vn 0.560298 0.827037 0.04557099999999995
vn 0.965703 0.258508 -0.02433400000000002
vn 0.964943 0.255352 0.060660999999999986
vn -0.860991 0.361765 0.357521
vn -0.694696 -0.22179599999999994 0.684254
vn -0.462007 0.600686 0.652476
vn -0.127204 -0.10039299999999994 0.986783
vn -0.041766 0.687921 0.724583
vn -0.235558 -0.19220999999999994 0.952664
vn -0.445718 -0.618639 0.647009
vn 0.073523 -0.760985 0.64459
vn -0.096873 -0.28636399999999995 0.953211
vn 0.697493 -0.22542699999999993 0.68021
vn 0.600625 0.44367900000000005 0.66513
vn -0.083937 0.927899 0.36325999999999997
vn 0.561952 0.13546500000000006 0.816002
vn 0.685774 0.37642800000000004 0.62291
vn 0.784909 -0.529878 0.32116400000000006
vn 0.705342 0.14391300000000007 0.694105
vn 0.282285 0.27810100000000004 0.918137
vn 0.089549 0.80151 0.591238
vn 0.581991 0.619379 0.52693
vn -0.425152 -0.814731 0.39428300000000005
vn 0.340496 -0.54055 0.76933
vn 0.191541 0.38943600000000006 0.900917
vn -0.41963 0.09834400000000006 0.902352
vn 0.714794 -0.26393799999999995 0.647616
vn 0.281578 0.4311900000000001 0.857198
vn -0.480278 0.3707150000000001 0.794924
vn 0.506402 0.48497300000000004 0.712992
vn 0.842517 0.053745000000000036 0.535982
vn 0.011879 0.759102 0.650863
vn 0.945464 -0.22937199999999996 0.23127000000000003
vn 0.511676 0.603304 0.611729
vn -0.119102 0.944506 0.30614199999999997
vn -0.469171 0.862076 0.19158099999999995
vn 0.757426 0.30487500000000006 0.577371
vn 0.109265 0.869399 0.4818779999999999
vn 0.457625 0.537176 0.708535
vn 0.800482 0.519332 0.29920399999999997
vn 0.415875 0.856053 0.30695399999999995
vn 0.645484 0.723912 0.24351999999999993
vn 0.197304 -0.19778499999999993 0.960183
vn 0.661911 -0.608767 0.43735300000000005
vn 0.834144 -0.18845499999999998 0.518352
vn 0.74472 0.36851800000000007 0.556405
vn -0.143639 -0.791486 0.594068
vn 0.267731 -0.14483699999999994 0.952545
vn 0.460047 0.14750700000000005 0.875556
vn 0.760709 0.12274900000000004 0.637381
vn 0.142939 -0.28717299999999996 0.947154
vn -0.256427 -0.719297 0.645645
vn -0.440784 -0.827993 0.3466080000000001
vn -0.387765 -0.603472 0.696749
vn -0.575682 -0.750505 0.32454900000000003
vn -0.690708 -0.20576399999999995 0.693242
vn 0.04045 0.003695000000000061 0.999175
vn 0.21173 0.24399900000000005 0.94638
vn 0.141655 0.17830500000000005 0.973725
vn -0.412913 0.28850900000000007 0.863866
vn 0.179101 -0.12034799999999994 0.976442
vn 0.619013 -0.518965 0.589489
vn 0.111095 -0.23280499999999996 0.966157
vn 0.343882 -0.34172899999999995 0.874624
vn 0.769063 -0.3929599999999999 0.504108
vn 0.076457 -0.050361999999999935 0.9958
vn -0.076979 0.638164 0.766043
vn -0.363538 0.861838 0.3536599999999999
vn 0.418443 0.05307900000000006 0.906691
vn 0.229339 0.686182 0.690332
vn 0.067179 0.891986 0.44704299999999997
vn 0.607581 0.599524 0.520976
vn 0.652774 0.08771200000000004 0.752458
vn 0.879411 0.20414500000000002 0.430071
vn -0.675046 0.023949000000000047 0.737387
vn -0.41975 -0.36944199999999994 0.829049
vn 0.083595 0.046155000000000064 0.99543
vn -0.397527 0.512705 0.76099
vn -0.050689 -0.578886 0.813832
vn 0.028492 0.62985 0.776194
vn 0.1408 0.03174000000000006 0.989529
vn 0.364481 -0.572459 0.734469
vn 0.442156 0.692766 0.569714
vn 0.720994 -0.36014699999999994 0.591999
vn 0.664596 0.12983300000000006 0.735837
g orig_stone
f 1/1/1 2/2/2 3/3/3
f 3/3/3 4/4/4 1/1/1
f 4/4/4 3/3/3 5/5/5
f 5/5/5 6/6/6 4/4/4
f 6/6/6 5/5/5 7/7/7
f 7/7/7 8/8/8 6/6/6
f 8/8/8 7/7/7 9/9/9
f 6/6/6 8/8/8 10/10/10
f 10/10/10 11/11/11 6/6/6
f 12/12/12 11/11/11 10/10/10
f 10/10/10 13/13/13 12/12/12
f 9/9/9 14/14/14 8/8/8
f 10/10/10 8/8/8 14/14/14
f 14/14/14 9/9/9 15/15/15
f 15/15/15 16/16/16 14/14/14
f 13/13/13 10/10/10 17/17/17
f 14/14/14 17/17/17 10/10/10
f 17/17/17 14/14/14 16/16/16
f 17/17/17 18/18/18 13/13/13
f 17/17/17 16/16/16 19/19/19
f 19/19/19 18/18/18 17/17/17
f 20/20/20 21/21/21 22/22/22
f 22/22/22 23/23/23 20/20/20
f 23/23/23 22/22/22 24/24/24
f 24/24/24 25/25/25 23/23/23
f 25/25/25 24/24/24 26/26/26
f 26/26/26 27/27/27 25/25/25
f 28/28/28 27/27/27 26/26/26
f 26/26/26 29/29/29 28/28/28
f 28/28/28 29/29/29 30/30/30
f 30/30/30 31/31/31 28/28/28
f 32/32/32 33/33/33 34/34/34
f 34/34/34 35/35/35 32/32/32
f 35/35/35 34/34/34 36/36/36
f 36/36/36 37/37/37 35/35/35
f 38/38/38 37/37/37 36/36/36
f 36/36/36 39/39/39 38/38/38
f 38/38/38 39/39/39 40/40/40
f 40/40/40 41/41/41 38/38/38
f 42/42/42 43/43/43 44/44/44
f 45/45/45 42/42/42 44/44/44
f 44/44/44 46/46/46 45/45/45
f 46/46/46 47/47/47 45/45/45
f 47/47/47 48/48/48 45/45/45
f 45/45/45 48/48/48 49/49/49
f 49/49/49 50/50/50 45/45/45
f 51/51/51 52/52/52 53/53/53
f 53/53/53 54/54/54 51/51/51
f 55/55/55 54/54/54 53/53/53
f 53/53/53 56/56/56 55/55/55
f 57/57/57 55/55/55 56/56/56
f 56/56/56 58/58/58 57/57/57
f 57/57/57 58/58/58 59/59/59
f 59/59/59 60/60/60 57/57/57
f 60/60/60 59/59/59 61/61/61
f 61/61/61 62/62/62 60/60/60
f 59/59/59 63/63/63 64/64/64
f 62/62/62 61/61/61 65/65/65
f 65/65/65 66/66/66 62/62/62
f 67/67/67 66/66/66 65/65/65
f 65/65/65 68/68/68 67/67/67
f 69/69/69 61/61/61 59/59/59
f 65/65/65 61/61/61 69/69/69
f 64/64/64 69/69/69 59/59/59
f 68/68/68 65/65/65 70/70/70
f 69/69/69 70/70/70 65/65/65
f 70/70/70 69/69/69 64/64/64
f 71/71/71 68/68/68 70/70/70
f 64/64/64 72/72/72 70/70/70
f 70/70/70 72/72/72 71/71/71
f 73/73/73 74/74/74 75/75/75
f 75/75/75 76/76/76 73/73/73
f 76/76/76 75/75/75 77/77/77
f 77/77/77 78/78/78 76/76/76
f 79/79/79 73/73/73 76/76/76
f 76/76/76 78/78/78 80/80/80
f 80/80/80 81/81/81 76/76/76
f 76/76/76 82/82/82 79/79/79
f 82/82/82 80/80/80 83/83/83
f 79/79/79 82/82/82 84/84/84
f 85/85/85 79/79/79 84/84/84
f 80/80/80 86/86/86 87/87/87
f 87/87/87 84/84/84 80/80/80
f 84/84/84 87/87/87 88/88/88
f 88/88/88 89/89/89 84/84/84
f 85/85/85 84/84/84 89/89/89
f 89/89/89 90/90/90 85/85/85
f 91/91/91 92/92/92 93/93/93
f 93/93/93 94/94/94 91/91/91
f 95/95/95 91/91/91 94/94/94
f 94/94/94 96/96/96 95/95/95
f 94/94/94 93/93/93 97/97/97
f 94/94/94 98/98/98 96/96/96
f 97/97/97 98/98/98 94/94/94
f 98/98/98 97/97/97 99/99/99
f 99/99/99 100/100/100 98/98/98
f 101/101/101 98/98/98 100/100/100
f 100/100/100 102/102/102 101/101/101
f 103/103/103 100/100/100 99/99/99
f 102/102/102 100/100/100 103/103/103
f 99/99/99 104/104/104 103/103/103
f 103/103/103 105/105/105 102/102/102
f 103/103/103 104/104/104 106/106/106
f 105/105/105 103/103/103 107/107/107
f 106/106/106 107/107/107 103/103/103
f 107/107/107 106/106/106 108/108/108
f 107/107/107 109/109/109 105/105/105
f 108/108/108 110/110/110 107/107/107
f 109/109/109 107/107/107 110/110/110
f 110/110/110 111/111/111 109/109/109
f 112/112/112 113/113/113 114/114/114
f 114/114/114 115/115/115 112/112/112
f 116/116/116 112/112/112 115/115/115
f 115/115/115 114/114/114 117/117/117
f 115/115/115 118/118/118 116/116/116
f 117/117/117 119/119/119 115/115/115
f 118/118/118 115/115/115 119/119/119
f 119/119/119 117/117/117 120/120/120
f 119/119/119 121/121/121 118/118/118
f 120/120/120 122/122/122 119/119/119
f 121/121/121 119/119/119 122/122/122
f 122/122/122 120/120/120 123/123/123
f 122/122/122 124/124/124 121/121/121
f 123/123/123 125/125/125 122/122/122
f 124/124/124 122/122/122 125/125/125
f 125/125/125 126/126/126 124/124/124
f 127/127/127 128/128/128 129/129/129
f 129/129/129 130/130/130 127/127/127
f 131/131/131 127/127/127 130/130/130
f 130/130/130 129/129/129 132/132/132
f 130/130/130 133/133/133 131/131/131
f 132/132/132 134/134/134 130/130/130
f 133/133/133 130/130/130 134/134/134
f 132/132/132 135/135/135 134/134/134
f 134/134/134 136/136/136 133/133/133
f 134/134/134 135/135/135 137/137/137
f 136/136/136 134/134/134 138/138/138
f 137/137/137 138/138/138 134/134/134
f 138/138/138 139/139/139 136/136/136
f 140/140/140 138/138/138 137/137/137
f 139/139/139 138/138/138 140/140/140
f 140/140/140 141/141/141 139/139/139
f 142/142/142 143/143/143 144/144/144
f 144/144/144 145/145/145 142/142/142
f 146/146/146 142/142/142 145/145/145
f 145/145/145 144/144/144 147/147/147
f 145/145/145 148/148/148 146/146/146
f 147/147/147 149/149/149 145/145/145
f 148/148/148 145/145/145 149/149/149
f 149/149/149 147/147/147 150/150/150
f 149/149/149 151/151/151 148/148/148
f 150/150/150 152/152/152 149/149/149
f 151/151/151 149/149/149 152/152/152
f 152/152/152 150/150/150 153/153/153
f 152/152/152 154/154/154 151/151/151
f 154/154/154 152/152/152 155/155/155
f 153/153/153 155/155/155 152/152/152
f 155/155/155 156/156/156 154/154/154
f 157/157/157 156/156/156 155/155/155
f 158/158/158 155/155/155 153/153/153
f 155/155/155 158/158/158 157/157/157
f 153/153/153 159/159/159 158/158/158
f 158/158/158 159/159/159 160/160/160
f 157/157/157 158/158/158 161/161/161
f 160/160/160 161/161/161 158/158/158
f 161/161/161 160/160/160 162/162/162
f 161/161/161 163/163/163 157/157/157
f 162/162/162 164/164/164 161/161/161
f 163/163/163 161/161/161 164/164/164
f 164/164/164 165/165/165 163/163/163
f 166/166/166 167/167/167 168/168/168
f 168/168/168 169/169/169 166/166/166
f 170/170/170 166/166/166 169/169/169
f 169/169/169 168/168/168 171/171/171
f 169/169/169 172/172/172 170/170/170
f 173/173/173 170/170/170 172/172/172
f 172/172/172 174/174/174 173/173/173
f 175/175/175 174/174/174 172/172/172
f 171/171/171 176/176/176 169/169/169
f 176/176/176 171/171/171 177/177/177
f 178/178/178 172/172/172 169/169/169
f 172/172/172 178/178/178 175/175/175
f 169/169/169 176/176/176 178/178/178
f 179/179/179 175/175/175 178/178/178
f 177/177/177 180/180/180 176/176/176
f 178/178/178 176/176/176 180/180/180
f 178/178/178 181/181/181 179/179/179
f 180/180/180 181/181/181 178/178/178
f 182/182/182 179/179/179 181/181/181
f 183/183/183 180/180/180 177/177/177
f 181/181/181 180/180/180 183/183/183
f 177/177/177 184/184/184 183/183/183
f 183/183/183 184/184/184 185/185/185
f 185/185/185 186/186/186 183/183/183
f 183/183/183 186/186/186 187/187/187
f 187/187/187 188/188/188 182/182/182
f 187/187/187 189/189/189 183/183/183
f 182/182/182 189/189/189 187/187/187
f 183/183/183 189/189/189 181/181/181
f 181/181/181 189/189/189 182/182/182
f 190/190/190 191/191/191 192/192/192
f 192/192/192 193/193/193 190/190/190
f 193/193/193 192/192/192 194/194/194
f 190/190/190 193/193/193 195/195/195
f 195/195/195 196/196/196 190/190/190
f 197/197/197 196/196/196 195/195/195
f 195/195/195 198/198/198 197/197/197
f 194/194/194 199/199/199 193/193/193
f 195/195/195 193/193/193 199/199/199
f 199/199/199 194/194/194 200/200/200
f 198/198/198 195/195/195 201/201/201
f 199/199/199 201/201/201 195/195/195
f 201/201/201 202/202/202 198/198/198
f 200/200/200 203/203/203 199/199/199
f 201/201/201 199/199/199 203/203/203
f 200/200/200 204/204/204 205/205/205
f 205/205/205 203/203/203 200/200/200
f 202/202/202 201/201/201 206/206/206
f 203/203/203 206/206/206 201/201/201
f 206/206/206 203/203/203 205/205/205
f 206/206/206 207/207/207 202/202/202
f 205/205/205 208/208/208 206/206/206
f 209/209/209 207/207/207 206/206/206
f 206/206/206 208/208/208 209/209/209
f 210/210/210 211/211/211 212/212/212
f 211/211/211 213/213/213 212/212/212
f 214/214/214 212/212/212 213/213/213
f 211/211/211 215/215/215 213/213/213
f 215/215/215 211/211/211 216/216/216
f 216/216/216 217/217/217 215/215/215
f 215/215/215 217/217/217 218/218/218
f 215/215/215 218/218/218 213/213/213
f 218/218/218 217/217/217 219/219/219
f 213/213/213 220/220/220 214/214/214
f 221/221/221 214/214/214 220/220/220
f 213/213/213 218/218/218 222/222/222
f 222/222/222 220/220/220 213/213/213
f 219/219/219 222/222/222 218/218/218
f 220/220/220 222/222/222 223/223/223
f 223/223/223 222/222/222 219/219/219
f 220/220/220 223/223/223 221/221/221
f 219/219/219 224/224/224 223/223/223
f 223/223/223 224/224/224 225/225/225
f 221/221/221 223/223/223 226/226/226
f 225/225/225 226/226/226 223/223/223
f 226/226/226 227/227/227 221/221/221
f 226/226/226 225/225/225 228/228/228
f 226/226/226 228/228/228 227/227/227
f 229/229/229 230/230/230 231/231/231
f 229/229/229 231/231/231 232/232/232
f 231/231/231 230/230/230 233/233/233
f 232/232/232 231/231/231 234/234/234
f 233/233/233 234/234/234 231/231/231
f 234/234/234 235/235/235 232/232/232
f 236/236/236 234/234/234 233/233/233
f 235/235/235 234/234/234 236/236/236
f 233/233/233 237/237/237 236/236/236
f 236/236/236 238/238/238 235/235/235
f 236/236/236 237/237/237 239/239/239
f 238/238/238 236/236/236 240/240/240
f 239/239/239 240/240/240 236/236/236
f 240/240/240 241/241/241 238/238/238
f 241/241/241 240/240/240 242/242/242
f 240/240/240 239/239/239 243/243/243
f 244/244/244 242/242/242 240/240/240
f 243/243/243 245/245/245 240/240/240
f 240/240/240 245/245/245 244/244/244
f 245/245/245 243/243/243 246/246/246
f 247/247/247 244/244/244 245/245/245
f 245/245/245 246/246/246 248/248/248
f 245/245/245 248/248/248 247/247/247
f 249/249/249 250/250/250 251/251/251
f 249/249/249 251/251/251 252/252/252
f 249/249/249 253/253/253 250/250/250
f 252/252/252 254/254/254 249/249/249
f 254/254/254 253/253/253 249/249/249
f 254/254/254 252/252/252 255/255/255
f 255/255/255 252/252/252 256/256/256
f 253/253/253 254/254/254 257/257/257
f 255/255/255 257/257/257 254/254/254
f 257/257/257 258/258/258 253/253/253
f 258/258/258 259/259/259 253/253/253
f 259/259/259 258/258/258 260/260/260
f 260/260/260 258/258/258 257/257/257
f 260/260/260 261/261/261 259/259/259
f 260/260/260 262/262/262 261/261/261
f 257/257/257 263/263/263 260/260/260
f 262/262/262 260/260/260 263/263/263
f 263/263/263 257/257/257 255/255/255
f 264/264/264 263/263/263 255/255/255
f 263/263/263 264/264/264 262/262/262
f 264/264/264 255/255/255 256/256/256
f 264/264/264 265/265/265 262/262/262
f 256/256/256 265/265/265 264/264/264
f 266/266/266 262/262/262 265/265/265
f 267/267/267 265/265/265 256/256/256
f 265/265/265 267/267/267 266/266/266
f 256/256/256 268/268/268 267/267/267
f 269/269/269 266/266/266 267/267/267
f 269/269/269 267/267/267 268/268/268
f 268/268/268 270/270/270 269/269/269
f 270/270/270 268/268/268 271/271/271
f 266/266/266 269/269/269 272/272/272
f 269/269/269 270/270/270 272/272/272
f 272/272/272 273/273/273 266/266/266
f 273/273/273 274/274/274 266/266/266
f 272/272/272 270/270/270 275/275/275
f 273/273/273 272/272/272 275/275/275
f 275/275/275 270/270/270 271/271/271
f 274/274/274 273/273/273 276/276/276
f 275/275/275 276/276/276 273/273/273
f 276/276/276 277/277/277 274/274/274
f 276/276/276 278/278/278 277/277/277
f 278/278/278 276/276/276 275/275/275
f 271/271/271 279/279/279 275/275/275
f 275/275/275 279/279/279 278/278/278
f 279/279/279 271/271/271 280/280/280
f 279/279/279 280/280/280 278/278/278
f 281/281/281 282/282/282 283/283/283
f 283/283/283 284/284/284 281/281/281
f 282/282/282 285/285/285 283/283/283
f 286/286/286 284/284/284 283/283/283
f 287/287/287 283/283/283 285/285/285
f 283/283/283 287/287/287 286/286/286
f 285/285/285 288/288/288 287/287/287
f 289/289/289 286/286/286 287/287/287
f 287/287/287 288/288/288 290/290/290
f 287/287/287 291/291/291 289/289/289
f 290/290/290 291/291/291 287/287/287
