v 0.787322 0.18878000000000003 0.527796
v 0.699764 0.11940599999999998 -0.275532
v 0.789894 0.16514499999999996 -0.277231
v 0.894021 0.24292700000000003 0.525786
v 0.787322 0.18878000000000003 0.527796
v 0.697376 0.1443580000000001 1.65011
v 0.787322 0.18878000000000003 0.527796
v 0.805728 0.20016300000000012 1.645415
v 0.697376 0.1443580000000001 1.65011
v 0.527481 0.11027600000000017 2.748015
v 0.416433 0.05883300000000018 2.812099
v 0.416433 0.05883300000000018 2.812099
v 0.697376 0.1443580000000001 1.65011
v 0.097501 -0.05898999999999983 2.872062
v -0.403147 0.15758200000000017 2.672209
v -0.226658 0.02269200000000016 2.595025
v -0.00567 0.7752160000000001 2.479883
v -0.504402 0.43884500000000015 2.444338
v 0.097501 -0.05898999999999983 2.872062
v -0.226658 0.02269200000000016 2.595025
v -0.471442 0.0012220000000001637 2.672209
v 0.420953 0.3966560000000002 2.790945
v 0.462613 0.8574070000000001 2.479883
v 0.823048 0.5734680000000001 2.479883
v 0.784084 0.24835000000000015 2.543143
v 0.527481 0.11027600000000017 2.748015
v 0.416433 0.05883300000000018 2.812099
v -0.096571 -0.5371369999999998 2.872062
v -0.616907 -0.33181499999999986 2.672209
v 0.598148 -0.2755619999999998 2.561898
v 0.541365 0.06882300000000016 2.735668
v 0.849224 0.08511100000000016 2.498388
v 0.973644 -0.023335999999999853 2.395354
v 0.252162 -0.7051009999999999 2.672209
v -0.126715 -0.7107519999999998 2.795778
v -0.493151 -0.6693299999999999 2.672209
v -0.155636 -0.8887149999999999 2.672209
v 0.070601 -1.284192 1.621199
v -0.030735 -1.089955 1.669603
v 0.039693 -1.284259 1.479104
v -0.030735 -1.089955 1.669603
v -0.143498 -1.279459 0.5346980000000001
v -0.086519 -1.120844 -0.26970199999999994
v 0.059037 -1.195968 -0.25053899999999996
v 0.025164 -1.382529 1.0102
v 0.028814 -1.368393 0.5573840000000001
v 0.178048 -1.224147 -0.25053899999999996
v 0.142284 -1.352879 1.479104
v 0.070601 -1.284192 1.621199
v 0.169702 -1.401752 0.5573840000000001
v 0.291337 -1.189262 -0.25053899999999996
v 0.163789 -1.440699 1.006343
v 0.303817 -1.360454 0.5573840000000001
v 0.400837 -1.057731 -0.25053899999999996
v 0.328921 -1.380482 1.021387
v 0.433445 -1.204744 0.5573840000000001
v 0.453915 -0.908354 -0.26970199999999994
v 0.425939 -1.250887 1.008632
v 0.272462 -1.306092 1.479104
v 0.49628 -1.027908 0.5346980000000001
v 0.536358 -0.860735 -0.26970199999999994
v 0.267424 -1.200971 1.608294
v -0.030735 -1.089955 1.669603
v 0.327862 -1.186785 1.479104
v 0.257434 -0.9924809999999998 1.669603
v -0.155636 -0.8887149999999999 2.672209
v 0.252162 -0.7051009999999999 2.672209
v 0.514619 -0.9054869999999999 1.669603
v 0.593878 -0.971536 0.5346980000000001
v 0.954804 -0.397655 -0.269702
v 0.983567 -0.3704899999999999 1.669603
v 0.598148 -0.2755619999999998 2.561898
v 0.973644 -0.023335999999999853 2.395354
v 1.232913 0.011525000000000103 1.669603
v 1.325382 0.01813000000000003 0.534698
v 1.089245 -0.42332999999999993 0.534698
v 1.154273 -0.024745000000000017 -0.269702
v 1.325382 0.01813000000000003 0.534698
v 1.154273 -0.024745000000000017 -0.269702
v 1.008314 0.13513499999999998 -0.269702
v 1.152592 0.20740000000000003 0.534698
v 1.232913 0.011525000000000103 1.669603
v 0.800826 0.12763699999999997 -0.277213
v 1.080837 0.17479200000000011 1.669603
v 0.973644 -0.023335999999999853 2.395354
v 0.849224 0.08511100000000016 2.498388
v 0.906962 0.19852300000000003 0.525807
v 0.699764 0.11940599999999998 -0.275532
v 0.787322 0.18878000000000003 0.527796
v 0.818953 0.1576340000000001 1.64551
v 0.541365 0.06882300000000016 2.735668
v 0.697376 0.1443580000000001 1.65011
v 0.416433 0.05883300000000018 2.812099
v 0.784084 0.24835000000000015 2.543143
v 0.527481 0.11027600000000017 2.748015
v 0.805728 0.20016300000000012 1.645415
v 1.034512 0.3366270000000001 1.669603
v 0.894021 0.24292700000000003 0.525786
v 0.823048 0.5734680000000001 2.479883
v 0.789894 0.16514499999999996 -0.277231
v 0.97038 0.27163 -0.269702
v 1.107685 0.36898600000000004 0.534698
v 1.016176 0.500609 -0.26970200000000005
v 1.089245 0.6202430000000001 1.669603
v 1.161899 0.640058 0.534698
v 0.887852 0.751677 -0.26970200000000005
v 1.009986 0.937278 0.5346979999999999
v 0.452222 0.947208 -0.26970200000000005
v 0.976962 0.8183900000000001 1.669603
v 0.494276 1.168753 0.5346979999999999
v -0.04068 0.909839 -0.26970200000000005
v 0.533905 1.082889 1.669603
v 0.462613 0.8574070000000001 2.479883
v -0.089234 1.124514 0.5346979999999999
v -0.723316 0.497933 -0.26970200000000005
v -0.042582 1.011696 1.669603
v -0.00567 0.7752160000000001 2.479883
v -0.897355 0.63689 0.534698
v -0.683325 0.20415999999999998 -0.269702
v -0.7271 0.5740090000000001 1.669603
v -0.504402 0.43884500000000015 2.444338
v -0.850013 0.28911300000000006 0.534698
v -0.616542 0.09651599999999999 -0.269702
v -0.595002 0.19753000000000012 1.669603
v -0.770953 0.16168200000000002 0.534698
v -0.403147 0.15758200000000017 2.672209
v -0.516123 0.1035880000000001 1.669603
v -0.226658 0.02269200000000016 2.595025
v -0.7271 0.5740090000000001 1.669603
v -0.471442 0.0012220000000001637 2.672209
v -0.226658 0.02269200000000016 2.595025
v -0.516123 0.1035880000000001 1.669603
v -0.708006 0.057187000000000106 1.669603
v -0.616907 -0.33181499999999986 2.672209
v -0.770953 0.16168200000000002 0.534698
v -0.616542 0.09651599999999999 -0.269702
v -0.766951 0.05163799999999999 -0.269702
v -0.949011 0.10855500000000003 0.534698
v -0.962086 -0.304261 -0.269702
v -1.004506 -0.3110459999999999 1.669603
v -1.180017 -0.31276799999999993 0.534698
v -0.718012 -0.955765 -0.26970199999999994
v -0.786544 -0.9451159999999998 1.669603
v -0.493151 -0.6693299999999999 2.672209
v -0.155636 -0.8887149999999999 2.672209
v -0.891076 -1.084035 0.5346980000000001
v -0.160412 -1.125818 -0.26970199999999994
v -0.221375 -1.15444 1.669603
v -0.030735 -1.089955 1.669603
v -0.143498 -1.279459 0.5346980000000001
v -0.230976 -1.285348 0.5346980000000001
v -0.086519 -1.120844 -0.26970199999999994
vt 0.902396 0.371781
vt 0.895984 0.484928
vt 0.847435 0.484783
vt 0.848161 0.375916
vt 0.902396 0.371781
vt 0.893419 0.211976
vt 0.902396 0.371781
vt 0.849972 0.213936
vt 0.893419 0.211976
vt 0.831483 0.049209
vt 0.860639 0.045536
vt 0.860639 0.045536
vt 0.893419 0.211976
vt 0.836222 0.733231
vt 0.729349 0.680902
vt 0.771538 0.671932
vt 0.634938 0.845453
vt 0.650356 0.697692
vt 0.836222 0.733231
vt 0.771538 0.671932
vt 0.772662 0.611719
vt 0.773729 0.866168
vt 0.667146 0.952430
vt 0.761642 0.993609
vt 0.832505 0.943642
vt 0.842947 0.855594
vt 0.841893 0.818778
vt 0.917309 0.628495
vt 0.831086 0.535424
vt 0.941087 0.814688
vt 0.853439 0.846886
vt 0.891998 0.922075
vt 0.933510 0.933397
vt 0.992063 0.677448
vt 0.951071 0.598347
vt 0.918425 0.517886
vt 0.993119 0.566884
vt 0.751871 0.178503
vt 0.767321 0.159907
vt 0.765832 0.196453
vt 0.767321 0.159907
vt 0.812403 0.329528
vt 0.823878 0.454428
vt 0.799281 0.457951
vt 0.775668 0.269355
vt 0.784838 0.337296
vt 0.776747 0.462488
vt 0.750108 0.202610
vt 0.751871 0.178503
vt 0.765796 0.343718
vt 0.747448 0.468422
vt 0.759289 0.276461
vt 0.741149 0.349230
vt 0.718593 0.472117
vt 0.727739 0.280915
vt 0.706989 0.353605
vt 0.697428 0.476078
vt 0.701317 0.285995
vt 0.721708 0.208649
vt 0.681934 0.358294
vt 0.680292 0.479283
vt 0.713849 0.187449
vt 0.767321 0.159907
vt 0.701719 0.212055
vt 0.688525 0.177407
vt 0.729875 0.010794
vt 0.639333 0.024476
vt 0.640563 0.187913
vt 0.661648 0.362089
vt 0.573554 0.493733
vt 0.519512 0.203974
vt 0.549594 0.052580
vt 0.472438 0.091862
vt 0.431697 0.214540
vt 0.458974 0.385866
vt 0.535288 0.379194
vt 0.467477 0.513571
vt 0.994952 0.371832
vt 0.974167 0.484971
vt 0.938946 0.485411
vt 0.953257 0.372353
vt 0.982244 0.210472
vt 0.909781 0.485615
vt 0.945843 0.210909
vt 0.948071 0.106305
vt 0.920526 0.091892
vt 0.918730 0.372594
vt 0.895984 0.484928
vt 0.902396 0.371781
vt 0.909717 0.213190
vt 0.877713 0.056929
vt 0.893419 0.211976
vt 0.860639 0.045536
vt 0.546476 0.552445
vt 0.603625 0.524121
vt 0.606088 0.700353
vt 0.567919 0.700724
vt 0.604840 0.871626
vt 0.478537 0.567837
vt 0.628714 0.991969
vt 0.568267 0.992057
vt 0.572084 0.872048
vt 0.506568 0.992366
vt 0.528567 0.701247
vt 0.527926 0.872804
vt 0.462398 0.992687
vt 0.475636 0.873310
vt 0.398364 0.992772
vt 0.488404 0.701528
vt 0.392229 0.873444
vt 0.280114 0.992473
vt 0.409190 0.701741
vt 0.412950 0.567981
vt 0.300779 0.868472
vt 0.138874 0.991510
vt 0.307551 0.705797
vt 0.291732 0.567782
vt 0.168792 0.871451
vt 0.043710 0.991963
vt 0.178014 0.700156
vt 0.174342 0.567456
vt 0.046699 0.870101
vt 0.004208 0.991202
vt 0.048727 0.698288
vt 0.006058 0.869977
vt 0.062364 0.543974
vt 0.009651 0.698240
vt 0.013952 0.540071
vt 0.178014 0.700156
vt 0.330516 0.074610
vt 0.398190 0.077053
vt 0.411266 0.215155
vt 0.346244 0.227521
vt 0.257219 0.080611
vt 0.421891 0.395459
vt 0.436521 0.522839
vt 0.346915 0.517756
vt 0.348546 0.400069
vt 0.280581 0.522113
vt 0.281760 0.237356
vt 0.291022 0.408769
vt 0.158919 0.521381
vt 0.164419 0.237106
vt 0.162080 0.083288
vt 0.071738 0.080010
vt 0.146996 0.407903
vt 0.042231 0.518516
vt 0.058528 0.225388
vt 0.016949 0.223385
vt 0.022203 0.391774
vt 0.048563 0.393883
vt 0.011619 0.518230
vn 0.961353 0.273024 0.035480999999999985
vn 0.25315 0.961085 -0.11058900000000006
vn 0.471235 -0.881673 0.024296000000000057
vn 0.485656 -0.874072 0.011681000000000054
vn 0.961353 0.273024 0.035480999999999985
vn 0.948688 0.268237 0.16745499999999996
vn 0.961353 0.273024 0.035480999999999985
vn 0.480701 -0.876189 0.03491100000000005
vn 0.948688 0.268237 0.16745499999999996
vn 0.642814 -0.532675 0.550498
vn 0.519874 -0.32664199999999993 0.789326
vn 0.519874 -0.32664199999999993 0.789326
vn 0.948688 0.268237 0.16745499999999996
vn -0.060831 0.07881700000000005 0.995031
vn -0.734737 -0.28108099999999997 0.617378
vn -0.879836 -0.14179199999999997 0.453634
vn -0.345442 0.682566 0.644029
vn -0.869451 0.22333800000000004 0.440652
vn -0.060831 0.07881700000000005 0.995031
vn -0.879836 -0.14179199999999997 0.453634
vn -0.375892 0.760683 0.529213
vn 0.280493 0.26790400000000003 0.921711
vn 0.134376 0.836627 0.531035
vn 0.780738 0.3864520000000001 0.491022
vn 0.777397 -0.4055019999999999 0.480855
vn 0.642814 -0.532675 0.550498
vn 0.519874 -0.32664199999999993 0.789326
vn 0.023524 -0.14483399999999994 0.989176
vn -0.760386 0.01629900000000004 0.649267
vn 0.557392 -0.36967199999999995 0.743409
vn 0.297745 0.785112 0.54309
vn 0.515342 0.631523 0.579311
vn 0.863987 -0.043512999999999975 0.50163
vn 0.500674 -0.644833 0.577508
vn -0.117178 -0.41374599999999995 0.90282
vn -0.569361 -0.48089699999999996 0.666757
vn 0.01968 -0.887337 0.46070200000000006
vn -0.173992 -0.775991 0.606272
vn -0.112115 -0.832681 0.542284
vn -0.736659 -0.655715 0.16544400000000004
vn -0.112115 -0.832681 0.542284
vn -0.353903 -0.935226 -0.010267999999999942
vn -0.10142 -0.974661 -0.19937199999999994
vn -0.362041 -0.908776 -0.20749199999999995
vn -0.523237 -0.847705 0.08728300000000005
vn -0.328048 -0.935597 -0.13054899999999994
vn -0.055692 -0.975043 -0.21491799999999994
vn -0.100965 -0.962478 0.2518770000000001
vn -0.173992 -0.775991 0.606272
vn 0.085937 -0.983029 -0.16207599999999994
vn 0.462391 -0.865942 -0.19062799999999994
vn -0.006156 -0.999875 0.014540000000000062
vn 0.597498 -0.793979 -0.11222299999999995
vn 0.828731 -0.543762 -0.13239399999999998
vn 0.544477 -0.833646 0.09262600000000006
vn 0.880423 -0.466539 -0.08483499999999997
vn 0.830404 -0.543085 -0.12445099999999998
vn 0.932817 -0.345684 0.10175900000000003
vn 0.6261 -0.683569 0.37514400000000003
vn 0.751875 -0.659268 -0.007005999999999959
vn 0.580398 -0.800077 -0.15170799999999995
vn 0.545247 -0.3783349999999999 0.748043
vn -0.112115 -0.832681 0.542284
vn 0.93409 -0.18241599999999997 0.30692
vn 0.689797 -0.598624 0.40722200000000003
vn 0.01968 -0.887337 0.46070200000000006
vn 0.500674 -0.644833 0.577508
vn 0.572629 -0.803489 0.16279300000000005
vn 0.651865 -0.756409 -0.05401399999999995
vn 0.784672 -0.601405 -0.15033999999999997
vn 0.77824 -0.585395 0.22727800000000004
vn 0.557392 -0.36967199999999995 0.743409
vn 0.863987 -0.043512999999999975 0.50163
vn 0.954477 0.234099 0.18485399999999996
vn 0.992212 0.107068 -0.06366
vn 0.818881 -0.573243 -0.028744999999999965
vn 0.973689 -0.10654200000000001 -0.20144
vn 0.992212 0.107068 -0.06366
vn 0.973689 -0.10654200000000001 -0.20144
vn 0.513497 0.841544 -0.16770300000000005
vn 0.38472 0.922297 -0.036868000000000054
vn 0.954477 0.234099 0.18485399999999996
vn -0.049392 0.995461 -0.08134600000000006
vn 0.372197 0.917159 0.14243799999999995
vn 0.863987 -0.043512999999999975 0.50163
vn 0.515342 0.631523 0.579311
vn -0.063982 0.997638 -0.024996000000000063
vn 0.25315 0.961085 -0.11058900000000006
vn 0.961353 0.273024 0.035480999999999985
vn -0.070653 0.996098 0.05288399999999994
vn 0.297745 0.785112 0.54309
vn 0.948688 0.268237 0.16745499999999996
vn 0.519874 -0.32664199999999993 0.789326
vn 0.777397 -0.4055019999999999 0.480855
vn 0.642814 -0.532675 0.550498
vn 0.480701 -0.876189 0.03491100000000005
vn 0.817755 -0.56085 0.12932500000000002
vn 0.485656 -0.874072 0.011681000000000054
vn 0.780738 0.3864520000000001 0.491022
vn 0.471235 -0.881673 0.024296000000000057
vn 0.718642 -0.694307 -0.03863499999999996
vn 0.891254 -0.452783 -0.025585999999999973
vn 0.983246 0.018540999999999988 -0.181336
vn 0.976708 0.151414 0.152039
vn 0.973955 0.201931 -0.10312900000000001
vn 0.744071 0.617349 -0.25541600000000003
vn 0.68303 0.724709 -0.09091800000000004
vn 0.245278 0.931294 -0.26931600000000006
vn 0.648263 0.739657 0.18072499999999994
vn 0.192129 0.976592 -0.09671500000000005
vn -0.220338 0.939044 -0.26390800000000003
vn 0.22655 0.954795 0.19245999999999994
vn 0.134376 0.836627 0.531035
vn -0.309753 0.947237 -0.08243100000000006
vn -0.763014 0.588756 -0.2667900000000001
vn -0.337491 0.921142 0.19390099999999993
vn -0.345442 0.682566 0.644029
vn -0.902776 0.427068 -0.05108600000000003
vn -0.948557 -0.26821 -0.16823399999999997
vn -0.908282 0.336869 0.24807899999999997
vn -0.869451 0.22333800000000004 0.440652
vn -0.910389 -0.412935 0.025998000000000025
vn -0.981638 -0.04838500000000001 -0.184514
vn -0.846909 -0.506086 0.16316000000000003
vn -0.705752 0.708448 -0.0038580000000000433
vn -0.734737 -0.28108099999999997 0.617378
vn -0.901728 0.357149 0.24358199999999997
vn -0.879836 -0.14179199999999997 0.453634
vn -0.908282 0.336869 0.24807899999999997
vn -0.375892 0.760683 0.529213
vn -0.879836 -0.14179199999999997 0.453634
vn -0.901728 0.357149 0.24358199999999997
vn -0.56384 0.804787 0.18547999999999995
vn -0.760386 0.01629900000000004 0.649267
vn -0.705752 0.708448 -0.0038580000000000433
vn -0.981638 -0.04838500000000001 -0.184514
vn -0.506158 0.84464 -0.17432200000000006
vn -0.704544 0.709104 -0.028098000000000047
vn -0.943112 0.21543699999999996 -0.253233
vn -0.963697 0.13418600000000003 0.23083
vn -0.994887 -0.01798900000000001 -0.099376
vn -0.765445 -0.589235 -0.2586419999999999
vn -0.655137 -0.707908 0.26393500000000003
vn -0.569361 -0.48089699999999996 0.666757
vn 0.01968 -0.887337 0.46070200000000006
vn -0.687586 -0.724478 -0.048551999999999956
vn -0.170467 -0.963579 -0.20605199999999996
vn 0.003579 -0.984525 0.17520800000000006
vn -0.112115 -0.832681 0.542284
vn -0.353903 -0.935226 -0.010267999999999942
vn -0.123955 -0.991567 -0.037811999999999936
vn -0.10142 -0.974661 -0.19937199999999994
g orig_stone
f 1/1/1 2/2/2 3/3/3
f 3/3/3 4/4/4 5/5/5
f 6/6/6 7/7/7 4/4/4
f 4/4/4 8/8/8 9/9/9
f 8/8/8 10/10/10 11/11/11
f 12/12/12 13/13/13 8/8/8
f 14/14/14 15/15/15 16/16/16
f 17/17/17 18/18/18 15/15/15
f 17/17/17 15/15/15 19/19/19
f 19/19/19 20/20/20 21/21/21
f 19/19/19 22/22/22 17/17/17
f 23/23/23 17/17/17 22/22/22
f 22/22/22 24/24/24 23/23/23
f 25/25/25 24/24/24 22/22/22
f 22/22/22 26/26/26 25/25/25
f 26/26/26 22/22/22 27/27/27
f 22/22/22 19/19/19 27/27/27
f 28/28/28 19/19/19 21/21/21
f 21/21/21 29/29/29 28/28/28
f 27/27/27 19/19/19 30/30/30
f 30/30/30 19/19/19 28/28/28
f 30/30/30 31/31/31 27/27/27
f 32/32/32 31/31/31 30/30/30
f 30/30/30 33/33/33 32/32/32
f 28/28/28 34/34/34 30/30/30
f 35/35/35 28/28/28 29/29/29
f 28/28/28 35/35/35 34/34/34
f 29/29/29 36/36/36 35/35/35
f 37/37/37 34/34/34 35/35/35
f 35/35/35 36/36/36 37/37/37
f 38/38/38 39/39/39 40/40/40
f 40/40/40 41/41/41 42/42/42
f 42/42/42 43/43/43 44/44/44
f 42/42/42 45/45/45 40/40/40
f 44/44/44 46/46/46 42/42/42
f 42/42/42 46/46/46 45/45/45
f 46/46/46 44/44/44 47/47/47
f 48/48/48 40/40/40 45/45/45
f 40/40/40 48/48/48 49/49/49
f 47/47/47 50/50/50 46/46/46
f 50/50/50 47/47/47 51/51/51
f 52/52/52 45/45/45 46/46/46
f 46/46/46 50/50/50 52/52/52
f 45/45/45 52/52/52 48/48/48
f 51/51/51 53/53/53 50/50/50
f 52/52/52 50/50/50 53/53/53
f 53/53/53 51/51/51 54/54/54
f 48/48/48 52/52/52 55/55/55
f 53/53/53 55/55/55 52/52/52
f 54/54/54 56/56/56 53/53/53
f 56/56/56 54/54/54 57/57/57
f 58/58/58 55/55/55 53/53/53
f 53/53/53 56/56/56 58/58/58
f 55/55/55 59/59/59 48/48/48
f 59/59/59 55/55/55 58/58/58
f 49/49/49 48/48/48 59/59/59
f 57/57/57 60/60/60 56/56/56
f 58/58/58 56/56/56 60/60/60
f 60/60/60 57/57/57 61/61/61
f 59/59/59 62/62/62 49/49/49
f 63/63/63 49/49/49 62/62/62
f 58/58/58 64/64/64 59/59/59
f 62/62/62 59/59/59 64/64/64
f 65/65/65 64/64/64 58/58/58
f 62/62/62 64/64/64 65/65/65
f 62/62/62 65/65/65 63/63/63
f 58/58/58 60/60/60 65/65/65
f 66/66/66 63/63/63 65/65/65
f 67/67/67 66/66/66 65/65/65
f 68/68/68 65/65/65 60/60/60
f 65/65/65 68/68/68 67/67/67
f 61/61/61 69/69/69 60/60/60
f 60/60/60 69/69/69 68/68/68
f 69/69/69 61/61/61 70/70/70
f 67/67/67 68/68/68 71/71/71
f 71/71/71 72/72/72 67/67/67
f 73/73/73 72/72/72 71/71/71
f 71/71/71 74/74/74 73/73/73
f 75/75/75 74/74/74 71/71/71
f 76/76/76 71/71/71 68/68/68
f 71/71/71 76/76/76 75/75/75
f 68/68/68 69/69/69 76/76/76
f 70/70/70 76/76/76 69/69/69
f 77/77/77 75/75/75 76/76/76
f 76/76/76 70/70/70 77/77/77
f 78/78/78 79/79/79 80/80/80
f 80/80/80 81/81/81 78/78/78
f 82/82/82 78/78/78 81/81/81
f 81/81/81 80/80/80 83/83/83
f 81/81/81 84/84/84 82/82/82
f 85/85/85 82/82/82 84/84/84
f 84/84/84 86/86/86 85/85/85
f 83/83/83 87/87/87 81/81/81
f 84/84/84 81/81/81 87/87/87
f 87/87/87 83/83/83 88/88/88
f 88/88/88 89/89/89 87/87/87
f 86/86/86 84/84/84 90/90/90
f 87/87/87 90/90/90 84/84/84
f 90/90/90 87/87/87 89/89/89
f 90/90/90 91/91/91 86/86/86
f 89/89/89 92/92/92 90/90/90
f 91/91/91 90/90/90 92/92/92
f 92/92/92 93/93/93 91/91/91
f 94/94/94 95/95/95 96/96/96
f 96/96/96 97/97/97 94/94/94
f 97/97/97 96/96/96 98/98/98
f 99/99/99 94/94/94 97/97/97
f 98/98/98 100/100/100 101/101/101
f 101/101/101 102/102/102 98/98/98
f 98/98/98 102/102/102 97/97/97
f 102/102/102 101/101/101 103/103/103
f 104/104/104 97/97/97 102/102/102
f 97/97/97 104/104/104 99/99/99
f 103/103/103 105/105/105 102/102/102
f 102/102/102 105/105/105 104/104/104
f 105/105/105 103/103/103 106/106/106
f 106/106/106 107/107/107 105/105/105
f 104/104/104 105/105/105 107/107/107
f 107/107/107 106/106/106 108/108/108
f 104/104/104 109/109/109 99/99/99
f 107/107/107 109/109/109 104/104/104
f 108/108/108 110/110/110 107/107/107
f 109/109/109 107/107/107 110/110/110
f 110/110/110 108/108/108 111/111/111
f 99/99/99 109/109/109 112/112/112
f 110/110/110 112/112/112 109/109/109
f 112/112/112 113/113/113 99/99/99
f 111/111/111 114/114/114 110/110/110
f 112/112/112 110/110/110 114/114/114
f 114/114/114 111/111/111 115/115/115
f 113/113/113 112/112/112 116/116/116
f 114/114/114 116/116/116 112/112/112
f 116/116/116 117/117/117 113/113/113
f 115/115/115 118/118/118 114/114/114
f 116/116/116 114/114/114 118/118/118
f 118/118/118 115/115/115 119/119/119
f 117/117/117 116/116/116 120/120/120
f 118/118/118 120/120/120 116/116/116
f 120/120/120 121/121/121 117/117/117
f 119/119/119 122/122/122 118/118/118
f 120/120/120 118/118/118 122/122/122
f 122/122/122 119/119/119 123/123/123
f 121/121/121 120/120/120 124/124/124
f 123/123/123 125/125/125 122/122/122
f 124/124/124 126/126/126 121/121/121
f 122/122/122 125/125/125 127/127/127
f 128/128/128 126/126/126 124/124/124
f 124/124/124 127/127/127 128/128/128
f 127/127/127 124/124/124 122/122/122
f 122/122/122 124/124/124 129/129/129
f 130/130/130 131/131/131 132/132/132
f 132/132/132 133/133/133 130/130/130
f 134/134/134 130/130/130 133/133/133
f 133/133/133 132/132/132 135/135/135
f 135/135/135 136/136/136 137/137/137
f 137/137/137 138/138/138 135/135/135
f 135/135/135 138/138/138 133/133/133
f 138/138/138 137/137/137 139/139/139
f 133/133/133 140/140/140 134/134/134
f 140/140/140 133/133/133 138/138/138
f 139/139/139 141/141/141 138/138/138
f 138/138/138 141/141/141 140/140/140
f 141/141/141 139/139/139 142/142/142
f 134/134/134 140/140/140 143/143/143
f 143/143/143 144/144/144 134/134/134
f 145/145/145 144/144/144 143/143/143
f 140/140/140 141/141/141 146/146/146
f 142/142/142 146/146/146 141/141/141
f 146/146/146 143/143/143 140/140/140
f 146/146/146 142/142/142 147/147/147
f 143/143/143 148/148/148 145/145/145
f 145/145/145 148/148/148 149/149/149
f 150/150/150 149/149/149 148/148/148
f 143/143/143 146/146/146 151/151/151
f 151/151/151 148/148/148 143/143/143
f 147/147/147 151/151/151 146/146/146
f 148/148/148 151/151/151 150/150/150
f 151/151/151 147/147/147 152/152/152
f 152/152/152 150/150/150 151/151/151
