v 0.623273 0.0042220000000001345 2.202408
v 0.50694 -0.0017679999999998617 2.258743
v 0.360013 -0.002303999999999857 2.340302
v 0.50694 -0.0017679999999998617 2.258743
v 0.57652 0.0021460000000001348 2.202408
v 0.360013 0.20320100000000013 2.340302
v 0.924412 -0.540659 -0.11711099999999998
v 0.924412 0.009144999999999993 -0.117111
v 0.920209 -0.00506199999999996 0.656662
v 0.920209 -0.519909 0.656662
v 0.91776 0.006318000000000072 1.178513
v 0.91776 -0.5199089999999998 1.178513
v 0.894759 -0.49464199999999997 1.309288
v 0.895358 -0.00218099999999992 1.311738
v 0.770847 -0.4862159999999999 1.35136
v 0.770844 0.00038200000000008274 1.350855
v 0.772305 -0.4515909999999999 1.6147
v 0.772305 -0.0009339999999999012 1.6147
v 0.732709 -0.002029999999999878 1.996841
v 0.732709 -0.44124799999999986 1.996841
v 0.623273 0.0042220000000001345 2.202408
v 0.623273 -0.4365409999999999 2.202408
v 0.360013 -0.20780799999999985 2.340302
v 0.360013 -0.4133129999999998 2.340302
v 0.360013 -0.002303999999999857 2.340302
v 0.360013 -0.20780799999999985 2.340302
v -0.511395 -0.17529899999999987 2.381561
v -0.511395 -0.34829299999999985 2.381561
v -0.511395 -0.0023039999999998543 2.381561
v -0.511395 0.17069100000000015 2.381561
v 0.360013 0.20320100000000013 2.340302
v 0.50694 -0.0017679999999998617 2.258743
v -0.511395 0.34368600000000016 2.381561
v 0.360013 0.4087060000000002 2.340302
v 0.57652 0.0021460000000001348 2.202408
v 0.623273 0.4308510000000001 2.202408
v 0.796185 -0.0020859999999998814 1.942764
v 0.796185 0.4312690000000001 1.942764
v 0.800381 0.0009940000000000946 1.545242
v 0.800381 0.4434920000000001 1.545242
v 0.802241 -0.00601499999999993 1.150923
v 0.802208 0.45531000000000005 1.154067
v 0.922604 0.45484300000000005 1.085261
v 0.92264 0.005767000000000066 1.081844
v 0.951817 0.46154400000000007 0.928635
v 0.951817 -0.0018379999999999432 0.928635
v 0.947919 -0.03208499999999997 0.539474
v 0.947919 0.46154400000000007 0.539474
v 0.952122 -0.033947000000000005 -0.109299
v 0.952122 0.461544 -0.10929900000000002
vt 0.574939 0.674434
vt 0.626042 0.501733
vt 0.676212 0.501733
vt 0.626042 0.501733
vt 0.577702 0.410132
vt 0.676212 0.671527
vt 0.002291 0.005873
vt 0.001980 0.946566
vt 0.092529 0.827504
vt 0.093018 0.005908
vt 0.229739 0.921780
vt 0.231629 0.005350
vt 0.262356 0.005333
vt 0.260628 0.910878
vt 0.286656 0.005320
vt 0.283528 0.902795
vt 0.374459 0.005272
vt 0.369786 0.872351
vt 0.513649 0.818587
vt 0.508672 0.004697
vt 0.574939 0.674434
vt 0.576622 0.005898
vt 0.676212 0.309618
vt 0.676212 0.005898
vt 0.676212 0.501733
vt 0.674341 0.317059
vt 0.951634 0.253816
vt 0.951634 0.005898
vt 0.951634 0.501733
vt 0.951634 0.749651
vt 0.676212 0.671527
vt 0.626042 0.501733
vt 0.951634 0.997568
vt 0.676212 0.997568
vt 0.577702 0.410132
vt 0.576622 0.997568
vt 0.486112 0.225380
vt 0.486385 0.997568
vt 0.350130 0.160943
vt 0.349384 0.997568
vt 0.289355 0.132473
vt 0.293320 0.997568
vt 0.262269 0.997568
vt 0.256204 0.116943
vt 0.219865 0.997568
vt 0.212247 0.096350
vt 0.069770 0.153382
vt 0.064159 0.997568
vt 0.001980 0.086325
vt 0.001980 0.997568
vn 0.718648 0.23733600000000002 0.653618
vn 0.485597 0.558947 0.672141
vn 0.181267 0.18098900000000007 0.966636
vn 0.485597 0.558947 0.672141
vn 0.603964 0.0004840000000000488 0.797011
vn 0.308935 0.02351100000000006 0.950793
vn 0.999985 3.326753029883785E-19 0.005433
vn 0.999985 3.326753029883785E-19 0.005433
vn 0.999987 3.1755091501890867E-19 0.005186
vn 0.999988 3.0248775938939626E-19 0.00494
vn 0.996175 -0.0005079999999999947 0.087375
vn 0.996007 5.46670084671387E-18 0.089278
vn 0.872137 -0.00271099999999997 0.489255
vn 0.613858 -0.002342999999999952 0.789413
vn 0.649916 -0.0016479999999999533 0.760005
vn 0.925243 0.00039900000000002325 0.379375
vn 0.998807 2.990342554158007E-18 0.048836
vn 0.998807 2.990342554158007E-18 0.048836
vn 0.973396 1.4030043589751737E-17 0.229128
vn 0.935449 2.1643305346011087E-17 0.353462
vn 0.718648 0.23733600000000002 0.653618
vn 0.628375 4.763331080857583E-17 0.777911
vn 0.261819 5.909637224263481E-17 0.965117
vn 0.190176 6.01148497531457E-17 0.98175
vn 0.181267 0.18098900000000007 0.966636
vn 0.261819 5.909637224263481E-17 0.965117
vn 0.047295 6.116382096895537E-17 0.998881
vn 0.047295 6.116382096895537E-17 0.998881
vn 0.047295 6.116382096895537E-17 0.998881
vn 0.047295 6.116382096895537E-17 0.998881
vn 0.308935 0.02351100000000006 0.950793
vn 0.485597 0.558947 0.672141
vn 0.047295 6.116382096895537E-17 0.998881
vn 0.359839 -0.017423999999999943 0.932852
vn 0.603964 0.0004840000000000488 0.797011
vn 0.702529 -0.04564799999999996 0.71019
vn 0.905868 -0.028966999999999975 0.422567
vn 0.97998 1.2191175188492029E-17 0.199097
vn 0.999963 5.271492146929782E-19 0.008609
vn 0.999978 1.4000000000000406E-05 0.006647
vn 0.864021 -0.003576999999999969 0.503444
vn 0.86374 -0.003371999999999969 0.503926
vn 0.717678 -0.004991999999999957 0.696358
vn 0.893596 -0.0028559999999999727 0.448863
vn 0.99612 -0.00032999999999999463 0.088009
vn 0.996035 5.447596356647171E-18 0.088966
vn 0.99999 -2.7670894426734444E-19 -0.004519
vn 1 6.006892549817768E-20 0.000981
vn 0.999979 3.967243305837851E-19 0.006479
vn 0.999979 3.967243305837851E-19 0.006479
g water
f 1/1/1 2/2/2 3/3/3
f 4/4/4 5/5/5 6/6/6
f 7/7/7 8/8/8 9/9/9
f 9/9/9 10/10/10 7/7/7
f 10/10/10 9/9/9 11/11/11
f 11/11/11 12/12/12 10/10/10
f 13/13/13 12/12/12 11/11/11
f 11/11/11 14/14/14 13/13/13
f 15/15/15 13/13/13 14/14/14
f 14/14/14 16/16/16 15/15/15
f 17/17/17 15/15/15 16/16/16
f 16/16/16 18/18/18 17/17/17
f 17/17/17 18/18/18 19/19/19
f 19/19/19 20/20/20 17/17/17
f 20/20/20 19/19/19 21/21/21
f 21/21/21 22/22/22 20/20/20
f 22/22/22 21/21/21 23/23/23
f 23/23/23 24/24/24 22/22/22
f 25/25/25 26/26/26 21/21/21
f 24/24/24 23/23/23 27/27/27
f 27/27/27 28/28/28 24/24/24
f 29/29/29 27/27/27 23/23/23
f 23/23/23 25/25/25 29/29/29
f 30/30/30 29/29/29 25/25/25
f 25/25/25 31/31/31 30/30/30
f 31/31/31 25/25/25 32/32/32
f 33/33/33 30/30/30 31/31/31
f 31/31/31 34/34/34 33/33/33
f 34/34/34 31/31/31 35/35/35
f 35/35/35 36/36/36 34/34/34
f 36/36/36 35/35/35 37/37/37
f 37/37/37 38/38/38 36/36/36
f 38/38/38 37/37/37 39/39/39
f 39/39/39 40/40/40 38/38/38
f 40/40/40 39/39/39 41/41/41
f 41/41/41 42/42/42 40/40/40
f 43/43/43 42/42/42 41/41/41
f 41/41/41 44/44/44 43/43/43
f 45/45/45 43/43/43 44/44/44
f 44/44/44 46/46/46 45/45/45
f 45/45/45 46/46/46 47/47/47
f 47/47/47 48/48/48 45/45/45
f 48/48/48 47/47/47 49/49/49
f 49/49/49 50/50/50 48/48/48
