v 0.153473 0.001203000000000033 0.538546
v 0.153473 -0.055761999999999964 0.538546
v 0.519984 -0.055761999999999964 0.538546
v 0.519984 0.001203000000000033 0.538546
v 0.153473 0.001203000000000033 0.538546
v -0.287016 -0.055761999999999964 0.538546
v -0.287016 0.001203000000000033 0.538546
v -0.496216 0.001203000000000033 0.538546
v -0.496216 0.001203000000000033 0.538546
v -0.496216 -0.055761999999999964 0.538546
v 0.153473 -0.055761999999999964 0.538546
v 0.153473 -0.05576199999999997 0.48158
v 0.519984 -0.05576199999999997 0.48158
v 0.519984 -0.055761999999999964 0.538546
v -0.287016 -0.05576199999999997 0.48158
v -0.287016 -0.055761999999999964 0.538546
v -0.496216 -0.055761999999999964 0.538546
v -0.496216 -0.05576199999999997 0.48158
v 0.153473 0.0012030000000000296 0.48158
v 0.153473 0.001203000000000033 0.538546
v 0.519984 0.001203000000000033 0.538546
v 0.519984 0.0012030000000000296 0.48158
v -0.287016 0.001203000000000033 0.538546
v -0.287016 0.0012030000000000296 0.48158
v -0.496216 0.0012030000000000296 0.48158
v -0.496216 0.001203000000000033 0.538546
v 0.120266 -0.3717329999999999 0.708648
v -0.253587 -0.37173399999999995 0.708648
v -0.253587 -0.028105999999999944 0.907042
v 0.120266 -0.028105999999999944 0.907042
v -0.253587 0.31552100000000005 0.708648
v 0.120266 0.31552100000000005 0.708648
v -0.253587 0.315521 0.311862
v 0.120266 0.315521 0.311862
v -0.253587 -0.028105999999999992 0.113469
v 0.120266 -0.028105999999999992 0.113469
v -0.253587 -0.371734 0.311862
v 0.120266 -0.371733 0.311862
v -0.253587 -0.37173399999999995 0.708648
v 0.120266 -0.3717329999999999 0.708648
v 0.120266 0.34306000000000003 0.724548
v -0.253587 0.34306000000000003 0.724548
v -0.253587 -0.02810599999999994 0.93884
v 0.120266 -0.02810599999999994 0.93884
v -0.253587 -0.39927199999999996 0.724548
v 0.120266 -0.39927199999999996 0.724548
v -0.253587 -0.399272 0.295962
v 0.120266 -0.399272 0.295962
v -0.253587 -0.028105999999999996 0.08167
v 0.120266 -0.028105999999999996 0.08167
v -0.253587 0.34306 0.295962
v 0.120266 0.34306 0.295962
v -0.253587 0.34306000000000003 0.724548
v 0.120266 0.34306000000000003 0.724548
vt 0.593207 0.027143
vt 0.593207 0.017726
vt 0.647309 0.017726
vt 0.647309 0.027143
vt 0.593207 0.027143
vt 0.725068 0.025425
vt 0.734170 0.025425
vt 0.734170 0.057376
vt 0.734170 0.057376
vt 0.725068 0.057376
vt 0.593207 0.055393
vt 0.593207 0.045976
vt 0.647309 0.045976
vt 0.647309 0.055393
vt 0.752374 0.025425
vt 0.761476 0.025425
vt 0.761476 0.057376
vt 0.752374 0.057376
vt 0.593207 0.036559
vt 0.593207 0.027143
vt 0.647309 0.027143
vt 0.647309 0.036559
vt 0.734170 0.025425
vt 0.743272 0.025425
vt 0.743272 0.057376
vt 0.734170 0.057376
vt 0.254682 0.334991
vt 0.254682 0.278102
vt 0.320101 0.278102
vt 0.320101 0.334991
vt 0.385669 0.278102
vt 0.385669 0.334991
vt 0.451081 0.278102
vt 0.451081 0.334991
vt 0.516717 0.278102
vt 0.516717 0.334991
vt 0.582354 0.278102
vt 0.582354 0.334991
vt 0.647991 0.278102
vt 0.647991 0.334991
vt 0.647991 0.278102
vt 0.647991 0.334991
vt 0.582354 0.334991
vt 0.582354 0.278102
vt 0.516717 0.334991
vt 0.516717 0.278102
vt 0.451081 0.334991
vt 0.451081 0.278102
vt 0.385669 0.334991
vt 0.385669 0.278102
vt 0.320101 0.334991
vt 0.320101 0.278102
vt 0.254682 0.334991
vt 0.254682 0.278102
vn 0 0.44721400000000006 0.894427
vn -0 -0.894427 0.44721400000000006
vn -0 -0.44721399999999994 0.894427
vn 0 0.894427 0.44721399999999994
vn 0 0.44721400000000006 0.894427
vn 0 -0.44721399999999994 0.894427
vn 1E-06 0.894427 0.44721399999999994
vn 0 0.44721400000000006 0.894427
vn 0 0.44721400000000006 0.894427
vn 0 -0.894427 0.44721400000000006
vn -0 -0.894427 0.44721400000000006
vn -0 -1 6.123233995736766E-17
vn -0 -1 6.123233995736766E-17
vn -0 -0.44721399999999994 0.894427
vn 0 -1 6.123233995736766E-17
vn 0 -0.44721399999999994 0.894427
vn 0 -0.894427 0.44721400000000006
vn 0 -1 6.123233995736766E-17
vn 0 1 -6.123233995736766E-17
vn 0 0.44721400000000006 0.894427
vn 0 0.894427 0.44721399999999994
vn 0 1 -6.123233995736766E-17
vn 1E-06 0.894427 0.44721399999999994
vn 1E-06 1 -6.123233995736766E-17
vn 1E-06 1 -6.123233995736766E-17
vn 0 0.44721400000000006 0.894427
vn -0 0.755929 -0.654654
vn -0 0.944911 -0.32732700000000003
vn 0 0.18898199999999996 -0.981981
vn 0 -0.18898200000000007 -0.981981
vn 0 -0.755929 -0.654654
vn 0 -0.944911 -0.3273269999999999
vn -0 -0.944911 0.32732700000000003
vn -0 -0.755929 0.654654
vn -0 -0.18898199999999996 0.98198
vn -0 0.18898200000000007 0.981981
vn -0 0.755929 0.654654
vn -0 0.944911 0.3273269999999999
vn -0 0.944911 -0.32732700000000003
vn -0 0.755929 -0.654654
vn 0 0.755929 0.654654
vn 0 0.944911 0.3273269999999999
vn 0 0.18898200000000007 0.981981
vn -0 -0.18898299999999996 0.98198
vn -0 -0.755929 0.654653
vn -0 -0.944911 0.32732700000000003
vn -0 -0.944911 -0.3273269999999999
vn -0 -0.755929 -0.654654
vn -0 -0.18898200000000007 -0.981981
vn -0 0.18898199999999996 -0.98198
vn -0 0.755929 -0.654654
vn 0 0.944911 -0.32732700000000003
vn 0 0.944911 0.3273269999999999
vn 0 0.755929 0.654654
g orig_Default Standard
f 1/1/1 2/2/2 3/3/3
f 3/3/3 4/4/4 5/5/5
f 6/6/6 7/7/7 8/8/8
f 9/9/9 10/10/10 6/6/6
f 11/11/11 12/12/12 13/13/13
f 13/13/13 14/14/14 11/11/11
f 15/15/15 16/16/16 17/17/17
f 17/17/17 18/18/18 15/15/15
f 19/19/19 20/20/20 21/21/21
f 21/21/21 22/22/22 19/19/19
f 23/23/23 24/24/24 25/25/25
f 25/25/25 26/26/26 23/23/23
f 27/27/27 28/28/28 29/29/29
f 29/29/29 30/30/30 27/27/27
f 30/30/30 29/29/29 31/31/31
f 31/31/31 32/32/32 30/30/30
f 32/32/32 31/31/31 33/33/33
f 33/33/33 34/34/34 32/32/32
f 34/34/34 33/33/33 35/35/35
f 35/35/35 36/36/36 34/34/34
f 36/36/36 35/35/35 37/37/37
f 37/37/37 38/38/38 36/36/36
f 38/38/38 37/37/37 39/39/39
f 39/39/39 40/40/40 38/38/38
f 41/41/41 42/42/42 43/43/43
f 43/43/43 44/44/44 41/41/41
f 44/44/44 43/43/43 45/45/45
f 45/45/45 46/46/46 44/44/44
f 46/46/46 45/45/45 47/47/47
f 47/47/47 48/48/48 46/46/46
f 48/48/48 47/47/47 49/49/49
f 49/49/49 50/50/50 48/48/48
f 50/50/50 49/49/49 51/51/51
f 51/51/51 52/52/52 50/50/50
f 52/52/52 51/51/51 53/53/53
f 53/53/53 54/54/54 52/52/52
