v 0.100143 -0.025471 7.200000000000156E-05
v 0.04934 -0.025262999999999994 0.088068
v -0.052268 -0.024846999999999994 0.088068
v -0.103071 -0.024639 7.20000000000015E-05
v -0.052268 -0.024847000000000008 -0.087923
v 0.04934 -0.025263000000000008 -0.087923
v 0.100352 0.025513 7.199999999999844E-05
v 0.049548 0.025720000000000007 0.088068
v -0.052059 0.026136000000000006 0.088068
v -0.102863 0.026344 7.199999999999839E-05
v -0.052059 0.026135999999999993 -0.087923
v 0.049548 0.025719999999999993 -0.087923
vt 0.838195 0.639215
vt 0.824927 0.623866
vt 0.824927 0.593169
vt 0.838195 0.577820
vt 0.851465 0.593169
vt 0.851465 0.623866
vt 0.824463 0.698741
vt 0.837732 0.714090
vt 0.851001 0.698741
vt 0.851001 0.668044
vt 0.837732 0.652696
vt 0.824463 0.668044
vn -0.00409 -0.999992 6.1231850098648E-17
vn -0.004089 -0.999992 1.0000000000612318E-06
vn -0.00409 -0.999992 1.0000000000612318E-06
vn -0.00409 -0.999992 6.1231850098648E-17
vn -0.00409 -0.999992 6.1231850098648E-17
vn -0.004089 -0.999992 -9.999999999387682E-07
vn 0.004091 0.999992 -6.1231850098648E-17
vn 0.00409 0.999992 -6.1231850098648E-17
vn 0.00409 0.999992 -1.0000000000612318E-06
vn 0.00409 0.999992 -6.1231850098648E-17
vn 0.00409 0.999992 9.999999999387682E-07
vn 0.00409 0.999992 -6.1231850098648E-17
g 01
f 9/9/9 8/8/8 10/10/10
f 8/8/8 12/12/12 10/10/10
f 8/8/8 7/7/7 12/12/12
f 12/12/12 11/11/11 10/10/10
f 4/4/4 5/5/5 3/3/3
f 5/5/5 1/1/1 3/3/3
f 5/5/5 6/6/6 1/1/1
f 1/1/1 2/2/2 3/3/3
