v -0.054797 0.279046 5.099999999998291E-05
v -0.027142 0.279031 0.047949999999999986
v 0.028167 0.279002 0.047949999999999986
v 0.055822 0.278988 5.099999999998292E-05
v 0.028167 0.279002 -0.047848000000000016
v -0.027142 0.279031 -0.047848000000000016
v -0.055118 -0.340078 5.100000000002082E-05
v -0.027464 -0.340092 0.04795000000000002
v 0.027845 -0.340121 0.04795000000000002
v 0.0555 -0.340135 5.100000000002083E-05
v 0.027845 -0.340121 -0.04784799999999998
v -0.027464 -0.340092 -0.04784799999999998
v 0.113004 0.173121 -0.02124200000000001
v 0.080536 0.173138 0.01339299999999999
v 0.112989 0.143789 -0.02124200000000001
v 0.080521 0.143806 0.013392999999999992
v 0.037973 0.17316 0.02134299999999999
v 0.037958 0.143828 0.02134299999999999
v -0.007399 0.542617 0.013991999999999966
v 0.008698 0.542609 0.013991999999999966
v -0.007553 0.246735 0.013991999999999984
v 0.008544 0.246727 0.013991999999999984
v -0.092813 0.383732 5.09999999999765E-05
v -0.046123 0.383708 0.08091999999999998
v 0.047257 0.383659 0.08091999999999998
v 0.093947 0.383635 5.0999999999976506E-05
v 0.047257 0.383659 -0.08081800000000003
v -0.046123 0.383708 -0.08081800000000003
v 0.112848 -0.127525 -0.021241999999999994
v 0.080379 -0.127508 0.013393000000000009
v 0.112832 -0.156857 -0.02124199999999999
v 0.080364 -0.15684 0.01339300000000001
v 0.037817 -0.127486 0.021343000000000008
v 0.037802 -0.156818 0.02134300000000001
v -0.112089 0.173238 0.02134299999999999
v -0.112104 0.143907 0.02134299999999999
v -0.037058 0.1732 0.02134299999999999
v -0.037073 0.143868 0.02134299999999999
v -0.112245 -0.127408 0.021343000000000008
v -0.11226 -0.15674 0.02134300000000001
v -0.037214 -0.127447 0.021343000000000008
v -0.03723 -0.156779 0.02134300000000001
v 0.027845 -0.340121 -0.04784799999999998
v 0.028167 0.279002 -0.047848000000000016
v 0.080536 0.173138 0.01339299999999999
v 0.080521 0.143806 0.013392999999999992
v 0.080379 -0.127508 0.013393000000000009
v 0.080364 -0.15684 0.01339300000000001
vt 0.872688 0.172304
vt 0.864349 0.172304
vt 0.856009 0.172304
vt 0.847669 0.172304
vt 0.839329 0.172304
vt 0.881029 0.172304
vt 0.872688 0.359351
vt 0.864349 0.359351
vt 0.856009 0.359351
vt 0.847669 0.359351
vt 0.839329 0.359351
vt 0.881029 0.359351
vt 0.493077 0.819900
vt 0.500178 0.819900
vt 0.493077 0.828694
vt 0.500178 0.828694
vt 0.506705 0.831002
vt 0.506705 0.822275
vt 0.929540 0.728568
vt 0.929540 0.723704
vt 0.884924 0.728568
vt 0.884924 0.723704
vt 0.874331 0.477175
vt 0.886526 0.463069
vt 0.886526 0.434858
vt 0.874331 0.420753
vt 0.862137 0.434858
vt 0.862137 0.463069
vt 0.493077 0.819900
vt 0.500178 0.819900
vt 0.493077 0.828694
vt 0.500178 0.828694
vt 0.506705 0.831002
vt 0.506705 0.822275
vt 0.495499 0.809567
vt 0.495499 0.800726
vt 0.506705 0.809567
vt 0.506705 0.800726
vt 0.495499 0.809567
vt 0.495499 0.800726
vt 0.506705 0.809567
vt 0.506705 0.800726
vt 0.889369 0.359351
vt 0.889369 0.172304
vt 0.500178 0.828694
vt 0.500178 0.819900
vt 0.500178 0.828694
vt 0.500178 0.819900
vn -0.981981 0.0005100000000000116 0.188982
vn -0.327327 0.00017000000000005788 0.944911
vn 0.654654 -0.00033999999999995373 0.755928
vn 0.981981 -0.0005100000000000116 -0.188982
vn 0.327327 -0.00017000000000005788 -0.944911
vn -0.654654 0.00033999999999995373 -0.755928
vn -0.98198 0.0005099999999999884 -0.188982
vn -0.654654 0.0003400000000000463 0.755928
vn 0.327327 -0.00016999999999994214 0.944911
vn 0.981981 -0.0005099999999999884 0.188982
vn 0.654654 -0.0003400000000000463 -0.755928
vn -0.327327 0.00016999999999994214 -0.944911
vn 0.729559 -0.0003779999999999581 0.683918
vn 0.729559 -0.0003779999999999581 0.683918
vn 0.729559 -0.0003779999999999581 0.683918
vn 0.729559 -0.0003779999999999581 0.683918
vn 0.183613 -9.499999999993982E-05 0.982999
vn 0.183613 -9.499999999993982E-05 0.982999
vn 0 6.123233995736766E-17 1
vn 0 6.123233995736766E-17 1
vn 0 6.123233995736766E-17 1
vn 0 6.123233995736766E-17 1
vn -0.000519 -1 6.123233995736766E-17
vn -0.00052 -1 6.123233995736766E-17
vn -0.00052 -1 6.123233995736766E-17
vn -0.00052 -1 6.123233995736766E-17
vn -0.00052 -1 6.123233995736766E-17
vn -0.00052 -1 6.123233995736766E-17
vn 0.729559 -0.0003809999999999581 0.683918
vn 0.729559 -0.0003809999999999581 0.683918
vn 0.729559 -0.0003809999999999581 0.683918
vn 0.729559 -0.0003809999999999581 0.683918
vn 0.183613 -9.499999999993982E-05 0.982999
vn 0.183613 -9.499999999993982E-05 0.982999
vn 0 6.123233995736766E-17 1
vn 0 6.123233995736766E-17 1
vn 0 6.123233995736766E-17 1
vn 0 6.123233995736766E-17 1
vn 0 6.123233995736766E-17 1
vn 0 6.123233995736766E-17 1
vn 0 6.123233995736766E-17 1
vn 0 6.123233995736766E-17 1
vn 0.654654 -0.0003400000000000463 -0.755928
vn 0.327327 -0.00017000000000005788 -0.944911
vn 0.183613 -9.499999999993982E-05 0.982999
vn 0.183613 -9.499999999993982E-05 0.982999
vn 0.183613 -9.499999999993982E-05 0.982999
vn 0.183613 -9.599999999993982E-05 0.982999
g 01
f 41/41/41 39/39/39 40/40/40
f 40/40/40 42/42/42 41/41/41
f 37/37/37 35/35/35 36/36/36
f 36/36/36 38/38/38 37/37/37
f 34/34/34 48/48/48 47/47/47
f 47/47/47 33/33/33 34/34/34
f 31/31/31 29/29/29 30/30/30
f 30/30/30 32/32/32 31/31/31
f 25/25/25 24/24/24 26/26/26
f 24/24/24 28/28/28 26/26/26
f 24/24/24 23/23/23 28/28/28
f 28/28/28 27/27/27 26/26/26
f 22/22/22 20/20/20 19/19/19
f 19/19/19 21/21/21 22/22/22
f 18/18/18 46/46/46 45/45/45
f 45/45/45 17/17/17 18/18/18
f 15/15/15 13/13/13 14/14/14
f 14/14/14 16/16/16 15/15/15
f 7/7/7 1/1/1 6/6/6
f 6/6/6 12/12/12 7/7/7
f 12/12/12 6/6/6 44/44/44
f 44/44/44 43/43/43 12/12/12
f 11/11/11 5/5/5 4/4/4
f 4/4/4 10/10/10 11/11/11
f 10/10/10 4/4/4 3/3/3
f 3/3/3 9/9/9 10/10/10
f 9/9/9 3/3/3 2/2/2
f 2/2/2 8/8/8 9/9/9
f 8/8/8 2/2/2 1/1/1
f 1/1/1 7/7/7 8/8/8
