v -0.295258 -0.299785 0.017523000000000018
v -0.295258 0.301542 0.017522999999999983
v 0.299187 0.301542 0.017522999999999983
v 0.299187 -0.299785 0.017523000000000018
v 0.022461 0.026737999999999998 -0.069317
v 0.032371 -0.010245000000000004 -0.069317
v 0.00026 -0.031098000000000004 -0.069317
v 0.022461 0.026738000000000043 0.67013
v 0.032371 -0.010244999999999959 0.67013
v 0.00026 -0.03109799999999996 0.67013
v -0.118701 -0.030904999999999957 0.665134
v -0.114661 0.04619500000000004 0.665134
v -0.066073 0.10619600000000004 0.665134
v 0.008502 0.12617800000000004 0.665134
v 0.080581 0.09851000000000004 0.665134
v 0.12263 0.03375900000000004 0.665134
v 0.11859 -0.043340999999999956 0.665134
v 0.070002 -0.10334199999999996 0.665134
v -0.004573 -0.12332399999999996 0.665134
v -0.076652 -0.09565599999999996 0.665134
v -0.118701 -0.03090499999999995 0.785018
v -0.114661 0.04619500000000005 0.785018
v -0.066073 0.10619600000000004 0.785018
v 0.008502 0.12617800000000007 0.785018
v 0.080581 0.09851000000000004 0.785018
v 0.12263 0.033759000000000046 0.785018
v 0.11859 -0.04334099999999995 0.785018
v 0.070002 -0.10334199999999996 0.785018
v -0.004573 -0.12332399999999996 0.785018
v -0.076652 -0.09565599999999996 0.785018
v 0.032371 -0.010244999999999959 0.67013
v 0.032371 -0.010245000000000004 -0.069317
v 0.11859 -0.04334099999999995 0.785018
v 0.11859 -0.043340999999999956 0.665134
v 0.008502 0.12617800000000007 0.785018
v 0.080581 0.09851000000000004 0.785018
v 0.12263 0.033759000000000046 0.785018
v 0.11859 -0.04334099999999995 0.785018
v 0.070002 -0.10334199999999996 0.785018
v -0.004573 -0.12332399999999996 0.785018
v -0.076652 -0.09565599999999996 0.785018
v -0.118701 -0.03090499999999995 0.785018
v -0.114661 0.04619500000000005 0.785018
v -0.066073 0.10619600000000004 0.785018
v 0.022461 0.026738000000000043 0.67013
v 0.022461 0.026737999999999998 -0.069317
v 0.022461 0.026737999999999998 -0.069317
v 0.00026 -0.03109799999999996 0.67013
v 0.00026 -0.031098000000000004 -0.069317
v 0.00026 -0.03109799999999996 0.67013
vt 0.557885 0.531957
vt 0.643136 0.531957
vt 0.643136 0.363119
vt 0.557885 0.363119
vt 0.740496 0.779180
vt 0.746269 0.779180
vt 0.723176 0.779180
vt 0.740496 0.555782
vt 0.746269 0.555782
vt 0.723176 0.555782
vt 0.132289 0.131243
vt 0.143931 0.131243
vt 0.155572 0.131243
vt 0.167216 0.131243
vt 0.178857 0.131243
vt 0.190498 0.131243
vt 0.202140 0.131243
vt 0.097362 0.131243
vt 0.109004 0.131243
vt 0.120648 0.131243
vt 0.132289 0.095024
vt 0.143931 0.095024
vt 0.155572 0.095024
vt 0.167216 0.095024
vt 0.178857 0.095024
vt 0.190498 0.095024
vt 0.202140 0.095024
vt 0.097362 0.095024
vt 0.109004 0.095024
vt 0.120648 0.095024
vt 0.717403 0.555782
vt 0.717403 0.779180
vt 0.085721 0.095024
vt 0.085721 0.131243
vt 0.742638 0.445512
vt 0.739041 0.423328
vt 0.729623 0.409618
vt 0.717981 0.409618
vt 0.708562 0.423329
vt 0.704964 0.445512
vt 0.708562 0.467696
vt 0.717981 0.481405
vt 0.729623 0.481405
vt 0.739041 0.467696
vt 0.740496 0.555782
vt 0.740496 0.779180
vt 0.740496 0.779180
vt 0.723176 0.555782
vt 0.723176 0.779180
vt 0.723176 0.555782
vn 0 6.123233995736766E-17 1
vn 0 6.123233995736766E-17 1
vn 0 6.123233995736766E-17 1
vn 0 6.123233995736766E-17 1
vn 0.052336 0.99863 -6.114845165162607E-17
vn 0.822999 -0.568043 3.4782602086402996E-17
vn -0.629321 -0.777145 4.758640683616849E-17
vn 0.052336 0.99863 -6.114845165162607E-17
vn 0.991702 -0.128556 7.871784695559357E-18
vn -0.629321 -0.777145 4.758640683616849E-17
vn -0.988179 -0.153306 9.387285109504206E-18
vn -0.889565 0.45681 -2.797154521592512E-17
vn -0.451167 0.89244 -5.46461894715532E-17
vn 0.159561 0.987188 -6.044783121783386E-17
vn 0.709342 0.704864 -4.316047207171E-17
vn 0.988179 0.153307 -9.387346341844163E-18
vn 0.889564 -0.45681 2.797154521592512E-17
vn 0.451167 -0.89244 5.46461894715532E-17
vn -0.159561 -0.987188 6.044783121783386E-17
vn -0.709342 -0.704864 4.316047207171E-17
vn -0.932441 -0.361322 2.2124591538075996E-17
vn -0.96674 0.255759 -1.5660722035156397E-17
vn -0.631778 0.77515 -4.7464248317953545E-17
vn -0.055498 0.998459 -6.113798092149336E-17
vn 0.541981 0.840391 -5.1459107409112164E-17
vn 0.932441 0.361322 -2.2124591538075996E-17
vn 0.966741 -0.255759 1.5660722035156397E-17
vn 0.631777 -0.77515 4.7464248317953545E-17
vn 0.055498 -0.998459 6.113798092149336E-17
vn -0.541981 -0.840391 5.1459107409112164E-17
vn 0.991702 -0.128556 7.871784695559357E-18
vn 0.822999 -0.568043 3.4782602086402996E-17
vn 0.966741 -0.255759 1.5660722035156397E-17
vn 0.889564 -0.45681 2.797154521592512E-17
vn 0 6.123233995736766E-17 1
vn 0 6.123233995736766E-17 1
vn 0 6.123233995736766E-17 1
vn 0 6.123233995736766E-17 1
vn 0 6.123233995736766E-17 1
vn 0 6.123233995736766E-17 1
vn 0 6.123233995736766E-17 1
vn 0 6.123233995736766E-17 1
vn 0 6.123233995736766E-17 1
vn 0 6.123233995736766E-17 1
vn 0.052336 0.99863 -6.114845165162607E-17
vn 0.052336 0.99863 -6.114845165162607E-17
vn 0.052336 0.99863 -6.114845165162607E-17
vn -0.629321 -0.777145 4.758640683616849E-17
vn -0.629321 -0.777145 4.758640683616849E-17
vn -0.629321 -0.777145 4.758640683616849E-17
g 01
f 44/44/44 43/43/43 35/35/35
f 43/43/43 41/41/41 35/35/35
f 43/43/43 42/42/42 41/41/41
f 41/41/41 37/37/37 35/35/35
f 41/41/41 39/39/39 37/37/37
f 41/41/41 40/40/40 39/39/39
f 39/39/39 38/38/38 37/37/37
f 37/37/37 36/36/36 35/35/35
f 21/21/21 11/11/11 20/20/20
f 20/20/20 30/30/30 21/21/21
f 30/30/30 20/20/20 19/19/19
f 19/19/19 29/29/29 30/30/30
f 29/29/29 19/19/19 18/18/18
f 18/18/18 28/28/28 29/29/29
f 28/28/28 18/18/18 34/34/34
f 34/34/34 33/33/33 28/28/28
f 27/27/27 17/17/17 16/16/16
f 16/16/16 26/26/26 27/27/27
f 26/26/26 16/16/16 15/15/15
f 15/15/15 25/25/25 26/26/26
f 25/25/25 15/15/15 14/14/14
f 14/14/14 24/24/24 25/25/25
f 24/24/24 14/14/14 13/13/13
f 13/13/13 23/23/23 24/24/24
f 23/23/23 13/13/13 12/12/12
f 12/12/12 22/22/22 23/23/23
f 22/22/22 12/12/12 11/11/11
f 11/11/11 21/21/21 22/22/22
f 50/50/50 49/49/49 32/32/32
f 32/32/32 31/31/31 48/48/48
f 9/9/9 6/6/6 47/47/47
f 46/46/46 45/45/45 9/9/9
f 5/5/5 7/7/7 10/10/10
f 10/10/10 8/8/8 5/5/5
f 3/3/3 2/2/2 1/1/1
f 1/1/1 4/4/4 3/3/3
