v 0.662646 0.567343 0.701502
v 0.662646 -0.06406999999999996 0.701502
v 0.629071 0.544667 0.65456
v 0.6281 0.544667 0.71223
v 0.592749 0.545036 0.711956
v 0.639288 0.545036 0.713356
v 0.290934 0.5450360000000001 0.98749
v 0.366274 0.544822 0.711679
v 0.43014 0.544822 0.712472
v 0.208372 0.5673430000000002 1.059531
v -0.245903 0.567343 0.704276
v -0.245903 -0.23359599999999994 0.704276
v -0.212328 0.544666 0.65456
v -0.19152 0.544667 0.71223
v 0.206972 0.5450360000000001 1.00366
v 0.208372 0.5450360000000001 1.056826
v 0.208372 0.5374500000000001 0.939075
v 0.208372 0.5374500000000001 1.003266
v 0.050469 0.545741 0.711679
v -0.013396 0.545741 0.712472
v 0.394587 0.54082 0.664784
v 0.462669 0.54082 0.657297
v 0.616127 0.54084 0.40604199999999996
v 0.588108 0.54084 0.49707399999999996
v 0.59703 0.548502 -0.06377800000000003
v 0.59703 -0.008176000000000003 -0.063778
v 0.59703 0.548502 0.749574
v 0.59703 -0.44887599999999994 0.698915
v 0.613084 0.505965 -0.06377800000000003
v 0.613084 -0.008176000000000003 -0.063778
v 0.613084 0.505965 0.704645
v 0.613084 -0.44887599999999994 0.704645
v 0.578955 0.547528 -0.06407000000000003
v 0.578955 0.547528 0.658954
v 0.63045 0.49128800000000006 0.658954
v 0.63045 0.491288 -0.06407000000000003
v 0.63045 0.547528 0.658954
v 0.63045 0.547528 -0.06407000000000003
v 0.63045 0.547528 0.658954
v 0.63045 0.547528 -0.06407000000000003
v 1.145938 0.06988500000000006 0.93644
v 1.145939 0.069885 -0.06407
v 1.145939 0.069885 -0.06407
v 1.145938 0.06988500000000006 0.951195
v 1.145939 0.011449999999999997 -0.06407
v 1.145938 0.01144900000000006 0.951195
v 1.153434 -0.32063299999999995 0.953577
v 0.379087 -0.32063299999999995 0.953578
v 1.153434 0.40674800000000005 0.953577
v 0.37939 0.40674800000000005 0.953578
v 0.770702 0.11912500000000005 0.95461
v 0.770702 -0.20372799999999994 0.95461
v 0.735228 0.014225000000000087 1.404093
v 0.735228 -0.09882799999999992 1.404093
v 0.448136 0.11912500000000005 0.950423
v 0.448136 -0.20372799999999994 0.950423
v 0.55338 0.014225000000000087 1.408281
v 0.55338 -0.09882799999999992 1.408281
v -0.588728 1.151314 -0.013813000000000072
v -0.54321 1.196832 -0.013813000000000073
v -0.588728 1.151314 0.24631199999999992
v -0.54321 1.196832 0.24631199999999992
v -0.929386 0.721083 0.583957
v -0.883731 0.675429 0.583957
v -1.015441 0.635028 0.583957
v -0.969787 0.589374 0.583957
v -0.836388 0.722772 -0.0037380000000000442
v -1.01713 0.54203 -0.0037380000000000334
v -1.083282 0.627797 -0.0037380000000000386
v -0.696077 0.31566400000000006 0.583957
v -0.741731 0.36131800000000003 0.583957
v -0.610022 0.40171900000000005 0.583957
v -0.655676 0.4473730000000001 0.583957
v -0.789075 0.313975 -0.003738000000000019
v -0.691064 0.215964 -0.003738000000000013
v -0.608332 0.494717 -0.0037380000000000304
v -0.510321 0.396706 -0.0037380000000000243
v -0.90254 0.808539 -0.0037380000000000494
v 1.136944 -0.30642099999999994 0.943932
v 1.136594 0.37004200000000004 0.943932
v 0.750587 -0.30677299999999996 0.943932
v 1.136944 -0.30642099999999994 1.244575
v 0.750587 -0.30677299999999996 1.244575
v 1.136594 0.37004200000000004 1.244575
v 0.750587 -0.32063299999999995 1.248538
v 0.750587 -0.28291399999999994 1.248538
v 1.109712 -0.2829499999999999 1.248537
v 1.109753 0.40674800000000005 1.248537
v 1.153434 0.40674800000000005 1.248537
v 1.153434 -0.32063299999999995 1.248537
v 0.97543 0.4089400000000001 1.094636
v 1.003632 0.40684000000000003 1.094636
v 0.987403 0.562299 -0.0017600000000000345
v 1.016677 0.55988 -0.0017600000000000343
v 1.128354 0.20713500000000007 0.91407
v 1.128354 0.20713500000000007 0.95211
v 1.142004 0.06568200000000005 0.778557
v 1.142004 0.039656000000000045 0.797577
v 1.135237 0.34222600000000003 0.780455
v 1.135237 0.3682520000000001 0.799475
v -1.318182 0.558553 -0.31402500000000005
v -0.844609 1.032127 -0.31402500000000005
v -0.772371 0.012742999999999982 -0.314025
v -0.298797 0.486316 -0.31402500000000005
v -1.247277 0.553529 -0.001146000000000034
v -0.839584 0.961223 -0.0011460000000000589
v -0.777396 0.083646 -0.0011460000000000053
v -0.369701 0.49134 -0.0011460000000000302
v -0.165082 0.542501 0.4173029999999999
v -0.165082 0.542501 0.754563
v -0.165082 -0.20597199999999993 0.754563
v -0.165082 -0.10183199999999998 0.417303
v -0.149028 0.542501 0.4418329999999999
v -0.149028 -0.10183199999999998 0.417303
v -0.149028 -0.20597199999999993 0.774454
v -0.149028 0.542501 0.774454
v 0.208372 -0.7325449999999999 1.059531
v 0.662646 -0.592691 0.63955
v 0.854175 0.565572 -0.0007200000000000346
v 1.004849 0.565572 -0.0007200000000000346
v 0.878504 0.40816700000000006 1.072366
v 0.991216 0.40816700000000006 1.072366
v 1.262868 1.13009 0.0027939999999999307
v 1.259309 1.143373 0.0027939999999999302
v 1.265738 1.119379 1.115113
v 1.256439 1.154084 1.115113
v 1.271431 1.098134 0.12056799999999993
v 1.267651 1.112241 0.12072899999999993
v 1.250746 1.175329 0.12056799999999993
v 1.254526 1.161222 0.12072899999999993
v 1.348641 1.179248 0.4180749999999999
v 1.318175 1.171085 0.44401699999999994
v 1.26754 1.157517 0.45947999999999994
v 1.357869 1.144807 0.4180749999999999
v 1.327404 1.136643 0.44401699999999994
v 1.276769 1.123076 0.45947999999999994
v -0.17722 1.183988 0.1356789999999999
v -0.232673 1.164778 0.1356789999999999
v -0.243763 1.222406 0.1356789999999999
v -0.188311 1.241616 0.1356789999999999
v 1.56638 0.593179 0.4109979999999999
v 1.550831 0.589013 0.4109979999999999
v 1.537657 0.700377 0.4109979999999999
v 1.522108 0.69621 0.4109979999999999
v -0.028564 1.164463 -7.130279428377622E-17
v -0.048564 1.164484 -7.130408016291533E-17
v 0.065801 -0.254127 2.0000000000155608E-06
v 0.045801 -0.254106 -1.9999999999844403E-06
v -0.968278 0.768995 0.538139
v -0.954136 0.754853 0.538139
v -0.583021 1.081366 0.10695099999999994
v -0.5677 1.068511 0.10695399999999992
v 1.017228 1.951776 0.9058069999999999
v 1.064152 1.964349 0.9058069999999999
v 1.058035 1.988826 -0.04119800000000012
v 1.011111 1.976253 -0.041198000000000116
v 1.194567 1.291587 0.8463569999999999
v 1.241491 1.304161 0.8463569999999999
v 1.241491 1.304161 0.19932099999999991
v 1.194567 1.291588 0.19932099999999991
v 0.994615 2.020117 0.9067689999999999
v 1.05039 2.035062 0.9067689999999999
v 1.447853 0.5517090000000001 0.906769
v 1.392079 0.5367650000000002 0.906769
v 1.447852 0.551709 0.834593
v 1.050389 2.035062 0.8345929999999999
v 1.392079 0.536765 0.834593
v 0.994615 2.020117 0.8345929999999999
v 1.212141 1.42056 0.9056859999999999
v 1.197196 1.476334 0.9056859999999999
v 1.505907 1.560507 0.9056859999999999
v 1.520852 1.504733 0.9056859999999999
v 1.505907 1.560507 0.8335089999999999
v 1.197196 1.476334 0.8335089999999999
v 1.520852 1.504733 0.8335089999999999
v 1.212141 1.42056 0.8335089999999999
v 0.862514 1.332196 0.42170199999999997
v 0.850252 1.377958 0.4217019999999999
v 1.460701 1.541528 0.4217019999999999
v 1.472963 1.495765 0.4217019999999999
v 1.465021 1.518215 0.8463569999999999
v 1.511945 1.530789 0.8463569999999999
v 1.511945 1.530789 -0.041197000000000095
v 1.465021 1.518215 -0.04119700000000009
v 1.246758 1.280633 0.42170199999999997
v 1.234496 1.326395 0.42170199999999997
v 1.499332 1.397358 0.4217019999999999
v 1.511594 1.351595 0.42170199999999997
v 1.444947 1.352171 0.4209629999999999
v 1.484648 1.362809 0.42096299999999987
v 1.501671 1.373876 -0.04119700000000008
v 1.46197 1.363238 -0.04119700000000008
v 1.429464 0.598763 0.42170199999999997
v 1.417202 0.644526 0.42170199999999997
v 1.682038 0.715488 0.42170199999999997
v 1.6943 0.669726 0.42170199999999997
v 1.112444 1.717558 0.44095099999999987
v 1.046559 1.963446 0.44095099999999987
v 1.099061 1.713972 0.44095099999999987
v 1.033175 1.95986 0.44095099999999987
v 1.108929 1.168596 0.0021259999999999283
v 1.387297 1.243184 0.0021259999999999235
v 1.230601 0.714508 0.002125999999999956
v 1.508969 0.789096 0.0021259999999999517
v 0.900972 1.381242 0.3225709999999999
v 0.635061 1.309992 0.04727899999999992
v 0.908537 1.353009 0.32257099999999994
v 0.642626 1.281758 0.047278999999999925
v 1.374156 0.622849 0.11839699999999996
v 1.218533 0.581149 -0.04271700000000003
v 1.381721 0.594615 0.11839699999999996
v 1.226098 0.552916 -0.04271700000000003
v 1.390826 0.601597 0.11839699999999996
v 1.432525 0.445974 -0.042717000000000026
v 1.419059 0.609163 0.11839699999999996
v 1.460758 0.453539 -0.042717000000000026
v 1.008123 1.988905 0.11839699999999988
v 0.852499 1.947206 -0.042717000000000116
v 0.860064 1.918972 -0.042717000000000116
v 1.015688 1.960671 0.11839699999999988
v 1.171108 1.287729 -0.04504700000000007
v 1.258257 1.309989 -0.04504700000000008
v 1.256493 1.307311 0.20101299999999991
v 1.174363 1.286395 0.20101299999999991
v -1.35999 1.391681 -0.1854560000000001
v -1.152626 1.296556 -0.1854560000000001
v -1.318427 0.946525 -0.18545600000000007
v -1.52579 1.041649 -0.18545600000000007
v -1.126855 1.310452 0.1292069999999999
v -1.367427 1.422632 0.1292069999999999
v -1.31099 0.915574 0.12920699999999993
v -1.551561 1.027755 0.12920699999999993
v -0.495435 1.175491 0.05613299999999993
v -0.484604 1.158677 0.05613299999999993
v -0.353688 1.333447 0.062393999999999915
v -0.344364 1.315754 0.062393999999999915
v -0.024774 1.05534 -0.17510500000000007
v -0.024774 1.05534 -0.011091000000000064
v -0.049129 1.079694 -0.011091000000000066
v -0.049129 1.079694 -0.17510500000000007
v -0.224083 1.415159 -0.008563000000000086
v -0.007377 1.042889 -0.008563000000000064
v -0.855012 0.939794 -0.008563000000000057
v -0.482742 0.567524 -0.008563000000000034
v -0.379647 1.415159 -0.008563000000000086
v -0.007377 1.198453 -0.008563000000000072
v -0.026669 1.188349 -0.1784310000000001
v -0.026669 1.188349 -0.011091000000000073
v -0.051023 1.212703 -0.011091000000000075
v -0.051023 1.212703 -0.1784310000000001
v 1.334263 0.8636410000000001 1.115113
v 1.343562 0.8289370000000001 1.115113
v 1.349254 0.807691 0.12056799999999994
v 1.345474 0.821799 0.12072899999999995
v 1.32857 0.884887 0.12056799999999994
v 1.33235 0.870779 0.12072899999999995
v 1.340692 0.839647 0.0027939999999999484
v 1.337133 0.852931 0.002793999999999948
v 1.345364 0.867075 0.45947999999999994
v 1.426465 0.888806 0.4180749999999999
v 1.395999 0.880642 0.44401699999999994
v 1.354593 0.832633 0.45947999999999994
v 1.405227 0.846201 0.44401699999999994
v 1.435693 0.854364 0.4180749999999999
v -0.180353 0.545036 0.712569
v -0.226892 0.545036 0.71397
v 0.11874 0.5450360000000001 0.985174
v 1.087412 0.399885 -0.06407000000000003
v 1.087412 0.39988500000000005 0.951195
v 1.145938 0.39988500000000005 0.951195
v 1.145938 0.399885 -0.06407000000000003
v 1.145938 0.399885 -0.06407000000000003
v 1.145938 0.39988500000000005 0.951195
v 1.145938 0.34145 -0.06407000000000003
v 1.145938 0.34144900000000006 0.951195
v 1.145938 -0.2566709999999999 0.93644
v 1.145938 -0.256671 -0.06406999999999999
v 1.145938 -0.256671 -0.06406999999999999
v 1.145938 -0.2566709999999999 0.951195
v 1.145938 -0.315106 -0.06406999999999999
v 1.145938 -0.31510699999999997 0.951195
v 0.72828 0.399885 -0.06407000000000003
v 0.72828 0.39988500000000005 0.951195
v 0.786807 0.39988500000000005 0.951195
v 0.786807 0.399885 -0.06407000000000003
v 0.786807 0.399885 -0.06407000000000003
v 0.786807 0.39988500000000005 0.951195
v -0.500489 1.063075 -0.013813000000000067
v -0.454971 1.108593 -0.013813000000000068
v -0.500489 1.063075 0.24631199999999995
v -0.454971 1.108593 0.24631199999999995
v 0.750587 -0.29677299999999995 0.943932
v 1.126202 -0.2971619999999999 0.943932
v 1.126594 0.37004200000000004 0.943932
v 1.126202 -0.2971619999999999 1.244575
v 0.750587 -0.29677299999999995 1.244575
v 1.126594 0.37004200000000004 1.244575
v 0.894427 0.40828700000000007 1.094636
v 0.866162 0.40556500000000006 1.094636
v 0.87045 0.562299 -0.0017600000000000345
v 0.841176 0.559881 -0.0017600000000000343
v 0.893085 1.368788 0.4210009999999999
v 0.932214 1.379272 0.4210009999999999
v 0.930076 1.374877 -0.04119700000000008
v 0.890948 1.364393 -0.04119700000000008
v 1.636049 0.669477 0.42008799999999996
v 1.675751 0.680115 0.42008799999999996
v 1.684378 0.692006 -0.04119700000000004
v 1.644677 0.681368 -0.04119700000000004
v 1.37369 0.621198 0.90554
v 1.420614 0.633771 0.90554
v 1.424621 0.620712 -0.04119800000000003
v 1.377697 0.608139 -0.04119800000000003
v -1.41886 1.267312 -0.1990010000000001
v -1.376207 1.35878 -0.1990010000000001
v -1.376207 1.35878 -0.31101100000000004
v -1.41886 1.267312 -0.31101100000000004
v -0.220398 0.310221 -0.09137600000000001
v -0.220398 0.310221 0.375991
v -0.220398 0.40869200000000006 0.555086
v -0.220398 0.573696 0.683398
v 0.991216 0.40816700000000006 1.072366
v 0.878504 0.40816700000000006 1.072366
v 0.854175 0.565572 -0.0007200000000000346
v 1.004849 0.565572 -0.0007200000000000346
v 0.028845 0.543011 0.685681
v -0.03826 0.543011 0.657297
v -0.192695 0.54084 0.39886199999999994
v -0.1637 0.54084 0.49707399999999996
v 0.206272 0.5450360000000001 1.003419
v 0.208372 0.5450360000000001 1.056826
v -0.220398 0.954729 -0.09137600000000005
v -0.220398 0.632475 0.611035
v -0.220398 0.632475 0.82377
v -0.220398 0.691254 0.683398
v -0.220398 0.954729 0.37599099999999996
v -1.672654 0.791384 -0.18545600000000007
v -1.498806 0.939117 -0.18545600000000007
v -1.500508 0.968347 0.12920699999999993
v -1.703848 0.797724 0.12920699999999993
v -1.25164 0.640921 -0.18545600000000004
v -1.220446 0.634581 0.12920699999999996
v -1.425488 0.493187 -0.18545600000000004
v -1.423786 0.463959 0.12920699999999996
v 1.128354 -0.12296099999999995 0.952109
v 1.128354 -0.12296099999999995 0.914069
v 1.141052 -0.2591689999999999 0.778394
v 1.141052 -0.2851949999999999 0.797414
v 1.136187 0.011506000000000047 0.77844
v 1.136187 0.037533000000000045 0.79746
v -1.464148 1.170194 -0.31101100000000004
v -1.464148 1.170194 -0.1990010000000001
v -1.506801 1.078725 -0.19900100000000007
v -1.506801 1.078725 -0.31101100000000004
v -1.169969 1.262609 -0.31101100000000004
v -1.169969 1.262609 -0.1990010000000001
v -1.212623 1.17114 -0.1990010000000001
v -1.212623 1.17114 -0.31101100000000004
v -1.25791 1.074022 -0.31101100000000004
v -1.25791 1.074022 -0.19900100000000007
v -1.300563 0.982553 -0.19900100000000007
v -1.300563 0.982553 -0.31101100000000004
v -1.646263 0.757807 -0.31101100000000004
v -1.646263 0.757807 -0.19900100000000007
v -1.581391 0.680494 -0.19900100000000007
v -1.581391 0.680494 -0.31101100000000004
v -1.512511 0.598406 -0.31101100000000004
v -1.512511 0.598406 -0.19900100000000004
v -1.447638 0.521093 -0.19900100000000004
v -1.447638 0.521093 -0.31101100000000004
v -1.471943 0.904078 -0.31101100000000004
v -1.40707 0.826765 -0.31101100000000004
v -1.40707 0.826765 -0.19900100000000007
v -1.471943 0.904078 -0.19900100000000007
v -1.338191 0.744677 -0.31101100000000004
v -1.273318 0.667363 -0.31101100000000004
v -1.273318 0.667363 -0.19900100000000004
v -1.338191 0.744677 -0.19900100000000007
v -0.112219 0.954729 0.37599099999999996
v -0.112219 0.898204 0.517136
v -0.112219 0.691254 0.683398
v -0.112617 0.632475 0.82377
v -0.220398 0.954729 -0.09137600000000005
v -0.220398 0.632475 0.82377
v -0.220398 0.691254 0.683398
v -0.220398 0.898204 0.517136
v -0.220398 0.954729 0.37599099999999996
v -0.220398 0.573696 0.683398
v -0.112219 0.310221 -0.09137600000000001
v -0.112219 0.310221 0.375991
v -0.112219 0.573696 0.683398
v -0.112219 0.40869200000000006 0.555086
v -0.220398 0.632475 0.82377
v 0.208372 0.5673430000000002 1.059531
v 0.208372 -0.7325449999999999 1.059531
v -0.245903 -0.23359599999999994 0.704276
v -0.245903 0.567343 0.704276
v 0.662646 0.567343 0.701502
v 0.662646 -0.06406999999999996 0.701502
v 0.662646 -0.592691 0.63955
v 1.058035 1.988826 -0.04119800000000012
v 1.017228 1.951776 0.9058069999999999
v 1.017228 1.951776 0.9058069999999999
v 1.058035 1.988826 -0.04119800000000012
v 1.241491 1.304161 0.19932099999999991
v 1.194567 1.291587 0.8463569999999999
v 1.194567 1.291587 0.8463569999999999
v 1.241491 1.304161 0.19932099999999991
v 1.511945 1.530789 -0.041197000000000095
v 1.465021 1.518215 0.8463569999999999
v 1.465021 1.518215 0.8463569999999999
v 1.511945 1.530789 -0.041197000000000095
v 1.501671 1.373876 -0.04119700000000008
v 1.444947 1.352171 0.4209629999999999
v 1.444947 1.352171 0.4209629999999999
v 1.501671 1.373876 -0.04119700000000008
v 0.930076 1.374877 -0.04119700000000008
v 0.893085 1.368788 0.4210009999999999
v 0.893085 1.368788 0.4210009999999999
v 0.930076 1.374877 -0.04119700000000008
v 1.684378 0.692006 -0.04119700000000004
v 1.636049 0.669477 0.42008799999999996
v 1.636049 0.669477 0.42008799999999996
v 1.684378 0.692006 -0.04119700000000004
v 1.424621 0.620712 -0.04119800000000003
v 1.37369 0.621198 0.90554
v 1.37369 0.621198 0.90554
v 1.424621 0.620712 -0.04119800000000003
v 1.064152 1.964349 0.9058069999999999
v 1.011111 1.976253 -0.041198000000000116
v 1.241491 1.304161 0.8463569999999999
v 1.194567 1.291588 0.19932099999999991
v 1.511945 1.530789 0.8463569999999999
v 1.465021 1.518215 -0.04119700000000009
v 1.484648 1.362809 0.42096299999999987
v 1.46197 1.363238 -0.04119700000000008
v 0.932214 1.379272 0.4210009999999999
v 0.890948 1.364393 -0.04119700000000008
v 1.675751 0.680115 0.42008799999999996
v 1.644677 0.681368 -0.04119700000000004
v 1.420614 0.633771 0.90554
v 1.377697 0.608139 -0.04119800000000003
v -0.272091 1.009019 -0.09873600000000006
v -0.172091 1.009019 -0.09873600000000006
v -0.272091 0.909019 -0.09873600000000006
v -0.132176 0.939492 -0.09382900000000005
v -0.23577 0.961196 0.18492099999999995
v -0.195472 0.961196 0.18492099999999995
v -0.195472 0.920898 0.18492099999999995
v -0.23577 0.920898 0.18492099999999995
v 1.451591 1.550116 0.8339829999999999
v 1.465792 1.486512 0.8339829999999999
v 1.527396 1.503019 0.8339829999999999
v 1.513195 1.566623 0.8339829999999999
v 1.451591 1.550116 0.9079819999999998
v 1.513195 1.566623 0.9079819999999998
v 1.527396 1.503019 0.9079819999999998
v 1.465792 1.486512 0.9079819999999998
v -0.11493 0.632475 0.611035
v 1.145938 0.06988500000000006 0.951195
v 1.145939 0.069885 -0.06407
v -0.741731 0.36131800000000003 0.583957
v -0.696077 0.31566400000000006 0.583957
v -0.789075 0.313975 -0.003738000000000019
v -0.655676 0.4473730000000001 0.583957
v -0.741731 0.36131800000000003 0.583957
v -0.608332 0.494717 -0.0037380000000000304
v -0.610022 0.40171900000000005 0.583957
v -0.655676 0.4473730000000001 0.583957
v -0.510321 0.396706 -0.0037380000000000243
v -0.691064 0.215964 -0.003738000000000013
v -0.696077 0.31566400000000006 0.583957
v -0.610022 0.40171900000000005 0.583957
v -0.929386 0.721083 0.583957
v -0.836388 0.722772 -0.0037380000000000442
v -0.883731 0.675429 0.583957
v -0.929386 0.721083 0.583957
v -0.836388 0.722772 -0.0037380000000000442
v -0.969787 0.589374 0.583957
v -0.883731 0.675429 0.583957
v -1.01713 0.54203 -0.0037380000000000334
v -1.015441 0.635028 0.583957
v -1.015441 0.635028 0.583957
v -0.969787 0.589374 0.583957
v -1.01713 0.54203 -0.0037380000000000334
v -1.083282 0.627797 -0.0037380000000000386
v -0.90254 0.808539 -0.0037380000000000494
v -0.929386 0.721083 0.583957
v -1.015441 0.635028 0.583957
v 1.136944 -0.30642099999999994 0.943932
v 1.136944 -0.30642099999999994 1.244575
v 1.109712 -0.2829499999999999 1.248537
v -0.839584 0.961223 -0.0011460000000000589
v -1.247277 0.553529 -0.001146000000000034
v -0.369701 0.49134 -0.0011460000000000302
v -0.839584 0.961223 -0.0011460000000000589
v -0.844609 1.032127 -0.31402500000000005
v -0.777396 0.083646 -0.0011460000000000053
v -0.369701 0.49134 -0.0011460000000000302
v -0.298797 0.486316 -0.31402500000000005
v -1.247277 0.553529 -0.001146000000000034
v -0.777396 0.083646 -0.0011460000000000053
v -0.772371 0.012742999999999982 -0.314025
v -1.318182 0.558553 -0.31402500000000005
v 0.208372 -0.7325449999999999 1.059531
v 0.208372 0.5673430000000002 1.059531
v 1.254526 1.161222 0.12072899999999993
v 1.267651 1.112241 0.12072899999999993
v 1.265738 1.119379 1.115113
v 1.256439 1.154084 1.115113
v 1.271431 1.098134 0.12056799999999993
v 1.250746 1.175329 0.12056799999999993
v 1.259309 1.143373 0.0027939999999999302
v 1.262868 1.13009 0.0027939999999999307
v 1.327404 1.136643 0.44401699999999994
v 1.318175 1.171085 0.44401699999999994
v 1.05039 2.035062 0.9067689999999999
v 1.447853 0.5517090000000001 0.906769
v 1.392079 0.5367650000000002 0.906769
v 0.994615 2.020117 0.9067689999999999
v 1.197196 1.476334 0.9056859999999999
v 1.505907 1.560507 0.9056859999999999
v 1.520852 1.504733 0.9056859999999999
v 1.212141 1.42056 0.9056859999999999
v 1.174363 1.286395 0.20101299999999991
v 1.256493 1.307311 0.20101299999999991
v 1.258257 1.309989 -0.04504700000000008
v 1.171108 1.287729 -0.04504700000000007
v -1.126855 1.310452 0.1292069999999999
v -1.152626 1.296556 -0.1854560000000001
v -1.31099 0.915574 0.12920699999999993
v -1.318427 0.946525 -0.18545600000000007
v -1.367427 1.422632 0.1292069999999999
v -1.551561 1.027755 0.12920699999999993
v -1.52579 1.041649 -0.18545600000000007
v -1.35999 1.391681 -0.1854560000000001
v -1.126855 1.310452 0.1292069999999999
v -1.31099 0.915574 0.12920699999999993
v -1.551561 1.027755 0.12920699999999993
v -1.367427 1.422632 0.1292069999999999
v 1.33235 0.870779 0.12072899999999995
v 1.345474 0.821799 0.12072899999999995
v 1.343562 0.8289370000000001 1.115113
v 1.334263 0.8636410000000001 1.115113
v 1.349254 0.807691 0.12056799999999994
v 1.32857 0.884887 0.12056799999999994
v 1.337133 0.852931 0.002793999999999948
v 1.340692 0.839647 0.0027939999999999484
v 1.405227 0.846201 0.44401699999999994
v 1.395999 0.880642 0.44401699999999994
v 1.145938 0.399885 -0.06407000000000003
v 1.145938 0.39988500000000005 0.951195
v 0.786807 0.399885 -0.06407000000000003
v 0.786807 0.39988500000000005 0.951195
v 1.126202 -0.2971619999999999 1.244575
v 1.126202 -0.2971619999999999 0.943932
v -1.500508 0.968347 0.12920699999999993
v -1.498806 0.939117 -0.18545600000000007
v -1.220446 0.634581 0.12920699999999996
v -1.25164 0.640921 -0.18545600000000004
v -1.703848 0.797724 0.12920699999999993
v -1.423786 0.463959 0.12920699999999996
v -1.425488 0.493187 -0.18545600000000004
v -1.672654 0.791384 -0.18545600000000007
v -1.500508 0.968347 0.12920699999999993
v -1.220446 0.634581 0.12920699999999996
v -1.423786 0.463959 0.12920699999999996
v -1.703848 0.797724 0.12920699999999993
v -0.220398 0.898204 0.517136
v -0.112617 0.632475 0.82377
v 0.208372 -0.7325449999999999 1.059531
v 0.208372 0.5673430000000002 1.059531
v -0.172091 1.009019 -0.09873600000000006
v -0.132176 0.939492 -0.09382900000000005
v -0.195472 0.920898 0.18492099999999995
v -0.195472 0.961196 0.18492099999999995
v -0.23577 0.920898 0.18492099999999995
v -0.195472 0.920898 0.18492099999999995
v -0.23577 0.961196 0.18492099999999995
v -0.23577 0.920898 0.18492099999999995
v 1.513195 1.566623 0.9079819999999998
v 1.451591 1.550116 0.9079819999999998
v 1.527396 1.503019 0.9079819999999998
v 1.513195 1.566623 0.9079819999999998
v 1.513195 1.566623 0.8339829999999999
v 1.465792 1.486512 0.9079819999999998
v 1.527396 1.503019 0.9079819999999998
v 1.527396 1.503019 0.8339829999999999
v -0.112219 0.691254 0.683398
v -0.112219 0.898204 0.517136
v -0.112219 0.954729 0.37599099999999996
v -0.132176 0.939492 -0.09382900000000005
v -0.112219 0.573696 0.683398
v -0.112219 0.573696 0.683398
v -0.112617 0.632475 0.82377
v -0.11493 0.632475 0.611035
v -0.112617 0.632475 0.82377
v -0.112219 0.691254 0.683398
v -0.11493 0.632475 0.611035
v 1.153434 -0.32063299999999995 1.248537
v 1.153434 -0.32063299999999995 1.248537
v -0.195472 0.961196 0.18492099999999995
v -0.195472 0.961196 0.18492099999999995
v -0.23577 0.961196 0.18492099999999995
v -0.132176 0.939492 -0.09382900000000005
v -0.132176 0.939492 -0.09382900000000005
v -0.272091 0.909019 -0.09873600000000006
v -0.272091 1.009019 -0.09873600000000006
v -0.272091 0.909019 -0.09873600000000006
vt 0.003979 0.992126
vt 0.112679 0.992126
vt 0.956597 0.983455
vt 0.965293 0.977169
vt 0.690664 0.379144
vt 0.683646 0.378720
vt 0.734502 0.300269
vt 0.792806 0.410863
vt 0.792925 0.430157
vt 0.003979 0.761870
vt 0.003979 0.531611
vt 0.141863 0.531611
vt 0.956597 0.729256
vt 0.965293 0.735543
vt 0.743915 0.300377
vt 0.743915 0.275001
vt 0.822595 0.363157
vt 0.832274 0.363157
vt 0.792806 0.315453
vt 0.792925 0.296158
vt 0.659244 0.294835
vt 0.669675 0.269889
vt 0.710784 0.230605
vt 0.695392 0.236356
vt 0.185173 0.558924
vt 0.185173 0.464785
vt 0.257929 0.558924
vt 0.257929 0.384094
vt 0.353061 0.994226
vt 0.430588 0.994226
vt 0.353061 0.772559
vt 0.497040 0.772559
vt 0.950998 0.322592
vt 0.950998 0.541029
vt 0.934753 0.541029
vt 0.934753 0.322592
vt 0.943233 0.541029
vt 0.943233 0.322592
vt 0.943233 0.541029
vt 0.943233 0.322592
vt 0.943766 0.314755
vt 0.943766 0.012486
vt 0.943766 0.012486
vt 0.943766 0.314755
vt 0.934954 0.012486
vt 0.934954 0.314755
vt 0.345077 0.983794
vt 0.345085 0.749867
vt 0.235394 0.983747
vt 0.235406 0.749897
vt 0.720020 0.889132
vt 0.720020 0.791593
vt 0.652242 0.857440
vt 0.652242 0.823286
vt 0.653613 0.966410
vt 0.653613 0.868871
vt 0.722064 0.934717
vt 0.722064 0.900563
vt 0.261778 0.034145
vt 0.261778 0.014688
vt 0.222554 0.034145
vt 0.222554 0.014688
vt 0.333111 0.274107
vt 0.341897 0.274182
vt 0.333111 0.237341
vt 0.341897 0.237413
vt 0.429982 0.294813
vt 0.429982 0.217287
vt 0.429982 0.180794
vt 0.210955 0.158778
vt 0.201274 0.158755
vt 0.210955 0.195546
vt 0.201274 0.195524
vt 0.300227 0.096622
vt 0.300369 0.138496
vt 0.300438 0.257278
vt 0.300398 0.215710
vt 0.429982 0.323238
vt 0.589392 0.932249
vt 0.488086 0.932249
vt 0.646841 0.932249
vt 0.589392 0.841420
vt 0.646841 0.841420
vt 0.488086 0.841420
vt 0.734795 0.038547
vt 0.734795 0.050845
vt 0.788936 0.050845
vt 0.905252 0.050845
vt 0.905252 0.038547
vt 0.795546 0.038547
vt 0.985557 0.984547
vt 0.979447 0.984547
vt 0.985556 0.650020
vt 0.979446 0.650020
vt 0.724595 0.506819
vt 0.724595 0.518312
vt 0.706068 0.479692
vt 0.702143 0.485439
vt 0.743122 0.479692
vt 0.747047 0.485439
vt 0.009668 0.228995
vt 0.009668 0.431332
vt 0.205607 0.228995
vt 0.165834 0.512826
vt 0.057535 0.243069
vt 0.057535 0.417259
vt 0.157738 0.243069
vt 0.157738 0.417259
vt 0.262864 0.420372
vt 0.262864 0.522263
vt 0.370216 0.522263
vt 0.354514 0.420372
vt 0.263148 0.409285
vt 0.318694 0.409285
vt 0.328211 0.347533
vt 0.263148 0.347533
vt 0.227757 0.761870
vt 0.203681 0.992126
vt 0.649336 0.987567
vt 0.649336 0.949692
vt 0.485794 0.987567
vt 0.485794 0.949692
vt 0.334022 0.566082
vt 0.336096 0.566082
vt 0.893522 0.245302
vt 0.900053 0.245302
vt 0.329043 0.533703
vt 0.893522 0.545680
vt 0.341081 0.533703
vt 0.900053 0.545680
vt 0.518148 0.832251
vt 0.518148 0.820541
vt 0.518148 0.803765
vt 0.523543 0.832251
vt 0.523543 0.820541
vt 0.523543 0.803765
vt 0.836247 0.101636
vt 0.829558 0.113242
vt 0.836247 0.124850
vt 0.842936 0.113242
vt 0.908373 0.691057
vt 0.908373 0.686194
vt 0.891638 0.691057
vt 0.891638 0.686194
vt 0.725499 0.044717
vt 0.725499 0.053253
vt 0.511118 0.044717
vt 0.511118 0.053253
vt 0.505026 0.053689
vt 0.504741 0.057971
vt 0.405863 0.053689
vt 0.405469 0.058183
vt 0.655234 0.391173
vt 0.647909 0.391173
vt 0.647909 0.659317
vt 0.655234 0.659317
vt 0.734787 0.794578
vt 0.727461 0.794578
vt 0.727461 0.990057
vt 0.734787 0.990057
vt 0.765809 0.782174
vt 0.774515 0.782100
vt 0.774518 0.318220
vt 0.765809 0.318222
vt 0.785403 0.318220
vt 0.785399 0.782100
vt 0.754926 0.318222
vt 0.754926 0.782174
vt 0.736100 0.180433
vt 0.727393 0.180433
vt 0.727393 0.257871
vt 0.736100 0.257871
vt 0.716510 0.257871
vt 0.716510 0.180433
vt 0.746983 0.257871
vt 0.746983 0.180433
vt 0.545127 0.130891
vt 0.545127 0.145183
vt 0.640423 0.145183
vt 0.640423 0.130891
vt 0.689150 0.517461
vt 0.681825 0.517461
vt 0.681825 0.785605
vt 0.689150 0.785605
vt 0.695142 0.215753
vt 0.702296 0.215753
vt 0.702296 0.132920
vt 0.695142 0.132920
vt 0.657688 0.675821
vt 0.651535 0.675821
vt 0.651535 0.801123
vt 0.657688 0.801123
vt 0.665556 0.217566
vt 0.672680 0.217566
vt 0.672680 0.134733
vt 0.665556 0.134733
vt 0.924430 0.749870
vt 0.886045 0.749870
vt 0.924430 0.745684
vt 0.886045 0.745684
vt 0.783381 0.276318
vt 0.826837 0.276318
vt 0.783381 0.134292
vt 0.826837 0.134292
vt 0.779201 0.813126
vt 0.779201 0.930746
vt 0.774794 0.813126
vt 0.774794 0.930746
vt 0.713825 0.143612
vt 0.748182 0.143612
vt 0.713825 0.152442
vt 0.748182 0.152442
vt 0.757274 0.141358
vt 0.757274 0.210173
vt 0.752866 0.141358
vt 0.752866 0.210173
vt 0.772044 0.222094
vt 0.772044 0.290889
vt 0.767639 0.290889
vt 0.767639 0.222094
vt 0.925731 0.832693
vt 0.925731 0.807283
vt 0.893290 0.807283
vt 0.893290 0.832693
vt 0.500963 0.245439
vt 0.464121 0.245439
vt 0.599914 0.245438
vt 0.563014 0.245439
vt 0.464121 0.338981
vt 0.500964 0.338980
vt 0.599914 0.338980
vt 0.563014 0.338980
vt 0.399198 0.053622
vt 0.399655 0.057625
vt 0.367334 0.053622
vt 0.367920 0.057575
vt 0.749519 0.117638
vt 0.749519 0.073657
vt 0.744325 0.073657
vt 0.744325 0.117638
vt 0.338248 0.701236
vt 0.321659 0.575467
vt 0.220256 0.734468
vt 0.220256 0.575467
vt 0.321659 0.734488
vt 0.338248 0.608742
vt 0.724272 0.117599
vt 0.724272 0.072613
vt 0.719078 0.072613
vt 0.719078 0.117599
vt 0.900053 0.245302
vt 0.893522 0.245302
vt 0.329043 0.533703
vt 0.893522 0.545680
vt 0.341081 0.533703
vt 0.900053 0.545680
vt 0.334022 0.566082
vt 0.336096 0.566082
vt 0.518148 0.803765
vt 0.518148 0.832251
vt 0.518148 0.820541
vt 0.523543 0.803765
vt 0.523543 0.820541
vt 0.523543 0.832251
vt 0.690664 0.379144
vt 0.683646 0.378720
vt 0.734502 0.300269
vt 0.952591 0.012486
vt 0.952591 0.314755
vt 0.943766 0.314755
vt 0.943766 0.012486
vt 0.943766 0.012486
vt 0.943766 0.314755
vt 0.934954 0.012486
vt 0.934954 0.314755
vt 0.943766 0.314755
vt 0.943766 0.012486
vt 0.943766 0.012486
vt 0.943766 0.314755
vt 0.934954 0.012486
vt 0.934954 0.314755
vt 0.952591 0.012486
vt 0.952591 0.314755
vt 0.943766 0.314755
vt 0.943766 0.012486
vt 0.943766 0.012486
vt 0.943766 0.314755
vt 0.261778 0.014688
vt 0.261778 0.034145
vt 0.222554 0.014688
vt 0.222554 0.034145
vt 0.646841 0.932249
vt 0.589392 0.932249
vt 0.488086 0.932249
vt 0.589392 0.841420
vt 0.646841 0.841420
vt 0.488086 0.841420
vt 0.979447 0.984547
vt 0.985557 0.984547
vt 0.979446 0.650020
vt 0.985556 0.650020
vt 0.657688 0.675821
vt 0.651535 0.675821
vt 0.651535 0.801123
vt 0.657688 0.801123
vt 0.657688 0.675821
vt 0.651535 0.675821
vt 0.651535 0.801123
vt 0.657688 0.801123
vt 0.655234 0.391173
vt 0.647909 0.391173
vt 0.647909 0.659317
vt 0.655234 0.659317
vt 0.212565 0.841223
vt 0.212565 0.810732
vt 0.229454 0.810732
vt 0.229454 0.841222
vt 0.456093 0.348400
vt 0.451913 0.498195
vt 0.471367 0.548762
vt 0.495822 0.582472
vt 0.485794 0.987567
vt 0.485794 0.949692
vt 0.649336 0.949692
vt 0.649336 0.987567
vt 0.664502 0.289929
vt 0.669675 0.269889
vt 0.706668 0.235175
vt 0.695392 0.236356
vt 0.743915 0.300377
vt 0.743915 0.275001
vt 0.553278 0.348400
vt 0.504685 0.560609
vt 0.504685 0.624880
vt 0.513548 0.582472
vt 0.553278 0.489599
vt 0.500963 0.245439
vt 0.464121 0.245439
vt 0.464121 0.338981
vt 0.500964 0.338980
vt 0.599914 0.245438
vt 0.599914 0.338980
vt 0.563014 0.245439
vt 0.563014 0.338980
vt 0.724595 0.518312
vt 0.724595 0.506819
vt 0.706068 0.479692
vt 0.702143 0.485439
vt 0.743122 0.479692
vt 0.747047 0.485439
vt 0.229454 0.810732
vt 0.212565 0.810732
vt 0.212565 0.841223
vt 0.229454 0.841222
vt 0.229454 0.810732
vt 0.212565 0.810732
vt 0.212565 0.841223
vt 0.229454 0.841222
vt 0.229454 0.810732
vt 0.212565 0.810732
vt 0.212565 0.841223
vt 0.229454 0.841222
vt 0.229454 0.810732
vt 0.212565 0.810732
vt 0.212565 0.841223
vt 0.229454 0.841222
vt 0.229454 0.810732
vt 0.212565 0.810732
vt 0.212565 0.841223
vt 0.229454 0.841222
vt 0.229454 0.810732
vt 0.229454 0.841222
vt 0.212565 0.841223
vt 0.212565 0.810732
vt 0.229454 0.810732
vt 0.229454 0.841222
vt 0.212565 0.841223
vt 0.212565 0.810732
vt 0.608835 0.084345
vt 0.634167 0.084044
vt 0.672131 0.084345
vt 0.695078 0.084345
vt 0.538361 0.108831
vt 0.695078 0.108831
vt 0.672131 0.108831
vt 0.541789 0.556856
vt 0.608835 0.108831
vt 0.671621 0.108656
vt 0.456093 0.348400
vt 0.452028 0.498238
vt 0.671986 0.084590
vt 0.471367 0.548762
vt 0.695218 0.108708
vt 0.227757 0.761870
vt 0.112679 0.992126
vt 0.141863 0.531611
vt 0.212769 0.389736
vt 0.003979 0.992126
vt -0.104720 0.992127
vt -0.210560 1.007393
vt 0.669936 0.659317
vt 0.662611 0.391173
vt 0.662611 0.391173
vt 0.669936 0.659317
vt 0.749488 0.990057
vt 0.742164 0.794578
vt 0.742164 0.794578
vt 0.749488 0.990057
vt 0.703852 0.785605
vt 0.696526 0.517461
vt 0.696526 0.517461
vt 0.703852 0.785605
vt 0.670037 0.801123
vt 0.663884 0.675821
vt 0.663884 0.675821
vt 0.670037 0.801123
vt 0.670037 0.801123
vt 0.663884 0.675821
vt 0.663884 0.675821
vt 0.670037 0.801123
vt 0.670037 0.801123
vt 0.663884 0.675821
vt 0.663884 0.675821
vt 0.670037 0.801123
vt 0.669936 0.659317
vt 0.662611 0.391173
vt 0.662611 0.391173
vt 0.669936 0.659317
vt 0.669936 0.391173
vt 0.662611 0.659317
vt 0.749488 0.794578
vt 0.742164 0.990057
vt 0.703852 0.517461
vt 0.696526 0.785605
vt 0.670037 0.675821
vt 0.663884 0.801123
vt 0.670037 0.675821
vt 0.663884 0.801123
vt 0.670037 0.675821
vt 0.663884 0.801123
vt 0.669936 0.391173
vt 0.662611 0.659317
vt 0.064149 0.132811
vt 0.077199 0.132811
vt 0.052126 0.132811
vt 0.538361 0.084345
vt 0.067851 0.045118
vt 0.073928 0.045118
vt 0.073928 0.032713
vt 0.067851 0.032713
vt 0.461488 0.975199
vt 0.484052 0.950899
vt 0.471923 0.950899
vt 0.461488 0.950897
vt 0.461488 0.897021
vt 0.461488 0.921323
vt 0.471923 0.921323
vt 0.471923 0.897021
vt 0.504685 0.560609
vt 0.943766 0.314755
vt 0.943766 0.012486
vt 0.211040 0.096622
vt 0.211040 0.116128
vt 0.300347 0.334221
vt 0.211729 0.277230
vt 0.211729 0.313996
vt 0.300438 0.257278
vt 0.211040 0.238108
vt 0.211040 0.257614
vt 0.300398 0.215710
vt 0.300369 0.138496
vt 0.210955 0.158778
vt 0.210955 0.195546
vt 0.341897 0.305436
vt 0.429982 0.294813
vt 0.341897 0.294813
vt 0.341897 0.305436
vt 0.429982 0.294813
vt 0.341897 0.237413
vt 0.341897 0.274182
vt 0.429982 0.217287
vt 0.341897 0.197873
vt 0.341897 0.197873
vt 0.341897 0.217315
vt 0.429982 0.217287
vt 0.429982 0.180794
vt 0.429982 0.100735
vt 0.341897 0.118706
vt 0.341897 0.155474
vt 0.589392 0.932249
vt 0.589392 0.841420
vt 0.801267 0.050845
vt 0.057535 0.417259
vt 0.057535 0.243069
vt 0.157738 0.417259
vt 0.057535 0.417259
vt 0.049439 0.512826
vt 0.157738 0.243069
vt 0.157738 0.417259
vt 0.205607 0.431332
vt 0.057535 0.243069
vt 0.157738 0.243069
vt 0.165834 0.147502
vt 0.049439 0.147502
vt 0.227757 0.761870
vt 0.003979 0.761870
vt 0.904022 0.545680
vt 0.910554 0.545680
vt 0.910534 0.245302
vt 0.904018 0.245302
vt 0.321756 0.533703
vt 0.309730 0.533703
vt 0.314717 0.566082
vt 0.316791 0.566082
vt 0.523543 0.820541
vt 0.518148 0.820541
vt 0.774515 0.782100
vt 0.774518 0.318220
vt 0.765809 0.318222
vt 0.765809 0.782174
vt 0.727393 0.180433
vt 0.727393 0.257871
vt 0.736100 0.257871
vt 0.736100 0.180433
vt 0.893290 0.857678
vt 0.893290 0.882770
vt 0.925731 0.882770
vt 0.925731 0.857678
vt 0.659699 0.338979
vt 0.659699 0.245438
vt 0.599914 0.338980
vt 0.599914 0.245438
vt 0.500964 0.338980
vt 0.563014 0.338980
vt 0.563014 0.245439
vt 0.500963 0.245439
vt 0.467159 0.156113
vt 0.529481 0.156113
vt 0.529481 0.090392
vt 0.467159 0.090392
vt 0.904022 0.545680
vt 0.910554 0.545680
vt 0.910534 0.245302
vt 0.904018 0.245302
vt 0.321756 0.533703
vt 0.309730 0.533703
vt 0.314717 0.566082
vt 0.316791 0.566082
vt 0.523543 0.820541
vt 0.518148 0.820541
vt 0.943766 0.012486
vt 0.943766 0.314755
vt 0.943766 0.012486
vt 0.943766 0.314755
vt 0.589392 0.841420
vt 0.589392 0.932249
vt 0.659699 0.338979
vt 0.659699 0.245438
vt 0.599914 0.338980
vt 0.599914 0.245438
vt 0.500964 0.338980
vt 0.563014 0.338980
vt 0.563014 0.245439
vt 0.500963 0.245439
vt 0.467159 0.156113
vt 0.529481 0.156113
vt 0.529481 0.090392
vt 0.467159 0.090392
vt 0.634198 0.108244
vt 0.695184 0.084236
vt 0.003979 0.761870
vt 0.227757 0.761870
vt 0.025944 0.132811
vt 0.038298 0.132811
vt 0.035883 0.045118
vt 0.029806 0.045118
vt 0.047656 0.045118
vt 0.041579 0.045118
vt 0.060830 0.045118
vt 0.054753 0.045118
vt 0.446726 0.950897
vt 0.446726 0.975199
vt 0.471923 0.921323
vt 0.461488 0.921323
vt 0.461488 0.950897
vt 0.484052 0.921323
vt 0.471923 0.921323
vt 0.471923 0.950899
vt 0.513548 0.582472
vt 0.544753 0.532241
vt 0.553278 0.489599
vt 0.553278 0.348400
vt 0.495822 0.582472
vt 0.495822 0.582472
vt 0.504685 0.624880
vt 0.504685 0.560609
vt 0.504685 0.624880
vt 0.513548 0.582472
vt 0.504685 0.560609
vt 0.795546 0.038547
vt 0.795546 0.038547
vt 0.073928 0.045118
vt 0.073928 0.045118
vt 0.067851 0.045118
vt 0.038298 0.132811
vt 0.038298 0.132811
vt 0.052126 0.132811
vt 0.064149 0.132811
vt 0.052126 0.132811
vn 0.618996 4.809151240847682E-17 0.785394
vn 0.656009 -0.04219699999999995 0.753572
vn -0 1 -2.0000000000612323E-06
vn 0 1 -1.0000000000612324E-06
vn 1E-06 1 9.999999999387675E-07
vn 0 1 -6.123233995736766E-17
vn 2E-06 1 2.9999999999387676E-06
vn -0.023486 0.999645 0.012555999999999939
vn -0.000311 0.999685 0.02510699999999994
vn -0.616024 4.823442868993731E-17 0.787728
vn -0.616024 4.823442868993731E-17 0.787728
vn -0.616024 4.823442868993731E-17 0.787728
vn -0 1 -2.0000000000612323E-06
vn -0 1 -2.0000000000612323E-06
vn 3E-06 1 4.999999999938768E-06
vn 4E-06 1 6.999999999938768E-06
vn -0.002946 0.999923 0.01204999999999994
vn -0.003199 0.99996 0.00837299999999994
vn 0.000448 0.999347 0.03612799999999994
vn 0.018913 0.999658 0.01806899999999994
vn 9E-06 1 8.299999999993877E-05
vn -0.000124 1 1.9999999999387675E-06
vn -0.000124 1 1.9999999999387675E-06
vn -0.000257 1 -7.900000000006123E-05
vn -1 0 0
vn -1 0 0
vn -1 0 0
vn -1 0 0
vn 1 -0 0
vn 1 -0 0
vn 1 -0 0
vn 1 -0 0
vn 5E-06 1 -6.123233995736766E-17
vn 2E-06 1 -6.123233995736766E-17
vn 1 0 0
vn 1 0 0
vn -1E-06 1 -6.123233995736766E-17
vn 2E-06 1 -6.123233995736766E-17
vn 1 0 0
vn 1 0 0
vn 0 1 -6.123233995736766E-17
vn 1 0 0
vn 1 0 0
vn 1 0 0
vn 1 0 0
vn 1 0 0
vn 0 6.123233995736766E-17 1
vn 0 6.123233995736766E-17 1
vn 0 6.123233995736766E-17 1
vn 0 6.123233995736766E-17 1
vn 0.9969 4.817638043165773E-18 0.078678
vn 0.9969 4.817638043165773E-18 0.078678
vn 0.9969 4.817638043165773E-18 0.078678
vn 0.9969 4.817638043165773E-18 0.078678
vn -0.974585 1.3717207564909546E-17 0.224019
vn -0.974585 1.3717207564909546E-17 0.224019
vn -0.974585 1.3717207564909546E-17 0.224019
vn -0.974585 1.3717207564909546E-17 0.224019
vn -0.707107 0.707106 -4.3297754977894416E-17
vn -0.707107 0.707106 -4.3297754977894416E-17
vn -0.707108 0.707106 -4.3297754977894416E-17
vn -0.707107 0.707106 -4.3297754977894416E-17
vn 0 6.123233995736766E-17 1
vn 0 6.123233995736766E-17 1
vn 0 6.123233995736766E-17 1
vn 0 6.123233995736766E-17 1
vn 0.785518 0.605867 0.12604299999999996
vn 0.707107 -0.707107 4.329781621023438E-17
vn -0.787988 -0.607771 0.09844000000000004
vn 0 6.123233995736766E-17 1
vn 0 6.123233995736766E-17 1
vn 0 6.123233995736766E-17 1
vn 0 6.123233995736766E-17 1
vn -0.702562 -0.702562 0.11319400000000004
vn -0.702562 -0.702562 0.11319400000000004
vn -0.707106 0.707107 -4.329781621023438E-17
vn 0.702563 0.702561 0.11319399999999996
vn 0.785518 0.605867 0.12604299999999996
vn 0.000914 -1 6.123233995736766E-17
vn 1 0.000518 -3.1718352097916447E-20
vn 0.000914 -1 6.123233995736766E-17
vn 0.000914 -1 6.123233995736766E-17
vn 0.000914 -1 6.123233995736766E-17
vn 1 0.000518 -3.1718352097916447E-20
vn 1E-06 6.123233995736766E-17 1
vn 1E-06 6.123233995736766E-17 1
vn 1E-06 6.123233995736766E-17 1
vn 0 6.123233995736766E-17 1
vn 0 6.123233995736766E-17 1
vn 1E-06 1.0000000000612324E-06 1
vn 0.077528 0.987276 0.13883499999999993
vn 0.073515 0.987598 0.13872799999999993
vn 0.081541 0.986938 0.13893899999999995
vn 0.077528 0.987276 0.13883499999999993
vn 0.999895 0.010598 0.009889
vn 0.99942 0.029832 0.016431999999999995
vn 0.997512 0.066056 0.024619999999999996
vn 0.998141 0.035956 0.049202
vn 0.999327 -0.021637999999999998 0.029608
vn 0.999373 -0.032167 0.014807000000000002
vn -0.696921 0.69692 0.16912699999999994
vn -0.696921 0.69692 0.16912699999999994
vn 0.69692 -0.696921 0.16912700000000006
vn 0.699397 0.699397 0.14726499999999995
vn 0 6.123233995736766E-17 1
vn 0 6.123233995736766E-17 1
vn 0 6.123233995736766E-17 1
vn 0 6.123233995736766E-17 1
vn -1 0 0
vn -1 0 0
vn -1 0 0
vn -1 -0 0
vn 1 -0 0
vn 1 -0 0
vn 1 -0 0
vn 1 -0 0
vn -0.616024 4.823442868993731E-17 0.787728
vn 0.690292 -0.08421899999999996 0.718613
vn 0 0.989412 0.14513099999999995
vn 0 0.989412 0.14513099999999995
vn 0 0.989412 0.14513099999999995
vn 0 0.989412 0.14513099999999995
vn -0.965926 -0.258819 1.584809299542594E-17
vn -0.965926 -0.258818 1.5848031763085984E-17
vn -0.965926 -0.258818 1.5848031763085984E-17
vn -0.965926 -0.258819 1.584809299542594E-17
vn -0.965926 -0.258819 1.584809299542594E-17
vn -0.965926 -0.258819 1.584809299542594E-17
vn -0.965926 -0.258819 1.584809299542594E-17
vn -0.965926 -0.258819 1.584809299542594E-17
vn 0.61358 0.16440800000000005 0.772328
vn 0.273291 0.07322800000000006 0.95914
vn 0.273291 0.07322800000000006 0.95914
vn 0.61358 0.16440800000000005 0.772328
vn 0.273291 0.07322800000000006 0.95914
vn 0.273291 0.07322800000000006 0.95914
vn 0 6.123233995736766E-17 1
vn 0 6.123233995736766E-17 1
vn 0 6.123233995736766E-17 1
vn 0 6.123233995736766E-17 1
vn 0 6.123233995736766E-17 1
vn 0 6.123233995736766E-17 1
vn 0 6.123233995736766E-17 1
vn 0 6.123233995736766E-17 1
vn -8.5E-05 -5.999999999938768E-06 1
vn -0 -9.999999999387675E-07 1
vn -0.00017 -9.999999999938769E-06 1
vn -8.5E-05 -5.999999999938768E-06 1
vn 0.445423 0.48639800000000005 0.751675
vn 0.464427 0.46442500000000003 0.754067
vn 0.426041 0.507957 0.748645
vn 0.445423 0.48639800000000005 0.751675
vn 0.258728 -0.965583 -0.02662899999999994
vn 0.258728 -0.965583 -0.02662899999999994
vn 0.258728 -0.965583 -0.02662899999999994
vn 0.258728 -0.965583 -0.02662899999999994
vn 0.258819 -0.965926 5.914590920566031E-17
vn 0.25882 -0.965926 5.914590920566031E-17
vn 0.258819 -0.965926 5.914590920566031E-17
vn 0.258818 -0.965926 5.914590920566031E-17
vn 0 6.123233995736766E-17 1
vn 0 6.123233995736766E-17 1
vn 0 6.123233995736766E-17 1
vn 0 6.123233995736766E-17 1
vn 0.965926 0.258819 -5.000000000015848E-06
vn 0.965926 0.258819 -3.000000000015848E-06
vn -0.965926 -0.258819 1.584809299542594E-17
vn -0.965926 -0.258819 1.584809299542594E-17
vn 0 6.123233995736766E-17 1
vn 0 6.123233995736766E-17 1
vn 0 6.123233995736766E-17 1
vn 0 6.123233995736766E-17 1
vn -0.263057 0.96478 -4.000000000059075E-06
vn -0.263057 0.96478 -3.000000000059076E-06
vn 0.263057 -0.96478 5.907573694406917E-17
vn 0.263057 -0.96478 5.907573694406917E-17
vn 0 -9.999999999387675E-07 1
vn 1E-06 -9.999999999387675E-07 1
vn 0 -9.999999999387675E-07 1
vn 0 6.123233995736766E-17 1
vn 0.25882 -0.965926 5.914590920566031E-17
vn 0.25882 -0.965926 5.914590920566031E-17
vn 0.25882 -0.965926 5.914590920566031E-17
vn 0.258819 -0.965926 5.914590920566031E-17
vn 1E-06 -9.999999999387675E-07 1
vn 1E-06 -1.9999999999387675E-06 1
vn 1E-06 -9.999999999387675E-07 1
vn 0 6.123233995736766E-17 1
vn 0.258795 -0.965837 -0.01359499999999994
vn 0.258794 -0.965837 -0.01359499999999994
vn 0.258795 -0.965837 -0.01359499999999994
vn 0.258796 -0.965836 -0.01359499999999994
vn 1E-06 6.123233995736766E-17 1
vn 1E-06 -9.999999999387675E-07 1
vn 1E-06 6.123233995736766E-17 1
vn 1E-06 6.123233995736766E-17 1
vn 0 6.123233995736766E-17 1
vn 0 6.123233995736766E-17 1
vn 0 6.123233995736766E-17 1
vn 0 6.123233995736766E-17 1
vn -0 6.123233995736766E-17 1
vn -0 6.123233995736766E-17 1
vn -0 6.123233995736766E-17 1
vn -0 6.123233995736766E-17 1
vn -0.683013 -0.18301299999999995 0.707107
vn -0.683012 -0.18301299999999995 0.707107
vn -0.683012 -0.18301299999999995 0.707107
vn -0.683012 -0.18301299999999995 0.707107
vn -0.683013 -0.18301199999999995 0.707106
vn -0.683013 -0.18301299999999995 0.707106
vn -0.683013 -0.18301299999999995 0.707106
vn -0.683013 -0.18301399999999995 0.707106
vn 0.183013 -0.683012 0.707107
vn 0.183012 -0.683013 0.707107
vn 0.183012 -0.683013 0.707107
vn 0.18301 -0.683013 0.707107
vn -0.683013 -0.18301399999999995 0.707106
vn -0.683013 -0.18301299999999995 0.707107
vn -0.683013 -0.18301199999999995 0.707107
vn -0.683013 -0.18301299999999995 0.707107
vn -0.246775 0.969033 0.008762999999999941
vn 0.246776 -0.969035 -0.008530999999999941
vn -0.247472 0.968858 0.00850899999999994
vn 0.247471 -0.968855 -0.00878699999999994
vn 0.418557 0.904963 -0.07649700000000005
vn 0.415809 0.906429 -0.07408200000000005
vn 0.901927 -0.427219 -0.06333899999999998
vn -0.415809 -0.90643 -0.07408099999999994
vn 0.418557 0.904963 -0.07649700000000005
vn 0.421299 0.903483 -0.07891000000000005
vn 0.90343 -0.424599 -0.05940999999999997
vn -0.418558 -0.904962 -0.07649699999999994
vn -0.026868 -0.015676999999999938 0.999516
vn -0.025921 -0.016696999999999938 0.999525
vn -0.027814 -0.01465699999999994 0.999506
vn -0.026868 -0.015676999999999938 0.999516
vn 0.707104 0.70711 -1.000000000043298E-06
vn 0.707103 0.70711 -1.000000000043298E-06
vn 0.707103 0.70711 -1.000000000043298E-06
vn 0.707103 0.70711 -1.000000000043298E-06
vn 0 6.123233995736766E-17 1
vn 0 6.123233995736766E-17 1
vn 0 6.123233995736766E-17 1
vn 0 6.123233995736766E-17 1
vn 0 6.123233995736766E-17 1
vn 0 6.123233995736766E-17 1
vn 0.707104 0.70711 -1.000000000043298E-06
vn 0.707103 0.70711 -1.000000000043298E-06
vn 0.707103 0.70711 -1.000000000043298E-06
vn 0.707103 0.70711 -1.000000000043298E-06
vn -0.965926 -0.258819 1.584809299542594E-17
vn -0.965926 -0.258818 1.5848031763085984E-17
vn -0.965926 -0.258819 1.584809299542594E-17
vn -0.965926 -0.258819 1.584809299542594E-17
vn -0.965926 -0.258819 1.584809299542594E-17
vn -0.965926 -0.258819 1.584809299542594E-17
vn -0.965926 -0.258819 1.584809299542594E-17
vn -0.965926 -0.258818 1.5848031763085984E-17
vn 0.273291 0.07322800000000006 0.95914
vn 0.61358 0.16440800000000005 0.772328
vn 0.273291 0.07322800000000006 0.95914
vn 0.273291 0.07322800000000006 0.95914
vn 0.273291 0.07322800000000006 0.95914
vn 0.61358 0.16440800000000005 0.772328
vn -0 1 -1.0000000000612324E-06
vn -1E-06 1 9.999999999387675E-07
vn -3E-06 1 4.999999999938768E-06
vn 4E-06 1 -6.123233995736766E-17
vn 2E-06 1 -6.123233995736766E-17
vn 0 1 -6.123233995736766E-17
vn 2E-06 1 -6.123233995736766E-17
vn 1 0 0
vn 1 0 0
vn 1 0 0
vn 1 0 0
vn 1 0 0
vn 1 0 0
vn 1 0 0
vn 1 0 0
vn 1 0 0
vn 1 0 0
vn 4E-06 1 -6.123233995736766E-17
vn 2E-06 1 -6.123233995736766E-17
vn 0 1 -6.123233995736766E-17
vn 2E-06 1 -6.123233995736766E-17
vn 1 0 0
vn 1 0 0
vn 0.707107 -0.707106 4.3297754977894416E-17
vn 0.707107 -0.707106 4.3297754977894416E-17
vn 0.707107 -0.707106 4.3297754977894416E-17
vn 0.707107 -0.707106 4.3297754977894416E-17
vn 0.001035 0.999999 -6.12322787250277E-17
vn 0.001035 0.999999 -6.12322787250277E-17
vn -1 0.000587 -3.5943383554974817E-20
vn 0.001035 0.999999 -6.12322787250277E-17
vn 0.001035 0.999999 -6.12322787250277E-17
vn -1 0.000587 -3.5943383554974817E-20
vn -0.09491 0.985519 0.14051299999999994
vn -0.088217 0.986125 0.14062599999999995
vn -0.088217 0.986125 0.14062599999999995
vn -0.08152 0.986686 0.14073199999999994
vn 0.258811 -0.965895 0.007987000000000058
vn 0.25881 -0.965895 0.007987000000000058
vn 0.258811 -0.965895 0.007987000000000058
vn 0.258811 -0.965895 0.007987000000000058
vn 0.258768 -0.965731 -0.02005499999999994
vn 0.258768 -0.965732 -0.02005499999999994
vn 0.258768 -0.965731 -0.02005499999999994
vn 0.258769 -0.965731 -0.02005499999999994
vn 0.258792 -0.965825 0.014417000000000058
vn 0.258792 -0.965825 0.014417000000000058
vn 0.258792 -0.965825 0.014417000000000058
vn 0.258792 -0.965825 0.014417000000000058
vn -0.906305 0.422624 -2.587825644214255E-17
vn -0.906305 0.422624 -2.587825644214255E-17
vn -0.906305 0.422624 -2.587825644214255E-17
vn -0.906305 0.422624 -2.587825644214255E-17
vn -1 0 0
vn -1 0 0
vn -1 0 0
vn -1 0 0
vn 0 -0.989412 -0.14513099999999995
vn 0 -0.989412 -0.14513099999999995
vn 0 -0.989412 -0.14513099999999995
vn 0 -0.989412 -0.14513099999999995
vn -0.003649 0.999963 -0.0077890000000000615
vn 0.008569 0.999758 -0.02025900000000006
vn -0.015865 0.999863 0.004683999999999938
vn -0.003649 0.999963 -0.0077890000000000615
vn -2E-06 1 2.9999999999387676E-06
vn -4E-06 1 6.999999999938768E-06
vn -1 0 0
vn -1 0 0
vn -1 0 0
vn -1 0 0
vn -1 0 0
vn -0.643285 0.761796 -0.07649700000000004
vn -0.645775 0.759925 -0.07408200000000004
vn -0.643285 0.761796 -0.07649700000000004
vn -0.640785 0.763654 -0.07891000000000004
vn 0.768363 0.636873 -0.06333900000000005
vn 0.766624 0.639342 -0.05941000000000004
vn 0.645776 -0.759924 -0.07408099999999995
vn 0.643284 -0.761796 -0.07649699999999995
vn 0.999541 0.026042 0.015493999999999999
vn 0.999916 0.0065520000000000005 0.011177
vn 0.997718 0.063409 0.023212999999999998
vn 0.998348 0.033904 0.046394
vn 0.999141 -0.024454999999999998 0.033464
vn 0.999189 -0.036612 0.016735000000000003
vn -0.906305 0.422623 -2.5878195209802595E-17
vn -0.906305 0.422623 -2.5878195209802595E-17
vn -0.906305 0.422623 -2.5878195209802595E-17
vn -0.906305 0.422623 -2.5878195209802595E-17
vn 0.906305 -0.422624 2.587825644214255E-17
vn 0.906305 -0.422624 2.587825644214255E-17
vn 0.906305 -0.422624 2.587825644214255E-17
vn 0.906305 -0.422624 2.587825644214255E-17
vn 0.906305 -0.422623 2.5878195209802595E-17
vn 0.906305 -0.422623 2.5878195209802595E-17
vn 0.906305 -0.422623 2.5878195209802595E-17
vn 0.906305 -0.422623 2.5878195209802595E-17
vn -0.766048 -0.642783 3.935910717481666E-17
vn -0.766048 -0.642783 3.935910717481666E-17
vn -0.766048 -0.642783 3.935910717481666E-17
vn -0.766048 -0.642783 3.935910717481666E-17
vn -0.766048 -0.642784 3.9359168407156615E-17
vn -0.766048 -0.642784 3.9359168407156615E-17
vn -0.766048 -0.642784 3.9359168407156615E-17
vn -0.766048 -0.642784 3.9359168407156615E-17
vn 0.766048 0.642783 -3.935910717481666E-17
vn 0.766048 0.642783 -3.935910717481666E-17
vn 0.766048 0.642783 -3.935910717481666E-17
vn 0.766048 0.642783 -3.935910717481666E-17
vn 0.766048 0.642783 -3.935910717481666E-17
vn 0.766048 0.642783 -3.935910717481666E-17
vn 0.766048 0.642783 -3.935910717481666E-17
vn 0.766048 0.642783 -3.935910717481666E-17
vn 0.057543 0.991897 0.11326399999999995
vn 0 0.852401 0.522888
vn 0 0.745355 0.666668
vn -0 0.922398 0.38624099999999995
vn 0.084823 0.996203 -0.01963400000000006
vn -0 0.922398 0.38624099999999995
vn -0 0.846823 0.531875
vn -1 0 0
vn 0 0.967756 0.2518909999999999
vn -0 -0.922398 0.38624100000000006
vn 0.999892 0.011281 -0.009431
vn 1 0 0
vn -0 -0.922398 0.38624100000000006
vn 1 0 0
vn -0 -0.922398 0.38624100000000006
vn 0.616024 -4.823442868993731E-17 -0.787728
vn 0.616024 -4.823442868993731E-17 -0.787728
vn 0.616024 -4.823442868993731E-17 -0.787728
vn 0.616024 -4.823442868993731E-17 -0.787728
vn -0.618996 -4.809151240847682E-17 -0.785394
vn -0.656009 0.04219699999999995 -0.753572
vn -0.690292 0.08421899999999996 -0.718613
vn -0.258728 0.965583 0.02662899999999994
vn -0.258728 0.965583 0.02662899999999994
vn -0.258728 0.965583 0.02662899999999994
vn -0.258728 0.965583 0.02662899999999994
vn -0.258818 0.965926 -5.914590920566031E-17
vn -0.258818 0.965926 -5.914590920566031E-17
vn -0.25882 0.965926 -5.914590920566031E-17
vn -0.25882 0.965926 -5.914590920566031E-17
vn -0.258819 0.965926 -5.914590920566031E-17
vn -0.258819 0.965926 -5.914590920566031E-17
vn -0.25882 0.965926 -5.914590920566031E-17
vn -0.25882 0.965926 -5.914590920566031E-17
vn -0.258796 0.965836 0.01359499999999994
vn -0.258796 0.965836 0.01359499999999994
vn -0.258794 0.965837 0.01359499999999994
vn -0.258794 0.965837 0.01359499999999994
vn -0.258811 0.965895 -0.007987000000000058
vn -0.258811 0.965895 -0.007987000000000058
vn -0.25881 0.965895 -0.007987000000000058
vn -0.25881 0.965895 -0.007987000000000058
vn -0.258769 0.965731 0.02005499999999994
vn -0.258769 0.965731 0.02005499999999994
vn -0.258768 0.965732 0.02005499999999994
vn -0.258768 0.965732 0.02005499999999994
vn -0.258792 0.965825 -0.014417000000000058
vn -0.258792 0.965825 -0.014417000000000058
vn -0.258792 0.965825 -0.014417000000000058
vn -0.258792 0.965825 -0.014417000000000058
vn -0.258728 0.965583 0.02662899999999994
vn -0.258728 0.965583 0.02662899999999994
vn -0.25882 0.965926 -5.914590920566031E-17
vn -0.258818 0.965926 -5.914590920566031E-17
vn -0.25882 0.965926 -5.914590920566031E-17
vn -0.258819 0.965926 -5.914590920566031E-17
vn -0.258794 0.965837 0.01359499999999994
vn -0.258796 0.965836 0.01359499999999994
vn -0.25881 0.965895 -0.007987000000000058
vn -0.258811 0.965895 -0.007987000000000058
vn -0.258768 0.965732 0.02005499999999994
vn -0.258769 0.965731 0.02005499999999994
vn -0.258792 0.965825 -0.014417000000000058
vn -0.258792 0.965825 -0.014417000000000058
vn -0.439892 0.874624 0.20378299999999994
vn 0.762619 0.616398 0.19612999999999997
vn -0.868063 -0.478803 0.13120400000000002
vn 0.169001 0.984839 -0.03911800000000006
vn -0.604618 0.3005360000000001 0.737642
vn 0.37985 0.751668 0.539174
vn 0.624589 -0.17041699999999996 0.762133
vn -0.327627 -0.829976 0.45144200000000007
vn -0.258819 0.965926 -5.914590920566031E-17
vn 0.258819 -0.965926 5.914590920566031E-17
vn 0.97597 0.217904 -1.3342771806070242E-17
vn -0.258819 0.965926 -5.914590920566031E-17
vn 0 6.123233995736766E-17 1
vn 0 6.123233995736766E-17 1
vn 0 6.123233995736766E-17 1
vn 0 6.123233995736766E-17 1
vn 0.999959 0.0022279999999999995 -0.00879
vn 0 1 -6.123233995736766E-17
vn 0 1 -6.123233995736766E-17
vn -0.702562 -0.702562 0.11319400000000004
vn -0.702565 -0.70256 0.11319400000000004
vn -0.707106 0.707107 -4.329781621023438E-17
vn -0.707106 0.707107 -4.329781621023438E-17
vn -0.707109 0.707105 9.999999999567022E-07
vn 0.702563 0.702561 0.11319399999999996
vn 0.702563 0.702561 0.11319399999999996
vn 0.702562 0.702563 0.11319399999999996
vn 0.701561 -0.701561 0.12500100000000006
vn 0.701561 -0.701561 0.12500100000000006
vn 0.701561 -0.701561 0.12500100000000006
vn 0.701561 -0.701561 0.12500100000000006
vn 0.785518 0.605867 0.12604299999999996
vn 0.70256 0.702565 0.11319399999999996
vn 0.70256 0.702565 0.11319399999999996
vn 0.70256 0.702565 0.11319399999999996
vn 0.707107 -0.707107 4.329781621023438E-17
vn 0.707107 -0.707107 4.329781621023438E-17
vn 0.707106 -0.707108 -9.999999999567022E-07
vn -0.787988 -0.607771 0.09844000000000004
vn -0.787988 -0.607771 0.09844000000000004
vn -0.702561 -0.702563 0.11319400000000004
vn -0.702561 -0.702563 0.11319400000000004
vn -0.702561 -0.702563 0.11319400000000004
vn -0.705235 0.705233 0.07273199999999996
vn -0.705235 0.705233 0.07273199999999996
vn -0.705235 0.705233 0.07273199999999996
vn -0.705234 0.705234 0.07273099999999996
vn 1 0.000518 -3.1718352097916447E-20
vn 1 0.000518 -3.1718352097916447E-20
vn 0 6.123233995736766E-17 1
vn -0.696921 0.69692 0.16912699999999994
vn -0.696921 0.69692 0.16912799999999995
vn 0.699397 0.699397 0.14726499999999995
vn 0.699397 0.699397 0.14726499999999995
vn 0.699397 0.699397 0.14726499999999995
vn 0.69692 -0.696921 0.16912700000000006
vn 0.69692 -0.696921 0.16912700000000006
vn 0.69692 -0.696921 0.16912700000000006
vn -0.699398 -0.699397 0.14726500000000006
vn -0.699398 -0.699397 0.14726400000000006
vn -0.699398 -0.699397 0.14726500000000006
vn -0.699397 -0.699397 0.14726500000000006
vn 0.643952 -0.028124999999999956 0.764548
vn 0.618996 4.809151240847682E-17 0.785394
vn 0.965926 0.258819 -1.584809299542594E-17
vn 0.965926 0.258819 -1.584809299542594E-17
vn 0.965926 0.258819 -1.584809299542594E-17
vn 0.965926 0.258818 -1.5848031763085984E-17
vn 0.965926 0.258819 -1.584809299542594E-17
vn 0.965926 0.258819 -1.584809299542594E-17
vn 0.965926 0.258819 -1.584809299542594E-17
vn 0.965926 0.258818 -1.5848031763085984E-17
vn 0.61358 0.16440800000000005 0.772328
vn 0.61358 0.16440800000000005 0.772328
vn 0.965926 0.258819 -5.000000000015848E-06
vn 0.965926 0.258819 -7.000000000015848E-06
vn -0.965926 -0.258819 1.584809299542594E-17
vn -0.965926 -0.258819 1.584809299542594E-17
vn -0.263057 0.96478 -4.000000000059075E-06
vn -0.263057 0.96478 -5.000000000059076E-06
vn 0.263057 -0.96478 5.907573694406917E-17
vn 0.263057 -0.96478 5.907573694406917E-17
vn 0.247471 -0.968855 -0.00878699999999994
vn -0.247472 0.968858 0.00850899999999994
vn 0.246776 -0.969035 -0.008530999999999941
vn -0.246775 0.969033 0.008762999999999941
vn 0.904911 -0.421969 -0.055479999999999974
vn 0.90343 -0.424599 -0.05940999999999997
vn -0.421302 -0.903481 -0.07891199999999994
vn -0.418558 -0.904962 -0.07649699999999994
vn -0.90343 0.424599 -0.059410000000000025
vn -0.904911 0.421968 -0.05547900000000003
vn -0.90343 0.424599 -0.059410000000000025
vn -0.901927 0.427219 -0.06333900000000003
vn 0 6.123233995736766E-17 1
vn 0 6.123233995736766E-17 1
vn 0 6.123233995736766E-17 1
vn 0 6.123233995736766E-17 1
vn 0.965926 0.258819 -1.584809299542594E-17
vn 0.965926 0.258819 -1.584809299542594E-17
vn 0.965926 0.258819 -1.584809299542594E-17
vn 0.965926 0.258818 -1.5848031763085984E-17
vn 0.965926 0.258819 -1.584809299542594E-17
vn 0.965926 0.258819 -1.584809299542594E-17
vn 0.965926 0.258819 -1.584809299542594E-17
vn 0.965926 0.258818 -1.5848031763085984E-17
vn 0.61358 0.16440800000000005 0.772328
vn 0.61358 0.16440800000000005 0.772328
vn 1 0 0
vn 1 0 0
vn 1 0 0
vn 1 0 0
vn -1 0.000587 -3.5943383554974817E-20
vn -1 0.000587 -3.5943383554974817E-20
vn 0.764866 0.641797 -0.05548000000000004
vn 0.766624 0.639342 -0.05941000000000004
vn 0.640782 -0.763656 -0.07891199999999995
vn 0.643284 -0.761796 -0.07649699999999995
vn -0.766623 -0.639343 -0.059409999999999956
vn -0.764865 -0.641797 -0.05547999999999996
vn -0.766623 -0.639343 -0.059409999999999956
vn -0.768363 -0.636873 -0.06333899999999996
vn 0 6.123233995736766E-17 1
vn 0 6.123233995736766E-17 1
vn 0 6.123233995736766E-17 1
vn 0 6.123233995736766E-17 1
vn 0 0.748718 0.662889
vn -0 -0.922398 0.38624100000000006
vn -0.643952 0.028124999999999956 -0.764548
vn -0.618996 -4.809151240847682E-17 -0.785394
vn 0.762619 0.616398 0.19612999999999997
vn 0.576924 -0.811402 0.09373100000000005
vn 0.624589 -0.17041699999999996 0.762133
vn 0.37985 0.751668 0.539174
vn -0.327627 -0.829976 0.45144200000000007
vn 0.624589 -0.17041699999999996 0.762133
vn -0.604618 0.3005360000000001 0.737642
vn -0.327627 -0.829976 0.45144200000000007
vn -0.258819 0.965926 -5.914590920566031E-17
vn -0.258819 0.965926 -5.914590920566031E-17
vn 0.97597 0.217904 -1.3342771806070242E-17
vn 0.97597 0.217904 -1.3342771806070242E-17
vn 0.97597 0.217904 -1.3342771806070242E-17
vn 0.258819 -0.965926 5.914590920566031E-17
vn 0.258819 -0.965926 5.914590920566031E-17
vn 0.258819 -0.965926 5.914590920566031E-17
vn 0.999577 -0.018206 -0.022661
vn 0.99995 -0.008605 -0.005104999999999999
vn 0.99964 0.015756 -0.021728
vn 0.998559 0.0315 -0.04344
vn 0.999935 0.010832 -0.003684000000000001
vn 0.999406 0.03272 -0.010865000000000001
vn 0.999406 0.03272 -0.010865000000000001
vn 0.999406 0.03272 -0.010865000000000001
vn 0.999406 -0.03272 -0.010864999999999998
vn 0.999406 -0.03272 -0.010864999999999998
vn 0.999406 -0.03272 -0.010864999999999998
vn 1E-06 1.0000000000612324E-06 1
vn 1E-06 1.0000000000612324E-06 1
vn 0.37985 0.751668 0.539174
vn 0.37985 0.751668 0.539174
vn -0.604618 0.3005360000000001 0.737642
vn 0.576924 -0.811402 0.09373100000000005
vn 0.576924 -0.811402 0.09373100000000005
vn -0.868063 -0.478803 0.13120400000000002
vn -0.439892 0.874624 0.20378299999999994
vn -0.868063 -0.478803 0.13120400000000002
g 01
f 599/599/599 598/598/598 597/597/597
f 596/596/596 595/595/595 594/594/594
f 390/390/390 593/593/593 392/392/392
f 390/390/390 389/389/389 593/593/593
f 389/389/389 459/459/459 593/593/593
f 389/389/389 590/590/590 459/459/459
f 389/389/389 591/591/591 590/590/590
f 389/389/389 592/592/592 591/591/591
f 590/590/590 589/589/589 459/459/459
f 586/586/586 452/452/452 588/588/588
f 588/588/588 587/587/587 586/586/586
f 583/583/583 453/453/453 585/585/585
f 585/585/585 584/584/584 583/583/583
f 581/581/581 454/454/454 451/451/451
f 451/451/451 582/582/582 581/581/581
f 457/457/457 456/456/456 455/455/455
f 455/455/455 458/458/458 457/457/457
f 609/609/609 580/580/580 579/579/579
f 579/579/579 608/608/608 607/607/607
f 606/606/606 578/578/578 577/577/577
f 577/577/577 445/445/445 605/605/605
f 573/573/573 576/576/576 575/575/575
f 575/575/575 574/574/574 573/573/573
f 443/443/443 604/604/604 603/603/603
f 602/602/602 444/444/444 443/443/443
f 449/449/449 448/448/448 447/447/447
f 447/447/447 450/450/450 449/449/449
f 572/572/572 398/398/398 571/571/571
f 398/398/398 399/399/399 571/571/571
f 399/399/399 400/400/400 571/571/571
f 396/396/396 397/397/397 394/394/394
f 394/394/394 395/395/395 396/396/396
f 393/393/393 388/388/388 391/391/391
f 391/391/391 570/570/570 393/393/393
f 381/381/381 380/380/380 569/569/569
f 569/569/569 385/385/385 381/381/381
f 380/380/380 379/379/379 387/387/387
f 387/387/387 569/569/569 380/380/380
f 379/379/379 446/446/446 383/383/383
f 383/383/383 387/387/387 379/379/379
f 385/385/385 384/384/384 382/382/382
f 382/382/382 381/381/381 385/385/385
f 378/378/378 377/377/377 376/376/376
f 376/376/376 375/375/375 378/378/378
f 374/374/374 373/373/373 372/372/372
f 372/372/372 371/371/371 374/374/374
f 368/368/368 367/367/367 370/370/370
f 370/370/370 369/369/369 368/368/368
f 364/364/364 363/363/363 366/366/366
f 366/366/366 365/365/365 364/364/364
f 360/360/360 361/361/361 362/362/362
f 362/362/362 359/359/359 360/360/360
f 356/356/356 357/357/357 358/358/358
f 358/358/358 355/355/355 356/356/356
f 352/352/352 351/351/351 354/354/354
f 354/354/354 353/353/353 352/352/352
f 350/350/350 345/345/345 346/346/346
f 346/346/346 349/349/349 350/350/350
f 345/345/345 348/348/348 347/347/347
f 347/347/347 346/346/346 345/345/345
f 565/565/565 568/568/568 567/567/567
f 567/567/567 566/566/566 565/565/565
f 561/561/561 564/564/564 563/563/563
f 563/563/563 562/562/562 561/561/561
f 344/344/344 343/343/343 560/560/560
f 560/560/560 559/559/559 344/344/344
f 342/342/342 341/341/341 558/558/558
f 558/558/558 557/557/557 342/342/342
f 339/339/339 338/338/338 337/337/337
f 337/337/337 340/340/340 339/339/339
f 329/329/329 327/327/327 326/326/326
f 326/326/326 328/328/328 329/329/329
f 322/322/322 323/323/323 324/324/324
f 324/324/324 325/325/325 322/322/322
f 335/335/335 333/333/333 334/334/334
f 334/334/334 333/333/333 321/321/321
f 320/320/320 321/321/321 319/319/319
f 321/321/321 318/318/318 319/319/319
f 321/321/321 333/333/333 318/318/318
f 333/333/333 386/386/386 318/318/318
f 333/333/333 335/335/335 386/386/386
f 386/386/386 336/336/336 318/318/318
f 336/336/336 332/332/332 318/318/318
f 315/315/315 316/316/316 317/317/317
f 317/317/317 314/314/314 315/315/315
f 427/427/427 441/441/441 428/428/428
f 425/425/425 442/442/442 426/426/426
f 312/312/312 311/311/311 310/310/310
f 310/310/310 313/313/313 312/312/312
f 423/423/423 439/439/439 424/424/424
f 421/421/421 440/440/440 422/422/422
f 308/308/308 307/307/307 306/306/306
f 306/306/306 309/309/309 308/308/308
f 419/419/419 437/437/437 420/420/420
f 417/417/417 438/438/438 418/418/418
f 304/304/304 303/303/303 302/302/302
f 302/302/302 305/305/305 304/304/304
f 299/299/299 298/298/298 300/300/300
f 300/300/300 301/301/301 299/299/299
f 294/294/294 556/556/556 555/555/555
f 555/555/555 297/297/297 294/294/294
f 293/293/293 292/292/292 296/296/296
f 296/296/296 295/295/295 293/293/293
f 290/290/290 288/288/288 289/289/289
f 289/289/289 291/291/291 290/290/290
f 553/553/553 554/554/554 287/287/287
f 287/287/287 286/286/286 553/553/553
f 285/285/285 282/282/282 283/283/283
f 283/283/283 284/284/284 285/285/285
f 278/278/278 279/279/279 281/281/281
f 281/281/281 280/280/280 278/278/278
f 277/277/277 276/276/276 279/279/279
f 279/279/279 278/278/278 277/277/277
f 272/272/272 273/273/273 275/275/275
f 275/275/275 274/274/274 272/272/272
f 551/551/551 552/552/552 273/273/273
f 273/273/273 272/272/272 551/551/551
f 271/271/271 268/268/268 269/269/269
f 269/269/269 270/270/270 271/271/271
f 267/267/267 331/331/331 330/330/330
f 266/266/266 267/267/267 330/330/330
f 330/330/330 265/265/265 266/266/266
f 264/264/264 260/260/260 550/550/550
f 550/550/550 549/549/549 264/264/264
f 263/263/263 261/261/261 259/259/259
f 259/259/259 262/262/262 263/263/263
f 545/545/545 548/548/548 547/547/547
f 547/547/547 546/546/546 545/545/545
f 541/541/541 544/544/544 543/543/543
f 543/543/543 542/542/542 541/541/541
f 255/255/255 258/258/258 257/257/257
f 257/257/257 253/253/253 255/255/255
f 254/254/254 252/252/252 251/251/251
f 251/251/251 256/256/256 254/254/254
f 248/248/248 247/247/247 250/250/250
f 250/250/250 249/249/249 248/248/248
f 245/245/245 243/243/243 241/241/241
f 243/243/243 244/244/244 241/241/241
f 244/244/244 242/242/242 241/241/241
f 242/242/242 246/246/246 241/241/241
f 238/238/238 237/237/237 240/240/240
f 240/240/240 239/239/239 238/238/238
f 236/236/236 235/235/235 233/233/233
f 233/233/233 234/234/234 236/236/236
f 537/537/537 540/540/540 539/539/539
f 539/539/539 538/538/538 537/537/537
f 533/533/533 536/536/536 535/535/535
f 535/535/535 534/534/534 533/533/533
f 232/232/232 228/228/228 532/532/532
f 532/532/532 531/531/531 232/232/232
f 231/231/231 227/227/227 530/530/530
f 530/530/530 529/529/529 231/231/231
f 229/229/229 226/226/226 225/225/225
f 225/225/225 230/230/230 229/229/229
f 525/525/525 528/528/528 527/527/527
f 527/527/527 526/526/526 525/525/525
f 223/223/223 222/222/222 221/221/221
f 221/221/221 224/224/224 223/223/223
f 220/220/220 217/217/217 218/218/218
f 218/218/218 219/219/219 220/220/220
f 215/215/215 213/213/213 214/214/214
f 214/214/214 216/216/216 215/215/215
f 211/211/211 209/209/209 210/210/210
f 210/210/210 212/212/212 211/211/211
f 207/207/207 205/205/205 206/206/206
f 206/206/206 208/208/208 207/207/207
f 204/204/204 202/202/202 201/201/201
f 201/201/201 203/203/203 204/204/204
f 200/200/200 199/199/199 197/197/197
f 197/197/197 198/198/198 200/200/200
f 195/195/195 194/194/194 193/193/193
f 193/193/193 196/196/196 195/195/195
f 415/415/415 435/435/435 416/416/416
f 413/413/413 436/436/436 414/414/414
f 191/191/191 190/190/190 189/189/189
f 189/189/189 192/192/192 191/191/191
f 187/187/187 186/186/186 185/185/185
f 185/185/185 188/188/188 187/187/187
f 411/411/411 433/433/433 412/412/412
f 409/409/409 434/434/434 410/410/410
f 183/183/183 182/182/182 181/181/181
f 181/181/181 184/184/184 183/183/183
f 179/179/179 178/178/178 177/177/177
f 177/177/177 180/180/180 179/179/179
f 523/523/523 524/524/524 176/176/176
f 176/176/176 175/175/175 523/523/523
f 521/521/521 522/522/522 173/173/173
f 173/173/173 174/174/174 521/521/521
f 171/171/171 170/170/170 169/169/169
f 169/169/169 172/172/172 171/171/171
f 519/519/519 520/520/520 168/168/168
f 168/168/168 167/167/167 519/519/519
f 517/517/517 518/518/518 165/165/165
f 165/165/165 166/166/166 517/517/517
f 163/163/163 162/162/162 161/161/161
f 161/161/161 164/164/164 163/163/163
f 407/407/407 431/431/431 408/408/408
f 405/405/405 432/432/432 406/406/406
f 159/159/159 158/158/158 157/157/157
f 157/157/157 160/160/160 159/159/159
f 403/403/403 429/429/429 404/404/404
f 401/401/401 430/430/430 402/402/402
f 155/155/155 154/154/154 153/153/153
f 153/153/153 156/156/156 155/155/155
f 152/152/152 151/151/151 149/149/149
f 149/149/149 150/150/150 152/152/152
f 148/148/148 147/147/147 145/145/145
f 145/145/145 146/146/146 148/148/148
f 144/144/144 142/142/142 141/141/141
f 141/141/141 143/143/143 144/144/144
f 137/137/137 140/140/140 139/139/139
f 139/139/139 138/138/138 137/137/137
f 134/134/134 131/131/131 516/516/516
f 516/516/516 515/515/515 134/134/134
f 135/135/135 132/132/132 133/133/133
f 133/133/133 136/136/136 135/135/135
f 511/511/511 514/514/514 513/513/513
f 513/513/513 512/512/512 511/511/511
f 507/507/507 510/510/510 509/509/509
f 509/509/509 508/508/508 507/507/507
f 129/129/129 124/124/124 123/123/123
f 123/123/123 127/127/127 129/129/129
f 128/128/128 125/125/125 126/126/126
f 126/126/126 130/130/130 128/128/128
f 122/122/122 120/120/120 119/119/119
f 119/119/119 121/121/121 122/122/122
f 118/118/118 2/2/2 505/505/505
f 2/2/2 1/1/1 505/505/505
f 1/1/1 506/506/506 505/505/505
f 10/10/10 11/11/11 12/12/12
f 12/12/12 117/117/117 10/10/10
f 115/115/115 114/114/114 113/113/113
f 113/113/113 116/116/116 115/115/115
f 111/111/111 110/110/110 109/109/109
f 109/109/109 112/112/112 111/111/111
f 501/501/501 504/504/504 503/503/503
f 503/503/503 502/502/502 501/501/501
f 498/498/498 103/103/103 500/500/500
f 500/500/500 499/499/499 498/498/498
f 495/495/495 104/104/104 497/497/497
f 497/497/497 496/496/496 495/495/495
f 493/493/493 102/102/102 101/101/101
f 101/101/101 494/494/494 493/493/493
f 108/108/108 106/106/106 105/105/105
f 105/105/105 107/107/107 108/108/108
f 100/100/100 96/96/96 95/95/95
f 95/95/95 99/99/99 100/100/100
f 96/96/96 98/98/98 97/97/97
f 97/97/97 95/95/95 96/96/96
f 91/91/91 92/92/92 94/94/94
f 94/94/94 93/93/93 91/91/91
f 601/601/601 89/89/89 88/88/88
f 88/88/88 492/492/492 600/600/600
f 85/85/85 90/90/90 87/87/87
f 87/87/87 86/86/86 85/85/85
f 84/84/84 491/491/491 490/490/490
f 490/490/490 80/80/80 84/84/84
f 82/82/82 83/83/83 81/81/81
f 81/81/81 79/79/79 82/82/82
f 486/486/486 489/489/489 488/488/488
f 488/488/488 487/487/487 486/486/486
f 485/485/485 484/484/484 483/483/483
f 482/482/482 69/69/69 481/481/481
f 478/478/478 480/480/480 479/479/479
f 479/479/479 68/68/68 478/478/478
f 477/477/477 476/476/476 475/475/475
f 67/67/67 78/78/78 474/474/474
f 470/470/470 473/473/473 472/472/472
f 472/472/472 471/471/471 470/470/470
f 467/467/467 469/469/469 468/468/468
f 468/468/468 77/77/77 467/467/467
f 464/464/464 466/466/466 465/465/465
f 465/465/465 76/76/76 464/464/464
f 75/75/75 463/463/463 462/462/462
f 462/462/462 74/74/74 75/75/75
f 73/73/73 71/71/71 70/70/70
f 70/70/70 72/72/72 73/73/73
f 66/66/66 64/64/64 63/63/63
f 63/63/63 65/65/65 66/66/66
f 62/62/62 60/60/60 59/59/59
f 59/59/59 61/61/61 62/62/62
f 58/58/58 57/57/57 55/55/55
f 55/55/55 56/56/56 58/58/58
f 54/54/54 52/52/52 51/51/51
f 51/51/51 53/53/53 54/54/54
f 50/50/50 48/48/48 47/47/47
f 47/47/47 49/49/49 50/50/50
f 43/43/43 44/44/44 46/46/46
f 46/46/46 45/45/45 43/43/43
f 461/461/461 41/41/41 460/460/460
f 44/44/44 43/43/43 42/42/42
f 40/40/40 39/39/39 35/35/35
f 35/35/35 36/36/36 40/40/40
f 38/38/38 33/33/33 34/34/34
f 34/34/34 37/37/37 38/38/38
f 32/32/32 30/30/30 29/29/29
f 29/29/29 31/31/31 32/32/32
f 28/28/28 27/27/27 25/25/25
f 25/25/25 26/26/26 28/28/28
f 22/22/22 24/24/24 23/23/23
f 23/23/23 21/21/21 22/22/22
f 14/14/14 4/4/4 3/3/3
f 3/3/3 13/13/13 14/14/14
f 20/20/20 18/18/18 17/17/17
f 17/17/17 19/19/19 20/20/20
f 18/18/18 9/9/9 8/8/8
f 8/8/8 17/17/17 18/18/18
f 16/16/16 7/7/7 15/15/15
f 7/7/7 6/6/6 5/5/5
f 5/5/5 15/15/15 7/7/7
