v -0.001824 -0.0009789999999999742 0.422768
v 0.126543 0.308927 0.360553
v -0.001824 0.332913 0.360553
v -0.001824 0.332913 0.360553
v -0.130191 0.308927 0.360553
v -0.001824 -0.0009789999999999742 0.422768
v -0.001824 -0.0009789999999999742 0.422768
v -0.130191 -0.310884 0.360553
v -0.001824 -0.334871 0.360553
v -0.001824 -0.334871 0.360553
v 0.126543 -0.310884 0.360553
v -0.001824 -0.0009789999999999742 0.422768
v -0.001824 -0.0009789999999999742 0.422768
v -0.311729 -0.12934599999999996 0.360553
v -0.237921 -0.23707599999999998 0.360553
v -0.237921 -0.23707599999999998 0.360553
v -0.130191 -0.310884 0.360553
v -0.001824 -0.0009789999999999742 0.422768
v -0.001824 -0.0009789999999999742 0.422768
v -0.130191 0.308927 0.360553
v -0.237921 0.23511900000000002 0.360553
v -0.237921 0.23511900000000002 0.360553
v -0.311729 0.12738800000000003 0.360553
v -0.001824 -0.0009789999999999742 0.422768
v -0.001824 -0.0009789999999999742 0.422768
v -0.311729 0.12738800000000003 0.360553
v -0.335716 -0.000978999999999978 0.360553
v -0.335716 -0.000978999999999978 0.360553
v -0.311729 -0.12934599999999996 0.360553
v -0.001824 -0.0009789999999999742 0.422768
v -0.001824 -0.0009789999999999742 0.422768
v 0.308082 0.12738800000000003 0.360553
v 0.234274 0.23511900000000002 0.360553
v 0.234274 0.23511900000000002 0.360553
v 0.126543 0.308927 0.360553
v -0.001824 -0.0009789999999999742 0.422768
v -0.001824 -0.0009789999999999742 0.422768
v 0.126543 -0.310884 0.360553
v 0.234274 -0.23707599999999998 0.360553
v 0.234274 -0.23707599999999998 0.360553
v 0.308082 -0.12934599999999996 0.360553
v -0.001824 -0.0009789999999999742 0.422768
v -0.001824 -0.0009789999999999742 0.422768
v 0.308082 -0.12934599999999996 0.360553
v 0.332068 -0.000978999999999978 0.360553
v 0.332068 -0.000978999999999978 0.360553
v 0.308082 0.12738800000000003 0.360553
v -0.001824 -0.0009789999999999742 0.422768
v -0.513793 -0.21304299999999998 0.22709
v -0.213888 -0.512947 0.22709000000000001
v 0.210241 -0.512947 0.22709000000000001
v -0.513793 0.21108600000000002 0.22709
v 0.510145 -0.21304299999999998 0.22709
v 0.510145 0.21108600000000002 0.22709
v -0.213888 0.51099 0.22708999999999996
v 0.210241 0.51099 0.22708999999999996
vt 0.500000 0.500000
vt 0.698613 0.979495
vt 0.500000 0.979495
vt 0.500000 0.979495
vt 0.301387 0.979495
vt 0.500000 0.500000
vt 0.500000 0.500000
vt 0.301387 0.020505
vt 0.500000 0.020505
vt 0.500000 0.020505
vt 0.698613 0.020505
vt 0.500000 0.500000
vt 0.500000 0.500000
vt 0.020505 0.301387
vt 0.160946 0.160946
vt 0.160946 0.160946
vt 0.301387 0.020505
vt 0.500000 0.500000
vt 0.500000 0.500000
vt 0.301387 0.979495
vt 0.160946 0.839054
vt 0.160946 0.839054
vt 0.020505 0.698613
vt 0.500000 0.500000
vt 0.500000 0.500000
vt 0.020505 0.698613
vt 0.020505 0.500000
vt 0.020505 0.500000
vt 0.020505 0.301387
vt 0.500000 0.500000
vt 0.500000 0.500000
vt 0.979495 0.698613
vt 0.839054 0.839054
vt 0.839054 0.839054
vt 0.698613 0.979495
vt 0.500000 0.500000
vt 0.500000 0.500000
vt 0.698613 0.020505
vt 0.839054 0.160946
vt 0.839054 0.160946
vt 0.979495 0.301387
vt 0.500000 0.500000
vt 0.500000 0.500000
vt 0.979495 0.301387
vt 0.979495 0.500000
vt 0.979495 0.500000
vt 0.979495 0.698613
vt 0.500000 0.500000
vt 0.020505 0.301387
vt 0.301387 0.020505
vt 0.698613 0.020505
vt 0.020505 0.698613
vt 0.979495 0.301387
vt 0.979495 0.698613
vt 0.301387 0.979495
vt 0.698613 0.979495
vn 0.034209 0.18307300000000007 0.982504
vn 0.034209 0.18307300000000007 0.982504
vn 0.034209 0.18307300000000007 0.982504
vn -0.034209 0.18307300000000007 0.982504
vn -0.034209 0.18307300000000007 0.982504
vn -0.034209 0.18307300000000007 0.982504
vn -0.034209 -0.18307299999999996 0.982504
vn -0.034209 -0.18307299999999996 0.982504
vn -0.034209 -0.18307299999999996 0.982504
vn 0.034209 -0.18307299999999996 0.982504
vn 0.034209 -0.18307299999999996 0.982504
vn 0.034209 -0.18307299999999996 0.982504
vn -0.153642 -0.10526299999999994 0.982504
vn -0.153642 -0.10526299999999994 0.982504
vn -0.153642 -0.10526299999999994 0.982504
vn -0.105263 -0.15364199999999995 0.982504
vn -0.105263 -0.15364199999999995 0.982504
vn -0.105263 -0.15364199999999995 0.982504
vn -0.105263 0.15364200000000006 0.982504
vn -0.105263 0.15364200000000006 0.982504
vn -0.105263 0.15364200000000006 0.982504
vn -0.153642 0.10526300000000005 0.982504
vn -0.153642 0.10526300000000005 0.982504
vn -0.153642 0.10526300000000005 0.982504
vn -0.183073 0.034209000000000066 0.982504
vn -0.183073 0.034209000000000066 0.982504
vn -0.183073 0.034209000000000066 0.982504
vn -0.183073 -0.03420899999999994 0.982504
vn -0.183073 -0.03420899999999994 0.982504
vn -0.183073 -0.03420899999999994 0.982504
vn 0.153642 0.10526300000000005 0.982504
vn 0.153642 0.10526300000000005 0.982504
vn 0.153642 0.10526300000000005 0.982504
vn 0.105263 0.15364200000000006 0.982504
vn 0.105263 0.15364200000000006 0.982504
vn 0.105263 0.15364200000000006 0.982504
vn 0.105263 -0.15364199999999995 0.982504
vn 0.105263 -0.15364199999999995 0.982504
vn 0.105263 -0.15364199999999995 0.982504
vn 0.153642 -0.10526299999999994 0.982504
vn 0.153642 -0.10526299999999994 0.982504
vn 0.153642 -0.10526299999999994 0.982504
vn 0.183073 -0.03420899999999994 0.982504
vn 0.183073 -0.03420899999999994 0.982504
vn 0.183073 -0.03420899999999994 0.982504
vn 0.183073 0.034209000000000066 0.982504
vn 0.183073 0.034209000000000066 0.982504
vn 0.183073 0.034209000000000066 0.982504
vn 0 6.123233995736766E-17 1
vn 0 6.123233995736766E-17 1
vn 0 6.123233995736766E-17 1
vn 0 6.123233995736766E-17 1
vn 0 6.123233995736766E-17 1
vn 0 6.123233995736766E-17 1
vn 0 6.123233995736766E-17 1
vn 0 6.123233995736766E-17 1
g Default Standard
f 1/1/1 2/2/2 3/3/3
f 4/4/4 5/5/5 6/6/6
f 7/7/7 8/8/8 9/9/9
f 10/10/10 11/11/11 12/12/12
f 13/13/13 14/14/14 15/15/15
f 16/16/16 17/17/17 18/18/18
f 19/19/19 20/20/20 21/21/21
f 22/22/22 23/23/23 24/24/24
f 25/25/25 26/26/26 27/27/27
f 28/28/28 29/29/29 30/30/30
f 31/31/31 32/32/32 33/33/33
f 34/34/34 35/35/35 36/36/36
f 37/37/37 38/38/38 39/39/39
f 40/40/40 41/41/41 42/42/42
f 43/43/43 44/44/44 45/45/45
f 46/46/46 47/47/47 48/48/48
f 49/49/49 50/50/50 51/51/51
f 52/52/52 49/49/49 51/51/51
f 51/51/51 53/53/53 52/52/52
f 52/52/52 53/53/53 54/54/54
f 54/54/54 55/55/55 52/52/52
f 54/54/54 56/56/56 55/55/55
