v 0.12705 0.310151 0.358742
v 0.235206 0.23605100000000004 0.365243
v 0.235206 0.236051 0.18427299999999996
v 0.12705 0.310151 0.19077399999999997
v -0.130698 0.310151 0.358742
v -0.001824 0.334232 0.365243
v -0.001824 0.334232 0.18427299999999996
v -0.130698 0.310151 0.19077399999999997
v -0.130698 -0.312108 0.358742
v -0.238854 -0.23800899999999997 0.365243
v -0.238854 -0.238009 0.18427300000000002
v -0.130698 -0.312108 0.19077400000000003
v 0.12705 -0.312108 0.358742
v -0.001824 -0.33619 0.365243
v -0.001824 -0.33619 0.18427300000000002
v 0.12705 -0.312108 0.19077400000000003
v -0.312953 -0.12985299999999997 0.358742
v -0.337035 -0.0009789999999999777 0.365243
v -0.337035 -0.0009789999999999888 0.184273
v -0.312953 -0.129853 0.190774
v 0.309306 -0.12985299999999997 0.358742
v 0.235206 -0.23800899999999997 0.365243
v 0.235206 -0.238009 0.18427300000000002
v 0.309306 -0.129853 0.190774
v 0.309306 0.12789500000000004 0.358742
v 0.333387 -0.0009789999999999777 0.365243
v 0.333387 -0.0009789999999999888 0.184273
v 0.309306 0.127895 0.190774
v -0.312953 0.12789600000000004 0.358742
v -0.238854 0.23605100000000004 0.365243
v -0.238854 0.236051 0.18427299999999996
v -0.312953 0.127896 0.190774
v -0.204606 0.021156000000000053 0.866677
v -0.204606 0.021156000000000022 0.330178
v -0.204606 -0.02311299999999998 0.330178
v -0.204606 -0.02311299999999995 0.866677
v 0.210968 -0.02311299999999995 0.866677
v 0.210968 -0.02311299999999998 0.330178
v 0.210968 0.021156000000000022 0.330178
v 0.210968 0.021156000000000053 0.866677
v 0.235206 0.23605100000000004 0.365243
v 0.309306 0.12789500000000004 0.358742
v 0.309306 0.127895 0.190774
v 0.235206 0.236051 0.18427299999999996
v -0.001824 0.334232 0.365243
v 0.12705 0.310151 0.358742
v 0.12705 0.310151 0.19077399999999997
v -0.001824 0.334232 0.18427299999999996
v -0.238854 -0.23800899999999997 0.365243
v -0.312953 -0.12985299999999997 0.358742
v -0.312953 -0.129853 0.190774
v -0.238854 -0.238009 0.18427300000000002
v -0.001824 -0.33619 0.365243
v -0.130698 -0.312108 0.358742
v -0.130698 -0.312108 0.19077400000000003
v -0.001824 -0.33619 0.18427300000000002
v -0.337035 -0.0009789999999999777 0.365243
v -0.312953 0.12789600000000004 0.358742
v -0.312953 0.127896 0.190774
v -0.337035 -0.0009789999999999888 0.184273
v 0.235206 -0.23800899999999997 0.365243
v 0.12705 -0.312108 0.358742
v 0.12705 -0.312108 0.19077400000000003
v 0.235206 -0.238009 0.18427300000000002
v 0.333387 -0.0009789999999999777 0.365243
v 0.309306 -0.12985299999999997 0.358742
v 0.309306 -0.129853 0.190774
v 0.333387 -0.0009789999999999888 0.184273
v -0.238854 0.23605100000000004 0.365243
v -0.130698 0.310151 0.358742
v -0.130698 0.310151 0.19077399999999997
v -0.238854 0.236051 0.18427299999999996
vt 0.414918 0.081267
vt 0.414918 0.420897
vt 0.025112 0.420897
vt 0.025112 0.081267
vt 0.420331 0.884531
vt 0.420331 0.606476
vt 0.019699 0.606475
vt 0.019699 0.884530
vt 0.420331 0.883153
vt 0.420331 0.582909
vt 0.019699 0.582908
vt 0.019699 0.883152
vt 0.414918 0.082890
vt 0.414918 0.422521
vt 0.025112 0.422520
vt 0.025112 0.082889
vt 0.420331 0.876216
vt 0.420331 0.598161
vt 0.019699 0.598160
vt 0.019699 0.876215
vt 0.414918 0.084499
vt 0.414918 0.424131
vt 0.025112 0.424130
vt 0.025112 0.084499
vt 0.414918 0.098927
vt 0.414918 0.438558
vt 0.025112 0.438557
vt 0.025112 0.098927
vt 0.420331 0.891468
vt 0.420331 0.591224
vt 0.019699 0.591223
vt 0.019699 0.891468
vt 0.454754 0.481609
vt 0.014583 0.481610
vt 0.014583 0.009306
vt 0.454754 0.009305
vt 0.454754 0.481609
vt 0.014583 0.481610
vt 0.014583 0.009306
vt 0.454754 0.009305
vt 0.420331 0.588444
vt 0.420331 0.881751
vt 0.019699 0.881751
vt 0.019699 0.588444
vt 0.420331 0.606476
vt 0.420331 0.899783
vt 0.019699 0.899783
vt 0.019699 0.606475
vt 0.420331 0.582909
vt 0.420331 0.876216
vt 0.019699 0.876215
vt 0.019699 0.582908
vt 0.420331 0.589846
vt 0.420331 0.883153
vt 0.019699 0.883152
vt 0.019699 0.589846
vt 0.420331 0.598161
vt 0.420331 0.891468
vt 0.019699 0.891468
vt 0.019699 0.598160
vt 0.420331 0.591237
vt 0.420331 0.884543
vt 0.019699 0.884542
vt 0.019699 0.591236
vt 0.420331 0.603696
vt 0.420331 0.897002
vt 0.019699 0.897002
vt 0.019699 0.603696
vt 0.420331 0.591224
vt 0.420331 0.884531
vt 0.019699 0.884530
vt 0.019699 0.591223
vn 0.565194 0.824958 -5.051410870655011E-17
vn 0.565194 0.824958 -5.051410870655011E-17
vn 0.565194 0.824958 -5.051410870655011E-17
vn 0.565194 0.824958 -5.051410870655011E-17
vn -0.183681 0.982986 -6.019053292533301E-17
vn -0.183681 0.982986 -6.019053292533301E-17
vn -0.183681 0.982986 -6.019053292533301E-17
vn -0.183681 0.982986 -6.019053292533301E-17
vn -0.565194 -0.824958 5.051410870655011E-17
vn -0.565194 -0.824958 5.051410870655011E-17
vn -0.565194 -0.824958 5.051410870655011E-17
vn -0.565194 -0.824958 5.051410870655011E-17
vn 0.183681 -0.982986 6.019053292533301E-17
vn 0.183681 -0.982986 6.019053292533301E-17
vn 0.183681 -0.982986 6.019053292533301E-17
vn 0.183681 -0.982986 6.019053292533301E-17
vn -0.982986 -0.183681 1.124721743570925E-17
vn -0.982986 -0.183681 1.124721743570925E-17
vn -0.982986 -0.183681 1.124721743570925E-17
vn -0.982986 -0.183681 1.124721743570925E-17
vn 0.824958 -0.565194 3.460815114986446E-17
vn 0.824958 -0.565194 3.460815114986446E-17
vn 0.824958 -0.565194 3.460815114986446E-17
vn 0.824958 -0.565194 3.460815114986446E-17
vn 0.982986 0.183681 -1.124721743570925E-17
vn 0.982986 0.183681 -1.124721743570925E-17
vn 0.982986 0.183681 -1.124721743570925E-17
vn 0.982986 0.183681 -1.124721743570925E-17
vn -0.824958 0.565194 -3.460815114986446E-17
vn -0.824958 0.565194 -3.460815114986446E-17
vn -0.824958 0.565194 -3.460815114986446E-17
vn -0.824958 0.565194 -3.460815114986446E-17
vn -1 0 0
vn -1 0 0
vn -1 0 0
vn -1 0 0
vn 1 -0 0
vn 1 0 0
vn 1 -0 0
vn 1 -0 0
vn 0.824958 0.565194 -3.460815114986446E-17
vn 0.824958 0.565194 -3.460815114986446E-17
vn 0.824958 0.565194 -3.460815114986446E-17
vn 0.824958 0.565194 -3.460815114986446E-17
vn 0.183681 0.982986 -6.019053292533301E-17
vn 0.183681 0.982986 -6.019053292533301E-17
vn 0.183681 0.982986 -6.019053292533301E-17
vn 0.183681 0.982986 -6.019053292533301E-17
vn -0.824958 -0.565194 3.460815114986446E-17
vn -0.824958 -0.565194 3.460815114986446E-17
vn -0.824958 -0.565194 3.460815114986446E-17
vn -0.824958 -0.565194 3.460815114986446E-17
vn -0.183681 -0.982986 6.019053292533301E-17
vn -0.183681 -0.982986 6.019053292533301E-17
vn -0.183681 -0.982986 6.019053292533301E-17
vn -0.183681 -0.982986 6.019053292533301E-17
vn -0.982986 0.183681 -1.124721743570925E-17
vn -0.982986 0.183681 -1.124721743570925E-17
vn -0.982986 0.183681 -1.124721743570925E-17
vn -0.982986 0.183681 -1.124721743570925E-17
vn 0.565194 -0.824958 5.051410870655011E-17
vn 0.565194 -0.824958 5.051410870655011E-17
vn 0.565194 -0.824958 5.051410870655011E-17
vn 0.565194 -0.824958 5.051410870655011E-17
vn 0.982986 -0.183681 1.124721743570925E-17
vn 0.982986 -0.183681 1.124721743570925E-17
vn 0.982986 -0.183681 1.124721743570925E-17
vn 0.982986 -0.183681 1.124721743570925E-17
vn -0.565194 0.824958 -5.051410870655011E-17
vn -0.565194 0.824958 -5.051410870655011E-17
vn -0.565194 0.824958 -5.051410870655011E-17
vn -0.565194 0.824958 -5.051410870655011E-17
g Default Standard
f 1/1/1 2/2/2 3/3/3
f 3/3/3 4/4/4 1/1/1
f 5/5/5 6/6/6 7/7/7
f 7/7/7 8/8/8 5/5/5
f 9/9/9 10/10/10 11/11/11
f 11/11/11 12/12/12 9/9/9
f 13/13/13 14/14/14 15/15/15
f 15/15/15 16/16/16 13/13/13
f 17/17/17 18/18/18 19/19/19
f 19/19/19 20/20/20 17/17/17
f 21/21/21 22/22/22 23/23/23
f 23/23/23 24/24/24 21/21/21
f 25/25/25 26/26/26 27/27/27
f 27/27/27 28/28/28 25/25/25
f 29/29/29 30/30/30 31/31/31
f 31/31/31 32/32/32 29/29/29
f 33/33/33 34/34/34 35/35/35
f 35/35/35 36/36/36 33/33/33
f 37/37/37 38/38/38 39/39/39
f 39/39/39 40/40/40 37/37/37
f 41/41/41 42/42/42 43/43/43
f 43/43/43 44/44/44 41/41/41
f 45/45/45 46/46/46 47/47/47
f 47/47/47 48/48/48 45/45/45
f 49/49/49 50/50/50 51/51/51
f 51/51/51 52/52/52 49/49/49
f 53/53/53 54/54/54 55/55/55
f 55/55/55 56/56/56 53/53/53
f 57/57/57 58/58/58 59/59/59
f 59/59/59 60/60/60 57/57/57
f 61/61/61 62/62/62 63/63/63
f 63/63/63 64/64/64 61/61/61
f 65/65/65 66/66/66 67/67/67
f 67/67/67 68/68/68 65/65/65
f 69/69/69 70/70/70 71/71/71
f 71/71/71 72/72/72 69/69/69
