v -0.031673 0.13352200000000009 1.289648
v -0.050028 0.08061000000000008 1.260411
v -0.054024 0.12268400000000008 1.257828
v -0.094777 0.08855600000000007 1.020544
v -0.094588 0.08855600000000004 0.783563
v -0.094588 0.08855600000000004 0.783563
v -0.094739 -0.09521199999999994 1.020448
v -0.094588 -0.09521199999999996 0.783563
v -0.094588 -0.09521199999999996 0.783563
v 0.10069 0.08855600000000007 1.020525
v 0.10069 0.08855600000000004 0.783563
v 0.10069 0.08855600000000004 0.783563
v 0.10069 -0.09521199999999994 1.020352
v 0.10069 -0.09521199999999996 0.783563
v 0.10069 -0.09521199999999996 0.783563
v 0.068998 0.12301500000000008 1.258462
v 0.046865 0.13352200000000009 1.289648
v 0.059724 0.12985400000000008 1.325778
v 0.075378 0.10780300000000007 1.198581
v 0.06549 0.06785900000000007 1.198519
v 0.067283 0.08956900000000007 1.153191
v 0.067283 0.08956900000000007 1.153191
v 0.06549 0.06785900000000007 1.198519
v 0.075378 0.10780300000000007 1.198581
v -0.053669 0.1310840000000001 1.321121
v -0.054024 0.12268400000000008 1.257828
v -0.050028 0.08061000000000008 1.260411
v -0.050028 0.08061000000000008 1.260411
v -0.050028 0.08061000000000008 1.260411
v -0.053669 0.1310840000000001 1.321121
v -0.054024 0.12268400000000008 1.257828
v -0.042457 0.08307400000000006 1.196296
v -0.033215 0.04415000000000008 1.200125
v -0.033215 0.04415000000000008 1.200125
v -0.050028 0.08061000000000008 1.260411
v -0.054024 0.12268400000000008 1.257828
v -0.054024 0.12268400000000008 1.257828
v -0.050028 0.08061000000000008 1.260411
v -0.033215 0.04415000000000008 1.200125
v -0.033215 0.04415000000000008 1.200125
v -0.042457 0.08307400000000006 1.196296
v -0.054024 0.12268400000000008 1.257828
v -0.031673 0.13352200000000009 1.289648
v -0.054024 0.12268400000000008 1.257828
v -0.053669 0.1310840000000001 1.321121
v -0.033215 0.04415000000000008 1.200125
v -0.042457 0.08307400000000006 1.196296
v -0.035039 0.05313100000000007 1.153191
v -0.042457 0.08307400000000006 1.196296
v -0.033215 0.04415000000000008 1.200125
v -0.035039 0.05313100000000007 1.153191
v -0.001708 -0.0009789999999999753 0.404339
v 0.306192 -0.12797599999999998 0.356648
v 0.309977 0.12882100000000002 0.356648
v -0.001708 -0.0009789999999999753 0.404339
v 0.309977 0.12882100000000002 0.356648
v 0.129933 0.308865 0.356648
v -0.001708 -0.0009789999999999753 0.404339
v 0.129933 0.308865 0.356648
v -0.124688 0.308865 0.356648
v -0.001708 -0.0009789999999999753 0.404339
v -0.124688 0.308865 0.356648
v -0.304732 0.12882100000000002 0.356648
v -0.001708 -0.0009789999999999753 0.404339
v -0.304732 0.12882100000000002 0.356648
v -0.304732 -0.12579999999999997 0.356648
v -0.001708 -0.0009789999999999753 0.404339
v -0.304732 -0.12579999999999997 0.356648
v -0.124688 -0.305844 0.356648
v -0.001708 -0.0009789999999999753 0.404339
v -0.124688 -0.305844 0.356648
v 0.126148 -0.30802 0.356648
v -0.001708 -0.0009789999999999753 0.404339
v 0.126148 -0.30802 0.356648
v 0.306192 -0.12797599999999998 0.356648
v 0.10069 0.27304700000000004 1.02064
v 0.10069 0.10984700000000007 1.151802
v 0.10069 0.08855600000000007 1.020525
v -0.094588 0.08855600000000004 0.783563
v -0.094777 0.08855600000000007 1.020544
v -0.094815 0.27304700000000004 1.02064
v -0.094815 0.27304700000000004 1.02064
v -0.094815 0.13836400000000004 0.783563
v -0.094588 0.08855600000000004 0.783563
v -0.195244 -0.0033279999999999373 1.020352
v -0.094777 0.08855600000000007 1.020544
v -0.094588 0.08855600000000004 0.783563
v -0.195017 -0.0033279999999999517 0.783563
v -0.195244 -0.0033279999999999373 1.020352
v 0.10069 0.08855600000000004 0.783563
v 0.10069 0.08855600000000007 1.020525
v 0.201346 -0.0033279999999999373 1.020352
v 0.201346 -0.0033279999999999373 1.020352
v 0.201346 -0.0033279999999999517 0.783563
v 0.00757 0.24205700000000008 1.410434
v 0.036393 0.1752380000000001 1.423069
v 0.00757 0.16989600000000007 1.39667
v 0.036393 0.1752380000000001 1.423069
v 0.042058 0.11392200000000008 1.411479
v 0.059724 0.12985400000000008 1.325778
v 0.074328 -0.14085999999999993 1.379297
v 0.065294 0.08023900000000009 1.26022
v 0.074328 -0.14085999999999993 1.379297
v 0.042058 0.11392200000000008 1.411479
v 0.058305 0.020716000000000092 1.515076
v 0.014421 -0.2500309999999999 1.53594
v -0.021253 0.1752380000000001 1.423069
v 0.00757 0.16989600000000007 1.39667
v -0.026918 0.11392200000000008 1.411479
v -0.021253 0.1752380000000001 1.423069
v 0.00757 0.24205700000000008 1.410434
v 0.00757 0.16360500000000008 1.479856
v -0.021253 0.1752380000000001 1.423069
v 0.00757 0.11675200000000008 1.460727
v -0.026918 0.11392200000000008 1.411479
v -0.050028 0.08061000000000008 1.260411
v -0.067805 -0.14098299999999991 1.379428
v -0.053669 0.1310840000000001 1.321121
v -0.026918 0.11392200000000008 1.411479
v -0.067805 -0.14098299999999991 1.379428
v -0.061386 0.020716000000000092 1.515076
v -0.005067 -0.2500409999999999 1.536023
v -0.037209 -0.23983399999999994 1.078686
v 0.06559 -0.1790219999999999 1.180032
v 0.035654 -0.1795769999999999 1.179908
v 0.007597 -0.06953199999999991 1.327505
v -0.012149 -0.14435499999999993 1.236889
v 0.035654 -0.1795769999999999 1.179908
v -0.094739 -0.09521199999999994 1.020448
v -0.195244 -0.0033279999999999373 1.020352
v -0.195017 -0.0033279999999999517 0.783563
v -0.094588 -0.09521199999999996 0.783563
v 0.201346 -0.0033279999999999517 0.783563
v 0.201346 -0.0033279999999999373 1.020352
v 0.10069 -0.09521199999999994 1.020352
v 0.10069 -0.09521199999999996 0.783563
v 0.477787 0.19763500000000003 0.242693
v 0.477787 0.197635 -0.0011930000000000122
v 0.477787 -0.199592 -0.001192999999999988
v 0.477787 -0.19959199999999996 0.242693
v 0.196905 0.478516 0.24269299999999996
v 0.196905 0.478516 -0.0011930000000000293
v 0.477787 0.197635 -0.0011930000000000122
v 0.477787 0.19763500000000003 0.242693
v -0.200321 0.478517 0.24269299999999996
v -0.200321 0.478517 -0.0011930000000000293
v 0.196905 0.478516 -0.0011930000000000293
v 0.196905 0.478516 0.24269299999999996
v -0.481203 0.19763500000000003 0.242693
v -0.481203 0.197635 -0.0011930000000000122
v -0.200321 0.478517 -0.0011930000000000293
v -0.200321 0.478517 0.24269299999999996
v -0.481203 -0.19959199999999996 0.242693
v -0.481203 -0.199592 -0.001192999999999988
v -0.481203 0.197635 -0.0011930000000000122
v -0.481203 0.19763500000000003 0.242693
v -0.200321 -0.480474 0.24269300000000002
v -0.200321 -0.480474 -0.0011929999999999706
v -0.481203 -0.199592 -0.001192999999999988
v -0.481203 -0.19959199999999996 0.242693
v 0.196905 -0.480474 0.24269300000000002
v 0.196905 -0.480474 -0.0011929999999999706
v -0.200321 -0.480474 -0.0011929999999999706
v -0.200321 -0.480474 0.24269300000000002
v 0.477787 -0.19959199999999996 0.242693
v 0.477787 -0.199592 -0.001192999999999988
v 0.196905 -0.480474 -0.0011929999999999706
v 0.196905 -0.480474 0.24269300000000002
v -0.086812 0.18047900000000003 0.354501
v -0.086812 -0.18711999999999998 0.354501
v -0.086812 -0.13347699999999996 0.783563
v -0.086812 0.12683700000000006 0.783563
v 0.014421 -0.2500309999999999 1.53594
v 0.074328 -0.14085999999999993 1.379297
v 0.074328 -0.14085999999999993 1.379297
v 0.059724 0.12985400000000008 1.325778
v 0.042058 0.11392200000000008 1.411479
v 0.059724 0.12985400000000008 1.325778
v 0.00757 0.16989600000000007 1.39667
v 0.046865 0.13352200000000009 1.289648
v -0.067805 -0.14098299999999991 1.379428
v -0.005067 -0.2500409999999999 1.536023
v -0.067805 -0.14098299999999991 1.379428
v -0.053669 0.1310840000000001 1.321121
v 0.579654 0.23982900000000001 0.255116
v 0.471296 0.19494600000000004 0.255116
v 0.471296 -0.19690299999999997 0.255116
v 0.579654 -0.24178599999999997 0.255116
v 0.2391 0.580383 0.25511599999999995
v 0.194217 0.472026 0.25511599999999995
v 0.471296 0.19494600000000004 0.255116
v 0.579654 0.23982900000000001 0.255116
v -0.242516 0.580383 0.25511599999999995
v -0.197633 0.472026 0.25511599999999995
v 0.194217 0.472026 0.25511599999999995
v 0.2391 0.580383 0.25511599999999995
v -0.58307 0.23982900000000001 0.255116
v -0.474712 0.19494600000000004 0.255116
v -0.197633 0.472026 0.25511599999999995
v -0.242516 0.580383 0.25511599999999995
v -0.58307 -0.24178599999999997 0.255116
v -0.474712 -0.19690299999999997 0.255116
v -0.474712 0.19494600000000004 0.255116
v -0.58307 0.23982900000000001 0.255116
v -0.242516 -0.58234 0.25511600000000006
v -0.197633 -0.473983 0.25511600000000006
v -0.474712 -0.19690299999999997 0.255116
v -0.58307 -0.24178599999999997 0.255116
v 0.2391 -0.58234 0.25511600000000006
v 0.194217 -0.473983 0.25511600000000006
v -0.197633 -0.473983 0.25511600000000006
v -0.242516 -0.58234 0.25511600000000006
v 0.579654 -0.24178599999999997 0.255116
v 0.471296 -0.19690299999999997 0.255116
v 0.194217 -0.473983 0.25511600000000006
v 0.2391 -0.58234 0.25511600000000006
v -0.195244 -0.0033279999999999373 1.020352
v -0.095175 -0.0033279999999999313 1.117498
v -0.094777 0.08855600000000007 1.020544
v -0.094739 -0.09521199999999994 1.020448
v 0.10069 0.08855600000000007 1.020525
v 0.10105 -0.0033279999999999313 1.117498
v 0.201346 -0.0033279999999999373 1.020352
v 0.10069 -0.09521199999999994 1.020352
v 0.10069 0.13836400000000004 0.783563
v 0.10069 0.27304700000000004 1.02064
v 0.10069 0.08855600000000007 1.020525
v 0.10069 0.08855600000000004 0.783563
v -0.094815 -0.14501899999999995 0.783563
v -0.094815 -0.27970199999999995 1.02064
v -0.094739 -0.09521199999999994 1.020448
v -0.094588 -0.09521199999999996 0.783563
v 0.092777 0.12683700000000006 0.783563
v 0.092777 0.18047900000000003 0.354501
v -0.086812 0.18047900000000003 0.354501
v -0.086812 0.12683700000000006 0.783563
v -0.094815 0.13836400000000004 0.783563
v -0.094815 0.27304700000000004 1.02064
v 0.10069 0.27304700000000004 1.02064
v 0.10069 0.13836400000000004 0.783563
v -0.086812 -0.13347699999999996 0.783563
v -0.086812 -0.18711999999999998 0.354501
v 0.092777 -0.18711999999999998 0.354501
v 0.092777 -0.13347699999999996 0.783563
v 0.10069 -0.14501899999999995 0.783563
v 0.10069 -0.27970199999999995 1.02064
v -0.094815 -0.27970199999999995 1.02064
v -0.094815 -0.14501899999999995 0.783563
v 0.092777 -0.13347699999999996 0.783563
v 0.092777 -0.18711999999999998 0.354501
v 0.092777 0.18047900000000003 0.354501
v 0.092777 0.12683700000000006 0.783563
v 0.10069 -0.09521199999999996 0.783563
v 0.10069 -0.09521199999999994 1.020352
v 0.10069 -0.27970199999999995 1.02064
v 0.10069 -0.14501899999999995 0.783563
v 0.064484 0.08601800000000008 1.289814
v 0.046865 0.13352200000000009 1.289648
v 0.068998 0.12301500000000008 1.258462
v 0.06549 0.06785900000000007 1.198519
v 0.075378 0.10780300000000007 1.198581
v 0.555863 -0.23193199999999997 0.24269300000000002
v 0.555863 -0.231932 1.4201739070992195E-17
v 0.555863 0.229975 -1.4081907381695628E-17
v 0.555863 0.22997500000000004 0.24269299999999996
v 0.229246 0.556593 -3.408149179389114E-17
v 0.229246 0.556593 0.24269299999999996
v -0.232662 0.556593 -3.408149179389114E-17
v -0.232662 0.556593 0.24269299999999996
v -0.559279 0.229975 -1.4081907381695628E-17
v -0.559279 0.22997500000000004 0.24269299999999996
v -0.559279 -0.231932 1.4201739070992195E-17
v -0.559279 -0.23193199999999997 0.24269300000000002
v -0.232662 -0.55855 3.420132348318771E-17
v -0.232662 -0.55855 0.24269300000000002
v 0.229246 -0.55855 3.420132348318771E-17
v 0.229246 -0.55855 0.24269300000000002
v 0.555863 -0.231932 1.4201739070992195E-17
v 0.555863 -0.23193199999999997 0.24269300000000002
v 0.042058 0.11392200000000008 1.411479
v 0.065294 0.08023900000000009 1.26022
v 0.074328 -0.14085999999999993 1.379297
v 0.058305 0.020716000000000092 1.515076
v 0.014421 -0.2500309999999999 1.53594
v 0.06549 0.06785900000000007 1.198519
v 0.075378 0.10780300000000007 1.198581
v 0.068998 0.12301500000000008 1.258462
v 0.065294 0.08023900000000009 1.26022
v 0.059724 0.12985400000000008 1.325778
v 0.00757 0.11675200000000008 1.460727
v 0.042058 0.11392200000000008 1.411479
v 0.036393 0.1752380000000001 1.423069
v 0.00757 0.16360500000000008 1.479856
v 0.00757 0.24205700000000008 1.410434
v -0.050028 0.08061000000000008 1.260411
v -0.026918 0.11392200000000008 1.411479
v -0.067805 -0.14098299999999991 1.379428
v -0.061386 0.020716000000000092 1.515076
v -0.005067 -0.2500409999999999 1.536023
v -0.094815 0.27304700000000004 1.02064
v -0.094777 0.08855600000000007 1.020544
v -0.094815 0.10984700000000007 1.151802
v -0.095175 -0.0033279999999999313 1.117498
v -0.094815 -0.11650199999999993 1.151802
v -0.094739 -0.09521199999999994 1.020448
v -0.094815 -0.27970199999999995 1.02064
v 0.10069 -0.27970199999999995 1.02064
v 0.10069 -0.09521199999999994 1.020352
v 0.10069 -0.11650199999999993 1.151802
v 0.10105 -0.0033279999999999313 1.117498
v 0.10069 0.10984700000000007 1.151802
v 0.10069 0.08855600000000007 1.020525
v -0.124688 -0.305844 0.356648
v -0.304732 -0.12579999999999997 0.356648
v -0.25283 -0.104301 -0.023624999999999993
v -0.103189 -0.253942 -0.023624999999999986
v 0.126148 -0.30802 0.356648
v 0.104649 -0.256118 -0.023624999999999983
v 0.306192 -0.12797599999999998 0.356648
v 0.25429 -0.106477 -0.023624999999999993
v 0.258076 0.107323 -0.023625000000000007
v 0.309977 0.12882100000000002 0.356648
v 0.129933 0.308865 0.356648
v 0.108435 0.256963 -0.023625000000000018
v -0.124688 0.308865 0.356648
v -0.103189 0.256964 -0.023625000000000018
v -0.304732 0.12882100000000002 0.356648
v -0.25283 0.107323 -0.023625000000000007
v -0.304732 -0.12579999999999997 0.356648
v -0.25283 -0.104301 -0.023624999999999993
v 0.00757 0.11675200000000008 1.460727
v 0.007597 -0.06953199999999991 1.327505
v 0.042058 0.11392200000000008 1.411479
v 0.065294 0.08023900000000009 1.26022
v 0.035513 -0.1413429999999999 1.205545
v 0.00757 0.16989600000000007 1.39667
v -0.053669 0.1310840000000001 1.321121
v -0.026918 0.11392200000000008 1.411479
v -0.031673 0.13352200000000009 1.289648
v 0.046865 0.13352200000000009 1.289648
v 0.007597 -0.06953199999999991 1.327505
v 0.00757 0.11675200000000008 1.460727
v -0.026918 0.11392200000000008 1.411479
v -0.050028 0.08061000000000008 1.260411
v -0.020335 -0.16622599999999993 1.206684
v 0.10069 0.10984700000000007 1.151802
v 0.10069 0.27304700000000004 1.02064
v -0.094815 0.27304700000000004 1.02064
v -0.094815 0.10984700000000007 1.151802
v 0.10069 -0.11650199999999993 1.151802
v -0.094815 -0.11650199999999993 1.151802
v 0.10069 -0.27970199999999995 1.02064
v -0.094815 -0.27970199999999995 1.02064
vt 0.057417 0.137096
vt 0.088328 0.128094
vt 0.072529 0.149958
vt 0.270438 0.352415
vt 0.284715 0.278569
vt 0.255487 0.278699
vt 0.210104 0.352685
vt 0.209767 0.278904
vt 0.180539 0.279035
vt 0.255824 0.352480
vt 0.255487 0.278699
vt 0.284715 0.278569
vt 0.180876 0.352815
vt 0.180539 0.279035
vt 0.209767 0.278904
vt 0.479401 0.242435
vt 0.470637 0.214610
vt 0.488545 0.192448
vt 0.478498 0.315998
vt 0.510189 0.294996
vt 0.506940 0.327431
vt 0.447747 0.322634
vt 0.447124 0.293336
vt 0.478498 0.315998
vt 0.040877 0.147627
vt 0.072896 0.149958
vt 0.073021 0.171780
vt 0.073021 0.171780
vt 0.050506 0.182618
vt 0.040877 0.147627
vt 0.072896 0.149958
vt 0.108835 0.159728
vt 0.112472 0.180655
vt 0.112472 0.180655
vt 0.073021 0.171780
vt 0.072896 0.149958
vt 0.072896 0.149958
vt 0.088328 0.128094
vt 0.122189 0.133042
vt 0.122189 0.133042
vt 0.108835 0.159728
vt 0.072896 0.149958
vt 0.057417 0.137096
vt 0.072896 0.149958
vt 0.040877 0.147627
vt 0.112472 0.180655
vt 0.108835 0.159728
vt 0.130473 0.179994
vt 0.108835 0.159728
vt 0.122189 0.133042
vt 0.134001 0.143641
vt 0.233142 0.392761
vt 0.202626 0.359158
vt 0.266382 0.359068
vt 0.258957 0.410504
vt 0.269277 0.360257
vt 0.314094 0.404946
vt 0.276219 0.440124
vt 0.314620 0.407825
vt 0.314245 0.471114
vt 0.257050 0.470159
vt 0.313806 0.473913
vt 0.268226 0.519574
vt 0.233373 0.484993
vt 0.266640 0.520988
vt 0.200433 0.521080
vt 0.205537 0.463413
vt 0.199111 0.522140
vt 0.150709 0.473876
vt 0.192189 0.438682
vt 0.153676 0.470210
vt 0.154037 0.409182
vt 0.210936 0.407773
vt 0.155824 0.405012
vt 0.199551 0.361797
vt -0.892220 1.516897
vt -0.936936 1.486073
vt -0.892221 1.477638
vt 0.285920 0.601821
vt 0.285537 0.522873
vt 0.352538 0.521452
vt 0.352538 0.521452
vt 0.316378 0.569429
vt 0.285920 0.601821
vt 0.232964 0.352582
vt 0.270438 0.352415
vt 0.255487 0.278699
vt 0.232627 0.278802
vt 0.232964 0.352582
vt -0.791446 1.606994
vt -0.791448 1.530229
vt -0.766115 1.530229
vt -0.766115 1.530229
vt -0.766113 1.606993
vt 1.472831 1.132627
vt 1.523570 1.130505
vt 1.517415 1.158484
vt 1.523570 1.130505
vt 1.567127 1.141436
vt 1.822281 1.604695
vt 1.943745 1.518487
vt 1.861492 1.625838
vt 1.943745 1.518487
vt 1.809718 1.559069
vt 1.833596 1.487615
vt 1.961073 1.412034
vt 1.935051 1.257775
vt 1.933690 1.286642
vt 1.889756 1.256968
vt 1.935051 1.257775
vt 1.985454 1.274946
vt 1.943759 1.211154
vt 1.935051 1.257775
vt 1.908726 1.210213
vt 1.889756 1.256968
vt 1.937818 1.178881
vt 1.830868 1.125449
vt 1.961348 1.151510
vt 1.954525 1.110591
vt 1.830868 1.125449
vt 1.907766 1.065327
vt 1.775896 1.051689
vt 0.518622 0.377992
vt 0.600990 0.360946
vt 0.557357 0.386486
vt 0.643035 0.385178
vt 0.602089 0.378869
vt 0.557357 0.386486
vt 0.210104 0.352685
vt 0.232964 0.352582
vt 0.232627 0.278802
vt 0.209767 0.278904
vt -0.766113 1.606993
vt -0.766115 1.530229
vt -0.740782 1.530228
vt -0.740781 1.606993
vt 0.116259 0.811718
vt 0.116141 0.893823
vt 0.005372 0.893823
vt 0.005489 0.811718
vt 0.227029 0.811718
vt 0.226911 0.893823
vt 0.116141 0.893823
vt 0.116259 0.811718
vt 0.337799 0.811718
vt 0.337681 0.893823
vt 0.226911 0.893823
vt 0.227029 0.811718
vt 0.448569 0.811718
vt 0.448451 0.893823
vt 0.337681 0.893823
vt 0.337799 0.811718
vt 0.559339 0.811718
vt 0.559221 0.893823
vt 0.448451 0.893823
vt 0.448569 0.811718
vt 0.670109 0.811718
vt 0.669991 0.893823
vt 0.559221 0.893823
vt 0.559339 0.811718
vt 0.780879 0.811718
vt 0.780761 0.893823
vt 0.669991 0.893823
vt 0.670109 0.811718
vt 0.891649 0.811718
vt 0.891531 0.893823
vt 0.780761 0.893823
vt 0.780879 0.811718
vt 0.841018 1.789901
vt 0.702898 1.789901
vt 0.723053 1.662853
vt 0.820862 1.662852
vt 0.962467 0.383732
vt 0.890044 0.592204
vt 0.855141 0.522905
vt 0.809300 0.628702
vt 0.583597 0.147415
vt 0.593730 0.212176
vt 0.541885 0.211363
vt 0.568284 0.271214
vt 0.816880 0.127250
vt 0.779284 0.075377
vt 0.833982 0.073283
vt 0.945855 0.157250
vt 0.443388 1.519868
vt 0.416758 1.504662
vt 0.416757 1.371904
vt 0.443388 1.356698
vt 0.319706 1.642376
vt 0.316093 1.615412
vt 0.416580 1.530568
vt 0.443213 1.538095
vt 0.151860 1.649621
vt 0.167026 1.624660
vt 0.299430 1.624660
vt 0.314596 1.649621
vt 0.027938 1.535407
vt 0.055464 1.528414
vt 0.154032 1.622067
vt 0.149086 1.650516
vt 0.043030 1.529969
vt 0.019718 1.513399
vt 0.019716 1.368728
vt 0.043028 1.352157
vt 0.048402 1.363241
vt 0.039327 1.333585
vt 0.129931 1.244907
vt 0.159762 1.254250
vt 0.319538 1.227771
vt 0.303357 1.254446
vt 0.162085 1.254447
vt 0.145903 1.227773
vt 0.434937 1.347639
vt 0.406950 1.354144
vt 0.320416 1.260706
vt 0.328579 1.232795
vt -0.982084 1.622648
vt -0.939267 1.622438
vt -0.959676 1.657996
vt -0.960024 1.587082
vt -0.966868 1.304039
vt -0.988875 1.266674
vt -0.943588 1.266388
vt -0.967342 1.229034
vt 0.304882 1.277447
vt 0.342810 1.356830
vt 0.289752 1.358238
vt 0.289168 1.277527
vt 0.163737 0.601937
vt 0.115941 0.522701
vt 0.181360 0.522658
vt 0.181743 0.601920
vt 0.705613 0.655924
vt 0.709137 0.790020
vt 0.657495 0.790020
vt 0.659016 0.655924
vt 0.471669 0.075524
vt 0.373904 0.076031
vt 0.395518 0.006177
vt 0.471104 0.006511
vt 0.879071 0.652374
vt 0.883414 0.791541
vt 0.829223 0.791541
vt 0.828516 0.652374
vt 0.367211 0.076854
vt 0.269837 0.077244
vt 0.290684 0.007163
vt 0.366269 0.006686
vt 0.980403 1.661073
vt 0.998190 1.785006
vt 0.876310 1.785007
vt 0.894095 1.661073
vt 0.184992 1.277993
vt 0.185359 1.358299
vt 0.118664 1.358597
vt 0.168201 1.277604
vt 0.441114 0.251119
vt 0.470637 0.214610
vt 0.479401 0.242435
vt 0.447124 0.293336
vt 0.479193 0.292369
vt 0.995611 0.912659
vt 0.995011 0.994567
vt 0.871309 0.994567
vt 0.870755 0.913259
vt 0.747606 0.994567
vt 0.747052 0.913259
vt 0.623904 0.994567
vt 0.623350 0.913259
vt 0.500202 0.994567
vt 0.499648 0.913259
vt 0.376499 0.994567
vt 0.375946 0.913259
vt 0.252797 0.994567
vt 0.252243 0.913259
vt 0.129095 0.994567
vt 0.128541 0.913259
vt 0.005393 0.994567
vt 0.004839 0.913259
vt 0.793350 0.136577
vt 0.790602 0.196262
vt 0.748546 0.177372
vt 0.691874 0.080816
vt 0.592612 0.056678
vt 0.510189 0.294996
vt 0.479193 0.292369
vt 0.479401 0.242435
vt 0.522212 0.233755
vt 0.488545 0.192448
vt 1.561052 1.091789
vt 1.567127 1.141436
vt 1.523570 1.130505
vt 1.527282 1.083638
vt 1.472831 1.132627
vt 0.622163 0.630968
vt 0.584269 0.595805
vt 0.747705 0.584046
vt 0.650722 0.500778
vt 0.794627 0.542128
vt -0.643962 1.519130
vt -0.643963 1.477624
vt -0.594061 1.485978
vt -0.607524 1.441565
vt -0.594062 1.397151
vt -0.643964 1.405506
vt -0.643965 1.365047
vt -0.892221 1.371211
vt -0.892221 1.404831
vt -0.936936 1.396396
vt -0.923345 1.441235
vt -0.936936 1.486073
vt -0.892221 1.477638
vt 0.571382 0.671384
vt 0.647029 0.671384
vt 0.647047 0.792943
vt 0.568478 0.792943
vt 0.491121 0.671384
vt 0.486871 0.792943
vt 0.407878 0.671384
vt 0.402737 0.792943
vt 0.318172 0.792943
vt 0.322880 0.671384
vt 0.239245 0.671384
vt 0.234896 0.792943
vt 0.156753 0.671384
vt 0.154604 0.792943
vt 0.078569 0.671384
vt 0.078928 0.792943
vt 0.006377 0.671384
vt 0.006442 0.792943
vt 0.611796 0.158095
vt 0.699161 0.209094
vt 0.612109 0.184681
vt 0.634241 0.250262
vt 0.735274 0.261594
vt 0.921507 0.349424
vt 0.880429 0.366300
vt 0.875512 0.327925
vt 0.880956 0.398371
vt 0.896003 0.430031
vt 0.744872 0.387485
vt 0.825507 0.324403
vt 0.826071 0.355483
vt 0.807486 0.432907
vt 0.702450 0.449332
vt 0.074694 0.076402
vt 0.006550 0.076402
vt 0.006550 0.006454
vt 0.074397 0.006453
vt 0.195413 0.076401
vt 0.195116 0.006453
vt 0.264240 0.076401
vt 0.264240 0.006453
vn 0.81095 0.041190999999999964 -0.583663
vn 0.81095 0.041190999999999964 -0.583663
vn 0.81095 0.041190999999999964 -0.583663
vn -0.554537 0.605141 0.571221
vn 1 0 0
vn 1 0 0
vn -0.554261 -0.605664 0.570934
vn 1 0 0
vn 1 0 0
vn 0.553705 0.60549 0.571657
vn 1 0 0
vn 1 0 0
vn 0.553345 -0.606171 0.571284
vn 1 0 0
vn 1 0 0
vn 0.380157 0.923991 -0.041496000000000054
vn 0.309697 0.937434 -0.15907700000000005
vn 0.823805 0.560291 0.08612999999999997
vn 0.967893 -0.239462 -0.07642699999999998
vn 0.967893 -0.239462 -0.07642699999999998
vn 0.967893 -0.239462 -0.07642699999999998
vn -0.967893 0.239462 0.07642699999999998
vn -0.967893 0.239462 0.07642699999999998
vn -0.967893 0.239462 0.07642699999999998
vn -0.791718 0.608207 0.05715199999999997
vn -0.828682 0.555441 -0.06907500000000003
vn -0.995463 -0.093439 0.017985000000000008
vn 1 0 0
vn -0.975666 -0.14578 0.16378
vn -0.791718 0.608207 0.05715199999999997
vn -0.971733 -0.23389 -0.03210399999999999
vn -0.971733 -0.23389 -0.03210399999999999
vn -0.971733 -0.23389 -0.03210399999999999
vn -0.972538 -0.10511300000000001 -0.207658
vn -0.972538 -0.10511300000000001 -0.207658
vn -0.972538 -0.10511300000000001 -0.207658
vn 0.972538 0.10511300000000001 0.207658
vn 0.972538 0.10511300000000001 0.207658
vn 0.972538 0.10511300000000001 0.207658
vn 0.971733 0.23389 0.03210399999999999
vn 0.971733 0.23389 0.03210399999999999
vn 0.971733 0.23389 0.03210399999999999
vn -0.21753 0.952744 -0.21203800000000006
vn -0.828682 0.555441 -0.06907500000000003
vn -0.791718 0.608207 0.05715199999999997
vn -0.972784 -0.231622 -0.006510999999999986
vn -0.972784 -0.231622 -0.006510999999999986
vn -0.972784 -0.231622 -0.006510999999999986
vn 0.972784 0.231622 0.006510999999999986
vn 0.972784 0.231622 0.006510999999999986
vn 0.972784 0.231622 0.006510999999999986
vn -0.001072 -0.0008799999999999388 0.999999
vn 0.13048 -0.05539599999999994 0.989902
vn 0.129701 0.05236300000000006 0.99017
vn -0.001072 -0.0008799999999999388 0.999999
vn 0.129701 0.05236300000000006 0.99017
vn 0.053483 0.12967600000000007 0.990113
vn -0.001072 -0.0008799999999999388 0.999999
vn 0.053483 0.12967600000000007 0.990113
vn -0.05453 0.13072500000000006 0.989918
vn -0.001072 -0.0008799999999999388 0.999999
vn -0.05453 0.13072500000000006 0.989918
vn -0.132404 0.05453200000000006 0.989695
vn -0.001072 -0.0008799999999999388 0.999999
vn -0.132404 0.05453200000000006 0.989695
vn -0.133026 -0.05515199999999994 0.989577
vn -0.001072 -0.0008799999999999388 0.999999
vn -0.133026 -0.05515199999999994 0.989577
vn -0.055818 -0.13229599999999994 0.989637
vn -0.001072 -0.0008799999999999388 0.999999
vn -0.055818 -0.13229599999999994 0.989637
vn 0.05361 -0.13142899999999993 0.989875
vn -0.001072 -0.0008799999999999388 0.999999
vn 0.05361 -0.13142899999999993 0.989875
vn 0.13048 -0.05539599999999994 0.989902
vn 1 -0 0
vn 1 -0 0
vn 1 -0 0
vn -0.999997 -0.002382 0.0008960000000000001
vn -1 -0.00020500000000000005 -0.000799
vn -0.999997 -0.002382 0.0008960000000000001
vn -0.999997 -0.002382 0.0008960000000000001
vn -0.999986 -0.004559 0.0025900000000000003
vn -0.999997 -0.002382 0.0008960000000000001
vn -0.939579 0.342331 -0.0008500000000000209
vn -0.674883 0.737925 -0.0005390000000000452
vn -0.674952 0.737861 -0.0005930000000000452
vn -0.93953 -0.342465 -0.0007999999999999791
vn -0.939579 0.342331 -0.0008500000000000209
vn 0.674192 0.738556 -4.522351206955363E-17
vn 0.674192 0.738556 -4.522351206955363E-17
vn 0.939334 0.343004 -2.1002937534736936E-17
vn 0.939334 0.343004 -2.1002937534736936E-17
vn 0.939334 -0.343003 2.100287630239698E-17
vn -0 0.904911 -0.42560000000000003
vn 0.989179 0.146671 -0.003575000000000009
vn 0.034425 0.83447 -0.549978
vn 0.989179 0.146671 -0.003575000000000009
vn 0.983997 0.048209000000000016 0.171541
vn 0.823805 0.560291 0.08612999999999997
vn 0.99738 0.061373 0.03828499999999999
vn 0.970613 -0.140788 0.195164
vn 0.987748 0.03124500000000001 0.1529
vn 0.983997 0.048209000000000016 0.171541
vn 0.992874 -0.0016719999999999927 0.119156
vn 0.953143 -0.13357499999999997 0.271432
vn -0.989179 0.146671 -0.003575000000000009
vn 0.034425 0.83447 -0.549978
vn -0.98238 0.059795000000000015 0.177071
vn -0.989179 0.146671 -0.003575000000000009
vn -0 0.904911 -0.42560000000000003
vn -0 0.27083500000000005 0.962626
vn -0.989179 0.146671 -0.003575000000000009
vn 2.1E-05 -0.35980699999999993 0.933027
vn -0.98238 0.059795000000000015 0.177071
vn -0.975666 -0.14578 0.16378
vn -0.995644 0.03304699999999999 -0.087186
vn -0.791718 0.608207 0.05715199999999997
vn -0.98238 0.059795000000000015 0.177071
vn -0.989923 0.038832000000000005 0.136179
vn -0.998841 -0.0007309999999999971 0.048137
vn -0.949977 -0.17773199999999997 0.256819
vn 0.013905 -0.863555 0.504063
vn 0.044577 -0.83134 0.553974
vn 0.013677 -0.854634 0.51905
vn 0.106003 -0.777974 0.619289
vn 0.059877 -0.813793 0.578062
vn 0.013677 -0.854634 0.51905
vn -0.674884 -0.737924 -0.0005389999999999548
vn -0.939579 0.342331 -0.0008500000000000209
vn -0.93953 -0.342465 -0.0007999999999999791
vn -0.675022 -0.737797 -0.00043099999999995486
vn 0.939334 -0.343003 2.100287630239698E-17
vn 0.939334 0.343004 -2.1002937534736936E-17
vn 0.674192 -0.738556 4.522351206955363E-17
vn 0.674192 -0.738556 4.522351206955363E-17
vn -1 0 -0
vn -1 0 -0
vn -1 0 -0
vn -1 0 -0
vn -0.707107 -0.707107 4.329781621023438E-17
vn -0.707107 -0.707107 4.329781621023438E-17
vn -0.707107 -0.707107 4.329781621023438E-17
vn -0.707107 -0.707107 4.329781621023438E-17
vn -0 -1 6.123233995736766E-17
vn -0 -1 6.123233995736766E-17
vn -0 -1 6.123233995736766E-17
vn -0 -1 6.123233995736766E-17
vn 0.707107 -0.707107 4.329781621023438E-17
vn 0.707107 -0.707107 4.329781621023438E-17
vn 0.707107 -0.707107 4.329781621023438E-17
vn 0.707107 -0.707107 4.329781621023438E-17
vn 1 0 0
vn 1 0 0
vn 1 0 0
vn 1 0 0
vn 0.707107 0.707107 -4.329781621023438E-17
vn 0.707107 0.707107 -4.329781621023438E-17
vn 0.707107 0.707107 -4.329781621023438E-17
vn 0.707107 0.707107 -4.329781621023438E-17
vn 0 1 -6.123233995736766E-17
vn 0 1 -6.123233995736766E-17
vn 0 1 -6.123233995736766E-17
vn 0 1 -6.123233995736766E-17
vn -0.707107 0.707107 -4.329781621023438E-17
vn -0.707107 0.707107 -4.329781621023438E-17
vn -0.707107 0.707107 -4.329781621023438E-17
vn -0.707107 0.707107 -4.329781621023438E-17
vn -1 0 0
vn -1 0 0
vn -1 0 0
vn -1 0 0
vn 0.953143 -0.13357499999999997 0.271432
vn 0.99738 0.061373 0.03828499999999999
vn 0.987748 0.03124500000000001 0.1529
vn 0.823805 0.560291 0.08612999999999997
vn 0.983997 0.048209000000000016 0.171541
vn 0.823805 0.560291 0.08612999999999997
vn 0.034425 0.83447 -0.549978
vn 0.309697 0.937434 -0.15907700000000005
vn -0.995644 0.03304699999999999 -0.087186
vn -0.949977 -0.17773199999999997 0.256819
vn -0.989923 0.038832000000000005 0.136179
vn -0.791718 0.608207 0.05715199999999997
vn 0 6.123233995736766E-17 1
vn 0 6.123233995736766E-17 1
vn 0 6.123233995736766E-17 1
vn 0 6.123233995736766E-17 1
vn 0 6.123233995736766E-17 1
vn 0 6.123233995736766E-17 1
vn 0 6.123233995736766E-17 1
vn 0 6.123233995736766E-17 1
vn 0 6.123233995736766E-17 1
vn 0 6.123233995736766E-17 1
vn 0 6.123233995736766E-17 1
vn 0 6.123233995736766E-17 1
vn 0 6.123233995736766E-17 1
vn 0 6.123233995736766E-17 1
vn 0 6.123233995736766E-17 1
vn 0 6.123233995736766E-17 1
vn 0 6.123233995736766E-17 1
vn 0 6.123233995736766E-17 1
vn 0 6.123233995736766E-17 1
vn 0 6.123233995736766E-17 1
vn 0 6.123233995736766E-17 1
vn 0 6.123233995736766E-17 1
vn 0 6.123233995736766E-17 1
vn 0 6.123233995736766E-17 1
vn 0 6.123233995736766E-17 1
vn 0 6.123233995736766E-17 1
vn 0 6.123233995736766E-17 1
vn 0 6.123233995736766E-17 1
vn 0 6.123233995736766E-17 1
vn 0 6.123233995736766E-17 1
vn 0 6.123233995736766E-17 1
vn 0 6.123233995736766E-17 1
vn -0.696552 -0.0003279999999999561 0.717507
vn -0.696552 -0.0003279999999999561 0.717507
vn -0.554537 0.605141 0.571221
vn -0.554261 -0.605664 0.570934
vn 0.553705 0.60549 0.571657
vn 0.695738 -0.00042799999999995603 0.718295
vn 0.695738 -0.00042799999999995603 0.718295
vn 0.553345 -0.606171 0.571284
vn 1 0 0
vn 1 0 0
vn 1 0 0
vn 1 0 0
vn -0.999997 0.002484 -0.00020300000000000016
vn -1 0.00041 0.00023299999999999997
vn -0.999997 0.002484 -0.00020300000000000016
vn -0.99999 0.004558 -0.0006390000000000004
vn -0 0.992275 0.12405699999999995
vn 0 0.992275 0.12405699999999995
vn -0 0.992275 0.12405699999999995
vn -0 0.992275 0.12405699999999995
vn -0 0.869488 -0.49395400000000006
vn -0 0.869488 -0.49395400000000006
vn -0 0.869488 -0.49395400000000006
vn -0 0.869488 -0.49395400000000006
vn 0 -0.992275 0.12405700000000006
vn -0 -0.992275 0.12405700000000006
vn 0 -0.992275 0.12405700000000006
vn 0 -0.992275 0.12405700000000006
vn 0 -0.869488 -0.49395399999999995
vn 0 -0.869488 -0.49395399999999995
vn 0 -0.869488 -0.49395399999999995
vn 0 -0.869488 -0.49395399999999995
vn 1 -0 0
vn 1 -0 0
vn 1 -0 0
vn 1 -0 0
vn 1 -0 0
vn 0.999999 -0.001116 -0.00018099999999999993
vn 1 -0 0
vn 1 -1E-06 6.123233995736766E-23
vn -0.956834 -0.11091800000000002 -0.268638
vn -0.821938 -0.30653500000000006 -0.480057
vn -0.971824 0.009356999999999987 -0.235523
vn -0.981132 0.167442 -0.09666100000000001
vn -0.957768 0.237332 -0.16233700000000004
vn 0.967538 -0.252725 1.547494311572574E-17
vn 0.862856 -0.505449 3.094982499911153E-17
vn 0.967538 0.252725 -1.547494311572574E-17
vn 0.862856 0.505449 -3.094982499911153E-17
vn 0.50545 0.862856 -5.2834691926254425E-17
vn 0.252725 0.967538 -5.92446157376716E-17
vn -0.252725 0.967538 -5.92446157376716E-17
vn -0.505449 0.862856 -5.2834691926254425E-17
vn -0.862856 0.50545 -3.094988623145148E-17
vn -0.967538 0.252725 -1.547494311572574E-17
vn -0.967538 -0.252725 1.547494311572574E-17
vn -0.862856 -0.505449 3.094982499911153E-17
vn -0.50545 -0.862856 5.2834691926254425E-17
vn -0.252725 -0.967538 5.92446157376716E-17
vn 0.252725 -0.967538 5.92446157376716E-17
vn 0.50545 -0.862856 5.2834691926254425E-17
vn 0.862856 -0.505449 3.094982499911153E-17
vn 0.967538 -0.252725 1.547494311572574E-17
vn -0.991771 -0.119969 -0.04469299999999999
vn -0.985889 -0.10880000000000001 -0.12722
vn -0.991881 -0.03572600000000001 -0.122051
vn -0.992874 0.0016719999999999927 -0.119156
vn -0.953143 0.13357499999999997 -0.271432
vn 0.982461 -0.162285 0.09183800000000002
vn 0.957768 -0.237332 0.16233700000000004
vn 0.984826 -0.134728 0.10939400000000002
vn 0.993178 -0.082615 0.082293
vn 0.986386 -0.07949299999999998 0.143959
vn 2.1E-05 -0.35980699999999993 0.933027
vn 0.983997 0.048209000000000016 0.171541
vn 0.989179 0.146671 -0.003575000000000009
vn -0 0.27083500000000005 0.962626
vn -0 0.904911 -0.42560000000000003
vn 0.982609 -0.142666 -0.11885599999999999
vn 0.986664 -0.161145 0.02293900000000001
vn 0.996187 -0.04847300000000001 -0.072544
vn 0.998841 0.0007309999999999971 -0.048137
vn 0.949977 0.17773199999999997 -0.256819
vn -1 -0.00020500000000000002 -0.000255
vn -0.999999 0.001617 -0.0005510000000000001
vn -0.999995 0.0010780000000000002 0.003132
vn -0.999996 -3.0999999999999825E-05 0.002835
vn -0.999995 -0.0010399999999999997 0.002947
vn -0.999998 -0.00156 -0.0008289999999999999
vn -1 0.00040999999999999994 -0.00051
vn 1 -0 0
vn 0.999999 -0.001116 -0.00018099999999999993
vn 0.999994 -0.0011159999999999998 0.003319
vn 0.999995 1.9214708278621972E-19 0.003138
vn 0.999986 0.0016730000000000002 0.004978
vn 0.999994 0.003347 -0.0005430000000000002
vn -0.50242 -0.852421 -0.14474699999999993
vn -0.957341 -0.250061 -0.14479999999999998
vn -0.853763 -0.500122 -0.14479999999999998
vn -0.256398 -0.955706 -0.14451799999999995
vn 0.243708 -0.958947 -0.14500799999999994
vn 0.49735 -0.85537 -0.14486299999999994
vn 0.910918 -0.386003 -0.14570499999999997
vn 0.910564 -0.386675 -0.14613899999999996
vn 0.916928 0.371122 -0.14666500000000002
vn 0.916735 0.371807 -0.14614000000000002
vn 0.500123 0.853763 -0.14479900000000007
vn 0.250062 0.957341 -0.14479900000000007
vn -0.250061 0.957342 -0.14479900000000007
vn -0.500122 0.853763 -0.14479900000000007
vn -0.853763 0.500123 -0.14479900000000004
vn -0.957341 0.250061 -0.14479900000000004
vn -0.957341 -0.250061 -0.14479999999999998
vn -0.853763 -0.500122 -0.14479999999999998
vn 2.1E-05 -0.35980699999999993 0.933027
vn 0.002704 -0.616098 0.787665
vn 0.983997 0.048209000000000016 0.171541
vn 0.970613 -0.140788 0.195164
vn 0.920668 -0.20561199999999996 0.331806
vn 0.034425 0.83447 -0.549978
vn -0.791718 0.608207 0.05715199999999997
vn -0.98238 0.059795000000000015 0.177071
vn -0.21753 0.952744 -0.21203800000000006
vn 0.309697 0.937434 -0.15907700000000005
vn 0.002704 -0.616098 0.787665
vn 2.1E-05 -0.35980699999999993 0.933027
vn -0.98238 0.059795000000000015 0.177071
vn -0.975666 -0.14578 0.16378
vn -0.912902 -0.18860699999999997 0.361992
vn -0 0.43973700000000004 0.898127
vn -0 0.626446 0.779465
vn -0 0.626446 0.779465
vn -0 0.21986900000000006 0.975529
vn 0 -0.21986899999999995 0.975529
vn 0 -0.43973699999999993 0.898126
vn 0 -0.626446 0.779464
vn 0 -0.626446 0.779464
g 01
f 1/1/1 2/2/2 3/3/3
f 4/4/4 5/5/5 6/6/6
f 7/7/7 8/8/8 9/9/9
f 10/10/10 11/11/11 12/12/12
f 13/13/13 14/14/14 15/15/15
f 16/16/16 17/17/17 18/18/18
f 19/19/19 20/20/20 21/21/21
f 22/22/22 23/23/23 24/24/24
f 25/25/25 26/26/26 27/27/27
f 28/28/28 29/29/29 30/30/30
f 31/31/31 32/32/32 33/33/33
f 34/34/34 35/35/35 36/36/36
f 37/37/37 38/38/38 39/39/39
f 40/40/40 41/41/41 42/42/42
f 43/43/43 44/44/44 45/45/45
f 46/46/46 47/47/47 48/48/48
f 49/49/49 50/50/50 51/51/51
f 52/52/52 53/53/53 54/54/54
f 55/55/55 56/56/56 57/57/57
f 58/58/58 59/59/59 60/60/60
f 61/61/61 62/62/62 63/63/63
f 64/64/64 65/65/65 66/66/66
f 67/67/67 68/68/68 69/69/69
f 70/70/70 71/71/71 72/72/72
f 73/73/73 74/74/74 75/75/75
f 76/76/76 77/77/77 78/78/78
f 79/79/79 80/80/80 81/81/81
f 82/82/82 83/83/83 84/84/84
f 85/85/85 86/86/86 87/87/87
f 87/87/87 88/88/88 89/89/89
f 90/90/90 91/91/91 92/92/92
f 93/93/93 94/94/94 90/90/90
f 95/95/95 96/96/96 97/97/97
f 97/97/97 98/98/98 99/99/99
f 100/100/100 101/101/101 102/102/102
f 103/103/103 100/100/100 104/104/104
f 104/104/104 105/105/105 103/103/103
f 106/106/106 103/103/103 105/105/105
f 107/107/107 108/108/108 109/109/109
f 110/110/110 111/111/111 108/108/108
f 112/112/112 111/111/111 113/113/113
f 113/113/113 114/114/114 112/112/112
f 113/113/113 115/115/115 114/114/114
f 116/116/116 117/117/117 118/118/118
f 119/119/119 118/118/118 120/120/120
f 120/120/120 121/121/121 119/119/119
f 120/120/120 122/122/122 121/121/121
f 123/123/123 124/124/124 125/125/125
f 126/126/126 127/127/127 124/124/124
f 127/127/127 128/128/128 124/124/124
f 129/129/129 130/130/130 131/131/131
f 131/131/131 132/132/132 129/129/129
f 133/133/133 134/134/134 135/135/135
f 135/135/135 136/136/136 133/133/133
f 137/137/137 138/138/138 139/139/139
f 139/139/139 140/140/140 137/137/137
f 141/141/141 142/142/142 143/143/143
f 143/143/143 144/144/144 141/141/141
f 145/145/145 146/146/146 147/147/147
f 147/147/147 148/148/148 145/145/145
f 149/149/149 150/150/150 151/151/151
f 151/151/151 152/152/152 149/149/149
f 153/153/153 154/154/154 155/155/155
f 155/155/155 156/156/156 153/153/153
f 157/157/157 158/158/158 159/159/159
f 159/159/159 160/160/160 157/157/157
f 161/161/161 162/162/162 163/163/163
f 163/163/163 164/164/164 161/161/161
f 165/165/165 166/166/166 167/167/167
f 167/167/167 168/168/168 165/165/165
f 169/169/169 170/170/170 171/171/171
f 171/171/171 172/172/172 169/169/169
f 173/173/173 174/174/174 175/175/175
f 176/176/176 175/175/175 174/174/174
f 177/177/177 178/178/178 179/179/179
f 180/180/180 179/179/179 178/178/178
f 181/181/181 182/182/182 183/183/183
f 181/181/181 183/183/183 184/184/184
f 185/185/185 186/186/186 187/187/187
f 187/187/187 188/188/188 185/185/185
f 189/189/189 190/190/190 191/191/191
f 191/191/191 192/192/192 189/189/189
f 193/193/193 194/194/194 195/195/195
f 195/195/195 196/196/196 193/193/193
f 197/197/197 198/198/198 199/199/199
f 199/199/199 200/200/200 197/197/197
f 201/201/201 202/202/202 203/203/203
f 203/203/203 204/204/204 201/201/201
f 205/205/205 206/206/206 207/207/207
f 207/207/207 208/208/208 205/205/205
f 209/209/209 210/210/210 211/211/211
f 211/211/211 212/212/212 209/209/209
f 213/213/213 214/214/214 215/215/215
f 215/215/215 216/216/216 213/213/213
f 217/217/217 218/218/218 219/219/219
f 217/217/217 220/220/220 218/218/218
f 221/221/221 222/222/222 223/223/223
f 223/223/223 222/222/222 224/224/224
f 225/225/225 226/226/226 227/227/227
f 227/227/227 228/228/228 225/225/225
f 229/229/229 230/230/230 231/231/231
f 231/231/231 232/232/232 229/229/229
f 233/233/233 234/234/234 235/235/235
f 235/235/235 236/236/236 233/233/233
f 237/237/237 238/238/238 239/239/239
f 239/239/239 240/240/240 237/237/237
f 241/241/241 242/242/242 243/243/243
f 243/243/243 244/244/244 241/241/241
f 245/245/245 246/246/246 247/247/247
f 247/247/247 248/248/248 245/245/245
f 249/249/249 250/250/250 251/251/251
f 251/251/251 252/252/252 249/249/249
f 253/253/253 254/254/254 255/255/255
f 255/255/255 256/256/256 253/253/253
f 257/257/257 258/258/258 259/259/259
f 260/260/260 257/257/257 259/259/259
f 259/259/259 261/261/261 260/260/260
f 262/262/262 263/263/263 264/264/264
f 264/264/264 265/265/265 262/262/262
f 265/265/265 264/264/264 266/266/266
f 266/266/266 267/267/267 265/265/265
f 267/267/267 266/266/266 268/268/268
f 268/268/268 269/269/269 267/267/267
f 269/269/269 268/268/268 270/270/270
f 270/270/270 271/271/271 269/269/269
f 271/271/271 270/270/270 272/272/272
f 272/272/272 273/273/273 271/271/271
f 273/273/273 272/272/272 274/274/274
f 274/274/274 275/275/275 273/273/273
f 275/275/275 274/274/274 276/276/276
f 276/276/276 277/277/277 275/275/275
f 277/277/277 276/276/276 278/278/278
f 278/278/278 279/279/279 277/277/277
f 280/280/280 281/281/281 282/282/282
f 283/283/283 280/280/280 282/282/282
f 283/283/283 282/282/282 284/284/284
f 285/285/285 286/286/286 287/287/287
f 287/287/287 288/288/288 285/285/285
f 288/288/288 287/287/287 289/289/289
f 290/290/290 291/291/291 292/292/292
f 293/293/293 290/290/290 292/292/292
f 292/292/292 294/294/294 293/293/293
f 295/295/295 296/296/296 297/297/297
f 296/296/296 298/298/298 297/297/297
f 297/297/297 298/298/298 299/299/299
f 300/300/300 301/301/301 302/302/302
f 302/302/302 301/301/301 303/303/303
f 303/303/303 304/304/304 302/302/302
f 304/304/304 303/303/303 305/305/305
f 306/306/306 304/304/304 305/305/305
f 307/307/307 308/308/308 309/309/309
f 309/309/309 308/308/308 310/310/310
f 311/311/311 309/309/309 310/310/310
f 310/310/310 312/312/312 311/311/311
f 313/313/313 314/314/314 315/315/315
f 315/315/315 316/316/316 313/313/313
f 317/317/317 313/313/313 316/316/316
f 316/316/316 318/318/318 317/317/317
f 319/319/319 317/317/317 318/318/318
f 318/318/318 320/320/320 319/319/319
f 319/319/319 320/320/320 321/321/321
f 321/321/321 322/322/322 319/319/319
f 323/323/323 322/322/322 321/321/321
f 321/321/321 324/324/324 323/323/323
f 325/325/325 323/323/323 324/324/324
f 324/324/324 326/326/326 325/325/325
f 327/327/327 325/325/325 326/326/326
f 326/326/326 328/328/328 327/327/327
f 329/329/329 327/327/327 328/328/328
f 328/328/328 330/330/330 329/329/329
f 331/331/331 332/332/332 333/333/333
f 334/334/334 333/333/333 332/332/332
f 334/334/334 332/332/332 335/335/335
f 336/336/336 337/337/337 338/338/338
f 339/339/339 337/337/337 336/336/336
f 336/336/336 340/340/340 339/339/339
f 341/341/341 342/342/342 343/343/343
f 343/343/343 344/344/344 341/341/341
f 341/341/341 344/344/344 345/345/345
f 346/346/346 347/347/347 348/348/348
f 348/348/348 349/349/349 346/346/346
f 350/350/350 346/346/346 349/349/349
f 349/349/349 351/351/351 350/350/350
f 352/352/352 350/350/350 351/351/351
f 351/351/351 353/353/353 352/352/352
