v -0.534682 -0.354655 0.07314900000000003
v -0.534682 -0.354655 -0.13945499999999997
v -0.746363 -0.334863 -0.13945499999999997
v -0.746363 -0.334863 0.07314900000000002
v -0.746363 -0.334863 0.07314900000000002
v -0.746363 -0.334863 -0.13945499999999997
v -0.766155 -0.546544 -0.13945499999999997
v -0.766155 -0.546544 0.07314900000000003
v -0.766155 -0.546544 0.07314900000000003
v -0.766155 -0.546544 -0.13945499999999997
v -0.554474 -0.566336 -0.13945499999999997
v -0.554474 -0.566336 0.07314900000000003
v -0.554474 -0.566336 0.07314900000000003
v -0.554474 -0.566336 -0.13945499999999997
v -0.534682 -0.354655 -0.13945499999999997
v -0.534682 -0.354655 0.07314900000000003
v -0.766155 -0.546544 0.07314900000000003
v -0.554474 -0.566336 0.07314900000000003
v -0.534682 -0.354655 0.07314900000000003
v -0.746363 -0.334863 0.07314900000000002
v 0.309774 -0.556025 0.023305000000000034
v 0.309774 -0.556025 -0.19971799999999998
v 0.243773 -0.761588 -0.19971799999999995
v 0.243773 -0.761588 0.023305000000000044
v 0.243773 -0.761588 0.023305000000000044
v 0.243773 -0.761588 -0.19971799999999995
v 0.449337 -0.827589 -0.19971799999999995
v 0.449337 -0.827589 0.02330500000000005
v 0.449337 -0.827589 0.02330500000000005
v 0.449337 -0.827589 -0.19971799999999995
v 0.515338 -0.622026 -0.19971799999999998
v 0.515338 -0.622026 0.023305000000000037
v 0.515338 -0.622026 0.023305000000000037
v 0.515338 -0.622026 -0.19971799999999998
v 0.309774 -0.556025 -0.19971799999999998
v 0.309774 -0.556025 0.023305000000000034
v 0.449337 -0.827589 0.02330500000000005
v 0.515338 -0.622026 0.023305000000000037
v 0.309774 -0.556025 0.023305000000000034
v 0.243773 -0.761588 0.023305000000000044
vt 0.656720 0.176886
vt 0.656720 0.133757
vt 0.698274 0.133757
vt 0.698274 0.176886
vt 0.698274 0.176886
vt 0.698274 0.133757
vt 0.739856 0.133757
vt 0.739856 0.176886
vt 0.739856 0.176886
vt 0.739856 0.133757
vt 0.781469 0.133757
vt 0.781469 0.176886
vt 0.781469 0.176886
vt 0.781469 0.133757
vt 0.823058 0.133757
vt 0.823058 0.176886
vt 0.739856 0.176886
vt 0.739856 0.220034
vt 0.698274 0.220034
vt 0.698274 0.176886
vt 0.656720 0.176886
vt 0.656720 0.133757
vt 0.698274 0.133757
vt 0.698274 0.176886
vt 0.698274 0.176886
vt 0.698274 0.133757
vt 0.739856 0.133757
vt 0.739856 0.176886
vt 0.739856 0.176886
vt 0.739856 0.133757
vt 0.781469 0.133757
vt 0.781469 0.176886
vt 0.781469 0.176886
vt 0.781469 0.133757
vt 0.823058 0.133757
vt 0.823058 0.176886
vt 0.739856 0.176886
vt 0.739856 0.220034
vt 0.698274 0.220034
vt 0.698274 0.176886
vn 0.093093 0.995657 -6.096640790493282E-17
vn 0.093093 0.995657 -6.096640790493282E-17
vn 0.093093 0.995657 -6.096640790493282E-17
vn 0.093093 0.995657 -6.096640790493282E-17
vn -0.995657 0.093094 -5.7003634559911844E-18
vn -0.995657 0.093094 -5.7003634559911844E-18
vn -0.995657 0.093094 -5.7003634559911844E-18
vn -0.995657 0.093094 -5.7003634559911844E-18
vn -0.093092 -0.995658 6.096646913727277E-17
vn -0.093092 -0.995658 6.096646913727277E-17
vn -0.093092 -0.995658 6.096646913727277E-17
vn -0.093092 -0.995658 6.096646913727277E-17
vn 0.995658 -0.093092 5.70024099131127E-18
vn 0.995658 -0.093092 5.70024099131127E-18
vn 0.995658 -0.093092 5.70024099131127E-18
vn 0.995658 -0.093092 5.70024099131127E-18
vn -0 6.123233995736766E-17 1
vn -0 6.123233995736766E-17 1
vn -0 6.123233995736766E-17 1
vn -0 6.123233995736766E-17 1
vn -0.952127 0.305703 -1.8718910021987166E-17
vn -0.952127 0.305703 -1.8718910021987166E-17
vn -0.952127 0.305703 -1.8718910021987166E-17
vn -0.952127 0.305703 -1.8718910021987166E-17
vn -0.305704 -0.952127 5.83009641465886E-17
vn -0.305704 -0.952127 5.83009641465886E-17
vn -0.305704 -0.952127 5.83009641465886E-17
vn -0.305704 -0.952127 5.83009641465886E-17
vn 0.952127 -0.305701 1.8718787557307252E-17
vn 0.952127 -0.305702 1.8718848789647206E-17
vn 0.952127 -0.305701 1.8718787557307252E-17
vn 0.952127 -0.305701 1.8718787557307252E-17
vn 0.305702 0.952127 -5.83009641465886E-17
vn 0.305702 0.952127 -5.83009641465886E-17
vn 0.305702 0.952127 -5.83009641465886E-17
vn 0.305702 0.952127 -5.83009641465886E-17
vn -0 6.123233995736766E-17 1
vn -0 6.123233995736766E-17 1
vn -0 6.123233995736766E-17 1
vn -0 6.123233995736766E-17 1
g Hfenmeisterei
f 1/1/1 2/2/2 3/3/3
f 3/3/3 4/4/4 1/1/1
f 5/5/5 6/6/6 7/7/7
f 7/7/7 8/8/8 5/5/5
f 9/9/9 10/10/10 11/11/11
f 11/11/11 12/12/12 9/9/9
f 13/13/13 14/14/14 15/15/15
f 15/15/15 16/16/16 13/13/13
f 17/17/17 18/18/18 19/19/19
f 19/19/19 20/20/20 17/17/17
f 21/21/21 22/22/22 23/23/23
f 23/23/23 24/24/24 21/21/21
f 25/25/25 26/26/26 27/27/27
f 27/27/27 28/28/28 25/25/25
f 29/29/29 30/30/30 31/31/31
f 31/31/31 32/32/32 29/29/29
f 33/33/33 34/34/34 35/35/35
f 35/35/35 36/36/36 33/33/33
f 37/37/37 38/38/38 39/39/39
f 39/39/39 40/40/40 37/37/37
