v 1.75067 -0.277242 0.026534000000000016
v 1.750629 -0.276806 0.007854000000000017
v 1.747822 -0.581353 0.0007430000000000355
v 1.747862 -0.581789 0.019424000000000035
v 1.747862 -0.581789 0.019424000000000035
v 1.747822 -0.581353 0.0007430000000000355
v 2.073324 -0.584439 -3.699999999996421E-05
v 2.073364 -0.584875 0.018644000000000036
v 2.073364 -0.584875 0.018644000000000036
v 2.073324 -0.584439 -3.699999999996421E-05
v 2.076501 -0.278955 0.007094000000000017
v 2.076541 -0.279391 0.025775000000000017
v 1.75067 -0.277242 0.026534000000000016
v 2.076541 -0.279391 0.025775000000000017
v 2.076501 -0.278955 0.007094000000000017
v 1.750629 -0.276806 0.007854000000000017
v 2.073364 -0.584875 0.018644000000000036
v 2.076541 -0.279391 0.025775000000000017
v 1.75067 -0.277242 0.026534000000000016
v 1.747862 -0.581789 0.019424000000000035
v 1.516366 1.056184 -1.214536
v 1.516366 1.056184 -1.233222
v 1.670901 0.7936459999999999 -1.233222
v 1.670901 0.7936459999999999 -1.214536
v 1.670901 0.7936459999999999 -1.214536
v 1.670901 0.7936459999999999 -1.233222
v 1.951481 0.9586819999999999 -1.233222
v 1.951481 0.9586819999999999 -1.214536
v 1.951481 0.9586819999999999 -1.214536
v 1.951481 0.9586819999999999 -1.233222
v 1.796778 1.222213 -1.233222
v 1.796778 1.222213 -1.214536
v 1.516366 1.056184 -1.214536
v 1.796778 1.222213 -1.214536
v 1.796778 1.222213 -1.233222
v 1.516366 1.056184 -1.233222
v 1.951481 0.9586819999999999 -1.214536
v 1.796778 1.222213 -1.214536
v 1.516366 1.056184 -1.214536
v 1.670901 0.7936459999999999 -1.214536
v 1.907835 -0.537187 0.13280700000000004
v 1.902643 -0.527385 0.03386100000000004
v 1.859865 -0.533388 0.03381400000000003
v 1.857334 -0.544261 0.13275100000000004
v 1.828473 -0.503658 0.034577000000000024
v 1.820309 -0.509204 0.13365100000000002
v 1.832183 -0.460655 0.03557400000000003
v 1.824656 -0.458384 0.13482900000000003
v 1.868165 -0.436705 0.036055000000000025
v 1.867106 -0.430103 0.13539800000000002
v 1.9093 -0.449849 0.03565900000000003
v 1.915686 -0.44563 0.13492900000000002
v 1.924652 -0.49023 0.034682000000000025
v 1.933833 -0.493303 0.13377600000000003
v 1.902643 -0.527385 0.03386100000000004
v 1.907835 -0.537187 0.13280700000000004
v 1.857608 -0.540116 0.023733000000000035
v 1.854696 -0.552508 0.13256500000000002
v 1.812213 -0.512223 0.13359800000000002
v 1.821618 -0.506042 0.024608000000000033
v 1.817231 -0.453977 0.13494800000000004
v 1.82588 -0.456689 0.025751000000000027
v 1.865911 -0.421539 0.13560000000000003
v 1.867101 -0.429199 0.02630400000000003
v 1.921627 -0.439342 0.13506300000000002
v 1.914291 -0.444293 0.025849000000000028
v 1.942451 -0.49406 0.13373900000000002
v 1.931919 -0.490598 0.02472800000000003
v 1.912608 -0.544393 0.13262800000000002
v 1.906673 -0.53327 0.023786000000000033
v 1.854696 -0.552508 0.13256500000000002
v 1.857608 -0.540116 0.023733000000000035
v 2.041918 -0.510238 0.13314500000000004
v 2.036723 -0.500436 0.03419900000000003
v 1.993945 -0.506438 0.03415200000000003
v 1.991418 -0.517312 0.13308900000000004
v 1.962557 -0.476708 0.03491500000000003
v 1.954392 -0.482254 0.13398900000000002
v 1.966266 -0.433705 0.03591200000000003
v 1.958736 -0.431434 0.13516700000000004
v 2.002246 -0.409755 0.03639300000000003
v 2.001189 -0.403153 0.13573600000000002
v 2.043383 -0.4229 0.03599700000000003
v 2.049769 -0.418681 0.13526700000000003
v 2.058735 -0.46328 0.03502000000000003
v 2.067914 -0.466353 0.13411400000000004
v 2.036723 -0.500436 0.03419900000000003
v 2.041918 -0.510238 0.13314500000000004
v 1.991691 -0.513166 0.02407100000000003
v 1.988779 -0.525559 0.13290300000000002
v 1.946296 -0.485274 0.13393600000000003
v 1.955698 -0.479093 0.024945000000000026
v 1.951315 -0.427026 0.13528600000000002
v 1.959963 -0.429739 0.026090000000000026
v 1.999994 -0.394588 0.13593900000000003
v 2.001182 -0.40225 0.026642000000000023
v 2.055707 -0.412391 0.13540100000000002
v 2.048374 -0.417344 0.026187000000000023
v 2.076531 -0.467109 0.13407700000000003
v 2.066002 -0.463648 0.02506600000000003
v 2.046691 -0.517444 0.13296600000000003
v 2.040756 -0.506321 0.02412400000000003
v 1.988779 -0.525559 0.13290300000000002
v 1.991691 -0.513166 0.02407100000000003
v 1.939514 -0.405218 0.14495600000000003
v 1.933749 -0.394345 0.03520000000000002
v 1.886304 -0.401003 0.035148000000000026
v 1.883494 -0.413064 0.14489400000000002
v 1.851483 -0.368026 0.03599400000000002
v 1.842428 -0.374178 0.14589200000000002
v 1.855599 -0.320324 0.03710000000000002
v 1.84725 -0.317805 0.14719900000000002
v 1.895508 -0.293758 0.03763400000000002
v 1.89434 -0.286435 0.14782900000000002
v 1.941137 -0.308339 0.03719400000000002
v 1.948225 -0.303659 0.14731000000000002
v 1.958169 -0.353131 0.036110000000000024
v 1.968348 -0.356538 0.14603000000000002
v 1.933749 -0.394345 0.03520000000000002
v 1.939514 -0.405218 0.14495600000000003
v 1.8838 -0.408466 0.023966000000000025
v 1.880569 -0.422213 0.14468700000000004
v 1.833446 -0.377527 0.14583300000000002
v 1.84388 -0.370672 0.024936000000000024
v 1.839017 -0.312917 0.14733100000000002
v 1.848604 -0.315926 0.02620500000000002
v 1.893009 -0.276934 0.14805400000000002
v 1.894328 -0.285432 0.02681800000000002
v 1.954812 -0.296682 0.14745800000000003
v 1.946678 -0.302175 0.026313000000000017
v 1.977908 -0.357377 0.14599000000000004
v 1.966228 -0.35354 0.02507000000000002
v 1.944809 -0.413212 0.14475700000000002
v 1.938225 -0.400873 0.024025000000000026
v 1.880569 -0.422213 0.14468700000000004
v 1.8838 -0.408466 0.023966000000000025
v 1.783463 0.9164229999999999 -1.101879
v 1.77534 0.9202769999999999 -1.201037
v 1.741769 0.8930939999999999 -1.201037
v 1.743824 0.8843439999999999 -1.101879
v 1.699542 0.9024109999999999 -1.201037
v 1.694024 0.8953249999999999 -1.101879
v 1.680561 0.9411889999999999 -1.201037
v 1.671561 0.9411329999999999 -1.101879
v 1.699059 0.9802569999999999 -1.201037
v 1.693371 0.9872459999999998 -1.101879
v 1.741089 0.9901789999999999 -1.201037
v 1.74301 0.9989609999999999 -1.101879
v 1.775058 0.9634689999999999 -1.201037
v 1.783132 0.9674389999999999 -1.101879
v 1.77534 0.9202769999999999 -1.201037
v 1.783463 0.9164229999999999 -1.101879
v 1.74344 0.8859749999999998 -1.210963
v 1.745813 0.8759139999999999 -1.101879
v 1.688641 0.8885659999999999 -1.101879
v 1.695033 0.8966479999999999 -1.210963
v 1.662926 0.9410869999999999 -1.101879
v 1.673253 0.9411539999999999 -1.210963
v 1.687933 0.9939729999999999 -1.101879
v 1.694417 0.9859559999999999 -1.210963
v 1.744862 1.007412 -1.101879
v 1.742643 0.9973259999999999 -1.210963
v 1.790908 0.9712299999999999 -1.101879
v 1.781613 0.9667089999999999 -1.210963
v 1.791268 0.9127039999999998 -1.101879
v 1.781966 0.9171199999999999 -1.210963
v 1.745813 0.8759139999999999 -1.101879
v 1.74344 0.8859749999999998 -1.210963
v 1.884499 1.0086 -1.101879
v 1.876373 1.012452 -1.201037
v 1.842801 0.9852699999999999 -1.201037
v 1.84486 0.9765199999999999 -1.101879
v 1.800578 0.9945869999999999 -1.201037
v 1.795059 0.9875019999999999 -1.101879
v 1.781596 1.033366 -1.201037
v 1.772593 1.033309 -1.101879
v 1.800092 1.072433 -1.201037
v 1.794406 1.079423 -1.101879
v 1.842125 1.082356 -1.201037
v 1.844046 1.091137 -1.101879
v 1.876093 1.055646 -1.201037
v 1.884164 1.059615 -1.101879
v 1.876373 1.012452 -1.201037
v 1.884499 1.0086 -1.101879
v 1.844475 0.9781529999999999 -1.210963
v 1.846848 0.9680909999999999 -1.101879
v 1.789676 0.9807419999999999 -1.101879
v 1.796066 0.9888229999999999 -1.210963
v 1.763961 1.033264 -1.101879
v 1.774288 1.033331 -1.210963
v 1.788968 1.08615 -1.101879
v 1.79545 1.078132 -1.210963
v 1.845894 1.099588 -1.101879
v 1.843678 1.089503 -1.210963
v 1.891941 1.063405 -1.101879
v 1.882648 1.058886 -1.210963
v 1.892303 1.004881 -1.101879
v 1.883001 1.009297 -1.210963
v 1.846848 0.9680909999999999 -1.101879
v 1.844475 0.9781529999999999 -1.210963
v 1.742481 1.046054 -1.092747
v 1.733466 1.050326 -1.202739
v 1.696232 1.020177 -1.202739
v 1.698509 1.010469 -1.092747
v 1.649392 1.030511 -1.202739
v 1.643272 1.022651 -1.092747
v 1.628337 1.073526 -1.202739
v 1.618354 1.073465 -1.092747
v 1.648854 1.11686 -1.202739
v 1.64255 1.124616 -1.092747
v 1.695476 1.127866 -1.202739
v 1.69761 1.137609 -1.092747
v 1.733157 1.098239 -1.202739
v 1.742108 1.102641 -1.092747
v 1.733466 1.050326 -1.202739
v 1.742481 1.046054 -1.092747
v 1.698084 1.01228 -1.213749
v 1.700717 1.001119 -1.092747
v 1.6373 1.015153 -1.092747
v 1.644392 1.024117 -1.213749
v 1.608779 1.073414 -1.092747
v 1.620229 1.073485 -1.213749
v 1.636513 1.132076 -1.092747
v 1.643704 1.123183 -1.213749
v 1.699661 1.146984 -1.092747
v 1.697202 1.135796 -1.213749
v 1.750735 1.106847 -1.092747
v 1.740428 1.101832 -1.213749
v 1.751139 1.041928 -1.092747
v 1.740819 1.046827 -1.213749
v 1.700717 1.001119 -1.092747
v 1.698084 1.01228 -1.213749
v 1.9093 -0.449849 0.03565900000000003
v 1.868165 -0.436705 0.036055000000000025
v 1.924652 -0.49023 0.034682000000000025
v 1.832183 -0.460655 0.03557400000000003
v 1.828473 -0.503658 0.034577000000000024
v 1.859865 -0.533388 0.03381400000000003
v 1.902643 -0.527385 0.03386100000000004
v 2.043383 -0.4229 0.03599700000000003
v 2.002246 -0.409755 0.03639300000000003
v 2.058735 -0.46328 0.03502000000000003
v 1.966266 -0.433705 0.03591200000000003
v 1.962557 -0.476708 0.03491500000000003
v 1.993945 -0.506438 0.03415200000000003
v 2.036723 -0.500436 0.03419900000000003
v 1.941137 -0.308339 0.03719400000000002
v 1.895508 -0.293758 0.03763400000000002
v 1.958169 -0.353131 0.036110000000000024
v 1.855599 -0.320324 0.03710000000000002
v 1.851483 -0.368026 0.03599400000000002
v 1.886304 -0.401003 0.035148000000000026
v 1.933749 -0.394345 0.03520000000000002
v 1.741089 0.9901789999999999 -1.201037
v 1.699059 0.9802569999999999 -1.201037
v 1.775058 0.9634689999999999 -1.201037
v 1.680561 0.9411889999999999 -1.201037
v 1.699542 0.9024109999999999 -1.201037
v 1.741769 0.8930939999999999 -1.201037
v 1.77534 0.9202769999999999 -1.201037
v 1.842125 1.082356 -1.201037
v 1.800092 1.072433 -1.201037
v 1.876093 1.055646 -1.201037
v 1.781596 1.033366 -1.201037
v 1.800578 0.9945869999999999 -1.201037
v 1.842801 0.9852699999999999 -1.201037
v 1.876373 1.012452 -1.201037
v 1.695476 1.127866 -1.202739
v 1.648854 1.11686 -1.202739
v 1.733157 1.098239 -1.202739
v 1.628337 1.073526 -1.202739
v 1.649392 1.030511 -1.202739
v 1.696232 1.020177 -1.202739
v 1.733466 1.050326 -1.202739
v 1.812213 -0.512223 0.13359800000000002
v 1.820309 -0.509204 0.13365100000000002
v 1.824656 -0.458384 0.13482900000000003
v 1.817231 -0.453977 0.13494800000000004
v 1.854696 -0.552508 0.13256500000000002
v 1.867106 -0.430103 0.13539800000000002
v 1.857334 -0.544261 0.13275100000000004
v 1.865911 -0.421539 0.13560000000000003
v 1.912608 -0.544393 0.13262800000000002
v 1.915686 -0.44563 0.13492900000000002
v 1.907835 -0.537187 0.13280700000000004
v 1.921627 -0.439342 0.13506300000000002
v 1.942451 -0.49406 0.13373900000000002
v 1.933833 -0.493303 0.13377600000000003
v 1.946296 -0.485274 0.13393600000000003
v 1.954392 -0.482254 0.13398900000000002
v 1.958736 -0.431434 0.13516700000000004
v 1.951315 -0.427026 0.13528600000000002
v 1.988779 -0.525559 0.13290300000000002
v 2.001189 -0.403153 0.13573600000000002
v 1.991418 -0.517312 0.13308900000000004
v 1.999994 -0.394588 0.13593900000000003
v 2.046691 -0.517444 0.13296600000000003
v 2.049769 -0.418681 0.13526700000000003
v 2.041918 -0.510238 0.13314500000000004
v 2.055707 -0.412391 0.13540100000000002
v 2.076531 -0.467109 0.13407700000000003
v 2.067914 -0.466353 0.13411400000000004
v 1.833446 -0.377527 0.14583300000000002
v 1.842428 -0.374178 0.14589200000000002
v 1.84725 -0.317805 0.14719900000000002
v 1.839017 -0.312917 0.14733100000000002
v 1.880569 -0.422213 0.14468700000000004
v 1.89434 -0.286435 0.14782900000000002
v 1.883494 -0.413064 0.14489400000000002
v 1.893009 -0.276934 0.14805400000000002
v 1.944809 -0.413212 0.14475700000000002
v 1.948225 -0.303659 0.14731000000000002
v 1.939514 -0.405218 0.14495600000000003
v 1.954812 -0.296682 0.14745800000000003
v 1.977908 -0.357377 0.14599000000000004
v 1.968348 -0.356538 0.14603000000000002
v 1.688641 0.8885659999999999 -1.101879
v 1.694024 0.8953249999999999 -1.101879
v 1.671561 0.9411329999999999 -1.101879
v 1.662926 0.9410869999999999 -1.101879
v 1.745813 0.8759139999999999 -1.101879
v 1.693371 0.9872459999999998 -1.101879
v 1.743824 0.8843439999999999 -1.101879
v 1.687933 0.9939729999999999 -1.101879
v 1.791268 0.9127039999999998 -1.101879
v 1.74301 0.9989609999999999 -1.101879
v 1.783463 0.9164229999999999 -1.101879
v 1.744862 1.007412 -1.101879
v 1.790908 0.9712299999999999 -1.101879
v 1.783132 0.9674389999999999 -1.101879
v 1.789676 0.9807419999999999 -1.101879
v 1.795059 0.9875019999999999 -1.101879
v 1.772593 1.033309 -1.101879
v 1.763961 1.033264 -1.101879
v 1.846848 0.9680909999999999 -1.101879
v 1.794406 1.079423 -1.101879
v 1.84486 0.9765199999999999 -1.101879
v 1.788968 1.08615 -1.101879
v 1.892303 1.004881 -1.101879
v 1.844046 1.091137 -1.101879
v 1.884499 1.0086 -1.101879
v 1.845894 1.099588 -1.101879
v 1.891941 1.063405 -1.101879
v 1.884164 1.059615 -1.101879
v 1.6373 1.015153 -1.092747
v 1.643272 1.022651 -1.092747
v 1.618354 1.073465 -1.092747
v 1.608779 1.073414 -1.092747
v 1.700717 1.001119 -1.092747
v 1.64255 1.124616 -1.092747
v 1.698509 1.010469 -1.092747
v 1.636513 1.132076 -1.092747
v 1.751139 1.041928 -1.092747
v 1.69761 1.137609 -1.092747
v 1.742481 1.046054 -1.092747
v 1.699661 1.146984 -1.092747
v 1.750735 1.106847 -1.092747
v 1.742108 1.102641 -1.092747
vt 0.016303 0.603291
vt 0.016303 0.594017
vt 0.112038 0.594017
vt 0.112038 0.603291
vt 0.116147 0.608218
vt 0.122477 0.608218
vt 0.122477 0.755792
vt 0.116147 0.755792
vt 0.112038 0.761796
vt 0.112038 0.771688
vt 0.016303 0.771688
vt 0.016303 0.761796
vt 0.012161 0.608218
vt 0.012161 0.755792
vt 0.005853 0.755792
vt 0.005853 0.608218
vt 0.112038 0.755792
vt 0.016303 0.755792
vt 0.016303 0.608218
vt 0.112038 0.608218
vt 0.016303 0.603291
vt 0.016303 0.594017
vt 0.112038 0.594017
vt 0.112038 0.603291
vt 0.116147 0.608218
vt 0.122477 0.608218
vt 0.122477 0.755792
vt 0.116147 0.755792
vt 0.112038 0.761796
vt 0.112038 0.771688
vt 0.016303 0.771688
vt 0.016303 0.761796
vt 0.012161 0.608218
vt 0.012161 0.755792
vt 0.005853 0.755792
vt 0.005853 0.608218
vt 0.112038 0.755792
vt 0.016303 0.755792
vt 0.016303 0.608218
vt 0.112038 0.608218
vt 0.995399 0.580340
vt 0.995399 0.598653
vt 0.988244 0.598653
vt 0.988244 0.580340
vt 0.981089 0.598653
vt 0.981089 0.580340
vt 0.973934 0.598653
vt 0.973934 0.580340
vt 0.966639 0.598653
vt 0.966639 0.580340
vt 0.959343 0.598653
vt 0.959343 0.580340
vt 0.952188 0.598653
vt 0.952188 0.580340
vt 0.945033 0.598653
vt 0.945033 0.580340
vt 0.882322 0.598653
vt 0.882322 0.580340
vt 0.890599 0.580340
vt 0.890599 0.598653
vt 0.898877 0.580340
vt 0.898877 0.598653
vt 0.907294 0.580340
vt 0.907294 0.598653
vt 0.915572 0.580340
vt 0.915572 0.598653
vt 0.923849 0.580340
vt 0.923849 0.598653
vt 0.931846 0.580340
vt 0.931846 0.598653
vt 0.939843 0.580340
vt 0.939843 0.598653
vt 0.995399 0.580340
vt 0.995399 0.598653
vt 0.988244 0.598653
vt 0.988244 0.580340
vt 0.981089 0.598653
vt 0.981089 0.580340
vt 0.973934 0.598653
vt 0.973934 0.580340
vt 0.966639 0.598653
vt 0.966639 0.580340
vt 0.959343 0.598653
vt 0.959343 0.580340
vt 0.952188 0.598653
vt 0.952188 0.580340
vt 0.945033 0.598653
vt 0.945033 0.580340
vt 0.882322 0.598653
vt 0.882322 0.580340
vt 0.890599 0.580340
vt 0.890599 0.598653
vt 0.898877 0.580340
vt 0.898877 0.598653
vt 0.907294 0.580340
vt 0.907294 0.598653
vt 0.915572 0.580340
vt 0.915572 0.598653
vt 0.923849 0.580340
vt 0.923849 0.598653
vt 0.931846 0.580340
vt 0.931846 0.598653
vt 0.939843 0.580340
vt 0.939843 0.598653
vt 0.995399 0.580340
vt 0.995399 0.598653
vt 0.988244 0.598653
vt 0.988244 0.580340
vt 0.981089 0.598653
vt 0.981089 0.580340
vt 0.973934 0.598653
vt 0.973934 0.580340
vt 0.966639 0.598653
vt 0.966639 0.580340
vt 0.959343 0.598653
vt 0.959343 0.580340
vt 0.952188 0.598653
vt 0.952188 0.580340
vt 0.945033 0.598653
vt 0.945033 0.580340
vt 0.882322 0.598653
vt 0.882322 0.580340
vt 0.890599 0.580340
vt 0.890599 0.598653
vt 0.898877 0.580340
vt 0.898877 0.598653
vt 0.907294 0.580340
vt 0.907294 0.598653
vt 0.915572 0.580340
vt 0.915572 0.598653
vt 0.923849 0.580340
vt 0.923849 0.598653
vt 0.931846 0.580340
vt 0.931846 0.598653
vt 0.939843 0.580340
vt 0.939843 0.598653
vt 0.995399 0.580340
vt 0.995399 0.598653
vt 0.988244 0.598653
vt 0.988244 0.580340
vt 0.981089 0.598653
vt 0.981089 0.580340
vt 0.973934 0.598653
vt 0.973934 0.580340
vt 0.966639 0.598653
vt 0.966639 0.580340
vt 0.959343 0.598653
vt 0.959343 0.580340
vt 0.952188 0.598653
vt 0.952188 0.580340
vt 0.945033 0.598653
vt 0.945033 0.580340
vt 0.882322 0.598653
vt 0.882322 0.580340
vt 0.890599 0.580340
vt 0.890599 0.598653
vt 0.898877 0.580340
vt 0.898877 0.598653
vt 0.907294 0.580340
vt 0.907294 0.598653
vt 0.915572 0.580340
vt 0.915572 0.598653
vt 0.923849 0.580340
vt 0.923849 0.598653
vt 0.931846 0.580340
vt 0.931846 0.598653
vt 0.939843 0.580340
vt 0.939843 0.598653
vt 0.995399 0.580340
vt 0.995399 0.598653
vt 0.988244 0.598653
vt 0.988244 0.580340
vt 0.981089 0.598653
vt 0.981089 0.580340
vt 0.973934 0.598653
vt 0.973934 0.580340
vt 0.966639 0.598653
vt 0.966639 0.580340
vt 0.959343 0.598653
vt 0.959343 0.580340
vt 0.952188 0.598653
vt 0.952188 0.580340
vt 0.945033 0.598653
vt 0.945033 0.580340
vt 0.882322 0.598653
vt 0.882322 0.580340
vt 0.890599 0.580340
vt 0.890599 0.598653
vt 0.898877 0.580340
vt 0.898877 0.598653
vt 0.907294 0.580340
vt 0.907294 0.598653
vt 0.915572 0.580340
vt 0.915572 0.598653
vt 0.923849 0.580340
vt 0.923849 0.598653
vt 0.931846 0.580340
vt 0.931846 0.598653
vt 0.939843 0.580340
vt 0.939843 0.598653
vt 0.995399 0.580340
vt 0.995399 0.598653
vt 0.988244 0.598653
vt 0.988244 0.580340
vt 0.981089 0.598653
vt 0.981089 0.580340
vt 0.973934 0.598653
vt 0.973934 0.580340
vt 0.966639 0.598653
vt 0.966639 0.580340
vt 0.959343 0.598653
vt 0.959343 0.580340
vt 0.952188 0.598653
vt 0.952188 0.580340
vt 0.945033 0.598653
vt 0.945033 0.580340
vt 0.882322 0.598653
vt 0.882322 0.580340
vt 0.890599 0.580340
vt 0.890599 0.598653
vt 0.898877 0.580340
vt 0.898877 0.598653
vt 0.907294 0.580340
vt 0.907294 0.598653
vt 0.915572 0.580340
vt 0.915572 0.598653
vt 0.923849 0.580340
vt 0.923849 0.598653
vt 0.931846 0.580340
vt 0.931846 0.598653
vt 0.939843 0.580340
vt 0.939843 0.598653
vt 0.995003 0.838260
vt 0.988098 0.848555
vt 0.992166 0.825486
vt 0.976567 0.848443
vt 0.969147 0.838028
vt 0.971406 0.825314
vt 0.981660 0.819762
vt 0.995003 0.838260
vt 0.988098 0.848555
vt 0.992166 0.825486
vt 0.976567 0.848443
vt 0.969147 0.838028
vt 0.971406 0.825314
vt 0.981660 0.819762
vt 0.995003 0.838260
vt 0.988098 0.848555
vt 0.992166 0.825486
vt 0.976567 0.848443
vt 0.969147 0.838028
vt 0.971406 0.825314
vt 0.981660 0.819762
vt 0.995003 0.838260
vt 0.988098 0.848555
vt 0.992166 0.825486
vt 0.976567 0.848443
vt 0.969147 0.838028
vt 0.971406 0.825314
vt 0.981660 0.819762
vt 0.995003 0.838260
vt 0.988098 0.848555
vt 0.992166 0.825486
vt 0.976567 0.848443
vt 0.969147 0.838028
vt 0.971406 0.825314
vt 0.981660 0.819762
vt 0.995003 0.838260
vt 0.988098 0.848555
vt 0.992166 0.825486
vt 0.976567 0.848443
vt 0.969147 0.838028
vt 0.971406 0.825314
vt 0.981660 0.819762
vt 0.965992 0.838862
vt 0.968121 0.838414
vt 0.976166 0.849583
vt 0.975264 0.851688
vt 0.968806 0.823044
vt 0.988681 0.849607
vt 0.970546 0.824508
vt 0.989589 0.851808
vt 0.981570 0.816053
vt 0.996161 0.838672
vt 0.981591 0.818517
vt 0.998283 0.839145
vt 0.994544 0.823249
vt 0.992998 0.824749
vt 0.965992 0.838862
vt 0.968121 0.838414
vt 0.976166 0.849583
vt 0.975264 0.851688
vt 0.968806 0.823044
vt 0.988681 0.849607
vt 0.970546 0.824508
vt 0.989589 0.851808
vt 0.981570 0.816053
vt 0.996161 0.838672
vt 0.981591 0.818517
vt 0.998283 0.839145
vt 0.994544 0.823249
vt 0.992998 0.824749
vt 0.965992 0.838862
vt 0.968121 0.838414
vt 0.976166 0.849583
vt 0.975264 0.851688
vt 0.968806 0.823044
vt 0.988681 0.849607
vt 0.970546 0.824508
vt 0.989589 0.851808
vt 0.981570 0.816053
vt 0.996161 0.838672
vt 0.981591 0.818517
vt 0.998283 0.839145
vt 0.994544 0.823249
vt 0.992998 0.824749
vt 0.965992 0.838862
vt 0.968121 0.838414
vt 0.976166 0.849583
vt 0.975264 0.851688
vt 0.968806 0.823044
vt 0.988681 0.849607
vt 0.970546 0.824508
vt 0.989589 0.851808
vt 0.981570 0.816053
vt 0.996161 0.838672
vt 0.981591 0.818517
vt 0.998283 0.839145
vt 0.994544 0.823249
vt 0.992998 0.824749
vt 0.965992 0.838862
vt 0.968121 0.838414
vt 0.976166 0.849583
vt 0.975264 0.851688
vt 0.968806 0.823044
vt 0.988681 0.849607
vt 0.970546 0.824508
vt 0.989589 0.851808
vt 0.981570 0.816053
vt 0.996161 0.838672
vt 0.981591 0.818517
vt 0.998283 0.839145
vt 0.994544 0.823249
vt 0.992998 0.824749
vt 0.965992 0.838862
vt 0.968121 0.838414
vt 0.976166 0.849583
vt 0.975264 0.851688
vt 0.968806 0.823044
vt 0.988681 0.849607
vt 0.970546 0.824508
vt 0.989589 0.851808
vt 0.981570 0.816053
vt 0.996161 0.838672
vt 0.981591 0.818517
vt 0.998283 0.839145
vt 0.994544 0.823249
vt 0.992998 0.824749
vn -0.999955 0.009164 0.0023899999999999998
vn -0.999955 0.009164 0.0023899999999999998
vn -0.999955 0.009164 0.0023899999999999998
vn -0.999955 0.009164 0.0023899999999999998
vn -0.009534 -0.999682 -0.023339999999999937
vn -0.009534 -0.999682 -0.023333999999999938
vn -0.009534 -0.999682 -0.023339999999999937
vn -0.009534 -0.999682 -0.023339999999999937
vn 0.999944 -0.010343 -0.0024189999999999997
vn 0.999944 -0.010343 -0.0024239999999999995
vn 0.999944 -0.010343 -0.0024189999999999997
vn 0.999944 -0.010343 -0.0024189999999999997
vn 0.006646 0.999705 0.023346999999999937
vn 0.006646 0.999705 0.023340999999999938
vn 0.006646 0.999705 0.023346999999999937
vn 0.006646 0.999705 0.023346999999999937
vn 0.002175 -0.023359999999999936 0.999725
vn 0.002175 -0.023359999999999936 0.999725
vn 0.002175 -0.023359999999999936 0.999725
vn 0.002175 -0.023359999999999936 0.999725
vn -0.861788 -0.507268 3.106120662549398E-17
vn -0.861788 -0.507268 3.106120662549398E-17
vn -0.861788 -0.507268 3.106120662549398E-17
vn -0.861788 -0.507268 3.106120662549398E-17
vn 0.506995 -0.861949 5.277915419391309E-17
vn 0.506995 -0.861949 5.277915419391309E-17
vn 0.506995 -0.861949 5.277915419391309E-17
vn 0.506995 -0.861949 5.277915419391309E-17
vn 0.862386 0.506252 -3.099899456809729E-17
vn 0.862386 0.506252 -3.099899456809729E-17
vn 0.862386 0.506252 -3.099899456809729E-17
vn 0.862386 0.506252 -3.099899456809729E-17
vn -0.509483 0.860481 -5.2689265118855684E-17
vn -0.509483 0.860481 -5.2689265118855684E-17
vn -0.509483 0.860481 -5.2689265118855684E-17
vn -0.509483 0.860481 -5.2689265118855684E-17
vn 0 6.123233995736766E-17 1
vn 0 6.123233995736766E-17 1
vn 0 6.123233995736766E-17 1
vn 0 6.123233995736766E-17 1
vn -0.413805 0.90355 0.11118599999999994
vn -0.676341 0.728674 0.10768599999999996
vn 0.149407 0.982431 0.11183499999999995
vn 0.45014 0.886288 0.10893399999999995
vn 0.863284 0.49495 0.09882399999999997
vn 0.97553 0.199837 0.09169099999999998
vn 0.926869 -0.367075 0.07855100000000002
vn 0.766132 -0.63855 0.07277600000000004
vn 0.292742 -0.953881 0.06643300000000006
vn -0.01965 -0.997621 0.06608000000000006
vn -0.561569 -0.824363 0.07117800000000006
vn -0.790815 -0.607224 0.07674900000000004
vn -0.99312 -0.075392 0.089598
vn -0.966108 0.239253 0.09692099999999998
vn -0.676341 0.728674 0.10768599999999996
vn -0.413805 0.90355 0.11118599999999994
vn -0.450322 -0.88572 -0.11274399999999994
vn -0.149794 -0.981923 -0.11571299999999994
vn -0.863073 -0.494537 -0.10265299999999997
vn -0.975243 -0.199449 -0.09550699999999998
vn -0.92651 0.367121 -0.08247000000000003
vn -0.765946 0.638343 -0.07645000000000005
vn -0.292987 0.953544 -0.07008500000000005
vn 0.019569 0.997373 -0.06975100000000005
vn 0.561344 0.824175 -0.07502300000000006
vn 0.790494 0.607142 -0.08060400000000004
vn 0.992752 0.075468 -0.093537
vn 0.965782 -0.239001 -0.10071399999999998
vn 0.676105 -0.728327 -0.11145499999999996
vn 0.413591 -0.903176 -0.11496399999999994
vn -0.149794 -0.981923 -0.11571299999999994
vn -0.450322 -0.88572 -0.11274399999999994
vn -0.413818 0.903542 0.11120199999999994
vn -0.676341 0.728675 0.10768699999999996
vn 0.14942 0.982429 0.11183799999999995
vn 0.450155 0.886281 0.10893499999999995
vn 0.863294 0.494933 0.09881799999999998
vn 0.975526 0.19985 0.09169899999999999
vn 0.926879 -0.367047 0.07856700000000003
vn 0.766142 -0.638536 0.07278700000000005
vn 0.292745 -0.95388 0.06643700000000005
vn -0.019665 -0.997621 0.06607500000000005
vn -0.561573 -0.82436 0.07117800000000006
vn -0.790829 -0.607208 0.07673700000000004
vn -0.993124 -0.075366 0.08958
vn -0.966107 0.23926 0.09690999999999998
vn -0.676341 0.728675 0.10768699999999996
vn -0.413818 0.903542 0.11120199999999994
vn -0.450311 -0.885725 -0.11274099999999994
vn -0.1498 -0.981921 -0.11571799999999995
vn -0.863066 -0.494552 -0.10263899999999997
vn -0.975245 -0.199446 -0.09549299999999998
vn -0.926504 0.367138 -0.08246000000000003
vn -0.76594 0.638351 -0.07644600000000004
vn -0.29299 0.953543 -0.07008700000000005
vn 0.019558 0.997373 -0.06975100000000005
vn 0.56134 0.824178 -0.07501800000000006
vn 0.790491 0.607149 -0.08058600000000005
vn 0.992753 0.075482 -0.093512
vn 0.965788 -0.238982 -0.10069799999999998
vn 0.67612 -0.728314 -0.11144799999999996
vn 0.413588 -0.903176 -0.11496699999999994
vn -0.1498 -0.981921 -0.11571799999999995
vn -0.450311 -0.885725 -0.11274099999999994
vn -0.413829 0.903537 0.11120399999999994
vn -0.67634 0.728675 0.10768399999999996
vn 0.149404 0.98243 0.11184399999999994
vn 0.450156 0.88628 0.10893899999999994
vn 0.863293 0.494932 0.09882599999999997
vn 0.975535 0.199816 0.09168199999999999
vn 0.926872 -0.367067 0.07854600000000003
vn 0.766133 -0.63855 0.07276200000000003
vn 0.29274 -0.953882 0.06642700000000006
vn -0.019673 -0.997621 0.06607500000000005
vn -0.561567 -0.824362 0.07119800000000005
vn -0.790833 -0.6072 0.07675100000000004
vn -0.993126 -0.075339 0.08958
vn -0.966101 0.239286 0.09690299999999999
vn -0.67634 0.728675 0.10768399999999996
vn -0.413829 0.903537 0.11120399999999994
vn -0.450328 -0.885715 -0.11275499999999994
vn -0.149806 -0.981919 -0.11572599999999994
vn -0.863083 -0.494519 -0.10266199999999998
vn -0.975244 -0.199452 -0.09549099999999999
vn -0.926518 0.367107 -0.08244300000000003
vn -0.765976 0.638311 -0.07642000000000004
vn -0.293013 0.953537 -0.07007500000000005
vn 0.019552 0.997373 -0.06974800000000006
vn 0.561346 0.824174 -0.07501700000000006
vn 0.790513 0.607119 -0.08059400000000004
vn 0.992755 0.075453 -0.093514
vn 0.965787 -0.238989 -0.10070099999999998
vn 0.676128 -0.728306 -0.11144999999999995
vn 0.413587 -0.903176 -0.11497499999999994
vn -0.149806 -0.981919 -0.11572599999999994
vn -0.450328 -0.885715 -0.11275499999999994
vn -0.821541 0.563138 0.08914799999999998
vn -0.956443 0.277968 0.08916399999999998
vn -0.379458 0.920901 0.08917899999999994
vn -0.072152 0.993399 0.08917799999999994
vn 0.483624 0.870728 0.08911199999999994
vn 0.73191 0.675548 0.08911899999999996
vn 0.982349 0.164462 0.08911999999999999
vn 0.984477 -0.151075 0.08933900000000002
vn 0.741233 -0.665277 0.08933400000000004
vn 0.496022 -0.863704 0.08932300000000006
vn -0.057743 -0.994339 0.08919400000000005
vn -0.36613 -0.926279 0.08919300000000005
vn -0.813595 -0.574553 0.08917500000000005
vn -0.952589 -0.290889 0.08920500000000002
vn -0.956443 0.277968 0.08916399999999998
vn -0.821541 0.563138 0.08914799999999998
vn 0.071758 -0.993077 -0.09300299999999995
vn 0.37892 -0.920738 -0.09306899999999994
vn -0.483603 -0.870338 -0.09294999999999995
vn -0.73181 -0.675141 -0.09294299999999996
vn -0.982011 -0.164313 -0.09303799999999998
vn -0.98416 0.150924 -0.09300700000000002
vn -0.741218 0.664793 -0.09297800000000005
vn -0.495911 0.86338 -0.09298900000000006
vn 0.057701 0.99399 -0.09303500000000006
vn 0.365951 0.925971 -0.09304700000000006
vn 0.813295 0.574352 -0.09311500000000004
vn 0.952233 0.290865 -0.09300300000000002
vn 0.956114 -0.277864 -0.09293999999999998
vn 0.821217 -0.562997 -0.09293499999999998
vn 0.37892 -0.920738 -0.09306899999999994
vn 0.071758 -0.993077 -0.09300299999999995
vn -0.821548 0.563124 0.08916499999999997
vn -0.956442 0.277971 0.08916399999999998
vn -0.379448 0.920905 0.08918299999999994
vn -0.072137 0.9934 0.08917999999999994
vn 0.48364 0.87072 0.08910599999999995
vn 0.7319 0.675558 0.08912599999999996
vn 0.982343 0.164493 0.08913599999999999
vn 0.984479 -0.151057 0.08935000000000001
vn 0.741234 -0.665275 0.08933900000000004
vn 0.496007 -0.863713 0.08931900000000005
vn -0.05775 -0.994339 0.08919400000000005
vn -0.36615 -0.926273 0.08918100000000005
vn -0.813612 -0.574531 0.08915600000000004
vn -0.952593 -0.29088 0.08919400000000001
vn -0.956442 0.277971 0.08916399999999998
vn -0.821548 0.563124 0.08916499999999997
vn 0.071771 -0.993076 -0.09299899999999994
vn 0.378915 -0.920739 -0.09307399999999995
vn -0.483588 -0.870348 -0.09293599999999995
vn -0.731814 -0.675139 -0.09292899999999996
vn -0.982015 -0.164295 -0.09302899999999999
vn -0.984159 0.150933 -0.09300300000000002
vn -0.74122 0.664791 -0.09298000000000003
vn -0.495921 0.863374 -0.09298700000000006
vn 0.057695 0.99399 -0.09302800000000006
vn 0.365943 0.925976 -0.09302700000000005
vn 0.813289 0.574365 -0.09308900000000005
vn 0.952229 0.290884 -0.09298600000000001
vn 0.95612 -0.277845 -0.09293299999999999
vn 0.821215 -0.563 -0.09293699999999998
vn 0.378915 -0.920739 -0.09307399999999995
vn 0.071771 -0.993076 -0.09299899999999994
vn -0.821555 0.563114 0.08916599999999997
vn -0.956443 0.27797 0.08916199999999999
vn -0.379462 0.920899 0.08918799999999995
vn -0.072135 0.9934 0.08918399999999994
vn 0.48364 0.870719 0.08911399999999994
vn 0.731924 0.675534 0.08911099999999995
vn 0.982348 0.16447 0.08911499999999999
vn 0.984478 -0.151076 0.08932500000000002
vn 0.741231 -0.66528 0.08932800000000005
vn 0.496001 -0.863716 0.08931800000000005
vn -0.057743 -0.994337 0.08921300000000006
vn -0.366157 -0.926269 0.08919400000000005
vn -0.813627 -0.574511 0.08915500000000004
vn -0.952601 -0.290857 0.08918500000000001
vn -0.956443 0.27797 0.08916199999999999
vn -0.821555 0.563114 0.08916599999999997
vn 0.071751 -0.993076 -0.09301299999999994
vn 0.378909 -0.920741 -0.09308299999999994
vn -0.483619 -0.870328 -0.09295899999999994
vn -0.73181 -0.675143 -0.09292699999999995
vn -0.982011 -0.164327 -0.09301199999999998
vn -0.98417 0.150882 -0.09297600000000002
vn -0.741237 0.664774 -0.09296700000000004
vn -0.495927 0.863372 -0.09298400000000005
vn 0.057702 0.99399 -0.09302800000000006
vn 0.365978 0.925961 -0.09303500000000006
vn 0.813305 0.574342 -0.09309200000000004
vn 0.952231 0.290877 -0.09299000000000002
vn 0.956123 -0.277834 -0.09293599999999999
vn 0.821214 -0.562999 -0.09294599999999997
vn 0.378909 -0.920741 -0.09308299999999994
vn 0.071751 -0.993076 -0.09301299999999994
vn 0.002174 -0.023362999999999936 0.999725
vn 0.002174 -0.02336199999999994 0.999725
vn 0.002175 -0.023360999999999937 0.999725
vn 0.002175 -0.023359999999999936 0.999725
vn 0.002176 -0.023359999999999936 0.999725
vn 0.002175 -0.023359999999999936 0.999725
vn 0.002175 -0.02335899999999994 0.999725
vn 0.002173 -0.023362999999999936 0.999725
vn 0.002174 -0.02336199999999994 0.999725
vn 0.002174 -0.023360999999999937 0.999725
vn 0.002175 -0.023360999999999937 0.999725
vn 0.002175 -0.023359999999999936 0.999725
vn 0.002174 -0.02335899999999994 0.999725
vn 0.002174 -0.023357999999999938 0.999725
vn 0.002176 -0.023357999999999938 0.999725
vn 0.002175 -0.02335899999999994 0.999725
vn 0.002175 -0.02335899999999994 0.999725
vn 0.002174 -0.023359999999999936 0.999725
vn 0.002174 -0.02335899999999994 0.999725
vn 0.002175 -0.023359999999999936 0.999725
vn 0.002175 -0.023360999999999937 0.999725
vn 0 6.123233995736766E-17 1
vn 0 6.123233995736766E-17 1
vn 0 6.123233995736766E-17 1
vn 0 6.123233995736766E-17 1
vn 0 6.123233995736766E-17 1
vn 0 6.123233995736766E-17 1
vn 0 6.123233995736766E-17 1
vn 0 6.123233995736766E-17 1
vn 0 6.123233995736766E-17 1
vn 0 6.123233995736766E-17 1
vn 0 6.123233995736766E-17 1
vn 0 6.123233995736766E-17 1
vn 0 6.123233995736766E-17 1
vn 0 6.123233995736766E-17 1
vn 0 6.123233995736766E-17 1
vn 0 6.123233995736766E-17 1
vn 0 6.123233995736766E-17 1
vn 0 6.123233995736766E-17 1
vn 0 6.123233995736766E-17 1
vn 0 6.123233995736766E-17 1
vn 0 6.123233995736766E-17 1
vn 0.002175 -0.023357999999999938 0.999725
vn 0.002175 -0.023357999999999938 0.999725
vn 0.00218 -0.023367999999999937 0.999725
vn 0.002178 -0.02336599999999994 0.999725
vn 0.002175 -0.023353999999999937 0.999725
vn 0.002178 -0.02336599999999994 0.999725
vn 0.002175 -0.023353999999999937 0.999725
vn 0.002178 -0.02336599999999994 0.999725
vn 0.002179 -0.023363999999999937 0.999725
vn 0.002177 -0.02335899999999994 0.999725
vn 0.002179 -0.023363999999999937 0.999725
vn 0.002177 -0.02335899999999994 0.999725
vn 0.002166 -0.02336199999999994 0.999725
vn 0.002166 -0.02336199999999994 0.999725
vn 0.002166 -0.023367999999999937 0.999725
vn 0.002166 -0.023367999999999937 0.999725
vn 0.002171 -0.023355999999999936 0.999725
vn 0.002176 -0.02336599999999994 0.999725
vn 0.002174 -0.02335499999999994 0.999725
vn 0.002176 -0.02336599999999994 0.999725
vn 0.002174 -0.02335499999999994 0.999725
vn 0.002176 -0.02336599999999994 0.999725
vn 0.002168 -0.02335499999999994 0.999725
vn 0.002174 -0.023367999999999937 0.999725
vn 0.002168 -0.02335499999999994 0.999725
vn 0.002174 -0.023367999999999937 0.999725
vn 0.00218 -0.02335899999999994 0.999725
vn 0.00218 -0.02335899999999994 0.999725
vn 0.00217 -0.02336199999999994 0.999725
vn 0.00217 -0.02336199999999994 0.999725
vn 0.002173 -0.02335499999999994 0.999725
vn 0.002178 -0.023364999999999938 0.999725
vn 0.002175 -0.023347999999999938 0.999725
vn 0.002178 -0.023364999999999938 0.999725
vn 0.002175 -0.023347999999999938 0.999725
vn 0.002178 -0.023364999999999938 0.999725
vn 0.002179 -0.023363999999999937 0.999725
vn 0.002177 -0.023355999999999936 0.999725
vn 0.002179 -0.023363999999999937 0.999725
vn 0.002177 -0.023355999999999936 0.999725
vn 0.002177 -0.023357999999999938 0.999725
vn 0.002177 -0.023357999999999938 0.999725
vn 0 6.123233995736766E-17 1
vn 0 6.123233995736766E-17 1
vn 0 6.123233995736766E-17 1
vn 0 6.123233995736766E-17 1
vn 0 6.123233995736766E-17 1
vn 0 6.123233995736766E-17 1
vn 0 6.123233995736766E-17 1
vn 0 6.123233995736766E-17 1
vn 0 6.123233995736766E-17 1
vn 0 6.123233995736766E-17 1
vn 0 6.123233995736766E-17 1
vn 0 6.123233995736766E-17 1
vn 0 6.123233995736766E-17 1
vn 0 6.123233995736766E-17 1
vn 0 6.123233995736766E-17 1
vn 0 6.123233995736766E-17 1
vn 0 6.123233995736766E-17 1
vn 0 6.123233995736766E-17 1
vn 0 6.123233995736766E-17 1
vn 0 6.123233995736766E-17 1
vn 0 6.123233995736766E-17 1
vn 0 6.123233995736766E-17 1
vn 0 6.123233995736766E-17 1
vn 0 6.123233995736766E-17 1
vn 0 6.123233995736766E-17 1
vn 0 6.123233995736766E-17 1
vn 0 6.123233995736766E-17 1
vn 0 6.123233995736766E-17 1
vn 0 6.123233995736766E-17 1
vn 0 6.123233995736766E-17 1
vn 0 6.123233995736766E-17 1
vn 0 6.123233995736766E-17 1
vn 0 6.123233995736766E-17 1
vn 0 6.123233995736766E-17 1
vn 0 6.123233995736766E-17 1
vn 0 6.123233995736766E-17 1
vn 0 6.123233995736766E-17 1
vn 0 6.123233995736766E-17 1
vn 0 6.123233995736766E-17 1
vn 0 6.123233995736766E-17 1
vn 0 6.123233995736766E-17 1
vn 0 6.123233995736766E-17 1
g 01
f 1/1/1 2/2/2 3/3/3
f 3/3/3 4/4/4 1/1/1
f 5/5/5 6/6/6 7/7/7
f 7/7/7 8/8/8 5/5/5
f 9/9/9 10/10/10 11/11/11
f 11/11/11 12/12/12 9/9/9
f 13/13/13 14/14/14 15/15/15
f 15/15/15 16/16/16 13/13/13
f 17/17/17 18/18/18 19/19/19
f 19/19/19 20/20/20 17/17/17
f 21/21/21 22/22/22 23/23/23
f 23/23/23 24/24/24 21/21/21
f 25/25/25 26/26/26 27/27/27
f 27/27/27 28/28/28 25/25/25
f 29/29/29 30/30/30 31/31/31
f 31/31/31 32/32/32 29/29/29
f 33/33/33 34/34/34 35/35/35
f 35/35/35 36/36/36 33/33/33
f 37/37/37 38/38/38 39/39/39
f 39/39/39 40/40/40 37/37/37
f 41/41/41 42/42/42 43/43/43
f 43/43/43 44/44/44 41/41/41
f 44/44/44 43/43/43 45/45/45
f 45/45/45 46/46/46 44/44/44
f 46/46/46 45/45/45 47/47/47
f 47/47/47 48/48/48 46/46/46
f 48/48/48 47/47/47 49/49/49
f 49/49/49 50/50/50 48/48/48
f 50/50/50 49/49/49 51/51/51
f 51/51/51 52/52/52 50/50/50
f 52/52/52 51/51/51 53/53/53
f 53/53/53 54/54/54 52/52/52
f 54/54/54 53/53/53 55/55/55
f 55/55/55 56/56/56 54/54/54
f 57/57/57 58/58/58 59/59/59
f 59/59/59 60/60/60 57/57/57
f 60/60/60 59/59/59 61/61/61
f 61/61/61 62/62/62 60/60/60
f 62/62/62 61/61/61 63/63/63
f 63/63/63 64/64/64 62/62/62
f 64/64/64 63/63/63 65/65/65
f 65/65/65 66/66/66 64/64/64
f 66/66/66 65/65/65 67/67/67
f 67/67/67 68/68/68 66/66/66
f 68/68/68 67/67/67 69/69/69
f 69/69/69 70/70/70 68/68/68
f 70/70/70 69/69/69 71/71/71
f 71/71/71 72/72/72 70/70/70
f 73/73/73 74/74/74 75/75/75
f 75/75/75 76/76/76 73/73/73
f 76/76/76 75/75/75 77/77/77
f 77/77/77 78/78/78 76/76/76
f 78/78/78 77/77/77 79/79/79
f 79/79/79 80/80/80 78/78/78
f 80/80/80 79/79/79 81/81/81
f 81/81/81 82/82/82 80/80/80
f 82/82/82 81/81/81 83/83/83
f 83/83/83 84/84/84 82/82/82
f 84/84/84 83/83/83 85/85/85
f 85/85/85 86/86/86 84/84/84
f 86/86/86 85/85/85 87/87/87
f 87/87/87 88/88/88 86/86/86
f 89/89/89 90/90/90 91/91/91
f 91/91/91 92/92/92 89/89/89
f 92/92/92 91/91/91 93/93/93
f 93/93/93 94/94/94 92/92/92
f 94/94/94 93/93/93 95/95/95
f 95/95/95 96/96/96 94/94/94
f 96/96/96 95/95/95 97/97/97
f 97/97/97 98/98/98 96/96/96
f 98/98/98 97/97/97 99/99/99
f 99/99/99 100/100/100 98/98/98
f 100/100/100 99/99/99 101/101/101
f 101/101/101 102/102/102 100/100/100
f 102/102/102 101/101/101 103/103/103
f 103/103/103 104/104/104 102/102/102
f 105/105/105 106/106/106 107/107/107
f 107/107/107 108/108/108 105/105/105
f 108/108/108 107/107/107 109/109/109
f 109/109/109 110/110/110 108/108/108
f 110/110/110 109/109/109 111/111/111
f 111/111/111 112/112/112 110/110/110
f 112/112/112 111/111/111 113/113/113
f 113/113/113 114/114/114 112/112/112
f 114/114/114 113/113/113 115/115/115
f 115/115/115 116/116/116 114/114/114
f 116/116/116 115/115/115 117/117/117
f 117/117/117 118/118/118 116/116/116
f 118/118/118 117/117/117 119/119/119
f 119/119/119 120/120/120 118/118/118
f 121/121/121 122/122/122 123/123/123
f 123/123/123 124/124/124 121/121/121
f 124/124/124 123/123/123 125/125/125
f 125/125/125 126/126/126 124/124/124
f 126/126/126 125/125/125 127/127/127
f 127/127/127 128/128/128 126/126/126
f 128/128/128 127/127/127 129/129/129
f 129/129/129 130/130/130 128/128/128
f 130/130/130 129/129/129 131/131/131
f 131/131/131 132/132/132 130/130/130
f 132/132/132 131/131/131 133/133/133
f 133/133/133 134/134/134 132/132/132
f 134/134/134 133/133/133 135/135/135
f 135/135/135 136/136/136 134/134/134
f 137/137/137 138/138/138 139/139/139
f 139/139/139 140/140/140 137/137/137
f 140/140/140 139/139/139 141/141/141
f 141/141/141 142/142/142 140/140/140
f 142/142/142 141/141/141 143/143/143
f 143/143/143 144/144/144 142/142/142
f 144/144/144 143/143/143 145/145/145
f 145/145/145 146/146/146 144/144/144
f 146/146/146 145/145/145 147/147/147
f 147/147/147 148/148/148 146/146/146
f 148/148/148 147/147/147 149/149/149
f 149/149/149 150/150/150 148/148/148
f 150/150/150 149/149/149 151/151/151
f 151/151/151 152/152/152 150/150/150
f 153/153/153 154/154/154 155/155/155
f 155/155/155 156/156/156 153/153/153
f 156/156/156 155/155/155 157/157/157
f 157/157/157 158/158/158 156/156/156
f 158/158/158 157/157/157 159/159/159
f 159/159/159 160/160/160 158/158/158
f 160/160/160 159/159/159 161/161/161
f 161/161/161 162/162/162 160/160/160
f 162/162/162 161/161/161 163/163/163
f 163/163/163 164/164/164 162/162/162
f 164/164/164 163/163/163 165/165/165
f 165/165/165 166/166/166 164/164/164
f 166/166/166 165/165/165 167/167/167
f 167/167/167 168/168/168 166/166/166
f 169/169/169 170/170/170 171/171/171
f 171/171/171 172/172/172 169/169/169
f 172/172/172 171/171/171 173/173/173
f 173/173/173 174/174/174 172/172/172
f 174/174/174 173/173/173 175/175/175
f 175/175/175 176/176/176 174/174/174
f 176/176/176 175/175/175 177/177/177
f 177/177/177 178/178/178 176/176/176
f 178/178/178 177/177/177 179/179/179
f 179/179/179 180/180/180 178/178/178
f 180/180/180 179/179/179 181/181/181
f 181/181/181 182/182/182 180/180/180
f 182/182/182 181/181/181 183/183/183
f 183/183/183 184/184/184 182/182/182
f 185/185/185 186/186/186 187/187/187
f 187/187/187 188/188/188 185/185/185
f 188/188/188 187/187/187 189/189/189
f 189/189/189 190/190/190 188/188/188
f 190/190/190 189/189/189 191/191/191
f 191/191/191 192/192/192 190/190/190
f 192/192/192 191/191/191 193/193/193
f 193/193/193 194/194/194 192/192/192
f 194/194/194 193/193/193 195/195/195
f 195/195/195 196/196/196 194/194/194
f 196/196/196 195/195/195 197/197/197
f 197/197/197 198/198/198 196/196/196
f 198/198/198 197/197/197 199/199/199
f 199/199/199 200/200/200 198/198/198
f 201/201/201 202/202/202 203/203/203
f 203/203/203 204/204/204 201/201/201
f 204/204/204 203/203/203 205/205/205
f 205/205/205 206/206/206 204/204/204
f 206/206/206 205/205/205 207/207/207
f 207/207/207 208/208/208 206/206/206
f 208/208/208 207/207/207 209/209/209
f 209/209/209 210/210/210 208/208/208
f 210/210/210 209/209/209 211/211/211
f 211/211/211 212/212/212 210/210/210
f 212/212/212 211/211/211 213/213/213
f 213/213/213 214/214/214 212/212/212
f 214/214/214 213/213/213 215/215/215
f 215/215/215 216/216/216 214/214/214
f 217/217/217 218/218/218 219/219/219
f 219/219/219 220/220/220 217/217/217
f 220/220/220 219/219/219 221/221/221
f 221/221/221 222/222/222 220/220/220
f 222/222/222 221/221/221 223/223/223
f 223/223/223 224/224/224 222/222/222
f 224/224/224 223/223/223 225/225/225
f 225/225/225 226/226/226 224/224/224
f 226/226/226 225/225/225 227/227/227
f 227/227/227 228/228/228 226/226/226
f 228/228/228 227/227/227 229/229/229
f 229/229/229 230/230/230 228/228/228
f 230/230/230 229/229/229 231/231/231
f 231/231/231 232/232/232 230/230/230
f 233/233/233 234/234/234 235/235/235
f 234/234/234 236/236/236 235/235/235
f 236/236/236 237/237/237 235/235/235
f 237/237/237 238/238/238 235/235/235
f 238/238/238 239/239/239 235/235/235
f 240/240/240 241/241/241 242/242/242
f 241/241/241 243/243/243 242/242/242
f 243/243/243 244/244/244 242/242/242
f 244/244/244 245/245/245 242/242/242
f 245/245/245 246/246/246 242/242/242
f 247/247/247 248/248/248 249/249/249
f 248/248/248 250/250/250 249/249/249
f 250/250/250 251/251/251 249/249/249
f 251/251/251 252/252/252 249/249/249
f 252/252/252 253/253/253 249/249/249
f 254/254/254 255/255/255 256/256/256
f 255/255/255 257/257/257 256/256/256
f 257/257/257 258/258/258 256/256/256
f 258/258/258 259/259/259 256/256/256
f 259/259/259 260/260/260 256/256/256
f 261/261/261 262/262/262 263/263/263
f 262/262/262 264/264/264 263/263/263
f 264/264/264 265/265/265 263/263/263
f 265/265/265 266/266/266 263/263/263
f 266/266/266 267/267/267 263/263/263
f 268/268/268 269/269/269 270/270/270
f 269/269/269 271/271/271 270/270/270
f 271/271/271 272/272/272 270/270/270
f 272/272/272 273/273/273 270/270/270
f 273/273/273 274/274/274 270/270/270
f 275/275/275 276/276/276 277/277/277
f 277/277/277 278/278/278 275/275/275
f 276/276/276 275/275/275 279/279/279
f 278/278/278 277/277/277 280/280/280
f 279/279/279 281/281/281 276/276/276
f 280/280/280 282/282/282 278/278/278
f 281/281/281 279/279/279 283/283/283
f 282/282/282 280/280/280 284/284/284
f 283/283/283 285/285/285 281/281/281
f 284/284/284 286/286/286 282/282/282
f 285/285/285 283/283/283 287/287/287
f 286/286/286 284/284/284 288/288/288
f 287/287/287 288/288/288 285/285/285
f 288/288/288 287/287/287 286/286/286
f 289/289/289 290/290/290 291/291/291
f 291/291/291 292/292/292 289/289/289
f 290/290/290 289/289/289 293/293/293
f 292/292/292 291/291/291 294/294/294
f 293/293/293 295/295/295 290/290/290
f 294/294/294 296/296/296 292/292/292
f 295/295/295 293/293/293 297/297/297
f 296/296/296 294/294/294 298/298/298
f 297/297/297 299/299/299 295/295/295
f 298/298/298 300/300/300 296/296/296
f 299/299/299 297/297/297 301/301/301
f 300/300/300 298/298/298 302/302/302
f 301/301/301 302/302/302 299/299/299
f 302/302/302 301/301/301 300/300/300
f 303/303/303 304/304/304 305/305/305
f 305/305/305 306/306/306 303/303/303
f 304/304/304 303/303/303 307/307/307
f 306/306/306 305/305/305 308/308/308
f 307/307/307 309/309/309 304/304/304
f 308/308/308 310/310/310 306/306/306
f 309/309/309 307/307/307 311/311/311
f 310/310/310 308/308/308 312/312/312
f 311/311/311 313/313/313 309/309/309
f 312/312/312 314/314/314 310/310/310
f 313/313/313 311/311/311 315/315/315
f 314/314/314 312/312/312 316/316/316
f 315/315/315 316/316/316 313/313/313
f 316/316/316 315/315/315 314/314/314
f 317/317/317 318/318/318 319/319/319
f 319/319/319 320/320/320 317/317/317
f 318/318/318 317/317/317 321/321/321
f 320/320/320 319/319/319 322/322/322
f 321/321/321 323/323/323 318/318/318
f 322/322/322 324/324/324 320/320/320
f 323/323/323 321/321/321 325/325/325
f 324/324/324 322/322/322 326/326/326
f 325/325/325 327/327/327 323/323/323
f 326/326/326 328/328/328 324/324/324
f 327/327/327 325/325/325 329/329/329
f 328/328/328 326/326/326 330/330/330
f 329/329/329 330/330/330 327/327/327
f 330/330/330 329/329/329 328/328/328
f 331/331/331 332/332/332 333/333/333
f 333/333/333 334/334/334 331/331/331
f 332/332/332 331/331/331 335/335/335
f 334/334/334 333/333/333 336/336/336
f 335/335/335 337/337/337 332/332/332
f 336/336/336 338/338/338 334/334/334
f 337/337/337 335/335/335 339/339/339
f 338/338/338 336/336/336 340/340/340
f 339/339/339 341/341/341 337/337/337
f 340/340/340 342/342/342 338/338/338
f 341/341/341 339/339/339 343/343/343
f 342/342/342 340/340/340 344/344/344
f 343/343/343 344/344/344 341/341/341
f 344/344/344 343/343/343 342/342/342
f 345/345/345 346/346/346 347/347/347
f 347/347/347 348/348/348 345/345/345
f 346/346/346 345/345/345 349/349/349
f 348/348/348 347/347/347 350/350/350
f 349/349/349 351/351/351 346/346/346
f 350/350/350 352/352/352 348/348/348
f 351/351/351 349/349/349 353/353/353
f 352/352/352 350/350/350 354/354/354
f 353/353/353 355/355/355 351/351/351
f 354/354/354 356/356/356 352/352/352
f 355/355/355 353/353/353 357/357/357
f 356/356/356 354/354/354 358/358/358
f 357/357/357 358/358/358 355/355/355
f 358/358/358 357/357/357 356/356/356
