v 1.131191 -1.003378 -0.36587099999999995
v 1.587294 -1.037825 -9.999999999364515E-07
v 0.407814 -1.742124 -9.999999998933257E-07
v -0.406392 -1.496579 -9.99999999908361E-07
v -0.651678 -0.740766 -9.999999999546411E-07
v -0.639754 -0.406392 -9.999999999751156E-07
v 1.513984 0.075994 -1.0000000000046533E-06
v 1.374016 1.06032 -1.0000000000649259E-06
v 0.713447 1.329918 -0.5021630000000001
v 1.508782 -0.400935 -0.365871
v 1.425673 -1.245873 -0.36587099999999995
v 1.155516 -1.419094 -0.3658709999999999
v 0.293793 -1.335617 -0.36587099999999995
v 0.10067 1.360944 -0.5021630000000001
v 1.370805 -0.684926 -0.36587099999999995
v 0.413618 0.848061 -0.502163
v 1.384815 1.066591 -0.7513910000000001
v 1.421192 -0.42035900000000004 -0.751391
v -0.285792 -1.339515 -0.6027129999999999
v -0.627373 -0.698984 -0.602713
v -0.607474 -0.39734900000000006 -0.602713
v -0.228396 0.24784699999999996 -1.002299
v 0.41554 0.6881769999999999 -1.002299
v 1.041283 -0.9004090000000001 -1.000915
v 0.307124 -1.296648 -1.000915
v 0.991254 -0.022539000000000076 -1.250001
v 0.991254 -0.8464050000000001 -1.250001
v 0.420413 -0.6245040000000001 -1.250001
v 0.382591 -0.6663300000000001 -1.731891
v -0.163138 1.324616 -0.2660620000000001
v -0.10047 0.942102 -0.5021630000000001
v 1.527775 -0.755188 -0.18641299999999994
v 1.330617 -0.976231 -0.36587099999999995
v -0.465056 0.17882199999999998 -0.602713
v -0.675646 -0.21571600000000002 -0.602713
v -0.554369 -0.17543400000000003 -0.602713
v -0.702715 0.28603899999999993 -0.602713
v 0.306854 0.22298299999999993 -1.092912
v 0.767733 0.057429999999999926 -1.250001
v 0.772424 0.09580799999999993 -1.092912
v 0.5523 -0.20872400000000008 -1.250001
v -0.281908 -1.32767 -0.7487539999999999
v 0.009424 -0.9743600000000001 -1.000915
v -0.234823 -0.9114960000000001 -1.000915
v -0.271124 -0.990318 -0.8195379999999999
v 0.916456 0.16294999999999996 -1.002299
v 1.258057 -0.752085 -0.546087
v 1.215708 -0.541589 -0.751391
v 1.28234 -0.33138300000000004 -0.751391
v -0.109648 1.263314 -0.5021630000000001
v -0.534891 0.917665 -0.5021630000000001
v -0.632426 1.075942 -0.27978200000000003
v -0.150915 1.013463 -0.20942100000000005
v -0.492754 0.918401 -0.26772300000000004
v 1.332253 -0.975271 -0.18617599999999995
v 1.456159 -0.702544 -0.18595099999999995
v 1.551039 -1.04456 -0.18870699999999996
v 1.472873 -0.695632 -0.36587099999999995
v 1.535967 -1.066456 -0.36587099999999995
v -0.680231 -0.17790900000000004 -0.351146
v -0.108263 -1.241197 -0.8206799999999999
v -0.053347 -1.195485 -1.000915
v 1.029565 0.5706869999999999 -1.002299
v 1.059476 0.06273699999999995 -1.002299
v 1.415172 -0.49570100000000006 -0.504825
v 1.203749 -0.761302 -0.751391
v -1.082715 0.958948 -1.0000000000587186E-06
v -0.945618 0.845328 -0.502163
v 1.288608 1.679247 -0.5021630000000001
v -1.110377 1.09648 -0.5021630000000001
v 1.085597 0.836392 -0.502163
v -0.742898 0.34074399999999994 -0.502163
v -0.755545 0.25998 -0.359114
v 1.119063 0.697481 -0.751391
v 1.579826 -0.35397100000000004 -0.751391
v -0.19017 -0.39734900000000006 -0.602713
v -0.285792 0.3048699999999999 -0.602713
v -1.681298 0.35336199999999995 -0.602713
v -0.60152 1.01311 -0.5021630000000001
v 1.78532 -1.282548 -0.36587099999999995
v 0.414916 -1.726685 -0.3658709999999999
v 0.41554 0.24784699999999996 -1.002299
v 1.215864 1.602662 -1.002299
v 1.083126 0.27565399999999995 -1.250001
v 1.124336 -0.9746750000000001 -1.250001
v 0.420413 -0.09403600000000008 -1.250001
v -0.099999 -0.3714770000000001 -1.731891
v -0.099999 0.11096999999999989 -1.731891
v 0.388593 0.030469999999999893 -1.731891
v -0.406392 1.282635 -1.0000000000785388E-06
v -0.32828 0.34074399999999994 -0.502163
v 1.664122 -0.401834 -9.999999999753947E-07
v 1.440948 -1.275604 -9.999999999218917E-07
v 1.219177 -1.415543 -9.999999999133229E-07
v 0.269549 -1.51328 -9.999999999073384E-07
v -0.860626 0.406151 -1.0000000000248695E-06
v 1.480985 0.833992 -1.0000000000510671E-06
v 0.777108 1.331993 -1.000000000081561E-06
v 1.094738 -0.960334 -0.7513909999999999
v 0.566275 -0.21894800000000006 -1.092912
v 0.275026 0.03256899999999993 -1.092912
v 0.116274 1.471908 -1.0000000000901283E-06
v 1.380878 1.057981 -0.5021630000000001
v -0.228396 -0.3958980000000001 -1.000915
v -0.378459 -1.770982 -1.000915
v 0.382591 -0.06451800000000012 -1.731891
v 0.27368 0.030469999999999893 -1.731891
v -0.60152 1.01311 -0.5021630000000001
v 0.414916 -1.726685 -0.3658709999999999
v 0.293793 -1.335617 -0.36587099999999995
v 0.414916 -1.726685 -0.3658709999999999
v 0.407814 -1.742124 -9.999999998933257E-07
v 1.380878 1.057981 -0.5021630000000001
v -0.742898 0.34074399999999994 -0.502163
v -0.32828 0.34074399999999994 -0.502163
v 0.413618 0.848061 -0.502163
v 1.384815 1.066591 -0.7513910000000001
v 1.119063 0.697481 -0.751391
v 1.085597 0.836392 -0.502163
v 1.380878 1.057981 -0.5021630000000001
v 1.370805 -0.684926 -0.36587099999999995
v 1.508782 -0.400935 -0.365871
v -0.228396 0.24784699999999996 -1.002299
v -0.285792 0.3048699999999999 -0.602713
v -0.285792 -1.339515 -0.6027129999999999
v -0.099999 -0.3714770000000001 -1.731891
v 0.382591 -0.6663300000000001 -1.731891
v 0.420413 -0.6245040000000001 -1.250001
v 0.420413 -0.09403600000000008 -1.250001
v 0.420413 -0.6245040000000001 -1.250001
v 0.382591 -0.6663300000000001 -1.731891
v -0.742898 0.34074399999999994 -0.502163
v -0.702715 0.28603899999999993 -0.602713
v -0.228396 0.24784699999999996 -1.002299
v -0.099999 0.11096999999999989 -1.731891
v 1.059476 0.06273699999999995 -1.002299
v 0.41554 0.24784699999999996 -1.002299
v -0.228396 0.24784699999999996 -1.002299
v 1.131191 -1.003378 -0.36587099999999995
v 1.094738 -0.960334 -0.7513909999999999
v 0.306854 0.22298299999999993 -1.092912
v 0.772424 0.09580799999999993 -1.092912
v 1.119063 0.697481 -0.751391
v 1.059476 0.06273699999999995 -1.002299
v 0.420413 -0.09403600000000008 -1.250001
v 0.275026 0.03256899999999993 -1.092912
v 0.566275 -0.21894800000000006 -1.092912
v 0.382591 -0.06451800000000012 -1.731891
v 0.772424 0.09580799999999993 -1.092912
v 0.767733 0.057429999999999926 -1.250001
v -0.945618 0.845328 -0.502163
v -1.082715 0.958948 -1.0000000000587186E-06
v 1.508782 -0.400935 -0.365871
v -0.285792 0.3048699999999999 -0.602713
v -0.19017 -0.39734900000000006 -0.602713
v -0.285792 -1.339515 -0.6027129999999999
v 0.306854 0.22298299999999993 -1.092912
v -0.228396 -0.3958980000000001 -1.000915
v 1.041283 -0.9004090000000001 -1.000915
v 1.094738 -0.960334 -0.7513909999999999
v 1.131191 -1.003378 -0.36587099999999995
v 0.293793 -1.335617 -0.36587099999999995
v 1.041283 -0.9004090000000001 -1.000915
v 1.421192 -0.42035900000000004 -0.751391
v 1.384815 1.066591 -0.7513910000000001
v 1.380878 1.057981 -0.5021630000000001
v 1.374016 1.06032 -1.0000000000649259E-06
v 0.27368 0.030469999999999893 -1.731891
v -0.099999 0.11096999999999989 -1.731891
v 0.269549 -1.51328 -9.999999999073384E-07
v -0.281908 -1.32767 -0.7487539999999999
v -0.053347 -1.195485 -1.000915
v -0.108263 -1.241197 -0.8206799999999999
v 1.029565 0.5706869999999999 -1.002299
v 1.041283 -0.9004090000000001 -1.000915
v 0.991254 -0.8464050000000001 -1.250001
v 0.991254 -0.022539000000000076 -1.250001
v 1.094738 -0.960334 -0.7513909999999999
v -0.10047 0.942102 -0.5021630000000001
v -0.492754 0.918401 -0.26772300000000004
v -0.10047 0.942102 -0.5021630000000001
v 1.551039 -1.04456 -0.18870699999999996
v 1.456159 -0.702544 -0.18595099999999995
v 1.456159 -0.702544 -0.18595099999999995
v 1.332253 -0.975271 -0.18617599999999995
v 1.472873 -0.695632 -0.36587099999999995
v 1.527775 -0.755188 -0.18641299999999994
v 1.456159 -0.702544 -0.18595099999999995
v 1.535967 -1.066456 -0.36587099999999995
v 1.330617 -0.976231 -0.36587099999999995
v 1.332253 -0.975271 -0.18617599999999995
v 1.332253 -0.975271 -0.18617599999999995
v 1.551039 -1.04456 -0.18870699999999996
v 1.535967 -1.066456 -0.36587099999999995
v -0.465056 0.17882199999999998 -0.602713
v -0.680231 -0.17790900000000004 -0.351146
v -0.271124 -0.990318 -0.8195379999999999
v -0.234823 -0.9114960000000001 -1.000915
v 1.28234 -0.33138300000000004 -0.751391
v 1.415172 -0.49570100000000006 -0.504825
v 0.566275 -0.21894800000000006 -1.092912
v 0.5523 -0.20872400000000008 -1.250001
v 0.566275 -0.21894800000000006 -1.092912
v 0.10067 1.360944 -0.5021630000000001
v -0.675646 -0.21571600000000002 -0.602713
v 1.085597 0.836392 -0.502163
v 1.119063 0.697481 -0.751391
v -0.228396 0.24784699999999996 -1.002299
v -0.228396 0.24784699999999996 -1.002299
v -0.228396 0.24784699999999996 -1.002299
v 0.009424 -0.9743600000000001 -1.000915
vt 0.164671 0.812952
vt 0.612934 0.006492
vt 0.363459 0.006492
vt 0.467056 0.090149
vt 0.327843 0.090149
vt 0.268522 0.090149
vt 0.811021 0.006492
vt 0.004958 0.207281
vt 0.128620 0.293121
vt 0.098188 0.713684
vt 0.571892 0.070044
vt 0.512062 0.070044
vt 0.312114 0.867697
vt 0.242863 0.293121
vt 0.122482 0.760479
vt 0.301668 0.514592
vt 0.121545 0.489262
vt 0.724999 0.137185
vt 0.473317 0.194134
vt 0.325968 0.194134
vt 0.268458 0.194134
vt 0.888257 0.561455
vt 0.888257 0.405981
vt 0.877593 0.989160
vt 0.580250 0.264297
vt 0.835849 0.301463
vt 0.825312 0.976264
vt 0.280529 0.765163
vt 0.306484 0.752584
vt 0.287003 0.252784
vt 0.314343 0.306764
vt 0.657429 0.039550
vt 0.627140 0.069856
vt 0.165873 0.198588
vt 0.232898 0.194134
vt 0.219928 0.198588
vt 0.968751 0.649232
vt 0.865924 0.445453
vt 0.835849 0.352529
vt 0.865924 0.352529
vt 0.825599 0.168985
vt 0.933199 0.894527
vt 0.883018 0.849069
vt 0.883018 0.809933
vt 0.918707 0.826060
vt 0.213349 0.051890
vt 0.647937 0.107944
vt 0.672246 0.148989
vt 0.708102 0.152381
vt 0.282074 0.293121
vt 0.379960 0.306764
vt 0.386740 0.255116
vt 0.317641 0.274081
vt 0.372511 0.274081
vt 0.626704 0.057965
vt 0.657685 0.049876
vt 0.612934 0.039550
vt 0.671169 0.070044
vt 0.612934 0.070044
vt 0.225950 0.153354
vt 0.503015 0.229706
vt 0.511409 0.264297
vt 0.888257 0.282928
vt 0.881249 0.301463
vt 0.701030 0.101040
vt 0.641767 0.137185
vt 0.008550 0.090149
vt 0.008544 0.176095
vt 0.152895 0.375034
vt 0.566661 0.473520
vt 0.184127 0.516500
vt 0.503965 0.597560
vt 0.144362 0.153246
vt 0.170718 0.547795
vt 0.085660 0.715436
vt 0.963514 0.702912
vt 0.968751 0.561455
vt 0.649333 0.594188
vt 0.389980 0.293121
vt 0.050968 0.859607
vt 0.290788 0.932135
vt 0.881249 0.425161
vt 0.149782 0.377368
vt 0.165382 0.616839
vt 0.157605 0.823052
vt 0.280529 0.677755
vt 0.391455 0.704000
vt 0.391455 0.624505
vt 0.308609 0.642419
vt 0.328395 0.207175
vt 0.431440 0.597560
vt 0.718465 0.006492
vt 0.571318 0.006492
vt 0.522429 0.006492
vt 0.309357 0.006492
vt 0.114013 0.090149
vt 0.944504 0.006492
vt 0.116751 0.207281
vt 0.175219 0.810690
vt 0.257101 0.682731
vt 0.308381 0.641288
vt 0.239954 0.207175
vt 0.004958 0.292989
vt 0.883018 0.702912
vt 0.438331 0.922892
vt 0.855134 0.262557
vt 0.891872 0.269300
vt 0.389980 0.293121
vt 0.363459 0.070044
vt 0.282962 0.070044
vt 0.358314 0.070044
vt 0.358314 0.006492
vt 0.132477 0.480260
vt 0.995423 0.649232
vt 0.995423 0.561455
vt 0.995423 0.393400
vt 0.952818 0.196431
vt 0.952818 0.257391
vt 0.995423 0.257391
vt 0.995423 0.196431
vt 0.668115 0.074695
vt 0.724999 0.074695
vt 0.883018 0.569055
vt 0.963514 0.569055
vt 0.963515 0.894527
vt 0.730519 0.710107
vt 0.730519 0.844240
vt 0.825312 0.844240
vt 0.855134 0.175186
vt 0.756129 0.175186
vt 0.756129 0.262557
vt 0.130069 0.176095
vt 0.140744 0.194134
vt 0.881249 0.558224
vt 0.736264 0.600735
vt 0.177298 0.631486
vt 0.290678 0.600985
vt 0.404057 0.600985
vt 0.599979 0.074695
vt 0.599979 0.137185
vt 0.302777 0.609912
vt 0.220803 0.630867
vt 0.302349 0.006465
vt 0.192649 0.044707
vt 0.862164 0.168985
vt 0.891934 0.140928
vt 0.825599 0.140928
vt 0.862164 0.256356
vt 0.763159 0.140928
vt 0.763159 0.168985
vt 0.459462 0.293121
vt 0.459468 0.207175
vt 0.729422 0.070044
vt 0.414425 0.602215
vt 0.398359 0.717924
vt 0.419850 0.873169
vt 0.925972 0.140928
vt 0.392901 0.722372
vt 0.192396 0.810326
vt 0.743031 0.227671
vt 0.750472 0.158133
vt 0.587586 0.158133
vt 0.734314 0.264297
vt 0.729422 0.135028
vt 0.990171 0.135028
vt 0.990171 0.092200
vt 0.990171 0.006492
vt 0.736264 0.445453
vt 0.736264 0.522405
vt 0.592619 0.090149
vt 0.473318 0.211977
vt 0.883018 0.894527
vt 0.907904 0.894527
vt 0.279430 0.044546
vt 0.020746 0.044707
vt 0.033820 0.081926
vt 0.178976 0.081926
vt 0.008053 0.006465
vt 0.314343 0.306764
vt 0.372511 0.274081
vt 0.314343 0.306764
vt 0.612934 0.039550
vt 0.657685 0.049876
vt 0.657685 0.049876
vt 0.626704 0.057965
vt 0.671169 0.070044
vt 0.657429 0.039550
vt 0.657685 0.049876
vt 0.612934 0.070044
vt 0.627140 0.069856
vt 0.626704 0.057965
vt 0.626704 0.057965
vt 0.612934 0.039550
vt 0.612934 0.070044
vt 0.165873 0.198588
vt 0.225950 0.153354
vt 0.918707 0.826060
vt 0.883018 0.809933
vt 0.708102 0.152381
vt 0.701030 0.101040
vt 0.825599 0.140928
vt 0.825599 0.168985
vt 0.825599 0.140928
vt 0.242863 0.293121
vt 0.232898 0.194134
vt 0.995423 0.257391
vt 0.952818 0.257391
vt 0.881249 0.558224
vt 0.881249 0.558224
vt 0.881249 0.558224
vt 0.883018 0.849069
vn 0 6.123233995736766E-17 1
vn -0.943402 0.19006300000000004 0.271787
vn 0.623737 0.765262 0.15914299999999995
vn 0.335499 0.865349 0.37230599999999997
vn 0.979186 0.171916 0.10788399999999998
vn 0.984016 0.163671 0.07017199999999998
vn -0.967939 -0.128608 0.215763
vn -0.701978 -0.712171 -0.006273999999999957
vn -0.21381 -0.97165 0.10090700000000005
vn 0 6.123233995736766E-17 1
vn -0.774616 0.629634 0.059430999999999956
vn -0.485726 0.870643 0.07779499999999995
vn 0 6.123233995736766E-17 1
vn 0.213345 -0.830965 0.513791
vn 0 6.123233995736766E-17 1
vn 0 6.123233995736766E-17 1
vn 0 6.123233995736766E-17 1
vn -0.842872 0.450638 0.294096
vn 0.699325 0.693352 0.17380499999999993
vn 0.976236 0.209895 0.05391899999999999
vn 0.99129 0.128776 0.027575999999999993
vn 0.727203 -0.647664 0.22739100000000004
vn 0.128291 -0.921619 0.3662770000000001
vn -0.873999 0.397 0.280207
vn -0.117915 0.974257 0.19214199999999995
vn -0.883561 -0.33294 0.329348
vn -0.132406 0.967591 0.21502499999999994
vn 0 6.123233995736766E-17 1
vn 0 6.123233995736766E-17 1
vn 0.579177 0.16796200000000006 0.797711
vn 0.541038 -0.821158 0.18159700000000006
vn -0.653827 0.22718800000000006 0.721731
vn -0.999471 -0.022984 -0.023008
vn 0.640702 0.46928000000000003 0.607681
vn 0.901747 -0.424746 0.08026900000000002
vn 0.73671 -0.38097699999999995 0.558673
vn 0.823985 0.17190100000000003 0.539907
vn -0.396843 -0.849939 0.34658300000000003
vn 0.340873 -0.920433 0.19133600000000006
vn 0.050462 -0.923239 0.38089700000000004
vn -0.243545 -0.968836 -0.045199999999999935
vn 0.654732 0.626876 0.42231899999999994
vn 0.695304 0.38884700000000005 0.604442
vn 0.750862 0.537465 0.38384499999999994
vn 0.855457 0.259046 0.448428
vn -0.726 -0.04686999999999996 0.686096
vn -0.857252 0.418877 0.299434
vn -0.852384 0.23002800000000004 0.469606
vn -0.184959 0.768887 0.612049
vn 0.981848 0.051657000000000015 0.182498
vn -0.560761 -0.825363 0.06574900000000006
vn -0.605171 -0.36520699999999995 0.707384
vn 0.577683 -0.21879999999999994 0.78639
vn -0.205191 -0.867671 0.45281800000000005
vn -0.522933 -0.47695799999999994 0.706436
vn -0.524787 0.724555 0.44678699999999993
vn -0.919985 0.11736700000000003 0.373968
vn -0.659592 0.728747 0.18402899999999994
vn -0.755526 -0.650569 0.07708200000000004
vn 0.989144 -0.000495999999999991 0.14695
vn 0.420116 0.670817 0.611153
vn 0.819211 0.44452 0.362348
vn -0.539318 -0.662932 0.519285
vn -0.605079 -0.615119 0.505479
vn -0.696508 0.571467 0.43393699999999996
vn -0.934368 0.2677 0.23514499999999997
vn 0.889296 -0.329346 0.317308
vn 0.84297 -0.15460499999999996 0.515265
vn 0 6.123233995736766E-17 1
vn 0 6.123233995736766E-17 1
vn 0 6.123233995736766E-17 1
vn 0 6.123233995736766E-17 1
vn 0.900206 0.312308 0.30347
vn 0 6.123233995736766E-17 1
vn 0 6.123233995736766E-17 1
vn 0.998552 -0.027531000000000003 -0.046221
vn 0.506787 -0.769437 0.3887590000000001
vn 0 6.123233995736766E-17 1
vn -0.819032 -0.57176 0.047722000000000035
vn 0 6.123233995736766E-17 1
vn 0 6.123233995736766E-17 1
vn -0.159654 -0.895235 0.41601000000000005
vn 0 6.123233995736766E-17 1
vn 0 6.123233995736766E-17 1
vn 0 6.123233995736766E-17 1
vn 0 6.123233995736766E-17 1
vn 0 6.123233995736766E-17 1
vn 0 6.123233995736766E-17 1
vn 0 6.123233995736766E-17 1
vn 0.390188 -0.881782 0.26498000000000005
vn 0 6.123233995736766E-17 1
vn -0.911811 -0.007957999999999976 0.410534
vn -0.717321 0.689333 0.10133899999999996
vn -0.430849 0.900547 0.058177999999999945
vn 0.471002 0.780858 0.4103879999999999
vn 0.933675 0.321022 0.15873199999999998
vn -0.947758 -0.318012 0.024969000000000022
vn -0.334285 -0.942087 0.026947000000000058
vn 0 6.123233995736766E-17 1
vn 0 6.123233995736766E-17 1
vn 0 6.123233995736766E-17 1
vn 0.026688 -0.988104 0.15145500000000006
vn -0.489867 -0.871795 -0.0020609999999999466
vn 0.880979 0.465597 0.08423699999999998
vn 0 6.123233995736766E-17 1
vn -0.960236 -0.272961 0.05864500000000002
vn -0.604189 -0.789598 0.10719200000000004
vn 0 6.123233995736766E-17 1
vn 0.092074 0.994183 0.055885999999999936
vn 0.102891 0.967986 0.22894799999999996
vn 0.092074 0.994183 0.055885999999999936
vn 0.623737 0.765262 0.15914299999999995
vn 0 6.123233995736766E-17 1
vn 0.721418 -0.46074599999999993 0.516981
vn 0.25937 -0.869724 0.41989000000000004
vn 0.419084 -0.84986 0.3195410000000001
vn -0.613658 -0.751392 0.24255700000000005
vn -0.66484 -0.38851499999999994 0.638
vn 0.239049 -0.899484 0.36576500000000006
vn -0.489867 -0.871795 -0.0020609999999999466
vn -0.820789 0.483722 0.30383899999999997
vn -0.940383 0.14182300000000003 0.309138
vn 0.727203 -0.647664 0.22739100000000004
vn 0.506787 -0.769437 0.3887590000000001
vn 0.699325 0.693352 0.17380499999999993
vn 0.84489 0.526096 0.09686499999999998
vn -0.49158 0.870049 -0.036933000000000056
vn -0.267166 0.960331 0.07992099999999995
vn -0.794488 -0.606818 0.023687000000000038
vn -0.267166 0.960331 0.07992099999999995
vn -0.49158 0.870049 -0.036933000000000056
vn 0.721418 -0.46074599999999993 0.516981
vn 0.823985 0.17190100000000003 0.539907
vn 0.727203 -0.647664 0.22739100000000004
vn 0.606383 -0.75537 0.24842700000000006
vn 0 6.123233995736766E-17 1
vn 0 6.123233995736766E-17 1
vn 0 6.123233995736766E-17 1
vn -0.686247 0.702675 0.18791899999999995
vn -0.713847 0.673913 0.19042899999999996
vn 0 6.123233995736766E-17 1
vn 0 6.123233995736766E-17 1
vn -0.66484 -0.38851499999999994 0.638
vn -0.605079 -0.615119 0.505479
vn -0.794488 -0.606818 0.023687000000000038
vn -0.814338 -0.580376 0.004179000000000036
vn 0.442454 -0.896784 0.003577000000000055
vn -0.960236 -0.272961 0.05864500000000002
vn 0.050462 -0.923239 0.38089700000000004
vn 0.340873 -0.920433 0.19133600000000006
vn 0.84297 -0.15460499999999996 0.515265
vn 0.889296 -0.329346 0.317308
vn -0.940383 0.14182300000000003 0.309138
vn 0 6.123233995736766E-17 1
vn 0 6.123233995736766E-17 1
vn 0 6.123233995736766E-17 1
vn -0.396843 -0.849939 0.34658300000000003
vn 0 6.123233995736766E-17 1
vn 0 6.123233995736766E-17 1
vn -0.713847 0.673913 0.19042899999999996
vn -0.686247 0.702675 0.18791899999999995
vn 0.102891 0.967986 0.22894799999999996
vn -0.873999 0.397 0.280207
vn -0.842872 0.450638 0.294096
vn -0.613658 -0.751392 0.24255700000000005
vn -0.489867 -0.871795 -0.0020609999999999466
vn -0.701978 -0.712171 -0.006273999999999957
vn -0.604189 -0.789598 0.10719200000000004
vn 0.606383 -0.75537 0.24842700000000006
vn 0.471002 0.780858 0.4103879999999999
vn 0.654732 0.626876 0.42231899999999994
vn 0.819211 0.44452 0.362348
vn 0.420116 0.670817 0.611153
vn -0.539318 -0.662932 0.519285
vn -0.873999 0.397 0.280207
vn -0.132406 0.967591 0.21502499999999994
vn -0.883561 -0.33294 0.329348
vn -0.713847 0.673913 0.19042899999999996
vn 0.541038 -0.821158 0.18159700000000006
vn -0.205191 -0.867671 0.45281800000000005
vn 0.541038 -0.821158 0.18159700000000006
vn -0.919985 0.11736700000000003 0.373968
vn -0.524787 0.724555 0.44678699999999993
vn -0.524787 0.724555 0.44678699999999993
vn -0.522933 -0.47695799999999994 0.706436
vn -0.659592 0.728747 0.18402899999999994
vn -0.653827 0.22718800000000006 0.721731
vn -0.524787 0.724555 0.44678699999999993
vn -0.755526 -0.650569 0.07708200000000004
vn -0.999471 -0.022984 -0.023008
vn -0.522933 -0.47695799999999994 0.706436
vn -0.522933 -0.47695799999999994 0.706436
vn -0.919985 0.11736700000000003 0.373968
vn -0.755526 -0.650569 0.07708200000000004
vn 0.640702 0.46928000000000003 0.607681
vn 0.989144 -0.000495999999999991 0.14695
vn 0.855457 0.259046 0.448428
vn 0.750862 0.537465 0.38384499999999994
vn -0.184959 0.768887 0.612049
vn -0.696508 0.571467 0.43393699999999996
vn 0.442454 -0.896784 0.003577000000000055
vn -0.243545 -0.968836 -0.045199999999999935
vn 0.442454 -0.896784 0.003577000000000055
vn 0.213345 -0.830965 0.513791
vn 0.901747 -0.424746 0.08026900000000002
vn 0.239049 -0.899484 0.36576500000000006
vn -0.66484 -0.38851499999999994 0.638
vn 0.727203 -0.647664 0.22739100000000004
vn 0.727203 -0.647664 0.22739100000000004
vn 0.727203 -0.647664 0.22739100000000004
vn 0.695304 0.38884700000000005 0.604442
g 03
f 178/178/178 143/143/143 175/175/175
f 143/143/143 144/144/144 175/175/175
f 144/144/144 177/177/177 175/175/175
f 177/177/177 176/176/176 175/175/175
f 143/143/143 174/174/174 46/46/46
f 48/48/48 66/66/66 47/47/47
f 45/45/45 173/173/173 43/43/43
f 45/45/45 42/42/42 173/173/173
f 173/173/173 172/172/172 211/211/211
f 61/61/61 171/171/171 162/162/162
f 171/171/171 19/19/19 162/162/162
f 19/19/19 4/4/4 162/162/162
f 4/4/4 170/170/170 162/162/162
f 25/25/25 62/62/62 61/61/61
f 61/61/61 162/162/162 25/25/25
f 169/169/169 168/168/168 210/210/210
f 168/168/168 38/38/38 209/209/209
f 38/38/38 82/82/82 208/208/208
f 116/116/116 23/23/23 119/119/119
f 23/23/23 63/63/63 119/119/119
f 63/63/63 207/207/207 206/206/206
f 97/97/97 167/167/167 166/166/166
f 166/166/166 165/165/165 97/97/97
f 7/7/7 164/164/164 153/153/153
f 153/153/153 92/92/92 7/7/7
f 7/7/7 97/97/97 165/165/165
f 165/165/165 164/164/164 7/7/7
f 163/163/163 25/25/25 160/160/160
f 25/25/25 162/162/162 160/160/160
f 162/162/162 161/161/161 160/160/160
f 21/21/21 205/205/205 60/60/60
f 60/60/60 6/6/6 21/21/21
f 105/105/105 159/159/159 158/158/158
f 107/107/107 146/146/146 157/157/157
f 78/78/78 156/156/156 155/155/155
f 155/155/155 154/154/154 78/78/78
f 122/122/122 18/18/18 65/65/65
f 92/92/92 153/153/153 32/32/32
f 153/153/153 58/58/58 32/32/32
f 152/152/152 151/151/151 90/90/90
f 151/151/151 14/14/14 90/90/90
f 151/151/151 108/108/108 204/204/204
f 14/14/14 102/102/102 90/90/90
f 5/5/5 20/20/20 21/21/21
f 21/21/21 6/6/6 5/5/5
f 73/73/73 132/132/132 68/68/68
f 203/203/203 202/202/202 150/150/150
f 150/150/150 149/149/149 201/201/201
f 107/107/107 148/148/148 145/145/145
f 145/145/145 146/146/146 107/107/107
f 41/41/41 147/147/147 146/146/146
f 146/146/146 145/145/145 41/41/41
f 200/200/200 18/18/18 199/199/199
f 65/65/65 49/49/49 48/48/48
f 48/48/48 47/47/47 65/65/65
f 144/144/144 143/143/143 46/46/46
f 198/198/198 197/197/197 43/43/43
f 100/100/100 142/142/142 141/141/141
f 141/141/141 101/101/101 100/100/100
f 196/196/196 35/35/35 36/36/36
f 60/60/60 36/36/36 73/73/73
f 36/36/36 195/195/195 73/73/73
f 34/34/34 133/133/133 73/73/73
f 194/194/194 193/193/193 192/192/192
f 191/191/191 190/190/190 189/189/189
f 188/188/188 187/187/187 186/186/186
f 33/33/33 185/185/185 184/184/184
f 183/183/183 58/58/58 33/33/33
f 55/55/55 182/182/182 32/32/32
f 32/32/32 56/56/56 55/55/55
f 51/51/51 54/54/54 52/52/52
f 52/52/52 79/79/79 51/51/51
f 181/181/181 53/53/53 54/54/54
f 180/180/180 51/51/51 179/179/179
f 50/50/50 30/30/30 53/53/53
f 53/53/53 31/31/31 50/50/50
f 52/52/52 54/54/54 53/53/53
f 53/53/53 30/30/30 52/52/52
f 66/66/66 140/140/140 47/47/47
f 140/140/140 139/139/139 47/47/47
f 139/139/139 121/121/121 47/47/47
f 83/83/83 138/138/138 137/137/137
f 137/137/137 136/136/136 83/83/83
f 126/126/126 135/135/135 134/134/134
f 134/134/134 104/104/104 126/126/126
f 39/39/39 64/64/64 40/40/40
f 39/39/39 26/26/26 64/64/64
f 64/64/64 82/82/82 40/40/40
f 82/82/82 38/38/38 40/40/40
f 133/133/133 132/132/132 73/73/73
f 6/6/6 60/60/60 73/73/73
f 73/73/73 96/96/96 6/6/6
f 59/59/59 11/11/11 57/57/57
f 11/11/11 93/93/93 57/57/57
f 93/93/93 2/2/2 57/57/57
f 32/32/32 57/57/57 2/2/2
f 2/2/2 92/92/92 32/32/32
f 106/106/106 131/131/131 130/130/130
f 130/130/130 129/129/129 106/106/106
f 104/104/104 128/128/128 126/126/126
f 104/104/104 27/27/27 128/128/128
f 104/104/104 24/24/24 27/27/27
f 128/128/128 127/127/127 126/126/126
f 45/45/45 76/76/76 42/42/42
f 45/45/45 104/104/104 76/76/76
f 45/45/45 44/44/44 104/104/104
f 76/76/76 125/125/125 42/42/42
f 123/123/123 124/124/124 76/76/76
f 76/76/76 104/104/104 123/123/123
f 121/121/121 122/122/122 65/65/65
f 65/65/65 47/47/47 121/121/121
f 117/117/117 120/120/120 119/119/119
f 119/119/119 118/118/118 117/117/117
f 115/115/115 77/77/77 116/116/116
f 77/77/77 22/22/22 116/116/116
f 22/22/22 23/23/23 116/116/116
f 77/77/77 115/115/115 114/114/114
f 114/114/114 37/37/37 77/77/77
f 113/113/113 69/69/69 71/71/71
f 91/91/91 16/16/16 72/72/72
f 16/16/16 69/69/69 72/72/72
f 16/16/16 71/71/71 69/69/69
f 69/69/69 70/70/70 72/72/72
f 9/9/9 98/98/98 102/102/102
f 102/102/102 14/14/14 9/9/9
f 68/68/68 67/67/67 96/96/96
f 96/96/96 73/73/73 68/68/68
f 19/19/19 20/20/20 5/5/5
f 5/5/5 4/4/4 19/19/19
f 110/110/110 95/95/95 112/112/112
f 112/112/112 111/111/111 110/110/110
f 109/109/109 3/3/3 94/94/94
f 94/94/94 12/12/12 109/109/109
f 12/12/12 94/94/94 93/93/93
f 93/93/93 11/11/11 12/12/12
f 103/103/103 8/8/8 98/98/98
f 98/98/98 9/9/9 103/103/103
f 28/28/28 85/85/85 84/84/84
f 84/84/84 86/86/86 28/28/28
f 74/74/74 99/99/99 75/75/75
f 75/75/75 17/17/17 74/74/74
f 1/1/1 80/80/80 15/15/15
f 1/1/1 81/81/81 80/80/80
f 1/1/1 13/13/13 81/81/81
f 80/80/80 10/10/10 15/15/15
f 29/29/29 89/89/89 88/88/88
f 88/88/88 87/87/87 29/29/29
