v 1.445722 -1.0151097318132411E-17 -0.16578
v 1.807443 1.2246467991473533E-20 0.0002
v 1.807443 -1.0151097318132411E-17 -0.16578
v 1.445722 1.2246467991473533E-20 0.0002
v 1.084 -1.0151097318132411E-17 -0.16578
v 1.084 1.2246467991473533E-20 0.0002
v 0.722279 -1.0151097318132411E-17 -0.16578
v 0.722279 1.2246467991473533E-20 0.0002
v 0.360557 -1.0151097318132411E-17 -0.16578
v 0.360557 1.2246467991473533E-20 0.0002
v -0.001164 -1.0151097318132411E-17 -0.16578
v -0.001164 1.2246467991473533E-20 0.0002
vt 0.762589 0.996259
vt 0.953236 0.897868
vt 0.953236 0.996259
vt 0.762589 0.897868
vt 0.571942 0.996259
vt 0.571942 0.897868
vt 0.381294 0.996259
vt 0.381294 0.897868
vt 0.190647 0.996259
vt 0.190647 0.897868
vt 0.000000 0.996259
vt 0.000000 0.897868
vn 0 1 -6.123233995736766E-17
vn 0 1 -6.123233995736766E-17
vn 0 1 -6.123233995736766E-17
vn 0 1 -6.123233995736766E-17
vn 0 1 -6.123233995736766E-17
vn 0 1 -6.123233995736766E-17
vn 0 1 -6.123233995736766E-17
vn 0 1 -6.123233995736766E-17
vn 0 1 -6.123233995736766E-17
vn 0 1 -6.123233995736766E-17
vn 0 1 -6.123233995736766E-17
vn 0 1 -6.123233995736766E-17
g flag
f 1/1/1 2/2/2 3/3/3
f 2/2/2 1/1/1 4/4/4
f 5/5/5 4/4/4 1/1/1
f 4/4/4 5/5/5 6/6/6
f 7/7/7 6/6/6 5/5/5
f 6/6/6 7/7/7 8/8/8
f 9/9/9 8/8/8 7/7/7
f 8/8/8 9/9/9 10/10/10
f 11/11/11 10/10/10 9/9/9
f 10/10/10 11/11/11 12/12/12
