v -23.220795 -10.506686 0.011380000000000643
v -24.248058 -12.99859 0.011380000000000796
v -22.761877 -12.900437 2.298985000000001
v 14.664959 -2.891588 -3.474587
v 14.371307 -3.132124 -0.8205199999999998
v 25.59483 -9.32205 3.3848260000000003
v -7.795029 -13.729259 0.01138000000000084
v -9.218695 -12.502034 0.2534890000000008
v -9.909231 -14.435587 2.225962000000001
v -16.613081 -14.710338 0.0113800000000009
v -9.309107 -14.778192 0.011380000000000905
v -7.795029 -13.729259 0.01138000000000084
v -16.613081 -14.710338 0.0113800000000009
v -22.761877 -12.900437 2.298985000000001
v -24.248058 -12.99859 0.011380000000000796
v -9.909231 -14.435587 2.225962000000001
v 6.462486 9.123713 4.770371999999999
v 22.066204 2.385458 0.8816289999999999
v 24.43544 5.211447 1.3298749999999997
v 7.386633 12.188948 5.233421999999999
v 25.122566 14.006073 3.242719999999999
v 11.014555 8.516662 5.446821999999999
v 13.211426 5.698998 5.066823
v 25.678955 11.705707 3.134918999999999
v -9.909231 -14.435587 2.225962000000001
v -9.218695 -12.502034 0.2534890000000008
v -15.628376 -12.685416 0.011380000000000777
v -22.761877 -12.900437 2.298985000000001
v -23.220795 -10.506686 0.011380000000000643
v 12.842987 -5.666131 -0.8758239999999997
v 19.557629 -13.307694 3.740845000000001
v 14.371307 -3.132124 -0.8205199999999998
v 26.528847 -14.024714 4.1306970000000005
v 25.59483 -9.32205 3.3848260000000003
v 27.322071 -5.239892 6.217556
v 26.901192 -2.8889749999999994 6.712233
v 9.67691 -8.075994 8.506695
v 4.481852 -14.246123 3.674109000000001
v -4.033791 -4.978734 4.103654
v -3.923733 -7.591575 4.394163000000001
v 24.105186 -7.263042 -1.6932919999999996
v 5.448923 -14.488331 -3.468688999999999
v -3.205618 -9.978127 -0.5950779999999993
v -3.923733 -7.591575 4.394163000000001
v 26.901192 -2.8889749999999994 6.712233
v 26.508976 -0.5336729999999995 7.210643
v 9.67691 -8.075994 8.506695
v 2.422407 -1.5716769999999995 6.119206
v 22.366459 2.571476 0.37816399999999983
v -4.033791 -4.978734 4.103654
v -4.11432 -2.3642289999999995 3.816603
v 2.746235 1.749901 -0.2742050000000001
v -3.555288 -1.078797 -1.581452
v -4.11432 -2.3642289999999995 3.816603
vt 0.467690 0.925668
vt 0.489238 0.972382
vt 0.500784 0.965596
vt 0.634457 0.162016
vt 0.625442 0.124436
vt 0.552366 0.187114
vt 0.671291 0.142137
vt 0.666187 0.113705
vt 0.637608 0.124810
vt 0.493334 0.189195
vt 0.632298 0.153132
vt 0.671291 0.142137
vt 0.493334 0.189195
vt 0.635475 0.126601
vt 0.643253 0.153176
vt 0.637608 0.124810
vt 0.802365 0.142725
vt 0.527799 0.280551
vt 0.501149 0.254490
vt 0.815539 0.114022
vt 0.791430 0.076257
vt 0.565853 0.100444
vt 0.512721 0.017175
vt 0.788106 0.014130
vt 0.603415 0.676832
vt 0.572672 0.647088
vt 0.551358 0.794483
vt 0.500784 0.965596
vt 0.467690 0.925668
vt 0.137601 0.894504
vt 0.349975 0.956526
vt 0.205315 0.863082
vt 0.448597 0.897417
vt 0.407550 0.844236
vt 0.228758 0.067605
vt 0.170363 0.075453
vt 0.107647 0.506490
vt 0.258017 0.673834
vt 0.154255 0.813021
vt 0.206533 0.815153
vt 0.438403 0.184130
vt 0.415578 0.672143
vt 0.358094 0.824750
vt 0.206771 0.816864
vt 0.170363 0.075453
vt 0.228758 0.067605
vt 0.107647 0.506490
vt 0.258017 0.673834
vt 0.438403 0.184130
vt 0.154255 0.813021
vt 0.206533 0.815153
vt 0.415578 0.672143
vt 0.358094 0.824750
vt 0.206771 0.816864
vn -0.355388 0.609286 0.708851
vn -0.736277 -0.4581489999999999 0.49799200000000005
vn -0.340847 0.02804400000000006 0.9397
vn 0.441294 0.887998 0.12930399999999995
vn -0.076826 0.48090400000000005 0.873401
vn 0.092783 0.669152 0.737311
vn 0.739769 -0.19972099999999998 0.642537
vn 0.261621 0.641875 0.720799
vn 0.359203 -0.19381299999999996 0.912913
vn -0.111042 -0.960174 0.25638900000000003
vn 0.282666 -0.933412 0.22100200000000006
vn 0.739769 -0.19972099999999998 0.642537
vn -0.111042 -0.960174 0.25638900000000003
vn -0.340847 0.02804400000000006 0.9397
vn -0.736277 -0.4581489999999999 0.49799200000000005
vn 0.359203 -0.19381299999999996 0.912913
vn 0.135855 -0.22447999999999996 0.964962
vn 0.127065 -0.25842399999999993 0.957639
vn 0.135855 -0.22447999999999996 0.964962
vn 0.144472 -0.19024899999999995 0.971048
vn 0.157566 -0.009093999999999939 0.987467
vn 0.158105 -0.00988899999999994 0.987373
vn 0.157566 -0.009093999999999939 0.987467
vn 0.157026 -0.00829999999999994 0.98756
vn 0.359203 -0.19381299999999996 0.912913
vn 0.261621 0.641875 0.720799
vn 0.089141 0.785421 0.612509
vn -0.340847 0.02804400000000006 0.9397
vn -0.355388 0.609286 0.708851
vn -0.380478 0.20981800000000006 0.900674
vn -0.199409 0.3144040000000001 0.928109
vn -0.076826 0.48090400000000005 0.873401
vn -0.161454 0.25334900000000005 0.953807
vn 0.092783 0.669152 0.737311
vn 0.272469 -0.692406 0.668082
vn 0.154923 -0.17827999999999994 0.971707
vn -0.037479 -0.20491199999999996 0.978063
vn -0.060374 -0.833907 0.548594
vn -0.216734 -0.03922899999999994 0.975442
vn -0.274914 -0.43976799999999994 0.855001
vn 0.354854 -0.930941 0.08618200000000005
vn -0.064503 -0.997602 0.02509500000000006
vn -0.534095 -0.835984 0.12598800000000004
vn -0.274914 -0.43976799999999994 0.855001
vn 0.154923 -0.17827999999999994 0.971707
vn 0.015913 0.39007500000000006 0.920646
vn -0.037479 -0.20491199999999996 0.978063
vn -0.238976 0.651781 0.719772
vn -0.055502 0.891148 0.45030499999999996
vn -0.216734 -0.03922899999999994 0.975442
vn -0.323104 0.640323 0.696844
vn -0.253004 0.863699 0.43590399999999996
vn -0.321498 0.895796 0.3069009999999999
vn -0.323104 0.640323 0.696844
g 01
f 1/1/1 2/2/2 3/3/3
f 4/4/4 5/5/5 6/6/6
f 7/7/7 8/8/8 9/9/9
f 10/10/10 11/11/11 9/9/9
f 9/9/9 11/11/11 12/12/12
f 13/13/13 14/14/14 15/15/15
f 16/16/16 14/14/14 13/13/13
f 17/17/17 18/18/18 19/19/19
f 19/19/19 20/20/20 17/17/17
f 21/21/21 22/22/22 23/23/23
f 23/23/23 24/24/24 21/21/21
f 25/25/25 26/26/26 27/27/27
f 27/27/27 28/28/28 25/25/25
f 28/28/28 27/27/27 29/29/29
f 30/30/30 31/31/31 32/32/32
f 31/31/31 33/33/33 32/32/32
f 32/32/32 33/33/33 34/34/34
f 35/35/35 36/36/36 37/37/37
f 38/38/38 35/35/35 37/37/37
f 38/38/38 37/37/37 39/39/39
f 39/39/39 40/40/40 38/38/38
f 41/41/41 35/35/35 38/38/38
f 38/38/38 42/42/42 41/41/41
f 43/43/43 42/42/42 38/38/38
f 38/38/38 44/44/44 43/43/43
f 45/45/45 46/46/46 47/47/47
f 46/46/46 48/48/48 47/47/47
f 48/48/48 46/46/46 49/49/49
f 50/50/50 47/47/47 48/48/48
f 48/48/48 51/51/51 50/50/50
f 49/49/49 52/52/52 48/48/48
f 48/48/48 52/52/52 53/53/53
f 53/53/53 54/54/54 48/48/48
