v 1.336072 -0.43347399999999997 0.719463
v 0.888506 -1.208809 0.7194630000000001
v 0.807551 -0.16372999999999993 0.719463
v 0.387725 -0.920114 0.7194630000000001
v 0.901842 -1.272017 0.7469000000000001
v 1.393354 -0.4124459999999999 0.746901
v 0.781898 -0.09359799999999996 0.747206
v 0.295308 -0.943162 0.7472060000000001
v 1.423843 -1.391212 8.518716613676937E-17
v 1.393086 -1.399453 8.569178185035805E-17
v 1.401327 -1.368696 8.380845877028929E-17
v 1.363163 -1.388219 0.6475780000000001
v 1.332406 -1.39646 0.6475780000000001
v 1.340647 -1.365703 0.6475780000000001
v 1.50303 1.097971 -6.723133353533093E-17
v 1.472273 1.08973 -6.672671782174227E-17
v 1.466496 1.087743 0.3818309999999999
v 1.497253 1.095984 0.3818309999999999
v 1.480514 1.120487 -6.861004090181102E-17
v 1.474737 1.1185 0.3818309999999999
v 1.391931 0.424017 -2.5963553091703163E-17
v 1.361174 0.415776 -0.012207000000000027
v 1.285122 0.432619 0.23046399999999997
v 1.315879 0.44086 0.23046399999999997
v 1.369415 0.446533 -2.7342260458183255E-17
v 1.293363 0.463376 0.23046399999999997
v 1.420561 0.543833 0.15133299999999997
v 1.391277 0.540402 0.16335799999999998
v 1.43631 1.162372 0.3217229999999999
v 1.465594 1.165803 0.3096979999999999
v 1.395235 0.553311 0.13451999999999997
v 1.440268 1.175281 0.29288499999999995
v 1.490836 0.525003 0.010585999999999967
v 1.461552 0.521572 0.022610999999999968
v 1.43631 1.162372 0.1931829999999999
v 1.465594 1.165803 0.18115799999999993
v 1.46551 0.534481 -0.006227000000000033
v 1.440268 1.175281 0.1643449999999999
v 0.847595 1.04659 -6.408515467598142E-17
v 0.826545 1.040949 -6.37397430462819E-17
v 0.869491 0.997198 0.42821799999999993
v 0.890542 1.002838 0.42821799999999993
v 0.832185 1.062 -6.502874503472446E-17
v 0.875132 1.018248 0.42821799999999993
v 1.1139 0.829774 -5.0809003655784796E-17
v 1.092849 0.824134 -5.046365325842524E-17
v 0.875034 0.985603 0.42821799999999993
v 0.896084 0.991243 0.42821799999999993
v 1.09849 0.845184 -5.175259401452783E-17
v 0.880674 1.006653 0.42821799999999993
v 1.152518 1.484379 -9.089199955357744E-17
v 1.143307 1.50413 -9.210139950007541E-17
v 1.08701 1.377101 0.31392199999999987
v 1.09622 1.35735 0.3139219999999999
v 1.165018 1.502231 -9.198511928649638E-17
v 1.10872 1.375201 0.31392199999999987
v 1.272326 1.276866 -7.818549299200422E-17
v 1.263115 1.296618 -7.939495417084215E-17
v 1.007069 1.131108 0.3139219999999999
v 1.016279 1.111357 0.3139219999999999
v 1.284826 1.294718 -7.927861272492315E-17
v 1.028779 1.129209 0.3139219999999999
v -0.478382 0.270346 -0.007960000000000017
v -0.464428 0.246178 -0.007960000000000016
v -0.424545 0.31380100000000005 0.56642
v -0.438498 0.33797000000000005 0.56642
v -0.492336 0.246178 -0.007960000000000016
v -0.452452 0.31380100000000005 0.56642
v -0.265415 0.393981 -0.007959000000000025
v -0.251461 0.369813 -0.007959000000000023
v -0.378999 0.046869000000000036 0.56642
v -0.392952 0.07103700000000003 0.56642
v -0.279369 0.369813 -0.007959000000000023
v -0.406906 0.046869000000000036 0.56642
v -0.349478 0.559216 0.014331999999999965
v -0.370856 0.541278 0.014331999999999966
v -0.195076 0.513741 0.43540499999999993
v -0.173697 0.53168 0.43540499999999993
v -0.375702 0.568761 0.014331999999999965
v -0.199922 0.541224 0.43540499999999993
v -0.408841 0.463615 0.014331999999999971
v -0.430219 0.445676 0.014331999999999971
v -0.140639 0.18381500000000003 0.435405
v -0.11926 0.20175300000000002 0.435405
v -0.435065 0.47316 0.01433199999999997
v -0.145485 0.21129800000000004 0.435405
v -0.012357 0.207389 0.014331999999999987
v -0.033735 0.18945 0.014331999999999987
v 0.142045 0.16191300000000003 0.435405
v 0.163424 0.17985200000000004 0.435405
v -0.038581 0.216933 0.014331999999999985
v 0.137199 0.18939600000000004 0.435405
v 0.745336 1.46499 -8.970476571414404E-17
v 0.97807 1.402629 -8.588625576206263E-17
v 1.210804 1.340268 -8.206774580998125E-17
v 1.443539 1.277907 -7.824923585789983E-17
v 0.684574 1.238223 -7.581929167903166E-17
v 0.917308 1.175862 0.12265299999999993
v 1.150043 1.113502 0.09454999999999993
v 1.382777 1.05114 -6.436376182278744E-17
v 0.623812 1.011456 -6.193381764391926E-17
v 0.862559 0.958505 0.10105999999999994
v 1.08928 0.886734 0.06533599999999995
v 1.322015 0.824374 -5.047834902001501E-17
v 0.56305 0.78469 -4.804840484114683E-17
v 0.795784 0.722329 -4.4229894889065425E-17
v 1.028518 0.659968 -4.041138493698402E-17
v 1.261253 0.597607 -3.6592874984902614E-17
v -1.057988 -0.450489 2.7584495595054597E-17
v -0.575731 -0.190906 0.02756200000000001
v -0.132885 0.131339 0.02181599999999999
v 0.262462 0.510358 0.013305999999999969
v 0.603086 0.939229 -0.0023290000000000576
v -0.868942 -0.866907 5.3082744135421726E-17
v -0.332258 -0.578027 0.12664100000000003
v 0.160568 -0.21941399999999997 0.230681
v 0.600534 0.202382 0.142427
v 0.979601 0.679655 0.0037909999999999585
v -0.679896 -1.283325 0.0015760000000000784
v -0.088784 -0.965149 0.21534700000000007
v 0.454022 -0.570167 0.3278190000000001
v 0.938606 -0.10559399999999998 0.13059
v 1.356116 0.420081 -0.0027940000000000256
v -0.49085 -1.699743 0.004860000000000104
v 0.154689 -1.35227 0.21061000000000007
v 0.747475 -0.920919 0.23637700000000006
v 1.276678 -0.413571 0.17545400000000003
v 1.732631 0.160507 0.00609399999999999
v -0.301804 -2.116161 -0.00332499999999987
v 0.398163 -1.739391 0.0037580000000001067
v 1.040928 -1.271672 0.011241000000000077
v 1.61475 -0.721547 -0.008040999999999956
v 2.109146 -0.099067 -0.004314999999999994
v -1.03384 -1.340729 8.209597391870159E-17
v -0.951433 -1.114316 6.82321761319341E-17
v -0.869025 -0.887902 5.436831711282666E-17
v -0.786617 -0.661488 4.0504458093719216E-17
v -0.813232 -1.421024 8.701262465557843E-17
v -0.730824 -1.194611 0.12265300000000007
v -0.648417 -0.968197 0.09455000000000005
v -0.566009 -0.741783 4.5421108830596055E-17
v -0.592624 -1.501319 9.192927539245526E-17
v -0.519066 -1.268095 0.10106000000000008
v -0.427808 -1.048492 0.06533600000000007
v -0.3454 -0.822078 5.033775956747289E-17
v -0.372016 -1.581614 9.684592612933209E-17
v -0.289608 -1.3552 8.298206711022466E-17
v -0.2072 -1.128787 6.911826932345717E-17
v -0.124792 -0.902373 5.525441030434973E-17
v 0.287607 -0.955052 0.31103500000000006
v 0.118485 -0.940956 0.26702200000000004
v 0.156001 -0.804669 0.3441000000000001
v 0.368896 -0.841527 0.4309720000000001
v 0.019612 -0.487339 0.23742700000000003
v 0.177839 -0.304215 0.16394000000000003
v 0.295372 -0.436368 0.327527
v 0.201879 -0.574058 0.36932400000000004
v 0.293215 -0.178935 0.15332
v 0.516872 -0.347452 0.278814
v -0.051398 -0.714917 0.23742700000000005
v -0.135505 -0.83022 0.23742700000000005
v 0.493839 -0.602917 0.38141900000000006
v 0.436 -0.726495 0.533203
v 0.628893 -0.534147 0.3194580000000001
v 0.123509 -0.872812 5.344432110286998E-17
v 0.093304 -0.878993 0.007960000000000054
v 0.100442 -0.852357 -0.007959999999999948
v 0.140834 -0.524993 0.518988
v 0.110629 -0.531174 0.526949
v 0.117766 -0.504538 0.511028
v 1.443216 -0.392061 0.0061250000000000245
v 1.390653 -0.41002099999999997 0.780842
v 0.763147 -0.025541 0.006125000000000002
v 0.788594 -0.08814399999999996 0.780842
v 1.443216 -0.392061 0.0061250000000000245
v 1.390653 -0.41002099999999997 0.780842
v 0.763147 -0.025541 0.006125000000000002
v 0.788594 -0.08814399999999996 0.780842
v 0.789417 -0.012016 0.006125000000000001
v 0.796037 -0.08469899999999994 0.796863
v 0.23208 -0.98126 0.00612500000000006
v 0.309608 -0.931125 0.7968630000000001
v 0.789417 -0.012016 0.006125000000000001
v 0.796037 -0.08469899999999994 0.796863
v 0.23208 -0.98126 0.00612500000000006
v 0.309608 -0.931125 0.7968630000000001
v 0.912457 -1.322149 0.006125000000000081
v 0.896873 -1.265772 0.7771790000000001
v 0.232387 -0.955629 0.006125000000000058
v 0.294814 -0.943894 0.7771790000000001
v 0.912457 -1.322149 0.006125000000000081
v 0.896873 -1.265772 0.7771790000000001
v 0.232387 -0.955629 0.006125000000000058
v 0.294814 -0.943894 0.7771790000000001
v 1.432964 -0.400057 0.0061250000000000245
v 1.376587 -0.41564199999999996 0.777179
v 0.907284 -1.326519 0.006125000000000082
v 0.89555 -1.264092 0.7771790000000001
v 1.432964 -0.400057 0.0061250000000000245
v 1.376587 -0.41564199999999996 0.777179
v 0.907284 -1.326519 0.006125000000000082
v 0.89555 -1.264092 0.7771790000000001
v -0.19411 -0.073479 0.061646000000000006
v -0.410746 0.004364000000000001 0.017632
v -0.313746 0.169756 0.09470999999999999
v -0.04775 0.046725000000000017 0.181582
v -0.381038 0.633405 -0.011963000000000038
v -0.10944 0.817788 -0.01196300000000005
v -0.001842 0.603377 0.07813699999999996
v -0.172677 0.455797 0.11993399999999997
v 0.085708 0.941425 -0.011963000000000057
v 0.319583 0.642114 0.02942399999999996
v -0.553973 0.360162 -0.011963000000000022
v -0.704649 0.238618 -0.011963000000000014
v 0.19972 0.315488 0.13202899999999998
v 0.080554 0.17388200000000004 0.283813
v 0.400811 0.358178 0.07006799999999998
v 0.758493 1.296898 -0.04797400000000008
v 0.747563 1.457231 0.06974099999999991
v 0.873389 1.397508 0.09470999999999992
v 0.843383 1.208644 0.1815819999999999
v 1.204646 1.475558 -0.01196300000000009
v 1.355268 1.290691 -0.01196300000000008
v 1.206923 1.199254 0.07813699999999993
v 1.089312 1.313534 0.11993399999999992
v 1.457093 1.1573 -0.01196300000000007
v 1.255305 0.969108 0.11230899999999995
v 0.995966 1.583402 -0.011963000000000097
v 0.898472 1.684743 -0.011963000000000102
v 1.042063 1.080016 0.2744849999999999
v 0.955065 1.153071 0.42419399999999996
v 1.15409 0.978513 0.13586399999999996
v -0.788364 0.395756 0.24630399999999997
v -0.570462 0.497501 0.26117399999999996
v -0.352561 0.599245 0.2760429999999999
v -0.134659 0.700989 0.2909129999999999
v -0.688205 0.184902 0.221319
v -0.47159 0.271613 0.357911
v -0.253394 0.376802 0.344891
v -0.0345 0.490136 0.26592899999999997
v -0.588047 -0.02595199999999999 0.196335
v -0.372697 0.07439100000000001 0.312838
v -0.152929 0.16952900000000004 0.290914
v 0.065658 0.279282 0.24094399999999996
v -0.487888 -0.236805 0.17135000000000003
v -0.269987 -0.135061 0.18622
v -0.052085 -0.033315999999999985 0.20109
v 0.165817 0.06842800000000002 0.215959
v -0.132863 -1.287178 -0.004931999999999921
v -0.160585 -1.291 0.3151050000000001
v -1.003553 -1.394738 0.21000200000000008
v -1.020229 -1.393966 -0.004931999999999915
v -0.121704 -1.368116 -0.004931999999999916
v -1.024006 -1.475582 -0.0049319999999999095
v -1.007331 -1.476354 0.21000200000000008
v -0.149426 -1.371938 0.3089710000000001
v -0.575845 -1.387988 0.2548080000000001
v -0.576362 -1.38811 -0.004932999999999915
v -0.558192 -1.467768 -0.0049319999999999095
v -0.557675 -1.467645 0.2537100000000001
v 1.619126 1.161303 -7.110930008951094E-17
v 1.917104 1.052848 -6.446834665943463E-17
v 1.805795 0.747028 -4.574227245367245E-17
v 1.507817 0.855483 0.12265299999999994
v 1.694486 0.441208 -2.701619824791027E-17
v 1.396507 0.549663 0.09454999999999997
v 1.583176 0.135388 -8.290124042148093E-18
v 1.285197 0.243843 -1.4931077472224402E-17
v 1.321147 1.269759 -7.77503147519272E-17
v 1.221792 0.95474 0.10105999999999994
v 1.098528 0.658118 0.06533599999999996
v 0.987219 0.352299 -2.157209213464067E-17
v 1.023169 1.378214 -8.439126818200352E-17
v 0.91186 1.072394 -6.566519397624134E-17
v 0.80055 0.766574 -4.6939119770479154E-17
v 0.689241 0.460754 -2.821304556471698E-17
v -1.361189 1.388129 -8.499838683268081E-17
v -0.834785 1.529176 0.027561999999999906
v -0.099662 1.354292 0.021815999999999915
v 0.48401 1.068646 0.013305999999999934
v 1.14562 0.951986 -0.002329000000000058
v -1.517193 0.948402 -5.80728736802474E-17
v -0.89687 0.978607 0.12664099999999995
v -0.188617 0.843652 0.23068099999999994
v 0.404597 0.618273 0.14242699999999997
v 1.066207 0.501613 0.0037909999999999693
v -1.615347 0.508917 0.0015759999999999687
v -0.998035 0.401219 0.21534699999999998
v -0.336425 0.284559 0.327819
v 0.325184 0.1679 0.13059
v 0.986794 0.05124 -0.002794000000000003
v -1.668971 0.060727 0.004859999999999996
v -1.077448 -0.04915399999999999 0.21061
v -0.415838 -0.16581399999999996 0.236377
v 0.245771 -0.282474 0.17545400000000003
v 0.907381 -0.399133 0.006094000000000024
v -1.607014 -0.444434 -0.0033249999999999725
v -1.156861 -0.499527 0.003758000000000031
v -0.495251 -0.616187 0.011241000000000037
v 0.166359 -0.732846 -0.008040999999999954
v 0.827968 -0.849506 -0.004314999999999948
v -1.430324 -1.03902 6.362162586250415E-17
v -1.491086 -0.812253 4.9736151827391756E-17
v -1.258352 -0.749891 4.5917580642970393E-17
v -1.19759 -0.976659 0.12265300000000005
v -1.025618 -0.68753 4.209907069088899E-17
v -0.964856 -0.914297 0.09455000000000005
v -0.792883 -0.62517 3.828062197114754E-17
v -0.732122 -0.851937 5.216609600625994E-17
v -1.369563 -1.265786 7.750703866527659E-17
v -1.136326 -1.19227 0.10106000000000007
v -0.904094 -1.141065 0.06533600000000007
v -0.671359 -1.078703 6.605150880903237E-17
v -1.308801 -1.492553 9.139251270038897E-17
v -1.076066 -1.430193 8.757406398064753E-17
v -0.843332 -1.367831 8.375549279622617E-17
v -0.610597 -1.30547 7.993698284414476E-17
v 1.332406 -1.39646 0.6475780000000001
v 1.393086 -1.399453 8.569178185035805E-17
v 1.363163 -1.388219 0.6475780000000001
v 1.332406 -1.39646 0.6475780000000001
v 1.340647 -1.365703 0.6475780000000001
v 1.466496 1.087743 0.3818309999999999
v 1.472273 1.08973 -6.672671782174227E-17
v 1.497253 1.095984 0.3818309999999999
v 1.466496 1.087743 0.3818309999999999
v 1.474737 1.1185 0.3818309999999999
v 1.285122 0.432619 0.23046399999999997
v 1.361174 0.415776 -0.012207000000000027
v 1.315879 0.44086 0.23046399999999997
v 1.285122 0.432619 0.23046399999999997
v 1.293363 0.463376 0.23046399999999997
v 1.43631 1.162372 0.3217229999999999
v 1.391277 0.540402 0.16335799999999998
v 1.465594 1.165803 0.3096979999999999
v 1.43631 1.162372 0.3217229999999999
v 1.440268 1.175281 0.29288499999999995
v 1.43631 1.162372 0.1931829999999999
v 1.461552 0.521572 0.022610999999999968
v 1.465594 1.165803 0.18115799999999993
v 1.43631 1.162372 0.1931829999999999
v 1.440268 1.175281 0.1643449999999999
v 0.869491 0.997198 0.42821799999999993
v 0.826545 1.040949 -6.37397430462819E-17
v 0.890542 1.002838 0.42821799999999993
v 0.869491 0.997198 0.42821799999999993
v 0.875132 1.018248 0.42821799999999993
v 0.875034 0.985603 0.42821799999999993
v 1.092849 0.824134 -5.046365325842524E-17
v 0.896084 0.991243 0.42821799999999993
v 0.875034 0.985603 0.42821799999999993
v 0.880674 1.006653 0.42821799999999993
v 1.08701 1.377101 0.31392199999999987
v 1.143307 1.50413 -9.210139950007541E-17
v 1.09622 1.35735 0.3139219999999999
v 1.08701 1.377101 0.31392199999999987
v 1.10872 1.375201 0.31392199999999987
v 1.007069 1.131108 0.3139219999999999
v 1.263115 1.296618 -7.939495417084215E-17
v 1.016279 1.111357 0.3139219999999999
v 1.007069 1.131108 0.3139219999999999
v 1.028779 1.129209 0.3139219999999999
v -0.424545 0.31380100000000005 0.56642
v -0.464428 0.246178 -0.007960000000000016
v -0.438498 0.33797000000000005 0.56642
v -0.424545 0.31380100000000005 0.56642
v -0.452452 0.31380100000000005 0.56642
v -0.378999 0.046869000000000036 0.56642
v -0.251461 0.369813 -0.007959000000000023
v -0.392952 0.07103700000000003 0.56642
v -0.378999 0.046869000000000036 0.56642
v -0.406906 0.046869000000000036 0.56642
v -0.195076 0.513741 0.43540499999999993
v -0.370856 0.541278 0.014331999999999966
v -0.173697 0.53168 0.43540499999999993
v -0.195076 0.513741 0.43540499999999993
v -0.199922 0.541224 0.43540499999999993
v -0.140639 0.18381500000000003 0.435405
v -0.430219 0.445676 0.014331999999999971
v -0.11926 0.20175300000000002 0.435405
v -0.140639 0.18381500000000003 0.435405
v -0.145485 0.21129800000000004 0.435405
v 0.142045 0.16191300000000003 0.435405
v -0.033735 0.18945 0.014331999999999987
v 0.163424 0.17985200000000004 0.435405
v 0.142045 0.16191300000000003 0.435405
v 0.137199 0.18939600000000004 0.435405
v 0.110629 -0.531174 0.526949
v 0.093304 -0.878993 0.007960000000000054
v 0.140834 -0.524993 0.518988
v 0.110629 -0.531174 0.526949
v 0.117766 -0.504538 0.511028
v 1.390653 -0.41002099999999997 0.780842
v 0.763147 -0.025541 0.006125000000000002
v 0.788594 -0.08814399999999996 0.780842
v 1.443216 -0.392061 0.0061250000000000245
v 0.896873 -1.265772 0.7771790000000001
v 0.232387 -0.955629 0.006125000000000058
v 0.294814 -0.943894 0.7771790000000001
v 0.912457 -1.322149 0.006125000000000081
v -0.575845 -1.387988 0.2548080000000001
v -0.557675 -1.467645 0.2537100000000001
v -1.003553 -1.394738 0.21000200000000008
v -1.007331 -1.476354 0.21000200000000008
v -0.160585 -1.291 0.3151050000000001
v -0.149426 -1.371938 0.3089710000000001
v -0.121704 -1.368116 -0.004931999999999916
v -0.149426 -1.371938 0.3089710000000001
v -0.160585 -1.291 0.3151050000000001
v -0.160585 -1.291 0.3151050000000001
v -0.132863 -1.287178 -0.004931999999999921
v -0.121704 -1.368116 -0.004931999999999916
v -1.003553 -1.394738 0.21000200000000008
v -1.007331 -1.476354 0.21000200000000008
v -1.024006 -1.475582 -0.0049319999999999095
v -1.020229 -1.393966 -0.004931999999999915
v 1.363163 -1.388219 0.6475780000000001
v 1.340647 -1.365703 0.6475780000000001
v 1.401327 -1.368696 8.380845877028929E-17
v 1.401327 -1.368696 8.380845877028929E-17
v 1.423843 -1.391212 8.518716613676937E-17
v 1.363163 -1.388219 0.6475780000000001
v 1.497253 1.095984 0.3818309999999999
v 1.474737 1.1185 0.3818309999999999
v 1.480514 1.120487 -6.861004090181102E-17
v 1.480514 1.120487 -6.861004090181102E-17
v 1.50303 1.097971 -6.723133353533093E-17
v 1.497253 1.095984 0.3818309999999999
v 1.315879 0.44086 0.23046399999999997
v 1.293363 0.463376 0.23046399999999997
v 1.369415 0.446533 -2.7342260458183255E-17
v 1.369415 0.446533 -2.7342260458183255E-17
v 1.391931 0.424017 -2.5963553091703163E-17
v 1.315879 0.44086 0.23046399999999997
v 1.465594 1.165803 0.3096979999999999
v 1.440268 1.175281 0.29288499999999995
v 1.395235 0.553311 0.13451999999999997
v 1.395235 0.553311 0.13451999999999997
v 1.420561 0.543833 0.15133299999999997
v 1.465594 1.165803 0.3096979999999999
v 1.465594 1.165803 0.18115799999999993
v 1.440268 1.175281 0.1643449999999999
v 1.46551 0.534481 -0.006227000000000033
v 1.46551 0.534481 -0.006227000000000033
v 1.490836 0.525003 0.010585999999999967
v 1.465594 1.165803 0.18115799999999993
v 0.890542 1.002838 0.42821799999999993
v 0.875132 1.018248 0.42821799999999993
v 0.832185 1.062 -6.502874503472446E-17
v 0.832185 1.062 -6.502874503472446E-17
v 0.847595 1.04659 -6.408515467598142E-17
v 0.890542 1.002838 0.42821799999999993
v 0.896084 0.991243 0.42821799999999993
v 0.880674 1.006653 0.42821799999999993
v 1.09849 0.845184 -5.175259401452783E-17
v 1.09849 0.845184 -5.175259401452783E-17
v 1.1139 0.829774 -5.0809003655784796E-17
v 0.896084 0.991243 0.42821799999999993
v 1.09622 1.35735 0.3139219999999999
v 1.10872 1.375201 0.31392199999999987
v 1.165018 1.502231 -9.198511928649638E-17
v 1.165018 1.502231 -9.198511928649638E-17
v 1.152518 1.484379 -9.089199955357744E-17
v 1.09622 1.35735 0.3139219999999999
v 1.016279 1.111357 0.3139219999999999
v 1.028779 1.129209 0.3139219999999999
v 1.284826 1.294718 -7.927861272492315E-17
v 1.284826 1.294718 -7.927861272492315E-17
v 1.272326 1.276866 -7.818549299200422E-17
v 1.016279 1.111357 0.3139219999999999
v -0.438498 0.33797000000000005 0.56642
v -0.452452 0.31380100000000005 0.56642
v -0.492336 0.246178 -0.007960000000000016
v -0.492336 0.246178 -0.007960000000000016
v -0.478382 0.270346 -0.007960000000000017
v -0.438498 0.33797000000000005 0.56642
v -0.392952 0.07103700000000003 0.56642
v -0.406906 0.046869000000000036 0.56642
v -0.279369 0.369813 -0.007959000000000023
v -0.279369 0.369813 -0.007959000000000023
v -0.265415 0.393981 -0.007959000000000025
v -0.392952 0.07103700000000003 0.56642
v -0.173697 0.53168 0.43540499999999993
v -0.199922 0.541224 0.43540499999999993
v -0.375702 0.568761 0.014331999999999965
v -0.375702 0.568761 0.014331999999999965
v -0.349478 0.559216 0.014331999999999965
v -0.173697 0.53168 0.43540499999999993
v -0.11926 0.20175300000000002 0.435405
v -0.145485 0.21129800000000004 0.435405
v -0.435065 0.47316 0.01433199999999997
v -0.435065 0.47316 0.01433199999999997
v -0.408841 0.463615 0.014331999999999971
v -0.11926 0.20175300000000002 0.435405
v 0.163424 0.17985200000000004 0.435405
v 0.137199 0.18939600000000004 0.435405
v -0.038581 0.216933 0.014331999999999985
v -0.038581 0.216933 0.014331999999999985
v -0.012357 0.207389 0.014331999999999987
v 0.163424 0.17985200000000004 0.435405
v 0.436 -0.726495 0.533203
v 0.140834 -0.524993 0.518988
v 0.117766 -0.504538 0.511028
v 0.100442 -0.852357 -0.007959999999999948
v 0.100442 -0.852357 -0.007959999999999948
v 0.123509 -0.872812 5.344432110286998E-17
v 0.140834 -0.524993 0.518988
v 1.089312 1.313534 0.11993399999999992
v 0.955065 1.153071 0.42419399999999996
vt 0.680433 0.544353
vt 0.680321 0.371367
vt 0.482305 0.544352
vt 0.482425 0.371367
vt 0.692556 0.359234
vt 0.691517 0.556178
vt 0.466064 0.556445
vt 0.463000 0.354666
vt 0.465278 0.607287
vt 0.465278 0.622222
vt 0.465278 0.592352
vt 0.697047 0.607287
vt 0.697047 0.622222
vt 0.697047 0.592352
vt 0.465278 0.607287
vt 0.465278 0.622222
vt 0.697047 0.622222
vt 0.697047 0.607287
vt 0.465278 0.592352
vt 0.697047 0.592352
vt 0.465278 0.607287
vt 0.465278 0.622222
vt 0.697047 0.622222
vt 0.697047 0.607287
vt 0.465278 0.592352
vt 0.697047 0.592352
vt 0.465278 0.607287
vt 0.465278 0.622222
vt 0.697047 0.622222
vt 0.697047 0.607287
vt 0.465278 0.592352
vt 0.697047 0.592352
vt 0.465278 0.607287
vt 0.465278 0.622222
vt 0.697047 0.622222
vt 0.697047 0.607287
vt 0.465278 0.592352
vt 0.697047 0.592352
vt 0.465278 0.607287
vt 0.465278 0.622222
vt 0.697047 0.622222
vt 0.697047 0.607287
vt 0.465278 0.592352
vt 0.697047 0.592352
vt 0.465278 0.607287
vt 0.465278 0.622222
vt 0.697047 0.622222
vt 0.697047 0.607287
vt 0.465278 0.592352
vt 0.697047 0.592352
vt 0.465278 0.607287
vt 0.465278 0.622222
vt 0.697047 0.622222
vt 0.697047 0.607287
vt 0.465278 0.592352
vt 0.697047 0.592352
vt 0.465278 0.607287
vt 0.465278 0.622222
vt 0.697047 0.622222
vt 0.697047 0.607287
vt 0.465278 0.592352
vt 0.697047 0.592352
vt 0.465278 0.607287
vt 0.465278 0.622222
vt 0.697047 0.622222
vt 0.697047 0.607287
vt 0.465278 0.592352
vt 0.697047 0.592352
vt 0.465278 0.607287
vt 0.465278 0.622222
vt 0.697047 0.622222
vt 0.697047 0.607287
vt 0.465278 0.592352
vt 0.697047 0.592352
vt 0.465278 0.607287
vt 0.465278 0.622222
vt 0.697047 0.622222
vt 0.697047 0.607287
vt 0.465278 0.592352
vt 0.697047 0.592352
vt 0.465278 0.607287
vt 0.465278 0.622222
vt 0.697047 0.622222
vt 0.697047 0.607287
vt 0.465278 0.592352
vt 0.697047 0.592352
vt 0.465278 0.607287
vt 0.465278 0.622222
vt 0.697047 0.622222
vt 0.697047 0.607287
vt 0.465278 0.592352
vt 0.697047 0.592352
vt 0.771333 0.434223
vt 0.828407 0.434223
vt 0.885482 0.434223
vt 0.942556 0.434223
vt 0.771333 0.388722
vt 0.828407 0.388722
vt 0.885482 0.388722
vt 0.942556 0.388722
vt 0.771333 0.343222
vt 0.828407 0.343222
vt 0.885482 0.343222
vt 0.942556 0.343222
vt 0.771333 0.297722
vt 0.828407 0.297722
vt 0.885482 0.297722
vt 0.942556 0.297722
vt 0.466667 0.990278
vt 0.597569 0.990278
vt 0.728472 0.990278
vt 0.859375 0.990278
vt 0.990278 0.990278
vt 0.466667 0.900000
vt 0.597569 0.900000
vt 0.728472 0.900000
vt 0.859375 0.900000
vt 0.990278 0.900000
vt 0.466667 0.809722
vt 0.597569 0.809722
vt 0.728472 0.809722
vt 0.859375 0.809722
vt 0.990278 0.809722
vt 0.466667 0.719444
vt 0.597569 0.719444
vt 0.728472 0.719444
vt 0.859375 0.719444
vt 0.990278 0.719444
vt 0.466667 0.629167
vt 0.597569 0.629167
vt 0.728472 0.629167
vt 0.859375 0.629167
vt 0.990278 0.629167
vt 0.771333 0.434223
vt 0.828407 0.434223
vt 0.885482 0.434223
vt 0.942556 0.434223
vt 0.771333 0.388722
vt 0.828407 0.388722
vt 0.885482 0.388722
vt 0.942556 0.388722
vt 0.771333 0.343222
vt 0.828407 0.343222
vt 0.885482 0.343222
vt 0.942556 0.343222
vt 0.771333 0.297722
vt 0.828407 0.297722
vt 0.885482 0.297722
vt 0.942556 0.297722
vt 0.006944 0.813889
vt 0.006944 0.899397
vt 0.055872 0.903078
vt 0.062036 0.813889
vt 0.119444 0.995833
vt 0.187480 0.995833
vt 0.165351 0.901906
vt 0.119444 0.904861
vt 0.231944 0.995833
vt 0.231944 0.904322
vt 0.049461 0.995833
vt 0.006944 0.995833
vt 0.144614 0.813889
vt 0.119444 0.813889
vt 0.231944 0.813889
vt 0.465278 0.607287
vt 0.465278 0.622222
vt 0.465278 0.592352
vt 0.697047 0.607287
vt 0.697047 0.622222
vt 0.697047 0.592352
vt 0.445233 0.580860
vt 0.445913 0.368555
vt 0.011235 0.580860
vt 0.010554 0.368555
vt 0.445233 0.580860
vt 0.445913 0.368555
vt 0.011235 0.580860
vt 0.010554 0.368555
vt 0.376801 0.339194
vt 0.377858 0.000500
vt 0.033833 0.339194
vt 0.032776 0.000499
vt 0.376801 0.339194
vt 0.377858 0.000500
vt 0.033833 0.339194
vt 0.032776 0.000499
vt 0.445233 0.580860
vt 0.445913 0.368555
vt 0.011235 0.580860
vt 0.010554 0.368555
vt 0.445233 0.580860
vt 0.445913 0.368555
vt 0.011235 0.580860
vt 0.010554 0.368555
vt 0.445233 0.580860
vt 0.445913 0.368555
vt 0.011235 0.580860
vt 0.010554 0.368555
vt 0.445233 0.580860
vt 0.445913 0.368555
vt 0.011235 0.580860
vt 0.010554 0.368555
vt 0.006944 0.813889
vt 0.006944 0.899397
vt 0.055872 0.903078
vt 0.062036 0.813889
vt 0.119444 0.995833
vt 0.187480 0.995833
vt 0.165351 0.901906
vt 0.119444 0.904861
vt 0.231944 0.995833
vt 0.231944 0.904322
vt 0.049461 0.995833
vt 0.006944 0.995833
vt 0.144614 0.813889
vt 0.119444 0.813889
vt 0.231944 0.813889
vt 0.006944 0.813889
vt 0.006944 0.899397
vt 0.055872 0.903078
vt 0.062036 0.813889
vt 0.119444 0.995833
vt 0.187480 0.995833
vt 0.165351 0.901906
vt 0.119444 0.904861
vt 0.231944 0.995833
vt 0.231944 0.904322
vt 0.049461 0.995833
vt 0.006944 0.995833
vt 0.144614 0.813889
vt 0.119444 0.813889
vt 0.231944 0.813889
vt 0.771333 0.434223
vt 0.828407 0.434223
vt 0.885482 0.434223
vt 0.942556 0.434223
vt 0.771333 0.388722
vt 0.828407 0.388722
vt 0.885482 0.388722
vt 0.942556 0.388722
vt 0.771333 0.343222
vt 0.828407 0.343222
vt 0.885482 0.343222
vt 0.942556 0.343222
vt 0.771333 0.297722
vt 0.828407 0.297722
vt 0.885482 0.297722
vt 0.942556 0.297722
vt 0.403102 0.585185
vt 0.391995 0.490535
vt 0.050129 0.487340
vt 0.043503 0.585185
vt 0.399530 0.369513
vt 0.043587 0.369513
vt 0.050145 0.465636
vt 0.388536 0.460715
vt 0.223466 0.487554
vt 0.223256 0.585185
vt 0.224310 0.369513
vt 0.224518 0.465106
vt 0.771333 0.388722
vt 0.771333 0.434223
vt 0.828407 0.434223
vt 0.828407 0.388722
vt 0.885482 0.434223
vt 0.885482 0.388722
vt 0.942556 0.434223
vt 0.942556 0.388722
vt 0.771333 0.343222
vt 0.828407 0.343222
vt 0.885482 0.343222
vt 0.942556 0.343222
vt 0.771333 0.297722
vt 0.828407 0.297722
vt 0.885482 0.297722
vt 0.942556 0.297722
vt 0.466667 0.990278
vt 0.597569 0.990278
vt 0.728472 0.990278
vt 0.859375 0.990278
vt 0.990278 0.990278
vt 0.466667 0.900000
vt 0.597569 0.900000
vt 0.728472 0.900000
vt 0.859375 0.900000
vt 0.990278 0.900000
vt 0.466667 0.809722
vt 0.597569 0.809722
vt 0.728472 0.809722
vt 0.859375 0.809722
vt 0.990278 0.809722
vt 0.466667 0.719444
vt 0.597569 0.719444
vt 0.728472 0.719444
vt 0.859375 0.719444
vt 0.990278 0.719444
vt 0.466667 0.629167
vt 0.597569 0.629167
vt 0.728472 0.629167
vt 0.859375 0.629167
vt 0.990278 0.629167
vt 0.771333 0.388722
vt 0.771333 0.434223
vt 0.828407 0.434223
vt 0.828407 0.388722
vt 0.885482 0.434223
vt 0.885482 0.388722
vt 0.942556 0.434223
vt 0.942556 0.388722
vt 0.771333 0.343222
vt 0.828407 0.343222
vt 0.885482 0.343222
vt 0.942556 0.343222
vt 0.771333 0.297722
vt 0.828407 0.297722
vt 0.885482 0.297722
vt 0.942556 0.297722
vt 0.697047 0.577417
vt 0.465278 0.577417
vt 0.527816 0.578120
vt 0.516017 0.595421
vt 0.539615 0.595421
vt 0.697047 0.577417
vt 0.465278 0.577417
vt 0.527816 0.578120
vt 0.516017 0.595421
vt 0.539615 0.595421
vt 0.697047 0.577417
vt 0.465278 0.577417
vt 0.527816 0.578120
vt 0.516017 0.595421
vt 0.539615 0.595421
vt 0.697047 0.577417
vt 0.465278 0.577417
vt 0.527816 0.578120
vt 0.516017 0.595421
vt 0.539615 0.595421
vt 0.697047 0.577417
vt 0.465278 0.577417
vt 0.527816 0.578120
vt 0.516017 0.595421
vt 0.539615 0.595421
vt 0.697047 0.577417
vt 0.465278 0.577417
vt 0.527816 0.578120
vt 0.516017 0.595421
vt 0.539615 0.595421
vt 0.697047 0.577417
vt 0.465278 0.577417
vt 0.527816 0.578120
vt 0.516017 0.595421
vt 0.539615 0.595421
vt 0.697047 0.577417
vt 0.465278 0.577417
vt 0.527816 0.578120
vt 0.516017 0.595421
vt 0.539615 0.595421
vt 0.697047 0.577417
vt 0.465278 0.577417
vt 0.527816 0.578120
vt 0.516017 0.595421
vt 0.539615 0.595421
vt 0.697047 0.577417
vt 0.465278 0.577417
vt 0.527816 0.578120
vt 0.516017 0.595421
vt 0.539615 0.595421
vt 0.697047 0.577417
vt 0.465278 0.577417
vt 0.527816 0.578120
vt 0.516017 0.595421
vt 0.539615 0.595421
vt 0.697047 0.577417
vt 0.465278 0.577417
vt 0.527816 0.578120
vt 0.516017 0.595421
vt 0.539615 0.595421
vt 0.697047 0.577417
vt 0.465278 0.577417
vt 0.527816 0.578120
vt 0.516017 0.595421
vt 0.539615 0.595421
vt 0.697047 0.577417
vt 0.465278 0.577417
vt 0.527816 0.578120
vt 0.516017 0.595421
vt 0.539615 0.595421
vt 0.697047 0.577417
vt 0.465278 0.577417
vt 0.527816 0.578120
vt 0.516017 0.595421
vt 0.539615 0.595421
vt 0.445913 0.368555
vt 0.011235 0.580860
vt 0.010554 0.368555
vt 0.445233 0.580860
vt 0.445913 0.368555
vt 0.011235 0.580860
vt 0.010554 0.368555
vt 0.445233 0.580860
vt 0.223466 0.487554
vt 0.224518 0.465106
vt 0.050129 0.487340
vt 0.050145 0.465636
vt 0.391995 0.490535
vt 0.388536 0.460715
vt 0.039717 0.527813
vt 0.039717 0.422183
vt 0.015910 0.420135
vt 0.015910 0.420135
vt 0.015910 0.527813
vt 0.039717 0.527813
vt 0.405991 0.525954
vt 0.435130 0.525954
vt 0.435130 0.416417
vt 0.405991 0.416417
vt 0.697047 0.607287
vt 0.697047 0.592352
vt 0.465278 0.592352
vt 0.465278 0.592352
vt 0.465278 0.607287
vt 0.697047 0.607287
vt 0.697047 0.607287
vt 0.697047 0.592352
vt 0.465278 0.592352
vt 0.465278 0.592352
vt 0.465278 0.607287
vt 0.697047 0.607287
vt 0.697047 0.607287
vt 0.697047 0.592352
vt 0.465278 0.592352
vt 0.465278 0.592352
vt 0.465278 0.607287
vt 0.697047 0.607287
vt 0.697047 0.607287
vt 0.697047 0.592352
vt 0.465278 0.592352
vt 0.465278 0.592352
vt 0.465278 0.607287
vt 0.697047 0.607287
vt 0.697047 0.607287
vt 0.697047 0.592352
vt 0.465278 0.592352
vt 0.465278 0.592352
vt 0.465278 0.607287
vt 0.697047 0.607287
vt 0.697047 0.607287
vt 0.697047 0.592352
vt 0.465278 0.592352
vt 0.465278 0.592352
vt 0.465278 0.607287
vt 0.697047 0.607287
vt 0.697047 0.607287
vt 0.697047 0.592352
vt 0.465278 0.592352
vt 0.465278 0.592352
vt 0.465278 0.607287
vt 0.697047 0.607287
vt 0.697047 0.607287
vt 0.697047 0.592352
vt 0.465278 0.592352
vt 0.465278 0.592352
vt 0.465278 0.607287
vt 0.697047 0.607287
vt 0.697047 0.607287
vt 0.697047 0.592352
vt 0.465278 0.592352
vt 0.465278 0.592352
vt 0.465278 0.607287
vt 0.697047 0.607287
vt 0.697047 0.607287
vt 0.697047 0.592352
vt 0.465278 0.592352
vt 0.465278 0.592352
vt 0.465278 0.607287
vt 0.697047 0.607287
vt 0.697047 0.607287
vt 0.697047 0.592352
vt 0.465278 0.592352
vt 0.465278 0.592352
vt 0.465278 0.607287
vt 0.697047 0.607287
vt 0.697047 0.607287
vt 0.697047 0.592352
vt 0.465278 0.592352
vt 0.465278 0.592352
vt 0.465278 0.607287
vt 0.697047 0.607287
vt 0.697047 0.607287
vt 0.697047 0.592352
vt 0.465278 0.592352
vt 0.465278 0.592352
vt 0.465278 0.607287
vt 0.697047 0.607287
vt 0.697047 0.607287
vt 0.697047 0.592352
vt 0.465278 0.592352
vt 0.465278 0.592352
vt 0.465278 0.607287
vt 0.697047 0.607287
vt 0.119444 0.813889
vt 0.697047 0.607287
vt 0.697047 0.592352
vt 0.465278 0.592352
vt 0.465278 0.592352
vt 0.465278 0.607287
vt 0.697047 0.607287
vt 0.119444 0.904861
vt 0.119444 0.813889
vn -0.262782 -0.15750899999999995 0.951912
vn -0.16177 0.21477900000000005 0.963172
vn 0.103049 -0.17437399999999995 0.979273
vn 0.199833 0.15698200000000007 0.967173
vn -0.017894 0.36831400000000003 0.929529
vn -0.433512 0.04003000000000006 0.900258
vn -0.026598 -0.38675499999999996 0.921799
vn 0.30944 -0.01914199999999994 0.950726
vn 0.680825 -0.72936 0.06716700000000005
vn -0.970097 -0.22547 -0.08985899999999998
vn 0.186467 0.982376 0.012930999999999939
vn 0.970795 0.222413 0.08993799999999999
vn -0.292852 -0.955881 -0.023021999999999942
vn -0.750031 0.657326 -0.07331900000000004
vn 0.683201 -0.730202 0.006537000000000045
vn -0.974798 -0.222522 -0.015905999999999986
vn -0.297183 -0.954774 -0.009463999999999941
vn 0.974331 0.224557 0.015908999999999986
vn 0.183214 0.983041 0.00788699999999994
vn -0.753745 0.657118 -0.00798500000000004
vn 0.639934 -0.723096 0.26003300000000007
vn -0.937895 -0.19030000000000002 -0.290069
vn -0.281664 -0.959359 -0.017214999999999942
vn 0.932448 0.21255400000000002 0.292168
vn 0.231538 0.972811 0.00530799999999994
vn -0.660619 0.704149 -0.26030100000000006
vn 0.807387 -0.19981199999999996 0.555158
vn -0.958689 -0.0030109999999999824 0.284441
vn -0.280665 -0.21769399999999994 0.934792
vn 0.90551 0.04194899999999997 -0.422246
vn -0.042313 0.24939999999999996 -0.967476
vn -0.865741 0.18144799999999997 -0.466443
vn 0.81149 -0.12025599999999996 0.571859
vn -0.963977 -0.10322399999999998 0.245138
vn -0.275253 -0.25740299999999994 0.926272
vn 0.909366 0.14008599999999996 -0.391702
vn -0.015692 0.25661999999999996 -0.966385
vn -0.852828 0.10269199999999998 -0.511995
vn 0.68154 -0.717929 -0.14170499999999994
vn -0.972031 -0.222644 0.07473900000000001
vn -0.295714 -0.952875 -0.06769899999999994
vn 0.969976 0.231796 -0.07359800000000001
vn 0.191877 0.978096 0.08068999999999994
vn -0.741322 0.656089 0.14138199999999998
vn 0.636537 -0.556749 0.533714
vn -0.897889 -0.24967300000000003 -0.362573
vn -0.24306 -0.941968 0.23155600000000007
vn 0.891674 0.29712 0.341521
vn 0.318162 0.929107 -0.18850500000000006
vn -0.5535 0.646332 -0.525255
vn -0.438117 -0.803221 -0.40359599999999995
vn -0.436993 0.858314 0.26895099999999994
vn -0.986429 0.053933999999999996 -0.155078
vn 0.489313 -0.835417 -0.25030199999999997
vn 0.97437 -0.205454 0.09160400000000002
vn 0.637974 0.667244 0.38441499999999995
vn -0.237016 -0.766206 -0.597287
vn -0.309271 0.921799 0.23374699999999995
vn -0.807189 0.18645199999999998 -0.560072
vn 0.595886 -0.800517 0.06397200000000006
vn 0.805181 -0.16555699999999998 0.569451
vn 0.498635 0.529819 0.686043
vn 0.428477 0.89342 -0.13493800000000006
vn 0.498757 -0.86414 0.06710500000000005
vn 0.997599 -0.00012900000000000422 -0.069256
vn -0.556295 0.828891 -0.05896000000000005
vn -0.995859 0.067192 0.061238999999999995
vn -0.559341 -0.81785 0.13512700000000005
vn 0.29764 0.802414 0.517246
vn 0.49474 -0.799833 -0.33985099999999996
vn 0.972387 0.028044000000000013 0.231681
vn -0.581046 0.757737 0.2970189999999999
vn -0.979635 0.150505 -0.132901
vn -0.580052 -0.648245 -0.49327199999999993
vn 0.861464 -0.335123 -0.38154
vn -0.710076 -0.656922 0.2534660000000001
vn 0.214891 -0.964612 -0.15278999999999995
vn 0.750627 0.601218 -0.27403700000000003
vn -0.149127 0.980707 0.12638899999999995
vn -0.860632 0.337472 0.381347
vn 0.776481 -0.13208500000000004 -0.616143
vn -0.811031 -0.541701 0.22088400000000002
vn 0.033488 -0.838217 -0.544308
vn 0.670471 0.741936 0.00030699999999995455
vn -0.112712 0.807157 0.579478
vn -0.698018 0.2846600000000001 0.657069
vn 0.861465 -0.33512 -0.38154
vn -0.710078 -0.65692 0.2534680000000001
vn 0.214894 -0.964612 -0.15279099999999995
vn 0.750626 0.601219 -0.27403700000000003
vn -0.149128 0.980707 0.12638999999999995
vn -0.860631 0.337475 0.381347
vn -0.170466 0.29715500000000006 0.939489
vn 0.145577 0.40995100000000007 0.900415
vn 0.181219 0.21202200000000004 0.960316
vn 0 6.123233995736766E-17 1
vn -0.423504 0.08142500000000005 0.902228
vn -0.069351 0.13454300000000005 0.988478
vn 0.242531 0.10694000000000005 0.964232
vn 0.269526 0.055063000000000056 0.961418
vn -0.276646 -0.054076999999999945 0.959449
vn -0.20898 -0.15757799999999994 0.965141
vn 0.110595 -0.18085799999999994 0.977271
vn 0.276428 -0.11520999999999995 0.954104
vn 0 6.123233995736766E-17 1
vn -0.183016 -0.21521299999999993 0.959265
vn -0.036726 -0.3071789999999999 0.950943
vn 0.093731 -0.16607699999999995 0.981648
vn -0.165187 0.038614000000000065 0.985506
vn -0.216005 0.19758700000000007 0.956191
vn -0.201441 0.31303200000000003 0.928134
vn -0.080247 0.19130200000000006 0.978245
vn 0.005734 0.031883000000000064 0.999475
vn -0.242082 -0.04974899999999994 0.96898
vn -0.225087 0.05723400000000006 0.972656
vn -0.128251 0.21953300000000006 0.967139
vn -0.00592 0.22268300000000005 0.974873
vn 0.026144 0.18015700000000007 0.98329
vn -0.260421 -0.13312999999999994 0.956272
vn -0.181773 -0.07730699999999995 0.980297
vn -0.019229 0.06519900000000005 0.997687
vn 0.106454 0.20334000000000005 0.973304
vn 0.128211 0.15853700000000007 0.978993
vn -0.092297 -0.21182199999999995 0.97294
vn -0.010472 -0.26178799999999997 0.965069
vn 0.177465 -0.21777399999999994 0.959729
vn 0.196576 0.02128300000000006 0.980258
vn 0.106065 0.19021600000000005 0.975996
vn 0.00037 -0.01948399999999994 0.99981
vn 0.074812 -0.29129499999999997 0.953704
vn 0.265181 -0.34080699999999997 0.901959
vn 0.30767 -0.25132799999999994 0.9177
vn 0.223672 -0.03529599999999994 0.974025
vn -0.313493 -0.13846199999999995 0.939442
vn -0.395802 0.18093600000000007 0.900335
vn -0.196124 0.19962000000000005 0.960046
vn 0 6.123233995736766E-17 1
vn -0.11798 -0.41475699999999993 0.902251
vn -0.142294 -0.05344699999999994 0.98838
vn -0.088058 0.25100100000000003 0.963973
vn -0.032589 0.27365200000000006 0.961277
vn 0.031085 -0.28058799999999995 0.959325
vn 0.140424 -0.22131399999999996 0.965039
vn 0.189999 0.09395900000000006 0.977278
vn 0.138865 0.26521300000000003 0.954138
vn 0 6.123233995736766E-17 1
vn 0.199184 -0.20169699999999993 0.958981
vn 0.302935 -0.06362699999999995 0.950885
vn 0.174072 0.07794700000000006 0.981643
vn -0.332823 -0.47089699999999995 0.816997
vn -0.31353 -0.23259799999999994 0.92065
vn -0.445292 -0.19242499999999996 0.874464
vn -0.499233 -0.27483799999999997 0.821724
vn -0.435993 0.32283100000000003 0.840054
vn -0.25613 0.562599 0.786053
vn -0.10917 0.4975760000000001 0.860523
vn -0.362177 0.24494800000000005 0.899349
vn -0.266604 0.32252200000000003 0.908241
vn -0.108413 0.46493700000000004 0.878681
vn -0.364392 -0.04143099999999995 0.930324
vn -0.087882 0.06410400000000005 0.994066
vn 0.068201 0.535713 0.841642
vn -0.385573 0.33293000000000006 0.860518
vn 0.131819 0.37387300000000007 0.918065
vn 0.729439 -0.579248 0.36385500000000004
vn -0.974492 -0.170026 0.146479
vn 0.123938 0.822375 -0.555283
vn 0.958024 0.222336 -0.180987
vn -0.297788 -0.788384 0.538305
vn -0.786772 0.524569 -0.32529600000000003
vn 0.473774 0.879079 0.05252499999999995
vn 0.473774 0.879079 0.05252499999999995
vn 0.473774 0.879079 0.05252499999999995
vn 0.470745 0.88051 0.05568899999999995
vn -0.473699 -0.878939 -0.055464999999999945
vn -0.47083 -0.880669 -0.05236199999999994
vn -0.473699 -0.878939 -0.055464999999999945
vn -0.473699 -0.878939 -0.055464999999999945
vn -0.865679 0.497786 0.05300199999999997
vn -0.865679 0.497786 0.05300199999999997
vn -0.865679 0.497786 0.05300199999999997
vn -0.86579 0.497557 0.05333999999999997
vn 0.865665 -0.497777 -0.05331399999999997
vn 0.865806 -0.497566 -0.052982999999999975
vn 0.865665 -0.497777 -0.05331399999999997
vn 0.865665 -0.497777 -0.05331399999999997
vn 0.473719 0.878976 -0.054693000000000054
vn 0.473719 0.878976 -0.054693000000000054
vn 0.473719 0.878976 -0.054693000000000054
vn 0.470851 0.880707 -0.05152500000000006
vn -0.473794 -0.879115 0.051739000000000056
vn -0.470767 -0.88055 0.054868000000000056
vn -0.473794 -0.879115 0.051739000000000056
vn -0.473794 -0.879115 0.051739000000000056
vn -0.868499 0.492791 -0.05354200000000003
vn -0.868499 0.492791 -0.05354200000000003
vn -0.868499 0.492791 -0.05354200000000003
vn -0.868686 0.49251 -0.05309500000000003
vn 0.868519 -0.492802 0.053117000000000025
vn 0.868664 -0.492498 0.05356000000000003
vn 0.868519 -0.492802 0.053117000000000025
vn 0.868519 -0.492802 0.053117000000000025
vn -0.356406 -0.29577599999999993 0.88628
vn -0.282707 -0.11225599999999994 0.952615
vn -0.376246 -0.05815199999999995 0.924693
vn -0.446005 -0.11208499999999995 0.887985
vn -0.27742 0.26836200000000004 0.922507
vn -0.057943 0.2755290000000001 0.959545
vn 0.016672 0.32046600000000003 0.947113
vn -0.221677 0.25823000000000007 0.940307
vn -0.058248 0.09193900000000006 0.99406
vn 0.052661 0.23521600000000006 0.970515
vn -0.281278 0.038471000000000054 0.958855
vn -0.050486 0.06258700000000006 0.996762
vn 0.164434 0.4036390000000001 0.900021
vn -0.221507 0.33367900000000006 0.916293
vn 0.172115 0.25129700000000005 0.952484
vn -0.745216 -0.08662999999999996 0.661173
vn -0.06669 0.03370500000000006 0.997204
vn -0.199112 0.32253800000000005 0.925377
vn -0.450382 0.639154 0.623408
vn 0.314348 0.3865160000000001 0.867059
vn 0.364423 0.25336200000000003 0.896105
vn 0.508765 0.22018300000000005 0.832272
vn 0.372797 0.517216 0.770396
vn 0.327742 0.2501840000000001 0.911039
vn 0.32583 0.22041000000000005 0.919377
vn 0.154148 0.35837800000000003 0.920763
vn 0.211245 0.20322500000000004 0.956073
vn 0.775488 0.15170000000000003 0.612866
vn 0.405388 0.722579 0.559946
vn 0.554427 0.08383600000000005 0.827999
vn -0.332071 0.0006580000000000577 0.943254
vn -0.163309 0.29363600000000006 0.941864
vn -0.00967 0.15721500000000005 0.987517
vn -0.010489 -0.12257399999999995 0.992404
vn -0.385233 -0.3200489999999999 0.865543
vn -0.149488 -0.06459399999999994 0.986651
vn 0.106002 0.11653600000000006 0.987514
vn 0.159315 0.09453700000000005 0.982691
vn -0.18603 -0.33698799999999995 0.922947
vn -0.066127 -0.37233799999999995 0.925738
vn 0.190779 -0.18702999999999995 0.963651
vn 0.275308 -0.02762399999999994 0.960959
vn -0.010489 -0.12257399999999995 0.992404
vn -0.01011 -0.39935899999999996 0.916739
vn 0.160432 -0.37327699999999997 0.913743
vn 0.16784 -0.18825599999999995 0.967672
vn -0.221902 0.97504 -0.00757600000000006
vn -0.224673 0.974427 -0.00379000000000006
vn -0.104261 0.004825000000000061 0.994538
vn -0.01474 0.999889 0.002205999999999939
vn 0.222571 -0.974886 0.00778500000000006
vn 0.018318 -0.999829 -0.0023449999999999387
vn -0.100154 -0.01538899999999994 0.994853
vn 0.225411 -0.974256 0.0038940000000000597
vn -0.087449 0.996168 0.001461999999999939
vn -0.156288 0.987708 -0.0027090000000000603
vn 0.157929 -0.987447 0.0027780000000000604
vn 0.090073 -0.995934 -0.0015539999999999391
vn 0.091227 0.32100700000000004 0.942673
vn 0.238161 0.10607200000000006 0.965416
vn 0.306574 -0.14025499999999994 0.941457
vn 0.107664 0.041263000000000064 0.993331
vn 0.148818 -0.15252199999999994 0.977031
vn 0.067541 -0.18976999999999994 0.979503
vn 0 6.123233995736766E-17 1
vn 0.025385 -0.20829299999999995 0.977737
vn -0.024212 0.21380400000000005 0.976576
vn -0.105049 0.16842700000000005 0.980101
vn -0.142189 -0.07036399999999994 0.987335
vn -0.104954 -0.20064299999999993 0.974026
vn 0 6.123233995736766E-17 1
vn -0.15124 0.15420200000000006 0.976396
vn -0.229436 0.048251000000000065 0.972127
vn -0.129883 -0.058320999999999935 0.989813
vn -0.152584 0.12996500000000005 0.979708
vn -0.038151 0.24856400000000006 0.967864
vn 0.164063 0.31483200000000006 0.93486
vn 0.13536 0.16527600000000006 0.976914
vn 0.025234 0.009135000000000061 0.99964
vn -0.241917 0.11009500000000005 0.964031
vn -0.143343 0.16725700000000004 0.975437
vn 0.097532 0.19065000000000004 0.976801
vn 0.194359 0.11103100000000006 0.974626
vn 0.155809 0.06436200000000006 0.985688
vn -0.318407 0.055146000000000056 0.946349
vn -0.204529 0.052838000000000065 0.977433
vn 0.036984 0.02269000000000006 0.999058
vn 0.227509 0.01001400000000006 0.973725
vn 0.193013 -0.04095299999999994 0.980341
vn -0.243708 -0.10777099999999995 0.963842
vn -0.213938 -0.18777799999999994 0.958629
vn -0.054827 -0.27707799999999994 0.959282
vn 0.134228 -0.15857299999999994 0.978181
vn 0.229731 -0.00940799999999994 0.973209
vn -0.017982 -0.01840199999999994 0.999669
vn -0.161378 -0.26227599999999995 0.951403
vn -0.08115 -0.42424799999999996 0.901903
vn -0.034347 -0.39570999999999995 0.917733
vn 0.084806 -0.22095299999999995 0.97159
vn -0.407443 -0.14116699999999993 0.902254
vn -0.294782 0.17463700000000004 0.939471
vn -0.078937 0.42784400000000006 0.900399
vn -0.126176 0.08361500000000005 0.988478
vn 0.0503 0.27409200000000006 0.960387
vn 0.155882 0.21419500000000005 0.964272
vn 0 6.123233995736766E-17 1
vn 0.205538 0.18213400000000005 0.961552
vn -0.212156 -0.18484399999999995 0.959595
vn -0.100851 -0.24106099999999994 0.965256
vn 0.186116 -0.10155399999999995 0.977266
vn 0.296939 0.038334000000000056 0.954127
vn 0 6.123233995736766E-17 1
vn -0.050238 -0.27776399999999996 0.959335
vn 0.121784 -0.28445399999999993 0.950923
vn 0.163964 -0.09740299999999995 0.981646
vn -0.292852 -0.955881 -0.023021999999999942
vn -0.970097 -0.22547 -0.08985899999999998
vn 0 6.123233995736766E-17 1
vn 0 6.123233995736766E-17 1
vn 0 6.123233995736766E-17 1
vn -0.297183 -0.954774 -0.009463999999999941
vn -0.974798 -0.222522 -0.015905999999999986
vn 0 6.123233995736766E-17 1
vn 0 6.123233995736766E-17 1
vn 0 6.123233995736766E-17 1
vn -0.281664 -0.959359 -0.017214999999999942
vn -0.937895 -0.19030000000000002 -0.290069
vn 0 6.123233995736766E-17 1
vn 0 6.123233995736766E-17 1
vn 0 6.123233995736766E-17 1
vn -0.280665 -0.21769399999999994 0.934792
vn -0.958689 -0.0030109999999999824 0.284441
vn 0.064083 0.907538 0.4150519999999999
vn 0.064083 0.907538 0.4150519999999999
vn 0.064083 0.907538 0.4150519999999999
vn -0.275253 -0.25740299999999994 0.926272
vn -0.963977 -0.10322399999999998 0.245138
vn 0.064083 0.907538 0.4150519999999999
vn 0.064083 0.907538 0.4150519999999999
vn 0.064083 0.907538 0.4150519999999999
vn -0.295714 -0.952875 -0.06769899999999994
vn -0.972031 -0.222644 0.07473900000000001
vn 0 6.123233995736766E-17 1
vn 0 6.123233995736766E-17 1
vn 0 6.123233995736766E-17 1
vn -0.24306 -0.941968 0.23155600000000007
vn -0.897889 -0.24967300000000003 -0.362573
vn 0 6.123233995736766E-17 1
vn 0 6.123233995736766E-17 1
vn 0 6.123233995736766E-17 1
vn -0.986429 0.053933999999999996 -0.155078
vn -0.436993 0.858314 0.26895099999999994
vn -0 -4.999999999938768E-06 1
vn -0 -4.999999999938768E-06 1
vn -0 -4.999999999938768E-06 1
vn -0.807189 0.18645199999999998 -0.560072
vn -0.309271 0.921799 0.23374699999999995
vn -0 -4.999999999938768E-06 1
vn -0 -4.999999999938768E-06 1
vn -0 -4.999999999938768E-06 1
vn 0.997599 -0.00012900000000000422 -0.069256
vn 0.498757 -0.86414 0.06710500000000005
vn 0 6.123233995736766E-17 1
vn 0 6.123233995736766E-17 1
vn 0 6.123233995736766E-17 1
vn 0.972387 0.028044000000000013 0.231681
vn 0.49474 -0.799833 -0.33985099999999996
vn 0 6.123233995736766E-17 1
vn 0 6.123233995736766E-17 1
vn 0 6.123233995736766E-17 1
vn 0.214891 -0.964612 -0.15278999999999995
vn -0.710076 -0.656922 0.2534660000000001
vn -3E-06 -2.9999999999387676E-06 1
vn -3E-06 -2.9999999999387676E-06 1
vn -3E-06 -2.9999999999387676E-06 1
vn 0.033488 -0.838217 -0.544308
vn -0.811031 -0.541701 0.22088400000000002
vn -5E-06 -9.999999999387675E-07 1
vn -5E-06 -9.999999999387675E-07 1
vn -5E-06 -9.999999999387675E-07 1
vn 0.214894 -0.964612 -0.15279099999999995
vn -0.710078 -0.65692 0.2534680000000001
vn -3E-06 -2.9999999999387676E-06 1
vn -3E-06 -2.9999999999387676E-06 1
vn -3E-06 -2.9999999999387676E-06 1
vn -0.297788 -0.788384 0.538305
vn -0.974492 -0.170026 0.146479
vn 0.12941 0.48296300000000003 0.866025
vn 0.12941 0.48296300000000003 0.866025
vn 0.12941 0.48296300000000003 0.866025
vn 0.470745 0.88051 0.05568899999999995
vn 0.470745 0.88051 0.05568899999999995
vn -0.47083 -0.880669 -0.05236199999999994
vn -0.47083 -0.880669 -0.05236199999999994
vn 0.470851 0.880707 -0.05152500000000006
vn 0.470851 0.880707 -0.05152500000000006
vn -0.470767 -0.88055 0.054868000000000056
vn -0.470767 -0.88055 0.054868000000000056
vn -0.111296 -0.02497199999999994 0.993473
vn -0.114119 -0.056773999999999936 0.991844
vn -0.016288 0.999856 0.004854999999999938
vn 0.019862 -0.99979 -0.005129999999999938
vn -0.123131 -0.06732699999999994 0.990104
vn -0.112714 -0.09053199999999995 0.989495
vn 0.987604 0.129438 0.08879599999999999
vn 0.987604 0.129438 0.08879599999999999
vn 0.987604 0.129438 0.08879599999999999
vn 0.986863 0.136066 0.08710899999999999
vn 0.986863 0.136066 0.08710899999999999
vn 0.986863 0.136066 0.08710899999999999
vn -0.995931 0.04609400000000001 0.077434
vn -0.995931 0.04609400000000001 0.077434
vn -0.995931 0.04609400000000001 0.077434
vn -0.995931 0.046096000000000005 0.077433
vn 0.970795 0.222413 0.08993799999999999
vn -0.750031 0.657326 -0.07331900000000004
vn 0.186467 0.982376 0.012930999999999939
vn 0.186467 0.982376 0.012930999999999939
vn 0.680825 -0.72936 0.06716700000000005
vn 0.970795 0.222413 0.08993799999999999
vn 0.974331 0.224557 0.015908999999999986
vn -0.753745 0.657118 -0.00798500000000004
vn 0.183214 0.983041 0.00788699999999994
vn 0.183214 0.983041 0.00788699999999994
vn 0.683201 -0.730202 0.006537000000000045
vn 0.974331 0.224557 0.015908999999999986
vn 0.932448 0.21255400000000002 0.292168
vn -0.660619 0.704149 -0.26030100000000006
vn 0.231538 0.972811 0.00530799999999994
vn 0.231538 0.972811 0.00530799999999994
vn 0.639934 -0.723096 0.26003300000000007
vn 0.932448 0.21255400000000002 0.292168
vn 0.90551 0.04194899999999997 -0.422246
vn -0.865741 0.18144799999999997 -0.466443
vn -0.042313 0.24939999999999996 -0.967476
vn -0.042313 0.24939999999999996 -0.967476
vn 0.807387 -0.19981199999999996 0.555158
vn 0.90551 0.04194899999999997 -0.422246
vn 0.909366 0.14008599999999996 -0.391702
vn -0.852828 0.10269199999999998 -0.511995
vn -0.015692 0.25661999999999996 -0.966385
vn -0.015692 0.25661999999999996 -0.966385
vn 0.81149 -0.12025599999999996 0.571859
vn 0.909366 0.14008599999999996 -0.391702
vn 0.969976 0.231796 -0.07359800000000001
vn -0.741322 0.656089 0.14138199999999998
vn 0.191877 0.978096 0.08068999999999994
vn 0.191877 0.978096 0.08068999999999994
vn 0.68154 -0.717929 -0.14170499999999994
vn 0.969976 0.231796 -0.07359800000000001
vn 0.891674 0.29712 0.341521
vn -0.5535 0.646332 -0.525255
vn 0.318162 0.929107 -0.18850500000000006
vn 0.318162 0.929107 -0.18850500000000006
vn 0.636537 -0.556749 0.533714
vn 0.891674 0.29712 0.341521
vn 0.489313 -0.835417 -0.25030199999999997
vn 0.637974 0.667244 0.38441499999999995
vn 0.97437 -0.205454 0.09160400000000002
vn 0.97437 -0.205454 0.09160400000000002
vn -0.438117 -0.803221 -0.40359599999999995
vn 0.489313 -0.835417 -0.25030199999999997
vn 0.595886 -0.800517 0.06397200000000006
vn 0.498635 0.529819 0.686043
vn 0.805181 -0.16555699999999998 0.569451
vn 0.805181 -0.16555699999999998 0.569451
vn -0.237016 -0.766206 -0.597287
vn 0.595886 -0.800517 0.06397200000000006
vn -0.556295 0.828891 -0.05896000000000005
vn -0.559341 -0.81785 0.13512700000000005
vn -0.995859 0.067192 0.061238999999999995
vn -0.995859 0.067192 0.061238999999999995
vn 0.428477 0.89342 -0.13493800000000006
vn -0.556295 0.828891 -0.05896000000000005
vn -0.581046 0.757737 0.2970189999999999
vn -0.580052 -0.648245 -0.49327199999999993
vn -0.979635 0.150505 -0.132901
vn -0.979635 0.150505 -0.132901
vn 0.29764 0.802414 0.517246
vn -0.581046 0.757737 0.2970189999999999
vn 0.750627 0.601218 -0.27403700000000003
vn -0.860632 0.337472 0.381347
vn -0.149127 0.980707 0.12638899999999995
vn -0.149127 0.980707 0.12638899999999995
vn 0.861464 -0.335123 -0.38154
vn 0.750627 0.601218 -0.27403700000000003
vn 0.670471 0.741936 0.00030699999999995455
vn -0.698018 0.2846600000000001 0.657069
vn -0.112712 0.807157 0.579478
vn -0.112712 0.807157 0.579478
vn 0.776481 -0.13208500000000004 -0.616143
vn 0.670471 0.741936 0.00030699999999995455
vn 0.750626 0.601219 -0.27403700000000003
vn -0.860631 0.337475 0.381347
vn -0.149128 0.980707 0.12638999999999995
vn -0.149128 0.980707 0.12638999999999995
vn 0.861465 -0.33512 -0.38154
vn 0.750626 0.601219 -0.27403700000000003
vn -0.385573 0.33293000000000006 0.860518
vn 0.958024 0.222336 -0.180987
vn -0.786772 0.524569 -0.32529600000000003
vn 0.123938 0.822375 -0.555283
vn 0.123938 0.822375 -0.555283
vn 0.729439 -0.579248 0.36385500000000004
vn 0.958024 0.222336 -0.180987
vn 0.372797 0.517216 0.770396
vn 0.405388 0.722579 0.559946
g ruinmat
f 312/312/312 316/316/316 317/317/317
f 317/317/317 313/313/313 312/312/312
f 311/311/311 315/315/315 316/316/316
f 316/316/316 312/312/312 311/311/311
f 310/310/310 314/314/314 315/315/315
f 315/315/315 311/311/311 310/310/310
f 307/307/307 312/312/312 313/313/313
f 313/313/313 309/309/309 307/307/307
f 305/305/305 311/311/311 312/312/312
f 312/312/312 307/307/307 305/305/305
f 302/302/302 310/310/310 311/311/311
f 311/311/311 305/305/305 302/302/302
f 306/306/306 307/307/307 309/309/309
f 309/309/309 308/308/308 306/306/306
f 304/304/304 305/305/305 307/307/307
f 307/307/307 306/306/306 304/304/304
f 303/303/303 302/302/302 305/305/305
f 305/305/305 304/304/304 303/303/303
f 295/295/295 300/300/300 301/301/301
f 301/301/301 296/296/296 295/295/295
f 294/294/294 299/299/299 300/300/300
f 300/300/300 295/295/295 294/294/294
f 293/293/293 298/298/298 299/299/299
f 299/299/299 294/294/294 293/293/293
f 292/292/292 297/297/297 298/298/298
f 298/298/298 293/293/293 292/292/292
f 290/290/290 295/295/295 296/296/296
f 296/296/296 291/291/291 290/290/290
f 289/289/289 294/294/294 295/295/295
f 295/295/295 290/290/290 289/289/289
f 288/288/288 293/293/293 294/294/294
f 294/294/294 289/289/289 288/288/288
f 287/287/287 292/292/292 293/293/293
f 293/293/293 288/288/288 287/287/287
f 285/285/285 290/290/290 291/291/291
f 291/291/291 286/286/286 285/285/285
f 284/284/284 289/289/289 290/290/290
f 290/290/290 285/285/285 284/284/284
f 283/283/283 288/288/288 289/289/289
f 289/289/289 284/284/284 283/283/283
f 282/282/282 287/287/287 288/288/288
f 288/288/288 283/283/283 282/282/282
f 280/280/280 285/285/285 286/286/286
f 286/286/286 281/281/281 280/280/280
f 279/279/279 284/284/284 285/285/285
f 285/285/285 280/280/280 279/279/279
f 278/278/278 283/283/283 284/284/284
f 284/284/284 279/279/279 278/278/278
f 277/277/277 282/282/282 283/283/283
f 283/283/283 278/278/278 277/277/277
f 271/271/271 275/275/275 276/276/276
f 276/276/276 272/272/272 271/271/271
f 270/270/270 274/274/274 275/275/275
f 275/275/275 271/271/271 270/270/270
f 269/269/269 273/273/273 274/274/274
f 274/274/274 270/270/270 269/269/269
f 266/266/266 271/271/271 272/272/272
f 272/272/272 268/268/268 266/266/266
f 264/264/264 270/270/270 271/271/271
f 271/271/271 266/266/266 264/264/264
f 261/261/261 269/269/269 270/270/270
f 270/270/270 264/264/264 261/261/261
f 265/265/265 266/266/266 268/268/268
f 268/268/268 267/267/267 265/265/265
f 263/263/263 264/264/264 266/266/266
f 266/266/266 265/265/265 263/263/263
f 262/262/262 261/261/261 264/264/264
f 264/264/264 263/263/263 262/262/262
f 413/413/413 416/416/416 415/415/415
f 415/415/415 414/414/414 413/413/413
f 412/412/412 411/411/411 410/410/410
f 409/409/409 408/408/408 407/407/407
f 405/405/405 401/401/401 402/402/402
f 402/402/402 406/406/406 405/405/405
f 254/254/254 259/259/259 260/260/260
f 260/260/260 404/404/404 254/254/254
f 257/257/257 258/258/258 252/252/252
f 252/252/252 403/403/403 257/257/257
f 401/401/401 251/251/251 255/255/255
f 255/255/255 402/402/402 401/401/401
f 259/259/259 253/253/253 256/256/256
f 256/256/256 260/260/260 259/259/259
f 250/250/250 249/249/249 258/258/258
f 258/258/258 257/257/257 250/250/250
f 243/243/243 247/247/247 248/248/248
f 248/248/248 244/244/244 243/243/243
f 242/242/242 246/246/246 247/247/247
f 247/247/247 243/243/243 242/242/242
f 241/241/241 245/245/245 246/246/246
f 246/246/246 242/242/242 241/241/241
f 239/239/239 243/243/243 244/244/244
f 244/244/244 240/240/240 239/239/239
f 238/238/238 242/242/242 243/243/243
f 243/243/243 239/239/239 238/238/238
f 237/237/237 241/241/241 242/242/242
f 242/242/242 238/238/238 237/237/237
f 235/235/235 239/239/239 240/240/240
f 240/240/240 236/236/236 235/235/235
f 234/234/234 238/238/238 239/239/239
f 239/239/239 235/235/235 234/234/234
f 233/233/233 237/237/237 238/238/238
f 238/238/238 234/234/234 233/233/233
f 225/225/225 220/220/220 221/221/221
f 221/221/221 509/509/509 508/508/508
f 232/232/232 227/227/227 224/224/224
f 224/224/224 230/230/230 232/232/232
f 230/230/230 224/224/224 225/225/225
f 225/225/225 231/231/231 230/230/230
f 219/219/219 220/220/220 228/228/228
f 228/228/228 229/229/229 219/219/219
f 222/222/222 228/228/228 220/220/220
f 220/220/220 225/225/225 222/222/222
f 223/223/223 224/224/224 227/227/227
f 227/227/227 226/226/226 223/223/223
f 222/222/222 225/225/225 224/224/224
f 224/224/224 223/223/223 222/222/222
f 218/218/218 221/221/221 220/220/220
f 220/220/220 219/219/219 218/218/218
f 210/210/210 205/205/205 206/206/206
f 206/206/206 216/216/216 210/210/210
f 217/217/217 212/212/212 209/209/209
f 209/209/209 215/215/215 217/217/217
f 215/215/215 209/209/209 210/210/210
f 210/210/210 216/216/216 215/215/215
f 204/204/204 205/205/205 213/213/213
f 213/213/213 214/214/214 204/204/204
f 207/207/207 213/213/213 205/205/205
f 205/205/205 210/210/210 207/207/207
f 208/208/208 209/209/209 212/212/212
f 212/212/212 211/211/211 208/208/208
f 207/207/207 210/210/210 209/209/209
f 209/209/209 208/208/208 207/207/207
f 203/203/203 206/206/206 205/205/205
f 205/205/205 204/204/204 203/203/203
f 199/199/199 200/200/200 202/202/202
f 202/202/202 201/201/201 199/199/199
f 197/197/197 198/198/198 196/196/196
f 196/196/196 195/195/195 197/197/197
f 400/400/400 192/192/192 399/399/399
f 194/194/194 193/193/193 191/191/191
f 398/398/398 190/190/190 397/397/397
f 188/188/188 187/187/187 189/189/189
f 183/183/183 184/184/184 186/186/186
f 186/186/186 185/185/185 183/183/183
f 181/181/181 182/182/182 180/180/180
f 180/180/180 179/179/179 181/181/181
f 396/396/396 176/176/176 395/395/395
f 178/178/178 177/177/177 175/175/175
f 394/394/394 174/174/174 393/393/393
f 172/172/172 171/171/171 173/173/173
f 392/392/392 391/391/391 390/390/390
f 507/507/507 506/506/506 505/505/505
f 504/504/504 503/503/503 502/502/502
f 170/170/170 167/167/167 389/389/389
f 389/389/389 388/388/388 170/170/170
f 169/169/169 166/166/166 165/165/165
f 165/165/165 168/168/168 169/169/169
f 157/157/157 152/152/152 153/153/153
f 153/153/153 501/501/501 157/157/157
f 164/164/164 159/159/159 156/156/156
f 156/156/156 162/162/162 164/164/164
f 162/162/162 156/156/156 157/157/157
f 157/157/157 163/163/163 162/162/162
f 151/151/151 152/152/152 160/160/160
f 160/160/160 161/161/161 151/151/151
f 154/154/154 160/160/160 152/152/152
f 152/152/152 157/157/157 154/154/154
f 155/155/155 156/156/156 159/159/159
f 159/159/159 158/158/158 155/155/155
f 154/154/154 157/157/157 156/156/156
f 156/156/156 155/155/155 154/154/154
f 150/150/150 153/153/153 152/152/152
f 152/152/152 151/151/151 150/150/150
f 144/144/144 148/148/148 149/149/149
f 149/149/149 145/145/145 144/144/144
f 143/143/143 147/147/147 148/148/148
f 148/148/148 144/144/144 143/143/143
f 142/142/142 146/146/146 147/147/147
f 147/147/147 143/143/143 142/142/142
f 140/140/140 144/144/144 145/145/145
f 145/145/145 141/141/141 140/140/140
f 139/139/139 143/143/143 144/144/144
f 144/144/144 140/140/140 139/139/139
f 138/138/138 142/142/142 143/143/143
f 143/143/143 139/139/139 138/138/138
f 136/136/136 140/140/140 141/141/141
f 141/141/141 137/137/137 136/136/136
f 135/135/135 139/139/139 140/140/140
f 140/140/140 136/136/136 135/135/135
f 134/134/134 138/138/138 139/139/139
f 139/139/139 135/135/135 134/134/134
f 127/127/127 132/132/132 133/133/133
f 133/133/133 128/128/128 127/127/127
f 126/126/126 131/131/131 132/132/132
f 132/132/132 127/127/127 126/126/126
f 125/125/125 130/130/130 131/131/131
f 131/131/131 126/126/126 125/125/125
f 124/124/124 129/129/129 130/130/130
f 130/130/130 125/125/125 124/124/124
f 122/122/122 127/127/127 128/128/128
f 128/128/128 123/123/123 122/122/122
f 121/121/121 126/126/126 127/127/127
f 127/127/127 122/122/122 121/121/121
f 120/120/120 125/125/125 126/126/126
f 126/126/126 121/121/121 120/120/120
f 119/119/119 124/124/124 125/125/125
f 125/125/125 120/120/120 119/119/119
f 117/117/117 122/122/122 123/123/123
f 123/123/123 118/118/118 117/117/117
f 116/116/116 121/121/121 122/122/122
f 122/122/122 117/117/117 116/116/116
f 115/115/115 120/120/120 121/121/121
f 121/121/121 116/116/116 115/115/115
f 114/114/114 119/119/119 120/120/120
f 120/120/120 115/115/115 114/114/114
f 112/112/112 117/117/117 118/118/118
f 118/118/118 113/113/113 112/112/112
f 111/111/111 116/116/116 117/117/117
f 117/117/117 112/112/112 111/111/111
f 110/110/110 115/115/115 116/116/116
f 116/116/116 111/111/111 110/110/110
f 109/109/109 114/114/114 115/115/115
f 115/115/115 110/110/110 109/109/109
f 103/103/103 107/107/107 108/108/108
f 108/108/108 104/104/104 103/103/103
f 102/102/102 106/106/106 107/107/107
f 107/107/107 103/103/103 102/102/102
f 101/101/101 105/105/105 106/106/106
f 106/106/106 102/102/102 101/101/101
f 99/99/99 103/103/103 104/104/104
f 104/104/104 100/100/100 99/99/99
f 98/98/98 102/102/102 103/103/103
f 103/103/103 99/99/99 98/98/98
f 97/97/97 101/101/101 102/102/102
f 102/102/102 98/98/98 97/97/97
f 95/95/95 99/99/99 100/100/100
f 100/100/100 96/96/96 95/95/95
f 94/94/94 98/98/98 99/99/99
f 99/99/99 95/95/95 94/94/94
f 93/93/93 97/97/97 98/98/98
f 98/98/98 94/94/94 93/93/93
f 387/387/387 386/386/386 385/385/385
f 500/500/500 499/499/499 498/498/498
f 497/497/497 496/496/496 495/495/495
f 92/92/92 91/91/91 384/384/384
f 384/384/384 383/383/383 92/92/92
f 89/89/89 88/88/88 87/87/87
f 87/87/87 90/90/90 89/89/89
f 382/382/382 381/381/381 380/380/380
f 494/494/494 493/493/493 492/492/492
f 491/491/491 490/490/490 489/489/489
f 86/86/86 85/85/85 379/379/379
f 379/379/379 378/378/378 86/86/86
f 83/83/83 82/82/82 81/81/81
f 81/81/81 84/84/84 83/83/83
f 377/377/377 376/376/376 375/375/375
f 488/488/488 487/487/487 486/486/486
f 485/485/485 484/484/484 483/483/483
f 80/80/80 79/79/79 374/374/374
f 374/374/374 373/373/373 80/80/80
f 77/77/77 76/76/76 75/75/75
f 75/75/75 78/78/78 77/77/77
f 372/372/372 371/371/371 370/370/370
f 482/482/482 481/481/481 480/480/480
f 479/479/479 478/478/478 477/477/477
f 74/74/74 73/73/73 369/369/369
f 369/369/369 368/368/368 74/74/74
f 71/71/71 70/70/70 69/69/69
f 69/69/69 72/72/72 71/71/71
f 367/367/367 366/366/366 365/365/365
f 476/476/476 475/475/475 474/474/474
f 473/473/473 472/472/472 471/471/471
f 68/68/68 67/67/67 364/364/364
f 364/364/364 363/363/363 68/68/68
f 65/65/65 64/64/64 63/63/63
f 63/63/63 66/66/66 65/65/65
f 362/362/362 361/361/361 360/360/360
f 470/470/470 469/469/469 468/468/468
f 467/467/467 466/466/466 465/465/465
f 62/62/62 61/61/61 359/359/359
f 359/359/359 358/358/358 62/62/62
f 59/59/59 58/58/58 57/57/57
f 57/57/57 60/60/60 59/59/59
f 357/357/357 356/356/356 355/355/355
f 464/464/464 463/463/463 462/462/462
f 461/461/461 460/460/460 459/459/459
f 56/56/56 55/55/55 354/354/354
f 354/354/354 353/353/353 56/56/56
f 53/53/53 52/52/52 51/51/51
f 51/51/51 54/54/54 53/53/53
f 352/352/352 351/351/351 350/350/350
f 458/458/458 457/457/457 456/456/456
f 455/455/455 454/454/454 453/453/453
f 50/50/50 49/49/49 349/349/349
f 349/349/349 348/348/348 50/50/50
f 47/47/47 46/46/46 45/45/45
f 45/45/45 48/48/48 47/47/47
f 347/347/347 346/346/346 345/345/345
f 452/452/452 451/451/451 450/450/450
f 449/449/449 448/448/448 447/447/447
f 44/44/44 43/43/43 344/344/344
f 344/344/344 343/343/343 44/44/44
f 41/41/41 40/40/40 39/39/39
f 39/39/39 42/42/42 41/41/41
f 342/342/342 341/341/341 340/340/340
f 446/446/446 445/445/445 444/444/444
f 443/443/443 442/442/442 441/441/441
f 38/38/38 37/37/37 339/339/339
f 339/339/339 338/338/338 38/38/38
f 35/35/35 34/34/34 33/33/33
f 33/33/33 36/36/36 35/35/35
f 337/337/337 336/336/336 335/335/335
f 440/440/440 439/439/439 438/438/438
f 437/437/437 436/436/436 435/435/435
f 32/32/32 31/31/31 334/334/334
f 334/334/334 333/333/333 32/32/32
f 29/29/29 28/28/28 27/27/27
f 27/27/27 30/30/30 29/29/29
f 332/332/332 331/331/331 330/330/330
f 434/434/434 433/433/433 432/432/432
f 431/431/431 430/430/430 429/429/429
f 26/26/26 25/25/25 329/329/329
f 329/329/329 328/328/328 26/26/26
f 23/23/23 22/22/22 21/21/21
f 21/21/21 24/24/24 23/23/23
f 327/327/327 326/326/326 325/325/325
f 428/428/428 427/427/427 426/426/426
f 425/425/425 424/424/424 423/423/423
f 20/20/20 19/19/19 324/324/324
f 324/324/324 323/323/323 20/20/20
f 17/17/17 16/16/16 15/15/15
f 15/15/15 18/18/18 17/17/17
f 322/322/322 321/321/321 320/320/320
f 422/422/422 421/421/421 420/420/420
f 419/419/419 418/418/418 417/417/417
f 14/14/14 11/11/11 319/319/319
f 319/319/319 318/318/318 14/14/14
f 13/13/13 10/10/10 9/9/9
f 9/9/9 12/12/12 13/13/13
f 3/3/3 7/7/7 8/8/8
f 8/8/8 4/4/4 3/3/3
f 4/4/4 8/8/8 5/5/5
f 5/5/5 2/2/2 4/4/4
f 1/1/1 6/6/6 7/7/7
f 7/7/7 3/3/3 1/1/1
f 2/2/2 5/5/5 6/6/6
f 6/6/6 1/1/1 2/2/2
f 3/3/3 4/4/4 2/2/2
f 2/2/2 1/1/1 3/3/3
