v 0.32366 0.735012 0.2592709999999999
v 0.237441 0.974238 0.2592709999999999
v 0.566451 0.822568 -0.00491300000000005
v 0.480232 1.061796 -0.004913000000000065
v 0.32366 0.735012 -0.004913000000000045
v 0.566451 0.822568 0.2592709999999999
v 0.237362 0.974967 -0.00456200000000006
v 0.480232 1.061796 0.2592709999999999
v 0.395371 0.772326 0.38445999999999997
v 0.035318 0.842387 0.38445999999999997
v 0.070045 1.018654 0.38445999999999997
v 0.429697 0.947944 0.38445999999999997
v 0.395371 0.772326 0.25566799999999995
v 0.035318 0.842387 0.25566799999999995
v 0.070045 1.018654 0.25566799999999995
v 0.429697 0.947944 0.25566799999999995
v 0.196605 0.770377 0.2592709999999999
v -0.057678 0.76878 0.2592709999999999
v 0.194935 1.028468 -0.004913000000000063
v -0.05935 1.026871 -0.004913000000000062
v 0.196605 0.770377 -0.004913000000000047
v 0.194935 1.028468 0.2592709999999999
v -0.058392 0.768948 -0.004562000000000047
v -0.05935 1.026871 0.2592709999999999
v 0.177287 0.771939 0.20898199999999995
v 0.176405 0.559337 0.20898199999999997
v -0.036196 0.560218 0.20898199999999997
v -0.035316 0.77282 0.20898199999999995
v 0.177287 0.771939 -0.003622000000000047
v 0.176405 0.559337 -0.003622000000000034
v -0.036196 0.560218 -0.003622000000000034
v -0.035316 0.77282 -0.003622000000000047
v 0.520601 0.591443 0.16397599999999998
v 0.232316 0.535623 0.16393299999999997
v 0.20191 0.692619 0.16393299999999994
v 0.490195 0.748439 0.16397599999999996
v 0.520601 0.591443 -0.0021590000000000363
v 0.232316 0.535623 -0.002202000000000033
v 0.201931 0.693078 -0.0019810000000000426
v 0.490195 0.748439 -0.002159000000000046
v 0.501933 0.420096 0.05093999999999997
v 0.625081 -0.823237 0.2600660000000001
v 0.572736 -0.828412 0.26012500000000005
v 0.449588 0.414921 0.050998999999999975
v 0.501933 0.420096 0.05093999999999997
v 0.625081 -0.823237 0.2600660000000001
v 0.572736 -0.828412 0.26012500000000005
v 0.449588 0.414921 0.050998999999999975
v 0.179541 0.211315 0.05464899999999999
v 0.595231 -0.963016 0.28470400000000007
v 0.5457 -0.980704 0.28391400000000006
v 0.13001 0.193627 0.05385899999999998
v 0.179541 0.211315 0.05464899999999999
v 0.595231 -0.963016 0.28470400000000007
v 0.5457 -0.980704 0.28391400000000006
v 0.13001 0.193627 0.05385899999999998
v 0.671972 0.263051 0.047309999999999984
v 0.680572 -0.978803 0.29731100000000005
v 0.627972 -0.979153 0.29738200000000004
v 0.619372 0.262701 0.047380999999999986
v 0.671972 0.263051 0.047309999999999984
v 0.680572 -0.978803 0.29731100000000005
v 0.627972 -0.979153 0.29738200000000004
v 0.619372 0.262701 0.047380999999999986
v 0.839263 -0.082992 0.001461000000000005
v 0.839855 -0.079708 0.091426
v 0.20955 -0.382466 0.09347600000000003
v 0.210245 -0.385244 0.0027310000000000233
v 0.887506 -0.193238 0.001350000000000012
v 0.888345 -0.190262 0.09131300000000002
v 0.260564 -0.494429 0.0025200000000000305
v 0.260097 -0.492 0.09323200000000002
v 0.834463 -0.564491 3.4565104814874425E-17
v 0.74042 -0.452471 2.7705858092850104E-17
v 0.852449 -0.35852 2.1953018521515455E-17
v 0.946503 -0.470536 2.881202031417995E-17
v 0.832935 -0.561725 0.2916230000000001
v 0.738717 -0.449994 0.291623
v 0.850533 -0.356698 0.291623
v 0.944851 -0.468377 0.2916230000000001
v 1.044634 -0.506394 0.32190300000000005
v 1.13253 -0.822422 0.32190300000000005
v 0.816502 -0.910318 0.32190300000000005
v 0.728606 -0.59429 0.3219040000000001
v 0.816502 -0.910318 -0.006095999999999944
v 0.728606 -0.59429 -0.0060969999999999636
v 1.044634 -0.506394 -0.006095999999999969
v 1.13253 -0.822422 -0.00609699999999995
v 0.958997 -0.760023 0.514334
v 0.7762 -0.756672 0.514247
v 0.7762 -0.756672 0.31719500000000006
v 0.958997 -0.760023 0.31722500000000003
v 0.777096 -0.570454 0.31670800000000005
v 0.777097 -0.570454 0.512881
v 0.960159 -0.573811 0.513007
v 0.960159 -0.573812 0.31675300000000006
v 0.394329 -0.905431 0.18803100000000006
v 0.39985 -0.685394 0.18797100000000005
v 0.739878 -0.687871 0.18827400000000005
v 0.737825 -0.909292 0.18822900000000006
v 0.40179 -0.907167 0.0029000000000000553
v 0.405877 -0.686833 0.0028900000000000423
v 0.750978 -0.690879 0.0029290000000000427
v 0.748185 -0.911722 0.002925000000000056
v 0.719396 -0.689598 0.14718100000000006
v 0.441467 -0.691334 0.14718100000000006
v 0.44022 -0.491794 0.14718100000000003
v 0.71815 -0.490057 0.14718100000000003
v 0.44022 -0.491794 -0.008171999999999971
v 0.71815 -0.490057 -0.008171999999999971
v 0.719396 -0.689598 -0.008171999999999959
v 0.441467 -0.691334 -0.008171999999999959
v 0.336872 -0.528958 -0.0021539999999999676
v 0.419411 -0.61526 -0.0021539999999999624
v 0.332828 -0.69691 -0.0021539999999999576
v 0.250161 -0.610388 -0.002153999999999963
v 0.336498 -0.528414 0.20804600000000004
v 0.419045 -0.614829 0.20804600000000004
v 0.332356 -0.696598 0.20804600000000006
v 0.249802 -0.61007 0.20804600000000004
v 0.307235 -0.808649 4.9515470474185397E-17
v 0.220191 -0.926191 5.671284217745431E-17
v 0.102737 -0.839118 5.138115864034644E-17
v 0.189773 -0.721567 4.418323584601791E-17
v 0.3049 -0.81078 0.2916230000000001
v 0.218179 -0.928424 0.2916230000000001
v 0.101412 -0.841407 0.2916230000000001
v 0.188059 -0.723677 0.2916230000000001
v -0.759756 0.767665 0.30915099999999995
v -0.3418 0.273079 0.309151
v -0.808433 0.72653 0.30915099999999995
v -0.390477 0.23194300000000004 0.309151
v -0.629446 0.809642 0.30915099999999995
v -0.164493 0.48649 0.3228619999999999
v -0.665817 0.75731 0.30915099999999995
v -0.200866 0.434158 0.322862
v -0.603362 1.007886 0.0004209999999999383
v -0.09344 0.823989 0.00042199999999994954
v -0.687157 0.775531 0.11317599999999996
v -0.830907 0.375092 0.21789799999999998
v -0.321428 0.1901 0.217897
v -0.830907 0.375092 0.000420999999999977
v -0.177234 0.591634 0.21789799999999998
v -0.687157 0.775531 0.21789799999999995
v -0.09344 0.823989 0.11317599999999994
v -0.603362 1.007885 0.11317599999999994
v -0.177234 0.591634 0.11317599999999996
v -0.321412 0.190104 -5.200000000001164E-05
v -0.739159 0.743439 0.24427499999999994
v -0.17725 0.421627 0.274533
v -0.770831 0.688135 0.24427599999999994
v -0.208924 0.366325 0.274533
v -0.88597 0.560178 0.24427599999999997
v -0.338533 0.415536 0.258417
v -0.902249 0.498561 0.24427599999999997
v -0.354813 0.35392 0.258417
v -0.582268 0.739022 0.24427499999999994
v -0.070323 0.502467 0.24427499999999996
v -0.609 0.681169 0.24427499999999994
v -0.097055 0.444615 0.24427499999999996
v -0.85946 0.525986 0.27980099999999997
v -0.360087 0.76097 0.27980099999999997
v -0.832325 0.468321 0.27980099999999997
v -0.332952 0.703305 0.27980099999999997
v -0.632673 0.30945 0.299466
v -0.218176 0.80694 0.31037099999999995
v -0.58371 0.268656 0.299466
v -0.169214 0.766145 0.31037099999999995
v -0.548537 0.278908 0.340408
v -0.550511 0.845126 0.34040799999999993
v -0.484807 0.279129 0.340408
v -0.48678 0.845348 0.34040799999999993
v -0.09344 0.823991 0.00042199999999994954
v -0.321428 0.1901 0.217897
v -0.177234 0.591634 0.21789799999999998
v -0.093439 0.82399 0.11317599999999994
v -0.177234 0.591634 0.11317599999999996
v -0.321411 0.190104 -5.200000000001164E-05
v -0.43381 -0.280227 0.259271
v -0.684347 -0.323748 0.259271
v -0.478031 -0.025947 -0.004912999999999998
v -0.72857 -0.069468 -0.0049129999999999955
v -0.43381 -0.280227 -0.0049129999999999825
v -0.478031 -0.025946999999999984 0.259271
v -0.685078 -0.3237 -0.00456199999999998
v -0.72857 -0.06946799999999999 0.259271
v -0.251725 -0.366276 0.19231300000000004
v -0.378648 -0.497868 0.19222500000000003
v -0.378648 -0.497868 -0.004826999999999969
v -0.251725 -0.366276 -0.004795999999999977
v -0.514417 -0.370413 -0.005313999999999978
v -0.514417 -0.370413 0.19085900000000003
v -0.387309 -0.238631 0.19098600000000002
v -0.387308 -0.238631 -0.0052689999999999855
v -0.720776 -0.684398 0.22372100000000006
v -0.867891 -0.582529 0.22372100000000003
v -0.700001 -0.339601 0.22372100000000003
v -0.552151 -0.441652 0.22372100000000003
v -0.720776 -0.684398 -0.0004359999999999581
v -0.552151 -0.441652 -0.000435999999999973
v -0.700001 -0.339601 -0.0004359999999999792
v -0.867891 -0.582529 -0.00043599999999996436
v -0.213112 -0.634671 0.39087400000000005
v -0.435846 -0.958494 0.39087400000000005
v -0.536933 -0.411936 0.390874
v -0.759669 -0.735759 0.39087400000000005
v -0.435846 -0.958494 -0.0021559999999999414
v -0.759669 -0.735759 -0.002155999999999955
v -0.435846 -0.958494 0.39087400000000005
v -0.759669 -0.735759 0.39087400000000005
v -0.213112 -0.634671 -0.002155999999999961
v -0.435846 -0.958494 -0.0021559999999999414
v -0.536933 -0.411936 -0.0021549999999999746
v -0.759669 -0.735759 -0.002155999999999955
v -0.213112 -0.634671 0.39087400000000005
v -0.435846 -0.958494 0.39087400000000005
v -0.536933 -0.411936 0.390874
v -0.759669 -0.735759 0.39087400000000005
v -0.381989 -0.824204 0.47414900000000004
v -0.656758 -0.724417 0.47414900000000004
v -0.593006 -0.548663 0.47414900000000004
v -0.31816 -0.648385 0.47414900000000004
v -0.656758 -0.724417 0.3795490000000001
v -0.593006 -0.548663 0.3795490000000001
v -0.31816 -0.648385 0.3795490000000001
v -0.381989 -0.824203 0.3795490000000001
v 0.566451 0.822568 0.2592709999999999
v 0.480232 1.061796 0.2592709999999999
v 0.32366 0.735012 0.2592709999999999
v 0.566451 0.822568 0.2592709999999999
v 0.566451 0.822568 -0.00491300000000005
v 0.237441 0.974238 0.2592709999999999
v 0.32366 0.735012 0.2592709999999999
v 0.32366 0.735012 -0.004913000000000045
v 0.480232 1.061796 0.2592709999999999
v 0.237441 0.974238 0.2592709999999999
v 0.237362 0.974967 -0.00456200000000006
v 0.480232 1.061796 -0.004913000000000065
v 0.035318 0.842387 0.38445999999999997
v 0.395371 0.772326 0.38445999999999997
v 0.070045 1.018654 0.38445999999999997
v 0.035318 0.842387 0.38445999999999997
v 0.035318 0.842387 0.25566799999999995
v 0.429697 0.947944 0.38445999999999997
v 0.070045 1.018654 0.38445999999999997
v 0.070045 1.018654 0.25566799999999995
v 0.395371 0.772326 0.38445999999999997
v 0.429697 0.947944 0.38445999999999997
v 0.429697 0.947944 0.25566799999999995
v 0.395371 0.772326 0.25566799999999995
v 0.194935 1.028468 0.2592709999999999
v -0.05935 1.026871 0.2592709999999999
v 0.196605 0.770377 0.2592709999999999
v 0.194935 1.028468 0.2592709999999999
v 0.194935 1.028468 -0.004913000000000063
v -0.057678 0.76878 0.2592709999999999
v 0.196605 0.770377 0.2592709999999999
v 0.196605 0.770377 -0.004913000000000047
v -0.05935 1.026871 0.2592709999999999
v -0.057678 0.76878 0.2592709999999999
v -0.058392 0.768948 -0.004562000000000047
v -0.05935 1.026871 -0.004913000000000062
v 0.176405 0.559337 0.20898199999999997
v 0.177287 0.771939 0.20898199999999995
v -0.036196 0.560218 0.20898199999999997
v 0.176405 0.559337 0.20898199999999997
v 0.176405 0.559337 -0.003622000000000034
v -0.035316 0.77282 0.20898199999999995
v -0.036196 0.560218 0.20898199999999997
v -0.036196 0.560218 -0.003622000000000034
v 0.232316 0.535623 0.16393299999999997
v 0.520601 0.591443 0.16397599999999998
v 0.20191 0.692619 0.16393299999999994
v 0.232316 0.535623 0.16393299999999997
v 0.232316 0.535623 -0.002202000000000033
v 0.490195 0.748439 0.16397599999999996
v 0.20191 0.692619 0.16393299999999994
v 0.201931 0.693078 -0.0019810000000000426
v 0.520601 0.591443 0.16397599999999998
v 0.490195 0.748439 0.16397599999999996
v 0.490195 0.748439 -0.002159000000000046
v 0.520601 0.591443 -0.0021590000000000363
v 0.839855 -0.079708 0.091426
v 0.839263 -0.082992 0.001461000000000005
v 0.888345 -0.190262 0.09131300000000002
v 0.887506 -0.193238 0.001350000000000012
v 0.888345 -0.190262 0.09131300000000002
v 0.260097 -0.492 0.09323200000000002
v 0.20955 -0.382466 0.09347600000000003
v 0.839855 -0.079708 0.091426
v 0.210245 -0.385244 0.0027310000000000233
v 0.20955 -0.382466 0.09347600000000003
v 0.260097 -0.492 0.09323200000000002
v 0.260564 -0.494429 0.0025200000000000305
v 0.944851 -0.468377 0.2916230000000001
v 0.946503 -0.470536 2.881202031417995E-17
v 0.738717 -0.449994 0.291623
v 0.850533 -0.356698 0.291623
v 0.944851 -0.468377 0.2916230000000001
v 0.832935 -0.561725 0.2916230000000001
v 0.728606 -0.59429 0.3219040000000001
v 0.816502 -0.910318 0.32190300000000005
v 1.044634 -0.506394 0.32190300000000005
v 0.728606 -0.59429 0.3219040000000001
v 0.728606 -0.59429 -0.0060969999999999636
v 1.13253 -0.822422 0.32190300000000005
v 1.044634 -0.506394 0.32190300000000005
v 1.044634 -0.506394 -0.006095999999999969
v 0.816502 -0.910318 0.32190300000000005
v 1.13253 -0.822422 0.32190300000000005
v 1.13253 -0.822422 -0.00609699999999995
v 0.816502 -0.910318 -0.006095999999999944
v 0.7762 -0.756672 0.514247
v 0.777097 -0.570454 0.512881
v 0.958997 -0.760023 0.514334
v 0.7762 -0.756672 0.31719500000000006
v 0.7762 -0.756672 0.514247
v 0.960159 -0.573811 0.513007
v 0.958997 -0.760023 0.31722500000000003
v 0.958997 -0.760023 0.514334
v 0.960159 -0.573811 0.513007
v 0.777097 -0.570454 0.512881
v 0.777096 -0.570454 0.31670800000000005
v 0.960159 -0.573812 0.31675300000000006
v 0.39985 -0.685394 0.18797100000000005
v 0.394329 -0.905431 0.18803100000000006
v 0.737825 -0.909292 0.18822900000000006
v 0.739878 -0.687871 0.18827400000000005
v 0.748185 -0.911722 0.002925000000000056
v 0.40179 -0.907167 0.0029000000000000553
v 0.394329 -0.905431 0.18803100000000006
v 0.737825 -0.909292 0.18822900000000006
v 0.39985 -0.685394 0.18797100000000005
v 0.405877 -0.686833 0.0028900000000000423
v 0.750978 -0.690879 0.0029290000000000427
v 0.739878 -0.687871 0.18827400000000005
v 0.71815 -0.490057 0.14718100000000003
v 0.44022 -0.491794 0.14718100000000003
v 0.71815 -0.490057 -0.008171999999999971
v 0.719396 -0.689598 0.14718100000000006
v 0.71815 -0.490057 0.14718100000000003
v 0.44022 -0.491794 -0.008171999999999971
v 0.44022 -0.491794 0.14718100000000003
v 0.441467 -0.691334 0.14718100000000006
v 0.250161 -0.610388 -0.002153999999999963
v 0.249802 -0.61007 0.20804600000000004
v 0.332356 -0.696598 0.20804600000000006
v 0.249802 -0.61007 0.20804600000000004
v 0.419045 -0.614829 0.20804600000000004
v 0.336498 -0.528414 0.20804600000000004
v 0.188059 -0.723677 0.2916230000000001
v 0.189773 -0.721567 4.418323584601791E-17
v 0.218179 -0.928424 0.2916230000000001
v 0.101412 -0.841407 0.2916230000000001
v 0.188059 -0.723677 0.2916230000000001
v 0.3049 -0.81078 0.2916230000000001
v -0.687157 0.775531 0.21789799999999995
v -0.177234 0.591634 0.21789799999999998
v -0.687157 0.775531 0.11317599999999996
v -0.603362 1.007886 0.0004209999999999383
v -0.603362 1.007886 0.0004209999999999383
v -0.603362 1.007885 0.11317599999999994
v -0.687157 0.775531 0.11317599999999996
v -0.603362 1.007885 0.11317599999999994
v -0.09344 0.823989 0.11317599999999994
v -0.177234 0.591634 0.11317599999999996
v -0.687157 0.775531 0.11317599999999996
v -0.830907 0.375092 0.000420999999999977
v -0.687157 0.775531 0.11317599999999996
v -0.687157 0.775531 0.21789799999999995
v -0.830907 0.375092 0.21789799999999998
v -0.830907 0.375092 0.000420999999999977
v -0.830907 0.375092 0.21789799999999998
v -0.321428 0.1901 0.217897
v -0.177234 0.591634 0.11317599999999996
v -0.09344 0.823991 0.00042199999999994954
v -0.321428 0.1901 0.217897
v -0.177234 0.591634 0.11317599999999996
v -0.478031 -0.025946999999999984 0.259271
v -0.72857 -0.06946799999999999 0.259271
v -0.43381 -0.280227 0.259271
v -0.478031 -0.025946999999999984 0.259271
v -0.478031 -0.025947 -0.004912999999999998
v -0.684347 -0.323748 0.259271
v -0.43381 -0.280227 0.259271
v -0.43381 -0.280227 -0.0049129999999999825
v -0.72857 -0.06946799999999999 0.259271
v -0.684347 -0.323748 0.259271
v -0.685078 -0.3237 -0.00456199999999998
v -0.72857 -0.069468 -0.0049129999999999955
v -0.378648 -0.497868 0.19222500000000003
v -0.514417 -0.370413 0.19085900000000003
v -0.251725 -0.366276 0.19231300000000004
v -0.378648 -0.497868 -0.004826999999999969
v -0.378648 -0.497868 0.19222500000000003
v -0.387309 -0.238631 0.19098600000000002
v -0.251725 -0.366276 -0.004795999999999977
v -0.251725 -0.366276 0.19231300000000004
v -0.387309 -0.238631 0.19098600000000002
v -0.514417 -0.370413 0.19085900000000003
v -0.514417 -0.370413 -0.005313999999999978
v -0.387308 -0.238631 -0.0052689999999999855
v -0.700001 -0.339601 0.22372100000000003
v -0.552151 -0.441652 0.22372100000000003
v -0.867891 -0.582529 0.22372100000000003
v -0.700001 -0.339601 -0.0004359999999999792
v -0.700001 -0.339601 0.22372100000000003
v -0.720776 -0.684398 0.22372100000000006
v -0.867891 -0.582529 -0.00043599999999996436
v -0.867891 -0.582529 0.22372100000000003
v -0.213112 -0.634671 0.39087400000000005
v -0.536933 -0.411936 0.390874
v -0.536933 -0.411936 -0.0021549999999999746
v -0.213112 -0.634671 -0.002155999999999961
v -0.593006 -0.548663 0.3795490000000001
v -0.31816 -0.648385 0.3795490000000001
v -0.381989 -0.824203 0.3795490000000001
v -0.656758 -0.724417 0.3795490000000001
v 0.738717 -0.449994 0.291623
v 0.74042 -0.452471 2.7705858092850104E-17
v 0.738717 -0.449994 0.291623
v 0.850533 -0.356698 0.291623
v 0.852449 -0.35852 2.1953018521515455E-17
v 0.850533 -0.356698 0.291623
v 0.834463 -0.564491 3.4565104814874425E-17
v 0.834463 -0.564491 3.4565104814874425E-17
v 0.832935 -0.561725 0.2916230000000001
v 0.336498 -0.528414 0.20804600000000004
v 0.336872 -0.528958 -0.0021539999999999676
v 0.336872 -0.528958 -0.0021539999999999676
v 0.419045 -0.614829 0.20804600000000004
v 0.419411 -0.61526 -0.0021539999999999624
v 0.419411 -0.61526 -0.0021539999999999624
v 0.332356 -0.696598 0.20804600000000006
v 0.332356 -0.696598 0.20804600000000006
v 0.332828 -0.69691 -0.0021539999999999576
v 0.218179 -0.928424 0.2916230000000001
v 0.220191 -0.926191 5.671284217745431E-17
v 0.218179 -0.928424 0.2916230000000001
v 0.101412 -0.841407 0.2916230000000001
v 0.102737 -0.839118 5.138115864034644E-17
v 0.101412 -0.841407 0.2916230000000001
v 0.307235 -0.808649 4.9515470474185397E-17
v 0.307235 -0.808649 4.9515470474185397E-17
v 0.3049 -0.81078 0.2916230000000001
v -0.593006 -0.548663 0.47414900000000004
v -0.656758 -0.724417 0.47414900000000004
v -0.593006 -0.548663 0.47414900000000004
v -0.31816 -0.648385 0.47414900000000004
v -0.593006 -0.548663 0.47414900000000004
v -0.31816 -0.648385 0.47414900000000004
v -0.381989 -0.824204 0.47414900000000004
v -0.31816 -0.648385 0.47414900000000004
v -0.381989 -0.824204 0.47414900000000004
v -0.656758 -0.724417 0.47414900000000004
v -0.381989 -0.824204 0.47414900000000004
v -0.656758 -0.724417 0.47414900000000004
vt 0.506494 0.281743
vt 0.506494 0.332969
vt 0.633079 0.332927
vt 0.573212 0.332927
vt 0.633079 0.332927
vt 0.566828 0.281743
vt 0.633079 0.332927
vt 0.566828 0.332969
vt 0.774114 0.006345
vt 0.682336 0.006345
vt 0.682336 0.045058
vt 0.774114 0.045058
vt 0.432119 0.006345
vt 0.312378 0.006345
vt 0.623466 0.006345
vt 0.498930 0.006345
vt 0.506494 0.281743
vt 0.506494 0.332969
vt 0.633079 0.332927
vt 0.573212 0.332927
vt 0.633079 0.332927
vt 0.566828 0.281743
vt 0.633079 0.332927
vt 0.566828 0.332969
vt 0.368520 0.225184
vt 0.410102 0.225184
vt 0.410102 0.184169
vt 0.368520 0.184169
vt 0.409576 0.183904
vt 0.367987 0.183904
vt 0.410452 0.183904
vt 0.368520 0.184305
vt 0.567201 0.241885
vt 0.501226 0.241885
vt 0.501226 0.275812
vt 0.567201 0.275812
vt 0.576455 0.275127
vt 0.642251 0.275127
vt 0.688361 0.274831
vt 0.642251 0.275127
vt 0.445206 0.309030
vt 0.248191 0.309030
vt 0.248191 0.313296
vt 0.445206 0.313296
vt 0.445206 0.309030
vt 0.248191 0.309030
vt 0.248191 0.313296
vt 0.445206 0.313296
vt 0.445206 0.309030
vt 0.248191 0.309030
vt 0.248191 0.313296
vt 0.445206 0.313296
vt 0.445206 0.309030
vt 0.248191 0.309030
vt 0.248191 0.313296
vt 0.445206 0.313296
vt 0.445206 0.309030
vt 0.248191 0.309030
vt 0.248191 0.313296
vt 0.445206 0.313296
vt 0.445206 0.309030
vt 0.248191 0.309030
vt 0.248191 0.313296
vt 0.445206 0.313296
vt 0.952043 0.079148
vt 0.961977 0.079148
vt 0.962004 0.004447
vt 0.952043 0.004447
vt 0.993052 0.192050
vt 0.993052 0.182526
vt 0.965751 0.079434
vt 0.975712 0.079434
vt 0.452552 0.219309
vt 0.485521 0.219309
vt 0.518284 0.219309
vt 0.548997 0.219309
vt 0.452552 0.166611
vt 0.485521 0.166611
vt 0.518284 0.166611
vt 0.548997 0.166611
vt 0.103552 0.040864
vt 0.103789 0.008237
vt 0.073727 0.008237
vt 0.073727 0.040864
vt 0.106078 0.046283
vt 0.106078 0.078435
vt 0.106629 0.078554
vt 0.135568 0.008237
vt 0.767239 0.195702
vt 0.737078 0.195702
vt 0.703550 0.196010
vt 0.837923 0.165280
vt 0.703550 0.163409
vt 0.737078 0.163101
vt 0.767239 0.163101
vt 0.801142 0.162485
vt 0.854889 0.261503
vt 0.854878 0.234551
vt 0.817339 0.234530
vt 0.817350 0.261524
vt 0.789389 0.229092
vt 0.816727 0.229076
vt 0.719593 0.229131
vt 0.747833 0.229116
vt 0.913742 0.237634
vt 0.867124 0.237634
vt 0.867124 0.275382
vt 0.913742 0.275382
vt 0.913929 0.281124
vt 0.867311 0.281124
vt 0.890024 0.164098
vt 0.893348 0.163833
vt 0.020784 0.032533
vt 0.034702 0.032533
vt 0.049997 0.032533
vt 0.006397 0.032533
vt 0.020784 0.008445
vt 0.034702 0.008445
vt 0.049997 0.008445
vt 0.006397 0.008445
vt 0.452552 0.219309
vt 0.485521 0.219309
vt 0.518284 0.219309
vt 0.548997 0.219309
vt 0.452552 0.166611
vt 0.485521 0.166611
vt 0.518284 0.166611
vt 0.548997 0.166611
vt 0.236861 0.254583
vt 0.347867 0.254583
vt 0.236861 0.243271
vt 0.347867 0.243271
vt 0.349042 0.215461
vt 0.238037 0.215461
vt 0.349042 0.226772
vt 0.238037 0.226772
vt 0.194429 0.263766
vt 0.194429 0.170750
vt 0.135807 0.263766
vt 0.048009 0.263766
vt 0.048009 0.170750
vt 0.374816 0.154924
vt 0.120275 0.170750
vt 0.120275 0.263766
vt 0.177705 0.170750
vt 0.177705 0.263766
vt 0.135807 0.170750
vt 0.015669 0.170772
vt 1.345294 0.243948
vt 1.234289 0.243948
vt 1.345294 0.255260
vt 1.234289 0.255260
vt 1.346470 0.216138
vt 1.235464 0.216138
vt 1.346470 0.227449
vt 1.235464 0.227449
vt 1.235603 0.197579
vt 1.346609 0.197579
vt 1.235603 0.186267
vt 1.346609 0.186267
vt 1.235464 0.227449
vt 1.346470 0.227449
vt 1.235464 0.216138
vt 1.346470 0.216138
vt 1.345294 0.243948
vt 1.234289 0.243948
vt 1.345294 0.255260
vt 1.234289 0.255260
vt 1.346609 0.186267
vt 1.235603 0.186267
vt 1.346609 0.197579
vt 1.235603 0.197579
vt 0.487105 0.155052
vt 0.375124 0.124703
vt 0.436052 0.124932
vt 0.487193 0.138064
vt 0.436052 0.138293
vt 0.375354 0.154792
vt 0.506494 0.281743
vt 0.506494 0.332969
vt 0.633079 0.332927
vt 0.573212 0.332927
vt 0.633079 0.332927
vt 0.566828 0.281743
vt 0.633079 0.332927
vt 0.566828 0.332969
vt 0.767239 0.195702
vt 0.737078 0.195702
vt 0.703550 0.196010
vt 0.837923 0.165280
vt 0.703550 0.163409
vt 0.737078 0.163101
vt 0.767239 0.163101
vt 0.801142 0.162485
vt 0.608261 0.054421
vt 0.608261 0.101034
vt 0.684673 0.101034
vt 0.684673 0.054421
vt 0.523663 0.054421
vt 0.349555 0.054421
vt 0.395128 0.054421
vt 0.473850 0.054421
vt 0.006440 0.059383
vt 0.006440 0.111242
vt 0.049960 0.059383
vt 0.049961 0.111242
vt 0.099393 0.112509
vt 0.099393 0.059108
vt 0.054788 0.112509
vt 0.054788 0.059108
vt 0.054788 0.059108
vt 0.054788 0.112509
vt 0.054788 0.059108
vt 0.099393 0.059108
vt 0.099393 0.059108
vt 0.099393 0.112509
vt 0.054788 0.112509
vt 0.099393 0.112509
vt 0.186429 0.020763
vt 0.154006 0.020763
vt 0.154006 0.043239
vt 0.186429 0.043239
vt 0.144353 0.020455
vt 0.144353 0.042931
vt 0.186429 0.054451
vt 0.194034 0.020763
vt 0.633079 0.281701
vt 0.573212 0.281701
vt 0.633079 0.281701
vt 0.573212 0.281701
vt 0.573212 0.332927
vt 0.633079 0.281701
vt 0.573212 0.281701
vt 0.573212 0.332927
vt 0.633079 0.281701
vt 0.573212 0.281701
vt 0.573212 0.332927
vt 0.633079 0.332927
vt 0.312378 0.045058
vt 0.432118 0.045058
vt 0.623466 0.045058
vt 0.678375 0.045058
vt 0.678375 0.006345
vt 0.498930 0.045058
vt 0.618142 0.045058
vt 0.618142 0.006345
vt 0.435329 0.045058
vt 0.495251 0.045058
vt 0.495251 0.006345
vt 0.435329 0.006345
vt 0.633079 0.281701
vt 0.573212 0.281701
vt 0.633079 0.281701
vt 0.573212 0.281701
vt 0.573212 0.332927
vt 0.633079 0.281701
vt 0.573212 0.281701
vt 0.573212 0.332927
vt 0.633079 0.281701
vt 0.573212 0.281701
vt 0.573212 0.332927
vt 0.633079 0.332927
vt 0.367987 0.224901
vt 0.409576 0.224901
vt 0.410452 0.224901
vt 0.368840 0.224901
vt 0.368840 0.183904
vt 0.368520 0.225301
vt 0.410102 0.225301
vt 0.410102 0.184305
vt 0.642251 0.241200
vt 0.576455 0.241200
vt 0.688361 0.240904
vt 0.650039 0.240904
vt 0.650039 0.274831
vt 0.642251 0.241200
vt 0.576455 0.241200
vt 0.576455 0.275127
vt 0.688361 0.240904
vt 0.650039 0.240904
vt 0.650039 0.274831
vt 0.688361 0.274831
vt 0.978638 0.182526
vt 0.978638 0.192050
vt 0.975685 0.004734
vt 0.965751 0.004734
vt 0.979012 0.004734
vt 0.978897 0.079434
vt 0.992148 0.079434
vt 0.992263 0.004734
vt 0.993053 0.204680
vt 0.993052 0.195130
vt 0.978638 0.195130
vt 0.978638 0.204680
vt 0.421574 0.166611
vt 0.421574 0.219309
vt 0.490757 0.235212
vt 0.467522 0.225247
vt 0.457896 0.249305
vt 0.481134 0.259271
vt 0.135046 0.078435
vt 0.135046 0.046283
vt 0.135597 0.078554
vt 0.135597 0.046402
vt 0.106629 0.046402
vt 0.106127 0.008119
vt 0.106127 0.041101
vt 0.135568 0.041219
vt 0.135607 0.008319
vt 0.135607 0.041301
vt 0.106166 0.041182
vt 0.106166 0.008200
vt 0.734013 0.196010
vt 0.734013 0.163409
vt 0.807462 0.165280
vt 0.837923 0.195224
vt 0.807462 0.195224
vt 0.770679 0.162485
vt 0.801142 0.195086
vt 0.770679 0.195086
vt 0.807462 0.165280
vt 0.807462 0.195224
vt 0.837923 0.195224
vt 0.837923 0.165280
vt 0.816716 0.205701
vt 0.789378 0.205719
vt 0.747822 0.205743
vt 0.719542 0.205756
vt 0.747833 0.229116
vt 0.789389 0.229092
vt 0.789378 0.205719
vt 0.747822 0.205743
vt 0.816716 0.205701
vt 0.816727 0.229076
vt 0.859185 0.229052
vt 0.859174 0.205677
vt 0.867311 0.307651
vt 0.913929 0.307651
vt 0.890024 0.201846
vt 0.866503 0.164098
vt 0.866503 0.201846
vt 0.893348 0.201581
vt 0.916869 0.201581
vt 0.916869 0.163833
vt 0.064000 0.032533
vt 0.064000 0.008445
vt 0.016160 0.037136
vt 0.005778 0.041555
vt 0.020454 0.047797
vt 0.010083 0.052205
vt 0.421574 0.166611
vt 0.421574 0.219309
vt 0.490757 0.235212
vt 0.467522 0.225247
vt 0.457896 0.249305
vt 0.481134 0.259271
vt 0.120275 0.263766
vt 0.120275 0.170750
vt 0.436053 0.138293
vt 0.487193 0.155061
vt 0.487193 0.155061
vt 0.487193 0.138064
vt 0.436053 0.138293
vt 0.177705 0.263766
vt 0.177705 0.170750
vt 0.135807 0.170750
vt 0.135807 0.263766
vt 0.374816 0.154924
vt 0.436053 0.138293
vt 0.436053 0.124932
vt 0.375124 0.124703
vt 0.015697 0.263766
vt 0.048009 0.263766
vt 0.048009 0.170750
vt 0.436052 0.138293
vt 0.487105 0.155052
vt 0.375124 0.124703
vt 0.436052 0.138293
vt 0.633079 0.281701
vt 0.573212 0.281701
vt 0.633079 0.281701
vt 0.573212 0.281701
vt 0.573212 0.332927
vt 0.633079 0.281701
vt 0.573212 0.281701
vt 0.573212 0.332927
vt 0.633079 0.281701
vt 0.573212 0.281701
vt 0.573212 0.332927
vt 0.633079 0.332927
vt 0.734013 0.196010
vt 0.734013 0.163409
vt 0.807462 0.165280
vt 0.837923 0.195224
vt 0.807462 0.195224
vt 0.770679 0.162485
vt 0.801142 0.195086
vt 0.770679 0.195086
vt 0.807462 0.165280
vt 0.807462 0.195224
vt 0.837923 0.195224
vt 0.837923 0.165280
vt 0.395128 0.101034
vt 0.349555 0.101034
vt 0.473850 0.101034
vt 0.398939 0.054421
vt 0.398939 0.101034
vt 0.523663 0.101034
vt 0.477953 0.054421
vt 0.477953 0.101034
vt 0.099393 0.112509
vt 0.099393 0.059108
vt 0.054788 0.059108
vt 0.054788 0.112509
vt 0.154006 0.054451
vt 0.194034 0.043239
vt 0.186429 0.008706
vt 0.154006 0.008706
vt 0.485521 0.166611
vt 0.485521 0.219309
vt 0.485521 0.166611
vt 0.518284 0.166611
vt 0.518284 0.219309
vt 0.518284 0.166611
vt 0.452552 0.219309
vt 0.452552 0.219309
vt 0.452552 0.166611
vt 0.020784 0.008445
vt 0.020784 0.032533
vt 0.020784 0.032533
vt 0.034702 0.008445
vt 0.034702 0.032533
vt 0.034702 0.032533
vt 0.049997 0.008445
vt 0.049997 0.008445
vt 0.049997 0.032533
vt 0.485521 0.166611
vt 0.485521 0.219309
vt 0.485521 0.166611
vt 0.518284 0.166611
vt 0.518284 0.219309
vt 0.518284 0.166611
vt 0.452552 0.219309
vt 0.452552 0.219309
vt 0.452552 0.166611
vt 0.154006 0.043239
vt 0.154006 0.020763
vt 0.154006 0.043239
vt 0.186429 0.043239
vt 0.154006 0.043239
vt 0.186429 0.043239
vt 0.186429 0.020763
vt 0.186429 0.043239
vt 0.186429 0.020763
vt 0.154006 0.020763
vt 0.186429 0.020763
vt 0.154006 0.020763
vn 0 6.123233995736766E-17 1
vn -0 -9.999999999387675E-07 1
vn 0.940765 0.339058 -2.0761314721265164E-17
vn 0.940765 0.339058 -2.0761314721265164E-17
vn 0.339239 -0.9407 5.760126219789575E-17
vn -0 -9.999999999387675E-07 1
vn -0.940994 -0.338421 -0.0006519999999999793
vn -1E-06 -9.999999999387675E-07 1
vn 0 6.123233995736766E-17 1
vn 0 6.123233995736766E-17 1
vn 0 6.123233995736766E-17 1
vn 0 6.123233995736766E-17 1
vn -0.191004 -0.981589 6.010499134641256E-17
vn -0.191004 -0.981589 6.010499134641256E-17
vn -0.98114 0.193301 -1.1836272546099126E-17
vn 0.192914 0.981216 -6.008215168360847E-17
vn 0 6.123233995736766E-17 1
vn 0 6.123233995736766E-17 1
vn -0.006278 0.99998 -6.12311153105685E-17
vn -0.006278 0.99998 -6.12311153105685E-17
vn 0.999979 0.00647 -3.9617323952416876E-19
vn 0 6.123233995736766E-17 1
vn 0.005601 -0.999984 -0.0006519999999999388
vn 1E-06 -9.999999999387675E-07 1
vn -0 6.123233995736766E-17 1
vn -0 6.123233995736766E-17 1
vn -0 6.123233995736766E-17 1
vn -0 6.123233995736766E-17 1
vn 0.999991 -0.004145 2.5380804912328896E-19
vn 0.999991 -0.004145 2.5380804912328896E-19
vn -0.004143 -0.999991 6.123178886630805E-17
vn -0.999991 0.004142 -2.5362435210341684E-19
vn -0.000143 -2.7999999999938766E-05 1
vn -0.000143 -2.7999999999938766E-05 1
vn -0.000143 -2.7999999999938766E-05 1
vn -0.000143 -2.7999999999938766E-05 1
vn 0.190099 -0.981765 6.011576823824506E-17
vn 0.190099 -0.981765 6.011576823824506E-17
vn -0.981884 -0.189483 -0.0006479999999999884
vn -0.188604 0.982053 -6.013340315215278E-17
vn -0.01514 0.16439100000000006 0.986279
vn -0.01514 0.16439100000000006 0.986279
vn -0.01514 0.16439100000000006 0.986279
vn -0.01514 0.16439000000000006 0.986279
vn 0.01514 -0.16439100000000006 -0.986279
vn 0.01514 -0.16439100000000006 -0.986279
vn 0.01514 -0.16439100000000006 -0.986279
vn 0.01514 -0.16439000000000006 -0.986279
vn -0.074987 0.16607900000000006 0.983257
vn -0.074987 0.16607900000000006 0.983257
vn -0.074987 0.16607900000000006 0.983257
vn -0.074987 0.16607900000000006 0.983257
vn 0.074987 -0.16607900000000006 -0.983257
vn 0.074987 -0.16607900000000006 -0.983257
vn 0.074987 -0.16607900000000006 -0.983257
vn 0.074987 -0.16607900000000006 -0.983257
vn -0 0.19735400000000006 0.980332
vn 0 0.19735400000000006 0.980332
vn -0 0.19735400000000006 0.980332
vn -0 0.19735400000000006 0.980332
vn 0 -0.19735400000000006 -0.980332
vn -0 -0.19735400000000006 -0.980332
vn 0 -0.19735400000000006 -0.980332
vn 0 -0.19735400000000006 -0.980332
vn -0.432906 0.900924 -0.030465000000000055
vn -0.432861 0.90096 -0.030040000000000056
vn -0.432906 0.900924 -0.030465000000000055
vn -0.432951 0.900888 -0.030889000000000055
vn 0.915741 0.401208 -0.021246000000000025
vn 0.915557 0.401595 -0.021831000000000024
vn 0.432892 -0.901069 0.026064000000000056
vn 0.432854 -0.901078 0.026363000000000057
vn 0.231098 -0.972881 0.009849000000000059
vn -0.972388 -0.23335 -0.0032049999999999856
vn -0.23119 0.972874 -0.008156000000000059
vn 0.972308 0.233662 0.004421999999999986
vn -0.397278 -0.917678 0.006133000000000057
vn -0.917196 0.398352 -0.008178000000000024
vn 0.396944 0.917835 -0.0037670000000000563
vn 0.917222 -0.398281 0.008740000000000024
vn 0 6.123233995736766E-17 1
vn 0 6.123233995736766E-17 1
vn 0 6.123233995736766E-17 1
vn 0 6.123233995736766E-17 1
vn -0.963431 -0.267956 1.6407572885616412E-17
vn -0.963431 -0.267956 1.6407572885616412E-17
vn -0.267955 0.963431 -5.899313451746669E-17
vn 0.963431 0.267956 -1.6407572885616412E-17
vn -0.000452 0.007233000000000061 0.999974
vn -0.000342 0.007339000000000062 0.999973
vn -0.999988 0.004813 -2.9471125221481053E-19
vn -0.01833 -0.999832 2.0000000000612218E-06
vn -0.999988 0.004813 -2.9471125221481053E-19
vn -0.000452 0.007233000000000061 0.999974
vn -0.000562 0.007128000000000061 0.999974
vn 0.999981 -0.006242 1.0000000000003822E-06
vn -0.000735 4.800000000006123E-05 1
vn -0.000889 0.0002930000000000613 1
vn -0.000735 4.800000000006123E-05 1
vn -0.000581 -0.00019699999999993876 1
vn -0.99901 0.018527999999999996 -0.040436
vn -0.999093 0.021794999999999995 -0.036584
vn 0.998259 -0.010947999999999996 0.057955
vn 0.998352 -0.012626999999999996 0.055982
vn 0 6.123233995736766E-17 1
vn 0 6.123233995736766E-17 1
vn 0 6.123233995736766E-17 1
vn 0 6.123233995736766E-17 1
vn -0.006252 0.99998 -6.12311153105685E-17
vn -0.006252 0.99998 -6.12311153105685E-17
vn 0.999981 0.006244 -3.823347306938037E-19
vn -0.999981 -0.006247 3.8251842771367577E-19
vn 0.026622 0.999643 -0.002129000000000061
vn 0.939501 -0.34254 0.002310000000000021
vn -0.026048 -0.99966 0.0014230000000000612
vn -0.956227 -0.292623 -0.001376999999999982
vn 0.02641 0.999648 -0.0025430000000000613
vn 0.711375 0.21837900000000002 0.668024
vn -0.024697 -0.942333 0.33376600000000006
vn -0.939031 0.343823 -0.002499000000000021
vn 0.892327 0.451282 0.009848999999999972
vn 0.453357 -0.891323 -0.0032049999999999453
vn -0.8923 -0.451369 -0.008155999999999972
vn -0.453643 0.891173 0.004421999999999945
vn 0.98496 -0.172676 0.006133000000000011
vn -0.173833 -0.984741 -0.008177999999999939
vn -0.985035 0.172314 -0.0037670000000000104
vn 0.173757 0.98475 0.008739999999999939
vn -0 6.123233995736766E-17 1
vn 0 6.123233995736766E-17 1
vn -1E-06 -9.999999999387675E-07 1
vn -0 6.123233995736766E-17 1
vn -0.019878 0.013816000000000061 0.999707
vn -0.019878 0.013816000000000061 0.999707
vn -0.019878 0.01381500000000006 0.999707
vn -0.019878 0.013816000000000061 0.999707
vn 0.339249 0.940697 3.999999999942399E-06
vn 0.339249 0.940697 3.999999999942399E-06
vn 0.339248 0.940697 -5.760107850087588E-17
vn 0 6.123233995736766E-17 1
vn 0 6.123233995736766E-17 1
vn -0.941009 0.338375 -0.002030000000000021
vn 0.339248 0.940697 -5.760107850087588E-17
vn 0.339248 0.940697 -5.760107850087588E-17
vn 0.339248 0.940697 -5.760107850087588E-17
vn 0.339249 0.940697 3.999999999942399E-06
vn 0.339248 0.940697 -5.760107850087588E-17
vn -0.341282 -0.939961 5.755601149866727E-17
vn -0.040504 0.023198000000000062 0.99891
vn -0.040503 0.023198000000000062 0.99891
vn -0.040504 0.023198000000000062 0.99891
vn -0.040504 0.023198000000000062 0.99891
vn -0.024139 0.006378000000000062 0.999688
vn -0.024139 0.006378000000000062 0.999688
vn -0.024139 0.0063770000000000614 0.999688
vn -0.024139 0.006378000000000062 0.999688
vn 0 6.123233995736766E-17 1
vn 0 1.0000000000612324E-06 1
vn -0 6.123233995736766E-17 1
vn 0 6.123233995736766E-17 1
vn 0 6.123233995736766E-17 1
vn -0 6.123233995736766E-17 1
vn 0 -9.999999999387675E-07 1
vn 0 6.123233995736766E-17 1
vn -0.010779 -0.012937999999999939 0.999858
vn -0.010779 -0.01293699999999994 0.999858
vn -0.010778 -0.012937999999999939 0.999858
vn -0.010779 -0.012937999999999939 0.999858
vn 0 6.123233995736766E-17 1
vn 0 6.123233995736766E-17 1
vn -0 6.123233995736766E-17 1
vn 0 6.123233995736766E-17 1
vn 0.940698 -0.339246 -8.999999999979228E-06
vn 0.940995 -0.338421 6.400000000002072E-05
vn 0.941155 -0.337976 2.0695061329431293E-17
vn 0.940698 -0.339246 -8.999999999979228E-06
vn 0.940698 -0.339246 -8.999999999979228E-06
vn 0.940995 -0.338421 6.400000000002072E-05
vn 0 6.123233995736766E-17 1
vn 1E-06 6.123233995736766E-17 1
vn -0.171147 0.985246 -6.032891801363665E-17
vn -0.171147 0.985246 -6.032891801363665E-17
vn 0.985213 0.171336 -1.0491304198935544E-17
vn 1E-06 6.123233995736766E-17 1
vn 0.17048 -0.985361 -0.0006529999999999397
vn 1E-06 -9.999999999387675E-07 1
vn -0.005606 0.004594000000000062 0.999974
vn -0.005608 0.004747000000000062 0.999973
vn -0.684431 -0.729077 4.464309071909774E-17
vn 0.719759 -0.694224 2.0000000000425087E-06
vn -0.684432 -0.729077 4.464309071909774E-17
vn -0.005606 0.004594000000000062 0.999974
vn -0.005603 0.004441000000000061 0.999974
vn 0.685472 0.728099 9.999999999554168E-07
vn 0 6.123233995736766E-17 1
vn 0 6.123233995736766E-17 1
vn 0 6.123233995736766E-17 1
vn 0 6.123233995736766E-17 1
vn -0.569284 -0.822141 5.0341617204890205E-17
vn 0.568055 0.822991 -5.039366469385397E-17
vn 0.568055 0.822991 -5.039366469385397E-17
vn -0.822652 0.568545 -3.4813340721061597E-17
vn -0 6.123233995736766E-17 1
vn -0 1.0000000000612324E-06 1
vn 0 6.123233995736766E-17 1
vn -0 6.123233995736766E-17 1
vn -0.566713 -0.823915 5.045024337597457E-17
vn -0.566713 -0.823915 5.045024337597457E-17
vn -0.566713 -0.823915 5.045024337597457E-17
vn -0.566713 -0.823915 5.045024337597457E-17
vn 0.823917 -0.56671 3.4700979377239827E-17
vn 0.823917 -0.56671 3.4700979377239827E-17
vn -0.823913 0.566717 -3.470140800361953E-17
vn -0.823913 0.566717 -3.470140800361953E-17
vn 0.823917 -0.56671 3.4700979377239827E-17
vn 0.823917 -0.56671 3.4700979377239827E-17
vn -0.823913 0.566717 -3.470140800361953E-17
vn -0.823913 0.566717 -3.470140800361953E-17
vn 0.512879 -0.540823 0.666683
vn -0.662408 -0.628165 0.40819700000000003
vn -0.513029 0.540685 0.666679
vn 0.662267 0.628263 0.40827399999999997
vn -0.993326 -0.115341 7.062599323022744E-18
vn -0.115351 0.993325 -6.082361408815223E-17
vn 0.993344 0.115186 -1.000000000007053E-06
vn 0.115061 -0.993358 -9.999999999391743E-07
vn 0.940765 0.339058 -2.0761314721265164E-17
vn 0.940765 0.339058 -2.0761314721265164E-17
vn 0.339239 -0.9407 5.760126219789575E-17
vn 0.339239 -0.9407 5.760126219789575E-17
vn 0.339239 -0.9407 5.760126219789575E-17
vn -0.94088 -0.33874 -0.00032599999999997925
vn -0.940765 -0.339059 2.0761375953605122E-17
vn -0.94088 -0.33874 -0.00032599999999997925
vn -0.337946 0.941165 0.0013509999999999423
vn -0.339245 0.940694 0.002700999999999942
vn -0.337946 0.941165 0.0013509999999999423
vn -0.336645 0.941632 -5.765833073873603E-17
vn -0.191004 -0.981589 6.010499134641256E-17
vn -0.191004 -0.981589 6.010499134641256E-17
vn -0.98114 0.193301 -1.1836272546099126E-17
vn -0.98114 0.193301 -1.1836272546099126E-17
vn -0.98114 0.193301 -1.1836272546099126E-17
vn 0.192914 0.981216 -6.008215168360847E-17
vn 0.192914 0.981216 -6.008215168360847E-17
vn 0.192914 0.981216 -6.008215168360847E-17
vn 0.981429 -0.191828 1.1746077309341923E-17
vn 0.981429 -0.191828 1.1746077309341923E-17
vn 0.981429 -0.191828 1.1746077309341923E-17
vn 0.981429 -0.191828 1.1746077309341923E-17
vn -0.006278 0.99998 -6.12311153105685E-17
vn -0.006278 0.99998 -6.12311153105685E-17
vn 0.999979 0.00647 -3.9617323952416876E-19
vn 0.999979 0.00647 -3.9617323952416876E-19
vn 0.999979 0.00647 -3.9617323952416876E-19
vn 0.00594 -0.999982 -0.00032599999999993875
vn 0.006279 -0.99998 6.12311153105685E-17
vn 0.00594 -0.999982 -0.00032599999999993875
vn -0.999986 -0.005096 0.0013510000000000002
vn -0.999975 -0.006477 0.0027010000000000003
vn -0.999986 -0.005096 0.0013510000000000002
vn -0.999993 -0.003714 2.2741691060166348E-19
vn 0.999991 -0.004145 2.5380804912328896E-19
vn 0.999991 -0.004145 2.5380804912328896E-19
vn -0.004143 -0.999991 6.123178886630805E-17
vn -0.004143 -0.999991 6.123178886630805E-17
vn -0.004143 -0.999991 6.123178886630805E-17
vn -0.999991 0.004142 -2.5362435210341684E-19
vn -0.999991 0.004142 -2.5362435210341684E-19
vn -0.999991 0.004142 -2.5362435210341684E-19
vn 0.190099 -0.981765 6.011576823824506E-17
vn 0.190099 -0.981765 6.011576823824506E-17
vn -0.98182 -0.189813 -0.0003239999999999884
vn -0.981756 -0.190144 1.1642962048853717E-17
vn -0.98182 -0.189813 -0.0003239999999999884
vn -0.189352 0.981908 0.00134699999999994
vn -0.190099 0.981761 0.00269299999999994
vn -0.189352 0.981908 0.00134699999999994
vn 0.981757 0.190141 -1.1642778351833844E-17
vn 0.981757 0.190141 -1.1642778351833844E-17
vn 0.981757 0.190141 -1.1642778351833844E-17
vn 0.981757 0.190141 -1.1642778351833844E-17
vn 0.915741 0.401208 -0.021246000000000025
vn 0.915924 0.400821 -0.020662000000000024
vn 0.432892 -0.901069 0.026064000000000056
vn 0.43293 -0.901059 0.025764000000000054
vn 0.003236 -0.00017199999999993878 0.999995
vn 0.003378 -0.0006749999999999388 0.999994
vn 0.003236 -0.00017199999999993878 0.999995
vn 0.003093 0.0003310000000000613 0.999995
vn -0.908065 -0.418783 0.006201000000000026
vn -0.907961 -0.419015 0.005870000000000026
vn -0.908065 -0.418783 0.006201000000000026
vn -0.90817 -0.418552 0.006532000000000026
vn 0.917222 -0.398281 0.008740000000000024
vn 0.972308 0.233662 0.004421999999999986
vn 0 6.123233995736766E-17 1
vn 0 6.123233995736766E-17 1
vn 0 6.123233995736766E-17 1
vn 0 6.123233995736766E-17 1
vn -0.963431 -0.267956 1.6407572885616412E-17
vn -0.963431 -0.267956 1.6407572885616412E-17
vn -0.267955 0.963431 -5.899313451746669E-17
vn -0.267955 0.963431 -5.899313451746669E-17
vn -0.267955 0.963431 -5.899313451746669E-17
vn 0.963431 0.267956 -1.6407572885616412E-17
vn 0.963431 0.267956 -1.6407572885616412E-17
vn 0.963431 0.267956 -1.6407572885616412E-17
vn 0.267955 -0.963431 5.899313451746669E-17
vn 0.267955 -0.963431 5.899313451746669E-17
vn 0.267955 -0.963431 5.899313451746669E-17
vn 0.267955 -0.963431 5.899313451746669E-17
vn -0.999988 0.004813 -2.9471125221481053E-19
vn -0.999988 0.004814 9.999999999997052E-07
vn -0.018329 -0.999832 1.000000000061222E-06
vn -0.018329 -0.999832 1.000000000061222E-06
vn -0.018327 -0.999832 6.122205292425483E-17
vn 0.999981 -0.006241 1.0000000000003822E-06
vn 0.999981 -0.006241 1.0000000000003822E-06
vn 0.999981 -0.006241 3.8215103367393157E-19
vn 0.018337 0.999832 -3.000000000061222E-06
vn 0.018335 0.999832 -6.122205292425483E-17
vn 0.018337 0.999832 -3.000000000061222E-06
vn 0.01834 0.999832 -5.000000000061222E-06
vn -0.99915 0.025061999999999997 -0.032731
vn -0.999093 0.021794999999999995 -0.036584
vn 0.998259 -0.010947999999999996 0.057955
vn 0.99816 -0.009267999999999997 0.059927
vn -0.012198 -0.999869 0.01066700000000006
vn -0.013149 -0.999874 0.00884900000000006
vn -0.012198 -0.999869 0.01066700000000006
vn -0.011246 -0.999859 0.01248500000000006
vn 0.00951 0.999888 -0.011591000000000061
vn 0.011724 0.999904 -0.007391000000000062
vn 0.00951 0.999888 -0.011591000000000061
vn 0.007297 0.999849 -0.01579000000000006
vn -0.006252 0.99998 -6.12311153105685E-17
vn -0.006252 0.99998 -6.12311153105685E-17
vn 0.999981 0.006244 -3.823347306938037E-19
vn 0.999981 0.006244 -3.823347306938037E-19
vn 0.999981 0.006244 -3.823347306938037E-19
vn -0.999981 -0.006247 3.8251842771367577E-19
vn -0.999981 -0.006247 3.8251842771367577E-19
vn -0.999981 -0.006247 3.8251842771367577E-19
vn -0.956227 -0.292623 -0.001376999999999982
vn -0.939031 0.343823 -0.002499000000000021
vn -0.024697 -0.942333 0.33376600000000006
vn 0 6.123233995736766E-17 1
vn 0.711375 0.21837900000000002 0.668024
vn 0.02641 0.999648 -0.0025430000000000613
vn 0.173757 0.98475 0.008739999999999939
vn -0.453643 0.891173 0.004421999999999945
vn -0 6.123233995736766E-17 1
vn -0 6.123233995736766E-17 1
vn -0 6.123233995736766E-17 1
vn 0 6.123233995736766E-17 1
vn 0 6.123233995736766E-17 1
vn 0 6.123233995736766E-17 1
vn -0.941009 0.338375 -0.002030000000000021
vn -0.941009 0.338375 -0.002030000000000021
vn -0.940697 0.339248 -2.0772948865857063E-17
vn -0.940697 0.339248 -2.0772948865857063E-17
vn -0.940697 0.339248 -2.0772948865857063E-17
vn -0 6.123233995736766E-17 1
vn -0 6.123233995736766E-17 1
vn -0 6.123233995736766E-17 1
vn -0 6.123233995736766E-17 1
vn -0.941193 0.337869 -2.0688509469055852E-17
vn -0.941193 0.337869 -2.0688509469055852E-17
vn -0.941193 0.337869 -2.0688509469055852E-17
vn -0.941193 0.33787 -2.0688570701395812E-17
vn -0.341282 -0.939961 5.755601149866727E-17
vn -0.341282 -0.939961 5.755601149866727E-17
vn -0.341299 -0.939955 -4.2999999999942444E-05
vn 0.941664 -0.336495 0.006379000000000021
vn 0.941664 -0.336495 0.006379000000000021
vn 0.941664 -0.336495 0.006379000000000021
vn 0.941155 -0.337976 2.0695061329431293E-17
vn -0.171147 0.985246 -6.032891801363665E-17
vn -0.171147 0.985246 -6.032891801363665E-17
vn 0.985213 0.171336 -1.0491304198935544E-17
vn 0.985213 0.171336 -1.0491304198935544E-17
vn 0.985213 0.171336 -1.0491304198935544E-17
vn 0.170814 -0.985303 -0.0003259999999999397
vn 0.171148 -0.985245 6.03288567812967E-17
vn 0.170814 -0.985303 -0.0003259999999999397
vn -0.985446 -0.169982 0.0013510000000000104
vn -0.985208 -0.171342 0.0027010000000000103
vn -0.985446 -0.169982 0.0013510000000000104
vn -0.985681 -0.16862 1.0324997163611334E-17
vn -0.684432 -0.729077 4.464309071909774E-17
vn -0.684432 -0.729077 1.000000000044643E-06
vn 0.71976 -0.694223 1.000000000042509E-06
vn 0.71976 -0.694223 1.000000000042509E-06
vn 0.719761 -0.694222 4.250883750988369E-17
vn 0.685472 0.728099 9.999999999554168E-07
vn 0.685472 0.728099 9.999999999554168E-07
vn 0.685472 0.728099 -4.458320549061944E-17
vn -0.719754 0.694229 -2.000000000042509E-06
vn -0.719755 0.694228 -4.2509204903923436E-17
vn -0.719754 0.694229 -2.000000000042509E-06
vn -0.719752 0.694231 -5.00000000004251E-06
vn 0.568055 0.822991 -5.039366469385397E-17
vn 0.568055 0.822991 -5.039366469385397E-17
vn -0.822652 0.568545 -3.4813340721061597E-17
vn -0.822652 0.568545 -3.4813340721061597E-17
vn -0.822652 0.568545 -3.4813340721061597E-17
vn -0.569284 -0.822141 5.0341617204890205E-17
vn -0.569284 -0.822141 5.0341617204890205E-17
vn -0.569284 -0.822141 5.0341617204890205E-17
vn 0.566715 0.823914 -5.045018214363462E-17
vn 0.566715 0.823914 -5.045018214363462E-17
vn 0.566715 0.823914 -5.045018214363462E-17
vn 0.566715 0.823914 -5.045018214363462E-17
vn -0.115351 0.993325 -6.082361408815223E-17
vn 0.993344 0.115186 -1.000000000007053E-06
vn 0.115061 -0.993358 -9.999999999391743E-07
vn -0.993326 -0.115341 7.062599323022744E-18
vn -0.917196 0.398352 -0.008178000000000024
vn -0.972388 -0.23335 -0.0032049999999999856
vn -0.917196 0.398352 -0.008178000000000024
vn 0.396944 0.917835 -0.0037670000000000563
vn -0.23119 0.972874 -0.008156000000000059
vn 0.396944 0.917835 -0.0037670000000000563
vn 0.231098 -0.972881 0.009849000000000059
vn 0.231098 -0.972881 0.009849000000000059
vn -0.397278 -0.917678 0.006133000000000057
vn 0.02641 0.999648 -0.0025430000000000613
vn 0.026622 0.999643 -0.002129000000000061
vn 0.026622 0.999643 -0.002129000000000061
vn 0.711375 0.21837900000000002 0.668024
vn 0.939501 -0.34254 0.002310000000000021
vn 0.939501 -0.34254 0.002310000000000021
vn -0.024697 -0.942333 0.33376600000000006
vn -0.024697 -0.942333 0.33376600000000006
vn -0.026048 -0.99966 0.0014230000000000612
vn -0.173833 -0.984741 -0.008177999999999939
vn 0.453357 -0.891323 -0.0032049999999999453
vn -0.173833 -0.984741 -0.008177999999999939
vn -0.985035 0.172314 -0.0037670000000000104
vn -0.8923 -0.451369 -0.008155999999999972
vn -0.985035 0.172314 -0.0037670000000000104
vn 0.892327 0.451282 0.009848999999999972
vn 0.892327 0.451282 0.009848999999999972
vn 0.98496 -0.172676 0.006133000000000011
vn -0.513029 0.540685 0.666679
vn -0.662408 -0.628165 0.40819700000000003
vn -0.513029 0.540685 0.666679
vn 0.662267 0.628263 0.40827399999999997
vn -0.513029 0.540685 0.666679
vn 0.662267 0.628263 0.40827399999999997
vn 0.512879 -0.540823 0.666683
vn 0.662267 0.628263 0.40827399999999997
vn 0.512879 -0.540823 0.666683
vn -0.662408 -0.628165 0.40819700000000003
vn 0.512879 -0.540823 0.666683
vn -0.662408 -0.628165 0.40819700000000003
g Standard_3
f 457/457/457 418/418/418 417/417/417
f 417/417/417 456/456/456 455/455/455
f 454/454/454 226/226/226 416/416/416
f 416/416/416 453/453/453 452/452/452
f 451/451/451 225/225/225 415/415/415
f 415/415/415 450/450/450 449/449/449
f 448/448/448 224/224/224 223/223/223
f 223/223/223 447/447/447 446/446/446
f 221/221/221 220/220/220 219/219/219
f 219/219/219 222/222/222 221/221/221
f 411/411/411 414/414/414 413/413/413
f 413/413/413 412/412/412 411/411/411
f 217/217/217 213/213/213 214/214/214
f 214/214/214 218/218/218 217/217/217
f 216/216/216 212/212/212 211/211/211
f 211/211/211 215/215/215 216/216/216
f 210/210/210 208/208/208 207/207/207
f 207/207/207 209/209/209 210/210/210
f 206/206/206 204/204/204 203/203/203
f 203/203/203 205/205/205 206/206/206
f 408/408/408 410/410/410 409/409/409
f 409/409/409 199/199/199 408/408/408
f 405/405/405 407/407/407 406/406/406
f 406/406/406 202/202/202 405/405/405
f 403/403/403 404/404/404 200/200/200
f 200/200/200 201/201/201 403/403/403
f 197/197/197 196/196/196 195/195/195
f 195/195/195 198/198/198 197/197/197
f 399/399/399 402/402/402 401/401/401
f 401/401/401 400/400/400 399/399/399
f 396/396/396 398/398/398 397/397/397
f 397/397/397 194/194/194 396/396/396
f 393/393/393 395/395/395 394/394/394
f 394/394/394 190/190/190 393/393/393
f 391/391/391 392/392/392 191/191/191
f 191/191/191 189/189/189 391/391/391
f 187/187/187 193/193/193 192/192/192
f 192/192/192 188/188/188 187/187/187
f 387/387/387 390/390/390 389/389/389
f 389/389/389 388/388/388 387/387/387
f 384/384/384 185/185/185 386/386/386
f 386/386/386 385/385/385 384/384/384
f 381/381/381 183/183/183 383/383/383
f 383/383/383 382/382/382 381/381/381
f 379/379/379 181/181/181 182/182/182
f 182/182/182 380/380/380 379/379/379
f 180/180/180 179/179/179 184/184/184
f 184/184/184 186/186/186 180/180/180
f 175/175/175 174/174/174 378/378/378
f 377/377/377 376/376/376 375/375/375
f 174/174/174 178/178/178 173/173/173
f 173/173/173 176/176/176 177/177/177
f 172/172/172 170/170/170 169/169/169
f 169/169/169 171/171/171 172/172/172
f 168/168/168 166/166/166 165/165/165
f 165/165/165 167/167/167 168/168/168
f 164/164/164 162/162/162 161/161/161
f 161/161/161 163/163/163 164/164/164
f 160/160/160 158/158/158 157/157/157
f 157/157/157 159/159/159 160/160/160
f 156/156/156 154/154/154 153/153/153
f 153/153/153 155/155/155 156/156/156
f 152/152/152 150/150/150 149/149/149
f 149/149/149 151/151/151 152/152/152
f 148/148/148 374/374/374 373/373/373
f 373/373/373 372/372/372 148/148/148
f 368/368/368 371/371/371 370/370/370
f 370/370/370 369/369/369 368/368/368
f 364/364/364 367/367/367 366/366/366
f 366/366/366 365/365/365 364/364/364
f 363/363/363 362/362/362 361/361/361
f 360/360/360 142/142/142 359/359/359
f 357/357/357 140/140/140 141/141/141
f 141/141/141 358/358/358 357/357/357
f 146/146/146 145/145/145 138/138/138
f 138/138/138 137/137/137 146/146/146
f 144/144/144 143/143/143 147/147/147
f 147/147/147 139/139/139 144/144/144
f 136/136/136 134/134/134 133/133/133
f 133/133/133 135/135/135 136/136/136
f 132/132/132 130/130/130 129/129/129
f 129/129/129 131/131/131 132/132/132
f 353/353/353 356/356/356 355/355/355
f 355/355/355 354/354/354 353/353/353
f 351/351/351 445/445/445 444/444/444
f 443/443/443 352/352/352 351/351/351
f 442/442/442 128/128/128 124/124/124
f 124/124/124 441/441/441 440/440/440
f 439/439/439 127/127/127 123/123/123
f 123/123/123 438/438/438 437/437/437
f 125/125/125 126/126/126 122/122/122
f 122/122/122 121/121/121 125/125/125
f 349/349/349 350/350/350 348/348/348
f 349/349/349 348/348/348 347/347/347
f 345/345/345 436/436/436 435/435/435
f 434/434/434 346/346/346 345/345/345
f 119/119/119 115/115/115 433/433/433
f 432/432/432 431/431/431 119/119/119
f 118/118/118 114/114/114 430/430/430
f 429/429/429 428/428/428 118/118/118
f 113/113/113 116/116/116 120/120/120
f 120/120/120 117/117/117 113/113/113
f 112/112/112 344/344/344 343/343/343
f 343/343/343 342/342/342 112/112/112
f 339/339/339 341/341/341 340/340/340
f 340/340/340 111/111/111 339/339/339
f 109/109/109 338/338/338 337/337/337
f 337/337/337 110/110/110 109/109/109
f 107/107/107 106/106/106 105/105/105
f 105/105/105 108/108/108 107/107/107
f 333/333/333 336/336/336 335/335/335
f 335/335/335 334/334/334 333/333/333
f 329/329/329 332/332/332 331/331/331
f 331/331/331 330/330/330 329/329/329
f 103/103/103 328/328/328 327/327/327
f 327/327/327 104/104/104 103/103/103
f 102/102/102 101/101/101 326/326/326
f 326/326/326 325/325/325 102/102/102
f 99/99/99 98/98/98 97/97/97
f 97/97/97 100/100/100 99/99/99
f 321/321/321 324/324/324 323/323/323
f 323/323/323 322/322/322 321/321/321
f 318/318/318 320/320/320 319/319/319
f 319/319/319 96/96/96 318/318/318
f 315/315/315 317/317/317 316/316/316
f 316/316/316 92/92/92 315/315/315
f 313/313/313 314/314/314 93/93/93
f 93/93/93 91/91/91 313/313/313
f 89/89/89 95/95/95 94/94/94
f 94/94/94 90/90/90 89/89/89
f 309/309/309 312/312/312 311/311/311
f 311/311/311 310/310/310 309/309/309
f 306/306/306 88/88/88 308/308/308
f 308/308/308 307/307/307 306/306/306
f 303/303/303 87/87/87 305/305/305
f 305/305/305 304/304/304 303/303/303
f 301/301/301 86/86/86 85/85/85
f 85/85/85 302/302/302 301/301/301
f 81/81/81 84/84/84 83/83/83
f 83/83/83 82/82/82 81/81/81
f 297/297/297 300/300/300 299/299/299
f 299/299/299 298/298/298 297/297/297
f 295/295/295 427/427/427 426/426/426
f 425/425/425 296/296/296 295/295/295
f 424/424/424 80/80/80 76/76/76
f 76/76/76 423/423/423 422/422/422
f 421/421/421 79/79/79 75/75/75
f 75/75/75 420/420/420 419/419/419
f 77/77/77 78/78/78 74/74/74
f 74/74/74 73/73/73 77/77/77
f 291/291/291 294/294/294 293/293/293
f 293/293/293 292/292/292 291/291/291
f 287/287/287 290/290/290 289/289/289
f 289/289/289 288/288/288 287/287/287
f 285/285/285 72/72/72 71/71/71
f 71/71/71 286/286/286 285/285/285
f 283/283/283 70/70/70 69/69/69
f 69/69/69 284/284/284 283/283/283
f 67/67/67 66/66/66 65/65/65
f 65/65/65 68/68/68 67/67/67
f 63/63/63 64/64/64 61/61/61
f 61/61/61 62/62/62 63/63/63
f 59/59/59 58/58/58 57/57/57
f 57/57/57 60/60/60 59/59/59
f 55/55/55 56/56/56 53/53/53
f 53/53/53 54/54/54 55/55/55
f 51/51/51 50/50/50 49/49/49
f 49/49/49 52/52/52 51/51/51
f 47/47/47 48/48/48 45/45/45
f 45/45/45 46/46/46 47/47/47
f 43/43/43 42/42/42 41/41/41
f 41/41/41 44/44/44 43/43/43
f 279/279/279 282/282/282 281/281/281
f 281/281/281 280/280/280 279/279/279
f 276/276/276 40/40/40 278/278/278
f 278/278/278 277/277/277 276/276/276
f 273/273/273 39/39/39 275/275/275
f 275/275/275 274/274/274 273/273/273
f 271/271/271 38/38/38 37/37/37
f 37/37/37 272/272/272 271/271/271
f 35/35/35 34/34/34 33/33/33
f 33/33/33 36/36/36 35/35/35
f 268/268/268 32/32/32 270/270/270
f 270/270/270 269/269/269 268/268/268
f 265/265/265 31/31/31 267/267/267
f 267/267/267 266/266/266 265/265/265
f 263/263/263 30/30/30 29/29/29
f 29/29/29 264/264/264 263/263/263
f 27/27/27 26/26/26 25/25/25
f 25/25/25 28/28/28 27/27/27
f 259/259/259 262/262/262 261/261/261
f 261/261/261 260/260/260 259/259/259
f 256/256/256 23/23/23 258/258/258
f 258/258/258 257/257/257 256/256/256
f 253/253/253 21/21/21 255/255/255
f 255/255/255 254/254/254 253/253/253
f 251/251/251 19/19/19 20/20/20
f 20/20/20 252/252/252 251/251/251
f 18/18/18 17/17/17 22/22/22
f 22/22/22 24/24/24 18/18/18
f 247/247/247 250/250/250 249/249/249
f 249/249/249 248/248/248 247/247/247
f 244/244/244 16/16/16 246/246/246
f 246/246/246 245/245/245 244/244/244
f 241/241/241 15/15/15 243/243/243
f 243/243/243 242/242/242 241/241/241
f 239/239/239 14/14/14 13/13/13
f 13/13/13 240/240/240 239/239/239
f 11/11/11 10/10/10 9/9/9
f 9/9/9 12/12/12 11/11/11
f 235/235/235 238/238/238 237/237/237
f 237/237/237 236/236/236 235/235/235
f 232/232/232 7/7/7 234/234/234
f 234/234/234 233/233/233 232/232/232
f 229/229/229 5/5/5 231/231/231
f 231/231/231 230/230/230 229/229/229
f 227/227/227 3/3/3 4/4/4
f 4/4/4 228/228/228 227/227/227
f 2/2/2 1/1/1 6/6/6
f 6/6/6 8/8/8 2/2/2
