v 0.306248 0.739609 0.09628099999999996
v -0.955372 0.625192 0.09628099999999996
v -0.960123 0.677578 0.09628099999999996
v 0.301497 0.791995 0.09628099999999996
v 0.306248 0.739609 0.09628099999999996
v -0.955372 0.625192 0.09628099999999996
v -0.960123 0.677578 0.09628099999999996
v 0.301497 0.791995 0.09628099999999996
v -0.188187 0.304543 0.03199999999999998
v -0.213221 0.710552 0.03199999999999996
v -0.132508 0.306029 0.03199999999999998
v -0.157542 0.712036 0.03199999999999996
v 0.301516 0.697525 0.04079999999999996
v -0.962957 0.774236 0.040799999999999954
v -0.959771 0.82674 0.040799999999999954
v 0.304702 0.750029 0.040799999999999954
v 0.053038 0.638609 0.08176799999999995
v -0.912666 0.587191 0.08294599999999996
v 0.054406 0.587228 0.08169799999999997
v -0.911298 0.535809 0.08287599999999998
v 0.056159 0.521447 0.08160699999999997
v -0.999978 0.433203 0.08743499999999997
v 0.057529 0.470067 0.08153699999999997
v -0.99861 0.381821 0.08736399999999997
v 0.058112 0.474306 0.13798099999999996
v -0.901412 0.558403 0.13884199999999997
v 0.054083 0.42308 0.13818799999999998
v -0.905445 0.507177 0.13904899999999998
v -0.758006 0.712036 0.03199999999999996
v -0.732972 0.306029 0.03199999999999998
v -0.788651 0.304543 0.03199999999999998
v -0.813685 0.710552 0.03199999999999996
v 0.826591 0.500597 0.4322349999999999
v 0.863332 0.474949 -0.00784600000000003
v 0.657503 0.215522 -0.005185000000000013
v 0.620763 0.24117100000000002 0.434896
v 0.476133 0.758001 0.39825299999999997
v 0.270303 0.498574 0.40091399999999994
v 0.475962 0.757934 -0.021665000000000045
v 0.270133 0.498507 -0.01900400000000003
v 0.277238 0.554189 0.47445199999999993
v 0.244797 0.543714 -0.025769000000000035
v 0.296588 0.587077 0.4760019999999999
v 0.264085 0.578308 -0.026032000000000034
v 0.800387 0.33086000000000004 0.528655
v 0.78597 0.337109 -0.03017200000000002
v 0.830581 0.35997700000000005 0.52943
v 0.813908 0.365367 -0.02878000000000002
v 0.415094 0.718613 0.59412
v 0.439584 0.749972 0.594734
v 0.416114 0.72615 -0.029832000000000046
v 0.395126 0.692657 -0.027920000000000042
v 0.296588 0.587077 0.4760019999999999
v 0.277238 0.554189 0.47445199999999993
v 0.244797 0.543714 -0.025769000000000035
v 0.264085 0.578308 -0.026032000000000034
v 0.800387 0.33086000000000004 0.528655
v 0.830581 0.35997700000000005 0.52943
v 0.813908 0.365367 -0.02878000000000002
v 0.78597 0.337109 -0.03017200000000002
v 0.415094 0.718613 0.59412
v 0.439584 0.749972 0.594734
v 0.416114 0.72615 -0.029832000000000046
v 0.395126 0.692657 -0.027920000000000042
v 0.272562 0.635394 0.3768349999999999
v 0.297001 0.666789 0.37749399999999994
v 0.31227 0.616119 -0.02669600000000004
v 0.291153 0.582715 -0.025249000000000035
v 0.272562 0.635394 0.3768349999999999
v 0.291153 0.582715 -0.025249000000000035
v 0.31227 0.616119 -0.02669600000000004
v 0.297001 0.666789 0.37749399999999994
v 0.264122 -0.05167799999999999 0.188593
v 0.466493 0.10619200000000001 0.190655
v 0.264263 -0.051659 -0.004193999999999996
v 0.466634 0.106211 -0.0021310000000000066
v 0.296045 0.31406 -0.005484000000000019
v 0.286093 0.325397 0.21699299999999996
v 0.088762 0.156548 0.21493
v 0.097733 0.145206 -0.005484000000000009
v 0.317286 -0.03314299999999997 0.473066
v 0.293118 -0.052296999999999975 0.473542
v 0.315143 -0.038634 -0.010523999999999999
v 0.337063 -0.017234 -0.009041999999999998
v 0.448939 0.06347300000000003 0.380318
v 0.428461 0.04039700000000002 0.380925
v 0.43933 0.063741 -0.008796000000000003
v 0.457199 0.08857 -0.0073740000000000056
v 0.317286 -0.03314299999999997 0.473066
v 0.293118 -0.052296999999999975 0.473542
v 0.315143 -0.038634 -0.010523999999999999
v 0.337063 -0.017234 -0.009041999999999998
v 0.448939 0.06347300000000003 0.380318
v 0.428461 0.04039700000000002 0.380925
v 0.43933 0.063741 -0.008796000000000003
v 0.457199 0.08857 -0.0073740000000000056
v 0.279174 -0.473654 0.30915100000000006
v 0.806452 -0.849526 0.30915100000000006
v 0.24218 -0.525548 0.30915100000000006
v 0.769459 -0.901422 0.30915100000000006
v 0.395056 -0.400757 0.309151
v 0.925479 -0.598898 0.32286200000000004
v 0.372756 -0.460458 0.30915100000000006
v 0.903177 -0.658599 0.32286200000000004
v 0.371308 -0.20222 0.00042100000000001235
v 0.910868 -0.25431 0.00042200000000001557
v 0.347573 -0.44808 0.11317600000000003
v 0.30731 -0.87163 0.21789800000000006
v 0.846711 -0.924891 0.21789700000000006
v 0.30731 -0.87163 0.0004210000000000534
v 0.887134 -0.50017 0.21789800000000004
v 0.347573 -0.44808 0.21789800000000004
v 0.910868 -0.25431 0.11317600000000001
v 0.371308 -0.202221 0.11317600000000001
v 0.887134 -0.50017 0.11317600000000003
v 0.846725 -0.924883 -5.199999999994336E-05
v 0.305122 -0.492035 0.24427500000000002
v 0.929158 -0.664901 0.2745330000000001
v 0.288109 -0.553453 0.24427600000000002
v 0.912143 -0.726319 0.2745330000000001
v 0.208188 -0.705908 0.24427600000000005
v 0.774391 -0.710686 0.25841700000000006
v 0.20765 -0.769637 0.24427600000000005
v 0.773853 -0.774414 0.25841700000000006
v 0.458232 -0.457518 0.24427500000000002
v 1.012774 -0.560131 0.24427500000000002
v 0.446637 -0.520184 0.24427500000000002
v 1.001178 -0.622797 0.24427500000000002
v 0.242329 -0.732482 0.2798010000000001
v 0.668086 -0.381309 0.279801
v 0.282882 -0.781647 0.2798010000000001
v 0.708637 -0.430474 0.279801
v 0.515618 -0.886213 0.29946600000000007
v 0.794221 -0.301676 0.310371
v 0.573149 -0.913633 0.29946600000000007
v 0.851752 -0.329096 0.310371
v 0.604695 -0.895001 0.34040800000000004
v 0.462766 -0.346856 0.340408
v 0.666391 -0.879027 0.34040800000000004
v 0.524462 -0.330881 0.340408
v 0.910868 -0.254309 0.00042200000000001557
v 0.846711 -0.92489 0.21789700000000006
v 0.887134 -0.50017 0.21789800000000004
v 0.910869 -0.254309 0.11317600000000001
v 0.887134 -0.50017 0.11317600000000003
v 0.846726 -0.924883 -5.199999999994336E-05
v 0.967166 -0.399908 0.14595100000000003
v 0.413406 -0.281784 0.14789000000000002
v 0.426692 -0.219475 0.146268
v 0.980452 -0.337599 0.14432900000000004
v -0.021476 -0.569679 0.002393000000000035
v -0.015176 -0.569359 0.14742100000000002
v -0.209649 -0.203195 0.148699
v -0.215365 -0.204253 0.0029850000000000124
v -0.135201 -0.621367 0.002289000000000038
v -0.129609 -0.621575 0.14728300000000003
v -0.32918 -0.261907 0.002870000000000016
v -0.324193 -0.261298 0.14855700000000002
v -0.135564 -0.618656 0.001461000000000038
v -0.132251 -0.619053 0.09142600000000004
v -0.471793 -0.007775999999999994 0.093476
v -0.474525 -0.008635 0.0027310000000000004
v -0.24276 -0.67334 0.0013500000000000413
v -0.23974 -0.674003 0.09131300000000005
v -0.58054 -0.06533 0.002520000000000004
v -0.578142 -0.064719 0.093232
v -0.358137 0.095593 -0.003922000000000006
v -0.357664 0.09529000000000001 0.138231
v -0.025472 -0.504515 0.13843400000000003
v -0.026554 -0.503102 -0.0039249999999999684
v -0.257477 0.162354 -0.003919000000000009
v -0.256893 0.16202 0.138288
v 0.079184 -0.447097 -0.003920999999999972
v 0.080496 -0.448765 0.13850400000000002
v -0.208413 0.111098 -0.003919000000000007
v -0.207976 0.110803 0.085132
v 0.129953 -0.498689 0.08536400000000002
v 0.128973 -0.497551 -0.00392199999999997
v -0.107928 0.166343 -0.003917000000000011
v -0.107391 0.165986 0.08515399999999998
v 0.229508 -0.44238 -0.003917999999999973
v 0.2307 -0.443757 0.08539100000000002
v 0.476133 0.758001 0.39825299999999997
v 0.475962 0.757934 -0.021665000000000045
v 0.863332 0.474949 -0.00784600000000003
v 0.826591 0.500597 0.4322349999999999
v 0.620763 0.24117100000000002 0.434896
v 0.657503 0.215522 -0.005185000000000013
v 0.270133 0.498507 -0.01900400000000003
v 0.270303 0.498574 0.40091399999999994
v 0.286093 0.325397 0.21699299999999996
v 0.466634 0.106211 -0.0021310000000000066
v 0.466493 0.10619200000000001 0.190655
v 0.264122 -0.05167799999999999 0.188593
v 0.264263 -0.051659 -0.004193999999999996
v 0.088762 0.156548 0.21493
v 0.088762 0.156548 0.21493
v 0.097733 0.145206 -0.005484000000000009
v 0.296045 0.31406 -0.005484000000000019
v 0.286093 0.325397 0.21699299999999996
v 0.347573 -0.44808 0.21789800000000004
v 0.887134 -0.50017 0.21789800000000004
v 0.347573 -0.44808 0.11317600000000003
v 0.371308 -0.20222 0.00042100000000001235
v 0.371308 -0.20222 0.00042100000000001235
v 0.371308 -0.202221 0.11317600000000001
v 0.347573 -0.44808 0.11317600000000003
v 0.371308 -0.202221 0.11317600000000001
v 0.910868 -0.25431 0.11317600000000001
v 0.887134 -0.50017 0.11317600000000003
v 0.347573 -0.44808 0.11317600000000003
v 0.30731 -0.87163 0.0004210000000000534
v 0.347573 -0.44808 0.11317600000000003
v 0.347573 -0.44808 0.21789800000000004
v 0.30731 -0.87163 0.21789800000000006
v 0.30731 -0.87163 0.0004210000000000534
v 0.30731 -0.87163 0.21789800000000006
v 0.846711 -0.924891 0.21789700000000006
v 0.887134 -0.50017 0.11317600000000003
v 0.910868 -0.254309 0.00042200000000001557
v 0.846711 -0.92489 0.21789700000000006
v 0.887134 -0.50017 0.11317600000000003
v -0.015176 -0.569359 0.14742100000000002
v -0.021476 -0.569679 0.002393000000000035
v -0.129609 -0.621575 0.14728300000000003
v -0.135201 -0.621367 0.002289000000000038
v -0.129609 -0.621575 0.14728300000000003
v -0.324193 -0.261298 0.14855700000000002
v -0.209649 -0.203195 0.148699
v -0.015176 -0.569359 0.14742100000000002
v -0.215365 -0.204253 0.0029850000000000124
v -0.209649 -0.203195 0.148699
v -0.324193 -0.261298 0.14855700000000002
v -0.32918 -0.261907 0.002870000000000016
v -0.132251 -0.619053 0.09142600000000004
v -0.135564 -0.618656 0.001461000000000038
v -0.23974 -0.674003 0.09131300000000005
v -0.24276 -0.67334 0.0013500000000000413
v -0.23974 -0.674003 0.09131300000000005
v -0.578142 -0.064719 0.093232
v -0.471793 -0.007775999999999994 0.093476
v -0.132251 -0.619053 0.09142600000000004
v -0.474525 -0.008635 0.0027310000000000004
v -0.471793 -0.007775999999999994 0.093476
v -0.578142 -0.064719 0.093232
v -0.58054 -0.06533 0.002520000000000004
v -0.357664 0.09529000000000001 0.138231
v -0.358137 0.095593 -0.003922000000000006
v -0.256893 0.16202 0.138288
v -0.257477 0.162354 -0.003919000000000009
v -0.256893 0.16202 0.138288
v 0.080496 -0.448765 0.13850400000000002
v -0.025472 -0.504515 0.13843400000000003
v -0.357664 0.09529000000000001 0.138231
v -0.026554 -0.503102 -0.0039249999999999684
v -0.025472 -0.504515 0.13843400000000003
v 0.080496 -0.448765 0.13850400000000002
v 0.079184 -0.447097 -0.003920999999999972
v -0.207976 0.110803 0.085132
v -0.208413 0.111098 -0.003919000000000007
v -0.107391 0.165986 0.08515399999999998
v -0.107928 0.166343 -0.003917000000000011
v -0.107391 0.165986 0.08515399999999998
v 0.2307 -0.443757 0.08539100000000002
v 0.129953 -0.498689 0.08536400000000002
v -0.207976 0.110803 0.085132
v 0.128973 -0.497551 -0.00392199999999997
v 0.129953 -0.498689 0.08536400000000002
v 0.2307 -0.443757 0.08539100000000002
v 0.229508 -0.44238 -0.003917999999999973
v 0.620763 0.24117100000000002 0.434896
v 0.826591 0.500597 0.4322349999999999
v 0.620763 0.24117100000000002 0.434896
v 0.270303 0.498574 0.40091399999999994
v 0.476133 0.758001 0.39825299999999997
v 0.270303 0.498574 0.40091399999999994
v 0.466493 0.10619200000000001 0.190655
v 0.264122 -0.05167799999999999 0.188593
v 0.466493 0.10619200000000001 0.190655
vt 0.445206 0.309030
vt 0.248191 0.309030
vt 0.248191 0.313296
vt 0.445206 0.313296
vt 0.445206 0.309030
vt 0.248191 0.309030
vt 0.248191 0.313296
vt 0.445206 0.313296
vt 0.243455 0.309030
vt 0.213150 0.309030
vt 0.243455 0.313296
vt 0.213150 0.313296
vt 0.445206 0.309030
vt 0.248191 0.309030
vt 0.248191 0.313296
vt 0.445206 0.313296
vt 0.209254 0.309030
vt 0.101429 0.309030
vt 0.209254 0.313296
vt 0.101429 0.313296
vt 0.209254 0.309030
vt 0.101429 0.309030
vt 0.209318 0.313296
vt 0.101429 0.313296
vt 0.209254 0.309030
vt 0.101429 0.309030
vt 0.209254 0.313296
vt 0.101429 0.313296
vt 0.213150 0.313296
vt 0.243455 0.313296
vt 0.243455 0.309030
vt 0.213150 0.309030
vt 0.848448 0.441815
vt 0.801596 0.441815
vt 0.801596 0.477054
vt 0.848448 0.478299
vt 0.895826 0.441815
vt 0.895826 0.478299
vt 0.940154 0.441815
vt 0.940438 0.478299
vt 0.794855 0.475640
vt 0.794855 0.416315
vt 0.798846 0.475627
vt 0.799043 0.416315
vt 0.786747 0.475704
vt 0.787026 0.416379
vt 0.782558 0.475693
vt 0.782837 0.416369
vt 0.792978 0.475640
vt 0.788624 0.475541
vt 0.788903 0.416216
vt 0.792978 0.416315
vt 0.798846 0.475627
vt 0.794855 0.475640
vt 0.794855 0.416315
vt 0.799043 0.416315
vt 0.786747 0.475704
vt 0.782558 0.475693
vt 0.782837 0.416369
vt 0.787026 0.416379
vt 0.792978 0.475640
vt 0.788624 0.475541
vt 0.788903 0.416216
vt 0.792978 0.416315
vt 0.792978 0.475640
vt 0.788624 0.475541
vt 0.788903 0.416216
vt 0.792978 0.416315
vt 0.792978 0.475640
vt 0.792978 0.416315
vt 0.788903 0.416216
vt 0.788624 0.475541
vt 0.916134 0.483261
vt 0.916134 0.519646
vt 0.942465 0.483261
vt 0.942465 0.519646
vt 0.741632 0.509878
vt 0.876221 0.519646
vt 0.876221 0.483261
vt 0.741632 0.509878
vt 0.792978 0.475640
vt 0.788624 0.475541
vt 0.788903 0.416216
vt 0.792978 0.416315
vt 0.792978 0.475640
vt 0.788624 0.475541
vt 0.788903 0.416216
vt 0.792978 0.416315
vt 0.792978 0.475640
vt 0.788624 0.475541
vt 0.788903 0.416216
vt 0.792978 0.416315
vt 0.792978 0.475640
vt 0.788624 0.475541
vt 0.788903 0.416216
vt 0.792978 0.416315
vt 0.236861 0.254583
vt 0.347867 0.254583
vt 0.236861 0.243271
vt 0.347867 0.243271
vt 0.349042 0.215461
vt 0.238037 0.215461
vt 0.349042 0.226772
vt 0.238037 0.226772
vt 0.194429 0.263766
vt 0.194429 0.170750
vt 0.135807 0.263766
vt 0.048009 0.263766
vt 0.048009 0.170750
vt 0.374816 0.154924
vt 0.120275 0.170750
vt 0.120275 0.263766
vt 0.177705 0.170750
vt 0.177705 0.263766
vt 0.135807 0.170750
vt 0.015669 0.170772
vt 1.345294 0.243948
vt 1.234289 0.243948
vt 1.345294 0.255260
vt 1.234289 0.255260
vt 1.346470 0.216138
vt 1.235464 0.216138
vt 1.346470 0.227449
vt 1.235464 0.227449
vt 1.235603 0.197579
vt 1.346609 0.197579
vt 1.235603 0.186267
vt 1.346609 0.186267
vt 1.235464 0.227449
vt 1.346470 0.227449
vt 1.235464 0.216138
vt 1.346470 0.216138
vt 1.345294 0.243948
vt 1.234289 0.243948
vt 1.345294 0.255260
vt 1.234289 0.255260
vt 1.346609 0.186267
vt 1.235603 0.186267
vt 1.346609 0.197579
vt 1.235603 0.197579
vt 0.487105 0.155052
vt 0.375124 0.124703
vt 0.436052 0.124932
vt 0.487193 0.138064
vt 0.436052 0.138293
vt 0.375354 0.154792
vt 1.346609 0.186267
vt 1.235603 0.186267
vt 1.235603 0.197579
vt 1.346609 0.197579
vt 0.927052 0.203544
vt 0.941322 0.203544
vt 0.941346 0.159751
vt 0.927052 0.159751
vt 0.979117 0.124247
vt 0.993532 0.124247
vt 0.945278 0.203544
vt 0.959572 0.203544
vt 0.952043 0.079148
vt 0.961977 0.079148
vt 0.962004 0.004447
vt 0.952043 0.004447
vt 0.993052 0.192050
vt 0.993052 0.182526
vt 0.965751 0.079434
vt 0.975712 0.079434
vt 0.973933 0.286339
vt 0.993544 0.286339
vt 0.993578 0.208470
vt 0.973933 0.208470
vt 0.994242 0.161011
vt 0.994242 0.144612
vt 0.951089 0.286339
vt 0.970734 0.286339
vt 0.933025 0.156840
vt 0.944013 0.156840
vt 0.944139 0.084207
vt 0.933120 0.084207
vt 0.994289 0.094499
vt 0.994289 0.084974
vt 0.975134 0.084207
vt 0.964115 0.084207
vt 0.727297 0.427513
vt 0.726824 0.473082
vt 0.776940 0.471560
vt 0.772889 0.423075
vt 0.772889 0.423075
vt 0.776940 0.471560
vt 0.726824 0.473082
vt 0.727297 0.427513
vt 0.739661 0.478398
vt 0.776804 0.509547
vt 0.776794 0.482143
vt 0.776794 0.482143
vt 0.776804 0.509547
vt 0.739661 0.478398
vt 0.845712 0.440642
vt 0.818795 0.440642
vt 0.818795 0.477127
vt 0.845712 0.477127
vt 0.120275 0.263766
vt 0.120275 0.170750
vt 0.436053 0.138293
vt 0.487193 0.155061
vt 0.487193 0.155061
vt 0.487193 0.138064
vt 0.436053 0.138293
vt 0.177705 0.263766
vt 0.177705 0.170750
vt 0.135807 0.170750
vt 0.135807 0.263766
vt 0.374816 0.154924
vt 0.436053 0.138293
vt 0.436053 0.124932
vt 0.375124 0.124703
vt 0.015697 0.263766
vt 0.048009 0.263766
vt 0.048009 0.170750
vt 0.436052 0.138293
vt 0.487105 0.155052
vt 0.375124 0.124703
vt 0.436052 0.138293
vt 0.993532 0.110476
vt 0.979117 0.110476
vt 0.959547 0.159751
vt 0.945278 0.159751
vt 0.962878 0.159751
vt 0.963107 0.203544
vt 0.975133 0.203544
vt 0.974904 0.159751
vt 0.979117 0.142230
vt 0.993532 0.142230
vt 0.993532 0.128458
vt 0.979117 0.128458
vt 0.978638 0.182526
vt 0.978638 0.192050
vt 0.975685 0.004734
vt 0.965751 0.004734
vt 0.979012 0.004734
vt 0.978897 0.079434
vt 0.992148 0.079434
vt 0.992263 0.004734
vt 0.993053 0.204680
vt 0.993052 0.195130
vt 0.978638 0.195130
vt 0.978638 0.204680
vt 0.979827 0.144612
vt 0.979827 0.161011
vt 0.970700 0.208470
vt 0.951089 0.208470
vt 0.947154 0.286339
vt 0.947490 0.208470
vt 0.931010 0.208470
vt 0.930674 0.286339
vt 0.994242 0.180024
vt 0.994242 0.163596
vt 0.979827 0.163596
vt 0.979827 0.180024
vt 0.979875 0.084974
vt 0.979875 0.094499
vt 0.963988 0.156840
vt 0.974977 0.156840
vt 0.961330 0.156840
vt 0.961457 0.084207
vt 0.946798 0.084207
vt 0.946671 0.156840
vt 0.994289 0.106686
vt 0.994289 0.097136
vt 0.979875 0.097136
vt 0.979875 0.106686
vt 0.848448 0.478299
vt 0.848448 0.441815
vt 0.848448 0.478299
vt 0.895826 0.478299
vt 0.895826 0.441815
vt 0.895826 0.478299
vt 0.916134 0.519646
vt 0.916134 0.483261
vt 0.916134 0.519646
vn 0 6.123233995736766E-17 1
vn 0 6.123233995736766E-17 1
vn 0 6.123233995736766E-17 1
vn 0 6.123233995736766E-17 1
vn 0 -6.123233995736766E-17 -1
vn 0 -6.123233995736766E-17 -1
vn 0 -6.123233995736766E-17 -1
vn 0 -6.123233995736766E-17 -1
vn 0 6.123233995736766E-17 1
vn 0 6.123233995736766E-17 1
vn 0 6.123233995736766E-17 1
vn 0 6.123233995736766E-17 1
vn 0 6.123233995736766E-17 1
vn 0 6.123233995736766E-17 1
vn 0 6.123233995736766E-17 1
vn 0 6.123233995736766E-17 1
vn 0.001291 -0.0013339999999999388 0.999998
vn 0.001291 -0.0013339999999999388 0.999998
vn 0.001291 -0.0013339999999999388 0.999998
vn 0.001291 -0.0013339999999999388 0.999998
vn 0.005619 -0.0012199999999999388 0.999983
vn 0.005619 -0.0012189999999999389 0.999983
vn 0.005619 -0.0012199999999999388 0.999983
vn 0.005619 -0.0012199999999999388 0.999983
vn 0.001243 0.0039460000000000614 0.999992
vn 0.001243 0.003947000000000062 0.999992
vn 0.001243 0.003947000000000062 0.999992
vn 0.001243 0.003949000000000062 0.999991
vn 0 6.123233995736766E-17 1
vn 0 6.123233995736766E-17 1
vn 0 6.123233995736766E-17 1
vn 0 6.123233995736766E-17 1
vn 0.666264 -0.523161 0.531408
vn 0.779876 -0.617714 0.10111100000000005
vn 0.779876 -0.617714 0.10111000000000005
vn 0.295687 -0.22507499999999994 0.928391
vn -0.388706 0.3172710000000001 0.865013
vn -0.704105 0.563072 0.43264899999999995
vn -0.783385 0.621537 0.00021999999999996195
vn -0.783385 0.621537 0.00021899999999996196
vn -0.861934 0.50499 0.04532499999999997
vn -0.867142 0.495871 0.04665099999999997
vn -0.867142 0.495871 0.04665099999999997
vn -0.872253 0.486696 0.04797099999999997
vn 0.702941 -0.710737 -0.026945999999999956
vn 0.711529 -0.702168 -0.02620699999999996
vn 0.69425 -0.719201 -0.027680999999999956
vn 0.702941 -0.710737 -0.026945999999999956
vn 0.818791 -0.574065 -0.005595999999999965
vn 0.788189 -0.615403 -0.006144999999999963
vn 0.818791 -0.574065 -0.005595999999999965
vn 0.847227 -0.531208 -0.005031999999999967
vn 0.867142 -0.495871 -0.04665099999999997
vn 0.861934 -0.50499 -0.04532499999999997
vn 0.867142 -0.495871 -0.04665099999999997
vn 0.872253 -0.486696 -0.04797099999999997
vn -0.702941 0.710737 0.026945999999999956
vn -0.69425 0.719201 0.027680999999999956
vn -0.702941 0.710737 0.026945999999999956
vn -0.711529 0.702168 0.02620699999999996
vn -0.818791 0.574065 0.005595999999999965
vn -0.788189 0.615403 0.006144999999999963
vn -0.818791 0.574065 0.005595999999999965
vn -0.847227 0.531208 0.005031999999999967
vn 0.814057 -0.570775 0.10736700000000005
vn 0.783541 -0.612172 0.10634200000000005
vn 0.814057 -0.570775 0.10736700000000005
vn 0.842418 -0.527868 0.10810800000000002
vn -0.814057 0.570775 -0.10736700000000005
vn -0.842418 0.527868 -0.10810800000000002
vn -0.814057 0.570775 -0.10736700000000005
vn -0.783541 0.612172 -0.10634200000000005
vn 0.311414 -0.40728699999999995 0.858567
vn 0.552614 -0.714002 0.42990700000000004
vn 0.61508 -0.788465 0.0003710000000000483
vn 0.61508 -0.788464 0.0003710000000000483
vn 0.77297 0.634439 0.002245999999999961
vn -0.259266 0.28858600000000006 0.921683
vn -0.593792 0.690312 0.41337599999999997
vn -0.764119 -0.645075 0.0007030000000000394
vn -0.660662 0.750662 -0.005597000000000046
vn -0.621192 0.783634 -0.006146000000000048
vn -0.660662 0.750662 -0.005597000000000046
vn -0.698385 0.715705 -0.005032000000000044
vn -0.780852 0.624405 0.019711999999999962
vn -0.747581 0.663901 0.01891799999999996
vn -0.780852 0.624405 0.019711999999999962
vn -0.81204 0.583243 0.020453999999999965
vn 0.660662 -0.750662 0.005597000000000046
vn 0.621192 -0.783634 0.006146000000000048
vn 0.660662 -0.750662 0.005597000000000046
vn 0.698385 -0.715705 0.005032000000000044
vn 0.780852 -0.624405 -0.019711999999999962
vn 0.747581 -0.663901 -0.01891799999999996
vn 0.780852 -0.624405 -0.019711999999999962
vn 0.81204 -0.583243 -0.020453999999999965
vn -0 6.123233995736766E-17 1
vn 0 6.123233995736766E-17 1
vn -1E-06 -9.999999999387675E-07 1
vn -0 6.123233995736766E-17 1
vn -0.022677 0.00847100000000006 0.999707
vn -0.022677 0.00847100000000006 0.999707
vn -0.022677 0.00847100000000006 0.999707
vn -0.022677 0.00847100000000006 0.999707
vn 0.096095 0.995372 3.999999999939051E-06
vn 0.096095 0.995372 3.999999999939051E-06
vn 0.096094 0.995372 -6.094895668804497E-17
vn 0 6.123233995736766E-17 1
vn 0 6.123233995736766E-17 1
vn -0.995459 0.095171 -0.0020300000000000058
vn 0.096094 0.995372 -6.094895668804497E-17
vn 0.096094 0.995372 -6.094895668804497E-17
vn 0.096094 0.995372 -6.094895668804497E-17
vn 0.096095 0.995372 3.999999999939051E-06
vn 0.096094 0.995372 -6.094895668804497E-17
vn -0.098246 -0.995162 6.093609789665392E-17
vn -0.044982 0.012462000000000062 0.99891
vn -0.044982 0.012462000000000062 0.99891
vn -0.044982 0.01246100000000006 0.99891
vn -0.044982 0.012462000000000062 0.99891
vn -0.024966 0.0002110000000000612 0.999688
vn -0.024966 0.0002110000000000612 0.999688
vn -0.024966 0.0002100000000000612 0.999688
vn -0.024966 0.0002110000000000612 0.999688
vn 0 6.123233995736766E-17 1
vn 0 1.0000000000612324E-06 1
vn -0 6.123233995736766E-17 1
vn 0 6.123233995736766E-17 1
vn 0 6.123233995736766E-17 1
vn -0 6.123233995736766E-17 1
vn 1E-06 -9.999999999387675E-07 1
vn 0 6.123233995736766E-17 1
vn -0.007245 -0.015200999999999939 0.999858
vn -0.007245 -0.015200999999999939 0.999858
vn -0.007244 -0.01520199999999994 0.999858
vn -0.007245 -0.015200999999999939 0.999858
vn 0 6.123233995736766E-17 1
vn 0 6.123233995736766E-17 1
vn -0 6.123233995736766E-17 1
vn 0 6.123233995736766E-17 1
vn 0.995373 -0.096091 -8.999999999994117E-06
vn 0.995457 -0.095218 6.400000000000582E-05
vn 0.995501 -0.094748 5.801641746280671E-18
vn 0.995373 -0.096091 -8.999999999994117E-06
vn 0.995373 -0.096091 -8.999999999994117E-06
vn 0.995457 -0.095218 6.400000000000582E-05
vn 0.00866 0.024187000000000063 0.99967
vn 0.00866 0.024187000000000063 0.99967
vn 0.00866 0.024187000000000063 0.99967
vn 0.00866 0.02418600000000006 0.99967
vn 0.88256 0.468605 -0.03869400000000003
vn 0.882425 0.468803 -0.03936300000000003
vn 0.88256 0.468605 -0.03869400000000003
vn 0.882694 0.468406 -0.03802500000000003
vn 0.414406 -0.90994 -0.016637999999999945
vn 0.415085 -0.909618 -0.017314999999999945
vn -0.87945 -0.474869 0.032662000000000024
vn -0.87937 -0.475056 0.032087000000000025
vn 0.873715 0.485483 -0.03046500000000003
vn 0.873753 0.48544 -0.030041000000000033
vn 0.873715 0.485483 -0.03046500000000003
vn 0.873677 0.485526 -0.03088800000000003
vn 0.454717 -0.890382 -0.021245999999999945
vn 0.455092 -0.890177 -0.021829999999999943
vn -0.87386 -0.485478 0.02606400000000003
vn -0.873872 -0.48544 0.02636400000000003
vn -0.874793 -0.484493 0.0018620000000000296
vn -0.874795 -0.484489 0.0018830000000000296
vn -0.874793 -0.484493 0.0018620000000000296
vn -0.874791 -0.484497 0.0018400000000000298
vn -0.552412 0.833562 0.003919999999999949
vn -0.552115 0.833757 0.004220999999999949
vn 0.875327 0.483525 -0.0024310000000000295
vn 0.87533 0.48352 -0.0024040000000000294
vn -0.874589 -0.484856 0.0030490000000000296
vn -0.874567 -0.484898 0.0026810000000000293
vn -0.874589 -0.484856 0.0030490000000000296
vn -0.87461 -0.484814 0.0034160000000000297
vn -0.481379 0.876493 0.0058379999999999465
vn -0.480986 0.876705 0.006410999999999946
vn 0.874577 0.484872 -0.0037620000000000296
vn 0.874549 0.48492 -0.0041950000000000294
vn 0.590855 0.806777 0.0010299999999999507
vn 0.589899 0.807477 -0.00036900000000004946
vn 0.590855 0.806777 0.0010299999999999507
vn 0.59181 0.806074 0.0024289999999999507
vn -0.590912 -0.806736 -0.0009049999999999505
vn -0.589838 -0.807519 -0.0021789999999999505
vn -0.590912 -0.806736 -0.0009049999999999505
vn -0.591984 -0.80595 0.00036800000000004933
vn 0.772574 0.634923 0.0014359999999999612
vn 0.772574 0.634923 0.0014359999999999612
vn 0.772178 0.635406 0.0006259999999999611
vn -0.764119 -0.645075 0.0007030000000000394
vn -0.763475 -0.645837 -0.0006229999999999604
vn -0.764762 -0.64431 0.0020290000000000395
vn -0.593792 0.690312 0.41337599999999997
vn -0.646903 0.759761 -0.06542200000000004
vn -0.647576 0.75909 -0.06653400000000004
vn -0.259266 0.28858600000000006 0.921683
vn 0 6.123233995736766E-17 1
vn 0 6.123233995736766E-17 1
vn -0.995459 0.095171 -0.0020300000000000058
vn -0.995459 0.095171 -0.0020300000000000058
vn -0.995372 0.096093 -5.883999243523331E-18
vn -0.995372 0.096093 -5.883999243523331E-18
vn -0.995372 0.096093 -5.883999243523331E-18
vn 0 6.123233995736766E-17 1
vn 0 6.123233995736766E-17 1
vn 0 6.123233995736766E-17 1
vn 0 6.123233995736766E-17 1
vn -0.995512 0.094635 -5.7947224918654885E-18
vn -0.995512 0.094635 -5.7947224918654885E-18
vn -0.995512 0.094635 -5.7947224918654885E-18
vn -0.995512 0.094635 -5.7947224918654885E-18
vn -0.098246 -0.995162 6.093609789665392E-17
vn -0.098246 -0.995162 6.093609789665392E-17
vn -0.098264 -0.99516 -4.299999999993906E-05
vn 0.995628 -0.093188 0.006374000000000006
vn 0.995628 -0.093188 0.006374000000000006
vn 0.995628 -0.093188 0.006374000000000006
vn 0.995501 -0.094748 5.801641746280671E-18
vn 0.414406 -0.90994 -0.016637999999999945
vn 0.413726 -0.910262 -0.015959999999999943
vn -0.87945 -0.474869 0.032662000000000024
vn -0.879529 -0.474682 0.033238000000000024
vn 0.000372 -0.003313999999999939 0.999994
vn 0.000435 -0.0033019999999999387 0.999994
vn 0.000372 -0.003313999999999939 0.999994
vn 0.000309 -0.003325999999999939 0.999994
vn -0.452118 0.891884 0.011504999999999946
vn -0.452364 0.891762 0.011272999999999946
vn -0.452118 0.891884 0.011504999999999946
vn -0.451873 0.892005 0.011735999999999946
vn 0.454717 -0.890382 -0.021245999999999945
vn 0.454342 -0.890588 -0.020661999999999944
vn -0.87386 -0.485478 0.02606400000000003
vn -0.873849 -0.485515 0.02576400000000003
vn 2E-05 -0.0032399999999999387 0.999995
vn -0.000474 -0.003411999999999939 0.999994
vn 2E-05 -0.0032399999999999387 0.999995
vn 0.000513 -0.003067999999999939 0.999995
vn -0.471808 0.881679 0.006201999999999946
vn -0.472033 0.881561 0.005870999999999947
vn -0.471808 0.881679 0.006201999999999946
vn -0.471583 0.881798 0.006532999999999946
vn -0.552412 0.833562 0.003919999999999949
vn -0.552709 0.833366 0.003617999999999949
vn 0.875327 0.483525 -0.0024310000000000295
vn 0.875325 0.48353 -0.0024570000000000295
vn -0.00062 3.0000000000612325E-06 1
vn -0.000658 -9.999999999938769E-06 1
vn -0.00062 3.0000000000612325E-06 1
vn -0.000583 1.6000000000061233E-05 1
vn 0.46679 -0.884265 -0.013489999999999946
vn 0.465569 -0.884926 -0.012319999999999946
vn 0.46679 -0.884265 -0.013489999999999946
vn 0.468009 -0.883602 -0.014658999999999946
vn -0.481379 0.876493 0.0058379999999999465
vn -0.481771 0.876281 0.005264999999999946
vn 0.874577 0.484872 -0.0037620000000000296
vn 0.874605 0.484824 -0.0033300000000000296
vn -0.000347 0.00019200000000006124 1
vn -0.000373 0.00018300000000006123 1
vn -0.000347 0.00019200000000006124 1
vn -0.000322 0.00020100000000006124 1
vn 0.479827 -0.877175 -0.018186999999999946
vn 0.478656 -0.877849 -0.016446999999999948
vn 0.479827 -0.877175 -0.018186999999999946
vn 0.480996 -0.876497 -0.019926999999999948
vn 0.295687 -0.22507499999999994 0.928391
vn 0.666264 -0.523161 0.531408
vn 0.295687 -0.22507499999999994 0.928391
vn -0.704105 0.563072 0.43264899999999995
vn -0.388706 0.3172710000000001 0.865013
vn -0.704105 0.563072 0.43264899999999995
vn 0.552614 -0.714002 0.42990700000000004
vn 0.311414 -0.40728699999999995 0.858567
vn 0.552614 -0.714002 0.42990700000000004
g 01
f 267/267/267 270/270/270 269/269/269
f 269/269/269 268/268/268 267/267/267
f 263/263/263 266/266/266 265/265/265
f 265/265/265 264/264/264 263/263/263
f 261/261/261 182/182/182 181/181/181
f 181/181/181 262/262/262 261/261/261
f 259/259/259 180/180/180 179/179/179
f 179/179/179 260/260/260 259/259/259
f 177/177/177 176/176/176 175/175/175
f 175/175/175 178/178/178 177/177/177
f 255/255/255 258/258/258 257/257/257
f 257/257/257 256/256/256 255/255/255
f 251/251/251 254/254/254 253/253/253
f 253/253/253 252/252/252 251/251/251
f 249/249/249 174/174/174 173/173/173
f 173/173/173 250/250/250 249/249/249
f 247/247/247 172/172/172 171/171/171
f 171/171/171 248/248/248 247/247/247
f 169/169/169 168/168/168 167/167/167
f 167/167/167 170/170/170 169/169/169
f 243/243/243 246/246/246 245/245/245
f 245/245/245 244/244/244 243/243/243
f 239/239/239 242/242/242 241/241/241
f 241/241/241 240/240/240 239/239/239
f 237/237/237 166/166/166 165/165/165
f 165/165/165 238/238/238 237/237/237
f 235/235/235 164/164/164 163/163/163
f 163/163/163 236/236/236 235/235/235
f 161/161/161 160/160/160 159/159/159
f 159/159/159 162/162/162 161/161/161
f 231/231/231 234/234/234 233/233/233
f 233/233/233 232/232/232 231/231/231
f 227/227/227 230/230/230 229/229/229
f 229/229/229 228/228/228 227/227/227
f 225/225/225 158/158/158 157/157/157
f 157/157/157 226/226/226 225/225/225
f 223/223/223 156/156/156 155/155/155
f 155/155/155 224/224/224 223/223/223
f 153/153/153 152/152/152 151/151/151
f 151/151/151 154/154/154 153/153/153
f 149/149/149 148/148/148 147/147/147
f 147/147/147 150/150/150 149/149/149
f 143/143/143 142/142/142 222/222/222
f 221/221/221 220/220/220 219/219/219
f 142/142/142 146/146/146 141/141/141
f 141/141/141 144/144/144 145/145/145
f 140/140/140 138/138/138 137/137/137
f 137/137/137 139/139/139 140/140/140
f 136/136/136 134/134/134 133/133/133
f 133/133/133 135/135/135 136/136/136
f 132/132/132 130/130/130 129/129/129
f 129/129/129 131/131/131 132/132/132
f 128/128/128 126/126/126 125/125/125
f 125/125/125 127/127/127 128/128/128
f 124/124/124 122/122/122 121/121/121
f 121/121/121 123/123/123 124/124/124
f 120/120/120 118/118/118 117/117/117
f 117/117/117 119/119/119 120/120/120
f 116/116/116 218/218/218 217/217/217
f 217/217/217 216/216/216 116/116/116
f 212/212/212 215/215/215 214/214/214
f 214/214/214 213/213/213 212/212/212
f 208/208/208 211/211/211 210/210/210
f 210/210/210 209/209/209 208/208/208
f 207/207/207 206/206/206 205/205/205
f 204/204/204 110/110/110 203/203/203
f 201/201/201 108/108/108 109/109/109
f 109/109/109 202/202/202 201/201/201
f 114/114/114 113/113/113 106/106/106
f 106/106/106 105/105/105 114/114/114
f 112/112/112 111/111/111 115/115/115
f 115/115/115 107/107/107 112/112/112
f 104/104/104 102/102/102 101/101/101
f 101/101/101 103/103/103 104/104/104
f 100/100/100 98/98/98 97/97/97
f 97/97/97 99/99/99 100/100/100
f 95/95/95 96/96/96 93/93/93
f 93/93/93 94/94/94 95/95/95
f 91/91/91 92/92/92 89/89/89
f 89/89/89 90/90/90 91/91/91
f 87/87/87 86/86/86 85/85/85
f 85/85/85 88/88/88 87/87/87
f 83/83/83 82/82/82 81/81/81
f 81/81/81 84/84/84 83/83/83
f 197/197/197 200/200/200 199/199/199
f 199/199/199 198/198/198 197/197/197
f 194/194/194 196/196/196 80/80/80
f 80/80/80 195/195/195 194/194/194
f 191/191/191 193/193/193 192/192/192
f 192/192/192 77/77/77 191/191/191
f 279/279/279 278/278/278 75/75/75
f 75/75/75 76/76/76 277/277/277
f 78/78/78 79/79/79 73/73/73
f 73/73/73 74/74/74 78/78/78
f 71/71/71 70/70/70 69/69/69
f 69/69/69 72/72/72 71/71/71
f 67/67/67 66/66/66 65/65/65
f 65/65/65 68/68/68 67/67/67
f 63/63/63 64/64/64 61/61/61
f 61/61/61 62/62/62 63/63/63
f 59/59/59 60/60/60 57/57/57
f 57/57/57 58/58/58 59/59/59
f 55/55/55 56/56/56 53/53/53
f 53/53/53 54/54/54 55/55/55
f 51/51/51 50/50/50 49/49/49
f 49/49/49 52/52/52 51/51/51
f 48/48/48 47/47/47 45/45/45
f 45/45/45 46/46/46 48/48/48
f 42/42/42 41/41/41 43/43/43
f 43/43/43 44/44/44 42/42/42
f 187/187/187 190/190/190 189/189/189
f 189/189/189 188/188/188 187/187/187
f 183/183/183 186/186/186 185/185/185
f 185/185/185 184/184/184 183/183/183
f 276/276/276 275/275/275 39/39/39
f 39/39/39 40/40/40 274/274/274
f 273/273/273 272/272/272 37/37/37
f 37/37/37 38/38/38 271/271/271
f 35/35/35 34/34/34 33/33/33
f 33/33/33 36/36/36 35/35/35
f 31/31/31 30/30/30 29/29/29
f 29/29/29 32/32/32 31/31/31
f 26/26/26 28/28/28 27/27/27
f 27/27/27 25/25/25 26/26/26
f 21/21/21 22/22/22 24/24/24
f 24/24/24 23/23/23 21/21/21
f 18/18/18 20/20/20 19/19/19
f 19/19/19 17/17/17 18/18/18
f 15/15/15 14/14/14 13/13/13
f 13/13/13 16/16/16 15/15/15
f 9/9/9 11/11/11 12/12/12
f 12/12/12 10/10/10 9/9/9
f 7/7/7 8/8/8 5/5/5
f 5/5/5 6/6/6 7/7/7
f 3/3/3 2/2/2 1/1/1
f 1/1/1 4/4/4 3/3/3
