v 0.021411 0.176684 0.208982
v 0.142288 -0.057981999999999985 0.208982
v -0.081743 -0.173272 0.208982
v -0.20262 0.06139400000000001 0.208982
v 0.021411 0.176684 -0.0036220000000000106
v 0.142288 -0.057982 -0.0036219999999999963
v -0.20262 0.061394 -0.0036220000000000037
v 0.361344 0.128132 0.147181
v 0.115573 -0.001653999999999991 0.147181
v 0.022393 0.174797 0.147181
v 0.268164 0.304584 0.14718099999999998
v 0.022393 0.174797 -0.00817200000000001
v 0.268164 0.304584 -0.00817200000000002
v 0.361344 0.128132 -0.008172000000000009
v 0.115573 -0.0016540000000000005 -0.008172
v 0.400749 0.15487000000000004 0.321903
v 0.55486 -0.13469799999999998 0.321903
v 0.265292 -0.288808 0.321903
v 0.111182 0.0007590000000000198 0.321904
v 0.265292 -0.288808 -0.0060959999999999825
v 0.111182 0.0007589999999999997 -0.006097
v 0.400749 0.15487 -0.006096000000000009
v 0.55486 -0.134698 -0.006096999999999991
v 0.255748 -0.258662 0.259271
v 0.040052 -0.393339 0.259271
v 0.119012 -0.039762 -0.004912999999999997
v -0.096685 -0.17444 -0.004912999999999989
v 0.255748 -0.258662 -0.004912999999999984
v 0.119012 -0.039761999999999985 0.259271
v 0.039356 -0.39357 -0.004561999999999976
v -0.096685 -0.17443999999999998 0.259271
v -0.144647 -0.504641 0.29081300000000004
v -0.437937 -0.08645299999999999 0.290813
v -0.256583 0.04049700000000002 0.290813
v 0.035772 -0.377889 0.290813
v -0.144647 -0.504641 -0.00883999999999997
v -0.437937 -0.086453 -0.008839999999999995
v -0.256583 0.040497 -0.008840000000000002
v 0.035772 -0.377889 -0.008839999999999978
v -0.228525 0.049876 -3.0540241877136693E-18
v -0.363648 0.105863 -6.482239204906812E-18
v -0.307611 0.240908 -1.475136055444953E-17
v -0.172481 0.18493 -1.1323696628316003E-17
v -0.231157 0.05162500000000002 0.291623
v -0.366302 0.10727400000000001 0.291623
v -0.310152 0.24164000000000002 0.291623
v -0.174943 0.18608300000000003 0.291623
v -0.100252 -0.17580999999999997 0.290175
v -0.245298 0.025949000000000017 0.290175
v -0.116297 0.11876300000000001 0.290175
v 0.028834 -0.08298799999999999 0.290175
v -0.245298 0.025949000000000014 0.209763
v -0.116297 0.11876300000000001 0.209763
v 0.028834 -0.08298799999999999 0.209763
v -0.100252 -0.17581 0.209763
v 0.142288 -0.057981999999999985 0.208982
v 0.021411 0.176684 0.208982
v 0.021411 0.176684 0.208982
v -0.20262 0.06139400000000001 0.208982
v 0.021411 0.176684 -0.0036220000000000106
v 0.268164 0.304584 0.14718099999999998
v 0.022393 0.174797 0.147181
v 0.268164 0.304584 -0.00817200000000002
v 0.361344 0.128132 0.147181
v 0.268164 0.304584 0.14718099999999998
v 0.361344 0.128132 -0.008172000000000009
v 0.115573 -0.001653999999999991 0.147181
v 0.361344 0.128132 0.147181
v 0.115573 -0.0016540000000000005 -0.008172
v 0.022393 0.174797 -0.00817200000000001
v 0.022393 0.174797 0.147181
v 0.115573 -0.001653999999999991 0.147181
v 0.111182 0.0007590000000000198 0.321904
v 0.265292 -0.288808 0.321903
v 0.400749 0.15487000000000004 0.321903
v 0.111182 0.0007590000000000198 0.321904
v 0.111182 0.0007589999999999997 -0.006097
v 0.55486 -0.13469799999999998 0.321903
v 0.400749 0.15487000000000004 0.321903
v 0.400749 0.15487 -0.006096000000000009
v 0.265292 -0.288808 0.321903
v 0.55486 -0.13469799999999998 0.321903
v 0.55486 -0.134698 -0.006096999999999991
v 0.265292 -0.288808 -0.0060959999999999825
v 0.119012 -0.039761999999999985 0.259271
v -0.096685 -0.17443999999999998 0.259271
v 0.040052 -0.393339 0.259271
v 0.255748 -0.258662 0.259271
v -0.437937 -0.08645299999999999 0.290813
v -0.144647 -0.504641 0.29081300000000004
v -0.256583 0.04049700000000002 0.290813
v -0.437937 -0.08645299999999999 0.290813
v -0.437937 -0.086453 -0.008839999999999995
v 0.035772 -0.377889 0.290813
v -0.256583 0.04049700000000002 0.290813
v -0.256583 0.040497 -0.008840000000000002
v -0.144647 -0.504641 0.29081300000000004
v 0.035772 -0.377889 0.290813
v 0.035772 -0.377889 -0.008839999999999978
v -0.144647 -0.504641 -0.00883999999999997
v -0.174943 0.18608300000000003 0.291623
v -0.172481 0.18493 -1.1323696628316003E-17
v -0.366302 0.10727400000000001 0.291623
v -0.310152 0.24164000000000002 0.291623
v -0.174943 0.18608300000000003 0.291623
v -0.231157 0.05162500000000002 0.291623
v -0.116297 0.11876300000000001 0.209763
v 0.028834 -0.08298799999999999 0.209763
v -0.100252 -0.17581 0.209763
v -0.245298 0.025949000000000014 0.209763
v -0.366302 0.10727400000000001 0.291623
v -0.363648 0.105863 -6.482239204906812E-18
v -0.366302 0.10727400000000001 0.291623
v -0.310152 0.24164000000000002 0.291623
v -0.307611 0.240908 -1.475136055444953E-17
v -0.310152 0.24164000000000002 0.291623
v -0.228525 0.049876 -3.0540241877136693E-18
v -0.228525 0.049876 -3.0540241877136693E-18
v -0.231157 0.05162500000000002 0.291623
v -0.116297 0.11876300000000001 0.290175
v -0.245298 0.025949000000000017 0.290175
v -0.116297 0.11876300000000001 0.290175
v 0.028834 -0.08298799999999999 0.290175
v -0.116297 0.11876300000000001 0.290175
v 0.028834 -0.08298799999999999 0.290175
v -0.100252 -0.17580999999999997 0.290175
v 0.028834 -0.08298799999999999 0.290175
v -0.100252 -0.17580999999999997 0.290175
v -0.245298 0.025949000000000017 0.290175
v -0.100252 -0.17580999999999997 0.290175
v -0.245298 0.025949000000000017 0.290175
vt 0.368520 0.225184
vt 0.410102 0.225184
vt 0.410102 0.184169
vt 0.368520 0.184169
vt 0.409576 0.183904
vt 0.367987 0.183904
vt 0.368629 0.184305
vt 0.913742 0.237634
vt 0.867124 0.237634
vt 0.867124 0.275382
vt 0.913742 0.275382
vt 0.913929 0.281124
vt 0.867311 0.281124
vt 0.890024 0.164098
vt 0.867124 0.206053
vt 0.103552 0.040864
vt 0.103789 0.008237
vt 0.073727 0.008237
vt 0.073727 0.040864
vt 0.106078 0.046283
vt 0.106078 0.078435
vt 0.106629 0.078554
vt 0.135568 0.008237
vt 0.506494 0.281743
vt 0.506494 0.332969
vt 0.633079 0.332927
vt 0.573212 0.332927
vt 0.573212 0.332927
vt 0.566828 0.281743
vt 0.633079 0.332927
vt 0.566828 0.332969
vt 0.774114 0.006345
vt 0.682336 0.006345
vt 0.682336 0.045058
vt 0.774114 0.045058
vt 0.432119 0.006345
vt 0.312378 0.006345
vt 0.623466 0.006345
vt 0.498930 0.006345
vt 0.452552 0.219309
vt 0.485521 0.219309
vt 0.518284 0.219309
vt 0.548997 0.219309
vt 0.452552 0.166611
vt 0.485521 0.166611
vt 0.518284 0.166611
vt 0.548997 0.166611
vt 0.186429 0.020763
vt 0.154006 0.020763
vt 0.154006 0.043239
vt 0.186429 0.043239
vt 0.144353 0.020455
vt 0.144353 0.042931
vt 0.186429 0.054451
vt 0.194034 0.020763
vt 0.367987 0.224901
vt 0.409576 0.224901
vt 0.410183 0.225301
vt 0.368629 0.225301
vt 0.410183 0.184305
vt 0.867311 0.307651
vt 0.913929 0.307651
vt 0.890024 0.201846
vt 0.866503 0.164098
vt 0.866503 0.201846
vt 0.913742 0.206053
vt 0.867124 0.232580
vt 0.913742 0.232580
vt 0.893348 0.163833
vt 0.893348 0.201581
vt 0.916869 0.201581
vt 0.916869 0.163833
vt 0.135046 0.078435
vt 0.135046 0.046283
vt 0.135597 0.078554
vt 0.135597 0.046402
vt 0.106629 0.046402
vt 0.106127 0.008119
vt 0.106127 0.041101
vt 0.135568 0.041219
vt 0.135607 0.008319
vt 0.135607 0.041301
vt 0.106166 0.041182
vt 0.106166 0.008200
vt 0.633079 0.281701
vt 0.573212 0.281701
vt 0.633079 0.281701
vt 0.573212 0.281701
vt 0.312378 0.045058
vt 0.432118 0.045058
vt 0.623466 0.045058
vt 0.678375 0.045058
vt 0.678375 0.006345
vt 0.498930 0.045058
vt 0.618142 0.045058
vt 0.618142 0.006345
vt 0.435329 0.045058
vt 0.495251 0.045058
vt 0.495251 0.006345
vt 0.435329 0.006345
vt 0.421574 0.166611
vt 0.421574 0.219309
vt 0.490757 0.235212
vt 0.467522 0.225247
vt 0.457896 0.249305
vt 0.481134 0.259271
vt 0.154006 0.054451
vt 0.194034 0.043239
vt 0.186429 0.008706
vt 0.154006 0.008706
vt 0.485521 0.166611
vt 0.485521 0.219309
vt 0.485521 0.166611
vt 0.518284 0.166611
vt 0.518284 0.219309
vt 0.518284 0.166611
vt 0.452552 0.219309
vt 0.452552 0.219309
vt 0.452552 0.166611
vt 0.154006 0.043239
vt 0.154006 0.020763
vt 0.154006 0.043239
vt 0.186429 0.043239
vt 0.154006 0.043239
vt 0.186429 0.043239
vt 0.186429 0.020763
vt 0.186429 0.043239
vt 0.186429 0.020763
vt 0.154006 0.020763
vt 0.186429 0.020763
vt 0.154006 0.020763
vn -0 6.123233995736766E-17 1
vn -0 6.123233995736766E-17 1
vn -0 6.123233995736766E-17 1
vn -0 6.123233995736766E-17 1
vn 0.888993 0.45792 -2.80395131132778E-17
vn 0.888993 0.45792 -2.80395131132778E-17
vn -0.457578 0.88917 -5.4445959719892603E-17
vn 0 6.123233995736766E-17 1
vn 0 6.123233995736766E-17 1
vn 0 6.123233995736766E-17 1
vn 0 6.123233995736766E-17 1
vn -0.466971 0.884273 -5.414610495112137E-17
vn -0.466971 0.884273 -5.414610495112137E-17
vn 0.884276 0.466964 -2.8593298395852234E-17
vn 0.466965 -0.884276 5.4146288648141243E-17
vn 0 6.123233995736766E-17 1
vn 0 6.123233995736766E-17 1
vn 0 6.123233995736766E-17 1
vn 0 6.123233995736766E-17 1
vn -0.882765 -0.469816 2.876793302941065E-17
vn -0.882765 -0.469816 2.876793302941065E-17
vn -0.469815 0.882765 -5.4053766582465667E-17
vn 0.882765 0.469816 -2.876793302941065E-17
vn 0 6.123233995736766E-17 1
vn 1E-06 6.123233995736766E-17 1
vn -0.529622 0.848234 -5.19393526513978E-17
vn -0.529622 0.848234 -5.19393526513978E-17
vn 0.529335 -0.848413 -0.0003259999999999481
vn 1E-06 6.123233995736766E-17 1
vn 0.529047 -0.848592 -0.0006519999999999481
vn 1E-06 6.123233995736766E-17 1
vn 0 6.123233995736766E-17 1
vn 0 6.123233995736766E-17 1
vn 0 6.123233995736766E-17 1
vn 0 6.123233995736766E-17 1
vn -0.818718 -0.574195 3.5159303441820724E-17
vn -0.818718 -0.574195 3.5159303441820724E-17
vn -0.57347 0.819227 -5.016318616625444E-17
vn 0.819706 0.572784 -3.5072904610140876E-17
vn 0.651479 -0.758603 0.009841000000000048
vn -0.752898 -0.658129 -0.00317399999999996
vn -0.651559 0.758554 -0.008139000000000047
vn 0.752686 0.658365 0.00439599999999996
vn 0.067765 -0.997683 0.006105000000000061
vn -0.997296 -0.073037 -0.008160999999999995
vn -0.068143 0.997669 -0.003740000000000061
vn 0.997286 0.073102 0.008723999999999996
vn 0.094989 -0.66616 0.739735
vn -0.8679 -0.15555299999999997 0.471754
vn -0.095174 0.666138 0.739731
vn 0.867827 0.15571200000000002 0.471836
vn -0.89362 0.448824 -2.7482543749025584E-17
vn 0.480441 0.877027 -5.3702415415790284E-17
vn 0.893554 -0.448955 -9.999999999725093E-07
vn -0.4807 -0.876885 -9.999999999463063E-07
vn 0.888993 0.45792 -2.80395131132778E-17
vn 0.888993 0.45792 -2.80395131132778E-17
vn -0.457578 0.88917 -5.4445959719892603E-17
vn -0.457578 0.88917 -5.4445959719892603E-17
vn -0.457578 0.88917 -5.4445959719892603E-17
vn -0.466971 0.884273 -5.414610495112137E-17
vn -0.466971 0.884273 -5.414610495112137E-17
vn 0.884276 0.466964 -2.8593298395852234E-17
vn 0.884276 0.466964 -2.8593298395852234E-17
vn 0.884276 0.466964 -2.8593298395852234E-17
vn 0.466965 -0.884276 5.4146288648141243E-17
vn 0.466965 -0.884276 5.4146288648141243E-17
vn 0.466965 -0.884276 5.4146288648141243E-17
vn -0.884275 -0.466966 2.859342086053215E-17
vn -0.884275 -0.466966 2.859342086053215E-17
vn -0.884275 -0.466966 2.859342086053215E-17
vn -0.884275 -0.466966 2.859342086053215E-17
vn -0.882765 -0.469816 2.876793302941065E-17
vn -0.882765 -0.469816 2.876793302941065E-17
vn -0.469815 0.882765 -5.4053766582465667E-17
vn -0.469815 0.882765 -5.4053766582465667E-17
vn -0.469815 0.882765 -5.4053766582465667E-17
vn 0.882765 0.469816 -2.876793302941065E-17
vn 0.882765 0.469816 -2.876793302941065E-17
vn 0.882765 0.469816 -2.876793302941065E-17
vn 0.469815 -0.882765 5.4053766582465667E-17
vn 0.469815 -0.882765 5.4053766582465667E-17
vn 0.469815 -0.882765 5.4053766582465667E-17
vn 0.469815 -0.882765 5.4053766582465667E-17
vn -0.529622 0.848234 -5.19393526513978E-17
vn -0.529622 0.848234 -5.19393526513978E-17
vn 0.529335 -0.848413 -0.0003259999999999481
vn 0.529622 -0.848234 5.19393526513978E-17
vn -0.818718 -0.574195 3.5159303441820724E-17
vn -0.818718 -0.574195 3.5159303441820724E-17
vn -0.57347 0.819227 -5.016318616625444E-17
vn -0.57347 0.819227 -5.016318616625444E-17
vn -0.57347 0.819227 -5.016318616625444E-17
vn 0.819706 0.572784 -3.5072904610140876E-17
vn 0.819706 0.572784 -3.5072904610140876E-17
vn 0.819706 0.572784 -3.5072904610140876E-17
vn 0.574858 -0.818253 5.010354586713596E-17
vn 0.574858 -0.818253 5.010354586713596E-17
vn 0.574858 -0.818253 5.010354586713596E-17
vn 0.574858 -0.818253 5.010354586713596E-17
vn 0.997286 0.073102 0.008723999999999996
vn 0.752686 0.658365 0.00439599999999996
vn 0 6.123233995736766E-17 1
vn 0 6.123233995736766E-17 1
vn 0 6.123233995736766E-17 1
vn 0 6.123233995736766E-17 1
vn 0.480441 0.877027 -5.3702415415790284E-17
vn 0.893554 -0.448955 -9.999999999725093E-07
vn -0.4807 -0.876885 -9.999999999463063E-07
vn -0.89362 0.448824 -2.7482543749025584E-17
vn -0.997296 -0.073037 -0.008160999999999995
vn -0.752898 -0.658129 -0.00317399999999996
vn -0.997296 -0.073037 -0.008160999999999995
vn -0.068143 0.997669 -0.003740000000000061
vn -0.651559 0.758554 -0.008139000000000047
vn -0.068143 0.997669 -0.003740000000000061
vn 0.651479 -0.758603 0.009841000000000048
vn 0.651479 -0.758603 0.009841000000000048
vn 0.067765 -0.997683 0.006105000000000061
vn -0.095174 0.666138 0.739731
vn -0.8679 -0.15555299999999997 0.471754
vn -0.095174 0.666138 0.739731
vn 0.867827 0.15571200000000002 0.471836
vn -0.095174 0.666138 0.739731
vn 0.867827 0.15571200000000002 0.471836
vn 0.094989 -0.66616 0.739735
vn 0.867827 0.15571200000000002 0.471836
vn 0.094989 -0.66616 0.739735
vn -0.8679 -0.15555299999999997 0.471754
vn 0.094989 -0.66616 0.739735
vn -0.8679 -0.15555299999999997 0.471754
g Standard_3
f 131/131/131 110/110/110 109/109/109
f 109/109/109 130/130/130 129/129/129
f 128/128/128 55/55/55 108/108/108
f 108/108/108 127/127/127 126/126/126
f 125/125/125 54/54/54 107/107/107
f 107/107/107 124/124/124 123/123/123
f 122/122/122 53/53/53 52/52/52
f 52/52/52 121/121/121 120/120/120
f 50/50/50 49/49/49 48/48/48
f 48/48/48 51/51/51 50/50/50
f 103/103/103 106/106/106 105/105/105
f 105/105/105 104/104/104 103/103/103
f 101/101/101 119/119/119 118/118/118
f 117/117/117 102/102/102 101/101/101
f 116/116/116 47/47/47 43/43/43
f 43/43/43 115/115/115 114/114/114
f 113/113/113 46/46/46 42/42/42
f 42/42/42 112/112/112 111/111/111
f 44/44/44 45/45/45 41/41/41
f 41/41/41 40/40/40 44/44/44
f 97/97/97 100/100/100 99/99/99
f 99/99/99 98/98/98 97/97/97
f 94/94/94 39/39/39 96/96/96
f 96/96/96 95/95/95 94/94/94
f 91/91/91 38/38/38 93/93/93
f 93/93/93 92/92/92 91/91/91
f 89/89/89 37/37/37 36/36/36
f 36/36/36 90/90/90 89/89/89
f 34/34/34 33/33/33 32/32/32
f 32/32/32 35/35/35 34/34/34
f 87/87/87 30/30/30 28/28/28
f 28/28/28 88/88/88 87/87/87
f 85/85/85 26/26/26 27/27/27
f 27/27/27 86/86/86 85/85/85
f 25/25/25 24/24/24 29/29/29
f 29/29/29 31/31/31 25/25/25
f 81/81/81 84/84/84 83/83/83
f 83/83/83 82/82/82 81/81/81
f 78/78/78 23/23/23 80/80/80
f 80/80/80 79/79/79 78/78/78
f 75/75/75 22/22/22 77/77/77
f 77/77/77 76/76/76 75/75/75
f 73/73/73 21/21/21 20/20/20
f 20/20/20 74/74/74 73/73/73
f 16/16/16 19/19/19 18/18/18
f 18/18/18 17/17/17 16/16/16
f 69/69/69 72/72/72 71/71/71
f 71/71/71 70/70/70 69/69/69
f 66/66/66 68/68/68 67/67/67
f 67/67/67 15/15/15 66/66/66
f 63/63/63 65/65/65 64/64/64
f 64/64/64 14/14/14 63/63/63
f 12/12/12 62/62/62 61/61/61
f 61/61/61 13/13/13 12/12/12
f 10/10/10 9/9/9 8/8/8
f 8/8/8 11/11/11 10/10/10
f 58/58/58 60/60/60 7/7/7
f 7/7/7 59/59/59 58/58/58
f 56/56/56 6/6/6 5/5/5
f 5/5/5 57/57/57 56/56/56
f 3/3/3 2/2/2 1/1/1
f 1/1/1 4/4/4 3/3/3
