v -0.45584 0.11475600000000001 0.128356
v -0.401342 0.477491 0.12835599999999997
v -0.223744 0.450383 0.12835599999999997
v -0.278907 0.08802100000000002 0.128356
v -0.45584 0.114756 -0.0004360000000000071
v -0.401342 0.477491 -0.00043600000000002925
v -0.223744 0.450383 -0.0004360000000000276
v -0.278907 0.088021 -0.0004360000000000054
v -0.175354 0.11744900000000001 0.154817
v -0.235418 0.258799 0.15481699999999998
v -0.034005 0.177513 0.154817
v -0.094068 0.318863 0.15481699999999998
v -0.235418 0.258799 0.0012349999999999842
v -0.094068 0.318863 0.0012349999999999805
v -0.235418 0.258799 0.15481699999999998
v -0.094068 0.318863 0.15481699999999998
v -0.175354 0.117449 0.0012349999999999928
v -0.235418 0.258799 0.0012349999999999842
v -0.034005 0.177513 0.0012349999999999891
v -0.094068 0.318863 0.0012349999999999805
v -0.175354 0.11744900000000001 0.154817
v -0.235418 0.258799 0.15481699999999998
v -0.034005 0.177513 0.154817
v -0.094068 0.318863 0.15481699999999998
v 0.257663 0.343503 0.281249
v 0.192326 0.300396 0.306064
v 0.127736 0.257699 0.282679
v 0.470428 -0.0035459999999999828 0.281242
v 0.403892 -0.04497999999999998 0.306036
v 0.337854 -0.08572499999999998 0.282585
v 0.368035 -0.057566999999999986 0.267083
v 0.12097 0.04965500000000001 0.267083
v 0.476814 0.193218 -0.012725000000000012
v 0.229748 0.300441 -0.01272500000000002
v 0.368035 -0.057567 -0.012725999999999996
v 0.476814 0.19321800000000003 0.267083
v 0.12035 0.050123 -0.012353000000000003
v 0.229748 0.300441 0.267083
v 0.342149 -0.421467 0.18292500000000003
v -0.08183 -0.388229 0.18287800000000004
v -0.060715 -0.11517699999999999 0.182878
v 0.363264 -0.148415 0.182925
v 0.342149 -0.421467 0.001968000000000026
v -0.08183 -0.388229 0.0019210000000000238
v -0.060501 -0.114426 0.002162000000000007
v 0.363264 -0.148415 0.0019680000000000092
v 0.204158 -0.10633299999999998 0.20218
v 0.13242 -0.07396099999999999 0.225296
v 0.062361 -0.042287999999999985 0.200264
v 0.036939 -0.471058 0.20224000000000003
v -0.033184 -0.435465 0.22536300000000004
v -0.101674 -0.400751 0.20019700000000004
v 0.461764 -0.251634 0.20841100000000004
v 0.41026 -0.19283899999999998 0.23318
v 0.357933 -0.135689 0.20981
v 0.15914 -0.519446 0.20841100000000004
v 0.109307 -0.459285 0.23327600000000004
v 0.060216 -0.399423 0.20981700000000003
v -0.401342 0.477491 0.12835599999999997
v -0.45584 0.11475600000000001 0.128356
v -0.223744 0.450383 0.12835599999999997
v -0.401342 0.477491 0.12835599999999997
v -0.401342 0.477491 -0.00043600000000002925
v -0.278907 0.08802100000000002 0.128356
v -0.223744 0.450383 0.12835599999999997
v -0.223744 0.450383 -0.0004360000000000276
v -0.45584 0.11475600000000001 0.128356
v -0.278907 0.08802100000000002 0.128356
v -0.278907 0.088021 -0.0004360000000000054
v -0.45584 0.114756 -0.0004360000000000071
v -0.175354 0.11744900000000001 0.154817
v -0.034005 0.177513 0.154817
v -0.034005 0.177513 0.0012349999999999891
v -0.175354 0.117449 0.0012349999999999928
v 0.476814 0.19321800000000003 0.267083
v 0.229748 0.300441 0.267083
v 0.368035 -0.057566999999999986 0.267083
v 0.476814 0.19321800000000003 0.267083
v 0.476814 0.193218 -0.012725000000000012
v 0.12097 0.04965500000000001 0.267083
v 0.368035 -0.057566999999999986 0.267083
v 0.368035 -0.057567 -0.012725999999999996
v 0.229748 0.300441 0.267083
v 0.12097 0.04965500000000001 0.267083
v 0.12035 0.050123 -0.012353000000000003
v 0.229748 0.300441 -0.01272500000000002
v -0.08183 -0.388229 0.18287800000000004
v 0.342149 -0.421467 0.18292500000000003
v -0.060715 -0.11517699999999999 0.182878
v -0.08183 -0.388229 0.18287800000000004
v -0.08183 -0.388229 0.0019210000000000238
v 0.363264 -0.148415 0.182925
v -0.060715 -0.11517699999999999 0.182878
v -0.060501 -0.114426 0.002162000000000007
v 0.342149 -0.421467 0.18292500000000003
v 0.363264 -0.148415 0.182925
v 0.363264 -0.148415 0.0019680000000000092
v 0.342149 -0.421467 0.001968000000000026
vt 0.774114 0.006345
vt 0.682336 0.006345
vt 0.682336 0.045058
vt 0.774114 0.045058
vt 0.432119 0.006345
vt 0.312378 0.006345
vt 0.623466 0.006345
vt 0.498930 0.006345
vt 0.006440 0.059383
vt 0.006440 0.111242
vt 0.049960 0.059383
vt 0.049961 0.111242
vt 0.099393 0.112509
vt 0.099393 0.059108
vt 0.054788 0.112509
vt 0.054788 0.059108
vt 0.054788 0.059108
vt 0.054788 0.112509
vt 0.054788 0.059108
vt 0.099393 0.059108
vt 0.099393 0.059108
vt 0.099393 0.112509
vt 0.054788 0.112509
vt 0.099393 0.112509
vt 0.866672 0.576883
vt 0.855658 0.576883
vt 0.844837 0.576883
vt 0.866671 0.533373
vt 0.855510 0.533373
vt 0.844836 0.533374
vt 0.506494 0.281743
vt 0.506494 0.332969
vt 0.633079 0.332927
vt 0.573212 0.332927
vt 0.633079 0.332927
vt 0.566828 0.281743
vt 0.633079 0.332927
vt 0.566828 0.332969
vt 0.567201 0.241885
vt 0.501226 0.241885
vt 0.501226 0.275812
vt 0.567201 0.275812
vt 0.576455 0.275127
vt 0.642251 0.275127
vt 0.688361 0.274831
vt 0.642251 0.275127
vt 0.919342 0.641060
vt 0.908325 0.641060
vt 0.897499 0.641060
vt 0.919342 0.591526
vt 0.908324 0.591528
vt 0.897499 0.591528
vt 0.918993 0.532094
vt 0.930011 0.532094
vt 0.940836 0.532094
vt 0.918994 0.581627
vt 0.930011 0.581627
vt 0.940836 0.581627
vt 0.312378 0.045058
vt 0.432118 0.045058
vt 0.623466 0.045058
vt 0.678375 0.045058
vt 0.678375 0.006345
vt 0.498930 0.045058
vt 0.618142 0.045058
vt 0.618142 0.006345
vt 0.435329 0.045058
vt 0.495251 0.045058
vt 0.495251 0.006345
vt 0.435329 0.006345
vt 0.099393 0.112509
vt 0.099393 0.059108
vt 0.054788 0.059108
vt 0.054788 0.112509
vt 0.633079 0.281701
vt 0.573212 0.281701
vt 0.633079 0.281701
vt 0.573212 0.281701
vt 0.573212 0.332927
vt 0.633079 0.281701
vt 0.573212 0.281701
vt 0.573212 0.332927
vt 0.633079 0.281701
vt 0.573212 0.281701
vt 0.573212 0.332927
vt 0.633079 0.332927
vt 0.642251 0.241200
vt 0.576455 0.241200
vt 0.688361 0.240904
vt 0.650039 0.240904
vt 0.650039 0.274831
vt 0.642251 0.241200
vt 0.576455 0.241200
vt 0.576455 0.275127
vt 0.688361 0.240904
vt 0.650039 0.240904
vt 0.650039 0.274831
vt 0.688361 0.274831
vn 0 6.123233995736766E-17 1
vn 0 6.123233995736766E-17 1
vn 0 6.123233995736766E-17 1
vn 0 6.123233995736766E-17 1
vn -0.988901 0.148574 -9.097533676825943E-18
vn -0.988901 0.148574 -9.097533676825943E-18
vn 0.150888 0.988551 -6.053129089719576E-17
vn 0.98861 -0.150499 9.215405931243875E-18
vn 0 6.123233995736766E-17 1
vn 1E-06 6.123233995736766E-17 1
vn 0 6.123233995736766E-17 1
vn 0 6.123233995736766E-17 1
vn -0.391086 0.920354 -5.635542900912316E-17
vn -0.391086 0.920354 -5.635542900912316E-17
vn -0.391086 0.920354 -5.635542900912316E-17
vn -0.391086 0.920354 -5.635542900912316E-17
vn -0.920353 -0.391089 2.394729460158696E-17
vn -0.920353 -0.391089 2.394729460158696E-17
vn 0.920356 0.391082 -2.394686597520726E-17
vn 0.920356 0.391082 -2.394686597520726E-17
vn -0.920353 -0.391089 2.394729460158696E-17
vn -0.920353 -0.391089 2.394729460158696E-17
vn 0.920356 0.391082 -2.394686597520726E-17
vn 0.920356 0.391082 -2.394686597520726E-17
vn 0.257776 0.15801700000000005 0.953196
vn 0.09314 0.05704000000000006 0.994018
vn -0.24665 -0.15116899999999994 0.957242
vn 0.257496 0.15775100000000006 0.953315
vn -0.081937 -0.05027399999999994 0.995369
vn -0.246656 -0.15117399999999995 0.95724
vn 0 6.123233995736766E-17 1
vn 0 -9.999999999387675E-07 1
vn 0.398109 0.917338 -5.617075227181174E-17
vn 0.398109 0.917338 -5.617075227181174E-17
vn 0.917415 -0.397933 2.4366368736255183E-17
vn 0 -9.999999999387675E-07 1
vn -0.39873 -0.917068 -0.0006529999999999439
vn 0 -9.999999999387675E-07 1
vn -0.00011 8.000000000061232E-06 1
vn -0.00011 8.000000000061232E-06 1
vn -0.00011 8.000000000061232E-06 1
vn -0.00011 8.000000000061232E-06 1
vn -0.078154 -0.996941 6.104503022943807E-17
vn -0.078154 -0.996941 6.104503022943807E-17
vn -0.996979 0.077668 -0.0008620000000000048
vn 0.079949 0.996799 -6.103633523716412E-17
vn 0.256234 -0.11731999999999994 0.959469
vn 0.080381 -0.03667899999999994 0.996089
vn -0.282437 0.12931400000000007 0.95053
vn 0.256483 -0.11737499999999994 0.959395
vn -0.106979 0.049020000000000064 0.993052
vn -0.283479 0.12954500000000005 0.950188
vn 0.200201 -0.22622399999999995 0.95328
vn 0.07298 -0.08222799999999994 0.993938
vn -0.191836 0.21680200000000005 0.957181
vn 0.200761 -0.22663799999999995 0.953064
vn -0.063307 0.07170900000000005 0.995414
vn -0.192405 0.21722400000000006 0.956971
vn -0.988901 0.148574 -9.097533676825943E-18
vn -0.988901 0.148574 -9.097533676825943E-18
vn 0.150888 0.988551 -6.053129089719576E-17
vn 0.150888 0.988551 -6.053129089719576E-17
vn 0.150888 0.988551 -6.053129089719576E-17
vn 0.98861 -0.150499 9.215405931243875E-18
vn 0.98861 -0.150499 9.215405931243875E-18
vn 0.98861 -0.150499 9.215405931243875E-18
vn -0.149404 -0.988776 6.054506817368617E-17
vn -0.149404 -0.988776 6.054506817368617E-17
vn -0.149404 -0.988776 6.054506817368617E-17
vn -0.149404 -0.988776 6.054506817368617E-17
vn 0.391084 -0.920355 5.635549024146312E-17
vn 0.391084 -0.920355 5.635549024146312E-17
vn 0.391084 -0.920355 5.635549024146312E-17
vn 0.391084 -0.920355 5.635549024146312E-17
vn 0.398109 0.917338 -5.617075227181174E-17
vn 0.398109 0.917338 -5.617075227181174E-17
vn 0.917415 -0.397933 2.4366368736255183E-17
vn 0.917415 -0.397933 2.4366368736255183E-17
vn 0.917415 -0.397933 2.4366368736255183E-17
vn -0.398419 -0.917204 -0.00032599999999994385
vn -0.398108 -0.917339 5.617081350415169E-17
vn -0.398419 -0.917204 -0.00032599999999994385
vn -0.916866 0.399193 0.0013509999999999755
vn -0.917414 0.397924 0.0027009999999999756
vn -0.916866 0.399193 0.0013509999999999755
vn -0.916315 0.400459 -2.4521041626987496E-17
vn -0.078154 -0.996941 6.104503022943807E-17
vn -0.078154 -0.996941 6.104503022943807E-17
vn -0.997001 0.077384 -0.00043100000000000473
vn -0.997023 0.0771 -4.721013410713047E-18
vn -0.997001 0.077384 -0.00043100000000000473
vn 0.079051 0.996868 0.002117999999999939
vn 0.078153 0.996932 0.004234999999999939
vn 0.079051 0.996868 0.002117999999999939
vn 0.997023 -0.077102 4.7211358753929616E-18
vn 0.997023 -0.077102 4.7211358753929616E-18
vn 0.997023 -0.077102 4.7211358753929616E-18
vn 0.997023 -0.077102 4.7211358753929616E-18
g 01
f 57/57/57 54/54/54 55/55/55
f 55/55/55 58/58/58 57/57/57
f 56/56/56 53/53/53 54/54/54
f 54/54/54 57/57/57 56/56/56
f 51/51/51 48/48/48 49/49/49
f 49/49/49 52/52/52 51/51/51
f 50/50/50 47/47/47 48/48/48
f 48/48/48 51/51/51 50/50/50
f 95/95/95 98/98/98 97/97/97
f 97/97/97 96/96/96 95/95/95
f 92/92/92 46/46/46 94/94/94
f 94/94/94 93/93/93 92/92/92
f 89/89/89 45/45/45 91/91/91
f 91/91/91 90/90/90 89/89/89
f 87/87/87 44/44/44 43/43/43
f 43/43/43 88/88/88 87/87/87
f 41/41/41 40/40/40 39/39/39
f 39/39/39 42/42/42 41/41/41
f 83/83/83 86/86/86 85/85/85
f 85/85/85 84/84/84 83/83/83
f 80/80/80 37/37/37 82/82/82
f 82/82/82 81/81/81 80/80/80
f 77/77/77 35/35/35 79/79/79
f 79/79/79 78/78/78 77/77/77
f 75/75/75 33/33/33 34/34/34
f 34/34/34 76/76/76 75/75/75
f 32/32/32 31/31/31 36/36/36
f 36/36/36 38/38/38 32/32/32
f 29/29/29 26/26/26 27/27/27
f 27/27/27 30/30/30 29/29/29
f 28/28/28 25/25/25 26/26/26
f 26/26/26 29/29/29 28/28/28
f 71/71/71 74/74/74 73/73/73
f 73/73/73 72/72/72 71/71/71
f 23/23/23 19/19/19 20/20/20
f 20/20/20 24/24/24 23/23/23
f 22/22/22 18/18/18 17/17/17
f 17/17/17 21/21/21 22/22/22
f 16/16/16 14/14/14 13/13/13
f 13/13/13 15/15/15 16/16/16
f 12/12/12 10/10/10 9/9/9
f 9/9/9 11/11/11 12/12/12
f 67/67/67 70/70/70 69/69/69
f 69/69/69 68/68/68 67/67/67
f 64/64/64 8/8/8 66/66/66
f 66/66/66 65/65/65 64/64/64
f 61/61/61 7/7/7 63/63/63
f 63/63/63 62/62/62 61/61/61
f 59/59/59 6/6/6 5/5/5
f 5/5/5 60/60/60 59/59/59
f 3/3/3 2/2/2 1/1/1
f 1/1/1 4/4/4 3/3/3
