v -0.903288 0.910772 0.10476399999999994
v 0.726781 0.805059 0.10476399999999994
v 0.72356 0.752556 0.10476399999999995
v -0.906509 0.858269 0.10476399999999994
v -0.903288 0.910772 0.10476399999999994
v 0.726781 0.805059 0.10476399999999994
v 0.72356 0.752556 0.10476399999999995
v -0.906509 0.858269 0.10476399999999994
v -0.659268 0.403646 0.045031999999999975
v -0.658798 0.403884 0.13408299999999998
v 0.038106 0.402478 0.13431399999999996
v 0.036634 0.402176 0.04502899999999997
v -0.658628 0.518314 0.04503299999999996
v -0.658055 0.51861 0.13410399999999997
v 0.037365 0.516852 0.04503199999999997
v 0.039147 0.517223 0.13434199999999996
v -0.025269 0.390159 0.04417399999999998
v -0.025758 0.389882 0.18632599999999996
v -0.711273 0.376211 0.18652899999999997
v -0.709518 0.376508 0.04417099999999998
v -0.013237 0.269973 0.044175999999999986
v -0.013805 0.269613 0.18638399999999997
v -0.709368 0.256854 0.044173999999999984
v -0.711456 0.256472 0.18659999999999996
v -0.214847 0.526395 0.037182999999999966
v -0.218808 0.520653 0.18221099999999998
v 0.390702 0.524976 0.18348899999999999
v 0.393303 0.530539 0.03777499999999997
v -0.202812 0.651175 0.03707899999999996
v -0.206966 0.646305 0.18207299999999998
v 0.397669 0.658142 0.03765999999999996
v 0.394995 0.653433 0.18334699999999998
v -0.095733 0.887737 0.04079999999999995
v -0.16078 0.260091 0.04079999999999999
v -0.213041 0.266049 0.04079999999999999
v -0.147994 0.893696 0.04079999999999995
v -0.095733 0.887737 0.04079999999999995
v -0.16078 0.260091 0.04079999999999999
v -0.213041 0.266049 0.04079999999999999
v -0.147994 0.893696 0.04079999999999995
v -0.804854 0.80255 0.10476399999999994
v 0.628402 0.710641 0.10476399999999995
v 0.625126 0.658142 0.10476399999999995
v -0.80813 0.750051 0.10476399999999995
v -0.804854 0.80255 0.10476399999999994
v 0.628402 0.710641 0.10476399999999995
v 0.625126 0.658142 0.10476399999999995
v -0.80813 0.750051 0.10476399999999995
v 0.322365 0.926605 0.04079999999999995
v 0.330965 0.426185 0.040799999999999975
v 0.278365 0.426044 0.040799999999999975
v 0.269766 0.926464 0.04079999999999995
v 0.322365 0.926605 0.04079999999999995
v 0.330965 0.426185 0.040799999999999975
v 0.278365 0.426044 0.040799999999999975
v 0.269766 0.926464 0.04079999999999995
v -0.577772 0.932267 0.04079999999999995
v -0.540935 0.223867 0.04079999999999999
v -0.593485 0.221573 0.04079999999999999
v -0.630322 0.929973 0.04079999999999995
v -0.577772 0.932267 0.04079999999999995
v -0.540935 0.223867 0.04079999999999999
v -0.593485 0.221573 0.04079999999999999
v -0.630322 0.929973 0.04079999999999995
v 0.536497 -0.733787 0.3671940000000001
v 0.606569 -0.374589 0.39196
v 0.78283 -0.409324 0.390818
v 0.71211 -0.768121 0.36607400000000007
v 0.537376 -0.725099 0.23869900000000005
v 0.607448 -0.365901 0.263465
v 0.78371 -0.400636 0.262323
v 0.712989 -0.759433 0.23757900000000007
v 0.822035 -0.426378 0.259271
v 0.567752 -0.427975 0.259271
v 0.820365 -0.168287 -0.004912999999999989
v 0.56608 -0.169884 -0.004912999999999989
v 0.822035 -0.426378 -0.004912999999999974
v 0.820365 -0.16828699999999996 0.259271
v 0.567038 -0.427807 -0.004561999999999974
v 0.56608 -0.16988399999999998 0.259271
v 0.483658 -0.39710199999999996 0.457128
v 0.279958 -0.39568299999999995 0.457085
v 0.280288 -0.14037699999999997 0.457085
v 0.483989 -0.14179499999999998 0.457128
v 0.483658 -0.397102 0.290993
v 0.279958 -0.395683 0.29095
v 0.280364 -0.13966399999999998 0.291171
v 0.483989 -0.14179499999999998 0.290993
v 0.239419 -0.389909 0.291206
v 0.237445 -0.09417099999999999 0.291206
v 0.535155 -0.387936 0.291206
v 0.533183 -0.09219799999999999 0.291206
v 0.237445 -0.094171 -0.004537999999999994
v 0.533183 -0.092198 -0.004537999999999994
v 0.237445 -0.09417099999999999 0.291206
v 0.533183 -0.09219799999999999 0.291206
v 0.239419 -0.389909 -0.004537999999999976
v 0.237445 -0.094171 -0.004537999999999994
v 0.535155 -0.387936 -0.004537999999999977
v 0.533183 -0.092198 -0.004537999999999994
v 0.239419 -0.389909 0.291206
v 0.237445 -0.09417099999999999 0.291206
v 0.535155 -0.387936 0.291206
v 0.533183 -0.09219799999999999 0.291206
v 0.247844 -0.500673 0.667002
v 0.335612 -0.31333099999999997 0.667002
v 0.435184 -0.588442 0.667002
v 0.522954 -0.40109999999999996 0.667002
v 0.335612 -0.31333099999999997 0.46012
v 0.522954 -0.40109999999999996 0.46012
v 0.335612 -0.31333099999999997 0.667002
v 0.522954 -0.40109999999999996 0.667002
v 0.247844 -0.500673 0.46012000000000003
v 0.335612 -0.31333099999999997 0.46012
v 0.435184 -0.588442 0.46012000000000003
v 0.522954 -0.40109999999999996 0.46012
v 0.247844 -0.500673 0.667002
v 0.335612 -0.31333099999999997 0.667002
v 0.435184 -0.588442 0.667002
v 0.522954 -0.40109999999999996 0.667002
v 0.495596 -0.397676 0.321903
v 0.498703 -0.725685 0.32190300000000005
v 0.170694 -0.728791 0.32190300000000005
v 0.167587 -0.400782 0.321904
v 0.170694 -0.728791 -0.006095999999999956
v 0.167587 -0.400782 -0.006096999999999976
v 0.495596 -0.397676 -0.006095999999999976
v 0.498703 -0.725684 -0.006096999999999956
v 0.151365 -0.504727 0.4528190000000001
v 0.5096 -0.425893 0.452819
v 0.5478 -0.60144 0.4528190000000001
v 0.189677 -0.679519 0.4528190000000001
v 0.151365 -0.504727 0.32402700000000006
v 0.5096 -0.425893 0.324027
v 0.5478 -0.60144 0.32402700000000006
v 0.189677 -0.679519 0.32402700000000006
v 0.530389 -0.493806 0.22372100000000003
v 0.798745 -0.493171 0.22372100000000003
v 0.800715 -0.788467 0.22372100000000006
v 0.5313 -0.789373 0.22372100000000006
v 0.530389 -0.493806 -0.0004359999999999698
v 0.5313 -0.789373 -0.00043599999999995167
v 0.800715 -0.788467 -0.0004359999999999517
v 0.798745 -0.493171 -0.00043599999999996983
v -0.137658 -0.49078499999999997 0.535707
v 0.128046 -0.45291299999999995 0.535707
v -0.099788 -0.756487 0.535707
v 0.165917 -0.718618 0.535707
v 0.128046 -0.452913 0.267318
v 0.165917 -0.718618 0.26731800000000006
v 0.128046 -0.45291299999999995 0.535707
v 0.165917 -0.718618 0.535707
v -0.137658 -0.490785 0.26731800000000006
v 0.128046 -0.452913 0.267318
v -0.099788 -0.756487 0.26731800000000006
v 0.165917 -0.718618 0.26731800000000006
v -0.137658 -0.49078499999999997 0.535707
v 0.128046 -0.45291299999999995 0.535707
v -0.099788 -0.756487 0.535707
v 0.165917 -0.718618 0.535707
v 0.123308 -0.643744 0.27017700000000006
v 0.126867 -0.822623 0.27017700000000006
v -0.094454 -0.830722 0.27017700000000006
v -0.098229 -0.651144 0.27017700000000006
v 0.123308 -0.643744 -0.005142999999999961
v -0.098229 -0.651144 -0.00514299999999996
v -0.094454 -0.830722 -0.005142999999999949
v 0.126867 -0.822623 -0.00514299999999995
v -0.093344 -0.628397 0.24386700000000003
v -0.095004 -0.379728 0.24386700000000003
v 0.155323 -0.626738 0.24386700000000003
v 0.153665 -0.378069 0.24386700000000003
v -0.095004 -0.379728 -0.004806999999999976
v 0.153665 -0.378069 -0.004806999999999976
v -0.095004 -0.379728 0.24386700000000003
v 0.153665 -0.378069 0.24386700000000003
v -0.093344 -0.628397 -0.0048069999999999615
v -0.095004 -0.379728 -0.004806999999999976
v 0.155323 -0.626738 -0.0048069999999999615
v 0.153665 -0.378069 -0.004806999999999976
v -0.093344 -0.628397 0.24386700000000003
v -0.095004 -0.379728 0.24386700000000003
v 0.155323 -0.626738 0.24386700000000003
v 0.153665 -0.378069 0.24386700000000003
v -0.123877 -0.647587 0.30765400000000004
v -0.105683 -0.818941 0.30765400000000004
v -0.277036 -0.837135 0.30765400000000004
v -0.29523 -0.665781 0.30765400000000004
v -0.277036 -0.837135 0.13535000000000005
v -0.29523 -0.665781 0.13535000000000003
v -0.123877 -0.647587 0.13535000000000003
v -0.105683 -0.818941 0.13535000000000005
v -0.284309 -0.939079 0.12835600000000005
v -0.28694 -0.572282 0.12835600000000003
v -0.107286 -0.571415 0.12835600000000003
v -0.105371 -0.937946 0.12835600000000005
v -0.284309 -0.939079 -0.0004359999999999425
v -0.28694 -0.572282 -0.000435999999999965
v -0.107286 -0.571415 -0.00043599999999996506
v -0.105371 -0.937946 -0.0004359999999999426
v -0.485732 -0.543382 0.22372100000000003
v -0.306791 -0.542747 0.22372100000000003
v -0.305478 -0.838042 0.22372100000000006
v -0.485125 -0.838948 0.22372100000000006
v -0.485732 -0.543382 -0.00043599999999996674
v -0.485125 -0.838948 -0.00043599999999994864
v -0.305478 -0.838042 -0.0004359999999999487
v -0.306791 -0.542747 -0.0004359999999999668
v -0.50989 -0.658046 0.20898200000000003
v -0.510771 -0.870649 0.20898200000000006
v -0.723373 -0.869768 0.20898200000000006
v -0.722492 -0.657165 0.20898200000000003
v -0.50989 -0.658046 -0.0036219999999999595
v -0.510771 -0.870649 -0.0036219999999999464
v -0.723373 -0.869768 -0.0036219999999999464
v -0.722492 -0.657165 -0.0036219999999999595
v -0.690455 -0.619268 0.13987300000000003
v -0.693416 -0.320033 0.13987300000000003
v -0.491167 -0.319325 0.13987300000000003
v -0.489011 -0.618344 0.13987300000000003
v -0.690455 -0.619268 -0.005116999999999962
v -0.693416 -0.320033 -0.00511699999999998
v -0.491167 -0.319325 -0.00511699999999998
v -0.489011 -0.618344 -0.005116999999999962
v -0.446705 -0.536246 0.31058300000000005
v -0.737688 -0.496834 0.31054000000000004
v -0.716231 -0.338367 0.31054
v -0.425248 -0.377779 0.310583
v -0.446705 -0.536246 0.14444800000000002
v -0.737688 -0.496834 0.14440500000000003
v -0.716065 -0.337938 0.14462600000000003
v -0.425248 -0.377779 0.14444800000000002
v -0.658798 0.403884 0.13408299999999998
v -0.659268 0.403646 0.045031999999999975
v -0.658055 0.51861 0.13410399999999997
v -0.658628 0.518314 0.04503299999999996
v -0.658055 0.51861 0.13410399999999997
v 0.039147 0.517223 0.13434199999999996
v 0.038106 0.402478 0.13431399999999996
v -0.658798 0.403884 0.13408299999999998
v 0.036634 0.402176 0.04502899999999997
v 0.038106 0.402478 0.13431399999999996
v 0.039147 0.517223 0.13434199999999996
v 0.037365 0.516852 0.04503199999999997
v -0.025758 0.389882 0.18632599999999996
v -0.025269 0.390159 0.04417399999999998
v -0.013805 0.269613 0.18638399999999997
v -0.013237 0.269973 0.044175999999999986
v -0.013805 0.269613 0.18638399999999997
v -0.711456 0.256472 0.18659999999999996
v -0.711273 0.376211 0.18652899999999997
v -0.025758 0.389882 0.18632599999999996
v -0.709518 0.376508 0.04417099999999998
v -0.711273 0.376211 0.18652899999999997
v -0.711456 0.256472 0.18659999999999996
v -0.709368 0.256854 0.044173999999999984
v -0.218808 0.520653 0.18221099999999998
v -0.214847 0.526395 0.037182999999999966
v -0.206966 0.646305 0.18207299999999998
v -0.202812 0.651175 0.03707899999999996
v -0.206966 0.646305 0.18207299999999998
v 0.394995 0.653433 0.18334699999999998
v 0.390702 0.524976 0.18348899999999999
v -0.218808 0.520653 0.18221099999999998
v 0.393303 0.530539 0.03777499999999997
v 0.390702 0.524976 0.18348899999999999
v 0.394995 0.653433 0.18334699999999998
v 0.397669 0.658142 0.03765999999999996
v 0.606569 -0.374589 0.39196
v 0.536497 -0.733787 0.3671940000000001
v 0.78283 -0.409324 0.390818
v 0.606569 -0.374589 0.39196
v 0.607448 -0.365901 0.263465
v 0.71211 -0.768121 0.36607400000000007
v 0.78283 -0.409324 0.390818
v 0.78371 -0.400636 0.262323
v 0.536497 -0.733787 0.3671940000000001
v 0.71211 -0.768121 0.36607400000000007
v 0.712989 -0.759433 0.23757900000000007
v 0.537376 -0.725099 0.23869900000000005
v 0.820365 -0.16828699999999996 0.259271
v 0.56608 -0.16988399999999998 0.259271
v 0.822035 -0.426378 0.259271
v 0.820365 -0.16828699999999996 0.259271
v 0.820365 -0.168287 -0.004912999999999989
v 0.567752 -0.427975 0.259271
v 0.822035 -0.426378 0.259271
v 0.822035 -0.426378 -0.004912999999999974
v 0.56608 -0.16988399999999998 0.259271
v 0.567752 -0.427975 0.259271
v 0.567038 -0.427807 -0.004561999999999974
v 0.56608 -0.169884 -0.004912999999999989
v 0.279958 -0.39568299999999995 0.457085
v 0.483658 -0.39710199999999996 0.457128
v 0.280288 -0.14037699999999997 0.457085
v 0.279958 -0.39568299999999995 0.457085
v 0.279958 -0.395683 0.29095
v 0.483989 -0.14179499999999998 0.457128
v 0.280288 -0.14037699999999997 0.457085
v 0.280364 -0.13966399999999998 0.291171
v 0.483658 -0.39710199999999996 0.457128
v 0.483989 -0.14179499999999998 0.457128
v 0.483989 -0.14179499999999998 0.290993
v 0.483658 -0.397102 0.290993
v 0.239419 -0.389909 0.291206
v 0.535155 -0.387936 0.291206
v 0.535155 -0.387936 -0.004537999999999977
v 0.239419 -0.389909 -0.004537999999999976
v 0.247844 -0.500673 0.667002
v 0.435184 -0.588442 0.667002
v 0.435184 -0.588442 0.46012000000000003
v 0.247844 -0.500673 0.46012000000000003
v 0.167587 -0.400782 0.321904
v 0.170694 -0.728791 0.32190300000000005
v 0.495596 -0.397676 0.321903
v 0.167587 -0.400782 0.321904
v 0.167587 -0.400782 -0.006096999999999976
v 0.498703 -0.725685 0.32190300000000005
v 0.495596 -0.397676 0.321903
v 0.495596 -0.397676 -0.006095999999999976
v 0.170694 -0.728791 0.32190300000000005
v 0.498703 -0.725685 0.32190300000000005
v 0.498703 -0.725684 -0.006096999999999956
v 0.170694 -0.728791 -0.006095999999999956
v 0.5096 -0.425893 0.452819
v 0.151365 -0.504727 0.4528190000000001
v 0.5478 -0.60144 0.4528190000000001
v 0.5096 -0.425893 0.452819
v 0.5096 -0.425893 0.324027
v 0.189677 -0.679519 0.4528190000000001
v 0.5478 -0.60144 0.4528190000000001
v 0.5478 -0.60144 0.32402700000000006
v 0.151365 -0.504727 0.4528190000000001
v 0.189677 -0.679519 0.4528190000000001
v 0.189677 -0.679519 0.32402700000000006
v 0.151365 -0.504727 0.32402700000000006
v 0.5313 -0.789373 0.22372100000000006
v 0.530389 -0.493806 0.22372100000000003
v 0.800715 -0.788467 0.22372100000000006
v 0.5313 -0.789373 -0.00043599999999995167
v 0.5313 -0.789373 0.22372100000000006
v 0.798745 -0.493171 0.22372100000000003
v 0.800715 -0.788467 -0.0004359999999999517
v 0.800715 -0.788467 0.22372100000000006
v 0.530389 -0.493806 0.22372100000000003
v 0.530389 -0.493806 -0.0004359999999999698
v 0.798745 -0.493171 -0.00043599999999996983
v 0.798745 -0.493171 0.22372100000000003
v -0.137658 -0.49078499999999997 0.535707
v -0.099788 -0.756487 0.535707
v -0.099788 -0.756487 0.26731800000000006
v -0.137658 -0.490785 0.26731800000000006
v -0.098229 -0.651144 0.27017700000000006
v 0.123308 -0.643744 0.27017700000000006
v -0.094454 -0.830722 0.27017700000000006
v -0.098229 -0.651144 -0.00514299999999996
v -0.098229 -0.651144 0.27017700000000006
v 0.126867 -0.822623 0.27017700000000006
v -0.094454 -0.830722 -0.005142999999999949
v -0.094454 -0.830722 0.27017700000000006
v 0.123308 -0.643744 0.27017700000000006
v 0.123308 -0.643744 -0.005142999999999961
v 0.126867 -0.822623 -0.00514299999999995
v 0.126867 -0.822623 0.27017700000000006
v -0.093344 -0.628397 0.24386700000000003
v 0.155323 -0.626738 0.24386700000000003
v 0.155323 -0.626738 -0.0048069999999999615
v -0.093344 -0.628397 -0.0048069999999999615
v -0.29523 -0.665781 0.30765400000000004
v -0.277036 -0.837135 0.30765400000000004
v -0.123877 -0.647587 0.30765400000000004
v -0.29523 -0.665781 0.30765400000000004
v -0.29523 -0.665781 0.13535000000000003
v -0.105683 -0.818941 0.30765400000000004
v -0.123877 -0.647587 0.30765400000000004
v -0.123877 -0.647587 0.13535000000000003
v -0.277036 -0.837135 0.30765400000000004
v -0.105683 -0.818941 0.30765400000000004
v -0.105683 -0.818941 0.13535000000000005
v -0.277036 -0.837135 0.13535000000000005
v -0.28694 -0.572282 0.12835600000000003
v -0.284309 -0.939079 0.12835600000000005
v -0.107286 -0.571415 0.12835600000000003
v -0.28694 -0.572282 0.12835600000000003
v -0.28694 -0.572282 -0.000435999999999965
v -0.105371 -0.937946 0.12835600000000005
v -0.107286 -0.571415 0.12835600000000003
v -0.107286 -0.571415 -0.00043599999999996506
v -0.284309 -0.939079 0.12835600000000005
v -0.105371 -0.937946 0.12835600000000005
v -0.105371 -0.937946 -0.0004359999999999426
v -0.284309 -0.939079 -0.0004359999999999425
v -0.485125 -0.838948 0.22372100000000006
v -0.485732 -0.543382 0.22372100000000003
v -0.305478 -0.838042 0.22372100000000006
v -0.485125 -0.838948 -0.00043599999999994864
v -0.485125 -0.838948 0.22372100000000006
v -0.306791 -0.542747 0.22372100000000003
v -0.305478 -0.838042 -0.0004359999999999487
v -0.305478 -0.838042 0.22372100000000006
v -0.485732 -0.543382 0.22372100000000003
v -0.485732 -0.543382 -0.00043599999999996674
v -0.306791 -0.542747 -0.0004359999999999668
v -0.306791 -0.542747 0.22372100000000003
v -0.510771 -0.870649 0.20898200000000006
v -0.50989 -0.658046 0.20898200000000003
v -0.723373 -0.869768 0.20898200000000006
v -0.510771 -0.870649 0.20898200000000006
v -0.510771 -0.870649 -0.0036219999999999464
v -0.722492 -0.657165 0.20898200000000003
v -0.723373 -0.869768 0.20898200000000006
v -0.723373 -0.869768 -0.0036219999999999464
v -0.50989 -0.658046 0.20898200000000003
v -0.722492 -0.657165 0.20898200000000003
v -0.722492 -0.657165 -0.0036219999999999595
v -0.50989 -0.658046 -0.0036219999999999595
v -0.693416 -0.320033 0.13987300000000003
v -0.690455 -0.619268 0.13987300000000003
v -0.491167 -0.319325 0.13987300000000003
v -0.693416 -0.320033 0.13987300000000003
v -0.693416 -0.320033 -0.00511699999999998
v -0.489011 -0.618344 0.13987300000000003
v -0.491167 -0.319325 0.13987300000000003
v -0.491167 -0.319325 -0.00511699999999998
v -0.690455 -0.619268 0.13987300000000003
v -0.489011 -0.618344 0.13987300000000003
v -0.489011 -0.618344 -0.005116999999999962
v -0.690455 -0.619268 -0.005116999999999962
v -0.737688 -0.496834 0.31054000000000004
v -0.446705 -0.536246 0.31058300000000005
v -0.716231 -0.338367 0.31054
v -0.737688 -0.496834 0.31054000000000004
v -0.737688 -0.496834 0.14440500000000003
v -0.425248 -0.377779 0.310583
v -0.716231 -0.338367 0.31054
v -0.716065 -0.337938 0.14462600000000003
v -0.446705 -0.536246 0.31058300000000005
v -0.425248 -0.377779 0.310583
v -0.425248 -0.377779 0.14444800000000002
v -0.446705 -0.536246 0.14444800000000002
vt 0.445206 0.309030
vt 0.248191 0.309030
vt 0.248191 0.313296
vt 0.445206 0.313296
vt 0.445206 0.309030
vt 0.248191 0.309030
vt 0.248191 0.313296
vt 0.445206 0.313296
vt 0.933025 0.156840
vt 0.944013 0.156840
vt 0.944139 0.084207
vt 0.933120 0.084207
vt 0.994289 0.094499
vt 0.994289 0.084974
vt 0.975134 0.084207
vt 0.964115 0.084207
vt 0.973933 0.286339
vt 0.993544 0.286339
vt 0.993578 0.208470
vt 0.973933 0.208470
vt 0.994242 0.161011
vt 0.994242 0.144612
vt 0.951089 0.286339
vt 0.970734 0.286339
vt 0.927052 0.203544
vt 0.941322 0.203544
vt 0.941346 0.159751
vt 0.927052 0.159751
vt 0.979117 0.124247
vt 0.993532 0.124247
vt 0.945278 0.203544
vt 0.959572 0.203544
vt 0.445206 0.309030
vt 0.248191 0.309030
vt 0.248191 0.313296
vt 0.445206 0.313296
vt 0.445206 0.309030
vt 0.248191 0.309030
vt 0.248191 0.313296
vt 0.445206 0.313296
vt 0.445206 0.309030
vt 0.248191 0.309030
vt 0.248191 0.313296
vt 0.445206 0.313296
vt 0.445206 0.309030
vt 0.248191 0.309030
vt 0.248191 0.313296
vt 0.445206 0.313296
vt 0.445206 0.309030
vt 0.248191 0.309030
vt 0.248191 0.313296
vt 0.445206 0.313296
vt 0.445206 0.309030
vt 0.248191 0.309030
vt 0.248191 0.313296
vt 0.445206 0.313296
vt 0.445206 0.309030
vt 0.248191 0.309030
vt 0.248191 0.313296
vt 0.445206 0.313296
vt 0.445206 0.309030
vt 0.248191 0.309030
vt 0.248191 0.313296
vt 0.445206 0.313296
vt 0.774114 0.006345
vt 0.682336 0.006345
vt 0.682336 0.045058
vt 0.774114 0.045058
vt 0.432119 0.006345
vt 0.312378 0.006345
vt 0.623466 0.006345
vt 0.498930 0.006345
vt 0.506494 0.281743
vt 0.506494 0.332969
vt 0.633079 0.332927
vt 0.573212 0.332927
vt 0.633079 0.332927
vt 0.566828 0.281743
vt 0.633079 0.332927
vt 0.566828 0.332969
vt 0.567201 0.241885
vt 0.501226 0.241885
vt 0.501226 0.275812
vt 0.567201 0.275812
vt 0.576455 0.275127
vt 0.642251 0.275127
vt 0.688361 0.274831
vt 0.642251 0.275127
vt 0.006440 0.059383
vt 0.006440 0.111242
vt 0.049960 0.059383
vt 0.049961 0.111242
vt 0.099393 0.112509
vt 0.099393 0.059108
vt 0.054788 0.112509
vt 0.054788 0.059108
vt 0.054788 0.059108
vt 0.054788 0.112509
vt 0.054788 0.059108
vt 0.099393 0.059108
vt 0.099393 0.059108
vt 0.099393 0.112509
vt 0.054788 0.112509
vt 0.099393 0.112509
vt 0.006440 0.059383
vt 0.006440 0.111242
vt 0.049960 0.059383
vt 0.049961 0.111242
vt 0.099393 0.112509
vt 0.099393 0.059108
vt 0.054788 0.112509
vt 0.054788 0.059108
vt 0.054788 0.059108
vt 0.054788 0.112509
vt 0.054788 0.059108
vt 0.099393 0.059108
vt 0.099393 0.059108
vt 0.099393 0.112509
vt 0.054788 0.112509
vt 0.099393 0.112509
vt 0.103552 0.040864
vt 0.103789 0.008237
vt 0.073727 0.008237
vt 0.073727 0.040864
vt 0.106078 0.046283
vt 0.106078 0.078435
vt 0.106629 0.078554
vt 0.135568 0.008237
vt 0.774114 0.006345
vt 0.682336 0.006345
vt 0.682336 0.045058
vt 0.774114 0.045058
vt 0.432119 0.006345
vt 0.312378 0.006345
vt 0.623466 0.006345
vt 0.498930 0.006345
vt 0.608261 0.054421
vt 0.608261 0.101034
vt 0.684673 0.101034
vt 0.684673 0.054421
vt 0.528060 0.054421
vt 0.603016 0.054421
vt 0.395128 0.054421
vt 0.473850 0.054421
vt 0.006440 0.059383
vt 0.006440 0.111242
vt 0.049960 0.059383
vt 0.049961 0.111242
vt 0.099393 0.112509
vt 0.099393 0.059108
vt 0.054788 0.112509
vt 0.054788 0.059108
vt 0.054788 0.059108
vt 0.054788 0.112509
vt 0.054788 0.059108
vt 0.099393 0.059108
vt 0.099393 0.059108
vt 0.099393 0.112509
vt 0.054788 0.112509
vt 0.099393 0.112509
vt 0.608261 0.054421
vt 0.608261 0.101034
vt 0.684673 0.101034
vt 0.684673 0.054421
vt 0.528060 0.054421
vt 0.603016 0.054421
vt 0.395128 0.054421
vt 0.473850 0.054421
vt 0.006440 0.059383
vt 0.006440 0.111242
vt 0.049960 0.059383
vt 0.049961 0.111242
vt 0.099393 0.112509
vt 0.099393 0.059108
vt 0.054788 0.112509
vt 0.054788 0.059108
vt 0.054788 0.059108
vt 0.054788 0.112509
vt 0.054788 0.059108
vt 0.099393 0.059108
vt 0.099393 0.059108
vt 0.099393 0.112509
vt 0.054788 0.112509
vt 0.099393 0.112509
vt 0.103552 0.040864
vt 0.103789 0.008237
vt 0.073727 0.008237
vt 0.073727 0.040864
vt 0.106078 0.046283
vt 0.106078 0.078435
vt 0.106629 0.078554
vt 0.135568 0.008237
vt 0.774114 0.006345
vt 0.682336 0.006345
vt 0.682336 0.045058
vt 0.774114 0.045058
vt 0.432119 0.006345
vt 0.312378 0.006345
vt 0.623466 0.006345
vt 0.498930 0.006345
vt 0.608261 0.054421
vt 0.608261 0.101034
vt 0.684673 0.101034
vt 0.684673 0.054421
vt 0.528060 0.054421
vt 0.603016 0.054421
vt 0.395128 0.054421
vt 0.473850 0.054421
vt 0.368520 0.225184
vt 0.410102 0.225184
vt 0.410102 0.184169
vt 0.368520 0.184169
vt 0.409576 0.183904
vt 0.367987 0.183904
vt 0.410452 0.183904
vt 0.368520 0.184305
vt 0.774114 0.006345
vt 0.682336 0.006345
vt 0.682336 0.045058
vt 0.774114 0.045058
vt 0.432119 0.006345
vt 0.312378 0.006345
vt 0.623466 0.006345
vt 0.498930 0.006345
vt 0.567201 0.241885
vt 0.501226 0.241885
vt 0.501226 0.275812
vt 0.567201 0.275812
vt 0.576455 0.275127
vt 0.642251 0.275127
vt 0.688361 0.274831
vt 0.642251 0.275127
vt 0.979875 0.084974
vt 0.979875 0.094499
vt 0.963988 0.156840
vt 0.974977 0.156840
vt 0.961330 0.156840
vt 0.961457 0.084207
vt 0.946798 0.084207
vt 0.946671 0.156840
vt 0.994289 0.106686
vt 0.994289 0.097136
vt 0.979875 0.097136
vt 0.979875 0.106686
vt 0.979827 0.144612
vt 0.979827 0.161011
vt 0.970700 0.208470
vt 0.951089 0.208470
vt 0.947154 0.286339
vt 0.947490 0.208470
vt 0.931010 0.208470
vt 0.930674 0.286339
vt 0.994242 0.180024
vt 0.994242 0.163596
vt 0.979827 0.163596
vt 0.979827 0.180024
vt 0.993532 0.110476
vt 0.979117 0.110476
vt 0.959547 0.159751
vt 0.945278 0.159751
vt 0.962878 0.159751
vt 0.963107 0.203544
vt 0.975133 0.203544
vt 0.974904 0.159751
vt 0.979117 0.142230
vt 0.993532 0.142230
vt 0.993532 0.128458
vt 0.979117 0.128458
vt 0.312378 0.045058
vt 0.432118 0.045058
vt 0.623466 0.045058
vt 0.678375 0.045058
vt 0.678375 0.006345
vt 0.498930 0.045058
vt 0.618142 0.045058
vt 0.618142 0.006345
vt 0.435329 0.045058
vt 0.495251 0.045058
vt 0.495251 0.006345
vt 0.435329 0.006345
vt 0.633079 0.281701
vt 0.573212 0.281701
vt 0.633079 0.281701
vt 0.573212 0.281701
vt 0.573212 0.332927
vt 0.633079 0.281701
vt 0.573212 0.281701
vt 0.573212 0.332927
vt 0.633079 0.281701
vt 0.573212 0.281701
vt 0.573212 0.332927
vt 0.633079 0.332927
vt 0.642251 0.241200
vt 0.576455 0.241200
vt 0.688361 0.240904
vt 0.650039 0.240904
vt 0.650039 0.274831
vt 0.642251 0.241200
vt 0.576455 0.241200
vt 0.576455 0.275127
vt 0.688361 0.240904
vt 0.650039 0.240904
vt 0.650039 0.274831
vt 0.688361 0.274831
vt 0.099393 0.112509
vt 0.099393 0.059108
vt 0.054788 0.059108
vt 0.054788 0.112509
vt 0.099393 0.112509
vt 0.099393 0.059108
vt 0.054788 0.059108
vt 0.054788 0.112509
vt 0.135046 0.078435
vt 0.135046 0.046283
vt 0.135597 0.078554
vt 0.135597 0.046402
vt 0.106629 0.046402
vt 0.106127 0.008119
vt 0.106127 0.041101
vt 0.135568 0.041219
vt 0.135607 0.008319
vt 0.135607 0.041301
vt 0.106166 0.041182
vt 0.106166 0.008200
vt 0.312378 0.045058
vt 0.432118 0.045058
vt 0.623466 0.045058
vt 0.678375 0.045058
vt 0.678375 0.006345
vt 0.498930 0.045058
vt 0.618142 0.045058
vt 0.618142 0.006345
vt 0.435329 0.045058
vt 0.495251 0.045058
vt 0.495251 0.006345
vt 0.435329 0.006345
vt 0.603016 0.101034
vt 0.528060 0.101034
vt 0.395128 0.101034
vt 0.349555 0.054421
vt 0.349555 0.101034
vt 0.473850 0.101034
vt 0.398939 0.054421
vt 0.398939 0.101034
vt 0.523663 0.101034
vt 0.523663 0.054421
vt 0.477953 0.054421
vt 0.477953 0.101034
vt 0.099393 0.112509
vt 0.099393 0.059108
vt 0.054788 0.059108
vt 0.054788 0.112509
vt 0.603016 0.101034
vt 0.528060 0.101034
vt 0.395128 0.101034
vt 0.349555 0.054421
vt 0.349555 0.101034
vt 0.473850 0.101034
vt 0.398939 0.054421
vt 0.398939 0.101034
vt 0.523663 0.101034
vt 0.523663 0.054421
vt 0.477953 0.054421
vt 0.477953 0.101034
vt 0.099393 0.112509
vt 0.099393 0.059108
vt 0.054788 0.059108
vt 0.054788 0.112509
vt 0.135046 0.078435
vt 0.135046 0.046283
vt 0.135597 0.078554
vt 0.135597 0.046402
vt 0.106629 0.046402
vt 0.106127 0.008119
vt 0.106127 0.041101
vt 0.135568 0.041219
vt 0.135607 0.008319
vt 0.135607 0.041301
vt 0.106166 0.041182
vt 0.106166 0.008200
vt 0.312378 0.045058
vt 0.432118 0.045058
vt 0.623466 0.045058
vt 0.678375 0.045058
vt 0.678375 0.006345
vt 0.498930 0.045058
vt 0.618142 0.045058
vt 0.618142 0.006345
vt 0.435329 0.045058
vt 0.495251 0.045058
vt 0.495251 0.006345
vt 0.435329 0.006345
vt 0.603016 0.101034
vt 0.528060 0.101034
vt 0.395128 0.101034
vt 0.349555 0.054421
vt 0.349555 0.101034
vt 0.473850 0.101034
vt 0.398939 0.054421
vt 0.398939 0.101034
vt 0.523663 0.101034
vt 0.523663 0.054421
vt 0.477953 0.054421
vt 0.477953 0.101034
vt 0.367987 0.224901
vt 0.409576 0.224901
vt 0.410452 0.224901
vt 0.368840 0.224901
vt 0.368840 0.183904
vt 0.368520 0.225301
vt 0.410102 0.225301
vt 0.410102 0.184305
vt 0.410183 0.225301
vt 0.368629 0.225301
vt 0.368629 0.184305
vt 0.410183 0.184305
vt 0.312378 0.045058
vt 0.432118 0.045058
vt 0.623466 0.045058
vt 0.678375 0.045058
vt 0.678375 0.006345
vt 0.498930 0.045058
vt 0.618142 0.045058
vt 0.618142 0.006345
vt 0.435329 0.045058
vt 0.495251 0.045058
vt 0.495251 0.006345
vt 0.435329 0.006345
vt 0.642251 0.241200
vt 0.576455 0.241200
vt 0.688361 0.240904
vt 0.650039 0.240904
vt 0.650039 0.274831
vt 0.642251 0.241200
vt 0.576455 0.241200
vt 0.576455 0.275127
vt 0.688361 0.240904
vt 0.650039 0.240904
vt 0.650039 0.274831
vt 0.688361 0.274831
vn 0 6.123233995736766E-17 1
vn 0 6.123233995736766E-17 1
vn 0 6.123233995736766E-17 1
vn 0 6.123233995736766E-17 1
vn 0 -6.123233995736766E-17 -1
vn 0 -6.123233995736766E-17 -1
vn 0 -6.123233995736766E-17 -1
vn 0 -6.123233995736766E-17 -1
vn -0.002066 -0.999993 0.003049000000000061
vn -0.002019 -0.999994 0.002682000000000061
vn -0.002066 -0.999993 0.003049000000000061
vn -0.002113 -0.999992 0.0034160000000000613
vn -0.999965 0.00603 0.005838
vn -0.999959 0.006476 0.00641
vn 0.002046 0.999991 -0.0037620000000000613
vn 0.001991 0.999989 -0.004194000000000061
vn -0.019943 0.999799 0.0018609999999999389
vn -0.019939 0.999799 0.0018819999999999388
vn -0.019943 0.999799 0.0018609999999999389
vn -0.019947 0.999799 0.001839999999999939
vn 0.995054 0.099255 0.003919999999999994
vn 0.995088 0.098901 0.004220999999999994
vn 0.018837 -0.99982 -0.002430999999999939
vn 0.018832 -0.99982 -0.0024039999999999387
vn 0.007008 -0.999226 -0.03869699999999994
vn 0.00717 -0.999199 -0.039365999999999936
vn 0.007008 -0.999226 -0.03869699999999994
vn 0.006846 -0.999253 -0.03802799999999994
vn -0.995192 0.094866 -0.024374000000000007
vn -0.995271 0.093771 -0.025367000000000008
vn -0.011765 0.999397 0.032662999999999935
vn -0.011903 0.999414 0.032087999999999936
vn 0 6.123233995736766E-17 1
vn 0 6.123233995736766E-17 1
vn 0 6.123233995736766E-17 1
vn 0 6.123233995736766E-17 1
vn 0 -6.123233995736766E-17 -1
vn 0 -6.123233995736766E-17 -1
vn 0 -6.123233995736766E-17 -1
vn 0 -6.123233995736766E-17 -1
vn 0 6.123233995736766E-17 1
vn 0 6.123233995736766E-17 1
vn 0 6.123233995736766E-17 1
vn 0 6.123233995736766E-17 1
vn 0 -6.123233995736766E-17 -1
vn 0 -6.123233995736766E-17 -1
vn 0 -6.123233995736766E-17 -1
vn 0 -6.123233995736766E-17 -1
vn 0 6.123233995736766E-17 1
vn 0 6.123233995736766E-17 1
vn 0 6.123233995736766E-17 1
vn 0 6.123233995736766E-17 1
vn 0 -6.123233995736766E-17 -1
vn 0 -6.123233995736766E-17 -1
vn 0 -6.123233995736766E-17 -1
vn 0 -6.123233995736766E-17 -1
vn 0 6.123233995736766E-17 1
vn 0 6.123233995736766E-17 1
vn 0 6.123233995736766E-17 1
vn 0 6.123233995736766E-17 1
vn 0 -6.123233995736766E-17 -1
vn 0 -6.123233995736766E-17 -1
vn 0 -6.123233995736766E-17 -1
vn 0 -6.123233995736766E-17 -1
vn -0.006827 -0.06745899999999995 0.997699
vn -0.006827 -0.06745899999999995 0.997699
vn -0.006827 -0.06745899999999995 0.997699
vn -0.006827 -0.06745899999999995 0.997699
vn -0.98156 0.191053 0.006201999999999989
vn -0.98156 0.191053 0.006201999999999989
vn 0.193328 0.978809 0.06750499999999994
vn 0.981186 -0.192959 -0.006332999999999988
vn 0 6.123233995736766E-17 1
vn 0 6.123233995736766E-17 1
vn -0.006278 0.99998 -6.12311153105685E-17
vn -0.006278 0.99998 -6.12311153105685E-17
vn 0.999979 0.00647 -3.9617323952416876E-19
vn 0 6.123233995736766E-17 1
vn 0.005601 -0.999984 -0.0006519999999999388
vn 1E-06 -9.999999999387675E-07 1
vn -0.000211 6.123233995736766E-17 1
vn -0.000211 6.123233995736766E-17 1
vn -0.000211 6.123233995736766E-17 1
vn -0.000211 6.123233995736766E-17 1
vn -0.006962 -0.999976 6.123087038120868E-17
vn -0.006962 -0.999976 6.123087038120868E-17
vn -0.999999 0.001587 -0.0004500000000000001
vn 0.010465 0.999945 -6.122897217867001E-17
vn 0 6.123233995736766E-17 1
vn 0 6.123233995736766E-17 1
vn 0 6.123233995736766E-17 1
vn 0 6.123233995736766E-17 1
vn -0.006672 0.999978 -6.12309928458886E-17
vn -0.006672 0.999978 -6.12309928458886E-17
vn -0.006672 0.999978 -6.12309928458886E-17
vn -0.006672 0.999978 -6.12309928458886E-17
vn -0.999978 -0.006676 4.087871015553865E-19
vn -0.999978 -0.006676 4.087871015553865E-19
vn 0.999978 0.006667 -4.082360104957702E-19
vn 0.999978 0.006667 -4.082360104957702E-19
vn -0.999978 -0.006676 4.087871015553865E-19
vn -0.999978 -0.006676 4.087871015553865E-19
vn 0.999978 0.006667 -4.082360104957702E-19
vn 0.999978 0.006667 -4.082360104957702E-19
vn 0 6.123233995736766E-17 1
vn 0 6.123233995736766E-17 1
vn 0 6.123233995736766E-17 1
vn 0 6.123233995736766E-17 1
vn 0.424246 0.905547 -5.544876175137441E-17
vn 0.424246 0.905547 -5.544876175137441E-17
vn 0.424246 0.905547 -5.544876175137441E-17
vn 0.424246 0.905547 -5.544876175137441E-17
vn -0.905549 0.424242 -2.5977330368193573E-17
vn -0.905549 0.424242 -2.5977330368193573E-17
vn 0.905545 -0.42425 2.597782022691323E-17
vn 0.905545 -0.42425 2.597782022691323E-17
vn -0.905549 0.424242 -2.5977330368193573E-17
vn -0.905549 0.424242 -2.5977330368193573E-17
vn 0.905545 -0.42425 2.597782022691323E-17
vn 0.905545 -0.42425 2.597782022691323E-17
vn 0 6.123233995736766E-17 1
vn 0 6.123233995736766E-17 1
vn 0 6.123233995736766E-17 1
vn 0 6.123233995736766E-17 1
vn -0.999955 -0.009471 5.799314917362292E-19
vn -0.999955 -0.009471 5.799314917362292E-19
vn -0.009471 0.999955 -6.122958450206958E-17
vn 0.999955 0.009471 -5.799314917362292E-19
vn 0 6.123233995736766E-17 1
vn 0 6.123233995736766E-17 1
vn 0 6.123233995736766E-17 1
vn 0 6.123233995736766E-17 1
vn -0.214921 0.976632 -5.980146263724389E-17
vn -0.214921 0.976632 -5.980146263724389E-17
vn 0.977132 0.212635 -1.3020138606834873E-17
vn 0.21302 -0.977048 5.982693529066615E-17
vn 0 6.123233995736766E-17 1
vn 0 6.123233995736766E-17 1
vn 0 6.123233995736766E-17 1
vn 0 6.123233995736766E-17 1
vn -0.999995 -0.003082 1.8871807174860713E-19
vn -0.999995 -0.003082 1.8871807174860713E-19
vn 0.003363 -0.999994 6.123197256332792E-17
vn 0.999978 0.006669 -4.083584751756849E-19
vn -0 6.123233995736766E-17 1
vn -0 -9.999999999387675E-07 1
vn 0 6.123233995736766E-17 1
vn -0 6.123233995736766E-17 1
vn 0.989995 0.141104 -8.640128097344407E-18
vn 0.989995 0.141104 -8.640128097344407E-18
vn 0.989995 0.141104 -8.640128097344407E-18
vn 0.989995 0.141104 -8.640128097344407E-18
vn -0.141108 0.989994 -6.061964916375424E-17
vn -0.141108 0.989994 -6.061964916375424E-17
vn 0.141099 -0.989995 6.06197103960942E-17
vn 0.141099 -0.989995 6.06197103960942E-17
vn -0.141108 0.989994 -6.061964916375424E-17
vn -0.141108 0.989994 -6.061964916375424E-17
vn 0.141099 -0.989995 6.06197103960942E-17
vn 0.141099 -0.989995 6.06197103960942E-17
vn 0 6.123233995736766E-17 1
vn 0 6.123233995736766E-17 1
vn 0 6.123233995736766E-17 1
vn 0 6.123233995736766E-17 1
vn -0.033385 0.999443 -6.119823354401141E-17
vn -0.033385 0.999443 -6.119823354401141E-17
vn -0.999779 -0.021015 1.2867976242040813E-18
vn 0.036571 -0.999331 6.119137552193617E-17
vn 0 6.123233995736766E-17 1
vn 0 6.123233995736766E-17 1
vn 0 6.123233995736766E-17 1
vn 0 6.123233995736766E-17 1
vn -0.006672 0.999978 -6.12309928458886E-17
vn -0.006672 0.999978 -6.12309928458886E-17
vn -0.006672 0.999978 -6.12309928458886E-17
vn -0.006672 0.999978 -6.12309928458886E-17
vn -0.999978 -0.006676 4.087871015553865E-19
vn -0.999978 -0.006676 4.087871015553865E-19
vn 0.999978 0.006667 -4.082360104957702E-19
vn 0.999978 0.006667 -4.082360104957702E-19
vn -0.999978 -0.006676 4.087871015553865E-19
vn -0.999978 -0.006676 4.087871015553865E-19
vn 0.999978 0.006667 -4.082360104957702E-19
vn 0.999978 0.006667 -4.082360104957702E-19
vn 0 6.123233995736766E-17 1
vn 0 6.123233995736766E-17 1
vn 0 6.123233995736766E-17 1
vn 0 6.123233995736766E-17 1
vn -0.99441 -0.105584 6.465155382058707E-18
vn -0.99441 -0.105584 6.465155382058707E-18
vn -0.105583 0.994411 -6.089011240934594E-17
vn 0.99441 0.105584 -6.465155382058707E-18
vn 0 6.123233995736766E-17 1
vn 0 6.123233995736766E-17 1
vn 0 6.123233995736766E-17 1
vn 0 6.123233995736766E-17 1
vn -0.999974 -0.007171 4.390971098342835E-19
vn -0.999974 -0.007171 4.390971098342835E-19
vn -0.004831 0.999988 -6.123160516928818E-17
vn 0.999986 0.005225 -3.19938976277246E-19
vn 0 6.123233995736766E-17 1
vn 0 6.123233995736766E-17 1
vn 0 6.123233995736766E-17 1
vn 0 6.123233995736766E-17 1
vn -0.999998 -0.002055 1.2583245861239054E-19
vn -0.999998 -0.002055 1.2583245861239054E-19
vn 0.005043 -0.999987 6.123154393694822E-17
vn 0.99999 0.004447 -2.72300215790414E-19
vn -0 6.123233995736766E-17 1
vn -0 6.123233995736766E-17 1
vn -0 6.123233995736766E-17 1
vn -0 6.123233995736766E-17 1
vn 0.999991 -0.004145 2.5380804912328896E-19
vn 0.999991 -0.004145 2.5380804912328896E-19
vn -0.004143 -0.999991 6.123178886630805E-17
vn -0.999991 0.004143 -2.5368558444337423E-19
vn 0 6.123233995736766E-17 1
vn 0 6.123233995736766E-17 1
vn 0 6.123233995736766E-17 1
vn 0 6.123233995736766E-17 1
vn -0.999951 -0.009895 6.05894003878153E-19
vn -0.999951 -0.009895 6.05894003878153E-19
vn -0.003501 0.999994 -6.123197256332792E-17
vn 0.999974 0.00721 -4.414851710926208E-19
vn -0.000145 2.0000000000061235E-05 1
vn -0.000145 2.0000000000061235E-05 1
vn -0.000145 2.0000000000061235E-05 1
vn -0.000145 2.0000000000061235E-05 1
vn -0.134219 -0.990952 6.06783097454334E-17
vn -0.134219 -0.990952 6.06783097454334E-17
vn -0.990867 0.134842 -0.0006490000000000082
vn 0.135728 0.990746 -6.066569588340218E-17
vn -0.999965 0.00603 0.005838
vn -0.999971 0.005585 0.005265
vn 0.002046 0.999991 -0.0037620000000000613
vn 0.002101 0.999992 -0.003330000000000061
vn -0.000337 -0.00020999999999993878 1
vn -0.000341 -0.00023599999999993876 1
vn -0.000337 -0.00020999999999993878 1
vn -0.000333 -0.00018299999999993877 1
vn 0.999805 -0.007718000000000001 -0.018187
vn 0.999824 -0.009069000000000002 -0.016446
vn 0.999805 -0.007718000000000001 -0.018187
vn 0.999781 -0.006366000000000001 -0.019927
vn 0.995054 0.099255 0.003919999999999994
vn 0.99502 0.09961 0.003617999999999994
vn 0.018837 -0.99982 -0.002430999999999939
vn 0.018843 -0.999819 -0.002457999999999939
vn 0.000292 0.0005470000000000612 1
vn 0.000298 0.0005870000000000612 1
vn 0.000292 0.0005470000000000612 1
vn 0.000286 0.0005080000000000612 1
vn -0.999909 0.0001339999999999992 -0.01349
vn -0.999923 0.0015219999999999993 -0.012321
vn -0.999909 0.0001339999999999992 -0.01349
vn -0.999892 -0.0012540000000000008 -0.014659
vn -0.995192 0.094866 -0.024374000000000007
vn -0.995111 0.09596 -0.02338000000000001
vn -0.011765 0.999397 0.032662999999999935
vn -0.011627 0.99938 0.033238999999999935
vn -0.002118 0.001238000000000061 0.999997
vn -0.002131 0.0011770000000000612 0.999997
vn -0.002118 0.001238000000000061 0.999997
vn -0.002106 0.0012990000000000612 0.999997
vn 0.999287 -0.033775 0.016901000000000003
vn 0.999306 -0.033373 0.016561000000000003
vn 0.999287 -0.033775 0.016901000000000003
vn 0.999267 -0.034178 0.017241000000000003
vn -0.98156 0.191053 0.006201999999999989
vn -0.98156 0.191053 0.006201999999999989
vn 0.193328 0.978809 0.06750499999999994
vn 0.193328 0.978809 0.06750499999999994
vn 0.193328 0.978809 0.06750499999999994
vn 0.981186 -0.192959 -0.006332999999999988
vn 0.981186 -0.192959 -0.006332999999999988
vn 0.981186 -0.192959 -0.006332999999999988
vn -0.191855 -0.979098 -0.06751399999999995
vn -0.191856 -0.979098 -0.06751399999999995
vn -0.191855 -0.979098 -0.06751399999999995
vn -0.191855 -0.979098 -0.06751399999999995
vn -0.006278 0.99998 -6.12311153105685E-17
vn -0.006278 0.99998 -6.12311153105685E-17
vn 0.999979 0.00647 -3.9617323952416876E-19
vn 0.999979 0.00647 -3.9617323952416876E-19
vn 0.999979 0.00647 -3.9617323952416876E-19
vn 0.00594 -0.999982 -0.00032599999999993875
vn 0.006279 -0.99998 6.12311153105685E-17
vn 0.00594 -0.999982 -0.00032599999999993875
vn -0.999986 -0.005096 0.0013510000000000002
vn -0.999975 -0.006477 0.0027010000000000003
vn -0.999986 -0.005096 0.0013510000000000002
vn -0.999993 -0.003714 2.2741691060166348E-19
vn -0.006962 -0.999976 6.123087038120868E-17
vn -0.006962 -0.999976 6.123087038120868E-17
vn -0.999999 0.001441 -0.00022500000000000008
vn -0.999999 0.001294 -7.923464790483375E-20
vn -0.999999 0.001441 -0.00022500000000000008
vn 0.008713 0.99996 0.002149999999999939
vn 0.00696 0.999967 0.004299999999999938
vn 0.008713 0.99996 0.002149999999999939
vn 0.999999 -0.001296 7.93571125847485E-20
vn 0.999999 -0.001296 7.93571125847485E-20
vn 0.999999 -0.001296 7.93571125847485E-20
vn 0.999999 -0.001296 7.93571125847485E-20
vn 0.006669 -0.999978 6.12309928458886E-17
vn 0.006669 -0.999978 6.12309928458886E-17
vn 0.006669 -0.999978 6.12309928458886E-17
vn 0.006669 -0.999978 6.12309928458886E-17
vn -0.424247 -0.905546 5.544870051903445E-17
vn -0.424247 -0.905546 5.544870051903445E-17
vn -0.424247 -0.905546 5.544870051903445E-17
vn -0.424247 -0.905546 5.544870051903445E-17
vn -0.999955 -0.009471 5.799314917362292E-19
vn -0.999955 -0.009471 5.799314917362292E-19
vn -0.009471 0.999955 -6.122958450206958E-17
vn -0.009471 0.999955 -6.122958450206958E-17
vn -0.009471 0.999955 -6.122958450206958E-17
vn 0.999955 0.009471 -5.799314917362292E-19
vn 0.999955 0.009471 -5.799314917362292E-19
vn 0.999955 0.009471 -5.799314917362292E-19
vn 0.009471 -0.999955 -9.999999999387703E-07
vn 0.009471 -0.999955 -9.999999999387703E-07
vn 0.009471 -0.999955 -9.999999999387703E-07
vn 0.009471 -0.999955 -9.999999999387703E-07
vn -0.214921 0.976632 -5.980146263724389E-17
vn -0.214921 0.976632 -5.980146263724389E-17
vn 0.977132 0.212635 -1.3020138606834873E-17
vn 0.977132 0.212635 -1.3020138606834873E-17
vn 0.977132 0.212635 -1.3020138606834873E-17
vn 0.21302 -0.977048 5.982693529066615E-17
vn 0.21302 -0.977048 5.982693529066615E-17
vn 0.21302 -0.977048 5.982693529066615E-17
vn -0.976812 -0.214101 1.3109905217212375E-17
vn -0.976812 -0.214101 1.3109905217212375E-17
vn -0.976812 -0.214101 1.3109905217212375E-17
vn -0.976812 -0.214101 1.3109905217212375E-17
vn -0.999995 -0.003082 1.8871807174860713E-19
vn -0.999995 -0.003082 1.8871807174860713E-19
vn 0.003363 -0.999994 6.123197256332792E-17
vn 0.003363 -0.999994 6.123197256332792E-17
vn 0.003363 -0.999994 6.123197256332792E-17
vn 0.999978 0.006669 -4.083584751756849E-19
vn 0.999978 0.006669 -4.083584751756849E-19
vn 0.999978 0.006669 -4.083584751756849E-19
vn -0.002367 0.999997 -6.123215626034779E-17
vn -0.002367 0.999997 -6.123215626034779E-17
vn -0.002367 0.999997 -6.123215626034779E-17
vn -0.002367 0.999997 -6.123215626034779E-17
vn -0.989995 -0.141102 8.640005632664492E-18
vn -0.989995 -0.141102 8.640005632664492E-18
vn -0.989995 -0.141102 8.640005632664492E-18
vn -0.989995 -0.141102 8.640005632664492E-18
vn -0.033385 0.999443 -6.119823354401141E-17
vn -0.033385 0.999443 -6.119823354401141E-17
vn -0.999779 -0.021015 1.2867976242040813E-18
vn -0.999779 -0.021015 1.2867976242040813E-18
vn -0.999779 -0.021015 1.2867976242040813E-18
vn 0.036571 -0.999331 6.119137552193617E-17
vn 0.036571 -0.999331 6.119137552193617E-17
vn 0.036571 -0.999331 6.119137552193617E-17
vn 0.999802 0.019894 -1.2181561711118722E-18
vn 0.999802 0.019894 -1.2181561711118722E-18
vn 0.999802 0.019894 -1.2181561711118722E-18
vn 0.999802 0.019894 -1.2181561711118722E-18
vn 0.00667 -0.999978 6.12309928458886E-17
vn 0.00667 -0.999978 6.12309928458886E-17
vn 0.00667 -0.999978 6.12309928458886E-17
vn 0.00667 -0.999978 6.12309928458886E-17
vn -0.99441 -0.105584 6.465155382058707E-18
vn -0.99441 -0.105584 6.465155382058707E-18
vn -0.105583 0.994411 -6.089011240934594E-17
vn -0.105583 0.994411 -6.089011240934594E-17
vn -0.105583 0.994411 -6.089011240934594E-17
vn 0.99441 0.105584 -6.465155382058707E-18
vn 0.99441 0.105584 -6.465155382058707E-18
vn 0.99441 0.105584 -6.465155382058707E-18
vn 0.105584 -0.99441 6.089005117700598E-17
vn 0.105584 -0.99441 6.089005117700598E-17
vn 0.105584 -0.99441 6.089005117700598E-17
vn 0.105583 -0.994411 -9.9999999993911E-07
vn -0.999974 -0.007171 4.390971098342835E-19
vn -0.999974 -0.007171 4.390971098342835E-19
vn -0.004831 0.999988 -6.123160516928818E-17
vn -0.004831 0.999988 -6.123160516928818E-17
vn -0.004831 0.999988 -6.123160516928818E-17
vn 0.999986 0.005225 -3.19938976277246E-19
vn 0.999986 0.005225 -3.19938976277246E-19
vn 0.999986 0.005225 -3.19938976277246E-19
vn 0.006331 -0.99998 6.12311153105685E-17
vn 0.006331 -0.99998 6.12311153105685E-17
vn 0.006331 -0.99998 6.12311153105685E-17
vn 0.006331 -0.99998 6.12311153105685E-17
vn -0.999998 -0.002055 1.2583245861239054E-19
vn -0.999998 -0.002055 1.2583245861239054E-19
vn 0.005043 -0.999987 6.123154393694822E-17
vn 0.005043 -0.999987 6.123154393694822E-17
vn 0.005043 -0.999987 6.123154393694822E-17
vn 0.99999 0.004447 -2.72300215790414E-19
vn 0.99999 0.004447 -2.72300215790414E-19
vn 0.99999 0.004447 -2.72300215790414E-19
vn -0.003549 0.999994 -6.123197256332792E-17
vn -0.003549 0.999994 -6.123197256332792E-17
vn -0.003549 0.999994 -6.123197256332792E-17
vn -0.003549 0.999994 -6.123197256332792E-17
vn 0.999991 -0.004145 2.5380804912328896E-19
vn 0.999991 -0.004145 2.5380804912328896E-19
vn -0.004143 -0.999991 6.123178886630805E-17
vn -0.004143 -0.999991 6.123178886630805E-17
vn -0.004143 -0.999991 6.123178886630805E-17
vn -0.999991 0.004143 -2.5368558444337423E-19
vn -0.999991 0.004143 -2.5368558444337423E-19
vn -0.999991 0.004143 -2.5368558444337423E-19
vn 0.004144 0.999991 -6.123178886630805E-17
vn 0.004144 0.999991 -6.123178886630805E-17
vn 0.004144 0.999991 -6.123178886630805E-17
vn 0.004144 0.999991 -6.123178886630805E-17
vn -0.999951 -0.009895 6.05894003878153E-19
vn -0.999951 -0.009895 6.05894003878153E-19
vn -0.003501 0.999994 -6.123197256332792E-17
vn -0.003501 0.999994 -6.123197256332792E-17
vn -0.003501 0.999994 -6.123197256332792E-17
vn 0.999974 0.00721 -4.414851710926208E-19
vn 0.999974 0.00721 -4.414851710926208E-19
vn 0.999974 0.00721 -4.414851710926208E-19
vn 0.004588 -0.99999 6.123172763396809E-17
vn 0.004588 -0.99999 6.123172763396809E-17
vn 0.004588 -0.99999 6.123172763396809E-17
vn 0.004588 -0.99999 6.123172763396809E-17
vn -0.134219 -0.990952 6.06783097454334E-17
vn -0.134219 -0.990952 6.06783097454334E-17
vn -0.990912 0.134508 -0.00032400000000000825
vn -0.990958 0.134174 -8.215787981439847E-18
vn -0.990912 0.134508 -0.00032400000000000825
vn 0.134974 0.990848 0.0013469999999999394
vn 0.134219 0.990948 0.0026929999999999394
vn 0.134974 0.990848 0.0013469999999999394
vn 0.990957 -0.134177 8.21597167845972E-18
vn 0.990957 -0.134177 8.21597167845972E-18
vn 0.990957 -0.134177 8.21597167845972E-18
vn 0.990957 -0.134177 8.21597167845972E-18
g 01
f 437/437/437 440/440/440 439/439/439
f 439/439/439 438/438/438 437/437/437
f 434/434/434 232/232/232 436/436/436
f 436/436/436 435/435/435 434/434/434
f 431/431/431 231/231/231 433/433/433
f 433/433/433 432/432/432 431/431/431
f 429/429/429 230/230/230 229/229/229
f 229/229/229 430/430/430 429/429/429
f 227/227/227 226/226/226 225/225/225
f 225/225/225 228/228/228 227/227/227
f 425/425/425 428/428/428 427/427/427
f 427/427/427 426/426/426 425/425/425
f 422/422/422 224/224/224 424/424/424
f 424/424/424 423/423/423 422/422/422
f 419/419/419 223/223/223 421/421/421
f 421/421/421 420/420/420 419/419/419
f 417/417/417 222/222/222 221/221/221
f 221/221/221 418/418/418 417/417/417
f 219/219/219 218/218/218 217/217/217
f 217/217/217 220/220/220 219/219/219
f 413/413/413 416/416/416 415/415/415
f 415/415/415 414/414/414 413/413/413
f 410/410/410 216/216/216 412/412/412
f 412/412/412 411/411/411 410/410/410
f 407/407/407 215/215/215 409/409/409
f 409/409/409 408/408/408 407/407/407
f 405/405/405 214/214/214 213/213/213
f 213/213/213 406/406/406 405/405/405
f 211/211/211 210/210/210 209/209/209
f 209/209/209 212/212/212 211/211/211
f 401/401/401 404/404/404 403/403/403
f 403/403/403 402/402/402 401/401/401
f 398/398/398 400/400/400 399/399/399
f 399/399/399 208/208/208 398/398/398
f 395/395/395 397/397/397 396/396/396
f 396/396/396 207/207/207 395/395/395
f 393/393/393 394/394/394 205/205/205
f 205/205/205 206/206/206 393/393/393
f 203/203/203 202/202/202 201/201/201
f 201/201/201 204/204/204 203/203/203
f 389/389/389 392/392/392 391/391/391
f 391/391/391 390/390/390 389/389/389
f 386/386/386 200/200/200 388/388/388
f 388/388/388 387/387/387 386/386/386
f 383/383/383 199/199/199 385/385/385
f 385/385/385 384/384/384 383/383/383
f 381/381/381 198/198/198 197/197/197
f 197/197/197 382/382/382 381/381/381
f 195/195/195 194/194/194 193/193/193
f 193/193/193 196/196/196 195/195/195
f 377/377/377 380/380/380 379/379/379
f 379/379/379 378/378/378 377/377/377
f 374/374/374 192/192/192 376/376/376
f 376/376/376 375/375/375 374/374/374
f 371/371/371 191/191/191 373/373/373
f 373/373/373 372/372/372 371/371/371
f 369/369/369 190/190/190 189/189/189
f 189/189/189 370/370/370 369/369/369
f 185/185/185 188/188/188 187/187/187
f 187/187/187 186/186/186 185/185/185
f 365/365/365 368/368/368 367/367/367
f 367/367/367 366/366/366 365/365/365
f 183/183/183 179/179/179 180/180/180
f 180/180/180 184/184/184 183/183/183
f 182/182/182 178/178/178 177/177/177
f 177/177/177 181/181/181 182/182/182
f 176/176/176 174/174/174 173/173/173
f 173/173/173 175/175/175 176/176/176
f 172/172/172 170/170/170 169/169/169
f 169/169/169 171/171/171 172/172/172
f 361/361/361 364/364/364 363/363/363
f 363/363/363 362/362/362 361/361/361
f 358/358/358 360/360/360 359/359/359
f 359/359/359 168/168/168 358/358/358
f 355/355/355 357/357/357 356/356/356
f 356/356/356 167/167/167 355/355/355
f 353/353/353 354/354/354 165/165/165
f 165/165/165 166/166/166 353/353/353
f 163/163/163 162/162/162 161/161/161
f 161/161/161 164/164/164 163/163/163
f 349/349/349 352/352/352 351/351/351
f 351/351/351 350/350/350 349/349/349
f 159/159/159 155/155/155 156/156/156
f 156/156/156 160/160/160 159/159/159
f 158/158/158 154/154/154 153/153/153
f 153/153/153 157/157/157 158/158/158
f 152/152/152 150/150/150 149/149/149
f 149/149/149 151/151/151 152/152/152
f 148/148/148 146/146/146 145/145/145
f 145/145/145 147/147/147 148/148/148
f 345/345/345 348/348/348 347/347/347
f 347/347/347 346/346/346 345/345/345
f 342/342/342 344/344/344 343/343/343
f 343/343/343 144/144/144 342/342/342
f 339/339/339 341/341/341 340/340/340
f 340/340/340 143/143/143 339/339/339
f 337/337/337 338/338/338 141/141/141
f 141/141/141 142/142/142 337/337/337
f 139/139/139 138/138/138 137/137/137
f 137/137/137 140/140/140 139/139/139
f 333/333/333 336/336/336 335/335/335
f 335/335/335 334/334/334 333/333/333
f 330/330/330 136/136/136 332/332/332
f 332/332/332 331/331/331 330/330/330
f 327/327/327 135/135/135 329/329/329
f 329/329/329 328/328/328 327/327/327
f 325/325/325 134/134/134 133/133/133
f 133/133/133 326/326/326 325/325/325
f 131/131/131 130/130/130 129/129/129
f 129/129/129 132/132/132 131/131/131
f 321/321/321 324/324/324 323/323/323
f 323/323/323 322/322/322 321/321/321
f 318/318/318 128/128/128 320/320/320
f 320/320/320 319/319/319 318/318/318
f 315/315/315 127/127/127 317/317/317
f 317/317/317 316/316/316 315/315/315
f 313/313/313 126/126/126 125/125/125
f 125/125/125 314/314/314 313/313/313
f 121/121/121 124/124/124 123/123/123
f 123/123/123 122/122/122 121/121/121
f 309/309/309 312/312/312 311/311/311
f 311/311/311 310/310/310 309/309/309
f 119/119/119 115/115/115 116/116/116
f 116/116/116 120/120/120 119/119/119
f 118/118/118 114/114/114 113/113/113
f 113/113/113 117/117/117 118/118/118
f 112/112/112 110/110/110 109/109/109
f 109/109/109 111/111/111 112/112/112
f 108/108/108 106/106/106 105/105/105
f 105/105/105 107/107/107 108/108/108
f 305/305/305 308/308/308 307/307/307
f 307/307/307 306/306/306 305/305/305
f 103/103/103 99/99/99 100/100/100
f 100/100/100 104/104/104 103/103/103
f 102/102/102 98/98/98 97/97/97
f 97/97/97 101/101/101 102/102/102
f 96/96/96 94/94/94 93/93/93
f 93/93/93 95/95/95 96/96/96
f 92/92/92 90/90/90 89/89/89
f 89/89/89 91/91/91 92/92/92
f 301/301/301 304/304/304 303/303/303
f 303/303/303 302/302/302 301/301/301
f 298/298/298 88/88/88 300/300/300
f 300/300/300 299/299/299 298/298/298
f 295/295/295 87/87/87 297/297/297
f 297/297/297 296/296/296 295/295/295
f 293/293/293 86/86/86 85/85/85
f 85/85/85 294/294/294 293/293/293
f 83/83/83 82/82/82 81/81/81
f 81/81/81 84/84/84 83/83/83
f 289/289/289 292/292/292 291/291/291
f 291/291/291 290/290/290 289/289/289
f 286/286/286 79/79/79 288/288/288
f 288/288/288 287/287/287 286/286/286
f 283/283/283 77/77/77 285/285/285
f 285/285/285 284/284/284 283/283/283
f 281/281/281 75/75/75 76/76/76
f 76/76/76 282/282/282 281/281/281
f 74/74/74 73/73/73 78/78/78
f 78/78/78 80/80/80 74/74/74
f 277/277/277 280/280/280 279/279/279
f 279/279/279 278/278/278 277/277/277
f 274/274/274 72/72/72 276/276/276
f 276/276/276 275/275/275 274/274/274
f 271/271/271 71/71/71 273/273/273
f 273/273/273 272/272/272 271/271/271
f 269/269/269 70/70/70 69/69/69
f 69/69/69 270/270/270 269/269/269
f 67/67/67 66/66/66 65/65/65
f 65/65/65 68/68/68 67/67/67
f 63/63/63 64/64/64 61/61/61
f 61/61/61 62/62/62 63/63/63
f 59/59/59 58/58/58 57/57/57
f 57/57/57 60/60/60 59/59/59
f 55/55/55 56/56/56 53/53/53
f 53/53/53 54/54/54 55/55/55
f 51/51/51 50/50/50 49/49/49
f 49/49/49 52/52/52 51/51/51
f 47/47/47 48/48/48 45/45/45
f 45/45/45 46/46/46 47/47/47
f 43/43/43 42/42/42 41/41/41
f 41/41/41 44/44/44 43/43/43
f 39/39/39 40/40/40 37/37/37
f 37/37/37 38/38/38 39/39/39
f 35/35/35 34/34/34 33/33/33
f 33/33/33 36/36/36 35/35/35
f 265/265/265 268/268/268 267/267/267
f 267/267/267 266/266/266 265/265/265
f 261/261/261 264/264/264 263/263/263
f 263/263/263 262/262/262 261/261/261
f 259/259/259 32/32/32 31/31/31
f 31/31/31 260/260/260 259/259/259
f 257/257/257 30/30/30 29/29/29
f 29/29/29 258/258/258 257/257/257
f 27/27/27 26/26/26 25/25/25
f 25/25/25 28/28/28 27/27/27
f 253/253/253 256/256/256 255/255/255
f 255/255/255 254/254/254 253/253/253
f 249/249/249 252/252/252 251/251/251
f 251/251/251 250/250/250 249/249/249
f 247/247/247 24/24/24 23/23/23
f 23/23/23 248/248/248 247/247/247
f 245/245/245 22/22/22 21/21/21
f 21/21/21 246/246/246 245/245/245
f 19/19/19 18/18/18 17/17/17
f 17/17/17 20/20/20 19/19/19
f 241/241/241 244/244/244 243/243/243
f 243/243/243 242/242/242 241/241/241
f 237/237/237 240/240/240 239/239/239
f 239/239/239 238/238/238 237/237/237
f 235/235/235 16/16/16 15/15/15
f 15/15/15 236/236/236 235/235/235
f 233/233/233 14/14/14 13/13/13
f 13/13/13 234/234/234 233/233/233
f 11/11/11 10/10/10 9/9/9
f 9/9/9 12/12/12 11/11/11
f 7/7/7 8/8/8 5/5/5
f 5/5/5 6/6/6 7/7/7
f 3/3/3 2/2/2 1/1/1
f 1/1/1 4/4/4 3/3/3
