v -0.112577 0.198619 0.128356
v -0.477428 0.236436 0.12835599999999997
v -0.458488 0.41509 0.12835599999999997
v -0.093979 0.376592 0.12835599999999997
v -0.112577 0.198619 -0.00043600000000001217
v -0.477428 0.236436 -0.0004360000000000145
v -0.458488 0.41509 -0.00043600000000002545
v -0.093979 0.376592 -0.00043600000000002307
v 0.179166 0.307504 0.288073
v -0.359098 -0.13204 0.05164900000000001
v -0.393988 -0.088464 0.051583000000000004
v 0.144276 0.35108 0.288007
v 0.179166 0.307504 0.288073
v -0.359098 -0.13204 0.05164900000000001
v -0.393988 -0.088464 0.051583000000000004
v 0.144276 0.35108 0.288007
v 0.197946 0.19831800000000002 0.276855
v -0.4513 -0.476024 0.04894900000000003
v -0.501633 -0.426727 0.048885000000000026
v 0.147612 0.24761500000000003 0.276791
v 0.197946 0.19831800000000002 0.276855
v -0.4513 -0.476024 0.04894900000000003
v -0.501633 -0.426727 0.048885000000000026
v 0.147612 0.24761500000000003 0.276791
v 0.284351 0.21679900000000002 0.294634
v -0.183651 -0.499596 0.05900500000000003
v -0.233749 -0.466332 0.058938000000000025
v 0.234254 0.250064 0.294567
v 0.284351 0.21679900000000002 0.294634
v -0.183651 -0.499596 0.05900500000000003
v -0.233749 -0.466332 0.058938000000000025
v 0.234254 0.250064 0.294567
v 0.025088 0.294844 0.19397799999999998
v 0.217418 0.428595 0.19391399999999998
v 0.429304 0.135195 0.194237
v 0.237969 -0.0024049999999999883 0.194189
v 0.028293 0.287347 -0.003062000000000018
v 0.219976 0.422517 -0.0030730000000000262
v 0.433709 0.123774 -0.003031000000000007
v 0.242403 -0.012827 -0.003035999999999999
v 0.174802 -0.01743599999999999 0.193978
v 0.401881 -0.07501599999999999 0.193914
v 0.319185 -0.427353 0.19423700000000002
v 0.089852 -0.373046 0.19418900000000003
v 0.171242 -0.02477 -0.0030619999999999988
v 0.398967 -0.080933 -0.0030729999999999954
v 0.313447 -0.438165 -0.003030999999999973
v 0.084888 -0.383226 -0.0030359999999999767
v -0.477428 0.236436 0.12835599999999997
v -0.112577 0.198619 0.128356
v -0.458488 0.41509 0.12835599999999997
v -0.477428 0.236436 0.12835599999999997
v -0.477428 0.236436 -0.0004360000000000145
v -0.093979 0.376592 0.12835599999999997
v -0.458488 0.41509 0.12835599999999997
v -0.458488 0.41509 -0.00043600000000002545
v -0.112577 0.198619 0.128356
v -0.093979 0.376592 0.12835599999999997
v -0.093979 0.376592 -0.00043600000000002307
v -0.112577 0.198619 -0.00043600000000001217
v 0.217418 0.428595 0.19391399999999998
v 0.025088 0.294844 0.19397799999999998
v 0.237969 -0.0024049999999999883 0.194189
v 0.429304 0.135195 0.194237
v 0.242403 -0.012827 -0.003035999999999999
v 0.028293 0.287347 -0.003062000000000018
v 0.025088 0.294844 0.19397799999999998
v 0.237969 -0.0024049999999999883 0.194189
v 0.217418 0.428595 0.19391399999999998
v 0.219976 0.422517 -0.0030730000000000262
v 0.433709 0.123774 -0.003031000000000007
v 0.429304 0.135195 0.194237
v 0.401881 -0.07501599999999999 0.193914
v 0.174802 -0.01743599999999999 0.193978
v 0.089852 -0.373046 0.19418900000000003
v 0.319185 -0.427353 0.19423700000000002
v 0.084888 -0.383226 -0.0030359999999999767
v 0.171242 -0.02477 -0.0030619999999999988
v 0.174802 -0.01743599999999999 0.193978
v 0.089852 -0.373046 0.19418900000000003
v 0.401881 -0.07501599999999999 0.193914
v 0.398967 -0.080933 -0.0030729999999999954
v 0.313447 -0.438165 -0.003030999999999973
v 0.319185 -0.427353 0.19423700000000002
vt 0.774114 0.006345
vt 0.682336 0.006345
vt 0.682336 0.045058
vt 0.774114 0.045058
vt 0.432119 0.006345
vt 0.312378 0.006345
vt 0.623466 0.006345
vt 0.498930 0.006345
vt 0.445206 0.309030
vt 0.248191 0.309030
vt 0.248191 0.313296
vt 0.445206 0.313296
vt 0.445206 0.309030
vt 0.248191 0.309030
vt 0.248191 0.313296
vt 0.445206 0.313296
vt 0.445206 0.309030
vt 0.248191 0.309030
vt 0.248191 0.313296
vt 0.445206 0.313296
vt 0.445206 0.309030
vt 0.248191 0.309030
vt 0.248191 0.313296
vt 0.445206 0.313296
vt 0.445206 0.309030
vt 0.248191 0.309030
vt 0.248191 0.313296
vt 0.445206 0.313296
vt 0.445206 0.309030
vt 0.248191 0.309030
vt 0.248191 0.313296
vt 0.445206 0.313296
vt 0.854889 0.261503
vt 0.854878 0.234551
vt 0.817339 0.234530
vt 0.817350 0.261524
vt 0.789389 0.229092
vt 0.816727 0.229076
vt 0.719593 0.229131
vt 0.747833 0.229116
vt 0.854889 0.261503
vt 0.854878 0.234551
vt 0.817339 0.234530
vt 0.817350 0.261524
vt 0.789389 0.229092
vt 0.816727 0.229076
vt 0.719593 0.229131
vt 0.747833 0.229116
vt 0.312378 0.045058
vt 0.432118 0.045058
vt 0.623466 0.045058
vt 0.678375 0.045058
vt 0.678375 0.006345
vt 0.498930 0.045058
vt 0.618142 0.045058
vt 0.618142 0.006345
vt 0.435329 0.045058
vt 0.495251 0.045058
vt 0.495251 0.006345
vt 0.435329 0.006345
vt 0.816716 0.205701
vt 0.789378 0.205719
vt 0.747822 0.205743
vt 0.719542 0.205756
vt 0.747833 0.229116
vt 0.789389 0.229092
vt 0.789378 0.205719
vt 0.747822 0.205743
vt 0.816716 0.205701
vt 0.816727 0.229076
vt 0.859185 0.229052
vt 0.859174 0.205677
vt 0.816716 0.205701
vt 0.789378 0.205719
vt 0.747822 0.205743
vt 0.719542 0.205756
vt 0.747833 0.229116
vt 0.789389 0.229092
vt 0.789378 0.205719
vt 0.747822 0.205743
vt 0.816716 0.205701
vt 0.816727 0.229076
vt 0.859185 0.229052
vt 0.859174 0.205677
vn 0 6.123233995736766E-17 1
vn 0 6.123233995736766E-17 1
vn 0 6.123233995736766E-17 1
vn 0 6.123233995736766E-17 1
vn -0.103098 -0.994671 6.090603281773484E-17
vn -0.103098 -0.994671 6.090603281773484E-17
vn -0.994427 0.105425 -6.455419440005486E-18
vn 0.105033 0.994469 -6.089366388506346E-17
vn -0.252146 -0.20043999999999995 0.946703
vn -0.252146 -0.20043999999999995 0.946703
vn -0.252146 -0.20043999999999995 0.946703
vn -0.252146 -0.20043999999999995 0.946703
vn 0.252146 0.20043999999999995 -0.946703
vn 0.252146 0.20043999999999995 -0.946703
vn 0.252146 0.20043999999999995 -0.946703
vn 0.252146 0.20043999999999995 -0.946703
vn -0.166166 -0.16839199999999993 0.971614
vn -0.166166 -0.16839199999999993 0.971614
vn -0.166166 -0.16839199999999993 0.971614
vn -0.166166 -0.16839199999999993 0.971613
vn 0.166166 0.16839199999999993 -0.971614
vn 0.166166 0.16839199999999993 -0.971614
vn 0.166166 0.16839199999999993 -0.971614
vn 0.166166 0.16839199999999993 -0.971613
vn -0.147747 -0.22058599999999995 0.964112
vn -0.147747 -0.22058599999999995 0.964112
vn -0.147747 -0.22058599999999995 0.964112
vn -0.147747 -0.22058599999999995 0.964112
vn 0.147747 0.22058599999999995 -0.964112
vn 0.147747 0.22058599999999995 -0.964112
vn 0.147747 0.22058599999999995 -0.964112
vn 0.147747 0.22058599999999995 -0.964112
vn -0.000396 0.0006210000000000613 1
vn -0.000289 0.0008900000000000612 1
vn -0.000396 0.0006210000000000613 1
vn -0.000502 0.00035200000000006125 1
vn -0.575828 0.81657 -0.04043600000000005
vn -0.573242 0.818569 -0.03658400000000005
vn 0.581497 -0.811482 0.05795500000000005
vn 0.580197 -0.81255 0.055982000000000046
vn 0.000209 0.0007060000000000613 1
vn 0.000482 0.0008020000000000612 1
vn 0.000209 0.0007060000000000613 1
vn -6.4E-05 0.0006100000000000612 1
vn 0.239251 0.970115 -0.04043600000000006
vn 0.242455 0.969473 -0.03658400000000006
vn -0.231692 -0.971061 0.05795500000000006
vn -0.23335 -0.97078 0.05598200000000006
vn -0.103098 -0.994671 6.090603281773484E-17
vn -0.103098 -0.994671 6.090603281773484E-17
vn -0.994427 0.105425 -6.455419440005486E-18
vn -0.994427 0.105425 -6.455419440005486E-18
vn -0.994427 0.105425 -6.455419440005486E-18
vn 0.105033 0.994469 -6.089366388506346E-17
vn 0.105033 0.994469 -6.089366388506346E-17
vn 0.105033 0.994469 -6.089366388506346E-17
vn 0.994584 -0.103933 6.364060788789093E-18
vn 0.994584 -0.103933 6.364060788789093E-18
vn 0.994584 -0.103933 6.364060788789093E-18
vn 0.994584 -0.103933 6.364060788789093E-18
vn -0.570642 0.820547 -0.03273100000000005
vn -0.573242 0.818569 -0.03658400000000005
vn 0.581497 -0.811482 0.05795500000000005
vn 0.582792 -0.810408 0.05992700000000005
vn -0.813519 -0.58144 0.010667000000000036
vn -0.814086 -0.580677 0.008849000000000034
vn -0.813519 -0.58144 0.010667000000000036
vn -0.812948 -0.582202 0.012485000000000036
vn 0.811945 0.583619 -0.011591000000000037
vn 0.813267 0.581843 -0.007390000000000035
vn 0.811945 0.583619 -0.011591000000000037
vn 0.810605 0.585381 -0.015791000000000034
vn 0.245653 0.968805 -0.032731000000000066
vn 0.242455 0.969473 -0.03658400000000006
vn -0.231692 -0.971061 0.05795500000000006
vn -0.230032 -0.971336 0.059928000000000065
vn -0.972354 0.233267 0.010666999999999986
vn -0.972149 0.234196 0.008848999999999985
vn -0.972354 0.233267 0.010666999999999986
vn -0.972555 0.232337 0.012484999999999986
vn 0.972968 -0.230651 -0.011590999999999987
vn 0.972493 -0.232813 -0.007389999999999986
vn 0.972968 -0.230651 -0.011590999999999987
vn 0.97342 -0.228483 -0.015789999999999985
g 01
f 81/81/81 84/84/84 83/83/83
f 83/83/83 82/82/82 81/81/81
f 77/77/77 80/80/80 79/79/79
f 79/79/79 78/78/78 77/77/77
f 47/47/47 76/76/76 75/75/75
f 75/75/75 48/48/48 47/47/47
f 46/46/46 45/45/45 74/74/74
f 74/74/74 73/73/73 46/46/46
f 43/43/43 42/42/42 41/41/41
f 41/41/41 44/44/44 43/43/43
f 69/69/69 72/72/72 71/71/71
f 71/71/71 70/70/70 69/69/69
f 65/65/65 68/68/68 67/67/67
f 67/67/67 66/66/66 65/65/65
f 39/39/39 64/64/64 63/63/63
f 63/63/63 40/40/40 39/39/39
f 38/38/38 37/37/37 62/62/62
f 62/62/62 61/61/61 38/38/38
f 35/35/35 34/34/34 33/33/33
f 33/33/33 36/36/36 35/35/35
f 31/31/31 32/32/32 29/29/29
f 29/29/29 30/30/30 31/31/31
f 27/27/27 26/26/26 25/25/25
f 25/25/25 28/28/28 27/27/27
f 23/23/23 24/24/24 21/21/21
f 21/21/21 22/22/22 23/23/23
f 19/19/19 18/18/18 17/17/17
f 17/17/17 20/20/20 19/19/19
f 15/15/15 16/16/16 13/13/13
f 13/13/13 14/14/14 15/15/15
f 11/11/11 10/10/10 9/9/9
f 9/9/9 12/12/12 11/11/11
f 57/57/57 60/60/60 59/59/59
f 59/59/59 58/58/58 57/57/57
f 54/54/54 8/8/8 56/56/56
f 56/56/56 55/55/55 54/54/54
f 51/51/51 7/7/7 53/53/53
f 53/53/53 52/52/52 51/51/51
f 49/49/49 6/6/6 5/5/5
f 5/5/5 50/50/50 49/49/49
f 3/3/3 2/2/2 1/1/1
f 1/1/1 4/4/4 3/3/3
