v -0.265085 -0.9775369999999999 1.661069
v -0.087739 -0.9755679999999999 1.661069
v -0.103652 -0.9918379999999999 1.568839
v -0.103652 -0.9918379999999999 1.568839
v -0.248815 -0.9934499999999999 1.568839
v -0.265085 -0.9775369999999999 1.661069
v -0.270751 1.242553 1.470073
v -1.022837 1.184352 1.470286
v -0.97558 1.137095 1.470073
v -0.97558 1.137095 1.470073
v -0.270751 1.197048 1.466123
v -0.270751 1.242553 1.470073
v -0.97558 1.137095 1.470073
v -1.022837 1.184352 1.470286
v -1.022836 0.4548490000000001 1.470073
v -0.97558 1.137095 1.470073
v -0.270751 1.197048 1.466123
v -0.270751 1.242553 1.470073
v -0.270751 1.242553 1.470073
v -1.022837 1.184352 1.470286
v -0.97558 1.137095 1.470073
v -0.97558 1.137095 1.470073
v -1.022837 1.184352 1.470286
v -1.022836 0.4548490000000001 1.470073
v 0.421619 -0.5182269999999999 1.582547
v 0.638348 -0.5018049999999998 1.582621
v -0.329091 -0.4298819999999999 1.582621
v 0.749898 -1.061 1.582621
v 0.673492 -0.32826699999999986 1.582621
v 0.678133 -0.8865309999999998 1.582547
v -0.264995 1.240785 1.58825
v -0.324098 0.5256540000000001 1.582621
v 0.671676 0.3545260000000001 1.582621
v 0.671676 0.3545260000000001 1.582621
v 0.744183 1.087656 1.582621
v -0.264995 1.240785 1.58825
v -0.97558 1.137095 1.470073
v -0.97558 1.137095 1.418012
v -0.270751 1.195774 1.418012
v -0.270751 1.195774 1.418012
v -0.270751 1.197048 1.466123
v -0.97558 1.137095 1.470073
v 0.178057 -1.34628 0.5895110000000001
v 0.557057 -1.27663 0.5895110000000001
v 0.526323 -1.096251 0.6662100000000001
v 0.526323 -1.096251 0.6662100000000001
v 0.145431 -1.156373 0.6662100000000001
v 0.178057 -1.34628 0.5895110000000001
v 0.462624 -0.9148149999999999 1.553709
v 0.433208 -0.6542989999999999 1.16519
v 0.421596 -0.5182779999999999 1.16519
v -0.318098 -0.414037 2.5352454338928633E-17
v -0.318098 -0.414037 2.5352454338928633E-17
v -0.913786 -0.457807 2.803259385886262E-17
v 0.638344 -0.5018479999999998 1.16519
v 0.649592 -0.6338069999999999 1.16519
v 0.678129 -0.8865419999999999 1.553709
v -0.340302 0.4548490000000001 1.470073
v -0.326059 0.4760230000000001 1.575412
v -0.340301 0.5021160000000001 1.470073
v -0.277371 1.200272 1.470073
v -0.277373 1.200272 1.470073
v -0.236722 1.236477 0.0008049999999999244
v -0.277371 1.153493 1.418012
v -0.277371 1.154768 1.466123
v -0.277371 1.154768 1.466123
v -0.340301 0.5021160000000001 1.470073
v -0.340301 0.5021160000000001 1.470073
v -0.3403 0.5021160000000001 1.418012
v 0.514533 -1.097074 0.00017900000000006715
v 0.738191 -1.062358 0.0008050000000000651
v 0.514528 -1.097042 0.6486530000000001
v -0.2302 -1.215037 7.439955864478012E-17
v 0.15762 -1.153892 0.00015100000000007067
v 0.15762 -1.153892 0.6497940000000001
v 0.15762 -1.153892 0.6497940000000001
v -0.2302 -1.215037 7.439955864478012E-17
v -0.2302 -1.215037 7.439955864478012E-17
v -0.2302 -1.215037 7.439955864478012E-17
v -0.2302 -1.215037 0.9568350000000001
v -0.2302 -1.215037 7.439955864478012E-17
v 0.433208 -0.6542989999999999 1.16519
v 0.462624 -0.9148149999999999 1.582899
v 0.678129 -0.8865419999999999 1.582899
v 0.678129 -0.8865419999999999 1.582899
v 0.649592 -0.6338069999999999 1.16519
v 0.433208 -0.6542989999999999 1.16519
v 0.514528 -1.097042 0.6486530000000001
v 0.738191 -1.062358 1.10924
v 0.15762 -1.153892 0.6497940000000001
v 0.514528 -1.097042 0.6486530000000001
v 0.738191 -1.062358 0.0008050000000000651
v 0.738191 -1.062358 1.10924
v 0.738191 -1.062358 1.575165
v -0.2302 -1.215037 1.575165
v -0.2302 -1.215037 1.575165
v -0.314975 -0.46352199999999993 0.822989
v -0.318098 -0.4140369999999999 1.575165
v -0.314975 -0.46352199999999993 0.956835
v -0.314975 -0.46352199999999993 0.822989
v -0.237256 -1.165959 0.8229890000000001
v -0.237256 -1.165959 0.9568350000000001
v -0.237256 -1.165959 0.9568350000000001
v -0.2302 -1.215037 0.9568350000000001
v -0.2302 -1.215037 1.575165
v -0.318098 -0.4140369999999999 1.575165
v -0.318098 -0.41403699999999993 0.956835
v -0.314975 -0.46352199999999993 0.956835
v 1.090847 0.540316 0.22385199999999997
v 1.136126 0.651533 0.00097799999999996
v 0.695194 0.805915 0.0009779999999999505
v 0.695194 0.805915 0.0009779999999999505
v 0.682142 0.675585 0.22414999999999996
v 1.090847 0.540316 0.22385199999999997
v 1.11134 0.53388 0.36255299999999996
v 1.162886 0.659544 0.12910399999999997
v 1.142492 0.666364 0.12910399999999997
v 1.142492 0.666364 0.12910399999999997
v 1.090818 0.540325 0.36255299999999996
v 1.11134 0.53388 0.36255299999999996
v 1.142492 0.666364 0.12910399999999997
v 1.142454 0.666272 0.00035399999999995917
v 1.090818 0.540325 0.36255299999999996
v 1.142454 0.666272 0.00035399999999995917
v 1.136126 0.651533 0.00097799999999996
v 1.090818 0.540325 0.36255299999999996
v 1.136126 0.651533 0.00097799999999996
v 1.090828 0.540351 0.19523699999999997
v 1.090818 0.540325 0.36255299999999996
v 0.628799 1.223618 1.317448
v 0.610335 1.108617 1.410165
v 0.610335 1.108617 1.393618
v 0.610335 1.108617 1.393618
v 0.626171 1.207955 1.314388
v 0.628799 1.223618 1.317448
v -0.096798 1.328432 1.314388
v -0.114258 1.21891 1.393618
v -0.114258 1.21891 1.410165
v -0.114258 1.21891 1.410165
v -0.093901 1.345701 1.317448
v -0.096798 1.328432 1.314388
v -0.114258 1.21891 1.410165
v 0.610335 1.108617 1.410165
v 0.628799 1.223618 1.317448
v 0.628799 1.223618 1.317448
v -0.093901 1.345701 1.317448
v -0.114258 1.21891 1.410165
v -0.205234 1.1638500000000003 2.338628
v 0.668117 1.0384280000000001 2.338628
v 0.420499 0.2852840000000001 2.087765
v 0.420499 0.2852840000000001 2.087765
v 0.668117 1.0384280000000001 2.338628
v -0.205234 1.1638500000000003 2.338628
v -0.265085 -0.9775369999999999 1.661069
v -0.231688 -1.0101989999999998 1.824212
v -0.120402 -1.0089639999999997 1.824212
v -0.087739 -0.9755679999999999 1.661069
v -0.265085 -0.9775369999999999 1.661069
v -0.263115 -1.154882 1.661069
v -0.230452 -1.1214859999999998 1.824212
v -0.231688 -1.0101989999999998 1.824212
v -0.265085 -0.9775369999999999 1.661069
v -0.263115 -1.154882 1.661069
v -0.263115 -1.154882 1.661069
v -0.248815 -0.9934499999999999 1.568839
v -0.247202 -1.138612 1.568839
v -0.263115 -1.154882 1.661069
v 0.855434 0.12122000000000006 1.024898
v 0.88827 0.13629900000000006 1.024898
v 0.88827 0.1362990000000001 1.269316
v 0.88827 0.1362990000000001 1.269316
v 0.855434 0.12122000000000008 1.269316
v -0.603368 -0.262116 0.14220000000000002
v -0.594267 -0.296004 -0.005075999999999982
v -0.629972 -0.345811 -0.005075999999999979
v -0.663042 -0.345239 0.14220000000000002
v -0.603368 -0.262116 0.14220000000000002
v -0.621145 -0.345811 0.274149
v -0.591666 -0.304676 0.274149
v -0.591666 -0.304676 0.274149
v -0.546292 -0.321568 0.274149
v -0.511998 -0.296545 0.14220000000000002
v -0.594267 -0.296004 -0.005075999999999982
v -0.539368 -0.316492 -0.005075999999999981
v -0.546292 -0.321568 0.274149
v -0.547572 -0.372748 0.274149
v -0.51457 -0.399339 0.14220000000000002
v -0.539368 -0.316492 -0.005075999999999981
v -0.540915 -0.378384 -0.005075999999999976
v -0.547572 -0.372748 0.274149
v -0.593746 -0.387952 0.274149
v -0.607564 -0.430337 0.14220000000000002
v -0.540915 -0.378384 -0.005075999999999976
v -0.596783 -0.396828 -0.0050759999999999755
v -0.607564 -0.430337 0.14220000000000002
v -0.629972 -0.345811 -0.005075999999999979
v -0.596783 -0.396828 -0.0050759999999999755
v -0.621145 -0.345811 0.274149
v -0.593746 -0.387952 0.274149
v -0.43072 -0.231108 0.14220000000000002
v -0.421619 -0.264997 -0.005075999999999983
v -0.457323 -0.314804 -0.005075999999999981
v -0.490394 -0.314232 0.14220000000000002
v -0.43072 -0.231108 0.14220000000000002
v -0.448497 -0.314803 0.274149
v -0.419019 -0.273668 0.274149
v -0.419019 -0.273668 0.274149
v -0.373644 -0.29056 0.274149
v -0.339351 -0.265537 0.14220000000000002
v -0.421619 -0.264997 -0.005075999999999983
v -0.36672 -0.285485 -0.0050759999999999824
v -0.373644 -0.29056 0.274149
v -0.374924 -0.34174 0.274149
v -0.341922 -0.368331 0.14220000000000002
v -0.36672 -0.285485 -0.0050759999999999824
v -0.368267 -0.347376 -0.005075999999999978
v -0.374924 -0.34174 0.274149
v -0.421098 -0.356945 0.274149
v -0.434916 -0.399329 0.14220000000000002
v -0.368267 -0.347376 -0.005075999999999978
v -0.424135 -0.365821 -0.005075999999999977
v -0.434916 -0.399329 0.14220000000000002
v -0.457323 -0.314804 -0.005075999999999981
v -0.424135 -0.365821 -0.005075999999999977
v -0.448497 -0.314803 0.274149
v -0.421098 -0.356945 0.274149
v -0.13683 1.1217170000000003 2.354681
v -0.133099 1.1481440000000003 2.354681
v -0.133099 1.148144 1.5297
v -0.133099 1.148144 1.5297
v -0.13683 1.121717 1.5297
v -0.894304 -0.5138489999999999 1.575139
v -0.853303 -0.511556 0.744379
v -0.865628 -0.527579 0.744379
v -0.865628 -0.527579 0.744379
v -0.906624 -0.5299419999999999 1.575139
v -0.906624 -0.5299419999999999 1.575139
v -0.865628 -0.527579 0.744379
v -0.851547 -0.542092 0.744379
v -0.851547 -0.542092 0.744379
v -0.89254 -0.5445269999999999 1.575139
v -0.89254 -0.5445269999999999 1.575139
v -0.851547 -0.542092 0.744379
v -0.83925 -0.526072 0.744379
v -0.83925 -0.526072 0.744379
v -0.880247 -0.5284359999999999 1.575139
v -0.877098 -0.9034509999999999 1.395464
v -0.821116 -1.320116 1.48373
v -0.821116 -1.320116 1.369103
v -0.877098 -0.8854519999999999 1.280837
v -0.877098 -0.9034509999999999 1.395464
v -0.911591 -0.4986699999999999 1.478815
v -0.877098 -0.9034509999999999 1.395464
v -0.911591 -0.4986699999999999 1.364187
v -0.911591 -0.4986699999999999 1.478815
v -0.821116 -1.320116 1.369103
v -0.821116 -1.320116 1.48373
v -0.877098 -0.9034509999999999 1.395464
v -0.877098 -0.9034509999999999 1.395464
v -0.877098 -0.8854519999999999 1.280837
v -0.911591 -0.4986699999999999 1.478815
v -0.911591 -0.4986699999999999 1.364187
v -0.877098 -0.9034509999999999 1.395464
v -0.911591 -0.4986699999999999 1.478815
v -1.022836 0.4548490000000001 1.470073
v -0.97558 0.5021050000000001 1.470073
v -0.97558 1.137095 1.470073
v -0.340301 0.4548490000000001 1.470073
v -0.340301 0.5021160000000001 1.470073
v -1.022836 0.4548490000000001 1.470073
v -1.022836 0.4548490000000001 1.470073
v -0.97558 0.5021050000000001 1.470073
v -0.97558 1.137095 1.470073
v -1.022836 0.4548490000000001 1.470073
v -0.340301 0.4548490000000001 1.470073
v -0.340301 0.5021160000000001 1.470073
v -0.230452 -1.1214859999999998 1.824212
v -0.119166 -1.1202499999999997 1.824212
v -0.120402 -1.0089639999999997 1.824212
v -0.231688 -1.0101989999999998 1.824212
v 0.88827 0.13629900000000006 1.024898
v 0.855434 0.12122000000000006 1.024898
v 0.855434 0.12122000000000008 1.269316
v 0.88827 0.1362990000000001 1.269316
v 0.919447 0.11337400000000006 0.901255
v 0.962091 0.09813500000000007 1.032386
v 0.839634 0.04103200000000006 1.032386
v 0.855371 0.08349600000000006 0.901255
v 0.889915 0.17670500000000006 0.901255
v 0.905653 0.21916800000000006 1.032386
v 0.962091 0.09813500000000007 1.032386
v 0.919447 0.11337400000000006 0.901255
v 0.82584 0.14682600000000007 0.901255
v 0.783195 0.16206500000000004 1.032386
v 0.905653 0.21916800000000006 1.032386
v 0.889915 0.17670500000000006 0.901255
v 0.855371 0.08349600000000006 0.901255
v 0.839634 0.04103200000000006 1.032386
v 0.783195 0.16206500000000004 1.032386
v 0.82584 0.14682600000000007 0.901255
v 0.839634 0.04103200000000006 1.032386
v 0.962091 0.09813500000000007 1.032386
v 0.905653 0.21916800000000006 1.032386
v 0.783195 0.16206500000000004 1.032386
v -0.241747 -1.217416 1.582621
v -0.241747 -1.217416 1.764634
v 0.749899 -1.061 1.764634
v 0.749899 -1.061 1.582621
v -0.248282 1.238793 1.764634
v -0.264995 1.240785 1.58825
v 0.744183 1.087656 1.582621
v 0.744183 1.087656 1.764634
v -0.270751 1.242553 1.470073
v -0.265756 1.238911 0.0008049999999999242
v -1.021146 1.184352 -7.252064429318831E-17
v -1.022837 1.184352 1.470286
v -0.97558 0.5021050000000001 1.470073
v -0.97558 0.5021050000000001 1.418012
v -0.97558 1.137095 1.418012
v -0.97558 1.137095 1.470073
v -0.3403 0.5021160000000001 1.418012
v -0.97558 0.5021050000000001 1.418012
v -0.97558 0.5021050000000001 1.470073
v -0.340301 0.5021160000000001 1.470073
v -0.270751 1.195774 1.418012
v -0.97558 1.137095 1.418012
v -0.97558 0.5021050000000001 1.418012
v -0.3403 0.5021160000000001 1.418012
v -0.283134 1.273693 1.575165
v -0.287327 1.295263 1.764634
v 0.797528 1.123174 1.764634
v 0.769219 1.11285 1.575165
v 0.183828 -1.309731 -0.0002959999999999198
v 0.18383 -1.309728 0.5925460000000001
v 0.15762 -1.153892 0.6497940000000001
v 0.15762 -1.153892 0.00015100000000007067
v 0.514528 -1.097042 0.6486530000000001
v 0.539581 -1.246045 0.5925460000000001
v 0.539582 -1.246047 -0.0002959999999999237
v 0.514533 -1.097074 0.00017900000000006715
v 0.539581 -1.246045 0.5925460000000001
v 0.18383 -1.309728 0.5925460000000001
v 0.183828 -1.309731 -0.0002959999999999198
v 0.539582 -1.246047 -0.0002959999999999237
v -0.237256 -1.165959 0.9568350000000001
v -0.237256 -1.165959 0.8229890000000001
v -0.777849 -1.291453 0.8229890000000001
v -0.777849 -1.291453 0.9568350000000001
v -0.777849 -1.291453 0.9568350000000001
v -0.777849 -1.291453 0.8229890000000001
v -0.863711 -0.510169 0.822989
v -0.863711 -0.5101689999999999 0.956835
v -0.780465 -1.256087 0.7443790000000001
v -0.823809 -1.262469 1.575139
v -0.812961 -1.24535 1.575139
v -0.769606 -1.239043 0.7443790000000001
v -0.765157 -1.269286 0.7443790000000001
v -0.80849 -1.275743 1.575139
v -0.823809 -1.262469 1.575139
v -0.780465 -1.256087 0.7443790000000001
v -0.754326 -1.252246 0.7443790000000001
v -0.797669 -1.258627 1.575139
v -0.80849 -1.275743 1.575139
v -0.765157 -1.269286 0.7443790000000001
v -0.769606 -1.239043 0.7443790000000001
v -0.812961 -1.24535 1.575139
v -0.797669 -1.258627 1.575139
v -0.754326 -1.252246 0.7443790000000001
v -0.777849 -1.291453 0.8229890000000001
v -0.237256 -1.165959 0.8229890000000001
v -0.314975 -0.46352199999999993 0.822989
v -0.863711 -0.510169 0.822989
v 0.42162 -0.5182259999999999 1.582547
v 0.462622 -0.9147979999999999 1.582621
v 0.421596 -0.5182779999999999 1.16519
v 0.462624 -0.9148149999999999 1.553709
v 0.436826 0.3354260000000001 2.201377
v 0.41104 0.3365080000000001 2.201377
v 0.41104 0.3365080000000001 1.492639
v 0.436826 0.3354260000000001 1.492639
v 0.41104 0.3365080000000001 2.201377
v 0.436826 0.3354260000000001 2.201377
v 0.436826 0.3354260000000001 1.492639
v 0.41104 0.3365080000000001 1.492639
v -0.13683 1.121717 1.5297
v -0.133099 1.148144 1.5297
v -0.133099 1.1481440000000003 2.354681
v -0.13683 1.1217170000000003 2.354681
v 0.729904 -1.008442 0.9070750000000001
v 0.729904 -1.008442 1.10924
v 1.063048 -0.8293099999999999 1.109241
v 1.063048 -0.8293099999999999 0.907075
v 1.063048 -0.8293099999999999 0.907075
v 1.063048 -0.8293099999999999 1.109241
v 1.159593 -0.28708999999999996 1.10924
v 1.159593 -0.28708999999999996 0.907075
v -0.913786 -0.45780699999999996 0.956835
v -0.318098 -0.41403699999999993 0.956835
v -0.913786 -0.457807 2.803259385886262E-17
v -0.318098 -0.414037 2.5352454338928633E-17
v 1.208171 -0.2838129999999999 1.10924
v 1.208171 -0.283813 0.0008050000000000174
v 1.048691 0.197216 0.000804999999999988
v 1.048691 0.19721500000000006 1.109241
v 0.678134 -0.8865299999999999 1.582547
v 0.638349 -0.5018049999999998 1.582621
v 0.678129 -0.8865419999999999 1.553709
v 0.638344 -0.5018479999999998 1.16519
v -0.880247 -0.5284359999999999 1.575139
v -0.83925 -0.526072 0.744379
v -0.853303 -0.511556 0.744379
v -0.894304 -0.5138489999999999 1.575139
v 0.600373 1.004056 1.5297
v 0.625941 1.000543 1.5297
v 0.625941 1.0005430000000002 2.354681
v 0.600373 1.0040560000000003 2.354681
v 0.625941 1.000543 1.5297
v 0.600373 1.004056 1.5297
v 0.600373 1.0040560000000003 2.354681
v 0.625941 1.0005430000000002 2.354681
v 1.008762 0.16782400000000006 1.109241
v 1.008762 0.16782400000000006 0.907075
v 1.159593 -0.28708999999999996 0.907075
v 1.159593 -0.28708999999999996 1.10924
v 0.657113 0.2871870000000001 1.10924
v 0.657113 0.2871870000000001 0.907075
v 1.008762 0.16782400000000006 0.907075
v 1.008762 0.16782400000000006 1.109241
v -0.340304 0.4548490000000001 1.470073
v -1.022836 0.4548490000000001 1.470073
v -1.021145 0.454849 -2.7851468597268726E-17
v -0.31558 0.475442 -2.911242617401079E-17
v -1.022836 0.4548490000000001 1.470073
v -1.022837 1.184352 1.470286
v -1.021146 1.184352 -7.252064429318831E-17
v -1.021145 0.454849 -2.7851468597268726E-17
v -0.913786 -0.45780699999999996 0.956835
v -0.913786 -0.457807 2.803259385886262E-17
v -0.816166 -1.352944 8.284392695128083E-17
v -0.816166 -1.352944 0.9568350000000001
v -0.2302 -1.215037 0.9568350000000001
v -0.816166 -1.352944 0.9568350000000001
v -0.2302 -1.215037 7.439955864478012E-17
v -0.816166 -1.352944 8.284392695128083E-17
v 0.638344 -0.5018479999999998 1.16519
v 0.421596 -0.5182779999999999 1.16519
v 0.433208 -0.6542989999999999 1.16519
v 0.649592 -0.6338069999999999 1.16519
v 0.972068 0.21510400000000002 0.362553
v 1.090818 0.540325 0.36255299999999996
v 1.090857 0.540342 0.19523699999999997
v 0.97209 0.215098 0.223852
v 0.42162 -0.5182259999999999 1.582547
v 0.421596 -0.5182779999999999 1.16519
v 0.638344 -0.5018479999999998 1.16519
v 0.638349 -0.5018049999999998 1.582621
v -0.314975 -0.46352199999999993 0.822989
v -0.2302 -1.215037 1.575165
v -0.318098 -0.4140369999999999 1.575165
v -0.237256 -1.165959 0.9568350000000001
v 1.208171 -0.2838129999999999 1.10924
v 1.10713 -0.8534929999999998 1.109241
v 1.10713 -0.853493 0.0008050000000000523
v 1.208171 -0.283813 0.0008050000000000174
v 0.972068 0.21510400000000002 0.362553
v 0.99204 0.20709700000000003 0.362553
v 1.11134 0.53388 0.36255299999999996
v 1.090818 0.540325 0.36255299999999996
v 1.142454 0.666272 0.00035399999999995917
v 1.142492 0.666364 0.12910399999999997
v 1.162886 0.659544 0.12910399999999997
v 1.162848 0.659453 0.0003539999999999596
v 0.596336 1.109673 0.8254079999999999
v 0.610991 1.201905 0.8254079999999999
v 0.610991 1.201905 1.334739
v 0.596336 1.109673 1.408935
v -0.100591 1.215756 1.408935
v -0.084494 1.317065 1.334739
v -0.084494 1.317065 0.8254079999999999
v -0.100591 1.215756 0.8254079999999999
v 0.738191 -1.062358 0.0008050000000000651
v 1.10713 -0.853493 0.0008050000000000523
v 1.10713 -0.8534929999999998 1.109241
v 0.738191 -1.062358 1.10924
v -0.863711 -0.5101689999999999 0.956835
v -0.863711 -0.510169 0.822989
v -0.314975 -0.46352199999999993 0.822989
v -0.314975 -0.46352199999999993 0.956835
v 0.775069 -1.08606 1.575165
v 0.803433 -1.096234 1.764634
v -0.280492 -1.274092 1.764634
v -0.257188 -1.253223 1.575165
v -0.084494 1.317065 1.334739
v 0.610991 1.201905 1.334739
v 0.610991 1.201905 0.8254079999999999
v -0.084494 1.317065 0.8254079999999999
v -0.043742 -0.9144799999999998 1.879801
v 0.002016 -0.7942959999999999 1.824398
v -0.093377 -0.8805399999999999 1.879801
v -0.095455 -1.0053459999999999 1.879801
v -0.159291 -0.9616959999999999 1.879801
v -0.167346 -1.0571689999999998 1.824398
v -0.181501 -1.0474899999999998 1.824398
v -0.169784 -0.9553919999999999 1.952337
v -0.20496 -0.8473929999999998 1.969481
v -0.218347 -0.9601849999999998 1.952337
v -0.156034 -1.0236399999999999 1.907357
v -0.218491 -1.0298039999999997 1.907357
v -0.177627 -1.0535099999999997 1.834542
v -0.191476 -1.0548769999999998 1.834542
v -0.343554 -1.1813879999999999 1.879801
v -0.409487 -1.2917999999999998 1.824398
v -0.300566 -1.2234309999999997 1.879801
v -0.276848 -1.1008809999999998 1.879801
v -0.221561 -1.1549539999999998 1.879801
v -0.19705 -1.0623299999999998 1.824398
v -0.184791 -1.0743199999999997 1.824398
v -0.101365 -1.1361239999999997 1.952337
v 0.007279 -1.1692559999999999 1.969481
v -0.077437 -1.0935959999999998 1.952337
v -0.165158 -1.1082429999999999 1.907357
v -0.134383 -1.0535449999999997 1.907357
v -0.177241 -1.0734219999999999 1.834542
v -0.170417 -1.0612939999999997 1.834542
v 0.033381 -1.0888819999999997 1.879801
v 0.158075 -1.0574309999999998 1.824398
v 0.032713 -1.0287569999999997 1.879801
v -0.070714 -1.0986409999999998 1.879801
v -0.071572 -1.0213119999999998 1.879801
v -0.154399 -1.0694759999999999 1.824398
v -0.15459 -1.0523289999999998 1.824398
v 0.825109 -0.007715999999999919 1.312542
v 0.831396 -0.10991799999999992 1.268429
v 0.872259 -0.016028999999999922 1.312542
v 0.832771 0.07517800000000008 1.312542
v 0.893411 0.06448600000000008 1.312542
v 0.874616 0.1351950000000001 1.268429
v 1.013412 0.09253800000000008 1.312542
v 1.114677 0.10770800000000008 1.268429
v 1.017584 0.14023200000000008 1.312542
v 0.930166 0.09294500000000008 1.312542
v 0.935532 0.1542870000000001 1.312542
v 0.86673 0.12940100000000007 1.268429
v 0.947742 0.25500900000000004 1.312542
v 0.959298 0.35675000000000007 1.268429
v 0.902752 0.27138400000000007 1.312542
v 0.925802 0.17470500000000008 1.312542
v 0.86794 0.19576500000000008 1.312542
v 0.874171 0.12286600000000009 1.268429
v 0.726008 0.08547400000000008 1.312542
v 0.645894 0.021704000000000077 1.268429
v 0.746241 0.042083000000000086 1.312542
v 0.798305 0.12674400000000008 1.312542
v 0.824328 0.07093800000000008 1.312542
v 0.871469 0.1268910000000001 1.268429
v 0.776249 0.23753700000000008 1.312542
v 0.684596 0.28319400000000006 1.268429
v 0.745475 0.2008610000000001 1.312542
v 0.844207 0.1894550000000001 1.312542
v 0.804627 0.14228500000000008 1.312542
v 0.87526 0.12320700000000008 1.268429
v -0.591666 -0.304676 0.274149
v -0.621145 -0.345811 0.274149
v -0.546292 -0.321568 0.274149
v -0.593746 -0.387952 0.274149
v -0.547572 -0.372748 0.274149
v -0.419019 -0.273668 0.274149
v -0.448497 -0.314803 0.274149
v -0.373644 -0.29056 0.274149
v -0.421098 -0.356945 0.274149
v -0.374924 -0.34174 0.274149
v 0.749899 -1.061 1.582621
v 0.749899 -1.061 1.764634
v 0.673492 -0.3282659999999999 1.764634
v 0.673492 -0.3282659999999999 1.582621
v 0.671676 0.3545270000000001 1.764634
v 0.671676 0.3545270000000001 1.582621
v 0.744183 1.087656 1.764634
v 0.744183 1.087656 1.582621
v -0.241747 -1.217416 1.764634
v -0.241747 -1.217416 1.582621
v -0.329091 -0.4298819999999999 1.582621
v -0.329091 -0.4298819999999999 1.764634
v -0.324098 0.5256540000000001 1.582621
v -0.324433 0.5256740000000001 1.764634
v -0.248282 1.238793 1.764634
v -0.264995 1.240785 1.58825
v 0.797528 1.123174 1.764634
v 0.744183 1.087656 1.764634
v 0.671676 0.3545270000000001 1.764634
v 0.718882 0.3523520000000001 1.764634
v 0.673492 -0.3282659999999999 1.764634
v 0.720687 -0.3258399999999999 1.764634
v 0.749899 -1.061 1.764634
v 0.803433 -1.096234 1.764634
v -0.241747 -1.217416 1.764634
v -0.280492 -1.274092 1.764634
v -0.329091 -0.4298819999999999 1.764634
v -0.376285 -0.4323079999999999 1.764634
v -0.324433 0.5256740000000001 1.764634
v -0.3716 0.5285860000000001 1.764634
v -0.287327 1.295263 1.764634
v -0.248282 1.238793 1.764634
v 0.744183 1.087656 1.764634
v 0.797528 1.123174 1.764634
v 0.732467 1.088951 0.0008049999999999334
v -0.265756 1.238911 0.0008049999999999242
v -0.270753 1.242553 1.470073
v 0.732467 1.088951 1.575165
v -0.264995 1.240785 1.58825
v -0.326059 0.4760230000000001 1.575412
v -0.340302 0.4548490000000001 1.470073
v -0.318098 -0.4140369999999999 1.575165
v -0.31558 0.475442 -2.911242617401079E-17
v -0.318098 -0.414037 2.5352454338928633E-17
v -0.450347 0.6759160000000001 1.689802
v -0.479825 0.6347820000000001 1.689802
v -0.404972 0.6590250000000001 1.689802
v -0.452426 0.5926400000000001 1.689802
v -0.406252 0.6078450000000001 1.689802
v 0.738191 -1.062358 1.10924
v 0.738191 -1.062358 1.575165
v -0.2302 -1.215037 1.575165
v 0.15762 -1.153892 0.6497940000000001
v -0.2302 -1.215037 7.439955864478012E-17
v 1.159593 -0.28708999999999996 0.907075
v 1.008762 0.16782400000000006 0.907075
v 1.063048 -0.8293099999999999 0.907075
v 0.657113 0.2871870000000001 0.907075
v 0.729904 -1.008442 0.9070750000000001
v 0.659715 0.340858 0.22400099999999998
v 0.692878 0.326963 0.22398499999999996
v 0.682142 0.675585 0.22414999999999996
v 0.970885 0.215561 0.223852
v 1.090847 0.540316 0.22385199999999997
v 0.659308 0.3416910000000001 1.10924
v 1.048691 0.19721500000000006 1.109241
v 0.659308 0.341691 0.22364399999999998
v 1.048691 0.197216 0.000804999999999988
v 0.991896 0.206985 0.0008049999999999874
v 1.11134 0.53388 0.36255299999999996
v 0.99204 0.20709700000000003 0.362553
v 1.162886 0.659544 0.12910399999999997
v 0.991896 0.206985 0.0008049999999999874
v 1.162848 0.659453 0.0003539999999999596
v 0.729904 -1.008442 1.10924
v 0.738191 -1.062358 1.10924
v 1.10713 -0.8534929999999998 1.109241
v 1.063048 -0.8293099999999999 1.109241
v 1.208171 -0.2838129999999999 1.10924
v 1.159593 -0.28708999999999996 1.10924
v 1.008762 0.16782400000000006 1.109241
v 1.048691 0.19721500000000006 1.109241
v 0.659308 0.3416910000000001 1.10924
v 0.657113 0.2871870000000001 1.10924
v -0.314975 -0.46352199999999993 0.956835
v -0.318098 -0.41403699999999993 0.956835
v -0.913786 -0.45780699999999996 0.956835
v -0.863711 -0.5101689999999999 0.956835
v -0.816166 -1.352944 0.9568350000000001
v -0.777849 -1.291453 0.9568350000000001
v -0.2302 -1.215037 0.9568350000000001
v -0.237256 -1.165959 0.9568350000000001
v 0.308998 0.5744900000000001 1.74262
v 0.430952 0.6440990000000001 1.74262
v 0.415545 0.8073280000000002 1.742508
v 0.270772 0.9300990000000001 1.742508
v 0.171511 0.6846420000000001 1.74262
v 0.148818 0.8604910000000001 1.742508
v 0.394471 0.7967340000000002 1.585956
v 0.270966 0.9047720000000001 1.585956
v 0.270966 0.9047720000000001 1.736483
v 0.394471 0.7967340000000002 1.736483
v 0.409694 0.6574050000000001 1.585956
v 0.409694 0.6574050000000001 1.736594
v 0.308803 0.5998190000000001 1.736594
v 0.308803 0.5998190000000001 1.585956
v 0.192585 0.6952370000000001 1.585956
v 0.192585 0.6952370000000001 1.736594
v 0.170075 0.8471850000000001 1.585956
v 0.170075 0.8471850000000001 1.736483
v 0.270966 0.9047720000000001 1.585956
v 0.270966 0.9047720000000001 1.736483
v -0.3716 0.5285860000000001 1.764634
v -0.287327 1.295263 1.764634
v -0.283134 1.273693 1.575165
v -0.353543 0.5274710000000001 1.580647
v -0.376285 -0.4323079999999999 1.764634
v -0.350223 -0.4258419999999999 1.575165
v -0.257188 -1.253223 1.575165
v -0.280492 -1.274092 1.764634
v -0.466244 0.5502560000000001 1.557854
v -0.455463 0.5837640000000001 1.410578
v -0.399595 0.6022090000000001 1.410578
v -0.37325 0.5812530000000001 1.557854
v -0.452426 0.5926400000000001 1.689802
v -0.406252 0.6078450000000001 1.689802
v -0.399595 0.6022090000000001 1.410578
v -0.398048 0.6641000000000001 1.410578
v -0.370679 0.6840480000000001 1.557854
v -0.406252 0.6078450000000001 1.689802
v -0.404972 0.6590250000000001 1.689802
v -0.398048 0.6641000000000001 1.410578
v -0.452948 0.6845880000000001 1.410578
v -0.462048 0.7184760000000001 1.557854
v -0.404972 0.6590250000000001 1.689802
v -0.450347 0.6759160000000001 1.689802
v -0.452948 0.6845880000000001 1.410578
v -0.488652 0.6347810000000002 1.410578
v -0.521722 0.6353530000000001 1.557854
v -0.479825 0.6347820000000001 1.689802
v -0.450347 0.6759160000000001 1.689802
v -0.466244 0.5502560000000001 1.557854
v -0.488652 0.6347810000000002 1.410578
v -0.455463 0.5837640000000001 1.410578
v -0.479825 0.6347820000000001 1.689802
v -0.452426 0.5926400000000001 1.689802
v 0.720687 -0.3258399999999999 1.764634
v 0.803433 -1.096234 1.764634
v 0.775069 -1.08606 1.575165
v 0.694136 -0.3227449999999999 1.575165
v 0.718882 0.3523520000000001 1.764634
v 0.692349 0.3491160000000001 1.575165
v 0.769219 1.11285 1.575165
v 0.797528 1.123174 1.764634
v 0.732467 1.088952 1.575165
v 0.659308 0.34169100000000013 1.575165
v 0.659308 0.3416910000000001 1.10924
v 0.659308 0.341691 0.22364399999999998
v 0.732467 1.088952 0.0008049999999999334
v 0.695194 0.805915 0.0009779999999999505
v -0.08577 -1.152913 1.661069
v -0.119166 -1.1202499999999997 1.824212
v -0.230452 -1.1214859999999998 1.824212
v -0.263115 -1.154882 1.661069
v -0.247202 -1.138612 1.568839
v -0.10204 -1.137 1.568839
v -0.087739 -0.9755679999999999 1.661069
v -0.120402 -1.0089639999999997 1.824212
v -0.119166 -1.1202499999999997 1.824212
v -0.08577 -1.152913 1.661069
v -0.10204 -1.137 1.568839
v -0.103652 -0.9918379999999999 1.568839
v 0.673492 -0.32826699999999986 1.582621
v 0.671676 0.3545260000000001 1.582621
v -0.324098 0.5256540000000001 1.582621
v -0.329091 -0.4298819999999999 1.582621
v 0.638348 -0.5018049999999998 1.582621
v 0.678133 -0.8865309999999998 1.582547
v 0.421619 -0.5182269999999999 1.582547
v -0.241748 -1.217416 1.582621
v 0.462621 -0.9147979999999999 1.582621
v 0.749898 -1.061 1.582621
v 0.738191 -1.062358 1.10924
v 0.729904 -1.008442 0.9070750000000001
v 0.657113 0.2871870000000001 0.907075
v 0.659308 0.3416910000000001 1.10924
v 0.661056 -0.3154959999999999 1.575165
v 0.659308 0.34169100000000013 1.575165
v 0.738191 -1.062358 1.575165
v -0.021508 0.8987450000000001 1.612903
v 0.014032 0.8132720000000001 1.583025
v 0.024943 0.9969800000000001 1.61092
v 0.174168 0.9369970000000001 1.607612
v 0.137171 0.9928140000000001 1.631827
v 0.102923 0.8028820000000001 1.599522
v 0.561095 0.9353940000000001 1.612903
v 0.475526 0.9707010000000001 1.583025
v 0.597712 0.8330850000000001 1.61092
v 0.44978 0.7699820000000002 1.607612
v 0.515409 0.7566740000000001 1.631827
v 0.405324 0.9151940000000001 1.599522
v 0.331328 0.3482980000000001 1.612903
v 0.393773 0.4166310000000001 1.583025
v 0.222665 0.3488810000000001 1.61092
v 0.213963 0.5094750000000001 1.607612
v 0.179012 0.4523550000000001 1.631827
v 0.365623 0.5015840000000001 1.599522
v -0.270751 1.197048 1.466123
v -0.270751 1.195774 1.418012
v -0.3403 0.5021160000000001 1.418012
v -0.340301 0.5021160000000001 1.470073
v -0.326059 0.4760230000000001 1.575412
v -0.264995 1.240785 1.58825
v -0.270751 1.242553 1.470073
v -0.911591 -0.4986699999999999 1.478815
v -0.61084 -0.47447499999999987 1.45892
v -0.877098 -0.9034509999999999 1.395464
v -0.52493 -1.252002 1.45892
v -0.821116 -1.320116 1.48373
v -0.28638 -0.8122369999999999 1.518485
v -0.235961 -1.185649 1.575148
v -0.317453 -0.4508939999999999 1.575148
v -0.821116 -1.320116 1.48373
v -0.52493 -1.252002 1.45892
v -0.877098 -0.9034509999999999 1.395464
v -0.61084 -0.47447499999999987 1.45892
v -0.911591 -0.4986699999999999 1.478815
v -0.28638 -0.8122369999999999 1.518485
v -0.317453 -0.4508939999999999 1.575148
v -0.235961 -1.185649 1.575148
vt 0.172136 0.318676
vt 0.172136 0.288763
vt 0.180388 0.288763
vt 0.180388 0.288763
vt 0.180388 0.318675
vt 0.172136 0.318676
vt 0.296111 0.231510
vt 0.289989 0.452898
vt 0.285025 0.439568
vt 0.285025 0.439568
vt 0.291264 0.231237
vt 0.296111 0.231510
vt 0.285025 0.439568
vt 0.289989 0.452898
vt 0.182350 0.452899
vt 0.285025 0.439568
vt 0.291264 0.231237
vt 0.296111 0.231510
vt 0.296111 0.231510
vt 0.289989 0.452898
vt 0.285025 0.439568
vt 0.285025 0.439568
vt 0.289989 0.452898
vt 0.182350 0.452899
vt 0.554370 0.359872
vt 0.556781 0.295698
vt 0.567309 0.582361
vt 0.475239 0.264489
vt 0.581954 0.287477
vt 0.500302 0.283921
vt 0.816243 0.551786
vt 0.707733 0.580376
vt 0.682297 0.287741
vt 0.682297 0.287741
vt 0.789218 0.265861
vt 0.816243 0.551786
vt 0.971433 0.833939
vt 0.976107 0.833939
vt 0.976065 0.996961
vt 0.976065 0.996961
vt 0.971747 0.996968
vt 0.971433 0.833939
vt 0.819375 0.848242
vt 0.818723 0.962332
vt 0.789293 0.962353
vt 0.789293 0.962353
vt 0.788639 0.848182
vt 0.819375 0.848242
vt 0.945375 0.712960
vt 0.915470 0.616981
vt 0.901001 0.616983
vt 0.002311 0.624929
vt 0.002311 0.624929
vt 0.071271 0.624928
vt 0.901001 0.616983
vt 0.915470 0.616981
vt 0.945375 0.712960
vt 0.041134 0.093974
vt 0.043564 0.067865
vt 0.046479 0.093971
vt 0.259690 0.632558
vt 0.259690 0.632558
vt 0.264543 0.995582
vt 0.977810 0.996042
vt 0.971917 0.996050
vt 0.971917 0.996050
vt 0.971433 0.540641
vt 0.971433 0.540641
vt 0.977809 0.540641
vt 0.784886 0.995879
vt 0.758927 0.995725
vt 0.784886 0.835685
vt 0.871365 0.995924
vt 0.826335 0.995886
vt 0.826335 0.835404
vt 0.826335 0.835404
vt 0.871365 0.995924
vt 0.871365 0.995924
vt 0.002311 0.624929
vt 0.002311 0.388560
vt 0.002311 0.624929
vt 0.296625 0.135323
vt 0.198072 0.135323
vt 0.198072 0.070984
vt 0.198072 0.070984
vt 0.296625 0.070984
vt 0.296625 0.135323
vt 0.784886 0.835685
vt 0.758927 0.721905
vt 0.826335 0.835404
vt 0.784886 0.835685
vt 0.758927 0.995725
vt 0.758927 0.721905
vt 0.758927 0.606807
vt 0.871365 0.606807
vt 0.871365 0.606807
vt 0.433050 0.646275
vt 0.438670 0.460508
vt 0.433050 0.613212
vt 0.433050 0.646275
vt 0.352007 0.646251
vt 0.351997 0.613208
vt 0.351997 0.613208
vt 0.346314 0.613204
vt 0.346314 0.460463
vt 0.438670 0.460508
vt 0.438733 0.613208
vt 0.433050 0.613212
vt 0.936355 0.416283
vt 0.936355 0.501811
vt 0.883666 0.501811
vt 0.883666 0.501811
vt 0.886708 0.416209
vt 0.936355 0.416283
vt 0.773394 0.065367
vt 0.802554 0.062380
vt 0.802197 0.067043
vt 0.802197 0.067043
vt 0.773035 0.070058
vt 0.773394 0.065367
vt 0.961028 0.648773
vt 0.961000 0.726491
vt 0.922110 0.508243
vt 0.961000 0.726491
vt 0.956507 0.726114
vt 0.922110 0.508243
vt 0.956507 0.726114
vt 0.922118 0.609239
vt 0.922110 0.508243
vt 0.302544 0.190364
vt 0.302544 0.146415
vt 0.304462 0.149705
vt 0.304462 0.149705
vt 0.304364 0.187500
vt 0.302544 0.190364
vt 0.196166 0.188291
vt 0.196065 0.148182
vt 0.198059 0.145080
vt 0.198059 0.145080
vt 0.198059 0.191698
vt 0.196166 0.188291
vt 0.198059 0.145080
vt 0.302544 0.146415
vt 0.302544 0.190364
vt 0.302544 0.190364
vt 0.198059 0.191698
vt 0.198059 0.145080
vt 0.946345 0.326096
vt 0.897880 0.321903
vt 0.907634 0.228378
vt 0.849020 0.056925
vt 0.975759 0.061430
vt 0.952060 0.313758
vt 0.172136 0.318676
vt 0.157435 0.313553
vt 0.157435 0.294959
vt 0.172136 0.288763
vt 0.172136 0.318676
vt 0.172136 0.348554
vt 0.157435 0.342631
vt 0.157435 0.324036
vt 0.172136 0.318676
vt 0.172136 0.348554
vt 0.172136 0.348554
vt 0.180388 0.318675
vt 0.180388 0.348554
vt 0.172136 0.348554
vt 0.581672 0.240418
vt 0.581672 0.231965
vt 0.608738 0.231965
vt 0.608738 0.231965
vt 0.608738 0.240418
vt 0.688317 0.711744
vt 0.685688 0.783134
vt 0.677917 0.783134
vt 0.675422 0.711744
vt 0.688317 0.711744
vt 0.677977 0.657620
vt 0.685764 0.657620
vt 0.690946 0.657620
vt 0.698722 0.657620
vt 0.701233 0.711744
vt 0.690878 0.783134
vt 0.698649 0.783134
vt 0.703814 0.657980
vt 0.711510 0.657980
vt 0.714157 0.711744
vt 0.703855 0.783134
vt 0.711626 0.783134
vt 0.716513 0.657620
vt 0.724333 0.657620
vt 0.727104 0.711744
vt 0.717029 0.783134
vt 0.724798 0.783134
vt 0.662524 0.711744
vt 0.672858 0.783134
vt 0.665086 0.783134
vt 0.672788 0.657634
vt 0.665130 0.657634
vt 0.688317 0.711744
vt 0.685688 0.783134
vt 0.677917 0.783134
vt 0.675422 0.711744
vt 0.688317 0.711744
vt 0.677977 0.657620
vt 0.685764 0.657620
vt 0.690946 0.657620
vt 0.698722 0.657620
vt 0.701233 0.711744
vt 0.690878 0.783134
vt 0.698649 0.783134
vt 0.703814 0.657980
vt 0.711510 0.657980
vt 0.714157 0.711744
vt 0.703855 0.783134
vt 0.711626 0.783134
vt 0.716513 0.657620
vt 0.724333 0.657620
vt 0.727104 0.711744
vt 0.717029 0.783134
vt 0.724798 0.783134
vt 0.662524 0.711744
vt 0.672858 0.783134
vt 0.665086 0.783134
vt 0.672788 0.657634
vt 0.665130 0.657634
vt 0.901606 0.020185
vt 0.901606 0.027279
vt 0.772270 0.027279
vt 0.772270 0.027279
vt 0.772270 0.020185
vt 0.104892 0.141565
vt 0.003092 0.142095
vt 0.003092 0.138388
vt 0.003092 0.138388
vt 0.104892 0.137842
vt 0.104892 0.137842
vt 0.003092 0.138388
vt 0.003092 0.134691
vt 0.003092 0.134691
vt 0.104892 0.134468
vt 0.104892 0.134468
vt 0.003092 0.134691
vt 0.003092 0.130985
vt 0.003092 0.130985
vt 0.104892 0.131532
vt 0.180245 0.174636
vt 0.177072 0.100343
vt 0.187484 0.103189
vt 0.190453 0.180579
vt 0.180245 0.174636
vt 0.181214 0.246565
vt 0.180245 0.174636
vt 0.189957 0.247348
vt 0.181214 0.246565
vt 0.006398 0.379196
vt 0.002442 0.343841
vt 0.065663 0.343656
vt 0.065663 0.343656
vt 0.072204 0.377857
vt 0.126559 0.336246
vt 0.125849 0.372518
vt 0.065663 0.343656
vt 0.126559 0.336246
vt 0.182350 0.452899
vt 0.189290 0.439568
vt 0.285025 0.439568
vt 0.184675 0.251970
vt 0.189291 0.252008
vt 0.184676 0.452899
vt 0.182350 0.452899
vt 0.189290 0.439568
vt 0.285025 0.439568
vt 0.184676 0.452899
vt 0.184675 0.251970
vt 0.189291 0.252008
vt 0.157435 0.354103
vt 0.157435 0.372699
vt 0.147654 0.372720
vt 0.147654 0.354124
vt 0.581672 0.231965
vt 0.581672 0.223012
vt 0.608738 0.223012
vt 0.608738 0.231965
vt 0.131035 0.258580
vt 0.142732 0.258705
vt 0.142732 0.288231
vt 0.131035 0.288232
vt 0.131036 0.346735
vt 0.142732 0.346734
vt 0.142733 0.375803
vt 0.131036 0.375716
vt 0.131035 0.317220
vt 0.142732 0.317220
vt 0.142732 0.346734
vt 0.131036 0.346735
vt 0.131035 0.288232
vt 0.142732 0.288231
vt 0.142732 0.317220
vt 0.131035 0.317220
vt 0.142732 0.288231
vt 0.142732 0.258705
vt 0.154160 0.258705
vt 0.154160 0.288231
vt 0.285933 0.055833
vt 0.285933 0.015595
vt 0.400982 0.015595
vt 0.400982 0.055833
vt 0.763120 0.015336
vt 0.765026 0.053954
vt 0.648085 0.055769
vt 0.648085 0.015595
vt 0.260740 0.632205
vt 0.260861 0.994496
vt 0.174394 0.995740
vt 0.174201 0.632557
vt 0.971433 0.687321
vt 0.976107 0.687321
vt 0.976107 0.833939
vt 0.971433 0.833939
vt 0.976106 0.540641
vt 0.976107 0.687321
vt 0.971433 0.687321
vt 0.971433 0.540641
vt 0.292094 0.238127
vt 0.283414 0.439568
vt 0.189290 0.439568
vt 0.189291 0.257987
vt 0.966774 0.588153
vt 0.943450 0.589881
vt 0.943480 0.335790
vt 0.966743 0.341895
vt 0.659548 0.237591
vt 0.659548 0.091140
vt 0.641823 0.077280
vt 0.641823 0.237474
vt 0.641823 0.077280
vt 0.659548 0.091140
vt 0.659548 0.237591
vt 0.641823 0.237474
vt 0.659548 0.091140
vt 0.701052 0.091140
vt 0.701052 0.237591
vt 0.659548 0.237591
vt 0.639550 0.180831
vt 0.639550 0.213895
vt 0.575903 0.213895
vt 0.575903 0.180831
vt 0.575903 0.180831
vt 0.575903 0.213895
vt 0.485757 0.213895
vt 0.485757 0.180831
vt 0.003092 0.127627
vt 0.104892 0.128157
vt 0.104892 0.131532
vt 0.003092 0.130985
vt 0.104892 0.137842
vt 0.003092 0.138388
vt 0.003092 0.134691
vt 0.104892 0.134468
vt 0.003092 0.130985
vt 0.104892 0.131532
vt 0.104892 0.134468
vt 0.003092 0.134691
vt 0.003092 0.138388
vt 0.104892 0.137842
vt 0.104892 0.141565
vt 0.003092 0.142095
vt 0.303244 0.437220
vt 0.312135 0.279624
vt 0.414415 0.280630
vt 0.416993 0.438713
vt 0.901014 0.720101
vt 0.945535 0.720102
vt 0.901001 0.616983
vt 0.945375 0.712960
vt 0.901606 0.020069
vt 0.901606 0.027279
vt 0.772270 0.027279
vt 0.772270 0.020069
vt 0.901606 0.034318
vt 0.901606 0.040310
vt 0.772270 0.040310
vt 0.772270 0.034318
vt 0.772270 0.034560
vt 0.772270 0.027279
vt 0.901606 0.027279
vt 0.901606 0.034560
vt 0.265969 0.714761
vt 0.265940 0.664820
vt 0.308926 0.665112
vt 0.308956 0.714761
vt 0.308956 0.714761
vt 0.308926 0.665112
vt 0.372193 0.665112
vt 0.372223 0.714761
vt 0.071271 0.388560
vt 0.002311 0.388560
vt 0.071271 0.624928
vt 0.002311 0.624929
vt 0.386198 0.724084
vt 0.386198 0.995650
vt 0.319771 0.995650
vt 0.319771 0.724084
vt 0.945535 0.720102
vt 0.901014 0.720101
vt 0.945375 0.712960
vt 0.901001 0.616983
vt 0.104892 0.131532
vt 0.003092 0.130985
vt 0.003092 0.127627
vt 0.104892 0.128157
vt 0.772270 0.027279
vt 0.772270 0.019946
vt 0.901606 0.019946
vt 0.901606 0.027279
vt 0.772270 0.040411
vt 0.772270 0.034318
vt 0.901606 0.034318
vt 0.901606 0.040411
vt 0.308926 0.665112
vt 0.308956 0.714761
vt 0.372223 0.714761
vt 0.372193 0.665112
vt 0.265940 0.664820
vt 0.265969 0.714761
vt 0.308956 0.714761
vt 0.308926 0.665112
vt 0.004986 0.632583
vt 0.083267 0.632583
vt 0.083073 0.995738
vt 0.002150 0.995738
vt 0.086874 0.632548
vt 0.170541 0.632496
vt 0.170541 0.995703
vt 0.086874 0.995703
vt 0.178402 0.388386
vt 0.178402 0.624740
vt 0.075142 0.624776
vt 0.075142 0.388422
vt 0.002311 0.388560
vt 0.071271 0.388560
vt 0.002311 0.624929
vt 0.071271 0.624928
vt 0.316347 0.070984
vt 0.316347 0.135323
vt 0.296625 0.135323
vt 0.296625 0.070984
vt 0.825081 0.508243
vt 0.922110 0.508243
vt 0.922118 0.609239
vt 0.825081 0.591967
vt 0.876087 0.720083
vt 0.876083 0.616983
vt 0.901001 0.616983
vt 0.901014 0.720101
vt 0.433050 0.646275
vt 0.346314 0.460463
vt 0.438670 0.460508
vt 0.351997 0.613208
vt 0.386198 0.724084
vt 0.319771 0.724084
vt 0.319771 0.995650
vt 0.386198 0.995650
vt 0.812917 0.050324
vt 0.812912 0.055302
vt 0.773035 0.052659
vt 0.773228 0.047698
vt 0.817781 0.071904
vt 0.802197 0.067043
vt 0.802554 0.062380
vt 0.818138 0.067241
vt 0.813119 0.238223
vt 0.801882 0.238223
vt 0.801882 0.106227
vt 0.813119 0.086999
vt 0.704721 0.086999
vt 0.717062 0.106227
vt 0.717062 0.238223
vt 0.704721 0.238223
vt 0.438588 0.995827
vt 0.389964 0.995827
vt 0.389964 0.724598
vt 0.438588 0.724598
vt 0.485757 0.180831
vt 0.485757 0.213895
vt 0.422595 0.213895
vt 0.422595 0.180831
vt 0.418556 0.209439
vt 0.421577 0.256365
vt 0.302180 0.256387
vt 0.305202 0.209421
vt 0.717062 0.106227
vt 0.801882 0.106227
vt 0.801882 0.238223
vt 0.717062 0.238223
vt 0.416778 0.670161
vt 0.400293 0.663301
vt 0.416778 0.656440
vt 0.429337 0.672124
vt 0.429337 0.654477
vt 0.441402 0.665257
vt 0.441402 0.661344
vt 0.423375 0.704526
vt 0.436905 0.710093
vt 0.423375 0.715661
vt 0.413420 0.702933
vt 0.413420 0.717255
vt 0.404033 0.708506
vt 0.404033 0.711681
vt 0.416878 0.669910
vt 0.400393 0.663049
vt 0.416878 0.656188
vt 0.429438 0.671872
vt 0.429438 0.654226
vt 0.441502 0.665006
vt 0.441502 0.661093
vt 0.423906 0.704953
vt 0.437436 0.710521
vt 0.423906 0.716088
vt 0.413951 0.703360
vt 0.413951 0.717681
vt 0.404564 0.708933
vt 0.404564 0.712108
vt 0.416126 0.669906
vt 0.399641 0.663045
vt 0.416126 0.656185
vt 0.428685 0.671869
vt 0.428685 0.654222
vt 0.440750 0.665002
vt 0.440750 0.661089
vt 0.423870 0.691184
vt 0.414465 0.685965
vt 0.423870 0.680746
vt 0.431035 0.692677
vt 0.431035 0.679253
vt 0.437918 0.685965
vt 0.423755 0.691115
vt 0.414350 0.685897
vt 0.423755 0.680678
vt 0.430920 0.692608
vt 0.430920 0.679185
vt 0.437803 0.685896
vt 0.423864 0.691071
vt 0.414459 0.685853
vt 0.423864 0.680634
vt 0.431030 0.692564
vt 0.431029 0.679140
vt 0.437913 0.685852
vt 0.423762 0.690894
vt 0.414357 0.685675
vt 0.423762 0.680457
vt 0.430927 0.692387
vt 0.430927 0.678963
vt 0.437810 0.685675
vt 0.423743 0.691048
vt 0.414339 0.685829
vt 0.423743 0.680611
vt 0.430909 0.692541
vt 0.430909 0.679118
vt 0.437792 0.685829
vt 0.728489 0.660202
vt 0.734186 0.656077
vt 0.728486 0.675267
vt 0.737676 0.668645
vt 0.734132 0.680456
vt 0.728489 0.660202
vt 0.734186 0.656077
vt 0.728486 0.675267
vt 0.737676 0.668645
vt 0.734132 0.680456
vt 0.400982 0.055833
vt 0.400982 0.015595
vt 0.485410 0.015595
vt 0.485410 0.055833
vt 0.563658 0.015595
vt 0.563658 0.055833
vt 0.648085 0.015595
vt 0.648085 0.055769
vt 0.285933 0.015595
vt 0.285933 0.055833
vt 0.195127 0.055833
vt 0.195127 0.015595
vt 0.085620 0.055767
vt 0.085619 0.015595
vt 0.003450 0.015336
vt 0.003384 0.054459
vt 0.794593 0.251252
vt 0.790219 0.259611
vt 0.681686 0.282469
vt 0.681913 0.277557
vt 0.579848 0.283962
vt 0.580485 0.276350
vt 0.473511 0.261059
vt 0.470095 0.252865
vt 0.450245 0.557800
vt 0.443056 0.569129
vt 0.567309 0.582361
vt 0.566948 0.596576
vt 0.707942 0.582672
vt 0.708306 0.594072
vt 0.821045 0.568178
vt 0.817682 0.555996
vt 0.790015 0.263356
vt 0.795104 0.246481
vt 0.755428 0.995375
vt 0.639732 0.994971
vt 0.639072 0.633077
vt 0.755428 0.606908
vt 0.639092 0.604688
vt 0.634595 0.606097
vt 0.632165 0.632206
vt 0.532557 0.606155
vt 0.634496 0.995307
vt 0.532495 0.995312
vt 0.728489 0.660202
vt 0.734186 0.656077
vt 0.728486 0.675267
vt 0.737676 0.668645
vt 0.734132 0.680456
vt 0.758927 0.721905
vt 0.758927 0.606807
vt 0.871365 0.606807
vt 0.826335 0.835404
vt 0.871365 0.995924
vt 0.888041 0.307350
vt 0.871207 0.442270
vt 0.868442 0.152437
vt 0.821997 0.484336
vt 0.818727 0.107692
vt 0.896355 0.341084
vt 0.900467 0.340450
vt 0.886708 0.416209
vt 0.936355 0.336242
vt 0.936355 0.416283
vt 0.268052 0.724130
vt 0.315609 0.724215
vt 0.268052 0.940284
vt 0.315609 0.995410
vt 0.309052 0.995437
vt 0.962212 0.837662
vt 0.962209 0.994873
vt 0.906348 0.776310
vt 0.875652 0.994943
vt 0.875542 0.776356
vt 0.818754 0.100761
vt 0.817397 0.093101
vt 0.872795 0.144098
vt 0.869566 0.149095
vt 0.893535 0.307447
vt 0.889765 0.307521
vt 0.873734 0.446175
vt 0.876255 0.451176
vt 0.821090 0.502607
vt 0.821571 0.490326
vt 0.415470 0.276445
vt 0.422777 0.275646
vt 0.426639 0.453317
vt 0.418099 0.440332
vt 0.293720 0.452281
vt 0.302075 0.438809
vt 0.303826 0.275040
vt 0.311144 0.275418
vt 0.925063 0.768462
vt 0.931208 0.736804
vt 0.951004 0.734655
vt 0.968274 0.764893
vt 0.940693 0.797409
vt 0.962129 0.796551
vt 0.989373 0.486476
vt 0.989373 0.526159
vt 0.971171 0.526159
vt 0.971171 0.486476
vt 0.989373 0.452580
vt 0.971158 0.452580
vt 0.971158 0.424486
vt 0.989373 0.424486
vt 0.989373 0.388121
vt 0.971158 0.388121
vt 0.989373 0.350973
vt 0.971171 0.350973
vt 0.989373 0.322878
vt 0.971171 0.322878
vt 0.549773 0.068784
vt 0.638466 0.068923
vt 0.636053 0.115730
vt 0.549646 0.114418
vt 0.439326 0.068512
vt 0.439728 0.115720
vt 0.344237 0.115704
vt 0.342157 0.068529
vt 0.727104 0.711744
vt 0.724798 0.783134
vt 0.717029 0.783134
vt 0.714157 0.711744
vt 0.724333 0.657620
vt 0.716513 0.657620
vt 0.711626 0.783134
vt 0.703855 0.783134
vt 0.701233 0.711744
vt 0.711510 0.657980
vt 0.703814 0.657980
vt 0.698649 0.783134
vt 0.690878 0.783134
vt 0.688317 0.711744
vt 0.698722 0.657620
vt 0.690946 0.657620
vt 0.685688 0.783134
vt 0.677917 0.783134
vt 0.675422 0.711744
vt 0.677977 0.657620
vt 0.685764 0.657620
vt 0.662524 0.711744
vt 0.672858 0.783134
vt 0.665086 0.783134
vt 0.672788 0.657634
vt 0.665130 0.657634
vt 0.550408 0.125074
vt 0.639264 0.122661
vt 0.638073 0.169921
vt 0.550045 0.172280
vt 0.472625 0.125074
vt 0.472988 0.172280
vt 0.384961 0.169921
vt 0.383769 0.122661
vt 0.442564 0.607084
vt 0.528678 0.607083
vt 0.528678 0.722179
vt 0.528678 0.940951
vt 0.442564 0.995999
vt 0.475289 0.995963
vt 0.172136 0.378187
vt 0.157435 0.372699
vt 0.157435 0.354103
vt 0.172136 0.348554
vt 0.180388 0.348554
vt 0.180388 0.378374
vt 0.172136 0.288763
vt 0.157435 0.283893
vt 0.157435 0.265300
vt 0.172136 0.259263
vt 0.180388 0.259346
vt 0.180388 0.288763
vt 0.581954 0.287477
vt 0.682297 0.287741
vt 0.707733 0.580376
vt 0.567309 0.582361
vt 0.556781 0.295698
vt 0.500302 0.283921
vt 0.554370 0.359872
vt 0.452328 0.556541
vt 0.496152 0.347730
vt 0.475239 0.264489
vt 0.343354 0.575331
vt 0.337106 0.625274
vt 0.188125 0.625289
vt 0.181872 0.575348
vt 0.257241 0.460235
vt 0.181872 0.460253
vt 0.343354 0.460233
vt 0.402538 0.691992
vt 0.395759 0.713433
vt 0.397234 0.663554
vt 0.375542 0.675213
vt 0.381433 0.659192
vt 0.382597 0.713433
vt 0.402538 0.691992
vt 0.395759 0.713433
vt 0.397234 0.663554
vt 0.375542 0.675213
vt 0.381433 0.659192
vt 0.382597 0.713433
vt 0.402538 0.691992
vt 0.395759 0.713433
vt 0.397234 0.663554
vt 0.375542 0.675213
vt 0.381433 0.659192
vt 0.382597 0.713433
vt 0.126882 0.093695
vt 0.126372 0.106611
vt 0.046416 0.106782
vt 0.046479 0.093971
vt 0.043564 0.067865
vt 0.131461 0.064720
vt 0.131790 0.093441
vt 0.181214 0.246565
vt 0.155275 0.247045
vt 0.180245 0.174636
vt 0.151402 0.110464
vt 0.177072 0.100343
vt 0.127313 0.187757
vt 0.124034 0.121128
vt 0.127936 0.251410
vt 0.002442 0.343841
vt 0.007166 0.254141
vt 0.065663 0.343656
vt 0.123081 0.247052
vt 0.126559 0.336246
vt 0.068823 0.159816
vt 0.122677 0.152476
vt 0.013079 0.148558
vn -0.457043 0.889259 0.018203999999999946
vn 0.889258 0.457043 0.01820499999999997
vn 0.425744 0.875665 -0.22793300000000005
vn 0.425744 0.875665 -0.22793300000000005
vn -0.875666 0.425743 -0.22793000000000002
vn -0.457043 0.889259 0.018203999999999946
vn 0.000588 -0.003930999999999938 0.999992
vn 0.000588 -0.003930999999999938 0.999992
vn 0.000588 -0.003930999999999938 0.999992
vn 0.012937 -0.08646799999999995 0.996171
vn 0.012937 -0.08646799999999995 0.996171
vn 0.012937 -0.08646799999999995 0.996171
vn 0.004226 -0.00029299999999993876 0.999991
vn 0.004226 -0.00029299999999993876 0.999991
vn 0.004226 -0.00029299999999993876 0.999991
vn 0.012937 -0.08646799999999995 0.996171
vn 0.012937 -0.08646799999999995 0.996171
vn 0.012937 -0.08646799999999995 0.996171
vn 0.000588 -0.003930999999999938 0.999992
vn 0.000588 -0.003930999999999938 0.999992
vn 0.000588 -0.003930999999999938 0.999992
vn 0.004226 -0.00029299999999993876 0.999991
vn 0.004226 -0.00029299999999993876 0.999991
vn 0.004226 -0.00029299999999993876 0.999991
vn -0.00017 -0.0022889999999999387 0.999997
vn -0.00017 -0.0022889999999999387 0.999997
vn -0.00017 -0.0022889999999999387 0.999997
vn -0.00139 -0.00014499999999993877 0.999999
vn -0.00139 -0.00014499999999993877 0.999999
vn -0.00139 -0.00014499999999993877 0.999999
vn -0.001334 -0.007760999999999938 0.999969
vn -0.001334 -0.007760999999999938 0.999969
vn -0.001334 -0.007760999999999938 0.999969
vn 0.005495 -0.0005429999999999387 0.999985
vn 0.005495 -0.0005429999999999387 0.999985
vn 0.005495 -0.0005429999999999387 0.999985
vn 0.082965 -0.996553 6.102127208153462E-17
vn 0.082965 -0.996553 6.102127208153462E-17
vn 0.082965 -0.996553 6.102127208153462E-17
vn 0.084872 -0.996042 0.026384000000000064
vn 0.084872 -0.996042 0.026384000000000064
vn 0.084872 -0.996042 0.026384000000000064
vn 0.069878 -0.38024099999999994 0.922244
vn 0.069878 -0.38024099999999994 0.922244
vn 0.069878 -0.38024099999999994 0.922244
vn 0.057666 -0.36533099999999996 0.92909
vn 0.057666 -0.36533099999999996 0.92909
vn 0.057666 -0.36533099999999996 0.92909
vn 0.996207 0.085049 -0.018398000000000008
vn 0.996207 0.085049 -0.018398000000000008
vn 0.996207 0.085049 -0.018398000000000008
vn 1 0 0
vn 1 0 0
vn 1 0 0
vn -0.996226 -0.084922 0.017929000000000004
vn -0.996226 -0.084922 0.017929000000000004
vn -0.996226 -0.084922 0.017929000000000004
vn -0.990983 3.9000000000008205E-05 0.133985
vn -0.990983 3.9000000000008205E-05 0.133985
vn -0.990983 3.9000000000008205E-05 0.133985
vn 0 -0.999697 -0.024633999999999937
vn 0 -0.999697 -0.024633999999999937
vn 0 -0.999697 -0.024633999999999937
vn 1 0 0
vn 1 0 0
vn 1 0 0
vn 1 0 0
vn 1 0 0
vn 1 0 0
vn 0.153386 -0.988166 5.000000000006051E-05
vn 0.153386 -0.988166 5.000000000006051E-05
vn 0.153386 -0.988166 5.000000000006051E-05
vn 0.15574 -0.987798 6.048518294520785E-17
vn 0.15574 -0.987798 6.048518294520785E-17
vn 0.15574 -0.987798 6.048518294520785E-17
vn 1 0 0
vn 1 0 0
vn 1 0 0
vn 1 0 0
vn 1 0 0
vn 1 0 0
vn -0.110181 0.839833 0.531545
vn -0.110181 0.839833 0.531545
vn -0.110181 0.839833 0.531545
vn -0.08053 0.850356 0.52001
vn -0.08053 0.850356 0.52001
vn -0.08053 0.850356 0.52001
vn 0.157296 -0.987549 -0.0020159999999999397
vn 0.157296 -0.987549 -0.0020159999999999397
vn 0.157296 -0.987549 -0.0020159999999999397
vn 0.153243 -0.988188 6.050906355779123E-17
vn 0.153243 -0.988188 6.050906355779123E-17
vn 0.153243 -0.988188 6.050906355779123E-17
vn 1 0 0
vn 1 0 0
vn 1 0 0
vn 0.998015 0.062978 -3.856290305835101E-18
vn 0.998015 0.062978 -3.856290305835101E-18
vn 0.998015 0.062978 -3.856290305835101E-18
vn -0.993935 -0.10997 6.7337204251117216E-18
vn -0.993935 -0.10997 6.7337204251117216E-18
vn -0.993935 -0.10997 6.7337204251117216E-18
vn -0.989821 -0.142321 8.714647855072523E-18
vn -0.989821 -0.142321 8.714647855072523E-18
vn -0.989821 -0.142321 8.714647855072523E-18
vn -0.998015 -0.062978 3.856290305835101E-18
vn -0.998015 -0.062978 3.856290305835101E-18
vn -0.998015 -0.062978 3.856290305835101E-18
vn 0.290999 0.831127 0.47386399999999995
vn 0.290999 0.831127 0.47386399999999995
vn 0.290999 0.831127 0.47386399999999995
vn 0.272981 0.823697 0.49699599999999994
vn 0.272981 0.823697 0.49699599999999994
vn 0.272981 0.823697 0.49699599999999994
vn 0.274265 0.820189 0.502064
vn 0.274265 0.820189 0.502064
vn 0.274265 0.820189 0.502064
vn 0.259029 0.82478 0.502635
vn 0.259029 0.82478 0.502635
vn 0.259029 0.82478 0.502635
vn -0.925249 0.379361 7.99999999997677E-06
vn -0.925249 0.379361 7.99999999997677E-06
vn -0.925249 0.379361 7.99999999997677E-06
vn -0.918774 0.394734 0.006276999999999975
vn -0.918774 0.394734 0.006276999999999975
vn -0.918774 0.394734 0.006276999999999975
vn -0.926086 0.377312 1.9999999999768962E-06
vn -0.926086 0.377312 1.9999999999768962E-06
vn -0.926086 0.377312 1.9999999999768962E-06
vn 0.987354 -0.158529 9.707101621101538E-18
vn 0.987354 -0.158529 9.707101621101538E-18
vn 0.987354 -0.158529 9.707101621101538E-18
vn 0.986444 -0.163887 -0.00830999999999999
vn 0.986444 -0.163887 -0.00830999999999999
vn 0.986444 -0.163887 -0.00830999999999999
vn -0.98753 0.157433 -9.639990976508262E-18
vn -0.98753 0.157433 -9.639990976508262E-18
vn -0.98753 0.157433 -9.639990976508262E-18
vn -0.98641 0.164116 0.00784599999999999
vn -0.98641 0.164116 0.00784599999999999
vn -0.98641 0.164116 0.00784599999999999
vn 0.093722 0.615722 0.78237
vn 0.093722 0.615722 0.78237
vn 0.093722 0.615722 0.78237
vn 0.097507 0.577214 0.81075
vn 0.097507 0.577214 0.81075
vn 0.097507 0.577214 0.81075
vn 0.043488 0.3028199999999999 -0.952055
vn 0.043488 0.3028199999999999 -0.952055
vn 0.043488 0.3028199999999999 -0.952055
vn -0.043488 -0.3028199999999999 0.952055
vn -0.043488 -0.3028199999999999 0.952055
vn -0.043488 -0.3028199999999999 0.952055
vn -0.457043 0.889259 0.018203999999999946
vn -0.867888 0.421962 0.262142
vn 0.421963 0.867888 0.26214199999999993
vn 0.889258 0.457043 0.01820499999999997
vn -0.457043 0.889259 0.018203999999999946
vn -0.889258 -0.457043 0.018205000000000027
vn -0.421962 -0.867887 0.26214400000000004
vn -0.867888 0.421962 0.262142
vn -0.457043 0.889259 0.018203999999999946
vn -0.889258 -0.457043 0.018205000000000027
vn -0.889258 -0.457043 0.018205000000000027
vn -0.875666 0.425743 -0.22793000000000002
vn -0.425743 -0.875665 -0.22793399999999994
vn -0.889258 -0.457043 0.018205000000000027
vn 0.417314 -0.908762 5.564562372433735E-17
vn -0.417314 0.908762 -5.564562372433735E-17
vn 0.417314 -0.908762 5.564562372433735E-17
vn 0.417314 -0.908762 5.564562372433735E-17
vn -0.417314 0.908762 -5.564562372433735E-17
vn -0.392873 0.91549 0.08676599999999994
vn -0.044219 0.973164 -0.22582500000000005
vn -0.975522 0.022039999999999987 -0.218794
vn -0.998755 0.022578000000000004 0.044487
vn -0.392873 0.91549 0.08676599999999994
vn -0.952989 0.02171100000000002 0.302226
vn -0.277787 0.906791 0.31711799999999996
vn -0.277787 0.906791 0.31711799999999996
vn 0.646359 0.700729 0.30199099999999995
vn 0.827953 0.559269 0.041379999999999965
vn -0.044219 0.973164 -0.22582500000000005
vn 0.913525 0.344436 -0.21641600000000003
vn 0.646359 0.700729 0.30199099999999995
vn 0.877183 -0.378344 0.295644
vn 0.80413 -0.592612 0.04675200000000004
vn 0.913525 0.344436 -0.21641600000000003
vn 0.631002 -0.744085 -0.21948699999999993
vn 0.877183 -0.378344 0.295644
vn -0.081645 -0.946699 0.31160000000000004
vn -0.431165 -0.902256 0.005492000000000056
vn 0.631002 -0.744085 -0.21948699999999993
vn -0.322571 -0.917577 -0.23237999999999995
vn -0.431165 -0.902256 0.005492000000000056
vn -0.975522 0.022039999999999987 -0.218794
vn -0.322571 -0.917577 -0.23237999999999995
vn -0.952989 0.02171100000000002 0.302226
vn -0.081645 -0.946699 0.31160000000000004
vn -0.392873 0.91549 0.08676599999999994
vn -0.044219 0.973164 -0.22582500000000005
vn -0.975522 0.022039999999999987 -0.218794
vn -0.998755 0.022579000000000002 0.044486
vn -0.392873 0.91549 0.08676599999999994
vn -0.952989 0.02171100000000002 0.302226
vn -0.277788 0.906791 0.31711799999999996
vn -0.277788 0.906791 0.31711799999999996
vn 0.646359 0.700729 0.30199099999999995
vn 0.827953 0.559269 0.041379999999999965
vn -0.044219 0.973164 -0.22582500000000005
vn 0.913525 0.344437 -0.21641600000000003
vn 0.646359 0.700729 0.30199099999999995
vn 0.877183 -0.378344 0.295644
vn 0.804131 -0.592611 0.04675200000000004
vn 0.913525 0.344437 -0.21641600000000003
vn 0.631002 -0.744085 -0.21948699999999993
vn 0.877183 -0.378344 0.295644
vn -0.081645 -0.946699 0.31160000000000004
vn -0.431165 -0.902256 0.005492000000000056
vn 0.631002 -0.744085 -0.21948699999999993
vn -0.322572 -0.917576 -0.23237999999999995
vn -0.431165 -0.902256 0.005492000000000056
vn -0.975522 0.022039999999999987 -0.218794
vn -0.322572 -0.917576 -0.23237999999999995
vn -0.952989 0.02171100000000002 0.302226
vn -0.081645 -0.946699 0.31160000000000004
vn -0.990178 0.139813 -8.561077146459444E-18
vn 0.990178 -0.139813 8.561077146459444E-18
vn -0.990178 0.139813 -8.561077146459444E-18
vn -0.990178 0.139813 -8.561077146459444E-18
vn 0.990178 -0.139813 8.561077146459444E-18
vn -0.412857 0.910621 -0.017836000000000057
vn 0.307397 0.951415 0.01782399999999994
vn -0.97426 0.22037 -0.04747500000000002
vn -0.97426 0.22037 -0.04747500000000002
vn -0.942505 -0.330804 -0.04747599999999998
vn -0.942505 -0.330804 -0.04747599999999998
vn -0.97426 0.22037 -0.04747500000000002
vn -0.306403 -0.951734 -0.01788199999999994
vn -0.306403 -0.951734 -0.01788199999999994
vn 0.413772 -0.910207 0.017776000000000056
vn 0.413772 -0.910207 0.017776000000000056
vn -0.306403 -0.951734 -0.01788199999999994
vn 0.974377 -0.219864 0.04743500000000001
vn 0.974377 -0.219864 0.04743500000000001
vn 0.942697 0.330261 0.04743699999999998
vn 0.702333 0.08069099999999996 -0.707261
vn 0.675285 -0.06490800000000004 -0.734695
vn 0.991128 0.13251 0.010351999999999991
vn 0.994823 0.101006 0.011209999999999993
vn 0.702333 0.08069099999999996 -0.707261
vn 0.867177 0.17193199999999997 -0.467379
vn 0.702333 0.08069099999999996 -0.707261
vn 0.996047 0.088828 -5.439146293733055E-18
vn 0.867177 0.17193199999999997 -0.467379
vn -0.991128 -0.13251 -0.010351999999999991
vn -0.675285 0.06490800000000004 0.734695
vn -0.702333 -0.08069099999999996 0.707261
vn -0.702333 -0.08069099999999996 0.707261
vn -0.994823 -0.101006 -0.011209999999999993
vn -0.867177 -0.17193199999999997 0.467379
vn -0.996047 -0.088828 5.439146293733055E-18
vn -0.702333 -0.08069099999999996 0.707261
vn -0.867177 -0.17193199999999997 0.467379
vn 0 6.123233995736766E-17 1
vn 0 6.123233995736766E-17 1
vn 0 6.123233995736766E-17 1
vn 0 6.123233995736766E-17 1
vn 0 6.123233995736766E-17 1
vn 0 6.123233995736766E-17 1
vn 0 6.123233995736766E-17 1
vn 0 6.123233995736766E-17 1
vn 0 6.123233995736766E-17 1
vn 0 6.123233995736766E-17 1
vn 0 6.123233995736766E-17 1
vn 0 6.123233995736766E-17 1
vn 0 6.123233995736766E-17 1
vn 0 6.123233995736766E-17 1
vn 0 6.123233995736766E-17 1
vn 0 6.123233995736766E-17 1
vn -0.417314 0.908762 -5.564562372433735E-17
vn 0.417314 -0.908762 5.564562372433735E-17
vn -0.417314 0.908762 -5.564562372433735E-17
vn 0.417314 -0.908762 5.564562372433735E-17
vn 0.41069 -0.880726 -0.23591499999999996
vn 0.410689 -0.880726 -0.23591499999999996
vn 0.41069 -0.880726 -0.23591499999999996
vn 0.41069 -0.880726 -0.23591399999999996
vn 0.880147 0.410418 -0.23853200000000002
vn 0.880147 0.410419 -0.23853200000000002
vn 0.880147 0.410418 -0.23853200000000002
vn 0.880147 0.410418 -0.23853300000000002
vn -0.410688 0.880727 -0.23591400000000007
vn -0.410689 0.880727 -0.23591300000000007
vn -0.410688 0.880727 -0.23591400000000007
vn -0.410686 0.880727 -0.23591500000000007
vn -0.880147 -0.410419 -0.23853199999999997
vn -0.880147 -0.410419 -0.23853299999999997
vn -0.880147 -0.410419 -0.23853199999999997
vn -0.880147 -0.41042 -0.23853199999999997
vn 0 6.123233995736766E-17 1
vn 0 6.123233995736766E-17 1
vn 0 6.123233995736766E-17 1
vn 0 6.123233995736766E-17 1
vn -0.155807 0.987788 -6.048457062180828E-17
vn -0.155807 0.987788 -6.048457062180828E-17
vn -0.155807 0.987788 -6.048457062180828E-17
vn -0.155807 0.987788 -6.048457062180828E-17
vn -0.150276 -0.988643 0.0015260000000000605
vn -0.150002 -0.988681 0.0030510000000000606
vn -0.150276 -0.988643 0.0015260000000000605
vn -0.150549 -0.988603 6.053447497887354E-17
vn -0.074596 0.997213 -0.001403000000000061
vn -0.072036 0.997398 -0.002717000000000061
vn -0.074596 0.997213 -0.001403000000000061
vn -0.077155 0.997019 -8.900000000006105E-05
vn 1 0 0
vn 1 0 0
vn 1 0 0
vn 1 0 0
vn -1.6E-05 1 -6.123233995736766E-17
vn -1.6E-05 1 -1.0000000000612324E-06
vn -1.6E-05 1 -6.123233995736766E-17
vn -1.6E-05 1 -6.123233995736766E-17
vn 0 6.123233995736766E-17 1
vn 0 6.123233995736766E-17 1
vn 0 6.123233995736766E-17 1
vn 0 6.123233995736766E-17 1
vn 0.153218 0.983874 -0.09228700000000005
vn 0.155747 0.981839 -0.10832700000000006
vn 0.153218 0.983874 -0.09228700000000005
vn 0.150647 0.985645 -0.07621700000000005
vn -0.986152 -0.165843 1.0154954955549724E-17
vn -0.98615 -0.165857 3.000000000010156E-06
vn -0.986152 -0.165843 1.0154954955549724E-17
vn -0.986152 -0.165843 1.0154954955549724E-17
vn 0.986156 0.165819 -1.0000000000101533E-06
vn 0.986159 0.165805 2.9999999999898475E-06
vn 0.986156 0.165819 -1.0000000000101533E-06
vn 0.986156 0.165819 -1.0000000000101533E-06
vn 0.17621 -0.984353 3.0000000000602745E-06
vn 0.176209 -0.984353 4.000000000060274E-06
vn 0.17621 -0.984353 3.0000000000602745E-06
vn 0.17621 -0.984353 3.0000000000602745E-06
vn -0.226128 0.974098 -5.964629988779193E-17
vn -0.226128 0.974098 -5.964629988779193E-17
vn -0.226128 0.974098 -5.964629988779193E-17
vn -0.226128 0.974098 -5.964629988779193E-17
vn 0.994015 0.109241 -6.689082049282801E-18
vn 0.994015 0.109241 -6.689082049282801E-18
vn 0.994015 0.109241 -6.689082049282801E-18
vn 0.994015 0.109241 -6.689082049282801E-18
vn -0.989782 0.133291 -0.050642000000000006
vn -0.909293 -0.413063 -0.050638999999999976
vn -0.49174 0.870534 -0.019025000000000052
vn 0.221728 0.974923 0.01900099999999994
vn -0.220727 -0.975149 -0.019063999999999942
vn 0.492659 -0.870016 0.018964000000000054
vn -0.909293 -0.413063 -0.050638999999999976
vn -0.989782 0.133291 -0.050642000000000006
vn 0.989861 -0.132718 0.050600000000000006
vn 0.909516 0.412578 0.050596999999999975
vn 0.492659 -0.870016 0.018964000000000054
vn -0.220727 -0.975149 -0.019063999999999942
vn 0.221728 0.974923 0.01900099999999994
vn -0.49174 0.870534 -0.019025000000000052
vn 0.909516 0.412578 0.050596999999999975
vn 0.989861 -0.132718 0.050600000000000006
vn 0 6.123233995736766E-17 1
vn 0 6.123233995736766E-17 1
vn 0 6.123233995736766E-17 1
vn 0 6.123233995736766E-17 1
vn 0.994698 0.102844 -7.00000000000063E-05
vn 0.994688 0.102936 1.79999999999937E-05
vn 0.994688 0.102936 1.79999999999937E-05
vn 0.994688 0.102936 1.79999999999937E-05
vn -0.0419 -0.999122 6.117857796288509E-17
vn 0.0419 0.999122 -6.117857796288509E-17
vn -0.041901 -0.999122 6.117857796288509E-17
vn 0.041901 0.999122 -6.117857796288509E-17
vn 0.0419 0.999122 -6.117857796288509E-17
vn -0.0419 -0.999122 6.117857796288509E-17
vn 0.041901 0.999122 -6.117857796288509E-17
vn -0.041901 -0.999122 6.117857796288509E-17
vn 0.990178 -0.139813 8.561077146459444E-18
vn -0.990178 0.139813 -8.561077146459444E-18
vn 0.990178 -0.139813 8.561077146459444E-18
vn -0.990178 0.139813 -8.561077146459444E-18
vn -0.47358 0.880751 -5.393044464979152E-17
vn -0.473581 0.880751 -5.393044464979152E-17
vn -0.47358 0.880751 -5.393044464979152E-17
vn -0.47358 0.880751 -5.393044464979152E-17
vn -0.984516 0.175297 -1.073384549750668E-17
vn -0.984516 0.175297 -1.073384549750668E-17
vn -0.984516 0.175297 -1.073384549750668E-17
vn -0.984516 0.175297 -1.073384549750668E-17
vn -0.07328 0.997311 -6.10676861952223E-17
vn -0.07328 0.997311 -6.10676861952223E-17
vn -0.07328 0.997311 -6.10676861952223E-17
vn -0.07328 0.997311 -6.10676861952223E-17
vn 0.949193 0.314695 -1.9269511222883817E-17
vn 0.949193 0.314695 -1.9269511222883817E-17
vn 0.949193 0.314695 -1.9269511222883817E-17
vn 0.949193 0.314695 -1.9269511222883817E-17
vn -0.994696 -0.102862 0.00020600000000000628
vn -0.994697 -0.102848 2.30000000000063E-05
vn -0.994697 -0.102848 2.30000000000063E-05
vn -0.994697 -0.102848 2.30000000000063E-05
vn 0.942697 0.330261 0.04743699999999998
vn 0.974377 -0.219864 0.04743500000000001
vn 0.307397 0.951415 0.01782399999999994
vn -0.412857 0.910621 -0.017836000000000057
vn -0.136102 -0.990695 6.066257303406436E-17
vn 0.136102 0.990695 -6.066257303406436E-17
vn -0.136102 -0.990695 6.066257303406436E-17
vn 0.136102 0.990695 -6.066257303406436E-17
vn 0.136102 0.990695 -6.066257303406436E-17
vn -0.136102 -0.990695 6.066257303406436E-17
vn 0.136102 0.990695 -6.066257303406436E-17
vn -0.136102 -0.990695 6.066257303406436E-17
vn -0.949187 -0.314713 1.927061340500305E-17
vn -0.949187 -0.314713 1.927061340500305E-17
vn -0.949187 -0.314713 1.927061340500305E-17
vn -0.949187 -0.314713 1.927061340500305E-17
vn -0.321426 -0.946935 5.798304583752994E-17
vn -0.321426 -0.946935 5.798304583752994E-17
vn -0.321426 -0.946935 5.798304583752994E-17
vn -0.321426 -0.946935 5.798304583752994E-17
vn 0.014588 -0.999871 -0.006755999999999938
vn 1E-06 -1 6.123233995736766E-17
vn 0.014588 -0.999871 -0.006755999999999938
vn 0.029171 -0.999483 -0.013509999999999939
vn -0.999999 -7.04171909509728E-20 -0.00115
vn -0.999999 -7.04171909509728E-20 -0.00115
vn -0.999999 -7.04171909509728E-20 -0.00115
vn -0.999999 -1.0000000000000705E-06 -0.00115
vn -0.994106 -0.108413 6.6383816717981E-18
vn -0.994106 -0.108413 6.6383816717981E-18
vn -0.994106 -0.108413 6.6383816717981E-18
vn -0.994106 -0.108414 6.638442904138057E-18
vn 0.22909 -0.973405 5.960386587620147E-17
vn 0.22909 -0.973405 5.960386587620147E-17
vn 0.22909 -0.973405 5.960386587620147E-17
vn 0.22909 -0.973405 5.960386587620147E-17
vn 0 6.123233995736766E-17 1
vn 0 6.123233995736766E-17 1
vn 0 6.123233995736766E-17 1
vn 0 6.123233995736766E-17 1
vn -0.939336 0.342998 -0.000165000000000021
vn -0.93934 0.342987 -0.00018900000000002102
vn -0.939336 0.342998 -0.000165000000000021
vn -0.939336 0.342998 -0.000165000000000021
vn 0.075554 -0.997142 0.00010200000000006105
vn 0.075586 -0.997139 0.00011900000000006106
vn 0.075554 -0.997142 0.00010200000000006105
vn 0.075554 -0.997142 0.00010200000000006105
vn -0.993987 -0.10947 0.0026550000000000063
vn -0.993987 -0.10947 0.0026550000000000063
vn -0.994028 -0.10908 0.0030500000000000067
vn -0.993987 -0.10947 0.0026550000000000063
vn 0.984633 -0.174639 1.069355461781473E-17
vn 0.984633 -0.174639 1.069355461781473E-17
vn 0.984633 -0.174639 1.069355461781473E-17
vn 0.984632 -0.174639 1.069355461781473E-17
vn 0 6.123233995736766E-17 1
vn 0 6.123233995736766E-17 1
vn 0 6.123233995736766E-17 1
vn 0 6.123233995736766E-17 1
vn 0.317117 0.948386 -0.0007660000000000581
vn 0.317132 0.948381 -0.0007690000000000582
vn 0.317117 0.948386 -0.0007660000000000581
vn 0.317117 0.948386 -0.0007660000000000581
vn 0.987611 -0.156923 9.608762483130006E-18
vn 0.987611 -0.156923 9.608762483130006E-18
vn 0.987611 -0.156923 9.608762483130006E-18
vn 0.987611 -0.156923 9.608762483130006E-18
vn -0.987611 0.156923 -9.608762483130006E-18
vn -0.987611 0.156923 -9.608762483130006E-18
vn -0.987611 0.156923 -9.608762483130006E-18
vn -0.987611 0.156923 -9.608762483130006E-18
vn 0.492654 -0.870225 5.3285913039400273E-17
vn 0.492654 -0.870225 5.3285913039400273E-17
vn 0.492654 -0.870225 5.3285913039400273E-17
vn 0.492654 -0.870225 5.3285913039400273E-17
vn 0.084703 -0.996406 6.101227092756088E-17
vn 0.084703 -0.996406 6.101227092756088E-17
vn 0.084703 -0.996406 6.101227092756088E-17
vn 0.084703 -0.996406 6.101227092756088E-17
vn 0.160337 -0.983579 -0.08285699999999994
vn 0.161442 -0.983874 -0.07699599999999994
vn 0.160337 -0.983579 -0.08285699999999994
vn 0.159227 -0.983248 -0.08871399999999995
vn 0.163357 0.986567 -6.040980593472034E-17
vn 0.163357 0.986567 -6.040980593472034E-17
vn 0.163357 0.986567 -6.040980593472034E-17
vn 0.163357 0.986567 -6.040980593472034E-17
vn 0.116198 0.16993200000000006 0.978581
vn 0.228662 0.33440500000000006 0.914268
vn 0.077121 0.11278500000000005 0.990622
vn -0.106701 -0.15604399999999993 0.98197
vn -0.215025 -0.31446499999999994 0.924595
vn -0.312439 -0.45692799999999995 0.832826
vn -0.312438 -0.45692799999999995 0.832826
vn 0.034839 -0.35300499999999996 0.934973
vn 0.015001 -0.15199699999999994 0.988267
vn 0.041319 -0.41866699999999996 0.907199
vn 0.068945 -0.698583 0.7122
vn 0.082392 -0.834919 0.544171
vn 0.091826 -0.930539 0.35449200000000003
vn 0.091814 -0.930542 0.35448700000000005
vn -0.143941 -0.14717299999999994 0.978581
vn -0.283257 -0.28961799999999993 0.914269
vn -0.095534 -0.09767899999999995 0.990622
vn 0.132176 0.13514600000000004 0.98197
vn 0.266367 0.27234800000000003 0.924595
vn 0.38704 0.39573100000000005 0.832825
vn 0.387043 0.3957300000000001 0.832824
vn -0.309145 0.17393900000000007 0.934973
vn -0.133112 0.07489500000000006 0.988267
vn -0.366649 0.20629300000000006 0.9072
vn -0.611788 0.3442180000000001 0.712201
vn -0.731185 0.41139000000000003 0.544175
vn -0.814927 0.458504 0.3544979999999999
vn -0.814929 0.458497 0.35450099999999996
vn 0.205848 0.0022860000000000597 0.978581
vn 0.405084 0.004499000000000057 0.914268
vn 0.136622 0.0015180000000000608 0.990622
vn -0.189025 -0.00209899999999994 0.98197
vn -0.380928 -0.004230999999999944 0.924595
vn -0.553502 -0.006147999999999949 0.832825
vn -0.553501 -0.006147999999999949 0.832826
vn -0.035747 -0.20273499999999994 0.978581
vn -0.070346 -0.39895699999999995 0.914267
vn -0.023726 -0.13455599999999995 0.990622
vn 0.032825 0.18616600000000005 0.98197
vn 0.049674 0.28172400000000003 0.958209
vn 0.096118 0.545129 0.832824
vn 0.205079 -0.01794099999999994 0.978581
vn 0.40357 -0.03530599999999994 0.914268
vn 0.136112 -0.01190799999999994 0.990622
vn -0.188318 0.01647600000000006 0.98197
vn -0.284981 0.02493300000000006 0.958209
vn -0.551431 0.04824400000000005 0.832824
vn 0.07041 0.19344700000000006 0.978581
vn 0.138557 0.38067900000000005 0.914268
vn 0.046731 0.12839100000000006 0.990622
vn -0.064654 -0.17763699999999993 0.98197
vn -0.097841 -0.2688169999999999 0.958209
vn -0.18932 -0.520155 0.832825
vn -0.186574 -0.08700099999999994 0.978581
vn -0.367155 -0.17120699999999994 0.914268
vn -0.12383 -0.05774299999999994 0.990622
vn 0.171326 0.07989100000000006 0.98197
vn 0.259267 0.12089800000000006 0.958209
vn 0.501676 0.23393500000000006 0.832824
vn -0.157699 0.13232600000000005 0.978581
vn -0.310332 0.2604000000000001 0.914268
vn -0.104665 0.08782500000000006 0.990622
vn 0.144811 -0.12151099999999994 0.98197
vn 0.219142 -0.18388199999999993 0.958209
vn 0.424035 -0.35580799999999996 0.832824
vn 0 6.123233995736766E-17 1
vn 0 6.123233995736766E-17 1
vn 0 6.123233995736766E-17 1
vn 0 6.123233995736766E-17 1
vn 0 6.123233995736766E-17 1
vn 0 6.123233995736766E-17 1
vn 0 6.123233995736766E-17 1
vn 0 6.123233995736766E-17 1
vn 0 6.123233995736766E-17 1
vn 0 6.123233995736766E-17 1
vn -0.994607 -0.103714 6.35065090633843E-18
vn -0.994607 -0.103714 6.35065090633843E-18
vn -0.997539 -0.070109 4.2929381220710894E-18
vn -0.999338 -0.036386 2.22799992168878E-18
vn -0.999517 0.031068 -1.9023663377954982E-18
vn -0.997898 0.064801 -3.967916861577382E-18
vn -0.995145 0.09842 -6.0264868986041245E-18
vn -0.995145 0.09842 -6.0264868986041245E-18
vn 0.993906 0.110232 -6.749763298180552E-18
vn 0.993906 0.110232 -6.749763298180552E-18
vn 0.997415 0.071853 -4.3997273229567384E-18
vn 0.999441 0.033427 0.000615999999999998
vn 0.998513 -0.049481 -0.022863999999999995
vn 0.998452 -0.0556 0.0018470000000000034
vn 0.994496 -0.093831 -0.04661499999999999
vn 0.992162 -0.081251 -0.094932
vn 0 6.123233995736766E-17 1
vn 0 6.123233995736766E-17 1
vn 0 6.123233995736766E-17 1
vn 0 6.123233995736766E-17 1
vn 0 6.123233995736766E-17 1
vn 0 6.123233995736766E-17 1
vn 0 6.123233995736766E-17 1
vn 0 6.123233995736766E-17 1
vn 0 6.123233995736766E-17 1
vn 0 6.123233995736766E-17 1
vn 0 6.123233995736766E-17 1
vn 0 6.123233995736766E-17 1
vn 0 6.123233995736766E-17 1
vn 0 6.123233995736766E-17 1
vn 0 6.123233995736766E-17 1
vn 0 6.123233995736766E-17 1
vn 0 6.123233995736766E-17 1
vn 0 6.123233995736766E-17 1
vn 0.149952 0.988693 -0.0009730000000000605
vn 0.148559 0.988902 -0.0019460000000000605
vn 0.150162 0.98866 0.0018339999999999394
vn 0.150962 0.988533 0.003723999999999939
vn 0.150578 0.98857 0.007448999999999939
vn -0.992932 0.056699000000000006 0.104264
vn -0.998061 -0.018309999999999996 0.059495
vn -0.99915 -0.011256999999999998 0.039649
vn -0.999886 -0.012398 -0.008599
vn -0.999996 0.00283 -1.732875220793505E-19
vn 0 6.123233995736766E-17 1
vn 0 6.123233995736766E-17 1
vn 0 6.123233995736766E-17 1
vn 0 6.123233995736766E-17 1
vn 0 6.123233995736766E-17 1
vn 0.15574 -0.987798 6.048518294520785E-17
vn 0.15574 -0.987798 6.048518294520785E-17
vn 0.15574 -0.987798 6.048518294520785E-17
vn 0.15574 -0.987798 6.048518294520785E-17
vn 0.15574 -0.987798 6.048518294520785E-17
vn 3E-06 6.123233995736766E-17 1
vn -1E-06 6.123233995736766E-17 1
vn -1E-06 6.123233995736766E-17 1
vn -1E-06 6.123233995736766E-17 1
vn -1E-06 6.123233995736766E-17 1
vn 0.000283 -0.00046399999999993875 1
vn 0.000291 -0.00046399999999993875 1
vn 0.00065 -0.00023799999999993878 1
vn 0.00065 -0.00023799999999993878 1
vn 0.00065 -0.00023799999999993878 1
vn 0.347864 0.937545 -5.740807416533026E-17
vn 0.347864 0.937545 -5.740807416533026E-17
vn 0.289654 0.950757 -0.11027900000000006
vn 0.258382 0.951749 -0.16556600000000005
vn 0.160368 0.93229 -0.32421700000000003
vn 0.939115 -0.342846 0.02280800000000002
vn 0.937375 -0.34814 0.01127400000000002
vn 0.936753 -0.349912 0.007506000000000021
vn 0.93547 -0.353407 -0.00014599999999997837
vn 0.935459 -0.353436 -2.8999999999978357E-05
vn -0 6.123233995736766E-17 1
vn -0 6.123233995736766E-17 1
vn -0 6.123233995736766E-17 1
vn -0 6.123233995736766E-17 1
vn 0 -9.999999999387675E-07 1
vn 0 -9.999999999387675E-07 1
vn -1E-06 1.0000000000612324E-06 1
vn -1E-06 1.0000000000612324E-06 1
vn -1E-06 1.0000000000612324E-06 1
vn -1E-06 6.123233995736766E-17 1
vn 0 6.123233995736766E-17 1
vn 0 6.123233995736766E-17 1
vn -0 6.123233995736766E-17 1
vn -0 6.123233995736766E-17 1
vn -0 6.123233995736766E-17 1
vn -0 6.123233995736766E-17 1
vn -0 6.123233995736766E-17 1
vn -0 6.123233995736766E-17 1
vn 6.6E-05 0.00044500000000006123 1
vn -0.00037 0.0006480000000000613 1
vn -3.9E-05 0.0004970000000000613 1
vn 7.7E-05 0.00042600000000006126 1
vn -3.1E-05 0.0004670000000000613 1
vn -0.000337 0.0005910000000000613 1
vn 0.819846 0.572584 -3.5060658142149406E-17
vn -0.132583 0.991172 -6.069178086022402E-17
vn 0.326895 0.945061 -5.786829643244984E-17
vn 0.938936 0.344092 -2.1069558320610553E-17
vn 0.890816 -0.454364 2.78217709123894E-17
vn 0.890816 -0.454364 2.78217709123894E-17
vn -0.084288 -0.996442 6.101447529179935E-17
vn -0.084288 -0.996442 6.101447529179935E-17
vn -0.800244 -0.599675 3.671950346393445E-17
vn -0.925917 -0.377727 2.3129108075076614E-17
vn -0.974005 0.226526 -1.3870717041182668E-17
vn -0.779729 0.626117 -3.833860899708717E-17
vn -0.132583 0.991172 -6.069178086022402E-17
vn 0.326895 0.945061 -5.786829643244984E-17
vn -0.994656 0.069038 -0.076765
vn -0.993424 0.109197 -0.03441700000000001
vn -0.99268 0.101038 -0.066157
vn -0.993343 0.031681999999999995 -0.110751
vn -0.990378 -0.05523600000000001 -0.126888
vn -0.988812 -0.056745000000000004 -0.13795
vn -0.98439 -0.11135600000000001 -0.136298
vn -0.984699 -0.11205700000000002 -0.133456
vn -0.431165 -0.902256 0.005492000000000056
vn -0.322572 -0.917576 -0.23237999999999995
vn 0.631002 -0.744085 -0.21948699999999993
vn 0.80413 -0.592611 0.04675200000000004
vn -0.081645 -0.946699 0.31160000000000004
vn 0.877183 -0.378344 0.295644
vn 0.631002 -0.744085 -0.21948699999999993
vn 0.913525 0.344437 -0.21641600000000003
vn 0.827953 0.55927 0.041379999999999965
vn 0.877183 -0.378344 0.295644
vn 0.646358 0.70073 0.30199099999999995
vn 0.913525 0.344437 -0.21641600000000003
vn -0.04422 0.973164 -0.22582500000000005
vn -0.392873 0.91549 0.08676599999999994
vn 0.646358 0.70073 0.30199099999999995
vn -0.277787 0.906791 0.31711799999999996
vn -0.04422 0.973164 -0.22582500000000005
vn -0.975522 0.022039999999999987 -0.218794
vn -0.998755 0.022579000000000002 0.044486
vn -0.952989 0.021712000000000016 0.302225
vn -0.277787 0.906791 0.31711799999999996
vn -0.431165 -0.902256 0.005492000000000056
vn -0.975522 0.022039999999999987 -0.218794
vn -0.322572 -0.917576 -0.23237999999999995
vn -0.952989 0.021712000000000016 0.302225
vn -0.081645 -0.946699 0.31160000000000004
vn 0.987732 0.07101799999999998 -0.139078
vn 0.984253 0.10571599999999999 -0.141669
vn 0.9847 0.10508399999999998 -0.139006
vn 0.989742 0.036614999999999995 -0.138095
vn 0.989088 -0.048669000000000004 -0.139052
vn 0.989291 -0.04834900000000001 -0.137716
vn 0.985245 -0.09984400000000002 -0.139006
vn 0.984801 -0.10047800000000001 -0.14167
vn 0.995242 -0.097437 5.966295508426032E-18
vn 0.998874 -0.047448 2.9053520662971804E-18
vn 0.999822 -0.016083 0.009875000000000002
vn 0.993405 -0.108399 -0.03736099999999999
vn 0.991919 -0.113825 -0.05604499999999999
vn 0.985209 -0.129812 -0.11185599999999998
vn 0.457043 -0.889258 0.018204000000000057
vn 0.867887 -0.421962 0.262144
vn -0.421962 -0.867887 0.26214400000000004
vn -0.889258 -0.457043 0.018205000000000027
vn -0.425743 -0.875665 -0.22793399999999994
vn 0.875665 -0.425744 -0.22793299999999997
vn 0.889258 0.457043 0.01820499999999997
vn 0.421963 0.867888 0.26214199999999993
vn 0.867887 -0.421962 0.262144
vn 0.457043 -0.889258 0.018204000000000057
vn 0.875665 -0.425744 -0.22793299999999997
vn 0.425744 0.875665 -0.22793300000000005
vn 0 6.123233995736766E-17 1
vn 0 6.123233995736766E-17 1
vn 0 6.123233995736766E-17 1
vn 0 6.123233995736766E-17 1
vn 0.000633 -0.00012799999999993876 1
vn 0.000633 -0.00012799999999993876 1
vn 0.000101 1.1000000000061232E-05 1
vn 0.000101 1.1000000000061232E-05 1
vn -7.7E-05 0.00018000000000006124 1
vn 0 6.123233995736766E-17 1
vn 0.997684 0.067775 0.005823999999999996
vn 0.998089 0.056075 -0.025954000000000005
vn 0.998089 0.056075 -0.025955000000000002
vn 0.999822 -0.016083 0.009875000000000002
vn 0.998233 0.053855 0.025095999999999997
vn 0.998874 -0.047448 2.9053520662971804E-18
vn 0.994709 0.102732 -6.2905207485002946E-18
vn 0.379151 -0.16088699999999995 0.911241
vn 0.055212 -0.09400499999999995 0.99404
vn 0.057435 -0.27654199999999995 0.959284
vn -0.134547 -0.20435399999999995 0.969606
vn -0.177312 -0.48824499999999993 0.854504
vn -0.178358 0.035435000000000064 0.983327
vn -0.381864 -0.15433499999999994 0.911241
vn -0.105512 0.027431000000000063 0.99404
vn -0.236157 0.15493200000000004 0.959284
vn -0.049361 0.23964000000000005 0.969606
vn -0.219863 0.47061900000000007 0.854505
vn 0.151175 0.10106200000000005 0.983327
vn -0.014423 0.41162200000000004 0.911241
vn 0.061864 0.08976700000000006 0.99404
vn 0.226358 0.16892500000000005 0.959284
vn 0.24207 -0.035577999999999936 0.969606
vn 0.517435 0.04564200000000006 0.854504
vn 0.043262 -0.17662299999999995 0.983327
vn -0.996194 0.074925 0.04453699999999999
vn -0.995008 0.099764 -0.002647000000000006
vn -0.995019 0.099674 -0.001325000000000006
vn -0.991874 0.099717 0.079011
vn -0.992932 0.056699000000000006 0.104264
vn -0.998729 0.037561 0.03362
vn -0.99881 -0.004216999999999998 0.048586
vn 0.867177 0.17193199999999997 -0.467379
vn 0.170244 0.10483199999999994 -0.97981
vn 0.702333 0.08069099999999996 -0.707261
vn 0.191976 -0.06442400000000005 -0.979283
vn 0.675285 -0.06490800000000004 -0.734695
vn 0.316812 0.03705599999999994 -0.947764
vn 0.388827 -0.08668400000000005 -0.917224
vn 0.350513 0.17443699999999995 -0.92017
vn -0.675285 0.06490800000000004 0.734695
vn -0.191976 0.06442400000000005 0.979283
vn -0.702333 -0.08069099999999996 0.707261
vn -0.170244 -0.10483199999999994 0.97981
vn -0.867177 -0.17193199999999997 0.467379
vn -0.316812 -0.03705599999999994 0.947764
vn -0.350513 -0.17443699999999995 0.92017
vn -0.388827 0.08668400000000005 0.917224
g 01
f 1/1/1 2/2/2 3/3/3
f 4/4/4 5/5/5 6/6/6
f 7/7/7 8/8/8 9/9/9
f 10/10/10 11/11/11 12/12/12
f 13/13/13 14/14/14 15/15/15
f 16/16/16 17/17/17 18/18/18
f 19/19/19 20/20/20 21/21/21
f 22/22/22 23/23/23 24/24/24
f 25/25/25 26/26/26 27/27/27
f 28/28/28 29/29/29 30/30/30
f 31/31/31 32/32/32 33/33/33
f 34/34/34 35/35/35 36/36/36
f 37/37/37 38/38/38 39/39/39
f 40/40/40 41/41/41 42/42/42
f 43/43/43 44/44/44 45/45/45
f 46/46/46 47/47/47 48/48/48
f 49/49/49 50/50/50 51/51/51
f 52/52/52 53/53/53 54/54/54
f 55/55/55 56/56/56 57/57/57
f 58/58/58 59/59/59 60/60/60
f 61/61/61 62/62/62 63/63/63
f 64/64/64 65/65/65 66/66/66
f 67/67/67 68/68/68 69/69/69
f 70/70/70 71/71/71 72/72/72
f 73/73/73 74/74/74 75/75/75
f 76/76/76 77/77/77 78/78/78
f 79/79/79 80/80/80 81/81/81
f 82/82/82 83/83/83 84/84/84
f 85/85/85 86/86/86 87/87/87
f 88/88/88 89/89/89 90/90/90
f 91/91/91 92/92/92 93/93/93
f 94/94/94 95/95/95 96/96/96
f 97/97/97 98/98/98 99/99/99
f 100/100/100 101/101/101 102/102/102
f 103/103/103 104/104/104 105/105/105
f 106/106/106 107/107/107 108/108/108
f 109/109/109 110/110/110 111/111/111
f 112/112/112 113/113/113 114/114/114
f 115/115/115 116/116/116 117/117/117
f 118/118/118 119/119/119 120/120/120
f 121/121/121 122/122/122 123/123/123
f 124/124/124 125/125/125 126/126/126
f 127/127/127 128/128/128 129/129/129
f 130/130/130 131/131/131 132/132/132
f 133/133/133 134/134/134 135/135/135
f 136/136/136 137/137/137 138/138/138
f 139/139/139 140/140/140 141/141/141
f 142/142/142 143/143/143 144/144/144
f 145/145/145 146/146/146 147/147/147
f 148/148/148 149/149/149 150/150/150
f 151/151/151 152/152/152 153/153/153
f 154/154/154 155/155/155 156/156/156
f 156/156/156 157/157/157 158/158/158
f 159/159/159 160/160/160 161/161/161
f 161/161/161 162/162/162 163/163/163
f 164/164/164 162/162/162 165/165/165
f 165/165/165 166/166/166 167/167/167
f 168/168/168 169/169/169 170/170/170
f 171/171/171 172/172/172 168/168/168
f 173/173/173 174/174/174 175/175/175
f 175/175/175 176/176/176 177/177/177
f 178/178/178 179/179/179 177/177/177
f 177/177/177 176/176/176 178/178/178
f 177/177/177 180/180/180 181/181/181
f 181/181/181 182/182/182 177/177/177
f 183/183/183 177/177/177 182/182/182
f 182/182/182 184/184/184 183/183/183
f 182/182/182 185/185/185 186/186/186
f 186/186/186 187/187/187 182/182/182
f 188/188/188 182/182/182 187/187/187
f 187/187/187 189/189/189 188/188/188
f 187/187/187 190/190/190 191/191/191
f 191/191/191 192/192/192 187/187/187
f 193/193/193 187/187/187 192/192/192
f 192/192/192 194/194/194 193/193/193
f 195/195/195 176/176/176 196/196/196
f 196/196/196 197/197/197 195/195/195
f 198/198/198 176/176/176 195/195/195
f 195/195/195 199/199/199 198/198/198
f 200/200/200 201/201/201 202/202/202
f 202/202/202 203/203/203 204/204/204
f 205/205/205 206/206/206 204/204/204
f 204/204/204 203/203/203 205/205/205
f 204/204/204 207/207/207 208/208/208
f 208/208/208 209/209/209 204/204/204
f 210/210/210 204/204/204 209/209/209
f 209/209/209 211/211/211 210/210/210
f 209/209/209 212/212/212 213/213/213
f 213/213/213 214/214/214 209/209/209
f 215/215/215 209/209/209 214/214/214
f 214/214/214 216/216/216 215/215/215
f 214/214/214 217/217/217 218/218/218
f 218/218/218 219/219/219 214/214/214
f 220/220/220 214/214/214 219/219/219
f 219/219/219 221/221/221 220/220/220
f 222/222/222 203/203/203 223/223/223
f 223/223/223 224/224/224 222/222/222
f 225/225/225 203/203/203 222/222/222
f 222/222/222 226/226/226 225/225/225
f 227/227/227 228/228/228 229/229/229
f 230/230/230 231/231/231 227/227/227
f 232/232/232 233/233/233 234/234/234
f 235/235/235 236/236/236 232/232/232
f 237/237/237 238/238/238 239/239/239
f 240/240/240 241/241/241 237/237/237
f 242/242/242 243/243/243 244/244/244
f 245/245/245 246/246/246 242/242/242
f 247/247/247 248/248/248 249/249/249
f 249/249/249 250/250/250 251/251/251
f 252/252/252 253/253/253 250/250/250
f 250/250/250 254/254/254 255/255/255
f 256/256/256 257/257/257 258/258/258
f 259/259/259 260/260/260 256/256/256
f 261/261/261 262/262/262 260/260/260
f 260/260/260 263/263/263 264/264/264
f 265/265/265 266/266/266 267/267/267
f 268/268/268 269/269/269 266/266/266
f 266/266/266 270/270/270 268/268/268
f 271/271/271 272/272/272 273/273/273
f 272/272/272 274/274/274 275/275/275
f 275/275/275 276/276/276 272/272/272
f 277/277/277 278/278/278 279/279/279
f 279/279/279 280/280/280 277/277/277
f 281/281/281 282/282/282 283/283/283
f 283/283/283 284/284/284 281/281/281
f 285/285/285 286/286/286 287/287/287
f 287/287/287 288/288/288 285/285/285
f 289/289/289 290/290/290 291/291/291
f 291/291/291 292/292/292 289/289/289
f 293/293/293 294/294/294 295/295/295
f 295/295/295 296/296/296 293/293/293
f 297/297/297 298/298/298 299/299/299
f 299/299/299 300/300/300 297/297/297
f 301/301/301 302/302/302 303/303/303
f 303/303/303 304/304/304 301/301/301
f 305/305/305 306/306/306 307/307/307
f 307/307/307 308/308/308 305/305/305
f 309/309/309 310/310/310 311/311/311
f 311/311/311 312/312/312 309/309/309
f 313/313/313 314/314/314 315/315/315
f 315/315/315 316/316/316 313/313/313
f 317/317/317 318/318/318 319/319/319
f 319/319/319 320/320/320 317/317/317
f 321/321/321 322/322/322 323/323/323
f 323/323/323 324/324/324 321/321/321
f 325/325/325 326/326/326 327/327/327
f 327/327/327 328/328/328 325/325/325
f 329/329/329 330/330/330 331/331/331
f 331/331/331 332/332/332 329/329/329
f 333/333/333 334/334/334 335/335/335
f 335/335/335 336/336/336 333/333/333
f 337/337/337 338/338/338 339/339/339
f 339/339/339 340/340/340 337/337/337
f 341/341/341 342/342/342 343/343/343
f 343/343/343 344/344/344 341/341/341
f 345/345/345 346/346/346 347/347/347
f 347/347/347 348/348/348 345/345/345
f 349/349/349 350/350/350 351/351/351
f 351/351/351 352/352/352 349/349/349
f 353/353/353 354/354/354 355/355/355
f 355/355/355 356/356/356 353/353/353
f 357/357/357 358/358/358 359/359/359
f 359/359/359 360/360/360 357/357/357
f 361/361/361 362/362/362 363/363/363
f 363/363/363 364/364/364 361/361/361
f 365/365/365 366/366/366 367/367/367
f 367/367/367 368/368/368 365/365/365
f 369/369/369 370/370/370 371/371/371
f 371/371/371 372/372/372 369/369/369
f 373/373/373 374/374/374 375/375/375
f 374/374/374 376/376/376 375/375/375
f 377/377/377 378/378/378 379/379/379
f 379/379/379 380/380/380 377/377/377
f 381/381/381 382/382/382 383/383/383
f 383/383/383 384/384/384 381/381/381
f 385/385/385 386/386/386 387/387/387
f 387/387/387 388/388/388 385/385/385
f 389/389/389 390/390/390 391/391/391
f 391/391/391 392/392/392 389/389/389
f 393/393/393 394/394/394 395/395/395
f 395/395/395 396/396/396 393/393/393
f 397/397/397 398/398/398 399/399/399
f 398/398/398 400/400/400 399/399/399
f 401/401/401 402/402/402 403/403/403
f 403/403/403 404/404/404 401/401/401
f 405/405/405 406/406/406 407/407/407
f 406/406/406 408/408/408 407/407/407
f 409/409/409 410/410/410 411/411/411
f 411/411/411 412/412/412 409/409/409
f 413/413/413 414/414/414 415/415/415
f 415/415/415 416/416/416 413/413/413
f 417/417/417 418/418/418 419/419/419
f 419/419/419 420/420/420 417/417/417
f 421/421/421 422/422/422 423/423/423
f 423/423/423 424/424/424 421/421/421
f 425/425/425 426/426/426 427/427/427
f 427/427/427 428/428/428 425/425/425
f 429/429/429 430/430/430 431/431/431
f 431/431/431 432/432/432 429/429/429
f 433/433/433 434/434/434 435/435/435
f 435/435/435 436/436/436 433/433/433
f 437/437/437 438/438/438 439/439/439
f 439/439/439 440/440/440 437/437/437
f 441/441/441 442/442/442 443/443/443
f 442/442/442 444/444/444 443/443/443
f 445/445/445 446/446/446 447/447/447
f 447/447/447 448/448/448 445/445/445
f 449/449/449 450/450/450 451/451/451
f 451/451/451 452/452/452 449/449/449
f 453/453/453 454/454/454 455/455/455
f 455/455/455 456/456/456 453/453/453
f 457/457/457 458/458/458 459/459/459
f 457/457/457 460/460/460 458/458/458
f 461/461/461 462/462/462 463/463/463
f 463/463/463 464/464/464 461/461/461
f 465/465/465 466/466/466 467/467/467
f 467/467/467 468/468/468 465/465/465
f 469/469/469 470/470/470 471/471/471
f 471/471/471 472/472/472 469/469/469
f 473/473/473 474/474/474 475/475/475
f 475/475/475 476/476/476 473/473/473
f 477/477/477 478/478/478 479/479/479
f 479/479/479 480/480/480 477/477/477
f 481/481/481 482/482/482 483/483/483
f 483/483/483 484/484/484 481/481/481
f 485/485/485 486/486/486 487/487/487
f 487/487/487 488/488/488 485/485/485
f 489/489/489 490/490/490 491/491/491
f 491/491/491 492/492/492 489/489/489
f 493/493/493 494/494/494 495/495/495
f 495/495/495 496/496/496 493/493/493
f 497/497/497 498/498/498 499/499/499
f 500/500/500 497/497/497 499/499/499
f 499/499/499 501/501/501 500/500/500
f 502/502/502 500/500/500 501/501/501
f 501/501/501 503/503/503 502/502/502
f 504/504/504 505/505/505 506/506/506
f 507/507/507 504/504/504 506/506/506
f 506/506/506 508/508/508 507/507/507
f 509/509/509 507/507/507 508/508/508
f 508/508/508 510/510/510 509/509/509
f 511/511/511 512/512/512 513/513/513
f 514/514/514 511/511/511 513/513/513
f 513/513/513 515/515/515 514/514/514
f 516/516/516 514/514/514 515/515/515
f 515/515/515 517/517/517 516/516/516
f 518/518/518 519/519/519 520/520/520
f 521/521/521 518/518/518 520/520/520
f 520/520/520 522/522/522 521/521/521
f 523/523/523 521/521/521 522/522/522
f 522/522/522 524/524/524 523/523/523
f 525/525/525 526/526/526 527/527/527
f 528/528/528 525/525/525 527/527/527
f 527/527/527 529/529/529 528/528/528
f 530/530/530 528/528/528 529/529/529
f 529/529/529 531/531/531 530/530/530
f 532/532/532 533/533/533 534/534/534
f 535/535/535 532/532/532 534/534/534
f 534/534/534 536/536/536 535/535/535
f 535/535/535 536/536/536 537/537/537
f 538/538/538 539/539/539 540/540/540
f 541/541/541 538/538/538 540/540/540
f 540/540/540 542/542/542 541/541/541
f 541/541/541 542/542/542 543/543/543
f 544/544/544 545/545/545 546/546/546
f 547/547/547 544/544/544 546/546/546
f 546/546/546 548/548/548 547/547/547
f 547/547/547 548/548/548 549/549/549
f 550/550/550 551/551/551 552/552/552
f 553/553/553 550/550/550 552/552/552
f 552/552/552 554/554/554 553/553/553
f 553/553/553 554/554/554 555/555/555
f 556/556/556 557/557/557 558/558/558
f 559/559/559 556/556/556 558/558/558
f 558/558/558 560/560/560 559/559/559
f 559/559/559 560/560/560 561/561/561
f 562/562/562 563/563/563 564/564/564
f 563/563/563 565/565/565 564/564/564
f 565/565/565 566/566/566 564/564/564
f 567/567/567 568/568/568 569/569/569
f 568/568/568 570/570/570 569/569/569
f 570/570/570 571/571/571 569/569/569
f 572/572/572 573/573/573 574/574/574
f 574/574/574 575/575/575 572/572/572
f 575/575/575 574/574/574 576/576/576
f 576/576/576 577/577/577 575/575/575
f 577/577/577 576/576/576 578/578/578
f 578/578/578 579/579/579 577/577/577
f 580/580/580 581/581/581 582/582/582
f 582/582/582 583/583/583 580/580/580
f 583/583/583 582/582/582 584/584/584
f 584/584/584 585/585/585 583/583/583
f 586/586/586 585/585/585 584/584/584
f 584/584/584 587/587/587 586/586/586
f 588/588/588 589/589/589 590/590/590
f 590/590/590 591/591/591 588/588/588
f 591/591/591 590/590/590 592/592/592
f 592/592/592 593/593/593 591/591/591
f 593/593/593 592/592/592 594/594/594
f 594/594/594 595/595/595 593/593/593
f 595/595/595 594/594/594 596/596/596
f 596/596/596 597/597/597 595/595/595
f 597/597/597 596/596/596 598/598/598
f 598/598/598 599/599/599 597/597/597
f 599/599/599 598/598/598 600/600/600
f 600/600/600 601/601/601 599/599/599
f 602/602/602 601/601/601 600/600/600
f 600/600/600 603/603/603 602/602/602
f 602/602/602 603/603/603 604/604/604
f 604/604/604 605/605/605 602/602/602
f 606/606/606 607/607/607 608/608/608
f 608/608/608 609/609/609 606/606/606
f 609/609/609 608/608/608 610/610/610
f 611/611/611 612/612/612 613/613/613
f 612/612/612 614/614/614 613/613/613
f 614/614/614 615/615/615 613/613/613
f 616/616/616 617/617/617 618/618/618
f 617/617/617 619/619/619 618/618/618
f 619/619/619 620/620/620 618/618/618
f 621/621/621 622/622/622 623/623/623
f 621/621/621 623/623/623 624/624/624
f 623/623/623 625/625/625 624/624/624
f 626/626/626 627/627/627 628/628/628
f 627/627/627 629/629/629 628/628/628
f 629/629/629 630/630/630 628/628/628
f 631/631/631 632/632/632 633/633/633
f 632/632/632 634/634/634 633/633/633
f 634/634/634 635/635/635 633/633/633
f 636/636/636 637/637/637 638/638/638
f 637/637/637 639/639/639 638/638/638
f 639/639/639 640/640/640 638/638/638
f 641/641/641 642/642/642 643/643/643
f 642/642/642 644/644/644 643/643/643
f 644/644/644 645/645/645 643/643/643
f 646/646/646 647/647/647 648/648/648
f 648/648/648 649/649/649 646/646/646
f 649/649/649 648/648/648 650/650/650
f 650/650/650 651/651/651 649/649/649
f 652/652/652 651/651/651 650/650/650
f 650/650/650 653/653/653 652/652/652
f 652/652/652 653/653/653 654/654/654
f 654/654/654 655/655/655 652/652/652
f 656/656/656 657/657/657 658/658/658
f 658/658/658 659/659/659 656/656/656
f 659/659/659 658/658/658 660/660/660
f 660/660/660 661/661/661 659/659/659
f 661/661/661 660/660/660 662/662/662
f 662/662/662 663/663/663 661/661/661
f 664/664/664 665/665/665 666/666/666
f 666/666/666 667/667/667 664/664/664
f 668/668/668 664/664/664 667/667/667
f 667/667/667 669/669/669 668/668/668
f 670/670/670 671/671/671 672/672/672
f 672/672/672 673/673/673 670/670/670
f 674/674/674 670/670/670 673/673/673
f 673/673/673 675/675/675 674/674/674
f 674/674/674 675/675/675 676/676/676
f 676/676/676 677/677/677 674/674/674
f 678/678/678 677/677/677 676/676/676
f 676/676/676 679/679/679 678/678/678
f 680/680/680 678/678/678 679/679/679
f 679/679/679 681/681/681 680/680/680
f 682/682/682 680/680/680 681/681/681
f 681/681/681 683/683/683 682/682/682
f 684/684/684 685/685/685 686/686/686
f 686/686/686 687/687/687 684/684/684
f 688/688/688 684/684/684 687/687/687
f 687/687/687 689/689/689 688/688/688
f 688/688/688 689/689/689 690/690/690
f 690/690/690 691/691/691 688/688/688
f 692/692/692 693/693/693 694/694/694
f 694/694/694 695/695/695 692/692/692
f 696/696/696 692/692/692 695/695/695
f 695/695/695 697/697/697 696/696/696
f 695/695/695 698/698/698 699/699/699
f 699/699/699 700/700/700 695/695/695
f 701/701/701 695/695/695 700/700/700
f 700/700/700 702/702/702 701/701/701
f 700/700/700 703/703/703 704/704/704
f 704/704/704 705/705/705 700/700/700
f 706/706/706 700/700/700 705/705/705
f 705/705/705 707/707/707 706/706/706
f 705/705/705 708/708/708 709/709/709
f 709/709/709 710/710/710 705/705/705
f 711/711/711 712/712/712 705/705/705
f 705/705/705 710/710/710 711/711/711
f 713/713/713 710/710/710 714/714/714
f 714/714/714 715/715/715 713/713/713
f 716/716/716 710/710/710 713/713/713
f 713/713/713 717/717/717 716/716/716
f 718/718/718 719/719/719 720/720/720
f 720/720/720 721/721/721 718/718/718
f 722/722/722 718/718/718 721/721/721
f 721/721/721 723/723/723 722/722/722
f 722/722/722 723/723/723 724/724/724
f 724/724/724 725/725/725 722/722/722
f 726/726/726 727/727/727 728/728/728
f 726/726/726 728/728/728 729/729/729
f 726/726/726 729/729/729 730/730/730
f 729/729/729 731/731/731 730/730/730
f 732/732/732 733/733/733 734/734/734
f 734/734/734 735/735/735 732/732/732
f 732/732/732 735/735/735 736/736/736
f 736/736/736 737/737/737 732/732/732
f 738/738/738 739/739/739 740/740/740
f 740/740/740 741/741/741 738/738/738
f 738/738/738 741/741/741 742/742/742
f 742/742/742 743/743/743 738/738/738
f 744/744/744 745/745/745 746/746/746
f 746/746/746 747/747/747 744/744/744
f 748/748/748 744/744/744 747/747/747
f 744/744/744 748/748/748 749/749/749
f 750/750/750 747/747/747 751/751/751
f 752/752/752 750/750/750 751/751/751
f 752/752/752 753/753/753 749/749/749
f 752/752/752 751/751/751 753/753/753
f 754/754/754 755/755/755 756/756/756
f 756/756/756 757/757/757 754/754/754
f 754/754/754 757/757/757 758/758/758
f 757/757/757 759/759/759 758/758/758
f 760/760/760 754/754/754 758/758/758
f 761/761/761 762/762/762 763/763/763
f 762/762/762 764/764/764 763/763/763
f 764/764/764 765/765/765 763/763/763
f 762/762/762 766/766/766 764/764/764
f 767/767/767 768/768/768 769/769/769
f 768/768/768 770/770/770 769/769/769
f 770/770/770 771/771/771 769/769/769
f 768/768/768 772/772/772 770/770/770
f 773/773/773 774/774/774 775/775/775
f 774/774/774 776/776/776 775/775/775
f 776/776/776 777/777/777 775/775/775
f 774/774/774 778/778/778 776/776/776
f 779/779/779 780/780/780 781/781/781
f 781/781/781 782/782/782 779/779/779
f 779/779/779 782/782/782 783/783/783
f 783/783/783 784/784/784 779/779/779
f 779/779/779 784/784/784 785/785/785
f 786/786/786 787/787/787 788/788/788
f 789/789/789 790/790/790 788/788/788
f 787/787/787 789/789/789 788/788/788
f 787/787/787 791/791/791 789/789/789
f 791/791/791 792/792/792 789/789/789
f 787/787/787 793/793/793 791/791/791
f 794/794/794 795/795/795 796/796/796
f 797/797/797 798/798/798 796/796/796
f 795/795/795 797/797/797 796/796/796
f 795/795/795 799/799/799 797/797/797
f 799/799/799 800/800/800 797/797/797
f 795/795/795 801/801/801 799/799/799
