v -0.030804 0.428626 -2.6245772946566672E-17
v -0.022982 0.388952 0.385218
v -0.020153 0.3506580000000001 0.77179
v -0.014856 0.27695300000000006 0.77179
v -0.017019 0.305977 0.385218
v -0.024226 0.337093 -2.0640993173248934E-17
v -0.324866 0.281302 -1.7224779694687437E-17
v -0.289553 0.255402 0.385218
v -0.271993 0.17516900000000005 0.77179
v -0.216131 0.12679800000000005 0.77179
v -0.226664 0.20094600000000004 0.385218
v -0.255491 0.221231 -1.3546491801108406E-17
v -0.428626 -0.030804 1.8862010000467534E-18
v -0.383612 -0.027526999999999975 0.385218
v -0.340493 -0.019289999999999943 0.940247
v -0.266788 -0.013992999999999943 0.940247
v -0.300637 -0.021563999999999976 0.385218
v -0.337093 -0.024226 1.483414667807189E-18
v -0.281302 -0.324866 1.9892305352590203E-17
v -0.250062 -0.294097 0.385218
v -0.221863 -0.25607899999999995 0.940247
v -0.173491 -0.20021599999999995 0.940247
v -0.195606 -0.23120899999999997 0.385218
v -0.221231 -0.255491 1.5644311768047823E-17
v 0.030804 -0.428626 2.6245772946566672E-17
v 0.032866 -0.388157 0.385218
v 0.029456 -0.33962999999999993 0.77179
v 0.024159 -0.26592499999999997 0.77179
v 0.026903 -0.305182 0.385218
v 0.024226 -0.337094 2.0641054405588894E-17
v 0.324866 -0.281302 1.7224779694687437E-17
v 0.299437 -0.254607 0.385218
v 0.266244 -0.22099999999999997 0.609315
v 0.210382 -0.17262799999999998 0.609315
v 0.236548 -0.20015099999999997 0.385218
v 0.255491 -0.221231 1.3546491801108406E-17
v 0.428626 0.030804 -1.8862010000467534E-18
v 0.393497 0.028321000000000023 0.385218
v 0.349795 0.030319000000000037 0.609315
v 0.27609 0.025022000000000037 0.609315
v 0.310522 0.022358000000000024 0.385218
v 0.337093 0.024226 -1.483414667807189E-18
v 0.231166 0.26710700000000004 0.617584
v 0.231166 0.26710700000000004 0.77179
v 0.182794 0.21124500000000004 0.77179
v 0.182794 0.21124500000000002 0.617584
v 0.373595 0.202646 -1.2408488763000727E-17
v 0.34361 0.18409900000000004 0.385218
v 0.14388 0.401557 -2.4588274736260687E-17
v 0.135371 0.364414 0.385218
v 0.258006 0.12718100000000002 0.385218
v 0.297793 0.16467 -1.0083129420779733E-17
v 0.094236 0.26899 0.385218
v 0.117133 0.321104 -1.9661949289670585E-17
v -0.216265 0.284247 0.445856
v -0.181839 0.21553100000000003 0.445856
v -0.07935 0.321001 0.446839
v -0.061412 0.253629 0.446839
v -0.30701 -0.08612299999999996 0.747375
v -0.253967 -0.19199899999999995 0.747375
v -0.193355 -0.16056799999999993 0.747375
v -0.246398 -0.05469299999999995 0.747375
v -0.246398 -0.05469299999999994 0.940247
v -0.30701 -0.08612299999999995 0.940247
v -0.193355 -0.16056799999999993 0.940247
v -0.253967 -0.19199899999999995 0.940247
v -0.006693 -0.06315399999999996 0.595889
v -0.04119 -0.2601859999999999 0.595889
v -0.02796 -0.056415999999999966 0.595889
v -0.113225 -0.23736099999999996 0.595889
v -0.02796 -0.056415999999999966 0.541717
v -0.113225 -0.23736099999999996 0.541717
v -0.046695 -0.04430399999999997 0.541717
v -0.176685 -0.19633699999999998 0.541717
v -0.046695 -0.044303999999999975 0.487546
v -0.176685 -0.19633699999999998 0.487546
v -0.06157 -0.027678999999999968 0.487546
v -0.22707 -0.14002199999999998 0.487546
v -0.06157 -0.02767899999999997 0.433374
v -0.22707 -0.14002199999999998 0.433374
v -0.071531 -0.007716999999999973 0.433374
v -0.26081 -0.07240799999999997 0.433374
v -0.071531 -0.0077169999999999765 0.379202
v -0.26081 -0.07240799999999997 0.379202
v -0.074283 0.03641700000000001 0.270859
v -0.270134 0.07708600000000002 0.270859
v -0.06688 0.05746200000000001 0.270859
v -0.245058 0.14836900000000003 0.270859
v -0.06688 0.05746200000000001 0.216687
v -0.245058 0.148369 0.216687
v -0.054186 0.07580700000000001 0.216687
v -0.202061 0.210509 0.216687
v -0.054186 0.07580700000000001 0.162515
v -0.202061 0.210509 0.162515
v -0.037102 0.09015200000000001 0.162515
v -0.144191 0.2591 0.16251499999999997
v -0.037102 0.090152 0.108344
v -0.144191 0.2591 0.10834399999999998
v -0.006693 -0.06315399999999997 0.541718
v -0.04119 -0.2601859999999999 0.541718
v 0.029751 0.110772 -6.7828287617575304E-18
v 0.097901 0.04603 -2.8185246082376335E-18
v 0.075908 -0.045361 2.7775601728061543E-18
v -0.014236 -0.07201 4.409340800330045E-18
v -0.082386 -0.007267 4.449754144701908E-19
v -0.060393 0.084124 -5.1511093665735975E-18
v 0.029751 0.11077200000000004 0.727608
v 0.097901 0.046030000000000036 0.618966
v 0.075908 -0.045360999999999964 0.618966
v -0.014236 -0.07200999999999996 0.727608
v -0.082386 -0.00726699999999995 0.814767
v -0.060393 0.08412400000000005 0.758126
v -0.216131 0.12679800000000005 0.77179
v -0.266788 -0.013992999999999943 0.940247
v -0.173491 -0.20021599999999995 0.940247
v 0.024159 -0.26592499999999997 0.77179
v 0.210382 -0.17262799999999998 0.609315
v 0.27609 0.025022000000000037 0.609315
v 0.182794 0.21124500000000004 0.77179
v 0.231166 0.26710700000000004 0.617584
v 0.231166 0.26710700000000004 0.77179
v 0.182794 0.21124500000000004 0.77179
v 0.182794 0.21124500000000004 0.77179
v 0.182794 0.21124500000000002 0.617584
v -0.014856 0.27695300000000006 0.77179
v 0.094236 0.26899 0.385218
v 0.135371 0.364414 0.385218
v 0.14388 0.401557 -2.4588274736260687E-17
v 0.117133 0.321104 -1.9661949289670585E-17
v 0.297793 0.16467 -1.0083129420779733E-17
v 0.373595 0.202646 -1.2408488763000727E-17
v 0.34361 0.18409900000000004 0.385218
v 0.258006 0.12718100000000002 0.385218
v 0.182794 0.21124500000000002 0.617584
v 0.231166 0.26710700000000004 0.617584
v 0.182794 0.21124500000000002 0.617584
v 0.231166 0.26710700000000004 0.617584
v -0.181839 0.21553100000000003 0.445856
v -0.061412 0.253629 0.446839
v -0.246398 -0.05469299999999994 0.940247
v -0.193355 -0.16056799999999993 0.940247
v -0.30701 -0.08612299999999996 0.747375
v -0.246398 -0.05469299999999995 0.747375
v -0.193355 -0.16056799999999993 0.747375
v -0.253967 -0.19199899999999995 0.747375
v -0.193355 -0.16056799999999993 0.940247
v -0.253967 -0.19199899999999995 0.940247
v -0.253967 -0.19199899999999995 0.747375
v -0.193355 -0.16056799999999993 0.747375
v -0.30701 -0.08612299999999995 0.940247
v -0.246398 -0.05469299999999994 0.940247
v -0.246398 -0.05469299999999995 0.747375
v -0.30701 -0.08612299999999996 0.747375
v -0.113225 -0.23736099999999996 0.595889
v -0.02796 -0.056415999999999966 0.595889
v -0.113225 -0.23736099999999996 0.541717
v -0.02796 -0.056415999999999966 0.541717
v -0.176685 -0.19633699999999998 0.541717
v -0.046695 -0.04430399999999997 0.541717
v -0.176685 -0.19633699999999998 0.487546
v -0.046695 -0.044303999999999975 0.487546
v -0.22707 -0.14002199999999998 0.487546
v -0.06157 -0.027678999999999968 0.487546
v -0.22707 -0.14002199999999998 0.433374
v -0.06157 -0.02767899999999997 0.433374
v -0.26081 -0.07240799999999997 0.433374
v -0.071531 -0.007716999999999973 0.433374
v -0.245058 0.14836900000000003 0.270859
v -0.06688 0.05746200000000001 0.270859
v -0.245058 0.148369 0.216687
v -0.06688 0.05746200000000001 0.216687
v -0.202061 0.210509 0.216687
v -0.054186 0.07580700000000001 0.216687
v -0.202061 0.210509 0.162515
v -0.054186 0.07580700000000001 0.162515
v -0.144191 0.2591 0.16251499999999997
v -0.037102 0.09015200000000001 0.162515
v -0.04119 -0.2601859999999999 0.595889
v -0.006693 -0.06315399999999996 0.595889
v -0.060393 0.08412400000000005 0.758126
v -0.060393 0.084124 -5.1511093665735975E-18
v 0.029751 0.11077200000000004 0.727608
v -0.014236 -0.07200999999999996 0.727608
v -0.060393 0.08412400000000005 0.758126
v -0.082386 -0.00726699999999995 0.814767
v 0.097901 0.046030000000000036 0.618966
v 0.075908 -0.045360999999999964 0.618966
v -0.07935 0.321001 0.446839
v -0.340493 -0.019289999999999943 0.940247
v -0.266788 -0.013992999999999943 0.940247
v -0.340493 -0.019289999999999943 0.940247
v -0.266788 -0.013992999999999943 0.940247
v -0.221863 -0.25607899999999995 0.940247
v 0.029456 -0.33962999999999993 0.77179
v -0.221863 -0.25607899999999995 0.940247
v 0.029456 -0.33962999999999993 0.77179
v 0.266244 -0.22099999999999997 0.609315
v 0.029456 -0.33962999999999993 0.77179
v 0.266244 -0.22099999999999997 0.609315
v 0.349795 0.030319000000000037 0.609315
v 0.266244 -0.22099999999999997 0.609315
v 0.349795 0.030319000000000037 0.609315
v 0.349795 0.030319000000000037 0.609315
v -0.020153 0.3506580000000001 0.77179
v -0.020153 0.3506580000000001 0.77179
v -0.014856 0.27695300000000006 0.77179
v -0.014856 0.27695300000000006 0.77179
v -0.020153 0.3506580000000001 0.77179
v 0.231166 0.26710700000000004 0.77179
v 0.231166 0.26710700000000004 0.77179
v -0.020153 0.3506580000000001 0.77179
v -0.061412 0.253629 0.446839
v -0.181839 0.21553100000000003 0.445856
v -0.061412 0.253629 0.446839
v -0.30701 -0.08612299999999995 0.940247
v -0.173491 -0.20021599999999995 0.940247
v -0.221863 -0.25607899999999995 0.940247
v -0.221863 -0.25607899999999995 0.940247
v -0.253967 -0.19199899999999995 0.940247
vt 0.822454 0.337851
vt 0.823102 0.231818
vt 0.823184 0.125618
vt 0.819907 0.100020
vt 1.823102 0.231818
vt 1.822454 0.337851
vt 0.782486 0.337851
vt 0.782952 0.231818
vt 0.775286 0.125618
vt 1.775286 0.125618
vt 1.782952 0.231818
vt 1.782486 0.337851
vt 0.742518 0.337851
vt 0.742524 0.231818
vt 0.743289 0.079339
vt 0.742676 0.050300
vt 1.742524 0.231818
vt 1.742518 0.337851
vt 0.702550 0.337851
vt 0.702092 0.231818
vt 0.702565 0.079339
vt 0.701184 0.047061
vt 1.702092 0.231818
vt 1.702550 0.337851
vt 0.662583 0.337851
vt 0.661935 0.231818
vt 0.661831 0.125618
vt 0.661623 0.087210
vt 1.661935 0.231818
vt 1.662583 0.337851
vt 0.622615 0.337851
vt 0.622157 0.231818
vt 0.621554 0.170254
vt 0.621306 0.132638
vt 1.622157 0.231818
vt 1.622615 0.337851
vt 0.582647 0.337851
vt 0.582641 0.231818
vt 0.581898 0.170254
vt 0.581738 0.129876
vt 1.582641 0.231818
vt 1.582647 0.337851
vt 0.542665 0.167982
vt 0.542665 0.110192
vt 0.542424 0.080847
vt 1.542665 0.167982
vt 0.561005 0.337851
vt 0.561267 0.231818
vt 0.843614 0.337851
vt 0.844205 0.231818
vt 1.561267 0.231818
vt 1.561005 0.337851
vt 1.844205 0.231818
vt 1.843614 0.337851
vt 0.793007 0.215159
vt 1.793007 0.215159
vt 0.813773 0.214889
vt 0.812281 0.184884
vt 0.732545 0.132325
vt 0.713262 0.132325
vt 1.713262 0.132325
vt 1.732545 0.132325
vt 0.732545 0.052175
vt 0.732545 0.079339
vt 1.713262 0.079339
vt 0.713262 0.079339
vt 0.959892 0.703093
vt 0.994422 0.724974
vt 0.960421 0.693905
vt 0.996216 0.693889
vt 0.960420 0.671407
vt 0.996215 0.671408
vt 1.960421 0.693905
vt 1.996216 0.693889
vt 1.960420 0.671407
vt 1.996215 0.671408
vt 1.960421 0.693905
vt 1.996216 0.693889
vt 1.960420 0.671407
vt 1.996215 0.671408
vt 1.960421 0.693905
vt 1.996216 0.693889
vt 1.960420 0.671407
vt 1.996215 0.671408
vt 1.959892 0.703093
vt 1.994422 0.724974
vt 1.960421 0.693905
vt 1.996216 0.693889
vt 1.960420 0.671407
vt 1.996215 0.671408
vt 1.960421 0.693905
vt 1.996216 0.693889
vt 1.960420 0.671407
vt 1.996215 0.671408
vt 1.960421 0.693905
vt 1.996216 0.693889
vt 1.960420 0.671407
vt 1.996215 0.671408
vt 0.959249 0.724193
vt 0.993425 0.748301
vt 0.993420 0.348649
vt 0.993422 0.378046
vt 0.993429 0.407655
vt 0.993430 0.437232
vt 0.993440 0.466592
vt 0.993445 0.495650
vt 0.863847 0.348656
vt 0.883196 0.378045
vt 0.883203 0.407598
vt 0.863857 0.437165
vt 0.848346 0.466590
vt 0.858437 0.495648
vt 0.777355 0.098571
vt 1.743289 0.079339
vt 1.702564 0.079339
vt 1.661831 0.125618
vt 1.621554 0.170254
vt 1.581898 0.170254
vt 1.542665 0.110192
vt 0.862409 0.167982
vt 0.862409 0.125618
vt 0.862478 0.102224
vt 1.862409 0.125618
vt 1.862409 0.167982
vt 1.823184 0.125618
vt 0.851090 0.235124
vt 0.844205 0.231818
vt 0.843614 0.337851
vt 0.848180 0.337851
vt 0.554823 0.337851
vt 0.561005 0.337851
vt 0.561267 0.231818
vt 0.554844 0.234394
vt 0.538147 0.180412
vt 0.542665 0.167982
vt 0.865968 0.170186
vt 0.862409 0.167982
vt 0.794801 0.183376
vt 1.813773 0.214889
vt 1.732545 0.079339
vt 0.713262 0.051172
vt 0.732545 0.132325
vt 0.732545 0.099039
vt 0.713262 0.099039
vt 0.713262 0.132325
vt 0.533290 0.106193
vt 0.523887 0.106193
vt 0.523887 0.159323
vt 0.533290 0.159323
vt 0.803083 0.088189
vt 0.793679 0.088189
vt 0.793679 0.141318
vt 0.803083 0.141318
vt 0.996216 0.693889
vt 0.960421 0.693905
vt 1.994422 0.724974
vt 1.959892 0.703093
vt 1.996216 0.693889
vt 1.960421 0.693905
vt 1.994422 0.724974
vt 1.959892 0.703093
vt 1.996216 0.693889
vt 1.960421 0.693905
vt 1.994422 0.724974
vt 1.959892 0.703093
vt 1.996216 0.693889
vt 1.960421 0.693905
vt 1.996216 0.693889
vt 1.960421 0.693905
vt 1.994422 0.724974
vt 1.959892 0.703093
vt 1.996216 0.693889
vt 1.960421 0.693905
vt 1.994422 0.724974
vt 1.959892 0.703093
vt 1.996216 0.693889
vt 1.960421 0.693905
vt 0.994128 0.726836
vt 0.959952 0.702713
vt 0.858411 0.319604
vt 0.993419 0.319586
vt 0.675666 0.662464
vt 0.670249 0.721579
vt 0.689674 0.677726
vt 0.694114 0.709600
vt 0.649090 0.673565
vt 0.646382 0.703123
vt 0.813773 0.214889
vt 0.743289 0.079339
vt 0.742676 0.050300
vt 0.743289 0.079339
vt 0.742676 0.050300
vt 0.702565 0.079339
vt 0.661831 0.125618
vt 0.702565 0.079339
vt 0.661831 0.125618
vt 0.621554 0.170254
vt 0.661831 0.125618
vt 0.621554 0.170254
vt 0.581898 0.170254
vt 0.621554 0.170254
vt 0.581898 0.170254
vt 0.581898 0.170254
vt 0.823184 0.125618
vt 0.823184 0.125618
vt 0.819907 0.100020
vt 0.819907 0.100020
vt 0.823184 0.125618
vt 0.542665 0.110192
vt 0.862409 0.125618
vt 0.823184 0.125618
vt 0.812281 0.184884
vt 0.794801 0.183376
vt 0.812281 0.184884
vt 0.732545 0.079339
vt 0.701184 0.047061
vt 0.702565 0.079339
vt 0.702565 0.079339
vt 0.713262 0.079339
vn -0.256989 0.960784 0.10416999999999994
vn -0.213927 0.958301 0.18945699999999993
vn -0.215514 0.889294 0.4033729999999999
vn -0.633624 -0.10630999999999996 0.766302
vn 0.186027 -0.970789 -0.15153699999999995
vn 0.007224 -0.994711 -0.10245699999999995
vn -0.832982 0.541684 0.11278099999999998
vn -0.705318 0.697729 0.12530299999999994
vn -0.083337 0.840678 0.535085
vn 0.832903 -0.542491 -0.10943099999999997
vn 0.760478 -0.6394 -0.11332099999999996
vn 0.656667 -0.748961 -0.08857999999999996
vn -0.971726 -0.206045 0.11530100000000001
vn -0.989266 -0.100765 0.105823
vn -0.868056 0.08617300000000003 0.48893
vn 0.12553 0.34264900000000004 0.931039
vn 0.977286 0.192991 -0.08755500000000001
vn 0.99348 -0.065128 -0.093571
vn -0.541607 -0.83334 0.11048500000000006
vn -0.736099 -0.667818 0.11035200000000005
vn -0.240316 -0.4726909999999999 0.847828
vn 0.265979 -0.23031399999999994 0.936061
vn 0.679341 0.728973 -0.08423000000000004
vn 0.748646 0.656668 -0.09119300000000004
vn 0.206532 -0.973199 0.10113300000000006
vn 0.081464 -0.988176 0.12989000000000006
vn 0.389664 -0.586625 0.709953
vn 0.585201 -0.11802599999999995 0.802252
vn -0.084561 0.992728 -0.08567500000000006
vn 0.065055 0.994438 -0.08283200000000006
vn 0.834851 -0.542612 0.09271200000000003
vn 0.746954 -0.647714 0.15008700000000003
vn 0.517632 -0.3754199999999999 0.768841
vn 0.35615 0.16448900000000005 0.919837
vn -0.765893 0.633789 -0.10825400000000004
vn -0.657625 0.749764 -0.07336800000000004
vn 0.995856 -0.005554999999999995 0.090778
vn 0.985922 0.059633000000000005 0.156211
vn 0.786879 -0.14194599999999996 0.600561
vn 0.016293 -0.22670399999999993 0.973827
vn -0.992775 0.010300999999999992 -0.119545
vn -0.996199 -0.022558000000000005 -0.084135
vn 0.741062 0.653975 0.15212799999999999
vn 0.474929 0.30191300000000004 0.826614
vn 0.164489 -0.35614899999999994 0.919837
vn -0.522165 -0.713754 -0.46679699999999996
vn 0.948624 0.303789 0.08846499999999999
vn 0.930739 0.298062 0.21185799999999996
vn 0.15239 0.983431 0.09818999999999994
vn 0.243081 0.960897 0.13262299999999994
vn -0.9836 -0.003156000000000011 -0.180335
vn -0.801097 0.597331 -0.037939000000000035
vn 0.439774 -0.882783 -0.16520699999999994
vn 0.539995 -0.837739 -0.08123499999999995
vn 0.065193 0.717334 0.693672
vn 0.415245 -0.868226 -0.27157999999999993
vn -0.778735 0.29563600000000007 0.553327
vn -0.407443 -0.10918199999999995 0.906681
vn -0.870033 -0.487112 0.07592800000000002
vn -0.918028 -0.391722 0.06146600000000002
vn 0.916405 0.395799 -0.05953800000000002
vn 0.854965 0.516307 -0.049623000000000035
vn 1E-06 -9.999999999387675E-07 1
vn -0.399841 -0.20031699999999994 0.894427
vn 0.894072 0.447923 -1.0000000000274273E-06
vn -0.632204 -0.31672999999999996 0.707107
vn 0 6.123233995736766E-17 1
vn 0 6.123233995736766E-17 1
vn 0 6.123233995736766E-17 1
vn 0 6.123233995736766E-17 1
vn -0.904597 0.426267 -2.610132585660724E-17
vn -0.904597 0.426267 -2.610132585660724E-17
vn 0 6.123233995736766E-17 1
vn 0 6.123233995736766E-17 1
vn -0.760055 0.649858 -3.979232598001504E-17
vn -0.760055 0.649858 -3.979232598001504E-17
vn 0 6.123233995736766E-17 1
vn 0 6.123233995736766E-17 1
vn -0.561636 0.827384 -5.0662658363286686E-17
vn -0.561636 0.827384 -5.0662658363286686E-17
vn 0 6.123233995736766E-17 1
vn 0 6.123233995736766E-17 1
vn -0.323407 0.94626 -5.794171400805872E-17
vn -0.323407 0.94626 -5.794171400805872E-17
vn 0 6.123233995736766E-17 1
vn 0 6.123233995736766E-17 1
vn 0 6.123233995736766E-17 1
vn 0 6.123233995736766E-17 1
vn 0.454472 0.890761 -5.454338037276478E-17
vn 0.454472 0.890761 -5.454338037276478E-17
vn 0 6.123233995736766E-17 1
vn 0 6.123233995736766E-17 1
vn 0.673412 0.739268 -4.5267109495603277E-17
vn 0.673412 0.739268 -4.5267109495603277E-17
vn 0 6.123233995736766E-17 1
vn 0 6.123233995736766E-17 1
vn 0.844617 0.535371 -3.2782019075315883E-17
vn 0.844617 0.535371 -3.2782019075315883E-17
vn 0.985016 -0.17246 1.0560129349047626E-17
vn 0.985016 -0.17246 1.0560129349047626E-17
vn 0.413491 0.910508 -5.575253538990291E-17
vn 0.995269 0.097161 -5.949395382597799E-18
vn 0.581776 -0.813349 4.980326247198503E-17
vn -0.413491 -0.910508 5.575253538990291E-17
vn -0.995269 -0.097161 5.949395382597799E-18
vn -0.581776 0.813349 -4.980326247198503E-17
vn 0.401954 0.768737 0.49746999999999997
vn 0.936297 0.20173600000000003 0.28749
vn 0.867721 -0.465939 0.17309300000000002
vn 0.546018 -0.621171 0.562149
vn -0.783471 -0.554708 0.28013000000000005
vn -0.451114 0.631565 0.630572
vn 0.688197 0.597446 0.41163399999999994
vn 0.964154 0.262361 -0.039682000000000016
vn 0.680507 0.730273 -0.060102000000000044
vn -0.271256 0.954136 -0.12666600000000006
vn -0.848968 0.503338 -0.16094700000000003
vn -0.956675 -0.270365 -0.10805199999999998
vn -0.654601 -0.755975 4.6290118199271014E-17
vn 0.741062 0.653975 0.15212799999999999
vn 0.474929 0.30191300000000004 0.826614
vn 0.164489 -0.35614899999999994 0.919837
vn -0.654601 -0.755975 4.6290118199271014E-17
vn -0.522165 -0.713754 -0.46679699999999996
vn 0.019877 -0.998649 -0.04800099999999994
vn 0.439774 -0.882783 -0.16520699999999994
vn 0.830131 -0.455618 -0.32139599999999996
vn 0.934485 -0.355997 -0.0020809999999999783
vn 0.539995 -0.837739 -0.08123499999999995
vn -0.801097 0.597331 -0.037939000000000035
vn -0.447909 0.894042 0.008182999999999944
vn -0.560688 0.792835 -0.23883500000000005
vn -0.9836 -0.003156000000000011 -0.180335
vn -0.522165 -0.713754 -0.46679699999999996
vn 0.003885 -0.003364000000000061 -0.999987
vn -0.522165 -0.713754 -0.46679699999999996
vn 0.003885 -0.003364000000000061 -0.999987
vn 0.558765 0.2799360000000001 0.780652
vn 0.525763 -0.796709 -0.29803999999999997
vn 0.894073 0.447922 -2.7427312178384037E-17
vn 1E-06 6.123233995736766E-17 1
vn 0 6.123233995736766E-17 1
vn 0 6.123233995736766E-17 1
vn 0 6.123233995736766E-17 1
vn 0 6.123233995736766E-17 1
vn -0.460344 0.887741 -5.435845870609352E-17
vn -0.460344 0.887741 -5.435845870609352E-17
vn -0.460344 0.887741 -5.435845870609352E-17
vn -0.460344 0.88774 -5.4358397473753565E-17
vn 0.460344 -0.887741 5.435845870609352E-17
vn 0.460344 -0.887741 5.435845870609352E-17
vn 0.460344 -0.887741 5.435845870609352E-17
vn 0.460344 -0.887741 5.435845870609352E-17
vn -0.904597 0.426267 -2.610132585660724E-17
vn -0.904597 0.426267 -2.610132585660724E-17
vn 0 6.123233995736766E-17 1
vn 0 6.123233995736766E-17 1
vn -0.760055 0.649858 -3.979232598001504E-17
vn -0.760055 0.649858 -3.979232598001504E-17
vn 0 6.123233995736766E-17 1
vn 0 6.123233995736766E-17 1
vn -0.561636 0.827384 -5.0662658363286686E-17
vn -0.561636 0.827384 -5.0662658363286686E-17
vn 0 6.123233995736766E-17 1
vn 0 6.123233995736766E-17 1
vn -0.323407 0.94626 -5.794171400805872E-17
vn -0.323407 0.94626 -5.794171400805872E-17
vn 0.454472 0.890761 -5.454338037276478E-17
vn 0.454472 0.890761 -5.454338037276478E-17
vn 0 6.123233995736766E-17 1
vn 0 6.123233995736766E-17 1
vn 0.673412 0.739268 -4.5267109495603277E-17
vn 0.673412 0.739268 -4.5267109495603277E-17
vn 0 6.123233995736766E-17 1
vn 0 6.123233995736766E-17 1
vn 0.844617 0.535371 -3.2782019075315883E-17
vn 0.844617 0.535371 -3.2782019075315883E-17
vn 0.985016 -0.17246 1.0560129349047626E-17
vn 0.985016 -0.17246 1.0560129349047626E-17
vn -0.451114 0.631565 0.630572
vn -0.581776 0.813349 -4.980326247198503E-17
vn 0.401954 0.768737 0.49746999999999997
vn 0.546018 -0.621171 0.562149
vn -0.451114 0.631565 0.630572
vn -0.783471 -0.554708 0.28013000000000005
vn 0.936297 0.20173600000000003 0.28749
vn 0.867721 -0.465939 0.17309300000000002
vn -0.778735 0.29563600000000007 0.553327
vn -0.868056 0.08617300000000003 0.48893
vn 0.12553 0.34264900000000004 0.931039
vn -0.868056 0.08617300000000003 0.48893
vn 0.12553 0.34264900000000004 0.931039
vn -0.240316 -0.4726909999999999 0.847828
vn 0.389664 -0.586625 0.709953
vn -0.240316 -0.4726909999999999 0.847828
vn 0.389664 -0.586625 0.709953
vn 0.517632 -0.3754199999999999 0.768841
vn 0.389664 -0.586625 0.709953
vn 0.517632 -0.3754199999999999 0.768841
vn 0.786879 -0.14194599999999996 0.600561
vn 0.517632 -0.3754199999999999 0.768841
vn 0.786879 -0.14194599999999996 0.600561
vn 0.786879 -0.14194599999999996 0.600561
vn -0.215514 0.889294 0.4033729999999999
vn -0.215514 0.889294 0.4033729999999999
vn -0.633624 -0.10630999999999996 0.766302
vn -0.633624 -0.10630999999999996 0.766302
vn -0.215514 0.889294 0.4033729999999999
vn 0.474929 0.30191300000000004 0.826614
vn 0.474929 0.30191300000000004 0.826614
vn -0.215514 0.889294 0.4033729999999999
vn -0.407443 -0.10918199999999995 0.906681
vn 0.558765 0.2799360000000001 0.780652
vn -0.407443 -0.10918199999999995 0.906681
vn -0.399841 -0.20031699999999994 0.894427
vn 0.265979 -0.23031399999999994 0.936061
vn -0.240316 -0.4726909999999999 0.847828
vn -0.240316 -0.4726909999999999 0.847828
vn -0.632204 -0.31672999999999996 0.707107
g 10 - Default
f 186/186/186 182/182/182 183/183/183
f 183/183/183 187/187/187 186/186/186
f 184/184/184 185/185/185 183/183/183
f 184/184/184 183/183/183 182/182/182
f 107/107/107 101/101/101 181/181/181
f 181/181/181 180/180/180 107/107/107
f 112/112/112 106/106/106 105/105/105
f 105/105/105 111/111/111 112/112/112
f 111/111/111 105/105/105 104/104/104
f 104/104/104 110/110/110 111/111/111
f 110/110/110 104/104/104 103/103/103
f 103/103/103 109/109/109 110/110/110
f 109/109/109 103/103/103 102/102/102
f 102/102/102 108/108/108 109/109/109
f 108/108/108 102/102/102 101/101/101
f 101/101/101 107/107/107 108/108/108
f 100/100/100 99/99/99 179/179/179
f 179/179/179 178/178/178 100/100/100
f 176/176/176 177/177/177 97/97/97
f 97/97/97 98/98/98 176/176/176
f 174/174/174 175/175/175 95/95/95
f 95/95/95 96/96/96 174/174/174
f 172/172/172 173/173/173 93/93/93
f 93/93/93 94/94/94 172/172/172
f 170/170/170 171/171/171 91/91/91
f 91/91/91 92/92/92 170/170/170
f 168/168/168 169/169/169 89/89/89
f 89/89/89 90/90/90 168/168/168
f 86/86/86 85/85/85 87/87/87
f 87/87/87 88/88/88 86/86/86
f 166/166/166 167/167/167 83/83/83
f 83/83/83 84/84/84 166/166/166
f 164/164/164 165/165/165 81/81/81
f 81/81/81 82/82/82 164/164/164
f 162/162/162 163/163/163 79/79/79
f 79/79/79 80/80/80 162/162/162
f 160/160/160 161/161/161 77/77/77
f 77/77/77 78/78/78 160/160/160
f 158/158/158 159/159/159 75/75/75
f 75/75/75 76/76/76 158/158/158
f 156/156/156 157/157/157 73/73/73
f 73/73/73 74/74/74 156/156/156
f 154/154/154 155/155/155 71/71/71
f 71/71/71 72/72/72 154/154/154
f 68/68/68 67/67/67 69/69/69
f 69/69/69 70/70/70 68/68/68
f 150/150/150 153/153/153 152/152/152
f 152/152/152 151/151/151 150/150/150
f 146/146/146 149/149/149 148/148/148
f 148/148/148 147/147/147 146/146/146
f 142/142/142 145/145/145 144/144/144
f 144/144/144 143/143/143 142/142/142
f 141/141/141 219/219/219 218/218/218
f 217/217/217 216/216/216 141/141/141
f 65/65/65 115/115/115 61/61/61
f 115/115/115 23/23/23 61/61/61
f 23/23/23 17/17/17 61/61/61
f 17/17/17 62/62/62 61/61/61
f 17/17/17 114/114/114 62/62/62
f 114/114/114 140/140/140 62/62/62
f 215/215/215 15/15/15 59/59/59
f 15/15/15 14/14/14 59/59/59
f 14/14/14 20/20/20 59/59/59
f 20/20/20 60/60/60 59/59/59
f 20/20/20 21/21/21 60/60/60
f 21/21/21 66/66/66 60/60/60
f 5/5/5 125/125/125 139/139/139
f 5/5/5 139/139/139 56/56/56
f 56/56/56 11/11/11 5/5/5
f 8/8/8 9/9/9 55/55/55
f 57/57/57 3/3/3 2/2/2
f 214/214/214 57/57/57 55/55/55
f 55/55/55 213/213/213 212/212/212
f 113/113/113 138/138/138 55/55/55
f 55/55/55 9/9/9 113/113/113
f 136/136/136 126/126/126 127/127/127
f 127/127/127 137/137/137 136/136/136
f 134/134/134 135/135/135 132/132/132
f 132/132/132 133/133/133 134/134/134
f 130/130/130 133/133/133 132/132/132
f 132/132/132 131/131/131 130/130/130
f 126/126/126 129/129/129 128/128/128
f 128/128/128 127/127/127 126/126/126
f 124/124/124 125/125/125 5/5/5
f 5/5/5 53/53/53 124/124/124
f 118/118/118 46/46/46 51/51/51
f 51/51/51 41/41/41 118/118/118
f 211/211/211 210/210/210 120/120/120
f 43/43/43 209/209/209 39/39/39
f 6/6/6 54/54/54 53/53/53
f 53/53/53 5/5/5 6/6/6
f 2/2/2 50/50/50 49/49/49
f 49/49/49 1/1/1 2/2/2
f 125/125/125 124/124/124 123/123/123
f 121/121/121 208/208/208 207/207/207
f 206/206/206 122/122/122 121/121/121
f 205/205/205 120/120/120 50/50/50
f 50/50/50 2/2/2 204/204/204
f 42/42/42 41/41/41 51/51/51
f 51/51/51 52/52/52 42/42/42
f 119/119/119 46/46/46 118/118/118
f 203/203/203 44/44/44 45/45/45
f 45/45/45 40/40/40 202/202/202
f 38/38/38 48/48/48 43/43/43
f 43/43/43 39/39/39 38/38/38
f 38/38/38 37/37/37 47/47/47
f 47/47/47 48/48/48 38/38/38
f 35/35/35 41/41/41 42/42/42
f 42/42/42 36/36/36 35/35/35
f 117/117/117 118/118/118 41/41/41
f 41/41/41 35/35/35 117/117/117
f 201/201/201 200/200/200 40/40/40
f 40/40/40 34/34/34 199/199/199
f 32/32/32 38/38/38 39/39/39
f 39/39/39 33/33/33 32/32/32
f 31/31/31 37/37/37 38/38/38
f 38/38/38 32/32/32 31/31/31
f 29/29/29 35/35/35 36/36/36
f 36/36/36 30/30/30 29/29/29
f 116/116/116 117/117/117 35/35/35
f 35/35/35 29/29/29 116/116/116
f 198/198/198 197/197/197 34/34/34
f 34/34/34 28/28/28 196/196/196
f 26/26/26 32/32/32 33/33/33
f 33/33/33 27/27/27 26/26/26
f 25/25/25 31/31/31 32/32/32
f 32/32/32 26/26/26 25/25/25
f 23/23/23 29/29/29 30/30/30
f 30/30/30 24/24/24 23/23/23
f 115/115/115 116/116/116 29/29/29
f 29/29/29 23/23/23 115/115/115
f 195/195/195 194/194/194 28/28/28
f 28/28/28 22/22/22 193/193/193
f 20/20/20 26/26/26 27/27/27
f 27/27/27 21/21/21 20/20/20
f 19/19/19 25/25/25 26/26/26
f 26/26/26 20/20/20 19/19/19
f 17/17/17 23/23/23 24/24/24
f 24/24/24 18/18/18 17/17/17
f 192/192/192 191/191/191 64/64/64
f 64/64/64 63/63/63 190/190/190
f 13/13/13 19/19/19 20/20/20
f 20/20/20 14/14/14 13/13/13
f 11/11/11 17/17/17 18/18/18
f 18/18/18 12/12/12 11/11/11
f 10/10/10 114/114/114 17/17/17
f 17/17/17 11/11/11 10/10/10
f 9/9/9 189/189/189 16/16/16
f 16/16/16 113/113/113 9/9/9
f 8/8/8 14/14/14 15/15/15
f 15/15/15 9/9/9 8/8/8
f 7/7/7 13/13/13 14/14/14
f 14/14/14 8/8/8 7/7/7
f 5/5/5 11/11/11 12/12/12
f 12/12/12 6/6/6 5/5/5
f 56/56/56 10/10/10 11/11/11
f 4/4/4 3/3/3 57/57/57
f 188/188/188 58/58/58 4/4/4
f 2/2/2 8/8/8 55/55/55
f 55/55/55 57/57/57 2/2/2
f 1/1/1 7/7/7 8/8/8
f 8/8/8 2/2/2 1/1/1
