v 0.115192 -0.021839999999999995 0.035268
v 0.115192 -0.02183999999999998 0.265941
v 0.102974 0.03463800000000002 0.300782
v 0.102974 0.034638 0.035268
v 0.073913 -0.056478 0.035268
v 0.073913 -0.05647799999999998 0.300782
v 0.020415 -0.034638 0.035268
v 0.020415 -0.03463799999999998 0.300782
v 0.008196 0.021840000000000002 0.035268
v 0.011393 0.018031000000000016 0.300782
v 0.049476 0.056478 0.035268
v 0.052672 0.05266900000000002 0.300782
v 0.133356 -0.02925499999999997 0.530239
v 0.133356 -0.029254999999999965 0.572804
v 0.116989 0.046398000000000036 0.572804
v 0.116989 0.046398000000000036 0.530239
v 0.116989 0.046398 0.035268
v 0.116989 0.046398 -0.007297000000000002
v 0.133356 -0.029255 -0.007296999999999998
v 0.133356 -0.029254999999999996 0.035268
v 0.078061 -0.07565299999999997 0.530239
v 0.078061 -0.07565299999999996 0.572804
v 0.078061 -0.075653 -0.007296999999999995
v 0.078061 -0.075653 0.03526800000000001
v 0.0064 -0.04639799999999997 0.530239
v 0.0064 -0.04639799999999997 0.572804
v 0.0064 -0.046398 -0.007296999999999997
v 0.0064 -0.046398 0.035268
v -0.009967 0.02925500000000003 0.530239
v -0.009967 0.029255000000000034 0.572804
v -0.009967 0.029255 -0.007297000000000001
v -0.009967 0.029255000000000003 0.035268
v 0.045328 0.07565300000000003 0.530239
v 0.045328 0.07565300000000004 0.572804
v 0.045328 0.075653 -0.007297000000000004
v 0.045328 0.075653 0.035267999999999994
v 0.11529 0.01160700000000002 0.352086
v 0.115192 -0.021839999999999974 0.387554
v 0.115192 -0.021839999999999967 0.530239
v 0.102974 0.03463800000000004 0.530239
v 0.073913 -0.056477999999999966 0.530239
v 0.092531 -0.05479799999999998 0.336065
v 0.018393 0.019499000000000023 0.401579
v 0.028652 -0.03463799999999998 0.37051
v 0.036524 -0.034637999999999974 0.431555
v 0.028652 -0.034637999999999974 0.461478
v 0.017671 0.020370000000000027 0.461418
v 0.008196 0.02184000000000003 0.530239
v 0.020415 -0.03463799999999997 0.530239
v 0.025905 0.01993500000000003 0.431498
v 0.051074 0.05457300000000003 0.410009
v 0.049476 0.056478000000000035 0.530239
v -0.152836 -0.030100999999999947 0.82675
v -0.035509 -0.030100999999999954 0.749274
v -0.035509 0.034126000000000045 0.749274
v -0.152836 0.034126000000000045 0.82675
v -0.137144 0.03412600000000005 0.894472
v 0.004078 0.034126000000000045 0.818355
v 0.004077 -0.03010099999999995 0.818355
v -0.137144 -0.030100999999999944 0.894472
v 0.04162 -0.03161899999999997 0.545565
v 0.04162 0.035899000000000035 0.545565
v 0.113995 0.035899000000000035 0.570711
v 0.113995 -0.03161899999999997 0.570711
v 0.102974 0.03463800000000002 0.300782
v 0.102974 0.034638 0.035268
v 0.116989 0.046398000000000036 0.572804
v 0.116989 0.046398000000000036 0.530239
v 0.116989 0.046398 -0.007297000000000002
v 0.116989 0.046398 0.035268
v 0.078061 -0.075653 0.03526800000000001
v 0.045328 0.075653 0.035267999999999994
v 0.116989 0.046398 0.035268
v 0.133356 -0.029254999999999996 0.035268
v 0.078061 -0.07565299999999996 0.572804
v 0.0064 -0.04639799999999997 0.572804
v -0.009967 0.029255000000000034 0.572804
v 0.045328 0.07565300000000004 0.572804
v 0.116989 0.046398000000000036 0.572804
v 0.133356 -0.029254999999999965 0.572804
v 0.102974 0.03463800000000004 0.530239
v 0.045328 0.075653 -0.007297000000000004
v -0.009967 0.029255 -0.007297000000000001
v 0.133356 -0.029255 -0.007296999999999998
v 0.116989 0.046398 -0.007297000000000002
v 0.045328 0.07565300000000003 0.530239
v -0.009967 0.02925500000000003 0.530239
v 0.133356 -0.02925499999999997 0.530239
v 0.116989 0.046398000000000036 0.530239
v 0.0064 -0.046398 0.035268
v -0.009967 0.029255000000000003 0.035268
v 0.0064 -0.046398 -0.007296999999999997
v 0.078061 -0.075653 -0.007296999999999995
v 0.0064 -0.04639799999999997 0.530239
v 0.078061 -0.07565299999999997 0.530239
v -0.152836 0.034126000000000045 0.82675
v -0.035509 0.034126000000000045 0.749274
v 0.004078 0.034126000000000045 0.818355
v -0.137144 0.03412600000000005 0.894472
v -0.035509 -0.030100999999999954 0.749274
v -0.152836 -0.030100999999999947 0.82675
v -0.137144 -0.030100999999999944 0.894472
v 0.004077 -0.03010099999999995 0.818355
v 0.04162 0.035899000000000035 0.545565
v 0.113995 0.035899000000000035 0.570711
v 0.113995 -0.03161899999999997 0.570711
v 0.04162 -0.03161899999999997 0.545565
v -0.137144 0.03412600000000005 0.894472
v -0.137144 -0.030100999999999944 0.894472
v -0.152836 -0.030100999999999947 0.82675
v -0.152836 0.034126000000000045 0.82675
v 0.102974 0.03463800000000002 0.300782
v 0.115192 -0.021839999999999974 0.387554
v 0.073913 -0.05647799999999998 0.300782
v 0.11529 0.01160700000000002 0.352086
v 0.051074 0.05457300000000003 0.410009
v 0.051074 0.05457300000000003 0.410009
vt 0.019804 0.881005
vt 0.019804 0.789708
vt 0.007469 0.775919
vt 0.007469 0.881005
vt 0.032138 0.881005
vt 0.032138 0.775919
vt 0.044472 0.881005
vt 0.044472 0.775919
vt 0.056806 0.881005
vt 0.056272 0.775919
vt 0.069141 0.881005
vt 0.069675 0.775919
vt 0.019804 0.685103
vt 0.019804 0.668256
vt 0.007469 0.668256
vt 0.007469 0.685103
vt 0.007469 0.881005
vt 0.007469 0.897852
vt 0.019804 0.897852
vt 0.019804 0.881005
vt 0.032138 0.685103
vt 0.032138 0.668256
vt 0.032138 0.897852
vt 0.032138 0.881005
vt 0.044472 0.685103
vt 0.044472 0.668256
vt 0.044472 0.897852
vt 0.044472 0.881005
vt 0.056806 0.685103
vt 0.056806 0.668256
vt 0.056806 0.897852
vt 0.056806 0.881005
vt 0.069141 0.685103
vt 0.069141 0.668256
vt 0.069141 0.897852
vt 0.069141 0.881005
vt 0.012749 0.755613
vt 0.019804 0.741575
vt 0.019804 0.685103
vt 0.007469 0.685103
vt 0.032138 0.685103
vt 0.028360 0.761954
vt 0.057247 0.736024
vt 0.043280 0.748321
vt 0.041837 0.724160
vt 0.043280 0.712317
vt 0.057375 0.712341
vt 0.056806 0.685103
vt 0.044472 0.685103
vt 0.058311 0.724183
vt 0.069398 0.732688
vt 0.069141 0.685103
vt 0.027426 0.534019
vt 0.025191 0.584882
vt 0.042015 0.587908
vt 0.041200 0.536903
vt 0.052178 0.535286
vt 0.056585 0.588374
vt 0.071609 0.583682
vt 0.067362 0.527394
vt 0.024815 0.659429
vt 0.039719 0.662349
vt 0.056555 0.658002
vt 0.072896 0.656294
vt 0.081475 0.775918
vt 0.081475 0.881005
vt 0.081475 0.668256
vt 0.081475 0.685103
vt 0.081475 0.897852
vt 0.081475 0.881005
vt 0.172585 0.780132
vt 0.186394 0.828058
vt 0.193299 0.804095
vt 0.186394 0.780132
vt 0.170821 0.873514
vt 0.164047 0.896982
vt 0.170821 0.920449
vt 0.184370 0.920449
vt 0.191145 0.896982
vt 0.184370 0.873514
vt 0.081475 0.685103
vt 0.184520 0.872852
vt 0.170971 0.872852
vt 0.184520 0.919787
vt 0.191295 0.896319
vt 0.186394 0.780132
vt 0.172585 0.780132
vt 0.186394 0.828058
vt 0.193299 0.804095
vt 0.165680 0.804095
vt 0.172585 0.828058
vt 0.164197 0.896319
vt 0.170971 0.919787
vt 0.165680 0.804095
vt 0.172585 0.828058
vt 0.041200 0.536903
vt 0.042015 0.587908
vt 0.056585 0.588374
vt 0.052178 0.535286
vt 0.025191 0.584882
vt 0.027426 0.534019
vt 0.016802 0.532062
vt 0.010424 0.583328
vt 0.039719 0.662349
vt 0.056555 0.658002
vt 0.008462 0.651746
vt 0.024815 0.659429
vt 0.160809 0.464799
vt 0.143480 0.464799
vt 0.142900 0.490616
vt 0.160230 0.490616
vt 0.007469 0.775919
vt 0.019804 0.741575
vt 0.032138 0.775919
vt 0.012749 0.755613
vt 0.069398 0.732688
vt 0.069398 0.732688
vn 0.946106 -0.323857 1.983052192157322E-17
vn 0.918448 -0.307699 0.24854600000000002
vn 0.804043 0.587938 0.08856699999999997
vn 0.766043 0.642789 -3.9359474568856407E-17
vn -0.043178 -0.999067 -9.999999999388247E-07
vn 0.097711 -0.993964 -0.04988599999999994
vn -0.873268 -0.48723 0.00325700000000003
vn -0.704937 -0.708332 0.036463000000000044
vn -0.863566 0.503927 0.01762399999999997
vn -0.988423 0.144255 0.04702499999999999
vn 0.0276 0.999562 0.01069199999999994
vn -0.415543 0.909206 0.025849999999999946
vn 0.473251 -0.27618400000000004 -0.836514
vn 0.926221 -0.12235899999999997 0.356572
vn 0.429837 0.511622 0.743964
vn 0.811629 0.469258 -0.3479300000000001
vn 0.516525 0.614804 0.596002
vn 0.811628 0.46926 -0.3479300000000001
vn 0.473251 -0.27618300000000007 -0.836514
vn 0.926221 -0.12235699999999997 0.356572
vn -0.040337 -0.933397 -0.35657199999999994
vn 0.227868 -0.617085 0.753182
vn -0.040337 -0.933397 -0.3565729999999999
vn 0.227868 -0.617085 0.753182
vn -0.695157 -0.40192000000000005 -0.596002
vn -0.603067 -0.717812 0.3479300000000001
vn -0.695157 -0.40192000000000005 -0.596002
vn -0.516525 -0.614804 0.596002
vn -0.686533 0.40065199999999995 -0.606755
vn -0.652147 0.08615100000000005 0.753182
vn -0.686533 0.40065199999999995 -0.606755
vn -0.926221 0.12235700000000002 0.356572
vn 0.034318 0.794148 -0.606755
vn -0.323633 0.876423 0.35657199999999994
vn 0.034319 0.794148 -0.606755
vn -0.227868 0.617085 0.753182
vn 0.930994 -0.16375600000000004 -0.326242
vn 0.919785 -0.384961 0.07616000000000003
vn 0.991387 -0.130964 8.019232170176698E-18
vn 0.637606 0.770354 -0.0035860000000000475
vn 0.320278 -0.947124 0.01945100000000006
vn 0.774733 -0.605475 -0.18217899999999998
vn -0.963123 0.230133 0.13940299999999997
vn -0.822765 -0.561125 0.09054100000000002
vn -0.928071 -0.371886 -0.019604999999999977
vn -0.931443 -0.304876 -0.19865899999999997
vn -0.955394 0.246618 -0.16248600000000002
vn -0.937048 0.321679 -0.13587800000000003
vn -0.813421 -0.574898 -0.08853799999999996
vn -0.962714 0.258461 -0.07987500000000002
vn -0.279542 0.957973 -0.06437300000000006
vn -0.385501 0.921227 -0.052252000000000055
vn -0.55104 -5.109710181528421E-17 -0.834479
vn -0.709582 -4.314571507778027E-17 -0.704623
vn -0.843387 -3.2900564885473345E-17 -0.537307
vn -0.55104 -5.109710181528421E-17 -0.834479
vn 0.474463 5.3901298055971816E-17 0.880275
vn 0.652034 -9.999999999535743E-07 0.758189
vn 0.805878 -9.999999999637455E-07 0.592081
vn 0.474463 5.3901298055971816E-17 0.880275
vn -0.93521 -2.1682065417204102E-17 -0.354095
vn -0.93521 -2.1682065417204102E-17 -0.354095
vn 0.914013 -9.999999999751588E-07 0.405685
vn 0.914013 2.4841103067944657E-17 0.405686
vn 0.804043 0.587938 0.08856699999999997
vn 0.766043 0.642789 -3.9359474568856407E-17
vn 0.429837 0.511622 0.743964
vn 0.811629 0.469258 -0.3479300000000001
vn 0.811628 0.46926 -0.3479300000000001
vn 0.516525 0.614804 0.596002
vn 0.227868 -0.617085 0.753182
vn -0.227868 0.617085 0.753182
vn 0.516525 0.614804 0.596002
vn 0.926221 -0.12235699999999997 0.356572
vn 0.227868 -0.617085 0.753182
vn -0.603067 -0.717812 0.3479300000000001
vn -0.652147 0.08615100000000005 0.753182
vn -0.323633 0.876423 0.35657199999999994
vn 0.429837 0.511622 0.743964
vn 0.926221 -0.12235899999999997 0.356572
vn 0.637606 0.770354 -0.0035860000000000475
vn 0.034319 0.794148 -0.606755
vn -0.686533 0.40065199999999995 -0.606755
vn 0.473251 -0.27618300000000007 -0.836514
vn 0.811628 0.46926 -0.3479300000000001
vn 0.034318 0.794148 -0.606755
vn -0.686533 0.40065199999999995 -0.606755
vn 0.473251 -0.27618400000000004 -0.836514
vn 0.811629 0.469258 -0.3479300000000001
vn -0.516525 -0.614804 0.596002
vn -0.926221 0.12235700000000002 0.356572
vn -0.695157 -0.40192000000000005 -0.596002
vn -0.040337 -0.933397 -0.3565729999999999
vn -0.695157 -0.40192000000000005 -0.596002
vn -0.040337 -0.933397 -0.35657199999999994
vn 0 1 -6.123233995736766E-17
vn -0.003238 0.999987 0.0039089999999999386
vn -0.002347 0.999996 0.001344999999999939
vn 0 1 -6.123233995736766E-17
vn -0.002078 -0.999995 0.002509000000000061
vn -0 -1 6.123233995736766E-17
vn -0 -1 6.123233995736766E-17
vn -0.003013 -0.999994 0.0017270000000000612
vn -0.002673 0.999967 0.0076919999999999385
vn -0.004857 0.999971 0.005862999999999939
vn -0.004157 -0.999979 0.0050180000000000615
vn -0.002287 -0.999976 0.006583000000000062
vn -0.974188 1.3822404724956303E-17 0.225737
vn -0.974188 1.3822404724956303E-17 0.225737
vn -0.974188 1.3822404724956303E-17 0.225737
vn -0.974188 1.3822404724956303E-17 0.225737
vn 0.804043 0.587938 0.08856699999999997
vn 0.919785 -0.384961 0.07616000000000003
vn 0.097711 -0.993964 -0.04988599999999994
vn 0.930994 -0.16375600000000004 -0.326242
vn -0.279542 0.957973 -0.06437300000000006
vn -0.279542 0.957973 -0.06437300000000006
g 10 - Default
f 108/108/108 111/111/111 110/110/110
f 110/110/110 109/109/109 108/108/108
f 100/100/100 107/107/107 106/106/106
f 106/106/106 103/103/103 100/100/100
f 97/97/97 98/98/98 105/105/105
f 105/105/105 104/104/104 97/97/97
f 63/63/63 58/58/58 59/59/59
f 59/59/59 64/64/64 63/63/63
f 61/61/61 54/54/54 55/55/55
f 55/55/55 62/62/62 61/61/61
f 100/100/100 103/103/103 102/102/102
f 102/102/102 101/101/101 100/100/100
f 96/96/96 99/99/99 98/98/98
f 98/98/98 97/97/97 96/96/96
f 58/58/58 57/57/57 60/60/60
f 60/60/60 59/59/59 58/58/58
f 54/54/54 53/53/53 56/56/56
f 56/56/56 55/55/55 54/54/54
f 94/94/94 87/87/87 88/88/88
f 88/88/88 95/95/95 94/94/94
f 92/92/92 83/83/83 84/84/84
f 84/84/84 93/93/93 92/92/92
f 90/90/90 71/71/71 72/72/72
f 72/72/72 91/91/91 90/90/90
f 86/86/86 89/89/89 88/88/88
f 88/88/88 87/87/87 86/86/86
f 82/82/82 85/85/85 84/84/84
f 84/84/84 83/83/83 82/82/82
f 51/51/51 65/65/65 12/12/12
f 50/50/50 51/51/51 12/12/12
f 45/45/45 44/44/44 6/6/6
f 44/44/44 8/8/8 6/6/6
f 49/49/49 46/46/46 6/6/6
f 6/6/6 41/41/41 49/49/49
f 81/81/81 65/65/65 117/117/117
f 116/116/116 52/52/52 81/81/81
f 50/50/50 47/47/47 51/51/51
f 52/52/52 51/51/51 47/47/47
f 47/47/47 48/48/48 52/52/52
f 12/12/12 43/43/43 50/50/50
f 50/50/50 45/45/45 46/46/46
f 46/46/46 47/47/47 50/50/50
f 43/43/43 44/44/44 45/45/45
f 45/45/45 50/50/50 43/43/43
f 47/47/47 46/46/46 49/49/49
f 49/49/49 48/48/48 47/47/47
f 41/41/41 42/42/42 113/113/113
f 113/113/113 39/39/39 41/41/41
f 115/115/115 113/113/113 42/42/42
f 6/6/6 3/3/3 115/115/115
f 115/115/115 42/42/42 6/6/6
f 2/2/2 3/3/3 6/6/6
f 114/114/114 46/46/46 45/45/45
f 10/10/10 43/43/43 12/12/12
f 10/10/10 8/8/8 44/44/44
f 44/44/44 43/43/43 10/10/10
f 42/42/42 41/41/41 6/6/6
f 40/40/40 39/39/39 3/3/3
f 39/39/39 113/113/113 3/3/3
f 38/38/38 37/37/37 112/112/112
f 79/79/79 75/75/75 80/80/80
f 79/79/79 77/77/77 75/75/75
f 79/79/79 78/78/78 77/77/77
f 77/77/77 76/76/76 75/75/75
f 71/71/71 74/74/74 73/73/73
f 73/73/73 72/72/72 71/71/71
f 35/35/35 36/36/36 70/70/70
f 70/70/70 69/69/69 35/35/35
f 67/67/67 68/68/68 33/33/33
f 33/33/33 34/34/34 67/67/67
f 31/31/31 32/32/32 36/36/36
f 36/36/36 35/35/35 31/31/31
f 34/34/34 33/33/33 29/29/29
f 29/29/29 30/30/30 34/34/34
f 27/27/27 28/28/28 32/32/32
f 32/32/32 31/31/31 27/27/27
f 30/30/30 29/29/29 25/25/25
f 25/25/25 26/26/26 30/30/30
f 23/23/23 24/24/24 28/28/28
f 28/28/28 27/27/27 23/23/23
f 26/26/26 25/25/25 21/21/21
f 21/21/21 22/22/22 26/26/26
f 19/19/19 20/20/20 24/24/24
f 24/24/24 23/23/23 19/19/19
f 22/22/22 21/21/21 13/13/13
f 13/13/13 14/14/14 22/22/22
f 18/18/18 17/17/17 20/20/20
f 20/20/20 19/19/19 18/18/18
f 14/14/14 13/13/13 16/16/16
f 16/16/16 15/15/15 14/14/14
f 65/65/65 66/66/66 11/11/11
f 11/11/11 12/12/12 65/65/65
f 12/12/12 11/11/11 9/9/9
f 9/9/9 10/10/10 12/12/12
f 10/10/10 9/9/9 7/7/7
f 7/7/7 8/8/8 10/10/10
f 8/8/8 7/7/7 5/5/5
f 5/5/5 6/6/6 8/8/8
f 6/6/6 5/5/5 1/1/1
f 1/1/1 2/2/2 6/6/6
f 1/1/1 4/4/4 3/3/3
f 3/3/3 2/2/2 1/1/1
