v 1.097402 0.10324000000000012 2.042184
v 0.874099 -0.04466499999999988 2.089359
v 0.578772 -0.3018709999999999 2.187777
v 0.395035 -1.689443 0.6034640000000001
v 0.395035 -1.689443 -0.19070599999999988
v 0.538377 -1.950835 -0.1952469999999999
v 0.538377 -1.950835 -0.1952469999999999
v 0.538377 -1.950835 0.5989230000000001
v 0.475405 -1.606711 1.060603
v 0.538377 -1.950835 -0.1952469999999999
v 0.775576 -2.054926 -0.19830499999999987
v 0.775576 -2.054926 0.5958650000000001
v 0.618747 -1.868103 1.0560620000000003
v 0.520972 -1.569774 1.168916
v 0.855946 -1.972194 1.0530050000000002
v 0.664313 -1.831167 1.1831090000000002
v 0.901513 -1.935257 1.1613170000000002
v 0.900826 -1.782219 1.171327
v 0.75362 -1.687542 1.193664
v 0.618178 -1.560693 1.178926
v 1.003478 -1.71745 1.233407
v 0.688416 -1.517863 1.219683
v 0.794119 -1.451985 1.249873
v 1.075163 -1.51692 1.319738
v 2.105692 -0.480897 0.19956300000000002
v 2.110303 -0.466602 -0.20836899999999997
v 1.746316 -0.423464 -0.21242899999999998
v 1.741705 -0.437759 0.22519100000000003
v 2.0969 -0.537992 0.547476
v 1.732911 -0.49485399999999996 0.589374
v 2.091253 -0.570623 0.579768
v 1.727265 -0.527484 0.621666
v 2.060662 -0.729527 0.683427
v 1.812099 -0.686589 0.699934
v 1.748288 -0.795023 0.759873
v 1.870216 -0.921309 0.7669450000000001
v 1.690853 -0.856326 0.801162
v 2.105641 -0.977483 0.7032960000000001
v 2.191084 -0.64341 0.569748
v 1.98116 -1.036217 0.7592290000000002
v 2.258217 -1.036671 0.6072420000000001
v 1.923724 -1.097519 0.7946020000000001
v 2.224016 -0.628864 0.514408
v 1.885442 -1.145434 0.8385820000000002
v 2.29091 -1.033036 0.5519030000000001
v 1.652571 -0.904241 0.845142
v 2.336748 -0.569495 -0.19607399999999997
v 2.407348 -0.985795 -0.19068699999999994
v 1.786313 -1.241909 1.261239
v 1.553442 -1.016985 1.31143
v 1.764096 -1.260843 1.286198
v 1.531226 -1.035919 1.336389
v 1.444486 -1.457729 1.287298
v 1.329753 -1.069744 1.343652
v 1.075163 -1.51692 1.319738
v 1.201942 -1.045987 1.361302
v 1.201942 -1.045987 1.361302
v 1.11428 -1.003229 1.373777
v 0.985592 -1.219116 1.347127
v 0.985592 -1.219116 1.347127
v 1.075163 -1.51692 1.319738
v 0.774122 -1.25232 1.30923
v 0.794119 -1.451985 1.249873
v 0.802553 -1.162274 1.488147
v 0.932108 -1.088814 1.498855
v 1.086253 -0.9786289999999999 1.512452
v 0.790732 -1.135468 1.661458
v 1.077406 -0.9278199999999999 1.685764
v 0.754434 -1.095904 1.713964
v 1.053249 -0.8909669999999998 1.738268
v 0.653533 -0.9217639999999999 2.060395
v 0.959558 -0.7379039999999999 2.004094
v 0.561095 -0.8496779999999999 2.143685
v 0.865702 -0.6139439999999999 2.070189
v 2.047235 1.190976 0.6658689999999999
v 2.109772 1.263351 -0.15701800000000007
v 1.684122 1.610685 -0.15403400000000012
v 1.621586 1.538309 0.6688539999999998
v 1.936639 1.080729 0.8343429999999998
v 1.510988 1.428062 0.8373279999999999
v 1.883394 1.02881 0.9146259999999999
v 1.457743 1.376142 0.9176109999999998
v 1.822648 0.8840300000000001 0.984513
v 1.415671 1.223783 0.9915649999999999
v 1.75457 0.7805190000000001 1.363197
v 1.380499 1.088041 1.395885
v 1.725975 0.7530950000000001 1.411396
v 1.365278 1.057967 1.457387
v 1.349144 0.5560780000000001 1.605302
v 0.999015 0.8126970000000001 1.621428
v 1.097524 0.2865890000000001 1.917038
v 0.818452 0.4134240000000001 1.923104
v 1.019444 0.1995110000000001 1.920603
v 1.097524 0.2865890000000001 1.917038
v 0.818452 0.4134240000000001 1.923104
v 0.764345 0.29498000000000013 1.935173
v 0.98971 0.1550790000000001 2.012295
v 0.727615 0.1934050000000001 2.034106
v 0.874099 -0.04466499999999988 2.089359
v 0.624546 0.10558900000000013 2.048096
v 0.578772 -0.3018709999999999 2.187777
v 0.365226 0.09225400000000013 2.09156
v 0.253416 0.05502900000000014 2.228563
v 0.284827 -0.2712239999999999 2.263381
v 0.160593 0.04690800000000014 2.302514
v 0.226239 -0.5724579999999999 2.228563
v 0.192386 -0.2705279999999998 2.337332
v 0.133415 -0.5805789999999998 2.302514
v -0.104745 -0.5380289999999998 2.838426
v 0.35317 -0.6825489999999999 2.196359
v -0.012837 -0.22720599999999982 2.862152
v 0.005365 0.12438800000000018 2.838426
v -0.919288 -0.36956799999999984 3.083275
v -0.819685 0.1744810000000002 3.083275
v -0.867431 -0.08631599999999981 3.124072
v -1.722856 0.013596000000000191 3.103221
v -1.752473 -0.4576279999999998 3.062425
v -1.692038 0.5039360000000003 3.062425
v 0.561095 -0.8496779999999999 2.143685
v 0.865702 -0.6139439999999999 2.070189
v 1.208187 -0.18394699999999986 2.08432
v 1.097402 0.10324000000000012 2.042184
v 1.182521 -0.6489589999999998 1.957811
v 1.152895 0.12018300000000012 2.004161
v 1.274119 -0.16256699999999985 2.046298
v 1.242666 -0.6389989999999999 1.919788
v 1.198315 0.12736600000000012 1.932151
v 1.315078 -0.1428429999999999 1.938422
v 1.28981 -0.6460279999999999 1.853632
v 1.308697 0.15082700000000007 1.475946
v 1.462497 -0.13760799999999992 1.482217
v 1.277668 0.186679 0.132754
v 1.403058 -0.6545789999999999 1.455356
v 1.451374 -0.137776 0.139024
v 1.397481 -0.661733 0.11216300000000004
vt 0.322549 0.451274
vt 0.314368 0.238043
vt 0.558201 0.212788
vt 0.160652 0.501311
vt 0.038389 0.501311
vt 0.001871 0.239027
vt 0.001871 0.239027
vt 0.124134 0.239027
vt 0.303842 0.496182
vt 0.001871 0.239027
vt 0.029261 0.009617
vt 0.151525 0.009617
vt 0.267324 0.233898
vt 0.394264 0.492814
vt 0.294715 0.004488
vt 0.364866 0.230530
vt 0.385136 0.001120
vt 0.470772 0.004875
vt 0.456335 0.235196
vt 0.461459 0.499841
vt 0.554564 0.024509
vt 0.544338 0.494628
vt 0.759694 0.488519
vt 0.781144 0.077249
vt 0.095102 0.380330
vt 0.008119 0.494656
vt 0.005306 0.004635
vt 0.151173 0.013598
vt 0.168213 0.282723
vt 0.197222 0.013989
vt 0.212556 0.269730
vt 0.282660 0.013641
vt 0.251914 0.205506
vt 0.321804 0.009127
vt 0.334203 0.001038
vt 0.342543 0.215896
vt 0.393000 -0.006501
vt 0.240385 0.480521
vt 0.206490 0.122546
vt 0.315130 0.477100
vt 0.200154 0.485227
vt 0.391239 0.475883
vt 0.108802 0.096746
vt 0.434865 0.485510
vt 0.092727 0.494630
vt 0.436625 0.006287
vt 0.018968 0.004207
vt -0.000766 0.476921
vt 0.491890 0.488376
vt 0.486354 0.012883
vt 0.580813 0.489392
vt 0.581469 0.002545
vt 0.675433 0.494714
vt 0.668982 0.007693
vt 0.817939 0.496174
vt 0.818655 0.006801
vt 0.211256 0.082820
vt 0.326978 0.058239
vt 0.313135 0.250940
vt 0.313135 0.250940
vt 0.203073 0.287512
vt 0.319198 0.459890
vt 0.197162 0.449750
vt 0.420221 0.488276
vt 0.424521 0.259972
vt 0.436134 0.011194
vt 0.500239 0.491009
vt 0.498206 0.048175
vt 0.549379 0.520773
vt 0.549612 0.063232
vt 0.707440 0.555131
vt 0.709184 0.083678
vt 0.809203 0.610556
vt 0.797852 0.095581
vt 0.237434 0.460473
vt 0.011223 0.462648
vt 0.011859 0.021804
vt 0.238070 0.019628
vt 0.303314 0.447113
vt 0.303950 0.006268
vt 0.339110 0.440294
vt 0.339745 -0.000551
vt 0.397825 0.478612
vt 0.398220 0.053227
vt 0.512091 0.478666
vt 0.519793 0.090088
vt 0.532511 0.474771
vt 0.542180 0.095856
vt 0.660109 0.476501
vt 0.666979 -0.000454
vt 0.830974 0.491613
vt 0.841003 0.001608
vt 0.163386 0.035172
vt 0.126875 0.029358
vt 0.125643 0.464806
vt 0.255051 0.456960
vt 0.264628 0.121565
vt 0.304801 0.437832
vt 0.314368 0.238043
vt 0.414955 0.445929
vt 0.558201 0.212788
vt 0.523601 0.452329
vt 0.605531 0.450585
vt 0.586113 0.211091
vt 0.670596 0.445818
vt 0.591185 0.004051
vt 0.668136 0.218797
vt 0.671214 -0.000716
vt 0.736312 -0.004064
vt 0.468232 0.006035
vt 0.735050 0.228566
vt 0.739927 0.459345
vt 0.836883 0.013145
vt 0.828615 0.443718
vt 0.839075 0.262237
vt 0.997349 0.242320
vt 0.996311 0.014435
vt 1.000632 0.445561
vt 0.343310 0.035798
vt 0.339126 0.131254
vt 0.243291 0.291656
vt 0.322549 0.451274
vt 0.237014 0.066088
vt 0.249085 0.450648
vt 0.226498 0.302125
vt 0.206786 0.040149
vt 0.222516 0.458681
vt 0.178236 0.309342
vt 0.148598 0.021357
vt 0.179374 0.467987
vt 0.158419 0.313618
vt 0.057964 0.466282
vt 0.144034 0.000168
vt 0.064348 0.237534
vt 0.062914 0.007650
vn 0.156005 0.34645300000000007 0.925004
vn -0.008028 0.33327300000000004 0.942796
vn 0.198334 0.14544300000000004 0.969283
vn -0.873518 -0.480385 0.07872400000000003
vn -0.876816 -0.480826 2.944210109234126E-17
vn -0.754079 -0.656783 4.0216359934219803E-17
vn -0.754079 -0.656783 4.0216359934219803E-17
vn -0.66765 -0.734107 0.12381600000000004
vn -0.82967 -0.460456 0.31563900000000006
vn -0.754079 -0.656783 4.0216359934219803E-17
vn -0.401842 -0.915709 5.607100479002119E-17
vn -0.395374 -0.905497 0.15412300000000007
vn -0.629361 -0.696595 0.3444710000000001
vn -0.512939 -0.24394599999999994 0.823033
vn -0.363738 -0.864723 0.34633600000000003
vn -0.295013 -0.45935999999999994 0.837828
vn -0.15656 -0.531101 0.832719
vn -0.01964 -0.23504699999999995 0.971786
vn -0.147591 -0.18946999999999994 0.970731
vn -0.232345 -0.13618899999999995 0.963052
vn -0.208684 -0.30081899999999995 0.930569
vn -0.231799 -0.22624199999999994 0.946089
vn -0.250368 -0.25885299999999994 0.932905
vn -0.087724 -0.17730099999999993 0.980239
vn 0.121779 0.989488 0.07799099999999995
vn 0.117219 0.99245 0.03610299999999994
vn 0.118592 0.99233 0.03488899999999994
vn 0.127376 0.984781 0.11823999999999994
vn 0.148159 0.920488 0.36159299999999994
vn 0.160597 0.816609 0.554399
vn 0.162058 0.62867 0.7606
vn 0.155415 0.567947 0.808259
vn 0.254617 0.3362490000000001 0.906701
vn 0.13751 0.4584730000000001 0.878006
vn 0.2039 0.32930800000000005 0.921944
vn 0.274317 0.23230900000000004 0.933158
vn 0.357385 0.34019600000000005 0.869795
vn 0.442329 0.17837000000000006 0.878937
vn 0.667631 0.18083700000000005 0.722196
vn 0.308306 0.23578400000000005 0.921604
vn 0.756681 0.18697800000000003 0.626477
vn 0.33778 0.2894280000000001 0.89562
vn 0.891594 0.18771300000000002 0.412097
vn 0.541672 0.504699 0.672212
vn 0.941792 0.17920100000000003 0.284456
vn 0.632995 0.593711 0.4968159999999999
vn 0.971109 0.171587 0.165849
vn 0.972372 0.167014 0.163092
vn 0.660196 0.582041 0.47473099999999996
vn 0.605706 0.48662800000000006 0.629534
vn 0.405095 0.22146600000000005 0.887046
vn 0.238109 0.04239800000000006 0.970313
vn 0.082287 -0.12399399999999994 0.988865
vn 0.092083 -0.11914899999999995 0.988597
vn -0.087724 -0.17730099999999993 0.980239
vn 0.061243 -0.12232599999999995 0.990599
vn 0.061243 -0.12232599999999995 0.990599
vn 0.472236 -0.534246 0.701124
vn 0.174436 -0.4476919999999999 0.877008
vn 0.174436 -0.4476919999999999 0.877008
vn -0.087724 -0.17730099999999993 0.980239
vn -0.142925 -0.49142099999999994 0.859114
vn -0.250368 -0.25885299999999994 0.932905
vn 0.298147 -0.842794 0.44811400000000007
vn 0.531857 -0.754209 0.3850930000000001
vn 0.54694 -0.796833 0.2567360000000001
vn 0.486027 -0.781594 0.3910100000000001
vn 0.481758 -0.732589 0.48085700000000003
vn 0.412916 -0.665709 0.621556
vn 0.454301 -0.685232 0.56927
vn 0.463544 -0.616923 0.636029
vn 0.439019 -0.44157399999999997 0.78248
vn 0.345386 -0.21391299999999994 0.913756
vn 0.272795 -0.15844199999999994 0.948936
vn 0.601005 0.733799 0.3167519999999999
vn 0.628488 0.769209 0.11541699999999996
vn 0.628488 0.769209 0.11541699999999996
vn 0.544915 0.663377 0.512835
vn 0.467668 0.567294 0.677838
vn 0.467792 0.567449 0.677622
vn 0.409097 0.4947540000000001 0.766719
vn 0.353148 0.41908900000000004 0.836451
vn 0.425737 0.500967 0.753512
vn 0.549847 0.642596 0.533609
vn 0.595429 0.684714 0.42027499999999995
vn 0.59076 0.654668 0.47160599999999997
vn 0.506279 0.509895 0.695477
vn 0.414195 0.41174600000000006 0.811731
vn 0.329358 0.34690600000000005 0.878168
vn 0.301302 0.43218200000000007 0.849962
vn 0.238305 0.35910400000000003 0.902361
vn 0.123753 0.20306400000000005 0.971314
vn 0.163759 0.32973800000000003 0.929761
vn 0.238305 0.35910400000000003 0.902361
vn 0.123753 0.20306400000000005 0.971314
vn 0.205742 0.553602 0.806967
vn 0.212437 0.613515 0.760573
vn 0.082347 0.39727000000000007 0.914
vn -0.008028 0.33327300000000004 0.942796
vn 0.04639 0.27775800000000006 0.95953
vn 0.198334 0.14544300000000004 0.969283
vn 0.393037 0.41346400000000005 0.821322
vn 0.511468 0.2604620000000001 0.818877
vn 0.481764 0.010910000000000053 0.876233
vn 0.814187 0.10181200000000004 0.571607
vn 0.421773 -0.16698899999999994 0.891192
vn 0.79371 -0.11107399999999996 0.598069
vn 0.772102 -0.21404599999999996 0.598367
vn 0.73769 -0.23770199999999997 0.631911
vn 0.223814 -0.07302199999999995 0.971893
vn 0.626451 -0.06128699999999995 0.777048
vn 0.709048 0.010871000000000044 0.705077
vn 0.116461 -0.13990799999999995 0.983292
vn 0.150299 0.09616100000000005 0.983953
vn 0.133027 -0.01830199999999994 0.990943
vn -0.013708 0.004414000000000062 0.999896
vn -0.015921 -0.08524799999999995 0.996233
vn 0.00732 0.08245400000000006 0.996568
vn 0.345386 -0.21391299999999994 0.913756
vn 0.272795 -0.15844199999999994 0.948936
vn 0.355012 0.016802000000000056 0.934711
vn 0.156005 0.34645300000000007 0.925004
vn 0.465867 -0.2563559999999999 0.846906
vn 0.557772 0.34408400000000006 0.755312
vn 0.733846 0.07847500000000004 0.674768
vn 0.785951 -0.18466099999999996 0.590069
vn 0.836568 0.391396 0.383358
vn 0.917662 0.14553100000000002 0.369753
vn 0.911551 -0.12201599999999997 0.392666
vn 0.880267 0.442929 0.17013099999999998
vn 0.971194 0.187448 0.147121
vn 0.882038 0.471116 -0.007595000000000029
vn 0.989529 -0.114297 0.08814200000000001
vn 0.996025 0.088825 -0.006650000000000005
vn 0.994764 -0.102134 -0.003585999999999994
g water
f 1/1/1 2/2/2 3/3/3
f 4/4/4 5/5/5 6/6/6
f 7/7/7 8/8/8 4/4/4
f 9/9/9 4/4/4 8/8/8
f 8/8/8 10/10/10 11/11/11
f 11/11/11 12/12/12 8/8/8
f 8/8/8 13/13/13 9/9/9
f 13/13/13 8/8/8 12/12/12
f 14/14/14 9/9/9 13/13/13
f 12/12/12 15/15/15 13/13/13
f 16/16/16 13/13/13 15/15/15
f 13/13/13 16/16/16 14/14/14
f 15/15/15 17/17/17 16/16/16
f 16/16/16 17/17/17 18/18/18
f 14/14/14 16/16/16 19/19/19
f 18/18/18 19/19/19 16/16/16
f 19/19/19 20/20/20 14/14/14
f 19/19/19 18/18/18 21/21/21
f 22/22/22 20/20/20 19/19/19
f 21/21/21 22/22/22 19/19/19
f 23/23/23 22/22/22 21/21/21
f 21/21/21 24/24/24 23/23/23
f 25/25/25 26/26/26 27/27/27
f 27/27/27 28/28/28 25/25/25
f 29/29/29 25/25/25 28/28/28
f 28/28/28 30/30/30 29/29/29
f 31/31/31 29/29/29 30/30/30
f 30/30/30 32/32/32 31/31/31
f 33/33/33 31/31/31 32/32/32
f 32/32/32 34/34/34 33/33/33
f 33/33/33 34/34/34 35/35/35
f 35/35/35 36/36/36 33/33/33
f 36/36/36 35/35/35 37/37/37
f 38/38/38 33/33/33 36/36/36
f 39/39/39 33/33/33 38/38/38
f 36/36/36 40/40/40 38/38/38
f 38/38/38 41/41/41 39/39/39
f 42/42/42 40/40/40 36/36/36
f 37/37/37 42/42/42 36/36/36
f 43/43/43 39/39/39 41/41/41
f 44/44/44 42/42/42 37/37/37
f 41/41/41 45/45/45 43/43/43
f 37/37/37 46/46/46 44/44/44
f 47/47/47 43/43/43 45/45/45
f 45/45/45 48/48/48 47/47/47
f 49/49/49 44/44/44 46/46/46
f 46/46/46 50/50/50 49/49/49
f 51/51/51 49/49/49 50/50/50
f 50/50/50 52/52/52 51/51/51
f 53/53/53 51/51/51 52/52/52
f 52/52/52 54/54/54 53/53/53
f 55/55/55 53/53/53 54/54/54
f 54/54/54 56/56/56 55/55/55
f 57/57/57 58/58/58 59/59/59
f 60/60/60 61/61/61 57/57/57
f 62/62/62 63/63/63 61/61/61
f 61/61/61 60/60/60 62/62/62
f 64/64/64 62/62/62 60/60/60
f 65/65/65 60/60/60 58/58/58
f 60/60/60 65/65/65 64/64/64
f 58/58/58 66/66/66 65/65/65
f 67/67/67 64/64/64 65/65/65
f 65/65/65 66/66/66 68/68/68
f 68/68/68 67/67/67 65/65/65
f 69/69/69 67/67/67 68/68/68
f 68/68/68 70/70/70 69/69/69
f 71/71/71 69/69/69 70/70/70
f 70/70/70 72/72/72 71/71/71
f 73/73/73 71/71/71 72/72/72
f 72/72/72 74/74/74 73/73/73
f 75/75/75 76/76/76 77/77/77
f 77/77/77 78/78/78 75/75/75
f 79/79/79 75/75/75 78/78/78
f 78/78/78 80/80/80 79/79/79
f 81/81/81 79/79/79 80/80/80
f 80/80/80 82/82/82 81/81/81
f 83/83/83 81/81/81 82/82/82
f 82/82/82 84/84/84 83/83/83
f 85/85/85 83/83/83 84/84/84
f 84/84/84 86/86/86 85/85/85
f 87/87/87 85/85/85 86/86/86
f 86/86/86 88/88/88 87/87/87
f 89/89/89 87/87/87 88/88/88
f 88/88/88 90/90/90 89/89/89
f 91/91/91 89/89/89 90/90/90
f 90/90/90 92/92/92 91/91/91
f 93/93/93 94/94/94 95/95/95
f 95/95/95 96/96/96 93/93/93
f 97/97/97 93/93/93 96/96/96
f 96/96/96 98/98/98 97/97/97
f 99/99/99 97/97/97 98/98/98
f 98/98/98 100/100/100 99/99/99
f 101/101/101 99/99/99 100/100/100
f 100/100/100 102/102/102 101/101/101
f 101/101/101 102/102/102 103/103/103
f 103/103/103 104/104/104 101/101/101
f 104/104/104 103/103/103 105/105/105
f 101/101/101 104/104/104 106/106/106
f 105/105/105 107/107/107 104/104/104
f 106/106/106 104/104/104 107/107/107
f 107/107/107 108/108/108 106/106/106
f 109/109/109 108/108/108 107/107/107
f 106/106/106 110/110/110 101/101/101
f 107/107/107 111/111/111 109/109/109
f 111/111/111 107/107/107 105/105/105
f 105/105/105 112/112/112 111/111/111
f 113/113/113 109/109/109 111/111/111
f 111/111/111 112/112/112 114/114/114
f 111/111/111 115/115/115 113/113/113
f 114/114/114 115/115/115 111/111/111
f 113/113/113 115/115/115 116/116/116
f 116/116/116 115/115/115 114/114/114
f 116/116/116 117/117/117 113/113/113
f 114/114/114 118/118/118 116/116/116
f 110/110/110 119/119/119 120/120/120
f 120/120/120 101/101/101 110/110/110
f 121/121/121 101/101/101 120/120/120
f 101/101/101 121/121/121 122/122/122
f 120/120/120 123/123/123 121/121/121
f 124/124/124 122/122/122 121/121/121
f 125/125/125 121/121/121 123/123/123
f 121/121/121 125/125/125 124/124/124
f 123/123/123 126/126/126 125/125/125
f 127/127/127 124/124/124 125/125/125
f 128/128/128 125/125/125 126/126/126
f 125/125/125 128/128/128 127/127/127
f 126/126/126 129/129/129 128/128/128
f 130/130/130 127/127/127 128/128/128
f 131/131/131 128/128/128 129/129/129
f 128/128/128 131/131/131 130/130/130
f 132/132/132 130/130/130 131/131/131
f 129/129/129 133/133/133 131/131/131
f 131/131/131 134/134/134 132/132/132
f 134/134/134 131/131/131 133/133/133
f 133/133/133 135/135/135 134/134/134
