v 1.074615 0.09328900000000012 2.01651
v 0.869169 -0.04565799999999987 2.060089
v 0.576672 -0.3003989999999999 2.167236
v 0.407631 -1.666514 0.6115250000000001
v 0.407631 -1.666514 -0.17503499999999989
v 0.549599 -1.925402 -0.1795329999999999
v 0.549599 -1.925402 -0.1795329999999999
v 0.549599 -1.925402 0.6070280000000001
v 0.491295 -1.581492 1.064284
v 0.549599 -1.925402 -0.1795329999999999
v 0.784526 -2.028495 -0.1825609999999999
v 0.784526 -2.028495 0.6039990000000001
v 0.633263 -1.84038 1.0597860000000001
v 0.52819 -1.545755 1.150038
v 0.86819 -1.943473 1.0567580000000003
v 0.670159 -1.804643 1.164095
v 0.905085 -1.907736 1.1425120000000002
v 0.89564 -1.766562 1.142512
v 0.749844 -1.672792 1.164635
v 0.6157 -1.547159 1.150038
v 0.997308 -1.702414 1.200008
v 0.685264 -1.504739 1.186415
v 0.789954 -1.439492 1.228285
v 1.068306 -1.503805 1.297481
v 2.10835 -0.497296 0.21149300000000001
v 2.10835 -0.480206 -0.19252899999999998
v 1.74785 -0.437481 -0.19654999999999997
v 1.74785 -0.454571 0.23687600000000003
v 2.092801 -0.56004 0.542487
v 1.732301 -0.517315 0.583983
v 2.087208 -0.592358 0.57447
v 1.726709 -0.549633 0.615966
v 2.044361 -0.723957 0.650764
v 1.79818 -0.681431 0.667113
v 1.728936 -0.817661 0.752532
v 1.849695 -0.942736 0.7595360000000001
v 1.672051 -0.878375 0.793425
v 2.088909 -0.969537 0.6704430000000001
v 2.146581 -0.650822 0.578132
v 1.959576 -1.056543 0.7518940000000001
v 2.21307 -1.040316 0.6152670000000001
v 1.902691 -1.117258 0.7869280000000001
v 2.179196 -0.636416 0.523322
v 1.85728 -1.152261 0.8314840000000001
v 2.24545 -1.036715 0.5604570000000001
v 1.626641 -0.913379 0.8379810000000001
v 2.305289 -0.567862 -0.18035199999999998
v 2.375212 -0.980173 -0.17501599999999995
v 1.755594 -1.24627 1.244197
v 1.524955 -1.023501 1.293907
v 1.73359 -1.265023 1.268916
v 1.502952 -1.042254 1.318626
v 1.434091 -1.445182 1.262813
v 1.320457 -1.060914 1.318626
v 1.068306 -1.503805 1.297481
v 1.19387 -1.037385 1.338646
v 2.020938 1.164905 0.6733319999999999
v 2.083027 1.236888 -0.14167000000000007
v 1.661455 1.580894 -0.1387140000000001
v 1.599367 1.508909 0.6762879999999999
v 1.921527 1.068953 0.8175429999999999
v 1.499955 1.412957 0.8204989999999999
v 1.868792 1.017531 0.8970569999999999
v 1.44722 1.361535 0.9000129999999998
v 1.801042 0.8594490000000001 0.988922
v 1.397964 1.195947 0.9959069999999999
v 1.724428 0.7652720000000001 1.338165
v 1.353942 1.069847 1.37054
v 1.696106 0.7381110000000001 1.385902
v 1.338866 1.040062 1.431453
v 1.339661 0.5493290000000001 1.567825
v 0.992888 0.8034890000000001 1.583797
v 1.090453 0.2824220000000001 1.887848
v 0.814055 0.4080420000000001 1.893856
v 1.013121 0.1961790000000001 1.890411
v 1.090453 0.2824220000000001 1.887848
v 0.814055 0.4080420000000001 1.893856
v 0.760466 0.29073300000000013 1.904842
v 0.983672 0.1521720000000001 1.983704
v 0.724088 0.1901310000000001 2.005306
v 0.869169 -0.04565799999999987 2.060089
v 0.622007 0.10315600000000012 2.019222
v 0.576672 -0.3003989999999999 2.167236
v 0.365172 0.08995000000000013 2.049454
v 0.213388 0.053081000000000135 2.195313
v 0.244498 -0.2700459999999999 2.229797
v 0.121454 0.04503800000000014 2.268555
v 0.186471 -0.5683929999999999 2.195313
v 0.152942 -0.2693559999999998 2.30304
v 0.094537 -0.5764359999999998 2.268555
v -0.144939 -0.5342939999999998 2.80986
v 0.353231 -0.6774289999999998 2.171143
v -0.053911 -0.22644899999999984 2.833359
v -0.035883 0.12177600000000016 2.80986
v -0.907034 -0.36744699999999986 3.045532
v -0.808385 0.1713890000000002 3.045532
v -0.855674 -0.0869099999999998 3.085938
v -1.702902 0.01204500000000019 3.078125
v -1.732235 -0.4546629999999998 3.03772
v -1.672379 0.49768700000000016 3.03772
v 0.559163 -0.8429569999999998 2.117432
v 0.860852 -0.6094819999999999 2.04464
v 1.184338 -0.19114699999999987 2.058243
v 1.074615 0.09328900000000012 2.01651
v 1.158918 -0.6517029999999999 1.932945
v 1.129576 0.11007000000000013 1.978851
v 1.249639 -0.1699709999999999 2.020584
v 1.218487 -0.6418379999999999 1.895287
v 1.17456 0.11718400000000011 1.907532
v 1.290205 -0.15043599999999988 1.913742
v 1.265179 -0.6487999999999999 1.829765
v 1.277038 0.1479610000000001 1.475647
v 1.429366 -0.13770999999999992 1.481857
v 1.257324 0.183636 0.145325
v 1.370496 -0.6497269999999999 1.455254
v 1.429366 -0.13771 0.151535
v 1.375989 -0.656647 0.12493100000000004
v 0.953809 -0.7322539999999998 1.979027
v 0.860852 -0.6094819999999999 2.04464
v 0.559163 -0.8429569999999998 2.117432
v 0.650716 -0.9143529999999999 2.034789
v 1.035963 -0.8839409999999999 1.712242
v 0.740012 -1.086914 1.68817
v 1.059888 -0.9204409999999998 1.66024
v 0.775962 -1.126099 1.636168
v 0.913202 -1.065535 1.498336
v 1.06587 -0.9564059999999999 1.511803
v 0.784888 -1.138291 1.487731
v 1.0978 -0.9831929999999999 1.360069
v 0.970344 -1.197012 1.333675
v 1.19387 -1.037385 1.338646
v 0.760901 -1.229897 1.296141
v 1.068306 -1.503805 1.297481
v 0.789954 -1.439492 1.228285
vt 0.322549 0.451274
vt 0.314368 0.238043
vt 0.558201 0.212788
vt 0.160652 0.501311
vt 0.038389 0.501311
vt 0.001871 0.239027
vt 0.001871 0.239027
vt 0.124134 0.239027
vt 0.303842 0.496182
vt 0.001871 0.239027
vt 0.029261 0.009617
vt 0.151525 0.009617
vt 0.267324 0.233898
vt 0.394264 0.492814
vt 0.294715 0.004488
vt 0.364866 0.230530
vt 0.385136 0.001120
vt 0.470772 0.004875
vt 0.456335 0.235196
vt 0.461459 0.499841
vt 0.554564 0.024509
vt 0.544338 0.494628
vt 0.759694 0.488519
vt 0.781144 0.077249
vt 0.095102 0.380330
vt 0.008119 0.494656
vt 0.005306 0.004635
vt 0.151173 0.013598
vt 0.168213 0.282723
vt 0.197222 0.013989
vt 0.212556 0.269730
vt 0.282660 0.013641
vt 0.251914 0.205506
vt 0.321804 0.009127
vt 0.334203 0.001038
vt 0.342543 0.215896
vt 0.393000 -0.006501
vt 0.240385 0.480521
vt 0.206490 0.122546
vt 0.315130 0.477100
vt 0.200154 0.485227
vt 0.391239 0.475883
vt 0.108802 0.096746
vt 0.434865 0.485510
vt 0.092727 0.494630
vt 0.436625 0.006287
vt 0.018968 0.004207
vt -0.000766 0.476921
vt 0.491890 0.488376
vt 0.486354 0.012883
vt 0.580813 0.489392
vt 0.581469 0.002545
vt 0.675433 0.494714
vt 0.668982 0.007693
vt 0.817939 0.496174
vt 0.818655 0.006801
vt 0.237434 0.460473
vt 0.011223 0.462648
vt 0.011859 0.021804
vt 0.238070 0.019628
vt 0.303314 0.447113
vt 0.303950 0.006268
vt 0.339110 0.440294
vt 0.339745 -0.000551
vt 0.397825 0.478612
vt 0.398220 0.053227
vt 0.512091 0.478666
vt 0.519793 0.090088
vt 0.532511 0.474771
vt 0.542180 0.095856
vt 0.660109 0.476501
vt 0.666979 -0.000454
vt 0.830974 0.491613
vt 0.841003 0.001608
vt 0.163386 0.035172
vt 0.126875 0.029358
vt 0.125643 0.464806
vt 0.255051 0.456960
vt 0.264628 0.121565
vt 0.304801 0.437832
vt 0.314368 0.238043
vt 0.414955 0.445929
vt 0.558201 0.212788
vt 0.523601 0.452329
vt 0.605531 0.450585
vt 0.586113 0.211091
vt 0.670596 0.445818
vt 0.591185 0.004051
vt 0.668136 0.218797
vt 0.671214 -0.000716
vt 0.736312 -0.004064
vt 0.468232 0.006035
vt 0.735050 0.228566
vt 0.739927 0.459345
vt 0.836883 0.013145
vt 0.828615 0.443718
vt 0.839075 0.262237
vt 0.997349 0.242320
vt 0.996311 0.014435
vt 1.000632 0.445561
vt 0.343310 0.035798
vt 0.339126 0.131254
vt 0.243291 0.291656
vt 0.322549 0.451274
vt 0.237014 0.066088
vt 0.249085 0.450648
vt 0.226498 0.302125
vt 0.206786 0.040149
vt 0.222516 0.458681
vt 0.178236 0.309342
vt 0.148598 0.021357
vt 0.179374 0.467987
vt 0.158419 0.313618
vt 0.057964 0.466282
vt 0.144034 0.000168
vt 0.064348 0.237534
vt 0.062914 0.007650
vt 0.709184 0.083678
vt 0.797852 0.095581
vt 0.809203 0.610556
vt 0.707440 0.555131
vt 0.549612 0.063232
vt 0.549379 0.520773
vt 0.498206 0.048175
vt 0.500239 0.491009
vt 0.424521 0.259972
vt 0.436134 0.011194
vt 0.420221 0.488276
vt 0.326978 0.058239
vt 0.313135 0.250940
vt 0.211256 0.082820
vt 0.319198 0.459890
vt 0.203073 0.287512
vt 0.197162 0.449750
vn 0.130497 0.39237200000000005 0.910502
vn -0.029388 0.36884700000000004 0.929025
vn 0.160399 0.16557700000000006 0.973065
vn -0.873246 -0.480297 0.08219600000000003
vn -0.876816 -0.480826 2.944210109234126E-17
vn -0.754079 -0.656783 4.0216359934219803E-17
vn -0.754079 -0.656783 4.0216359934219803E-17
vn -0.667021 -0.733768 0.12909900000000005
vn -0.824278 -0.457803 0.3331410000000001
vn -0.754079 -0.656783 4.0216359934219803E-17
vn -0.401842 -0.915709 5.607100479002119E-17
vn -0.394916 -0.904633 0.16024900000000006
vn -0.624101 -0.691541 0.36368900000000004
vn -0.471914 -0.20442599999999994 0.857617
vn -0.35709 -0.853686 0.37908600000000003
vn -0.267328 -0.42381699999999994 0.865399
vn -0.130598 -0.47929799999999995 0.867881
vn 0.007064 -0.18804499999999993 0.982135
vn -0.10516 -0.14424899999999993 0.983938
vn -0.168399 -0.06553099999999995 0.983538
vn -0.214331 -0.3198289999999999 0.922915
vn -0.233783 -0.23361299999999993 0.943806
vn -0.269779 -0.31050199999999994 0.911487
vn -0.077272 -0.19788399999999995 0.977175
vn 0.12238 0.988324 0.09076999999999995
vn 0.117127 0.99223 0.04197099999999994
vn 0.118723 0.9921 0.04054199999999994
vn 0.128801 0.982078 0.13759899999999994
vn 0.14887 0.913593 0.37839899999999993
vn 0.160822 0.811906 0.561199
vn 0.161606 0.610628 0.775252
vn 0.151539 0.524238 0.83798
vn 0.255415 0.32561900000000005 0.910349
vn 0.13598 0.4473150000000001 0.883979
vn 0.219269 0.3599470000000001 0.90684
vn 0.302378 0.24984700000000007 0.919861
vn 0.368012 0.35073100000000007 0.861136
vn 0.424992 0.18863900000000006 0.885323
vn 0.612161 0.17537700000000006 0.771039
vn 0.337179 0.26488100000000003 0.903409
vn 0.732672 0.18555700000000003 0.654798
vn 0.345066 0.29657600000000006 0.89049
vn 0.888504 0.18780800000000003 0.418675
vn 0.551571 0.514685 0.656406
vn 0.937505 0.17921600000000001 0.298273
vn 0.635337 0.595689 0.49142899999999995
vn 0.967169 0.172068 0.187024
vn 0.968744 0.166665 0.183732
vn 0.658802 0.580168 0.4789419999999999
vn 0.604925 0.4854470000000001 0.631195
vn 0.401054 0.21660500000000005 0.890077
vn 0.218578 0.032404000000000065 0.975281
vn 0.064994 -0.13298799999999994 0.988984
vn 0.08624 -0.12439699999999994 0.988478
vn -0.077272 -0.19788399999999995 0.977175
vn 0.098444 -0.13717399999999993 0.985643
vn 0.599968 0.732485 0.3217189999999999
vn 0.62846 0.769172 0.11581299999999996
vn 0.628461 0.769171 0.11581299999999996
vn 0.541417 0.65901 0.522086
vn 0.463202 0.561756 0.685474
vn 0.465566 0.564688 0.681451
vn 0.42047 0.508825 0.7512
vn 0.377717 0.44924900000000006 0.809633
vn 0.445385 0.525243 0.725088
vn 0.552698 0.645677 0.526902
vn 0.592223 0.680135 0.43207399999999996
vn 0.58918 0.652189 0.47698799999999997
vn 0.505655 0.508999 0.696587
vn 0.41201 0.40859200000000007 0.814433
vn 0.329998 0.34783800000000004 0.877559
vn 0.304745 0.4388770000000001 0.845292
vn 0.24264 0.36618700000000004 0.89835
vn 0.123991 0.20307400000000006 0.971281
vn 0.162766 0.3277590000000001 0.930635
vn 0.24264 0.36618700000000004 0.89835
vn 0.123991 0.20307400000000006 0.971281
vn 0.206352 0.55853 0.803407
vn 0.213526 0.619743 0.755198
vn 0.082774 0.40122300000000005 0.912233
vn -0.029388 0.36884700000000004 0.929025
vn 0.034304 0.29296600000000006 0.955507
vn 0.160399 0.16557700000000006 0.973065
vn 0.326474 0.43075600000000003 0.841346
vn 0.464668 0.26396200000000003 0.845227
vn 0.458873 0.012147000000000054 0.888419
vn 0.814161 0.10181400000000004 0.571643
vn 0.392147 -0.15842399999999995 0.906158
vn 0.794097 -0.11109999999999996 0.597551
vn 0.772687 -0.21407199999999998 0.597602
vn 0.739517 -0.23804099999999997 0.629644
vn 0.203822 -0.06980599999999995 0.976516
vn 0.629778 -0.06194199999999995 0.774301
vn 0.711474 0.010581000000000043 0.702633
vn 0.126892 -0.14133199999999996 0.981796
vn 0.16145 0.09462100000000005 0.982334
vn 0.14392 -0.020319999999999942 0.989381
vn 0.001252 0.002593000000000061 0.999996
vn -0.000318 -0.08623299999999995 0.996275
vn 0.021782 0.08153400000000005 0.996433
vn 0.346641 -0.21584499999999995 0.912826
vn 0.278761 -0.16329199999999994 0.946376
vn 0.361206 0.016808000000000056 0.932335
vn 0.130497 0.39237200000000005 0.910502
vn 0.46864 -0.25611199999999995 0.845448
vn 0.557773 0.34408400000000006 0.755311
vn 0.733848 0.07847500000000004 0.674766
vn 0.78595 -0.18466099999999996 0.590071
vn 0.836154 0.391237 0.384421
vn 0.917166 0.14537600000000003 0.371043
vn 0.912578 -0.12189899999999997 0.390311
vn 0.87929 0.442568 0.17601999999999998
vn 0.970642 0.187238 0.150986
vn 0.882001 0.471248 -0.00022900000000002888
vn 0.989166 -0.114454 0.09193300000000001
vn 0.996068 0.088582 0.0016109999999999946
vn 0.994717 -0.102551 0.004641000000000006
vn 0.441727 -0.44738999999999995 0.777637
vn 0.278761 -0.16329199999999994 0.946376
vn 0.346641 -0.21584499999999995 0.912826
vn 0.467626 -0.624511 0.625549
vn 0.457713 -0.691845 0.558435
vn 0.415106 -0.66838 0.617216
vn 0.48928 -0.74063 0.46051200000000003
vn 0.49602 -0.792228 0.35544100000000006
vn 0.541994 -0.763112 0.35199800000000003
vn 0.551145 -0.80021 0.23644000000000007
vn 0.308031 -0.857124 0.41286300000000004
vn 0.490601 -0.540859 0.683215
vn 0.198425 -0.46579899999999996 0.862357
vn 0.098444 -0.13717399999999993 0.985643
vn -0.140912 -0.51502 0.845516
vn -0.077272 -0.19788399999999995 0.977175
vn -0.269779 -0.31050199999999994 0.911487
g water
f 1/1/1 2/2/2 3/3/3
f 4/4/4 5/5/5 6/6/6
f 7/7/7 8/8/8 4/4/4
f 9/9/9 4/4/4 8/8/8
f 8/8/8 10/10/10 11/11/11
f 11/11/11 12/12/12 8/8/8
f 8/8/8 13/13/13 9/9/9
f 13/13/13 8/8/8 12/12/12
f 14/14/14 9/9/9 13/13/13
f 12/12/12 15/15/15 13/13/13
f 16/16/16 13/13/13 15/15/15
f 13/13/13 16/16/16 14/14/14
f 15/15/15 17/17/17 16/16/16
f 16/16/16 17/17/17 18/18/18
f 14/14/14 16/16/16 19/19/19
f 18/18/18 19/19/19 16/16/16
f 19/19/19 20/20/20 14/14/14
f 19/19/19 18/18/18 21/21/21
f 22/22/22 20/20/20 19/19/19
f 21/21/21 22/22/22 19/19/19
f 23/23/23 22/22/22 21/21/21
f 21/21/21 24/24/24 23/23/23
f 25/25/25 26/26/26 27/27/27
f 27/27/27 28/28/28 25/25/25
f 29/29/29 25/25/25 28/28/28
f 28/28/28 30/30/30 29/29/29
f 31/31/31 29/29/29 30/30/30
f 30/30/30 32/32/32 31/31/31
f 33/33/33 31/31/31 32/32/32
f 32/32/32 34/34/34 33/33/33
f 33/33/33 34/34/34 35/35/35
f 35/35/35 36/36/36 33/33/33
f 36/36/36 35/35/35 37/37/37
f 38/38/38 33/33/33 36/36/36
f 39/39/39 33/33/33 38/38/38
f 36/36/36 40/40/40 38/38/38
f 38/38/38 41/41/41 39/39/39
f 42/42/42 40/40/40 36/36/36
f 37/37/37 42/42/42 36/36/36
f 43/43/43 39/39/39 41/41/41
f 44/44/44 42/42/42 37/37/37
f 41/41/41 45/45/45 43/43/43
f 37/37/37 46/46/46 44/44/44
f 47/47/47 43/43/43 45/45/45
f 45/45/45 48/48/48 47/47/47
f 49/49/49 44/44/44 46/46/46
f 46/46/46 50/50/50 49/49/49
f 51/51/51 49/49/49 50/50/50
f 50/50/50 52/52/52 51/51/51
f 53/53/53 51/51/51 52/52/52
f 52/52/52 54/54/54 53/53/53
f 55/55/55 53/53/53 54/54/54
f 54/54/54 56/56/56 55/55/55
f 57/57/57 58/58/58 59/59/59
f 59/59/59 60/60/60 57/57/57
f 61/61/61 57/57/57 60/60/60
f 60/60/60 62/62/62 61/61/61
f 63/63/63 61/61/61 62/62/62
f 62/62/62 64/64/64 63/63/63
f 65/65/65 63/63/63 64/64/64
f 64/64/64 66/66/66 65/65/65
f 67/67/67 65/65/65 66/66/66
f 66/66/66 68/68/68 67/67/67
f 69/69/69 67/67/67 68/68/68
f 68/68/68 70/70/70 69/69/69
f 71/71/71 69/69/69 70/70/70
f 70/70/70 72/72/72 71/71/71
f 73/73/73 71/71/71 72/72/72
f 72/72/72 74/74/74 73/73/73
f 75/75/75 76/76/76 77/77/77
f 77/77/77 78/78/78 75/75/75
f 79/79/79 75/75/75 78/78/78
f 78/78/78 80/80/80 79/79/79
f 81/81/81 79/79/79 80/80/80
f 80/80/80 82/82/82 81/81/81
f 83/83/83 81/81/81 82/82/82
f 82/82/82 84/84/84 83/83/83
f 83/83/83 84/84/84 85/85/85
f 85/85/85 86/86/86 83/83/83
f 86/86/86 85/85/85 87/87/87
f 83/83/83 86/86/86 88/88/88
f 87/87/87 89/89/89 86/86/86
f 88/88/88 86/86/86 89/89/89
f 89/89/89 90/90/90 88/88/88
f 91/91/91 90/90/90 89/89/89
f 88/88/88 92/92/92 83/83/83
f 89/89/89 93/93/93 91/91/91
f 93/93/93 89/89/89 87/87/87
f 87/87/87 94/94/94 93/93/93
f 95/95/95 91/91/91 93/93/93
f 93/93/93 94/94/94 96/96/96
f 93/93/93 97/97/97 95/95/95
f 96/96/96 97/97/97 93/93/93
f 95/95/95 97/97/97 98/98/98
f 98/98/98 97/97/97 96/96/96
f 98/98/98 99/99/99 95/95/95
f 96/96/96 100/100/100 98/98/98
f 92/92/92 101/101/101 102/102/102
f 102/102/102 83/83/83 92/92/92
f 103/103/103 83/83/83 102/102/102
f 83/83/83 103/103/103 104/104/104
f 102/102/102 105/105/105 103/103/103
f 106/106/106 104/104/104 103/103/103
f 107/107/107 103/103/103 105/105/105
f 103/103/103 107/107/107 106/106/106
f 105/105/105 108/108/108 107/107/107
f 109/109/109 106/106/106 107/107/107
f 110/110/110 107/107/107 108/108/108
f 107/107/107 110/110/110 109/109/109
f 108/108/108 111/111/111 110/110/110
f 112/112/112 109/109/109 110/110/110
f 113/113/113 110/110/110 111/111/111
f 110/110/110 113/113/113 112/112/112
f 114/114/114 112/112/112 113/113/113
f 111/111/111 115/115/115 113/113/113
f 113/113/113 116/116/116 114/114/114
f 116/116/116 113/113/113 115/115/115
f 115/115/115 117/117/117 116/116/116
f 118/118/118 119/119/119 120/120/120
f 120/120/120 121/121/121 118/118/118
f 122/122/122 118/118/118 121/121/121
f 121/121/121 123/123/123 122/122/122
f 124/124/124 122/122/122 123/123/123
f 123/123/123 125/125/125 124/124/124
f 124/124/124 125/125/125 126/126/126
f 126/126/126 127/127/127 124/124/124
f 125/125/125 128/128/128 126/126/126
f 129/129/129 127/127/127 126/126/126
f 130/130/130 126/126/126 128/128/128
f 126/126/126 130/130/130 129/129/129
f 131/131/131 129/129/129 130/130/130
f 128/128/128 132/132/132 130/130/130
f 130/130/130 133/133/133 131/131/131
f 133/133/133 130/130/130 132/132/132
f 132/132/132 134/134/134 133/133/133
