v 0.653302 -0.01952099999999986 2.242447
v 0.536969 -0.0008389999999998593 2.298782
v 0.390042 -0.0008389999999998543 2.380341
v 0.954442 -0.483947 -0.07707199999999997
v 0.954442 0.007541999999999996 -0.077072
v 0.950238 0.010820000000000043 0.696701
v 0.950238 -0.46733899999999995 0.696701
v 0.947789 -0.021897999999999924 1.218552
v 0.947789 -0.46733899999999995 1.218552
v 0.924788 -0.46453799999999995 1.349327
v 0.922458 -0.023196999999999916 1.351777
v 0.800876 -0.4623219999999999 1.391399
v 0.800873 -0.02416099999999991 1.390894
v 0.802335 -0.4543169999999999 1.654739
v 0.802335 -0.0131399999999999 1.654739
v 0.762738 -0.03213299999999988 2.03688
v 0.762738 -0.4452019999999999 2.03688
v 0.653302 -0.01952099999999986 2.242447
v 0.653302 -0.4331659999999999 2.242447
v 0.390042 -0.20634299999999986 2.380341
v 0.390042 -0.4118479999999998 2.380341
v 0.390042 -0.0008389999999998543 2.380341
v 0.390042 -0.20634299999999986 2.380341
v -0.510239 -0.17383399999999985 2.4216
v -0.510239 -0.34682899999999983 2.4216
v -0.510239 -0.0008389999999998517 2.4216
v -0.510239 0.17215600000000014 2.4216
v 0.390042 0.20466600000000013 2.380341
v -0.510239 0.34515100000000015 2.4216
v 0.536969 -0.0008389999999998593 2.298782
v 0.390042 0.4101710000000002 2.380341
v 0.606549 -0.0009819999999998628 2.242447
v 0.653302 0.4314880000000001 2.242447
v 0.826215 -0.0036059999999998784 1.982803
v 0.826215 0.4435250000000001 1.982803
v 0.830411 0.009421000000000098 1.585281
v 0.830411 0.4435250000000001 1.585281
v 0.83227 0.022109000000000073 1.190962
v 0.832237 0.44352500000000006 1.194106
v 0.952633 0.44352500000000006 1.1253
v 0.95267 0.02307000000000007 1.121883
v 0.981847 0.44352500000000006 0.968674
v 0.981847 0.01702100000000006 0.968674
v 0.977948 0.026496000000000033 0.579514
v 0.977948 0.44352500000000006 0.579514
v 0.982152 0.021414999999999997 -0.06926
v 0.982152 0.443525 -0.06926000000000003
vt 0.598824 0.820256
vt 0.670072 0.716153
vt 0.728587 0.748816
vt 0.002291 0.501360
vt 0.001980 0.974355
vt 0.092529 0.914489
vt 0.093018 0.501378
vt 0.229739 0.961893
vt 0.231629 0.501097
vt 0.262356 0.501089
vt 0.260628 0.956411
vt 0.286656 0.501082
vt 0.283528 0.952347
vt 0.374459 0.501058
vt 0.369786 0.937039
vt 0.513649 0.910005
vt 0.508672 0.500769
vt 0.598824 0.820256
vt 0.599069 0.501373
vt 0.685277 0.673657
vt 0.704270 0.501373
vt 0.728587 0.748816
vt 0.685996 0.669196
vt 0.959980 0.626030
vt 0.959980 0.501373
vt 0.959980 0.750687
vt 0.959980 0.875343
vt 0.685565 0.826853
vt 0.959980 1.000000
vt 0.670072 0.716153
vt 0.704270 1.000000
vt 0.600149 0.703189
vt 0.599069 0.998561
vt 0.486112 0.610293
vt 0.486385 0.998561
vt 0.350130 0.579332
vt 0.349384 1.000000
vt 0.289355 0.565017
vt 0.293320 1.000000
vt 0.262269 1.000000
vt 0.256204 0.557208
vt 0.219865 1.000000
vt 0.212247 0.546854
vt 0.069770 0.575530
vt 0.064159 1.000000
vt 0.001980 0.541813
vt 0.001980 1.000000
vn 0.663727 0.07590500000000004 0.744113
vn 0.528236 0.16917000000000004 0.832075
vn 0.265766 0.06211400000000006 0.962035
vn 0.999985 3.326753029883785E-19 0.005433
vn 0.999985 3.326753029883785E-19 0.005433
vn 0.999987 3.1755091501890867E-19 0.005186
vn 0.999988 3.0248775938939626E-19 0.00494
vn 0.995692 0.0010420000000000056 0.092721
vn 0.996007 5.46670084671387E-18 0.089278
vn 0.868384 0.00022400000000003035 0.495891
vn 0.611072 0.0006410000000000484 0.791575
vn 0.651909 -0.0009849999999999536 0.758297
vn 0.925911 0.00044100000000002313 0.377742
vn 0.998807 2.990342554158007E-18 0.048836
vn 0.998807 2.990342554158007E-18 0.048836
vn 0.973396 1.4030043589751737E-17 0.229128
vn 0.935449 2.1643305346011087E-17 0.353462
vn 0.663727 0.07590500000000004 0.744113
vn 0.628375 4.763331080857583E-17 0.777911
vn 0.261088 5.910849624594636E-17 0.965315
vn 0.189174 6.012672882709743E-17 0.981944
vn 0.265766 0.06211400000000006 0.962035
vn 0.261088 5.910849624594636E-17 0.965315
vn 0.045782 6.116816846509233E-17 0.998952
vn 0.045782 6.116816846509233E-17 0.998952
vn 0.045782 6.116816846509233E-17 0.998952
vn 0.045782 6.116816846509233E-17 0.998952
vn 0.309118 0.024310000000000057 0.950713
vn 0.045782 6.116816846509233E-17 0.998952
vn 0.528236 0.16917000000000004 0.832075
vn 0.359326 -0.017268999999999944 0.933052
vn 0.605247 0.0019210000000000488 0.796035
vn 0.702596 -0.04525699999999996 0.710148
vn 0.905929 -0.028724999999999976 0.422454
vn 0.97998 1.2191175188492029E-17 0.199097
vn 0.999963 5.271492146929782E-19 0.008609
vn 0.999978 1.5000000000000407E-05 0.006647
vn 0.863959 -0.0038669999999999694 0.503548
vn 0.863745 -0.003690999999999969 0.503916
vn 0.717546 -0.005388999999999957 0.69649
vn 0.893518 -0.0030509999999999726 0.449017
vn 0.996118 -0.00035299999999999465 0.088023
vn 0.996035 5.447596356647171E-18 0.088966
vn 0.99999 -2.7670894426734444E-19 -0.004519
vn 1 6.000769315822031E-20 0.00098
vn 0.999979 3.967243305837851E-19 0.006479
vn 0.999979 3.967243305837851E-19 0.006479
g water
f 1/1/1 2/2/2 3/3/3
f 4/4/4 5/5/5 6/6/6
f 6/6/6 7/7/7 4/4/4
f 7/7/7 6/6/6 8/8/8
f 8/8/8 9/9/9 7/7/7
f 10/10/10 9/9/9 8/8/8
f 8/8/8 11/11/11 10/10/10
f 12/12/12 10/10/10 11/11/11
f 11/11/11 13/13/13 12/12/12
f 14/14/14 12/12/12 13/13/13
f 13/13/13 15/15/15 14/14/14
f 14/14/14 15/15/15 16/16/16
f 16/16/16 17/17/17 14/14/14
f 17/17/17 16/16/16 18/18/18
f 18/18/18 19/19/19 17/17/17
f 19/19/19 18/18/18 20/20/20
f 20/20/20 21/21/21 19/19/19
f 22/22/22 23/23/23 18/18/18
f 21/21/21 20/20/20 24/24/24
f 24/24/24 25/25/25 21/21/21
f 26/26/26 24/24/24 20/20/20
f 20/20/20 22/22/22 26/26/26
f 27/27/27 26/26/26 22/22/22
f 22/22/22 28/28/28 27/27/27
f 29/29/29 27/27/27 28/28/28
f 28/28/28 22/22/22 30/30/30
f 28/28/28 31/31/31 29/29/29
f 30/30/30 32/32/32 28/28/28
f 31/31/31 28/28/28 32/32/32
f 32/32/32 33/33/33 31/31/31
f 33/33/33 32/32/32 34/34/34
f 34/34/34 35/35/35 33/33/33
f 35/35/35 34/34/34 36/36/36
f 36/36/36 37/37/37 35/35/35
f 37/37/37 36/36/36 38/38/38
f 38/38/38 39/39/39 37/37/37
f 40/40/40 39/39/39 38/38/38
f 38/38/38 41/41/41 40/40/40
f 42/42/42 40/40/40 41/41/41
f 41/41/41 43/43/43 42/42/42
f 42/42/42 43/43/43 44/44/44
f 44/44/44 45/45/45 42/42/42
f 45/45/45 44/44/44 46/46/46
f 46/46/46 47/47/47 45/45/45
