v -1.123137 0.2231330000000001 1.921144
v -0.966061 0.2028930000000001 1.841067
v -1.07248 0.44524000000000014 1.841067
v -0.966061 0.2028930000000001 1.841067
v -1.173401 -0.1695249999999999 1.921144
v -1.008765 -0.18071499999999988 1.841067
v -0.966061 0.2028930000000001 1.841067
v -1.07282 -0.4385489999999999 1.841067
v -1.008765 -0.18071499999999988 1.841067
v -1.198949 -0.4878579999999999 1.921144
v -1.07282 -0.4385489999999999 1.841067
v -0.8379 1.190482 0.5298279999999999
v -0.815505 1.156127 -0.3867360000000001
v -0.675296 0.802165 -0.3867360000000001
v -0.693622 0.826246 0.529828
v -0.8379 1.190482 0.5298279999999999
v -0.503078 0.596326 -0.3867360000000001
v -0.516406 0.614432 0.529828
v -0.866421 1.234231 1.292691
v -0.8379 1.190482 0.5298279999999999
v -0.539721 0.6823320000000002 1.286186
v -0.365964 0.7383960000000002 1.845732
v -0.520894 0.9067070000000002 1.833899
v -0.716959 0.8569120000000001 1.292691
v -0.866421 1.234231 1.292691
v -0.574615 1.1839220000000001 1.833899
v -0.866421 1.234231 1.292691
v -0.261458 1.3914480000000002 1.939116
v -0.474974 1.510932 1.292691
v -0.8379 1.190482 0.5298279999999999
v -0.279675 1.704127 1.314119
v -0.183239 1.579741 1.610461
v -0.460027 1.457588 0.5298279999999999
v -0.815505 1.156127 -0.3867360000000001
v -0.44829 1.415699 -0.38673600000000014
v -0.003563 1.759654 1.314119
v -0.025748 1.611961 1.715525
v -0.2715 1.644084 0.5505129999999999
v 0.009713 1.695897 0.5505129999999999
v -0.265081 1.596935 -0.3666350000000001
v 0.0082 1.647286 -0.3666350000000001
v 0.147699 0.6952130000000001 1.833899
v 0.549904 0.6305210000000001 1.833899
v 0.624109 0.8423270000000002 1.912031
v 0.17242 0.9617770000000001 2.043001
v 0.147699 0.6952130000000001 1.833899
v 0.592607 1.0078400000000003 1.833899
v 0.215395 1.2845410000000002 1.939116
v -0.520894 0.9067070000000002 1.833899
v 0.147699 0.6952130000000001 1.833899
v 0.138784 1.563211 1.635217
v -0.025748 1.611961 1.715525
v -0.345291 1.1157280000000003 2.043001
v -0.574615 1.1839220000000001 1.833899
v -0.261458 1.3914480000000002 1.939116
v -0.183239 1.579741 1.610461
v 0.147699 0.6952130000000001 1.833899
v -0.365964 0.7383960000000002 1.845732
v -0.33263 0.6430980000000001 2.027385
v 0.436029 0.5173250000000001 2.027385
v 0.549904 0.6305210000000001 1.833899
v 0.467497 0.3767550000000002 2.664644
v -0.264881 0.5625370000000001 2.664676
v 0.7079 -1.765336 1.558232
v 0.708757 -1.6300919999999999 2.181347
v 0.522151 -1.4920719999999998 2.156307
v 0.422095 -1.3524679999999998 2.156307
v 0.386497 -1.46879 1.545672
v 0.520544 -1.629219 1.545672
v 0.7079 -1.765336 1.558232
v 0.675472 -1.705866 0.5298280000000001
v 0.7079 -1.765336 1.558232
v 0.377909 -1.422619 0.5298280000000001
v 0.366011 -1.383268 -0.3867359999999999
v 0.478605 -1.530441 -0.3867359999999999
v 0.493771 -1.574064 0.5298280000000001
v 0.675472 -1.705866 0.5298280000000001
v 0.655181 -1.658526 -0.3867359999999999
v 0.655181 -1.658526 -0.3867359999999999
v 0.675472 -1.705866 0.5298280000000001
v -0.687234 0.24418100000000018 2.666504
v -0.363371 0.36208100000000015 2.665442
v -0.507909 0.3901750000000001 2.027385
v -0.873538 0.2469130000000001 2.027385
v -0.577812 0.36235000000000006 1.27728
v -1.07248 0.44524000000000014 1.841067
v -1.002031 0.5661410000000001 1.27728
v -0.936327 0.511438 0.529828
v -0.559299 0.34883200000000003 0.529828
v -0.911155 0.496237 -0.3867360000000001
v -0.544762 0.338217 -0.386736
v 0.827475 -0.4637039999999999 2.027385
v 0.717638 -0.46195899999999984 2.664885
v 0.4462 -0.8028469999999999 2.663645
v 0.450263 -0.8535999999999999 2.027385
v -0.138471 -0.8588839999999999 2.663713
v -0.140465 -0.9101979999999998 2.027385
v 0.675472 -1.705866 0.5298280000000001
v 0.655181 -1.658526 -0.3867359999999999
v 0.813069 -1.512631 -0.3867359999999999
v 0.837942 -1.555737 0.5298280000000001
v 0.7079 -1.765336 1.558232
v 0.877085 -1.610233 1.545672
v 0.708757 -1.6300919999999999 2.181347
v 0.879055 -1.4795829999999999 2.156307
v -0.863951 -0.533162 0.529828
v -0.84082 -0.518899 -0.38673599999999997
v -0.401554 -0.784765 -0.38673599999999997
v -0.411934 -0.806744 0.529828
v -0.893406 -0.5513249999999998 1.27728
v -0.425154 -0.8347339999999999 1.545672
v -0.980296 -0.4825699999999999 2.027385
v -0.535052 -0.8221239999999999 2.027385
v -0.140465 -0.9101979999999998 2.027385
v -0.860589 -0.45403699999999986 2.665044
v -0.138471 -0.8588839999999999 2.663713
v -0.506696 -0.7685049999999999 2.664277
v -1.084092 -0.714047 0.529828
v -1.054752 -0.694682 -0.38673599999999997
v -0.84082 -0.518899 -0.38673599999999997
v -0.863951 -0.533162 0.529828
v -0.893406 -0.5513249999999998 1.27728
v -1.173814 -0.7090519999999999 1.27728
v -1.198949 -0.4878579999999999 1.921144
v -1.07282 -0.4385489999999999 1.841067
v -0.980296 -0.4825699999999999 2.027385
v -0.516406 0.614432 0.529828
v -0.503078 0.596326 -0.3867360000000001
v -0.544762 0.338217 -0.386736
v -0.559299 0.34883200000000003 0.529828
v -0.577812 0.36235000000000006 1.27728
v -0.539721 0.6823320000000002 1.286186
v -0.365964 0.7383960000000002 1.845732
v -0.33263 0.6430980000000001 2.027385
v -0.507909 0.3901750000000001 2.027385
v -0.363371 0.36208100000000015 2.665442
v -0.264881 0.5625370000000001 2.664676
v -1.07248 0.44524000000000014 1.841067
v -0.966061 0.2028930000000001 1.841067
v -0.873538 0.2469130000000001 2.027385
v -1.008765 -0.18071499999999988 1.841067
v -0.94471 -0.22473499999999988 2.027385
v -1.07282 -0.4385489999999999 1.841067
v -0.687234 0.24418100000000018 2.666504
v -0.980296 -0.4825699999999999 2.027385
v -0.845375 -0.23982099999999984 2.664958
v -0.860589 -0.45403699999999986 2.665044
v 0.827475 -0.4637039999999999 2.027385
v 0.962702 -0.5957659999999999 2.156307
v 1.034338 -0.3850339999999999 1.545672
v 1.317077 -0.7300449999999999 2.156307
v 1.480646 -0.6529739999999999 1.545672
v 0.996951 -0.37263699999999994 0.529828
v 1.27586 -1.1051459999999997 2.156307
v 1.404107 -0.63805 0.529828
v 0.967592 -0.362902 -0.386736
v 1.363264 -0.620828 -0.38673599999999997
v 1.455432 -1.168718 1.545672
v 0.879055 -1.4795829999999999 2.156307
v 1.3819 -1.16722 0.5298280000000001
v 1.341683 -1.135072 -0.38673599999999997
v 1.112199 -1.558653 1.545672
v 0.877085 -1.610233 1.545672
v 0.837942 -1.555737 0.5298280000000001
v 1.072112 -1.505561 0.5298280000000001
v 1.040633 -1.463871 -0.3867359999999999
v 0.813069 -1.512631 -0.3867359999999999
v 0.755775 0.56796 0.529828
v 0.733219 0.551164 -0.3867360000000001
v 0.760803 0.744095 -0.3867360000000001
v 0.784159 0.766491 0.529828
v 0.705811 0.993209 -0.3867360000000001
v 0.784499 0.5893490000000001 1.292691
v 0.727572 1.022835 0.5298279999999999
v 0.486871 1.209042 -0.3867360000000001
v 0.817494 0.8201290000000001 1.292691
v 0.624109 0.8423270000000002 1.912031
v 0.549904 0.6305210000000001 1.833899
v 0.592607 1.0078400000000003 1.833899
v 0.755283 1.060563 1.292691
v 0.598388 1.231829 1.292691
v 0.502277 1.244933 0.5298279999999999
v 0.279463 1.368504 -0.38673600000000014
v 0.300802 1.460623 1.292691
v 0.215395 1.2845410000000002 1.939116
v 0.288849 1.409023 0.5298279999999999
v 0.176455 1.543111 -0.3666350000000001
v 0.138784 1.563211 1.635217
v 0.182851 1.588699 0.5505129999999999
v 0.0082 1.647286 -0.3666350000000001
v 0.009713 1.695897 0.5505129999999999
v -0.003563 1.759654 1.314119
v -0.025748 1.611961 1.715525
v 0.190996 1.646752 1.314119
v -0.411934 -0.806744 0.529828
v -0.401554 -0.784765 -0.38673599999999997
v -0.476849 -0.97655 -0.38673599999999997
v -0.489415 -1.004096 0.5298280000000001
v -0.341464 -1.162324 -0.38673599999999997
v -0.425154 -0.8347339999999999 1.545672
v -0.140465 -0.9101979999999998 2.027385
v -0.204746 -0.9940909999999998 2.156307
v -0.255672 -1.0825769999999997 2.156307
v -0.3501 -1.195262 0.5298280000000001
v 0.157739 -1.410357 -0.3867359999999999
v -0.505421 -1.041743 1.545672
v -0.20452 -1.2372079999999999 2.156307
v -0.361099 -1.237208 1.545672
v 0.163592 -1.450495 0.5298280000000001
v 0.366011 -1.383268 -0.3867359999999999
v 0.377909 -1.422619 0.5298280000000001
v 0.386497 -1.46879 1.545672
v 0.171045 -1.501608 1.545672
v 0.186927 -1.3881349999999997 2.156307
v 0.422095 -1.3524679999999998 2.156307
v -0.936327 0.511438 0.529828
v -0.911155 0.496237 -0.3867360000000001
v -1.286208 0.306618 -0.386736
v -1.322265 0.31631600000000004 0.529828
v -1.002031 0.5661410000000001 1.27728
v -1.269728 0.07257899999999998 -0.386736
v -1.368184 0.32866600000000007 1.27728
v -1.07248 0.44524000000000014 1.841067
v -1.305308 0.07548400000000002 0.529828
v -1.393034 -0.16533100000000003 -0.386736
v -1.307688 0.2469130000000001 1.841067
v -1.123137 0.2231330000000001 1.921144
v -1.432192 -0.16933199999999998 0.529828
v -1.326267 -0.436702 -0.386736
v -1.354115 0.06373100000000008 1.27728
v -1.272189 0.03308200000000011 1.841067
v -1.173401 -0.1695249999999999 1.921144
v -1.37886 -0.1555599999999999 1.841067
v -1.482059 -0.17442599999999991 1.27728
v -1.343274 -0.4071059999999999 1.841067
v -1.198949 -0.4878579999999999 1.921144
v -1.410887 -0.46370399999999995 1.27728
v -1.173814 -0.7090519999999999 1.27728
v -1.363488 -0.44857899999999995 0.529828
v -1.084092 -0.714047 0.529828
v -1.054752 -0.694682 -0.38673599999999997
v 0.436029 0.5173250000000001 2.027385
v 0.467497 0.3767550000000002 2.664644
v 0.706252 -0.14217499999999983 2.664737
v 0.795872 -0.08005699999999988 2.027385
v 0.717638 -0.46195899999999984 2.664885
v 0.549904 0.6305210000000001 1.833899
v 0.827475 -0.4637039999999999 2.027385
v 0.823983 0.07881300000000008 1.292691
v 0.784499 0.5893490000000001 1.292691
v 1.034338 -0.3850339999999999 1.545672
v 0.755775 0.56796 0.529828
v 0.996951 -0.37263699999999994 0.529828
v 0.79389 0.07512700000000003 0.529828
v 0.733219 0.551164 -0.3867360000000001
v 0.770258 0.07223199999999998 -0.386736
v 0.967592 -0.362902 -0.386736
v 0.962702 -0.5957659999999999 2.156307
v 0.827475 -0.4637039999999999 2.027385
v 0.450263 -0.8535999999999999 2.027385
v 0.599725 -0.8347339999999999 2.156307
v 1.183336 -0.7970019999999999 2.271595
v 1.317077 -0.7300449999999999 2.156307
v 1.27586 -1.1051459999999997 2.156307
v 0.876797 -0.9455459999999999 2.321336
v 0.879055 -1.4795829999999999 2.156307
v 0.711275 -1.0272769999999998 2.407967
v 0.708757 -1.6300919999999999 2.181347
v 0.522151 -1.4920719999999998 2.156307
v 0.457093 -1.0967939999999998 2.407967
v 0.422095 -1.3524679999999998 2.156307
v 0.336388 -0.9605069999999999 2.156307
v -0.140465 -0.9101979999999998 2.027385
v -0.204746 -0.9940909999999998 2.156307
v 0.270962 -1.1476999999999997 2.407967
v 0.186927 -1.3881349999999997 2.156307
v -0.134506 -1.1227599999999998 2.277202
v -0.255672 -1.0825769999999997 2.156307
v -0.20452 -1.2372079999999999 2.156307
v -0.845375 -0.23982099999999984 2.664958
v -0.860589 -0.45403699999999986 2.665044
v -0.72976 -0.44772599999999985 2.766815
v -0.506696 -0.7685049999999999 2.664277
v -0.736504 -0.23581099999999983 2.762774
v -0.687234 0.24418100000000018 2.666504
v -0.450108 -0.7153179999999998 2.770633
v -0.547659 0.24958800000000017 2.767469
v -0.363371 0.36208100000000015 2.665442
v -0.169589 -0.45183199999999984 2.920984
v -0.190484 -0.20307299999999984 2.920984
v -0.143062 -0.7676449999999998 2.773361
v -0.138471 -0.8588839999999999 2.663713
v 0.416454 -0.7125579999999998 2.773052
v 0.4462 -0.8028469999999999 2.663645
v 0.337521 -0.45554999999999984 2.892414
v 0.61039 -0.45754999999999985 2.774268
v 0.717638 -0.46195899999999984 2.664885
v 0.318753 -0.17254099999999983 2.892414
v 0.605468 -0.15535099999999982 2.771672
v 0.706252 -0.14217499999999983 2.664737
v 0.432719 0.23506600000000016 2.772297
v 0.467497 0.3767550000000002 2.664644
v -0.151062 0.20996700000000015 2.853911
v 0.266784 0.33177700000000016 2.770967
v -0.246525 0.46411300000000016 2.772869
v -0.264881 0.5625370000000001 2.664676
v -0.291169 0.3093460000000002 2.770658
vt 0.188453 0.980078
vt 0.188373 0.957284
vt 0.246955 0.992468
vt 0.188373 0.957284
vt 0.086305 0.976812
vt 0.088787 0.952547
vt 0.188373 0.957284
vt 0.020705 0.957896
vt 0.088787 0.952547
vt 0.003987 0.970495
vt 0.020705 0.957896
vt 0.864505 0.771207
vt 0.861025 0.888092
vt 0.820941 0.883183
vt 0.823257 0.766156
vt 0.864505 0.771207
vt 0.775106 0.878849
vt 0.781966 0.761696
vt 0.868937 0.674196
vt 0.864505 0.771207
vt 0.794919 0.665613
vt 0.809140 0.591459
vt 0.841919 0.596750
vt 0.826208 0.668964
vt 0.868937 0.674196
vt 0.875929 0.599679
vt 0.868937 0.674196
vt 0.917884 0.582617
vt 0.923658 0.669858
vt 0.864505 0.771207
vt 0.958223 0.665355
vt 0.946339 0.624869
vt 0.917328 0.767019
vt 0.861025 0.888092
vt 0.912358 0.884023
vt 0.992440 0.660006
vt 0.978319 0.604047
vt 0.950695 0.762673
vt 0.994854 0.758468
vt 0.944784 0.879798
vt 0.989654 0.876968
vt 0.507766 0.125803
vt 0.515440 0.196290
vt 0.486649 0.212891
vt 0.480564 0.133935
vt 0.507766 0.125803
vt 0.464590 0.208070
vt 0.440533 0.142904
vt 0.484000 0.009083
vt 0.507766 0.125803
vt 0.393489 0.130639
vt 0.392581 0.101902
vt 0.463200 0.043513
vt 0.443552 0.003460
vt 0.428235 0.059466
vt 0.389663 0.074050
vt 0.507766 0.125803
vt 0.502817 0.035610
vt 0.534347 0.041060
vt 0.547044 0.177070
vt 0.515440 0.196290
vt 0.614908 0.180684
vt 0.597014 0.052629
vt 0.673925 0.792519
vt 0.758787 0.803436
vt 0.755879 0.851864
vt 0.756527 0.883208
vt 0.673395 0.880752
vt 0.672688 0.840940
vt 0.673925 0.792519
vt 0.535512 0.803844
vt 0.673925 0.792519
vt 0.536642 0.886245
vt 0.413232 0.891838
vt 0.412563 0.857379
vt 0.535954 0.850786
vt 0.535512 0.803844
vt 0.412133 0.811760
vt 0.412133 0.811760
vt 0.535512 0.803844
vt 0.947726 0.953272
vt 0.951164 0.899313
vt 0.885443 0.911040
vt 0.883590 0.965018
vt 0.809049 0.921499
vt 0.859723 0.996831
vt 0.801702 0.985991
vt 0.728029 0.968701
vt 0.734256 0.911962
vt 0.636315 0.956711
vt 0.642367 0.901572
vt 0.256760 0.111873
vt 0.267549 0.026532
vt 0.317015 0.029702
vt 0.319964 0.114790
vt 0.378762 0.025969
vt 0.382350 0.111027
vt 0.535512 0.803844
vt 0.412133 0.811760
vt 0.413319 0.756088
vt 0.536732 0.747608
vt 0.673925 0.792519
vt 0.673494 0.744946
vt 0.758787 0.803436
vt 0.758912 0.756330
vt 0.019844 0.580449
vt 0.021732 0.723485
vt 0.107543 0.723522
vt 0.108146 0.580488
vt 0.017440 0.463817
vt 0.108914 0.421965
vt -0.001039 0.346712
vt 0.092463 0.346823
vt 0.155514 0.346700
vt 0.012946 0.247087
vt 0.151015 0.247324
vt 0.091414 0.247342
vt 0.397478 0.982183
vt 0.251861 0.984892
vt 0.247359 0.907691
vt 0.392846 0.902742
vt 0.511741 0.902246
vt 0.518594 0.993993
vt 0.624106 0.962736
vt 0.608078 0.925386
vt 0.634021 0.905016
vt 0.146264 0.623712
vt 0.147777 0.722066
vt 0.193659 0.721083
vt 0.193477 0.622700
vt 0.192797 0.542550
vt 0.136533 0.542926
vt 0.119806 0.481583
vt 0.134763 0.461276
vt 0.185730 0.461445
vt 0.184744 0.391470
vt 0.146156 0.391760
vt 0.246955 0.992468
vt 0.188373 0.957284
vt 0.202646 0.899672
vt 0.088787 0.952547
vt 0.079599 0.898354
vt 0.020705 0.957896
vt 0.207996 0.727654
vt 0.012441 0.896832
vt 0.078963 0.747147
vt 0.023632 0.742402
vt 0.969179 0.029738
vt 0.983719 0.056139
vt 0.889400 0.012912
vt 0.966343 0.092505
vt 0.882132 0.078178
vt 0.749513 0.008810
vt 0.965547 0.148512
vt 0.747312 0.078088
vt 0.624996 0.007092
vt 0.625220 0.076713
vt 0.880520 0.152816
vt 0.970585 0.237233
vt 0.745598 0.154572
vt 0.623555 0.151039
vt 0.884619 0.217935
vt 0.889376 0.256022
vt 0.752995 0.254799
vt 0.749351 0.211395
vt 0.627201 0.206260
vt 0.627431 0.253718
vt 0.554149 0.734906
vt 0.424380 0.733736
vt 0.422891 0.698538
vt 0.552616 0.696968
vt 0.421936 0.662166
vt 0.662004 0.729703
vt 0.551633 0.659540
vt 0.422939 0.620365
vt 0.660222 0.691850
vt 0.746908 0.684443
vt 0.741085 0.719347
vt 0.738292 0.653425
vt 0.659398 0.656196
vt 0.660014 0.624038
vt 0.552665 0.616526
vt 0.424168 0.586740
vt 0.661777 0.575793
vt 0.755546 0.594038
vt 0.553930 0.581925
vt 0.427041 0.557375
vt 0.711498 0.552444
vt 0.556886 0.551707
vt 0.427139 0.512997
vt 0.558073 0.510724
vt 0.666220 0.508618
vt 0.726464 0.518714
vt 0.664840 0.544490
vt 0.578922 0.498350
vt 0.478825 0.500640
vt 0.476166 0.479067
vt 0.576186 0.476151
vt 0.475875 0.436421
vt 0.689808 0.495435
vt 0.758303 0.480788
vt 0.756496 0.459145
vt 0.756201 0.439703
vt 0.575887 0.432268
vt 0.478981 0.346238
vt 0.686949 0.472044
vt 0.755284 0.410631
vt 0.686664 0.426978
vt 0.579082 0.339466
vt 0.480415 0.298555
vt 0.580590 0.294714
vt 0.692651 0.289310
vt 0.689974 0.330844
vt 0.758136 0.346601
vt 0.762166 0.300867
vt 0.975970 0.464214
vt 0.975552 0.579000
vt 0.929457 0.579912
vt 0.930410 0.464038
vt 0.984803 0.369777
vt 0.897934 0.578454
vt 0.931622 0.370182
vt 0.969812 0.282864
vt 0.897972 0.462537
vt 0.864489 0.582259
vt 0.922548 0.299909
vt 0.920480 0.267082
vt 0.863555 0.466453
vt 0.828414 0.578769
vt 0.895892 0.368704
vt 0.892562 0.297804
vt 0.873064 0.266837
vt 0.865259 0.298939
vt 0.862367 0.372684
vt 0.830168 0.298176
vt 0.804702 0.274059
vt 0.823912 0.368963
vt 0.778478 0.361355
vt 0.826434 0.462861
vt 0.777310 0.461717
vt 0.772585 0.579428
vt 0.220997 0.509080
vt 0.247596 0.408496
vt 0.350199 0.410494
vt 0.342168 0.512999
vt 0.408546 0.409154
vt 0.204583 0.542283
vt 0.412812 0.511757
vt 0.314395 0.630160
vt 0.220478 0.631861
vt 0.405997 0.592003
vt 0.223320 0.751530
vt 0.402407 0.751569
vt 0.313981 0.749888
vt 0.225552 0.895578
vt 0.313655 0.893982
vt 0.399587 0.895616
vt 0.237857 0.103172
vt 0.250401 0.135922
vt 0.156012 0.171526
vt 0.167340 0.137970
vt 0.224044 0.053331
vt 0.253638 0.043078
vt 0.197154 0.001825
vt 0.169027 0.077482
vt 0.091181 0.009651
vt 0.136452 0.093672
vt 0.045163 0.023851
vt 0.040310 0.065519
vt 0.101404 0.122847
vt 0.043280 0.098600
vt 0.121848 0.168726
vt 0.079658 0.243986
vt 0.048997 0.234604
vt 0.077072 0.145289
vt 0.017275 0.133975
vt 0.038955 0.205444
vt 0.026118 0.232155
vt 0.006835 0.206875
vt 0.191559 0.342751
vt 0.161018 0.307098
vt 0.187789 0.296561
vt 0.175803 0.220023
vt 0.213301 0.329963
vt 0.276542 0.400925
vt 0.196486 0.227618
vt 0.301224 0.382802
vt 0.341086 0.394471
vt 0.272000 0.240415
vt 0.298982 0.278101
vt 0.233049 0.187318
vt 0.219562 0.164777
vt 0.322057 0.140661
vt 0.319250 0.119888
vt 0.342252 0.188734
vt 0.382714 0.158319
vt 0.404271 0.144323
vt 0.374962 0.231025
vt 0.422250 0.203952
vt 0.448011 0.195977
vt 0.443046 0.282099
vt 0.469747 0.305026
vt 0.355186 0.336281
vt 0.431540 0.313156
vt 0.374005 0.382987
vt 0.381601 0.403164
vt 0.347207 0.369829
vn -0.080821 0.12195600000000005 0.989239
vn -0.089639 -0.04250299999999994 0.995067
vn -0.185665 0.749717 0.635179
vn -0.089639 -0.04250299999999994 0.995067
vn 0.019447 -0.0007899999999999388 0.999811
vn -0.522726 0.08663400000000006 0.848088
vn -0.089639 -0.04250299999999994 0.995067
vn -0.213842 -0.46583099999999994 0.858646
vn -0.522726 0.08663400000000006 0.848088
vn -0.042346 -0.765836 0.641641
vn -0.213842 -0.46583099999999994 0.858646
vn -0.950244 0.30808 -0.04607700000000002
vn -0.843499 0.535589 -0.040685000000000034
vn -0.884393 -0.466712 -0.005420999999999971
vn -0.838222 -0.545328 0.0013530000000000334
vn -0.950244 0.30808 -0.04607700000000002
vn -0.909727 -0.415177 -0.005025999999999975
vn -0.991078 -0.132756 -0.011860999999999991
vn -0.934022 0.279929 0.22190899999999997
vn -0.950244 0.30808 -0.04607700000000002
vn -0.873965 -0.458655 0.16068800000000003
vn -0.715375 0.19122800000000004 0.672064
vn -0.547223 -0.46080099999999996 0.69872
vn -0.847421 -0.481789 0.22306400000000004
vn -0.934022 0.279929 0.22190899999999997
vn -0.802344 0.11950200000000004 0.584776
vn -0.934022 0.279929 0.22190899999999997
vn -0.380768 0.71515 0.586153
vn -0.64237 0.763338 0.06837799999999995
vn -0.950244 0.30808 -0.04607700000000002
vn -0.418972 0.878513 0.22951599999999994
vn -0.304572 0.869421 0.38902899999999996
vn -0.626948 0.777277 -0.05269600000000005
vn -0.843499 0.535589 -0.040685000000000034
vn -0.66049 0.749619 -0.04271700000000005
vn 0.132007 0.980503 0.14555899999999994
vn 0.047238 0.859731 0.508558
vn -0.492719 0.867845 -0.06381200000000005
vn 0.102789 0.992686 -0.06331600000000005
vn -0.360966 0.931216 -0.050399000000000055
vn 0.303241 0.951552 -0.050934000000000056
vn 0.041193 0.22249800000000006 0.974063
vn 0.725471 0.19965200000000002 0.658659
vn 0.635973 -0.16503499999999993 0.753858
vn 0.105447 -0.17374099999999995 0.97913
vn 0.041193 0.22249800000000006 0.974063
vn 0.696184 0.525497 0.48906099999999997
vn 0.415779 0.544027 0.728809
vn -0.547223 -0.46080099999999996 0.69872
vn 0.041193 0.22249800000000006 0.974063
vn 0.625735 0.698918 0.3463669999999999
vn 0.047238 0.859731 0.508558
vn -0.285869 0.07074700000000006 0.955653
vn -0.802344 0.11950200000000004 0.584776
vn -0.380768 0.71515 0.586153
vn -0.304572 0.869421 0.38902899999999996
vn 0.041193 0.22249800000000006 0.974063
vn -0.715375 0.19122800000000004 0.672064
vn -0.418422 0.852989 0.31198299999999995
vn 0.520449 0.749291 0.4095059999999999
vn 0.725471 0.19965200000000002 0.658659
vn 0.422052 0.759067 0.4956709999999999
vn -0.369713 0.81965 0.43759099999999995
vn 0.049179 -0.995899 0.07594300000000005
vn 0.211773 -0.778954 0.590239
vn -0.582326 -0.661027 0.47322200000000003
vn -0.15472 -0.868267 0.4713530000000001
vn -0.347157 -0.935373 0.06752300000000006
vn -0.68696 -0.725639 0.039170000000000045
vn 0.049179 -0.995899 0.07594300000000005
vn 0.052713 -0.997104 -0.05481299999999994
vn 0.049179 -0.995899 0.07594300000000005
vn -0.528778 -0.848223 -0.03018999999999995
vn -0.183877 -0.982144 -0.03977999999999994
vn -0.730334 -0.682785 -0.020411999999999958
vn -0.674837 -0.737604 -0.023134999999999954
vn 0.052713 -0.997104 -0.05481299999999994
vn -0.211038 -0.976406 -0.04575899999999994
vn -0.211038 -0.976406 -0.04575899999999994
vn 0.052713 -0.997104 -0.05481299999999994
vn -0.672134 0.611634 0.41730199999999995
vn -0.630066 0.669531 0.39337599999999995
vn -0.555285 0.825455 0.10140299999999994
vn -0.734801 0.559892 0.38286899999999996
vn -0.468054 0.869111 0.15991399999999995
vn -0.185665 0.749717 0.635179
vn -0.152342 0.987555 0.03908999999999994
vn -0.022064 0.999091 -0.036462000000000064
vn -0.193115 0.98101 -0.018080000000000058
vn 0.125267 0.992038 -0.013013000000000061
vn -0.755252 0.655143 -0.01956600000000004
vn 0.895585 0.13346900000000003 0.424397
vn 0.874943 -0.17814499999999997 0.450265
vn 0.530272 -0.752694 0.39021000000000006
vn -0.188613 0.016286000000000057 0.981917
vn -0.045624 -0.941176 0.33482400000000007
vn -0.451622 -0.26763299999999995 0.851123
vn 0.052713 -0.997104 -0.05481299999999994
vn -0.211038 -0.976406 -0.04575899999999994
vn 0.532882 -0.844454 -0.05417599999999995
vn 0.417773 -0.906579 -0.05983899999999995
vn 0.049179 -0.995899 0.07594300000000005
vn 0.501381 -0.861474 0.08049100000000005
vn 0.211773 -0.778954 0.590239
vn 0.548981 -0.620038 0.560511
vn -0.074371 -0.997021 -0.02046599999999994
vn 0.29403 -0.955767 -0.007452999999999942
vn -0.81093 -0.584683 -0.023204999999999965
vn -0.935855 -0.351614 -0.02332599999999998
vn 0.010549 -0.995041 0.09890200000000006
vn -0.963099 -0.213488 0.163903
vn -0.779674 -0.611779 0.13354800000000003
vn -0.430619 -0.901342 0.046374000000000054
vn -0.451622 -0.26763299999999995 0.851123
vn -0.839617 -0.371824 0.395967
vn -0.045624 -0.941176 0.33482400000000007
vn -0.402534 -0.794822 0.45411900000000005
vn 0.218956 -0.975709 -0.00710299999999994
vn -0.313507 -0.949109 -0.03008799999999994
vn 0.29403 -0.955767 -0.007452999999999942
vn -0.074371 -0.997021 -0.02046599999999994
vn 0.010549 -0.995041 0.09890200000000006
vn -0.277845 -0.9542 0.11092500000000005
vn -0.042346 -0.765836 0.641641
vn -0.213842 -0.46583099999999994 0.858646
vn -0.779674 -0.611779 0.13354800000000003
vn -0.991078 -0.132756 -0.011860999999999991
vn -0.909727 -0.415177 -0.005025999999999975
vn -0.755252 0.655143 -0.01956600000000004
vn -0.193115 0.98101 -0.018080000000000058
vn -0.468054 0.869111 0.15991399999999995
vn -0.873965 -0.458655 0.16068800000000003
vn -0.715375 0.19122800000000004 0.672064
vn -0.418422 0.852989 0.31198299999999995
vn -0.555285 0.825455 0.10140299999999994
vn -0.630066 0.669531 0.39337599999999995
vn -0.369713 0.81965 0.43759099999999995
vn -0.185665 0.749717 0.635179
vn -0.089639 -0.04250299999999994 0.995067
vn -0.734801 0.559892 0.38286899999999996
vn -0.522726 0.08663400000000006 0.848088
vn -0.945643 0.16459800000000002 0.280475
vn -0.213842 -0.46583099999999994 0.858646
vn -0.672134 0.611634 0.41730199999999995
vn -0.779674 -0.611779 0.13354800000000003
vn -0.823883 0.13345000000000004 0.550825
vn -0.839617 -0.371824 0.395967
vn 0.895585 0.13346900000000003 0.424397
vn -0.001202 0.732737 0.680511
vn 0.602397 0.765314 0.22674199999999994
vn 0.641621 0.546871 0.537824
vn 0.868494 0.479113 0.12715499999999996
vn 0.776875 0.629199 -0.02394200000000004
vn 0.712223 -0.28305699999999995 0.642353
vn 0.87732 0.477817 -0.044729000000000026
vn 0.686148 0.727323 -0.014253000000000045
vn 0.951999 0.303891 -0.03671200000000002
vn 0.911192 -0.391372 0.12867200000000004
vn 0.548981 -0.620038 0.560511
vn 0.92031 -0.386565 -0.059970999999999976
vn 0.866074 -0.496835 -0.05542699999999997
vn 0.492178 -0.868777 0.05465000000000005
vn 0.501381 -0.861474 0.08049100000000005
vn 0.417773 -0.906579 -0.05983899999999995
vn 0.542068 -0.838181 -0.06011799999999995
vn 0.393567 -0.917634 -0.055255999999999944
vn 0.532882 -0.844454 -0.05417599999999995
vn 0.999006 -0.032492 -0.030529999999999998
vn 0.999687 0.004168999999999998 -0.024678
vn 0.999434 -0.022604 -0.024916
vn 0.998673 0.037825 -0.034962
vn 0.915116 0.401694 -0.034710000000000026
vn 0.977903 -0.12219899999999999 0.169624
vn 0.850366 0.523603 -0.05213000000000004
vn 0.67147 0.739938 -0.04026100000000005
vn 0.983784 0.126414 0.127234
vn 0.635973 -0.16503499999999993 0.753858
vn 0.725471 0.19965200000000002 0.658659
vn 0.696184 0.525497 0.48906099999999997
vn 0.869382 0.478675 0.12266299999999997
vn 0.678799 0.729895 0.08052499999999996
vn 0.640163 0.766331 -0.05411700000000005
vn 0.700939 0.712173 -0.03866100000000004
vn 0.726846 0.673123 0.13638699999999998
vn 0.415779 0.544027 0.728809
vn 0.785425 0.617341 -0.04470000000000003
vn 0.763699 0.64449 -0.03736000000000004
vn 0.625735 0.698918 0.3463669999999999
vn 0.644756 0.762605 -0.05219500000000005
vn 0.303241 0.951552 -0.050934000000000056
vn 0.102789 0.992686 -0.06331600000000005
vn 0.132007 0.980503 0.14555899999999994
vn 0.047238 0.859731 0.508558
vn 0.736411 0.671626 0.08135099999999997
vn -0.935855 -0.351614 -0.02332599999999998
vn -0.81093 -0.584683 -0.023204999999999965
vn -0.998804 0.047332 -0.012271000000000004
vn -0.990702 -0.134762 -0.018675999999999995
vn -0.700246 -0.713174 -0.03222699999999996
vn -0.963099 -0.213488 0.163903
vn -0.451622 -0.26763299999999995 0.851123
vn -0.367975 0.707833 0.602965
vn -0.833155 0.13148900000000002 0.537181
vn -0.638539 -0.768734 -0.03627899999999995
vn -0.260397 -0.964648 -0.040579999999999936
vn -0.952478 -0.259966 0.15875600000000004
vn -0.626843 -0.664635 0.4066060000000001
vn -0.598631 -0.800026 0.03997800000000005
vn -0.115335 -0.99228 -0.04559199999999994
vn -0.183877 -0.982144 -0.03977999999999994
vn -0.528778 -0.848223 -0.03018999999999995
vn -0.347157 -0.935373 0.06752300000000006
vn -0.135876 -0.985958 0.09707500000000005
vn -0.128455 -0.840964 0.525623
vn -0.15472 -0.868267 0.4713530000000001
vn -0.022064 0.999091 -0.036462000000000064
vn 0.125267 0.992038 -0.013013000000000061
vn -0.724019 0.688852 -0.03577100000000004
vn -0.862746 0.501715 -0.06286700000000003
vn -0.152342 0.987555 0.03908999999999994
vn -0.992833 0.113006 -0.03889800000000001
vn -0.891829 0.450348 0.04273999999999997
vn -0.185665 0.749717 0.635179
vn -0.976801 0.208341 -0.049540000000000015
vn -0.969088 0.243396 -0.040340000000000015
vn -0.811414 0.21981600000000004 0.541561
vn -0.080821 0.12195600000000005 0.989239
vn -0.990923 0.123863 -0.05225300000000001
vn -0.905654 -0.421907 -0.04224499999999997
vn -0.967824 0.245916 0.053313999999999986
vn -0.717186 0.12142400000000005 0.686221
vn 0.019447 -0.0007899999999999388 0.999811
vn -0.85949 0.14519600000000002 0.490097
vn -0.998161 0.052686 0.029967999999999998
vn -0.710835 -0.30579199999999995 0.633407
vn -0.042346 -0.765836 0.641641
vn -0.85683 -0.50648 0.09654300000000003
vn -0.277845 -0.9542 0.11092500000000005
vn -0.840923 -0.538107 -0.057357999999999965
vn 0.218956 -0.975709 -0.00710299999999994
vn -0.313507 -0.949109 -0.03008799999999994
vn 0.520449 0.749291 0.4095059999999999
vn 0.422052 0.759067 0.4956709999999999
vn 0.859819 0.286974 0.422323
vn 0.94006 0.256971 0.22417099999999998
vn 0.874943 -0.17814499999999997 0.450265
vn 0.725471 0.19965200000000002 0.658659
vn 0.895585 0.13346900000000003 0.424397
vn 0.95827 0.264934 0.10736999999999998
vn 0.977903 -0.12219899999999999 0.169624
vn 0.602397 0.765314 0.22674199999999994
vn 0.999006 -0.032492 -0.030529999999999998
vn 0.776875 0.629199 -0.02394200000000004
vn 0.975891 0.216002 -0.031306000000000014
vn 0.999687 0.004168999999999998 -0.024678
vn 0.951556 0.306415 -0.025501000000000017
vn 0.686148 0.727323 -0.014253000000000045
vn -0.001202 0.732737 0.680511
vn 0.895585 0.13346900000000003 0.424397
vn -0.188613 0.016286000000000057 0.981917
vn -0.282224 0.714179 0.640545
vn 0.184367 0.30606500000000003 0.933988
vn 0.641621 0.546871 0.537824
vn 0.712223 -0.28305699999999995 0.642353
vn 0.196687 0.16247900000000007 0.96691
vn 0.548981 -0.620038 0.560511
vn 0.097216 0.03368500000000006 0.994693
vn 0.211773 -0.778954 0.590239
vn -0.582326 -0.661027 0.47322200000000003
vn -0.268633 0.15548600000000007 0.950611
vn -0.15472 -0.868267 0.4713530000000001
vn -0.19544 0.821172 0.536171
vn -0.451622 -0.26763299999999995 0.851123
vn -0.367975 0.707833 0.602965
vn -0.111573 0.03764700000000006 0.993043
vn -0.128455 -0.840964 0.525623
vn -0.487643 -0.13923899999999995 0.861868
vn -0.833155 0.13148900000000002 0.537181
vn -0.626843 -0.664635 0.4066060000000001
vn -0.823883 0.13345000000000004 0.550825
vn -0.839617 -0.371824 0.395967
vn -0.505499 -0.24112199999999995 0.828451
vn -0.402534 -0.794822 0.45411900000000005
vn -0.466145 0.08714300000000005 0.880406
vn -0.672134 0.611634 0.41730199999999995
vn -0.278117 -0.566746 0.775532
vn -0.306968 0.49869500000000005 0.810601
vn -0.630066 0.669531 0.39337599999999995
vn -0.105778 -0.16449099999999994 0.98069
vn -0.131815 0.08396700000000006 0.987712
vn -0.044307 -0.632065 0.773648
vn -0.045624 -0.941176 0.33482400000000007
vn 0.253192 -0.580156 0.774153
vn 0.530272 -0.752694 0.39021000000000006
vn 0.224713 -0.18782799999999994 0.956151
vn 0.575069 -0.26206399999999996 0.774996
vn 0.874943 -0.17814499999999997 0.450265
vn 0.176162 0.10224500000000006 0.979037
vn 0.558776 0.09353900000000005 0.824027
vn 0.859819 0.286974 0.422323
vn 0.397481 0.31180700000000006 0.863009
vn 0.422052 0.759067 0.4956709999999999
vn -0.05616 0.26242600000000005 0.963317
vn 0.18207 0.46954000000000007 0.863935
vn -0.282545 0.49307400000000007 0.822828
vn -0.369713 0.81965 0.43759099999999995
vn -0.409924 0.4601700000000001 0.787532
g orig_orig_stone
f 1/1/1 2/2/2 3/3/3
f 4/4/4 1/1/1 5/5/5
f 5/5/5 6/6/6 7/7/7
f 8/8/8 9/9/9 5/5/5
f 5/5/5 10/10/10 11/11/11
f 12/12/12 13/13/13 14/14/14
f 14/14/14 15/15/15 16/16/16
f 15/15/15 14/14/14 17/17/17
f 17/17/17 18/18/18 15/15/15
f 19/19/19 20/20/20 15/15/15
f 15/15/15 18/18/18 21/21/21
f 21/21/21 22/22/22 23/23/23
f 21/21/21 24/24/24 15/15/15
f 23/23/23 24/24/24 21/21/21
f 15/15/15 24/24/24 25/25/25
f 24/24/24 23/23/23 26/26/26
f 26/26/26 27/27/27 24/24/24
f 27/27/27 26/26/26 28/28/28
f 28/28/28 29/29/29 27/27/27
f 30/30/30 27/27/27 29/29/29
f 31/31/31 29/29/29 28/28/28
f 28/28/28 32/32/32 31/31/31
f 29/29/29 33/33/33 30/30/30
f 34/34/34 30/30/30 33/33/33
f 33/33/33 35/35/35 34/34/34
f 36/36/36 31/31/31 32/32/32
f 32/32/32 37/37/37 36/36/36
f 29/29/29 31/31/31 38/38/38
f 38/38/38 31/31/31 36/36/36
f 38/38/38 33/33/33 29/29/29
f 35/35/35 33/33/33 38/38/38
f 36/36/36 39/39/39 38/38/38
f 38/38/38 40/40/40 35/35/35
f 40/40/40 38/38/38 39/39/39
f 39/39/39 41/41/41 40/40/40
f 42/42/42 43/43/43 44/44/44
f 44/44/44 45/45/45 46/46/46
f 45/45/45 44/44/44 47/47/47
f 47/47/47 48/48/48 45/45/45
f 49/49/49 50/50/50 45/45/45
f 48/48/48 51/51/51 52/52/52
f 45/45/45 53/53/53 49/49/49
f 53/53/53 45/45/45 48/48/48
f 53/53/53 54/54/54 49/49/49
f 53/53/53 55/55/55 54/54/54
f 48/48/48 55/55/55 53/53/53
f 55/55/55 48/48/48 52/52/52
f 52/52/52 56/56/56 55/55/55
f 57/57/57 49/49/49 58/58/58
f 57/57/57 58/58/58 59/59/59
f 60/60/60 61/61/61 57/57/57
f 57/57/57 59/59/59 60/60/60
f 62/62/62 60/60/60 59/59/59
f 59/59/59 63/63/63 62/62/62
f 64/64/64 65/65/65 66/66/66
f 66/66/66 67/67/67 68/68/68
f 68/68/68 69/69/69 66/66/66
f 66/66/66 69/69/69 70/70/70
f 71/71/71 72/72/72 69/69/69
f 69/69/69 68/68/68 73/73/73
f 73/73/73 74/74/74 75/75/75
f 73/73/73 76/76/76 69/69/69
f 75/75/75 76/76/76 73/73/73
f 69/69/69 76/76/76 77/77/77
f 76/76/76 75/75/75 78/78/78
f 79/79/79 80/80/80 76/76/76
f 81/81/81 82/82/82 83/83/83
f 83/83/83 84/84/84 81/81/81
f 85/85/85 84/84/84 83/83/83
f 84/84/84 85/85/85 86/86/86
f 86/86/86 85/85/85 87/87/87
f 88/88/88 87/87/87 85/85/85
f 85/85/85 89/89/89 88/88/88
f 90/90/90 88/88/88 89/89/89
f 89/89/89 91/91/91 90/90/90
f 92/92/92 93/93/93 94/94/94
f 94/94/94 95/95/95 92/92/92
f 95/95/95 94/94/94 96/96/96
f 96/96/96 97/97/97 95/95/95
f 98/98/98 99/99/99 100/100/100
f 100/100/100 101/101/101 98/98/98
f 102/102/102 98/98/98 101/101/101
f 101/101/101 103/103/103 102/102/102
f 104/104/104 102/102/102 103/103/103
f 103/103/103 105/105/105 104/104/104
f 106/106/106 107/107/107 108/108/108
f 108/108/108 109/109/109 106/106/106
f 110/110/110 106/106/106 109/109/109
f 109/109/109 111/111/111 110/110/110
f 112/112/112 110/110/110 111/111/111
f 113/113/113 112/112/112 111/111/111
f 111/111/111 114/114/114 113/113/113
f 115/115/115 112/112/112 113/113/113
f 113/113/113 114/114/114 116/116/116
f 113/113/113 117/117/117 115/115/115
f 116/116/116 117/117/117 113/113/113
f 118/118/118 119/119/119 120/120/120
f 120/120/120 121/121/121 118/118/118
f 118/118/118 121/121/121 122/122/122
f 122/122/122 123/123/123 118/118/118
f 124/124/124 123/123/123 122/122/122
f 125/125/125 124/124/124 122/122/122
f 126/126/126 125/125/125 122/122/122
f 127/127/127 128/128/128 129/129/129
f 129/129/129 130/130/130 127/127/127
f 127/127/127 130/130/130 131/131/131
f 131/131/131 132/132/132 127/127/127
f 133/133/133 132/132/132 131/131/131
f 131/131/131 134/134/134 133/133/133
f 135/135/135 134/134/134 131/131/131
f 134/134/134 135/135/135 136/136/136
f 136/136/136 137/137/137 134/134/134
f 138/138/138 139/139/139 140/140/140
f 140/140/140 139/139/139 141/141/141
f 141/141/141 142/142/142 140/140/140
f 142/142/142 141/141/141 143/143/143
f 144/144/144 140/140/140 142/142/142
f 143/143/143 145/145/145 142/142/142
f 142/142/142 146/146/146 144/144/144
f 142/142/142 145/145/145 147/147/147
f 147/147/147 146/146/146 142/142/142
f 148/148/148 149/149/149 150/150/150
f 150/150/150 149/149/149 151/151/151
f 151/151/151 152/152/152 150/150/150
f 153/153/153 150/150/150 152/152/152
f 152/152/152 151/151/151 154/154/154
f 152/152/152 155/155/155 153/153/153
f 156/156/156 153/153/153 155/155/155
f 155/155/155 157/157/157 156/156/156
f 154/154/154 158/158/158 152/152/152
f 155/155/155 152/152/152 158/158/158
f 158/158/158 154/154/154 159/159/159
f 157/157/157 155/155/155 160/160/160
f 158/158/158 160/160/160 155/155/155
f 160/160/160 161/161/161 157/157/157
f 159/159/159 162/162/162 158/158/158
f 160/160/160 158/158/158 162/162/162
f 163/163/163 162/162/162 159/159/159
f 162/162/162 163/163/163 164/164/164
f 161/161/161 160/160/160 165/165/165
f 162/162/162 165/165/165 160/160/160
f 164/164/164 165/165/165 162/162/162
f 165/165/165 166/166/166 161/161/161
f 166/166/166 165/165/165 164/164/164
f 164/164/164 167/167/167 166/166/166
f 168/168/168 169/169/169 170/170/170
f 170/170/170 171/171/171 168/168/168
f 171/171/171 170/170/170 172/172/172
f 173/173/173 168/168/168 171/171/171
f 172/172/172 174/174/174 171/171/171
f 174/174/174 172/172/172 175/175/175
f 171/171/171 176/176/176 173/173/173
f 176/176/176 171/171/171 174/174/174
f 173/173/173 177/177/177 178/178/178
f 177/177/177 173/173/173 176/176/176
f 176/176/176 179/179/179 177/177/177
f 174/174/174 180/180/180 176/176/176
f 176/176/176 180/180/180 179/179/179
f 181/181/181 180/180/180 174/174/174
f 180/180/180 181/181/181 179/179/179
f 175/175/175 182/182/182 174/174/174
f 174/174/174 182/182/182 181/181/181
f 182/182/182 175/175/175 183/183/183
f 179/179/179 181/181/181 184/184/184
f 184/184/184 181/181/181 182/182/182
f 184/184/184 185/185/185 179/179/179
f 183/183/183 186/186/186 182/182/182
f 182/182/182 186/186/186 184/184/184
f 186/186/186 183/183/183 187/187/187
f 188/188/188 185/185/185 184/184/184
f 187/187/187 189/189/189 186/186/186
f 189/189/189 187/187/187 190/190/190
f 190/190/190 191/191/191 189/189/189
f 189/189/189 191/191/191 192/192/192
f 192/192/192 193/193/193 188/188/188
f 186/186/186 189/189/189 194/194/194
f 192/192/192 194/194/194 189/189/189
f 194/194/194 184/184/184 186/186/186
f 188/188/188 194/194/194 192/192/192
f 184/184/184 194/194/194 188/188/188
f 195/195/195 196/196/196 197/197/197
f 197/197/197 198/198/198 195/195/195
f 198/198/198 197/197/197 199/199/199
f 200/200/200 195/195/195 198/198/198
f 201/201/201 200/200/200 202/202/202
f 203/203/203 202/202/202 200/200/200
f 199/199/199 204/204/204 198/198/198
f 204/204/204 199/199/199 205/205/205
f 198/198/198 206/206/206 200/200/200
f 200/200/200 206/206/206 203/203/203
f 206/206/206 198/198/198 204/204/204
f 207/207/207 203/203/203 206/206/206
f 204/204/204 208/208/208 206/206/206
f 206/206/206 208/208/208 207/207/207
f 205/205/205 209/209/209 204/204/204
f 208/208/208 204/204/204 209/209/209
f 209/209/209 205/205/205 210/210/210
f 210/210/210 211/211/211 209/209/209
f 209/209/209 211/211/211 212/212/212
f 207/207/207 208/208/208 213/213/213
f 209/209/209 213/213/213 208/208/208
f 212/212/212 213/213/213 209/209/209
f 213/213/213 214/214/214 207/207/207
f 213/213/213 212/212/212 215/215/215
f 215/215/215 214/214/214 213/213/213
f 216/216/216 217/217/217 218/218/218
f 218/218/218 219/219/219 216/216/216
f 220/220/220 216/216/216 219/219/219
f 219/219/219 218/218/218 221/221/221
f 219/219/219 222/222/222 220/220/220
f 223/223/223 220/220/220 222/222/222
f 221/221/221 224/224/224 219/219/219
f 222/222/222 219/219/219 224/224/224
f 224/224/224 221/221/221 225/225/225
f 226/226/226 223/223/223 222/222/222
f 223/223/223 226/226/226 227/227/227
f 225/225/225 228/228/228 224/224/224
f 228/228/228 225/225/225 229/229/229
f 224/224/224 230/230/230 222/222/222
f 226/226/226 222/222/222 230/230/230
f 230/230/230 224/224/224 228/228/228
f 227/227/227 226/226/226 231/231/231
f 230/230/230 231/231/231 226/226/226
f 232/232/232 227/227/227 231/231/231
f 233/233/233 231/231/231 230/230/230
f 231/231/231 233/233/233 232/232/232
f 228/228/228 234/234/234 230/230/230
f 230/230/230 234/234/234 233/233/233
f 232/232/232 233/233/233 235/235/235
f 235/235/235 236/236/236 232/232/232
f 237/237/237 235/235/235 233/233/233
f 235/235/235 237/237/237 236/236/236
f 233/233/233 234/234/234 237/237/237
f 236/236/236 237/237/237 238/238/238
f 234/234/234 228/228/228 239/239/239
f 239/239/239 237/237/237 234/234/234
f 238/238/238 237/237/237 239/239/239
f 229/229/229 239/239/239 228/228/228
f 239/239/239 240/240/240 238/238/238
f 239/239/239 229/229/229 241/241/241
f 241/241/241 240/240/240 239/239/239
f 242/242/242 243/243/243 244/244/244
f 244/244/244 245/245/245 242/242/242
f 245/245/245 244/244/244 246/246/246
f 247/247/247 242/242/242 245/245/245
f 246/246/246 248/248/248 245/245/245
f 245/245/245 249/249/249 247/247/247
f 249/249/249 245/245/245 248/248/248
f 247/247/247 249/249/249 250/250/250
f 248/248/248 251/251/251 249/249/249
f 252/252/252 250/250/250 249/249/249
f 249/249/249 251/251/251 253/253/253
f 249/249/249 254/254/254 252/252/252
f 253/253/253 254/254/254 249/249/249
f 255/255/255 252/252/252 254/254/254
f 254/254/254 256/256/256 255/255/255
f 256/256/256 254/254/254 253/253/253
f 253/253/253 257/257/257 256/256/256
f 258/258/258 259/259/259 260/260/260
f 260/260/260 261/261/261 258/258/258
f 262/262/262 258/258/258 261/261/261
f 262/262/262 263/263/263 258/258/258
f 262/262/262 264/264/264 263/263/263
f 265/265/265 264/264/264 262/262/262
f 261/261/261 265/265/265 262/262/262
f 266/266/266 264/264/264 265/265/265
f 265/265/265 267/267/267 266/266/266
f 267/267/267 265/265/265 261/261/261
f 267/267/267 268/268/268 266/266/266
f 269/269/269 268/268/268 267/267/267
f 267/267/267 270/270/270 269/269/269
f 270/270/270 267/267/267 261/261/261
f 270/270/270 271/271/271 269/269/269
f 272/272/272 261/261/261 260/260/260
f 270/270/270 261/261/261 272/272/272
f 272/272/272 260/260/260 273/273/273
f 273/273/273 274/274/274 272/272/272
f 271/271/271 270/270/270 275/275/275
f 272/272/272 275/275/275 270/270/270
f 275/275/275 272/272/272 274/274/274
f 275/275/275 276/276/276 271/271/271
f 274/274/274 277/277/277 275/275/275
f 276/276/276 275/275/275 277/277/277
f 277/277/277 274/274/274 278/278/278
f 277/277/277 279/279/279 276/276/276
f 278/278/278 279/279/279 277/277/277
f 280/280/280 281/281/281 282/282/282
f 282/282/282 281/281/281 283/283/283
f 282/282/282 284/284/284 280/280/280
f 285/285/285 280/280/280 284/284/284
f 283/283/283 286/286/286 282/282/282
f 284/284/284 287/287/287 285/285/285
f 288/288/288 285/285/285 287/287/287
f 284/284/284 282/282/282 289/289/289
f 289/289/289 282/282/282 286/286/286
f 287/287/287 284/284/284 290/290/290
f 289/289/289 290/290/290 284/284/284
f 291/291/291 286/286/286 283/283/283
f 289/289/289 286/286/286 291/291/291
f 283/283/283 292/292/292 291/291/291
f 293/293/293 291/291/291 292/292/292
f 292/292/292 294/294/294 293/293/293
f 295/295/295 289/289/289 291/291/291
f 291/291/291 293/293/293 295/295/295
f 296/296/296 293/293/293 294/294/294
f 293/293/293 296/296/296 295/295/295
f 294/294/294 297/297/297 296/296/296
f 289/289/289 295/295/295 298/298/298
f 298/298/298 290/290/290 289/289/289
f 295/295/295 296/296/296 299/299/299
f 299/299/299 296/296/296 297/297/297
f 299/299/299 298/298/298 295/295/295
f 297/297/297 300/300/300 299/299/299
f 301/301/301 299/299/299 300/300/300
f 298/298/298 299/299/299 301/301/301
f 300/300/300 302/302/302 301/301/301
f 290/290/290 298/298/298 303/303/303
f 298/298/298 301/301/301 303/303/303
f 290/290/290 303/303/303 287/287/287
f 304/304/304 301/301/301 302/302/302
f 301/301/301 304/304/304 303/303/303
f 305/305/305 304/304/304 302/302/302
f 303/303/303 304/304/304 305/305/305
f 302/302/302 306/306/306 305/305/305
f 305/305/305 306/306/306 288/288/288
f 307/307/307 287/287/287 303/303/303
f 287/287/287 307/307/307 288/288/288
f 303/303/303 305/305/305 307/307/307
f 288/288/288 307/307/307 305/305/305
