v 0.164545 0.691397 0.17602499999999993
v 0.001957 0.731841 0.17602499999999993
v -0.161249 0.687819 0.17602499999999993
v -0.299132 -0.013898999999999991 0.152344
v 0.301505 -0.02037099999999999 0.152344
v -0.001782 -0.708407 0.19116200000000005
vt 0.000000 0.000000
vt 0.000000 0.000000
vt 0.000000 0.000000
vt 0.000000 0.000000
vt 0.000000 0.000000
vt 0.000000 0.000000
vn 4E-06 -0.02237699999999994 0.99975
vn 0 6.123233995736766E-17 1
vn 0.000186 -0.01690299999999994 0.999857
vn 0.000206 -0.003689999999999939 0.999993
vn 0.000123 0.01138200000000006 0.999935
vn 0.000604 0.056064000000000065 0.998427
g cutout
f 1/1/1 2/2/2 3/3/3
f 1/1/1 3/3/3 4/4/4
f 1/1/1 4/4/4 5/5/5
f 4/4/4 6/6/6 5/5/5
