v 0.309494 1.378781 0.7486679999999999
v 0.772483 1.378781 0.7591089999999999
v 0.762041 1.378781 1.222099
v 0.299052 1.378781 1.211657
v 0.772483 1.378781 0.7591089999999999
v 0.309494 1.378781 0.7486679999999999
v 0.309494 1.663685 0.7486679999999999
v 0.772483 1.663685 0.7591089999999999
v 0.762041 1.378781 1.222099
v 0.772483 1.378781 0.7591089999999999
v 0.772483 1.663685 0.7591089999999999
v 0.762041 1.663685 1.222099
v 0.309494 1.378781 0.7486679999999999
v 0.299052 1.378781 1.211657
v 0.299052 1.663685 1.211657
v 0.309494 1.663685 0.7486679999999999
v 0.299052 1.378781 1.211657
v 0.762041 1.378781 1.222099
v 0.762041 1.663685 1.222099
v 0.299052 1.663685 1.211657
v 0.309494 1.663685 0.7486679999999999
v 0.299052 1.663685 1.211657
v 0.762041 1.663685 1.222099
v 0.772483 1.663685 0.7591089999999999
v 0.008415 1.809654 0.04722299999999989
v 0.008415 1.264409 0.047222999999999925
v 0.535248 1.264409 0.5059529999999999
v 0.535249 1.809654 0.5059529999999999
v 0.367802 1.811851 -0.1767000000000001
v 0.367802 1.235516 -0.17670100000000008
v 0.709961 1.235516 0.5269319999999998
v 0.71 1.811851 0.5270119999999999
v -0.573514 1.809654 0.6975459999999999
v 0.125046 1.809654 0.6975449999999999
v 0.125046 1.264409 0.6975459999999999
v -0.573515 1.264409 0.6975459999999999
v 0.24793 1.8096540000000003 2.094665
v 0.24793 1.2644090000000001 2.094666
v 0.24793 1.264409 1.396105
v 0.247929 1.809654 1.396105
v -0.115685 1.8118510000000003 1.841614
v -0.115685 1.2355160000000003 1.841615
v 0.15293 1.235516 1.106756
v 0.152961 1.811851 1.106672
v -0.402392 1.809654 1.512736
v -0.402392 1.264409 1.512737
v 0.056337 1.264409 0.9859029999999999
v 0.056337 1.809654 0.9859019999999998
v -0.320463 1.811851 0.33393099999999987
v 0.414479 1.811851 0.6025759999999999
v 0.414396 1.235516 0.6025459999999999
v -0.320463 1.235516 0.33392999999999995
v 0.008415 1.809654 0.04722299999999989
v 0.535249 1.809654 0.5059529999999999
v 0.535248 1.264409 0.5059529999999999
v 0.008415 1.264409 0.047222999999999925
v 1.18722 1.811851 0.12915199999999988
v 1.187221 1.235516 0.1291519999999999
v 0.918605 1.235516 0.8640109999999999
v 0.918575 1.811851 0.8640949999999998
v 1.473928 1.809654 0.4580309999999999
v 1.015199 1.809654 0.9848649999999999
v 1.015198 1.264409 0.9848639999999999
v 1.473928 1.264409 0.45803099999999997
v 1.391999 1.811851 1.636836
v 0.657056 1.811851 1.368191
v 0.65714 1.235516 1.368221
v 1.391999 1.235516 1.636836
v 1.06312 1.8096540000000003 1.923544
v 1.06312 1.2644090000000001 1.923544
v 0.536287 1.264409 1.464814
v 0.536286 1.809654 1.464815
v 0.823605 1.809654 -0.1238990000000001
v 0.823606 1.809654 0.5746619999999999
v 0.823606 1.264409 0.5746609999999999
v 0.823605 1.264409 -0.12389900000000008
v 0.367802 1.811851 -0.1767000000000001
v 0.71 1.811851 0.5270119999999999
v 0.709961 1.235516 0.5269319999999998
v 0.367802 1.235516 -0.17670100000000008
v 1.697852 1.811851 0.8174179999999999
v 1.697852 1.235516 0.8174179999999999
v 0.994219 1.235516 1.159577
v 0.994139 1.811851 1.159616
v 1.64505 1.809654 1.273221
v 0.94649 1.809654 1.273222
v 0.94649 1.264409 1.273221
v 1.64505 1.264409 1.273221
v -0.573514 1.809654 0.6975459999999999
v -0.573515 1.264409 0.6975459999999999
v 0.125046 1.264409 0.6975459999999999
v 0.125046 1.809654 0.6975449999999999
v -0.626316 1.811851 1.153349
v 0.077396 1.811851 0.8111509999999998
v 0.077316 1.235516 0.8111899999999999
v -0.626316 1.235516 1.153349
v 0.24793 1.8096540000000003 2.094665
v 0.247929 1.809654 1.396105
v 0.24793 1.264409 1.396105
v 0.24793 1.2644090000000001 2.094666
v 0.703733 1.8118510000000003 2.147467
v 0.361535 1.811851 1.443755
v 0.361574 1.235516 1.443835
v 0.703733 1.2355160000000003 2.147467
v -0.115685 1.8118510000000003 1.841614
v 0.152961 1.811851 1.106672
v 0.15293 1.235516 1.106756
v -0.115685 1.2355160000000003 1.841615
v -0.402392 1.809654 1.512736
v 0.056337 1.809654 0.9859019999999998
v 0.056337 1.264409 0.9859029999999999
v -0.402392 1.264409 1.512737
v 1.18722 1.811851 0.12915199999999988
v 0.918575 1.811851 0.8640949999999998
v 0.918605 1.235516 0.8640109999999999
v 1.187221 1.235516 0.1291519999999999
v 1.473928 1.809654 0.4580309999999999
v 1.473928 1.264409 0.45803099999999997
v 1.015198 1.264409 0.9848639999999999
v 1.015199 1.809654 0.9848649999999999
v 1.391999 1.811851 1.636836
v 1.391999 1.235516 1.636836
v 0.65714 1.235516 1.368221
v 0.657056 1.811851 1.368191
v 1.06312 1.8096540000000003 1.923544
v 0.536286 1.809654 1.464815
v 0.536287 1.264409 1.464814
v 1.06312 1.2644090000000001 1.923544
v 0.823605 1.809654 -0.1238990000000001
v 0.823605 1.264409 -0.12389900000000008
v 0.823606 1.264409 0.5746609999999999
v 0.823606 1.809654 0.5746619999999999
v 1.64505 1.809654 1.273221
v 1.64505 1.264409 1.273221
v 0.94649 1.264409 1.273221
v 0.94649 1.809654 1.273222
v 1.697852 1.811851 0.8174179999999999
v 0.994139 1.811851 1.159616
v 0.994219 1.235516 1.159577
v 1.697852 1.235516 0.8174179999999999
v -0.626316 1.811851 1.153349
v -0.626316 1.235516 1.153349
v 0.077316 1.235516 0.8111899999999999
v 0.077396 1.811851 0.8111509999999998
v 0.703733 1.8118510000000003 2.147467
v 0.703733 1.2355160000000003 2.147467
v 0.361574 1.235516 1.443835
v 0.361535 1.811851 1.443755
v -0.320463 1.811851 0.33393099999999987
v -0.320463 1.235516 0.33392999999999995
v 0.414396 1.235516 0.6025459999999999
v 0.414479 1.811851 0.6025759999999999
v 0.76313 1.663685 -0.21015400000000012
v 0.76313 1.378781 -0.2101540000000001
v 0.32779 1.378781 -0.2157300000000001
v 0.32779 1.663685 -0.21573000000000012
v -0.118059 1.378781 -0.04234900000000008
v -0.118059 1.663685 -0.0423490000000001
v -0.463619 1.378781 0.2884529999999999
v -0.463619 1.663685 0.2884529999999999
v -0.659769 1.378781 0.7580209999999998
v -0.659769 1.663685 0.7580209999999998
v 1.731305 1.663685 1.212745
v 1.731305 1.378781 1.212745
v 1.736881 1.378781 0.7774059999999999
v 1.736881 1.663685 0.7774059999999999
v 1.5635 1.378781 0.3315569999999999
v 1.5635 1.663685 0.3315569999999999
v 1.232698 1.378781 -0.014003000000000085
v 1.232698 1.663685 -0.014003000000000102
v 0.76313 1.378781 -0.2101540000000001
v 0.76313 1.663685 -0.21015400000000012
v -0.659769 1.663685 0.7580209999999998
v -0.659769 1.378781 0.7580209999999998
v -0.665346 1.378781 1.193361
v -0.665346 1.663685 1.193361
v -0.491964 1.378781 1.63921
v -0.491964 1.663685 1.63921
v -0.161162 1.3787810000000003 1.98477
v -0.161162 1.6636850000000003 1.98477
v 0.308405 1.3787810000000003 2.180921
v 0.308405 1.6636850000000003 2.180921
v 0.308405 1.6636850000000003 2.180921
v 0.308405 1.3787810000000003 2.180921
v 0.743745 1.3787810000000003 2.186497
v 0.743745 1.6636850000000003 2.186497
v 1.189594 1.3787810000000003 2.013116
v 1.189594 1.6636850000000003 2.013116
v 1.535154 1.378781 1.682314
v 1.535154 1.663685 1.682314
v 1.731305 1.378781 1.212745
v 1.731305 1.663685 1.212745
v 0.32779 1.378781 -0.2157300000000001
v 0.76313 1.378781 -0.2101540000000001
v 0.76313 1.663685 -0.21015400000000012
v 0.32779 1.663685 -0.21573000000000012
v -0.118059 1.378781 -0.04234900000000008
v -0.118059 1.663685 -0.0423490000000001
v -0.463619 1.378781 0.2884529999999999
v -0.463619 1.663685 0.2884529999999999
v -0.659769 1.378781 0.7580209999999998
v -0.659769 1.663685 0.7580209999999998
v 1.736881 1.378781 0.7774059999999999
v 1.731305 1.378781 1.212745
v 1.731305 1.663685 1.212745
v 1.736881 1.663685 0.7774059999999999
v 1.5635 1.378781 0.3315569999999999
v 1.5635 1.663685 0.3315569999999999
v 1.232698 1.378781 -0.014003000000000085
v 1.232698 1.663685 -0.014003000000000102
v 0.76313 1.378781 -0.2101540000000001
v 0.76313 1.663685 -0.21015400000000012
v -0.665346 1.378781 1.193361
v -0.659769 1.378781 0.7580209999999998
v -0.659769 1.663685 0.7580209999999998
v -0.665346 1.663685 1.193361
v -0.491964 1.378781 1.63921
v -0.491964 1.663685 1.63921
v -0.161162 1.3787810000000003 1.98477
v -0.161162 1.6636850000000003 1.98477
v 0.308405 1.3787810000000003 2.180921
v 0.308405 1.6636850000000003 2.180921
v 0.743745 1.3787810000000003 2.186497
v 0.308405 1.3787810000000003 2.180921
v 0.308405 1.6636850000000003 2.180921
v 0.743745 1.6636850000000003 2.186497
v 1.189594 1.3787810000000003 2.013116
v 1.189594 1.6636850000000003 2.013116
v 1.535154 1.378781 1.682314
v 1.535154 1.663685 1.682314
v 1.731305 1.378781 1.212745
v 1.731305 1.663685 1.212745
v 0.472036 0.9266230000000001 0.9574409999999999
v 0.472036 1.935932 0.9574409999999999
v 0.511531 1.935932 0.9179459999999999
v 0.511531 0.9266230000000001 0.9179459999999999
v 0.560004 0.9266230000000001 0.9179459999999999
v 0.560004 1.935932 0.9179459999999999
v 0.599499 1.935932 0.9574409999999999
v 0.599499 0.9266230000000001 0.9574409999999999
v 0.599499 0.9266230000000001 1.013326
v 0.599499 1.935932 1.0133259999999997
v 0.560004 1.935932 1.0528209999999998
v 0.560004 0.9266230000000001 1.052821
v 0.511531 1.935932 1.0528209999999998
v 0.511531 0.9266230000000001 1.052821
v 0.472036 1.935932 1.0133259999999997
v 0.472036 0.9266230000000001 1.013326
v 0.472036 0.9266230000000001 0.9574409999999999
v 0.472036 1.935932 0.9574409999999999
v 0.308406 1.3787810000000003 2.180898
v 0.308406 1.378781 1.212746
v 0.743746 1.3787810000000003 2.186497
v 1.189594 1.3787810000000003 2.013116
v 1.535154 1.378781 1.682314
v 1.731328 1.378781 1.212745
v 0.76313 1.378781 -0.2101310000000001
v 0.76313 1.378781 0.7580209999999998
v 0.32779 1.378781 -0.2157300000000001
v -0.118059 1.378781 -0.04234900000000008
v -0.463619 1.378781 0.2884529999999999
v -0.659793 1.378781 0.7580219999999999
v 1.731282 1.378781 1.212745
v 0.76313 1.378781 1.212746
v 1.736881 1.378781 0.7774059999999999
v 1.5635 1.378781 0.3315569999999999
v 1.232698 1.378781 -0.014003000000000085
v 0.76313 1.378781 -0.21017700000000009
v -0.659746 1.378781 0.7580209999999998
v 0.308405 1.378781 0.7580209999999998
v -0.665346 1.378781 1.193361
v -0.491964 1.378781 1.63921
v -0.161162 1.3787810000000003 1.98477
v 0.308406 1.3787810000000003 2.180944
v 0.76313 1.663685 0.7580209999999998
v 0.76313 1.663685 -0.21013100000000012
v 0.32779 1.663685 -0.21573000000000012
v -0.118059 1.663685 -0.0423490000000001
v -0.463619 1.663685 0.2884529999999999
v -0.659793 1.663685 0.7580219999999999
v 0.76313 1.663685 1.212746
v 1.731282 1.663685 1.212745
v 1.736881 1.663685 0.7774059999999999
v 1.5635 1.663685 0.3315569999999999
v 1.232698 1.663685 -0.014003000000000102
v 0.76313 1.663685 -0.2101770000000001
v 0.308405 1.663685 0.7580209999999998
v -0.659746 1.663685 0.7580209999999998
v -0.665346 1.663685 1.193361
v -0.491964 1.663685 1.63921
v -0.161162 1.6636850000000003 1.98477
v 0.308406 1.6636850000000003 2.180944
v 0.308405 1.663685 1.212746
v 0.308405 1.6636850000000003 2.180897
v 0.743745 1.6636850000000003 2.186497
v 1.189594 1.6636850000000003 2.013116
v 1.535154 1.663685 1.682314
v 1.731328 1.663685 1.212746
v 0.308406 1.378781 1.212746
v 0.308406 1.3787810000000003 2.180898
v 0.743746 1.3787810000000003 2.186497
v 1.189594 1.3787810000000003 2.013116
v 1.535154 1.378781 1.682314
v 1.731328 1.378781 1.212745
v 0.76313 1.378781 0.7580209999999998
v 0.76313 1.378781 -0.2101310000000001
v 0.32779 1.378781 -0.2157300000000001
v -0.118059 1.378781 -0.04234900000000008
v -0.463619 1.378781 0.2884529999999999
v -0.659793 1.378781 0.7580219999999999
v 0.76313 1.378781 1.212746
v 1.731282 1.378781 1.212745
v 1.736881 1.378781 0.7774059999999999
v 1.5635 1.378781 0.3315569999999999
v 1.232698 1.378781 -0.014003000000000085
v 0.76313 1.378781 -0.21017700000000009
v 0.308405 1.378781 0.7580209999999998
v -0.659746 1.378781 0.7580209999999998
v -0.665346 1.378781 1.193361
v -0.491964 1.378781 1.63921
v -0.161162 1.3787810000000003 1.98477
v 0.308406 1.3787810000000003 2.180944
v 0.76313 1.663685 -0.21013100000000012
v 0.76313 1.663685 0.7580209999999998
v 0.32779 1.663685 -0.21573000000000012
v -0.118059 1.663685 -0.0423490000000001
v -0.463619 1.663685 0.2884529999999999
v -0.659793 1.663685 0.7580219999999999
v 1.731282 1.663685 1.212745
v 0.76313 1.663685 1.212746
v 1.736881 1.663685 0.7774059999999999
v 1.5635 1.663685 0.3315569999999999
v 1.232698 1.663685 -0.014003000000000102
v 0.76313 1.663685 -0.2101770000000001
v -0.659746 1.663685 0.7580209999999998
v 0.308405 1.663685 0.7580209999999998
v -0.665346 1.663685 1.193361
v -0.491964 1.663685 1.63921
v -0.161162 1.6636850000000003 1.98477
v 0.308406 1.6636850000000003 2.180944
v 0.308405 1.6636850000000003 2.180897
v 0.308405 1.663685 1.212746
v 0.743745 1.6636850000000003 2.186497
v 1.189594 1.6636850000000003 2.013116
v 1.535154 1.663685 1.682314
v 1.731328 1.663685 1.212746
v 0.599499 0.9266230000000001 0.9574409999999999
v 0.599499 0.9266230000000001 1.013326
v 0.560004 0.9266230000000001 0.9179459999999999
v 0.560004 0.9266230000000001 1.052821
v 0.511531 0.9266230000000001 1.052821
v 0.472036 0.9266230000000001 0.9574409999999999
v 0.511531 0.9266230000000001 0.9179459999999999
v 0.472036 0.9266230000000001 1.013326
vt 0.830916 0.220693
vt 0.830916 0.292204
vt 0.865959 0.292204
vt 0.865959 0.220693
vt 0.919360 0.004707
vt 0.966816 0.004707
vt 0.966816 0.038909
vt 0.919360 0.038909
vt 0.868376 0.004707
vt 0.915832 0.004707
vt 0.915832 0.038909
vt 0.868376 0.038909
vt 0.868171 0.044706
vt 0.915627 0.044706
vt 0.915627 0.078908
vt 0.868171 0.078908
vt 0.919154 0.044706
vt 0.966611 0.044706
vt 0.966611 0.078908
vt 0.919154 0.078908
vt 0.792545 0.220693
vt 0.827588 0.220693
vt 0.827588 0.292204
vt 0.792545 0.292204
vt 1.696542 0.094125
vt 1.660312 0.094125
vt 1.660312 0.180199
vt 1.696542 0.180199
vt 1.735760 0.094125
vt 1.699530 0.094125
vt 1.699530 0.180199
vt 1.735760 0.180199
vt 1.657616 0.094125
vt 1.657616 0.180199
vt 1.621386 0.180199
vt 1.621386 0.094125
vt 0.696542 0.094125
vt 0.660312 0.094125
vt 0.660312 0.180199
vt 0.696542 0.180199
vt 1.735760 0.094125
vt 1.699530 0.094125
vt 1.699530 0.180199
vt 1.735760 0.180199
vt 1.696542 0.094125
vt 1.660312 0.094125
vt 1.660312 0.180199
vt 1.696542 0.180199
vt 1.774791 0.094125
vt 1.774791 0.180199
vt 1.738561 0.180199
vt 1.738561 0.094125
vt 1.657616 0.094125
vt 1.657616 0.180199
vt 1.621386 0.180199
vt 1.621386 0.094125
vt 1.735760 0.094125
vt 1.699530 0.094125
vt 1.699530 0.180199
vt 1.735760 0.180199
vt 1.657616 0.094125
vt 1.657616 0.180199
vt 1.621386 0.180199
vt 1.621386 0.094125
vt 1.774791 0.094125
vt 1.774791 0.180199
vt 1.738561 0.180199
vt 1.738561 0.094125
vt 1.696542 0.094125
vt 1.660312 0.094125
vt 1.660312 0.180199
vt 1.696542 0.180199
vt 1.657616 0.094125
vt 1.657616 0.180199
vt 1.621386 0.180199
vt 1.621386 0.094125
vt 1.774791 0.094125
vt 1.774791 0.180199
vt 1.738561 0.180199
vt 1.738561 0.094125
vt 1.735760 0.094125
vt 1.699530 0.094125
vt 1.699530 0.180199
vt 1.735760 0.180199
vt 1.657616 0.094125
vt 1.657616 0.180199
vt 1.621386 0.180199
vt 1.621386 0.094125
vt 1.696542 0.094125
vt 1.660312 0.094125
vt 1.660312 0.180199
vt 1.696542 0.180199
vt 1.774791 0.094125
vt 1.774791 0.180199
vt 1.738561 0.180199
vt 1.738561 0.094125
vt 0.657616 0.094125
vt 0.657616 0.180199
vt 0.621386 0.180199
vt 0.621386 0.094125
vt 0.774791 0.094125
vt 0.774791 0.180199
vt 0.738561 0.180199
vt 0.738561 0.094125
vt 1.774791 0.094125
vt 1.774791 0.180199
vt 1.738561 0.180199
vt 1.738561 0.094125
vt 1.657616 0.094125
vt 1.657616 0.180199
vt 1.621386 0.180199
vt 1.621386 0.094125
vt 1.774791 0.094125
vt 1.774791 0.180199
vt 1.738561 0.180199
vt 1.738561 0.094125
vt 1.696542 0.094125
vt 1.660312 0.094125
vt 1.660312 0.180199
vt 1.696542 0.180199
vt 1.735760 0.094125
vt 1.699530 0.094125
vt 1.699530 0.180199
vt 1.735760 0.180199
vt 1.657616 0.094125
vt 1.657616 0.180199
vt 1.621386 0.180199
vt 1.621386 0.094125
vt 1.696542 0.094125
vt 1.660312 0.094125
vt 1.660312 0.180199
vt 1.696542 0.180199
vt 1.696542 0.094125
vt 1.660312 0.094125
vt 1.660312 0.180199
vt 1.696542 0.180199
vt 1.774791 0.094125
vt 1.774791 0.180199
vt 1.738561 0.180199
vt 1.738561 0.094125
vt 1.735760 0.094125
vt 1.699530 0.094125
vt 1.699530 0.180199
vt 1.735760 0.180199
vt 0.735760 0.094125
vt 0.699530 0.094125
vt 0.699530 0.180199
vt 0.735760 0.180199
vt 1.735760 0.094125
vt 1.699530 0.094125
vt 1.699530 0.180199
vt 1.735760 0.180199
vt 1.975061 0.702344
vt 1.998745 0.702344
vt 1.998745 0.769598
vt 1.975061 0.769598
vt 1.998745 0.843494
vt 1.975061 0.843494
vt 1.998745 0.917390
vt 1.975061 0.917390
vt 1.998745 0.996002
vt 1.975061 0.996002
vt 1.975061 0.702344
vt 1.998745 0.702344
vt 1.998745 0.769598
vt 1.975061 0.769598
vt 1.998745 0.843494
vt 1.975061 0.843494
vt 1.998745 0.917390
vt 1.975061 0.917390
vt 1.998745 0.996002
vt 1.975061 0.996002
vt 1.975061 0.702344
vt 1.998745 0.702344
vt 1.998745 0.769598
vt 1.975061 0.769598
vt 1.998745 0.843494
vt 1.975061 0.843494
vt 1.998745 0.917390
vt 1.975061 0.917390
vt 1.998745 0.996002
vt 1.975061 0.996002
vt 0.975061 0.702344
vt 0.998745 0.702344
vt 0.998745 0.769598
vt 0.975061 0.769598
vt 0.998745 0.843494
vt 0.975061 0.843494
vt 0.998745 0.917390
vt 0.975061 0.917390
vt 0.998745 0.996002
vt 0.975061 0.996002
vt 1.972458 0.769729
vt 1.972458 0.702475
vt 1.948774 0.702475
vt 1.948774 0.769729
vt 1.972458 0.843625
vt 1.948774 0.843625
vt 1.972458 0.917520
vt 1.948774 0.917520
vt 1.972458 0.996132
vt 1.948774 0.996132
vt 1.972458 0.769729
vt 1.972458 0.702475
vt 1.948774 0.702475
vt 1.948774 0.769729
vt 1.972458 0.843625
vt 1.948774 0.843625
vt 1.972458 0.917520
vt 1.948774 0.917520
vt 1.972458 0.996132
vt 1.948774 0.996132
vt 1.972458 0.769729
vt 1.972458 0.702475
vt 1.948774 0.702475
vt 1.948774 0.769729
vt 1.972458 0.843625
vt 1.948774 0.843625
vt 1.972458 0.917520
vt 1.948774 0.917520
vt 1.972458 0.996132
vt 1.948774 0.996132
vt 0.972458 0.769729
vt 0.972458 0.702475
vt 0.948774 0.702475
vt 0.948774 0.769729
vt 0.972458 0.843625
vt 0.948774 0.843625
vt 0.972458 0.917520
vt 0.948774 0.917520
vt 0.972458 0.996132
vt 0.948774 0.996132
vt 0.079111 0.413866
vt 0.002058 0.413866
vt 0.002058 0.423012
vt 0.079111 0.423012
vt 0.079111 0.430949
vt 0.002058 0.430949
vt 0.002058 0.440095
vt 0.079111 0.440095
vt 0.079111 0.449245
vt 0.002058 0.449245
vt 0.002058 0.458391
vt 0.079111 0.458391
vt 0.002058 0.466329
vt 0.079111 0.466328
vt 0.002058 0.475474
vt 0.079111 0.475474
vt 0.079111 0.484625
vt 0.002058 0.484625
vt 1.715147 0.702401
vt 1.715147 0.827929
vt 1.749029 0.703027
vt 1.783729 0.725267
vt 1.810623 0.767699
vt 1.825891 0.827929
vt 1.715147 0.702401
vt 1.715147 0.827929
vt 1.749029 0.703027
vt 1.783729 0.725267
vt 1.810623 0.767699
vt 1.825891 0.827929
vt 1.715147 0.702401
vt 1.715147 0.827929
vt 1.749029 0.703027
vt 1.783729 0.725267
vt 1.810623 0.767699
vt 1.825891 0.827929
vt 1.715147 0.702401
vt 1.715147 0.827929
vt 1.749029 0.703027
vt 1.783729 0.725267
vt 1.810623 0.767699
vt 1.825891 0.827929
vt 1.715147 0.827929
vt 1.715147 0.702401
vt 1.749029 0.703027
vt 1.783729 0.725267
vt 1.810623 0.767699
vt 1.825891 0.827929
vt 1.715147 0.827929
vt 1.715147 0.702401
vt 1.749029 0.703027
vt 1.783729 0.725267
vt 1.810623 0.767699
vt 1.825891 0.827929
vt 1.715147 0.827929
vt 1.715147 0.702401
vt 1.749029 0.703027
vt 1.783729 0.725267
vt 1.810623 0.767699
vt 1.825891 0.827929
vt 0.715147 0.827929
vt 0.715147 0.702401
vt 0.749029 0.703027
vt 0.783729 0.725267
vt 0.810623 0.767699
vt 0.825891 0.827929
vt 1.946312 0.871210
vt 1.946312 0.995394
vt 1.911161 0.996112
vt 1.875163 0.973873
vt 1.847262 0.931440
vt 1.831422 0.871210
vt 1.946312 0.871210
vt 1.946312 0.995394
vt 1.911161 0.996112
vt 1.875163 0.973873
vt 1.847262 0.931440
vt 1.831422 0.871210
vt 1.946312 0.871210
vt 1.946312 0.995394
vt 1.911161 0.996112
vt 1.875163 0.973873
vt 1.847262 0.931440
vt 1.831422 0.871210
vt 1.946312 0.871210
vt 1.946312 0.995394
vt 1.911161 0.996112
vt 1.875163 0.973873
vt 1.847262 0.931440
vt 1.831422 0.871210
vt 1.946312 0.995394
vt 1.946312 0.871210
vt 1.911161 0.996112
vt 1.875163 0.973873
vt 1.847262 0.931440
vt 1.831422 0.871210
vt 1.946312 0.995394
vt 1.946312 0.871210
vt 1.911161 0.996112
vt 1.875163 0.973873
vt 1.847262 0.931440
vt 1.831422 0.871210
vt 1.946312 0.995394
vt 1.946312 0.871210
vt 1.911161 0.996112
vt 1.875163 0.973873
vt 1.847262 0.931440
vt 1.831422 0.871210
vt 0.946312 0.995394
vt 0.946312 0.871210
vt 0.911161 0.996112
vt 0.875163 0.973873
vt 0.847262 0.931440
vt 0.831422 0.871210
vt 0.007082 0.596983
vt 0.014122 0.596983
vt 0.002107 0.586831
vt 0.019097 0.586831
vt 0.019097 0.574371
vt 0.007082 0.564219
vt 0.002107 0.574371
vt 0.014122 0.564219
vn 0 -1 6.123233995736766E-17
vn 0 -1 6.123233995736766E-17
vn 0 -1 6.123233995736766E-17
vn 0 -1 6.123233995736766E-17
vn 0.022547 -6.12167869430185E-17 -0.999746
vn 0.022547 -6.12167869430185E-17 -0.999746
vn 0.022547 -6.12167869430185E-17 -0.999746
vn 0.022547 -6.12167869430185E-17 -0.999746
vn 0.999746 1.3806055690187687E-18 0.022547
vn 0.999746 1.3806055690187687E-18 0.022547
vn 0.999746 1.3806055690187687E-18 0.022547
vn 0.999746 1.3806055690187687E-18 0.022547
vn -0.999746 -1.3806055690187687E-18 -0.022547
vn -0.999746 -1.3806055690187687E-18 -0.022547
vn -0.999746 -1.3806055690187687E-18 -0.022547
vn -0.999746 -1.3806055690187687E-18 -0.022547
vn -0.022547 6.12167869430185E-17 0.999746
vn -0.022547 6.12167869430185E-17 0.999746
vn -0.022547 6.12167869430185E-17 0.999746
vn -0.022547 6.12167869430185E-17 0.999746
vn 0 1 -6.123233995736766E-17
vn 0 1 -6.123233995736766E-17
vn 0 1 -6.123233995736766E-17
vn 0 1 -6.123233995736766E-17
vn -0.656678 1.0000000000461796E-06 0.754171
vn -0.656679 4.617959382564797E-17 0.75417
vn -0.656678 1.0000000000461796E-06 0.754171
vn -0.656678 1.0000000000461796E-06 0.754171
vn -0.89931 1.0000000000267776E-06 0.437312
vn -0.89931 2.6777637051436366E-17 0.437312
vn -0.89931 1.0000000000267776E-06 0.437312
vn -0.89931 1.0000000000267776E-06 0.437312
vn -0 -6.123233995736766E-17 -1
vn -1E-06 -1.0000000000612324E-06 -1
vn -0 -6.123233995736766E-17 -1
vn -0 -6.123233995736766E-17 -1
vn 1 1E-06 -1E-06
vn 1 0 0
vn 1 1E-06 -1E-06
vn 1 1E-06 -1E-06
vn 0.93922 2.1022042024803635E-17 0.343316
vn 0.93922 2.1022042024803635E-17 0.343316
vn 0.93922 2.1022042024803635E-17 0.343316
vn 0.93922 2.1022042024803635E-17 0.343316
vn 0.754171 1.0000000000402099E-06 0.656678
vn 0.754171 4.020999177086424E-17 0.656679
vn 0.754171 1.0000000000402099E-06 0.656678
vn 0.754171 1.0000000000402099E-06 0.656678
vn 0.343316 -5.751063833475886E-17 -0.93922
vn 0.343316 -5.751063833475886E-17 -0.93922
vn 0.343316 -5.751063833475886E-17 -0.93922
vn 0.343316 -5.751063833475886E-17 -0.93922
vn 0.656679 -4.617959382564797E-17 -0.75417
vn 0.656678 -1.0000000000461796E-06 -0.754171
vn 0.656679 -4.617959382564797E-17 -0.75417
vn 0.656679 -4.617959382564797E-17 -0.75417
vn -0.93922 9.99999999978978E-07 -0.343315
vn -0.93922 -2.1022042024803635E-17 -0.343316
vn -0.93922 9.99999999978978E-07 -0.343315
vn -0.93922 9.99999999978978E-07 -0.343315
vn 0.75417 4.020999177086424E-17 0.656679
vn 0.754171 -9.9999999995979E-07 0.656678
vn 0.75417 4.020999177086424E-17 0.656679
vn 0.75417 4.020999177086424E-17 0.656679
vn -0.343316 5.751063833475886E-17 0.93922
vn -0.343316 5.751063833475886E-17 0.93922
vn -0.343316 5.751063833475886E-17 0.93922
vn -0.343316 5.751063833475886E-17 0.93922
vn 0.656678 9.999999999538204E-07 -0.754171
vn 0.656679 -4.617959382564797E-17 -0.75417
vn 0.656678 9.999999999538204E-07 -0.754171
vn 0.656678 9.999999999538204E-07 -0.754171
vn 1 -6.123233995736766E-23 -1E-06
vn 1 -1.0000000000000002E-06 -2E-06
vn 1 -6.123233995736766E-23 -1E-06
vn 1 -6.123233995736766E-23 -1E-06
vn 0.89931 -2.6777637051436366E-17 -0.437312
vn 0.89931 -1.0000000000267776E-06 -0.437312
vn 0.89931 -2.6777637051436366E-17 -0.437312
vn 0.89931 -2.6777637051436366E-17 -0.437312
vn -0.437312 9.99999999944933E-07 -0.89931
vn -0.437312 -5.5066855647060316E-17 -0.89931
vn -0.437312 9.99999999944933E-07 -0.89931
vn -0.437312 9.99999999944933E-07 -0.89931
vn 0 6.123233995736766E-17 1
vn 1E-06 -1.9999999999387675E-06 1
vn 0 6.123233995736766E-17 1
vn 0 6.123233995736766E-17 1
vn 1E-06 1.0000000000612324E-06 1
vn 0 6.123233995736766E-17 1
vn 1E-06 1.0000000000612324E-06 1
vn 1E-06 1.0000000000612324E-06 1
vn -0.437312 -5.5066855647060316E-17 -0.89931
vn -0.437312 -1.0000000000550668E-06 -0.89931
vn -0.437312 -5.5066855647060316E-17 -0.89931
vn -0.437312 -5.5066855647060316E-17 -0.89931
vn -1 0 0
vn -1 -1E-06 1E-06
vn -1 0 0
vn -1 0 0
vn -0.89931 2.6777637051436366E-17 0.437312
vn -0.89931 -9.999999999732223E-07 0.437312
vn -0.89931 2.6777637051436366E-17 0.437312
vn -0.89931 2.6777637051436366E-17 0.437312
vn -0.93922 -2.1022042024803635E-17 -0.343316
vn -0.93922 -2.1022042024803635E-17 -0.343316
vn -0.93922 -2.1022042024803635E-17 -0.343316
vn -0.93922 -2.1022042024803635E-17 -0.343316
vn -0.754171 -4.020999177086424E-17 -0.656679
vn -0.754171 -1.0000000000402099E-06 -0.656678
vn -0.754171 -4.020999177086424E-17 -0.656679
vn -0.754171 -4.020999177086424E-17 -0.656679
vn 0.93922 2.1022042024803635E-17 0.343316
vn 0.93922 -9.99999999978978E-07 0.343315
vn 0.93922 2.1022042024803635E-17 0.343316
vn 0.93922 2.1022042024803635E-17 0.343316
vn -0.754171 9.9999999995979E-07 -0.656678
vn -0.75417 -4.020999177086424E-17 -0.656679
vn -0.754171 9.9999999995979E-07 -0.656678
vn -0.754171 9.9999999995979E-07 -0.656678
vn 0.343316 -5.751063833475886E-17 -0.93922
vn 0.343316 -5.751063833475886E-17 -0.93922
vn 0.343316 -5.751063833475886E-17 -0.93922
vn 0.343316 -5.751063833475886E-17 -0.93922
vn -0.656679 4.617959382564797E-17 0.75417
vn -0.656678 -9.999999999538204E-07 0.754171
vn -0.656679 4.617959382564797E-17 0.75417
vn -0.656679 4.617959382564797E-17 0.75417
vn -1 1.0000000000000002E-06 2E-06
vn -1 6.123233995736766E-23 1E-06
vn -1 1.0000000000000002E-06 2E-06
vn -1 1.0000000000000002E-06 2E-06
vn -1E-06 1.9999999999387675E-06 -1
vn -0 -6.123233995736766E-17 -1
vn -1E-06 1.9999999999387675E-06 -1
vn -1E-06 1.9999999999387675E-06 -1
vn 0.437312 5.5066855647060316E-17 0.89931
vn 0.437312 -9.99999999944933E-07 0.89931
vn 0.437312 5.5066855647060316E-17 0.89931
vn 0.437312 5.5066855647060316E-17 0.89931
vn 0.437312 1.0000000000550668E-06 0.89931
vn 0.437312 5.5066855647060316E-17 0.89931
vn 0.437312 1.0000000000550668E-06 0.89931
vn 0.437312 1.0000000000550668E-06 0.89931
vn 0.89931 9.999999999732223E-07 -0.437312
vn 0.89931 -2.6777637051436366E-17 -0.437312
vn 0.89931 9.999999999732223E-07 -0.437312
vn 0.89931 9.999999999732223E-07 -0.437312
vn -0.343316 5.751063833475886E-17 0.93922
vn -0.343316 5.751063833475886E-17 0.93922
vn -0.343316 5.751063833475886E-17 0.93922
vn -0.343316 5.751063833475886E-17 0.93922
vn 0.13928 -6.06355083398032E-17 -0.990253
vn 0.265542 -5.903403772055821E-17 -0.964099
vn -0.114134 -6.083218661574627E-17 -0.993465
vn -0.241287 -5.942316924098728E-17 -0.970454
vn -0.480325 -5.370633428554756E-17 -0.877091
vn -0.59192 -4.935302107627851E-17 -0.805996
vn -0.783254 -3.806826821617539E-17 -0.621702
vn -0.861797 -3.106028814039462E-17 -0.507253
vn -0.964099 -1.6259758016959322E-17 -0.265542
vn -0.990253 -8.528501541602124E-18 -0.139281
vn 0.990253 8.528501541602124E-18 0.139281
vn 0.964099 1.625981924929928E-17 0.265543
vn 0.993465 -6.988630656354243E-18 -0.114133
vn 0.970454 -1.477456761129337E-17 -0.241287
vn 0.877091 -2.9411423690022624E-17 -0.480325
vn 0.805996 -3.624464666756507E-17 -0.59192
vn 0.621702 -4.796047520096805E-17 -0.783254
vn 0.507253 -5.276984687823958E-17 -0.861797
vn 0.265542 -5.903403772055821E-17 -0.964099
vn 0.13928 -6.06355083398032E-17 -0.990253
vn -0.990253 -8.528501541602124E-18 -0.139281
vn -0.964099 -1.6259758016959322E-17 -0.265542
vn -0.993466 6.988630656354243E-18 0.114133
vn -0.970454 1.477456761129337E-17 0.241287
vn -0.877091 2.9411423690022624E-17 0.480325
vn -0.805996 3.624464666756507E-17 0.59192
vn -0.621702 4.796047520096805E-17 0.783254
vn -0.507253 5.276984687823958E-17 0.861797
vn -0.265542 5.903403772055821E-17 0.964099
vn -0.13928 6.06355083398032E-17 0.990253
vn -0.13928 6.06355083398032E-17 0.990253
vn -0.265542 5.903403772055821E-17 0.964099
vn 0.114134 6.083218661574627E-17 0.993465
vn 0.241287 5.942316924098728E-17 0.970454
vn 0.480325 5.370633428554756E-17 0.877091
vn 0.59192 4.935308230861846E-17 0.805997
vn 0.783254 3.806826821617539E-17 0.621702
vn 0.861797 3.106028814039462E-17 0.507253
vn 0.964099 1.625981924929928E-17 0.265543
vn 0.990253 8.528501541602124E-18 0.139281
vn 0.114134 6.083218661574627E-17 0.993465
vn -0.265542 5.903403772055821E-17 0.964099
vn -0.13928 6.06355083398032E-17 0.990253
vn 0.241287 5.942316924098728E-17 0.970454
vn 0.480325 5.370633428554756E-17 0.877091
vn 0.59192 4.935302107627851E-17 0.805996
vn 0.783254 3.806826821617539E-17 0.621702
vn 0.861797 3.106028814039462E-17 0.507253
vn 0.964099 1.6259758016959322E-17 0.265542
vn 0.990253 8.528501541602124E-18 0.139281
vn -0.993465 6.988630656354243E-18 0.114133
vn -0.964099 -1.625981924929928E-17 -0.265543
vn -0.990253 -8.528501541602124E-18 -0.139281
vn -0.970454 1.477456761129337E-17 0.241287
vn -0.877091 2.9411423690022624E-17 0.480325
vn -0.805996 3.624464666756507E-17 0.59192
vn -0.621702 4.796047520096805E-17 0.783254
vn -0.507253 5.276984687823958E-17 0.861797
vn -0.265542 5.903403772055821E-17 0.964099
vn -0.13928 6.06355083398032E-17 0.990253
vn 0.993466 -6.988630656354243E-18 -0.114133
vn 0.964099 1.6259758016959322E-17 0.265542
vn 0.990253 8.528501541602124E-18 0.139281
vn 0.970454 -1.477456761129337E-17 -0.241287
vn 0.877091 -2.9411423690022624E-17 -0.480325
vn 0.805996 -3.624464666756507E-17 -0.59192
vn 0.621702 -4.796047520096805E-17 -0.783254
vn 0.507253 -5.276984687823958E-17 -0.861797
vn 0.265542 -5.903403772055821E-17 -0.964099
vn 0.13928 -6.06355083398032E-17 -0.990253
vn -0.114134 -6.083218661574627E-17 -0.993465
vn 0.265542 -5.903403772055821E-17 -0.964099
vn 0.13928 -6.06355083398032E-17 -0.990253
vn -0.241287 -5.942316924098728E-17 -0.970454
vn -0.480325 -5.370633428554756E-17 -0.877091
vn -0.59192 -4.935308230861846E-17 -0.805997
vn -0.783254 -3.806826821617539E-17 -0.621702
vn -0.861797 -3.106028814039462E-17 -0.507253
vn -0.964099 -1.625981924929928E-17 -0.265543
vn -0.990253 -8.528501541602124E-18 -0.139281
vn -0.92388 -2.3432575551905327E-17 -0.382683
vn -0.92388 -2.3432575551905327E-17 -0.382683
vn -0.382683 -5.657133423981284E-17 -0.92388
vn -0.382683 -5.657133423981284E-17 -0.92388
vn 0.382683 -5.657133423981284E-17 -0.92388
vn 0.382683 -5.657133423981284E-17 -0.92388
vn 0.923879 -2.3432636784245287E-17 -0.382684
vn 0.923879 -2.3432636784245287E-17 -0.382684
vn 0.923879 2.3432636784245287E-17 0.382684
vn 0.923879 2.3432636784245287E-17 0.382684
vn 0.505449 5.283475315859439E-17 0.862857
vn 0.252724 5.92446157376716E-17 0.967538
vn -0.252725 5.92446157376716E-17 0.967538
vn -0.505449 5.2834691926254425E-17 0.862856
vn -0.92388 2.3432575551905327E-17 0.382683
vn -0.92388 2.3432575551905327E-17 0.382683
vn -0.92388 -2.3432575551905327E-17 -0.382683
vn -0.92388 -2.3432575551905327E-17 -0.382683
vn 0 -1 6.123233995736766E-17
vn 0 -1 6.123233995736766E-17
vn 0 -1 6.123233995736766E-17
vn 0 -1 6.123233995736766E-17
vn 0 -1 6.123233995736766E-17
vn 0 -1 6.123233995736766E-17
vn 0 -1 6.123233995736766E-17
vn 0 -1 6.123233995736766E-17
vn 0 -1 6.123233995736766E-17
vn 0 -1 6.123233995736766E-17
vn 0 -1 6.123233995736766E-17
vn 0 -1 6.123233995736766E-17
vn 0 -1 6.123233995736766E-17
vn 0 -1 6.123233995736766E-17
vn 0 -1 6.123233995736766E-17
vn 0 -1 6.123233995736766E-17
vn 0 -1 6.123233995736766E-17
vn 0 -1 6.123233995736766E-17
vn 0 -1 6.123233995736766E-17
vn 0 -1 6.123233995736766E-17
vn 0 -1 6.123233995736766E-17
vn 0 -1 6.123233995736766E-17
vn 0 -1 6.123233995736766E-17
vn 0 -1 6.123233995736766E-17
vn 0 1 -6.123233995736766E-17
vn 0 1 -6.123233995736766E-17
vn 0 1 -6.123233995736766E-17
vn 0 1 -6.123233995736766E-17
vn 0 1 -6.123233995736766E-17
vn 0 1 -6.123233995736766E-17
vn 0 1 -6.123233995736766E-17
vn 0 1 -6.123233995736766E-17
vn 0 1 -6.123233995736766E-17
vn 0 1 -6.123233995736766E-17
vn 0 1 -6.123233995736766E-17
vn 0 1 -6.123233995736766E-17
vn 0 1 -6.123233995736766E-17
vn 0 1 -6.123233995736766E-17
vn 0 1 -6.123233995736766E-17
vn 0 1 -6.123233995736766E-17
vn 0 1 -6.123233995736766E-17
vn 0 1 -6.123233995736766E-17
vn 0 1 -6.123233995736766E-17
vn 0 1 -6.123233995736766E-17
vn 0 1 -6.123233995736766E-17
vn 0 1 -6.123233995736766E-17
vn 0 1 -6.123233995736766E-17
vn 0 1 -6.123233995736766E-17
vn 0 1 -6.123233995736766E-17
vn 0 1 -6.123233995736766E-17
vn 0 1 -6.123233995736766E-17
vn 0 1 -6.123233995736766E-17
vn 0 1 -6.123233995736766E-17
vn 0 1 -6.123233995736766E-17
vn 0 1 -6.123233995736766E-17
vn 0 1 -6.123233995736766E-17
vn 0 1 -6.123233995736766E-17
vn 0 1 -6.123233995736766E-17
vn 0 1 -6.123233995736766E-17
vn 0 1 -6.123233995736766E-17
vn 0 1 -6.123233995736766E-17
vn 0 1 -6.123233995736766E-17
vn 0 1 -6.123233995736766E-17
vn 0 1 -6.123233995736766E-17
vn 0 1 -6.123233995736766E-17
vn 0 1 -6.123233995736766E-17
vn 0 1 -6.123233995736766E-17
vn 0 1 -6.123233995736766E-17
vn 0 1 -6.123233995736766E-17
vn 0 1 -6.123233995736766E-17
vn 0 1 -6.123233995736766E-17
vn 0 1 -6.123233995736766E-17
vn 0 -1 6.123233995736766E-17
vn 0 -1 6.123233995736766E-17
vn 0 -1 6.123233995736766E-17
vn 0 -1 6.123233995736766E-17
vn 0 -1 6.123233995736766E-17
vn 0 -1 6.123233995736766E-17
vn 0 -1 6.123233995736766E-17
vn 0 -1 6.123233995736766E-17
vn 0 -1 6.123233995736766E-17
vn 0 -1 6.123233995736766E-17
vn 0 -1 6.123233995736766E-17
vn 0 -1 6.123233995736766E-17
vn 0 -1 6.123233995736766E-17
vn 0 -1 6.123233995736766E-17
vn 0 -1 6.123233995736766E-17
vn 0 -1 6.123233995736766E-17
vn 0 -1 6.123233995736766E-17
vn 0 -1 6.123233995736766E-17
vn 0 -1 6.123233995736766E-17
vn 0 -1 6.123233995736766E-17
vn 0 -1 6.123233995736766E-17
vn 0 -1 6.123233995736766E-17
vn 0 -1 6.123233995736766E-17
vn 0 -1 6.123233995736766E-17
vn 0 -1 6.123233995736766E-17
vn 0 -1 6.123233995736766E-17
vn 0 -1 6.123233995736766E-17
vn 0 -1 6.123233995736766E-17
vn 0 -1 6.123233995736766E-17
vn 0 -1 6.123233995736766E-17
vn 0 -1 6.123233995736766E-17
vn 0 -1 6.123233995736766E-17
g Noria
f 1/1/1 2/2/2 3/3/3
f 3/3/3 4/4/4 1/1/1
f 5/5/5 6/6/6 7/7/7
f 7/7/7 8/8/8 5/5/5
f 9/9/9 10/10/10 11/11/11
f 11/11/11 12/12/12 9/9/9
f 13/13/13 14/14/14 15/15/15
f 15/15/15 16/16/16 13/13/13
f 17/17/17 18/18/18 19/19/19
f 19/19/19 20/20/20 17/17/17
f 21/21/21 22/22/22 23/23/23
f 23/23/23 24/24/24 21/21/21
f 25/25/25 26/26/26 27/27/27
f 27/27/27 28/28/28 25/25/25
f 29/29/29 30/30/30 31/31/31
f 31/31/31 32/32/32 29/29/29
f 33/33/33 34/34/34 35/35/35
f 35/35/35 36/36/36 33/33/33
f 37/37/37 38/38/38 39/39/39
f 39/39/39 40/40/40 37/37/37
f 41/41/41 42/42/42 43/43/43
f 43/43/43 44/44/44 41/41/41
f 45/45/45 46/46/46 47/47/47
f 47/47/47 48/48/48 45/45/45
f 49/49/49 50/50/50 51/51/51
f 51/51/51 52/52/52 49/49/49
f 53/53/53 54/54/54 55/55/55
f 55/55/55 56/56/56 53/53/53
f 57/57/57 58/58/58 59/59/59
f 59/59/59 60/60/60 57/57/57
f 61/61/61 62/62/62 63/63/63
f 63/63/63 64/64/64 61/61/61
f 65/65/65 66/66/66 67/67/67
f 67/67/67 68/68/68 65/65/65
f 69/69/69 70/70/70 71/71/71
f 71/71/71 72/72/72 69/69/69
f 73/73/73 74/74/74 75/75/75
f 75/75/75 76/76/76 73/73/73
f 77/77/77 78/78/78 79/79/79
f 79/79/79 80/80/80 77/77/77
f 81/81/81 82/82/82 83/83/83
f 83/83/83 84/84/84 81/81/81
f 85/85/85 86/86/86 87/87/87
f 87/87/87 88/88/88 85/85/85
f 89/89/89 90/90/90 91/91/91
f 91/91/91 92/92/92 89/89/89
f 93/93/93 94/94/94 95/95/95
f 95/95/95 96/96/96 93/93/93
f 97/97/97 98/98/98 99/99/99
f 99/99/99 100/100/100 97/97/97
f 101/101/101 102/102/102 103/103/103
f 103/103/103 104/104/104 101/101/101
f 105/105/105 106/106/106 107/107/107
f 107/107/107 108/108/108 105/105/105
f 109/109/109 110/110/110 111/111/111
f 111/111/111 112/112/112 109/109/109
f 113/113/113 114/114/114 115/115/115
f 115/115/115 116/116/116 113/113/113
f 117/117/117 118/118/118 119/119/119
f 119/119/119 120/120/120 117/117/117
f 121/121/121 122/122/122 123/123/123
f 123/123/123 124/124/124 121/121/121
f 125/125/125 126/126/126 127/127/127
f 127/127/127 128/128/128 125/125/125
f 129/129/129 130/130/130 131/131/131
f 131/131/131 132/132/132 129/129/129
f 133/133/133 134/134/134 135/135/135
f 135/135/135 136/136/136 133/133/133
f 137/137/137 138/138/138 139/139/139
f 139/139/139 140/140/140 137/137/137
f 141/141/141 142/142/142 143/143/143
f 143/143/143 144/144/144 141/141/141
f 145/145/145 146/146/146 147/147/147
f 147/147/147 148/148/148 145/145/145
f 149/149/149 150/150/150 151/151/151
f 151/151/151 152/152/152 149/149/149
f 153/153/153 154/154/154 155/155/155
f 155/155/155 156/156/156 153/153/153
f 156/156/156 155/155/155 157/157/157
f 157/157/157 158/158/158 156/156/156
f 158/158/158 157/157/157 159/159/159
f 159/159/159 160/160/160 158/158/158
f 160/160/160 159/159/159 161/161/161
f 161/161/161 162/162/162 160/160/160
f 163/163/163 164/164/164 165/165/165
f 165/165/165 166/166/166 163/163/163
f 166/166/166 165/165/165 167/167/167
f 167/167/167 168/168/168 166/166/166
f 168/168/168 167/167/167 169/169/169
f 169/169/169 170/170/170 168/168/168
f 170/170/170 169/169/169 171/171/171
f 171/171/171 172/172/172 170/170/170
f 173/173/173 174/174/174 175/175/175
f 175/175/175 176/176/176 173/173/173
f 176/176/176 175/175/175 177/177/177
f 177/177/177 178/178/178 176/176/176
f 178/178/178 177/177/177 179/179/179
f 179/179/179 180/180/180 178/178/178
f 180/180/180 179/179/179 181/181/181
f 181/181/181 182/182/182 180/180/180
f 183/183/183 184/184/184 185/185/185
f 185/185/185 186/186/186 183/183/183
f 186/186/186 185/185/185 187/187/187
f 187/187/187 188/188/188 186/186/186
f 188/188/188 187/187/187 189/189/189
f 189/189/189 190/190/190 188/188/188
f 190/190/190 189/189/189 191/191/191
f 191/191/191 192/192/192 190/190/190
f 193/193/193 194/194/194 195/195/195
f 195/195/195 196/196/196 193/193/193
f 197/197/197 193/193/193 196/196/196
f 196/196/196 198/198/198 197/197/197
f 199/199/199 197/197/197 198/198/198
f 198/198/198 200/200/200 199/199/199
f 201/201/201 199/199/199 200/200/200
f 200/200/200 202/202/202 201/201/201
f 203/203/203 204/204/204 205/205/205
f 205/205/205 206/206/206 203/203/203
f 207/207/207 203/203/203 206/206/206
f 206/206/206 208/208/208 207/207/207
f 209/209/209 207/207/207 208/208/208
f 208/208/208 210/210/210 209/209/209
f 211/211/211 209/209/209 210/210/210
f 210/210/210 212/212/212 211/211/211
f 213/213/213 214/214/214 215/215/215
f 215/215/215 216/216/216 213/213/213
f 217/217/217 213/213/213 216/216/216
f 216/216/216 218/218/218 217/217/217
f 219/219/219 217/217/217 218/218/218
f 218/218/218 220/220/220 219/219/219
f 221/221/221 219/219/219 220/220/220
f 220/220/220 222/222/222 221/221/221
f 223/223/223 224/224/224 225/225/225
f 225/225/225 226/226/226 223/223/223
f 227/227/227 223/223/223 226/226/226
f 226/226/226 228/228/228 227/227/227
f 229/229/229 227/227/227 228/228/228
f 228/228/228 230/230/230 229/229/229
f 231/231/231 229/229/229 230/230/230
f 230/230/230 232/232/232 231/231/231
f 233/233/233 234/234/234 235/235/235
f 235/235/235 236/236/236 233/233/233
f 237/237/237 236/236/236 235/235/235
f 235/235/235 238/238/238 237/237/237
f 237/237/237 238/238/238 239/239/239
f 239/239/239 240/240/240 237/237/237
f 241/241/241 240/240/240 239/239/239
f 239/239/239 242/242/242 241/241/241
f 241/241/241 242/242/242 243/243/243
f 243/243/243 244/244/244 241/241/241
f 244/244/244 243/243/243 245/245/245
f 245/245/245 246/246/246 244/244/244
f 246/246/246 245/245/245 247/247/247
f 247/247/247 248/248/248 246/246/246
f 249/249/249 248/248/248 247/247/247
f 247/247/247 250/250/250 249/249/249
f 251/251/251 252/252/252 253/253/253
f 253/253/253 252/252/252 254/254/254
f 254/254/254 252/252/252 255/255/255
f 255/255/255 252/252/252 256/256/256
f 257/257/257 258/258/258 259/259/259
f 259/259/259 258/258/258 260/260/260
f 260/260/260 258/258/258 261/261/261
f 261/261/261 258/258/258 262/262/262
f 263/263/263 264/264/264 265/265/265
f 265/265/265 264/264/264 266/266/266
f 266/266/266 264/264/264 267/267/267
f 267/267/267 264/264/264 268/268/268
f 269/269/269 270/270/270 271/271/271
f 271/271/271 270/270/270 272/272/272
f 272/272/272 270/270/270 273/273/273
f 273/273/273 270/270/270 274/274/274
f 275/275/275 276/276/276 277/277/277
f 275/275/275 277/277/277 278/278/278
f 275/275/275 278/278/278 279/279/279
f 275/275/275 279/279/279 280/280/280
f 281/281/281 282/282/282 283/283/283
f 281/281/281 283/283/283 284/284/284
f 281/281/281 284/284/284 285/285/285
f 281/281/281 285/285/285 286/286/286
f 287/287/287 288/288/288 289/289/289
f 287/287/287 289/289/289 290/290/290
f 287/287/287 290/290/290 291/291/291
f 287/287/287 291/291/291 292/292/292
f 293/293/293 294/294/294 295/295/295
f 293/293/293 295/295/295 296/296/296
f 293/293/293 296/296/296 297/297/297
f 293/293/293 297/297/297 298/298/298
f 299/299/299 300/300/300 301/301/301
f 299/299/299 301/301/301 302/302/302
f 299/299/299 302/302/302 303/303/303
f 299/299/299 303/303/303 304/304/304
f 305/305/305 306/306/306 307/307/307
f 305/305/305 307/307/307 308/308/308
f 305/305/305 308/308/308 309/309/309
f 305/305/305 309/309/309 310/310/310
f 311/311/311 312/312/312 313/313/313
f 311/311/311 313/313/313 314/314/314
f 311/311/311 314/314/314 315/315/315
f 311/311/311 315/315/315 316/316/316
f 317/317/317 318/318/318 319/319/319
f 317/317/317 319/319/319 320/320/320
f 317/317/317 320/320/320 321/321/321
f 317/317/317 321/321/321 322/322/322
f 323/323/323 324/324/324 325/325/325
f 325/325/325 324/324/324 326/326/326
f 326/326/326 324/324/324 327/327/327
f 327/327/327 324/324/324 328/328/328
f 329/329/329 330/330/330 331/331/331
f 331/331/331 330/330/330 332/332/332
f 332/332/332 330/330/330 333/333/333
f 333/333/333 330/330/330 334/334/334
f 335/335/335 336/336/336 337/337/337
f 337/337/337 336/336/336 338/338/338
f 338/338/338 336/336/336 339/339/339
f 339/339/339 336/336/336 340/340/340
f 341/341/341 342/342/342 343/343/343
f 343/343/343 342/342/342 344/344/344
f 344/344/344 342/342/342 345/345/345
f 345/345/345 342/342/342 346/346/346
f 347/347/347 348/348/348 349/349/349
f 348/348/348 350/350/350 351/351/351
f 348/348/348 351/351/351 349/349/349
f 351/351/351 352/352/352 349/349/349
f 352/352/352 353/353/353 349/349/349
f 351/351/351 354/354/354 352/352/352
