v 0.176418 -0 0
v 0.088209 -0.152783 9.355260595706503E-18
v -0.088209 -0.152783 9.355260595706503E-18
v -0.176418 0 0
v -0.088209 0.152783 -9.355260595706503E-18
v 0.088209 0.152783 -9.355260595706503E-18
v 0 1.295921242857729E-18 0.021164
v 0.115719 3.7270288361850974E-18 0.060867
v 0.057859 -0.100215 0.060867000000000004
v -0.057859 -0.100215 0.060867000000000004
v -0.115719 3.7270288361850974E-18 0.060867
v -0.057859 0.100215 0.06086699999999999
v 0.057859 0.100215 0.06086699999999999
v 0.009434 0.026383 0.022285
v -0.041253 -0.039028 0.022285000000000003
v -0.070783 0.080237 0.058302999999999994
v -0.113427 0.025205000000000005 0.058303
v -0.037879 -0.022850999999999996 0.056462
v -0.043559 0.042301000000000005 0.073051
v -0.069896 0.008314000000000005 0.073051
v -0.104921 0.062652 0.064361
v -0.000515 -0.018252 0.015008000000000002
v -0.010968 -0.010151999999999996 0.05142
v -0.063272 0.030379000000000003 0.076145
v -0.020592 0.058667 0.038542999999999994
v -0.080011 -0.018011999999999997 0.038543
v -0.005389 0.019078000000000005 0.056462
v -0.026634 -0.008702999999999999 0.022285
v 0.056119 -0.008702999999999999 0.022285
v -0.020068 -0.105098 0.05830300000000001
v 0.049553 -0.105098 0.05830300000000001
v 0.041265 -0.015944999999999997 0.056462
v -0.006756 -0.06034199999999999 0.073051
v 0.036241 -0.06034199999999999 0.073051
v 0.014743 -0.121311 0.06436100000000002
v 0.014743 0.010772000000000002 0.015008
v 0.014743 -0.002451999999999997 0.05142
v 0.014743 -0.068622 0.076145
v -0.033761 -0.052212 0.038543
v 0.063246 -0.052212 0.038543
v -0.011779 -0.015944999999999997 0.056462
v -0.016175 0.025806 0.02407
v 0.042151 0.082451 0.039473999999999995
v 0.057233 -0.04469 0.040622
v 0.106304 0.0029670000000000035 0.053581
v 0.037207 0.058050000000000004 0.068132
v 0.035039 -0.009359999999999997 0.066253
v 0.065344 0.020073000000000004 0.074257
v 0.093337 -0.033474 0.04968
v -0.000908 0.069279 0.028674999999999996
v 0.008885 0.050392000000000006 0.061049
v 0.056099 -0.0010849999999999957 0.071572
v 0.009847 -0.012920999999999998 0.029663
v 0.07822 0.053482 0.04772
v -0.000181 0.021740000000000002 0.058258
vt 0.586728 0.380469
vt 0.505591 0.427313
vt 0.505591 0.521002
vt 0.586729 0.567847
vt 0.667866 0.521002
vt 0.667866 0.427313
vt 0.586729 0.474158
vt 0.586728 0.427313
vt 0.546160 0.450735
vt 0.546160 0.497580
vt 0.586729 0.521002
vt 0.627297 0.497580
vt 0.627297 0.450735
vt 0.189110 0.417013
vt 0.227096 0.417013
vt 0.191326 0.369105
vt 0.223284 0.369105
vt 0.220396 0.405864
vt 0.197986 0.383799
vt 0.217723 0.383799
vt 0.207888 0.361048
vt 0.207888 0.427080
vt 0.207888 0.412570
vt 0.207888 0.379684
vt 0.185478 0.395389
vt 0.230007 0.395389
vt 0.196047 0.405864
vt 0.192517 0.263503
vt 0.224897 0.263503
vt 0.194406 0.215596
vt 0.221648 0.215596
vt 0.219186 0.252354
vt 0.200083 0.230289
vt 0.216907 0.230289
vt 0.208524 0.207538
vt 0.208524 0.273571
vt 0.208524 0.259060
vt 0.208524 0.226174
vt 0.189421 0.241879
vt 0.227379 0.241879
vt 0.198430 0.252354
vt 0.189110 0.341514
vt 0.227096 0.341514
vt 0.191326 0.293607
vt 0.223284 0.293607
vt 0.220396 0.330365
vt 0.197986 0.308300
vt 0.217723 0.308300
vt 0.207888 0.285549
vt 0.207888 0.351582
vt 0.207888 0.337071
vt 0.207888 0.304185
vt 0.185478 0.319890
vt 0.230007 0.319890
vt 0.196047 0.330365
vn 0.708078 4.323829837579581E-17 0.706135
vn 0.467729 -0.540087 0.699668
vn -0.233865 -0.675109 0.699668
vn -0.701593 -0.13502199999999995 0.699668
vn -0.467729 0.540087 0.699668
vn 0.354039 0.613213 0.706135
vn 0 6.123233995736766E-17 1
vn 0.405344 5.597640082478704E-17 0.914164
vn 0.082822 -0.32975599999999994 0.940426
vn -0.244166 -0.23660399999999995 0.940426
vn -0.326988 0.09315200000000005 0.940426
vn -0.082822 0.32975600000000005 0.940426
vn 0.103927 0.18000600000000005 0.97816
vn 0.900276 0.12462900000000003 0.417099
vn 0.230175 -0.89111 0.39107800000000004
vn 0.156735 0.44600100000000004 0.881202
vn -0.42486 -0.37590499999999993 0.823523
vn 0.028291 -0.740454 0.671511
vn 0.354555 0.22595300000000004 0.907324
vn -0.165814 -0.34551399999999993 0.923648
vn -0.224474 0.07570000000000006 0.971536
vn 0.816207 -0.463605 0.34478400000000003
vn 0.476136 -0.43989199999999995 0.761439
vn 0.041 0.041166000000000064 0.998311
vn 0.622167 0.53909 0.567707
vn -0.366707 -0.737045 0.567707
vn 0.790404 0.06787300000000004 0.608814
vn -0.649952 0.635288 0.41709899999999994
vn 0.563395 0.727767 0.3910779999999999
vn -0.448547 -0.14929399999999995 0.881202
vn 0.557371 -0.10558299999999994 0.823523
vn 0.567966 0.4759070000000001 0.671511
vn -0.395777 0.14185800000000007 0.907324
vn 0.374678 0.08056700000000006 0.923648
vn 0.077657 -0.22380399999999995 0.971535
vn -0.133486 0.929142 0.3447839999999999
vn 0.056071 0.645807 0.761439
vn -0.057653 0.0071930000000000605 0.998311
vn -0.807216 0.16159000000000004 0.567707
vn 0.807216 0.16159000000000004 0.567707
vn -0.53779 0.583205 0.608814
vn -0.903969 -0.12952399999999997 0.40751
vn -0.114653 0.770643 0.626868
vn -0.200249 -0.648735 0.734195
vn 0.477095 0.08513600000000006 0.874719
vn 0.070395 0.526923 0.846993
vn -0.369268 -0.42297899999999994 0.827484
vn 0.217431 0.058526000000000064 0.97432
vn 0.224511 -0.36358199999999996 0.904103
vn -0.749195 0.44236500000000006 0.492971
vn -0.409891 0.26677400000000007 0.872251
vn -0.034398 -0.3074029999999999 0.950958
vn -0.677116 -0.598476 0.42818300000000004
vn 0.460786 0.50663 0.728699
vn -0.785794 -0.14033599999999996 0.602357
g Default Standard
f 48/48/48 46/46/46 51/51/51
f 51/51/51 52/52/52 48/48/48
f 55/55/55 42/42/42 53/53/53
f 54/54/54 46/46/46 48/48/48
f 48/48/48 45/45/45 54/54/54
f 51/51/51 55/55/55 47/47/47
f 47/47/47 52/52/52 51/51/51
f 44/44/44 49/49/49 52/52/52
f 52/52/52 47/47/47 44/44/44
f 43/43/43 50/50/50 51/51/51
f 51/51/51 46/46/46 43/43/43
f 53/53/53 44/44/44 47/47/47
f 47/47/47 55/55/55 53/53/53
f 49/49/49 45/45/45 48/48/48
f 48/48/48 52/52/52 49/49/49
f 46/46/46 54/54/54 43/43/43
f 50/50/50 42/42/42 55/55/55
f 55/55/55 51/51/51 50/50/50
f 34/34/34 32/32/32 37/37/37
f 37/37/37 38/38/38 34/34/34
f 41/41/41 28/28/28 39/39/39
f 40/40/40 32/32/32 34/34/34
f 34/34/34 31/31/31 40/40/40
f 37/37/37 41/41/41 33/33/33
f 33/33/33 38/38/38 37/37/37
f 30/30/30 35/35/35 38/38/38
f 38/38/38 33/33/33 30/30/30
f 29/29/29 36/36/36 37/37/37
f 37/37/37 32/32/32 29/29/29
f 39/39/39 30/30/30 33/33/33
f 33/33/33 41/41/41 39/39/39
f 35/35/35 31/31/31 34/34/34
f 34/34/34 38/38/38 35/35/35
f 32/32/32 40/40/40 29/29/29
f 36/36/36 28/28/28 41/41/41
f 41/41/41 37/37/37 36/36/36
f 20/20/20 18/18/18 23/23/23
f 23/23/23 24/24/24 20/20/20
f 27/27/27 14/14/14 25/25/25
f 26/26/26 18/18/18 20/20/20
f 20/20/20 17/17/17 26/26/26
f 23/23/23 27/27/27 19/19/19
f 19/19/19 24/24/24 23/23/23
f 16/16/16 21/21/21 24/24/24
f 24/24/24 19/19/19 16/16/16
f 15/15/15 22/22/22 23/23/23
f 23/23/23 18/18/18 15/15/15
f 25/25/25 16/16/16 19/19/19
f 19/19/19 27/27/27 25/25/25
f 21/21/21 17/17/17 20/20/20
f 20/20/20 24/24/24 21/21/21
f 18/18/18 26/26/26 15/15/15
f 22/22/22 14/14/14 27/27/27
f 27/27/27 23/23/23 22/22/22
f 13/13/13 7/7/7 8/8/8
f 12/12/12 7/7/7 13/13/13
f 11/11/11 7/7/7 12/12/12
f 10/10/10 7/7/7 11/11/11
f 9/9/9 7/7/7 10/10/10
f 8/8/8 7/7/7 9/9/9
f 6/6/6 13/13/13 8/8/8
f 8/8/8 1/1/1 6/6/6
f 6/6/6 5/5/5 12/12/12
f 12/12/12 13/13/13 6/6/6
f 5/5/5 4/4/4 11/11/11
f 11/11/11 12/12/12 5/5/5
f 4/4/4 3/3/3 10/10/10
f 10/10/10 11/11/11 4/4/4
f 3/3/3 2/2/2 9/9/9
f 9/9/9 10/10/10 3/3/3
f 2/2/2 1/1/1 8/8/8
f 8/8/8 9/9/9 2/2/2
