v 0.128209 -0.053504000000000065 -0.99585
v 0.128209 -0.05350400000000004 -0.517425
v 0.126662 0.05414399999999996 -0.517425
v 0.126662 0.05414399999999996 -0.517425
v 0.126991 0.05412199999999994 -0.99585
v 0.128209 -0.053504000000000065 -0.99585
v -0.188023 0.053901999999999936 -0.99585
v -0.188023 0.053901999999999964 -0.517425
v -0.186476 -0.05374700000000004 -0.517425
v -0.186476 -0.05374700000000004 -0.517425
v -0.186806 -0.053725000000000064 -0.99585
v -0.188023 0.053901999999999936 -0.99585
v 0.128209 -0.05350400000000004 -0.517425
v 0.128209 -0.053504 -0.039
v 0.126332 0.054166 -0.039
v 0.126332 0.054166 -0.039
v 0.126662 0.05414399999999996 -0.517425
v 0.128209 -0.05350400000000004 -0.517425
v -0.188023 0.053901999999999964 -0.517425
v -0.188023 0.053902 -0.039
v -0.186147 -0.053769 -0.039
v -0.186147 -0.053769 -0.039
v -0.186476 -0.05374700000000004 -0.517425
v -0.188023 0.053901999999999964 -0.517425
v -0.463909 -0.05371699999999999 0.224431
v -0.464175 0.05388100000000001 0.222098
v -0.484982 0.053876000000000014 0.276693
v -0.484982 0.053876000000000014 0.276693
v -0.484499 -0.05371699999999999 0.278692
v -0.463909 -0.05371699999999999 0.224431
v -0.57713 -0.05371699999999999 0.278085
v -0.484499 -0.05371699999999999 0.278692
v -0.484982 0.053876000000000014 0.276693
v -0.484982 0.053876000000000014 0.276693
v -0.578049 0.05386600000000001 0.276752
v -0.57713 -0.05371699999999999 0.278085
v -0.762392 -0.05371799999999999 0.223403
v -0.57713 -0.05371699999999999 0.278085
v -0.578049 0.05386600000000001 0.276752
v -0.578049 0.05386600000000001 0.276752
v -0.764182 0.05384700000000001 0.223403
v -0.762392 -0.05371799999999999 0.223403
v 0.105219 0.05378300000000004 0.708571
v -0.030007 0.05338000000000004 0.710038
v -0.029808 -0.05446199999999996 0.710038
v -0.029808 -0.05446199999999996 0.710038
v 0.105935 -0.05405899999999996 0.707628
v 0.105219 0.05378300000000004 0.708571
v -0.029808 -0.05446199999999996 0.710038
v -0.029085 -0.053751999999999966 0.608331
v 0.027227 -0.05406499999999997 0.589501
v -0.029085 -0.053751999999999966 0.608331
v -0.03073 0.05414900000000004 0.608331
v 0.021308 0.053835000000000036 0.597131
v 0.021308 0.053835000000000036 0.597131
v 0.027227 -0.05406499999999997 0.589501
v -0.029085 -0.053751999999999966 0.608331
v 0.021308 0.053835000000000036 0.597131
v -0.03073 0.05414900000000004 0.608331
v -0.030007 0.05338000000000004 0.710038
v -0.030007 0.05338000000000004 0.710038
v 0.105219 0.05378300000000004 0.708571
v 0.021308 0.053835000000000036 0.597131
v -0.165034 -0.05338599999999996 0.681697
v -0.029808 -0.05446199999999996 0.710038
v -0.030007 0.05338000000000004 0.710038
v -0.030007 0.05338000000000004 0.710038
v -0.16575 0.05445600000000004 0.676147
v -0.165034 -0.05338599999999996 0.681697
v -0.083381 -0.053437999999999965 0.602869
v -0.029085 -0.053751999999999966 0.608331
v -0.029808 -0.05446199999999996 0.710038
v -0.029808 -0.05446199999999996 0.710038
v -0.165034 -0.05338599999999996 0.681697
v -0.083381 -0.053437999999999965 0.602869
v -0.083381 -0.053437999999999965 0.602869
v -0.0893 0.05446300000000003 0.595238
v -0.03073 0.05414900000000004 0.608331
v -0.03073 0.05414900000000004 0.608331
v -0.029085 -0.053751999999999966 0.608331
v -0.083381 -0.053437999999999965 0.602869
v -0.0893 0.05446300000000003 0.595238
v -0.16575 0.05445600000000004 0.676147
v -0.030007 0.05338000000000004 0.710038
v -0.030007 0.05338000000000004 0.710038
v -0.03073 0.05414900000000004 0.608331
v -0.0893 0.05446300000000003 0.595238
v 0.234321 0.05400600000000004 0.700251
v 0.105219 0.05378300000000004 0.708571
v 0.105935 -0.05405899999999996 0.707628
v 0.105935 -0.05405899999999996 0.707628
v 0.232625 -0.053698999999999955 0.699345
v 0.234321 0.05400600000000004 0.700251
v 0.09977 -0.05370599999999997 0.463056
v 0.027227 -0.05406499999999997 0.589501
v 0.021308 0.053835000000000036 0.597131
v 0.021308 0.053835000000000036 0.597131
v 0.097631 0.05405800000000003 0.472473
v 0.09977 -0.05370599999999997 0.463056
v 0.128209 -0.05350399999999998 0.3329
v 0.12607 0.05418300000000002 0.342317
v 0.126332 0.054166 -0.039
v 0.126332 0.054166 -0.039
v 0.128209 -0.053504 -0.039
v 0.128209 -0.05350399999999998 0.3329
v 0.702577 0.05411500000000002 0.223403
v 0.509513 0.05411400000000003 0.441256
v 0.50956 -0.05348799999999997 0.43859
v 0.50956 -0.05348799999999997 0.43859
v 0.704368 -0.053449999999999984 0.223403
v 0.702577 0.05411500000000002 0.223403
v 0.509513 0.05411400000000003 0.441256
v 0.430546 0.05413100000000004 0.661432
v 0.42885 -0.053497999999999955 0.660527
v 0.42885 -0.053497999999999955 0.660527
v 0.50956 -0.05348799999999997 0.43859
v 0.509513 0.05411400000000003 0.441256
v -0.264381 -0.05360899999999997 0.499349
v -0.165034 -0.05338599999999996 0.681697
v -0.16575 0.05445600000000004 0.676147
v -0.16575 0.05445600000000004 0.676147
v -0.262685 0.05409700000000003 0.494017
v -0.264381 -0.05360899999999997 0.499349
v -0.159584 0.054103000000000026 0.463056
v -0.0893 0.05446300000000003 0.595238
v -0.083381 -0.053437999999999965 0.602869
v -0.083381 -0.053437999999999965 0.602869
v -0.157445 -0.05366099999999997 0.472473
v -0.159584 0.054103000000000026 0.463056
v -0.188023 0.05390200000000002 0.3329
v -0.185884 -0.05378599999999998 0.342317
v -0.186147 -0.053769 -0.039
v -0.186147 -0.053769 -0.039
v -0.188023 0.053902 -0.039
v -0.188023 0.05390200000000002 0.3329
v -0.391868 -0.05371699999999999 0.225833
v -0.391915 0.05388600000000002 0.223167
v -0.464175 0.05388100000000001 0.222098
v -0.464175 0.05388100000000001 0.222098
v -0.463909 -0.05371699999999999 0.224431
v -0.391868 -0.05371699999999999 0.225833
v -0.391868 -0.05371699999999999 0.225833
v -0.29282 -0.053733999999999976 0.369193
v -0.291124 0.05389500000000002 0.363861
v -0.291124 0.05389500000000002 0.363861
v -0.391915 0.05388600000000002 0.223167
v -0.391868 -0.05371699999999999 0.225833
v -0.262685 0.05409700000000003 0.494017
v -0.16575 0.05445600000000004 0.676147
v -0.0893 0.05446300000000003 0.595238
v -0.0893 0.05446300000000003 0.595238
v -0.159584 0.054103000000000026 0.463056
v -0.291124 0.05389500000000002 0.363861
v -0.188023 0.05390200000000002 0.3329
v 0.763608 -0.053468000000000036 -0.517425
v 0.128209 -0.05350400000000004 -0.517425
v 0.128209 -0.053504000000000065 -0.99585
v 0.801864 -0.05347900000000006 -0.99585
v -0.787078 0.05386499999999997 -0.517425
v -0.188023 0.053901999999999964 -0.517425
v -0.188023 0.053901999999999936 -0.99585
v -0.801864 0.05387599999999994 -0.99585
v 0.725351 -0.053456 -0.039
v 0.763608 -0.053468000000000036 -0.517425
v 0.761817 0.054103999999999965 -0.517425
v 0.72356 0.054111 -0.039
v 0.72356 0.054111 -0.039
v 0.761817 0.054103999999999965 -0.517425
v 0.126662 0.05414399999999996 -0.517425
v 0.126332 0.054166 -0.039
v -0.772292 0.053854 -0.039
v -0.787078 0.05386499999999997 -0.517425
v -0.785287 -0.05370700000000003 -0.517425
v -0.770501 -0.053714 -0.039
v -0.770501 -0.053714 -0.039
v -0.785287 -0.05370700000000003 -0.517425
v -0.186476 -0.05374700000000004 -0.517425
v -0.186147 -0.053769 -0.039
v 0.704368 -0.053449999999999984 0.223403
v 0.725351 -0.053456 -0.039
v 0.72356 0.054111 -0.039
v 0.702577 0.05411500000000002 0.223403
v 0.725351 -0.053456 -0.039
v 0.128209 -0.053504 -0.039
v 0.128209 -0.05350400000000004 -0.517425
v 0.763608 -0.053468000000000036 -0.517425
v -0.764182 0.05384700000000001 0.223403
v -0.772292 0.053854 -0.039
v -0.770501 -0.053714 -0.039
v -0.762392 -0.05371799999999999 0.223403
v -0.772292 0.053854 -0.039
v -0.188023 0.053902 -0.039
v -0.188023 0.053901999999999964 -0.517425
v -0.787078 0.05386499999999997 -0.517425
v 0.430546 0.05413100000000004 0.661432
v 0.234321 0.05400600000000004 0.700251
v 0.232625 -0.053698999999999955 0.699345
v 0.42885 -0.053497999999999955 0.660527
v 0.128209 -0.05350399999999998 0.3329
v 0.09977 -0.05370599999999997 0.463056
v 0.097631 0.05405800000000003 0.472473
v 0.12607 0.05418300000000002 0.342317
v 0.42885 -0.053497999999999955 0.660527
v 0.232625 -0.053698999999999955 0.699345
v 0.09977 -0.05370599999999997 0.463056
v 0.128209 -0.05350399999999998 0.3329
v 0.763608 -0.053468000000000036 -0.517425
v 0.801864 -0.05347900000000006 -0.99585
v 0.800074 0.05409699999999994 -0.99585
v 0.761817 0.054103999999999965 -0.517425
v 0.126991 0.05412199999999994 -0.99585
v 0.126662 0.05414399999999996 -0.517425
v 0.761817 0.054103999999999965 -0.517425
v 0.800074 0.05409699999999994 -0.99585
v -0.29282 -0.053733999999999976 0.369193
v -0.264381 -0.05360899999999997 0.499349
v -0.262685 0.05409700000000003 0.494017
v -0.291124 0.05389500000000002 0.363861
v -0.188023 0.05390200000000002 0.3329
v -0.159584 0.054103000000000026 0.463056
v -0.157445 -0.05366099999999997 0.472473
v -0.185884 -0.05378599999999998 0.342317
v -0.787078 0.05386499999999997 -0.517425
v -0.801864 0.05387599999999994 -0.99585
v -0.800073 -0.05370000000000006 -0.99585
v -0.785287 -0.05370700000000003 -0.517425
v -0.186806 -0.053725000000000064 -0.99585
v -0.186476 -0.05374700000000004 -0.517425
v -0.785287 -0.05370700000000003 -0.517425
v -0.800073 -0.05370000000000006 -0.99585
v 0.50956 -0.05348799999999997 0.43859
v 0.42885 -0.053497999999999955 0.660527
v 0.128209 -0.05350399999999998 0.3329
v 0.704368 -0.053449999999999984 0.223403
v 0.128209 -0.053504 -0.039
v 0.725351 -0.053456 -0.039
v 0.105219 0.05378300000000004 0.708571
v 0.234321 0.05400600000000004 0.700251
v 0.097631 0.05405800000000003 0.472473
v 0.021308 0.053835000000000036 0.597131
v 0.12607 0.05418300000000002 0.342317
v 0.234321 0.05400600000000004 0.700251
v 0.430546 0.05413100000000004 0.661432
v 0.509513 0.05411400000000003 0.441256
v 0.702577 0.05411500000000002 0.223403
v 0.126332 0.054166 -0.039
v 0.72356 0.054111 -0.039
v 0.027227 -0.05406499999999997 0.589501
v 0.105935 -0.05405899999999996 0.707628
v -0.029808 -0.05446199999999996 0.710038
v 0.232625 -0.053698999999999955 0.699345
v 0.09977 -0.05370599999999997 0.463056
v -0.157445 -0.05366099999999997 0.472473
v -0.083381 -0.053437999999999965 0.602869
v -0.165034 -0.05338599999999996 0.681697
v -0.264381 -0.05360899999999997 0.499349
v -0.185884 -0.05378599999999998 0.342317
v -0.29282 -0.053733999999999976 0.369193
v -0.391868 -0.05371699999999999 0.225833
v -0.186147 -0.053769 -0.039
v -0.185884 -0.05378599999999998 0.342317
v -0.770501 -0.053714 -0.039
v -0.463909 -0.05371699999999999 0.224431
v -0.762392 -0.05371799999999999 0.223403
v -0.57713 -0.05371699999999999 0.278085
v -0.484499 -0.05371699999999999 0.278692
v -0.578049 0.05386600000000001 0.276752
v -0.484982 0.053876000000000014 0.276693
v -0.464175 0.05388100000000001 0.222098
v -0.764182 0.05384700000000001 0.223403
v -0.772292 0.053854 -0.039
v -0.391915 0.05388600000000002 0.223167
v -0.188023 0.053902 -0.039
v -0.188023 0.05390200000000002 0.3329
v -0.291124 0.05389500000000002 0.363861
vt 0.541270 0.982875
vt 0.541270 0.832668
vt 0.559926 0.832668
vt 0.559926 0.832668
vt 0.559926 0.982875
vt 0.541270 0.982875
vt 0.541270 0.982875
vt 0.541270 0.832668
vt 0.559926 0.832668
vt 0.559926 0.832668
vt 0.559926 0.982875
vt 0.541270 0.982875
vt 0.541270 0.982875
vt 0.541270 0.832668
vt 0.559926 0.832668
vt 0.559926 0.832668
vt 0.559926 0.982875
vt 0.541270 0.982875
vt 0.541270 0.982875
vt 0.541270 0.832668
vt 0.559926 0.832668
vt 0.559926 0.832668
vt 0.559926 0.982875
vt 0.541270 0.982875
vt 0.167346 0.046925
vt 0.167364 0.009961
vt 0.176639 0.010291
vt 0.176639 0.010291
vt 0.176568 0.047251
vt 0.167346 0.046925
vt 0.191976 0.047191
vt 0.176568 0.047251
vt 0.176639 0.010291
vt 0.176639 0.010291
vt 0.192176 0.010241
vt 0.191976 0.047191
vt 0.224917 0.047241
vt 0.191976 0.047191
vt 0.192176 0.010241
vt 0.192176 0.010241
vt 0.225191 0.010296
vt 0.224917 0.047241
vt 0.253857 0.057825
vt 0.277959 0.058077
vt 0.278037 0.095093
vt 0.278037 0.095093
vt 0.253735 0.094866
vt 0.253857 0.057825
vt 0.694591 0.724772
vt 0.694718 0.760375
vt 0.704574 0.766966
vt 0.731897 0.349640
vt 0.731958 0.386413
vt 0.723035 0.386413
vt 0.723035 0.386413
vt 0.721750 0.349640
vt 0.731897 0.349640
vt 1.703292 0.764161
vt 1.694184 0.760241
vt 1.694311 0.724638
vt 1.694311 0.724638
vt 1.717979 0.725152
vt 1.703292 0.764161
vt 0.069104 0.046923
vt 0.045003 0.047680
vt 0.044924 0.010665
vt 0.044924 0.010665
vt 0.069585 0.009857
vt 0.069104 0.046923
vt 0.685215 0.762287
vt 0.694718 0.760375
vt 0.694591 0.724772
vt 0.694591 0.724772
vt 0.670923 0.734693
vt 0.685215 0.762287
vt 0.740994 0.349640
vt 0.742246 0.386413
vt 0.731958 0.386413
vt 0.731958 0.386413
vt 0.731897 0.349640
vt 0.740994 0.349640
vt 1.683933 0.764824
vt 1.670552 0.736502
vt 1.694311 0.724638
vt 1.694311 0.724638
vt 1.694184 0.760241
vt 1.683933 0.764824
vt 0.230632 0.057685
vt 0.253857 0.057825
vt 0.253735 0.094866
vt 0.253735 0.094866
vt 0.230927 0.094678
vt 0.230632 0.057685
vt 0.696713 0.349640
vt 0.721750 0.349640
vt 0.723035 0.386413
vt 0.723035 0.386413
vt 0.698329 0.386413
vt 0.696713 0.349640
vt 0.673843 0.349641
vt 0.675771 0.386413
vt 0.610785 0.386414
vt 0.610785 0.386414
vt 0.610339 0.349641
vt 0.673843 0.349641
vt 0.104996 0.057880
vt 0.155081 0.058131
vt 0.154718 0.095084
vt 0.154718 0.095084
vt 0.104723 0.094824
vt 0.104996 0.057880
vt 0.155081 0.058131
vt 0.195575 0.057726
vt 0.195750 0.094694
vt 0.195750 0.094694
vt 0.154718 0.095084
vt 0.155081 0.058131
vt 0.104451 0.046882
vt 0.069104 0.046923
vt 0.069585 0.009857
vt 0.069585 0.009857
vt 0.105150 0.009867
vt 0.104451 0.046882
vt 0.767959 0.386412
vt 0.742246 0.386413
vt 0.740994 0.349640
vt 0.740994 0.349640
vt 0.766331 0.349640
vt 0.767959 0.386412
vt 0.790823 0.386412
vt 0.788882 0.349640
vt 0.853867 0.349639
vt 0.853867 0.349639
vt 0.854322 0.386412
vt 0.790823 0.386412
vt 0.155817 0.046957
vt 0.156014 0.009993
vt 0.167364 0.009961
vt 0.167364 0.009961
vt 0.167346 0.046925
vt 0.155817 0.046957
vt 0.155817 0.046957
vt 0.126693 0.046913
vt 0.127386 0.009931
vt 0.127386 0.009931
vt 0.156014 0.009993
vt 0.155817 0.046957
vt 1.653586 0.800257
vt 1.670552 0.736502
vt 1.683933 0.764824
vt 1.683933 0.764824
vt 1.671631 0.811095
vt 1.648608 0.845818
vt 1.666654 0.856656
vt 0.877650 0.507146
vt 0.978353 0.507146
vt 0.978353 0.654010
vt 0.877650 0.654010
vt 0.882460 0.507146
vt 0.978353 0.507146
vt 0.978353 0.654010
vt 0.882460 0.654010
vt 0.559926 0.832668
vt 0.559926 0.982875
vt 0.541270 0.982875
vt 0.541270 0.832668
vt 0.978353 0.507105
vt 0.978353 0.653969
vt 0.877650 0.653969
vt 0.877650 0.507105
vt 0.559926 0.832668
vt 0.559926 0.982875
vt 0.541270 0.982875
vt 0.541270 0.832668
vt 0.978353 0.507105
vt 0.978353 0.653969
vt 0.882460 0.653969
vt 0.882460 0.507105
vt 0.104723 0.094824
vt 0.059496 0.093486
vt 0.059793 0.056541
vt 0.104996 0.057880
vt 0.877650 0.507105
vt 0.978353 0.507105
vt 0.978353 0.653969
vt 0.877650 0.653969
vt 0.225191 0.010296
vt 0.270181 0.011334
vt 0.269955 0.048280
vt 0.224917 0.047241
vt 0.882460 0.507105
vt 0.978353 0.507105
vt 0.978353 0.653969
vt 0.882460 0.653969
vt 0.195575 0.057726
vt 0.230632 0.057685
vt 0.230927 0.094678
vt 0.195750 0.094694
vt 0.673843 0.349641
vt 0.696713 0.349640
vt 0.698329 0.386413
vt 0.675771 0.386413
vt 0.774868 0.742104
vt 0.740524 0.728515
vt 0.717271 0.811229
vt 0.722248 0.856790
vt 0.559926 0.832668
vt 0.559926 0.982875
vt 0.541270 0.982875
vt 0.541270 0.832668
vt 0.877650 0.654010
vt 0.877650 0.507146
vt 0.978353 0.507146
vt 0.978353 0.654010
vt 0.126693 0.046913
vt 0.104451 0.046882
vt 0.105150 0.009867
vt 0.127386 0.009931
vt 0.790823 0.386412
vt 0.767959 0.386412
vt 0.766331 0.349640
vt 0.788882 0.349640
vt 0.559926 0.832668
vt 0.559926 0.982875
vt 0.541270 0.982875
vt 0.541270 0.832668
vt 0.882460 0.654010
vt 0.882460 0.507145
vt 0.978353 0.507145
vt 0.978353 0.654010
vt 0.788995 0.819793
vt 0.774868 0.742104
vt 0.722248 0.856790
vt 0.823091 0.895120
vt 0.722248 0.986974
vt 0.826764 0.986974
vt 1.717979 0.725152
vt 1.740575 0.728064
vt 1.716650 0.807798
vt 1.703292 0.764161
vt 1.721628 0.853360
vt 1.740575 0.728064
vt 1.774919 0.741653
vt 1.788741 0.818726
vt 1.822532 0.894986
vt 1.721674 0.986840
vt 1.826204 0.986840
vt 0.704574 0.766966
vt 0.718350 0.725616
vt 0.694591 0.724772
vt 0.740524 0.728515
vt 0.717271 0.811229
vt 0.672252 0.807932
vt 0.685215 0.762287
vt 0.670923 0.734693
vt 0.653535 0.798524
vt 0.667274 0.853493
vt 0.648557 0.844086
vt 0.631222 0.894269
vt 0.667228 0.986974
vt 0.667274 0.853493
vt 0.564951 0.986974
vt 0.618612 0.894760
vt 0.566370 0.895119
vt 0.598796 0.875978
vt 0.615009 0.875766
vt 1.598389 0.876311
vt 1.614678 0.876332
vt 1.618320 0.895443
vt 1.565811 0.894986
vt 1.564392 0.986840
vt 1.630967 0.895068
vt 1.666654 0.986840
vt 1.666654 0.856656
vt 1.648608 0.845818
vn -0.999897 -0.014371 8.799699575273307E-19
vn -0.999897 -0.014371 8.799699575273307E-19
vn -0.999897 -0.014371 8.799699575273307E-19
vn -0.999936 -0.011314 -0.0006879999999999994
vn -0.999936 -0.011314 -0.0006879999999999994
vn -0.999936 -0.011314 -0.0006879999999999994
vn 0.999897 0.014371 -8.799699575273307E-19
vn 0.999897 0.014371 -8.799699575273307E-19
vn 0.999897 0.014371 -8.799699575273307E-19
vn 0.999936 0.011314 -0.0006880000000000007
vn 0.999936 0.011314 -0.0006880000000000007
vn 0.999936 0.011314 -0.0006880000000000007
vn -0.999848 -0.017427 1.0670959884370463E-18
vn -0.999848 -0.017427 1.0670959884370463E-18
vn -0.999848 -0.017427 1.0670959884370463E-18
vn -0.999897 -0.014371 -0.0006879999999999992
vn -0.999897 -0.014371 -0.0006879999999999992
vn -0.999897 -0.014371 -0.0006879999999999992
vn 0.999848 0.017428 -1.0671572207770035E-18
vn 0.999848 0.017428 -1.0671572207770035E-18
vn 0.999848 0.017428 -1.0671572207770035E-18
vn 0.999897 0.014371 -0.0006880000000000009
vn 0.999897 0.014371 -0.0006880000000000009
vn 0.999897 0.014371 -0.0006880000000000009
vn 0.934389 0.010024000000000022 0.356113
vn 0.934389 0.010024000000000022 0.356113
vn 0.934389 0.010024000000000022 0.356113
vn 0.934902 0.010791000000000023 0.354741
vn 0.934902 0.010791000000000023 0.354741
vn 0.934902 0.010791000000000023 0.354741
vn -0.006556 0.018551000000000064 0.999807
vn -0.006556 0.018551000000000064 0.999807
vn -0.006556 0.018551000000000064 0.999807
vn 0.000634 0.01239500000000006 0.999923
vn 0.000634 0.01239500000000006 0.999923
vn 0.000634 0.01239500000000006 0.999923
vn -0.283072 0.009465000000000058 0.959052
vn -0.283072 0.009465000000000058 0.959052
vn -0.283072 0.009465000000000058 0.959052
vn -0.275518 -0.004586999999999941 0.961285
vn -0.275518 -0.004586999999999941 0.961285
vn -0.275518 -0.004586999999999941 0.961285
vn 0.01085 2.0000000000061232E-05 0.999941
vn 0.01085 2.0000000000061232E-05 0.999941
vn 0.01085 2.0000000000061232E-05 0.999941
vn 0.017774 -0.00861899999999994 0.999805
vn 0.017774 -0.00861899999999994 0.999805
vn 0.017774 -0.00861899999999994 0.999805
vn -0.007927 -0.999944 -0.007043999999999938
vn -0.007927 -0.999944 -0.007043999999999938
vn -0.007927 -0.999944 -0.007043999999999938
vn -0.210415 -0.0032080000000000598 -0.977607
vn -0.210415 -0.0032080000000000598 -0.977607
vn -0.210415 -0.0032080000000000598 -0.977607
vn -0.316488 0.049630999999999946 -0.947297
vn -0.316488 0.049630999999999946 -0.947297
vn -0.316488 0.049630999999999946 -0.947297
vn 0.007644 0.999943 0.007504999999999939
vn 0.007644 0.999943 0.007504999999999939
vn 0.007644 0.999943 0.007504999999999939
vn -0.002954 0.999992 0.002688999999999939
vn -0.002954 0.999992 0.002688999999999939
vn -0.002954 0.999992 0.002688999999999939
vn -0.205131 -0.00037899999999994004 0.978734
vn -0.205131 -0.00037899999999994004 0.978734
vn -0.205131 -0.00037899999999994004 0.978734
vn -0.241588 0.048265000000000065 0.969178
vn -0.241588 0.048265000000000065 0.969178
vn -0.241588 0.048265000000000065 0.969178
vn -0.005072 -0.999963 -0.007023999999999938
vn -0.005072 -0.999963 -0.007023999999999938
vn -0.005072 -0.999963 -0.007023999999999938
vn -0.006652 -0.999958 -0.006233999999999938
vn -0.006652 -0.999958 -0.006233999999999938
vn -0.006652 -0.999958 -0.006233999999999938
vn 0.217509 -0.05697700000000006 -0.974394
vn 0.217509 -0.05697700000000006 -0.974394
vn 0.217509 -0.05697700000000006 -0.974394
vn 0.100101 0.001525999999999939 -0.994976
vn 0.100101 0.001525999999999939 -0.994976
vn 0.100101 0.001525999999999939 -0.994976
vn 0.006399 0.999961 0.006125999999999939
vn 0.006399 0.999961 0.006125999999999939
vn 0.006399 0.999961 0.006125999999999939
vn 0.003673 0.999965 0.007533999999999938
vn 0.003673 0.999965 0.007533999999999938
vn 0.003673 0.999965 0.007533999999999938
vn 0.064321 -0.00829299999999994 0.997895
vn 0.064321 -0.00829299999999994 0.997895
vn 0.064321 -0.00829299999999994 0.997895
vn 0.065263 -0.00941699999999994 0.997824
vn 0.065263 -0.00941699999999994 0.997824
vn 0.065263 -0.00941699999999994 0.997824
vn -0.867307 -0.012383000000000031 -0.49762
vn -0.867307 -0.012383000000000031 -0.49762
vn -0.867307 -0.012383000000000031 -0.49762
vn -0.852521 0.02868299999999997 -0.521906
vn -0.852521 0.02868299999999997 -0.521906
vn -0.852521 0.02868299999999997 -0.521906
vn -0.999804 -0.019801 -0.0006879999999999988
vn -0.999804 -0.019801 -0.0006879999999999988
vn -0.999804 -0.019801 -0.0006879999999999988
vn -0.999848 -0.017427 1.0670959884370463E-18
vn -0.999848 -0.017427 1.0670959884370463E-18
vn -0.999848 -0.017427 1.0670959884370463E-18
vn 0.748306 -0.01610099999999996 0.663158
vn 0.748306 -0.01610099999999996 0.663158
vn 0.748306 -0.01610099999999996 0.663158
vn 0.741282 0.012341000000000041 0.67108
vn 0.741282 0.012341000000000041 0.67108
vn 0.741282 0.012341000000000041 0.67108
vn 0.941143 -0.01766899999999998 0.337547
vn 0.941143 -0.01766899999999998 0.337547
vn 0.941143 -0.01766899999999998 0.337547
vn 0.939755 -0.00805399999999998 0.341755
vn 0.939755 -0.00805399999999998 0.341755
vn 0.939755 -0.00805399999999998 0.341755
vn -0.877984 0.01878000000000003 0.478322
vn -0.877984 0.01878000000000003 0.478322
vn -0.877984 0.01878000000000003 0.478322
vn -0.88218 0.037131000000000025 0.469447
vn -0.88218 0.037131000000000025 0.469447
vn -0.88218 0.037131000000000025 0.469447
vn 0.882822 0.015224999999999971 -0.469461
vn 0.882822 0.015224999999999971 -0.469461
vn 0.882822 0.015224999999999971 -0.469461
vn 0.869254 -0.02588500000000003 -0.493687
vn 0.869254 -0.02588500000000003 -0.493687
vn 0.869254 -0.02588500000000003 -0.493687
vn 0.999804 0.019801 -0.0006870000000000012
vn 0.999804 0.019801 -0.0006870000000000012
vn 0.999804 0.019801 -0.0006870000000000012
vn 0.999848 0.017428 -1.0671572207770035E-18
vn 0.999848 0.017428 -1.0671572207770035E-18
vn 0.999848 0.017428 -1.0671572207770035E-18
vn -0.014791 0.024759000000000062 0.999584
vn -0.014791 0.024759000000000062 0.999584
vn -0.014791 0.024759000000000062 0.999584
vn -0.019457 0.021623000000000062 0.999577
vn -0.019457 0.021623000000000062 0.999577
vn -0.019457 0.021623000000000062 0.999577
vn -0.822036 0.041089000000000035 0.567951
vn -0.822036 0.041089000000000035 0.567951
vn -0.822036 0.041089000000000035 0.567951
vn -0.812846 0.014070000000000036 0.582309
vn -0.812846 0.014070000000000036 0.582309
vn -0.812846 0.014070000000000036 0.582309
vn -0.000495 0.999999 -0.0014400000000000612
vn -0.00139 0.999998 -0.0012340000000000612
vn -0.00139 0.999998 -0.0012340000000000612
vn -0.000758 0.999997 -0.002317000000000061
vn -0.000495 0.999999 -0.0014400000000000612
vn -0.000495 0.999999 -0.0014400000000000612
vn -0.000495 0.999999 -0.0014400000000000612
vn 3.8E-05 -1 2.6000000000061232E-05
vn 5.8E-05 -1 6.123233995736766E-17
vn 3.8E-05 -1 2.6000000000061232E-05
vn 3.8E-05 -1 2.6000000000061232E-05
vn -4.2E-05 1 2.4999999999938767E-05
vn -6.2E-05 1 -6.123233995736766E-17
vn -4.2E-05 1 2.4999999999938767E-05
vn -4.2E-05 1 2.4999999999938767E-05
vn 0.996681 0.016593000000000004 0.079699
vn 0.996681 0.016592000000000003 0.079698
vn 0.996681 0.016593000000000004 0.079699
vn 0.996681 0.016593000000000004 0.079699
vn 9.1E-05 1 -4.500000000006123E-05
vn 6.3E-05 1 -1.0000000000061233E-05
vn 9.1E-05 1 -4.500000000006123E-05
vn 9.1E-05 1 -4.500000000006123E-05
vn -0.999385 -0.016636999999999996 0.030887
vn -0.999384 -0.016635999999999998 0.030886
vn -0.999385 -0.016636999999999996 0.030887
vn -0.999385 -0.016636999999999996 0.030887
vn -9.4E-05 -1 -4.499999999993877E-05
vn -6.7E-05 -1 -1.1999999999938768E-05
vn -9.4E-05 -1 -4.499999999993877E-05
vn -9.4E-05 -1 -4.499999999993877E-05
vn 0.996681 0.016593000000000004 0.079698
vn 0.996681 0.016593000000000004 0.079698
vn 0.996681 0.016593000000000004 0.079698
vn 0.996681 0.016593000000000004 0.079698
vn 5.8E-05 -1 2.8000000000061233E-05
vn 8.1E-05 -1 6.123233995736766E-17
vn 5.8E-05 -1 2.8000000000061233E-05
vn 5.8E-05 -1 2.8000000000061233E-05
vn -0.999385 -0.016636999999999996 0.030886
vn -0.999385 -0.016636999999999996 0.030886
vn -0.999385 -0.016636999999999996 0.030886
vn -0.999385 -0.016636999999999996 0.030886
vn -6.2E-05 1 2.4999999999938767E-05
vn -8.2E-05 1 -6.123233995736766E-17
vn -6.2E-05 1 2.4999999999938767E-05
vn -6.2E-05 1 2.4999999999938767E-05
vn 0.194066 -0.01131099999999994 0.980923
vn 0.194062 -0.01130299999999994 0.980924
vn 0.194066 -0.01131099999999994 0.980923
vn 0.194066 -0.01131099999999994 0.980923
vn -0.97695 -0.0007400000000000131 -0.213466
vn -0.97695 -0.0007400000000000131 -0.213466
vn -0.97695 -0.0007400000000000131 -0.213466
vn -0.97695 -0.0007400000000000131 -0.213466
vn 0.00138 -0.999998 -0.0012459999999999388
vn 0.000929 -0.999999 -0.0004949999999999387
vn 0.00138 -0.999998 -0.0012459999999999388
vn 0.00138 -0.999998 -0.0012459999999999388
vn 0.996681 0.016592000000000003 0.079699
vn 0.996681 0.016589000000000003 0.079698
vn 0.996681 0.016592000000000003 0.079699
vn 0.996681 0.016592000000000003 0.079699
vn 3.8E-05 1 -1.1000000000061232E-05
vn 6.3E-05 1 -4.500000000006123E-05
vn 3.8E-05 1 -1.1000000000061232E-05
vn 3.8E-05 1 -1.1000000000061232E-05
vn -0.97663 0.025958000000000012 0.213355
vn -0.976627 0.025941000000000013 0.213369
vn -0.97663 0.025958000000000012 0.213355
vn -0.97663 0.025958000000000012 0.213355
vn 0.97695 0.0007399999999999869 -0.213466
vn 0.97695 0.0007399999999999869 -0.213466
vn 0.97695 0.0007399999999999869 -0.213466
vn 0.97695 0.0007399999999999869 -0.213466
vn -0.999384 -0.016635999999999998 0.030886
vn -0.999384 -0.016634999999999997 0.030886
vn -0.999384 -0.016635999999999998 0.030886
vn -0.999384 -0.016635999999999998 0.030886
vn -4.1E-05 -1 -1.2999999999938767E-05
vn -6.7E-05 -1 -4.499999999993877E-05
vn -4.1E-05 -1 -1.2999999999938767E-05
vn -4.1E-05 -1 -1.2999999999938767E-05
vn 7.3E-05 -1 -0.00011299999999993877
vn 4.9E-05 -1 -2.4999999999938767E-05
vn 9.5E-05 -1 6.123233995736766E-17
vn 8.1E-05 -1 3.100000000006123E-05
vn 8.1E-05 -1 3.100000000006123E-05
vn 8.1E-05 -1 3.100000000006123E-05
vn -0.001648 0.999998 0.001215999999999939
vn -0.001648 0.999998 0.001215999999999939
vn -0.000895 0.999999 0.0007639999999999388
vn -0.00097 0.999999 0.0011939999999999388
vn -0.000509 1 0.0006469999999999387
vn -0.000509 1 0.0006469999999999387
vn -0.000509 1 0.0006469999999999387
vn 0.000145 1 0.00013299999999993878
vn 0.000108 1 -4.600000000006123E-05
vn 0.000108 1 -4.600000000006123E-05
vn 9.1E-05 1 -7.000000000061232E-06
vn 0.002527 -0.999996 -0.001393999999999939
vn 0.002723 -0.999995 -0.001759999999999939
vn 0.002938 -0.999994 -0.0019029999999999388
vn 0.002527 -0.999996 -0.001393999999999939
vn 0.002527 -0.999996 -0.001393999999999939
vn -0.00023 -0.999999 0.0010100000000000612
vn 0.000657 -0.999999 0.0013370000000000612
vn -0.000155 -0.999999 0.0013070000000000612
vn -0.00023 -0.999999 0.0010100000000000612
vn -0.00023 -0.999999 0.0010100000000000612
vn -0.00023 -0.999999 0.0010100000000000612
vn 4E-06 -1 -1.6999999999938766E-05
vn -9.4E-05 -1 0.00012200000000006123
vn -0.000309 -1 -4.499999999993877E-05
vn 4E-06 -1 -1.6999999999938766E-05
vn 4E-06 -1 -1.6999999999938766E-05
vn 2E-06 -1 -9.999999999387675E-07
vn 3E-06 -1 1.0000000000612324E-06
vn 3E-06 -1 1.0000000000612324E-06
vn -0.000105 1 4.699999999993877E-05
vn -0.000105 1 4.699999999993877E-05
vn -0.000105 1 4.699999999993877E-05
vn -0.000112 1 3.299999999993877E-05
vn -6.6E-05 1 -2.8000000000061233E-05
vn -6.8E-05 1 -1.9000000000061235E-05
vn -7.8E-05 1 -6.123233995736766E-17
vn -6.8E-05 1 -1.9000000000061235E-05
vn -6.8E-05 1 -1.9000000000061235E-05
g 10 - Default
f 1/1/1 2/2/2 3/3/3
f 4/4/4 5/5/5 6/6/6
f 7/7/7 8/8/8 9/9/9
f 10/10/10 11/11/11 12/12/12
f 13/13/13 14/14/14 15/15/15
f 16/16/16 17/17/17 18/18/18
f 19/19/19 20/20/20 21/21/21
f 22/22/22 23/23/23 24/24/24
f 25/25/25 26/26/26 27/27/27
f 28/28/28 29/29/29 30/30/30
f 31/31/31 32/32/32 33/33/33
f 34/34/34 35/35/35 36/36/36
f 37/37/37 38/38/38 39/39/39
f 40/40/40 41/41/41 42/42/42
f 43/43/43 44/44/44 45/45/45
f 46/46/46 47/47/47 48/48/48
f 49/49/49 50/50/50 51/51/51
f 52/52/52 53/53/53 54/54/54
f 55/55/55 56/56/56 57/57/57
f 58/58/58 59/59/59 60/60/60
f 61/61/61 62/62/62 63/63/63
f 64/64/64 65/65/65 66/66/66
f 67/67/67 68/68/68 69/69/69
f 70/70/70 71/71/71 72/72/72
f 73/73/73 74/74/74 75/75/75
f 76/76/76 77/77/77 78/78/78
f 79/79/79 80/80/80 81/81/81
f 82/82/82 83/83/83 84/84/84
f 85/85/85 86/86/86 87/87/87
f 88/88/88 89/89/89 90/90/90
f 91/91/91 92/92/92 93/93/93
f 94/94/94 95/95/95 96/96/96
f 97/97/97 98/98/98 99/99/99
f 100/100/100 101/101/101 102/102/102
f 103/103/103 104/104/104 105/105/105
f 106/106/106 107/107/107 108/108/108
f 109/109/109 110/110/110 111/111/111
f 112/112/112 113/113/113 114/114/114
f 115/115/115 116/116/116 117/117/117
f 118/118/118 119/119/119 120/120/120
f 121/121/121 122/122/122 123/123/123
f 124/124/124 125/125/125 126/126/126
f 127/127/127 128/128/128 129/129/129
f 130/130/130 131/131/131 132/132/132
f 133/133/133 134/134/134 135/135/135
f 136/136/136 137/137/137 138/138/138
f 139/139/139 140/140/140 141/141/141
f 142/142/142 143/143/143 144/144/144
f 145/145/145 146/146/146 147/147/147
f 148/148/148 149/149/149 150/150/150
f 151/151/151 152/152/152 148/148/148
f 153/153/153 148/148/148 152/152/152
f 152/152/152 154/154/154 153/153/153
f 155/155/155 156/156/156 157/157/157
f 157/157/157 158/158/158 155/155/155
f 159/159/159 160/160/160 161/161/161
f 161/161/161 162/162/162 159/159/159
f 163/163/163 164/164/164 165/165/165
f 165/165/165 166/166/166 163/163/163
f 167/167/167 168/168/168 169/169/169
f 169/169/169 170/170/170 167/167/167
f 171/171/171 172/172/172 173/173/173
f 173/173/173 174/174/174 171/171/171
f 175/175/175 176/176/176 177/177/177
f 177/177/177 178/178/178 175/175/175
f 179/179/179 180/180/180 181/181/181
f 181/181/181 182/182/182 179/179/179
f 183/183/183 184/184/184 185/185/185
f 185/185/185 186/186/186 183/183/183
f 187/187/187 188/188/188 189/189/189
f 189/189/189 190/190/190 187/187/187
f 191/191/191 192/192/192 193/193/193
f 193/193/193 194/194/194 191/191/191
f 195/195/195 196/196/196 197/197/197
f 197/197/197 198/198/198 195/195/195
f 199/199/199 200/200/200 201/201/201
f 201/201/201 202/202/202 199/199/199
f 203/203/203 204/204/204 205/205/205
f 205/205/205 206/206/206 203/203/203
f 207/207/207 208/208/208 209/209/209
f 209/209/209 210/210/210 207/207/207
f 211/211/211 212/212/212 213/213/213
f 213/213/213 214/214/214 211/211/211
f 215/215/215 216/216/216 217/217/217
f 217/217/217 218/218/218 215/215/215
f 219/219/219 220/220/220 221/221/221
f 221/221/221 222/222/222 219/219/219
f 223/223/223 224/224/224 225/225/225
f 225/225/225 226/226/226 223/223/223
f 227/227/227 228/228/228 229/229/229
f 229/229/229 230/230/230 227/227/227
f 231/231/231 232/232/232 233/233/233
f 234/234/234 231/231/231 233/233/233
f 234/234/234 233/233/233 235/235/235
f 235/235/235 236/236/236 234/234/234
f 237/237/237 238/238/238 239/239/239
f 239/239/239 240/240/240 237/237/237
f 241/241/241 239/239/239 242/242/242
f 242/242/242 243/243/243 241/241/241
f 241/241/241 243/243/243 244/244/244
f 241/241/241 244/244/244 245/245/245
f 246/246/246 241/241/241 245/245/245
f 245/245/245 247/247/247 246/246/246
f 248/248/248 249/249/249 250/250/250
f 251/251/251 249/249/249 248/248/248
f 248/248/248 252/252/252 251/251/251
f 253/253/253 254/254/254 255/255/255
f 255/255/255 256/256/256 253/253/253
f 257/257/257 253/253/253 256/256/256
f 256/256/256 258/258/258 257/257/257
f 257/257/257 258/258/258 259/259/259
f 259/259/259 260/260/260 261/261/261
f 262/262/262 260/260/260 259/259/259
f 259/259/259 263/263/263 262/262/262
f 263/263/263 264/264/264 262/262/262
f 265/265/265 264/264/264 263/263/263
f 263/263/263 266/266/266 265/265/265
f 267/267/267 268/268/268 269/269/269
f 269/269/269 270/270/270 267/267/267
f 271/271/271 270/270/270 269/269/269
f 271/271/271 269/269/269 272/272/272
f 272/272/272 273/273/273 271/271/271
f 274/274/274 273/273/273 272/272/272
f 272/272/272 275/275/275 274/274/274
