v -0.088156 -0.039333999999999994 0.122531
v 0.133568 0.07989300000000002 0.127016
v 0.231211 -0.192138 0.157541
v 0.231211 -0.192138 0.157541
v 0.016946 -0.272896 0.15731400000000004
v -0.088156 -0.039333999999999994 0.122531
v 0.014341 0.254627 0.13480599999999998
v 0.133568 0.07989300000000002 0.127016
v -0.088156 -0.039333999999999994 0.122531
v 0.014341 0.254627 0.13480599999999998
v -0.094079 0.272896 0.13551499999999997
v -0.086041 0.262757 0.268019
v -0.231211 0.173099 0.135533
v -0.094079 0.272896 0.13551499999999997
v 0.014341 0.254627 0.13480599999999998
v 0.014341 0.254627 0.13480599999999998
v -0.088156 -0.039333999999999994 0.122531
v -0.231211 0.173099 0.135533
v 0.009311 -0.19880299999999998 0.270052
v -0.081847 -0.00414699999999998 0.320451
v -0.088156 -0.039333999999999994 0.122531
v -0.088156 -0.039333999999999994 0.122531
v 0.016946 -0.272896 0.15731400000000004
v 0.009311 -0.19880299999999998 0.270052
v 0.116753 0.11021300000000002 0.269196
v 0.133568 0.07989300000000002 0.127016
v 0.014341 0.254627 0.13480599999999998
v 0.014341 0.254627 0.13480599999999998
v 0.01851 0.24935900000000003 0.268321
v 0.116753 0.11021300000000002 0.269196
v 0.22354 -0.11244699999999999 0.270334
v 0.231211 -0.192138 0.157541
v 0.133568 0.07989300000000002 0.127016
v 0.133568 0.07989300000000002 0.127016
v 0.116753 0.11021300000000002 0.269196
v 0.22354 -0.11244699999999999 0.270334
v 0.014341 0.254627 0.13480599999999998
v -0.086041 0.262757 0.268019
v 0.01851 0.24935900000000003 0.268321
v -0.223173 0.16296000000000002 0.268037
v -0.231211 0.173099 0.135533
v -0.088156 -0.039333999999999994 0.122531
v -0.088156 -0.039333999999999994 0.122531
v -0.081847 -0.00414699999999998 0.320451
v -0.223173 0.16296000000000002 0.268037
v 0.009311 -0.19880299999999998 0.270052
v 0.016946 -0.272896 0.15731400000000004
v 0.231211 -0.192138 0.157541
v 0.22354 -0.11244699999999999 0.270334
v -0.086041 0.262757 0.268019
v -0.094079 0.272896 0.13551499999999997
v -0.231211 0.173099 0.135533
v -0.223173 0.16296000000000002 0.268037
v 0.01851 0.24935900000000003 0.268321
v -0.086041 0.262757 0.268019
v -0.223173 0.16296000000000002 0.268037
v -0.081847 -0.00414699999999998 0.320451
v 0.116753 0.11021300000000002 0.269196
v 0.22354 -0.11244699999999999 0.270334
v 0.009311 -0.19880299999999998 0.270052
vt 0.956007 0.131389
vt 0.904100 0.131871
vt 0.912659 0.013917
vt 0.912659 0.013917
vt 0.959484 0.025998
vt 0.956007 0.131389
vt 0.908889 0.218577
vt 0.904100 0.131871
vt 0.956007 0.131389
vt 0.210664 0.986461
vt 0.188308 0.986169
vt 0.189966 0.931526
vt 0.961485 0.236436
vt 0.926859 0.246221
vt 0.908889 0.218577
vt 0.908889 0.218577
vt 0.956007 0.131389
vt 0.961485 0.236436
vt 0.563048 0.836985
vt 0.549756 0.758442
vt 0.590986 0.766960
vt 0.590986 0.766960
vt 0.587347 0.864067
vt 0.563048 0.836985
vt 0.711383 0.923703
vt 0.681456 0.927118
vt 0.692514 0.995773
vt 0.692514 0.995773
vt 0.718781 0.979146
vt 0.711383 0.923703
vt 0.699492 0.835014
vt 0.672723 0.815592
vt 0.681456 0.927118
vt 0.681456 0.927118
vt 0.711383 0.923703
vt 0.699492 0.835014
vt 0.210664 0.986461
vt 0.189966 0.931526
vt 0.211523 0.931401
vt 0.558022 0.688136
vt 0.585118 0.679980
vt 0.590986 0.766960
vt 0.590986 0.766960
vt 0.549756 0.758442
vt 0.558022 0.688136
vt 0.481944 0.895439
vt 0.505190 0.898587
vt 0.505143 0.986947
vt 0.481886 0.983784
vt 0.189966 0.931526
vt 0.188308 0.986169
vt 0.160033 0.986162
vt 0.161690 0.931519
vt 0.509190 0.255435
vt 0.525523 0.284114
vt 0.528796 0.353748
vt 0.483679 0.355627
vt 0.474274 0.263010
vt 0.425278 0.290726
vt 0.441145 0.380538
vn 0.06712 -0.08743500000000005 -0.993906
vn 0.06712 -0.08743500000000005 -0.993906
vn 0.06712 -0.08743500000000005 -0.993906
vn 0.04845 -0.12576100000000007 -0.990877
vn 0.04845 -0.12576100000000007 -0.990877
vn 0.04845 -0.12576100000000007 -0.990877
vn -0.002739 0.042674999999999935 -0.999085
vn -0.002739 0.042674999999999935 -0.999085
vn -0.002739 0.042674999999999935 -0.999085
vn 0.16622 0.983931 0.06520599999999994
vn 0.16622 0.983931 0.06520599999999994
vn 0.16622 0.983931 0.06520599999999994
vn -0.005334 0.007153999999999938 -0.99996
vn -0.005334 0.007153999999999938 -0.99996
vn -0.005334 0.007153999999999938 -0.99996
vn -0.019 0.04832599999999994 -0.998651
vn -0.019 0.04832599999999994 -0.998651
vn -0.019 0.04832599999999994 -0.998651
vn -0.889419 -0.44431 0.10734000000000003
vn -0.889419 -0.44431 0.10734000000000003
vn -0.889419 -0.44431 0.10734000000000003
vn -0.905821 -0.379601 0.18812700000000002
vn -0.905821 -0.379601 0.18812700000000002
vn -0.905821 -0.379601 0.18812700000000002
vn 0.825344 0.564174 -0.022701000000000034
vn 0.825344 0.564174 -0.022701000000000034
vn 0.825344 0.564174 -0.022701000000000034
vn 0.816909 0.57676 -0.0027490000000000353
vn 0.816909 0.57676 -0.0027490000000000353
vn 0.816909 0.57676 -0.0027490000000000353
vn 0.934568 0.31742 -0.16070900000000002
vn 0.934568 0.31742 -0.16070900000000002
vn 0.934568 0.31742 -0.16070900000000002
vn 0.901543 0.43245 0.014400999999999975
vn 0.901543 0.43245 0.014400999999999975
vn 0.901543 0.43245 0.014400999999999975
vn 0.126931 0.991289 0.03515099999999994
vn 0.126931 0.991289 0.03515099999999994
vn 0.126931 0.991289 0.03515099999999994
vn -0.829222 -0.558869 0.007538000000000034
vn -0.829222 -0.558869 0.007538000000000034
vn -0.829222 -0.558869 0.007538000000000034
vn -0.776996 -0.615054 0.13411300000000004
vn -0.776996 -0.615054 0.13411300000000004
vn -0.776996 -0.615054 0.13411300000000004
vn 0.245212 -0.628826 0.737868
vn 0.296699 -0.788704 0.538438
vn 0.302595 -0.777921 0.550704
vn 0.215639 -0.32311399999999996 0.921465
vn -0.585631 0.80474 0.09710199999999994
vn -0.585632 0.80474 0.09710199999999994
vn -0.585631 0.80474 0.09710199999999994
vn -0.585631 0.80474 0.09710199999999994
vn 0.030236 0.12358700000000006 0.991873
vn -0.002435 0.003521000000000061 0.999991
vn -0.043695 0.11896600000000006 0.991936
vn 0.094829 0.06362600000000006 0.993458
vn 0.185823 0.11466900000000005 0.975869
vn 0.215639 -0.32311399999999996 0.921465
vn 0.245212 -0.628826 0.737868
g 10 - Default
f 1/1/1 2/2/2 3/3/3
f 4/4/4 5/5/5 6/6/6
f 7/7/7 8/8/8 9/9/9
f 10/10/10 11/11/11 12/12/12
f 13/13/13 14/14/14 15/15/15
f 16/16/16 17/17/17 18/18/18
f 19/19/19 20/20/20 21/21/21
f 22/22/22 23/23/23 24/24/24
f 25/25/25 26/26/26 27/27/27
f 28/28/28 29/29/29 30/30/30
f 31/31/31 32/32/32 33/33/33
f 34/34/34 35/35/35 36/36/36
f 37/37/37 38/38/38 39/39/39
f 40/40/40 41/41/41 42/42/42
f 43/43/43 44/44/44 45/45/45
f 46/46/46 47/47/47 48/48/48
f 48/48/48 49/49/49 46/46/46
f 50/50/50 51/51/51 52/52/52
f 52/52/52 53/53/53 50/50/50
f 54/54/54 55/55/55 56/56/56
f 56/56/56 57/57/57 54/54/54
f 57/57/57 58/58/58 54/54/54
f 57/57/57 59/59/59 58/58/58
f 57/57/57 60/60/60 59/59/59
