v -31.164955 2.757222 2.700593
v -32.506348 -1.412044 0.44243700000000014
v -29.568577 2.958243 0.44243599999999983
v -36.186737 0.23258300000000004 0.387438
v -31.164955 2.757222 2.700593
v -29.568577 2.958243 0.44243599999999983
v -36.186737 0.23258300000000004 0.387438
v -32.506348 -1.412044 0.44243700000000014
v -31.164955 2.757222 2.700593
v -14.061657 5.08077 2.4026209999999995
v -13.969446 5.794587 0.18803999999999965
v -18.689268 0.219865 0.18804
v -8.204552 7.336137 2.0237529999999997
v -5.610467 9.957203 0.21621699999999938
v -14.02928 8.136231 2.5114329999999994
v -14.02928 8.136231 2.5114329999999994
v -16.845715 4.230271 2.7506029999999995
v 0.652956 -9.151304 13.253778
v 2.32343 -11.736012 9.627548
v 7.982717 -10.306331 6.076720000000001
v 7.982717 -10.306331 6.076720000000001
v 8.254343 -12.006492 0.7651760000000007
v 4.038395 15.144485 1.8651769999999992
v 4.244381 13.018023 1.8651769999999992
v 19.845207 10.49036 1.8651769999999994
v 21.233812 13.424594 1.872095999999999
v -21.125349 -5.803389 2.4756450000000005
v -18.689268 0.219865 0.18804
v -22.18391 -6.852743 0.18804000000000043
v -14.061657 5.08077 2.4026209999999995
v 30.020517 10.21672 2.1132009999999997
v 17.197227 -3.385999 2.186224
v 17.887232 -5.34205 -0.10137999999999966
v 31.504219 9.547034 -0.10138100000000058
v -3.490902 -1.5989790000000002 -2.288318
v -5.610467 9.957203 0.21621699999999938
v -8.204552 7.336137 2.0237529999999997
v -6.470714 -3.374221 -1.6572559999999998
v -16.845715 4.230271 2.7506029999999995
v 0.652956 -9.151304 13.253778
v -9.138877 -13.648326 4.453692000000001
v 2.32343 -11.736012 9.627548
v -7.292385 -14.507732 0.9151560000000009
v 8.254343 -12.006492 0.7651760000000007
v -12.972569 8.19416 4.938191999999999
v -22.155394 4.049778 2.2524499999999996
v -12.534573 3.7111430000000003 6.135187
v -30.053196 -0.4778619999999999 2.034174
v -29.830189 2.897871 0.5301429999999998
v 24.060854 7.4648 2.5705559999999994
v 22.971144 10.170435 1.7199169999999993
v 3.273022 -2.033558 -1.3807489999999998
v -6.72748 2.951351 0.36629199999999984
v -11.287333 -6.46562 2.9215500000000003
v -12.46236 -3.546488 2.00382
v 14.93649 13.081514 9.319175
v -13.591339 0.35722800000000043 7.639233
v -12.46236 -3.546488 2.00382
v -7.955487 7.456646000000001 8.042006
v 7.289566 12.175918 14.421603
v -12.702063 -1.0182159999999991 13.337894
v -0.324879 10.707240000000002 16.672926
v 25.182076 4.771062 3.4192169999999997
v 24.060854 7.4648 2.5705559999999994
v 3.273022 -2.033558 -1.3807489999999998
v -1.325966 -10.400924 4.565341000000001
v -11.287333 -6.46562 2.9215500000000003
v -10.080206 -9.372637 3.8372650000000004
v 19.516983 1.7757260000000008 12.874975
v -10.080206 -9.372637 3.8372650000000004
v -9.562518 -9.573438 10.762806
v -0.907304 -10.000147 13.531185
v 12.207462 0.029114000000001118 18.241749
v -10.9174 -5.355047999999999 14.703218
v 5.134266 -2.788688999999999 20.91713
v -6.727476 2.951353 0.36629199999999984
v -12.462357 -3.546485 2.00382
v -13.591335 0.35723100000000046 7.639233
v 14.936494 13.081517 9.319175
v 22.971148 10.170437 1.7199169999999993
v -7.955483 7.456648000000001 8.042007
v -12.702059 -1.018213999999999 13.337894
v 7.289569 12.17592 14.421604
v -0.324875 10.707242000000003 16.672924
v -9.562514 -9.573436 10.762806
v -10.080202 -9.372635 3.8372650000000004
v -1.325962 -10.400922 4.565342000000001
v 25.182079 4.771065 3.4192179999999994
v 19.516987 1.7757280000000009 12.874975
v -0.9073 -10.000144 13.531185
v -10.917397 -5.355045999999999 14.703218
v 12.207466 0.029116000000001117 18.241749
v 5.13427 -2.788685999999999 20.91713
vt 0.031286 0.892009
vt 0.093232 0.912451
vt 0.038014 0.966961
vt 0.095062 0.950290
vt 0.086645 0.860376
vt 0.032430 0.870329
vt 0.023334 0.869026
vt 0.083730 0.852518
vt 0.070768 0.951036
vt 0.637608 0.124810
vt 0.632298 0.153132
vt 0.493334 0.189195
vt 0.515511 0.139856
vt 0.528698 0.198374
vt 0.667473 0.152464
vt 0.528698 0.198374
vt 0.667473 0.152464
vt 0.528698 0.198374
vt 0.515511 0.139856
vt 0.667473 0.152464
vt 0.528698 0.198374
vt 0.667473 0.152464
vt 0.791430 0.076257
vt 0.788106 0.014130
vt 0.512721 0.017175
vt 0.565853 0.100444
vt 0.635475 0.126601
vt 0.493334 0.189195
vt 0.643253 0.153176
vt 0.637608 0.124810
vt 0.802365 0.142725
vt 0.527799 0.280551
vt 0.501149 0.254490
vt 0.815539 0.114022
vt 0.599507 0.376163
vt 0.741817 0.536528
vt 0.611005 0.604747
vt 0.567327 0.405367
vt 0.536079 0.631895
vt 0.741817 0.536528
vt 0.599507 0.376163
vt 0.611005 0.604747
vt 0.567327 0.405367
vt 0.536079 0.631895
vt 0.761204 0.554494
vt 0.780161 0.375001
vt 0.825789 0.505024
vt 0.804605 0.208317
vt 0.748764 0.242708
vt 0.170363 0.075453
vt 0.228758 0.067605
vt 0.107647 0.506490
vt 0.258017 0.673834
vt 0.154255 0.813021
vt 0.206533 0.815153
vt 0.438403 0.184130
vt 0.358094 0.824750
vt 0.206771 0.816864
vt 0.415578 0.672143
vt 0.513287 0.345524
vt 0.437095 0.832243
vt 0.545348 0.511033
vt 0.228758 0.067605
vt 0.170363 0.075453
vt 0.107647 0.506490
vt 0.258017 0.673834
vt 0.154255 0.813021
vt 0.206533 0.815153
vt 0.438403 0.184130
vt 0.206771 0.816864
vt 0.358094 0.824750
vt 0.415578 0.672143
vt 0.513287 0.345524
vt 0.437095 0.832243
vt 0.545348 0.511033
vt 0.258017 0.673834
vt 0.206771 0.816864
vt 0.358094 0.824750
vt 0.438403 0.184130
vt 0.228758 0.067605
vt 0.415578 0.672143
vt 0.437095 0.832243
vt 0.513287 0.345524
vt 0.545348 0.511033
vt 0.358094 0.824750
vt 0.206771 0.816864
vt 0.258017 0.673834
vt 0.228758 0.067605
vt 0.438403 0.184130
vt 0.415578 0.672143
vt 0.437095 0.832243
vt 0.513287 0.345524
vt 0.545348 0.511033
vn 0.133617 0.0014910000000000606 0.991032
vn 0.309275 -0.527916 0.790983
vn 0.575324 0.671831 0.46652499999999997
vn -0.55414 0.47752500000000003 0.681835
vn 0.133617 0.0014910000000000606 0.991032
vn 0.575324 0.671831 0.46652499999999997
vn -0.55414 0.47752500000000003 0.681835
vn 0.309275 -0.527916 0.790983
vn 0.133617 0.0014910000000000606 0.991032
vn -0.754081 0.56644 0.33242599999999994
vn -0.751584 0.636326 0.17380999999999996
vn -0.79985 0.52449 0.29180399999999995
vn 0.288762 -0.02965999999999994 0.956941
vn 0.400013 0.21800600000000006 0.890204
vn 0.113792 0.24091700000000005 0.963852
vn 0.113792 0.24091700000000005 0.963852
vn 0.13553 -0.14780199999999993 0.979687
vn 0.231576 -0.738591 0.633132
vn 0.221289 -0.89012 0.3983940000000001
vn 0.486789 -0.728028 0.48271200000000003
vn 0.486789 -0.728028 0.48271200000000003
vn 0.285419 -0.932933 0.21948300000000007
vn -0.000305 -0.0010349999999999387 0.999999
vn 0 6.123233995736766E-17 1
vn -0.000305 -0.0010349999999999387 0.999999
vn -0.000609 -0.0020699999999999386 0.999998
vn -0.81553 0.462136 0.34834099999999996
vn -0.79985 0.52449 0.29180399999999995
vn -0.877099 0.433383 0.20706799999999997
vn -0.754081 0.56644 0.33242599999999994
vn 0.587114 -0.543273 0.600126
vn 0.568571 -0.532626 0.626926
vn 0.587114 -0.543273 0.600126
vn 0.604968 -0.55328 0.572621
vn 0.484324 -0.15963099999999994 0.860202
vn 0.400013 0.21800600000000006 0.890204
vn 0.288762 -0.02965999999999994 0.956941
vn 0.264681 -0.27483699999999994 0.924342
vn 0.13553 -0.14780199999999993 0.979687
vn 0.231576 -0.738591 0.633132
vn -0.031503 -0.912806 0.40717600000000004
vn 0.221289 -0.89012 0.3983940000000001
vn 0.102025 -0.974966 0.19756700000000005
vn 0.285419 -0.932933 0.21948300000000007
vn -0.359789 0.20772200000000005 0.909617
vn -0.311702 0.37512400000000007 0.872997
vn -0.33854 0.3582270000000001 0.870094
vn -0.283906 0.45453000000000005 0.844275
vn -0.257756 0.4073800000000001 0.876129
vn -0.26589 0.18865000000000007 0.945364
vn -0.02322 -0.36058299999999993 0.932438
vn -0.097435 0.26216900000000004 0.960091
vn 0.337844 -0.44621099999999997 0.828708
vn 0.057577 0.32058600000000004 0.945468
vn 0.412702 -0.13731899999999994 0.900456
vn 0.19754 -0.892065 0.40644600000000003
vn 0.768922 -0.592532 0.24013600000000002
vn 0.412702 -0.13731899999999994 0.900456
vn 0.517704 -0.846823 0.12195800000000005
vn 0.228933 -0.959719 0.16287700000000005
vn 0.72768 -0.607075 -0.31928299999999993
vn 0.499678 -0.858053 -0.11860499999999995
vn -0.430249 0.663607 0.611974
vn -0.26589 0.18865000000000007 0.945364
vn -0.097435 0.26216900000000004 0.960091
vn -0.19425 0.892058 0.40804299999999993
vn 0.057577 0.32058600000000004 0.945468
vn 0.042555 0.792789 0.608009
vn -0.496962 0.855988 -0.14252800000000004
vn 0.042555 0.792789 0.608009
vn 0.151884 0.957092 -0.24679300000000007
vn -0.172757 0.889471 -0.42307900000000004
vn -0.467811 0.794038 -0.3881450000000001
vn 0.22286 0.661041 -0.71649
vn -0.145551 0.764771 -0.627646
vn -0.460813 0.721735 -0.516478
vn -0.710769 0.503526 -0.49119100000000004
vn -0.768922 0.592532 -0.24013600000000002
vn -0.19754 0.892065 -0.40644600000000003
vn -0.180679 0.83941 -0.512587
vn -0.517704 0.846823 -0.12195800000000005
vn -0.72768 0.607075 0.31928299999999993
vn -0.228933 0.959719 -0.16287700000000005
vn -0.499678 0.858053 0.11860499999999995
vn -0.151884 -0.957092 0.24679300000000007
vn -0.114978 -0.993163 -0.020200999999999938
vn 0.214512 -0.976568 0.01731100000000006
vn 0.497367 -0.867228 0.02326600000000005
vn 0.496961 -0.855988 0.14252800000000004
vn 0.172757 -0.889471 0.42307900000000004
vn -0.22286 -0.661041 0.71649
vn 0.467811 -0.794038 0.3881450000000001
vn 0.145551 -0.764771 0.627646
g 01
f 1/1/1 2/2/2 3/3/3
f 4/4/4 5/5/5 6/6/6
f 7/7/7 8/8/8 9/9/9
f 10/10/10 11/11/11 12/12/12
f 13/13/13 14/14/14 15/15/15
f 13/13/13 16/16/16 17/17/17
f 18/18/18 19/19/19 20/20/20
f 21/21/21 19/19/19 22/22/22
f 23/23/23 24/24/24 25/25/25
f 25/25/25 26/26/26 23/23/23
f 27/27/27 28/28/28 29/29/29
f 28/28/28 27/27/27 30/30/30
f 31/31/31 32/32/32 33/33/33
f 33/33/33 34/34/34 31/31/31
f 35/35/35 36/36/36 37/37/37
f 38/38/38 35/35/35 37/37/37
f 39/39/39 38/38/38 37/37/37
f 40/40/40 41/41/41 42/42/42
f 41/41/41 43/43/43 42/42/42
f 43/43/43 44/44/44 42/42/42
f 45/45/45 46/46/46 47/47/47
f 48/48/48 47/47/47 46/46/46
f 46/46/46 49/49/49 48/48/48
f 50/50/50 51/51/51 52/52/52
f 51/51/51 53/53/53 52/52/52
f 54/54/54 52/52/52 53/53/53
f 53/53/53 55/55/55 54/54/54
f 53/53/53 51/51/51 56/56/56
f 57/57/57 58/58/58 53/53/53
f 56/56/56 59/59/59 53/53/53
f 53/53/53 59/59/59 57/57/57
f 59/59/59 56/56/56 60/60/60
f 61/61/61 57/57/57 59/59/59
f 60/60/60 62/62/62 59/59/59
f 59/59/59 62/62/62 61/61/61
f 63/63/63 64/64/64 65/65/65
f 66/66/66 63/63/63 65/65/65
f 66/66/66 65/65/65 67/67/67
f 67/67/67 68/68/68 66/66/66
f 69/69/69 63/63/63 66/66/66
f 66/66/66 70/70/70 71/71/71
f 66/66/66 72/72/72 69/69/69
f 71/71/71 72/72/72 66/66/66
f 73/73/73 69/69/69 72/72/72
f 72/72/72 71/71/71 74/74/74
f 72/72/72 75/75/75 73/73/73
f 74/74/74 75/75/75 72/72/72
f 76/76/76 77/77/77 78/78/78
f 79/79/79 80/80/80 76/76/76
f 78/78/78 81/81/81 76/76/76
f 76/76/76 81/81/81 79/79/79
f 81/81/81 78/78/78 82/82/82
f 83/83/83 79/79/79 81/81/81
f 82/82/82 84/84/84 81/81/81
f 81/81/81 84/84/84 83/83/83
f 85/85/85 86/86/86 87/87/87
f 87/87/87 88/88/88 89/89/89
f 87/87/87 90/90/90 85/85/85
f 89/89/89 90/90/90 87/87/87
f 91/91/91 85/85/85 90/90/90
f 90/90/90 89/89/89 92/92/92
f 90/90/90 93/93/93 91/91/91
f 92/92/92 93/93/93 90/90/90
