v -22.321415 0.11165700000000033 5.141448
v -19.306988 0.1586750000000004 6.544826
v -16.604031 9.58225 2.4976179999999997
v -24.779228 9.948545 -2.7137570000000006
v 4.352371 0.40445800000000015 2.402621
v -4.910263 9.490946 2.4756439999999995
v -0.749002 3.691556 0.1880379999999998
v 2.999047 -1.51242 0.4301470000000001
v 23.448494 -5.802611 2.5921660000000006
v 15.134729 -13.264174 2.5921670000000008
v 17.09936 -15.827923 2.5921670000000008
v 30.024738 -7.127623 0.14046000000000045
v -30.712002 -0.3748509999999999 2.036938
v -32.391384 -2.537078 0.18803800000000018
v -27.305355 -8.240509 0.1880390000000005
v -22.14827 -14.884415 2.109960000000001
v -22.483215 -17.238411 0.18803800000000107
v -12.56958 14.497674 -0.20719800000000088
v -22.798748 12.202554 -0.20719800000000074
v -14.028486 11.633353 2.0804069999999992
v -31.222244 8.856707 2.0073839999999996
v -31.082619 13.129008 -0.2071990000000008
v 2.170929 0.8418090000000004 6.143308
v 10.770911 -1.9544709999999992 15.2862
v 16.834923 -3.546090999999999 12.301249
v 22.906847 -5.893349 5.769733
v 3.709188 7.316919 0.16054899999999955
v -2.806099 7.346934000000001 7.587826999999999
v -1.456041 12.587803 3.3435189999999992
v 30.624966 -1.245795 -0.5852309999999998
v -0.392552 14.652606 4.924591999999999
v -1.456041 12.587803 3.3435189999999992
v 12.990067 11.488785 -0.2623640000000007
v 31.60866 0.668969 0.88068
v 6.979658 -12.520149 4.704862000000001
v 7.308346 -10.360463 5.789466000000001
v -12.443874 -8.807799 8.621987
v -19.400455 -11.746699 3.020044000000001
v -25.197689 -5.226386 5.313441
v -25.551754 -7.55641 4.143372000000001
v 1.619315 -10.897943 -2.903177999999999
v -18.747379 -10.391975 -4.033441999999999
v -25.119476 -6.935432 -1.3821479999999995
v -25.551754 -7.55641 4.143372000000001
v 7.308346 -10.360463 5.789466000000001
v 7.665756 -8.205941 6.875740000000001
v -12.443874 -8.807799 8.621987
v -17.758606 -1.0858309999999995 8.376776
v -25.197689 -5.226386 5.313441
v -24.814365 -2.9016189999999997 6.485214
v 3.015224 -1.870232 1.6337520000000003
v -23.888817 0.9948880000000001 2.603923
v -24.814365 -2.9016189999999997 6.485214
v -16.612259 3.544424 2.967519
v -3.02203 1.3718039999999998 -2.161534
v -23.702347 0.4959369999999999 -2.125801
v -9.328749 3.8199809999999994 -3.7796830000000003
v 31.60866 0.668969 0.88068
v 32.620964 2.572307 2.341577
v 12.990067 11.488785 -0.2623640000000007
v 8.689051 16.722853 7.377558999999999
v 27.118885 2.074691000000001 11.882763
v -0.392552 14.652606 4.924591999999999
v 0.700076 16.705769 6.500554999999999
v 8.690773 13.131639000000002 15.574504
v 0.89 14.348795 12.959048
v 0.700076 16.705769 6.500554999999999
v 8.689052 16.722851 7.377558999999999
v 0.700078 16.705769 6.500553999999999
v 0.89 14.348796 12.959049
v 27.118885 2.074690000000001 11.882763
v 32.620964 2.572306 2.341577
v 8.690773 13.131639000000002 15.574504
v -0.602935 9.467707000000003 15.556643
v 19.831909 0.988057000000001 16.745949
v 12.979766 1.9772060000000011 19.501362
v -1.456039 12.587803 3.3435189999999992
v 3.709188 7.316918 0.16054899999999955
v -2.806099 7.346935000000001 7.587826999999999
v 30.624966 -1.245796 -0.5852319999999999
v 22.906845 -5.893349 5.769733
v 2.170929 0.8418100000000003 6.143307
v -1.941429 7.076804000000001 13.561882
v 16.834923 -3.546090999999999 12.301247
v 10.770911 -1.9544709999999992 15.2862
vt 0.567327 0.405367
vt 0.599507 0.376163
vt 0.611005 0.604747
vt 0.536079 0.631895
vt 0.603415 0.676832
vt 0.500784 0.965596
vt 0.551358 0.794483
vt 0.572672 0.647088
vt 0.349975 0.956526
vt 0.137601 0.894504
vt 0.205315 0.863082
vt 0.448597 0.897417
vt 0.804605 0.208317
vt 0.748764 0.242708
vt 0.780161 0.375001
vt 0.825789 0.505024
vt 0.761204 0.554494
vt 0.761204 0.554494
vt 0.780161 0.375001
vt 0.825789 0.505024
vt 0.804605 0.208317
vt 0.748764 0.242708
vt 0.415578 0.672143
vt 0.545348 0.511033
vt 0.513287 0.345524
vt 0.438403 0.184130
vt 0.258017 0.673834
vt 0.358094 0.824750
vt 0.206771 0.816864
vt 0.228758 0.067605
vt 0.154255 0.813021
vt 0.206533 0.815153
vt 0.107647 0.506490
vt 0.170363 0.075453
vt 0.228758 0.067605
vt 0.170363 0.075453
vt 0.107647 0.506490
vt 0.258017 0.673834
vt 0.154255 0.813021
vt 0.206533 0.815153
vt 0.438403 0.184130
vt 0.415578 0.672143
vt 0.358094 0.824750
vt 0.206771 0.816864
vt 0.170363 0.075453
vt 0.228758 0.067605
vt 0.107647 0.506490
vt 0.258017 0.673834
vt 0.154255 0.813021
vt 0.206533 0.815153
vt 0.438403 0.184130
vt 0.358094 0.824750
vt 0.206771 0.816864
vt 0.415578 0.672143
vt 0.513287 0.345524
vt 0.437095 0.832243
vt 0.545348 0.511033
vt 0.170363 0.075453
vt 0.228758 0.067605
vt 0.107647 0.506490
vt 0.258017 0.673834
vt 0.438403 0.184130
vt 0.154255 0.813021
vt 0.206533 0.815153
vt 0.415578 0.672143
vt 0.358094 0.824750
vt 0.206771 0.816864
vt 0.258017 0.673834
vt 0.206771 0.816864
vt 0.358094 0.824750
vt 0.438403 0.184130
vt 0.228758 0.067605
vt 0.415578 0.672143
vt 0.437095 0.832243
vt 0.513287 0.345524
vt 0.545348 0.511033
vt 0.206771 0.816864
vt 0.258017 0.673834
vt 0.358094 0.824750
vt 0.228758 0.067605
vt 0.438403 0.184130
vt 0.415578 0.672143
vt 0.437095 0.832243
vt 0.513287 0.345524
vt 0.545348 0.511033
vn -0.41884 0.46978800000000004 0.777093
vn -0.381659 0.4550080000000001 0.804552
vn -0.41884 0.46978800000000004 0.777093
vn -0.455034 0.48346100000000003 0.747803
vn -0.596823 -0.507552 0.621444
vn -0.612888 -0.628617 0.47875700000000004
vn -0.596823 -0.507552 0.621444
vn -0.559704 -0.36858399999999997 0.742211
vn 0.15666 -0.09921499999999994 0.982657
vn 0 6.123233995736766E-17 1
vn 0.15666 -0.09921499999999994 0.982657
vn 0.307887 -0.19498799999999994 0.931228
vn -0.603848 -0.42067599999999994 0.677051
vn -0.422489 -0.3767539999999999 0.824354
vn -0.641787 -0.40818099999999996 0.649228
vn -0.732498 -0.41174799999999995 0.542134
vn -0.711166 -0.38112699999999994 0.590749
vn -0.148585 0.662229 0.734421
vn -0.074617 0.63159 0.771704
vn -0.136003 0.704379 0.696673
vn -0.03662 0.614044 0.788422
vn 0.051253 0.45827900000000005 0.887329
vn 0.419144 0.827173 0.37430199999999997
vn 0.271484 0.961663 0.03875399999999994
vn 0.289886 0.957025 -0.008372000000000058
vn 0.273423 0.809763 0.519157
vn 0.347013 0.17112500000000005 0.922116
vn 0.702526 0.35841400000000007 0.614815
vn 0.393656 -0.16079499999999994 0.905085
vn -0.024555 0.07582100000000006 0.996819
vn 0.022862 -0.616192 0.787264
vn 0.393656 -0.16079499999999994 0.905085
vn -0.142026 -0.554501 0.819974
vn -0.32081 -0.4648669999999999 0.825215
vn 0.006386 -0.884803 0.46592100000000003
vn 0.090642 -0.45910899999999993 0.883744
vn -0.079148 -0.4381169999999999 0.895427
vn -0.285449 -0.927283 0.24220800000000006
vn -0.2301 -0.40841799999999995 0.883317
vn -0.436551 -0.766942 0.47034400000000004
vn -0.014984 -0.980939 -0.19373699999999994
vn -0.283358 -0.936601 -0.20612399999999995
vn -0.553602 -0.814938 -0.17146499999999995
vn -0.436551 -0.766942 0.47034400000000004
vn 0.090642 -0.45910899999999993 0.883744
vn 0.159839 0.13373200000000005 0.978043
vn -0.079148 -0.4381169999999999 0.895427
vn -0.0849 0.4043900000000001 0.910638
vn -0.2301 -0.40841799999999995 0.883317
vn -0.295588 0.16912800000000006 0.940225
vn 0.254661 0.788801 0.559411
vn -0.343838 0.854188 0.39004799999999995
vn -0.295588 0.16912800000000006 0.940225
vn -0.015012 0.956434 0.29156199999999993
vn 0.269839 0.903811 0.33213299999999996
vn -0.284501 0.943699 -0.16879300000000005
vn 0.01299 0.998413 0.05479799999999994
vn -0.32081 -0.4648669999999999 0.825215
vn -0.496519 -0.80801 0.31715800000000005
vn -0.142026 -0.554501 0.819974
vn -0.25936 -0.964471 0.050290000000000064
vn -0.531716 -0.77443 -0.34283499999999995
vn 0.022862 -0.616192 0.787264
vn -0.030386 -0.954891 0.29539800000000005
vn -0.281415 -0.878955 -0.38502499999999995
vn 0.015689 -0.927812 -0.37271799999999994
vn -0.030386 -0.954891 0.29539800000000005
vn 0.269255 0.887816 0.37320799999999993
vn -0.039724 0.938281 0.34358599999999995
vn -0.081698 0.827954 0.554813
vn 0.516527 0.696378 0.49825299999999995
vn 0.530404 0.773822 0.3462239999999999
vn 0.193533 0.62592 0.755493
vn -0.160238 0.4020540000000001 0.901486
vn 0.414042 0.45586600000000005 0.78788
vn 0.141939 0.37682000000000004 0.915347
vn -0.712471 -0.32155800000000007 -0.623687
vn -0.481696 -0.518475 -0.706508
vn -0.77951 -0.475532 -0.40771699999999994
vn -0.223247 -0.637526 -0.737374
vn -0.273423 -0.809763 -0.519157
vn -0.542696 -0.820964 -0.17748099999999994
vn -0.689732 -0.695307 0.20203400000000005
vn -0.289886 -0.957025 0.008372000000000058
vn -0.43926 -0.887088 0.14186800000000005
g 01
f 1/1/1 2/2/2 3/3/3
f 4/4/4 1/1/1 3/3/3
f 5/5/5 6/6/6 7/7/7
f 7/7/7 8/8/8 5/5/5
f 9/9/9 10/10/10 11/11/11
f 12/12/12 9/9/9 11/11/11
f 13/13/13 14/14/14 15/15/15
f 15/15/15 16/16/16 13/13/13
f 15/15/15 17/17/17 16/16/16
f 18/18/18 19/19/19 20/20/20
f 21/21/21 20/20/20 19/19/19
f 19/19/19 22/22/22 21/21/21
f 23/23/23 24/24/24 25/25/25
f 25/25/25 26/26/26 23/23/23
f 27/27/27 23/23/23 26/26/26
f 28/28/28 23/23/23 27/27/27
f 27/27/27 29/29/29 28/28/28
f 26/26/26 30/30/30 27/27/27
f 31/31/31 32/32/32 27/27/27
f 27/27/27 33/33/33 31/31/31
f 27/27/27 30/30/30 33/33/33
f 30/30/30 34/34/34 33/33/33
f 35/35/35 36/36/36 37/37/37
f 38/38/38 35/35/35 37/37/37
f 38/38/38 37/37/37 39/39/39
f 39/39/39 40/40/40 38/38/38
f 41/41/41 35/35/35 38/38/38
f 38/38/38 42/42/42 41/41/41
f 43/43/43 42/42/42 38/38/38
f 38/38/38 44/44/44 43/43/43
f 45/45/45 46/46/46 47/47/47
f 46/46/46 48/48/48 47/47/47
f 49/49/49 47/47/47 48/48/48
f 48/48/48 50/50/50 49/49/49
f 48/48/48 46/46/46 51/51/51
f 52/52/52 53/53/53 48/48/48
f 51/51/51 54/54/54 48/48/48
f 48/48/48 54/54/54 52/52/52
f 54/54/54 51/51/51 55/55/55
f 56/56/56 52/52/52 54/54/54
f 55/55/55 57/57/57 54/54/54
f 54/54/54 57/57/57 56/56/56
f 58/58/58 59/59/59 60/60/60
f 59/59/59 61/61/61 60/60/60
f 61/61/61 59/59/59 62/62/62
f 63/63/63 60/60/60 61/61/61
f 61/61/61 64/64/64 63/63/63
f 62/62/62 65/65/65 61/61/61
f 61/61/61 65/65/65 66/66/66
f 66/66/66 67/67/67 61/61/61
f 68/68/68 69/69/69 70/70/70
f 71/71/71 72/72/72 68/68/68
f 70/70/70 73/73/73 68/68/68
f 68/68/68 73/73/73 71/71/71
f 73/73/73 70/70/70 74/74/74
f 75/75/75 71/71/71 73/73/73
f 74/74/74 76/76/76 73/73/73
f 73/73/73 76/76/76 75/75/75
f 77/77/77 78/78/78 79/79/79
f 80/80/80 81/81/81 78/78/78
f 78/78/78 82/82/82 79/79/79
f 81/81/81 82/82/82 78/78/78
f 83/83/83 79/79/79 82/82/82
f 82/82/82 81/81/81 84/84/84
f 82/82/82 85/85/85 83/83/83
f 84/84/84 85/85/85 82/82/82
