v -1.593293 -1.597905 0.2592710000000001
v -1.553997 -1.849139 0.2592710000000001
v -1.848281 -1.637838 -0.004912999999999899
v -1.808985 -1.889074 -0.0049129999999998845
v -1.593293 -1.597905 -0.004912999999999902
v -1.848281 -1.637838 0.2592710000000001
v -1.554057 -1.849869 -0.0045619999999998865
v -1.808985 -1.889074 0.2592710000000001
v 1.110174 1.02997 0.05712599999999994
v 0.998444 0.935751 0.05712599999999995
v 0.905147 1.047567 0.05712599999999994
v 1.016826 1.141885 0.057125999999999934
v -0.526324 1.537076 0.19585999999999992
v -0.169146 1.471276 0.19545099999999993
v -0.184192 1.402977 0.2179059999999999
v -0.199365 1.335238 0.1970619999999999
v -0.551301 1.399933 0.19586299999999993
v -0.538894 1.468521 0.2174699999999999
v 1.073876 -1.71044 0.22372100000000011
v 1.129157 -1.540251 0.2237210000000001
v 1.410092 -1.631226 0.22372100000000011
v 1.354848 -1.80217 0.22372100000000011
v 1.073876 -1.71044 -0.0004359999999998953
v 1.354848 -1.80217 -0.00043599999999988966
v 1.410092 -1.631226 -0.0004359999999999001
v 1.129157 -1.540251 -0.0004359999999999057
v 1.469098 -1.206237 0.25927100000000003
v 1.615989 -1.448044 0.2592710000000001
v 1.223699 -1.355374 -0.0049129999999999166
v 1.37059 -1.597183 -0.004912999999999902
v 1.469098 -1.206237 -0.004912999999999926
v 1.223699 -1.355374 0.25927100000000003
v 1.616236 -1.448821 -0.004561999999999912
v 1.37059 -1.597183 0.2592710000000001
v 0.793391 1.412458 0.2464959999999999
v 1.049533 1.414884 0.2464959999999999
v 1.051959 1.158743 0.2464959999999999
v 0.795817 1.156316 0.2464959999999999
v 1.051959 1.158743 -0.009638000000000072
v 0.795817 1.156316 -0.009639000000000071
v 0.793391 1.412458 -0.009638000000000087
v 1.049533 1.414884 -0.009639000000000087
v -0.244542 1.534368 0.16397599999999993
v -0.245986 1.168197 0.1639329999999999
v -0.5059 1.168791 0.1639329999999999
v -0.504456 1.534962 0.16397599999999993
v -0.244542 1.534368 -0.002159000000000094
v -0.245986 1.168197 -0.0022020000000000715
v -0.506625 1.168927 -0.0019810000000000717
v -0.504456 1.534962 -0.002159000000000094
v 1.382029 1.119357 0.3165299999999999
v 1.06032 1.158269 0.3165299999999999
v 1.420943 1.441064 0.31652999999999987
v 1.099233 1.47998 0.31652999999999987
v 1.06032 1.158269 -0.007524000000000071
v 1.099233 1.47998 -0.0075240000000000905
v 1.06032 1.158269 0.3165299999999999
v 1.099233 1.47998 0.31652999999999987
v 1.382029 1.119357 -0.007524000000000069
v 1.06032 1.158269 -0.007524000000000071
v 1.420943 1.441064 -0.007524000000000089
v 1.099233 1.47998 -0.0075240000000000905
v 1.382029 1.119357 0.3165299999999999
v 1.06032 1.158269 0.3165299999999999
v 1.420943 1.441064 0.31652999999999987
v 1.099233 1.47998 0.31652999999999987
v -0.560459 -1.555905 0.004089000000000095
v -0.920866 -1.624125 0.0040890000000000995
v -0.953865 -1.447526 0.004089000000000088
v -0.593592 -1.380058 0.004089000000000084
v -1.593293 -1.597905 0.2592710000000001
v -1.553997 -1.849139 0.2592710000000001
v -1.848281 -1.637838 -0.004912999999999899
v -1.808985 -1.889074 -0.0049129999999998845
v -1.593293 -1.597905 -0.004912999999999902
v -1.848281 -1.637838 0.2592710000000001
v -1.554057 -1.849869 -0.0045619999999998865
v -1.808985 -1.889074 0.2592710000000001
v -1.170982 -1.216475 0.07602300000000006
v -1.058561 -1.043751 0.08858700000000007
v -0.771811 -1.218674 0.06108100000000008
v -0.895128 -1.397322 0.048314000000000086
v -0.531119 1.323655 0.19585999999999992
v -0.167941 1.320878 0.19545099999999993
v -0.170899 1.251003 0.2179059999999999
v -0.174078 1.181659 0.1970619999999999
v -0.531901 1.184257 0.19586299999999993
v -0.531593 1.253958 0.2174699999999999
v -1.848281 -1.637838 0.2592710000000001
v -1.808985 -1.889074 0.2592710000000001
v -1.593293 -1.597905 0.2592710000000001
v -1.848281 -1.637838 0.2592710000000001
v -1.848281 -1.637838 -0.004912999999999899
v -1.553997 -1.849139 0.2592710000000001
v -1.593293 -1.597905 0.2592710000000001
v -1.593293 -1.597905 -0.004912999999999902
v -1.808985 -1.889074 0.2592710000000001
v -1.553997 -1.849139 0.2592710000000001
v -1.554057 -1.849869 -0.0045619999999998865
v -1.808985 -1.889074 -0.0049129999999998845
v -0.169146 1.471276 0.19545099999999993
v -0.538894 1.468521 0.2174699999999999
v -0.538894 1.468521 0.2174699999999999
v -0.184192 1.402977 0.2179059999999999
v -0.184192 1.402977 0.2179059999999999
v -0.551301 1.399933 0.19586299999999993
v 1.354848 -1.80217 0.22372100000000011
v 1.073876 -1.71044 0.22372100000000011
v 1.410092 -1.631226 0.22372100000000011
v 1.354848 -1.80217 -0.00043599999999988966
v 1.354848 -1.80217 0.22372100000000011
v 1.129157 -1.540251 0.2237210000000001
v 1.410092 -1.631226 -0.0004359999999999001
v 1.410092 -1.631226 0.22372100000000011
v 1.073876 -1.71044 0.22372100000000011
v 1.073876 -1.71044 -0.0004359999999998953
v 1.129157 -1.540251 -0.0004359999999999057
v 1.129157 -1.540251 0.2237210000000001
v 1.223699 -1.355374 0.25927100000000003
v 1.37059 -1.597183 0.2592710000000001
v 1.469098 -1.206237 0.25927100000000003
v 1.223699 -1.355374 0.25927100000000003
v 1.223699 -1.355374 -0.0049129999999999166
v 1.615989 -1.448044 0.2592710000000001
v 1.469098 -1.206237 0.25927100000000003
v 1.469098 -1.206237 -0.004912999999999926
v 1.37059 -1.597183 0.2592710000000001
v 1.615989 -1.448044 0.2592710000000001
v 1.616236 -1.448821 -0.004561999999999912
v 1.37059 -1.597183 -0.004912999999999902
v 0.795817 1.156316 0.2464959999999999
v 1.051959 1.158743 0.2464959999999999
v 0.793391 1.412458 0.2464959999999999
v 0.795817 1.156316 0.2464959999999999
v 0.795817 1.156316 -0.009639000000000071
v 1.049533 1.414884 0.2464959999999999
v 0.793391 1.412458 0.2464959999999999
v 0.793391 1.412458 -0.009638000000000087
v 1.051959 1.158743 0.2464959999999999
v 1.049533 1.414884 0.2464959999999999
v 1.049533 1.414884 -0.009639000000000087
v 1.051959 1.158743 -0.009638000000000072
v -0.245986 1.168197 0.1639329999999999
v -0.244542 1.534368 0.16397599999999993
v -0.5059 1.168791 0.1639329999999999
v -0.245986 1.168197 0.1639329999999999
v -0.245986 1.168197 -0.0022020000000000715
v -0.504456 1.534962 0.16397599999999993
v -0.5059 1.168791 0.1639329999999999
v -0.506625 1.168927 -0.0019810000000000717
v -0.244542 1.534368 0.16397599999999993
v -0.504456 1.534962 0.16397599999999993
v -0.504456 1.534962 -0.002159000000000094
v -0.244542 1.534368 -0.002159000000000094
v 1.382029 1.119357 0.3165299999999999
v 1.420943 1.441064 0.31652999999999987
v 1.420943 1.441064 -0.007524000000000089
v 1.382029 1.119357 -0.007524000000000069
v -1.848281 -1.637838 0.2592710000000001
v -1.808985 -1.889074 0.2592710000000001
v -1.593293 -1.597905 0.2592710000000001
v -1.848281 -1.637838 0.2592710000000001
v -1.848281 -1.637838 -0.004912999999999899
v -1.553997 -1.849139 0.2592710000000001
v -1.593293 -1.597905 0.2592710000000001
v -1.593293 -1.597905 -0.004912999999999902
v -1.808985 -1.889074 0.2592710000000001
v -1.553997 -1.849139 0.2592710000000001
v -1.554057 -1.849869 -0.0045619999999998865
v -1.808985 -1.889074 -0.0049129999999998845
v -0.167941 1.320878 0.19545099999999993
v -0.531593 1.253958 0.2174699999999999
v -0.531593 1.253958 0.2174699999999999
v -0.170899 1.251003 0.2179059999999999
v -0.170899 1.251003 0.2179059999999999
v -0.531901 1.184257 0.19586299999999993
vt 0.506494 0.281743
vt 0.506494 0.332969
vt 0.633079 0.332927
vt 0.573212 0.332927
vt 0.633079 0.332927
vt 0.566828 0.281743
vt 0.633079 0.332927
vt 0.566828 0.332969
vt 0.481134 0.259271
vt 0.490757 0.235212
vt 0.467522 0.225247
vt 0.457896 0.249305
vt 0.380398 0.576553
vt 0.380397 0.517556
vt 0.366882 0.517556
vt 0.353603 0.517556
vt 0.353604 0.576553
vt 0.366883 0.576553
vt 0.608261 0.054421
vt 0.608261 0.101034
vt 0.684673 0.101034
vt 0.684673 0.054421
vt 0.528060 0.054421
vt 0.603016 0.054421
vt 0.395128 0.054421
vt 0.473850 0.054421
vt 0.506494 0.281743
vt 0.506494 0.332969
vt 0.633079 0.332927
vt 0.573212 0.332927
vt 0.633079 0.332927
vt 0.566828 0.281743
vt 0.633079 0.332927
vt 0.566828 0.332969
vt 0.103552 0.040864
vt 0.103789 0.008237
vt 0.073727 0.008237
vt 0.073727 0.040864
vt 0.106078 0.046283
vt 0.106078 0.078435
vt 0.106629 0.078554
vt 0.135568 0.008237
vt 0.567201 0.241885
vt 0.501226 0.241885
vt 0.501226 0.275812
vt 0.567201 0.275812
vt 0.576455 0.275127
vt 0.642251 0.275127
vt 0.688361 0.274831
vt 0.642251 0.275127
vt 0.006440 0.059383
vt 0.006440 0.111242
vt 0.049960 0.059383
vt 0.049961 0.111242
vt 0.099393 0.112509
vt 0.099393 0.059108
vt 0.054788 0.112509
vt 0.054788 0.059108
vt 0.054788 0.059108
vt 0.054788 0.112509
vt 0.054788 0.059108
vt 0.099393 0.059108
vt 0.099393 0.059108
vt 0.099393 0.112509
vt 0.054788 0.112509
vt 0.099393 0.112509
vt 0.774114 0.006345
vt 0.682336 0.006345
vt 0.682336 0.045058
vt 0.774114 0.045058
vt 0.506494 0.281743
vt 0.506494 0.332969
vt 0.633079 0.332927
vt 0.573212 0.332927
vt 0.633079 0.332927
vt 0.566828 0.281743
vt 0.633079 0.332927
vt 0.566828 0.332969
vt 0.858378 0.297944
vt 0.858519 0.266850
vt 0.817380 0.266991
vt 0.816777 0.298038
vt 0.380735 0.444435
vt 0.380736 0.503433
vt 0.394251 0.503433
vt 0.407530 0.503433
vt 0.407529 0.444435
vt 0.394250 0.444435
vt 0.633079 0.281701
vt 0.573212 0.281701
vt 0.633079 0.281701
vt 0.573212 0.281701
vt 0.573212 0.332927
vt 0.633079 0.281701
vt 0.573212 0.281701
vt 0.573212 0.332927
vt 0.633079 0.281701
vt 0.573212 0.281701
vt 0.573212 0.332927
vt 0.633079 0.332927
vt 0.380397 0.517556
vt 0.366883 0.576553
vt 0.366883 0.576553
vt 0.366882 0.517556
vt 0.366882 0.517556
vt 0.353604 0.576553
vt 0.603016 0.101034
vt 0.528060 0.101034
vt 0.395128 0.101034
vt 0.349555 0.054421
vt 0.349555 0.101034
vt 0.473850 0.101034
vt 0.398939 0.054421
vt 0.398939 0.101034
vt 0.523663 0.101034
vt 0.523663 0.054421
vt 0.477953 0.054421
vt 0.477953 0.101034
vt 0.633079 0.281701
vt 0.573212 0.281701
vt 0.633079 0.281701
vt 0.573212 0.281701
vt 0.573212 0.332927
vt 0.633079 0.281701
vt 0.573212 0.281701
vt 0.573212 0.332927
vt 0.633079 0.281701
vt 0.573212 0.281701
vt 0.573212 0.332927
vt 0.633079 0.332927
vt 0.135046 0.078435
vt 0.135046 0.046283
vt 0.135597 0.078554
vt 0.135597 0.046402
vt 0.106629 0.046402
vt 0.106127 0.008119
vt 0.106127 0.041101
vt 0.135568 0.041219
vt 0.135607 0.008319
vt 0.135607 0.041301
vt 0.106166 0.041182
vt 0.106166 0.008200
vt 0.642251 0.241200
vt 0.576455 0.241200
vt 0.688361 0.240904
vt 0.650039 0.240904
vt 0.650039 0.274831
vt 0.642251 0.241200
vt 0.576455 0.241200
vt 0.576455 0.275127
vt 0.688361 0.240904
vt 0.650039 0.240904
vt 0.650039 0.274831
vt 0.688361 0.274831
vt 0.099393 0.112509
vt 0.099393 0.059108
vt 0.054788 0.059108
vt 0.054788 0.112509
vt 0.633079 0.281701
vt 0.573212 0.281701
vt 0.633079 0.281701
vt 0.573212 0.281701
vt 0.573212 0.332927
vt 0.633079 0.281701
vt 0.573212 0.281701
vt 0.573212 0.332927
vt 0.633079 0.281701
vt 0.573212 0.281701
vt 0.573212 0.332927
vt 0.633079 0.332927
vt 0.380736 0.503433
vt 0.394250 0.444435
vt 0.394250 0.444435
vt 0.394251 0.503433
vt 0.394251 0.503433
vt 0.407529 0.444435
vn 0 6.123233995736766E-17 1
vn 0 1.0000000000612324E-06 1
vn -0.987988 -0.154533 9.462417190631896E-18
vn -0.987988 -0.154533 9.462417190631896E-18
vn -0.154723 0.987958 -6.049498011960104E-17
vn 0 1.0000000000612324E-06 1
vn 0.988092 0.153864 -0.0006520000000000095
vn 1E-06 1.0000000000612324E-06 1
vn 0 6.123233995736766E-17 1
vn 0 6.123233995736766E-17 1
vn -0 6.123233995736766E-17 1
vn 0 6.123233995736766E-17 1
vn 0.054712 0.29105000000000003 0.955142
vn 0.054712 0.29105000000000003 0.955142
vn 0.054454 0.30101900000000004 0.952062
vn -0.055165 -0.28234299999999996 0.957726
vn -0.054939 -0.29095299999999996 0.955159
vn 0.054712 0.29105000000000003 0.955142
vn 0 6.123233995736766E-17 1
vn 0 6.123233995736766E-17 1
vn 0 6.123233995736766E-17 1
vn 0 6.123233995736766E-17 1
vn -0.310352 -0.950622 5.820880947495276E-17
vn -0.310352 -0.950622 5.820880947495276E-17
vn 0.951545 -0.307511 1.8829618092630085E-17
vn 0.308078 0.951361 -5.825406017418126E-17
vn 0 6.123233995736766E-17 1
vn 0 1.0000000000612324E-06 1
vn -0.854664 -0.519182 3.179072872374606E-17
vn -0.854664 -0.519182 3.179072872374606E-17
vn -0.519347 0.854564 -5.232695336332794E-17
vn 0 1.0000000000612324E-06 1
vn 0.855014 0.518604 -0.0007250000000000317
vn 0 1.0000000000612324E-06 1
vn 0 6.123233995736766E-17 1
vn 0 6.123233995736766E-17 1
vn 0 6.123233995736766E-17 1
vn 0 6.123233995736766E-17 1
vn 0.009472 -0.999955 6.122958450206958E-17
vn 0.009472 -0.999955 6.122958450206958E-17
vn -0.999955 -0.00947 5.798702593962717E-19
vn -0.009472 0.999955 -6.122958450206958E-17
vn -0 -0.00011699999999993877 1
vn -0 -0.00011699999999993877 1
vn -0 -0.00011699999999993877 1
vn -0 -0.00011699999999993877 1
vn 0.999992 -0.003943 2.414391164519007E-19
vn 0.999992 -0.003943 2.414391164519007E-19
vn -0.002803 -0.999996 -0.0008099999999999387
vn -0.999983 0.005927 -3.6292407892731813E-19
vn 0 6.123233995736766E-17 1
vn 0 6.123233995736766E-17 1
vn 0 6.123233995736766E-17 1
vn 0 6.123233995736766E-17 1
vn -0.992764 0.120083 -7.352963079100581E-18
vn -0.992764 0.120083 -7.352963079100581E-18
vn -0.992764 0.120083 -7.352963079100581E-18
vn -0.992764 0.120083 -7.352963079100581E-18
vn -0.120078 -0.992764 6.078926274543614E-17
vn -0.120078 -0.992764 6.078926274543614E-17
vn 0.120088 0.992763 -6.078920151309619E-17
vn 0.120088 0.992763 -6.078920151309619E-17
vn -0.120078 -0.992764 6.078926274543614E-17
vn -0.120078 -0.992764 6.078926274543614E-17
vn 0.120088 0.992763 -6.078920151309619E-17
vn 0.120088 0.992763 -6.078920151309619E-17
vn 0 6.123233995736766E-17 1
vn 0 6.123233995736766E-17 1
vn 0 6.123233995736766E-17 1
vn 0 6.123233995736766E-17 1
vn 0 6.123233995736766E-17 1
vn 0 1.0000000000612324E-06 1
vn -0.987988 -0.154533 9.462417190631896E-18
vn -0.987988 -0.154533 9.462417190631896E-18
vn -0.154723 0.987958 -6.049498011960104E-17
vn 0 1.0000000000612324E-06 1
vn 0.988092 0.153864 -0.0006520000000000095
vn 1E-06 1.0000000000612324E-06 1
vn 0.036704 -0.09632899999999994 0.994673
vn 0.036705 -0.09624399999999994 0.994681
vn 0.036704 -0.09632899999999994 0.994673
vn 0.036703 -0.09641499999999995 0.994664
vn 0.00334 0.29612800000000006 0.955142
vn 0.00334 0.29612800000000006 0.955142
vn 0.001355 0.30590100000000003 0.952062
vn -0.005299 -0.28763199999999994 0.957726
vn -0.003581 -0.2960749999999999 0.955158
vn 0.00334 0.29612800000000006 0.955142
vn -0.987988 -0.154533 9.462417190631896E-18
vn -0.987988 -0.154533 9.462417190631896E-18
vn -0.154723 0.987958 -6.049498011960104E-17
vn -0.154723 0.987958 -6.049498011960104E-17
vn -0.154723 0.987958 -6.049498011960104E-17
vn 0.98804 0.154199 -0.00032600000000000944
vn 0.987988 0.154534 -9.462478422971855E-18
vn 0.98804 0.154199 -0.00032600000000000944
vn 0.153365 -0.988169 0.0013510000000000605
vn 0.154729 -0.987953 0.00270100000000006
vn 0.153365 -0.988169 0.0013510000000000605
vn 0.151999 -0.988381 6.0520881399403E-17
vn 0.054454 0.30101900000000004 0.952062
vn 0.054454 0.30101900000000004 0.952062
vn -0.054939 -0.29095299999999996 0.955159
vn -0.054939 -0.29095299999999996 0.955159
vn -0.055165 -0.28234299999999996 0.957726
vn -0.055165 -0.28234299999999996 0.957726
vn -0.310352 -0.950622 5.820880947495276E-17
vn -0.310352 -0.950622 5.820880947495276E-17
vn 0.951545 -0.307511 1.8829618092630085E-17
vn 0.951545 -0.307511 1.8829618092630085E-17
vn 0.951545 -0.307511 1.8829618092630085E-17
vn 0.308078 0.951361 -5.825406017418126E-17
vn 0.308078 0.951361 -5.825406017418126E-17
vn 0.308078 0.951361 -5.825406017418126E-17
vn -0.951084 0.308932 -1.8916629247709504E-17
vn -0.951084 0.308932 -1.8916629247709504E-17
vn -0.951084 0.308932 -1.8916629247709504E-17
vn -0.951084 0.308932 -1.8916629247709504E-17
vn -0.854664 -0.519182 3.179072872374606E-17
vn -0.854664 -0.519182 3.179072872374606E-17
vn -0.519347 0.854564 -5.232695336332794E-17
vn -0.519347 0.854564 -5.232695336332794E-17
vn -0.519347 0.854564 -5.232695336332794E-17
vn 0.854839 0.518894 -0.00036300000000003175
vn 0.854663 0.519183 -3.179078995608601E-17
vn 0.854839 0.518894 -0.00036300000000003175
vn 0.518171 -0.855276 0.0015030000000000525
vn 0.51935 -0.854556 0.0030060000000000525
vn 0.518171 -0.855276 0.0015030000000000525
vn 0.516989 -0.855992 5.2414393144787055E-17
vn 0.009472 -0.999955 6.122958450206958E-17
vn 0.009472 -0.999955 6.122958450206958E-17
vn -0.999955 -0.00947 5.798702593962717E-19
vn -0.999955 -0.00947 5.798702593962717E-19
vn -0.999955 -0.00947 5.798702593962717E-19
vn -0.009472 0.999955 -6.122958450206958E-17
vn -0.009472 0.999955 -6.122958450206958E-17
vn -0.009472 0.999955 -6.122958450206958E-17
vn 0.999955 0.00947 -5.798702593962717E-19
vn 0.999955 0.009471 -5.799314917362292E-19
vn 0.999955 0.00947 -5.798702593962717E-19
vn 0.999955 0.00947 -1.0000000000005797E-06
vn 0.999992 -0.003943 2.414391164519007E-19
vn 0.999992 -0.003943 2.414391164519007E-19
vn -0.002545 -0.999997 -0.0004049999999999387
vn -0.002286 -0.999997 6.123215626034779E-17
vn -0.002545 -0.999997 -0.0004049999999999387
vn -0.999985 0.004934 0.0021889999999999995
vn -0.999983 0.003942 0.004378
vn -0.999985 0.004934 0.0021889999999999995
vn 0.002287 0.999997 -6.123215626034779E-17
vn 0.002287 0.999997 -6.123215626034779E-17
vn 0.002287 0.999997 -6.123215626034779E-17
vn 0.002287 0.999997 -6.123215626034779E-17
vn 0.992764 -0.120085 7.353085543780495E-18
vn 0.992764 -0.120085 7.353085543780495E-18
vn 0.992764 -0.120085 7.353085543780495E-18
vn 0.992764 -0.120085 7.353085543780495E-18
vn -0.987988 -0.154533 9.462417190631896E-18
vn -0.987988 -0.154533 9.462417190631896E-18
vn -0.154723 0.987958 -6.049498011960104E-17
vn -0.154723 0.987958 -6.049498011960104E-17
vn -0.154723 0.987958 -6.049498011960104E-17
vn 0.98804 0.154199 -0.00032600000000000944
vn 0.987988 0.154534 -9.462478422971855E-18
vn 0.98804 0.154199 -0.00032600000000000944
vn 0.153365 -0.988169 0.0013510000000000605
vn 0.154729 -0.987953 0.00270100000000006
vn 0.153365 -0.988169 0.0013510000000000605
vn 0.151999 -0.988381 6.0520881399403E-17
vn 0.001355 0.30590100000000003 0.952062
vn 0.001355 0.30590100000000003 0.952062
vn -0.003581 -0.2960749999999999 0.955158
vn -0.003581 -0.2960749999999999 0.955158
vn -0.005299 -0.28763199999999994 0.957726
vn -0.005299 -0.28763199999999994 0.957726
g 01++
f 176/176/176 86/86/86 175/175/175
f 174/174/174 173/173/173 87/87/87
f 172/172/172 85/85/85 171/171/171
f 84/84/84 83/83/83 88/88/88
f 81/81/81 80/80/80 79/79/79
f 79/79/79 82/82/82 81/81/81
f 167/167/167 170/170/170 169/169/169
f 169/169/169 168/168/168 167/167/167
f 164/164/164 77/77/77 166/166/166
f 166/166/166 165/165/165 164/164/164
f 161/161/161 75/75/75 163/163/163
f 163/163/163 162/162/162 161/161/161
f 159/159/159 73/73/73 74/74/74
f 74/74/74 160/160/160 159/159/159
f 72/72/72 71/71/71 76/76/76
f 76/76/76 78/78/78 72/72/72
f 69/69/69 68/68/68 67/67/67
f 67/67/67 70/70/70 69/69/69
f 155/155/155 158/158/158 157/157/157
f 157/157/157 156/156/156 155/155/155
f 65/65/65 61/61/61 62/62/62
f 62/62/62 66/66/66 65/65/65
f 64/64/64 60/60/60 59/59/59
f 59/59/59 63/63/63 64/64/64
f 58/58/58 56/56/56 55/55/55
f 55/55/55 57/57/57 58/58/58
f 54/54/54 52/52/52 51/51/51
f 51/51/51 53/53/53 54/54/54
f 151/151/151 154/154/154 153/153/153
f 153/153/153 152/152/152 151/151/151
f 148/148/148 50/50/50 150/150/150
f 150/150/150 149/149/149 148/148/148
f 145/145/145 49/49/49 147/147/147
f 147/147/147 146/146/146 145/145/145
f 143/143/143 48/48/48 47/47/47
f 47/47/47 144/144/144 143/143/143
f 45/45/45 44/44/44 43/43/43
f 43/43/43 46/46/46 45/45/45
f 139/139/139 142/142/142 141/141/141
f 141/141/141 140/140/140 139/139/139
f 136/136/136 42/42/42 138/138/138
f 138/138/138 137/137/137 136/136/136
f 133/133/133 41/41/41 135/135/135
f 135/135/135 134/134/134 133/133/133
f 131/131/131 40/40/40 39/39/39
f 39/39/39 132/132/132 131/131/131
f 35/35/35 38/38/38 37/37/37
f 37/37/37 36/36/36 35/35/35
f 127/127/127 130/130/130 129/129/129
f 129/129/129 128/128/128 127/127/127
f 124/124/124 33/33/33 126/126/126
f 126/126/126 125/125/125 124/124/124
f 121/121/121 31/31/31 123/123/123
f 123/123/123 122/122/122 121/121/121
f 119/119/119 29/29/29 30/30/30
f 30/30/30 120/120/120 119/119/119
f 28/28/28 27/27/27 32/32/32
f 32/32/32 34/34/34 28/28/28
f 115/115/115 118/118/118 117/117/117
f 117/117/117 116/116/116 115/115/115
f 112/112/112 114/114/114 113/113/113
f 113/113/113 26/26/26 112/112/112
f 109/109/109 111/111/111 110/110/110
f 110/110/110 25/25/25 109/109/109
f 107/107/107 108/108/108 23/23/23
f 23/23/23 24/24/24 107/107/107
f 21/21/21 20/20/20 19/19/19
f 19/19/19 22/22/22 21/21/21
f 106/106/106 16/16/16 105/105/105
f 104/104/104 103/103/103 17/17/17
f 102/102/102 15/15/15 101/101/101
f 14/14/14 13/13/13 18/18/18
f 10/10/10 9/9/9 12/12/12
f 12/12/12 11/11/11 10/10/10
f 97/97/97 100/100/100 99/99/99
f 99/99/99 98/98/98 97/97/97
f 94/94/94 7/7/7 96/96/96
f 96/96/96 95/95/95 94/94/94
f 91/91/91 5/5/5 93/93/93
f 93/93/93 92/92/92 91/91/91
f 89/89/89 3/3/3 4/4/4
f 4/4/4 90/90/90 89/89/89
f 2/2/2 1/1/1 6/6/6
f 6/6/6 8/8/8 2/2/2
