v -0.15911 -0.0003289999999999717 0.462296
v 0.163315 0.0009510000000000283 0.462296
v 0.163315 0.0009510000000000283 0.462296
v -0.15911 -0.0003289999999999717 0.462296
v -0.160027 0.23063000000000003 0.40041
v 0.162399 0.23191000000000003 0.40041
v -0.160698 0.399704 0.23133499999999999
v 0.161728 0.400983 0.23133499999999999
v -0.160944 0.461589 0.00037399999999997174
v 0.161482 0.462868 0.00037399999999997163
v 0.161482 0.462868 0.00037399999999997163
v -0.160944 0.461589 0.00037399999999997174
v -0.130286 -0.224614 0.00037400000000001375
v -0.130405 -0.194551 0.11257300000000002
v -0.130731 -0.11241599999999999 0.194708
v -0.131177 -0.00021799999999998624 0.224772
v -0.131622 0.11197900000000001 0.194708
v -0.131948 0.194114 0.11257299999999999
v -0.132067 0.224177 0.00037399999999998627
v -0.131948 0.194114 -0.11182400000000002
v -0.131622 0.11197899999999998 -0.193959
v -0.131177 -0.00021800000000001373 -0.224023
v -0.130731 -0.11241600000000002 -0.193959
v -0.130405 -0.194551 -0.11182399999999999
v -0.14982 -0.19670899999999997 0.411238
v -0.151328 0.256067 -0.37236
v -0.149585 -0.255851 0.377091
v -0.151093 0.19692499999999996 -0.406507
v -0.15118 0.256016 0.378204
v -0.149827 -0.19705800000000004 -0.41009
v -0.150945 0.19687400000000002 0.41235
v -0.149592 -0.256201 -0.375944
v -0.15203 0.451384 -0.03376900000000003
v -0.148974 -0.454394 -0.03377599999999997
v -0.15203 0.451384 0.03452299999999997
v -0.148974 -0.454394 0.03451700000000003
v -0.311709 -0.112427 0.064744
v -0.237084 -0.112131 0.064744
v -0.311895 -0.065305 0.111866
v -0.237271 -0.065009 0.111866
v -0.312407 0.063432 0.111866
v -0.237782 0.063728 0.111866
v -0.312593 0.110553 0.064744
v -0.237969 0.11085 0.064744
v -0.312594 0.110553 -0.063995
v -0.237969 0.11085 -0.063995
v -0.312407 0.063432 -0.111117
v -0.237782 0.063728 -0.111117
v -0.311895 -0.065305 -0.111116
v -0.237271 -0.06501 -0.111117
v -0.311709 -0.112427 -0.063995
v -0.237084 -0.112131 -0.063995
v 0.161728 0.400983 -0.23058600000000004
v 0.162399 0.23190999999999998 -0.399661
v 0.163315 0.0009509999999999717 -0.461547
v 0.164232 -0.23000800000000002 -0.399661
v 0.164903 -0.399082 -0.23058599999999999
v 0.165148 -0.460967 0.00037500000000002825
v 0.164903 -0.399082 0.23133500000000004
v 0.164232 -0.23000799999999996 0.40041
v 0.152307 -0.19550999999999996 0.411238
v 0.150799 0.257266 -0.37236
v 0.152542 -0.254652 0.377091
v 0.151034 0.19812399999999997 -0.406507
v 0.150948 0.257216 0.378204
v 0.152301 -0.19585900000000003 -0.41009
v 0.151182 0.19807300000000003 0.41235
v 0.152535 -0.255002 -0.375944
v 0.150098 0.452584 -0.03376900000000003
v 0.153153 -0.453195 -0.03377599999999997
v 0.150098 0.452584 0.03452299999999997
v 0.153153 -0.453195 0.03451700000000003
v -0.160698 0.399704 -0.23058600000000004
v -0.160027 0.23062999999999997 -0.399661
v -0.15911 -0.0003290000000000282 -0.461547
v -0.158194 -0.23128900000000002 -0.399661
v -0.157522 -0.400362 -0.23058599999999999
v -0.157277 -0.462247 0.0003750000000000283
v -0.157522 -0.400362 0.23133500000000004
v -0.158194 -0.23128899999999997 0.40041
v 0.135099 -0.223561 0.0003740000000000137
v 0.13498 -0.193497 0.11257300000000002
v 0.134654 -0.11136299999999999 0.194708
v 0.134208 0.0008350000000000138 0.224772
v 0.133763 0.11303300000000001 0.194708
v 0.133437 0.195167 0.11257299999999999
v 0.133318 0.225231 0.0003739999999999862
v 0.133437 0.195167 -0.11182400000000002
v 0.133763 0.11303299999999998 -0.193959
v 0.134208 0.0008349999999999863 -0.224023
v 0.134653 -0.11136300000000002 -0.193959
v 0.134979 -0.193497 -0.11182399999999999
v -0.160027 0.23063000000000003 0.40041
v 0.162399 0.23191000000000003 0.40041
v -0.160698 0.399704 0.23133499999999999
v 0.161728 0.400983 0.23133499999999999
v 0.161728 0.400983 -0.23058600000000004
v 0.162399 0.23190999999999998 -0.399661
v 0.163315 0.0009509999999999717 -0.461547
v 0.164232 -0.23000800000000002 -0.399661
v 0.164903 -0.399082 -0.23058599999999999
v 0.165148 -0.460967 0.00037500000000002825
v 0.164903 -0.399082 0.23133500000000004
v 0.164232 -0.23000799999999996 0.40041
v -0.160698 0.399704 -0.23058600000000004
v -0.160027 0.23062999999999997 -0.399661
v -0.15911 -0.0003290000000000282 -0.461547
v -0.158194 -0.23128900000000002 -0.399661
v -0.157522 -0.400362 -0.23058599999999999
v -0.157277 -0.462247 0.0003750000000000283
v -0.157522 -0.400362 0.23133500000000004
v -0.158194 -0.23128899999999997 0.40041
v 0.161728 0.400983 0.23133499999999999
v -0.160698 0.399704 0.23133499999999999
v -0.237084 -0.112131 0.064744
v -0.311709 -0.112427 0.064744
v -0.312594 0.110553 -0.063995
v -0.312593 0.110553 0.064744
v -0.312407 0.063432 0.111866
v -0.311895 -0.065305 0.111866
v -0.311709 -0.112427 0.064744
v -0.311709 -0.112427 -0.063995
v -0.311895 -0.065305 -0.111116
v -0.312407 0.063432 -0.111117
v -0.160944 0.461589 0.00037399999999997174
v 0.161482 0.462868 0.00037399999999997163
v 0.162399 0.23190999999999998 -0.399661
v -0.160027 0.23062999999999997 -0.399661
v -0.15911 -0.0003290000000000282 -0.461547
v 0.163315 0.0009509999999999717 -0.461547
v 0.164903 -0.399082 -0.23058599999999999
v -0.157522 -0.400362 -0.23058599999999999
v -0.157277 -0.462247 0.0003750000000000283
v 0.165148 -0.460967 0.00037500000000002825
v 0.163315 0.0009510000000000283 0.462296
v -0.15911 -0.0003289999999999717 0.462296
v 0.164232 -0.23000799999999996 0.40041
v -0.158194 -0.23128899999999997 0.40041
vt 0.352323 0.528586
vt 0.352323 0.625995
vt 0.400843 0.633975
vt 0.400843 0.764506
vt 0.385954 0.528586
vt 0.385954 0.625995
vt 0.419585 0.528586
vt 0.419585 0.625995
vt 0.453216 0.528586
vt 0.453216 0.625995
vt 0.400843 0.633975
vt 0.400843 0.764506
vt 0.543259 0.680374
vt 0.547792 0.646477
vt 0.560177 0.621662
vt 0.577095 0.612579
vt 0.594013 0.621662
vt 0.606399 0.646477
vt 0.610933 0.680374
vt 0.606399 0.714271
vt 0.594013 0.739085
vt 0.577095 0.748168
vt 0.560177 0.739085
vt 0.547792 0.714271
vt 0.548675 0.561116
vt 0.614434 0.789316
vt 0.539757 0.571432
vt 0.605515 0.799631
vt 0.614434 0.571432
vt 0.548675 0.799631
vt 0.605515 0.561116
vt 0.539757 0.789316
vt 0.642855 0.690690
vt 0.511337 0.690690
vt 0.642855 0.670057
vt 0.511337 0.670057
vt 0.976839 0.632383
vt 0.988092 0.632383
vt 0.976839 0.410920
vt 0.988092 0.410920
vt 0.976839 0.451187
vt 0.988092 0.451187
vt 0.976839 0.471319
vt 0.988092 0.471319
vt 0.976839 0.511586
vt 0.988092 0.511586
vt 0.976839 0.531717
vt 0.988092 0.531717
vt 0.976839 0.571985
vt 0.988092 0.571985
vt 0.976839 0.592116
vt 0.988092 0.592116
vt 0.385954 0.625995
vt 0.419585 0.625995
vt 0.453216 0.625995
vt 0.385954 0.625995
vt 0.419585 0.625995
vt 0.453216 0.625995
vt 0.385954 0.625995
vt 0.419585 0.625995
vt 0.605515 0.561116
vt 0.539757 0.789316
vt 0.614434 0.571432
vt 0.548675 0.799631
vt 0.539757 0.571432
vt 0.605515 0.799631
vt 0.548675 0.561116
vt 0.614434 0.789316
vt 0.511337 0.690690
vt 0.642854 0.690690
vt 0.511337 0.670057
vt 0.642854 0.670057
vt 0.385954 0.528586
vt 0.419585 0.528586
vt 0.453216 0.528586
vt 0.385954 0.528586
vt 0.419585 0.528586
vt 0.453216 0.528586
vt 0.385954 0.528586
vt 0.419585 0.528586
vt 0.610933 0.680374
vt 0.606399 0.646477
vt 0.594013 0.621662
vt 0.577095 0.612579
vt 0.560177 0.621662
vt 0.547792 0.646477
vt 0.543259 0.680374
vt 0.547792 0.714271
vt 0.560177 0.739085
vt 0.577095 0.748168
vt 0.594013 0.739085
vt 0.606399 0.714271
vt 0.449157 0.764506
vt 0.449157 0.633975
vt 0.497470 0.764506
vt 0.497470 0.633975
vt 0.449157 0.633975
vt 0.497470 0.633975
vt 0.400843 0.633975
vt 0.449157 0.633975
vt 0.497470 0.633975
vt 0.400843 0.633975
vt 0.449157 0.633975
vt 0.497470 0.633975
vt 0.449157 0.764506
vt 0.497470 0.764506
vt 0.400843 0.764506
vt 0.449157 0.764506
vt 0.497470 0.764506
vt 0.400843 0.764506
vt 0.449157 0.764506
vt 0.497470 0.764506
vt 0.352529 0.633975
vt 0.352529 0.764506
vt 0.988092 0.390788
vt 0.976839 0.390788
vt 0.820944 0.512475
vt 0.825969 0.550044
vt 0.834671 0.560110
vt 0.853423 0.550044
vt 0.858446 0.532608
vt 0.853423 0.495039
vt 0.844720 0.484973
vt 0.825969 0.495039
vt 0.352323 0.528586
vt 0.352323 0.625995
vt 0.352529 0.633975
vt 0.352529 0.764506
vt 0.352323 0.528586
vt 0.352323 0.625995
vt 0.352529 0.633975
vt 0.352529 0.764506
vt 0.352323 0.528586
vt 0.352323 0.625995
vt 0.453216 0.625995
vt 0.453216 0.528586
vt 0.352529 0.633975
vt 0.352529 0.764506
vn 0.000353 -0.08896200000000005 -0.996035
vn -0.000353 0.08896099999999994 -0.996035
vn -0.000353 0.08896100000000005 0.996035
vn 0.000353 -0.08896099999999994 0.996035
vn 0.002283 -0.575056 -0.818111
vn 0.001671 -0.42097000000000007 -0.907073
vn 0.0036 -0.907066 -0.42097399999999996
vn 0.003247 -0.818104 -0.575061
vn 0.003953 -0.996027 0.08896200000000005
vn 0.003953 -0.996027 -0.08896199999999994
vn -0.003953 0.996027 -0.08896200000000005
vn -0.003953 0.996027 0.08896199999999994
vn -0.999992 -0.003967 2.4290869261087753E-19
vn -0.999992 -0.003965 -3.999999999999757E-06
vn -0.999992 -0.003967 -9.99999999999757E-07
vn -0.999992 -0.003969 3.000000000000243E-06
vn -0.999992 -0.003969 2.4303115729079227E-19
vn -0.999992 -0.003972 -1.999999999999757E-06
vn -0.999992 -0.00397 2.430923896307496E-19
vn -0.999992 -0.003971 2.000000000000243E-06
vn -0.999992 -0.003969 2.4303115729079227E-19
vn -0.999992 -0.003968 -2.999999999999757E-06
vn -0.999992 -0.003967 1.0000000000002428E-06
vn -0.999992 -0.003965 4.000000000000243E-06
vn -0.999993 -0.003812 -0.00027799999999999976
vn -0.999993 -0.003814 -0.0002789999999999998
vn -0.999993 -0.003809 -0.0002769999999999998
vn -0.999993 -0.003812 -0.00027799999999999976
vn -0.999993 -0.003727 0.0004250000000000002
vn -0.999993 -0.003724 0.0004240000000000002
vn -0.999993 -0.003729 0.00042700000000000024
vn -0.999993 -0.003727 0.0004250000000000002
vn -0.999994 -0.003373 2.0653668267620112E-19
vn -0.999994 -0.003373 2.0653668267620112E-19
vn -0.999994 -0.003373 2.0653668267620112E-19
vn -0.999994 -0.003373 2.0653668267620112E-19
vn 0.003424 -0.862849 0.505451
vn 0.00384 -0.96753 0.25272500000000003
vn 0.001003 -0.25272199999999995 0.967538
vn 0.002006 -0.505444 0.862857
vn -0.002007 0.505444 0.862857
vn -0.001003 0.25272200000000006 0.967538
vn -0.003843 0.967531 0.2527249999999999
vn -0.003426 0.862849 0.505451
vn -0.003428 0.862849 -0.505451
vn -0.003844 0.96753 -0.25272600000000006
vn -0.001004 0.2527229999999999 -0.967538
vn -0.002008 0.505445 -0.862857
vn 0.002004 -0.505445 -0.862857
vn 0.001001 -0.25272300000000003 -0.967538
vn 0.00384 -0.96753 -0.25272599999999995
vn 0.003423 -0.862849 -0.50545
vn 0.0036 -0.907066 0.42097400000000007
vn 0.002283 -0.575056 0.818111
vn 0.000353 -0.08896199999999994 0.996035
vn -0.001671 0.42097100000000004 0.907073
vn -0.003248 0.818104 0.575061
vn -0.003953 0.996027 0.08896199999999994
vn -0.0036 0.907066 -0.42097400000000007
vn -0.002283 0.575057 -0.81811
vn 0.999993 0.003808 0.00027599999999999977
vn 0.999993 0.003809 0.0002769999999999998
vn 0.999993 0.003807 0.00027599999999999977
vn 0.999993 0.003808 0.00027599999999999977
vn 0.999993 0.003723 -0.0004240000000000002
vn 0.999993 0.003722 -0.0004230000000000002
vn 0.999993 0.003725 -0.0004250000000000002
vn 0.999993 0.003723 -0.0004240000000000002
vn 0.999994 0.003373 -2.0653668267620112E-19
vn 0.999994 0.003373 -2.0653668267620112E-19
vn 0.999994 0.003373 -2.0653668267620112E-19
vn 0.999994 0.003373 -2.0653668267620112E-19
vn 0.003247 -0.818104 0.575061
vn 0.001671 -0.42096999999999996 0.907073
vn -0.000353 0.08896100000000005 0.996035
vn -0.002283 0.575057 0.81811
vn -0.0036 0.907066 0.42097399999999996
vn -0.003953 0.996027 -0.08896200000000005
vn -0.003248 0.818104 -0.575061
vn -0.001671 0.42097099999999993 -0.907073
vn 0.999992 0.003964 -2.0000000000002426E-06
vn 0.999992 0.003969 -2.000000000000243E-06
vn 0.999992 0.003971 -2.000000000000243E-06
vn 0.999992 0.003971 -2.4315362197070695E-19
vn 0.999992 0.003971 1.999999999999757E-06
vn 0.999992 0.003966 9.99999999999757E-07
vn 0.999992 0.003958 -2.423576015512612E-19
vn 0.999992 0.003968 -2.4296992495083487E-19
vn 0.999992 0.003972 -2.000000000000243E-06
vn 0.999992 0.003969 -1.000000000000243E-06
vn 0.999992 0.003967 -2.000000000000243E-06
vn 0.999992 0.003968 -1.0000000000002428E-06
vn -0.001671 0.42097000000000007 0.907073
vn -0.002283 0.575056 0.818111
vn -0.003247 0.818104 0.575061
vn -0.0036 0.907066 0.42097299999999993
vn -0.003247 0.818104 -0.575061
vn -0.001671 0.42097099999999993 -0.907073
vn 0.000353 -0.08896100000000005 -0.996035
vn 0.002283 -0.575057 -0.81811
vn 0.0036 -0.907066 -0.42097399999999996
vn 0.003953 -0.996027 0.08896200000000005
vn 0.003248 -0.818104 0.575061
vn 0.001671 -0.42096999999999996 0.907073
vn -0.0036 0.907066 -0.42097400000000007
vn -0.002283 0.575056 -0.818111
vn -0.000353 0.08896199999999994 -0.996035
vn 0.001671 -0.42097100000000004 -0.907073
vn 0.003248 -0.818104 -0.575061
vn 0.003953 -0.996027 -0.08896199999999994
vn 0.0036 -0.907066 0.42097400000000007
vn 0.002283 -0.575057 0.818111
vn -0.0036 0.907066 0.42097299999999993
vn -0.003247 0.818104 0.575061
vn 0.00384 -0.96753 0.25272500000000003
vn 0.003424 -0.862849 0.505451
vn -0.999992 -0.003965 1.0000000000002428E-06
vn -0.999992 -0.00396 3.0000000000002428E-06
vn -0.999992 -0.003968 1.0000000000002428E-06
vn -0.999992 -0.003967 1.0000000000002428E-06
vn -0.999992 -0.003963 2.4266376325104806E-19
vn -0.999992 -0.003969 -1.999999999999757E-06
vn -0.999992 -0.003972 -8.999999999999756E-06
vn -0.999992 -0.003971 -2.999999999999757E-06
vn 0.003953 -0.996027 0.08896200000000005
vn 0.003953 -0.996027 -0.08896199999999994
vn -0.001671 0.42097099999999993 -0.907073
vn -0.002283 0.575056 -0.818111
vn -0.000353 0.08896100000000005 0.996035
vn 0.000353 -0.08896199999999994 0.996035
vn 0.0036 -0.907066 -0.42097399999999996
vn 0.003248 -0.818104 -0.575061
vn -0.003953 0.996027 -0.08896200000000005
vn -0.003953 0.996027 0.08896199999999994
vn -0.000353 0.08896099999999994 -0.996035
vn 0.000353 -0.08896200000000005 -0.996035
vn 0.001671 -0.42096999999999996 0.907073
vn 0.002283 -0.575057 0.818111
g 01
f 72/72/72 70/70/70 69/69/69
f 69/69/69 71/71/71 72/72/72
f 68/68/68 66/66/66 65/65/65
f 65/65/65 67/67/67 68/68/68
f 64/64/64 62/62/62 61/61/61
f 61/61/61 63/63/63 64/64/64
f 89/89/89 88/88/88 90/90/90
f 88/88/88 92/92/92 90/90/90
f 88/88/88 84/84/84 92/92/92
f 88/88/88 86/86/86 84/84/84
f 88/88/88 87/87/87 86/86/86
f 86/86/86 85/85/85 84/84/84
f 84/84/84 82/82/82 92/92/92
f 84/84/84 83/83/83 82/82/82
f 82/82/82 81/81/81 92/92/92
f 92/92/92 91/91/91 90/90/90
f 4/4/4 138/138/138 137/137/137
f 137/137/137 3/3/3 4/4/4
f 135/135/135 60/60/60 80/80/80
f 80/80/80 136/136/136 135/135/135
f 112/112/112 111/111/111 103/103/103
f 103/103/103 104/104/104 112/112/112
f 60/60/60 59/59/59 79/79/79
f 79/79/79 80/80/80 60/60/60
f 111/111/111 110/110/110 102/102/102
f 102/102/102 103/103/103 111/111/111
f 59/59/59 134/134/134 133/133/133
f 133/133/133 79/79/79 59/59/59
f 110/110/110 132/132/132 131/131/131
f 131/131/131 102/102/102 110/110/110
f 58/58/58 57/57/57 77/77/77
f 77/77/77 78/78/78 58/58/58
f 109/109/109 108/108/108 100/100/100
f 100/100/100 101/101/101 109/109/109
f 57/57/57 56/56/56 76/76/76
f 76/76/76 77/77/77 57/57/57
f 108/108/108 107/107/107 99/99/99
f 99/99/99 100/100/100 108/108/108
f 56/56/56 130/130/130 129/129/129
f 129/129/129 76/76/76 56/56/56
f 107/107/107 128/128/128 127/127/127
f 127/127/127 99/99/99 107/107/107
f 55/55/55 54/54/54 74/74/74
f 74/74/74 75/75/75 55/55/55
f 106/106/106 105/105/105 97/97/97
f 97/97/97 98/98/98 106/106/106
f 54/54/54 53/53/53 73/73/73
f 73/73/73 74/74/74 54/54/54
f 105/105/105 12/12/12 11/11/11
f 11/11/11 97/97/97 105/105/105
f 53/53/53 126/126/126 125/125/125
f 125/125/125 73/73/73 53/53/53
f 124/124/124 119/119/119 117/117/117
f 124/124/124 122/122/122 119/119/119
f 124/124/124 123/123/123 122/122/122
f 122/122/122 120/120/120 119/119/119
f 122/122/122 121/121/121 120/120/120
f 119/119/119 118/118/118 117/117/117
f 52/52/52 51/51/51 49/49/49
f 49/49/49 50/50/50 52/52/52
f 47/47/47 48/48/48 50/50/50
f 50/50/50 49/49/49 47/47/47
f 48/48/48 47/47/47 45/45/45
f 45/45/45 46/46/46 48/48/48
f 43/43/43 44/44/44 46/46/46
f 46/46/46 45/45/45 43/43/43
f 44/44/44 43/43/43 41/41/41
f 41/41/41 42/42/42 44/44/44
f 39/39/39 40/40/40 42/42/42
f 42/42/42 41/41/41 39/39/39
f 40/40/40 39/39/39 116/116/116
f 116/116/116 115/115/115 40/40/40
f 38/38/38 37/37/37 51/51/51
f 51/51/51 52/52/52 38/38/38
f 36/36/36 35/35/35 33/33/33
f 33/33/33 34/34/34 36/36/36
f 32/32/32 31/31/31 29/29/29
f 29/29/29 30/30/30 32/32/32
f 28/28/28 27/27/27 25/25/25
f 25/25/25 26/26/26 28/28/28
f 16/16/16 17/17/17 15/15/15
f 17/17/17 13/13/13 15/15/15
f 17/17/17 21/21/21 13/13/13
f 17/17/17 19/19/19 21/21/21
f 17/17/17 18/18/18 19/19/19
f 19/19/19 20/20/20 21/21/21
f 21/21/21 23/23/23 13/13/13
f 21/21/21 22/22/22 23/23/23
f 23/23/23 24/24/24 13/13/13
f 13/13/13 14/14/14 15/15/15
f 12/12/12 114/114/114 113/113/113
f 113/113/113 11/11/11 12/12/12
f 10/10/10 8/8/8 7/7/7
f 7/7/7 9/9/9 10/10/10
f 95/95/95 93/93/93 94/94/94
f 94/94/94 96/96/96 95/95/95
f 8/8/8 6/6/6 5/5/5
f 5/5/5 7/7/7 8/8/8
f 93/93/93 4/4/4 3/3/3
f 3/3/3 94/94/94 93/93/93
f 6/6/6 2/2/2 1/1/1
f 1/1/1 5/5/5 6/6/6
