v -0.035028 0.01405899999999999 -0.174465
v 0.036591 0.010305999999999989 -0.174465
v -0.023556 -0.02875500000000001 -0.174465
v -0.035028 0.014059000000000007 0.115736
v 0.036591 0.010306000000000006 0.115736
v -0.023556 -0.028754999999999992 0.115736
v -0.120494 -0.031784999999999994 0.114248
v -0.116454 0.04531600000000001 0.114248
v -0.067866 0.10531600000000002 0.114248
v 0.00671 0.125299 0.11424799999999999
v 0.078788 0.09763000000000001 0.114248
v 0.120837 0.032880000000000006 0.114248
v 0.116797 -0.044220999999999996 0.114248
v 0.068209 -0.10422099999999998 0.114248
v -0.006366 -0.12420399999999998 0.11424800000000002
v -0.078445 -0.09653599999999998 0.114248
v -0.120494 -0.03178499999999999 0.234132
v -0.116454 0.045316000000000016 0.234132
v -0.067866 0.10531600000000002 0.234132
v 0.00671 0.12529900000000002 0.234132
v 0.078788 0.09763000000000001 0.234132
v 0.120837 0.03288000000000001 0.234132
v 0.116797 -0.04422099999999999 0.234132
v 0.068209 -0.10422099999999998 0.234132
v -0.006366 -0.12420399999999998 0.234132
v -0.078445 -0.09653599999999998 0.234132
v 0.036591 0.010306000000000006 0.115736
v 0.036591 0.010305999999999989 -0.174465
v 0.116797 -0.04422099999999999 0.234132
v 0.116797 -0.044220999999999996 0.114248
v 0.00671 0.12529900000000002 0.234132
v 0.078788 0.09763000000000001 0.234132
v 0.120837 0.03288000000000001 0.234132
v 0.116797 -0.04422099999999999 0.234132
v 0.068209 -0.10422099999999998 0.234132
v -0.006366 -0.12420399999999998 0.234132
v -0.078445 -0.09653599999999998 0.234132
v -0.120494 -0.03178499999999999 0.234132
v -0.116454 0.045316000000000016 0.234132
v -0.067866 0.10531600000000002 0.234132
v -0.035028 0.014059000000000007 0.115736
v -0.035028 0.014059000000000007 0.115736
v -0.035028 0.01405899999999999 -0.174465
v -0.023556 -0.02875500000000001 -0.174465
v -0.023556 -0.028754999999999992 0.115736
v -0.023556 -0.02875500000000001 -0.174465
vt 0.908464 0.987455
vt 0.922519 0.987455
vt 0.901436 0.987455
vt 0.908464 0.899781
vt 0.922519 0.899781
vt 0.901436 0.899781
vt 0.132289 0.131243
vt 0.143931 0.131243
vt 0.155572 0.131243
vt 0.167216 0.131243
vt 0.178857 0.131243
vt 0.190498 0.131243
vt 0.202140 0.131243
vt 0.097362 0.131243
vt 0.109004 0.131243
vt 0.120648 0.131243
vt 0.132289 0.095024
vt 0.143931 0.095024
vt 0.155572 0.095024
vt 0.167216 0.095024
vt 0.178857 0.095024
vt 0.190498 0.095024
vt 0.202140 0.095024
vt 0.097362 0.095024
vt 0.109004 0.095024
vt 0.120648 0.095024
vt 0.888052 0.899781
vt 0.888052 0.987455
vt 0.085721 0.095024
vt 0.085721 0.131243
vt 0.742638 0.445512
vt 0.739041 0.423328
vt 0.729623 0.409618
vt 0.717981 0.409618
vt 0.708562 0.423329
vt 0.704963 0.445512
vt 0.708562 0.467696
vt 0.717981 0.481405
vt 0.729623 0.481405
vt 0.739041 0.467696
vt 0.908464 0.899781
vt 0.908464 0.899781
vt 0.908464 0.987455
vt 0.901436 0.987455
vt 0.901436 0.899781
vt 0.901436 0.987455
vn -0.96878 0.247922 -1.5180844186910504E-17
vn 0.488891 0.872345 -5.341572560010989E-17
vn 0.063581 -0.997977 6.11084669336339E-17
vn -0.443926 0.896064 -5.486809547155869E-17
vn 0.859565 -0.511027 3.129137899139372E-17
vn -0.715026 -0.699098 4.280740639951582E-17
vn -0.988179 -0.153307 9.387346341844163E-18
vn -0.889564 0.45681 -2.797154521592512E-17
vn -0.451167 0.89244 -5.46461894715532E-17
vn 0.159561 0.987188 -6.044783121783386E-17
vn 0.709342 0.704864 -4.316047207171E-17
vn 0.988179 0.153307 -9.387346341844163E-18
vn 0.889564 -0.45681 2.797154521592512E-17
vn 0.451167 -0.89244 5.46461894715532E-17
vn -0.159561 -0.987188 6.044783121783386E-17
vn -0.709342 -0.704864 4.316047207171E-17
vn -0.932441 -0.361322 2.2124591538075996E-17
vn -0.966741 0.255759 -1.5660722035156397E-17
vn -0.631777 0.77515 -4.7464248317953545E-17
vn -0.055498 0.998459 -6.113798092149336E-17
vn 0.541981 0.840391 -5.1459107409112164E-17
vn 0.932441 0.361322 -2.2124591538075996E-17
vn 0.966741 -0.255759 1.5660722035156397E-17
vn 0.631777 -0.77515 4.7464248317953545E-17
vn 0.055498 -0.998459 6.113798092149336E-17
vn -0.541981 -0.840391 5.1459107409112164E-17
vn 0.859565 -0.511027 3.129137899139372E-17
vn 0.488891 0.872345 -5.341572560010989E-17
vn 0.966741 -0.255759 1.5660722035156397E-17
vn 0.889564 -0.45681 2.797154521592512E-17
vn 0 6.123233995736766E-17 1
vn 0 6.123233995736766E-17 1
vn 0 6.123233995736766E-17 1
vn 0 6.123233995736766E-17 1
vn 0 6.123233995736766E-17 1
vn 0 6.123233995736766E-17 1
vn 0 6.123233995736766E-17 1
vn 0 6.123233995736766E-17 1
vn 0 6.123233995736766E-17 1
vn 0 6.123233995736766E-17 1
vn -0.443926 0.896064 -5.486809547155869E-17
vn -0.443926 0.896064 -5.486809547155869E-17
vn -0.96878 0.247922 -1.5180844186910504E-17
vn 0.063581 -0.997977 6.11084669336339E-17
vn -0.715026 -0.699098 4.280740639951582E-17
vn 0.063581 -0.997977 6.11084669336339E-17
g 01
f 40/40/40 39/39/39 31/31/31
f 39/39/39 37/37/37 31/31/31
f 39/39/39 38/38/38 37/37/37
f 37/37/37 33/33/33 31/31/31
f 37/37/37 35/35/35 33/33/33
f 37/37/37 36/36/36 35/35/35
f 35/35/35 34/34/34 33/33/33
f 33/33/33 32/32/32 31/31/31
f 17/17/17 7/7/7 16/16/16
f 16/16/16 26/26/26 17/17/17
f 26/26/26 16/16/16 15/15/15
f 15/15/15 25/25/25 26/26/26
f 25/25/25 15/15/15 14/14/14
f 14/14/14 24/24/24 25/25/25
f 24/24/24 14/14/14 30/30/30
f 30/30/30 29/29/29 24/24/24
f 23/23/23 13/13/13 12/12/12
f 12/12/12 22/22/22 23/23/23
f 22/22/22 12/12/12 11/11/11
f 11/11/11 21/21/21 22/22/22
f 21/21/21 11/11/11 10/10/10
f 10/10/10 20/20/20 21/21/21
f 20/20/20 10/10/10 9/9/9
f 9/9/9 19/19/19 20/20/20
f 19/19/19 9/9/9 8/8/8
f 8/8/8 18/18/18 19/19/19
f 18/18/18 8/8/8 7/7/7
f 7/7/7 17/17/17 18/18/18
f 46/46/46 28/28/28 27/27/27
f 27/27/27 45/45/45 44/44/44
f 2/2/2 43/43/43 42/42/42
f 41/41/41 5/5/5 2/2/2
f 1/1/1 3/3/3 6/6/6
f 6/6/6 4/4/4 1/1/1
