v -0.08836 -0.00042299999999998177 0.297727
v -0.08836 0.14818900000000002 0.257906
v -0.08836 0.256981 0.14911399999999997
v -0.08836 0.296802 0.0005019999999999817
v -0.08836 0.256981 -0.14811100000000002
v -0.08836 0.14818899999999996 -0.256902
v -0.08836 -0.00042300000000001814 -0.296723
v -0.08836 -0.14903500000000003 -0.256902
v -0.08836 -0.257827 -0.14811099999999996
v -0.08836 -0.297648 0.0005020000000000182
v -0.08836 -0.257827 0.14911400000000002
v -0.08836 -0.14903499999999997 0.257906
v 0.086329 -0.00042299999999998177 0.297727
v 0.086329 0.14818900000000002 0.257906
v 0.086329 0.256981 0.14911399999999997
v 0.086329 0.296802 0.0005019999999999817
v 0.086329 0.256981 -0.14811100000000002
v 0.086329 0.14818899999999996 -0.256902
v 0.086329 -0.00042300000000001814 -0.296723
v 0.086329 -0.14903500000000003 -0.256902
v 0.086329 -0.257827 -0.14811099999999996
v 0.086329 -0.297648 0.0005020000000000182
v 0.086329 -0.257827 0.14911400000000002
v 0.086329 -0.14903499999999997 0.257906
v 0.104627 0.06637 0.020120999999999997
v 0.104627 0.085989 0.0005019999999999946
v 0.202316 0.06637 0.020120999999999997
v 0.202316 0.085989 0.0005019999999999946
v -0.08836 -0.00042299999999998177 0.297727
v -0.08836 0.14818900000000002 0.257906
v -0.08836 0.256981 0.14911399999999997
v -0.08836 0.296802 0.0005019999999999817
v -0.08836 0.256981 -0.14811100000000002
v -0.08836 0.14818899999999996 -0.256902
v -0.08836 -0.00042300000000001814 -0.296723
v -0.08836 -0.14903500000000003 -0.256902
v -0.08836 -0.257827 -0.14811099999999996
v -0.08836 -0.297648 0.0005020000000000182
v -0.08836 -0.257827 0.14911400000000002
v -0.08836 -0.14903499999999997 0.257906
v 0.104627 0.06637 0.020120999999999997
v 0.202316 0.085989 0.0005019999999999946
v 0.202316 0.085989 0.0005019999999999946
v 0.104627 0.06637 0.020120999999999997
v 0.104627 0.085989 0.0005019999999999946
v 0.202316 0.06637 0.020120999999999997
v 0.104831 -0.0004229999999999937 0.102519
v 0.104831 0.071714 0.072639
v 0.104831 0.101594 0.0005019999999999938
v 0.104831 0.071714 -0.071635
v 0.104831 -0.0004230000000000062 -0.101515
v 0.104831 -0.07256 -0.071635
v 0.104831 -0.10244 0.0005020000000000062
v 0.104831 -0.07256 0.072639
v 0.086329 -0.257827 -0.14811099999999996
v -0.08836 -0.257827 -0.14811099999999996
v 0.086329 -0.297648 0.0005020000000000182
v 0.086329 -0.257827 0.14911400000000002
v 0.086329 -0.14903499999999997 0.257906
v 0.086329 -0.00042299999999998177 0.297727
v 0.086329 0.14818900000000002 0.257906
v 0.086329 0.256981 0.14911399999999997
v 0.086329 0.296802 0.0005019999999999817
v 0.086329 0.256981 -0.14811100000000002
v 0.086329 0.14818899999999996 -0.256902
v 0.086329 -0.00042300000000001814 -0.296723
v 0.086329 -0.14903500000000003 -0.256902
v 0.086329 -0.257827 -0.14811099999999996
vt 0.816615 0.807850
vt 0.816615 0.761368
vt 0.816615 0.714887
vt 0.816615 0.668403
vt 0.816615 0.621921
vt 0.816615 0.575440
vt 0.816615 0.528958
vt 0.816615 0.482477
vt 0.816615 0.435995
vt 0.816615 0.947294
vt 0.816615 0.900813
vt 0.816615 0.854331
vt 0.790274 0.807850
vt 0.790274 0.761368
vt 0.790274 0.714887
vt 0.790274 0.668403
vt 0.790274 0.621921
vt 0.790274 0.575440
vt 0.790274 0.528958
vt 0.790274 0.482477
vt 0.790274 0.435995
vt 0.790274 0.947294
vt 0.790274 0.900813
vt 0.790274 0.854331
vt 0.217328 0.328486
vt 0.239458 0.328486
vt 0.217328 0.380068
vt 0.239458 0.380068
vt 0.418342 0.512949
vt 0.395143 0.512949
vt 0.375051 0.489708
vt 0.363451 0.449453
vt 0.363451 0.402972
vt 0.375051 0.362717
vt 0.395143 0.339476
vt 0.418342 0.339476
vt 0.438434 0.362717
vt 0.450034 0.402972
vt 0.450034 0.449453
vt 0.438434 0.489708
vt 0.217328 0.328486
vt 0.210015 0.380068
vt 0.210015 0.380068
vt 0.217328 0.328486
vt 0.210015 0.328486
vt 0.217328 0.380068
vt 0.879852 0.582446
vt 0.868077 0.582446
vt 0.859753 0.599126
vt 0.859753 0.622715
vt 0.868077 0.639395
vt 0.879852 0.639395
vt 0.888176 0.622715
vt 0.888176 0.599126
vt 0.790274 0.993778
vt 0.816615 0.993778
vt 0.395143 0.339476
vt 0.375051 0.362717
vt 0.363452 0.402972
vt 0.363452 0.449453
vt 0.375051 0.489708
vt 0.395143 0.512949
vt 0.418342 0.512949
vt 0.438434 0.489708
vt 0.450034 0.449453
vt 0.450034 0.402972
vt 0.438434 0.362717
vt 0.418342 0.339476
vn 0 0.08896200000000005 0.996035
vn 0 0.575061 0.818111
vn 0 0.907073 0.42097399999999996
vn 0 0.996035 -0.08896200000000005
vn 0 0.818111 -0.575061
vn 0 0.42097299999999993 -0.907073
vn -0 -0.08896200000000005 -0.996035
vn 0 -0.575061 -0.818111
vn -0 -0.907073 -0.42097399999999996
vn -0 -0.996035 0.08896300000000006
vn 0 -0.81811 0.575061
vn 0 -0.42097399999999996 0.907073
vn 0 -0.08896199999999994 0.996035
vn 0 0.42097400000000007 0.907073
vn 0 0.81811 0.575061
vn 0 0.996035 0.08896199999999994
vn 0 0.907073 -0.42097400000000007
vn 0 0.575061 -0.818111
vn -0 0.08896199999999994 -0.996035
vn -0 -0.42097300000000004 -0.907073
vn 0 -0.81811 -0.575062
vn -0 -0.996035 -0.08896199999999994
vn -0 -0.907073 0.42097400000000007
vn 0 -0.575061 0.818111
vn 0 -0.707105 -0.707109
vn 0 -0.707105 -0.707109
vn 0 -0.707105 -0.707109
vn 0 -0.707105 -0.707109
vn -1 0 0
vn -1 0 0
vn -1 0 0
vn -1 0 0
vn -1 0 -0
vn -1 0 0
vn -1 0 0
vn -1 0 0
vn -1 0 0
vn -1 0 0
vn -1 0 0
vn -1 0 0
vn 0 0.707105 0.707109
vn 0 0.707105 0.707109
vn 0 0.707105 0.707109
vn 0 0.707105 0.707109
vn 0 0.707105 0.707109
vn 0 0.707105 0.707109
vn 1 0 0
vn 1 0 0
vn 1 0 0
vn 1 0 0
vn 1 0 0
vn 1 0 0
vn 1 0 0
vn 1 0 0
vn 0 -0.81811 -0.575062
vn -0 -0.907073 -0.42097399999999996
vn 1 -1E-06 6.123233995736766E-23
vn 1 -1E-06 6.123233995736766E-23
vn 1 0 0
vn 1 0 0
vn 1 0 0
vn 1 0 0
vn 1 0 0
vn 1 0 0
vn 1 0 0
vn 1 0 0
vn 1 -0 0
vn 1 -1E-06 6.123233995736766E-23
g 01
f 51/51/51 50/50/50 52/52/52
f 50/50/50 54/54/54 52/52/52
f 50/50/50 48/48/48 54/54/54
f 50/50/50 49/49/49 48/48/48
f 48/48/48 47/47/47 54/54/54
f 54/54/54 53/53/53 52/52/52
f 32/32/32 33/33/33 31/31/31
f 33/33/33 29/29/29 31/31/31
f 33/33/33 37/37/37 29/29/29
f 33/33/33 35/35/35 37/37/37
f 33/33/33 34/34/34 35/35/35
f 35/35/35 36/36/36 37/37/37
f 37/37/37 39/39/39 29/29/29
f 37/37/37 38/38/38 39/39/39
f 39/39/39 40/40/40 29/29/29
f 29/29/29 30/30/30 31/31/31
f 43/43/43 45/45/45 44/44/44
f 41/41/41 46/46/46 42/42/42
f 25/25/25 26/26/26 28/28/28
f 28/28/28 27/27/27 25/25/25
f 68/68/68 67/67/67 57/57/57
f 67/67/67 59/59/59 57/57/57
f 67/67/67 63/63/63 59/59/59
f 67/67/67 65/65/65 63/63/63
f 67/67/67 66/66/66 65/65/65
f 65/65/65 64/64/64 63/63/63
f 63/63/63 61/61/61 59/59/59
f 63/63/63 62/62/62 61/61/61
f 61/61/61 60/60/60 59/59/59
f 59/59/59 58/58/58 57/57/57
f 13/13/13 1/1/1 12/12/12
f 12/12/12 24/24/24 13/13/13
f 24/24/24 12/12/12 11/11/11
f 11/11/11 23/23/23 24/24/24
f 23/23/23 11/11/11 10/10/10
f 10/10/10 22/22/22 23/23/23
f 22/22/22 10/10/10 56/56/56
f 56/56/56 55/55/55 22/22/22
f 21/21/21 9/9/9 8/8/8
f 8/8/8 20/20/20 21/21/21
f 20/20/20 8/8/8 7/7/7
f 7/7/7 19/19/19 20/20/20
f 19/19/19 7/7/7 6/6/6
f 6/6/6 18/18/18 19/19/19
f 18/18/18 6/6/6 5/5/5
f 5/5/5 17/17/17 18/18/18
f 17/17/17 5/5/5 4/4/4
f 4/4/4 16/16/16 17/17/17
f 16/16/16 4/4/4 3/3/3
f 3/3/3 15/15/15 16/16/16
f 15/15/15 3/3/3 2/2/2
f 2/2/2 14/14/14 15/15/15
f 14/14/14 2/2/2 1/1/1
f 1/1/1 13/13/13 14/14/14
