v -0.203681 -0.0005360000000000032 -0.050569
v -0.165218 0.11784 -0.05056900000000001
v -0.064521 0.191001 -0.05056900000000002
v 0.059947 0.191001 -0.05056900000000002
v 0.160643 0.11784 -0.05056900000000001
v 0.199106 -0.0005360000000000032 -0.050569
v 0.160643 -0.118912 -0.050568999999999996
v 0.059947 -0.192072 -0.05056899999999999
v -0.064521 -0.192072 -0.05056899999999999
v -0.165218 -0.118912 -0.050568999999999996
v -0.203681 -0.0005359999999999965 0.056264
v -0.165218 0.11784 0.056263999999999995
v -0.064521 0.191001 0.05626399999999999
v 0.059947 0.191001 0.05626399999999999
v 0.160643 0.11784 0.056263999999999995
v 0.199106 -0.0005359999999999965 0.056264
v 0.160643 -0.118912 0.05626400000000001
v 0.059947 -0.192072 0.056264000000000015
v -0.064521 -0.192072 0.056264000000000015
v -0.165218 -0.118912 0.05626400000000001
v -0.165218 -0.118912 0.05626400000000001
v -0.165218 -0.118912 -0.050568999999999996
v 0.059947 0.191001 0.05626399999999999
v 0.160643 0.11784 0.056263999999999995
v 0.199106 -0.0005359999999999965 0.056264
v 0.160643 -0.118912 0.05626400000000001
v 0.059947 -0.192072 0.056264000000000015
v -0.064521 -0.192072 0.056264000000000015
v -0.165218 -0.118912 0.05626400000000001
v -0.203681 -0.0005359999999999965 0.056264
v -0.165218 0.11784 0.056263999999999995
v -0.064521 0.191001 0.05626399999999999
vt 0.970330 0.484369
vt 0.970330 0.446767
vt 0.970330 0.409164
vt 0.970330 0.371559
vt 0.970330 0.333956
vt 0.970330 0.296351
vt 0.970330 0.258748
vt 0.970330 0.221143
vt 0.970330 0.183541
vt 0.970330 0.145938
vt 0.954220 0.484369
vt 0.954220 0.446767
vt 0.954220 0.409164
vt 0.954220 0.371559
vt 0.954220 0.333956
vt 0.954220 0.296351
vt 0.954220 0.258748
vt 0.954220 0.221143
vt 0.954220 0.183541
vt 0.954220 0.145938
vt 0.954220 0.521974
vt 0.970330 0.521974
vt 0.883694 0.787317
vt 0.877894 0.751554
vt 0.862710 0.729451
vt 0.843942 0.729451
vt 0.828758 0.751554
vt 0.822959 0.787317
vt 0.828758 0.823080
vt 0.843942 0.845183
vt 0.862710 0.845183
vt 0.877894 0.823080
vn -0.994186 0.107677 -6.593314669589477E-18
vn -0.741023 0.67148 -4.1116291634573234E-17
vn -0.204814 0.978801 -5.993427558261142E-17
vn 0.409627 0.912253 -5.585938582312851E-17
vn 0.867604 0.497255 -3.0448087205500857E-17
vn 0.994186 -0.107677 6.593314669589477E-18
vn 0.741023 -0.67148 4.1116291634573234E-17
vn 0.204814 -0.978801 5.993427558261142E-17
vn -0.409627 -0.912253 5.585938582312851E-17
vn -0.867604 -0.497255 3.0448087205500857E-17
vn -0.994186 -0.107677 6.593314669589477E-18
vn -0.867604 0.497255 -3.0448087205500857E-17
vn -0.409627 0.912253 -5.585938582312851E-17
vn 0.204814 0.978801 -5.993427558261142E-17
vn 0.741022 0.67148 -4.1116291634573234E-17
vn 0.994186 0.107677 -6.593314669589477E-18
vn 0.867604 -0.497255 3.0448087205500857E-17
vn 0.409627 -0.912253 5.585938582312851E-17
vn -0.204813 -0.978801 5.993427558261142E-17
vn -0.741022 -0.67148 4.1116291634573234E-17
vn -0.741022 -0.67148 4.1116291634573234E-17
vn -0.867604 -0.497255 3.0448087205500857E-17
vn 0 6.123233995736766E-17 1
vn 0 6.123233995736766E-17 1
vn 0 6.123233995736766E-17 1
vn 0 6.123233995736766E-17 1
vn 0 6.123233995736766E-17 1
vn 0 6.123233995736766E-17 1
vn 0 6.123233995736766E-17 1
vn 0 6.123233995736766E-17 1
vn 0 6.123233995736766E-17 1
vn 0 6.123233995736766E-17 1
g 01
f 32/32/32 31/31/31 23/23/23
f 31/31/31 29/29/29 23/23/23
f 31/31/31 30/30/30 29/29/29
f 29/29/29 25/25/25 23/23/23
f 29/29/29 27/27/27 25/25/25
f 29/29/29 28/28/28 27/27/27
f 27/27/27 26/26/26 25/25/25
f 25/25/25 24/24/24 23/23/23
f 11/11/11 1/1/1 22/22/22
f 22/22/22 21/21/21 11/11/11
f 20/20/20 10/10/10 9/9/9
f 9/9/9 19/19/19 20/20/20
f 19/19/19 9/9/9 8/8/8
f 8/8/8 18/18/18 19/19/19
f 18/18/18 8/8/8 7/7/7
f 7/7/7 17/17/17 18/18/18
f 17/17/17 7/7/7 6/6/6
f 6/6/6 16/16/16 17/17/17
f 16/16/16 6/6/6 5/5/5
f 5/5/5 15/15/15 16/16/16
f 15/15/15 5/5/5 4/4/4
f 4/4/4 14/14/14 15/15/15
f 14/14/14 4/4/4 3/3/3
f 3/3/3 13/13/13 14/14/14
f 13/13/13 3/3/3 2/2/2
f 2/2/2 12/12/12 13/13/13
f 12/12/12 2/2/2 1/1/1
f 1/1/1 11/11/11 12/12/12
