v 0.025219 0.31166 -0.000877000000000019
v 0.024714 0.096978 -0.0008770000000000059
v -0.012385 0.311746 0.020833999999999978
v -0.012891 0.097066 0.02083399999999999
v -0.012385 0.311746 -0.02258800000000002
v -0.012891 0.097066 -0.022588000000000007
v 0.024254 -0.097743 -0.000876999999999994
v 0.023749 -0.312425 -0.0008769999999999809
v -0.01335 -0.097655 0.020834000000000005
v -0.013856 -0.312337 0.02083400000000002
v -0.01335 -0.097655 -0.022587999999999994
v -0.013856 -0.312337 -0.02258799999999998
v 0.067052 -0.10165 -0.00032699999999999375
v 0.002373 -0.101498 0.064352
v -0.062308 -0.101346 -0.0003269999999999938
v 0.002373 -0.101498 -0.065007
v 0.067531 0.10146 -0.0003270000000000062
v 0.002851 0.101612 0.064352
v -0.061829 0.101765 -0.0003270000000000062
v 0.002851 0.101612 -0.065007
v -0.012891 0.097066 0.02083399999999999
v -0.012385 0.311746 0.020833999999999978
v -0.01335 -0.097655 0.020834000000000005
v -0.013856 -0.312337 0.02083400000000002
v -0.012385 0.311746 0.020833999999999978
v -0.012385 0.311746 -0.02258800000000002
v 0.025219 0.31166 -0.000877000000000019
v -0.013856 -0.312337 -0.02258799999999998
v -0.013856 -0.312337 0.02083400000000002
v 0.023749 -0.312425 -0.0008769999999999809
v 0.002851 0.101612 0.064352
v 0.002373 -0.101498 0.064352
v -0.062308 -0.101346 -0.0003269999999999938
v 0.002373 -0.101498 0.064352
v 0.067052 -0.10165 -0.00032699999999999375
v 0.002373 -0.101498 -0.065007
v 0.002851 0.101612 0.064352
v -0.061829 0.101765 -0.0003270000000000062
v 0.002851 0.101612 -0.065007
v 0.067531 0.10146 -0.0003270000000000062
v -0.012385 0.311746 -0.02258800000000002
v -0.012891 0.097066 -0.022588000000000007
v 0.024714 0.096978 -0.0008770000000000059
v 0.024714 0.096978 -0.0008770000000000059
v 0.025219 0.31166 -0.000877000000000019
v -0.012385 0.311746 -0.02258800000000002
v -0.013856 -0.312337 -0.02258799999999998
v 0.023749 -0.312425 -0.0008769999999999809
v 0.024254 -0.097743 -0.000876999999999994
v 0.024254 -0.097743 -0.000876999999999994
v -0.01335 -0.097655 -0.022587999999999994
v -0.013856 -0.312337 -0.02258799999999998
v -0.061829 0.101765 -0.0003270000000000062
v -0.062308 -0.101346 -0.0003269999999999938
v -0.061829 0.101765 -0.0003270000000000062
v 0.002373 -0.101498 -0.065007
v 0.067052 -0.10165 -0.00032699999999999375
v 0.067531 0.10146 -0.0003270000000000062
v 0.067531 0.10146 -0.0003270000000000062
v 0.002851 0.101612 -0.065007
v 0.002373 -0.101498 -0.065007
vt 0.457344 0.147261
vt 0.484445 0.147261
vt 0.457345 0.133752
vt 0.484445 0.133752
vt 0.457345 0.160770
vt 0.484445 0.160770
vt 0.491833 0.147261
vt 0.518933 0.147261
vt 0.491833 0.133752
vt 0.518933 0.133752
vt 0.491833 0.160770
vt 0.518933 0.160770
vt 0.601097 0.620901
vt 0.612671 0.620901
vt 0.577948 0.620901
vt 0.589522 0.620901
vt 0.601097 0.570223
vt 0.612671 0.570223
vt 0.577948 0.570223
vt 0.589522 0.570223
vt 0.484445 0.170901
vt 0.457345 0.170901
vt 0.491833 0.170901
vt 0.518933 0.170901
vt 0.457345 0.133752
vt 0.454604 0.123620
vt 0.451863 0.133752
vt 0.524415 0.147259
vt 0.521673 0.137128
vt 0.518933 0.147261
vt 0.566374 0.570223
vt 0.566374 0.620901
vt 0.585430 0.641987
vt 0.595310 0.650721
vt 0.599402 0.629635
vt 0.589522 0.620901
vt 0.612671 0.570223
vt 0.616763 0.549138
vt 0.606884 0.540403
vt 0.602792 0.561489
vt 0.457345 0.160770
vt 0.484445 0.160770
vt 0.484445 0.147261
vt 0.484445 0.147261
vt 0.457344 0.147261
vt 0.457345 0.160770
vt 0.518933 0.160770
vt 0.518933 0.147261
vt 0.491833 0.147261
vt 0.491833 0.147261
vt 0.491833 0.160770
vt 0.518933 0.160770
vt 0.577948 0.570223
vt 0.577948 0.620901
vt 0.577948 0.570223
vt 0.589522 0.620901
vt 0.601097 0.620901
vt 0.601097 0.570223
vt 0.601097 0.570223
vt 0.589522 0.570223
vt 0.589522 0.620901
vn 0.999997 -0.002354 2.000000000000144E-06
vn 0.999997 -0.002355 2.000000000000144E-06
vn -1E-06 1.0000000000612324E-06 1
vn -0.866023 0.0020410000000000306 0.5
vn -0.499997 0.0011789999999999468 -0.866026
vn -0.499998 0.0011779999999999469 -0.866026
vn 0.999997 -0.002356 2.0000000000001443E-06
vn 0.999997 -0.002356 2.0000000000001443E-06
vn -0.866023 0.0020410000000000306 0.5
vn -3E-06 6.123233995736766E-17 1
vn -0.499997 0.0011789999999999468 -0.866026
vn -0.499998 0.0011789999999999468 -0.866026
vn 0.999997 -0.002356 1.442633929395582E-19
vn 0.316228 -0.0007449999999999419 0.948683
vn -0.948681 0.0022360000000000197 0.316228
vn 1E-06 9.999999999387675E-07 -1
vn 0.999997 -0.002356 1.442633929395582E-19
vn -0.316226 0.0007460000000000581 0.948684
vn -0.94868 0.0022369999999999803 -0.316228
vn 0 -6.123233995736766E-17 -1
vn -0.866023 0.0020410000000000306 0.5
vn -1E-06 1.0000000000612324E-06 1
vn -0.866023 0.0020410000000000306 0.5
vn -3E-06 6.123233995736766E-17 1
vn 0.002288 0.999997 -6.123215626034779E-17
vn 0.002288 0.999997 -6.123215626034779E-17
vn 0.002288 0.999997 -6.123215626034779E-17
vn -0.002338 -0.999997 6.123215626034779E-17
vn -0.002338 -0.999997 6.123215626034779E-17
vn -0.002338 -0.999997 6.123215626034779E-17
vn -0.316226 0.0007460000000000581 0.948684
vn 0.316228 -0.0007449999999999419 0.948683
vn -0.002357 -0.999997 6.123215626034779E-17
vn -0.002357 -0.999997 -9.999999999387677E-07
vn -0.002357 -0.999997 6.123215626034779E-17
vn -0.002357 -0.999997 1.0000000000612322E-06
vn 0.002356 0.999997 -6.123215626034779E-17
vn 0.002356 0.999997 -6.123215626034779E-17
vn 0.002356 0.999997 -6.123215626034779E-17
vn 0.002356 0.999997 -6.123215626034779E-17
vn -0.499997 0.0011789999999999468 -0.866026
vn -0.499998 0.0011779999999999469 -0.866026
vn 0.999997 -0.002355 2.000000000000144E-06
vn 0.999997 -0.002355 2.000000000000144E-06
vn 0.999997 -0.002354 2.000000000000144E-06
vn -0.499997 0.0011789999999999468 -0.866026
vn -0.499998 0.0011789999999999468 -0.866026
vn 0.999997 -0.002356 2.0000000000001443E-06
vn 0.999997 -0.002356 2.0000000000001443E-06
vn 0.999997 -0.002356 2.0000000000001443E-06
vn -0.499997 0.0011789999999999468 -0.866026
vn -0.499998 0.0011789999999999468 -0.866026
vn -0.94868 0.0022369999999999803 -0.316228
vn -0.948681 0.0022360000000000197 0.316228
vn -0.94868 0.0022369999999999803 -0.316228
vn 1E-06 9.999999999387675E-07 -1
vn 0.999997 -0.002356 1.442633929395582E-19
vn 0.999997 -0.002356 1.442633929395582E-19
vn 0.999997 -0.002356 1.442633929395582E-19
vn 0 -6.123233995736766E-17 -1
vn 1E-06 9.999999999387675E-07 -1
g 01
f 37/37/37 40/40/40 39/39/39
f 39/39/39 38/38/38 37/37/37
f 33/33/33 36/36/36 35/35/35
f 35/35/35 34/34/34 33/33/33
f 61/61/61 60/60/60 59/59/59
f 58/58/58 57/57/57 56/56/56
f 55/55/55 20/20/20 16/16/16
f 16/16/16 54/54/54 53/53/53
f 31/31/31 19/19/19 15/15/15
f 15/15/15 32/32/32 31/31/31
f 17/17/17 18/18/18 14/14/14
f 14/14/14 13/13/13 17/17/17
f 30/30/30 29/29/29 28/28/28
f 27/27/27 26/26/26 25/25/25
f 52/52/52 51/51/51 50/50/50
f 49/49/49 48/48/48 47/47/47
f 23/23/23 11/11/11 12/12/12
f 12/12/12 24/24/24 23/23/23
f 7/7/7 9/9/9 10/10/10
f 10/10/10 8/8/8 7/7/7
f 46/46/46 45/45/45 44/44/44
f 43/43/43 42/42/42 41/41/41
f 21/21/21 22/22/22 5/5/5
f 5/5/5 6/6/6 21/21/21
f 2/2/2 1/1/1 3/3/3
f 3/3/3 4/4/4 2/2/2
