v -0.38721 -0.039995 0.0023630000000000027
v -0.336669 -0.034883999999999984 0.196157
v -0.2798 0.189435 0.196157
v -0.321801 0.218007 0.0023629999999999866
v -0.092048 0.324718 0.19615699999999997
v -0.105858 0.373604 0.002362999999999977
v 0.138738 0.307665 0.19615699999999997
v 0.159582 0.353991 0.0023629999999999784
v 0.304569 0.146257 0.196157
v 0.350313 0.168346 0.0023629999999999897
v 0.327851 -0.08398199999999999 0.196157
v 0.377092 -0.096466 0.002363000000000006
v 0.197693 -0.275323 0.19615700000000003
v 0.227388 -0.316536 0.0023630000000000196
v -0.025007 -0.338233 0.19615700000000003
v -0.028751 -0.388892 0.002363000000000024
v -0.236044 -0.243275 0.19615700000000003
v -0.271474 -0.279677 0.002363000000000017
v -0.336669 -0.034883999999999984 0.196157
v -0.38721 -0.039995 0.0023630000000000027
v -0.336669 -0.034883999999999984 0.196157
v -0.236044 -0.243275 0.19615700000000003
v 0.000136 -0.0006249999999999853 0.240872
v -0.025007 -0.338233 0.19615700000000003
v -0.2798 0.189435 0.196157
v 0.197693 -0.275323 0.19615700000000003
v -0.092048 0.324718 0.19615699999999997
v 0.327851 -0.08398199999999999 0.196157
v 0.138738 0.307665 0.19615699999999997
v 0.304569 0.146257 0.196157
vt 0.430893 0.052428
vt 0.430893 0.028485
vt 0.454872 0.028485
vt 0.454872 0.052428
vt 0.475885 0.028485
vt 0.475885 0.052428
vt 0.498274 0.028485
vt 0.498274 0.052428
vt 0.521367 0.028485
vt 0.521367 0.052428
vt 0.544468 0.028485
vt 0.544468 0.052428
vt 0.566883 0.028485
vt 0.566883 0.052428
vt 0.587938 0.028485
vt 0.587938 0.052428
vt 0.606999 0.028485
vt 0.606999 0.052428
vt 0.627846 0.028485
vt 0.627846 0.052428
vt 0.884083 0.172979
vt 0.878960 0.146426
vt 0.918808 0.152859
vt 0.892124 0.122736
vt 0.905142 0.190209
vt 0.918840 0.112782
vt 0.932471 0.190209
vt 0.945489 0.122736
vt 0.953530 0.172979
vt 0.958652 0.146426
vn -0.967578 0.019310000000000015 0.251832
vn -0.944125 -0.21262699999999998 0.25183
vn -0.859913 0.443994 0.251829
vn -0.728796 0.63674 0.25182999999999994
vn -0.373341 0.892859 0.25183199999999994
vn -0.149003 0.956231 0.2518329999999999
vn 0.287924 0.923948 0.25183199999999994
vn 0.500512 0.828293 0.25182999999999994
vn 0.814466 0.522711 0.25182899999999997
vn 0.915831 0.312786 0.25183
vn 0.95991 -0.12310499999999999 0.251831
vn 0.902624 -0.349073 0.251829
vn 0.656205 -0.711322 0.25182600000000005
vn 0.467069 -0.847603 0.2518230000000001
vn 0.045451 -0.966705 0.25182600000000005
vn -0.187033 -0.949527 0.25182600000000005
vn -0.586569 -0.769753 0.25182600000000005
vn -0.753619 -0.607159 0.25182800000000005
vn -0.944125 -0.21262699999999998 0.25183
vn -0.967578 0.019310000000000015 0.251832
vn -0.130278 -0.01316399999999994 0.99139
vn -0.09131 -0.09381199999999995 0.991394
vn 4.7E-05 4.800000000006123E-05 1
vn -0.009638 -0.13058599999999995 0.99139
vn -0.108315 0.07370100000000006 0.991381
vn 0.076601 -0.10628299999999995 0.991381
vn -0.035623 0.12615700000000005 0.99137
vn 0.127074 -0.03220099999999994 0.99137
vn 0.053817 0.11959100000000006 0.991364
vn 0.118093 0.057029000000000066 0.991364
g 01
f 1/1/1 2/2/2 3/3/3
f 3/3/3 4/4/4 1/1/1
f 4/4/4 3/3/3 5/5/5
f 5/5/5 6/6/6 4/4/4
f 6/6/6 5/5/5 7/7/7
f 7/7/7 8/8/8 6/6/6
f 8/8/8 7/7/7 9/9/9
f 9/9/9 10/10/10 8/8/8
f 10/10/10 9/9/9 11/11/11
f 11/11/11 12/12/12 10/10/10
f 12/12/12 11/11/11 13/13/13
f 13/13/13 14/14/14 12/12/12
f 14/14/14 13/13/13 15/15/15
f 15/15/15 16/16/16 14/14/14
f 16/16/16 15/15/15 17/17/17
f 17/17/17 18/18/18 16/16/16
f 18/18/18 17/17/17 19/19/19
f 19/19/19 20/20/20 18/18/18
f 21/21/21 22/22/22 23/23/23
f 23/23/23 22/22/22 24/24/24
f 23/23/23 25/25/25 21/21/21
f 23/23/23 24/24/24 26/26/26
f 23/23/23 27/27/27 25/25/25
f 23/23/23 26/26/26 28/28/28
f 23/23/23 29/29/29 27/27/27
f 23/23/23 28/28/28 30/30/30
f 23/23/23 30/30/30 29/29/29
