v -0.000559 -0.152565 -0.11195399999999998
v 1.797726 -0.152565 -0.11195399999999998
v 1.797726 0.319689 -0.11195400000000001
v -0.000559 0.319689 -0.11195400000000001
v -1.79317 -0.152565 -0.12440499999999999
v -1.79317 0.319689 -0.12440500000000002
vt 0.000000 0.500000
vt 0.000000 0.000000
vt 1.000000 0.000000
vt 1.000000 0.500000
vt 0.000000 1.000000
vt 1.000000 1.000000
vn -0.002315 6.123215626034779E-17 0.999997
vn 0 6.123233995736766E-17 1
vn 0 6.123233995736766E-17 1
vn -0.00463 6.123166640162813E-17 0.999989
vn -0.006946 6.123087038120868E-17 0.999976
vn -0.006946 6.123087038120868E-17 0.999976
g cutout
f 1/1/1 2/2/2 3/3/3
f 3/3/3 4/4/4 1/1/1
f 5/5/5 1/1/1 4/4/4
f 4/4/4 6/6/6 5/5/5
