v 0.073682 0.006620000000000006 0.102367
v 0.073955 -0.04671899999999999 0.063073
v 0.139139 0.013240000000000005 0.085551
v 0.130475 0.058667 0.053224999999999995
v 0.125353 0.041315 -0.00021900000000000253
v 0.130851 -0.014835 -0.0009229999999999991
v 0.139371 -0.032186 0.052085
v 0.005989 -1.0999999999993716E-05 0.102614
v -0.002675 0.045415000000000004 0.070288
v -0.007797 0.028064 0.016844
v -0.002299 -0.028086 0.01614
v 0.006221 -0.04543799999999999 0.069148
v -0.005236 0.03674 0.043566
v 0.127914 0.049991 0.026502999999999995
v 0.059007 0.038474 0.008312999999999997
v 0.063583 0.057099000000000004 0.063084
v 0.217787 -0.004802 -0.0017769999999999997
v 0.155072 0.009406 -0.0017770000000000006
v 0.175164 0.057914 -0.0017770000000000034
v 0.223672 0.037821 -0.0017770000000000023
v 0.233379 0.041842000000000004 0.063908
v 0.225829 -0.012842999999999997 0.063908
v 0.171144 0.067621 0.063908
v 0.145365 0.005385000000000004 0.063908
v 0.223672 0.03782100000000001 0.129592
v 0.217787 -0.004801999999999992 0.129592
v 0.189372 -0.016571999999999993 0.129592
v 0.155072 0.009406000000000008 0.129592
v 0.175164 0.05791400000000001 0.129592
v 0.167154 -0.151463 0.048398000000000004
v 0.124531 -0.155299 0.052861000000000005
v 0.098553 -0.132942 0.026848000000000007
v 0.12051 -0.111812 0.103037
v 0.087181 -0.083128 0.069663
v 0.102282 -0.059365 0.042015000000000004
v 0.175195 -0.106891 0.097311
v 0.178924 -0.033313999999999996 0.112477
v 0.167154 -0.05183499999999999 0.134026
v 0.124531 -0.05567099999999999 0.138489
v 0.098553 -0.033313999999999996 0.112477
v 0.110323 -0.014792999999999995 0.090927
v 0.138738 -0.0071209999999999945 0.082001
v 0.167154 -0.014792999999999995 0.090927
v 0.09166 -0.092842 0.026848000000000007
v 0.07989 -0.121257 0.026848000000000007
v 0.01129 -0.092842 0.026848000000000007
v 0.02306 -0.064426 0.026848000000000004
v 0.051475 -0.052657 0.026848000000000004
v 0.07989 -0.064426 0.026848000000000004
v 0.087932 -0.129299 0.09253300000000002
v 0.015018 -0.05638499999999999 0.092533
v 0.051475 -0.041283999999999994 0.092533
v 0.087932 -0.05638499999999999 0.092533
v 0.103033 -0.092842 0.092533
v -8.3E-05 -0.092842 0.092533
v 0.09166 -0.09284199999999998 0.158218
v 0.07989 -0.12125699999999999 0.158218
v 0.051475 -0.133027 0.158218
v 0.02306 -0.12125699999999999 0.158218
v 0.01129 -0.09284199999999998 0.158218
v 0.02306 -0.06442599999999998 0.158218
v 0.051475 -0.052656999999999995 0.158218
v 0.07989 -0.06442599999999998 0.158218
v 0.218615 -0.03882399999999999 0.070578
v 0.28716 -0.03882399999999999 0.12061
v 0.238154 -0.01678599999999999 0.186661
v 0.16961 -0.016785999999999992 0.13663
v 0.156479 -0.09903099999999998 0.154328
v 0.225024 -0.09903199999999998 0.20436
v 0.274029 -0.12106899999999998 0.138308
v 0.273303 -0.073667 -0.010652999999999994
v 0.317787 0.011686 -0.010653
v 0.317787 0.011686000000000005 0.086016
v 0.273304 -0.073667 0.086016
v 0.358773 -0.11883 0.08601500000000001
v 0.403257 -0.03347699999999999 0.086016
v 0.247356 -0.072374 -0.009659999999999995
v 0.271301 0.027994 -0.006604000000000001
v 0.290397 0.020358000000000008 0.094557
v 0.266452 -0.080011 0.091501
v 0.280782 0.025792 -0.008560000000000002
v 0.256837 -0.074577 -0.011615999999999994
v 0.299878 0.018155000000000008 0.092601
v 0.275933 -0.082213 0.089545
v 0.403257 -0.033477 -0.010652999999999998
v 0.139371 -0.032186 0.052085
v 0.130475 0.058667 0.053224999999999995
v 0.139139 0.013240000000000005 0.085551
v 0.006221 -0.04543799999999999 0.069148
v -0.002675 0.045415000000000004 0.070288
v 0.005989 -1.0999999999993716E-05 0.102614
v 0.127914 0.049991 0.026502999999999995
v 0.130475 0.058667 0.053224999999999995
v 0.063583 0.057099000000000004 0.063084
v 0.125353 0.041315 -0.00021900000000000253
v -0.002675 0.045415000000000004 0.070288
v -0.005236 0.03674 0.043566
v -0.007797 0.028064 0.016844
v 0.217787 -0.004801999999999992 0.129592
v 0.223672 0.03782100000000001 0.129592
v 0.155072 0.009406000000000008 0.129592
v 0.175164 0.05791400000000001 0.129592
v 0.167154 -0.05183499999999999 0.134026
v 0.124531 -0.05567099999999999 0.138489
v 0.098553 -0.033313999999999996 0.112477
v 0.110323 -0.014792999999999995 0.090927
v 0.09166 -0.09284199999999998 0.158218
v 0.07989 -0.12125699999999999 0.158218
v 0.07989 -0.06442599999999998 0.158218
v 0.051475 -0.052656999999999995 0.158218
v 0.01129 -0.09284199999999998 0.158218
v 0.02306 -0.06442599999999998 0.158218
v 0.238154 -0.01678599999999999 0.186661
v 0.16961 -0.016785999999999992 0.13663
v 0.225024 -0.09903199999999998 0.20436
v 0.238154 -0.01678599999999999 0.186661
v 0.28716 -0.03882399999999999 0.12061
v 0.317787 0.011686000000000005 0.086016
v 0.273304 -0.073667 0.086016
v 0.271301 0.027994 -0.006604000000000001
v 0.247356 -0.072374 -0.009659999999999995
v 0.290397 0.020358000000000008 0.094557
v 0.271301 0.027994 -0.006604000000000001
v 0.280782 0.025792 -0.008560000000000002
v 0.266452 -0.080011 0.091501
v 0.290397 0.020358000000000008 0.094557
v 0.299878 0.018155000000000008 0.092601
v 0.247356 -0.072374 -0.009659999999999995
v 0.266452 -0.080011 0.091501
v 0.275933 -0.082213 0.089545
v 0.256837 -0.074577 -0.011615999999999994
v 0.317787 0.011686000000000005 0.086016
v 0.317787 0.011686 -0.010653
v 0.403257 -0.03347699999999999 0.086016
v 0.175164 0.057914 -0.0017770000000000034
v 0.223672 0.037821 -0.0017770000000000023
v 0.233379 0.041842000000000004 0.063908
v 0.233379 0.041842000000000004 0.063908
v 0.171144 0.067621 0.063908
v 0.175164 0.057914 -0.0017770000000000034
v 0.171144 0.067621 0.063908
v 0.233379 0.041842000000000004 0.063908
v 0.175164 0.05791400000000001 0.129592
v 0.171144 0.067621 0.063908
vt 0.462610 0.193955
vt 0.484331 0.193746
vt 0.462374 0.219896
vt 0.442595 0.220244
vt 0.463906 0.257656
vt 0.486740 0.257696
vt 0.481817 0.220633
vt 0.462005 0.167980
vt 0.442218 0.168034
vt 0.463906 0.257656
vt 0.486740 0.257696
vt 0.481430 0.166867
vt 0.460126 0.247908
vt 0.460126 0.247908
vt 0.422622 0.194562
vt 0.441739 0.194152
vt 0.312340 0.175509
vt 0.250670 0.175471
vt 0.272255 0.174195
vt 0.294656 0.174349
vt 0.296304 0.148630
vt 0.317217 0.148630
vt 0.271470 0.148630
vt 0.245905 0.148630
vt 0.294656 0.122912
vt 0.312340 0.121751
vt 0.206536 0.122974
vt 0.250670 0.121789
vt 0.272256 0.123065
vt 0.760536 0.051086
vt 0.739016 0.051086
vt 0.717496 0.051086
vt 0.739016 0.079846
vt 0.717496 0.079846
vt 0.697266 0.079846
vt 0.760536 0.079846
vt 0.813285 0.027725
vt 0.760536 0.107042
vt 0.739016 0.107042
vt 0.717496 0.107042
vt 0.697266 0.107042
vt 0.795344 0.040056
vt 0.806868 0.037606
vt 0.433376 0.167215
vt 0.418454 0.167215
vt 0.493065 0.167215
vt 0.478143 0.167215
vt 0.463221 0.167215
vt 0.448298 0.167215
vt 0.418454 0.194139
vt 0.478143 0.193416
vt 0.463221 0.194228
vt 0.448298 0.195035
vt 0.433376 0.195155
vt 0.493065 0.194139
vt 0.433376 0.220928
vt 0.418454 0.220928
vt 0.474270 0.223451
vt 0.461313 0.228818
vt 0.493065 0.220928
vt 0.478143 0.220928
vt 0.463221 0.220928
vt 0.448298 0.220928
vt 0.049974 0.113361
vt 0.049974 0.058300
vt 0.007449 0.058300
vt 0.007449 0.113361
vt 0.007449 0.113361
vt 0.007449 0.058300
vt 0.054496 0.059690
vt 0.054496 0.112460
vt 0.054496 0.059789
vt 0.098945 0.059789
vt 0.098945 0.112460
vt 0.054496 0.112460
vt 0.054496 0.059789
vt 0.049854 0.058777
vt 0.007533 0.058777
vt 0.007533 0.112955
vt 0.049854 0.112955
vt 0.099432 0.066151
vt 0.054544 0.066151
vt 0.099432 0.066151
vt 0.099432 0.066151
vt 0.098945 0.112460
vt 0.492626 0.233998
vt 0.456346 0.238160
vt 0.473584 0.223241
vt 0.492626 0.233998
vt 0.456346 0.238160
vt 0.473584 0.223241
vt 0.432783 0.220599
vt 0.442595 0.220244
vt 0.441739 0.194152
vt 0.423315 0.221126
vt 0.442218 0.168034
vt 0.432409 0.167869
vt 0.422934 0.167524
vt 0.221081 0.132420
vt 0.219964 0.156658
vt 0.184848 0.133853
vt 0.191004 0.162813
vt 0.810835 0.016201
vt 0.795192 0.011009
vt 0.783013 0.022114
vt 0.785463 0.033639
vt 0.492595 0.241775
vt 0.487228 0.228818
vt 0.487228 0.254733
vt 0.474270 0.260100
vt 0.455945 0.241775
vt 0.461313 0.254733
vt 0.049974 0.058300
vt 0.049974 0.113361
vt 0.054496 0.112460
vt 0.098945 0.112460
vt 0.098945 0.059690
vt 0.098945 0.059789
vt 0.098945 0.112460
vt 0.099432 0.059822
vt 0.054544 0.059822
vt 0.099432 0.059822
vt 0.054544 0.059822
vt 0.054544 0.066151
vt 0.099432 0.059822
vt 0.054544 0.059822
vt 0.054544 0.066151
vt 0.099432 0.059822
vt 0.054544 0.059822
vt 0.054544 0.066151
vt 0.099432 0.066151
vt 0.054496 0.059848
vt 0.054496 0.112460
vt 0.098945 0.059848
vt 0.272255 0.174195
vt 0.294656 0.174349
vt 0.296304 0.148630
vt 0.296304 0.148630
vt 0.271470 0.148630
vt 0.272255 0.174195
vt 0.271470 0.148630
vt 0.296304 0.148630
vt 0.272256 0.123065
vt 0.271470 0.148630
vn 0.118521 0.01370300000000006 0.992857
vn 0.193076 -0.581324 0.790433
vn 0.587271 -0.16203299999999995 0.793005
vn 0.754396 0.48022 0.44752099999999995
vn 0.987091 0.09823699999999999 -0.126495
vn 0.987091 0.09823699999999999 -0.126495
vn 0.997006 -0.04248999999999999 0.064598
vn -0.35924 0.17824200000000007 0.916066
vn -0.868377 0.16673300000000002 0.467035
vn -0.987091 -0.09823699999999999 0.126495
vn -0.987091 -0.09823699999999999 0.126495
vn -0.823437 -0.33926699999999993 0.454807
vn -0.987091 -0.09823699999999999 0.126495
vn 0.987091 0.09823699999999999 -0.126495
vn -0.132854 0.941698 -0.30912000000000006
vn 0.010018 0.604039 0.796892
vn 0.9813 -0.13549 -0.136725
vn -0.918026 0.380259 -0.11239100000000003
vn -0.070086 0.986194 -0.15003200000000005
vn 0.951994 0.26292 -0.15678200000000003
vn 0.866994 0.498292 0.00516499999999997
vn 0.989556 -0.13663 -0.04595899999999999
vn -0.382683 0.92388 -5.657133423981284E-17
vn -0.923224 0.382412 0.03767599999999998
vn 0.513577 0.501413 0.696293
vn 0.83331 -0.11505599999999998 0.540701
vn 0 6.123233995736766E-17 1
vn -0.615476 0.2549390000000001 0.745785
vn -0.451439 0.520514 0.724754
vn 0.135489 -0.743315 0.655077
vn -0.545958 -0.65428 0.523305
vn -0.789689 -0.493525 0.3644510000000001
vn -0.382684 -0.602198 0.70065
vn -0.969847 -0.125118 0.209145
vn -0.912282 0.366094 -0.18362100000000003
vn 0.136629 -0.610153 0.780414
vn 0 0.758378 0.651815
vn 0.057528 0.41645100000000007 0.907336
vn -0.101192 0.32686200000000004 0.939639
vn -0.833949 0.18481200000000003 0.519974
vn -0.599472 0.738905 0.30765599999999993
vn 0 0.758378 0.651815
vn 0 0.758378 0.651815
vn 0.976346 -0.134805 -0.169042
vn 0.912282 -0.37788 -0.15795099999999998
vn -0.912282 0.37788 -0.15795000000000003
vn -0.595059 0.785703 -0.16904200000000005
vn 0.134806 0.976346 -0.16904200000000005
vn 0.785703 0.595059 -0.16904200000000003
vn 0.922569 -0.382141 -0.05324399999999998
vn -0.707107 0.707107 -4.329781621023438E-17
vn 0 1 -6.123233995736766E-17
vn 0.707107 0.707107 -4.329781621023438E-17
vn 1 -0 0
vn -0.922569 0.382141 0.05324399999999998
vn 0.874015 0.12067600000000003 0.470676
vn 0.599473 -0.24830999999999995 0.760904
vn -0 6.123233995736766E-17 1
vn 0 6.123233995736766E-17 1
vn -0.599472 0.24831000000000006 0.760904
vn -0.593889 0.44978700000000005 0.667074
vn -0.085136 0.616608 0.782654
vn 0.375808 0.49620700000000006 0.782654
vn 0.152597 0.965924 -0.20905900000000005
vn 0.152597 0.965924 -0.20905800000000005
vn 0.152597 0.965924 -0.20905800000000005
vn 0.152597 0.965924 -0.20905800000000005
vn -0.56948 0.25881200000000004 0.780198
vn -0.56948 0.25881200000000004 0.780198
vn 0.803103 3.648467744019795E-17 0.59584
vn -0.886794 0.462166 9.999999999717004E-07
vn -0.886794 0.462166 9.999999999717004E-07
vn -0.886794 0.462166 9.999999999717004E-07
vn -0.886794 0.462166 9.999999999717004E-07
vn 0 6.123233995736766E-17 1
vn 0 6.123233995736766E-17 1
vn -0.954974 0.221832 0.197014
vn -0.954974 0.221832 0.197014
vn -0.954974 0.221832 0.197014
vn -0.954974 0.221832 0.197014
vn -0.184985 0.07397399999999994 -0.979953
vn -0.184986 0.07397499999999994 -0.979953
vn 0.231952 0.972276 0.02960799999999994
vn 0.184973 -0.07397099999999994 0.979956
vn 0.467191 0.884156 -1.000000000054139E-06
vn 0.997006 -0.04248999999999999 0.064598
vn 0.754396 0.48022 0.44752099999999995
vn 0.587271 -0.16203299999999995 0.793005
vn -0.823437 -0.33926699999999993 0.454807
vn -0.868377 0.16673300000000002 0.467035
vn -0.35924 0.17824200000000007 0.916066
vn -0.066846 0.950864 -0.30230500000000005
vn -0.066846 0.950864 -0.30230500000000005
vn -0.132245 0.944895 -0.29947500000000005
vn -0.073919 0.948324 -0.30857300000000004
vn -0.196455 0.937968 -0.28569700000000003
vn -0.196455 0.937967 -0.28569700000000003
vn -0.190418 0.936597 -0.29415500000000006
vn 0.83331 -0.11505599999999998 0.540701
vn 0.513577 0.501413 0.696293
vn -0.615476 0.2549390000000001 0.745785
vn -0.451439 0.520514 0.724754
vn 0.057528 0.41645100000000007 0.907336
vn -0.101192 0.32686200000000004 0.939639
vn -0.833949 0.18481200000000003 0.519974
vn -0.599472 0.738905 0.30765599999999993
vn 0.874015 0.12067600000000003 0.470676
vn 0.599473 -0.24830999999999995 0.760904
vn 0.375808 0.49620700000000006 0.782654
vn -0.085136 0.616608 0.782654
vn -0.599472 0.24831000000000006 0.760904
vn -0.593889 0.44978700000000005 0.667074
vn -0.56948 0.25881200000000004 0.780198
vn -0.56948 0.25881200000000004 0.780198
vn 0.803103 1.0000000000364846E-06 0.59584
vn 0.803103 1.0000000000364846E-06 0.59584
vn 0.803103 1.0000000000364846E-06 0.59584
vn 0 6.123233995736766E-17 1
vn 0 6.123233995736766E-17 1
vn -0.184986 0.07397499999999994 -0.979953
vn -0.184987 0.07397499999999994 -0.979953
vn 0.231957 0.972275 0.02960799999999994
vn 0.231963 0.972274 0.029606999999999942
vn 0.231957 0.972275 0.02960799999999994
vn 0.184979 -0.07397299999999994 0.979955
vn 0.184984 -0.07397399999999994 0.979953
vn 0.184979 -0.07397299999999994 0.979955
vn -0.231959 -0.972275 -0.02960799999999994
vn -0.23196 -0.972275 -0.02960799999999994
vn -0.231959 -0.972275 -0.02960799999999994
vn -0.231958 -0.972275 -0.02960899999999994
vn 0.467191 0.884156 -1.000000000054139E-06
vn 0.467191 0.884156 -1.000000000054139E-06
vn 0.467192 0.884156 -5.4138940767346366E-17
vn -0.070086 0.986194 -0.15003200000000005
vn 0.951994 0.26292 -0.15678200000000003
vn 0.866994 0.498292 0.00516499999999997
vn 0.866994 0.498292 0.00516499999999997
vn -0.382683 0.92388 -5.657133423981284E-17
vn -0.070086 0.986194 -0.15003200000000005
vn -0.382683 0.92388 -5.657133423981284E-17
vn 0.866994 0.498292 0.00516499999999997
vn -0.451439 0.520514 0.724754
vn -0.382683 0.92388 -5.657133423981284E-17
g goods
f 132/132/132 134/134/134 85/85/85
f 85/85/85 133/133/133 132/132/132
f 128/128/128 131/131/131 130/130/130
f 130/130/130 129/129/129 128/128/128
f 125/125/125 84/84/84 127/127/127
f 127/127/127 126/126/126 125/125/125
f 122/122/122 83/83/83 124/124/124
f 124/124/124 123/123/123 122/122/122
f 120/120/120 81/81/81 82/82/82
f 82/82/82 121/121/121 120/120/120
f 77/77/77 80/80/80 79/79/79
f 79/79/79 78/78/78 77/77/77
f 118/118/118 119/119/119 75/75/75
f 75/75/75 76/76/76 118/118/118
f 72/72/72 71/71/71 74/74/74
f 74/74/74 73/73/73 72/72/72
f 115/115/115 70/70/70 117/117/117
f 117/117/117 116/116/116 115/115/115
f 113/113/113 114/114/114 68/68/68
f 68/68/68 69/69/69 113/113/113
f 65/65/65 64/64/64 67/67/67
f 67/67/67 66/66/66 65/65/65
f 110/110/110 112/112/112 59/59/59
f 109/109/109 110/110/110 58/58/58
f 112/112/112 111/111/111 59/59/59
f 110/110/110 59/59/59 58/58/58
f 109/109/109 58/58/58 108/108/108
f 109/109/109 108/108/108 107/107/107
f 53/53/53 63/63/63 56/56/56
f 56/56/56 54/54/54 53/53/53
f 52/52/52 62/62/62 63/63/63
f 63/63/63 53/53/53 52/52/52
f 51/51/51 61/61/61 62/62/62
f 62/62/62 52/52/52 51/51/51
f 55/55/55 60/60/60 61/61/61
f 61/61/61 51/51/51 55/55/55
f 54/54/54 56/56/56 57/57/57
f 57/57/57 50/50/50 54/54/54
f 49/49/49 53/53/53 54/54/54
f 54/54/54 44/44/44 49/49/49
f 48/48/48 52/52/52 53/53/53
f 53/53/53 49/49/49 48/48/48
f 47/47/47 51/51/51 52/52/52
f 52/52/52 48/48/48 47/47/47
f 46/46/46 55/55/55 51/51/51
f 51/51/51 47/47/47 46/46/46
f 44/44/44 54/54/54 50/50/50
f 50/50/50 45/45/45 44/44/44
f 42/42/42 106/106/106 104/104/104
f 43/43/43 42/42/42 104/104/104
f 106/106/106 105/105/105 104/104/104
f 43/43/43 104/104/104 103/103/103
f 43/43/43 103/103/103 37/37/37
f 34/34/34 40/40/40 41/41/41
f 41/41/41 35/35/35 34/34/34
f 33/33/33 39/39/39 40/40/40
f 40/40/40 34/34/34 33/33/33
f 36/36/36 38/38/38 39/39/39
f 39/39/39 33/33/33 36/36/36
f 31/31/31 33/33/33 34/34/34
f 34/34/34 32/32/32 31/31/31
f 30/30/30 36/36/36 33/33/33
f 33/33/33 31/31/31 30/30/30
f 100/100/100 102/102/102 27/27/27
f 102/102/102 101/101/101 27/27/27
f 100/100/100 27/27/27 99/99/99
f 144/144/144 143/143/143 25/25/25
f 25/25/25 142/142/142 141/141/141
f 24/24/24 28/28/28 29/29/29
f 29/29/29 23/23/23 24/24/24
f 21/21/21 25/25/25 26/26/26
f 26/26/26 22/22/22 21/21/21
f 140/140/140 139/139/139 138/138/138
f 137/137/137 136/136/136 135/135/135
f 18/18/18 24/24/24 23/23/23
f 23/23/23 19/19/19 18/18/18
f 20/20/20 21/21/21 22/22/22
f 22/22/22 17/17/17 20/20/20
f 15/15/15 98/98/98 94/94/94
f 98/98/98 97/97/97 94/94/94
f 97/97/97 96/96/96 94/94/94
f 15/15/15 94/94/94 95/95/95
f 94/94/94 92/92/92 95/95/95
f 94/94/94 93/93/93 92/92/92
f 90/90/90 89/89/89 91/91/91
f 90/90/90 13/13/13 89/89/89
f 13/13/13 10/10/10 89/89/89
f 10/10/10 11/11/11 89/89/89
f 86/86/86 87/87/87 88/88/88
f 86/86/86 14/14/14 87/87/87
f 86/86/86 5/5/5 14/14/14
f 86/86/86 6/6/6 5/5/5
f 2/2/2 7/7/7 3/3/3
f 3/3/3 1/1/1 2/2/2
f 1/1/1 3/3/3 4/4/4
f 4/4/4 16/16/16 1/1/1
f 12/12/12 2/2/2 1/1/1
f 1/1/1 8/8/8 12/12/12
f 8/8/8 1/1/1 16/16/16
f 16/16/16 9/9/9 8/8/8
