v -0.38527 0.284589 -0.16863400000000003
v -0.072376 0.215286 -0.010055000000000014
v -0.602927 0.054688999999999995 -0.132093
v -0.176135 0.005216000000000003 0.048979
v -0.2616 -0.099783 0.008510000000000007
v 0.241054 0.129813 0.000559999999999992
v 0.04368 -0.217515 0.024622000000000015
v 0.141971 -0.07956 0.06010800000000001
v 0.519841 -0.178104 0.04064400000000001
v 0.454917 -0.360033 -0.029069999999999978
v 0.223391 0.204476 -0.050957000000000016
v -0.157989 0.353395 -0.11417400000000003
v 0.29277 0.006163000000000002 0.023396
v 0.523531 -0.04126 0.008779000000000002
vt 0.034933 0.812246
vt 0.089513 0.827674
vt 0.007784 0.731107
vt 0.085237 0.766461
vt 0.083554 0.731107
vt 0.140480 0.838040
vt 0.139369 0.731107
vt 0.142262 0.774573
vt 0.204680 0.780827
vt 0.210602 0.731107
vt 0.135875 0.853395
vt 0.071566 0.846888
vt 0.157523 0.809939
vt 0.191084 0.814115
vn -0.32855 0.43498000000000003 0.83836
vn -0.132496 0.40578000000000003 0.904316
vn -0.354736 0.27568200000000004 0.893399
vn -0.190723 0.03765900000000006 0.980921
vn -0.273949 -0.14353499999999994 0.950973
vn 0.094232 0.36124200000000006 0.927698
vn -0.066846 -0.23769499999999993 0.969037
vn 0.028656 0.022855000000000063 0.999328
vn 0.06035 0.035513000000000065 0.997545
vn -0.004799 -0.30786299999999994 0.951419
vn 0.13211 0.583928 0.800984
vn -0.331159 0.42849200000000004 0.840671
vn 0.10795 0.22369700000000006 0.968662
vn 0.107148 0.22273700000000005 0.968972
g flagship
f 13/13/13 9/9/9 14/14/14
f 13/13/13 8/8/8 9/9/9
f 13/13/13 6/6/6 8/8/8
f 2/2/2 6/6/6 11/11/11
f 8/8/8 7/7/7 10/10/10
f 10/10/10 9/9/9 8/8/8
f 8/8/8 6/6/6 2/2/2
f 2/2/2 4/4/4 8/8/8
f 2/2/2 12/12/12 1/1/1
f 3/3/3 4/4/4 2/2/2
f 4/4/4 5/5/5 7/7/7
f 7/7/7 8/8/8 4/4/4
f 5/5/5 4/4/4 3/3/3
f 3/3/3 2/2/2 1/1/1
