v 0.253622 -0.15589399999999998 0.238155
v 0.602346 0.33135600000000004 0.786666
v 0.618617 0.3254830000000001 0.787539
v 0.269724 -0.16222499999999998 0.238865
v 0.253622 -0.15589399999999998 0.238155
v -0.480882 -0.980002 0.03571500000000006
v 0.253622 -0.15589399999999998 0.238155
v -0.464611 -0.985874 0.036588000000000065
v -0.480882 -0.980002 0.03571500000000006
v 0.260464 -0.16032699999999997 0.253765
v 0.608331 0.3245950000000001 0.801447
v 0.602346 0.33135600000000004 0.786666
v 0.253622 -0.15589399999999998 0.238155
v 0.260464 -0.16032699999999997 0.253765
v -0.474897 -0.986763 0.05049500000000006
v 0.260464 -0.16032699999999997 0.253765
v -0.480882 -0.980002 0.03571500000000006
v -0.474897 -0.986763 0.05049500000000006
v 0.188226 -0.13023799999999996 0.235764
v 0.47851 0.35694800000000004 0.765823
v 0.49508 0.35200000000000004 0.766797
v 0.204386 -0.13656699999999997 0.236262
v 0.188226 -0.13023799999999996 0.235764
v -0.479642 -0.981015 0.035728000000000065
v 0.188226 -0.13023799999999996 0.235764
v -0.463072 -0.985964 0.03670100000000006
v -0.479642 -0.981015 0.035728000000000065
v 0.195082 -0.13466499999999998 0.251267
v 0.484795 0.35060500000000006 0.780664
v 0.47851 0.35694800000000004 0.765823
v 0.188226 -0.13023799999999996 0.235764
v 0.195082 -0.13466499999999998 0.251267
v -0.473356 -0.987359 0.050569000000000065
v 0.195082 -0.13466499999999998 0.251267
v -0.479642 -0.981015 0.035728000000000065
v -0.473356 -0.987359 0.050569000000000065
v 0.2182 -0.14184499999999997 0.235517
v 0.520485 0.35016600000000003 0.775451
v 0.536914 0.34476100000000004 0.776376
v 0.234325 -0.14817199999999997 0.23612
v 0.2182 -0.14184499999999997 0.235517
v -0.48159 -0.979992 0.035659000000000066
v 0.2182 -0.14184499999999997 0.235517
v -0.46516 -0.985397 0.03658400000000006
v -0.48159 -0.979992 0.035659000000000066
v 0.225044 -0.14627199999999999 0.251069
v 0.526626 0.34361400000000003 0.790262
v 0.520485 0.35016600000000003 0.775451
v 0.2182 -0.14184499999999997 0.235517
v 0.225044 -0.14627199999999999 0.251069
v -0.475447 -0.986539 0.050472000000000065
v 0.225044 -0.14627199999999999 0.251069
v -0.48159 -0.979992 0.035659000000000066
v -0.475447 -0.986539 0.050472000000000065
v 0.283745 -0.16786799999999996 0.24063
v 0.670983 0.32275500000000007 0.792833
v 0.687082 0.31642000000000003 0.793654
v 0.299842 -0.17420899999999997 0.241449
v 0.283745 -0.16786799999999996 0.24063
v -0.480248 -0.979986 0.03576600000000006
v 0.283745 -0.16786799999999996 0.24063
v -0.464148 -0.986322 0.036587000000000064
v -0.480248 -0.979986 0.03576600000000006
v 0.290582 -0.17230599999999996 0.256296
v 0.676807 0.3157920000000001 0.807584
v 0.670983 0.32275500000000007 0.792833
v 0.283745 -0.16786799999999996 0.24063
v 0.290582 -0.17230599999999996 0.256296
v -0.474423 -0.986948 0.05051700000000006
v 0.290582 -0.17230599999999996 0.256296
v -0.480248 -0.979986 0.03576600000000006
v -0.474423 -0.986948 0.05051700000000006
v 0.798379 0.182793 0.11144899999999999
v 0.064033 -0.934889 0.020404000000000054
v 0.08083 -0.939103 0.02043700000000006
v 0.064033 -0.934889 0.020404000000000054
v -0.703665 -1.571915 0.005242000000000096
v -0.703665 -1.571915 0.005242000000000096
v -0.686747 -1.575628 0.005276000000000097
v 0.81306 0.17908 0.10304099999999998
v 0.798379 0.182793 0.11144899999999999
v 0.79836 0.181417 0.09418299999999999
v 0.073245 -0.933724 0.005440000000000058
v 0.064033 -0.934889 0.020404000000000054
v 0.073245 -0.933724 0.005440000000000058
v -0.69507 -1.573291 -0.009732999999999903
v -0.69507 -1.573291 -0.009732999999999903
v -0.703665 -1.571915 0.005242000000000096
v 0.798379 0.182793 0.11144899999999999
v 0.79836 0.181417 0.09418299999999999
v 0.685351 0.250428 0.17534899999999998
v -0.004114 -0.917682 0.019791000000000055
v 0.012713 -0.921952 0.020034000000000055
v -0.004114 -0.917682 0.019791000000000055
v -0.702302 -1.572751 0.005134000000000096
v -0.702302 -1.572751 0.005134000000000096
v -0.685208 -1.575528 0.005382000000000096
v 0.700292 0.247651 0.16703799999999996
v 0.685351 0.250428 0.17534899999999998
v 0.685598 0.249495 0.15805499999999997
v 0.005097 -0.916542 0.004932000000000056
v -0.004114 -0.917682 0.019791000000000055
v 0.005097 -0.916542 0.004932000000000056
v -0.693463 -1.573683 -0.009731999999999902
v -0.693463 -1.573683 -0.009731999999999902
v -0.702302 -1.572751 0.005134000000000096
v 0.685351 0.250428 0.17534899999999998
v 0.685598 0.249495 0.15805499999999997
v 0.739506 0.216804 0.147714
v 0.026939 -0.925828 0.021386000000000054
v 0.043744 -0.930068 0.021525000000000055
v 0.026939 -0.925828 0.021386000000000054
v -0.704368 -1.571992 0.005187000000000096
v -0.704368 -1.571992 0.005187000000000096
v -0.687354 -1.57523 0.005330000000000096
v 0.754324 0.213565 0.139352
v 0.739506 0.216804 0.147714
v 0.739624 0.21565 0.130432
v 0.036144 -0.924675 0.006478000000000057
v 0.026939 -0.925828 0.021386000000000054
v 0.036144 -0.924675 0.006478000000000057
v -0.695645 -1.57314 -0.009732999999999903
v -0.695645 -1.57314 -0.009732999999999903
v -0.704368 -1.571992 0.005187000000000096
v 0.739506 0.216804 0.147714
v 0.739624 0.21565 0.130432
v 0.848396 0.157602 0.08015599999999999
v 0.095611 -0.94255 0.019343000000000058
v 0.112416 -0.946741 0.01926800000000006
v 0.095611 -0.94255 0.019343000000000058
v -0.703037 -1.571823 0.005296000000000097
v -0.703037 -1.571823 0.005296000000000097
v -0.68623 -1.576007 0.005221000000000096
v 0.862926 0.153417 0.07170799999999998
v 0.848396 0.157602 0.08015599999999999
v 0.848234 0.156009 0.06290899999999999
v 0.104823 -0.941372 0.004323000000000057
v 0.095611 -0.94255 0.019343000000000058
v 0.104823 -0.941372 0.004323000000000057
v -0.694576 -1.573414 -0.009732999999999903
v -0.694576 -1.573414 -0.009732999999999903
v -0.703037 -1.571823 0.005296000000000097
v 0.848396 0.157602 0.08015599999999999
v 0.848234 0.156009 0.06290899999999999
v 0.661549 0.06464800000000001 0.293829
v 0.638652 0.061289000000000024 0.291299
v 0.631917 0.07427500000000001 0.258057
v 0.652825 0.08146700000000001 0.250774
v 0.590729 0.14228500000000002 0.250774
v 0.583974 0.12123200000000002 0.258057
v 0.57085 0.12769600000000003 0.291299
v 0.573732 0.15065700000000004 0.293829
v 0.577586 0.11471000000000002 0.324542
v 0.582456 0.13383800000000004 0.336883
v 0.600235 0.08988100000000002 0.338311
v 0.611791 0.10168000000000003 0.354717
v 0.625529 0.06775300000000001 0.324542
v 0.644552 0.07302000000000002 0.336883
v 0.638652 0.061289000000000024 0.291299
v 0.661549 0.06464800000000001 0.293829
v 0.269724 -0.16222499999999998 0.238865
v 0.618617 0.3254830000000001 0.787539
v 0.608331 0.3245950000000001 0.801447
v 0.260464 -0.16032699999999997 0.253765
v -0.464611 -0.985874 0.036588000000000065
v -0.474897 -0.986763 0.05049500000000006
v 0.204386 -0.13656699999999997 0.236262
v 0.49508 0.35200000000000004 0.766797
v 0.484795 0.35060500000000006 0.780664
v 0.195082 -0.13466499999999998 0.251267
v -0.463072 -0.985964 0.03670100000000006
v -0.473356 -0.987359 0.050569000000000065
v 0.234325 -0.14817199999999997 0.23612
v 0.536914 0.34476100000000004 0.776376
v 0.526626 0.34361400000000003 0.790262
v 0.225044 -0.14627199999999999 0.251069
v -0.46516 -0.985397 0.03658400000000006
v -0.475447 -0.986539 0.050472000000000065
v 0.299842 -0.17420899999999997 0.241449
v 0.687082 0.31642000000000003 0.793654
v 0.676807 0.3157920000000001 0.807584
v 0.290582 -0.17230599999999996 0.256296
v -0.464148 -0.986322 0.036587000000000064
v -0.474423 -0.986948 0.05051700000000006
v 0.729147 0.13188400000000003 0.306919
v 0.711806 0.14042600000000002 0.350848
v 0.644552 0.07302000000000002 0.336883
v 0.661549 0.06464800000000001 0.293829
v 0.720247 0.14904500000000004 0.26299
v 0.652825 0.08146700000000001 0.250774
v 0.611791 0.10168000000000003 0.354717
v 0.644552 0.07302000000000002 0.336883
v 0.711806 0.14042600000000002 0.350848
v 0.67838 0.16966700000000004 0.369043
v 0.582456 0.13383800000000004 0.336883
v 0.64845 0.20247800000000002 0.350848
v 0.573732 0.15065700000000004 0.293829
v 0.639549 0.21963900000000003 0.306919
v 0.590729 0.14228500000000002 0.250774
v 0.656891 0.21109700000000003 0.26299
v 0.073245 -0.933724 0.005440000000000058
v 0.79836 0.181417 0.09418299999999999
v 0.81306 0.17908 0.10304099999999998
v 0.08083 -0.939103 0.02043700000000006
v -0.686747 -1.575628 0.005276000000000097
v -0.69507 -1.573291 -0.009732999999999903
v 0.005097 -0.916542 0.004932000000000056
v 0.685598 0.249495 0.15805499999999997
v 0.700292 0.247651 0.16703799999999996
v 0.012713 -0.921952 0.020034000000000055
v -0.685208 -1.575528 0.005382000000000096
v -0.693463 -1.573683 -0.009731999999999902
v 0.036144 -0.924675 0.006478000000000057
v 0.739624 0.21565 0.130432
v 0.754324 0.213565 0.139352
v 0.043744 -0.930068 0.021525000000000055
v -0.687354 -1.57523 0.005330000000000096
v -0.695645 -1.57314 -0.009732999999999903
v 0.104823 -0.941372 0.004323000000000057
v 0.848234 0.156009 0.06290899999999999
v 0.862926 0.153417 0.07170799999999998
v 0.112416 -0.946741 0.01926800000000006
v -0.68623 -1.576007 0.005221000000000096
v -0.694576 -1.573414 -0.009732999999999903
v -0.294729 -0.754227 0.05453600000000005
v 0.625529 0.06775300000000001 0.324542
v 0.600235 0.08988100000000002 0.338311
v -0.332902 -0.729996 0.05999500000000004
v -0.712664 -1.644158 0.0302820000000001
v 0.577586 0.11471000000000002 0.324542
v -0.722474 -1.635576 0.0356220000000001
v -0.365343 -0.706396 0.046343000000000044
v 0.57085 0.12769600000000003 0.291299
v -0.731258 -1.625947 0.0302820000000001
v 0.583974 0.12123200000000002 0.258057
v -0.353851 -0.706413 0.00042300000000004324
v -0.373829 -0.696788 0.02187600000000004
v -0.733871 -1.62091 0.017389000000000102
v -0.728781 -1.623417 0.0044970000000001
v -0.707575 -1.646665 0.017389000000000102
v -0.273646 -0.764506 0.03264000000000005
v -0.294729 -0.754227 0.05453600000000005
v -0.712664 -1.644158 0.0302820000000001
v -0.710187 -1.641628 0.004497000000000101
v -0.282806 -0.754335 0.007449000000000046
v -0.273646 -0.764506 0.03264000000000005
v 0.625529 0.06775300000000001 0.324542
v 0.631917 0.07427500000000001 0.258057
v 0.638652 0.061289000000000024 0.291299
vt 0.016981 0.333339
vt 0.016981 0.131528
vt 0.020004 0.131528
vt 0.020005 0.333429
vt 0.016981 0.333339
vt 0.016982 0.540891
vt 0.016981 0.333339
vt 0.020005 0.540891
vt 0.016982 0.540891
vt 0.013960 0.332880
vt 0.013959 0.131528
vt 0.016981 0.131528
vt 0.016981 0.333339
vt 0.013960 0.332880
vt 0.013961 0.540891
vt 0.013960 0.332880
vt 0.016982 0.540891
vt 0.013961 0.540891
vt 0.016981 0.336261
vt 0.016981 0.131528
vt 0.020004 0.131528
vt 0.020005 0.336523
vt 0.016981 0.336261
vt 0.016982 0.540891
vt 0.016981 0.336261
vt 0.020005 0.540891
vt 0.016982 0.540891
vt 0.013960 0.335898
vt 0.013959 0.131528
vt 0.016981 0.131528
vt 0.016981 0.336261
vt 0.013960 0.335898
vt 0.013961 0.540891
vt 0.013960 0.335898
vt 0.016982 0.540891
vt 0.013961 0.540891
vt 0.016981 0.334788
vt 0.016981 0.131528
vt 0.020004 0.131528
vt 0.020005 0.334966
vt 0.016981 0.334788
vt 0.016982 0.540891
vt 0.016981 0.334788
vt 0.020005 0.540891
vt 0.016982 0.540891
vt 0.013960 0.334378
vt 0.013959 0.131528
vt 0.016981 0.131528
vt 0.016981 0.334788
vt 0.013960 0.334378
vt 0.013961 0.540891
vt 0.013960 0.334378
vt 0.016982 0.540891
vt 0.013961 0.540891
vt 0.016981 0.332414
vt 0.016981 0.131528
vt 0.020004 0.131528
vt 0.020005 0.332415
vt 0.016981 0.332414
vt 0.016982 0.540891
vt 0.016981 0.332414
vt 0.020005 0.540891
vt 0.016982 0.540891
vt 0.013960 0.331908
vt 0.013959 0.131528
vt 0.016981 0.131528
vt 0.016981 0.332414
vt 0.013960 0.331908
vt 0.013961 0.540891
vt 0.013960 0.331908
vt 0.016982 0.540891
vt 0.013961 0.540891
vt 0.031656 0.134650
vt 0.031657 0.336461
vt 0.028634 0.336551
vt 0.031657 0.336461
vt 0.031658 0.544013
vt 0.031658 0.544013
vt 0.028634 0.544013
vt 0.028633 0.134650
vt 0.031656 0.134650
vt 0.034678 0.134650
vt 0.034678 0.336002
vt 0.031657 0.336461
vt 0.034678 0.336002
vt 0.034679 0.544013
vt 0.034679 0.544013
vt 0.031658 0.544013
vt 0.031656 0.134650
vt 0.034678 0.134650
vt 0.031656 0.134650
vt 0.031657 0.339383
vt 0.028634 0.339645
vt 0.031657 0.339383
vt 0.031658 0.544013
vt 0.031658 0.544013
vt 0.028634 0.544013
vt 0.028633 0.134650
vt 0.031656 0.134650
vt 0.034678 0.134650
vt 0.034678 0.339020
vt 0.031657 0.339383
vt 0.034678 0.339020
vt 0.034679 0.544013
vt 0.034679 0.544013
vt 0.031658 0.544013
vt 0.031656 0.134650
vt 0.034678 0.134650
vt 0.031656 0.134650
vt 0.031657 0.337910
vt 0.028634 0.338088
vt 0.031657 0.337910
vt 0.031658 0.544013
vt 0.031658 0.544013
vt 0.028634 0.544013
vt 0.028633 0.134650
vt 0.031656 0.134650
vt 0.034678 0.134650
vt 0.034678 0.337500
vt 0.031657 0.337910
vt 0.034678 0.337500
vt 0.034679 0.544013
vt 0.034679 0.544013
vt 0.031658 0.544013
vt 0.031656 0.134650
vt 0.034678 0.134650
vt 0.031656 0.134650
vt 0.031657 0.335536
vt 0.028634 0.335537
vt 0.031657 0.335536
vt 0.031658 0.544013
vt 0.031658 0.544013
vt 0.028634 0.544013
vt 0.028633 0.134650
vt 0.031656 0.134650
vt 0.034678 0.134650
vt 0.034678 0.335030
vt 0.031657 0.335536
vt 0.034678 0.335030
vt 0.034679 0.544013
vt 0.034679 0.544013
vt 0.031658 0.544013
vt 0.031656 0.134650
vt 0.034678 0.134650
vt 0.050044 0.913223
vt 0.046720 0.915561
vt 0.041977 0.911354
vt 0.043901 0.907775
vt 0.027925 0.907319
vt 0.029642 0.911003
vt 0.024667 0.914933
vt 0.021481 0.912410
vt 0.021981 0.920676
vt 0.018002 0.919848
vt 0.022153 0.927014
vt 0.018225 0.928056
vt 0.025147 0.932602
vt 0.022103 0.935295
vt 0.030328 0.936256
vt 0.028814 0.940027
vt 0.010937 0.333429
vt 0.010936 0.131528
vt 0.013959 0.131528
vt 0.013960 0.332880
vt 0.010937 0.540891
vt 0.013961 0.540891
vt 0.010937 0.336523
vt 0.010936 0.131528
vt 0.013959 0.131528
vt 0.013960 0.335898
vt 0.010937 0.540891
vt 0.013961 0.540891
vt 0.010937 0.334966
vt 0.010936 0.131528
vt 0.013959 0.131528
vt 0.013960 0.334378
vt 0.010937 0.540891
vt 0.013961 0.540891
vt 0.010937 0.332415
vt 0.010936 0.131528
vt 0.013959 0.131528
vt 0.013960 0.331908
vt 0.010937 0.540891
vt 0.013961 0.540891
vt 0.972974 0.022673
vt 0.985986 0.022673
vt 0.985986 0.049083
vt 0.972974 0.049083
vt 0.959960 0.022673
vt 0.959960 0.049083
vt 0.894915 0.049083
vt 0.881920 0.049083
vt 0.881920 0.022673
vt 0.894915 0.022673
vt 0.907916 0.049083
vt 0.907916 0.022673
vt 0.920923 0.049083
vt 0.920923 0.022673
vt 0.933933 0.049083
vt 0.933933 0.022673
vt 0.034678 0.336002
vt 0.034678 0.134650
vt 0.037701 0.134650
vt 0.037702 0.336551
vt 0.037702 0.544013
vt 0.034679 0.544013
vt 0.034678 0.339020
vt 0.034678 0.134650
vt 0.037701 0.134650
vt 0.037702 0.339645
vt 0.037702 0.544013
vt 0.034679 0.544013
vt 0.034678 0.337500
vt 0.034678 0.134650
vt 0.037701 0.134650
vt 0.037702 0.338088
vt 0.037702 0.544013
vt 0.034679 0.544013
vt 0.034678 0.335030
vt 0.034678 0.134650
vt 0.037701 0.134650
vt 0.037702 0.335537
vt 0.037702 0.544013
vt 0.034679 0.544013
vt 0.898384 0.359377
vt 0.881920 0.049083
vt 0.894915 0.049083
vt 0.908087 0.369551
vt 0.917438 0.718457
vt 0.907916 0.049083
vt 0.922421 0.718321
vt 0.917523 0.378890
vt 0.920923 0.049083
vt 0.927406 0.718220
vt 0.933933 0.049083
vt 0.935624 0.377429
vt 0.926632 0.382100
vt 0.932392 0.718154
vt 0.937379 0.718123
vt 0.952338 0.718242
vt 0.963560 0.354335
vt 0.972699 0.359328
vt 0.957322 0.718352
vt 0.947352 0.718168
vt 0.954143 0.357755
vt 0.963560 0.354335
vt 0.985986 0.049083
vt 0.959960 0.049083
vt 0.972974 0.049083
vn -0.512859 0.79631 -0.32072900000000004
vn -0.848837 0.523349 0.07471099999999997
vn 0.66402 0.29715199999999997 -0.686132
vn 0.728136 -0.44694200000000006 -0.519673
vn -0.512859 0.79631 -0.32072900000000004
vn -0.284247 0.45993399999999995 -0.841228
vn -0.512859 0.79631 -0.32072900000000004
vn 0.752554 -0.655856 -0.05928899999999996
vn -0.284247 0.45993399999999995 -0.841228
vn -0.263966 -0.4239339999999999 0.866373
vn 0.064903 -0.766626 0.638805
vn -0.848837 0.523349 0.07471099999999997
vn -0.512859 0.79631 -0.32072900000000004
vn -0.263966 -0.4239339999999999 0.866373
vn -0.481726 0.22077700000000006 0.848055
vn -0.263966 -0.4239339999999999 0.866373
vn -0.284247 0.45993399999999995 -0.841228
vn -0.481726 0.22077700000000006 0.848055
vn -0.557053 0.764037 -0.3254830000000001
vn -0.886985 0.457127 0.06551499999999998
vn 0.663383 0.33349499999999993 -0.669854
vn 0.762569 -0.4031080000000001 -0.505957
vn -0.557053 0.764037 -0.3254830000000001
vn -0.309828 0.44110799999999994 -0.842277
vn -0.557053 0.764037 -0.3254830000000001
vn 0.791087 -0.609848 -0.04761499999999996
vn -0.309828 0.44110799999999994 -0.842277
vn -0.246086 -0.44306899999999994 0.862051
vn 0.100825 -0.759575 0.642557
vn -0.886985 0.457127 0.06551499999999998
vn -0.557053 0.764037 -0.3254830000000001
vn -0.246086 -0.44306899999999994 0.862051
vn -0.496114 0.19006700000000007 0.847199
vn -0.246086 -0.44306899999999994 0.862051
vn -0.309828 0.44110799999999994 -0.842277
vn -0.496114 0.19006700000000007 0.847199
vn -0.539075 0.777103 -0.32482200000000006
vn -0.880579 0.469402 0.06513099999999997
vn 0.668798 0.32358299999999995 -0.66933
vn 0.753385 -0.41790800000000006 -0.507706
vn -0.539075 0.777103 -0.32482200000000006
vn -0.297882 0.44942799999999994 -0.842188
vn -0.539075 0.777103 -0.32482200000000006
vn 0.772783 -0.632459 -0.05294199999999996
vn -0.297882 0.44942799999999994 -0.842188
vn -0.253895 -0.44316999999999995 0.859731
vn 0.090555 -0.761157 0.642215
vn -0.880579 0.469402 0.06513099999999997
vn -0.539075 0.777103 -0.32482200000000006
vn -0.253895 -0.44316999999999995 0.859731
vn -0.488885 0.20582300000000006 0.847719
vn -0.253895 -0.44316999999999995 0.859731
vn -0.297882 0.44942799999999994 -0.842188
vn -0.488885 0.20582300000000006 0.847719
vn -0.4919 0.80854 -0.32295000000000007
vn -0.823004 0.562773 0.07713799999999997
vn 0.659547 0.26928699999999994 -0.701771
vn 0.709927 -0.46742400000000006 -0.526801
vn -0.4919 0.80854 -0.32295000000000007
vn -0.272062 0.4680349999999999 -0.840789
vn -0.4919 0.80854 -0.32295000000000007
vn 0.735063 -0.675033 -0.06335099999999996
vn -0.272062 0.4680349999999999 -0.840789
vn -0.269409 -0.4056179999999999 0.873437
vn 0.050892 -0.764613 0.642477
vn -0.823004 0.562773 0.07713799999999997
vn -0.4919 0.80854 -0.32295000000000007
vn -0.269409 -0.4056179999999999 0.873437
vn -0.475648 0.23322800000000005 0.848153
vn -0.269409 -0.4056179999999999 0.873437
vn -0.272062 0.4680349999999999 -0.840789
vn -0.475648 0.23322800000000005 0.848153
vn -0.239277 0.08234100000000005 0.967454
vn -0.736439 0.6407 0.21716499999999997
vn 0.460173 -0.42331299999999994 0.780415
vn -0.736439 0.6407 0.21716499999999997
vn -0.322803 0.36826000000000003 0.871885
vn -0.322803 0.36826000000000003 0.871885
vn 0.638397 -0.769086 0.03091100000000005
vn 0.817165 -0.511987 -0.26478499999999994
vn -0.239277 0.08234100000000005 0.967454
vn -0.580932 0.4354819999999999 -0.687657
vn 0.299435 -0.23396700000000006 -0.924985
vn -0.736439 0.6407 0.21716499999999997
vn 0.299435 -0.23396700000000006 -0.924985
vn -0.40257 0.503256 -0.764637
vn -0.40257 0.503256 -0.764637
vn -0.322803 0.36826000000000003 0.871885
vn -0.239277 0.08234100000000005 0.967454
vn -0.580932 0.4354819999999999 -0.687657
vn -0.264312 0.03154800000000006 0.963921
vn -0.776065 0.596745 0.20400699999999997
vn 0.470876 -0.4092799999999999 0.781515
vn -0.776065 0.596745 0.20400699999999997
vn -0.353789 0.35773400000000005 0.864211
vn -0.353789 0.35773400000000005 0.864211
vn 0.683624 -0.729065 0.03349000000000004
vn 0.846544 -0.460614 -0.26682999999999996
vn -0.264312 0.03154800000000006 0.963921
vn -0.582177 0.43312999999999996 -0.688091
vn 0.324383 -0.19536200000000006 -0.925532
vn -0.776065 0.596745 0.20400699999999997
vn 0.324383 -0.19536200000000006 -0.925532
vn -0.41976 0.46477799999999997 -0.779605
vn -0.41976 0.46477799999999997 -0.779605
vn -0.353789 0.35773400000000005 0.864211
vn -0.264312 0.03154800000000006 0.963921
vn -0.582177 0.43312999999999996 -0.688091
vn -0.25274 0.05473600000000006 0.965985
vn -0.7569 0.61857 0.21088799999999996
vn 0.465242 -0.4178239999999999 0.780367
vn -0.7569 0.61857 0.21088799999999996
vn -0.33897 0.36185500000000004 0.868424
vn -0.33897 0.36185500000000004 0.868424
vn 0.66172 -0.749072 0.03188900000000005
vn 0.832289 -0.486146 -0.2663769999999999
vn -0.25274 0.05473600000000006 0.965985
vn -0.580664 0.43596699999999994 -0.687577
vn 0.313103 -0.21308500000000005 -0.925506
vn -0.7569 0.61857 0.21088799999999996
vn 0.313103 -0.21308500000000005 -0.925506
vn -0.411125 0.48458299999999993 -0.772111
vn -0.411125 0.48458299999999993 -0.772111
vn -0.33897 0.36185500000000004 0.868424
vn -0.25274 0.05473600000000006 0.965985
vn -0.580664 0.43596699999999994 -0.687577
vn -0.227166 0.10586300000000005 0.968085
vn -0.719283 0.658179 0.22233699999999998
vn 0.456605 -0.4274299999999999 0.780267
vn -0.719283 0.658179 0.22233699999999998
vn -0.308709 0.37226200000000004 0.875283
vn -0.308709 0.37226200000000004 0.875283
vn 0.618995 -0.784877 0.02851800000000005
vn 0.804252 -0.532491 -0.26387999999999995
vn -0.227166 0.10586300000000005 0.968085
vn -0.582249 0.43413499999999994 -0.687395
vn 0.28646 -0.25058400000000003 -0.924742
vn -0.719283 0.658179 0.22233699999999998
vn 0.28646 -0.25058400000000003 -0.924742
vn -0.39499 0.518125 -0.758637
vn -0.39499 0.518125 -0.758637
vn -0.308709 0.37226200000000004 0.875283
vn -0.227166 0.10586300000000005 0.968085
vn -0.582249 0.43413499999999994 -0.687395
vn 0.163006 -0.968166 -0.18995499999999996
vn 0.14214 -0.989472 0.02723700000000006
vn 0.175625 -0.904391 -0.38888599999999995
vn 0.175623 -0.904392 -0.3888849999999999
vn -0.907847 0.15678799999999998 -0.388885
vn -0.907847 0.15678699999999998 -0.388885
vn -0.971346 0.142845 -0.189955
vn -0.992213 0.12154 0.027235999999999993
vn -0.917087 -0.023298999999999976 0.398006
vn -0.821093 -0.14683299999999996 0.551585
vn -0.568479 -0.4237659999999999 0.705163
vn -0.411858 -0.577165 0.705162
vn -0.129734 -0.823968 0.551585
vn -0.004231 -0.917372 0.39800800000000003
vn 0.14214 -0.989472 0.02723700000000006
vn 0.163006 -0.968166 -0.18995499999999996
vn 0.728136 -0.44694200000000006 -0.519673
vn 0.66402 0.29715199999999997 -0.686132
vn 0.064903 -0.766626 0.638805
vn -0.263966 -0.4239339999999999 0.866373
vn 0.752554 -0.655856 -0.05928899999999996
vn -0.481726 0.22077700000000006 0.848055
vn 0.762569 -0.4031080000000001 -0.505957
vn 0.663383 0.33349499999999993 -0.669854
vn 0.100825 -0.759575 0.642557
vn -0.246086 -0.44306899999999994 0.862051
vn 0.791087 -0.609848 -0.04761499999999996
vn -0.496114 0.19006700000000007 0.847199
vn 0.753385 -0.41790800000000006 -0.507706
vn 0.668798 0.32358299999999995 -0.66933
vn 0.090555 -0.761157 0.642215
vn -0.253895 -0.44316999999999995 0.859731
vn 0.772783 -0.632459 -0.05294199999999996
vn -0.488885 0.20582300000000006 0.847719
vn 0.709927 -0.46742400000000006 -0.526801
vn 0.659547 0.26928699999999994 -0.701771
vn 0.050892 -0.764613 0.642477
vn -0.269409 -0.4056179999999999 0.873437
vn 0.735063 -0.675033 -0.06335099999999996
vn -0.475648 0.23322800000000005 0.848153
vn 0.685728 -0.715464 0.13374500000000006
vn 0.346521 -0.508972 0.787953
vn 0.503107 -0.625509 0.59634
vn 0.711764 -0.688882 -0.13723599999999994
vn 0.688112 -0.617697 -0.3807269999999999
vn 0.688111 -0.617697 -0.3807269999999999
vn -0.005476 -0.20104399999999994 0.979567
vn 0.503107 -0.625509 0.59634
vn 0.346521 -0.508972 0.787953
vn -0.200887 -0.009653999999999939 0.979567
vn -0.516064 0.33586600000000005 0.787954
vn -0.635831 0.48999700000000007 0.596341
vn -0.729563 0.670709 0.13374499999999998
vn -0.703527 0.697291 -0.13723800000000005
vn -0.631866 0.675123 -0.38072900000000004
vn -0.631865 0.675123 -0.38072900000000004
vn 0.299435 -0.23396700000000006 -0.924985
vn -0.580932 0.4354819999999999 -0.687657
vn 0.817165 -0.511987 -0.26478499999999994
vn 0.460173 -0.42331299999999994 0.780415
vn 0.638397 -0.769086 0.03091100000000005
vn -0.40257 0.503256 -0.764637
vn 0.324383 -0.19536200000000006 -0.925532
vn -0.582177 0.43312999999999996 -0.688091
vn 0.846544 -0.460614 -0.26682999999999996
vn 0.470876 -0.4092799999999999 0.781515
vn 0.683624 -0.729065 0.03349000000000004
vn -0.41976 0.46477799999999997 -0.779605
vn 0.313103 -0.21308500000000005 -0.925506
vn -0.580664 0.43596699999999994 -0.687577
vn 0.832289 -0.486146 -0.2663769999999999
vn 0.465242 -0.4178239999999999 0.780367
vn 0.66172 -0.749072 0.03188900000000005
vn -0.411125 0.48458299999999993 -0.772111
vn 0.28646 -0.25058400000000003 -0.924742
vn -0.582249 0.43413499999999994 -0.687395
vn 0.804252 -0.532491 -0.26387999999999995
vn 0.456605 -0.4274299999999999 0.780267
vn 0.618995 -0.784877 0.02851800000000005
vn -0.39499 0.518125 -0.758637
vn 0.36145 -0.38822399999999996 0.847724
vn 0.372116 -0.634298 0.67764
vn -0.112529 -0.19821699999999995 0.973677
vn -0.113717 -0.03507399999999994 0.992894
vn 0.466697 -0.23722399999999993 0.852009
vn -0.50721 0.30809000000000003 0.804872
vn -0.13012 0.02779600000000006 0.991109
vn -0.584152 0.34298600000000007 0.735614
vn -0.651036 0.757465 -0.04898500000000005
vn -0.757319 0.28992100000000004 0.585161
vn -0.557615 0.745498 -0.36510000000000004
vn -0.551589 0.576674 -0.602659
vn -0.855398 0.505051 -0.11496600000000003
vn -0.930665 0.362819 -0.04716200000000002
vn -0.763325 0.3030959999999999 -0.570499
vn 0.894034 -0.436206 0.10211500000000003
vn 0.743085 -0.662851 0.09194300000000004
vn 0.36145 -0.38822399999999996 0.847724
vn 0.466697 -0.23722399999999993 0.852009
vn 0.850314 -0.408466 -0.331845
vn 0.778372 -0.46425 -0.42262199999999994
vn 0.743085 -0.662851 0.09194300000000004
vn 0.372116 -0.634298 0.67764
vn 0.668896 -0.606731 -0.42948299999999995
vn 0.672402 -0.740136 -0.008619999999999954
g sails
f 1/1/1 2/2/2 3/3/3
f 3/3/3 4/4/4 5/5/5
f 6/6/6 7/7/7 4/4/4
f 4/4/4 8/8/8 9/9/9
f 10/10/10 11/11/11 12/12/12
f 12/12/12 13/13/13 14/14/14
f 15/15/15 16/16/16 13/13/13
f 13/13/13 17/17/17 18/18/18
f 19/19/19 20/20/20 21/21/21
f 21/21/21 22/22/22 23/23/23
f 24/24/24 25/25/25 22/22/22
f 22/22/22 26/26/26 27/27/27
f 28/28/28 29/29/29 30/30/30
f 30/30/30 31/31/31 32/32/32
f 33/33/33 34/34/34 31/31/31
f 31/31/31 35/35/35 36/36/36
f 37/37/37 38/38/38 39/39/39
f 39/39/39 40/40/40 41/41/41
f 42/42/42 43/43/43 40/40/40
f 40/40/40 44/44/44 45/45/45
f 46/46/46 47/47/47 48/48/48
f 48/48/48 49/49/49 50/50/50
f 51/51/51 52/52/52 49/49/49
f 49/49/49 53/53/53 54/54/54
f 55/55/55 56/56/56 57/57/57
f 57/57/57 58/58/58 59/59/59
f 60/60/60 61/61/61 58/58/58
f 58/58/58 62/62/62 63/63/63
f 64/64/64 65/65/65 66/66/66
f 66/66/66 67/67/67 68/68/68
f 69/69/69 70/70/70 67/67/67
f 67/67/67 71/71/71 72/72/72
f 73/73/73 74/74/74 75/75/75
f 75/75/75 76/76/76 77/77/77
f 78/78/78 79/79/79 75/75/75
f 75/75/75 80/80/80 81/81/81
f 82/82/82 83/83/83 84/84/84
f 84/84/84 85/85/85 86/86/86
f 87/87/87 88/88/88 84/84/84
f 84/84/84 89/89/89 90/90/90
f 91/91/91 92/92/92 93/93/93
f 93/93/93 94/94/94 95/95/95
f 96/96/96 97/97/97 93/93/93
f 93/93/93 98/98/98 99/99/99
f 100/100/100 101/101/101 102/102/102
f 102/102/102 103/103/103 104/104/104
f 105/105/105 106/106/106 102/102/102
f 102/102/102 107/107/107 108/108/108
f 109/109/109 110/110/110 111/111/111
f 111/111/111 112/112/112 113/113/113
f 114/114/114 115/115/115 111/111/111
f 111/111/111 116/116/116 117/117/117
f 118/118/118 119/119/119 120/120/120
f 120/120/120 121/121/121 122/122/122
f 123/123/123 124/124/124 120/120/120
f 120/120/120 125/125/125 126/126/126
f 127/127/127 128/128/128 129/129/129
f 129/129/129 130/130/130 131/131/131
f 132/132/132 133/133/133 129/129/129
f 129/129/129 134/134/134 135/135/135
f 136/136/136 137/137/137 138/138/138
f 138/138/138 139/139/139 140/140/140
f 141/141/141 142/142/142 138/138/138
f 138/138/138 143/143/143 144/144/144
f 145/145/145 146/146/146 147/147/147
f 147/147/147 148/148/148 145/145/145
f 149/149/149 150/150/150 151/151/151
f 151/151/151 152/152/152 149/149/149
f 152/152/152 151/151/151 153/153/153
f 153/153/153 154/154/154 152/152/152
f 154/154/154 153/153/153 155/155/155
f 155/155/155 156/156/156 154/154/154
f 156/156/156 155/155/155 157/157/157
f 157/157/157 158/158/158 156/156/156
f 158/158/158 157/157/157 159/159/159
f 159/159/159 160/160/160 158/158/158
f 161/161/161 162/162/162 163/163/163
f 163/163/163 164/164/164 161/161/161
f 165/165/165 161/161/161 164/164/164
f 164/164/164 166/166/166 165/165/165
f 167/167/167 168/168/168 169/169/169
f 169/169/169 170/170/170 167/167/167
f 171/171/171 167/167/167 170/170/170
f 170/170/170 172/172/172 171/171/171
f 173/173/173 174/174/174 175/175/175
f 175/175/175 176/176/176 173/173/173
f 177/177/177 173/173/173 176/176/176
f 176/176/176 178/178/178 177/177/177
f 179/179/179 180/180/180 181/181/181
f 181/181/181 182/182/182 179/179/179
f 183/183/183 179/179/179 182/182/182
f 182/182/182 184/184/184 183/183/183
f 185/185/185 186/186/186 187/187/187
f 187/187/187 188/188/188 185/185/185
f 189/189/189 185/185/185 188/188/188
f 188/188/188 190/190/190 189/189/189
f 191/191/191 192/192/192 193/193/193
f 193/193/193 194/194/194 191/191/191
f 195/195/195 191/191/191 194/194/194
f 194/194/194 196/196/196 195/195/195
f 197/197/197 195/195/195 196/196/196
f 196/196/196 198/198/198 197/197/197
f 199/199/199 197/197/197 198/198/198
f 198/198/198 200/200/200 199/199/199
f 201/201/201 202/202/202 203/203/203
f 203/203/203 204/204/204 201/201/201
f 201/201/201 204/204/204 205/205/205
f 205/205/205 206/206/206 201/201/201
f 207/207/207 208/208/208 209/209/209
f 209/209/209 210/210/210 207/207/207
f 207/207/207 210/210/210 211/211/211
f 211/211/211 212/212/212 207/207/207
f 213/213/213 214/214/214 215/215/215
f 215/215/215 216/216/216 213/213/213
f 213/213/213 216/216/216 217/217/217
f 217/217/217 218/218/218 213/213/213
f 219/219/219 220/220/220 221/221/221
f 221/221/221 222/222/222 219/219/219
f 219/219/219 222/222/222 223/223/223
f 223/223/223 224/224/224 219/219/219
f 225/225/225 226/226/226 227/227/227
f 227/227/227 228/228/228 225/225/225
f 229/229/229 225/225/225 228/228/228
f 228/228/228 227/227/227 230/230/230
f 228/228/228 231/231/231 229/229/229
f 230/230/230 232/232/232 228/228/228
f 231/231/231 228/228/228 232/232/232
f 232/232/232 230/230/230 233/233/233
f 232/232/232 234/234/234 231/231/231
f 233/233/233 235/235/235 236/236/236
f 234/234/234 232/232/232 237/237/237
f 233/233/233 237/237/237 232/232/232
f 236/236/236 237/237/237 233/233/233
f 237/237/237 238/238/238 234/234/234
f 237/237/237 236/236/236 239/239/239
f 239/239/239 238/238/238 237/237/237
f 240/240/240 241/241/241 242/242/242
f 242/242/242 243/243/243 240/240/240
f 240/240/240 244/244/244 245/245/245
f 245/245/245 246/246/246 240/240/240
f 247/247/247 242/242/242 246/246/246
f 246/246/246 245/245/245 248/248/248
f 246/246/246 249/249/249 247/247/247
f 248/248/248 249/249/249 246/246/246
