v 0.219442 0.158602 0.05623299999999999
v 0.222209 0.152149 0.07164099999999998
v 0.822824 0.108413 0.051879999999999996
v 0.222209 0.152149 0.07164099999999998
v 0.227404 0.13891 0.05778599999999999
v 0.822824 0.108413 0.051879999999999996
v 0.41591 0.082107 0.076973
v 0.445871 0.151116 0.07958999999999998
v 0.43 0.158 0.07975899999999998
v 0.400039 0.088991 0.077143
v 0.41591 0.082107 0.076973
v 0.278519 0.025390000000000006 0.129017
v 0.218399 0.174531 0.13461
v 0.202356 0.168058 0.13478
v 0.262476 0.018916000000000006 0.129187
v 0.278519 0.025390000000000006 0.129017
v -0.804556 -0.291619 0.09735100000000001
v 0.224823 0.124229 0.07337399999999998
v 0.217177 0.136396 0.060232999999999995
v -0.815143 -0.266058 0.07154700000000001
v -0.804556 -0.291619 0.09735100000000001
v 0.420643 0.119198 0.07015699999999998
v 0.425433 0.130525 0.058686999999999996
v 0.224823 0.124229 0.07337399999999998
v 0.420643 0.119198 0.07015699999999998
v 0.43 0.158 0.07975899999999998
v 0.445871 0.151116 0.07958999999999998
v 0.446076 0.152632 0.03726999999999999
v 0.430205 0.159516 0.03743899999999999
v 0.400244 0.090507 0.03482199999999999
v 0.416115 0.083623 0.034652999999999996
v 0.41591 0.082107 0.076973
v 0.400039 0.088991 0.077143
v 0.41591 0.082107 0.076973
v 0.416115 0.083623 0.034652999999999996
v 0.446076 0.152632 0.03726999999999999
v 0.445871 0.151116 0.07958999999999998
v 0.400039 0.088991 0.077143
v 0.43 0.158 0.07975899999999998
v 0.430205 0.159516 0.03743899999999999
v 0.400244 0.090507 0.03482199999999999
v 0.415968 0.108723 0.057859999999999995
v 0.420758 0.12005 0.046389999999999994
v 0.425433 0.130525 0.058686999999999996
v 0.420643 0.119198 0.07015699999999998
v 0.202356 0.168058 0.13478
v 0.218399 0.174531 0.13461
v 0.215112 0.178782 -0.01406600000000001
v 0.19907 0.172309 -0.01389600000000001
v 0.25919 0.023167 -0.019489
v 0.275232 0.02964 -0.019659000000000003
v 0.278519 0.025390000000000006 0.129017
v 0.262476 0.018916000000000006 0.129187
v 0.278519 0.025390000000000006 0.129017
v 0.275232 0.02964 -0.019659000000000003
v 0.215112 0.178782 -0.01406600000000001
v 0.218399 0.174531 0.13461
v 0.262476 0.018916000000000006 0.129187
v 0.202356 0.168058 0.13478
v 0.19907 0.172309 -0.01389600000000001
v 0.25919 0.023167 -0.019489
v -0.523629 0.315651 -0.03415100000000002
v -0.524469 0.312303 -0.04392500000000002
v -0.528287 0.309525 -0.027832000000000016
v -0.529647 0.304109 -0.04364600000000002
v -0.532006 0.302392 -0.03370000000000002
v 0.406199 -0.277963 0.11230500000000002
v 0.410903 -0.270518 0.11205200000000001
v 0.404013 -0.279433 0.12318700000000002
v 0.411624 -0.267388 0.12277700000000001
v 0.407366 -0.272897 0.12965900000000002
v 0.224823 0.124229 0.07337399999999998
v -0.804556 -0.291619 0.09735100000000001
v -0.795152 -0.315651 0.06968700000000001
v 0.231615 0.112799 0.05923899999999999
v 0.415968 0.108723 0.057859999999999995
v 0.420643 0.119198 0.07015699999999998
v -0.069934 0.010925000000000002 0.022862
v 0.406199 -0.277963 0.11230500000000002
v 0.404013 -0.279433 0.12318700000000002
v -0.532006 0.302392 -0.03370000000000002
v -0.529647 0.304109 -0.04364600000000002
v -0.074172 0.007759000000000003 0.039554
v 0.407366 -0.272897 0.12965900000000002
v -0.528287 0.309525 -0.027832000000000016
v -0.067429 0.020618000000000004 0.049367
v -0.067429 0.020618000000000004 0.049367
v 0.407366 -0.272897 0.12965900000000002
v 0.411624 -0.267388 0.12277700000000001
v -0.523629 0.315651 -0.03415100000000002
v -0.528287 0.309525 -0.027832000000000016
v -0.059025 0.031732 0.038739
v 0.410903 -0.270518 0.11205200000000001
v -0.524469 0.312303 -0.04392500000000002
v -0.060573 0.025742 0.022358
vt 0.764114 0.987979
vt 0.760636 0.987955
vt 0.762094 0.752746
vt 0.760636 0.987955
vt 0.757159 0.987813
vt 0.762094 0.752746
vt 0.638872 0.509431
vt 0.624266 0.509426
vt 0.624267 0.502479
vt 0.638874 0.502484
vt 0.638872 0.509431
vt 0.258667 0.650213
vt 0.258665 0.705214
vt 0.255856 0.705212
vt 0.255860 0.650213
vt 0.258667 0.650213
vt 0.742211 0.567106
vt 0.744205 0.929897
vt 0.740570 0.929043
vt 0.734916 0.567106
vt 0.742211 0.567106
vt 0.745037 0.982726
vt 0.742807 0.982726
vt 0.744205 0.929897
vt 0.745037 0.982726
vt 0.620909 0.509425
vt 0.624266 0.509426
vt 0.624263 0.526431
vt 0.620907 0.526430
vt 0.642227 0.526438
vt 0.638869 0.526437
vt 0.638872 0.509431
vt 0.642229 0.509433
vt 0.638872 0.509431
vt 0.638869 0.526437
vt 0.624263 0.526431
vt 0.624266 0.509426
vt 0.638867 0.550388
vt 0.624260 0.550386
vt 0.624261 0.533380
vt 0.638867 0.533382
vt 0.745574 0.984977
vt 0.747608 0.982726
vt 0.748118 0.988181
vt 0.746323 0.990479
vt 0.258665 0.711129
vt 0.258665 0.705214
vt 0.282810 0.705216
vt 0.282811 0.711127
vt 0.282813 0.644302
vt 0.282812 0.650213
vt 0.258667 0.650213
vt 0.258668 0.644302
vt 0.258667 0.650213
vt 0.282812 0.650213
vt 0.282810 0.705216
vt 0.258665 0.705214
vt 0.255860 0.650213
vt 0.255856 0.705212
vt 0.231711 0.705207
vt 0.231713 0.650213
vt 0.650856 0.508996
vt 0.649910 0.513145
vt 0.649280 0.506377
vt 0.647939 0.513096
vt 0.647672 0.508909
vt 0.647939 0.980892
vt 0.647838 0.984251
vt 0.645765 0.980892
vt 0.645875 0.986619
vt 0.644163 0.984528
vt 0.744205 0.929897
vt 0.742211 0.567106
vt 0.749511 0.567106
vt 0.748250 0.930663
vt 0.747645 0.982726
vt 0.745037 0.982726
vt 0.647939 0.743866
vt 0.647939 0.980892
vt 0.645765 0.980892
vt 0.645765 0.513200
vt 0.647939 0.513096
vt 0.645765 0.743954
vt 0.643718 0.980892
vt 0.643718 0.513203
vt 0.643718 0.744014
vt 0.654132 0.744118
vt 0.654132 0.980892
vt 0.652084 0.980892
vt 0.652084 0.513322
vt 0.654132 0.513354
vt 0.652084 0.744038
vt 0.649910 0.980892
vt 0.649910 0.513145
vt 0.649910 0.743900
vn 0.079586 0.924456 0.3728909999999999
vn 0.045581 0.18216800000000005 0.98221
vn 0.045581 0.18216800000000005 0.98221
vn 0.045581 0.18216800000000005 0.98221
vn -0.030515 -0.728336 0.68454
vn 0.045581 0.18216800000000005 0.98221
vn -0.284866 -0.673526 0.682066
vn 0.278001 0.622916 0.731226
vn 0.278004 0.622915 0.731225
vn -0.284863 -0.673527 0.682067
vn -0.284866 -0.673526 0.682066
vn 0.279824 -0.675637 0.682066
vn -0.24859 0.635226 0.731225
vn -0.248589 0.635227 0.731225
vn 0.279826 -0.675635 0.682066
vn 0.279824 -0.675637 0.682066
vn -0.086814 0.27018300000000006 0.958887
vn 0.079296 -0.34789999999999993 0.934172
vn -0.107733 0.688351 0.717333
vn -0.240843 0.638329 0.731116
vn -0.086814 0.27018300000000006 0.958887
vn 0.021663 0.3214910000000001 0.946665
vn 0.025158 0.706047 0.707718
vn 0.079296 -0.34789999999999993 0.934172
vn 0.021663 0.3214910000000001 0.946665
vn 0.278004 0.622915 0.731225
vn 0.278001 0.622916 0.731226
vn 0.398008 0.916723 0.034760999999999945
vn 0.398008 0.916723 0.034760999999999945
vn -0.398011 -0.916722 -0.034759999999999944
vn -0.39801 -0.916722 -0.034759999999999944
vn -0.284866 -0.673526 0.682066
vn -0.284863 -0.673527 0.682067
vn 0.91737 -0.397916 -0.009795999999999975
vn 0.917369 -0.397916 -0.009796999999999976
vn 0.91737 -0.397916 -0.009795999999999975
vn 0.91737 -0.397915 -0.009795999999999975
vn -0.91737 0.397916 0.009800999999999976
vn -0.917369 0.397917 0.009802999999999975
vn -0.91737 0.397916 0.009800999999999976
vn -0.91737 0.397915 0.009798999999999976
vn 0.917372 -0.39791 -0.009803999999999976
vn 0.917372 -0.397909 -0.009810999999999976
vn 0.917372 -0.39791 -0.009803999999999976
vn 0.917372 -0.39791 -0.009795999999999975
vn -0.248589 0.635227 0.731225
vn -0.24859 0.635226 0.731225
vn -0.373643 0.926921 0.034760999999999945
vn -0.373644 0.926921 0.034760999999999945
vn 0.373645 -0.92692 -0.034760999999999945
vn 0.373645 -0.92692 -0.034760999999999945
vn 0.279824 -0.675637 0.682066
vn 0.279826 -0.675635 0.682066
vn 0.927308 0.374171 -0.009801000000000023
vn 0.927308 0.374171 -0.009801000000000023
vn 0.927308 0.374171 -0.009801000000000023
vn 0.927308 0.37417 -0.009802000000000023
vn -0.927308 -0.37417 0.009801000000000023
vn -0.927308 -0.37417 0.009801000000000023
vn -0.927308 -0.37417 0.009801000000000023
vn -0.927308 -0.37417 0.009801000000000023
vn -0.842076 0.528311 -0.10860600000000002
vn -0.842068 0.528326 -0.10860100000000003
vn -0.842065 0.52833 -0.10860000000000003
vn -0.842059 0.52834 -0.10859700000000003
vn -0.842059 0.52834 -0.10859700000000003
vn 0.842851 -0.529179 0.09783200000000003
vn 0.842847 -0.529187 0.09782300000000002
vn 0.842846 -0.52919 0.09781600000000003
vn 0.842843 -0.529196 0.09780800000000003
vn 0.842844 -0.529197 0.09780200000000003
vn 0.079296 -0.34789999999999993 0.934172
vn -0.086814 0.27018300000000006 0.958887
vn 0.287557 -0.672493 0.681956
vn 0.13933 -0.736215 0.66225
vn -0.010704 -0.770124 0.637804
vn 0.021663 0.3214910000000001 0.946665
vn -0.479225 -0.839138 -0.25727599999999995
vn -0.477721 -0.852749 -0.21119199999999994
vn -0.525552 -0.845212 0.09702000000000005
vn -0.549568 -0.829274 0.10139000000000005
vn -0.492155 -0.830719 -0.26017199999999996
vn -0.512511 -0.684457 0.518508
vn -0.233351 -0.11663599999999995 0.965372
vn -0.22871 -0.10534899999999994 0.967778
vn 0.039782 0.31934100000000004 0.946804
vn 0.039782 0.31934100000000004 0.946804
vn -0.233351 -0.11663599999999995 0.965372
vn 0.410807 0.781284 0.46992799999999996
vn 0.398717 0.776751 0.48752699999999993
vn -0.22871 -0.10534899999999994 0.967778
vn 0.520014 0.851819 0.06316199999999994
vn 0.548675 0.780182 -0.30045400000000005
vn 0.529896 0.783264 -0.32512800000000003
vn 0.537855 0.774087 -0.33391800000000005
g Material #0
f 1/1/1 2/2/2 3/3/3
f 4/4/4 5/5/5 6/6/6
f 7/7/7 8/8/8 9/9/9
f 9/9/9 10/10/10 11/11/11
f 12/12/12 13/13/13 14/14/14
f 14/14/14 15/15/15 16/16/16
f 17/17/17 18/18/18 19/19/19
f 19/19/19 20/20/20 21/21/21
f 22/22/22 23/23/23 19/19/19
f 19/19/19 24/24/24 25/25/25
f 26/26/26 27/27/27 28/28/28
f 28/28/28 29/29/29 26/26/26
f 30/30/30 31/31/31 32/32/32
f 32/32/32 33/33/33 30/30/30
f 34/34/34 35/35/35 36/36/36
f 36/36/36 37/37/37 34/34/34
f 38/38/38 39/39/39 40/40/40
f 40/40/40 41/41/41 38/38/38
f 42/42/42 43/43/43 44/44/44
f 44/44/44 45/45/45 42/42/42
f 46/46/46 47/47/47 48/48/48
f 48/48/48 49/49/49 46/46/46
f 50/50/50 51/51/51 52/52/52
f 52/52/52 53/53/53 50/50/50
f 54/54/54 55/55/55 56/56/56
f 56/56/56 57/57/57 54/54/54
f 58/58/58 59/59/59 60/60/60
f 60/60/60 61/61/61 58/58/58
f 62/62/62 63/63/63 64/64/64
f 63/63/63 65/65/65 64/64/64
f 65/65/65 66/66/66 64/64/64
f 67/67/67 68/68/68 69/69/69
f 68/68/68 70/70/70 69/69/69
f 70/70/70 71/71/71 69/69/69
f 72/72/72 73/73/73 74/74/74
f 74/74/74 75/75/75 72/72/72
f 72/72/72 75/75/75 76/76/76
f 76/76/76 77/77/77 72/72/72
f 78/78/78 79/79/79 80/80/80
f 81/81/81 82/82/82 78/78/78
f 80/80/80 83/83/83 78/78/78
f 78/78/78 83/83/83 81/81/81
f 83/83/83 80/80/80 84/84/84
f 85/85/85 81/81/81 83/83/83
f 84/84/84 86/86/86 83/83/83
f 83/83/83 86/86/86 85/85/85
f 87/87/87 88/88/88 89/89/89
f 90/90/90 91/91/91 87/87/87
f 89/89/89 92/92/92 87/87/87
f 87/87/87 92/92/92 90/90/90
f 92/92/92 89/89/89 93/93/93
f 94/94/94 90/90/90 92/92/92
f 93/93/93 95/95/95 92/92/92
f 92/92/92 95/95/95 94/94/94
