v -0.151989 0.077398 0.017309999999999996
v -0.111228 0.119244 0.01650099999999999
v -0.212124 0.231317 0.016162999999999986
v -0.162475 0.275887 0.015311999999999982
v 0.024602 0.07412 0.015754999999999998
v 0.068018 0.121636 0.014809999999999993
v -0.222306 0.148581 0.01711599999999999
v -0.289371 0.133403 0.017748999999999994
v -0.258599 0.095232 0.017942999999999994
v 0.192241 -0.186159 0.01712200000000001
v 0.18316 -0.105272 0.01625100000000001
v 0.214006 -0.136228 0.016279000000000005
v 0.250576 -0.08942 0.015308000000000006
v 0.014408 -0.168171 0.01867100000000001
v 0.055674 -0.140724 0.017927000000000005
v 0.149077 -0.22789 0.018105000000000013
vt 0.685991 0.301999
vt 0.685510 0.331256
vt 0.644817 0.333925
vt 0.645473 0.367287
vt 0.719762 0.364464
vt 0.718681 0.396638
vt 0.658975 0.301449
vt 0.649348 0.271974
vt 0.662533 0.269768
vt 0.801767 0.334345
vt 0.784357 0.359201
vt 0.796158 0.359550
vt 0.793934 0.389004
vt 0.764901 0.276529
vt 0.767317 0.300941
vt 0.801767 0.304282
vn 0.007961 0.01058200000000006 0.999912
vn 0.009917 0.012054000000000061 0.999878
vn 0.009326 0.011183000000000061 0.999894
vn 0.008273 0.00986800000000006 0.999917
vn 0.009318 0.011022000000000061 0.999896
vn 0.010347 0.01160200000000006 0.999879
vn 0.007218 0.00985500000000006 0.999925
vn 0.008268 0.01122600000000006 0.999903
vn 0.010043 0.013171000000000061 0.999863
vn 0.010172 0.01204600000000006 0.999876
vn 0.010555 0.01178600000000006 0.999875
vn 0.01116 0.012014000000000061 0.999866
vn 0.01116 0.012014000000000061 0.999866
vn 0.009155 0.012019000000000061 0.999886
vn 0.00826 0.01069500000000006 0.999909
vn 0.008594 0.01091500000000006 0.999904
g flagship
f 1/1/1 14/14/14 15/15/15
f 1/1/1 8/8/8 14/14/14
f 1/1/1 7/7/7 8/8/8
f 8/8/8 9/9/9 14/14/14
f 10/10/10 3/3/3 2/2/2
f 10/10/10 5/5/5 3/3/3
f 10/10/10 11/11/11 5/5/5
f 5/5/5 4/4/4 3/3/3
f 11/11/11 6/6/6 5/5/5
f 11/11/11 13/13/13 6/6/6
f 11/11/11 12/12/12 13/13/13
f 16/16/16 1/1/1 15/15/15
f 16/16/16 2/2/2 1/1/1
f 16/16/16 10/10/10 2/2/2
