v -0.621396 -0.14407099999999998 0.599059
v -0.606849 -0.14279799999999998 0.616076
v -0.578568 0.17959500000000003 0.562139
v -0.578568 0.17959500000000003 0.562139
v -0.59325 0.17837700000000004 0.545122
v -0.590473 0.109017 -6.67536600513235E-18
v -0.578966 0.10616500000000005 0.907475
v -0.564683 0.11810200000000005 0.907475
v -0.564683 0.11810200000000005 0.907475
v -0.576571 0.121267 -7.425462169610105E-18
v -0.638956 1.294855 0.19311099999999992
v -0.722351 1.270161 -7.777493015259007E-17
v -0.708767 1.186975 -7.268125672089647E-17
v -0.629261 1.252058 0.1927909999999999
v -0.638956 1.294855 0.19311099999999992
v -1.190833 0.726694 0.16025999999999996
v -1.208726 0.733466 -4.491183945917063E-17
v -1.252093 0.58518 -3.583194069625241E-17
v -1.252093 0.58518 -3.583194069625241E-17
v -1.228402 0.608796 0.16025999999999999
v -1.150564 0.657168 0.28413099999999997
v -1.228402 0.608796 0.16025999999999999
v -1.228402 0.608796 0.16025999999999999
v -1.127946 0.590316 0.16025999999999999
v -1.110352 0.586619 -3.592005403345106E-17
v -1.252093 0.58518 -3.583194069625241E-17
v -0.036401 1.325195 0.05482899999999992
v 0.475506 1.32256 0.11739399999999992
v 0.462888 1.39801 0.11738799999999992
v 0.462888 1.39801 0.11738799999999992
v -0.048836 1.398376 0.055151999999999916
v -0.629261 1.252058 0.1927909999999999
v -0.638956 1.294855 0.19311099999999992
v -1.208726 0.733466 -4.491183945917063E-17
v -1.190833 0.726694 0.16025999999999996
v -1.085114 0.690104 0.16025999999999996
v -1.057351 0.695735 -4.260148204023919E-17
v -1.208726 0.733466 -4.491183945917063E-17
v -1.150564 0.657168 0.28413099999999997
v -1.190833 0.726694 0.16025999999999996
v -1.127946 0.590316 0.16025999999999999
v -1.057351 0.695735 -4.260148204023919E-17
v -1.110352 0.586619 -3.592005403345106E-17
v -0.578568 0.17959500000000003 0.562139
v -0.564008 0.17572800000000002 0.54437
v -0.578711 0.17450600000000002 0.527354
v -0.59325 0.17837700000000004 0.545122
v -0.592152 -0.14680099999999996 0.598307
v -0.564008 0.17572800000000002 0.54437
v -0.578568 0.17959500000000003 0.562139
v -0.606849 -0.14279799999999998 0.616076
v -0.576571 0.121267 -7.425462169610105E-18
v -0.564683 0.11810200000000005 0.907475
v -0.553376 0.10436800000000006 0.907475
v -0.565392 0.107503 -6.582660242436896E-18
v 0.097181 0.61171 -3.745643467532137E-17
v 0.070985 0.612728 -3.7518769197397973E-17
v 0.073843 0.596846 0.745466
v 0.099718 0.595293 0.745466
v 0.057088 0.43927400000000005 0.775729
v 0.082972 0.43768100000000004 0.775729
v 0.073577 0.451854 -2.7668077739096406E-17
v 0.047351 0.453054 -2.774155654704525E-17
v 0.490538 0.586061 -3.588588638775485E-17
v 0.464195 0.58733 -3.596359022716075E-17
v 0.460848 0.564881 0.745466
v 0.486615 0.5633 0.745466
v 0.444599 0.40690300000000007 0.775729
v 0.470416 0.40530700000000003 0.775729
v 0.468811 0.423788 -2.5949530885852925E-17
v 0.442302 0.425189 -2.6035317394133198E-17
v 0.887696 0.553957 -3.392008334576352E-17
v 0.86131 0.555777 -3.403152620448592E-17
v 0.847926 0.531886 0.745466
v 0.873506 0.530217 0.745466
v 0.832573 0.37395900000000004 0.775729
v 0.858213 0.37231200000000003 0.775729
v 0.869161 0.390726 -2.3925067262182438E-17
v 0.842558 0.392542 -2.4036265191545016E-17
v 1.039422 0.45384800000000003 0.745466
v 1.056112 0.43409000000000003 0.745466
v 1.075385 0.452385 -2.770059211161377E-17
v 1.058266 0.473117 -2.897006098360992E-17
v 0.920478 0.35184200000000004 0.775729
v 0.937245 0.33216200000000007 0.775729
v 0.950901 0.348596 -2.1345348779778538E-17
v 0.933644 0.369122 -2.2602203789743466E-17
v 1.302929 0.170129 -1.0417396764607002E-17
v 1.285419 0.190647 -1.1673761915852272E-17
v 1.258177 0.18412700000000007 0.745466
v 1.274865 0.16448300000000005 0.745466
v 1.140206 0.08313700000000004 0.775729
v 1.15697 0.06356700000000004 0.775729
v 1.179842 0.068423 -4.189700396902967E-18
v 1.162246 0.088824 -5.438901364373225E-18
v 0.475506 1.32256 0.11739399999999992
v 0.52033 1.319522 -8.07974196852257E-17
v 0.507329 1.393786 -8.534477817981965E-17
v 0.462888 1.39801 0.11738799999999992
v -0.994192 -0.117962 7.223089286051004E-18
v -0.979323 -0.13043899999999997 0.272496
v -0.868051 0.006390000000000016 0.272496
v -0.883764 0.018515 -1.1337167743106623E-18
v -0.950313 -0.055835 0.045816
v -0.899772 -0.09539199999999995 0.96515
v -0.901261 -0.07702499999999994 0.966517
v -0.951907 -0.037213 0.047183
v -0.951907 -0.037213 0.047183
v -0.901261 -0.07702499999999994 0.966517
v -0.884027 -0.07561799999999995 0.965208
v -0.934689 -0.035538 0.045874
v -0.854836 -1.180824 7.230461659781871E-17
v -0.901776 -1.153723 0.15358100000000008
v -0.968905 -1.114966 0.11580900000000006
v -1.008308 -1.092216 6.687894141887628E-17
v -0.767432 -1.029438 6.303489758103266E-17
v -0.814372 -1.002335 0.15358100000000005
v -0.901776 -1.153723 0.15358100000000008
v -0.854836 -1.180824 7.230461659781871E-17
v -0.920906 -0.94083 5.760922240209021E-17
v -0.881502 -0.96358 0.11580900000000005
v -0.814372 -1.002335 0.15358100000000005
v -0.767432 -1.029438 6.303489758103266E-17
v -0.604665 -0.07720599999999994 0.817258
v -0.607469 -0.10651899999999995 0.81801
v -0.074545 -0.15423299999999995 0.854562
v -0.071651 -0.12490099999999994 0.85381
v -0.635154 0.09960100000000004 0.78306
v -0.637967 0.07012100000000004 0.783812
v -0.058031 0.01849700000000005 0.821877
v -0.055113 0.048031000000000046 0.821126
v -0.543106 0.19655600000000006 0.805005
v -0.576414 -0.15381899999999996 0.894886
v -0.145227 -0.19261099999999995 0.903326
v -0.110773 0.15849600000000005 0.813445
v -1.124403 0.750274 -4.594103262917406E-17
v -1.124403 0.750274 0.18085899999999994
v -1.199534 0.952916 0.18085899999999994
v -1.199534 0.952916 -5.834927646281496E-17
v -0.606968 0.938539 -5.746893911124789E-17
v -0.606968 0.938539 0.18085899999999994
v -1.124403 0.750274 0.18085899999999994
v -1.124403 0.750274 -4.594103262917406E-17
v -0.682099 1.141181 -6.987718294488878E-17
v -0.682099 1.141181 0.1808589999999999
v -0.606968 0.938539 0.18085899999999994
v -0.606968 0.938539 -5.746893911124789E-17
v -1.199534 0.952916 -5.834927646281496E-17
v -1.199534 0.952916 0.18085899999999994
v -0.682099 1.141181 0.1808589999999999
v -0.682099 1.141181 -6.987718294488878E-17
v -1.199534 0.952916 0.18085899999999994
v -1.124403 0.750274 0.18085899999999994
v -0.606968 0.938539 0.18085899999999994
v -0.682099 1.141181 0.1808589999999999
v -0.355079 -0.831778 0.3283190000000001
v -0.269554 -0.806066 0.37711200000000006
v -0.244941 -0.631343 0.37711200000000006
v -0.348672 -0.590706 0.3283190000000001
v -0.244941 -0.631343 0.37711200000000006
v -0.269554 -0.806066 0.37711200000000006
v -0.118188 -0.770544 0.30008500000000005
v -0.119955 -0.654655 0.30008500000000005
v -0.836561 -0.7008299999999998 1.017282
v -0.833389 -0.6672329999999999 1.016376
v -0.933023 -0.6578459999999999 1.015233
v -0.936065 -0.6914639999999999 1.016139
v -0.825644 -0.24724799999999994 1.027536
v -0.822504 -0.21281699999999995 1.026631
v -0.923087 -0.20287199999999994 1.025487
v -0.926139 -0.23734299999999994 1.026392
v -0.788047 -0.25839299999999993 0.621759
v -0.809506 -0.221849 1.3584333387202057E-17
v -0.85143 -0.726199 4.446686404470044E-17
v -0.828956 -0.677836 0.62176
v 1.367389 0.19401500000000005 0.716127
v 1.348799 0.21697300000000005 0.716891
v 1.114622 0.016637000000000048 0.785849
v 1.133373 -0.006148999999999952 0.785085
v 1.109331 0.527795 0.716128
v 1.090759 0.550918 0.716891
v 0.85433 0.3479920000000001 0.785849
v 0.87307 0.32505400000000007 0.785085
v 0.932958 0.631982 0.716128
v 0.903258 0.634581 0.716891
v 0.862689 0.32917700000000005 0.785849
v 0.891994 0.3266530000000001 0.785086
v 0.505716 0.669361 0.716128
v 0.476017 0.67196 0.716891
v 0.4393 0.36513700000000004 0.785849
v 0.468824 0.36267000000000005 0.785086
v 0.085112 0.706159 0.716128
v 0.055413 0.708757 0.716891
v 0.020538 0.40021500000000004 0.785849
v 0.050126 0.39774100000000007 0.785086
v 0.123082 0.798202 0.062217999999999954
v 0.121603 0.781301 -4.784088844103131E-17
v 0.075892 0.425253 0.18914499999999998
v 0.078808 0.441474 0.23611999999999997
v 0.438271 0.413998 0.23611999999999997
v 0.436031 0.397941 0.18914499999999998
v 0.478991 0.750034 -4.5926336867584296E-17
v 0.48047 0.766935 0.062217999999999954
v 0.123082 0.798202 0.062217999999999954
v 0.48047 0.766935 0.062217999999999954
v 0.478991 0.750034 -4.5926336867584296E-17
v 0.121603 0.781301 -4.784088844103131E-17
v 1.139741 0.045744000000000014 0.240539
v 1.252921 0.18143400000000004 0.240539
v 1.338032 0.121389 -7.432932515084902E-18
v 1.222731 -0.014581 8.92828748918378E-19
v 1.139741 0.045744000000000014 0.240539
v 1.184206 0.006407000000000017 0.273386
v 1.296884 0.14172700000000002 0.273386
v 1.252921 0.18143400000000004 0.240539
v 1.222731 -0.014581 8.92828748918378E-19
v 1.267503 -0.054376 0.037154
v 1.184206 0.006407000000000017 0.273386
v 1.139741 0.045744000000000014 0.240539
v 1.338032 0.121389 -7.432932515084902E-18
v 1.382203 0.08113 0.03715399999999999
v 1.267503 -0.054376 0.037154
v 1.222731 -0.014581 8.92828748918378E-19
v 1.252921 0.18143400000000004 0.240539
v 1.296884 0.14172700000000002 0.273386
v 1.382203 0.08113 0.03715399999999999
v 1.338032 0.121389 -7.432932515084902E-18
v 1.296884 0.14172700000000002 0.273386
v 1.184206 0.006407000000000017 0.273386
v 1.267503 -0.054376 0.037154
v 1.382203 0.08113 0.03715399999999999
v 0.123082 0.798202 0.062217999999999954
v 0.078808 0.441474 0.23611999999999997
v 0.438271 0.413998 0.23611999999999997
v 0.48047 0.766935 0.062217999999999954
v 0.488395 0.389458 0.19141299999999997
v 0.473479 0.409267 0.305862
v 0.514147 0.752188 0.12152499999999995
v 0.527797 0.705697 -4.321147861089449E-17
v 0.851244 0.677394 -4.147841969308111E-17
v 0.872759 0.720807 0.12151199999999995
v 0.833575 0.378925 0.305849
v 0.815364 0.362093 0.19139999999999996
v 0.527797 0.705697 -4.321147861089449E-17
v 0.514147 0.752188 0.12152499999999995
v 0.872759 0.720807 0.12151199999999995
v 0.851244 0.677394 -4.147841969308111E-17
v 0.514147 0.752188 0.12152499999999995
v 0.473479 0.409267 0.305862
v 0.833575 0.378925 0.305849
v 0.872759 0.720807 0.12151199999999995
v 0.877893 0.35074900000000003 0.823637
v 1.147448 0.02197600000000005 0.823637
v 1.335826 0.18316900000000005 0.74803
v 1.068133 0.514203 0.74803
v -0.057155 0.4376510000000001 1.423314
v -0.180125 -0.7894989999999998 1.408843
v -0.180441 -0.7917519999999999 1.479436
v -0.058722 0.4364600000000001 1.479436
v -0.180125 -0.7894989999999998 1.408843
v 0.786457 -0.8699459999999999 1.408843
v 0.787511 -0.8715859999999999 1.479436
v -0.180441 -0.7917519999999999 1.479436
v 0.786457 -0.8699459999999999 1.408843
v 1.107805 -0.6099799999999999 1.408843
v 1.109347 -0.6109509999999999 1.479436
v 0.787511 -0.8715859999999999 1.479436
v 1.107805 -0.6099799999999999 1.408843
v 1.166056 0.04169600000000008 1.408843
v 1.167506 0.04110500000000009 1.479436
v 1.109347 -0.6109509999999999 1.479436
v 1.166056 0.04169600000000008 1.408843
v 0.90052 0.3603360000000001 1.423314
v 0.90089 0.3597210000000001 1.479436
v 1.167506 0.04110500000000009 1.479436
v 0.90052 0.3603360000000001 1.423314
v -0.057155 0.4376510000000001 1.423314
v -0.058722 0.4364600000000001 1.479436
v 0.90089 0.3597210000000001 1.479436
v 0.939613 0.308948 0.19170699999999996
v 0.942383 0.334101 0.306538
v 1.236784 0.581684 0.11429399999999997
v 1.21841 0.541815 -3.317660027400116E-17
v 1.400553 0.3117 -1.9086120364711497E-17
v 1.439674 0.324868 0.11388899999999999
v 1.145111 0.08505100000000002 0.306132
v 1.121339 0.08611000000000002 0.191302
v 1.21841 0.541815 -3.317660027400116E-17
v 1.236784 0.581684 0.11429399999999997
v 1.439674 0.324868 0.11388899999999999
v 1.400553 0.3117 -1.9086120364711497E-17
v 1.236784 0.581684 0.11429399999999997
v 0.942383 0.334101 0.306538
v 1.145111 0.08505100000000002 0.306132
v 1.439674 0.324868 0.11388899999999999
v -0.122321 -0.7983 4.8881776987966607E-17
v -0.135684 -0.762861 0.893971
v -0.122164 -0.645424 0.870733
v -0.114975 -0.690669 4.2291279006015165E-17
v -0.092663 -0.7262569999999999 1.479436
v -0.091583 -0.7240049999999999 1.400877
v 0.01637 0.3542750000000001 1.400877
v 0.013785 0.3523810000000001 1.479436
v 0.767934 -0.7967049999999999 1.479436
v 0.767155 -0.7950789999999999 1.400877
v -0.091583 -0.7240049999999999 1.400877
v -0.092663 -0.7262569999999999 1.479436
v 1.050576 -0.5697919999999999 1.479436
v 1.049232 -0.5687409999999999 1.400877
v 0.767155 -0.7950789999999999 1.400877
v 0.767934 -0.7967049999999999 1.479436
v 1.102412 0.00854900000000009 1.479436
v 1.101192 0.009292000000000085 1.400877
v 1.049232 -0.5687409999999999 1.400877
v 1.050576 -0.5697919999999999 1.479436
v 0.867721 0.28565600000000013 1.479436
v 0.867533 0.2866390000000001 1.400877
v 1.101192 0.009292000000000085 1.400877
v 1.102412 0.00854900000000009 1.479436
v 0.013785 0.3523810000000001 1.479436
v 0.01637 0.3542750000000001 1.400877
v 0.867533 0.2866390000000001 1.400877
v 0.867721 0.28565600000000013 1.479436
v -0.180441 -0.7917519999999999 1.479436
v -0.092663 -0.7262569999999999 1.479436
v 0.013785 0.3523810000000001 1.479436
v -0.058722 0.4364600000000001 1.479436
v 0.787511 -0.8715859999999999 1.479436
v 0.767934 -0.7967049999999999 1.479436
v -0.092663 -0.7262569999999999 1.479436
v -0.180441 -0.7917519999999999 1.479436
v 1.109347 -0.6109509999999999 1.479436
v 1.050576 -0.5697919999999999 1.479436
v 0.767934 -0.7967049999999999 1.479436
v 0.787511 -0.8715859999999999 1.479436
v 1.167506 0.04110500000000009 1.479436
v 1.102412 0.00854900000000009 1.479436
v 1.050576 -0.5697919999999999 1.479436
v 1.109347 -0.6109509999999999 1.479436
v 0.867721 0.28565600000000013 1.479436
v 1.102412 0.00854900000000009 1.479436
v 1.167506 0.04110500000000009 1.479436
v 0.90089 0.3597210000000001 1.479436
v 0.013785 0.3523810000000001 1.479436
v 0.867721 0.28565600000000013 1.479436
v 0.90089 0.3597210000000001 1.479436
v -0.058722 0.4364600000000001 1.479436
v -0.794561 0.200147 -1.2255469145447265E-17
v -0.813407 0.164621 0.204523
v -0.743606 0.134813 0.219781
v -0.871003 0.09823800000000002 0.16434
v -0.794561 0.200147 -1.2255469145447265E-17
v -0.845645 0.112217 -6.8713094929959264E-18
v -0.669714 0.167576 -1.0261070600695843E-17
v -0.690962 0.06079700000000001 0.229745
v -0.616693 0.073051 -4.4730836662256654E-18
v -0.733467 -0.0060259999999999845 0.253001
v -0.664391 -0.035486 2.1728908157271485E-18
v -0.737752 -0.020289 1.2423429453950325E-18
v -0.664391 -0.035486 2.1728908157271485E-18
v -0.820806 -0.008740999999999987 0.220357
v -0.871003 0.09823800000000002 0.16434
v -0.845645 0.112217 -6.8713094929959264E-18
v -0.118188 -0.770544 0.30008500000000005
v -0.269554 -0.806066 0.37711200000000006
v -0.114952 -0.793483 4.858682080639197E-17
v -0.355079 -0.831778 0.3283190000000001
v -0.361003 -0.870957 5.3330735112249063E-17
v -0.583991 -0.996445 6.101465898881922E-17
v -0.583991 -0.996445 0.28247000000000005
v -0.565001 -1.056674 0.28247000000000005
v -0.565001 -1.056673 6.470256035977156E-17
v -0.594162 -1.112689 0.28247000000000005
v -0.594162 -1.112688 6.813248988248351E-17
v -0.654389 -1.131678 0.28247000000000005
v -0.654389 -1.131678 6.929529201827391E-17
v -0.710404 -1.102519 0.28247000000000005
v -0.710404 -1.102519 6.750981821745703E-17
v -0.729395 -1.04229 0.28247000000000005
v -0.729395 -1.04229 6.382185561416473E-17
v -0.700235 -0.986276 0.28247000000000005
v -0.700235 -0.986276 6.039198732379275E-17
v -0.640007 -0.967286 0.28247000000000005
v -0.640007 -0.967286 5.922918518800233E-17
v -0.583991 -0.996445 0.28247000000000005
v -0.583991 -0.996445 6.101465898881922E-17
v -0.486577 -1.414909 0.2862630000000001
v -0.936962 -1.380501 8.453130654348601E-17
v -0.230153 -1.404986 8.603058038734216E-17
v 0.275625 -1.221733 0.16240200000000007
v 0.278119 -1.230038 7.53181049764806E-17
v 0.681359 -1.269005 0.1802880000000001
v 0.829691 -1.282165 7.850996316143831E-17
v -0.958222 -0.204279 1.2508481174151108E-17
v -0.809506 -0.221849 1.3584333387202057E-17
v -0.798 -0.235556 0.18865500000000002
v -0.948825 -0.2178 0.192002
v -0.788568 -0.260492 0.361281
v -0.940614 -0.24258499999999997 0.364628
v -0.787448 -0.34515299999999993 0.512603
v -0.939914 -0.32634599999999997 0.515949
v -0.790294 -0.43141799999999997 0.594105
v -0.942499 -0.41145399999999993 0.597451
v -0.85143 -0.726199 4.446686404470044E-17
v -1.005882 -0.707503 4.332206421685749E-17
v -0.993534 -0.693748 0.19200200000000006
v -0.839206 -0.71233 0.18865600000000005
v -0.981183 -0.666441 0.36462800000000006
v -0.827558 -0.684831 0.36128200000000005
v -0.963826 -0.579139 0.51595
v -0.811124 -0.598084 0.512603
v -0.951492 -0.4914319999999999 0.597452
v -0.799328 -0.511408 0.594106
v -0.075393 -0.15832699999999994 0.893857
v -0.305902 -0.14064899999999994 0.871189
v -0.296053 -0.20429099999999994 0.941419
v -0.082236 -0.22081999999999993 0.941598
v -0.335049 -0.5997719999999999 0.941419
v -0.117876 -0.5851639999999999 0.941598
v -0.336262 -0.66018 0.870554
v -0.122164 -0.645424 0.870733
v -0.322521 -0.700235 4.2877027570047347E-17
v -0.114975 -0.690669 4.2291279006015165E-17
v -0.638956 1.294855 0.19311099999999992
v -0.272582 1.331587 -8.153618786681133E-17
v -0.722351 1.270161 -7.777493015259007E-17
v -0.046541 1.389134 -8.505992533433797E-17
v -0.048836 1.398376 0.055151999999999916
v 0.462888 1.39801 0.11738799999999992
v 0.507329 1.393786 -8.534477817981965E-17
v -0.708767 1.186975 -7.268125672089647E-17
v -0.254711 1.207399 -7.393186603218575E-17
v -0.629261 1.252058 0.1927909999999999
v -0.036401 1.325195 0.05482899999999992
v -0.033793 1.317036 -8.064519608809168E-17
v 0.475506 1.32256 0.11739399999999992
v 0.52033 1.319522 -8.07974196852257E-17
v -1.199652 1.029687 -6.305014443368204E-17
v -0.810868 1.182339 -7.239738359285412E-17
v -0.896892 1.185406 0.2080889999999999
v -1.308865 1.102009 0.30483299999999997
v -1.271484 0.847661 -5.190426652060223E-17
v -1.390809 0.903933 0.22197799999999995
v -1.186984 0.274843 -1.68292800109028E-17
v -1.212066 0.439193 0.12171099999999997
v -1.288451 0.433105 0.12170599999999997
v -1.262122 0.268351 -1.643175965989957E-17
v -1.186984 0.274843 -1.68292800109028E-17
v -1.212066 0.439193 0.12171099999999997
v -1.462738 0.930647 0.22198199999999996
v -1.390809 0.903933 0.22197799999999995
v -1.362596 1.156368 0.30483699999999997
v -1.308865 1.102009 0.30483299999999997
v -0.902885 1.261668 0.2080819999999999
v -0.896892 1.185406 0.2080889999999999
v -0.817347 1.257454 -7.699685080875179E-17
v -0.810868 1.182339 -7.239738359285412E-17
v -0.492764 -1.33843 0.28626700000000005
v -0.237341 -1.329894 8.14325215152635E-17
v -0.943453 -1.305363 7.993043098376933E-17
v 0.271495 -1.154913 7.071802543718336E-17
v 0.269406 -1.145555 0.16240600000000008
v 0.675365 -1.192743 0.18028100000000008
v 0.823212 -1.207051 7.391055717788059E-17
v -0.492764 -1.33843 0.28626700000000005
v -0.943453 -1.305363 7.993043098376933E-17
v -0.936962 -1.380501 8.453130654348601E-17
v -0.486577 -1.414909 0.2862630000000001
v 0.269406 -1.145555 0.16240600000000008
v 0.275625 -1.221733 0.16240200000000007
v 0.675365 -1.192743 0.18028100000000008
v 0.681359 -1.269005 0.1802880000000001
v 0.823212 -1.207051 7.391055717788059E-17
v 0.829691 -1.282165 7.850996316143831E-17
v 0.480552 0.624773 0.74803
v 0.053542 0.65993 0.74803
v 0.026511 0.4077430000000001 0.823637
v 0.454399 0.37184300000000003 0.823637
v 0.904692 0.588372 0.74803
v 0.880144 0.33570800000000006 0.823637
v 1.135234 0.032089000000000055 0.893912
v 1.140021 0.02859000000000009 1.479436
v 1.084311 -0.5947489999999999 1.479436
v 1.079264 -0.596324 0.893932
v 1.157985 0.036649 -2.2441040270975676E-18
v 1.102925 -0.621036 3.802748747776379E-17
v 0.887093 0.33415500000000004 0.893932
v 0.887634 0.3276790000000001 1.479436
v 1.140021 0.02859000000000009 1.479436
v 1.135234 0.032089000000000055 0.893912
v 0.899365 0.352568 -2.15885636340892E-17
v 1.157985 0.036649 -2.2441040270975676E-18
v 0.778903 -0.843606 0.893932
v 0.79688 -0.893998 5.474158945720677E-17
v 1.102925 -0.621036 3.802748747776379E-17
v 1.079264 -0.596324 0.893932
v 0.780172 -0.8388059999999999 1.479436
v 1.084311 -0.5947489999999999 1.479436
v -0.020311 0.41067800000000004 0.893853
v -0.031521 0.4244 -2.5987005077906835E-17
v -0.081075 -0.108668 6.653995918487229E-18
v -0.122164 -0.645424 0.870733
v -0.030995 0.4004080000000001 1.479436
v -0.146084 -0.7626259999999999 1.479436
v -0.135684 -0.762861 0.893971
v 0.01637 0.3542750000000001 1.400877
v -0.091583 -0.7240049999999999 1.400877
v 0.867533 0.2866390000000001 1.400877
v 0.767155 -0.7950789999999999 1.400877
v 1.049232 -0.5687409999999999 1.400877
v 1.101192 0.009292000000000085 1.400877
v -1.262122 0.268351 -1.643175965989957E-17
v -1.288451 0.433105 0.12170599999999997
v -1.462738 0.930647 0.22198199999999996
v -1.444523 0.940058 -5.756195103564312E-17
v -1.408187 1.180053 -7.225740646371158E-17
v -1.362596 1.156368 0.30483699999999997
v -0.902885 1.261668 0.2080819999999999
v -0.817347 1.257454 -7.699685080875179E-17
v -0.881502 -0.96358 0.11580900000000005
v -0.920906 -0.94083 5.760922240209021E-17
v -1.008308 -1.092216 6.687894141887628E-17
v -0.968905 -1.114966 0.11580900000000006
v -0.901776 -1.153723 0.15358100000000008
v -0.814372 -1.002335 0.15358100000000005
v -0.94445 -0.064495 3.949179765550427E-18
v -0.958222 -0.204279 1.2508481174151108E-17
v -0.948825 -0.2178 0.192002
v -0.940614 -0.24258499999999997 0.364628
v -0.845807 -0.21212399999999995 1.113259
v -0.939914 -0.32634599999999997 0.515949
v -0.942499 -0.41145399999999993 0.597451
v -0.951492 -0.4914319999999999 0.597452
v -0.903674 -0.027934 1.7104641843691083E-18
v -0.075393 -0.15832699999999994 0.893857
v -0.081075 -0.108668 6.653995918487229E-18
v -0.305902 -0.14064899999999994 0.871189
v -0.876805 -0.5028499999999999 1.147908
v -0.963826 -0.579139 0.51595
v -0.981183 -0.666441 0.36462800000000006
v -0.749883 -0.13360599999999995 1.077004
v -0.929096 -0.729573 0.868475
v -0.993534 -0.693748 0.19200200000000006
v -1.005882 -0.707503 4.332206421685749E-17
v -1.018754 -0.835371 5.115172106252618E-17
v -0.982537 -0.878677 5.380344877671995E-17
v -0.554734 -0.1427489999999999 1.165065
v -0.741915 -0.1591269999999999 1.183189
v -0.777473 -0.23704799999999993 1.212852
v -0.714444 -0.21473299999999992 1.542426
v -0.603809 -0.2290709999999999 1.524359
v -0.751045 -0.24570699999999993 1.542426
v -0.57349 -0.2680249999999999 1.54511
v -0.77108 -0.4778699999999999 1.524359
v -0.457336 -0.23957199999999992 1.18215
v -0.593991 -0.5005309999999998 1.569525
v -0.486928 -0.5477549999999999 1.143394
v -0.47655 -0.16722099999999995 1.111375
v -0.39472 -0.23787299999999995 1.111523
v -0.429356 -0.5830259999999999 1.091621
v -0.296053 -0.20429099999999994 0.941419
v -0.335049 -0.5997719999999999 0.941419
v -0.808118 -0.48725899999999994 1.232374
v -0.753126 -0.5836679999999999 1.214378
v -0.740537 -0.5166139999999999 1.545111
v -0.563219 -0.5995689999999999 1.21987
v -0.630829 -0.5314789999999999 1.569525
v -0.841728 -0.6848179999999999 1.107782
v -0.486928 -0.5477549999999999 1.143394
v -0.593991 -0.5005309999999998 1.569525
v -0.565932 -0.7117829999999999 1.104636
v -0.893175 -0.6658079999999998 1.061872
v -0.880025 -0.768437 0.888947
v -0.549251 -0.80589 0.885801
v -0.461771 -0.945382 5.788795201357615E-17
v -0.343394 -0.917943 5.620779783748594E-17
v -0.44031 -0.6897729999999999 1.085399
v -0.429356 -0.5830259999999999 1.091621
v -0.335049 -0.5997719999999999 0.941419
v -0.336262 -0.66018 0.870554
v -0.322521 -0.700235 4.2877027570047347E-17
v 0.899365 0.352568 -2.15885636340892E-17
v -0.031521 0.4244 -2.5987005077906835E-17
v -0.020311 0.41067800000000004 0.893853
v 0.887093 0.33415500000000004 0.893932
v 0.887634 0.3276790000000001 1.479436
v -0.030995 0.4004080000000001 1.479436
v -0.135684 -0.762861 0.893971
v -0.122321 -0.7983 4.8881776987966607E-17
v 0.79688 -0.893998 5.474158945720677E-17
v 0.778903 -0.843606 0.893932
v 0.780172 -0.8388059999999999 1.479436
v -0.146084 -0.7626259999999999 1.479436
v -0.72883 -0.008310999999999987 0.23758
v -0.686808 0.06110400000000001 0.219875
v -0.812364 -0.011097999999999988 0.195581
v -0.806852 0.166719 0.178199
v -0.869929 0.09834800000000002 0.161908
v -0.733584 0.135477 0.199993
v -0.729395 -1.04229 0.28247000000000005
v -0.710404 -1.102519 0.28247000000000005
v -0.700235 -0.986276 0.28247000000000005
v -0.583991 -0.996445 0.28247000000000005
v -0.640007 -0.967286 0.28247000000000005
v -0.594162 -1.112689 0.28247000000000005
v -0.565001 -1.056674 0.28247000000000005
v -0.654389 -1.131678 0.28247000000000005
v -0.751045 -0.24570699999999993 1.542426
v -0.603809 -0.2290709999999999 1.524359
v -0.714444 -0.21473299999999992 1.542426
v -0.593991 -0.5005309999999998 1.569525
v -0.57349 -0.2680249999999999 1.54511
v -0.740537 -0.5166139999999999 1.545111
v -0.630829 -0.5314789999999999 1.569525
v -0.77108 -0.4778699999999999 1.524359
v 0.878625 -0.5418719999999999 1.39752
v 0.995758 -0.2746169999999999 1.39752
v 0.912488 -0.4010919999999999 1.558625
v 0.723758 -0.5805459999999999 1.58691
v 0.620539 -0.6898539999999999 1.39752
v 0.914996 -0.14636499999999988 1.58691
v 0.929168 0.010620000000000084 1.397521
v 0.470307 -0.6558649999999999 1.558625
v 0.318942 -0.6653789999999999 1.39752
v 0.743121 -0.3389409999999999 1.703959
v 0.480266 -0.4909909999999999 1.703959
v 0.230978 -0.5426339999999998 1.58691
v 0.090173 -0.4786849999999999 1.39752
v 0.498089 -0.2475659999999999 1.757761
v 0.075776 -0.3377949999999999 1.558624
v 0.023225 -0.19865699999999992 1.39752
v 0.244935 -0.30382399999999987 1.703959
v 0.118426 -0.0887809999999999 1.58691
v 0.14431 0.07073100000000009 1.397521
v 0.366073 -0.0344639999999999 1.703959
v 0.282341 0.1202230000000001 1.558624
v 0.40565 0.22554400000000008 1.39752
v 0.673553 -0.055110999999999896 1.703959
v 0.545705 0.1616240000000001 1.58691
v 0.704694 0.20261700000000007 1.39752
v 0.797357 0.0830900000000001 1.558625
vt 0.129699 0.391094
vt 0.129699 0.397832
vt 0.086656 0.397867
vt 0.086656 0.397867
vt 0.086656 0.391487
vt 0.986546 0.994952
vt 0.986546 0.750290
vt 0.989025 0.750290
vt 0.989025 0.750290
vt 0.989025 0.994952
vt 0.767436 0.498668
vt 0.767436 0.557991
vt 0.757922 0.557991
vt 0.757922 0.498668
vt 0.767436 0.498668
vt 0.044973 0.264106
vt 0.044506 0.315635
vt 0.033464 0.312540
vt 0.033464 0.312540
vt 0.035716 0.260301
vt 0.036811 0.217713
vt 0.035716 0.260301
vt 0.035716 0.260301
vt 0.029103 0.232256
vt 0.022364 0.275121
vt 0.033464 0.312540
vt 0.757921 0.326983
vt 0.757921 0.185123
vt 0.767436 0.185123
vt 0.767436 0.185123
vt 0.767436 0.326983
vt 0.757922 0.498668
vt 0.767436 0.498668
vt 0.044506 0.315635
vt 0.044973 0.264106
vt 0.053490 0.249550
vt 0.059488 0.296141
vt 0.044506 0.315635
vt 0.047721 0.217778
vt 0.044973 0.264106
vt 0.058053 0.222968
vt 0.059488 0.296141
vt 0.063362 0.269815
vt 0.082858 0.395376
vt 0.082858 0.402021
vt 0.079723 0.401848
vt 0.079723 0.395569
vt 0.129699 0.404852
vt 0.086656 0.404512
vt 0.086656 0.397867
vt 0.129699 0.397832
vt 0.989025 0.994952
vt 0.989025 0.750290
vt 0.991399 0.750290
vt 0.991532 0.994705
vt 0.794080 0.058910
vt 0.794080 0.069023
vt 0.696686 0.069024
vt 0.696686 0.058911
vt 0.591410 0.069483
vt 0.591410 0.059370
vt 0.692794 0.059370
vt 0.692794 0.069483
vt 0.794022 0.039228
vt 0.794022 0.049341
vt 0.696629 0.049341
vt 0.696629 0.039228
vt 0.486621 0.027916
vt 0.486621 0.017803
vt 0.586078 0.017802
vt 0.586078 0.027915
vt 0.794185 0.008610
vt 0.794185 0.018723
vt 0.696791 0.018724
vt 0.696791 0.008611
vt 0.383004 0.022215
vt 0.383004 0.012102
vt 0.482822 0.012101
vt 0.482822 0.022214
vt 0.802994 0.021417
vt 0.802994 0.011303
vt 0.900388 0.011303
vt 0.900388 0.021416
vt 0.591454 0.045465
vt 0.591454 0.035352
vt 0.692838 0.035351
vt 0.692838 0.045464
vt 0.901146 0.042241
vt 0.901146 0.052354
vt 0.803753 0.052355
vt 0.803753 0.042242
vt 0.591258 0.016015
vt 0.591258 0.005901
vt 0.692642 0.005901
vt 0.692642 0.016014
vt 0.757921 0.185123
vt 0.757921 0.154288
vt 0.767436 0.154288
vt 0.767436 0.185123
vt 0.615615 0.591205
vt 0.615615 0.520446
vt 0.640684 0.520446
vt 0.640684 0.591205
vt 0.657599 0.508422
vt 0.658236 0.255119
vt 0.660707 0.255038
vt 0.660070 0.508341
vt 0.650705 0.508145
vt 0.650686 0.254838
vt 0.653051 0.254941
vt 0.653071 0.508247
vt 0.061687 0.336031
vt 0.075597 0.304415
vt 0.084028 0.322087
vt 0.084028 0.354273
vt 0.109449 0.257813
vt 0.109449 0.300315
vt 0.088429 0.300315
vt 0.088429 0.257813
vt 0.080392 0.307678
vt 0.080391 0.275492
vt 0.071962 0.257820
vt 0.058051 0.289436
vt 0.994329 0.590778
vt 0.996864 0.591083
vt 0.996953 0.733956
vt 0.994418 0.733651
vt 0.994089 0.412472
vt 0.996713 0.412805
vt 0.997202 0.576389
vt 0.994579 0.576056
vt 0.982782 0.994885
vt 0.923958 0.995361
vt 0.923352 0.848850
vt 0.982175 0.848373
vt 0.064072 0.706048
vt 0.064072 0.754136
vt 0.035652 0.754136
vt 0.035652 0.706048
vt 0.075222 0.653902
vt 0.075222 0.698897
vt 0.003729 0.698897
vt 0.003729 0.653902
vt 0.031567 0.706261
vt 0.031567 0.754349
vt 0.003147 0.754349
vt 0.003147 0.706261
vt 0.074690 0.598457
vt 0.074690 0.644016
vt 0.003197 0.644016
vt 0.003197 0.598457
vt 0.076056 0.760448
vt 0.076096 0.816447
vt 0.003384 0.817453
vt 0.003344 0.761454
vt 0.610766 0.254396
vt 0.622551 0.264796
vt 0.622533 0.313182
vt 0.608082 0.320013
vt 0.622533 0.313182
vt 0.622551 0.264796
vt 0.641676 0.281977
vt 0.639970 0.313042
vt 0.141587 0.333981
vt 0.148626 0.333866
vt 0.148822 0.361795
vt 0.141475 0.361795
vt 0.078348 0.392197
vt 0.078412 0.406838
vt 0.064603 0.406748
vt 0.064603 0.391968
vt 0.407279 0.304765
vt 0.412363 0.472444
vt 0.345712 0.472470
vt 0.350710 0.305402
vt 0.802163 0.118744
vt 0.802163 0.106191
vt 0.844115 0.105453
vt 0.844115 0.118185
vt 0.744978 0.974814
vt 0.744978 0.987153
vt 0.703025 0.987857
vt 0.703025 0.975357
vt 0.723677 0.160635
vt 0.723677 0.171933
vt 0.681724 0.172564
vt 0.681724 0.161124
vt 0.871446 0.184322
vt 0.871446 0.171942
vt 0.913399 0.171238
vt 0.913399 0.183778
vt 0.801908 0.083452
vt 0.801908 0.071430
vt 0.843861 0.070758
vt 0.843861 0.082924
vt 0.921636 0.416455
vt 0.927529 0.416455
vt 0.927529 0.547050
vt 0.921636 0.547051
vt 0.921636 0.169350
vt 0.927528 0.169350
vt 0.927529 0.299946
vt 0.921636 0.299946
vt 0.921636 0.416455
vt 0.921636 0.299946
vt 0.927529 0.299946
vt 0.927529 0.416455
vt 0.968652 0.169289
vt 0.989230 0.169289
vt 0.989230 0.239048
vt 0.968652 0.239048
vt 0.930554 0.353946
vt 0.939216 0.353391
vt 0.939216 0.396283
vt 0.930554 0.396283
vt 0.930554 0.285633
vt 0.939216 0.285633
vt 0.939216 0.353391
vt 0.930554 0.353946
vt 0.930554 0.238160
vt 0.939216 0.238160
vt 0.939216 0.285633
vt 0.930554 0.285633
vt 0.930554 0.169495
vt 0.939216 0.169495
vt 0.939216 0.238160
vt 0.930554 0.238160
vt 0.942734 0.169710
vt 0.965088 0.169711
vt 0.965088 0.239470
vt 0.942734 0.239470
vt 0.923648 0.838874
vt 0.923648 0.701178
vt 0.982358 0.701178
vt 0.982358 0.838874
vt 0.639575 0.146989
vt 0.633823 0.119029
vt 0.687053 0.119029
vt 0.689381 0.146989
vt 0.733358 0.146989
vt 0.735685 0.119029
vt 0.788915 0.119029
vt 0.783164 0.146989
vt 0.689381 0.146989
vt 0.687053 0.119029
vt 0.735685 0.119029
vt 0.733358 0.146989
vt 0.923945 0.690844
vt 0.923945 0.557926
vt 0.982003 0.557927
vt 0.982003 0.690844
vt 0.942859 0.397117
vt 0.942859 0.252163
vt 0.980302 0.252162
vt 0.980303 0.397117
vt 0.156141 0.589322
vt 0.002217 0.589322
vt 0.002217 0.570908
vt 0.156141 0.570908
vt 0.611611 0.589322
vt 0.488454 0.589322
vt 0.488454 0.570908
vt 0.611611 0.570908
vt 0.484053 0.589322
vt 0.432449 0.589322
vt 0.432449 0.570908
vt 0.484053 0.570908
vt 0.428657 0.589322
vt 0.345411 0.589322
vt 0.345411 0.570908
vt 0.428657 0.570908
vt 0.341120 0.589322
vt 0.290169 0.589322
vt 0.290169 0.570908
vt 0.341120 0.570908
vt 0.285878 0.589322
vt 0.160839 0.589322
vt 0.160839 0.570908
vt 0.285878 0.570908
vt 0.638300 0.111747
vt 0.632549 0.083108
vt 0.687710 0.083108
vt 0.690037 0.111747
vt 0.728564 0.111747
vt 0.730891 0.083108
vt 0.786052 0.083108
vt 0.780301 0.111747
vt 0.690037 0.111747
vt 0.687710 0.083108
vt 0.730891 0.083108
vt 0.728564 0.111747
vt 0.930991 0.545914
vt 0.930991 0.410776
vt 0.981578 0.410776
vt 0.981578 0.545914
vt 0.680997 0.995801
vt 0.680997 0.755038
vt 0.701592 0.755038
vt 0.699131 0.995801
vt 0.010463 0.538623
vt 0.010463 0.522895
vt 0.147895 0.522895
vt 0.147895 0.538623
vt 0.491047 0.538623
vt 0.491047 0.522895
vt 0.601999 0.522895
vt 0.601999 0.538623
vt 0.434326 0.538623
vt 0.434326 0.522895
vt 0.479199 0.522895
vt 0.479199 0.538623
vt 0.349871 0.538623
vt 0.349871 0.522895
vt 0.424198 0.522895
vt 0.424198 0.538623
vt 0.293492 0.538623
vt 0.293492 0.522895
vt 0.337797 0.522895
vt 0.337797 0.538623
vt 0.170662 0.538623
vt 0.170662 0.522895
vt 0.282303 0.522895
vt 0.282303 0.538623
vt 0.002217 0.564838
vt 0.010463 0.543969
vt 0.147895 0.543969
vt 0.156141 0.564838
vt 0.488454 0.564838
vt 0.491047 0.543969
vt 0.601999 0.543969
vt 0.611611 0.564838
vt 0.432449 0.564838
vt 0.434326 0.543969
vt 0.479199 0.543969
vt 0.484053 0.564838
vt 0.345411 0.564838
vt 0.349871 0.543969
vt 0.424198 0.543969
vt 0.428657 0.564838
vt 0.293492 0.543969
vt 0.337797 0.543969
vt 0.341120 0.564838
vt 0.290169 0.564838
vt 0.170662 0.543969
vt 0.282303 0.543969
vt 0.285878 0.564838
vt 0.160839 0.564838
vt 0.116996 0.068007
vt 0.116996 0.007632
vt 0.129803 0.007632
vt 0.105642 0.007632
vt 0.116996 0.068007
vt 0.105642 0.068007
vt 0.129803 0.068007
vt 0.144924 0.007632
vt 0.144924 0.068007
vt 0.160912 0.007632
vt 0.160912 0.068007
vt 0.172347 0.068007
vt 0.160912 0.068007
vt 0.172347 0.007632
vt 0.193387 0.007632
vt 0.193387 0.068007
vt 0.609587 0.348628
vt 0.627840 0.326612
vt 0.609691 0.432625
vt 0.638524 0.342493
vt 0.639503 0.432776
vt 0.004155 0.085631
vt 0.004155 0.007857
vt 0.015853 0.007857
vt 0.015853 0.085631
vt 0.028088 0.007857
vt 0.028088 0.085631
vt 0.041382 0.007857
vt 0.041382 0.085631
vt 0.053563 0.007857
vt 0.053563 0.085631
vt 0.065261 0.007857
vt 0.065261 0.085631
vt 0.077496 0.007857
vt 0.077496 0.085631
vt 0.089965 0.007857
vt 0.089965 0.085631
vt 0.101538 0.007857
vt 0.101538 0.085631
vt 0.730615 0.604381
vt 0.693031 0.728598
vt 0.693030 0.534262
vt 0.716300 0.387710
vt 0.693029 0.386708
vt 0.719450 0.274214
vt 0.693029 0.233176
vt 0.573277 0.436091
vt 0.547321 0.436091
vt 0.547321 0.386443
vt 0.573277 0.386443
vt 0.547321 0.339658
vt 0.573277 0.339658
vt 0.547321 0.293002
vt 0.573277 0.293002
vt 0.547321 0.260892
vt 0.573277 0.260892
vt 0.604393 0.435854
vt 0.577458 0.435854
vt 0.577458 0.386206
vt 0.604393 0.386206
vt 0.577458 0.339422
vt 0.604393 0.339422
vt 0.577458 0.292766
vt 0.604393 0.292766
vt 0.577458 0.260656
vt 0.604393 0.260656
vt 0.188538 0.080525
vt 0.217161 0.080525
vt 0.217161 0.104255
vt 0.188538 0.104255
vt 0.217161 0.209935
vt 0.188538 0.209971
vt 0.217161 0.235480
vt 0.188538 0.235424
vt 0.217161 0.471574
vt 0.188538 0.471580
vt 0.796627 0.176888
vt 0.770264 0.280401
vt 0.770263 0.152734
vt 0.770264 0.344484
vt 0.777629 0.344376
vt 0.783967 0.488202
vt 0.770265 0.499416
vt 0.754332 0.153698
vt 0.754332 0.280993
vt 0.726327 0.181448
vt 0.747464 0.347277
vt 0.754333 0.347924
vt 0.738734 0.490500
vt 0.754333 0.502811
vt 0.848969 0.296181
vt 0.848968 0.180552
vt 0.876637 0.201161
vt 0.891825 0.316305
vt 0.848969 0.383693
vt 0.881149 0.361622
vt 0.848970 0.543471
vt 0.866638 0.498161
vt 0.844594 0.489226
vt 0.844594 0.544089
vt 0.834673 0.544089
vt 0.834673 0.489226
vt 0.844594 0.355649
vt 0.834673 0.355649
vt 0.844594 0.291984
vt 0.834673 0.291984
vt 0.844594 0.195192
vt 0.834673 0.195192
vt 0.844594 0.135851
vt 0.834673 0.135851
vt 0.879780 0.558265
vt 0.917557 0.488773
vt 0.917557 0.682879
vt 0.917557 0.341096
vt 0.894355 0.341762
vt 0.891450 0.228174
vt 0.917556 0.187523
vt 0.689604 0.580361
vt 0.689604 0.727312
vt 0.680891 0.727217
vt 0.680891 0.580361
vt 0.689604 0.364633
vt 0.680890 0.364618
vt 0.689604 0.253011
vt 0.680890 0.253060
vt 0.689603 0.186988
vt 0.680890 0.186942
vt 0.919409 0.155972
vt 0.849226 0.155972
vt 0.849226 0.071602
vt 0.919409 0.071602
vt 0.989591 0.155972
vt 0.989591 0.071602
vt 0.416438 0.755607
vt 0.416438 0.598547
vt 0.496194 0.598547
vt 0.496194 0.755607
vt 0.416438 0.993556
vt 0.496194 0.993556
vt 0.360260 0.755607
vt 0.360260 0.598547
vt 0.412058 0.598547
vt 0.412058 0.755607
vt 0.360260 0.993418
vt 0.412058 0.993556
vt 0.551890 0.755607
vt 0.551890 0.993556
vt 0.500250 0.993556
vt 0.500250 0.755607
vt 0.551890 0.598547
vt 0.500250 0.598547
vt 0.234549 0.755607
vt 0.234549 0.993399
vt 0.166440 0.993536
vt 0.095043 0.761806
vt 0.234549 0.598527
vt 0.079078 0.598527
vt 0.079078 0.755541
vt 0.002760 0.465740
vt 0.003481 0.094568
vt 0.142115 0.466870
vt 0.142836 0.095699
vt 0.185081 0.182649
vt 0.184696 0.380607
vt 0.830928 0.543290
vt 0.811705 0.499327
vt 0.802010 0.360937
vt 0.830928 0.362123
vt 0.830927 0.300005
vt 0.793867 0.295606
vt 0.801610 0.170944
vt 0.830927 0.145206
vt 0.109449 0.324986
vt 0.109449 0.357172
vt 0.088429 0.357172
vt 0.088429 0.324986
vt 0.088429 0.300315
vt 0.109449 0.300315
vt 0.425917 0.472506
vt 0.412363 0.472444
vt 0.410631 0.422155
vt 0.407318 0.375262
vt 0.420516 0.171358
vt 0.395947 0.334171
vt 0.384302 0.312027
vt 0.373514 0.312054
vt 0.431670 0.472506
vt 0.531944 0.231076
vt 0.531875 0.472506
vt 0.503661 0.237246
vt 0.367433 0.161927
vt 0.362018 0.334184
vt 0.350749 0.375295
vt 0.439594 0.181226
vt 0.335454 0.237984
vt 0.347440 0.422178
vt 0.345712 0.472470
vt 0.333841 0.472506
vt 0.327713 0.472506
vt 0.470829 0.157257
vt 0.438846 0.152324
vt 0.425567 0.144251
vt 0.439852 0.054546
vt 0.461964 0.059463
vt 0.429966 0.054546
vt 0.469792 0.052159
vt 0.371558 0.059463
vt 0.497025 0.154603
vt 0.552103 0.048898
vt 0.595636 0.158182
vt 0.485860 0.171871
vt 0.508148 0.171831
vt 0.607171 0.177248
vt 0.518384 0.218130
vt 0.622219 0.218130
vt 0.368911 0.138937
vt 0.338464 0.143835
vt 0.356929 0.053815
vt 0.279251 0.142340
vt 0.323387 0.047170
vt 0.331969 0.172849
vt 0.248198 0.137459
vt 0.315459 0.047170
vt 0.279259 0.173705
vt 0.339979 0.185345
vt 0.326519 0.232412
vt 0.276464 0.233269
vt 0.267585 0.472506
vt 0.252794 0.472506
vt 0.251237 0.178941
vt 0.238509 0.176204
vt 0.220175 0.218130
vt 0.230586 0.237419
vt 0.232099 0.472506
vt 0.356615 0.993399
vt 0.238155 0.993399
vt 0.238155 0.755607
vt 0.356615 0.755607
vt 0.356615 0.598527
vt 0.238155 0.598527
vt 0.675192 0.755607
vt 0.675192 0.993556
vt 0.555866 0.993556
vt 0.555866 0.755607
vt 0.555866 0.598547
vt 0.675192 0.598547
vt 0.036009 0.329033
vt 0.051900 0.322369
vt 0.031860 0.361639
vt 0.061944 0.377936
vt 0.047513 0.394017
vt 0.061058 0.348286
vt 0.160318 0.222942
vt 0.160602 0.244044
vt 0.152810 0.208432
vt 0.135370 0.224343
vt 0.142476 0.209012
vt 0.143162 0.259956
vt 0.135654 0.245445
vt 0.153496 0.259376
vt 0.604216 0.509053
vt 0.609069 0.457151
vt 0.609069 0.499267
vt 0.572282 0.447187
vt 0.604216 0.447187
vt 0.567812 0.499267
vt 0.567812 0.457151
vt 0.572282 0.509053
vt 0.874059 0.943508
vt 0.811262 0.983865
vt 0.834772 0.915688
vt 0.869013 0.854715
vt 0.913235 0.836777
vt 0.788994 0.906096
vt 0.747909 0.943088
vt 0.887722 0.771425
vt 0.913227 0.706072
vt 0.823696 0.848039
vt 0.851806 0.771420
vt 0.868997 0.688141
vt 0.874058 0.599344
vt 0.811284 0.771465
vt 0.834781 0.627175
vt 0.811257 0.558976
vt 0.823631 0.694713
vt 0.788986 0.636703
vt 0.747894 0.599824
vt 0.778306 0.724295
vt 0.749166 0.682413
vt 0.709123 0.705552
vt 0.778232 0.818660
vt 0.739592 0.771485
vt 0.709119 0.837400
vt 0.749643 0.860715
vn -0.753503 0.17208500000000002 0.634524
vn 0.014867 0.16372300000000006 0.986394
vn 0.017199 0.16350600000000007 0.986392
vn 0.017199 0.16350600000000007 0.986392
vn -0.751888 0.17208900000000002 0.636436
vn -0.651203 0.758825 0.010909999999999953
vn -0.641224 0.767281 0.010541999999999952
vn -0.239141 0.970965 0.00627799999999994
vn -0.239141 0.970965 0.00627799999999994
vn 0.402722 0.91532 -0.002143000000000056
vn -0.646872 -0.12726099999999996 0.751905
vn -0.901072 -0.14714099999999997 0.407944
vn -0.89067 -0.17487099999999997 0.419675
vn -0.180135 -0.05211499999999994 0.98226
vn -0.646872 -0.12726099999999996 0.751905
vn -0.597002 0.747469 0.29134099999999996
vn -0.172303 0.981072 0.08837099999999995
vn -0.961134 -0.207595 0.182006
vn -0.961134 -0.207595 0.182006
vn -0.644566 -0.685928 0.33769400000000005
vn 0.085094 -0.06449899999999995 0.994283
vn -0.644566 -0.685928 0.33769400000000005
vn -0.644566 -0.685928 0.33769400000000005
vn 0.582756 -0.768102 0.26535700000000007
vn 0.286296 -0.952797 0.10106200000000005
vn -0.961134 -0.207595 0.182006
vn -0.006592 -0.003920999999999938 0.999971
vn 0.710427 0.12182400000000004 0.693147
vn 0.281298 0.045148000000000056 0.958558
vn 0.281298 0.045148000000000056 0.958558
vn 0.108888 0.017322000000000063 0.993903
vn -0.180135 -0.05211499999999994 0.98226
vn -0.646872 -0.12726099999999996 0.751905
vn -0.172303 0.981072 0.08837099999999995
vn -0.597002 0.747469 0.29134099999999996
vn 0.761683 0.584381 0.27989099999999995
vn 0.985052 0.06881900000000002 0.157911
vn -0.172303 0.981072 0.08837099999999995
vn 0.085094 -0.06449899999999995 0.994283
vn -0.597002 0.747469 0.29134099999999996
vn 0.582756 -0.768102 0.26535700000000007
vn 0.985052 0.06881900000000002 0.157911
vn 0.286296 -0.952797 0.10106200000000005
vn 0.085572 0.985787 -0.14457500000000006
vn 0.085388 0.985803 -0.14457600000000007
vn 0.085572 0.985787 -0.14457500000000006
vn 0.085756 0.985771 -0.14457300000000006
vn 0.775553 0.037552000000000044 0.630164
vn 0.776932 0.03730800000000004 0.628478
vn 0.017199 0.16350600000000007 0.986392
vn 0.014867 0.16372300000000006 0.986394
vn 0.402722 0.91532 -0.002143000000000056
vn -0.239141 0.970965 0.00627799999999994
vn 0.774097 0.633016 -0.007998000000000038
vn 0.776182 0.630457 -0.008099000000000038
vn 0.049366 0.99855 0.021455999999999937
vn 0.03881 0.999023 0.02113499999999994
vn 0.049366 0.99855 0.021455999999999937
vn 0.059916 0.997966 0.02177399999999994
vn 0.053575 0.998413 0.01732999999999994
vn 0.061427 0.997958 0.01748899999999994
vn 0.053575 0.998413 0.01732999999999994
vn 0.04572 0.998807 0.017168999999999938
vn 0.054651 0.998039 0.03053299999999994
vn 0.048093 0.998384 0.030281999999999937
vn 0.054651 0.998039 0.03053299999999994
vn 0.061206 0.99765 0.03078299999999994
vn 0.057222 0.998085 0.02351199999999994
vn 0.061677 0.997816 0.023644999999999937
vn 0.057222 0.998085 0.02351199999999994
vn 0.052766 0.998333 0.023377999999999937
vn 0.066922 0.997209 0.03309499999999994
vn 0.068779 0.99708 0.033189999999999935
vn 0.066922 0.997209 0.03309499999999994
vn 0.065065 0.997335 0.03299899999999994
vn 0.066082 0.997509 0.02467699999999994
vn 0.064085 0.997642 0.024585999999999938
vn 0.066082 0.997509 0.02467699999999994
vn 0.068079 0.997372 0.024767999999999936
vn 0.767019 0.640628 0.03574599999999996
vn 0.763427 0.644914 0.03556399999999996
vn 0.767019 0.640628 0.03574599999999996
vn 0.770587 0.636321 0.03592699999999996
vn 0.763046 0.645771 0.027222999999999963
vn 0.760926 0.648272 0.027128999999999962
vn 0.763046 0.645771 0.027222999999999963
vn 0.765157 0.643264 0.027315999999999962
vn 0.760964 0.647928 0.033515999999999956
vn 0.760236 0.648784 0.03345599999999996
vn 0.760964 0.647928 0.033515999999999956
vn 0.76169 0.647072 0.03357499999999996
vn 0.758096 0.651609 0.026374999999999958
vn 0.759208 0.650311 0.026455999999999962
vn 0.758096 0.651609 0.026374999999999958
vn 0.756982 0.652906 0.02629299999999996
vn 0.710427 0.12182400000000004 0.693147
vn 0.923317 0.16164000000000003 0.348365
vn 0.924553 0.15824600000000003 0.346641
vn 0.281298 0.045148000000000056 0.958558
vn -0.774611 0.628345 0.07183399999999995
vn -0.77388 0.629335 0.07104399999999995
vn -0.774611 0.628345 0.07183399999999995
vn -0.77534 0.627354 0.07262399999999995
vn -0.99493 -0.086674 0.05101100000000001
vn -0.995117 -0.084464 0.051072000000000006
vn -0.927087 0.368808 0.06700399999999997
vn -0.521463 0.850741 0.06569899999999994
vn -0.521463 0.850741 0.06569899999999994
vn -0.927087 0.368808 0.06700399999999997
vn -0.08538 0.995194 0.047946999999999934
vn -0.093056 0.99448 0.04848399999999994
vn -0.499999 -0.866026 -9.999999999469712E-07
vn -0.5 -0.866026 -1.999999999946971E-06
vn -0.499999 -0.866026 -9.999999999469712E-07
vn -0.499999 -0.866026 -9.999999999469712E-07
vn 0.816658 -0.471499 0.33280300000000007
vn 0.816659 -0.471495 0.33280600000000005
vn 0.816658 -0.471499 0.33280300000000007
vn 0.816658 -0.471503 0.33279900000000007
vn 0.499992 0.86603 -4.000000000053029E-06
vn 0.499984 0.866035 2.9999999999469707E-06
vn 0.499992 0.86603 -4.000000000053029E-06
vn 0.499999 0.866026 -1.1000000000053029E-05
vn -0.06554 0.03194400000000006 0.997338
vn -0.065554 0.03185100000000006 0.997341
vn -0.06554 0.03194400000000006 0.997338
vn -0.065526 0.03203800000000006 0.997336
vn -0.062669 0.03148600000000006 0.997538
vn -0.062679 0.031418000000000064 0.997539
vn -0.062669 0.03148600000000006 0.997538
vn -0.062659 0.03155400000000006 0.997536
vn 0.003131 0.24795500000000006 0.968766
vn 0.003367 0.24818200000000007 0.968708
vn 0.003131 0.24795500000000006 0.968766
vn 0.002894 0.24772900000000006 0.968825
vn -0.93763 -0.347634 2.128644326873955E-17
vn -0.93763 -0.347634 2.128644326873955E-17
vn -0.93763 -0.347634 2.128644326873955E-17
vn -0.93763 -0.347634 2.128644326873955E-17
vn 0.341915 -0.939731 5.754192806047706E-17
vn 0.341915 -0.939731 5.754192806047706E-17
vn 0.341915 -0.939731 5.754192806047706E-17
vn 0.341914 -0.939731 -9.99999999942458E-07
vn 0.937631 0.347633 -1.0000000000212863E-06
vn 0.937631 0.347633 -1.0000000000212863E-06
vn 0.937631 0.347633 -1.0000000000212863E-06
vn 0.937631 0.347633 -1.0000000000212863E-06
vn -0.341914 0.939731 -5.754192806047706E-17
vn -0.341914 0.939731 -5.754192806047706E-17
vn -0.341914 0.939731 -5.754192806047706E-17
vn -0.341914 0.939731 -5.754192806047706E-17
vn 0 6.123233995736766E-17 1
vn 0 6.123233995736766E-17 1
vn 0 6.123233995736766E-17 1
vn 0 6.123233995736766E-17 1
vn -0.467061 0.041636000000000055 0.883244
vn -0.510475 0.07191000000000006 0.85688
vn -0.467061 0.041636000000000055 0.883244
vn -0.422013 0.011216000000000056 0.906521
vn 0.49585 -0.02875999999999995 0.867932
vn 0.464719 -0.06546399999999994 0.883035
vn 0.49585 -0.02875999999999995 0.867932
vn 0.525719 0.008018000000000053 0.85062
vn -0.008862 0.027757000000000063 0.999575
vn -0.008852 0.027781000000000063 0.999575
vn -0.008862 0.027757000000000063 0.999575
vn -0.008873 0.027734000000000064 0.999576
vn -0.008706 0.027032000000000063 0.999597
vn -0.008693 0.027061000000000064 0.999596
vn -0.008706 0.027032000000000063 0.999597
vn -0.008719 0.02700300000000006 0.999597
vn -0.995376 0.089906 0.03382399999999999
vn -0.995796 0.082774 0.03923299999999999
vn -0.995376 0.089906 0.03382399999999999
vn -0.994876 0.097031 0.028412999999999994
vn 0.185597 0.11892300000000006 0.975403
vn 0.186087 0.11822100000000006 0.975395
vn 0.185597 0.11892300000000006 0.975403
vn 0.185106 0.11962500000000005 0.975411
vn 0.184337 0.11697700000000005 0.975877
vn 0.184838 0.11626200000000006 0.975868
vn 0.184337 0.11697700000000005 0.975877
vn 0.183836 0.11769100000000006 0.975886
vn 0.04386 0.21448700000000007 0.975742
vn 0.043832 0.21449400000000005 0.975741
vn 0.04386 0.21448700000000007 0.975742
vn 0.043888 0.21448100000000006 0.975742
vn 0.043463 0.21415000000000006 0.975833
vn 0.043802 0.21407600000000004 0.975834
vn 0.043463 0.21415000000000006 0.975833
vn 0.043124 0.21422400000000005 0.975832
vn 0.04337 0.21327100000000004 0.97603
vn 0.043726 0.21319700000000005 0.97603
vn 0.04337 0.21327100000000004 0.97603
vn 0.043014 0.21334600000000006 0.976029
vn -0.991942 0.126648 0.0033399999999999923
vn -0.992447 0.122297 -0.009633000000000006
vn -0.991942 0.126648 0.0033399999999999923
vn -0.991251 0.130976 0.016311999999999993
vn 0.992847 -0.11939 0.0013120000000000074
vn 0.992299 -0.123765 -0.0050079999999999925
vn 0.992847 -0.11939 0.0013120000000000074
vn 0.993335 -0.115009 0.007632000000000007
vn 0.084086 0.961106 -0.2630700000000001
vn 0.084086 0.961106 -0.2630700000000001
vn 0.084086 0.961106 -0.2630700000000001
vn 0.084086 0.961106 -0.2630700000000001
vn -0.703458 0.591634 -0.39384800000000003
vn -0.705058 0.588095 -0.3962800000000001
vn -0.703458 0.591634 -0.39384800000000003
vn -0.701844 0.59516 -0.39140800000000003
vn -0.372382 0.31034000000000006 0.874654
vn -0.372159 0.30988800000000005 0.874909
vn -0.372382 0.31034000000000006 0.874654
vn -0.372605 0.31079200000000007 0.874399
vn -0.648494 -0.760504 -0.03299799999999995
vn -0.648533 -0.76047 -0.03300599999999995
vn -0.648494 -0.760504 -0.03299799999999995
vn -0.648455 -0.760538 -0.03298899999999995
vn 0.402634 -0.34112200000000004 -0.849424
vn 0.403177 -0.34127300000000005 -0.849106
vn 0.402634 -0.34112200000000004 -0.849424
vn 0.402091 -0.34097200000000005 -0.849742
vn 0.652849 0.756324 0.04198699999999995
vn 0.652426 0.756714 0.04152599999999995
vn 0.652849 0.756324 0.04198699999999995
vn 0.653271 0.755934 0.04244699999999995
vn 0.701407 -0.588857 0.40159100000000003
vn 0.704527 -0.586643 0.3993650000000001
vn 0.701407 -0.588857 0.40159100000000003
vn 0.698274 -0.59106 0.40380900000000003
vn 0.035769 0.43629900000000005 0.899091
vn 0.03322 0.43462000000000006 0.900001
vn 0.035769 0.43629900000000005 0.899091
vn 0.038318 0.43797300000000006 0.898171
vn -0.990154 0.04473799999999999 -0.132641
vn -0.989652 0.043940999999999994 -0.136591
vn -0.990154 0.04473799999999999 -0.132641
vn -0.990639 0.04553399999999999 -0.128689
vn 0.976333 -0.180257 -0.11950299999999998
vn 0.978675 -0.172393 -0.11169299999999999
vn 0.976333 -0.180257 -0.11950299999999998
vn 0.973866 -0.188098 -0.127297
vn 0.081715 0.933886 -0.34810900000000006
vn 0.081709 0.933893 -0.34809300000000004
vn 0.081715 0.933886 -0.34810900000000006
vn 0.081721 0.933879 -0.34812600000000005
vn 0.040398 0.4699920000000001 0.881746
vn 0.03959 0.46945900000000007 0.882066
vn 0.040398 0.4699920000000001 0.881746
vn 0.041206 0.4705250000000001 0.881424
vn 0.225063 0.18326500000000007 0.956954
vn 0.225613 0.18497600000000006 0.956495
vn 0.225063 0.18326500000000007 0.956954
vn 0.224512 0.18155400000000005 0.957409
vn -0.99498 0.099163 -0.013471000000000007
vn -0.995014 0.099723 -0.001272000000000006
vn -0.99498 0.099163 -0.013471000000000007
vn -0.994797 0.098588 -0.025668000000000007
vn -0.08254 -0.996221 -0.027034999999999938
vn -0.082922 -0.996315 -0.02191599999999994
vn -0.08254 -0.996221 -0.027034999999999938
vn -0.082156 -0.996101 -0.03215499999999994
vn 0.628934 -0.777026 -0.02593899999999995
vn 0.939256 -0.342335 -0.02458999999999998
vn 0.807788 -0.588862 -0.026829999999999965
vn 0.629109 -0.776832 -0.02744999999999995
vn 0.939256 -0.342335 -0.02458999999999998
vn 0.904519 0.426302 -0.010593000000000026
vn 0.985965 0.165808 -0.01950100000000001
vn 0.807788 -0.588862 -0.026829999999999965
vn 0.904519 0.426302 -0.010593000000000026
vn 0.76826 0.640135 0.0019429999999999608
vn 0.767581 0.640938 -0.004221000000000039
vn 0.985965 0.165808 -0.01950100000000001
vn 0.08008 0.996645 0.016894999999999938
vn 0.080448 0.996484 0.02339699999999994
vn 0.08008 0.996645 0.016894999999999938
vn 0.079709 0.996764 0.010392999999999939
vn -0.688987 0.71145 -0.13833300000000007
vn -0.689023 0.71125 -0.13917600000000005
vn -0.688987 0.71145 -0.13833300000000007
vn -0.68895 0.711649 -0.13749000000000006
vn 0.577285 -0.808169 -0.11664199999999994
vn 0.58444 -0.804248 -0.10776999999999995
vn 0.577285 -0.808169 -0.11664199999999994
vn 0.570046 -0.811971 -0.12549799999999994
vn 0.742109 0.587096 -0.32340800000000003
vn 0.742102 0.586788 -0.32398200000000005
vn 0.742109 0.587096 -0.32340800000000003
vn 0.742115 0.587404 -0.32283300000000004
vn 0.351266 0.28024200000000005 0.893351
vn 0.347462 0.2813800000000001 0.89448
vn 0.351266 0.28024200000000005 0.893351
vn 0.355064 0.27909900000000004 0.892207
vn -0.995878 0.089362 -0.015510000000000005
vn -0.993677 0.110743 -0.018466000000000007
vn -0.995239 0.0967 -0.012214000000000004
vn -0.99761 0.068092 -0.011775000000000004
vn 0.994885 -0.098893 0.020587000000000008
vn 0.994968 -0.099612 0.010814000000000008
vn 0.994885 -0.098893 0.020587000000000008
vn 0.994707 -0.098165 0.030359000000000008
vn -0.164285 0.986082 0.02554199999999994
vn -0.415877 0.909143 0.022506999999999944
vn 0.08201 0.996324 0.024736999999999936
vn 0.081551 0.996227 0.02967299999999994
vn -0.625789 0.77969 0.021734999999999952
vn -0.625695 0.779781 0.02113699999999995
vn -0.415877 0.909143 0.022506999999999944
vn -0.164285 0.986082 0.02554199999999994
vn -0.995847 0.089387 0.017269999999999994
vn -0.995852 0.089519 0.016305999999999994
vn -0.995847 0.089387 0.017269999999999994
vn -0.995842 0.089255 0.018234999999999994
vn -0.574539 -0.818464 -0.0045799999999999496
vn -0.329876 -0.943886 -0.016163999999999942
vn -0.763932 -0.645297 -0.0002539999999999605
vn -0.76308 -0.646279 0.00573200000000004
vn -0.078542 -0.996721 -0.019464999999999937
vn -0.079185 -0.996504 -0.026635999999999938
vn -0.329876 -0.943886 -0.016163999999999942
vn -0.574539 -0.818464 -0.0045799999999999496
vn -2E-06 6.123233995736766E-17 1
vn 0 -9.999999999387675E-07 1
vn -1E-06 2.0000000000612323E-06 1
vn -3E-06 3.0000000000612325E-06 1
vn 1E-06 -1.9999999999387675E-06 1
vn 1E-06 -1.9999999999387675E-06 1
vn 0 -9.999999999387675E-07 1
vn -2E-06 6.123233995736766E-17 1
vn 1E-06 -9.999999999387675E-07 1
vn 0 6.123233995736766E-17 1
vn 1E-06 -1.9999999999387675E-06 1
vn 1E-06 -1.9999999999387675E-06 1
vn -0 6.123233995736766E-17 1
vn 0 6.123233995736766E-17 1
vn 0 6.123233995736766E-17 1
vn 1E-06 -9.999999999387675E-07 1
vn 0 6.123233995736766E-17 1
vn 0 6.123233995736766E-17 1
vn -0 6.123233995736766E-17 1
vn 0 2.0000000000612323E-06 1
vn -1E-06 2.0000000000612323E-06 1
vn 0 6.123233995736766E-17 1
vn 0 2.0000000000612323E-06 1
vn -3E-06 3.0000000000612325E-06 1
vn -0.323064 0.939449 0.11430299999999995
vn -0.255952 0.95613 0.14249399999999995
vn 0.465667 0.84565 0.26082599999999995
vn -0.98814 -0.0013070000000000093 -0.153548
vn -0.323064 0.939449 0.11430299999999995
vn -0.984642 -0.07381600000000002 -0.158213
vn 0.645032 0.702 0.30187899999999995
vn 0.916736 0.22137100000000004 0.332551
vn 0.942351 -0.13728799999999997 0.305167
vn 0.469885 -0.860067 0.19872500000000007
vn 0.432944 -0.874164 0.21999500000000005
vn -0.489661 -0.867004 -0.09239799999999994
vn 0.432944 -0.874164 0.21999500000000005
vn -0.45988 -0.878813 -0.12727499999999994
vn -0.98814 -0.0013070000000000093 -0.153548
vn -0.984642 -0.07381600000000002 -0.158213
vn 0.264458 -0.961371 0.07634000000000006
vn 0.257322 -0.963538 0.07334200000000006
vn 0.271171 -0.958784 0.08484900000000005
vn 0.274517 -0.957445 0.08910300000000006
vn 0.298585 -0.948278 0.10777500000000005
vn 0.846761 0.531973 9.99999999967426E-07
vn 0.670923 0.741527 -4.540543335156697E-17
vn 0.998754 0.049909 -3.0560448549322626E-18
vn 0.97491 -0.222597 1.3630135177490169E-17
vn 0.741517 -0.670934 -9.999999999589172E-07
vn 0.53197 -0.846763 -9.999999999481507E-07
vn 0.049921 -0.998753 -9.99999999938844E-07
vn -0.222579 -0.974915 -9.999999999403036E-07
vn -0.670919 -0.74153 -9.999999999545943E-07
vn -0.846756 -0.531981 3.2574441442860406E-17
vn -0.998753 -0.049919 3.0566571783318363E-18
vn -0.974911 0.222595 -1.3630012712810253E-17
vn -0.741516 0.670936 -4.108298124163643E-17
vn -0.531967 0.846765 -5.1849402344000424E-17
vn -0.049918 0.998753 -6.115598322944082E-17
vn 0.22258 0.974914 -5.969626547719713E-17
vn 0.670923 0.741527 -4.540543335156697E-17
vn 0.846761 0.531973 9.99999999967426E-07
vn 0.121532 -0.989784 0.07455200000000005
vn -0.034547 -0.997253 -0.06551599999999995
vn 0.191308 -0.979193 0.06768900000000005
vn 0.163593 -0.980713 0.10695800000000005
vn 0.038563 -0.998705 0.03319800000000006
vn -0.105946 -0.994126 0.022096000000000064
vn -0.094085 -0.995553 -0.00473999999999994
vn -0.117584 -0.990971 -0.06443299999999995
vn -0.117087 -0.991001 -0.06485999999999995
vn -0.118058 -0.989082 -0.08820299999999995
vn -0.11864 -0.986625 -0.11178899999999994
vn -0.118618 -0.959435 -0.25576199999999993
vn -0.118239 -0.920496 -0.37243299999999996
vn -0.111355 -0.814577 -0.569266
vn -0.10898 -0.7534 -0.648469
vn -0.102898 -0.683832 -0.722348
vn -0.105811 -0.686079 -0.719792
vn 0.118617 0.989753 -0.07948800000000006
vn 0.119799 0.989682 -0.07860100000000006
vn 0.11732 0.987261 -0.10747700000000006
vn 0.115296 0.983993 -0.13588800000000006
vn 0.108229 0.95339 -0.2816620000000001
vn 0.101824 0.912361 -0.39652200000000004
vn 0.085766 0.804959 -0.587099
vn 0.079437 0.744284 -0.663122
vn 0.070211 0.675997 -0.733552
vn 0.072914 0.677926 -0.731505
vn 0.054646 0.899578 0.43332899999999996
vn 0.335408 0.850659 0.40482099999999993
vn 0.477345 0.3582600000000001 0.802366
vn 0.015486 0.21091300000000004 0.977382
vn 0.511906 -0.27664799999999995 0.813276
vn 0.03696 -0.552912 0.83242
vn 0.530651 -0.755501 0.38422500000000004
vn 0.058261 -0.963789 0.26022600000000007
vn 0.468493 -0.882032 0.050338000000000056
vn 0.04598 -0.997577 0.05221600000000006
vn -0.1946 0.965829 -0.17118600000000006
vn -0.187481 0.96714 -0.17172900000000005
vn -0.135002 0.988502 -0.06810100000000005
vn -0.109585 0.980462 -0.16335600000000006
vn -0.094635 0.981172 -0.16836500000000004
vn 0.006167 0.994767 -0.10198000000000006
vn -0.008392 0.999199 -0.03913100000000006
vn 0.042813 -0.951818 0.30366200000000004
vn 0.249616 -0.8917 0.3775760000000001
vn 0.144038 -0.865219 0.4802600000000001
vn 0.229833 -0.916562 0.32724700000000007
vn 0.143998 -0.983261 0.11163500000000005
vn -0.009247 -0.996166 0.08699100000000005
vn 0.004484 -0.99961 0.027580000000000063
vn 0.534182 -0.786041 0.31111000000000005
vn 0.360614 -0.91843 0.16261400000000006
vn 0.31054 -0.92053 0.23704100000000006
vn 0.649646 -0.627292 0.42949400000000004
vn 0.850598 -0.24661099999999997 0.464399
vn 0.972703 0.012435000000000014 0.231718
vn 0.954639 0.294988 0.04056999999999998
vn 0.837474 0.401972 -0.370209
vn 0.038499 -0.46669399999999994 0.883581
vn 0.050813 -0.588141 0.80716
vn 0.048888 -0.588991 0.80666
vn -0.009526 -0.34898199999999996 0.937081
vn -0.062108 -0.24536599999999995 0.967439
vn -0.159339 -0.27229799999999993 0.948928
vn -0.0761 -0.14094999999999994 0.987088
vn 0.040715 -0.03109899999999994 0.998687
vn 0.490191 0.09513000000000006 0.866408
vn 0.765407 0.06280800000000004 0.640475
vn 0.922312 0.07602900000000003 0.378892
vn 0.921635 0.07948700000000003 0.379831
vn -0.181713 0.979614 -0.08566000000000006
vn -0.14412 0.984572 -0.09923500000000006
vn 0.034656 0.997556 0.060665999999999935
vn -0.091429 0.99129 -0.09478500000000005
vn -0.069307 0.995892 -0.058277000000000065
vn 0.105936 0.993957 -0.028749000000000063
vn 0.094082 0.995563 -0.001856000000000061
vn -0.325255 -0.02739299999999994 0.945229
vn -0.538011 -0.04647999999999995 0.841655
vn -0.538144 -0.04503599999999995 0.841649
vn -0.079198 -0.0064189999999999395 0.996838
vn 0.090442 0.0072910000000000605 0.995875
vn 0.022898 0.0019100000000000612 0.999736
vn 0.252279 0.01981300000000006 0.967452
vn 0.553073 0.045700000000000046 0.831878
vn 0.773529 0.06378000000000004 0.630543
vn 0.772889 0.06666000000000004 0.63103
vn 0.023885 0.28428400000000004 0.958443
vn 0.023448 0.28479000000000004 0.958303
vn 0.02364 0.28442400000000007 0.958407
vn 0.024116 0.28416800000000003 0.958471
vn 0.024259 0.28422300000000006 0.958451
vn 0.024143 0.28444200000000003 0.958389
vn 0.996045 -0.088815 0.0026230000000000055
vn 0.995992 -0.089015 -0.008675999999999994
vn 0.996008 -0.088863 -0.008511999999999995
vn 0.996099 -0.086942 0.015074000000000006
vn 0.995932 -0.086039 0.026781000000000006
vn 0.996104 -0.083391 0.028671000000000002
vn 0.769871 0.638133 0.00919299999999996
vn 0.764236 0.644904 0.0064269999999999605
vn 0.768495 0.639853 0.0019509999999999608
vn 0.772985 0.634254 0.014690999999999961
vn 0.773039 0.633931 0.02329799999999996
vn 0.773585 0.633277 0.02291999999999996
vn 0.645358 -0.763175 0.03283200000000005
vn 0.664596 -0.745148 0.05537000000000005
vn 0.650015 -0.758482 0.04676400000000005
vn 0.632304 -0.774607 0.013266000000000047
vn 0.630739 -0.775994 0.0008270000000000475
vn 0.625858 -0.77993 -0.0032969999999999523
vn -0.995483 0.094883 0.0031609999999999945
vn -0.995611 0.092551 0.013906999999999994
vn -0.995474 0.09414 0.012973999999999994
vn -0.995239 0.0967 -0.012214000000000004
vn -0.995077 0.097398 -0.018304000000000008
vn -0.994326 0.104678 -0.018919000000000005
vn -0.993677 0.110743 -0.018466000000000007
vn -0 6.123233995736766E-17 1
vn -0 6.123233995736766E-17 1
vn -0 6.123233995736766E-17 1
vn -0 6.123233995736766E-17 1
vn -0 6.123233995736766E-17 1
vn -1E-06 6.123233995736766E-17 1
vn -0.93981 -0.322514 0.11288400000000001
vn -0.875834 -0.369397 0.310581
vn -0.99595 -0.03520499999999999 0.082733
vn -0.994825 -0.057078000000000004 -0.084054
vn -0.672522 0.739155 0.036921999999999955
vn -0.639635 0.753059 0.15417399999999995
vn -0.165965 0.985997 0.016288999999999942
vn -0.129543 0.988862 -0.07328000000000005
vn -0.636099 0.3672520000000001 0.678604
vn -0.806048 0.465369 0.36567599999999995
vn -0.806047 0.465372 0.36567299999999997
vn -0.636099 0.3672540000000001 0.678604
vn -0.379365 0.21902600000000005 0.898949
vn -0.379367 0.21902600000000005 0.898948
vn -0.947795 0.302207 0.10175999999999999
vn -0.993647 0.097896 0.055521999999999995
vn -0.993006 0.102256 0.05901699999999999
vn -0.980025 0.173381 0.09741999999999999
vn -0.876262 0.385553 0.288989
vn -0.977157 0.17507 0.12047399999999998
vn -0.982393 0.130451 0.133744
vn -0.987086 0.08202900000000002 0.137596
vn -0.177506 0.977828 0.11110699999999994
vn 0.054646 0.899578 0.43332899999999996
vn 0.09753 0.993734 0.054586999999999934
vn 0.335408 0.850659 0.40482099999999993
vn -0.913003 -0.08428299999999997 0.399151
vn -0.9902 -0.017857999999999992 0.138507
vn -0.99306 -0.024254999999999992 0.115077
vn -0.316257 0.929267 0.19090299999999993
vn -0.933864 -0.310661 0.17716700000000002
vn -0.996641 0.011463000000000004 0.081084
vn -0.99337 0.099995 0.056722999999999996
vn -0.978546 -0.174061 0.11023300000000001
vn -0.437006 -0.885301 0.15895900000000004
vn 0.305016 0.911397 0.27625999999999995
vn -0.490116 0.820199 0.29505999999999993
vn -0.884943 0.372024 0.280132
vn -0.40668 0.896482 0.17587399999999995
vn 0.448568 0.85317 0.26624699999999996
vn -0.886558 0.455101 0.08304899999999997
vn 0.82704 0.478019 0.29580999999999996
vn -0.965415 -0.228749 0.12509500000000004
vn 0.82671 0.31350800000000006 0.467187
vn 0.901744 -0.327124 0.282574
vn 0.718118 -0.36635599999999996 0.591683
vn 0.557279 0.668724 0.49218699999999993
vn 0.730773 0.28673100000000007 0.61948
vn 0.77043 -0.10780799999999996 0.628343
vn 0.477345 0.3582600000000001 0.802366
vn 0.511906 -0.27664799999999995 0.813276
vn -0.886462 -0.12179299999999997 0.446489
vn -0.505875 -0.683797 0.525844
vn -0.384634 -0.905066 0.18141700000000005
vn 0.262838 -0.87493 0.40671100000000004
vn 0.428386 -0.870393 0.24269800000000005
vn -0.445138 -0.635083 0.631286
vn 0.718118 -0.36635599999999996 0.591683
vn 0.901744 -0.327124 0.282574
vn 0.133717 -0.774658 0.618081
vn -0.791654 -0.443478 0.420251
vn -0.388969 -0.866919 0.31169600000000003
vn 0.102877 -0.962366 0.25153200000000003
vn 0.049078 -0.98588 0.16009900000000005
vn 0.65701 -0.733397 0.17454500000000006
vn 0.622577 -0.554449 0.552254
vn 0.77043 -0.10780799999999996 0.628343
vn 0.511906 -0.27664799999999995 0.813276
vn 0.530651 -0.755501 0.38422500000000004
vn 0.468493 -0.882032 0.050338000000000056
vn 0.080471 0.996594 0.018006999999999936
vn 0.076928 0.996934 0.01433999999999994
vn 0.08097 0.99658 0.01646899999999994
vn 0.084021 0.996331 0.016308999999999938
vn 0.08147 0.996564 0.014930999999999939
vn 0.07891 0.996702 0.018918999999999936
vn -0.090324 -0.995602 0.024871000000000063
vn -0.103476 -0.993911 0.03785400000000006
vn -0.09565 -0.994348 0.04608200000000006
vn -0.087899 -0.995636 0.03133800000000006
vn -0.084956 -0.996378 0.003650000000000061
vn -0.081968 -0.996634 -0.0010559999999999391
vn -0.41276 0.45162800000000003 0.790988
vn -0.30607 0.22426900000000005 0.925216
vn -0.342744 0.22267500000000007 0.912657
vn -0.27965 0.10330500000000005 0.954528
vn -0.350839 0.10187100000000006 0.930878
vn -0.241813 0.10576200000000005 0.964542
vn 0 6.123233995736766E-17 1
vn 0 6.123233995736766E-17 1
vn 0 6.123233995736766E-17 1
vn 0 6.123233995736766E-17 1
vn 0 6.123233995736766E-17 1
vn 0 6.123233995736766E-17 1
vn 0 6.123233995736766E-17 1
vn 0 6.123233995736766E-17 1
vn -0.131482 -0.0019489999999999393 0.991317
vn -0.069631 0.04739600000000006 0.996446
vn 0.138331 -0.16347899999999996 0.9768
vn -0.175326 0.13320900000000005 0.975457
vn -0.438729 0.13202200000000006 0.888868
vn -0.315857 0.07116900000000005 0.946134
vn -0.183651 0.21862700000000004 0.958371
vn -0.574167 -0.01415599999999995 0.818616
vn 0.710174 -0.648444 0.27417700000000006
vn 0.954011 -0.08061099999999999 0.28873
vn 0.770447 -0.33863599999999994 0.540127
vn 0.398128 -0.689972 0.60451
vn 0.216098 -0.941219 0.25963200000000003
vn 0.755276 0.17813400000000001 0.630735
vn 0.816851 0.491334 0.3022349999999999
vn -0.067514 -0.857725 0.509657
vn -0.364746 -0.896965 0.24982900000000005
vn 0.385782 -0.17226599999999995 0.906365
vn -0.034632 -0.44655599999999995 0.894085
vn -0.507614 -0.625211 0.592823
vn -0.814673 -0.525121 0.24608100000000002
vn -0.001752 -0.002028999999999939 0.999996
vn -0.831774 -0.20379999999999998 0.516351
vn -0.962766 0.09766300000000001 0.25208
vn -0.418235 -0.10535899999999994 0.902208
vn -0.726139 0.32219700000000007 0.60738
vn -0.719946 0.63755 0.27423999999999993
vn -0.220965 0.37078900000000004 0.902048
vn -0.428971 0.72501 0.538836
vn -0.212138 0.929402 0.30200999999999995
vn 0.265957 0.32123000000000007 0.908888
vn 0.056764 0.774142 0.630462
vn 0.354549 0.881606 0.31155499999999997
vn 0.535171 0.634165 0.558057
g 01
f 1/1/1 2/2/2 3/3/3
f 4/4/4 5/5/5 1/1/1
f 6/6/6 7/7/7 8/8/8
f 9/9/9 10/10/10 6/6/6
f 11/11/11 12/12/12 13/13/13
f 13/13/13 14/14/14 15/15/15
f 16/16/16 17/17/17 18/18/18
f 19/19/19 20/20/20 16/16/16
f 21/21/21 16/16/16 22/22/22
f 23/23/23 24/24/24 21/21/21
f 25/25/25 24/24/24 23/23/23
f 23/23/23 26/26/26 25/25/25
f 27/27/27 28/28/28 29/29/29
f 30/30/30 31/31/31 27/27/27
f 32/32/32 27/27/27 31/31/31
f 31/31/31 33/33/33 32/32/32
f 34/34/34 35/35/35 36/36/36
f 36/36/36 37/37/37 38/38/38
f 39/39/39 36/36/36 40/40/40
f 39/39/39 41/41/41 36/36/36
f 42/42/42 36/36/36 41/41/41
f 41/41/41 43/43/43 42/42/42
f 44/44/44 45/45/45 46/46/46
f 46/46/46 47/47/47 44/44/44
f 48/48/48 49/49/49 50/50/50
f 50/50/50 51/51/51 48/48/48
f 52/52/52 53/53/53 54/54/54
f 54/54/54 55/55/55 52/52/52
f 56/56/56 57/57/57 58/58/58
f 58/58/58 59/59/59 56/56/56
f 60/60/60 61/61/61 62/62/62
f 62/62/62 63/63/63 60/60/60
f 64/64/64 65/65/65 66/66/66
f 66/66/66 67/67/67 64/64/64
f 68/68/68 69/69/69 70/70/70
f 70/70/70 71/71/71 68/68/68
f 72/72/72 73/73/73 74/74/74
f 74/74/74 75/75/75 72/72/72
f 76/76/76 77/77/77 78/78/78
f 78/78/78 79/79/79 76/76/76
f 80/80/80 81/81/81 82/82/82
f 82/82/82 83/83/83 80/80/80
f 84/84/84 85/85/85 86/86/86
f 86/86/86 87/87/87 84/84/84
f 88/88/88 89/89/89 90/90/90
f 90/90/90 91/91/91 88/88/88
f 92/92/92 93/93/93 94/94/94
f 94/94/94 95/95/95 92/92/92
f 96/96/96 97/97/97 98/98/98
f 98/98/98 99/99/99 96/96/96
f 100/100/100 101/101/101 102/102/102
f 102/102/102 103/103/103 100/100/100
f 104/104/104 105/105/105 106/106/106
f 106/106/106 107/107/107 104/104/104
f 108/108/108 109/109/109 110/110/110
f 110/110/110 111/111/111 108/108/108
f 112/112/112 113/113/113 114/114/114
f 114/114/114 115/115/115 112/112/112
f 116/116/116 117/117/117 118/118/118
f 118/118/118 119/119/119 116/116/116
f 120/120/120 121/121/121 122/122/122
f 122/122/122 123/123/123 120/120/120
f 124/124/124 125/125/125 126/126/126
f 126/126/126 127/127/127 124/124/124
f 128/128/128 129/129/129 130/130/130
f 130/130/130 131/131/131 128/128/128
f 132/132/132 133/133/133 134/134/134
f 134/134/134 135/135/135 132/132/132
f 136/136/136 137/137/137 138/138/138
f 138/138/138 139/139/139 136/136/136
f 140/140/140 141/141/141 142/142/142
f 142/142/142 143/143/143 140/140/140
f 144/144/144 145/145/145 146/146/146
f 146/146/146 147/147/147 144/144/144
f 148/148/148 149/149/149 150/150/150
f 150/150/150 151/151/151 148/148/148
f 152/152/152 153/153/153 154/154/154
f 154/154/154 155/155/155 152/152/152
f 156/156/156 157/157/157 158/158/158
f 158/158/158 159/159/159 156/156/156
f 160/160/160 161/161/161 162/162/162
f 162/162/162 163/163/163 160/160/160
f 164/164/164 165/165/165 166/166/166
f 166/166/166 167/167/167 164/164/164
f 168/168/168 169/169/169 170/170/170
f 170/170/170 171/171/171 168/168/168
f 172/172/172 173/173/173 174/174/174
f 174/174/174 175/175/175 172/172/172
f 176/176/176 177/177/177 178/178/178
f 178/178/178 179/179/179 176/176/176
f 180/180/180 181/181/181 182/182/182
f 182/182/182 183/183/183 180/180/180
f 184/184/184 185/185/185 186/186/186
f 186/186/186 187/187/187 184/184/184
f 188/188/188 189/189/189 190/190/190
f 190/190/190 191/191/191 188/188/188
f 192/192/192 193/193/193 194/194/194
f 194/194/194 195/195/195 192/192/192
f 196/196/196 197/197/197 198/198/198
f 198/198/198 199/199/199 196/196/196
f 200/200/200 201/201/201 202/202/202
f 202/202/202 203/203/203 200/200/200
f 204/204/204 205/205/205 206/206/206
f 206/206/206 207/207/207 204/204/204
f 208/208/208 209/209/209 210/210/210
f 210/210/210 211/211/211 208/208/208
f 212/212/212 213/213/213 214/214/214
f 214/214/214 215/215/215 212/212/212
f 216/216/216 217/217/217 218/218/218
f 218/218/218 219/219/219 216/216/216
f 220/220/220 221/221/221 222/222/222
f 222/222/222 223/223/223 220/220/220
f 224/224/224 225/225/225 226/226/226
f 226/226/226 227/227/227 224/224/224
f 228/228/228 229/229/229 230/230/230
f 230/230/230 231/231/231 228/228/228
f 232/232/232 233/233/233 234/234/234
f 234/234/234 235/235/235 232/232/232
f 236/236/236 237/237/237 238/238/238
f 238/238/238 239/239/239 236/236/236
f 240/240/240 241/241/241 242/242/242
f 242/242/242 243/243/243 240/240/240
f 244/244/244 245/245/245 246/246/246
f 246/246/246 247/247/247 244/244/244
f 248/248/248 249/249/249 250/250/250
f 250/250/250 251/251/251 248/248/248
f 252/252/252 253/253/253 254/254/254
f 254/254/254 255/255/255 252/252/252
f 256/256/256 257/257/257 258/258/258
f 258/258/258 259/259/259 256/256/256
f 260/260/260 261/261/261 262/262/262
f 262/262/262 263/263/263 260/260/260
f 264/264/264 265/265/265 266/266/266
f 266/266/266 267/267/267 264/264/264
f 268/268/268 269/269/269 270/270/270
f 270/270/270 271/271/271 268/268/268
f 272/272/272 273/273/273 274/274/274
f 274/274/274 275/275/275 272/272/272
f 276/276/276 277/277/277 278/278/278
f 278/278/278 279/279/279 276/276/276
f 280/280/280 281/281/281 282/282/282
f 282/282/282 283/283/283 280/280/280
f 284/284/284 285/285/285 286/286/286
f 286/286/286 287/287/287 284/284/284
f 288/288/288 289/289/289 290/290/290
f 290/290/290 291/291/291 288/288/288
f 292/292/292 293/293/293 294/294/294
f 294/294/294 295/295/295 292/292/292
f 296/296/296 297/297/297 298/298/298
f 298/298/298 299/299/299 296/296/296
f 300/300/300 301/301/301 302/302/302
f 302/302/302 303/303/303 300/300/300
f 304/304/304 305/305/305 306/306/306
f 306/306/306 307/307/307 304/304/304
f 308/308/308 309/309/309 310/310/310
f 310/310/310 311/311/311 308/308/308
f 312/312/312 313/313/313 314/314/314
f 314/314/314 315/315/315 312/312/312
f 316/316/316 317/317/317 318/318/318
f 318/318/318 319/319/319 316/316/316
f 320/320/320 321/321/321 322/322/322
f 322/322/322 323/323/323 320/320/320
f 324/324/324 325/325/325 326/326/326
f 326/326/326 327/327/327 324/324/324
f 328/328/328 329/329/329 330/330/330
f 330/330/330 331/331/331 328/328/328
f 332/332/332 333/333/333 334/334/334
f 334/334/334 335/335/335 332/332/332
f 336/336/336 337/337/337 338/338/338
f 338/338/338 339/339/339 336/336/336
f 340/340/340 341/341/341 342/342/342
f 342/342/342 343/343/343 340/340/340
f 344/344/344 345/345/345 346/346/346
f 346/346/346 347/347/347 344/344/344
f 348/348/348 349/349/349 350/350/350
f 351/351/351 349/349/349 352/352/352
f 352/352/352 353/353/353 351/351/351
f 350/350/350 354/354/354 352/352/352
f 354/354/354 350/350/350 355/355/355
f 355/355/355 356/356/356 354/354/354
f 356/356/356 355/355/355 357/357/357
f 357/357/357 358/358/358 356/356/356
f 359/359/359 360/360/360 357/357/357
f 357/357/357 361/361/361 359/359/359
f 359/359/359 361/361/361 362/362/362
f 362/362/362 363/363/363 359/359/359
f 364/364/364 365/365/365 366/366/366
f 366/366/366 365/365/365 367/367/367
f 367/367/367 368/368/368 366/366/366
f 369/369/369 370/370/370 371/371/371
f 371/371/371 372/372/372 369/369/369
f 372/372/372 371/371/371 373/373/373
f 373/373/373 374/374/374 372/372/372
f 374/374/374 373/373/373 375/375/375
f 375/375/375 376/376/376 374/374/374
f 376/376/376 375/375/375 377/377/377
f 377/377/377 378/378/378 376/376/376
f 378/378/378 377/377/377 379/379/379
f 379/379/379 380/380/380 378/378/378
f 380/380/380 379/379/379 381/381/381
f 381/381/381 382/382/382 380/380/380
f 382/382/382 381/381/381 383/383/383
f 383/383/383 384/384/384 382/382/382
f 384/384/384 383/383/383 385/385/385
f 385/385/385 386/386/386 384/384/384
f 387/387/387 388/388/388 389/389/389
f 390/390/390 387/387/387 389/389/389
f 389/389/389 391/391/391 390/390/390
f 392/392/392 390/390/390 391/391/391
f 391/391/391 393/393/393 392/392/392
f 394/394/394 395/395/395 396/396/396
f 396/396/396 397/397/397 394/394/394
f 397/397/397 396/396/396 398/398/398
f 398/398/398 399/399/399 397/397/397
f 399/399/399 398/398/398 400/400/400
f 400/400/400 401/401/401 399/399/399
f 401/401/401 400/400/400 402/402/402
f 402/402/402 403/403/403 401/401/401
f 404/404/404 405/405/405 406/406/406
f 406/406/406 407/407/407 404/404/404
f 407/407/407 406/406/406 408/408/408
f 408/408/408 409/409/409 407/407/407
f 409/409/409 408/408/408 410/410/410
f 410/410/410 411/411/411 409/409/409
f 411/411/411 410/410/410 412/412/412
f 412/412/412 413/413/413 411/411/411
f 414/414/414 415/415/415 416/416/416
f 416/416/416 417/417/417 414/414/414
f 417/417/417 416/416/416 418/418/418
f 418/418/418 419/419/419 417/417/417
f 419/419/419 418/418/418 420/420/420
f 420/420/420 421/421/421 419/419/419
f 421/421/421 420/420/420 422/422/422
f 422/422/422 423/423/423 421/421/421
f 424/424/424 425/425/425 426/426/426
f 427/427/427 425/425/425 424/424/424
f 424/424/424 428/428/428 427/427/427
f 427/427/427 428/428/428 429/429/429
f 429/429/429 430/430/430 427/427/427
f 431/431/431 432/432/432 433/433/433
f 434/434/434 433/433/433 432/432/432
f 432/432/432 435/435/435 434/434/434
f 436/436/436 434/434/434 435/435/435
f 435/435/435 437/437/437 436/436/436
f 438/438/438 439/439/439 440/440/440
f 440/440/440 441/441/441 438/438/438
f 442/442/442 438/438/438 441/441/441
f 441/441/441 443/443/443 442/442/442
f 444/444/444 442/442/442 443/443/443
f 443/443/443 445/445/445 444/444/444
f 446/446/446 447/447/447 448/448/448
f 448/448/448 449/449/449 446/446/446
f 450/450/450 446/446/446 449/449/449
f 449/449/449 451/451/451 450/450/450
f 452/452/452 450/450/450 451/451/451
f 451/451/451 453/453/453 452/452/452
f 454/454/454 452/452/452 453/453/453
f 453/453/453 455/455/455 454/454/454
f 456/456/456 454/454/454 455/455/455
f 455/455/455 457/457/457 456/456/456
f 458/458/458 459/459/459 460/460/460
f 461/461/461 459/459/459 458/458/458
f 458/458/458 462/462/462 461/461/461
f 461/461/461 462/462/462 463/463/463
f 463/463/463 464/464/464 461/461/461
f 465/465/465 466/466/466 467/467/467
f 467/467/467 468/468/468 465/465/465
f 469/469/469 465/465/465 468/468/468
f 468/468/468 470/470/470 469/469/469
f 471/471/471 469/469/469 470/470/470
f 470/470/470 472/472/472 471/471/471
f 473/473/473 471/471/471 472/472/472
f 472/472/472 474/474/474 473/473/473
f 475/475/475 476/476/476 477/477/477
f 477/477/477 478/478/478 475/475/475
f 479/479/479 475/475/475 478/478/478
f 478/478/478 480/480/480 479/479/479
f 481/481/481 482/482/482 483/483/483
f 483/483/483 484/484/484 481/481/481
f 485/485/485 481/481/481 484/484/484
f 484/484/484 486/486/486 485/485/485
f 487/487/487 488/488/488 489/489/489
f 489/489/489 490/490/490 487/487/487
f 491/491/491 487/487/487 490/490/490
f 490/490/490 492/492/492 491/491/491
f 493/493/493 494/494/494 495/495/495
f 495/495/495 496/496/496 493/493/493
f 497/497/497 493/493/493 496/496/496
f 496/496/496 498/498/498 497/497/497
f 499/499/499 500/500/500 501/501/501
f 501/501/501 502/502/502 499/499/499
f 503/503/503 499/499/499 502/502/502
f 503/503/503 502/502/502 504/504/504
f 502/502/502 505/505/505 504/504/504
f 506/506/506 507/507/507 508/508/508
f 507/507/507 509/509/509 508/508/508
f 509/509/509 510/510/510 508/508/508
f 510/510/510 511/511/511 508/508/508
f 512/512/512 513/513/513 514/514/514
f 514/514/514 515/515/515 512/512/512
f 516/516/516 515/515/515 514/514/514
f 514/514/514 517/517/517 516/516/516
f 516/516/516 517/517/517 518/518/518
f 518/518/518 519/519/519 516/516/516
f 520/520/520 521/521/521 522/522/522
f 522/522/522 523/523/523 520/520/520
f 520/520/520 523/523/523 524/524/524
f 524/524/524 525/525/525 520/520/520
f 526/526/526 527/527/527 528/528/528
f 528/528/528 529/529/529 526/526/526
f 529/529/529 530/530/530 526/526/526
f 530/530/530 529/529/529 531/531/531
f 531/531/531 532/532/532 530/530/530
f 530/530/530 532/532/532 533/533/533
f 534/534/534 526/526/526 530/530/530
f 535/535/535 536/536/536 534/534/534
f 534/534/534 537/537/537 535/535/535
f 533/533/533 538/538/538 530/530/530
f 538/538/538 533/533/533 539/539/539
f 539/539/539 540/540/540 538/538/538
f 530/530/530 541/541/541 534/534/534
f 542/542/542 538/538/538 540/540/540
f 540/540/540 543/543/543 542/542/542
f 543/543/543 544/544/544 545/545/545
f 545/545/545 542/542/542 543/543/543
f 542/542/542 545/545/545 546/546/546
f 534/534/534 541/541/541 547/547/547
f 537/537/537 534/534/534 547/547/547
f 548/548/548 541/541/541 530/530/530
f 541/541/541 548/548/548 547/547/547
f 530/530/530 549/549/549 548/548/548
f 547/547/547 548/548/548 550/550/550
f 550/550/550 548/548/548 549/549/549
f 550/550/550 551/551/551 547/547/547
f 549/549/549 552/552/552 550/550/550
f 547/547/547 551/551/551 553/553/553
f 554/554/554 552/552/552 549/549/549
f 553/553/553 555/555/555 547/547/547
f 555/555/555 553/553/553 556/556/556
f 556/556/556 557/557/557 555/555/555
f 558/558/558 547/547/547 555/555/555
f 547/547/547 558/558/558 537/537/537
f 559/559/559 555/555/555 557/557/557
f 559/559/559 558/558/558 555/555/555
f 537/537/537 558/558/558 559/559/559
f 557/557/557 560/560/560 559/559/559
f 559/559/559 561/561/561 537/537/537
f 561/561/561 559/559/559 560/560/560
f 560/560/560 562/562/562 561/561/561
f 563/563/563 549/549/549 530/530/530
f 549/549/549 563/563/563 554/554/554
f 530/530/530 538/538/538 563/563/563
f 554/554/554 563/563/563 564/564/564
f 563/563/563 538/538/538 564/564/564
f 564/564/564 565/565/565 554/554/554
f 565/565/565 564/564/564 566/566/566
f 566/566/566 567/567/567 565/565/565
f 568/568/568 564/564/564 538/538/538
f 567/567/567 566/566/566 569/569/569
f 569/569/569 570/570/570 567/567/567
f 571/571/571 566/566/566 564/564/564
f 571/571/571 569/569/569 566/566/566
f 564/564/564 568/568/568 571/571/571
f 538/538/538 572/572/572 568/568/568
f 572/572/572 538/538/538 542/542/542
f 573/573/573 568/568/568 572/572/572
f 572/572/572 542/542/542 573/573/573
f 571/571/571 568/568/568 573/573/573
f 546/546/546 573/573/573 542/542/542
f 574/574/574 573/573/573 546/546/546
f 573/573/573 574/574/574 571/571/571
f 546/546/546 575/575/575 574/574/574
f 574/574/574 575/575/575 576/576/576
f 571/571/571 574/574/574 577/577/577
f 576/576/576 577/577/577 574/574/574
f 577/577/577 569/569/569 571/571/571
f 569/569/569 577/577/577 578/578/578
f 578/578/578 577/577/577 579/579/579
f 577/577/577 580/580/580 579/579/579
f 580/580/580 577/577/577 576/576/576
f 576/576/576 581/581/581 580/580/580
f 582/582/582 583/583/583 584/584/584
f 584/584/584 585/585/585 582/582/582
f 586/586/586 585/585/585 584/584/584
f 584/584/584 587/587/587 586/586/586
f 588/588/588 589/589/589 590/590/590
f 590/590/590 591/591/591 588/588/588
f 588/588/588 591/591/591 592/592/592
f 592/592/592 593/593/593 588/588/588
f 594/594/594 595/595/595 596/596/596
f 595/595/595 597/597/597 596/596/596
f 597/597/597 598/598/598 596/596/596
f 595/595/595 599/599/599 597/597/597
f 600/600/600 601/601/601 602/602/602
f 603/603/603 604/604/604 602/602/602
f 602/602/602 601/601/601 603/603/603
f 603/603/603 601/601/601 605/605/605
f 605/605/605 606/606/606 603/603/603
f 601/601/601 607/607/607 605/605/605
f 608/608/608 609/609/609 610/610/610
f 611/611/611 612/612/612 609/609/609
f 608/608/608 611/611/611 609/609/609
f 608/608/608 613/613/613 611/611/611
f 613/613/613 614/614/614 611/611/611
f 608/608/608 615/615/615 613/613/613
f 616/616/616 617/617/617 618/618/618
f 618/618/618 619/619/619 616/616/616
f 616/616/616 619/619/619 620/620/620
f 621/621/621 618/618/618 617/617/617
f 622/622/622 621/621/621 617/617/617
f 619/619/619 623/623/623 620/620/620
f 624/624/624 620/620/620 623/623/623
f 619/619/619 618/618/618 625/625/625
f 618/618/618 621/621/621 625/625/625
f 623/623/623 619/619/619 626/626/626
f 626/626/626 619/619/619 625/625/625
f 623/623/623 627/627/627 624/624/624
f 627/627/627 623/623/623 626/626/626
f 624/624/624 627/627/627 628/628/628
f 626/626/626 625/625/625 629/629/629
f 627/627/627 630/630/630 628/628/628
f 631/631/631 628/628/628 630/630/630
f 632/632/632 627/627/627 626/626/626
f 630/630/630 627/627/627 632/632/632
f 632/632/632 626/626/626 629/629/629
f 630/630/630 633/633/633 631/631/631
f 633/633/633 630/630/630 632/632/632
f 631/631/631 633/633/633 634/634/634
f 635/635/635 632/632/632 629/629/629
f 635/635/635 633/633/633 632/632/632
f 633/633/633 636/636/636 634/634/634
f 636/636/636 633/633/633 635/635/635
f 637/637/637 634/634/634 636/636/636
f 638/638/638 635/635/635 629/629/629
f 625/625/625 638/638/638 629/629/629
f 625/625/625 621/621/621 638/638/638
f 639/639/639 636/636/636 635/635/635
f 636/636/636 639/639/639 637/637/637
f 638/638/638 639/639/639 635/635/635
f 637/637/637 639/639/639 640/640/640
f 621/621/621 641/641/641 638/638/638
f 641/641/641 639/639/639 638/638/638
f 639/639/639 641/641/641 640/640/640
f 641/641/641 621/621/621 622/622/622
f 622/622/622 640/640/640 641/641/641
