v -1.583345 1.379522 0.004458999999999916
v -1.583266 1.480505 0.004458999999999909
v -1.495662 1.531124 0.004458999999999907
v -1.408258 1.480826 0.004458999999999909
v -1.408459 1.379907 0.004458999999999916
v -1.496067 1.329291 0.004458999999999919
v -0.525008 1.531853 0.2768829999999999
v -0.817335 1.532735 0.2768829999999999
v -0.816842 1.719694 0.2768829999999999
v -0.524465 1.718899 0.2768829999999999
v -1.587737 0.723528 0.2862259999999999
v -1.787164 0.776994 0.28622699999999995
v -1.707768 1.104525 0.28622299999999995
v -1.499344 1.042521 0.2861909999999999
v -2.130279 -1.613777 0.26542500000000013
v -2.199438 -1.359282 0.26402400000000004
v -2.063373 -1.458738 0.30342400000000014
v -2.013837 -1.308838 0.26507500000000006
v -1.944679 -1.563336 0.26647500000000013
v -1.944679 -1.563336 0.26647500000000013
v 0.984136 -1.639928 0.2760880000000001
v 0.706207 -1.641664 0.2760880000000001
v 0.70496 -1.442124 0.2760880000000001
v 0.98289 -1.440386 0.2760880000000001
v 2.544889 0.394308 0.269136
v 2.632122 0.20717000000000002 0.269138
v 2.330184 0.057458000000000016 0.269133
v 2.243709 0.256976 0.269101
v -2.097847 -0.827753 0.0024500000000000507
v -2.114871 -0.626173 0.002450000000000038
v -1.985955 -0.615238 0.0024500000000000377
v -1.968869 -0.816846 0.00245000000000005
v -1.760665 1.38492 0.12121499999999992
v -1.763295 1.751717 0.12121499999999989
v -1.583642 1.752584 0.12121499999999989
v -1.581727 1.386053 0.12121499999999992
v -1.760665 1.38492 -0.007577000000000085
v -1.763295 1.751717 -0.007577000000000108
v -1.583642 1.752584 -0.007577000000000108
v -1.581727 1.386053 -0.007577000000000085
v -1.481153 1.777439 0.005595999999999892
v -1.393165 1.575685 0.005536999999999904
v -1.702381 1.434228 0.005839999999999912
v -1.794097 1.635771 0.0057949999999999
v 0.952716 1.788841 0.00819199999999989
v 0.948469 1.619573 0.008145999999999902
v 0.686894 1.621478 0.0083789999999999
v 0.688473 1.791812 0.00834499999999989
v 0.858308 1.654174 0.1270019999999999
v 0.757469 1.703466 0.1269489999999999
v 0.757469 1.703466 0.005973999999999896
v 0.858308 1.654174 0.005992999999999899
v 0.806282 1.806845 0.005674999999999889
v 0.806283 1.806845 0.1261099999999999
v 0.907268 1.757481 0.12618799999999988
v 0.907268 1.757481 0.005702999999999892
v -2.204213 -0.486342 0.08957700000000003
v -2.420723 -0.44749 0.08957700000000003
v -2.395929 -0.309011 0.08957700000000002
v -2.17937 -0.347805 0.08957700000000003
v -2.420723 -0.44749 0.018393000000000027
v -2.395929 -0.309011 0.018393000000000017
v -2.17937 -0.347805 0.01839300000000002
v -2.204214 -0.486341 0.01839300000000003
v -2.381254 -0.44927 0.15061900000000003
v -2.323231 -0.548949 0.15061900000000003
v -2.48764 -0.644847 0.15061900000000003
v -2.546041 -0.544861 0.15061900000000003
v -2.381254 -0.44927 0.006139000000000028
v -2.546041 -0.544861 0.006139000000000033
v -2.48764 -0.644847 0.00613900000000004
v -2.323231 -0.548949 0.006139000000000034
v -2.593466 -0.486858 0.012084000000000029
v -2.277125 -0.301181 0.012084000000000018
v -2.186548 -0.456332 0.012084000000000027
v -2.503015 -0.641256 0.01208400000000004
v 0.339003 -0.615103 0.12907900000000003
v 0.161063 -0.681129 0.12907900000000005
v 0.11366 -0.553378 0.12907900000000003
v 0.291599 -0.487351 0.12907900000000003
v 0.11366 -0.553378 0.022992000000000033
v 0.291599 -0.487351 0.02299200000000003
v 0.339003 -0.615103 0.022992000000000037
v 0.161063 -0.681129 0.02299200000000004
v 0.300234 -0.486985 0.016538000000000032
v 0.389285 -0.68004 0.016538000000000042
v 0.19623 -0.769092 0.01653800000000005
v 0.107178 -0.576036 0.016538000000000035
v 0.464559 -0.440069 0.012572000000000028
v 0.67279 -0.138099 0.012572000000000009
v 0.82045 -0.240433 0.012572000000000014
v 0.611786 -0.541775 0.012572000000000033
v 2.966149 0.387823 0.010122999999999976
v 2.885859 0.223569 0.010035999999999986
v 2.717468 0.303081 0.00866899999999998
v 2.797875 0.467573 0.00879599999999997
v 2.890731 0.495185 0.20445899999999997
v 2.903325 0.312792 0.20437099999999997
v 2.903325 0.312792 0.007318999999999981
v 2.890732 0.495185 0.007349999999999969
v 2.717737 0.297455 0.006831999999999982
v 2.717737 0.297455 0.20300499999999996
v 2.705127 0.480114 0.20313199999999998
v 2.705127 0.480114 0.006876999999999971
v 2.533263 -1.201422 0.006362000000000073
v 2.636419 -1.347638 0.006362000000000082
v 2.39528 -1.518089 0.006362000000000092
v 2.291497 -1.37145 0.006362000000000084
v 1.239039 1.643801 0.006063999999999899
v 1.178438 1.472261 0.00606399999999991
v 1.006898 1.532863 0.006063999999999906
v 1.0675 1.704403 0.006063999999999896
v 1.565946 1.157759 0.012184999999999929
v 1.665264 1.053786 0.012184999999999935
v 1.560961 0.955404 0.01218499999999994
v 1.461635 1.059513 0.012184999999999935
v -1.228865 1.741414 0.008540999999999894
v -1.097726 1.706774 0.008540999999999896
v -1.154696 1.490311 0.008540999999999908
v -1.286405 1.524891 0.008540999999999906
v -2.236013 1.43989 0.010434999999999911
v -2.236894 1.227288 0.010434999999999925
v -2.449496 1.228169 0.010434999999999925
v -2.448616 1.440771 0.010434999999999911
v -2.308406 -1.924216 0.008223000000000117
v -2.402352 -1.726214 0.008223000000000105
v -2.110404 -1.830273 0.008223000000000112
v -2.204348 -1.63227 0.0082230000000001
v -2.707575 -0.623148 0.023062000000000037
v -2.864206 -0.528848 0.02297500000000003
v -2.77032 -0.368027 0.02160900000000002
v -2.613462 -0.462465 0.02173500000000003
v -0.833086 -1.843087 0.009442000000000113
v -0.798735 -2.03103 0.009442000000000126
v -0.933669 -2.055693 0.009442000000000127
v -0.968021 -1.867749 0.009442000000000115
v 0.356992 -1.727158 0.014645000000000106
v 0.303545 -1.613595 0.014645000000000099
v 0.490873 -1.525226 0.014645000000000094
v 0.544702 -1.639157 0.0146450000000001
v -0.49655 -0.363767 0.013065000000000023
v -0.699205 -0.364213 0.013065000000000023
v -0.496317 -0.246824 0.013065000000000016
v -0.598069 -0.42242 0.013065000000000026
v -0.699112 -0.247196 0.013065000000000016
v -0.597599 -0.188539 0.013065000000000012
v 1.249372 -1.788687 0.010015000000000109
v 1.087253 -1.71357 0.010015000000000104
v 1.16294 -1.552429 0.010015000000000095
v 1.325143 -1.627437 0.010015000000000098
v 2.395082 -1.842104 -0.017190999999999887
v 2.007848 -1.693963 -0.015912999999999896
v 2.343158 -1.956671 -0.01732899999999988
v 1.959711 -1.813039 -0.01605499999999989
v 2.232125 -1.556143 0.0021080000000000955
v 2.160739 -1.435161 0.002108000000000088
v 2.281721 -1.363776 0.0021080000000000838
v 2.353106 -1.484757 0.002108000000000091
v 0.11359 -0.752178 -0.036573999999999954
v -0.03476 -0.749459 -0.03664499999999995
v -0.034032 -0.598332 -0.03775399999999997
v 0.114533 -0.601057 -0.03765099999999996
v 1.850408 1.171655 0.28996799999999995
v 1.688962 1.079093 0.28996799999999995
v 1.629724 1.182324 0.28996799999999995
v 1.79117 1.27495 0.28996799999999995
v -1.763295 1.751717 0.12121499999999989
v -1.760665 1.38492 0.12121499999999992
v -1.583642 1.752584 0.12121499999999989
v -1.763295 1.751717 0.12121499999999989
v -1.763295 1.751717 -0.007577000000000108
v -1.581727 1.386053 0.12121499999999992
v -1.583642 1.752584 0.12121499999999989
v -1.583642 1.752584 -0.007577000000000108
v -1.760665 1.38492 0.12121499999999992
v -1.581727 1.386053 0.12121499999999992
v -1.581727 1.386053 -0.007577000000000085
v -1.760665 1.38492 -0.007577000000000085
v 0.757469 1.703466 0.1269489999999999
v 0.806283 1.806845 0.1261099999999999
v 0.858308 1.654174 0.1270019999999999
v 0.757469 1.703466 0.005973999999999896
v 0.757469 1.703466 0.1269489999999999
v 0.907268 1.757481 0.12618799999999988
v 0.858308 1.654174 0.005992999999999899
v 0.858308 1.654174 0.1270019999999999
v 0.907268 1.757481 0.12618799999999988
v 0.806283 1.806845 0.1261099999999999
v 0.806282 1.806845 0.005674999999999889
v 0.907268 1.757481 0.005702999999999892
v -2.395929 -0.309011 0.018393000000000017
v -2.17937 -0.347805 0.01839300000000002
v -2.204214 -0.486341 0.01839300000000003
v -2.420723 -0.44749 0.018393000000000027
v -2.546041 -0.544861 0.15061900000000003
v -2.381254 -0.44927 0.15061900000000003
v -2.48764 -0.644847 0.15061900000000003
v -2.546041 -0.544861 0.006139000000000033
v -2.546041 -0.544861 0.15061900000000003
v -2.323231 -0.548949 0.15061900000000003
v -2.48764 -0.644847 0.00613900000000004
v -2.48764 -0.644847 0.15061900000000003
v -2.381254 -0.44927 0.15061900000000003
v -2.381254 -0.44927 0.006139000000000028
v -2.323231 -0.548949 0.006139000000000034
v -2.323231 -0.548949 0.15061900000000003
v 0.291599 -0.487351 0.12907900000000003
v 0.11366 -0.553378 0.12907900000000003
v 0.291599 -0.487351 0.02299200000000003
v 0.339003 -0.615103 0.12907900000000003
v 0.291599 -0.487351 0.12907900000000003
v 0.339003 -0.615103 0.022992000000000037
v 0.161063 -0.681129 0.12907900000000005
v 0.339003 -0.615103 0.12907900000000003
v 0.161063 -0.681129 0.02299200000000004
v 0.11366 -0.553378 0.022992000000000033
v 0.11366 -0.553378 0.12907900000000003
v 0.161063 -0.681129 0.12907900000000005
v 2.903325 0.312792 0.20437099999999997
v 2.717737 0.297455 0.20300499999999996
v 2.890731 0.495185 0.20445899999999997
v 2.903325 0.312792 0.007318999999999981
v 2.903325 0.312792 0.20437099999999997
v 2.705127 0.480114 0.20313199999999998
v 2.890732 0.495185 0.007349999999999969
v 2.890731 0.495185 0.20445899999999997
v 2.705127 0.480114 0.20313199999999998
v 2.717737 0.297455 0.20300499999999996
v 2.717737 0.297455 0.006831999999999982
v 2.705127 0.480114 0.006876999999999971
v -1.944679 -1.563336 0.26647500000000013
v -2.130279 -1.613777 0.26542500000000013
v -2.395929 -0.309011 0.08957700000000002
v -2.420723 -0.44749 0.08957700000000003
v -2.395929 -0.309011 0.08957700000000002
v -2.17937 -0.347805 0.08957700000000003
v -2.395929 -0.309011 0.08957700000000002
v -2.17937 -0.347805 0.08957700000000003
v -2.204213 -0.486342 0.08957700000000003
v -2.17937 -0.347805 0.08957700000000003
v -2.204213 -0.486342 0.08957700000000003
v -2.420723 -0.44749 0.08957700000000003
v -2.204213 -0.486342 0.08957700000000003
v -2.420723 -0.44749 0.08957700000000003
vt 0.790487 0.041484
vt 0.806728 0.041484
vt 0.814848 0.024539
vt 0.806728 0.008519
vt 0.790487 0.008519
vt 0.782367 0.024539
vt 0.186429 0.020763
vt 0.154006 0.020763
vt 0.154006 0.043239
vt 0.186429 0.043239
vt 0.858378 0.297944
vt 0.858519 0.266850
vt 0.817380 0.266991
vt 0.816777 0.298038
vt 0.526628 0.112571
vt 0.526628 0.152130
vt 0.541005 0.132438
vt 0.555274 0.152130
vt 0.555274 0.112571
vt 0.555274 0.112571
vt 0.913742 0.237634
vt 0.867124 0.237634
vt 0.867124 0.275382
vt 0.913742 0.275382
vt 0.858378 0.297944
vt 0.858519 0.266850
vt 0.817380 0.266991
vt 0.816777 0.298038
vt 0.186429 0.020763
vt 0.154006 0.020763
vt 0.154006 0.043239
vt 0.186429 0.043239
vt 0.774114 0.006345
vt 0.682336 0.006345
vt 0.682336 0.045058
vt 0.774114 0.045058
vt 0.432119 0.006345
vt 0.312378 0.006345
vt 0.623466 0.006345
vt 0.498930 0.006345
vt 0.854889 0.261503
vt 0.854878 0.234551
vt 0.817339 0.234530
vt 0.817350 0.261524
vt 0.854889 0.261503
vt 0.854878 0.234551
vt 0.817339 0.234530
vt 0.817350 0.261524
vt 0.767239 0.195702
vt 0.737078 0.195702
vt 0.703550 0.196010
vt 0.837923 0.165280
vt 0.703550 0.163409
vt 0.737078 0.163101
vt 0.767239 0.163101
vt 0.801142 0.162485
vt 0.186429 0.020763
vt 0.154006 0.020763
vt 0.154006 0.043239
vt 0.186429 0.043239
vt 0.144353 0.020455
vt 0.144353 0.042931
vt 0.186429 0.054451
vt 0.194034 0.020763
vt 0.608261 0.054421
vt 0.608261 0.101034
vt 0.684673 0.101034
vt 0.684673 0.054421
vt 0.528060 0.054421
vt 0.603016 0.054421
vt 0.395128 0.054421
vt 0.473850 0.054421
vt 0.774114 0.006345
vt 0.682336 0.006345
vt 0.682336 0.045058
vt 0.774114 0.045058
vt 0.913742 0.237634
vt 0.867124 0.237634
vt 0.867124 0.275382
vt 0.913742 0.275382
vt 0.913929 0.281124
vt 0.867311 0.281124
vt 0.890024 0.164098
vt 0.867124 0.206053
vt 0.368520 0.225184
vt 0.410102 0.225184
vt 0.410102 0.184169
vt 0.368520 0.184169
vt 0.774114 0.006345
vt 0.682336 0.006345
vt 0.682336 0.045058
vt 0.774114 0.045058
vt 0.767239 0.195702
vt 0.737078 0.195702
vt 0.737078 0.163101
vt 0.767239 0.163101
vt 0.767239 0.195702
vt 0.737078 0.195702
vt 0.703550 0.196010
vt 0.837923 0.165280
vt 0.703550 0.163409
vt 0.737078 0.163101
vt 0.767239 0.163101
vt 0.801142 0.162485
vt 0.608261 0.054421
vt 0.608261 0.101034
vt 0.684673 0.101034
vt 0.684673 0.054421
vt 0.103552 0.040864
vt 0.103789 0.008237
vt 0.073727 0.008237
vt 0.073727 0.040864
vt 0.010083 0.052205
vt 0.020454 0.047797
vt 0.016160 0.037136
vt 0.005778 0.041555
vt 0.608261 0.054421
vt 0.608261 0.101034
vt 0.684673 0.101034
vt 0.684673 0.054421
vt 0.368520 0.225184
vt 0.410102 0.225184
vt 0.410102 0.184169
vt 0.368520 0.184169
vt 0.006440 0.059383
vt 0.006440 0.111242
vt 0.049960 0.059383
vt 0.049961 0.111242
vt 0.767239 0.195702
vt 0.737078 0.195702
vt 0.737078 0.163101
vt 0.767239 0.163101
vt 0.913742 0.237634
vt 0.867124 0.237634
vt 0.867124 0.275382
vt 0.913742 0.275382
vt 0.608261 0.054421
vt 0.608261 0.101034
vt 0.684673 0.101034
vt 0.684673 0.054421
vt 0.790447 0.008568
vt 0.790447 0.042458
vt 0.806688 0.008568
vt 0.782327 0.025513
vt 0.806688 0.042458
vt 0.814808 0.025513
vt 0.481134 0.259271
vt 0.490757 0.235212
vt 0.467522 0.225247
vt 0.457896 0.249305
vt 0.974904 0.159751
vt 0.975133 0.203544
vt 0.962878 0.159751
vt 0.963107 0.203544
vt 0.103552 0.040864
vt 0.103789 0.008237
vt 0.073727 0.008237
vt 0.073727 0.040864
vt 0.767239 0.195702
vt 0.737078 0.195702
vt 0.737078 0.163101
vt 0.767239 0.163101
vt 0.186429 0.020763
vt 0.154006 0.020763
vt 0.154006 0.043239
vt 0.186429 0.043239
vt 0.312378 0.045058
vt 0.432118 0.045058
vt 0.623466 0.045058
vt 0.678375 0.045058
vt 0.678375 0.006345
vt 0.498930 0.045058
vt 0.618142 0.045058
vt 0.618142 0.006345
vt 0.435329 0.045058
vt 0.495251 0.045058
vt 0.495251 0.006345
vt 0.435329 0.006345
vt 0.734013 0.196010
vt 0.734013 0.163409
vt 0.807462 0.165280
vt 0.837923 0.195224
vt 0.807462 0.195224
vt 0.770679 0.162485
vt 0.801142 0.195086
vt 0.770679 0.195086
vt 0.807462 0.165280
vt 0.807462 0.195224
vt 0.837923 0.195224
vt 0.837923 0.165280
vt 0.154006 0.054451
vt 0.194034 0.043239
vt 0.186429 0.008706
vt 0.154006 0.008706
vt 0.603016 0.101034
vt 0.528060 0.101034
vt 0.395128 0.101034
vt 0.349555 0.054421
vt 0.349555 0.101034
vt 0.473850 0.101034
vt 0.398939 0.054421
vt 0.398939 0.101034
vt 0.523663 0.101034
vt 0.523663 0.054421
vt 0.477953 0.054421
vt 0.477953 0.101034
vt 0.867311 0.307651
vt 0.913929 0.307651
vt 0.890024 0.201846
vt 0.866503 0.164098
vt 0.866503 0.201846
vt 0.913742 0.206053
vt 0.867124 0.232580
vt 0.913742 0.232580
vt 0.893348 0.163833
vt 0.893348 0.201581
vt 0.916869 0.201581
vt 0.916869 0.163833
vt 0.734013 0.196010
vt 0.734013 0.163409
vt 0.807462 0.165280
vt 0.837923 0.195224
vt 0.807462 0.195224
vt 0.770679 0.162485
vt 0.801142 0.195086
vt 0.770679 0.195086
vt 0.807462 0.165280
vt 0.807462 0.195224
vt 0.837923 0.195224
vt 0.837923 0.165280
vt 0.555274 0.112571
vt 0.526628 0.112571
vt 0.154006 0.043239
vt 0.154006 0.020763
vt 0.154006 0.043239
vt 0.186429 0.043239
vt 0.154006 0.043239
vt 0.186429 0.043239
vt 0.186429 0.020763
vt 0.186429 0.043239
vt 0.186429 0.020763
vt 0.154006 0.020763
vt 0.186429 0.020763
vt 0.154006 0.020763
vn 0 6.123233995736766E-17 1
vn 0 6.123233995736766E-17 1
vn 0 6.123233995736766E-17 1
vn 0 6.123233995736766E-17 1
vn 0 6.123233995736766E-17 1
vn 0 6.123233995736766E-17 1
vn 0 6.123233995736766E-17 1
vn 0 6.123233995736766E-17 1
vn 0 6.123233995736766E-17 1
vn 0 6.123233995736766E-17 1
vn 9.1E-05 3.600000000006123E-05 1
vn 9E-06 1.0000000000061233E-05 1
vn 9.1E-05 3.600000000006123E-05 1
vn 0.000173 6.200000000006123E-05 1
vn -0.137348 -0.17947999999999995 0.974127
vn -0.212006 0.09525700000000005 0.972615
vn 0.009094 0.007974000000000061 0.999927
vn 0.155929 0.19614400000000007 0.968098
vn 0.231057 -0.08031799999999994 0.969619
vn 1 0 0
vn 0 6.123233995736766E-17 1
vn 0 6.123233995736766E-17 1
vn 0 6.123233995736766E-17 1
vn 0 6.123233995736766E-17 1
vn -8.6E-05 4.700000000006123E-05 1
vn -1.4E-05 1.0000000000612324E-06 1
vn -8.6E-05 4.700000000006123E-05 1
vn -0.000158 9.300000000006123E-05 1
vn 0 6.123233995736766E-17 1
vn 0 6.123233995736766E-17 1
vn 0 6.123233995736766E-17 1
vn 0 6.123233995736766E-17 1
vn 0 6.123233995736766E-17 1
vn 0 6.123233995736766E-17 1
vn 0 6.123233995736766E-17 1
vn 0 6.123233995736766E-17 1
vn -0.999974 -0.007169 4.389746451543687E-19
vn -0.999974 -0.007169 4.389746451543687E-19
vn -0.00483 0.999988 -6.123160516928818E-17
vn 0.999986 0.005225 -3.19938976277246E-19
vn 0.000686 0.00026700000000006124 1
vn 0.000929 0.00011000000000006123 1
vn 0.000686 0.00026700000000006124 1
vn 0.000443 0.00042400000000006126 1
vn 0.000735 -4.799999999993877E-05 1
vn 0.000889 -0.00029299999999993876 1
vn 0.000735 -4.799999999993877E-05 1
vn 0.000581 0.00019700000000006122 1
vn 0.002647 0.006747000000000062 0.999974
vn 0.002791 0.0067960000000000615 0.999973
vn -0.904265 0.426972 -2.6144494656277187E-17
vn -0.439162 -0.898408 2.0000000000550117E-06
vn -0.904264 0.426975 2.9999999999738556E-06
vn 0.002647 0.006747000000000062 0.999974
vn 0.002502 0.0066980000000000615 0.999974
vn 0.903652 -0.428267 -1.999999999973776E-06
vn 0.597342 -0.44577799999999995 0.666681
vn -0.546 -0.731614 0.40819600000000006
vn -0.597466 0.44561600000000007 0.666679
vn 0.545843 0.731689 0.40827299999999994
vn -0.959267 -0.2825 1.7298136037956363E-17
vn -0.282509 0.959265 -5.873804058920429E-17
vn 0.959311 0.282352 -7.000000000017289E-06
vn 0.282228 -0.959348 -5.999999999941257E-06
vn 0 6.123233995736766E-17 1
vn 0 6.123233995736766E-17 1
vn 0 6.123233995736766E-17 1
vn 0 6.123233995736766E-17 1
vn -0.501776 0.864997 -5.2965790366103155E-17
vn -0.501776 0.864997 -5.2965790366103155E-17
vn -0.863493 -0.504361 3.0883204213237907E-17
vn 0.503845 -0.863794 5.289212786113444E-17
vn 0 6.123233995736766E-17 1
vn 0 6.123233995736766E-17 1
vn 0 6.123233995736766E-17 1
vn 0 6.123233995736766E-17 1
vn 0 6.123233995736766E-17 1
vn 0 6.123233995736766E-17 1
vn 0 6.123233995736766E-17 1
vn 0 6.123233995736766E-17 1
vn -0.347888 0.937536 -5.740752307427065E-17
vn -0.347888 0.937536 -5.740752307427065E-17
vn 0.937539 0.34788 -2.1301506424369062E-17
vn 0.347882 -0.937538 5.740764553895056E-17
vn -0 6.123233995736766E-17 1
vn -0 6.123233995736766E-17 1
vn -0 6.123233995736766E-17 1
vn -0 6.123233995736766E-17 1
vn 0 6.123233995736766E-17 1
vn 0 6.123233995736766E-17 1
vn 0 6.123233995736766E-17 1
vn 0 6.123233995736766E-17 1
vn -0.006747 0.002647000000000061 0.999974
vn -0.006796 0.0027910000000000612 0.999973
vn -0.006747 0.002647000000000061 0.999974
vn -0.006698 0.002502000000000061 0.999974
vn -0.007166 -0.0010809999999999388 0.999974
vn -0.007281 -0.0009799999999999388 0.999973
vn 0.08236 -0.996603 6.102433369853248E-17
vn 0.997625 0.068878 1.9999999999957825E-06
vn 0.08236 -0.996603 6.102433369853248E-17
vn -0.007166 -0.0010809999999999388 0.999974
vn -0.007051 -0.001181999999999939 0.999974
vn -0.080937 0.996719 -6.103143664996754E-17
vn 0 6.123233995736766E-17 1
vn 0 6.123233995736766E-17 1
vn 0 6.123233995736766E-17 1
vn 0 6.123233995736766E-17 1
vn 0 6.123233995736766E-17 1
vn 0 6.123233995736766E-17 1
vn 0 6.123233995736766E-17 1
vn 0 6.123233995736766E-17 1
vn 0 6.123233995736766E-17 1
vn 0 6.123233995736766E-17 1
vn 0 6.123233995736766E-17 1
vn 0 6.123233995736766E-17 1
vn 0 6.123233995736766E-17 1
vn 0 6.123233995736766E-17 1
vn 0 6.123233995736766E-17 1
vn 0 6.123233995736766E-17 1
vn -0 6.123233995736766E-17 1
vn -0 6.123233995736766E-17 1
vn -0 6.123233995736766E-17 1
vn -0 6.123233995736766E-17 1
vn 0 6.123233995736766E-17 1
vn 1E-06 6.123233995736766E-17 1
vn 0 6.123233995736766E-17 1
vn 0 6.123233995736766E-17 1
vn 0.003225 0.006491000000000062 0.999974
vn 0.003373 0.006527000000000061 0.999973
vn 0.003225 0.006491000000000062 0.999974
vn 0.003077 0.006454000000000061 0.999974
vn 0 6.123233995736766E-17 1
vn 0 6.123233995736766E-17 1
vn 0 6.123233995736766E-17 1
vn 0 6.123233995736766E-17 1
vn 0 6.123233995736766E-17 1
vn 0 6.123233995736766E-17 1
vn 0 6.123233995736766E-17 1
vn 0 6.123233995736766E-17 1
vn 0 6.123233995736766E-17 1
vn 0 6.123233995736766E-17 1
vn 0 6.123233995736766E-17 1
vn 0 6.123233995736766E-17 1
vn 0 6.123233995736766E-17 1
vn 0 6.123233995736766E-17 1
vn 0 6.123233995736766E-17 1
vn 0 6.123233995736766E-17 1
vn 0 6.123233995736766E-17 1
vn 0 6.123233995736766E-17 1
vn 0.002419 -0.002303999999999939 0.999995
vn 0.002458 -0.0022529999999999386 0.999994
vn 0.002458 -0.0022529999999999386 0.999994
vn 0.002498 -0.002201999999999939 0.999994
vn -0 6.123233995736766E-17 1
vn -0 6.123233995736766E-17 1
vn -0 6.123233995736766E-17 1
vn -1E-06 6.123233995736766E-17 1
vn -0.000452 0.007233000000000061 0.999974
vn -0.000342 0.007339000000000062 0.999973
vn -0.000452 0.007233000000000061 0.999974
vn -0.000563 0.007128000000000061 0.999974
vn -0 6.123233995736766E-17 1
vn -0 6.123233995736766E-17 1
vn -0 6.123233995736766E-17 1
vn -0 6.123233995736766E-17 1
vn -0.999974 -0.007169 4.389746451543687E-19
vn -0.999974 -0.007169 4.389746451543687E-19
vn -0.00483 0.999988 -6.123160516928818E-17
vn -0.00483 0.999988 -6.123160516928818E-17
vn -0.00483 0.999988 -6.123160516928818E-17
vn 0.999986 0.005225 -3.19938976277246E-19
vn 0.999986 0.005225 -3.19938976277246E-19
vn 0.999986 0.005225 -3.19938976277246E-19
vn 0.006334 -0.99998 6.12311153105685E-17
vn 0.006334 -0.99998 6.12311153105685E-17
vn 0.006334 -0.99998 6.12311153105685E-17
vn 0.006334 -0.99998 6.12311153105685E-17
vn -0.904264 0.426975 2.9999999999738556E-06
vn -0.904262 0.426977 5.999999999973856E-06
vn -0.439161 -0.898408 1.0000000000550116E-06
vn -0.439161 -0.898408 1.0000000000550116E-06
vn -0.43916 -0.898409 5.501168530875872E-17
vn 0.903652 -0.428267 -9.999999999737762E-07
vn 0.903652 -0.428267 -9.999999999737762E-07
vn 0.903652 -0.428268 2.6223851768861933E-17
vn 0.439164 0.898407 -3.0000000000550115E-06
vn 0.439164 0.898407 -4.000000000055011E-06
vn 0.439164 0.898407 -3.0000000000550115E-06
vn 0.439163 0.898408 -3.000000000055012E-06
vn -0.282509 0.959265 -5.873804058920429E-17
vn 0.959311 0.282352 -7.000000000017289E-06
vn 0.282228 -0.959348 -5.999999999941257E-06
vn -0.959267 -0.2825 1.7298136037956363E-17
vn -0.501776 0.864997 -5.2965790366103155E-17
vn -0.501776 0.864997 -5.2965790366103155E-17
vn -0.863493 -0.504361 3.0883204213237907E-17
vn -0.863493 -0.504361 3.0883204213237907E-17
vn -0.863493 -0.504361 3.0883204213237907E-17
vn 0.503845 -0.863794 5.289212786113444E-17
vn 0.503845 -0.863794 5.289212786113444E-17
vn 0.503845 -0.863794 5.289212786113444E-17
vn 0.864245 0.503072 -3.080427572703286E-17
vn 0.864245 0.503072 -3.080427572703286E-17
vn 0.864245 0.503072 -3.080427572703286E-17
vn 0.864245 0.503072 -3.080427572703286E-17
vn -0.347888 0.937536 -5.740752307427065E-17
vn -0.347888 0.937536 -5.740752307427065E-17
vn 0.937539 0.34788 -2.1301506424369062E-17
vn 0.937539 0.34788 -2.1301506424369062E-17
vn 0.937539 0.34788 -2.1301506424369062E-17
vn 0.347882 -0.937538 5.740764553895056E-17
vn 0.347882 -0.937538 5.740764553895056E-17
vn 0.347882 -0.937538 5.740764553895056E-17
vn -0.937539 -0.34788 2.1301506424369062E-17
vn -0.937539 -0.34788 2.1301506424369062E-17
vn -0.937539 -0.34788 2.1301506424369062E-17
vn -0.937539 -0.34788 2.1301506424369062E-17
vn 0.08236 -0.996603 6.102433369853248E-17
vn 0.08236 -0.996603 6.102433369853248E-17
vn 0.997625 0.068879 9.999999999957824E-07
vn 0.997625 0.068879 9.999999999957824E-07
vn 0.997625 0.06888 -4.2176835762634846E-18
vn -0.080937 0.996719 -6.103143664996754E-17
vn -0.080937 0.996719 -6.103143664996754E-17
vn -0.080937 0.996719 -6.103143664996754E-17
vn -0.997625 -0.068873 -1.9999999999957825E-06
vn -0.997625 -0.068875 4.217377414563698E-18
vn -0.997625 -0.068873 -1.9999999999957825E-06
vn -0.997626 -0.06887 -3.9999999999957824E-06
vn 0.231057 -0.08031799999999994 0.969619
vn -0.137348 -0.17947999999999995 0.974127
vn -0.597466 0.44561600000000007 0.666679
vn -0.546 -0.731614 0.40819600000000006
vn -0.597466 0.44561600000000007 0.666679
vn 0.545843 0.731689 0.40827299999999994
vn -0.597466 0.44561600000000007 0.666679
vn 0.545843 0.731689 0.40827299999999994
vn 0.597342 -0.44577799999999995 0.666681
vn 0.545843 0.731689 0.40827299999999994
vn 0.597342 -0.44577799999999995 0.666681
vn -0.546 -0.731614 0.40819600000000006
vn 0.597342 -0.44577799999999995 0.666681
vn -0.546 -0.731614 0.40819600000000006
g Lod
f 165/165/165 164/164/164 163/163/163
f 163/163/163 166/166/166 165/165/165
f 159/159/159 162/162/162 161/161/161
f 161/161/161 160/160/160 159/159/159
f 155/155/155 158/158/158 157/157/157
f 157/157/157 156/156/156 155/155/155
f 153/153/153 151/151/151 152/152/152
f 152/152/152 154/154/154 153/153/153
f 148/148/148 147/147/147 150/150/150
f 150/150/150 149/149/149 148/148/148
f 144/144/144 141/141/141 142/142/142
f 141/141/141 143/143/143 142/142/142
f 143/143/143 146/146/146 142/142/142
f 146/146/146 145/145/145 142/142/142
f 139/139/139 138/138/138 137/137/137
f 137/137/137 140/140/140 139/139/139
f 135/135/135 134/134/134 133/133/133
f 133/133/133 136/136/136 135/135/135
f 129/129/129 132/132/132 131/131/131
f 131/131/131 130/130/130 129/129/129
f 128/128/128 126/126/126 125/125/125
f 125/125/125 127/127/127 128/128/128
f 123/123/123 122/122/122 121/121/121
f 121/121/121 124/124/124 123/123/123
f 119/119/119 118/118/118 117/117/117
f 117/117/117 120/120/120 119/119/119
f 114/114/114 113/113/113 116/116/116
f 114/114/114 116/116/116 115/115/115
f 109/109/109 112/112/112 111/111/111
f 111/111/111 110/110/110 109/109/109
f 107/107/107 106/106/106 105/105/105
f 105/105/105 108/108/108 107/107/107
f 227/227/227 230/230/230 229/229/229
f 229/229/229 228/228/228 227/227/227
f 224/224/224 226/226/226 225/225/225
f 225/225/225 104/104/104 224/224/224
f 221/221/221 223/223/223 222/222/222
f 222/222/222 100/100/100 221/221/221
f 219/219/219 220/220/220 101/101/101
f 101/101/101 99/99/99 219/219/219
f 97/97/97 103/103/103 102/102/102
f 102/102/102 98/98/98 97/97/97
f 93/93/93 96/96/96 95/95/95
f 95/95/95 94/94/94 93/93/93
f 91/91/91 90/90/90 89/89/89
f 89/89/89 92/92/92 91/91/91
f 87/87/87 86/86/86 85/85/85
f 85/85/85 88/88/88 87/87/87
f 215/215/215 218/218/218 217/217/217
f 217/217/217 216/216/216 215/215/215
f 212/212/212 214/214/214 213/213/213
f 213/213/213 84/84/84 212/212/212
f 209/209/209 211/211/211 210/210/210
f 210/210/210 83/83/83 209/209/209
f 81/81/81 208/208/208 207/207/207
f 207/207/207 82/82/82 81/81/81
f 79/79/79 78/78/78 77/77/77
f 77/77/77 80/80/80 79/79/79
f 75/75/75 74/74/74 73/73/73
f 73/73/73 76/76/76 75/75/75
f 203/203/203 206/206/206 205/205/205
f 205/205/205 204/204/204 203/203/203
f 200/200/200 202/202/202 201/201/201
f 201/201/201 72/72/72 200/200/200
f 197/197/197 199/199/199 198/198/198
f 198/198/198 71/71/71 197/197/197
f 195/195/195 196/196/196 69/69/69
f 69/69/69 70/70/70 195/195/195
f 67/67/67 66/66/66 65/65/65
f 65/65/65 68/68/68 67/67/67
f 244/244/244 194/194/194 193/193/193
f 193/193/193 243/243/243 242/242/242
f 241/241/241 64/64/64 192/192/192
f 192/192/192 240/240/240 239/239/239
f 238/238/238 63/63/63 191/191/191
f 191/191/191 237/237/237 236/236/236
f 235/235/235 62/62/62 61/61/61
f 61/61/61 234/234/234 233/233/233
f 59/59/59 58/58/58 57/57/57
f 57/57/57 60/60/60 59/59/59
f 187/187/187 190/190/190 189/189/189
f 189/189/189 188/188/188 187/187/187
f 184/184/184 186/186/186 185/185/185
f 185/185/185 56/56/56 184/184/184
f 181/181/181 183/183/183 182/182/182
f 182/182/182 52/52/52 181/181/181
f 179/179/179 180/180/180 53/53/53
f 53/53/53 51/51/51 179/179/179
f 49/49/49 55/55/55 54/54/54
f 54/54/54 50/50/50 49/49/49
f 47/47/47 46/46/46 45/45/45
f 45/45/45 48/48/48 47/47/47
f 43/43/43 42/42/42 41/41/41
f 41/41/41 44/44/44 43/43/43
f 175/175/175 178/178/178 177/177/177
f 177/177/177 176/176/176 175/175/175
f 172/172/172 40/40/40 174/174/174
f 174/174/174 173/173/173 172/172/172
f 169/169/169 39/39/39 171/171/171
f 171/171/171 170/170/170 169/169/169
f 167/167/167 38/38/38 37/37/37
f 37/37/37 168/168/168 167/167/167
f 35/35/35 34/34/34 33/33/33
f 33/33/33 36/36/36 35/35/35
f 31/31/31 30/30/30 29/29/29
f 29/29/29 32/32/32 31/31/31
f 27/27/27 26/26/26 25/25/25
f 25/25/25 28/28/28 27/27/27
f 23/23/23 22/22/22 21/21/21
f 21/21/21 24/24/24 23/23/23
f 232/232/232 20/20/20 231/231/231
f 19/19/19 17/17/17 15/15/15
f 17/17/17 19/19/19 18/18/18
f 17/17/17 18/18/18 16/16/16
f 17/17/17 16/16/16 15/15/15
f 13/13/13 12/12/12 11/11/11
f 11/11/11 14/14/14 13/13/13
f 9/9/9 8/8/8 7/7/7
f 7/7/7 10/10/10 9/9/9
f 6/6/6 5/5/5 1/1/1
f 5/5/5 4/4/4 1/1/1
f 4/4/4 3/3/3 1/1/1
f 3/3/3 2/2/2 1/1/1
