v -2.860171 1.437051 0.6213449999999999
v -2.860171 1.437051 0.4982499999999999
v -2.889524 1.101563 0.8913869999999999
v -2.889524 1.101563 1.014482
v -2.225909 0.705447 0.621345
v -2.225909 0.705447 0.49824999999999997
v -2.196559 1.040937 0.8913869999999999
v -2.196559 1.040937 1.014482
v -2.196559 1.040937 1.014482
v -2.196559 1.040937 0.8913869999999999
v -2.167207 1.376427 0.4982499999999999
v -2.167208 1.376427 0.6213449999999999
v -2.889524 1.101563 1.014482
v -2.889524 1.101563 0.8913869999999999
v -2.918875 0.766073 0.49824999999999997
v -2.918875 0.766073 0.621345
v -2.167208 1.376427 0.6213449999999999
v -2.167207 1.376427 0.4982499999999999
v -2.860171 1.437051 0.4982499999999999
v -2.860171 1.437051 0.6213449999999999
v -2.918875 0.766073 0.621345
v -2.918875 0.766073 0.49824999999999997
v -2.225909 0.705447 0.49824999999999997
v -2.225909 0.705447 0.621345
v -2.860171 1.437051 0.6213449999999999
v -2.889524 1.101563 1.014482
v -2.196559 1.040937 1.014482
v -2.167208 1.376427 0.6213449999999999
v -2.225909 0.705447 0.621345
v -2.196559 1.040937 1.014482
v -2.889524 1.101563 1.014482
v -2.918875 0.766073 0.621345
v 2.442579 0.4152640000000001 0.81752
v 2.376816 1.166931 0.8175199999999999
v 2.376816 1.166932 0.7032519999999999
v 2.442578 0.41526500000000005 0.703252
v 2.94198 0.45895600000000003 0.667365
v 2.442579 0.4152640000000001 0.81752
v 2.442578 0.41526500000000005 0.703252
v 2.94198 0.45895600000000003 0.553097
v 2.876218 1.210626 0.5530969999999998
v 2.376816 1.166932 0.7032519999999999
v 2.376816 1.166931 0.8175199999999999
v 2.876218 1.210624 0.6673649999999999
v 2.94198 0.45895600000000003 0.553097
v 2.876218 1.210626 0.5530969999999998
v 2.876218 1.210624 0.6673649999999999
v 2.94198 0.45895600000000003 0.667365
v 2.376816 1.166931 0.8175199999999999
v 2.442579 0.4152640000000001 0.81752
v 2.94198 0.45895600000000003 0.667365
v 2.876218 1.210624 0.6673649999999999
v 2.370895 1.168269 0.7882889999999999
v 1.990135 1.899704 0.7882889999999999
v 1.990135 1.899704 0.6809069999999999
v 2.370895 1.168269 0.6809069999999999
v 2.841376 1.413185 0.6294169999999999
v 2.370895 1.168269 0.7882889999999999
v 2.370895 1.168269 0.6809069999999999
v 2.841376 1.413185 0.5220359999999998
v 2.460615 2.144621 0.5220359999999998
v 1.990135 1.899704 0.6809069999999999
v 1.990135 1.899704 0.7882889999999999
v 2.460615 2.144621 0.6294169999999999
v 2.841376 1.413185 0.5220359999999998
v 2.460615 2.144621 0.5220359999999998
v 2.460615 2.144621 0.6294169999999999
v 2.841376 1.413185 0.6294169999999999
v 2.370895 1.168269 0.7882889999999999
v 2.841376 1.413185 0.6294169999999999
v 2.460615 2.144621 0.6294169999999999
v 1.990135 1.899704 0.7882889999999999
v 1.920026 2.409425 0.6213439999999999
v 1.920026 2.409425 0.49824999999999986
v 1.583256 2.409427 0.8913869999999999
v 1.583256 2.409427 1.0144819999999999
v 1.246485 1.80833 0.6213439999999999
v 1.246485 1.80833 0.4982499999999999
v 1.583257 1.808329 0.8913869999999999
v 1.583257 1.808329 1.014482
v 1.583257 1.808329 1.014482
v 1.583257 1.808329 0.8913869999999999
v 1.920029 1.808329 0.4982499999999999
v 1.920029 1.808329 0.6213439999999999
v 1.583256 2.409427 1.0144819999999999
v 1.583256 2.409427 0.8913869999999999
v 1.246485 2.409427 0.49824999999999986
v 1.246485 2.409427 0.6213439999999999
v 1.920026 2.409425 0.6213439999999999
v 1.920029 1.808329 0.6213439999999999
v 1.920029 1.808329 0.4982499999999999
v 1.920026 2.409425 0.49824999999999986
v 1.246485 1.80833 0.6213439999999999
v 1.246485 2.409427 0.6213439999999999
v 1.246485 2.409427 0.49824999999999986
v 1.246485 1.80833 0.4982499999999999
v 1.920026 2.409425 0.6213439999999999
v 1.583256 2.409427 1.0144819999999999
v 1.583257 1.808329 1.014482
v 1.920029 1.808329 0.6213439999999999
v 1.246485 1.80833 0.6213439999999999
v 1.583257 1.808329 1.014482
v 1.583256 2.409427 1.0144819999999999
v 1.246485 2.409427 0.6213439999999999
v 1.223148 2.408778 0.6213449999999999
v 1.193797 2.073287 1.0144819999999999
v 1.193797 2.073287 0.8913869999999999
v 1.223148 2.408778 0.49824999999999986
v 0.47148 1.798425 0.6213449999999999
v 0.500833 2.133914 1.0144819999999999
v 0.500833 2.133914 0.8913869999999999
v 0.47148 1.798425 0.4982499999999999
v 0.500833 2.133914 1.0144819999999999
v 0.530185 2.469406 0.6213449999999999
v 0.530184 2.469406 0.49824999999999986
v 0.500833 2.133914 0.8913869999999999
v 1.193797 2.073287 1.0144819999999999
v 1.164445 1.737798 0.6213449999999999
v 1.164445 1.737798 0.4982499999999999
v 1.193797 2.073287 0.8913869999999999
v 1.193797 2.073287 1.0144819999999999
v 1.223148 2.408778 0.6213449999999999
v 0.530185 2.469406 0.6213449999999999
v 0.500833 2.133914 1.0144819999999999
v 0.500833 2.133914 1.0144819999999999
v 0.47148 1.798425 0.6213449999999999
v 1.164445 1.737798 0.6213449999999999
v 1.193797 2.073287 1.0144819999999999
v 1.223148 2.408778 0.6213449999999999
v 1.223148 2.408778 0.49824999999999986
v 0.530184 2.469406 0.49824999999999986
v 0.530185 2.469406 0.6213449999999999
v 0.47148 1.798425 0.6213449999999999
v 0.47148 1.798425 0.4982499999999999
v 1.164445 1.737798 0.4982499999999999
v 1.164445 1.737798 0.6213449999999999
v -1.224933 2.381876 0.6213449999999999
v -1.224933 2.381876 0.49824999999999986
v -1.195583 2.046385 0.8913869999999999
v -1.195583 2.046385 1.0144819999999999
v -0.473265 1.771523 0.6213449999999999
v -0.473265 1.771523 0.4982499999999999
v -0.502618 2.107013 0.8913869999999999
v -0.502618 2.107013 1.0144819999999999
v -0.502618 2.107013 1.0144819999999999
v -0.502618 2.107013 0.8913869999999999
v -0.531969 2.442504 0.49824999999999986
v -0.53197 2.442504 0.6213449999999999
v -1.195583 2.046385 1.0144819999999999
v -1.195583 2.046385 0.8913869999999999
v -1.16623 1.710897 0.4982499999999999
v -1.16623 1.710897 0.6213449999999999
v -0.53197 2.442504 0.6213449999999999
v -0.531969 2.442504 0.49824999999999986
v -1.224933 2.381876 0.49824999999999986
v -1.224933 2.381876 0.6213449999999999
v -1.16623 1.710897 0.6213449999999999
v -1.16623 1.710897 0.4982499999999999
v -0.473265 1.771523 0.4982499999999999
v -0.473265 1.771523 0.6213449999999999
v -1.224933 2.381876 0.6213449999999999
v -1.195583 2.046385 1.0144819999999999
v -0.502618 2.107013 1.0144819999999999
v -0.53197 2.442504 0.6213449999999999
v -0.473265 1.771523 0.6213449999999999
v -0.502618 2.107013 1.0144819999999999
v -1.195583 2.046385 1.0144819999999999
v -1.16623 1.710897 0.6213449999999999
v -1.291499 2.323548 0.6213439999999999
v -1.291499 2.323548 0.49824999999999986
v -1.625388 2.27959 0.8913869999999999
v -1.625388 2.27959 1.0144819999999999
v -1.880819 1.639678 0.6213439999999999
v -1.880819 1.639678 0.4982499999999999
v -1.546928 1.683636 0.8913869999999999
v -1.546928 1.683636 1.014482
v -1.546928 1.683636 1.014482
v -1.546928 1.683636 0.8913869999999999
v -1.213037 1.727592 0.4982499999999999
v -1.213037 1.727592 0.6213439999999999
v -1.625388 2.27959 1.0144819999999999
v -1.625388 2.27959 0.8913869999999999
v -1.959278 2.235633 0.4982499999999999
v -1.959278 2.235633 0.6213439999999999
v -1.291499 2.323548 0.6213439999999999
v -1.213037 1.727592 0.6213439999999999
v -1.213037 1.727592 0.4982499999999999
v -1.291499 2.323548 0.49824999999999986
v -1.880819 1.639678 0.6213439999999999
v -1.959278 2.235633 0.6213439999999999
v -1.959278 2.235633 0.4982499999999999
v -1.880819 1.639678 0.4982499999999999
v -1.291499 2.323548 0.6213439999999999
v -1.625388 2.27959 1.0144819999999999
v -1.546928 1.683636 1.014482
v -1.213037 1.727592 0.6213439999999999
v -1.880819 1.639678 0.6213439999999999
v -1.546928 1.683636 1.014482
v -1.625388 2.27959 1.0144819999999999
v -1.959278 2.235633 0.6213439999999999
v -2.004222 2.348403 0.5369879999999999
v -2.004222 2.348403 0.6265549999999999
v -2.112803 1.405394 0.6265549999999999
v -2.112803 1.405394 0.5369879999999999
v -2.112803 1.405394 0.6265549999999999
v -2.801353 1.44346 0.6265549999999999
v -2.801353 1.44346 0.5369879999999999
v -2.112803 1.405394 0.5369879999999999
v -2.692773 2.386467 0.6265549999999999
v -2.004222 2.348403 0.6265549999999999
v -2.004222 2.348403 0.5369879999999999
v -2.692773 2.386467 0.5369879999999999
v -2.801353 1.44346 0.5369879999999999
v -2.801353 1.44346 0.6265549999999999
v -2.692773 2.386467 0.6265549999999999
v -2.692773 2.386467 0.5369879999999999
v -2.904613 -0.3874909999999999 0.788289
v -2.083144 -0.45935999999999994 0.788289
v -2.083144 -0.45935999999999994 0.680907
v -2.904613 -0.3874909999999999 0.680907
v -2.950842 -0.915883 0.6294170000000001
v -2.904613 -0.3874909999999999 0.788289
v -2.904613 -0.3874909999999999 0.680907
v -2.950842 -0.915883 0.5220360000000001
v -2.129372 -0.987752 0.5220360000000001
v -2.083144 -0.45935999999999994 0.680907
v -2.083144 -0.45935999999999994 0.788289
v -2.129372 -0.987752 0.6294170000000001
v -2.950842 -0.915883 0.5220360000000001
v -2.129372 -0.987752 0.5220360000000001
v -2.129372 -0.987752 0.6294170000000001
v -2.950842 -0.915883 0.6294170000000001
v -2.083144 -0.45935999999999994 0.788289
v -2.904613 -0.3874909999999999 0.788289
v -2.950842 -0.915883 0.6294170000000001
v -2.129372 -0.987752 0.6294170000000001
v -2.468153 -0.986438 0.8175200000000001
v -2.402391 -1.738105 0.8175200000000001
v -2.402391 -1.738107 0.7032520000000001
v -2.468153 -0.986439 0.7032520000000001
v -2.967556 -1.03013 0.6673650000000001
v -2.468153 -0.986438 0.8175200000000001
v -2.468153 -0.986439 0.7032520000000001
v -2.967556 -1.030132 0.5530970000000001
v -2.901793 -1.7818 0.5530970000000001
v -2.402391 -1.738107 0.7032520000000001
v -2.402391 -1.738105 0.8175200000000001
v -2.901793 -1.781798 0.6673650000000001
v -2.967556 -1.030132 0.5530970000000001
v -2.901793 -1.7818 0.5530970000000001
v -2.901793 -1.781798 0.6673650000000001
v -2.967556 -1.03013 0.6673650000000001
v -2.402391 -1.738105 0.8175200000000001
v -2.468153 -0.986438 0.8175200000000001
v -2.967556 -1.03013 0.6673650000000001
v -2.901793 -1.781798 0.6673650000000001
v -2.659781 -2.464291 0.6213450000000001
v -2.689133 -2.128802 1.0144820000000003
v -2.689133 -2.128802 0.8913870000000002
v -2.659781 -2.464291 0.4982500000000002
v -2.025519 -1.732687 0.6213450000000001
v -1.996169 -2.068177 1.0144820000000003
v -1.996169 -2.068177 0.8913870000000002
v -2.025519 -1.732687 0.49825000000000014
v -1.996169 -2.068177 1.0144820000000003
v -1.966818 -2.403667 0.6213450000000001
v -1.966817 -2.403667 0.4982500000000002
v -1.996169 -2.068177 0.8913870000000002
v -2.689133 -2.128802 1.0144820000000003
v -2.718484 -1.793313 0.6213450000000001
v -2.718484 -1.793313 0.49825000000000014
v -2.689133 -2.128802 0.8913870000000002
v -2.659781 -2.464291 0.6213450000000001
v -2.659781 -2.464291 0.4982500000000002
v -1.966817 -2.403667 0.4982500000000002
v -1.966818 -2.403667 0.6213450000000001
v -2.025519 -1.732687 0.6213450000000001
v -2.025519 -1.732687 0.49825000000000014
v -2.718484 -1.793313 0.49825000000000014
v -2.718484 -1.793313 0.6213450000000001
v -2.689133 -2.128802 1.0144820000000003
v -2.659781 -2.464291 0.6213450000000001
v -1.966818 -2.403667 0.6213450000000001
v -1.996169 -2.068177 1.0144820000000003
v -2.689133 -2.128802 1.0144820000000003
v -1.996169 -2.068177 1.0144820000000003
v -2.025519 -1.732687 0.6213450000000001
v -2.718484 -1.793313 0.6213450000000001
v -0.837812 -2.315358 0.8175200000000001
v -0.837812 -1.56082 0.8175200000000001
v -0.837812 -1.560818 0.7032520000000001
v -0.837812 -2.315357 0.7032520000000001
v -0.336502 -2.315358 0.6673650000000001
v -0.837812 -2.315358 0.8175200000000001
v -0.837812 -2.315357 0.7032520000000001
v -0.336502 -2.315356 0.5530970000000001
v -0.336502 -1.560817 0.5530970000000001
v -0.837812 -1.560818 0.7032520000000001
v -0.837812 -1.56082 0.8175200000000001
v -0.336502 -1.560818 0.6673650000000001
v -0.336502 -2.315356 0.5530970000000001
v -0.336502 -1.560817 0.5530970000000001
v -0.336502 -1.560818 0.6673650000000001
v -0.336502 -2.315358 0.6673650000000001
v -0.837812 -1.56082 0.8175200000000001
v -0.837812 -2.315358 0.8175200000000001
v -0.336502 -2.315358 0.6673650000000001
v -0.336502 -1.560818 0.6673650000000001
v 0.363347 -2.384191 0.6213440000000001
v 0.026897 -2.369502 1.0144820000000003
v 0.026897 -2.369502 0.8913870000000002
v 0.363347 -2.384191 0.4982500000000002
v -0.283334 -1.754286 0.6213440000000001
v 0.053118 -1.768976 1.014482
v 0.053118 -1.768976 0.8913870000000002
v -0.283334 -1.754286 0.49825000000000014
v 0.053118 -1.768976 1.014482
v 0.389569 -1.783665 0.6213440000000001
v 0.389569 -1.783665 0.49825000000000014
v 0.053118 -1.768976 0.8913870000000002
v 0.026897 -2.369502 1.0144820000000003
v -0.309553 -2.354812 0.6213440000000001
v -0.309553 -2.354812 0.4982500000000002
v 0.026897 -2.369502 0.8913870000000002
v 0.363347 -2.384191 0.6213440000000001
v 0.389569 -1.783665 0.6213440000000001
v 0.053118 -1.768976 1.014482
v 0.026897 -2.369502 1.0144820000000003
v -0.283334 -1.754286 0.6213440000000001
v -0.309553 -2.354812 0.6213440000000001
v 0.026897 -2.369502 1.0144820000000003
v 0.053118 -1.768976 1.014482
v 0.363347 -2.384191 0.6213440000000001
v 0.363347 -2.384191 0.4982500000000002
v 0.389569 -1.783665 0.49825000000000014
v 0.389569 -1.783665 0.6213440000000001
v -0.283334 -1.754286 0.6213440000000001
v -0.283334 -1.754286 0.49825000000000014
v -0.309553 -2.354812 0.4982500000000002
v -0.309553 -2.354812 0.6213440000000001
v 1.05814 -2.463763 0.6213450000000001
v 0.72169 -2.449074 1.0144820000000003
v 0.72169 -2.449074 0.8913870000000002
v 1.05814 -2.463763 0.4982500000000002
v 0.415582 -1.739433 0.6213450000000001
v 0.752033 -1.754125 1.014482
v 0.752033 -1.754125 0.8913870000000002
v 0.415582 -1.739433 0.49825000000000014
v 0.752033 -1.754125 1.014482
v 1.088484 -1.768815 0.6213450000000001
v 1.088484 -1.768814 0.49825000000000014
v 0.752033 -1.754125 0.8913870000000002
v 0.72169 -2.449074 1.0144820000000003
v 0.385239 -2.434383 0.6213450000000001
v 0.385239 -2.434383 0.4982500000000002
v 0.72169 -2.449074 0.8913870000000002
v 1.05814 -2.463763 0.6213450000000001
v 1.05814 -2.463763 0.4982500000000002
v 1.088484 -1.768814 0.49825000000000014
v 1.088484 -1.768815 0.6213450000000001
v 0.415582 -1.739433 0.6213450000000001
v 0.415582 -1.739433 0.49825000000000014
v 0.385239 -2.434383 0.4982500000000002
v 0.385239 -2.434383 0.6213450000000001
v 0.72169 -2.449074 1.0144820000000003
v 1.05814 -2.463763 0.6213450000000001
v 1.088484 -1.768815 0.6213450000000001
v 0.752033 -1.754125 1.014482
v 0.72169 -2.449074 1.0144820000000003
v 0.752033 -1.754125 1.014482
v 0.415582 -1.739433 0.6213450000000001
v 0.385239 -2.434383 0.6213450000000001
v 1.094176 -1.860133 0.8175200000000001
v 1.845843 -1.79437 0.8175200000000001
v 1.845844 -1.79437 0.7032520000000001
v 1.094177 -1.860133 0.7032520000000001
v 1.137869 -2.359534 0.6673650000000001
v 1.094176 -1.860133 0.8175200000000001
v 1.094177 -1.860133 0.7032520000000001
v 1.13787 -2.359534 0.5530970000000001
v 1.889538 -2.293772 0.5530970000000001
v 1.845844 -1.79437 0.7032520000000001
v 1.845843 -1.79437 0.8175200000000001
v 1.889536 -2.293772 0.6673650000000001
v 1.13787 -2.359534 0.5530970000000001
v 1.889538 -2.293772 0.5530970000000001
v 1.889536 -2.293772 0.6673650000000001
v 1.137869 -2.359534 0.6673650000000001
v 1.845843 -1.79437 0.8175200000000001
v 1.094176 -1.860133 0.8175200000000001
v 1.137869 -2.359534 0.6673650000000001
v 1.889536 -2.293772 0.6673650000000001
v 2.836325 -1.819952 0.6213440000000001
v 2.792368 -2.15384 1.0144820000000003
v 2.792368 -2.15384 0.8913870000000002
v 2.836325 -1.819952 0.49825000000000014
v 2.152456 -2.409271 0.6213440000000001
v 2.196413 -2.075381 1.0144820000000003
v 2.196413 -2.075381 0.8913870000000002
v 2.152456 -2.409271 0.4982500000000002
v 2.196413 -2.075381 1.0144820000000003
v 2.24037 -1.74149 0.6213440000000001
v 2.24037 -1.74149 0.49825000000000014
v 2.196413 -2.075381 0.8913870000000002
v 2.792368 -2.15384 1.0144820000000003
v 2.748411 -2.487731 0.6213440000000001
v 2.748411 -2.487731 0.4982500000000002
v 2.792368 -2.15384 0.8913870000000002
v 2.836325 -1.819952 0.6213440000000001
v 2.24037 -1.74149 0.6213440000000001
v 2.196413 -2.075381 1.0144820000000003
v 2.792368 -2.15384 1.0144820000000003
v 2.152456 -2.409271 0.6213440000000001
v 2.748411 -2.487731 0.6213440000000001
v 2.792368 -2.15384 1.0144820000000003
v 2.196413 -2.075381 1.0144820000000003
v 2.836325 -1.819952 0.6213440000000001
v 2.836325 -1.819952 0.49825000000000014
v 2.24037 -1.74149 0.49825000000000014
v 2.24037 -1.74149 0.6213440000000001
v 2.152456 -2.409271 0.6213440000000001
v 2.152456 -2.409271 0.4982500000000002
v 2.748411 -2.487731 0.4982500000000002
v 2.748411 -2.487731 0.6213440000000001
v 2.848672 -1.672516 0.6213450000000001
v 2.848672 -1.672516 0.49825000000000014
v 2.833983 -1.336066 0.8913870000000002
v 2.833983 -1.336066 1.014482
v 2.124343 -1.029958 0.6213450000000001
v 2.124343 -1.029958 0.4982500000000001
v 2.139034 -1.366408 0.8913870000000002
v 2.139034 -1.366408 1.014482
v 2.139034 -1.366408 1.014482
v 2.139034 -1.366408 0.8913870000000002
v 2.153723 -1.70286 0.49825000000000014
v 2.153724 -1.70286 0.6213450000000001
v 2.833983 -1.336066 1.014482
v 2.833983 -1.336066 0.8913870000000002
v 2.819293 -0.999615 0.4982500000000001
v 2.819293 -0.999615 0.6213450000000001
v 2.153724 -1.70286 0.6213450000000001
v 2.153723 -1.70286 0.49825000000000014
v 2.848672 -1.672516 0.49825000000000014
v 2.848672 -1.672516 0.6213450000000001
v 2.819293 -0.999615 0.6213450000000001
v 2.819293 -0.999615 0.4982500000000001
v 2.124343 -1.029958 0.4982500000000001
v 2.124343 -1.029958 0.6213450000000001
v 2.848672 -1.672516 0.6213450000000001
v 2.833983 -1.336066 1.014482
v 2.139034 -1.366408 1.014482
v 2.153724 -1.70286 0.6213450000000001
v 2.124343 -1.029958 0.6213450000000001
v 2.139034 -1.366408 1.014482
v 2.833983 -1.336066 1.014482
v 2.819293 -0.999615 0.6213450000000001
v -2.430085 1.65886 0.7981749999999999
v -2.801353 1.44346 0.6265549999999999
v -2.112803 1.405394 0.6265549999999999
v -2.692773 2.386467 0.6265549999999999
v -2.375491 2.133 0.7981749999999999
v -2.004222 2.348403 0.6265549999999999
vt 0.278114 0.170329
vt 0.278114 0.192235
vt 0.367097 0.192235
vt 0.367097 0.170329
vt 0.459304 0.025655
vt 0.459304 0.004012
vt 0.371273 0.004012
vt 0.371273 0.025655
vt 0.367097 0.025655
vt 0.367097 0.004012
vt 0.278114 0.004012
vt 0.278114 0.025655
vt 0.371273 0.170329
vt 0.371273 0.192235
vt 0.459304 0.192235
vt 0.459304 0.170329
vt 0.273058 0.029573
vt 0.249211 0.029573
vt 0.249211 0.165688
vt 0.273058 0.165688
vt 0.464783 0.165688
vt 0.488686 0.165688
vt 0.488686 0.029573
vt 0.464783 0.029573
vt 0.278114 0.165688
vt 0.367097 0.165688
vt 0.367097 0.029573
vt 0.278114 0.029573
vt 0.459304 0.029573
vt 0.371273 0.029573
vt 0.371273 0.165688
vt 0.459304 0.165688
vt 0.785317 0.029573
vt 0.785317 0.165688
vt 0.768393 0.165688
vt 0.768393 0.029573
vt 0.876330 0.025655
vt 0.790428 0.025655
vt 0.790428 0.004012
vt 0.876330 0.004012
vt 0.876330 0.192235
vt 0.790428 0.192235
vt 0.790428 0.170329
vt 0.876330 0.170329
vt 0.896453 0.029573
vt 0.896453 0.165688
vt 0.881076 0.165688
vt 0.881076 0.029573
vt 0.790428 0.165688
vt 0.790428 0.029573
vt 0.876330 0.029573
vt 0.876330 0.165688
vt 0.608773 0.165688
vt 0.608773 0.029573
vt 0.628768 0.029573
vt 0.628768 0.165688
vt 0.521722 0.170329
vt 0.604096 0.170329
vt 0.604096 0.192235
vt 0.521722 0.192235
vt 0.521722 0.004012
vt 0.604096 0.004012
vt 0.604096 0.025655
vt 0.521722 0.025655
vt 0.497421 0.165688
vt 0.497421 0.029573
vt 0.517088 0.029573
vt 0.517088 0.165688
vt 0.604096 0.165688
vt 0.521722 0.165688
vt 0.521722 0.029573
vt 0.604096 0.029573
vt 0.277589 0.226401
vt 0.277589 0.197698
vt 0.376921 0.197698
vt 0.376921 0.226401
vt 0.479793 0.354081
vt 0.479793 0.382900
vt 0.380986 0.382900
vt 0.380986 0.354081
vt 0.376921 0.354081
vt 0.376921 0.382900
vt 0.277589 0.382900
vt 0.277589 0.354081
vt 0.380986 0.226401
vt 0.380986 0.197698
vt 0.479793 0.197698
vt 0.479793 0.226401
vt 0.273592 0.231003
vt 0.273592 0.349429
vt 0.250541 0.349429
vt 0.250541 0.231003
vt 0.484427 0.349429
vt 0.484427 0.231003
vt 0.507526 0.231003
vt 0.507526 0.349429
vt 0.277589 0.231003
vt 0.376921 0.231003
vt 0.376921 0.349429
vt 0.277589 0.349429
vt 0.479793 0.349429
vt 0.380986 0.349429
vt 0.380986 0.231003
vt 0.479793 0.231003
vt 0.278114 0.170329
vt 0.367097 0.170329
vt 0.367097 0.192235
vt 0.278114 0.192235
vt 0.459304 0.025655
vt 0.371273 0.025655
vt 0.371273 0.004012
vt 0.459304 0.004012
vt 0.367097 0.025655
vt 0.278114 0.025655
vt 0.278114 0.004012
vt 0.367097 0.004012
vt 0.371273 0.170329
vt 0.459304 0.170329
vt 0.459304 0.192235
vt 0.371273 0.192235
vt 0.367097 0.165688
vt 0.278114 0.165688
vt 0.278114 0.029573
vt 0.367097 0.029573
vt 0.371273 0.029573
vt 0.459304 0.029573
vt 0.459304 0.165688
vt 0.371273 0.165688
vt 0.273058 0.165688
vt 0.249211 0.165688
vt 0.249211 0.029573
vt 0.273058 0.029573
vt 0.464783 0.029573
vt 0.488686 0.029573
vt 0.488686 0.165688
vt 0.464783 0.165688
vt 0.212598 0.170329
vt 0.212598 0.192235
vt 0.122302 0.192235
vt 0.122302 0.170329
vt 0.031521 0.025655
vt 0.031521 0.004012
vt 0.118128 0.004012
vt 0.118128 0.025655
vt 0.122302 0.025655
vt 0.122302 0.004012
vt 0.212598 0.004012
vt 0.212598 0.025655
vt 0.118128 0.170329
vt 0.118128 0.192235
vt 0.031521 0.192235
vt 0.031521 0.170329
vt 0.217242 0.029573
vt 0.241073 0.029573
vt 0.241073 0.165688
vt 0.217242 0.165688
vt 0.027672 0.165688
vt 0.003784 0.165688
vt 0.003784 0.029573
vt 0.027672 0.029573
vt 0.212598 0.165688
vt 0.122302 0.165688
vt 0.122302 0.029573
vt 0.212598 0.029573
vt 0.031521 0.029573
vt 0.118128 0.029573
vt 0.118128 0.165688
vt 0.031521 0.165688
vt 0.277589 0.226401
vt 0.277589 0.197698
vt 0.376921 0.197698
vt 0.376921 0.226401
vt 0.479793 0.354081
vt 0.479793 0.382900
vt 0.380986 0.382900
vt 0.380986 0.354081
vt 0.376921 0.354081
vt 0.376921 0.382900
vt 0.277589 0.382900
vt 0.277589 0.354081
vt 0.380986 0.226401
vt 0.380986 0.197698
vt 0.479793 0.197698
vt 0.479793 0.226401
vt 0.273592 0.231003
vt 0.273592 0.349429
vt 0.250541 0.349429
vt 0.250541 0.231003
vt 0.484427 0.349429
vt 0.484427 0.231003
vt 0.507526 0.231003
vt 0.507526 0.349429
vt 0.277589 0.231003
vt 0.376921 0.231003
vt 0.376921 0.349429
vt 0.277589 0.349429
vt 0.479793 0.349429
vt 0.380986 0.349429
vt 0.380986 0.231003
vt 0.479793 0.231003
vt 0.025523 0.197698
vt 0.025523 0.218305
vt 0.223445 0.218305
vt 0.223445 0.197698
vt 0.228331 0.222906
vt 0.228331 0.358215
vt 0.245005 0.358215
vt 0.245005 0.222906
vt 0.020703 0.358215
vt 0.020703 0.222906
vt 0.004177 0.222906
vt 0.004177 0.358215
vt 0.223445 0.382900
vt 0.223445 0.362867
vt 0.025523 0.362867
vt 0.025523 0.382900
vt 0.608773 0.165688
vt 0.608773 0.029573
vt 0.628768 0.029573
vt 0.628768 0.165688
vt 0.521722 0.170329
vt 0.604096 0.170329
vt 0.604096 0.192235
vt 0.521722 0.192235
vt 0.521722 0.004012
vt 0.604096 0.004012
vt 0.604096 0.025655
vt 0.521722 0.025655
vt 0.497421 0.165688
vt 0.497421 0.029573
vt 0.517088 0.029573
vt 0.517088 0.165688
vt 0.604096 0.029573
vt 0.604096 0.165688
vt 0.521722 0.165688
vt 0.521722 0.029573
vt 0.653480 0.029573
vt 0.653480 0.165688
vt 0.635738 0.165688
vt 0.635738 0.029573
vt 0.741616 0.025655
vt 0.657421 0.025655
vt 0.657421 0.004012
vt 0.741616 0.004012
vt 0.741616 0.192235
vt 0.657421 0.192235
vt 0.657421 0.170329
vt 0.741616 0.170329
vt 0.762037 0.029573
vt 0.762037 0.165688
vt 0.746481 0.165688
vt 0.746481 0.029573
vt 0.657421 0.165688
vt 0.657421 0.029573
vt 0.741616 0.029573
vt 0.741616 0.165688
vt 0.212598 0.170329
vt 0.122302 0.170329
vt 0.122302 0.192235
vt 0.212598 0.192235
vt 0.031521 0.025655
vt 0.118128 0.025655
vt 0.118128 0.004012
vt 0.031521 0.004012
vt 0.122302 0.025655
vt 0.212598 0.025655
vt 0.212598 0.004012
vt 0.122302 0.004012
vt 0.118128 0.170329
vt 0.031521 0.170329
vt 0.031521 0.192235
vt 0.118128 0.192235
vt 0.217242 0.165688
vt 0.241073 0.165688
vt 0.241073 0.029573
vt 0.217242 0.029573
vt 0.027672 0.029573
vt 0.003784 0.029573
vt 0.003784 0.165688
vt 0.027672 0.165688
vt 0.122302 0.165688
vt 0.212598 0.165688
vt 0.212598 0.029573
vt 0.122302 0.029573
vt 0.118128 0.165688
vt 0.118128 0.029573
vt 0.031521 0.029573
vt 0.031521 0.165688
vt 0.785317 0.029573
vt 0.785317 0.165688
vt 0.768393 0.165688
vt 0.768393 0.029573
vt 0.876330 0.025655
vt 0.790428 0.025655
vt 0.790428 0.004012
vt 0.876330 0.004012
vt 0.876330 0.192235
vt 0.790428 0.192235
vt 0.790428 0.170329
vt 0.876330 0.170329
vt 0.896453 0.029573
vt 0.896453 0.165688
vt 0.881076 0.165688
vt 0.881076 0.029573
vt 0.790428 0.165688
vt 0.790428 0.029573
vt 0.876330 0.029573
vt 0.876330 0.165688
vt 0.539424 0.226401
vt 0.630861 0.226401
vt 0.630861 0.197698
vt 0.539424 0.197698
vt 0.726246 0.354081
vt 0.634852 0.354081
vt 0.634852 0.382900
vt 0.726246 0.382900
vt 0.630861 0.354081
vt 0.539424 0.354081
vt 0.539424 0.382900
vt 0.630861 0.382900
vt 0.634852 0.226401
vt 0.726246 0.226401
vt 0.726246 0.197698
vt 0.634852 0.197698
vt 0.539424 0.231003
vt 0.539424 0.349429
vt 0.630861 0.349429
vt 0.630861 0.231003
vt 0.726246 0.349429
vt 0.726246 0.231003
vt 0.634852 0.231003
vt 0.634852 0.349429
vt 0.535539 0.231003
vt 0.514242 0.231003
vt 0.514242 0.349429
vt 0.535539 0.349429
vt 0.730883 0.349429
vt 0.752224 0.349429
vt 0.752224 0.231003
vt 0.730883 0.231003
vt 0.278114 0.170329
vt 0.367097 0.170329
vt 0.367097 0.192235
vt 0.278114 0.192235
vt 0.459304 0.025655
vt 0.371273 0.025655
vt 0.371273 0.004012
vt 0.459304 0.004012
vt 0.367097 0.025655
vt 0.278114 0.025655
vt 0.278114 0.004012
vt 0.367097 0.004012
vt 0.371273 0.170329
vt 0.459304 0.170329
vt 0.459304 0.192235
vt 0.371273 0.192235
vt 0.273058 0.165688
vt 0.249211 0.165688
vt 0.249211 0.029573
vt 0.273058 0.029573
vt 0.464783 0.029573
vt 0.488686 0.029573
vt 0.488686 0.165688
vt 0.464783 0.165688
vt 0.367097 0.165688
vt 0.278114 0.165688
vt 0.278114 0.029573
vt 0.367097 0.029573
vt 0.371273 0.165688
vt 0.371273 0.029573
vt 0.459304 0.029573
vt 0.459304 0.165688
vt 0.653480 0.029573
vt 0.653480 0.165688
vt 0.635738 0.165688
vt 0.635738 0.029573
vt 0.741616 0.025655
vt 0.657421 0.025655
vt 0.657421 0.004012
vt 0.741616 0.004012
vt 0.741616 0.192235
vt 0.657421 0.192235
vt 0.657421 0.170329
vt 0.741616 0.170329
vt 0.762037 0.029573
vt 0.762037 0.165688
vt 0.746481 0.165688
vt 0.746481 0.029573
vt 0.657421 0.165688
vt 0.657421 0.029573
vt 0.741616 0.029573
vt 0.741616 0.165688
vt 0.539424 0.226401
vt 0.630861 0.226401
vt 0.630861 0.197698
vt 0.539424 0.197698
vt 0.726246 0.354081
vt 0.634852 0.354081
vt 0.634852 0.382900
vt 0.726246 0.382900
vt 0.630861 0.354081
vt 0.539424 0.354081
vt 0.539424 0.382900
vt 0.630861 0.382900
vt 0.634852 0.226401
vt 0.726246 0.226401
vt 0.726246 0.197698
vt 0.634852 0.197698
vt 0.539424 0.231003
vt 0.539424 0.349429
vt 0.630861 0.349429
vt 0.630861 0.231003
vt 0.726246 0.349429
vt 0.726246 0.231003
vt 0.634852 0.231003
vt 0.634852 0.349429
vt 0.535539 0.231003
vt 0.514242 0.231003
vt 0.514242 0.349429
vt 0.535539 0.349429
vt 0.730883 0.349429
vt 0.752224 0.349429
vt 0.752224 0.231003
vt 0.730883 0.231003
vt 0.212598 0.170329
vt 0.212598 0.192235
vt 0.122302 0.192235
vt 0.122302 0.170329
vt 0.031521 0.025655
vt 0.031521 0.004012
vt 0.118128 0.004012
vt 0.118128 0.025655
vt 0.122302 0.025655
vt 0.122302 0.004012
vt 0.212598 0.004012
vt 0.212598 0.025655
vt 0.118128 0.170329
vt 0.118128 0.192235
vt 0.031521 0.192235
vt 0.031521 0.170329
vt 0.217242 0.029573
vt 0.241073 0.029573
vt 0.241073 0.165688
vt 0.217242 0.165688
vt 0.027672 0.165688
vt 0.003784 0.165688
vt 0.003784 0.029573
vt 0.027672 0.029573
vt 0.212598 0.165688
vt 0.122302 0.165688
vt 0.122302 0.029573
vt 0.212598 0.029573
vt 0.031521 0.029573
vt 0.118128 0.029573
vt 0.118128 0.165688
vt 0.031521 0.165688
vt 0.170880 0.290560
vt 0.223445 0.358215
vt 0.223445 0.222906
vt 0.025523 0.358215
vt 0.078125 0.290560
vt 0.025523 0.222906
vn -0.996194 0.087158 -5.336888286004251E-18
vn -0.996194 0.087158 -5.336888286004251E-18
vn -0.996194 0.087158 -5.336888286004251E-18
vn -0.996194 0.087158 -5.336888286004251E-18
vn 0.996195 -0.087151 5.3364596596245495E-18
vn 0.996195 -0.087151 5.3364596596245495E-18
vn 0.996195 -0.087151 5.3364596596245495E-18
vn 0.996195 -0.087151 5.3364596596245495E-18
vn 0.996195 -0.087148 7.000000000005336E-06
vn 0.996194 -0.087158 5.336888286004251E-18
vn 0.996195 -0.087148 7.000000000005336E-06
vn 0.996195 -0.087148 7.000000000005336E-06
vn -0.996195 0.087153 -5.336582124304464E-18
vn -0.996195 0.087153 -5.336582124304464E-18
vn -0.996195 0.087153 -5.336582124304464E-18
vn -0.996195 0.087153 -5.336582124304464E-18
vn 0.087152 0.996195 -6.099935090382987E-17
vn 0.087152 0.996195 9.999999999390007E-07
vn 0.087152 0.996195 -6.099935090382987E-17
vn 0.087152 0.996195 -6.099935090382987E-17
vn -0.087155 -0.996195 6.099935090382987E-17
vn -0.087155 -0.996195 6.099935090382987E-17
vn -0.087155 -0.996195 6.099935090382987E-17
vn -0.087155 -0.996195 6.099935090382987E-17
vn 0.066189 0.756561 0.650564
vn 0.06619 0.756562 0.650563
vn 0.066189 0.756561 0.650564
vn 0.066188 0.756561 0.650565
vn -0.06619 -0.756561 0.650565
vn -0.06619 -0.756561 0.650565
vn -0.06619 -0.756561 0.650565
vn -0.06619 -0.756561 0.650565
vn -0.996195 -0.087156 3.000000000005337E-06
vn -0.996195 -0.087157 -9.999999999946632E-07
vn -0.996195 -0.087156 3.000000000005337E-06
vn -0.996195 -0.087156 3.000000000005337E-06
vn 0.087153 -0.996195 -3.999999999939001E-06
vn 0.087152 -0.996195 -1.2999999999939E-05
vn 0.087153 -0.996195 -3.999999999939001E-06
vn 0.087153 -0.996195 -3.999999999939001E-06
vn -0.087154 0.996195 1.6999999999939E-05
vn -0.087158 0.996194 7.999999999939E-06
vn -0.087154 0.996195 1.6999999999939E-05
vn -0.087154 0.996195 1.6999999999939E-05
vn 0.996195 0.087156 -5.336765821324336E-18
vn 0.996195 0.087156 9.999999999946632E-07
vn 0.996195 0.087156 -5.336765821324336E-18
vn 0.996195 0.087156 -5.336765821324336E-18
vn 0.28584 0.025008000000000058 0.957951
vn 0.28584 0.025008000000000058 0.957951
vn 0.28584 0.025008000000000058 0.957951
vn 0.28584 0.025008000000000058 0.957951
vn -0.887011 -0.461748 2.82739105106346E-17
vn -0.887011 -0.461748 2.82739105106346E-17
vn -0.887011 -0.461748 2.82739105106346E-17
vn -0.887011 -0.461748 2.82739105106346E-17
vn 0.461747 -0.887012 5.43138203302646E-17
vn 0.461747 -0.887012 5.43138203302646E-17
vn 0.461747 -0.887012 5.43138203302646E-17
vn 0.461747 -0.887012 5.43138203302646E-17
vn -0.461749 0.887011 -5.4313759097924646E-17
vn -0.461749 0.887011 -5.4313759097924646E-17
vn -0.461749 0.887011 -5.4313759097924646E-17
vn -0.461749 0.887011 -5.4313759097924646E-17
vn 0.887011 0.461748 -2.82739105106346E-17
vn 0.887011 0.461748 -2.82739105106346E-17
vn 0.887011 0.461748 -2.82739105106346E-17
vn 0.887011 0.461748 -2.82739105106346E-17
vn 0.254511 0.13249000000000005 0.957951
vn 0.254511 0.13249000000000005 0.957951
vn 0.254511 0.13249000000000005 0.957951
vn 0.254511 0.13249000000000005 0.957951
vn 6E-06 1 -6.123233995736766E-17
vn 6E-06 1 -6.123233995736766E-17
vn 6E-06 1 -6.123233995736766E-17
vn 6E-06 1 -6.123233995736766E-17
vn -3E-06 -1 6.123233995736766E-17
vn -3E-06 -1 6.123233995736766E-17
vn -3E-06 -1 6.123233995736766E-17
vn -3E-06 -1 6.123233995736766E-17
vn 0 -1 6.123233995736766E-17
vn 0 -1 6.123233995736766E-17
vn 0 -1 6.123233995736766E-17
vn 0 -1 6.123233995736766E-17
vn 0 1 -6.123233995736766E-17
vn 0 1 -6.123233995736766E-17
vn 0 1 -6.123233995736766E-17
vn 0 1 -6.123233995736766E-17
vn 1 4E-06 -2.4492935982947065E-22
vn 1 4E-06 -2.4492935982947065E-22
vn 1 4E-06 -2.4492935982947065E-22
vn 1 4E-06 -2.4492935982947065E-22
vn -1 0 0
vn -1 0 0
vn -1 0 0
vn -1 0 0
vn 0.759451 2.0000000000398354E-06 0.650564
vn 0.759452 1.0000000000398355E-06 0.650563
vn 0.759451 2.0000000000398354E-06 0.650564
vn 0.75945 3.0000000000398356E-06 0.650566
vn -0.759451 3.983561724436489E-17 0.650565
vn -0.759451 -9.999999999601644E-07 0.650565
vn -0.759451 3.983561724436489E-17 0.650565
vn -0.759451 3.983555601202494E-17 0.650564
vn 0.996195 -0.087153 5.336582124304464E-18
vn 0.996195 -0.087153 5.336582124304464E-18
vn 0.996195 -0.087153 5.336582124304464E-18
vn 0.996195 -0.087153 5.336582124304464E-18
vn -0.996194 0.087161 -5.337071983024123E-18
vn -0.996194 0.087161 -5.337071983024123E-18
vn -0.996194 0.087161 -5.337071983024123E-18
vn -0.996194 0.087161 -5.337071983024123E-18
vn -0.996195 0.087153 -5.336582124304464E-18
vn -0.996194 0.087165 7.999999999994662E-06
vn -0.996195 0.087153 -5.336582124304464E-18
vn -0.996195 0.087153 -5.336582124304464E-18
vn 0.996195 -0.087158 5.336888286004251E-18
vn 0.996195 -0.087158 5.336888286004251E-18
vn 0.996195 -0.087158 5.336888286004251E-18
vn 0.996195 -0.087158 5.336888286004251E-18
vn 0.066191 0.75656 0.650566
vn 0.066192 0.75656 0.650565
vn 0.066191 0.75656 0.650566
vn 0.066191 0.756559 0.650566
vn -0.066191 -0.756561 0.650564
vn -0.066191 -0.756561 0.650564
vn -0.066191 -0.756561 0.650564
vn -0.066191 -0.756561 0.650564
vn 0.087158 0.996195 -1.0000000000609992E-06
vn 0.087158 0.996195 -6.099935090382987E-17
vn 0.087158 0.996195 -1.0000000000609992E-06
vn 0.087158 0.996195 -1.0000000000609992E-06
vn -0.087156 -0.996195 6.099935090382987E-17
vn -0.087156 -0.996195 6.099935090382987E-17
vn -0.087156 -0.996195 6.099935090382987E-17
vn -0.087156 -0.996195 6.099935090382987E-17
vn -0.996195 -0.087153 5.336582124304464E-18
vn -0.996195 -0.087153 5.336582124304464E-18
vn -0.996195 -0.087153 5.336582124304464E-18
vn -0.996195 -0.087153 5.336582124304464E-18
vn 0.996194 0.08716 -5.337010750684165E-18
vn 0.996194 0.08716 -5.337010750684165E-18
vn 0.996194 0.08716 -5.337010750684165E-18
vn 0.996194 0.08716 -5.337010750684165E-18
vn 0.996194 0.087164 6.999999999994663E-06
vn 0.996195 0.087153 -5.336582124304464E-18
vn 0.996194 0.087164 6.999999999994663E-06
vn 0.996194 0.087164 6.999999999994663E-06
vn -0.996194 -0.087158 5.336888286004251E-18
vn -0.996194 -0.087158 5.336888286004251E-18
vn -0.996194 -0.087158 5.336888286004251E-18
vn -0.996194 -0.087158 5.336888286004251E-18
vn -0.087159 0.996194 -6.099928967148992E-17
vn -0.087159 0.996194 -1.0000000000609992E-06
vn -0.087159 0.996194 -6.099928967148992E-17
vn -0.087159 0.996194 -6.099928967148992E-17
vn 0.087155 -0.996195 6.099935090382987E-17
vn 0.087155 -0.996195 6.099935090382987E-17
vn 0.087155 -0.996195 6.099935090382987E-17
vn 0.087155 -0.996195 6.099935090382987E-17
vn -0.066192 0.75656 0.650566
vn -0.066192 0.75656 0.650565
vn -0.066192 0.75656 0.650566
vn -0.066193 0.756559 0.650566
vn 0.066191 -0.756561 0.650564
vn 0.066192 -0.75656 0.650566
vn 0.066191 -0.756561 0.650564
vn 0.06619 -0.756562 0.650563
vn -0.130527 0.991445 -6.070849728903238E-17
vn -0.130527 0.991445 -6.070849728903238E-17
vn -0.130527 0.991445 -6.070849728903238E-17
vn -0.130527 0.991445 -6.070849728903238E-17
vn 0.130527 -0.991445 6.070849728903238E-17
vn 0.130527 -0.991445 6.070849728903238E-17
vn 0.130527 -0.991445 6.070849728903238E-17
vn 0.130527 -0.991445 6.070849728903238E-17
vn 0.130521 -0.991446 6.070855852137234E-17
vn 0.130521 -0.991446 6.070855852137234E-17
vn 0.130521 -0.991446 6.070855852137234E-17
vn 0.130521 -0.991446 6.070855852137234E-17
vn -0.130524 0.991445 -6.070849728903238E-17
vn -0.130524 0.991445 -6.070849728903238E-17
vn -0.130524 0.991445 -6.070849728903238E-17
vn -0.130524 0.991445 -6.070849728903238E-17
vn 0.991444 0.13053 -7.992657334635201E-18
vn 0.991444 0.13053 -7.992657334635201E-18
vn 0.991444 0.13053 -7.992657334635201E-18
vn 0.991444 0.13053 -7.992657334635201E-18
vn -0.991445 -0.130526 7.992412405275371E-18
vn -0.991445 -0.130526 7.992412405275371E-18
vn -0.991445 -0.130526 7.992412405275371E-18
vn -0.991445 -0.130526 7.992412405275371E-18
vn 0.752954 0.09913000000000004 0.650564
vn 0.752954 0.09912900000000004 0.650564
vn 0.752954 0.09913000000000004 0.650564
vn 0.752953 0.09913100000000004 0.650565
vn -0.752954 -0.09912899999999995 0.650565
vn -0.752953 -0.09912899999999995 0.650565
vn -0.752954 -0.09912899999999995 0.650565
vn -0.752954 -0.09912799999999995 0.650564
vn 0.993436 -0.114388 7.004244903043372E-18
vn 0.993436 -0.114388 7.004244903043372E-18
vn 0.993436 -0.114388 7.004244903043372E-18
vn 0.993436 -0.114388 7.004244903043372E-18
vn -0.0552 -0.998475 6.113896063893267E-17
vn -0.0552 -0.998475 6.113896063893267E-17
vn -0.0552 -0.998475 6.113896063893267E-17
vn -0.0552 -0.998475 6.113896063893267E-17
vn 0.055197 0.998475 -6.113896063893267E-17
vn 0.055197 0.998475 -6.113896063893267E-17
vn 0.055197 0.998475 -6.113896063893267E-17
vn 0.055197 0.998475 -6.113896063893267E-17
vn -0.993436 0.114387 -7.004183670703415E-18
vn -0.993436 0.114387 -7.004183670703415E-18
vn -0.993436 0.114387 -7.004183670703415E-18
vn -0.993436 0.114387 -7.004183670703415E-18
vn 0.087155 0.996195 -6.099935090382987E-17
vn 0.087155 0.996195 -6.099935090382987E-17
vn 0.087155 0.996195 -6.099935090382987E-17
vn 0.087155 0.996195 -6.099935090382987E-17
vn -0.996195 0.087157 -5.336827053664293E-18
vn -0.996195 0.087157 -5.336827053664293E-18
vn -0.996195 0.087157 -5.336827053664293E-18
vn -0.996195 0.087157 -5.336827053664293E-18
vn 0.996195 -0.087155 5.336704588984378E-18
vn 0.996195 -0.087155 5.336704588984378E-18
vn 0.996195 -0.087155 5.336704588984378E-18
vn 0.996195 -0.087155 5.336704588984378E-18
vn -0.087156 -0.996195 6.099935090382987E-17
vn -0.087156 -0.996195 6.099935090382987E-17
vn -0.087156 -0.996195 6.099935090382987E-17
vn -0.087156 -0.996195 6.099935090382987E-17
vn -0.025008 -0.2858399999999999 0.957951
vn -0.025008 -0.2858399999999999 0.957951
vn -0.025008 -0.2858399999999999 0.957951
vn -0.025008 -0.28583899999999995 0.957951
vn 0.996195 0.087156 -1.0000000000053367E-06
vn 0.996195 0.087156 -5.336765821324336E-18
vn 0.996195 0.087156 -1.0000000000053367E-06
vn 0.996195 0.087156 -1.0000000000053367E-06
vn -0.087153 0.996195 -1.3000000000060999E-05
vn -0.087153 0.996195 -1.3000000000060999E-05
vn -0.087153 0.996195 -1.3000000000060999E-05
vn -0.087153 0.996195 -1.3000000000060999E-05
vn 0.087154 -0.996195 1.3000000000060999E-05
vn 0.087154 -0.996195 1.3000000000060999E-05
vn 0.087154 -0.996195 1.3000000000060999E-05
vn 0.087154 -0.996195 1.3000000000060999E-05
vn -0.996195 -0.087156 5.336765821324336E-18
vn -0.996195 -0.087156 5.336765821324336E-18
vn -0.996195 -0.087156 5.336765821324336E-18
vn -0.996195 -0.087156 5.336765821324336E-18
vn -0.28584 -0.02500799999999994 0.957951
vn -0.28584 -0.02500799999999994 0.957951
vn -0.28584 -0.02500799999999994 0.957951
vn -0.28584 -0.02500799999999994 0.957951
vn -0.996195 -0.087158 5.336888286004251E-18
vn -0.996195 -0.087158 5.336888286004251E-18
vn -0.996195 -0.087158 5.336888286004251E-18
vn -0.996195 -0.087158 5.336888286004251E-18
vn 0.996195 0.08715 -5.336398427284592E-18
vn 0.996195 0.08715 -5.336398427284592E-18
vn 0.996195 0.08715 -5.336398427284592E-18
vn 0.996195 0.08715 -5.336398427284592E-18
vn 0.996195 0.087158 -5.336888286004251E-18
vn 0.996195 0.087148 5.999999999994664E-06
vn 0.996195 0.087158 -5.336888286004251E-18
vn 0.996195 0.087158 -5.336888286004251E-18
vn -0.996195 -0.087153 5.336582124304464E-18
vn -0.996195 -0.087153 5.336582124304464E-18
vn -0.996195 -0.087153 5.336582124304464E-18
vn -0.996195 -0.087153 5.336582124304464E-18
vn 0.087152 -0.996195 4.000000000060999E-06
vn 0.087152 -0.996195 6.099935090382987E-17
vn 0.087152 -0.996195 4.000000000060999E-06
vn 0.087152 -0.996195 4.000000000060999E-06
vn -0.087156 0.996195 -6.099935090382987E-17
vn -0.087156 0.996195 -6.099935090382987E-17
vn -0.087156 0.996195 -6.099935090382987E-17
vn -0.087156 0.996195 -6.099935090382987E-17
vn 0.066189 -0.756561 0.650564
vn 0.066188 -0.756562 0.650564
vn 0.066189 -0.756561 0.650564
vn 0.066189 -0.756561 0.650565
vn -0.06619 0.756561 0.650565
vn -0.066189 0.75656 0.650566
vn -0.06619 0.756561 0.650565
vn -0.06619 0.756561 0.650564
vn -1 0 0
vn -1 0 0
vn -1 0 0
vn -1 0 0
vn -3E-06 -1 -1.2999999999938767E-05
vn -2E-06 -1 -7.999999999938768E-06
vn -3E-06 -1 -1.2999999999938767E-05
vn -3E-06 -1 -1.2999999999938767E-05
vn -0 1 7.999999999938768E-06
vn 4E-06 1 1.6999999999938766E-05
vn -0 1 7.999999999938768E-06
vn -0 1 7.999999999938768E-06
vn 1 0 0
vn 1 0 0
vn 1 0 0
vn 1 0 0
vn 0.286932 5.86575812945003E-17 0.957951
vn 0.286932 5.86575812945003E-17 0.957951
vn 0.286932 5.86575812945003E-17 0.957951
vn 0.286932 5.86575812945003E-17 0.957951
vn -0.043617 -0.999048 6.117404676972825E-17
vn -0.043617 -0.999048 6.117404676972825E-17
vn -0.043617 -0.999048 6.117404676972825E-17
vn -0.043617 -0.999048 6.117404676972825E-17
vn 0.043618 0.999048 -6.117404676972825E-17
vn 0.043618 0.999048 -6.117404676972825E-17
vn 0.043618 0.999048 -6.117404676972825E-17
vn 0.043618 0.999048 -6.117404676972825E-17
vn 0.043618 0.999048 -6.117404676972825E-17
vn 0.043618 0.999048 -6.117404676972825E-17
vn 0.043618 0.999048 -6.117404676972825E-17
vn 0.043618 0.999048 -6.117404676972825E-17
vn -0.04362 -0.999048 6.117404676972825E-17
vn -0.04362 -0.999048 6.117404676972825E-17
vn -0.04362 -0.999048 6.117404676972825E-17
vn -0.04362 -0.999048 6.117404676972825E-17
vn 0.758728 -0.03312899999999996 0.650564
vn 0.758727 -0.03312999999999996 0.650565
vn 0.758728 -0.03312899999999996 0.650564
vn 0.758729 -0.033127999999999956 0.650563
vn -0.758728 0.03312700000000004 0.650565
vn -0.758728 0.03312700000000004 0.650565
vn -0.758728 0.03312700000000004 0.650565
vn -0.758727 0.03312800000000004 0.650565
vn 0.999048 -0.043624 2.671199598300207E-18
vn 0.999048 -0.043624 2.671199598300207E-18
vn 0.999048 -0.043624 2.671199598300207E-18
vn 0.999048 -0.043624 2.671199598300207E-18
vn -0.999048 0.04362 -2.6709546689403774E-18
vn -0.999048 0.04362 -2.6709546689403774E-18
vn -0.999048 0.04362 -2.6709546689403774E-18
vn -0.999048 0.04362 -2.6709546689403774E-18
vn -0.043619 -0.999048 6.117404676972825E-17
vn -0.043619 -0.999048 6.117404676972825E-17
vn -0.043619 -0.999048 6.117404676972825E-17
vn -0.043619 -0.999048 6.117404676972825E-17
vn 0.043624 0.999048 -6.117404676972825E-17
vn 0.043624 0.999048 -6.117404676972825E-17
vn 0.043624 0.999048 -6.117404676972825E-17
vn 0.043624 0.999048 -6.117404676972825E-17
vn 0.043618 0.999048 -6.117404676972825E-17
vn 0.043624 0.999048 3.999999999938825E-06
vn 0.043618 0.999048 -6.117404676972825E-17
vn 0.043618 0.999048 -6.117404676972825E-17
vn -0.043621 -0.999048 6.117404676972825E-17
vn -0.043621 -0.999048 6.117404676972825E-17
vn -0.043621 -0.999048 6.117404676972825E-17
vn -0.043621 -0.999048 6.117404676972825E-17
vn 0.999048 -0.043622 2.000000000002671E-06
vn 0.999048 -0.043622 2.671077133620292E-18
vn 0.999048 -0.043622 2.000000000002671E-06
vn 0.999048 -0.043622 2.000000000002671E-06
vn -0.999048 0.043619 -2.67089343660042E-18
vn -0.999048 0.043619 -2.67089343660042E-18
vn -0.999048 0.043619 -2.67089343660042E-18
vn -0.999048 0.043619 -2.67089343660042E-18
vn 0.758728 -0.033127999999999956 0.650565
vn 0.758729 -0.03312899999999996 0.650564
vn 0.758728 -0.033127999999999956 0.650565
vn 0.758728 -0.033127999999999956 0.650565
vn -0.758728 0.03312700000000004 0.650565
vn -0.758727 0.03312800000000004 0.650566
vn -0.758728 0.03312700000000004 0.650565
vn -0.758728 0.03312700000000004 0.650564
vn -0.087156 0.996195 -6.099935090382987E-17
vn -0.087156 0.996195 -1.0000000000609992E-06
vn -0.087156 0.996195 -6.099935090382987E-17
vn -0.087156 0.996195 -6.099935090382987E-17
vn -0.996195 -0.087155 -9.999999999994665E-06
vn -0.996195 -0.087155 -3.9999999999946635E-06
vn -0.996195 -0.087155 -9.999999999994665E-06
vn -0.996195 -0.087155 -9.999999999994665E-06
vn 0.996195 0.087155 1.0999999999994663E-05
vn 0.996195 0.087155 9.999999999994665E-06
vn 0.996195 0.087155 1.0999999999994663E-05
vn 0.996195 0.087155 1.0999999999994663E-05
vn 0.087155 -0.996195 1.0000000000609992E-06
vn 0.087156 -0.996195 -2.9999999999390006E-06
vn 0.087155 -0.996195 1.0000000000609992E-06
vn 0.087155 -0.996195 1.0000000000609992E-06
vn 0.025008 -0.2858399999999999 0.957951
vn 0.025008 -0.2858399999999999 0.957951
vn 0.025008 -0.2858399999999999 0.957951
vn 0.025008 -0.2858399999999999 0.957951
vn 0.991445 -0.130525 7.992351172935414E-18
vn 0.991445 -0.130525 7.992351172935414E-18
vn 0.991445 -0.130525 7.992351172935414E-18
vn 0.991445 -0.130525 7.992351172935414E-18
vn -0.991445 0.130524 -7.992289940595457E-18
vn -0.991445 0.130524 -7.992289940595457E-18
vn -0.991445 0.130524 -7.992289940595457E-18
vn -0.991445 0.130524 -7.992289940595457E-18
vn -0.991445 0.130527 -7.992473637615328E-18
vn -0.991445 0.130527 -7.992473637615328E-18
vn -0.991445 0.130527 -7.992473637615328E-18
vn -0.991445 0.130527 -7.992473637615328E-18
vn 0.991445 -0.130527 7.992473637615328E-18
vn 0.991445 -0.130527 7.992473637615328E-18
vn 0.991445 -0.130527 7.992473637615328E-18
vn 0.991445 -0.130527 7.992473637615328E-18
vn 0.09913 0.752954 0.650564
vn 0.099131 0.752952 0.650566
vn 0.09913 0.752954 0.650564
vn 0.099129 0.752955 0.650563
vn -0.099129 -0.752953 0.650565
vn -0.099129 -0.752953 0.650565
vn -0.099129 -0.752953 0.650565
vn -0.099128 -0.752953 0.650565
vn 0.130531 0.991444 -6.070843605669242E-17
vn 0.130531 0.991444 -6.070843605669242E-17
vn 0.130531 0.991444 -6.070843605669242E-17
vn 0.130531 0.991444 -6.070843605669242E-17
vn -0.130527 -0.991445 6.070849728903238E-17
vn -0.130527 -0.991445 6.070849728903238E-17
vn -0.130527 -0.991445 6.070849728903238E-17
vn -0.130527 -0.991445 6.070849728903238E-17
vn 0.999048 0.043617 -2.6707709719205053E-18
vn 0.999048 0.043617 -2.6707709719205053E-18
vn 0.999048 0.043617 -2.6707709719205053E-18
vn 0.999048 0.043617 -2.6707709719205053E-18
vn -0.999048 -0.043625 2.671260830640164E-18
vn -0.999048 -0.043625 2.671260830640164E-18
vn -0.999048 -0.043625 2.671260830640164E-18
vn -0.999048 -0.043625 2.671260830640164E-18
vn -0.999048 -0.043623 4.000000000002671E-06
vn -0.999048 -0.043617 2.6707709719205053E-18
vn -0.999048 -0.043623 4.000000000002671E-06
vn -0.999048 -0.043623 4.000000000002671E-06
vn 0.999048 0.043621 -2.671015901280335E-18
vn 0.999048 0.043621 -2.671015901280335E-18
vn 0.999048 0.043621 -2.671015901280335E-18
vn 0.999048 0.043621 -2.671015901280335E-18
vn 0.043621 -0.999048 6.117404676972825E-17
vn 0.043621 -0.999048 6.117404676972825E-17
vn 0.043621 -0.999048 6.117404676972825E-17
vn 0.043621 -0.999048 6.117404676972825E-17
vn -0.04362 0.999048 -6.117404676972825E-17
vn -0.04362 0.999048 -6.117404676972825E-17
vn -0.04362 0.999048 -6.117404676972825E-17
vn -0.04362 0.999048 -6.117404676972825E-17
vn 0.033128 -0.758728 0.650565
vn 0.033127 -0.758728 0.650564
vn 0.033128 -0.758728 0.650565
vn 0.033128 -0.758727 0.650566
vn -0.033127 0.758728 0.650565
vn -0.033127 0.758728 0.650565
vn -0.033127 0.758728 0.650565
vn -0.033127 0.758728 0.650565
vn -0.13343 -0.15056599999999995 0.979554
vn -0.257455 -0.29051999999999994 0.921583
vn 0.302806 -0.24464199999999994 0.921118
vn -0.302806 0.24464100000000005 0.921119
vn 0.13343 0.15056500000000006 0.979554
vn 0.257454 0.29051800000000005 0.921584
g Staende
f 1/1/1 2/2/2 3/3/3
f 3/3/3 4/4/4 1/1/1
f 5/5/5 6/6/6 7/7/7
f 7/7/7 8/8/8 5/5/5
f 9/9/9 10/10/10 11/11/11
f 11/11/11 12/12/12 9/9/9
f 13/13/13 14/14/14 15/15/15
f 15/15/15 16/16/16 13/13/13
f 17/17/17 18/18/18 19/19/19
f 19/19/19 20/20/20 17/17/17
f 21/21/21 22/22/22 23/23/23
f 23/23/23 24/24/24 21/21/21
f 25/25/25 26/26/26 27/27/27
f 27/27/27 28/28/28 25/25/25
f 29/29/29 30/30/30 31/31/31
f 31/31/31 32/32/32 29/29/29
f 33/33/33 34/34/34 35/35/35
f 35/35/35 36/36/36 33/33/33
f 37/37/37 38/38/38 39/39/39
f 39/39/39 40/40/40 37/37/37
f 41/41/41 42/42/42 43/43/43
f 43/43/43 44/44/44 41/41/41
f 45/45/45 46/46/46 47/47/47
f 47/47/47 48/48/48 45/45/45
f 49/49/49 50/50/50 51/51/51
f 51/51/51 52/52/52 49/49/49
f 53/53/53 54/54/54 55/55/55
f 55/55/55 56/56/56 53/53/53
f 57/57/57 58/58/58 59/59/59
f 59/59/59 60/60/60 57/57/57
f 61/61/61 62/62/62 63/63/63
f 63/63/63 64/64/64 61/61/61
f 65/65/65 66/66/66 67/67/67
f 67/67/67 68/68/68 65/65/65
f 69/69/69 70/70/70 71/71/71
f 71/71/71 72/72/72 69/69/69
f 73/73/73 74/74/74 75/75/75
f 75/75/75 76/76/76 73/73/73
f 77/77/77 78/78/78 79/79/79
f 79/79/79 80/80/80 77/77/77
f 81/81/81 82/82/82 83/83/83
f 83/83/83 84/84/84 81/81/81
f 85/85/85 86/86/86 87/87/87
f 87/87/87 88/88/88 85/85/85
f 89/89/89 90/90/90 91/91/91
f 91/91/91 92/92/92 89/89/89
f 93/93/93 94/94/94 95/95/95
f 95/95/95 96/96/96 93/93/93
f 97/97/97 98/98/98 99/99/99
f 99/99/99 100/100/100 97/97/97
f 101/101/101 102/102/102 103/103/103
f 103/103/103 104/104/104 101/101/101
f 105/105/105 106/106/106 107/107/107
f 107/107/107 108/108/108 105/105/105
f 109/109/109 110/110/110 111/111/111
f 111/111/111 112/112/112 109/109/109
f 113/113/113 114/114/114 115/115/115
f 115/115/115 116/116/116 113/113/113
f 117/117/117 118/118/118 119/119/119
f 119/119/119 120/120/120 117/117/117
f 121/121/121 122/122/122 123/123/123
f 123/123/123 124/124/124 121/121/121
f 125/125/125 126/126/126 127/127/127
f 127/127/127 128/128/128 125/125/125
f 129/129/129 130/130/130 131/131/131
f 131/131/131 132/132/132 129/129/129
f 133/133/133 134/134/134 135/135/135
f 135/135/135 136/136/136 133/133/133
f 137/137/137 138/138/138 139/139/139
f 139/139/139 140/140/140 137/137/137
f 141/141/141 142/142/142 143/143/143
f 143/143/143 144/144/144 141/141/141
f 145/145/145 146/146/146 147/147/147
f 147/147/147 148/148/148 145/145/145
f 149/149/149 150/150/150 151/151/151
f 151/151/151 152/152/152 149/149/149
f 153/153/153 154/154/154 155/155/155
f 155/155/155 156/156/156 153/153/153
f 157/157/157 158/158/158 159/159/159
f 159/159/159 160/160/160 157/157/157
f 161/161/161 162/162/162 163/163/163
f 163/163/163 164/164/164 161/161/161
f 165/165/165 166/166/166 167/167/167
f 167/167/167 168/168/168 165/165/165
f 169/169/169 170/170/170 171/171/171
f 171/171/171 172/172/172 169/169/169
f 173/173/173 174/174/174 175/175/175
f 175/175/175 176/176/176 173/173/173
f 177/177/177 178/178/178 179/179/179
f 179/179/179 180/180/180 177/177/177
f 181/181/181 182/182/182 183/183/183
f 183/183/183 184/184/184 181/181/181
f 185/185/185 186/186/186 187/187/187
f 187/187/187 188/188/188 185/185/185
f 189/189/189 190/190/190 191/191/191
f 191/191/191 192/192/192 189/189/189
f 193/193/193 194/194/194 195/195/195
f 195/195/195 196/196/196 193/193/193
f 197/197/197 198/198/198 199/199/199
f 199/199/199 200/200/200 197/197/197
f 201/201/201 202/202/202 203/203/203
f 203/203/203 204/204/204 201/201/201
f 205/205/205 206/206/206 207/207/207
f 207/207/207 208/208/208 205/205/205
f 209/209/209 210/210/210 211/211/211
f 211/211/211 212/212/212 209/209/209
f 213/213/213 214/214/214 215/215/215
f 215/215/215 216/216/216 213/213/213
f 217/217/217 218/218/218 219/219/219
f 219/219/219 220/220/220 217/217/217
f 221/221/221 222/222/222 223/223/223
f 223/223/223 224/224/224 221/221/221
f 225/225/225 226/226/226 227/227/227
f 227/227/227 228/228/228 225/225/225
f 229/229/229 230/230/230 231/231/231
f 231/231/231 232/232/232 229/229/229
f 233/233/233 234/234/234 235/235/235
f 235/235/235 236/236/236 233/233/233
f 237/237/237 238/238/238 239/239/239
f 239/239/239 240/240/240 237/237/237
f 241/241/241 242/242/242 243/243/243
f 243/243/243 244/244/244 241/241/241
f 245/245/245 246/246/246 247/247/247
f 247/247/247 248/248/248 245/245/245
f 249/249/249 250/250/250 251/251/251
f 251/251/251 252/252/252 249/249/249
f 253/253/253 254/254/254 255/255/255
f 255/255/255 256/256/256 253/253/253
f 257/257/257 258/258/258 259/259/259
f 259/259/259 260/260/260 257/257/257
f 261/261/261 262/262/262 263/263/263
f 263/263/263 264/264/264 261/261/261
f 265/265/265 266/266/266 267/267/267
f 267/267/267 268/268/268 265/265/265
f 269/269/269 270/270/270 271/271/271
f 271/271/271 272/272/272 269/269/269
f 273/273/273 274/274/274 275/275/275
f 275/275/275 276/276/276 273/273/273
f 277/277/277 278/278/278 279/279/279
f 279/279/279 280/280/280 277/277/277
f 281/281/281 282/282/282 283/283/283
f 283/283/283 284/284/284 281/281/281
f 285/285/285 286/286/286 287/287/287
f 287/287/287 288/288/288 285/285/285
f 289/289/289 290/290/290 291/291/291
f 291/291/291 292/292/292 289/289/289
f 293/293/293 294/294/294 295/295/295
f 295/295/295 296/296/296 293/293/293
f 297/297/297 298/298/298 299/299/299
f 299/299/299 300/300/300 297/297/297
f 301/301/301 302/302/302 303/303/303
f 303/303/303 304/304/304 301/301/301
f 305/305/305 306/306/306 307/307/307
f 307/307/307 308/308/308 305/305/305
f 309/309/309 310/310/310 311/311/311
f 311/311/311 312/312/312 309/309/309
f 313/313/313 314/314/314 315/315/315
f 315/315/315 316/316/316 313/313/313
f 317/317/317 318/318/318 319/319/319
f 319/319/319 320/320/320 317/317/317
f 321/321/321 322/322/322 323/323/323
f 323/323/323 324/324/324 321/321/321
f 325/325/325 326/326/326 327/327/327
f 327/327/327 328/328/328 325/325/325
f 329/329/329 330/330/330 331/331/331
f 331/331/331 332/332/332 329/329/329
f 333/333/333 334/334/334 335/335/335
f 335/335/335 336/336/336 333/333/333
f 337/337/337 338/338/338 339/339/339
f 339/339/339 340/340/340 337/337/337
f 341/341/341 342/342/342 343/343/343
f 343/343/343 344/344/344 341/341/341
f 345/345/345 346/346/346 347/347/347
f 347/347/347 348/348/348 345/345/345
f 349/349/349 350/350/350 351/351/351
f 351/351/351 352/352/352 349/349/349
f 353/353/353 354/354/354 355/355/355
f 355/355/355 356/356/356 353/353/353
f 357/357/357 358/358/358 359/359/359
f 359/359/359 360/360/360 357/357/357
f 361/361/361 362/362/362 363/363/363
f 363/363/363 364/364/364 361/361/361
f 365/365/365 366/366/366 367/367/367
f 367/367/367 368/368/368 365/365/365
f 369/369/369 370/370/370 371/371/371
f 371/371/371 372/372/372 369/369/369
f 373/373/373 374/374/374 375/375/375
f 375/375/375 376/376/376 373/373/373
f 377/377/377 378/378/378 379/379/379
f 379/379/379 380/380/380 377/377/377
f 381/381/381 382/382/382 383/383/383
f 383/383/383 384/384/384 381/381/381
f 385/385/385 386/386/386 387/387/387
f 387/387/387 388/388/388 385/385/385
f 389/389/389 390/390/390 391/391/391
f 391/391/391 392/392/392 389/389/389
f 393/393/393 394/394/394 395/395/395
f 395/395/395 396/396/396 393/393/393
f 397/397/397 398/398/398 399/399/399
f 399/399/399 400/400/400 397/397/397
f 401/401/401 402/402/402 403/403/403
f 403/403/403 404/404/404 401/401/401
f 405/405/405 406/406/406 407/407/407
f 407/407/407 408/408/408 405/405/405
f 409/409/409 410/410/410 411/411/411
f 411/411/411 412/412/412 409/409/409
f 413/413/413 414/414/414 415/415/415
f 415/415/415 416/416/416 413/413/413
f 417/417/417 418/418/418 419/419/419
f 419/419/419 420/420/420 417/417/417
f 421/421/421 422/422/422 423/423/423
f 423/423/423 424/424/424 421/421/421
f 425/425/425 426/426/426 427/427/427
f 427/427/427 428/428/428 425/425/425
f 429/429/429 430/430/430 431/431/431
f 431/431/431 432/432/432 429/429/429
f 433/433/433 434/434/434 435/435/435
f 435/435/435 436/436/436 433/433/433
f 437/437/437 438/438/438 439/439/439
f 439/439/439 440/440/440 437/437/437
f 441/441/441 442/442/442 443/443/443
f 443/443/443 444/444/444 441/441/441
f 445/445/445 446/446/446 447/447/447
f 447/447/447 448/448/448 445/445/445
f 449/449/449 450/450/450 451/451/451
f 451/451/451 452/452/452 449/449/449
f 453/453/453 454/454/454 455/455/455
f 455/455/455 456/456/456 453/453/453
f 457/457/457 458/458/458 459/459/459
f 460/460/460 458/458/458 457/457/457
f 461/461/461 457/457/457 459/459/459
f 457/457/457 461/461/461 460/460/460
f 459/459/459 462/462/462 461/461/461
f 461/461/461 462/462/462 460/460/460
