v -0.607534 0.17447000000000004 0.874678
v -0.607503 0.17454600000000006 0.702242
v -0.554458 0.30490200000000006 0.874682
v -0.554426 0.30497700000000005 0.702246
v -0.554458 0.30490200000000006 0.874682
v -0.607503 0.17454600000000006 0.702242
v -0.607503 0.17454600000000006 0.702242
v -0.554458 0.30490200000000006 0.874682
v -0.607534 0.17447000000000004 0.874678
v -0.554426 0.30497700000000005 0.702246
vt 0.508709 0.782135
vt 0.508710 0.732142
vt 0.489196 0.782162
vt 0.489195 0.732150
vt 0.489196 0.782162
vt 0.508710 0.732142
vt 0.508710 0.732142
vt 0.489196 0.782162
vt 0.508709 0.782135
vt 0.489195 0.732150
vn -0.926247 0.376918 -1.0000000000230795E-06
vn -0.926246 0.37692 -2.0000000000230794E-06
vn -0.926246 0.37692 -2.0000000000230794E-06
vn -0.926245 0.376921 -3.00000000002308E-06
vn 0.926247 -0.376918 1.0000000000230795E-06
vn 0.926247 -0.376918 1.0000000000230795E-06
vn 0.926245 -0.376921 3.00000000002308E-06
vn 0.926245 -0.376921 3.00000000002308E-06
vn 0.926247 -0.376918 1.0000000000230795E-06
vn 0.926245 -0.376921 3.00000000002308E-06
g kran
f 7/7/7 10/10/10 8/8/8
f 5/5/5 9/9/9 6/6/6
f 3/3/3 4/4/4 2/2/2
f 2/2/2 1/1/1 3/3/3
