v -0.493192 0.112941 0.02063999999999999
v -0.493192 0.112941 0.05514399999999999
v -0.689813 0.146639 0.05514399999999999
v -0.689813 0.146639 0.020639999999999988
v -0.45783 0.319272 0.020639999999999978
v -0.45783 0.319272 0.05514399999999998
v -0.493192 0.112941 0.05514399999999999
v -0.493192 0.112941 0.02063999999999999
v -0.654451 0.352969 0.020639999999999978
v -0.654451 0.352969 0.05514399999999998
v -0.45783 0.319272 0.05514399999999998
v -0.45783 0.319272 0.020639999999999978
v -0.689813 0.146639 0.020639999999999988
v -0.689813 0.146639 0.05514399999999999
v -0.654451 0.352969 0.05514399999999998
v -0.654451 0.352969 0.020639999999999978
v -0.689813 0.146639 0.05514399999999999
v -0.493192 0.112941 0.05514399999999999
v -0.45783 0.319272 0.05514399999999998
v -0.654451 0.352969 0.05514399999999998
v -0.493192 0.11294100000000001 0.174245
v -0.493192 0.11294100000000001 0.208749
v -0.689813 0.146639 0.208749
v -0.689813 0.146639 0.174245
v -0.45783 0.319272 0.17424499999999998
v -0.45783 0.319272 0.20874899999999996
v -0.493192 0.11294100000000001 0.208749
v -0.493192 0.11294100000000001 0.174245
v -0.654451 0.352969 0.17424499999999998
v -0.654451 0.352969 0.20874899999999996
v -0.45783 0.319272 0.20874899999999996
v -0.45783 0.319272 0.17424499999999998
v -0.689813 0.146639 0.174245
v -0.689813 0.146639 0.208749
v -0.654451 0.352969 0.20874899999999996
v -0.654451 0.352969 0.17424499999999998
v -0.689813 0.146639 0.208749
v -0.493192 0.11294100000000001 0.208749
v -0.45783 0.319272 0.20874899999999996
v -0.654451 0.352969 0.20874899999999996
v -0.681674 0.150751 0.225448
v -0.681674 0.150751 0.00442199999999999
v -0.498496 0.119358 0.004421999999999993
v -0.498496 0.11935800000000002 0.225448
v -0.498496 0.11935800000000002 0.225448
v -0.498496 0.119358 0.004421999999999993
v -0.464995 0.314833 0.004421999999999981
v -0.464995 0.314833 0.22544799999999998
v -0.464995 0.314833 0.22544799999999998
v -0.464995 0.314833 0.004421999999999981
v -0.648172 0.346227 0.004421999999999979
v -0.648172 0.346227 0.22544799999999998
v -0.648172 0.346227 0.22544799999999998
v -0.648172 0.346227 0.004421999999999979
v -0.681674 0.150751 0.00442199999999999
v -0.681674 0.150751 0.225448
v -0.681674 0.150751 0.225448
v -0.498496 0.11935800000000002 0.225448
v -0.464995 0.314833 0.22544799999999998
v -0.648172 0.346227 0.22544799999999998
vt 0.483330 0.962238
vt 0.483330 0.878550
vt 0.967798 0.878550
vt 0.967798 0.962238
vt 0.972746 0.958339
vt 0.972746 0.877383
vt 0.481247 0.877383
vt 0.481247 0.958339
vt 0.967798 0.962238
vt 0.967798 0.878550
vt 0.483330 0.878550
vt 0.483330 0.962238
vt 0.481247 0.958339
vt 0.481247 0.877383
vt 0.972746 0.877383
vt 0.972746 0.958339
vt 0.011742 0.992793
vt 0.011742 0.495356
vt 0.483069 0.495356
vt 0.483069 0.992793
vt 0.483330 0.617391
vt 0.483330 0.533703
vt 0.967798 0.533703
vt 0.967798 0.617391
vt 0.972746 0.613492
vt 0.972746 0.532536
vt 0.481247 0.532536
vt 0.481247 0.613492
vt 0.967798 0.617391
vt 0.967798 0.533703
vt 0.483330 0.533703
vt 0.483330 0.617391
vt 0.481247 0.613492
vt 0.481247 0.532536
vt 0.972746 0.532536
vt 0.972746 0.613492
vt 0.011742 0.992793
vt 0.011742 0.495356
vt 0.483069 0.495356
vt 0.483069 0.992793
vt 0.488129 0.493362
vt 0.493547 0.988298
vt 0.972598 0.988291
vt 0.972598 0.493362
vt 0.491211 0.496984
vt 0.491211 0.989793
vt 0.962963 0.991154
vt 0.962963 0.496984
vt 0.972597 0.493362
vt 0.972597 0.987776
vt 0.488129 0.987776
vt 0.488129 0.493362
vt 0.962962 0.496984
vt 0.962962 0.993041
vt 0.496629 0.991757
vt 0.491210 0.496984
vt 0.010487 0.996327
vt 0.010487 0.496378
vt 0.489074 0.496378
vt 0.489074 0.996327
vn -0.168921 -0.985629 6.035236999984033E-17
vn -0.168921 -0.985629 6.035236999984033E-17
vn -0.168921 -0.985629 6.035236999984033E-17
vn -0.168921 -0.985629 6.035236999984033E-17
vn 0.985629 -0.168921 1.0343428097938502E-17
vn 0.985629 -0.168921 1.0343428097938502E-17
vn 0.985629 -0.168921 1.0343428097938502E-17
vn 0.985629 -0.168921 1.0343428097938502E-17
vn 0.168921 0.985629 -6.035236999984033E-17
vn 0.168921 0.985629 -6.035236999984033E-17
vn 0.168921 0.985629 -6.035236999984033E-17
vn 0.168921 0.985629 -6.035236999984033E-17
vn -0.985629 0.168921 -1.0343428097938502E-17
vn -0.985629 0.168921 -1.0343428097938502E-17
vn -0.985629 0.168921 -1.0343428097938502E-17
vn -0.985629 0.168921 -1.0343428097938502E-17
vn 0 6.123233995736766E-17 1
vn 0 6.123233995736766E-17 1
vn 0 6.123233995736766E-17 1
vn 0 6.123233995736766E-17 1
vn -0.168921 -0.985629 6.035236999984033E-17
vn -0.168921 -0.985629 6.035236999984033E-17
vn -0.168921 -0.985629 6.035236999984033E-17
vn -0.168921 -0.985629 6.035236999984033E-17
vn 0.985629 -0.168921 1.0343428097938502E-17
vn 0.985629 -0.168921 1.0343428097938502E-17
vn 0.985629 -0.168921 1.0343428097938502E-17
vn 0.985629 -0.168921 1.0343428097938502E-17
vn 0.168921 0.985629 -6.035236999984033E-17
vn 0.168921 0.985629 -6.035236999984033E-17
vn 0.168921 0.985629 -6.035236999984033E-17
vn 0.168921 0.985629 -6.035236999984033E-17
vn -0.985629 0.168921 -1.0343428097938502E-17
vn -0.985629 0.168921 -1.0343428097938502E-17
vn -0.985629 0.168921 -1.0343428097938502E-17
vn -0.985629 0.168921 -1.0343428097938502E-17
vn 0 6.123233995736766E-17 1
vn 0 6.123233995736766E-17 1
vn 0 6.123233995736766E-17 1
vn 0 6.123233995736766E-17 1
vn -0.168921 -0.985629 6.035236999984033E-17
vn -0.168921 -0.985629 6.035236999984033E-17
vn -0.168921 -0.985629 6.035236999984033E-17
vn -0.168921 -0.985629 6.035236999984033E-17
vn 0.985629 -0.168921 1.0343428097938502E-17
vn 0.985629 -0.168921 1.0343428097938502E-17
vn 0.985629 -0.168921 1.0343428097938502E-17
vn 0.985629 -0.168921 1.0343428097938502E-17
vn 0.168921 0.985629 -6.035236999984033E-17
vn 0.168921 0.985629 -6.035236999984033E-17
vn 0.168921 0.985629 -6.035236999984033E-17
vn 0.168921 0.985629 -6.035236999984033E-17
vn -0.985629 0.168921 -1.0343428097938502E-17
vn -0.985629 0.168921 -1.0343428097938502E-17
vn -0.985629 0.168921 -1.0343428097938502E-17
vn -0.985629 0.168921 -1.0343428097938502E-17
vn 0 6.123233995736766E-17 1
vn 0 6.123233995736766E-17 1
vn 0 6.123233995736766E-17 1
vn 0 6.123233995736766E-17 1
g Standard_9
f 1/1/1 2/2/2 3/3/3
f 3/3/3 4/4/4 1/1/1
f 5/5/5 6/6/6 7/7/7
f 7/7/7 8/8/8 5/5/5
f 9/9/9 10/10/10 11/11/11
f 11/11/11 12/12/12 9/9/9
f 13/13/13 14/14/14 15/15/15
f 15/15/15 16/16/16 13/13/13
f 17/17/17 18/18/18 19/19/19
f 19/19/19 20/20/20 17/17/17
f 21/21/21 22/22/22 23/23/23
f 23/23/23 24/24/24 21/21/21
f 25/25/25 26/26/26 27/27/27
f 27/27/27 28/28/28 25/25/25
f 29/29/29 30/30/30 31/31/31
f 31/31/31 32/32/32 29/29/29
f 33/33/33 34/34/34 35/35/35
f 35/35/35 36/36/36 33/33/33
f 37/37/37 38/38/38 39/39/39
f 39/39/39 40/40/40 37/37/37
f 41/41/41 42/42/42 43/43/43
f 43/43/43 44/44/44 41/41/41
f 45/45/45 46/46/46 47/47/47
f 47/47/47 48/48/48 45/45/45
f 49/49/49 50/50/50 51/51/51
f 51/51/51 52/52/52 49/49/49
f 53/53/53 54/54/54 55/55/55
f 55/55/55 56/56/56 53/53/53
f 57/57/57 58/58/58 59/59/59
f 59/59/59 60/60/60 57/57/57
