v -0.094423 0.210915 0.220919
v -0.218431 0.155895 -0.11531900000000002
v -0.218431 -0.144973 -0.06608699999999999
v -0.094423 -0.08995299999999999 0.270151
v -0.094423 -0.08995299999999999 0.270151
v -0.218431 -0.144973 -0.06608699999999999
v 0.087285 -0.162942 -0.175898
v 0.211293 -0.10792199999999999 0.16034
v 0.211293 -0.10792199999999999 0.16034
v 0.087285 -0.162942 -0.175898
v 0.087285 0.137926 -0.22513
v 0.211293 0.192946 0.11110699999999998
v 0.211293 0.192946 0.11110699999999998
v 0.087285 0.137926 -0.22513
v -0.218431 0.155895 -0.11531900000000002
v -0.094423 0.210915 0.220919
v -0.094423 0.210915 0.220919
v -0.094423 -0.08995299999999999 0.270151
v 0.211293 -0.10792199999999999 0.16034
v 0.211293 0.192946 0.11110699999999998
vt 0.310554 0.435029
vt 0.311248 0.498446
vt 0.372631 0.498446
vt 0.372631 0.435029
vt 0.310949 0.435493
vt 0.310949 0.498638
vt 0.371396 0.498813
vt 0.371396 0.435493
vt 0.372631 0.435029
vt 0.372631 0.498380
vt 0.310554 0.498380
vt 0.310554 0.435029
vt 0.371396 0.435493
vt 0.371396 0.499054
vt 0.311643 0.498890
vt 0.310949 0.435493
vt 0.249450 0.499787
vt 0.249450 0.436707
vt 0.309794 0.436707
vt 0.309794 0.499787
vn -0.939693 0.055232000000000024 0.337531
vn -0.939693 0.055232000000000024 0.337531
vn -0.939693 0.055232000000000024 0.337531
vn -0.939693 0.055232000000000024 0.337531
vn 0 -0.986875 0.16148700000000005
vn 0 -0.986875 0.16148700000000005
vn 0 -0.986875 0.16148700000000005
vn 0 -0.986875 0.16148700000000005
vn 0.939693 -0.055232000000000024 -0.337531
vn 0.939693 -0.055232000000000024 -0.337531
vn 0.939693 -0.055232000000000024 -0.337531
vn 0.939693 -0.055232000000000024 -0.337531
vn -0 0.986875 -0.16148700000000005
vn -0 0.986875 -0.16148700000000005
vn -0 0.986875 -0.16148700000000005
vn -0 0.986875 -0.16148700000000005
vn 0.34202 0.15174800000000005 0.927359
vn 0.34202 0.15174800000000005 0.927359
vn 0.34202 0.15174800000000005 0.927359
vn 0.34202 0.15174800000000005 0.927359
g bobobj
f 1/1/1 2/2/2 3/3/3
f 3/3/3 4/4/4 1/1/1
f 5/5/5 6/6/6 7/7/7
f 7/7/7 8/8/8 5/5/5
f 9/9/9 10/10/10 11/11/11
f 11/11/11 12/12/12 9/9/9
f 13/13/13 14/14/14 15/15/15
f 15/15/15 16/16/16 13/13/13
f 17/17/17 18/18/18 19/19/19
f 19/19/19 20/20/20 17/17/17
